<svg width="131" height="39" viewBox="0 0 131 39" fill="none" xmlns="http://www.w3.org/2000/svg">
<path fill-rule="evenodd" clip-rule="evenodd" d="M26.8898 0V12.597C34.0645 12.9149 39.6673 18.9192 39.4962 26.1067C39.3251 33.2941 33.4429 39.0245 26.2613 38.9999H13.0677V26.4186H0.5V0H26.8898ZM2.6452 1.25843L13.6961 12.3214L24.7445 1.25843H2.6452ZM25.6431 2.14762V12.5814H15.2129L25.6431 2.14762ZM25.6329 13.8476H14.3352L14.3249 25.1602H25.6329V13.8476ZM1.75717 25.1602V2.14762L13.0678 13.4706V25.1706L1.75717 25.1602ZM14.3141 37.7416H26.2507C32.6331 37.6147 37.7882 32.4872 37.9563 26.0989C38.1244 19.7105 33.2461 14.3185 26.8792 13.8554V26.4186H14.3141V37.7416Z" fill="url(#paint0_linear_4625_21785)"/>
<path d="M120.354 14.912H118.844V6.72882H120.087L120.244 7.68877C120.8 6.89144 121.603 6.49277 122.652 6.49277C123.796 6.49277 124.598 6.92291 125.06 7.78319C125.605 6.92291 126.492 6.49277 127.719 6.49277C128.632 6.49277 129.335 6.77079 129.828 7.32682C130.269 7.84089 130.489 8.54381 130.489 9.43556V14.912H128.978V9.54572C128.978 8.3707 128.448 7.78319 127.389 7.78319C126.759 7.78319 126.256 8.02974 125.878 8.52283C125.574 8.92149 125.422 9.38835 125.422 9.9234V14.912H123.911V9.54572C123.911 8.3707 123.381 7.78319 122.322 7.78319C121.734 7.78319 121.246 8.014 120.858 8.47561C120.522 8.86379 120.354 9.33065 120.354 9.87619V14.912Z" fill="white"/>
<path d="M109.898 6.72882H111.408V12.0951C111.408 13.2701 111.975 13.8576 113.108 13.8576C113.8 13.8576 114.33 13.6111 114.697 13.118C114.981 12.7403 115.122 12.2734 115.122 11.7174V6.72882H116.633V14.912H115.39L115.217 13.9678C114.64 14.7546 113.821 15.148 112.762 15.148C111.828 15.148 111.109 14.8595 110.606 14.2825C110.134 13.7475 109.898 13.0078 109.898 12.0636V6.72882Z" fill="white"/>
<path d="M108.556 13.7002V14.9907C108.168 15.0956 107.795 15.148 107.439 15.148C106.683 15.148 106.117 14.912 105.739 14.4399C105.414 14.0517 105.251 13.5324 105.251 12.8819V8.01925H104.039V6.72882H105.251L105.346 4.76172H106.762V6.72882H108.524V8.01925H106.762V12.9134C106.762 13.5219 107.05 13.8261 107.627 13.8261C107.9 13.8261 108.21 13.7842 108.556 13.7002Z" fill="white"/>
<path d="M97.4869 14.912H95.9761V6.72882H97.2194L97.3925 7.76746C98.0009 6.91767 98.8298 6.49277 99.8789 6.49277C100.844 6.49277 101.584 6.79177 102.098 7.38977C102.549 7.92482 102.774 8.65397 102.774 9.57719V14.912H101.264V9.59293C101.264 8.38644 100.681 7.78319 99.5169 7.78319C98.9084 7.78319 98.4101 7.99302 98.0219 8.41267C97.6652 8.79035 97.4869 9.27295 97.4869 9.86046V14.912Z" fill="white"/>
<path d="M92.4338 12.5515H94.0704C93.8396 13.3803 93.3832 14.0307 92.7013 14.5028C92.0613 14.933 91.2955 15.148 90.4037 15.148C89.1133 15.148 88.1061 14.7389 87.3822 13.9206C86.7213 13.1547 86.3908 12.1213 86.3908 10.8204C86.3908 9.34114 86.8105 8.21858 87.6498 7.45272C88.3422 6.81275 89.2339 6.49277 90.325 6.49277C91.6049 6.49277 92.5701 6.90718 93.2206 7.73598C93.8501 8.53332 94.1648 9.67161 94.1648 11.1509H87.933C87.996 12.1161 88.2897 12.8347 88.8143 13.3068C89.2444 13.6845 89.79 13.8734 90.4509 13.8734C90.965 13.8734 91.4109 13.7317 91.7885 13.4485C92.1033 13.2072 92.3184 12.9082 92.4338 12.5515ZM90.3565 7.70451C89.6851 7.70451 89.1448 7.91433 88.7356 8.33398C88.3474 8.72216 88.1009 9.26246 87.996 9.95488H92.6226C92.5701 9.16804 92.3079 8.58053 91.8358 8.19235C91.4581 7.86712 90.965 7.70451 90.3565 7.70451Z" fill="white"/>
<path d="M74.6039 14.912H73.0932V6.72882H74.3364L74.4937 7.68877C75.0498 6.89144 75.8524 6.49277 76.9015 6.49277C78.045 6.49277 78.8476 6.92291 79.3092 7.78319C79.8548 6.92291 80.7413 6.49277 81.9688 6.49277C82.8815 6.49277 83.5844 6.77079 84.0775 7.32682C84.5181 7.84089 84.7384 8.54381 84.7384 9.43556V14.912H83.2277V9.54572C83.2277 8.3707 82.6979 7.78319 81.6383 7.78319C81.0088 7.78319 80.5052 8.02974 80.1275 8.52283C79.8233 8.92149 79.6712 9.38835 79.6712 9.9234V14.912H78.1604V9.54572C78.1604 8.3707 77.6306 7.78319 76.571 7.78319C75.9835 7.78319 75.4957 8.014 75.1075 8.47561C74.7718 8.86379 74.6039 9.33065 74.6039 9.87619V14.912Z" fill="white"/>
<path d="M63.2927 10.8204C63.2927 9.32016 63.7386 8.18711 64.6303 7.42125C65.3437 6.80226 66.246 6.49277 67.3371 6.49277C68.6065 6.49277 69.6032 6.89668 70.3271 7.70451C71.0195 8.45988 71.3657 9.49851 71.3657 10.8204C71.3657 12.2997 70.9303 13.4275 70.0595 14.2038C69.3461 14.8333 68.4334 15.148 67.3213 15.148C66.0519 15.148 65.05 14.7284 64.3156 13.8891C63.6337 13.1232 63.2927 12.1003 63.2927 10.8204ZM64.8664 10.8204C64.8664 11.8695 65.1339 12.6721 65.669 13.2281C66.1096 13.6898 66.6709 13.9206 67.3528 13.9206C68.1501 13.9206 68.7639 13.6216 69.194 13.0236C69.5927 12.478 69.792 11.7436 69.792 10.8204C69.792 9.7503 69.5297 8.94247 69.0052 8.39693C68.575 7.94581 68.019 7.72025 67.3371 7.72025C66.5502 7.72025 65.9365 8.01925 65.4958 8.61725C65.0762 9.16279 64.8664 9.89718 64.8664 10.8204Z" fill="white"/>
<path d="M51.5058 14.912H49.9951V6.72882H51.2383L51.3956 7.68877C51.9517 6.89144 52.7542 6.49277 53.8034 6.49277C54.9469 6.49277 55.7495 6.92291 56.2111 7.78319C56.7566 6.92291 57.6432 6.49277 58.8706 6.49277C59.7834 6.49277 60.4863 6.77079 60.9794 7.32682C61.42 7.84089 61.6403 8.54381 61.6403 9.43556V14.912H60.1296V9.54572C60.1296 8.3707 59.5998 7.78319 58.5402 7.78319C57.9107 7.78319 57.4071 8.02974 57.0294 8.52283C56.7252 8.92149 56.5731 9.38835 56.5731 9.9234V14.912H55.0623V9.54572C55.0623 8.3707 54.5325 7.78319 53.4729 7.78319C52.8854 7.78319 52.3975 8.014 52.0094 8.47561C51.6736 8.86379 51.5058 9.33065 51.5058 9.87619V14.912Z" fill="white"/>
<path d="M91.5548 28.8857H90.0441V20.7025H91.2873L91.4604 21.7411C92.0689 20.8913 92.8977 20.4665 93.9468 20.4665C94.912 20.4665 95.6517 20.7655 96.1657 21.3635C96.6168 21.8985 96.8424 22.6276 96.8424 23.5509V28.8857H95.3317V23.5666C95.3317 22.3601 94.7494 21.7569 93.5849 21.7569C92.9764 21.7569 92.4781 21.9667 92.0899 22.3863C91.7332 22.764 91.5548 23.2466 91.5548 23.8341V28.8857Z" fill="white"/>
<path d="M80.36 29.4365H81.9809C82.0544 29.8561 82.2642 30.1813 82.6104 30.4121C82.9671 30.6429 83.434 30.7583 84.011 30.7583C84.8188 30.7583 85.422 30.5485 85.8207 30.1289C86.1564 29.7722 86.3243 29.2738 86.3243 28.6339V27.5795C85.7158 28.2929 84.8083 28.6496 83.6018 28.6496C82.5107 28.6496 81.6242 28.2562 80.9423 27.4693C80.3023 26.735 79.9823 25.7803 79.9823 24.6052C79.9823 23.2414 80.3705 22.187 81.1469 21.4421C81.8078 20.7917 82.6576 20.4665 83.6962 20.4665C84.8713 20.4665 85.7578 20.9071 86.3558 21.7883L86.5918 20.7025H87.835V28.7126C87.835 29.7407 87.4626 30.5485 86.7177 31.136C86.0463 31.6816 85.1598 31.9543 84.0582 31.9543C82.9146 31.9543 82.0176 31.6973 81.3672 31.1832C80.8216 30.7531 80.4859 30.1708 80.36 29.4365ZM81.556 24.6367C81.556 25.5285 81.8183 26.2261 82.3429 26.7297C82.773 27.1494 83.3028 27.3592 83.9323 27.3592C84.7611 27.3592 85.3958 27.0864 85.8364 26.5409C86.2141 26.0793 86.403 25.4603 86.403 24.6839C86.403 23.6873 86.1459 22.9266 85.6319 22.4021C85.2017 21.9719 84.6352 21.7569 83.9323 21.7569C83.1559 21.7569 82.5579 22.0244 82.1383 22.5595C81.7501 23.063 81.556 23.7555 81.556 24.6367Z" fill="white"/>
<path d="M78.3405 19.3334H76.641V17.5551H78.3405V19.3334ZM78.2461 28.8857H76.7354V20.7025H78.2461V28.8857Z" fill="white"/>
<path d="M73.4819 26.6668C73.4819 26.2052 73.2406 25.8589 72.758 25.6281C72.4748 25.5022 71.924 25.3449 71.1057 25.156C70.0985 24.9357 69.3799 24.6157 68.9497 24.1961C68.593 23.8394 68.4147 23.3725 68.4147 22.7955C68.4147 22.0296 68.7242 21.4421 69.3431 21.033C69.8992 20.6553 70.6493 20.4665 71.5935 20.4665C72.5692 20.4665 73.3613 20.7077 73.9698 21.1903C74.4943 21.61 74.8196 22.166 74.9455 22.8584H73.4032C73.2249 22.0611 72.6164 21.6625 71.5778 21.6625C71.0008 21.6625 70.5706 21.7674 70.2873 21.9772C70.0565 22.1555 69.9411 22.3811 69.9411 22.6539C69.9411 22.9896 70.067 23.2414 70.3188 23.4092C70.5811 23.5771 71.0899 23.745 71.8453 23.9128C72.9993 24.1646 73.8019 24.4741 74.253 24.8413C74.7566 25.2505 75.0084 25.8222 75.0084 26.5566C75.0084 27.3749 74.6727 28.0201 74.0012 28.4922C73.3927 28.9119 72.5902 29.1217 71.5935 29.1217C70.5024 29.1217 69.6369 28.8594 68.9969 28.3349C68.4409 27.8733 68.1314 27.2753 68.0685 26.5409H69.6107C69.7785 27.4641 70.4447 27.9257 71.6092 27.9257C72.2387 27.9257 72.7266 27.7893 73.0728 27.5166C73.3455 27.2962 73.4819 27.013 73.4819 26.6668Z" fill="white"/>
<path d="M65.1555 26.5251H66.7922C66.5614 27.3539 66.105 28.0044 65.4231 28.4765C64.7831 28.9066 64.0172 29.1217 63.1255 29.1217C61.8351 29.1217 60.8279 28.7126 60.104 27.8942C59.4431 27.1284 59.1126 26.095 59.1126 24.7941C59.1126 23.3148 59.5322 22.1923 60.3715 21.4264C61.064 20.7864 61.9557 20.4665 63.0468 20.4665C64.3267 20.4665 65.2919 20.8809 65.9424 21.7097C66.5718 22.507 66.8866 23.6453 66.8866 25.1246H60.6548C60.7177 26.0898 61.0115 26.8084 61.5361 27.2805C61.9662 27.6582 62.5117 27.847 63.1727 27.847C63.6868 27.847 64.1326 27.7054 64.5103 27.4221C64.8251 27.1808 65.0401 26.8818 65.1555 26.5251ZM63.0783 21.6782C62.4068 21.6782 61.8665 21.888 61.4574 22.3077C61.0692 22.6958 60.8227 23.2361 60.7177 23.9286H65.3444C65.2919 23.1417 65.0296 22.5542 64.5575 22.166C64.1798 21.8408 63.6868 21.6782 63.0783 21.6782Z" fill="white"/>
<path d="M57.3756 28.8857H56.1324L55.8649 27.7369C55.2354 28.6601 54.3279 29.1217 53.1424 29.1217C51.9989 29.1217 51.0966 28.7073 50.4357 27.8785C49.8272 27.1126 49.5229 26.1002 49.5229 24.8413C49.5229 23.3201 49.9111 22.1765 50.6875 21.4107C51.3379 20.7812 52.1877 20.4665 53.2368 20.4665C54.3699 20.4665 55.2459 20.8913 55.8649 21.7411V17.5551H57.3756V28.8857ZM51.0966 24.8728C51.0966 25.8904 51.3484 26.6615 51.852 27.1861C52.2717 27.6162 52.8119 27.8313 53.4729 27.8313C54.2912 27.8313 54.9259 27.5218 55.3771 26.9028C55.7547 26.3678 55.9436 25.6963 55.9436 24.8885C55.9436 23.8289 55.6918 23.0211 55.1882 22.465C54.7581 21.9929 54.1863 21.7569 53.4729 21.7569C52.6756 21.7569 52.0723 22.0454 51.6632 22.6224C51.2855 23.147 51.0966 23.8971 51.0966 24.8728Z" fill="white"/>
<defs>
<linearGradient id="paint0_linear_4625_21785" x1="4.52561" y1="32.7599" x2="31.8255" y2="5.48969" gradientUnits="userSpaceOnUse">
<stop stop-color="#DB1F2E"/>
<stop offset="0.120191" stop-color="#F26B1D"/>
<stop offset="0.249276" stop-color="#F2990A"/>
<stop offset="0.395641" stop-color="#73A321"/>
<stop offset="0.52483" stop-color="#00A3B5"/>
<stop offset="0.668042" stop-color="#0A78CC"/>
<stop offset="0.82762" stop-color="#643ABD"/>
<stop offset="1" stop-color="#C233C4"/>
</linearGradient>
</defs>
</svg>
