<svg width="134" height="40" viewBox="0 0 134 40" fill="none" xmlns="http://www.w3.org/2000/svg">
<path fill-rule="evenodd" clip-rule="evenodd" d="M26.939 0V12.92C34.2629 13.2461 39.9823 19.4044 39.8077 26.7761C39.633 34.1479 33.6285 40.0252 26.2974 40H12.8292V27.096H0V0H26.939ZM2.18984 1.29062L13.4708 12.6373L24.749 1.29062H2.18984ZM25.6665 2.2026V12.9039H15.0192L25.6665 2.2026ZM25.6559 14.2026H14.1231L14.1125 25.8053H25.6559V14.2026ZM1.28315 25.8053V2.2026L12.8292 13.8159V25.8159L1.28315 25.8053ZM14.1019 38.7093H26.2869C32.8021 38.5792 38.0645 33.3203 38.2361 26.7681C38.4077 20.2159 33.4278 14.6856 26.9285 14.2107V27.096H14.1019V38.7093Z" fill="url(#paint0_linear_711_33074)"/>
<path d="M52.9236 15.6657V7.46573H54.1617L54.3181 8.42573C54.8597 7.64489 55.7583 7.19397 56.7042 7.2284C57.7859 7.2284 58.6476 7.6684 59.0903 8.52174C59.716 7.52707 60.7526 7.2284 61.7415 7.2284C63.4012 7.2284 64.4988 8.2204 64.4988 10.1751V15.6657H62.9955V10.2897C62.9955 9.04707 62.4653 8.52707 61.4048 8.52707C60.1985 8.52707 59.4456 9.55107 59.4456 10.6604V15.6657H57.9423V10.2897C57.9423 9.03107 57.3935 8.52707 56.3516 8.52707C55.8145 8.53954 55.3049 8.76806 54.9366 9.1615C54.5684 9.55493 54.3723 10.0804 54.3924 10.6204V15.6657H52.9236Z" fill="white"/>
<path fill-rule="evenodd" clip-rule="evenodd" d="M74.2021 11.5677C74.2021 8.62104 72.4151 7.23438 70.1908 7.23438C67.9797 7.23438 66.1636 8.62104 66.1636 11.5677C66.1636 14.3997 67.8736 15.901 70.1749 15.901C72.4761 15.901 74.2021 14.437 74.2021 11.5677ZM72.6352 11.5623C72.6352 13.5997 71.6463 14.6663 70.2067 14.6663C68.7963 14.6663 67.7305 13.5997 67.7305 11.5623C67.7305 9.525 68.8069 8.45833 70.1908 8.45833C71.5747 8.45833 72.6352 9.48233 72.6352 11.5623Z" fill="white"/>
<path d="M75.9253 15.6657V7.46573H77.1634L77.3198 8.42573C77.8614 7.64489 78.76 7.19397 79.7059 7.2284C80.7876 7.2284 81.6493 7.6684 82.092 8.52174C82.7204 7.52707 83.7543 7.2284 84.7432 7.2284C86.4029 7.2284 87.5005 8.2204 87.5005 10.1751V15.6657H85.9973V10.2897C85.9973 9.04707 85.467 8.52707 84.4065 8.52707C83.2002 8.52707 82.4473 9.55107 82.4473 10.6604V15.6657H80.944V10.2897C80.944 9.03107 80.3952 8.52707 79.3533 8.52707C78.8162 8.53954 78.3066 8.76806 77.9383 9.1615C77.5701 9.55493 77.3741 10.0804 77.3941 10.6204V15.6657H75.9253Z" fill="white"/>
<path fill-rule="evenodd" clip-rule="evenodd" d="M93.1612 15.901C95.1204 15.901 96.4036 14.7997 96.8119 13.301L95.1814 13.293C94.89 14.1279 94.0874 14.6704 93.2089 14.6264C91.8462 14.6264 90.8254 13.789 90.7008 11.8984H96.9047C96.9047 8.58904 95.3378 7.23438 93.0816 7.23438C90.8254 7.23438 89.1658 8.68238 89.1658 11.5677C89.1658 14.453 90.8413 15.901 93.1612 15.901ZM95.3697 10.701H90.7645C90.9978 9.18899 91.9072 8.44766 93.1135 8.44766C94.3675 8.44766 95.261 9.17299 95.3697 10.701Z" fill="white"/>
<path d="M98.7073 15.6666V7.46655H99.9507L100.123 8.50655C100.692 7.69921 101.618 7.22386 102.602 7.23455C104.373 7.23455 105.484 8.32255 105.484 10.3226V15.6559H103.981V10.3226C103.981 9.09322 103.355 8.51188 102.241 8.51188C101.693 8.49948 101.165 8.71628 100.782 9.11056C100.399 9.50484 100.196 10.0413 100.221 10.5919V15.6586L98.7073 15.6666Z" fill="white"/>
<path d="M111.226 15.7334C110.865 15.8384 110.491 15.8914 110.116 15.8908C108.673 15.8908 107.936 14.9788 107.936 13.6214V8.76276H106.73V7.46676H107.936L108.032 5.49609H109.442V7.46676H111.195V8.75743H109.442V13.6641C109.442 14.2801 109.739 14.5788 110.304 14.5788C110.616 14.5794 110.926 14.5372 111.226 14.4534V15.7334Z" fill="white"/>
<path d="M114.063 7.4668V12.8455C114.063 14.0588 114.705 14.6108 115.755 14.6108C117.117 14.6108 117.761 13.5868 117.761 12.4775V7.4668H119.265V15.6668H118.027L117.854 14.7201C117.279 15.4906 116.367 15.9313 115.41 15.9015C113.734 15.9015 112.56 14.9095 112.56 12.8135V7.4668H114.063Z" fill="white"/>
<path d="M121.46 15.6657V7.46573H122.695L122.854 8.42573C123.396 7.64489 124.295 7.19397 125.241 7.2284C126.32 7.2284 127.184 7.6684 127.627 8.52174C128.252 7.52707 129.286 7.2284 130.278 7.2284C131.938 7.2284 133.035 8.2204 133.035 10.1751V15.6657H131.529V10.2897C131.529 9.04707 130.999 8.52707 129.939 8.52707C128.73 8.52707 127.979 9.55107 127.979 10.6604V15.6657H126.473V10.2897C126.473 9.03107 125.927 8.52707 124.883 8.52707C124.346 8.53954 123.836 8.76806 123.468 9.1615C123.099 9.55493 122.903 10.0804 122.923 10.6204V15.6657H121.46Z" fill="white"/>
<path fill-rule="evenodd" clip-rule="evenodd" d="M58.7696 30.2747L59.0347 31.4267H60.2702V20.0801H58.7669V24.2667C58.1626 23.4288 57.1811 22.9512 56.1528 22.9947C53.9762 22.9947 52.457 24.4427 52.457 27.3761C52.457 30.1494 54.008 31.6614 56.06 31.6614C57.14 31.6977 58.163 31.1742 58.7696 30.2747ZM58.8438 27.4268C58.8438 29.1308 57.9344 30.3601 56.3834 30.3601L56.3861 30.3708C55.0234 30.3708 54.0186 29.3788 54.0159 27.4108C54.0159 25.2668 54.9571 24.2908 56.3834 24.2908C57.8867 24.2908 58.8438 25.4241 58.8438 27.4268Z" fill="white"/>
<path fill-rule="evenodd" clip-rule="evenodd" d="M65.9912 31.6667C67.9478 31.6667 69.2337 30.5653 69.6419 29.0667L68.0035 29.0533C67.7112 29.8886 66.9076 30.431 66.0283 30.3867C64.6656 30.3867 63.6476 29.5493 63.5229 27.6587H69.7268C69.7268 24.3493 68.1679 23 65.9117 23C63.6555 23 61.9958 24.448 61.9958 27.3333C61.9958 30.2187 63.6714 31.6667 65.9912 31.6667ZM68.1996 26.4666H63.5918V26.4613C63.8277 24.9493 64.7371 24.208 65.9434 24.2133C67.1974 24.2133 68.0909 24.9386 68.1996 26.4666Z" fill="white"/>
<path d="M73.9342 27.6901C72.0227 27.2661 71.2565 26.5408 71.2565 25.3275C71.2565 23.9248 72.3674 22.9941 74.4194 22.9941C76.2381 22.9941 77.4922 23.8928 77.7573 25.3941H76.2222C76.0499 24.6395 75.4269 24.1968 74.4035 24.1968C73.2767 24.1968 72.7757 24.6235 72.7757 25.1915C72.7757 25.8208 73.1044 26.1035 74.6713 26.4501C76.5669 26.8768 77.8209 27.4128 77.8209 29.0981C77.8209 30.5968 76.5828 31.6661 74.4194 31.6661C72.3833 31.6661 71.0524 30.6581 70.9119 29.0821H72.4469C72.6192 30.0608 73.2927 30.4688 74.4353 30.4688C75.6575 30.4688 76.2912 29.9168 76.2912 29.2101C76.3018 28.2421 75.3924 28.0208 73.9342 27.6901Z" fill="white"/>
<path fill-rule="evenodd" clip-rule="evenodd" d="M79.4514 20.0801V21.8667H81.1429V20.0801H79.4514ZM79.5441 23.232V31.432L81.0473 31.4267V23.232H79.5441Z" fill="white"/>
<path fill-rule="evenodd" clip-rule="evenodd" d="M86.7823 33.3124C85.5919 33.3124 84.9026 32.7977 84.7621 31.979H83.1501C83.4179 33.507 84.656 34.499 86.8327 34.499C89.2453 34.499 90.5921 33.1204 90.5921 31.2537V23.2324H89.3566L89.1206 24.3177C88.5904 23.5364 87.7394 22.9844 86.4694 22.9844C84.261 22.9844 82.771 24.5604 82.771 27.1284C82.771 29.7444 84.4651 31.179 86.3766 31.179C87.628 31.179 88.5374 30.7604 89.0862 30.1124V31.179C89.0862 32.539 88.3041 33.3124 86.7823 33.3124ZM89.1658 27.219C89.1658 28.8723 88.2564 29.899 86.7054 29.899H86.6948C85.4037 29.899 84.3379 28.9043 84.3379 27.1683C84.3379 25.2137 85.3268 24.2857 86.7054 24.2857C88.161 24.2857 89.1658 25.2963 89.1658 27.219Z" fill="white"/>
<path d="M92.7925 31.4262V23.2316H94.0306L94.2029 24.2716C94.7706 23.4637 95.6956 22.9866 96.6792 22.9942C98.4475 22.9942 99.561 24.0822 99.561 26.0822V31.4156H98.0578V26.0822C98.0578 24.8529 97.4295 24.2716 96.3186 24.2716C95.7705 24.2592 95.2418 24.4759 94.8585 24.8701C94.4751 25.2643 94.2714 25.8007 94.2957 26.3516V31.4182L92.7925 31.4262Z" fill="white"/>
<defs>
<linearGradient id="paint0_linear_711_33074" x1="19.9058" y1="0" x2="19.9058" y2="40.0001" gradientUnits="userSpaceOnUse">
<stop stop-color="#93C437"/>
<stop offset="1" stop-color="#279BE8"/>
</linearGradient>
</defs>
</svg>
