<svg width="1150" height="292" viewBox="0 0 1150 292" fill="none" xmlns="http://www.w3.org/2000/svg">
<rect width="1150" height="292" rx="16" fill="#1A1A1A"/>
<mask id="mask0_1022_17255" style="mask-type:alpha" maskUnits="userSpaceOnUse" x="329" y="60" width="124" height="124">
<path fill-rule="evenodd" clip-rule="evenodd" d="M391 184C425.242 184 453 156.242 453 122C453 87.7583 425.242 60 391 60C356.758 60 329 87.7583 329 122C329 156.242 356.758 184 391 184Z" fill="#262626"/>
</mask>
<g mask="url(#mask0_1022_17255)">
<rect width="124" height="124" transform="translate(329 60)" fill="#545454"/>
<path d="M384.32 115.551C384.169 114.206 383.544 113.165 382.445 112.426C381.347 111.678 379.964 111.304 378.298 111.304C377.104 111.304 376.072 111.493 375.201 111.872C374.33 112.241 373.653 112.753 373.17 113.406C372.696 114.05 372.46 114.784 372.46 115.608C372.46 116.299 372.621 116.896 372.942 117.398C373.274 117.9 373.705 118.321 374.235 118.662C374.775 118.993 375.353 119.273 375.968 119.5C376.584 119.718 377.175 119.898 377.744 120.04L380.585 120.778C381.513 121.006 382.464 121.313 383.44 121.702C384.415 122.09 385.319 122.601 386.153 123.236C386.986 123.87 387.658 124.656 388.17 125.594C388.691 126.531 388.951 127.653 388.951 128.96C388.951 130.608 388.525 132.071 387.673 133.349C386.83 134.628 385.603 135.636 383.994 136.375C382.393 137.114 380.457 137.483 378.184 137.483C376.006 137.483 374.121 137.137 372.531 136.446C370.94 135.755 369.694 134.775 368.795 133.506C367.895 132.227 367.398 130.712 367.303 128.96H371.707C371.792 130.011 372.133 130.887 372.729 131.588C373.335 132.279 374.107 132.795 375.045 133.136C375.992 133.468 377.029 133.634 378.156 133.634C379.396 133.634 380.499 133.439 381.465 133.051C382.441 132.653 383.208 132.104 383.766 131.403C384.325 130.693 384.604 129.865 384.604 128.918C384.604 128.056 384.358 127.35 383.866 126.801C383.383 126.252 382.725 125.797 381.891 125.438C381.067 125.078 380.135 124.76 379.093 124.486L375.656 123.548C373.326 122.914 371.479 121.981 370.116 120.75C368.762 119.519 368.085 117.89 368.085 115.864C368.085 114.187 368.539 112.724 369.448 111.474C370.357 110.224 371.588 109.254 373.141 108.562C374.694 107.862 376.446 107.511 378.397 107.511C380.367 107.511 382.104 107.857 383.61 108.548C385.125 109.24 386.318 110.191 387.19 111.403C388.061 112.606 388.515 113.989 388.553 115.551H384.32ZM410.062 115.551C409.911 114.206 409.286 113.165 408.188 112.426C407.089 111.678 405.706 111.304 404.04 111.304C402.847 111.304 401.814 111.493 400.943 111.872C400.072 112.241 399.395 112.753 398.912 113.406C398.438 114.05 398.202 114.784 398.202 115.608C398.202 116.299 398.363 116.896 398.685 117.398C399.016 117.9 399.447 118.321 399.977 118.662C400.517 118.993 401.095 119.273 401.71 119.5C402.326 119.718 402.918 119.898 403.486 120.04L406.327 120.778C407.255 121.006 408.206 121.313 409.182 121.702C410.157 122.09 411.062 122.601 411.895 123.236C412.728 123.87 413.401 124.656 413.912 125.594C414.433 126.531 414.693 127.653 414.693 128.96C414.693 130.608 414.267 132.071 413.415 133.349C412.572 134.628 411.346 135.636 409.736 136.375C408.135 137.114 406.199 137.483 403.926 137.483C401.748 137.483 399.864 137.137 398.273 136.446C396.682 135.755 395.437 134.775 394.537 133.506C393.637 132.227 393.14 130.712 393.045 128.96H397.449C397.534 130.011 397.875 130.887 398.472 131.588C399.078 132.279 399.849 132.795 400.787 133.136C401.734 133.468 402.771 133.634 403.898 133.634C405.138 133.634 406.241 133.439 407.207 133.051C408.183 132.653 408.95 132.104 409.509 131.403C410.067 130.693 410.347 129.865 410.347 128.918C410.347 128.056 410.1 127.35 409.608 126.801C409.125 126.252 408.467 125.797 407.634 125.438C406.81 125.078 405.877 124.76 404.835 124.486L401.398 123.548C399.068 122.914 397.222 121.981 395.858 120.75C394.504 119.519 393.827 117.89 393.827 115.864C393.827 114.187 394.281 112.724 395.19 111.474C396.099 110.224 397.33 109.254 398.884 108.562C400.437 107.862 402.188 107.511 404.139 107.511C406.109 107.511 407.847 107.857 409.352 108.548C410.867 109.24 412.061 110.191 412.932 111.403C413.803 112.606 414.258 113.989 414.295 115.551H410.062Z" fill="white" fill-opacity="0.95"/>
</g>
<g clip-path="url(#clip0_1022_17255)">
<rect x="362" y="204" width="58" height="28" rx="14" fill="#643ABD"/>
<path d="M375.409 224V212.364H379.341C380.25 212.364 380.996 212.519 381.58 212.83C382.163 213.136 382.595 213.559 382.875 214.097C383.155 214.634 383.295 215.246 383.295 215.932C383.295 216.617 383.155 217.225 382.875 217.756C382.595 218.286 382.165 218.703 381.585 219.006C381.006 219.305 380.265 219.455 379.364 219.455H376.182V218.182H379.318C379.939 218.182 380.439 218.091 380.818 217.909C381.201 217.727 381.477 217.47 381.648 217.136C381.822 216.799 381.909 216.398 381.909 215.932C381.909 215.466 381.822 215.059 381.648 214.71C381.473 214.362 381.195 214.093 380.812 213.903C380.43 213.71 379.924 213.614 379.295 213.614H376.818V224H375.409ZM380.886 218.773L383.75 224H382.114L379.295 218.773H380.886ZM389.027 224.182C388.186 224.182 387.461 223.996 386.851 223.625C386.245 223.25 385.777 222.727 385.447 222.057C385.122 221.383 384.959 220.598 384.959 219.705C384.959 218.811 385.122 218.023 385.447 217.341C385.777 216.655 386.235 216.121 386.822 215.739C387.413 215.352 388.103 215.159 388.891 215.159C389.345 215.159 389.794 215.235 390.237 215.386C390.68 215.538 391.084 215.784 391.447 216.125C391.811 216.462 392.101 216.909 392.317 217.466C392.533 218.023 392.641 218.708 392.641 219.523V220.091H385.913V218.932H391.277C391.277 218.439 391.179 218 390.982 217.614C390.788 217.227 390.512 216.922 390.152 216.699C389.796 216.475 389.375 216.364 388.891 216.364C388.357 216.364 387.894 216.496 387.504 216.761C387.118 217.023 386.821 217.364 386.612 217.784C386.404 218.205 386.3 218.655 386.3 219.136V219.909C386.3 220.568 386.413 221.127 386.641 221.585C386.872 222.04 387.192 222.386 387.601 222.625C388.01 222.86 388.485 222.977 389.027 222.977C389.379 222.977 389.697 222.928 389.982 222.83C390.269 222.727 390.518 222.576 390.726 222.375C390.934 222.17 391.095 221.917 391.209 221.614L392.504 221.977C392.368 222.417 392.139 222.803 391.817 223.136C391.495 223.466 391.097 223.723 390.624 223.909C390.15 224.091 389.618 224.182 389.027 224.182ZM400.862 217.227L399.658 217.568C399.582 217.367 399.47 217.172 399.322 216.983C399.179 216.79 398.982 216.631 398.732 216.506C398.482 216.381 398.161 216.318 397.771 216.318C397.237 216.318 396.792 216.441 396.436 216.688C396.084 216.93 395.908 217.239 395.908 217.614C395.908 217.947 396.029 218.21 396.271 218.403C396.514 218.597 396.893 218.758 397.408 218.886L398.703 219.205C399.483 219.394 400.065 219.684 400.447 220.074C400.83 220.46 401.021 220.958 401.021 221.568C401.021 222.068 400.877 222.515 400.589 222.909C400.305 223.303 399.908 223.614 399.396 223.841C398.885 224.068 398.29 224.182 397.612 224.182C396.722 224.182 395.985 223.989 395.402 223.602C394.819 223.216 394.449 222.652 394.294 221.909L395.567 221.591C395.688 222.061 395.917 222.413 396.254 222.648C396.595 222.883 397.04 223 397.589 223C398.214 223 398.711 222.867 399.078 222.602C399.449 222.333 399.635 222.011 399.635 221.636C399.635 221.333 399.529 221.08 399.317 220.875C399.105 220.667 398.779 220.511 398.339 220.409L396.885 220.068C396.086 219.879 395.499 219.585 395.124 219.188C394.752 218.786 394.567 218.284 394.567 217.682C394.567 217.189 394.705 216.754 394.982 216.375C395.262 215.996 395.643 215.699 396.124 215.483C396.608 215.267 397.158 215.159 397.771 215.159C398.635 215.159 399.313 215.348 399.805 215.727C400.302 216.106 400.654 216.606 400.862 217.227ZM406.835 215.273V216.409H402.312V215.273H406.835ZM403.631 213.182H404.972V221.5C404.972 221.879 405.027 222.163 405.136 222.352C405.25 222.538 405.394 222.663 405.568 222.727C405.746 222.788 405.934 222.818 406.131 222.818C406.278 222.818 406.4 222.811 406.494 222.795C406.589 222.777 406.665 222.761 406.722 222.75L406.994 223.955C406.903 223.989 406.777 224.023 406.614 224.057C406.451 224.095 406.244 224.114 405.994 224.114C405.616 224.114 405.244 224.032 404.881 223.869C404.521 223.706 404.222 223.458 403.983 223.125C403.748 222.792 403.631 222.371 403.631 221.864V213.182Z" fill="white" fill-opacity="0.95"/>
</g>
<mask id="mask1_1022_17255" style="mask-type:alpha" maskUnits="userSpaceOnUse" x="513" y="60" width="124" height="124">
<path fill-rule="evenodd" clip-rule="evenodd" d="M575 184C609.242 184 637 156.242 637 122C637 87.7583 609.242 60 575 60C540.758 60 513 87.7583 513 122C513 156.242 540.758 184 575 184Z" fill="#262626"/>
</mask>
<g mask="url(#mask1_1022_17255)">
<rect width="124" height="124" transform="translate(513 60)" fill="#545454"/>
<path d="M568.32 115.551C568.169 114.206 567.544 113.165 566.445 112.426C565.347 111.678 563.964 111.304 562.298 111.304C561.104 111.304 560.072 111.493 559.201 111.872C558.33 112.241 557.653 112.753 557.17 113.406C556.696 114.05 556.46 114.784 556.46 115.608C556.46 116.299 556.621 116.896 556.942 117.398C557.274 117.9 557.705 118.321 558.235 118.662C558.775 118.993 559.353 119.273 559.968 119.5C560.584 119.718 561.175 119.898 561.744 120.04L564.585 120.778C565.513 121.006 566.464 121.313 567.44 121.702C568.415 122.09 569.319 122.601 570.153 123.236C570.986 123.87 571.658 124.656 572.17 125.594C572.691 126.531 572.951 127.653 572.951 128.96C572.951 130.608 572.525 132.071 571.673 133.349C570.83 134.628 569.603 135.636 567.994 136.375C566.393 137.114 564.457 137.483 562.184 137.483C560.006 137.483 558.121 137.137 556.531 136.446C554.94 135.755 553.694 134.775 552.795 133.506C551.895 132.227 551.398 130.712 551.303 128.96H555.707C555.792 130.011 556.133 130.887 556.729 131.588C557.335 132.279 558.107 132.795 559.045 133.136C559.992 133.468 561.029 133.634 562.156 133.634C563.396 133.634 564.499 133.439 565.465 133.051C566.441 132.653 567.208 132.104 567.766 131.403C568.325 130.693 568.604 129.865 568.604 128.918C568.604 128.056 568.358 127.35 567.866 126.801C567.383 126.252 566.725 125.797 565.891 125.438C565.067 125.078 564.135 124.76 563.093 124.486L559.656 123.548C557.326 122.914 555.479 121.981 554.116 120.75C552.762 119.519 552.085 117.89 552.085 115.864C552.085 114.187 552.539 112.724 553.448 111.474C554.357 110.224 555.588 109.254 557.141 108.562C558.694 107.862 560.446 107.511 562.397 107.511C564.367 107.511 566.104 107.857 567.61 108.548C569.125 109.24 570.318 110.191 571.19 111.403C572.061 112.606 572.515 113.989 572.553 115.551H568.32ZM594.062 115.551C593.911 114.206 593.286 113.165 592.188 112.426C591.089 111.678 589.706 111.304 588.04 111.304C586.847 111.304 585.814 111.493 584.943 111.872C584.072 112.241 583.395 112.753 582.912 113.406C582.438 114.05 582.202 114.784 582.202 115.608C582.202 116.299 582.363 116.896 582.685 117.398C583.016 117.9 583.447 118.321 583.977 118.662C584.517 118.993 585.095 119.273 585.71 119.5C586.326 119.718 586.918 119.898 587.486 120.04L590.327 120.778C591.255 121.006 592.206 121.313 593.182 121.702C594.157 122.09 595.062 122.601 595.895 123.236C596.728 123.87 597.401 124.656 597.912 125.594C598.433 126.531 598.693 127.653 598.693 128.96C598.693 130.608 598.267 132.071 597.415 133.349C596.572 134.628 595.346 135.636 593.736 136.375C592.135 137.114 590.199 137.483 587.926 137.483C585.748 137.483 583.864 137.137 582.273 136.446C580.682 135.755 579.437 134.775 578.537 133.506C577.637 132.227 577.14 130.712 577.045 128.96H581.449C581.534 130.011 581.875 130.887 582.472 131.588C583.078 132.279 583.849 132.795 584.787 133.136C585.734 133.468 586.771 133.634 587.898 133.634C589.138 133.634 590.241 133.439 591.207 133.051C592.183 132.653 592.95 132.104 593.509 131.403C594.067 130.693 594.347 129.865 594.347 128.918C594.347 128.056 594.1 127.35 593.608 126.801C593.125 126.252 592.467 125.797 591.634 125.438C590.81 125.078 589.877 124.76 588.835 124.486L585.398 123.548C583.068 122.914 581.222 121.981 579.858 120.75C578.504 119.519 577.827 117.89 577.827 115.864C577.827 114.187 578.281 112.724 579.19 111.474C580.099 110.224 581.33 109.254 582.884 108.562C584.437 107.862 586.188 107.511 588.139 107.511C590.109 107.511 591.847 107.857 593.352 108.548C594.867 109.24 596.061 110.191 596.932 111.403C597.803 112.606 598.258 113.989 598.295 115.551H594.062Z" fill="white" fill-opacity="0.95"/>
<circle cx="575" cy="122" r="62" fill="white" fill-opacity="0.07"/>
</g>
<g clip-path="url(#clip1_1022_17255)">
<rect x="540.5" y="204" width="69" height="28" rx="14" fill="#643ABD"/>
<path d="M553.909 224V212.364H555.318V217.545H561.523V212.364H562.932V224H561.523V218.795H555.318V224H553.909ZM569.116 224.182C568.329 224.182 567.637 223.994 567.043 223.619C566.452 223.244 565.99 222.72 565.656 222.045C565.327 221.371 565.162 220.583 565.162 219.682C565.162 218.773 565.327 217.979 565.656 217.301C565.99 216.623 566.452 216.097 567.043 215.722C567.637 215.347 568.329 215.159 569.116 215.159C569.904 215.159 570.594 215.347 571.185 215.722C571.779 216.097 572.241 216.623 572.571 217.301C572.904 217.979 573.071 218.773 573.071 219.682C573.071 220.583 572.904 221.371 572.571 222.045C572.241 222.72 571.779 223.244 571.185 223.619C570.594 223.994 569.904 224.182 569.116 224.182ZM569.116 222.977C569.715 222.977 570.207 222.824 570.594 222.517C570.98 222.21 571.266 221.807 571.452 221.307C571.637 220.807 571.73 220.265 571.73 219.682C571.73 219.098 571.637 218.555 571.452 218.051C571.266 217.547 570.98 217.14 570.594 216.83C570.207 216.519 569.715 216.364 569.116 216.364C568.518 216.364 568.026 216.519 567.639 216.83C567.253 217.14 566.967 217.547 566.781 218.051C566.596 218.555 566.503 219.098 566.503 219.682C566.503 220.265 566.596 220.807 566.781 221.307C566.967 221.807 567.253 222.21 567.639 222.517C568.026 222.824 568.518 222.977 569.116 222.977ZM581.942 215.273L578.714 224H577.351L574.124 215.273H575.578L577.987 222.227H578.078L580.487 215.273H581.942ZM587.058 224.182C586.217 224.182 585.492 223.996 584.882 223.625C584.276 223.25 583.808 222.727 583.479 222.057C583.153 221.383 582.99 220.598 582.99 219.705C582.99 218.811 583.153 218.023 583.479 217.341C583.808 216.655 584.267 216.121 584.854 215.739C585.445 215.352 586.134 215.159 586.922 215.159C587.376 215.159 587.825 215.235 588.268 215.386C588.712 215.538 589.115 215.784 589.479 216.125C589.842 216.462 590.132 216.909 590.348 217.466C590.564 218.023 590.672 218.708 590.672 219.523V220.091H583.945V218.932H589.308C589.308 218.439 589.21 218 589.013 217.614C588.82 217.227 588.543 216.922 588.183 216.699C587.827 216.475 587.407 216.364 586.922 216.364C586.388 216.364 585.926 216.496 585.536 216.761C585.149 217.023 584.852 217.364 584.643 217.784C584.435 218.205 584.331 218.655 584.331 219.136V219.909C584.331 220.568 584.445 221.127 584.672 221.585C584.903 222.04 585.223 222.386 585.632 222.625C586.041 222.86 586.517 222.977 587.058 222.977C587.411 222.977 587.729 222.928 588.013 222.83C588.301 222.727 588.549 222.576 588.757 222.375C588.965 222.17 589.126 221.917 589.24 221.614L590.536 221.977C590.399 222.417 590.17 222.803 589.848 223.136C589.526 223.466 589.128 223.723 588.655 223.909C588.181 224.091 587.649 224.182 587.058 224.182ZM592.712 224V215.273H594.007V216.591H594.098C594.257 216.159 594.545 215.809 594.962 215.54C595.378 215.271 595.848 215.136 596.371 215.136C596.469 215.136 596.592 215.138 596.74 215.142C596.888 215.146 597 215.152 597.075 215.159V216.523C597.03 216.511 596.926 216.494 596.763 216.472C596.604 216.445 596.435 216.432 596.257 216.432C595.833 216.432 595.454 216.521 595.121 216.699C594.791 216.873 594.53 217.116 594.337 217.426C594.147 217.733 594.053 218.083 594.053 218.477V224H592.712Z" fill="white" fill-opacity="0.95"/>
</g>
<mask id="mask2_1022_17255" style="mask-type:alpha" maskUnits="userSpaceOnUse" x="697" y="60" width="124" height="124">
<path fill-rule="evenodd" clip-rule="evenodd" d="M759 184C793.242 184 821 156.242 821 122C821 87.7583 793.242 60 759 60C724.758 60 697 87.7583 697 122C697 156.242 724.758 184 759 184Z" fill="#262626"/>
</mask>
<g mask="url(#mask2_1022_17255)">
<rect width="124" height="124" transform="translate(697 60)" fill="#545454"/>
<path d="M752.32 115.551C752.169 114.206 751.544 113.165 750.445 112.426C749.347 111.678 747.964 111.304 746.298 111.304C745.104 111.304 744.072 111.493 743.201 111.872C742.33 112.241 741.653 112.753 741.17 113.406C740.696 114.05 740.46 114.784 740.46 115.608C740.46 116.299 740.621 116.896 740.942 117.398C741.274 117.9 741.705 118.321 742.235 118.662C742.775 118.993 743.353 119.273 743.968 119.5C744.584 119.718 745.175 119.898 745.744 120.04L748.585 120.778C749.513 121.006 750.464 121.313 751.44 121.702C752.415 122.09 753.319 122.601 754.153 123.236C754.986 123.87 755.658 124.656 756.17 125.594C756.691 126.531 756.951 127.653 756.951 128.96C756.951 130.608 756.525 132.071 755.673 133.349C754.83 134.628 753.603 135.636 751.994 136.375C750.393 137.114 748.457 137.483 746.184 137.483C744.006 137.483 742.121 137.137 740.531 136.446C738.94 135.755 737.694 134.775 736.795 133.506C735.895 132.227 735.398 130.712 735.303 128.96H739.707C739.792 130.011 740.133 130.887 740.729 131.588C741.335 132.279 742.107 132.795 743.045 133.136C743.992 133.468 745.029 133.634 746.156 133.634C747.396 133.634 748.499 133.439 749.465 133.051C750.441 132.653 751.208 132.104 751.766 131.403C752.325 130.693 752.604 129.865 752.604 128.918C752.604 128.056 752.358 127.35 751.866 126.801C751.383 126.252 750.725 125.797 749.891 125.438C749.067 125.078 748.135 124.76 747.093 124.486L743.656 123.548C741.326 122.914 739.479 121.981 738.116 120.75C736.762 119.519 736.085 117.89 736.085 115.864C736.085 114.187 736.539 112.724 737.448 111.474C738.357 110.224 739.588 109.254 741.141 108.562C742.694 107.862 744.446 107.511 746.397 107.511C748.367 107.511 750.104 107.857 751.61 108.548C753.125 109.24 754.318 110.191 755.19 111.403C756.061 112.606 756.515 113.989 756.553 115.551H752.32ZM778.062 115.551C777.911 114.206 777.286 113.165 776.188 112.426C775.089 111.678 773.706 111.304 772.04 111.304C770.847 111.304 769.814 111.493 768.943 111.872C768.072 112.241 767.395 112.753 766.912 113.406C766.438 114.05 766.202 114.784 766.202 115.608C766.202 116.299 766.363 116.896 766.685 117.398C767.016 117.9 767.447 118.321 767.977 118.662C768.517 118.993 769.095 119.273 769.71 119.5C770.326 119.718 770.918 119.898 771.486 120.04L774.327 120.778C775.255 121.006 776.206 121.313 777.182 121.702C778.157 122.09 779.062 122.601 779.895 123.236C780.728 123.87 781.401 124.656 781.912 125.594C782.433 126.531 782.693 127.653 782.693 128.96C782.693 130.608 782.267 132.071 781.415 133.349C780.572 134.628 779.346 135.636 777.736 136.375C776.135 137.114 774.199 137.483 771.926 137.483C769.748 137.483 767.864 137.137 766.273 136.446C764.682 135.755 763.437 134.775 762.537 133.506C761.637 132.227 761.14 130.712 761.045 128.96H765.449C765.534 130.011 765.875 130.887 766.472 131.588C767.078 132.279 767.849 132.795 768.787 133.136C769.734 133.468 770.771 133.634 771.898 133.634C773.138 133.634 774.241 133.439 775.207 133.051C776.183 132.653 776.95 132.104 777.509 131.403C778.067 130.693 778.347 129.865 778.347 128.918C778.347 128.056 778.1 127.35 777.608 126.801C777.125 126.252 776.467 125.797 775.634 125.438C774.81 125.078 773.877 124.76 772.835 124.486L769.398 123.548C767.068 122.914 765.222 121.981 763.858 120.75C762.504 119.519 761.827 117.89 761.827 115.864C761.827 114.187 762.281 112.724 763.19 111.474C764.099 110.224 765.33 109.254 766.884 108.562C768.437 107.862 770.188 107.511 772.139 107.511C774.109 107.511 775.847 107.857 777.352 108.548C778.867 109.24 780.061 110.191 780.932 111.403C781.803 112.606 782.258 113.989 782.295 115.551H778.062Z" fill="white" fill-opacity="0.95"/>
<circle cx="759" cy="122" r="62" fill="white" fill-opacity="0.2"/>
</g>
<g clip-path="url(#clip2_1022_17255)">
<rect x="716" y="204" width="86" height="28" rx="14" fill="#643ABD"/>
<path d="M729.409 224V212.364H733.341C734.254 212.364 735 212.528 735.58 212.858C736.163 213.184 736.595 213.625 736.875 214.182C737.155 214.739 737.295 215.36 737.295 216.045C737.295 216.731 737.155 217.354 736.875 217.915C736.598 218.475 736.17 218.922 735.591 219.256C735.011 219.585 734.269 219.75 733.364 219.75H730.545V218.5H733.318C733.943 218.5 734.445 218.392 734.824 218.176C735.203 217.96 735.477 217.669 735.648 217.301C735.822 216.93 735.909 216.511 735.909 216.045C735.909 215.58 735.822 215.163 735.648 214.795C735.477 214.428 735.201 214.14 734.818 213.932C734.436 213.72 733.928 213.614 733.295 213.614H730.818V224H729.409ZM739.384 224V215.273H740.679V216.591H740.77C740.929 216.159 741.217 215.809 741.634 215.54C742.05 215.271 742.52 215.136 743.043 215.136C743.141 215.136 743.264 215.138 743.412 215.142C743.56 215.146 743.671 215.152 743.747 215.159V216.523C743.702 216.511 743.598 216.494 743.435 216.472C743.276 216.445 743.107 216.432 742.929 216.432C742.505 216.432 742.126 216.521 741.793 216.699C741.463 216.873 741.202 217.116 741.009 217.426C740.819 217.733 740.724 218.083 740.724 218.477V224H739.384ZM748.73 224.182C747.889 224.182 747.164 223.996 746.554 223.625C745.948 223.25 745.48 222.727 745.151 222.057C744.825 221.383 744.662 220.598 744.662 219.705C744.662 218.811 744.825 218.023 745.151 217.341C745.48 216.655 745.938 216.121 746.526 215.739C747.116 215.352 747.806 215.159 748.594 215.159C749.048 215.159 749.497 215.235 749.94 215.386C750.384 215.538 750.787 215.784 751.151 216.125C751.514 216.462 751.804 216.909 752.02 217.466C752.236 218.023 752.344 218.708 752.344 219.523V220.091H745.616V218.932H750.98C750.98 218.439 750.882 218 750.685 217.614C750.491 217.227 750.215 216.922 749.855 216.699C749.499 216.475 749.079 216.364 748.594 216.364C748.06 216.364 747.598 216.496 747.207 216.761C746.821 217.023 746.524 217.364 746.315 217.784C746.107 218.205 746.003 218.655 746.003 219.136V219.909C746.003 220.568 746.116 221.127 746.344 221.585C746.575 222.04 746.895 222.386 747.304 222.625C747.713 222.86 748.188 222.977 748.73 222.977C749.082 222.977 749.401 222.928 749.685 222.83C749.973 222.727 750.221 222.576 750.429 222.375C750.637 222.17 750.798 221.917 750.912 221.614L752.207 221.977C752.071 222.417 751.842 222.803 751.52 223.136C751.198 223.466 750.8 223.723 750.327 223.909C749.853 224.091 749.321 224.182 748.73 224.182ZM760.565 217.227L759.361 217.568C759.285 217.367 759.173 217.172 759.026 216.983C758.882 216.79 758.685 216.631 758.435 216.506C758.185 216.381 757.865 216.318 757.474 216.318C756.94 216.318 756.495 216.441 756.139 216.688C755.787 216.93 755.611 217.239 755.611 217.614C755.611 217.947 755.732 218.21 755.974 218.403C756.217 218.597 756.596 218.758 757.111 218.886L758.406 219.205C759.187 219.394 759.768 219.684 760.151 220.074C760.533 220.46 760.724 220.958 760.724 221.568C760.724 222.068 760.58 222.515 760.293 222.909C760.009 223.303 759.611 223.614 759.099 223.841C758.588 224.068 757.993 224.182 757.315 224.182C756.425 224.182 755.688 223.989 755.105 223.602C754.522 223.216 754.152 222.652 753.997 221.909L755.27 221.591C755.391 222.061 755.62 222.413 755.957 222.648C756.298 222.883 756.743 223 757.293 223C757.918 223 758.414 222.867 758.781 222.602C759.152 222.333 759.338 222.011 759.338 221.636C759.338 221.333 759.232 221.08 759.02 220.875C758.808 220.667 758.482 220.511 758.043 220.409L756.588 220.068C755.789 219.879 755.202 219.585 754.827 219.188C754.455 218.786 754.27 218.284 754.27 217.682C754.27 217.189 754.408 216.754 754.685 216.375C754.965 215.996 755.346 215.699 755.827 215.483C756.312 215.267 756.861 215.159 757.474 215.159C758.338 215.159 759.016 215.348 759.509 215.727C760.005 216.106 760.357 216.606 760.565 217.227ZM768.925 217.227L767.72 217.568C767.644 217.367 767.533 217.172 767.385 216.983C767.241 216.79 767.044 216.631 766.794 216.506C766.544 216.381 766.224 216.318 765.834 216.318C765.3 216.318 764.855 216.441 764.499 216.688C764.146 216.93 763.97 217.239 763.97 217.614C763.97 217.947 764.091 218.21 764.334 218.403C764.576 218.597 764.955 218.758 765.47 218.886L766.766 219.205C767.546 219.394 768.127 219.684 768.51 220.074C768.893 220.46 769.084 220.958 769.084 221.568C769.084 222.068 768.94 222.515 768.652 222.909C768.368 223.303 767.97 223.614 767.459 223.841C766.947 224.068 766.353 224.182 765.675 224.182C764.785 224.182 764.048 223.989 763.464 223.602C762.881 223.216 762.512 222.652 762.357 221.909L763.629 221.591C763.75 222.061 763.98 222.413 764.317 222.648C764.658 222.883 765.103 223 765.652 223C766.277 223 766.773 222.867 767.141 222.602C767.512 222.333 767.697 222.011 767.697 221.636C767.697 221.333 767.591 221.08 767.379 220.875C767.167 220.667 766.841 220.511 766.402 220.409L764.947 220.068C764.148 219.879 763.561 219.585 763.186 219.188C762.815 218.786 762.629 218.284 762.629 217.682C762.629 217.189 762.768 216.754 763.044 216.375C763.324 215.996 763.705 215.699 764.186 215.483C764.671 215.267 765.22 215.159 765.834 215.159C766.697 215.159 767.375 215.348 767.868 215.727C768.364 216.106 768.716 216.606 768.925 217.227ZM774.761 224.182C773.92 224.182 773.195 223.996 772.585 223.625C771.979 223.25 771.511 222.727 771.182 222.057C770.856 221.383 770.693 220.598 770.693 219.705C770.693 218.811 770.856 218.023 771.182 217.341C771.511 216.655 771.97 216.121 772.557 215.739C773.148 215.352 773.837 215.159 774.625 215.159C775.08 215.159 775.528 215.235 775.972 215.386C776.415 215.538 776.818 215.784 777.182 216.125C777.545 216.462 777.835 216.909 778.051 217.466C778.267 218.023 778.375 218.708 778.375 219.523V220.091H771.648V218.932H777.011C777.011 218.439 776.913 218 776.716 217.614C776.523 217.227 776.246 216.922 775.886 216.699C775.53 216.475 775.11 216.364 774.625 216.364C774.091 216.364 773.629 216.496 773.239 216.761C772.852 217.023 772.555 217.364 772.347 217.784C772.138 218.205 772.034 218.655 772.034 219.136V219.909C772.034 220.568 772.148 221.127 772.375 221.585C772.606 222.04 772.926 222.386 773.335 222.625C773.744 222.86 774.22 222.977 774.761 222.977C775.114 222.977 775.432 222.928 775.716 222.83C776.004 222.727 776.252 222.576 776.46 222.375C776.669 222.17 776.83 221.917 776.943 221.614L778.239 221.977C778.102 222.417 777.873 222.803 777.551 223.136C777.229 223.466 776.831 223.723 776.358 223.909C775.884 224.091 775.352 224.182 774.761 224.182ZM783.71 224.182C782.983 224.182 782.341 223.998 781.784 223.631C781.227 223.259 780.792 222.737 780.477 222.062C780.163 221.384 780.006 220.583 780.006 219.659C780.006 218.742 780.163 217.947 780.477 217.273C780.792 216.598 781.229 216.078 781.79 215.71C782.35 215.343 782.998 215.159 783.733 215.159C784.301 215.159 784.75 215.254 785.08 215.443C785.413 215.629 785.667 215.841 785.841 216.08C786.019 216.314 786.157 216.508 786.256 216.659H786.369V212.364H787.71V224H786.415V222.659H786.256C786.157 222.818 786.017 223.019 785.835 223.261C785.653 223.5 785.394 223.714 785.057 223.903C784.72 224.089 784.271 224.182 783.71 224.182ZM783.892 222.977C784.43 222.977 784.884 222.837 785.256 222.557C785.627 222.273 785.909 221.881 786.102 221.381C786.295 220.877 786.392 220.295 786.392 219.636C786.392 218.985 786.297 218.415 786.108 217.926C785.919 217.434 785.638 217.051 785.267 216.778C784.896 216.502 784.438 216.364 783.892 216.364C783.324 216.364 782.85 216.509 782.472 216.801C782.097 217.089 781.814 217.481 781.625 217.977C781.439 218.47 781.347 219.023 781.347 219.636C781.347 220.258 781.441 220.822 781.631 221.33C781.824 221.833 782.108 222.235 782.483 222.534C782.862 222.83 783.331 222.977 783.892 222.977Z" fill="white" fill-opacity="0.95"/>
</g>
<defs>
<clipPath id="clip0_1022_17255">
<rect width="58" height="28" fill="white" transform="translate(362 204)"/>
</clipPath>
<clipPath id="clip1_1022_17255">
<rect width="69" height="28" fill="white" transform="translate(540.5 204)"/>
</clipPath>
<clipPath id="clip2_1022_17255">
<rect width="86" height="28" fill="white" transform="translate(716 204)"/>
</clipPath>
</defs>
</svg>
