<svg width="1150" height="544" viewBox="0 0 1150 544" fill="none" xmlns="http://www.w3.org/2000/svg">
<rect width="1150" height="544" rx="16" fill="#1A1A1A"/>
<mask id="mask0_1022_17131" style="mask-type:alpha" maskUnits="userSpaceOnUse" x="145" y="60" width="124" height="124">
<path fill-rule="evenodd" clip-rule="evenodd" d="M207 184C241.242 184 269 156.242 269 122C269 87.7583 241.242 60 207 60C172.758 60 145 87.7583 145 122C145 156.242 172.758 184 207 184Z" fill="#262626"/>
</mask>
<g mask="url(#mask0_1022_17131)">
<rect width="124" height="124" transform="translate(145 60)" fill="#545454"/>
<path d="M200.32 115.551C200.169 114.206 199.544 113.165 198.445 112.426C197.347 111.678 195.964 111.304 194.298 111.304C193.104 111.304 192.072 111.493 191.201 111.872C190.33 112.241 189.653 112.753 189.17 113.406C188.696 114.05 188.46 114.784 188.46 115.608C188.46 116.299 188.621 116.896 188.942 117.398C189.274 117.9 189.705 118.321 190.235 118.662C190.775 118.993 191.353 119.273 191.968 119.5C192.584 119.718 193.175 119.898 193.744 120.04L196.585 120.778C197.513 121.006 198.464 121.313 199.44 121.702C200.415 122.09 201.319 122.601 202.153 123.236C202.986 123.87 203.658 124.656 204.17 125.594C204.691 126.531 204.951 127.653 204.951 128.96C204.951 130.608 204.525 132.071 203.673 133.349C202.83 134.628 201.603 135.636 199.994 136.375C198.393 137.114 196.457 137.483 194.184 137.483C192.006 137.483 190.121 137.137 188.531 136.446C186.94 135.755 185.694 134.775 184.795 133.506C183.895 132.227 183.398 130.712 183.303 128.96H187.707C187.792 130.011 188.133 130.887 188.729 131.588C189.335 132.279 190.107 132.795 191.045 133.136C191.992 133.468 193.029 133.634 194.156 133.634C195.396 133.634 196.499 133.439 197.465 133.051C198.441 132.653 199.208 132.104 199.766 131.403C200.325 130.693 200.604 129.865 200.604 128.918C200.604 128.056 200.358 127.35 199.866 126.801C199.383 126.252 198.725 125.797 197.891 125.438C197.067 125.078 196.135 124.76 195.093 124.486L191.656 123.548C189.326 122.914 187.479 121.981 186.116 120.75C184.762 119.519 184.085 117.89 184.085 115.864C184.085 114.187 184.539 112.724 185.448 111.474C186.357 110.224 187.588 109.254 189.141 108.562C190.694 107.862 192.446 107.511 194.397 107.511C196.367 107.511 198.104 107.857 199.61 108.548C201.125 109.24 202.318 110.191 203.19 111.403C204.061 112.606 204.515 113.989 204.553 115.551H200.32ZM226.062 115.551C225.911 114.206 225.286 113.165 224.188 112.426C223.089 111.678 221.706 111.304 220.04 111.304C218.847 111.304 217.814 111.493 216.943 111.872C216.072 112.241 215.395 112.753 214.912 113.406C214.438 114.05 214.202 114.784 214.202 115.608C214.202 116.299 214.363 116.896 214.685 117.398C215.016 117.9 215.447 118.321 215.977 118.662C216.517 118.993 217.095 119.273 217.71 119.5C218.326 119.718 218.918 119.898 219.486 120.04L222.327 120.778C223.255 121.006 224.206 121.313 225.182 121.702C226.157 122.09 227.062 122.601 227.895 123.236C228.728 123.87 229.401 124.656 229.912 125.594C230.433 126.531 230.693 127.653 230.693 128.96C230.693 130.608 230.267 132.071 229.415 133.349C228.572 134.628 227.346 135.636 225.736 136.375C224.135 137.114 222.199 137.483 219.926 137.483C217.748 137.483 215.864 137.137 214.273 136.446C212.682 135.755 211.437 134.775 210.537 133.506C209.637 132.227 209.14 130.712 209.045 128.96H213.449C213.534 130.011 213.875 130.887 214.472 131.588C215.078 132.279 215.849 132.795 216.787 133.136C217.734 133.468 218.771 133.634 219.898 133.634C221.138 133.634 222.241 133.439 223.207 133.051C224.183 132.653 224.95 132.104 225.509 131.403C226.067 130.693 226.347 129.865 226.347 128.918C226.347 128.056 226.1 127.35 225.608 126.801C225.125 126.252 224.467 125.797 223.634 125.438C222.81 125.078 221.877 124.76 220.835 124.486L217.398 123.548C215.068 122.914 213.222 121.981 211.858 120.75C210.504 119.519 209.827 117.89 209.827 115.864C209.827 114.187 210.281 112.724 211.19 111.474C212.099 110.224 213.33 109.254 214.884 108.562C216.437 107.862 218.188 107.511 220.139 107.511C222.109 107.511 223.847 107.857 225.352 108.548C226.867 109.24 228.061 110.191 228.932 111.403C229.803 112.606 230.258 113.989 230.295 115.551H226.062Z" fill="white" fill-opacity="0.95"/>
</g>
<g clip-path="url(#clip0_1022_17131)">
<rect x="167.5" y="204" width="79" height="28" rx="14" fill="#643ABD"/>
<path d="M184.5 224H180.909V212.364H184.659C185.788 212.364 186.754 212.597 187.557 213.062C188.36 213.525 188.975 214.189 189.403 215.057C189.831 215.92 190.045 216.955 190.045 218.159C190.045 219.371 189.83 220.415 189.398 221.29C188.966 222.161 188.337 222.831 187.511 223.301C186.686 223.767 185.682 224 184.5 224ZM182.318 222.75H184.409C185.371 222.75 186.169 222.564 186.801 222.193C187.434 221.822 187.905 221.294 188.216 220.608C188.527 219.922 188.682 219.106 188.682 218.159C188.682 217.22 188.528 216.411 188.222 215.733C187.915 215.051 187.456 214.528 186.847 214.165C186.237 213.797 185.477 213.614 184.568 213.614H182.318V222.75ZM195.886 224.182C195.045 224.182 194.32 223.996 193.71 223.625C193.104 223.25 192.636 222.727 192.307 222.057C191.981 221.383 191.818 220.598 191.818 219.705C191.818 218.811 191.981 218.023 192.307 217.341C192.636 216.655 193.095 216.121 193.682 215.739C194.273 215.352 194.962 215.159 195.75 215.159C196.205 215.159 196.653 215.235 197.097 215.386C197.54 215.538 197.943 215.784 198.307 216.125C198.67 216.462 198.96 216.909 199.176 217.466C199.392 218.023 199.5 218.708 199.5 219.523V220.091H192.773V218.932H198.136C198.136 218.439 198.038 218 197.841 217.614C197.648 217.227 197.371 216.922 197.011 216.699C196.655 216.475 196.235 216.364 195.75 216.364C195.216 216.364 194.754 216.496 194.364 216.761C193.977 217.023 193.68 217.364 193.472 217.784C193.263 218.205 193.159 218.655 193.159 219.136V219.909C193.159 220.568 193.273 221.127 193.5 221.585C193.731 222.04 194.051 222.386 194.46 222.625C194.869 222.86 195.345 222.977 195.886 222.977C196.239 222.977 196.557 222.928 196.841 222.83C197.129 222.727 197.377 222.576 197.585 222.375C197.794 222.17 197.955 221.917 198.068 221.614L199.364 221.977C199.227 222.417 198.998 222.803 198.676 223.136C198.354 223.466 197.956 223.723 197.483 223.909C197.009 224.091 196.477 224.182 195.886 224.182ZM205.426 215.273V216.409H200.722V215.273H205.426ZM202.131 224V214.068C202.131 213.568 202.248 213.152 202.483 212.818C202.718 212.485 203.023 212.235 203.398 212.068C203.773 211.902 204.169 211.818 204.585 211.818C204.915 211.818 205.184 211.845 205.392 211.898C205.6 211.951 205.756 212 205.858 212.045L205.472 213.205C205.403 213.182 205.309 213.153 205.188 213.119C205.07 213.085 204.915 213.068 204.722 213.068C204.278 213.068 203.958 213.18 203.761 213.403C203.568 213.627 203.472 213.955 203.472 214.386V224H202.131ZM209.624 224.205C209.071 224.205 208.569 224.1 208.118 223.892C207.667 223.68 207.309 223.375 207.044 222.977C206.779 222.576 206.646 222.091 206.646 221.523C206.646 221.023 206.745 220.617 206.942 220.307C207.139 219.992 207.402 219.746 207.732 219.568C208.061 219.39 208.425 219.258 208.822 219.17C209.224 219.08 209.627 219.008 210.033 218.955C210.563 218.886 210.993 218.835 211.322 218.801C211.656 218.763 211.898 218.701 212.05 218.614C212.205 218.527 212.283 218.375 212.283 218.159V218.114C212.283 217.553 212.129 217.117 211.822 216.807C211.519 216.496 211.059 216.341 210.442 216.341C209.802 216.341 209.3 216.481 208.936 216.761C208.572 217.042 208.317 217.341 208.169 217.659L206.896 217.205C207.124 216.674 207.427 216.261 207.805 215.966C208.188 215.667 208.605 215.458 209.055 215.341C209.51 215.22 209.957 215.159 210.396 215.159C210.677 215.159 210.999 215.193 211.362 215.261C211.73 215.326 212.084 215.46 212.425 215.665C212.769 215.869 213.055 216.178 213.283 216.591C213.51 217.004 213.624 217.557 213.624 218.25V224H212.283V222.818H212.214C212.124 223.008 211.972 223.21 211.76 223.426C211.548 223.642 211.266 223.826 210.913 223.977C210.561 224.129 210.131 224.205 209.624 224.205ZM209.828 223C210.358 223 210.805 222.896 211.169 222.688C211.536 222.479 211.813 222.21 211.999 221.881C212.188 221.551 212.283 221.205 212.283 220.841V219.614C212.226 219.682 212.101 219.744 211.908 219.801C211.718 219.854 211.499 219.902 211.249 219.943C211.002 219.981 210.762 220.015 210.527 220.045C210.296 220.072 210.108 220.095 209.964 220.114C209.616 220.159 209.29 220.233 208.987 220.335C208.688 220.434 208.446 220.583 208.26 220.784C208.078 220.981 207.987 221.25 207.987 221.591C207.987 222.057 208.16 222.409 208.504 222.648C208.853 222.883 209.294 223 209.828 223ZM221.571 220.432V215.273H222.912V224H221.571V222.523H221.48C221.276 222.966 220.957 223.343 220.526 223.653C220.094 223.96 219.548 224.114 218.889 224.114C218.344 224.114 217.859 223.994 217.435 223.756C217.01 223.513 216.677 223.15 216.435 222.665C216.192 222.176 216.071 221.561 216.071 220.818V215.273H217.412V220.727C217.412 221.364 217.59 221.871 217.946 222.25C218.306 222.629 218.764 222.818 219.321 222.818C219.654 222.818 219.993 222.733 220.338 222.562C220.687 222.392 220.978 222.131 221.213 221.778C221.452 221.426 221.571 220.977 221.571 220.432ZM226.709 212.364V224H225.368V212.364H226.709ZM232.96 215.273V216.409H228.438V215.273H232.96ZM229.756 213.182H231.097V221.5C231.097 221.879 231.152 222.163 231.261 222.352C231.375 222.538 231.519 222.663 231.693 222.727C231.871 222.788 232.059 222.818 232.256 222.818C232.403 222.818 232.525 222.811 232.619 222.795C232.714 222.777 232.79 222.761 232.847 222.75L233.119 223.955C233.028 223.989 232.902 224.023 232.739 224.057C232.576 224.095 232.369 224.114 232.119 224.114C231.741 224.114 231.369 224.032 231.006 223.869C230.646 223.706 230.347 223.458 230.108 223.125C229.873 222.792 229.756 222.371 229.756 221.864V213.182Z" fill="white" fill-opacity="0.95"/>
</g>
<mask id="mask1_1022_17131" style="mask-type:alpha" maskUnits="userSpaceOnUse" x="329" y="60" width="124" height="124">
<path fill-rule="evenodd" clip-rule="evenodd" d="M391 184C425.242 184 453 156.242 453 122C453 87.7583 425.242 60 391 60C356.758 60 329 87.7583 329 122C329 156.242 356.758 184 391 184Z" fill="#262626"/>
</mask>
<g mask="url(#mask1_1022_17131)">
<rect width="124" height="124" transform="translate(329 60)" fill="#735107"/>
<path d="M384.32 115.551C384.169 114.206 383.544 113.165 382.445 112.426C381.347 111.678 379.964 111.304 378.298 111.304C377.104 111.304 376.072 111.493 375.201 111.872C374.33 112.241 373.653 112.753 373.17 113.406C372.696 114.05 372.46 114.784 372.46 115.608C372.46 116.299 372.621 116.896 372.942 117.398C373.274 117.9 373.705 118.321 374.235 118.662C374.775 118.993 375.353 119.273 375.968 119.5C376.584 119.718 377.175 119.898 377.744 120.04L380.585 120.778C381.513 121.006 382.464 121.313 383.44 121.702C384.415 122.09 385.319 122.601 386.153 123.236C386.986 123.87 387.658 124.656 388.17 125.594C388.691 126.531 388.951 127.653 388.951 128.96C388.951 130.608 388.525 132.071 387.673 133.349C386.83 134.628 385.603 135.636 383.994 136.375C382.393 137.114 380.457 137.483 378.184 137.483C376.006 137.483 374.121 137.137 372.531 136.446C370.94 135.755 369.694 134.775 368.795 133.506C367.895 132.227 367.398 130.712 367.303 128.96H371.707C371.792 130.011 372.133 130.887 372.729 131.588C373.335 132.279 374.107 132.795 375.045 133.136C375.992 133.468 377.029 133.634 378.156 133.634C379.396 133.634 380.499 133.439 381.465 133.051C382.441 132.653 383.208 132.104 383.766 131.403C384.325 130.693 384.604 129.865 384.604 128.918C384.604 128.056 384.358 127.35 383.866 126.801C383.383 126.252 382.725 125.797 381.891 125.438C381.067 125.078 380.135 124.76 379.093 124.486L375.656 123.548C373.326 122.914 371.479 121.981 370.116 120.75C368.762 119.519 368.085 117.89 368.085 115.864C368.085 114.187 368.539 112.724 369.448 111.474C370.357 110.224 371.588 109.254 373.141 108.562C374.694 107.862 376.446 107.511 378.397 107.511C380.367 107.511 382.104 107.857 383.61 108.548C385.125 109.24 386.318 110.191 387.19 111.403C388.061 112.606 388.515 113.989 388.553 115.551H384.32ZM410.062 115.551C409.911 114.206 409.286 113.165 408.188 112.426C407.089 111.678 405.706 111.304 404.04 111.304C402.847 111.304 401.814 111.493 400.943 111.872C400.072 112.241 399.395 112.753 398.912 113.406C398.438 114.05 398.202 114.784 398.202 115.608C398.202 116.299 398.363 116.896 398.685 117.398C399.016 117.9 399.447 118.321 399.977 118.662C400.517 118.993 401.095 119.273 401.71 119.5C402.326 119.718 402.918 119.898 403.486 120.04L406.327 120.778C407.255 121.006 408.206 121.313 409.182 121.702C410.157 122.09 411.062 122.601 411.895 123.236C412.728 123.87 413.401 124.656 413.912 125.594C414.433 126.531 414.693 127.653 414.693 128.96C414.693 130.608 414.267 132.071 413.415 133.349C412.572 134.628 411.346 135.636 409.736 136.375C408.135 137.114 406.199 137.483 403.926 137.483C401.748 137.483 399.864 137.137 398.273 136.446C396.682 135.755 395.437 134.775 394.537 133.506C393.637 132.227 393.14 130.712 393.045 128.96H397.449C397.534 130.011 397.875 130.887 398.472 131.588C399.078 132.279 399.849 132.795 400.787 133.136C401.734 133.468 402.771 133.634 403.898 133.634C405.138 133.634 406.241 133.439 407.207 133.051C408.183 132.653 408.95 132.104 409.509 131.403C410.067 130.693 410.347 129.865 410.347 128.918C410.347 128.056 410.1 127.35 409.608 126.801C409.125 126.252 408.467 125.797 407.634 125.438C406.81 125.078 405.877 124.76 404.835 124.486L401.398 123.548C399.068 122.914 397.222 121.981 395.858 120.75C394.504 119.519 393.827 117.89 393.827 115.864C393.827 114.187 394.281 112.724 395.19 111.474C396.099 110.224 397.33 109.254 398.884 108.562C400.437 107.862 402.188 107.511 404.139 107.511C406.109 107.511 407.847 107.857 409.352 108.548C410.867 109.24 412.061 110.191 412.932 111.403C413.803 112.606 414.258 113.989 414.295 115.551H410.062Z" fill="white" fill-opacity="0.95"/>
</g>
<g clip-path="url(#clip1_1022_17131)">
<rect x="361" y="204" width="60" height="28" rx="14" fill="#643ABD"/>
<path d="M382.364 216C382.239 215.617 382.074 215.275 381.869 214.972C381.669 214.665 381.428 214.403 381.148 214.188C380.871 213.972 380.557 213.807 380.205 213.693C379.852 213.58 379.466 213.523 379.045 213.523C378.356 213.523 377.729 213.701 377.165 214.057C376.6 214.413 376.152 214.938 375.818 215.631C375.485 216.324 375.318 217.174 375.318 218.182C375.318 219.189 375.487 220.04 375.824 220.733C376.161 221.426 376.617 221.951 377.193 222.307C377.769 222.663 378.417 222.841 379.136 222.841C379.803 222.841 380.39 222.699 380.898 222.415C381.409 222.127 381.807 221.722 382.091 221.199C382.379 220.672 382.523 220.053 382.523 219.341L382.955 219.432H379.455V218.182H383.886V219.432C383.886 220.39 383.682 221.223 383.273 221.932C382.867 222.64 382.307 223.189 381.591 223.58C380.879 223.966 380.061 224.159 379.136 224.159C378.106 224.159 377.201 223.917 376.42 223.432C375.644 222.947 375.038 222.258 374.602 221.364C374.17 220.47 373.955 219.409 373.955 218.182C373.955 217.261 374.078 216.434 374.324 215.699C374.574 214.96 374.926 214.331 375.381 213.812C375.835 213.294 376.373 212.896 376.994 212.619C377.616 212.343 378.299 212.205 379.045 212.205C379.659 212.205 380.231 212.297 380.761 212.483C381.295 212.665 381.771 212.924 382.188 213.261C382.608 213.595 382.958 213.994 383.239 214.46C383.519 214.922 383.712 215.436 383.818 216H382.364ZM389.663 224.182C388.875 224.182 388.184 223.994 387.589 223.619C386.999 223.244 386.536 222.72 386.203 222.045C385.874 221.371 385.709 220.583 385.709 219.682C385.709 218.773 385.874 217.979 386.203 217.301C386.536 216.623 386.999 216.097 387.589 215.722C388.184 215.347 388.875 215.159 389.663 215.159C390.451 215.159 391.141 215.347 391.732 215.722C392.326 216.097 392.788 216.623 393.118 217.301C393.451 217.979 393.618 218.773 393.618 219.682C393.618 220.583 393.451 221.371 393.118 222.045C392.788 222.72 392.326 223.244 391.732 223.619C391.141 223.994 390.451 224.182 389.663 224.182ZM389.663 222.977C390.262 222.977 390.754 222.824 391.141 222.517C391.527 222.21 391.813 221.807 391.999 221.307C392.184 220.807 392.277 220.265 392.277 219.682C392.277 219.098 392.184 218.555 391.999 218.051C391.813 217.547 391.527 217.14 391.141 216.83C390.754 216.519 390.262 216.364 389.663 216.364C389.065 216.364 388.572 216.519 388.186 216.83C387.8 217.14 387.514 217.547 387.328 218.051C387.143 218.555 387.05 219.098 387.05 219.682C387.05 220.265 387.143 220.807 387.328 221.307C387.514 221.807 387.8 222.21 388.186 222.517C388.572 222.824 389.065 222.977 389.663 222.977ZM397.006 212.364V224H395.665V212.364H397.006ZM402.757 224.182C402.03 224.182 401.388 223.998 400.831 223.631C400.274 223.259 399.839 222.737 399.524 222.062C399.21 221.384 399.053 220.583 399.053 219.659C399.053 218.742 399.21 217.947 399.524 217.273C399.839 216.598 400.276 216.078 400.837 215.71C401.397 215.343 402.045 215.159 402.78 215.159C403.348 215.159 403.797 215.254 404.126 215.443C404.46 215.629 404.714 215.841 404.888 216.08C405.066 216.314 405.204 216.508 405.303 216.659H405.416V212.364H406.757V224H405.462V222.659H405.303C405.204 222.818 405.064 223.019 404.882 223.261C404.7 223.5 404.441 223.714 404.104 223.903C403.767 224.089 403.318 224.182 402.757 224.182ZM402.939 222.977C403.477 222.977 403.931 222.837 404.303 222.557C404.674 222.273 404.956 221.881 405.149 221.381C405.342 220.877 405.439 220.295 405.439 219.636C405.439 218.985 405.344 218.415 405.155 217.926C404.965 217.434 404.685 217.051 404.314 216.778C403.943 216.502 403.484 216.364 402.939 216.364C402.371 216.364 401.897 216.509 401.518 216.801C401.143 217.089 400.861 217.481 400.672 217.977C400.486 218.47 400.393 219.023 400.393 219.636C400.393 220.258 400.488 220.822 400.678 221.33C400.871 221.833 401.155 222.235 401.53 222.534C401.909 222.83 402.378 222.977 402.939 222.977Z" fill="white" fill-opacity="0.95"/>
</g>
<mask id="mask2_1022_17131" style="mask-type:alpha" maskUnits="userSpaceOnUse" x="513" y="60" width="124" height="124">
<path fill-rule="evenodd" clip-rule="evenodd" d="M575 184C609.242 184 637 156.242 637 122C637 87.7583 609.242 60 575 60C540.758 60 513 87.7583 513 122C513 156.242 540.758 184 575 184Z" fill="#262626"/>
</mask>
<g mask="url(#mask2_1022_17131)">
<rect width="124" height="124" transform="translate(513 60)" fill="#416116"/>
<path d="M568.32 115.551C568.169 114.206 567.544 113.165 566.445 112.426C565.347 111.678 563.964 111.304 562.298 111.304C561.104 111.304 560.072 111.493 559.201 111.872C558.33 112.241 557.653 112.753 557.17 113.406C556.696 114.05 556.46 114.784 556.46 115.608C556.46 116.299 556.621 116.896 556.942 117.398C557.274 117.9 557.705 118.321 558.235 118.662C558.775 118.993 559.353 119.273 559.968 119.5C560.584 119.718 561.175 119.898 561.744 120.04L564.585 120.778C565.513 121.006 566.464 121.313 567.44 121.702C568.415 122.09 569.319 122.601 570.153 123.236C570.986 123.87 571.658 124.656 572.17 125.594C572.691 126.531 572.951 127.653 572.951 128.96C572.951 130.608 572.525 132.071 571.673 133.349C570.83 134.628 569.603 135.636 567.994 136.375C566.393 137.114 564.457 137.483 562.184 137.483C560.006 137.483 558.121 137.137 556.531 136.446C554.94 135.755 553.694 134.775 552.795 133.506C551.895 132.227 551.398 130.712 551.303 128.96H555.707C555.792 130.011 556.133 130.887 556.729 131.588C557.335 132.279 558.107 132.795 559.045 133.136C559.992 133.468 561.029 133.634 562.156 133.634C563.396 133.634 564.499 133.439 565.465 133.051C566.441 132.653 567.208 132.104 567.766 131.403C568.325 130.693 568.604 129.865 568.604 128.918C568.604 128.056 568.358 127.35 567.866 126.801C567.383 126.252 566.725 125.797 565.891 125.438C565.067 125.078 564.135 124.76 563.093 124.486L559.656 123.548C557.326 122.914 555.479 121.981 554.116 120.75C552.762 119.519 552.085 117.89 552.085 115.864C552.085 114.187 552.539 112.724 553.448 111.474C554.357 110.224 555.588 109.254 557.141 108.562C558.694 107.862 560.446 107.511 562.397 107.511C564.367 107.511 566.104 107.857 567.61 108.548C569.125 109.24 570.318 110.191 571.19 111.403C572.061 112.606 572.515 113.989 572.553 115.551H568.32ZM594.062 115.551C593.911 114.206 593.286 113.165 592.188 112.426C591.089 111.678 589.706 111.304 588.04 111.304C586.847 111.304 585.814 111.493 584.943 111.872C584.072 112.241 583.395 112.753 582.912 113.406C582.438 114.05 582.202 114.784 582.202 115.608C582.202 116.299 582.363 116.896 582.685 117.398C583.016 117.9 583.447 118.321 583.977 118.662C584.517 118.993 585.095 119.273 585.71 119.5C586.326 119.718 586.918 119.898 587.486 120.04L590.327 120.778C591.255 121.006 592.206 121.313 593.182 121.702C594.157 122.09 595.062 122.601 595.895 123.236C596.728 123.87 597.401 124.656 597.912 125.594C598.433 126.531 598.693 127.653 598.693 128.96C598.693 130.608 598.267 132.071 597.415 133.349C596.572 134.628 595.346 135.636 593.736 136.375C592.135 137.114 590.199 137.483 587.926 137.483C585.748 137.483 583.864 137.137 582.273 136.446C580.682 135.755 579.437 134.775 578.537 133.506C577.637 132.227 577.14 130.712 577.045 128.96H581.449C581.534 130.011 581.875 130.887 582.472 131.588C583.078 132.279 583.849 132.795 584.787 133.136C585.734 133.468 586.771 133.634 587.898 133.634C589.138 133.634 590.241 133.439 591.207 133.051C592.183 132.653 592.95 132.104 593.509 131.403C594.067 130.693 594.347 129.865 594.347 128.918C594.347 128.056 594.1 127.35 593.608 126.801C593.125 126.252 592.467 125.797 591.634 125.438C590.81 125.078 589.877 124.76 588.835 124.486L585.398 123.548C583.068 122.914 581.222 121.981 579.858 120.75C578.504 119.519 577.827 117.89 577.827 115.864C577.827 114.187 578.281 112.724 579.19 111.474C580.099 110.224 581.33 109.254 582.884 108.562C584.437 107.862 586.188 107.511 588.139 107.511C590.109 107.511 591.847 107.857 593.352 108.548C594.867 109.24 596.061 110.191 596.932 111.403C597.803 112.606 598.258 113.989 598.295 115.551H594.062Z" fill="white" fill-opacity="0.95"/>
</g>
<g clip-path="url(#clip2_1022_17131)">
<rect x="544.5" y="204" width="61" height="28" rx="14" fill="#643ABD"/>
<path d="M557.909 224V212.364H559.318V222.75H564.727V224H557.909ZM566.727 224V215.273H568.068V224H566.727ZM567.409 213.818C567.148 213.818 566.922 213.729 566.733 213.551C566.547 213.373 566.455 213.159 566.455 212.909C566.455 212.659 566.547 212.445 566.733 212.267C566.922 212.089 567.148 212 567.409 212C567.67 212 567.894 212.089 568.08 212.267C568.269 212.445 568.364 212.659 568.364 212.909C568.364 213.159 568.269 213.373 568.08 213.551C567.894 213.729 567.67 213.818 567.409 213.818ZM570.524 224V215.273H571.82V216.636H571.933C572.115 216.17 572.409 215.809 572.814 215.551C573.219 215.29 573.706 215.159 574.274 215.159C574.85 215.159 575.329 215.29 575.712 215.551C576.098 215.809 576.399 216.17 576.615 216.636H576.706C576.929 216.186 577.265 215.828 577.712 215.562C578.159 215.294 578.695 215.159 579.32 215.159C580.1 215.159 580.738 215.403 581.234 215.892C581.731 216.377 581.979 217.133 581.979 218.159V224H580.638V218.159C580.638 217.515 580.462 217.055 580.109 216.778C579.757 216.502 579.342 216.364 578.865 216.364C578.251 216.364 577.776 216.549 577.439 216.92C577.102 217.288 576.933 217.754 576.933 218.318V224H575.57V218.023C575.57 217.527 575.409 217.127 575.087 216.824C574.765 216.517 574.35 216.364 573.842 216.364C573.494 216.364 573.168 216.456 572.865 216.642C572.566 216.828 572.323 217.085 572.138 217.415C571.956 217.741 571.865 218.117 571.865 218.545V224H570.524ZM588.089 224.182C587.249 224.182 586.523 223.996 585.913 223.625C585.307 223.25 584.839 222.727 584.51 222.057C584.184 221.383 584.021 220.598 584.021 219.705C584.021 218.811 584.184 218.023 584.51 217.341C584.839 216.655 585.298 216.121 585.885 215.739C586.476 215.352 587.165 215.159 587.953 215.159C588.408 215.159 588.857 215.235 589.3 215.386C589.743 215.538 590.146 215.784 590.51 216.125C590.874 216.462 591.163 216.909 591.379 217.466C591.595 218.023 591.703 218.708 591.703 219.523V220.091H584.976V218.932H590.339C590.339 218.439 590.241 218 590.044 217.614C589.851 217.227 589.574 216.922 589.214 216.699C588.858 216.475 588.438 216.364 587.953 216.364C587.419 216.364 586.957 216.496 586.567 216.761C586.18 217.023 585.883 217.364 585.675 217.784C585.466 218.205 585.362 218.655 585.362 219.136V219.909C585.362 220.568 585.476 221.127 585.703 221.585C585.934 222.04 586.254 222.386 586.663 222.625C587.072 222.86 587.548 222.977 588.089 222.977C588.442 222.977 588.76 222.928 589.044 222.83C589.332 222.727 589.58 222.576 589.788 222.375C589.997 222.17 590.158 221.917 590.271 221.614L591.567 221.977C591.43 222.417 591.201 222.803 590.879 223.136C590.557 223.466 590.16 223.723 589.686 223.909C589.213 224.091 588.68 224.182 588.089 224.182Z" fill="white" fill-opacity="0.95"/>
</g>
<mask id="mask3_1022_17131" style="mask-type:alpha" maskUnits="userSpaceOnUse" x="697" y="60" width="124" height="124">
<path fill-rule="evenodd" clip-rule="evenodd" d="M759 184C793.242 184 821 156.242 821 122C821 87.7583 793.242 60 759 60C724.758 60 697 87.7583 697 122C697 156.242 724.758 184 759 184Z" fill="#262626"/>
</mask>
<g mask="url(#mask3_1022_17131)">
<rect width="124" height="124" transform="translate(697 60)" fill="#12615A"/>
<path d="M752.32 115.551C752.169 114.206 751.544 113.165 750.445 112.426C749.347 111.678 747.964 111.304 746.298 111.304C745.104 111.304 744.072 111.493 743.201 111.872C742.33 112.241 741.653 112.753 741.17 113.406C740.696 114.05 740.46 114.784 740.46 115.608C740.46 116.299 740.621 116.896 740.942 117.398C741.274 117.9 741.705 118.321 742.235 118.662C742.775 118.993 743.353 119.273 743.968 119.5C744.584 119.718 745.175 119.898 745.744 120.04L748.585 120.778C749.513 121.006 750.464 121.313 751.44 121.702C752.415 122.09 753.319 122.601 754.153 123.236C754.986 123.87 755.658 124.656 756.17 125.594C756.691 126.531 756.951 127.653 756.951 128.96C756.951 130.608 756.525 132.071 755.673 133.349C754.83 134.628 753.603 135.636 751.994 136.375C750.393 137.114 748.457 137.483 746.184 137.483C744.006 137.483 742.121 137.137 740.531 136.446C738.94 135.755 737.694 134.775 736.795 133.506C735.895 132.227 735.398 130.712 735.303 128.96H739.707C739.792 130.011 740.133 130.887 740.729 131.588C741.335 132.279 742.107 132.795 743.045 133.136C743.992 133.468 745.029 133.634 746.156 133.634C747.396 133.634 748.499 133.439 749.465 133.051C750.441 132.653 751.208 132.104 751.766 131.403C752.325 130.693 752.604 129.865 752.604 128.918C752.604 128.056 752.358 127.35 751.866 126.801C751.383 126.252 750.725 125.797 749.891 125.438C749.067 125.078 748.135 124.76 747.093 124.486L743.656 123.548C741.326 122.914 739.479 121.981 738.116 120.75C736.762 119.519 736.085 117.89 736.085 115.864C736.085 114.187 736.539 112.724 737.448 111.474C738.357 110.224 739.588 109.254 741.141 108.562C742.694 107.862 744.446 107.511 746.397 107.511C748.367 107.511 750.104 107.857 751.61 108.548C753.125 109.24 754.318 110.191 755.19 111.403C756.061 112.606 756.515 113.989 756.553 115.551H752.32ZM778.062 115.551C777.911 114.206 777.286 113.165 776.188 112.426C775.089 111.678 773.706 111.304 772.04 111.304C770.847 111.304 769.814 111.493 768.943 111.872C768.072 112.241 767.395 112.753 766.912 113.406C766.438 114.05 766.202 114.784 766.202 115.608C766.202 116.299 766.363 116.896 766.685 117.398C767.016 117.9 767.447 118.321 767.977 118.662C768.517 118.993 769.095 119.273 769.71 119.5C770.326 119.718 770.918 119.898 771.486 120.04L774.327 120.778C775.255 121.006 776.206 121.313 777.182 121.702C778.157 122.09 779.062 122.601 779.895 123.236C780.728 123.87 781.401 124.656 781.912 125.594C782.433 126.531 782.693 127.653 782.693 128.96C782.693 130.608 782.267 132.071 781.415 133.349C780.572 134.628 779.346 135.636 777.736 136.375C776.135 137.114 774.199 137.483 771.926 137.483C769.748 137.483 767.864 137.137 766.273 136.446C764.682 135.755 763.437 134.775 762.537 133.506C761.637 132.227 761.14 130.712 761.045 128.96H765.449C765.534 130.011 765.875 130.887 766.472 131.588C767.078 132.279 767.849 132.795 768.787 133.136C769.734 133.468 770.771 133.634 771.898 133.634C773.138 133.634 774.241 133.439 775.207 133.051C776.183 132.653 776.95 132.104 777.509 131.403C778.067 130.693 778.347 129.865 778.347 128.918C778.347 128.056 778.1 127.35 777.608 126.801C777.125 126.252 776.467 125.797 775.634 125.438C774.81 125.078 773.877 124.76 772.835 124.486L769.398 123.548C767.068 122.914 765.222 121.981 763.858 120.75C762.504 119.519 761.827 117.89 761.827 115.864C761.827 114.187 762.281 112.724 763.19 111.474C764.099 110.224 765.33 109.254 766.884 108.562C768.437 107.862 770.188 107.511 772.139 107.511C774.109 107.511 775.847 107.857 777.352 108.548C778.867 109.24 780.061 110.191 780.932 111.403C781.803 112.606 782.258 113.989 782.295 115.551H778.062Z" fill="white" fill-opacity="0.95"/>
</g>
<g clip-path="url(#clip3_1022_17131)">
<rect x="730" y="204" width="58" height="28" rx="14" fill="#643ABD"/>
<path d="M743.409 212.364H745.091L749.045 222.023H749.182L753.136 212.364H754.818V224H753.5V215.159H753.386L749.75 224H748.477L744.841 215.159H744.727V224H743.409V212.364ZM757.462 224V215.273H758.803V224H757.462ZM758.143 213.818C757.882 213.818 757.657 213.729 757.467 213.551C757.282 213.373 757.189 213.159 757.189 212.909C757.189 212.659 757.282 212.445 757.467 212.267C757.657 212.089 757.882 212 758.143 212C758.405 212 758.628 212.089 758.814 212.267C759.003 212.445 759.098 212.659 759.098 212.909C759.098 213.159 759.003 213.373 758.814 213.551C758.628 213.729 758.405 213.818 758.143 213.818ZM762.599 218.75V224H761.259V215.273H762.554V216.636H762.668C762.872 216.193 763.183 215.837 763.599 215.568C764.016 215.295 764.554 215.159 765.213 215.159C765.804 215.159 766.321 215.28 766.764 215.523C767.207 215.761 767.552 216.125 767.798 216.614C768.045 217.098 768.168 217.712 768.168 218.455V224H766.827V218.545C766.827 217.86 766.649 217.326 766.293 216.943C765.937 216.557 765.448 216.364 764.827 216.364C764.399 216.364 764.016 216.456 763.679 216.642C763.346 216.828 763.082 217.098 762.889 217.455C762.696 217.811 762.599 218.242 762.599 218.75ZM774.413 215.273V216.409H769.891V215.273H774.413ZM771.209 213.182H772.55V221.5C772.55 221.879 772.605 222.163 772.714 222.352C772.828 222.538 772.972 222.663 773.146 222.727C773.324 222.788 773.512 222.818 773.709 222.818C773.857 222.818 773.978 222.811 774.072 222.795C774.167 222.777 774.243 222.761 774.3 222.75L774.572 223.955C774.482 223.989 774.355 224.023 774.192 224.057C774.029 224.095 773.822 224.114 773.572 224.114C773.194 224.114 772.822 224.032 772.459 223.869C772.099 223.706 771.8 223.458 771.561 223.125C771.326 222.792 771.209 222.371 771.209 221.864V213.182Z" fill="white" fill-opacity="0.95"/>
</g>
<mask id="mask4_1022_17131" style="mask-type:alpha" maskUnits="userSpaceOnUse" x="881" y="60" width="124" height="124">
<path fill-rule="evenodd" clip-rule="evenodd" d="M943 184C977.242 184 1005 156.242 1005 122C1005 87.7583 977.242 60 943 60C908.758 60 881 87.7583 881 122C881 156.242 908.758 184 943 184Z" fill="#262626"/>
</mask>
<g mask="url(#mask4_1022_17131)">
<rect width="124" height="124" transform="translate(881 60)" fill="#066070"/>
<path d="M936.32 115.551C936.169 114.206 935.544 113.165 934.445 112.426C933.347 111.678 931.964 111.304 930.298 111.304C929.104 111.304 928.072 111.493 927.201 111.872C926.33 112.241 925.653 112.753 925.17 113.406C924.696 114.05 924.46 114.784 924.46 115.608C924.46 116.299 924.621 116.896 924.942 117.398C925.274 117.9 925.705 118.321 926.235 118.662C926.775 118.993 927.353 119.273 927.968 119.5C928.584 119.718 929.175 119.898 929.744 120.04L932.585 120.778C933.513 121.006 934.464 121.313 935.44 121.702C936.415 122.09 937.319 122.601 938.153 123.236C938.986 123.87 939.658 124.656 940.17 125.594C940.691 126.531 940.951 127.653 940.951 128.96C940.951 130.608 940.525 132.071 939.673 133.349C938.83 134.628 937.603 135.636 935.994 136.375C934.393 137.114 932.457 137.483 930.184 137.483C928.006 137.483 926.121 137.137 924.531 136.446C922.94 135.755 921.694 134.775 920.795 133.506C919.895 132.227 919.398 130.712 919.303 128.96H923.707C923.792 130.011 924.133 130.887 924.729 131.588C925.335 132.279 926.107 132.795 927.045 133.136C927.992 133.468 929.029 133.634 930.156 133.634C931.396 133.634 932.499 133.439 933.465 133.051C934.441 132.653 935.208 132.104 935.766 131.403C936.325 130.693 936.604 129.865 936.604 128.918C936.604 128.056 936.358 127.35 935.866 126.801C935.383 126.252 934.725 125.797 933.891 125.438C933.067 125.078 932.135 124.76 931.093 124.486L927.656 123.548C925.326 122.914 923.479 121.981 922.116 120.75C920.762 119.519 920.085 117.89 920.085 115.864C920.085 114.187 920.539 112.724 921.448 111.474C922.357 110.224 923.588 109.254 925.141 108.562C926.694 107.862 928.446 107.511 930.397 107.511C932.367 107.511 934.104 107.857 935.61 108.548C937.125 109.24 938.318 110.191 939.19 111.403C940.061 112.606 940.515 113.989 940.553 115.551H936.32ZM962.062 115.551C961.911 114.206 961.286 113.165 960.188 112.426C959.089 111.678 957.706 111.304 956.04 111.304C954.847 111.304 953.814 111.493 952.943 111.872C952.072 112.241 951.395 112.753 950.912 113.406C950.438 114.05 950.202 114.784 950.202 115.608C950.202 116.299 950.363 116.896 950.685 117.398C951.016 117.9 951.447 118.321 951.977 118.662C952.517 118.993 953.095 119.273 953.71 119.5C954.326 119.718 954.918 119.898 955.486 120.04L958.327 120.778C959.255 121.006 960.206 121.313 961.182 121.702C962.157 122.09 963.062 122.601 963.895 123.236C964.728 123.87 965.401 124.656 965.912 125.594C966.433 126.531 966.693 127.653 966.693 128.96C966.693 130.608 966.267 132.071 965.415 133.349C964.572 134.628 963.346 135.636 961.736 136.375C960.135 137.114 958.199 137.483 955.926 137.483C953.748 137.483 951.864 137.137 950.273 136.446C948.682 135.755 947.437 134.775 946.537 133.506C945.637 132.227 945.14 130.712 945.045 128.96H949.449C949.534 130.011 949.875 130.887 950.472 131.588C951.078 132.279 951.849 132.795 952.787 133.136C953.734 133.468 954.771 133.634 955.898 133.634C957.138 133.634 958.241 133.439 959.207 133.051C960.183 132.653 960.95 132.104 961.509 131.403C962.067 130.693 962.347 129.865 962.347 128.918C962.347 128.056 962.1 127.35 961.608 126.801C961.125 126.252 960.467 125.797 959.634 125.438C958.81 125.078 957.877 124.76 956.835 124.486L953.398 123.548C951.068 122.914 949.222 121.981 947.858 120.75C946.504 119.519 945.827 117.89 945.827 115.864C945.827 114.187 946.281 112.724 947.19 111.474C948.099 110.224 949.33 109.254 950.884 108.562C952.437 107.862 954.188 107.511 956.139 107.511C958.109 107.511 959.847 107.857 961.352 108.548C962.867 109.24 964.061 110.191 964.932 111.403C965.803 112.606 966.258 113.989 966.295 115.551H962.062Z" fill="white" fill-opacity="0.95"/>
</g>
<g clip-path="url(#clip4_1022_17131)">
<rect x="911.5" y="204" width="63" height="28" rx="14" fill="#643ABD"/>
<path d="M934.273 216H932.864C932.78 215.595 932.634 215.239 932.426 214.932C932.222 214.625 931.972 214.367 931.676 214.159C931.384 213.947 931.061 213.788 930.705 213.682C930.348 213.576 929.977 213.523 929.591 213.523C928.886 213.523 928.248 213.701 927.676 214.057C927.108 214.413 926.655 214.938 926.318 215.631C925.985 216.324 925.818 217.174 925.818 218.182C925.818 219.189 925.985 220.04 926.318 220.733C926.655 221.426 927.108 221.951 927.676 222.307C928.248 222.663 928.886 222.841 929.591 222.841C929.977 222.841 930.348 222.788 930.705 222.682C931.061 222.576 931.384 222.419 931.676 222.21C931.972 221.998 932.222 221.739 932.426 221.432C932.634 221.121 932.78 220.765 932.864 220.364H934.273C934.167 220.958 933.973 221.491 933.693 221.96C933.413 222.43 933.064 222.83 932.648 223.159C932.231 223.485 931.763 223.733 931.244 223.903C930.729 224.074 930.178 224.159 929.591 224.159C928.598 224.159 927.716 223.917 926.943 223.432C926.17 222.947 925.563 222.258 925.119 221.364C924.676 220.47 924.455 219.409 924.455 218.182C924.455 216.955 924.676 215.894 925.119 215C925.563 214.106 926.17 213.417 926.943 212.932C927.716 212.447 928.598 212.205 929.591 212.205C930.178 212.205 930.729 212.29 931.244 212.46C931.763 212.631 932.231 212.881 932.648 213.21C933.064 213.536 933.413 213.934 933.693 214.403C933.973 214.869 934.167 215.402 934.273 216ZM937.232 227.25C937.004 227.25 936.802 227.231 936.624 227.193C936.446 227.159 936.322 227.125 936.254 227.091L936.595 225.909C937.084 226.034 937.491 226.03 937.817 225.898C938.143 225.769 938.425 225.379 938.663 224.727L938.913 224.045L935.686 215.273H937.141L939.55 222.227H939.641L942.05 215.273L943.516 215.295L939.8 225.273C939.633 225.716 939.427 226.083 939.18 226.375C938.934 226.67 938.648 226.89 938.322 227.034C938 227.178 937.637 227.25 937.232 227.25ZM947.592 224.205C947.039 224.205 946.537 224.1 946.087 223.892C945.636 223.68 945.278 223.375 945.013 222.977C944.748 222.576 944.615 222.091 944.615 221.523C944.615 221.023 944.714 220.617 944.911 220.307C945.107 219.992 945.371 219.746 945.7 219.568C946.03 219.39 946.393 219.258 946.791 219.17C947.193 219.08 947.596 219.008 948.001 218.955C948.532 218.886 948.962 218.835 949.291 218.801C949.625 218.763 949.867 218.701 950.018 218.614C950.174 218.527 950.251 218.375 950.251 218.159V218.114C950.251 217.553 950.098 217.117 949.791 216.807C949.488 216.496 949.028 216.341 948.411 216.341C947.77 216.341 947.268 216.481 946.905 216.761C946.541 217.042 946.286 217.341 946.138 217.659L944.865 217.205C945.092 216.674 945.395 216.261 945.774 215.966C946.157 215.667 946.573 215.458 947.024 215.341C947.479 215.22 947.926 215.159 948.365 215.159C948.645 215.159 948.967 215.193 949.331 215.261C949.698 215.326 950.053 215.46 950.393 215.665C950.738 215.869 951.024 216.178 951.251 216.591C951.479 217.004 951.592 217.557 951.592 218.25V224H950.251V222.818H950.183C950.092 223.008 949.941 223.21 949.729 223.426C949.517 223.642 949.234 223.826 948.882 223.977C948.53 224.129 948.1 224.205 947.592 224.205ZM947.797 223C948.327 223 948.774 222.896 949.138 222.688C949.505 222.479 949.782 222.21 949.967 221.881C950.157 221.551 950.251 221.205 950.251 220.841V219.614C950.195 219.682 950.07 219.744 949.876 219.801C949.687 219.854 949.467 219.902 949.217 219.943C948.971 219.981 948.731 220.015 948.496 220.045C948.265 220.072 948.077 220.095 947.933 220.114C947.585 220.159 947.259 220.233 946.956 220.335C946.657 220.434 946.414 220.583 946.229 220.784C946.047 220.981 945.956 221.25 945.956 221.591C945.956 222.057 946.128 222.409 946.473 222.648C946.821 222.883 947.263 223 947.797 223ZM955.381 218.75V224H954.04V215.273H955.335V216.636H955.449C955.653 216.193 955.964 215.837 956.381 215.568C956.797 215.295 957.335 215.159 957.994 215.159C958.585 215.159 959.102 215.28 959.545 215.523C959.989 215.761 960.333 216.125 960.58 216.614C960.826 217.098 960.949 217.712 960.949 218.455V224H959.608V218.545C959.608 217.86 959.43 217.326 959.074 216.943C958.718 216.557 958.229 216.364 957.608 216.364C957.18 216.364 956.797 216.456 956.46 216.642C956.127 216.828 955.864 217.098 955.67 217.455C955.477 217.811 955.381 218.242 955.381 218.75Z" fill="white" fill-opacity="0.95"/>
</g>
<mask id="mask5_1022_17131" style="mask-type:alpha" maskUnits="userSpaceOnUse" x="145" y="312" width="124" height="124">
<path fill-rule="evenodd" clip-rule="evenodd" d="M207 436C241.242 436 269 408.242 269 374C269 339.758 241.242 312 207 312C172.758 312 145 339.758 145 374C145 408.242 172.758 436 207 436Z" fill="#262626"/>
</mask>
<g mask="url(#mask5_1022_17131)">
<rect width="124" height="124" transform="translate(145 312)" fill="#08599C"/>
<path d="M200.32 367.551C200.169 366.206 199.544 365.165 198.445 364.426C197.347 363.678 195.964 363.304 194.298 363.304C193.104 363.304 192.072 363.493 191.201 363.872C190.33 364.241 189.653 364.753 189.17 365.406C188.696 366.05 188.46 366.784 188.46 367.608C188.46 368.299 188.621 368.896 188.942 369.398C189.274 369.9 189.705 370.321 190.235 370.662C190.775 370.993 191.353 371.273 191.968 371.5C192.584 371.718 193.175 371.898 193.744 372.04L196.585 372.778C197.513 373.006 198.464 373.313 199.44 373.702C200.415 374.09 201.319 374.601 202.153 375.236C202.986 375.87 203.658 376.656 204.17 377.594C204.691 378.531 204.951 379.653 204.951 380.96C204.951 382.608 204.525 384.071 203.673 385.349C202.83 386.628 201.603 387.636 199.994 388.375C198.393 389.114 196.457 389.483 194.184 389.483C192.006 389.483 190.121 389.137 188.531 388.446C186.94 387.755 185.694 386.775 184.795 385.506C183.895 384.227 183.398 382.712 183.303 380.96H187.707C187.792 382.011 188.133 382.887 188.729 383.588C189.335 384.279 190.107 384.795 191.045 385.136C191.992 385.468 193.029 385.634 194.156 385.634C195.396 385.634 196.499 385.439 197.465 385.051C198.441 384.653 199.208 384.104 199.766 383.403C200.325 382.693 200.604 381.865 200.604 380.918C200.604 380.056 200.358 379.35 199.866 378.801C199.383 378.252 198.725 377.797 197.891 377.438C197.067 377.078 196.135 376.76 195.093 376.486L191.656 375.548C189.326 374.914 187.479 373.981 186.116 372.75C184.762 371.519 184.085 369.89 184.085 367.864C184.085 366.187 184.539 364.724 185.448 363.474C186.357 362.224 187.588 361.254 189.141 360.562C190.694 359.862 192.446 359.511 194.397 359.511C196.367 359.511 198.104 359.857 199.61 360.548C201.125 361.24 202.318 362.191 203.19 363.403C204.061 364.606 204.515 365.989 204.553 367.551H200.32ZM226.062 367.551C225.911 366.206 225.286 365.165 224.188 364.426C223.089 363.678 221.706 363.304 220.04 363.304C218.847 363.304 217.814 363.493 216.943 363.872C216.072 364.241 215.395 364.753 214.912 365.406C214.438 366.05 214.202 366.784 214.202 367.608C214.202 368.299 214.363 368.896 214.685 369.398C215.016 369.9 215.447 370.321 215.977 370.662C216.517 370.993 217.095 371.273 217.71 371.5C218.326 371.718 218.918 371.898 219.486 372.04L222.327 372.778C223.255 373.006 224.206 373.313 225.182 373.702C226.157 374.09 227.062 374.601 227.895 375.236C228.728 375.87 229.401 376.656 229.912 377.594C230.433 378.531 230.693 379.653 230.693 380.96C230.693 382.608 230.267 384.071 229.415 385.349C228.572 386.628 227.346 387.636 225.736 388.375C224.135 389.114 222.199 389.483 219.926 389.483C217.748 389.483 215.864 389.137 214.273 388.446C212.682 387.755 211.437 386.775 210.537 385.506C209.637 384.227 209.14 382.712 209.045 380.96H213.449C213.534 382.011 213.875 382.887 214.472 383.588C215.078 384.279 215.849 384.795 216.787 385.136C217.734 385.468 218.771 385.634 219.898 385.634C221.138 385.634 222.241 385.439 223.207 385.051C224.183 384.653 224.95 384.104 225.509 383.403C226.067 382.693 226.347 381.865 226.347 380.918C226.347 380.056 226.1 379.35 225.608 378.801C225.125 378.252 224.467 377.797 223.634 377.438C222.81 377.078 221.877 376.76 220.835 376.486L217.398 375.548C215.068 374.914 213.222 373.981 211.858 372.75C210.504 371.519 209.827 369.89 209.827 367.864C209.827 366.187 210.281 364.724 211.19 363.474C212.099 362.224 213.33 361.254 214.884 360.562C216.437 359.862 218.188 359.511 220.139 359.511C222.109 359.511 223.847 359.857 225.352 360.548C226.867 361.24 228.061 362.191 228.932 363.403C229.803 364.606 230.258 365.989 230.295 367.551H226.062Z" fill="white" fill-opacity="0.95"/>
</g>
<g clip-path="url(#clip5_1022_17131)">
<rect x="170" y="456" width="74" height="28" rx="14" fill="#643ABD"/>
<path d="M192.773 468H191.364C191.28 467.595 191.134 467.239 190.926 466.932C190.722 466.625 190.472 466.367 190.176 466.159C189.884 465.947 189.561 465.788 189.205 465.682C188.848 465.576 188.477 465.523 188.091 465.523C187.386 465.523 186.748 465.701 186.176 466.057C185.608 466.413 185.155 466.938 184.818 467.631C184.485 468.324 184.318 469.174 184.318 470.182C184.318 471.189 184.485 472.04 184.818 472.733C185.155 473.426 185.608 473.951 186.176 474.307C186.748 474.663 187.386 474.841 188.091 474.841C188.477 474.841 188.848 474.788 189.205 474.682C189.561 474.576 189.884 474.419 190.176 474.21C190.472 473.998 190.722 473.739 190.926 473.432C191.134 473.121 191.28 472.765 191.364 472.364H192.773C192.667 472.958 192.473 473.491 192.193 473.96C191.913 474.43 191.564 474.83 191.148 475.159C190.731 475.485 190.263 475.733 189.744 475.903C189.229 476.074 188.678 476.159 188.091 476.159C187.098 476.159 186.216 475.917 185.443 475.432C184.67 474.947 184.063 474.258 183.619 473.364C183.176 472.47 182.955 471.409 182.955 470.182C182.955 468.955 183.176 467.894 183.619 467C184.063 466.106 184.67 465.417 185.443 464.932C186.216 464.447 187.098 464.205 188.091 464.205C188.678 464.205 189.229 464.29 189.744 464.46C190.263 464.631 190.731 464.881 191.148 465.21C191.564 465.536 191.913 465.934 192.193 466.403C192.473 466.869 192.667 467.402 192.773 468ZM198.413 476.182C197.625 476.182 196.934 475.994 196.339 475.619C195.749 475.244 195.286 474.72 194.953 474.045C194.624 473.371 194.459 472.583 194.459 471.682C194.459 470.773 194.624 469.979 194.953 469.301C195.286 468.623 195.749 468.097 196.339 467.722C196.934 467.347 197.625 467.159 198.413 467.159C199.201 467.159 199.891 467.347 200.482 467.722C201.076 468.097 201.538 468.623 201.868 469.301C202.201 469.979 202.368 470.773 202.368 471.682C202.368 472.583 202.201 473.371 201.868 474.045C201.538 474.72 201.076 475.244 200.482 475.619C199.891 475.994 199.201 476.182 198.413 476.182ZM198.413 474.977C199.012 474.977 199.504 474.824 199.891 474.517C200.277 474.21 200.563 473.807 200.749 473.307C200.934 472.807 201.027 472.265 201.027 471.682C201.027 471.098 200.934 470.555 200.749 470.051C200.563 469.547 200.277 469.14 199.891 468.83C199.504 468.519 199.012 468.364 198.413 468.364C197.815 468.364 197.322 468.519 196.936 468.83C196.55 469.14 196.264 469.547 196.078 470.051C195.893 470.555 195.8 471.098 195.8 471.682C195.8 472.265 195.893 472.807 196.078 473.307C196.264 473.807 196.55 474.21 196.936 474.517C197.322 474.824 197.815 474.977 198.413 474.977ZM204.597 476V464.364H205.938V468.659H206.051C206.15 468.508 206.286 468.314 206.46 468.08C206.638 467.841 206.892 467.629 207.222 467.443C207.555 467.254 208.006 467.159 208.574 467.159C209.309 467.159 209.956 467.343 210.517 467.71C211.078 468.078 211.515 468.598 211.83 469.273C212.144 469.947 212.301 470.742 212.301 471.659C212.301 472.583 212.144 473.384 211.83 474.062C211.515 474.737 211.08 475.259 210.523 475.631C209.966 475.998 209.324 476.182 208.597 476.182C208.036 476.182 207.587 476.089 207.25 475.903C206.913 475.714 206.653 475.5 206.472 475.261C206.29 475.019 206.15 474.818 206.051 474.659H205.892V476H204.597ZM205.915 471.636C205.915 472.295 206.011 472.877 206.205 473.381C206.398 473.881 206.68 474.273 207.051 474.557C207.422 474.837 207.877 474.977 208.415 474.977C208.975 474.977 209.443 474.83 209.818 474.534C210.197 474.235 210.481 473.833 210.67 473.33C210.864 472.822 210.96 472.258 210.96 471.636C210.96 471.023 210.866 470.47 210.676 469.977C210.491 469.481 210.208 469.089 209.83 468.801C209.455 468.509 208.983 468.364 208.415 468.364C207.869 468.364 207.411 468.502 207.04 468.778C206.669 469.051 206.388 469.434 206.199 469.926C206.009 470.415 205.915 470.985 205.915 471.636ZM216.92 476.205C216.367 476.205 215.866 476.1 215.415 475.892C214.964 475.68 214.606 475.375 214.341 474.977C214.076 474.576 213.943 474.091 213.943 473.523C213.943 473.023 214.042 472.617 214.239 472.307C214.436 471.992 214.699 471.746 215.028 471.568C215.358 471.39 215.722 471.258 216.119 471.17C216.521 471.08 216.924 471.008 217.33 470.955C217.86 470.886 218.29 470.835 218.619 470.801C218.953 470.763 219.195 470.701 219.347 470.614C219.502 470.527 219.58 470.375 219.58 470.159V470.114C219.58 469.553 219.426 469.117 219.119 468.807C218.816 468.496 218.356 468.341 217.739 468.341C217.098 468.341 216.597 468.481 216.233 468.761C215.869 469.042 215.614 469.341 215.466 469.659L214.193 469.205C214.42 468.674 214.723 468.261 215.102 467.966C215.485 467.667 215.902 467.458 216.352 467.341C216.807 467.22 217.254 467.159 217.693 467.159C217.973 467.159 218.295 467.193 218.659 467.261C219.027 467.326 219.381 467.46 219.722 467.665C220.066 467.869 220.352 468.178 220.58 468.591C220.807 469.004 220.92 469.557 220.92 470.25V476H219.58V474.818H219.511C219.42 475.008 219.269 475.21 219.057 475.426C218.845 475.642 218.563 475.826 218.21 475.977C217.858 476.129 217.428 476.205 216.92 476.205ZM217.125 475C217.655 475 218.102 474.896 218.466 474.688C218.833 474.479 219.11 474.21 219.295 473.881C219.485 473.551 219.58 473.205 219.58 472.841V471.614C219.523 471.682 219.398 471.744 219.205 471.801C219.015 471.854 218.795 471.902 218.545 471.943C218.299 471.981 218.059 472.015 217.824 472.045C217.593 472.072 217.405 472.095 217.261 472.114C216.913 472.159 216.587 472.233 216.284 472.335C215.985 472.434 215.742 472.583 215.557 472.784C215.375 472.981 215.284 473.25 215.284 473.591C215.284 474.057 215.456 474.409 215.801 474.648C216.15 474.883 216.591 475 217.125 475ZM224.709 464.364V476H223.368V464.364H224.709ZM230.96 467.273V468.409H226.438V467.273H230.96ZM227.756 465.182H229.097V473.5C229.097 473.879 229.152 474.163 229.261 474.352C229.375 474.538 229.519 474.663 229.693 474.727C229.871 474.788 230.059 474.818 230.256 474.818C230.403 474.818 230.525 474.811 230.619 474.795C230.714 474.777 230.79 474.761 230.847 474.75L231.119 475.955C231.028 475.989 230.902 476.023 230.739 476.057C230.576 476.095 230.369 476.114 230.119 476.114C229.741 476.114 229.369 476.032 229.006 475.869C228.646 475.706 228.347 475.458 228.108 475.125C227.873 474.792 227.756 474.371 227.756 473.864V465.182Z" fill="white" fill-opacity="0.95"/>
</g>
<mask id="mask6_1022_17131" style="mask-type:alpha" maskUnits="userSpaceOnUse" x="329" y="312" width="124" height="124">
<path fill-rule="evenodd" clip-rule="evenodd" d="M391 436C425.242 436 453 408.242 453 374C453 339.758 425.242 312 391 312C356.758 312 329 339.758 329 374C329 408.242 356.758 436 391 436Z" fill="#262626"/>
</mask>
<g mask="url(#mask6_1022_17131)">
<rect width="124" height="124" transform="translate(329 312)" fill="#535573"/>
<path d="M384.32 367.551C384.169 366.206 383.544 365.165 382.445 364.426C381.347 363.678 379.964 363.304 378.298 363.304C377.104 363.304 376.072 363.493 375.201 363.872C374.33 364.241 373.653 364.753 373.17 365.406C372.696 366.05 372.46 366.784 372.46 367.608C372.46 368.299 372.621 368.896 372.942 369.398C373.274 369.9 373.705 370.321 374.235 370.662C374.775 370.993 375.353 371.273 375.968 371.5C376.584 371.718 377.175 371.898 377.744 372.04L380.585 372.778C381.513 373.006 382.464 373.313 383.44 373.702C384.415 374.09 385.319 374.601 386.153 375.236C386.986 375.87 387.658 376.656 388.17 377.594C388.691 378.531 388.951 379.653 388.951 380.96C388.951 382.608 388.525 384.071 387.673 385.349C386.83 386.628 385.603 387.636 383.994 388.375C382.393 389.114 380.457 389.483 378.184 389.483C376.006 389.483 374.121 389.137 372.531 388.446C370.94 387.755 369.694 386.775 368.795 385.506C367.895 384.227 367.398 382.712 367.303 380.96H371.707C371.792 382.011 372.133 382.887 372.729 383.588C373.335 384.279 374.107 384.795 375.045 385.136C375.992 385.468 377.029 385.634 378.156 385.634C379.396 385.634 380.499 385.439 381.465 385.051C382.441 384.653 383.208 384.104 383.766 383.403C384.325 382.693 384.604 381.865 384.604 380.918C384.604 380.056 384.358 379.35 383.866 378.801C383.383 378.252 382.725 377.797 381.891 377.438C381.067 377.078 380.135 376.76 379.093 376.486L375.656 375.548C373.326 374.914 371.479 373.981 370.116 372.75C368.762 371.519 368.085 369.89 368.085 367.864C368.085 366.187 368.539 364.724 369.448 363.474C370.357 362.224 371.588 361.254 373.141 360.562C374.694 359.862 376.446 359.511 378.397 359.511C380.367 359.511 382.104 359.857 383.61 360.548C385.125 361.24 386.318 362.191 387.19 363.403C388.061 364.606 388.515 365.989 388.553 367.551H384.32ZM410.062 367.551C409.911 366.206 409.286 365.165 408.188 364.426C407.089 363.678 405.706 363.304 404.04 363.304C402.847 363.304 401.814 363.493 400.943 363.872C400.072 364.241 399.395 364.753 398.912 365.406C398.438 366.05 398.202 366.784 398.202 367.608C398.202 368.299 398.363 368.896 398.685 369.398C399.016 369.9 399.447 370.321 399.977 370.662C400.517 370.993 401.095 371.273 401.71 371.5C402.326 371.718 402.918 371.898 403.486 372.04L406.327 372.778C407.255 373.006 408.206 373.313 409.182 373.702C410.157 374.09 411.062 374.601 411.895 375.236C412.728 375.87 413.401 376.656 413.912 377.594C414.433 378.531 414.693 379.653 414.693 380.96C414.693 382.608 414.267 384.071 413.415 385.349C412.572 386.628 411.346 387.636 409.736 388.375C408.135 389.114 406.199 389.483 403.926 389.483C401.748 389.483 399.864 389.137 398.273 388.446C396.682 387.755 395.437 386.775 394.537 385.506C393.637 384.227 393.14 382.712 393.045 380.96H397.449C397.534 382.011 397.875 382.887 398.472 383.588C399.078 384.279 399.849 384.795 400.787 385.136C401.734 385.468 402.771 385.634 403.898 385.634C405.138 385.634 406.241 385.439 407.207 385.051C408.183 384.653 408.95 384.104 409.509 383.403C410.067 382.693 410.347 381.865 410.347 380.918C410.347 380.056 410.1 379.35 409.608 378.801C409.125 378.252 408.467 377.797 407.634 377.438C406.81 377.078 405.877 376.76 404.835 376.486L401.398 375.548C399.068 374.914 397.222 373.981 395.858 372.75C394.504 371.519 393.827 369.89 393.827 367.864C393.827 366.187 394.281 364.724 395.19 363.474C396.099 362.224 397.33 361.254 398.884 360.562C400.437 359.862 402.188 359.511 404.139 359.511C406.109 359.511 407.847 359.857 409.352 360.548C410.867 361.24 412.061 362.191 412.932 363.403C413.803 364.606 414.258 365.989 414.295 367.551H410.062Z" fill="white" fill-opacity="0.95"/>
</g>
<g clip-path="url(#clip6_1022_17131)">
<rect x="359.5" y="456" width="63" height="28" rx="14" fill="#643ABD"/>
<path d="M379.273 467.273C379.205 466.697 378.928 466.25 378.443 465.932C377.958 465.614 377.364 465.455 376.659 465.455C376.144 465.455 375.693 465.538 375.307 465.705C374.924 465.871 374.625 466.1 374.409 466.392C374.197 466.684 374.091 467.015 374.091 467.386C374.091 467.697 374.165 467.964 374.312 468.188C374.464 468.407 374.657 468.591 374.892 468.739C375.127 468.883 375.373 469.002 375.631 469.097C375.888 469.187 376.125 469.261 376.341 469.318L377.523 469.636C377.826 469.716 378.163 469.826 378.534 469.966C378.909 470.106 379.267 470.297 379.608 470.54C379.953 470.778 380.237 471.085 380.46 471.46C380.684 471.835 380.795 472.295 380.795 472.841C380.795 473.47 380.631 474.038 380.301 474.545C379.975 475.053 379.498 475.456 378.869 475.756C378.244 476.055 377.485 476.205 376.591 476.205C375.758 476.205 375.036 476.07 374.426 475.801C373.82 475.532 373.343 475.157 372.994 474.676C372.65 474.195 372.455 473.636 372.409 473H373.864C373.902 473.439 374.049 473.803 374.307 474.091C374.568 474.375 374.898 474.587 375.295 474.727C375.697 474.864 376.129 474.932 376.591 474.932C377.129 474.932 377.612 474.845 378.04 474.67C378.468 474.492 378.807 474.246 379.057 473.932C379.307 473.614 379.432 473.242 379.432 472.818C379.432 472.432 379.324 472.117 379.108 471.875C378.892 471.633 378.608 471.436 378.256 471.284C377.903 471.133 377.523 471 377.114 470.886L375.682 470.477C374.773 470.216 374.053 469.843 373.523 469.358C372.992 468.873 372.727 468.239 372.727 467.455C372.727 466.803 372.903 466.235 373.256 465.75C373.612 465.261 374.089 464.883 374.688 464.614C375.29 464.341 375.962 464.205 376.705 464.205C377.455 464.205 378.121 464.339 378.705 464.608C379.288 464.873 379.75 465.237 380.091 465.699C380.436 466.161 380.617 466.686 380.636 467.273H379.273ZM384.271 464.364V476H382.93V464.364H384.271ZM389.295 476.205C388.742 476.205 388.241 476.1 387.79 475.892C387.339 475.68 386.981 475.375 386.716 474.977C386.451 474.576 386.318 474.091 386.318 473.523C386.318 473.023 386.417 472.617 386.614 472.307C386.811 471.992 387.074 471.746 387.403 471.568C387.733 471.39 388.097 471.258 388.494 471.17C388.896 471.08 389.299 471.008 389.705 470.955C390.235 470.886 390.665 470.835 390.994 470.801C391.328 470.763 391.57 470.701 391.722 470.614C391.877 470.527 391.955 470.375 391.955 470.159V470.114C391.955 469.553 391.801 469.117 391.494 468.807C391.191 468.496 390.731 468.341 390.114 468.341C389.473 468.341 388.972 468.481 388.608 468.761C388.244 469.042 387.989 469.341 387.841 469.659L386.568 469.205C386.795 468.674 387.098 468.261 387.477 467.966C387.86 467.667 388.277 467.458 388.727 467.341C389.182 467.22 389.629 467.159 390.068 467.159C390.348 467.159 390.67 467.193 391.034 467.261C391.402 467.326 391.756 467.46 392.097 467.665C392.441 467.869 392.727 468.178 392.955 468.591C393.182 469.004 393.295 469.557 393.295 470.25V476H391.955V474.818H391.886C391.795 475.008 391.644 475.21 391.432 475.426C391.22 475.642 390.938 475.826 390.585 475.977C390.233 476.129 389.803 476.205 389.295 476.205ZM389.5 475C390.03 475 390.477 474.896 390.841 474.688C391.208 474.479 391.485 474.21 391.67 473.881C391.86 473.551 391.955 473.205 391.955 472.841V471.614C391.898 471.682 391.773 471.744 391.58 471.801C391.39 471.854 391.17 471.902 390.92 471.943C390.674 471.981 390.434 472.015 390.199 472.045C389.968 472.072 389.78 472.095 389.636 472.114C389.288 472.159 388.962 472.233 388.659 472.335C388.36 472.434 388.117 472.583 387.932 472.784C387.75 472.981 387.659 473.25 387.659 473.591C387.659 474.057 387.831 474.409 388.176 474.648C388.525 474.883 388.966 475 389.5 475ZM399.538 467.273V468.409H395.016V467.273H399.538ZM396.334 465.182H397.675V473.5C397.675 473.879 397.73 474.163 397.839 474.352C397.953 474.538 398.097 474.663 398.271 474.727C398.449 474.788 398.637 474.818 398.834 474.818C398.982 474.818 399.103 474.811 399.197 474.795C399.292 474.777 399.368 474.761 399.425 474.75L399.697 475.955C399.607 475.989 399.48 476.023 399.317 476.057C399.154 476.095 398.947 476.114 398.697 476.114C398.319 476.114 397.947 476.032 397.584 475.869C397.224 475.706 396.925 475.458 396.686 475.125C396.451 474.792 396.334 474.371 396.334 473.864V465.182ZM405.121 476.182C404.28 476.182 403.554 475.996 402.945 475.625C402.339 475.25 401.871 474.727 401.541 474.057C401.215 473.383 401.053 472.598 401.053 471.705C401.053 470.811 401.215 470.023 401.541 469.341C401.871 468.655 402.329 468.121 402.916 467.739C403.507 467.352 404.196 467.159 404.984 467.159C405.439 467.159 405.888 467.235 406.331 467.386C406.774 467.538 407.178 467.784 407.541 468.125C407.905 468.462 408.195 468.909 408.411 469.466C408.626 470.023 408.734 470.708 408.734 471.523V472.091H402.007V470.932H407.371C407.371 470.439 407.272 470 407.075 469.614C406.882 469.227 406.606 468.922 406.246 468.699C405.89 468.475 405.469 468.364 404.984 468.364C404.45 468.364 403.988 468.496 403.598 468.761C403.212 469.023 402.914 469.364 402.706 469.784C402.498 470.205 402.393 470.655 402.393 471.136V471.909C402.393 472.568 402.507 473.127 402.734 473.585C402.965 474.04 403.286 474.386 403.695 474.625C404.104 474.86 404.579 474.977 405.121 474.977C405.473 474.977 405.791 474.928 406.075 474.83C406.363 474.727 406.611 474.576 406.82 474.375C407.028 474.17 407.189 473.917 407.303 473.614L408.598 473.977C408.462 474.417 408.232 474.803 407.911 475.136C407.589 475.466 407.191 475.723 406.717 475.909C406.244 476.091 405.712 476.182 405.121 476.182Z" fill="white" fill-opacity="0.95"/>
</g>
<mask id="mask7_1022_17131" style="mask-type:alpha" maskUnits="userSpaceOnUse" x="513" y="312" width="124" height="124">
<path fill-rule="evenodd" clip-rule="evenodd" d="M575 436C609.242 436 637 408.242 637 374C637 339.758 609.242 312 575 312C540.758 312 513 339.758 513 374C513 408.242 540.758 436 575 436Z" fill="#262626"/>
</mask>
<g mask="url(#mask7_1022_17131)">
<rect width="124" height="124" transform="translate(513 312)" fill="#643ABD"/>
<path d="M568.32 367.551C568.169 366.206 567.544 365.165 566.445 364.426C565.347 363.678 563.964 363.304 562.298 363.304C561.104 363.304 560.072 363.493 559.201 363.872C558.33 364.241 557.653 364.753 557.17 365.406C556.696 366.05 556.46 366.784 556.46 367.608C556.46 368.299 556.621 368.896 556.942 369.398C557.274 369.9 557.705 370.321 558.235 370.662C558.775 370.993 559.353 371.273 559.968 371.5C560.584 371.718 561.175 371.898 561.744 372.04L564.585 372.778C565.513 373.006 566.464 373.313 567.44 373.702C568.415 374.09 569.319 374.601 570.153 375.236C570.986 375.87 571.658 376.656 572.17 377.594C572.691 378.531 572.951 379.653 572.951 380.96C572.951 382.608 572.525 384.071 571.673 385.349C570.83 386.628 569.603 387.636 567.994 388.375C566.393 389.114 564.457 389.483 562.184 389.483C560.006 389.483 558.121 389.137 556.531 388.446C554.94 387.755 553.694 386.775 552.795 385.506C551.895 384.227 551.398 382.712 551.303 380.96H555.707C555.792 382.011 556.133 382.887 556.729 383.588C557.335 384.279 558.107 384.795 559.045 385.136C559.992 385.468 561.029 385.634 562.156 385.634C563.396 385.634 564.499 385.439 565.465 385.051C566.441 384.653 567.208 384.104 567.766 383.403C568.325 382.693 568.604 381.865 568.604 380.918C568.604 380.056 568.358 379.35 567.866 378.801C567.383 378.252 566.725 377.797 565.891 377.438C565.067 377.078 564.135 376.76 563.093 376.486L559.656 375.548C557.326 374.914 555.479 373.981 554.116 372.75C552.762 371.519 552.085 369.89 552.085 367.864C552.085 366.187 552.539 364.724 553.448 363.474C554.357 362.224 555.588 361.254 557.141 360.562C558.694 359.862 560.446 359.511 562.397 359.511C564.367 359.511 566.104 359.857 567.61 360.548C569.125 361.24 570.318 362.191 571.19 363.403C572.061 364.606 572.515 365.989 572.553 367.551H568.32ZM594.062 367.551C593.911 366.206 593.286 365.165 592.188 364.426C591.089 363.678 589.706 363.304 588.04 363.304C586.847 363.304 585.814 363.493 584.943 363.872C584.072 364.241 583.395 364.753 582.912 365.406C582.438 366.05 582.202 366.784 582.202 367.608C582.202 368.299 582.363 368.896 582.685 369.398C583.016 369.9 583.447 370.321 583.977 370.662C584.517 370.993 585.095 371.273 585.71 371.5C586.326 371.718 586.918 371.898 587.486 372.04L590.327 372.778C591.255 373.006 592.206 373.313 593.182 373.702C594.157 374.09 595.062 374.601 595.895 375.236C596.728 375.87 597.401 376.656 597.912 377.594C598.433 378.531 598.693 379.653 598.693 380.96C598.693 382.608 598.267 384.071 597.415 385.349C596.572 386.628 595.346 387.636 593.736 388.375C592.135 389.114 590.199 389.483 587.926 389.483C585.748 389.483 583.864 389.137 582.273 388.446C580.682 387.755 579.437 386.775 578.537 385.506C577.637 384.227 577.14 382.712 577.045 380.96H581.449C581.534 382.011 581.875 382.887 582.472 383.588C583.078 384.279 583.849 384.795 584.787 385.136C585.734 385.468 586.771 385.634 587.898 385.634C589.138 385.634 590.241 385.439 591.207 385.051C592.183 384.653 592.95 384.104 593.509 383.403C594.067 382.693 594.347 381.865 594.347 380.918C594.347 380.056 594.1 379.35 593.608 378.801C593.125 378.252 592.467 377.797 591.634 377.438C590.81 377.078 589.877 376.76 588.835 376.486L585.398 375.548C583.068 374.914 581.222 373.981 579.858 372.75C578.504 371.519 577.827 369.89 577.827 367.864C577.827 366.187 578.281 364.724 579.19 363.474C580.099 362.224 581.33 361.254 582.884 360.562C584.437 359.862 586.188 359.511 588.139 359.511C590.109 359.511 591.847 359.857 593.352 360.548C594.867 361.24 596.061 362.191 596.932 363.403C597.803 364.606 598.258 365.989 598.295 367.551H594.062Z" fill="white" fill-opacity="0.95"/>
</g>
<g clip-path="url(#clip7_1022_17131)">
<rect x="541" y="456" width="68" height="28" rx="14" fill="#643ABD"/>
<path d="M554.886 464.364L558.341 474.159H558.477L561.932 464.364H563.409L559.136 476H557.682L553.409 464.364H554.886ZM565.04 476V467.273H566.381V476H565.04ZM565.722 465.818C565.46 465.818 565.235 465.729 565.045 465.551C564.86 465.373 564.767 465.159 564.767 464.909C564.767 464.659 564.86 464.445 565.045 464.267C565.235 464.089 565.46 464 565.722 464C565.983 464 566.206 464.089 566.392 464.267C566.581 464.445 566.676 464.659 566.676 464.909C566.676 465.159 566.581 465.373 566.392 465.551C566.206 465.729 565.983 465.818 565.722 465.818ZM572.382 476.182C571.594 476.182 570.903 475.994 570.308 475.619C569.717 475.244 569.255 474.72 568.922 474.045C568.592 473.371 568.428 472.583 568.428 471.682C568.428 470.773 568.592 469.979 568.922 469.301C569.255 468.623 569.717 468.097 570.308 467.722C570.903 467.347 571.594 467.159 572.382 467.159C573.17 467.159 573.859 467.347 574.45 467.722C575.045 468.097 575.507 468.623 575.837 469.301C576.17 469.979 576.337 470.773 576.337 471.682C576.337 472.583 576.17 473.371 575.837 474.045C575.507 474.72 575.045 475.244 574.45 475.619C573.859 475.994 573.17 476.182 572.382 476.182ZM572.382 474.977C572.981 474.977 573.473 474.824 573.859 474.517C574.246 474.21 574.532 473.807 574.717 473.307C574.903 472.807 574.996 472.265 574.996 471.682C574.996 471.098 574.903 470.555 574.717 470.051C574.532 469.547 574.246 469.14 573.859 468.83C573.473 468.519 572.981 468.364 572.382 468.364C571.784 468.364 571.291 468.519 570.905 468.83C570.518 469.14 570.232 469.547 570.047 470.051C569.861 470.555 569.768 471.098 569.768 471.682C569.768 472.265 569.861 472.807 570.047 473.307C570.232 473.807 570.518 474.21 570.905 474.517C571.291 474.824 571.784 474.977 572.382 474.977ZM579.724 464.364V476H578.384V464.364H579.724ZM585.839 476.182C584.999 476.182 584.273 475.996 583.663 475.625C583.057 475.25 582.589 474.727 582.26 474.057C581.934 473.383 581.771 472.598 581.771 471.705C581.771 470.811 581.934 470.023 582.26 469.341C582.589 468.655 583.048 468.121 583.635 467.739C584.226 467.352 584.915 467.159 585.703 467.159C586.158 467.159 586.607 467.235 587.05 467.386C587.493 467.538 587.896 467.784 588.26 468.125C588.624 468.462 588.913 468.909 589.129 469.466C589.345 470.023 589.453 470.708 589.453 471.523V472.091H582.726V470.932H588.089C588.089 470.439 587.991 470 587.794 469.614C587.601 469.227 587.324 468.922 586.964 468.699C586.608 468.475 586.188 468.364 585.703 468.364C585.169 468.364 584.707 468.496 584.317 468.761C583.93 469.023 583.633 469.364 583.425 469.784C583.216 470.205 583.112 470.655 583.112 471.136V471.909C583.112 472.568 583.226 473.127 583.453 473.585C583.684 474.04 584.004 474.386 584.413 474.625C584.822 474.86 585.298 474.977 585.839 474.977C586.192 474.977 586.51 474.928 586.794 474.83C587.082 474.727 587.33 474.576 587.538 474.375C587.747 474.17 587.908 473.917 588.021 473.614L589.317 473.977C589.18 474.417 588.951 474.803 588.629 475.136C588.307 475.466 587.91 475.723 587.436 475.909C586.963 476.091 586.43 476.182 585.839 476.182ZM595.288 467.273V468.409H590.766V467.273H595.288ZM592.084 465.182H593.425V473.5C593.425 473.879 593.48 474.163 593.589 474.352C593.703 474.538 593.847 474.663 594.021 474.727C594.199 474.788 594.387 474.818 594.584 474.818C594.732 474.818 594.853 474.811 594.947 474.795C595.042 474.777 595.118 474.761 595.175 474.75L595.447 475.955C595.357 475.989 595.23 476.023 595.067 476.057C594.904 476.095 594.697 476.114 594.447 476.114C594.069 476.114 593.697 476.032 593.334 475.869C592.974 475.706 592.675 475.458 592.436 475.125C592.201 474.792 592.084 474.371 592.084 473.864V465.182Z" fill="white" fill-opacity="0.95"/>
</g>
<mask id="mask8_1022_17131" style="mask-type:alpha" maskUnits="userSpaceOnUse" x="697" y="312" width="124" height="124">
<path fill-rule="evenodd" clip-rule="evenodd" d="M759 436C793.242 436 821 408.242 821 374C821 339.758 793.242 312 759 312C724.758 312 697 339.758 697 374C697 408.242 724.758 436 759 436Z" fill="#262626"/>
</mask>
<g mask="url(#mask8_1022_17131)">
<rect width="124" height="124" transform="translate(697 312)" fill="#932099"/>
<path d="M752.32 367.551C752.169 366.206 751.544 365.165 750.445 364.426C749.347 363.678 747.964 363.304 746.298 363.304C745.104 363.304 744.072 363.493 743.201 363.872C742.33 364.241 741.653 364.753 741.17 365.406C740.696 366.05 740.46 366.784 740.46 367.608C740.46 368.299 740.621 368.896 740.942 369.398C741.274 369.9 741.705 370.321 742.235 370.662C742.775 370.993 743.353 371.273 743.968 371.5C744.584 371.718 745.175 371.898 745.744 372.04L748.585 372.778C749.513 373.006 750.464 373.313 751.44 373.702C752.415 374.09 753.319 374.601 754.153 375.236C754.986 375.87 755.658 376.656 756.17 377.594C756.691 378.531 756.951 379.653 756.951 380.96C756.951 382.608 756.525 384.071 755.673 385.349C754.83 386.628 753.603 387.636 751.994 388.375C750.393 389.114 748.457 389.483 746.184 389.483C744.006 389.483 742.121 389.137 740.531 388.446C738.94 387.755 737.694 386.775 736.795 385.506C735.895 384.227 735.398 382.712 735.303 380.96H739.707C739.792 382.011 740.133 382.887 740.729 383.588C741.335 384.279 742.107 384.795 743.045 385.136C743.992 385.468 745.029 385.634 746.156 385.634C747.396 385.634 748.499 385.439 749.465 385.051C750.441 384.653 751.208 384.104 751.766 383.403C752.325 382.693 752.604 381.865 752.604 380.918C752.604 380.056 752.358 379.35 751.866 378.801C751.383 378.252 750.725 377.797 749.891 377.438C749.067 377.078 748.135 376.76 747.093 376.486L743.656 375.548C741.326 374.914 739.479 373.981 738.116 372.75C736.762 371.519 736.085 369.89 736.085 367.864C736.085 366.187 736.539 364.724 737.448 363.474C738.357 362.224 739.588 361.254 741.141 360.562C742.694 359.862 744.446 359.511 746.397 359.511C748.367 359.511 750.104 359.857 751.61 360.548C753.125 361.24 754.318 362.191 755.19 363.403C756.061 364.606 756.515 365.989 756.553 367.551H752.32ZM778.062 367.551C777.911 366.206 777.286 365.165 776.188 364.426C775.089 363.678 773.706 363.304 772.04 363.304C770.847 363.304 769.814 363.493 768.943 363.872C768.072 364.241 767.395 364.753 766.912 365.406C766.438 366.05 766.202 366.784 766.202 367.608C766.202 368.299 766.363 368.896 766.685 369.398C767.016 369.9 767.447 370.321 767.977 370.662C768.517 370.993 769.095 371.273 769.71 371.5C770.326 371.718 770.918 371.898 771.486 372.04L774.327 372.778C775.255 373.006 776.206 373.313 777.182 373.702C778.157 374.09 779.062 374.601 779.895 375.236C780.728 375.87 781.401 376.656 781.912 377.594C782.433 378.531 782.693 379.653 782.693 380.96C782.693 382.608 782.267 384.071 781.415 385.349C780.572 386.628 779.346 387.636 777.736 388.375C776.135 389.114 774.199 389.483 771.926 389.483C769.748 389.483 767.864 389.137 766.273 388.446C764.682 387.755 763.437 386.775 762.537 385.506C761.637 384.227 761.14 382.712 761.045 380.96H765.449C765.534 382.011 765.875 382.887 766.472 383.588C767.078 384.279 767.849 384.795 768.787 385.136C769.734 385.468 770.771 385.634 771.898 385.634C773.138 385.634 774.241 385.439 775.207 385.051C776.183 384.653 776.95 384.104 777.509 383.403C778.067 382.693 778.347 381.865 778.347 380.918C778.347 380.056 778.1 379.35 777.608 378.801C777.125 378.252 776.467 377.797 775.634 377.438C774.81 377.078 773.877 376.76 772.835 376.486L769.398 375.548C767.068 374.914 765.222 373.981 763.858 372.75C762.504 371.519 761.827 369.89 761.827 367.864C761.827 366.187 762.281 364.724 763.19 363.474C764.099 362.224 765.33 361.254 766.884 360.562C768.437 359.862 770.188 359.511 772.139 359.511C774.109 359.511 775.847 359.857 777.352 360.548C778.867 361.24 780.061 362.191 780.932 363.403C781.803 364.606 782.258 365.989 782.295 367.551H778.062Z" fill="white" fill-opacity="0.95"/>
</g>
<g clip-path="url(#clip8_1022_17131)">
<rect x="722.5" y="456" width="73" height="28" rx="14" fill="#643ABD"/>
<path d="M735.909 476V464.364H739.841C740.754 464.364 741.5 464.528 742.08 464.858C742.663 465.184 743.095 465.625 743.375 466.182C743.655 466.739 743.795 467.36 743.795 468.045C743.795 468.731 743.655 469.354 743.375 469.915C743.098 470.475 742.67 470.922 742.091 471.256C741.511 471.585 740.769 471.75 739.864 471.75H737.045V470.5H739.818C740.443 470.5 740.945 470.392 741.324 470.176C741.703 469.96 741.977 469.669 742.148 469.301C742.322 468.93 742.409 468.511 742.409 468.045C742.409 467.58 742.322 467.163 742.148 466.795C741.977 466.428 741.701 466.14 741.318 465.932C740.936 465.72 740.428 465.614 739.795 465.614H737.318V476H735.909ZM751.384 472.432V467.273H752.724V476H751.384V474.523H751.293C751.088 474.966 750.77 475.343 750.338 475.653C749.906 475.96 749.361 476.114 748.702 476.114C748.156 476.114 747.671 475.994 747.247 475.756C746.823 475.513 746.49 475.15 746.247 474.665C746.005 474.176 745.884 473.561 745.884 472.818V467.273H747.224V472.727C747.224 473.364 747.402 473.871 747.759 474.25C748.118 474.629 748.577 474.818 749.134 474.818C749.467 474.818 749.806 474.733 750.151 474.562C750.499 474.392 750.791 474.131 751.026 473.778C751.264 473.426 751.384 472.977 751.384 472.432ZM755.18 476V467.273H756.476V468.591H756.567C756.726 468.159 757.014 467.809 757.43 467.54C757.847 467.271 758.317 467.136 758.839 467.136C758.938 467.136 759.061 467.138 759.209 467.142C759.357 467.146 759.468 467.152 759.544 467.159V468.523C759.499 468.511 759.394 468.494 759.232 468.472C759.072 468.445 758.904 468.432 758.726 468.432C758.302 468.432 757.923 468.521 757.589 468.699C757.26 468.873 756.999 469.116 756.805 469.426C756.616 469.733 756.521 470.083 756.521 470.477V476H755.18ZM761.134 479.273V467.273H762.429V468.659H762.588C762.687 468.508 762.823 468.314 762.997 468.08C763.175 467.841 763.429 467.629 763.759 467.443C764.092 467.254 764.543 467.159 765.111 467.159C765.846 467.159 766.493 467.343 767.054 467.71C767.615 468.078 768.052 468.598 768.366 469.273C768.681 469.947 768.838 470.742 768.838 471.659C768.838 472.583 768.681 473.384 768.366 474.062C768.052 474.737 767.616 475.259 767.06 475.631C766.503 475.998 765.861 476.182 765.134 476.182C764.573 476.182 764.124 476.089 763.787 475.903C763.45 475.714 763.19 475.5 763.009 475.261C762.827 475.019 762.687 474.818 762.588 474.659H762.474V479.273H761.134ZM762.452 471.636C762.452 472.295 762.548 472.877 762.741 473.381C762.935 473.881 763.217 474.273 763.588 474.557C763.959 474.837 764.414 474.977 764.952 474.977C765.512 474.977 765.98 474.83 766.355 474.534C766.734 474.235 767.018 473.833 767.207 473.33C767.401 472.822 767.497 472.258 767.497 471.636C767.497 471.023 767.402 470.47 767.213 469.977C767.027 469.481 766.745 469.089 766.366 468.801C765.991 468.509 765.52 468.364 764.952 468.364C764.406 468.364 763.948 468.502 763.577 468.778C763.205 469.051 762.925 469.434 762.736 469.926C762.546 470.415 762.452 470.985 762.452 471.636ZM772.224 464.364V476H770.884V464.364H772.224ZM778.339 476.182C777.499 476.182 776.773 475.996 776.163 475.625C775.557 475.25 775.089 474.727 774.76 474.057C774.434 473.383 774.271 472.598 774.271 471.705C774.271 470.811 774.434 470.023 774.76 469.341C775.089 468.655 775.548 468.121 776.135 467.739C776.726 467.352 777.415 467.159 778.203 467.159C778.658 467.159 779.107 467.235 779.55 467.386C779.993 467.538 780.396 467.784 780.76 468.125C781.124 468.462 781.413 468.909 781.629 469.466C781.845 470.023 781.953 470.708 781.953 471.523V472.091H775.226V470.932H780.589C780.589 470.439 780.491 470 780.294 469.614C780.101 469.227 779.824 468.922 779.464 468.699C779.108 468.475 778.688 468.364 778.203 468.364C777.669 468.364 777.207 468.496 776.817 468.761C776.43 469.023 776.133 469.364 775.925 469.784C775.716 470.205 775.612 470.655 775.612 471.136V471.909C775.612 472.568 775.726 473.127 775.953 473.585C776.184 474.04 776.504 474.386 776.913 474.625C777.322 474.86 777.798 474.977 778.339 474.977C778.692 474.977 779.01 474.928 779.294 474.83C779.582 474.727 779.83 474.576 780.038 474.375C780.247 474.17 780.408 473.917 780.521 473.614L781.817 473.977C781.68 474.417 781.451 474.803 781.129 475.136C780.807 475.466 780.41 475.723 779.936 475.909C779.463 476.091 778.93 476.182 778.339 476.182Z" fill="white" fill-opacity="0.95"/>
</g>
<mask id="mask9_1022_17131" style="mask-type:alpha" maskUnits="userSpaceOnUse" x="881" y="312" width="124" height="124">
<path fill-rule="evenodd" clip-rule="evenodd" d="M943 436C977.242 436 1005 408.242 1005 374C1005 339.758 977.242 312 943 312C908.758 312 881 339.758 881 374C881 408.242 908.758 436 943 436Z" fill="#262626"/>
</mask>
<g mask="url(#mask9_1022_17131)">
<rect width="124" height="124" transform="translate(881 312)" fill="#9C3202"/>
<path d="M936.32 367.551C936.169 366.206 935.544 365.165 934.445 364.426C933.347 363.678 931.964 363.304 930.298 363.304C929.104 363.304 928.072 363.493 927.201 363.872C926.33 364.241 925.653 364.753 925.17 365.406C924.696 366.05 924.46 366.784 924.46 367.608C924.46 368.299 924.621 368.896 924.942 369.398C925.274 369.9 925.705 370.321 926.235 370.662C926.775 370.993 927.353 371.273 927.968 371.5C928.584 371.718 929.175 371.898 929.744 372.04L932.585 372.778C933.513 373.006 934.464 373.313 935.44 373.702C936.415 374.09 937.319 374.601 938.153 375.236C938.986 375.87 939.658 376.656 940.17 377.594C940.691 378.531 940.951 379.653 940.951 380.96C940.951 382.608 940.525 384.071 939.673 385.349C938.83 386.628 937.603 387.636 935.994 388.375C934.393 389.114 932.457 389.483 930.184 389.483C928.006 389.483 926.121 389.137 924.531 388.446C922.94 387.755 921.694 386.775 920.795 385.506C919.895 384.227 919.398 382.712 919.303 380.96H923.707C923.792 382.011 924.133 382.887 924.729 383.588C925.335 384.279 926.107 384.795 927.045 385.136C927.992 385.468 929.029 385.634 930.156 385.634C931.396 385.634 932.499 385.439 933.465 385.051C934.441 384.653 935.208 384.104 935.766 383.403C936.325 382.693 936.604 381.865 936.604 380.918C936.604 380.056 936.358 379.35 935.866 378.801C935.383 378.252 934.725 377.797 933.891 377.438C933.067 377.078 932.135 376.76 931.093 376.486L927.656 375.548C925.326 374.914 923.479 373.981 922.116 372.75C920.762 371.519 920.085 369.89 920.085 367.864C920.085 366.187 920.539 364.724 921.448 363.474C922.357 362.224 923.588 361.254 925.141 360.562C926.694 359.862 928.446 359.511 930.397 359.511C932.367 359.511 934.104 359.857 935.61 360.548C937.125 361.24 938.318 362.191 939.19 363.403C940.061 364.606 940.515 365.989 940.553 367.551H936.32ZM962.062 367.551C961.911 366.206 961.286 365.165 960.188 364.426C959.089 363.678 957.706 363.304 956.04 363.304C954.847 363.304 953.814 363.493 952.943 363.872C952.072 364.241 951.395 364.753 950.912 365.406C950.438 366.05 950.202 366.784 950.202 367.608C950.202 368.299 950.363 368.896 950.685 369.398C951.016 369.9 951.447 370.321 951.977 370.662C952.517 370.993 953.095 371.273 953.71 371.5C954.326 371.718 954.918 371.898 955.486 372.04L958.327 372.778C959.255 373.006 960.206 373.313 961.182 373.702C962.157 374.09 963.062 374.601 963.895 375.236C964.728 375.87 965.401 376.656 965.912 377.594C966.433 378.531 966.693 379.653 966.693 380.96C966.693 382.608 966.267 384.071 965.415 385.349C964.572 386.628 963.346 387.636 961.736 388.375C960.135 389.114 958.199 389.483 955.926 389.483C953.748 389.483 951.864 389.137 950.273 388.446C948.682 387.755 947.437 386.775 946.537 385.506C945.637 384.227 945.14 382.712 945.045 380.96H949.449C949.534 382.011 949.875 382.887 950.472 383.588C951.078 384.279 951.849 384.795 952.787 385.136C953.734 385.468 954.771 385.634 955.898 385.634C957.138 385.634 958.241 385.439 959.207 385.051C960.183 384.653 960.95 384.104 961.509 383.403C962.067 382.693 962.347 381.865 962.347 380.918C962.347 380.056 962.1 379.35 961.608 378.801C961.125 378.252 960.467 377.797 959.634 377.438C958.81 377.078 957.877 376.76 956.835 376.486L953.398 375.548C951.068 374.914 949.222 373.981 947.858 372.75C946.504 371.519 945.827 369.89 945.827 367.864C945.827 366.187 946.281 364.724 947.19 363.474C948.099 362.224 949.33 361.254 950.884 360.562C952.437 359.862 954.188 359.511 956.139 359.511C958.109 359.511 959.847 359.857 961.352 360.548C962.867 361.24 964.061 362.191 964.932 363.403C965.803 364.606 966.258 365.989 966.295 367.551H962.062Z" fill="white" fill-opacity="0.95"/>
</g>
<g clip-path="url(#clip9_1022_17131)">
<rect x="914.5" y="456" width="57" height="28" rx="14" fill="#643ABD"/>
<path d="M927.909 476V464.364H931.841C932.754 464.364 933.5 464.528 934.08 464.858C934.663 465.184 935.095 465.625 935.375 466.182C935.655 466.739 935.795 467.36 935.795 468.045C935.795 468.731 935.655 469.354 935.375 469.915C935.098 470.475 934.67 470.922 934.091 471.256C933.511 471.585 932.769 471.75 931.864 471.75H929.045V470.5H931.818C932.443 470.5 932.945 470.392 933.324 470.176C933.703 469.96 933.977 469.669 934.148 469.301C934.322 468.93 934.409 468.511 934.409 468.045C934.409 467.58 934.322 467.163 934.148 466.795C933.977 466.428 933.701 466.14 933.318 465.932C932.936 465.72 932.428 465.614 931.795 465.614H929.318V476H927.909ZM937.884 476V467.273H939.224V476H937.884ZM938.565 465.818C938.304 465.818 938.079 465.729 937.889 465.551C937.704 465.373 937.611 465.159 937.611 464.909C937.611 464.659 937.704 464.445 937.889 464.267C938.079 464.089 938.304 464 938.565 464C938.827 464 939.05 464.089 939.236 464.267C939.425 464.445 939.52 464.659 939.52 464.909C939.52 465.159 939.425 465.373 939.236 465.551C939.05 465.729 938.827 465.818 938.565 465.818ZM943.021 470.75V476H941.68V467.273H942.976V468.636H943.089C943.294 468.193 943.605 467.837 944.021 467.568C944.438 467.295 944.976 467.159 945.635 467.159C946.226 467.159 946.743 467.28 947.186 467.523C947.629 467.761 947.974 468.125 948.22 468.614C948.466 469.098 948.589 469.712 948.589 470.455V476H947.249V470.545C947.249 469.86 947.071 469.326 946.714 468.943C946.358 468.557 945.87 468.364 945.249 468.364C944.821 468.364 944.438 468.456 944.101 468.642C943.768 468.828 943.504 469.098 943.311 469.455C943.118 469.811 943.021 470.242 943.021 470.75ZM952.29 472.818L952.267 471.159H952.54L956.358 467.273H958.017L953.949 471.386H953.835L952.29 472.818ZM951.04 476V464.364H952.381V476H951.04ZM956.585 476L953.176 471.682L954.131 470.75L958.29 476H956.585Z" fill="white" fill-opacity="0.95"/>
</g>
<defs>
<clipPath id="clip0_1022_17131">
<rect width="79" height="28" fill="white" transform="translate(167.5 204)"/>
</clipPath>
<clipPath id="clip1_1022_17131">
<rect width="60" height="28" fill="white" transform="translate(361 204)"/>
</clipPath>
<clipPath id="clip2_1022_17131">
<rect width="61" height="28" fill="white" transform="translate(544.5 204)"/>
</clipPath>
<clipPath id="clip3_1022_17131">
<rect width="58" height="28" fill="white" transform="translate(730 204)"/>
</clipPath>
<clipPath id="clip4_1022_17131">
<rect width="63" height="28" fill="white" transform="translate(911.5 204)"/>
</clipPath>
<clipPath id="clip5_1022_17131">
<rect width="74" height="28" fill="white" transform="translate(170 456)"/>
</clipPath>
<clipPath id="clip6_1022_17131">
<rect width="63" height="28" fill="white" transform="translate(359.5 456)"/>
</clipPath>
<clipPath id="clip7_1022_17131">
<rect width="68" height="28" fill="white" transform="translate(541 456)"/>
</clipPath>
<clipPath id="clip8_1022_17131">
<rect width="73" height="28" fill="white" transform="translate(722.5 456)"/>
</clipPath>
<clipPath id="clip9_1022_17131">
<rect width="57" height="28" fill="white" transform="translate(914.5 456)"/>
</clipPath>
</defs>
</svg>
