<svg width="1150" height="348" viewBox="0 0 1150 348" fill="none" xmlns="http://www.w3.org/2000/svg">
<rect width="1150" height="348" rx="16" fill="#1A1A1A"/>
<mask id="mask0_1022_18205" style="mask-type:alpha" maskUnits="userSpaceOnUse" x="75" y="136" width="124" height="124">
<path fill-rule="evenodd" clip-rule="evenodd" d="M162.488 254.535C154.713 258.046 146.085 260 137 260C102.758 260 75 232.242 75 198C75 163.758 102.758 136 137 136C171.242 136 199 163.758 199 198C199 207.085 197.046 215.713 193.535 223.488C189.503 218.898 183.59 216 177 216C164.85 216 155 225.85 155 238C155 244.59 157.898 250.503 162.488 254.535Z" fill="#262626"/>
</mask>
<g mask="url(#mask0_1022_18205)">
<rect width="124" height="124" transform="translate(75 136)" fill="#545454"/>
<path d="M130.32 191.551C130.169 190.206 129.544 189.165 128.445 188.426C127.347 187.678 125.964 187.304 124.298 187.304C123.104 187.304 122.072 187.493 121.201 187.872C120.33 188.241 119.653 188.753 119.17 189.406C118.696 190.05 118.46 190.784 118.46 191.608C118.46 192.299 118.621 192.896 118.942 193.398C119.274 193.9 119.705 194.321 120.235 194.662C120.775 194.993 121.353 195.273 121.968 195.5C122.584 195.718 123.175 195.898 123.744 196.04L126.585 196.778C127.513 197.006 128.464 197.313 129.44 197.702C130.415 198.09 131.319 198.601 132.153 199.236C132.986 199.87 133.658 200.656 134.17 201.594C134.691 202.531 134.951 203.653 134.951 204.96C134.951 206.608 134.525 208.071 133.673 209.349C132.83 210.628 131.603 211.636 129.994 212.375C128.393 213.114 126.457 213.483 124.184 213.483C122.006 213.483 120.121 213.137 118.531 212.446C116.94 211.755 115.694 210.775 114.795 209.506C113.895 208.227 113.398 206.712 113.303 204.96H117.707C117.792 206.011 118.133 206.887 118.729 207.588C119.335 208.279 120.107 208.795 121.045 209.136C121.992 209.468 123.029 209.634 124.156 209.634C125.396 209.634 126.499 209.439 127.465 209.051C128.441 208.653 129.208 208.104 129.766 207.403C130.325 206.693 130.604 205.865 130.604 204.918C130.604 204.056 130.358 203.35 129.866 202.801C129.383 202.252 128.725 201.797 127.891 201.438C127.067 201.078 126.135 200.76 125.093 200.486L121.656 199.548C119.326 198.914 117.479 197.981 116.116 196.75C114.762 195.519 114.085 193.89 114.085 191.864C114.085 190.187 114.539 188.724 115.448 187.474C116.357 186.224 117.588 185.254 119.141 184.562C120.694 183.862 122.446 183.511 124.397 183.511C126.367 183.511 128.104 183.857 129.61 184.548C131.125 185.24 132.318 186.191 133.19 187.403C134.061 188.606 134.515 189.989 134.553 191.551H130.32ZM156.062 191.551C155.911 190.206 155.286 189.165 154.188 188.426C153.089 187.678 151.706 187.304 150.04 187.304C148.847 187.304 147.814 187.493 146.943 187.872C146.072 188.241 145.395 188.753 144.912 189.406C144.438 190.05 144.202 190.784 144.202 191.608C144.202 192.299 144.363 192.896 144.685 193.398C145.016 193.9 145.447 194.321 145.977 194.662C146.517 194.993 147.095 195.273 147.71 195.5C148.326 195.718 148.918 195.898 149.486 196.04L152.327 196.778C153.255 197.006 154.206 197.313 155.182 197.702C156.157 198.09 157.062 198.601 157.895 199.236C158.728 199.87 159.401 200.656 159.912 201.594C160.433 202.531 160.693 203.653 160.693 204.96C160.693 206.608 160.267 208.071 159.415 209.349C158.572 210.628 157.346 211.636 155.736 212.375C154.135 213.114 152.199 213.483 149.926 213.483C147.748 213.483 145.864 213.137 144.273 212.446C142.682 211.755 141.437 210.775 140.537 209.506C139.637 208.227 139.14 206.712 139.045 204.96H143.449C143.534 206.011 143.875 206.887 144.472 207.588C145.078 208.279 145.849 208.795 146.787 209.136C147.734 209.468 148.771 209.634 149.898 209.634C151.138 209.634 152.241 209.439 153.207 209.051C154.183 208.653 154.95 208.104 155.509 207.403C156.067 206.693 156.347 205.865 156.347 204.918C156.347 204.056 156.1 203.35 155.608 202.801C155.125 202.252 154.467 201.797 153.634 201.438C152.81 201.078 151.877 200.76 150.835 200.486L147.398 199.548C145.068 198.914 143.222 197.981 141.858 196.75C140.504 195.519 139.827 193.89 139.827 191.864C139.827 190.187 140.281 188.724 141.19 187.474C142.099 186.224 143.33 185.254 144.884 184.562C146.437 183.862 148.188 183.511 150.139 183.511C152.109 183.511 153.847 183.857 155.352 184.548C156.867 185.24 158.061 186.191 158.932 187.403C159.803 188.606 160.258 189.989 160.295 191.551H156.062Z" fill="white" fill-opacity="0.95"/>
</g>
<path d="M177 222.812C173.996 222.812 171.06 223.703 168.562 225.372C166.065 227.041 164.118 229.413 162.969 232.188C161.819 234.963 161.518 238.017 162.104 240.963C162.69 243.909 164.137 246.615 166.261 248.739C168.385 250.863 171.091 252.31 174.037 252.896C176.983 253.482 180.037 253.181 182.812 252.031C185.587 250.882 187.959 248.935 189.628 246.438C191.297 243.94 192.188 241.004 192.188 238C192.183 233.973 190.581 230.113 187.734 227.266C184.887 224.419 181.027 222.817 177 222.812Z" fill="#27A17A"/>
<mask id="mask1_1022_18205" style="mask-type:alpha" maskUnits="userSpaceOnUse" x="299" y="154" width="88" height="88">
<path fill-rule="evenodd" clip-rule="evenodd" d="M361.088 238.122C355.571 240.613 349.447 242 343 242C318.699 242 299 222.301 299 198C299 173.699 318.699 154 343 154C367.301 154 387 173.699 387 198C387 204.447 385.613 210.571 383.122 216.088C380.26 212.83 376.064 210.774 371.387 210.774C362.764 210.774 355.774 217.764 355.774 226.387C355.774 231.064 357.831 235.26 361.088 238.122Z" fill="#262626"/>
</mask>
<g mask="url(#mask1_1022_18205)">
<rect width="88" height="88" transform="translate(299 154)" fill="#545454"/>
<path d="M337.656 192.841C337.535 191.765 337.035 190.932 336.156 190.341C335.277 189.742 334.171 189.443 332.838 189.443C331.884 189.443 331.058 189.595 330.361 189.898C329.664 190.193 329.122 190.602 328.736 191.125C328.357 191.64 328.168 192.227 328.168 192.886C328.168 193.439 328.296 193.917 328.554 194.318C328.819 194.72 329.164 195.057 329.588 195.33C330.02 195.595 330.482 195.818 330.974 196C331.467 196.174 331.94 196.318 332.395 196.432L334.668 197.023C335.41 197.205 336.171 197.451 336.952 197.761C337.732 198.072 338.455 198.481 339.122 198.989C339.789 199.496 340.327 200.125 340.736 200.875C341.152 201.625 341.361 202.523 341.361 203.568C341.361 204.886 341.02 206.057 340.338 207.08C339.664 208.102 338.683 208.909 337.395 209.5C336.115 210.091 334.565 210.386 332.747 210.386C331.005 210.386 329.497 210.11 328.224 209.557C326.952 209.004 325.955 208.22 325.236 207.205C324.516 206.182 324.118 204.97 324.043 203.568H327.565C327.634 204.409 327.906 205.11 328.384 205.67C328.868 206.223 329.486 206.636 330.236 206.909C330.993 207.174 331.823 207.307 332.724 207.307C333.717 207.307 334.599 207.152 335.372 206.841C336.152 206.523 336.766 206.083 337.213 205.523C337.66 204.955 337.884 204.292 337.884 203.534C337.884 202.845 337.687 202.28 337.293 201.841C336.906 201.402 336.38 201.038 335.713 200.75C335.054 200.462 334.308 200.208 333.474 199.989L330.724 199.239C328.861 198.731 327.384 197.985 326.293 197C325.209 196.015 324.668 194.712 324.668 193.091C324.668 191.75 325.031 190.58 325.759 189.58C326.486 188.58 327.471 187.803 328.713 187.25C329.955 186.689 331.357 186.409 332.918 186.409C334.493 186.409 335.884 186.686 337.088 187.239C338.3 187.792 339.255 188.553 339.952 189.523C340.649 190.485 341.012 191.591 341.043 192.841H337.656ZM358.25 192.841C358.129 191.765 357.629 190.932 356.75 190.341C355.871 189.742 354.765 189.443 353.432 189.443C352.477 189.443 351.652 189.595 350.955 189.898C350.258 190.193 349.716 190.602 349.33 191.125C348.951 191.64 348.761 192.227 348.761 192.886C348.761 193.439 348.89 193.917 349.148 194.318C349.413 194.72 349.758 195.057 350.182 195.33C350.614 195.595 351.076 195.818 351.568 196C352.061 196.174 352.534 196.318 352.989 196.432L355.261 197.023C356.004 197.205 356.765 197.451 357.545 197.761C358.326 198.072 359.049 198.481 359.716 198.989C360.383 199.496 360.92 200.125 361.33 200.875C361.746 201.625 361.955 202.523 361.955 203.568C361.955 204.886 361.614 206.057 360.932 207.08C360.258 208.102 359.277 208.909 357.989 209.5C356.708 210.091 355.159 210.386 353.341 210.386C351.598 210.386 350.091 210.11 348.818 209.557C347.545 209.004 346.549 208.22 345.83 207.205C345.11 206.182 344.712 204.97 344.636 203.568H348.159C348.227 204.409 348.5 205.11 348.977 205.67C349.462 206.223 350.08 206.636 350.83 206.909C351.587 207.174 352.417 207.307 353.318 207.307C354.311 207.307 355.193 207.152 355.966 206.841C356.746 206.523 357.36 206.083 357.807 205.523C358.254 204.955 358.477 204.292 358.477 203.534C358.477 202.845 358.28 202.28 357.886 201.841C357.5 201.402 356.973 201.038 356.307 200.75C355.648 200.462 354.902 200.208 354.068 199.989L351.318 199.239C349.455 198.731 347.977 197.985 346.886 197C345.803 196.015 345.261 194.712 345.261 193.091C345.261 191.75 345.625 190.58 346.352 189.58C347.08 188.58 348.064 187.803 349.307 187.25C350.549 186.689 351.951 186.409 353.511 186.409C355.087 186.409 356.477 186.686 357.682 187.239C358.894 187.792 359.848 188.553 360.545 189.523C361.242 190.485 361.606 191.591 361.636 192.841H358.25Z" fill="white" fill-opacity="0.95"/>
</g>
<path d="M371.387 215.609C369.255 215.609 367.171 216.241 365.399 217.425C363.626 218.609 362.245 220.293 361.429 222.262C360.613 224.232 360.4 226.399 360.816 228.49C361.232 230.58 362.258 232.501 363.766 234.008C365.273 235.516 367.193 236.542 369.284 236.958C371.375 237.374 373.542 237.16 375.512 236.345C377.481 235.529 379.164 234.147 380.349 232.375C381.533 230.602 382.165 228.519 382.165 226.387C382.162 223.529 381.025 220.79 379.005 218.769C376.984 216.748 374.244 215.612 371.387 215.609Z" fill="#27A17A"/>
<mask id="mask2_1022_18205" style="mask-type:alpha" maskUnits="userSpaceOnUse" x="487" y="162" width="72" height="72">
<path fill-rule="evenodd" clip-rule="evenodd" d="M537.8 230.827C533.285 232.865 528.275 234 523 234C503.118 234 487 217.882 487 198C487 178.118 503.118 162 523 162C542.882 162 559 178.118 559 198C559 203.275 557.865 208.285 555.827 212.8C553.486 210.134 550.052 208.452 546.226 208.452C539.171 208.452 533.452 214.171 533.452 221.226C533.452 225.052 535.134 228.486 537.8 230.827Z" fill="#262626"/>
</mask>
<g mask="url(#mask2_1022_18205)">
<rect width="72" height="72" transform="translate(487 162)" fill="#545454"/>
<path d="M518.992 194.131C518.901 193.324 518.526 192.699 517.867 192.256C517.208 191.807 516.379 191.582 515.379 191.582C514.663 191.582 514.043 191.696 513.521 191.923C512.998 192.145 512.592 192.452 512.302 192.844C512.018 193.23 511.876 193.67 511.876 194.165C511.876 194.58 511.972 194.937 512.165 195.239C512.364 195.54 512.623 195.793 512.941 195.997C513.265 196.196 513.612 196.364 513.981 196.5C514.35 196.631 514.705 196.739 515.046 196.824L516.751 197.267C517.308 197.403 517.879 197.588 518.464 197.821C519.049 198.054 519.592 198.361 520.092 198.741C520.592 199.122 520.995 199.594 521.302 200.156C521.614 200.719 521.771 201.392 521.771 202.176C521.771 203.165 521.515 204.043 521.004 204.81C520.498 205.577 519.762 206.182 518.796 206.625C517.836 207.068 516.674 207.29 515.31 207.29C514.004 207.29 512.873 207.082 511.918 206.668C510.964 206.253 510.217 205.665 509.677 204.903C509.137 204.136 508.839 203.227 508.782 202.176H511.424C511.475 202.807 511.68 203.332 512.038 203.753C512.401 204.168 512.864 204.477 513.427 204.682C513.995 204.881 514.617 204.98 515.293 204.98C516.038 204.98 516.7 204.864 517.279 204.631C517.864 204.392 518.325 204.062 518.66 203.642C518.995 203.216 519.163 202.719 519.163 202.151C519.163 201.634 519.015 201.21 518.719 200.881C518.43 200.551 518.035 200.278 517.535 200.062C517.04 199.847 516.481 199.656 515.856 199.491L513.793 198.929C512.396 198.548 511.288 197.989 510.469 197.25C509.657 196.511 509.251 195.534 509.251 194.318C509.251 193.312 509.523 192.435 510.069 191.685C510.614 190.935 511.353 190.352 512.285 189.938C513.217 189.517 514.268 189.307 515.438 189.307C516.62 189.307 517.663 189.514 518.566 189.929C519.475 190.344 520.191 190.915 520.714 191.642C521.237 192.364 521.509 193.193 521.532 194.131H518.992ZM534.438 194.131C534.347 193.324 533.972 192.699 533.312 192.256C532.653 191.807 531.824 191.582 530.824 191.582C530.108 191.582 529.489 191.696 528.966 191.923C528.443 192.145 528.037 192.452 527.747 192.844C527.463 193.23 527.321 193.67 527.321 194.165C527.321 194.58 527.418 194.937 527.611 195.239C527.81 195.54 528.068 195.793 528.386 195.997C528.71 196.196 529.057 196.364 529.426 196.5C529.795 196.631 530.151 196.739 530.491 196.824L532.196 197.267C532.753 197.403 533.324 197.588 533.909 197.821C534.494 198.054 535.037 198.361 535.537 198.741C536.037 199.122 536.44 199.594 536.747 200.156C537.06 200.719 537.216 201.392 537.216 202.176C537.216 203.165 536.96 204.043 536.449 204.81C535.943 205.577 535.207 206.182 534.241 206.625C533.281 207.068 532.119 207.29 530.756 207.29C529.449 207.29 528.318 207.082 527.364 206.668C526.409 206.253 525.662 205.665 525.122 204.903C524.582 204.136 524.284 203.227 524.227 202.176H526.869C526.92 202.807 527.125 203.332 527.483 203.753C527.847 204.168 528.31 204.477 528.872 204.682C529.44 204.881 530.062 204.98 530.739 204.98C531.483 204.98 532.145 204.864 532.724 204.631C533.31 204.392 533.77 204.062 534.105 203.642C534.44 203.216 534.608 202.719 534.608 202.151C534.608 201.634 534.46 201.21 534.165 200.881C533.875 200.551 533.48 200.278 532.98 200.062C532.486 199.847 531.926 199.656 531.301 199.491L529.239 198.929C527.841 198.548 526.733 197.989 525.915 197.25C525.102 196.511 524.696 195.534 524.696 194.318C524.696 193.312 524.969 192.435 525.514 191.685C526.06 190.935 526.798 190.352 527.73 189.938C528.662 189.517 529.713 189.307 530.884 189.307C532.065 189.307 533.108 189.514 534.011 189.929C534.92 190.344 535.636 190.915 536.159 191.642C536.682 192.364 536.955 193.193 536.977 194.131H534.438Z" fill="white" fill-opacity="0.95"/>
</g>
<path d="M546.226 212.407C544.482 212.407 542.777 212.924 541.326 213.893C539.876 214.862 538.746 216.24 538.079 217.851C537.411 219.462 537.236 221.236 537.577 222.946C537.917 224.657 538.757 226.228 539.99 227.461C541.223 228.695 542.795 229.535 544.505 229.875C546.216 230.215 547.989 230.041 549.6 229.373C551.212 228.706 552.589 227.575 553.558 226.125C554.527 224.675 555.044 222.97 555.044 221.226C555.042 218.888 554.112 216.646 552.459 214.993C550.805 213.34 548.564 212.41 546.226 212.407Z" fill="#27A17A"/>
<mask id="mask3_1022_18205" style="mask-type:alpha" maskUnits="userSpaceOnUse" x="659" y="166" width="64" height="64">
<path fill-rule="evenodd" clip-rule="evenodd" d="M704.155 227.18C700.142 228.991 695.689 230 691 230C673.327 230 659 215.673 659 198C659 180.327 673.327 166 691 166C708.673 166 723 180.327 723 198C723 202.689 721.992 207.142 720.18 211.155C718.099 208.786 715.047 207.29 711.645 207.29C705.374 207.29 700.29 212.374 700.29 218.645C700.29 222.046 701.786 225.098 704.155 227.18Z" fill="#262626"/>
</mask>
<g mask="url(#mask3_1022_18205)">
<rect width="64" height="64" transform="translate(659 166)" fill="#545454"/>
<path d="M686.992 194.131C686.901 193.324 686.526 192.699 685.867 192.256C685.208 191.807 684.379 191.582 683.379 191.582C682.663 191.582 682.043 191.696 681.521 191.923C680.998 192.145 680.592 192.452 680.302 192.844C680.018 193.23 679.876 193.67 679.876 194.165C679.876 194.58 679.972 194.937 680.165 195.239C680.364 195.54 680.623 195.793 680.941 195.997C681.265 196.196 681.612 196.364 681.981 196.5C682.35 196.631 682.705 196.739 683.046 196.824L684.751 197.267C685.308 197.403 685.879 197.588 686.464 197.821C687.049 198.054 687.592 198.361 688.092 198.741C688.592 199.122 688.995 199.594 689.302 200.156C689.614 200.719 689.771 201.392 689.771 202.176C689.771 203.165 689.515 204.043 689.004 204.81C688.498 205.577 687.762 206.182 686.796 206.625C685.836 207.068 684.674 207.29 683.31 207.29C682.004 207.29 680.873 207.082 679.918 206.668C678.964 206.253 678.217 205.665 677.677 204.903C677.137 204.136 676.839 203.227 676.782 202.176H679.424C679.475 202.807 679.68 203.332 680.038 203.753C680.401 204.168 680.864 204.477 681.427 204.682C681.995 204.881 682.617 204.98 683.293 204.98C684.038 204.98 684.7 204.864 685.279 204.631C685.864 204.392 686.325 204.062 686.66 203.642C686.995 203.216 687.163 202.719 687.163 202.151C687.163 201.634 687.015 201.21 686.719 200.881C686.43 200.551 686.035 200.278 685.535 200.062C685.04 199.847 684.481 199.656 683.856 199.491L681.793 198.929C680.396 198.548 679.288 197.989 678.469 197.25C677.657 196.511 677.251 195.534 677.251 194.318C677.251 193.312 677.523 192.435 678.069 191.685C678.614 190.935 679.353 190.352 680.285 189.938C681.217 189.517 682.268 189.307 683.438 189.307C684.62 189.307 685.663 189.514 686.566 189.929C687.475 190.344 688.191 190.915 688.714 191.642C689.237 192.364 689.509 193.193 689.532 194.131H686.992ZM702.438 194.131C702.347 193.324 701.972 192.699 701.312 192.256C700.653 191.807 699.824 191.582 698.824 191.582C698.108 191.582 697.489 191.696 696.966 191.923C696.443 192.145 696.037 192.452 695.747 192.844C695.463 193.23 695.321 193.67 695.321 194.165C695.321 194.58 695.418 194.937 695.611 195.239C695.81 195.54 696.068 195.793 696.386 195.997C696.71 196.196 697.057 196.364 697.426 196.5C697.795 196.631 698.151 196.739 698.491 196.824L700.196 197.267C700.753 197.403 701.324 197.588 701.909 197.821C702.494 198.054 703.037 198.361 703.537 198.741C704.037 199.122 704.44 199.594 704.747 200.156C705.06 200.719 705.216 201.392 705.216 202.176C705.216 203.165 704.96 204.043 704.449 204.81C703.943 205.577 703.207 206.182 702.241 206.625C701.281 207.068 700.119 207.29 698.756 207.29C697.449 207.29 696.318 207.082 695.364 206.668C694.409 206.253 693.662 205.665 693.122 204.903C692.582 204.136 692.284 203.227 692.227 202.176H694.869C694.92 202.807 695.125 203.332 695.483 203.753C695.847 204.168 696.31 204.477 696.872 204.682C697.44 204.881 698.062 204.98 698.739 204.98C699.483 204.98 700.145 204.864 700.724 204.631C701.31 204.392 701.77 204.062 702.105 203.642C702.44 203.216 702.608 202.719 702.608 202.151C702.608 201.634 702.46 201.21 702.165 200.881C701.875 200.551 701.48 200.278 700.98 200.062C700.486 199.847 699.926 199.656 699.301 199.491L697.239 198.929C695.841 198.548 694.733 197.989 693.915 197.25C693.102 196.511 692.696 195.534 692.696 194.318C692.696 193.312 692.969 192.435 693.514 191.685C694.06 190.935 694.798 190.352 695.73 189.938C696.662 189.517 697.713 189.307 698.884 189.307C700.065 189.307 701.108 189.514 702.011 189.929C702.92 190.344 703.636 190.915 704.159 191.642C704.682 192.364 704.955 193.193 704.977 194.131H702.438Z" fill="white" fill-opacity="0.95"/>
</g>
<path d="M711.645 210.806C710.095 210.806 708.579 211.266 707.29 212.127C706.001 212.989 704.996 214.213 704.403 215.645C703.81 217.078 703.655 218.654 703.957 220.174C704.259 221.695 705.006 223.092 706.102 224.188C707.199 225.284 708.595 226.031 710.116 226.333C711.636 226.636 713.213 226.48 714.645 225.887C716.077 225.294 717.301 224.289 718.163 223C719.024 221.711 719.484 220.195 719.484 218.645C719.481 216.567 718.655 214.574 717.185 213.105C715.716 211.635 713.723 210.809 711.645 210.806Z" fill="#27A17A"/>
<mask id="mask4_1022_18205" style="mask-type:alpha" maskUnits="userSpaceOnUse" x="823" y="174" width="48" height="48">
<path fill-rule="evenodd" clip-rule="evenodd" d="M856.866 219.885C853.857 221.244 850.517 222 847 222C833.745 222 823 211.255 823 198C823 184.745 833.745 174 847 174C860.255 174 871 184.745 871 198C871 201.517 870.244 204.857 868.885 207.866C867.324 206.089 865.035 204.968 862.484 204.968C857.781 204.968 853.968 208.781 853.968 213.484C853.968 216.035 855.089 218.324 856.866 219.885Z" fill="#262626"/>
</mask>
<g mask="url(#mask4_1022_18205)">
<rect width="48" height="48" transform="translate(823 174)" fill="#545454"/>
<path d="M843.66 194.276C843.584 193.603 843.272 193.082 842.723 192.713C842.173 192.339 841.482 192.152 840.649 192.152C840.052 192.152 839.536 192.247 839.1 192.436C838.665 192.621 838.326 192.876 838.085 193.203C837.848 193.525 837.73 193.892 837.73 194.304C837.73 194.65 837.81 194.948 837.971 195.199C838.137 195.45 838.352 195.661 838.618 195.831C838.887 195.997 839.176 196.136 839.484 196.25C839.792 196.359 840.088 196.449 840.372 196.52L841.792 196.889C842.256 197.003 842.732 197.157 843.22 197.351C843.708 197.545 844.16 197.801 844.576 198.118C844.993 198.435 845.329 198.828 845.585 199.297C845.845 199.766 845.975 200.327 845.975 200.98C845.975 201.804 845.762 202.536 845.336 203.175C844.915 203.814 844.302 204.318 843.497 204.688C842.697 205.057 841.728 205.241 840.592 205.241C839.503 205.241 838.561 205.069 837.765 204.723C836.97 204.377 836.347 203.887 835.897 203.253C835.448 202.614 835.199 201.856 835.152 200.98H837.353C837.396 201.506 837.566 201.944 837.865 202.294C838.168 202.64 838.554 202.898 839.022 203.068C839.496 203.234 840.014 203.317 840.578 203.317C841.198 203.317 841.75 203.22 842.233 203.026C842.72 202.827 843.104 202.552 843.383 202.202C843.663 201.847 843.802 201.432 843.802 200.959C843.802 200.528 843.679 200.175 843.433 199.901C843.191 199.626 842.862 199.399 842.446 199.219C842.034 199.039 841.567 198.88 841.047 198.743L839.328 198.274C838.163 197.957 837.24 197.491 836.558 196.875C835.881 196.259 835.542 195.445 835.542 194.432C835.542 193.594 835.77 192.862 836.224 192.237C836.679 191.612 837.294 191.127 838.071 190.781C838.847 190.431 839.723 190.256 840.699 190.256C841.683 190.256 842.552 190.429 843.305 190.774C844.063 191.12 844.659 191.596 845.095 192.202C845.53 192.803 845.758 193.494 845.777 194.276H843.66ZM856.531 194.276C856.455 193.603 856.143 193.082 855.594 192.713C855.045 192.339 854.353 192.152 853.52 192.152C852.923 192.152 852.407 192.247 851.972 192.436C851.536 192.621 851.197 192.876 850.956 193.203C850.719 193.525 850.601 193.892 850.601 194.304C850.601 194.65 850.681 194.948 850.842 195.199C851.008 195.45 851.223 195.661 851.489 195.831C851.759 195.997 852.047 196.136 852.355 196.25C852.663 196.359 852.959 196.449 853.243 196.52L854.663 196.889C855.127 197.003 855.603 197.157 856.091 197.351C856.579 197.545 857.031 197.801 857.447 198.118C857.864 198.435 858.2 198.828 858.456 199.297C858.716 199.766 858.847 200.327 858.847 200.98C858.847 201.804 858.634 202.536 858.207 203.175C857.786 203.814 857.173 204.318 856.368 204.688C855.568 205.057 854.599 205.241 853.463 205.241C852.374 205.241 851.432 205.069 850.636 204.723C849.841 204.377 849.218 203.887 848.768 203.253C848.319 202.614 848.07 201.856 848.023 200.98H850.224C850.267 201.506 850.438 201.944 850.736 202.294C851.039 202.64 851.425 202.898 851.893 203.068C852.367 203.234 852.885 203.317 853.449 203.317C854.069 203.317 854.621 203.22 855.104 203.026C855.591 202.827 855.975 202.552 856.254 202.202C856.534 201.847 856.673 201.432 856.673 200.959C856.673 200.528 856.55 200.175 856.304 199.901C856.063 199.626 855.733 199.399 855.317 199.219C854.905 199.039 854.438 198.88 853.918 198.743L852.199 198.274C851.034 197.957 850.111 197.491 849.429 196.875C848.752 196.259 848.413 195.445 848.413 194.432C848.413 193.594 848.641 192.862 849.095 192.237C849.55 191.612 850.165 191.127 850.942 190.781C851.718 190.431 852.594 190.256 853.57 190.256C854.554 190.256 855.423 190.429 856.176 190.774C856.934 191.12 857.53 191.596 857.966 192.202C858.402 192.803 858.629 193.494 858.648 194.276H856.531Z" fill="white" fill-opacity="0.95"/>
</g>
<path d="M862.484 207.605C861.321 207.605 860.184 207.95 859.218 208.596C858.251 209.242 857.497 210.16 857.052 211.234C856.607 212.308 856.491 213.49 856.718 214.631C856.945 215.771 857.504 216.819 858.327 217.641C859.149 218.463 860.196 219.023 861.337 219.25C862.477 219.477 863.659 219.36 864.734 218.915C865.808 218.47 866.726 217.717 867.372 216.75C868.018 215.783 868.363 214.647 868.363 213.484C868.361 211.925 867.741 210.431 866.639 209.329C865.537 208.226 864.042 207.606 862.484 207.605Z" fill="#27A17A"/>
<mask id="mask5_1022_18205" style="mask-type:alpha" maskUnits="userSpaceOnUse" x="971" y="182" width="32" height="32">
<path fill-rule="evenodd" clip-rule="evenodd" d="M993.578 212.59C991.571 213.496 989.344 214 987 214C978.163 214 971 206.837 971 198C971 189.163 978.163 182 987 182C995.837 182 1003 189.163 1003 198C1003 200.344 1002.5 202.571 1001.59 204.578C1000.55 203.393 999.023 202.645 997.323 202.645C994.187 202.645 991.645 205.187 991.645 208.323C991.645 210.023 992.393 211.549 993.578 212.59Z" fill="#262626"/>
</mask>
<g mask="url(#mask5_1022_18205)">
<rect width="32" height="32" transform="translate(971 182)" fill="#545454"/>
<path d="M984.662 195.493C984.609 195.022 984.39 194.658 984.006 194.399C983.621 194.137 983.137 194.006 982.554 194.006C982.137 194.006 981.775 194.073 981.47 194.205C981.165 194.335 980.928 194.513 980.759 194.742C980.594 194.968 980.511 195.224 980.511 195.513C980.511 195.755 980.567 195.964 980.68 196.139C980.796 196.315 980.947 196.462 981.132 196.582C981.321 196.698 981.523 196.795 981.739 196.875C981.954 196.951 982.161 197.014 982.36 197.064L983.355 197.322C983.679 197.402 984.012 197.51 984.354 197.646C984.695 197.781 985.012 197.96 985.303 198.183C985.595 198.405 985.83 198.68 986.009 199.008C986.192 199.336 986.283 199.729 986.283 200.186C986.283 200.763 986.134 201.275 985.835 201.722C985.54 202.17 985.111 202.523 984.548 202.781C983.988 203.04 983.31 203.169 982.514 203.169C981.752 203.169 981.093 203.048 980.536 202.806C979.979 202.564 979.543 202.221 979.228 201.777C978.913 201.33 978.739 200.799 978.706 200.186H980.247C980.277 200.554 980.396 200.861 980.605 201.106C980.817 201.348 981.088 201.528 981.416 201.648C981.747 201.764 982.11 201.822 982.504 201.822C982.939 201.822 983.325 201.754 983.663 201.618C984.004 201.479 984.273 201.286 984.468 201.041C984.664 200.793 984.762 200.503 984.762 200.171C984.762 199.87 984.675 199.623 984.503 199.43C984.334 199.238 984.104 199.079 983.812 198.953C983.524 198.827 983.197 198.716 982.833 198.62L981.629 198.292C980.814 198.07 980.168 197.743 979.691 197.312C979.217 196.882 978.98 196.312 978.98 195.602C978.98 195.016 979.139 194.504 979.457 194.066C979.775 193.629 980.206 193.289 980.749 193.047C981.293 192.802 981.906 192.679 982.589 192.679C983.278 192.679 983.887 192.8 984.414 193.042C984.944 193.284 985.361 193.617 985.666 194.041C985.971 194.462 986.13 194.946 986.144 195.493H984.662ZM993.672 195.493C993.619 195.022 993.4 194.658 993.016 194.399C992.631 194.137 992.147 194.006 991.564 194.006C991.146 194.006 990.785 194.073 990.48 194.205C990.175 194.335 989.938 194.513 989.769 194.742C989.603 194.968 989.521 195.224 989.521 195.513C989.521 195.755 989.577 195.964 989.69 196.139C989.806 196.315 989.956 196.462 990.142 196.582C990.331 196.698 990.533 196.795 990.749 196.875C990.964 196.951 991.171 197.014 991.37 197.064L992.364 197.322C992.689 197.402 993.022 197.51 993.364 197.646C993.705 197.781 994.022 197.96 994.313 198.183C994.605 198.405 994.84 198.68 995.019 199.008C995.201 199.336 995.293 199.729 995.293 200.186C995.293 200.763 995.143 201.275 994.845 201.722C994.55 202.17 994.121 202.523 993.558 202.781C992.997 203.04 992.32 203.169 991.524 203.169C990.762 203.169 990.102 203.048 989.545 202.806C988.989 202.564 988.553 202.221 988.238 201.777C987.923 201.33 987.749 200.799 987.716 200.186H989.257C989.287 200.554 989.406 200.861 989.615 201.106C989.827 201.348 990.097 201.528 990.425 201.648C990.757 201.764 991.12 201.822 991.514 201.822C991.948 201.822 992.335 201.754 992.673 201.618C993.014 201.479 993.282 201.286 993.478 201.041C993.674 200.793 993.771 200.503 993.771 200.171C993.771 199.87 993.685 199.623 993.513 199.43C993.344 199.238 993.113 199.079 992.822 198.953C992.533 198.827 992.207 198.716 991.842 198.62L990.639 198.292C989.824 198.07 989.178 197.743 988.7 197.312C988.226 196.882 987.989 196.312 987.989 195.602C987.989 195.016 988.148 194.504 988.467 194.066C988.785 193.629 989.216 193.289 989.759 193.047C990.303 192.802 990.916 192.679 991.599 192.679C992.288 192.679 992.896 192.8 993.423 193.042C993.954 193.284 994.371 193.617 994.676 194.041C994.981 194.462 995.14 194.946 995.153 195.493H993.672Z" fill="white" fill-opacity="0.95"/>
</g>
<g clip-path="url(#clip0_1022_18205)">
<path d="M997.323 204.403C996.548 204.403 995.79 204.633 995.145 205.064C994.501 205.495 993.998 206.107 993.702 206.823C993.405 207.539 993.327 208.327 993.479 209.087C993.63 209.848 994.003 210.546 994.551 211.094C995.099 211.642 995.798 212.015 996.558 212.167C997.318 212.318 998.106 212.24 998.823 211.944C999.539 211.647 1000.15 211.145 1000.58 210.5C1001.01 209.856 1001.24 209.098 1001.24 208.323C1001.24 207.284 1000.83 206.287 1000.09 205.553C999.358 204.818 998.362 204.404 997.323 204.403Z" fill="#27A17A"/>
</g>
<mask id="mask6_1022_18205" style="mask-type:alpha" maskUnits="userSpaceOnUse" x="1103" y="186" width="24" height="24">
<path fill-rule="evenodd" clip-rule="evenodd" d="M1119.93 208.942C1118.43 209.622 1116.76 210 1115 210C1108.37 210 1103 204.627 1103 198C1103 191.373 1108.37 186 1115 186C1121.63 186 1127 191.373 1127 198C1127 199.758 1126.62 201.428 1125.94 202.933C1125.16 202.045 1124.02 201.484 1122.74 201.484C1120.39 201.484 1118.48 203.39 1118.48 205.742C1118.48 207.017 1119.04 208.162 1119.93 208.942Z" fill="#262626"/>
</mask>
<g mask="url(#mask6_1022_18205)">
<rect width="24" height="24" transform="translate(1103 186)" fill="#545454"/>
<path d="M1113 195.565C1112.95 195.162 1112.76 194.849 1112.43 194.628C1112.1 194.403 1111.69 194.291 1111.19 194.291C1110.83 194.291 1110.52 194.348 1110.26 194.462C1110 194.572 1109.8 194.726 1109.65 194.922C1109.51 195.115 1109.44 195.335 1109.44 195.582C1109.44 195.79 1109.49 195.969 1109.58 196.119C1109.68 196.27 1109.81 196.396 1109.97 196.499C1110.13 196.598 1110.31 196.682 1110.49 196.75C1110.68 196.815 1110.85 196.869 1111.02 196.912L1111.88 197.134C1112.15 197.202 1112.44 197.294 1112.73 197.411C1113.02 197.527 1113.3 197.68 1113.55 197.871C1113.8 198.061 1114 198.297 1114.15 198.578C1114.31 198.859 1114.39 199.196 1114.39 199.588C1114.39 200.082 1114.26 200.521 1114 200.905C1113.75 201.288 1113.38 201.591 1112.9 201.812C1112.42 202.034 1111.84 202.145 1111.16 202.145C1110.5 202.145 1109.94 202.041 1109.46 201.834C1108.98 201.626 1108.61 201.332 1108.34 200.952C1108.07 200.568 1107.92 200.114 1107.89 199.588H1109.21C1109.24 199.903 1109.34 200.166 1109.52 200.376C1109.7 200.584 1109.93 200.739 1110.21 200.841C1110.5 200.94 1110.81 200.99 1111.15 200.99C1111.52 200.99 1111.85 200.932 1112.14 200.815C1112.43 200.696 1112.66 200.531 1112.83 200.321C1113 200.108 1113.08 199.859 1113.08 199.575C1113.08 199.317 1113.01 199.105 1112.86 198.94C1112.71 198.776 1112.52 198.639 1112.27 198.531C1112.02 198.423 1111.74 198.328 1111.43 198.246L1110.4 197.964C1109.7 197.774 1109.14 197.494 1108.73 197.125C1108.33 196.756 1108.13 196.267 1108.13 195.659C1108.13 195.156 1108.26 194.717 1108.53 194.342C1108.81 193.967 1109.18 193.676 1109.64 193.469C1110.11 193.259 1110.63 193.153 1111.22 193.153C1111.81 193.153 1112.33 193.257 1112.78 193.464C1113.24 193.672 1113.6 193.957 1113.86 194.321C1114.12 194.682 1114.25 195.097 1114.27 195.565H1113ZM1120.72 195.565C1120.67 195.162 1120.49 194.849 1120.16 194.628C1119.83 194.403 1119.41 194.291 1118.91 194.291C1118.55 194.291 1118.24 194.348 1117.98 194.462C1117.72 194.572 1117.52 194.726 1117.37 194.922C1117.23 195.115 1117.16 195.335 1117.16 195.582C1117.16 195.79 1117.21 195.969 1117.31 196.119C1117.4 196.27 1117.53 196.396 1117.69 196.499C1117.86 196.598 1118.03 196.682 1118.21 196.75C1118.4 196.815 1118.58 196.869 1118.75 196.912L1119.6 197.134C1119.88 197.202 1120.16 197.294 1120.45 197.411C1120.75 197.527 1121.02 197.68 1121.27 197.871C1121.52 198.061 1121.72 198.297 1121.87 198.578C1122.03 198.859 1122.11 199.196 1122.11 199.588C1122.11 200.082 1121.98 200.521 1121.72 200.905C1121.47 201.288 1121.1 201.591 1120.62 201.812C1120.14 202.034 1119.56 202.145 1118.88 202.145C1118.22 202.145 1117.66 202.041 1117.18 201.834C1116.7 201.626 1116.33 201.332 1116.06 200.952C1115.79 200.568 1115.64 200.114 1115.61 199.588H1116.93C1116.96 199.903 1117.06 200.166 1117.24 200.376C1117.42 200.584 1117.65 200.739 1117.94 200.841C1118.22 200.94 1118.53 200.99 1118.87 200.99C1119.24 200.99 1119.57 200.932 1119.86 200.815C1120.15 200.696 1120.38 200.531 1120.55 200.321C1120.72 200.108 1120.8 199.859 1120.8 199.575C1120.8 199.317 1120.73 199.105 1120.58 198.94C1120.44 198.776 1120.24 198.639 1119.99 198.531C1119.74 198.423 1119.46 198.328 1119.15 198.246L1118.12 197.964C1117.42 197.774 1116.87 197.494 1116.46 197.125C1116.05 196.756 1115.85 196.267 1115.85 195.659C1115.85 195.156 1115.98 194.717 1116.26 194.342C1116.53 193.967 1116.9 193.676 1117.37 193.469C1117.83 193.259 1118.36 193.153 1118.94 193.153C1119.53 193.153 1120.05 193.257 1120.51 193.464C1120.96 193.672 1121.32 193.957 1121.58 194.321C1121.84 194.682 1121.98 195.097 1121.99 195.565H1120.72Z" fill="white" fill-opacity="0.95"/>
</g>
<g clip-path="url(#clip1_1022_18205)">
<path d="M1122.74 202.802C1122.16 202.802 1121.59 202.975 1121.11 203.298C1120.63 203.621 1120.25 204.08 1120.03 204.617C1119.8 205.154 1119.75 205.745 1119.86 206.315C1119.97 206.886 1120.25 207.409 1120.66 207.821C1121.07 208.232 1121.6 208.512 1122.17 208.625C1122.74 208.738 1123.33 208.68 1123.87 208.458C1124.4 208.235 1124.86 207.859 1125.19 207.375C1125.51 206.892 1125.68 206.323 1125.68 205.742C1125.68 204.963 1125.37 204.215 1124.82 203.664C1124.27 203.113 1123.52 202.803 1122.74 202.802Z" fill="#27A17A"/>
</g>
<g clip-path="url(#clip2_1022_18205)">
<rect x="71" y="132" width="132" height="132" stroke="#DA0087" stroke-width="8"/>
</g>
<g clip-path="url(#clip3_1022_18205)">
<line x1="67.5" y1="120" x2="67.5" y2="105" stroke="#DA0087"/>
<line x1="67" y1="112.5" x2="75" y2="112.5" stroke="#DA0087"/>
<line x1="74.5" y1="120" x2="74.5" y2="105" stroke="#DA0087"/>
</g>
<path d="M66.2806 90.6719C66.2806 90.9727 66.2305 91.2529 66.1302 91.5127C66.0345 91.7725 65.8978 92.0049 65.7201 92.21C65.6107 92.3421 65.4854 92.4652 65.3441 92.5791C65.2028 92.693 65.0456 92.7933 64.8724 92.8799C65.0775 92.9756 65.2666 93.0872 65.4398 93.2148C65.6175 93.3379 65.7725 93.4814 65.9046 93.6455C66.0915 93.8643 66.2373 94.1126 66.3421 94.3906C66.447 94.6686 66.4994 94.9694 66.4994 95.293C66.4994 95.7533 66.4151 96.1611 66.2464 96.5166C66.0778 96.8721 65.8477 97.1683 65.556 97.4053C65.2598 97.6468 64.9134 97.8291 64.517 97.9521C64.125 98.0752 63.7012 98.1367 63.2455 98.1367C62.7806 98.1367 62.3477 98.0752 61.9466 97.9521C61.5502 97.8291 61.2061 97.6468 60.9144 97.4053C60.6182 97.1683 60.3858 96.8743 60.2171 96.5234C60.0531 96.168 59.9711 95.7578 59.9711 95.293C59.9711 95.0195 60.0075 94.7598 60.0804 94.5137C60.1579 94.2676 60.2673 94.0397 60.4086 93.8301C60.5498 93.6296 60.7185 93.4495 60.9144 93.29C61.1149 93.126 61.3382 92.987 61.5843 92.873C61.3747 92.7682 61.1833 92.6406 61.0101 92.4902C60.8415 92.3398 60.6979 92.1735 60.5795 91.9912C60.4564 91.8044 60.3607 91.5993 60.2923 91.376C60.224 91.1527 60.1898 90.918 60.1898 90.6719C60.1898 90.2298 60.265 89.8379 60.4154 89.4961C60.5703 89.1543 60.7823 88.8649 61.0511 88.6279C61.3155 88.391 61.6322 88.2132 62.0013 88.0947C62.375 87.9717 62.7829 87.9102 63.225 87.9102C63.6625 87.9102 64.0658 87.9717 64.4349 88.0947C64.8086 88.2132 65.1345 88.391 65.4125 88.6279C65.6813 88.8604 65.8933 89.1497 66.0482 89.4961C66.2032 89.8379 66.2806 90.2298 66.2806 90.6719ZM64.8656 95.2041C64.8656 94.958 64.8246 94.7347 64.7425 94.5342C64.6651 94.3291 64.5557 94.1514 64.4144 94.001C64.2686 93.8597 64.0954 93.7503 63.8949 93.6729C63.6944 93.5954 63.4733 93.5566 63.2318 93.5566C62.9811 93.5566 62.7556 93.5954 62.555 93.6729C62.3591 93.7503 62.1905 93.8597 62.0492 94.001C61.9079 94.1514 61.7985 94.3291 61.7211 94.5342C61.6481 94.7347 61.6117 94.9603 61.6117 95.2109C61.6117 95.4661 61.6504 95.6963 61.7279 95.9014C61.8054 96.1019 61.917 96.2705 62.0629 96.4072C62.2041 96.5394 62.3727 96.6419 62.5687 96.7148C62.7692 96.7832 62.9948 96.8174 63.2455 96.8174C63.4824 96.8174 63.6989 96.7809 63.8949 96.708C64.0954 96.6351 64.2686 96.5303 64.4144 96.3936C64.5511 96.2523 64.6605 96.0837 64.7425 95.8877C64.8246 95.6872 64.8656 95.4593 64.8656 95.2041ZM64.6537 90.7334C64.6537 90.5101 64.6172 90.3073 64.5443 90.125C64.4759 89.9427 64.3802 89.7832 64.2572 89.6465C64.1296 89.5189 63.9792 89.4186 63.806 89.3457C63.6328 89.2728 63.4369 89.2363 63.2181 89.2363C63.0039 89.2363 62.8102 89.2728 62.6371 89.3457C62.4685 89.4141 62.3226 89.512 62.1996 89.6396C62.0811 89.7673 61.9899 89.9245 61.9261 90.1113C61.8623 90.2982 61.8304 90.5055 61.8304 90.7334C61.8304 90.9567 61.8623 91.1618 61.9261 91.3486C61.9899 91.5309 62.0856 91.6859 62.2132 91.8135C62.3363 91.9456 62.4844 92.0482 62.6576 92.1211C62.8308 92.194 63.0244 92.2305 63.2386 92.2305C63.4528 92.2305 63.6465 92.194 63.8197 92.1211C63.9929 92.0482 64.141 91.9456 64.264 91.8135C64.3871 91.6859 64.4828 91.5309 64.5511 91.3486C64.6195 91.1618 64.6537 90.9567 64.6537 90.7334ZM68.3691 100.844V90.6035H69.873L69.9346 91.3623C70.0348 91.2393 70.1442 91.1276 70.2627 91.0273C70.3812 90.9271 70.5088 90.8405 70.6455 90.7676C70.8232 90.6719 71.0192 90.599 71.2334 90.5488C71.4476 90.4941 71.6755 90.4668 71.917 90.4668C72.391 90.4668 72.8079 90.5579 73.168 90.7402C73.5326 90.9225 73.8379 91.18 74.084 91.5127C74.3255 91.8454 74.5101 92.2441 74.6377 92.709C74.7653 93.1693 74.8291 93.6774 74.8291 94.2334V94.377C74.8291 94.9102 74.7653 95.4069 74.6377 95.8672C74.5146 96.3275 74.3301 96.724 74.084 97.0566C73.8379 97.3939 73.5348 97.6582 73.1748 97.8496C72.8148 98.041 72.4023 98.1367 71.9375 98.1367C71.6732 98.1367 71.4294 98.1094 71.2061 98.0547C70.9873 98 70.7845 97.9202 70.5977 97.8154C70.4883 97.7516 70.3835 97.6787 70.2832 97.5967C70.1829 97.5146 70.0895 97.4258 70.0029 97.3301V100.844H68.3691ZM73.1953 94.2334C73.1953 93.9007 73.1611 93.5885 73.0928 93.2969C73.029 93.0007 72.9287 92.7432 72.792 92.5244C72.6507 92.3057 72.4707 92.1325 72.252 92.0049C72.0332 91.8773 71.7712 91.8135 71.4658 91.8135C71.2972 91.8135 71.14 91.8317 70.9941 91.8682C70.8483 91.9046 70.7184 91.957 70.6045 92.0254C70.4723 92.0983 70.3561 92.1895 70.2559 92.2988C70.1602 92.4082 70.0758 92.5312 70.0029 92.668V95.9561C70.0667 96.0837 70.1442 96.1999 70.2354 96.3047C70.3265 96.4095 70.4313 96.5007 70.5498 96.5781C70.6729 96.651 70.8118 96.7103 70.9668 96.7559C71.1217 96.7969 71.2926 96.8174 71.4795 96.8174C71.7848 96.8174 72.0446 96.7536 72.2588 96.626C72.4775 96.4938 72.6553 96.3161 72.792 96.0928C72.9333 95.8649 73.0358 95.6051 73.0996 95.3135C73.1634 95.0173 73.1953 94.7051 73.1953 94.377V94.2334ZM79.8707 93.0918L81.6413 90.6035H83.4528L80.8551 94.2471L83.5348 98H81.7301L79.8844 95.416L78.0455 98H76.234L78.9137 94.2471L76.3229 90.6035H78.1207L79.8707 93.0918Z" fill="#DA0087"/>
<g clip-path="url(#clip4_1022_18205)">
<line x1="44" y1="128.5" x2="59" y2="128.5" stroke="#DA0087"/>
<line x1="51.5" y1="137" x2="51.5" y2="129" stroke="#DA0087"/>
<line x1="44" y1="135.5" x2="59" y2="135.5" stroke="#DA0087"/>
</g>
<path d="M22.3083 129.672C22.3083 129.973 22.2582 130.253 22.1579 130.513C22.0622 130.772 21.9255 131.005 21.7478 131.21C21.6384 131.342 21.5131 131.465 21.3718 131.579C21.2305 131.693 21.0733 131.793 20.9001 131.88C21.1052 131.976 21.2943 132.087 21.4675 132.215C21.6452 132.338 21.8002 132.481 21.9323 132.646C22.1192 132.864 22.265 133.113 22.3698 133.391C22.4747 133.669 22.5271 133.969 22.5271 134.293C22.5271 134.753 22.4428 135.161 22.2741 135.517C22.1055 135.872 21.8754 136.168 21.5837 136.405C21.2875 136.647 20.9411 136.829 20.5446 136.952C20.1527 137.075 19.7289 137.137 19.2732 137.137C18.8083 137.137 18.3754 137.075 17.9743 136.952C17.5779 136.829 17.2338 136.647 16.9421 136.405C16.6459 136.168 16.4135 135.874 16.2448 135.523C16.0808 135.168 15.9988 134.758 15.9988 134.293C15.9988 134.02 16.0352 133.76 16.1081 133.514C16.1856 133.268 16.295 133.04 16.4363 132.83C16.5775 132.63 16.7461 132.45 16.9421 132.29C17.1426 132.126 17.3659 131.987 17.612 131.873C17.4024 131.768 17.211 131.641 17.0378 131.49C16.8692 131.34 16.7256 131.174 16.6071 130.991C16.4841 130.804 16.3884 130.599 16.32 130.376C16.2517 130.153 16.2175 129.918 16.2175 129.672C16.2175 129.23 16.2927 128.838 16.4431 128.496C16.598 128.154 16.8099 127.865 17.0788 127.628C17.3432 127.391 17.6599 127.213 18.029 127.095C18.4027 126.972 18.8106 126.91 19.2527 126.91C19.6902 126.91 20.0935 126.972 20.4626 127.095C20.8363 127.213 21.1622 127.391 21.4402 127.628C21.709 127.86 21.921 128.15 22.0759 128.496C22.2308 128.838 22.3083 129.23 22.3083 129.672ZM20.8933 134.204C20.8933 133.958 20.8523 133.735 20.7702 133.534C20.6928 133.329 20.5834 133.151 20.4421 133.001C20.2963 132.86 20.1231 132.75 19.9226 132.673C19.7221 132.595 19.501 132.557 19.2595 132.557C19.0088 132.557 18.7833 132.595 18.5827 132.673C18.3868 132.75 18.2182 132.86 18.0769 133.001C17.9356 133.151 17.8262 133.329 17.7488 133.534C17.6758 133.735 17.6394 133.96 17.6394 134.211C17.6394 134.466 17.6781 134.696 17.7556 134.901C17.8331 135.102 17.9447 135.271 18.0905 135.407C18.2318 135.539 18.4004 135.642 18.5964 135.715C18.7969 135.783 19.0225 135.817 19.2732 135.817C19.5101 135.817 19.7266 135.781 19.9226 135.708C20.1231 135.635 20.2963 135.53 20.4421 135.394C20.5788 135.252 20.6882 135.084 20.7702 134.888C20.8523 134.687 20.8933 134.459 20.8933 134.204ZM20.6814 129.733C20.6814 129.51 20.6449 129.307 20.572 129.125C20.5036 128.943 20.4079 128.783 20.2849 128.646C20.1573 128.519 20.0069 128.419 19.8337 128.346C19.6605 128.273 19.4646 128.236 19.2458 128.236C19.0316 128.236 18.8379 128.273 18.6648 128.346C18.4961 128.414 18.3503 128.512 18.2273 128.64C18.1088 128.767 18.0176 128.924 17.9538 129.111C17.89 129.298 17.8581 129.506 17.8581 129.733C17.8581 129.957 17.89 130.162 17.9538 130.349C18.0176 130.531 18.1133 130.686 18.2409 130.813C18.364 130.946 18.5121 131.048 18.6853 131.121C18.8585 131.194 19.0521 131.23 19.2663 131.23C19.4805 131.23 19.6742 131.194 19.8474 131.121C20.0206 131.048 20.1687 130.946 20.2917 130.813C20.4148 130.686 20.5105 130.531 20.5788 130.349C20.6472 130.162 20.6814 129.957 20.6814 129.733ZM24.3968 139.844V129.604H25.9007L25.9623 130.362C26.0625 130.239 26.1719 130.128 26.2904 130.027C26.4089 129.927 26.5365 129.84 26.6732 129.768C26.8509 129.672 27.0469 129.599 27.2611 129.549C27.4753 129.494 27.7032 129.467 27.9447 129.467C28.4186 129.467 28.8356 129.558 29.1957 129.74C29.5602 129.923 29.8656 130.18 30.1117 130.513C30.3532 130.845 30.5378 131.244 30.6654 131.709C30.793 132.169 30.8568 132.677 30.8568 133.233V133.377C30.8568 133.91 30.793 134.407 30.6654 134.867C30.5423 135.327 30.3578 135.724 30.1117 136.057C29.8656 136.394 29.5625 136.658 29.2025 136.85C28.8425 137.041 28.43 137.137 27.9652 137.137C27.7009 137.137 27.4571 137.109 27.2338 137.055C27.015 137 26.8122 136.92 26.6254 136.815C26.516 136.752 26.4112 136.679 26.3109 136.597C26.2106 136.515 26.1172 136.426 26.0306 136.33V139.844H24.3968ZM29.223 133.233C29.223 132.901 29.1888 132.589 29.1205 132.297C29.0567 132.001 28.9564 131.743 28.8197 131.524C28.6784 131.306 28.4984 131.132 28.2796 131.005C28.0609 130.877 27.7989 130.813 27.4935 130.813C27.3249 130.813 27.1677 130.832 27.0218 130.868C26.876 130.905 26.7461 130.957 26.6322 131.025C26.5 131.098 26.3838 131.189 26.2836 131.299C26.1879 131.408 26.1035 131.531 26.0306 131.668V134.956C26.0944 135.084 26.1719 135.2 26.263 135.305C26.3542 135.41 26.459 135.501 26.5775 135.578C26.7005 135.651 26.8395 135.71 26.9945 135.756C27.1494 135.797 27.3203 135.817 27.5072 135.817C27.8125 135.817 28.0723 135.754 28.2865 135.626C28.5052 135.494 28.683 135.316 28.8197 135.093C28.961 134.865 29.0635 134.605 29.1273 134.313C29.1911 134.017 29.223 133.705 29.223 133.377V133.233ZM35.8984 132.092L37.6689 129.604H39.4805L36.8828 133.247L39.5625 137H37.7578L35.9121 134.416L34.0732 137H32.2617L34.9414 133.247L32.3506 129.604H34.1484L35.8984 132.092Z" fill="#DA0087"/>
<g clip-path="url(#clip5_1022_18205)">
<line x1="291.5" y1="140" x2="291.5" y2="125" stroke="#DA0087"/>
<line x1="291" y1="132.5" x2="299" y2="132.5" stroke="#DA0087"/>
<line x1="298.5" y1="140" x2="298.5" y2="125" stroke="#DA0087"/>
</g>
<path d="M290.281 110.672C290.281 110.973 290.23 111.253 290.13 111.513C290.035 111.772 289.898 112.005 289.72 112.21C289.611 112.342 289.485 112.465 289.344 112.579C289.203 112.693 289.046 112.793 288.872 112.88C289.078 112.976 289.267 113.087 289.44 113.215C289.618 113.338 289.772 113.481 289.905 113.646C290.091 113.864 290.237 114.113 290.342 114.391C290.447 114.669 290.499 114.969 290.499 115.293C290.499 115.753 290.415 116.161 290.246 116.517C290.078 116.872 289.848 117.168 289.556 117.405C289.26 117.647 288.913 117.829 288.517 117.952C288.125 118.075 287.701 118.137 287.245 118.137C286.781 118.137 286.348 118.075 285.947 117.952C285.55 117.829 285.206 117.647 284.914 117.405C284.618 117.168 284.386 116.874 284.217 116.523C284.053 116.168 283.971 115.758 283.971 115.293C283.971 115.02 284.008 114.76 284.08 114.514C284.158 114.268 284.267 114.04 284.409 113.83C284.55 113.63 284.718 113.45 284.914 113.29C285.115 113.126 285.338 112.987 285.584 112.873C285.375 112.768 285.183 112.641 285.01 112.49C284.841 112.34 284.698 112.174 284.579 111.991C284.456 111.804 284.361 111.599 284.292 111.376C284.224 111.153 284.19 110.918 284.19 110.672C284.19 110.23 284.265 109.838 284.415 109.496C284.57 109.154 284.782 108.865 285.051 108.628C285.315 108.391 285.632 108.213 286.001 108.095C286.375 107.972 286.783 107.91 287.225 107.91C287.662 107.91 288.066 107.972 288.435 108.095C288.809 108.213 289.134 108.391 289.412 108.628C289.681 108.86 289.893 109.15 290.048 109.496C290.203 109.838 290.281 110.23 290.281 110.672ZM288.866 115.204C288.866 114.958 288.825 114.735 288.743 114.534C288.665 114.329 288.556 114.151 288.414 114.001C288.269 113.86 288.095 113.75 287.895 113.673C287.694 113.595 287.473 113.557 287.232 113.557C286.981 113.557 286.756 113.595 286.555 113.673C286.359 113.75 286.19 113.86 286.049 114.001C285.908 114.151 285.799 114.329 285.721 114.534C285.648 114.735 285.612 114.96 285.612 115.211C285.612 115.466 285.65 115.696 285.728 115.901C285.805 116.102 285.917 116.271 286.063 116.407C286.204 116.539 286.373 116.642 286.569 116.715C286.769 116.783 286.995 116.817 287.245 116.817C287.482 116.817 287.699 116.781 287.895 116.708C288.095 116.635 288.269 116.53 288.414 116.394C288.551 116.252 288.661 116.084 288.743 115.888C288.825 115.687 288.866 115.459 288.866 115.204ZM288.654 110.733C288.654 110.51 288.617 110.307 288.544 110.125C288.476 109.943 288.38 109.783 288.257 109.646C288.13 109.519 287.979 109.419 287.806 109.346C287.633 109.273 287.437 109.236 287.218 109.236C287.004 109.236 286.81 109.273 286.637 109.346C286.468 109.414 286.323 109.512 286.2 109.64C286.081 109.767 285.99 109.924 285.926 110.111C285.862 110.298 285.83 110.506 285.83 110.733C285.83 110.957 285.862 111.162 285.926 111.349C285.99 111.531 286.086 111.686 286.213 111.813C286.336 111.946 286.484 112.048 286.658 112.121C286.831 112.194 287.024 112.23 287.239 112.23C287.453 112.23 287.647 112.194 287.82 112.121C287.993 112.048 288.141 111.946 288.264 111.813C288.387 111.686 288.483 111.531 288.551 111.349C288.619 111.162 288.654 110.957 288.654 110.733ZM292.369 120.844V110.604H293.873L293.935 111.362C294.035 111.239 294.144 111.128 294.263 111.027C294.381 110.927 294.509 110.84 294.646 110.768C294.823 110.672 295.019 110.599 295.233 110.549C295.448 110.494 295.675 110.467 295.917 110.467C296.391 110.467 296.808 110.558 297.168 110.74C297.533 110.923 297.838 111.18 298.084 111.513C298.326 111.845 298.51 112.244 298.638 112.709C298.765 113.169 298.829 113.677 298.829 114.233V114.377C298.829 114.91 298.765 115.407 298.638 115.867C298.515 116.327 298.33 116.724 298.084 117.057C297.838 117.394 297.535 117.658 297.175 117.85C296.815 118.041 296.402 118.137 295.938 118.137C295.673 118.137 295.429 118.109 295.206 118.055C294.987 118 294.785 117.92 294.598 117.815C294.488 117.752 294.383 117.679 294.283 117.597C294.183 117.515 294.09 117.426 294.003 117.33V120.844H292.369ZM297.195 114.233C297.195 113.901 297.161 113.589 297.093 113.297C297.029 113.001 296.929 112.743 296.792 112.524C296.651 112.306 296.471 112.132 296.252 112.005C296.033 111.877 295.771 111.813 295.466 111.813C295.297 111.813 295.14 111.832 294.994 111.868C294.848 111.905 294.718 111.957 294.604 112.025C294.472 112.098 294.356 112.189 294.256 112.299C294.16 112.408 294.076 112.531 294.003 112.668V115.956C294.067 116.084 294.144 116.2 294.235 116.305C294.326 116.41 294.431 116.501 294.55 116.578C294.673 116.651 294.812 116.71 294.967 116.756C295.122 116.797 295.293 116.817 295.479 116.817C295.785 116.817 296.045 116.754 296.259 116.626C296.478 116.494 296.655 116.316 296.792 116.093C296.933 115.865 297.036 115.605 297.1 115.313C297.163 115.017 297.195 114.705 297.195 114.377V114.233ZM303.871 113.092L305.641 110.604H307.453L304.855 114.247L307.535 118H305.73L303.884 115.416L302.046 118H300.234L302.914 114.247L300.323 110.604H302.121L303.871 113.092Z" fill="#DA0087"/>
<g clip-path="url(#clip6_1022_18205)">
<line x1="268" y1="148.5" x2="283" y2="148.5" stroke="#DA0087"/>
<line x1="275.5" y1="157" x2="275.5" y2="149" stroke="#DA0087"/>
<line x1="268" y1="155.5" x2="283" y2="155.5" stroke="#DA0087"/>
</g>
<path d="M246.308 149.672C246.308 149.973 246.258 150.253 246.158 150.513C246.062 150.772 245.926 151.005 245.748 151.21C245.638 151.342 245.513 151.465 245.372 151.579C245.231 151.693 245.073 151.793 244.9 151.88C245.105 151.976 245.294 152.087 245.468 152.215C245.645 152.338 245.8 152.481 245.932 152.646C246.119 152.864 246.265 153.113 246.37 153.391C246.475 153.669 246.527 153.969 246.527 154.293C246.527 154.753 246.443 155.161 246.274 155.517C246.106 155.872 245.875 156.168 245.584 156.405C245.287 156.647 244.941 156.829 244.545 156.952C244.153 157.075 243.729 157.137 243.273 157.137C242.808 157.137 242.375 157.075 241.974 156.952C241.578 156.829 241.234 156.647 240.942 156.405C240.646 156.168 240.413 155.874 240.245 155.523C240.081 155.168 239.999 154.758 239.999 154.293C239.999 154.02 240.035 153.76 240.108 153.514C240.186 153.268 240.295 153.04 240.436 152.83C240.578 152.63 240.746 152.45 240.942 152.29C241.143 152.126 241.366 151.987 241.612 151.873C241.402 151.768 241.211 151.641 241.038 151.49C240.869 151.34 240.726 151.174 240.607 150.991C240.484 150.804 240.388 150.599 240.32 150.376C240.252 150.153 240.218 149.918 240.218 149.672C240.218 149.23 240.293 148.838 240.443 148.496C240.598 148.154 240.81 147.865 241.079 147.628C241.343 147.391 241.66 147.213 242.029 147.095C242.403 146.972 242.811 146.91 243.253 146.91C243.69 146.91 244.093 146.972 244.463 147.095C244.836 147.213 245.162 147.391 245.44 147.628C245.709 147.86 245.921 148.15 246.076 148.496C246.231 148.838 246.308 149.23 246.308 149.672ZM244.893 154.204C244.893 153.958 244.852 153.735 244.77 153.534C244.693 153.329 244.583 153.151 244.442 153.001C244.296 152.86 244.123 152.75 243.923 152.673C243.722 152.595 243.501 152.557 243.259 152.557C243.009 152.557 242.783 152.595 242.583 152.673C242.387 152.75 242.218 152.86 242.077 153.001C241.936 153.151 241.826 153.329 241.749 153.534C241.676 153.735 241.639 153.96 241.639 154.211C241.639 154.466 241.678 154.696 241.756 154.901C241.833 155.102 241.945 155.271 242.091 155.407C242.232 155.539 242.4 155.642 242.596 155.715C242.797 155.783 243.023 155.817 243.273 155.817C243.51 155.817 243.727 155.781 243.923 155.708C244.123 155.635 244.296 155.53 244.442 155.394C244.579 155.252 244.688 155.084 244.77 154.888C244.852 154.687 244.893 154.459 244.893 154.204ZM244.681 149.733C244.681 149.51 244.645 149.307 244.572 149.125C244.504 148.943 244.408 148.783 244.285 148.646C244.157 148.519 244.007 148.419 243.834 148.346C243.661 148.273 243.465 148.236 243.246 148.236C243.032 148.236 242.838 148.273 242.665 148.346C242.496 148.414 242.35 148.512 242.227 148.64C242.109 148.767 242.018 148.924 241.954 149.111C241.89 149.298 241.858 149.506 241.858 149.733C241.858 149.957 241.89 150.162 241.954 150.349C242.018 150.531 242.113 150.686 242.241 150.813C242.364 150.946 242.512 151.048 242.685 151.121C242.858 151.194 243.052 151.23 243.266 151.23C243.481 151.23 243.674 151.194 243.847 151.121C244.021 151.048 244.169 150.946 244.292 150.813C244.415 150.686 244.51 150.531 244.579 150.349C244.647 150.162 244.681 149.957 244.681 149.733ZM248.397 159.844V149.604H249.901L249.962 150.362C250.063 150.239 250.172 150.128 250.29 150.027C250.409 149.927 250.536 149.84 250.673 149.768C250.851 149.672 251.047 149.599 251.261 149.549C251.475 149.494 251.703 149.467 251.945 149.467C252.419 149.467 252.836 149.558 253.196 149.74C253.56 149.923 253.866 150.18 254.112 150.513C254.353 150.845 254.538 151.244 254.665 151.709C254.793 152.169 254.857 152.677 254.857 153.233V153.377C254.857 153.91 254.793 154.407 254.665 154.867C254.542 155.327 254.358 155.724 254.112 156.057C253.866 156.394 253.563 156.658 253.203 156.85C252.842 157.041 252.43 157.137 251.965 157.137C251.701 157.137 251.457 157.109 251.234 157.055C251.015 157 250.812 156.92 250.625 156.815C250.516 156.752 250.411 156.679 250.311 156.597C250.211 156.515 250.117 156.426 250.031 156.33V159.844H248.397ZM253.223 153.233C253.223 152.901 253.189 152.589 253.12 152.297C253.057 152.001 252.956 151.743 252.82 151.524C252.678 151.306 252.498 151.132 252.28 151.005C252.061 150.877 251.799 150.813 251.494 150.813C251.325 150.813 251.168 150.832 251.022 150.868C250.876 150.905 250.746 150.957 250.632 151.025C250.5 151.098 250.384 151.189 250.284 151.299C250.188 151.408 250.104 151.531 250.031 151.668V154.956C250.094 155.084 250.172 155.2 250.263 155.305C250.354 155.41 250.459 155.501 250.578 155.578C250.701 155.651 250.84 155.71 250.994 155.756C251.149 155.797 251.32 155.817 251.507 155.817C251.813 155.817 252.072 155.754 252.286 155.626C252.505 155.494 252.683 155.316 252.82 155.093C252.961 154.865 253.064 154.605 253.127 154.313C253.191 154.017 253.223 153.705 253.223 153.377V153.233ZM259.898 152.092L261.669 149.604H263.48L260.883 153.247L263.562 157H261.758L259.912 154.416L258.073 157H256.262L258.941 153.247L256.351 149.604H258.148L259.898 152.092Z" fill="#DA0087"/>
<g clip-path="url(#clip7_1022_18205)">
<line x1="479.5" y1="148" x2="479.5" y2="133" stroke="#DA0087"/>
<line x1="479" y1="140.5" x2="487" y2="140.5" stroke="#DA0087"/>
<line x1="486.5" y1="148" x2="486.5" y2="133" stroke="#DA0087"/>
</g>
<path d="M478.281 118.672C478.281 118.973 478.23 119.253 478.13 119.513C478.035 119.772 477.898 120.005 477.72 120.21C477.611 120.342 477.485 120.465 477.344 120.579C477.203 120.693 477.046 120.793 476.872 120.88C477.078 120.976 477.267 121.087 477.44 121.215C477.618 121.338 477.772 121.481 477.905 121.646C478.091 121.864 478.237 122.113 478.342 122.391C478.447 122.669 478.499 122.969 478.499 123.293C478.499 123.753 478.415 124.161 478.246 124.517C478.078 124.872 477.848 125.168 477.556 125.405C477.26 125.647 476.913 125.829 476.517 125.952C476.125 126.075 475.701 126.137 475.245 126.137C474.781 126.137 474.348 126.075 473.947 125.952C473.55 125.829 473.206 125.647 472.914 125.405C472.618 125.168 472.386 124.874 472.217 124.523C472.053 124.168 471.971 123.758 471.971 123.293C471.971 123.02 472.008 122.76 472.08 122.514C472.158 122.268 472.267 122.04 472.409 121.83C472.55 121.63 472.718 121.45 472.914 121.29C473.115 121.126 473.338 120.987 473.584 120.873C473.375 120.768 473.183 120.641 473.01 120.49C472.841 120.34 472.698 120.174 472.579 119.991C472.456 119.804 472.361 119.599 472.292 119.376C472.224 119.153 472.19 118.918 472.19 118.672C472.19 118.23 472.265 117.838 472.415 117.496C472.57 117.154 472.782 116.865 473.051 116.628C473.315 116.391 473.632 116.213 474.001 116.095C474.375 115.972 474.783 115.91 475.225 115.91C475.662 115.91 476.066 115.972 476.435 116.095C476.809 116.213 477.134 116.391 477.412 116.628C477.681 116.86 477.893 117.15 478.048 117.496C478.203 117.838 478.281 118.23 478.281 118.672ZM476.866 123.204C476.866 122.958 476.825 122.735 476.743 122.534C476.665 122.329 476.556 122.151 476.414 122.001C476.269 121.86 476.095 121.75 475.895 121.673C475.694 121.595 475.473 121.557 475.232 121.557C474.981 121.557 474.756 121.595 474.555 121.673C474.359 121.75 474.19 121.86 474.049 122.001C473.908 122.151 473.799 122.329 473.721 122.534C473.648 122.735 473.612 122.96 473.612 123.211C473.612 123.466 473.65 123.696 473.728 123.901C473.805 124.102 473.917 124.271 474.063 124.407C474.204 124.539 474.373 124.642 474.569 124.715C474.769 124.783 474.995 124.817 475.245 124.817C475.482 124.817 475.699 124.781 475.895 124.708C476.095 124.635 476.269 124.53 476.414 124.394C476.551 124.252 476.661 124.084 476.743 123.888C476.825 123.687 476.866 123.459 476.866 123.204ZM476.654 118.733C476.654 118.51 476.617 118.307 476.544 118.125C476.476 117.943 476.38 117.783 476.257 117.646C476.13 117.519 475.979 117.419 475.806 117.346C475.633 117.273 475.437 117.236 475.218 117.236C475.004 117.236 474.81 117.273 474.637 117.346C474.468 117.414 474.323 117.512 474.2 117.64C474.081 117.767 473.99 117.924 473.926 118.111C473.862 118.298 473.83 118.506 473.83 118.733C473.83 118.957 473.862 119.162 473.926 119.349C473.99 119.531 474.086 119.686 474.213 119.813C474.336 119.946 474.484 120.048 474.658 120.121C474.831 120.194 475.024 120.23 475.239 120.23C475.453 120.23 475.647 120.194 475.82 120.121C475.993 120.048 476.141 119.946 476.264 119.813C476.387 119.686 476.483 119.531 476.551 119.349C476.619 119.162 476.654 118.957 476.654 118.733ZM480.369 128.844V118.604H481.873L481.935 119.362C482.035 119.239 482.144 119.128 482.263 119.027C482.381 118.927 482.509 118.84 482.646 118.768C482.823 118.672 483.019 118.599 483.233 118.549C483.448 118.494 483.675 118.467 483.917 118.467C484.391 118.467 484.808 118.558 485.168 118.74C485.533 118.923 485.838 119.18 486.084 119.513C486.326 119.845 486.51 120.244 486.638 120.709C486.765 121.169 486.829 121.677 486.829 122.233V122.377C486.829 122.91 486.765 123.407 486.638 123.867C486.515 124.327 486.33 124.724 486.084 125.057C485.838 125.394 485.535 125.658 485.175 125.85C484.815 126.041 484.402 126.137 483.938 126.137C483.673 126.137 483.429 126.109 483.206 126.055C482.987 126 482.785 125.92 482.598 125.815C482.488 125.752 482.383 125.679 482.283 125.597C482.183 125.515 482.09 125.426 482.003 125.33V128.844H480.369ZM485.195 122.233C485.195 121.901 485.161 121.589 485.093 121.297C485.029 121.001 484.929 120.743 484.792 120.524C484.651 120.306 484.471 120.132 484.252 120.005C484.033 119.877 483.771 119.813 483.466 119.813C483.297 119.813 483.14 119.832 482.994 119.868C482.848 119.905 482.718 119.957 482.604 120.025C482.472 120.098 482.356 120.189 482.256 120.299C482.16 120.408 482.076 120.531 482.003 120.668V123.956C482.067 124.084 482.144 124.2 482.235 124.305C482.326 124.41 482.431 124.501 482.55 124.578C482.673 124.651 482.812 124.71 482.967 124.756C483.122 124.797 483.293 124.817 483.479 124.817C483.785 124.817 484.045 124.754 484.259 124.626C484.478 124.494 484.655 124.316 484.792 124.093C484.933 123.865 485.036 123.605 485.1 123.313C485.163 123.017 485.195 122.705 485.195 122.377V122.233ZM491.871 121.092L493.641 118.604H495.453L492.855 122.247L495.535 126H493.73L491.884 123.416L490.046 126H488.234L490.914 122.247L488.323 118.604H490.121L491.871 121.092Z" fill="#DA0087"/>
<g clip-path="url(#clip8_1022_18205)">
<line x1="458" y1="154.5" x2="473" y2="154.5" stroke="#DA0087"/>
<line x1="465.5" y1="163" x2="465.5" y2="155" stroke="#DA0087"/>
<line x1="458" y1="161.5" x2="473" y2="161.5" stroke="#DA0087"/>
</g>
<path d="M436.308 155.672C436.308 155.973 436.258 156.253 436.158 156.513C436.062 156.772 435.926 157.005 435.748 157.21C435.638 157.342 435.513 157.465 435.372 157.579C435.231 157.693 435.073 157.793 434.9 157.88C435.105 157.976 435.294 158.087 435.468 158.215C435.645 158.338 435.8 158.481 435.932 158.646C436.119 158.864 436.265 159.113 436.37 159.391C436.475 159.669 436.527 159.969 436.527 160.293C436.527 160.753 436.443 161.161 436.274 161.517C436.106 161.872 435.875 162.168 435.584 162.405C435.287 162.647 434.941 162.829 434.545 162.952C434.153 163.075 433.729 163.137 433.273 163.137C432.808 163.137 432.375 163.075 431.974 162.952C431.578 162.829 431.234 162.647 430.942 162.405C430.646 162.168 430.413 161.874 430.245 161.523C430.081 161.168 429.999 160.758 429.999 160.293C429.999 160.02 430.035 159.76 430.108 159.514C430.186 159.268 430.295 159.04 430.436 158.83C430.578 158.63 430.746 158.45 430.942 158.29C431.143 158.126 431.366 157.987 431.612 157.873C431.402 157.768 431.211 157.641 431.038 157.49C430.869 157.34 430.726 157.174 430.607 156.991C430.484 156.804 430.388 156.599 430.32 156.376C430.252 156.153 430.218 155.918 430.218 155.672C430.218 155.23 430.293 154.838 430.443 154.496C430.598 154.154 430.81 153.865 431.079 153.628C431.343 153.391 431.66 153.213 432.029 153.095C432.403 152.972 432.811 152.91 433.253 152.91C433.69 152.91 434.093 152.972 434.463 153.095C434.836 153.213 435.162 153.391 435.44 153.628C435.709 153.86 435.921 154.15 436.076 154.496C436.231 154.838 436.308 155.23 436.308 155.672ZM434.893 160.204C434.893 159.958 434.852 159.735 434.77 159.534C434.693 159.329 434.583 159.151 434.442 159.001C434.296 158.86 434.123 158.75 433.923 158.673C433.722 158.595 433.501 158.557 433.259 158.557C433.009 158.557 432.783 158.595 432.583 158.673C432.387 158.75 432.218 158.86 432.077 159.001C431.936 159.151 431.826 159.329 431.749 159.534C431.676 159.735 431.639 159.96 431.639 160.211C431.639 160.466 431.678 160.696 431.756 160.901C431.833 161.102 431.945 161.271 432.091 161.407C432.232 161.539 432.4 161.642 432.596 161.715C432.797 161.783 433.023 161.817 433.273 161.817C433.51 161.817 433.727 161.781 433.923 161.708C434.123 161.635 434.296 161.53 434.442 161.394C434.579 161.252 434.688 161.084 434.77 160.888C434.852 160.687 434.893 160.459 434.893 160.204ZM434.681 155.733C434.681 155.51 434.645 155.307 434.572 155.125C434.504 154.943 434.408 154.783 434.285 154.646C434.157 154.519 434.007 154.419 433.834 154.346C433.661 154.273 433.465 154.236 433.246 154.236C433.032 154.236 432.838 154.273 432.665 154.346C432.496 154.414 432.35 154.512 432.227 154.64C432.109 154.767 432.018 154.924 431.954 155.111C431.89 155.298 431.858 155.506 431.858 155.733C431.858 155.957 431.89 156.162 431.954 156.349C432.018 156.531 432.113 156.686 432.241 156.813C432.364 156.946 432.512 157.048 432.685 157.121C432.858 157.194 433.052 157.23 433.266 157.23C433.481 157.23 433.674 157.194 433.847 157.121C434.021 157.048 434.169 156.946 434.292 156.813C434.415 156.686 434.51 156.531 434.579 156.349C434.647 156.162 434.681 155.957 434.681 155.733ZM438.397 165.844V155.604H439.901L439.962 156.362C440.063 156.239 440.172 156.128 440.29 156.027C440.409 155.927 440.536 155.84 440.673 155.768C440.851 155.672 441.047 155.599 441.261 155.549C441.475 155.494 441.703 155.467 441.945 155.467C442.419 155.467 442.836 155.558 443.196 155.74C443.56 155.923 443.866 156.18 444.112 156.513C444.353 156.845 444.538 157.244 444.665 157.709C444.793 158.169 444.857 158.677 444.857 159.233V159.377C444.857 159.91 444.793 160.407 444.665 160.867C444.542 161.327 444.358 161.724 444.112 162.057C443.866 162.394 443.563 162.658 443.203 162.85C442.842 163.041 442.43 163.137 441.965 163.137C441.701 163.137 441.457 163.109 441.234 163.055C441.015 163 440.812 162.92 440.625 162.815C440.516 162.752 440.411 162.679 440.311 162.597C440.211 162.515 440.117 162.426 440.031 162.33V165.844H438.397ZM443.223 159.233C443.223 158.901 443.189 158.589 443.12 158.297C443.057 158.001 442.956 157.743 442.82 157.524C442.678 157.306 442.498 157.132 442.28 157.005C442.061 156.877 441.799 156.813 441.494 156.813C441.325 156.813 441.168 156.832 441.022 156.868C440.876 156.905 440.746 156.957 440.632 157.025C440.5 157.098 440.384 157.189 440.284 157.299C440.188 157.408 440.104 157.531 440.031 157.668V160.956C440.094 161.084 440.172 161.2 440.263 161.305C440.354 161.41 440.459 161.501 440.578 161.578C440.701 161.651 440.84 161.71 440.994 161.756C441.149 161.797 441.32 161.817 441.507 161.817C441.813 161.817 442.072 161.754 442.286 161.626C442.505 161.494 442.683 161.316 442.82 161.093C442.961 160.865 443.064 160.605 443.127 160.313C443.191 160.017 443.223 159.705 443.223 159.377V159.233ZM449.898 158.092L451.669 155.604H453.48L450.883 159.247L453.562 163H451.758L449.912 160.416L448.073 163H446.262L448.941 159.247L446.351 155.604H448.148L449.898 158.092Z" fill="#DA0087"/>
<g clip-path="url(#clip9_1022_18205)">
<line x1="651.5" y1="152" x2="651.5" y2="137" stroke="#DA0087"/>
<line x1="651" y1="144.5" x2="659" y2="144.5" stroke="#DA0087"/>
<line x1="658.5" y1="152" x2="658.5" y2="137" stroke="#DA0087"/>
</g>
<path d="M650.281 122.672C650.281 122.973 650.23 123.253 650.13 123.513C650.035 123.772 649.898 124.005 649.72 124.21C649.611 124.342 649.485 124.465 649.344 124.579C649.203 124.693 649.046 124.793 648.872 124.88C649.078 124.976 649.267 125.087 649.44 125.215C649.618 125.338 649.772 125.481 649.905 125.646C650.091 125.864 650.237 126.113 650.342 126.391C650.447 126.669 650.499 126.969 650.499 127.293C650.499 127.753 650.415 128.161 650.246 128.517C650.078 128.872 649.848 129.168 649.556 129.405C649.26 129.647 648.913 129.829 648.517 129.952C648.125 130.075 647.701 130.137 647.245 130.137C646.781 130.137 646.348 130.075 645.947 129.952C645.55 129.829 645.206 129.647 644.914 129.405C644.618 129.168 644.386 128.874 644.217 128.523C644.053 128.168 643.971 127.758 643.971 127.293C643.971 127.02 644.008 126.76 644.08 126.514C644.158 126.268 644.267 126.04 644.409 125.83C644.55 125.63 644.718 125.45 644.914 125.29C645.115 125.126 645.338 124.987 645.584 124.873C645.375 124.768 645.183 124.641 645.01 124.49C644.841 124.34 644.698 124.174 644.579 123.991C644.456 123.804 644.361 123.599 644.292 123.376C644.224 123.153 644.19 122.918 644.19 122.672C644.19 122.23 644.265 121.838 644.415 121.496C644.57 121.154 644.782 120.865 645.051 120.628C645.315 120.391 645.632 120.213 646.001 120.095C646.375 119.972 646.783 119.91 647.225 119.91C647.662 119.91 648.066 119.972 648.435 120.095C648.809 120.213 649.134 120.391 649.412 120.628C649.681 120.86 649.893 121.15 650.048 121.496C650.203 121.838 650.281 122.23 650.281 122.672ZM648.866 127.204C648.866 126.958 648.825 126.735 648.743 126.534C648.665 126.329 648.556 126.151 648.414 126.001C648.269 125.86 648.095 125.75 647.895 125.673C647.694 125.595 647.473 125.557 647.232 125.557C646.981 125.557 646.756 125.595 646.555 125.673C646.359 125.75 646.19 125.86 646.049 126.001C645.908 126.151 645.799 126.329 645.721 126.534C645.648 126.735 645.612 126.96 645.612 127.211C645.612 127.466 645.65 127.696 645.728 127.901C645.805 128.102 645.917 128.271 646.063 128.407C646.204 128.539 646.373 128.642 646.569 128.715C646.769 128.783 646.995 128.817 647.245 128.817C647.482 128.817 647.699 128.781 647.895 128.708C648.095 128.635 648.269 128.53 648.414 128.394C648.551 128.252 648.661 128.084 648.743 127.888C648.825 127.687 648.866 127.459 648.866 127.204ZM648.654 122.733C648.654 122.51 648.617 122.307 648.544 122.125C648.476 121.943 648.38 121.783 648.257 121.646C648.13 121.519 647.979 121.419 647.806 121.346C647.633 121.273 647.437 121.236 647.218 121.236C647.004 121.236 646.81 121.273 646.637 121.346C646.468 121.414 646.323 121.512 646.2 121.64C646.081 121.767 645.99 121.924 645.926 122.111C645.862 122.298 645.83 122.506 645.83 122.733C645.83 122.957 645.862 123.162 645.926 123.349C645.99 123.531 646.086 123.686 646.213 123.813C646.336 123.946 646.484 124.048 646.658 124.121C646.831 124.194 647.024 124.23 647.239 124.23C647.453 124.23 647.647 124.194 647.82 124.121C647.993 124.048 648.141 123.946 648.264 123.813C648.387 123.686 648.483 123.531 648.551 123.349C648.619 123.162 648.654 122.957 648.654 122.733ZM652.369 132.844V122.604H653.873L653.935 123.362C654.035 123.239 654.144 123.128 654.263 123.027C654.381 122.927 654.509 122.84 654.646 122.768C654.823 122.672 655.019 122.599 655.233 122.549C655.448 122.494 655.675 122.467 655.917 122.467C656.391 122.467 656.808 122.558 657.168 122.74C657.533 122.923 657.838 123.18 658.084 123.513C658.326 123.845 658.51 124.244 658.638 124.709C658.765 125.169 658.829 125.677 658.829 126.233V126.377C658.829 126.91 658.765 127.407 658.638 127.867C658.515 128.327 658.33 128.724 658.084 129.057C657.838 129.394 657.535 129.658 657.175 129.85C656.815 130.041 656.402 130.137 655.938 130.137C655.673 130.137 655.429 130.109 655.206 130.055C654.987 130 654.785 129.92 654.598 129.815C654.488 129.752 654.383 129.679 654.283 129.597C654.183 129.515 654.09 129.426 654.003 129.33V132.844H652.369ZM657.195 126.233C657.195 125.901 657.161 125.589 657.093 125.297C657.029 125.001 656.929 124.743 656.792 124.524C656.651 124.306 656.471 124.132 656.252 124.005C656.033 123.877 655.771 123.813 655.466 123.813C655.297 123.813 655.14 123.832 654.994 123.868C654.848 123.905 654.718 123.957 654.604 124.025C654.472 124.098 654.356 124.189 654.256 124.299C654.16 124.408 654.076 124.531 654.003 124.668V127.956C654.067 128.084 654.144 128.2 654.235 128.305C654.326 128.41 654.431 128.501 654.55 128.578C654.673 128.651 654.812 128.71 654.967 128.756C655.122 128.797 655.293 128.817 655.479 128.817C655.785 128.817 656.045 128.754 656.259 128.626C656.478 128.494 656.655 128.316 656.792 128.093C656.933 127.865 657.036 127.605 657.1 127.313C657.163 127.017 657.195 126.705 657.195 126.377V126.233ZM663.871 125.092L665.641 122.604H667.453L664.855 126.247L667.535 130H665.73L663.884 127.416L662.046 130H660.234L662.914 126.247L660.323 122.604H662.121L663.871 125.092Z" fill="#DA0087"/>
<g clip-path="url(#clip10_1022_18205)">
<line x1="819.5" y1="162" x2="819.5" y2="147" stroke="#DA0087"/>
<line x1="819" y1="154.5" x2="823" y2="154.5" stroke="#DA0087"/>
<line x1="822.5" y1="162" x2="822.5" y2="147" stroke="#DA0087"/>
</g>
<path d="M815.46 136.452H816.711V137.778H815.46V140H813.827V137.778H809.52L809.479 136.773L813.779 130.047H815.46V136.452ZM811.147 136.452H813.827V132.234L813.635 132.59L811.147 136.452ZM818.369 142.844V132.604H819.873L819.935 133.362C820.035 133.239 820.144 133.128 820.263 133.027C820.381 132.927 820.509 132.84 820.646 132.768C820.823 132.672 821.019 132.599 821.233 132.549C821.448 132.494 821.675 132.467 821.917 132.467C822.391 132.467 822.808 132.558 823.168 132.74C823.533 132.923 823.838 133.18 824.084 133.513C824.326 133.845 824.51 134.244 824.638 134.709C824.765 135.169 824.829 135.677 824.829 136.233V136.377C824.829 136.91 824.765 137.407 824.638 137.867C824.515 138.327 824.33 138.724 824.084 139.057C823.838 139.394 823.535 139.658 823.175 139.85C822.815 140.041 822.402 140.137 821.938 140.137C821.673 140.137 821.429 140.109 821.206 140.055C820.987 140 820.785 139.92 820.598 139.815C820.488 139.752 820.383 139.679 820.283 139.597C820.183 139.515 820.09 139.426 820.003 139.33V142.844H818.369ZM823.195 136.233C823.195 135.901 823.161 135.589 823.093 135.297C823.029 135.001 822.929 134.743 822.792 134.524C822.651 134.306 822.471 134.132 822.252 134.005C822.033 133.877 821.771 133.813 821.466 133.813C821.297 133.813 821.14 133.832 820.994 133.868C820.848 133.905 820.718 133.957 820.604 134.025C820.472 134.098 820.356 134.189 820.256 134.299C820.16 134.408 820.076 134.531 820.003 134.668V137.956C820.067 138.084 820.144 138.2 820.235 138.305C820.326 138.41 820.431 138.501 820.55 138.578C820.673 138.651 820.812 138.71 820.967 138.756C821.122 138.797 821.293 138.817 821.479 138.817C821.785 138.817 822.045 138.754 822.259 138.626C822.478 138.494 822.655 138.316 822.792 138.093C822.933 137.865 823.036 137.605 823.1 137.313C823.163 137.017 823.195 136.705 823.195 136.377V136.233ZM829.871 135.092L831.641 132.604H833.453L830.855 136.247L833.535 140H831.73L829.884 137.416L828.046 140H826.234L828.914 136.247L826.323 132.604H828.121L829.871 135.092Z" fill="#DA0087"/>
<g clip-path="url(#clip11_1022_18205)">
<line x1="796" y1="170.5" x2="811" y2="170.5" stroke="#DA0087"/>
<line x1="803.5" y1="175" x2="803.5" y2="171" stroke="#DA0087"/>
<line x1="796" y1="173.5" x2="811" y2="173.5" stroke="#DA0087"/>
</g>
<path d="M773.488 173.452H774.739V174.778H773.488V177H771.854V174.778H767.548L767.507 173.773L771.806 167.047H773.488V173.452ZM769.175 173.452H771.854V169.234L771.663 169.59L769.175 173.452ZM776.397 179.844V169.604H777.901L777.962 170.362C778.063 170.239 778.172 170.128 778.29 170.027C778.409 169.927 778.536 169.84 778.673 169.768C778.851 169.672 779.047 169.599 779.261 169.549C779.475 169.494 779.703 169.467 779.945 169.467C780.419 169.467 780.836 169.558 781.196 169.74C781.56 169.923 781.866 170.18 782.112 170.513C782.353 170.845 782.538 171.244 782.665 171.709C782.793 172.169 782.857 172.677 782.857 173.233V173.377C782.857 173.91 782.793 174.407 782.665 174.867C782.542 175.327 782.358 175.724 782.112 176.057C781.866 176.394 781.563 176.658 781.203 176.85C780.842 177.041 780.43 177.137 779.965 177.137C779.701 177.137 779.457 177.109 779.234 177.055C779.015 177 778.812 176.92 778.625 176.815C778.516 176.752 778.411 176.679 778.311 176.597C778.211 176.515 778.117 176.426 778.031 176.33V179.844H776.397ZM781.223 173.233C781.223 172.901 781.189 172.589 781.12 172.297C781.057 172.001 780.956 171.743 780.82 171.524C780.678 171.306 780.498 171.132 780.28 171.005C780.061 170.877 779.799 170.813 779.494 170.813C779.325 170.813 779.168 170.832 779.022 170.868C778.876 170.905 778.746 170.957 778.632 171.025C778.5 171.098 778.384 171.189 778.284 171.299C778.188 171.408 778.104 171.531 778.031 171.668V174.956C778.094 175.084 778.172 175.2 778.263 175.305C778.354 175.41 778.459 175.501 778.578 175.578C778.701 175.651 778.84 175.71 778.994 175.756C779.149 175.797 779.32 175.817 779.507 175.817C779.813 175.817 780.072 175.754 780.286 175.626C780.505 175.494 780.683 175.316 780.82 175.093C780.961 174.865 781.064 174.605 781.127 174.313C781.191 174.017 781.223 173.705 781.223 173.377V173.233ZM787.898 172.092L789.669 169.604H791.48L788.883 173.247L791.562 177H789.758L787.912 174.416L786.073 177H784.262L786.941 173.247L784.351 169.604H786.148L787.898 172.092Z" fill="#DA0087"/>
<g clip-path="url(#clip12_1022_18205)">
<line x1="967.5" y1="170" x2="967.5" y2="155" stroke="#DA0087"/>
<line x1="967" y1="162.5" x2="971" y2="162.5" stroke="#DA0087"/>
<line x1="970.5" y1="170" x2="970.5" y2="155" stroke="#DA0087"/>
</g>
<path d="M963.46 144.452H964.711V145.778H963.46V148H961.827V145.778H957.52L957.479 144.773L961.779 138.047H963.46V144.452ZM959.147 144.452H961.827V140.234L961.635 140.59L959.147 144.452ZM966.369 150.844V140.604H967.873L967.935 141.362C968.035 141.239 968.144 141.128 968.263 141.027C968.381 140.927 968.509 140.84 968.646 140.768C968.823 140.672 969.019 140.599 969.233 140.549C969.448 140.494 969.675 140.467 969.917 140.467C970.391 140.467 970.808 140.558 971.168 140.74C971.533 140.923 971.838 141.18 972.084 141.513C972.326 141.845 972.51 142.244 972.638 142.709C972.765 143.169 972.829 143.677 972.829 144.233V144.377C972.829 144.91 972.765 145.407 972.638 145.867C972.515 146.327 972.33 146.724 972.084 147.057C971.838 147.394 971.535 147.658 971.175 147.85C970.815 148.041 970.402 148.137 969.938 148.137C969.673 148.137 969.429 148.109 969.206 148.055C968.987 148 968.785 147.92 968.598 147.815C968.488 147.752 968.383 147.679 968.283 147.597C968.183 147.515 968.09 147.426 968.003 147.33V150.844H966.369ZM971.195 144.233C971.195 143.901 971.161 143.589 971.093 143.297C971.029 143.001 970.929 142.743 970.792 142.524C970.651 142.306 970.471 142.132 970.252 142.005C970.033 141.877 969.771 141.813 969.466 141.813C969.297 141.813 969.14 141.832 968.994 141.868C968.848 141.905 968.718 141.957 968.604 142.025C968.472 142.098 968.356 142.189 968.256 142.299C968.16 142.408 968.076 142.531 968.003 142.668V145.956C968.067 146.084 968.144 146.2 968.235 146.305C968.326 146.41 968.431 146.501 968.55 146.578C968.673 146.651 968.812 146.71 968.967 146.756C969.122 146.797 969.293 146.817 969.479 146.817C969.785 146.817 970.045 146.754 970.259 146.626C970.478 146.494 970.655 146.316 970.792 146.093C970.933 145.865 971.036 145.605 971.1 145.313C971.163 145.017 971.195 144.705 971.195 144.377V144.233ZM977.871 143.092L979.641 140.604H981.453L978.855 144.247L981.535 148H979.73L977.884 145.416L976.046 148H974.234L976.914 144.247L974.323 140.604H976.121L977.871 143.092Z" fill="#DA0087"/>
<g clip-path="url(#clip13_1022_18205)">
<line x1="944" y1="178.5" x2="959" y2="178.5" stroke="#DA0087"/>
<line x1="951.5" y1="183" x2="951.5" y2="179" stroke="#DA0087"/>
<line x1="944" y1="181.5" x2="959" y2="181.5" stroke="#DA0087"/>
</g>
<path d="M921.488 181.452H922.739V182.778H921.488V185H919.854V182.778H915.548L915.507 181.773L919.806 175.047H921.488V181.452ZM917.175 181.452H919.854V177.234L919.663 177.59L917.175 181.452ZM924.397 187.844V177.604H925.901L925.962 178.362C926.063 178.239 926.172 178.128 926.29 178.027C926.409 177.927 926.536 177.84 926.673 177.768C926.851 177.672 927.047 177.599 927.261 177.549C927.475 177.494 927.703 177.467 927.945 177.467C928.419 177.467 928.836 177.558 929.196 177.74C929.56 177.923 929.866 178.18 930.112 178.513C930.353 178.845 930.538 179.244 930.665 179.709C930.793 180.169 930.857 180.677 930.857 181.233V181.377C930.857 181.91 930.793 182.407 930.665 182.867C930.542 183.327 930.358 183.724 930.112 184.057C929.866 184.394 929.563 184.658 929.203 184.85C928.842 185.041 928.43 185.137 927.965 185.137C927.701 185.137 927.457 185.109 927.234 185.055C927.015 185 926.812 184.92 926.625 184.815C926.516 184.752 926.411 184.679 926.311 184.597C926.211 184.515 926.117 184.426 926.031 184.33V187.844H924.397ZM929.223 181.233C929.223 180.901 929.189 180.589 929.12 180.297C929.057 180.001 928.956 179.743 928.82 179.524C928.678 179.306 928.498 179.132 928.28 179.005C928.061 178.877 927.799 178.813 927.494 178.813C927.325 178.813 927.168 178.832 927.022 178.868C926.876 178.905 926.746 178.957 926.632 179.025C926.5 179.098 926.384 179.189 926.284 179.299C926.188 179.408 926.104 179.531 926.031 179.668V182.956C926.094 183.084 926.172 183.2 926.263 183.305C926.354 183.41 926.459 183.501 926.578 183.578C926.701 183.651 926.84 183.71 926.994 183.756C927.149 183.797 927.32 183.817 927.507 183.817C927.813 183.817 928.072 183.754 928.286 183.626C928.505 183.494 928.683 183.316 928.82 183.093C928.961 182.865 929.064 182.605 929.127 182.313C929.191 182.017 929.223 181.705 929.223 181.377V181.233ZM935.898 180.092L937.669 177.604H939.48L936.883 181.247L939.562 185H937.758L935.912 182.416L934.073 185H932.262L934.941 181.247L932.351 177.604H934.148L935.898 180.092Z" fill="#DA0087"/>
<g clip-path="url(#clip14_1022_18205)">
<line x1="1099.5" y1="173" x2="1099.5" y2="158" stroke="#DA0087"/>
<line x1="1099" y1="165.5" x2="1103" y2="165.5" stroke="#DA0087"/>
<line x1="1102.5" y1="173" x2="1102.5" y2="158" stroke="#DA0087"/>
</g>
<path d="M1095.46 147.452H1096.71V148.778H1095.46V151H1093.83V148.778H1089.52L1089.48 147.773L1093.78 141.047H1095.46V147.452ZM1091.15 147.452H1093.83V143.234L1093.64 143.59L1091.15 147.452ZM1098.37 153.844V143.604H1099.87L1099.93 144.362C1100.03 144.239 1100.14 144.128 1100.26 144.027C1100.38 143.927 1100.51 143.84 1100.65 143.768C1100.82 143.672 1101.02 143.599 1101.23 143.549C1101.45 143.494 1101.68 143.467 1101.92 143.467C1102.39 143.467 1102.81 143.558 1103.17 143.74C1103.53 143.923 1103.84 144.18 1104.08 144.513C1104.33 144.845 1104.51 145.244 1104.64 145.709C1104.77 146.169 1104.83 146.677 1104.83 147.233V147.377C1104.83 147.91 1104.77 148.407 1104.64 148.867C1104.51 149.327 1104.33 149.724 1104.08 150.057C1103.84 150.394 1103.53 150.658 1103.17 150.85C1102.81 151.041 1102.4 151.137 1101.94 151.137C1101.67 151.137 1101.43 151.109 1101.21 151.055C1100.99 151 1100.78 150.92 1100.6 150.815C1100.49 150.752 1100.38 150.679 1100.28 150.597C1100.18 150.515 1100.09 150.426 1100 150.33V153.844H1098.37ZM1103.2 147.233C1103.2 146.901 1103.16 146.589 1103.09 146.297C1103.03 146.001 1102.93 145.743 1102.79 145.524C1102.65 145.306 1102.47 145.132 1102.25 145.005C1102.03 144.877 1101.77 144.813 1101.47 144.813C1101.3 144.813 1101.14 144.832 1100.99 144.868C1100.85 144.905 1100.72 144.957 1100.6 145.025C1100.47 145.098 1100.36 145.189 1100.26 145.299C1100.16 145.408 1100.08 145.531 1100 145.668V148.956C1100.07 149.084 1100.14 149.2 1100.24 149.305C1100.33 149.41 1100.43 149.501 1100.55 149.578C1100.67 149.651 1100.81 149.71 1100.97 149.756C1101.12 149.797 1101.29 149.817 1101.48 149.817C1101.78 149.817 1102.04 149.754 1102.26 149.626C1102.48 149.494 1102.66 149.316 1102.79 149.093C1102.93 148.865 1103.04 148.605 1103.1 148.313C1103.16 148.017 1103.2 147.705 1103.2 147.377V147.233ZM1109.87 146.092L1111.64 143.604H1113.45L1110.86 147.247L1113.53 151H1111.73L1109.88 148.416L1108.05 151H1106.23L1108.91 147.247L1106.32 143.604H1108.12L1109.87 146.092Z" fill="#DA0087"/>
<g clip-path="url(#clip15_1022_18205)">
<line x1="1076" y1="181.5" x2="1091" y2="181.5" stroke="#DA0087"/>
<line x1="1083.5" y1="186" x2="1083.5" y2="182" stroke="#DA0087"/>
<line x1="1076" y1="184.5" x2="1091" y2="184.5" stroke="#DA0087"/>
</g>
<path d="M1053.49 184.452H1054.74V185.778H1053.49V188H1051.85V185.778H1047.55L1047.51 184.773L1051.81 178.047H1053.49V184.452ZM1049.17 184.452H1051.85V180.234L1051.66 180.59L1049.17 184.452ZM1056.4 190.844V180.604H1057.9L1057.96 181.362C1058.06 181.239 1058.17 181.128 1058.29 181.027C1058.41 180.927 1058.54 180.84 1058.67 180.768C1058.85 180.672 1059.05 180.599 1059.26 180.549C1059.48 180.494 1059.7 180.467 1059.94 180.467C1060.42 180.467 1060.84 180.558 1061.2 180.74C1061.56 180.923 1061.87 181.18 1062.11 181.513C1062.35 181.845 1062.54 182.244 1062.67 182.709C1062.79 183.169 1062.86 183.677 1062.86 184.233V184.377C1062.86 184.91 1062.79 185.407 1062.67 185.867C1062.54 186.327 1062.36 186.724 1062.11 187.057C1061.87 187.394 1061.56 187.658 1061.2 187.85C1060.84 188.041 1060.43 188.137 1059.97 188.137C1059.7 188.137 1059.46 188.109 1059.23 188.055C1059.02 188 1058.81 187.92 1058.63 187.815C1058.52 187.752 1058.41 187.679 1058.31 187.597C1058.21 187.515 1058.12 187.426 1058.03 187.33V190.844H1056.4ZM1061.22 184.233C1061.22 183.901 1061.19 183.589 1061.12 183.297C1061.06 183.001 1060.96 182.743 1060.82 182.524C1060.68 182.306 1060.5 182.132 1060.28 182.005C1060.06 181.877 1059.8 181.813 1059.49 181.813C1059.32 181.813 1059.17 181.832 1059.02 181.868C1058.88 181.905 1058.75 181.957 1058.63 182.025C1058.5 182.098 1058.38 182.189 1058.28 182.299C1058.19 182.408 1058.1 182.531 1058.03 182.668V185.956C1058.09 186.084 1058.17 186.2 1058.26 186.305C1058.35 186.41 1058.46 186.501 1058.58 186.578C1058.7 186.651 1058.84 186.71 1058.99 186.756C1059.15 186.797 1059.32 186.817 1059.51 186.817C1059.81 186.817 1060.07 186.754 1060.29 186.626C1060.51 186.494 1060.68 186.316 1060.82 186.093C1060.96 185.865 1061.06 185.605 1061.13 185.313C1061.19 185.017 1061.22 184.705 1061.22 184.377V184.233ZM1067.9 183.092L1069.67 180.604H1071.48L1068.88 184.247L1071.56 188H1069.76L1067.91 185.416L1066.07 188H1064.26L1066.94 184.247L1064.35 180.604H1066.15L1067.9 183.092Z" fill="#DA0087"/>
<g clip-path="url(#clip16_1022_18205)">
<line x1="630" y1="158.5" x2="645" y2="158.5" stroke="#DA0087"/>
<line x1="637.5" y1="167" x2="637.5" y2="159" stroke="#DA0087"/>
<line x1="630" y1="165.5" x2="645" y2="165.5" stroke="#DA0087"/>
</g>
<path d="M608.308 159.672C608.308 159.973 608.258 160.253 608.158 160.513C608.062 160.772 607.926 161.005 607.748 161.21C607.638 161.342 607.513 161.465 607.372 161.579C607.231 161.693 607.073 161.793 606.9 161.88C607.105 161.976 607.294 162.087 607.468 162.215C607.645 162.338 607.8 162.481 607.932 162.646C608.119 162.864 608.265 163.113 608.37 163.391C608.475 163.669 608.527 163.969 608.527 164.293C608.527 164.753 608.443 165.161 608.274 165.517C608.106 165.872 607.875 166.168 607.584 166.405C607.287 166.647 606.941 166.829 606.545 166.952C606.153 167.075 605.729 167.137 605.273 167.137C604.808 167.137 604.375 167.075 603.974 166.952C603.578 166.829 603.234 166.647 602.942 166.405C602.646 166.168 602.413 165.874 602.245 165.523C602.081 165.168 601.999 164.758 601.999 164.293C601.999 164.02 602.035 163.76 602.108 163.514C602.186 163.268 602.295 163.04 602.436 162.83C602.578 162.63 602.746 162.45 602.942 162.29C603.143 162.126 603.366 161.987 603.612 161.873C603.402 161.768 603.211 161.641 603.038 161.49C602.869 161.34 602.726 161.174 602.607 160.991C602.484 160.804 602.388 160.599 602.32 160.376C602.252 160.153 602.218 159.918 602.218 159.672C602.218 159.23 602.293 158.838 602.443 158.496C602.598 158.154 602.81 157.865 603.079 157.628C603.343 157.391 603.66 157.213 604.029 157.095C604.403 156.972 604.811 156.91 605.253 156.91C605.69 156.91 606.093 156.972 606.463 157.095C606.836 157.213 607.162 157.391 607.44 157.628C607.709 157.86 607.921 158.15 608.076 158.496C608.231 158.838 608.308 159.23 608.308 159.672ZM606.893 164.204C606.893 163.958 606.852 163.735 606.77 163.534C606.693 163.329 606.583 163.151 606.442 163.001C606.296 162.86 606.123 162.75 605.923 162.673C605.722 162.595 605.501 162.557 605.259 162.557C605.009 162.557 604.783 162.595 604.583 162.673C604.387 162.75 604.218 162.86 604.077 163.001C603.936 163.151 603.826 163.329 603.749 163.534C603.676 163.735 603.639 163.96 603.639 164.211C603.639 164.466 603.678 164.696 603.756 164.901C603.833 165.102 603.945 165.271 604.091 165.407C604.232 165.539 604.4 165.642 604.596 165.715C604.797 165.783 605.023 165.817 605.273 165.817C605.51 165.817 605.727 165.781 605.923 165.708C606.123 165.635 606.296 165.53 606.442 165.394C606.579 165.252 606.688 165.084 606.77 164.888C606.852 164.687 606.893 164.459 606.893 164.204ZM606.681 159.733C606.681 159.51 606.645 159.307 606.572 159.125C606.504 158.943 606.408 158.783 606.285 158.646C606.157 158.519 606.007 158.419 605.834 158.346C605.661 158.273 605.465 158.236 605.246 158.236C605.032 158.236 604.838 158.273 604.665 158.346C604.496 158.414 604.35 158.512 604.227 158.64C604.109 158.767 604.018 158.924 603.954 159.111C603.89 159.298 603.858 159.506 603.858 159.733C603.858 159.957 603.89 160.162 603.954 160.349C604.018 160.531 604.113 160.686 604.241 160.813C604.364 160.946 604.512 161.048 604.685 161.121C604.858 161.194 605.052 161.23 605.266 161.23C605.481 161.23 605.674 161.194 605.847 161.121C606.021 161.048 606.169 160.946 606.292 160.813C606.415 160.686 606.51 160.531 606.579 160.349C606.647 160.162 606.681 159.957 606.681 159.733ZM610.397 169.844V159.604H611.901L611.962 160.362C612.063 160.239 612.172 160.128 612.29 160.027C612.409 159.927 612.536 159.84 612.673 159.768C612.851 159.672 613.047 159.599 613.261 159.549C613.475 159.494 613.703 159.467 613.945 159.467C614.419 159.467 614.836 159.558 615.196 159.74C615.56 159.923 615.866 160.18 616.112 160.513C616.353 160.845 616.538 161.244 616.665 161.709C616.793 162.169 616.857 162.677 616.857 163.233V163.377C616.857 163.91 616.793 164.407 616.665 164.867C616.542 165.327 616.358 165.724 616.112 166.057C615.866 166.394 615.563 166.658 615.203 166.85C614.842 167.041 614.43 167.137 613.965 167.137C613.701 167.137 613.457 167.109 613.234 167.055C613.015 167 612.812 166.92 612.625 166.815C612.516 166.752 612.411 166.679 612.311 166.597C612.211 166.515 612.117 166.426 612.031 166.33V169.844H610.397ZM615.223 163.233C615.223 162.901 615.189 162.589 615.12 162.297C615.057 162.001 614.956 161.743 614.82 161.524C614.678 161.306 614.498 161.132 614.28 161.005C614.061 160.877 613.799 160.813 613.494 160.813C613.325 160.813 613.168 160.832 613.022 160.868C612.876 160.905 612.746 160.957 612.632 161.025C612.5 161.098 612.384 161.189 612.284 161.299C612.188 161.408 612.104 161.531 612.031 161.668V164.956C612.094 165.084 612.172 165.2 612.263 165.305C612.354 165.41 612.459 165.501 612.578 165.578C612.701 165.651 612.84 165.71 612.994 165.756C613.149 165.797 613.32 165.817 613.507 165.817C613.813 165.817 614.072 165.754 614.286 165.626C614.505 165.494 614.683 165.316 614.82 165.093C614.961 164.865 615.064 164.605 615.127 164.313C615.191 164.017 615.223 163.705 615.223 163.377V163.233ZM621.898 162.092L623.669 159.604H625.48L622.883 163.247L625.562 167H623.758L621.912 164.416L620.073 167H618.262L620.941 163.247L618.351 159.604H620.148L621.898 162.092Z" fill="#DA0087"/>
<g clip-path="url(#clip17_1022_18205)">
<rect x="295" y="150" width="96" height="96" stroke="#DA0087" stroke-width="8"/>
</g>
<g clip-path="url(#clip18_1022_18205)">
<rect x="483" y="158" width="80" height="80" stroke="#DA0087" stroke-width="8"/>
</g>
<g clip-path="url(#clip19_1022_18205)">
<rect x="655" y="162" width="72" height="72" stroke="#DA0087" stroke-width="8"/>
</g>
<g clip-path="url(#clip20_1022_18205)">
<rect x="821" y="172" width="52" height="52" stroke="#DA0087" stroke-width="4"/>
</g>
<g clip-path="url(#clip21_1022_18205)">
<rect x="969" y="180" width="36" height="36" stroke="#DA0087" stroke-width="4"/>
</g>
<g clip-path="url(#clip22_1022_18205)">
<rect x="1101" y="184" width="28" height="28" stroke="#DA0087" stroke-width="4"/>
</g>
<defs>
<clipPath id="clip0_1022_18205">
<rect width="9.29032" height="9.29032" fill="white" transform="translate(992.677 203.677)"/>
</clipPath>
<clipPath id="clip1_1022_18205">
<rect width="6.96774" height="6.96774" fill="white" transform="translate(1119.26 202.258)"/>
</clipPath>
<clipPath id="clip2_1022_18205">
<rect width="140" height="140" fill="white" transform="translate(67 128)"/>
</clipPath>
<clipPath id="clip3_1022_18205">
<rect width="8" height="15" fill="white" transform="translate(67 105)"/>
</clipPath>
<clipPath id="clip4_1022_18205">
<rect width="15" height="8" fill="white" transform="translate(44 128)"/>
</clipPath>
<clipPath id="clip5_1022_18205">
<rect width="8" height="15" fill="white" transform="translate(291 125)"/>
</clipPath>
<clipPath id="clip6_1022_18205">
<rect width="15" height="8" fill="white" transform="translate(268 148)"/>
</clipPath>
<clipPath id="clip7_1022_18205">
<rect width="8" height="15" fill="white" transform="translate(479 133)"/>
</clipPath>
<clipPath id="clip8_1022_18205">
<rect width="15" height="8" fill="white" transform="translate(458 154)"/>
</clipPath>
<clipPath id="clip9_1022_18205">
<rect width="8" height="15" fill="white" transform="translate(651 137)"/>
</clipPath>
<clipPath id="clip10_1022_18205">
<rect width="4" height="15" fill="white" transform="translate(819 147)"/>
</clipPath>
<clipPath id="clip11_1022_18205">
<rect width="15" height="4" fill="white" transform="translate(796 170)"/>
</clipPath>
<clipPath id="clip12_1022_18205">
<rect width="4" height="15" fill="white" transform="translate(967 155)"/>
</clipPath>
<clipPath id="clip13_1022_18205">
<rect width="15" height="4" fill="white" transform="translate(944 178)"/>
</clipPath>
<clipPath id="clip14_1022_18205">
<rect width="4" height="15" fill="white" transform="translate(1099 158)"/>
</clipPath>
<clipPath id="clip15_1022_18205">
<rect width="15" height="4" fill="white" transform="translate(1076 181)"/>
</clipPath>
<clipPath id="clip16_1022_18205">
<rect width="15" height="8" fill="white" transform="translate(630 158)"/>
</clipPath>
<clipPath id="clip17_1022_18205">
<rect width="104" height="104" fill="white" transform="translate(291 146)"/>
</clipPath>
<clipPath id="clip18_1022_18205">
<rect width="88" height="88" fill="white" transform="translate(479 154)"/>
</clipPath>
<clipPath id="clip19_1022_18205">
<rect width="80" height="80" fill="white" transform="translate(651 158)"/>
</clipPath>
<clipPath id="clip20_1022_18205">
<rect width="56" height="56" fill="white" transform="translate(819 170)"/>
</clipPath>
<clipPath id="clip21_1022_18205">
<rect width="40" height="40" fill="white" transform="translate(967 178)"/>
</clipPath>
<clipPath id="clip22_1022_18205">
<rect width="32" height="32" fill="white" transform="translate(1099 182)"/>
</clipPath>
</defs>
</svg>
