<svg width="4" height="80" viewBox="0 0 4 80" fill="none" xmlns="http://www.w3.org/2000/svg">
<mask id="mask0_1027_69346" style="mask-type:alpha" maskUnits="userSpaceOnUse" x="0" y="0" width="4" height="80">
<rect width="4" height="80" fill="white"/>
</mask>
<g mask="url(#mask0_1027_69346)">
<path d="M13.2929 9.29289L-6.70711 29.2929L-5.29289 30.7071L14.7071 10.7071L13.2929 9.29289ZM13.2929 3.29289L-6.70711 23.2929L-5.29289 24.7071L14.7071 4.70711L13.2929 3.29289ZM13.2929 -2.70711L-6.70711 17.2929L-5.29289 18.7071L14.7071 -1.29289L13.2929 -2.70711ZM13.2929 -8.70711L-6.70711 11.2929L-5.29289 12.7071L14.7071 -7.29289L13.2929 -8.70711ZM13.2929 -14.7071L-6.70711 5.29289L-5.29289 6.70711L14.7071 -13.2929L13.2929 -14.7071ZM13.2929 15.2929L-6.70711 35.2929L-5.29289 36.7071L14.7071 16.7071L13.2929 15.2929ZM13.2929 21.2929L-6.70711 41.2929L-5.29289 42.7071L14.7071 22.7071L13.2929 21.2929ZM13.2929 27.2929L-6.70711 47.2929L-5.29289 48.7071L14.7071 28.7071L13.2929 27.2929ZM13.2929 33.2929L-6.70711 53.2929L-5.29289 54.7071L14.7071 34.7071L13.2929 33.2929ZM13.2929 39.2929L-6.70711 59.2929L-5.29289 60.7071L14.7071 40.7071L13.2929 39.2929ZM13.2929 45.2929L-6.70711 65.2929L-5.29289 66.7071L14.7071 46.7071L13.2929 45.2929ZM13.2929 51.2929L-6.70711 71.2929L-5.29289 72.7071L14.7071 52.7071L13.2929 51.2929Z" fill="white" fill-opacity="0.3"/>
<path d="M13.2929 81.2929L-6.70711 101.293L-5.29289 102.707L14.7071 82.7071L13.2929 81.2929ZM13.2929 75.2929L-6.70711 95.2929L-5.29289 96.7071L14.7071 76.7071L13.2929 75.2929ZM13.2929 69.2929L-6.70711 89.2929L-5.29289 90.7071L14.7071 70.7071L13.2929 69.2929ZM13.2929 63.2929L-6.70711 83.2929L-5.29289 84.7071L14.7071 64.7071L13.2929 63.2929ZM13.2929 57.2929L-6.70711 77.2929L-5.29289 78.7071L14.7071 58.7071L13.2929 57.2929ZM13.2929 87.2929L-6.70711 107.293L-5.29289 108.707L14.7071 88.7071L13.2929 87.2929ZM13.2929 93.2929L-6.70711 113.293L-5.29289 114.707L14.7071 94.7071L13.2929 93.2929ZM13.2929 99.2929L-6.70711 119.293L-5.29289 120.707L14.7071 100.707L13.2929 99.2929ZM13.2929 105.293L-6.70711 125.293L-5.29289 126.707L14.7071 106.707L13.2929 105.293ZM13.2929 111.293L-6.70711 131.293L-5.29289 132.707L14.7071 112.707L13.2929 111.293ZM13.2929 117.293L-6.70711 137.293L-5.29289 138.707L14.7071 118.707L13.2929 117.293ZM13.2929 123.293L-6.70711 143.293L-5.29289 144.707L14.7071 124.707L13.2929 123.293Z" fill="white" fill-opacity="0.3"/>
</g>
</svg>
