<svg width="1150" height="269" viewBox="0 0 1150 269" fill="none" xmlns="http://www.w3.org/2000/svg">
<rect width="1150" height="268.502" rx="16" fill="#1A1A1A"/>
<rect x="419.5" y="80" width="65" height="24" rx="4" fill="#262626"/>
<rect x="420" y="80.5" width="64" height="23" rx="3.5" stroke="white" stroke-opacity="0.5"/>
<path d="M439.045 90H437.812C437.739 89.6454 437.612 89.3338 437.43 89.0653C437.251 88.7969 437.032 88.5715 436.773 88.3892C436.518 88.2036 436.235 88.0644 435.923 87.9716C435.612 87.8788 435.287 87.8324 434.949 87.8324C434.332 87.8324 433.774 87.9882 433.273 88.2997C432.776 88.6113 432.38 89.0703 432.085 89.6768C431.793 90.2834 431.648 91.0275 431.648 91.9091C431.648 92.7907 431.793 93.5348 432.085 94.1413C432.38 94.7479 432.776 95.2069 433.273 95.5185C433.774 95.83 434.332 95.9858 434.949 95.9858C435.287 95.9858 435.612 95.9394 435.923 95.8466C436.235 95.7538 436.518 95.6162 436.773 95.4339C437.032 95.2483 437.251 95.0213 437.43 94.7528C437.612 94.4811 437.739 94.1695 437.812 93.8182H439.045C438.952 94.3385 438.783 94.8042 438.538 95.2152C438.293 95.6262 437.988 95.9759 437.623 96.2642C437.259 96.5492 436.849 96.7663 436.395 96.9155C435.945 97.0646 435.462 97.1392 434.949 97.1392C434.08 97.1392 433.308 96.9271 432.632 96.5028C431.956 96.0786 431.424 95.4754 431.036 94.6932C430.648 93.911 430.454 92.983 430.454 91.9091C430.454 90.8352 430.648 89.9072 431.036 89.125C431.424 88.3428 431.956 87.7396 432.632 87.3153C433.308 86.8911 434.08 86.679 434.949 86.679C435.462 86.679 435.945 86.7536 436.395 86.9027C436.849 87.0518 437.259 87.2706 437.623 87.5589C437.988 87.844 438.293 88.192 438.538 88.603C438.783 89.0107 438.952 89.4763 439.045 90ZM443.126 97.179C442.642 97.179 442.203 97.0878 441.808 96.9055C441.414 96.7199 441.101 96.4531 440.869 96.1051C440.637 95.7538 440.521 95.3295 440.521 94.8324C440.521 94.3949 440.607 94.0402 440.779 93.7685C440.951 93.4934 441.182 93.2779 441.47 93.1222C441.759 92.9664 442.077 92.8504 442.425 92.7741C442.776 92.6946 443.129 92.6316 443.484 92.5852C443.948 92.5256 444.324 92.4808 444.612 92.451C444.904 92.4179 445.116 92.3632 445.249 92.2869C445.384 92.2107 445.452 92.0781 445.452 91.8892V91.8494C445.452 91.3589 445.318 90.9777 445.05 90.706C444.785 90.4342 444.382 90.2983 443.842 90.2983C443.281 90.2983 442.842 90.4209 442.524 90.6662C442.206 90.9115 441.982 91.1733 441.853 91.4517L440.739 91.054C440.938 90.59 441.203 90.2287 441.535 89.9702C441.87 89.7083 442.234 89.526 442.629 89.4233C443.026 89.3172 443.417 89.2642 443.802 89.2642C444.047 89.2642 444.329 89.294 444.647 89.3537C444.969 89.41 445.278 89.5277 445.577 89.7067C445.878 89.8857 446.129 90.1558 446.327 90.517C446.526 90.8783 446.626 91.3622 446.626 91.9688V97H445.452V95.9659H445.393C445.313 96.1316 445.181 96.3089 444.995 96.4979C444.809 96.6868 444.563 96.8475 444.254 96.9801C443.946 97.1127 443.57 97.179 443.126 97.179ZM443.305 96.125C443.769 96.125 444.16 96.0339 444.478 95.8516C444.799 95.6693 445.041 95.4339 445.204 95.1456C445.37 94.8572 445.452 94.554 445.452 94.2358V93.1619C445.403 93.2216 445.293 93.2763 445.124 93.326C444.959 93.3724 444.766 93.4138 444.548 93.4503C444.332 93.4834 444.122 93.5133 443.916 93.5398C443.714 93.563 443.55 93.5829 443.424 93.5994C443.119 93.6392 442.834 93.7038 442.569 93.7933C442.307 93.8795 442.095 94.0104 441.933 94.1861C441.773 94.3584 441.694 94.5937 441.694 94.892C441.694 95.2997 441.845 95.608 442.146 95.8168C442.451 96.0223 442.837 96.125 443.305 96.125ZM449.941 86.8182V97H448.767V86.8182H449.941ZM453.263 86.8182V97H452.089V86.8182H453.263ZM455.412 97V89.3636H456.585V97H455.412ZM456.008 88.0909C455.78 88.0909 455.582 88.013 455.417 87.8572C455.254 87.7015 455.173 87.5142 455.173 87.2955C455.173 87.0767 455.254 86.8894 455.417 86.7337C455.582 86.5779 455.78 86.5 456.008 86.5C456.237 86.5 456.433 86.5779 456.595 86.7337C456.761 86.8894 456.844 87.0767 456.844 87.2955C456.844 87.5142 456.761 87.7015 456.595 87.8572C456.433 88.013 456.237 88.0909 456.008 88.0909ZM459.907 92.4062V97H458.734V89.3636H459.868V90.5568H459.967C460.146 90.169 460.418 89.8575 460.782 89.6222C461.147 89.3835 461.618 89.2642 462.194 89.2642C462.711 89.2642 463.164 89.3703 463.551 89.5824C463.939 89.7912 464.241 90.1094 464.456 90.5369C464.672 90.9612 464.779 91.4981 464.779 92.1477V97H463.606V92.2273C463.606 91.6274 463.45 91.16 463.139 90.8253C462.827 90.4872 462.4 90.3182 461.856 90.3182C461.482 90.3182 461.147 90.3994 460.852 90.5618C460.56 90.7242 460.33 90.9612 460.161 91.2727C459.992 91.5843 459.907 91.9621 459.907 92.4062ZM470.006 100.023C469.439 100.023 468.952 99.9498 468.544 99.804C468.137 99.6615 467.797 99.4725 467.525 99.2372C467.257 99.0052 467.043 98.7566 466.884 98.4915L467.818 97.8352C467.924 97.9744 468.059 98.1335 468.221 98.3125C468.383 98.4948 468.606 98.6522 468.887 98.7848C469.172 98.9207 469.545 98.9886 470.006 98.9886C470.622 98.9886 471.131 98.8395 471.532 98.5412C471.933 98.2429 472.134 97.7756 472.134 97.1392V95.5881H472.034C471.948 95.7273 471.825 95.8996 471.666 96.1051C471.511 96.3073 471.285 96.4879 470.99 96.647C470.699 96.8028 470.304 96.8807 469.807 96.8807C469.191 96.8807 468.637 96.7348 468.146 96.4432C467.659 96.1515 467.273 95.7273 466.988 95.1705C466.706 94.6136 466.566 93.9375 466.566 93.142C466.566 92.3598 466.703 91.6787 466.978 91.0987C467.253 90.5154 467.636 90.0646 468.127 89.7464C468.617 89.425 469.184 89.2642 469.827 89.2642C470.324 89.2642 470.718 89.3471 471.01 89.5128C471.305 89.6752 471.53 89.8608 471.686 90.0696C471.845 90.2751 471.968 90.4441 472.054 90.5767H472.173V89.3636H473.307V97.2188C473.307 97.875 473.158 98.4086 472.86 98.8196C472.565 99.2339 472.167 99.5372 471.666 99.7294C471.169 99.925 470.616 100.023 470.006 100.023ZM469.966 95.8267C470.437 95.8267 470.834 95.719 471.159 95.5036C471.484 95.2881 471.731 94.9782 471.9 94.5739C472.069 94.1695 472.154 93.6856 472.154 93.1222C472.154 92.572 472.071 92.0864 471.905 91.6655C471.739 91.2446 471.494 90.9148 471.169 90.6761C470.844 90.4375 470.443 90.3182 469.966 90.3182C469.469 90.3182 469.055 90.4441 468.723 90.696C468.395 90.9479 468.148 91.286 467.982 91.7102C467.82 92.1345 467.739 92.6051 467.739 93.1222C467.739 93.6525 467.822 94.1214 467.987 94.5291C468.156 94.9335 468.405 95.2517 468.733 95.4837C469.065 95.7124 469.476 95.8267 469.966 95.8267Z" fill="white" fill-opacity="0.95"/>
<rect x="492.5" y="80" width="112" height="24" rx="4" fill="#262626"/>
<rect x="493" y="80.5" width="111" height="23" rx="3.5" stroke="white" stroke-opacity="0.5"/>
<path d="M508.1 96.1C508.034 96.1002 507.969 96.0872 507.908 96.0619C507.847 96.0366 507.792 95.9994 507.746 95.9526L504.146 92.3349C504.099 92.2883 504.063 92.2331 504.038 92.1724C504.013 92.1117 504 92.0466 504 91.981C504 91.9153 504.014 91.8503 504.039 91.7898C504.064 91.7292 504.101 91.6742 504.148 91.6279C504.194 91.5816 504.249 91.5449 504.31 91.5199C504.371 91.495 504.436 91.4822 504.502 91.4824C504.567 91.4826 504.632 91.4957 504.693 91.521C504.753 91.5463 504.808 91.5833 504.855 91.6298L508.127 94.9184L516.175 88.0209C516.276 87.9347 516.406 87.8919 516.539 87.9021C516.671 87.9123 516.793 87.9745 516.88 88.0751C516.966 88.1758 517.009 88.3065 516.998 88.4387C516.988 88.5708 516.926 88.6935 516.825 88.7797L508.425 95.9794C508.335 96.0573 508.22 96.1001 508.1 96.1Z" fill="white" fill-opacity="0.95"/>
<path d="M523.885 86.8182H525.357L528.817 95.2699H528.936L532.397 86.8182H533.868V97H532.715V89.2642H532.615L529.434 97H528.32L525.138 89.2642H525.039V97H523.885V86.8182ZM539.383 97.1591C538.647 97.1591 538.012 96.9967 537.479 96.6719C536.949 96.3438 536.539 95.8864 536.251 95.2997C535.966 94.7098 535.823 94.0237 535.823 93.2415C535.823 92.4593 535.966 91.7699 536.251 91.1733C536.539 90.5734 536.94 90.1061 537.454 89.7713C537.971 89.4332 538.574 89.2642 539.264 89.2642C539.661 89.2642 540.054 89.3305 540.442 89.4631C540.83 89.5956 541.183 89.8111 541.501 90.1094C541.819 90.4044 542.073 90.7955 542.262 91.2827C542.45 91.7699 542.545 92.3698 542.545 93.0824V93.5795H536.659V92.5653H541.352C541.352 92.1345 541.266 91.75 541.093 91.4119C540.924 91.0739 540.682 90.8071 540.367 90.6115C540.056 90.416 539.688 90.3182 539.264 90.3182C538.796 90.3182 538.392 90.4342 538.051 90.6662C537.713 90.8949 537.452 91.1932 537.27 91.5611C537.088 91.929 536.997 92.3234 536.997 92.7443V93.4205C536.997 93.9972 537.096 94.486 537.295 94.8871C537.497 95.2848 537.777 95.5881 538.135 95.7969C538.493 96.0024 538.909 96.1051 539.383 96.1051C539.691 96.1051 539.97 96.062 540.218 95.9759C540.47 95.8864 540.687 95.7538 540.869 95.5781C541.052 95.3991 541.193 95.1771 541.292 94.9119L542.426 95.2301C542.306 95.6146 542.106 95.9527 541.824 96.2443C541.542 96.5327 541.194 96.758 540.78 96.9205C540.366 97.0795 539.9 97.1591 539.383 97.1591ZM549.739 91.0739L548.685 91.3722C548.619 91.1965 548.521 91.0258 548.392 90.8601C548.266 90.6911 548.093 90.5518 547.874 90.4425C547.656 90.3331 547.376 90.2784 547.034 90.2784C546.567 90.2784 546.177 90.3861 545.866 90.6016C545.558 90.8137 545.404 91.0838 545.404 91.4119C545.404 91.7036 545.51 91.9339 545.722 92.103C545.934 92.272 546.265 92.4129 546.716 92.5256L547.85 92.804C548.532 92.9697 549.041 93.2232 549.376 93.5646C549.711 93.9027 549.878 94.3385 549.878 94.8722C549.878 95.3097 549.752 95.7008 549.5 96.0455C549.252 96.3902 548.904 96.6619 548.456 96.8608C548.009 97.0597 547.488 97.1591 546.895 97.1591C546.116 97.1591 545.472 96.9901 544.961 96.652C544.451 96.3139 544.128 95.8201 543.992 95.1705L545.105 94.892C545.211 95.303 545.412 95.6113 545.707 95.8168C546.005 96.0223 546.395 96.125 546.875 96.125C547.422 96.125 547.856 96.009 548.178 95.777C548.503 95.5417 548.665 95.2599 548.665 94.9318C548.665 94.6667 548.572 94.4446 548.387 94.2656C548.201 94.0833 547.916 93.9474 547.531 93.858L546.259 93.5597C545.559 93.3939 545.046 93.1371 544.718 92.7891C544.393 92.4377 544.23 91.9986 544.23 91.4716C544.23 91.0407 544.351 90.6596 544.593 90.3281C544.838 89.9967 545.172 89.7365 545.593 89.5476C546.017 89.3587 546.497 89.2642 547.034 89.2642C547.79 89.2642 548.383 89.4299 548.814 89.7614C549.248 90.0928 549.557 90.5303 549.739 91.0739ZM557.053 91.0739L555.999 91.3722C555.933 91.1965 555.835 91.0258 555.706 90.8601C555.58 90.6911 555.408 90.5518 555.189 90.4425C554.97 90.3331 554.69 90.2784 554.349 90.2784C553.881 90.2784 553.492 90.3861 553.18 90.6016C552.872 90.8137 552.718 91.0838 552.718 91.4119C552.718 91.7036 552.824 91.9339 553.036 92.103C553.248 92.272 553.58 92.4129 554.031 92.5256L555.164 92.804C555.847 92.9697 556.356 93.2232 556.69 93.5646C557.025 93.9027 557.192 94.3385 557.192 94.8722C557.192 95.3097 557.067 95.7008 556.815 96.0455C556.566 96.3902 556.218 96.6619 555.771 96.8608C555.323 97.0597 554.803 97.1591 554.21 97.1591C553.431 97.1591 552.786 96.9901 552.276 96.652C551.765 96.3139 551.442 95.8201 551.306 95.1705L552.42 94.892C552.526 95.303 552.726 95.6113 553.021 95.8168C553.32 96.0223 553.709 96.125 554.19 96.125C554.737 96.125 555.171 96.009 555.492 95.777C555.817 95.5417 555.979 95.2599 555.979 94.9318C555.979 94.6667 555.887 94.4446 555.701 94.2656C555.515 94.0833 555.23 93.9474 554.846 93.858L553.573 93.5597C552.874 93.3939 552.36 93.1371 552.032 92.7891C551.707 92.4377 551.545 91.9986 551.545 91.4716C551.545 91.0407 551.666 90.6596 551.908 90.3281C552.153 89.9967 552.486 89.7365 552.907 89.5476C553.331 89.3587 553.812 89.2642 554.349 89.2642C555.104 89.2642 555.698 89.4299 556.129 89.7614C556.563 90.0928 556.871 90.5303 557.053 91.0739ZM561.206 97.179C560.722 97.179 560.283 97.0878 559.888 96.9055C559.494 96.7199 559.181 96.4531 558.949 96.1051C558.717 95.7538 558.601 95.3295 558.601 94.8324C558.601 94.3949 558.687 94.0402 558.859 93.7685C559.032 93.4934 559.262 93.2779 559.55 93.1222C559.839 92.9664 560.157 92.8504 560.505 92.7741C560.856 92.6946 561.209 92.6316 561.564 92.5852C562.028 92.5256 562.404 92.4808 562.692 92.451C562.984 92.4179 563.196 92.3632 563.329 92.2869C563.465 92.2107 563.532 92.0781 563.532 91.8892V91.8494C563.532 91.3589 563.398 90.9777 563.13 90.706C562.865 90.4342 562.462 90.2983 561.922 90.2983C561.362 90.2983 560.922 90.4209 560.604 90.6662C560.286 90.9115 560.062 91.1733 559.933 91.4517L558.819 91.054C559.018 90.59 559.283 90.2287 559.615 89.9702C559.95 89.7083 560.314 89.526 560.709 89.4233C561.106 89.3172 561.497 89.2642 561.882 89.2642C562.127 89.2642 562.409 89.294 562.727 89.3537C563.049 89.41 563.358 89.5277 563.657 89.7067C563.958 89.8857 564.209 90.1558 564.407 90.517C564.606 90.8783 564.706 91.3622 564.706 91.9688V97H563.532V95.9659H563.473C563.393 96.1316 563.261 96.3089 563.075 96.4979C562.89 96.6868 562.643 96.8475 562.334 96.9801C562.026 97.1127 561.65 97.179 561.206 97.179ZM561.385 96.125C561.849 96.125 562.24 96.0339 562.558 95.8516C562.88 95.6693 563.122 95.4339 563.284 95.1456C563.45 94.8572 563.532 94.554 563.532 94.2358V93.1619C563.483 93.2216 563.373 93.2763 563.204 93.326C563.039 93.3724 562.846 93.4138 562.628 93.4503C562.412 93.4834 562.202 93.5133 561.996 93.5398C561.794 93.563 561.63 93.5829 561.504 93.5994C561.199 93.6392 560.914 93.7038 560.649 93.7933C560.387 93.8795 560.175 94.0104 560.013 94.1861C559.854 94.3584 559.774 94.5937 559.774 94.892C559.774 95.2997 559.925 95.608 560.226 95.8168C560.531 96.0223 560.917 96.125 561.385 96.125ZM569.93 100.023C569.363 100.023 568.876 99.9498 568.468 99.804C568.06 99.6615 567.721 99.4725 567.449 99.2372C567.18 99.0052 566.967 98.7566 566.808 98.4915L567.742 97.8352C567.848 97.9744 567.982 98.1335 568.145 98.3125C568.307 98.4948 568.529 98.6522 568.811 98.7848C569.096 98.9207 569.469 98.9886 569.93 98.9886C570.546 98.9886 571.055 98.8395 571.456 98.5412C571.857 98.2429 572.058 97.7756 572.058 97.1392V95.5881H571.958C571.872 95.7273 571.749 95.8996 571.59 96.1051C571.434 96.3073 571.209 96.4879 570.914 96.647C570.622 96.8028 570.228 96.8807 569.731 96.8807C569.114 96.8807 568.561 96.7348 568.07 96.4432C567.583 96.1515 567.197 95.7273 566.912 95.1705C566.63 94.6136 566.489 93.9375 566.489 93.142C566.489 92.3598 566.627 91.6787 566.902 91.0987C567.177 90.5154 567.56 90.0646 568.05 89.7464C568.541 89.425 569.108 89.2642 569.751 89.2642C570.248 89.2642 570.642 89.3471 570.934 89.5128C571.229 89.6752 571.454 89.8608 571.61 90.0696C571.769 90.2751 571.892 90.4441 571.978 90.5767H572.097V89.3636H573.231V97.2188C573.231 97.875 573.082 98.4086 572.783 98.8196C572.488 99.2339 572.091 99.5372 571.59 99.7294C571.093 99.925 570.54 100.023 569.93 100.023ZM569.89 95.8267C570.361 95.8267 570.758 95.719 571.083 95.5036C571.408 95.2881 571.655 94.9782 571.824 94.5739C571.993 94.1695 572.077 93.6856 572.077 93.1222C572.077 92.572 571.995 92.0864 571.829 91.6655C571.663 91.2446 571.418 90.9148 571.093 90.6761C570.768 90.4375 570.367 90.3182 569.89 90.3182C569.393 90.3182 568.978 90.4441 568.647 90.696C568.319 90.9479 568.072 91.286 567.906 91.7102C567.744 92.1345 567.663 92.6051 567.663 93.1222C567.663 93.6525 567.746 94.1214 567.911 94.5291C568.08 94.9335 568.329 95.2517 568.657 95.4837C568.988 95.7124 569.399 95.8267 569.89 95.8267ZM575.379 97V89.3636H576.552V97H575.379ZM575.975 88.0909C575.746 88.0909 575.549 88.013 575.384 87.8572C575.221 87.7015 575.14 87.5142 575.14 87.2955C575.14 87.0767 575.221 86.8894 575.384 86.7337C575.549 86.5779 575.746 86.5 575.975 86.5C576.204 86.5 576.399 86.5779 576.562 86.7337C576.728 86.8894 576.81 87.0767 576.81 87.2955C576.81 87.5142 576.728 87.7015 576.562 87.8572C576.399 88.013 576.204 88.0909 575.975 88.0909ZM579.874 92.4062V97H578.701V89.3636H579.834V90.5568H579.934C580.113 90.169 580.385 89.8575 580.749 89.6222C581.114 89.3835 581.584 89.2642 582.161 89.2642C582.678 89.2642 583.131 89.3703 583.518 89.5824C583.906 89.7912 584.208 90.1094 584.423 90.5369C584.639 90.9612 584.746 91.4981 584.746 92.1477V97H583.573V92.2273C583.573 91.6274 583.417 91.16 583.106 90.8253C582.794 90.4872 582.367 90.3182 581.823 90.3182C581.448 90.3182 581.114 90.3994 580.819 90.5618C580.527 90.7242 580.297 90.9612 580.128 91.2727C579.959 91.5843 579.874 91.9621 579.874 92.4062ZM589.973 100.023C589.406 100.023 588.919 99.9498 588.511 99.804C588.103 99.6615 587.764 99.4725 587.492 99.2372C587.223 99.0052 587.01 98.7566 586.85 98.4915L587.785 97.8352C587.891 97.9744 588.025 98.1335 588.188 98.3125C588.35 98.4948 588.572 98.6522 588.854 98.7848C589.139 98.9207 589.512 98.9886 589.973 98.9886C590.589 98.9886 591.098 98.8395 591.499 98.5412C591.9 98.2429 592.1 97.7756 592.1 97.1392V95.5881H592.001C591.915 95.7273 591.792 95.8996 591.633 96.1051C591.477 96.3073 591.252 96.4879 590.957 96.647C590.665 96.8028 590.271 96.8807 589.774 96.8807C589.157 96.8807 588.604 96.7348 588.113 96.4432C587.626 96.1515 587.24 95.7273 586.955 95.1705C586.673 94.6136 586.532 93.9375 586.532 93.142C586.532 92.3598 586.67 91.6787 586.945 91.0987C587.22 90.5154 587.603 90.0646 588.093 89.7464C588.584 89.425 589.151 89.2642 589.794 89.2642C590.291 89.2642 590.685 89.3471 590.977 89.5128C591.272 89.6752 591.497 89.8608 591.653 90.0696C591.812 90.2751 591.935 90.4441 592.021 90.5767H592.14V89.3636H593.274V97.2188C593.274 97.875 593.125 98.4086 592.826 98.8196C592.531 99.2339 592.134 99.5372 591.633 99.7294C591.136 99.925 590.583 100.023 589.973 100.023ZM589.933 95.8267C590.404 95.8267 590.801 95.719 591.126 95.5036C591.451 95.2881 591.698 94.9782 591.867 94.5739C592.036 94.1695 592.12 93.6856 592.12 93.1222C592.12 92.572 592.038 92.0864 591.872 91.6655C591.706 91.2446 591.461 90.9148 591.136 90.6761C590.811 90.4375 590.41 90.3182 589.933 90.3182C589.436 90.3182 589.021 90.4441 588.69 90.696C588.362 90.9479 588.115 91.286 587.949 91.7102C587.787 92.1345 587.706 92.6051 587.706 93.1222C587.706 93.6525 587.788 94.1214 587.954 94.5291C588.123 94.9335 588.372 95.2517 588.7 95.4837C589.031 95.7124 589.442 95.8267 589.933 95.8267Z" fill="white" fill-opacity="0.95"/>
<rect x="612.5" y="80" width="78" height="24" rx="4" fill="#262626"/>
<rect x="613" y="80.5" width="77" height="23" rx="3.5" stroke="white" stroke-opacity="0.5"/>
<path d="M628.1 96.1C628.034 96.1002 627.969 96.0872 627.908 96.0619C627.847 96.0366 627.792 95.9994 627.746 95.9526L624.146 92.3349C624.099 92.2883 624.063 92.2331 624.038 92.1724C624.013 92.1117 624 92.0466 624 91.981C624 91.9153 624.014 91.8503 624.039 91.7898C624.064 91.7292 624.101 91.6742 624.148 91.6279C624.194 91.5816 624.249 91.5449 624.31 91.5199C624.371 91.495 624.436 91.4822 624.502 91.4824C624.567 91.4826 624.632 91.4957 624.693 91.521C624.753 91.5463 624.808 91.5833 624.855 91.6298L628.127 94.9184L636.175 88.0209C636.276 87.9347 636.406 87.8919 636.539 87.9021C636.671 87.9123 636.793 87.9745 636.88 88.0751C636.966 88.1758 637.009 88.3065 636.998 88.4387C636.988 88.5708 636.926 88.6935 636.825 88.7797L628.425 95.9794C628.335 96.0573 628.22 96.1001 628.1 96.1Z" fill="white" fill-opacity="0.95"/>
<path d="M644.16 86.8182L647.183 95.3892H647.302L650.325 86.8182H651.618L647.879 97H646.606L642.868 86.8182H644.16ZM653.045 97V89.3636H654.218V97H653.045ZM653.641 88.0909C653.412 88.0909 653.215 88.013 653.05 87.8572C652.887 87.7015 652.806 87.5142 652.806 87.2955C652.806 87.0767 652.887 86.8894 653.05 86.7337C653.215 86.5779 653.412 86.5 653.641 86.5C653.87 86.5 654.065 86.5779 654.228 86.7337C654.394 86.8894 654.476 87.0767 654.476 87.2955C654.476 87.5142 654.394 87.7015 654.228 87.8572C654.065 88.013 653.87 88.0909 653.641 88.0909ZM659.25 97.1591C658.614 97.1591 658.052 96.9983 657.565 96.6768C657.078 96.352 656.697 95.8946 656.422 95.3047C656.146 94.7114 656.009 94.0104 656.009 93.2017C656.009 92.3996 656.146 91.7036 656.422 91.1136C656.697 90.5237 657.079 90.0679 657.57 89.7464C658.06 89.425 658.627 89.2642 659.27 89.2642C659.767 89.2642 660.16 89.3471 660.449 89.5128C660.74 89.6752 660.962 89.8608 661.115 90.0696C661.27 90.2751 661.391 90.4441 661.478 90.5767H661.577V86.8182H662.75V97H661.617V95.8267H661.478C661.391 95.9659 661.269 96.1416 661.11 96.3537C660.951 96.5625 660.724 96.7498 660.429 96.9155C660.134 97.0779 659.741 97.1591 659.25 97.1591ZM659.409 96.1051C659.88 96.1051 660.278 95.9825 660.603 95.7372C660.927 95.4886 661.174 95.1456 661.343 94.7081C661.512 94.2673 661.597 93.7585 661.597 93.1818C661.597 92.6117 661.514 92.1129 661.348 91.6854C661.183 91.2545 660.937 90.9197 660.613 90.6811C660.288 90.4392 659.887 90.3182 659.409 90.3182C658.912 90.3182 658.498 90.4458 658.167 90.701C657.838 90.9529 657.592 91.2959 657.426 91.7301C657.263 92.161 657.182 92.6449 657.182 93.1818C657.182 93.7254 657.265 94.2192 657.431 94.6634C657.6 95.1042 657.848 95.4555 658.176 95.7173C658.508 95.9759 658.919 96.1051 659.409 96.1051ZM668.264 97.1591C667.528 97.1591 666.893 96.9967 666.36 96.6719C665.829 96.3438 665.42 95.8864 665.132 95.2997C664.847 94.7098 664.704 94.0237 664.704 93.2415C664.704 92.4593 664.847 91.7699 665.132 91.1733C665.42 90.5734 665.821 90.1061 666.335 89.7713C666.852 89.4332 667.455 89.2642 668.145 89.2642C668.542 89.2642 668.935 89.3305 669.323 89.4631C669.711 89.5956 670.064 89.8111 670.382 90.1094C670.7 90.4044 670.953 90.7955 671.142 91.2827C671.331 91.7699 671.426 92.3698 671.426 93.0824V93.5795H665.539V92.5653H670.233C670.233 92.1345 670.146 91.75 669.974 91.4119C669.805 91.0739 669.563 90.8071 669.248 90.6115C668.937 90.416 668.569 90.3182 668.145 90.3182C667.677 90.3182 667.273 90.4342 666.931 90.6662C666.593 90.8949 666.333 91.1932 666.151 91.5611C665.969 91.929 665.877 92.3234 665.877 92.7443V93.4205C665.877 93.9972 665.977 94.486 666.176 94.8871C666.378 95.2848 666.658 95.5881 667.016 95.7969C667.374 96.0024 667.79 96.1051 668.264 96.1051C668.572 96.1051 668.85 96.062 669.099 95.9759C669.351 95.8864 669.568 95.7538 669.75 95.5781C669.933 95.3991 670.074 95.1771 670.173 94.9119L671.306 95.2301C671.187 95.6146 670.987 95.9527 670.705 96.2443C670.423 96.5327 670.075 96.758 669.661 96.9205C669.247 97.0795 668.781 97.1591 668.264 97.1591ZM676.313 97.1591C675.623 97.1591 675.019 96.995 674.498 96.6669C673.981 96.3388 673.577 95.8797 673.285 95.2898C672.997 94.6998 672.853 94.0104 672.853 93.2216C672.853 92.4261 672.997 91.7318 673.285 91.1385C673.577 90.5452 673.981 90.0845 674.498 89.7564C675.019 89.4283 675.623 89.2642 676.313 89.2642C677.002 89.2642 677.605 89.4283 678.123 89.7564C678.643 90.0845 679.047 90.5452 679.336 91.1385C679.627 91.7318 679.773 92.4261 679.773 93.2216C679.773 94.0104 679.627 94.6998 679.336 95.2898C679.047 95.8797 678.643 96.3388 678.123 96.6669C677.605 96.995 677.002 97.1591 676.313 97.1591ZM676.313 96.1051C676.837 96.1051 677.267 95.9709 677.605 95.7024C677.944 95.4339 678.194 95.081 678.356 94.6435C678.519 94.206 678.6 93.732 678.6 93.2216C678.6 92.7112 678.519 92.2356 678.356 91.7947C678.194 91.3539 677.944 90.9976 677.605 90.7259C677.267 90.4541 676.837 90.3182 676.313 90.3182C675.789 90.3182 675.358 90.4541 675.02 90.7259C674.682 90.9976 674.432 91.3539 674.27 91.7947C674.107 92.2356 674.026 92.7112 674.026 93.2216C674.026 93.732 674.107 94.206 674.27 94.6435C674.432 95.081 674.682 95.4339 675.02 95.7024C675.358 95.9709 675.789 96.1051 676.313 96.1051Z" fill="white" fill-opacity="0.95"/>
<path d="M427.196 54.776H422.332V50.856H427.756V49.48H420.7V61H422.332V56.136H427.196V54.776ZM431.221 51.288V49.48H429.493V51.288H431.221ZM431.125 61V52.68H429.589V61H431.125ZM434.906 49.48H433.37V61H434.906V49.48ZM440.863 59.768C440.399 59.88 440.191 59.896 439.919 59.896C439.343 59.896 439.039 59.592 439.039 58.968V53.992H440.831V52.68H439.039V50.68H437.599L437.503 52.68H436.271V53.992H437.503V58.936C437.503 60.312 438.255 61.24 439.727 61.24C440.111 61.24 440.447 61.192 440.863 61.08V59.768ZM447.893 58.6C447.653 59.368 446.885 59.944 445.877 59.944C444.485 59.944 443.445 59.096 443.317 57.176H449.653C449.653 53.816 448.053 52.44 445.749 52.44C443.445 52.44 441.749 53.944 441.749 56.84C441.749 59.768 443.461 61.24 445.829 61.24C447.829 61.24 449.141 60.12 449.557 58.6H447.893ZM443.381 55.96C443.621 54.424 444.549 53.672 445.781 53.672C447.061 53.672 447.973 54.408 448.085 55.96H443.381ZM453.031 61V56.824C453.031 54.728 453.959 53.944 455.015 53.944C455.383 53.944 455.687 54.008 455.991 54.088V52.552C455.799 52.504 455.479 52.44 455.079 52.44C454.151 52.44 453.431 52.952 452.967 53.912L452.759 52.68H451.495V61H453.031ZM461.435 57.768C461.755 59.88 463.627 61.24 466.107 61.24C468.971 61.24 470.603 59.608 470.603 57.816C470.603 56.04 469.691 55.096 466.491 54.2C463.851 53.464 463.467 53.032 463.467 52.136C463.467 51.272 464.203 50.584 465.963 50.584C467.691 50.584 468.667 51.24 468.843 52.36H470.523C470.235 50.408 468.427 49.24 465.963 49.24C463.323 49.24 461.835 50.52 461.835 52.2C461.835 53.784 462.667 54.728 465.339 55.464C468.443 56.312 468.971 56.808 468.971 57.88C468.971 58.968 467.995 59.896 466.075 59.896C464.363 59.896 463.307 59.064 463.115 57.768H461.435ZM478.112 58.6C477.872 59.368 477.104 59.944 476.096 59.944C474.704 59.944 473.664 59.096 473.536 57.176H479.872C479.872 53.816 478.272 52.44 475.968 52.44C473.664 52.44 471.968 53.944 471.968 56.84C471.968 59.768 473.68 61.24 476.048 61.24C478.048 61.24 479.36 60.12 479.776 58.6H478.112ZM473.6 55.96C473.84 54.424 474.768 53.672 476 53.672C477.28 53.672 478.192 54.408 478.304 55.96H473.6ZM483.25 61V56.824C483.25 54.728 484.178 53.944 485.234 53.944C485.602 53.944 485.906 54.008 486.21 54.088V52.552C486.018 52.504 485.698 52.44 485.298 52.44C484.37 52.44 483.65 52.952 483.186 53.912L482.978 52.68H481.714V61H483.25ZM492.761 52.68L490.441 59.752L488.137 52.68H486.457L489.353 61H491.433L494.361 52.68H492.761ZM497.268 51.288V49.48H495.54V51.288H497.268ZM497.172 61V52.68H495.636V61H497.172ZM504.841 58.328C504.681 59.368 503.929 59.944 502.905 59.944C501.609 59.944 500.569 58.984 500.569 56.952C500.569 54.744 501.529 53.736 502.889 53.736C503.865 53.736 504.553 54.232 504.761 55.144H506.457C506.185 53.448 504.745 52.44 502.857 52.44C500.505 52.44 498.937 54.12 498.937 56.904C498.937 59.72 500.665 61.24 502.873 61.24C504.937 61.24 506.297 59.944 506.521 58.328H504.841ZM513.94 58.6C513.7 59.368 512.932 59.944 511.924 59.944C510.532 59.944 509.492 59.096 509.364 57.176H515.7C515.7 53.816 514.1 52.44 511.796 52.44C509.492 52.44 507.796 53.944 507.796 56.84C507.796 59.768 509.508 61.24 511.876 61.24C513.876 61.24 515.188 60.12 515.604 58.6H513.94ZM509.428 55.96C509.668 54.424 510.596 53.672 511.828 53.672C513.108 53.672 514.02 54.408 514.132 55.96H509.428Z" fill="white" fill-opacity="0.95"/>
<rect x="419" y="164.5" width="66" height="23" rx="3.5" fill="#102B2A"/>
<rect x="419" y="164.5" width="66" height="23" rx="3.5" stroke="#3CC29A"/>
<path d="M430.217 181H428.924L432.663 170.818H433.936L437.674 181H436.382L433.339 172.429H433.26L430.217 181ZM430.694 177.023H435.904V178.116H430.694V177.023ZM444.51 175.074L443.456 175.372C443.39 175.196 443.292 175.026 443.163 174.86C443.037 174.691 442.865 174.552 442.646 174.442C442.427 174.333 442.147 174.278 441.806 174.278C441.338 174.278 440.949 174.386 440.637 174.602C440.329 174.814 440.175 175.084 440.175 175.412C440.175 175.704 440.281 175.934 440.493 176.103C440.705 176.272 441.037 176.413 441.488 176.526L442.621 176.804C443.304 176.97 443.813 177.223 444.147 177.565C444.482 177.903 444.65 178.339 444.65 178.872C444.65 179.31 444.524 179.701 444.272 180.045C444.023 180.39 443.675 180.662 443.228 180.861C442.78 181.06 442.26 181.159 441.667 181.159C440.888 181.159 440.243 180.99 439.733 180.652C439.222 180.314 438.899 179.82 438.763 179.17L439.877 178.892C439.983 179.303 440.183 179.611 440.478 179.817C440.777 180.022 441.166 180.125 441.647 180.125C442.194 180.125 442.628 180.009 442.949 179.777C443.274 179.542 443.436 179.26 443.436 178.932C443.436 178.667 443.344 178.445 443.158 178.266C442.972 178.083 442.687 177.947 442.303 177.858L441.03 177.56C440.331 177.394 439.817 177.137 439.489 176.789C439.164 176.438 439.002 175.999 439.002 175.472C439.002 175.041 439.123 174.66 439.365 174.328C439.61 173.997 439.943 173.737 440.364 173.548C440.788 173.359 441.269 173.264 441.806 173.264C442.561 173.264 443.155 173.43 443.586 173.761C444.02 174.093 444.328 174.53 444.51 175.074ZM449.498 184.023C448.931 184.023 448.444 183.95 448.036 183.804C447.629 183.661 447.289 183.473 447.017 183.237C446.749 183.005 446.535 182.757 446.376 182.491L447.311 181.835C447.417 181.974 447.551 182.134 447.713 182.312C447.876 182.495 448.098 182.652 448.379 182.785C448.664 182.921 449.037 182.989 449.498 182.989C450.115 182.989 450.623 182.839 451.024 182.541C451.425 182.243 451.626 181.776 451.626 181.139V179.588H451.526C451.44 179.727 451.318 179.9 451.159 180.105C451.003 180.307 450.777 180.488 450.482 180.647C450.191 180.803 449.796 180.881 449.299 180.881C448.683 180.881 448.129 180.735 447.639 180.443C447.151 180.152 446.765 179.727 446.48 179.17C446.199 178.614 446.058 177.937 446.058 177.142C446.058 176.36 446.195 175.679 446.47 175.099C446.745 174.515 447.128 174.065 447.619 173.746C448.109 173.425 448.676 173.264 449.319 173.264C449.816 173.264 450.211 173.347 450.502 173.513C450.797 173.675 451.023 173.861 451.178 174.07C451.338 174.275 451.46 174.444 451.546 174.577H451.666V173.364H452.799V181.219C452.799 181.875 452.65 182.409 452.352 182.82C452.057 183.234 451.659 183.537 451.159 183.729C450.661 183.925 450.108 184.023 449.498 184.023ZM449.458 179.827C449.929 179.827 450.327 179.719 450.651 179.504C450.976 179.288 451.223 178.978 451.392 178.574C451.561 178.17 451.646 177.686 451.646 177.122C451.646 176.572 451.563 176.086 451.397 175.665C451.231 175.245 450.986 174.915 450.661 174.676C450.337 174.437 449.936 174.318 449.458 174.318C448.961 174.318 448.547 174.444 448.215 174.696C447.887 174.948 447.64 175.286 447.475 175.71C447.312 176.134 447.231 176.605 447.231 177.122C447.231 177.652 447.314 178.121 447.48 178.529C447.649 178.933 447.897 179.252 448.225 179.484C448.557 179.712 448.968 179.827 449.458 179.827ZM457.194 181.179C456.71 181.179 456.271 181.088 455.877 180.906C455.482 180.72 455.169 180.453 454.937 180.105C454.705 179.754 454.589 179.33 454.589 178.832C454.589 178.395 454.675 178.04 454.847 177.768C455.02 177.493 455.25 177.278 455.539 177.122C455.827 176.966 456.145 176.85 456.493 176.774C456.844 176.695 457.197 176.632 457.552 176.585C458.016 176.526 458.392 176.481 458.681 176.451C458.972 176.418 459.184 176.363 459.317 176.287C459.453 176.211 459.521 176.078 459.521 175.889V175.849C459.521 175.359 459.387 174.978 459.118 174.706C458.853 174.434 458.45 174.298 457.91 174.298C457.35 174.298 456.911 174.421 456.593 174.666C456.274 174.911 456.051 175.173 455.921 175.452L454.808 175.054C455.007 174.59 455.272 174.229 455.603 173.97C455.938 173.708 456.302 173.526 456.697 173.423C457.095 173.317 457.486 173.264 457.87 173.264C458.115 173.264 458.397 173.294 458.715 173.354C459.037 173.41 459.347 173.528 459.645 173.707C459.947 173.886 460.197 174.156 460.396 174.517C460.595 174.878 460.694 175.362 460.694 175.969V181H459.521V179.966H459.461C459.382 180.132 459.249 180.309 459.063 180.498C458.878 180.687 458.631 180.848 458.323 180.98C458.014 181.113 457.638 181.179 457.194 181.179ZM457.373 180.125C457.837 180.125 458.228 180.034 458.546 179.852C458.868 179.669 459.11 179.434 459.272 179.146C459.438 178.857 459.521 178.554 459.521 178.236V177.162C459.471 177.222 459.362 177.276 459.193 177.326C459.027 177.372 458.835 177.414 458.616 177.45C458.401 177.483 458.19 177.513 457.985 177.54C457.782 177.563 457.618 177.583 457.492 177.599C457.187 177.639 456.902 177.704 456.637 177.793C456.375 177.879 456.163 178.01 456.001 178.186C455.842 178.358 455.762 178.594 455.762 178.892C455.762 179.3 455.913 179.608 456.215 179.817C456.52 180.022 456.906 180.125 457.373 180.125ZM462.836 181V173.364H463.969V174.517H464.049C464.188 174.139 464.44 173.833 464.804 173.597C465.169 173.362 465.58 173.244 466.037 173.244C466.123 173.244 466.231 173.246 466.36 173.249C466.49 173.253 466.587 173.258 466.654 173.264V174.457C466.614 174.447 466.523 174.433 466.38 174.413C466.241 174.389 466.094 174.378 465.938 174.378C465.567 174.378 465.235 174.456 464.944 174.612C464.655 174.764 464.426 174.976 464.257 175.248C464.092 175.516 464.009 175.823 464.009 176.168V181H462.836ZM470.696 181.159C470.059 181.159 469.498 180.998 469.01 180.677C468.523 180.352 468.142 179.895 467.867 179.305C467.592 178.711 467.454 178.01 467.454 177.202C467.454 176.4 467.592 175.704 467.867 175.114C468.142 174.524 468.525 174.068 469.015 173.746C469.506 173.425 470.073 173.264 470.716 173.264C471.213 173.264 471.605 173.347 471.894 173.513C472.185 173.675 472.408 173.861 472.56 174.07C472.716 174.275 472.837 174.444 472.923 174.577H473.022V170.818H474.196V181H473.062V179.827H472.923C472.837 179.966 472.714 180.142 472.555 180.354C472.396 180.562 472.169 180.75 471.874 180.915C471.579 181.078 471.186 181.159 470.696 181.159ZM470.855 180.105C471.325 180.105 471.723 179.982 472.048 179.737C472.373 179.489 472.62 179.146 472.789 178.708C472.958 178.267 473.042 177.759 473.042 177.182C473.042 176.612 472.959 176.113 472.794 175.685C472.628 175.254 472.383 174.92 472.058 174.681C471.733 174.439 471.332 174.318 470.855 174.318C470.358 174.318 469.943 174.446 469.612 174.701C469.284 174.953 469.037 175.296 468.871 175.73C468.709 176.161 468.627 176.645 468.627 177.182C468.627 177.725 468.71 178.219 468.876 178.663C469.045 179.104 469.294 179.455 469.622 179.717C469.953 179.976 470.364 180.105 470.855 180.105Z" fill="white" fill-opacity="0.95"/>
<rect x="494" y="164.5" width="126" height="23" rx="3.5" fill="#102B2A"/>
<rect x="494" y="164.5" width="126" height="23" rx="3.5" stroke="#30C9B0"/>
<path d="M509.1 180.1C509.034 180.1 508.969 180.087 508.908 180.062C508.847 180.037 508.792 179.999 508.746 179.953L505.146 176.335C505.099 176.288 505.063 176.233 505.038 176.172C505.013 176.112 505 176.047 505 175.981C505 175.915 505.014 175.85 505.039 175.79C505.064 175.729 505.101 175.674 505.148 175.628C505.194 175.582 505.249 175.545 505.31 175.52C505.371 175.495 505.436 175.482 505.502 175.482C505.567 175.483 505.632 175.496 505.693 175.521C505.753 175.546 505.808 175.583 505.855 175.63L509.127 178.918L517.175 172.021C517.276 171.935 517.406 171.892 517.539 171.902C517.671 171.912 517.793 171.975 517.88 172.075C517.966 172.176 518.009 172.307 517.998 172.439C517.988 172.571 517.926 172.693 517.825 172.78L509.425 179.979C509.335 180.057 509.22 180.1 509.1 180.1Z" fill="white" fill-opacity="0.95"/>
<path d="M525.386 181H524.093L527.832 170.818H529.105L532.843 181H531.551L528.508 172.429H528.429L525.386 181ZM525.863 177.023H531.073V178.116H525.863V177.023ZM539.557 173.364L536.734 181H535.54L532.717 173.364H533.989L536.097 179.449H536.177L538.285 173.364H539.557ZM544.034 181.159C543.299 181.159 542.664 180.997 542.13 180.672C541.6 180.344 541.191 179.886 540.902 179.3C540.617 178.71 540.475 178.024 540.475 177.241C540.475 176.459 540.617 175.77 540.902 175.173C541.191 174.573 541.592 174.106 542.105 173.771C542.622 173.433 543.226 173.264 543.915 173.264C544.313 173.264 544.706 173.33 545.093 173.463C545.481 173.596 545.834 173.811 546.152 174.109C546.47 174.404 546.724 174.795 546.913 175.283C547.102 175.77 547.196 176.37 547.196 177.082V177.58H541.31V176.565H546.003C546.003 176.134 545.917 175.75 545.745 175.412C545.576 175.074 545.334 174.807 545.019 174.612C544.707 174.416 544.339 174.318 543.915 174.318C543.448 174.318 543.043 174.434 542.702 174.666C542.364 174.895 542.104 175.193 541.921 175.561C541.739 175.929 541.648 176.323 541.648 176.744V177.42C541.648 177.997 541.747 178.486 541.946 178.887C542.148 179.285 542.429 179.588 542.786 179.797C543.144 180.002 543.56 180.105 544.034 180.105C544.343 180.105 544.621 180.062 544.87 179.976C545.121 179.886 545.339 179.754 545.521 179.578C545.703 179.399 545.844 179.177 545.943 178.912L547.077 179.23C546.958 179.615 546.757 179.953 546.475 180.244C546.194 180.533 545.846 180.758 545.431 180.92C545.017 181.08 544.551 181.159 544.034 181.159ZM550.154 176.406V181H548.981V173.364H550.115V174.557H550.214C550.393 174.169 550.665 173.857 551.029 173.622C551.394 173.384 551.865 173.264 552.441 173.264C552.958 173.264 553.411 173.37 553.799 173.582C554.186 173.791 554.488 174.109 554.703 174.537C554.919 174.961 555.027 175.498 555.027 176.148V181H553.853V176.227C553.853 175.627 553.697 175.16 553.386 174.825C553.074 174.487 552.647 174.318 552.103 174.318C551.729 174.318 551.394 174.399 551.099 174.562C550.807 174.724 550.577 174.961 550.408 175.273C550.239 175.584 550.154 175.962 550.154 176.406ZM560.253 184.023C559.686 184.023 559.199 183.95 558.791 183.804C558.384 183.661 558.044 183.473 557.772 183.237C557.504 183.005 557.29 182.757 557.131 182.491L558.065 181.835C558.171 181.974 558.306 182.134 558.468 182.312C558.631 182.495 558.853 182.652 559.134 182.785C559.419 182.921 559.792 182.989 560.253 182.989C560.869 182.989 561.378 182.839 561.779 182.541C562.18 182.243 562.381 181.776 562.381 181.139V179.588H562.281C562.195 179.727 562.073 179.9 561.913 180.105C561.758 180.307 561.532 180.488 561.237 180.647C560.946 180.803 560.551 180.881 560.054 180.881C559.438 180.881 558.884 180.735 558.394 180.443C557.906 180.152 557.52 179.727 557.235 179.17C556.953 178.614 556.813 177.937 556.813 177.142C556.813 176.36 556.95 175.679 557.225 175.099C557.5 174.515 557.883 174.065 558.374 173.746C558.864 173.425 559.431 173.264 560.074 173.264C560.571 173.264 560.966 173.347 561.257 173.513C561.552 173.675 561.778 173.861 561.933 174.07C562.092 174.275 562.215 174.444 562.301 174.577H562.421V173.364H563.554V181.219C563.554 181.875 563.405 182.409 563.107 182.82C562.812 183.234 562.414 183.537 561.913 183.729C561.416 183.925 560.863 184.023 560.253 184.023ZM560.213 179.827C560.684 179.827 561.082 179.719 561.406 179.504C561.731 179.288 561.978 178.978 562.147 178.574C562.316 178.17 562.401 177.686 562.401 177.122C562.401 176.572 562.318 176.086 562.152 175.665C561.986 175.245 561.741 174.915 561.416 174.676C561.091 174.437 560.69 174.318 560.213 174.318C559.716 174.318 559.302 174.444 558.97 174.696C558.642 174.948 558.395 175.286 558.229 175.71C558.067 176.134 557.986 176.605 557.986 177.122C557.986 177.652 558.069 178.121 558.234 178.529C558.403 178.933 558.652 179.252 558.98 179.484C559.312 179.712 559.723 179.827 560.213 179.827ZM568.903 181.159C568.168 181.159 567.533 180.997 566.999 180.672C566.469 180.344 566.06 179.886 565.771 179.3C565.486 178.71 565.344 178.024 565.344 177.241C565.344 176.459 565.486 175.77 565.771 175.173C566.06 174.573 566.461 174.106 566.975 173.771C567.492 173.433 568.095 173.264 568.784 173.264C569.182 173.264 569.575 173.33 569.962 173.463C570.35 173.596 570.703 173.811 571.021 174.109C571.34 174.404 571.593 174.795 571.782 175.283C571.971 175.77 572.065 176.37 572.065 177.082V177.58H566.179V176.565H570.872C570.872 176.134 570.786 175.75 570.614 175.412C570.445 175.074 570.203 174.807 569.888 174.612C569.576 174.416 569.208 174.318 568.784 174.318C568.317 174.318 567.912 174.434 567.571 174.666C567.233 174.895 566.973 175.193 566.791 175.561C566.608 175.929 566.517 176.323 566.517 176.744V177.42C566.517 177.997 566.617 178.486 566.815 178.887C567.018 179.285 567.298 179.588 567.656 179.797C568.014 180.002 568.43 180.105 568.903 180.105C569.212 180.105 569.49 180.062 569.739 179.976C569.991 179.886 570.208 179.754 570.39 179.578C570.572 179.399 570.713 179.177 570.813 178.912L571.946 179.23C571.827 179.615 571.626 179.953 571.345 180.244C571.063 180.533 570.715 180.758 570.301 180.92C569.886 181.08 569.421 181.159 568.903 181.159ZM573.85 181V173.364H574.984V174.517H575.063C575.203 174.139 575.454 173.833 575.819 173.597C576.184 173.362 576.595 173.244 577.052 173.244C577.138 173.244 577.246 173.246 577.375 173.249C577.504 173.253 577.602 173.258 577.668 173.264V174.457C577.629 174.447 577.537 174.433 577.395 174.413C577.256 174.389 577.108 174.378 576.953 174.378C576.581 174.378 576.25 174.456 575.958 174.612C575.67 174.764 575.441 174.976 575.272 175.248C575.106 175.516 575.024 175.823 575.024 176.168V181H573.85ZM584.468 175.074L583.414 175.372C583.348 175.196 583.25 175.026 583.121 174.86C582.995 174.691 582.823 174.552 582.604 174.442C582.385 174.333 582.105 174.278 581.764 174.278C581.296 174.278 580.907 174.386 580.595 174.602C580.287 174.814 580.133 175.084 580.133 175.412C580.133 175.704 580.239 175.934 580.451 176.103C580.663 176.272 580.995 176.413 581.446 176.526L582.579 176.804C583.262 176.97 583.771 177.223 584.105 177.565C584.44 177.903 584.608 178.339 584.608 178.872C584.608 179.31 584.482 179.701 584.23 180.045C583.981 180.39 583.633 180.662 583.186 180.861C582.738 181.06 582.218 181.159 581.625 181.159C580.846 181.159 580.201 180.99 579.691 180.652C579.18 180.314 578.857 179.82 578.721 179.17L579.835 178.892C579.941 179.303 580.141 179.611 580.436 179.817C580.735 180.022 581.124 180.125 581.605 180.125C582.152 180.125 582.586 180.009 582.907 179.777C583.232 179.542 583.394 179.26 583.394 178.932C583.394 178.667 583.302 178.445 583.116 178.266C582.93 178.083 582.645 177.947 582.261 177.858L580.988 177.56C580.289 177.394 579.775 177.137 579.447 176.789C579.122 176.438 578.96 175.999 578.96 175.472C578.96 175.041 579.081 174.66 579.323 174.328C579.568 173.997 579.901 173.737 580.322 173.548C580.746 173.359 581.227 173.264 581.764 173.264C582.519 173.264 583.113 173.43 583.544 173.761C583.978 174.093 584.286 174.53 584.468 175.074ZM590.47 181V170.818H591.703V175.352H597.132V170.818H598.365V181H597.132V176.446H591.703V181H590.47ZM604.532 177.818H605.885L607.018 179.31L607.316 179.707L609.007 181.955H607.655L606.541 180.463L606.263 180.085L604.532 177.818ZM609.424 175.909C609.424 176.983 609.231 177.911 608.843 178.693C608.455 179.475 607.923 180.079 607.247 180.503C606.571 180.927 605.799 181.139 604.93 181.139C604.062 181.139 603.29 180.927 602.613 180.503C601.937 180.079 601.405 179.475 601.017 178.693C600.63 177.911 600.436 176.983 600.436 175.909C600.436 174.835 600.63 173.907 601.017 173.125C601.405 172.343 601.937 171.74 602.613 171.315C603.29 170.891 604.062 170.679 604.93 170.679C605.799 170.679 606.571 170.891 607.247 171.315C607.923 171.74 608.455 172.343 608.843 173.125C609.231 173.907 609.424 174.835 609.424 175.909ZM608.231 175.909C608.231 175.027 608.084 174.283 607.789 173.677C607.497 173.07 607.101 172.611 606.601 172.3C606.103 171.988 605.547 171.832 604.93 171.832C604.314 171.832 603.755 171.988 603.255 172.3C602.758 172.611 602.361 173.07 602.066 173.677C601.775 174.283 601.629 175.027 601.629 175.909C601.629 176.791 601.775 177.535 602.066 178.141C602.361 178.748 602.758 179.207 603.255 179.518C603.755 179.83 604.314 179.986 604.93 179.986C605.547 179.986 606.103 179.83 606.601 179.518C607.101 179.207 607.497 178.748 607.789 178.141C608.084 177.535 608.231 176.791 608.231 175.909Z" fill="white" fill-opacity="0.95"/>
<rect x="629" y="164.5" width="90" height="23" rx="3.5" fill="#102B2A"/>
<rect x="629" y="164.5" width="90" height="23" rx="3.5" stroke="#3CC29A"/>
<path d="M645.329 173.364C645.27 172.86 645.028 172.469 644.604 172.19C644.179 171.912 643.659 171.773 643.043 171.773C642.592 171.773 642.197 171.846 641.859 171.991C641.525 172.137 641.263 172.338 641.074 172.593C640.888 172.848 640.795 173.138 640.795 173.463C640.795 173.735 640.86 173.969 640.989 174.164C641.122 174.356 641.291 174.517 641.496 174.646C641.702 174.772 641.917 174.877 642.143 174.96C642.368 175.039 642.575 175.104 642.764 175.153L643.798 175.432C644.063 175.501 644.358 175.598 644.683 175.72C645.011 175.843 645.324 176.01 645.623 176.222C645.924 176.431 646.173 176.7 646.369 177.028C646.564 177.356 646.662 177.759 646.662 178.236C646.662 178.786 646.518 179.283 646.229 179.727C645.944 180.171 645.527 180.524 644.976 180.786C644.43 181.048 643.765 181.179 642.983 181.179C642.254 181.179 641.622 181.061 641.089 180.826C640.558 180.591 640.141 180.263 639.836 179.842C639.534 179.421 639.364 178.932 639.324 178.375H640.597C640.63 178.759 640.759 179.078 640.984 179.33C641.213 179.578 641.501 179.764 641.849 179.886C642.201 180.006 642.579 180.065 642.983 180.065C643.454 180.065 643.876 179.989 644.251 179.837C644.625 179.681 644.922 179.465 645.141 179.19C645.359 178.912 645.469 178.587 645.469 178.216C645.469 177.878 645.374 177.603 645.185 177.391C644.996 177.179 644.748 177.006 644.44 176.874C644.131 176.741 643.798 176.625 643.44 176.526L642.187 176.168C641.392 175.939 640.762 175.612 640.298 175.188C639.834 174.764 639.602 174.209 639.602 173.523C639.602 172.953 639.756 172.455 640.065 172.031C640.376 171.604 640.794 171.272 641.317 171.037C641.844 170.798 642.433 170.679 643.082 170.679C643.739 170.679 644.322 170.797 644.832 171.032C645.343 171.264 645.747 171.582 646.045 171.987C646.347 172.391 646.506 172.85 646.523 173.364H645.329ZM651.851 173.364V174.358H647.894V173.364H651.851ZM649.047 171.534H650.22V178.812C650.22 179.144 650.268 179.393 650.364 179.558C650.464 179.721 650.59 179.83 650.742 179.886C650.898 179.939 651.062 179.966 651.234 179.966C651.364 179.966 651.47 179.959 651.553 179.946C651.636 179.929 651.702 179.916 651.752 179.906L651.99 180.96C651.911 180.99 651.8 181.02 651.657 181.05C651.515 181.083 651.334 181.099 651.115 181.099C650.784 181.099 650.459 181.028 650.141 180.886C649.826 180.743 649.564 180.526 649.355 180.234C649.15 179.943 649.047 179.575 649.047 179.131V171.534ZM655.863 181.179C655.379 181.179 654.94 181.088 654.546 180.906C654.151 180.72 653.838 180.453 653.606 180.105C653.374 179.754 653.258 179.33 653.258 178.832C653.258 178.395 653.344 178.04 653.516 177.768C653.689 177.493 653.919 177.278 654.207 177.122C654.496 176.966 654.814 176.85 655.162 176.774C655.513 176.695 655.866 176.632 656.221 176.585C656.685 176.526 657.061 176.481 657.35 176.451C657.641 176.418 657.853 176.363 657.986 176.287C658.122 176.211 658.19 176.078 658.19 175.889V175.849C658.19 175.359 658.055 174.978 657.787 174.706C657.522 174.434 657.119 174.298 656.579 174.298C656.019 174.298 655.58 174.421 655.261 174.666C654.943 174.911 654.72 175.173 654.59 175.452L653.477 175.054C653.676 174.59 653.941 174.229 654.272 173.97C654.607 173.708 654.971 173.526 655.366 173.423C655.764 173.317 656.155 173.264 656.539 173.264C656.784 173.264 657.066 173.294 657.384 173.354C657.706 173.41 658.016 173.528 658.314 173.707C658.616 173.886 658.866 174.156 659.065 174.517C659.264 174.878 659.363 175.362 659.363 175.969V181H658.19V179.966H658.13C658.051 180.132 657.918 180.309 657.732 180.498C657.547 180.687 657.3 180.848 656.992 180.98C656.683 181.113 656.307 181.179 655.863 181.179ZM656.042 180.125C656.506 180.125 656.897 180.034 657.215 179.852C657.537 179.669 657.779 179.434 657.941 179.146C658.107 178.857 658.19 178.554 658.19 178.236V177.162C658.14 177.222 658.031 177.276 657.862 177.326C657.696 177.372 657.504 177.414 657.285 177.45C657.069 177.483 656.859 177.513 656.653 177.54C656.451 177.563 656.287 177.583 656.161 177.599C655.856 177.639 655.571 177.704 655.306 177.793C655.044 177.879 654.832 178.01 654.67 178.186C654.511 178.358 654.431 178.594 654.431 178.892C654.431 179.3 654.582 179.608 654.884 179.817C655.189 180.022 655.575 180.125 656.042 180.125ZM661.505 181V173.364H662.638V174.517H662.718C662.857 174.139 663.109 173.833 663.473 173.597C663.838 173.362 664.249 173.244 664.706 173.244C664.792 173.244 664.9 173.246 665.029 173.249C665.159 173.253 665.256 173.258 665.323 173.264V174.457C665.283 174.447 665.192 174.433 665.049 174.413C664.91 174.389 664.763 174.378 664.607 174.378C664.236 174.378 663.904 174.456 663.612 174.612C663.324 174.764 663.095 174.976 662.926 175.248C662.761 175.516 662.678 175.823 662.678 176.168V181H661.505ZM667.807 178.216L667.787 176.764H668.026L671.367 173.364H672.819L669.259 176.963H669.16L667.807 178.216ZM666.714 181V170.818H667.887V181H666.714ZM671.566 181L668.583 177.222L669.418 176.406L673.057 181H671.566ZM686.619 174H685.386C685.313 173.645 685.185 173.334 685.003 173.065C684.824 172.797 684.605 172.571 684.347 172.389C684.091 172.204 683.808 172.064 683.496 171.972C683.185 171.879 682.86 171.832 682.522 171.832C681.905 171.832 681.347 171.988 680.847 172.3C680.349 172.611 679.953 173.07 679.658 173.677C679.367 174.283 679.221 175.027 679.221 175.909C679.221 176.791 679.367 177.535 679.658 178.141C679.953 178.748 680.349 179.207 680.847 179.518C681.347 179.83 681.905 179.986 682.522 179.986C682.86 179.986 683.185 179.939 683.496 179.847C683.808 179.754 684.091 179.616 684.347 179.434C684.605 179.248 684.824 179.021 685.003 178.753C685.185 178.481 685.313 178.17 685.386 177.818H686.619C686.526 178.339 686.357 178.804 686.111 179.215C685.866 179.626 685.561 179.976 685.197 180.264C684.832 180.549 684.423 180.766 683.969 180.915C683.518 181.065 683.036 181.139 682.522 181.139C681.654 181.139 680.881 180.927 680.205 180.503C679.529 180.079 678.997 179.475 678.609 178.693C678.222 177.911 678.028 176.983 678.028 175.909C678.028 174.835 678.222 173.907 678.609 173.125C678.997 172.343 679.529 171.74 680.205 171.315C680.881 170.891 681.654 170.679 682.522 170.679C683.036 170.679 683.518 170.754 683.969 170.903C684.423 171.052 684.832 171.271 685.197 171.559C685.561 171.844 685.866 172.192 686.111 172.603C686.357 173.011 686.526 173.476 686.619 174ZM691.554 181.159C690.865 181.159 690.26 180.995 689.739 180.667C689.222 180.339 688.818 179.88 688.526 179.29C688.238 178.7 688.094 178.01 688.094 177.222C688.094 176.426 688.238 175.732 688.526 175.138C688.818 174.545 689.222 174.085 689.739 173.756C690.26 173.428 690.865 173.264 691.554 173.264C692.243 173.264 692.847 173.428 693.364 173.756C693.884 174.085 694.288 174.545 694.577 175.138C694.868 175.732 695.014 176.426 695.014 177.222C695.014 178.01 694.868 178.7 694.577 179.29C694.288 179.88 693.884 180.339 693.364 180.667C692.847 180.995 692.243 181.159 691.554 181.159ZM691.554 180.105C692.078 180.105 692.509 179.971 692.847 179.702C693.185 179.434 693.435 179.081 693.597 178.643C693.76 178.206 693.841 177.732 693.841 177.222C693.841 176.711 693.76 176.236 693.597 175.795C693.435 175.354 693.185 174.998 692.847 174.726C692.509 174.454 692.078 174.318 691.554 174.318C691.03 174.318 690.6 174.454 690.261 174.726C689.923 174.998 689.673 175.354 689.511 175.795C689.348 176.236 689.267 176.711 689.267 177.222C689.267 177.732 689.348 178.206 689.511 178.643C689.673 179.081 689.923 179.434 690.261 179.702C690.6 179.971 691.03 180.105 691.554 180.105ZM696.805 181V173.364H697.939V174.517H698.018C698.158 174.139 698.409 173.833 698.774 173.597C699.139 173.362 699.55 173.244 700.007 173.244C700.093 173.244 700.201 173.246 700.33 173.249C700.459 173.253 700.557 173.258 700.623 173.264V174.457C700.584 174.447 700.493 174.433 700.35 174.413C700.211 174.389 700.063 174.378 699.908 174.378C699.536 174.378 699.205 174.456 698.913 174.612C698.625 174.764 698.396 174.976 698.227 175.248C698.061 175.516 697.979 175.823 697.979 176.168V181H696.805ZM702.014 183.864V173.364H703.148V174.577H703.287C703.373 174.444 703.493 174.275 703.645 174.07C703.801 173.861 704.023 173.675 704.311 173.513C704.603 173.347 704.997 173.264 705.494 173.264C706.137 173.264 706.704 173.425 707.195 173.746C707.685 174.068 708.068 174.524 708.343 175.114C708.618 175.704 708.756 176.4 708.756 177.202C708.756 178.01 708.618 178.711 708.343 179.305C708.068 179.895 707.687 180.352 707.2 180.677C706.712 180.998 706.151 181.159 705.514 181.159C705.024 181.159 704.631 181.078 704.336 180.915C704.041 180.75 703.814 180.562 703.655 180.354C703.496 180.142 703.373 179.966 703.287 179.827H703.188V183.864H702.014ZM703.168 177.182C703.168 177.759 703.252 178.267 703.421 178.708C703.59 179.146 703.837 179.489 704.162 179.737C704.487 179.982 704.885 180.105 705.355 180.105C705.846 180.105 706.255 179.976 706.583 179.717C706.915 179.455 707.163 179.104 707.329 178.663C707.498 178.219 707.582 177.725 707.582 177.182C707.582 176.645 707.5 176.161 707.334 175.73C707.171 175.296 706.925 174.953 706.593 174.701C706.265 174.446 705.852 174.318 705.355 174.318C704.878 174.318 704.477 174.439 704.152 174.681C703.827 174.92 703.582 175.254 703.416 175.685C703.251 176.113 703.168 176.612 703.168 177.182Z" fill="white" fill-opacity="0.95"/>
<rect x="419" y="196.5" width="112" height="23" rx="3.5" fill="#102B2A"/>
<rect x="419" y="196.5" width="112" height="23" rx="3.5" stroke="#30C9B0"/>
<path d="M434.1 212.1C434.034 212.1 433.969 212.087 433.908 212.062C433.847 212.037 433.792 211.999 433.746 211.953L430.146 208.335C430.099 208.288 430.063 208.233 430.038 208.172C430.013 208.112 430 208.047 430 207.981C430 207.915 430.014 207.85 430.039 207.79C430.064 207.729 430.101 207.674 430.148 207.628C430.194 207.582 430.249 207.545 430.31 207.52C430.371 207.495 430.436 207.482 430.502 207.482C430.567 207.483 430.632 207.496 430.693 207.521C430.753 207.546 430.808 207.583 430.855 207.63L434.127 210.918L442.175 204.021C442.276 203.935 442.406 203.892 442.539 203.902C442.671 203.912 442.793 203.975 442.88 204.075C442.966 204.176 443.009 204.307 442.998 204.439C442.988 204.571 442.926 204.693 442.825 204.78L434.425 211.979C434.335 212.057 434.22 212.1 434.1 212.1Z" fill="white" fill-opacity="0.95"/>
<path d="M455.728 205.364C455.668 204.86 455.426 204.469 455.002 204.19C454.578 203.912 454.057 203.773 453.441 203.773C452.99 203.773 452.596 203.846 452.258 203.991C451.923 204.137 451.661 204.338 451.472 204.593C451.287 204.848 451.194 205.138 451.194 205.463C451.194 205.735 451.258 205.969 451.388 206.164C451.52 206.356 451.689 206.517 451.895 206.646C452.1 206.772 452.316 206.877 452.541 206.96C452.766 207.039 452.974 207.104 453.163 207.153L454.197 207.432C454.462 207.501 454.757 207.598 455.082 207.72C455.41 207.843 455.723 208.01 456.021 208.222C456.323 208.431 456.571 208.7 456.767 209.028C456.963 209.356 457.06 209.759 457.06 210.236C457.06 210.786 456.916 211.283 456.628 211.727C456.343 212.171 455.925 212.524 455.375 212.786C454.828 213.048 454.164 213.179 453.381 213.179C452.652 213.179 452.021 213.061 451.487 212.826C450.957 212.591 450.539 212.263 450.234 211.842C449.933 211.421 449.762 210.932 449.722 210.375H450.995C451.028 210.759 451.157 211.078 451.383 211.33C451.611 211.578 451.9 211.764 452.248 211.886C452.599 212.006 452.977 212.065 453.381 212.065C453.852 212.065 454.275 211.989 454.649 211.837C455.024 211.681 455.32 211.465 455.539 211.19C455.758 210.912 455.867 210.587 455.867 210.216C455.867 209.878 455.773 209.603 455.584 209.391C455.395 209.179 455.146 209.006 454.838 208.874C454.53 208.741 454.197 208.625 453.839 208.526L452.586 208.168C451.79 207.939 451.161 207.612 450.697 207.188C450.233 206.764 450.001 206.209 450.001 205.523C450.001 204.953 450.155 204.455 450.463 204.031C450.775 203.604 451.192 203.272 451.716 203.037C452.243 202.798 452.831 202.679 453.481 202.679C454.137 202.679 454.72 202.797 455.231 203.032C455.741 203.264 456.146 203.582 456.444 203.987C456.745 204.391 456.905 204.85 456.921 205.364H455.728ZM462.249 205.364V206.358H458.292V205.364H462.249ZM459.445 203.534H460.619V210.812C460.619 211.144 460.667 211.393 460.763 211.558C460.862 211.721 460.988 211.83 461.141 211.886C461.296 211.939 461.461 211.966 461.633 211.966C461.762 211.966 461.868 211.959 461.951 211.946C462.034 211.929 462.1 211.916 462.15 211.906L462.389 212.96C462.309 212.99 462.198 213.02 462.055 213.05C461.913 213.083 461.732 213.099 461.514 213.099C461.182 213.099 460.857 213.028 460.539 212.886C460.224 212.743 459.962 212.526 459.754 212.234C459.548 211.943 459.445 211.575 459.445 211.131V203.534ZM464.869 213.08C464.624 213.08 464.414 212.992 464.238 212.816C464.062 212.64 463.975 212.43 463.975 212.185C463.975 211.939 464.062 211.729 464.238 211.553C464.414 211.378 464.624 211.29 464.869 211.29C465.115 211.29 465.325 211.378 465.501 211.553C465.676 211.729 465.764 211.939 465.764 212.185C465.764 212.347 465.723 212.496 465.64 212.632C465.56 212.768 465.453 212.877 465.317 212.96C465.184 213.04 465.035 213.08 464.869 213.08ZM480.16 206H478.927C478.854 205.645 478.726 205.334 478.544 205.065C478.365 204.797 478.146 204.571 477.888 204.389C477.632 204.204 477.349 204.064 477.037 203.972C476.726 203.879 476.401 203.832 476.063 203.832C475.446 203.832 474.888 203.988 474.388 204.3C473.89 204.611 473.494 205.07 473.199 205.677C472.908 206.283 472.762 207.027 472.762 207.909C472.762 208.791 472.908 209.535 473.199 210.141C473.494 210.748 473.89 211.207 474.388 211.518C474.888 211.83 475.446 211.986 476.063 211.986C476.401 211.986 476.726 211.939 477.037 211.847C477.349 211.754 477.632 211.616 477.888 211.434C478.146 211.248 478.365 211.021 478.544 210.753C478.726 210.481 478.854 210.17 478.927 209.818H480.16C480.067 210.339 479.898 210.804 479.652 211.215C479.407 211.626 479.102 211.976 478.738 212.264C478.373 212.549 477.964 212.766 477.51 212.915C477.059 213.065 476.577 213.139 476.063 213.139C475.195 213.139 474.422 212.927 473.746 212.503C473.07 212.079 472.538 211.475 472.15 210.693C471.763 209.911 471.569 208.983 471.569 207.909C471.569 206.835 471.763 205.907 472.15 205.125C472.538 204.343 473.07 203.74 473.746 203.315C474.422 202.891 475.195 202.679 476.063 202.679C476.577 202.679 477.059 202.754 477.51 202.903C477.964 203.052 478.373 203.271 478.738 203.559C479.102 203.844 479.407 204.192 479.652 204.603C479.898 205.011 480.067 205.476 480.16 206ZM483.166 208.406V213H481.993V202.818H483.166V206.557H483.266C483.445 206.162 483.713 205.849 484.071 205.617C484.432 205.382 484.913 205.264 485.513 205.264C486.033 205.264 486.489 205.369 486.88 205.577C487.271 205.783 487.574 206.099 487.79 206.527C488.008 206.951 488.118 207.491 488.118 208.148V213H486.945V208.227C486.945 207.621 486.787 207.152 486.472 206.82C486.161 206.486 485.728 206.318 485.175 206.318C484.79 206.318 484.445 206.399 484.141 206.562C483.839 206.724 483.6 206.961 483.425 207.273C483.252 207.584 483.166 207.962 483.166 208.406ZM492.511 213.179C492.028 213.179 491.588 213.088 491.194 212.906C490.8 212.72 490.486 212.453 490.254 212.105C490.022 211.754 489.906 211.33 489.906 210.832C489.906 210.395 489.993 210.04 490.165 209.768C490.337 209.493 490.568 209.278 490.856 209.122C491.144 208.966 491.462 208.85 491.81 208.774C492.162 208.695 492.515 208.632 492.869 208.585C493.333 208.526 493.71 208.481 493.998 208.451C494.29 208.418 494.502 208.363 494.634 208.287C494.77 208.211 494.838 208.078 494.838 207.889V207.849C494.838 207.359 494.704 206.978 494.435 206.706C494.17 206.434 493.768 206.298 493.227 206.298C492.667 206.298 492.228 206.421 491.91 206.666C491.592 206.911 491.368 207.173 491.239 207.452L490.125 207.054C490.324 206.59 490.589 206.229 490.921 205.97C491.255 205.708 491.62 205.526 492.014 205.423C492.412 205.317 492.803 205.264 493.188 205.264C493.433 205.264 493.715 205.294 494.033 205.354C494.354 205.41 494.664 205.528 494.962 205.707C495.264 205.886 495.514 206.156 495.713 206.517C495.912 206.878 496.011 207.362 496.011 207.969V213H494.838V211.966H494.778C494.699 212.132 494.566 212.309 494.381 212.498C494.195 212.687 493.948 212.848 493.64 212.98C493.332 213.113 492.956 213.179 492.511 213.179ZM492.69 212.125C493.154 212.125 493.546 212.034 493.864 211.852C494.185 211.669 494.427 211.434 494.59 211.146C494.755 210.857 494.838 210.554 494.838 210.236V209.162C494.788 209.222 494.679 209.276 494.51 209.326C494.344 209.372 494.152 209.414 493.933 209.45C493.718 209.483 493.507 209.513 493.302 209.54C493.1 209.563 492.936 209.583 492.81 209.599C492.505 209.639 492.22 209.704 491.955 209.793C491.693 209.879 491.481 210.01 491.318 210.186C491.159 210.358 491.08 210.594 491.08 210.892C491.08 211.3 491.23 211.608 491.532 211.817C491.837 212.022 492.223 212.125 492.69 212.125ZM498.153 213V205.364H499.286V206.517H499.366C499.505 206.139 499.757 205.833 500.122 205.597C500.486 205.362 500.897 205.244 501.355 205.244C501.441 205.244 501.549 205.246 501.678 205.249C501.807 205.253 501.905 205.258 501.971 205.264V206.457C501.931 206.447 501.84 206.433 501.698 206.413C501.559 206.389 501.411 206.378 501.255 206.378C500.884 206.378 500.553 206.456 500.261 206.612C499.973 206.764 499.744 206.976 499.575 207.248C499.409 207.516 499.326 207.823 499.326 208.168V213H498.153ZM504.535 202.818V213H503.362V202.818H504.535ZM509.886 213.159C509.15 213.159 508.515 212.997 507.982 212.672C507.451 212.344 507.042 211.886 506.754 211.3C506.469 210.71 506.326 210.024 506.326 209.241C506.326 208.459 506.469 207.77 506.754 207.173C507.042 206.573 507.443 206.106 507.957 205.771C508.474 205.433 509.077 205.264 509.767 205.264C510.164 205.264 510.557 205.33 510.945 205.463C511.333 205.596 511.686 205.811 512.004 206.109C512.322 206.404 512.576 206.795 512.764 207.283C512.953 207.77 513.048 208.37 513.048 209.082V209.58H507.161V208.565H511.855C511.855 208.134 511.768 207.75 511.596 207.412C511.427 207.074 511.185 206.807 510.87 206.612C510.559 206.416 510.191 206.318 509.767 206.318C509.299 206.318 508.895 206.434 508.554 206.666C508.215 206.895 507.955 207.193 507.773 207.561C507.591 207.929 507.5 208.323 507.5 208.744V209.42C507.5 209.997 507.599 210.486 507.798 210.887C508 211.285 508.28 211.588 508.638 211.797C508.996 212.002 509.412 212.105 509.886 212.105C510.194 212.105 510.473 212.062 510.721 211.976C510.973 211.886 511.19 211.754 511.372 211.578C511.555 211.399 511.696 211.177 511.795 210.912L512.929 211.23C512.809 211.615 512.609 211.953 512.327 212.244C512.045 212.533 511.697 212.758 511.283 212.92C510.869 213.08 510.403 213.159 509.886 213.159ZM520.242 207.074L519.188 207.372C519.121 207.196 519.024 207.026 518.894 206.86C518.768 206.691 518.596 206.552 518.377 206.442C518.159 206.333 517.879 206.278 517.537 206.278C517.07 206.278 516.68 206.386 516.369 206.602C516.061 206.814 515.907 207.084 515.907 207.412C515.907 207.704 516.013 207.934 516.225 208.103C516.437 208.272 516.768 208.413 517.219 208.526L518.353 208.804C519.035 208.97 519.544 209.223 519.879 209.565C520.214 209.903 520.381 210.339 520.381 210.872C520.381 211.31 520.255 211.701 520.003 212.045C519.755 212.39 519.407 212.662 518.959 212.861C518.512 213.06 517.991 213.159 517.398 213.159C516.619 213.159 515.974 212.99 515.464 212.652C514.954 212.314 514.63 211.82 514.495 211.17L515.608 210.892C515.714 211.303 515.915 211.611 516.21 211.817C516.508 212.022 516.898 212.125 517.378 212.125C517.925 212.125 518.359 212.009 518.681 211.777C519.005 211.542 519.168 211.26 519.168 210.932C519.168 210.667 519.075 210.445 518.889 210.266C518.704 210.083 518.419 209.947 518.034 209.858L516.762 209.56C516.062 209.394 515.549 209.137 515.22 208.789C514.896 208.438 514.733 207.999 514.733 207.472C514.733 207.041 514.854 206.66 515.096 206.328C515.341 205.997 515.675 205.737 516.095 205.548C516.52 205.359 517 205.264 517.537 205.264C518.293 205.264 518.886 205.43 519.317 205.761C519.751 206.093 520.059 206.53 520.242 207.074Z" fill="white" fill-opacity="0.95"/>
<rect x="540" y="196.5" width="104" height="23" rx="3.5" fill="#102B2A"/>
<rect x="540" y="196.5" width="104" height="23" rx="3.5" stroke="#3CC29A"/>
<path d="M550.738 213V212.105L556.226 203.912H550.678V202.818H557.698V203.713L552.209 211.906H557.758V213H550.738ZM562.868 213.159C562.133 213.159 561.498 212.997 560.964 212.672C560.434 212.344 560.025 211.886 559.736 211.3C559.451 210.71 559.309 210.024 559.309 209.241C559.309 208.459 559.451 207.77 559.736 207.173C560.025 206.573 560.426 206.106 560.939 205.771C561.456 205.433 562.06 205.264 562.749 205.264C563.147 205.264 563.54 205.33 563.927 205.463C564.315 205.596 564.668 205.811 564.986 206.109C565.304 206.404 565.558 206.795 565.747 207.283C565.936 207.77 566.03 208.37 566.03 209.082V209.58H560.144V208.565H564.837C564.837 208.134 564.751 207.75 564.579 207.412C564.41 207.074 564.168 206.807 563.853 206.612C563.541 206.416 563.173 206.318 562.749 206.318C562.282 206.318 561.877 206.434 561.536 206.666C561.198 206.895 560.938 207.193 560.755 207.561C560.573 207.929 560.482 208.323 560.482 208.744V209.42C560.482 209.997 560.581 210.486 560.78 210.887C560.982 211.285 561.263 211.588 561.62 211.797C561.978 212.002 562.394 212.105 562.868 212.105C563.177 212.105 563.455 212.062 563.704 211.976C563.955 211.886 564.173 211.754 564.355 211.578C564.537 211.399 564.678 211.177 564.777 210.912L565.911 211.23C565.792 211.615 565.591 211.953 565.309 212.244C565.028 212.533 564.68 212.758 564.265 212.92C563.851 213.08 563.385 213.159 562.868 213.159ZM568.988 208.406V213H567.815V205.364H568.949V206.557H569.048C569.227 206.169 569.499 205.857 569.863 205.622C570.228 205.384 570.699 205.264 571.275 205.264C571.792 205.264 572.245 205.37 572.633 205.582C573.02 205.791 573.322 206.109 573.537 206.537C573.753 206.961 573.861 207.498 573.861 208.148V213H572.687V208.227C572.687 207.627 572.531 207.16 572.22 206.825C571.908 206.487 571.481 206.318 570.937 206.318C570.563 206.318 570.228 206.399 569.933 206.562C569.641 206.724 569.411 206.961 569.242 207.273C569.073 207.584 568.988 207.962 568.988 208.406ZM581.951 213L579.166 202.818H580.419L582.547 211.111H582.647L584.814 202.818H586.206L588.374 211.111H588.473L590.601 202.818H591.854L589.07 213H587.797L585.55 204.886H585.47L583.223 213H581.951ZM594.404 208.406V213H593.231V202.818H594.404V206.557H594.504C594.683 206.162 594.951 205.849 595.309 205.617C595.67 205.382 596.151 205.264 596.751 205.264C597.271 205.264 597.727 205.369 598.118 205.577C598.509 205.783 598.813 206.099 599.028 206.527C599.247 206.951 599.356 207.491 599.356 208.148V213H598.183V208.227C598.183 207.621 598.025 207.152 597.71 206.82C597.399 206.486 596.966 206.318 596.413 206.318C596.028 206.318 595.684 206.399 595.379 206.562C595.077 206.724 594.839 206.961 594.663 207.273C594.491 207.584 594.404 207.962 594.404 208.406ZM604.605 213.159C603.915 213.159 603.311 212.995 602.79 212.667C602.273 212.339 601.869 211.88 601.577 211.29C601.289 210.7 601.145 210.01 601.145 209.222C601.145 208.426 601.289 207.732 601.577 207.138C601.869 206.545 602.273 206.085 602.79 205.756C603.311 205.428 603.915 205.264 604.605 205.264C605.294 205.264 605.897 205.428 606.415 205.756C606.935 206.085 607.339 206.545 607.628 207.138C607.919 207.732 608.065 208.426 608.065 209.222C608.065 210.01 607.919 210.7 607.628 211.29C607.339 211.88 606.935 212.339 606.415 212.667C605.897 212.995 605.294 213.159 604.605 213.159ZM604.605 212.105C605.129 212.105 605.559 211.971 605.897 211.702C606.236 211.434 606.486 211.081 606.648 210.643C606.811 210.206 606.892 209.732 606.892 209.222C606.892 208.711 606.811 208.236 606.648 207.795C606.486 207.354 606.236 206.998 605.897 206.726C605.559 206.454 605.129 206.318 604.605 206.318C604.081 206.318 603.65 206.454 603.312 206.726C602.974 206.998 602.724 207.354 602.562 207.795C602.399 208.236 602.318 208.711 602.318 209.222C602.318 209.732 602.399 210.206 602.562 210.643C602.724 211.081 602.974 211.434 603.312 211.702C603.65 211.971 604.081 212.105 604.605 212.105ZM610.015 213V202.818H611.188V206.577H611.288C611.374 206.444 611.493 206.275 611.646 206.07C611.802 205.861 612.024 205.675 612.312 205.513C612.604 205.347 612.998 205.264 613.495 205.264C614.138 205.264 614.705 205.425 615.196 205.746C615.686 206.068 616.069 206.524 616.344 207.114C616.619 207.704 616.757 208.4 616.757 209.202C616.757 210.01 616.619 210.711 616.344 211.305C616.069 211.895 615.688 212.352 615.201 212.677C614.713 212.998 614.152 213.159 613.515 213.159C613.025 213.159 612.632 213.078 612.337 212.915C612.042 212.75 611.815 212.562 611.656 212.354C611.497 212.142 611.374 211.966 611.288 211.827H611.149V213H610.015ZM611.169 209.182C611.169 209.759 611.253 210.267 611.422 210.708C611.591 211.146 611.838 211.489 612.163 211.737C612.488 211.982 612.885 212.105 613.356 212.105C613.847 212.105 614.256 211.976 614.584 211.717C614.916 211.455 615.164 211.104 615.33 210.663C615.499 210.219 615.583 209.725 615.583 209.182C615.583 208.645 615.501 208.161 615.335 207.73C615.172 207.296 614.925 206.953 614.594 206.701C614.266 206.446 613.853 206.318 613.356 206.318C612.879 206.318 612.478 206.439 612.153 206.681C611.828 206.92 611.583 207.254 611.417 207.685C611.251 208.113 611.169 208.612 611.169 209.182ZM621.753 213.159C621.017 213.159 620.383 212.997 619.849 212.672C619.319 212.344 618.909 211.886 618.621 211.3C618.336 210.71 618.193 210.024 618.193 209.241C618.193 208.459 618.336 207.77 618.621 207.173C618.909 206.573 619.31 206.106 619.824 205.771C620.341 205.433 620.944 205.264 621.634 205.264C622.032 205.264 622.424 205.33 622.812 205.463C623.2 205.596 623.553 205.811 623.871 206.109C624.189 206.404 624.443 206.795 624.632 207.283C624.821 207.77 624.915 208.37 624.915 209.082V209.58H619.029V208.565H623.722C623.722 208.134 623.636 207.75 623.463 207.412C623.294 207.074 623.052 206.807 622.737 206.612C622.426 206.416 622.058 206.318 621.634 206.318C621.166 206.318 620.762 206.434 620.421 206.666C620.083 206.895 619.822 207.193 619.64 207.561C619.458 207.929 619.367 208.323 619.367 208.744V209.42C619.367 209.997 619.466 210.486 619.665 210.887C619.867 211.285 620.147 211.588 620.505 211.797C620.863 212.002 621.279 212.105 621.753 212.105C622.061 212.105 622.34 212.062 622.588 211.976C622.84 211.886 623.057 211.754 623.24 211.578C623.422 211.399 623.563 211.177 623.662 210.912L624.796 211.23C624.676 211.615 624.476 211.953 624.194 212.244C623.912 212.533 623.564 212.758 623.15 212.92C622.736 213.08 622.27 213.159 621.753 213.159ZM626.7 213V205.364H627.833V206.517H627.913C628.052 206.139 628.304 205.833 628.669 205.597C629.033 205.362 629.444 205.244 629.902 205.244C629.988 205.244 630.095 205.246 630.225 205.249C630.354 205.253 630.452 205.258 630.518 205.264V206.457C630.478 206.447 630.387 206.433 630.245 206.413C630.105 206.389 629.958 206.378 629.802 206.378C629.431 206.378 629.099 206.456 628.808 206.612C628.519 206.764 628.291 206.976 628.122 207.248C627.956 207.516 627.873 207.823 627.873 208.168V213H626.7ZM631.909 213V205.364H633.082V213H631.909ZM632.505 204.091C632.277 204.091 632.08 204.013 631.914 203.857C631.751 203.701 631.67 203.514 631.67 203.295C631.67 203.077 631.751 202.889 631.914 202.734C632.08 202.578 632.277 202.5 632.505 202.5C632.734 202.5 632.93 202.578 633.092 202.734C633.258 202.889 633.341 203.077 633.341 203.295C633.341 203.514 633.258 203.701 633.092 203.857C632.93 204.013 632.734 204.091 632.505 204.091Z" fill="white" fill-opacity="0.95"/>
<rect x="653" y="196.5" width="103" height="23" rx="3.5" fill="#12423F"/>
<rect x="653" y="196.5" width="103" height="23" rx="3.5" stroke="#30C9B0"/>
<path d="M668.1 212.1C668.034 212.1 667.969 212.087 667.908 212.062C667.847 212.037 667.792 211.999 667.746 211.953L664.146 208.335C664.099 208.288 664.063 208.233 664.038 208.172C664.013 208.112 664 208.047 664 207.981C664 207.915 664.014 207.85 664.039 207.79C664.064 207.729 664.101 207.674 664.148 207.628C664.194 207.582 664.249 207.545 664.31 207.52C664.371 207.495 664.436 207.482 664.502 207.482C664.567 207.483 664.632 207.496 664.693 207.521C664.753 207.546 664.808 207.583 664.855 207.63L668.127 210.918L676.175 204.021C676.276 203.935 676.406 203.892 676.539 203.902C676.671 203.912 676.793 203.975 676.88 204.075C676.966 204.176 677.009 204.307 676.998 204.439C676.988 204.571 676.926 204.693 676.825 204.78L668.425 211.979C668.335 212.057 668.22 212.1 668.1 212.1Z" fill="white" fill-opacity="0.95"/>
<path d="M684.076 213V202.818H685.309V207.352H690.738V202.818H691.971V213H690.738V208.446H685.309V213H684.076ZM696.527 213.179C696.043 213.179 695.604 213.088 695.21 212.906C694.815 212.72 694.502 212.453 694.27 212.105C694.038 211.754 693.922 211.33 693.922 210.832C693.922 210.395 694.008 210.04 694.18 209.768C694.353 209.493 694.583 209.278 694.872 209.122C695.16 208.966 695.478 208.85 695.826 208.774C696.177 208.695 696.53 208.632 696.885 208.585C697.349 208.526 697.725 208.481 698.014 208.451C698.305 208.418 698.517 208.363 698.65 208.287C698.786 208.211 698.854 208.078 698.854 207.889V207.849C698.854 207.359 698.72 206.978 698.451 206.706C698.186 206.434 697.783 206.298 697.243 206.298C696.683 206.298 696.244 206.421 695.926 206.666C695.607 206.911 695.384 207.173 695.254 207.452L694.141 207.054C694.34 206.59 694.605 206.229 694.936 205.97C695.271 205.708 695.636 205.526 696.03 205.423C696.428 205.317 696.819 205.264 697.203 205.264C697.448 205.264 697.73 205.294 698.048 205.354C698.37 205.41 698.68 205.528 698.978 205.707C699.28 205.886 699.53 206.156 699.729 206.517C699.928 206.878 700.027 207.362 700.027 207.969V213H698.854V211.966H698.794C698.715 212.132 698.582 212.309 698.396 212.498C698.211 212.687 697.964 212.848 697.656 212.98C697.347 213.113 696.971 213.179 696.527 213.179ZM696.706 212.125C697.17 212.125 697.561 212.034 697.879 211.852C698.201 211.669 698.443 211.434 698.605 211.146C698.771 210.857 698.854 210.554 698.854 210.236V209.162C698.804 209.222 698.695 209.276 698.526 209.326C698.36 209.372 698.168 209.414 697.949 209.45C697.734 209.483 697.523 209.513 697.318 209.54C697.115 209.563 696.951 209.583 696.825 209.599C696.52 209.639 696.235 209.704 695.97 209.793C695.708 209.879 695.496 210.01 695.334 210.186C695.175 210.358 695.095 210.594 695.095 210.892C695.095 211.3 695.246 211.608 695.548 211.817C695.853 212.022 696.239 212.125 696.706 212.125ZM703.342 202.818V213H702.169V202.818H703.342ZM708.891 205.364V206.358H704.775V205.364H708.891ZM706.008 213V204.31C706.008 203.872 706.111 203.508 706.316 203.216C706.522 202.924 706.788 202.705 707.117 202.56C707.445 202.414 707.791 202.341 708.156 202.341C708.444 202.341 708.679 202.364 708.862 202.411C709.044 202.457 709.18 202.5 709.269 202.54L708.931 203.554C708.872 203.534 708.789 203.509 708.683 203.479C708.58 203.45 708.444 203.435 708.275 203.435C707.887 203.435 707.607 203.532 707.435 203.728C707.266 203.924 707.181 204.21 707.181 204.588V213H706.008ZM712.266 213L709.939 205.364H711.172L712.823 211.21H712.902L714.533 205.364H715.786L717.397 211.19H717.476L719.127 205.364H720.36L718.033 213H716.88L715.209 207.134H715.09L713.419 213H712.266ZM724.753 213.159C724.064 213.159 723.459 212.995 722.939 212.667C722.422 212.339 722.017 211.88 721.726 211.29C721.437 210.7 721.293 210.01 721.293 209.222C721.293 208.426 721.437 207.732 721.726 207.138C722.017 206.545 722.422 206.085 722.939 205.756C723.459 205.428 724.064 205.264 724.753 205.264C725.443 205.264 726.046 205.428 726.563 205.756C727.083 206.085 727.488 206.545 727.776 207.138C728.068 207.732 728.214 208.426 728.214 209.222C728.214 210.01 728.068 210.7 727.776 211.29C727.488 211.88 727.083 212.339 726.563 212.667C726.046 212.995 725.443 213.159 724.753 213.159ZM724.753 212.105C725.277 212.105 725.708 211.971 726.046 211.702C726.384 211.434 726.634 211.081 726.797 210.643C726.959 210.206 727.04 209.732 727.04 209.222C727.04 208.711 726.959 208.236 726.797 207.795C726.634 207.354 726.384 206.998 726.046 206.726C725.708 206.454 725.277 206.318 724.753 206.318C724.23 206.318 723.799 206.454 723.461 206.726C723.123 206.998 722.872 207.354 722.71 207.795C722.548 208.236 722.466 208.711 722.466 209.222C722.466 209.732 722.548 210.206 722.71 210.643C722.872 211.081 723.123 211.434 723.461 211.702C723.799 211.971 724.23 212.105 724.753 212.105ZM730.005 213V205.364H731.138V206.517H731.218C731.357 206.139 731.609 205.833 731.973 205.597C732.338 205.362 732.749 205.244 733.206 205.244C733.292 205.244 733.4 205.246 733.529 205.249C733.659 205.253 733.756 205.258 733.823 205.264V206.457C733.783 206.447 733.692 206.433 733.549 206.413C733.41 206.389 733.263 206.378 733.107 206.378C732.736 206.378 732.404 206.456 732.112 206.612C731.824 206.764 731.595 206.976 731.426 207.248C731.261 207.516 731.178 207.823 731.178 208.168V213H730.005ZM736.387 202.818V213H735.214V202.818H736.387ZM741.419 213.159C740.783 213.159 740.221 212.998 739.734 212.677C739.247 212.352 738.866 211.895 738.59 211.305C738.315 210.711 738.178 210.01 738.178 209.202C738.178 208.4 738.315 207.704 738.59 207.114C738.866 206.524 739.248 206.068 739.739 205.746C740.229 205.425 740.796 205.264 741.439 205.264C741.936 205.264 742.329 205.347 742.617 205.513C742.909 205.675 743.131 205.861 743.284 206.07C743.439 206.275 743.56 206.444 743.647 206.577H743.746V202.818H744.919V213H743.786V211.827H743.647C743.56 211.966 743.438 212.142 743.279 212.354C743.12 212.562 742.893 212.75 742.598 212.915C742.303 213.078 741.91 213.159 741.419 213.159ZM741.578 212.105C742.049 212.105 742.447 211.982 742.772 211.737C743.096 211.489 743.343 211.146 743.512 210.708C743.681 210.267 743.766 209.759 743.766 209.182C743.766 208.612 743.683 208.113 743.517 207.685C743.352 207.254 743.106 206.92 742.782 206.681C742.457 206.439 742.056 206.318 741.578 206.318C741.081 206.318 740.667 206.446 740.335 206.701C740.007 206.953 739.76 207.296 739.595 207.73C739.432 208.161 739.351 208.645 739.351 209.182C739.351 209.725 739.434 210.219 739.6 210.663C739.769 211.104 740.017 211.455 740.345 211.717C740.677 211.976 741.088 212.105 741.578 212.105Z" fill="white" fill-opacity="0.95"/>
<g filter="url(#filter0_d_1027_58803)">
<path d="M705.77 228.28C705.49 227.92 705.14 227.19 704.53 226.28C704.18 225.78 703.32 224.83 703.06 224.34C702.873 224.042 702.818 223.68 702.91 223.34C703.067 222.694 703.68 222.266 704.34 222.34C704.851 222.443 705.32 222.693 705.69 223.06C705.948 223.303 706.186 223.567 706.4 223.85C706.56 224.05 706.6 224.13 706.78 224.36C706.96 224.59 707.08 224.82 706.99 224.48C706.92 223.98 706.8 223.14 706.63 222.39C706.5 221.82 706.47 221.73 706.35 221.3C706.23 220.87 706.16 220.51 706.03 220.02C705.911 219.538 705.818 219.051 705.75 218.56C705.624 217.932 705.716 217.279 706.01 216.71C706.36 216.381 706.872 216.295 707.31 216.49C707.751 216.815 708.079 217.27 708.25 217.79C708.512 218.43 708.687 219.103 708.77 219.79C708.93 220.79 709.24 222.25 709.25 222.55C709.25 222.18 709.18 221.4 709.25 221.05C709.319 220.685 709.573 220.382 709.92 220.25C710.218 220.159 710.533 220.138 710.84 220.19C711.15 220.255 711.425 220.433 711.61 220.69C711.842 221.273 711.97 221.893 711.99 222.52C712.017 221.971 712.111 221.426 712.27 220.9C712.437 220.664 712.681 220.495 712.96 220.42C713.291 220.359 713.63 220.359 713.96 220.42C714.231 220.511 714.468 220.681 714.64 220.91C714.852 221.44 714.98 222 715.02 222.57C715.02 222.71 715.09 222.18 715.31 221.83C715.424 221.491 715.711 221.238 716.062 221.167C716.413 221.097 716.775 221.218 717.012 221.487C717.249 221.756 717.324 222.131 717.21 222.47C717.21 223.12 717.21 223.09 717.21 223.53C717.21 223.97 717.21 224.36 717.21 224.73C717.174 225.315 717.093 225.897 716.97 226.47C716.796 226.977 716.554 227.458 716.25 227.9C715.765 228.44 715.363 229.05 715.06 229.71C714.985 230.038 714.951 230.374 714.96 230.71C714.959 231.021 714.999 231.33 715.08 231.63C714.671 231.673 714.259 231.673 713.85 231.63C713.46 231.57 712.98 230.79 712.85 230.55C712.786 230.421 712.654 230.34 712.51 230.34C712.366 230.34 712.234 230.421 712.17 230.55C711.95 230.93 711.46 231.62 711.12 231.66C710.45 231.74 709.07 231.66 707.98 231.66C707.98 231.66 708.16 230.66 707.75 230.3C707.34 229.94 706.92 229.52 706.61 229.24L705.77 228.28Z" fill="white"/>
<path d="M705.77 228.28C705.49 227.92 705.14 227.19 704.53 226.28C704.18 225.78 703.32 224.83 703.06 224.34C702.873 224.042 702.818 223.68 702.91 223.34C703.067 222.694 703.68 222.266 704.34 222.34C704.851 222.443 705.32 222.693 705.69 223.06C705.948 223.303 706.186 223.567 706.4 223.85C706.56 224.05 706.6 224.13 706.78 224.36C706.96 224.59 707.08 224.82 706.99 224.48C706.92 223.98 706.8 223.14 706.63 222.39C706.5 221.82 706.47 221.73 706.35 221.3C706.23 220.87 706.16 220.51 706.03 220.02C705.911 219.538 705.818 219.051 705.75 218.56C705.624 217.932 705.716 217.279 706.01 216.71C706.36 216.381 706.872 216.295 707.31 216.49C707.751 216.815 708.079 217.27 708.25 217.79C708.512 218.43 708.687 219.103 708.77 219.79C708.93 220.79 709.24 222.25 709.25 222.55C709.25 222.18 709.18 221.4 709.25 221.05C709.319 220.685 709.573 220.382 709.92 220.25C710.218 220.159 710.533 220.138 710.84 220.19C711.15 220.255 711.425 220.433 711.61 220.69C711.842 221.273 711.97 221.893 711.99 222.52C712.017 221.971 712.111 221.426 712.27 220.9C712.437 220.664 712.681 220.495 712.96 220.42C713.291 220.359 713.63 220.359 713.96 220.42C714.231 220.511 714.468 220.681 714.64 220.91C714.852 221.44 714.98 222 715.02 222.57C715.02 222.71 715.09 222.18 715.31 221.83C715.424 221.491 715.711 221.238 716.062 221.167C716.413 221.097 716.775 221.218 717.012 221.487C717.249 221.756 717.324 222.131 717.21 222.47C717.21 223.12 717.21 223.09 717.21 223.53C717.21 223.97 717.21 224.36 717.21 224.73C717.174 225.315 717.093 225.897 716.97 226.47C716.796 226.977 716.554 227.458 716.25 227.9C715.765 228.44 715.363 229.05 715.06 229.71C714.985 230.038 714.951 230.374 714.96 230.71C714.959 231.021 714.999 231.33 715.08 231.63C714.671 231.673 714.259 231.673 713.85 231.63C713.46 231.57 712.98 230.79 712.85 230.55C712.786 230.421 712.654 230.34 712.51 230.34C712.366 230.34 712.234 230.421 712.17 230.55C711.95 230.93 711.46 231.62 711.12 231.66C710.45 231.74 709.07 231.66 707.98 231.66C707.98 231.66 708.16 230.66 707.75 230.3C707.34 229.94 706.92 229.52 706.61 229.24L705.77 228.28Z" stroke="black" stroke-width="0.75"/>
</g>
<path d="M714.75 228.826V225.374C714.75 224.89 714.357 224.5 713.875 224.5C713.393 224.5 713 224.89 713 225.374V228.826C713 229.31 713.393 229.7 713.875 229.7C714.357 229.7 714.75 229.31 714.75 228.826Z" fill="black" stroke="white"/>
<path d="M712.77 228.822L712.75 225.368C712.747 224.884 712.351 224.497 711.87 224.5C711.389 224.503 710.997 224.894 711 225.378L711.02 228.832C711.023 229.316 711.419 229.703 711.9 229.7C712.381 229.697 712.773 229.306 712.77 228.822Z" fill="black" stroke="white"/>
<path d="M709 225.382L709.02 228.828C709.023 229.31 709.415 229.703 709.9 229.7C710.386 229.697 710.773 229.3 710.77 228.818L710.75 225.372C710.747 224.89 710.355 224.497 709.87 224.5C709.384 224.503 708.997 224.9 709 225.382Z" fill="black" stroke="white"/>
<path d="M420.06 141.768C420.38 143.88 422.252 145.24 424.732 145.24C427.596 145.24 429.228 143.608 429.228 141.816C429.228 140.04 428.316 139.096 425.116 138.2C422.476 137.464 422.092 137.032 422.092 136.136C422.092 135.272 422.828 134.584 424.588 134.584C426.316 134.584 427.292 135.24 427.468 136.36H429.148C428.86 134.408 427.052 133.24 424.588 133.24C421.948 133.24 420.46 134.52 420.46 136.2C420.46 137.784 421.292 138.728 423.964 139.464C427.068 140.312 427.596 140.808 427.596 141.88C427.596 142.968 426.62 143.896 424.7 143.896C422.988 143.896 421.932 143.064 421.74 141.768H420.06ZM436.737 142.6C436.497 143.368 435.729 143.944 434.721 143.944C433.329 143.944 432.289 143.096 432.161 141.176H438.497C438.497 137.816 436.897 136.44 434.593 136.44C432.289 136.44 430.593 137.944 430.593 140.84C430.593 143.768 432.305 145.24 434.673 145.24C436.673 145.24 437.985 144.12 438.401 142.6H436.737ZM432.225 139.96C432.465 138.424 433.393 137.672 434.625 137.672C435.905 137.672 436.817 138.408 436.929 139.96H432.225ZM441.875 133.48H440.339V145H441.875V133.48ZM449.784 142.6C449.544 143.368 448.776 143.944 447.768 143.944C446.376 143.944 445.336 143.096 445.208 141.176H451.544C451.544 137.816 449.944 136.44 447.64 136.44C445.336 136.44 443.64 137.944 443.64 140.84C443.64 143.768 445.352 145.24 447.72 145.24C449.72 145.24 451.032 144.12 451.448 142.6H449.784ZM445.272 139.96C445.512 138.424 446.44 137.672 447.672 137.672C448.952 137.672 449.864 138.408 449.976 139.96H445.272ZM458.81 142.328C458.65 143.368 457.898 143.944 456.874 143.944C455.578 143.944 454.538 142.984 454.538 140.952C454.538 138.744 455.498 137.736 456.858 137.736C457.834 137.736 458.522 138.232 458.73 139.144H460.426C460.154 137.448 458.714 136.44 456.826 136.44C454.474 136.44 452.906 138.12 452.906 140.904C452.906 143.72 454.634 145.24 456.842 145.24C458.906 145.24 460.266 143.944 460.49 142.328H458.81ZM465.957 143.768C465.493 143.88 465.285 143.896 465.013 143.896C464.437 143.896 464.133 143.592 464.133 142.968V137.992H465.925V136.68H464.133V134.68H462.693L462.597 136.68H461.365V137.992H462.597V142.936C462.597 144.312 463.349 145.24 464.821 145.24C465.205 145.24 465.541 145.192 465.957 145.08V143.768ZM472.278 133.48V145H479.35V143.544H473.926V133.48H472.278ZM480.39 140.84C480.39 143.72 482.166 145.24 484.486 145.24C486.838 145.24 488.598 143.752 488.598 140.84C488.598 137.848 486.774 136.44 484.502 136.44C482.246 136.44 480.39 137.848 480.39 140.84ZM481.99 140.84C481.99 138.76 483.078 137.688 484.502 137.688C485.926 137.688 486.998 138.728 486.998 140.84C486.998 142.904 485.99 143.992 484.518 143.992C483.078 143.992 481.99 142.904 481.99 140.84ZM495.778 142.328C495.618 143.368 494.866 143.944 493.842 143.944C492.546 143.944 491.506 142.984 491.506 140.952C491.506 138.744 492.466 137.736 493.826 137.736C494.802 137.736 495.49 138.232 495.698 139.144H497.394C497.122 137.448 495.682 136.44 493.794 136.44C491.442 136.44 489.874 138.12 489.874 140.904C489.874 143.72 491.602 145.24 493.81 145.24C495.874 145.24 497.234 143.944 497.458 142.328H495.778ZM500.526 139C500.638 138.168 501.214 137.656 502.398 137.656C503.63 137.656 504.318 138.232 504.318 139.256V139.672L501.886 140.088C499.646 140.472 498.734 141.336 498.734 142.856C498.734 144.216 499.79 145.24 501.614 145.24C502.958 145.24 503.854 144.632 504.398 143.864L504.59 145H505.854V139.32C505.854 137.608 504.638 136.44 502.462 136.44C500.382 136.44 499.054 137.464 498.894 139H500.526ZM504.318 140.872V141.944C504.318 143.08 503.15 143.944 501.982 143.944C500.942 143.944 500.366 143.496 500.366 142.696C500.366 141.96 500.766 141.496 502.254 141.24L504.318 140.872ZM511.723 143.768C511.259 143.88 511.051 143.896 510.779 143.896C510.203 143.896 509.899 143.592 509.899 142.968V137.992H511.691V136.68H509.899V134.68H508.459L508.363 136.68H507.131V137.992H508.363V142.936C508.363 144.312 509.115 145.24 510.587 145.24C510.971 145.24 511.307 145.192 511.723 145.08V143.768ZM514.799 135.288V133.48H513.071V135.288H514.799ZM514.703 145V136.68H513.167V145H514.703ZM516.468 140.84C516.468 143.72 518.244 145.24 520.564 145.24C522.916 145.24 524.676 143.752 524.676 140.84C524.676 137.848 522.852 136.44 520.58 136.44C518.324 136.44 516.468 137.848 516.468 140.84ZM518.068 140.84C518.068 138.76 519.156 137.688 520.58 137.688C522.004 137.688 523.076 138.728 523.076 140.84C523.076 142.904 522.068 143.992 520.596 143.992C519.156 143.992 518.068 142.904 518.068 140.84ZM527.969 145V139.864C527.969 138.552 528.929 137.752 530.033 137.752C531.169 137.752 531.809 138.344 531.809 139.592V145H533.345V139.576C533.345 137.544 532.209 136.44 530.401 136.44C529.409 136.44 528.481 136.888 527.873 137.736L527.697 136.68H526.433V145H527.969Z" fill="white" fill-opacity="0.95"/>
<path d="M358.5 176H406.5" stroke="#932099"/>
<path d="M414.5 176L406.5 172V180L414.5 176Z" fill="#932099"/>
<rect x="334.5" y="162" width="32" height="28" rx="14" fill="#932099"/>
<path d="M351.795 170.364V182H350.386V171.841H350.318L347.477 173.728V172.296L350.386 170.364H351.795Z" fill="white"/>
<path d="M360.5 210.502H406.5" stroke="#932099"/>
<path d="M414.5 210.502L406.5 206.502V214.502L414.5 210.502Z" fill="#932099"/>
<rect x="334.5" y="196.502" width="34" height="28" rx="14" fill="#932099"/>
<path d="M347.705 216.502V215.479L351.545 211.274C351.996 210.782 352.367 210.354 352.659 209.99C352.951 209.623 353.167 209.278 353.307 208.956C353.451 208.63 353.523 208.29 353.523 207.934C353.523 207.524 353.424 207.17 353.227 206.871C353.034 206.572 352.769 206.341 352.432 206.178C352.095 206.015 351.716 205.934 351.295 205.934C350.848 205.934 350.458 206.026 350.125 206.212C349.795 206.394 349.54 206.649 349.358 206.979C349.18 207.309 349.091 207.695 349.091 208.138H347.75C347.75 207.456 347.907 206.858 348.222 206.343C348.536 205.827 348.964 205.426 349.506 205.138C350.051 204.85 350.663 204.706 351.341 204.706C352.023 204.706 352.627 204.85 353.153 205.138C353.68 205.426 354.093 205.814 354.392 206.303C354.691 206.791 354.841 207.335 354.841 207.934C354.841 208.362 354.763 208.78 354.608 209.189C354.456 209.595 354.191 210.047 353.812 210.547C353.438 211.043 352.917 211.649 352.25 212.365L349.636 215.161V215.252H355.045V216.502H347.705Z" fill="white"/>
<defs>
<filter id="filter0_d_1027_58803" x="700.691" y="215.212" width="18.7462" height="19.6588" filterUnits="userSpaceOnUse" color-interpolation-filters="sRGB">
<feFlood flood-opacity="0" result="BackgroundImageFix"/>
<feColorMatrix in="SourceAlpha" type="matrix" values="0 0 0 0 0 0 0 0 0 0 0 0 0 0 0 0 0 0 127 0" result="hardAlpha"/>
<feOffset dy="1"/>
<feGaussianBlur stdDeviation="0.9"/>
<feColorMatrix type="matrix" values="0 0 0 0 0 0 0 0 0 0 0 0 0 0 0 0 0 0 0.65 0"/>
<feBlend mode="normal" in2="BackgroundImageFix" result="effect1_dropShadow_1027_58803"/>
<feBlend mode="normal" in="SourceGraphic" in2="effect1_dropShadow_1027_58803" result="shape"/>
</filter>
</defs>
</svg>
