<svg width="708" height="20" viewBox="0 0 708 20" fill="none" xmlns="http://www.w3.org/2000/svg">
<line y1="9.5" x2="312" y2="9.5" stroke="white" stroke-opacity="0.2"/>
<path d="M337.233 15V4.81818H338.466V13.9062H343.199V15H337.233ZM347.196 15.179C346.712 15.179 346.273 15.0878 345.879 14.9055C345.484 14.7199 345.171 14.4531 344.939 14.1051C344.707 13.7538 344.591 13.3295 344.591 12.8324C344.591 12.3949 344.677 12.0402 344.849 11.7685C345.022 11.4934 345.252 11.2779 345.54 11.1222C345.829 10.9664 346.147 10.8504 346.495 10.7741C346.846 10.6946 347.199 10.6316 347.554 10.5852C348.018 10.5256 348.394 10.4808 348.683 10.451C348.974 10.4179 349.186 10.3632 349.319 10.2869C349.455 10.2107 349.523 10.0781 349.523 9.8892V9.84943C349.523 9.3589 349.388 8.97775 349.12 8.70597C348.855 8.43419 348.452 8.2983 347.912 8.2983C347.352 8.2983 346.913 8.42093 346.594 8.66619C346.276 8.91146 346.053 9.1733 345.923 9.4517L344.81 9.05398C345.009 8.58996 345.274 8.22869 345.605 7.97017C345.94 7.70833 346.304 7.52604 346.699 7.4233C347.097 7.31723 347.488 7.2642 347.872 7.2642C348.117 7.2642 348.399 7.29403 348.717 7.35369C349.039 7.41004 349.349 7.5277 349.647 7.70668C349.949 7.88565 350.199 8.15578 350.398 8.51705C350.597 8.87831 350.696 9.36222 350.696 9.96875V15H349.523V13.9659H349.463C349.384 14.1316 349.251 14.3089 349.065 14.4979C348.88 14.6868 348.633 14.8475 348.325 14.9801C348.016 15.1127 347.64 15.179 347.196 15.179ZM347.375 14.125C347.839 14.125 348.23 14.0339 348.548 13.8516C348.87 13.6693 349.112 13.4339 349.274 13.1456C349.44 12.8572 349.523 12.554 349.523 12.2358V11.1619C349.473 11.2216 349.364 11.2763 349.195 11.326C349.029 11.3724 348.837 11.4138 348.618 11.4503C348.402 11.4834 348.192 11.5133 347.987 11.5398C347.784 11.563 347.62 11.5829 347.494 11.5994C347.189 11.6392 346.904 11.7038 346.639 11.7933C346.377 11.8795 346.165 12.0104 346.003 12.1861C345.844 12.3584 345.764 12.5937 345.764 12.892C345.764 13.2997 345.915 13.608 346.217 13.8168C346.522 14.0223 346.908 14.125 347.375 14.125ZM352.997 15V4.81818H354.17V8.5767H354.269C354.356 8.44413 354.475 8.27509 354.627 8.0696C354.783 7.8608 355.005 7.67519 355.294 7.51278C355.585 7.34706 355.98 7.2642 356.477 7.2642C357.12 7.2642 357.686 7.42495 358.177 7.74645C358.668 8.06794 359.05 8.52367 359.325 9.11364C359.601 9.7036 359.738 10.3996 359.738 11.2017C359.738 12.0104 359.601 12.7114 359.325 13.3047C359.05 13.8946 358.669 14.352 358.182 14.6768C357.695 14.9983 357.133 15.1591 356.497 15.1591C356.006 15.1591 355.613 15.0779 355.318 14.9155C355.023 14.7498 354.796 14.5625 354.637 14.3537C354.478 14.1416 354.356 13.9659 354.269 13.8267H354.13V15H352.997ZM354.15 11.1818C354.15 11.7585 354.235 12.2673 354.404 12.7081C354.573 13.1456 354.82 13.4886 355.144 13.7372C355.469 13.9825 355.867 14.1051 356.338 14.1051C356.828 14.1051 357.237 13.9759 357.566 13.7173C357.897 13.4555 358.146 13.1042 358.311 12.6634C358.48 12.2192 358.565 11.7254 358.565 11.1818C358.565 10.6449 358.482 10.161 358.316 9.73011C358.154 9.29593 357.907 8.95289 357.575 8.70099C357.247 8.44579 356.835 8.31818 356.338 8.31818C355.86 8.31818 355.459 8.43916 355.134 8.68111C354.81 8.91974 354.564 9.2545 354.399 9.68537C354.233 10.1129 354.15 10.6117 354.15 11.1818ZM364.735 15.1591C363.999 15.1591 363.364 14.9967 362.83 14.6719C362.3 14.3438 361.891 13.8864 361.602 13.2997C361.317 12.7098 361.175 12.0237 361.175 11.2415C361.175 10.4593 361.317 9.76989 361.602 9.1733C361.891 8.57339 362.292 8.10606 362.806 7.77131C363.323 7.43324 363.926 7.2642 364.615 7.2642C365.013 7.2642 365.406 7.33049 365.794 7.46307C366.181 7.59564 366.534 7.81108 366.852 8.10938C367.171 8.40436 367.424 8.79545 367.613 9.28267C367.802 9.76989 367.896 10.3698 367.896 11.0824V11.5795H362.01V10.5653H366.703C366.703 10.1345 366.617 9.75 366.445 9.41193C366.276 9.07386 366.034 8.80705 365.719 8.61151C365.407 8.41596 365.039 8.31818 364.615 8.31818C364.148 8.31818 363.744 8.43419 363.402 8.66619C363.064 8.89489 362.804 9.19318 362.622 9.56108C362.439 9.92898 362.348 10.3234 362.348 10.7443V11.4205C362.348 11.9972 362.448 12.486 362.646 12.8871C362.849 13.2848 363.129 13.5881 363.487 13.7969C363.845 14.0024 364.261 14.1051 364.735 14.1051C365.043 14.1051 365.321 14.062 365.57 13.9759C365.822 13.8864 366.039 13.7538 366.221 13.5781C366.403 13.3991 366.544 13.1771 366.644 12.9119L367.777 13.2301C367.658 13.6146 367.457 13.9527 367.176 14.2443C366.894 14.5327 366.546 14.758 366.132 14.9205C365.717 15.0795 365.252 15.1591 364.735 15.1591ZM370.855 4.81818V15H369.681V4.81818H370.855Z" fill="white" fill-opacity="0.7"/>
<line x1="396" y1="9.5" x2="708" y2="9.5" stroke="white" stroke-opacity="0.2"/>
</svg>
