<svg width="1150" height="348" viewBox="0 0 1150 348" fill="none" xmlns="http://www.w3.org/2000/svg">
<rect width="1150" height="348" rx="20" fill="#262626"/>
<rect width="4" height="80" transform="translate(520.5 64)" fill="white" fill-opacity="0.3"/>
<g clip-path="url(#clip0_1027_69296)">
<path d="M522.5 264V172" stroke="#932099"/>
<path d="M522.5 164L518.5 172H526.5L522.5 164Z" fill="#932099"/>
<rect x="491.5" y="256" width="62" height="28" rx="14" fill="#932099"/>
<path d="M511.273 267.273C511.205 266.697 510.928 266.25 510.443 265.932C509.958 265.614 509.364 265.455 508.659 265.455C508.144 265.455 507.693 265.538 507.307 265.705C506.924 265.871 506.625 266.1 506.409 266.392C506.197 266.684 506.091 267.015 506.091 267.386C506.091 267.697 506.165 267.964 506.312 268.188C506.464 268.407 506.657 268.591 506.892 268.739C507.127 268.883 507.373 269.002 507.631 269.097C507.888 269.187 508.125 269.261 508.341 269.318L509.523 269.636C509.826 269.716 510.163 269.826 510.534 269.966C510.909 270.106 511.267 270.297 511.608 270.54C511.953 270.778 512.237 271.085 512.46 271.46C512.684 271.835 512.795 272.295 512.795 272.841C512.795 273.47 512.631 274.038 512.301 274.545C511.975 275.053 511.498 275.456 510.869 275.756C510.244 276.055 509.485 276.205 508.591 276.205C507.758 276.205 507.036 276.07 506.426 275.801C505.82 275.532 505.343 275.157 504.994 274.676C504.65 274.195 504.455 273.636 504.409 273H505.864C505.902 273.439 506.049 273.803 506.307 274.091C506.568 274.375 506.898 274.587 507.295 274.727C507.697 274.864 508.129 274.932 508.591 274.932C509.129 274.932 509.612 274.845 510.04 274.67C510.468 274.492 510.807 274.246 511.057 273.932C511.307 273.614 511.432 273.242 511.432 272.818C511.432 272.432 511.324 272.117 511.108 271.875C510.892 271.633 510.608 271.436 510.256 271.284C509.903 271.133 509.523 271 509.114 270.886L507.682 270.477C506.773 270.216 506.053 269.843 505.523 269.358C504.992 268.873 504.727 268.239 504.727 267.455C504.727 266.803 504.903 266.235 505.256 265.75C505.612 265.261 506.089 264.883 506.688 264.614C507.29 264.341 507.962 264.205 508.705 264.205C509.455 264.205 510.121 264.339 510.705 264.608C511.288 264.873 511.75 265.237 512.091 265.699C512.436 266.161 512.617 266.686 512.636 267.273H511.273ZM518.476 276.182C517.688 276.182 516.997 275.994 516.402 275.619C515.811 275.244 515.349 274.72 515.016 274.045C514.686 273.371 514.521 272.583 514.521 271.682C514.521 270.773 514.686 269.979 515.016 269.301C515.349 268.623 515.811 268.097 516.402 267.722C516.997 267.347 517.688 267.159 518.476 267.159C519.264 267.159 519.953 267.347 520.544 267.722C521.139 268.097 521.601 268.623 521.93 269.301C522.264 269.979 522.43 270.773 522.43 271.682C522.43 272.583 522.264 273.371 521.93 274.045C521.601 274.72 521.139 275.244 520.544 275.619C519.953 275.994 519.264 276.182 518.476 276.182ZM518.476 274.977C519.074 274.977 519.567 274.824 519.953 274.517C520.339 274.21 520.625 273.807 520.811 273.307C520.997 272.807 521.089 272.265 521.089 271.682C521.089 271.098 520.997 270.555 520.811 270.051C520.625 269.547 520.339 269.14 519.953 268.83C519.567 268.519 519.074 268.364 518.476 268.364C517.877 268.364 517.385 268.519 516.999 268.83C516.612 269.14 516.326 269.547 516.141 270.051C515.955 270.555 515.862 271.098 515.862 271.682C515.862 272.265 515.955 272.807 516.141 273.307C516.326 273.807 516.612 274.21 516.999 274.517C517.385 274.824 517.877 274.977 518.476 274.977ZM525.818 264.364V276H524.477V264.364H525.818ZM528.274 276V267.273H529.615V276H528.274ZM528.956 265.818C528.695 265.818 528.469 265.729 528.28 265.551C528.094 265.373 528.001 265.159 528.001 264.909C528.001 264.659 528.094 264.445 528.28 264.267C528.469 264.089 528.695 264 528.956 264C529.217 264 529.441 264.089 529.626 264.267C529.816 264.445 529.911 264.659 529.911 264.909C529.911 265.159 529.816 265.373 529.626 265.551C529.441 265.729 529.217 265.818 528.956 265.818ZM535.366 276.182C534.639 276.182 533.997 275.998 533.44 275.631C532.884 275.259 532.448 274.737 532.134 274.062C531.819 273.384 531.662 272.583 531.662 271.659C531.662 270.742 531.819 269.947 532.134 269.273C532.448 268.598 532.885 268.078 533.446 267.71C534.007 267.343 534.654 267.159 535.389 267.159C535.957 267.159 536.406 267.254 536.736 267.443C537.069 267.629 537.323 267.841 537.497 268.08C537.675 268.314 537.813 268.508 537.912 268.659H538.026V264.364H539.366V276H538.071V274.659H537.912C537.813 274.818 537.673 275.019 537.491 275.261C537.31 275.5 537.05 275.714 536.713 275.903C536.376 276.089 535.927 276.182 535.366 276.182ZM535.548 274.977C536.086 274.977 536.541 274.837 536.912 274.557C537.283 274.273 537.565 273.881 537.759 273.381C537.952 272.877 538.048 272.295 538.048 271.636C538.048 270.985 537.954 270.415 537.764 269.926C537.575 269.434 537.295 269.051 536.923 268.778C536.552 268.502 536.094 268.364 535.548 268.364C534.98 268.364 534.507 268.509 534.128 268.801C533.753 269.089 533.471 269.481 533.281 269.977C533.096 270.47 533.003 271.023 533.003 271.636C533.003 272.258 533.098 272.822 533.287 273.33C533.48 273.833 533.764 274.235 534.139 274.534C534.518 274.83 534.988 274.977 535.548 274.977Z" fill="white"/>
</g>
<mask id="mask0_1027_69296" style="mask-type:alpha" maskUnits="userSpaceOnUse" x="635" y="64" width="4" height="80">
<rect x="635" y="64" width="4" height="80" fill="white"/>
</mask>
<g mask="url(#mask0_1027_69296)">
<path d="M648.293 73.2929L628.293 93.2929L629.707 94.7071L649.707 74.7071L648.293 73.2929ZM648.293 67.2929L628.293 87.2929L629.707 88.7071L649.707 68.7071L648.293 67.2929ZM648.293 61.2929L628.293 81.2929L629.707 82.7071L649.707 62.7071L648.293 61.2929ZM648.293 55.2929L628.293 75.2929L629.707 76.7071L649.707 56.7071L648.293 55.2929ZM648.293 49.2929L628.293 69.2929L629.707 70.7071L649.707 50.7071L648.293 49.2929ZM648.293 79.2929L628.293 99.2929L629.707 100.707L649.707 80.7071L648.293 79.2929ZM648.293 85.2929L628.293 105.293L629.707 106.707L649.707 86.7071L648.293 85.2929ZM648.293 91.2929L628.293 111.293L629.707 112.707L649.707 92.7071L648.293 91.2929ZM648.293 97.2929L628.293 117.293L629.707 118.707L649.707 98.7071L648.293 97.2929ZM648.293 103.293L628.293 123.293L629.707 124.707L649.707 104.707L648.293 103.293ZM648.293 109.293L628.293 129.293L629.707 130.707L649.707 110.707L648.293 109.293ZM648.293 115.293L628.293 135.293L629.707 136.707L649.707 116.707L648.293 115.293Z" fill="white" fill-opacity="0.3"/>
<path d="M648.293 145.293L628.293 165.293L629.707 166.707L649.707 146.707L648.293 145.293ZM648.293 139.293L628.293 159.293L629.707 160.707L649.707 140.707L648.293 139.293ZM648.293 133.293L628.293 153.293L629.707 154.707L649.707 134.707L648.293 133.293ZM648.293 127.293L628.293 147.293L629.707 148.707L649.707 128.707L648.293 127.293ZM648.293 121.293L628.293 141.293L629.707 142.707L649.707 122.707L648.293 121.293ZM648.293 151.293L628.293 171.293L629.707 172.707L649.707 152.707L648.293 151.293ZM648.293 157.293L628.293 177.293L629.707 178.707L649.707 158.707L648.293 157.293ZM648.293 163.293L628.293 183.293L629.707 184.707L649.707 164.707L648.293 163.293ZM648.293 169.293L628.293 189.293L629.707 190.707L649.707 170.707L648.293 169.293ZM648.293 175.293L628.293 195.293L629.707 196.707L649.707 176.707L648.293 175.293ZM648.293 181.293L628.293 201.293L629.707 202.707L649.707 182.707L648.293 181.293ZM648.293 187.293L628.293 207.293L629.707 208.707L649.707 188.707L648.293 187.293Z" fill="white" fill-opacity="0.3"/>
</g>
<g clip-path="url(#clip1_1027_69296)">
<path d="M637 264V172" stroke="#932099"/>
<path d="M637 164L633 172H641L637 164Z" fill="#932099"/>
<rect x="597.5" y="256" width="79" height="28" rx="14" fill="#932099"/>
<path d="M617.273 267.273C617.205 266.697 616.928 266.25 616.443 265.932C615.958 265.614 615.364 265.455 614.659 265.455C614.144 265.455 613.693 265.538 613.307 265.705C612.924 265.871 612.625 266.1 612.409 266.392C612.197 266.684 612.091 267.015 612.091 267.386C612.091 267.697 612.165 267.964 612.312 268.188C612.464 268.407 612.657 268.591 612.892 268.739C613.127 268.883 613.373 269.002 613.631 269.097C613.888 269.187 614.125 269.261 614.341 269.318L615.523 269.636C615.826 269.716 616.163 269.826 616.534 269.966C616.909 270.106 617.267 270.297 617.608 270.54C617.953 270.778 618.237 271.085 618.46 271.46C618.684 271.835 618.795 272.295 618.795 272.841C618.795 273.47 618.631 274.038 618.301 274.545C617.975 275.053 617.498 275.456 616.869 275.756C616.244 276.055 615.485 276.205 614.591 276.205C613.758 276.205 613.036 276.07 612.426 275.801C611.82 275.532 611.343 275.157 610.994 274.676C610.65 274.195 610.455 273.636 610.409 273H611.864C611.902 273.439 612.049 273.803 612.307 274.091C612.568 274.375 612.898 274.587 613.295 274.727C613.697 274.864 614.129 274.932 614.591 274.932C615.129 274.932 615.612 274.845 616.04 274.67C616.468 274.492 616.807 274.246 617.057 273.932C617.307 273.614 617.432 273.242 617.432 272.818C617.432 272.432 617.324 272.117 617.108 271.875C616.892 271.633 616.608 271.436 616.256 271.284C615.903 271.133 615.523 271 615.114 270.886L613.682 270.477C612.773 270.216 612.053 269.843 611.523 269.358C610.992 268.873 610.727 268.239 610.727 267.455C610.727 266.803 610.903 266.235 611.256 265.75C611.612 265.261 612.089 264.883 612.688 264.614C613.29 264.341 613.962 264.205 614.705 264.205C615.455 264.205 616.121 264.339 616.705 264.608C617.288 264.873 617.75 265.237 618.091 265.699C618.436 266.161 618.617 266.686 618.636 267.273H617.273ZM624.726 267.273V268.409H620.203V267.273H624.726ZM621.521 265.182H622.862V273.5C622.862 273.879 622.917 274.163 623.027 274.352C623.141 274.538 623.285 274.663 623.459 274.727C623.637 274.788 623.824 274.818 624.021 274.818C624.169 274.818 624.29 274.811 624.385 274.795C624.48 274.777 624.555 274.761 624.612 274.75L624.885 275.955C624.794 275.989 624.667 276.023 624.504 276.057C624.341 276.095 624.135 276.114 623.885 276.114C623.506 276.114 623.135 276.032 622.771 275.869C622.411 275.706 622.112 275.458 621.874 275.125C621.639 274.792 621.521 274.371 621.521 273.864V265.182ZM626.743 276V267.273H628.038V268.591H628.129C628.288 268.159 628.576 267.809 628.993 267.54C629.41 267.271 629.879 267.136 630.402 267.136C630.5 267.136 630.624 267.138 630.771 267.142C630.919 267.146 631.031 267.152 631.107 267.159V268.523C631.061 268.511 630.957 268.494 630.794 268.472C630.635 268.445 630.466 268.432 630.288 268.432C629.864 268.432 629.485 268.521 629.152 268.699C628.822 268.873 628.561 269.116 628.368 269.426C628.179 269.733 628.084 270.083 628.084 270.477V276H626.743ZM632.696 276V267.273H634.037V276H632.696ZM633.378 265.818C633.116 265.818 632.891 265.729 632.702 265.551C632.516 265.373 632.423 265.159 632.423 264.909C632.423 264.659 632.516 264.445 632.702 264.267C632.891 264.089 633.116 264 633.378 264C633.639 264 633.863 264.089 634.048 264.267C634.238 264.445 634.332 264.659 634.332 264.909C634.332 265.159 634.238 265.373 634.048 265.551C633.863 265.729 633.639 265.818 633.378 265.818ZM636.493 279.273V267.273H637.788V268.659H637.947C638.046 268.508 638.182 268.314 638.357 268.08C638.535 267.841 638.788 267.629 639.118 267.443C639.451 267.254 639.902 267.159 640.47 267.159C641.205 267.159 641.853 267.343 642.413 267.71C642.974 268.078 643.411 268.598 643.726 269.273C644.04 269.947 644.197 270.742 644.197 271.659C644.197 272.583 644.04 273.384 643.726 274.062C643.411 274.737 642.976 275.259 642.419 275.631C641.862 275.998 641.22 276.182 640.493 276.182C639.932 276.182 639.483 276.089 639.146 275.903C638.809 275.714 638.55 275.5 638.368 275.261C638.186 275.019 638.046 274.818 637.947 274.659H637.834V279.273H636.493ZM637.811 271.636C637.811 272.295 637.908 272.877 638.101 273.381C638.294 273.881 638.576 274.273 638.947 274.557C639.319 274.837 639.773 274.977 640.311 274.977C640.872 274.977 641.339 274.83 641.714 274.534C642.093 274.235 642.377 273.833 642.567 273.33C642.76 272.822 642.857 272.258 642.857 271.636C642.857 271.023 642.762 270.47 642.572 269.977C642.387 269.481 642.105 269.089 641.726 268.801C641.351 268.509 640.879 268.364 640.311 268.364C639.766 268.364 639.307 268.502 638.936 268.778C638.565 269.051 638.285 269.434 638.095 269.926C637.906 270.415 637.811 270.985 637.811 271.636ZM649.902 276.182C649.061 276.182 648.336 275.996 647.726 275.625C647.12 275.25 646.652 274.727 646.322 274.057C645.997 273.383 645.834 272.598 645.834 271.705C645.834 270.811 645.997 270.023 646.322 269.341C646.652 268.655 647.11 268.121 647.697 267.739C648.288 267.352 648.978 267.159 649.766 267.159C650.22 267.159 650.669 267.235 651.112 267.386C651.555 267.538 651.959 267.784 652.322 268.125C652.686 268.462 652.976 268.909 653.192 269.466C653.408 270.023 653.516 270.708 653.516 271.523V272.091H646.788V270.932H652.152C652.152 270.439 652.054 270 651.857 269.614C651.663 269.227 651.387 268.922 651.027 268.699C650.671 268.475 650.25 268.364 649.766 268.364C649.232 268.364 648.769 268.496 648.379 268.761C647.993 269.023 647.696 269.364 647.487 269.784C647.279 270.205 647.175 270.655 647.175 271.136V271.909C647.175 272.568 647.288 273.127 647.516 273.585C647.747 274.04 648.067 274.386 648.476 274.625C648.885 274.86 649.36 274.977 649.902 274.977C650.254 274.977 650.572 274.928 650.857 274.83C651.144 274.727 651.393 274.576 651.601 274.375C651.809 274.17 651.97 273.917 652.084 273.614L653.379 273.977C653.243 274.417 653.014 274.803 652.692 275.136C652.37 275.466 651.972 275.723 651.499 275.909C651.025 276.091 650.493 276.182 649.902 276.182ZM658.851 276.182C658.124 276.182 657.482 275.998 656.925 275.631C656.368 275.259 655.932 274.737 655.618 274.062C655.304 273.384 655.146 272.583 655.146 271.659C655.146 270.742 655.304 269.947 655.618 269.273C655.932 268.598 656.37 268.078 656.93 267.71C657.491 267.343 658.139 267.159 658.874 267.159C659.442 267.159 659.891 267.254 660.22 267.443C660.554 267.629 660.807 267.841 660.982 268.08C661.16 268.314 661.298 268.508 661.396 268.659H661.51V264.364H662.851V276H661.555V274.659H661.396C661.298 274.818 661.158 275.019 660.976 275.261C660.794 275.5 660.535 275.714 660.197 275.903C659.86 276.089 659.411 276.182 658.851 276.182ZM659.033 274.977C659.571 274.977 660.025 274.837 660.396 274.557C660.768 274.273 661.05 273.881 661.243 273.381C661.436 272.877 661.533 272.295 661.533 271.636C661.533 270.985 661.438 270.415 661.249 269.926C661.059 269.434 660.779 269.051 660.408 268.778C660.036 268.502 659.578 268.364 659.033 268.364C658.464 268.364 657.991 268.509 657.612 268.801C657.237 269.089 656.955 269.481 656.766 269.977C656.58 270.47 656.487 271.023 656.487 271.636C656.487 272.258 656.582 272.822 656.771 273.33C656.964 273.833 657.249 274.235 657.624 274.534C658.002 274.83 658.472 274.977 659.033 274.977Z" fill="white"/>
</g>
<defs>
<clipPath id="clip0_1027_69296">
<rect width="62" height="120" fill="white" transform="translate(491.5 164)"/>
</clipPath>
<clipPath id="clip1_1027_69296">
<rect width="79" height="120" fill="white" transform="translate(597.5 164)"/>
</clipPath>
</defs>
</svg>
