<svg width="1150" height="178" viewBox="0 0 1150 178" fill="none" xmlns="http://www.w3.org/2000/svg">
<rect width="1150" height="178" rx="20" fill="#262626"/>
<line x1="46" y1="88.5" x2="245.5" y2="88.5" stroke="white" stroke-opacity="0.2"/>
<path d="M278.807 83.8182V94H277.614L272.065 86.0057H271.966V94H270.733V83.8182H271.926L277.494 91.8324H277.594V83.8182H278.807ZM284.317 94.1591C283.581 94.1591 282.946 93.9967 282.412 93.6719C281.882 93.3438 281.473 92.8864 281.184 92.2997C280.899 91.7098 280.757 91.0237 280.757 90.2415C280.757 89.4593 280.899 88.7699 281.184 88.1733C281.473 87.5734 281.874 87.1061 282.388 86.7713C282.905 86.4332 283.508 86.2642 284.197 86.2642C284.595 86.2642 284.988 86.3305 285.376 86.4631C285.763 86.5956 286.116 86.8111 286.434 87.1094C286.753 87.4044 287.006 87.7955 287.195 88.2827C287.384 88.7699 287.479 89.3698 287.479 90.0824V90.5795H281.592V89.5653H286.285C286.285 89.1345 286.199 88.75 286.027 88.4119C285.858 88.0739 285.616 87.8071 285.301 87.6115C284.989 87.416 284.622 87.3182 284.197 87.3182C283.73 87.3182 283.326 87.4342 282.984 87.6662C282.646 87.8949 282.386 88.1932 282.204 88.5611C282.021 88.929 281.93 89.3234 281.93 89.7443V90.4205C281.93 90.9972 282.03 91.486 282.229 91.8871C282.431 92.2848 282.711 92.5881 283.069 92.7969C283.427 93.0024 283.843 93.1051 284.317 93.1051C284.625 93.1051 284.903 93.062 285.152 92.9759C285.404 92.8864 285.621 92.7538 285.803 92.5781C285.985 92.3991 286.126 92.1771 286.226 91.9119L287.359 92.2301C287.24 92.6146 287.039 92.9527 286.758 93.2443C286.476 93.5327 286.128 93.758 285.714 93.9205C285.299 94.0795 284.834 94.1591 284.317 94.1591ZM290.993 94L288.667 86.3636H289.9L291.55 92.2102H291.63L293.26 86.3636H294.513L296.124 92.1903H296.204L297.854 86.3636H299.087L296.76 94H295.607L293.937 88.1335H293.817L292.147 94H290.993ZM304.576 94V86.3636H305.709V87.5568H305.809C305.968 87.1491 306.225 86.8326 306.579 86.6072C306.934 86.3786 307.36 86.2642 307.857 86.2642C308.361 86.2642 308.78 86.3786 309.115 86.6072C309.453 86.8326 309.716 87.1491 309.905 87.5568H309.985C310.18 87.1624 310.474 86.8492 310.865 86.6172C311.256 86.3819 311.725 86.2642 312.272 86.2642C312.955 86.2642 313.513 86.478 313.947 86.9055C314.381 87.3298 314.599 87.991 314.599 88.8892V94H313.425V88.8892C313.425 88.3258 313.271 87.9231 312.963 87.6811C312.655 87.4392 312.292 87.3182 311.874 87.3182C311.337 87.3182 310.921 87.4806 310.626 87.8054C310.331 88.1269 310.184 88.5346 310.184 89.0284V94H308.991V88.7699C308.991 88.3357 308.85 87.986 308.568 87.7209C308.286 87.4524 307.923 87.3182 307.479 87.3182C307.174 87.3182 306.889 87.3994 306.624 87.5618C306.362 87.7242 306.15 87.9496 305.988 88.2379C305.829 88.523 305.749 88.8527 305.749 89.2273V94H304.576ZM319.945 94.1591C319.21 94.1591 318.575 93.9967 318.041 93.6719C317.511 93.3438 317.102 92.8864 316.813 92.2997C316.528 91.7098 316.386 91.0237 316.386 90.2415C316.386 89.4593 316.528 88.7699 316.813 88.1733C317.102 87.5734 317.503 87.1061 318.017 86.7713C318.534 86.4332 319.137 86.2642 319.826 86.2642C320.224 86.2642 320.617 86.3305 321.004 86.4631C321.392 86.5956 321.745 86.8111 322.063 87.1094C322.382 87.4044 322.635 87.7955 322.824 88.2827C323.013 88.7699 323.107 89.3698 323.107 90.0824V90.5795H317.221V89.5653H321.914C321.914 89.1345 321.828 88.75 321.656 88.4119C321.487 88.0739 321.245 87.8071 320.93 87.6115C320.618 87.416 320.25 87.3182 319.826 87.3182C319.359 87.3182 318.954 87.4342 318.613 87.6662C318.275 87.8949 318.015 88.1932 317.833 88.5611C317.65 88.929 317.559 89.3234 317.559 89.7443V90.4205C317.559 90.9972 317.659 91.486 317.857 91.8871C318.06 92.2848 318.34 92.5881 318.698 92.7969C319.056 93.0024 319.472 93.1051 319.945 93.1051C320.254 93.1051 320.532 93.062 320.781 92.9759C321.033 92.8864 321.25 92.7538 321.432 92.5781C321.614 92.3991 321.755 92.1771 321.855 91.9119L322.988 92.2301C322.869 92.6146 322.668 92.9527 322.387 93.2443C322.105 93.5327 321.757 93.758 321.343 93.9205C320.928 94.0795 320.463 94.1591 319.945 94.1591ZM330.301 88.0739L329.247 88.3722C329.181 88.1965 329.083 88.0258 328.954 87.8601C328.828 87.6911 328.656 87.5518 328.437 87.4425C328.218 87.3331 327.938 87.2784 327.597 87.2784C327.129 87.2784 326.74 87.3861 326.428 87.6016C326.12 87.8137 325.966 88.0838 325.966 88.4119C325.966 88.7036 326.072 88.9339 326.284 89.103C326.496 89.272 326.828 89.4129 327.279 89.5256L328.412 89.804C329.095 89.9697 329.604 90.2232 329.938 90.5646C330.273 90.9027 330.441 91.3385 330.441 91.8722C330.441 92.3097 330.315 92.7008 330.063 93.0455C329.814 93.3902 329.466 93.6619 329.019 93.8608C328.571 94.0597 328.051 94.1591 327.458 94.1591C326.679 94.1591 326.034 93.9901 325.524 93.652C325.013 93.3139 324.69 92.8201 324.554 92.1705L325.668 91.892C325.774 92.303 325.974 92.6113 326.269 92.8168C326.568 93.0223 326.957 93.125 327.438 93.125C327.985 93.125 328.419 93.009 328.74 92.777C329.065 92.5417 329.227 92.2599 329.227 91.9318C329.227 91.6667 329.135 91.4446 328.949 91.2656C328.763 91.0833 328.478 90.9474 328.094 90.858L326.821 90.5597C326.122 90.3939 325.608 90.1371 325.28 89.7891C324.955 89.4377 324.793 88.9986 324.793 88.4716C324.793 88.0407 324.914 87.6596 325.156 87.3281C325.401 86.9967 325.734 86.7365 326.155 86.5476C326.579 86.3587 327.06 86.2642 327.597 86.2642C328.352 86.2642 328.946 86.4299 329.377 86.7614C329.811 87.0928 330.119 87.5303 330.301 88.0739ZM337.616 88.0739L336.562 88.3722C336.496 88.1965 336.398 88.0258 336.268 87.8601C336.143 87.6911 335.97 87.5518 335.751 87.4425C335.533 87.3331 335.253 87.2784 334.911 87.2784C334.444 87.2784 334.054 87.3861 333.743 87.6016C333.435 87.8137 333.281 88.0838 333.281 88.4119C333.281 88.7036 333.387 88.9339 333.599 89.103C333.811 89.272 334.142 89.4129 334.593 89.5256L335.727 89.804C336.409 89.9697 336.918 90.2232 337.253 90.5646C337.588 90.9027 337.755 91.3385 337.755 91.8722C337.755 92.3097 337.629 92.7008 337.377 93.0455C337.129 93.3902 336.781 93.6619 336.333 93.8608C335.886 94.0597 335.365 94.1591 334.772 94.1591C333.993 94.1591 333.348 93.9901 332.838 93.652C332.328 93.3139 332.004 92.8201 331.869 92.1705L332.982 91.892C333.088 92.303 333.289 92.6113 333.584 92.8168C333.882 93.0223 334.272 93.125 334.752 93.125C335.299 93.125 335.733 93.009 336.055 92.777C336.379 92.5417 336.542 92.2599 336.542 91.9318C336.542 91.6667 336.449 91.4446 336.263 91.2656C336.078 91.0833 335.793 90.9474 335.408 90.858L334.136 90.5597C333.436 90.3939 332.923 90.1371 332.594 89.7891C332.27 89.4377 332.107 88.9986 332.107 88.4716C332.107 88.0407 332.228 87.6596 332.47 87.3281C332.715 86.9967 333.049 86.7365 333.469 86.5476C333.894 86.3587 334.374 86.2642 334.911 86.2642C335.667 86.2642 336.26 86.4299 336.691 86.7614C337.125 87.0928 337.433 87.5303 337.616 88.0739ZM341.768 94.179C341.284 94.179 340.845 94.0878 340.451 93.9055C340.056 93.7199 339.743 93.4531 339.511 93.1051C339.279 92.7538 339.163 92.3295 339.163 91.8324C339.163 91.3949 339.249 91.0402 339.422 90.7685C339.594 90.4934 339.824 90.2779 340.113 90.1222C340.401 89.9664 340.719 89.8504 341.067 89.7741C341.419 89.6946 341.772 89.6316 342.126 89.5852C342.59 89.5256 342.966 89.4808 343.255 89.451C343.546 89.4179 343.759 89.3632 343.891 89.2869C344.027 89.2107 344.095 89.0781 344.095 88.8892V88.8494C344.095 88.3589 343.961 87.9777 343.692 87.706C343.427 87.4342 343.024 87.2983 342.484 87.2983C341.924 87.2983 341.485 87.4209 341.167 87.6662C340.849 87.9115 340.625 88.1733 340.496 88.4517L339.382 88.054C339.581 87.59 339.846 87.2287 340.177 86.9702C340.512 86.7083 340.877 86.526 341.271 86.4233C341.669 86.3172 342.06 86.2642 342.444 86.2642C342.69 86.2642 342.971 86.294 343.29 86.3537C343.611 86.41 343.921 86.5277 344.219 86.7067C344.521 86.8857 344.771 87.1558 344.97 87.517C345.169 87.8783 345.268 88.3622 345.268 88.9688V94H344.095V92.9659H344.035C343.956 93.1316 343.823 93.3089 343.638 93.4979C343.452 93.6868 343.205 93.8475 342.897 93.9801C342.589 94.1127 342.212 94.179 341.768 94.179ZM341.947 93.125C342.411 93.125 342.802 93.0339 343.121 92.8516C343.442 92.6693 343.684 92.4339 343.846 92.1456C344.012 91.8572 344.095 91.554 344.095 91.2358V90.1619C344.045 90.2216 343.936 90.2763 343.767 90.326C343.601 90.3724 343.409 90.4138 343.19 90.4503C342.975 90.4834 342.764 90.5133 342.559 90.5398C342.357 90.563 342.193 90.5829 342.067 90.5994C341.762 90.6392 341.477 90.7038 341.211 90.7933C340.95 90.8795 340.738 91.0104 340.575 91.1861C340.416 91.3584 340.336 91.5937 340.336 91.892C340.336 92.2997 340.487 92.608 340.789 92.8168C341.094 93.0223 341.48 93.125 341.947 93.125ZM350.492 97.0227C349.925 97.0227 349.438 96.9498 349.031 96.804C348.623 96.6615 348.283 96.4725 348.011 96.2372C347.743 96.0052 347.529 95.7566 347.37 95.4915L348.305 94.8352C348.411 94.9744 348.545 95.1335 348.707 95.3125C348.87 95.4948 349.092 95.6522 349.374 95.7848C349.659 95.9207 350.031 95.9886 350.492 95.9886C351.109 95.9886 351.617 95.8395 352.018 95.5412C352.42 95.2429 352.62 94.7756 352.62 94.1392V92.5881H352.521C352.434 92.7273 352.312 92.8996 352.153 93.1051C351.997 93.3073 351.772 93.4879 351.477 93.647C351.185 93.8028 350.79 93.8807 350.293 93.8807C349.677 93.8807 349.123 93.7348 348.633 93.4432C348.146 93.1515 347.759 92.7273 347.474 92.1705C347.193 91.6136 347.052 90.9375 347.052 90.142C347.052 89.3598 347.189 88.6787 347.464 88.0987C347.74 87.5154 348.122 87.0646 348.613 86.7464C349.103 86.425 349.67 86.2642 350.313 86.2642C350.81 86.2642 351.205 86.3471 351.496 86.5128C351.791 86.6752 352.017 86.8608 352.173 87.0696C352.332 87.2751 352.454 87.4441 352.54 87.5767H352.66V86.3636H353.793V94.2188C353.793 94.875 353.644 95.4086 353.346 95.8196C353.051 96.2339 352.653 96.5372 352.153 96.7294C351.656 96.925 351.102 97.0227 350.492 97.0227ZM350.452 92.8267C350.923 92.8267 351.321 92.719 351.646 92.5036C351.97 92.2881 352.217 91.9782 352.386 91.5739C352.555 91.1695 352.64 90.6856 352.64 90.1222C352.64 89.572 352.557 89.0864 352.391 88.6655C352.226 88.2446 351.98 87.9148 351.656 87.6761C351.331 87.4375 350.93 87.3182 350.452 87.3182C349.955 87.3182 349.541 87.4441 349.21 87.696C348.881 87.9479 348.634 88.286 348.469 88.7102C348.306 89.1345 348.225 89.6051 348.225 90.1222C348.225 90.6525 348.308 91.1214 348.474 91.5291C348.643 91.9335 348.891 92.2517 349.219 92.4837C349.551 92.7124 349.962 92.8267 350.452 92.8267ZM359.143 94.1591C358.407 94.1591 357.772 93.9967 357.239 93.6719C356.708 93.3438 356.299 92.8864 356.011 92.2997C355.726 91.7098 355.583 91.0237 355.583 90.2415C355.583 89.4593 355.726 88.7699 356.011 88.1733C356.299 87.5734 356.7 87.1061 357.214 86.7713C357.731 86.4332 358.334 86.2642 359.023 86.2642C359.421 86.2642 359.814 86.3305 360.202 86.4631C360.589 86.5956 360.942 86.8111 361.261 87.1094C361.579 87.4044 361.832 87.7955 362.021 88.2827C362.21 88.7699 362.305 89.3698 362.305 90.0824V90.5795H356.418V89.5653H361.112C361.112 89.1345 361.025 88.75 360.853 88.4119C360.684 88.0739 360.442 87.8071 360.127 87.6115C359.816 87.416 359.448 87.3182 359.023 87.3182C358.556 87.3182 358.152 87.4342 357.81 87.6662C357.472 87.8949 357.212 88.1932 357.03 88.5611C356.848 88.929 356.756 89.3234 356.756 89.7443V90.4205C356.756 90.9972 356.856 91.486 357.055 91.8871C357.257 92.2848 357.537 92.5881 357.895 92.7969C358.253 93.0024 358.669 93.1051 359.143 93.1051C359.451 93.1051 359.729 93.062 359.978 92.9759C360.23 92.8864 360.447 92.7538 360.629 92.5781C360.812 92.3991 360.952 92.1771 361.052 91.9119L362.185 92.2301C362.066 92.6146 361.866 92.9527 361.584 93.2443C361.302 93.5327 360.954 93.758 360.54 93.9205C360.125 94.0795 359.66 94.1591 359.143 94.1591ZM369.499 88.0739L368.445 88.3722C368.378 88.1965 368.281 88.0258 368.151 87.8601C368.025 87.6911 367.853 87.5518 367.634 87.4425C367.415 87.3331 367.135 87.2784 366.794 87.2784C366.327 87.2784 365.937 87.3861 365.626 87.6016C365.317 87.8137 365.163 88.0838 365.163 88.4119C365.163 88.7036 365.269 88.9339 365.482 89.103C365.694 89.272 366.025 89.4129 366.476 89.5256L367.609 89.804C368.292 89.9697 368.801 90.2232 369.136 90.5646C369.47 90.9027 369.638 91.3385 369.638 91.8722C369.638 92.3097 369.512 92.7008 369.26 93.0455C369.011 93.3902 368.663 93.6619 368.216 93.8608C367.768 94.0597 367.248 94.1591 366.655 94.1591C365.876 94.1591 365.231 93.9901 364.721 93.652C364.21 93.3139 363.887 92.8201 363.751 92.1705L364.865 91.892C364.971 92.303 365.172 92.6113 365.467 92.8168C365.765 93.0223 366.154 93.125 366.635 93.125C367.182 93.125 367.616 93.009 367.938 92.777C368.262 92.5417 368.425 92.2599 368.425 91.9318C368.425 91.6667 368.332 91.4446 368.146 91.2656C367.961 91.0833 367.676 90.9474 367.291 90.858L366.018 90.5597C365.319 90.3939 364.805 90.1371 364.477 89.7891C364.152 89.4377 363.99 88.9986 363.99 88.4716C363.99 88.0407 364.111 87.6596 364.353 87.3281C364.598 86.9967 364.931 86.7365 365.352 86.5476C365.777 86.3587 366.257 86.2642 366.794 86.2642C367.55 86.2642 368.143 86.4299 368.574 86.7614C369.008 87.0928 369.316 87.5303 369.499 88.0739Z" fill="white" fill-opacity="0.7"/>
<line x1="394.5" y1="88.5" x2="594" y2="88.5" stroke="white" stroke-opacity="0.2"/>
<g clip-path="url(#clip0_1027_69405)">
<path d="M712 89H669" stroke="#932099"/>
<path d="M661 89L669 85V93L661 89Z" fill="#932099"/>
<rect x="704" y="63" width="418" height="52" rx="24" fill="#932099"/>
<path d="M717.614 78.9091V78L724.932 74.2727V75.7273L719.318 78.4318L719.364 78.3409V78.5682L719.318 78.4773L724.932 81.1818V82.6364L717.614 78.9091ZM729.115 77.75V83H727.774V74.2727H729.07V75.6364H729.183C729.388 75.1932 729.698 74.8371 730.115 74.5682C730.532 74.2955 731.07 74.1591 731.729 74.1591C732.32 74.1591 732.837 74.2803 733.28 74.5227C733.723 74.7614 734.068 75.125 734.314 75.6136C734.56 76.0985 734.683 76.7121 734.683 77.4545V83H733.342V77.5455C733.342 76.8598 733.164 76.3258 732.808 75.9432C732.452 75.5568 731.964 75.3636 731.342 75.3636C730.914 75.3636 730.532 75.4564 730.195 75.642C729.861 75.8277 729.598 76.0985 729.405 76.4545C729.212 76.8106 729.115 77.2424 729.115 77.75ZM739.702 83.2045C739.149 83.2045 738.647 83.1004 738.196 82.892C737.745 82.6799 737.387 82.375 737.122 81.9773C736.857 81.5758 736.724 81.0909 736.724 80.5227C736.724 80.0227 736.823 79.6174 737.02 79.3068C737.217 78.9924 737.48 78.7462 737.81 78.5682C738.139 78.3902 738.503 78.2576 738.901 78.1705C739.302 78.0795 739.705 78.0076 740.111 77.9545C740.641 77.8864 741.071 77.8352 741.401 77.8011C741.734 77.7633 741.976 77.7008 742.128 77.6136C742.283 77.5265 742.361 77.375 742.361 77.1591V77.1136C742.361 76.553 742.207 76.1174 741.901 75.8068C741.598 75.4962 741.137 75.3409 740.52 75.3409C739.88 75.3409 739.378 75.4811 739.014 75.7614C738.651 76.0417 738.395 76.3409 738.247 76.6591L736.974 76.2045C737.202 75.6742 737.505 75.2614 737.884 74.9659C738.266 74.6667 738.683 74.4583 739.134 74.3409C739.588 74.2197 740.035 74.1591 740.474 74.1591C740.755 74.1591 741.077 74.1932 741.44 74.2614C741.808 74.3258 742.162 74.4602 742.503 74.6648C742.848 74.8693 743.134 75.178 743.361 75.5909C743.588 76.0038 743.702 76.5568 743.702 77.25V83H742.361V81.8182H742.293C742.202 82.0076 742.05 82.2102 741.838 82.4261C741.626 82.642 741.344 82.8258 740.991 82.9773C740.639 83.1288 740.209 83.2045 739.702 83.2045ZM739.906 82C740.437 82 740.884 81.8958 741.247 81.6875C741.615 81.4792 741.891 81.2102 742.077 80.8807C742.266 80.5511 742.361 80.2045 742.361 79.8409V78.6136C742.304 78.6818 742.179 78.7443 741.986 78.8011C741.796 78.8542 741.577 78.9015 741.327 78.9432C741.08 78.9811 740.84 79.0152 740.605 79.0455C740.374 79.072 740.187 79.0947 740.043 79.1136C739.694 79.1591 739.368 79.233 739.065 79.3352C738.766 79.4337 738.524 79.5833 738.338 79.7841C738.156 79.9811 738.065 80.25 738.065 80.5909C738.065 81.0568 738.238 81.4091 738.582 81.6477C738.931 81.8826 739.372 82 739.906 82ZM752.973 74.2727L749.746 83H748.382L745.155 74.2727H746.609L749.018 81.2273H749.109L751.518 74.2727H752.973ZM761.811 83.2045C761.258 83.2045 760.756 83.1004 760.305 82.892C759.855 82.6799 759.497 82.375 759.232 81.9773C758.966 81.5758 758.834 81.0909 758.834 80.5227C758.834 80.0227 758.932 79.6174 759.129 79.3068C759.326 78.9924 759.589 78.7462 759.919 78.5682C760.249 78.3902 760.612 78.2576 761.01 78.1705C761.411 78.0795 761.815 78.0076 762.22 77.9545C762.75 77.8864 763.18 77.8352 763.51 77.8011C763.843 77.7633 764.086 77.7008 764.237 77.6136C764.393 77.5265 764.47 77.375 764.47 77.1591V77.1136C764.47 76.553 764.317 76.1174 764.01 75.8068C763.707 75.4962 763.247 75.3409 762.629 75.3409C761.989 75.3409 761.487 75.4811 761.124 75.7614C760.76 76.0417 760.504 76.3409 760.357 76.6591L759.084 76.2045C759.311 75.6742 759.614 75.2614 759.993 74.9659C760.375 74.6667 760.792 74.4583 761.243 74.3409C761.697 74.2197 762.144 74.1591 762.584 74.1591C762.864 74.1591 763.186 74.1932 763.55 74.2614C763.917 74.3258 764.271 74.4602 764.612 74.6648C764.957 74.8693 765.243 75.178 765.47 75.5909C765.697 76.0038 765.811 76.5568 765.811 77.25V83H764.47V81.8182H764.402C764.311 82.0076 764.16 82.2102 763.947 82.4261C763.735 82.642 763.453 82.8258 763.101 82.9773C762.749 83.1288 762.319 83.2045 761.811 83.2045ZM762.016 82C762.546 82 762.993 81.8958 763.357 81.6875C763.724 81.4792 764 81.2102 764.186 80.8807C764.375 80.5511 764.47 80.2045 764.47 79.8409V78.6136C764.413 78.6818 764.288 78.7443 764.095 78.8011C763.906 78.8542 763.686 78.9015 763.436 78.9432C763.19 78.9811 762.949 79.0152 762.714 79.0455C762.483 79.072 762.296 79.0947 762.152 79.1136C761.804 79.1591 761.478 79.233 761.175 79.3352C760.875 79.4337 760.633 79.5833 760.447 79.7841C760.266 79.9811 760.175 80.25 760.175 80.5909C760.175 81.0568 760.347 81.4091 760.692 81.6477C761.04 81.8826 761.482 82 762.016 82ZM768.259 83V74.2727H769.554V75.5909H769.645C769.804 75.1591 770.092 74.8087 770.509 74.5398C770.925 74.2708 771.395 74.1364 771.918 74.1364C772.016 74.1364 772.139 74.1383 772.287 74.142C772.435 74.1458 772.546 74.1515 772.622 74.1591V75.5227C772.577 75.5114 772.473 75.4943 772.31 75.4716C772.151 75.4451 771.982 75.4318 771.804 75.4318C771.38 75.4318 771.001 75.5208 770.668 75.6989C770.338 75.8731 770.077 76.1155 769.884 76.4261C769.694 76.733 769.599 77.0833 769.599 77.4773V83H768.259ZM774.212 83V74.2727H775.553V83H774.212ZM774.893 72.8182C774.632 72.8182 774.407 72.7292 774.217 72.5511C774.032 72.3731 773.939 72.1591 773.939 71.9091C773.939 71.6591 774.032 71.4451 774.217 71.267C774.407 71.089 774.632 71 774.893 71C775.155 71 775.378 71.089 775.564 71.267C775.753 71.4451 775.848 71.6591 775.848 71.9091C775.848 72.1591 775.753 72.3731 775.564 72.5511C775.378 72.7292 775.155 72.8182 774.893 72.8182ZM780.577 83.2045C780.024 83.2045 779.522 83.1004 779.071 82.892C778.62 82.6799 778.262 82.375 777.997 81.9773C777.732 81.5758 777.599 81.0909 777.599 80.5227C777.599 80.0227 777.698 79.6174 777.895 79.3068C778.092 78.9924 778.355 78.7462 778.685 78.5682C779.014 78.3902 779.378 78.2576 779.776 78.1705C780.177 78.0795 780.58 78.0076 780.986 77.9545C781.516 77.8864 781.946 77.8352 782.276 77.8011C782.609 77.7633 782.851 77.7008 783.003 77.6136C783.158 77.5265 783.236 77.375 783.236 77.1591V77.1136C783.236 76.553 783.082 76.1174 782.776 75.8068C782.473 75.4962 782.012 75.3409 781.395 75.3409C780.755 75.3409 780.253 75.4811 779.889 75.7614C779.526 76.0417 779.27 76.3409 779.122 76.6591L777.849 76.2045C778.077 75.6742 778.38 75.2614 778.759 74.9659C779.141 74.6667 779.558 74.4583 780.009 74.3409C780.463 74.2197 780.91 74.1591 781.349 74.1591C781.63 74.1591 781.952 74.1932 782.315 74.2614C782.683 74.3258 783.037 74.4602 783.378 74.6648C783.723 74.8693 784.009 75.178 784.236 75.5909C784.463 76.0038 784.577 76.5568 784.577 77.25V83H783.236V81.8182H783.168C783.077 82.0076 782.925 82.2102 782.713 82.4261C782.501 82.642 782.219 82.8258 781.866 82.9773C781.514 83.1288 781.084 83.2045 780.577 83.2045ZM780.781 82C781.312 82 781.759 81.8958 782.122 81.6875C782.49 81.4792 782.766 81.2102 782.952 80.8807C783.141 80.5511 783.236 80.2045 783.236 79.8409V78.6136C783.179 78.6818 783.054 78.7443 782.861 78.8011C782.671 78.8542 782.452 78.9015 782.202 78.9432C781.955 78.9811 781.715 79.0152 781.48 79.0455C781.249 79.072 781.062 79.0947 780.918 79.1136C780.569 79.1591 780.243 79.233 779.94 79.3352C779.641 79.4337 779.399 79.5833 779.213 79.7841C779.031 79.9811 778.94 80.25 778.94 80.5909C778.94 81.0568 779.113 81.4091 779.457 81.6477C779.806 81.8826 780.247 82 780.781 82ZM792.024 77.3864V78.6364H786.933V77.3864H792.024ZM795.724 71.3636V83H794.384V71.3636H795.724ZM800.749 83.2045C800.196 83.2045 799.694 83.1004 799.243 82.892C798.792 82.6799 798.434 82.375 798.169 81.9773C797.904 81.5758 797.771 81.0909 797.771 80.5227C797.771 80.0227 797.87 79.6174 798.067 79.3068C798.264 78.9924 798.527 78.7462 798.857 78.5682C799.186 78.3902 799.55 78.2576 799.947 78.1705C800.349 78.0795 800.752 78.0076 801.158 77.9545C801.688 77.8864 802.118 77.8352 802.447 77.8011C802.781 77.7633 803.023 77.7008 803.175 77.6136C803.33 77.5265 803.408 77.375 803.408 77.1591V77.1136C803.408 76.553 803.254 76.1174 802.947 75.8068C802.644 75.4962 802.184 75.3409 801.567 75.3409C800.927 75.3409 800.425 75.4811 800.061 75.7614C799.697 76.0417 799.442 76.3409 799.294 76.6591L798.021 76.2045C798.249 75.6742 798.552 75.2614 798.93 74.9659C799.313 74.6667 799.73 74.4583 800.18 74.3409C800.635 74.2197 801.082 74.1591 801.521 74.1591C801.802 74.1591 802.124 74.1932 802.487 74.2614C802.855 74.3258 803.209 74.4602 803.55 74.6648C803.894 74.8693 804.18 75.178 804.408 75.5909C804.635 76.0038 804.749 76.5568 804.749 77.25V83H803.408V81.8182H803.339C803.249 82.0076 803.097 82.2102 802.885 82.4261C802.673 82.642 802.391 82.8258 802.038 82.9773C801.686 83.1288 801.256 83.2045 800.749 83.2045ZM800.953 82C801.483 82 801.93 81.8958 802.294 81.6875C802.661 81.4792 802.938 81.2102 803.124 80.8807C803.313 80.5511 803.408 80.2045 803.408 79.8409V78.6136C803.351 78.6818 803.226 78.7443 803.033 78.8011C802.843 78.8542 802.624 78.9015 802.374 78.9432C802.127 78.9811 801.887 79.0152 801.652 79.0455C801.421 79.072 801.233 79.0947 801.089 79.1136C800.741 79.1591 800.415 79.233 800.112 79.3352C799.813 79.4337 799.571 79.5833 799.385 79.7841C799.203 79.9811 799.112 80.25 799.112 80.5909C799.112 81.0568 799.285 81.4091 799.629 81.6477C799.978 81.8826 800.419 82 800.953 82ZM807.378 83V71.3636H808.719V75.6591H808.832C808.931 75.5076 809.067 75.3144 809.241 75.0795C809.42 74.8409 809.673 74.6288 810.003 74.4432C810.336 74.2538 810.787 74.1591 811.355 74.1591C812.09 74.1591 812.738 74.3428 813.298 74.7102C813.859 75.0777 814.296 75.5985 814.611 76.2727C814.925 76.947 815.082 77.7424 815.082 78.6591C815.082 79.5833 814.925 80.3845 814.611 81.0625C814.296 81.7367 813.861 82.2595 813.304 82.6307C812.747 82.9981 812.105 83.1818 811.378 83.1818C810.817 83.1818 810.368 83.089 810.031 82.9034C809.694 82.714 809.435 82.5 809.253 82.2614C809.071 82.0189 808.931 81.8182 808.832 81.6591H808.673V83H807.378ZM808.696 78.6364C808.696 79.2955 808.793 79.8769 808.986 80.3807C809.179 80.8807 809.461 81.2727 809.832 81.5568C810.204 81.8371 810.658 81.9773 811.196 81.9773C811.757 81.9773 812.224 81.8295 812.599 81.5341C812.978 81.2348 813.262 80.8333 813.452 80.3295C813.645 79.822 813.741 79.2576 813.741 78.6364C813.741 78.0227 813.647 77.4697 813.457 76.9773C813.272 76.4811 812.99 76.089 812.611 75.8011C812.236 75.5095 811.764 75.3636 811.196 75.3636C810.651 75.3636 810.192 75.5019 809.821 75.7784C809.45 76.0511 809.17 76.4337 808.98 76.9261C808.791 77.4148 808.696 77.9848 808.696 78.6364ZM820.793 83.1818C819.952 83.1818 819.226 82.9962 818.616 82.625C818.01 82.25 817.543 81.7273 817.213 81.0568C816.887 80.3826 816.724 79.5985 816.724 78.7045C816.724 77.8106 816.887 77.0227 817.213 76.3409C817.543 75.6553 818.001 75.1212 818.588 74.7386C819.179 74.3523 819.868 74.1591 820.656 74.1591C821.111 74.1591 821.56 74.2348 822.003 74.3864C822.446 74.5379 822.849 74.7841 823.213 75.125C823.577 75.4621 823.866 75.9091 824.082 76.4659C824.298 77.0227 824.406 77.7083 824.406 78.5227V79.0909H817.679V77.9318H823.043C823.043 77.4394 822.944 77 822.747 76.6136C822.554 76.2273 822.277 75.9223 821.918 75.6989C821.562 75.4754 821.141 75.3636 820.656 75.3636C820.122 75.3636 819.66 75.4962 819.27 75.7614C818.884 76.0227 818.586 76.3636 818.378 76.7841C818.17 77.2045 818.065 77.6553 818.065 78.1364V78.9091C818.065 79.5682 818.179 80.1269 818.406 80.5852C818.637 81.0398 818.957 81.3864 819.366 81.625C819.776 81.8598 820.251 81.9773 820.793 81.9773C821.145 81.9773 821.463 81.928 821.747 81.8295C822.035 81.7273 822.283 81.5758 822.491 81.375C822.7 81.1705 822.861 80.9167 822.974 80.6136L824.27 80.9773C824.134 81.4167 823.904 81.803 823.582 82.1364C823.26 82.4659 822.863 82.7235 822.389 82.9091C821.916 83.0909 821.384 83.1818 820.793 83.1818ZM827.787 71.3636V83H826.446V71.3636H827.787ZM831.584 71.3636V83H830.243V71.3636H831.584ZM837.699 83.1818C836.858 83.1818 836.133 82.9962 835.523 82.625C834.917 82.25 834.449 81.7273 834.119 81.0568C833.794 80.3826 833.631 79.5985 833.631 78.7045C833.631 77.8106 833.794 77.0227 834.119 76.3409C834.449 75.6553 834.907 75.1212 835.494 74.7386C836.085 74.3523 836.775 74.1591 837.562 74.1591C838.017 74.1591 838.466 74.2348 838.909 74.3864C839.352 74.5379 839.756 74.7841 840.119 75.125C840.483 75.4621 840.773 75.9091 840.989 76.4659C841.205 77.0227 841.312 77.7083 841.312 78.5227V79.0909H834.585V77.9318H839.949C839.949 77.4394 839.85 77 839.653 76.6136C839.46 76.2273 839.184 75.9223 838.824 75.6989C838.468 75.4754 838.047 75.3636 837.562 75.3636C837.028 75.3636 836.566 75.4962 836.176 75.7614C835.79 76.0227 835.492 76.3636 835.284 76.7841C835.076 77.2045 834.972 77.6553 834.972 78.1364V78.9091C834.972 79.5682 835.085 80.1269 835.312 80.5852C835.544 81.0398 835.864 81.3864 836.273 81.625C836.682 81.8598 837.157 81.9773 837.699 81.9773C838.051 81.9773 838.369 81.928 838.653 81.8295C838.941 81.7273 839.189 81.5758 839.398 81.375C839.606 81.1705 839.767 80.9167 839.881 80.6136L841.176 80.9773C841.04 81.4167 840.811 81.803 840.489 82.1364C840.167 82.4659 839.769 82.7235 839.295 82.9091C838.822 83.0909 838.29 83.1818 837.699 83.1818ZM846.648 83.1818C845.92 83.1818 845.278 82.9981 844.722 82.6307C844.165 82.2595 843.729 81.7367 843.415 81.0625C843.1 80.3845 842.943 79.5833 842.943 78.6591C842.943 77.7424 843.1 76.947 843.415 76.2727C843.729 75.5985 844.167 75.0777 844.727 74.7102C845.288 74.3428 845.936 74.1591 846.67 74.1591C847.239 74.1591 847.688 74.2538 848.017 74.4432C848.35 74.6288 848.604 74.8409 848.778 75.0795C848.956 75.3144 849.095 75.5076 849.193 75.6591H849.307V71.3636H850.648V83H849.352V81.6591H849.193C849.095 81.8182 848.955 82.0189 848.773 82.2614C848.591 82.5 848.331 82.714 847.994 82.9034C847.657 83.089 847.208 83.1818 846.648 83.1818ZM846.83 81.9773C847.367 81.9773 847.822 81.8371 848.193 81.5568C848.564 81.2727 848.847 80.8807 849.04 80.3807C849.233 79.8769 849.33 79.2955 849.33 78.6364C849.33 77.9848 849.235 77.4148 849.045 76.9261C848.856 76.4337 848.576 76.0511 848.205 75.7784C847.833 75.5019 847.375 75.3636 846.83 75.3636C846.261 75.3636 845.788 75.5095 845.409 75.8011C845.034 76.089 844.752 76.4811 844.562 76.9773C844.377 77.4697 844.284 78.0227 844.284 78.6364C844.284 79.2576 844.379 79.822 844.568 80.3295C844.761 80.8333 845.045 81.2348 845.42 81.5341C845.799 81.8295 846.269 81.9773 846.83 81.9773ZM853.472 83V71.3636H854.812V75.6591H854.926C855.025 75.5076 855.161 75.3144 855.335 75.0795C855.513 74.8409 855.767 74.6288 856.097 74.4432C856.43 74.2538 856.881 74.1591 857.449 74.1591C858.184 74.1591 858.831 74.3428 859.392 74.7102C859.953 75.0777 860.39 75.5985 860.705 76.2727C861.019 76.947 861.176 77.7424 861.176 78.6591C861.176 79.5833 861.019 80.3845 860.705 81.0625C860.39 81.7367 859.955 82.2595 859.398 82.6307C858.841 82.9981 858.199 83.1818 857.472 83.1818C856.911 83.1818 856.462 83.089 856.125 82.9034C855.788 82.714 855.528 82.5 855.347 82.2614C855.165 82.0189 855.025 81.8182 854.926 81.6591H854.767V83H853.472ZM854.79 78.6364C854.79 79.2955 854.886 79.8769 855.08 80.3807C855.273 80.8807 855.555 81.2727 855.926 81.5568C856.297 81.8371 856.752 81.9773 857.29 81.9773C857.85 81.9773 858.318 81.8295 858.693 81.5341C859.072 81.2348 859.356 80.8333 859.545 80.3295C859.739 79.822 859.835 79.2576 859.835 78.6364C859.835 78.0227 859.741 77.4697 859.551 76.9773C859.366 76.4811 859.083 76.089 858.705 75.8011C858.33 75.5095 857.858 75.3636 857.29 75.3636C856.744 75.3636 856.286 75.5019 855.915 75.7784C855.544 76.0511 855.263 76.4337 855.074 76.9261C854.884 77.4148 854.79 77.9848 854.79 78.6364ZM863.778 86.25C863.551 86.25 863.348 86.2311 863.17 86.1932C862.992 86.1591 862.869 86.125 862.801 86.0909L863.142 84.9091C863.631 85.0341 864.038 85.0303 864.364 84.8977C864.689 84.7689 864.972 84.3788 865.21 83.7273L865.46 83.0455L862.233 74.2727H863.688L866.097 81.2273H866.188L868.597 74.2727L870.062 74.2955L866.347 84.2727C866.18 84.7159 865.973 85.0833 865.727 85.375C865.481 85.6705 865.195 85.8902 864.869 86.0341C864.547 86.178 864.184 86.25 863.778 86.25ZM871.741 77.3864V76.1591H878.741V77.3864H871.741ZM871.741 80.75V79.5227H878.741V80.75H871.741ZM882.902 71.3636V75.3636H881.652V71.3636H882.902ZM885.811 71.3636V75.3636H884.561V71.3636H885.811ZM888.196 83V74.2727H889.491V75.5909H889.582C889.741 75.1591 890.029 74.8087 890.446 74.5398C890.863 74.2708 891.332 74.1364 891.855 74.1364C891.954 74.1364 892.077 74.1383 892.224 74.142C892.372 74.1458 892.484 74.1515 892.56 74.1591V75.5227C892.514 75.5114 892.41 75.4943 892.247 75.4716C892.088 75.4451 891.92 75.4318 891.741 75.4318C891.317 75.4318 890.938 75.5208 890.605 75.6989C890.276 75.8731 890.014 76.1155 889.821 76.4261C889.632 76.733 889.537 77.0833 889.537 77.4773V83H888.196ZM897.543 83.1818C896.702 83.1818 895.976 82.9962 895.366 82.625C894.76 82.25 894.293 81.7273 893.963 81.0568C893.637 80.3826 893.474 79.5985 893.474 78.7045C893.474 77.8106 893.637 77.0227 893.963 76.3409C894.293 75.6553 894.751 75.1212 895.338 74.7386C895.929 74.3523 896.618 74.1591 897.406 74.1591C897.861 74.1591 898.31 74.2348 898.753 74.3864C899.196 74.5379 899.599 74.7841 899.963 75.125C900.327 75.4621 900.616 75.9091 900.832 76.4659C901.048 77.0227 901.156 77.7083 901.156 78.5227V79.0909H894.429V77.9318H899.793C899.793 77.4394 899.694 77 899.497 76.6136C899.304 76.2273 899.027 75.9223 898.668 75.6989C898.312 75.4754 897.891 75.3636 897.406 75.3636C896.872 75.3636 896.41 75.4962 896.02 75.7614C895.634 76.0227 895.336 76.3636 895.128 76.7841C894.92 77.2045 894.815 77.6553 894.815 78.1364V78.9091C894.815 79.5682 894.929 80.1269 895.156 80.5852C895.387 81.0398 895.707 81.3864 896.116 81.625C896.526 81.8598 897.001 81.9773 897.543 81.9773C897.895 81.9773 898.213 81.928 898.497 81.8295C898.785 81.7273 899.033 81.5758 899.241 81.375C899.45 81.1705 899.611 80.9167 899.724 80.6136L901.02 80.9773C900.884 81.4167 900.654 81.803 900.332 82.1364C900.01 82.4659 899.613 82.7235 899.139 82.9091C898.666 83.0909 898.134 83.1818 897.543 83.1818ZM906.719 86.4545C906.071 86.4545 905.514 86.3712 905.048 86.2045C904.582 86.0417 904.194 85.8258 903.884 85.5568C903.577 85.2917 903.332 85.0076 903.151 84.7045L904.219 83.9545C904.34 84.1136 904.493 84.2955 904.679 84.5C904.865 84.7083 905.118 84.8883 905.44 85.0398C905.766 85.1951 906.192 85.2727 906.719 85.2727C907.423 85.2727 908.005 85.1023 908.463 84.7614C908.921 84.4205 909.151 83.8864 909.151 83.1591V81.3864H909.037C908.938 81.5455 908.798 81.7424 908.616 81.9773C908.438 82.2083 908.181 82.4148 907.844 82.5966C907.51 82.7746 907.06 82.8636 906.491 82.8636C905.787 82.8636 905.154 82.697 904.594 82.3636C904.037 82.0303 903.596 81.5455 903.27 80.9091C902.948 80.2727 902.787 79.5 902.787 78.5909C902.787 77.697 902.944 76.9186 903.259 76.2557C903.573 75.589 904.01 75.0739 904.571 74.7102C905.132 74.3428 905.779 74.1591 906.514 74.1591C907.082 74.1591 907.533 74.2538 907.866 74.4432C908.204 74.6288 908.461 74.8409 908.639 75.0795C908.821 75.3144 908.961 75.5076 909.06 75.6591H909.196V74.2727H910.491V83.25C910.491 84 910.321 84.6098 909.98 85.0795C909.643 85.553 909.188 85.8996 908.616 86.1193C908.048 86.3428 907.416 86.4545 906.719 86.4545ZM906.673 81.6591C907.211 81.6591 907.666 81.536 908.037 81.2898C908.408 81.0436 908.69 80.6894 908.884 80.2273C909.077 79.7652 909.173 79.2121 909.173 78.5682C909.173 77.9394 909.079 77.3845 908.889 76.9034C908.7 76.4223 908.42 76.0455 908.048 75.7727C907.677 75.5 907.219 75.3636 906.673 75.3636C906.105 75.3636 905.632 75.5076 905.253 75.7955C904.878 76.0833 904.596 76.4697 904.406 76.9545C904.221 77.4394 904.128 77.9773 904.128 78.5682C904.128 79.1742 904.223 79.7102 904.412 80.1761C904.605 80.6383 904.889 81.0019 905.264 81.267C905.643 81.5284 906.113 81.6591 906.673 81.6591ZM912.946 83V74.2727H914.287V83H912.946ZM913.628 72.8182C913.366 72.8182 913.141 72.7292 912.952 72.5511C912.766 72.3731 912.673 72.1591 912.673 71.9091C912.673 71.6591 912.766 71.4451 912.952 71.267C913.141 71.089 913.366 71 913.628 71C913.889 71 914.113 71.089 914.298 71.267C914.488 71.4451 914.582 71.6591 914.582 71.9091C914.582 72.1591 914.488 72.3731 914.298 72.5511C914.113 72.7292 913.889 72.8182 913.628 72.8182ZM920.288 83.1818C919.5 83.1818 918.809 82.9943 918.214 82.6193C917.624 82.2443 917.161 81.7197 916.828 81.0455C916.499 80.3712 916.334 79.5833 916.334 78.6818C916.334 77.7727 916.499 76.9792 916.828 76.3011C917.161 75.6231 917.624 75.0966 918.214 74.7216C918.809 74.3466 919.5 74.1591 920.288 74.1591C921.076 74.1591 921.766 74.3466 922.357 74.7216C922.951 75.0966 923.413 75.6231 923.743 76.3011C924.076 76.9792 924.243 77.7727 924.243 78.6818C924.243 79.5833 924.076 80.3712 923.743 81.0455C923.413 81.7197 922.951 82.2443 922.357 82.6193C921.766 82.9943 921.076 83.1818 920.288 83.1818ZM920.288 81.9773C920.887 81.9773 921.379 81.8239 921.766 81.517C922.152 81.2102 922.438 80.8068 922.624 80.3068C922.809 79.8068 922.902 79.2652 922.902 78.6818C922.902 78.0985 922.809 77.5549 922.624 77.0511C922.438 76.5473 922.152 76.1402 921.766 75.8295C921.379 75.5189 920.887 75.3636 920.288 75.3636C919.69 75.3636 919.197 75.5189 918.811 75.8295C918.425 76.1402 918.139 76.5473 917.953 77.0511C917.768 77.5549 917.675 78.0985 917.675 78.6818C917.675 79.2652 917.768 79.8068 917.953 80.3068C918.139 80.8068 918.425 81.2102 918.811 81.517C919.197 81.8239 919.69 81.9773 920.288 81.9773ZM927.631 77.75V83H926.29V74.2727H927.585V75.6364H927.699C927.903 75.1932 928.214 74.8371 928.631 74.5682C929.047 74.2955 929.585 74.1591 930.244 74.1591C930.835 74.1591 931.352 74.2803 931.795 74.5227C932.239 74.7614 932.583 75.125 932.83 75.6136C933.076 76.0985 933.199 76.7121 933.199 77.4545V83H931.858V77.5455C931.858 76.8598 931.68 76.3258 931.324 75.9432C930.968 75.5568 930.479 75.3636 929.858 75.3636C929.43 75.3636 929.047 75.4564 928.71 75.642C928.377 75.8277 928.114 76.0985 927.92 76.4545C927.727 76.8106 927.631 77.2424 927.631 77.75ZM936.99 77.75V83H935.649V71.3636H936.99V75.6364H937.104C937.308 75.1856 937.615 74.8277 938.024 74.5625C938.437 74.2936 938.986 74.1591 939.672 74.1591C940.267 74.1591 940.787 74.2784 941.234 74.517C941.681 74.7519 942.028 75.1136 942.274 75.6023C942.524 76.0871 942.649 76.7045 942.649 77.4545V83H941.308V77.5455C941.308 76.8523 941.128 76.3163 940.768 75.9375C940.412 75.5549 939.918 75.3636 939.286 75.3636C938.846 75.3636 938.452 75.4564 938.104 75.642C937.759 75.8277 937.486 76.0985 937.286 76.4545C937.089 76.8106 936.99 77.2424 936.99 77.75ZM948.761 83.1818C947.92 83.1818 947.195 82.9962 946.585 82.625C945.979 82.25 945.511 81.7273 945.182 81.0568C944.856 80.3826 944.693 79.5985 944.693 78.7045C944.693 77.8106 944.856 77.0227 945.182 76.3409C945.511 75.6553 945.97 75.1212 946.557 74.7386C947.148 74.3523 947.837 74.1591 948.625 74.1591C949.08 74.1591 949.528 74.2348 949.972 74.3864C950.415 74.5379 950.818 74.7841 951.182 75.125C951.545 75.4621 951.835 75.9091 952.051 76.4659C952.267 77.0227 952.375 77.7083 952.375 78.5227V79.0909H945.648V77.9318H951.011C951.011 77.4394 950.913 77 950.716 76.6136C950.523 76.2273 950.246 75.9223 949.886 75.6989C949.53 75.4754 949.11 75.3636 948.625 75.3636C948.091 75.3636 947.629 75.4962 947.239 75.7614C946.852 76.0227 946.555 76.3636 946.347 76.7841C946.138 77.2045 946.034 77.6553 946.034 78.1364V78.9091C946.034 79.5682 946.148 80.1269 946.375 80.5852C946.606 81.0398 946.926 81.3864 947.335 81.625C947.744 81.8598 948.22 81.9773 948.761 81.9773C949.114 81.9773 949.432 81.928 949.716 81.8295C950.004 81.7273 950.252 81.5758 950.46 81.375C950.669 81.1705 950.83 80.9167 950.943 80.6136L952.239 80.9773C952.102 81.4167 951.873 81.803 951.551 82.1364C951.229 82.4659 950.831 82.7235 950.358 82.9091C949.884 83.0909 949.352 83.1818 948.761 83.1818ZM956.983 83.2045C956.43 83.2045 955.928 83.1004 955.477 82.892C955.027 82.6799 954.669 82.375 954.403 81.9773C954.138 81.5758 954.006 81.0909 954.006 80.5227C954.006 80.0227 954.104 79.6174 954.301 79.3068C954.498 78.9924 954.761 78.7462 955.091 78.5682C955.42 78.3902 955.784 78.2576 956.182 78.1705C956.583 78.0795 956.987 78.0076 957.392 77.9545C957.922 77.8864 958.352 77.8352 958.682 77.8011C959.015 77.7633 959.258 77.7008 959.409 77.6136C959.564 77.5265 959.642 77.375 959.642 77.1591V77.1136C959.642 76.553 959.489 76.1174 959.182 75.8068C958.879 75.4962 958.419 75.3409 957.801 75.3409C957.161 75.3409 956.659 75.4811 956.295 75.7614C955.932 76.0417 955.676 76.3409 955.528 76.6591L954.256 76.2045C954.483 75.6742 954.786 75.2614 955.165 74.9659C955.547 74.6667 955.964 74.4583 956.415 74.3409C956.869 74.2197 957.316 74.1591 957.756 74.1591C958.036 74.1591 958.358 74.1932 958.722 74.2614C959.089 74.3258 959.443 74.4602 959.784 74.6648C960.129 74.8693 960.415 75.178 960.642 75.5909C960.869 76.0038 960.983 76.5568 960.983 77.25V83H959.642V81.8182H959.574C959.483 82.0076 959.331 82.2102 959.119 82.4261C958.907 82.642 958.625 82.8258 958.273 82.9773C957.92 83.1288 957.491 83.2045 956.983 83.2045ZM957.188 82C957.718 82 958.165 81.8958 958.528 81.6875C958.896 81.4792 959.172 81.2102 959.358 80.8807C959.547 80.5511 959.642 80.2045 959.642 79.8409V78.6136C959.585 78.6818 959.46 78.7443 959.267 78.8011C959.078 78.8542 958.858 78.9015 958.608 78.9432C958.362 78.9811 958.121 79.0152 957.886 79.0455C957.655 79.072 957.468 79.0947 957.324 79.1136C956.975 79.1591 956.65 79.233 956.347 79.3352C956.047 79.4337 955.805 79.5833 955.619 79.7841C955.438 79.9811 955.347 80.25 955.347 80.5909C955.347 81.0568 955.519 81.4091 955.864 81.6477C956.212 81.8826 956.653 82 957.188 82ZM966.726 83.1818C965.999 83.1818 965.357 82.9981 964.8 82.6307C964.243 82.2595 963.807 81.7367 963.493 81.0625C963.179 80.3845 963.021 79.5833 963.021 78.6591C963.021 77.7424 963.179 76.947 963.493 76.2727C963.807 75.5985 964.245 75.0777 964.805 74.7102C965.366 74.3428 966.014 74.1591 966.749 74.1591C967.317 74.1591 967.766 74.2538 968.095 74.4432C968.429 74.6288 968.682 74.8409 968.857 75.0795C969.035 75.3144 969.173 75.5076 969.271 75.6591H969.385V71.3636H970.726V83H969.43V81.6591H969.271C969.173 81.8182 969.033 82.0189 968.851 82.2614C968.669 82.5 968.41 82.714 968.072 82.9034C967.735 83.089 967.286 83.1818 966.726 83.1818ZM966.908 81.9773C967.446 81.9773 967.9 81.8371 968.271 81.5568C968.643 81.2727 968.925 80.8807 969.118 80.3807C969.311 79.8769 969.408 79.2955 969.408 78.6364C969.408 77.9848 969.313 77.4148 969.124 76.9261C968.934 76.4337 968.654 76.0511 968.283 75.7784C967.911 75.5019 967.453 75.3636 966.908 75.3636C966.339 75.3636 965.866 75.5095 965.487 75.8011C965.112 76.089 964.83 76.4811 964.641 76.9773C964.455 77.4697 964.362 78.0227 964.362 78.6364C964.362 79.2576 964.457 79.822 964.646 80.3295C964.839 80.8333 965.124 81.2348 965.499 81.5341C965.877 81.8295 966.347 81.9773 966.908 81.9773ZM973.368 83V74.2727H974.709V83H973.368ZM974.05 72.8182C973.788 72.8182 973.563 72.7292 973.374 72.5511C973.188 72.3731 973.095 72.1591 973.095 71.9091C973.095 71.6591 973.188 71.4451 973.374 71.267C973.563 71.089 973.788 71 974.05 71C974.311 71 974.535 71.089 974.72 71.267C974.91 71.4451 975.004 71.6591 975.004 71.9091C975.004 72.1591 974.91 72.3731 974.72 72.5511C974.535 72.7292 974.311 72.8182 974.05 72.8182ZM978.506 77.75V83H977.165V74.2727H978.46V75.6364H978.574C978.778 75.1932 979.089 74.8371 979.506 74.5682C979.922 74.2955 980.46 74.1591 981.119 74.1591C981.71 74.1591 982.227 74.2803 982.67 74.5227C983.114 74.7614 983.458 75.125 983.705 75.6136C983.951 76.0985 984.074 76.7121 984.074 77.4545V83H982.733V77.5455C982.733 76.8598 982.555 76.3258 982.199 75.9432C981.843 75.5568 981.354 75.3636 980.733 75.3636C980.305 75.3636 979.922 75.4564 979.585 75.642C979.252 75.8277 978.989 76.0985 978.795 76.4545C978.602 76.8106 978.506 77.2424 978.506 77.75ZM990.047 86.4545C989.399 86.4545 988.842 86.3712 988.376 86.2045C987.911 86.0417 987.522 85.8258 987.212 85.5568C986.905 85.2917 986.661 85.0076 986.479 84.7045L987.547 83.9545C987.668 84.1136 987.821 84.2955 988.007 84.5C988.193 84.7083 988.446 84.8883 988.768 85.0398C989.094 85.1951 989.52 85.2727 990.047 85.2727C990.751 85.2727 991.333 85.1023 991.791 84.7614C992.25 84.4205 992.479 83.8864 992.479 83.1591V81.3864H992.365C992.267 81.5455 992.126 81.7424 991.945 81.9773C991.767 82.2083 991.509 82.4148 991.172 82.5966C990.839 82.7746 990.388 82.8636 989.82 82.8636C989.115 82.8636 988.482 82.697 987.922 82.3636C987.365 82.0303 986.924 81.5455 986.598 80.9091C986.276 80.2727 986.115 79.5 986.115 78.5909C986.115 77.697 986.272 76.9186 986.587 76.2557C986.901 75.589 987.339 75.0739 987.899 74.7102C988.46 74.3428 989.107 74.1591 989.842 74.1591C990.411 74.1591 990.861 74.2538 991.195 74.4432C991.532 74.6288 991.789 74.8409 991.967 75.0795C992.149 75.3144 992.289 75.5076 992.388 75.6591H992.524V74.2727H993.82V83.25C993.82 84 993.649 84.6098 993.308 85.0795C992.971 85.553 992.517 85.8996 991.945 86.1193C991.376 86.3428 990.744 86.4545 990.047 86.4545ZM990.001 81.6591C990.539 81.6591 990.994 81.536 991.365 81.2898C991.736 81.0436 992.018 80.6894 992.212 80.2273C992.405 79.7652 992.501 79.2121 992.501 78.5682C992.501 77.9394 992.407 77.3845 992.217 76.9034C992.028 76.4223 991.748 76.0455 991.376 75.7727C991.005 75.5 990.547 75.3636 990.001 75.3636C989.433 75.3636 988.96 75.5076 988.581 75.7955C988.206 76.0833 987.924 76.4697 987.734 76.9545C987.549 77.4394 987.456 77.9773 987.456 78.5682C987.456 79.1742 987.551 79.7102 987.74 80.1761C987.933 80.6383 988.217 81.0019 988.592 81.267C988.971 81.5284 989.441 81.6591 990.001 81.6591ZM997.433 71.3636V75.3636H996.183V71.3636H997.433ZM1000.34 71.3636V75.3636H999.092V71.3636H1000.34ZM1010.43 78.9091L1003.11 82.6364V81.1818L1008.73 78.4773L1008.68 78.5682V78.3409L1008.73 78.4318L1003.11 75.7273V74.2727L1010.43 78V78.9091ZM726.614 102.909V102L733.932 98.2727V99.7273L728.318 102.432L728.364 102.341V102.568L728.318 102.477L733.932 105.182V106.636L726.614 102.909ZM738.115 95.3636V107H736.774V95.3636H738.115ZM743.139 107.205C742.586 107.205 742.084 107.1 741.634 106.892C741.183 106.68 740.825 106.375 740.56 105.977C740.295 105.576 740.162 105.091 740.162 104.523C740.162 104.023 740.26 103.617 740.457 103.307C740.654 102.992 740.918 102.746 741.247 102.568C741.577 102.39 741.94 102.258 742.338 102.17C742.74 102.08 743.143 102.008 743.548 101.955C744.079 101.886 744.509 101.835 744.838 101.801C745.171 101.763 745.414 101.701 745.565 101.614C745.721 101.527 745.798 101.375 745.798 101.159V101.114C745.798 100.553 745.645 100.117 745.338 99.8068C745.035 99.4962 744.575 99.3409 743.957 99.3409C743.317 99.3409 742.815 99.4811 742.452 99.7614C742.088 100.042 741.832 100.341 741.685 100.659L740.412 100.205C740.639 99.6742 740.942 99.2614 741.321 98.9659C741.704 98.6667 742.12 98.4583 742.571 98.3409C743.026 98.2197 743.473 98.1591 743.912 98.1591C744.192 98.1591 744.514 98.1932 744.878 98.2614C745.245 98.3258 745.599 98.4602 745.94 98.6648C746.285 98.8693 746.571 99.178 746.798 99.5909C747.026 100.004 747.139 100.557 747.139 101.25V107H745.798V105.818H745.73C745.639 106.008 745.488 106.21 745.276 106.426C745.063 106.642 744.781 106.826 744.429 106.977C744.077 107.129 743.647 107.205 743.139 107.205ZM743.344 106C743.874 106 744.321 105.896 744.685 105.688C745.052 105.479 745.329 105.21 745.514 104.881C745.704 104.551 745.798 104.205 745.798 103.841V102.614C745.741 102.682 745.616 102.744 745.423 102.801C745.234 102.854 745.014 102.902 744.764 102.943C744.518 102.981 744.277 103.015 744.043 103.045C743.812 103.072 743.624 103.095 743.48 103.114C743.132 103.159 742.806 103.233 742.503 103.335C742.204 103.434 741.961 103.583 741.776 103.784C741.594 103.981 741.503 104.25 741.503 104.591C741.503 105.057 741.675 105.409 742.02 105.648C742.368 105.883 742.81 106 743.344 106ZM749.768 107V95.3636H751.109V99.6591H751.223C751.321 99.5076 751.458 99.3144 751.632 99.0795C751.81 98.8409 752.064 98.6288 752.393 98.4432C752.727 98.2538 753.178 98.1591 753.746 98.1591C754.481 98.1591 755.128 98.3428 755.689 98.7102C756.25 99.0777 756.687 99.5985 757.001 100.273C757.316 100.947 757.473 101.742 757.473 102.659C757.473 103.583 757.316 104.384 757.001 105.062C756.687 105.737 756.251 106.259 755.695 106.631C755.138 106.998 754.496 107.182 753.768 107.182C753.208 107.182 752.759 107.089 752.422 106.903C752.085 106.714 751.825 106.5 751.643 106.261C751.462 106.019 751.321 105.818 751.223 105.659H751.064V107H749.768ZM751.087 102.636C751.087 103.295 751.183 103.877 751.376 104.381C751.57 104.881 751.852 105.273 752.223 105.557C752.594 105.837 753.049 105.977 753.587 105.977C754.147 105.977 754.615 105.83 754.99 105.534C755.369 105.235 755.653 104.833 755.842 104.33C756.036 103.822 756.132 103.258 756.132 102.636C756.132 102.023 756.037 101.47 755.848 100.977C755.662 100.481 755.38 100.089 755.001 99.8011C754.626 99.5095 754.155 99.3636 753.587 99.3636C753.041 99.3636 752.583 99.5019 752.212 99.7784C751.84 100.051 751.56 100.434 751.371 100.926C751.181 101.415 751.087 101.985 751.087 102.636ZM763.183 107.182C762.342 107.182 761.617 106.996 761.007 106.625C760.401 106.25 759.933 105.727 759.604 105.057C759.278 104.383 759.115 103.598 759.115 102.705C759.115 101.811 759.278 101.023 759.604 100.341C759.933 99.6553 760.392 99.1212 760.979 98.7386C761.57 98.3523 762.259 98.1591 763.047 98.1591C763.501 98.1591 763.95 98.2348 764.393 98.3864C764.837 98.5379 765.24 98.7841 765.604 99.125C765.967 99.4621 766.257 99.9091 766.473 100.466C766.689 101.023 766.797 101.708 766.797 102.523V103.091H760.07V101.932H765.433C765.433 101.439 765.335 101 765.138 100.614C764.945 100.227 764.668 99.9223 764.308 99.6989C763.952 99.4754 763.532 99.3636 763.047 99.3636C762.513 99.3636 762.051 99.4962 761.661 99.7614C761.274 100.023 760.977 100.364 760.768 100.784C760.56 101.205 760.456 101.655 760.456 102.136V102.909C760.456 103.568 760.57 104.127 760.797 104.585C761.028 105.04 761.348 105.386 761.757 105.625C762.166 105.86 762.642 105.977 763.183 105.977C763.536 105.977 763.854 105.928 764.138 105.83C764.426 105.727 764.674 105.576 764.882 105.375C765.09 105.17 765.251 104.917 765.365 104.614L766.661 104.977C766.524 105.417 766.295 105.803 765.973 106.136C765.651 106.466 765.253 106.723 764.78 106.909C764.306 107.091 763.774 107.182 763.183 107.182ZM770.178 95.3636V107H768.837V95.3636H770.178ZM777.134 107V98.2727H778.474V107H777.134ZM777.815 96.8182C777.554 96.8182 777.329 96.7292 777.139 96.5511C776.954 96.3731 776.861 96.1591 776.861 95.9091C776.861 95.6591 776.954 95.4451 777.139 95.267C777.329 95.089 777.554 95 777.815 95C778.077 95 778.3 95.089 778.486 95.267C778.675 95.4451 778.77 95.6591 778.77 95.9091C778.77 96.1591 778.675 96.3731 778.486 96.5511C778.3 96.7292 778.077 96.8182 777.815 96.8182ZM784.226 107.182C783.499 107.182 782.857 106.998 782.3 106.631C781.743 106.259 781.307 105.737 780.993 105.062C780.679 104.384 780.521 103.583 780.521 102.659C780.521 101.742 780.679 100.947 780.993 100.273C781.307 99.5985 781.745 99.0777 782.305 98.7102C782.866 98.3428 783.514 98.1591 784.249 98.1591C784.817 98.1591 785.266 98.2538 785.595 98.4432C785.929 98.6288 786.182 98.8409 786.357 99.0795C786.535 99.3144 786.673 99.5076 786.771 99.6591H786.885V95.3636H788.226V107H786.93V105.659H786.771C786.673 105.818 786.533 106.019 786.351 106.261C786.169 106.5 785.91 106.714 785.572 106.903C785.235 107.089 784.786 107.182 784.226 107.182ZM784.408 105.977C784.946 105.977 785.4 105.837 785.771 105.557C786.143 105.273 786.425 104.881 786.618 104.381C786.811 103.877 786.908 103.295 786.908 102.636C786.908 101.985 786.813 101.415 786.624 100.926C786.434 100.434 786.154 100.051 785.783 99.7784C785.411 99.5019 784.953 99.3636 784.408 99.3636C783.839 99.3636 783.366 99.5095 782.987 99.8011C782.612 100.089 782.33 100.481 782.141 100.977C781.955 101.47 781.862 102.023 781.862 102.636C781.862 103.258 781.957 103.822 782.146 104.33C782.339 104.833 782.624 105.235 782.999 105.534C783.377 105.83 783.847 105.977 784.408 105.977ZM791.413 101.386V100.159H798.413V101.386H791.413ZM791.413 104.75V103.523H798.413V104.75H791.413ZM802.574 95.3636V99.3636H801.324V95.3636H802.574ZM805.483 95.3636V99.3636H804.233V95.3636H805.483ZM807.868 107V98.2727H809.163V99.5909H809.254C809.413 99.1591 809.701 98.8087 810.118 98.5398C810.535 98.2708 811.004 98.1364 811.527 98.1364C811.625 98.1364 811.749 98.1383 811.896 98.142C812.044 98.1458 812.156 98.1515 812.232 98.1591V99.5227C812.186 99.5114 812.082 99.4943 811.919 99.4716C811.76 99.4451 811.591 99.4318 811.413 99.4318C810.989 99.4318 810.61 99.5208 810.277 99.6989C809.947 99.8731 809.686 100.116 809.493 100.426C809.304 100.733 809.209 101.083 809.209 101.477V107H807.868ZM817.214 107.182C816.374 107.182 815.648 106.996 815.038 106.625C814.432 106.25 813.964 105.727 813.635 105.057C813.309 104.383 813.146 103.598 813.146 102.705C813.146 101.811 813.309 101.023 813.635 100.341C813.964 99.6553 814.423 99.1212 815.01 98.7386C815.601 98.3523 816.29 98.1591 817.078 98.1591C817.533 98.1591 817.982 98.2348 818.425 98.3864C818.868 98.5379 819.271 98.7841 819.635 99.125C819.999 99.4621 820.288 99.9091 820.504 100.466C820.72 101.023 820.828 101.708 820.828 102.523V103.091H814.101V101.932H819.464C819.464 101.439 819.366 101 819.169 100.614C818.976 100.227 818.699 99.9223 818.339 99.6989C817.983 99.4754 817.563 99.3636 817.078 99.3636C816.544 99.3636 816.082 99.4962 815.692 99.7614C815.305 100.023 815.008 100.364 814.8 100.784C814.591 101.205 814.487 101.655 814.487 102.136V102.909C814.487 103.568 814.601 104.127 814.828 104.585C815.059 105.04 815.379 105.386 815.788 105.625C816.197 105.86 816.673 105.977 817.214 105.977C817.567 105.977 817.885 105.928 818.169 105.83C818.457 105.727 818.705 105.576 818.913 105.375C819.122 105.17 819.283 104.917 819.396 104.614L820.692 104.977C820.555 105.417 820.326 105.803 820.004 106.136C819.682 106.466 819.285 106.723 818.811 106.909C818.338 107.091 817.805 107.182 817.214 107.182ZM826.391 110.455C825.743 110.455 825.186 110.371 824.72 110.205C824.254 110.042 823.866 109.826 823.555 109.557C823.249 109.292 823.004 109.008 822.822 108.705L823.891 107.955C824.012 108.114 824.165 108.295 824.351 108.5C824.536 108.708 824.79 108.888 825.112 109.04C825.438 109.195 825.864 109.273 826.391 109.273C827.095 109.273 827.677 109.102 828.135 108.761C828.593 108.42 828.822 107.886 828.822 107.159V105.386H828.709C828.61 105.545 828.47 105.742 828.288 105.977C828.11 106.208 827.853 106.415 827.516 106.597C827.182 106.775 826.732 106.864 826.163 106.864C825.459 106.864 824.826 106.697 824.266 106.364C823.709 106.03 823.268 105.545 822.942 104.909C822.62 104.273 822.459 103.5 822.459 102.591C822.459 101.697 822.616 100.919 822.93 100.256C823.245 99.589 823.682 99.0739 824.243 98.7102C824.804 98.3428 825.451 98.1591 826.186 98.1591C826.754 98.1591 827.205 98.2538 827.538 98.4432C827.875 98.6288 828.133 98.8409 828.311 99.0795C828.493 99.3144 828.633 99.5076 828.732 99.6591H828.868V98.2727H830.163V107.25C830.163 108 829.993 108.61 829.652 109.08C829.315 109.553 828.86 109.9 828.288 110.119C827.72 110.343 827.088 110.455 826.391 110.455ZM826.345 105.659C826.883 105.659 827.338 105.536 827.709 105.29C828.08 105.044 828.362 104.689 828.555 104.227C828.749 103.765 828.845 103.212 828.845 102.568C828.845 101.939 828.75 101.384 828.561 100.903C828.372 100.422 828.091 100.045 827.72 99.7727C827.349 99.5 826.891 99.3636 826.345 99.3636C825.777 99.3636 825.304 99.5076 824.925 99.7955C824.55 100.083 824.268 100.47 824.078 100.955C823.893 101.439 823.8 101.977 823.8 102.568C823.8 103.174 823.894 103.71 824.084 104.176C824.277 104.638 824.561 105.002 824.936 105.267C825.315 105.528 825.785 105.659 826.345 105.659ZM832.618 107V98.2727H833.959V107H832.618ZM833.3 96.8182C833.038 96.8182 832.813 96.7292 832.624 96.5511C832.438 96.3731 832.345 96.1591 832.345 95.9091C832.345 95.6591 832.438 95.4451 832.624 95.267C832.813 95.089 833.038 95 833.3 95C833.561 95 833.785 95.089 833.97 95.267C834.16 95.4451 834.254 95.6591 834.254 95.9091C834.254 96.1591 834.16 96.3731 833.97 96.5511C833.785 96.7292 833.561 96.8182 833.3 96.8182ZM839.96 107.182C839.172 107.182 838.481 106.994 837.886 106.619C837.295 106.244 836.833 105.72 836.5 105.045C836.17 104.371 836.006 103.583 836.006 102.682C836.006 101.773 836.17 100.979 836.5 100.301C836.833 99.6231 837.295 99.0966 837.886 98.7216C838.481 98.3466 839.172 98.1591 839.96 98.1591C840.748 98.1591 841.438 98.3466 842.028 98.7216C842.623 99.0966 843.085 99.6231 843.415 100.301C843.748 100.979 843.915 101.773 843.915 102.682C843.915 103.583 843.748 104.371 843.415 105.045C843.085 105.72 842.623 106.244 842.028 106.619C841.438 106.994 840.748 107.182 839.96 107.182ZM839.96 105.977C840.559 105.977 841.051 105.824 841.438 105.517C841.824 105.21 842.11 104.807 842.295 104.307C842.481 103.807 842.574 103.265 842.574 102.682C842.574 102.098 842.481 101.555 842.295 101.051C842.11 100.547 841.824 100.14 841.438 99.8295C841.051 99.5189 840.559 99.3636 839.96 99.3636C839.362 99.3636 838.869 99.5189 838.483 99.8295C838.097 100.14 837.811 100.547 837.625 101.051C837.439 101.555 837.347 102.098 837.347 102.682C837.347 103.265 837.439 103.807 837.625 104.307C837.811 104.807 838.097 105.21 838.483 105.517C838.869 105.824 839.362 105.977 839.96 105.977ZM847.303 101.75V107H845.962V98.2727H847.257V99.6364H847.371C847.575 99.1932 847.886 98.8371 848.303 98.5682C848.719 98.2955 849.257 98.1591 849.916 98.1591C850.507 98.1591 851.024 98.2803 851.467 98.5227C851.911 98.7614 852.255 99.125 852.501 99.6136C852.748 100.098 852.871 100.712 852.871 101.455V107H851.53V101.545C851.53 100.86 851.352 100.326 850.996 99.9432C850.64 99.5568 850.151 99.3636 849.53 99.3636C849.102 99.3636 848.719 99.4564 848.382 99.642C848.049 99.8277 847.786 100.098 847.592 100.455C847.399 100.811 847.303 101.242 847.303 101.75ZM856.662 101.75V107H855.321V95.3636H856.662V99.6364H856.776C856.98 99.1856 857.287 98.8277 857.696 98.5625C858.109 98.2936 858.658 98.1591 859.344 98.1591C859.938 98.1591 860.459 98.2784 860.906 98.517C861.353 98.7519 861.7 99.1136 861.946 99.6023C862.196 100.087 862.321 100.705 862.321 101.455V107H860.98V101.545C860.98 100.852 860.8 100.316 860.44 99.9375C860.084 99.5549 859.59 99.3636 858.957 99.3636C858.518 99.3636 858.124 99.4564 857.776 99.642C857.431 99.8277 857.158 100.098 856.957 100.455C856.76 100.811 856.662 101.242 856.662 101.75ZM868.433 107.182C867.592 107.182 866.867 106.996 866.257 106.625C865.651 106.25 865.183 105.727 864.854 105.057C864.528 104.383 864.365 103.598 864.365 102.705C864.365 101.811 864.528 101.023 864.854 100.341C865.183 99.6553 865.642 99.1212 866.229 98.7386C866.82 98.3523 867.509 98.1591 868.297 98.1591C868.751 98.1591 869.2 98.2348 869.643 98.3864C870.087 98.5379 870.49 98.7841 870.854 99.125C871.217 99.4621 871.507 99.9091 871.723 100.466C871.939 101.023 872.047 101.708 872.047 102.523V103.091H865.32V101.932H870.683C870.683 101.439 870.585 101 870.388 100.614C870.195 100.227 869.918 99.9223 869.558 99.6989C869.202 99.4754 868.782 99.3636 868.297 99.3636C867.763 99.3636 867.301 99.4962 866.911 99.7614C866.524 100.023 866.227 100.364 866.018 100.784C865.81 101.205 865.706 101.655 865.706 102.136V102.909C865.706 103.568 865.82 104.127 866.047 104.585C866.278 105.04 866.598 105.386 867.007 105.625C867.416 105.86 867.892 105.977 868.433 105.977C868.786 105.977 869.104 105.928 869.388 105.83C869.676 105.727 869.924 105.576 870.132 105.375C870.34 105.17 870.501 104.917 870.615 104.614L871.911 104.977C871.774 105.417 871.545 105.803 871.223 106.136C870.901 106.466 870.503 106.723 870.03 106.909C869.556 107.091 869.024 107.182 868.433 107.182ZM876.655 107.205C876.102 107.205 875.6 107.1 875.149 106.892C874.698 106.68 874.34 106.375 874.075 105.977C873.81 105.576 873.678 105.091 873.678 104.523C873.678 104.023 873.776 103.617 873.973 103.307C874.17 102.992 874.433 102.746 874.763 102.568C875.092 102.39 875.456 102.258 875.854 102.17C876.255 102.08 876.659 102.008 877.064 101.955C877.594 101.886 878.024 101.835 878.354 101.801C878.687 101.763 878.929 101.701 879.081 101.614C879.236 101.527 879.314 101.375 879.314 101.159V101.114C879.314 100.553 879.161 100.117 878.854 99.8068C878.551 99.4962 878.09 99.3409 877.473 99.3409C876.833 99.3409 876.331 99.4811 875.967 99.7614C875.604 100.042 875.348 100.341 875.2 100.659L873.928 100.205C874.155 99.6742 874.458 99.2614 874.837 98.9659C875.219 98.6667 875.636 98.4583 876.087 98.3409C876.541 98.2197 876.988 98.1591 877.428 98.1591C877.708 98.1591 878.03 98.1932 878.393 98.2614C878.761 98.3258 879.115 98.4602 879.456 98.6648C879.801 98.8693 880.087 99.178 880.314 99.5909C880.541 100.004 880.655 100.557 880.655 101.25V107H879.314V105.818H879.246C879.155 106.008 879.003 106.21 878.791 106.426C878.579 106.642 878.297 106.826 877.945 106.977C877.592 107.129 877.162 107.205 876.655 107.205ZM876.859 106C877.39 106 877.837 105.896 878.2 105.688C878.568 105.479 878.844 105.21 879.03 104.881C879.219 104.551 879.314 104.205 879.314 103.841V102.614C879.257 102.682 879.132 102.744 878.939 102.801C878.75 102.854 878.53 102.902 878.28 102.943C878.034 102.981 877.793 103.015 877.558 103.045C877.327 103.072 877.14 103.095 876.996 103.114C876.647 103.159 876.321 103.233 876.018 103.335C875.719 103.434 875.477 103.583 875.291 103.784C875.109 103.981 875.018 104.25 875.018 104.591C875.018 105.057 875.191 105.409 875.536 105.648C875.884 105.883 876.325 106 876.859 106ZM886.398 107.182C885.67 107.182 885.028 106.998 884.472 106.631C883.915 106.259 883.479 105.737 883.165 105.062C882.85 104.384 882.693 103.583 882.693 102.659C882.693 101.742 882.85 100.947 883.165 100.273C883.479 99.5985 883.917 99.0777 884.477 98.7102C885.038 98.3428 885.686 98.1591 886.42 98.1591C886.989 98.1591 887.438 98.2538 887.767 98.4432C888.1 98.6288 888.354 98.8409 888.528 99.0795C888.706 99.3144 888.845 99.5076 888.943 99.6591H889.057V95.3636H890.398V107H889.102V105.659H888.943C888.845 105.818 888.705 106.019 888.523 106.261C888.341 106.5 888.081 106.714 887.744 106.903C887.407 107.089 886.958 107.182 886.398 107.182ZM886.58 105.977C887.117 105.977 887.572 105.837 887.943 105.557C888.314 105.273 888.597 104.881 888.79 104.381C888.983 103.877 889.08 103.295 889.08 102.636C889.08 101.985 888.985 101.415 888.795 100.926C888.606 100.434 888.326 100.051 887.955 99.7784C887.583 99.5019 887.125 99.3636 886.58 99.3636C886.011 99.3636 885.538 99.5095 885.159 99.8011C884.784 100.089 884.502 100.481 884.312 100.977C884.127 101.47 884.034 102.023 884.034 102.636C884.034 103.258 884.129 103.822 884.318 104.33C884.511 104.833 884.795 105.235 885.17 105.534C885.549 105.83 886.019 105.977 886.58 105.977ZM893.04 107V98.2727H894.381V107H893.04ZM893.722 96.8182C893.46 96.8182 893.235 96.7292 893.045 96.5511C892.86 96.3731 892.767 96.1591 892.767 95.9091C892.767 95.6591 892.86 95.4451 893.045 95.267C893.235 95.089 893.46 95 893.722 95C893.983 95 894.206 95.089 894.392 95.267C894.581 95.4451 894.676 95.6591 894.676 95.9091C894.676 96.1591 894.581 96.3731 894.392 96.5511C894.206 96.7292 893.983 96.8182 893.722 96.8182ZM898.178 101.75V107H896.837V98.2727H898.132V99.6364H898.246C898.45 99.1932 898.761 98.8371 899.178 98.5682C899.594 98.2955 900.132 98.1591 900.791 98.1591C901.382 98.1591 901.899 98.2803 902.342 98.5227C902.786 98.7614 903.13 99.125 903.376 99.6136C903.623 100.098 903.746 100.712 903.746 101.455V107H902.405V101.545C902.405 100.86 902.227 100.326 901.871 99.9432C901.515 99.5568 901.026 99.3636 900.405 99.3636C899.977 99.3636 899.594 99.4564 899.257 99.642C898.924 99.8277 898.661 100.098 898.467 100.455C898.274 100.811 898.178 101.242 898.178 101.75ZM909.719 110.455C909.071 110.455 908.514 110.371 908.048 110.205C907.582 110.042 907.194 109.826 906.884 109.557C906.577 109.292 906.332 109.008 906.151 108.705L907.219 107.955C907.34 108.114 907.493 108.295 907.679 108.5C907.865 108.708 908.118 108.888 908.44 109.04C908.766 109.195 909.192 109.273 909.719 109.273C910.423 109.273 911.005 109.102 911.463 108.761C911.921 108.42 912.151 107.886 912.151 107.159V105.386H912.037C911.938 105.545 911.798 105.742 911.616 105.977C911.438 106.208 911.181 106.415 910.844 106.597C910.51 106.775 910.06 106.864 909.491 106.864C908.787 106.864 908.154 106.697 907.594 106.364C907.037 106.03 906.596 105.545 906.27 104.909C905.948 104.273 905.787 103.5 905.787 102.591C905.787 101.697 905.944 100.919 906.259 100.256C906.573 99.589 907.01 99.0739 907.571 98.7102C908.132 98.3428 908.779 98.1591 909.514 98.1591C910.082 98.1591 910.533 98.2538 910.866 98.4432C911.204 98.6288 911.461 98.8409 911.639 99.0795C911.821 99.3144 911.961 99.5076 912.06 99.6591H912.196V98.2727H913.491V107.25C913.491 108 913.321 108.61 912.98 109.08C912.643 109.553 912.188 109.9 911.616 110.119C911.048 110.343 910.416 110.455 909.719 110.455ZM909.673 105.659C910.211 105.659 910.666 105.536 911.037 105.29C911.408 105.044 911.69 104.689 911.884 104.227C912.077 103.765 912.173 103.212 912.173 102.568C912.173 101.939 912.079 101.384 911.889 100.903C911.7 100.422 911.42 100.045 911.048 99.7727C910.677 99.5 910.219 99.3636 909.673 99.3636C909.105 99.3636 908.632 99.5076 908.253 99.7955C907.878 100.083 907.596 100.47 907.406 100.955C907.221 101.439 907.128 101.977 907.128 102.568C907.128 103.174 907.223 103.71 907.412 104.176C907.605 104.638 907.889 105.002 908.264 105.267C908.643 105.528 909.113 105.659 909.673 105.659ZM917.105 95.3636V99.3636H915.855V95.3636H917.105ZM920.014 95.3636V99.3636H918.764V95.3636H920.014ZM930.104 101.818L922.786 105.545V104.091L928.399 101.386L928.354 101.477V101.25L928.399 101.341L922.786 98.6364V97.1818L930.104 100.909V101.818ZM942.355 95.3636V107H940.991L934.651 97.8636H934.537V107H933.128V95.3636H934.491L940.855 104.523H940.969V95.3636H942.355ZM948.652 107.182C947.811 107.182 947.086 106.996 946.476 106.625C945.87 106.25 945.402 105.727 945.072 105.057C944.747 104.383 944.584 103.598 944.584 102.705C944.584 101.811 944.747 101.023 945.072 100.341C945.402 99.6553 945.86 99.1212 946.447 98.7386C947.038 98.3523 947.728 98.1591 948.516 98.1591C948.97 98.1591 949.419 98.2348 949.862 98.3864C950.305 98.5379 950.709 98.7841 951.072 99.125C951.436 99.4621 951.726 99.9091 951.942 100.466C952.158 101.023 952.266 101.708 952.266 102.523V103.091H945.538V101.932H950.902C950.902 101.439 950.804 101 950.607 100.614C950.413 100.227 950.137 99.9223 949.777 99.6989C949.421 99.4754 949 99.3636 948.516 99.3636C947.982 99.3636 947.519 99.4962 947.129 99.7614C946.743 100.023 946.446 100.364 946.237 100.784C946.029 101.205 945.925 101.655 945.925 102.136V102.909C945.925 103.568 946.038 104.127 946.266 104.585C946.497 105.04 946.817 105.386 947.226 105.625C947.635 105.86 948.11 105.977 948.652 105.977C949.004 105.977 949.322 105.928 949.607 105.83C949.894 105.727 950.143 105.576 950.351 105.375C950.559 105.17 950.72 104.917 950.834 104.614L952.129 104.977C951.993 105.417 951.764 105.803 951.442 106.136C951.12 106.466 950.722 106.723 950.249 106.909C949.775 107.091 949.243 107.182 948.652 107.182ZM956.283 107L953.624 98.2727H955.033L956.919 104.955H957.01L958.874 98.2727H960.305L962.146 104.932H962.237L964.124 98.2727H965.533L962.874 107H961.555L959.646 100.295H959.51L957.601 107H956.283ZM971.805 107V98.2727H973.101V99.6364H973.214C973.396 99.1705 973.69 98.8087 974.095 98.5511C974.5 98.2898 974.987 98.1591 975.555 98.1591C976.131 98.1591 976.61 98.2898 976.993 98.5511C977.379 98.8087 977.68 99.1705 977.896 99.6364H977.987C978.211 99.1856 978.546 98.8277 978.993 98.5625C979.44 98.2936 979.976 98.1591 980.601 98.1591C981.381 98.1591 982.019 98.4034 982.516 98.892C983.012 99.3769 983.26 100.133 983.26 101.159V107H981.919V101.159C981.919 100.515 981.743 100.055 981.391 99.7784C981.038 99.5019 980.624 99.3636 980.146 99.3636C979.533 99.3636 979.057 99.5492 978.72 99.9205C978.383 100.288 978.214 100.754 978.214 101.318V107H976.851V101.023C976.851 100.527 976.69 100.127 976.368 99.8239C976.046 99.517 975.631 99.3636 975.124 99.3636C974.775 99.3636 974.449 99.4564 974.146 99.642C973.847 99.8277 973.605 100.085 973.419 100.415C973.237 100.741 973.146 101.117 973.146 101.545V107H971.805ZM989.371 107.182C988.53 107.182 987.804 106.996 987.195 106.625C986.589 106.25 986.121 105.727 985.791 105.057C985.465 104.383 985.303 103.598 985.303 102.705C985.303 101.811 985.465 101.023 985.791 100.341C986.121 99.6553 986.579 99.1212 987.166 98.7386C987.757 98.3523 988.446 98.1591 989.234 98.1591C989.689 98.1591 990.138 98.2348 990.581 98.3864C991.024 98.5379 991.428 98.7841 991.791 99.125C992.155 99.4621 992.445 99.9091 992.661 100.466C992.876 101.023 992.984 101.708 992.984 102.523V103.091H986.257V101.932H991.621C991.621 101.439 991.522 101 991.325 100.614C991.132 100.227 990.856 99.9223 990.496 99.6989C990.14 99.4754 989.719 99.3636 989.234 99.3636C988.7 99.3636 988.238 99.4962 987.848 99.7614C987.462 100.023 987.164 100.364 986.956 100.784C986.748 101.205 986.643 101.655 986.643 102.136V102.909C986.643 103.568 986.757 104.127 986.984 104.585C987.215 105.04 987.536 105.386 987.945 105.625C988.354 105.86 988.829 105.977 989.371 105.977C989.723 105.977 990.041 105.928 990.325 105.83C990.613 105.727 990.861 105.576 991.07 105.375C991.278 105.17 991.439 104.917 991.553 104.614L992.848 104.977C992.712 105.417 992.482 105.803 992.161 106.136C991.839 106.466 991.441 106.723 990.967 106.909C990.494 107.091 989.962 107.182 989.371 107.182ZM1001.21 100.227L1000 100.568C999.926 100.367 999.814 100.172 999.666 99.983C999.522 99.7898 999.325 99.6307 999.075 99.5057C998.825 99.3807 998.505 99.3182 998.115 99.3182C997.581 99.3182 997.136 99.4413 996.78 99.6875C996.428 99.9299 996.251 100.239 996.251 100.614C996.251 100.947 996.373 101.21 996.615 101.403C996.857 101.597 997.236 101.758 997.751 101.886L999.047 102.205C999.827 102.394 1000.41 102.684 1000.79 103.074C1001.17 103.46 1001.37 103.958 1001.37 104.568C1001.37 105.068 1001.22 105.515 1000.93 105.909C1000.65 106.303 1000.25 106.614 999.74 106.841C999.229 107.068 998.634 107.182 997.956 107.182C997.066 107.182 996.329 106.989 995.746 106.602C995.162 106.216 994.793 105.652 994.638 104.909L995.911 104.591C996.032 105.061 996.261 105.413 996.598 105.648C996.939 105.883 997.384 106 997.933 106C998.558 106 999.054 105.867 999.422 105.602C999.793 105.333 999.979 105.011 999.979 104.636C999.979 104.333 999.873 104.08 999.661 103.875C999.448 103.667 999.123 103.511 998.683 103.409L997.229 103.068C996.429 102.879 995.842 102.585 995.467 102.188C995.096 101.786 994.911 101.284 994.911 100.682C994.911 100.189 995.049 99.7538 995.325 99.375C995.606 98.9962 995.986 98.6989 996.467 98.483C996.952 98.267 997.501 98.1591 998.115 98.1591C998.979 98.1591 999.657 98.3485 1000.15 98.7273C1000.65 99.1061 1001 99.6061 1001.21 100.227ZM1009.57 100.227L1008.36 100.568C1008.29 100.367 1008.17 100.172 1008.03 99.983C1007.88 99.7898 1007.68 99.6307 1007.43 99.5057C1007.18 99.3807 1006.86 99.3182 1006.47 99.3182C1005.94 99.3182 1005.5 99.4413 1005.14 99.6875C1004.79 99.9299 1004.61 100.239 1004.61 100.614C1004.61 100.947 1004.73 101.21 1004.97 101.403C1005.22 101.597 1005.6 101.758 1006.11 101.886L1007.41 102.205C1008.19 102.394 1008.77 102.684 1009.15 103.074C1009.53 103.46 1009.72 103.958 1009.72 104.568C1009.72 105.068 1009.58 105.515 1009.29 105.909C1009.01 106.303 1008.61 106.614 1008.1 106.841C1007.59 107.068 1006.99 107.182 1006.32 107.182C1005.43 107.182 1004.69 106.989 1004.11 106.602C1003.52 106.216 1003.15 105.652 1003 104.909L1004.27 104.591C1004.39 105.061 1004.62 105.413 1004.96 105.648C1005.3 105.883 1005.74 106 1006.29 106C1006.92 106 1007.41 105.867 1007.78 105.602C1008.15 105.333 1008.34 105.011 1008.34 104.636C1008.34 104.333 1008.23 104.08 1008.02 103.875C1007.81 103.667 1007.48 103.511 1007.04 103.409L1005.59 103.068C1004.79 102.879 1004.2 102.585 1003.83 102.188C1003.46 101.786 1003.27 101.284 1003.27 100.682C1003.27 100.189 1003.41 99.7538 1003.68 99.375C1003.96 98.9962 1004.35 98.6989 1004.83 98.483C1005.31 98.267 1005.86 98.1591 1006.47 98.1591C1007.34 98.1591 1008.02 98.3485 1008.51 98.7273C1009 99.1061 1009.36 99.6061 1009.57 100.227ZM1014.31 107.205C1013.76 107.205 1013.26 107.1 1012.81 106.892C1012.35 106.68 1012 106.375 1011.73 105.977C1011.47 105.576 1011.33 105.091 1011.33 104.523C1011.33 104.023 1011.43 103.617 1011.63 103.307C1011.83 102.992 1012.09 102.746 1012.42 102.568C1012.75 102.39 1013.11 102.258 1013.51 102.17C1013.91 102.08 1014.31 102.008 1014.72 101.955C1015.25 101.886 1015.68 101.835 1016.01 101.801C1016.34 101.763 1016.59 101.701 1016.74 101.614C1016.89 101.527 1016.97 101.375 1016.97 101.159V101.114C1016.97 100.553 1016.82 100.117 1016.51 99.8068C1016.21 99.4962 1015.75 99.3409 1015.13 99.3409C1014.49 99.3409 1013.99 99.4811 1013.62 99.7614C1013.26 100.042 1013 100.341 1012.86 100.659L1011.58 100.205C1011.81 99.6742 1012.11 99.2614 1012.49 98.9659C1012.88 98.6667 1013.29 98.4583 1013.74 98.3409C1014.2 98.2197 1014.64 98.1591 1015.08 98.1591C1015.36 98.1591 1015.69 98.1932 1016.05 98.2614C1016.42 98.3258 1016.77 98.4602 1017.11 98.6648C1017.46 98.8693 1017.74 99.178 1017.97 99.5909C1018.2 100.004 1018.31 100.557 1018.31 101.25V107H1016.97V105.818H1016.9C1016.81 106.008 1016.66 106.21 1016.45 106.426C1016.24 106.642 1015.95 106.826 1015.6 106.977C1015.25 107.129 1014.82 107.205 1014.31 107.205ZM1014.52 106C1015.05 106 1015.49 105.896 1015.86 105.688C1016.22 105.479 1016.5 105.21 1016.69 104.881C1016.88 104.551 1016.97 104.205 1016.97 103.841V102.614C1016.91 102.682 1016.79 102.744 1016.6 102.801C1016.41 102.854 1016.19 102.902 1015.94 102.943C1015.69 102.981 1015.45 103.015 1015.21 103.045C1014.98 103.072 1014.8 103.095 1014.65 103.114C1014.3 103.159 1013.98 103.233 1013.67 103.335C1013.38 103.434 1013.13 103.583 1012.95 103.784C1012.77 103.981 1012.67 104.25 1012.67 104.591C1012.67 105.057 1012.85 105.409 1013.19 105.648C1013.54 105.883 1013.98 106 1014.52 106ZM1024.28 110.455C1023.63 110.455 1023.08 110.371 1022.61 110.205C1022.14 110.042 1021.76 109.826 1021.45 109.557C1021.14 109.292 1020.89 109.008 1020.71 108.705L1021.78 107.955C1021.9 108.114 1022.06 108.295 1022.24 108.5C1022.43 108.708 1022.68 108.888 1023 109.04C1023.33 109.195 1023.75 109.273 1024.28 109.273C1024.99 109.273 1025.57 109.102 1026.03 108.761C1026.48 108.42 1026.71 107.886 1026.71 107.159V105.386H1026.6C1026.5 105.545 1026.36 105.742 1026.18 105.977C1026 106.208 1025.74 106.415 1025.41 106.597C1025.07 106.775 1024.62 106.864 1024.05 106.864C1023.35 106.864 1022.72 106.697 1022.16 106.364C1021.6 106.03 1021.16 105.545 1020.83 104.909C1020.51 104.273 1020.35 103.5 1020.35 102.591C1020.35 101.697 1020.51 100.919 1020.82 100.256C1021.14 99.589 1021.57 99.0739 1022.13 98.7102C1022.69 98.3428 1023.34 98.1591 1024.08 98.1591C1024.64 98.1591 1025.1 98.2538 1025.43 98.4432C1025.77 98.6288 1026.02 98.8409 1026.2 99.0795C1026.38 99.3144 1026.52 99.5076 1026.62 99.6591H1026.76V98.2727H1028.05V107.25C1028.05 108 1027.88 108.61 1027.54 109.08C1027.21 109.553 1026.75 109.9 1026.18 110.119C1025.61 110.343 1024.98 110.455 1024.28 110.455ZM1024.24 105.659C1024.77 105.659 1025.23 105.536 1025.6 105.29C1025.97 105.044 1026.25 104.689 1026.45 104.227C1026.64 103.765 1026.74 103.212 1026.74 102.568C1026.74 101.939 1026.64 101.384 1026.45 100.903C1026.26 100.422 1025.98 100.045 1025.61 99.7727C1025.24 99.5 1024.78 99.3636 1024.24 99.3636C1023.67 99.3636 1023.19 99.5076 1022.82 99.7955C1022.44 100.083 1022.16 100.47 1021.97 100.955C1021.78 101.439 1021.69 101.977 1021.69 102.568C1021.69 103.174 1021.79 103.71 1021.97 104.176C1022.17 104.638 1022.45 105.002 1022.83 105.267C1023.21 105.528 1023.68 105.659 1024.24 105.659ZM1034.17 107.182C1033.33 107.182 1032.6 106.996 1031.99 106.625C1031.39 106.25 1030.92 105.727 1030.59 105.057C1030.26 104.383 1030.1 103.598 1030.1 102.705C1030.1 101.811 1030.26 101.023 1030.59 100.341C1030.92 99.6553 1031.38 99.1212 1031.96 98.7386C1032.55 98.3523 1033.24 98.1591 1034.03 98.1591C1034.49 98.1591 1034.93 98.2348 1035.38 98.3864C1035.82 98.5379 1036.22 98.7841 1036.59 99.125C1036.95 99.4621 1037.24 99.9091 1037.46 100.466C1037.67 101.023 1037.78 101.708 1037.78 102.523V103.091H1031.05V101.932H1036.42C1036.42 101.439 1036.32 101 1036.12 100.614C1035.93 100.227 1035.65 99.9223 1035.29 99.6989C1034.94 99.4754 1034.52 99.3636 1034.03 99.3636C1033.5 99.3636 1033.04 99.4962 1032.64 99.7614C1032.26 100.023 1031.96 100.364 1031.75 100.784C1031.54 101.205 1031.44 101.655 1031.44 102.136V102.909C1031.44 103.568 1031.55 104.127 1031.78 104.585C1032.01 105.04 1032.33 105.386 1032.74 105.625C1033.15 105.86 1033.63 105.977 1034.17 105.977C1034.52 105.977 1034.84 105.928 1035.12 105.83C1035.41 105.727 1035.66 105.576 1035.87 105.375C1036.07 105.17 1036.24 104.917 1036.35 104.614L1037.64 104.977C1037.51 105.417 1037.28 105.803 1036.96 106.136C1036.64 106.466 1036.24 106.723 1035.76 106.909C1035.29 107.091 1034.76 107.182 1034.17 107.182ZM1046 100.227L1044.8 100.568C1044.72 100.367 1044.61 100.172 1044.46 99.983C1044.32 99.7898 1044.12 99.6307 1043.87 99.5057C1043.62 99.3807 1043.3 99.3182 1042.91 99.3182C1042.38 99.3182 1041.93 99.4413 1041.58 99.6875C1041.22 99.9299 1041.05 100.239 1041.05 100.614C1041.05 100.947 1041.17 101.21 1041.41 101.403C1041.65 101.597 1042.03 101.758 1042.55 101.886L1043.84 102.205C1044.62 102.394 1045.21 102.684 1045.59 103.074C1045.97 103.46 1046.16 103.958 1046.16 104.568C1046.16 105.068 1046.02 105.515 1045.73 105.909C1045.45 106.303 1045.05 106.614 1044.54 106.841C1044.03 107.068 1043.43 107.182 1042.75 107.182C1041.86 107.182 1041.13 106.989 1040.54 106.602C1039.96 106.216 1039.59 105.652 1039.43 104.909L1040.71 104.591C1040.83 105.061 1041.06 105.413 1041.39 105.648C1041.74 105.883 1042.18 106 1042.73 106C1043.36 106 1043.85 105.867 1044.22 105.602C1044.59 105.333 1044.78 105.011 1044.78 104.636C1044.78 104.333 1044.67 104.08 1044.46 103.875C1044.25 103.667 1043.92 103.511 1043.48 103.409L1042.03 103.068C1041.23 102.879 1040.64 102.585 1040.26 102.188C1039.89 101.786 1039.71 101.284 1039.71 100.682C1039.71 100.189 1039.85 99.7538 1040.12 99.375C1040.4 98.9962 1040.78 98.6989 1041.26 98.483C1041.75 98.267 1042.3 98.1591 1042.91 98.1591C1043.78 98.1591 1044.45 98.3485 1044.95 98.7273C1045.44 99.1061 1045.79 99.6061 1046 100.227ZM1048.57 102.909V102L1055.88 98.2727V99.7273L1050.27 102.432L1050.32 102.341V102.568L1050.27 102.477L1055.88 105.182V106.636L1048.57 102.909ZM1062.84 94.8182L1059.09 108.75H1057.86L1061.61 94.8182H1062.84ZM1065.77 95.3636V107H1064.43V95.3636H1065.77ZM1070.8 107.205C1070.24 107.205 1069.74 107.1 1069.29 106.892C1068.84 106.68 1068.48 106.375 1068.22 105.977C1067.95 105.576 1067.82 105.091 1067.82 104.523C1067.82 104.023 1067.92 103.617 1068.11 103.307C1068.31 102.992 1068.57 102.746 1068.9 102.568C1069.23 102.39 1069.6 102.258 1069.99 102.17C1070.4 102.08 1070.8 102.008 1071.2 101.955C1071.73 101.886 1072.16 101.835 1072.49 101.801C1072.83 101.763 1073.07 101.701 1073.22 101.614C1073.38 101.527 1073.45 101.375 1073.45 101.159V101.114C1073.45 100.553 1073.3 100.117 1072.99 99.8068C1072.69 99.4962 1072.23 99.3409 1071.61 99.3409C1070.97 99.3409 1070.47 99.4811 1070.11 99.7614C1069.74 100.042 1069.49 100.341 1069.34 100.659L1068.07 100.205C1068.3 99.6742 1068.6 99.2614 1068.98 98.9659C1069.36 98.6667 1069.78 98.4583 1070.23 98.3409C1070.68 98.2197 1071.13 98.1591 1071.57 98.1591C1071.85 98.1591 1072.17 98.1932 1072.53 98.2614C1072.9 98.3258 1073.26 98.4602 1073.6 98.6648C1073.94 98.8693 1074.23 99.178 1074.45 99.5909C1074.68 100.004 1074.8 100.557 1074.8 101.25V107H1073.45V105.818H1073.39C1073.3 106.008 1073.14 106.21 1072.93 106.426C1072.72 106.642 1072.44 106.826 1072.09 106.977C1071.73 107.129 1071.3 107.205 1070.8 107.205ZM1071 106C1071.53 106 1071.98 105.896 1072.34 105.688C1072.71 105.479 1072.98 105.21 1073.17 104.881C1073.36 104.551 1073.45 104.205 1073.45 103.841V102.614C1073.4 102.682 1073.27 102.744 1073.08 102.801C1072.89 102.854 1072.67 102.902 1072.42 102.943C1072.17 102.981 1071.93 103.015 1071.7 103.045C1071.47 103.072 1071.28 103.095 1071.14 103.114C1070.79 103.159 1070.46 103.233 1070.16 103.335C1069.86 103.434 1069.62 103.583 1069.43 103.784C1069.25 103.981 1069.16 104.25 1069.16 104.591C1069.16 105.057 1069.33 105.409 1069.68 105.648C1070.02 105.883 1070.47 106 1071 106ZM1077.42 107V95.3636H1078.77V99.6591H1078.88C1078.98 99.5076 1079.11 99.3144 1079.29 99.0795C1079.47 98.8409 1079.72 98.6288 1080.05 98.4432C1080.38 98.2538 1080.83 98.1591 1081.4 98.1591C1082.14 98.1591 1082.78 98.3428 1083.35 98.7102C1083.91 99.0777 1084.34 99.5985 1084.66 100.273C1084.97 100.947 1085.13 101.742 1085.13 102.659C1085.13 103.583 1084.97 104.384 1084.66 105.062C1084.34 105.737 1083.91 106.259 1083.35 106.631C1082.79 106.998 1082.15 107.182 1081.42 107.182C1080.86 107.182 1080.42 107.089 1080.08 106.903C1079.74 106.714 1079.48 106.5 1079.3 106.261C1079.12 106.019 1078.98 105.818 1078.88 105.659H1078.72V107H1077.42ZM1078.74 102.636C1078.74 103.295 1078.84 103.877 1079.03 104.381C1079.23 104.881 1079.51 105.273 1079.88 105.557C1080.25 105.837 1080.71 105.977 1081.24 105.977C1081.8 105.977 1082.27 105.83 1082.65 105.534C1083.03 105.235 1083.31 104.833 1083.5 104.33C1083.69 103.822 1083.79 103.258 1083.79 102.636C1083.79 102.023 1083.69 101.47 1083.5 100.977C1083.32 100.481 1083.04 100.089 1082.66 99.8011C1082.28 99.5095 1081.81 99.3636 1081.24 99.3636C1080.7 99.3636 1080.24 99.5019 1079.87 99.7784C1079.5 100.051 1079.22 100.434 1079.03 100.926C1078.84 101.415 1078.74 101.985 1078.74 102.636ZM1090.84 107.182C1090 107.182 1089.27 106.996 1088.66 106.625C1088.06 106.25 1087.59 105.727 1087.26 105.057C1086.93 104.383 1086.77 103.598 1086.77 102.705C1086.77 101.811 1086.93 101.023 1087.26 100.341C1087.59 99.6553 1088.05 99.1212 1088.63 98.7386C1089.23 98.3523 1089.92 98.1591 1090.7 98.1591C1091.16 98.1591 1091.61 98.2348 1092.05 98.3864C1092.49 98.5379 1092.9 98.7841 1093.26 99.125C1093.62 99.4621 1093.91 99.9091 1094.13 100.466C1094.35 101.023 1094.45 101.708 1094.45 102.523V103.091H1087.73V101.932H1093.09C1093.09 101.439 1092.99 101 1092.79 100.614C1092.6 100.227 1092.32 99.9223 1091.96 99.6989C1091.61 99.4754 1091.19 99.3636 1090.7 99.3636C1090.17 99.3636 1089.71 99.4962 1089.32 99.7614C1088.93 100.023 1088.63 100.364 1088.42 100.784C1088.22 101.205 1088.11 101.655 1088.11 102.136V102.909C1088.11 103.568 1088.23 104.127 1088.45 104.585C1088.68 105.04 1089 105.386 1089.41 105.625C1089.82 105.86 1090.3 105.977 1090.84 105.977C1091.19 105.977 1091.51 105.928 1091.79 105.83C1092.08 105.727 1092.33 105.576 1092.54 105.375C1092.75 105.17 1092.91 104.917 1093.02 104.614L1094.32 104.977C1094.18 105.417 1093.95 105.803 1093.63 106.136C1093.31 106.466 1092.91 106.723 1092.44 106.909C1091.96 107.091 1091.43 107.182 1090.84 107.182ZM1097.83 95.3636V107H1096.49V95.3636H1097.83ZM1107.99 102.909L1100.68 106.636V105.182L1106.29 102.477L1106.24 102.568V102.341L1106.29 102.432L1100.68 99.7273V98.2727L1107.99 102V102.909Z" fill="white"/>
</g>
<defs>
<clipPath id="clip0_1027_69405">
<rect width="461" height="50" fill="white" transform="translate(661 64)"/>
</clipPath>
</defs>
</svg>
