<svg width="755" height="28" viewBox="0 0 755 28" fill="none" xmlns="http://www.w3.org/2000/svg">
<line y1="13.5" x2="335.5" y2="13.5" stroke="white" stroke-opacity="0.2"/>
<path d="M360.733 19V8.81818H361.966V17.9062H366.699V19H360.733ZM370.696 19.179C370.212 19.179 369.773 19.0878 369.379 18.9055C368.984 18.7199 368.671 18.4531 368.439 18.1051C368.207 17.7538 368.091 17.3295 368.091 16.8324C368.091 16.3949 368.177 16.0402 368.349 15.7685C368.522 15.4934 368.752 15.2779 369.04 15.1222C369.329 14.9664 369.647 14.8504 369.995 14.7741C370.346 14.6946 370.699 14.6316 371.054 14.5852C371.518 14.5256 371.894 14.4808 372.183 14.451C372.474 14.4179 372.686 14.3632 372.819 14.2869C372.955 14.2107 373.023 14.0781 373.023 13.8892V13.8494C373.023 13.3589 372.888 12.9777 372.62 12.706C372.355 12.4342 371.952 12.2983 371.412 12.2983C370.852 12.2983 370.413 12.4209 370.094 12.6662C369.776 12.9115 369.553 13.1733 369.423 13.4517L368.31 13.054C368.509 12.59 368.774 12.2287 369.105 11.9702C369.44 11.7083 369.804 11.526 370.199 11.4233C370.597 11.3172 370.988 11.2642 371.372 11.2642C371.617 11.2642 371.899 11.294 372.217 11.3537C372.539 11.41 372.849 11.5277 373.147 11.7067C373.449 11.8857 373.699 12.1558 373.898 12.517C374.097 12.8783 374.196 13.3622 374.196 13.9688V19H373.023V17.9659H372.963C372.884 18.1316 372.751 18.3089 372.565 18.4979C372.38 18.6868 372.133 18.8475 371.825 18.9801C371.516 19.1127 371.14 19.179 370.696 19.179ZM370.875 18.125C371.339 18.125 371.73 18.0339 372.048 17.8516C372.37 17.6693 372.612 17.4339 372.774 17.1456C372.94 16.8572 373.023 16.554 373.023 16.2358V15.1619C372.973 15.2216 372.864 15.2763 372.695 15.326C372.529 15.3724 372.337 15.4138 372.118 15.4503C371.902 15.4834 371.692 15.5133 371.487 15.5398C371.284 15.563 371.12 15.5829 370.994 15.5994C370.689 15.6392 370.404 15.7038 370.139 15.7933C369.877 15.8795 369.665 16.0104 369.503 16.1861C369.344 16.3584 369.264 16.5937 369.264 16.892C369.264 17.2997 369.415 17.608 369.717 17.8168C370.022 18.0223 370.408 18.125 370.875 18.125ZM376.497 19V8.81818H377.67V12.5767H377.769C377.856 12.4441 377.975 12.2751 378.127 12.0696C378.283 11.8608 378.505 11.6752 378.794 11.5128C379.085 11.3471 379.48 11.2642 379.977 11.2642C380.62 11.2642 381.186 11.425 381.677 11.7464C382.168 12.0679 382.55 12.5237 382.825 13.1136C383.101 13.7036 383.238 14.3996 383.238 15.2017C383.238 16.0104 383.101 16.7114 382.825 17.3047C382.55 17.8946 382.169 18.352 381.682 18.6768C381.195 18.9983 380.633 19.1591 379.997 19.1591C379.506 19.1591 379.113 19.0779 378.818 18.9155C378.523 18.7498 378.296 18.5625 378.137 18.3537C377.978 18.1416 377.856 17.9659 377.769 17.8267H377.63V19H376.497ZM377.65 15.1818C377.65 15.7585 377.735 16.2673 377.904 16.7081C378.073 17.1456 378.32 17.4886 378.644 17.7372C378.969 17.9825 379.367 18.1051 379.838 18.1051C380.328 18.1051 380.737 17.9759 381.066 17.7173C381.397 17.4555 381.646 17.1042 381.811 16.6634C381.98 16.2192 382.065 15.7254 382.065 15.1818C382.065 14.6449 381.982 14.161 381.816 13.7301C381.654 13.2959 381.407 12.9529 381.075 12.701C380.747 12.4458 380.335 12.3182 379.838 12.3182C379.36 12.3182 378.959 12.4392 378.634 12.6811C378.31 12.9197 378.064 13.2545 377.899 13.6854C377.733 14.1129 377.65 14.6117 377.65 15.1818ZM388.235 19.1591C387.499 19.1591 386.864 18.9967 386.33 18.6719C385.8 18.3438 385.391 17.8864 385.102 17.2997C384.817 16.7098 384.675 16.0237 384.675 15.2415C384.675 14.4593 384.817 13.7699 385.102 13.1733C385.391 12.5734 385.792 12.1061 386.306 11.7713C386.823 11.4332 387.426 11.2642 388.115 11.2642C388.513 11.2642 388.906 11.3305 389.294 11.4631C389.681 11.5956 390.034 11.8111 390.352 12.1094C390.671 12.4044 390.924 12.7955 391.113 13.2827C391.302 13.7699 391.396 14.3698 391.396 15.0824V15.5795H385.51V14.5653H390.203C390.203 14.1345 390.117 13.75 389.945 13.4119C389.776 13.0739 389.534 12.8071 389.219 12.6115C388.907 12.416 388.539 12.3182 388.115 12.3182C387.648 12.3182 387.244 12.4342 386.902 12.6662C386.564 12.8949 386.304 13.1932 386.122 13.5611C385.939 13.929 385.848 14.3234 385.848 14.7443V15.4205C385.848 15.9972 385.948 16.486 386.146 16.8871C386.349 17.2848 386.629 17.5881 386.987 17.7969C387.345 18.0024 387.761 18.1051 388.235 18.1051C388.543 18.1051 388.821 18.062 389.07 17.9759C389.322 17.8864 389.539 17.7538 389.721 17.5781C389.903 17.3991 390.044 17.1771 390.144 16.9119L391.277 17.2301C391.158 17.6146 390.957 17.9527 390.676 18.2443C390.394 18.5327 390.046 18.758 389.632 18.9205C389.217 19.0795 388.752 19.1591 388.235 19.1591ZM394.355 8.81818V19H393.181V8.81818H394.355Z" fill="white" fill-opacity="0.7"/>
<line x1="419.5" y1="13.5" x2="755" y2="13.5" stroke="white" stroke-opacity="0.2"/>
</svg>
