<svg width="559" height="244" viewBox="0 0 559 244" fill="none" xmlns="http://www.w3.org/2000/svg">
<rect width="559" height="244" rx="16" fill="#1A1A1A"/>
<rect x="409.042" y="108" width="48" height="24" rx="12" fill="#64B4FA"/>
<rect x="435.042" y="110" width="20" height="20" rx="10" fill="white"/>
<path d="M443.242 123.075C443.193 123.075 443.144 123.065 443.098 123.046C443.052 123.027 443.011 122.999 442.976 122.964L440.276 120.251C440.241 120.216 440.214 120.175 440.195 120.129C440.177 120.084 440.167 120.035 440.167 119.986C440.167 119.936 440.177 119.888 440.196 119.842C440.215 119.797 440.243 119.755 440.278 119.721C440.313 119.686 440.354 119.658 440.4 119.64C440.445 119.621 440.494 119.611 440.543 119.612C440.592 119.612 440.641 119.622 440.687 119.641C440.732 119.66 440.773 119.687 440.808 119.722L443.262 122.189L449.298 117.016C449.374 116.951 449.472 116.919 449.571 116.926C449.67 116.934 449.762 116.981 449.827 117.056C449.891 117.132 449.923 117.23 449.916 117.329C449.908 117.428 449.861 117.52 449.786 117.585L443.486 122.984C443.418 123.043 443.332 123.075 443.242 123.075Z" fill="black" fill-opacity="0.95"/>
<rect x="409.042" y="156" width="48" height="24" rx="12" fill="#64B4FA"/>
<rect x="435.042" y="158" width="20" height="20" rx="10" fill="white"/>
<path d="M443.242 171.075C443.193 171.075 443.144 171.065 443.098 171.046C443.052 171.027 443.011 170.999 442.976 170.964L440.276 168.251C440.241 168.216 440.214 168.175 440.195 168.129C440.177 168.084 440.167 168.035 440.167 167.986C440.167 167.936 440.177 167.888 440.196 167.842C440.215 167.797 440.243 167.755 440.278 167.721C440.313 167.686 440.354 167.658 440.4 167.64C440.445 167.621 440.494 167.611 440.543 167.612C440.592 167.612 440.641 167.622 440.687 167.641C440.732 167.66 440.773 167.687 440.808 167.722L443.262 170.189L449.298 165.016C449.374 164.951 449.472 164.919 449.571 164.926C449.67 164.934 449.762 164.981 449.827 165.056C449.891 165.132 449.923 165.23 449.916 165.329C449.908 165.428 449.861 165.52 449.786 165.585L443.486 170.984C443.418 171.043 443.332 171.075 443.242 171.075Z" fill="black" fill-opacity="0.95"/>
<path d="M119.318 69.7102C119.272 69.2519 119.077 68.8958 118.733 68.642C118.388 68.3883 117.92 68.2614 117.329 68.2614C116.928 68.2614 116.589 68.3182 116.312 68.4318C116.036 68.5417 115.824 68.6951 115.676 68.892C115.532 69.089 115.46 69.3125 115.46 69.5625C115.452 69.7708 115.496 69.9527 115.591 70.108C115.689 70.2633 115.824 70.3977 115.994 70.5114C116.164 70.6212 116.361 70.7178 116.585 70.8011C116.808 70.8807 117.047 70.9489 117.301 71.0057L118.346 71.2557C118.854 71.3693 119.32 71.5208 119.744 71.7102C120.168 71.8996 120.536 72.1326 120.846 72.4091C121.157 72.6856 121.397 73.0114 121.568 73.3864C121.742 73.7614 121.831 74.1913 121.835 74.6761C121.831 75.3883 121.649 76.0057 121.289 76.5284C120.933 77.0473 120.418 77.4508 119.744 77.7386C119.074 78.0227 118.265 78.1648 117.318 78.1648C116.378 78.1648 115.56 78.0208 114.863 77.733C114.17 77.4451 113.628 77.0189 113.238 76.4545C112.852 75.8864 112.649 75.1837 112.63 74.3466H115.011C115.038 74.7367 115.149 75.0625 115.346 75.3239C115.547 75.5814 115.814 75.7765 116.147 75.9091C116.485 76.0379 116.865 76.1023 117.289 76.1023C117.706 76.1023 118.068 76.0417 118.375 75.9205C118.685 75.7992 118.926 75.6307 119.096 75.4148C119.267 75.1989 119.352 74.9508 119.352 74.6705C119.352 74.4091 119.274 74.1894 119.119 74.0114C118.968 73.8333 118.744 73.6818 118.449 73.5568C118.157 73.4318 117.799 73.3182 117.375 73.2159L116.108 72.8977C115.127 72.6591 114.352 72.286 113.784 71.7784C113.216 71.2708 112.933 70.5871 112.937 69.7273C112.933 69.0227 113.121 68.4072 113.5 67.8807C113.882 67.3542 114.407 66.9432 115.074 66.6477C115.74 66.3523 116.498 66.2045 117.346 66.2045C118.21 66.2045 118.964 66.3523 119.608 66.6477C120.255 66.9432 120.759 67.3542 121.119 67.8807C121.479 68.4072 121.664 69.017 121.676 69.7102H119.318ZM127.422 78.1705C126.524 78.1705 125.751 77.9886 125.103 77.625C124.459 77.2576 123.963 76.7386 123.615 76.0682C123.266 75.3939 123.092 74.5966 123.092 73.6761C123.092 72.7784 123.266 71.9905 123.615 71.3125C123.963 70.6345 124.454 70.1061 125.086 69.7273C125.723 69.3485 126.469 69.1591 127.325 69.1591C127.901 69.1591 128.437 69.2519 128.933 69.4375C129.433 69.6193 129.869 69.8939 130.24 70.2614C130.615 70.6288 130.906 71.0909 131.115 71.6477C131.323 72.2008 131.427 72.8485 131.427 73.5909V74.2557H124.058V72.7557H129.149C129.149 72.4072 129.073 72.0985 128.922 71.8295C128.77 71.5606 128.56 71.3504 128.291 71.1989C128.026 71.0436 127.717 70.9659 127.365 70.9659C126.997 70.9659 126.672 71.0511 126.387 71.2216C126.107 71.3883 125.887 71.6136 125.728 71.8977C125.569 72.178 125.488 72.4905 125.484 72.8352V74.2614C125.484 74.6932 125.564 75.0663 125.723 75.3807C125.886 75.6951 126.115 75.9375 126.41 76.108C126.706 76.2784 127.056 76.3636 127.461 76.3636C127.73 76.3636 127.976 76.3258 128.2 76.25C128.423 76.1742 128.615 76.0606 128.774 75.9091C128.933 75.7576 129.054 75.572 129.137 75.3523L131.376 75.5C131.262 76.0379 131.03 76.5076 130.677 76.9091C130.329 77.3068 129.878 77.6174 129.325 77.8409C128.776 78.0606 128.141 78.1705 127.422 78.1705ZM137.649 69.2727V71.0909H132.393V69.2727H137.649ZM133.586 67.1818H136.007V75.3182C136.007 75.5417 136.041 75.7159 136.109 75.8409C136.177 75.9621 136.272 76.0473 136.393 76.0966C136.518 76.1458 136.662 76.1705 136.825 76.1705C136.939 76.1705 137.052 76.161 137.166 76.142C137.28 76.1193 137.367 76.1023 137.427 76.0909L137.808 77.892C137.687 77.9299 137.516 77.9735 137.297 78.0227C137.077 78.0758 136.81 78.108 136.495 78.1193C135.912 78.142 135.401 78.0644 134.961 77.8864C134.526 77.7083 134.187 77.4318 133.944 77.0568C133.702 76.6818 133.583 76.2083 133.586 75.6364V67.1818ZM143.868 69.2727V71.0909H138.612V69.2727H143.868ZM139.805 67.1818H142.226V75.3182C142.226 75.5417 142.26 75.7159 142.328 75.8409C142.396 75.9621 142.491 76.0473 142.612 76.0966C142.737 76.1458 142.881 76.1705 143.044 76.1705C143.157 76.1705 143.271 76.161 143.385 76.142C143.498 76.1193 143.585 76.1023 143.646 76.0909L144.027 77.892C143.905 77.9299 143.735 77.9735 143.515 78.0227C143.296 78.0758 143.029 78.108 142.714 78.1193C142.131 78.142 141.619 78.0644 141.18 77.8864C140.744 77.7083 140.405 77.4318 140.163 77.0568C139.921 76.6818 139.801 76.2083 139.805 75.6364V67.1818ZM145.444 78V69.2727H147.865V78H145.444ZM146.666 68.1477C146.306 68.1477 145.997 68.0284 145.74 67.7898C145.482 67.5473 145.353 67.2576 145.353 66.9205C145.353 66.5871 145.482 66.3011 145.74 66.0625C145.997 65.8201 146.304 65.6989 146.66 65.6989C147.024 65.6989 147.333 65.8201 147.586 66.0625C147.844 66.3011 147.973 66.5871 147.973 66.9205C147.973 67.2576 147.844 67.5473 147.586 67.7898C147.333 68.0284 147.026 68.1477 146.666 68.1477ZM152.224 72.9545V78H149.804V69.2727H152.11V70.8125H152.213C152.406 70.3049 152.73 69.9034 153.184 69.608C153.639 69.3087 154.19 69.1591 154.838 69.1591C155.444 69.1591 155.972 69.2917 156.423 69.5568C156.874 69.822 157.224 70.2008 157.474 70.6932C157.724 71.1818 157.849 71.7652 157.849 72.4432V78H155.429V72.875C155.432 72.3409 155.296 71.9242 155.02 71.625C154.743 71.322 154.362 71.1705 153.878 71.1705C153.552 71.1705 153.264 71.2405 153.014 71.3807C152.768 71.5208 152.575 71.7254 152.434 71.9943C152.298 72.2595 152.228 72.5795 152.224 72.9545ZM163.689 81.3977C162.905 81.3977 162.232 81.2917 161.672 81.0795C161.115 80.8674 160.672 80.5814 160.342 80.2216C160.012 79.8617 159.798 79.4621 159.7 79.0227L161.939 78.7216C162.007 78.8807 162.115 79.0303 162.262 79.1705C162.41 79.3144 162.605 79.4318 162.848 79.5227C163.094 79.6136 163.393 79.6591 163.745 79.6591C164.272 79.6591 164.706 79.5341 165.047 79.2841C165.391 79.0341 165.564 78.6231 165.564 78.0511V76.4545H165.461C165.355 76.697 165.196 76.9261 164.984 77.142C164.772 77.358 164.499 77.5341 164.166 77.6705C163.833 77.8068 163.435 77.875 162.973 77.875C162.317 77.875 161.721 77.7235 161.183 77.4205C160.649 77.1136 160.223 76.6458 159.905 76.017C159.59 75.3845 159.433 74.5852 159.433 73.6193C159.433 72.6307 159.594 71.8049 159.916 71.142C160.238 70.4792 160.666 69.983 161.2 69.6534C161.738 69.3239 162.327 69.1591 162.967 69.1591C163.456 69.1591 163.865 69.2424 164.194 69.4091C164.524 69.572 164.789 69.7765 164.99 70.0227C165.194 70.2652 165.351 70.5038 165.461 70.7386H165.552V69.2727H167.956V78.0852C167.956 78.8125 167.774 79.4205 167.41 79.9091C167.047 80.4015 166.543 80.7727 165.899 81.0227C165.259 81.2727 164.522 81.3977 163.689 81.3977ZM163.74 76.0568C164.13 76.0568 164.459 75.9602 164.728 75.767C165.001 75.5701 165.209 75.2898 165.353 74.9261C165.501 74.5587 165.575 74.1193 165.575 73.608C165.575 73.0966 165.503 72.6534 165.359 72.2784C165.215 71.8996 165.007 71.6061 164.734 71.3977C164.461 71.1894 164.13 71.0852 163.74 71.0852C163.342 71.0852 163.007 71.1932 162.734 71.4091C162.461 71.6212 162.255 71.9167 162.115 72.2955C161.975 72.6742 161.905 73.1117 161.905 73.608C161.905 74.1117 161.975 74.5473 162.115 74.9148C162.259 75.2784 162.465 75.5606 162.734 75.7614C163.007 75.9583 163.342 76.0568 163.74 76.0568ZM177.143 71.7614L174.927 71.8977C174.889 71.7083 174.808 71.5379 174.683 71.3864C174.558 71.2311 174.393 71.108 174.189 71.017C173.988 70.9223 173.747 70.875 173.467 70.875C173.092 70.875 172.776 70.9545 172.518 71.1136C172.261 71.2689 172.132 71.4773 172.132 71.7386C172.132 71.947 172.215 72.1231 172.382 72.267C172.548 72.411 172.834 72.5265 173.24 72.6136L174.819 72.9318C175.668 73.1061 176.3 73.3864 176.717 73.7727C177.134 74.1591 177.342 74.6667 177.342 75.2955C177.342 75.8674 177.173 76.3693 176.836 76.8011C176.503 77.233 176.045 77.5701 175.461 77.8125C174.882 78.0511 174.213 78.1705 173.456 78.1705C172.3 78.1705 171.38 77.9299 170.694 77.4489C170.012 76.964 169.613 76.3049 169.495 75.4716L171.876 75.3466C171.948 75.6989 172.122 75.9678 172.399 76.1534C172.675 76.3352 173.03 76.4261 173.461 76.4261C173.886 76.4261 174.226 76.3447 174.484 76.1818C174.745 76.0152 174.878 75.8011 174.882 75.5398C174.878 75.3201 174.785 75.1402 174.603 75C174.422 74.8561 174.141 74.7462 173.762 74.6705L172.251 74.3693C171.399 74.1989 170.764 73.9034 170.348 73.483C169.935 73.0625 169.728 72.5265 169.728 71.875C169.728 71.3144 169.88 70.8314 170.183 70.4261C170.49 70.0208 170.92 69.7083 171.473 69.4886C172.03 69.2689 172.681 69.1591 173.427 69.1591C174.53 69.1591 175.397 69.392 176.03 69.858C176.666 70.3239 177.037 70.9583 177.143 71.7614Z" fill="white" fill-opacity="0.95"/>
<rect x="96.994" y="151" width="361" height="34" rx="5" stroke="#DA0087" stroke-width="2"/>
<rect x="98.994" y="153" width="357" height="30" rx="3" stroke="white" stroke-opacity="0.9" stroke-width="2"/>
<rect x="97.006" y="103" width="365" height="34" rx="5" stroke="#DA0087" stroke-width="2"/>
<rect x="99.006" y="105" width="361" height="30" rx="3" stroke="white" stroke-opacity="0.9" stroke-width="2"/>
<path d="M95.0667 160.061C95.6525 159.475 95.6525 158.525 95.0667 157.939L85.5208 148.393C84.935 147.808 83.9852 147.808 83.3994 148.393C82.8137 148.979 82.8137 149.929 83.3994 150.515L91.8847 159L83.3994 167.485C82.8137 168.071 82.8137 169.021 83.3994 169.607C83.9852 170.192 84.935 170.192 85.5208 169.607L95.0667 160.061ZM94.006 112.5C94.8345 112.5 95.506 111.828 95.506 111C95.506 110.172 94.8345 109.5 94.006 109.5V112.5ZM65.994 135H67.494H65.994ZM65.994 135H67.494H65.994ZM94.006 157.5H89.994V160.5H94.006V157.5ZM89.994 112.5H94.006V109.5H89.994V112.5ZM67.494 135C67.494 122.574 77.5676 112.5 89.994 112.5V109.5C75.9108 109.5 64.494 120.917 64.494 135H67.494ZM89.994 157.5C77.5676 157.5 67.494 147.426 67.494 135H64.494C64.494 149.083 75.9108 160.5 89.994 160.5V157.5Z" fill="#DA0087"/>
<path d="M460.994 157.5C460.166 157.5 459.494 158.172 459.494 159C459.494 159.828 460.166 160.5 460.994 160.5V157.5ZM463.945 109.939C463.36 110.525 463.36 111.475 463.945 112.061L473.491 121.607C474.077 122.192 475.027 122.192 475.613 121.607C476.198 121.021 476.198 120.071 475.613 119.485L467.127 111L475.613 102.515C476.198 101.929 476.198 100.979 475.613 100.393C475.027 99.8076 474.077 99.8076 473.491 100.393L463.945 109.939ZM493.006 135H494.506H493.006ZM493.006 135H494.506H493.006ZM460.994 160.5H469.006V157.5H460.994V160.5ZM469.006 109.5H465.006V112.5H469.006V109.5ZM494.506 135C494.506 120.917 483.089 109.5 469.006 109.5V112.5C481.432 112.5 491.506 122.574 491.506 135H494.506ZM469.006 160.5C483.089 160.5 494.506 149.083 494.506 135H491.506C491.506 147.426 481.432 157.5 469.006 157.5V160.5Z" fill="#DA0087"/>
<path d="M113.755 127V112.455H122.534V114.017H115.517V118.932H122.079V120.494H115.517V125.438H122.647V127H113.755ZM125.481 127V116.091H127.101V117.795H127.243C127.47 117.213 127.837 116.761 128.343 116.439C128.85 116.112 129.459 115.949 130.169 115.949C130.888 115.949 131.487 116.112 131.966 116.439C132.449 116.761 132.825 117.213 133.095 117.795H133.209C133.488 117.232 133.907 116.785 134.466 116.453C135.024 116.117 135.694 115.949 136.476 115.949C137.451 115.949 138.249 116.254 138.869 116.865C139.489 117.471 139.799 118.416 139.799 119.699V127H138.123V119.699C138.123 118.894 137.903 118.319 137.463 117.973C137.022 117.627 136.504 117.455 135.907 117.455C135.14 117.455 134.546 117.687 134.125 118.151C133.703 118.61 133.493 119.192 133.493 119.898V127H131.788V119.528C131.788 118.908 131.587 118.409 131.184 118.03C130.782 117.646 130.263 117.455 129.629 117.455C129.193 117.455 128.786 117.571 128.407 117.803C128.033 118.035 127.73 118.357 127.498 118.768C127.271 119.176 127.157 119.647 127.157 120.182V127H125.481ZM146.074 127.256C145.383 127.256 144.756 127.125 144.192 126.865C143.629 126.6 143.181 126.219 142.85 125.722C142.518 125.22 142.353 124.614 142.353 123.903C142.353 123.278 142.476 122.772 142.722 122.384C142.968 121.991 143.297 121.683 143.709 121.46C144.121 121.238 144.576 121.072 145.073 120.963C145.575 120.849 146.079 120.759 146.586 120.693C147.249 120.608 147.786 120.544 148.198 120.501C148.615 120.454 148.918 120.376 149.107 120.267C149.301 120.158 149.398 119.969 149.398 119.699V119.642C149.398 118.941 149.206 118.397 148.823 118.009C148.444 117.62 147.869 117.426 147.097 117.426C146.297 117.426 145.669 117.601 145.215 117.952C144.76 118.302 144.441 118.676 144.256 119.074L142.665 118.506C142.949 117.843 143.328 117.327 143.802 116.957C144.28 116.583 144.801 116.323 145.364 116.176C145.932 116.025 146.491 115.949 147.04 115.949C147.391 115.949 147.793 115.991 148.248 116.077C148.707 116.157 149.15 116.325 149.576 116.581C150.007 116.837 150.364 117.223 150.648 117.739C150.932 118.255 151.074 118.946 151.074 119.812V127H149.398V125.523H149.313C149.199 125.759 149.01 126.013 148.745 126.283C148.48 126.553 148.127 126.782 147.686 126.972C147.246 127.161 146.709 127.256 146.074 127.256ZM146.33 125.75C146.993 125.75 147.552 125.62 148.006 125.359C148.465 125.099 148.811 124.763 149.043 124.351C149.28 123.939 149.398 123.506 149.398 123.051V121.517C149.327 121.602 149.171 121.68 148.929 121.751C148.693 121.818 148.418 121.877 148.106 121.929C147.798 121.976 147.497 122.019 147.204 122.057C146.915 122.09 146.68 122.118 146.5 122.142C146.065 122.199 145.658 122.291 145.279 122.419C144.905 122.542 144.602 122.729 144.37 122.98C144.142 123.226 144.029 123.562 144.029 123.989C144.029 124.571 144.244 125.011 144.675 125.31C145.111 125.603 145.662 125.75 146.33 125.75ZM154.134 127V116.091H155.81V127H154.134ZM154.986 114.273C154.659 114.273 154.377 114.161 154.141 113.939C153.909 113.716 153.793 113.449 153.793 113.136C153.793 112.824 153.909 112.556 154.141 112.334C154.377 112.111 154.659 112 154.986 112C155.313 112 155.592 112.111 155.824 112.334C156.061 112.556 156.179 112.824 156.179 113.136C156.179 113.449 156.061 113.716 155.824 113.939C155.592 114.161 155.313 114.273 154.986 114.273ZM160.556 112.455V127H158.88V112.455H160.556ZM170.927 120.438V127H169.251V116.091H170.87V117.795H171.012C171.268 117.241 171.656 116.796 172.177 116.46C172.698 116.119 173.37 115.949 174.194 115.949C174.933 115.949 175.579 116.1 176.133 116.403C176.687 116.702 177.118 117.156 177.425 117.767C177.733 118.373 177.887 119.14 177.887 120.068V127H176.211V120.182C176.211 119.325 175.988 118.657 175.543 118.179C175.098 117.696 174.488 117.455 173.711 117.455C173.176 117.455 172.698 117.571 172.276 117.803C171.86 118.035 171.531 118.373 171.289 118.818C171.048 119.263 170.927 119.803 170.927 120.438ZM185.382 127.227C184.397 127.227 183.533 126.993 182.789 126.524C182.051 126.055 181.473 125.4 181.057 124.557C180.645 123.714 180.439 122.729 180.439 121.602C180.439 120.466 180.645 119.474 181.057 118.626C181.473 117.779 182.051 117.121 182.789 116.652C183.533 116.183 184.397 115.949 185.382 115.949C186.367 115.949 187.228 116.183 187.967 116.652C188.71 117.121 189.288 117.779 189.7 118.626C190.117 119.474 190.325 120.466 190.325 121.602C190.325 122.729 190.117 123.714 189.7 124.557C189.288 125.4 188.71 126.055 187.967 126.524C187.228 126.993 186.367 127.227 185.382 127.227ZM185.382 125.722C186.13 125.722 186.745 125.53 187.228 125.146C187.711 124.763 188.069 124.259 188.301 123.634C188.533 123.009 188.649 122.331 188.649 121.602C188.649 120.873 188.533 120.194 188.301 119.564C188.069 118.934 187.711 118.425 187.228 118.037C186.745 117.649 186.13 117.455 185.382 117.455C184.634 117.455 184.018 117.649 183.535 118.037C183.052 118.425 182.695 118.934 182.463 119.564C182.231 120.194 182.115 120.873 182.115 121.602C182.115 122.331 182.231 123.009 182.463 123.634C182.695 124.259 183.052 124.763 183.535 125.146C184.018 125.53 184.634 125.722 185.382 125.722ZM197.628 116.091V117.511H191.974V116.091H197.628ZM193.622 113.477H195.298V123.875C195.298 124.348 195.367 124.704 195.504 124.94C195.646 125.172 195.826 125.329 196.044 125.409C196.267 125.485 196.501 125.523 196.747 125.523C196.932 125.523 197.083 125.513 197.202 125.494C197.32 125.471 197.415 125.452 197.486 125.438L197.827 126.943C197.713 126.986 197.555 127.028 197.351 127.071C197.147 127.118 196.889 127.142 196.577 127.142C196.103 127.142 195.639 127.04 195.185 126.837C194.735 126.633 194.361 126.323 194.063 125.906C193.769 125.49 193.622 124.964 193.622 124.33V113.477ZM200.149 127V116.091H201.825V127H200.149ZM201.001 114.273C200.675 114.273 200.393 114.161 200.156 113.939C199.924 113.716 199.808 113.449 199.808 113.136C199.808 112.824 199.924 112.556 200.156 112.334C200.393 112.111 200.675 112 201.001 112C201.328 112 201.608 112.111 201.84 112.334C202.076 112.556 202.195 112.824 202.195 113.136C202.195 113.449 202.076 113.716 201.84 113.939C201.608 114.161 201.328 114.273 201.001 114.273ZM209.753 116.091V117.511H203.873V116.091H209.753ZM205.634 127V114.585C205.634 113.96 205.781 113.439 206.074 113.023C206.368 112.606 206.749 112.294 207.218 112.085C207.686 111.877 208.181 111.773 208.702 111.773C209.114 111.773 209.45 111.806 209.711 111.872C209.971 111.938 210.165 112 210.293 112.057L209.81 113.506C209.725 113.477 209.606 113.442 209.455 113.399C209.308 113.357 209.114 113.335 208.873 113.335C208.319 113.335 207.918 113.475 207.672 113.754C207.431 114.034 207.31 114.443 207.31 114.983V127H205.634ZM212.102 127V116.091H213.778V127H212.102ZM212.955 114.273C212.628 114.273 212.346 114.161 212.109 113.939C211.877 113.716 211.761 113.449 211.761 113.136C211.761 112.824 211.877 112.556 212.109 112.334C212.346 112.111 212.628 112 212.955 112C213.281 112 213.561 112.111 213.793 112.334C214.029 112.556 214.148 112.824 214.148 113.136C214.148 113.449 214.029 113.716 213.793 113.939C213.561 114.161 213.281 114.273 212.955 114.273ZM221.28 127.227C220.258 127.227 219.377 126.986 218.638 126.503C217.9 126.02 217.331 125.355 216.934 124.507C216.536 123.66 216.337 122.691 216.337 121.602C216.337 120.494 216.541 119.517 216.948 118.669C217.36 117.817 217.933 117.152 218.667 116.673C219.405 116.19 220.267 115.949 221.252 115.949C222.019 115.949 222.71 116.091 223.326 116.375C223.941 116.659 224.445 117.057 224.838 117.568C225.231 118.08 225.475 118.676 225.57 119.358H223.894C223.766 118.861 223.482 118.42 223.042 118.037C222.606 117.649 222.019 117.455 221.28 117.455C220.627 117.455 220.054 117.625 219.561 117.966C219.074 118.302 218.693 118.778 218.418 119.393C218.148 120.004 218.013 120.722 218.013 121.545C218.013 122.388 218.146 123.122 218.411 123.747C218.681 124.372 219.06 124.857 219.547 125.203C220.04 125.549 220.617 125.722 221.28 125.722C221.716 125.722 222.111 125.646 222.466 125.494C222.821 125.343 223.122 125.125 223.368 124.841C223.615 124.557 223.79 124.216 223.894 123.818H225.57C225.475 124.462 225.241 125.042 224.867 125.558C224.498 126.07 224.008 126.477 223.397 126.78C222.791 127.078 222.085 127.227 221.28 127.227ZM231.231 127.256C230.539 127.256 229.912 127.125 229.348 126.865C228.785 126.6 228.338 126.219 228.006 125.722C227.675 125.22 227.509 124.614 227.509 123.903C227.509 123.278 227.632 122.772 227.878 122.384C228.124 121.991 228.454 121.683 228.865 121.46C229.277 121.238 229.732 121.072 230.229 120.963C230.731 120.849 231.235 120.759 231.742 120.693C232.405 120.608 232.942 120.544 233.354 120.501C233.771 120.454 234.074 120.376 234.263 120.267C234.457 120.158 234.554 119.969 234.554 119.699V119.642C234.554 118.941 234.363 118.397 233.979 118.009C233.6 117.62 233.025 117.426 232.253 117.426C231.453 117.426 230.826 117.601 230.371 117.952C229.917 118.302 229.597 118.676 229.412 119.074L227.821 118.506C228.106 117.843 228.484 117.327 228.958 116.957C229.436 116.583 229.957 116.323 230.52 116.176C231.088 116.025 231.647 115.949 232.196 115.949C232.547 115.949 232.949 115.991 233.404 116.077C233.863 116.157 234.306 116.325 234.732 116.581C235.163 116.837 235.52 117.223 235.804 117.739C236.088 118.255 236.231 118.946 236.231 119.812V127H234.554V125.523H234.469C234.356 125.759 234.166 126.013 233.901 126.283C233.636 126.553 233.283 126.782 232.843 126.972C232.402 127.161 231.865 127.256 231.231 127.256ZM231.486 125.75C232.149 125.75 232.708 125.62 233.162 125.359C233.622 125.099 233.967 124.763 234.199 124.351C234.436 123.939 234.554 123.506 234.554 123.051V121.517C234.483 121.602 234.327 121.68 234.086 121.751C233.849 121.818 233.574 121.877 233.262 121.929C232.954 121.976 232.653 122.019 232.36 122.057C232.071 122.09 231.837 122.118 231.657 122.142C231.221 122.199 230.814 122.291 230.435 122.419C230.061 122.542 229.758 122.729 229.526 122.98C229.299 123.226 229.185 123.562 229.185 123.989C229.185 124.571 229.401 125.011 229.831 125.31C230.267 125.603 230.819 125.75 231.486 125.75ZM244.034 116.091V117.511H238.381V116.091H244.034ZM240.028 113.477H241.705V123.875C241.705 124.348 241.773 124.704 241.911 124.94C242.053 125.172 242.233 125.329 242.45 125.409C242.673 125.485 242.907 125.523 243.153 125.523C243.338 125.523 243.49 125.513 243.608 125.494C243.726 125.471 243.821 125.452 243.892 125.438L244.233 126.943C244.119 126.986 243.961 127.028 243.757 127.071C243.554 127.118 243.296 127.142 242.983 127.142C242.51 127.142 242.046 127.04 241.591 126.837C241.141 126.633 240.767 126.323 240.469 125.906C240.175 125.49 240.028 124.964 240.028 124.33V113.477ZM246.555 127V116.091H248.232V127H246.555ZM247.408 114.273C247.081 114.273 246.799 114.161 246.563 113.939C246.331 113.716 246.215 113.449 246.215 113.136C246.215 112.824 246.331 112.556 246.563 112.334C246.799 112.111 247.081 112 247.408 112C247.734 112 248.014 112.111 248.246 112.334C248.483 112.556 248.601 112.824 248.601 113.136C248.601 113.449 248.483 113.716 248.246 113.939C248.014 114.161 247.734 114.273 247.408 114.273ZM255.733 127.227C254.749 127.227 253.884 126.993 253.141 126.524C252.402 126.055 251.825 125.4 251.408 124.557C250.996 123.714 250.79 122.729 250.79 121.602C250.79 120.466 250.996 119.474 251.408 118.626C251.825 117.779 252.402 117.121 253.141 116.652C253.884 116.183 254.749 115.949 255.733 115.949C256.718 115.949 257.58 116.183 258.319 116.652C259.062 117.121 259.64 117.779 260.052 118.626C260.468 119.474 260.677 120.466 260.677 121.602C260.677 122.729 260.468 123.714 260.052 124.557C259.64 125.4 259.062 126.055 258.319 126.524C257.58 126.993 256.718 127.227 255.733 127.227ZM255.733 125.722C256.481 125.722 257.097 125.53 257.58 125.146C258.063 124.763 258.42 124.259 258.652 123.634C258.884 123.009 259 122.331 259 121.602C259 120.873 258.884 120.194 258.652 119.564C258.42 118.934 258.063 118.425 257.58 118.037C257.097 117.649 256.481 117.455 255.733 117.455C254.985 117.455 254.37 117.649 253.887 118.037C253.404 118.425 253.046 118.934 252.814 119.564C252.582 120.194 252.466 120.873 252.466 121.602C252.466 122.331 252.582 123.009 252.814 123.634C253.046 124.259 253.404 124.763 253.887 125.146C254.37 125.53 254.985 125.722 255.733 125.722ZM264.911 120.438V127H263.235V116.091H264.854V117.795H264.997C265.252 117.241 265.64 116.796 266.161 116.46C266.682 116.119 267.354 115.949 268.178 115.949C268.917 115.949 269.563 116.1 270.117 116.403C270.671 116.702 271.102 117.156 271.41 117.767C271.718 118.373 271.872 119.14 271.872 120.068V127H270.195V120.182C270.195 119.325 269.973 118.657 269.528 118.179C269.083 117.696 268.472 117.455 267.695 117.455C267.16 117.455 266.682 117.571 266.261 117.803C265.844 118.035 265.515 118.373 265.273 118.818C265.032 119.263 264.911 119.803 264.911 120.438Z" fill="white" fill-opacity="0.95"/>
<path d="M114.352 175H112.505L117.846 160.455H119.664L125.005 175H123.159L118.812 162.756H118.699L114.352 175ZM115.034 169.318H122.477V170.881H115.034V169.318ZM128.72 160.455V175H127.044V160.455H128.72ZM133.466 160.455V175H131.79V160.455H133.466ZM140.968 175.227C139.983 175.227 139.119 174.993 138.375 174.524C137.637 174.055 137.059 173.4 136.642 172.557C136.231 171.714 136.025 170.729 136.025 169.602C136.025 168.466 136.231 167.474 136.642 166.626C137.059 165.779 137.637 165.121 138.375 164.652C139.119 164.183 139.983 163.949 140.968 163.949C141.953 163.949 142.814 164.183 143.553 164.652C144.296 165.121 144.874 165.779 145.286 166.626C145.703 167.474 145.911 168.466 145.911 169.602C145.911 170.729 145.703 171.714 145.286 172.557C144.874 173.4 144.296 174.055 143.553 174.524C142.814 174.993 141.953 175.227 140.968 175.227ZM140.968 173.722C141.716 173.722 142.331 173.53 142.814 173.146C143.297 172.763 143.655 172.259 143.887 171.634C144.119 171.009 144.235 170.331 144.235 169.602C144.235 168.873 144.119 168.194 143.887 167.564C143.655 166.934 143.297 166.425 142.814 166.037C142.331 165.649 141.716 165.455 140.968 165.455C140.22 165.455 139.604 165.649 139.121 166.037C138.638 166.425 138.281 166.934 138.049 167.564C137.817 168.194 137.701 168.873 137.701 169.602C137.701 170.331 137.817 171.009 138.049 171.634C138.281 172.259 138.638 172.763 139.121 173.146C139.604 173.53 140.22 173.722 140.968 173.722ZM150.57 175L147.246 164.091H149.008L151.365 172.443H151.479L153.809 164.091H155.598L157.9 172.415H158.013L160.371 164.091H162.133L158.809 175H157.161L154.775 166.619H154.604L152.218 175H150.57ZM173.184 175.256C172.492 175.256 171.865 175.125 171.302 174.865C170.738 174.6 170.291 174.219 169.959 173.722C169.628 173.22 169.462 172.614 169.462 171.903C169.462 171.278 169.585 170.772 169.831 170.384C170.078 169.991 170.407 169.683 170.819 169.46C171.231 169.238 171.685 169.072 172.182 168.963C172.684 168.849 173.188 168.759 173.695 168.693C174.358 168.608 174.895 168.544 175.307 168.501C175.724 168.454 176.027 168.376 176.216 168.267C176.41 168.158 176.508 167.969 176.508 167.699V167.642C176.508 166.941 176.316 166.397 175.932 166.009C175.553 165.62 174.978 165.426 174.206 165.426C173.406 165.426 172.779 165.601 172.324 165.952C171.87 166.302 171.55 166.676 171.365 167.074L169.775 166.506C170.059 165.843 170.437 165.327 170.911 164.957C171.389 164.583 171.91 164.323 172.473 164.176C173.042 164.025 173.6 163.949 174.15 163.949C174.5 163.949 174.902 163.991 175.357 164.077C175.816 164.157 176.259 164.325 176.685 164.581C177.116 164.837 177.473 165.223 177.758 165.739C178.042 166.255 178.184 166.946 178.184 167.812V175H176.508V173.523H176.422C176.309 173.759 176.119 174.013 175.854 174.283C175.589 174.553 175.236 174.782 174.796 174.972C174.356 175.161 173.818 175.256 173.184 175.256ZM173.439 173.75C174.102 173.75 174.661 173.62 175.115 173.359C175.575 173.099 175.92 172.763 176.152 172.351C176.389 171.939 176.508 171.506 176.508 171.051V169.517C176.436 169.602 176.28 169.68 176.039 169.751C175.802 169.818 175.527 169.877 175.215 169.929C174.907 169.976 174.606 170.019 174.313 170.057C174.024 170.09 173.79 170.118 173.61 170.142C173.174 170.199 172.767 170.291 172.388 170.419C172.014 170.542 171.711 170.729 171.479 170.98C171.252 171.226 171.138 171.562 171.138 171.989C171.138 172.571 171.354 173.011 171.785 173.31C172.22 173.603 172.772 173.75 173.439 173.75ZM181.243 179.091V164.091H182.862V165.824H183.061C183.184 165.634 183.355 165.393 183.572 165.099C183.795 164.801 184.112 164.536 184.524 164.304C184.941 164.067 185.504 163.949 186.215 163.949C187.133 163.949 187.943 164.179 188.644 164.638C189.344 165.097 189.891 165.748 190.284 166.591C190.677 167.434 190.874 168.428 190.874 169.574C190.874 170.729 190.677 171.731 190.284 172.578C189.891 173.421 189.347 174.074 188.651 174.538C187.955 174.998 187.152 175.227 186.243 175.227C185.542 175.227 184.981 175.111 184.56 174.879C184.138 174.643 183.814 174.375 183.587 174.077C183.359 173.774 183.184 173.523 183.061 173.324H182.919V179.091H181.243ZM182.891 169.545C182.891 170.369 183.011 171.096 183.253 171.726C183.494 172.351 183.847 172.841 184.311 173.196C184.775 173.546 185.343 173.722 186.016 173.722C186.716 173.722 187.301 173.537 187.77 173.168C188.243 172.794 188.599 172.292 188.835 171.662C189.077 171.027 189.197 170.322 189.197 169.545C189.197 168.778 189.079 168.087 188.842 167.472C188.61 166.851 188.258 166.361 187.784 166.001C187.315 165.637 186.726 165.455 186.016 165.455C185.334 165.455 184.761 165.627 184.297 165.973C183.833 166.314 183.483 166.792 183.246 167.408C183.009 168.018 182.891 168.731 182.891 169.545ZM193.43 179.091V164.091H195.05V165.824H195.249C195.372 165.634 195.542 165.393 195.76 165.099C195.983 164.801 196.3 164.536 196.712 164.304C197.128 164.067 197.692 163.949 198.402 163.949C199.321 163.949 200.13 164.179 200.831 164.638C201.532 165.097 202.079 165.748 202.472 166.591C202.865 167.434 203.061 168.428 203.061 169.574C203.061 170.729 202.865 171.731 202.472 172.578C202.079 173.421 201.534 174.074 200.838 174.538C200.142 174.998 199.34 175.227 198.43 175.227C197.73 175.227 197.169 175.111 196.747 174.879C196.326 174.643 196.001 174.375 195.774 174.077C195.547 173.774 195.372 173.523 195.249 173.324H195.107V179.091H193.43ZM195.078 169.545C195.078 170.369 195.199 171.096 195.44 171.726C195.682 172.351 196.035 172.841 196.499 173.196C196.963 173.546 197.531 173.722 198.203 173.722C198.904 173.722 199.489 173.537 199.957 173.168C200.431 172.794 200.786 172.292 201.023 171.662C201.264 171.027 201.385 170.322 201.385 169.545C201.385 168.778 201.267 168.087 201.03 167.472C200.798 166.851 200.445 166.361 199.972 166.001C199.503 165.637 198.913 165.455 198.203 165.455C197.521 165.455 196.948 165.627 196.484 165.973C196.02 166.314 195.67 166.792 195.433 167.408C195.197 168.018 195.078 168.731 195.078 169.545ZM214.453 175.256C213.762 175.256 213.135 175.125 212.571 174.865C212.008 174.6 211.56 174.219 211.229 173.722C210.897 173.22 210.732 172.614 210.732 171.903C210.732 171.278 210.855 170.772 211.101 170.384C211.347 169.991 211.676 169.683 212.088 169.46C212.5 169.238 212.955 169.072 213.452 168.963C213.954 168.849 214.458 168.759 214.965 168.693C215.627 168.608 216.165 168.544 216.577 168.501C216.993 168.454 217.296 168.376 217.486 168.267C217.68 168.158 217.777 167.969 217.777 167.699V167.642C217.777 166.941 217.585 166.397 217.202 166.009C216.823 165.62 216.248 165.426 215.476 165.426C214.676 165.426 214.048 165.601 213.594 165.952C213.139 166.302 212.82 166.676 212.635 167.074L211.044 166.506C211.328 165.843 211.707 165.327 212.18 164.957C212.659 164.583 213.18 164.323 213.743 164.176C214.311 164.025 214.87 163.949 215.419 163.949C215.769 163.949 216.172 163.991 216.626 164.077C217.086 164.157 217.528 164.325 217.955 164.581C218.385 164.837 218.743 165.223 219.027 165.739C219.311 166.255 219.453 166.946 219.453 167.812V175H217.777V173.523H217.692C217.578 173.759 217.389 174.013 217.124 174.283C216.858 174.553 216.506 174.782 216.065 174.972C215.625 175.161 215.088 175.256 214.453 175.256ZM214.709 173.75C215.372 173.75 215.93 173.62 216.385 173.359C216.844 173.099 217.19 172.763 217.422 172.351C217.659 171.939 217.777 171.506 217.777 171.051V169.517C217.706 169.602 217.55 169.68 217.308 169.751C217.072 169.818 216.797 169.877 216.484 169.929C216.177 169.976 215.876 170.019 215.582 170.057C215.294 170.09 215.059 170.118 214.879 170.142C214.444 170.199 214.037 170.291 213.658 170.419C213.284 170.542 212.981 170.729 212.749 170.98C212.521 171.226 212.408 171.562 212.408 171.989C212.408 172.571 212.623 173.011 213.054 173.31C213.49 173.603 214.041 173.75 214.709 173.75ZM226.944 175.227C225.922 175.227 225.041 174.986 224.302 174.503C223.564 174.02 222.995 173.355 222.598 172.507C222.2 171.66 222.001 170.691 222.001 169.602C222.001 168.494 222.205 167.517 222.612 166.669C223.024 165.817 223.597 165.152 224.331 164.673C225.069 164.19 225.931 163.949 226.916 163.949C227.683 163.949 228.374 164.091 228.99 164.375C229.605 164.659 230.11 165.057 230.503 165.568C230.896 166.08 231.139 166.676 231.234 167.358H229.558C229.43 166.861 229.146 166.42 228.706 166.037C228.27 165.649 227.683 165.455 226.944 165.455C226.291 165.455 225.718 165.625 225.226 165.966C224.738 166.302 224.357 166.778 224.082 167.393C223.812 168.004 223.677 168.722 223.677 169.545C223.677 170.388 223.81 171.122 224.075 171.747C224.345 172.372 224.724 172.857 225.211 173.203C225.704 173.549 226.281 173.722 226.944 173.722C227.38 173.722 227.775 173.646 228.13 173.494C228.485 173.343 228.786 173.125 229.032 172.841C229.279 172.557 229.454 172.216 229.558 171.818H231.234C231.139 172.462 230.905 173.042 230.531 173.558C230.162 174.07 229.672 174.477 229.061 174.78C228.455 175.078 227.749 175.227 226.944 175.227ZM238.116 175.227C237.093 175.227 236.213 174.986 235.474 174.503C234.735 174.02 234.167 173.355 233.77 172.507C233.372 171.66 233.173 170.691 233.173 169.602C233.173 168.494 233.377 167.517 233.784 166.669C234.196 165.817 234.769 165.152 235.503 164.673C236.241 164.19 237.103 163.949 238.088 163.949C238.855 163.949 239.546 164.091 240.162 164.375C240.777 164.659 241.281 165.057 241.674 165.568C242.067 166.08 242.311 166.676 242.406 167.358H240.73C240.602 166.861 240.318 166.42 239.878 166.037C239.442 165.649 238.855 165.455 238.116 165.455C237.463 165.455 236.89 165.625 236.397 165.966C235.91 166.302 235.529 166.778 235.254 167.393C234.984 168.004 234.849 168.722 234.849 169.545C234.849 170.388 234.982 171.122 235.247 171.747C235.517 172.372 235.896 172.857 236.383 173.203C236.876 173.549 237.453 173.722 238.116 173.722C238.552 173.722 238.947 173.646 239.302 173.494C239.657 173.343 239.958 173.125 240.204 172.841C240.45 172.557 240.626 172.216 240.73 171.818H242.406C242.311 172.462 242.077 173.042 241.703 173.558C241.334 174.07 240.843 174.477 240.233 174.78C239.627 175.078 238.921 175.227 238.116 175.227ZM249.43 175.227C248.379 175.227 247.472 174.995 246.71 174.531C245.952 174.062 245.368 173.409 244.956 172.571C244.548 171.728 244.345 170.748 244.345 169.631C244.345 168.513 244.548 167.528 244.956 166.676C245.368 165.819 245.941 165.152 246.674 164.673C247.413 164.19 248.275 163.949 249.26 163.949C249.828 163.949 250.389 164.044 250.943 164.233C251.497 164.422 252.001 164.73 252.456 165.156C252.91 165.578 253.272 166.136 253.542 166.832C253.812 167.528 253.947 168.385 253.947 169.403V170.114H245.538V168.665H252.243C252.243 168.049 252.119 167.5 251.873 167.017C251.632 166.534 251.286 166.153 250.836 165.874C250.391 165.594 249.866 165.455 249.26 165.455C248.592 165.455 248.014 165.62 247.527 165.952C247.044 166.278 246.672 166.705 246.412 167.23C246.151 167.756 246.021 168.319 246.021 168.92V169.886C246.021 170.71 246.163 171.409 246.447 171.982C246.736 172.55 247.136 172.983 247.647 173.281C248.159 173.575 248.753 173.722 249.43 173.722C249.87 173.722 250.268 173.66 250.623 173.537C250.983 173.409 251.293 173.22 251.554 172.969C251.814 172.713 252.015 172.396 252.157 172.017L253.777 172.472C253.606 173.021 253.32 173.504 252.917 173.92C252.515 174.332 252.018 174.654 251.426 174.886C250.834 175.114 250.169 175.227 249.43 175.227ZM264.224 166.534L262.718 166.96C262.624 166.709 262.484 166.465 262.299 166.229C262.119 165.987 261.873 165.788 261.561 165.632C261.248 165.476 260.848 165.398 260.36 165.398C259.693 165.398 259.137 165.552 258.691 165.859C258.251 166.162 258.031 166.548 258.031 167.017C258.031 167.434 258.182 167.763 258.485 168.004C258.789 168.246 259.262 168.447 259.906 168.608L261.525 169.006C262.501 169.242 263.227 169.605 263.706 170.092C264.184 170.575 264.423 171.198 264.423 171.96C264.423 172.585 264.243 173.144 263.883 173.636C263.528 174.129 263.031 174.517 262.392 174.801C261.753 175.085 261.009 175.227 260.162 175.227C259.049 175.227 258.128 174.986 257.399 174.503C256.67 174.02 256.208 173.314 256.014 172.386L257.605 171.989C257.756 172.576 258.043 173.016 258.464 173.31C258.89 173.603 259.447 173.75 260.133 173.75C260.914 173.75 261.535 173.584 261.994 173.253C262.458 172.917 262.69 172.514 262.69 172.045C262.69 171.667 262.557 171.349 262.292 171.094C262.027 170.833 261.62 170.639 261.071 170.511L259.253 170.085C258.253 169.848 257.52 169.482 257.051 168.984C256.587 168.482 256.355 167.855 256.355 167.102C256.355 166.487 256.528 165.942 256.873 165.469C257.224 164.995 257.7 164.624 258.301 164.354C258.907 164.084 259.593 163.949 260.36 163.949C261.44 163.949 262.288 164.186 262.903 164.659C263.523 165.133 263.964 165.758 264.224 166.534ZM274.673 166.534L273.168 166.96C273.073 166.709 272.933 166.465 272.749 166.229C272.569 165.987 272.322 165.788 272.01 165.632C271.697 165.476 271.297 165.398 270.81 165.398C270.142 165.398 269.586 165.552 269.141 165.859C268.7 166.162 268.48 166.548 268.48 167.017C268.48 167.434 268.632 167.763 268.935 168.004C269.238 168.246 269.711 168.447 270.355 168.608L271.974 169.006C272.95 169.242 273.677 169.605 274.155 170.092C274.633 170.575 274.872 171.198 274.872 171.96C274.872 172.585 274.692 173.144 274.332 173.636C273.977 174.129 273.48 174.517 272.841 174.801C272.202 175.085 271.458 175.227 270.611 175.227C269.498 175.227 268.577 174.986 267.848 174.503C267.119 174.02 266.657 173.314 266.463 172.386L268.054 171.989C268.206 172.576 268.492 173.016 268.913 173.31C269.34 173.603 269.896 173.75 270.582 173.75C271.364 173.75 271.984 173.584 272.443 173.253C272.907 172.917 273.139 172.514 273.139 172.045C273.139 171.667 273.007 171.349 272.742 171.094C272.476 170.833 272.069 170.639 271.52 170.511L269.702 170.085C268.703 169.848 267.969 169.482 267.5 168.984C267.036 168.482 266.804 167.855 266.804 167.102C266.804 166.487 266.977 165.942 267.322 165.469C267.673 164.995 268.149 164.624 268.75 164.354C269.356 164.084 270.043 163.949 270.81 163.949C271.889 163.949 272.737 164.186 273.352 164.659C273.973 165.133 274.413 165.758 274.673 166.534Z" fill="white" fill-opacity="0.95"/>
</svg>
