<svg width="1150" height="301" viewBox="0 0 1150 301" fill="none" xmlns="http://www.w3.org/2000/svg">
<rect width="1150" height="300.298" rx="12" fill="#1A1A1A"/>
<g filter="url(#filter0_dd_1027_318743)">
<g filter="url(#filter1_dd_1027_318743)">
<rect x="273" y="78.2979" width="580" height="162" rx="8" fill="black"/>
<rect x="273.5" y="78.7979" width="579" height="161" rx="7.5" stroke="white" stroke-opacity="0.2"/>
<path d="M302.584 99.7779H304.504L301.64 111.298H299.24L296.824 101.89L294.392 111.298H291.976L289.048 99.7779H291.16L293.32 108.93L295.688 99.7779H298.104L300.44 108.93L302.584 99.7779ZM307.491 111.298H305.571V99.7779H307.491V103.842C308.088 103.106 308.894 102.738 309.907 102.738C310.91 102.738 311.672 103.047 312.195 103.666C312.664 104.21 312.899 104.951 312.899 105.89V111.298H310.979V105.938C310.979 104.797 310.451 104.226 309.395 104.226C308.808 104.226 308.339 104.429 307.987 104.834C307.656 105.207 307.491 105.682 307.491 106.258V111.298ZM316.612 105.33H314.612C314.75 104.466 315.182 103.805 315.908 103.346C316.558 102.941 317.374 102.738 318.356 102.738C319.54 102.738 320.446 103.042 321.076 103.65C321.62 104.173 321.892 104.85 321.892 105.682V111.298H320.356L320.116 110.274C319.465 111.117 318.542 111.538 317.348 111.538C316.398 111.538 315.662 111.282 315.14 110.77C314.681 110.322 314.452 109.751 314.452 109.058C314.452 108.279 314.734 107.671 315.3 107.234C315.812 106.829 316.606 106.535 317.684 106.354L319.972 105.97V105.57C319.972 105.069 319.806 104.695 319.476 104.45C319.188 104.226 318.793 104.114 318.292 104.114C317.3 104.114 316.74 104.519 316.612 105.33ZM319.972 107.234L318.164 107.554C317.545 107.671 317.102 107.837 316.836 108.05C316.569 108.253 316.436 108.541 316.436 108.914C316.436 109.693 316.91 110.082 317.86 110.082C318.478 110.082 319.001 109.879 319.428 109.474C319.79 109.122 319.972 108.711 319.972 108.242V107.234ZM327.98 109.89V111.346C327.532 111.474 327.105 111.538 326.7 111.538C325.879 111.538 325.255 111.293 324.828 110.802C324.465 110.386 324.284 109.826 324.284 109.122V104.45H323.036V102.978H324.284L324.412 100.978H326.204V102.978H327.964V104.45H326.204V109.186C326.204 109.741 326.487 110.018 327.052 110.018C327.297 110.018 327.607 109.975 327.98 109.89ZM331.706 99.7779V101.554C331.706 102.557 331.396 103.319 330.778 103.842C330.351 104.205 329.823 104.423 329.194 104.498V103.522C329.94 103.362 330.314 102.818 330.314 101.89H329.466V99.7779H331.706ZM335.181 108.93C335.331 109.73 335.933 110.13 336.989 110.13C337.576 110.13 338.019 110.018 338.317 109.794C338.563 109.602 338.685 109.351 338.685 109.042C338.685 108.647 338.472 108.354 338.045 108.162C337.8 108.055 337.261 107.906 336.429 107.714C335.405 107.479 334.675 107.159 334.237 106.754C333.8 106.359 333.581 105.842 333.581 105.202C333.581 104.391 333.912 103.767 334.573 103.33C335.16 102.935 335.965 102.738 336.989 102.738C338.045 102.738 338.893 102.989 339.533 103.49C340.088 103.917 340.435 104.493 340.573 105.218H338.621C338.461 104.503 337.907 104.146 336.957 104.146C335.997 104.146 335.517 104.439 335.517 105.026C335.517 105.325 335.64 105.549 335.885 105.698C336.131 105.847 336.627 106.013 337.373 106.194C338.525 106.461 339.325 106.759 339.773 107.09C340.339 107.506 340.621 108.093 340.621 108.85C340.621 109.714 340.269 110.391 339.565 110.882C338.925 111.319 338.061 111.538 336.973 111.538C335.832 111.538 334.92 111.266 334.237 110.722C333.661 110.263 333.325 109.666 333.229 108.93H335.181ZM349.365 99.7779L354.405 108.674V99.7779H356.197V111.298H353.845L348.693 102.242V111.298H346.885V99.7779H349.365ZM363.969 108.898H365.985C365.761 109.751 365.297 110.413 364.593 110.882C363.921 111.319 363.094 111.538 362.113 111.538C360.758 111.538 359.702 111.111 358.945 110.258C358.252 109.479 357.905 108.439 357.905 107.138C357.905 105.645 358.337 104.503 359.201 103.714C359.926 103.063 360.87 102.738 362.033 102.738C363.388 102.738 364.412 103.181 365.105 104.066C365.756 104.887 366.081 106.061 366.081 107.586H359.857C359.932 108.482 360.209 109.138 360.689 109.554C361.073 109.895 361.574 110.066 362.193 110.066C362.63 110.066 363.009 109.959 363.329 109.746C363.649 109.533 363.862 109.25 363.969 108.898ZM364.113 106.274C364.07 105.495 363.836 104.925 363.409 104.562C363.057 104.253 362.598 104.098 362.033 104.098C361.414 104.098 360.918 104.301 360.545 104.706C360.204 105.069 359.985 105.591 359.889 106.274H364.113ZM377.903 102.978H379.775L377.407 111.298H375.103L373.359 104.914L371.583 111.298H369.263L366.911 102.978H368.895L370.495 109.49L372.271 102.978H374.575L376.271 109.49L377.903 102.978Z" fill="white" fill-opacity="0.95"/>
<path d="M827.707 104.298L831.853 100.151C831.9 100.105 831.937 100.05 831.962 99.9892C831.987 99.9285 832 99.8635 832 99.7978C832 99.7322 831.987 99.6672 831.962 99.6065C831.937 99.5459 831.9 99.4908 831.853 99.4443C831.807 99.3979 831.752 99.3611 831.691 99.336C831.631 99.3108 831.566 99.2979 831.5 99.2979C831.434 99.2979 831.369 99.3108 831.309 99.336C831.248 99.3611 831.193 99.3979 831.146 99.4443L827 103.591L822.853 99.4443C822.807 99.3975 822.752 99.3602 822.691 99.3348C822.63 99.3093 822.565 99.2961 822.499 99.2959C822.433 99.2957 822.368 99.3086 822.307 99.3337C822.246 99.3588 822.191 99.3957 822.144 99.4423C822.098 99.4889 822.061 99.5443 822.036 99.6052C822.011 99.6661 821.998 99.7314 821.998 99.7973C821.998 99.8632 822.011 99.9284 822.037 99.9891C822.062 100.05 822.1 100.105 822.146 100.151L826.293 104.298L822.146 108.444C822.1 108.491 822.063 108.546 822.038 108.607C822.013 108.667 822 108.732 822 108.798C822 108.864 822.013 108.929 822.038 108.989C822.063 109.05 822.1 109.105 822.146 109.151C822.193 109.198 822.248 109.235 822.309 109.26C822.369 109.285 822.434 109.298 822.5 109.298C822.566 109.298 822.631 109.285 822.691 109.26C822.752 109.235 822.807 109.198 822.853 109.151L827 105.005L831.146 109.151C831.24 109.245 831.367 109.298 831.5 109.298C831.633 109.298 831.76 109.245 831.853 109.151C831.947 109.058 832 108.93 832 108.798C832 108.665 831.947 108.538 831.853 108.444L827.707 104.298Z" fill="white" fill-opacity="0.95"/>
<path d="M297.302 136.218V137.492H293.914V146.298H292.486V137.492H289.14V136.218H297.302ZM299.76 146.298H298.416V136.218H299.76V139.844C300.292 139.153 301.001 138.808 301.888 138.808C302.746 138.808 303.404 139.074 303.862 139.606C304.263 140.082 304.464 140.731 304.464 141.552V146.298H303.12V141.566C303.12 140.493 302.602 139.956 301.566 139.956C301.015 139.956 300.567 140.147 300.222 140.53C299.914 140.875 299.76 141.319 299.76 141.86V146.298ZM305.939 142.658C305.939 141.323 306.336 140.315 307.129 139.634C307.764 139.083 308.566 138.808 309.537 138.808C310.666 138.808 311.553 139.167 312.197 139.886C312.813 140.558 313.121 141.482 313.121 142.658C313.121 143.974 312.734 144.977 311.959 145.668C311.324 146.228 310.512 146.508 309.523 146.508C308.394 146.508 307.502 146.135 306.849 145.388C306.242 144.707 305.939 143.797 305.939 142.658ZM307.339 142.658C307.339 143.591 307.577 144.305 308.053 144.8C308.445 145.211 308.944 145.416 309.551 145.416C310.26 145.416 310.806 145.15 311.189 144.618C311.544 144.133 311.721 143.479 311.721 142.658C311.721 141.706 311.488 140.987 311.021 140.502C310.638 140.101 310.144 139.9 309.537 139.9C308.837 139.9 308.291 140.166 307.899 140.698C307.526 141.183 307.339 141.837 307.339 142.658ZM316.002 146.298H314.658V139.018H315.764L315.946 140.096C316.356 139.237 316.972 138.808 317.794 138.808C318.064 138.808 318.33 138.841 318.592 138.906V140.25C318.274 140.166 317.99 140.124 317.738 140.124C317.196 140.124 316.772 140.343 316.464 140.782C316.156 141.221 316.002 141.841 316.002 142.644V146.298ZM324.993 141.048H323.565C323.64 140.32 323.985 139.755 324.601 139.354C325.152 138.99 325.847 138.808 326.687 138.808C327.686 138.808 328.451 139.069 328.983 139.592C329.431 140.04 329.655 140.619 329.655 141.328V146.298H328.549L328.381 145.304C327.812 146.107 327 146.508 325.945 146.508C325.115 146.508 324.466 146.284 323.999 145.836C323.617 145.463 323.425 144.991 323.425 144.422C323.425 143.703 323.673 143.148 324.167 142.756C324.606 142.411 325.278 142.159 326.183 142L328.311 141.636V141.272C328.311 140.796 328.148 140.437 327.821 140.194C327.532 139.979 327.135 139.872 326.631 139.872C325.642 139.872 325.096 140.264 324.993 141.048ZM326.267 145.374C326.837 145.374 327.331 145.187 327.751 144.814C328.125 144.469 328.311 144.072 328.311 143.624V142.686L326.505 143.008C325.843 143.12 325.39 143.293 325.147 143.526C324.951 143.713 324.853 143.965 324.853 144.282C324.853 144.637 324.975 144.907 325.217 145.094C325.46 145.281 325.81 145.374 326.267 145.374ZM332.887 146.298H331.543V139.018H332.649L332.803 139.942C333.344 139.186 334.081 138.808 335.015 138.808C335.873 138.808 336.531 139.074 336.989 139.606C337.39 140.082 337.591 140.731 337.591 141.552V146.298H336.247V141.566C336.247 140.493 335.729 139.956 334.693 139.956C334.151 139.956 333.708 140.143 333.363 140.516C333.045 140.852 332.887 141.281 332.887 141.804V146.298ZM346.052 146.298H344.946L344.708 145.276C344.148 146.097 343.341 146.508 342.286 146.508C341.269 146.508 340.466 146.139 339.878 145.402C339.337 144.721 339.066 143.82 339.066 142.7C339.066 141.347 339.411 140.329 340.102 139.648C340.681 139.088 341.437 138.808 342.37 138.808C343.378 138.808 344.157 139.186 344.708 139.942V136.218H346.052V146.298ZM340.466 142.728C340.466 143.633 340.69 144.319 341.138 144.786C341.511 145.169 341.992 145.36 342.58 145.36C343.308 145.36 343.873 145.085 344.274 144.534C344.61 144.058 344.778 143.461 344.778 142.742C344.778 141.799 344.554 141.081 344.106 140.586C343.723 140.166 343.215 139.956 342.58 139.956C341.871 139.956 341.334 140.213 340.97 140.726C340.634 141.193 340.466 141.86 340.466 142.728ZM352.284 136.218H353.726V145.024H358.472V146.298H352.284V136.218ZM359.382 142.658C359.382 141.323 359.779 140.315 360.572 139.634C361.207 139.083 362.01 138.808 362.98 138.808C364.11 138.808 364.996 139.167 365.64 139.886C366.256 140.558 366.564 141.482 366.564 142.658C366.564 143.974 366.177 144.977 365.402 145.668C364.768 146.228 363.956 146.508 362.966 146.508C361.837 146.508 360.946 146.135 360.292 145.388C359.686 144.707 359.382 143.797 359.382 142.658ZM360.782 142.658C360.782 143.591 361.02 144.305 361.496 144.8C361.888 145.211 362.388 145.416 362.994 145.416C363.704 145.416 364.25 145.15 364.632 144.618C364.987 144.133 365.164 143.479 365.164 142.658C365.164 141.706 364.931 140.987 364.464 140.502C364.082 140.101 363.587 139.9 362.98 139.9C362.28 139.9 361.734 140.166 361.342 140.698C360.969 141.183 360.782 141.837 360.782 142.658ZM369.445 146.298H368.101V136.218H369.445V141.846L372.301 139.018H374.065L370.789 142.182L374.471 146.298H372.679L369.445 142.63V146.298ZM376.803 137.8H375.291V136.218H376.803V137.8ZM376.719 146.298H375.375V139.018H376.719V146.298ZM384.224 146.298H382.88V136.218H384.224V139.844C384.756 139.153 385.466 138.808 386.352 138.808C387.211 138.808 387.869 139.074 388.326 139.606C388.728 140.082 388.928 140.731 388.928 141.552V146.298H387.584V141.566C387.584 140.493 387.066 139.956 386.03 139.956C385.48 139.956 385.032 140.147 384.686 140.53C384.378 140.875 384.224 141.319 384.224 141.86V146.298ZM391.972 141.048H390.544C390.618 140.32 390.964 139.755 391.58 139.354C392.13 138.99 392.826 138.808 393.666 138.808C394.664 138.808 395.43 139.069 395.962 139.592C396.41 140.04 396.634 140.619 396.634 141.328V146.298H395.528L395.36 145.304C394.79 146.107 393.978 146.508 392.924 146.508C392.093 146.508 391.444 146.284 390.978 145.836C390.595 145.463 390.404 144.991 390.404 144.422C390.404 143.703 390.651 143.148 391.146 142.756C391.584 142.411 392.256 142.159 393.162 142L395.29 141.636V141.272C395.29 140.796 395.126 140.437 394.8 140.194C394.51 139.979 394.114 139.872 393.61 139.872C392.62 139.872 392.074 140.264 391.972 141.048ZM393.246 145.374C393.815 145.374 394.31 145.187 394.73 144.814C395.103 144.469 395.29 144.072 395.29 143.624V142.686L393.484 143.008C392.821 143.12 392.368 143.293 392.126 143.526C391.93 143.713 391.832 143.965 391.832 144.282C391.832 144.637 391.953 144.907 392.196 145.094C392.438 145.281 392.788 145.374 393.246 145.374ZM402.777 144.324C402.777 143.913 402.562 143.605 402.133 143.4C401.881 143.288 401.391 143.148 400.663 142.98C399.767 142.784 399.128 142.499 398.745 142.126C398.428 141.809 398.269 141.393 398.269 140.88C398.269 140.199 398.544 139.676 399.095 139.312C399.59 138.976 400.257 138.808 401.097 138.808C401.965 138.808 402.67 139.023 403.211 139.452C403.678 139.825 403.967 140.32 404.079 140.936H402.707C402.548 140.227 402.007 139.872 401.083 139.872C400.57 139.872 400.187 139.965 399.935 140.152C399.73 140.311 399.627 140.511 399.627 140.754C399.627 141.053 399.739 141.277 399.963 141.426C400.196 141.575 400.649 141.725 401.321 141.874C402.348 142.098 403.062 142.373 403.463 142.7C403.911 143.064 404.135 143.573 404.135 144.226C404.135 144.954 403.836 145.528 403.239 145.948C402.698 146.321 401.984 146.508 401.097 146.508C400.126 146.508 399.356 146.275 398.787 145.808C398.292 145.397 398.017 144.865 397.961 144.212H399.333C399.482 145.033 400.075 145.444 401.111 145.444C401.671 145.444 402.105 145.323 402.413 145.08C402.656 144.884 402.777 144.632 402.777 144.324ZM411.213 146.298H409.869V139.018H410.975L411.157 140.096C411.567 139.237 412.183 138.808 413.005 138.808C413.275 138.808 413.541 138.841 413.803 138.906V140.25C413.485 140.166 413.201 140.124 412.949 140.124C412.407 140.124 411.983 140.343 411.675 140.782C411.367 141.221 411.213 141.841 411.213 142.644V146.298ZM419.678 144.198H421.134C420.929 144.935 420.523 145.514 419.916 145.934C419.347 146.317 418.666 146.508 417.872 146.508C416.724 146.508 415.828 146.144 415.184 145.416C414.596 144.735 414.302 143.815 414.302 142.658C414.302 141.342 414.676 140.343 415.422 139.662C416.038 139.093 416.832 138.808 417.802 138.808C418.941 138.808 419.8 139.177 420.378 139.914C420.938 140.623 421.218 141.636 421.218 142.952H415.674C415.73 143.811 415.992 144.45 416.458 144.87C416.841 145.206 417.326 145.374 417.914 145.374C418.372 145.374 418.768 145.248 419.104 144.996C419.384 144.781 419.576 144.515 419.678 144.198ZM417.83 139.886C417.233 139.886 416.752 140.073 416.388 140.446C416.043 140.791 415.824 141.272 415.73 141.888H419.846C419.8 141.188 419.566 140.665 419.146 140.32C418.81 140.031 418.372 139.886 417.83 139.886ZM426.078 145.22V146.368C425.732 146.461 425.401 146.508 425.084 146.508C424.412 146.508 423.908 146.298 423.572 145.878C423.282 145.533 423.138 145.071 423.138 144.492V140.166H422.06V139.018H423.138L423.222 137.268H424.482V139.018H426.05V140.166H424.482V144.52C424.482 145.061 424.738 145.332 425.252 145.332C425.494 145.332 425.77 145.295 426.078 145.22ZM427.271 139.018H428.615V143.792C428.615 144.837 429.119 145.36 430.127 145.36C430.743 145.36 431.215 145.141 431.541 144.702C431.793 144.366 431.919 143.951 431.919 143.456V139.018H433.263V146.298H432.157L432.003 145.458C431.49 146.158 430.762 146.508 429.819 146.508C428.989 146.508 428.349 146.251 427.901 145.738C427.481 145.262 427.271 144.604 427.271 143.764V139.018ZM436.574 146.298H435.23V139.018H436.336L436.518 140.096C436.929 139.237 437.545 138.808 438.366 138.808C438.637 138.808 438.903 138.841 439.164 138.906V140.25C438.847 140.166 438.562 140.124 438.31 140.124C437.769 140.124 437.344 140.343 437.036 140.782C436.728 141.221 436.574 141.841 436.574 142.644V146.298ZM441.564 146.298H440.22V139.018H441.326L441.48 139.942C442.022 139.186 442.759 138.808 443.692 138.808C444.551 138.808 445.209 139.074 445.666 139.606C446.068 140.082 446.268 140.731 446.268 141.552V146.298H444.924V141.566C444.924 140.493 444.406 139.956 443.37 139.956C442.829 139.956 442.386 140.143 442.04 140.516C441.723 140.852 441.564 141.281 441.564 141.804V146.298ZM453.12 144.198H454.576C454.37 144.935 453.964 145.514 453.358 145.934C452.788 146.317 452.107 146.508 451.314 146.508C450.166 146.508 449.27 146.144 448.626 145.416C448.038 144.735 447.744 143.815 447.744 142.658C447.744 141.342 448.117 140.343 448.864 139.662C449.48 139.093 450.273 138.808 451.244 138.808C452.382 138.808 453.241 139.177 453.82 139.914C454.38 140.623 454.66 141.636 454.66 142.952H449.116C449.172 143.811 449.433 144.45 449.9 144.87C450.282 145.206 450.768 145.374 451.356 145.374C451.813 145.374 452.21 145.248 452.546 144.996C452.826 144.781 453.017 144.515 453.12 144.198ZM451.272 139.886C450.674 139.886 450.194 140.073 449.83 140.446C449.484 140.791 449.265 141.272 449.172 141.888H453.288C453.241 141.188 453.008 140.665 452.588 140.32C452.252 140.031 451.813 139.886 451.272 139.886ZM462.837 146.298H461.731L461.493 145.276C460.933 146.097 460.126 146.508 459.071 146.508C458.054 146.508 457.251 146.139 456.663 145.402C456.122 144.721 455.851 143.82 455.851 142.7C455.851 141.347 456.196 140.329 456.887 139.648C457.466 139.088 458.222 138.808 459.155 138.808C460.163 138.808 460.942 139.186 461.493 139.942V136.218H462.837V146.298ZM457.251 142.728C457.251 143.633 457.475 144.319 457.923 144.786C458.296 145.169 458.777 145.36 459.365 145.36C460.093 145.36 460.658 145.085 461.059 144.534C461.395 144.058 461.563 143.461 461.563 142.742C461.563 141.799 461.339 141.081 460.891 140.586C460.508 140.166 460 139.956 459.365 139.956C458.656 139.956 458.119 140.213 457.755 140.726C457.419 141.193 457.251 141.86 457.251 142.728ZM472.598 136.176V137.338C472.15 137.226 471.781 137.17 471.492 137.17C471.249 137.17 471.058 137.235 470.918 137.366C470.787 137.497 470.722 137.679 470.722 137.912V139.018H472.29V140.166H470.722V146.298H469.378V140.166H468.3V139.018H469.378V137.996C469.378 137.352 469.588 136.848 470.008 136.484C470.381 136.167 470.848 136.008 471.408 136.008C471.772 136.008 472.168 136.064 472.598 136.176ZM474.855 146.298H473.511V139.018H474.617L474.799 140.096C475.21 139.237 475.826 138.808 476.647 138.808C476.918 138.808 477.184 138.841 477.445 138.906V140.25C477.128 140.166 476.843 140.124 476.591 140.124C476.05 140.124 475.625 140.343 475.317 140.782C475.009 141.221 474.855 141.841 474.855 142.644V146.298ZM477.945 142.658C477.945 141.323 478.341 140.315 479.135 139.634C479.769 139.083 480.572 138.808 481.543 138.808C482.672 138.808 483.559 139.167 484.203 139.886C484.819 140.558 485.127 141.482 485.127 142.658C485.127 143.974 484.739 144.977 483.965 145.668C483.33 146.228 482.518 146.508 481.529 146.508C480.399 146.508 479.508 146.135 478.855 145.388C478.248 144.707 477.945 143.797 477.945 142.658ZM479.345 142.658C479.345 143.591 479.583 144.305 480.059 144.8C480.451 145.211 480.95 145.416 481.557 145.416C482.266 145.416 482.812 145.15 483.195 144.618C483.549 144.133 483.727 143.479 483.727 142.658C483.727 141.706 483.493 140.987 483.027 140.502C482.644 140.101 482.149 139.9 481.543 139.9C480.843 139.9 480.297 140.166 479.905 140.698C479.531 141.183 479.345 141.837 479.345 142.658ZM488.008 146.298H486.664V139.018H487.77L487.91 139.872C488.404 139.163 489.118 138.808 490.052 138.808C491.069 138.808 491.783 139.191 492.194 139.956C492.679 139.191 493.468 138.808 494.56 138.808C495.372 138.808 495.997 139.055 496.436 139.55C496.828 140.007 497.024 140.633 497.024 141.426V146.298H495.68V141.524C495.68 140.479 495.208 139.956 494.266 139.956C493.706 139.956 493.258 140.175 492.922 140.614C492.651 140.969 492.516 141.384 492.516 141.86V146.298H491.172V141.524C491.172 140.479 490.7 139.956 489.758 139.956C489.235 139.956 488.801 140.161 488.456 140.572C488.157 140.917 488.008 141.333 488.008 141.818V146.298ZM506.359 145.22V146.368C506.014 146.461 505.682 146.508 505.365 146.508C504.693 146.508 504.189 146.298 503.853 145.878C503.564 145.533 503.419 145.071 503.419 144.492V140.166H502.341V139.018H503.419L503.503 137.268H504.763V139.018H506.331V140.166H504.763V144.52C504.763 145.061 505.02 145.332 505.533 145.332C505.776 145.332 506.051 145.295 506.359 145.22ZM508.967 146.298H507.623V136.218H508.967V139.844C509.499 139.153 510.208 138.808 511.095 138.808C511.953 138.808 512.611 139.074 513.069 139.606C513.47 140.082 513.671 140.731 513.671 141.552V146.298H512.327V141.566C512.327 140.493 511.809 139.956 510.773 139.956C510.222 139.956 509.774 140.147 509.429 140.53C509.121 140.875 508.967 141.319 508.967 141.86V146.298ZM520.522 144.198H521.978C521.773 144.935 521.367 145.514 520.76 145.934C520.191 146.317 519.509 146.508 518.716 146.508C517.568 146.508 516.672 146.144 516.028 145.416C515.44 144.735 515.146 143.815 515.146 142.658C515.146 141.342 515.519 140.343 516.266 139.662C516.882 139.093 517.675 138.808 518.646 138.808C519.785 138.808 520.643 139.177 521.222 139.914C521.782 140.623 522.062 141.636 522.062 142.952H516.518C516.574 143.811 516.835 144.45 517.302 144.87C517.685 145.206 518.17 145.374 518.758 145.374C519.215 145.374 519.612 145.248 519.948 144.996C520.228 144.781 520.419 144.515 520.522 144.198ZM518.674 139.886C518.077 139.886 517.596 140.073 517.232 140.446C516.887 140.791 516.667 141.272 516.574 141.888H520.69C520.643 141.188 520.41 140.665 519.99 140.32C519.654 140.031 519.215 139.886 518.674 139.886ZM525.101 137.8H523.589V136.218H525.101V137.8ZM525.017 146.298H523.673V139.018H525.017V146.298ZM528.326 146.298H526.982V139.018H528.088L528.27 140.096C528.681 139.237 529.297 138.808 530.118 138.808C530.389 138.808 530.655 138.841 530.916 138.906V140.25C530.599 140.166 530.314 140.124 530.062 140.124C529.521 140.124 529.096 140.343 528.788 140.782C528.48 141.221 528.326 141.841 528.326 142.644V146.298ZM537.275 146.298H536.169V136.218H537.513V140.026C538.083 139.214 538.895 138.808 539.949 138.808C540.995 138.808 541.807 139.181 542.385 139.928C542.899 140.6 543.155 141.491 543.155 142.602C543.155 143.918 542.805 144.926 542.105 145.626C541.517 146.214 540.766 146.508 539.851 146.508C538.815 146.508 538.027 146.116 537.485 145.332L537.275 146.298ZM541.755 142.574C541.755 141.659 541.527 140.973 541.069 140.516C540.705 140.143 540.229 139.956 539.641 139.956C538.96 139.956 538.419 140.203 538.017 140.698C537.635 141.174 537.443 141.799 537.443 142.574C537.443 143.507 537.672 144.221 538.129 144.716C538.512 145.145 539.016 145.36 539.641 145.36C540.341 145.36 540.873 145.103 541.237 144.59C541.583 144.114 541.755 143.442 541.755 142.574ZM545.849 141.048H544.421C544.495 140.32 544.841 139.755 545.457 139.354C546.007 138.99 546.703 138.808 547.543 138.808C548.541 138.808 549.307 139.069 549.839 139.592C550.287 140.04 550.511 140.619 550.511 141.328V146.298H549.405L549.237 145.304C548.667 146.107 547.855 146.508 546.801 146.508C545.97 146.508 545.321 146.284 544.855 145.836C544.472 145.463 544.281 144.991 544.281 144.422C544.281 143.703 544.528 143.148 545.023 142.756C545.461 142.411 546.133 142.159 547.039 142L549.167 141.636V141.272C549.167 140.796 549.003 140.437 548.677 140.194C548.387 139.979 547.991 139.872 547.487 139.872C546.497 139.872 545.951 140.264 545.849 141.048ZM547.123 145.374C547.692 145.374 548.187 145.187 548.607 144.814C548.98 144.469 549.167 144.072 549.167 143.624V142.686L547.361 143.008C546.698 143.12 546.245 143.293 546.003 143.526C545.807 143.713 545.709 143.965 545.709 144.282C545.709 144.637 545.83 144.907 546.073 145.094C546.315 145.281 546.665 145.374 547.123 145.374ZM555.646 145.22V146.368C555.301 146.461 554.969 146.508 554.652 146.508C553.98 146.508 553.476 146.298 553.14 145.878C552.851 145.533 552.706 145.071 552.706 144.492V140.166H551.628V139.018H552.706L552.79 137.268H554.05V139.018H555.618V140.166H554.05V144.52C554.05 145.061 554.307 145.332 554.82 145.332C555.063 145.332 555.338 145.295 555.646 145.22ZM560.158 145.22V146.368C559.812 146.461 559.481 146.508 559.164 146.508C558.492 146.508 557.988 146.298 557.652 145.878C557.362 145.533 557.218 145.071 557.218 144.492V140.166H556.14V139.018H557.218L557.302 137.268H558.562V139.018H560.13V140.166H558.562V144.52C558.562 145.061 558.818 145.332 559.332 145.332C559.574 145.332 559.85 145.295 560.158 145.22ZM562.765 136.218V146.298H561.421V136.218H562.765ZM569.686 144.198H571.142C570.937 144.935 570.531 145.514 569.924 145.934C569.355 146.317 568.673 146.508 567.88 146.508C566.732 146.508 565.836 146.144 565.192 145.416C564.604 144.735 564.31 143.815 564.31 142.658C564.31 141.342 564.683 140.343 565.43 139.662C566.046 139.093 566.839 138.808 567.81 138.808C568.949 138.808 569.807 139.177 570.386 139.914C570.946 140.623 571.226 141.636 571.226 142.952H565.682C565.738 143.811 565.999 144.45 566.466 144.87C566.849 145.206 567.334 145.374 567.922 145.374C568.379 145.374 568.776 145.248 569.112 144.996C569.392 144.781 569.583 144.515 569.686 144.198ZM567.838 139.886C567.241 139.886 566.76 140.073 566.396 140.446C566.051 140.791 565.831 141.272 565.738 141.888H569.854C569.807 141.188 569.574 140.665 569.154 140.32C568.818 140.031 568.379 139.886 567.838 139.886ZM576.615 142.658C576.615 141.323 577.011 140.315 577.805 139.634C578.439 139.083 579.242 138.808 580.213 138.808C581.342 138.808 582.229 139.167 582.873 139.886C583.489 140.558 583.797 141.482 583.797 142.658C583.797 143.974 583.409 144.977 582.635 145.668C582 146.228 581.188 146.508 580.199 146.508C579.069 146.508 578.178 146.135 577.525 145.388C576.918 144.707 576.615 143.797 576.615 142.658ZM578.015 142.658C578.015 143.591 578.253 144.305 578.729 144.8C579.121 145.211 579.62 145.416 580.227 145.416C580.936 145.416 581.482 145.15 581.865 144.618C582.219 144.133 582.397 143.479 582.397 142.658C582.397 141.706 582.163 140.987 581.697 140.502C581.314 140.101 580.819 139.9 580.213 139.9C579.513 139.9 578.967 140.166 578.575 140.698C578.201 141.183 578.015 141.837 578.015 142.658ZM586.678 146.298H585.334V139.018H586.44L586.594 139.942C587.135 139.186 587.872 138.808 588.806 138.808C589.664 138.808 590.322 139.074 590.78 139.606C591.181 140.082 591.382 140.731 591.382 141.552V146.298H590.038V141.566C590.038 140.493 589.52 139.956 588.484 139.956C587.942 139.956 587.499 140.143 587.154 140.516C586.836 140.852 586.678 141.281 586.678 141.804V146.298ZM603.424 140.586V141.762H598.972V145.094H603.83V146.298H597.544V136.218H603.83V137.422H598.972V140.586H603.424ZM606.661 141.048H605.233C605.308 140.32 605.653 139.755 606.269 139.354C606.82 138.99 607.515 138.808 608.355 138.808C609.354 138.808 610.119 139.069 610.651 139.592C611.099 140.04 611.323 140.619 611.323 141.328V146.298H610.217L610.049 145.304C609.48 146.107 608.668 146.508 607.613 146.508C606.783 146.508 606.134 146.284 605.667 145.836C605.285 145.463 605.093 144.991 605.093 144.422C605.093 143.703 605.341 143.148 605.835 142.756C606.274 142.411 606.946 142.159 607.851 142L609.979 141.636V141.272C609.979 140.796 609.816 140.437 609.489 140.194C609.2 139.979 608.803 139.872 608.299 139.872C607.31 139.872 606.764 140.264 606.661 141.048ZM607.935 145.374C608.505 145.374 608.999 145.187 609.419 144.814C609.793 144.469 609.979 144.072 609.979 143.624V142.686L608.173 143.008C607.511 143.12 607.058 143.293 606.815 143.526C606.619 143.713 606.521 143.965 606.521 144.282C606.521 144.637 606.643 144.907 606.885 145.094C607.128 145.281 607.478 145.374 607.935 145.374ZM614.554 146.298H613.21V139.018H614.316L614.498 140.096C614.909 139.237 615.525 138.808 616.346 138.808C616.617 138.808 616.883 138.841 617.144 138.906V140.25C616.827 140.166 616.542 140.124 616.29 140.124C615.749 140.124 615.324 140.343 615.016 140.782C614.708 141.221 614.554 141.841 614.554 142.644V146.298ZM621.449 145.22V146.368C621.103 146.461 620.772 146.508 620.455 146.508C619.783 146.508 619.279 146.298 618.943 145.878C618.653 145.533 618.509 145.071 618.509 144.492V140.166H617.431V139.018H618.509L618.593 137.268H619.853V139.018H621.421V140.166H619.853V144.52C619.853 145.061 620.109 145.332 620.623 145.332C620.865 145.332 621.141 145.295 621.449 145.22ZM624.056 146.298H622.712V136.218H624.056V139.844C624.588 139.153 625.298 138.808 626.184 138.808C627.043 138.808 627.701 139.074 628.158 139.606C628.56 140.082 628.76 140.731 628.76 141.552V146.298H627.416V141.566C627.416 140.493 626.898 139.956 625.862 139.956C625.312 139.956 624.864 140.147 624.518 140.53C624.21 140.875 624.056 141.319 624.056 141.86V146.298ZM632.588 146.298H630.964V144.674H632.588V146.298ZM646.372 136.218V137.492H642.984V146.298H641.556V137.492H638.21V136.218H646.372ZM648.83 146.298H647.486V136.218H648.83V139.844C649.362 139.153 650.071 138.808 650.958 138.808C651.817 138.808 652.475 139.074 652.932 139.606C653.333 140.082 653.534 140.731 653.534 141.552V146.298H652.19V141.566C652.19 140.493 651.672 139.956 650.636 139.956C650.085 139.956 649.637 140.147 649.292 140.53C648.984 140.875 648.83 141.319 648.83 141.86V146.298ZM660.385 144.198H661.841C661.636 144.935 661.23 145.514 660.623 145.934C660.054 146.317 659.373 146.508 658.579 146.508C657.431 146.508 656.535 146.144 655.891 145.416C655.303 144.735 655.009 143.815 655.009 142.658C655.009 141.342 655.383 140.343 656.129 139.662C656.745 139.093 657.539 138.808 658.509 138.808C659.648 138.808 660.507 139.177 661.085 139.914C661.645 140.623 661.925 141.636 661.925 142.952H656.381C656.437 143.811 656.699 144.45 657.165 144.87C657.548 145.206 658.033 145.374 658.621 145.374C659.079 145.374 659.475 145.248 659.811 144.996C660.091 144.781 660.283 144.515 660.385 144.198ZM658.537 139.886C657.94 139.886 657.459 140.073 657.095 140.446C656.75 140.791 656.531 141.272 656.437 141.888H660.553C660.507 141.188 660.273 140.665 659.853 140.32C659.517 140.031 659.079 139.886 658.537 139.886ZM676.54 139.018H677.884L675.756 146.298H674.202L672.438 140.544L670.702 146.298H669.092L666.964 139.018H668.364L669.932 144.87L671.668 139.018H673.278L674.986 144.842L676.54 139.018ZM683.86 144.198H685.316C685.11 144.935 684.704 145.514 684.098 145.934C683.528 146.317 682.847 146.508 682.054 146.508C680.906 146.508 680.01 146.144 679.366 145.416C678.778 144.735 678.484 143.815 678.484 142.658C678.484 141.342 678.857 140.343 679.604 139.662C680.22 139.093 681.013 138.808 681.984 138.808C683.122 138.808 683.981 139.177 684.56 139.914C685.12 140.623 685.4 141.636 685.4 142.952H679.856C679.912 143.811 680.173 144.45 680.64 144.87C681.022 145.206 681.508 145.374 682.096 145.374C682.553 145.374 682.95 145.248 683.286 144.996C683.566 144.781 683.757 144.515 683.86 144.198ZM682.012 139.886C681.414 139.886 680.934 140.073 680.57 140.446C680.224 140.791 680.005 141.272 679.912 141.888H684.028C683.981 141.188 683.748 140.665 683.328 140.32C682.992 140.031 682.553 139.886 682.012 139.886ZM688.355 136.218V146.298H687.011V136.218H688.355ZM695.066 143.96H696.536C696.424 144.744 696.055 145.374 695.43 145.85C694.861 146.289 694.165 146.508 693.344 146.508C692.271 146.508 691.417 146.139 690.782 145.402C690.194 144.721 689.9 143.825 689.9 142.714C689.9 141.426 690.255 140.427 690.964 139.718C691.571 139.111 692.359 138.808 693.33 138.808C694.226 138.808 694.963 139.046 695.542 139.522C696.055 139.942 696.368 140.493 696.48 141.174H694.996C694.903 140.782 694.711 140.479 694.422 140.264C694.142 140.049 693.787 139.942 693.358 139.942C692.695 139.942 692.187 140.203 691.832 140.726C691.496 141.211 691.328 141.888 691.328 142.756C691.328 143.661 691.552 144.347 692 144.814C692.355 145.187 692.812 145.374 693.372 145.374C693.857 145.374 694.254 145.234 694.562 144.954C694.833 144.711 695.001 144.38 695.066 143.96ZM697.652 142.658C697.652 141.323 698.048 140.315 698.842 139.634C699.476 139.083 700.279 138.808 701.25 138.808C702.379 138.808 703.266 139.167 703.91 139.886C704.526 140.558 704.834 141.482 704.834 142.658C704.834 143.974 704.446 144.977 703.672 145.668C703.037 146.228 702.225 146.508 701.236 146.508C700.106 146.508 699.215 146.135 698.562 145.388C697.955 144.707 697.652 143.797 697.652 142.658ZM699.052 142.658C699.052 143.591 699.29 144.305 699.766 144.8C700.158 145.211 700.657 145.416 701.264 145.416C701.973 145.416 702.519 145.15 702.902 144.618C703.256 144.133 703.434 143.479 703.434 142.658C703.434 141.706 703.2 140.987 702.734 140.502C702.351 140.101 701.856 139.9 701.25 139.9C700.55 139.9 700.004 140.166 699.612 140.698C699.238 141.183 699.052 141.837 699.052 142.658ZM707.715 146.298H706.371V139.018H707.477L707.617 139.872C708.111 139.163 708.825 138.808 709.759 138.808C710.776 138.808 711.49 139.191 711.901 139.956C712.386 139.191 713.175 138.808 714.267 138.808C715.079 138.808 715.704 139.055 716.143 139.55C716.535 140.007 716.731 140.633 716.731 141.426V146.298H715.387V141.524C715.387 140.479 714.915 139.956 713.973 139.956C713.413 139.956 712.965 140.175 712.629 140.614C712.358 140.969 712.223 141.384 712.223 141.86V146.298H710.879V141.524C710.879 140.479 710.407 139.956 709.465 139.956C708.942 139.956 708.508 140.161 708.163 140.572C707.864 140.917 707.715 141.333 707.715 141.818V146.298ZM723.577 144.198H725.033C724.827 144.935 724.421 145.514 723.815 145.934C723.245 146.317 722.564 146.508 721.771 146.508C720.623 146.508 719.727 146.144 719.083 145.416C718.495 144.735 718.201 143.815 718.201 142.658C718.201 141.342 718.574 140.343 719.321 139.662C719.937 139.093 720.73 138.808 721.701 138.808C722.839 138.808 723.698 139.177 724.277 139.914C724.837 140.623 725.117 141.636 725.117 142.952H719.573C719.629 143.811 719.89 144.45 720.357 144.87C720.739 145.206 721.225 145.374 721.813 145.374C722.27 145.374 722.667 145.248 723.003 144.996C723.283 144.781 723.474 144.515 723.577 144.198ZM721.729 139.886C721.131 139.886 720.651 140.073 720.287 140.446C719.941 140.791 719.722 141.272 719.629 141.888H723.745C723.698 141.188 723.465 140.665 723.045 140.32C722.709 140.031 722.27 139.886 721.729 139.886ZM730.925 139.018H732.031L732.241 139.97C732.839 139.195 733.66 138.808 734.705 138.808C735.751 138.808 736.563 139.181 737.141 139.928C737.655 140.6 737.911 141.491 737.911 142.602C737.911 143.918 737.561 144.926 736.861 145.626C736.273 146.214 735.522 146.508 734.607 146.508C733.571 146.508 732.792 146.125 732.269 145.36V148.818H730.925V139.018ZM736.511 142.574C736.511 141.659 736.283 140.973 735.825 140.516C735.461 140.143 734.985 139.956 734.397 139.956C733.716 139.956 733.175 140.203 732.773 140.698C732.391 141.174 732.199 141.799 732.199 142.574C732.199 143.507 732.428 144.221 732.885 144.716C733.268 145.145 733.772 145.36 734.397 145.36C735.097 145.36 735.629 145.103 735.993 144.59C736.339 144.114 736.511 143.442 736.511 142.574ZM740.605 141.048H739.177C739.251 140.32 739.597 139.755 740.213 139.354C740.763 138.99 741.459 138.808 742.299 138.808C743.297 138.808 744.063 139.069 744.595 139.592C745.043 140.04 745.267 140.619 745.267 141.328V146.298H744.161L743.993 145.304C743.423 146.107 742.611 146.508 741.557 146.508C740.726 146.508 740.077 146.284 739.611 145.836C739.228 145.463 739.037 144.991 739.037 144.422C739.037 143.703 739.284 143.148 739.779 142.756C740.217 142.411 740.889 142.159 741.795 142L743.923 141.636V141.272C743.923 140.796 743.759 140.437 743.433 140.194C743.143 139.979 742.747 139.872 742.243 139.872C741.253 139.872 740.707 140.264 740.605 141.048ZM741.879 145.374C742.448 145.374 742.943 145.187 743.363 144.814C743.736 144.469 743.923 144.072 743.923 143.624V142.686L742.117 143.008C741.454 143.12 741.001 143.293 740.759 143.526C740.563 143.713 740.465 143.965 740.465 144.282C740.465 144.637 740.586 144.907 740.829 145.094C741.071 145.281 741.421 145.374 741.879 145.374ZM748.498 146.298H747.154V139.018H748.26L748.442 140.096C748.852 139.237 749.468 138.808 750.29 138.808C750.56 138.808 750.826 138.841 751.088 138.906V140.25C750.77 140.166 750.486 140.124 750.234 140.124C749.692 140.124 749.268 140.343 748.96 140.782C748.652 141.221 748.498 141.841 748.498 142.644V146.298ZM753.292 141.048H751.864C751.939 140.32 752.284 139.755 752.9 139.354C753.451 138.99 754.146 138.808 754.986 138.808C755.985 138.808 756.75 139.069 757.282 139.592C757.73 140.04 757.954 140.619 757.954 141.328V146.298H756.848L756.68 145.304C756.111 146.107 755.299 146.508 754.244 146.508C753.413 146.508 752.765 146.284 752.298 145.836C751.915 145.463 751.724 144.991 751.724 144.422C751.724 143.703 751.971 143.148 752.466 142.756C752.905 142.411 753.577 142.159 754.482 142L756.61 141.636V141.272C756.61 140.796 756.447 140.437 756.12 140.194C755.831 139.979 755.434 139.872 754.93 139.872C753.941 139.872 753.395 140.264 753.292 141.048ZM754.566 145.374C755.135 145.374 755.63 145.187 756.05 144.814C756.423 144.469 756.61 144.072 756.61 143.624V142.686L754.804 143.008C754.141 143.12 753.689 143.293 753.446 143.526C753.25 143.713 753.152 143.965 753.152 144.282C753.152 144.637 753.273 144.907 753.516 145.094C753.759 145.281 754.109 145.374 754.566 145.374ZM766.407 146.298H765.301L765.063 145.276C764.503 146.097 763.696 146.508 762.641 146.508C761.624 146.508 760.821 146.139 760.233 145.402C759.692 144.721 759.421 143.82 759.421 142.7C759.421 141.347 759.767 140.329 760.457 139.648C761.036 139.088 761.792 138.808 762.725 138.808C763.733 138.808 764.513 139.186 765.063 139.942V136.218H766.407V146.298ZM760.821 142.728C760.821 143.633 761.045 144.319 761.493 144.786C761.867 145.169 762.347 145.36 762.935 145.36C763.663 145.36 764.228 145.085 764.629 144.534C764.965 144.058 765.133 143.461 765.133 142.742C765.133 141.799 764.909 141.081 764.461 140.586C764.079 140.166 763.57 139.956 762.935 139.956C762.226 139.956 761.689 140.213 761.325 140.726C760.989 141.193 760.821 141.86 760.821 142.728ZM773.329 144.198H774.785C774.579 144.935 774.173 145.514 773.567 145.934C772.997 146.317 772.316 146.508 771.523 146.508C770.375 146.508 769.479 146.144 768.835 145.416C768.247 144.735 767.953 143.815 767.953 142.658C767.953 141.342 768.326 140.343 769.073 139.662C769.689 139.093 770.482 138.808 771.453 138.808C772.591 138.808 773.45 139.177 774.029 139.914C774.589 140.623 774.869 141.636 774.869 142.952H769.325C769.381 143.811 769.642 144.45 770.109 144.87C770.491 145.206 770.977 145.374 771.565 145.374C772.022 145.374 772.419 145.248 772.755 144.996C773.035 144.781 773.226 144.515 773.329 144.198ZM771.481 139.886C770.883 139.886 770.403 140.073 770.039 140.446C769.693 140.791 769.474 141.272 769.381 141.888H773.497C773.45 141.188 773.217 140.665 772.797 140.32C772.461 140.031 772.022 139.886 771.481 139.886ZM789.483 139.018H790.827L788.699 146.298H787.145L785.381 140.544L783.645 146.298H782.035L779.907 139.018H781.307L782.875 144.87L784.611 139.018H786.221L787.929 144.842L789.483 139.018ZM793.439 137.8H791.927V136.218H793.439V137.8ZM793.355 146.298H792.011V139.018H793.355V146.298ZM796.664 136.218V146.298H795.32V136.218H796.664ZM799.972 136.218V146.298H798.628V136.218H799.972ZM809.382 145.22V146.368C809.037 146.461 808.706 146.508 808.388 146.508C807.716 146.508 807.212 146.298 806.876 145.878C806.587 145.533 806.442 145.071 806.442 144.492V140.166H805.364V139.018H806.442L806.526 137.268H807.786V139.018H809.354V140.166H807.786V144.52C807.786 145.061 808.043 145.332 808.556 145.332C808.799 145.332 809.074 145.295 809.382 145.22ZM811.794 141.048H810.366C810.441 140.32 810.786 139.755 811.402 139.354C811.953 138.99 812.648 138.808 813.488 138.808C814.487 138.808 815.252 139.069 815.784 139.592C816.232 140.04 816.456 140.619 816.456 141.328V146.298H815.35L815.182 145.304C814.613 146.107 813.801 146.508 812.746 146.508C811.915 146.508 811.267 146.284 810.8 145.836C810.417 145.463 810.226 144.991 810.226 144.422C810.226 143.703 810.473 143.148 810.968 142.756C811.407 142.411 812.079 142.159 812.984 142L815.112 141.636V141.272C815.112 140.796 814.949 140.437 814.622 140.194C814.333 139.979 813.936 139.872 813.432 139.872C812.443 139.872 811.897 140.264 811.794 141.048ZM813.068 145.374C813.637 145.374 814.132 145.187 814.552 144.814C814.925 144.469 815.112 144.072 815.112 143.624V142.686L813.306 143.008C812.643 143.12 812.191 143.293 811.948 143.526C811.752 143.713 811.654 143.965 811.654 144.282C811.654 144.637 811.775 144.907 812.018 145.094C812.261 145.281 812.611 145.374 813.068 145.374ZM819.687 146.298H818.343V136.218H819.687V141.846L822.543 139.018H824.307L821.031 142.182L824.713 146.298H822.921L819.687 142.63V146.298ZM830.149 144.198H831.605C831.4 144.935 830.994 145.514 830.387 145.934C829.818 146.317 829.136 146.508 828.343 146.508C827.195 146.508 826.299 146.144 825.655 145.416C825.067 144.735 824.773 143.815 824.773 142.658C824.773 141.342 825.146 140.343 825.893 139.662C826.509 139.093 827.302 138.808 828.273 138.808C829.412 138.808 830.27 139.177 830.849 139.914C831.409 140.623 831.689 141.636 831.689 142.952H826.145C826.201 143.811 826.462 144.45 826.929 144.87C827.312 145.206 827.797 145.374 828.385 145.374C828.842 145.374 829.239 145.248 829.575 144.996C829.855 144.781 830.046 144.515 830.149 144.198ZM828.301 139.886C827.704 139.886 827.223 140.073 826.859 140.446C826.514 140.791 826.294 141.272 826.201 141.888H830.317C830.27 141.188 830.037 140.665 829.617 140.32C829.281 140.031 828.842 139.886 828.301 139.886ZM289.98 159.018H291.086L291.296 159.97C291.893 159.195 292.715 158.808 293.76 158.808C294.805 158.808 295.617 159.181 296.196 159.928C296.709 160.6 296.966 161.491 296.966 162.602C296.966 163.918 296.616 164.926 295.916 165.626C295.328 166.214 294.577 166.508 293.662 166.508C292.626 166.508 291.847 166.125 291.324 165.36V168.818H289.98V159.018ZM295.566 162.574C295.566 161.659 295.337 160.973 294.88 160.516C294.516 160.143 294.04 159.956 293.452 159.956C292.771 159.956 292.229 160.203 291.828 160.698C291.445 161.174 291.254 161.799 291.254 162.574C291.254 163.507 291.483 164.221 291.94 164.716C292.323 165.145 292.827 165.36 293.452 165.36C294.152 165.36 294.684 165.103 295.048 164.59C295.393 164.114 295.566 163.442 295.566 162.574ZM299.855 156.218V166.298H298.511V156.218H299.855ZM302.968 161.048H301.54C301.615 160.32 301.96 159.755 302.576 159.354C303.127 158.99 303.822 158.808 304.662 158.808C305.661 158.808 306.426 159.069 306.958 159.592C307.406 160.04 307.63 160.619 307.63 161.328V166.298H306.524L306.356 165.304C305.787 166.107 304.975 166.508 303.92 166.508C303.089 166.508 302.441 166.284 301.974 165.836C301.591 165.463 301.4 164.991 301.4 164.422C301.4 163.703 301.647 163.148 302.142 162.756C302.581 162.411 303.253 162.159 304.158 162L306.286 161.636V161.272C306.286 160.796 306.123 160.437 305.796 160.194C305.507 159.979 305.11 159.872 304.606 159.872C303.617 159.872 303.071 160.264 302.968 161.048ZM304.242 165.374C304.811 165.374 305.306 165.187 305.726 164.814C306.099 164.469 306.286 164.072 306.286 163.624V162.686L304.48 163.008C303.817 163.12 303.365 163.293 303.122 163.526C302.926 163.713 302.828 163.965 302.828 164.282C302.828 164.637 302.949 164.907 303.192 165.094C303.435 165.281 303.785 165.374 304.242 165.374ZM314.263 163.96H315.733C315.621 164.744 315.252 165.374 314.627 165.85C314.058 166.289 313.362 166.508 312.541 166.508C311.468 166.508 310.614 166.139 309.979 165.402C309.391 164.721 309.097 163.825 309.097 162.714C309.097 161.426 309.452 160.427 310.161 159.718C310.768 159.111 311.556 158.808 312.527 158.808C313.423 158.808 314.16 159.046 314.739 159.522C315.252 159.942 315.565 160.493 315.677 161.174H314.193C314.1 160.782 313.908 160.479 313.619 160.264C313.339 160.049 312.984 159.942 312.555 159.942C311.892 159.942 311.384 160.203 311.029 160.726C310.693 161.211 310.525 161.888 310.525 162.756C310.525 163.661 310.749 164.347 311.197 164.814C311.552 165.187 312.009 165.374 312.569 165.374C313.054 165.374 313.451 165.234 313.759 164.954C314.03 164.711 314.198 164.38 314.263 163.96ZM322.225 164.198H323.681C323.476 164.935 323.07 165.514 322.463 165.934C321.894 166.317 321.212 166.508 320.419 166.508C319.271 166.508 318.375 166.144 317.731 165.416C317.143 164.735 316.849 163.815 316.849 162.658C316.849 161.342 317.222 160.343 317.969 159.662C318.585 159.093 319.378 158.808 320.349 158.808C321.488 158.808 322.346 159.177 322.925 159.914C323.485 160.623 323.765 161.636 323.765 162.952H318.221C318.277 163.811 318.538 164.45 319.005 164.87C319.388 165.206 319.873 165.374 320.461 165.374C320.918 165.374 321.315 165.248 321.651 164.996C321.931 164.781 322.122 164.515 322.225 164.198ZM320.377 159.886C319.78 159.886 319.299 160.073 318.935 160.446C318.59 160.791 318.37 161.272 318.277 161.888H322.393C322.346 161.188 322.113 160.665 321.693 160.32C321.357 160.031 320.918 159.886 320.377 159.886ZM335.328 160.852V162.042H331.072V166.298H329.644V156.218H335.818V157.422H331.072V160.852H335.328ZM338.629 166.298H337.285V159.018H338.391L338.573 160.096C338.983 159.237 339.599 158.808 340.421 158.808C340.691 158.808 340.957 158.841 341.219 158.906V160.25C340.901 160.166 340.617 160.124 340.365 160.124C339.823 160.124 339.399 160.343 339.091 160.782C338.783 161.221 338.629 161.841 338.629 162.644V166.298ZM343.703 157.8H342.191V156.218H343.703V157.8ZM343.619 166.298H342.275V159.018H343.619V166.298ZM352.15 166.298H351.044L350.806 165.276C350.246 166.097 349.438 166.508 348.384 166.508C347.366 166.508 346.564 166.139 345.976 165.402C345.434 164.721 345.164 163.82 345.164 162.7C345.164 161.347 345.509 160.329 346.2 159.648C346.778 159.088 347.534 158.808 348.468 158.808C349.476 158.808 350.255 159.186 350.806 159.942V156.218H352.15V166.298ZM346.564 162.728C346.564 163.633 346.788 164.319 347.236 164.786C347.609 165.169 348.09 165.36 348.678 165.36C349.406 165.36 349.97 165.085 350.372 164.534C350.708 164.058 350.876 163.461 350.876 162.742C350.876 161.799 350.652 161.081 350.204 160.586C349.821 160.166 349.312 159.956 348.678 159.956C347.968 159.956 347.432 160.213 347.068 160.726C346.732 161.193 346.564 161.86 346.564 162.728ZM355.263 161.048H353.835C353.909 160.32 354.255 159.755 354.871 159.354C355.421 158.99 356.117 158.808 356.957 158.808C357.955 158.808 358.721 159.069 359.253 159.592C359.701 160.04 359.925 160.619 359.925 161.328V166.298H358.819L358.651 165.304C358.081 166.107 357.269 166.508 356.215 166.508C355.384 166.508 354.735 166.284 354.269 165.836C353.886 165.463 353.695 164.991 353.695 164.422C353.695 163.703 353.942 163.148 354.437 162.756C354.875 162.411 355.547 162.159 356.453 162L358.581 161.636V161.272C358.581 160.796 358.417 160.437 358.091 160.194C357.801 159.979 357.405 159.872 356.901 159.872C355.911 159.872 355.365 160.264 355.263 161.048ZM356.537 165.374C357.106 165.374 357.601 165.187 358.021 164.814C358.394 164.469 358.581 164.072 358.581 163.624V162.686L356.775 163.008C356.112 163.12 355.659 163.293 355.417 163.526C355.221 163.713 355.123 163.965 355.123 164.282C355.123 164.637 355.244 164.907 355.487 165.094C355.729 165.281 356.079 165.374 356.537 165.374ZM367.615 159.018L365.081 166.396C364.745 167.376 364.423 168.043 364.115 168.398C363.751 168.818 363.279 169.028 362.701 169.028C362.458 169.028 362.169 168.986 361.833 168.902V167.81C362.094 167.875 362.327 167.908 362.533 167.908C362.822 167.908 363.046 167.805 363.205 167.6C363.363 167.404 363.564 166.97 363.807 166.298H363.373L360.699 159.018H362.155L364.213 165.206L366.271 159.018H367.615ZM377.337 166.298H376.007V157.898L373.809 159.032V157.646L376.021 156.498H377.337V166.298ZM382.596 159.06H381.182C381.294 158.192 381.695 157.501 382.386 156.988C383.002 156.521 383.748 156.288 384.626 156.288C385.624 156.288 386.422 156.568 387.02 157.128C387.552 157.641 387.818 158.29 387.818 159.074C387.818 159.765 387.622 160.404 387.23 160.992C386.912 161.487 386.329 162.135 385.48 162.938L383.24 165.066H387.776V166.298H381.42V165.066L384.612 162C385.321 161.319 385.802 160.777 386.054 160.376C386.315 159.965 386.446 159.536 386.446 159.088C386.446 158.547 386.259 158.127 385.886 157.828C385.559 157.557 385.13 157.422 384.598 157.422C384 157.422 383.52 157.585 383.156 157.912C382.838 158.201 382.652 158.584 382.596 159.06ZM389.786 156.218H393.062C394.416 156.218 395.433 156.535 396.114 157.17C396.712 157.73 397.01 158.505 397.01 159.494C397.01 160.595 396.628 161.421 395.862 161.972C395.181 162.457 394.229 162.7 393.006 162.7H391.214V166.298H389.786V156.218ZM393.09 157.38H391.214V161.538H393.034C393.958 161.538 394.621 161.337 395.022 160.936C395.358 160.609 395.526 160.129 395.526 159.494C395.526 158.775 395.288 158.234 394.812 157.87C394.392 157.543 393.818 157.38 393.09 157.38ZM404.456 166.298H403.112L400.004 158.402V166.298H398.618V156.218H400.606L403.812 164.618L406.836 156.218H408.712V166.298H407.368V158.472L404.456 166.298ZM416.089 161.048H414.661C414.736 160.32 415.081 159.755 415.697 159.354C416.248 158.99 416.943 158.808 417.783 158.808C418.782 158.808 419.547 159.069 420.079 159.592C420.527 160.04 420.751 160.619 420.751 161.328V166.298H419.645L419.477 165.304C418.908 166.107 418.096 166.508 417.041 166.508C416.21 166.508 415.562 166.284 415.095 165.836C414.712 165.463 414.521 164.991 414.521 164.422C414.521 163.703 414.768 163.148 415.263 162.756C415.702 162.411 416.374 162.159 417.279 162L419.407 161.636V161.272C419.407 160.796 419.244 160.437 418.917 160.194C418.628 159.979 418.231 159.872 417.727 159.872C416.738 159.872 416.192 160.264 416.089 161.048ZM417.363 165.374C417.932 165.374 418.427 165.187 418.847 164.814C419.22 164.469 419.407 164.072 419.407 163.624V162.686L417.601 163.008C416.938 163.12 416.486 163.293 416.243 163.526C416.047 163.713 415.949 163.965 415.949 164.282C415.949 164.637 416.07 164.907 416.313 165.094C416.556 165.281 416.906 165.374 417.363 165.374ZM423.982 156.218V166.298H422.638V156.218H423.982ZM425.527 162.658C425.527 161.323 425.923 160.315 426.717 159.634C427.351 159.083 428.154 158.808 429.125 158.808C430.254 158.808 431.141 159.167 431.785 159.886C432.401 160.558 432.709 161.482 432.709 162.658C432.709 163.974 432.321 164.977 431.547 165.668C430.912 166.228 430.1 166.508 429.111 166.508C427.981 166.508 427.09 166.135 426.437 165.388C425.83 164.707 425.527 163.797 425.527 162.658ZM426.927 162.658C426.927 163.591 427.165 164.305 427.641 164.8C428.033 165.211 428.532 165.416 429.139 165.416C429.848 165.416 430.394 165.15 430.777 164.618C431.131 164.133 431.309 163.479 431.309 162.658C431.309 161.706 431.075 160.987 430.609 160.502C430.226 160.101 429.731 159.9 429.125 159.9C428.425 159.9 427.879 160.166 427.487 160.698C427.113 161.183 426.927 161.837 426.927 162.658ZM435.59 166.298H434.246V159.018H435.352L435.506 159.942C436.047 159.186 436.784 158.808 437.718 158.808C438.576 158.808 439.234 159.074 439.692 159.606C440.093 160.082 440.294 160.731 440.294 161.552V166.298H438.95V161.566C438.95 160.493 438.432 159.956 437.396 159.956C436.854 159.956 436.411 160.143 436.066 160.516C435.748 160.852 435.59 161.281 435.59 161.804V166.298ZM442.105 166.788H443.547C443.612 167.161 443.799 167.451 444.107 167.656C444.424 167.861 444.84 167.964 445.353 167.964C446.072 167.964 446.608 167.777 446.963 167.404C447.262 167.087 447.411 166.643 447.411 166.074V165.136C446.87 165.771 446.062 166.088 444.989 166.088C444.018 166.088 443.23 165.738 442.623 165.038C442.054 164.385 441.769 163.535 441.769 162.49C441.769 161.277 442.114 160.339 442.805 159.676C443.393 159.097 444.149 158.808 445.073 158.808C446.118 158.808 446.907 159.2 447.439 159.984L447.649 159.018H448.755V166.144C448.755 167.059 448.424 167.777 447.761 168.3C447.164 168.785 446.375 169.028 445.395 169.028C444.378 169.028 443.58 168.799 443.001 168.342C442.516 167.959 442.217 167.441 442.105 166.788ZM443.169 162.518C443.169 163.311 443.402 163.932 443.869 164.38C444.252 164.753 444.723 164.94 445.283 164.94C446.02 164.94 446.585 164.697 446.977 164.212C447.313 163.801 447.481 163.251 447.481 162.56C447.481 161.673 447.252 160.997 446.795 160.53C446.412 160.147 445.908 159.956 445.283 159.956C444.592 159.956 444.06 160.194 443.687 160.67C443.342 161.118 443.169 161.734 443.169 162.518ZM458.166 165.22V166.368C457.82 166.461 457.489 166.508 457.172 166.508C456.5 166.508 455.996 166.298 455.66 165.878C455.37 165.533 455.226 165.071 455.226 164.492V160.166H454.148V159.018H455.226L455.31 157.268H456.57V159.018H458.138V160.166H456.57V164.52C456.57 165.061 456.826 165.332 457.34 165.332C457.582 165.332 457.858 165.295 458.166 165.22ZM460.773 166.298H459.429V156.218H460.773V159.844C461.305 159.153 462.015 158.808 462.901 158.808C463.76 158.808 464.418 159.074 464.875 159.606C465.277 160.082 465.477 160.731 465.477 161.552V166.298H464.133V161.566C464.133 160.493 463.615 159.956 462.579 159.956C462.029 159.956 461.581 160.147 461.235 160.53C460.927 160.875 460.773 161.319 460.773 161.86V166.298ZM472.329 164.198H473.785C473.579 164.935 473.173 165.514 472.567 165.934C471.997 166.317 471.316 166.508 470.523 166.508C469.375 166.508 468.479 166.144 467.835 165.416C467.247 164.735 466.953 163.815 466.953 162.658C466.953 161.342 467.326 160.343 468.073 159.662C468.689 159.093 469.482 158.808 470.453 158.808C471.591 158.808 472.45 159.177 473.029 159.914C473.589 160.623 473.869 161.636 473.869 162.952H468.325C468.381 163.811 468.642 164.45 469.109 164.87C469.491 165.206 469.977 165.374 470.565 165.374C471.022 165.374 471.419 165.248 471.755 164.996C472.035 164.781 472.226 164.515 472.329 164.198ZM470.481 159.886C469.883 159.886 469.403 160.073 469.039 160.446C468.693 160.791 468.474 161.272 468.381 161.888H472.497C472.45 161.188 472.217 160.665 471.797 160.32C471.461 160.031 471.022 159.886 470.481 159.886ZM479.747 156.218H483.373C484.596 156.218 485.511 156.489 486.117 157.03C486.631 157.487 486.887 158.108 486.887 158.892C486.887 159.396 486.71 159.853 486.355 160.264C486.057 160.619 485.693 160.852 485.263 160.964C485.842 161.067 486.318 161.37 486.691 161.874C487.027 162.331 487.195 162.859 487.195 163.456C487.195 164.417 486.827 165.145 486.089 165.64C485.427 166.079 484.512 166.298 483.345 166.298H479.747V156.218ZM483.611 161.566H481.175V165.136H483.555C484.993 165.136 485.711 164.576 485.711 163.456C485.711 162.196 485.011 161.566 483.611 161.566ZM483.485 157.296H481.175V160.474H483.569C484.213 160.474 484.699 160.311 485.025 159.984C485.305 159.704 485.445 159.34 485.445 158.892C485.445 158.36 485.249 157.954 484.857 157.674C484.521 157.422 484.064 157.296 483.485 157.296ZM490.154 166.298H488.81V159.018H489.916L490.098 160.096C490.509 159.237 491.125 158.808 491.946 158.808C492.217 158.808 492.483 158.841 492.744 158.906V160.25C492.427 160.166 492.142 160.124 491.89 160.124C491.349 160.124 490.924 160.343 490.616 160.782C490.308 161.221 490.154 161.841 490.154 162.644V166.298ZM493.244 162.658C493.244 161.323 493.64 160.315 494.434 159.634C495.068 159.083 495.871 158.808 496.842 158.808C497.971 158.808 498.858 159.167 499.502 159.886C500.118 160.558 500.426 161.482 500.426 162.658C500.426 163.974 500.038 164.977 499.264 165.668C498.629 166.228 497.817 166.508 496.828 166.508C495.698 166.508 494.807 166.135 494.154 165.388C493.547 164.707 493.244 163.797 493.244 162.658ZM494.644 162.658C494.644 163.591 494.882 164.305 495.358 164.8C495.75 165.211 496.249 165.416 496.856 165.416C497.565 165.416 498.111 165.15 498.494 164.618C498.848 164.133 499.026 163.479 499.026 162.658C499.026 161.706 498.792 160.987 498.326 160.502C497.943 160.101 497.448 159.9 496.842 159.9C496.142 159.9 495.596 160.166 495.204 160.698C494.83 161.183 494.644 161.837 494.644 162.658ZM503.11 161.048H501.682C501.757 160.32 502.102 159.755 502.718 159.354C503.269 158.99 503.964 158.808 504.804 158.808C505.803 158.808 506.568 159.069 507.1 159.592C507.548 160.04 507.772 160.619 507.772 161.328V166.298H506.666L506.498 165.304C505.929 166.107 505.117 166.508 504.062 166.508C503.232 166.508 502.583 166.284 502.116 165.836C501.734 165.463 501.542 164.991 501.542 164.422C501.542 163.703 501.79 163.148 502.284 162.756C502.723 162.411 503.395 162.159 504.3 162L506.428 161.636V161.272C506.428 160.796 506.265 160.437 505.938 160.194C505.649 159.979 505.252 159.872 504.748 159.872C503.759 159.872 503.213 160.264 503.11 161.048ZM504.384 165.374C504.954 165.374 505.448 165.187 505.868 164.814C506.242 164.469 506.428 164.072 506.428 163.624V162.686L504.622 163.008C503.96 163.12 503.507 163.293 503.264 163.526C503.068 163.713 502.97 163.965 502.97 164.282C502.97 164.637 503.092 164.907 503.334 165.094C503.577 165.281 503.927 165.374 504.384 165.374ZM516.226 166.298H515.12L514.882 165.276C514.322 166.097 513.514 166.508 512.46 166.508C511.442 166.508 510.64 166.139 510.052 165.402C509.51 164.721 509.24 163.82 509.24 162.7C509.24 161.347 509.585 160.329 510.276 159.648C510.854 159.088 511.61 158.808 512.544 158.808C513.552 158.808 514.331 159.186 514.882 159.942V156.218H516.226V166.298ZM510.64 162.728C510.64 163.633 510.864 164.319 511.312 164.786C511.685 165.169 512.166 165.36 512.754 165.36C513.482 165.36 514.046 165.085 514.448 164.534C514.784 164.058 514.952 163.461 514.952 162.742C514.952 161.799 514.728 161.081 514.28 160.586C513.897 160.166 513.388 159.956 512.754 159.956C512.044 159.956 511.508 160.213 511.144 160.726C510.808 161.193 510.64 161.86 510.64 162.728ZM526.997 159.018H528.341L526.213 166.298H524.659L522.895 160.544L521.159 166.298H519.549L517.421 159.018H518.821L520.389 164.87L522.125 159.018H523.735L525.443 164.842L526.997 159.018ZM530.536 161.048H529.108C529.183 160.32 529.528 159.755 530.144 159.354C530.695 158.99 531.39 158.808 532.23 158.808C533.229 158.808 533.994 159.069 534.526 159.592C534.974 160.04 535.198 160.619 535.198 161.328V166.298H534.092L533.924 165.304C533.355 166.107 532.543 166.508 531.488 166.508C530.658 166.508 530.009 166.284 529.542 165.836C529.16 165.463 528.968 164.991 528.968 164.422C528.968 163.703 529.216 163.148 529.71 162.756C530.149 162.411 530.821 162.159 531.726 162L533.854 161.636V161.272C533.854 160.796 533.691 160.437 533.364 160.194C533.075 159.979 532.678 159.872 532.174 159.872C531.185 159.872 530.639 160.264 530.536 161.048ZM531.81 165.374C532.38 165.374 532.874 165.187 533.294 164.814C533.668 164.469 533.854 164.072 533.854 163.624V162.686L532.048 163.008C531.386 163.12 530.933 163.293 530.69 163.526C530.494 163.713 530.396 163.965 530.396 164.282C530.396 164.637 530.518 164.907 530.76 165.094C531.003 165.281 531.353 165.374 531.81 165.374ZM542.888 159.018L540.354 166.396C540.018 167.376 539.696 168.043 539.388 168.398C539.024 168.818 538.553 169.028 537.974 169.028C537.731 169.028 537.442 168.986 537.106 168.902V167.81C537.367 167.875 537.601 167.908 537.806 167.908C538.095 167.908 538.319 167.805 538.478 167.6C538.637 167.404 538.837 166.97 539.08 166.298H538.646L535.972 159.018H537.428L539.486 165.206L541.544 159.018H542.888ZM557.007 159.018H558.351L556.223 166.298H554.669L552.905 160.544L551.169 166.298H549.559L547.431 159.018H548.831L550.399 164.87L552.135 159.018H553.745L555.453 164.842L557.007 159.018ZM560.963 157.8H559.451V156.218H560.963V157.8ZM560.879 166.298H559.535V159.018H560.879V166.298ZM566.091 165.22V166.368C565.746 166.461 565.415 166.508 565.097 166.508C564.425 166.508 563.921 166.298 563.585 165.878C563.296 165.533 563.151 165.071 563.151 164.492V160.166H562.073V159.018H563.151L563.235 157.268H564.495V159.018H566.063V160.166H564.495V164.52C564.495 165.061 564.752 165.332 565.265 165.332C565.508 165.332 565.783 165.295 566.091 165.22ZM568.699 166.298H567.355V156.218H568.699V159.844C569.231 159.153 569.94 158.808 570.827 158.808C571.686 158.808 572.344 159.074 572.801 159.606C573.202 160.082 573.403 160.731 573.403 161.552V166.298H572.059V161.566C572.059 160.493 571.541 159.956 570.505 159.956C569.954 159.956 569.506 160.147 569.161 160.53C568.853 160.875 568.699 161.319 568.699 161.86V166.298ZM582.744 165.22V166.368C582.398 166.461 582.067 166.508 581.75 166.508C581.078 166.508 580.574 166.298 580.238 165.878C579.948 165.533 579.804 165.071 579.804 164.492V160.166H578.726V159.018H579.804L579.888 157.268H581.148V159.018H582.716V160.166H581.148V164.52C581.148 165.061 581.404 165.332 581.918 165.332C582.16 165.332 582.436 165.295 582.744 165.22ZM585.351 166.298H584.007V156.218H585.351V159.844C585.883 159.153 586.593 158.808 587.479 158.808C588.338 158.808 588.996 159.074 589.453 159.606C589.855 160.082 590.055 160.731 590.055 161.552V166.298H588.711V161.566C588.711 160.493 588.193 159.956 587.157 159.956C586.607 159.956 586.159 160.147 585.813 160.53C585.505 160.875 585.351 161.319 585.351 161.86V166.298ZM596.907 164.198H598.363C598.157 164.935 597.751 165.514 597.145 165.934C596.575 166.317 595.894 166.508 595.101 166.508C593.953 166.508 593.057 166.144 592.413 165.416C591.825 164.735 591.531 163.815 591.531 162.658C591.531 161.342 591.904 160.343 592.651 159.662C593.267 159.093 594.06 158.808 595.031 158.808C596.169 158.808 597.028 159.177 597.607 159.914C598.167 160.623 598.447 161.636 598.447 162.952H592.903C592.959 163.811 593.22 164.45 593.687 164.87C594.069 165.206 594.555 165.374 595.143 165.374C595.6 165.374 595.997 165.248 596.333 164.996C596.613 164.781 596.804 164.515 596.907 164.198ZM595.059 159.886C594.461 159.886 593.981 160.073 593.617 160.446C593.271 160.791 593.052 161.272 592.959 161.888H597.075C597.028 161.188 596.795 160.665 596.375 160.32C596.039 160.031 595.6 159.886 595.059 159.886ZM603.835 162.658C603.835 161.323 604.232 160.315 605.025 159.634C605.66 159.083 606.463 158.808 607.433 158.808C608.563 158.808 609.449 159.167 610.093 159.886C610.709 160.558 611.017 161.482 611.017 162.658C611.017 163.974 610.63 164.977 609.855 165.668C609.221 166.228 608.409 166.508 607.419 166.508C606.29 166.508 605.399 166.135 604.745 165.388C604.139 164.707 603.835 163.797 603.835 162.658ZM605.235 162.658C605.235 163.591 605.473 164.305 605.949 164.8C606.341 165.211 606.841 165.416 607.447 165.416C608.157 165.416 608.703 165.15 609.085 164.618C609.44 164.133 609.617 163.479 609.617 162.658C609.617 161.706 609.384 160.987 608.917 160.502C608.535 160.101 608.04 159.9 607.433 159.9C606.733 159.9 606.187 160.166 605.795 160.698C605.422 161.183 605.235 161.837 605.235 162.658ZM615.802 165.22V166.368C615.457 166.461 615.126 166.508 614.808 166.508C614.136 166.508 613.632 166.298 613.296 165.878C613.007 165.533 612.862 165.071 612.862 164.492V160.166H611.784V159.018H612.862L612.946 157.268H614.206V159.018H615.774V160.166H614.206V164.52C614.206 165.061 614.463 165.332 614.976 165.332C615.219 165.332 615.494 165.295 615.802 165.22ZM618.41 166.298H617.066V156.218H618.41V159.844C618.942 159.153 619.651 158.808 620.538 158.808C621.397 158.808 622.055 159.074 622.512 159.606C622.913 160.082 623.114 160.731 623.114 161.552V166.298H621.77V161.566C621.77 160.493 621.252 159.956 620.216 159.956C619.665 159.956 619.217 160.147 618.872 160.53C618.564 160.875 618.41 161.319 618.41 161.86V166.298ZM629.965 164.198H631.421C631.216 164.935 630.81 165.514 630.203 165.934C629.634 166.317 628.953 166.508 628.159 166.508C627.011 166.508 626.115 166.144 625.471 165.416C624.883 164.735 624.589 163.815 624.589 162.658C624.589 161.342 624.963 160.343 625.709 159.662C626.325 159.093 627.119 158.808 628.089 158.808C629.228 158.808 630.087 159.177 630.665 159.914C631.225 160.623 631.505 161.636 631.505 162.952H625.961C626.017 163.811 626.279 164.45 626.745 164.87C627.128 165.206 627.613 165.374 628.201 165.374C628.659 165.374 629.055 165.248 629.391 164.996C629.671 164.781 629.863 164.515 629.965 164.198ZM628.117 159.886C627.52 159.886 627.039 160.073 626.675 160.446C626.33 160.791 626.111 161.272 626.017 161.888H630.133C630.087 161.188 629.853 160.665 629.433 160.32C629.097 160.031 628.659 159.886 628.117 159.886ZM634.461 166.298H633.117V159.018H634.223L634.405 160.096C634.815 159.237 635.431 158.808 636.253 158.808C636.523 158.808 636.789 158.841 637.051 158.906V160.25C636.733 160.166 636.449 160.124 636.197 160.124C635.655 160.124 635.231 160.343 634.923 160.782C634.615 161.221 634.461 161.841 634.461 162.644V166.298ZM645.902 156.176V157.338C645.454 157.226 645.086 157.17 644.796 157.17C644.554 157.17 644.362 157.235 644.222 157.366C644.092 157.497 644.026 157.679 644.026 157.912V159.018H645.594V160.166H644.026V166.298H642.682V160.166H641.604V159.018H642.682V157.996C642.682 157.352 642.892 156.848 643.312 156.484C643.686 156.167 644.152 156.008 644.712 156.008C645.076 156.008 645.473 156.064 645.902 156.176ZM648.16 166.298H646.816V159.018H647.922L648.104 160.096C648.515 159.237 649.131 158.808 649.952 158.808C650.223 158.808 650.489 158.841 650.75 158.906V160.25C650.433 160.166 650.148 160.124 649.896 160.124C649.355 160.124 648.93 160.343 648.622 160.782C648.314 161.221 648.16 161.841 648.16 162.644V166.298ZM653.234 157.8H651.722V156.218H653.234V157.8ZM653.15 166.298H651.806V159.018H653.15V166.298ZM660.071 164.198H661.527C661.321 164.935 660.915 165.514 660.309 165.934C659.739 166.317 659.058 166.508 658.265 166.508C657.117 166.508 656.221 166.144 655.577 165.416C654.989 164.735 654.695 163.815 654.695 162.658C654.695 161.342 655.068 160.343 655.815 159.662C656.431 159.093 657.224 158.808 658.195 158.808C659.333 158.808 660.192 159.177 660.771 159.914C661.331 160.623 661.611 161.636 661.611 162.952H656.067C656.123 163.811 656.384 164.45 656.851 164.87C657.233 165.206 657.719 165.374 658.307 165.374C658.764 165.374 659.161 165.248 659.497 164.996C659.777 164.781 659.968 164.515 660.071 164.198ZM658.223 159.886C657.625 159.886 657.145 160.073 656.781 160.446C656.435 160.791 656.216 161.272 656.123 161.888H660.239C660.192 161.188 659.959 160.665 659.539 160.32C659.203 160.031 658.764 159.886 658.223 159.886ZM664.566 166.298H663.222V159.018H664.328L664.482 159.942C665.024 159.186 665.761 158.808 666.694 158.808C667.553 158.808 668.211 159.074 668.668 159.606C669.07 160.082 669.27 160.731 669.27 161.552V166.298H667.926V161.566C667.926 160.493 667.408 159.956 666.372 159.956C665.831 159.956 665.388 160.143 665.042 160.516C664.725 160.852 664.566 161.281 664.566 161.804V166.298ZM677.732 166.298H676.626L676.388 165.276C675.828 166.097 675.02 166.508 673.966 166.508C672.948 166.508 672.146 166.139 671.558 165.402C671.016 164.721 670.746 163.82 670.746 162.7C670.746 161.347 671.091 160.329 671.782 159.648C672.36 159.088 673.116 158.808 674.05 158.808C675.058 158.808 675.837 159.186 676.388 159.942V156.218H677.732V166.298ZM672.146 162.728C672.146 163.633 672.37 164.319 672.818 164.786C673.191 165.169 673.672 165.36 674.26 165.36C674.988 165.36 675.552 165.085 675.954 164.534C676.29 164.058 676.458 163.461 676.458 162.742C676.458 161.799 676.234 161.081 675.786 160.586C675.403 160.166 674.894 159.956 674.26 159.956C673.55 159.956 673.014 160.213 672.65 160.726C672.314 161.193 672.146 161.86 672.146 162.728ZM683.953 164.324C683.953 163.913 683.738 163.605 683.309 163.4C683.057 163.288 682.567 163.148 681.839 162.98C680.943 162.784 680.303 162.499 679.921 162.126C679.603 161.809 679.445 161.393 679.445 160.88C679.445 160.199 679.72 159.676 680.271 159.312C680.765 158.976 681.433 158.808 682.273 158.808C683.141 158.808 683.845 159.023 684.387 159.452C684.853 159.825 685.143 160.32 685.255 160.936H683.883C683.724 160.227 683.183 159.872 682.259 159.872C681.745 159.872 681.363 159.965 681.111 160.152C680.905 160.311 680.803 160.511 680.803 160.754C680.803 161.053 680.915 161.277 681.139 161.426C681.372 161.575 681.825 161.725 682.497 161.874C683.523 162.098 684.237 162.373 684.639 162.7C685.087 163.064 685.311 163.573 685.311 164.226C685.311 164.954 685.012 165.528 684.415 165.948C683.873 166.321 683.159 166.508 682.273 166.508C681.302 166.508 680.532 166.275 679.963 165.808C679.468 165.397 679.193 164.865 679.137 164.212H680.509C680.658 165.033 681.251 165.444 682.287 165.444C682.847 165.444 683.281 165.323 683.589 165.08C683.831 164.884 683.953 164.632 683.953 164.324ZM694.642 156.176V157.338C694.194 157.226 693.826 157.17 693.536 157.17C693.294 157.17 693.102 157.235 692.962 157.366C692.832 157.497 692.766 157.679 692.766 157.912V159.018H694.334V160.166H692.766V166.298H691.422V160.166H690.344V159.018H691.422V157.996C691.422 157.352 691.632 156.848 692.052 156.484C692.426 156.167 692.892 156.008 693.452 156.008C693.816 156.008 694.213 156.064 694.642 156.176ZM696.9 166.298H695.556V159.018H696.662L696.844 160.096C697.255 159.237 697.871 158.808 698.692 158.808C698.963 158.808 699.229 158.841 699.49 158.906V160.25C699.173 160.166 698.888 160.124 698.636 160.124C698.095 160.124 697.67 160.343 697.362 160.782C697.054 161.221 696.9 161.841 696.9 162.644V166.298ZM699.99 162.658C699.99 161.323 700.386 160.315 701.18 159.634C701.814 159.083 702.617 158.808 703.588 158.808C704.717 158.808 705.604 159.167 706.248 159.886C706.864 160.558 707.172 161.482 707.172 162.658C707.172 163.974 706.784 164.977 706.01 165.668C705.375 166.228 704.563 166.508 703.574 166.508C702.444 166.508 701.553 166.135 700.9 165.388C700.293 164.707 699.99 163.797 699.99 162.658ZM701.39 162.658C701.39 163.591 701.628 164.305 702.104 164.8C702.496 165.211 702.995 165.416 703.602 165.416C704.311 165.416 704.857 165.15 705.24 164.618C705.594 164.133 705.772 163.479 705.772 162.658C705.772 161.706 705.538 160.987 705.072 160.502C704.689 160.101 704.194 159.9 703.588 159.9C702.888 159.9 702.342 160.166 701.95 160.698C701.576 161.183 701.39 161.837 701.39 162.658ZM710.053 166.298H708.709V159.018H709.815L709.955 159.872C710.449 159.163 711.163 158.808 712.097 158.808C713.114 158.808 713.828 159.191 714.239 159.956C714.724 159.191 715.513 158.808 716.605 158.808C717.417 158.808 718.042 159.055 718.481 159.55C718.873 160.007 719.069 160.633 719.069 161.426V166.298H717.725V161.524C717.725 160.479 717.253 159.956 716.311 159.956C715.751 159.956 715.303 160.175 714.967 160.614C714.696 160.969 714.561 161.384 714.561 161.86V166.298H713.217V161.524C713.217 160.479 712.745 159.956 711.803 159.956C711.28 159.956 710.846 160.161 710.501 160.572C710.202 160.917 710.053 161.333 710.053 161.818V166.298ZM728.404 165.22V166.368C728.058 166.461 727.727 166.508 727.41 166.508C726.738 166.508 726.234 166.298 725.898 165.878C725.608 165.533 725.464 165.071 725.464 164.492V160.166H724.386V159.018H725.464L725.548 157.268H726.808V159.018H728.376V160.166H726.808V164.52C726.808 165.061 727.064 165.332 727.578 165.332C727.82 165.332 728.096 165.295 728.404 165.22ZM731.012 166.298H729.668V156.218H731.012V159.844C731.544 159.153 732.253 158.808 733.14 158.808C733.998 158.808 734.656 159.074 735.114 159.606C735.515 160.082 735.716 160.731 735.716 161.552V166.298H734.372V161.566C734.372 160.493 733.854 159.956 732.818 159.956C732.267 159.956 731.819 160.147 731.474 160.53C731.166 160.875 731.012 161.319 731.012 161.86V166.298ZM742.567 164.198H744.023C743.818 164.935 743.412 165.514 742.805 165.934C742.236 166.317 741.554 166.508 740.761 166.508C739.613 166.508 738.717 166.144 738.073 165.416C737.485 164.735 737.191 163.815 737.191 162.658C737.191 161.342 737.564 160.343 738.311 159.662C738.927 159.093 739.72 158.808 740.691 158.808C741.83 158.808 742.688 159.177 743.267 159.914C743.827 160.623 744.107 161.636 744.107 162.952H738.563C738.619 163.811 738.88 164.45 739.347 164.87C739.73 165.206 740.215 165.374 740.803 165.374C741.26 165.374 741.657 165.248 741.993 164.996C742.273 164.781 742.464 164.515 742.567 164.198ZM740.719 159.886C740.122 159.886 739.641 160.073 739.277 160.446C738.932 160.791 738.712 161.272 738.619 161.888H742.735C742.688 161.188 742.455 160.665 742.035 160.32C741.699 160.031 741.26 159.886 740.719 159.886ZM758.372 160.88V166.298H757.322L757.126 165.094C756.79 165.57 756.328 165.929 755.74 166.172C755.226 166.396 754.657 166.508 754.032 166.508C752.641 166.508 751.53 165.995 750.7 164.968C749.944 164.016 749.566 162.775 749.566 161.244C749.566 159.471 750.074 158.108 751.092 157.156C751.913 156.391 752.944 156.008 754.186 156.008C755.39 156.008 756.388 156.353 757.182 157.044C757.854 157.623 758.246 158.332 758.358 159.172H756.958C756.827 158.509 756.486 158.005 755.936 157.66C755.46 157.352 754.876 157.198 754.186 157.198C753.187 157.198 752.403 157.576 751.834 158.332C751.292 159.051 751.022 160.021 751.022 161.244C751.022 162.625 751.386 163.689 752.114 164.436C752.683 165.033 753.378 165.332 754.2 165.332C755.058 165.332 755.768 165.066 756.328 164.534C756.832 164.067 757.084 163.493 757.084 162.812V162.028H754.13V160.88H758.372ZM761.399 161.048H759.971C760.046 160.32 760.391 159.755 761.007 159.354C761.558 158.99 762.253 158.808 763.093 158.808C764.092 158.808 764.857 159.069 765.389 159.592C765.837 160.04 766.061 160.619 766.061 161.328V166.298H764.955L764.787 165.304C764.218 166.107 763.406 166.508 762.351 166.508C761.521 166.508 760.872 166.284 760.405 165.836C760.023 165.463 759.831 164.991 759.831 164.422C759.831 163.703 760.079 163.148 760.573 162.756C761.012 162.411 761.684 162.159 762.589 162L764.717 161.636V161.272C764.717 160.796 764.554 160.437 764.227 160.194C763.938 159.979 763.541 159.872 763.037 159.872C762.048 159.872 761.502 160.264 761.399 161.048ZM762.673 165.374C763.243 165.374 763.737 165.187 764.157 164.814C764.531 164.469 764.717 164.072 764.717 163.624V162.686L762.911 163.008C762.249 163.12 761.796 163.293 761.553 163.526C761.357 163.713 761.259 163.965 761.259 164.282C761.259 164.637 761.381 164.907 761.623 165.094C761.866 165.281 762.216 165.374 762.673 165.374ZM769.293 156.218V166.298H767.949V156.218H769.293ZM772.405 161.048H770.977C771.052 160.32 771.397 159.755 772.013 159.354C772.564 158.99 773.259 158.808 774.099 158.808C775.098 158.808 775.863 159.069 776.395 159.592C776.843 160.04 777.067 160.619 777.067 161.328V166.298H775.961L775.793 165.304C775.224 166.107 774.412 166.508 773.357 166.508C772.527 166.508 771.878 166.284 771.411 165.836C771.029 165.463 770.837 164.991 770.837 164.422C770.837 163.703 771.085 163.148 771.579 162.756C772.018 162.411 772.69 162.159 773.595 162L775.723 161.636V161.272C775.723 160.796 775.56 160.437 775.233 160.194C774.944 159.979 774.547 159.872 774.043 159.872C773.054 159.872 772.508 160.264 772.405 161.048ZM773.679 165.374C774.249 165.374 774.743 165.187 775.163 164.814C775.537 164.469 775.723 164.072 775.723 163.624V162.686L773.917 163.008C773.255 163.12 772.802 163.293 772.559 163.526C772.363 163.713 772.265 163.965 772.265 164.282C772.265 164.637 772.387 164.907 772.629 165.094C772.872 165.281 773.222 165.374 773.679 165.374ZM784.821 159.018L782.385 162.42L785.241 166.298H783.603L781.629 163.484L779.697 166.298H778.115L780.831 162.518L778.283 159.018H779.893L781.629 161.468L783.281 159.018H784.821ZM792.441 159.018L789.907 166.396C789.571 167.376 789.249 168.043 788.941 168.398C788.577 168.818 788.105 169.028 787.527 169.028C787.284 169.028 786.995 168.986 786.659 168.902V167.81C786.92 167.875 787.153 167.908 787.359 167.908C787.648 167.908 787.872 167.805 788.031 167.6C788.189 167.404 788.39 166.97 788.633 166.298H788.199L785.525 159.018H786.981L789.039 165.206L791.097 159.018H792.441ZM794.654 166.298H793.03V164.674H794.654V166.298Z" fill="white" fill-opacity="0.95"/>
<rect x="429.5" y="188.798" width="407" height="35" stroke="black" stroke-dasharray="2 2"/>
<path d="M688.233 215.298V205.116H691.673C692.472 205.116 693.125 205.26 693.632 205.549C694.143 205.834 694.52 206.22 694.766 206.707C695.011 207.194 695.134 207.738 695.134 208.338C695.134 208.938 695.011 209.483 694.766 209.973C694.524 210.464 694.149 210.855 693.642 211.147C693.135 211.435 692.485 211.579 691.693 211.579H689.227V210.485H691.653C692.2 210.485 692.639 210.391 692.971 210.202C693.302 210.013 693.543 209.758 693.692 209.436C693.844 209.112 693.92 208.745 693.92 208.338C693.92 207.93 693.844 207.565 693.692 207.244C693.543 206.922 693.301 206.67 692.966 206.488C692.631 206.303 692.187 206.21 691.634 206.21H689.466V215.298H688.233ZM699.208 215.477C698.724 215.477 698.285 215.386 697.89 215.203C697.496 215.018 697.183 214.751 696.951 214.403C696.719 214.052 696.603 213.627 696.603 213.13C696.603 212.693 696.689 212.338 696.861 212.066C697.033 211.791 697.264 211.576 697.552 211.42C697.841 211.264 698.159 211.148 698.507 211.072C698.858 210.992 699.211 210.929 699.566 210.883C700.03 210.823 700.406 210.779 700.694 210.749C700.986 210.716 701.198 210.661 701.331 210.585C701.467 210.509 701.534 210.376 701.534 210.187V210.147C701.534 209.657 701.4 209.276 701.132 209.004C700.867 208.732 700.464 208.596 699.924 208.596C699.364 208.596 698.924 208.719 698.606 208.964C698.288 209.209 698.064 209.471 697.935 209.75L696.821 209.352C697.02 208.888 697.285 208.527 697.617 208.268C697.952 208.006 698.316 207.824 698.711 207.721C699.108 207.615 699.499 207.562 699.884 207.562C700.129 207.562 700.411 207.592 700.729 207.652C701.051 207.708 701.36 207.826 701.659 208.005C701.96 208.184 702.211 208.454 702.409 208.815C702.608 209.176 702.708 209.66 702.708 210.267V215.298H701.534V214.264H701.475C701.395 214.429 701.263 214.607 701.077 214.796C700.891 214.985 700.645 215.145 700.336 215.278C700.028 215.411 699.652 215.477 699.208 215.477ZM699.387 214.423C699.851 214.423 700.242 214.332 700.56 214.149C700.882 213.967 701.123 213.732 701.286 213.443C701.452 213.155 701.534 212.852 701.534 212.534V211.46C701.485 211.519 701.375 211.574 701.206 211.624C701.041 211.67 700.848 211.712 700.63 211.748C700.414 211.781 700.204 211.811 699.998 211.838C699.796 211.861 699.632 211.881 699.506 211.897C699.201 211.937 698.916 212.002 698.651 212.091C698.389 212.177 698.177 212.308 698.015 212.484C697.855 212.656 697.776 212.892 697.776 213.19C697.776 213.598 697.927 213.906 698.228 214.115C698.533 214.32 698.919 214.423 699.387 214.423ZM704.849 215.298V207.661H705.983V208.815H706.062C706.202 208.437 706.453 208.13 706.818 207.895C707.183 207.66 707.594 207.542 708.051 207.542C708.137 207.542 708.245 207.544 708.374 207.547C708.503 207.55 708.601 207.555 708.667 207.562V208.755C708.628 208.745 708.537 208.73 708.394 208.71C708.255 208.687 708.107 208.676 707.952 208.676C707.58 208.676 707.249 208.754 706.957 208.909C706.669 209.062 706.44 209.274 706.271 209.546C706.105 209.814 706.023 210.121 706.023 210.465V215.298H704.849ZM712.305 215.477C711.821 215.477 711.382 215.386 710.988 215.203C710.594 215.018 710.28 214.751 710.048 214.403C709.816 214.052 709.7 213.627 709.7 213.13C709.7 212.693 709.786 212.338 709.959 212.066C710.131 211.791 710.362 211.576 710.65 211.42C710.938 211.264 711.256 211.148 711.604 211.072C711.956 210.992 712.309 210.929 712.663 210.883C713.127 210.823 713.504 210.779 713.792 210.749C714.084 210.716 714.296 210.661 714.428 210.585C714.564 210.509 714.632 210.376 714.632 210.187V210.147C714.632 209.657 714.498 209.276 714.229 209.004C713.964 208.732 713.562 208.596 713.021 208.596C712.461 208.596 712.022 208.719 711.704 208.964C711.386 209.209 711.162 209.471 711.033 209.75L709.919 209.352C710.118 208.888 710.383 208.527 710.714 208.268C711.049 208.006 711.414 207.824 711.808 207.721C712.206 207.615 712.597 207.562 712.982 207.562C713.227 207.562 713.509 207.592 713.827 207.652C714.148 207.708 714.458 207.826 714.756 208.005C715.058 208.184 715.308 208.454 715.507 208.815C715.706 209.176 715.805 209.66 715.805 210.267V215.298H714.632V214.264H714.572C714.493 214.429 714.36 214.607 714.175 214.796C713.989 214.985 713.742 215.145 713.434 215.278C713.126 215.411 712.75 215.477 712.305 215.477ZM712.484 214.423C712.948 214.423 713.339 214.332 713.658 214.149C713.979 213.967 714.221 213.732 714.384 213.443C714.549 213.155 714.632 212.852 714.632 212.534V211.46C714.582 211.519 714.473 211.574 714.304 211.624C714.138 211.67 713.946 211.712 713.727 211.748C713.512 211.781 713.301 211.811 713.096 211.838C712.894 211.861 712.73 211.881 712.604 211.897C712.299 211.937 712.014 212.002 711.749 212.091C711.487 212.177 711.275 212.308 711.112 212.484C710.953 212.656 710.874 212.892 710.874 213.19C710.874 213.598 711.024 213.906 711.326 214.115C711.631 214.32 712.017 214.423 712.484 214.423ZM720.83 215.457C720.194 215.457 719.632 215.296 719.145 214.975C718.658 214.65 718.277 214.193 718.002 213.603C717.727 213.009 717.589 212.308 717.589 211.5C717.589 210.697 717.727 210.001 718.002 209.411C718.277 208.822 718.66 208.366 719.15 208.044C719.641 207.723 720.207 207.562 720.85 207.562C721.347 207.562 721.74 207.645 722.029 207.811C722.32 207.973 722.542 208.159 722.695 208.367C722.851 208.573 722.972 208.742 723.058 208.875H723.157V205.116H724.33V215.298H723.197V214.125H723.058C722.972 214.264 722.849 214.439 722.69 214.652C722.531 214.86 722.304 215.048 722.009 215.213C721.714 215.376 721.321 215.457 720.83 215.457ZM720.99 214.403C721.46 214.403 721.858 214.28 722.183 214.035C722.508 213.786 722.754 213.443 722.923 213.006C723.093 212.565 723.177 212.056 723.177 211.48C723.177 210.91 723.094 210.411 722.928 209.983C722.763 209.552 722.517 209.218 722.193 208.979C721.868 208.737 721.467 208.616 720.99 208.616C720.492 208.616 720.078 208.744 719.747 208.999C719.419 209.251 719.172 209.594 719.006 210.028C718.843 210.459 718.762 210.943 718.762 211.48C718.762 212.023 718.845 212.517 719.011 212.961C719.18 213.402 719.428 213.753 719.757 214.015C720.088 214.274 720.499 214.403 720.99 214.403ZM729.844 215.457C729.108 215.457 728.473 215.295 727.94 214.97C727.41 214.642 727 214.184 726.712 213.598C726.427 213.008 726.284 212.322 726.284 211.539C726.284 210.757 726.427 210.068 726.712 209.471C727 208.871 727.401 208.404 727.915 208.069C728.432 207.731 729.035 207.562 729.725 207.562C730.122 207.562 730.515 207.628 730.903 207.761C731.291 207.893 731.644 208.109 731.962 208.407C732.28 208.702 732.534 209.093 732.722 209.581C732.911 210.068 733.006 210.668 733.006 211.38V211.877H727.119V210.863H731.813C731.813 210.432 731.727 210.048 731.554 209.71C731.385 209.372 731.143 209.105 730.828 208.909C730.517 208.714 730.149 208.616 729.725 208.616C729.257 208.616 728.853 208.732 728.512 208.964C728.173 209.193 727.913 209.491 727.731 209.859C727.549 210.227 727.458 210.621 727.458 211.042V211.718C727.458 212.295 727.557 212.784 727.756 213.185C727.958 213.583 728.238 213.886 728.596 214.095C728.954 214.3 729.37 214.403 729.844 214.403C730.152 214.403 730.431 214.36 730.679 214.274C730.931 214.184 731.148 214.052 731.33 213.876C731.513 213.697 731.654 213.475 731.753 213.21L732.887 213.528C732.767 213.912 732.567 214.251 732.285 214.542C732.003 214.831 731.655 215.056 731.241 215.218C730.827 215.377 730.361 215.457 729.844 215.457ZM738.887 205.116H740.359L743.819 213.568H743.938L747.399 205.116H748.87V215.298H747.717V207.562H747.617L744.436 215.298H743.322L740.14 207.562H740.041V215.298H738.887V205.116ZM753.43 215.477C752.946 215.477 752.507 215.386 752.113 215.203C751.719 215.018 751.405 214.751 751.173 214.403C750.941 214.052 750.825 213.627 750.825 213.13C750.825 212.693 750.911 212.338 751.084 212.066C751.256 211.791 751.487 211.576 751.775 211.42C752.063 211.264 752.381 211.148 752.729 211.072C753.081 210.992 753.434 210.929 753.788 210.883C754.252 210.823 754.629 210.779 754.917 210.749C755.209 210.716 755.421 210.661 755.553 210.585C755.689 210.509 755.757 210.376 755.757 210.187V210.147C755.757 209.657 755.623 209.276 755.354 209.004C755.089 208.732 754.687 208.596 754.146 208.596C753.586 208.596 753.147 208.719 752.829 208.964C752.511 209.209 752.287 209.471 752.158 209.75L751.044 209.352C751.243 208.888 751.508 208.527 751.839 208.268C752.174 208.006 752.539 207.824 752.933 207.721C753.331 207.615 753.722 207.562 754.107 207.562C754.352 207.562 754.634 207.592 754.952 207.652C755.273 207.708 755.583 207.826 755.881 208.005C756.183 208.184 756.433 208.454 756.632 208.815C756.831 209.176 756.93 209.66 756.93 210.267V215.298H755.757V214.264H755.697C755.618 214.429 755.485 214.607 755.3 214.796C755.114 214.985 754.867 215.145 754.559 215.278C754.251 215.411 753.875 215.477 753.43 215.477ZM753.609 214.423C754.073 214.423 754.464 214.332 754.783 214.149C755.104 213.967 755.346 213.732 755.509 213.443C755.674 213.155 755.757 212.852 755.757 212.534V211.46C755.707 211.519 755.598 211.574 755.429 211.624C755.263 211.67 755.071 211.712 754.852 211.748C754.637 211.781 754.426 211.811 754.221 211.838C754.019 211.861 753.855 211.881 753.729 211.897C753.424 211.937 753.139 212.002 752.874 212.091C752.612 212.177 752.4 212.308 752.237 212.484C752.078 212.656 751.999 212.892 751.999 213.19C751.999 213.598 752.149 213.906 752.451 214.115C752.756 214.32 753.142 214.423 753.609 214.423ZM759.072 218.161V207.661H760.205V208.875H760.345C760.431 208.742 760.55 208.573 760.703 208.367C760.858 208.159 761.08 207.973 761.369 207.811C761.66 207.645 762.055 207.562 762.552 207.562C763.195 207.562 763.762 207.723 764.252 208.044C764.743 208.366 765.126 208.822 765.401 209.411C765.676 210.001 765.813 210.697 765.813 211.5C765.813 212.308 765.676 213.009 765.401 213.603C765.126 214.193 764.744 214.65 764.257 214.975C763.77 215.296 763.208 215.457 762.572 215.457C762.081 215.457 761.689 215.376 761.394 215.213C761.099 215.048 760.872 214.86 760.713 214.652C760.553 214.439 760.431 214.264 760.345 214.125H760.245V218.161H759.072ZM760.225 211.48C760.225 212.056 760.31 212.565 760.479 213.006C760.648 213.443 760.895 213.786 761.22 214.035C761.544 214.28 761.942 214.403 762.413 214.403C762.903 214.403 763.313 214.274 763.641 214.015C763.972 213.753 764.221 213.402 764.387 212.961C764.556 212.517 764.64 212.023 764.64 211.48C764.64 210.943 764.557 210.459 764.392 210.028C764.229 209.594 763.982 209.251 763.651 208.999C763.323 208.744 762.91 208.616 762.413 208.616C761.936 208.616 761.535 208.737 761.21 208.979C760.885 209.218 760.64 209.552 760.474 209.983C760.308 210.411 760.225 210.91 760.225 211.48Z" fill="#64B4FA"/>
<path d="M687 218.082H766.529V219.036H687V218.082Z" fill="#64B4FA"/>
<rect x="775" y="196.298" width="62" height="28" rx="14" fill="white" fill-opacity="0.95"/>
<path d="M786.409 203.778H788.473V213.618H793.961V215.298H786.409V203.778ZM797.198 209.33H795.198C795.336 208.466 795.768 207.805 796.494 207.346C797.144 206.941 797.96 206.738 798.942 206.738C800.126 206.738 801.032 207.042 801.662 207.65C802.206 208.173 802.478 208.85 802.478 209.682V215.298H800.942L800.702 214.274C800.051 215.117 799.128 215.538 797.934 215.538C796.984 215.538 796.248 215.282 795.726 214.77C795.267 214.322 795.038 213.751 795.038 213.058C795.038 212.279 795.32 211.671 795.886 211.234C796.398 210.829 797.192 210.535 798.27 210.354L800.558 209.97V209.57C800.558 209.069 800.392 208.695 800.062 208.45C799.774 208.226 799.379 208.114 798.878 208.114C797.886 208.114 797.326 208.519 797.198 209.33ZM800.558 211.234L798.75 211.554C798.131 211.671 797.688 211.837 797.422 212.05C797.155 212.253 797.022 212.541 797.022 212.914C797.022 213.693 797.496 214.082 798.446 214.082C799.064 214.082 799.587 213.879 800.014 213.474C800.376 213.122 800.558 212.711 800.558 212.242V211.234ZM804.438 203.778H806.358V207.986C807.019 207.154 807.91 206.738 809.03 206.738C810.235 206.738 811.163 207.149 811.814 207.97C812.411 208.717 812.71 209.719 812.71 210.978C812.71 212.514 812.299 213.693 811.478 214.514C810.806 215.197 809.937 215.538 808.87 215.538C807.771 215.538 806.907 215.122 806.278 214.29L805.974 215.298H804.438V203.778ZM810.742 211.058C810.742 210.055 810.513 209.314 810.054 208.834C809.681 208.45 809.179 208.258 808.55 208.258C807.835 208.258 807.27 208.519 806.854 209.042C806.47 209.543 806.278 210.21 806.278 211.042C806.278 212.087 806.513 212.866 806.982 213.378C807.377 213.805 807.889 214.018 808.518 214.018C809.254 214.018 809.814 213.746 810.198 213.202C810.561 212.69 810.742 211.975 810.742 211.058ZM819.992 212.898H822.008C821.784 213.751 821.32 214.413 820.616 214.882C819.944 215.319 819.118 215.538 818.136 215.538C816.782 215.538 815.726 215.111 814.968 214.258C814.275 213.479 813.928 212.439 813.928 211.138C813.928 209.645 814.36 208.503 815.224 207.714C815.95 207.063 816.894 206.738 818.056 206.738C819.411 206.738 820.435 207.181 821.128 208.066C821.779 208.887 822.104 210.061 822.104 211.586H815.88C815.955 212.482 816.232 213.138 816.712 213.554C817.096 213.895 817.598 214.066 818.216 214.066C818.654 214.066 819.032 213.959 819.352 213.746C819.672 213.533 819.886 213.25 819.992 212.898ZM820.136 210.274C820.094 209.495 819.859 208.925 819.432 208.562C819.08 208.253 818.622 208.098 818.056 208.098C817.438 208.098 816.942 208.301 816.568 208.706C816.227 209.069 816.008 209.591 815.912 210.274H820.136ZM825.671 203.778V215.298H823.751V203.778H825.671Z" fill="black" fill-opacity="0.95"/>
</g>
</g>
<rect x="811" y="83.5947" width="37" height="37" rx="5" stroke="#DA0087" stroke-width="2" stroke-linecap="square"/>
<rect x="813" y="85.5947" width="33" height="33" rx="3" stroke="white" stroke-opacity="0.9" stroke-width="2" stroke-linecap="square"/>
<rect x="279" y="86.5947" width="112" height="37" rx="5" stroke="#DA0087" stroke-width="2" stroke-linecap="square"/>
<rect x="281" y="88.5947" width="108" height="33" rx="3" stroke="white" stroke-opacity="0.9" stroke-width="2" stroke-linecap="square"/>
<rect x="656" y="188.149" width="114" height="42" rx="5" stroke="#DA0087" stroke-width="2" stroke-linecap="square"/>
<rect x="658" y="190.149" width="110" height="38" rx="3" stroke="white" stroke-opacity="0.9" stroke-width="2" stroke-linecap="square"/>
<rect x="771" y="188.149" width="70" height="42" rx="5" stroke="#DA0087" stroke-width="2" stroke-linecap="square"/>
<rect x="773" y="190.149" width="66" height="38" rx="3" stroke="white" stroke-opacity="0.9" stroke-width="2" stroke-linecap="square"/>
<rect x="391" y="60.1489" width="36" height="36" rx="18" fill="#DA0087"/>
<rect x="392" y="61.1489" width="34" height="34" rx="17" stroke="white" stroke-opacity="0.9" stroke-width="2"/>
<path d="M411.092 72.5126V84.1489H408.631V74.8478H408.563L405.898 76.5182V74.3364L408.779 72.5126H411.092Z" fill="white" fill-opacity="0.95"/>
<rect x="831" y="160.149" width="36" height="36" rx="18" fill="#DA0087"/>
<rect x="832" y="161.149" width="34" height="34" rx="17" stroke="white" stroke-opacity="0.9" stroke-width="2"/>
<path d="M844.345 182.103V180.166L849.203 172.513H850.874V175.194H849.885L846.822 180.041V180.132H853.726V182.103H844.345ZM849.93 184.149V181.513L849.976 180.655V172.513H852.283V184.149H849.93Z" fill="white" fill-opacity="0.95"/>
<rect x="721" y="160.149" width="36" height="36" rx="18" fill="#DA0087"/>
<rect x="722" y="161.149" width="34" height="34" rx="17" stroke="white" stroke-opacity="0.9" stroke-width="2"/>
<path d="M738.971 184.308C738.122 184.308 737.367 184.162 736.704 183.871C736.045 183.575 735.524 183.17 735.141 182.655C734.763 182.136 734.567 181.537 734.556 180.859H737.033C737.049 181.143 737.141 181.393 737.312 181.609C737.486 181.821 737.717 181.986 738.005 182.103C738.293 182.221 738.617 182.28 738.977 182.28C739.352 182.28 739.683 182.213 739.971 182.081C740.259 181.948 740.484 181.764 740.647 181.53C740.81 181.295 740.891 181.024 740.891 180.717C740.891 180.407 740.804 180.132 740.63 179.893C740.46 179.651 740.213 179.461 739.891 179.325C739.573 179.189 739.194 179.121 738.755 179.121H737.67V177.314H738.755C739.126 177.314 739.454 177.249 739.738 177.121C740.026 176.992 740.249 176.814 740.408 176.586C740.567 176.355 740.647 176.086 740.647 175.78C740.647 175.488 740.577 175.232 740.437 175.013C740.3 174.789 740.107 174.615 739.857 174.49C739.611 174.365 739.323 174.302 738.994 174.302C738.66 174.302 738.355 174.363 738.079 174.484C737.802 174.602 737.581 174.77 737.414 174.99C737.247 175.21 737.158 175.467 737.147 175.763H734.789C734.8 175.092 734.992 174.501 735.363 173.99C735.734 173.478 736.234 173.079 736.863 172.791C737.496 172.499 738.21 172.353 739.005 172.353C739.808 172.353 740.511 172.499 741.113 172.791C741.715 173.083 742.183 173.477 742.516 173.973C742.853 174.465 743.02 175.018 743.016 175.632C743.02 176.283 742.817 176.827 742.408 177.263C742.003 177.698 741.475 177.975 740.823 178.092V178.183C741.679 178.293 742.331 178.59 742.778 179.075C743.228 179.556 743.452 180.158 743.448 180.882C743.452 181.545 743.261 182.134 742.874 182.649C742.492 183.164 741.963 183.569 741.289 183.865C740.615 184.16 739.842 184.308 738.971 184.308Z" fill="white" fill-opacity="0.95"/>
<rect x="841" y="60.1489" width="36" height="36" rx="18" fill="#DA0087"/>
<rect x="842" y="61.1489" width="34" height="34" rx="17" stroke="white" stroke-opacity="0.9" stroke-width="2"/>
<path d="M854.904 84.1489V82.3762L859.046 78.541C859.398 78.2001 859.694 77.8932 859.933 77.6205C860.175 77.3478 860.359 77.0807 860.484 76.8194C860.609 76.5542 860.671 76.2682 860.671 75.9614C860.671 75.6205 860.594 75.327 860.438 75.0807C860.283 74.8307 860.071 74.6395 859.802 74.5069C859.533 74.3705 859.228 74.3023 858.887 74.3023C858.531 74.3023 858.22 74.3743 857.955 74.5182C857.69 74.6622 857.486 74.8686 857.342 75.1376C857.198 75.4065 857.126 75.7266 857.126 76.0978H854.79C854.79 75.3364 854.963 74.6754 855.308 74.1148C855.652 73.5542 856.135 73.1205 856.756 72.8137C857.378 72.5069 858.094 72.3535 858.904 72.3535C859.737 72.3535 860.463 72.5012 861.08 72.7967C861.701 73.0883 862.184 73.4936 862.529 74.0126C862.874 74.5315 863.046 75.1262 863.046 75.7967C863.046 76.236 862.959 76.6698 862.785 77.0978C862.614 77.5258 862.309 78.0012 861.87 78.5239C861.431 79.0429 860.811 79.666 860.012 80.3932L858.313 82.058V82.1376H863.2V84.1489H854.904Z" fill="white" fill-opacity="0.95"/>
<defs>
<filter id="filter0_dd_1027_318743" x="265" y="74.2979" width="596" height="178" filterUnits="userSpaceOnUse" color-interpolation-filters="sRGB">
<feFlood flood-opacity="0" result="BackgroundImageFix"/>
<feColorMatrix in="SourceAlpha" type="matrix" values="0 0 0 0 0 0 0 0 0 0 0 0 0 0 0 0 0 0 127 0" result="hardAlpha"/>
<feOffset/>
<feGaussianBlur stdDeviation="0.5"/>
<feColorMatrix type="matrix" values="0 0 0 0 0 0 0 0 0 0 0 0 0 0 0 0 0 0 0.16 0"/>
<feBlend mode="normal" in2="BackgroundImageFix" result="effect1_dropShadow_1027_318743"/>
<feColorMatrix in="SourceAlpha" type="matrix" values="0 0 0 0 0 0 0 0 0 0 0 0 0 0 0 0 0 0 127 0" result="hardAlpha"/>
<feOffset dy="4"/>
<feGaussianBlur stdDeviation="4"/>
<feColorMatrix type="matrix" values="0 0 0 0 0 0 0 0 0 0 0 0 0 0 0 0 0 0 0.16 0"/>
<feBlend mode="normal" in2="effect1_dropShadow_1027_318743" result="effect2_dropShadow_1027_318743"/>
<feBlend mode="normal" in="SourceGraphic" in2="effect2_dropShadow_1027_318743" result="shape"/>
</filter>
<filter id="filter1_dd_1027_318743" x="265" y="74.2979" width="596" height="178" filterUnits="userSpaceOnUse" color-interpolation-filters="sRGB">
<feFlood flood-opacity="0" result="BackgroundImageFix"/>
<feColorMatrix in="SourceAlpha" type="matrix" values="0 0 0 0 0 0 0 0 0 0 0 0 0 0 0 0 0 0 127 0" result="hardAlpha"/>
<feOffset/>
<feGaussianBlur stdDeviation="0.5"/>
<feColorMatrix type="matrix" values="0 0 0 0 0 0 0 0 0 0 0 0 0 0 0 0 0 0 0.16 0"/>
<feBlend mode="normal" in2="BackgroundImageFix" result="effect1_dropShadow_1027_318743"/>
<feColorMatrix in="SourceAlpha" type="matrix" values="0 0 0 0 0 0 0 0 0 0 0 0 0 0 0 0 0 0 127 0" result="hardAlpha"/>
<feOffset dy="4"/>
<feGaussianBlur stdDeviation="4"/>
<feColorMatrix type="matrix" values="0 0 0 0 0 0 0 0 0 0 0 0 0 0 0 0 0 0 0.16 0"/>
<feBlend mode="normal" in2="effect1_dropShadow_1027_318743" result="effect2_dropShadow_1027_318743"/>
<feBlend mode="normal" in="SourceGraphic" in2="effect2_dropShadow_1027_318743" result="shape"/>
</filter>
</defs>
</svg>
