<svg width="559" height="184" viewBox="0 0 559 184" fill="none" xmlns="http://www.w3.org/2000/svg">
<rect width="559" height="184" rx="16" fill="#1A1A1A"/>
<rect x="263.5" y="84" width="33" height="16" rx="8" fill="#1170CF"/>
<path d="M267.863 96V87.2727H271.059C271.678 87.2727 272.191 87.375 272.597 87.5795C273.004 87.7812 273.308 88.0554 273.509 88.402C273.711 88.7457 273.812 89.1335 273.812 89.5653C273.812 89.929 273.745 90.2358 273.612 90.4858C273.478 90.733 273.299 90.9318 273.075 91.0824C272.853 91.2301 272.609 91.3381 272.342 91.4062V91.4915C272.632 91.5057 272.914 91.5994 273.19 91.7727C273.468 91.9432 273.698 92.1861 273.88 92.5014C274.062 92.8168 274.153 93.2003 274.153 93.652C274.153 94.098 274.048 94.4986 273.838 94.8537C273.63 95.206 273.309 95.4858 272.874 95.6932C272.44 95.8977 271.884 96 271.208 96H267.863ZM269.18 94.8707H271.08C271.711 94.8707 272.163 94.7486 272.436 94.5043C272.708 94.2599 272.845 93.9545 272.845 93.5881C272.845 93.3125 272.775 93.0597 272.636 92.8295C272.497 92.5994 272.298 92.4162 272.039 92.2798C271.784 92.1435 271.48 92.0753 271.127 92.0753H269.18V94.8707ZM269.18 91.0483H270.944C271.24 91.0483 271.505 90.9915 271.741 90.8778C271.98 90.7642 272.169 90.6051 272.308 90.4006C272.45 90.1932 272.521 89.9489 272.521 89.6676C272.521 89.3068 272.394 89.0043 272.142 88.7599C271.889 88.5156 271.501 88.3935 270.978 88.3935H269.18V91.0483ZM278.433 96.1321C277.789 96.1321 277.233 95.9943 276.767 95.7188C276.304 95.4403 275.946 95.0497 275.693 94.5469C275.443 94.0412 275.318 93.4489 275.318 92.7699C275.318 92.0994 275.443 91.5085 275.693 90.9972C275.946 90.4858 276.298 90.0866 276.75 89.7997C277.205 89.5128 277.736 89.3693 278.344 89.3693C278.713 89.3693 279.071 89.4304 279.418 89.5526C279.764 89.6747 280.075 89.8665 280.351 90.1278C280.627 90.3892 280.844 90.7287 281.003 91.1463C281.162 91.5611 281.242 92.0653 281.242 92.6591V93.1108H276.039V92.1562H279.993C279.993 91.821 279.925 91.5241 279.789 91.2656C279.652 91.0043 279.46 90.7983 279.213 90.6477C278.969 90.4972 278.682 90.4219 278.352 90.4219C277.994 90.4219 277.682 90.5099 277.415 90.6861C277.151 90.8594 276.946 91.0866 276.801 91.3679C276.659 91.6463 276.588 91.9489 276.588 92.2756V93.0213C276.588 93.4588 276.665 93.831 276.818 94.1378C276.975 94.4446 277.192 94.679 277.47 94.8409C277.749 95 278.074 95.0795 278.446 95.0795C278.688 95.0795 278.908 95.0455 279.107 94.9773C279.306 94.9062 279.477 94.8011 279.622 94.6619C279.767 94.5227 279.878 94.3509 279.955 94.1463L281.161 94.3636C281.064 94.7187 280.891 95.0298 280.641 95.2969C280.394 95.5611 280.083 95.767 279.708 95.9148C279.335 96.0597 278.911 96.1321 278.433 96.1321ZM285.711 89.4545V90.4773H282.135V89.4545H285.711ZM283.094 87.8864H284.368V94.0781C284.368 94.3253 284.405 94.5114 284.479 94.6364C284.553 94.7585 284.648 94.8423 284.765 94.8878C284.884 94.9304 285.013 94.9517 285.153 94.9517C285.255 94.9517 285.344 94.9446 285.421 94.9304C285.498 94.9162 285.557 94.9048 285.6 94.8963L285.83 95.9489C285.756 95.9773 285.651 96.0057 285.515 96.0341C285.378 96.0653 285.208 96.0824 285.003 96.0852C284.668 96.0909 284.356 96.0312 284.066 95.9062C283.776 95.7812 283.542 95.5881 283.363 95.3267C283.184 95.0653 283.094 94.7372 283.094 94.3423V87.8864ZM289.025 96.1449C288.61 96.1449 288.235 96.0682 287.9 95.9148C287.565 95.7585 287.299 95.5327 287.103 95.2372C286.91 94.9418 286.813 94.5795 286.813 94.1506C286.813 93.7812 286.884 93.4773 287.026 93.2386C287.169 93 287.36 92.8111 287.602 92.6719C287.843 92.5327 288.113 92.4276 288.411 92.3565C288.71 92.2855 289.014 92.2315 289.323 92.1946C289.715 92.1491 290.034 92.1122 290.278 92.0838C290.522 92.0526 290.7 92.0028 290.811 91.9347C290.921 91.8665 290.977 91.7557 290.977 91.6023V91.5724C290.977 91.2003 290.872 90.9119 290.661 90.7074C290.454 90.5028 290.144 90.4006 289.732 90.4006C289.303 90.4006 288.965 90.4957 288.718 90.6861C288.474 90.8736 288.305 91.0824 288.211 91.3125L287.014 91.0398C287.156 90.642 287.363 90.321 287.636 90.0767C287.911 89.8295 288.228 89.6506 288.586 89.5398C288.944 89.4261 289.32 89.3693 289.715 89.3693C289.977 89.3693 290.254 89.4006 290.546 89.4631C290.842 89.5227 291.117 89.6335 291.373 89.7955C291.632 89.9574 291.843 90.1889 292.008 90.4901C292.173 90.7884 292.255 91.1761 292.255 91.6534V96H291.011V95.1051H290.96C290.877 95.2699 290.754 95.4318 290.589 95.5909C290.424 95.75 290.213 95.8821 289.954 95.9872C289.695 96.0923 289.386 96.1449 289.025 96.1449ZM289.302 95.1222C289.654 95.1222 289.955 95.0526 290.205 94.9134C290.458 94.7741 290.65 94.5923 290.781 94.3679C290.914 94.1406 290.981 93.8977 290.981 93.6392V92.7955C290.936 92.8409 290.847 92.8835 290.717 92.9233C290.589 92.9602 290.443 92.9929 290.278 93.0213C290.113 93.0469 289.953 93.071 289.796 93.0938C289.64 93.1136 289.509 93.1307 289.404 93.1449C289.157 93.1761 288.931 93.2287 288.727 93.3026C288.525 93.3764 288.363 93.483 288.241 93.6222C288.122 93.7585 288.062 93.9403 288.062 94.1676C288.062 94.483 288.178 94.7216 288.411 94.8835C288.644 95.0426 288.941 95.1222 289.302 95.1222Z" fill="white" fill-opacity="0.95"/>
</svg>
