<svg width="1150" height="212" viewBox="0 0 1150 212" fill="none" xmlns="http://www.w3.org/2000/svg">
<rect width="1150" height="212" rx="24" fill="#1A1A1A"/>
<path d="M446.843 123.062C449.639 123.062 451.905 120.796 451.905 118C451.905 115.204 449.639 112.938 446.843 112.938C444.047 112.938 441.78 115.204 441.78 118C441.78 120.796 444.047 123.062 446.843 123.062Z" fill="#1170CF"/>
<rect x="539" y="108" width="16" height="16" rx="8" fill="#1170CF"/>
<path d="M548.315 111.273V120H546.994V112.594H546.942L544.854 113.957V112.696L547.032 111.273H548.315Z" fill="white" fill-opacity="0.95"/>
<rect x="645" y="108" width="16" height="16" rx="8" fill="#1170CF"/>
<g clip-path="url(#clip0_1034_25380)">
<path d="M656.168 118.638C656.784 117.897 657.121 116.964 657.121 116C657.121 115.036 656.784 114.103 656.168 113.362L658.14 111.39C658.176 111.355 658.204 111.314 658.223 111.268C658.243 111.223 658.253 111.174 658.253 111.124C658.254 111.074 658.244 111.025 658.225 110.979C658.206 110.933 658.179 110.892 658.144 110.856C658.108 110.821 658.067 110.794 658.021 110.775C657.975 110.756 657.926 110.746 657.876 110.747C657.826 110.747 657.777 110.757 657.732 110.777C657.686 110.796 657.645 110.824 657.61 110.86L655.639 112.831C654.898 112.213 653.964 111.875 653 111.875C652.036 111.875 651.102 112.213 650.361 112.831L648.39 110.86C648.32 110.791 648.225 110.753 648.126 110.753C648.027 110.754 647.933 110.793 647.863 110.863C647.793 110.933 647.754 111.027 647.753 111.126C647.753 111.225 647.791 111.319 647.86 111.39L649.831 113.362C649.216 114.103 648.879 115.036 648.879 116C648.879 116.964 649.216 117.897 649.831 118.638L647.86 120.61C647.824 120.644 647.796 120.686 647.777 120.732C647.757 120.777 647.747 120.826 647.747 120.876C647.746 120.926 647.756 120.975 647.775 121.021C647.794 121.067 647.821 121.108 647.856 121.143C647.892 121.179 647.933 121.206 647.979 121.225C648.025 121.244 648.074 121.254 648.124 121.253C648.174 121.253 648.223 121.243 648.268 121.223C648.314 121.204 648.356 121.176 648.39 121.14L650.361 119.169C651.102 119.787 652.036 120.125 653 120.125C653.964 120.125 654.898 119.787 655.639 119.169L657.61 121.14C657.68 121.209 657.775 121.247 657.874 121.247C657.973 121.246 658.067 121.206 658.137 121.137C658.207 121.067 658.246 120.973 658.247 120.874C658.247 120.775 658.209 120.68 658.14 120.61L656.168 118.638ZM655.636 118.106L653.53 116L655.636 113.894C656.113 114.493 656.372 115.235 656.372 116C656.372 116.765 656.113 117.507 655.636 118.106ZM653 112.625C653.766 112.623 654.509 112.884 655.106 113.364L653 115.47L650.894 113.364C651.491 112.884 652.234 112.623 653 112.625ZM650.364 113.894L652.47 116L650.364 118.106C649.887 117.507 649.628 116.765 649.628 116C649.628 115.235 649.887 114.493 650.364 113.894ZM653 119.375C652.234 119.377 651.491 119.116 650.894 118.636L653 116.53L655.106 118.636C654.509 119.116 653.766 119.377 653 119.375Z" fill="white" fill-opacity="0.95"/>
</g>
<rect x="737" y="108" width="40" height="16" rx="8" fill="#1170CF"/>
<path d="M742.385 120V111.273H743.701V118.866H747.656V120H742.385ZM750.961 120.145C750.546 120.145 750.171 120.068 749.836 119.915C749.5 119.759 749.235 119.533 749.039 119.237C748.846 118.942 748.749 118.58 748.749 118.151C748.749 117.781 748.82 117.477 748.962 117.239C749.104 117 749.296 116.811 749.537 116.672C749.779 116.533 750.049 116.428 750.347 116.357C750.645 116.286 750.949 116.232 751.259 116.195C751.651 116.149 751.969 116.112 752.213 116.084C752.458 116.053 752.635 116.003 752.746 115.935C752.857 115.866 752.912 115.756 752.912 115.602V115.572C752.912 115.2 752.807 114.912 752.597 114.707C752.39 114.503 752.08 114.401 751.668 114.401C751.239 114.401 750.901 114.496 750.654 114.686C750.409 114.874 750.24 115.082 750.147 115.312L748.949 115.04C749.091 114.642 749.299 114.321 749.571 114.077C749.847 113.83 750.164 113.651 750.522 113.54C750.88 113.426 751.256 113.369 751.651 113.369C751.912 113.369 752.189 113.401 752.482 113.463C752.777 113.523 753.053 113.634 753.309 113.795C753.567 113.957 753.779 114.189 753.944 114.49C754.108 114.788 754.191 115.176 754.191 115.653V120H752.946V119.105H752.895C752.813 119.27 752.689 119.432 752.525 119.591C752.36 119.75 752.148 119.882 751.89 119.987C751.631 120.092 751.321 120.145 750.961 120.145ZM751.238 119.122C751.59 119.122 751.891 119.053 752.141 118.913C752.394 118.774 752.586 118.592 752.716 118.368C752.85 118.141 752.917 117.898 752.917 117.639V116.795C752.871 116.841 752.783 116.884 752.652 116.923C752.525 116.96 752.378 116.993 752.213 117.021C752.049 117.047 751.888 117.071 751.732 117.094C751.576 117.114 751.445 117.131 751.34 117.145C751.093 117.176 750.867 117.229 750.662 117.303C750.461 117.376 750.299 117.483 750.176 117.622C750.057 117.759 749.998 117.94 749.998 118.168C749.998 118.483 750.114 118.722 750.347 118.884C750.58 119.043 750.877 119.122 751.238 119.122ZM755.99 120V111.273H757.264V114.516H757.341C757.415 114.379 757.521 114.222 757.661 114.043C757.8 113.864 757.993 113.707 758.24 113.574C758.487 113.438 758.814 113.369 759.22 113.369C759.749 113.369 760.22 113.503 760.635 113.77C761.05 114.037 761.375 114.422 761.611 114.925C761.849 115.428 761.969 116.033 761.969 116.74C761.969 117.447 761.851 118.054 761.615 118.56C761.379 119.062 761.055 119.45 760.643 119.723C760.232 119.993 759.761 120.128 759.233 120.128C758.835 120.128 758.51 120.061 758.257 119.928C758.007 119.794 757.811 119.638 757.669 119.459C757.527 119.28 757.418 119.121 757.341 118.982H757.234V120H755.99ZM757.239 116.727C757.239 117.187 757.305 117.591 757.439 117.938C757.572 118.284 757.766 118.555 758.018 118.751C758.271 118.945 758.581 119.041 758.947 119.041C759.328 119.041 759.646 118.94 759.902 118.739C760.158 118.534 760.351 118.257 760.482 117.908C760.615 117.558 760.682 117.165 760.682 116.727C760.682 116.295 760.616 115.908 760.486 115.564C760.358 115.22 760.165 114.949 759.906 114.75C759.651 114.551 759.331 114.452 758.947 114.452C758.578 114.452 758.266 114.547 758.01 114.737C757.757 114.928 757.565 115.193 757.435 115.534C757.304 115.875 757.239 116.273 757.239 116.727ZM766.221 120.132C765.576 120.132 765.02 119.994 764.554 119.719C764.091 119.44 763.733 119.05 763.48 118.547C763.23 118.041 763.105 117.449 763.105 116.77C763.105 116.099 763.23 115.509 763.48 114.997C763.733 114.486 764.086 114.087 764.537 113.8C764.992 113.513 765.523 113.369 766.131 113.369C766.5 113.369 766.858 113.43 767.205 113.553C767.551 113.675 767.863 113.866 768.138 114.128C768.414 114.389 768.631 114.729 768.79 115.146C768.949 115.561 769.029 116.065 769.029 116.659V117.111H763.826V116.156H767.78C767.78 115.821 767.712 115.524 767.576 115.266C767.439 115.004 767.248 114.798 767 114.648C766.756 114.497 766.469 114.422 766.14 114.422C765.782 114.422 765.469 114.51 765.202 114.686C764.938 114.859 764.733 115.087 764.588 115.368C764.446 115.646 764.375 115.949 764.375 116.276V117.021C764.375 117.459 764.452 117.831 764.605 118.138C764.762 118.445 764.979 118.679 765.257 118.841C765.536 119 765.861 119.08 766.233 119.08C766.475 119.08 766.695 119.045 766.894 118.977C767.093 118.906 767.265 118.801 767.409 118.662C767.554 118.523 767.665 118.351 767.742 118.146L768.948 118.364C768.851 118.719 768.678 119.03 768.428 119.297C768.181 119.561 767.87 119.767 767.495 119.915C767.123 120.06 766.698 120.132 766.221 120.132ZM771.717 111.273V120H770.442V111.273H771.717Z" fill="white" fill-opacity="0.95"/>
<g clip-path="url(#clip1_1034_25380)">
<line x1="415.921" y1="111.5" x2="430.921" y2="111.5" stroke="#C7A5FA"/>
<line x1="423.421" y1="124" x2="423.421" y2="112" stroke="#C7A5FA"/>
<line x1="415.921" y1="122.5" x2="430.921" y2="122.5" stroke="#C7A5FA"/>
</g>
<path d="M400.727 122H399.08V114.07L396.53 115.007V113.564L400.625 112.047H400.727V122ZM410.958 118.206C410.958 118.844 410.882 119.409 410.732 119.901C410.586 120.389 410.374 120.797 410.096 121.125C409.823 121.462 409.486 121.717 409.084 121.891C408.688 122.059 408.237 122.144 407.731 122.144C407.23 122.144 406.778 122.059 406.377 121.891C405.976 121.717 405.637 121.462 405.359 121.125C405.076 120.797 404.86 120.389 404.709 119.901C404.564 119.409 404.491 118.844 404.491 118.206V115.848C404.491 115.21 404.564 114.647 404.709 114.159C404.86 113.667 405.074 113.252 405.352 112.915C405.63 112.582 405.967 112.332 406.364 112.163C406.765 111.99 407.216 111.903 407.717 111.903C408.223 111.903 408.674 111.99 409.071 112.163C409.472 112.332 409.814 112.582 410.096 112.915C410.37 113.252 410.582 113.667 410.732 114.159C410.882 114.647 410.958 115.21 410.958 115.848V118.206ZM406.131 117.625L409.296 115.226C409.278 114.87 409.228 114.562 409.146 114.303C409.069 114.043 408.957 113.831 408.811 113.667C408.683 113.521 408.526 113.412 408.339 113.339C408.157 113.266 407.95 113.229 407.717 113.229C407.467 113.229 407.246 113.273 407.054 113.359C406.863 113.446 406.703 113.574 406.576 113.742C406.425 113.934 406.314 114.182 406.241 114.487C406.168 114.788 406.131 115.144 406.131 115.554V116.894C406.131 117.067 406.131 117.199 406.131 117.29C406.131 117.381 406.131 117.493 406.131 117.625ZM409.31 118.479V117.222C409.31 117.108 409.31 116.989 409.31 116.866C409.31 116.743 409.31 116.616 409.31 116.483L406.145 118.869C406.168 119.184 406.216 119.462 406.289 119.703C406.366 119.945 406.469 120.145 406.596 120.305C406.724 120.478 406.881 120.608 407.068 120.694C407.259 120.781 407.48 120.824 407.731 120.824C407.977 120.824 408.194 120.783 408.38 120.701C408.567 120.615 408.727 120.489 408.859 120.325C409.009 120.134 409.121 119.883 409.194 119.573C409.271 119.263 409.31 118.899 409.31 118.479Z" fill="#C7A5FA"/>
<g clip-path="url(#clip2_1034_25380)">
<line x1="439.421" y1="103" x2="439.421" y2="88" stroke="#C7A5FA"/>
<line x1="438.921" y1="95.5" x2="449.079" y2="95.5" stroke="#C7A5FA"/>
<line x1="448.579" y1="103" x2="448.579" y2="88" stroke="#C7A5FA"/>
</g>
<path d="M441.566 81H439.918V73.0703L437.368 74.0068V72.5645L441.463 71.0469H441.566V81ZM451.796 77.2061C451.796 77.8441 451.721 78.4092 451.57 78.9014C451.424 79.389 451.212 79.7969 450.934 80.125C450.661 80.4622 450.324 80.7174 449.923 80.8906C449.526 81.0592 449.075 81.1436 448.569 81.1436C448.068 81.1436 447.617 81.0592 447.216 80.8906C446.815 80.7174 446.475 80.4622 446.197 80.125C445.915 79.7969 445.698 79.389 445.548 78.9014C445.402 78.4092 445.329 77.8441 445.329 77.2061V74.8477C445.329 74.2096 445.402 73.6468 445.548 73.1592C445.698 72.667 445.912 72.2523 446.19 71.915C446.468 71.5824 446.805 71.3317 447.202 71.1631C447.603 70.9899 448.054 70.9033 448.555 70.9033C449.061 70.9033 449.513 70.9899 449.909 71.1631C450.31 71.3317 450.652 71.5824 450.934 71.915C451.208 72.2523 451.42 72.667 451.57 73.1592C451.721 73.6468 451.796 74.2096 451.796 74.8477V77.2061ZM446.97 76.625L450.135 74.2256C450.116 73.8701 450.066 73.5625 449.984 73.3027C449.907 73.043 449.795 72.8311 449.649 72.667C449.522 72.5212 449.364 72.4118 449.178 72.3389C448.995 72.266 448.788 72.2295 448.555 72.2295C448.305 72.2295 448.084 72.2728 447.892 72.3594C447.701 72.446 447.541 72.5736 447.414 72.7422C447.263 72.9336 447.152 73.182 447.079 73.4873C447.006 73.7881 446.97 74.1436 446.97 74.5537V75.8936C446.97 76.0667 446.97 76.1989 446.97 76.29C446.97 76.3812 446.97 76.4928 446.97 76.625ZM450.148 77.4795V76.2217C450.148 76.1077 450.148 75.9893 450.148 75.8662C450.148 75.7432 450.148 75.6156 450.148 75.4834L446.983 77.8691C447.006 78.1836 447.054 78.4616 447.127 78.7031C447.204 78.9447 447.307 79.1452 447.434 79.3047C447.562 79.4779 447.719 79.6077 447.906 79.6943C448.097 79.7809 448.319 79.8242 448.569 79.8242C448.815 79.8242 449.032 79.7832 449.219 79.7012C449.405 79.6146 449.565 79.4893 449.697 79.3252C449.847 79.1338 449.959 78.8831 450.032 78.5732C450.11 78.2633 450.148 77.8988 450.148 77.4795Z" fill="#C7A5FA"/>
<g clip-path="url(#clip3_1034_25380)">
<line x1="516.079" y1="109.5" x2="531.079" y2="109.5" stroke="#C7A5FA"/>
<line x1="523.579" y1="126" x2="523.579" y2="110" stroke="#C7A5FA"/>
<line x1="516.079" y1="124.5" x2="531.079" y2="124.5" stroke="#C7A5FA"/>
</g>
<path d="M500.885 122H499.237V114.07L496.687 115.007V113.564L500.782 112.047H500.885V122ZM509.611 111.999V113.387H509.501C508.959 113.387 508.487 113.462 508.086 113.612C507.69 113.758 507.355 113.963 507.082 114.228C506.804 114.492 506.587 114.809 506.432 115.178C506.282 115.547 506.188 115.943 506.152 116.367C506.261 116.244 506.389 116.126 506.535 116.012C506.681 115.893 506.842 115.788 507.02 115.697C507.189 115.611 507.375 115.542 507.581 115.492C507.786 115.438 508.002 115.41 508.23 115.41C508.713 115.41 509.132 115.501 509.488 115.684C509.848 115.866 510.144 116.112 510.376 116.422C510.613 116.732 510.787 117.087 510.896 117.488C511.01 117.889 511.067 118.306 511.067 118.739C511.067 119.213 510.994 119.658 510.848 120.072C510.707 120.482 510.5 120.84 510.226 121.146C509.948 121.455 509.609 121.699 509.208 121.877C508.811 122.05 508.358 122.137 507.847 122.137C507.323 122.137 506.856 122.036 506.446 121.836C506.036 121.635 505.689 121.364 505.407 121.022C505.106 120.667 504.878 120.25 504.723 119.771C504.568 119.288 504.491 118.78 504.491 118.247V117.57C504.491 116.768 504.593 116.005 504.798 115.28C505.008 114.551 505.354 113.924 505.837 113.4C506.248 112.949 506.753 112.603 507.355 112.361C507.957 112.12 508.645 111.999 509.419 111.999H509.611ZM507.827 116.736C507.631 116.736 507.444 116.766 507.266 116.825C507.088 116.884 506.924 116.966 506.774 117.071C506.637 117.176 506.514 117.297 506.405 117.434C506.295 117.57 506.204 117.723 506.131 117.892V118.397C506.131 118.794 506.175 119.143 506.261 119.443C506.352 119.744 506.475 119.995 506.63 120.195C506.785 120.396 506.965 120.549 507.17 120.653C507.375 120.758 507.594 120.811 507.827 120.811C508.082 120.811 508.31 120.76 508.51 120.66C508.711 120.555 508.882 120.414 509.023 120.236C509.164 120.054 509.271 119.84 509.344 119.594C509.417 119.343 509.454 119.072 509.454 118.78C509.454 118.502 509.417 118.24 509.344 117.994C509.276 117.743 509.173 117.525 509.037 117.338C508.9 117.151 508.729 117.005 508.524 116.9C508.323 116.791 508.091 116.736 507.827 116.736Z" fill="#C7A5FA"/>
<g clip-path="url(#clip4_1034_25380)">
<line x1="539.579" y1="101" x2="539.579" y2="86" stroke="#C7A5FA"/>
<line x1="539.079" y1="93.5" x2="555.079" y2="93.5" stroke="#C7A5FA"/>
<line x1="554.579" y1="101" x2="554.579" y2="86" stroke="#C7A5FA"/>
</g>
<path d="M544.723 79H543.075V71.0703L540.526 72.0068V70.5645L544.62 69.0469H544.723V79ZM553.449 68.999V70.3867H553.34C552.797 70.3867 552.326 70.4619 551.925 70.6123C551.528 70.7581 551.193 70.9632 550.92 71.2275C550.642 71.4919 550.425 71.8086 550.27 72.1777C550.12 72.5469 550.027 72.9434 549.99 73.3672C550.099 73.2441 550.227 73.1257 550.373 73.0117C550.519 72.8932 550.68 72.7884 550.858 72.6973C551.027 72.6107 551.214 72.5423 551.419 72.4922C551.624 72.4375 551.84 72.4102 552.068 72.4102C552.551 72.4102 552.971 72.5013 553.326 72.6836C553.686 72.8659 553.982 73.112 554.215 73.4219C554.452 73.7318 554.625 74.0872 554.734 74.4883C554.848 74.8893 554.905 75.3063 554.905 75.7393C554.905 76.2132 554.832 76.6576 554.686 77.0723C554.545 77.4824 554.338 77.8402 554.064 78.1455C553.786 78.4554 553.447 78.6992 553.046 78.877C552.649 79.0501 552.196 79.1367 551.685 79.1367C551.161 79.1367 550.694 79.0365 550.284 78.8359C549.874 78.6354 549.527 78.3643 549.245 78.0225C548.944 77.667 548.716 77.25 548.561 76.7715C548.406 76.2884 548.329 75.7803 548.329 75.2471V74.5703C548.329 73.7682 548.431 73.0049 548.637 72.2803C548.846 71.5511 549.193 70.9245 549.676 70.4004C550.086 69.9492 550.592 69.6029 551.193 69.3613C551.795 69.1198 552.483 68.999 553.258 68.999H553.449ZM551.665 73.7363C551.469 73.7363 551.282 73.766 551.104 73.8252C550.927 73.8844 550.763 73.9665 550.612 74.0713C550.475 74.1761 550.352 74.2969 550.243 74.4336C550.134 74.5703 550.042 74.723 549.97 74.8916V75.3975C549.97 75.7939 550.013 76.1426 550.099 76.4434C550.191 76.7441 550.314 76.9948 550.469 77.1953C550.624 77.3958 550.804 77.5485 551.009 77.6533C551.214 77.7581 551.432 77.8105 551.665 77.8105C551.92 77.8105 552.148 77.7604 552.348 77.6602C552.549 77.5553 552.72 77.4141 552.861 77.2363C553.002 77.054 553.11 76.8398 553.182 76.5938C553.255 76.3431 553.292 76.0719 553.292 75.7803C553.292 75.5023 553.255 75.2402 553.182 74.9941C553.114 74.7435 553.012 74.5247 552.875 74.3379C552.738 74.151 552.567 74.0052 552.362 73.9004C552.162 73.791 551.929 73.7363 551.665 73.7363Z" fill="#C7A5FA"/>
<g clip-path="url(#clip5_1034_25380)">
<line x1="622.079" y1="108.5" x2="637.079" y2="108.5" stroke="#C7A5FA"/>
<line x1="629.579" y1="127" x2="629.579" y2="109" stroke="#C7A5FA"/>
<line x1="622.079" y1="125.5" x2="637.079" y2="125.5" stroke="#C7A5FA"/>
</g>
<path d="M606.885 122H605.237V114.07L602.687 115.007V113.564L606.782 112.047H606.885V122ZM615.611 111.999V113.387H615.501C614.959 113.387 614.487 113.462 614.086 113.612C613.69 113.758 613.355 113.963 613.082 114.228C612.804 114.492 612.587 114.809 612.432 115.178C612.282 115.547 612.188 115.943 612.152 116.367C612.261 116.244 612.389 116.126 612.535 116.012C612.681 115.893 612.842 115.788 613.02 115.697C613.189 115.611 613.375 115.542 613.581 115.492C613.786 115.438 614.002 115.41 614.23 115.41C614.713 115.41 615.132 115.501 615.488 115.684C615.848 115.866 616.144 116.112 616.376 116.422C616.613 116.732 616.787 117.087 616.896 117.488C617.01 117.889 617.067 118.306 617.067 118.739C617.067 119.213 616.994 119.658 616.848 120.072C616.707 120.482 616.5 120.84 616.226 121.146C615.948 121.455 615.609 121.699 615.208 121.877C614.811 122.05 614.358 122.137 613.847 122.137C613.323 122.137 612.856 122.036 612.446 121.836C612.036 121.635 611.689 121.364 611.407 121.022C611.106 120.667 610.878 120.25 610.723 119.771C610.568 119.288 610.491 118.78 610.491 118.247V117.57C610.491 116.768 610.593 116.005 610.798 115.28C611.008 114.551 611.354 113.924 611.837 113.4C612.248 112.949 612.753 112.603 613.355 112.361C613.957 112.12 614.645 111.999 615.419 111.999H615.611ZM613.827 116.736C613.631 116.736 613.444 116.766 613.266 116.825C613.088 116.884 612.924 116.966 612.774 117.071C612.637 117.176 612.514 117.297 612.405 117.434C612.295 117.57 612.204 117.723 612.131 117.892V118.397C612.131 118.794 612.175 119.143 612.261 119.443C612.352 119.744 612.475 119.995 612.63 120.195C612.785 120.396 612.965 120.549 613.17 120.653C613.375 120.758 613.594 120.811 613.827 120.811C614.082 120.811 614.31 120.76 614.51 120.66C614.711 120.555 614.882 120.414 615.023 120.236C615.164 120.054 615.271 119.84 615.344 119.594C615.417 119.343 615.454 119.072 615.454 118.78C615.454 118.502 615.417 118.24 615.344 117.994C615.276 117.743 615.173 117.525 615.037 117.338C614.9 117.151 614.729 117.005 614.524 116.9C614.323 116.791 614.091 116.736 613.827 116.736Z" fill="#C7A5FA"/>
<g clip-path="url(#clip6_1034_25380)">
<line x1="645.579" y1="100" x2="645.579" y2="85" stroke="#C7A5FA"/>
<line x1="645.079" y1="92.5" x2="663.079" y2="92.5" stroke="#C7A5FA"/>
<line x1="662.579" y1="100" x2="662.579" y2="85" stroke="#C7A5FA"/>
</g>
<path d="M651.723 78H650.075V70.0703L647.526 71.0068V69.5645L651.62 68.0469H651.723V78ZM660.449 67.999V69.3867H660.34C659.797 69.3867 659.326 69.4619 658.925 69.6123C658.528 69.7581 658.193 69.9632 657.92 70.2275C657.642 70.4919 657.425 70.8086 657.27 71.1777C657.12 71.5469 657.027 71.9434 656.99 72.3672C657.099 72.2441 657.227 72.1257 657.373 72.0117C657.519 71.8932 657.68 71.7884 657.858 71.6973C658.027 71.6107 658.214 71.5423 658.419 71.4922C658.624 71.4375 658.84 71.4102 659.068 71.4102C659.551 71.4102 659.971 71.5013 660.326 71.6836C660.686 71.8659 660.982 72.112 661.215 72.4219C661.452 72.7318 661.625 73.0872 661.734 73.4883C661.848 73.8893 661.905 74.3063 661.905 74.7393C661.905 75.2132 661.832 75.6576 661.686 76.0723C661.545 76.4824 661.338 76.8402 661.064 77.1455C660.786 77.4554 660.447 77.6992 660.046 77.877C659.649 78.0501 659.196 78.1367 658.685 78.1367C658.161 78.1367 657.694 78.0365 657.284 77.8359C656.874 77.6354 656.527 77.3643 656.245 77.0225C655.944 76.667 655.716 76.25 655.561 75.7715C655.406 75.2884 655.329 74.7803 655.329 74.2471V73.5703C655.329 72.7682 655.431 72.0049 655.637 71.2803C655.846 70.5511 656.193 69.9245 656.676 69.4004C657.086 68.9492 657.592 68.6029 658.193 68.3613C658.795 68.1198 659.483 67.999 660.258 67.999H660.449ZM658.665 72.7363C658.469 72.7363 658.282 72.766 658.104 72.8252C657.927 72.8844 657.763 72.9665 657.612 73.0713C657.475 73.1761 657.352 73.2969 657.243 73.4336C657.134 73.5703 657.042 73.723 656.97 73.8916V74.3975C656.97 74.7939 657.013 75.1426 657.099 75.4434C657.191 75.7441 657.314 75.9948 657.469 76.1953C657.624 76.3958 657.804 76.5485 658.009 76.6533C658.214 76.7581 658.432 76.8105 658.665 76.8105C658.92 76.8105 659.148 76.7604 659.348 76.6602C659.549 76.5553 659.72 76.4141 659.861 76.2363C660.002 76.054 660.11 75.8398 660.182 75.5938C660.255 75.3431 660.292 75.0719 660.292 74.7803C660.292 74.5023 660.255 74.2402 660.182 73.9941C660.114 73.7435 660.012 73.5247 659.875 73.3379C659.738 73.151 659.567 73.0052 659.362 72.9004C659.162 72.791 658.929 72.7363 658.665 72.7363Z" fill="#C7A5FA"/>
<g clip-path="url(#clip7_1034_25380)">
<line x1="718.079" y1="109.5" x2="733.079" y2="109.5" stroke="#C7A5FA"/>
<line x1="725.579" y1="126" x2="725.579" y2="110" stroke="#C7A5FA"/>
<line x1="718.079" y1="124.5" x2="733.079" y2="124.5" stroke="#C7A5FA"/>
</g>
<path d="M702.885 122H701.237V114.07L698.687 115.007V113.564L702.782 112.047H702.885V122ZM711.611 111.999V113.387H711.501C710.959 113.387 710.487 113.462 710.086 113.612C709.69 113.758 709.355 113.963 709.082 114.228C708.804 114.492 708.587 114.809 708.432 115.178C708.282 115.547 708.188 115.943 708.152 116.367C708.261 116.244 708.389 116.126 708.535 116.012C708.681 115.893 708.842 115.788 709.02 115.697C709.189 115.611 709.375 115.542 709.581 115.492C709.786 115.438 710.002 115.41 710.23 115.41C710.713 115.41 711.132 115.501 711.488 115.684C711.848 115.866 712.144 116.112 712.376 116.422C712.613 116.732 712.787 117.087 712.896 117.488C713.01 117.889 713.067 118.306 713.067 118.739C713.067 119.213 712.994 119.658 712.848 120.072C712.707 120.482 712.5 120.84 712.226 121.146C711.948 121.455 711.609 121.699 711.208 121.877C710.811 122.05 710.358 122.137 709.847 122.137C709.323 122.137 708.856 122.036 708.446 121.836C708.036 121.635 707.689 121.364 707.407 121.022C707.106 120.667 706.878 120.25 706.723 119.771C706.568 119.288 706.491 118.78 706.491 118.247V117.57C706.491 116.768 706.593 116.005 706.798 115.28C707.008 114.551 707.354 113.924 707.837 113.4C708.248 112.949 708.753 112.603 709.355 112.361C709.957 112.12 710.645 111.999 711.419 111.999H711.611ZM709.827 116.736C709.631 116.736 709.444 116.766 709.266 116.825C709.088 116.884 708.924 116.966 708.774 117.071C708.637 117.176 708.514 117.297 708.405 117.434C708.295 117.57 708.204 117.723 708.131 117.892V118.397C708.131 118.794 708.175 119.143 708.261 119.443C708.352 119.744 708.475 119.995 708.63 120.195C708.785 120.396 708.965 120.549 709.17 120.653C709.375 120.758 709.594 120.811 709.827 120.811C710.082 120.811 710.31 120.76 710.51 120.66C710.711 120.555 710.882 120.414 711.023 120.236C711.164 120.054 711.271 119.84 711.344 119.594C711.417 119.343 711.454 119.072 711.454 118.78C711.454 118.502 711.417 118.24 711.344 117.994C711.276 117.743 711.173 117.525 711.037 117.338C710.9 117.151 710.729 117.005 710.524 116.9C710.323 116.791 710.091 116.736 709.827 116.736Z" fill="#C7A5FA"/>
<g clip-path="url(#clip8_1034_25380)">
<line x1="737.579" y1="101" x2="737.579" y2="86" stroke="#C7A5FA"/>
<line x1="737.079" y1="93.5" x2="777.079" y2="93.5" stroke="#C7A5FA"/>
<line x1="776.579" y1="101" x2="776.579" y2="86" stroke="#C7A5FA"/>
</g>
<path d="M718.985 79H717.378V74.5635H714.029V79H712.429V69.0469H714.029V73.21H717.378V69.0469H718.985V79ZM725.708 79L725.612 77.9678C725.362 78.3369 725.056 78.6263 724.696 78.8359C724.336 79.041 723.933 79.1436 723.486 79.1436C723.103 79.1436 722.753 79.0843 722.434 78.9658C722.119 78.8428 721.848 78.6536 721.62 78.3984C721.397 78.1432 721.224 77.8174 721.101 77.4209C720.977 77.0199 720.916 76.5413 720.916 75.9854V71.6035H722.55V75.999C722.55 76.3408 722.575 76.6279 722.625 76.8604C722.675 77.0882 722.755 77.2705 722.864 77.4072C722.974 77.5485 723.113 77.6488 723.281 77.708C723.45 77.7673 723.648 77.7969 723.876 77.7969C724.113 77.7969 724.325 77.7718 724.512 77.7217C724.699 77.667 724.863 77.5941 725.004 77.5029C725.122 77.4209 725.227 77.3252 725.318 77.2158C725.409 77.1019 725.487 76.9766 725.551 76.8398V71.6035H727.191V79H725.708ZM728.918 75.2471C728.918 74.6865 728.986 74.1761 729.123 73.7158C729.259 73.251 729.458 72.8522 729.717 72.5195C729.977 72.1868 730.289 71.9294 730.654 71.7471C731.023 71.5602 731.438 71.4668 731.898 71.4668C732.171 71.4668 732.42 71.4964 732.643 71.5557C732.866 71.6104 733.069 71.6924 733.252 71.8018C733.37 71.8701 733.482 71.9521 733.587 72.0479C733.691 72.139 733.789 72.2393 733.88 72.3486L733.949 71.6035H735.432V78.7949C735.432 79.2917 735.35 79.7314 735.186 80.1143C735.027 80.5016 734.801 80.8298 734.509 81.0986C734.213 81.363 733.858 81.5635 733.443 81.7002C733.033 81.8415 732.579 81.9121 732.083 81.9121C731.873 81.9121 731.643 81.8893 731.392 81.8438C731.142 81.7982 730.891 81.7275 730.64 81.6318C730.39 81.5361 730.15 81.4108 729.922 81.2559C729.695 81.1009 729.499 80.9141 729.335 80.6953L730.107 79.7041C730.239 79.8636 730.38 80.0003 730.531 80.1143C730.686 80.2327 730.843 80.3285 731.003 80.4014C731.162 80.4743 731.324 80.5267 731.488 80.5586C731.652 80.5951 731.818 80.6133 731.987 80.6133C732.279 80.6133 732.536 80.5723 732.759 80.4902C732.987 80.4082 733.181 80.2897 733.34 80.1348C733.486 79.9844 733.598 79.7998 733.675 79.5811C733.757 79.3623 733.798 79.1139 733.798 78.8359V78.3232C733.703 78.4235 733.602 78.5169 733.498 78.6035C733.397 78.6901 733.288 78.7653 733.17 78.8291C732.992 78.9294 732.796 79.0046 732.582 79.0547C732.367 79.1094 732.135 79.1367 731.884 79.1367C731.429 79.1367 731.018 79.0433 730.654 78.8564C730.289 78.665 729.977 78.4007 729.717 78.0635C729.462 77.7308 729.264 77.3366 729.123 76.8809C728.986 76.4206 728.918 75.9238 728.918 75.3906V75.2471ZM730.558 75.3906C730.558 75.7188 730.59 76.0286 730.654 76.3203C730.722 76.612 730.829 76.8649 730.975 77.0791C731.116 77.3024 731.296 77.4779 731.515 77.6055C731.734 77.7285 731.994 77.79 732.295 77.79C732.481 77.79 732.65 77.7695 732.8 77.7285C732.955 77.6875 733.094 77.6305 733.217 77.5576C733.34 77.4801 733.45 77.3867 733.545 77.2773C733.641 77.168 733.726 77.0472 733.798 76.915V73.6748C733.726 73.5381 733.637 73.415 733.532 73.3057C733.432 73.1963 733.315 73.1029 733.183 73.0254C733.065 72.9616 732.933 72.9115 732.787 72.875C732.641 72.834 732.481 72.8135 732.308 72.8135C732.003 72.8135 731.741 72.8773 731.522 73.0049C731.303 73.1325 731.123 73.3079 730.982 73.5312C730.836 73.7546 730.729 74.0143 730.661 74.3105C730.592 74.6022 730.558 74.9144 730.558 75.2471V75.3906ZM748.886 77.8242C749.091 77.8242 749.287 77.7946 749.473 77.7354C749.665 77.6715 749.834 77.5827 749.979 77.4688C750.121 77.3548 750.232 77.2204 750.314 77.0654C750.401 76.9105 750.444 76.7396 750.444 76.5527H751.982C751.987 76.9128 751.905 77.2523 751.736 77.5713C751.572 77.8857 751.349 78.1569 751.066 78.3848C750.779 78.6217 750.449 78.8086 750.075 78.9453C749.706 79.0775 749.316 79.1436 748.906 79.1436C748.336 79.1436 747.837 79.0456 747.409 78.8496C746.985 78.6491 746.632 78.3802 746.349 78.043C746.062 77.7057 745.846 77.3138 745.7 76.8672C745.554 76.416 745.481 75.9352 745.481 75.4248V75.1855C745.481 74.6797 745.552 74.2012 745.693 73.75C745.839 73.2988 746.056 72.9046 746.343 72.5674C746.63 72.2301 746.985 71.9635 747.409 71.7676C747.837 71.5671 748.334 71.4668 748.899 71.4668C749.346 71.4668 749.758 71.5352 750.137 71.6719C750.519 71.8086 750.848 72 751.121 72.2461C751.394 72.4922 751.606 72.7861 751.757 73.1279C751.912 73.4697 751.987 73.8457 751.982 74.2559H750.444C750.444 74.0553 750.405 73.8662 750.328 73.6885C750.255 73.5107 750.15 73.3558 750.014 73.2236C749.872 73.0915 749.704 72.9867 749.508 72.9092C749.316 72.8317 749.109 72.793 748.886 72.793C748.544 72.793 748.259 72.8636 748.031 73.0049C747.808 73.1416 747.63 73.3216 747.498 73.5449C747.357 73.7682 747.256 74.0234 747.197 74.3105C747.142 74.5977 747.115 74.8893 747.115 75.1855V75.4248C747.115 75.7256 747.142 76.0218 747.197 76.3135C747.256 76.6006 747.354 76.8535 747.491 77.0723C747.623 77.3001 747.803 77.4824 748.031 77.6191C748.259 77.7559 748.544 77.8242 748.886 77.8242ZM753.633 75.2334C753.633 74.6956 753.711 74.1989 753.866 73.7432C754.021 73.2829 754.246 72.8841 754.542 72.5469C754.834 72.2096 755.192 71.9453 755.616 71.7539C756.04 71.5625 756.523 71.4668 757.065 71.4668C757.607 71.4668 758.09 71.5625 758.514 71.7539C758.943 71.9453 759.305 72.2096 759.601 72.5469C759.893 72.8841 760.116 73.2829 760.271 73.7432C760.426 74.1989 760.503 74.6956 760.503 75.2334V75.377C760.503 75.9193 760.426 76.4183 760.271 76.874C760.116 77.3298 759.893 77.7262 759.601 78.0635C759.309 78.4007 758.949 78.665 758.521 78.8564C758.097 79.0479 757.616 79.1436 757.079 79.1436C756.536 79.1436 756.051 79.0479 755.623 78.8564C755.194 78.665 754.834 78.4007 754.542 78.0635C754.246 77.7262 754.021 77.3298 753.866 76.874C753.711 76.4183 753.633 75.9193 753.633 75.377V75.2334ZM755.267 75.377C755.267 75.7096 755.301 76.0241 755.37 76.3203C755.443 76.6165 755.554 76.8763 755.705 77.0996C755.85 77.3229 756.037 77.5007 756.265 77.6328C756.493 77.7604 756.764 77.8242 757.079 77.8242C757.384 77.8242 757.651 77.7604 757.878 77.6328C758.106 77.5007 758.293 77.3229 758.439 77.0996C758.585 76.8763 758.692 76.6165 758.76 76.3203C758.833 76.0241 758.87 75.7096 758.87 75.377V75.2334C758.87 74.9098 758.833 74.5999 758.76 74.3037C758.687 74.0075 758.58 73.7477 758.439 73.5244C758.289 73.3011 758.099 73.1234 757.872 72.9912C757.648 72.859 757.379 72.793 757.065 72.793C756.755 72.793 756.486 72.859 756.258 72.9912C756.035 73.1234 755.85 73.3011 755.705 73.5244C755.554 73.7477 755.443 74.0075 755.37 74.3037C755.301 74.5999 755.267 74.9098 755.267 75.2334V75.377ZM762.202 79V71.6035H763.679L763.781 72.6562C763.882 72.515 763.991 72.3851 764.11 72.2666C764.233 72.1436 764.362 72.0342 764.499 71.9385C764.718 71.7881 764.957 71.6719 765.217 71.5898C765.477 71.5078 765.75 71.4668 766.037 71.4668C766.416 71.4668 766.762 71.5215 767.076 71.6309C767.391 71.7402 767.66 71.9134 767.883 72.1504C768.106 72.3874 768.279 72.6904 768.402 73.0596C768.526 73.4242 768.587 73.8662 768.587 74.3857V79H766.953V74.4131C766.953 74.1077 766.919 73.8525 766.851 73.6475C766.782 73.4424 766.682 73.2783 766.55 73.1553C766.418 73.0322 766.258 72.9456 766.071 72.8955C765.885 72.8408 765.67 72.8135 765.429 72.8135C765.228 72.8135 765.041 72.8408 764.868 72.8955C764.695 72.9456 764.538 73.0186 764.397 73.1143C764.287 73.1872 764.185 73.276 764.089 73.3809C763.993 73.4857 763.909 73.5996 763.836 73.7227V79H762.202ZM773.752 69.7988V71.6035H776.534V72.8271H773.752V76.3613C773.752 76.6348 773.784 76.8649 773.847 77.0518C773.916 77.234 774.009 77.3776 774.128 77.4824C774.246 77.5918 774.387 77.6693 774.552 77.7148C774.716 77.7604 774.896 77.7832 775.092 77.7832C775.233 77.7832 775.379 77.7764 775.529 77.7627C775.679 77.749 775.825 77.7308 775.967 77.708C776.103 77.6898 776.231 77.6693 776.349 77.6465C776.472 77.6191 776.575 77.5964 776.657 77.5781L776.835 78.7061C776.716 78.779 776.573 78.8428 776.404 78.8975C776.24 78.9476 776.062 78.9909 775.871 79.0273C775.679 79.0638 775.479 79.0911 775.269 79.1094C775.064 79.1322 774.859 79.1436 774.654 79.1436C774.28 79.1436 773.936 79.0934 773.622 78.9932C773.312 78.8883 773.045 78.7266 772.822 78.5078C772.599 78.2936 772.423 78.0179 772.296 77.6807C772.173 77.3434 772.111 76.9378 772.111 76.4639V72.8271H770.32V71.6035H772.111V69.7988H773.752ZM782.191 79.1367C781.644 79.1367 781.143 79.0456 780.687 78.8633C780.236 78.681 779.848 78.4281 779.525 78.1045C779.201 77.7855 778.951 77.4095 778.773 76.9766C778.6 76.5391 778.513 76.0674 778.513 75.5615V75.2812C778.513 74.7025 778.604 74.1784 778.787 73.709C778.969 73.2396 779.219 72.8385 779.538 72.5059C779.858 72.1732 780.227 71.918 780.646 71.7402C781.07 71.5579 781.521 71.4668 781.999 71.4668C782.533 71.4668 783.004 71.5579 783.414 71.7402C783.825 71.918 784.169 72.1663 784.447 72.4854C784.725 72.8089 784.934 73.194 785.076 73.6406C785.217 74.0872 785.288 74.5749 785.288 75.1035V75.8076H780.161V75.8418C780.211 76.1654 780.288 76.4365 780.393 76.6553C780.498 76.874 780.641 77.07 780.824 77.2432C781.006 77.4255 781.22 77.5667 781.466 77.667C781.717 77.7673 781.99 77.8174 782.287 77.8174C782.692 77.8174 783.07 77.7399 783.421 77.585C783.772 77.4255 784.062 77.1999 784.289 76.9082L785.164 77.7559C784.918 78.1113 784.54 78.4303 784.03 78.7129C783.524 78.9954 782.911 79.1367 782.191 79.1367ZM781.993 72.793C781.76 72.793 781.544 72.8363 781.343 72.9229C781.147 73.0049 780.972 73.1234 780.817 73.2783C780.662 73.4378 780.532 73.6292 780.427 73.8525C780.322 74.0758 780.245 74.3288 780.195 74.6113H783.674V74.502C783.674 74.2878 783.636 74.0758 783.558 73.8662C783.481 73.652 783.371 73.4652 783.23 73.3057C783.093 73.1507 782.92 73.0277 782.71 72.9365C782.505 72.8408 782.266 72.793 781.993 72.793ZM787.007 79V71.6035H788.483L788.586 72.6562C788.686 72.515 788.796 72.3851 788.914 72.2666C789.037 72.1436 789.167 72.0342 789.304 71.9385C789.523 71.7881 789.762 71.6719 790.022 71.5898C790.281 71.5078 790.555 71.4668 790.842 71.4668C791.22 71.4668 791.566 71.5215 791.881 71.6309C792.195 71.7402 792.464 71.9134 792.688 72.1504C792.911 72.3874 793.084 72.6904 793.207 73.0596C793.33 73.4242 793.392 73.8662 793.392 74.3857V79H791.758V74.4131C791.758 74.1077 791.724 73.8525 791.655 73.6475C791.587 73.4424 791.487 73.2783 791.355 73.1553C791.222 73.0322 791.063 72.9456 790.876 72.8955C790.689 72.8408 790.475 72.8135 790.233 72.8135C790.033 72.8135 789.846 72.8408 789.673 72.8955C789.5 72.9456 789.343 73.0186 789.201 73.1143C789.092 73.1872 788.989 73.276 788.894 73.3809C788.798 73.4857 788.714 73.5996 788.641 73.7227V79H787.007ZM798.556 69.7988V71.6035H801.339V72.8271H798.556V76.3613C798.556 76.6348 798.588 76.8649 798.652 77.0518C798.72 77.234 798.814 77.3776 798.932 77.4824C799.051 77.5918 799.192 77.6693 799.356 77.7148C799.52 77.7604 799.7 77.7832 799.896 77.7832C800.037 77.7832 800.183 77.7764 800.334 77.7627C800.484 77.749 800.63 77.7308 800.771 77.708C800.908 77.6898 801.036 77.6693 801.154 77.6465C801.277 77.6191 801.38 77.5964 801.462 77.5781L801.639 78.7061C801.521 78.779 801.377 78.8428 801.209 78.8975C801.045 78.9476 800.867 78.9909 800.675 79.0273C800.484 79.0638 800.284 79.0911 800.074 79.1094C799.869 79.1322 799.664 79.1436 799.459 79.1436C799.085 79.1436 798.741 79.0934 798.426 78.9932C798.117 78.8883 797.85 78.7266 797.627 78.5078C797.403 78.2936 797.228 78.0179 797.1 77.6807C796.977 77.3434 796.916 76.9378 796.916 76.4639V72.8271H795.125V71.6035H796.916V69.7988H798.556Z" fill="#C7A5FA"/>
<g clip-path="url(#clip9_1034_25380)">
<rect x="737" y="108" width="4" height="16" fill="#30C9B0" fill-opacity="0.5"/>
</g>
<g clip-path="url(#clip10_1034_25380)">
<rect x="773" y="108" width="4" height="16" fill="#30C9B0" fill-opacity="0.5"/>
</g>
<g clip-path="url(#clip11_1034_25380)">
<line x1="737.5" y1="147" x2="737.5" y2="132" stroke="#30C9B0"/>
<line x1="737" y1="139.5" x2="741" y2="139.5" stroke="#30C9B0"/>
<line x1="740.5" y1="147" x2="740.5" y2="132" stroke="#30C9B0"/>
</g>
<path d="M733.46 160.452H734.711V161.778H733.46V164H731.827V161.778H727.52L727.479 160.773L731.779 154.047H733.46V160.452ZM729.147 160.452H731.827V156.234L731.635 156.59L729.147 160.452ZM736.369 166.844V156.604H737.873L737.935 157.362C738.035 157.239 738.144 157.128 738.263 157.027C738.381 156.927 738.509 156.84 738.646 156.768C738.823 156.672 739.019 156.599 739.233 156.549C739.448 156.494 739.675 156.467 739.917 156.467C740.391 156.467 740.808 156.558 741.168 156.74C741.533 156.923 741.838 157.18 742.084 157.513C742.326 157.845 742.51 158.244 742.638 158.709C742.765 159.169 742.829 159.677 742.829 160.233V160.377C742.829 160.91 742.765 161.407 742.638 161.867C742.515 162.327 742.33 162.724 742.084 163.057C741.838 163.394 741.535 163.658 741.175 163.85C740.815 164.041 740.402 164.137 739.938 164.137C739.673 164.137 739.429 164.109 739.206 164.055C738.987 164 738.785 163.92 738.598 163.815C738.488 163.752 738.383 163.679 738.283 163.597C738.183 163.515 738.09 163.426 738.003 163.33V166.844H736.369ZM741.195 160.233C741.195 159.901 741.161 159.589 741.093 159.297C741.029 159.001 740.929 158.743 740.792 158.524C740.651 158.306 740.471 158.132 740.252 158.005C740.033 157.877 739.771 157.813 739.466 157.813C739.297 157.813 739.14 157.832 738.994 157.868C738.848 157.905 738.718 157.957 738.604 158.025C738.472 158.098 738.356 158.189 738.256 158.299C738.16 158.408 738.076 158.531 738.003 158.668V161.956C738.067 162.084 738.144 162.2 738.235 162.305C738.326 162.41 738.431 162.501 738.55 162.578C738.673 162.651 738.812 162.71 738.967 162.756C739.122 162.797 739.293 162.817 739.479 162.817C739.785 162.817 740.045 162.754 740.259 162.626C740.478 162.494 740.655 162.316 740.792 162.093C740.933 161.865 741.036 161.605 741.1 161.313C741.163 161.017 741.195 160.705 741.195 160.377V160.233ZM747.871 159.092L749.641 156.604H751.453L748.855 160.247L751.535 164H749.73L747.884 161.416L746.046 164H744.234L746.914 160.247L744.323 156.604H746.121L747.871 159.092Z" fill="#30C9B0"/>
<g clip-path="url(#clip12_1034_25380)">
<line x1="773.5" y1="147" x2="773.5" y2="132" stroke="#30C9B0"/>
<line x1="773" y1="139.5" x2="777" y2="139.5" stroke="#30C9B0"/>
<line x1="776.5" y1="147" x2="776.5" y2="132" stroke="#30C9B0"/>
</g>
<path d="M769.46 160.452H770.711V161.778H769.46V164H767.827V161.778H763.52L763.479 160.773L767.779 154.047H769.46V160.452ZM765.147 160.452H767.827V156.234L767.635 156.59L765.147 160.452ZM772.369 166.844V156.604H773.873L773.935 157.362C774.035 157.239 774.144 157.128 774.263 157.027C774.381 156.927 774.509 156.84 774.646 156.768C774.823 156.672 775.019 156.599 775.233 156.549C775.448 156.494 775.675 156.467 775.917 156.467C776.391 156.467 776.808 156.558 777.168 156.74C777.533 156.923 777.838 157.18 778.084 157.513C778.326 157.845 778.51 158.244 778.638 158.709C778.765 159.169 778.829 159.677 778.829 160.233V160.377C778.829 160.91 778.765 161.407 778.638 161.867C778.515 162.327 778.33 162.724 778.084 163.057C777.838 163.394 777.535 163.658 777.175 163.85C776.815 164.041 776.402 164.137 775.938 164.137C775.673 164.137 775.429 164.109 775.206 164.055C774.987 164 774.785 163.92 774.598 163.815C774.488 163.752 774.383 163.679 774.283 163.597C774.183 163.515 774.09 163.426 774.003 163.33V166.844H772.369ZM777.195 160.233C777.195 159.901 777.161 159.589 777.093 159.297C777.029 159.001 776.929 158.743 776.792 158.524C776.651 158.306 776.471 158.132 776.252 158.005C776.033 157.877 775.771 157.813 775.466 157.813C775.297 157.813 775.14 157.832 774.994 157.868C774.848 157.905 774.718 157.957 774.604 158.025C774.472 158.098 774.356 158.189 774.256 158.299C774.16 158.408 774.076 158.531 774.003 158.668V161.956C774.067 162.084 774.144 162.2 774.235 162.305C774.326 162.41 774.431 162.501 774.55 162.578C774.673 162.651 774.812 162.71 774.967 162.756C775.122 162.797 775.293 162.817 775.479 162.817C775.785 162.817 776.045 162.754 776.259 162.626C776.478 162.494 776.655 162.316 776.792 162.093C776.933 161.865 777.036 161.605 777.1 161.313C777.163 161.017 777.195 160.705 777.195 160.377V160.233ZM783.871 159.092L785.641 156.604H787.453L784.855 160.247L787.535 164H785.73L783.884 161.416L782.046 164H780.234L782.914 160.247L780.323 156.604H782.121L783.871 159.092Z" fill="#30C9B0"/>
<defs>
<clipPath id="clip0_1034_25380">
<rect width="12" height="12" fill="white" transform="translate(647 110)"/>
</clipPath>
<clipPath id="clip1_1034_25380">
<rect width="15" height="12" fill="white" transform="translate(415.921 111)"/>
</clipPath>
<clipPath id="clip2_1034_25380">
<rect width="10.1573" height="15" fill="white" transform="translate(438.921 88)"/>
</clipPath>
<clipPath id="clip3_1034_25380">
<rect width="15" height="16" fill="white" transform="translate(516.079 109)"/>
</clipPath>
<clipPath id="clip4_1034_25380">
<rect width="16" height="15" fill="white" transform="translate(539.079 86)"/>
</clipPath>
<clipPath id="clip5_1034_25380">
<rect width="15" height="18" fill="white" transform="translate(622.079 108)"/>
</clipPath>
<clipPath id="clip6_1034_25380">
<rect width="18" height="15" fill="white" transform="translate(645.079 85)"/>
</clipPath>
<clipPath id="clip7_1034_25380">
<rect width="15" height="16" fill="white" transform="translate(718.079 109)"/>
</clipPath>
<clipPath id="clip8_1034_25380">
<rect width="40" height="15" fill="white" transform="translate(737.079 86)"/>
</clipPath>
<clipPath id="clip9_1034_25380">
<rect width="4" height="16" fill="white" transform="translate(737 108)"/>
</clipPath>
<clipPath id="clip10_1034_25380">
<rect width="4" height="16" fill="white" transform="translate(773 108)"/>
</clipPath>
<clipPath id="clip11_1034_25380">
<rect width="4" height="15" fill="white" transform="translate(737 132)"/>
</clipPath>
<clipPath id="clip12_1034_25380">
<rect width="4" height="15" fill="white" transform="translate(773 132)"/>
</clipPath>
</defs>
</svg>
