<svg width="559" height="289" viewBox="0 0 559 289" fill="none" xmlns="http://www.w3.org/2000/svg">
<rect width="559" height="289" rx="16" fill="#1A1A1A"/>
<path d="M519 25.9996C516.232 25.9996 513.525 26.8207 511.223 28.3591C508.92 29.8974 507.126 32.0839 506.066 34.6421C505.007 37.2002 504.729 40.0152 505.27 42.7309C505.81 45.4466 507.143 47.9412 509.101 49.8991C511.059 51.8571 513.553 53.1904 516.269 53.7306C518.985 54.2708 521.8 53.9936 524.358 52.9339C526.916 51.8743 529.103 50.0799 530.641 47.7776C532.179 45.4753 533 42.7686 533 39.9996C532.996 36.2879 531.52 32.7293 528.895 30.1047C526.271 27.4801 522.712 26.0038 519 25.9996ZM528.155 47.7404L511.26 30.8449C513.555 28.8984 516.498 27.8864 519.505 28.0097C522.511 28.133 525.362 29.3827 527.49 31.5106C529.617 33.6384 530.867 36.4888 530.99 39.4955C531.114 42.5022 530.102 45.4454 528.155 47.7404ZM509.846 32.2589L526.741 49.1544C524.446 51.1008 521.503 52.1129 518.496 51.9895C515.49 51.8662 512.639 50.6165 510.512 48.4886C508.384 46.3608 507.134 43.5105 507.011 40.5038C506.887 37.4971 507.899 34.5539 509.846 32.2589Z" fill="#FC8B98"/>
<rect x="257" y="80" width="45" height="16" rx="8" fill="#1170CF"/>
<path d="M263.988 83.1321C264.377 83.1349 264.76 83.206 265.138 83.3452C265.516 83.4844 265.857 83.7131 266.161 84.0312C266.468 84.3466 266.712 84.7727 266.894 85.3097C267.078 85.8466 267.172 86.517 267.175 87.321C267.172 88.0852 267.094 88.7656 266.941 89.3622C266.79 89.956 266.571 90.4574 266.284 90.8665C265.998 91.2756 265.651 91.5866 265.245 91.7997C264.841 92.0128 264.385 92.1193 263.877 92.1193C263.357 92.1193 262.895 92.017 262.492 91.8125C262.088 91.608 261.76 91.3253 261.507 90.9645C261.255 90.6009 261.097 90.1832 261.034 89.7116H262.334C262.419 90.0866 262.593 90.3906 262.854 90.6236C263.118 90.8537 263.459 90.9688 263.877 90.9688C264.516 90.9688 265.015 90.6903 265.373 90.1335C265.73 89.5739 265.911 88.7926 265.914 87.7898H265.846C265.698 88.0341 265.513 88.2443 265.292 88.4205C265.073 88.5966 264.827 88.733 264.554 88.8295C264.282 88.9261 263.99 88.9744 263.681 88.9744C263.178 88.9744 262.719 88.8509 262.304 88.6037C261.892 88.3565 261.564 88.017 261.32 87.5852C261.078 87.1534 260.958 86.6591 260.958 86.1023C260.958 85.5455 261.083 85.0426 261.333 84.5938C261.586 84.142 261.938 83.7855 262.39 83.5241C262.844 83.2599 263.377 83.1293 263.988 83.1321ZM263.992 84.2401C263.659 84.2401 263.36 84.3224 263.093 84.4872C262.828 84.652 262.62 84.8736 262.466 85.152C262.313 85.4304 262.236 85.7415 262.236 86.0852C262.236 86.4233 262.31 86.7301 262.458 87.0057C262.608 87.2812 262.813 87.5 263.071 87.6619C263.333 87.821 263.631 87.9006 263.966 87.9006C264.216 87.9006 264.449 87.8523 264.665 87.7557C264.881 87.6591 265.069 87.5256 265.228 87.3551C265.39 87.1818 265.516 86.9858 265.607 86.767C265.701 86.5455 265.748 86.3139 265.748 86.0724C265.748 85.7457 265.671 85.4432 265.517 85.1648C265.367 84.8864 265.159 84.6634 264.895 84.4957C264.631 84.3253 264.33 84.2401 263.992 84.2401ZM271.616 83.1321C272.006 83.1349 272.389 83.206 272.767 83.3452C273.145 83.4844 273.486 83.7131 273.79 84.0312C274.097 84.3466 274.341 84.7727 274.523 85.3097C274.707 85.8466 274.801 86.517 274.804 87.321C274.801 88.0852 274.723 88.7656 274.57 89.3622C274.419 89.956 274.2 90.4574 273.913 90.8665C273.626 91.2756 273.28 91.5866 272.874 91.7997C272.47 92.0128 272.014 92.1193 271.506 92.1193C270.986 92.1193 270.524 92.017 270.121 91.8125C269.717 91.608 269.389 91.3253 269.136 90.9645C268.884 90.6009 268.726 90.1832 268.663 89.7116H269.963C270.048 90.0866 270.222 90.3906 270.483 90.6236C270.747 90.8537 271.088 90.9688 271.506 90.9688C272.145 90.9688 272.643 90.6903 273.001 90.1335C273.359 89.5739 273.54 88.7926 273.543 87.7898H273.474C273.327 88.0341 273.142 88.2443 272.92 88.4205C272.702 88.5966 272.456 88.733 272.183 88.8295C271.911 88.9261 271.619 88.9744 271.31 88.9744C270.807 88.9744 270.348 88.8509 269.933 88.6037C269.521 88.3565 269.193 88.017 268.949 87.5852C268.707 87.1534 268.587 86.6591 268.587 86.1023C268.587 85.5455 268.712 85.0426 268.962 84.5938C269.214 84.142 269.567 83.7855 270.018 83.5241C270.473 83.2599 271.006 83.1293 271.616 83.1321ZM271.621 84.2401C271.288 84.2401 270.989 84.3224 270.722 84.4872C270.457 84.652 270.249 84.8736 270.095 85.152C269.942 85.4304 269.865 85.7415 269.865 86.0852C269.865 86.4233 269.939 86.7301 270.087 87.0057C270.237 87.2812 270.442 87.5 270.7 87.6619C270.962 87.821 271.26 87.9006 271.595 87.9006C271.845 87.9006 272.078 87.8523 272.294 87.7557C272.51 87.6591 272.697 87.5256 272.857 87.3551C273.018 87.1818 273.145 86.9858 273.236 86.767C273.33 86.5455 273.376 86.3139 273.376 86.0724C273.376 85.7457 273.3 85.4432 273.146 85.1648C272.996 84.8864 272.788 84.6634 272.524 84.4957C272.26 84.3253 271.959 84.2401 271.621 84.2401ZM279.245 83.1321C279.635 83.1349 280.018 83.206 280.396 83.3452C280.774 83.4844 281.115 83.7131 281.419 84.0312C281.725 84.3466 281.97 84.7727 282.152 85.3097C282.336 85.8466 282.43 86.517 282.433 87.321C282.43 88.0852 282.352 88.7656 282.199 89.3622C282.048 89.956 281.829 90.4574 281.542 90.8665C281.255 91.2756 280.909 91.5866 280.502 91.7997C280.099 92.0128 279.643 92.1193 279.135 92.1193C278.615 92.1193 278.153 92.017 277.75 91.8125C277.346 91.608 277.018 91.3253 276.765 90.9645C276.512 90.6009 276.355 90.1832 276.292 89.7116H277.592C277.677 90.0866 277.85 90.3906 278.112 90.6236C278.376 90.8537 278.717 90.9688 279.135 90.9688C279.774 90.9688 280.272 90.6903 280.63 90.1335C280.988 89.5739 281.169 88.7926 281.172 87.7898H281.103C280.956 88.0341 280.771 88.2443 280.549 88.4205C280.331 88.5966 280.085 88.733 279.812 88.8295C279.539 88.9261 279.248 88.9744 278.939 88.9744C278.436 88.9744 277.977 88.8509 277.562 88.6037C277.15 88.3565 276.822 88.017 276.578 87.5852C276.336 87.1534 276.216 86.6591 276.216 86.1023C276.216 85.5455 276.341 85.0426 276.591 84.5938C276.843 84.142 277.196 83.7855 277.647 83.5241C278.102 83.2599 278.635 83.1293 279.245 83.1321ZM279.25 84.2401C278.917 84.2401 278.618 84.3224 278.35 84.4872C278.086 84.652 277.877 84.8736 277.724 85.152C277.571 85.4304 277.494 85.7415 277.494 86.0852C277.494 86.4233 277.568 86.7301 277.716 87.0057C277.866 87.2812 278.071 87.5 278.329 87.6619C278.591 87.821 278.889 87.9006 279.224 87.9006C279.474 87.9006 279.707 87.8523 279.923 87.7557C280.139 87.6591 280.326 87.5256 280.485 87.3551C280.647 87.1818 280.774 86.9858 280.865 86.767C280.958 86.5455 281.005 86.3139 281.005 86.0724C281.005 85.7457 280.929 85.4432 280.775 85.1648C280.625 84.8864 280.417 84.6634 280.153 84.4957C279.889 84.3253 279.588 84.2401 279.25 84.2401ZM286.874 83.1321C287.263 83.1349 287.647 83.206 288.025 83.3452C288.403 83.4844 288.744 83.7131 289.048 84.0312C289.354 84.3466 289.599 84.7727 289.781 85.3097C289.965 85.8466 290.059 86.517 290.062 87.321C290.059 88.0852 289.981 88.7656 289.827 89.3622C289.677 89.956 289.458 90.4574 289.171 90.8665C288.884 91.2756 288.538 91.5866 288.131 91.7997C287.728 92.0128 287.272 92.1193 286.763 92.1193C286.244 92.1193 285.782 92.017 285.379 91.8125C284.975 91.608 284.647 91.3253 284.394 90.9645C284.141 90.6009 283.984 90.1832 283.921 89.7116H285.221C285.306 90.0866 285.479 90.3906 285.741 90.6236C286.005 90.8537 286.346 90.9688 286.763 90.9688C287.403 90.9688 287.901 90.6903 288.259 90.1335C288.617 89.5739 288.798 88.7926 288.8 87.7898H288.732C288.585 88.0341 288.4 88.2443 288.178 88.4205C287.96 88.5966 287.714 88.733 287.441 88.8295C287.168 88.9261 286.877 88.9744 286.567 88.9744C286.065 88.9744 285.606 88.8509 285.191 88.6037C284.779 88.3565 284.451 88.017 284.207 87.5852C283.965 87.1534 283.844 86.6591 283.844 86.1023C283.844 85.5455 283.969 85.0426 284.219 84.5938C284.472 84.142 284.825 83.7855 285.276 83.5241C285.731 83.2599 286.263 83.1293 286.874 83.1321ZM286.879 84.2401C286.546 84.2401 286.246 84.3224 285.979 84.4872C285.715 84.652 285.506 84.8736 285.353 85.152C285.2 85.4304 285.123 85.7415 285.123 86.0852C285.123 86.4233 285.197 86.7301 285.344 87.0057C285.495 87.2812 285.7 87.5 285.958 87.6619C286.219 87.821 286.518 87.9006 286.853 87.9006C287.103 87.9006 287.336 87.8523 287.552 87.7557C287.768 87.6591 287.955 87.5256 288.114 87.3551C288.276 87.1818 288.403 86.9858 288.494 86.767C288.587 86.5455 288.634 86.3139 288.634 86.0724C288.634 85.7457 288.558 85.4432 288.404 85.1648C288.254 84.8864 288.046 84.6634 287.782 84.4957C287.518 84.3253 287.217 84.2401 286.879 84.2401ZM294.184 90.5341V84.7727H295.33V90.5341H294.184ZM291.878 88.2244V87.0781H297.64V88.2244H291.878Z" fill="white" fill-opacity="0.95"/>
<path d="M0 266H559C559 278.703 548.703 289 536 289H23C10.2975 289 0 278.703 0 266Z" fill="url(#paint0_linear_1034_24437)"/>
<defs>
<linearGradient id="paint0_linear_1034_24437" x1="279.5" y1="266" x2="279.5" y2="289" gradientUnits="userSpaceOnUse">
<stop stop-color="#F0677E"/>
<stop offset="1" stop-color="#DB1F2E"/>
</linearGradient>
</defs>
</svg>
