<svg width="559" height="208" viewBox="0 0 559 208" fill="none" xmlns="http://www.w3.org/2000/svg">
<rect width="559" height="208" rx="16" fill="#1A1A1A"/>
<rect x="214.667" y="84" width="130" height="40" rx="20" fill="white" fill-opacity="0.95"/>
<path d="M245.948 108.397C246.974 107.162 247.535 105.606 247.535 104C247.535 102.394 246.974 100.839 245.948 99.6033L249.234 96.3169C249.293 96.2591 249.34 96.1902 249.372 96.114C249.405 96.0379 249.422 95.9561 249.422 95.8733C249.423 95.7906 249.407 95.7086 249.376 95.632C249.344 95.5555 249.298 95.486 249.239 95.4274C249.181 95.3689 249.111 95.3226 249.035 95.2912C248.958 95.2598 248.876 95.2439 248.793 95.2444C248.711 95.2449 248.629 95.2619 248.553 95.2943C248.477 95.3266 248.408 95.3738 248.35 95.4331L245.065 98.7183C243.83 97.6889 242.274 97.1251 240.667 97.1251C239.059 97.1251 237.503 97.6889 236.269 98.7183L232.984 95.4331C232.866 95.3183 232.708 95.2546 232.543 95.2556C232.379 95.2566 232.222 95.3224 232.105 95.4386C231.989 95.5549 231.923 95.7122 231.922 95.8766C231.921 96.041 231.985 96.1992 232.1 96.3169L235.386 99.6028C234.36 100.838 233.798 102.394 233.798 104C233.798 105.606 234.36 107.162 235.386 108.397L232.1 111.683C232.041 111.741 231.993 111.81 231.961 111.886C231.929 111.962 231.912 112.044 231.911 112.127C231.911 112.209 231.927 112.291 231.958 112.368C231.989 112.444 232.036 112.514 232.094 112.573C232.153 112.631 232.222 112.677 232.299 112.709C232.375 112.74 232.457 112.756 232.54 112.756C232.623 112.755 232.705 112.738 232.781 112.706C232.857 112.673 232.926 112.626 232.984 112.567L236.269 109.282C237.503 110.311 239.059 110.875 240.667 110.875C242.274 110.875 243.83 110.311 245.065 109.282L248.35 112.567C248.468 112.682 248.626 112.745 248.79 112.744C248.954 112.743 249.112 112.678 249.228 112.561C249.344 112.445 249.41 112.288 249.411 112.123C249.412 111.959 249.348 111.801 249.234 111.683L245.948 108.397ZM245.06 107.51L241.551 104L245.06 100.49C245.854 101.488 246.287 102.725 246.287 104C246.287 105.275 245.854 106.512 245.06 107.51ZM240.667 98.375C241.943 98.3721 243.182 98.8069 244.176 99.6067L240.667 103.116L237.157 99.6066C238.152 98.8068 239.39 98.3721 240.667 98.375ZM236.273 100.49L239.783 104L236.273 107.51C235.479 106.512 235.046 105.275 235.046 104C235.046 102.725 235.479 101.488 236.273 100.49ZM240.667 109.625C239.39 109.628 238.152 109.193 237.157 108.393L240.667 104.884L244.176 108.393C243.182 109.193 241.943 109.628 240.667 109.625Z" fill="black" fill-opacity="0.95"/>
<path d="M260.18 110V98.3636H261.935V108.489H267.208V110H260.18ZM271.614 110.193C271.061 110.193 270.561 110.091 270.114 109.886C269.667 109.678 269.313 109.377 269.052 108.983C268.794 108.589 268.665 108.106 268.665 107.534C268.665 107.042 268.76 106.636 268.949 106.318C269.139 106 269.394 105.748 269.716 105.562C270.038 105.377 270.398 105.237 270.796 105.142C271.194 105.047 271.599 104.975 272.012 104.926C272.535 104.866 272.959 104.816 273.285 104.778C273.61 104.737 273.847 104.67 273.995 104.58C274.143 104.489 274.216 104.341 274.216 104.136V104.097C274.216 103.6 274.076 103.216 273.796 102.943C273.519 102.67 273.107 102.534 272.557 102.534C271.985 102.534 271.535 102.661 271.205 102.915C270.879 103.165 270.654 103.443 270.529 103.75L268.932 103.386C269.122 102.856 269.398 102.428 269.762 102.102C270.129 101.773 270.552 101.534 271.029 101.386C271.506 101.235 272.008 101.159 272.535 101.159C272.883 101.159 273.252 101.201 273.643 101.284C274.037 101.364 274.404 101.511 274.745 101.727C275.09 101.943 275.372 102.252 275.591 102.653C275.811 103.051 275.921 103.568 275.921 104.205V110H274.262V108.807H274.194C274.084 109.027 273.919 109.242 273.699 109.455C273.48 109.667 273.198 109.843 272.853 109.983C272.508 110.123 272.095 110.193 271.614 110.193ZM271.984 108.83C272.453 108.83 272.855 108.737 273.188 108.551C273.525 108.366 273.781 108.123 273.955 107.824C274.133 107.521 274.222 107.197 274.222 106.852V105.727C274.162 105.788 274.044 105.845 273.87 105.898C273.699 105.947 273.504 105.991 273.285 106.028C273.065 106.062 272.851 106.095 272.643 106.125C272.434 106.152 272.26 106.174 272.12 106.193C271.79 106.235 271.489 106.305 271.216 106.403C270.948 106.502 270.732 106.644 270.569 106.83C270.41 107.011 270.33 107.254 270.33 107.557C270.33 107.977 270.485 108.295 270.796 108.511C271.107 108.723 271.502 108.83 271.984 108.83ZM278.32 110V98.3636H280.019V102.688H280.121C280.22 102.506 280.362 102.295 280.547 102.057C280.733 101.818 280.991 101.61 281.32 101.432C281.65 101.25 282.085 101.159 282.627 101.159C283.332 101.159 283.96 101.337 284.513 101.693C285.066 102.049 285.5 102.562 285.814 103.233C286.133 103.903 286.292 104.71 286.292 105.653C286.292 106.597 286.135 107.405 285.82 108.08C285.506 108.75 285.074 109.267 284.525 109.631C283.975 109.991 283.349 110.17 282.644 110.17C282.114 110.17 281.68 110.081 281.343 109.903C281.01 109.725 280.748 109.517 280.559 109.278C280.369 109.04 280.224 108.828 280.121 108.642H279.979V110H278.32ZM279.985 105.636C279.985 106.25 280.074 106.788 280.252 107.25C280.43 107.712 280.688 108.074 281.025 108.335C281.362 108.593 281.775 108.722 282.263 108.722C282.771 108.722 283.195 108.587 283.536 108.318C283.877 108.045 284.135 107.676 284.309 107.21C284.487 106.744 284.576 106.22 284.576 105.636C284.576 105.061 284.489 104.544 284.314 104.085C284.144 103.627 283.886 103.265 283.542 103C283.201 102.735 282.775 102.602 282.263 102.602C281.771 102.602 281.354 102.729 281.013 102.983C280.676 103.237 280.421 103.591 280.246 104.045C280.072 104.5 279.985 105.03 279.985 105.636ZM291.961 110.176C291.101 110.176 290.36 109.992 289.739 109.625C289.122 109.254 288.644 108.733 288.307 108.062C287.974 107.388 287.807 106.598 287.807 105.693C287.807 104.799 287.974 104.011 288.307 103.33C288.644 102.648 289.114 102.116 289.716 101.733C290.323 101.35 291.031 101.159 291.841 101.159C292.334 101.159 292.811 101.241 293.273 101.403C293.735 101.566 294.15 101.822 294.518 102.17C294.885 102.519 295.175 102.972 295.387 103.528C295.599 104.081 295.705 104.754 295.705 105.545V106.148H288.768V104.875H294.04C294.04 104.428 293.949 104.032 293.768 103.688C293.586 103.339 293.33 103.064 293.001 102.864C292.675 102.663 292.292 102.562 291.853 102.562C291.376 102.562 290.959 102.68 290.603 102.915C290.251 103.146 289.978 103.449 289.785 103.824C289.595 104.195 289.501 104.598 289.501 105.034V106.028C289.501 106.612 289.603 107.108 289.807 107.517C290.016 107.926 290.305 108.239 290.677 108.455C291.048 108.667 291.482 108.773 291.978 108.773C292.3 108.773 292.593 108.727 292.859 108.636C293.124 108.542 293.353 108.402 293.546 108.216C293.739 108.03 293.887 107.801 293.989 107.528L295.597 107.818C295.468 108.292 295.237 108.706 294.904 109.062C294.574 109.415 294.16 109.689 293.66 109.886C293.163 110.08 292.597 110.176 291.961 110.176ZM299.289 98.3636V110H297.59V98.3636H299.289Z" fill="black" fill-opacity="0.95"/>
<path d="M323.948 108.397C324.974 107.162 325.535 105.606 325.535 104C325.535 102.394 324.974 100.839 323.948 99.6033L327.234 96.3169C327.293 96.2591 327.34 96.1902 327.372 96.114C327.405 96.0379 327.422 95.9561 327.422 95.8733C327.423 95.7906 327.407 95.7086 327.376 95.632C327.344 95.5555 327.298 95.486 327.239 95.4274C327.181 95.3689 327.111 95.3226 327.035 95.2912C326.958 95.2598 326.876 95.2439 326.793 95.2444C326.711 95.2449 326.629 95.2619 326.553 95.2943C326.477 95.3266 326.408 95.3738 326.35 95.4331L323.065 98.7183C321.83 97.6889 320.274 97.1251 318.667 97.1251C317.059 97.1251 315.503 97.6889 314.269 98.7183L310.984 95.4331C310.866 95.3183 310.708 95.2546 310.543 95.2556C310.379 95.2566 310.222 95.3224 310.105 95.4386C309.989 95.5549 309.923 95.7122 309.922 95.8766C309.921 96.041 309.985 96.1992 310.1 96.3169L313.386 99.6028C312.36 100.838 311.798 102.394 311.798 104C311.798 105.606 312.36 107.162 313.386 108.397L310.1 111.683C310.041 111.741 309.993 111.81 309.961 111.886C309.929 111.962 309.912 112.044 309.911 112.127C309.911 112.209 309.927 112.291 309.958 112.368C309.989 112.444 310.036 112.514 310.094 112.573C310.153 112.631 310.222 112.677 310.299 112.709C310.375 112.74 310.457 112.756 310.54 112.756C310.623 112.755 310.705 112.738 310.781 112.706C310.857 112.673 310.926 112.626 310.984 112.567L314.269 109.282C315.503 110.311 317.059 110.875 318.667 110.875C320.274 110.875 321.83 110.311 323.065 109.282L326.35 112.567C326.468 112.682 326.626 112.745 326.79 112.744C326.954 112.743 327.112 112.678 327.228 112.561C327.344 112.445 327.41 112.288 327.411 112.123C327.412 111.959 327.348 111.801 327.234 111.683L323.948 108.397ZM323.06 107.51L319.551 104L323.06 100.49C323.854 101.488 324.287 102.725 324.287 104C324.287 105.275 323.854 106.512 323.06 107.51ZM318.667 98.375C319.943 98.3721 321.182 98.8069 322.176 99.6067L318.667 103.116L315.157 99.6066C316.152 98.8068 317.39 98.3721 318.667 98.375ZM314.273 100.49L317.783 104L314.273 107.51C313.479 106.512 313.046 105.275 313.046 104C313.046 102.725 313.479 101.488 314.273 100.49ZM318.667 109.625C317.39 109.628 316.152 109.193 315.157 108.393L318.667 104.884L322.176 108.393C321.182 109.193 319.943 109.628 318.667 109.625Z" fill="black" fill-opacity="0.95"/>
</svg>
