<svg width="1150" height="184" viewBox="0 0 1150 184" fill="none" xmlns="http://www.w3.org/2000/svg">
<rect width="1150" height="184" rx="16" fill="#1A1A1A"/>
<g clip-path="url(#clip0_1034_25192)">
<path d="M359 73.0625C361.796 73.0625 364.063 70.7959 364.063 68C364.063 65.2041 361.796 62.9375 359 62.9375C356.204 62.9375 353.938 65.2041 353.938 68C353.938 70.7959 356.204 73.0625 359 73.0625Z" fill="#1170CF"/>
</g>
<g clip-path="url(#clip1_1034_25192)">
<rect x="333.5" y="96" width="51" height="28" rx="14" fill="#7856FF"/>
<path d="M350.5 116H346.909V104.364H350.659C351.788 104.364 352.754 104.597 353.557 105.062C354.36 105.525 354.975 106.189 355.403 107.057C355.831 107.92 356.045 108.955 356.045 110.159C356.045 111.371 355.83 112.415 355.398 113.29C354.966 114.161 354.337 114.831 353.511 115.301C352.686 115.767 351.682 116 350.5 116ZM348.318 114.75H350.409C351.371 114.75 352.169 114.564 352.801 114.193C353.434 113.822 353.905 113.294 354.216 112.608C354.527 111.922 354.682 111.106 354.682 110.159C354.682 109.22 354.528 108.411 354.222 107.733C353.915 107.051 353.456 106.528 352.847 106.165C352.237 105.797 351.477 105.614 350.568 105.614H348.318V114.75ZM361.773 116.182C360.985 116.182 360.294 115.994 359.699 115.619C359.108 115.244 358.646 114.72 358.312 114.045C357.983 113.371 357.818 112.583 357.818 111.682C357.818 110.773 357.983 109.979 358.312 109.301C358.646 108.623 359.108 108.097 359.699 107.722C360.294 107.347 360.985 107.159 361.773 107.159C362.561 107.159 363.25 107.347 363.841 107.722C364.436 108.097 364.898 108.623 365.227 109.301C365.561 109.979 365.727 110.773 365.727 111.682C365.727 112.583 365.561 113.371 365.227 114.045C364.898 114.72 364.436 115.244 363.841 115.619C363.25 115.994 362.561 116.182 361.773 116.182ZM361.773 114.977C362.371 114.977 362.864 114.824 363.25 114.517C363.636 114.21 363.922 113.807 364.108 113.307C364.294 112.807 364.386 112.265 364.386 111.682C364.386 111.098 364.294 110.555 364.108 110.051C363.922 109.547 363.636 109.14 363.25 108.83C362.864 108.519 362.371 108.364 361.773 108.364C361.174 108.364 360.682 108.519 360.295 108.83C359.909 109.14 359.623 109.547 359.438 110.051C359.252 110.555 359.159 111.098 359.159 111.682C359.159 112.265 359.252 112.807 359.438 113.307C359.623 113.807 359.909 114.21 360.295 114.517C360.682 114.824 361.174 114.977 361.773 114.977ZM371.57 107.273V108.409H367.047V107.273H371.57ZM368.365 105.182H369.706V113.5C369.706 113.879 369.761 114.163 369.871 114.352C369.984 114.538 370.128 114.663 370.303 114.727C370.481 114.788 370.668 114.818 370.865 114.818C371.013 114.818 371.134 114.811 371.229 114.795C371.323 114.777 371.399 114.761 371.456 114.75L371.729 115.955C371.638 115.989 371.511 116.023 371.348 116.057C371.185 116.095 370.979 116.114 370.729 116.114C370.35 116.114 369.979 116.032 369.615 115.869C369.255 115.706 368.956 115.458 368.717 115.125C368.482 114.792 368.365 114.371 368.365 113.864V105.182Z" fill="white" fill-opacity="0.95"/>
</g>
<rect x="487" y="60" width="16" height="16" rx="8" fill="#1170CF"/>
<path d="M496.315 63.2727V72H494.994V64.5938H494.942L492.854 65.9574V64.696L495.032 63.2727H496.315Z" fill="white" fill-opacity="0.95"/>
<g clip-path="url(#clip2_1034_25192)">
<rect x="452.5" y="96" width="85" height="28" rx="14" fill="#7856FF"/>
<path d="M475.136 104.364V116H473.773L467.432 106.864H467.318V116H465.909V104.364H467.273L473.636 113.523H473.75V104.364H475.136ZM483.274 112.432V107.273H484.615V116H483.274V114.523H483.183C482.979 114.966 482.661 115.343 482.229 115.653C481.797 115.96 481.251 116.114 480.592 116.114C480.047 116.114 479.562 115.994 479.138 115.756C478.714 115.513 478.38 115.15 478.138 114.665C477.895 114.176 477.774 113.561 477.774 112.818V107.273H479.115V112.727C479.115 113.364 479.293 113.871 479.649 114.25C480.009 114.629 480.467 114.818 481.024 114.818C481.357 114.818 481.696 114.733 482.041 114.562C482.39 114.392 482.681 114.131 482.916 113.778C483.155 113.426 483.274 112.977 483.274 112.432ZM487.071 116V107.273H488.366V108.636H488.48C488.662 108.17 488.955 107.809 489.361 107.551C489.766 107.29 490.253 107.159 490.821 107.159C491.397 107.159 491.876 107.29 492.259 107.551C492.645 107.809 492.946 108.17 493.162 108.636H493.253C493.476 108.186 493.812 107.828 494.259 107.562C494.705 107.294 495.241 107.159 495.866 107.159C496.647 107.159 497.285 107.403 497.781 107.892C498.277 108.377 498.526 109.133 498.526 110.159V116H497.185V110.159C497.185 109.515 497.009 109.055 496.656 108.778C496.304 108.502 495.889 108.364 495.412 108.364C494.798 108.364 494.323 108.549 493.986 108.92C493.649 109.288 493.48 109.754 493.48 110.318V116H492.116V110.023C492.116 109.527 491.955 109.127 491.634 108.824C491.312 108.517 490.897 108.364 490.389 108.364C490.041 108.364 489.715 108.456 489.412 108.642C489.113 108.828 488.87 109.085 488.685 109.415C488.503 109.741 488.412 110.117 488.412 110.545V116H487.071ZM501.159 116V104.364H502.5V108.659H502.614C502.712 108.508 502.848 108.314 503.023 108.08C503.201 107.841 503.455 107.629 503.784 107.443C504.117 107.254 504.568 107.159 505.136 107.159C505.871 107.159 506.519 107.343 507.08 107.71C507.64 108.078 508.078 108.598 508.392 109.273C508.706 109.947 508.864 110.742 508.864 111.659C508.864 112.583 508.706 113.384 508.392 114.062C508.078 114.737 507.642 115.259 507.085 115.631C506.528 115.998 505.886 116.182 505.159 116.182C504.598 116.182 504.15 116.089 503.812 115.903C503.475 115.714 503.216 115.5 503.034 115.261C502.852 115.019 502.712 114.818 502.614 114.659H502.455V116H501.159ZM502.477 111.636C502.477 112.295 502.574 112.877 502.767 113.381C502.96 113.881 503.242 114.273 503.614 114.557C503.985 114.837 504.439 114.977 504.977 114.977C505.538 114.977 506.006 114.83 506.381 114.534C506.759 114.235 507.044 113.833 507.233 113.33C507.426 112.822 507.523 112.258 507.523 111.636C507.523 111.023 507.428 110.47 507.239 109.977C507.053 109.481 506.771 109.089 506.392 108.801C506.017 108.509 505.545 108.364 504.977 108.364C504.432 108.364 503.973 108.502 503.602 108.778C503.231 109.051 502.951 109.434 502.761 109.926C502.572 110.415 502.477 110.985 502.477 111.636ZM514.574 116.182C513.733 116.182 513.008 115.996 512.398 115.625C511.792 115.25 511.324 114.727 510.994 114.057C510.669 113.383 510.506 112.598 510.506 111.705C510.506 110.811 510.669 110.023 510.994 109.341C511.324 108.655 511.782 108.121 512.369 107.739C512.96 107.352 513.65 107.159 514.438 107.159C514.892 107.159 515.341 107.235 515.784 107.386C516.227 107.538 516.631 107.784 516.994 108.125C517.358 108.462 517.648 108.909 517.864 109.466C518.08 110.023 518.188 110.708 518.188 111.523V112.091H511.46V110.932H516.824C516.824 110.439 516.725 110 516.528 109.614C516.335 109.227 516.059 108.922 515.699 108.699C515.343 108.475 514.922 108.364 514.438 108.364C513.903 108.364 513.441 108.496 513.051 108.761C512.665 109.023 512.367 109.364 512.159 109.784C511.951 110.205 511.847 110.655 511.847 111.136V111.909C511.847 112.568 511.96 113.127 512.188 113.585C512.419 114.04 512.739 114.386 513.148 114.625C513.557 114.86 514.032 114.977 514.574 114.977C514.926 114.977 515.244 114.928 515.528 114.83C515.816 114.727 516.064 114.576 516.273 114.375C516.481 114.17 516.642 113.917 516.756 113.614L518.051 113.977C517.915 114.417 517.686 114.803 517.364 115.136C517.042 115.466 516.644 115.723 516.17 115.909C515.697 116.091 515.165 116.182 514.574 116.182ZM520.227 116V107.273H521.523V108.591H521.614C521.773 108.159 522.061 107.809 522.477 107.54C522.894 107.271 523.364 107.136 523.886 107.136C523.985 107.136 524.108 107.138 524.256 107.142C524.403 107.146 524.515 107.152 524.591 107.159V108.523C524.545 108.511 524.441 108.494 524.278 108.472C524.119 108.445 523.951 108.432 523.773 108.432C523.348 108.432 522.97 108.521 522.636 108.699C522.307 108.873 522.045 109.116 521.852 109.426C521.663 109.733 521.568 110.083 521.568 110.477V116H520.227Z" fill="white" fill-opacity="0.95"/>
</g>
<rect x="623" y="60" width="16" height="16" rx="8" fill="#1170CF"/>
<g clip-path="url(#clip3_1034_25192)">
<path d="M634.168 70.6382C634.784 69.8969 635.121 68.9636 635.121 68C635.121 67.0365 634.784 66.1032 634.168 65.3619L636.14 63.3901C636.176 63.3554 636.204 63.3141 636.223 63.2684C636.243 63.2227 636.253 63.1736 636.253 63.124C636.254 63.0743 636.244 63.0251 636.225 62.9792C636.206 62.9332 636.179 62.8915 636.144 62.8564C636.108 62.8213 636.067 62.7935 636.021 62.7747C635.975 62.7558 635.926 62.7463 635.876 62.7466C635.826 62.7469 635.777 62.7571 635.732 62.7765C635.686 62.7959 635.645 62.8243 635.61 62.8598L633.639 64.8309C632.898 64.2133 631.964 63.875 631 63.875C630.036 63.875 629.102 64.2133 628.361 64.8309L626.39 62.8598C626.32 62.7909 626.225 62.7527 626.126 62.7533C626.027 62.7539 625.933 62.7934 625.863 62.8631C625.793 62.9329 625.754 63.0273 625.753 63.1259C625.753 63.2246 625.791 63.3195 625.86 63.3901L627.831 65.3616C627.216 66.103 626.879 67.0363 626.879 67.9999C626.879 68.9636 627.216 69.8969 627.831 70.6382L625.86 72.6098C625.824 72.6445 625.796 72.6858 625.777 72.7315C625.757 72.7772 625.747 72.8263 625.747 72.8759C625.746 72.9256 625.756 72.9748 625.775 73.0207C625.794 73.0666 625.821 73.1084 625.856 73.1435C625.892 73.1786 625.933 73.2064 625.979 73.2252C626.025 73.2441 626.074 73.2536 626.124 73.2533C626.174 73.253 626.223 73.2428 626.268 73.2234C626.314 73.2039 626.356 73.1756 626.39 73.1401L628.361 71.169C629.102 71.7867 630.036 72.125 631 72.125C631.964 72.125 632.898 71.7867 633.639 71.169L635.61 73.1401C635.68 73.2089 635.775 73.2472 635.874 73.2466C635.973 73.2459 636.067 73.2065 636.137 73.1367C636.207 73.067 636.246 72.9726 636.247 72.874C636.247 72.7753 636.209 72.6804 636.14 72.6098L634.168 70.6382ZM633.636 70.1057L631.53 68L633.636 65.8942C634.113 66.4926 634.372 67.2349 634.372 67.9999C634.372 68.7649 634.113 69.5073 633.636 70.1057ZM631 64.625C631.766 64.6232 632.509 64.8841 633.106 65.364L631 67.4697L628.894 65.3639C629.491 64.884 630.234 64.6232 631 64.625ZM628.364 65.8941L630.47 68L628.364 70.1058C627.887 69.5074 627.628 68.765 627.628 67.9999C627.628 67.2349 627.887 66.4925 628.364 65.8941ZM631 71.375C630.234 71.3767 629.491 71.1159 628.894 70.636L631 68.5302L633.106 70.6359C632.509 71.1158 631.766 71.3767 631 71.375Z" fill="white" fill-opacity="0.95"/>
</g>
<g clip-path="url(#clip4_1034_25192)">
<rect x="602.5" y="96" width="57" height="28" rx="14" fill="#7856FF"/>
<path d="M617.318 104.364V116H615.909V104.364H617.318ZM623.507 116.182C622.689 116.182 621.984 115.989 621.393 115.602C620.803 115.216 620.348 114.684 620.03 114.006C619.712 113.328 619.553 112.553 619.553 111.682C619.553 110.795 619.715 110.013 620.041 109.335C620.371 108.653 620.829 108.121 621.416 107.739C622.007 107.352 622.696 107.159 623.484 107.159C624.098 107.159 624.651 107.273 625.143 107.5C625.636 107.727 626.039 108.045 626.354 108.455C626.668 108.864 626.863 109.341 626.939 109.886H625.598C625.496 109.489 625.268 109.136 624.916 108.83C624.568 108.519 624.098 108.364 623.507 108.364C622.984 108.364 622.526 108.5 622.132 108.773C621.742 109.042 621.437 109.422 621.217 109.915C621.001 110.403 620.893 110.977 620.893 111.636C620.893 112.311 621 112.898 621.212 113.398C621.428 113.898 621.731 114.286 622.121 114.562C622.515 114.839 622.977 114.977 623.507 114.977C623.856 114.977 624.172 114.917 624.456 114.795C624.74 114.674 624.981 114.5 625.178 114.273C625.375 114.045 625.515 113.773 625.598 113.455H626.939C626.863 113.97 626.676 114.434 626.376 114.847C626.081 115.256 625.689 115.581 625.2 115.824C624.715 116.062 624.151 116.182 623.507 116.182ZM632.445 116.182C631.657 116.182 630.965 115.994 630.371 115.619C629.78 115.244 629.318 114.72 628.984 114.045C628.655 113.371 628.49 112.583 628.49 111.682C628.49 110.773 628.655 109.979 628.984 109.301C629.318 108.623 629.78 108.097 630.371 107.722C630.965 107.347 631.657 107.159 632.445 107.159C633.232 107.159 633.922 107.347 634.513 107.722C635.107 108.097 635.57 108.623 635.899 109.301C636.232 109.979 636.399 110.773 636.399 111.682C636.399 112.583 636.232 113.371 635.899 114.045C635.57 114.72 635.107 115.244 634.513 115.619C633.922 115.994 633.232 116.182 632.445 116.182ZM632.445 114.977C633.043 114.977 633.536 114.824 633.922 114.517C634.308 114.21 634.594 113.807 634.78 113.307C634.965 112.807 635.058 112.265 635.058 111.682C635.058 111.098 634.965 110.555 634.78 110.051C634.594 109.547 634.308 109.14 633.922 108.83C633.536 108.519 633.043 108.364 632.445 108.364C631.846 108.364 631.354 108.519 630.967 108.83C630.581 109.14 630.295 109.547 630.109 110.051C629.924 110.555 629.831 111.098 629.831 111.682C629.831 112.265 629.924 112.807 630.109 113.307C630.295 113.807 630.581 114.21 630.967 114.517C631.354 114.824 631.846 114.977 632.445 114.977ZM639.787 110.75V116H638.446V107.273H639.741V108.636H639.855C640.06 108.193 640.37 107.837 640.787 107.568C641.204 107.295 641.741 107.159 642.401 107.159C642.991 107.159 643.509 107.28 643.952 107.523C644.395 107.761 644.74 108.125 644.986 108.614C645.232 109.098 645.355 109.712 645.355 110.455V116H644.014V110.545C644.014 109.86 643.836 109.326 643.48 108.943C643.124 108.557 642.635 108.364 642.014 108.364C641.586 108.364 641.204 108.456 640.866 108.642C640.533 108.828 640.27 109.098 640.077 109.455C639.884 109.811 639.787 110.242 639.787 110.75Z" fill="white" fill-opacity="0.95"/>
</g>
<rect x="759" y="60" width="40" height="16" rx="8" fill="#1170CF"/>
<path d="M764.385 72V63.2727H765.701V70.8665H769.656V72H764.385ZM772.961 72.1449C772.546 72.1449 772.171 72.0682 771.836 71.9148C771.5 71.7585 771.235 71.5327 771.039 71.2372C770.846 70.9418 770.749 70.5795 770.749 70.1506C770.749 69.7812 770.82 69.4773 770.962 69.2386C771.104 69 771.296 68.8111 771.537 68.6719C771.779 68.5327 772.049 68.4276 772.347 68.3565C772.645 68.2855 772.949 68.2315 773.259 68.1946C773.651 68.1491 773.969 68.1122 774.213 68.0838C774.458 68.0526 774.635 68.0028 774.746 67.9347C774.857 67.8665 774.912 67.7557 774.912 67.6023V67.5724C774.912 67.2003 774.807 66.9119 774.597 66.7074C774.39 66.5028 774.08 66.4006 773.668 66.4006C773.239 66.4006 772.901 66.4957 772.654 66.6861C772.409 66.8736 772.24 67.0824 772.147 67.3125L770.949 67.0398C771.091 66.642 771.299 66.321 771.571 66.0767C771.847 65.8295 772.164 65.6506 772.522 65.5398C772.88 65.4261 773.256 65.3693 773.651 65.3693C773.912 65.3693 774.189 65.4006 774.482 65.4631C774.777 65.5227 775.053 65.6335 775.309 65.7955C775.567 65.9574 775.779 66.1889 775.944 66.4901C776.108 66.7884 776.191 67.1761 776.191 67.6534V72H774.946V71.1051H774.895C774.813 71.2699 774.689 71.4318 774.525 71.5909C774.36 71.75 774.148 71.8821 773.89 71.9872C773.631 72.0923 773.321 72.1449 772.961 72.1449ZM773.238 71.1222C773.59 71.1222 773.891 71.0526 774.141 70.9134C774.394 70.7741 774.586 70.5923 774.716 70.3679C774.85 70.1406 774.917 69.8977 774.917 69.6392V68.7955C774.871 68.8409 774.783 68.8835 774.652 68.9233C774.525 68.9602 774.378 68.9929 774.213 69.0213C774.049 69.0469 773.888 69.071 773.732 69.0938C773.576 69.1136 773.445 69.1307 773.34 69.1449C773.093 69.1761 772.867 69.2287 772.662 69.3026C772.461 69.3764 772.299 69.483 772.176 69.6222C772.057 69.7585 771.998 69.9403 771.998 70.1676C771.998 70.483 772.114 70.7216 772.347 70.8835C772.58 71.0426 772.877 71.1222 773.238 71.1222ZM777.99 72V63.2727H779.264V66.5156H779.341C779.415 66.3793 779.521 66.2216 779.661 66.0426C779.8 65.8636 779.993 65.7074 780.24 65.5739C780.487 65.4375 780.814 65.3693 781.22 65.3693C781.749 65.3693 782.22 65.5028 782.635 65.7699C783.05 66.0369 783.375 66.4219 783.611 66.9247C783.849 67.4276 783.969 68.0327 783.969 68.7401C783.969 69.4474 783.851 70.054 783.615 70.5597C783.379 71.0625 783.055 71.4503 782.643 71.723C782.232 71.9929 781.761 72.1278 781.233 72.1278C780.835 72.1278 780.51 72.0611 780.257 71.9276C780.007 71.794 779.811 71.6378 779.669 71.4588C779.527 71.2798 779.418 71.1207 779.341 70.9815H779.234V72H777.99ZM779.239 68.7273C779.239 69.1875 779.305 69.5909 779.439 69.9375C779.572 70.2841 779.766 70.5554 780.018 70.7514C780.271 70.9446 780.581 71.0412 780.947 71.0412C781.328 71.0412 781.646 70.9403 781.902 70.7386C782.158 70.5341 782.351 70.2571 782.482 69.9077C782.615 69.5582 782.682 69.1648 782.682 68.7273C782.682 68.2955 782.616 67.9077 782.486 67.5639C782.358 67.2202 782.165 66.9489 781.906 66.75C781.651 66.5511 781.331 66.4517 780.947 66.4517C780.578 66.4517 780.266 66.5469 780.01 66.7372C779.757 66.9276 779.565 67.1932 779.435 67.5341C779.304 67.875 779.239 68.2727 779.239 68.7273ZM788.221 72.1321C787.576 72.1321 787.02 71.9943 786.554 71.7188C786.091 71.4403 785.733 71.0497 785.48 70.5469C785.23 70.0412 785.105 69.4489 785.105 68.7699C785.105 68.0994 785.23 67.5085 785.48 66.9972C785.733 66.4858 786.086 66.0866 786.537 65.7997C786.992 65.5128 787.523 65.3693 788.131 65.3693C788.5 65.3693 788.858 65.4304 789.205 65.5526C789.551 65.6747 789.863 65.8665 790.138 66.1278C790.414 66.3892 790.631 66.7287 790.79 67.1463C790.949 67.5611 791.029 68.0653 791.029 68.6591V69.1108H785.826V68.1562H789.78C789.78 67.821 789.712 67.5241 789.576 67.2656C789.439 67.0043 789.248 66.7983 789 66.6477C788.756 66.4972 788.469 66.4219 788.14 66.4219C787.782 66.4219 787.469 66.5099 787.202 66.6861C786.938 66.8594 786.733 67.0866 786.588 67.3679C786.446 67.6463 786.375 67.9489 786.375 68.2756V69.0213C786.375 69.4588 786.452 69.831 786.605 70.1378C786.762 70.4446 786.979 70.679 787.257 70.8409C787.536 71 787.861 71.0795 788.233 71.0795C788.475 71.0795 788.695 71.0455 788.894 70.9773C789.093 70.9062 789.265 70.8011 789.409 70.6619C789.554 70.5227 789.665 70.3509 789.742 70.1463L790.948 70.3636C790.851 70.7187 790.678 71.0298 790.428 71.2969C790.181 71.5611 789.87 71.767 789.495 71.9148C789.123 72.0597 788.698 72.1321 788.221 72.1321ZM793.717 63.2727V72H792.442V63.2727H793.717Z" fill="white" fill-opacity="0.95"/>
<g clip-path="url(#clip5_1034_25192)">
<rect x="746" y="96" width="66" height="28" rx="14" fill="#7856FF"/>
<path d="M759.409 116V104.364H760.818V114.75H766.227V116H759.409ZM770.795 116.205C770.242 116.205 769.741 116.1 769.29 115.892C768.839 115.68 768.481 115.375 768.216 114.977C767.951 114.576 767.818 114.091 767.818 113.523C767.818 113.023 767.917 112.617 768.114 112.307C768.311 111.992 768.574 111.746 768.903 111.568C769.233 111.39 769.597 111.258 769.994 111.17C770.396 111.08 770.799 111.008 771.205 110.955C771.735 110.886 772.165 110.835 772.494 110.801C772.828 110.763 773.07 110.701 773.222 110.614C773.377 110.527 773.455 110.375 773.455 110.159V110.114C773.455 109.553 773.301 109.117 772.994 108.807C772.691 108.496 772.231 108.341 771.614 108.341C770.973 108.341 770.472 108.481 770.108 108.761C769.744 109.042 769.489 109.341 769.341 109.659L768.068 109.205C768.295 108.674 768.598 108.261 768.977 107.966C769.36 107.667 769.777 107.458 770.227 107.341C770.682 107.22 771.129 107.159 771.568 107.159C771.848 107.159 772.17 107.193 772.534 107.261C772.902 107.326 773.256 107.46 773.597 107.665C773.941 107.869 774.227 108.178 774.455 108.591C774.682 109.004 774.795 109.557 774.795 110.25V116H773.455V114.818H773.386C773.295 115.008 773.144 115.21 772.932 115.426C772.72 115.642 772.438 115.826 772.085 115.977C771.733 116.129 771.303 116.205 770.795 116.205ZM771 115C771.53 115 771.977 114.896 772.341 114.688C772.708 114.479 772.985 114.21 773.17 113.881C773.36 113.551 773.455 113.205 773.455 112.841V111.614C773.398 111.682 773.273 111.744 773.08 111.801C772.89 111.854 772.67 111.902 772.42 111.943C772.174 111.981 771.934 112.015 771.699 112.045C771.468 112.072 771.28 112.095 771.136 112.114C770.788 112.159 770.462 112.233 770.159 112.335C769.86 112.434 769.617 112.583 769.432 112.784C769.25 112.981 769.159 113.25 769.159 113.591C769.159 114.057 769.331 114.409 769.676 114.648C770.025 114.883 770.466 115 771 115ZM777.425 116V104.364H778.766V108.659H778.879C778.978 108.508 779.114 108.314 779.288 108.08C779.466 107.841 779.72 107.629 780.05 107.443C780.383 107.254 780.834 107.159 781.402 107.159C782.137 107.159 782.785 107.343 783.345 107.71C783.906 108.078 784.343 108.598 784.658 109.273C784.972 109.947 785.129 110.742 785.129 111.659C785.129 112.583 784.972 113.384 784.658 114.062C784.343 114.737 783.908 115.259 783.351 115.631C782.794 115.998 782.152 116.182 781.425 116.182C780.864 116.182 780.415 116.089 780.078 115.903C779.741 115.714 779.482 115.5 779.3 115.261C779.118 115.019 778.978 114.818 778.879 114.659H778.72V116H777.425ZM778.743 111.636C778.743 112.295 778.839 112.877 779.033 113.381C779.226 113.881 779.508 114.273 779.879 114.557C780.25 114.837 780.705 114.977 781.243 114.977C781.804 114.977 782.271 114.83 782.646 114.534C783.025 114.235 783.309 113.833 783.499 113.33C783.692 112.822 783.788 112.258 783.788 111.636C783.788 111.023 783.694 110.47 783.504 109.977C783.319 109.481 783.036 109.089 782.658 108.801C782.283 108.509 781.811 108.364 781.243 108.364C780.697 108.364 780.239 108.502 779.868 108.778C779.497 109.051 779.216 109.434 779.027 109.926C778.838 110.415 778.743 110.985 778.743 111.636ZM790.839 116.182C789.999 116.182 789.273 115.996 788.663 115.625C788.057 115.25 787.589 114.727 787.26 114.057C786.934 113.383 786.771 112.598 786.771 111.705C786.771 110.811 786.934 110.023 787.26 109.341C787.589 108.655 788.048 108.121 788.635 107.739C789.226 107.352 789.915 107.159 790.703 107.159C791.158 107.159 791.607 107.235 792.05 107.386C792.493 107.538 792.896 107.784 793.26 108.125C793.624 108.462 793.913 108.909 794.129 109.466C794.345 110.023 794.453 110.708 794.453 111.523V112.091H787.726V110.932H793.089C793.089 110.439 792.991 110 792.794 109.614C792.601 109.227 792.324 108.922 791.964 108.699C791.608 108.475 791.188 108.364 790.703 108.364C790.169 108.364 789.707 108.496 789.317 108.761C788.93 109.023 788.633 109.364 788.425 109.784C788.216 110.205 788.112 110.655 788.112 111.136V111.909C788.112 112.568 788.226 113.127 788.453 113.585C788.684 114.04 789.004 114.386 789.413 114.625C789.822 114.86 790.298 114.977 790.839 114.977C791.192 114.977 791.51 114.928 791.794 114.83C792.082 114.727 792.33 114.576 792.538 114.375C792.747 114.17 792.908 113.917 793.021 113.614L794.317 113.977C794.18 114.417 793.951 114.803 793.629 115.136C793.307 115.466 792.91 115.723 792.436 115.909C791.963 116.091 791.43 116.182 790.839 116.182ZM797.834 104.364V116H796.493V104.364H797.834Z" fill="white" fill-opacity="0.95"/>
</g>
<defs>
<clipPath id="clip0_1034_25192">
<rect width="12" height="12" fill="white" transform="translate(353 62)"/>
</clipPath>
<clipPath id="clip1_1034_25192">
<rect width="51" height="28" fill="white" transform="translate(333.5 96)"/>
</clipPath>
<clipPath id="clip2_1034_25192">
<rect width="85" height="28" fill="white" transform="translate(452.5 96)"/>
</clipPath>
<clipPath id="clip3_1034_25192">
<rect width="12" height="12" fill="white" transform="translate(625 62)"/>
</clipPath>
<clipPath id="clip4_1034_25192">
<rect width="57" height="28" fill="white" transform="translate(602.5 96)"/>
</clipPath>
<clipPath id="clip5_1034_25192">
<rect width="66" height="28" fill="white" transform="translate(746 96)"/>
</clipPath>
</defs>
</svg>
