<svg width="559" height="184" viewBox="0 0 559 184" fill="none" xmlns="http://www.w3.org/2000/svg">
<rect width="559" height="184" rx="16" fill="#1A1A1A"/>
<rect x="261.25" y="84" width="37" height="16" rx="8" fill="#1170CF"/>
<path d="M268.052 87.1321C268.441 87.1349 268.825 87.206 269.203 87.3452C269.58 87.4844 269.921 87.7131 270.225 88.0312C270.532 88.3466 270.776 88.7727 270.958 89.3097C271.143 89.8466 271.237 90.517 271.24 91.321C271.237 92.0852 271.159 92.7656 271.005 93.3622C270.855 93.956 270.636 94.4574 270.349 94.8665C270.062 95.2756 269.715 95.5866 269.309 95.7997C268.906 96.0128 268.45 96.1193 267.941 96.1193C267.421 96.1193 266.96 96.017 266.556 95.8125C266.153 95.608 265.825 95.3253 265.572 94.9645C265.319 94.6009 265.161 94.1832 265.099 93.7116H266.399C266.484 94.0866 266.657 94.3906 266.919 94.6236C267.183 94.8537 267.524 94.9688 267.941 94.9688C268.58 94.9688 269.079 94.6903 269.437 94.1335C269.795 93.5739 269.975 92.7926 269.978 91.7898H269.91C269.762 92.0341 269.578 92.2443 269.356 92.4205C269.137 92.5966 268.892 92.733 268.619 92.8295C268.346 92.9261 268.055 92.9744 267.745 92.9744C267.242 92.9744 266.784 92.8509 266.369 92.6037C265.957 92.3565 265.629 92.017 265.384 91.5852C265.143 91.1534 265.022 90.6591 265.022 90.1023C265.022 89.5455 265.147 89.0426 265.397 88.5938C265.65 88.142 266.002 87.7855 266.454 87.5241C266.909 87.2599 267.441 87.1293 268.052 87.1321ZM268.056 88.2401C267.724 88.2401 267.424 88.3224 267.157 88.4872C266.893 88.652 266.684 88.8736 266.531 89.152C266.377 89.4304 266.301 89.7415 266.301 90.0852C266.301 90.4233 266.374 90.7301 266.522 91.0057C266.673 91.2812 266.877 91.5 267.136 91.6619C267.397 91.821 267.695 91.9006 268.031 91.9006C268.281 91.9006 268.514 91.8523 268.73 91.7557C268.945 91.6591 269.133 91.5256 269.292 91.3551C269.454 91.1818 269.58 90.9858 269.671 90.767C269.765 90.5455 269.812 90.3139 269.812 90.0724C269.812 89.7457 269.735 89.4432 269.582 89.1648C269.431 88.8864 269.224 88.6634 268.96 88.4957C268.695 88.3253 268.394 88.2401 268.056 88.2401ZM275.681 87.1321C276.07 87.1349 276.454 87.206 276.831 87.3452C277.209 87.4844 277.55 87.7131 277.854 88.0312C278.161 88.3466 278.405 88.7727 278.587 89.3097C278.772 89.8466 278.866 90.517 278.868 91.321C278.866 92.0852 278.787 92.7656 278.634 93.3622C278.483 93.956 278.265 94.4574 277.978 94.8665C277.691 95.2756 277.344 95.5866 276.938 95.7997C276.535 96.0128 276.079 96.1193 275.57 96.1193C275.05 96.1193 274.589 96.017 274.185 95.8125C273.782 95.608 273.454 95.3253 273.201 94.9645C272.948 94.6009 272.79 94.1832 272.728 93.7116H274.028C274.113 94.0866 274.286 94.3906 274.547 94.6236C274.812 94.8537 275.153 94.9688 275.57 94.9688C276.209 94.9688 276.708 94.6903 277.066 94.1335C277.424 93.5739 277.604 92.7926 277.607 91.7898H277.539C277.391 92.0341 277.206 92.2443 276.985 92.4205C276.766 92.5966 276.52 92.733 276.248 92.8295C275.975 92.9261 275.684 92.9744 275.374 92.9744C274.871 92.9744 274.412 92.8509 273.998 92.6037C273.586 92.3565 273.258 92.017 273.013 91.5852C272.772 91.1534 272.651 90.6591 272.651 90.1023C272.651 89.5455 272.776 89.0426 273.026 88.5938C273.279 88.142 273.631 87.7855 274.083 87.5241C274.537 87.2599 275.07 87.1293 275.681 87.1321ZM275.685 88.2401C275.353 88.2401 275.053 88.3224 274.786 88.4872C274.522 88.652 274.313 88.8736 274.16 89.152C274.006 89.4304 273.93 89.7415 273.93 90.0852C273.93 90.4233 274.003 90.7301 274.151 91.0057C274.302 91.2812 274.506 91.5 274.765 91.6619C275.026 91.821 275.324 91.9006 275.66 91.9006C275.91 91.9006 276.143 91.8523 276.358 91.7557C276.574 91.6591 276.762 91.5256 276.921 91.3551C277.083 91.1818 277.209 90.9858 277.3 90.767C277.394 90.5455 277.441 90.3139 277.441 90.0724C277.441 89.7457 277.364 89.4432 277.211 89.1648C277.06 88.8864 276.853 88.6634 276.589 88.4957C276.324 88.3253 276.023 88.2401 275.685 88.2401ZM283.31 87.1321C283.699 87.1349 284.083 87.206 284.46 87.3452C284.838 87.4844 285.179 87.7131 285.483 88.0312C285.79 88.3466 286.034 88.7727 286.216 89.3097C286.401 89.8466 286.494 90.517 286.497 91.321C286.494 92.0852 286.416 92.7656 286.263 93.3622C286.112 93.956 285.894 94.4574 285.607 94.8665C285.32 95.2756 284.973 95.5866 284.567 95.7997C284.164 96.0128 283.708 96.1193 283.199 96.1193C282.679 96.1193 282.218 96.017 281.814 95.8125C281.411 95.608 281.083 95.3253 280.83 94.9645C280.577 94.6009 280.419 94.1832 280.357 93.7116H281.656C281.742 94.0866 281.915 94.3906 282.176 94.6236C282.441 94.8537 282.781 94.9688 283.199 94.9688C283.838 94.9688 284.337 94.6903 284.695 94.1335C285.053 93.5739 285.233 92.7926 285.236 91.7898H285.168C285.02 92.0341 284.835 92.2443 284.614 92.4205C284.395 92.5966 284.149 92.733 283.877 92.8295C283.604 92.9261 283.313 92.9744 283.003 92.9744C282.5 92.9744 282.041 92.8509 281.627 92.6037C281.215 92.3565 280.887 92.017 280.642 91.5852C280.401 91.1534 280.28 90.6591 280.28 90.1023C280.28 89.5455 280.405 89.0426 280.655 88.5938C280.908 88.142 281.26 87.7855 281.712 87.5241C282.166 87.2599 282.699 87.1293 283.31 87.1321ZM283.314 88.2401C282.982 88.2401 282.682 88.3224 282.415 88.4872C282.151 88.652 281.942 88.8736 281.789 89.152C281.635 89.4304 281.558 89.7415 281.558 90.0852C281.558 90.4233 281.632 90.7301 281.78 91.0057C281.931 91.2812 282.135 91.5 282.394 91.6619C282.655 91.821 282.953 91.9006 283.289 91.9006C283.539 91.9006 283.771 91.8523 283.987 91.7557C284.203 91.6591 284.391 91.5256 284.55 91.3551C284.712 91.1818 284.838 90.9858 284.929 90.767C285.023 90.5455 285.07 90.3139 285.07 90.0724C285.07 89.7457 284.993 89.4432 284.84 89.1648C284.689 88.8864 284.482 88.6634 284.218 88.4957C283.953 88.3253 283.652 88.2401 283.314 88.2401ZM290.619 94.5341V88.7727H291.765V94.5341H290.619ZM288.314 92.2244V91.0781H294.075V92.2244H288.314Z" fill="white" fill-opacity="0.95"/>
</svg>
