<svg width="559" height="236" viewBox="0 0 559 236" fill="none" xmlns="http://www.w3.org/2000/svg">
<rect width="559" height="236" rx="16" fill="#1A1A1A"/>
<rect x="185.5" y="60" width="64" height="64" rx="32" fill="white" fill-opacity="0.95"/>
<path d="M225.605 99.044C227.301 97.089 228.234 94.5879 228.234 91.9999C228.234 89.4118 227.301 86.9107 225.605 84.9557L231.03 79.5299C231.104 79.4612 231.163 79.3784 231.204 79.2864C231.245 79.1944 231.267 79.0951 231.269 78.9944C231.27 78.8937 231.252 78.7937 231.214 78.7003C231.176 78.6069 231.12 78.5221 231.049 78.4509C230.978 78.3797 230.893 78.3235 230.8 78.2858C230.706 78.2481 230.606 78.2295 230.506 78.2313C230.405 78.2331 230.305 78.2551 230.213 78.2961C230.121 78.3371 230.039 78.3962 229.97 78.4699L224.545 83.8941C222.594 82.1895 220.091 81.2501 217.5 81.2501C214.909 81.2501 212.406 82.1895 210.455 83.8941L205.03 78.4699C204.888 78.3374 204.7 78.2653 204.506 78.2687C204.311 78.2722 204.126 78.3509 203.988 78.4883C203.851 78.6257 203.772 78.8111 203.769 79.0054C203.765 79.1997 203.838 79.3877 203.97 79.5299L209.395 84.9554C207.699 86.9105 206.766 89.4117 206.766 91.9999C206.766 94.588 207.699 97.0892 209.395 99.0443L203.97 104.47C203.896 104.539 203.837 104.621 203.796 104.713C203.755 104.805 203.733 104.905 203.731 105.005C203.73 105.106 203.748 105.206 203.786 105.3C203.824 105.393 203.88 105.478 203.951 105.549C204.022 105.62 204.107 105.676 204.2 105.714C204.294 105.752 204.394 105.77 204.495 105.769C204.595 105.767 204.695 105.745 204.787 105.704C204.879 105.663 204.961 105.604 205.03 105.53L210.455 100.106C212.406 101.811 214.909 102.75 217.5 102.75C220.091 102.75 222.594 101.811 224.545 100.106L229.97 105.53C230.112 105.662 230.3 105.735 230.495 105.731C230.689 105.728 230.874 105.649 231.012 105.512C231.149 105.374 231.228 105.189 231.231 104.994C231.235 104.8 231.163 104.612 231.03 104.47L225.605 99.044ZM224.544 97.9835L218.561 91.9999L224.544 86.0162C225.961 87.6881 226.738 89.8084 226.738 91.9999C226.738 94.1913 225.961 96.3116 224.544 97.9835ZM217.5 82.7499C219.694 82.7456 221.818 83.5277 223.485 84.9546L217.5 90.9393L211.515 84.9544C213.182 83.5277 215.306 82.7456 217.5 82.7499ZM210.456 86.016L216.44 91.9999L210.456 97.9837C209.039 96.3118 208.261 94.1914 208.261 91.9999C208.261 89.8083 209.039 87.6879 210.456 86.016ZM217.5 101.25C215.306 101.254 213.182 100.472 211.515 99.0453L217.5 93.0604L223.485 99.0451C221.818 100.472 219.694 101.254 217.5 101.25Z" fill="black" fill-opacity="0.95"/>
<path d="M241.5 73.0625C244.296 73.0625 246.563 70.7959 246.563 68C246.563 65.2041 244.296 62.9375 241.5 62.9375C238.704 62.9375 236.438 65.2041 236.438 68C236.438 70.7959 238.704 73.0625 241.5 73.0625Z" fill="#1170CF"/>
<rect x="201.5" y="144" width="32" height="32" rx="16" fill="#7856FF"/>
<path d="M219.255 155.318V165.5H217.102V157.362H217.043L214.711 158.823V156.914L217.232 155.318H219.255Z" fill="white" fill-opacity="0.95"/>
<rect x="309.5" y="60" width="64" height="64" rx="32" fill="white" fill-opacity="0.95"/>
<path d="M349.605 99.044C351.301 97.089 352.234 94.5879 352.234 91.9999C352.234 89.4118 351.301 86.9107 349.605 84.9557L355.03 79.5299C355.104 79.4612 355.163 79.3784 355.204 79.2864C355.245 79.1944 355.267 79.0951 355.269 78.9944C355.27 78.8937 355.252 78.7937 355.214 78.7003C355.176 78.6069 355.12 78.5221 355.049 78.4509C354.978 78.3797 354.893 78.3235 354.8 78.2858C354.706 78.2481 354.606 78.2295 354.506 78.2313C354.405 78.2331 354.305 78.2551 354.213 78.2961C354.121 78.3371 354.039 78.3962 353.97 78.4699L348.545 83.8941C346.594 82.1895 344.091 81.2501 341.5 81.2501C338.909 81.2501 336.406 82.1895 334.455 83.8941L329.03 78.4699C328.888 78.3374 328.7 78.2653 328.506 78.2687C328.311 78.2722 328.126 78.3509 327.988 78.4883C327.851 78.6257 327.772 78.8111 327.769 79.0054C327.765 79.1997 327.838 79.3877 327.97 79.5299L333.395 84.9554C331.699 86.9105 330.766 89.4117 330.766 91.9999C330.766 94.588 331.699 97.0892 333.395 99.0443L327.97 104.47C327.896 104.539 327.837 104.621 327.796 104.713C327.755 104.805 327.733 104.905 327.731 105.005C327.73 105.106 327.748 105.206 327.786 105.3C327.824 105.393 327.88 105.478 327.951 105.549C328.022 105.62 328.107 105.676 328.2 105.714C328.294 105.752 328.394 105.77 328.495 105.769C328.595 105.767 328.695 105.745 328.787 105.704C328.879 105.663 328.961 105.604 329.03 105.53L334.455 100.106C336.406 101.811 338.909 102.75 341.5 102.75C344.091 102.75 346.594 101.811 348.545 100.106L353.97 105.53C354.112 105.662 354.3 105.735 354.495 105.731C354.689 105.728 354.874 105.649 355.012 105.512C355.149 105.374 355.228 105.189 355.231 104.994C355.235 104.8 355.163 104.612 355.03 104.47L349.605 99.044ZM348.544 97.9835L342.561 91.9999L348.544 86.0162C349.961 87.6881 350.738 89.8084 350.738 91.9999C350.738 94.1913 349.961 96.3116 348.544 97.9835ZM341.5 82.7499C343.694 82.7456 345.818 83.5277 347.485 84.9546L341.5 90.9393L335.515 84.9544C337.182 83.5277 339.306 82.7456 341.5 82.7499ZM334.456 86.016L340.44 91.9999L334.456 97.9837C333.039 96.3118 332.261 94.1914 332.261 91.9999C332.261 89.8083 333.039 87.6879 334.456 86.016ZM341.5 101.25C339.306 101.254 337.182 100.472 335.515 99.0453L341.5 93.0604L347.485 99.0451C345.818 100.472 343.694 101.254 341.5 101.25Z" fill="black" fill-opacity="0.95"/>
<rect x="357.5" y="60" width="16" height="16" rx="8" fill="#1170CF"/>
<path d="M368.669 70.6382C369.284 69.8969 369.621 68.9636 369.621 68C369.621 67.0365 369.284 66.1032 368.669 65.3619L370.64 63.3901C370.676 63.3554 370.704 63.3141 370.723 63.2684C370.743 63.2227 370.753 63.1736 370.753 63.124C370.754 63.0743 370.744 63.0251 370.725 62.9792C370.706 62.9332 370.679 62.8915 370.644 62.8564C370.608 62.8213 370.567 62.7935 370.521 62.7747C370.475 62.7558 370.426 62.7463 370.376 62.7466C370.326 62.7469 370.277 62.7571 370.232 62.7765C370.186 62.7959 370.145 62.8243 370.11 62.8598L368.139 64.8309C367.398 64.2133 366.464 63.875 365.5 63.875C364.536 63.875 363.602 64.2133 362.861 64.8309L360.89 62.8598C360.82 62.7909 360.725 62.7527 360.626 62.7533C360.527 62.7539 360.433 62.7934 360.363 62.8631C360.294 62.9329 360.254 63.0273 360.253 63.1259C360.253 63.2246 360.291 63.3195 360.36 63.3901L362.331 65.3616C361.716 66.103 361.379 67.0363 361.379 67.9999C361.379 68.9636 361.716 69.8969 362.331 70.6382L360.36 72.6098C360.324 72.6445 360.296 72.6858 360.277 72.7315C360.257 72.7772 360.247 72.8263 360.247 72.8759C360.246 72.9256 360.256 72.9748 360.275 73.0207C360.294 73.0666 360.321 73.1084 360.357 73.1435C360.392 73.1786 360.433 73.2064 360.479 73.2252C360.525 73.2441 360.574 73.2536 360.624 73.2533C360.674 73.253 360.723 73.2428 360.768 73.2234C360.814 73.2039 360.856 73.1756 360.89 73.1401L362.861 71.169C363.602 71.7867 364.536 72.125 365.5 72.125C366.464 72.125 367.398 71.7867 368.139 71.169L370.11 73.1401C370.181 73.2089 370.275 73.2472 370.374 73.2466C370.473 73.2459 370.567 73.2065 370.637 73.1367C370.707 73.067 370.746 72.9726 370.747 72.874C370.747 72.7753 370.709 72.6804 370.64 72.6098L368.669 70.6382ZM368.136 70.1057L366.03 68L368.136 65.8942C368.613 66.4926 368.872 67.2349 368.872 67.9999C368.872 68.7649 368.613 69.5073 368.136 70.1057ZM365.5 64.625C366.266 64.6232 367.009 64.8841 367.606 65.364L365.5 67.4697L363.394 65.3639C363.991 64.884 364.734 64.6232 365.5 64.625ZM362.864 65.8941L364.97 68L362.864 70.1058C362.387 69.5074 362.128 68.765 362.128 67.9999C362.128 67.2349 362.387 66.4925 362.864 65.8941ZM365.5 71.375C364.734 71.3767 363.991 71.1159 363.394 70.636L365.5 68.5302L367.606 70.6359C367.009 71.1158 366.266 71.3767 365.5 71.375Z" fill="white" fill-opacity="0.95"/>
<rect x="325.5" y="144" width="32" height="32" rx="16" fill="#7856FF"/>
<path d="M337.825 165.5V163.949L341.45 160.593C341.758 160.295 342.016 160.026 342.225 159.788C342.437 159.549 342.598 159.315 342.707 159.087C342.817 158.855 342.871 158.604 342.871 158.336C342.871 158.038 342.804 157.781 342.668 157.565C342.532 157.347 342.346 157.179 342.111 157.063C341.875 156.944 341.609 156.884 341.31 156.884C340.999 156.884 340.727 156.947 340.495 157.073C340.263 157.199 340.084 157.38 339.958 157.615C339.832 157.85 339.769 158.13 339.769 158.455H337.726C337.726 157.789 337.877 157.211 338.178 156.72C338.48 156.23 338.902 155.85 339.446 155.582C339.99 155.313 340.616 155.179 341.325 155.179C342.054 155.179 342.689 155.308 343.229 155.567C343.773 155.822 344.196 156.177 344.497 156.631C344.799 157.085 344.95 157.605 344.95 158.192C344.95 158.576 344.873 158.956 344.721 159.33C344.572 159.705 344.305 160.121 343.92 160.578C343.536 161.032 342.994 161.577 342.295 162.214L340.808 163.67V163.74H345.084V165.5H337.825Z" fill="white" fill-opacity="0.95"/>
</svg>
