<svg width="559" height="266" viewBox="0 0 559 266" fill="none" xmlns="http://www.w3.org/2000/svg">
<path d="M0 24C0 10.7452 10.7452 0 24 0H535C548.255 0 559 10.7452 559 24V242C559 255.255 548.255 266 535 266H24C10.7452 266 0 255.255 0 242V24Z" fill="#1A1A1A"/>
<path d="M519 25.9998C516.232 25.9998 513.525 26.8208 511.222 28.3592C508.92 29.8975 507.126 32.084 506.066 34.6422C505.007 37.2004 504.729 40.0153 505.269 42.731C505.81 45.4468 507.143 47.9413 509.101 49.8993C511.059 51.8572 513.553 53.1906 516.269 53.7308C518.985 54.2709 521.8 53.9937 524.358 52.9341C526.916 51.8744 529.103 50.08 530.641 47.7777C532.179 45.4755 533 42.7687 533 39.9998C532.996 36.288 531.52 32.7295 528.895 30.1049C526.271 27.4803 522.712 26.0039 519 25.9998ZM528.155 47.7405L511.26 30.845C513.555 28.8985 516.498 27.8865 519.505 28.0098C522.511 28.1331 525.362 29.3828 527.49 31.5107C529.617 33.6386 530.867 36.4889 530.99 39.4956C531.114 42.5024 530.102 45.4455 528.155 47.7405ZM509.846 32.2591L526.741 49.1545C524.446 51.101 521.503 52.113 518.496 51.9896C515.49 51.8663 512.639 50.6166 510.512 48.4888C508.384 46.3609 507.134 43.5106 507.011 40.5039C506.887 37.4972 507.899 34.5541 509.846 32.2591Z" fill="#FC8B98"/>
<rect x="22.5" y="117" width="154" height="24" rx="4" fill="#262626"/>
<rect x="23" y="117.5" width="153" height="23" rx="3.5" stroke="white" stroke-opacity="0.5"/>
<path d="M35.7406 134L32.9565 123.818H34.2093L36.3372 132.111H36.4366L38.6042 123.818H39.9963L42.1639 132.111H42.2633L44.3912 123.818H45.644L42.8599 134H41.5872L39.34 125.886H39.2605L37.0133 134H35.7406ZM49.5119 134.159C48.7761 134.159 48.1414 133.997 47.6078 133.672C47.0775 133.344 46.6681 132.886 46.3798 132.3C46.0948 131.71 45.9522 131.024 45.9522 130.241C45.9522 129.459 46.0948 128.77 46.3798 128.173C46.6681 127.573 47.0692 127.106 47.5829 126.771C48.1 126.433 48.7032 126.264 49.3926 126.264C49.7903 126.264 50.1831 126.33 50.5708 126.463C50.9586 126.596 51.3116 126.811 51.6298 127.109C51.948 127.404 52.2015 127.795 52.3904 128.283C52.5794 128.77 52.6738 129.37 52.6738 130.082V130.58H46.7875V129.565H51.4806C51.4806 129.134 51.3945 128.75 51.2221 128.412C51.0531 128.074 50.8111 127.807 50.4963 127.612C50.1847 127.416 49.8168 127.318 49.3926 127.318C48.9252 127.318 48.5209 127.434 48.1795 127.666C47.8414 127.895 47.5813 128.193 47.399 128.561C47.2167 128.929 47.1255 129.323 47.1255 129.744V130.42C47.1255 130.997 47.225 131.486 47.4238 131.887C47.626 132.285 47.9061 132.588 48.264 132.797C48.622 133.002 49.0379 133.105 49.5119 133.105C49.8201 133.105 50.0985 133.062 50.3471 132.976C50.599 132.886 50.8161 132.754 50.9984 132.578C51.1807 132.399 51.3216 132.177 51.421 131.912L52.5545 132.23C52.4352 132.615 52.2347 132.953 51.9529 133.244C51.6712 133.533 51.3232 133.758 50.9089 133.92C50.4946 134.08 50.0289 134.159 49.5119 134.159ZM54.6177 134V123.818H55.791V127.577H55.8904C55.9766 127.444 56.0959 127.275 56.2484 127.07C56.4042 126.861 56.6262 126.675 56.9146 126.513C57.2063 126.347 57.6007 126.264 58.0978 126.264C58.7408 126.264 59.3076 126.425 59.7981 126.746C60.2886 127.068 60.6715 127.524 60.9466 128.114C61.2217 128.704 61.3592 129.4 61.3592 130.202C61.3592 131.01 61.2217 131.711 60.9466 132.305C60.6715 132.895 60.2903 133.352 59.8031 133.677C59.3159 133.998 58.7541 134.159 58.1177 134.159C57.6272 134.159 57.2344 134.078 56.9395 133.915C56.6445 133.75 56.4174 133.562 56.2583 133.354C56.0993 133.142 55.9766 132.966 55.8904 132.827H55.7512V134H54.6177ZM55.7711 130.182C55.7711 130.759 55.8556 131.267 56.0247 131.708C56.1937 132.146 56.4406 132.489 56.7654 132.737C57.0903 132.982 57.488 133.105 57.9586 133.105C58.4492 133.105 58.8585 132.976 59.1866 132.717C59.5181 132.455 59.7666 132.104 59.9324 131.663C60.1014 131.219 60.1859 130.725 60.1859 130.182C60.1859 129.645 60.103 129.161 59.9373 128.73C59.7749 128.296 59.528 127.953 59.1966 127.701C58.8684 127.446 58.4558 127.318 57.9586 127.318C57.4814 127.318 57.0803 127.439 56.7555 127.681C56.4307 127.92 56.1854 128.254 56.0197 128.685C55.854 129.113 55.7711 129.612 55.7711 130.182ZM66.3556 134.159C65.6199 134.159 64.9851 133.997 64.4515 133.672C63.9212 133.344 63.5119 132.886 63.2235 132.3C62.9385 131.71 62.796 131.024 62.796 130.241C62.796 129.459 62.9385 128.77 63.2235 128.173C63.5119 127.573 63.9129 127.106 64.4267 126.771C64.9437 126.433 65.5469 126.264 66.2363 126.264C66.6341 126.264 67.0268 126.33 67.4146 126.463C67.8024 126.596 68.1554 126.811 68.4735 127.109C68.7917 127.404 69.0453 127.795 69.2342 128.283C69.4231 128.77 69.5176 129.37 69.5176 130.082V130.58H63.6312V129.565H68.3244C68.3244 129.134 68.2382 128.75 68.0659 128.412C67.8968 128.074 67.6549 127.807 67.34 127.612C67.0285 127.416 66.6606 127.318 66.2363 127.318C65.769 127.318 65.3646 127.434 65.0233 127.666C64.6852 127.895 64.425 128.193 64.2427 128.561C64.0604 128.929 63.9693 129.323 63.9693 129.744V130.42C63.9693 130.997 64.0687 131.486 64.2676 131.887C64.4698 132.285 64.7498 132.588 65.1078 132.797C65.4657 133.002 65.8817 133.105 66.3556 133.105C66.6639 133.105 66.9423 133.062 67.1909 132.976C67.4428 132.886 67.6599 132.754 67.8422 132.578C68.0244 132.399 68.1653 132.177 68.2647 131.912L69.3983 132.23C69.2789 132.615 69.0784 132.953 68.7967 133.244C68.515 133.533 68.167 133.758 67.7527 133.92C67.3384 134.08 66.8727 134.159 66.3556 134.159ZM71.9723 126.364L73.8018 129.486L75.6314 126.364H76.9837L74.5178 130.182L76.9837 134H75.6314L73.8018 131.037L71.9723 134H70.62L73.0462 130.182L70.62 126.364H71.9723ZM90.9476 127H89.7147C89.6418 126.645 89.5141 126.334 89.3319 126.065C89.1529 125.797 88.9341 125.571 88.6756 125.389C88.4204 125.204 88.137 125.064 87.8255 124.972C87.5139 124.879 87.1891 124.832 86.851 124.832C86.2346 124.832 85.6761 124.988 85.1756 125.3C84.6784 125.611 84.2824 126.07 83.9874 126.677C83.6957 127.283 83.5499 128.027 83.5499 128.909C83.5499 129.791 83.6957 130.535 83.9874 131.141C84.2824 131.748 84.6784 132.207 85.1756 132.518C85.6761 132.83 86.2346 132.986 86.851 132.986C87.1891 132.986 87.5139 132.939 87.8255 132.847C88.137 132.754 88.4204 132.616 88.6756 132.434C88.9341 132.248 89.1529 132.021 89.3319 131.753C89.5141 131.481 89.6418 131.17 89.7147 130.818H90.9476C90.8548 131.339 90.6858 131.804 90.4405 132.215C90.1953 132.626 89.8903 132.976 89.5257 133.264C89.1612 133.549 88.7518 133.766 88.2978 133.915C87.847 134.065 87.3648 134.139 86.851 134.139C85.9827 134.139 85.2104 133.927 84.5343 133.503C83.8581 133.079 83.3262 132.475 82.9384 131.693C82.5506 130.911 82.3567 129.983 82.3567 128.909C82.3567 127.835 82.5506 126.907 82.9384 126.125C83.3262 125.343 83.8581 124.74 84.5343 124.315C85.2104 123.891 85.9827 123.679 86.851 123.679C87.3648 123.679 87.847 123.754 88.2978 123.903C88.7518 124.052 89.1612 124.271 89.5257 124.559C89.8903 124.844 90.1953 125.192 90.4405 125.603C90.6858 126.011 90.8548 126.476 90.9476 127ZM95.0281 134.179C94.5442 134.179 94.105 134.088 93.7106 133.906C93.3162 133.72 93.003 133.453 92.771 133.105C92.5389 132.754 92.4229 132.33 92.4229 131.832C92.4229 131.395 92.5091 131.04 92.6815 130.768C92.8538 130.493 93.0842 130.278 93.3725 130.122C93.6609 129.966 93.979 129.85 94.3271 129.774C94.6784 129.695 95.0314 129.632 95.386 129.585C95.85 129.526 96.2262 129.481 96.5146 129.451C96.8062 129.418 97.0183 129.363 97.1509 129.287C97.2868 129.211 97.3548 129.078 97.3548 128.889V128.849C97.3548 128.359 97.2205 127.978 96.9521 127.706C96.6869 127.434 96.2842 127.298 95.744 127.298C95.1838 127.298 94.7447 127.421 94.4265 127.666C94.1083 127.911 93.8846 128.173 93.7553 128.452L92.6417 128.054C92.8406 127.59 93.1057 127.229 93.4371 126.97C93.7719 126.708 94.1365 126.526 94.5309 126.423C94.9286 126.317 95.3197 126.264 95.7042 126.264C95.9495 126.264 96.2312 126.294 96.5494 126.354C96.8709 126.41 97.1808 126.528 97.479 126.707C97.7807 126.886 98.0309 127.156 98.2298 127.517C98.4286 127.878 98.5281 128.362 98.5281 128.969V134H97.3548V132.966H97.2951C97.2156 133.132 97.083 133.309 96.8974 133.498C96.7118 133.687 96.4648 133.848 96.1566 133.98C95.8484 134.113 95.4722 134.179 95.0281 134.179ZM95.207 133.125C95.671 133.125 96.0621 133.034 96.3803 132.852C96.7018 132.669 96.9438 132.434 97.1062 132.146C97.2719 131.857 97.3548 131.554 97.3548 131.236V130.162C97.305 130.222 97.1957 130.276 97.0266 130.326C96.8609 130.372 96.6687 130.414 96.4499 130.45C96.2345 130.483 96.024 130.513 95.8185 130.54C95.6164 130.563 95.4523 130.583 95.3263 130.599C95.0214 130.639 94.7364 130.704 94.4712 130.793C94.2094 130.879 93.9973 131.01 93.8349 131.186C93.6758 131.358 93.5962 131.594 93.5962 131.892C93.5962 132.3 93.747 132.608 94.0487 132.817C94.3536 133.022 94.7397 133.125 95.207 133.125ZM101.843 123.818V134H100.67V123.818H101.843ZM105.165 123.818V134H103.992V123.818H105.165ZM107.314 134V126.364H108.487V134H107.314ZM107.911 125.091C107.682 125.091 107.485 125.013 107.319 124.857C107.157 124.701 107.075 124.514 107.075 124.295C107.075 124.077 107.157 123.889 107.319 123.734C107.485 123.578 107.682 123.5 107.911 123.5C108.139 123.5 108.335 123.578 108.497 123.734C108.663 123.889 108.746 124.077 108.746 124.295C108.746 124.514 108.663 124.701 108.497 124.857C108.335 125.013 108.139 125.091 107.911 125.091ZM111.81 129.406V134H110.636V126.364H111.77V127.557H111.869C112.048 127.169 112.32 126.857 112.685 126.622C113.049 126.384 113.52 126.264 114.097 126.264C114.614 126.264 115.066 126.37 115.454 126.582C115.842 126.791 116.143 127.109 116.359 127.537C116.574 127.961 116.682 128.498 116.682 129.148V134H115.509V129.227C115.509 128.627 115.353 128.16 115.041 127.825C114.73 127.487 114.302 127.318 113.759 127.318C113.384 127.318 113.049 127.399 112.754 127.562C112.463 127.724 112.232 127.961 112.063 128.273C111.894 128.584 111.81 128.962 111.81 129.406ZM121.908 137.023C121.341 137.023 120.854 136.95 120.447 136.804C120.039 136.661 119.699 136.473 119.427 136.237C119.159 136.005 118.945 135.757 118.786 135.491L119.721 134.835C119.827 134.974 119.961 135.134 120.123 135.312C120.286 135.495 120.508 135.652 120.79 135.785C121.075 135.921 121.448 135.989 121.908 135.989C122.525 135.989 123.033 135.839 123.434 135.541C123.836 135.243 124.036 134.776 124.036 134.139V132.588H123.937C123.85 132.727 123.728 132.9 123.569 133.105C123.413 133.307 123.188 133.488 122.893 133.647C122.601 133.803 122.206 133.881 121.709 133.881C121.093 133.881 120.539 133.735 120.049 133.443C119.562 133.152 119.175 132.727 118.89 132.17C118.609 131.614 118.468 130.937 118.468 130.142C118.468 129.36 118.605 128.679 118.881 128.099C119.156 127.515 119.538 127.065 120.029 126.746C120.519 126.425 121.086 126.264 121.729 126.264C122.226 126.264 122.621 126.347 122.912 126.513C123.207 126.675 123.433 126.861 123.589 127.07C123.748 127.275 123.87 127.444 123.956 127.577H124.076V126.364H125.209V134.219C125.209 134.875 125.06 135.409 124.762 135.82C124.467 136.234 124.069 136.537 123.569 136.729C123.072 136.925 122.518 137.023 121.908 137.023ZM121.868 132.827C122.339 132.827 122.737 132.719 123.062 132.504C123.386 132.288 123.633 131.978 123.802 131.574C123.971 131.17 124.056 130.686 124.056 130.122C124.056 129.572 123.973 129.086 123.807 128.665C123.642 128.245 123.396 127.915 123.072 127.676C122.747 127.437 122.346 127.318 121.868 127.318C121.371 127.318 120.957 127.444 120.626 127.696C120.297 127.948 120.05 128.286 119.885 128.71C119.722 129.134 119.641 129.605 119.641 130.122C119.641 130.652 119.724 131.121 119.89 131.529C120.059 131.933 120.307 132.252 120.635 132.484C120.967 132.712 121.378 132.827 121.868 132.827ZM136.107 130.878V126.364H137.28V134H136.107V132.707H136.028C135.849 133.095 135.57 133.425 135.192 133.697C134.814 133.965 134.337 134.099 133.76 134.099C133.283 134.099 132.859 133.995 132.488 133.786C132.117 133.574 131.825 133.256 131.613 132.832C131.401 132.404 131.295 131.866 131.295 131.216V126.364H132.468V131.136C132.468 131.693 132.624 132.137 132.935 132.469C133.25 132.8 133.651 132.966 134.138 132.966C134.43 132.966 134.727 132.891 135.028 132.742C135.333 132.593 135.588 132.364 135.794 132.056C136.003 131.748 136.107 131.355 136.107 130.878ZM144.838 128.074L143.784 128.372C143.718 128.196 143.62 128.026 143.491 127.86C143.365 127.691 143.193 127.552 142.974 127.442C142.755 127.333 142.475 127.278 142.134 127.278C141.667 127.278 141.277 127.386 140.966 127.602C140.657 127.814 140.503 128.084 140.503 128.412C140.503 128.704 140.609 128.934 140.821 129.103C141.033 129.272 141.365 129.413 141.816 129.526L142.949 129.804C143.632 129.97 144.141 130.223 144.475 130.565C144.81 130.903 144.978 131.339 144.978 131.872C144.978 132.31 144.852 132.701 144.6 133.045C144.351 133.39 144.003 133.662 143.556 133.861C143.108 134.06 142.588 134.159 141.995 134.159C141.216 134.159 140.571 133.99 140.061 133.652C139.55 133.314 139.227 132.82 139.091 132.17L140.205 131.892C140.311 132.303 140.511 132.611 140.806 132.817C141.105 133.022 141.494 133.125 141.975 133.125C142.522 133.125 142.956 133.009 143.277 132.777C143.602 132.542 143.765 132.26 143.765 131.932C143.765 131.667 143.672 131.445 143.486 131.266C143.301 131.083 143.016 130.947 142.631 130.858L141.358 130.56C140.659 130.394 140.145 130.137 139.817 129.789C139.492 129.438 139.33 128.999 139.33 128.472C139.33 128.041 139.451 127.66 139.693 127.328C139.938 126.997 140.271 126.737 140.692 126.548C141.116 126.359 141.597 126.264 142.134 126.264C142.89 126.264 143.483 126.43 143.914 126.761C144.348 127.093 144.656 127.53 144.838 128.074ZM149.945 134.159C149.21 134.159 148.575 133.997 148.041 133.672C147.511 133.344 147.102 132.886 146.813 132.3C146.528 131.71 146.386 131.024 146.386 130.241C146.386 129.459 146.528 128.77 146.813 128.173C147.102 127.573 147.503 127.106 148.017 126.771C148.534 126.433 149.137 126.264 149.826 126.264C150.224 126.264 150.617 126.33 151.004 126.463C151.392 126.596 151.745 126.811 152.063 127.109C152.382 127.404 152.635 127.795 152.824 128.283C153.013 128.77 153.107 129.37 153.107 130.082V130.58H147.221V129.565H151.914C151.914 129.134 151.828 128.75 151.656 128.412C151.487 128.074 151.245 127.807 150.93 127.612C150.618 127.416 150.25 127.318 149.826 127.318C149.359 127.318 148.954 127.434 148.613 127.666C148.275 127.895 148.015 128.193 147.833 128.561C147.65 128.929 147.559 129.323 147.559 129.744V130.42C147.559 130.997 147.659 131.486 147.857 131.887C148.06 132.285 148.34 132.588 148.698 132.797C149.056 133.002 149.472 133.105 149.945 133.105C150.254 133.105 150.532 133.062 150.781 132.976C151.033 132.886 151.25 132.754 151.432 132.578C151.614 132.399 151.755 132.177 151.855 131.912L152.988 132.23C152.869 132.615 152.668 132.953 152.387 133.244C152.105 133.533 151.757 133.758 151.343 133.92C150.928 134.08 150.463 134.159 149.945 134.159ZM154.892 134V126.364H156.026V127.517H156.105C156.244 127.139 156.496 126.833 156.861 126.597C157.226 126.362 157.637 126.244 158.094 126.244C158.18 126.244 158.288 126.246 158.417 126.249C158.546 126.253 158.644 126.258 158.71 126.264V127.457C158.671 127.447 158.579 127.433 158.437 127.413C158.298 127.389 158.15 127.378 157.994 127.378C157.623 127.378 157.292 127.456 157 127.612C156.712 127.764 156.483 127.976 156.314 128.248C156.148 128.516 156.066 128.823 156.066 129.168V134H154.892ZM165.51 128.074L164.456 128.372C164.39 128.196 164.292 128.026 164.163 127.86C164.037 127.691 163.865 127.552 163.646 127.442C163.427 127.333 163.147 127.278 162.806 127.278C162.338 127.278 161.949 127.386 161.637 127.602C161.329 127.814 161.175 128.084 161.175 128.412C161.175 128.704 161.281 128.934 161.493 129.103C161.705 129.272 162.037 129.413 162.488 129.526L163.621 129.804C164.304 129.97 164.813 130.223 165.147 130.565C165.482 130.903 165.65 131.339 165.65 131.872C165.65 132.31 165.524 132.701 165.272 133.045C165.023 133.39 164.675 133.662 164.228 133.861C163.78 134.06 163.26 134.159 162.667 134.159C161.888 134.159 161.243 133.99 160.733 133.652C160.222 133.314 159.899 132.82 159.763 132.17L160.877 131.892C160.983 132.303 161.183 132.611 161.478 132.817C161.777 133.022 162.166 133.125 162.647 133.125C163.194 133.125 163.628 133.009 163.949 132.777C164.274 132.542 164.436 132.26 164.436 131.932C164.436 131.667 164.344 131.445 164.158 131.266C163.972 131.083 163.687 130.947 163.303 130.858L162.03 130.56C161.331 130.394 160.817 130.137 160.489 129.789C160.164 129.438 160.002 128.999 160.002 128.472C160.002 128.041 160.123 127.66 160.365 127.328C160.61 126.997 160.943 126.737 161.364 126.548C161.788 126.359 162.269 126.264 162.806 126.264C163.561 126.264 164.155 126.43 164.586 126.761C165.02 127.093 165.328 127.53 165.51 128.074Z" fill="white" fill-opacity="0.95"/>
<rect x="184.5" y="117" width="163" height="24" rx="4" fill="#262626"/>
<rect x="185" y="117.5" width="162" height="23" rx="3.5" stroke="white" stroke-opacity="0.5"/>
<path d="M197.681 134L194.897 123.818H196.15L198.278 132.111H198.377L200.545 123.818H201.937L204.104 132.111H204.204L206.332 123.818H207.584L204.8 134H203.528L201.28 125.886H201.201L198.954 134H197.681ZM211.452 134.159C210.717 134.159 210.082 133.997 209.548 133.672C209.018 133.344 208.609 132.886 208.32 132.3C208.035 131.71 207.893 131.024 207.893 130.241C207.893 129.459 208.035 128.77 208.32 128.173C208.609 127.573 209.01 127.106 209.523 126.771C210.04 126.433 210.644 126.264 211.333 126.264C211.731 126.264 212.123 126.33 212.511 126.463C212.899 126.596 213.252 126.811 213.57 127.109C213.888 127.404 214.142 127.795 214.331 128.283C214.52 128.77 214.614 129.37 214.614 130.082V130.58H208.728V129.565H213.421C213.421 129.134 213.335 128.75 213.163 128.412C212.994 128.074 212.752 127.807 212.437 127.612C212.125 127.416 211.757 127.318 211.333 127.318C210.866 127.318 210.461 127.434 210.12 127.666C209.782 127.895 209.522 128.193 209.339 128.561C209.157 128.929 209.066 129.323 209.066 129.744V130.42C209.066 130.997 209.165 131.486 209.364 131.887C209.566 132.285 209.847 132.588 210.204 132.797C210.562 133.002 210.978 133.105 211.452 133.105C211.761 133.105 212.039 133.062 212.288 132.976C212.539 132.886 212.757 132.754 212.939 132.578C213.121 132.399 213.262 132.177 213.361 131.912L214.495 132.23C214.376 132.615 214.175 132.953 213.893 133.244C213.612 133.533 213.264 133.758 212.849 133.92C212.435 134.08 211.969 134.159 211.452 134.159ZM216.558 134V123.818H217.731V127.577H217.831C217.917 127.444 218.036 127.275 218.189 127.07C218.345 126.861 218.567 126.675 218.855 126.513C219.147 126.347 219.541 126.264 220.038 126.264C220.681 126.264 221.248 126.425 221.739 126.746C222.229 127.068 222.612 127.524 222.887 128.114C223.162 128.704 223.3 129.4 223.3 130.202C223.3 131.01 223.162 131.711 222.887 132.305C222.612 132.895 222.231 133.352 221.744 133.677C221.256 133.998 220.695 134.159 220.058 134.159C219.568 134.159 219.175 134.078 218.88 133.915C218.585 133.75 218.358 133.562 218.199 133.354C218.04 133.142 217.917 132.966 217.831 132.827H217.692V134H216.558ZM217.712 130.182C217.712 130.759 217.796 131.267 217.965 131.708C218.134 132.146 218.381 132.489 218.706 132.737C219.031 132.982 219.428 133.105 219.899 133.105C220.39 133.105 220.799 132.976 221.127 132.717C221.458 132.455 221.707 132.104 221.873 131.663C222.042 131.219 222.126 130.725 222.126 130.182C222.126 129.645 222.043 129.161 221.878 128.73C221.715 128.296 221.468 127.953 221.137 127.701C220.809 127.446 220.396 127.318 219.899 127.318C219.422 127.318 219.021 127.439 218.696 127.681C218.371 127.92 218.126 128.254 217.96 128.685C217.794 129.113 217.712 129.612 217.712 130.182ZM228.296 134.159C227.56 134.159 226.926 133.997 226.392 133.672C225.862 133.344 225.452 132.886 225.164 132.3C224.879 131.71 224.736 131.024 224.736 130.241C224.736 129.459 224.879 128.77 225.164 128.173C225.452 127.573 225.853 127.106 226.367 126.771C226.884 126.433 227.487 126.264 228.177 126.264C228.574 126.264 228.967 126.33 229.355 126.463C229.743 126.596 230.096 126.811 230.414 127.109C230.732 127.404 230.986 127.795 231.175 128.283C231.364 128.77 231.458 129.37 231.458 130.082V130.58H225.572V129.565H230.265C230.265 129.134 230.179 128.75 230.006 128.412C229.837 128.074 229.595 127.807 229.28 127.612C228.969 127.416 228.601 127.318 228.177 127.318C227.709 127.318 227.305 127.434 226.964 127.666C226.626 127.895 226.365 128.193 226.183 128.561C226.001 128.929 225.91 129.323 225.91 129.744V130.42C225.91 130.997 226.009 131.486 226.208 131.887C226.41 132.285 226.69 132.588 227.048 132.797C227.406 133.002 227.822 133.105 228.296 133.105C228.604 133.105 228.883 133.062 229.131 132.976C229.383 132.886 229.6 132.754 229.783 132.578C229.965 132.399 230.106 132.177 230.205 131.912L231.339 132.23C231.219 132.615 231.019 132.953 230.737 133.244C230.455 133.533 230.107 133.758 229.693 133.92C229.279 134.08 228.813 134.159 228.296 134.159ZM233.913 126.364L235.742 129.486L237.572 126.364H238.924L236.458 130.182L238.924 134H237.572L235.742 131.037L233.913 134H232.56L234.987 130.182L232.56 126.364H233.913ZM244.695 123.818H246.166L249.627 132.27H249.746L253.206 123.818H254.678V134H253.524V126.264H253.425L250.243 134H249.13L245.948 126.264H245.848V134H244.695V123.818ZM260.193 134.159C259.457 134.159 258.822 133.997 258.288 133.672C257.758 133.344 257.349 132.886 257.06 132.3C256.775 131.71 256.633 131.024 256.633 130.241C256.633 129.459 256.775 128.77 257.06 128.173C257.349 127.573 257.75 127.106 258.264 126.771C258.781 126.433 259.384 126.264 260.073 126.264C260.471 126.264 260.864 126.33 261.252 126.463C261.639 126.596 261.992 126.811 262.31 127.109C262.629 127.404 262.882 127.795 263.071 128.283C263.26 128.77 263.354 129.37 263.354 130.082V130.58H257.468V129.565H262.161C262.161 129.134 262.075 128.75 261.903 128.412C261.734 128.074 261.492 127.807 261.177 127.612C260.865 127.416 260.497 127.318 260.073 127.318C259.606 127.318 259.202 127.434 258.86 127.666C258.522 127.895 258.262 128.193 258.08 128.561C257.897 128.929 257.806 129.323 257.806 129.744V130.42C257.806 130.997 257.906 131.486 258.104 131.887C258.307 132.285 258.587 132.588 258.945 132.797C259.303 133.002 259.719 133.105 260.193 133.105C260.501 133.105 260.779 133.062 261.028 132.976C261.28 132.886 261.497 132.754 261.679 132.578C261.861 132.399 262.002 132.177 262.102 131.912L263.235 132.23C263.116 132.615 262.915 132.953 262.634 133.244C262.352 133.533 262.004 133.758 261.59 133.92C261.175 134.08 260.71 134.159 260.193 134.159ZM268.341 134.159C267.605 134.159 266.97 133.997 266.437 133.672C265.907 133.344 265.497 132.886 265.209 132.3C264.924 131.71 264.781 131.024 264.781 130.241C264.781 129.459 264.924 128.77 265.209 128.173C265.497 127.573 265.898 127.106 266.412 126.771C266.929 126.433 267.532 126.264 268.222 126.264C268.619 126.264 269.012 126.33 269.4 126.463C269.788 126.596 270.141 126.811 270.459 127.109C270.777 127.404 271.031 127.795 271.22 128.283C271.408 128.77 271.503 129.37 271.503 130.082V130.58H265.617V129.565H270.31C270.31 129.134 270.224 128.75 270.051 128.412C269.882 128.074 269.64 127.807 269.325 127.612C269.014 127.416 268.646 127.318 268.222 127.318C267.754 127.318 267.35 127.434 267.009 127.666C266.671 127.895 266.41 128.193 266.228 128.561C266.046 128.929 265.955 129.323 265.955 129.744V130.42C265.955 130.997 266.054 131.486 266.253 131.887C266.455 132.285 266.735 132.588 267.093 132.797C267.451 133.002 267.867 133.105 268.341 133.105C268.649 133.105 268.928 133.062 269.176 132.976C269.428 132.886 269.645 132.754 269.828 132.578C270.01 132.399 270.151 132.177 270.25 131.912L271.384 132.23C271.264 132.615 271.064 132.953 270.782 133.244C270.5 133.533 270.152 133.758 269.738 133.92C269.324 134.08 268.858 134.159 268.341 134.159ZM276.609 126.364V127.358H272.651V126.364H276.609ZM273.805 124.534H274.978V131.812C274.978 132.144 275.026 132.393 275.122 132.558C275.222 132.721 275.348 132.83 275.5 132.886C275.656 132.939 275.82 132.966 275.992 132.966C276.122 132.966 276.228 132.959 276.31 132.946C276.393 132.929 276.46 132.916 276.509 132.906L276.748 133.96C276.668 133.99 276.557 134.02 276.415 134.05C276.272 134.083 276.092 134.099 275.873 134.099C275.542 134.099 275.217 134.028 274.899 133.886C274.584 133.743 274.322 133.526 274.113 133.234C273.908 132.943 273.805 132.575 273.805 132.131V124.534ZM278.374 134V126.364H279.547V134H278.374ZM278.97 125.091C278.742 125.091 278.544 125.013 278.379 124.857C278.216 124.701 278.135 124.514 278.135 124.295C278.135 124.077 278.216 123.889 278.379 123.734C278.544 123.578 278.742 123.5 278.97 123.5C279.199 123.5 279.395 123.578 279.557 123.734C279.723 123.889 279.805 124.077 279.805 124.295C279.805 124.514 279.723 124.701 279.557 124.857C279.395 125.013 279.199 125.091 278.97 125.091ZM282.869 129.406V134H281.696V126.364H282.829V127.557H282.929C283.108 127.169 283.38 126.857 283.744 126.622C284.109 126.384 284.579 126.264 285.156 126.264C285.673 126.264 286.126 126.37 286.513 126.582C286.901 126.791 287.203 127.109 287.418 127.537C287.634 127.961 287.741 128.498 287.741 129.148V134H286.568V129.227C286.568 128.627 286.412 128.16 286.101 127.825C285.789 127.487 285.362 127.318 284.818 127.318C284.444 127.318 284.109 127.399 283.814 127.562C283.522 127.724 283.292 127.961 283.123 128.273C282.954 128.584 282.869 128.962 282.869 129.406ZM292.968 137.023C292.401 137.023 291.914 136.95 291.506 136.804C291.098 136.661 290.759 136.473 290.487 136.237C290.218 136.005 290.005 135.757 289.846 135.491L290.78 134.835C290.886 134.974 291.021 135.134 291.183 135.312C291.345 135.495 291.567 135.652 291.849 135.785C292.134 135.921 292.507 135.989 292.968 135.989C293.584 135.989 294.093 135.839 294.494 135.541C294.895 135.243 295.096 134.776 295.096 134.139V132.588H294.996C294.91 132.727 294.787 132.9 294.628 133.105C294.473 133.307 294.247 133.488 293.952 133.647C293.66 133.803 293.266 133.881 292.769 133.881C292.152 133.881 291.599 133.735 291.108 133.443C290.621 133.152 290.235 132.727 289.95 132.17C289.668 131.614 289.527 130.937 289.527 130.142C289.527 129.36 289.665 128.679 289.94 128.099C290.215 127.515 290.598 127.065 291.089 126.746C291.579 126.425 292.146 126.264 292.789 126.264C293.286 126.264 293.68 126.347 293.972 126.513C294.267 126.675 294.492 126.861 294.648 127.07C294.807 127.275 294.93 127.444 295.016 127.577H295.135V126.364H296.269V134.219C296.269 134.875 296.12 135.409 295.821 135.82C295.526 136.234 295.129 136.537 294.628 136.729C294.131 136.925 293.578 137.023 292.968 137.023ZM292.928 132.827C293.399 132.827 293.796 132.719 294.121 132.504C294.446 132.288 294.693 131.978 294.862 131.574C295.031 131.17 295.116 130.686 295.116 130.122C295.116 129.572 295.033 129.086 294.867 128.665C294.701 128.245 294.456 127.915 294.131 127.676C293.806 127.437 293.405 127.318 292.928 127.318C292.431 127.318 292.017 127.444 291.685 127.696C291.357 127.948 291.11 128.286 290.944 128.71C290.782 129.134 290.701 129.605 290.701 130.122C290.701 130.652 290.784 131.121 290.949 131.529C291.118 131.933 291.367 132.252 291.695 132.484C292.026 132.712 292.437 132.827 292.928 132.827ZM307.167 130.878V126.364H308.34V134H307.167V132.707H307.087C306.908 133.095 306.63 133.425 306.252 133.697C305.874 133.965 305.397 134.099 304.82 134.099C304.343 134.099 303.919 133.995 303.547 133.786C303.176 133.574 302.884 133.256 302.672 132.832C302.46 132.404 302.354 131.866 302.354 131.216V126.364H303.527V131.136C303.527 131.693 303.683 132.137 303.995 132.469C304.31 132.8 304.711 132.966 305.198 132.966C305.49 132.966 305.786 132.891 306.088 132.742C306.393 132.593 306.648 132.364 306.853 132.056C307.062 131.748 307.167 131.355 307.167 130.878ZM315.898 128.074L314.844 128.372C314.778 128.196 314.68 128.026 314.551 127.86C314.425 127.691 314.252 127.552 314.034 127.442C313.815 127.333 313.535 127.278 313.193 127.278C312.726 127.278 312.337 127.386 312.025 127.602C311.717 127.814 311.563 128.084 311.563 128.412C311.563 128.704 311.669 128.934 311.881 129.103C312.093 129.272 312.425 129.413 312.875 129.526L314.009 129.804C314.692 129.97 315.2 130.223 315.535 130.565C315.87 130.903 316.037 131.339 316.037 131.872C316.037 132.31 315.911 132.701 315.659 133.045C315.411 133.39 315.063 133.662 314.615 133.861C314.168 134.06 313.648 134.159 313.054 134.159C312.275 134.159 311.631 133.99 311.12 133.652C310.61 133.314 310.287 132.82 310.151 132.17L311.264 131.892C311.371 132.303 311.571 132.611 311.866 132.817C312.164 133.022 312.554 133.125 313.034 133.125C313.581 133.125 314.015 133.009 314.337 132.777C314.662 132.542 314.824 132.26 314.824 131.932C314.824 131.667 314.731 131.445 314.546 131.266C314.36 131.083 314.075 130.947 313.691 130.858L312.418 130.56C311.719 130.394 311.205 130.137 310.877 129.789C310.552 129.438 310.389 128.999 310.389 128.472C310.389 128.041 310.51 127.66 310.752 127.328C310.998 126.997 311.331 126.737 311.752 126.548C312.176 126.359 312.657 126.264 313.193 126.264C313.949 126.264 314.542 126.43 314.973 126.761C315.407 127.093 315.716 127.53 315.898 128.074ZM321.005 134.159C320.269 134.159 319.635 133.997 319.101 133.672C318.571 133.344 318.161 132.886 317.873 132.3C317.588 131.71 317.445 131.024 317.445 130.241C317.445 129.459 317.588 128.77 317.873 128.173C318.161 127.573 318.562 127.106 319.076 126.771C319.593 126.433 320.196 126.264 320.886 126.264C321.283 126.264 321.676 126.33 322.064 126.463C322.452 126.596 322.805 126.811 323.123 127.109C323.441 127.404 323.695 127.795 323.884 128.283C324.073 128.77 324.167 129.37 324.167 130.082V130.58H318.281V129.565H322.974C322.974 129.134 322.888 128.75 322.715 128.412C322.546 128.074 322.304 127.807 321.989 127.612C321.678 127.416 321.31 127.318 320.886 127.318C320.418 127.318 320.014 127.434 319.673 127.666C319.335 127.895 319.074 128.193 318.892 128.561C318.71 128.929 318.619 129.323 318.619 129.744V130.42C318.619 130.997 318.718 131.486 318.917 131.887C319.119 132.285 319.399 132.588 319.757 132.797C320.115 133.002 320.531 133.105 321.005 133.105C321.313 133.105 321.592 133.062 321.84 132.976C322.092 132.886 322.309 132.754 322.492 132.578C322.674 132.399 322.815 132.177 322.914 131.912L324.048 132.23C323.928 132.615 323.728 132.953 323.446 133.244C323.164 133.533 322.816 133.758 322.402 133.92C321.988 134.08 321.522 134.159 321.005 134.159ZM325.952 134V126.364H327.085V127.517H327.165C327.304 127.139 327.556 126.833 327.921 126.597C328.285 126.362 328.696 126.244 329.153 126.244C329.24 126.244 329.347 126.246 329.477 126.249C329.606 126.253 329.704 126.258 329.77 126.264V127.457C329.73 127.447 329.639 127.433 329.497 127.413C329.357 127.389 329.21 127.378 329.054 127.378C328.683 127.378 328.351 127.456 328.06 127.612C327.771 127.764 327.543 127.976 327.374 128.248C327.208 128.516 327.125 128.823 327.125 129.168V134H325.952ZM336.57 128.074L335.516 128.372C335.45 128.196 335.352 128.026 335.223 127.86C335.097 127.691 334.924 127.552 334.706 127.442C334.487 127.333 334.207 127.278 333.865 127.278C333.398 127.278 333.009 127.386 332.697 127.602C332.389 127.814 332.235 128.084 332.235 128.412C332.235 128.704 332.341 128.934 332.553 129.103C332.765 129.272 333.096 129.413 333.547 129.526L334.681 129.804C335.363 129.97 335.872 130.223 336.207 130.565C336.542 130.903 336.709 131.339 336.709 131.872C336.709 132.31 336.583 132.701 336.331 133.045C336.083 133.39 335.735 133.662 335.287 133.861C334.84 134.06 334.319 134.159 333.726 134.159C332.947 134.159 332.303 133.99 331.792 133.652C331.282 133.314 330.959 132.82 330.823 132.17L331.936 131.892C332.042 132.303 332.243 132.611 332.538 132.817C332.836 133.022 333.226 133.125 333.706 133.125C334.253 133.125 334.687 133.009 335.009 132.777C335.334 132.542 335.496 132.26 335.496 131.932C335.496 131.667 335.403 131.445 335.218 131.266C335.032 131.083 334.747 130.947 334.362 130.858L333.09 130.56C332.39 130.394 331.877 130.137 331.549 129.789C331.224 129.438 331.061 128.999 331.061 128.472C331.061 128.041 331.182 127.66 331.424 127.328C331.67 126.997 332.003 126.737 332.424 126.548C332.848 126.359 333.328 126.264 333.865 126.264C334.621 126.264 335.214 126.43 335.645 126.761C336.079 127.093 336.388 127.53 336.57 128.074Z" fill="white" fill-opacity="0.95"/>
<rect x="355.5" y="117" width="181" height="24" rx="4" fill="#262626"/>
<rect x="356" y="117.5" width="180" height="23" rx="3.5" stroke="white" stroke-opacity="0.5"/>
<path d="M368.774 134L365.99 123.818H367.243L369.37 132.111H369.47L371.637 123.818H373.029L375.197 132.111H375.297L377.424 123.818H378.677L375.893 134H374.62L372.373 125.886H372.294L370.047 134H368.774ZM382.545 134.159C381.809 134.159 381.175 133.997 380.641 133.672C380.111 133.344 379.701 132.886 379.413 132.3C379.128 131.71 378.985 131.024 378.985 130.241C378.985 129.459 379.128 128.77 379.413 128.173C379.701 127.573 380.102 127.106 380.616 126.771C381.133 126.433 381.736 126.264 382.426 126.264C382.824 126.264 383.216 126.33 383.604 126.463C383.992 126.596 384.345 126.811 384.663 127.109C384.981 127.404 385.235 127.795 385.424 128.283C385.613 128.77 385.707 129.37 385.707 130.082V130.58H379.821V129.565H384.514C384.514 129.134 384.428 128.75 384.255 128.412C384.086 128.074 383.844 127.807 383.529 127.612C383.218 127.416 382.85 127.318 382.426 127.318C381.958 127.318 381.554 127.434 381.213 127.666C380.875 127.895 380.614 128.193 380.432 128.561C380.25 128.929 380.159 129.323 380.159 129.744V130.42C380.159 130.997 380.258 131.486 380.457 131.887C380.659 132.285 380.939 132.588 381.297 132.797C381.655 133.002 382.071 133.105 382.545 133.105C382.853 133.105 383.132 133.062 383.38 132.976C383.632 132.886 383.849 132.754 384.032 132.578C384.214 132.399 384.355 132.177 384.454 131.912L385.588 132.23C385.468 132.615 385.268 132.953 384.986 133.244C384.704 133.533 384.356 133.758 383.942 133.92C383.528 134.08 383.062 134.159 382.545 134.159ZM387.651 134V123.818H388.824V127.577H388.924C389.01 127.444 389.129 127.275 389.282 127.07C389.437 126.861 389.659 126.675 389.948 126.513C390.239 126.347 390.634 126.264 391.131 126.264C391.774 126.264 392.341 126.425 392.831 126.746C393.322 127.068 393.705 127.524 393.98 128.114C394.255 128.704 394.392 129.4 394.392 130.202C394.392 131.01 394.255 131.711 393.98 132.305C393.705 132.895 393.324 133.352 392.836 133.677C392.349 133.998 391.787 134.159 391.151 134.159C390.66 134.159 390.268 134.078 389.973 133.915C389.678 133.75 389.451 133.562 389.292 133.354C389.132 133.142 389.01 132.966 388.924 132.827H388.784V134H387.651ZM388.804 130.182C388.804 130.759 388.889 131.267 389.058 131.708C389.227 132.146 389.474 132.489 389.799 132.737C390.123 132.982 390.521 133.105 390.992 133.105C391.482 133.105 391.892 132.976 392.22 132.717C392.551 132.455 392.8 132.104 392.966 131.663C393.135 131.219 393.219 130.725 393.219 130.182C393.219 129.645 393.136 129.161 392.971 128.73C392.808 128.296 392.561 127.953 392.23 127.701C391.902 127.446 391.489 127.318 390.992 127.318C390.515 127.318 390.114 127.439 389.789 127.681C389.464 127.92 389.219 128.254 389.053 128.685C388.887 129.113 388.804 129.612 388.804 130.182ZM399.389 134.159C398.653 134.159 398.018 133.997 397.485 133.672C396.954 133.344 396.545 132.886 396.257 132.3C395.972 131.71 395.829 131.024 395.829 130.241C395.829 129.459 395.972 128.77 396.257 128.173C396.545 127.573 396.946 127.106 397.46 126.771C397.977 126.433 398.58 126.264 399.27 126.264C399.667 126.264 400.06 126.33 400.448 126.463C400.836 126.596 401.189 126.811 401.507 127.109C401.825 127.404 402.078 127.795 402.267 128.283C402.456 128.77 402.551 129.37 402.551 130.082V130.58H396.664V129.565H401.358C401.358 129.134 401.271 128.75 401.099 128.412C400.93 128.074 400.688 127.807 400.373 127.612C400.062 127.416 399.694 127.318 399.27 127.318C398.802 127.318 398.398 127.434 398.056 127.666C397.718 127.895 397.458 128.193 397.276 128.561C397.094 128.929 397.002 129.323 397.002 129.744V130.42C397.002 130.997 397.102 131.486 397.301 131.887C397.503 132.285 397.783 132.588 398.141 132.797C398.499 133.002 398.915 133.105 399.389 133.105C399.697 133.105 399.975 133.062 400.224 132.976C400.476 132.886 400.693 132.754 400.875 132.578C401.058 132.399 401.199 132.177 401.298 131.912L402.431 132.23C402.312 132.615 402.112 132.953 401.83 133.244C401.548 133.533 401.2 133.758 400.786 133.92C400.372 134.08 399.906 134.159 399.389 134.159ZM405.006 126.364L406.835 129.486L408.665 126.364H410.017L407.551 130.182L410.017 134H408.665L406.835 131.037L405.006 134H403.653L406.079 130.182L403.653 126.364H405.006ZM415.788 123.818H417.259L420.719 132.27H420.839L424.299 123.818H425.771V134H424.617V126.264H424.518L421.336 134H420.222L417.04 126.264H416.941V134H415.788V123.818ZM431.285 134.159C430.55 134.159 429.915 133.997 429.381 133.672C428.851 133.344 428.442 132.886 428.153 132.3C427.868 131.71 427.726 131.024 427.726 130.241C427.726 129.459 427.868 128.77 428.153 128.173C428.442 127.573 428.843 127.106 429.356 126.771C429.873 126.433 430.477 126.264 431.166 126.264C431.564 126.264 431.956 126.33 432.344 126.463C432.732 126.596 433.085 126.811 433.403 127.109C433.721 127.404 433.975 127.795 434.164 128.283C434.353 128.77 434.447 129.37 434.447 130.082V130.58H428.561V129.565H433.254C433.254 129.134 433.168 128.75 432.996 128.412C432.827 128.074 432.585 127.807 432.27 127.612C431.958 127.416 431.59 127.318 431.166 127.318C430.699 127.318 430.294 127.434 429.953 127.666C429.615 127.895 429.355 128.193 429.172 128.561C428.99 128.929 428.899 129.323 428.899 129.744V130.42C428.899 130.997 428.998 131.486 429.197 131.887C429.399 132.285 429.68 132.588 430.037 132.797C430.395 133.002 430.811 133.105 431.285 133.105C431.594 133.105 431.872 133.062 432.121 132.976C432.372 132.886 432.59 132.754 432.772 132.578C432.954 132.399 433.095 132.177 433.194 131.912L434.328 132.23C434.209 132.615 434.008 132.953 433.726 133.244C433.445 133.533 433.097 133.758 432.682 133.92C432.268 134.08 431.802 134.159 431.285 134.159ZM441.641 128.074L440.587 128.372C440.521 128.196 440.423 128.026 440.294 127.86C440.168 127.691 439.996 127.552 439.777 127.442C439.558 127.333 439.278 127.278 438.937 127.278C438.469 127.278 438.08 127.386 437.768 127.602C437.46 127.814 437.306 128.084 437.306 128.412C437.306 128.704 437.412 128.934 437.624 129.103C437.836 129.272 438.168 129.413 438.618 129.526L439.752 129.804C440.435 129.97 440.943 130.223 441.278 130.565C441.613 130.903 441.78 131.339 441.78 131.872C441.78 132.31 441.654 132.701 441.403 133.045C441.154 133.39 440.806 133.662 440.358 133.861C439.911 134.06 439.391 134.159 438.797 134.159C438.019 134.159 437.374 133.99 436.863 133.652C436.353 133.314 436.03 132.82 435.894 132.17L437.008 131.892C437.114 132.303 437.314 132.611 437.609 132.817C437.907 133.022 438.297 133.125 438.778 133.125C439.324 133.125 439.759 133.009 440.08 132.777C440.405 132.542 440.567 132.26 440.567 131.932C440.567 131.667 440.474 131.445 440.289 131.266C440.103 131.083 439.818 130.947 439.434 130.858L438.161 130.56C437.462 130.394 436.948 130.137 436.62 129.789C436.295 129.438 436.133 128.999 436.133 128.472C436.133 128.041 436.254 127.66 436.496 127.328C436.741 126.997 437.074 126.737 437.495 126.548C437.919 126.359 438.4 126.264 438.937 126.264C439.692 126.264 440.286 126.43 440.716 126.761C441.151 127.093 441.459 127.53 441.641 128.074ZM448.956 128.074L447.902 128.372C447.835 128.196 447.738 128.026 447.608 127.86C447.482 127.691 447.31 127.552 447.091 127.442C446.873 127.333 446.592 127.278 446.251 127.278C445.784 127.278 445.394 127.386 445.083 127.602C444.775 127.814 444.62 128.084 444.62 128.412C444.62 128.704 444.726 128.934 444.939 129.103C445.151 129.272 445.482 129.413 445.933 129.526L447.066 129.804C447.749 129.97 448.258 130.223 448.593 130.565C448.927 130.903 449.095 131.339 449.095 131.872C449.095 132.31 448.969 132.701 448.717 133.045C448.468 133.39 448.12 133.662 447.673 133.861C447.225 134.06 446.705 134.159 446.112 134.159C445.333 134.159 444.688 133.99 444.178 133.652C443.667 133.314 443.344 132.82 443.208 132.17L444.322 131.892C444.428 132.303 444.629 132.611 444.924 132.817C445.222 133.022 445.611 133.125 446.092 133.125C446.639 133.125 447.073 133.009 447.395 132.777C447.719 132.542 447.882 132.26 447.882 131.932C447.882 131.667 447.789 131.445 447.603 131.266C447.418 131.083 447.133 130.947 446.748 130.858L445.475 130.56C444.776 130.394 444.262 130.137 443.934 129.789C443.609 129.438 443.447 128.999 443.447 128.472C443.447 128.041 443.568 127.66 443.81 127.328C444.055 126.997 444.388 126.737 444.809 126.548C445.234 126.359 445.714 126.264 446.251 126.264C447.007 126.264 447.6 126.43 448.031 126.761C448.465 127.093 448.773 127.53 448.956 128.074ZM453.108 134.179C452.624 134.179 452.185 134.088 451.791 133.906C451.396 133.72 451.083 133.453 450.851 133.105C450.619 132.754 450.503 132.33 450.503 131.832C450.503 131.395 450.589 131.04 450.762 130.768C450.934 130.493 451.164 130.278 451.453 130.122C451.741 129.966 452.059 129.85 452.407 129.774C452.758 129.695 453.111 129.632 453.466 129.585C453.93 129.526 454.306 129.481 454.595 129.451C454.886 129.418 455.098 129.363 455.231 129.287C455.367 129.211 455.435 129.078 455.435 128.889V128.849C455.435 128.359 455.301 127.978 455.032 127.706C454.767 127.434 454.364 127.298 453.824 127.298C453.264 127.298 452.825 127.421 452.507 127.666C452.188 127.911 451.965 128.173 451.835 128.452L450.722 128.054C450.921 127.59 451.186 127.229 451.517 126.97C451.852 126.708 452.217 126.526 452.611 126.423C453.009 126.317 453.4 126.264 453.784 126.264C454.03 126.264 454.311 126.294 454.629 126.354C454.951 126.41 455.261 126.528 455.559 126.707C455.861 126.886 456.111 127.156 456.31 127.517C456.509 127.878 456.608 128.362 456.608 128.969V134H455.435V132.966H455.375C455.296 133.132 455.163 133.309 454.977 133.498C454.792 133.687 454.545 133.848 454.237 133.98C453.928 134.113 453.552 134.179 453.108 134.179ZM453.287 133.125C453.751 133.125 454.142 133.034 454.46 132.852C454.782 132.669 455.024 132.434 455.186 132.146C455.352 131.857 455.435 131.554 455.435 131.236V130.162C455.385 130.222 455.276 130.276 455.107 130.326C454.941 130.372 454.749 130.414 454.53 130.45C454.315 130.483 454.104 130.513 453.899 130.54C453.696 130.563 453.532 130.583 453.406 130.599C453.102 130.639 452.816 130.704 452.551 130.793C452.289 130.879 452.077 131.01 451.915 131.186C451.756 131.358 451.676 131.594 451.676 131.892C451.676 132.3 451.827 132.608 452.129 132.817C452.434 133.022 452.82 133.125 453.287 133.125ZM461.832 137.023C461.265 137.023 460.778 136.95 460.37 136.804C459.963 136.661 459.623 136.473 459.351 136.237C459.083 136.005 458.869 135.757 458.71 135.491L459.645 134.835C459.751 134.974 459.885 135.134 460.047 135.312C460.21 135.495 460.432 135.652 460.713 135.785C460.998 135.921 461.371 135.989 461.832 135.989C462.449 135.989 462.957 135.839 463.358 135.541C463.759 135.243 463.96 134.776 463.96 134.139V132.588H463.86C463.774 132.727 463.652 132.9 463.493 133.105C463.337 133.307 463.111 133.488 462.816 133.647C462.525 133.803 462.13 133.881 461.633 133.881C461.017 133.881 460.463 133.735 459.973 133.443C459.485 133.152 459.099 132.727 458.814 132.17C458.533 131.614 458.392 130.937 458.392 130.142C458.392 129.36 458.529 128.679 458.804 128.099C459.079 127.515 459.462 127.065 459.953 126.746C460.443 126.425 461.01 126.264 461.653 126.264C462.15 126.264 462.545 126.347 462.836 126.513C463.131 126.675 463.357 126.861 463.512 127.07C463.672 127.275 463.794 127.444 463.88 127.577H464V126.364H465.133V134.219C465.133 134.875 464.984 135.409 464.686 135.82C464.391 136.234 463.993 136.537 463.493 136.729C462.995 136.925 462.442 137.023 461.832 137.023ZM461.792 132.827C462.263 132.827 462.661 132.719 462.985 132.504C463.31 132.288 463.557 131.978 463.726 131.574C463.895 131.17 463.98 130.686 463.98 130.122C463.98 129.572 463.897 129.086 463.731 128.665C463.565 128.245 463.32 127.915 462.995 127.676C462.671 127.437 462.27 127.318 461.792 127.318C461.295 127.318 460.881 127.444 460.549 127.696C460.221 127.948 459.974 128.286 459.809 128.71C459.646 129.134 459.565 129.605 459.565 130.122C459.565 130.652 459.648 131.121 459.814 131.529C459.983 131.933 460.231 132.252 460.559 132.484C460.891 132.712 461.302 132.827 461.792 132.827ZM467.281 134V126.364H468.454V134H467.281ZM467.877 125.091C467.649 125.091 467.452 125.013 467.286 124.857C467.123 124.701 467.042 124.514 467.042 124.295C467.042 124.077 467.123 123.889 467.286 123.734C467.452 123.578 467.649 123.5 467.877 123.5C468.106 123.5 468.302 123.578 468.464 123.734C468.63 123.889 468.713 124.077 468.713 124.295C468.713 124.514 468.63 124.701 468.464 124.857C468.302 125.013 468.106 125.091 467.877 125.091ZM471.776 129.406V134H470.603V126.364H471.737V127.557H471.836C472.015 127.169 472.287 126.857 472.651 126.622C473.016 126.384 473.487 126.264 474.063 126.264C474.58 126.264 475.033 126.37 475.421 126.582C475.808 126.791 476.11 127.109 476.325 127.537C476.541 127.961 476.649 128.498 476.649 129.148V134H475.475V129.227C475.475 128.627 475.32 128.16 475.008 127.825C474.696 127.487 474.269 127.318 473.725 127.318C473.351 127.318 473.016 127.399 472.721 127.562C472.429 127.724 472.199 127.961 472.03 128.273C471.861 128.584 471.776 128.962 471.776 129.406ZM481.875 137.023C481.308 137.023 480.821 136.95 480.413 136.804C480.006 136.661 479.666 136.473 479.394 136.237C479.126 136.005 478.912 135.757 478.753 135.491L479.688 134.835C479.794 134.974 479.928 135.134 480.09 135.312C480.253 135.495 480.475 135.652 480.756 135.785C481.041 135.921 481.414 135.989 481.875 135.989C482.491 135.989 483 135.839 483.401 135.541C483.802 135.243 484.003 134.776 484.003 134.139V132.588H483.903C483.817 132.727 483.695 132.9 483.536 133.105C483.38 133.307 483.154 133.488 482.859 133.647C482.568 133.803 482.173 133.881 481.676 133.881C481.06 133.881 480.506 133.735 480.016 133.443C479.528 133.152 479.142 132.727 478.857 132.17C478.576 131.614 478.435 130.937 478.435 130.142C478.435 129.36 478.572 128.679 478.847 128.099C479.122 127.515 479.505 127.065 479.996 126.746C480.486 126.425 481.053 126.264 481.696 126.264C482.193 126.264 482.588 126.347 482.879 126.513C483.174 126.675 483.4 126.861 483.555 127.07C483.714 127.275 483.837 127.444 483.923 127.577H484.043V126.364H485.176V134.219C485.176 134.875 485.027 135.409 484.729 135.82C484.434 136.234 484.036 136.537 483.536 136.729C483.038 136.925 482.485 137.023 481.875 137.023ZM481.835 132.827C482.306 132.827 482.704 132.719 483.028 132.504C483.353 132.288 483.6 131.978 483.769 131.574C483.938 131.17 484.023 130.686 484.023 130.122C484.023 129.572 483.94 129.086 483.774 128.665C483.608 128.245 483.363 127.915 483.038 127.676C482.714 127.437 482.313 127.318 481.835 127.318C481.338 127.318 480.924 127.444 480.592 127.696C480.264 127.948 480.017 128.286 479.852 128.71C479.689 129.134 479.608 129.605 479.608 130.122C479.608 130.652 479.691 131.121 479.857 131.529C480.026 131.933 480.274 132.252 480.602 132.484C480.934 132.712 481.345 132.827 481.835 132.827ZM496.074 130.878V126.364H497.247V134H496.074V132.707H495.994C495.815 133.095 495.537 133.425 495.159 133.697C494.781 133.965 494.304 134.099 493.727 134.099C493.25 134.099 492.826 133.995 492.455 133.786C492.083 133.574 491.792 133.256 491.58 132.832C491.367 132.404 491.261 131.866 491.261 131.216V126.364H492.435V131.136C492.435 131.693 492.59 132.137 492.902 132.469C493.217 132.8 493.618 132.966 494.105 132.966C494.397 132.966 494.693 132.891 494.995 132.742C495.3 132.593 495.555 132.364 495.761 132.056C495.969 131.748 496.074 131.355 496.074 130.878ZM504.805 128.074L503.751 128.372C503.685 128.196 503.587 128.026 503.458 127.86C503.332 127.691 503.16 127.552 502.941 127.442C502.722 127.333 502.442 127.278 502.101 127.278C501.633 127.278 501.244 127.386 500.932 127.602C500.624 127.814 500.47 128.084 500.47 128.412C500.47 128.704 500.576 128.934 500.788 129.103C501 129.272 501.332 129.413 501.782 129.526L502.916 129.804C503.599 129.97 504.108 130.223 504.442 130.565C504.777 130.903 504.944 131.339 504.944 131.872C504.944 132.31 504.818 132.701 504.567 133.045C504.318 133.39 503.97 133.662 503.523 133.861C503.075 134.06 502.555 134.159 501.961 134.159C501.183 134.159 500.538 133.99 500.028 133.652C499.517 133.314 499.194 132.82 499.058 132.17L500.172 131.892C500.278 132.303 500.478 132.611 500.773 132.817C501.072 133.022 501.461 133.125 501.942 133.125C502.488 133.125 502.923 133.009 503.244 132.777C503.569 132.542 503.731 132.26 503.731 131.932C503.731 131.667 503.639 131.445 503.453 131.266C503.267 131.083 502.982 130.947 502.598 130.858L501.325 130.56C500.626 130.394 500.112 130.137 499.784 129.789C499.459 129.438 499.297 128.999 499.297 128.472C499.297 128.041 499.418 127.66 499.66 127.328C499.905 126.997 500.238 126.737 500.659 126.548C501.083 126.359 501.564 126.264 502.101 126.264C502.856 126.264 503.45 126.43 503.881 126.761C504.315 127.093 504.623 127.53 504.805 128.074ZM509.912 134.159C509.176 134.159 508.542 133.997 508.008 133.672C507.478 133.344 507.069 132.886 506.78 132.3C506.495 131.71 506.353 131.024 506.353 130.241C506.353 129.459 506.495 128.77 506.78 128.173C507.069 127.573 507.47 127.106 507.983 126.771C508.5 126.433 509.104 126.264 509.793 126.264C510.191 126.264 510.583 126.33 510.971 126.463C511.359 126.596 511.712 126.811 512.03 127.109C512.348 127.404 512.602 127.795 512.791 128.283C512.98 128.77 513.074 129.37 513.074 130.082V130.58H507.188V129.565H511.881C511.881 129.134 511.795 128.75 511.623 128.412C511.453 128.074 511.212 127.807 510.897 127.612C510.585 127.416 510.217 127.318 509.793 127.318C509.326 127.318 508.921 127.434 508.58 127.666C508.242 127.895 507.982 128.193 507.799 128.561C507.617 128.929 507.526 129.323 507.526 129.744V130.42C507.526 130.997 507.625 131.486 507.824 131.887C508.026 132.285 508.306 132.588 508.664 132.797C509.022 133.002 509.438 133.105 509.912 133.105C510.221 133.105 510.499 133.062 510.748 132.976C510.999 132.886 511.217 132.754 511.399 132.578C511.581 132.399 511.722 132.177 511.821 131.912L512.955 132.23C512.836 132.615 512.635 132.953 512.353 133.244C512.072 133.533 511.724 133.758 511.309 133.92C510.895 134.08 510.429 134.159 509.912 134.159ZM514.859 134V126.364H515.993V127.517H516.072C516.211 127.139 516.463 126.833 516.828 126.597C517.192 126.362 517.603 126.244 518.061 126.244C518.147 126.244 518.255 126.246 518.384 126.249C518.513 126.253 518.611 126.258 518.677 126.264V127.457C518.637 127.447 518.546 127.433 518.404 127.413C518.265 127.389 518.117 127.378 517.961 127.378C517.59 127.378 517.259 127.456 516.967 127.612C516.679 127.764 516.45 127.976 516.281 128.248C516.115 128.516 516.032 128.823 516.032 129.168V134H514.859ZM525.477 128.074L524.423 128.372C524.357 128.196 524.259 128.026 524.13 127.86C524.004 127.691 523.831 127.552 523.613 127.442C523.394 127.333 523.114 127.278 522.773 127.278C522.305 127.278 521.916 127.386 521.604 127.602C521.296 127.814 521.142 128.084 521.142 128.412C521.142 128.704 521.248 128.934 521.46 129.103C521.672 129.272 522.004 129.413 522.454 129.526L523.588 129.804C524.271 129.97 524.779 130.223 525.114 130.565C525.449 130.903 525.616 131.339 525.616 131.872C525.616 132.31 525.49 132.701 525.238 133.045C524.99 133.39 524.642 133.662 524.194 133.861C523.747 134.06 523.227 134.159 522.633 134.159C521.854 134.159 521.21 133.99 520.699 133.652C520.189 133.314 519.866 132.82 519.73 132.17L520.844 131.892C520.95 132.303 521.15 132.611 521.445 132.817C521.743 133.022 522.133 133.125 522.613 133.125C523.16 133.125 523.595 133.009 523.916 132.777C524.241 132.542 524.403 132.26 524.403 131.932C524.403 131.667 524.31 131.445 524.125 131.266C523.939 131.083 523.654 130.947 523.27 130.858L521.997 130.56C521.298 130.394 520.784 130.137 520.456 129.789C520.131 129.438 519.969 128.999 519.969 128.472C519.969 128.041 520.09 127.66 520.331 127.328C520.577 126.997 520.91 126.737 521.331 126.548C521.755 126.359 522.236 126.264 522.773 126.264C523.528 126.264 524.122 126.43 524.552 126.761C524.987 127.093 525.295 127.53 525.477 128.074Z" fill="white" fill-opacity="0.95"/>
<path d="M0 243H559C559 255.703 548.703 266 536 266H23C10.2975 266 0 255.703 0 243Z" fill="url(#paint0_linear_1090_29584)"/>
<defs>
<linearGradient id="paint0_linear_1090_29584" x1="279.5" y1="243" x2="279.5" y2="266" gradientUnits="userSpaceOnUse">
<stop stop-color="#F0677E"/>
<stop offset="1" stop-color="#DB1F2E"/>
</linearGradient>
</defs>
</svg>
