<svg width="559" height="208" viewBox="0 0 559 208" fill="none" xmlns="http://www.w3.org/2000/svg">
<rect width="559" height="208" rx="20" fill="#262626"/>
<g filter="url(#filter0_d_1118_31614)">
<path d="M132.4 75V64.8182H133.633V73.9062H138.366V75H132.4ZM142.363 75.179C141.879 75.179 141.44 75.0878 141.045 74.9055C140.651 74.7199 140.338 74.4531 140.106 74.1051C139.874 73.7538 139.758 73.3295 139.758 72.8324C139.758 72.3949 139.844 72.0402 140.016 71.7685C140.188 71.4934 140.419 71.2779 140.707 71.1222C140.996 70.9664 141.314 70.8504 141.662 70.7741C142.013 70.6946 142.366 70.6316 142.721 70.5852C143.185 70.5256 143.561 70.4808 143.849 70.451C144.141 70.4179 144.353 70.3632 144.486 70.2869C144.621 70.2107 144.689 70.0781 144.689 69.8892V69.8494C144.689 69.3589 144.555 68.9777 144.287 68.706C144.022 68.4342 143.619 68.2983 143.079 68.2983C142.518 68.2983 142.079 68.4209 141.761 68.6662C141.443 68.9115 141.219 69.1733 141.09 69.4517L139.976 69.054C140.175 68.59 140.44 68.2287 140.772 67.9702C141.107 67.7083 141.471 67.526 141.866 67.4233C142.263 67.3172 142.654 67.2642 143.039 67.2642C143.284 67.2642 143.566 67.294 143.884 67.3537C144.206 67.41 144.515 67.5277 144.814 67.7067C145.115 67.8857 145.366 68.1558 145.564 68.517C145.763 68.8783 145.863 69.3622 145.863 69.9688V75H144.689V73.9659H144.63C144.55 74.1316 144.418 74.3089 144.232 74.4979C144.046 74.6868 143.799 74.8475 143.491 74.9801C143.183 75.1127 142.807 75.179 142.363 75.179ZM142.542 74.125C143.006 74.125 143.397 74.0339 143.715 73.8516C144.036 73.6693 144.278 73.4339 144.441 73.1456C144.607 72.8572 144.689 72.554 144.689 72.2358V71.1619C144.64 71.2216 144.53 71.2763 144.361 71.326C144.196 71.3724 144.003 71.4138 143.785 71.4503C143.569 71.4834 143.359 71.5133 143.153 71.5398C142.951 71.563 142.787 71.5829 142.661 71.5994C142.356 71.6392 142.071 71.7038 141.806 71.7933C141.544 71.8795 141.332 72.0104 141.17 72.1861C141.01 72.3584 140.931 72.5937 140.931 72.892C140.931 73.2997 141.082 73.608 141.383 73.8168C141.688 74.0223 142.074 74.125 142.542 74.125ZM148.163 75V64.8182H149.337V68.5767H149.436C149.522 68.4441 149.642 68.2751 149.794 68.0696C149.95 67.8608 150.172 67.6752 150.46 67.5128C150.752 67.3471 151.146 67.2642 151.643 67.2642C152.286 67.2642 152.853 67.425 153.344 67.7464C153.834 68.0679 154.217 68.5237 154.492 69.1136C154.767 69.7036 154.905 70.3996 154.905 71.2017C154.905 72.0104 154.767 72.7114 154.492 73.3047C154.217 73.8946 153.836 74.352 153.349 74.6768C152.861 74.9983 152.3 75.1591 151.663 75.1591C151.173 75.1591 150.78 75.0779 150.485 74.9155C150.19 74.7498 149.963 74.5625 149.804 74.3537C149.645 74.1416 149.522 73.9659 149.436 73.8267H149.297V75H148.163ZM149.317 71.1818C149.317 71.7585 149.401 72.2673 149.57 72.7081C149.739 73.1456 149.986 73.4886 150.311 73.7372C150.636 73.9825 151.034 74.1051 151.504 74.1051C151.995 74.1051 152.404 73.9759 152.732 73.7173C153.064 73.4555 153.312 73.1042 153.478 72.6634C153.647 72.2192 153.731 71.7254 153.731 71.1818C153.731 70.6449 153.649 70.161 153.483 69.7301C153.321 69.2959 153.074 68.9529 152.742 68.701C152.414 68.4458 152.001 68.3182 151.504 68.3182C151.027 68.3182 150.626 68.4392 150.301 68.6811C149.976 68.9197 149.731 69.2545 149.565 69.6854C149.4 70.1129 149.317 70.6117 149.317 71.1818ZM159.901 75.1591C159.165 75.1591 158.531 74.9967 157.997 74.6719C157.467 74.3438 157.057 73.8864 156.769 73.2997C156.484 72.7098 156.342 72.0237 156.342 71.2415C156.342 70.4593 156.484 69.7699 156.769 69.1733C157.057 68.5734 157.459 68.1061 157.972 67.7713C158.489 67.4332 159.093 67.2642 159.782 67.2642C160.18 67.2642 160.572 67.3305 160.96 67.4631C161.348 67.5956 161.701 67.8111 162.019 68.1094C162.337 68.4044 162.591 68.7955 162.78 69.2827C162.969 69.7699 163.063 70.3698 163.063 71.0824V71.5795H157.177V70.5653H161.87C161.87 70.1345 161.784 69.75 161.611 69.4119C161.442 69.0739 161.2 68.8071 160.886 68.6115C160.574 68.416 160.206 68.3182 159.782 68.3182C159.315 68.3182 158.91 68.4342 158.569 68.6662C158.231 68.8949 157.971 69.1932 157.788 69.5611C157.606 69.929 157.515 70.3234 157.515 70.7443V71.4205C157.515 71.9972 157.614 72.486 157.813 72.8871C158.015 73.2848 158.295 73.5881 158.653 73.7969C159.011 74.0024 159.427 74.1051 159.901 74.1051C160.209 74.1051 160.488 74.062 160.736 73.9759C160.988 73.8864 161.205 73.7538 161.388 73.5781C161.57 73.3991 161.711 73.1771 161.81 72.9119L162.944 73.2301C162.825 73.6146 162.624 73.9527 162.342 74.2443C162.061 74.5327 161.713 74.758 161.298 74.9205C160.884 75.0795 160.418 75.1591 159.901 75.1591ZM166.021 64.8182V75H164.848V64.8182H166.021Z" fill="white" fill-opacity="0.95"/>
<path d="M176.658 70.7045C176.658 69.4517 176.821 68.3 177.145 67.2493C177.474 66.1953 177.941 65.2259 178.547 64.3409H179.581C179.343 64.669 179.119 65.0734 178.91 65.554C178.705 66.0312 178.524 66.5566 178.368 67.13C178.213 67.7 178.09 68.29 178 68.8999C177.914 69.5097 177.871 70.1113 177.871 70.7045C177.871 71.4934 177.947 72.2938 178.1 73.1058C178.252 73.9179 178.458 74.6719 178.716 75.3679C178.975 76.0639 179.263 76.6307 179.581 77.0682H178.547C177.941 76.1832 177.474 75.2154 177.145 74.1648C176.821 73.1108 176.658 71.9574 176.658 70.7045ZM181.313 75V67.3636H182.446V68.517H182.526C182.665 68.1392 182.917 67.8326 183.282 67.5973C183.646 67.362 184.057 67.2443 184.515 67.2443C184.601 67.2443 184.708 67.246 184.838 67.2493C184.967 67.2526 185.065 67.2576 185.131 67.2642V68.4574C185.091 68.4474 185 68.4325 184.858 68.4126C184.718 68.3894 184.571 68.3778 184.415 68.3778C184.044 68.3778 183.712 68.4557 183.421 68.6115C183.132 68.764 182.904 68.9761 182.735 69.2479C182.569 69.5163 182.486 69.8229 182.486 70.1676V75H181.313ZM189.491 75.1591C188.755 75.1591 188.121 74.9967 187.587 74.6719C187.057 74.3438 186.647 73.8864 186.359 73.2997C186.074 72.7098 185.931 72.0237 185.931 71.2415C185.931 70.4593 186.074 69.7699 186.359 69.1733C186.647 68.5734 187.048 68.1061 187.562 67.7713C188.079 67.4332 188.682 67.2642 189.372 67.2642C189.769 67.2642 190.162 67.3305 190.55 67.4631C190.938 67.5956 191.291 67.8111 191.609 68.1094C191.927 68.4044 192.181 68.7955 192.37 69.2827C192.559 69.7699 192.653 70.3698 192.653 71.0824V71.5795H186.767V70.5653H191.46C191.46 70.1345 191.374 69.75 191.201 69.4119C191.032 69.0739 190.79 68.8071 190.475 68.6115C190.164 68.416 189.796 68.3182 189.372 68.3182C188.904 68.3182 188.5 68.4342 188.159 68.6662C187.821 68.8949 187.56 69.1932 187.378 69.5611C187.196 69.929 187.105 70.3234 187.105 70.7443V71.4205C187.105 71.9972 187.204 72.486 187.403 72.8871C187.605 73.2848 187.885 73.5881 188.243 73.7969C188.601 74.0024 189.017 74.1051 189.491 74.1051C189.799 74.1051 190.078 74.062 190.326 73.9759C190.578 73.8864 190.795 73.7538 190.978 73.5781C191.16 73.3991 191.301 73.1771 191.4 72.9119L192.534 73.2301C192.414 73.6146 192.214 73.9527 191.932 74.2443C191.65 74.5327 191.302 74.758 190.888 74.9205C190.474 75.0795 190.008 75.1591 189.491 75.1591ZM200.821 77.8636H199.648V73.8267H199.549C199.462 73.9659 199.34 74.1416 199.181 74.3537C199.022 74.5625 198.795 74.7498 198.5 74.9155C198.205 75.0779 197.812 75.1591 197.321 75.1591C196.685 75.1591 196.123 74.9983 195.636 74.6768C195.149 74.352 194.768 73.8946 194.493 73.3047C194.217 72.7114 194.08 72.0104 194.08 71.2017C194.08 70.3996 194.217 69.7036 194.493 69.1136C194.768 68.5237 195.15 68.0679 195.641 67.7464C196.131 67.425 196.698 67.2642 197.341 67.2642C197.838 67.2642 198.231 67.3471 198.519 67.5128C198.811 67.6752 199.033 67.8608 199.186 68.0696C199.341 68.2751 199.462 68.4441 199.549 68.5767H199.688V67.3636H200.821V77.8636ZM199.668 71.1818C199.668 70.6117 199.585 70.1129 199.419 69.6854C199.254 69.2545 199.008 68.9197 198.684 68.6811C198.359 68.4392 197.958 68.3182 197.48 68.3182C196.983 68.3182 196.569 68.4458 196.238 68.701C195.909 68.9529 195.662 69.2959 195.497 69.7301C195.334 70.161 195.253 70.6449 195.253 71.1818C195.253 71.7254 195.336 72.2192 195.502 72.6634C195.671 73.1042 195.919 73.4555 196.247 73.7173C196.579 73.9759 196.99 74.1051 197.48 74.1051C197.951 74.1051 198.349 73.9825 198.674 73.7372C198.998 73.4886 199.245 73.1456 199.414 72.7081C199.583 72.2673 199.668 71.7585 199.668 71.1818ZM207.782 71.8778V67.3636H208.955V75H207.782V73.7074H207.702C207.523 74.0952 207.245 74.425 206.867 74.6967C206.489 74.9652 206.012 75.0994 205.435 75.0994C204.958 75.0994 204.533 74.995 204.162 74.7862C203.791 74.5741 203.499 74.2559 203.287 73.8317C203.075 73.4041 202.969 72.8655 202.969 72.2159V67.3636H204.142V72.1364C204.142 72.6932 204.298 73.1373 204.61 73.4688C204.925 73.8002 205.326 73.9659 205.813 73.9659C206.104 73.9659 206.401 73.8913 206.703 73.7422C207.008 73.593 207.263 73.3643 207.468 73.0561C207.677 72.7479 207.782 72.3551 207.782 71.8778ZM211.104 75V67.3636H212.277V75H211.104ZM211.7 66.0909C211.472 66.0909 211.275 66.013 211.109 65.8572C210.946 65.7015 210.865 65.5142 210.865 65.2955C210.865 65.0767 210.946 64.8894 211.109 64.7337C211.275 64.5779 211.472 64.5 211.7 64.5C211.929 64.5 212.125 64.5779 212.287 64.7337C212.453 64.8894 212.536 65.0767 212.536 65.2955C212.536 65.5142 212.453 65.7015 212.287 65.8572C212.125 66.013 211.929 66.0909 211.7 66.0909ZM214.426 75V67.3636H215.56V68.517H215.639C215.778 68.1392 216.03 67.8326 216.395 67.5973C216.759 67.362 217.17 67.2443 217.628 67.2443C217.714 67.2443 217.822 67.246 217.951 67.2493C218.08 67.2526 218.178 67.2576 218.244 67.2642V68.4574C218.205 68.4474 218.113 68.4325 217.971 68.4126C217.832 68.3894 217.684 68.3778 217.528 68.3778C217.157 68.3778 216.826 68.4557 216.534 68.6115C216.246 68.764 216.017 68.9761 215.848 69.2479C215.682 69.5163 215.599 69.8229 215.599 70.1676V75H214.426ZM222.604 75.1591C221.869 75.1591 221.234 74.9967 220.7 74.6719C220.17 74.3438 219.761 73.8864 219.472 73.2997C219.187 72.7098 219.045 72.0237 219.045 71.2415C219.045 70.4593 219.187 69.7699 219.472 69.1733C219.761 68.5734 220.162 68.1061 220.675 67.7713C221.192 67.4332 221.796 67.2642 222.485 67.2642C222.883 67.2642 223.276 67.3305 223.663 67.4631C224.051 67.5956 224.404 67.8111 224.722 68.1094C225.04 68.4044 225.294 68.7955 225.483 69.2827C225.672 69.7699 225.766 70.3698 225.766 71.0824V71.5795H219.88V70.5653H224.573C224.573 70.1345 224.487 69.75 224.315 69.4119C224.146 69.0739 223.904 68.8071 223.589 68.6115C223.277 68.416 222.909 68.3182 222.485 68.3182C222.018 68.3182 221.613 68.4342 221.272 68.6662C220.934 68.8949 220.674 69.1932 220.491 69.5611C220.309 69.929 220.218 70.3234 220.218 70.7443V71.4205C220.218 71.9972 220.317 72.486 220.516 72.8871C220.718 73.2848 220.999 73.5881 221.356 73.7969C221.714 74.0024 222.13 74.1051 222.604 74.1051C222.913 74.1051 223.191 74.062 223.44 73.9759C223.691 73.8864 223.909 73.7538 224.091 73.5781C224.273 73.3991 224.414 73.1771 224.513 72.9119L225.647 73.2301C225.528 73.6146 225.327 73.9527 225.045 74.2443C224.764 74.5327 224.416 74.758 224.001 74.9205C223.587 75.0795 223.121 75.1591 222.604 75.1591ZM230.435 75.1591C229.798 75.1591 229.236 74.9983 228.749 74.6768C228.262 74.352 227.881 73.8946 227.606 73.3047C227.331 72.7114 227.193 72.0104 227.193 71.2017C227.193 70.3996 227.331 69.7036 227.606 69.1136C227.881 68.5237 228.264 68.0679 228.754 67.7464C229.245 67.425 229.812 67.2642 230.455 67.2642C230.952 67.2642 231.344 67.3471 231.633 67.5128C231.924 67.6752 232.147 67.8608 232.299 68.0696C232.455 68.2751 232.576 68.4441 232.662 68.5767H232.761V64.8182H233.935V75H232.801V73.8267H232.662C232.576 73.9659 232.453 74.1416 232.294 74.3537C232.135 74.5625 231.908 74.7498 231.613 74.9155C231.318 75.0779 230.925 75.1591 230.435 75.1591ZM230.594 74.1051C231.064 74.1051 231.462 73.9825 231.787 73.7372C232.112 73.4886 232.359 73.1456 232.528 72.7081C232.697 72.2673 232.781 71.7585 232.781 71.1818C232.781 70.6117 232.698 70.1129 232.533 69.6854C232.367 69.2545 232.122 68.9197 231.797 68.6811C231.472 68.4392 231.071 68.3182 230.594 68.3182C230.097 68.3182 229.682 68.4458 229.351 68.701C229.023 68.9529 228.776 69.2959 228.61 69.7301C228.448 70.161 228.366 70.6449 228.366 71.1818C228.366 71.7254 228.449 72.2192 228.615 72.6634C228.784 73.1042 229.033 73.4555 229.361 73.7173C229.692 73.9759 230.103 74.1051 230.594 74.1051ZM238.752 70.7045C238.752 71.9574 238.588 73.1108 238.26 74.1648C237.935 75.2154 237.469 76.1832 236.863 77.0682H235.829C236.067 76.7401 236.289 76.3357 236.495 75.8551C236.704 75.3778 236.886 74.8542 237.042 74.2841C237.198 73.7107 237.319 73.1191 237.405 72.5092C237.494 71.8961 237.539 71.2945 237.539 70.7045C237.539 69.9157 237.463 69.1153 237.31 68.3033C237.158 67.4912 236.952 66.7372 236.694 66.0412C236.435 65.3452 236.147 64.7784 235.829 64.3409H236.863C237.469 65.2259 237.935 66.1953 238.26 67.2493C238.588 68.3 238.752 69.4517 238.752 70.7045Z" fill="white" fill-opacity="0.95"/>
<path d="M259.167 76.75C262.895 76.75 265.917 73.7279 265.917 70C265.917 66.2721 262.895 63.25 259.167 63.25C255.439 63.25 252.417 66.2721 252.417 70C252.417 73.7279 255.439 76.75 259.167 76.75ZM257.452 65.7143C257.452 64.9253 258.092 64.2857 258.881 64.2857C259.67 64.2857 260.31 64.9253 260.31 65.7143C260.31 66.5033 259.67 67.1429 258.881 67.1429C258.092 67.1429 257.452 66.5033 257.452 65.7143ZM258.024 70C257.393 70 256.881 69.4883 256.881 68.8571C256.881 68.226 257.393 67.7143 258.024 67.7143H259.167C259.798 67.7143 260.31 68.226 260.31 68.8571V72.8571H261.452C262.084 72.8571 262.595 73.3688 262.595 74C262.595 74.6312 262.084 75.1429 261.452 75.1429H256.881C256.25 75.1429 255.738 74.6312 255.738 74C255.738 73.3688 256.25 72.8571 256.881 72.8571H258.024V70Z" fill="white" fill-opacity="0.95"/>
<rect x="131.667" y="88.5" width="296" height="31" rx="7.5" stroke="white" stroke-opacity="0.5"/>
<path d="M144.4 109V98.8182H147.84C148.639 98.8182 149.292 98.9624 149.799 99.2507C150.309 99.5357 150.687 99.9219 150.932 100.409C151.178 100.896 151.3 101.44 151.3 102.04C151.3 102.64 151.178 103.185 150.932 103.675C150.69 104.166 150.316 104.557 149.809 104.849C149.302 105.137 148.652 105.281 147.86 105.281H145.394V104.188H147.82C148.367 104.188 148.806 104.093 149.138 103.904C149.469 103.715 149.709 103.46 149.858 103.138C150.011 102.814 150.087 102.447 150.087 102.04C150.087 101.632 150.011 101.268 149.858 100.946C149.709 100.625 149.467 100.373 149.133 100.19C148.798 100.005 148.354 99.9119 147.8 99.9119H145.633V109H144.4ZM154.301 98.8182V109H153.127V98.8182H154.301ZM158.697 109.179C158.213 109.179 157.774 109.088 157.379 108.906C156.985 108.72 156.672 108.453 156.44 108.105C156.208 107.754 156.092 107.33 156.092 106.832C156.092 106.395 156.178 106.04 156.35 105.768C156.522 105.493 156.753 105.278 157.041 105.122C157.33 104.966 157.648 104.85 157.996 104.774C158.347 104.695 158.7 104.632 159.055 104.585C159.519 104.526 159.895 104.481 160.183 104.451C160.475 104.418 160.687 104.363 160.82 104.287C160.955 104.211 161.023 104.078 161.023 103.889V103.849C161.023 103.359 160.889 102.978 160.621 102.706C160.356 102.434 159.953 102.298 159.413 102.298C158.852 102.298 158.413 102.421 158.095 102.666C157.777 102.911 157.553 103.173 157.424 103.452L156.31 103.054C156.509 102.59 156.774 102.229 157.106 101.97C157.441 101.708 157.805 101.526 158.2 101.423C158.597 101.317 158.988 101.264 159.373 101.264C159.618 101.264 159.9 101.294 160.218 101.354C160.539 101.41 160.849 101.528 161.148 101.707C161.449 101.886 161.7 102.156 161.898 102.517C162.097 102.878 162.197 103.362 162.197 103.969V109H161.023V107.966H160.964C160.884 108.132 160.752 108.309 160.566 108.498C160.38 108.687 160.133 108.848 159.825 108.98C159.517 109.113 159.141 109.179 158.697 109.179ZM158.876 108.125C159.34 108.125 159.731 108.034 160.049 107.852C160.37 107.669 160.612 107.434 160.775 107.146C160.941 106.857 161.023 106.554 161.023 106.236V105.162C160.974 105.222 160.864 105.276 160.695 105.326C160.53 105.372 160.337 105.414 160.119 105.45C159.903 105.483 159.693 105.513 159.487 105.54C159.285 105.563 159.121 105.583 158.995 105.599C158.69 105.639 158.405 105.704 158.14 105.793C157.878 105.879 157.666 106.01 157.504 106.186C157.344 106.358 157.265 106.594 157.265 106.892C157.265 107.3 157.416 107.608 157.717 107.817C158.022 108.022 158.408 108.125 158.876 108.125ZM167.44 109.159C166.725 109.159 166.108 108.99 165.591 108.652C165.074 108.314 164.676 107.848 164.398 107.255C164.119 106.662 163.98 105.984 163.98 105.222C163.98 104.446 164.123 103.762 164.408 103.168C164.696 102.572 165.097 102.106 165.611 101.771C166.128 101.433 166.731 101.264 167.421 101.264C167.958 101.264 168.441 101.364 168.872 101.562C169.303 101.761 169.656 102.04 169.931 102.398C170.206 102.756 170.377 103.173 170.443 103.651H169.27C169.181 103.303 168.982 102.994 168.673 102.726C168.369 102.454 167.958 102.318 167.44 102.318C166.983 102.318 166.582 102.437 166.237 102.676C165.896 102.911 165.629 103.245 165.437 103.675C165.248 104.103 165.154 104.605 165.154 105.182C165.154 105.772 165.246 106.286 165.432 106.723C165.621 107.161 165.886 107.5 166.227 107.742C166.572 107.984 166.976 108.105 167.44 108.105C167.745 108.105 168.022 108.052 168.271 107.946C168.519 107.84 168.73 107.688 168.902 107.489C169.074 107.29 169.197 107.051 169.27 106.773H170.443C170.377 107.223 170.213 107.629 169.951 107.991C169.693 108.349 169.35 108.634 168.922 108.846C168.498 109.055 168.004 109.159 167.44 109.159ZM175.36 109.159C174.624 109.159 173.99 108.997 173.456 108.672C172.926 108.344 172.516 107.886 172.228 107.3C171.943 106.71 171.801 106.024 171.801 105.241C171.801 104.459 171.943 103.77 172.228 103.173C172.516 102.573 172.918 102.106 173.431 101.771C173.948 101.433 174.552 101.264 175.241 101.264C175.639 101.264 176.031 101.33 176.419 101.463C176.807 101.596 177.16 101.811 177.478 102.109C177.796 102.404 178.05 102.795 178.239 103.283C178.428 103.77 178.522 104.37 178.522 105.082V105.58H172.636V104.565H177.329C177.329 104.134 177.243 103.75 177.07 103.412C176.901 103.074 176.659 102.807 176.345 102.612C176.033 102.416 175.665 102.318 175.241 102.318C174.774 102.318 174.369 102.434 174.028 102.666C173.69 102.895 173.43 103.193 173.247 103.561C173.065 103.929 172.974 104.323 172.974 104.744V105.42C172.974 105.997 173.073 106.486 173.272 106.887C173.474 107.285 173.754 107.588 174.112 107.797C174.47 108.002 174.886 108.105 175.36 108.105C175.668 108.105 175.947 108.062 176.195 107.976C176.447 107.886 176.664 107.754 176.847 107.578C177.029 107.399 177.17 107.177 177.269 106.912L178.403 107.23C178.284 107.615 178.083 107.953 177.801 108.244C177.52 108.533 177.172 108.758 176.757 108.92C176.343 109.08 175.877 109.159 175.36 109.159ZM181.48 104.406V109H180.307V98.8182H181.48V102.557H181.58C181.759 102.162 182.027 101.849 182.385 101.617C182.746 101.382 183.227 101.264 183.827 101.264C184.347 101.264 184.803 101.369 185.194 101.577C185.585 101.783 185.888 102.099 186.104 102.527C186.323 102.951 186.432 103.491 186.432 104.148V109H185.259V104.227C185.259 103.621 185.101 103.152 184.786 102.82C184.475 102.486 184.042 102.318 183.489 102.318C183.104 102.318 182.76 102.399 182.455 102.562C182.153 102.724 181.914 102.961 181.739 103.273C181.566 103.584 181.48 103.962 181.48 104.406ZM191.681 109.159C190.991 109.159 190.386 108.995 189.866 108.667C189.349 108.339 188.945 107.88 188.653 107.29C188.365 106.7 188.22 106.01 188.22 105.222C188.22 104.426 188.365 103.732 188.653 103.138C188.945 102.545 189.349 102.085 189.866 101.756C190.386 101.428 190.991 101.264 191.681 101.264C192.37 101.264 192.973 101.428 193.49 101.756C194.011 102.085 194.415 102.545 194.703 103.138C194.995 103.732 195.141 104.426 195.141 105.222C195.141 106.01 194.995 106.7 194.703 107.29C194.415 107.88 194.011 108.339 193.49 108.667C192.973 108.995 192.37 109.159 191.681 109.159ZM191.681 108.105C192.204 108.105 192.635 107.971 192.973 107.702C193.311 107.434 193.562 107.081 193.724 106.643C193.886 106.206 193.968 105.732 193.968 105.222C193.968 104.711 193.886 104.236 193.724 103.795C193.562 103.354 193.311 102.998 192.973 102.726C192.635 102.454 192.204 102.318 191.681 102.318C191.157 102.318 190.726 102.454 190.388 102.726C190.05 102.998 189.8 103.354 189.637 103.795C189.475 104.236 189.394 104.711 189.394 105.222C189.394 105.732 189.475 106.206 189.637 106.643C189.8 107.081 190.05 107.434 190.388 107.702C190.726 107.971 191.157 108.105 191.681 108.105ZM198.105 98.8182V109H196.932V98.8182H198.105ZM203.138 109.159C202.501 109.159 201.94 108.998 201.452 108.677C200.965 108.352 200.584 107.895 200.309 107.305C200.034 106.711 199.896 106.01 199.896 105.202C199.896 104.4 200.034 103.704 200.309 103.114C200.584 102.524 200.967 102.068 201.457 101.746C201.948 101.425 202.515 101.264 203.158 101.264C203.655 101.264 204.048 101.347 204.336 101.513C204.628 101.675 204.85 101.861 205.002 102.07C205.158 102.275 205.279 102.444 205.365 102.577H205.464V98.8182H206.638V109H205.504V107.827H205.365C205.279 107.966 205.156 108.142 204.997 108.354C204.838 108.562 204.611 108.75 204.316 108.915C204.021 109.078 203.628 109.159 203.138 109.159ZM203.297 108.105C203.767 108.105 204.165 107.982 204.49 107.737C204.815 107.489 205.062 107.146 205.231 106.708C205.4 106.267 205.484 105.759 205.484 105.182C205.484 104.612 205.401 104.113 205.236 103.685C205.07 103.254 204.825 102.92 204.5 102.681C204.175 102.439 203.774 102.318 203.297 102.318C202.8 102.318 202.385 102.446 202.054 102.701C201.726 102.953 201.479 103.296 201.313 103.73C201.151 104.161 201.07 104.645 201.07 105.182C201.07 105.725 201.152 106.219 201.318 106.663C201.487 107.104 201.736 107.455 202.064 107.717C202.395 107.976 202.806 108.105 203.297 108.105ZM212.151 109.159C211.415 109.159 210.781 108.997 210.247 108.672C209.717 108.344 209.307 107.886 209.019 107.3C208.734 106.71 208.592 106.024 208.592 105.241C208.592 104.459 208.734 103.77 209.019 103.173C209.307 102.573 209.709 102.106 210.222 101.771C210.739 101.433 211.343 101.264 212.032 101.264C212.43 101.264 212.822 101.33 213.21 101.463C213.598 101.596 213.951 101.811 214.269 102.109C214.587 102.404 214.841 102.795 215.03 103.283C215.219 103.77 215.313 104.37 215.313 105.082V105.58H209.427V104.565H214.12C214.12 104.134 214.034 103.75 213.861 103.412C213.692 103.074 213.45 102.807 213.136 102.612C212.824 102.416 212.456 102.318 212.032 102.318C211.565 102.318 211.16 102.434 210.819 102.666C210.481 102.895 210.221 103.193 210.038 103.561C209.856 103.929 209.765 104.323 209.765 104.744V105.42C209.765 105.997 209.864 106.486 210.063 106.887C210.265 107.285 210.545 107.588 210.903 107.797C211.261 108.002 211.677 108.105 212.151 108.105C212.459 108.105 212.738 108.062 212.986 107.976C213.238 107.886 213.455 107.754 213.638 107.578C213.82 107.399 213.961 107.177 214.06 106.912L215.194 107.23C215.075 107.615 214.874 107.953 214.592 108.244C214.311 108.533 213.963 108.758 213.548 108.92C213.134 109.08 212.668 109.159 212.151 109.159ZM217.098 109V101.364H218.231V102.517H218.311C218.45 102.139 218.702 101.833 219.067 101.597C219.431 101.362 219.842 101.244 220.3 101.244C220.386 101.244 220.494 101.246 220.623 101.249C220.752 101.253 220.85 101.258 220.916 101.264V102.457C220.876 102.447 220.785 102.433 220.643 102.413C220.504 102.389 220.356 102.378 220.2 102.378C219.829 102.378 219.498 102.456 219.206 102.612C218.918 102.764 218.689 102.976 218.52 103.248C218.354 103.516 218.271 103.823 218.271 104.168V109H217.098ZM229.565 101.364V102.358H225.608V101.364H229.565ZM226.762 99.5341H227.935V106.812C227.935 107.144 227.983 107.393 228.079 107.558C228.178 107.721 228.304 107.83 228.457 107.886C228.613 107.939 228.777 107.966 228.949 107.966C229.078 107.966 229.184 107.959 229.267 107.946C229.35 107.929 229.416 107.916 229.466 107.906L229.705 108.96C229.625 108.99 229.514 109.02 229.372 109.05C229.229 109.083 229.048 109.099 228.83 109.099C228.498 109.099 228.173 109.028 227.855 108.886C227.54 108.743 227.279 108.526 227.07 108.234C226.864 107.943 226.762 107.575 226.762 107.131V99.5341ZM234.45 109.159C233.714 109.159 233.08 108.997 232.546 108.672C232.016 108.344 231.606 107.886 231.318 107.3C231.033 106.71 230.89 106.024 230.89 105.241C230.89 104.459 231.033 103.77 231.318 103.173C231.606 102.573 232.007 102.106 232.521 101.771C233.038 101.433 233.641 101.264 234.331 101.264C234.728 101.264 235.121 101.33 235.509 101.463C235.897 101.596 236.25 101.811 236.568 102.109C236.886 102.404 237.14 102.795 237.329 103.283C237.518 103.77 237.612 104.37 237.612 105.082V105.58H231.726V104.565H236.419C236.419 104.134 236.333 103.75 236.16 103.412C235.991 103.074 235.749 102.807 235.434 102.612C235.123 102.416 234.755 102.318 234.331 102.318C233.863 102.318 233.459 102.434 233.118 102.666C232.78 102.895 232.519 103.193 232.337 103.561C232.155 103.929 232.064 104.323 232.064 104.744V105.42C232.064 105.997 232.163 106.486 232.362 106.887C232.564 107.285 232.844 107.588 233.202 107.797C233.56 108.002 233.976 108.105 234.45 108.105C234.758 108.105 235.037 108.062 235.285 107.976C235.537 107.886 235.754 107.754 235.937 107.578C236.119 107.399 236.26 107.177 236.359 106.912L237.493 107.23C237.373 107.615 237.173 107.953 236.891 108.244C236.609 108.533 236.261 108.758 235.847 108.92C235.433 109.08 234.967 109.159 234.45 109.159ZM240.067 101.364L241.896 104.486L243.726 101.364H245.078L242.612 105.182L245.078 109H243.726L241.896 106.037L240.067 109H238.714L241.141 105.182L238.714 101.364H240.067ZM250.073 101.364V102.358H246.116V101.364H250.073ZM247.269 99.5341H248.443V106.812C248.443 107.144 248.491 107.393 248.587 107.558C248.686 107.721 248.812 107.83 248.965 107.886C249.12 107.939 249.284 107.966 249.457 107.966C249.586 107.966 249.692 107.959 249.775 107.946C249.858 107.929 249.924 107.916 249.974 107.906L250.212 108.96C250.133 108.99 250.022 109.02 249.879 109.05C249.737 109.083 249.556 109.099 249.337 109.099C249.006 109.099 248.681 109.028 248.363 108.886C248.048 108.743 247.786 108.526 247.578 108.234C247.372 107.943 247.269 107.575 247.269 107.131V99.5341Z" fill="white" fill-opacity="0.7"/>
<path d="M132.4 143V132.818H133.633V137.352H139.062V132.818H140.295V143H139.062V138.446H133.633V143H132.4ZM145.806 143.159C145.07 143.159 144.435 142.997 143.901 142.672C143.371 142.344 142.962 141.886 142.673 141.3C142.388 140.71 142.246 140.024 142.246 139.241C142.246 138.459 142.388 137.77 142.673 137.173C142.962 136.573 143.363 136.106 143.877 135.771C144.394 135.433 144.997 135.264 145.686 135.264C146.084 135.264 146.477 135.33 146.864 135.463C147.252 135.596 147.605 135.811 147.923 136.109C148.242 136.404 148.495 136.795 148.684 137.283C148.873 137.77 148.967 138.37 148.967 139.082V139.58H143.081V138.565H147.774C147.774 138.134 147.688 137.75 147.516 137.412C147.347 137.074 147.105 136.807 146.79 136.612C146.478 136.416 146.11 136.318 145.686 136.318C145.219 136.318 144.815 136.434 144.473 136.666C144.135 136.895 143.875 137.193 143.693 137.561C143.51 137.929 143.419 138.323 143.419 138.744V139.42C143.419 139.997 143.519 140.486 143.717 140.887C143.92 141.285 144.2 141.588 144.558 141.797C144.916 142.002 145.332 142.105 145.806 142.105C146.114 142.105 146.392 142.062 146.641 141.976C146.893 141.886 147.11 141.754 147.292 141.578C147.474 141.399 147.615 141.177 147.715 140.912L148.848 141.23C148.729 141.615 148.528 141.953 148.247 142.244C147.965 142.533 147.617 142.758 147.203 142.92C146.788 143.08 146.323 143.159 145.806 143.159ZM151.926 132.818V143H150.752V132.818H151.926ZM154.075 145.864V135.364H155.208V136.577H155.347C155.433 136.444 155.553 136.275 155.705 136.07C155.861 135.861 156.083 135.675 156.371 135.513C156.663 135.347 157.057 135.264 157.555 135.264C158.198 135.264 158.764 135.425 159.255 135.746C159.745 136.068 160.128 136.524 160.403 137.114C160.678 137.704 160.816 138.4 160.816 139.202C160.816 140.01 160.678 140.711 160.403 141.305C160.128 141.895 159.747 142.352 159.26 142.677C158.773 142.998 158.211 143.159 157.575 143.159C157.084 143.159 156.691 143.078 156.396 142.915C156.101 142.75 155.874 142.562 155.715 142.354C155.556 142.142 155.433 141.966 155.347 141.827H155.248V145.864H154.075ZM155.228 139.182C155.228 139.759 155.312 140.267 155.481 140.708C155.651 141.146 155.897 141.489 156.222 141.737C156.547 141.982 156.945 142.105 157.415 142.105C157.906 142.105 158.315 141.976 158.643 141.717C158.975 141.455 159.223 141.104 159.389 140.663C159.558 140.219 159.643 139.725 159.643 139.182C159.643 138.645 159.56 138.161 159.394 137.73C159.232 137.296 158.985 136.953 158.653 136.701C158.325 136.446 157.913 136.318 157.415 136.318C156.938 136.318 156.537 136.439 156.212 136.681C155.888 136.92 155.642 137.254 155.477 137.685C155.311 138.113 155.228 138.612 155.228 139.182ZM165.807 143.159C165.072 143.159 164.437 142.997 163.903 142.672C163.373 142.344 162.964 141.886 162.675 141.3C162.39 140.71 162.248 140.024 162.248 139.241C162.248 138.459 162.39 137.77 162.675 137.173C162.964 136.573 163.365 136.106 163.879 135.771C164.396 135.433 164.999 135.264 165.688 135.264C166.086 135.264 166.479 135.33 166.866 135.463C167.254 135.596 167.607 135.811 167.925 136.109C168.244 136.404 168.497 136.795 168.686 137.283C168.875 137.77 168.969 138.37 168.969 139.082V139.58H163.083V138.565H167.776C167.776 138.134 167.69 137.75 167.518 137.412C167.349 137.074 167.107 136.807 166.792 136.612C166.48 136.416 166.112 136.318 165.688 136.318C165.221 136.318 164.816 136.434 164.475 136.666C164.137 136.895 163.877 137.193 163.695 137.561C163.512 137.929 163.421 138.323 163.421 138.744V139.42C163.421 139.997 163.521 140.486 163.719 140.887C163.922 141.285 164.202 141.588 164.56 141.797C164.918 142.002 165.334 142.105 165.807 142.105C166.116 142.105 166.394 142.062 166.643 141.976C166.895 141.886 167.112 141.754 167.294 141.578C167.476 141.399 167.617 141.177 167.717 140.912L168.85 141.23C168.731 141.615 168.53 141.953 168.249 142.244C167.967 142.533 167.619 142.758 167.205 142.92C166.79 143.08 166.325 143.159 165.807 143.159ZM170.754 143V135.364H171.888V136.517H171.967C172.106 136.139 172.358 135.833 172.723 135.597C173.088 135.362 173.499 135.244 173.956 135.244C174.042 135.244 174.15 135.246 174.279 135.249C174.408 135.253 174.506 135.258 174.572 135.264V136.457C174.533 136.447 174.441 136.433 174.299 136.413C174.16 136.389 174.012 136.378 173.856 136.378C173.485 136.378 173.154 136.456 172.862 136.612C172.574 136.764 172.345 136.976 172.176 137.248C172.01 137.516 171.928 137.823 171.928 138.168V143H170.754ZM183.222 135.364V136.358H179.264V135.364H183.222ZM180.418 133.534H181.591V140.812C181.591 141.144 181.639 141.393 181.735 141.558C181.835 141.721 181.961 141.83 182.113 141.886C182.269 141.939 182.433 141.966 182.605 141.966C182.735 141.966 182.841 141.959 182.923 141.946C183.006 141.929 183.073 141.916 183.122 141.906L183.361 142.96C183.281 142.99 183.17 143.02 183.028 143.05C182.885 143.083 182.705 143.099 182.486 143.099C182.154 143.099 181.83 143.028 181.512 142.886C181.197 142.743 180.935 142.526 180.726 142.234C180.52 141.943 180.418 141.575 180.418 141.131V133.534ZM188.106 143.159C187.371 143.159 186.736 142.997 186.202 142.672C185.672 142.344 185.263 141.886 184.974 141.3C184.689 140.71 184.547 140.024 184.547 139.241C184.547 138.459 184.689 137.77 184.974 137.173C185.263 136.573 185.664 136.106 186.177 135.771C186.694 135.433 187.298 135.264 187.987 135.264C188.385 135.264 188.777 135.33 189.165 135.463C189.553 135.596 189.906 135.811 190.224 136.109C190.542 136.404 190.796 136.795 190.985 137.283C191.174 137.77 191.268 138.37 191.268 139.082V139.58H185.382V138.565H190.075C190.075 138.134 189.989 137.75 189.817 137.412C189.648 137.074 189.406 136.807 189.091 136.612C188.779 136.416 188.411 136.318 187.987 136.318C187.52 136.318 187.115 136.434 186.774 136.666C186.436 136.895 186.176 137.193 185.993 137.561C185.811 137.929 185.72 138.323 185.72 138.744V139.42C185.72 139.997 185.819 140.486 186.018 140.887C186.22 141.285 186.5 141.588 186.858 141.797C187.216 142.002 187.632 142.105 188.106 142.105C188.415 142.105 188.693 142.062 188.942 141.976C189.193 141.886 189.411 141.754 189.593 141.578C189.775 141.399 189.916 141.177 190.015 140.912L191.149 141.23C191.03 141.615 190.829 141.953 190.547 142.244C190.266 142.533 189.918 142.758 189.503 142.92C189.089 143.08 188.623 143.159 188.106 143.159ZM193.723 135.364L195.553 138.486L197.382 135.364H198.734L196.268 139.182L198.734 143H197.382L195.553 140.037L193.723 143H192.371L194.797 139.182L192.371 135.364H193.723ZM203.73 135.364V136.358H199.772V135.364H203.73ZM200.926 133.534H202.099V140.812C202.099 141.144 202.147 141.393 202.243 141.558C202.342 141.721 202.468 141.83 202.621 141.886C202.777 141.939 202.941 141.966 203.113 141.966C203.242 141.966 203.348 141.959 203.431 141.946C203.514 141.929 203.58 141.916 203.63 141.906L203.869 142.96C203.789 142.99 203.678 143.02 203.536 143.05C203.393 143.083 203.212 143.099 202.994 143.099C202.662 143.099 202.337 143.028 202.019 142.886C201.704 142.743 201.443 142.526 201.234 142.234C201.028 141.943 200.926 141.575 200.926 141.131V133.534Z" fill="white" fill-opacity="0.7"/>
</g>
<defs>
<filter id="filter0_d_1118_31614" x="127.167" y="60" width="305" height="96" filterUnits="userSpaceOnUse" color-interpolation-filters="sRGB">
<feFlood flood-opacity="0" result="BackgroundImageFix"/>
<feColorMatrix in="SourceAlpha" type="matrix" values="0 0 0 0 0 0 0 0 0 0 0 0 0 0 0 0 0 0 127 0" result="hardAlpha"/>
<feOffset dy="4"/>
<feGaussianBlur stdDeviation="2"/>
<feComposite in2="hardAlpha" operator="out"/>
<feColorMatrix type="matrix" values="0 0 0 0 0 0 0 0 0 0 0 0 0 0 0 0 0 0 0.25 0"/>
<feBlend mode="normal" in2="BackgroundImageFix" result="effect1_dropShadow_1118_31614"/>
<feBlend mode="normal" in="SourceGraphic" in2="effect1_dropShadow_1118_31614" result="shape"/>
</filter>
</defs>
</svg>
