<svg width="559" height="208" viewBox="0 0 559 208" fill="none" xmlns="http://www.w3.org/2000/svg">
<rect width="559" height="208" rx="20" fill="#262626"/>
<rect x="215" y="84" width="130" height="40" rx="20" fill="white" fill-opacity="0.95"/>
<path d="M246.281 108.397C247.307 107.161 247.868 105.606 247.868 104C247.868 102.394 247.307 100.839 246.281 99.6032L249.567 96.3169C249.626 96.2591 249.673 96.1901 249.706 96.114C249.738 96.0379 249.755 95.9561 249.756 95.8733C249.756 95.7906 249.74 95.7086 249.709 95.632C249.677 95.5555 249.631 95.4859 249.573 95.4274C249.514 95.3689 249.444 95.3226 249.368 95.2912C249.291 95.2598 249.209 95.2438 249.127 95.2444C249.044 95.2449 248.962 95.2618 248.886 95.2942C248.81 95.3266 248.741 95.3738 248.683 95.433L245.398 98.7182C244.164 97.6888 242.607 97.125 241 97.125C239.393 97.125 237.836 97.6888 236.602 98.7182L233.317 95.433C233.199 95.3183 233.041 95.2545 232.877 95.2556C232.712 95.2566 232.555 95.3224 232.439 95.4386C232.322 95.5549 232.257 95.7122 232.256 95.8766C232.255 96.041 232.318 96.1992 232.433 96.3169L235.719 99.6028C234.693 100.838 234.131 102.394 234.131 104C234.131 105.606 234.693 107.162 235.719 108.397L232.433 111.683C232.374 111.741 232.327 111.81 232.294 111.886C232.262 111.962 232.245 112.044 232.244 112.127C232.244 112.209 232.26 112.291 232.291 112.368C232.323 112.444 232.369 112.514 232.427 112.572C232.486 112.631 232.555 112.677 232.632 112.709C232.709 112.74 232.791 112.756 232.873 112.756C232.956 112.755 233.038 112.738 233.114 112.706C233.19 112.673 233.259 112.626 233.317 112.567L236.602 109.282C237.836 110.311 239.393 110.875 241 110.875C242.607 110.875 244.164 110.311 245.398 109.282L248.683 112.567C248.801 112.682 248.959 112.745 249.123 112.744C249.288 112.743 249.445 112.678 249.561 112.561C249.678 112.445 249.743 112.288 249.744 112.123C249.745 111.959 249.682 111.801 249.567 111.683L246.281 108.397ZM245.393 107.509L241.884 104L245.393 100.49C246.188 101.488 246.62 102.725 246.62 104C246.62 105.275 246.188 106.512 245.393 107.509ZM241 98.375C242.276 98.3721 243.515 98.8068 244.51 99.6067L241 103.116L237.49 99.6065C238.485 98.8067 239.724 98.3721 241 98.375ZM236.606 100.49L240.116 104L236.606 107.51C235.812 106.512 235.379 105.275 235.379 104C235.379 102.725 235.812 101.488 236.606 100.49ZM241 109.625C239.724 109.628 238.485 109.193 237.49 108.393L241 104.884L244.51 108.393C243.515 109.193 242.276 109.628 241 109.625Z" fill="black" fill-opacity="0.95"/>
<path d="M260.513 110V98.3636H262.268V108.489H267.541V110H260.513ZM271.947 110.193C271.394 110.193 270.894 110.091 270.447 109.886C270 109.678 269.646 109.377 269.385 108.983C269.127 108.589 268.999 108.106 268.999 107.534C268.999 107.042 269.093 106.636 269.283 106.318C269.472 106 269.728 105.748 270.05 105.562C270.372 105.377 270.732 105.237 271.129 105.142C271.527 105.047 271.932 104.975 272.345 104.926C272.868 104.866 273.292 104.816 273.618 104.778C273.944 104.737 274.18 104.67 274.328 104.58C274.476 104.489 274.55 104.341 274.55 104.136V104.097C274.55 103.6 274.41 103.216 274.129 102.943C273.853 102.67 273.44 102.534 272.891 102.534C272.319 102.534 271.868 102.661 271.538 102.915C271.213 103.165 270.987 103.443 270.862 103.75L269.266 103.386C269.455 102.856 269.732 102.428 270.095 102.102C270.463 101.773 270.885 101.534 271.362 101.386C271.839 101.235 272.341 101.159 272.868 101.159C273.216 101.159 273.586 101.201 273.976 101.284C274.37 101.364 274.737 101.511 275.078 101.727C275.423 101.943 275.705 102.252 275.925 102.653C276.144 103.051 276.254 103.568 276.254 104.205V110H274.595V108.807H274.527C274.417 109.027 274.252 109.242 274.033 109.455C273.813 109.667 273.531 109.843 273.186 109.983C272.841 110.123 272.429 110.193 271.947 110.193ZM272.317 108.83C272.786 108.83 273.188 108.737 273.521 108.551C273.858 108.366 274.114 108.123 274.288 107.824C274.466 107.521 274.555 107.197 274.555 106.852V105.727C274.495 105.788 274.377 105.845 274.203 105.898C274.033 105.947 273.838 105.991 273.618 106.028C273.398 106.062 273.184 106.095 272.976 106.125C272.768 106.152 272.593 106.174 272.453 106.193C272.124 106.235 271.822 106.305 271.55 106.403C271.281 106.502 271.065 106.644 270.902 106.83C270.743 107.011 270.663 107.254 270.663 107.557C270.663 107.977 270.819 108.295 271.129 108.511C271.44 108.723 271.836 108.83 272.317 108.83ZM278.653 110V98.3636H280.352V102.688H280.455C280.553 102.506 280.695 102.295 280.881 102.057C281.066 101.818 281.324 101.61 281.653 101.432C281.983 101.25 282.419 101.159 282.96 101.159C283.665 101.159 284.294 101.337 284.847 101.693C285.4 102.049 285.833 102.562 286.148 103.233C286.466 103.903 286.625 104.71 286.625 105.653C286.625 106.597 286.468 107.405 286.153 108.08C285.839 108.75 285.407 109.267 284.858 109.631C284.309 109.991 283.682 110.17 282.977 110.17C282.447 110.17 282.013 110.081 281.676 109.903C281.343 109.725 281.081 109.517 280.892 109.278C280.703 109.04 280.557 108.828 280.455 108.642H280.312V110H278.653ZM280.318 105.636C280.318 106.25 280.407 106.788 280.585 107.25C280.763 107.712 281.021 108.074 281.358 108.335C281.695 108.593 282.108 108.722 282.597 108.722C283.104 108.722 283.528 108.587 283.869 108.318C284.21 108.045 284.468 107.676 284.642 107.21C284.82 106.744 284.909 106.22 284.909 105.636C284.909 105.061 284.822 104.544 284.648 104.085C284.477 103.627 284.22 103.265 283.875 103C283.534 102.735 283.108 102.602 282.597 102.602C282.104 102.602 281.688 102.729 281.347 102.983C281.009 103.237 280.754 103.591 280.58 104.045C280.405 104.5 280.318 105.03 280.318 105.636ZM292.294 110.176C291.434 110.176 290.694 109.992 290.072 109.625C289.455 109.254 288.978 108.733 288.641 108.062C288.307 107.388 288.141 106.598 288.141 105.693C288.141 104.799 288.307 104.011 288.641 103.33C288.978 102.648 289.447 102.116 290.05 101.733C290.656 101.35 291.364 101.159 292.175 101.159C292.667 101.159 293.144 101.241 293.607 101.403C294.069 101.566 294.483 101.822 294.851 102.17C295.218 102.519 295.508 102.972 295.72 103.528C295.932 104.081 296.038 104.754 296.038 105.545V106.148H289.101V104.875H294.374C294.374 104.428 294.283 104.032 294.101 103.688C293.919 103.339 293.663 103.064 293.334 102.864C293.008 102.663 292.625 102.562 292.186 102.562C291.709 102.562 291.292 102.68 290.936 102.915C290.584 103.146 290.311 103.449 290.118 103.824C289.929 104.195 289.834 104.598 289.834 105.034V106.028C289.834 106.612 289.936 107.108 290.141 107.517C290.349 107.926 290.639 108.239 291.01 108.455C291.381 108.667 291.815 108.773 292.311 108.773C292.633 108.773 292.927 108.727 293.192 108.636C293.457 108.542 293.686 108.402 293.879 108.216C294.072 108.03 294.22 107.801 294.322 107.528L295.93 107.818C295.802 108.292 295.571 108.706 295.237 109.062C294.908 109.415 294.493 109.689 293.993 109.886C293.497 110.08 292.93 110.176 292.294 110.176ZM299.622 98.3636V110H297.923V98.3636H299.622Z" fill="black" fill-opacity="0.95"/>
<path d="M324.281 108.397C325.307 107.161 325.868 105.606 325.868 104C325.868 102.394 325.307 100.839 324.281 99.6032L327.567 96.3169C327.626 96.2591 327.673 96.1901 327.706 96.114C327.738 96.0379 327.755 95.9561 327.756 95.8733C327.756 95.7906 327.74 95.7086 327.709 95.632C327.677 95.5555 327.631 95.4859 327.573 95.4274C327.514 95.3689 327.444 95.3226 327.368 95.2912C327.291 95.2598 327.209 95.2438 327.127 95.2444C327.044 95.2449 326.962 95.2618 326.886 95.2942C326.81 95.3266 326.741 95.3738 326.683 95.433L323.398 98.7182C322.164 97.6888 320.607 97.125 319 97.125C317.393 97.125 315.836 97.6888 314.602 98.7182L311.317 95.433C311.199 95.3183 311.041 95.2545 310.877 95.2556C310.712 95.2566 310.555 95.3224 310.439 95.4386C310.322 95.5549 310.257 95.7122 310.256 95.8766C310.255 96.041 310.318 96.1992 310.433 96.3169L313.719 99.6028C312.693 100.838 312.131 102.394 312.131 104C312.131 105.606 312.693 107.162 313.719 108.397L310.433 111.683C310.374 111.741 310.327 111.81 310.294 111.886C310.262 111.962 310.245 112.044 310.244 112.127C310.244 112.209 310.26 112.291 310.291 112.368C310.323 112.444 310.369 112.514 310.427 112.572C310.486 112.631 310.555 112.677 310.632 112.709C310.709 112.74 310.791 112.756 310.873 112.756C310.956 112.755 311.038 112.738 311.114 112.706C311.19 112.673 311.259 112.626 311.317 112.567L314.602 109.282C315.836 110.311 317.393 110.875 319 110.875C320.607 110.875 322.164 110.311 323.398 109.282L326.683 112.567C326.801 112.682 326.959 112.745 327.123 112.744C327.288 112.743 327.445 112.678 327.561 112.561C327.678 112.445 327.743 112.288 327.744 112.123C327.745 111.959 327.682 111.801 327.567 111.683L324.281 108.397ZM323.393 107.509L319.884 104L323.393 100.49C324.188 101.488 324.62 102.725 324.62 104C324.62 105.275 324.188 106.512 323.393 107.509ZM319 98.375C320.276 98.3721 321.515 98.8068 322.51 99.6067L319 103.116L315.49 99.6065C316.485 98.8067 317.724 98.3721 319 98.375ZM314.606 100.49L318.116 104L314.606 107.51C313.812 106.512 313.379 105.275 313.379 104C313.379 102.725 313.812 101.488 314.606 100.49ZM319 109.625C317.724 109.628 316.485 109.193 315.49 108.393L319 104.884L322.51 108.393C321.515 109.193 320.276 109.628 319 109.625Z" fill="black" fill-opacity="0.95"/>
</svg>
