<svg width="32" height="32" viewBox="0 0 32 32" fill="none" xmlns="http://www.w3.org/2000/svg">
<rect width="32" height="32" rx="16" fill="#932099"/>
<path d="M12.3253 21.5V19.9489L15.9496 16.593C16.2578 16.2947 16.5163 16.0263 16.7251 15.7876C16.9373 15.549 17.098 15.3153 17.2074 15.0866C17.3168 14.8546 17.3714 14.6044 17.3714 14.3359C17.3714 14.0376 17.3035 13.7808 17.1676 13.5653C17.0317 13.3466 16.8461 13.1792 16.6108 13.0632C16.3755 12.9439 16.1087 12.8842 15.8104 12.8842C15.4988 12.8842 15.227 12.9472 14.995 13.0732C14.763 13.1991 14.584 13.3797 14.4581 13.6151C14.3321 13.8504 14.2692 14.1304 14.2692 14.4553H12.2259C12.2259 13.7891 12.3767 13.2107 12.6783 12.7202C12.9799 12.2296 13.4025 11.8501 13.946 11.5817C14.4896 11.3132 15.116 11.179 15.8253 11.179C16.5545 11.179 17.1892 11.3082 17.7294 11.5668C18.273 11.822 18.6955 12.1766 18.9972 12.6307C19.2988 13.0848 19.4496 13.6051 19.4496 14.1918C19.4496 14.5762 19.3733 14.9557 19.2209 15.3303C19.0717 15.7048 18.8049 16.1207 18.4205 16.5781C18.036 17.0322 17.4941 17.5774 16.7947 18.2138L15.3082 19.6705V19.7401H19.5838V21.5H12.3253Z" fill="white" fill-opacity="0.95"/>
</svg>
