<svg width="553" height="182" viewBox="0 0 553 182" fill="none" xmlns="http://www.w3.org/2000/svg">
<rect width="553" height="182" rx="20" fill="#262626"/>
<line x1="24" y1="53.5" x2="202" y2="53.5" stroke="white" stroke-opacity="0.2"/>
<path d="M235.307 48.8182V59H234.114L228.565 51.0057H228.466V59H227.233V48.8182H228.426L233.994 56.8324H234.094V48.8182H235.307ZM240.817 59.1591C240.081 59.1591 239.446 58.9967 238.912 58.6719C238.382 58.3438 237.973 57.8864 237.684 57.2997C237.399 56.7098 237.257 56.0237 237.257 55.2415C237.257 54.4593 237.399 53.7699 237.684 53.1733C237.973 52.5734 238.374 52.1061 238.888 51.7713C239.405 51.4332 240.008 51.2642 240.697 51.2642C241.095 51.2642 241.488 51.3305 241.876 51.4631C242.263 51.5956 242.616 51.8111 242.934 52.1094C243.253 52.4044 243.506 52.7955 243.695 53.2827C243.884 53.7699 243.979 54.3698 243.979 55.0824V55.5795H238.092V54.5653H242.785C242.785 54.1345 242.699 53.75 242.527 53.4119C242.358 53.0739 242.116 52.8071 241.801 52.6115C241.489 52.416 241.122 52.3182 240.697 52.3182C240.23 52.3182 239.826 52.4342 239.484 52.6662C239.146 52.8949 238.886 53.1932 238.704 53.5611C238.521 53.929 238.43 54.3234 238.43 54.7443V55.4205C238.43 55.9972 238.53 56.486 238.729 56.8871C238.931 57.2848 239.211 57.5881 239.569 57.7969C239.927 58.0024 240.343 58.1051 240.817 58.1051C241.125 58.1051 241.403 58.062 241.652 57.9759C241.904 57.8864 242.121 57.7538 242.303 57.5781C242.485 57.3991 242.626 57.1771 242.726 56.9119L243.859 57.2301C243.74 57.6146 243.539 57.9527 243.258 58.2443C242.976 58.5327 242.628 58.758 242.214 58.9205C241.799 59.0795 241.334 59.1591 240.817 59.1591ZM247.493 59L245.167 51.3636H246.4L248.05 57.2102H248.13L249.76 51.3636H251.013L252.624 57.1903H252.704L254.354 51.3636H255.587L253.26 59H252.107L250.437 53.1335H250.317L248.647 59H247.493ZM261.076 59V51.3636H262.209V52.5568H262.309C262.468 52.1491 262.725 51.8326 263.079 51.6072C263.434 51.3786 263.86 51.2642 264.357 51.2642C264.861 51.2642 265.28 51.3786 265.615 51.6072C265.953 51.8326 266.216 52.1491 266.405 52.5568H266.485C266.68 52.1624 266.974 51.8492 267.365 51.6172C267.756 51.3819 268.225 51.2642 268.772 51.2642C269.455 51.2642 270.013 51.478 270.447 51.9055C270.881 52.3298 271.099 52.991 271.099 53.8892V59H269.925V53.8892C269.925 53.3258 269.771 52.9231 269.463 52.6811C269.155 52.4392 268.792 52.3182 268.374 52.3182C267.837 52.3182 267.421 52.4806 267.126 52.8054C266.831 53.1269 266.684 53.5346 266.684 54.0284V59H265.491V53.7699C265.491 53.3357 265.35 52.986 265.068 52.7209C264.786 52.4524 264.423 52.3182 263.979 52.3182C263.674 52.3182 263.389 52.3994 263.124 52.5618C262.862 52.7242 262.65 52.9496 262.488 53.2379C262.329 53.523 262.249 53.8527 262.249 54.2273V59H261.076ZM276.445 59.1591C275.71 59.1591 275.075 58.9967 274.541 58.6719C274.011 58.3438 273.602 57.8864 273.313 57.2997C273.028 56.7098 272.886 56.0237 272.886 55.2415C272.886 54.4593 273.028 53.7699 273.313 53.1733C273.602 52.5734 274.003 52.1061 274.517 51.7713C275.034 51.4332 275.637 51.2642 276.326 51.2642C276.724 51.2642 277.117 51.3305 277.504 51.4631C277.892 51.5956 278.245 51.8111 278.563 52.1094C278.882 52.4044 279.135 52.7955 279.324 53.2827C279.513 53.7699 279.607 54.3698 279.607 55.0824V55.5795H273.721V54.5653H278.414C278.414 54.1345 278.328 53.75 278.156 53.4119C277.987 53.0739 277.745 52.8071 277.43 52.6115C277.118 52.416 276.75 52.3182 276.326 52.3182C275.859 52.3182 275.454 52.4342 275.113 52.6662C274.775 52.8949 274.515 53.1932 274.333 53.5611C274.15 53.929 274.059 54.3234 274.059 54.7443V55.4205C274.059 55.9972 274.159 56.486 274.357 56.8871C274.56 57.2848 274.84 57.5881 275.198 57.7969C275.556 58.0024 275.972 58.1051 276.445 58.1051C276.754 58.1051 277.032 58.062 277.281 57.9759C277.533 57.8864 277.75 57.7538 277.932 57.5781C278.114 57.3991 278.255 57.1771 278.355 56.9119L279.488 57.2301C279.369 57.6146 279.168 57.9527 278.887 58.2443C278.605 58.5327 278.257 58.758 277.843 58.9205C277.428 59.0795 276.963 59.1591 276.445 59.1591ZM286.801 53.0739L285.747 53.3722C285.681 53.1965 285.583 53.0258 285.454 52.8601C285.328 52.6911 285.156 52.5518 284.937 52.4425C284.718 52.3331 284.438 52.2784 284.097 52.2784C283.629 52.2784 283.24 52.3861 282.928 52.6016C282.62 52.8137 282.466 53.0838 282.466 53.4119C282.466 53.7036 282.572 53.9339 282.784 54.103C282.996 54.272 283.328 54.4129 283.779 54.5256L284.912 54.804C285.595 54.9697 286.104 55.2232 286.438 55.5646C286.773 55.9027 286.941 56.3385 286.941 56.8722C286.941 57.3097 286.815 57.7008 286.563 58.0455C286.314 58.3902 285.966 58.6619 285.519 58.8608C285.071 59.0597 284.551 59.1591 283.958 59.1591C283.179 59.1591 282.534 58.9901 282.024 58.652C281.513 58.3139 281.19 57.8201 281.054 57.1705L282.168 56.892C282.274 57.303 282.474 57.6113 282.769 57.8168C283.068 58.0223 283.457 58.125 283.938 58.125C284.485 58.125 284.919 58.009 285.24 57.777C285.565 57.5417 285.727 57.2599 285.727 56.9318C285.727 56.6667 285.635 56.4446 285.449 56.2656C285.263 56.0833 284.978 55.9474 284.594 55.858L283.321 55.5597C282.622 55.3939 282.108 55.1371 281.78 54.7891C281.455 54.4377 281.293 53.9986 281.293 53.4716C281.293 53.0407 281.414 52.6596 281.656 52.3281C281.901 51.9967 282.234 51.7365 282.655 51.5476C283.079 51.3587 283.56 51.2642 284.097 51.2642C284.852 51.2642 285.446 51.4299 285.877 51.7614C286.311 52.0928 286.619 52.5303 286.801 53.0739ZM294.116 53.0739L293.062 53.3722C292.996 53.1965 292.898 53.0258 292.768 52.8601C292.643 52.6911 292.47 52.5518 292.251 52.4425C292.033 52.3331 291.753 52.2784 291.411 52.2784C290.944 52.2784 290.554 52.3861 290.243 52.6016C289.935 52.8137 289.781 53.0838 289.781 53.4119C289.781 53.7036 289.887 53.9339 290.099 54.103C290.311 54.272 290.642 54.4129 291.093 54.5256L292.227 54.804C292.909 54.9697 293.418 55.2232 293.753 55.5646C294.088 55.9027 294.255 56.3385 294.255 56.8722C294.255 57.3097 294.129 57.7008 293.877 58.0455C293.629 58.3902 293.281 58.6619 292.833 58.8608C292.386 59.0597 291.865 59.1591 291.272 59.1591C290.493 59.1591 289.848 58.9901 289.338 58.652C288.828 58.3139 288.504 57.8201 288.369 57.1705L289.482 56.892C289.588 57.303 289.789 57.6113 290.084 57.8168C290.382 58.0223 290.772 58.125 291.252 58.125C291.799 58.125 292.233 58.009 292.555 57.777C292.879 57.5417 293.042 57.2599 293.042 56.9318C293.042 56.6667 292.949 56.4446 292.763 56.2656C292.578 56.0833 292.293 55.9474 291.908 55.858L290.636 55.5597C289.936 55.3939 289.423 55.1371 289.094 54.7891C288.77 54.4377 288.607 53.9986 288.607 53.4716C288.607 53.0407 288.728 52.6596 288.97 52.3281C289.215 51.9967 289.549 51.7365 289.969 51.5476C290.394 51.3587 290.874 51.2642 291.411 51.2642C292.167 51.2642 292.76 51.4299 293.191 51.7614C293.625 52.0928 293.933 52.5303 294.116 53.0739ZM298.268 59.179C297.784 59.179 297.345 59.0878 296.951 58.9055C296.556 58.7199 296.243 58.4531 296.011 58.1051C295.779 57.7538 295.663 57.3295 295.663 56.8324C295.663 56.3949 295.749 56.0402 295.922 55.7685C296.094 55.4934 296.324 55.2779 296.613 55.1222C296.901 54.9664 297.219 54.8504 297.567 54.7741C297.919 54.6946 298.272 54.6316 298.626 54.5852C299.09 54.5256 299.466 54.4808 299.755 54.451C300.046 54.4179 300.259 54.3632 300.391 54.2869C300.527 54.2107 300.595 54.0781 300.595 53.8892V53.8494C300.595 53.3589 300.461 52.9777 300.192 52.706C299.927 52.4342 299.524 52.2983 298.984 52.2983C298.424 52.2983 297.985 52.4209 297.667 52.6662C297.349 52.9115 297.125 53.1733 296.996 53.4517L295.882 53.054C296.081 52.59 296.346 52.2287 296.677 51.9702C297.012 51.7083 297.377 51.526 297.771 51.4233C298.169 51.3172 298.56 51.2642 298.944 51.2642C299.19 51.2642 299.471 51.294 299.79 51.3537C300.111 51.41 300.421 51.5277 300.719 51.7067C301.021 51.8857 301.271 52.1558 301.47 52.517C301.669 52.8783 301.768 53.3622 301.768 53.9688V59H300.595V57.9659H300.535C300.456 58.1316 300.323 58.3089 300.138 58.4979C299.952 58.6868 299.705 58.8475 299.397 58.9801C299.089 59.1127 298.712 59.179 298.268 59.179ZM298.447 58.125C298.911 58.125 299.302 58.0339 299.621 57.8516C299.942 57.6693 300.184 57.4339 300.346 57.1456C300.512 56.8572 300.595 56.554 300.595 56.2358V55.1619C300.545 55.2216 300.436 55.2763 300.267 55.326C300.101 55.3724 299.909 55.4138 299.69 55.4503C299.475 55.4834 299.264 55.5133 299.059 55.5398C298.857 55.563 298.693 55.5829 298.567 55.5994C298.262 55.6392 297.977 55.7038 297.711 55.7933C297.45 55.8795 297.238 56.0104 297.075 56.1861C296.916 56.3584 296.836 56.5937 296.836 56.892C296.836 57.2997 296.987 57.608 297.289 57.8168C297.594 58.0223 297.98 58.125 298.447 58.125ZM306.992 62.0227C306.425 62.0227 305.938 61.9498 305.531 61.804C305.123 61.6615 304.783 61.4725 304.511 61.2372C304.243 61.0052 304.029 60.7566 303.87 60.4915L304.805 59.8352C304.911 59.9744 305.045 60.1335 305.207 60.3125C305.37 60.4948 305.592 60.6522 305.874 60.7848C306.159 60.9207 306.531 60.9886 306.992 60.9886C307.609 60.9886 308.117 60.8395 308.518 60.5412C308.92 60.2429 309.12 59.7756 309.12 59.1392V57.5881H309.021C308.934 57.7273 308.812 57.8996 308.653 58.1051C308.497 58.3073 308.272 58.4879 307.977 58.647C307.685 58.8028 307.29 58.8807 306.793 58.8807C306.177 58.8807 305.623 58.7348 305.133 58.4432C304.646 58.1515 304.259 57.7273 303.974 57.1705C303.693 56.6136 303.552 55.9375 303.552 55.142C303.552 54.3598 303.689 53.6787 303.964 53.0987C304.24 52.5154 304.622 52.0646 305.113 51.7464C305.603 51.425 306.17 51.2642 306.813 51.2642C307.31 51.2642 307.705 51.3471 307.996 51.5128C308.291 51.6752 308.517 51.8608 308.673 52.0696C308.832 52.2751 308.954 52.4441 309.04 52.5767H309.16V51.3636H310.293V59.2188C310.293 59.875 310.144 60.4086 309.846 60.8196C309.551 61.2339 309.153 61.5372 308.653 61.7294C308.156 61.925 307.602 62.0227 306.992 62.0227ZM306.952 57.8267C307.423 57.8267 307.821 57.719 308.146 57.5036C308.47 57.2881 308.717 56.9782 308.886 56.5739C309.055 56.1695 309.14 55.6856 309.14 55.1222C309.14 54.572 309.057 54.0864 308.891 53.6655C308.726 53.2446 308.48 52.9148 308.156 52.6761C307.831 52.4375 307.43 52.3182 306.952 52.3182C306.455 52.3182 306.041 52.4441 305.71 52.696C305.381 52.9479 305.134 53.286 304.969 53.7102C304.806 54.1345 304.725 54.6051 304.725 55.1222C304.725 55.6525 304.808 56.1214 304.974 56.5291C305.143 56.9335 305.391 57.2517 305.719 57.4837C306.051 57.7124 306.462 57.8267 306.952 57.8267ZM315.643 59.1591C314.907 59.1591 314.272 58.9967 313.739 58.6719C313.208 58.3438 312.799 57.8864 312.511 57.2997C312.226 56.7098 312.083 56.0237 312.083 55.2415C312.083 54.4593 312.226 53.7699 312.511 53.1733C312.799 52.5734 313.2 52.1061 313.714 51.7713C314.231 51.4332 314.834 51.2642 315.523 51.2642C315.921 51.2642 316.314 51.3305 316.702 51.4631C317.089 51.5956 317.442 51.8111 317.761 52.1094C318.079 52.4044 318.332 52.7955 318.521 53.2827C318.71 53.7699 318.805 54.3698 318.805 55.0824V55.5795H312.918V54.5653H317.612C317.612 54.1345 317.525 53.75 317.353 53.4119C317.184 53.0739 316.942 52.8071 316.627 52.6115C316.316 52.416 315.948 52.3182 315.523 52.3182C315.056 52.3182 314.652 52.4342 314.31 52.6662C313.972 52.8949 313.712 53.1932 313.53 53.5611C313.348 53.929 313.256 54.3234 313.256 54.7443V55.4205C313.256 55.9972 313.356 56.486 313.555 56.8871C313.757 57.2848 314.037 57.5881 314.395 57.7969C314.753 58.0024 315.169 58.1051 315.643 58.1051C315.951 58.1051 316.229 58.062 316.478 57.9759C316.73 57.8864 316.947 57.7538 317.129 57.5781C317.312 57.3991 317.452 57.1771 317.552 56.9119L318.685 57.2301C318.566 57.6146 318.366 57.9527 318.084 58.2443C317.802 58.5327 317.454 58.758 317.04 58.9205C316.625 59.0795 316.16 59.1591 315.643 59.1591ZM325.999 53.0739L324.945 53.3722C324.878 53.1965 324.781 53.0258 324.651 52.8601C324.525 52.6911 324.353 52.5518 324.134 52.4425C323.915 52.3331 323.635 52.2784 323.294 52.2784C322.827 52.2784 322.437 52.3861 322.126 52.6016C321.817 52.8137 321.663 53.0838 321.663 53.4119C321.663 53.7036 321.769 53.9339 321.982 54.103C322.194 54.272 322.525 54.4129 322.976 54.5256L324.109 54.804C324.792 54.9697 325.301 55.2232 325.636 55.5646C325.97 55.9027 326.138 56.3385 326.138 56.8722C326.138 57.3097 326.012 57.7008 325.76 58.0455C325.511 58.3902 325.163 58.6619 324.716 58.8608C324.268 59.0597 323.748 59.1591 323.155 59.1591C322.376 59.1591 321.731 58.9901 321.221 58.652C320.71 58.3139 320.387 57.8201 320.251 57.1705L321.365 56.892C321.471 57.303 321.672 57.6113 321.967 57.8168C322.265 58.0223 322.654 58.125 323.135 58.125C323.682 58.125 324.116 58.009 324.438 57.777C324.762 57.5417 324.925 57.2599 324.925 56.9318C324.925 56.6667 324.832 56.4446 324.646 56.2656C324.461 56.0833 324.176 55.9474 323.791 55.858L322.518 55.5597C321.819 55.3939 321.305 55.1371 320.977 54.7891C320.652 54.4377 320.49 53.9986 320.49 53.4716C320.49 53.0407 320.611 52.6596 320.853 52.3281C321.098 51.9967 321.431 51.7365 321.852 51.5476C322.277 51.3587 322.757 51.2642 323.294 51.2642C324.05 51.2642 324.643 51.4299 325.074 51.7614C325.508 52.0928 325.816 52.5303 325.999 53.0739Z" fill="white" fill-opacity="0.7"/>
<line x1="351" y1="53.5" x2="529" y2="53.5" stroke="white" stroke-opacity="0.2"/>
<g clip-path="url(#clip0_1215_12172)">
<path d="M276.5 118V84" stroke="#932099"/>
<path d="M276.5 76L272.5 84H280.5L276.5 76Z" fill="#932099"/>
<rect x="177" y="110" width="199" height="28" rx="14" fill="#932099"/>
<path d="M190.614 125.909V125L197.932 121.273V122.727L192.318 125.432L192.364 125.341V125.568L192.318 125.477L197.932 128.182V129.636L190.614 125.909ZM203.342 130.205C202.789 130.205 202.287 130.1 201.837 129.892C201.386 129.68 201.028 129.375 200.763 128.977C200.498 128.576 200.365 128.091 200.365 127.523C200.365 127.023 200.464 126.617 200.661 126.307C200.857 125.992 201.121 125.746 201.45 125.568C201.78 125.39 202.143 125.258 202.541 125.17C202.943 125.08 203.346 125.008 203.751 124.955C204.282 124.886 204.712 124.835 205.041 124.801C205.375 124.763 205.617 124.701 205.768 124.614C205.924 124.527 206.001 124.375 206.001 124.159V124.114C206.001 123.553 205.848 123.117 205.541 122.807C205.238 122.496 204.778 122.341 204.161 122.341C203.52 122.341 203.018 122.481 202.655 122.761C202.291 123.042 202.036 123.341 201.888 123.659L200.615 123.205C200.842 122.674 201.145 122.261 201.524 121.966C201.907 121.667 202.323 121.458 202.774 121.341C203.229 121.22 203.676 121.159 204.115 121.159C204.395 121.159 204.717 121.193 205.081 121.261C205.448 121.326 205.803 121.46 206.143 121.665C206.488 121.869 206.774 122.178 207.001 122.591C207.229 123.004 207.342 123.557 207.342 124.25V130H206.001V128.818H205.933C205.842 129.008 205.691 129.21 205.479 129.426C205.267 129.642 204.984 129.826 204.632 129.977C204.28 130.129 203.85 130.205 203.342 130.205ZM203.547 129C204.077 129 204.524 128.896 204.888 128.688C205.255 128.479 205.532 128.21 205.717 127.881C205.907 127.551 206.001 127.205 206.001 126.841V125.614C205.945 125.682 205.82 125.744 205.626 125.801C205.437 125.854 205.217 125.902 204.967 125.943C204.721 125.981 204.481 126.015 204.246 126.045C204.015 126.072 203.827 126.095 203.683 126.114C203.335 126.159 203.009 126.233 202.706 126.335C202.407 126.434 202.164 126.583 201.979 126.784C201.797 126.981 201.706 127.25 201.706 127.591C201.706 128.057 201.878 128.409 202.223 128.648C202.571 128.883 203.013 129 203.547 129ZM211.131 118.364V130H209.79V118.364H211.131ZM217.382 121.273V122.409H212.859V121.273H217.382ZM214.178 119.182H215.518V127.5C215.518 127.879 215.573 128.163 215.683 128.352C215.797 128.538 215.941 128.663 216.115 128.727C216.293 128.788 216.481 128.818 216.678 128.818C216.825 128.818 216.946 128.811 217.041 128.795C217.136 128.777 217.212 128.761 217.268 128.75L217.541 129.955C217.45 129.989 217.323 130.023 217.161 130.057C216.998 130.095 216.791 130.114 216.541 130.114C216.162 130.114 215.791 130.032 215.428 129.869C215.068 129.706 214.768 129.458 214.53 129.125C214.295 128.792 214.178 128.371 214.178 127.864V119.182ZM219.945 124.386V123.159H226.945V124.386H219.945ZM219.945 127.75V126.523H226.945V127.75H219.945ZM231.128 118.364V119.386C231.128 119.697 231.071 120.028 230.957 120.381C230.848 120.729 230.685 121.068 230.469 121.398C230.257 121.723 229.999 122.008 229.696 122.25L228.969 121.659C229.207 121.318 229.414 120.964 229.588 120.597C229.766 120.225 229.855 119.83 229.855 119.409V118.364H231.128ZM234.037 118.364V119.386C234.037 119.697 233.98 120.028 233.866 120.381C233.757 120.729 233.594 121.068 233.378 121.398C233.166 121.723 232.908 122.008 232.605 122.25L231.878 121.659C232.116 121.318 232.323 120.964 232.497 120.597C232.675 120.225 232.764 119.83 232.764 119.409V118.364H234.037ZM237.037 124.75V130H235.696V121.273H236.991V122.636H237.105C237.31 122.193 237.62 121.837 238.037 121.568C238.454 121.295 238.991 121.159 239.651 121.159C240.241 121.159 240.759 121.28 241.202 121.523C241.645 121.761 241.99 122.125 242.236 122.614C242.482 123.098 242.605 123.712 242.605 124.455V130H241.264V124.545C241.264 123.86 241.086 123.326 240.73 122.943C240.374 122.557 239.885 122.364 239.264 122.364C238.836 122.364 238.454 122.456 238.116 122.642C237.783 122.828 237.52 123.098 237.327 123.455C237.134 123.811 237.037 124.242 237.037 124.75ZM248.714 130.182C247.874 130.182 247.148 129.996 246.538 129.625C245.932 129.25 245.464 128.727 245.135 128.057C244.809 127.383 244.646 126.598 244.646 125.705C244.646 124.811 244.809 124.023 245.135 123.341C245.464 122.655 245.923 122.121 246.51 121.739C247.101 121.352 247.79 121.159 248.578 121.159C249.033 121.159 249.482 121.235 249.925 121.386C250.368 121.538 250.771 121.784 251.135 122.125C251.499 122.462 251.788 122.909 252.004 123.466C252.22 124.023 252.328 124.708 252.328 125.523V126.091H245.601V124.932H250.964C250.964 124.439 250.866 124 250.669 123.614C250.476 123.227 250.199 122.922 249.839 122.699C249.483 122.475 249.063 122.364 248.578 122.364C248.044 122.364 247.582 122.496 247.192 122.761C246.805 123.023 246.508 123.364 246.3 123.784C246.091 124.205 245.987 124.655 245.987 125.136V125.909C245.987 126.568 246.101 127.127 246.328 127.585C246.559 128.04 246.879 128.386 247.288 128.625C247.697 128.86 248.173 128.977 248.714 128.977C249.067 128.977 249.385 128.928 249.669 128.83C249.957 128.727 250.205 128.576 250.413 128.375C250.622 128.17 250.783 127.917 250.896 127.614L252.192 127.977C252.055 128.417 251.826 128.803 251.504 129.136C251.182 129.466 250.785 129.723 250.311 129.909C249.838 130.091 249.305 130.182 248.714 130.182ZM256.345 130L253.686 121.273H255.095L256.982 127.955H257.072L258.936 121.273H260.368L262.209 127.932H262.3L264.186 121.273H265.595L262.936 130H261.618L259.709 123.295H259.572L257.663 130H256.345ZM271.868 130V121.273H273.163V122.636H273.277C273.459 122.17 273.752 121.809 274.158 121.551C274.563 121.29 275.05 121.159 275.618 121.159C276.194 121.159 276.673 121.29 277.055 121.551C277.442 121.809 277.743 122.17 277.959 122.636H278.05C278.273 122.186 278.608 121.828 279.055 121.562C279.502 121.294 280.038 121.159 280.663 121.159C281.444 121.159 282.082 121.403 282.578 121.892C283.074 122.377 283.322 123.133 283.322 124.159V130H281.982V124.159C281.982 123.515 281.805 123.055 281.453 122.778C281.101 122.502 280.686 122.364 280.209 122.364C279.595 122.364 279.12 122.549 278.783 122.92C278.446 123.288 278.277 123.754 278.277 124.318V130H276.913V124.023C276.913 123.527 276.752 123.127 276.43 122.824C276.108 122.517 275.694 122.364 275.186 122.364C274.838 122.364 274.512 122.456 274.209 122.642C273.91 122.828 273.667 123.085 273.482 123.415C273.3 123.741 273.209 124.117 273.209 124.545V130H271.868ZM289.433 130.182C288.592 130.182 287.867 129.996 287.257 129.625C286.651 129.25 286.183 128.727 285.854 128.057C285.528 127.383 285.365 126.598 285.365 125.705C285.365 124.811 285.528 124.023 285.854 123.341C286.183 122.655 286.642 122.121 287.229 121.739C287.82 121.352 288.509 121.159 289.297 121.159C289.751 121.159 290.2 121.235 290.643 121.386C291.087 121.538 291.49 121.784 291.854 122.125C292.217 122.462 292.507 122.909 292.723 123.466C292.939 124.023 293.047 124.708 293.047 125.523V126.091H286.32V124.932H291.683C291.683 124.439 291.585 124 291.388 123.614C291.195 123.227 290.918 122.922 290.558 122.699C290.202 122.475 289.782 122.364 289.297 122.364C288.763 122.364 288.301 122.496 287.911 122.761C287.524 123.023 287.227 123.364 287.018 123.784C286.81 124.205 286.706 124.655 286.706 125.136V125.909C286.706 126.568 286.82 127.127 287.047 127.585C287.278 128.04 287.598 128.386 288.007 128.625C288.416 128.86 288.892 128.977 289.433 128.977C289.786 128.977 290.104 128.928 290.388 128.83C290.676 128.727 290.924 128.576 291.132 128.375C291.34 128.17 291.501 127.917 291.615 127.614L292.911 127.977C292.774 128.417 292.545 128.803 292.223 129.136C291.901 129.466 291.503 129.723 291.03 129.909C290.556 130.091 290.024 130.182 289.433 130.182ZM301.268 123.227L300.064 123.568C299.988 123.367 299.876 123.172 299.729 122.983C299.585 122.79 299.388 122.631 299.138 122.506C298.888 122.381 298.568 122.318 298.178 122.318C297.643 122.318 297.198 122.441 296.842 122.688C296.49 122.93 296.314 123.239 296.314 123.614C296.314 123.947 296.435 124.21 296.678 124.403C296.92 124.597 297.299 124.758 297.814 124.886L299.109 125.205C299.89 125.394 300.471 125.684 300.854 126.074C301.236 126.46 301.428 126.958 301.428 127.568C301.428 128.068 301.284 128.515 300.996 128.909C300.712 129.303 300.314 129.614 299.803 129.841C299.291 130.068 298.696 130.182 298.018 130.182C297.128 130.182 296.392 129.989 295.808 129.602C295.225 129.216 294.856 128.652 294.7 127.909L295.973 127.591C296.094 128.061 296.323 128.413 296.661 128.648C297.001 128.883 297.446 129 297.996 129C298.621 129 299.117 128.867 299.484 128.602C299.856 128.333 300.041 128.011 300.041 127.636C300.041 127.333 299.935 127.08 299.723 126.875C299.511 126.667 299.185 126.511 298.746 126.409L297.291 126.068C296.492 125.879 295.905 125.585 295.53 125.188C295.159 124.786 294.973 124.284 294.973 123.682C294.973 123.189 295.111 122.754 295.388 122.375C295.668 121.996 296.049 121.699 296.53 121.483C297.015 121.267 297.564 121.159 298.178 121.159C299.041 121.159 299.719 121.348 300.212 121.727C300.708 122.106 301.06 122.606 301.268 123.227ZM309.628 123.227L308.423 123.568C308.348 123.367 308.236 123.172 308.088 122.983C307.944 122.79 307.747 122.631 307.497 122.506C307.247 122.381 306.927 122.318 306.537 122.318C306.003 122.318 305.558 122.441 305.202 122.688C304.849 122.93 304.673 123.239 304.673 123.614C304.673 123.947 304.795 124.21 305.037 124.403C305.279 124.597 305.658 124.758 306.173 124.886L307.469 125.205C308.249 125.394 308.83 125.684 309.213 126.074C309.596 126.46 309.787 126.958 309.787 127.568C309.787 128.068 309.643 128.515 309.355 128.909C309.071 129.303 308.673 129.614 308.162 129.841C307.651 130.068 307.056 130.182 306.378 130.182C305.488 130.182 304.751 129.989 304.168 129.602C303.584 129.216 303.215 128.652 303.06 127.909L304.332 127.591C304.454 128.061 304.683 128.413 305.02 128.648C305.361 128.883 305.806 129 306.355 129C306.98 129 307.476 128.867 307.844 128.602C308.215 128.333 308.401 128.011 308.401 127.636C308.401 127.333 308.295 127.08 308.082 126.875C307.87 126.667 307.545 126.511 307.105 126.409L305.651 126.068C304.851 125.879 304.264 125.585 303.889 125.188C303.518 124.786 303.332 124.284 303.332 123.682C303.332 123.189 303.471 122.754 303.747 122.375C304.027 121.996 304.408 121.699 304.889 121.483C305.374 121.267 305.923 121.159 306.537 121.159C307.401 121.159 308.079 121.348 308.571 121.727C309.067 122.106 309.42 122.606 309.628 123.227ZM314.374 130.205C313.821 130.205 313.319 130.1 312.868 129.892C312.417 129.68 312.059 129.375 311.794 128.977C311.529 128.576 311.396 128.091 311.396 127.523C311.396 127.023 311.495 126.617 311.692 126.307C311.889 125.992 312.152 125.746 312.482 125.568C312.811 125.39 313.175 125.258 313.572 125.17C313.974 125.08 314.377 125.008 314.783 124.955C315.313 124.886 315.743 124.835 316.072 124.801C316.406 124.763 316.648 124.701 316.8 124.614C316.955 124.527 317.033 124.375 317.033 124.159V124.114C317.033 123.553 316.879 123.117 316.572 122.807C316.269 122.496 315.809 122.341 315.192 122.341C314.552 122.341 314.05 122.481 313.686 122.761C313.322 123.042 313.067 123.341 312.919 123.659L311.646 123.205C311.874 122.674 312.177 122.261 312.555 121.966C312.938 121.667 313.355 121.458 313.805 121.341C314.26 121.22 314.707 121.159 315.146 121.159C315.427 121.159 315.749 121.193 316.112 121.261C316.48 121.326 316.834 121.46 317.175 121.665C317.519 121.869 317.805 122.178 318.033 122.591C318.26 123.004 318.374 123.557 318.374 124.25V130H317.033V128.818H316.964C316.874 129.008 316.722 129.21 316.51 129.426C316.298 129.642 316.016 129.826 315.663 129.977C315.311 130.129 314.881 130.205 314.374 130.205ZM314.578 129C315.108 129 315.555 128.896 315.919 128.688C316.286 128.479 316.563 128.21 316.749 127.881C316.938 127.551 317.033 127.205 317.033 126.841V125.614C316.976 125.682 316.851 125.744 316.658 125.801C316.468 125.854 316.249 125.902 315.999 125.943C315.752 125.981 315.512 126.015 315.277 126.045C315.046 126.072 314.858 126.095 314.714 126.114C314.366 126.159 314.04 126.233 313.737 126.335C313.438 126.434 313.196 126.583 313.01 126.784C312.828 126.981 312.737 127.25 312.737 127.591C312.737 128.057 312.91 128.409 313.254 128.648C313.603 128.883 314.044 129 314.578 129ZM324.344 133.455C323.696 133.455 323.139 133.371 322.673 133.205C322.207 133.042 321.819 132.826 321.509 132.557C321.202 132.292 320.957 132.008 320.776 131.705L321.844 130.955C321.965 131.114 322.118 131.295 322.304 131.5C322.49 131.708 322.743 131.888 323.065 132.04C323.391 132.195 323.817 132.273 324.344 132.273C325.048 132.273 325.63 132.102 326.088 131.761C326.546 131.42 326.776 130.886 326.776 130.159V128.386H326.662C326.563 128.545 326.423 128.742 326.241 128.977C326.063 129.208 325.806 129.415 325.469 129.597C325.135 129.775 324.685 129.864 324.116 129.864C323.412 129.864 322.779 129.697 322.219 129.364C321.662 129.03 321.221 128.545 320.895 127.909C320.573 127.273 320.412 126.5 320.412 125.591C320.412 124.697 320.569 123.919 320.884 123.256C321.198 122.589 321.635 122.074 322.196 121.71C322.757 121.343 323.404 121.159 324.139 121.159C324.707 121.159 325.158 121.254 325.491 121.443C325.829 121.629 326.086 121.841 326.264 122.08C326.446 122.314 326.586 122.508 326.685 122.659H326.821V121.273H328.116V130.25C328.116 131 327.946 131.61 327.605 132.08C327.268 132.553 326.813 132.9 326.241 133.119C325.673 133.343 325.041 133.455 324.344 133.455ZM324.298 128.659C324.836 128.659 325.291 128.536 325.662 128.29C326.033 128.044 326.315 127.689 326.509 127.227C326.702 126.765 326.798 126.212 326.798 125.568C326.798 124.939 326.704 124.384 326.514 123.903C326.325 123.422 326.045 123.045 325.673 122.773C325.302 122.5 324.844 122.364 324.298 122.364C323.73 122.364 323.257 122.508 322.878 122.795C322.503 123.083 322.221 123.47 322.031 123.955C321.846 124.439 321.753 124.977 321.753 125.568C321.753 126.174 321.848 126.71 322.037 127.176C322.23 127.638 322.514 128.002 322.889 128.267C323.268 128.528 323.738 128.659 324.298 128.659ZM334.23 130.182C333.389 130.182 332.664 129.996 332.054 129.625C331.448 129.25 330.98 128.727 330.651 128.057C330.325 127.383 330.162 126.598 330.162 125.705C330.162 124.811 330.325 124.023 330.651 123.341C330.98 122.655 331.438 122.121 332.026 121.739C332.616 121.352 333.306 121.159 334.094 121.159C334.548 121.159 334.997 121.235 335.44 121.386C335.884 121.538 336.287 121.784 336.651 122.125C337.014 122.462 337.304 122.909 337.52 123.466C337.736 124.023 337.844 124.708 337.844 125.523V126.091H331.116V124.932H336.48C336.48 124.439 336.382 124 336.185 123.614C335.991 123.227 335.715 122.922 335.355 122.699C334.999 122.475 334.579 122.364 334.094 122.364C333.56 122.364 333.098 122.496 332.707 122.761C332.321 123.023 332.024 123.364 331.815 123.784C331.607 124.205 331.503 124.655 331.503 125.136V125.909C331.503 126.568 331.616 127.127 331.844 127.585C332.075 128.04 332.395 128.386 332.804 128.625C333.213 128.86 333.688 128.977 334.23 128.977C334.582 128.977 334.901 128.928 335.185 128.83C335.473 128.727 335.721 128.576 335.929 128.375C336.137 128.17 336.298 127.917 336.412 127.614L337.707 127.977C337.571 128.417 337.342 128.803 337.02 129.136C336.698 129.466 336.3 129.723 335.827 129.909C335.353 130.091 334.821 130.182 334.23 130.182ZM346.065 123.227L344.861 123.568C344.785 123.367 344.673 123.172 344.526 122.983C344.382 122.79 344.185 122.631 343.935 122.506C343.685 122.381 343.365 122.318 342.974 122.318C342.44 122.318 341.995 122.441 341.639 122.688C341.287 122.93 341.111 123.239 341.111 123.614C341.111 123.947 341.232 124.21 341.474 124.403C341.717 124.597 342.096 124.758 342.611 124.886L343.906 125.205C344.687 125.394 345.268 125.684 345.651 126.074C346.033 126.46 346.224 126.958 346.224 127.568C346.224 128.068 346.08 128.515 345.793 128.909C345.509 129.303 345.111 129.614 344.599 129.841C344.088 130.068 343.493 130.182 342.815 130.182C341.925 130.182 341.188 129.989 340.605 129.602C340.022 129.216 339.652 128.652 339.497 127.909L340.77 127.591C340.891 128.061 341.12 128.413 341.457 128.648C341.798 128.883 342.243 129 342.793 129C343.418 129 343.914 128.867 344.281 128.602C344.652 128.333 344.838 128.011 344.838 127.636C344.838 127.333 344.732 127.08 344.52 126.875C344.308 126.667 343.982 126.511 343.543 126.409L342.088 126.068C341.289 125.879 340.702 125.585 340.327 125.188C339.955 124.786 339.77 124.284 339.77 123.682C339.77 123.189 339.908 122.754 340.185 122.375C340.465 121.996 340.846 121.699 341.327 121.483C341.812 121.267 342.361 121.159 342.974 121.159C343.838 121.159 344.516 121.348 345.009 121.727C345.505 122.106 345.857 122.606 346.065 123.227ZM349.425 118.364V119.386C349.425 119.697 349.368 120.028 349.254 120.381C349.144 120.729 348.982 121.068 348.766 121.398C348.554 121.723 348.296 122.008 347.993 122.25L347.266 121.659C347.504 121.318 347.711 120.964 347.885 120.597C348.063 120.225 348.152 119.83 348.152 119.409V118.364H349.425ZM352.334 118.364V119.386C352.334 119.697 352.277 120.028 352.163 120.381C352.054 120.729 351.891 121.068 351.675 121.398C351.463 121.723 351.205 122.008 350.902 122.25L350.175 121.659C350.413 121.318 350.62 120.964 350.794 120.597C350.972 120.225 351.061 119.83 351.061 119.409V118.364H352.334ZM362.041 125.909L354.723 129.636V128.182L360.337 125.477L360.291 125.568V125.341L360.337 125.432L354.723 122.727V121.273L362.041 125V125.909Z" fill="white"/>
</g>
<defs>
<clipPath id="clip0_1215_12172">
<rect width="199" height="62" fill="white" transform="translate(177 76)"/>
</clipPath>
</defs>
</svg>
