<svg width="559" height="246" viewBox="0 0 559 246" fill="none" xmlns="http://www.w3.org/2000/svg">
<rect width="559" height="246" rx="16" fill="#1A1A1A"/>
<g filter="url(#filter0_dd_1227_9445)">
<g filter="url(#filter1_dd_1227_9445)">
<rect x="54.5" y="32" width="450" height="182" rx="8" fill="black"/>
<rect x="55" y="32.5" width="449" height="181" rx="7.5" stroke="white" stroke-opacity="0.2"/>
<path d="M78.5 65H76.708L73.46 56.424V65H71.604V53.48H74.196L77.652 62.84L80.932 53.48H83.476V65H81.588V56.456L78.5 65ZM87.3461 59.032H85.3461C85.4848 58.168 85.9168 57.5067 86.6421 57.048C87.2928 56.6427 88.1088 56.44 89.0901 56.44C90.2741 56.44 91.1808 56.744 91.8101 57.352C92.3541 57.8747 92.6261 58.552 92.6261 59.384V65H91.0901L90.8501 63.976C90.1995 64.8187 89.2768 65.24 88.0821 65.24C87.1328 65.24 86.3968 64.984 85.8741 64.472C85.4155 64.024 85.1861 63.4533 85.1861 62.76C85.1861 61.9813 85.4688 61.3733 86.0341 60.936C86.5461 60.5307 87.3408 60.2373 88.4181 60.056L90.7061 59.672V59.272C90.7061 58.7707 90.5408 58.3973 90.2101 58.152C89.9221 57.928 89.5275 57.816 89.0261 57.816C88.0341 57.816 87.4741 58.2213 87.3461 59.032ZM90.7061 60.936L88.8981 61.256C88.2795 61.3733 87.8368 61.5387 87.5701 61.752C87.3035 61.9547 87.1701 62.2427 87.1701 62.616C87.1701 63.3947 87.6448 63.784 88.5941 63.784C89.2128 63.784 89.7355 63.5813 90.1621 63.176C90.5248 62.824 90.7061 62.4133 90.7061 61.944V60.936ZM96.5065 65H94.5865V56.68H96.1705L96.3785 57.672C96.9865 56.8507 97.8292 56.44 98.9065 56.44C99.9092 56.44 100.677 56.7493 101.211 57.368C101.68 57.912 101.915 58.6533 101.915 59.592V65H99.9945V59.64C99.9945 58.4987 99.4665 57.928 98.4105 57.928C97.8345 57.928 97.3652 58.1307 97.0025 58.536C96.6718 58.9093 96.5065 59.3787 96.5065 59.944V65ZM111.739 65H110.203L109.867 63.928C109.217 64.8027 108.326 65.24 107.195 65.24C106.011 65.24 105.078 64.8133 104.395 63.96C103.777 63.1813 103.467 62.1627 103.467 60.904C103.467 59.3893 103.867 58.232 104.667 57.432C105.329 56.7707 106.187 56.44 107.243 56.44C108.342 56.44 109.201 56.8347 109.819 57.624V53.48H111.739V65ZM105.435 60.92C105.435 61.9013 105.67 62.632 106.139 63.112C106.523 63.5173 107.025 63.72 107.643 63.72C108.401 63.72 108.977 63.4427 109.371 62.888C109.723 62.3973 109.899 61.736 109.899 60.904C109.899 59.8587 109.654 59.08 109.163 58.568C108.779 58.1627 108.273 57.96 107.643 57.96C106.907 57.96 106.347 58.2373 105.963 58.792C105.611 59.2933 105.435 60.0027 105.435 60.92ZM115.534 59.032H113.534C113.672 58.168 114.104 57.5067 114.83 57.048C115.48 56.6427 116.296 56.44 117.278 56.44C118.462 56.44 119.368 56.744 119.998 57.352C120.542 57.8747 120.814 58.552 120.814 59.384V65H119.278L119.038 63.976C118.387 64.8187 117.464 65.24 116.27 65.24C115.32 65.24 114.584 64.984 114.062 64.472C113.603 64.024 113.374 63.4533 113.374 62.76C113.374 61.9813 113.656 61.3733 114.222 60.936C114.734 60.5307 115.528 60.2373 116.606 60.056L118.894 59.672V59.272C118.894 58.7707 118.728 58.3973 118.398 58.152C118.11 57.928 117.715 57.816 117.214 57.816C116.222 57.816 115.662 58.2213 115.534 59.032ZM118.894 60.936L117.086 61.256C116.467 61.3733 116.024 61.5387 115.758 61.752C115.491 61.9547 115.358 62.2427 115.358 62.616C115.358 63.3947 115.832 63.784 116.782 63.784C117.4 63.784 117.923 63.5813 118.35 63.176C118.712 62.824 118.894 62.4133 118.894 61.944V60.936ZM126.902 63.592V65.048C126.454 65.176 126.027 65.24 125.622 65.24C124.801 65.24 124.177 64.9947 123.75 64.504C123.387 64.088 123.206 63.528 123.206 62.824V58.152H121.958V56.68H123.206L123.334 54.68H125.126V56.68H126.886V58.152H125.126V62.888C125.126 63.4427 125.409 63.72 125.974 63.72C126.219 63.72 126.529 63.6773 126.902 63.592ZM127.717 60.824C127.717 59.3093 128.165 58.1627 129.061 57.384C129.797 56.7547 130.757 56.44 131.941 56.44C133.317 56.44 134.379 56.856 135.125 57.688C135.819 58.4453 136.165 59.4907 136.165 60.824C136.165 62.3387 135.728 63.4853 134.853 64.264C134.117 64.9147 133.147 65.24 131.941 65.24C130.576 65.24 129.515 64.8133 128.757 63.96C128.064 63.1813 127.717 62.136 127.717 60.824ZM131.957 63.816C132.715 63.816 133.28 63.5387 133.653 62.984C134.005 62.4827 134.181 61.7627 134.181 60.824C134.181 59.7573 133.947 58.9733 133.477 58.472C133.104 58.0667 132.592 57.864 131.941 57.864C131.195 57.864 130.629 58.136 130.245 58.68C129.883 59.1813 129.701 59.896 129.701 60.824C129.701 61.88 129.936 62.664 130.405 63.176C130.8 63.6027 131.317 63.816 131.957 63.816ZM142.67 56.552V58.408C142.318 58.3013 141.982 58.248 141.662 58.248C141.064 58.248 140.584 58.5093 140.222 59.032C139.88 59.5333 139.71 60.2267 139.71 61.112V65H137.79V56.68H139.374L139.614 57.928C140.083 56.936 140.792 56.44 141.742 56.44C142.083 56.44 142.392 56.4773 142.67 56.552ZM151.183 56.68L148.255 65.144C147.871 66.264 147.465 67.0373 147.039 67.464C146.612 67.9013 146.057 68.12 145.375 68.12C145.033 68.12 144.655 68.0667 144.239 67.96V66.52C144.569 66.6053 144.868 66.648 145.135 66.648C145.476 66.648 145.748 66.4987 145.951 66.2C146.1 65.976 146.271 65.576 146.463 65H145.871L142.847 56.68H144.911L147.055 63.528L149.263 56.68H151.183ZM156.387 61.704H158.419C158.515 62.3547 158.825 62.856 159.347 63.208C159.827 63.528 160.441 63.688 161.187 63.688C162.094 63.688 162.777 63.5013 163.235 63.128C163.598 62.8187 163.779 62.424 163.779 61.944C163.779 61.368 163.502 60.9253 162.947 60.616C162.499 60.3493 161.667 60.056 160.451 59.736C159.107 59.384 158.158 58.9467 157.603 58.424C157.059 57.9013 156.787 57.208 156.787 56.344C156.787 55.3413 157.209 54.5627 158.051 54.008C158.819 53.496 159.843 53.24 161.123 53.24C162.489 53.24 163.582 53.5547 164.403 54.184C165.118 54.7387 165.545 55.4747 165.683 56.392H163.667C163.593 55.848 163.305 55.432 162.803 55.144C162.355 54.8987 161.785 54.776 161.091 54.776C160.281 54.776 159.683 54.9253 159.299 55.224C159.001 55.4587 158.851 55.7733 158.851 56.168C158.851 56.6587 159.059 57.032 159.475 57.288C159.849 57.5227 160.558 57.7733 161.603 58.04C163.171 58.456 164.275 58.952 164.915 59.528C165.534 60.0933 165.843 60.8453 165.843 61.784C165.843 62.8293 165.401 63.672 164.515 64.312C163.673 64.9307 162.569 65.24 161.203 65.24C159.785 65.24 158.633 64.8773 157.747 64.152C156.99 63.5227 156.537 62.7067 156.387 61.704ZM174.589 56.68L171.661 65.144C171.277 66.264 170.872 67.0373 170.445 67.464C170.018 67.9013 169.464 68.12 168.781 68.12C168.44 68.12 168.061 68.0667 167.645 67.96V66.52C167.976 66.6053 168.274 66.648 168.541 66.648C168.882 66.648 169.154 66.4987 169.357 66.2C169.506 65.976 169.677 65.576 169.869 65H169.277L166.253 56.68H168.317L170.461 63.528L172.669 56.68H174.589ZM177.119 62.632C177.268 63.432 177.871 63.832 178.927 63.832C179.513 63.832 179.956 63.72 180.255 63.496C180.5 63.304 180.623 63.0533 180.623 62.744C180.623 62.3493 180.409 62.056 179.983 61.864C179.737 61.7573 179.199 61.608 178.367 61.416C177.343 61.1813 176.612 60.8613 176.175 60.456C175.737 60.0613 175.519 59.544 175.519 58.904C175.519 58.0933 175.849 57.4693 176.511 57.032C177.097 56.6373 177.903 56.44 178.927 56.44C179.983 56.44 180.831 56.6907 181.471 57.192C182.025 57.6187 182.372 58.1947 182.511 58.92H180.559C180.399 58.2053 179.844 57.848 178.895 57.848C177.935 57.848 177.455 58.1413 177.455 58.728C177.455 59.0267 177.577 59.2507 177.823 59.4C178.068 59.5493 178.564 59.7147 179.311 59.896C180.463 60.1627 181.263 60.4613 181.711 60.792C182.276 61.208 182.559 61.7947 182.559 62.552C182.559 63.416 182.207 64.0933 181.503 64.584C180.863 65.0213 179.999 65.24 178.911 65.24C177.769 65.24 176.857 64.968 176.175 64.424C175.599 63.9653 175.263 63.368 175.167 62.632H177.119ZM188.324 63.592V65.048C187.876 65.176 187.449 65.24 187.044 65.24C186.223 65.24 185.599 64.9947 185.172 64.504C184.809 64.088 184.628 63.528 184.628 62.824V58.152H183.38V56.68H184.628L184.756 54.68H186.548V56.68H188.308V58.152H186.548V62.888C186.548 63.4427 186.831 63.72 187.396 63.72C187.641 63.72 187.951 63.6773 188.324 63.592ZM195.203 62.6H197.219C196.995 63.4533 196.531 64.1147 195.827 64.584C195.155 65.0213 194.329 65.24 193.347 65.24C191.993 65.24 190.937 64.8133 190.179 63.96C189.486 63.1813 189.139 62.1413 189.139 60.84C189.139 59.3467 189.571 58.2053 190.435 57.416C191.161 56.7653 192.105 56.44 193.267 56.44C194.622 56.44 195.646 56.8827 196.339 57.768C196.99 58.5893 197.315 59.7627 197.315 61.288H191.091C191.166 62.184 191.443 62.84 191.923 63.256C192.307 63.5973 192.809 63.768 193.427 63.768C193.865 63.768 194.243 63.6613 194.563 63.448C194.883 63.2347 195.097 62.952 195.203 62.6ZM195.347 59.976C195.305 59.1973 195.07 58.6267 194.643 58.264C194.291 57.9547 193.833 57.8 193.267 57.8C192.649 57.8 192.153 58.0027 191.779 58.408C191.438 58.7707 191.219 59.2933 191.123 59.976H195.347ZM200.882 65H198.962V56.68H200.418L200.69 57.624C201.276 56.8347 202.103 56.44 203.17 56.44C204.332 56.44 205.159 56.856 205.65 57.688C206.247 56.856 207.154 56.44 208.37 56.44C209.33 56.44 210.066 56.7227 210.578 57.288C211.047 57.8107 211.282 58.5467 211.282 59.496V65H209.362V59.544C209.362 58.4667 208.86 57.928 207.858 57.928C207.282 57.928 206.823 58.152 206.482 58.6C206.215 58.9733 206.082 59.416 206.082 59.928V65H204.162V59.544C204.162 58.4667 203.66 57.928 202.658 57.928C202.114 57.928 201.671 58.1413 201.33 58.568C201.031 58.9307 200.882 59.3573 200.882 59.848V65ZM227.854 57.208H225.79C225.662 56.3973 225.31 55.7787 224.734 55.352C224.232 54.9893 223.619 54.808 222.894 54.808C221.795 54.808 220.958 55.2187 220.382 56.04C219.838 56.7973 219.566 57.8587 219.566 59.224C219.566 60.7707 219.912 61.9333 220.606 62.712C221.16 63.3413 221.891 63.656 222.798 63.656C223.726 63.656 224.467 63.3733 225.022 62.808C225.502 62.3173 225.768 61.672 225.822 60.872H227.902C227.784 62.248 227.214 63.3413 226.19 64.152C225.272 64.8773 224.131 65.24 222.766 65.24C221.038 65.24 219.699 64.6587 218.75 63.496C217.886 62.44 217.454 61.016 217.454 59.224C217.454 57.1867 218.019 55.64 219.15 54.584C220.099 53.688 221.347 53.24 222.894 53.24C224.344 53.24 225.539 53.6613 226.478 54.504C227.278 55.2187 227.736 56.12 227.854 57.208ZM231.46 65H229.54V53.48H231.46V57.544C232.057 56.808 232.862 56.44 233.876 56.44C234.878 56.44 235.641 56.7493 236.164 57.368C236.633 57.912 236.868 58.6533 236.868 59.592V65H234.948V59.64C234.948 58.4987 234.42 57.928 233.364 57.928C232.777 57.928 232.308 58.1307 231.956 58.536C231.625 58.9093 231.46 59.384 231.46 59.96V65ZM244.485 62.6H246.501C246.277 63.4533 245.813 64.1147 245.109 64.584C244.437 65.0213 243.61 65.24 242.629 65.24C241.274 65.24 240.218 64.8133 239.461 63.96C238.767 63.1813 238.421 62.1413 238.421 60.84C238.421 59.3467 238.853 58.2053 239.717 57.416C240.442 56.7653 241.386 56.44 242.549 56.44C243.903 56.44 244.927 56.8827 245.621 57.768C246.271 58.5893 246.597 59.7627 246.597 61.288H240.373C240.447 62.184 240.725 62.84 241.205 63.256C241.589 63.5973 242.09 63.768 242.709 63.768C243.146 63.768 243.525 63.6613 243.845 63.448C244.165 63.2347 244.378 62.952 244.485 62.6ZM244.629 59.976C244.586 59.1973 244.351 58.6267 243.925 58.264C243.573 57.9547 243.114 57.8 242.549 57.8C241.93 57.8 241.434 58.0027 241.061 58.408C240.719 58.7707 240.501 59.2933 240.405 59.976H244.629ZM253.683 62.296H255.731C255.571 63.224 255.128 63.9547 254.403 64.488C253.72 64.9893 252.877 65.24 251.875 65.24C250.552 65.24 249.528 64.8187 248.803 63.976C248.152 63.2187 247.827 62.2 247.827 60.92C247.827 59.4267 248.243 58.28 249.075 57.48C249.8 56.7867 250.739 56.44 251.891 56.44C252.968 56.44 253.859 56.7173 254.563 57.272C255.181 57.7627 255.56 58.3973 255.699 59.176H253.619C253.523 58.7813 253.325 58.472 253.027 58.248C252.728 58.0133 252.365 57.896 251.939 57.896C251.245 57.896 250.717 58.1733 250.355 58.728C250.013 59.2507 249.843 59.9973 249.843 60.968C249.843 61.9493 250.072 62.6907 250.531 63.192C250.893 63.5867 251.352 63.784 251.907 63.784C252.376 63.784 252.76 63.656 253.059 63.4C253.368 63.144 253.576 62.776 253.683 62.296ZM259.257 65H257.337V53.48H259.257V59.816L262.345 56.68H264.713L261.113 60.232L265.161 65H262.649L259.257 60.952V65ZM271.358 60.632H265.47V59.032H271.358V60.632ZM273.678 56.68H275.598V62.152C275.598 63.2187 276.121 63.752 277.166 63.752C277.774 63.752 278.249 63.5333 278.59 63.096C278.868 62.7227 279.006 62.264 279.006 61.72V56.68H280.926V65H279.342L279.134 64.072C278.537 64.8507 277.705 65.24 276.638 65.24C275.657 65.24 274.905 64.9413 274.382 64.344C273.913 63.8 273.678 63.0533 273.678 62.104V56.68ZM282.977 56.68H284.497L284.833 57.704C285.505 56.8613 286.417 56.44 287.569 56.44C288.764 56.44 289.692 56.8613 290.353 57.704C290.95 58.472 291.249 59.4853 291.249 60.744C291.249 62.248 290.838 63.4053 290.017 64.216C289.334 64.8987 288.465 65.24 287.409 65.24C286.342 65.24 285.505 64.8507 284.897 64.072V67.88H282.977V56.68ZM289.281 60.76C289.281 59.768 289.046 59.0267 288.577 58.536C288.204 58.152 287.708 57.96 287.089 57.96C286.374 57.96 285.809 58.2213 285.393 58.744C285.009 59.2453 284.817 59.912 284.817 60.744C284.817 61.7893 285.052 62.568 285.521 63.08C285.916 63.5067 286.428 63.72 287.057 63.72C287.793 63.72 288.353 63.448 288.737 62.904C289.1 62.392 289.281 61.6773 289.281 60.76ZM294.259 62.632C294.409 63.432 295.011 63.832 296.067 63.832C296.654 63.832 297.097 63.72 297.395 63.496C297.641 63.304 297.763 63.0533 297.763 62.744C297.763 62.3493 297.55 62.056 297.123 61.864C296.878 61.7573 296.339 61.608 295.507 61.416C294.483 61.1813 293.753 60.8613 293.315 60.456C292.878 60.0613 292.659 59.544 292.659 58.904C292.659 58.0933 292.99 57.4693 293.651 57.032C294.238 56.6373 295.043 56.44 296.067 56.44C297.123 56.44 297.971 56.6907 298.611 57.192C299.166 57.6187 299.513 58.1947 299.651 58.92H297.699C297.539 58.2053 296.985 57.848 296.035 57.848C295.075 57.848 294.595 58.1413 294.595 58.728C294.595 59.0267 294.718 59.2507 294.963 59.4C295.209 59.5493 295.705 59.7147 296.451 59.896C297.603 60.1627 298.403 60.4613 298.851 60.792C299.417 61.208 299.699 61.7947 299.699 62.552C299.699 63.416 299.347 64.0933 298.643 64.584C298.003 65.0213 297.139 65.24 296.051 65.24C294.91 65.24 293.998 64.968 293.315 64.424C292.739 63.9653 292.403 63.368 292.307 62.632H294.259Z" fill="white" fill-opacity="0.95"/>
<path d="M479.207 57.9998L483.354 53.8533C483.4 53.8069 483.437 53.7518 483.462 53.6911C483.487 53.6305 483.5 53.5655 483.5 53.4998C483.5 53.4342 483.487 53.3692 483.462 53.3085C483.437 53.2479 483.4 53.1927 483.354 53.1463C483.307 53.0999 483.252 53.0631 483.191 53.0379C483.131 53.0128 483.066 52.9999 483 52.9999C482.934 52.9999 482.869 53.0128 482.809 53.038C482.748 53.0631 482.693 53.0999 482.647 53.1463L478.5 57.2928L474.354 53.1463C474.307 53.0995 474.252 53.0622 474.191 53.0368C474.131 53.0113 474.065 52.9981 473.999 52.9979C473.934 52.9977 473.868 53.0105 473.807 53.0357C473.746 53.0608 473.691 53.0977 473.644 53.1443C473.598 53.1909 473.561 53.2463 473.536 53.3072C473.511 53.3681 473.498 53.4334 473.498 53.4993C473.498 53.5652 473.511 53.6304 473.537 53.6911C473.562 53.7519 473.6 53.807 473.647 53.8534L477.793 57.9999L473.647 62.1464C473.6 62.1928 473.563 62.2479 473.538 62.3086C473.513 62.3692 473.5 62.4342 473.5 62.4999C473.5 62.5655 473.513 62.6305 473.538 62.6912C473.563 62.7519 473.6 62.807 473.647 62.8534C473.693 62.8998 473.748 62.9366 473.809 62.9618C473.869 62.9869 473.934 62.9998 474 62.9998C474.066 62.9998 474.131 62.9869 474.191 62.9618C474.252 62.9367 474.307 62.8998 474.354 62.8534L478.5 58.7069L482.647 62.8534C482.74 62.9472 482.867 62.9998 483 62.9998C483.133 62.9998 483.26 62.9472 483.354 62.8534C483.447 62.7596 483.5 62.6325 483.5 62.4999C483.5 62.3673 483.447 62.2401 483.354 62.1464L479.207 57.9998Z" fill="white" fill-opacity="0.95"/>
<path d="M82.596 89.92H83.912L81.252 100H79.6L77.318 91.46L74.966 100H73.216L70.57 89.92H72.026L74.168 98.306L76.478 89.92H78.256L80.44 98.278L82.596 89.92ZM89.561 97.9H91.017C90.8117 98.6373 90.4057 99.216 89.799 99.636C89.2297 100.019 88.5483 100.21 87.755 100.21C86.607 100.21 85.711 99.846 85.067 99.118C84.479 98.4367 84.185 97.5173 84.185 96.36C84.185 95.044 84.5583 94.0453 85.305 93.364C85.921 92.7947 86.7143 92.51 87.685 92.51C88.8237 92.51 89.6823 92.8787 90.261 93.616C90.821 94.3253 91.101 95.338 91.101 96.654H85.557C85.613 97.5127 85.8743 98.152 86.341 98.572C86.7237 98.908 87.209 99.076 87.797 99.076C88.2543 99.076 88.651 98.95 88.987 98.698C89.267 98.4833 89.4583 98.2173 89.561 97.9ZM87.713 93.588C87.1157 93.588 86.635 93.7747 86.271 94.148C85.9257 94.4933 85.7063 94.974 85.613 95.59H89.729C89.6823 94.89 89.449 94.3673 89.029 94.022C88.693 93.7327 88.2543 93.588 87.713 93.588ZM105.716 92.72H107.06L104.932 100H103.378L101.614 94.246L99.8777 100H98.2677L96.1397 92.72H97.5397L99.1077 98.572L100.844 92.72H102.454L104.162 98.544L105.716 92.72ZM109.255 94.75H107.827C107.902 94.022 108.247 93.4573 108.863 93.056C109.414 92.692 110.109 92.51 110.949 92.51C111.948 92.51 112.713 92.7713 113.245 93.294C113.693 93.742 113.917 94.3207 113.917 95.03V100H112.811L112.643 99.006C112.074 99.8087 111.262 100.21 110.207 100.21C109.376 100.21 108.728 99.986 108.261 99.538C107.878 99.1647 107.687 98.6933 107.687 98.124C107.687 97.4053 107.934 96.85 108.429 96.458C108.868 96.1127 109.54 95.8607 110.445 95.702L112.573 95.338V94.974C112.573 94.498 112.41 94.1387 112.083 93.896C111.794 93.6813 111.397 93.574 110.893 93.574C109.904 93.574 109.358 93.966 109.255 94.75ZM110.529 99.076C111.098 99.076 111.593 98.8893 112.013 98.516C112.386 98.1707 112.573 97.774 112.573 97.326V96.388L110.767 96.71C110.104 96.822 109.652 96.9947 109.409 97.228C109.213 97.4147 109.115 97.6667 109.115 97.984C109.115 98.3387 109.236 98.6093 109.479 98.796C109.722 98.9827 110.072 99.076 110.529 99.076ZM117.148 100H115.804V92.72H116.91L117.064 93.644C117.606 92.888 118.343 92.51 119.276 92.51C120.135 92.51 120.793 92.776 121.25 93.308C121.652 93.784 121.852 94.4327 121.852 95.254V100H120.508V95.268C120.508 94.1947 119.99 93.658 118.954 93.658C118.413 93.658 117.97 93.8447 117.624 94.218C117.307 94.554 117.148 94.9833 117.148 95.506V100ZM126.996 98.922V100.07C126.65 100.163 126.319 100.21 126.002 100.21C125.33 100.21 124.826 100 124.49 99.58C124.2 99.2347 124.056 98.7727 124.056 98.194V93.868H122.978V92.72H124.056L124.14 90.97H125.4V92.72H126.968V93.868H125.4V98.222C125.4 98.7633 125.656 99.034 126.17 99.034C126.412 99.034 126.688 98.9967 126.996 98.922ZM135.705 98.922V100.07C135.359 100.163 135.028 100.21 134.711 100.21C134.039 100.21 133.535 100 133.199 99.58C132.909 99.2347 132.765 98.7727 132.765 98.194V93.868H131.687V92.72H132.765L132.849 90.97H134.109V92.72H135.677V93.868H134.109V98.222C134.109 98.7633 134.365 99.034 134.879 99.034C135.121 99.034 135.397 98.9967 135.705 98.922ZM136.48 96.36C136.48 95.0253 136.877 94.0173 137.67 93.336C138.305 92.7853 139.107 92.51 140.078 92.51C141.207 92.51 142.094 92.8693 142.738 93.588C143.354 94.26 143.662 95.184 143.662 96.36C143.662 97.676 143.275 98.6793 142.5 99.37C141.865 99.93 141.053 100.21 140.064 100.21C138.935 100.21 138.043 99.8367 137.39 99.09C136.783 98.4087 136.48 97.4987 136.48 96.36ZM137.88 96.36C137.88 97.2933 138.118 98.0073 138.594 98.502C138.986 98.9127 139.485 99.118 140.092 99.118C140.801 99.118 141.347 98.852 141.73 98.32C142.085 97.8347 142.262 97.1813 142.262 96.36C142.262 95.408 142.029 94.6893 141.562 94.204C141.179 93.8027 140.685 93.602 140.078 93.602C139.378 93.602 138.832 93.868 138.44 94.4C138.067 94.8853 137.88 95.5387 137.88 96.36ZM150.824 91.502H149.312V89.92H150.824V91.502ZM150.74 100H149.396V92.72H150.74V100ZM154.049 100H152.705V92.72H153.811L153.965 93.644C154.506 92.888 155.243 92.51 156.177 92.51C157.035 92.51 157.693 92.776 158.151 93.308C158.552 93.784 158.753 94.4327 158.753 95.254V100H157.409V95.268C157.409 94.1947 156.891 93.658 155.855 93.658C155.313 93.658 154.87 93.8447 154.525 94.218C154.207 94.554 154.049 94.9833 154.049 95.506V100ZM164.246 89.878V91.04C163.798 90.928 163.429 90.872 163.14 90.872C162.897 90.872 162.706 90.9373 162.566 91.068C162.435 91.1987 162.37 91.3807 162.37 91.614V92.72H163.938V93.868H162.37V100H161.026V93.868H159.948V92.72H161.026V91.698C161.026 91.054 161.236 90.55 161.656 90.186C162.029 89.8687 162.496 89.71 163.056 89.71C163.42 89.71 163.817 89.766 164.246 89.878ZM164.74 96.36C164.74 95.0253 165.136 94.0173 165.93 93.336C166.564 92.7853 167.367 92.51 168.338 92.51C169.467 92.51 170.354 92.8693 170.998 93.588C171.614 94.26 171.922 95.184 171.922 96.36C171.922 97.676 171.534 98.6793 170.76 99.37C170.125 99.93 169.313 100.21 168.324 100.21C167.194 100.21 166.303 99.8367 165.65 99.09C165.043 98.4087 164.74 97.4987 164.74 96.36ZM166.14 96.36C166.14 97.2933 166.378 98.0073 166.854 98.502C167.246 98.9127 167.745 99.118 168.352 99.118C169.061 99.118 169.607 98.852 169.99 98.32C170.344 97.8347 170.522 97.1813 170.522 96.36C170.522 95.408 170.288 94.6893 169.822 94.204C169.439 93.8027 168.944 93.602 168.338 93.602C167.638 93.602 167.092 93.868 166.7 94.4C166.326 94.8853 166.14 95.5387 166.14 96.36ZM174.803 100H173.459V92.72H174.565L174.747 93.798C175.157 92.9393 175.773 92.51 176.595 92.51C176.865 92.51 177.131 92.5427 177.393 92.608V93.952C177.075 93.868 176.791 93.826 176.539 93.826C175.997 93.826 175.573 94.0453 175.265 94.484C174.957 94.9227 174.803 95.5433 174.803 96.346V100ZM179.793 100H178.449V92.72H179.555L179.695 93.574C180.189 92.8647 180.903 92.51 181.837 92.51C182.854 92.51 183.568 92.8927 183.979 93.658C184.464 92.8927 185.253 92.51 186.345 92.51C187.157 92.51 187.782 92.7573 188.221 93.252C188.613 93.7093 188.809 94.3347 188.809 95.128V100H187.465V95.226C187.465 94.1807 186.993 93.658 186.051 93.658C185.491 93.658 185.043 93.8773 184.707 94.316C184.436 94.6707 184.301 95.086 184.301 95.562V100H182.957V95.226C182.957 94.1807 182.485 93.658 181.543 93.658C181.02 93.658 180.586 93.8633 180.241 94.274C179.942 94.6193 179.793 95.0347 179.793 95.52V100ZM200.972 92.72L198.438 100.098C198.102 101.078 197.78 101.745 197.472 102.1C197.108 102.52 196.637 102.73 196.058 102.73C195.815 102.73 195.526 102.688 195.19 102.604V101.512C195.451 101.577 195.685 101.61 195.89 101.61C196.179 101.61 196.403 101.507 196.562 101.302C196.721 101.106 196.921 100.672 197.164 100H196.73L194.056 92.72H195.512L197.57 98.908L199.628 92.72H200.972ZM201.394 96.36C201.394 95.0253 201.791 94.0173 202.584 93.336C203.219 92.7853 204.021 92.51 204.992 92.51C206.121 92.51 207.008 92.8693 207.652 93.588C208.268 94.26 208.576 95.184 208.576 96.36C208.576 97.676 208.189 98.6793 207.414 99.37C206.779 99.93 205.967 100.21 204.978 100.21C203.849 100.21 202.957 99.8367 202.304 99.09C201.697 98.4087 201.394 97.4987 201.394 96.36ZM202.794 96.36C202.794 97.2933 203.032 98.0073 203.508 98.502C203.9 98.9127 204.399 99.118 205.006 99.118C205.715 99.118 206.261 98.852 206.644 98.32C206.999 97.8347 207.176 97.1813 207.176 96.36C207.176 95.408 206.943 94.6893 206.476 94.204C206.093 93.8027 205.599 93.602 204.992 93.602C204.292 93.602 203.746 93.868 203.354 94.4C202.981 94.8853 202.794 95.5387 202.794 96.36ZM210.043 92.72H211.387V97.494C211.387 98.5393 211.891 99.062 212.899 99.062C213.515 99.062 213.986 98.8427 214.313 98.404C214.565 98.068 214.691 97.6527 214.691 97.158V92.72H216.035V100H214.929L214.775 99.16C214.261 99.86 213.533 100.21 212.591 100.21C211.76 100.21 211.121 99.9533 210.673 99.44C210.253 98.964 210.043 98.306 210.043 97.466V92.72ZM225.447 98.922V100.07C225.101 100.163 224.77 100.21 224.453 100.21C223.781 100.21 223.277 100 222.941 99.58C222.651 99.2347 222.507 98.7727 222.507 98.194V93.868H221.429V92.72H222.507L222.591 90.97H223.851V92.72H225.419V93.868H223.851V98.222C223.851 98.7633 224.107 99.034 224.621 99.034C224.863 99.034 225.139 98.9967 225.447 98.922ZM228.054 100H226.71V89.92H228.054V93.546C228.586 92.8553 229.296 92.51 230.182 92.51C231.041 92.51 231.699 92.776 232.156 93.308C232.558 93.784 232.758 94.4327 232.758 95.254V100H231.414V95.268C231.414 94.1947 230.896 93.658 229.86 93.658C229.31 93.658 228.862 93.8493 228.516 94.232C228.208 94.5773 228.054 95.0207 228.054 95.562V100ZM235.802 94.75H234.374C234.448 94.022 234.794 93.4573 235.41 93.056C235.96 92.692 236.656 92.51 237.496 92.51C238.494 92.51 239.26 92.7713 239.792 93.294C240.24 93.742 240.464 94.3207 240.464 95.03V100H239.358L239.19 99.006C238.62 99.8087 237.808 100.21 236.754 100.21C235.923 100.21 235.274 99.986 234.808 99.538C234.425 99.1647 234.234 98.6933 234.234 98.124C234.234 97.4053 234.481 96.85 234.976 96.458C235.414 96.1127 236.086 95.8607 236.992 95.702L239.12 95.338V94.974C239.12 94.498 238.956 94.1387 238.63 93.896C238.34 93.6813 237.944 93.574 237.44 93.574C236.45 93.574 235.904 93.966 235.802 94.75ZM237.076 99.076C237.645 99.076 238.14 98.8893 238.56 98.516C238.933 98.1707 239.12 97.774 239.12 97.326V96.388L237.314 96.71C236.651 96.822 236.198 96.9947 235.956 97.228C235.76 97.4147 235.662 97.6667 235.662 97.984C235.662 98.3387 235.783 98.6093 236.026 98.796C236.268 98.9827 236.618 99.076 237.076 99.076ZM245.599 98.922V100.07C245.254 100.163 244.922 100.21 244.605 100.21C243.933 100.21 243.429 100 243.093 99.58C242.804 99.2347 242.659 98.7727 242.659 98.194V93.868H241.581V92.72H242.659L242.743 90.97H244.003V92.72H245.571V93.868H244.003V98.222C244.003 98.7633 244.26 99.034 244.773 99.034C245.016 99.034 245.291 98.9967 245.599 98.922ZM259.866 92.72H261.21L259.082 100H257.528L255.764 94.246L254.028 100H252.418L250.29 92.72H251.69L253.258 98.572L254.994 92.72H256.604L258.312 98.544L259.866 92.72ZM267.186 97.9H268.642C268.437 98.6373 268.031 99.216 267.424 99.636C266.855 100.019 266.173 100.21 265.38 100.21C264.232 100.21 263.336 99.846 262.692 99.118C262.104 98.4367 261.81 97.5173 261.81 96.36C261.81 95.044 262.183 94.0453 262.93 93.364C263.546 92.7947 264.339 92.51 265.31 92.51C266.449 92.51 267.307 92.8787 267.886 93.616C268.446 94.3253 268.726 95.338 268.726 96.654H263.182C263.238 97.5127 263.499 98.152 263.966 98.572C264.349 98.908 264.834 99.076 265.422 99.076C265.879 99.076 266.276 98.95 266.612 98.698C266.892 98.4833 267.083 98.2173 267.186 97.9ZM265.338 93.588C264.741 93.588 264.26 93.7747 263.896 94.148C263.551 94.4933 263.331 94.974 263.238 95.59H267.354C267.307 94.89 267.074 94.3673 266.654 94.022C266.318 93.7327 265.879 93.588 265.338 93.588ZM283.341 92.72H284.685L282.557 100H281.003L279.239 94.246L277.503 100H275.893L273.765 92.72H275.165L276.733 98.572L278.469 92.72H280.079L281.787 98.544L283.341 92.72ZM287.297 91.502H285.785V89.92H287.297V91.502ZM287.213 100H285.869V92.72H287.213V100ZM290.521 89.92V100H289.177V89.92H290.521ZM293.83 89.92V100H292.486V89.92H293.83ZM301.098 100H299.992V89.92H301.336V93.728C301.905 92.916 302.717 92.51 303.772 92.51C304.817 92.51 305.629 92.8833 306.208 93.63C306.721 94.302 306.978 95.1933 306.978 96.304C306.978 97.62 306.628 98.628 305.928 99.328C305.34 99.916 304.588 100.21 303.674 100.21C302.638 100.21 301.849 99.818 301.308 99.034L301.098 100ZM305.578 96.276C305.578 95.3613 305.349 94.6753 304.892 94.218C304.528 93.8447 304.052 93.658 303.464 93.658C302.782 93.658 302.241 93.9053 301.84 94.4C301.457 94.876 301.266 95.5013 301.266 96.276C301.266 97.2093 301.494 97.9233 301.952 98.418C302.334 98.8473 302.838 99.062 303.464 99.062C304.164 99.062 304.696 98.8053 305.06 98.292C305.405 97.816 305.578 97.144 305.578 96.276ZM313.479 97.9H314.935C314.73 98.6373 314.324 99.216 313.717 99.636C313.148 100.019 312.466 100.21 311.673 100.21C310.525 100.21 309.629 99.846 308.985 99.118C308.397 98.4367 308.103 97.5173 308.103 96.36C308.103 95.044 308.476 94.0453 309.223 93.364C309.839 92.7947 310.632 92.51 311.603 92.51C312.742 92.51 313.6 92.8787 314.179 93.616C314.739 94.3253 315.019 95.338 315.019 96.654H309.475C309.531 97.5127 309.792 98.152 310.259 98.572C310.642 98.908 311.127 99.076 311.715 99.076C312.172 99.076 312.569 98.95 312.905 98.698C313.185 98.4833 313.376 98.2173 313.479 97.9ZM311.631 93.588C311.034 93.588 310.553 93.7747 310.189 94.148C309.844 94.4933 309.624 94.974 309.531 95.59H313.647C313.6 94.89 313.367 94.3673 312.947 94.022C312.611 93.7327 312.172 93.588 311.631 93.588ZM325.574 97.662H327.044C326.932 98.446 326.563 99.076 325.938 99.552C325.368 99.9907 324.673 100.21 323.852 100.21C322.778 100.21 321.924 99.8413 321.29 99.104C320.702 98.4227 320.408 97.5267 320.408 96.416C320.408 95.128 320.762 94.1293 321.472 93.42C322.078 92.8133 322.867 92.51 323.838 92.51C324.734 92.51 325.471 92.748 326.05 93.224C326.563 93.644 326.876 94.1947 326.988 94.876H325.504C325.41 94.484 325.219 94.1807 324.93 93.966C324.65 93.7513 324.295 93.644 323.866 93.644C323.203 93.644 322.694 93.9053 322.34 94.428C322.004 94.9133 321.836 95.59 321.836 96.458C321.836 97.3633 322.06 98.0493 322.508 98.516C322.862 98.8893 323.32 99.076 323.88 99.076C324.365 99.076 324.762 98.936 325.07 98.656C325.34 98.4133 325.508 98.082 325.574 97.662ZM328.16 96.36C328.16 95.0253 328.556 94.0173 329.35 93.336C329.984 92.7853 330.787 92.51 331.758 92.51C332.887 92.51 333.774 92.8693 334.418 93.588C335.034 94.26 335.342 95.184 335.342 96.36C335.342 97.676 334.954 98.6793 334.18 99.37C333.545 99.93 332.733 100.21 331.744 100.21C330.614 100.21 329.723 99.8367 329.07 99.09C328.463 98.4087 328.16 97.4987 328.16 96.36ZM329.56 96.36C329.56 97.2933 329.798 98.0073 330.274 98.502C330.666 98.9127 331.165 99.118 331.772 99.118C332.481 99.118 333.027 98.852 333.41 98.32C333.764 97.8347 333.942 97.1813 333.942 96.36C333.942 95.408 333.708 94.6893 333.242 94.204C332.859 93.8027 332.364 93.602 331.758 93.602C331.058 93.602 330.512 93.868 330.12 94.4C329.746 94.8853 329.56 95.5387 329.56 96.36ZM338.222 100H336.878V92.72H337.984L338.138 93.644C338.68 92.888 339.417 92.51 340.35 92.51C341.209 92.51 341.867 92.776 342.324 93.308C342.726 93.784 342.926 94.4327 342.926 95.254V100H341.582V95.268C341.582 94.1947 341.064 93.658 340.028 93.658C339.487 93.658 339.044 93.8447 338.698 94.218C338.381 94.554 338.222 94.9833 338.222 95.506V100ZM351.388 100H350.282L350.044 98.978C349.484 99.7993 348.676 100.21 347.622 100.21C346.604 100.21 345.802 99.8413 345.214 99.104C344.672 98.4227 344.402 97.522 344.402 96.402C344.402 95.0487 344.747 94.0313 345.438 93.35C346.016 92.79 346.772 92.51 347.706 92.51C348.714 92.51 349.493 92.888 350.044 93.644V89.92H351.388V100ZM345.802 96.43C345.802 97.3353 346.026 98.0213 346.474 98.488C346.847 98.8707 347.328 99.062 347.916 99.062C348.644 99.062 349.208 98.7867 349.61 98.236C349.946 97.76 350.114 97.1627 350.114 96.444C350.114 95.5013 349.89 94.7827 349.442 94.288C349.059 93.868 348.55 93.658 347.916 93.658C347.206 93.658 346.67 93.9147 346.306 94.428C345.97 94.8947 345.802 95.562 345.802 96.43ZM353.283 92.72H354.627V97.494C354.627 98.5393 355.131 99.062 356.139 99.062C356.755 99.062 357.226 98.8427 357.553 98.404C357.805 98.068 357.931 97.6527 357.931 97.158V92.72H359.275V100H358.169L358.015 99.16C357.502 99.86 356.774 100.21 355.831 100.21C355 100.21 354.361 99.9533 353.913 99.44C353.493 98.964 353.283 98.306 353.283 97.466V92.72ZM365.988 97.662H367.458C367.346 98.446 366.977 99.076 366.352 99.552C365.782 99.9907 365.087 100.21 364.266 100.21C363.192 100.21 362.338 99.8413 361.704 99.104C361.116 98.4227 360.822 97.5267 360.822 96.416C360.822 95.128 361.176 94.1293 361.886 93.42C362.492 92.8133 363.281 92.51 364.252 92.51C365.148 92.51 365.885 92.748 366.464 93.224C366.977 93.644 367.29 94.1947 367.402 94.876H365.918C365.824 94.484 365.633 94.1807 365.344 93.966C365.064 93.7513 364.709 93.644 364.28 93.644C363.617 93.644 363.108 93.9053 362.754 94.428C362.418 94.9133 362.25 95.59 362.25 96.458C362.25 97.3633 362.474 98.0493 362.922 98.516C363.276 98.8893 363.734 99.076 364.294 99.076C364.779 99.076 365.176 98.936 365.484 98.656C365.754 98.4133 365.922 98.082 365.988 97.662ZM372.242 98.922V100.07C371.896 100.163 371.565 100.21 371.248 100.21C370.576 100.21 370.072 100 369.736 99.58C369.446 99.2347 369.302 98.7727 369.302 98.194V93.868H368.224V92.72H369.302L369.386 90.97H370.646V92.72H372.214V93.868H370.646V98.222C370.646 98.7633 370.902 99.034 371.416 99.034C371.658 99.034 371.934 98.9967 372.242 98.922ZM374.933 91.502H373.421V89.92H374.933V91.502ZM374.849 100H373.505V92.72H374.849V100ZM378.158 100H376.814V92.72H377.92L378.074 93.644C378.615 92.888 379.353 92.51 380.286 92.51C381.145 92.51 381.803 92.776 382.26 93.308C382.661 93.784 382.862 94.4327 382.862 95.254V100H381.518V95.268C381.518 94.1947 381 93.658 379.964 93.658C379.423 93.658 378.979 93.8447 378.634 94.218C378.317 94.554 378.158 94.9833 378.158 95.506V100ZM384.673 100.49H386.115C386.181 100.863 386.367 101.153 386.675 101.358C386.993 101.563 387.408 101.666 387.921 101.666C388.64 101.666 389.177 101.479 389.531 101.106C389.83 100.789 389.979 100.345 389.979 99.776V98.838C389.438 99.4727 388.631 99.79 387.557 99.79C386.587 99.79 385.798 99.44 385.191 98.74C384.622 98.0867 384.337 97.2373 384.337 96.192C384.337 94.9787 384.683 94.0407 385.373 93.378C385.961 92.7993 386.717 92.51 387.641 92.51C388.687 92.51 389.475 92.902 390.007 93.686L390.217 92.72H391.323V99.846C391.323 100.761 390.992 101.479 390.329 102.002C389.732 102.487 388.943 102.73 387.963 102.73C386.946 102.73 386.148 102.501 385.569 102.044C385.084 101.661 384.785 101.143 384.673 100.49ZM385.737 96.22C385.737 97.0133 385.971 97.634 386.437 98.082C386.82 98.4553 387.291 98.642 387.851 98.642C388.589 98.642 389.153 98.3993 389.545 97.914C389.881 97.5033 390.049 96.9527 390.049 96.262C390.049 95.3753 389.821 94.6987 389.363 94.232C388.981 93.8493 388.477 93.658 387.851 93.658C387.161 93.658 386.629 93.896 386.255 94.372C385.91 94.82 385.737 95.436 385.737 96.22ZM398.634 94.75H397.206C397.281 94.022 397.626 93.4573 398.242 93.056C398.793 92.692 399.488 92.51 400.328 92.51C401.327 92.51 402.092 92.7713 402.624 93.294C403.072 93.742 403.296 94.3207 403.296 95.03V100H402.19L402.022 99.006C401.453 99.8087 400.641 100.21 399.586 100.21C398.755 100.21 398.107 99.986 397.64 99.538C397.257 99.1647 397.066 98.6933 397.066 98.124C397.066 97.4053 397.313 96.85 397.808 96.458C398.247 96.1127 398.919 95.8607 399.824 95.702L401.952 95.338V94.974C401.952 94.498 401.789 94.1387 401.462 93.896C401.173 93.6813 400.776 93.574 400.272 93.574C399.283 93.574 398.737 93.966 398.634 94.75ZM399.908 99.076C400.477 99.076 400.972 98.8893 401.392 98.516C401.765 98.1707 401.952 97.774 401.952 97.326V96.388L400.146 96.71C399.483 96.822 399.031 96.9947 398.788 97.228C398.592 97.4147 398.494 97.6667 398.494 97.984C398.494 98.3387 398.615 98.6093 398.858 98.796C399.101 98.9827 399.451 99.076 399.908 99.076ZM410.724 100H409.38V92.72H410.486L410.626 93.574C411.121 92.8647 411.835 92.51 412.768 92.51C413.786 92.51 414.5 92.8927 414.91 93.658C415.396 92.8927 416.184 92.51 417.276 92.51C418.088 92.51 418.714 92.7573 419.152 93.252C419.544 93.7093 419.74 94.3347 419.74 95.128V100H418.396V95.226C418.396 94.1807 417.925 93.658 416.982 93.658C416.422 93.658 415.974 93.8773 415.638 94.316C415.368 94.6707 415.232 95.086 415.232 95.562V100H413.888V95.226C413.888 94.1807 413.417 93.658 412.474 93.658C411.952 93.658 411.518 93.8633 411.172 94.274C410.874 94.6193 410.724 95.0347 410.724 95.52V100ZM422.778 94.75H421.35C421.425 94.022 421.77 93.4573 422.386 93.056C422.937 92.692 423.632 92.51 424.472 92.51C425.471 92.51 426.236 92.7713 426.768 93.294C427.216 93.742 427.44 94.3207 427.44 95.03V100H426.334L426.166 99.006C425.597 99.8087 424.785 100.21 423.73 100.21C422.9 100.21 422.251 99.986 421.784 99.538C421.402 99.1647 421.21 98.6933 421.21 98.124C421.21 97.4053 421.458 96.85 421.952 96.458C422.391 96.1127 423.063 95.8607 423.968 95.702L426.096 95.338V94.974C426.096 94.498 425.933 94.1387 425.606 93.896C425.317 93.6813 424.92 93.574 424.416 93.574C423.427 93.574 422.881 93.966 422.778 94.75ZM424.052 99.076C424.622 99.076 425.116 98.8893 425.536 98.516C425.91 98.1707 426.096 97.774 426.096 97.326V96.388L424.29 96.71C423.628 96.822 423.175 96.9947 422.932 97.228C422.736 97.4147 422.638 97.6667 422.638 97.984C422.638 98.3387 422.76 98.6093 423.002 98.796C423.245 98.9827 423.595 99.076 424.052 99.076ZM430.672 100H429.328V92.72H430.434L430.588 93.644C431.129 92.888 431.866 92.51 432.8 92.51C433.658 92.51 434.316 92.776 434.774 93.308C435.175 93.784 435.376 94.4327 435.376 95.254V100H434.032V95.268C434.032 94.1947 433.514 93.658 432.478 93.658C431.936 93.658 431.493 93.8447 431.148 94.218C430.83 94.554 430.672 94.9833 430.672 95.506V100ZM443.837 100H442.731L442.493 98.978C441.933 99.7993 441.126 100.21 440.071 100.21C439.054 100.21 438.251 99.8413 437.663 99.104C437.122 98.4227 436.851 97.522 436.851 96.402C436.851 95.0487 437.196 94.0313 437.887 93.35C438.466 92.79 439.222 92.51 440.155 92.51C441.163 92.51 441.942 92.888 442.493 93.644V89.92H443.837V100ZM438.251 96.43C438.251 97.3353 438.475 98.0213 438.923 98.488C439.296 98.8707 439.777 99.062 440.365 99.062C441.093 99.062 441.658 98.7867 442.059 98.236C442.395 97.76 442.563 97.1627 442.563 96.444C442.563 95.5013 442.339 94.7827 441.891 94.288C441.508 93.868 441 93.658 440.365 93.658C439.656 93.658 439.119 93.9147 438.755 94.428C438.419 94.8947 438.251 95.562 438.251 96.43ZM446.95 94.75H445.522C445.597 94.022 445.942 93.4573 446.558 93.056C447.109 92.692 447.804 92.51 448.644 92.51C449.643 92.51 450.408 92.7713 450.94 93.294C451.388 93.742 451.612 94.3207 451.612 95.03V100H450.506L450.338 99.006C449.769 99.8087 448.957 100.21 447.902 100.21C447.072 100.21 446.423 99.986 445.956 99.538C445.574 99.1647 445.382 98.6933 445.382 98.124C445.382 97.4053 445.63 96.85 446.124 96.458C446.563 96.1127 447.235 95.8607 448.14 95.702L450.268 95.338V94.974C450.268 94.498 450.105 94.1387 449.778 93.896C449.489 93.6813 449.092 93.574 448.588 93.574C447.599 93.574 447.053 93.966 446.95 94.75ZM448.224 99.076C448.794 99.076 449.288 98.8893 449.708 98.516C450.082 98.1707 450.268 97.774 450.268 97.326V96.388L448.462 96.71C447.8 96.822 447.347 96.9947 447.104 97.228C446.908 97.4147 446.81 97.6667 446.81 97.984C446.81 98.3387 446.932 98.6093 447.174 98.796C447.417 98.9827 447.767 99.076 448.224 99.076ZM456.748 98.922V100.07C456.402 100.163 456.071 100.21 455.754 100.21C455.082 100.21 454.578 100 454.242 99.58C453.952 99.2347 453.808 98.7727 453.808 98.194V93.868H452.73V92.72H453.808L453.892 90.97H455.152V92.72H456.72V93.868H455.152V98.222C455.152 98.7633 455.408 99.034 455.922 99.034C456.164 99.034 456.44 98.9967 456.748 98.922ZM457.523 96.36C457.523 95.0253 457.92 94.0173 458.713 93.336C459.348 92.7853 460.15 92.51 461.121 92.51C462.25 92.51 463.137 92.8693 463.781 93.588C464.397 94.26 464.705 95.184 464.705 96.36C464.705 97.676 464.318 98.6793 463.543 99.37C462.908 99.93 462.096 100.21 461.107 100.21C459.978 100.21 459.086 99.8367 458.433 99.09C457.826 98.4087 457.523 97.4987 457.523 96.36ZM458.923 96.36C458.923 97.2933 459.161 98.0073 459.637 98.502C460.029 98.9127 460.528 99.118 461.135 99.118C461.844 99.118 462.39 98.852 462.773 98.32C463.128 97.8347 463.305 97.1813 463.305 96.36C463.305 95.408 463.072 94.6893 462.605 94.204C462.222 93.8027 461.728 93.602 461.121 93.602C460.421 93.602 459.875 93.868 459.483 94.4C459.11 94.8853 458.923 95.5387 458.923 96.36ZM467.586 100H466.242V92.72H467.348L467.53 93.798C467.94 92.9393 468.556 92.51 469.378 92.51C469.648 92.51 469.914 92.5427 470.176 92.608V93.952C469.858 93.868 469.574 93.826 469.322 93.826C468.78 93.826 468.356 94.0453 468.048 94.484C467.74 94.9227 467.586 95.5433 467.586 96.346V100ZM477.308 92.72L474.774 100.098C474.438 101.078 474.116 101.745 473.808 102.1C473.444 102.52 472.973 102.73 472.394 102.73C472.151 102.73 471.862 102.688 471.526 102.604V101.512C471.787 101.577 472.021 101.61 472.226 101.61C472.515 101.61 472.739 101.507 472.898 101.302C473.057 101.106 473.257 100.672 473.5 100H473.066L470.392 92.72H471.848L473.906 98.908L475.964 92.72H477.308ZM75.736 118.026C75.736 117.615 75.5213 117.307 75.092 117.102C74.84 116.99 74.35 116.85 73.622 116.682C72.726 116.486 72.0867 116.201 71.704 115.828C71.3867 115.511 71.228 115.095 71.228 114.582C71.228 113.901 71.5033 113.378 72.054 113.014C72.5487 112.678 73.216 112.51 74.056 112.51C74.924 112.51 75.6287 112.725 76.17 113.154C76.6367 113.527 76.926 114.022 77.038 114.638H75.666C75.5073 113.929 74.966 113.574 74.042 113.574C73.5287 113.574 73.146 113.667 72.894 113.854C72.6887 114.013 72.586 114.213 72.586 114.456C72.586 114.755 72.698 114.979 72.922 115.128C73.1553 115.277 73.608 115.427 74.28 115.576C75.3067 115.8 76.0207 116.075 76.422 116.402C76.87 116.766 77.094 117.275 77.094 117.928C77.094 118.656 76.7953 119.23 76.198 119.65C75.6567 120.023 74.9427 120.21 74.056 120.21C73.0853 120.21 72.3153 119.977 71.746 119.51C71.2513 119.099 70.976 118.567 70.92 117.914H72.292C72.4413 118.735 73.034 119.146 74.07 119.146C74.63 119.146 75.064 119.025 75.372 118.782C75.6147 118.586 75.736 118.334 75.736 118.026ZM84.7064 112.72L82.1724 120.098C81.8364 121.078 81.5144 121.745 81.2064 122.1C80.8424 122.52 80.3711 122.73 79.7924 122.73C79.5497 122.73 79.2604 122.688 78.9244 122.604V121.512C79.1857 121.577 79.4191 121.61 79.6244 121.61C79.9137 121.61 80.1377 121.507 80.2964 121.302C80.4551 121.106 80.6557 120.672 80.8984 120H80.4644L77.7904 112.72H79.2464L81.3044 118.908L83.3624 112.72H84.7064ZM90.0778 118.026C90.0778 117.615 89.8631 117.307 89.4338 117.102C89.1818 116.99 88.6918 116.85 87.9638 116.682C87.0678 116.486 86.4285 116.201 86.0458 115.828C85.7285 115.511 85.5698 115.095 85.5698 114.582C85.5698 113.901 85.8451 113.378 86.3958 113.014C86.8905 112.678 87.5578 112.51 88.3978 112.51C89.2658 112.51 89.9705 112.725 90.5118 113.154C90.9785 113.527 91.2678 114.022 91.3798 114.638H90.0078C89.8491 113.929 89.3078 113.574 88.3838 113.574C87.8705 113.574 87.4878 113.667 87.2358 113.854C87.0305 114.013 86.9278 114.213 86.9278 114.456C86.9278 114.755 87.0398 114.979 87.2638 115.128C87.4971 115.277 87.9498 115.427 88.6218 115.576C89.6485 115.8 90.3625 116.075 90.7638 116.402C91.2118 116.766 91.4358 117.275 91.4358 117.928C91.4358 118.656 91.1371 119.23 90.5398 119.65C89.9985 120.023 89.2845 120.21 88.3978 120.21C87.4271 120.21 86.6571 119.977 86.0878 119.51C85.5931 119.099 85.3178 118.567 85.2618 117.914H86.6338C86.7831 118.735 87.3758 119.146 88.4118 119.146C88.9718 119.146 89.4058 119.025 89.7138 118.782C89.9565 118.586 90.0778 118.334 90.0778 118.026ZM96.2202 118.922V120.07C95.8749 120.163 95.5435 120.21 95.2262 120.21C94.5542 120.21 94.0502 120 93.7142 119.58C93.4249 119.235 93.2802 118.773 93.2802 118.194V113.868H92.2022V112.72H93.2802L93.3642 110.97H94.6242V112.72H96.1922V113.868H94.6242V118.222C94.6242 118.763 94.8809 119.034 95.3942 119.034C95.6369 119.034 95.9122 118.997 96.2202 118.922ZM102.372 117.9H103.828C103.622 118.637 103.216 119.216 102.61 119.636C102.04 120.019 101.359 120.21 100.566 120.21C99.4175 120.21 98.5215 119.846 97.8775 119.118C97.2895 118.437 96.9955 117.517 96.9955 116.36C96.9955 115.044 97.3689 114.045 98.1155 113.364C98.7315 112.795 99.5249 112.51 100.496 112.51C101.634 112.51 102.493 112.879 103.072 113.616C103.632 114.325 103.912 115.338 103.912 116.654H98.3675C98.4235 117.513 98.6849 118.152 99.1515 118.572C99.5342 118.908 100.02 119.076 100.608 119.076C101.065 119.076 101.462 118.95 101.798 118.698C102.078 118.483 102.269 118.217 102.372 117.9ZM100.524 113.588C99.9262 113.588 99.4455 113.775 99.0815 114.148C98.7362 114.493 98.5169 114.974 98.4235 115.59H102.54C102.493 114.89 102.26 114.367 101.84 114.022C101.504 113.733 101.065 113.588 100.524 113.588ZM106.867 120H105.523V112.72H106.629L106.769 113.574C107.264 112.865 107.978 112.51 108.911 112.51C109.928 112.51 110.642 112.893 111.053 113.658C111.538 112.893 112.327 112.51 113.419 112.51C114.231 112.51 114.856 112.757 115.295 113.252C115.687 113.709 115.883 114.335 115.883 115.128V120H114.539V115.226C114.539 114.181 114.068 113.658 113.125 113.658C112.565 113.658 112.117 113.877 111.781 114.316C111.51 114.671 111.375 115.086 111.375 115.562V120H110.031V115.226C110.031 114.181 109.56 113.658 108.617 113.658C108.094 113.658 107.66 113.863 107.315 114.274C107.016 114.619 106.867 115.035 106.867 115.52V120ZM126.716 117.662H128.186C128.074 118.446 127.706 119.076 127.08 119.552C126.511 119.991 125.816 120.21 124.994 120.21C123.921 120.21 123.067 119.841 122.432 119.104C121.844 118.423 121.55 117.527 121.55 116.416C121.55 115.128 121.905 114.129 122.614 113.42C123.221 112.813 124.01 112.51 124.98 112.51C125.876 112.51 126.614 112.748 127.192 113.224C127.706 113.644 128.018 114.195 128.13 114.876H126.646C126.553 114.484 126.362 114.181 126.072 113.966C125.792 113.751 125.438 113.644 125.008 113.644C124.346 113.644 123.837 113.905 123.482 114.428C123.146 114.913 122.978 115.59 122.978 116.458C122.978 117.363 123.202 118.049 123.65 118.516C124.005 118.889 124.462 119.076 125.022 119.076C125.508 119.076 125.904 118.936 126.212 118.656C126.483 118.413 126.651 118.082 126.716 117.662ZM131.066 120H129.722V109.92H131.066V113.546C131.598 112.855 132.308 112.51 133.194 112.51C134.053 112.51 134.711 112.776 135.168 113.308C135.57 113.784 135.77 114.433 135.77 115.254V120H134.426V115.268C134.426 114.195 133.908 113.658 132.872 113.658C132.322 113.658 131.874 113.849 131.528 114.232C131.22 114.577 131.066 115.021 131.066 115.562V120ZM142.622 117.9H144.078C143.872 118.637 143.466 119.216 142.86 119.636C142.29 120.019 141.609 120.21 140.816 120.21C139.668 120.21 138.772 119.846 138.128 119.118C137.54 118.437 137.246 117.517 137.246 116.36C137.246 115.044 137.619 114.045 138.366 113.364C138.982 112.795 139.775 112.51 140.746 112.51C141.884 112.51 142.743 112.879 143.322 113.616C143.882 114.325 144.162 115.338 144.162 116.654H138.618C138.674 117.513 138.935 118.152 139.402 118.572C139.784 118.908 140.27 119.076 140.858 119.076C141.315 119.076 141.712 118.95 142.048 118.698C142.328 118.483 142.519 118.217 142.622 117.9ZM140.774 113.588C140.176 113.588 139.696 113.775 139.332 114.148C138.986 114.493 138.767 114.974 138.674 115.59H142.79C142.743 114.89 142.51 114.367 142.09 114.022C141.754 113.733 141.315 113.588 140.774 113.588ZM150.519 117.662H151.989C151.877 118.446 151.508 119.076 150.883 119.552C150.314 119.991 149.618 120.21 148.797 120.21C147.724 120.21 146.87 119.841 146.235 119.104C145.647 118.423 145.353 117.527 145.353 116.416C145.353 115.128 145.708 114.129 146.417 113.42C147.024 112.813 147.812 112.51 148.783 112.51C149.679 112.51 150.416 112.748 150.995 113.224C151.508 113.644 151.821 114.195 151.933 114.876H150.449C150.356 114.484 150.164 114.181 149.875 113.966C149.595 113.751 149.24 113.644 148.811 113.644C148.148 113.644 147.64 113.905 147.285 114.428C146.949 114.913 146.781 115.59 146.781 116.458C146.781 117.363 147.005 118.049 147.453 118.516C147.808 118.889 148.265 119.076 148.825 119.076C149.31 119.076 149.707 118.936 150.015 118.656C150.286 118.413 150.454 118.082 150.519 117.662ZM154.869 120H153.525V109.92H154.869V115.548L157.725 112.72H159.489L156.213 115.884L159.895 120H158.103L154.869 116.332V120ZM165.284 116.08H160.244V114.89H165.284V116.08ZM167.455 112.72H168.799V117.494C168.799 118.539 169.303 119.062 170.311 119.062C170.927 119.062 171.398 118.843 171.725 118.404C171.977 118.068 172.103 117.653 172.103 117.158V112.72H173.447V120H172.341L172.187 119.16C171.674 119.86 170.946 120.21 170.003 120.21C169.172 120.21 168.533 119.953 168.085 119.44C167.665 118.964 167.455 118.306 167.455 117.466V112.72ZM175.414 112.72H176.52L176.73 113.672C177.327 112.897 178.148 112.51 179.194 112.51C180.239 112.51 181.051 112.883 181.63 113.63C182.143 114.302 182.4 115.193 182.4 116.304C182.4 117.62 182.05 118.628 181.35 119.328C180.762 119.916 180.01 120.21 179.096 120.21C178.06 120.21 177.28 119.827 176.758 119.062V122.52H175.414V112.72ZM181 116.276C181 115.361 180.771 114.675 180.314 114.218C179.95 113.845 179.474 113.658 178.886 113.658C178.204 113.658 177.663 113.905 177.262 114.4C176.879 114.876 176.688 115.501 176.688 116.276C176.688 117.209 176.916 117.923 177.374 118.418C177.756 118.847 178.26 119.062 178.886 119.062C179.586 119.062 180.118 118.805 180.482 118.292C180.827 117.816 181 117.144 181 116.276ZM191.39 118.922V120.07C191.045 120.163 190.713 120.21 190.396 120.21C189.724 120.21 189.22 120 188.884 119.58C188.595 119.235 188.45 118.773 188.45 118.194V113.868H187.372V112.72H188.45L188.534 110.97H189.794V112.72H191.362V113.868H189.794V118.222C189.794 118.763 190.051 119.034 190.564 119.034C190.807 119.034 191.082 118.997 191.39 118.922ZM192.165 116.36C192.165 115.025 192.562 114.017 193.355 113.336C193.99 112.785 194.793 112.51 195.763 112.51C196.893 112.51 197.779 112.869 198.423 113.588C199.039 114.26 199.347 115.184 199.347 116.36C199.347 117.676 198.96 118.679 198.185 119.37C197.551 119.93 196.739 120.21 195.749 120.21C194.62 120.21 193.729 119.837 193.075 119.09C192.469 118.409 192.165 117.499 192.165 116.36ZM193.565 116.36C193.565 117.293 193.803 118.007 194.279 118.502C194.671 118.913 195.171 119.118 195.777 119.118C196.487 119.118 197.033 118.852 197.415 118.32C197.77 117.835 197.947 117.181 197.947 116.36C197.947 115.408 197.714 114.689 197.247 114.204C196.865 113.803 196.37 113.602 195.763 113.602C195.063 113.602 194.517 113.868 194.125 114.4C193.752 114.885 193.565 115.539 193.565 116.36ZM210.038 117.9H211.494C211.288 118.637 210.882 119.216 210.276 119.636C209.706 120.019 209.025 120.21 208.232 120.21C207.084 120.21 206.188 119.846 205.544 119.118C204.956 118.437 204.662 117.517 204.662 116.36C204.662 115.044 205.035 114.045 205.782 113.364C206.398 112.795 207.191 112.51 208.162 112.51C209.3 112.51 210.159 112.879 210.738 113.616C211.298 114.325 211.578 115.338 211.578 116.654H206.034C206.09 117.513 206.351 118.152 206.818 118.572C207.2 118.908 207.686 119.076 208.274 119.076C208.731 119.076 209.128 118.95 209.464 118.698C209.744 118.483 209.935 118.217 210.038 117.9ZM208.19 113.588C207.592 113.588 207.112 113.775 206.748 114.148C206.402 114.493 206.183 114.974 206.09 115.59H210.206C210.159 114.89 209.926 114.367 209.506 114.022C209.17 113.733 208.731 113.588 208.19 113.588ZM214.533 120H213.189V112.72H214.295L214.449 113.644C214.99 112.888 215.728 112.51 216.661 112.51C217.52 112.51 218.178 112.776 218.635 113.308C219.036 113.784 219.237 114.433 219.237 115.254V120H217.893V115.268C217.893 114.195 217.375 113.658 216.339 113.658C215.798 113.658 215.354 113.845 215.009 114.218C214.692 114.554 214.533 114.983 214.533 115.506V120ZM225.388 118.026C225.388 117.615 225.174 117.307 224.744 117.102C224.492 116.99 224.002 116.85 223.274 116.682C222.378 116.486 221.739 116.201 221.356 115.828C221.039 115.511 220.88 115.095 220.88 114.582C220.88 113.901 221.156 113.378 221.706 113.014C222.201 112.678 222.868 112.51 223.708 112.51C224.576 112.51 225.281 112.725 225.822 113.154C226.289 113.527 226.578 114.022 226.69 114.638H225.318C225.16 113.929 224.618 113.574 223.694 113.574C223.181 113.574 222.798 113.667 222.546 113.854C222.341 114.013 222.238 114.213 222.238 114.456C222.238 114.755 222.35 114.979 222.574 115.128C222.808 115.277 223.26 115.427 223.932 115.576C224.959 115.8 225.673 116.075 226.074 116.402C226.522 116.766 226.746 117.275 226.746 117.928C226.746 118.656 226.448 119.23 225.85 119.65C225.309 120.023 224.595 120.21 223.708 120.21C222.738 120.21 221.968 119.977 221.398 119.51C220.904 119.099 220.628 118.567 220.572 117.914H221.944C222.094 118.735 222.686 119.146 223.722 119.146C224.282 119.146 224.716 119.025 225.024 118.782C225.267 118.586 225.388 118.334 225.388 118.026ZM228.213 112.72H229.557V117.494C229.557 118.539 230.061 119.062 231.069 119.062C231.685 119.062 232.156 118.843 232.483 118.404C232.735 118.068 232.861 117.653 232.861 117.158V112.72H234.205V120H233.099L232.945 119.16C232.431 119.86 231.703 120.21 230.761 120.21C229.93 120.21 229.291 119.953 228.843 119.44C228.423 118.964 228.213 118.306 228.213 117.466V112.72ZM237.515 120H236.171V112.72H237.277L237.459 113.798C237.87 112.939 238.486 112.51 239.307 112.51C239.578 112.51 239.844 112.543 240.105 112.608V113.952C239.788 113.868 239.503 113.826 239.251 113.826C238.71 113.826 238.285 114.045 237.977 114.484C237.669 114.923 237.515 115.543 237.515 116.346V120ZM245.981 117.9H247.437C247.232 118.637 246.826 119.216 246.219 119.636C245.65 120.019 244.968 120.21 244.175 120.21C243.027 120.21 242.131 119.846 241.487 119.118C240.899 118.437 240.605 117.517 240.605 116.36C240.605 115.044 240.978 114.045 241.725 113.364C242.341 112.795 243.134 112.51 244.105 112.51C245.244 112.51 246.102 112.879 246.681 113.616C247.241 114.325 247.521 115.338 247.521 116.654H241.977C242.033 117.513 242.294 118.152 242.761 118.572C243.144 118.908 243.629 119.076 244.217 119.076C244.674 119.076 245.071 118.95 245.407 118.698C245.687 118.483 245.878 118.217 245.981 117.9ZM244.133 113.588C243.536 113.588 243.055 113.775 242.691 114.148C242.346 114.493 242.126 114.974 242.033 115.59H246.149C246.102 114.89 245.869 114.367 245.449 114.022C245.113 113.733 244.674 113.588 244.133 113.588ZM256.578 118.922V120.07C256.232 120.163 255.901 120.21 255.584 120.21C254.912 120.21 254.408 120 254.072 119.58C253.782 119.235 253.638 118.773 253.638 118.194V113.868H252.56V112.72H253.638L253.722 110.97H254.982V112.72H256.55V113.868H254.982V118.222C254.982 118.763 255.238 119.034 255.752 119.034C255.994 119.034 256.27 118.997 256.578 118.922ZM259.185 120H257.841V109.92H259.185V113.546C259.717 112.855 260.427 112.51 261.313 112.51C262.172 112.51 262.83 112.776 263.287 113.308C263.689 113.784 263.889 114.433 263.889 115.254V120H262.545V115.268C262.545 114.195 262.027 113.658 260.991 113.658C260.441 113.658 259.993 113.849 259.647 114.232C259.339 114.577 259.185 115.021 259.185 115.562V120ZM270.741 117.9H272.197C271.991 118.637 271.585 119.216 270.979 119.636C270.409 120.019 269.728 120.21 268.935 120.21C267.787 120.21 266.891 119.846 266.247 119.118C265.659 118.437 265.365 117.517 265.365 116.36C265.365 115.044 265.738 114.045 266.485 113.364C267.101 112.795 267.894 112.51 268.865 112.51C270.003 112.51 270.862 112.879 271.441 113.616C272.001 114.325 272.281 115.338 272.281 116.654H266.737C266.793 117.513 267.054 118.152 267.521 118.572C267.903 118.908 268.389 119.076 268.977 119.076C269.434 119.076 269.831 118.95 270.167 118.698C270.447 118.483 270.638 118.217 270.741 117.9ZM268.893 113.588C268.295 113.588 267.815 113.775 267.451 114.148C267.105 114.493 266.886 114.974 266.793 115.59H270.909C270.862 114.89 270.629 114.367 270.209 114.022C269.873 113.733 269.434 113.588 268.893 113.588ZM277.669 116.36C277.669 115.025 278.066 114.017 278.859 113.336C279.494 112.785 280.297 112.51 281.267 112.51C282.397 112.51 283.283 112.869 283.927 113.588C284.543 114.26 284.851 115.184 284.851 116.36C284.851 117.676 284.464 118.679 283.689 119.37C283.055 119.93 282.243 120.21 281.253 120.21C280.124 120.21 279.233 119.837 278.579 119.09C277.973 118.409 277.669 117.499 277.669 116.36ZM279.069 116.36C279.069 117.293 279.307 118.007 279.783 118.502C280.175 118.913 280.675 119.118 281.281 119.118C281.991 119.118 282.537 118.852 282.919 118.32C283.274 117.835 283.451 117.181 283.451 116.36C283.451 115.408 283.218 114.689 282.751 114.204C282.369 113.803 281.874 113.602 281.267 113.602C280.567 113.602 280.021 113.868 279.629 114.4C279.256 114.885 279.069 115.539 279.069 116.36ZM286.388 112.72H287.494L287.704 113.672C288.302 112.897 289.123 112.51 290.168 112.51C291.214 112.51 292.026 112.883 292.604 113.63C293.118 114.302 293.374 115.193 293.374 116.304C293.374 117.62 293.024 118.628 292.324 119.328C291.736 119.916 290.985 120.21 290.07 120.21C289.034 120.21 288.255 119.827 287.732 119.062V122.52H286.388V112.72ZM291.974 116.276C291.974 115.361 291.746 114.675 291.288 114.218C290.924 113.845 290.448 113.658 289.86 113.658C289.179 113.658 288.638 113.905 288.236 114.4C287.854 114.876 287.662 115.501 287.662 116.276C287.662 117.209 287.891 117.923 288.348 118.418C288.731 118.847 289.235 119.062 289.86 119.062C290.56 119.062 291.092 118.805 291.456 118.292C291.802 117.816 291.974 117.144 291.974 116.276ZM298.167 118.922V120.07C297.822 120.163 297.491 120.21 297.173 120.21C296.501 120.21 295.997 120 295.661 119.58C295.372 119.235 295.227 118.773 295.227 118.194V113.868H294.149V112.72H295.227L295.311 110.97H296.571V112.72H298.139V113.868H296.571V118.222C296.571 118.763 296.828 119.034 297.341 119.034C297.584 119.034 297.859 118.997 298.167 118.922ZM300.859 111.502H299.347V109.92H300.859V111.502ZM300.775 120H299.431V112.72H300.775V120ZM304.084 120H302.74V112.72H303.846L303.986 113.574C304.48 112.865 305.194 112.51 306.128 112.51C307.145 112.51 307.859 112.893 308.27 113.658C308.755 112.893 309.544 112.51 310.636 112.51C311.448 112.51 312.073 112.757 312.512 113.252C312.904 113.709 313.1 114.335 313.1 115.128V120H311.756V115.226C311.756 114.181 311.284 113.658 310.342 113.658C309.782 113.658 309.334 113.877 308.998 114.316C308.727 114.671 308.592 115.086 308.592 115.562V120H307.248V115.226C307.248 114.181 306.776 113.658 305.834 113.658C305.311 113.658 304.877 113.863 304.532 114.274C304.233 114.619 304.084 115.035 304.084 115.52V120ZM316.138 114.75H314.71C314.784 114.022 315.13 113.457 315.746 113.056C316.296 112.692 316.992 112.51 317.832 112.51C318.83 112.51 319.596 112.771 320.128 113.294C320.576 113.742 320.8 114.321 320.8 115.03V120H319.694L319.526 119.006C318.956 119.809 318.144 120.21 317.09 120.21C316.259 120.21 315.61 119.986 315.144 119.538C314.761 119.165 314.57 118.693 314.57 118.124C314.57 117.405 314.817 116.85 315.312 116.458C315.75 116.113 316.422 115.861 317.328 115.702L319.456 115.338V114.974C319.456 114.498 319.292 114.139 318.966 113.896C318.676 113.681 318.28 113.574 317.776 113.574C316.786 113.574 316.24 113.966 316.138 114.75ZM317.412 119.076C317.981 119.076 318.476 118.889 318.896 118.516C319.269 118.171 319.456 117.774 319.456 117.326V116.388L317.65 116.71C316.987 116.822 316.534 116.995 316.292 117.228C316.096 117.415 315.998 117.667 315.998 117.984C315.998 118.339 316.119 118.609 316.362 118.796C316.604 118.983 316.954 119.076 317.412 119.076ZM324.031 109.92V120H322.687V109.92H324.031ZM330.193 112.72H331.299L331.509 113.672C332.106 112.897 332.928 112.51 333.973 112.51C335.018 112.51 335.83 112.883 336.409 113.63C336.922 114.302 337.179 115.193 337.179 116.304C337.179 117.62 336.829 118.628 336.129 119.328C335.541 119.916 334.79 120.21 333.875 120.21C332.839 120.21 332.06 119.827 331.537 119.062V122.52H330.193V112.72ZM335.779 116.276C335.779 115.361 335.55 114.675 335.093 114.218C334.729 113.845 334.253 113.658 333.665 113.658C332.984 113.658 332.442 113.905 332.041 114.4C331.658 114.876 331.467 115.501 331.467 116.276C331.467 117.209 331.696 117.923 332.153 118.418C332.536 118.847 333.04 119.062 333.665 119.062C334.365 119.062 334.897 118.805 335.261 118.292C335.606 117.816 335.779 117.144 335.779 116.276ZM343.68 117.9H345.136C344.931 118.637 344.525 119.216 343.918 119.636C343.349 120.019 342.667 120.21 341.874 120.21C340.726 120.21 339.83 119.846 339.186 119.118C338.598 118.437 338.304 117.517 338.304 116.36C338.304 115.044 338.677 114.045 339.424 113.364C340.04 112.795 340.833 112.51 341.804 112.51C342.943 112.51 343.801 112.879 344.38 113.616C344.94 114.325 345.22 115.338 345.22 116.654H339.676C339.732 117.513 339.993 118.152 340.46 118.572C340.843 118.908 341.328 119.076 341.916 119.076C342.373 119.076 342.77 118.95 343.106 118.698C343.386 118.483 343.577 118.217 343.68 117.9ZM341.832 113.588C341.235 113.588 340.754 113.775 340.39 114.148C340.045 114.493 339.825 114.974 339.732 115.59H343.848C343.801 114.89 343.568 114.367 343.148 114.022C342.812 113.733 342.373 113.588 341.832 113.588ZM348.176 120H346.832V112.72H347.938L348.12 113.798C348.53 112.939 349.146 112.51 349.968 112.51C350.238 112.51 350.504 112.543 350.766 112.608V113.952C350.448 113.868 350.164 113.826 349.912 113.826C349.37 113.826 348.946 114.045 348.638 114.484C348.33 114.923 348.176 115.543 348.176 116.346V120ZM355.42 109.878V111.04C354.972 110.928 354.603 110.872 354.314 110.872C354.071 110.872 353.88 110.937 353.74 111.068C353.609 111.199 353.544 111.381 353.544 111.614V112.72H355.112V113.868H353.544V120H352.2V113.868H351.122V112.72H352.2V111.698C352.2 111.054 352.41 110.55 352.83 110.186C353.203 109.869 353.67 109.71 354.23 109.71C354.594 109.71 354.99 109.766 355.42 109.878ZM355.914 116.36C355.914 115.025 356.31 114.017 357.104 113.336C357.738 112.785 358.541 112.51 359.512 112.51C360.641 112.51 361.528 112.869 362.172 113.588C362.788 114.26 363.096 115.184 363.096 116.36C363.096 117.676 362.708 118.679 361.934 119.37C361.299 119.93 360.487 120.21 359.498 120.21C358.368 120.21 357.477 119.837 356.824 119.09C356.217 118.409 355.914 117.499 355.914 116.36ZM357.314 116.36C357.314 117.293 357.552 118.007 358.028 118.502C358.42 118.913 358.919 119.118 359.526 119.118C360.235 119.118 360.781 118.852 361.164 118.32C361.518 117.835 361.696 117.181 361.696 116.36C361.696 115.408 361.462 114.689 360.996 114.204C360.613 113.803 360.118 113.602 359.512 113.602C358.812 113.602 358.266 113.868 357.874 114.4C357.5 114.885 357.314 115.539 357.314 116.36ZM365.976 120H364.632V112.72H365.738L365.92 113.798C366.331 112.939 366.947 112.51 367.768 112.51C368.039 112.51 368.305 112.543 368.566 112.608V113.952C368.249 113.868 367.964 113.826 367.712 113.826C367.171 113.826 366.746 114.045 366.438 114.484C366.13 114.923 365.976 115.543 365.976 116.346V120ZM370.967 120H369.623V112.72H370.729L370.869 113.574C371.363 112.865 372.077 112.51 373.011 112.51C374.028 112.51 374.742 112.893 375.153 113.658C375.638 112.893 376.427 112.51 377.519 112.51C378.331 112.51 378.956 112.757 379.395 113.252C379.787 113.709 379.983 114.335 379.983 115.128V120H378.639V115.226C378.639 114.181 378.167 113.658 377.225 113.658C376.665 113.658 376.217 113.877 375.881 114.316C375.61 114.671 375.475 115.086 375.475 115.562V120H374.131V115.226C374.131 114.181 373.659 113.658 372.717 113.658C372.194 113.658 371.76 113.863 371.415 114.274C371.116 114.619 370.967 115.035 370.967 115.52V120ZM383.021 114.75H381.593C381.667 114.022 382.013 113.457 382.629 113.056C383.179 112.692 383.875 112.51 384.715 112.51C385.713 112.51 386.479 112.771 387.011 113.294C387.459 113.742 387.683 114.321 387.683 115.03V120H386.577L386.409 119.006C385.839 119.809 385.027 120.21 383.973 120.21C383.142 120.21 382.493 119.986 382.027 119.538C381.644 119.165 381.453 118.693 381.453 118.124C381.453 117.405 381.7 116.85 382.195 116.458C382.633 116.113 383.305 115.861 384.211 115.702L386.339 115.338V114.974C386.339 114.498 386.175 114.139 385.849 113.896C385.559 113.681 385.163 113.574 384.659 113.574C383.669 113.574 383.123 113.966 383.021 114.75ZM384.295 119.076C384.864 119.076 385.359 118.889 385.779 118.516C386.152 118.171 386.339 117.774 386.339 117.326V116.388L384.533 116.71C383.87 116.822 383.417 116.995 383.175 117.228C382.979 117.415 382.881 117.667 382.881 117.984C382.881 118.339 383.002 118.609 383.245 118.796C383.487 118.983 383.837 119.076 384.295 119.076ZM390.914 120H389.57V112.72H390.676L390.83 113.644C391.371 112.888 392.109 112.51 393.042 112.51C393.901 112.51 394.559 112.776 395.016 113.308C395.417 113.784 395.618 114.433 395.618 115.254V120H394.274V115.268C394.274 114.195 393.756 113.658 392.72 113.658C392.179 113.658 391.735 113.845 391.39 114.218C391.073 114.554 390.914 114.983 390.914 115.506V120ZM402.259 117.662H403.729C403.617 118.446 403.249 119.076 402.623 119.552C402.054 119.991 401.359 120.21 400.537 120.21C399.464 120.21 398.61 119.841 397.975 119.104C397.387 118.423 397.093 117.527 397.093 116.416C397.093 115.128 397.448 114.129 398.157 113.42C398.764 112.813 399.553 112.51 400.523 112.51C401.419 112.51 402.157 112.748 402.735 113.224C403.249 113.644 403.561 114.195 403.673 114.876H402.189C402.096 114.484 401.905 114.181 401.615 113.966C401.335 113.751 400.981 113.644 400.551 113.644C399.889 113.644 399.38 113.905 399.025 114.428C398.689 114.913 398.521 115.59 398.521 116.458C398.521 117.363 398.745 118.049 399.193 118.516C399.548 118.889 400.005 119.076 400.565 119.076C401.051 119.076 401.447 118.936 401.755 118.656C402.026 118.413 402.194 118.082 402.259 117.662ZM410.221 117.9H411.677C411.472 118.637 411.066 119.216 410.459 119.636C409.89 120.019 409.208 120.21 408.415 120.21C407.267 120.21 406.371 119.846 405.727 119.118C405.139 118.437 404.845 117.517 404.845 116.36C404.845 115.044 405.218 114.045 405.965 113.364C406.581 112.795 407.374 112.51 408.345 112.51C409.484 112.51 410.342 112.879 410.921 113.616C411.481 114.325 411.761 115.338 411.761 116.654H406.217C406.273 117.513 406.534 118.152 407.001 118.572C407.384 118.908 407.869 119.076 408.457 119.076C408.914 119.076 409.311 118.95 409.647 118.698C409.927 118.483 410.118 118.217 410.221 117.9ZM408.373 113.588C407.776 113.588 407.295 113.775 406.931 114.148C406.586 114.493 406.366 114.974 406.273 115.59H410.389C410.342 114.89 410.109 114.367 409.689 114.022C409.353 113.733 408.914 113.588 408.373 113.588ZM418.718 114.75H417.29C417.365 114.022 417.71 113.457 418.326 113.056C418.877 112.692 419.572 112.51 420.412 112.51C421.411 112.51 422.176 112.771 422.708 113.294C423.156 113.742 423.38 114.321 423.38 115.03V120H422.274L422.106 119.006C421.537 119.809 420.725 120.21 419.67 120.21C418.839 120.21 418.191 119.986 417.724 119.538C417.341 119.165 417.15 118.693 417.15 118.124C417.15 117.405 417.397 116.85 417.892 116.458C418.331 116.113 419.003 115.861 419.908 115.702L422.036 115.338V114.974C422.036 114.498 421.873 114.139 421.546 113.896C421.257 113.681 420.86 113.574 420.356 113.574C419.367 113.574 418.821 113.966 418.718 114.75ZM419.992 119.076C420.561 119.076 421.056 118.889 421.476 118.516C421.849 118.171 422.036 117.774 422.036 117.326V116.388L420.23 116.71C419.567 116.822 419.115 116.995 418.872 117.228C418.676 117.415 418.578 117.667 418.578 117.984C418.578 118.339 418.699 118.609 418.942 118.796C419.185 118.983 419.535 119.076 419.992 119.076ZM426.611 120H425.267V112.72H426.373L426.527 113.644C427.068 112.888 427.806 112.51 428.739 112.51C429.598 112.51 430.256 112.776 430.713 113.308C431.114 113.784 431.315 114.433 431.315 115.254V120H429.971V115.268C429.971 114.195 429.453 113.658 428.417 113.658C427.876 113.658 427.432 113.845 427.087 114.218C426.77 114.554 426.611 114.983 426.611 115.506V120ZM439.776 120H438.67L438.432 118.978C437.872 119.799 437.065 120.21 436.01 120.21C434.993 120.21 434.19 119.841 433.602 119.104C433.061 118.423 432.79 117.522 432.79 116.402C432.79 115.049 433.136 114.031 433.826 113.35C434.405 112.79 435.161 112.51 436.094 112.51C437.102 112.51 437.882 112.888 438.432 113.644V109.92H439.776V120ZM434.19 116.43C434.19 117.335 434.414 118.021 434.862 118.488C435.236 118.871 435.716 119.062 436.304 119.062C437.032 119.062 437.597 118.787 437.998 118.236C438.334 117.76 438.502 117.163 438.502 116.444C438.502 115.501 438.278 114.783 437.83 114.288C437.448 113.868 436.939 113.658 436.304 113.658C435.595 113.658 435.058 113.915 434.694 114.428C434.358 114.895 434.19 115.562 434.19 116.43ZM75.736 138.026C75.736 137.615 75.5213 137.307 75.092 137.102C74.84 136.99 74.35 136.85 73.622 136.682C72.726 136.486 72.0867 136.201 71.704 135.828C71.3867 135.511 71.228 135.095 71.228 134.582C71.228 133.901 71.5033 133.378 72.054 133.014C72.5487 132.678 73.216 132.51 74.056 132.51C74.924 132.51 75.6287 132.725 76.17 133.154C76.6367 133.527 76.926 134.022 77.038 134.638H75.666C75.5073 133.929 74.966 133.574 74.042 133.574C73.5287 133.574 73.146 133.667 72.894 133.854C72.6887 134.013 72.586 134.213 72.586 134.456C72.586 134.755 72.698 134.979 72.922 135.128C73.1553 135.277 73.608 135.427 74.28 135.576C75.3067 135.8 76.0207 136.075 76.422 136.402C76.87 136.766 77.094 137.275 77.094 137.928C77.094 138.656 76.7953 139.23 76.198 139.65C75.6567 140.023 74.9427 140.21 74.056 140.21C73.0853 140.21 72.3153 139.977 71.746 139.51C71.2513 139.099 70.976 138.567 70.92 137.914H72.292C72.4413 138.735 73.034 139.146 74.07 139.146C74.63 139.146 75.064 139.025 75.372 138.782C75.6147 138.586 75.736 138.334 75.736 138.026ZM83.5864 137.9H85.0424C84.8371 138.637 84.4311 139.216 83.8244 139.636C83.2551 140.019 82.5737 140.21 81.7804 140.21C80.6324 140.21 79.7364 139.846 79.0924 139.118C78.5044 138.437 78.2104 137.517 78.2104 136.36C78.2104 135.044 78.5837 134.045 79.3304 133.364C79.9464 132.795 80.7397 132.51 81.7104 132.51C82.8491 132.51 83.7077 132.879 84.2864 133.616C84.8464 134.325 85.1264 135.338 85.1264 136.654H79.5824C79.6384 137.513 79.8997 138.152 80.3664 138.572C80.7491 138.908 81.2344 139.076 81.8224 139.076C82.2797 139.076 82.6764 138.95 83.0124 138.698C83.2924 138.483 83.4837 138.217 83.5864 137.9ZM81.7384 133.588C81.1411 133.588 80.6604 133.775 80.2964 134.148C79.9511 134.493 79.7317 134.974 79.6384 135.59H83.7544C83.7077 134.89 83.4744 134.367 83.0544 134.022C82.7184 133.733 82.2797 133.588 81.7384 133.588ZM91.4838 137.662H92.9538C92.8418 138.446 92.4731 139.076 91.8478 139.552C91.2785 139.991 90.5831 140.21 89.7618 140.21C88.6885 140.21 87.8345 139.841 87.1998 139.104C86.6118 138.423 86.3178 137.527 86.3178 136.416C86.3178 135.128 86.6725 134.129 87.3818 133.42C87.9885 132.813 88.7771 132.51 89.7478 132.51C90.6438 132.51 91.3811 132.748 91.9598 133.224C92.4731 133.644 92.7858 134.195 92.8978 134.876H91.4138C91.3205 134.484 91.1291 134.181 90.8398 133.966C90.5598 133.751 90.2051 133.644 89.7758 133.644C89.1131 133.644 88.6045 133.905 88.2498 134.428C87.9138 134.913 87.7458 135.59 87.7458 136.458C87.7458 137.363 87.9698 138.049 88.4178 138.516C88.7725 138.889 89.2298 139.076 89.7898 139.076C90.2751 139.076 90.6718 138.936 90.9798 138.656C91.2505 138.413 91.4185 138.082 91.4838 137.662ZM94.4198 132.72H95.7638V137.494C95.7638 138.539 96.2678 139.062 97.2758 139.062C97.8918 139.062 98.3631 138.843 98.6898 138.404C98.9418 138.068 99.0678 137.653 99.0678 137.158V132.72H100.412V140H99.3058L99.1518 139.16C98.6384 139.86 97.9104 140.21 96.9678 140.21C96.1371 140.21 95.4978 139.953 95.0498 139.44C94.6298 138.964 94.4198 138.306 94.4198 137.466V132.72ZM103.722 140H102.378V132.72H103.484L103.666 133.798C104.077 132.939 104.693 132.51 105.514 132.51C105.785 132.51 106.051 132.543 106.312 132.608V133.952C105.995 133.868 105.71 133.826 105.458 133.826C104.917 133.826 104.492 134.045 104.184 134.484C103.876 134.923 103.722 135.543 103.722 136.346V140ZM108.797 131.502H107.285V129.92H108.797V131.502ZM108.713 140H107.369V132.72H108.713V140ZM113.925 138.922V140.07C113.58 140.163 113.249 140.21 112.931 140.21C112.259 140.21 111.755 140 111.419 139.58C111.13 139.235 110.985 138.773 110.985 138.194V133.868H109.907V132.72H110.985L111.069 130.97H112.329V132.72H113.897V133.868H112.329V138.222C112.329 138.763 112.586 139.034 113.099 139.034C113.342 139.034 113.617 138.997 113.925 138.922ZM121.265 132.72L118.731 140.098C118.395 141.078 118.073 141.745 117.765 142.1C117.401 142.52 116.93 142.73 116.351 142.73C116.108 142.73 115.819 142.688 115.483 142.604V141.512C115.744 141.577 115.978 141.61 116.183 141.61C116.472 141.61 116.696 141.507 116.855 141.302C117.014 141.106 117.214 140.672 117.457 140H117.023L114.349 132.72H115.805L117.863 138.908L119.921 132.72H121.265ZM126.158 136.36C126.158 135.025 126.554 134.017 127.348 133.336C127.982 132.785 128.785 132.51 129.756 132.51C130.885 132.51 131.772 132.869 132.416 133.588C133.032 134.26 133.34 135.184 133.34 136.36C133.34 137.676 132.952 138.679 132.178 139.37C131.543 139.93 130.731 140.21 129.742 140.21C128.612 140.21 127.721 139.837 127.068 139.09C126.461 138.409 126.158 137.499 126.158 136.36ZM127.558 136.36C127.558 137.293 127.796 138.007 128.272 138.502C128.664 138.913 129.163 139.118 129.77 139.118C130.479 139.118 131.025 138.852 131.408 138.32C131.762 137.835 131.94 137.181 131.94 136.36C131.94 135.408 131.706 134.689 131.24 134.204C130.857 133.803 130.362 133.602 129.756 133.602C129.056 133.602 128.51 133.868 128.118 134.4C127.744 134.885 127.558 135.539 127.558 136.36ZM138.474 129.878V131.04C138.026 130.928 137.658 130.872 137.368 130.872C137.126 130.872 136.934 130.937 136.794 131.068C136.664 131.199 136.598 131.381 136.598 131.614V132.72H138.166V133.868H136.598V140H135.254V133.868H134.176V132.72H135.254V131.698C135.254 131.054 135.464 130.55 135.884 130.186C136.258 129.869 136.724 129.71 137.284 129.71C137.648 129.71 138.045 129.766 138.474 129.878ZM143.165 136.36C143.165 135.025 143.562 134.017 144.355 133.336C144.99 132.785 145.793 132.51 146.763 132.51C147.893 132.51 148.779 132.869 149.423 133.588C150.039 134.26 150.347 135.184 150.347 136.36C150.347 137.676 149.96 138.679 149.185 139.37C148.551 139.93 147.739 140.21 146.749 140.21C145.62 140.21 144.729 139.837 144.075 139.09C143.469 138.409 143.165 137.499 143.165 136.36ZM144.565 136.36C144.565 137.293 144.803 138.007 145.279 138.502C145.671 138.913 146.171 139.118 146.777 139.118C147.487 139.118 148.033 138.852 148.415 138.32C148.77 137.835 148.947 137.181 148.947 136.36C148.947 135.408 148.714 134.689 148.247 134.204C147.865 133.803 147.37 133.602 146.763 133.602C146.063 133.602 145.517 133.868 145.125 134.4C144.752 134.885 144.565 135.539 144.565 136.36ZM151.814 132.72H153.158V137.494C153.158 138.539 153.662 139.062 154.67 139.062C155.286 139.062 155.758 138.843 156.084 138.404C156.336 138.068 156.462 137.653 156.462 137.158V132.72H157.806V140H156.7L156.546 139.16C156.033 139.86 155.305 140.21 154.362 140.21C153.532 140.21 152.892 139.953 152.444 139.44C152.024 138.964 151.814 138.306 151.814 137.466V132.72ZM161.117 140H159.773V132.72H160.879L161.061 133.798C161.472 132.939 162.088 132.51 162.909 132.51C163.18 132.51 163.446 132.543 163.707 132.608V133.952C163.39 133.868 163.105 133.826 162.853 133.826C162.312 133.826 161.887 134.045 161.579 134.484C161.271 134.923 161.117 135.543 161.117 136.346V140ZM168.96 132.72H170.066L170.276 133.672C170.874 132.897 171.695 132.51 172.74 132.51C173.786 132.51 174.598 132.883 175.176 133.63C175.69 134.302 175.946 135.193 175.946 136.304C175.946 137.62 175.596 138.628 174.896 139.328C174.308 139.916 173.557 140.21 172.642 140.21C171.606 140.21 170.827 139.827 170.304 139.062V142.52H168.96V132.72ZM174.546 136.276C174.546 135.361 174.318 134.675 173.86 134.218C173.496 133.845 173.02 133.658 172.432 133.658C171.751 133.658 171.21 133.905 170.808 134.4C170.426 134.876 170.234 135.501 170.234 136.276C170.234 137.209 170.463 137.923 170.92 138.418C171.303 138.847 171.807 139.062 172.432 139.062C173.132 139.062 173.664 138.805 174.028 138.292C174.374 137.816 174.546 137.144 174.546 136.276ZM178.836 129.92V140H177.492V129.92H178.836ZM181.948 134.75H180.52C180.595 134.022 180.94 133.457 181.556 133.056C182.107 132.692 182.802 132.51 183.642 132.51C184.641 132.51 185.406 132.771 185.938 133.294C186.386 133.742 186.61 134.321 186.61 135.03V140H185.504L185.336 139.006C184.767 139.809 183.955 140.21 182.9 140.21C182.07 140.21 181.421 139.986 180.954 139.538C180.572 139.165 180.38 138.693 180.38 138.124C180.38 137.405 180.628 136.85 181.122 136.458C181.561 136.113 182.233 135.861 183.138 135.702L185.266 135.338V134.974C185.266 134.498 185.103 134.139 184.776 133.896C184.487 133.681 184.09 133.574 183.586 133.574C182.597 133.574 182.051 133.966 181.948 134.75ZM183.222 139.076C183.792 139.076 184.286 138.889 184.706 138.516C185.08 138.171 185.266 137.774 185.266 137.326V136.388L183.46 136.71C182.798 136.822 182.345 136.995 182.102 137.228C181.906 137.415 181.808 137.667 181.808 137.984C181.808 138.339 181.93 138.609 182.172 138.796C182.415 138.983 182.765 139.076 183.222 139.076ZM191.746 138.922V140.07C191.4 140.163 191.069 140.21 190.752 140.21C190.08 140.21 189.576 140 189.24 139.58C188.95 139.235 188.806 138.773 188.806 138.194V133.868H187.728V132.72H188.806L188.89 130.97H190.15V132.72H191.718V133.868H190.15V138.222C190.15 138.763 190.406 139.034 190.92 139.034C191.162 139.034 191.438 138.997 191.746 138.922ZM196.607 129.878V131.04C196.159 130.928 195.791 130.872 195.501 130.872C195.259 130.872 195.067 130.937 194.927 131.068C194.797 131.199 194.731 131.381 194.731 131.614V132.72H196.299V133.868H194.731V140H193.387V133.868H192.309V132.72H193.387V131.698C193.387 131.054 193.597 130.55 194.017 130.186C194.391 129.869 194.857 129.71 195.417 129.71C195.781 129.71 196.178 129.766 196.607 129.878ZM197.101 136.36C197.101 135.025 197.498 134.017 198.291 133.336C198.926 132.785 199.728 132.51 200.699 132.51C201.828 132.51 202.715 132.869 203.359 133.588C203.975 134.26 204.283 135.184 204.283 136.36C204.283 137.676 203.896 138.679 203.121 139.37C202.486 139.93 201.674 140.21 200.685 140.21C199.556 140.21 198.664 139.837 198.011 139.09C197.404 138.409 197.101 137.499 197.101 136.36ZM198.501 136.36C198.501 137.293 198.739 138.007 199.215 138.502C199.607 138.913 200.106 139.118 200.713 139.118C201.422 139.118 201.968 138.852 202.351 138.32C202.706 137.835 202.883 137.181 202.883 136.36C202.883 135.408 202.65 134.689 202.183 134.204C201.8 133.803 201.306 133.602 200.699 133.602C199.999 133.602 199.453 133.868 199.061 134.4C198.688 134.885 198.501 135.539 198.501 136.36ZM207.164 140H205.82V132.72H206.926L207.108 133.798C207.519 132.939 208.135 132.51 208.956 132.51C209.227 132.51 209.493 132.543 209.754 132.608V133.952C209.437 133.868 209.152 133.826 208.9 133.826C208.359 133.826 207.934 134.045 207.626 134.484C207.318 134.923 207.164 135.543 207.164 136.346V140ZM212.154 140H210.81V132.72H211.916L212.056 133.574C212.551 132.865 213.265 132.51 214.198 132.51C215.215 132.51 215.929 132.893 216.34 133.658C216.825 132.893 217.614 132.51 218.706 132.51C219.518 132.51 220.143 132.757 220.582 133.252C220.974 133.709 221.17 134.335 221.17 135.128V140H219.826V135.226C219.826 134.181 219.355 133.658 218.412 133.658C217.852 133.658 217.404 133.877 217.068 134.316C216.797 134.671 216.662 135.086 216.662 135.562V140H215.318V135.226C215.318 134.181 214.847 133.658 213.904 133.658C213.381 133.658 212.947 133.863 212.602 134.274C212.303 134.619 212.154 135.035 212.154 135.52V140ZM224.992 140H223.368V138.376H224.992V140Z" fill="white" fill-opacity="0.95"/>
<rect x="81" y="162.5" width="407" height="35" stroke="black" stroke-dasharray="2 2"/>
<rect x="357" y="170.5" width="61" height="27" rx="13.5" stroke="white" stroke-opacity="0.2"/>
<path d="M367.909 177.48H369.973V187.32H375.461V189H367.909V177.48ZM378.698 183.032H376.698C376.836 182.168 377.268 181.507 377.994 181.048C378.644 180.643 379.46 180.44 380.442 180.44C381.626 180.44 382.532 180.744 383.162 181.352C383.706 181.875 383.978 182.552 383.978 183.384V189H382.442L382.202 187.976C381.551 188.819 380.628 189.24 379.434 189.24C378.484 189.24 377.748 188.984 377.226 188.472C376.767 188.024 376.538 187.453 376.538 186.76C376.538 185.981 376.82 185.373 377.386 184.936C377.898 184.531 378.692 184.237 379.77 184.056L382.058 183.672V183.272C382.058 182.771 381.892 182.397 381.562 182.152C381.274 181.928 380.879 181.816 380.378 181.816C379.386 181.816 378.826 182.221 378.698 183.032ZM382.058 184.936L380.25 185.256C379.631 185.373 379.188 185.539 378.922 185.752C378.655 185.955 378.522 186.243 378.522 186.616C378.522 187.395 378.996 187.784 379.946 187.784C380.564 187.784 381.087 187.581 381.514 187.176C381.876 186.824 382.058 186.413 382.058 185.944V184.936ZM385.938 177.48H387.858V181.688C388.519 180.856 389.41 180.44 390.53 180.44C391.735 180.44 392.663 180.851 393.314 181.672C393.911 182.419 394.21 183.421 394.21 184.68C394.21 186.216 393.799 187.395 392.978 188.216C392.306 188.899 391.437 189.24 390.37 189.24C389.271 189.24 388.407 188.824 387.778 187.992L387.474 189H385.938V177.48ZM392.242 184.76C392.242 183.757 392.013 183.016 391.554 182.536C391.181 182.152 390.679 181.96 390.05 181.96C389.335 181.96 388.77 182.221 388.354 182.744C387.97 183.245 387.778 183.912 387.778 184.744C387.778 185.789 388.013 186.568 388.482 187.08C388.877 187.507 389.389 187.72 390.018 187.72C390.754 187.72 391.314 187.448 391.698 186.904C392.061 186.392 392.242 185.677 392.242 184.76ZM401.492 186.6H403.508C403.284 187.453 402.82 188.115 402.116 188.584C401.444 189.021 400.618 189.24 399.636 189.24C398.282 189.24 397.226 188.813 396.468 187.96C395.775 187.181 395.428 186.141 395.428 184.84C395.428 183.347 395.86 182.205 396.724 181.416C397.45 180.765 398.394 180.44 399.556 180.44C400.911 180.44 401.935 180.883 402.628 181.768C403.279 182.589 403.604 183.763 403.604 185.288H397.38C397.455 186.184 397.732 186.84 398.212 187.256C398.596 187.597 399.098 187.768 399.716 187.768C400.154 187.768 400.532 187.661 400.852 187.448C401.172 187.235 401.386 186.952 401.492 186.6ZM401.636 183.976C401.594 183.197 401.359 182.627 400.932 182.264C400.58 181.955 400.122 181.8 399.556 181.8C398.938 181.8 398.442 182.003 398.068 182.408C397.727 182.771 397.508 183.293 397.412 183.976H401.636ZM407.171 177.48V189H405.251V177.48H407.171Z" fill="white" fill-opacity="0.95"/>
<rect x="426.5" y="170" width="62" height="28" rx="14" fill="white" fill-opacity="0.95"/>
<path d="M437.909 177.48H439.973V187.32H445.461V189H437.909V177.48ZM448.698 183.032H446.698C446.836 182.168 447.268 181.507 447.994 181.048C448.644 180.643 449.46 180.44 450.442 180.44C451.626 180.44 452.532 180.744 453.162 181.352C453.706 181.875 453.978 182.552 453.978 183.384V189H452.442L452.202 187.976C451.551 188.819 450.628 189.24 449.434 189.24C448.484 189.24 447.748 188.984 447.226 188.472C446.767 188.024 446.538 187.453 446.538 186.76C446.538 185.981 446.82 185.373 447.386 184.936C447.898 184.531 448.692 184.237 449.77 184.056L452.058 183.672V183.272C452.058 182.771 451.892 182.397 451.562 182.152C451.274 181.928 450.879 181.816 450.378 181.816C449.386 181.816 448.826 182.221 448.698 183.032ZM452.058 184.936L450.25 185.256C449.631 185.373 449.188 185.539 448.922 185.752C448.655 185.955 448.522 186.243 448.522 186.616C448.522 187.395 448.996 187.784 449.946 187.784C450.564 187.784 451.087 187.581 451.514 187.176C451.876 186.824 452.058 186.413 452.058 185.944V184.936ZM455.938 177.48H457.858V181.688C458.519 180.856 459.41 180.44 460.53 180.44C461.735 180.44 462.663 180.851 463.314 181.672C463.911 182.419 464.21 183.421 464.21 184.68C464.21 186.216 463.799 187.395 462.978 188.216C462.306 188.899 461.437 189.24 460.37 189.24C459.271 189.24 458.407 188.824 457.778 187.992L457.474 189H455.938V177.48ZM462.242 184.76C462.242 183.757 462.013 183.016 461.554 182.536C461.181 182.152 460.679 181.96 460.05 181.96C459.335 181.96 458.77 182.221 458.354 182.744C457.97 183.245 457.778 183.912 457.778 184.744C457.778 185.789 458.013 186.568 458.482 187.08C458.877 187.507 459.389 187.72 460.018 187.72C460.754 187.72 461.314 187.448 461.698 186.904C462.061 186.392 462.242 185.677 462.242 184.76ZM471.492 186.6H473.508C473.284 187.453 472.82 188.115 472.116 188.584C471.444 189.021 470.618 189.24 469.636 189.24C468.282 189.24 467.226 188.813 466.468 187.96C465.775 187.181 465.428 186.141 465.428 184.84C465.428 183.347 465.86 182.205 466.724 181.416C467.45 180.765 468.394 180.44 469.556 180.44C470.911 180.44 471.935 180.883 472.628 181.768C473.279 182.589 473.604 183.763 473.604 185.288H467.38C467.455 186.184 467.732 186.84 468.212 187.256C468.596 187.597 469.098 187.768 469.716 187.768C470.154 187.768 470.532 187.661 470.852 187.448C471.172 187.235 471.386 186.952 471.492 186.6ZM471.636 183.976C471.594 183.197 471.359 182.627 470.932 182.264C470.58 181.955 470.122 181.8 469.556 181.8C468.938 181.8 468.442 182.003 468.068 182.408C467.727 182.771 467.508 183.293 467.412 183.976H471.636ZM477.171 177.48V189H475.251V177.48H477.171Z" fill="black" fill-opacity="0.95"/>
</g>
</g>
<defs>
<filter id="filter0_dd_1227_9445" x="46.5" y="28" width="466" height="198" filterUnits="userSpaceOnUse" color-interpolation-filters="sRGB">
<feFlood flood-opacity="0" result="BackgroundImageFix"/>
<feColorMatrix in="SourceAlpha" type="matrix" values="0 0 0 0 0 0 0 0 0 0 0 0 0 0 0 0 0 0 127 0" result="hardAlpha"/>
<feOffset/>
<feGaussianBlur stdDeviation="0.5"/>
<feColorMatrix type="matrix" values="0 0 0 0 0 0 0 0 0 0 0 0 0 0 0 0 0 0 0.16 0"/>
<feBlend mode="normal" in2="BackgroundImageFix" result="effect1_dropShadow_1227_9445"/>
<feColorMatrix in="SourceAlpha" type="matrix" values="0 0 0 0 0 0 0 0 0 0 0 0 0 0 0 0 0 0 127 0" result="hardAlpha"/>
<feOffset dy="4"/>
<feGaussianBlur stdDeviation="4"/>
<feColorMatrix type="matrix" values="0 0 0 0 0 0 0 0 0 0 0 0 0 0 0 0 0 0 0.16 0"/>
<feBlend mode="normal" in2="effect1_dropShadow_1227_9445" result="effect2_dropShadow_1227_9445"/>
<feBlend mode="normal" in="SourceGraphic" in2="effect2_dropShadow_1227_9445" result="shape"/>
</filter>
<filter id="filter1_dd_1227_9445" x="46.5" y="28" width="466" height="198" filterUnits="userSpaceOnUse" color-interpolation-filters="sRGB">
<feFlood flood-opacity="0" result="BackgroundImageFix"/>
<feColorMatrix in="SourceAlpha" type="matrix" values="0 0 0 0 0 0 0 0 0 0 0 0 0 0 0 0 0 0 127 0" result="hardAlpha"/>
<feOffset/>
<feGaussianBlur stdDeviation="0.5"/>
<feColorMatrix type="matrix" values="0 0 0 0 0 0 0 0 0 0 0 0 0 0 0 0 0 0 0.16 0"/>
<feBlend mode="normal" in2="BackgroundImageFix" result="effect1_dropShadow_1227_9445"/>
<feColorMatrix in="SourceAlpha" type="matrix" values="0 0 0 0 0 0 0 0 0 0 0 0 0 0 0 0 0 0 127 0" result="hardAlpha"/>
<feOffset dy="4"/>
<feGaussianBlur stdDeviation="4"/>
<feColorMatrix type="matrix" values="0 0 0 0 0 0 0 0 0 0 0 0 0 0 0 0 0 0 0.16 0"/>
<feBlend mode="normal" in2="effect1_dropShadow_1227_9445" result="effect2_dropShadow_1227_9445"/>
<feBlend mode="normal" in="SourceGraphic" in2="effect2_dropShadow_1227_9445" result="shape"/>
</filter>
</defs>
</svg>
