<svg width="1150" height="184" viewBox="0 0 1150 184" fill="none" xmlns="http://www.w3.org/2000/svg">
<rect width="1150" height="184" rx="16" fill="#1A1A1A"/>
<g clip-path="url(#clip0_1275_485102)">
<path d="M359 73.0625C361.796 73.0625 364.063 70.7959 364.063 68C364.063 65.2041 361.796 62.9375 359 62.9375C356.204 62.9375 353.938 65.2041 353.938 68C353.938 70.7959 356.204 73.0625 359 73.0625Z" fill="#1170CF"/>
</g>
<g clip-path="url(#clip1_1275_485102)">
<rect x="343" y="96" width="32" height="28" rx="14" fill="#7856FF"/>
<path d="M360.295 104.364V116H358.886V105.841H358.818L355.977 107.727V106.295L358.886 104.364H360.295Z" fill="white" fill-opacity="0.95"/>
</g>
<rect x="487" y="60" width="16" height="16" rx="8" fill="#1170CF"/>
<path d="M496.315 63.2727V72H494.994V64.5938H494.942L492.854 65.9574V64.696L495.032 63.2727H496.315Z" fill="white" fill-opacity="0.95"/>
<g clip-path="url(#clip2_1275_485102)">
<rect x="478" y="96" width="34" height="28" rx="14" fill="#7856FF"/>
<path d="M491.205 116V114.977L495.045 110.773C495.496 110.28 495.867 109.852 496.159 109.489C496.451 109.121 496.667 108.777 496.807 108.455C496.951 108.129 497.023 107.788 497.023 107.432C497.023 107.023 496.924 106.669 496.727 106.369C496.534 106.07 496.269 105.839 495.932 105.676C495.595 105.513 495.216 105.432 494.795 105.432C494.348 105.432 493.958 105.525 493.625 105.71C493.295 105.892 493.04 106.148 492.858 106.477C492.68 106.807 492.591 107.193 492.591 107.636H491.25C491.25 106.955 491.407 106.356 491.722 105.841C492.036 105.326 492.464 104.924 493.006 104.636C493.551 104.348 494.163 104.205 494.841 104.205C495.523 104.205 496.127 104.348 496.653 104.636C497.18 104.924 497.593 105.312 497.892 105.801C498.191 106.29 498.341 106.833 498.341 107.432C498.341 107.86 498.263 108.278 498.108 108.688C497.956 109.093 497.691 109.545 497.312 110.045C496.938 110.542 496.417 111.148 495.75 111.864L493.136 114.659V114.75H498.545V116H491.205Z" fill="white" fill-opacity="0.95"/>
</g>
<rect x="623" y="60" width="16" height="16" rx="8" fill="#1170CF"/>
<g clip-path="url(#clip3_1275_485102)">
<path d="M634.169 70.6382C634.784 69.8969 635.121 68.9636 635.121 68C635.121 67.0365 634.784 66.1032 634.169 65.3619L636.14 63.3901C636.176 63.3554 636.204 63.3141 636.223 63.2684C636.243 63.2227 636.253 63.1736 636.253 63.124C636.254 63.0743 636.244 63.0251 636.225 62.9792C636.206 62.9332 636.179 62.8915 636.144 62.8564C636.108 62.8213 636.067 62.7935 636.021 62.7747C635.975 62.7558 635.926 62.7463 635.876 62.7466C635.826 62.7469 635.777 62.7571 635.732 62.7765C635.686 62.7959 635.645 62.8243 635.61 62.8598L633.639 64.8309C632.898 64.2133 631.964 63.875 631 63.875C630.036 63.875 629.102 64.2133 628.361 64.8309L626.39 62.8598C626.32 62.7909 626.225 62.7527 626.126 62.7533C626.027 62.7539 625.933 62.7934 625.863 62.8631C625.794 62.9329 625.754 63.0273 625.753 63.1259C625.753 63.2246 625.791 63.3195 625.86 63.3901L627.831 65.3616C627.216 66.103 626.879 67.0363 626.879 67.9999C626.879 68.9636 627.216 69.8969 627.831 70.6382L625.86 72.6098C625.824 72.6445 625.796 72.6858 625.777 72.7315C625.757 72.7772 625.747 72.8263 625.747 72.8759C625.746 72.9256 625.756 72.9748 625.775 73.0207C625.794 73.0666 625.821 73.1084 625.857 73.1435C625.892 73.1786 625.933 73.2064 625.979 73.2252C626.025 73.2441 626.074 73.2536 626.124 73.2533C626.174 73.253 626.223 73.2428 626.268 73.2234C626.314 73.2039 626.356 73.1756 626.39 73.1401L628.361 71.169C629.102 71.7867 630.036 72.125 631 72.125C631.964 72.125 632.898 71.7867 633.639 71.169L635.61 73.1401C635.681 73.2089 635.775 73.2472 635.874 73.2466C635.973 73.2459 636.067 73.2065 636.137 73.1367C636.207 73.067 636.246 72.9726 636.247 72.874C636.247 72.7753 636.209 72.6804 636.14 72.6098L634.169 70.6382ZM633.636 70.1057L631.53 68L633.636 65.8942C634.113 66.4926 634.372 67.2349 634.372 67.9999C634.372 68.7649 634.113 69.5073 633.636 70.1057ZM631 64.625C631.766 64.6232 632.509 64.8841 633.106 65.364L631 67.4697L628.894 65.3639C629.491 64.884 630.234 64.6232 631 64.625ZM628.364 65.8941L630.47 68L628.364 70.1058C627.887 69.5074 627.628 68.765 627.628 67.9999C627.628 67.2349 627.887 66.4925 628.364 65.8941ZM631 71.375C630.234 71.3767 629.491 71.1159 628.894 70.636L631 68.5302L633.106 70.6359C632.509 71.1158 631.766 71.3767 631 71.375Z" fill="white" fill-opacity="0.95"/>
</g>
<g clip-path="url(#clip4_1275_485102)">
<rect x="613.5" y="96" width="35" height="28" rx="14" fill="#7856FF"/>
<path d="M630.636 116.159C629.886 116.159 629.218 116.03 628.631 115.773C628.047 115.515 627.583 115.157 627.239 114.699C626.898 114.237 626.712 113.701 626.682 113.091H628.114C628.144 113.466 628.273 113.79 628.5 114.062C628.727 114.331 629.025 114.54 629.392 114.688C629.759 114.835 630.167 114.909 630.614 114.909C631.114 114.909 631.557 114.822 631.943 114.648C632.33 114.473 632.633 114.231 632.852 113.92C633.072 113.61 633.182 113.25 633.182 112.841C633.182 112.413 633.076 112.036 632.864 111.71C632.652 111.381 632.341 111.123 631.932 110.938C631.523 110.752 631.023 110.659 630.432 110.659H629.5V109.409H630.432C630.894 109.409 631.299 109.326 631.648 109.159C632 108.992 632.275 108.758 632.472 108.455C632.672 108.152 632.773 107.795 632.773 107.386C632.773 106.992 632.686 106.65 632.511 106.358C632.337 106.066 632.091 105.839 631.773 105.676C631.458 105.513 631.087 105.432 630.659 105.432C630.258 105.432 629.879 105.506 629.523 105.653C629.17 105.797 628.883 106.008 628.659 106.284C628.436 106.557 628.314 106.886 628.295 107.273H626.932C626.955 106.663 627.138 106.129 627.483 105.67C627.828 105.208 628.278 104.848 628.835 104.591C629.396 104.333 630.011 104.205 630.682 104.205C631.402 104.205 632.019 104.35 632.534 104.642C633.049 104.93 633.445 105.311 633.722 105.784C633.998 106.258 634.136 106.769 634.136 107.318C634.136 107.973 633.964 108.532 633.619 108.994C633.278 109.456 632.814 109.777 632.227 109.955V110.045C632.962 110.167 633.536 110.479 633.949 110.983C634.362 111.483 634.568 112.102 634.568 112.841C634.568 113.473 634.396 114.042 634.051 114.545C633.71 115.045 633.244 115.439 632.653 115.727C632.063 116.015 631.39 116.159 630.636 116.159Z" fill="white" fill-opacity="0.95"/>
</g>
<rect x="759" y="60" width="40" height="16" rx="8" fill="#1170CF"/>
<path d="M764.385 72V63.2727H765.701V70.8665H769.656V72H764.385ZM772.961 72.1449C772.546 72.1449 772.171 72.0682 771.836 71.9148C771.5 71.7585 771.235 71.5327 771.039 71.2372C770.846 70.9418 770.749 70.5795 770.749 70.1506C770.749 69.7812 770.82 69.4773 770.962 69.2386C771.104 69 771.296 68.8111 771.537 68.6719C771.779 68.5327 772.049 68.4276 772.347 68.3565C772.645 68.2855 772.949 68.2315 773.259 68.1946C773.651 68.1491 773.969 68.1122 774.213 68.0838C774.458 68.0526 774.635 68.0028 774.746 67.9347C774.857 67.8665 774.912 67.7557 774.912 67.6023V67.5724C774.912 67.2003 774.807 66.9119 774.597 66.7074C774.39 66.5028 774.08 66.4006 773.668 66.4006C773.239 66.4006 772.901 66.4957 772.654 66.6861C772.409 66.8736 772.24 67.0824 772.147 67.3125L770.949 67.0398C771.091 66.642 771.299 66.321 771.571 66.0767C771.847 65.8295 772.164 65.6506 772.522 65.5398C772.88 65.4261 773.256 65.3693 773.651 65.3693C773.912 65.3693 774.189 65.4006 774.482 65.4631C774.777 65.5227 775.053 65.6335 775.309 65.7955C775.567 65.9574 775.779 66.1889 775.944 66.4901C776.108 66.7884 776.191 67.1761 776.191 67.6534V72H774.946V71.1051H774.895C774.813 71.2699 774.689 71.4318 774.525 71.5909C774.36 71.75 774.148 71.8821 773.89 71.9872C773.631 72.0923 773.321 72.1449 772.961 72.1449ZM773.238 71.1222C773.59 71.1222 773.891 71.0526 774.141 70.9134C774.394 70.7741 774.586 70.5923 774.716 70.3679C774.85 70.1406 774.917 69.8977 774.917 69.6392V68.7955C774.871 68.8409 774.783 68.8835 774.652 68.9233C774.525 68.9602 774.378 68.9929 774.213 69.0213C774.049 69.0469 773.888 69.071 773.732 69.0938C773.576 69.1136 773.445 69.1307 773.34 69.1449C773.093 69.1761 772.867 69.2287 772.662 69.3026C772.461 69.3764 772.299 69.483 772.176 69.6222C772.057 69.7585 771.998 69.9403 771.998 70.1676C771.998 70.483 772.114 70.7216 772.347 70.8835C772.58 71.0426 772.877 71.1222 773.238 71.1222ZM777.99 72V63.2727H779.264V66.5156H779.341C779.415 66.3793 779.521 66.2216 779.661 66.0426C779.8 65.8636 779.993 65.7074 780.24 65.5739C780.487 65.4375 780.814 65.3693 781.22 65.3693C781.749 65.3693 782.22 65.5028 782.635 65.7699C783.05 66.0369 783.375 66.4219 783.611 66.9247C783.849 67.4276 783.969 68.0327 783.969 68.7401C783.969 69.4474 783.851 70.054 783.615 70.5597C783.379 71.0625 783.055 71.4503 782.643 71.723C782.232 71.9929 781.761 72.1278 781.233 72.1278C780.835 72.1278 780.51 72.0611 780.257 71.9276C780.007 71.794 779.811 71.6378 779.669 71.4588C779.527 71.2798 779.418 71.1207 779.341 70.9815H779.234V72H777.99ZM779.239 68.7273C779.239 69.1875 779.305 69.5909 779.439 69.9375C779.572 70.2841 779.766 70.5554 780.018 70.7514C780.271 70.9446 780.581 71.0412 780.947 71.0412C781.328 71.0412 781.646 70.9403 781.902 70.7386C782.158 70.5341 782.351 70.2571 782.482 69.9077C782.615 69.5582 782.682 69.1648 782.682 68.7273C782.682 68.2955 782.616 67.9077 782.486 67.5639C782.358 67.2202 782.165 66.9489 781.906 66.75C781.651 66.5511 781.331 66.4517 780.947 66.4517C780.578 66.4517 780.266 66.5469 780.01 66.7372C779.757 66.9276 779.565 67.1932 779.435 67.5341C779.304 67.875 779.239 68.2727 779.239 68.7273ZM788.221 72.1321C787.576 72.1321 787.02 71.9943 786.554 71.7188C786.091 71.4403 785.733 71.0497 785.48 70.5469C785.23 70.0412 785.105 69.4489 785.105 68.7699C785.105 68.0994 785.23 67.5085 785.48 66.9972C785.733 66.4858 786.086 66.0866 786.537 65.7997C786.992 65.5128 787.523 65.3693 788.131 65.3693C788.5 65.3693 788.858 65.4304 789.205 65.5526C789.551 65.6747 789.863 65.8665 790.138 66.1278C790.414 66.3892 790.631 66.7287 790.79 67.1463C790.949 67.5611 791.029 68.0653 791.029 68.6591V69.1108H785.826V68.1562H789.78C789.78 67.821 789.712 67.5241 789.576 67.2656C789.439 67.0043 789.248 66.7983 789 66.6477C788.756 66.4972 788.469 66.4219 788.14 66.4219C787.782 66.4219 787.469 66.5099 787.202 66.6861C786.938 66.8594 786.733 67.0866 786.588 67.3679C786.446 67.6463 786.375 67.9489 786.375 68.2756V69.0213C786.375 69.4588 786.452 69.831 786.605 70.1378C786.762 70.4446 786.979 70.679 787.257 70.8409C787.536 71 787.861 71.0795 788.233 71.0795C788.475 71.0795 788.695 71.0455 788.894 70.9773C789.093 70.9062 789.265 70.8011 789.409 70.6619C789.554 70.5227 789.665 70.3509 789.742 70.1463L790.948 70.3636C790.851 70.7187 790.678 71.0298 790.428 71.2969C790.181 71.5611 789.87 71.767 789.495 71.9148C789.123 72.0597 788.698 72.1321 788.221 72.1321ZM793.717 63.2727V72H792.442V63.2727H793.717Z" fill="white" fill-opacity="0.95"/>
<g clip-path="url(#clip5_1275_485102)">
<rect x="761.5" y="96" width="35" height="28" rx="14" fill="#7856FF"/>
<path d="M774.432 113.614V112.455L779.545 104.364H780.386V106.159H779.818L775.955 112.273V112.364H782.841V113.614H774.432ZM779.909 116V113.261V112.722V104.364H781.25V116H779.909Z" fill="white" fill-opacity="0.95"/>
</g>
<defs>
<clipPath id="clip0_1275_485102">
<rect width="12" height="12" fill="white" transform="translate(353 62)"/>
</clipPath>
<clipPath id="clip1_1275_485102">
<rect width="32" height="28" fill="white" transform="translate(343 96)"/>
</clipPath>
<clipPath id="clip2_1275_485102">
<rect width="34" height="28" fill="white" transform="translate(478 96)"/>
</clipPath>
<clipPath id="clip3_1275_485102">
<rect width="12" height="12" fill="white" transform="translate(625 62)"/>
</clipPath>
<clipPath id="clip4_1275_485102">
<rect width="35" height="28" fill="white" transform="translate(613.5 96)"/>
</clipPath>
<clipPath id="clip5_1275_485102">
<rect width="35" height="28" fill="white" transform="translate(761.5 96)"/>
</clipPath>
</defs>
</svg>
