<svg width="35" height="28" viewBox="0 0 35 28" fill="none" xmlns="http://www.w3.org/2000/svg">
<g clip-path="url(#clip0_1275_485135)">
<rect width="35" height="28" rx="14" fill="#7856FF"/>
<path d="M17.1364 20.1591C16.3864 20.1591 15.7178 20.0303 15.1307 19.7727C14.5473 19.5152 14.0833 19.1572 13.7386 18.6989C13.3977 18.2367 13.2121 17.7008 13.1818 17.0909H14.6136C14.6439 17.4659 14.7727 17.7898 15 18.0625C15.2273 18.3314 15.5246 18.5398 15.892 18.6875C16.2595 18.8352 16.6667 18.9091 17.1136 18.9091C17.6136 18.9091 18.0568 18.822 18.4432 18.6477C18.8295 18.4735 19.1326 18.2311 19.3523 17.9205C19.572 17.6098 19.6818 17.25 19.6818 16.8409C19.6818 16.4129 19.5758 16.036 19.3636 15.7102C19.1515 15.3807 18.8409 15.1231 18.4318 14.9375C18.0227 14.7519 17.5227 14.6591 16.9318 14.6591H16V13.4091H16.9318C17.3939 13.4091 17.7992 13.3258 18.1477 13.1591C18.5 12.9924 18.7746 12.7576 18.9716 12.4545C19.1723 12.1515 19.2727 11.7955 19.2727 11.3864C19.2727 10.9924 19.1856 10.6496 19.0114 10.358C18.8371 10.0663 18.5909 9.83901 18.2727 9.67614C17.9583 9.51326 17.5871 9.43182 17.1591 9.43182C16.7576 9.43182 16.3788 9.50568 16.0227 9.65341C15.6705 9.79735 15.3826 10.0076 15.1591 10.2841C14.9356 10.5568 14.8144 10.8864 14.7955 11.2727H13.4318C13.4545 10.6629 13.6383 10.1288 13.983 9.67045C14.3277 9.20833 14.7784 8.84848 15.3352 8.59091C15.8958 8.33333 16.5114 8.20455 17.1818 8.20455C17.9015 8.20455 18.5189 8.35038 19.0341 8.64205C19.5492 8.92992 19.9451 9.31061 20.2216 9.78409C20.4981 10.2576 20.6364 10.7689 20.6364 11.3182C20.6364 11.9735 20.464 12.5322 20.1193 12.9943C19.7784 13.4564 19.3144 13.7765 18.7273 13.9545V14.0455C19.4621 14.1667 20.036 14.4792 20.4489 14.983C20.8617 15.483 21.0682 16.1023 21.0682 16.8409C21.0682 17.4735 20.8958 18.0417 20.5511 18.5455C20.2102 19.0455 19.7443 19.4394 19.1534 19.7273C18.5625 20.0152 17.8902 20.1591 17.1364 20.1591Z" fill="white" fill-opacity="0.95"/>
</g>
<defs>
<clipPath id="clip0_1275_485135">
<rect width="35" height="28" fill="white"/>
</clipPath>
</defs>
</svg>
