<svg width="555" height="189" viewBox="0 0 555 189" fill="none" xmlns="http://www.w3.org/2000/svg">
<rect width="555" height="189" rx="16" fill="#1A1A1A"/>
<path d="M515 25.9995C512.232 25.9995 509.525 26.8206 507.223 28.3589C504.92 29.8973 503.126 32.0838 502.066 34.6419C501.007 37.2001 500.729 40.015 501.27 42.7308C501.81 45.4465 503.143 47.9411 505.101 49.899C507.059 51.8569 509.553 53.1903 512.269 53.7305C514.985 54.2707 517.8 53.9935 520.358 52.9338C522.916 51.8742 525.103 50.0798 526.641 47.7775C528.179 45.4752 529 42.7684 529 39.9995C528.996 36.2878 527.52 32.7292 524.895 30.1046C522.271 27.48 518.712 26.0037 515 25.9995ZM524.155 47.7402L507.26 30.8447C509.555 28.8983 512.498 27.8862 515.505 28.0096C518.511 28.1329 521.362 29.3826 523.49 31.5105C525.617 33.6383 526.867 36.4887 526.99 39.4954C527.114 42.5021 526.102 45.4453 524.155 47.7402ZM505.846 32.2588L522.741 49.1543C520.446 51.1007 517.503 52.1127 514.496 51.9894C511.49 51.866 508.639 50.6164 506.512 48.4885C504.384 46.3607 503.134 43.5103 503.011 40.5036C502.887 37.4969 503.899 34.5538 505.846 32.2588Z" fill="#FC8B98"/>
<rect x="221.5" y="80" width="48" height="24" rx="12" fill="#64B4FA"/>
<rect x="247.5" y="82" width="20" height="20" rx="10" fill="white"/>
<path d="M262.545 92C262.545 94.7959 260.278 97.0625 257.482 97.0625C254.686 97.0625 252.42 94.7959 252.42 92C252.42 89.2041 254.686 86.9375 257.482 86.9375C260.278 86.9375 262.545 89.2041 262.545 92ZM260.001 89.6796L256.545 93.1361L254.951 91.5428C254.617 91.208 254.074 91.208 253.739 91.5428C253.404 91.8775 253.404 92.4202 253.739 92.755L255.557 94.5732C255.566 94.5817 255.575 94.59 255.583 94.598L255.939 94.9539C256.274 95.2886 256.817 95.2886 257.151 94.9539L261.213 90.8918C261.548 90.5571 261.548 90.0144 261.213 89.6796C260.879 89.3449 260.336 89.3449 260.001 89.6796Z" fill="black"/>
<path d="M286.918 96.21C285.387 96.21 284.183 95.692 283.306 94.656C282.522 93.7133 282.13 92.4813 282.13 90.96C282.13 89.2147 282.657 87.8567 283.712 86.886C284.571 86.102 285.644 85.71 286.932 85.71C288.425 85.71 289.611 86.2093 290.488 87.208C291.3 88.1507 291.706 89.4013 291.706 90.96C291.706 92.696 291.188 94.0447 290.152 95.006C289.293 95.8087 288.215 96.21 286.918 96.21ZM286.918 95.048C288.001 95.048 288.841 94.6513 289.438 93.858C289.979 93.1393 290.25 92.1733 290.25 90.96C290.25 89.5693 289.9 88.51 289.2 87.782C288.621 87.1753 287.861 86.872 286.918 86.872C285.835 86.872 284.995 87.2687 284.398 88.062C283.857 88.7807 283.586 89.7467 283.586 90.96C283.586 92.3507 283.936 93.41 284.636 94.138C285.215 94.7447 285.975 95.048 286.918 95.048ZM294.666 96H293.322V88.72H294.428L294.582 89.644C295.123 88.888 295.86 88.51 296.794 88.51C297.652 88.51 298.31 88.776 298.768 89.308C299.169 89.784 299.37 90.4327 299.37 91.254V96H298.026V91.268C298.026 90.1947 297.508 89.658 296.472 89.658C295.93 89.658 295.487 89.8447 295.142 90.218C294.824 90.554 294.666 90.9833 294.666 91.506V96ZM313.47 96H311.79L309.354 92.164H306.96V96H305.532V85.92H308.794C310.166 85.92 311.193 86.2327 311.874 86.858C312.481 87.3993 312.784 88.1413 312.784 89.084C312.784 90.428 312.108 91.3567 310.754 91.87L313.47 96ZM308.822 87.082H306.96V91.002H308.864C309.695 91.002 310.325 90.806 310.754 90.414C311.118 90.078 311.3 89.6347 311.3 89.084C311.3 87.7493 310.474 87.082 308.822 87.082ZM319.346 93.9H320.802C320.597 94.6373 320.191 95.216 319.584 95.636C319.015 96.0187 318.333 96.21 317.54 96.21C316.392 96.21 315.496 95.846 314.852 95.118C314.264 94.4367 313.97 93.5173 313.97 92.36C313.97 91.044 314.343 90.0453 315.09 89.364C315.706 88.7947 316.499 88.51 317.47 88.51C318.609 88.51 319.467 88.8787 320.046 89.616C320.606 90.3253 320.886 91.338 320.886 92.654H315.342C315.398 93.5127 315.659 94.152 316.126 94.572C316.509 94.908 316.994 95.076 317.582 95.076C318.039 95.076 318.436 94.95 318.772 94.698C319.052 94.4833 319.243 94.2173 319.346 93.9ZM317.498 89.588C316.901 89.588 316.42 89.7747 316.056 90.148C315.711 90.4933 315.491 90.974 315.398 91.59H319.514C319.467 90.89 319.234 90.3673 318.814 90.022C318.478 89.7327 318.039 89.588 317.498 89.588ZM326.754 94.026C326.754 93.6153 326.539 93.3073 326.11 93.102C325.858 92.99 325.368 92.85 324.64 92.682C323.744 92.486 323.104 92.2013 322.722 91.828C322.404 91.5107 322.246 91.0953 322.246 90.582C322.246 89.9007 322.521 89.378 323.072 89.014C323.566 88.678 324.234 88.51 325.074 88.51C325.942 88.51 326.646 88.7247 327.188 89.154C327.654 89.5273 327.944 90.022 328.056 90.638H326.684C326.525 89.9287 325.984 89.574 325.06 89.574C324.546 89.574 324.164 89.6673 323.912 89.854C323.706 90.0127 323.604 90.2133 323.604 90.456C323.604 90.7547 323.716 90.9787 323.94 91.128C324.173 91.2773 324.626 91.4267 325.298 91.576C326.324 91.8 327.038 92.0753 327.44 92.402C327.888 92.766 328.112 93.2747 328.112 93.928C328.112 94.656 327.813 95.23 327.216 95.65C326.674 96.0233 325.96 96.21 325.074 96.21C324.103 96.21 323.333 95.9767 322.764 95.51C322.269 95.0993 321.994 94.5673 321.938 93.914H323.31C323.459 94.7353 324.052 95.146 325.088 95.146C325.648 95.146 326.082 95.0247 326.39 94.782C326.632 94.586 326.754 94.334 326.754 94.026ZM332.896 94.922V96.07C332.551 96.1633 332.219 96.21 331.902 96.21C331.23 96.21 330.726 96 330.39 95.58C330.101 95.2347 329.956 94.7727 329.956 94.194V89.868H328.878V88.72H329.956L330.04 86.97H331.3V88.72H332.868V89.868H331.3V94.222C331.3 94.7633 331.557 95.034 332.07 95.034C332.313 95.034 332.588 94.9967 332.896 94.922Z" fill="white" fill-opacity="0.95"/>
<path d="M0 166H555C555 178.703 544.703 189 532 189H23C10.2975 189 0 178.703 0 166Z" fill="url(#paint0_linear_1283_24256)"/>
<defs>
<linearGradient id="paint0_linear_1283_24256" x1="277.5" y1="166" x2="277.5" y2="189" gradientUnits="userSpaceOnUse">
<stop stop-color="#F0677E"/>
<stop offset="1" stop-color="#DB1F2E"/>
</linearGradient>
</defs>
</svg>
