<svg width="555" height="281" viewBox="0 0 555 281" fill="none" xmlns="http://www.w3.org/2000/svg">
<rect width="555" height="281" rx="16" fill="#1A1A1A"/>
<path d="M510.201 48.1998C510.069 48.2001 509.938 48.1742 509.816 48.1236C509.695 48.0729 509.584 47.9986 509.492 47.9049L502.291 40.6696C502.199 40.5764 502.125 40.466 502.076 40.3446C502.026 40.2231 502 40.093 502 39.9617C502.001 39.8304 502.027 39.7004 502.078 39.5793C502.128 39.4581 502.202 39.3481 502.295 39.2555C502.388 39.1629 502.499 39.0895 502.62 39.0396C502.742 38.9897 502.872 38.9642 503.003 38.9646C503.134 38.9649 503.264 38.9912 503.386 39.0417C503.507 39.0923 503.617 39.1663 503.709 39.2594L510.254 45.8365L526.35 32.0416C526.551 31.8691 526.813 31.7836 527.077 31.804C527.341 31.8243 527.587 31.9488 527.759 32.15C527.932 32.3513 528.017 32.6128 527.997 32.8771C527.976 33.1413 527.852 33.3867 527.651 33.5592L510.851 47.9586C510.67 48.1144 510.439 48.2 510.201 48.1998Z" fill="url(#paint0_linear_1283_24322)"/>
<rect x="420" y="89" width="48" height="24" rx="12" fill="#64B4FA"/>
<rect x="446" y="91" width="20" height="20" rx="10" fill="white"/>
<path d="M454.2 104.075C454.151 104.075 454.102 104.065 454.056 104.046C454.011 104.027 453.969 103.999 453.934 103.964L451.234 101.251C451.2 101.216 451.172 101.175 451.153 101.129C451.135 101.084 451.125 101.035 451.125 100.986C451.125 100.936 451.135 100.888 451.154 100.842C451.173 100.797 451.201 100.755 451.236 100.721C451.271 100.686 451.312 100.658 451.358 100.64C451.403 100.621 451.452 100.611 451.501 100.612C451.55 100.612 451.599 100.622 451.645 100.641C451.69 100.66 451.731 100.687 451.766 100.722L454.22 103.189L460.256 98.0155C460.332 97.9508 460.43 97.9188 460.529 97.9264C460.628 97.934 460.72 97.9807 460.785 98.0562C460.849 98.1316 460.881 98.2297 460.874 98.3288C460.866 98.4279 460.82 98.5199 460.744 98.5846L454.444 103.984C454.376 104.043 454.29 104.075 454.2 104.075Z" fill="black" fill-opacity="0.95"/>
<path d="M95.988 95H94.308L91.872 91.164H89.478V95H88.05V84.92H91.312C92.684 84.92 93.7107 85.2327 94.392 85.858C94.9987 86.3993 95.302 87.1413 95.302 88.084C95.302 89.428 94.6253 90.3567 93.272 90.87L95.988 95ZM91.34 86.082H89.478V90.002H91.382C92.2127 90.002 92.8427 89.806 93.272 89.414C93.636 89.078 93.818 88.6347 93.818 88.084C93.818 86.7493 92.992 86.082 91.34 86.082ZM101.864 92.9H103.32C103.114 93.6373 102.708 94.216 102.102 94.636C101.532 95.0187 100.851 95.21 100.058 95.21C98.9097 95.21 98.0137 94.846 97.3697 94.118C96.7817 93.4367 96.4877 92.5173 96.4877 91.36C96.4877 90.044 96.8611 89.0453 97.6077 88.364C98.2237 87.7947 99.0171 87.51 99.9877 87.51C101.126 87.51 101.985 87.8787 102.564 88.616C103.124 89.3253 103.404 90.338 103.404 91.654H97.8597C97.9157 92.5127 98.1771 93.152 98.6437 93.572C99.0264 93.908 99.5117 94.076 100.1 94.076C100.557 94.076 100.954 93.95 101.29 93.698C101.57 93.4833 101.761 93.2173 101.864 92.9ZM100.016 88.588C99.4184 88.588 98.9377 88.7747 98.5737 89.148C98.2284 89.4933 98.0091 89.974 97.9157 90.59H102.032C101.985 89.89 101.752 89.3673 101.332 89.022C100.996 88.7327 100.557 88.588 100.016 88.588ZM109.761 92.662H111.231C111.119 93.446 110.75 94.076 110.125 94.552C109.556 94.9907 108.86 95.21 108.039 95.21C106.966 95.21 106.112 94.8413 105.477 94.104C104.889 93.4227 104.595 92.5267 104.595 91.416C104.595 90.128 104.95 89.1293 105.659 88.42C106.266 87.8133 107.054 87.51 108.025 87.51C108.921 87.51 109.658 87.748 110.237 88.224C110.75 88.644 111.063 89.1947 111.175 89.876H109.691C109.598 89.484 109.406 89.1807 109.117 88.966C108.837 88.7513 108.482 88.644 108.053 88.644C107.39 88.644 106.882 88.9053 106.527 89.428C106.191 89.9133 106.023 90.59 106.023 91.458C106.023 92.3633 106.247 93.0493 106.695 93.516C107.05 93.8893 107.507 94.076 108.067 94.076C108.552 94.076 108.949 93.936 109.257 93.656C109.528 93.4133 109.696 93.082 109.761 92.662ZM117.723 92.9H119.179C118.974 93.6373 118.568 94.216 117.961 94.636C117.392 95.0187 116.71 95.21 115.917 95.21C114.769 95.21 113.873 94.846 113.229 94.118C112.641 93.4367 112.347 92.5173 112.347 91.36C112.347 90.044 112.72 89.0453 113.467 88.364C114.083 87.7947 114.876 87.51 115.847 87.51C116.986 87.51 117.844 87.8787 118.423 88.616C118.983 89.3253 119.263 90.338 119.263 91.654H113.719C113.775 92.5127 114.036 93.152 114.503 93.572C114.886 93.908 115.371 94.076 115.959 94.076C116.416 94.076 116.813 93.95 117.149 93.698C117.429 93.4833 117.62 93.2173 117.723 92.9ZM115.875 88.588C115.278 88.588 114.797 88.7747 114.433 89.148C114.088 89.4933 113.868 89.974 113.775 90.59H117.891C117.844 89.89 117.611 89.3673 117.191 89.022C116.855 88.7327 116.416 88.588 115.875 88.588ZM122.303 86.502H120.791V84.92H122.303V86.502ZM122.219 95H120.875V87.72H122.219V95ZM128.859 87.72H130.259L127.697 95H125.877L123.343 87.72H124.813L126.829 93.908L128.859 87.72ZM136.057 92.9H137.513C137.308 93.6373 136.902 94.216 136.295 94.636C135.726 95.0187 135.044 95.21 134.251 95.21C133.103 95.21 132.207 94.846 131.563 94.118C130.975 93.4367 130.681 92.5173 130.681 91.36C130.681 90.044 131.054 89.0453 131.801 88.364C132.417 87.7947 133.21 87.51 134.181 87.51C135.32 87.51 136.178 87.8787 136.757 88.616C137.317 89.3253 137.597 90.338 137.597 91.654H132.053C132.109 92.5127 132.37 93.152 132.837 93.572C133.22 93.908 133.705 94.076 134.293 94.076C134.75 94.076 135.147 93.95 135.483 93.698C135.763 93.4833 135.954 93.2173 136.057 92.9ZM134.209 88.588C133.612 88.588 133.131 88.7747 132.767 89.148C132.422 89.4933 132.202 89.974 132.109 90.59H136.225C136.178 89.89 135.945 89.3673 135.525 89.022C135.189 88.7327 134.75 88.588 134.209 88.588ZM149.356 89.288V90.464H144.904V93.796H149.762V95H143.476V84.92H149.762V86.124H144.904V89.288H149.356ZM152.789 95H151.445V87.72H152.551L152.691 88.574C153.186 87.8647 153.9 87.51 154.833 87.51C155.85 87.51 156.564 87.8927 156.975 88.658C157.46 87.8927 158.249 87.51 159.341 87.51C160.153 87.51 160.778 87.7573 161.217 88.252C161.609 88.7093 161.805 89.3347 161.805 90.128V95H160.461V90.226C160.461 89.1807 159.99 88.658 159.047 88.658C158.487 88.658 158.039 88.8773 157.703 89.316C157.432 89.6707 157.297 90.086 157.297 90.562V95H155.953V90.226C155.953 89.1807 155.482 88.658 154.539 88.658C154.016 88.658 153.582 88.8633 153.237 89.274C152.938 89.6193 152.789 90.0347 152.789 90.52V95ZM164.843 89.75H163.415C163.49 89.022 163.835 88.4573 164.451 88.056C165.002 87.692 165.697 87.51 166.537 87.51C167.536 87.51 168.301 87.7713 168.833 88.294C169.281 88.742 169.505 89.3207 169.505 90.03V95H168.399L168.231 94.006C167.662 94.8087 166.85 95.21 165.795 95.21C164.964 95.21 164.316 94.986 163.849 94.538C163.466 94.1647 163.275 93.6933 163.275 93.124C163.275 92.4053 163.522 91.85 164.017 91.458C164.456 91.1127 165.128 90.8607 166.033 90.702L168.161 90.338V89.974C168.161 89.498 167.998 89.1387 167.671 88.896C167.382 88.6813 166.985 88.574 166.481 88.574C165.492 88.574 164.946 88.966 164.843 89.75ZM166.117 94.076C166.686 94.076 167.181 93.8893 167.601 93.516C167.974 93.1707 168.161 92.774 168.161 92.326V91.388L166.355 91.71C165.692 91.822 165.24 91.9947 164.997 92.228C164.801 92.4147 164.703 92.6667 164.703 92.984C164.703 93.3387 164.824 93.6093 165.067 93.796C165.31 93.9827 165.66 94.076 166.117 94.076ZM172.82 86.502H171.308V84.92H172.82V86.502ZM172.736 95H171.392V87.72H172.736V95ZM176.045 84.92V95H174.701V84.92H176.045ZM183.551 95H182.207V87.72H183.313L183.467 88.644C184.008 87.888 184.745 87.51 185.679 87.51C186.537 87.51 187.195 87.776 187.653 88.308C188.054 88.784 188.255 89.4327 188.255 90.254V95H186.911V90.268C186.911 89.1947 186.393 88.658 185.357 88.658C184.815 88.658 184.372 88.8447 184.027 89.218C183.709 89.554 183.551 89.9833 183.551 90.506V95ZM189.73 91.36C189.73 90.0253 190.127 89.0173 190.92 88.336C191.555 87.7853 192.357 87.51 193.328 87.51C194.457 87.51 195.344 87.8693 195.988 88.588C196.604 89.26 196.912 90.184 196.912 91.36C196.912 92.676 196.525 93.6793 195.75 94.37C195.115 94.93 194.303 95.21 193.314 95.21C192.185 95.21 191.293 94.8367 190.64 94.09C190.033 93.4087 189.73 92.4987 189.73 91.36ZM191.13 91.36C191.13 92.2933 191.368 93.0073 191.844 93.502C192.236 93.9127 192.735 94.118 193.342 94.118C194.051 94.118 194.597 93.852 194.98 93.32C195.335 92.8347 195.512 92.1813 195.512 91.36C195.512 90.408 195.279 89.6893 194.812 89.204C194.429 88.8027 193.935 88.602 193.328 88.602C192.628 88.602 192.082 88.868 191.69 89.4C191.317 89.8853 191.13 90.5387 191.13 91.36ZM201.697 93.922V95.07C201.351 95.1633 201.02 95.21 200.703 95.21C200.031 95.21 199.527 95 199.191 94.58C198.901 94.2347 198.757 93.7727 198.757 93.194V88.868H197.679V87.72H198.757L198.841 85.97H200.101V87.72H201.669V88.868H200.101V93.222C200.101 93.7633 200.357 94.034 200.871 94.034C201.113 94.034 201.389 93.9967 201.697 93.922ZM204.388 86.502H202.876V84.92H204.388V86.502ZM204.304 95H202.96V87.72H204.304V95ZM209.867 84.878V86.04C209.419 85.928 209.05 85.872 208.761 85.872C208.518 85.872 208.327 85.9373 208.187 86.068C208.056 86.1987 207.991 86.3807 207.991 86.614V87.72H209.559V88.868H207.991V95H206.647V88.868H205.569V87.72H206.647V86.698C206.647 86.054 206.857 85.55 207.277 85.186C207.65 84.8687 208.117 84.71 208.677 84.71C209.041 84.71 209.438 84.766 209.867 84.878ZM212.209 86.502H210.697V84.92H212.209V86.502ZM212.125 95H210.781V87.72H212.125V95ZM218.835 92.662H220.305C220.193 93.446 219.825 94.076 219.199 94.552C218.63 94.9907 217.935 95.21 217.113 95.21C216.04 95.21 215.186 94.8413 214.551 94.104C213.963 93.4227 213.669 92.5267 213.669 91.416C213.669 90.128 214.024 89.1293 214.733 88.42C215.34 87.8133 216.129 87.51 217.099 87.51C217.995 87.51 218.733 87.748 219.311 88.224C219.825 88.644 220.137 89.1947 220.249 89.876H218.765C218.672 89.484 218.481 89.1807 218.191 88.966C217.911 88.7513 217.557 88.644 217.127 88.644C216.465 88.644 215.956 88.9053 215.601 89.428C215.265 89.9133 215.097 90.59 215.097 91.458C215.097 92.3633 215.321 93.0493 215.769 93.516C216.124 93.8893 216.581 94.076 217.141 94.076C217.627 94.076 218.023 93.936 218.331 93.656C218.602 93.4133 218.77 93.082 218.835 92.662ZM222.989 89.75H221.561C221.636 89.022 221.981 88.4573 222.597 88.056C223.148 87.692 223.843 87.51 224.683 87.51C225.682 87.51 226.447 87.7713 226.979 88.294C227.427 88.742 227.651 89.3207 227.651 90.03V95H226.545L226.377 94.006C225.808 94.8087 224.996 95.21 223.941 95.21C223.111 95.21 222.462 94.986 221.995 94.538C221.613 94.1647 221.421 93.6933 221.421 93.124C221.421 92.4053 221.669 91.85 222.163 91.458C222.602 91.1127 223.274 90.8607 224.179 90.702L226.307 90.338V89.974C226.307 89.498 226.144 89.1387 225.817 88.896C225.528 88.6813 225.131 88.574 224.627 88.574C223.638 88.574 223.092 88.966 222.989 89.75ZM224.263 94.076C224.833 94.076 225.327 93.8893 225.747 93.516C226.121 93.1707 226.307 92.774 226.307 92.326V91.388L224.501 91.71C223.839 91.822 223.386 91.9947 223.143 92.228C222.947 92.4147 222.849 92.6667 222.849 92.984C222.849 93.3387 222.971 93.6093 223.213 93.796C223.456 93.9827 223.806 94.076 224.263 94.076ZM232.787 93.922V95.07C232.441 95.1633 232.11 95.21 231.793 95.21C231.121 95.21 230.617 95 230.281 94.58C229.991 94.2347 229.847 93.7727 229.847 93.194V88.868H228.769V87.72H229.847L229.931 85.97H231.191V87.72H232.759V88.868H231.191V93.222C231.191 93.7633 231.447 94.034 231.961 94.034C232.203 94.034 232.479 93.9967 232.787 93.922ZM235.478 86.502H233.966V84.92H235.478V86.502ZM235.394 95H234.05V87.72H235.394V95ZM236.939 91.36C236.939 90.0253 237.336 89.0173 238.129 88.336C238.764 87.7853 239.566 87.51 240.537 87.51C241.666 87.51 242.553 87.8693 243.197 88.588C243.813 89.26 244.121 90.184 244.121 91.36C244.121 92.676 243.734 93.6793 242.959 94.37C242.324 94.93 241.512 95.21 240.523 95.21C239.394 95.21 238.502 94.8367 237.849 94.09C237.242 93.4087 236.939 92.4987 236.939 91.36ZM238.339 91.36C238.339 92.2933 238.577 93.0073 239.053 93.502C239.445 93.9127 239.944 94.118 240.551 94.118C241.26 94.118 241.806 93.852 242.189 93.32C242.544 92.8347 242.721 92.1813 242.721 91.36C242.721 90.408 242.488 89.6893 242.021 89.204C241.638 88.8027 241.144 88.602 240.537 88.602C239.837 88.602 239.291 88.868 238.899 89.4C238.526 89.8853 238.339 90.5387 238.339 91.36ZM247.002 95H245.658V87.72H246.764L246.918 88.644C247.459 87.888 248.196 87.51 249.13 87.51C249.988 87.51 250.646 87.776 251.104 88.308C251.505 88.784 251.706 89.4327 251.706 90.254V95H250.362V90.268C250.362 89.1947 249.844 88.658 248.808 88.658C248.266 88.658 247.823 88.8447 247.478 89.218C247.16 89.554 247.002 89.9833 247.002 90.506V95ZM266.604 87.72H267.948L265.82 95H264.266L262.502 89.246L260.766 95H259.156L257.028 87.72H258.428L259.996 93.572L261.732 87.72H263.342L265.05 93.544L266.604 87.72ZM270.476 95H269.132V84.92H270.476V88.546C271.008 87.8553 271.718 87.51 272.604 87.51C273.463 87.51 274.121 87.776 274.578 88.308C274.98 88.784 275.18 89.4327 275.18 90.254V95H273.836V90.268C273.836 89.1947 273.318 88.658 272.282 88.658C271.732 88.658 271.284 88.8493 270.938 89.232C270.63 89.5773 270.476 90.0207 270.476 90.562V95ZM282.032 92.9H283.488C283.282 93.6373 282.876 94.216 282.27 94.636C281.7 95.0187 281.019 95.21 280.226 95.21C279.078 95.21 278.182 94.846 277.538 94.118C276.95 93.4367 276.656 92.5173 276.656 91.36C276.656 90.044 277.029 89.0453 277.776 88.364C278.392 87.7947 279.185 87.51 280.156 87.51C281.294 87.51 282.153 87.8787 282.732 88.616C283.292 89.3253 283.572 90.338 283.572 91.654H278.028C278.084 92.5127 278.345 93.152 278.812 93.572C279.194 93.908 279.68 94.076 280.268 94.076C280.725 94.076 281.122 93.95 281.458 93.698C281.738 93.4833 281.929 93.2173 282.032 92.9ZM280.184 88.588C279.586 88.588 279.106 88.7747 278.742 89.148C278.396 89.4933 278.177 89.974 278.084 90.59H282.2C282.153 89.89 281.92 89.3673 281.5 89.022C281.164 88.7327 280.725 88.588 280.184 88.588ZM286.527 95H285.183V87.72H286.289L286.443 88.644C286.984 87.888 287.722 87.51 288.655 87.51C289.514 87.51 290.172 87.776 290.629 88.308C291.03 88.784 291.231 89.4327 291.231 90.254V95H289.887V90.268C289.887 89.1947 289.369 88.658 288.333 88.658C287.792 88.658 287.348 88.8447 287.003 89.218C286.686 89.554 286.527 89.9833 286.527 90.506V95ZM298.082 92.9H299.538C299.333 93.6373 298.927 94.216 298.32 94.636C297.751 95.0187 297.07 95.21 296.276 95.21C295.128 95.21 294.232 94.846 293.588 94.118C293 93.4367 292.706 92.5173 292.706 91.36C292.706 90.044 293.08 89.0453 293.826 88.364C294.442 87.7947 295.236 87.51 296.206 87.51C297.345 87.51 298.204 87.8787 298.782 88.616C299.342 89.3253 299.622 90.338 299.622 91.654H294.078C294.134 92.5127 294.396 93.152 294.862 93.572C295.245 93.908 295.73 94.076 296.318 94.076C296.776 94.076 297.172 93.95 297.508 93.698C297.788 93.4833 297.98 93.2173 298.082 92.9ZM296.234 88.588C295.637 88.588 295.156 88.7747 294.792 89.148C294.447 89.4933 294.228 89.974 294.134 90.59H298.25C298.204 89.89 297.97 89.3673 297.55 89.022C297.214 88.7327 296.776 88.588 296.234 88.588ZM305.636 87.72H307.036L304.474 95H302.654L300.12 87.72H301.59L303.606 93.908L305.636 87.72ZM312.834 92.9H314.29C314.085 93.6373 313.679 94.216 313.072 94.636C312.503 95.0187 311.822 95.21 311.028 95.21C309.88 95.21 308.984 94.846 308.34 94.118C307.752 93.4367 307.458 92.5173 307.458 91.36C307.458 90.044 307.832 89.0453 308.578 88.364C309.194 87.7947 309.988 87.51 310.958 87.51C312.097 87.51 312.956 87.8787 313.534 88.616C314.094 89.3253 314.374 90.338 314.374 91.654H308.83C308.886 92.5127 309.148 93.152 309.614 93.572C309.997 93.908 310.482 94.076 311.07 94.076C311.528 94.076 311.924 93.95 312.26 93.698C312.54 93.4833 312.732 93.2173 312.834 92.9ZM310.986 88.588C310.389 88.588 309.908 88.7747 309.544 89.148C309.199 89.4933 308.98 89.974 308.886 90.59H313.002C312.956 89.89 312.722 89.3673 312.302 89.022C311.966 88.7327 311.528 88.588 310.986 88.588ZM317.33 95H315.986V87.72H317.092L317.274 88.798C317.685 87.9393 318.301 87.51 319.122 87.51C319.393 87.51 319.659 87.5427 319.92 87.608V88.952C319.603 88.868 319.318 88.826 319.066 88.826C318.525 88.826 318.1 89.0453 317.792 89.484C317.484 89.9227 317.33 90.5433 317.33 91.346V95ZM87.98 105.92H89.408V112.752C89.408 113.489 89.66 114.059 90.164 114.46C90.612 114.824 91.214 115.006 91.97 115.006C92.838 115.006 93.5007 114.768 93.958 114.292C94.3407 113.9 94.532 113.387 94.532 112.752V105.92H95.918V112.626C95.918 113.802 95.5073 114.717 94.686 115.37C93.986 115.93 93.076 116.21 91.956 116.21C90.6587 116.21 89.646 115.841 88.918 115.104C88.2927 114.469 87.98 113.643 87.98 112.626V105.92ZM99.2224 105.92V116H97.8784V105.92H99.2224ZM104.435 114.922V116.07C104.09 116.163 103.758 116.21 103.441 116.21C102.769 116.21 102.265 116 101.929 115.58C101.64 115.235 101.495 114.773 101.495 114.194V109.868H100.417V108.72H101.495L101.579 106.97H102.839V108.72H104.407V109.868H102.839V114.222C102.839 114.763 103.096 115.034 103.609 115.034C103.852 115.034 104.127 114.997 104.435 114.922ZM107.043 116H105.699V108.72H106.805L106.987 109.798C107.397 108.939 108.013 108.51 108.835 108.51C109.105 108.51 109.371 108.543 109.633 108.608V109.952C109.315 109.868 109.031 109.826 108.779 109.826C108.237 109.826 107.813 110.045 107.505 110.484C107.197 110.923 107.043 111.543 107.043 112.346V116ZM110.132 112.36C110.132 111.025 110.529 110.017 111.322 109.336C111.957 108.785 112.76 108.51 113.73 108.51C114.86 108.51 115.746 108.869 116.39 109.588C117.006 110.26 117.314 111.184 117.314 112.36C117.314 113.676 116.927 114.679 116.152 115.37C115.518 115.93 114.706 116.21 113.716 116.21C112.587 116.21 111.696 115.837 111.042 115.09C110.436 114.409 110.132 113.499 110.132 112.36ZM111.532 112.36C111.532 113.293 111.77 114.007 112.246 114.502C112.638 114.913 113.138 115.118 113.744 115.118C114.454 115.118 115 114.852 115.382 114.32C115.737 113.835 115.914 113.181 115.914 112.36C115.914 111.408 115.681 110.689 115.214 110.204C114.832 109.803 114.337 109.602 113.73 109.602C113.03 109.602 112.484 109.868 112.092 110.4C111.719 110.885 111.532 111.539 111.532 112.36ZM120.195 116H118.851V108.72H119.957L120.111 109.644C120.652 108.888 121.39 108.51 122.323 108.51C123.182 108.51 123.84 108.776 124.297 109.308C124.698 109.784 124.899 110.433 124.899 111.254V116H123.555V111.268C123.555 110.195 123.037 109.658 122.001 109.658C121.46 109.658 121.016 109.845 120.671 110.218C120.354 110.554 120.195 110.983 120.195 111.506V116ZM132.336 105.92V116H130.992V105.92H132.336ZM135.448 110.75H134.02C134.095 110.022 134.44 109.457 135.056 109.056C135.607 108.692 136.302 108.51 137.142 108.51C138.141 108.51 138.906 108.771 139.438 109.294C139.886 109.742 140.11 110.321 140.11 111.03V116H139.004L138.836 115.006C138.267 115.809 137.455 116.21 136.4 116.21C135.57 116.21 134.921 115.986 134.454 115.538C134.072 115.165 133.88 114.693 133.88 114.124C133.88 113.405 134.128 112.85 134.622 112.458C135.061 112.113 135.733 111.861 136.638 111.702L138.766 111.338V110.974C138.766 110.498 138.603 110.139 138.276 109.896C137.987 109.681 137.59 109.574 137.086 109.574C136.097 109.574 135.551 109.966 135.448 110.75ZM136.722 115.076C137.292 115.076 137.786 114.889 138.206 114.516C138.58 114.171 138.766 113.774 138.766 113.326V112.388L136.96 112.71C136.298 112.822 135.845 112.995 135.602 113.228C135.406 113.415 135.308 113.667 135.308 113.984C135.308 114.339 135.43 114.609 135.672 114.796C135.915 114.983 136.265 115.076 136.722 115.076ZM141.928 108.72H143.272V113.494C143.272 114.539 143.776 115.062 144.784 115.062C145.4 115.062 145.871 114.843 146.198 114.404C146.45 114.068 146.576 113.653 146.576 113.158V108.72H147.92V116H146.814L146.66 115.16C146.146 115.86 145.418 116.21 144.476 116.21C143.645 116.21 143.006 115.953 142.558 115.44C142.138 114.964 141.928 114.306 141.928 113.466V108.72ZM151.23 116H149.886V108.72H150.992L151.146 109.644C151.688 108.888 152.425 108.51 153.358 108.51C154.217 108.51 154.875 108.776 155.332 109.308C155.734 109.784 155.934 110.433 155.934 111.254V116H154.59V111.268C154.59 110.195 154.072 109.658 153.036 109.658C152.495 109.658 152.052 109.845 151.706 110.218C151.389 110.554 151.23 110.983 151.23 111.506V116ZM162.576 113.662H164.046C163.934 114.446 163.565 115.076 162.94 115.552C162.37 115.991 161.675 116.21 160.854 116.21C159.78 116.21 158.926 115.841 158.292 115.104C157.704 114.423 157.41 113.527 157.41 112.416C157.41 111.128 157.764 110.129 158.474 109.42C159.08 108.813 159.869 108.51 160.84 108.51C161.736 108.51 162.473 108.748 163.052 109.224C163.565 109.644 163.878 110.195 163.99 110.876H162.506C162.412 110.484 162.221 110.181 161.932 109.966C161.652 109.751 161.297 109.644 160.868 109.644C160.205 109.644 159.696 109.905 159.342 110.428C159.006 110.913 158.838 111.59 158.838 112.458C158.838 113.363 159.062 114.049 159.51 114.516C159.864 114.889 160.322 115.076 160.882 115.076C161.367 115.076 161.764 114.936 162.072 114.656C162.342 114.413 162.51 114.082 162.576 113.662ZM166.926 116H165.582V105.92H166.926V109.546C167.458 108.855 168.167 108.51 169.054 108.51C169.912 108.51 170.57 108.776 171.028 109.308C171.429 109.784 171.63 110.433 171.63 111.254V116H170.286V111.268C170.286 110.195 169.768 109.658 168.732 109.658C168.181 109.658 167.733 109.849 167.388 110.232C167.08 110.577 166.926 111.021 166.926 111.562V116ZM178.481 113.9H179.937C179.732 114.637 179.326 115.216 178.719 115.636C178.15 116.019 177.468 116.21 176.675 116.21C175.527 116.21 174.631 115.846 173.987 115.118C173.399 114.437 173.105 113.517 173.105 112.36C173.105 111.044 173.478 110.045 174.225 109.364C174.841 108.795 175.634 108.51 176.605 108.51C177.744 108.51 178.602 108.879 179.181 109.616C179.741 110.325 180.021 111.338 180.021 112.654H174.477C174.533 113.513 174.794 114.152 175.261 114.572C175.644 114.908 176.129 115.076 176.717 115.076C177.174 115.076 177.571 114.95 177.907 114.698C178.187 114.483 178.378 114.217 178.481 113.9ZM176.633 109.588C176.036 109.588 175.555 109.775 175.191 110.148C174.846 110.493 174.626 110.974 174.533 111.59H178.649C178.602 110.89 178.369 110.367 177.949 110.022C177.613 109.733 177.174 109.588 176.633 109.588ZM185.888 114.026C185.888 113.615 185.674 113.307 185.244 113.102C184.992 112.99 184.502 112.85 183.774 112.682C182.878 112.486 182.239 112.201 181.856 111.828C181.539 111.511 181.38 111.095 181.38 110.582C181.38 109.901 181.656 109.378 182.206 109.014C182.701 108.678 183.368 108.51 184.208 108.51C185.076 108.51 185.781 108.725 186.322 109.154C186.789 109.527 187.078 110.022 187.19 110.638H185.818C185.66 109.929 185.118 109.574 184.194 109.574C183.681 109.574 183.298 109.667 183.046 109.854C182.841 110.013 182.738 110.213 182.738 110.456C182.738 110.755 182.85 110.979 183.074 111.128C183.308 111.277 183.76 111.427 184.432 111.576C185.459 111.8 186.173 112.075 186.574 112.402C187.022 112.766 187.246 113.275 187.246 113.928C187.246 114.656 186.948 115.23 186.35 115.65C185.809 116.023 185.095 116.21 184.208 116.21C183.238 116.21 182.468 115.977 181.898 115.51C181.404 115.099 181.128 114.567 181.072 113.914H182.444C182.594 114.735 183.186 115.146 184.222 115.146C184.782 115.146 185.216 115.025 185.524 114.782C185.767 114.586 185.888 114.334 185.888 114.026ZM194.128 110.75H192.7C192.775 110.022 193.12 109.457 193.736 109.056C194.287 108.692 194.982 108.51 195.822 108.51C196.821 108.51 197.586 108.771 198.118 109.294C198.566 109.742 198.79 110.321 198.79 111.03V116H197.684L197.516 115.006C196.947 115.809 196.135 116.21 195.08 116.21C194.249 116.21 193.601 115.986 193.134 115.538C192.751 115.165 192.56 114.693 192.56 114.124C192.56 113.405 192.807 112.85 193.302 112.458C193.741 112.113 194.413 111.861 195.318 111.702L197.446 111.338V110.974C197.446 110.498 197.283 110.139 196.956 109.896C196.667 109.681 196.27 109.574 195.766 109.574C194.777 109.574 194.231 109.966 194.128 110.75ZM195.402 115.076C195.971 115.076 196.466 114.889 196.886 114.516C197.259 114.171 197.446 113.774 197.446 113.326V112.388L195.64 112.71C194.977 112.822 194.525 112.995 194.282 113.228C194.086 113.415 193.988 113.667 193.988 113.984C193.988 114.339 194.109 114.609 194.352 114.796C194.595 114.983 194.945 115.076 195.402 115.076ZM202.021 116H200.677V108.72H201.783L201.937 109.644C202.479 108.888 203.216 108.51 204.149 108.51C205.008 108.51 205.666 108.776 206.123 109.308C206.525 109.784 206.725 110.433 206.725 111.254V116H205.381V111.268C205.381 110.195 204.863 109.658 203.827 109.658C203.286 109.658 202.843 109.845 202.497 110.218C202.18 110.554 202.021 110.983 202.021 111.506V116ZM215.187 116H214.081L213.843 114.978C213.283 115.799 212.475 116.21 211.421 116.21C210.403 116.21 209.601 115.841 209.013 115.104C208.471 114.423 208.201 113.522 208.201 112.402C208.201 111.049 208.546 110.031 209.237 109.35C209.815 108.79 210.571 108.51 211.505 108.51C212.513 108.51 213.292 108.888 213.843 109.644V105.92H215.187V116ZM209.601 112.43C209.601 113.335 209.825 114.021 210.273 114.488C210.646 114.871 211.127 115.062 211.715 115.062C212.443 115.062 213.007 114.787 213.409 114.236C213.745 113.76 213.913 113.163 213.913 112.444C213.913 111.501 213.689 110.783 213.241 110.288C212.858 109.868 212.349 109.658 211.715 109.658C211.005 109.658 210.469 109.915 210.105 110.428C209.769 110.895 209.601 111.562 209.601 112.43ZM222.693 116H221.349V108.72H222.455L222.637 109.798C223.048 108.939 223.664 108.51 224.485 108.51C224.756 108.51 225.022 108.543 225.283 108.608V109.952C224.966 109.868 224.681 109.826 224.429 109.826C223.888 109.826 223.463 110.045 223.155 110.484C222.847 110.923 222.693 111.543 222.693 112.346V116ZM231.159 113.9H232.615C232.409 114.637 232.003 115.216 231.397 115.636C230.827 116.019 230.146 116.21 229.353 116.21C228.205 116.21 227.309 115.846 226.665 115.118C226.077 114.437 225.783 113.517 225.783 112.36C225.783 111.044 226.156 110.045 226.903 109.364C227.519 108.795 228.312 108.51 229.283 108.51C230.421 108.51 231.28 108.879 231.859 109.616C232.419 110.325 232.699 111.338 232.699 112.654H227.155C227.211 113.513 227.472 114.152 227.939 114.572C228.321 114.908 228.807 115.076 229.395 115.076C229.852 115.076 230.249 114.95 230.585 114.698C230.865 114.483 231.056 114.217 231.159 113.9ZM229.311 109.588C228.713 109.588 228.233 109.775 227.869 110.148C227.523 110.493 227.304 110.974 227.211 111.59H231.327C231.28 110.89 231.047 110.367 230.627 110.022C230.291 109.733 229.852 109.588 229.311 109.588ZM237.558 114.922V116.07C237.213 116.163 236.881 116.21 236.564 116.21C235.892 116.21 235.388 116 235.052 115.58C234.763 115.235 234.618 114.773 234.618 114.194V109.868H233.54V108.72H234.618L234.702 106.97H235.962V108.72H237.53V109.868H235.962V114.222C235.962 114.763 236.219 115.034 236.732 115.034C236.975 115.034 237.25 114.997 237.558 114.922ZM238.752 108.72H240.096V113.494C240.096 114.539 240.6 115.062 241.608 115.062C242.224 115.062 242.695 114.843 243.022 114.404C243.274 114.068 243.4 113.653 243.4 113.158V108.72H244.744V116H243.638L243.484 115.16C242.97 115.86 242.242 116.21 241.3 116.21C240.469 116.21 239.83 115.953 239.382 115.44C238.962 114.964 238.752 114.306 238.752 113.466V108.72ZM248.054 116H246.71V108.72H247.816L247.998 109.798C248.409 108.939 249.025 108.51 249.846 108.51C250.117 108.51 250.383 108.543 250.644 108.608V109.952C250.327 109.868 250.042 109.826 249.79 109.826C249.249 109.826 248.824 110.045 248.516 110.484C248.208 110.923 248.054 111.543 248.054 112.346V116ZM253.045 116H251.701V108.72H252.807L252.961 109.644C253.502 108.888 254.239 108.51 255.173 108.51C256.031 108.51 256.689 108.776 257.147 109.308C257.548 109.784 257.749 110.433 257.749 111.254V116H256.405V111.268C256.405 110.195 255.887 109.658 254.851 109.658C254.309 109.658 253.866 109.845 253.521 110.218C253.203 110.554 253.045 110.983 253.045 111.506V116ZM263.9 114.026C263.9 113.615 263.685 113.307 263.256 113.102C263.004 112.99 262.514 112.85 261.786 112.682C260.89 112.486 260.251 112.201 259.868 111.828C259.551 111.511 259.392 111.095 259.392 110.582C259.392 109.901 259.667 109.378 260.218 109.014C260.713 108.678 261.38 108.51 262.22 108.51C263.088 108.51 263.793 108.725 264.334 109.154C264.801 109.527 265.09 110.022 265.202 110.638H263.83C263.671 109.929 263.13 109.574 262.206 109.574C261.693 109.574 261.31 109.667 261.058 109.854C260.853 110.013 260.75 110.213 260.75 110.456C260.75 110.755 260.862 110.979 261.086 111.128C261.319 111.277 261.772 111.427 262.444 111.576C263.471 111.8 264.185 112.075 264.586 112.402C265.034 112.766 265.258 113.275 265.258 113.928C265.258 114.656 264.959 115.23 264.362 115.65C263.821 116.023 263.107 116.21 262.22 116.21C261.249 116.21 260.479 115.977 259.91 115.51C259.415 115.099 259.14 114.567 259.084 113.914H260.456C260.605 114.735 261.198 115.146 262.234 115.146C262.794 115.146 263.228 115.025 263.536 114.782C263.779 114.586 263.9 114.334 263.9 114.026ZM274.24 114.922V116.07C273.894 116.163 273.563 116.21 273.246 116.21C272.574 116.21 272.07 116 271.734 115.58C271.444 115.235 271.3 114.773 271.3 114.194V109.868H270.222V108.72H271.3L271.384 106.97H272.644V108.72H274.212V109.868H272.644V114.222C272.644 114.763 272.9 115.034 273.414 115.034C273.656 115.034 273.932 114.997 274.24 114.922ZM275.015 112.36C275.015 111.025 275.412 110.017 276.205 109.336C276.84 108.785 277.642 108.51 278.613 108.51C279.742 108.51 280.629 108.869 281.273 109.588C281.889 110.26 282.197 111.184 282.197 112.36C282.197 113.676 281.81 114.679 281.035 115.37C280.4 115.93 279.588 116.21 278.599 116.21C277.47 116.21 276.578 115.837 275.925 115.09C275.318 114.409 275.015 113.499 275.015 112.36ZM276.415 112.36C276.415 113.293 276.653 114.007 277.129 114.502C277.521 114.913 278.02 115.118 278.627 115.118C279.336 115.118 279.882 114.852 280.265 114.32C280.62 113.835 280.797 113.181 280.797 112.36C280.797 111.408 280.564 110.689 280.097 110.204C279.714 109.803 279.22 109.602 278.613 109.602C277.913 109.602 277.367 109.868 276.975 110.4C276.602 110.885 276.415 111.539 276.415 112.36ZM289.037 116H287.931V105.92H289.275V109.728C289.845 108.916 290.657 108.51 291.711 108.51C292.757 108.51 293.569 108.883 294.147 109.63C294.661 110.302 294.917 111.193 294.917 112.304C294.917 113.62 294.567 114.628 293.867 115.328C293.279 115.916 292.528 116.21 291.613 116.21C290.577 116.21 289.789 115.818 289.247 115.034L289.037 116ZM293.517 112.276C293.517 111.361 293.289 110.675 292.831 110.218C292.467 109.845 291.991 109.658 291.403 109.658C290.722 109.658 290.181 109.905 289.779 110.4C289.397 110.876 289.205 111.501 289.205 112.276C289.205 113.209 289.434 113.923 289.891 114.418C290.274 114.847 290.778 115.062 291.403 115.062C292.103 115.062 292.635 114.805 292.999 114.292C293.345 113.816 293.517 113.144 293.517 112.276ZM297.61 110.75H296.182C296.257 110.022 296.602 109.457 297.218 109.056C297.769 108.692 298.464 108.51 299.304 108.51C300.303 108.51 301.068 108.771 301.6 109.294C302.048 109.742 302.272 110.321 302.272 111.03V116H301.166L300.998 115.006C300.429 115.809 299.617 116.21 298.562 116.21C297.732 116.21 297.083 115.986 296.616 115.538C296.234 115.165 296.042 114.693 296.042 114.124C296.042 113.405 296.29 112.85 296.784 112.458C297.223 112.113 297.895 111.861 298.8 111.702L300.928 111.338V110.974C300.928 110.498 300.765 110.139 300.438 109.896C300.149 109.681 299.752 109.574 299.248 109.574C298.259 109.574 297.713 109.966 297.61 110.75ZM298.884 115.076C299.454 115.076 299.948 114.889 300.368 114.516C300.742 114.171 300.928 113.774 300.928 113.326V112.388L299.122 112.71C298.46 112.822 298.007 112.995 297.764 113.228C297.568 113.415 297.47 113.667 297.47 113.984C297.47 114.339 297.592 114.609 297.834 114.796C298.077 114.983 298.427 115.076 298.884 115.076ZM308.416 114.026C308.416 113.615 308.201 113.307 307.772 113.102C307.52 112.99 307.03 112.85 306.302 112.682C305.406 112.486 304.766 112.201 304.384 111.828C304.066 111.511 303.908 111.095 303.908 110.582C303.908 109.901 304.183 109.378 304.734 109.014C305.228 108.678 305.896 108.51 306.736 108.51C307.604 108.51 308.308 108.725 308.85 109.154C309.316 109.527 309.606 110.022 309.718 110.638H308.346C308.187 109.929 307.646 109.574 306.722 109.574C306.208 109.574 305.826 109.667 305.574 109.854C305.368 110.013 305.266 110.213 305.266 110.456C305.266 110.755 305.378 110.979 305.602 111.128C305.835 111.277 306.288 111.427 306.96 111.576C307.986 111.8 308.7 112.075 309.102 112.402C309.55 112.766 309.774 113.275 309.774 113.928C309.774 114.656 309.475 115.23 308.878 115.65C308.336 116.023 307.622 116.21 306.736 116.21C305.765 116.21 304.995 115.977 304.426 115.51C303.931 115.099 303.656 114.567 303.6 113.914H304.972C305.121 114.735 305.714 115.146 306.75 115.146C307.31 115.146 307.744 115.025 308.052 114.782C308.294 114.586 308.416 114.334 308.416 114.026ZM316.266 113.9H317.722C317.517 114.637 317.111 115.216 316.504 115.636C315.935 116.019 315.253 116.21 314.46 116.21C313.312 116.21 312.416 115.846 311.772 115.118C311.184 114.437 310.89 113.517 310.89 112.36C310.89 111.044 311.263 110.045 312.01 109.364C312.626 108.795 313.419 108.51 314.39 108.51C315.529 108.51 316.387 108.879 316.966 109.616C317.526 110.325 317.806 111.338 317.806 112.654H312.262C312.318 113.513 312.579 114.152 313.046 114.572C313.429 114.908 313.914 115.076 314.502 115.076C314.959 115.076 315.356 114.95 315.692 114.698C315.972 114.483 316.163 114.217 316.266 113.9ZM314.418 109.588C313.821 109.588 313.34 109.775 312.976 110.148C312.631 110.493 312.411 110.974 312.318 111.59H316.434C316.387 110.89 316.154 110.367 315.734 110.022C315.398 109.733 314.959 109.588 314.418 109.588Z" fill="white" fill-opacity="0.95"/>
<rect x="420" y="163" width="48" height="24" rx="12" fill="#64B4FA"/>
<rect x="446" y="165" width="20" height="20" rx="10" fill="white"/>
<path d="M454.2 178.075C454.151 178.075 454.102 178.065 454.056 178.046C454.011 178.027 453.969 177.999 453.934 177.964L451.234 175.251C451.2 175.216 451.172 175.175 451.153 175.129C451.135 175.084 451.125 175.035 451.125 174.986C451.125 174.936 451.135 174.888 451.154 174.842C451.173 174.797 451.201 174.755 451.236 174.721C451.271 174.686 451.312 174.658 451.358 174.64C451.403 174.621 451.452 174.611 451.501 174.612C451.55 174.612 451.599 174.622 451.645 174.641C451.69 174.66 451.731 174.687 451.766 174.722L454.22 177.189L460.256 172.016C460.332 171.951 460.43 171.919 460.529 171.926C460.628 171.934 460.72 171.981 460.785 172.056C460.849 172.132 460.881 172.23 460.874 172.329C460.866 172.428 460.82 172.52 460.744 172.585L454.444 177.984C454.376 178.043 454.29 178.075 454.2 178.075Z" fill="black" fill-opacity="0.95"/>
<path d="M95.302 158.92V160.194H91.914V169H90.486V160.194H87.14V158.92H95.302ZM100.25 166.9H101.706C101.501 167.637 101.095 168.216 100.488 168.636C99.9191 169.019 99.2378 169.21 98.4445 169.21C97.2965 169.21 96.4005 168.846 95.7565 168.118C95.1685 167.437 94.8745 166.517 94.8745 165.36C94.8745 164.044 95.2478 163.045 95.9945 162.364C96.6105 161.795 97.4038 161.51 98.3745 161.51C99.5131 161.51 100.372 161.879 100.95 162.616C101.51 163.325 101.79 164.338 101.79 165.654H96.2465C96.3025 166.513 96.5638 167.152 97.0305 167.572C97.4131 167.908 97.8985 168.076 98.4865 168.076C98.9438 168.076 99.3405 167.95 99.6765 167.698C99.9565 167.483 100.148 167.217 100.25 166.9ZM98.4025 162.588C97.8051 162.588 97.3245 162.775 96.9605 163.148C96.6151 163.493 96.3958 163.974 96.3025 164.59H100.418C100.372 163.89 100.138 163.367 99.7185 163.022C99.3825 162.733 98.9438 162.588 98.4025 162.588ZM109.268 161.72L106.832 165.122L109.688 169H108.05L106.076 166.186L104.144 169H102.562L105.278 165.22L102.73 161.72H104.34L106.076 164.17L107.728 161.72H109.268ZM114.06 167.922V169.07C113.715 169.163 113.383 169.21 113.066 169.21C112.394 169.21 111.89 169 111.554 168.58C111.265 168.235 111.12 167.773 111.12 167.194V162.868H110.042V161.72H111.12L111.204 159.97H112.464V161.72H114.032V162.868H112.464V167.222C112.464 167.763 112.721 168.034 113.234 168.034C113.477 168.034 113.752 167.997 114.06 167.922ZM120.865 169H119.521V161.72H120.627L120.781 162.644C121.322 161.888 122.06 161.51 122.993 161.51C123.852 161.51 124.51 161.776 124.967 162.308C125.368 162.784 125.569 163.433 125.569 164.254V169H124.225V164.268C124.225 163.195 123.707 162.658 122.671 162.658C122.13 162.658 121.686 162.845 121.341 163.218C121.024 163.554 120.865 163.983 120.865 164.506V169ZM127.044 165.36C127.044 164.025 127.441 163.017 128.234 162.336C128.869 161.785 129.672 161.51 130.642 161.51C131.772 161.51 132.658 161.869 133.302 162.588C133.918 163.26 134.226 164.184 134.226 165.36C134.226 166.676 133.839 167.679 133.064 168.37C132.43 168.93 131.618 169.21 130.628 169.21C129.499 169.21 128.608 168.837 127.954 168.09C127.348 167.409 127.044 166.499 127.044 165.36ZM128.444 165.36C128.444 166.293 128.682 167.007 129.158 167.502C129.55 167.913 130.05 168.118 130.656 168.118C131.366 168.118 131.912 167.852 132.294 167.32C132.649 166.835 132.826 166.181 132.826 165.36C132.826 164.408 132.593 163.689 132.126 163.204C131.744 162.803 131.249 162.602 130.642 162.602C129.942 162.602 129.396 162.868 129.004 163.4C128.631 163.885 128.444 164.539 128.444 165.36ZM139.011 167.922V169.07C138.666 169.163 138.335 169.21 138.017 169.21C137.345 169.21 136.841 169 136.505 168.58C136.216 168.235 136.071 167.773 136.071 167.194V162.868H134.993V161.72H136.071L136.155 159.97H137.415V161.72H138.983V162.868H137.415V167.222C137.415 167.763 137.672 168.034 138.185 168.034C138.428 168.034 138.703 167.997 139.011 167.922ZM141.703 160.502H140.191V158.92H141.703V160.502ZM141.619 169H140.275V161.72H141.619V169ZM147.182 158.878V160.04C146.734 159.928 146.365 159.872 146.076 159.872C145.833 159.872 145.642 159.937 145.502 160.068C145.371 160.199 145.306 160.381 145.306 160.614V161.72H146.874V162.868H145.306V169H143.962V162.868H142.884V161.72H143.962V160.698C143.962 160.054 144.172 159.55 144.592 159.186C144.965 158.869 145.432 158.71 145.992 158.71C146.356 158.71 146.752 158.766 147.182 158.878ZM149.523 160.502H148.011V158.92H149.523V160.502ZM149.439 169H148.095V161.72H149.439V169ZM156.15 166.662H157.62C157.508 167.446 157.139 168.076 156.514 168.552C155.944 168.991 155.249 169.21 154.428 169.21C153.354 169.21 152.5 168.841 151.866 168.104C151.278 167.423 150.984 166.527 150.984 165.416C150.984 164.128 151.338 163.129 152.048 162.42C152.654 161.813 153.443 161.51 154.414 161.51C155.31 161.51 156.047 161.748 156.626 162.224C157.139 162.644 157.452 163.195 157.564 163.876H156.08C155.986 163.484 155.795 163.181 155.506 162.966C155.226 162.751 154.871 162.644 154.442 162.644C153.779 162.644 153.27 162.905 152.916 163.428C152.58 163.913 152.412 164.59 152.412 165.458C152.412 166.363 152.636 167.049 153.084 167.516C153.438 167.889 153.896 168.076 154.456 168.076C154.941 168.076 155.338 167.936 155.646 167.656C155.916 167.413 156.084 167.082 156.15 166.662ZM160.304 163.75H158.876C158.95 163.022 159.296 162.457 159.912 162.056C160.462 161.692 161.158 161.51 161.998 161.51C162.996 161.51 163.762 161.771 164.294 162.294C164.742 162.742 164.966 163.321 164.966 164.03V169H163.86L163.692 168.006C163.122 168.809 162.31 169.21 161.256 169.21C160.425 169.21 159.776 168.986 159.31 168.538C158.927 168.165 158.736 167.693 158.736 167.124C158.736 166.405 158.983 165.85 159.478 165.458C159.916 165.113 160.588 164.861 161.494 164.702L163.622 164.338V163.974C163.622 163.498 163.458 163.139 163.132 162.896C162.842 162.681 162.446 162.574 161.942 162.574C160.952 162.574 160.406 162.966 160.304 163.75ZM161.578 168.076C162.147 168.076 162.642 167.889 163.062 167.516C163.435 167.171 163.622 166.774 163.622 166.326V165.388L161.816 165.71C161.153 165.822 160.7 165.995 160.458 166.228C160.262 166.415 160.164 166.667 160.164 166.984C160.164 167.339 160.285 167.609 160.528 167.796C160.77 167.983 161.12 168.076 161.578 168.076ZM170.101 167.922V169.07C169.756 169.163 169.424 169.21 169.107 169.21C168.435 169.21 167.931 169 167.595 168.58C167.306 168.235 167.161 167.773 167.161 167.194V162.868H166.083V161.72H167.161L167.245 159.97H168.505V161.72H170.073V162.868H168.505V167.222C168.505 167.763 168.762 168.034 169.275 168.034C169.518 168.034 169.793 167.997 170.101 167.922ZM172.793 160.502H171.281V158.92H172.793V160.502ZM172.709 169H171.365V161.72H172.709V169ZM174.253 165.36C174.253 164.025 174.65 163.017 175.443 162.336C176.078 161.785 176.881 161.51 177.851 161.51C178.981 161.51 179.867 161.869 180.511 162.588C181.127 163.26 181.435 164.184 181.435 165.36C181.435 166.676 181.048 167.679 180.273 168.37C179.639 168.93 178.827 169.21 177.837 169.21C176.708 169.21 175.817 168.837 175.163 168.09C174.557 167.409 174.253 166.499 174.253 165.36ZM175.653 165.36C175.653 166.293 175.891 167.007 176.367 167.502C176.759 167.913 177.259 168.118 177.865 168.118C178.575 168.118 179.121 167.852 179.503 167.32C179.858 166.835 180.035 166.181 180.035 165.36C180.035 164.408 179.802 163.689 179.335 163.204C178.953 162.803 178.458 162.602 177.851 162.602C177.151 162.602 176.605 162.868 176.213 163.4C175.84 163.885 175.653 164.539 175.653 165.36ZM184.316 169H182.972V161.72H184.078L184.232 162.644C184.774 161.888 185.511 161.51 186.444 161.51C187.303 161.51 187.961 161.776 188.418 162.308C188.82 162.784 189.02 163.433 189.02 164.254V169H187.676V164.268C187.676 163.195 187.158 162.658 186.122 162.658C185.581 162.658 185.138 162.845 184.792 163.218C184.475 163.554 184.316 163.983 184.316 164.506V169ZM203.919 161.72H205.263L203.135 169H201.581L199.817 163.246L198.081 169H196.471L194.343 161.72H195.743L197.311 167.572L199.047 161.72H200.657L202.365 167.544L203.919 161.72ZM207.791 169H206.447V158.92H207.791V162.546C208.323 161.855 209.032 161.51 209.919 161.51C210.777 161.51 211.435 161.776 211.893 162.308C212.294 162.784 212.495 163.433 212.495 164.254V169H211.151V164.268C211.151 163.195 210.633 162.658 209.597 162.658C209.046 162.658 208.598 162.849 208.253 163.232C207.945 163.577 207.791 164.021 207.791 164.562V169ZM219.346 166.9H220.802C220.597 167.637 220.191 168.216 219.584 168.636C219.015 169.019 218.333 169.21 217.54 169.21C216.392 169.21 215.496 168.846 214.852 168.118C214.264 167.437 213.97 166.517 213.97 165.36C213.97 164.044 214.343 163.045 215.09 162.364C215.706 161.795 216.499 161.51 217.47 161.51C218.609 161.51 219.467 161.879 220.046 162.616C220.606 163.325 220.886 164.338 220.886 165.654H215.342C215.398 166.513 215.659 167.152 216.126 167.572C216.509 167.908 216.994 168.076 217.582 168.076C218.039 168.076 218.436 167.95 218.772 167.698C219.052 167.483 219.243 167.217 219.346 166.9ZM217.498 162.588C216.901 162.588 216.42 162.775 216.056 163.148C215.711 163.493 215.491 163.974 215.398 164.59H219.514C219.467 163.89 219.234 163.367 218.814 163.022C218.478 162.733 218.039 162.588 217.498 162.588ZM223.842 169H222.498V161.72H223.604L223.758 162.644C224.299 161.888 225.036 161.51 225.97 161.51C226.828 161.51 227.486 161.776 227.944 162.308C228.345 162.784 228.546 163.433 228.546 164.254V169H227.202V164.268C227.202 163.195 226.684 162.658 225.648 162.658C225.106 162.658 224.663 162.845 224.318 163.218C224 163.554 223.842 163.983 223.842 164.506V169ZM235.397 166.9H236.853C236.648 167.637 236.242 168.216 235.635 168.636C235.066 169.019 234.384 169.21 233.591 169.21C232.443 169.21 231.547 168.846 230.903 168.118C230.315 167.437 230.021 166.517 230.021 165.36C230.021 164.044 230.394 163.045 231.141 162.364C231.757 161.795 232.55 161.51 233.521 161.51C234.66 161.51 235.518 161.879 236.097 162.616C236.657 163.325 236.937 164.338 236.937 165.654H231.393C231.449 166.513 231.71 167.152 232.177 167.572C232.56 167.908 233.045 168.076 233.633 168.076C234.09 168.076 234.487 167.95 234.823 167.698C235.103 167.483 235.294 167.217 235.397 166.9ZM233.549 162.588C232.952 162.588 232.471 162.775 232.107 163.148C231.762 163.493 231.542 163.974 231.449 164.59H235.565C235.518 163.89 235.285 163.367 234.865 163.022C234.529 162.733 234.09 162.588 233.549 162.588ZM242.951 161.72H244.351L241.789 169H239.969L237.435 161.72H238.905L240.921 167.908L242.951 161.72ZM250.149 166.9H251.605C251.4 167.637 250.994 168.216 250.387 168.636C249.818 169.019 249.136 169.21 248.343 169.21C247.195 169.21 246.299 168.846 245.655 168.118C245.067 167.437 244.773 166.517 244.773 165.36C244.773 164.044 245.146 163.045 245.893 162.364C246.509 161.795 247.302 161.51 248.273 161.51C249.412 161.51 250.27 161.879 250.849 162.616C251.409 163.325 251.689 164.338 251.689 165.654H246.145C246.201 166.513 246.462 167.152 246.929 167.572C247.312 167.908 247.797 168.076 248.385 168.076C248.842 168.076 249.239 167.95 249.575 167.698C249.855 167.483 250.046 167.217 250.149 166.9ZM248.301 162.588C247.704 162.588 247.223 162.775 246.859 163.148C246.514 163.493 246.294 163.974 246.201 164.59H250.317C250.27 163.89 250.037 163.367 249.617 163.022C249.281 162.733 248.842 162.588 248.301 162.588ZM254.644 169H253.3V161.72H254.406L254.588 162.798C254.999 161.939 255.615 161.51 256.436 161.51C256.707 161.51 256.973 161.543 257.234 161.608V162.952C256.917 162.868 256.632 162.826 256.38 162.826C255.839 162.826 255.414 163.045 255.106 163.484C254.798 163.923 254.644 164.543 254.644 165.346V169ZM263.832 169H262.488V161.72H263.594L263.734 162.574C264.228 161.865 264.942 161.51 265.876 161.51C266.893 161.51 267.607 161.893 268.018 162.658C268.503 161.893 269.292 161.51 270.384 161.51C271.196 161.51 271.821 161.757 272.26 162.252C272.652 162.709 272.848 163.335 272.848 164.128V169H271.504V164.226C271.504 163.181 271.032 162.658 270.09 162.658C269.53 162.658 269.082 162.877 268.746 163.316C268.475 163.671 268.34 164.086 268.34 164.562V169H266.996V164.226C266.996 163.181 266.524 162.658 265.582 162.658C265.059 162.658 264.625 162.863 264.28 163.274C263.981 163.619 263.832 164.035 263.832 164.52V169ZM274.318 165.36C274.318 164.025 274.714 163.017 275.508 162.336C276.142 161.785 276.945 161.51 277.916 161.51C279.045 161.51 279.932 161.869 280.576 162.588C281.192 163.26 281.5 164.184 281.5 165.36C281.5 166.676 281.112 167.679 280.338 168.37C279.703 168.93 278.891 169.21 277.902 169.21C276.772 169.21 275.881 168.837 275.228 168.09C274.621 167.409 274.318 166.499 274.318 165.36ZM275.718 165.36C275.718 166.293 275.956 167.007 276.432 167.502C276.824 167.913 277.323 168.118 277.93 168.118C278.639 168.118 279.185 167.852 279.568 167.32C279.922 166.835 280.1 166.181 280.1 165.36C280.1 164.408 279.866 163.689 279.4 163.204C279.017 162.803 278.522 162.602 277.916 162.602C277.216 162.602 276.67 162.868 276.278 163.4C275.904 163.885 275.718 164.539 275.718 165.36ZM287.439 161.72H288.839L286.277 169H284.457L281.923 161.72H283.393L285.409 167.908L287.439 161.72ZM294.637 166.9H296.093C295.888 167.637 295.482 168.216 294.875 168.636C294.306 169.019 293.625 169.21 292.831 169.21C291.683 169.21 290.787 168.846 290.143 168.118C289.555 167.437 289.261 166.517 289.261 165.36C289.261 164.044 289.635 163.045 290.381 162.364C290.997 161.795 291.791 161.51 292.761 161.51C293.9 161.51 294.759 161.879 295.337 162.616C295.897 163.325 296.177 164.338 296.177 165.654H290.633C290.689 166.513 290.951 167.152 291.417 167.572C291.8 167.908 292.285 168.076 292.873 168.076C293.331 168.076 293.727 167.95 294.063 167.698C294.343 167.483 294.535 167.217 294.637 166.9ZM292.789 162.588C292.192 162.588 291.711 162.775 291.347 163.148C291.002 163.493 290.783 163.974 290.689 164.59H294.805C294.759 163.89 294.525 163.367 294.105 163.022C293.769 162.733 293.331 162.588 292.789 162.588ZM299.133 169H297.789V161.72H298.895L299.035 162.574C299.529 161.865 300.243 161.51 301.177 161.51C302.194 161.51 302.908 161.893 303.319 162.658C303.804 161.893 304.593 161.51 305.685 161.51C306.497 161.51 307.122 161.757 307.561 162.252C307.953 162.709 308.149 163.335 308.149 164.128V169H306.805V164.226C306.805 163.181 306.333 162.658 305.391 162.658C304.831 162.658 304.383 162.877 304.047 163.316C303.776 163.671 303.641 164.086 303.641 164.562V169H302.297V164.226C302.297 163.181 301.825 162.658 300.883 162.658C300.36 162.658 299.926 162.863 299.581 163.274C299.282 163.619 299.133 164.035 299.133 164.52V169ZM314.995 166.9H316.451C316.245 167.637 315.839 168.216 315.233 168.636C314.663 169.019 313.982 169.21 313.189 169.21C312.041 169.21 311.145 168.846 310.501 168.118C309.913 167.437 309.619 166.517 309.619 165.36C309.619 164.044 309.992 163.045 310.739 162.364C311.355 161.795 312.148 161.51 313.119 161.51C314.257 161.51 315.116 161.879 315.695 162.616C316.255 163.325 316.535 164.338 316.535 165.654H310.991C311.047 166.513 311.308 167.152 311.775 167.572C312.157 167.908 312.643 168.076 313.231 168.076C313.688 168.076 314.085 167.95 314.421 167.698C314.701 167.483 314.892 167.217 314.995 166.9ZM313.147 162.588C312.549 162.588 312.069 162.775 311.705 163.148C311.359 163.493 311.14 163.974 311.047 164.59H315.163C315.116 163.89 314.883 163.367 314.463 163.022C314.127 162.733 313.688 162.588 313.147 162.588ZM319.49 169H318.146V161.72H319.252L319.406 162.644C319.947 161.888 320.685 161.51 321.618 161.51C322.477 161.51 323.135 161.776 323.592 162.308C323.993 162.784 324.194 163.433 324.194 164.254V169H322.85V164.268C322.85 163.195 322.332 162.658 321.296 162.658C320.755 162.658 320.311 162.845 319.966 163.218C319.649 163.554 319.49 163.983 319.49 164.506V169ZM329.337 167.922V169.07C328.992 169.163 328.661 169.21 328.343 169.21C327.671 169.21 327.167 169 326.831 168.58C326.542 168.235 326.397 167.773 326.397 167.194V162.868H325.319V161.72H326.397L326.481 159.97H327.741V161.72H329.309V162.868H327.741V167.222C327.741 167.763 327.998 168.034 328.511 168.034C328.754 168.034 329.029 167.997 329.337 167.922ZM89.408 181.502H87.896V179.92H89.408V181.502ZM89.324 190H87.98V182.72H89.324V190ZM95.5446 188.026C95.5446 187.615 95.3299 187.307 94.9006 187.102C94.6486 186.99 94.1586 186.85 93.4306 186.682C92.5346 186.486 91.8953 186.201 91.5126 185.828C91.1953 185.511 91.0366 185.095 91.0366 184.582C91.0366 183.901 91.3119 183.378 91.8626 183.014C92.3573 182.678 93.0246 182.51 93.8646 182.51C94.7326 182.51 95.4373 182.725 95.9786 183.154C96.4453 183.527 96.7346 184.022 96.8466 184.638H95.4746C95.3159 183.929 94.7746 183.574 93.8506 183.574C93.3373 183.574 92.9546 183.667 92.7026 183.854C92.4973 184.013 92.3946 184.213 92.3946 184.456C92.3946 184.755 92.5066 184.979 92.7306 185.128C92.9639 185.277 93.4166 185.427 94.0886 185.576C95.1153 185.8 95.8293 186.075 96.2306 186.402C96.6786 186.766 96.9026 187.275 96.9026 187.928C96.9026 188.656 96.6039 189.23 96.0066 189.65C95.4653 190.023 94.7513 190.21 93.8646 190.21C92.8939 190.21 92.1239 189.977 91.5546 189.51C91.0599 189.099 90.7846 188.567 90.7286 187.914H92.1006C92.2499 188.735 92.8426 189.146 93.8786 189.146C94.4386 189.146 94.8726 189.025 95.1806 188.782C95.4233 188.586 95.5446 188.334 95.5446 188.026ZM109.202 190H108.096L107.858 188.978C107.298 189.799 106.491 190.21 105.436 190.21C104.419 190.21 103.616 189.841 103.028 189.104C102.487 188.423 102.216 187.522 102.216 186.402C102.216 185.049 102.562 184.031 103.252 183.35C103.831 182.79 104.587 182.51 105.52 182.51C106.528 182.51 107.308 182.888 107.858 183.644V179.92H109.202V190ZM103.616 186.43C103.616 187.335 103.84 188.021 104.288 188.488C104.662 188.871 105.142 189.062 105.73 189.062C106.458 189.062 107.023 188.787 107.424 188.236C107.76 187.76 107.928 187.163 107.928 186.444C107.928 185.501 107.704 184.783 107.256 184.288C106.874 183.868 106.365 183.658 105.73 183.658C105.021 183.658 104.484 183.915 104.12 184.428C103.784 184.895 103.616 185.562 103.616 186.43ZM116.124 187.9H117.579C117.374 188.637 116.968 189.216 116.362 189.636C115.792 190.019 115.111 190.21 114.318 190.21C113.17 190.21 112.274 189.846 111.63 189.118C111.042 188.437 110.748 187.517 110.748 186.36C110.748 185.044 111.121 184.045 111.868 183.364C112.484 182.795 113.277 182.51 114.248 182.51C115.386 182.51 116.245 182.879 116.824 183.616C117.384 184.325 117.664 185.338 117.664 186.654H112.12C112.176 187.513 112.437 188.152 112.904 188.572C113.286 188.908 113.772 189.076 114.36 189.076C114.817 189.076 115.214 188.95 115.55 188.698C115.83 188.483 116.021 188.217 116.124 187.9ZM114.276 183.588C113.678 183.588 113.198 183.775 112.834 184.148C112.488 184.493 112.269 184.974 112.176 185.59H116.292C116.245 184.89 116.012 184.367 115.592 184.022C115.256 183.733 114.817 183.588 114.276 183.588ZM122.523 188.922V190.07C122.178 190.163 121.846 190.21 121.529 190.21C120.857 190.21 120.353 190 120.017 189.58C119.728 189.235 119.583 188.773 119.583 188.194V183.868H118.505V182.72H119.583L119.667 180.97H120.927V182.72H122.495V183.868H120.927V188.222C120.927 188.763 121.184 189.034 121.697 189.034C121.94 189.034 122.215 188.997 122.523 188.922ZM128.674 187.9H130.13C129.925 188.637 129.519 189.216 128.912 189.636C128.343 190.019 127.662 190.21 126.868 190.21C125.72 190.21 124.824 189.846 124.18 189.118C123.592 188.437 123.298 187.517 123.298 186.36C123.298 185.044 123.672 184.045 124.418 183.364C125.034 182.795 125.828 182.51 126.798 182.51C127.937 182.51 128.796 182.879 129.374 183.616C129.934 184.325 130.214 185.338 130.214 186.654H124.67C124.726 187.513 124.988 188.152 125.454 188.572C125.837 188.908 126.322 189.076 126.91 189.076C127.368 189.076 127.764 188.95 128.1 188.698C128.38 188.483 128.572 188.217 128.674 187.9ZM126.826 183.588C126.229 183.588 125.748 183.775 125.384 184.148C125.039 184.493 124.82 184.974 124.726 185.59H128.842C128.796 184.89 128.562 184.367 128.142 184.022C127.806 183.733 127.368 183.588 126.826 183.588ZM136.572 187.662H138.042C137.93 188.446 137.561 189.076 136.936 189.552C136.366 189.991 135.671 190.21 134.85 190.21C133.776 190.21 132.922 189.841 132.288 189.104C131.7 188.423 131.406 187.527 131.406 186.416C131.406 185.128 131.76 184.129 132.47 183.42C133.076 182.813 133.865 182.51 134.836 182.51C135.732 182.51 136.469 182.748 137.048 183.224C137.561 183.644 137.874 184.195 137.986 184.876H136.502C136.408 184.484 136.217 184.181 135.928 183.966C135.648 183.751 135.293 183.644 134.864 183.644C134.201 183.644 133.692 183.905 133.338 184.428C133.002 184.913 132.834 185.59 132.834 186.458C132.834 187.363 133.058 188.049 133.506 188.516C133.86 188.889 134.318 189.076 134.878 189.076C135.363 189.076 135.76 188.936 136.068 188.656C136.338 188.413 136.506 188.082 136.572 187.662ZM142.826 188.922V190.07C142.48 190.163 142.149 190.21 141.832 190.21C141.16 190.21 140.656 190 140.32 189.58C140.03 189.235 139.886 188.773 139.886 188.194V183.868H138.808V182.72H139.886L139.97 180.97H141.23V182.72H142.798V183.868H141.23V188.222C141.23 188.763 141.486 189.034 142 189.034C142.242 189.034 142.518 188.997 142.826 188.922ZM148.977 187.9H150.433C150.228 188.637 149.822 189.216 149.215 189.636C148.646 190.019 147.964 190.21 147.171 190.21C146.023 190.21 145.127 189.846 144.483 189.118C143.895 188.437 143.601 187.517 143.601 186.36C143.601 185.044 143.974 184.045 144.721 183.364C145.337 182.795 146.13 182.51 147.101 182.51C148.24 182.51 149.098 182.879 149.677 183.616C150.237 184.325 150.517 185.338 150.517 186.654H144.973C145.029 187.513 145.29 188.152 145.757 188.572C146.14 188.908 146.625 189.076 147.213 189.076C147.67 189.076 148.067 188.95 148.403 188.698C148.683 188.483 148.874 188.217 148.977 187.9ZM147.129 183.588C146.532 183.588 146.051 183.775 145.687 184.148C145.342 184.493 145.122 184.974 145.029 185.59H149.145C149.098 184.89 148.865 184.367 148.445 184.022C148.109 183.733 147.67 183.588 147.129 183.588ZM158.694 190H157.588L157.35 188.978C156.79 189.799 155.983 190.21 154.928 190.21C153.911 190.21 153.108 189.841 152.52 189.104C151.979 188.423 151.708 187.522 151.708 186.402C151.708 185.049 152.054 184.031 152.744 183.35C153.323 182.79 154.079 182.51 155.012 182.51C156.02 182.51 156.8 182.888 157.35 183.644V179.92H158.694V190ZM153.108 186.43C153.108 187.335 153.332 188.021 153.78 188.488C154.154 188.871 154.634 189.062 155.222 189.062C155.95 189.062 156.515 188.787 156.916 188.236C157.252 187.76 157.42 187.163 157.42 186.444C157.42 185.501 157.196 184.783 156.748 184.288C156.366 183.868 155.857 183.658 155.222 183.658C154.513 183.658 153.976 183.915 153.612 184.428C153.276 184.895 153.108 185.562 153.108 186.43ZM173.663 182.72H175.007L172.879 190H171.325L169.561 184.246L167.825 190H166.215L164.087 182.72H165.487L167.055 188.572L168.791 182.72H170.401L172.109 188.544L173.663 182.72ZM177.619 181.502H176.107V179.92H177.619V181.502ZM177.535 190H176.191V182.72H177.535V190ZM182.748 188.922V190.07C182.402 190.163 182.071 190.21 181.754 190.21C181.082 190.21 180.578 190 180.242 189.58C179.952 189.235 179.808 188.773 179.808 188.194V183.868H178.73V182.72H179.808L179.892 180.97H181.152V182.72H182.72V183.868H181.152V188.222C181.152 188.763 181.408 189.034 181.922 189.034C182.164 189.034 182.44 188.997 182.748 188.922ZM185.355 190H184.011V179.92H185.355V183.546C185.887 182.855 186.597 182.51 187.483 182.51C188.342 182.51 189 182.776 189.457 183.308C189.859 183.784 190.059 184.433 190.059 185.254V190H188.715V185.268C188.715 184.195 188.197 183.658 187.161 183.658C186.611 183.658 186.163 183.849 185.817 184.232C185.509 184.577 185.355 185.021 185.355 185.562V190ZM193.383 181.502H191.871V179.92H193.383V181.502ZM193.299 190H191.955V182.72H193.299V190ZM196.607 190H195.263V182.72H196.369L196.523 183.644C197.065 182.888 197.802 182.51 198.735 182.51C199.594 182.51 200.252 182.776 200.709 183.308C201.111 183.784 201.311 184.433 201.311 185.254V190H199.967V185.268C199.967 184.195 199.449 183.658 198.413 183.658C197.872 183.658 197.429 183.845 197.083 184.218C196.766 184.554 196.607 184.983 196.607 185.506V190ZM207.138 187.62H208.566C208.668 188.077 208.911 188.437 209.294 188.698C209.658 188.95 210.106 189.076 210.638 189.076C211.3 189.076 211.832 188.847 212.234 188.39C212.588 187.979 212.766 187.438 212.766 186.766C212.766 186.01 212.546 185.436 212.108 185.044C211.744 184.708 211.263 184.54 210.666 184.54C209.863 184.54 209.21 184.839 208.706 185.436H207.516L207.726 180.2H213.746V181.334H208.944L208.832 184.204C209.429 183.728 210.143 183.49 210.974 183.49C211.944 183.49 212.724 183.807 213.312 184.442C213.872 185.049 214.152 185.842 214.152 186.822C214.152 187.839 213.802 188.67 213.102 189.314C212.458 189.911 211.632 190.21 210.624 190.21C209.606 190.21 208.762 189.911 208.09 189.314C207.567 188.847 207.25 188.283 207.138 187.62ZM217.142 190H215.798V182.72H216.904L217.044 183.574C217.539 182.865 218.253 182.51 219.186 182.51C220.204 182.51 220.918 182.893 221.328 183.658C221.814 182.893 222.602 182.51 223.694 182.51C224.506 182.51 225.132 182.757 225.57 183.252C225.962 183.709 226.158 184.335 226.158 185.128V190H224.814V185.226C224.814 184.181 224.343 183.658 223.4 183.658C222.84 183.658 222.392 183.877 222.056 184.316C221.786 184.671 221.65 185.086 221.65 185.562V190H220.306V185.226C220.306 184.181 219.835 183.658 218.892 183.658C218.37 183.658 217.936 183.863 217.59 184.274C217.292 184.619 217.142 185.035 217.142 185.52V190ZM229.476 181.502H227.964V179.92H229.476V181.502ZM229.392 190H228.048V182.72H229.392V190ZM236.898 190H235.554V182.72H236.66L236.842 183.798C237.253 182.939 237.869 182.51 238.69 182.51C238.961 182.51 239.227 182.543 239.488 182.608V183.952C239.171 183.868 238.886 183.826 238.634 183.826C238.093 183.826 237.668 184.045 237.36 184.484C237.052 184.923 236.898 185.543 236.898 186.346V190ZM241.692 184.75H240.264C240.339 184.022 240.684 183.457 241.3 183.056C241.851 182.692 242.546 182.51 243.386 182.51C244.385 182.51 245.15 182.771 245.682 183.294C246.13 183.742 246.354 184.321 246.354 185.03V190H245.248L245.08 189.006C244.511 189.809 243.699 190.21 242.644 190.21C241.814 190.21 241.165 189.986 240.698 189.538C240.316 189.165 240.124 188.693 240.124 188.124C240.124 187.405 240.372 186.85 240.866 186.458C241.305 186.113 241.977 185.861 242.882 185.702L245.01 185.338V184.974C245.01 184.498 244.847 184.139 244.52 183.896C244.231 183.681 243.834 183.574 243.33 183.574C242.341 183.574 241.795 183.966 241.692 184.75ZM242.966 189.076C243.536 189.076 244.03 188.889 244.45 188.516C244.824 188.171 245.01 187.774 245.01 187.326V186.388L243.204 186.71C242.542 186.822 242.089 186.995 241.846 187.228C241.65 187.415 241.552 187.667 241.552 187.984C241.552 188.339 241.674 188.609 241.916 188.796C242.159 188.983 242.509 189.076 242.966 189.076ZM254.808 190H253.702L253.464 188.978C252.904 189.799 252.096 190.21 251.042 190.21C250.024 190.21 249.222 189.841 248.634 189.104C248.092 188.423 247.822 187.522 247.822 186.402C247.822 185.049 248.167 184.031 248.858 183.35C249.436 182.79 250.192 182.51 251.126 182.51C252.134 182.51 252.913 182.888 253.464 183.644V179.92H254.808V190ZM249.222 186.43C249.222 187.335 249.446 188.021 249.894 188.488C250.267 188.871 250.748 189.062 251.336 189.062C252.064 189.062 252.628 188.787 253.03 188.236C253.366 187.76 253.534 187.163 253.534 186.444C253.534 185.501 253.31 184.783 252.862 184.288C252.479 183.868 251.97 183.658 251.336 183.658C250.626 183.658 250.09 183.915 249.726 184.428C249.39 184.895 249.222 185.562 249.222 186.43ZM258.201 181.502H256.689V179.92H258.201V181.502ZM258.117 190H256.773V182.72H258.117V190ZM260.012 182.72H261.356V187.494C261.356 188.539 261.86 189.062 262.868 189.062C263.484 189.062 263.955 188.843 264.282 188.404C264.534 188.068 264.66 187.653 264.66 187.158V182.72H266.004V190H264.898L264.744 189.16C264.23 189.86 263.502 190.21 262.56 190.21C261.729 190.21 261.09 189.953 260.642 189.44C260.222 188.964 260.012 188.306 260.012 187.466V182.72ZM272.226 188.026C272.226 187.615 272.012 187.307 271.582 187.102C271.33 186.99 270.84 186.85 270.112 186.682C269.216 186.486 268.577 186.201 268.194 185.828C267.877 185.511 267.718 185.095 267.718 184.582C267.718 183.901 267.994 183.378 268.544 183.014C269.039 182.678 269.706 182.51 270.546 182.51C271.414 182.51 272.119 182.725 272.66 183.154C273.127 183.527 273.416 184.022 273.528 184.638H272.156C271.998 183.929 271.456 183.574 270.532 183.574C270.019 183.574 269.636 183.667 269.384 183.854C269.179 184.013 269.076 184.213 269.076 184.456C269.076 184.755 269.188 184.979 269.412 185.128C269.646 185.277 270.098 185.427 270.77 185.576C271.797 185.8 272.511 186.075 272.912 186.402C273.36 186.766 273.584 187.275 273.584 187.928C273.584 188.656 273.286 189.23 272.688 189.65C272.147 190.023 271.433 190.21 270.546 190.21C269.576 190.21 268.806 189.977 268.236 189.51C267.742 189.099 267.466 188.567 267.41 187.914H268.782C268.932 188.735 269.524 189.146 270.56 189.146C271.12 189.146 271.554 189.025 271.862 188.782C272.105 188.586 272.226 188.334 272.226 188.026ZM278.898 186.36C278.898 185.025 279.295 184.017 280.088 183.336C280.723 182.785 281.525 182.51 282.496 182.51C283.625 182.51 284.512 182.869 285.156 183.588C285.772 184.26 286.08 185.184 286.08 186.36C286.08 187.676 285.693 188.679 284.918 189.37C284.283 189.93 283.471 190.21 282.482 190.21C281.353 190.21 280.461 189.837 279.808 189.09C279.201 188.409 278.898 187.499 278.898 186.36ZM280.298 186.36C280.298 187.293 280.536 188.007 281.012 188.502C281.404 188.913 281.903 189.118 282.51 189.118C283.219 189.118 283.765 188.852 284.148 188.32C284.503 187.835 284.68 187.181 284.68 186.36C284.68 185.408 284.447 184.689 283.98 184.204C283.597 183.803 283.103 183.602 282.496 183.602C281.796 183.602 281.25 183.868 280.858 184.4C280.485 184.885 280.298 185.539 280.298 186.36ZM291.215 179.878V181.04C290.767 180.928 290.398 180.872 290.109 180.872C289.866 180.872 289.675 180.937 289.535 181.068C289.404 181.199 289.339 181.381 289.339 181.614V182.72H290.907V183.868H289.339V190H287.995V183.868H286.917V182.72H287.995V181.698C287.995 181.054 288.205 180.55 288.625 180.186C288.998 179.869 289.465 179.71 290.025 179.71C290.389 179.71 290.785 179.766 291.215 179.878ZM299.574 188.922V190.07C299.228 190.163 298.897 190.21 298.58 190.21C297.908 190.21 297.404 190 297.068 189.58C296.778 189.235 296.634 188.773 296.634 188.194V183.868H295.556V182.72H296.634L296.718 180.97H297.978V182.72H299.546V183.868H297.978V188.222C297.978 188.763 298.234 189.034 298.748 189.034C298.99 189.034 299.266 188.997 299.574 188.922ZM302.181 190H300.837V179.92H302.181V183.546C302.713 182.855 303.423 182.51 304.309 182.51C305.168 182.51 305.826 182.776 306.283 183.308C306.685 183.784 306.885 184.433 306.885 185.254V190H305.541V185.268C305.541 184.195 305.023 183.658 303.987 183.658C303.437 183.658 302.989 183.849 302.643 184.232C302.335 184.577 302.181 185.021 302.181 185.562V190ZM313.737 187.9H315.193C314.987 188.637 314.581 189.216 313.975 189.636C313.405 190.019 312.724 190.21 311.931 190.21C310.783 190.21 309.887 189.846 309.243 189.118C308.655 188.437 308.361 187.517 308.361 186.36C308.361 185.044 308.734 184.045 309.481 183.364C310.097 182.795 310.89 182.51 311.861 182.51C312.999 182.51 313.858 182.879 314.437 183.616C314.997 184.325 315.277 185.338 315.277 186.654H309.733C309.789 187.513 310.05 188.152 310.517 188.572C310.899 188.908 311.385 189.076 311.973 189.076C312.43 189.076 312.827 188.95 313.163 188.698C313.443 188.483 313.634 188.217 313.737 187.9ZM311.889 183.588C311.291 183.588 310.811 183.775 310.447 184.148C310.101 184.493 309.882 184.974 309.789 185.59H313.905C313.858 184.89 313.625 184.367 313.205 184.022C312.869 183.733 312.43 183.588 311.889 183.588ZM322.429 179.92V190H321.085V179.92H322.429ZM325.542 184.75H324.114C324.189 184.022 324.534 183.457 325.15 183.056C325.701 182.692 326.396 182.51 327.236 182.51C328.235 182.51 329 182.771 329.532 183.294C329.98 183.742 330.204 184.321 330.204 185.03V190H329.098L328.93 189.006C328.361 189.809 327.549 190.21 326.494 190.21C325.663 190.21 325.015 189.986 324.548 189.538C324.165 189.165 323.974 188.693 323.974 188.124C323.974 187.405 324.221 186.85 324.716 186.458C325.155 186.113 325.827 185.861 326.732 185.702L328.86 185.338V184.974C328.86 184.498 328.697 184.139 328.37 183.896C328.081 183.681 327.684 183.574 327.18 183.574C326.191 183.574 325.645 183.966 325.542 184.75ZM326.816 189.076C327.385 189.076 327.88 188.889 328.3 188.516C328.673 188.171 328.86 187.774 328.86 187.326V186.388L327.054 186.71C326.391 186.822 325.939 186.995 325.696 187.228C325.5 187.415 325.402 187.667 325.402 187.984C325.402 188.339 325.523 188.609 325.766 188.796C326.009 188.983 326.359 189.076 326.816 189.076ZM333.197 190H332.091V179.92H333.435V183.728C334.005 182.916 334.817 182.51 335.871 182.51C336.917 182.51 337.729 182.883 338.307 183.63C338.821 184.302 339.077 185.193 339.077 186.304C339.077 187.62 338.727 188.628 338.027 189.328C337.439 189.916 336.688 190.21 335.773 190.21C334.737 190.21 333.949 189.818 333.407 189.034L333.197 190ZM337.677 186.276C337.677 185.361 337.449 184.675 336.991 184.218C336.627 183.845 336.151 183.658 335.563 183.658C334.882 183.658 334.341 183.905 333.939 184.4C333.557 184.876 333.365 185.501 333.365 186.276C333.365 187.209 333.594 187.923 334.051 188.418C334.434 188.847 334.938 189.062 335.563 189.062C336.263 189.062 336.795 188.805 337.159 188.292C337.505 187.816 337.677 187.144 337.677 186.276Z" fill="white" fill-opacity="0.95"/>
<path d="M0 258H555C555 270.703 544.703 281 532 281H23C10.2975 281 0 270.703 0 258Z" fill="url(#paint1_linear_1283_24322)"/>
<defs>
<linearGradient id="paint0_linear_1283_24322" x1="515" y1="31.801" x2="515" y2="48.1998" gradientUnits="userSpaceOnUse">
<stop stop-color="#3CC29A"/>
<stop offset="1" stop-color="#93C437"/>
</linearGradient>
<linearGradient id="paint1_linear_1283_24322" x1="277.5" y1="258" x2="277.5" y2="281" gradientUnits="userSpaceOnUse">
<stop stop-color="#3CC29A"/>
<stop offset="1" stop-color="#93C437"/>
</linearGradient>
</defs>
</svg>
