<svg width="559" height="178" viewBox="0 0 559 178" fill="none" xmlns="http://www.w3.org/2000/svg">
<rect width="559" height="178" rx="16" fill="#1A1A1A"/>
<rect x="189.5" y="79" width="56" height="24" rx="4" fill="#262626"/>
<rect x="190" y="79.5" width="55" height="23" rx="3.5" stroke="white" stroke-opacity="0.5"/>
<path d="M200.768 96V85.8182H202.001V94.9062H206.734V96H200.768ZM210.731 96.179C210.247 96.179 209.808 96.0878 209.414 95.9055C209.019 95.7199 208.706 95.4531 208.474 95.1051C208.242 94.7538 208.126 94.3295 208.126 93.8324C208.126 93.3949 208.212 93.0402 208.385 92.7685C208.557 92.4934 208.787 92.2779 209.076 92.1222C209.364 91.9664 209.682 91.8504 210.03 91.7741C210.382 91.6946 210.735 91.6316 211.089 91.5852C211.553 91.5256 211.929 91.4808 212.218 91.451C212.509 91.4179 212.722 91.3632 212.854 91.2869C212.99 91.2107 213.058 91.0781 213.058 90.8892V90.8494C213.058 90.3589 212.924 89.9777 212.655 89.706C212.39 89.4342 211.987 89.2983 211.447 89.2983C210.887 89.2983 210.448 89.4209 210.13 89.6662C209.812 89.9115 209.588 90.1733 209.459 90.4517L208.345 90.054C208.544 89.59 208.809 89.2287 209.14 88.9702C209.475 88.7083 209.84 88.526 210.234 88.4233C210.632 88.3172 211.023 88.2642 211.407 88.2642C211.653 88.2642 211.934 88.294 212.253 88.3537C212.574 88.41 212.884 88.5277 213.182 88.7067C213.484 88.8857 213.734 89.1558 213.933 89.517C214.132 89.8783 214.231 90.3622 214.231 90.9688V96H213.058V94.9659H212.998C212.919 95.1316 212.786 95.3089 212.601 95.4979C212.415 95.6868 212.168 95.8475 211.86 95.9801C211.552 96.1127 211.175 96.179 210.731 96.179ZM210.91 95.125C211.374 95.125 211.765 95.0339 212.084 94.8516C212.405 94.6693 212.647 94.4339 212.809 94.1456C212.975 93.8572 213.058 93.554 213.058 93.2358V92.1619C213.008 92.2216 212.899 92.2763 212.73 92.326C212.564 92.3724 212.372 92.4138 212.153 92.4503C211.938 92.4834 211.727 92.5133 211.522 92.5398C211.32 92.563 211.156 92.5829 211.03 92.5994C210.725 92.6392 210.44 92.7038 210.174 92.7933C209.913 92.8795 209.701 93.0104 209.538 93.1861C209.379 93.3584 209.299 93.5937 209.299 93.892C209.299 94.2997 209.45 94.608 209.752 94.8168C210.057 95.0223 210.443 95.125 210.91 95.125ZM216.532 96V85.8182H217.705V89.5767H217.805C217.891 89.4441 218.01 89.2751 218.163 89.0696C218.318 88.8608 218.54 88.6752 218.829 88.5128C219.12 88.3471 219.515 88.2642 220.012 88.2642C220.655 88.2642 221.222 88.425 221.712 88.7464C222.203 89.0679 222.586 89.5237 222.861 90.1136C223.136 90.7036 223.273 91.3996 223.273 92.2017C223.273 93.0104 223.136 93.7114 222.861 94.3047C222.586 94.8946 222.204 95.352 221.717 95.6768C221.23 95.9983 220.668 96.1591 220.032 96.1591C219.541 96.1591 219.149 96.0779 218.854 95.9155C218.559 95.7498 218.332 95.5625 218.173 95.3537C218.013 95.1416 217.891 94.9659 217.805 94.8267H217.665V96H216.532ZM217.685 92.1818C217.685 92.7585 217.77 93.2673 217.939 93.7081C218.108 94.1456 218.355 94.4886 218.68 94.7372C219.004 94.9825 219.402 95.1051 219.873 95.1051C220.363 95.1051 220.773 94.9759 221.101 94.7173C221.432 94.4555 221.681 94.1042 221.847 93.6634C222.016 93.2192 222.1 92.7254 222.1 92.1818C222.1 91.6449 222.017 91.161 221.852 90.7301C221.689 90.2959 221.442 89.9529 221.111 89.701C220.783 89.4458 220.37 89.3182 219.873 89.3182C219.396 89.3182 218.994 89.4392 218.67 89.6811C218.345 89.9197 218.1 90.2545 217.934 90.6854C217.768 91.1129 217.685 91.6117 217.685 92.1818ZM228.27 96.1591C227.534 96.1591 226.899 95.9967 226.366 95.6719C225.835 95.3438 225.426 94.8864 225.138 94.2997C224.853 93.7098 224.71 93.0237 224.71 92.2415C224.71 91.4593 224.853 90.7699 225.138 90.1733C225.426 89.5734 225.827 89.1061 226.341 88.7713C226.858 88.4332 227.461 88.2642 228.151 88.2642C228.548 88.2642 228.941 88.3305 229.329 88.4631C229.717 88.5956 230.07 88.8111 230.388 89.1094C230.706 89.4044 230.959 89.7955 231.148 90.2827C231.337 90.7699 231.432 91.3698 231.432 92.0824V92.5795H225.545V91.5653H230.239C230.239 91.1345 230.152 90.75 229.98 90.4119C229.811 90.0739 229.569 89.8071 229.254 89.6115C228.943 89.416 228.575 89.3182 228.151 89.3182C227.683 89.3182 227.279 89.4342 226.937 89.6662C226.599 89.8949 226.339 90.1932 226.157 90.5611C225.975 90.929 225.883 91.3234 225.883 91.7443V92.4205C225.883 92.9972 225.983 93.486 226.182 93.8871C226.384 94.2848 226.664 94.5881 227.022 94.7969C227.38 95.0024 227.796 95.1051 228.27 95.1051C228.578 95.1051 228.856 95.062 229.105 94.9759C229.357 94.8864 229.574 94.7538 229.756 94.5781C229.939 94.3991 230.079 94.1771 230.179 93.9119L231.312 94.2301C231.193 94.6146 230.993 94.9527 230.711 95.2443C230.429 95.5327 230.081 95.758 229.667 95.9205C229.253 96.0795 228.787 96.1591 228.27 96.1591ZM234.39 85.8182V96H233.217V85.8182H234.39Z" fill="white" fill-opacity="0.95"/>
<g clip-path="url(#clip0_1619_5294)">
<line x1="200" y1="79" x2="200" y2="64" stroke="#C7A5FA"/>
<line x1="199.5" y1="71.5" x2="215.5" y2="71.5" stroke="#C7A5FA"/>
<line x1="215" y1="79" x2="215" y2="64" stroke="#C7A5FA"/>
</g>
<path d="M205.144 57V47.0469H205.042L200.947 48.5645V50.0068L203.497 49.0703V57H205.144ZM213.871 46.999H213.679C212.904 46.999 212.216 47.1198 211.615 47.3613C211.013 47.6029 210.507 47.9492 210.097 48.4004C209.614 48.9245 209.268 49.5511 209.058 50.2803C208.853 51.0049 208.75 51.7682 208.75 52.5703V53.2471C208.75 53.7803 208.828 54.2884 208.983 54.7715C209.138 55.25 209.366 55.667 209.666 56.0225C209.949 56.3643 210.295 56.6354 210.706 56.8359C211.116 57.0365 211.583 57.1367 212.107 57.1367C212.617 57.1367 213.071 57.0501 213.467 56.877C213.868 56.6992 214.208 56.4554 214.486 56.1455C214.759 55.8402 214.967 55.4824 215.108 55.0723C215.254 54.6576 215.327 54.2132 215.327 53.7393C215.327 53.3063 215.27 52.8893 215.156 52.4883C215.046 52.0872 214.873 51.7318 214.636 51.4219C214.404 51.112 214.108 50.8659 213.748 50.6836C213.392 50.5013 212.973 50.4102 212.49 50.4102C212.262 50.4102 212.045 50.4375 211.84 50.4922C211.635 50.5423 211.448 50.6107 211.28 50.6973C211.102 50.7884 210.94 50.8932 210.794 51.0117C210.649 51.1257 210.521 51.2441 210.412 51.3672C210.448 50.9434 210.541 50.5469 210.692 50.1777C210.847 49.8086 211.063 49.4919 211.341 49.2275C211.615 48.9632 211.95 48.7581 212.346 48.6123C212.747 48.4619 213.219 48.3867 213.761 48.3867H213.871V46.999ZM212.086 51.7363C212.351 51.7363 212.583 51.791 212.784 51.9004C212.989 52.0052 213.16 52.151 213.296 52.3379C213.433 52.5247 213.536 52.7435 213.604 52.9941C213.677 53.2402 213.713 53.5023 213.713 53.7803C213.713 54.0719 213.677 54.3431 213.604 54.5938C213.531 54.8398 213.424 55.054 213.283 55.2363C213.141 55.4141 212.97 55.5553 212.77 55.6602C212.569 55.7604 212.342 55.8105 212.086 55.8105C211.854 55.8105 211.635 55.7581 211.43 55.6533C211.225 55.5485 211.045 55.3958 210.89 55.1953C210.735 54.9948 210.612 54.7441 210.521 54.4434C210.434 54.1426 210.391 53.7939 210.391 53.3975V52.8916C210.464 52.723 210.555 52.5703 210.664 52.4336C210.774 52.2969 210.897 52.1761 211.034 52.0713C211.184 51.9665 211.348 51.8844 211.526 51.8252C211.704 51.766 211.89 51.7363 212.086 51.7363Z" fill="#C7A5FA"/>
<g clip-path="url(#clip1_1619_5294)">
<rect x="200" y="83.5" width="15" height="15" stroke="#C7A5FA" stroke-dasharray="4 4"/>
</g>
<g clip-path="url(#clip2_1619_5294)">
<line x1="217" y1="119.501" x2="217" y2="104.501" stroke="#30C9B0"/>
</g>
<path d="M219.812 128.953H221.063V130.279H219.812V132.501H218.178V130.279H213.872L213.831 129.274L218.13 122.548H219.812V128.953ZM215.498 128.953H218.178V124.735L217.987 125.091L215.498 128.953Z" fill="#30C9B0"/>
<rect opacity="0.5" x="215.5" y="79" width="4" height="24" fill="#30C9B0"/>
<g clip-path="url(#clip3_1619_5294)">
<line x1="256.766" y1="119.501" x2="256.766" y2="104.501" stroke="#30C9B0"/>
<line x1="256.266" y1="112.001" x2="266.266" y2="112.001" stroke="#30C9B0"/>
<line x1="265.766" y1="119.501" x2="265.766" y2="104.501" stroke="#30C9B0"/>
</g>
<path d="M258.703 133H257.055V125.07L254.506 126.007V124.564L258.6 123.047H258.703V133ZM268.933 129.206C268.933 129.844 268.858 130.409 268.707 130.901C268.562 131.389 268.35 131.797 268.072 132.125C267.798 132.462 267.461 132.717 267.06 132.891C266.664 133.059 266.212 133.143 265.706 133.143C265.205 133.143 264.754 133.059 264.353 132.891C263.952 132.717 263.612 132.462 263.334 132.125C263.052 131.797 262.835 131.389 262.685 130.901C262.539 130.409 262.466 129.844 262.466 129.206V126.848C262.466 126.21 262.539 125.647 262.685 125.159C262.835 124.667 263.05 124.252 263.328 123.915C263.606 123.582 263.943 123.332 264.339 123.163C264.74 122.99 265.192 122.903 265.693 122.903C266.199 122.903 266.65 122.99 267.046 123.163C267.447 123.332 267.789 123.582 268.072 123.915C268.345 124.252 268.557 124.667 268.707 125.159C268.858 125.647 268.933 126.21 268.933 126.848V129.206ZM264.107 128.625L267.272 126.225C267.254 125.87 267.204 125.562 267.122 125.303C267.044 125.043 266.932 124.831 266.787 124.667C266.659 124.521 266.502 124.412 266.315 124.339C266.133 124.266 265.925 124.229 265.693 124.229C265.442 124.229 265.221 124.273 265.03 124.359C264.838 124.446 264.679 124.573 264.551 124.742C264.401 124.933 264.289 125.182 264.216 125.487C264.143 125.788 264.107 126.143 264.107 126.554V127.893C264.107 128.067 264.107 128.199 264.107 128.29C264.107 128.381 264.107 128.493 264.107 128.625ZM267.286 129.479V128.222C267.286 128.108 267.286 127.989 267.286 127.866C267.286 127.743 267.286 127.615 267.286 127.483L264.121 129.869C264.143 130.183 264.191 130.461 264.264 130.703C264.342 130.945 264.444 131.145 264.572 131.305C264.699 131.478 264.857 131.608 265.043 131.694C265.235 131.781 265.456 131.824 265.706 131.824C265.953 131.824 266.169 131.783 266.356 131.701C266.543 131.614 266.702 131.489 266.834 131.325C266.985 131.134 267.096 130.883 267.169 130.573C267.247 130.263 267.286 129.899 267.286 129.479Z" fill="#30C9B0"/>
<rect opacity="0.5" x="256.266" y="79" width="10" height="24" fill="#30C9B0"/>
<g clip-path="url(#clip4_1619_5294)">
<line x1="190" y1="119.501" x2="190" y2="104.501" stroke="#30C9B0"/>
<line x1="189.5" y1="112.001" x2="199.5" y2="112.001" stroke="#30C9B0"/>
<line x1="199" y1="119.501" x2="199" y2="104.501" stroke="#30C9B0"/>
</g>
<path d="M191.879 133H190.231V125.07L187.681 126.007V124.564L191.776 123.047H191.879V133ZM202.109 129.206C202.109 129.844 202.034 130.409 201.883 130.901C201.737 131.389 201.525 131.797 201.248 132.125C200.974 132.462 200.637 132.717 200.236 132.891C199.839 133.059 199.388 133.143 198.882 133.143C198.381 133.143 197.93 133.059 197.529 132.891C197.128 132.717 196.788 132.462 196.51 132.125C196.228 131.797 196.011 131.389 195.861 130.901C195.715 130.409 195.642 129.844 195.642 129.206V126.848C195.642 126.21 195.715 125.647 195.861 125.159C196.011 124.667 196.225 124.252 196.503 123.915C196.781 123.582 197.119 123.332 197.515 123.163C197.916 122.99 198.367 122.903 198.869 122.903C199.374 122.903 199.826 122.99 200.222 123.163C200.623 123.332 200.965 123.582 201.248 123.915C201.521 124.252 201.733 124.667 201.883 125.159C202.034 125.647 202.109 126.21 202.109 126.848V129.206ZM197.283 128.625L200.448 126.225C200.429 125.87 200.379 125.562 200.297 125.303C200.22 125.043 200.108 124.831 199.962 124.667C199.835 124.521 199.678 124.412 199.491 124.339C199.308 124.266 199.101 124.229 198.869 124.229C198.618 124.229 198.397 124.273 198.206 124.359C198.014 124.446 197.855 124.573 197.727 124.742C197.577 124.933 197.465 125.182 197.392 125.487C197.319 125.788 197.283 126.143 197.283 126.554V127.893C197.283 128.067 197.283 128.199 197.283 128.29C197.283 128.381 197.283 128.493 197.283 128.625ZM200.461 129.479V128.222C200.461 128.108 200.461 127.989 200.461 127.866C200.461 127.743 200.461 127.615 200.461 127.483L197.296 129.869C197.319 130.183 197.367 130.461 197.44 130.703C197.517 130.945 197.62 131.145 197.748 131.305C197.875 131.478 198.032 131.608 198.219 131.694C198.411 131.781 198.632 131.824 198.882 131.824C199.128 131.824 199.345 131.783 199.532 131.701C199.719 131.614 199.878 131.489 200.01 131.325C200.161 131.134 200.272 130.883 200.345 130.573C200.423 130.263 200.461 129.899 200.461 129.479Z" fill="#30C9B0"/>
<rect opacity="0.5" x="189.5" y="79" width="10" height="24" fill="#30C9B0"/>
<g clip-path="url(#clip5_1619_5294)">
<line x1="336" y1="116.501" x2="336" y2="101.501" stroke="#30C9B0"/>
<line x1="335.5" y1="109.001" x2="345.5" y2="109.001" stroke="#30C9B0"/>
<line x1="345" y1="116.501" x2="345" y2="101.501" stroke="#30C9B0"/>
</g>
<path d="M337.644 130H335.997V122.07L333.447 123.007V121.564L337.542 120.047H337.644V130ZM347.874 126.206C347.874 126.844 347.799 127.409 347.649 127.901C347.503 128.389 347.291 128.797 347.013 129.125C346.74 129.462 346.402 129.717 346.001 129.891C345.605 130.059 345.154 130.144 344.648 130.144C344.146 130.144 343.695 130.059 343.294 129.891C342.893 129.717 342.554 129.462 342.276 129.125C341.993 128.797 341.777 128.389 341.626 127.901C341.48 127.409 341.408 126.844 341.408 126.206V123.848C341.408 123.21 341.48 122.647 341.626 122.159C341.777 121.667 341.991 121.252 342.269 120.915C342.547 120.582 342.884 120.332 343.281 120.163C343.682 119.99 344.133 119.903 344.634 119.903C345.14 119.903 345.591 119.99 345.988 120.163C346.389 120.332 346.73 120.582 347.013 120.915C347.286 121.252 347.498 121.667 347.649 122.159C347.799 122.647 347.874 123.21 347.874 123.848V126.206ZM343.048 125.625L346.213 123.226C346.195 122.87 346.145 122.562 346.063 122.303C345.985 122.043 345.874 121.831 345.728 121.667C345.6 121.521 345.443 121.412 345.256 121.339C345.074 121.266 344.867 121.229 344.634 121.229C344.383 121.229 344.162 121.273 343.971 121.359C343.78 121.446 343.62 121.574 343.492 121.742C343.342 121.934 343.23 122.182 343.158 122.487C343.085 122.788 343.048 123.144 343.048 123.554V124.894C343.048 125.067 343.048 125.199 343.048 125.29C343.048 125.381 343.048 125.493 343.048 125.625ZM346.227 126.479V125.222C346.227 125.108 346.227 124.989 346.227 124.866C346.227 124.743 346.227 124.616 346.227 124.483L343.062 126.869C343.085 127.184 343.132 127.462 343.205 127.703C343.283 127.945 343.385 128.145 343.513 128.305C343.641 128.478 343.798 128.608 343.985 128.694C344.176 128.781 344.397 128.824 344.648 128.824C344.894 128.824 345.11 128.783 345.297 128.701C345.484 128.615 345.644 128.489 345.776 128.325C345.926 128.134 346.038 127.883 346.111 127.573C346.188 127.263 346.227 126.899 346.227 126.479Z" fill="#30C9B0"/>
<rect opacity="0.5" x="335.5" y="76" width="10" height="24" fill="#30C9B0"/>
<g clip-path="url(#clip6_1619_5294)">
<line x1="383" y1="116.501" x2="383" y2="101.501" stroke="#30C9B0"/>
<line x1="382.5" y1="109.001" x2="392.5" y2="109.001" stroke="#30C9B0"/>
<line x1="392" y1="116.501" x2="392" y2="101.501" stroke="#30C9B0"/>
</g>
<path d="M384.644 130H382.997V122.07L380.447 123.007V121.564L384.542 120.047H384.644V130ZM394.874 126.206C394.874 126.844 394.799 127.409 394.649 127.901C394.503 128.389 394.291 128.797 394.013 129.125C393.74 129.462 393.402 129.717 393.001 129.891C392.605 130.059 392.154 130.144 391.648 130.144C391.146 130.144 390.695 130.059 390.294 129.891C389.893 129.717 389.554 129.462 389.276 129.125C388.993 128.797 388.777 128.389 388.626 127.901C388.48 127.409 388.408 126.844 388.408 126.206V123.848C388.408 123.21 388.48 122.647 388.626 122.159C388.777 121.667 388.991 121.252 389.269 120.915C389.547 120.582 389.884 120.332 390.281 120.163C390.682 119.99 391.133 119.903 391.634 119.903C392.14 119.903 392.591 119.99 392.988 120.163C393.389 120.332 393.73 120.582 394.013 120.915C394.286 121.252 394.498 121.667 394.649 122.159C394.799 122.647 394.874 123.21 394.874 123.848V126.206ZM390.048 125.625L393.213 123.226C393.195 122.87 393.145 122.562 393.063 122.303C392.985 122.043 392.874 121.831 392.728 121.667C392.6 121.521 392.443 121.412 392.256 121.339C392.074 121.266 391.867 121.229 391.634 121.229C391.383 121.229 391.162 121.273 390.971 121.359C390.78 121.446 390.62 121.574 390.492 121.742C390.342 121.934 390.23 122.182 390.158 122.487C390.085 122.788 390.048 123.144 390.048 123.554V124.894C390.048 125.067 390.048 125.199 390.048 125.29C390.048 125.381 390.048 125.493 390.048 125.625ZM393.227 126.479V125.222C393.227 125.108 393.227 124.989 393.227 124.866C393.227 124.743 393.227 124.616 393.227 124.483L390.062 126.869C390.085 127.184 390.132 127.462 390.205 127.703C390.283 127.945 390.385 128.145 390.513 128.305C390.641 128.478 390.798 128.608 390.985 128.694C391.176 128.781 391.397 128.824 391.648 128.824C391.894 128.824 392.11 128.783 392.297 128.701C392.484 128.615 392.644 128.489 392.776 128.325C392.926 128.134 393.038 127.883 393.111 127.573C393.188 127.263 393.227 126.899 393.227 126.479Z" fill="#30C9B0"/>
<rect opacity="0.5" x="382.5" y="76" width="10" height="24" fill="#30C9B0"/>
<rect x="335.5" y="76" width="56" height="24" rx="4" fill="#262626"/>
<rect x="336" y="76.5" width="55" height="23" rx="3.5" stroke="white" stroke-opacity="0.5"/>
<path d="M346.768 93V82.8182H348.001V91.9062H352.734V93H346.768ZM356.731 93.179C356.247 93.179 355.808 93.0878 355.414 92.9055C355.019 92.7199 354.706 92.4531 354.474 92.1051C354.242 91.7538 354.126 91.3295 354.126 90.8324C354.126 90.3949 354.212 90.0402 354.385 89.7685C354.557 89.4934 354.787 89.2779 355.076 89.1222C355.364 88.9664 355.682 88.8504 356.03 88.7741C356.382 88.6946 356.734 88.6316 357.089 88.5852C357.553 88.5256 357.929 88.4808 358.218 88.451C358.509 88.4179 358.721 88.3632 358.854 88.2869C358.99 88.2107 359.058 88.0781 359.058 87.8892V87.8494C359.058 87.3589 358.924 86.9777 358.655 86.706C358.39 86.4342 357.987 86.2983 357.447 86.2983C356.887 86.2983 356.448 86.4209 356.13 86.6662C355.811 86.9115 355.588 87.1733 355.458 87.4517L354.345 87.054C354.544 86.59 354.809 86.2287 355.14 85.9702C355.475 85.7083 355.84 85.526 356.234 85.4233C356.632 85.3172 357.023 85.2642 357.407 85.2642C357.653 85.2642 357.934 85.294 358.252 85.3537C358.574 85.41 358.884 85.5277 359.182 85.7067C359.484 85.8857 359.734 86.1558 359.933 86.517C360.132 86.8783 360.231 87.3622 360.231 87.9688V93H359.058V91.9659H358.998C358.919 92.1316 358.786 92.3089 358.6 92.4979C358.415 92.6868 358.168 92.8475 357.86 92.9801C357.551 93.1127 357.175 93.179 356.731 93.179ZM356.91 92.125C357.374 92.125 357.765 92.0339 358.083 91.8516C358.405 91.6693 358.647 91.4339 358.809 91.1456C358.975 90.8572 359.058 90.554 359.058 90.2358V89.1619C359.008 89.2216 358.899 89.2763 358.73 89.326C358.564 89.3724 358.372 89.4138 358.153 89.4503C357.938 89.4834 357.727 89.5133 357.522 89.5398C357.319 89.563 357.155 89.5829 357.029 89.5994C356.725 89.6392 356.44 89.7038 356.174 89.7933C355.913 89.8795 355.7 90.0104 355.538 90.1861C355.379 90.3584 355.299 90.5937 355.299 90.892C355.299 91.2997 355.45 91.608 355.752 91.8168C356.057 92.0223 356.443 92.125 356.91 92.125ZM362.532 93V82.8182H363.705V86.5767H363.805C363.891 86.4441 364.01 86.2751 364.162 86.0696C364.318 85.8608 364.54 85.6752 364.829 85.5128C365.12 85.3471 365.515 85.2642 366.012 85.2642C366.655 85.2642 367.222 85.425 367.712 85.7464C368.203 86.0679 368.586 86.5237 368.861 87.1136C369.136 87.7036 369.273 88.3996 369.273 89.2017C369.273 90.0104 369.136 90.7114 368.861 91.3047C368.586 91.8946 368.204 92.352 367.717 92.6768C367.23 92.9983 366.668 93.1591 366.032 93.1591C365.541 93.1591 365.148 93.0779 364.854 92.9155C364.559 92.7498 364.331 92.5625 364.172 92.3537C364.013 92.1416 363.891 91.9659 363.805 91.8267H363.665V93H362.532ZM363.685 89.1818C363.685 89.7585 363.77 90.2673 363.939 90.7081C364.108 91.1456 364.355 91.4886 364.68 91.7372C365.004 91.9825 365.402 92.1051 365.873 92.1051C366.363 92.1051 366.773 91.9759 367.101 91.7173C367.432 91.4555 367.681 91.1042 367.846 90.6634C368.015 90.2192 368.1 89.7254 368.1 89.1818C368.1 88.6449 368.017 88.161 367.851 87.7301C367.689 87.2959 367.442 86.9529 367.111 86.701C366.782 86.4458 366.37 86.3182 365.873 86.3182C365.395 86.3182 364.994 86.4392 364.67 86.6811C364.345 86.9197 364.099 87.2545 363.934 87.6854C363.768 88.1129 363.685 88.6117 363.685 89.1818ZM374.27 93.1591C373.534 93.1591 372.899 92.9967 372.366 92.6719C371.835 92.3438 371.426 91.8864 371.138 91.2997C370.853 90.7098 370.71 90.0237 370.71 89.2415C370.71 88.4593 370.853 87.7699 371.138 87.1733C371.426 86.5734 371.827 86.1061 372.341 85.7713C372.858 85.4332 373.461 85.2642 374.15 85.2642C374.548 85.2642 374.941 85.3305 375.329 85.4631C375.716 85.5956 376.069 85.8111 376.388 86.1094C376.706 86.4044 376.959 86.7955 377.148 87.2827C377.337 87.7699 377.432 88.3698 377.432 89.0824V89.5795H371.545V88.5653H376.238C376.238 88.1345 376.152 87.75 375.98 87.4119C375.811 87.0739 375.569 86.8071 375.254 86.6115C374.943 86.416 374.575 86.3182 374.15 86.3182C373.683 86.3182 373.279 86.4342 372.937 86.6662C372.599 86.8949 372.339 87.1932 372.157 87.5611C371.974 87.929 371.883 88.3234 371.883 88.7443V89.4205C371.883 89.9972 371.983 90.486 372.182 90.8871C372.384 91.2848 372.664 91.5881 373.022 91.7969C373.38 92.0024 373.796 92.1051 374.27 92.1051C374.578 92.1051 374.856 92.062 375.105 91.9759C375.357 91.8864 375.574 91.7538 375.756 91.5781C375.939 91.3991 376.079 91.1771 376.179 90.9119L377.312 91.2301C377.193 91.6146 376.992 91.9527 376.711 92.2443C376.429 92.5327 376.081 92.758 375.667 92.9205C375.252 93.0795 374.787 93.1591 374.27 93.1591ZM380.39 82.8182V93H379.216V82.8182H380.39Z" fill="white" fill-opacity="0.95"/>
<defs>
<clipPath id="clip0_1619_5294">
<rect width="16" height="15" fill="white" transform="translate(199.5 64)"/>
</clipPath>
<clipPath id="clip1_1619_5294">
<rect width="16" height="16" fill="white" transform="translate(199.5 83)"/>
</clipPath>
<clipPath id="clip2_1619_5294">
<rect width="4" height="15" fill="white" transform="translate(215.5 104.501)"/>
</clipPath>
<clipPath id="clip3_1619_5294">
<rect width="10" height="15" fill="white" transform="translate(256.266 104.501)"/>
</clipPath>
<clipPath id="clip4_1619_5294">
<rect width="10" height="15" fill="white" transform="translate(189.5 104.501)"/>
</clipPath>
<clipPath id="clip5_1619_5294">
<rect width="10" height="15" fill="white" transform="translate(335.5 101.501)"/>
</clipPath>
<clipPath id="clip6_1619_5294">
<rect width="10" height="15" fill="white" transform="translate(382.5 101.501)"/>
</clipPath>
</defs>
</svg>
