<svg width="673" height="46" viewBox="0 0 673 46" fill="none" xmlns="http://www.w3.org/2000/svg">
<g filter="url(#filter0_ddd_1703_16050)">
<g clip-path="url(#clip0_1703_16050)">
<rect x="5" y="5" width="663" height="36" rx="8" fill="white" fill-opacity="0.01" shape-rendering="crispEdges"/>
<path d="M32.625 16.125H21.375C20.5465 16.126 19.7522 16.4555 19.1664 17.0414C18.5805 17.6272 18.251 18.4215 18.25 19.25V26.6149C18.2509 27.4793 18.5947 28.308 19.2059 28.9191C19.8171 29.5303 20.6458 29.8741 21.5101 29.875H32.4897C33.3541 29.8741 34.1828 29.5303 34.794 28.9191C35.4052 28.308 35.749 27.4793 35.75 26.6149V19.25C35.749 18.4215 35.4195 17.6272 34.8336 17.0414C34.2478 16.4555 33.4535 16.126 32.625 16.125ZM34.5 26.6151C34.4993 27.148 34.2873 27.6589 33.9104 28.0357C33.5336 28.4125 33.0227 28.6244 32.4897 28.625H21.5101C20.9772 28.6245 20.4662 28.4126 20.0893 28.0357C19.7124 27.6589 19.5005 27.1479 19.5 26.6149V19.25C19.5005 18.7529 19.6983 18.2763 20.0498 17.9248C20.4013 17.5733 20.8779 17.3755 21.375 17.375H32.625C33.1221 17.3755 33.5987 17.5733 33.9502 17.9248C34.3017 18.2763 34.4995 18.7529 34.5 19.25V26.6151Z" fill="white" fill-opacity="0.95"/>
<path d="M27.4421 20.0579C27.3249 19.9407 27.166 19.8749 27.0002 19.8749C26.8345 19.8749 26.6755 19.9407 26.5583 20.0579L24.0583 22.5579C23.944 22.6757 23.8807 22.8338 23.882 22.9979C23.8832 23.162 23.949 23.319 24.065 23.435C24.1811 23.5511 24.3381 23.6168 24.5022 23.6181C24.6663 23.6193 24.8243 23.556 24.9421 23.4417L26.375 22.0086V25.5004C26.375 25.6662 26.4408 25.8252 26.5581 25.9424C26.6753 26.0596 26.8342 26.1254 27 26.1254C27.1658 26.1254 27.3247 26.0596 27.4419 25.9424C27.5592 25.8252 27.625 25.6662 27.625 25.5004V22.0086L29.0581 23.4417C29.1759 23.556 29.3339 23.6193 29.498 23.6181C29.6621 23.6168 29.8191 23.5511 29.9352 23.435C30.0512 23.319 30.117 23.162 30.1182 22.9979C30.1195 22.8338 30.0561 22.6757 29.9419 22.5579L27.4421 20.0579Z" fill="white" fill-opacity="0.95"/>
<path d="M55.8011 20.3636C55.7415 19.8598 55.4995 19.4688 55.0753 19.1903C54.651 18.9119 54.1307 18.7727 53.5142 18.7727C53.0634 18.7727 52.669 18.8456 52.331 18.9915C51.9962 19.1373 51.7344 19.3378 51.5455 19.593C51.3598 19.8482 51.267 20.1383 51.267 20.4631C51.267 20.7348 51.3317 20.9685 51.4609 21.1641C51.5935 21.3563 51.7625 21.517 51.968 21.6463C52.1735 21.7723 52.389 21.8767 52.6143 21.9595C52.8397 22.0391 53.0469 22.1037 53.2358 22.1534L54.2699 22.4318C54.535 22.5014 54.83 22.5975 55.1548 22.7202C55.483 22.8428 55.7962 23.0102 56.0945 23.2223C56.3961 23.4311 56.6446 23.6996 56.8402 24.0277C57.0357 24.3558 57.1335 24.7585 57.1335 25.2358C57.1335 25.786 56.9893 26.2831 56.701 26.7273C56.416 27.1714 55.9983 27.5244 55.4482 27.7862C54.9013 28.0481 54.2367 28.179 53.4545 28.179C52.7254 28.179 52.094 28.0613 51.5604 27.826C51.0301 27.5907 50.6125 27.2625 50.3075 26.8416C50.0059 26.4207 49.8352 25.9318 49.7955 25.375H51.0682C51.1013 25.7595 51.2306 26.0777 51.456 26.3295C51.6847 26.5781 51.973 26.7637 52.321 26.8864C52.6723 27.0057 53.0502 27.0653 53.4545 27.0653C53.9252 27.0653 54.3478 26.9891 54.7223 26.8366C55.0968 26.6809 55.3935 26.4654 55.6122 26.1903C55.831 25.9119 55.9403 25.5871 55.9403 25.2159C55.9403 24.8778 55.8459 24.6027 55.657 24.3906C55.468 24.1785 55.2195 24.0062 54.9112 23.8736C54.603 23.741 54.2699 23.625 53.9119 23.5256L52.6591 23.1676C51.8636 22.9389 51.2339 22.6125 50.7699 22.1882C50.3059 21.764 50.0739 21.2088 50.0739 20.5227C50.0739 19.9527 50.228 19.4555 50.5362 19.0312C50.8478 18.6037 51.2654 18.2723 51.7891 18.0369C52.3161 17.7983 52.9044 17.679 53.554 17.679C54.2102 17.679 54.7936 17.7966 55.304 18.032C55.8144 18.264 56.2188 18.5821 56.517 18.9865C56.8187 19.3909 56.9777 19.8499 56.9943 20.3636H55.8011ZM62.1039 28.1591C61.388 28.1591 60.7715 27.9901 60.2544 27.652C59.7374 27.3139 59.3397 26.8482 59.0613 26.255C58.7828 25.6617 58.6436 24.9839 58.6436 24.2216C58.6436 23.446 58.7862 22.7616 59.0712 22.1683C59.3596 21.5717 59.7606 21.1061 60.2743 20.7713C60.7914 20.4332 61.3946 20.2642 62.084 20.2642C62.6209 20.2642 63.1048 20.3636 63.5357 20.5625C63.9666 20.7614 64.3195 21.0398 64.5946 21.3977C64.8697 21.7557 65.0404 22.1733 65.1067 22.6506H63.9334C63.8439 22.3026 63.6451 21.9943 63.3368 21.7259C63.0319 21.4541 62.6209 21.3182 62.1039 21.3182C61.6465 21.3182 61.2454 21.4375 60.9007 21.6761C60.5594 21.9115 60.2926 22.2446 60.1003 22.6754C59.9114 23.103 59.8169 23.6051 59.8169 24.1818C59.8169 24.7718 59.9097 25.2855 60.0953 25.723C60.2843 26.1605 60.5494 26.5002 60.8908 26.7422C61.2355 26.9841 61.6399 27.1051 62.1039 27.1051C62.4088 27.1051 62.6855 27.0521 62.9341 26.946C63.1827 26.84 63.3932 26.6875 63.5655 26.4886C63.7379 26.2898 63.8605 26.0511 63.9334 25.7727H65.1067C65.0404 26.2235 64.8764 26.6295 64.6145 26.9908C64.356 27.3487 64.013 27.6338 63.5854 27.8459C63.1612 28.0547 62.6673 28.1591 62.1039 28.1591ZM66.8219 28V20.3636H67.9554V21.517H68.035C68.1742 21.1392 68.4261 20.8326 68.7907 20.5973C69.1552 20.362 69.5662 20.2443 70.0236 20.2443C70.1098 20.2443 70.2175 20.246 70.3468 20.2493C70.476 20.2526 70.5738 20.2576 70.6401 20.2642V21.4574C70.6003 21.4474 70.5092 21.4325 70.3667 21.4126C70.2275 21.3894 70.08 21.3778 69.9242 21.3778C69.553 21.3778 69.2215 21.4557 68.9299 21.6115C68.6415 21.764 68.4128 21.9761 68.2438 22.2479C68.0781 22.5163 67.9952 22.8229 67.9952 23.1676V28H66.8219ZM75.0002 28.1591C74.2644 28.1591 73.6297 27.9967 73.0961 27.6719C72.5658 27.3438 72.1564 26.8864 71.8681 26.2997C71.583 25.7098 71.4405 25.0237 71.4405 24.2415C71.4405 23.4593 71.583 22.7699 71.8681 22.1733C72.1564 21.5734 72.5575 21.1061 73.0712 20.7713C73.5882 20.4332 74.1915 20.2642 74.8809 20.2642C75.2786 20.2642 75.6713 20.3305 76.0591 20.4631C76.4469 20.5956 76.7999 20.8111 77.1181 21.1094C77.4363 21.4044 77.6898 21.7955 77.8787 22.2827C78.0676 22.7699 78.1621 23.3698 78.1621 24.0824V24.5795H72.2757V23.5653H76.9689C76.9689 23.1345 76.8828 22.75 76.7104 22.4119C76.5414 22.0739 76.2994 21.8071 75.9846 21.6115C75.673 21.416 75.3051 21.3182 74.8809 21.3182C74.4135 21.3182 74.0092 21.4342 73.6678 21.6662C73.3297 21.8949 73.0695 22.1932 72.8873 22.5611C72.705 22.929 72.6138 23.3234 72.6138 23.7443V24.4205C72.6138 24.9972 72.7132 25.486 72.9121 25.8871C73.1143 26.2848 73.3944 26.5881 73.7523 26.7969C74.1103 27.0024 74.5262 27.1051 75.0002 27.1051C75.3084 27.1051 75.5868 27.062 75.8354 26.9759C76.0873 26.8864 76.3044 26.7538 76.4867 26.5781C76.669 26.3991 76.8098 26.1771 76.9093 25.9119L78.0428 26.2301C77.9235 26.6146 77.723 26.9527 77.4412 27.2443C77.1595 27.5327 76.8115 27.758 76.3972 27.9205C75.9829 28.0795 75.5172 28.1591 75.0002 28.1591ZM83.1486 28.1591C82.4128 28.1591 81.7781 27.9967 81.2445 27.6719C80.7142 27.3438 80.3049 26.8864 80.0165 26.2997C79.7315 25.7098 79.589 25.0237 79.589 24.2415C79.589 23.4593 79.7315 22.7699 80.0165 22.1733C80.3049 21.5734 80.7059 21.1061 81.2196 20.7713C81.7367 20.4332 82.3399 20.2642 83.0293 20.2642C83.427 20.2642 83.8198 20.3305 84.2076 20.4631C84.5953 20.5956 84.9483 20.8111 85.2665 21.1094C85.5847 21.4044 85.8382 21.7955 86.0272 22.2827C86.2161 22.7699 86.3105 23.3698 86.3105 24.0824V24.5795H80.4242V23.5653H85.1174C85.1174 23.1345 85.0312 22.75 84.8588 22.4119C84.6898 22.0739 84.4479 21.8071 84.133 21.6115C83.8214 21.416 83.4535 21.3182 83.0293 21.3182C82.562 21.3182 82.1576 21.4342 81.8162 21.6662C81.4782 21.8949 81.218 22.1932 81.0357 22.5611C80.8534 22.929 80.7623 23.3234 80.7623 23.7443V24.4205C80.7623 24.9972 80.8617 25.486 81.0605 25.8871C81.2627 26.2848 81.5428 26.5881 81.9007 26.7969C82.2587 27.0024 82.6747 27.1051 83.1486 27.1051C83.4569 27.1051 83.7353 27.062 83.9838 26.9759C84.2357 26.8864 84.4528 26.7538 84.6351 26.5781C84.8174 26.3991 84.9583 26.1771 85.0577 25.9119L86.1912 26.2301C86.0719 26.6146 85.8714 26.9527 85.5897 27.2443C85.3079 27.5327 84.9599 27.758 84.5456 27.9205C84.1313 28.0795 83.6657 28.1591 83.1486 28.1591ZM89.2686 23.4062V28H88.0953V20.3636H89.2289V21.5568H89.3283C89.5073 21.169 89.7791 20.8575 90.1436 20.6222C90.5082 20.3835 90.9789 20.2642 91.5556 20.2642C92.0726 20.2642 92.525 20.3703 92.9128 20.5824C93.3006 20.7912 93.6022 21.1094 93.8176 21.5369C94.0331 21.9612 94.1408 22.4981 94.1408 23.1477V28H92.9675V23.2273C92.9675 22.6274 92.8117 22.16 92.5002 21.8253C92.1886 21.4872 91.7611 21.3182 91.2175 21.3182C90.843 21.3182 90.5082 21.3994 90.2132 21.5618C89.9216 21.7242 89.6912 21.9612 89.5222 22.2727C89.3532 22.5843 89.2686 22.9621 89.2686 23.4062ZM105.631 22.0739L104.577 22.3722C104.511 22.1965 104.413 22.0258 104.284 21.8601C104.158 21.6911 103.986 21.5518 103.767 21.4425C103.548 21.3331 103.268 21.2784 102.927 21.2784C102.46 21.2784 102.07 21.3861 101.759 21.6016C101.45 21.8137 101.296 22.0838 101.296 22.4119C101.296 22.7036 101.402 22.9339 101.614 23.103C101.826 23.272 102.158 23.4129 102.609 23.5256L103.742 23.804C104.425 23.9697 104.934 24.2232 105.268 24.5646C105.603 24.9027 105.771 25.3385 105.771 25.8722C105.771 26.3097 105.645 26.7008 105.393 27.0455C105.144 27.3902 104.796 27.6619 104.349 27.8608C103.901 28.0597 103.381 28.1591 102.788 28.1591C102.009 28.1591 101.364 27.9901 100.854 27.652C100.343 27.3139 100.02 26.8201 99.8842 26.1705L100.998 25.892C101.104 26.303 101.304 26.6113 101.599 26.8168C101.898 27.0223 102.287 27.125 102.768 27.125C103.315 27.125 103.749 27.009 104.07 26.777C104.395 26.5417 104.558 26.2599 104.558 25.9318C104.558 25.6667 104.465 25.4446 104.279 25.2656C104.094 25.0833 103.808 24.9474 103.424 24.858L102.151 24.5597C101.452 24.3939 100.938 24.1371 100.61 23.7891C100.285 23.4377 100.123 22.9986 100.123 22.4716C100.123 22.0407 100.244 21.6596 100.486 21.3281C100.731 20.9967 101.064 20.7365 101.485 20.5476C101.909 20.3587 102.39 20.2642 102.927 20.2642C103.683 20.2642 104.276 20.4299 104.707 20.7614C105.141 21.0928 105.449 21.5303 105.631 22.0739ZM108.71 23.4062V28H107.537V17.8182H108.71V21.5568H108.809C108.988 21.1624 109.257 20.8492 109.615 20.6172C109.976 20.3819 110.457 20.2642 111.057 20.2642C111.577 20.2642 112.033 20.3686 112.424 20.5774C112.815 20.7829 113.118 21.0994 113.334 21.527C113.552 21.9512 113.662 22.4915 113.662 23.1477V28H112.488V23.2273C112.488 22.6207 112.331 22.1518 112.016 21.8203C111.705 21.4856 111.272 21.3182 110.719 21.3182C110.334 21.3182 109.989 21.3994 109.684 21.5618C109.383 21.7242 109.144 21.9612 108.969 22.2727C108.796 22.5843 108.71 22.9621 108.71 23.4062ZM118.055 28.179C117.571 28.179 117.132 28.0878 116.738 27.9055C116.344 27.7199 116.03 27.4531 115.798 27.1051C115.566 26.7538 115.45 26.3295 115.45 25.8324C115.45 25.3949 115.536 25.0402 115.709 24.7685C115.881 24.4934 116.112 24.2779 116.4 24.1222C116.688 23.9664 117.006 23.8504 117.354 23.7741C117.706 23.6946 118.059 23.6316 118.413 23.5852C118.877 23.5256 119.254 23.4808 119.542 23.451C119.834 23.4179 120.046 23.3632 120.178 23.2869C120.314 23.2107 120.382 23.0781 120.382 22.8892V22.8494C120.382 22.3589 120.248 21.9777 119.979 21.706C119.714 21.4342 119.312 21.2983 118.771 21.2983C118.211 21.2983 117.772 21.4209 117.454 21.6662C117.136 21.9115 116.912 22.1733 116.783 22.4517L115.669 22.054C115.868 21.59 116.133 21.2287 116.464 20.9702C116.799 20.7083 117.164 20.526 117.558 20.4233C117.956 20.3172 118.347 20.2642 118.732 20.2642C118.977 20.2642 119.259 20.294 119.577 20.3537C119.898 20.41 120.208 20.5277 120.506 20.7067C120.808 20.8857 121.058 21.1558 121.257 21.517C121.456 21.8783 121.555 22.3622 121.555 22.9688V28H120.382V26.9659H120.322C120.243 27.1316 120.11 27.3089 119.925 27.4979C119.739 27.6868 119.492 27.8475 119.184 27.9801C118.876 28.1127 118.5 28.179 118.055 28.179ZM118.234 27.125C118.698 27.125 119.089 27.0339 119.408 26.8516C119.729 26.6693 119.971 26.4339 120.134 26.1456C120.299 25.8572 120.382 25.554 120.382 25.2358V24.1619C120.332 24.2216 120.223 24.2763 120.054 24.326C119.888 24.3724 119.696 24.4138 119.477 24.4503C119.262 24.4834 119.051 24.5133 118.846 24.5398C118.644 24.563 118.48 24.5829 118.354 24.5994C118.049 24.6392 117.764 24.7038 117.499 24.7933C117.237 24.8795 117.025 25.0104 116.862 25.1861C116.703 25.3584 116.624 25.5937 116.624 25.892C116.624 26.2997 116.774 26.608 117.076 26.8168C117.381 27.0223 117.767 27.125 118.234 27.125ZM123.697 28V20.3636H124.83V21.517H124.91C125.049 21.1392 125.301 20.8326 125.666 20.5973C126.03 20.362 126.441 20.2443 126.899 20.2443C126.985 20.2443 127.093 20.246 127.222 20.2493C127.351 20.2526 127.449 20.2576 127.515 20.2642V21.4574C127.475 21.4474 127.384 21.4325 127.242 21.4126C127.102 21.3894 126.955 21.3778 126.799 21.3778C126.428 21.3778 126.097 21.4557 125.805 21.6115C125.517 21.764 125.288 21.9761 125.119 22.2479C124.953 22.5163 124.87 22.8229 124.87 23.1676V28H123.697ZM128.906 28V20.3636H130.079V28H128.906ZM129.502 19.0909C129.274 19.0909 129.077 19.013 128.911 18.8572C128.748 18.7015 128.667 18.5142 128.667 18.2955C128.667 18.0767 128.748 17.8894 128.911 17.7337C129.077 17.5779 129.274 17.5 129.502 17.5C129.731 17.5 129.927 17.5779 130.089 17.7337C130.255 17.8894 130.338 18.0767 130.338 18.2955C130.338 18.5142 130.255 18.7015 130.089 18.8572C129.927 19.013 129.731 19.0909 129.502 19.0909ZM133.401 23.4062V28H132.228V20.3636H133.362V21.5568H133.461C133.64 21.169 133.912 20.8575 134.276 20.6222C134.641 20.3835 135.112 20.2642 135.688 20.2642C136.205 20.2642 136.658 20.3703 137.046 20.5824C137.433 20.7912 137.735 21.1094 137.95 21.5369C138.166 21.9612 138.274 22.4981 138.274 23.1477V28H137.1V23.2273C137.1 22.6274 136.945 22.16 136.633 21.8253C136.321 21.4872 135.894 21.3182 135.35 21.3182C134.976 21.3182 134.641 21.3994 134.346 21.5618C134.054 21.7242 133.824 21.9612 133.655 22.2727C133.486 22.5843 133.401 22.9621 133.401 23.4062ZM143.5 31.0227C142.933 31.0227 142.446 30.9498 142.038 30.804C141.631 30.6615 141.291 30.4725 141.019 30.2372C140.751 30.0052 140.537 29.7566 140.378 29.4915L141.312 28.8352C141.419 28.9744 141.553 29.1335 141.715 29.3125C141.878 29.4948 142.1 29.6522 142.381 29.7848C142.666 29.9207 143.039 29.9886 143.5 29.9886C144.116 29.9886 144.625 29.8395 145.026 29.5412C145.427 29.2429 145.628 28.7756 145.628 28.1392V26.5881H145.528C145.442 26.7273 145.32 26.8996 145.161 27.1051C145.005 27.3073 144.779 27.4879 144.484 27.647C144.193 27.8028 143.798 27.8807 143.301 27.8807C142.685 27.8807 142.131 27.7348 141.641 27.4432C141.153 27.1515 140.767 26.7273 140.482 26.1705C140.201 25.6136 140.06 24.9375 140.06 24.142C140.06 23.3598 140.197 22.6787 140.472 22.0987C140.747 21.5154 141.13 21.0646 141.621 20.7464C142.111 20.425 142.678 20.2642 143.321 20.2642C143.818 20.2642 144.213 20.3471 144.504 20.5128C144.799 20.6752 145.025 20.8608 145.18 21.0696C145.339 21.2751 145.462 21.4441 145.548 21.5767H145.668V20.3636H146.801V28.2188C146.801 28.875 146.652 29.4086 146.354 29.8196C146.059 30.2339 145.661 30.5372 145.161 30.7294C144.663 30.925 144.11 31.0227 143.5 31.0227ZM143.46 26.8267C143.931 26.8267 144.329 26.719 144.653 26.5036C144.978 26.2881 145.225 25.9782 145.394 25.5739C145.563 25.1695 145.648 24.6856 145.648 24.1222C145.648 23.572 145.565 23.0864 145.399 22.6655C145.233 22.2446 144.988 21.9148 144.663 21.6761C144.339 21.4375 143.938 21.3182 143.46 21.3182C142.963 21.3182 142.549 21.4441 142.217 21.696C141.889 21.9479 141.642 22.286 141.477 22.7102C141.314 23.1345 141.233 23.6051 141.233 24.1222C141.233 24.6525 141.316 25.1214 141.482 25.5291C141.651 25.9335 141.899 26.2517 142.227 26.4837C142.559 26.7124 142.97 26.8267 143.46 26.8267Z" fill="white" fill-opacity="0.95"/>
</g>
</g>
<defs>
<filter id="filter0_ddd_1703_16050" x="0" y="0" width="673" height="46" filterUnits="userSpaceOnUse" color-interpolation-filters="sRGB">
<feFlood flood-opacity="0" result="BackgroundImageFix"/>
<feColorMatrix in="SourceAlpha" type="matrix" values="0 0 0 0 0 0 0 0 0 0 0 0 0 0 0 0 0 0 127 0" result="hardAlpha"/>
<feMorphology radius="4" operator="dilate" in="SourceAlpha" result="effect1_dropShadow_1703_16050"/>
<feOffset/>
<feComposite in2="hardAlpha" operator="out"/>
<feColorMatrix type="matrix" values="0 0 0 0 0.392157 0 0 0 0 0.705882 0 0 0 0 0.980392 0 0 0 1 0"/>
<feBlend mode="normal" in2="BackgroundImageFix" result="effect1_dropShadow_1703_16050"/>
<feColorMatrix in="SourceAlpha" type="matrix" values="0 0 0 0 0 0 0 0 0 0 0 0 0 0 0 0 0 0 127 0" result="hardAlpha"/>
<feMorphology radius="5" operator="dilate" in="SourceAlpha" result="effect2_dropShadow_1703_16050"/>
<feOffset/>
<feComposite in2="hardAlpha" operator="out"/>
<feColorMatrix type="matrix" values="0 0 0 0 0.392157 0 0 0 0 0.705882 0 0 0 0 0.980392 0 0 0 0.3 0"/>
<feBlend mode="normal" in2="effect1_dropShadow_1703_16050" result="effect2_dropShadow_1703_16050"/>
<feColorMatrix in="SourceAlpha" type="matrix" values="0 0 0 0 0 0 0 0 0 0 0 0 0 0 0 0 0 0 127 0" result="hardAlpha"/>
<feMorphology radius="2" operator="dilate" in="SourceAlpha" result="effect3_dropShadow_1703_16050"/>
<feOffset/>
<feComposite in2="hardAlpha" operator="out"/>
<feColorMatrix type="matrix" values="0 0 0 0 0 0 0 0 0 0 0 0 0 0 0 0 0 0 1 0"/>
<feBlend mode="normal" in2="effect2_dropShadow_1703_16050" result="effect3_dropShadow_1703_16050"/>
<feBlend mode="normal" in="SourceGraphic" in2="effect3_dropShadow_1703_16050" result="shape"/>
</filter>
<clipPath id="clip0_1703_16050">
<rect x="5" y="5" width="663" height="36" rx="8" fill="white"/>
</clipPath>
</defs>
</svg>
