<svg width="1150" height="212" viewBox="0 0 1150 212" fill="none" xmlns="http://www.w3.org/2000/svg">
<rect width="1150" height="212" rx="20" fill="#262626"/>
<rect x="80" y="80" width="990" height="52" rx="8" fill="white" fill-opacity="0.07"/>
<rect x="92" y="98" width="16" height="16" rx="4" fill="#3B1840"/>
<g clip-path="url(#clip0_1703_15897)">
<path d="M104.875 105.625C104.826 105.625 104.777 105.635 104.731 105.653C104.686 105.672 104.645 105.7 104.61 105.735C104.575 105.77 104.547 105.811 104.528 105.856C104.51 105.902 104.5 105.951 104.5 106C104.5 107.041 104.139 108.05 103.478 108.855C102.818 109.659 101.899 110.21 100.878 110.413C99.8567 110.617 98.7968 110.459 97.8786 109.969C96.9605 109.478 96.2409 108.684 95.8425 107.722C95.4441 106.76 95.3915 105.69 95.6937 104.694C95.9959 103.697 96.6343 102.837 97.4999 102.258C98.3656 101.68 99.405 101.42 100.441 101.522C101.477 101.624 102.446 102.082 103.182 102.818C103.239 102.875 103.292 102.939 103.346 103H101.875C101.775 103 101.68 103.039 101.61 103.11C101.539 103.18 101.5 103.275 101.5 103.375C101.5 103.474 101.539 103.57 101.61 103.64C101.68 103.71 101.775 103.75 101.875 103.75H104.125C104.174 103.75 104.223 103.74 104.268 103.721C104.314 103.703 104.355 103.675 104.39 103.64C104.425 103.605 104.453 103.564 104.471 103.518C104.49 103.473 104.5 103.424 104.5 103.375V101.125C104.5 101.025 104.46 100.93 104.39 100.86C104.32 100.789 104.224 100.75 104.125 100.75C104.025 100.75 103.93 100.789 103.86 100.86C103.789 100.93 103.75 101.025 103.75 101.125V102.329C103.737 102.316 103.725 102.301 103.712 102.288C102.853 101.429 101.723 100.894 100.515 100.775C99.3058 100.656 98.0932 100.96 97.0834 101.635C96.0735 102.31 95.3288 103.314 94.9763 104.476C94.6237 105.638 94.6851 106.887 95.1499 108.009C95.6147 109.131 96.4542 110.057 97.5254 110.63C98.5965 111.202 99.8331 111.386 101.024 111.149C102.216 110.912 103.288 110.269 104.058 109.33C104.829 108.392 105.25 107.215 105.25 106C105.25 105.951 105.24 105.902 105.221 105.856C105.203 105.811 105.175 105.77 105.14 105.735C105.105 105.7 105.064 105.672 105.018 105.653C104.973 105.635 104.924 105.625 104.875 105.625Z" fill="#F294F1"/>
</g>
<rect x="120" y="90" width="32" height="32" rx="4" fill="#3B1840"/>
<path d="M138.687 105.376C139.12 105.376 139.543 105.247 139.903 105.007C140.262 104.767 140.543 104.425 140.708 104.025C140.874 103.626 140.917 103.186 140.833 102.761C140.748 102.337 140.54 101.947 140.234 101.641C139.928 101.335 139.538 101.127 139.114 101.043C138.69 100.958 138.25 101.002 137.85 101.167C137.45 101.333 137.109 101.613 136.868 101.973C136.628 102.333 136.5 102.755 136.5 103.188C136.5 103.768 136.731 104.324 137.141 104.734C137.551 105.144 138.107 105.375 138.687 105.376ZM138.687 102.251C138.873 102.251 139.054 102.306 139.208 102.409C139.362 102.512 139.482 102.658 139.553 102.829C139.624 103.001 139.643 103.189 139.607 103.371C139.571 103.553 139.481 103.72 139.35 103.851C139.219 103.982 139.052 104.071 138.87 104.108C138.688 104.144 138.5 104.125 138.328 104.054C138.157 103.983 138.011 103.863 137.908 103.709C137.805 103.555 137.75 103.374 137.75 103.188C137.75 102.94 137.849 102.701 138.025 102.526C138.2 102.35 138.439 102.251 138.687 102.251Z" fill="#F294F1"/>
<path d="M140.875 97.25H132.125C131.296 97.251 130.502 97.5805 129.916 98.1664C129.33 98.7522 129.001 99.5465 129 100.375V111.625C129.001 112.454 129.33 113.248 129.916 113.834C130.502 114.419 131.296 114.749 132.125 114.75H140.875C141.703 114.749 142.498 114.419 143.083 113.834C143.669 113.248 143.999 112.454 144 111.625V100.375C143.999 99.5465 143.669 98.7522 143.083 98.1664C142.498 97.5805 141.703 97.251 140.875 97.25ZM132.125 98.5H140.875C141.372 98.5005 141.848 98.6983 142.2 99.0498C142.551 99.4013 142.749 99.8779 142.75 100.375V111.625C142.749 112.023 142.62 112.41 142.382 112.729L137.443 107.038C137.136 106.697 136.758 106.427 136.335 106.248C135.912 106.069 135.456 105.986 134.997 106.004C134.538 106.021 134.089 106.14 133.681 106.351C133.274 106.562 132.918 106.86 132.638 107.224L130.25 110.303V100.375C130.25 99.8779 130.448 99.4013 130.8 99.0498C131.151 98.6983 131.628 98.5005 132.125 98.5ZM132.125 113.5C131.731 113.499 131.348 113.373 131.03 113.142C130.712 112.91 130.475 112.584 130.352 112.21L133.628 107.987C133.795 107.768 134.009 107.588 134.254 107.461C134.499 107.334 134.768 107.263 135.044 107.252C135.318 107.239 135.591 107.287 135.844 107.393C136.097 107.499 136.323 107.661 136.506 107.865L141.34 113.435C141.188 113.476 141.032 113.498 140.875 113.5H132.125Z" fill="#F294F1"/>
<path d="M179.281 110.397C180.307 109.162 180.868 107.606 180.868 106C180.868 104.394 180.307 102.839 179.281 101.603L182.567 98.3169C182.626 98.2591 182.673 98.1902 182.706 98.114C182.738 98.0379 182.755 97.9561 182.756 97.8733C182.756 97.7906 182.74 97.7086 182.709 97.632C182.677 97.5555 182.631 97.486 182.573 97.4274C182.514 97.3689 182.444 97.3226 182.368 97.2912C182.291 97.2598 182.209 97.2439 182.127 97.2444C182.044 97.2449 181.962 97.2619 181.886 97.2943C181.81 97.3266 181.741 97.3738 181.683 97.4331L178.398 100.718C177.164 99.6889 175.607 99.1251 174 99.1251C172.393 99.1251 170.836 99.6889 169.602 100.718L166.317 97.4331C166.199 97.3183 166.041 97.2546 165.877 97.2556C165.712 97.2566 165.555 97.3224 165.439 97.4386C165.322 97.5549 165.257 97.7122 165.256 97.8766C165.255 98.041 165.318 98.1992 165.433 98.3169L168.719 101.603C167.693 102.838 167.131 104.394 167.131 106C167.131 107.606 167.693 109.162 168.719 110.397L165.433 113.683C165.374 113.741 165.327 113.81 165.294 113.886C165.262 113.962 165.245 114.044 165.244 114.127C165.244 114.209 165.26 114.291 165.291 114.368C165.323 114.444 165.369 114.514 165.427 114.573C165.486 114.631 165.555 114.677 165.632 114.709C165.709 114.74 165.791 114.756 165.873 114.756C165.956 114.755 166.038 114.738 166.114 114.706C166.19 114.673 166.259 114.626 166.317 114.567L169.602 111.282C170.836 112.311 172.393 112.875 174 112.875C175.607 112.875 177.164 112.311 178.398 111.282L181.683 114.567C181.801 114.682 181.959 114.745 182.123 114.744C182.288 114.743 182.445 114.678 182.561 114.561C182.678 114.445 182.743 114.288 182.744 114.123C182.745 113.959 182.682 113.801 182.567 113.683L179.281 110.397ZM178.393 109.51L174.884 106L178.393 102.49C179.188 103.488 179.62 104.725 179.62 106C179.62 107.275 179.188 108.512 178.393 109.51ZM174 100.375C175.276 100.372 176.515 100.807 177.51 101.607L174 105.116L170.49 101.607C171.485 100.807 172.724 100.372 174 100.375ZM169.606 102.49L173.116 106L169.606 109.51C168.812 108.512 168.379 107.275 168.379 106C168.379 104.725 168.812 103.488 169.606 102.49ZM174 111.625C172.724 111.628 171.485 111.193 170.49 110.393L174 106.884L177.51 110.393C176.515 111.193 175.276 111.628 174 111.625Z" fill="white" fill-opacity="0.95"/>
<path d="M197.233 103V92.8182H200.673C201.472 92.8182 202.125 92.9624 202.632 93.2507C203.143 93.5357 203.52 93.9219 203.766 94.4091C204.011 94.8963 204.134 95.4399 204.134 96.0398C204.134 96.6397 204.011 97.1849 203.766 97.6754C203.524 98.166 203.149 98.5571 202.642 98.8487C202.135 99.1371 201.485 99.2812 200.693 99.2812H198.227V98.1875H200.653C201.2 98.1875 201.639 98.093 201.971 97.9041C202.302 97.7152 202.543 97.46 202.692 97.1385C202.844 96.8137 202.92 96.4474 202.92 96.0398C202.92 95.6321 202.844 95.2675 202.692 94.946C202.543 94.6245 202.301 94.3726 201.966 94.1903C201.631 94.0047 201.187 93.9119 200.634 93.9119H198.466V103H197.233ZM205.961 103V95.3636H207.094V96.517H207.174C207.313 96.1392 207.565 95.8326 207.929 95.5973C208.294 95.362 208.705 95.2443 209.162 95.2443C209.248 95.2443 209.356 95.246 209.485 95.2493C209.615 95.2526 209.712 95.2576 209.779 95.2642V96.4574C209.739 96.4474 209.648 96.4325 209.505 96.4126C209.366 96.3894 209.219 96.3778 209.063 96.3778C208.692 96.3778 208.36 96.4557 208.069 96.6115C207.78 96.764 207.551 96.9761 207.382 97.2479C207.217 97.5163 207.134 97.8229 207.134 98.1676V103H205.961ZM211.17 103V95.3636H212.343V103H211.17ZM211.766 94.0909C211.537 94.0909 211.34 94.013 211.175 93.8572C211.012 93.7015 210.931 93.5142 210.931 93.2955C210.931 93.0767 211.012 92.8894 211.175 92.7337C211.34 92.5779 211.537 92.5 211.766 92.5C211.995 92.5 212.19 92.5779 212.353 92.7337C212.519 92.8894 212.601 93.0767 212.601 93.2955C212.601 93.5142 212.519 93.7015 212.353 93.8572C212.19 94.013 211.995 94.0909 211.766 94.0909ZM214.492 103V95.3636H215.625V96.5568H215.725C215.884 96.1491 216.141 95.8326 216.495 95.6072C216.85 95.3786 217.276 95.2642 217.773 95.2642C218.277 95.2642 218.696 95.3786 219.031 95.6072C219.369 95.8326 219.632 96.1491 219.821 96.5568H219.901C220.096 96.1624 220.39 95.8492 220.781 95.6172C221.172 95.3819 221.641 95.2642 222.188 95.2642C222.871 95.2642 223.429 95.478 223.863 95.9055C224.297 96.3298 224.515 96.991 224.515 97.8892V103H223.341V97.8892C223.341 97.3258 223.187 96.9231 222.879 96.6811C222.571 96.4392 222.208 96.3182 221.79 96.3182C221.253 96.3182 220.837 96.4806 220.542 96.8054C220.247 97.1269 220.1 97.5346 220.1 98.0284V103H218.907V97.7699C218.907 97.3357 218.766 96.986 218.484 96.7209C218.202 96.4524 217.839 96.3182 217.395 96.3182C217.09 96.3182 216.805 96.3994 216.54 96.5618C216.278 96.7242 216.066 96.9496 215.904 97.2379C215.745 97.523 215.665 97.8527 215.665 98.2273V103H214.492ZM228.907 103.179C228.423 103.179 227.984 103.088 227.589 102.906C227.195 102.72 226.882 102.453 226.65 102.105C226.418 101.754 226.302 101.33 226.302 100.832C226.302 100.395 226.388 100.04 226.56 99.7685C226.733 99.4934 226.963 99.2779 227.251 99.1222C227.54 98.9664 227.858 98.8504 228.206 98.7741C228.557 98.6946 228.91 98.6316 229.265 98.5852C229.729 98.5256 230.105 98.4808 230.393 98.451C230.685 98.4179 230.897 98.3632 231.03 98.2869C231.166 98.2107 231.234 98.0781 231.234 97.8892V97.8494C231.234 97.3589 231.099 96.9777 230.831 96.706C230.566 96.4342 230.163 96.2983 229.623 96.2983C229.063 96.2983 228.624 96.4209 228.305 96.6662C227.987 96.9115 227.763 97.1733 227.634 97.4517L226.521 97.054C226.719 96.59 226.985 96.2287 227.316 95.9702C227.651 95.7083 228.015 95.526 228.41 95.4233C228.808 95.3172 229.199 95.2642 229.583 95.2642C229.828 95.2642 230.11 95.294 230.428 95.3537C230.75 95.41 231.06 95.5277 231.358 95.7067C231.66 95.8857 231.91 96.1558 232.109 96.517C232.308 96.8783 232.407 97.3622 232.407 97.9688V103H231.234V101.966H231.174C231.094 102.132 230.962 102.309 230.776 102.498C230.591 102.687 230.344 102.848 230.036 102.98C229.727 103.113 229.351 103.179 228.907 103.179ZM229.086 102.125C229.55 102.125 229.941 102.034 230.259 101.852C230.581 101.669 230.823 101.434 230.985 101.146C231.151 100.857 231.234 100.554 231.234 100.236V99.1619C231.184 99.2216 231.075 99.2763 230.906 99.326C230.74 99.3724 230.548 99.4138 230.329 99.4503C230.113 99.4834 229.903 99.5133 229.697 99.5398C229.495 99.563 229.331 99.5829 229.205 99.5994C228.9 99.6392 228.615 99.7038 228.35 99.7933C228.088 99.8795 227.876 100.01 227.714 100.186C227.555 100.358 227.475 100.594 227.475 100.892C227.475 101.3 227.626 101.608 227.928 101.817C228.232 102.022 228.619 102.125 229.086 102.125ZM234.548 103V95.3636H235.682V96.517H235.762C235.901 96.1392 236.153 95.8326 236.517 95.5973C236.882 95.362 237.293 95.2443 237.75 95.2443C237.836 95.2443 237.944 95.246 238.073 95.2493C238.203 95.2526 238.3 95.2576 238.367 95.2642V96.4574C238.327 96.4474 238.236 96.4325 238.093 96.4126C237.954 96.3894 237.807 96.3778 237.651 96.3778C237.28 96.3778 236.948 96.4557 236.656 96.6115C236.368 96.764 236.139 96.9761 235.97 97.2479C235.805 97.5163 235.722 97.8229 235.722 98.1676V103H234.548ZM240.746 105.864C240.547 105.864 240.369 105.847 240.214 105.814C240.058 105.784 239.95 105.754 239.89 105.724L240.189 104.69C240.474 104.763 240.726 104.79 240.944 104.77C241.163 104.75 241.357 104.652 241.526 104.477C241.698 104.304 241.856 104.024 241.998 103.636L242.217 103.04L239.393 95.3636H240.666L242.774 101.449H242.854L244.961 95.3636H246.234L242.993 104.114C242.847 104.508 242.666 104.835 242.451 105.093C242.235 105.355 241.985 105.549 241.7 105.675C241.418 105.801 241.1 105.864 240.746 105.864ZM252.894 92.8182V103H251.72V92.8182H252.894ZM257.29 103.179C256.806 103.179 256.367 103.088 255.972 102.906C255.578 102.72 255.265 102.453 255.033 102.105C254.801 101.754 254.685 101.33 254.685 100.832C254.685 100.395 254.771 100.04 254.943 99.7685C255.116 99.4934 255.346 99.2779 255.634 99.1222C255.923 98.9664 256.241 98.8504 256.589 98.7741C256.94 98.6946 257.293 98.6316 257.648 98.5852C258.112 98.5256 258.488 98.4808 258.776 98.451C259.068 98.4179 259.28 98.3632 259.413 98.2869C259.549 98.2107 259.616 98.0781 259.616 97.8892V97.8494C259.616 97.3589 259.482 96.9777 259.214 96.706C258.949 96.4342 258.546 96.2983 258.006 96.2983C257.446 96.2983 257.006 96.4209 256.688 96.6662C256.37 96.9115 256.146 97.1733 256.017 97.4517L254.903 97.054C255.102 96.59 255.367 96.2287 255.699 95.9702C256.034 95.7083 256.398 95.526 256.793 95.4233C257.19 95.3172 257.581 95.2642 257.966 95.2642C258.211 95.2642 258.493 95.294 258.811 95.3537C259.133 95.41 259.442 95.5277 259.741 95.7067C260.042 95.8857 260.293 96.1558 260.491 96.517C260.69 96.8783 260.79 97.3622 260.79 97.9688V103H259.616V101.966H259.557C259.477 102.132 259.345 102.309 259.159 102.498C258.973 102.687 258.727 102.848 258.418 102.98C258.11 103.113 257.734 103.179 257.29 103.179ZM257.469 102.125C257.933 102.125 258.324 102.034 258.642 101.852C258.964 101.669 259.205 101.434 259.368 101.146C259.534 100.857 259.616 100.554 259.616 100.236V99.1619C259.567 99.2216 259.457 99.2763 259.288 99.326C259.123 99.3724 258.93 99.4138 258.712 99.4503C258.496 99.4834 258.286 99.5133 258.08 99.5398C257.878 99.563 257.714 99.5829 257.588 99.5994C257.283 99.6392 256.998 99.7038 256.733 99.7933C256.471 99.8795 256.259 100.01 256.097 100.186C255.938 100.358 255.858 100.594 255.858 100.892C255.858 101.3 256.009 101.608 256.31 101.817C256.615 102.022 257.001 102.125 257.469 102.125ZM263.09 103V92.8182H264.264V96.5767H264.363C264.449 96.4441 264.569 96.2751 264.721 96.0696C264.877 95.8608 265.099 95.6752 265.387 95.5128C265.679 95.3471 266.073 95.2642 266.57 95.2642C267.213 95.2642 267.78 95.425 268.271 95.7464C268.761 96.0679 269.144 96.5237 269.419 97.1136C269.694 97.7036 269.832 98.3996 269.832 99.2017C269.832 100.01 269.694 100.711 269.419 101.305C269.144 101.895 268.763 102.352 268.276 102.677C267.789 102.998 267.227 103.159 266.59 103.159C266.1 103.159 265.707 103.078 265.412 102.915C265.117 102.75 264.89 102.562 264.731 102.354C264.572 102.142 264.449 101.966 264.363 101.827H264.224V103H263.09ZM264.244 99.1818C264.244 99.7585 264.328 100.267 264.497 100.708C264.666 101.146 264.913 101.489 265.238 101.737C265.563 101.982 265.961 102.105 266.431 102.105C266.922 102.105 267.331 101.976 267.659 101.717C267.991 101.455 268.239 101.104 268.405 100.663C268.574 100.219 268.659 99.7254 268.659 99.1818C268.659 98.6449 268.576 98.161 268.41 97.7301C268.248 97.2959 268.001 96.9529 267.669 96.701C267.341 96.4458 266.928 96.3182 266.431 96.3182C265.954 96.3182 265.553 96.4392 265.228 96.6811C264.903 96.9197 264.658 97.2545 264.492 97.6854C264.327 98.1129 264.244 98.6117 264.244 99.1818ZM274.828 103.159C274.093 103.159 273.458 102.997 272.924 102.672C272.394 102.344 271.985 101.886 271.696 101.3C271.411 100.71 271.269 100.024 271.269 99.2415C271.269 98.4593 271.411 97.7699 271.696 97.1733C271.985 96.5734 272.386 96.1061 272.899 95.7713C273.416 95.4332 274.02 95.2642 274.709 95.2642C275.107 95.2642 275.499 95.3305 275.887 95.4631C276.275 95.5956 276.628 95.8111 276.946 96.1094C277.264 96.4044 277.518 96.7955 277.707 97.2827C277.896 97.7699 277.99 98.3698 277.99 99.0824V99.5795H272.104V98.5653H276.797C276.797 98.1345 276.711 97.75 276.539 97.4119C276.369 97.0739 276.128 96.8071 275.813 96.6115C275.501 96.416 275.133 96.3182 274.709 96.3182C274.242 96.3182 273.837 96.4342 273.496 96.6662C273.158 96.8949 272.898 97.1932 272.715 97.5611C272.533 97.929 272.442 98.3234 272.442 98.7443V99.4205C272.442 99.9972 272.541 100.486 272.74 100.887C272.942 101.285 273.222 101.588 273.58 101.797C273.938 102.002 274.354 102.105 274.828 102.105C275.137 102.105 275.415 102.062 275.664 101.976C275.915 101.886 276.133 101.754 276.315 101.578C276.497 101.399 276.638 101.177 276.737 100.912L277.871 101.23C277.752 101.615 277.551 101.953 277.269 102.244C276.988 102.533 276.64 102.758 276.225 102.92C275.811 103.08 275.345 103.159 274.828 103.159ZM280.948 92.8182V103H279.775V92.8182H280.948Z" fill="white" fill-opacity="0.95"/>
<path d="M201.83 113.455C201.778 113.023 201.571 112.688 201.207 112.449C200.844 112.21 200.398 112.091 199.869 112.091C199.483 112.091 199.145 112.153 198.855 112.278C198.568 112.403 198.344 112.575 198.182 112.794C198.023 113.013 197.943 113.261 197.943 113.54C197.943 113.773 197.999 113.973 198.109 114.141C198.223 114.305 198.368 114.443 198.544 114.554C198.72 114.662 198.905 114.751 199.098 114.822C199.291 114.891 199.469 114.946 199.631 114.989L200.517 115.227C200.744 115.287 200.997 115.369 201.276 115.474C201.557 115.58 201.825 115.723 202.081 115.905C202.339 116.084 202.553 116.314 202.72 116.595C202.888 116.876 202.972 117.222 202.972 117.631C202.972 118.102 202.848 118.528 202.601 118.909C202.357 119.29 201.999 119.592 201.527 119.817C201.058 120.041 200.489 120.153 199.818 120.153C199.193 120.153 198.652 120.053 198.195 119.851C197.74 119.649 197.382 119.368 197.121 119.007C196.862 118.646 196.716 118.227 196.682 117.75H197.773C197.801 118.08 197.912 118.352 198.105 118.568C198.301 118.781 198.548 118.94 198.847 119.045C199.148 119.148 199.472 119.199 199.818 119.199C200.222 119.199 200.584 119.134 200.905 119.003C201.226 118.869 201.48 118.685 201.668 118.449C201.855 118.21 201.949 117.932 201.949 117.614C201.949 117.324 201.868 117.088 201.706 116.906C201.544 116.724 201.331 116.577 201.067 116.463C200.803 116.349 200.517 116.25 200.21 116.165L199.136 115.858C198.455 115.662 197.915 115.382 197.517 115.018C197.119 114.655 196.92 114.179 196.92 113.591C196.92 113.102 197.053 112.676 197.317 112.312C197.584 111.946 197.942 111.662 198.391 111.46C198.842 111.256 199.347 111.153 199.903 111.153C200.466 111.153 200.966 111.254 201.403 111.456C201.841 111.655 202.188 111.928 202.443 112.274C202.702 112.621 202.838 113.014 202.852 113.455H201.83ZM207.317 120.136C206.686 120.136 206.142 119.997 205.685 119.719C205.23 119.438 204.88 119.045 204.632 118.543C204.388 118.037 204.266 117.449 204.266 116.778C204.266 116.108 204.388 115.517 204.632 115.006C204.88 114.491 205.223 114.091 205.664 113.804C206.107 113.514 206.624 113.369 207.215 113.369C207.556 113.369 207.892 113.426 208.225 113.54C208.557 113.653 208.86 113.838 209.132 114.094C209.405 114.347 209.623 114.682 209.784 115.099C209.946 115.517 210.027 116.031 210.027 116.642V117.068H204.982V116.199H209.005C209.005 115.83 208.931 115.5 208.783 115.21C208.638 114.92 208.431 114.692 208.161 114.524C207.894 114.357 207.578 114.273 207.215 114.273C206.814 114.273 206.468 114.372 206.175 114.571C205.885 114.767 205.662 115.023 205.506 115.338C205.35 115.653 205.272 115.991 205.272 116.352V116.932C205.272 117.426 205.357 117.845 205.527 118.189C205.701 118.53 205.941 118.79 206.248 118.969C206.554 119.145 206.911 119.233 207.317 119.233C207.581 119.233 207.82 119.196 208.033 119.122C208.249 119.045 208.435 118.932 208.591 118.781C208.748 118.628 208.868 118.437 208.953 118.21L209.925 118.483C209.823 118.812 209.651 119.102 209.409 119.352C209.168 119.599 208.87 119.793 208.515 119.932C208.159 120.068 207.76 120.136 207.317 120.136ZM214.216 120.136C213.603 120.136 213.074 119.991 212.631 119.702C212.188 119.412 211.847 119.013 211.608 118.504C211.37 117.996 211.25 117.415 211.25 116.761C211.25 116.097 211.373 115.51 211.617 115.001C211.864 114.49 212.208 114.091 212.648 113.804C213.091 113.514 213.608 113.369 214.199 113.369C214.659 113.369 215.074 113.455 215.444 113.625C215.813 113.795 216.115 114.034 216.351 114.341C216.587 114.648 216.733 115.006 216.79 115.415H215.784C215.708 115.116 215.537 114.852 215.273 114.622C215.012 114.389 214.659 114.273 214.216 114.273C213.824 114.273 213.48 114.375 213.185 114.58C212.892 114.781 212.664 115.067 212.499 115.436C212.337 115.803 212.256 116.233 212.256 116.727C212.256 117.233 212.336 117.673 212.495 118.048C212.657 118.423 212.884 118.714 213.176 118.922C213.472 119.129 213.819 119.233 214.216 119.233C214.478 119.233 214.715 119.188 214.928 119.097C215.141 119.006 215.321 118.875 215.469 118.705C215.617 118.534 215.722 118.33 215.784 118.091H216.79C216.733 118.477 216.593 118.825 216.368 119.135C216.147 119.442 215.853 119.686 215.486 119.868C215.123 120.047 214.699 120.136 214.216 120.136ZM220.919 120.136C220.328 120.136 219.81 119.996 219.364 119.714C218.921 119.433 218.574 119.04 218.324 118.534C218.077 118.028 217.953 117.437 217.953 116.761C217.953 116.08 218.077 115.484 218.324 114.976C218.574 114.467 218.921 114.072 219.364 113.791C219.81 113.51 220.328 113.369 220.919 113.369C221.51 113.369 222.027 113.51 222.471 113.791C222.917 114.072 223.263 114.467 223.51 114.976C223.76 115.484 223.885 116.08 223.885 116.761C223.885 117.437 223.76 118.028 223.51 118.534C223.263 119.04 222.917 119.433 222.471 119.714C222.027 119.996 221.51 120.136 220.919 120.136ZM220.919 119.233C221.368 119.233 221.738 119.118 222.027 118.888C222.317 118.658 222.532 118.355 222.671 117.98C222.81 117.605 222.88 117.199 222.88 116.761C222.88 116.324 222.81 115.916 222.671 115.538C222.532 115.161 222.317 114.855 222.027 114.622C221.738 114.389 221.368 114.273 220.919 114.273C220.471 114.273 220.101 114.389 219.811 114.622C219.522 114.855 219.307 115.161 219.168 115.538C219.029 115.916 218.959 116.324 218.959 116.761C218.959 117.199 219.029 117.605 219.168 117.98C219.307 118.355 219.522 118.658 219.811 118.888C220.101 119.118 220.471 119.233 220.919 119.233ZM226.426 116.062V120H225.42V113.455H226.392V114.477H226.477C226.631 114.145 226.864 113.878 227.176 113.676C227.489 113.472 227.892 113.369 228.386 113.369C228.83 113.369 229.217 113.46 229.55 113.642C229.882 113.821 230.141 114.094 230.325 114.46C230.51 114.824 230.602 115.284 230.602 115.841V120H229.597V115.909C229.597 115.395 229.463 114.994 229.196 114.707C228.929 114.418 228.563 114.273 228.097 114.273C227.776 114.273 227.489 114.342 227.236 114.482C226.986 114.621 226.788 114.824 226.643 115.091C226.499 115.358 226.426 115.682 226.426 116.062ZM234.912 120.136C234.366 120.136 233.885 119.999 233.467 119.723C233.049 119.445 232.723 119.053 232.487 118.547C232.251 118.038 232.133 117.438 232.133 116.744C232.133 116.057 232.251 115.46 232.487 114.955C232.723 114.449 233.051 114.058 233.471 113.783C233.892 113.507 234.377 113.369 234.929 113.369C235.355 113.369 235.691 113.44 235.939 113.582C236.189 113.722 236.379 113.881 236.51 114.06C236.643 114.236 236.747 114.381 236.821 114.494H236.906V111.273H237.912V120H236.94V118.994H236.821C236.747 119.114 236.642 119.264 236.505 119.446C236.369 119.625 236.174 119.786 235.922 119.928C235.669 120.067 235.332 120.136 234.912 120.136ZM235.048 119.233C235.451 119.233 235.792 119.128 236.071 118.918C236.349 118.705 236.561 118.411 236.706 118.036C236.85 117.658 236.923 117.222 236.923 116.727C236.923 116.239 236.852 115.811 236.71 115.445C236.568 115.075 236.358 114.788 236.079 114.584C235.801 114.376 235.457 114.273 235.048 114.273C234.622 114.273 234.267 114.382 233.983 114.601C233.701 114.817 233.49 115.111 233.348 115.483C233.208 115.852 233.139 116.267 233.139 116.727C233.139 117.193 233.21 117.616 233.352 117.997C233.497 118.375 233.71 118.676 233.991 118.901C234.275 119.122 234.627 119.233 235.048 119.233ZM241.819 120.153C241.404 120.153 241.028 120.075 240.69 119.919C240.352 119.76 240.083 119.531 239.885 119.233C239.686 118.932 239.586 118.568 239.586 118.142C239.586 117.767 239.66 117.463 239.808 117.23C239.956 116.994 240.153 116.81 240.4 116.676C240.647 116.543 240.92 116.443 241.218 116.378C241.52 116.31 241.822 116.256 242.126 116.216C242.524 116.165 242.846 116.126 243.093 116.101C243.343 116.072 243.525 116.026 243.639 115.96C243.755 115.895 243.814 115.781 243.814 115.619V115.585C243.814 115.165 243.699 114.838 243.468 114.605C243.241 114.372 242.896 114.256 242.433 114.256C241.953 114.256 241.576 114.361 241.304 114.571C241.031 114.781 240.839 115.006 240.728 115.244L239.774 114.903C239.944 114.506 240.172 114.196 240.456 113.974C240.743 113.75 241.055 113.594 241.393 113.506C241.734 113.415 242.069 113.369 242.399 113.369C242.609 113.369 242.85 113.395 243.123 113.446C243.399 113.494 243.664 113.595 243.92 113.749C244.179 113.902 244.393 114.134 244.564 114.443C244.734 114.753 244.819 115.168 244.819 115.688V120H243.814V119.114H243.762C243.694 119.256 243.581 119.408 243.422 119.57C243.262 119.732 243.051 119.869 242.787 119.983C242.522 120.097 242.2 120.153 241.819 120.153ZM241.973 119.25C242.37 119.25 242.706 119.172 242.978 119.016C243.254 118.859 243.461 118.658 243.6 118.411C243.743 118.163 243.814 117.903 243.814 117.631V116.71C243.771 116.761 243.677 116.808 243.532 116.851C243.39 116.891 243.225 116.926 243.038 116.957C242.853 116.986 242.673 117.011 242.497 117.034C242.324 117.054 242.183 117.071 242.075 117.085C241.814 117.119 241.569 117.175 241.342 117.251C241.118 117.325 240.936 117.437 240.797 117.588C240.66 117.736 240.592 117.937 240.592 118.193C240.592 118.543 240.721 118.807 240.98 118.986C241.241 119.162 241.572 119.25 241.973 119.25ZM246.655 120V113.455H247.626V114.443H247.695C247.814 114.119 248.03 113.857 248.342 113.655C248.655 113.453 249.007 113.352 249.399 113.352C249.473 113.352 249.565 113.354 249.676 113.357C249.787 113.359 249.871 113.364 249.928 113.369V114.392C249.893 114.384 249.815 114.371 249.693 114.354C249.574 114.334 249.447 114.324 249.314 114.324C248.996 114.324 248.712 114.391 248.462 114.524C248.214 114.655 248.018 114.837 247.874 115.07C247.732 115.3 247.661 115.562 247.661 115.858V120H246.655ZM251.967 122.455C251.796 122.455 251.644 122.44 251.511 122.412C251.377 122.386 251.285 122.361 251.234 122.335L251.489 121.449C251.734 121.511 251.95 121.534 252.137 121.517C252.325 121.5 252.491 121.416 252.636 121.266C252.783 121.118 252.918 120.878 253.04 120.545L253.228 120.034L250.808 113.455H251.898L253.705 118.67H253.773L255.58 113.455H256.671L253.893 120.955C253.768 121.293 253.613 121.572 253.428 121.794C253.244 122.018 253.029 122.185 252.785 122.293C252.543 122.401 252.271 122.455 251.967 122.455ZM262.379 111.273V120H261.374V111.273H262.379ZM266.147 120.153C265.733 120.153 265.356 120.075 265.018 119.919C264.68 119.76 264.412 119.531 264.213 119.233C264.014 118.932 263.914 118.568 263.914 118.142C263.914 117.767 263.988 117.463 264.136 117.23C264.284 116.994 264.481 116.81 264.728 116.676C264.975 116.543 265.248 116.443 265.547 116.378C265.848 116.31 266.15 116.256 266.454 116.216C266.852 116.165 267.174 116.126 267.422 116.101C267.672 116.072 267.853 116.026 267.967 115.96C268.083 115.895 268.142 115.781 268.142 115.619V115.585C268.142 115.165 268.027 114.838 267.797 114.605C267.569 114.372 267.224 114.256 266.761 114.256C266.281 114.256 265.904 114.361 265.632 114.571C265.359 114.781 265.167 115.006 265.056 115.244L264.102 114.903C264.272 114.506 264.5 114.196 264.784 113.974C265.071 113.75 265.383 113.594 265.721 113.506C266.062 113.415 266.397 113.369 266.727 113.369C266.937 113.369 267.179 113.395 267.451 113.446C267.727 113.494 267.993 113.595 268.248 113.749C268.507 113.902 268.721 114.134 268.892 114.443C269.062 114.753 269.147 115.168 269.147 115.688V120H268.142V119.114H268.091C268.022 119.256 267.909 119.408 267.75 119.57C267.591 119.732 267.379 119.869 267.115 119.983C266.85 120.097 266.528 120.153 266.147 120.153ZM266.301 119.25C266.699 119.25 267.034 119.172 267.306 119.016C267.582 118.859 267.789 118.658 267.929 118.411C268.071 118.163 268.142 117.903 268.142 117.631V116.71C268.099 116.761 268.005 116.808 267.86 116.851C267.718 116.891 267.554 116.926 267.366 116.957C267.181 116.986 267.001 117.011 266.825 117.034C266.652 117.054 266.511 117.071 266.403 117.085C266.142 117.119 265.897 117.175 265.67 117.251C265.446 117.325 265.264 117.437 265.125 117.588C264.988 117.736 264.92 117.937 264.92 118.193C264.92 118.543 265.049 118.807 265.308 118.986C265.569 119.162 265.9 119.25 266.301 119.25ZM271.119 120V111.273H272.125V114.494H272.21C272.284 114.381 272.386 114.236 272.517 114.06C272.651 113.881 272.841 113.722 273.088 113.582C273.338 113.44 273.676 113.369 274.102 113.369C274.653 113.369 275.139 113.507 275.56 113.783C275.98 114.058 276.308 114.449 276.544 114.955C276.78 115.46 276.898 116.057 276.898 116.744C276.898 117.438 276.78 118.038 276.544 118.547C276.308 119.053 275.982 119.445 275.564 119.723C275.146 119.999 274.665 120.136 274.119 120.136C273.699 120.136 273.362 120.067 273.109 119.928C272.857 119.786 272.662 119.625 272.526 119.446C272.389 119.264 272.284 119.114 272.21 118.994H272.091V120H271.119ZM272.108 116.727C272.108 117.222 272.18 117.658 272.325 118.036C272.47 118.411 272.682 118.705 272.96 118.918C273.239 119.128 273.58 119.233 273.983 119.233C274.403 119.233 274.754 119.122 275.036 118.901C275.32 118.676 275.533 118.375 275.675 117.997C275.82 117.616 275.892 117.193 275.892 116.727C275.892 116.267 275.821 115.852 275.679 115.483C275.54 115.111 275.328 114.817 275.044 114.601C274.763 114.382 274.409 114.273 273.983 114.273C273.574 114.273 273.23 114.376 272.952 114.584C272.673 114.788 272.463 115.075 272.321 115.445C272.179 115.811 272.108 116.239 272.108 116.727ZM281.18 120.136C280.55 120.136 280.006 119.997 279.548 119.719C279.094 119.438 278.743 119.045 278.496 118.543C278.251 118.037 278.129 117.449 278.129 116.778C278.129 116.108 278.251 115.517 278.496 115.006C278.743 114.491 279.087 114.091 279.527 113.804C279.97 113.514 280.487 113.369 281.078 113.369C281.419 113.369 281.756 113.426 282.088 113.54C282.42 113.653 282.723 113.838 282.996 114.094C283.268 114.347 283.486 114.682 283.648 115.099C283.81 115.517 283.891 116.031 283.891 116.642V117.068H278.845V116.199H282.868C282.868 115.83 282.794 115.5 282.646 115.21C282.501 114.92 282.294 114.692 282.024 114.524C281.757 114.357 281.442 114.273 281.078 114.273C280.678 114.273 280.331 114.372 280.038 114.571C279.749 114.767 279.526 115.023 279.369 115.338C279.213 115.653 279.135 115.991 279.135 116.352V116.932C279.135 117.426 279.22 117.845 279.391 118.189C279.564 118.53 279.804 118.79 280.111 118.969C280.418 119.145 280.774 119.233 281.18 119.233C281.445 119.233 281.683 119.196 281.896 119.122C282.112 119.045 282.298 118.932 282.455 118.781C282.611 118.628 282.732 118.437 282.817 118.21L283.788 118.483C283.686 118.812 283.514 119.102 283.273 119.352C283.031 119.599 282.733 119.793 282.378 119.932C282.023 120.068 281.624 120.136 281.18 120.136ZM286.426 111.273V120H285.42V111.273H286.426Z" fill="white" fill-opacity="0.95"/>
<circle cx="294" cy="116" r="2" fill="white" fill-opacity="0.3"/>
<path d="M305.83 113.455C305.778 113.023 305.571 112.688 305.207 112.449C304.844 112.21 304.398 112.091 303.869 112.091C303.483 112.091 303.145 112.153 302.855 112.278C302.568 112.403 302.344 112.575 302.182 112.794C302.023 113.013 301.943 113.261 301.943 113.54C301.943 113.773 301.999 113.973 302.109 114.141C302.223 114.305 302.368 114.443 302.544 114.554C302.72 114.662 302.905 114.751 303.098 114.822C303.291 114.891 303.469 114.946 303.631 114.989L304.517 115.227C304.744 115.287 304.997 115.369 305.276 115.474C305.557 115.58 305.825 115.723 306.081 115.905C306.339 116.084 306.553 116.314 306.72 116.595C306.888 116.876 306.972 117.222 306.972 117.631C306.972 118.102 306.848 118.528 306.601 118.909C306.357 119.29 305.999 119.592 305.527 119.817C305.058 120.041 304.489 120.153 303.818 120.153C303.193 120.153 302.652 120.053 302.195 119.851C301.74 119.649 301.382 119.368 301.121 119.007C300.862 118.646 300.716 118.227 300.682 117.75H301.773C301.801 118.08 301.912 118.352 302.105 118.568C302.301 118.781 302.548 118.94 302.847 119.045C303.148 119.148 303.472 119.199 303.818 119.199C304.222 119.199 304.584 119.134 304.905 119.003C305.226 118.869 305.48 118.685 305.668 118.449C305.855 118.21 305.949 117.932 305.949 117.614C305.949 117.324 305.868 117.088 305.706 116.906C305.544 116.724 305.331 116.577 305.067 116.463C304.803 116.349 304.517 116.25 304.21 116.165L303.136 115.858C302.455 115.662 301.915 115.382 301.517 115.018C301.119 114.655 300.92 114.179 300.92 113.591C300.92 113.102 301.053 112.676 301.317 112.312C301.584 111.946 301.942 111.662 302.391 111.46C302.842 111.256 303.347 111.153 303.903 111.153C304.466 111.153 304.966 111.254 305.403 111.456C305.841 111.655 306.188 111.928 306.443 112.274C306.702 112.621 306.838 113.014 306.852 113.455H305.83ZM311.317 120.136C310.686 120.136 310.142 119.997 309.685 119.719C309.23 119.438 308.88 119.045 308.632 118.543C308.388 118.037 308.266 117.449 308.266 116.778C308.266 116.108 308.388 115.517 308.632 115.006C308.88 114.491 309.223 114.091 309.664 113.804C310.107 113.514 310.624 113.369 311.215 113.369C311.556 113.369 311.892 113.426 312.225 113.54C312.557 113.653 312.86 113.838 313.132 114.094C313.405 114.347 313.623 114.682 313.784 115.099C313.946 115.517 314.027 116.031 314.027 116.642V117.068H308.982V116.199H313.005C313.005 115.83 312.931 115.5 312.783 115.21C312.638 114.92 312.431 114.692 312.161 114.524C311.894 114.357 311.578 114.273 311.215 114.273C310.814 114.273 310.468 114.372 310.175 114.571C309.885 114.767 309.662 115.023 309.506 115.338C309.35 115.653 309.272 115.991 309.272 116.352V116.932C309.272 117.426 309.357 117.845 309.527 118.189C309.701 118.53 309.941 118.79 310.248 118.969C310.554 119.145 310.911 119.233 311.317 119.233C311.581 119.233 311.82 119.196 312.033 119.122C312.249 119.045 312.435 118.932 312.591 118.781C312.748 118.628 312.868 118.437 312.953 118.21L313.925 118.483C313.823 118.812 313.651 119.102 313.409 119.352C313.168 119.599 312.87 119.793 312.515 119.932C312.159 120.068 311.76 120.136 311.317 120.136ZM318.216 120.136C317.603 120.136 317.074 119.991 316.631 119.702C316.188 119.412 315.847 119.013 315.608 118.504C315.37 117.996 315.25 117.415 315.25 116.761C315.25 116.097 315.373 115.51 315.617 115.001C315.864 114.49 316.208 114.091 316.648 113.804C317.091 113.514 317.608 113.369 318.199 113.369C318.659 113.369 319.074 113.455 319.444 113.625C319.813 113.795 320.115 114.034 320.351 114.341C320.587 114.648 320.733 115.006 320.79 115.415H319.784C319.708 115.116 319.537 114.852 319.273 114.622C319.012 114.389 318.659 114.273 318.216 114.273C317.824 114.273 317.48 114.375 317.185 114.58C316.892 114.781 316.664 115.067 316.499 115.436C316.337 115.803 316.256 116.233 316.256 116.727C316.256 117.233 316.336 117.673 316.495 118.048C316.657 118.423 316.884 118.714 317.176 118.922C317.472 119.129 317.819 119.233 318.216 119.233C318.478 119.233 318.715 119.188 318.928 119.097C319.141 119.006 319.321 118.875 319.469 118.705C319.617 118.534 319.722 118.33 319.784 118.091H320.79C320.733 118.477 320.593 118.825 320.368 119.135C320.147 119.442 319.853 119.686 319.486 119.868C319.123 120.047 318.699 120.136 318.216 120.136ZM324.919 120.136C324.328 120.136 323.81 119.996 323.364 119.714C322.921 119.433 322.574 119.04 322.324 118.534C322.077 118.028 321.953 117.437 321.953 116.761C321.953 116.08 322.077 115.484 322.324 114.976C322.574 114.467 322.921 114.072 323.364 113.791C323.81 113.51 324.328 113.369 324.919 113.369C325.51 113.369 326.027 113.51 326.471 113.791C326.917 114.072 327.263 114.467 327.51 114.976C327.76 115.484 327.885 116.08 327.885 116.761C327.885 117.437 327.76 118.028 327.51 118.534C327.263 119.04 326.917 119.433 326.471 119.714C326.027 119.996 325.51 120.136 324.919 120.136ZM324.919 119.233C325.368 119.233 325.738 119.118 326.027 118.888C326.317 118.658 326.532 118.355 326.671 117.98C326.81 117.605 326.88 117.199 326.88 116.761C326.88 116.324 326.81 115.916 326.671 115.538C326.532 115.161 326.317 114.855 326.027 114.622C325.738 114.389 325.368 114.273 324.919 114.273C324.471 114.273 324.101 114.389 323.811 114.622C323.522 114.855 323.307 115.161 323.168 115.538C323.029 115.916 322.959 116.324 322.959 116.761C322.959 117.199 323.029 117.605 323.168 117.98C323.307 118.355 323.522 118.658 323.811 118.888C324.101 119.118 324.471 119.233 324.919 119.233ZM330.426 116.062V120H329.42V113.455H330.392V114.477H330.477C330.631 114.145 330.864 113.878 331.176 113.676C331.489 113.472 331.892 113.369 332.386 113.369C332.83 113.369 333.217 113.46 333.55 113.642C333.882 113.821 334.141 114.094 334.325 114.46C334.51 114.824 334.602 115.284 334.602 115.841V120H333.597V115.909C333.597 115.395 333.463 114.994 333.196 114.707C332.929 114.418 332.563 114.273 332.097 114.273C331.776 114.273 331.489 114.342 331.236 114.482C330.986 114.621 330.788 114.824 330.643 115.091C330.499 115.358 330.426 115.682 330.426 116.062ZM338.912 120.136C338.366 120.136 337.885 119.999 337.467 119.723C337.049 119.445 336.723 119.053 336.487 118.547C336.251 118.038 336.133 117.438 336.133 116.744C336.133 116.057 336.251 115.46 336.487 114.955C336.723 114.449 337.051 114.058 337.471 113.783C337.892 113.507 338.377 113.369 338.929 113.369C339.355 113.369 339.691 113.44 339.939 113.582C340.189 113.722 340.379 113.881 340.51 114.06C340.643 114.236 340.747 114.381 340.821 114.494H340.906V111.273H341.912V120H340.94V118.994H340.821C340.747 119.114 340.642 119.264 340.505 119.446C340.369 119.625 340.174 119.786 339.922 119.928C339.669 120.067 339.332 120.136 338.912 120.136ZM339.048 119.233C339.451 119.233 339.792 119.128 340.071 118.918C340.349 118.705 340.561 118.411 340.706 118.036C340.85 117.658 340.923 117.222 340.923 116.727C340.923 116.239 340.852 115.811 340.71 115.445C340.568 115.075 340.358 114.788 340.079 114.584C339.801 114.376 339.457 114.273 339.048 114.273C338.622 114.273 338.267 114.382 337.983 114.601C337.701 114.817 337.49 115.111 337.348 115.483C337.208 115.852 337.139 116.267 337.139 116.727C337.139 117.193 337.21 117.616 337.352 117.997C337.497 118.375 337.71 118.676 337.991 118.901C338.275 119.122 338.627 119.233 339.048 119.233ZM345.819 120.153C345.404 120.153 345.028 120.075 344.69 119.919C344.352 119.76 344.083 119.531 343.885 119.233C343.686 118.932 343.586 118.568 343.586 118.142C343.586 117.767 343.66 117.463 343.808 117.23C343.956 116.994 344.153 116.81 344.4 116.676C344.647 116.543 344.92 116.443 345.218 116.378C345.52 116.31 345.822 116.256 346.126 116.216C346.524 116.165 346.846 116.126 347.093 116.101C347.343 116.072 347.525 116.026 347.639 115.96C347.755 115.895 347.814 115.781 347.814 115.619V115.585C347.814 115.165 347.699 114.838 347.468 114.605C347.241 114.372 346.896 114.256 346.433 114.256C345.953 114.256 345.576 114.361 345.304 114.571C345.031 114.781 344.839 115.006 344.728 115.244L343.774 114.903C343.944 114.506 344.172 114.196 344.456 113.974C344.743 113.75 345.055 113.594 345.393 113.506C345.734 113.415 346.069 113.369 346.399 113.369C346.609 113.369 346.85 113.395 347.123 113.446C347.399 113.494 347.664 113.595 347.92 113.749C348.179 113.902 348.393 114.134 348.564 114.443C348.734 114.753 348.819 115.168 348.819 115.688V120H347.814V119.114H347.762C347.694 119.256 347.581 119.408 347.422 119.57C347.262 119.732 347.051 119.869 346.787 119.983C346.522 120.097 346.2 120.153 345.819 120.153ZM345.973 119.25C346.37 119.25 346.706 119.172 346.978 119.016C347.254 118.859 347.461 118.658 347.6 118.411C347.743 118.163 347.814 117.903 347.814 117.631V116.71C347.771 116.761 347.677 116.808 347.532 116.851C347.39 116.891 347.225 116.926 347.038 116.957C346.853 116.986 346.673 117.011 346.497 117.034C346.324 117.054 346.183 117.071 346.075 117.085C345.814 117.119 345.569 117.175 345.342 117.251C345.118 117.325 344.936 117.437 344.797 117.588C344.66 117.736 344.592 117.937 344.592 118.193C344.592 118.543 344.721 118.807 344.98 118.986C345.241 119.162 345.572 119.25 345.973 119.25ZM350.655 120V113.455H351.626V114.443H351.695C351.814 114.119 352.03 113.857 352.342 113.655C352.655 113.453 353.007 113.352 353.399 113.352C353.473 113.352 353.565 113.354 353.676 113.357C353.787 113.359 353.871 113.364 353.928 113.369V114.392C353.893 114.384 353.815 114.371 353.693 114.354C353.574 114.334 353.447 114.324 353.314 114.324C352.996 114.324 352.712 114.391 352.462 114.524C352.214 114.655 352.018 114.837 351.874 115.07C351.732 115.3 351.661 115.562 351.661 115.858V120H350.655ZM355.967 122.455C355.796 122.455 355.644 122.44 355.511 122.412C355.377 122.386 355.285 122.361 355.234 122.335L355.489 121.449C355.734 121.511 355.95 121.534 356.137 121.517C356.325 121.5 356.491 121.416 356.636 121.266C356.783 121.118 356.918 120.878 357.04 120.545L357.228 120.034L354.808 113.455H355.898L357.705 118.67H357.773L359.58 113.455H360.671L357.893 120.955C357.768 121.293 357.613 121.572 357.428 121.794C357.244 122.018 357.029 122.185 356.785 122.293C356.543 122.401 356.271 122.455 355.967 122.455ZM366.379 111.273V120H365.374V111.273H366.379ZM370.147 120.153C369.733 120.153 369.356 120.075 369.018 119.919C368.68 119.76 368.412 119.531 368.213 119.233C368.014 118.932 367.914 118.568 367.914 118.142C367.914 117.767 367.988 117.463 368.136 117.23C368.284 116.994 368.481 116.81 368.728 116.676C368.975 116.543 369.248 116.443 369.547 116.378C369.848 116.31 370.15 116.256 370.454 116.216C370.852 116.165 371.174 116.126 371.422 116.101C371.672 116.072 371.853 116.026 371.967 115.96C372.083 115.895 372.142 115.781 372.142 115.619V115.585C372.142 115.165 372.027 114.838 371.797 114.605C371.569 114.372 371.224 114.256 370.761 114.256C370.281 114.256 369.904 114.361 369.632 114.571C369.359 114.781 369.167 115.006 369.056 115.244L368.102 114.903C368.272 114.506 368.5 114.196 368.784 113.974C369.071 113.75 369.383 113.594 369.721 113.506C370.062 113.415 370.397 113.369 370.727 113.369C370.937 113.369 371.179 113.395 371.451 113.446C371.727 113.494 371.993 113.595 372.248 113.749C372.507 113.902 372.721 114.134 372.892 114.443C373.062 114.753 373.147 115.168 373.147 115.688V120H372.142V119.114H372.091C372.022 119.256 371.909 119.408 371.75 119.57C371.591 119.732 371.379 119.869 371.115 119.983C370.85 120.097 370.528 120.153 370.147 120.153ZM370.301 119.25C370.699 119.25 371.034 119.172 371.306 119.016C371.582 118.859 371.789 118.658 371.929 118.411C372.071 118.163 372.142 117.903 372.142 117.631V116.71C372.099 116.761 372.005 116.808 371.86 116.851C371.718 116.891 371.554 116.926 371.366 116.957C371.181 116.986 371.001 117.011 370.825 117.034C370.652 117.054 370.511 117.071 370.403 117.085C370.142 117.119 369.897 117.175 369.67 117.251C369.446 117.325 369.264 117.437 369.125 117.588C368.988 117.736 368.92 117.937 368.92 118.193C368.92 118.543 369.049 118.807 369.308 118.986C369.569 119.162 369.9 119.25 370.301 119.25ZM375.119 120V111.273H376.125V114.494H376.21C376.284 114.381 376.386 114.236 376.517 114.06C376.651 113.881 376.841 113.722 377.088 113.582C377.338 113.44 377.676 113.369 378.102 113.369C378.653 113.369 379.139 113.507 379.56 113.783C379.98 114.058 380.308 114.449 380.544 114.955C380.78 115.46 380.898 116.057 380.898 116.744C380.898 117.438 380.78 118.038 380.544 118.547C380.308 119.053 379.982 119.445 379.564 119.723C379.146 119.999 378.665 120.136 378.119 120.136C377.699 120.136 377.362 120.067 377.109 119.928C376.857 119.786 376.662 119.625 376.526 119.446C376.389 119.264 376.284 119.114 376.21 118.994H376.091V120H375.119ZM376.108 116.727C376.108 117.222 376.18 117.658 376.325 118.036C376.47 118.411 376.682 118.705 376.96 118.918C377.239 119.128 377.58 119.233 377.983 119.233C378.403 119.233 378.754 119.122 379.036 118.901C379.32 118.676 379.533 118.375 379.675 117.997C379.82 117.616 379.892 117.193 379.892 116.727C379.892 116.267 379.821 115.852 379.679 115.483C379.54 115.111 379.328 114.817 379.044 114.601C378.763 114.382 378.409 114.273 377.983 114.273C377.574 114.273 377.23 114.376 376.952 114.584C376.673 114.788 376.463 115.075 376.321 115.445C376.179 115.811 376.108 116.239 376.108 116.727ZM385.18 120.136C384.55 120.136 384.006 119.997 383.548 119.719C383.094 119.438 382.743 119.045 382.496 118.543C382.251 118.037 382.129 117.449 382.129 116.778C382.129 116.108 382.251 115.517 382.496 115.006C382.743 114.491 383.087 114.091 383.527 113.804C383.97 113.514 384.487 113.369 385.078 113.369C385.419 113.369 385.756 113.426 386.088 113.54C386.42 113.653 386.723 113.838 386.996 114.094C387.268 114.347 387.486 114.682 387.648 115.099C387.81 115.517 387.891 116.031 387.891 116.642V117.068H382.845V116.199H386.868C386.868 115.83 386.794 115.5 386.646 115.21C386.501 114.92 386.294 114.692 386.024 114.524C385.757 114.357 385.442 114.273 385.078 114.273C384.678 114.273 384.331 114.372 384.038 114.571C383.749 114.767 383.526 115.023 383.369 115.338C383.213 115.653 383.135 115.991 383.135 116.352V116.932C383.135 117.426 383.22 117.845 383.391 118.189C383.564 118.53 383.804 118.79 384.111 118.969C384.418 119.145 384.774 119.233 385.18 119.233C385.445 119.233 385.683 119.196 385.896 119.122C386.112 119.045 386.298 118.932 386.455 118.781C386.611 118.628 386.732 118.437 386.817 118.21L387.788 118.483C387.686 118.812 387.514 119.102 387.273 119.352C387.031 119.599 386.733 119.793 386.378 119.932C386.023 120.068 385.624 120.136 385.18 120.136ZM390.426 111.273V120H389.42V111.273H390.426Z" fill="white" fill-opacity="0.95"/>
<path d="M854.78 103V92.8182H856.013V97.3523H861.442V92.8182H862.675V103H861.442V98.446H856.013V103H854.78ZM868.186 103.159C867.45 103.159 866.815 102.997 866.282 102.672C865.751 102.344 865.342 101.886 865.054 101.3C864.769 100.71 864.626 100.024 864.626 99.2415C864.626 98.4593 864.769 97.7699 865.054 97.1733C865.342 96.5734 865.743 96.1061 866.257 95.7713C866.774 95.4332 867.377 95.2642 868.066 95.2642C868.464 95.2642 868.857 95.3305 869.245 95.4631C869.632 95.5956 869.985 95.8111 870.304 96.1094C870.622 96.4044 870.875 96.7955 871.064 97.2827C871.253 97.7699 871.348 98.3698 871.348 99.0824V99.5795H865.461V98.5653H870.154C870.154 98.1345 870.068 97.75 869.896 97.4119C869.727 97.0739 869.485 96.8071 869.17 96.6115C868.859 96.416 868.491 96.3182 868.066 96.3182C867.599 96.3182 867.195 96.4342 866.853 96.6662C866.515 96.8949 866.255 97.1932 866.073 97.5611C865.891 97.929 865.799 98.3234 865.799 98.7443V99.4205C865.799 99.9972 865.899 100.486 866.098 100.887C866.3 101.285 866.58 101.588 866.938 101.797C867.296 102.002 867.712 102.105 868.186 102.105C868.494 102.105 868.772 102.062 869.021 101.976C869.273 101.886 869.49 101.754 869.672 101.578C869.855 101.399 869.995 101.177 870.095 100.912L871.228 101.23C871.109 101.615 870.908 101.953 870.627 102.244C870.345 102.533 869.997 102.758 869.583 102.92C869.168 103.08 868.703 103.159 868.186 103.159ZM875.38 103.179C874.896 103.179 874.457 103.088 874.062 102.906C873.668 102.72 873.355 102.453 873.123 102.105C872.891 101.754 872.775 101.33 872.775 100.832C872.775 100.395 872.861 100.04 873.033 99.7685C873.205 99.4934 873.436 99.2779 873.724 99.1222C874.012 98.9664 874.331 98.8504 874.679 98.7741C875.03 98.6946 875.383 98.6316 875.738 98.5852C876.202 98.5256 876.578 98.4808 876.866 98.451C877.158 98.4179 877.37 98.3632 877.502 98.2869C877.638 98.2107 877.706 98.0781 877.706 97.8892V97.8494C877.706 97.3589 877.572 96.9777 877.304 96.706C877.038 96.4342 876.636 96.2983 876.096 96.2983C875.535 96.2983 875.096 96.4209 874.778 96.6662C874.46 96.9115 874.236 97.1733 874.107 97.4517L872.993 97.054C873.192 96.59 873.457 96.2287 873.789 95.9702C874.123 95.7083 874.488 95.526 874.882 95.4233C875.28 95.3172 875.671 95.2642 876.056 95.2642C876.301 95.2642 876.583 95.294 876.901 95.3537C877.222 95.41 877.532 95.5277 877.831 95.7067C878.132 95.8857 878.382 96.1558 878.581 96.517C878.78 96.8783 878.88 97.3622 878.88 97.9688V103H877.706V101.966H877.647C877.567 102.132 877.435 102.309 877.249 102.498C877.063 102.687 876.816 102.848 876.508 102.98C876.2 103.113 875.824 103.179 875.38 103.179ZM875.559 102.125C876.023 102.125 876.414 102.034 876.732 101.852C877.053 101.669 877.295 101.434 877.458 101.146C877.623 100.857 877.706 100.554 877.706 100.236V99.1619C877.657 99.2216 877.547 99.2763 877.378 99.326C877.212 99.3724 877.02 99.4138 876.801 99.4503C876.586 99.4834 876.376 99.5133 876.17 99.5398C875.968 99.563 875.804 99.5829 875.678 99.5994C875.373 99.6392 875.088 99.7038 874.823 99.7933C874.561 99.8795 874.349 100.01 874.186 100.186C874.027 100.358 873.948 100.594 873.948 100.892C873.948 101.3 874.099 101.608 874.4 101.817C874.705 102.022 875.091 102.125 875.559 102.125ZM883.905 103.159C883.268 103.159 882.706 102.998 882.219 102.677C881.732 102.352 881.351 101.895 881.076 101.305C880.801 100.711 880.663 100.01 880.663 99.2017C880.663 98.3996 880.801 97.7036 881.076 97.1136C881.351 96.5237 881.734 96.0679 882.224 95.7464C882.715 95.425 883.282 95.2642 883.925 95.2642C884.422 95.2642 884.814 95.3471 885.103 95.5128C885.394 95.6752 885.617 95.8608 885.769 96.0696C885.925 96.2751 886.046 96.4441 886.132 96.5767H886.231V92.8182H887.405V103H886.271V101.827H886.132C886.046 101.966 885.923 102.142 885.764 102.354C885.605 102.562 885.378 102.75 885.083 102.915C884.788 103.078 884.395 103.159 883.905 103.159ZM884.064 102.105C884.534 102.105 884.932 101.982 885.257 101.737C885.582 101.489 885.829 101.146 885.998 100.708C886.167 100.267 886.251 99.7585 886.251 99.1818C886.251 98.6117 886.168 98.1129 886.003 97.6854C885.837 97.2545 885.592 96.9197 885.267 96.6811C884.942 96.4392 884.541 96.3182 884.064 96.3182C883.567 96.3182 883.152 96.4458 882.821 96.701C882.493 96.9529 882.246 97.2959 882.08 97.7301C881.918 98.161 881.836 98.6449 881.836 99.1818C881.836 99.7254 881.919 100.219 882.085 100.663C882.254 101.104 882.503 101.455 882.831 101.717C883.162 101.976 883.573 102.105 884.064 102.105ZM892.918 103.159C892.182 103.159 891.548 102.997 891.014 102.672C890.484 102.344 890.074 101.886 889.786 101.3C889.501 100.71 889.358 100.024 889.358 99.2415C889.358 98.4593 889.501 97.7699 889.786 97.1733C890.074 96.5734 890.475 96.1061 890.989 95.7713C891.506 95.4332 892.109 95.2642 892.799 95.2642C893.197 95.2642 893.589 95.3305 893.977 95.4631C894.365 95.5956 894.718 95.8111 895.036 96.1094C895.354 96.4044 895.608 96.7955 895.797 97.2827C895.986 97.7699 896.08 98.3698 896.08 99.0824V99.5795H890.194V98.5653H894.887C894.887 98.1345 894.801 97.75 894.628 97.4119C894.459 97.0739 894.217 96.8071 893.903 96.6115C893.591 96.416 893.223 96.3182 892.799 96.3182C892.331 96.3182 891.927 96.4342 891.586 96.6662C891.248 96.8949 890.988 97.1932 890.805 97.5611C890.623 97.929 890.532 98.3234 890.532 98.7443V99.4205C890.532 99.9972 890.631 100.486 890.83 100.887C891.032 101.285 891.312 101.588 891.67 101.797C892.028 102.002 892.444 102.105 892.918 102.105C893.226 102.105 893.505 102.062 893.753 101.976C894.005 101.886 894.222 101.754 894.405 101.578C894.587 101.399 894.728 101.177 894.827 100.912L895.961 101.23C895.841 101.615 895.641 101.953 895.359 102.244C895.077 102.533 894.729 102.758 894.315 102.92C893.901 103.08 893.435 103.159 892.918 103.159ZM897.865 103V95.3636H898.998V96.517H899.078C899.217 96.1392 899.469 95.8326 899.834 95.5973C900.198 95.362 900.609 95.2443 901.067 95.2443C901.153 95.2443 901.26 95.246 901.39 95.2493C901.519 95.2526 901.617 95.2576 901.683 95.2642V96.4574C901.643 96.4474 901.552 96.4325 901.41 96.4126C901.27 96.3894 901.123 96.3778 900.967 96.3778C900.596 96.3778 900.265 96.4557 899.973 96.6115C899.684 96.764 899.456 96.9761 899.287 97.2479C899.121 97.5163 899.038 97.8229 899.038 98.1676V103H897.865Z" fill="white" fill-opacity="0.95"/>
<path d="M866.052 113.455C866.001 113.023 865.794 112.688 865.43 112.449C865.066 112.21 864.62 112.091 864.092 112.091C863.706 112.091 863.368 112.153 863.078 112.278C862.791 112.403 862.566 112.575 862.404 112.794C862.245 113.013 862.166 113.261 862.166 113.54C862.166 113.773 862.221 113.973 862.332 114.141C862.446 114.305 862.591 114.443 862.767 114.554C862.943 114.662 863.127 114.751 863.321 114.822C863.514 114.891 863.691 114.946 863.853 114.989L864.74 115.227C864.967 115.287 865.22 115.369 865.498 115.474C865.779 115.58 866.048 115.723 866.304 115.905C866.562 116.084 866.775 116.314 866.943 116.595C867.11 116.876 867.194 117.222 867.194 117.631C867.194 118.102 867.071 118.528 866.824 118.909C866.579 119.29 866.221 119.592 865.75 119.817C865.281 120.041 864.711 120.153 864.041 120.153C863.416 120.153 862.875 120.053 862.417 119.851C861.963 119.649 861.605 119.368 861.343 119.007C861.085 118.646 860.939 118.227 860.904 117.75H861.995C862.024 118.08 862.135 118.352 862.328 118.568C862.524 118.781 862.771 118.94 863.069 119.045C863.37 119.148 863.694 119.199 864.041 119.199C864.444 119.199 864.806 119.134 865.127 119.003C865.449 118.869 865.703 118.685 865.89 118.449C866.078 118.21 866.172 117.932 866.172 117.614C866.172 117.324 866.091 117.088 865.929 116.906C865.767 116.724 865.554 116.577 865.289 116.463C865.025 116.349 864.74 116.25 864.433 116.165L863.359 115.858C862.677 115.662 862.137 115.382 861.74 115.018C861.342 114.655 861.143 114.179 861.143 113.591C861.143 113.102 861.275 112.676 861.539 112.312C861.806 111.946 862.164 111.662 862.613 111.46C863.065 111.256 863.569 111.153 864.126 111.153C864.689 111.153 865.189 111.254 865.626 111.456C866.064 111.655 866.41 111.928 866.666 112.274C866.924 112.621 867.061 113.014 867.075 113.455H866.052ZM872.92 117.324V113.455H873.926V120H872.92V118.892H872.852C872.699 119.224 872.46 119.507 872.136 119.74C871.813 119.97 871.403 120.085 870.909 120.085C870.5 120.085 870.136 119.996 869.818 119.817C869.5 119.635 869.25 119.362 869.068 118.999C868.886 118.632 868.795 118.17 868.795 117.614V113.455H869.801V117.545C869.801 118.023 869.935 118.403 870.202 118.688C870.472 118.972 870.815 119.114 871.233 119.114C871.483 119.114 871.737 119.05 871.996 118.922C872.257 118.794 872.476 118.598 872.652 118.334C872.831 118.07 872.92 117.733 872.92 117.324ZM875.904 120V111.273H876.91V114.494H876.995C877.069 114.381 877.172 114.236 877.302 114.06C877.436 113.881 877.626 113.722 877.873 113.582C878.123 113.44 878.461 113.369 878.887 113.369C879.439 113.369 879.924 113.507 880.345 113.783C880.765 114.058 881.093 114.449 881.329 114.955C881.565 115.46 881.683 116.057 881.683 116.744C881.683 117.438 881.565 118.038 881.329 118.547C881.093 119.053 880.767 119.445 880.349 119.723C879.931 119.999 879.45 120.136 878.904 120.136C878.484 120.136 878.147 120.067 877.895 119.928C877.642 119.786 877.447 119.625 877.311 119.446C877.174 119.264 877.069 119.114 876.995 118.994H876.876V120H875.904ZM876.893 116.727C876.893 117.222 876.966 117.658 877.11 118.036C877.255 118.411 877.467 118.705 877.745 118.918C878.024 119.128 878.365 119.233 878.768 119.233C879.189 119.233 879.539 119.122 879.821 118.901C880.105 118.676 880.318 118.375 880.46 117.997C880.605 117.616 880.677 117.193 880.677 116.727C880.677 116.267 880.606 115.852 880.464 115.483C880.325 115.111 880.113 114.817 879.829 114.601C879.548 114.382 879.194 114.273 878.768 114.273C878.359 114.273 878.015 114.376 877.737 114.584C877.458 114.788 877.248 115.075 877.106 115.445C876.964 115.811 876.893 116.239 876.893 116.727ZM884.227 111.273V120H883.221V111.273H884.227ZM886.069 120V113.455H887.075V120H886.069ZM886.58 112.364C886.384 112.364 886.215 112.297 886.073 112.163C885.934 112.03 885.864 111.869 885.864 111.682C885.864 111.494 885.934 111.334 886.073 111.2C886.215 111.067 886.384 111 886.58 111C886.776 111 886.944 111.067 887.083 111.2C887.225 111.334 887.296 111.494 887.296 111.682C887.296 111.869 887.225 112.03 887.083 112.163C886.944 112.297 886.776 112.364 886.58 112.364ZM889.922 116.062V120H888.917V113.455H889.888V114.477H889.973C890.127 114.145 890.36 113.878 890.672 113.676C890.985 113.472 891.388 113.369 891.882 113.369C892.326 113.369 892.713 113.46 893.046 113.642C893.378 113.821 893.637 114.094 893.821 114.46C894.006 114.824 894.098 115.284 894.098 115.841V120H893.093V115.909C893.093 115.395 892.959 114.994 892.692 114.707C892.425 114.418 892.059 114.273 891.593 114.273C891.272 114.273 890.985 114.342 890.732 114.482C890.482 114.621 890.284 114.824 890.14 115.091C889.995 115.358 889.922 115.682 889.922 116.062ZM898.68 120.136C898.05 120.136 897.506 119.997 897.048 119.719C896.594 119.438 896.243 119.045 895.996 118.543C895.751 118.037 895.629 117.449 895.629 116.778C895.629 116.108 895.751 115.517 895.996 115.006C896.243 114.491 896.587 114.091 897.027 113.804C897.47 113.514 897.987 113.369 898.578 113.369C898.919 113.369 899.256 113.426 899.588 113.54C899.92 113.653 900.223 113.838 900.496 114.094C900.768 114.347 900.986 114.682 901.148 115.099C901.31 115.517 901.391 116.031 901.391 116.642V117.068H896.345V116.199H900.368C900.368 115.83 900.294 115.5 900.146 115.21C900.001 114.92 899.794 114.692 899.524 114.524C899.257 114.357 898.942 114.273 898.578 114.273C898.178 114.273 897.831 114.372 897.538 114.571C897.249 114.767 897.026 115.023 896.869 115.338C896.713 115.653 896.635 115.991 896.635 116.352V116.932C896.635 117.426 896.72 117.845 896.891 118.189C897.064 118.53 897.304 118.79 897.611 118.969C897.918 119.145 898.274 119.233 898.68 119.233C898.945 119.233 899.183 119.196 899.396 119.122C899.612 119.045 899.798 118.932 899.955 118.781C900.111 118.628 900.232 118.437 900.317 118.21L901.288 118.483C901.186 118.812 901.014 119.102 900.773 119.352C900.531 119.599 900.233 119.793 899.878 119.932C899.523 120.068 899.124 120.136 898.68 120.136Z" fill="white" fill-opacity="0.95"/>
<g clip-path="url(#clip1_1703_15897)">
<path d="M926.225 109.518C927.045 108.529 927.495 107.285 927.495 106C927.495 104.715 927.045 103.471 926.225 102.483L928.854 99.8535C928.901 99.8073 928.939 99.7521 928.965 99.6912C928.991 99.6303 929.004 99.5648 929.004 99.4987C929.005 99.4325 928.992 99.3668 928.967 99.3056C928.942 99.2444 928.905 99.1887 928.858 99.1419C928.811 99.0951 928.756 99.0581 928.694 99.0329C928.633 99.0078 928.568 98.9951 928.501 98.9955C928.435 98.9959 928.37 99.0095 928.309 99.0354C928.248 99.0613 928.193 99.099 928.146 99.1464L925.518 101.775C924.531 100.951 923.286 100.5 922 100.5C920.714 100.5 919.469 100.951 918.482 101.775L915.854 99.1464C915.759 99.0546 915.633 99.0036 915.501 99.0045C915.37 99.0053 915.244 99.0579 915.151 99.1509C915.058 99.2439 915.005 99.3698 915.005 99.5013C915.004 99.6328 915.055 99.7593 915.146 99.8535L917.775 102.482C916.954 103.471 916.505 104.715 916.505 106C916.505 107.285 916.954 108.529 917.775 109.518L915.146 112.146C915.099 112.193 915.061 112.248 915.035 112.309C915.01 112.37 914.996 112.435 914.996 112.501C914.995 112.567 915.008 112.633 915.033 112.694C915.058 112.756 915.095 112.811 915.142 112.858C915.189 112.905 915.244 112.942 915.306 112.967C915.367 112.992 915.433 113.005 915.499 113.004C915.565 113.004 915.63 112.99 915.691 112.965C915.752 112.939 915.807 112.901 915.854 112.853L918.482 110.225C919.469 111.049 920.714 111.5 922 111.5C923.286 111.5 924.531 111.049 925.518 110.225L928.146 112.853C928.241 112.945 928.367 112.996 928.499 112.995C928.63 112.995 928.756 112.942 928.849 112.849C928.942 112.756 928.995 112.63 928.996 112.499C928.996 112.367 928.945 112.241 928.854 112.146L926.225 109.518ZM925.515 108.808L922.707 106L925.515 103.192C926.15 103.99 926.496 104.98 926.496 106C926.496 107.02 926.15 108.01 925.515 108.808ZM922 101.5C923.021 101.498 924.012 101.845 924.808 102.485L922 105.293L919.192 102.485C919.988 101.845 920.979 101.498 922 101.5ZM918.485 103.192L921.293 106L918.485 108.808C917.849 108.01 917.503 107.02 917.503 106C917.503 104.98 917.849 103.99 918.485 103.192ZM922 110.5C920.979 110.502 919.988 110.155 919.192 109.515L922 106.707L924.808 109.515C924.012 110.155 923.021 110.502 922 110.5Z" fill="white" fill-opacity="0.95"/>
</g>
<rect x="942" y="90" width="88" height="32" rx="16" fill="#3B1840"/>
<g clip-path="url(#clip2_1703_15897)">
<path d="M966.225 109.518C967.045 108.529 967.495 107.285 967.495 106C967.495 104.715 967.045 103.471 966.225 102.483L968.854 99.8535C968.901 99.8073 968.939 99.7521 968.965 99.6912C968.991 99.6303 969.004 99.5648 969.004 99.4987C969.005 99.4325 968.992 99.3668 968.967 99.3056C968.942 99.2444 968.905 99.1887 968.858 99.1419C968.811 99.0951 968.756 99.0581 968.694 99.0329C968.633 99.0078 968.568 98.9951 968.501 98.9955C968.435 98.9959 968.37 99.0095 968.309 99.0354C968.248 99.0613 968.193 99.099 968.146 99.1464L965.518 101.775C964.531 100.951 963.286 100.5 962 100.5C960.714 100.5 959.469 100.951 958.482 101.775L955.854 99.1464C955.759 99.0546 955.633 99.0036 955.501 99.0045C955.37 99.0053 955.244 99.0579 955.151 99.1509C955.058 99.2439 955.005 99.3698 955.005 99.5013C955.004 99.6328 955.055 99.7593 955.146 99.8535L957.775 102.482C956.954 103.471 956.505 104.715 956.505 106C956.505 107.285 956.954 108.529 957.775 109.518L955.146 112.146C955.099 112.193 955.061 112.248 955.035 112.309C955.01 112.37 954.996 112.435 954.996 112.501C954.995 112.567 955.008 112.633 955.033 112.694C955.058 112.756 955.095 112.811 955.142 112.858C955.189 112.905 955.244 112.942 955.306 112.967C955.367 112.992 955.433 113.005 955.499 113.004C955.565 113.004 955.63 112.99 955.691 112.965C955.752 112.939 955.807 112.901 955.854 112.853L958.482 110.225C959.469 111.049 960.714 111.5 962 111.5C963.286 111.5 964.531 111.049 965.518 110.225L968.146 112.853C968.241 112.945 968.367 112.996 968.499 112.995C968.63 112.995 968.756 112.942 968.849 112.849C968.942 112.756 968.995 112.63 968.996 112.499C968.996 112.367 968.945 112.241 968.854 112.146L966.225 109.518ZM965.515 108.808L962.707 106L965.515 103.192C966.15 103.99 966.496 104.98 966.496 106C966.496 107.02 966.15 108.01 965.515 108.808ZM962 101.5C963.021 101.498 964.012 101.845 964.808 102.485L962 105.293L959.192 102.485C959.988 101.845 960.979 101.498 962 101.5ZM958.485 103.192L961.293 106L958.485 108.808C957.849 108.01 957.503 107.02 957.503 106C957.503 104.98 957.849 103.99 958.485 103.192ZM962 110.5C960.979 110.502 959.988 110.155 959.192 109.515L962 106.707L964.808 109.515C964.012 110.155 963.021 110.502 962 110.5Z" fill="#F294F1"/>
</g>
<path d="M977.513 112V100.364H979.268V110.489H984.541V112H977.513ZM988.947 112.193C988.394 112.193 987.894 112.091 987.447 111.886C987 111.678 986.646 111.377 986.385 110.983C986.127 110.589 985.999 110.106 985.999 109.534C985.999 109.042 986.093 108.636 986.283 108.318C986.472 108 986.728 107.748 987.05 107.562C987.372 107.377 987.732 107.237 988.129 107.142C988.527 107.047 988.932 106.975 989.345 106.926C989.868 106.866 990.292 106.816 990.618 106.778C990.944 106.737 991.18 106.67 991.328 106.58C991.476 106.489 991.55 106.341 991.55 106.136V106.097C991.55 105.6 991.41 105.216 991.129 104.943C990.853 104.67 990.44 104.534 989.891 104.534C989.319 104.534 988.868 104.661 988.538 104.915C988.213 105.165 987.987 105.443 987.862 105.75L986.266 105.386C986.455 104.856 986.732 104.428 987.095 104.102C987.463 103.773 987.885 103.534 988.362 103.386C988.839 103.235 989.341 103.159 989.868 103.159C990.216 103.159 990.586 103.201 990.976 103.284C991.37 103.364 991.737 103.511 992.078 103.727C992.423 103.943 992.705 104.252 992.925 104.653C993.144 105.051 993.254 105.568 993.254 106.205V112H991.595V110.807H991.527C991.417 111.027 991.252 111.242 991.033 111.455C990.813 111.667 990.531 111.843 990.186 111.983C989.841 112.123 989.429 112.193 988.947 112.193ZM989.317 110.83C989.786 110.83 990.188 110.737 990.521 110.551C990.858 110.366 991.114 110.123 991.288 109.824C991.466 109.521 991.555 109.197 991.555 108.852V107.727C991.495 107.788 991.377 107.845 991.203 107.898C991.033 107.947 990.838 107.991 990.618 108.028C990.398 108.062 990.184 108.095 989.976 108.125C989.768 108.152 989.593 108.174 989.453 108.193C989.124 108.235 988.822 108.305 988.55 108.403C988.281 108.502 988.065 108.644 987.902 108.83C987.743 109.011 987.663 109.254 987.663 109.557C987.663 109.977 987.819 110.295 988.129 110.511C988.44 110.723 988.836 110.83 989.317 110.83ZM995.653 112V100.364H997.352V104.688H997.455C997.553 104.506 997.695 104.295 997.881 104.057C998.066 103.818 998.324 103.61 998.653 103.432C998.983 103.25 999.419 103.159 999.96 103.159C1000.66 103.159 1001.29 103.337 1001.85 103.693C1002.4 104.049 1002.83 104.562 1003.15 105.233C1003.47 105.903 1003.62 106.71 1003.62 107.653C1003.62 108.597 1003.47 109.405 1003.15 110.08C1002.84 110.75 1002.41 111.267 1001.86 111.631C1001.31 111.991 1000.68 112.17 999.977 112.17C999.447 112.17 999.013 112.081 998.676 111.903C998.343 111.725 998.081 111.517 997.892 111.278C997.703 111.04 997.557 110.828 997.455 110.642H997.312V112H995.653ZM997.318 107.636C997.318 108.25 997.407 108.788 997.585 109.25C997.763 109.712 998.021 110.074 998.358 110.335C998.695 110.593 999.108 110.722 999.597 110.722C1000.1 110.722 1000.53 110.587 1000.87 110.318C1001.21 110.045 1001.47 109.676 1001.64 109.21C1001.82 108.744 1001.91 108.22 1001.91 107.636C1001.91 107.061 1001.82 106.544 1001.65 106.085C1001.48 105.627 1001.22 105.265 1000.88 105C1000.53 104.735 1000.11 104.602 999.597 104.602C999.104 104.602 998.688 104.729 998.347 104.983C998.009 105.237 997.754 105.591 997.58 106.045C997.405 106.5 997.318 107.03 997.318 107.636ZM1009.29 112.176C1008.43 112.176 1007.69 111.992 1007.07 111.625C1006.46 111.254 1005.98 110.733 1005.64 110.062C1005.31 109.388 1005.14 108.598 1005.14 107.693C1005.14 106.799 1005.31 106.011 1005.64 105.33C1005.98 104.648 1006.45 104.116 1007.05 103.733C1007.66 103.35 1008.36 103.159 1009.17 103.159C1009.67 103.159 1010.14 103.241 1010.61 103.403C1011.07 103.566 1011.48 103.822 1011.85 104.17C1012.22 104.519 1012.51 104.972 1012.72 105.528C1012.93 106.081 1013.04 106.754 1013.04 107.545V108.148H1006.1V106.875H1011.37C1011.37 106.428 1011.28 106.032 1011.1 105.688C1010.92 105.339 1010.66 105.064 1010.33 104.864C1010.01 104.663 1009.63 104.562 1009.19 104.562C1008.71 104.562 1008.29 104.68 1007.94 104.915C1007.58 105.146 1007.31 105.449 1007.12 105.824C1006.93 106.195 1006.83 106.598 1006.83 107.034V108.028C1006.83 108.612 1006.94 109.108 1007.14 109.517C1007.35 109.926 1007.64 110.239 1008.01 110.455C1008.38 110.667 1008.81 110.773 1009.31 110.773C1009.63 110.773 1009.93 110.727 1010.19 110.636C1010.46 110.542 1010.69 110.402 1010.88 110.216C1011.07 110.03 1011.22 109.801 1011.32 109.528L1012.93 109.818C1012.8 110.292 1012.57 110.706 1012.24 111.062C1011.91 111.415 1011.49 111.689 1010.99 111.886C1010.5 112.08 1009.93 112.176 1009.29 112.176ZM1016.62 100.364V112H1014.92V100.364H1016.62Z" fill="#F294F1"/>
<g clip-path="url(#clip3_1703_15897)">
<path d="M1054.87 105.625C1054.83 105.625 1054.78 105.635 1054.73 105.653C1054.69 105.672 1054.64 105.7 1054.61 105.735C1054.57 105.77 1054.55 105.811 1054.53 105.856C1054.51 105.902 1054.5 105.951 1054.5 106C1054.5 107.041 1054.14 108.05 1053.48 108.855C1052.82 109.659 1051.9 110.21 1050.88 110.413C1049.86 110.617 1048.8 110.459 1047.88 109.969C1046.96 109.478 1046.24 108.684 1045.84 107.722C1045.44 106.76 1045.39 105.69 1045.69 104.694C1046 103.697 1046.63 102.837 1047.5 102.258C1048.37 101.68 1049.4 101.42 1050.44 101.522C1051.48 101.624 1052.45 102.082 1053.18 102.818C1053.24 102.875 1053.29 102.939 1053.35 103H1051.87C1051.78 103 1051.68 103.039 1051.61 103.11C1051.54 103.18 1051.5 103.275 1051.5 103.375C1051.5 103.474 1051.54 103.57 1051.61 103.64C1051.68 103.71 1051.78 103.75 1051.87 103.75H1054.12C1054.17 103.75 1054.22 103.74 1054.27 103.721C1054.31 103.703 1054.36 103.675 1054.39 103.64C1054.42 103.605 1054.45 103.564 1054.47 103.518C1054.49 103.473 1054.5 103.424 1054.5 103.375V101.125C1054.5 101.025 1054.46 100.93 1054.39 100.86C1054.32 100.789 1054.22 100.75 1054.12 100.75C1054.03 100.75 1053.93 100.789 1053.86 100.86C1053.79 100.93 1053.75 101.025 1053.75 101.125V102.329C1053.74 102.316 1053.73 102.301 1053.71 102.288C1052.85 101.429 1051.72 100.894 1050.51 100.775C1049.31 100.656 1048.09 100.96 1047.08 101.635C1046.07 102.31 1045.33 103.314 1044.98 104.476C1044.62 105.638 1044.69 106.887 1045.15 108.009C1045.61 109.131 1046.45 110.057 1047.53 110.63C1048.6 111.202 1049.83 111.386 1051.02 111.149C1052.22 110.912 1053.29 110.269 1054.06 109.33C1054.83 108.392 1055.25 107.215 1055.25 106C1055.25 105.951 1055.24 105.902 1055.22 105.856C1055.2 105.811 1055.17 105.77 1055.14 105.735C1055.11 105.7 1055.06 105.672 1055.02 105.653C1054.97 105.635 1054.92 105.625 1054.87 105.625Z" fill="#F294F1"/>
</g>
<defs>
<clipPath id="clip0_1703_15897">
<rect width="12" height="12" fill="white" transform="translate(94 100)"/>
</clipPath>
<clipPath id="clip1_1703_15897">
<rect width="16" height="16" fill="white" transform="translate(914 98)"/>
</clipPath>
<clipPath id="clip2_1703_15897">
<rect width="16" height="16" fill="white" transform="translate(954 98)"/>
</clipPath>
<clipPath id="clip3_1703_15897">
<rect width="12" height="12" fill="white" transform="translate(1044 100)"/>
</clipPath>
</defs>
</svg>
