<svg width="663" height="36" viewBox="0 0 663 36" fill="none" xmlns="http://www.w3.org/2000/svg">
<path d="M24.5 18.0005H22.625V16.1255C22.625 15.9597 22.5592 15.8007 22.4419 15.6835C22.3247 15.5663 22.1658 15.5005 22 15.5005C21.8342 15.5005 21.6753 15.5663 21.5581 15.6835C21.4408 15.8007 21.375 15.9597 21.375 16.1255V18.0005H19.5C19.3342 18.0005 19.1753 18.0663 19.0581 18.1835C18.9408 18.3007 18.875 18.4597 18.875 18.6255C18.875 18.7912 18.9408 18.9502 19.0581 19.0674C19.1753 19.1846 19.3342 19.2505 19.5 19.2505H21.375V21.1255C21.375 21.2912 21.4408 21.4502 21.5581 21.5674C21.6753 21.6846 21.8342 21.7505 22 21.7505C22.1658 21.7505 22.3247 21.6846 22.4419 21.5674C22.5592 21.4502 22.625 21.2912 22.625 21.1255V19.2505H24.5C24.6658 19.2505 24.8247 19.1846 24.9419 19.0674C25.0592 18.9502 25.125 18.7912 25.125 18.6255C25.125 18.4597 25.0592 18.3007 24.9419 18.1835C24.8247 18.0663 24.6658 18.0005 24.5 18.0005Z" fill="white" fill-opacity="0.95"/>
<path d="M26.375 11.1249V9.87549C26.375 9.70973 26.3092 9.55076 26.1919 9.43355C26.0747 9.31634 25.9158 9.25049 25.75 9.25049C25.5842 9.25049 25.4253 9.31634 25.3081 9.43355C25.1908 9.55076 25.125 9.70973 25.125 9.87549V11.1249H18.875V9.87549C18.875 9.70973 18.8092 9.55076 18.6919 9.43355C18.5747 9.31634 18.4158 9.25049 18.25 9.25049C18.0842 9.25049 17.9253 9.31634 17.8081 9.43355C17.6908 9.55076 17.625 9.70973 17.625 9.87549V11.1249C16.7965 11.1258 16.0022 11.4554 15.4164 12.0412C14.8305 12.6271 14.501 13.4214 14.5 14.2499V22.9999C14.501 23.8284 14.8305 24.6227 15.4164 25.2085C16.0022 25.7943 16.7965 26.1239 17.625 26.1249H26.375C27.2035 26.1239 27.9978 25.7943 28.5836 25.2085C29.1695 24.6227 29.499 23.8284 29.5 22.9999V14.2499C29.499 13.4214 29.1695 12.6271 28.5836 12.0412C27.9978 11.4554 27.2035 11.1258 26.375 11.1249ZM28.25 22.9999C28.2495 23.497 28.0517 23.9736 27.7002 24.3251C27.3487 24.6766 26.8721 24.8743 26.375 24.8749H17.625C17.1279 24.8743 16.6513 24.6766 16.2998 24.3251C15.9483 23.9736 15.7505 23.497 15.75 22.9999V14.2499C15.7505 13.7527 15.9483 13.2762 16.2998 12.9246C16.6513 12.5731 17.1279 12.3754 17.625 12.3749L25.75 12.3755L25.753 12.3749H26.375C26.8721 12.3754 27.3487 12.5731 27.7002 12.9246C28.0517 13.2761 28.2495 13.7527 28.25 14.2499V22.9999Z" fill="white" fill-opacity="0.95"/>
<path d="M45.233 12.8182H46.7045L50.1648 21.2699H50.2841L53.7443 12.8182H55.2159V23H54.0625V15.2642H53.9631L50.7812 23H49.6676L46.4858 15.2642H46.3864V23H45.233V12.8182ZM60.7306 23.1591C59.9949 23.1591 59.3601 22.9967 58.8265 22.6719C58.2962 22.3438 57.8869 21.8864 57.5985 21.2997C57.3135 20.7098 57.171 20.0237 57.171 19.2415C57.171 18.4593 57.3135 17.7699 57.5985 17.1733C57.8869 16.5734 58.2879 16.1061 58.8017 15.7713C59.3187 15.4332 59.9219 15.2642 60.6113 15.2642C61.0091 15.2642 61.4018 15.3305 61.7896 15.4631C62.1774 15.5956 62.5304 15.8111 62.8485 16.1094C63.1667 16.4044 63.4203 16.7955 63.6092 17.2827C63.7981 17.7699 63.8926 18.3698 63.8926 19.0824V19.5795H58.0062V18.5653H62.6994C62.6994 18.1345 62.6132 17.75 62.4409 17.4119C62.2718 17.0739 62.0299 16.8071 61.715 16.6115C61.4035 16.416 61.0356 16.3182 60.6113 16.3182C60.144 16.3182 59.7396 16.4342 59.3983 16.6662C59.0602 16.8949 58.8 17.1932 58.6177 17.5611C58.4354 17.929 58.3443 18.3234 58.3443 18.7443V19.4205C58.3443 19.9972 58.4437 20.486 58.6426 20.8871C58.8448 21.2848 59.1248 21.5881 59.4828 21.7969C59.8407 22.0024 60.2567 22.1051 60.7306 22.1051C61.0389 22.1051 61.3173 22.062 61.5659 21.9759C61.8178 21.8864 62.0349 21.7538 62.2172 21.5781C62.3994 21.3991 62.5403 21.1771 62.6397 20.9119L63.7733 21.2301C63.6539 21.6146 63.4534 21.9527 63.1717 22.2443C62.89 22.5327 62.542 22.758 62.1277 22.9205C61.7134 23.0795 61.2477 23.1591 60.7306 23.1591ZM68.8791 23.1591C68.1433 23.1591 67.5086 22.9967 66.975 22.6719C66.4447 22.3438 66.0353 21.8864 65.747 21.2997C65.4619 20.7098 65.3194 20.0237 65.3194 19.2415C65.3194 18.4593 65.4619 17.7699 65.747 17.1733C66.0353 16.5734 66.4364 16.1061 66.9501 15.7713C67.4672 15.4332 68.0704 15.2642 68.7598 15.2642C69.1575 15.2642 69.5502 15.3305 69.938 15.4631C70.3258 15.5956 70.6788 15.8111 70.997 16.1094C71.3152 16.4044 71.5687 16.7955 71.7576 17.2827C71.9466 17.7699 72.041 18.3698 72.041 19.0824V19.5795H66.1547V18.5653H70.8478C70.8478 18.1345 70.7617 17.75 70.5893 17.4119C70.4203 17.0739 70.1783 16.8071 69.8635 16.6115C69.5519 16.416 69.184 16.3182 68.7598 16.3182C68.2924 16.3182 67.8881 16.4342 67.5467 16.6662C67.2086 16.8949 66.9484 17.1932 66.7662 17.5611C66.5839 17.929 66.4927 18.3234 66.4927 18.7443V19.4205C66.4927 19.9972 66.5922 20.486 66.791 20.8871C66.9932 21.2848 67.2733 21.5881 67.6312 21.7969C67.9892 22.0024 68.4051 22.1051 68.8791 22.1051C69.1873 22.1051 69.4657 22.062 69.7143 21.9759C69.9662 21.8864 70.1833 21.7538 70.3656 21.5781C70.5479 21.3991 70.6887 21.1771 70.7882 20.9119L71.9217 21.2301C71.8024 21.6146 71.6019 21.9527 71.3201 22.2443C71.0384 22.5327 70.6904 22.758 70.2761 22.9205C69.8618 23.0795 69.3961 23.1591 68.8791 23.1591ZM77.1468 15.3636V16.358H73.1895V15.3636H77.1468ZM74.3429 13.5341H75.5162V20.8125C75.5162 21.1439 75.5642 21.3925 75.6603 21.5582C75.7598 21.7206 75.8857 21.83 76.0382 21.8864C76.194 21.9394 76.358 21.9659 76.5304 21.9659C76.6596 21.9659 76.7657 21.9593 76.8485 21.946C76.9314 21.9295 76.9977 21.9162 77.0474 21.9062L77.286 22.9602C77.2065 22.9901 77.0955 23.0199 76.9529 23.0497C76.8104 23.0829 76.6298 23.0994 76.411 23.0994C76.0796 23.0994 75.7548 23.0282 75.4366 22.8857C75.1217 22.7431 74.8599 22.526 74.6511 22.2344C74.4456 21.9427 74.3429 21.5748 74.3429 21.1307V13.5341ZM78.9118 23V15.3636H80.085V23H78.9118ZM79.5083 14.0909C79.2797 14.0909 79.0824 14.013 78.9167 13.8572C78.7543 13.7015 78.6731 13.5142 78.6731 13.2955C78.6731 13.0767 78.7543 12.8894 78.9167 12.7337C79.0824 12.5779 79.2797 12.5 79.5083 12.5C79.737 12.5 79.9326 12.5779 80.095 12.7337C80.2607 12.8894 80.3436 13.0767 80.3436 13.2955C80.3436 13.5142 80.2607 13.7015 80.095 13.8572C79.9326 14.013 79.737 14.0909 79.5083 14.0909ZM83.4073 18.4062V23H82.234V15.3636H83.3675V16.5568H83.467C83.646 16.169 83.9177 15.8575 84.2823 15.6222C84.6469 15.3835 85.1175 15.2642 85.6942 15.2642C86.2113 15.2642 86.6637 15.3703 87.0515 15.5824C87.4393 15.7912 87.7409 16.1094 87.9563 16.5369C88.1718 16.9612 88.2795 17.4981 88.2795 18.1477V23H87.1062V18.2273C87.1062 17.6274 86.9504 17.16 86.6388 16.8253C86.3273 16.4872 85.8997 16.3182 85.3562 16.3182C84.9817 16.3182 84.6469 16.3994 84.3519 16.5618C84.0603 16.7242 83.8299 16.9612 83.6609 17.2727C83.4918 17.5843 83.4073 17.9621 83.4073 18.4062ZM93.5059 26.0227C92.9391 26.0227 92.4519 25.9498 92.0442 25.804C91.6365 25.6615 91.2968 25.4725 91.025 25.2372C90.7566 25.0052 90.5428 24.7566 90.3837 24.4915L91.3184 23.8352C91.4244 23.9744 91.5587 24.1335 91.7211 24.3125C91.8835 24.4948 92.1055 24.6522 92.3873 24.7848C92.6723 24.9207 93.0452 24.9886 93.5059 24.9886C94.1223 24.9886 94.6311 24.8395 95.0321 24.5412C95.4332 24.2429 95.6337 23.7756 95.6337 23.1392V21.5881H95.5343C95.4481 21.7273 95.3255 21.8996 95.1664 22.1051C95.0106 22.3073 94.7852 22.4879 94.4902 22.647C94.1986 22.8028 93.8042 22.8807 93.307 22.8807C92.6905 22.8807 92.137 22.7348 91.6465 22.4432C91.1593 22.1515 90.7731 21.7273 90.4881 21.1705C90.2064 20.6136 90.0655 19.9375 90.0655 19.142C90.0655 18.3598 90.2031 17.6787 90.4782 17.0987C90.7533 16.5154 91.1361 16.0646 91.6266 15.7464C92.1171 15.425 92.6839 15.2642 93.3269 15.2642C93.824 15.2642 94.2185 15.3471 94.5101 15.5128C94.8051 15.6752 95.0305 15.8608 95.1863 16.0696C95.3453 16.2751 95.468 16.4441 95.5542 16.5767H95.6735V15.3636H96.807V23.2188C96.807 23.875 96.6578 24.4086 96.3596 24.8196C96.0646 25.2339 95.6668 25.5372 95.1664 25.7294C94.6692 25.925 94.1157 26.0227 93.5059 26.0227ZM93.4661 21.8267C93.9367 21.8267 94.3345 21.719 94.6593 21.5036C94.9841 21.2881 95.231 20.9782 95.4 20.5739C95.5691 20.1695 95.6536 19.6856 95.6536 19.1222C95.6536 18.572 95.5707 18.0864 95.405 17.6655C95.2393 17.2446 94.994 16.9148 94.6692 16.6761C94.3444 16.4375 93.9434 16.3182 93.4661 16.3182C92.9689 16.3182 92.5546 16.4441 92.2232 16.696C91.8951 16.9479 91.6481 17.286 91.4824 17.7102C91.32 18.1345 91.2388 18.6051 91.2388 19.1222C91.2388 19.6525 91.3217 20.1214 91.4874 20.5291C91.6564 20.9335 91.905 21.2517 92.2331 21.4837C92.5646 21.7124 92.9756 21.8267 93.4661 21.8267ZM108.301 17.0739L107.247 17.3722C107.181 17.1965 107.083 17.0258 106.954 16.8601C106.828 16.6911 106.656 16.5518 106.437 16.4425C106.218 16.3331 105.938 16.2784 105.597 16.2784C105.129 16.2784 104.74 16.3861 104.428 16.6016C104.12 16.8137 103.966 17.0838 103.966 17.4119C103.966 17.7036 104.072 17.9339 104.284 18.103C104.496 18.272 104.828 18.4129 105.279 18.5256L106.412 18.804C107.095 18.9697 107.604 19.2232 107.938 19.5646C108.273 19.9027 108.441 20.3385 108.441 20.8722C108.441 21.3097 108.315 21.7008 108.063 22.0455C107.814 22.3902 107.466 22.6619 107.019 22.8608C106.571 23.0597 106.051 23.1591 105.458 23.1591C104.679 23.1591 104.034 22.9901 103.524 22.652C103.013 22.3139 102.69 21.8201 102.554 21.1705L103.668 20.892C103.774 21.303 103.974 21.6113 104.269 21.8168C104.568 22.0223 104.957 22.125 105.438 22.125C105.985 22.125 106.419 22.009 106.74 21.777C107.065 21.5417 107.227 21.2599 107.227 20.9318C107.227 20.6667 107.135 20.4446 106.949 20.2656C106.763 20.0833 106.478 19.9474 106.094 19.858L104.821 19.5597C104.122 19.3939 103.608 19.1371 103.28 18.7891C102.955 18.4377 102.793 17.9986 102.793 17.4716C102.793 17.0407 102.914 16.6596 103.156 16.3281C103.401 15.9967 103.734 15.7365 104.155 15.5476C104.579 15.3587 105.06 15.2642 105.597 15.2642C106.352 15.2642 106.946 15.4299 107.377 15.7614C107.811 16.0928 108.119 16.5303 108.301 17.0739ZM113.309 23.1591C112.593 23.1591 111.977 22.9901 111.46 22.652C110.942 22.3139 110.545 21.8482 110.266 21.255C109.988 20.6617 109.849 19.9839 109.849 19.2216C109.849 18.446 109.991 17.7616 110.276 17.1683C110.565 16.5717 110.966 16.1061 111.479 15.7713C111.996 15.4332 112.6 15.2642 113.289 15.2642C113.826 15.2642 114.31 15.3636 114.741 15.5625C115.172 15.7614 115.525 16.0398 115.8 16.3977C116.075 16.7557 116.246 17.1733 116.312 17.6506H115.138C115.049 17.3026 114.85 16.9943 114.542 16.7259C114.237 16.4541 113.826 16.3182 113.309 16.3182C112.852 16.3182 112.451 16.4375 112.106 16.6761C111.764 16.9115 111.498 17.2446 111.305 17.6754C111.116 18.103 111.022 18.6051 111.022 19.1818C111.022 19.7718 111.115 20.2855 111.3 20.723C111.489 21.1605 111.754 21.5002 112.096 21.7422C112.441 21.9841 112.845 22.1051 113.309 22.1051C113.614 22.1051 113.891 22.0521 114.139 21.946C114.388 21.84 114.598 21.6875 114.771 21.4886C114.943 21.2898 115.066 21.0511 115.138 20.7727H116.312C116.246 21.2235 116.081 21.6295 115.82 21.9908C115.561 22.3487 115.218 22.6338 114.79 22.8459C114.366 23.0547 113.872 23.1591 113.309 23.1591ZM119.2 18.4062V23H118.027V12.8182H119.2V16.5568H119.3C119.479 16.1624 119.747 15.8492 120.105 15.6172C120.466 15.3819 120.947 15.2642 121.547 15.2642C122.067 15.2642 122.523 15.3686 122.914 15.5774C123.305 15.7829 123.608 16.0994 123.824 16.527C124.043 16.9512 124.152 17.4915 124.152 18.1477V23H122.979V18.2273C122.979 17.6207 122.821 17.1518 122.506 16.8203C122.195 16.4856 121.762 16.3182 121.209 16.3182C120.824 16.3182 120.48 16.3994 120.175 16.5618C119.873 16.7242 119.634 16.9612 119.459 17.2727C119.286 17.5843 119.2 17.9621 119.2 18.4062ZM129.5 23.1591C128.764 23.1591 128.13 22.9967 127.596 22.6719C127.066 22.3438 126.656 21.8864 126.368 21.2997C126.083 20.7098 125.941 20.0237 125.941 19.2415C125.941 18.4593 126.083 17.7699 126.368 17.1733C126.656 16.5734 127.057 16.1061 127.571 15.7713C128.088 15.4332 128.691 15.2642 129.381 15.2642C129.779 15.2642 130.171 15.3305 130.559 15.4631C130.947 15.5956 131.3 15.8111 131.618 16.1094C131.936 16.4044 132.19 16.7955 132.379 17.2827C132.568 17.7699 132.662 18.3698 132.662 19.0824V19.5795H126.776V18.5653H131.469C131.469 18.1345 131.383 17.75 131.21 17.4119C131.041 17.0739 130.799 16.8071 130.485 16.6115C130.173 16.416 129.805 16.3182 129.381 16.3182C128.914 16.3182 128.509 16.4342 128.168 16.6662C127.83 16.8949 127.57 17.1932 127.387 17.5611C127.205 17.929 127.114 18.3234 127.114 18.7443V19.4205C127.114 19.9972 127.213 20.486 127.412 20.8871C127.614 21.2848 127.894 21.5881 128.252 21.7969C128.61 22.0024 129.026 22.1051 129.5 22.1051C129.808 22.1051 130.087 22.062 130.335 21.9759C130.587 21.8864 130.804 21.7538 130.987 21.5781C131.169 21.3991 131.31 21.1771 131.409 20.9119L132.543 21.2301C132.423 21.6146 132.223 21.9527 131.941 22.2443C131.66 22.5327 131.311 22.758 130.897 22.9205C130.483 23.0795 130.017 23.1591 129.5 23.1591ZM137.33 23.1591C136.694 23.1591 136.132 22.9983 135.645 22.6768C135.158 22.352 134.777 21.8946 134.502 21.3047C134.227 20.7114 134.089 20.0104 134.089 19.2017C134.089 18.3996 134.227 17.7036 134.502 17.1136C134.777 16.5237 135.16 16.0679 135.65 15.7464C136.141 15.425 136.707 15.2642 137.35 15.2642C137.847 15.2642 138.24 15.3471 138.529 15.5128C138.82 15.6752 139.042 15.8608 139.195 16.0696C139.351 16.2751 139.472 16.4441 139.558 16.5767H139.657V12.8182H140.83V23H139.697V21.8267H139.558C139.472 21.9659 139.349 22.1416 139.19 22.3537C139.031 22.5625 138.804 22.7498 138.509 22.9155C138.214 23.0779 137.821 23.1591 137.33 23.1591ZM137.49 22.1051C137.96 22.1051 138.358 21.9825 138.683 21.7372C139.008 21.4886 139.254 21.1456 139.423 20.7081C139.593 20.2673 139.677 19.7585 139.677 19.1818C139.677 18.6117 139.594 18.1129 139.428 17.6854C139.263 17.2545 139.017 16.9197 138.693 16.6811C138.368 16.4392 137.967 16.3182 137.49 16.3182C136.992 16.3182 136.578 16.4458 136.247 16.701C135.919 16.9529 135.672 17.2959 135.506 17.7301C135.343 18.161 135.262 18.6449 135.262 19.1818C135.262 19.7254 135.345 20.2192 135.511 20.6634C135.68 21.1042 135.928 21.4555 136.257 21.7173C136.588 21.9759 136.999 22.1051 137.49 22.1051ZM147.955 19.8778V15.3636H149.128V23H147.955V21.7074H147.875C147.696 22.0952 147.418 22.425 147.04 22.6967C146.662 22.9652 146.185 23.0994 145.608 23.0994C145.131 23.0994 144.707 22.995 144.335 22.7862C143.964 22.5741 143.673 22.2559 143.46 21.8317C143.248 21.4041 143.142 20.8655 143.142 20.2159V15.3636H144.316V20.1364C144.316 20.6932 144.471 21.1373 144.783 21.4688C145.098 21.8002 145.499 21.9659 145.986 21.9659C146.278 21.9659 146.574 21.8913 146.876 21.7422C147.181 21.593 147.436 21.3643 147.642 21.0561C147.85 20.7479 147.955 20.3551 147.955 19.8778ZM152.45 12.8182V23H151.277V12.8182H152.45ZM157.801 23.1591C157.065 23.1591 156.43 22.9967 155.897 22.6719C155.367 22.3438 154.957 21.8864 154.669 21.2997C154.384 20.7098 154.241 20.0237 154.241 19.2415C154.241 18.4593 154.384 17.7699 154.669 17.1733C154.957 16.5734 155.358 16.1061 155.872 15.7713C156.389 15.4332 156.992 15.2642 157.682 15.2642C158.079 15.2642 158.472 15.3305 158.86 15.4631C159.248 15.5956 159.601 15.8111 159.919 16.1094C160.237 16.4044 160.491 16.7955 160.68 17.2827C160.868 17.7699 160.963 18.3698 160.963 19.0824V19.5795H155.077V18.5653H159.77C159.77 18.1345 159.684 17.75 159.511 17.4119C159.342 17.0739 159.1 16.8071 158.785 16.6115C158.474 16.416 158.106 16.3182 157.682 16.3182C157.214 16.3182 156.81 16.4342 156.469 16.6662C156.131 16.8949 155.87 17.1932 155.688 17.5611C155.506 17.929 155.415 18.3234 155.415 18.7443V19.4205C155.415 19.9972 155.514 20.486 155.713 20.8871C155.915 21.2848 156.195 21.5881 156.553 21.7969C156.911 22.0024 157.327 22.1051 157.801 22.1051C158.109 22.1051 158.388 22.062 158.636 21.9759C158.888 21.8864 159.105 21.7538 159.287 21.5781C159.47 21.3991 159.611 21.1771 159.71 20.9119L160.844 21.2301C160.724 21.6146 160.524 21.9527 160.242 22.2443C159.96 22.5327 159.612 22.758 159.198 22.9205C158.784 23.0795 158.318 23.1591 157.801 23.1591ZM162.748 23V15.3636H163.881V16.517H163.961C164.1 16.1392 164.352 15.8326 164.716 15.5973C165.081 15.362 165.492 15.2443 165.949 15.2443C166.036 15.2443 166.143 15.246 166.273 15.2493C166.402 15.2526 166.5 15.2576 166.566 15.2642V16.4574C166.526 16.4474 166.435 16.4325 166.292 16.4126C166.153 16.3894 166.006 16.3778 165.85 16.3778C165.479 16.3778 165.147 16.4557 164.856 16.6115C164.567 16.764 164.339 16.9761 164.17 17.2479C164.004 17.5163 163.921 17.8229 163.921 18.1676V23H162.748Z" fill="white" fill-opacity="0.95"/>
</svg>
