<svg width="663" height="36" viewBox="0 0 663 36" fill="none" xmlns="http://www.w3.org/2000/svg">
<path d="M27.6252 10.4998H16.3752C15.5467 10.5007 14.7525 10.8303 14.1666 11.4161C13.5808 12.002 13.2512 12.7963 13.2502 13.6248V19.2595C13.2502 19.2699 13.2502 19.2797 13.2509 19.29C13.2502 19.2998 13.2502 19.3096 13.2502 19.3199V19.8748C13.2512 20.7033 13.5808 21.4975 14.1666 22.0834C14.7525 22.6692 15.5467 22.9988 16.3752 22.9998H18.8757L18.5005 23.5002C18.3613 23.6859 18.2766 23.9067 18.2558 24.1378C18.235 24.3689 18.2789 24.6013 18.3827 24.8088C18.4865 25.0164 18.646 25.191 18.8434 25.313C19.0407 25.435 19.2682 25.4997 19.5002 25.4998H24.5002C24.7323 25.4997 24.9598 25.4351 25.1572 25.313C25.3546 25.191 25.5141 25.0164 25.6178 24.8088C25.7215 24.6012 25.7654 24.3688 25.7445 24.1377C25.7236 23.9066 25.6387 23.6858 25.4994 23.5002L25.1245 22.9998H27.6252C28.4537 22.9988 29.248 22.6692 29.8339 22.0834C30.4197 21.4975 30.7493 20.7033 30.7502 19.8748V13.6248C30.7493 12.7963 30.4197 12.002 29.8339 11.4161C29.248 10.8303 28.4537 10.5007 27.6252 10.4998ZM24.5002 24.2498H19.5002L20.4377 22.9998H23.5627L24.5002 24.2498ZM29.5002 19.8748C29.4997 20.3719 29.302 20.8485 28.9505 21.2C28.599 21.5515 28.1224 21.7492 27.6252 21.7498H16.3752C15.8781 21.7492 15.4015 21.5515 15.05 21.2C14.6985 20.8485 14.5008 20.3719 14.5002 19.8748V19.3199C14.5002 19.3096 14.5002 19.2998 14.4996 19.29C14.5002 19.2797 14.5002 19.2699 14.5002 19.2595V13.6248C14.5008 13.1276 14.6985 12.651 15.05 12.2995C15.4015 11.948 15.8781 11.7503 16.3752 11.7498H27.6252C28.1224 11.7503 28.599 11.948 28.9505 12.2995C29.302 12.651 29.4997 13.1276 29.5002 13.6248V19.8748Z" fill="white" fill-opacity="0.95"/>
<path d="M45.6506 12.8182L48.6733 21.3892H48.7926L51.8153 12.8182H53.108L49.3693 23H48.0966L44.358 12.8182H45.6506ZM54.5348 23V15.3636H55.7081V23H54.5348ZM55.1314 14.0909C54.9027 14.0909 54.7055 14.013 54.5398 13.8572C54.3774 13.7015 54.2962 13.5142 54.2962 13.2955C54.2962 13.0767 54.3774 12.8894 54.5398 12.7337C54.7055 12.5779 54.9027 12.5 55.1314 12.5C55.3601 12.5 55.5556 12.5779 55.718 12.7337C55.8838 12.8894 55.9666 13.0767 55.9666 13.2955C55.9666 13.5142 55.8838 13.7015 55.718 13.8572C55.5556 14.013 55.3601 14.0909 55.1314 14.0909ZM57.8571 23V15.3636H58.9906V16.517H59.0701C59.2093 16.1392 59.4612 15.8326 59.8258 15.5973C60.1904 15.362 60.6014 15.2443 61.0588 15.2443C61.1449 15.2443 61.2527 15.246 61.3819 15.2493C61.5112 15.2526 61.609 15.2576 61.6752 15.2642V16.4574C61.6355 16.4474 61.5443 16.4325 61.4018 16.4126C61.2626 16.3894 61.1151 16.3778 60.9593 16.3778C60.5881 16.3778 60.2567 16.4557 59.965 16.6115C59.6767 16.764 59.448 16.9761 59.2789 17.2479C59.1132 17.5163 59.0304 17.8229 59.0304 18.1676V23H57.8571ZM66.8656 15.3636V16.358H62.9082V15.3636H66.8656ZM64.0616 13.5341H65.2349V20.8125C65.2349 21.1439 65.283 21.3925 65.3791 21.5582C65.4785 21.7206 65.6045 21.83 65.7569 21.8864C65.9127 21.9394 66.0768 21.9659 66.2491 21.9659C66.3784 21.9659 66.4844 21.9593 66.5673 21.946C66.6502 21.9295 66.7164 21.9162 66.7662 21.9062L67.0048 22.9602C66.9252 22.9901 66.8142 23.0199 66.6717 23.0497C66.5292 23.0829 66.3485 23.0994 66.1298 23.0994C65.7984 23.0994 65.4735 23.0282 65.1554 22.8857C64.8405 22.7431 64.5787 22.526 64.3699 22.2344C64.1644 21.9427 64.0616 21.5748 64.0616 21.1307V13.5341ZM73.443 19.8778V15.3636H74.6163V23H73.443V21.7074H73.3635C73.1845 22.0952 72.9061 22.425 72.5282 22.6967C72.1504 22.9652 71.6731 23.0994 71.0964 23.0994C70.6191 23.0994 70.1949 22.995 69.8237 22.7862C69.4525 22.5741 69.1608 22.2559 68.9487 21.8317C68.7366 21.4041 68.6305 20.8655 68.6305 20.2159V15.3636H69.8038V20.1364C69.8038 20.6932 69.9596 21.1373 70.2711 21.4688C70.586 21.8002 70.987 21.9659 71.4743 21.9659C71.7659 21.9659 72.0626 21.8913 72.3642 21.7422C72.6691 21.593 72.9243 21.3643 73.1298 21.0561C73.3386 20.7479 73.443 20.3551 73.443 19.8778ZM79.0124 23.179C78.5285 23.179 78.0894 23.0878 77.695 22.9055C77.3005 22.7199 76.9873 22.4531 76.7553 22.1051C76.5233 21.7538 76.4073 21.3295 76.4073 20.8324C76.4073 20.3949 76.4935 20.0402 76.6658 19.7685C76.8382 19.4934 77.0685 19.2779 77.3569 19.1222C77.6452 18.9664 77.9634 18.8504 78.3114 18.7741C78.6628 18.6946 79.0157 18.6316 79.3704 18.5852C79.8344 18.5256 80.2106 18.4808 80.4989 18.451C80.7906 18.4179 81.0027 18.3632 81.1353 18.2869C81.2712 18.2107 81.3391 18.0781 81.3391 17.8892V17.8494C81.3391 17.3589 81.2049 16.9777 80.9364 16.706C80.6713 16.4342 80.2686 16.2983 79.7283 16.2983C79.1682 16.2983 78.729 16.4209 78.4109 16.6662C78.0927 16.9115 77.869 17.1733 77.7397 17.4517L76.6261 17.054C76.8249 16.59 77.0901 16.2287 77.4215 15.9702C77.7563 15.7083 78.1209 15.526 78.5153 15.4233C78.913 15.3172 79.3041 15.2642 79.6886 15.2642C79.9338 15.2642 80.2156 15.294 80.5337 15.3537C80.8552 15.41 81.1651 15.5277 81.4634 15.7067C81.765 15.8857 82.0153 16.1558 82.2141 16.517C82.413 16.8783 82.5124 17.3622 82.5124 17.9688V23H81.3391V21.9659H81.2795C81.1999 22.1316 81.0674 22.3089 80.8817 22.4979C80.6961 22.6868 80.4492 22.8475 80.141 22.9801C79.8327 23.1127 79.4566 23.179 79.0124 23.179ZM79.1914 22.125C79.6554 22.125 80.0465 22.0339 80.3647 21.8516C80.6862 21.6693 80.9281 21.4339 81.0906 21.1456C81.2563 20.8572 81.3391 20.554 81.3391 20.2358V19.1619C81.2894 19.2216 81.18 19.2763 81.011 19.326C80.8453 19.3724 80.6531 19.4138 80.4343 19.4503C80.2189 19.4834 80.0084 19.5133 79.8029 19.5398C79.6007 19.563 79.4367 19.5829 79.3107 19.5994C79.0058 19.6392 78.7208 19.7038 78.4556 19.7933C78.1938 19.8795 77.9817 20.0104 77.8192 20.1861C77.6602 20.3584 77.5806 20.5937 77.5806 20.892C77.5806 21.2997 77.7314 21.608 78.033 21.8168C78.3379 22.0223 78.7241 22.125 79.1914 22.125ZM85.8272 12.8182V23H84.6539V12.8182H85.8272ZM92.0728 23V12.8182H93.2461V16.5767H93.3455C93.4317 16.4441 93.551 16.2751 93.7035 16.0696C93.8593 15.8608 94.0813 15.6752 94.3697 15.5128C94.6613 15.3471 95.0558 15.2642 95.5529 15.2642C96.1959 15.2642 96.7627 15.425 97.2532 15.7464C97.7437 16.0679 98.1265 16.5237 98.4016 17.1136C98.6767 17.7036 98.8143 18.3996 98.8143 19.2017C98.8143 20.0104 98.6767 20.7114 98.4016 21.3047C98.1265 21.8946 97.7454 22.352 97.2582 22.6768C96.771 22.9983 96.2092 23.1591 95.5728 23.1591C95.0823 23.1591 94.6895 23.0779 94.3945 22.9155C94.0996 22.7498 93.8725 22.5625 93.7134 22.3537C93.5543 22.1416 93.4317 21.9659 93.3455 21.8267H93.2063V23H92.0728ZM93.2262 19.1818C93.2262 19.7585 93.3107 20.2673 93.4798 20.7081C93.6488 21.1456 93.8957 21.4886 94.2205 21.7372C94.5453 21.9825 94.9431 22.1051 95.4137 22.1051C95.9042 22.1051 96.3136 21.9759 96.6417 21.7173C96.9731 21.4555 97.2217 21.1042 97.3874 20.6634C97.5565 20.2192 97.641 19.7254 97.641 19.1818C97.641 18.6449 97.5581 18.161 97.3924 17.7301C97.23 17.2959 96.9831 16.9529 96.6516 16.701C96.3235 16.4458 95.9109 16.3182 95.4137 16.3182C94.9364 16.3182 94.5354 16.4392 94.2106 16.6811C93.8858 16.9197 93.6405 17.2545 93.4748 17.6854C93.3091 18.1129 93.2262 18.6117 93.2262 19.1818ZM102.856 23.179C102.372 23.179 101.933 23.0878 101.539 22.9055C101.144 22.7199 100.831 22.4531 100.599 22.1051C100.367 21.7538 100.251 21.3295 100.251 20.8324C100.251 20.3949 100.337 20.0402 100.51 19.7685C100.682 19.4934 100.912 19.2779 101.201 19.1222C101.489 18.9664 101.807 18.8504 102.155 18.7741C102.507 18.6946 102.859 18.6316 103.214 18.5852C103.678 18.5256 104.054 18.4808 104.343 18.451C104.634 18.4179 104.846 18.3632 104.979 18.2869C105.115 18.2107 105.183 18.0781 105.183 17.8892V17.8494C105.183 17.3589 105.049 16.9777 104.78 16.706C104.515 16.4342 104.112 16.2983 103.572 16.2983C103.012 16.2983 102.573 16.4209 102.255 16.6662C101.936 16.9115 101.713 17.1733 101.583 17.4517L100.47 17.054C100.669 16.59 100.934 16.2287 101.265 15.9702C101.6 15.7083 101.965 15.526 102.359 15.4233C102.757 15.3172 103.148 15.2642 103.532 15.2642C103.778 15.2642 104.059 15.294 104.377 15.3537C104.699 15.41 105.009 15.5277 105.307 15.7067C105.609 15.8857 105.859 16.1558 106.058 16.517C106.257 16.8783 106.356 17.3622 106.356 17.9688V23H105.183V21.9659H105.123C105.044 22.1316 104.911 22.3089 104.725 22.4979C104.54 22.6868 104.293 22.8475 103.985 22.9801C103.676 23.1127 103.3 23.179 102.856 23.179ZM103.035 22.125C103.499 22.125 103.89 22.0339 104.208 21.8516C104.53 21.6693 104.772 21.4339 104.934 21.1456C105.1 20.8572 105.183 20.554 105.183 20.2358V19.1619C105.133 19.2216 105.024 19.2763 104.855 19.326C104.689 19.3724 104.497 19.4138 104.278 19.4503C104.063 19.4834 103.852 19.5133 103.647 19.5398C103.444 19.563 103.28 19.5829 103.154 19.5994C102.85 19.6392 102.565 19.7038 102.299 19.7933C102.038 19.8795 101.825 20.0104 101.663 20.1861C101.504 20.3584 101.424 20.5937 101.424 20.892C101.424 21.2997 101.575 21.608 101.877 21.8168C102.182 22.0223 102.568 22.125 103.035 22.125ZM111.6 23.1591C110.884 23.1591 110.268 22.9901 109.751 22.652C109.233 22.3139 108.836 21.8482 108.557 21.255C108.279 20.6617 108.14 19.9839 108.14 19.2216C108.14 18.446 108.282 17.7616 108.567 17.1683C108.856 16.5717 109.257 16.1061 109.77 15.7713C110.287 15.4332 110.891 15.2642 111.58 15.2642C112.117 15.2642 112.601 15.3636 113.032 15.5625C113.463 15.7614 113.816 16.0398 114.091 16.3977C114.366 16.7557 114.537 17.1733 114.603 17.6506H113.43C113.34 17.3026 113.141 16.9943 112.833 16.7259C112.528 16.4541 112.117 16.3182 111.6 16.3182C111.143 16.3182 110.742 16.4375 110.397 16.6761C110.055 16.9115 109.789 17.2446 109.596 17.6754C109.407 18.103 109.313 18.6051 109.313 19.1818C109.313 19.7718 109.406 20.2855 109.591 20.723C109.78 21.1605 110.046 21.5002 110.387 21.7422C110.732 21.9841 111.136 22.1051 111.6 22.1051C111.905 22.1051 112.182 22.0521 112.43 21.946C112.679 21.84 112.889 21.6875 113.062 21.4886C113.234 21.2898 113.357 21.0511 113.43 20.7727H114.603C114.537 21.2235 114.372 21.6295 114.111 21.9908C113.852 22.3487 113.509 22.6338 113.081 22.8459C112.657 23.0547 112.163 23.1591 111.6 23.1591ZM117.412 20.2159L117.392 18.7642H117.631L120.971 15.3636H122.423L118.863 18.9631H118.764L117.412 20.2159ZM116.318 23V12.8182H117.491V23H116.318ZM121.17 23L118.187 19.2216L119.023 18.4062L122.662 23H121.17ZM126.701 26.0227C126.134 26.0227 125.647 25.9498 125.24 25.804C124.832 25.6615 124.492 25.4725 124.22 25.2372C123.952 25.0052 123.738 24.7566 123.579 24.4915L124.514 23.8352C124.62 23.9744 124.754 24.1335 124.916 24.3125C125.079 24.4948 125.301 24.6522 125.583 24.7848C125.868 24.9207 126.24 24.9886 126.701 24.9886C127.318 24.9886 127.826 24.8395 128.227 24.5412C128.628 24.2429 128.829 23.7756 128.829 23.1392V21.5881H128.73C128.643 21.7273 128.521 21.8996 128.362 22.1051C128.206 22.3073 127.981 22.4879 127.686 22.647C127.394 22.8028 126.999 22.8807 126.502 22.8807C125.886 22.8807 125.332 22.7348 124.842 22.4432C124.355 22.1515 123.968 21.7273 123.683 21.1705C123.402 20.6136 123.261 19.9375 123.261 19.142C123.261 18.3598 123.398 17.6787 123.673 17.0987C123.949 16.5154 124.331 16.0646 124.822 15.7464C125.312 15.425 125.879 15.2642 126.522 15.2642C127.019 15.2642 127.414 15.3471 127.705 15.5128C128 15.6752 128.226 15.8608 128.382 16.0696C128.541 16.2751 128.663 16.4441 128.749 16.5767H128.869V15.3636H130.002V23.2188C130.002 23.875 129.853 24.4086 129.555 24.8196C129.26 25.2339 128.862 25.5372 128.362 25.7294C127.865 25.925 127.311 26.0227 126.701 26.0227ZM126.661 21.8267C127.132 21.8267 127.53 21.719 127.855 21.5036C128.179 21.2881 128.426 20.9782 128.595 20.5739C128.764 20.1695 128.849 19.6856 128.849 19.1222C128.849 18.572 128.766 18.0864 128.6 17.6655C128.435 17.2446 128.189 16.9148 127.865 16.6761C127.54 16.4375 127.139 16.3182 126.661 16.3182C126.164 16.3182 125.75 16.4441 125.419 16.696C125.09 16.9479 124.843 17.286 124.678 17.7102C124.515 18.1345 124.434 18.6051 124.434 19.1222C124.434 19.6525 124.517 20.1214 124.683 20.5291C124.852 20.9335 125.1 21.2517 125.428 21.4837C125.76 21.7124 126.171 21.8267 126.661 21.8267ZM132.15 23V15.3636H133.284V16.517H133.363C133.502 16.1392 133.754 15.8326 134.119 15.5973C134.483 15.362 134.894 15.2443 135.352 15.2443C135.438 15.2443 135.546 15.246 135.675 15.2493C135.804 15.2526 135.902 15.2576 135.968 15.2642V16.4574C135.928 16.4474 135.837 16.4325 135.695 16.4126C135.556 16.3894 135.408 16.3778 135.252 16.3778C134.881 16.3778 134.55 16.4557 134.258 16.6115C133.97 16.764 133.741 16.9761 133.572 17.2479C133.406 17.5163 133.323 17.8229 133.323 18.1676V23H132.15ZM140.229 23.1591C139.539 23.1591 138.935 22.995 138.414 22.6669C137.897 22.3388 137.493 21.8797 137.201 21.2898C136.913 20.6998 136.769 20.0104 136.769 19.2216C136.769 18.4261 136.913 17.7318 137.201 17.1385C137.493 16.5452 137.897 16.0845 138.414 15.7564C138.935 15.4283 139.539 15.2642 140.229 15.2642C140.918 15.2642 141.521 15.4283 142.039 15.7564C142.559 16.0845 142.963 16.5452 143.252 17.1385C143.543 17.7318 143.689 18.4261 143.689 19.2216C143.689 20.0104 143.543 20.6998 143.252 21.2898C142.963 21.8797 142.559 22.3388 142.039 22.6669C141.521 22.995 140.918 23.1591 140.229 23.1591ZM140.229 22.1051C140.753 22.1051 141.183 21.9709 141.521 21.7024C141.86 21.4339 142.11 21.081 142.272 20.6435C142.435 20.206 142.516 19.732 142.516 19.2216C142.516 18.7112 142.435 18.2356 142.272 17.7947C142.11 17.3539 141.86 16.9976 141.521 16.7259C141.183 16.4541 140.753 16.3182 140.229 16.3182C139.705 16.3182 139.274 16.4541 138.936 16.7259C138.598 16.9976 138.348 17.3539 138.186 17.7947C138.023 18.2356 137.942 18.7112 137.942 19.2216C137.942 19.732 138.023 20.206 138.186 20.6435C138.348 21.081 138.598 21.4339 138.936 21.7024C139.274 21.9709 139.705 22.1051 140.229 22.1051ZM150.293 19.8778V15.3636H151.466V23H150.293V21.7074H150.213C150.034 22.0952 149.756 22.425 149.378 22.6967C149 22.9652 148.523 23.0994 147.946 23.0994C147.469 23.0994 147.045 22.995 146.673 22.7862C146.302 22.5741 146.01 22.2559 145.798 21.8317C145.586 21.4041 145.48 20.8655 145.48 20.2159V15.3636H146.653V20.1364C146.653 20.6932 146.809 21.1373 147.121 21.4688C147.436 21.8002 147.837 21.9659 148.324 21.9659C148.616 21.9659 148.912 21.8913 149.214 21.7422C149.519 21.593 149.774 21.3643 149.979 21.0561C150.188 20.7479 150.293 20.3551 150.293 19.8778ZM154.788 18.4062V23H153.615V15.3636H154.748V16.5568H154.848C155.027 16.169 155.299 15.8575 155.663 15.6222C156.028 15.3835 156.498 15.2642 157.075 15.2642C157.592 15.2642 158.045 15.3703 158.432 15.5824C158.82 15.7912 159.122 16.1094 159.337 16.5369C159.553 16.9612 159.66 17.4981 159.66 18.1477V23H158.487V18.2273C158.487 17.6274 158.331 17.16 158.02 16.8253C157.708 16.4872 157.281 16.3182 156.737 16.3182C156.363 16.3182 156.028 16.3994 155.733 16.5618C155.441 16.7242 155.211 16.9612 155.042 17.2727C154.873 17.5843 154.788 17.9621 154.788 18.4062ZM164.688 23.1591C164.051 23.1591 163.49 22.9983 163.002 22.6768C162.515 22.352 162.134 21.8946 161.859 21.3047C161.584 20.7114 161.446 20.0104 161.446 19.2017C161.446 18.3996 161.584 17.7036 161.859 17.1136C162.134 16.5237 162.517 16.0679 163.007 15.7464C163.498 15.425 164.065 15.2642 164.708 15.2642C165.205 15.2642 165.598 15.3471 165.886 15.5128C166.178 15.6752 166.4 15.8608 166.552 16.0696C166.708 16.2751 166.829 16.4441 166.915 16.5767H167.015V12.8182H168.188V23H167.054V21.8267H166.915C166.829 21.9659 166.706 22.1416 166.547 22.3537C166.388 22.5625 166.161 22.7498 165.866 22.9155C165.571 23.0779 165.178 23.1591 164.688 23.1591ZM164.847 22.1051C165.318 22.1051 165.715 21.9825 166.04 21.7372C166.365 21.4886 166.612 21.1456 166.781 20.7081C166.95 20.2673 167.034 19.7585 167.034 19.1818C167.034 18.6117 166.952 18.1129 166.786 17.6854C166.62 17.2545 166.375 16.9197 166.05 16.6811C165.725 16.4392 165.324 16.3182 164.847 16.3182C164.35 16.3182 163.935 16.4458 163.604 16.701C163.276 16.9529 163.029 17.2959 162.863 17.7301C162.701 18.161 162.62 18.6449 162.62 19.1818C162.62 19.7254 162.703 20.2192 162.868 20.6634C163.037 21.1042 163.286 21.4555 163.614 21.7173C163.945 21.9759 164.356 22.1051 164.847 22.1051ZM175.909 17.0739L174.855 17.3722C174.788 17.1965 174.691 17.0258 174.561 16.8601C174.435 16.6911 174.263 16.5518 174.044 16.4425C173.826 16.3331 173.546 16.2784 173.204 16.2784C172.737 16.2784 172.347 16.3861 172.036 16.6016C171.728 16.8137 171.574 17.0838 171.574 17.4119C171.574 17.7036 171.68 17.9339 171.892 18.103C172.104 18.272 172.435 18.4129 172.886 18.5256L174.02 18.804C174.702 18.9697 175.211 19.2232 175.546 19.5646C175.881 19.9027 176.048 20.3385 176.048 20.8722C176.048 21.3097 175.922 21.7008 175.67 22.0455C175.422 22.3902 175.074 22.6619 174.626 22.8608C174.179 23.0597 173.658 23.1591 173.065 23.1591C172.286 23.1591 171.641 22.9901 171.131 22.652C170.621 22.3139 170.297 21.8201 170.162 21.1705L171.275 20.892C171.381 21.303 171.582 21.6113 171.877 21.8168C172.175 22.0223 172.565 22.125 173.045 22.125C173.592 22.125 174.026 22.009 174.348 21.777C174.672 21.5417 174.835 21.2599 174.835 20.9318C174.835 20.6667 174.742 20.4446 174.556 20.2656C174.371 20.0833 174.086 19.9474 173.701 19.858L172.429 19.5597C171.729 19.3939 171.216 19.1371 170.887 18.7891C170.563 18.4377 170.4 17.9986 170.4 17.4716C170.4 17.0407 170.521 16.6596 170.763 16.3281C171.008 15.9967 171.342 15.7365 171.762 15.5476C172.187 15.3587 172.667 15.2642 173.204 15.2642C173.96 15.2642 174.553 15.4299 174.984 15.7614C175.418 16.0928 175.726 16.5303 175.909 17.0739Z" fill="white" fill-opacity="0.95"/>
</svg>
