<svg width="559" height="276" viewBox="0 0 559 276" fill="none" xmlns="http://www.w3.org/2000/svg">
<rect width="559" height="276" rx="24" fill="#262626"/>
<g clip-path="url(#clip0_1706_72186)">
<rect x="40" y="40" width="137" height="28" rx="14" fill="#7856FF"/>
<path d="M53.4091 60V48.3636H54.8182V58.75H60.2273V60H53.4091ZM62.2273 60V51.2727H63.5682V60H62.2273ZM62.9091 49.8182C62.6477 49.8182 62.4223 49.7292 62.233 49.5511C62.0473 49.3731 61.9545 49.1591 61.9545 48.9091C61.9545 48.6591 62.0473 48.4451 62.233 48.267C62.4223 48.089 62.6477 48 62.9091 48C63.1705 48 63.3939 48.089 63.5795 48.267C63.7689 48.4451 63.8636 48.6591 63.8636 48.9091C63.8636 49.1591 63.7689 49.3731 63.5795 49.5511C63.3939 49.7292 63.1705 49.8182 62.9091 49.8182ZM72.206 53.2273L71.0014 53.5682C70.9257 53.3674 70.8139 53.1723 70.6662 52.983C70.5223 52.7898 70.3253 52.6307 70.0753 52.5057C69.8253 52.3807 69.5052 52.3182 69.1151 52.3182C68.581 52.3182 68.1359 52.4413 67.7798 52.6875C67.4276 52.9299 67.2514 53.2386 67.2514 53.6136C67.2514 53.947 67.3726 54.2102 67.6151 54.4034C67.8575 54.5966 68.2363 54.7576 68.7514 54.8864L70.0469 55.2045C70.8272 55.3939 71.4086 55.6837 71.7912 56.0739C72.1738 56.4602 72.3651 56.9583 72.3651 57.5682C72.3651 58.0682 72.2211 58.5152 71.9332 58.9091C71.6491 59.303 71.2514 59.6136 70.7401 59.8409C70.2287 60.0682 69.634 60.1818 68.956 60.1818C68.0658 60.1818 67.3291 59.9886 66.7457 59.6023C66.1624 59.2159 65.7931 58.6515 65.6378 57.9091L66.9105 57.5909C67.0317 58.0606 67.2609 58.4129 67.598 58.6477C67.9389 58.8826 68.384 59 68.9332 59C69.5582 59 70.0545 58.8674 70.4219 58.6023C70.7931 58.3333 70.9787 58.0114 70.9787 57.6364C70.9787 57.3333 70.8726 57.0795 70.6605 56.875C70.4484 56.6667 70.1226 56.5114 69.6832 56.4091L68.2287 56.0682C67.4295 55.8788 66.8423 55.5852 66.4673 55.1875C66.0961 54.786 65.9105 54.2841 65.9105 53.6818C65.9105 53.1894 66.0488 52.7538 66.3253 52.375C66.6056 51.9962 66.9863 51.6989 67.4673 51.483C67.9522 51.267 68.5014 51.1591 69.1151 51.1591C69.9787 51.1591 70.6567 51.3485 71.1491 51.7273C71.6454 52.1061 71.9976 52.6061 72.206 53.2273ZM78.179 51.2727V52.4091H73.6562V51.2727H78.179ZM74.9744 49.1818H76.3153V57.5C76.3153 57.8788 76.3703 58.1629 76.4801 58.3523C76.5938 58.5379 76.7377 58.6629 76.9119 58.7273C77.09 58.7879 77.2775 58.8182 77.4744 58.8182C77.6222 58.8182 77.7434 58.8106 77.8381 58.7955C77.9328 58.7765 78.0085 58.7614 78.0653 58.75L78.3381 59.9545C78.2472 59.9886 78.1203 60.0227 77.9574 60.0568C77.7945 60.0947 77.5881 60.1136 77.3381 60.1136C76.9593 60.1136 76.5881 60.0322 76.2244 59.8693C75.8646 59.7064 75.5653 59.4583 75.3267 59.125C75.0919 58.7917 74.9744 58.3712 74.9744 57.8636V49.1818ZM88.4915 51.2727V52.4091H83.9688V51.2727H88.4915ZM85.2869 49.1818H86.6278V57.5C86.6278 57.8788 86.6828 58.1629 86.7926 58.3523C86.9063 58.5379 87.0502 58.6629 87.2244 58.7273C87.4025 58.7879 87.59 58.8182 87.7869 58.8182C87.9347 58.8182 88.0559 58.8106 88.1506 58.7955C88.2453 58.7765 88.321 58.7614 88.3778 58.75L88.6506 59.9545C88.5597 59.9886 88.4328 60.0227 88.2699 60.0568C88.107 60.0947 87.9006 60.1136 87.6506 60.1136C87.2718 60.1136 86.9006 60.0322 86.5369 59.8693C86.1771 59.7064 85.8778 59.4583 85.6392 59.125C85.4044 58.7917 85.2869 58.3712 85.2869 57.8636V49.1818ZM94.0739 60.1818C93.233 60.1818 92.5076 59.9962 91.8977 59.625C91.2917 59.25 90.8239 58.7273 90.4943 58.0568C90.1686 57.3826 90.0057 56.5985 90.0057 55.7045C90.0057 54.8106 90.1686 54.0227 90.4943 53.3409C90.8239 52.6553 91.2822 52.1212 91.8693 51.7386C92.4602 51.3523 93.1496 51.1591 93.9375 51.1591C94.392 51.1591 94.8409 51.2348 95.2841 51.3864C95.7273 51.5379 96.1307 51.7841 96.4943 52.125C96.858 52.4621 97.1477 52.9091 97.3636 53.4659C97.5795 54.0227 97.6875 54.7083 97.6875 55.5227V56.0909H90.9602V54.9318H96.3239C96.3239 54.4394 96.2254 54 96.0284 53.6136C95.8352 53.2273 95.5587 52.9223 95.1989 52.6989C94.8428 52.4754 94.4223 52.3636 93.9375 52.3636C93.4034 52.3636 92.9413 52.4962 92.5511 52.7614C92.1648 53.0227 91.8674 53.3636 91.6591 53.7841C91.4508 54.2045 91.3466 54.6553 91.3466 55.1364V55.9091C91.3466 56.5682 91.4602 57.1269 91.6875 57.5852C91.9186 58.0398 92.2386 58.3864 92.6477 58.625C93.0568 58.8598 93.5322 58.9773 94.0739 58.9773C94.4261 58.9773 94.7443 58.928 95.0284 58.8295C95.3163 58.7273 95.5644 58.5758 95.7727 58.375C95.9811 58.1705 96.142 57.9167 96.2557 57.6136L97.5511 57.9773C97.4148 58.4167 97.1856 58.803 96.8636 59.1364C96.5417 59.4659 96.1439 59.7235 95.6705 59.9091C95.197 60.0909 94.6648 60.1818 94.0739 60.1818ZM100.493 51.2727L102.584 54.8409L104.675 51.2727H106.22L103.402 55.6364L106.22 60H104.675L102.584 56.6136L100.493 60H98.9474L101.72 55.6364L98.9474 51.2727H100.493ZM111.929 51.2727V52.4091H107.406V51.2727H111.929ZM108.724 49.1818H110.065V57.5C110.065 57.8788 110.12 58.1629 110.23 58.3523C110.344 58.5379 110.488 58.6629 110.662 58.7273C110.84 58.7879 111.027 58.8182 111.224 58.8182C111.372 58.8182 111.493 58.8106 111.588 58.7955C111.683 58.7765 111.759 58.7614 111.815 58.75L112.088 59.9545C111.997 59.9886 111.87 60.0227 111.707 60.0568C111.545 60.0947 111.338 60.1136 111.088 60.1136C110.709 60.1136 110.338 60.0322 109.974 59.8693C109.615 59.7064 109.315 59.4583 109.077 59.125C108.842 58.7917 108.724 58.3712 108.724 57.8636V49.1818ZM119.787 48.3636V60H118.446V48.3636H119.787ZM125.902 60.1818C125.061 60.1818 124.336 59.9962 123.726 59.625C123.12 59.25 122.652 58.7273 122.322 58.0568C121.997 57.3826 121.834 56.5985 121.834 55.7045C121.834 54.8106 121.997 54.0227 122.322 53.3409C122.652 52.6553 123.11 52.1212 123.697 51.7386C124.288 51.3523 124.978 51.1591 125.766 51.1591C126.22 51.1591 126.669 51.2348 127.112 51.3864C127.555 51.5379 127.959 51.7841 128.322 52.125C128.686 52.4621 128.976 52.9091 129.192 53.4659C129.408 54.0227 129.516 54.7083 129.516 55.5227V56.0909H122.788V54.9318H128.152C128.152 54.4394 128.054 54 127.857 53.6136C127.663 53.2273 127.387 52.9223 127.027 52.6989C126.671 52.4754 126.25 52.3636 125.766 52.3636C125.232 52.3636 124.769 52.4962 124.379 52.7614C123.993 53.0227 123.696 53.3636 123.487 53.7841C123.279 54.2045 123.175 54.6553 123.175 55.1364V55.9091C123.175 56.5682 123.288 57.1269 123.516 57.5852C123.747 58.0398 124.067 58.3864 124.476 58.625C124.885 58.8598 125.36 58.9773 125.902 58.9773C126.254 58.9773 126.572 58.928 126.857 58.8295C127.144 58.7273 127.393 58.5758 127.601 58.375C127.809 58.1705 127.97 57.9167 128.084 57.6136L129.379 57.9773C129.243 58.4167 129.014 58.803 128.692 59.1364C128.37 59.4659 127.972 59.7235 127.499 59.9091C127.025 60.0909 126.493 60.1818 125.902 60.1818ZM132.896 54.75V60H131.555V51.2727H132.851V52.6364H132.964C133.169 52.1932 133.48 51.8371 133.896 51.5682C134.313 51.2955 134.851 51.1591 135.51 51.1591C136.101 51.1591 136.618 51.2803 137.061 51.5227C137.504 51.7614 137.849 52.125 138.095 52.6136C138.341 53.0985 138.464 53.7121 138.464 54.4545V60H137.124V54.5455C137.124 53.8598 136.946 53.3258 136.589 52.9432C136.233 52.5568 135.745 52.3636 135.124 52.3636C134.696 52.3636 134.313 52.4564 133.976 52.642C133.643 52.8277 133.379 53.0985 133.186 53.4545C132.993 53.8106 132.896 54.2424 132.896 54.75ZM144.438 63.4545C143.79 63.4545 143.233 63.3712 142.767 63.2045C142.301 63.0417 141.913 62.8258 141.602 62.5568C141.295 62.2917 141.051 62.0076 140.869 61.7045L141.938 60.9545C142.059 61.1136 142.212 61.2955 142.398 61.5C142.583 61.7083 142.837 61.8883 143.159 62.0398C143.485 62.1951 143.911 62.2727 144.438 62.2727C145.142 62.2727 145.723 62.1023 146.182 61.7614C146.64 61.4205 146.869 60.8864 146.869 60.1591V58.3864H146.756C146.657 58.5455 146.517 58.7424 146.335 58.9773C146.157 59.2083 145.9 59.4148 145.562 59.5966C145.229 59.7746 144.778 59.8636 144.21 59.8636C143.506 59.8636 142.873 59.697 142.312 59.3636C141.756 59.0303 141.314 58.5455 140.989 57.9091C140.667 57.2727 140.506 56.5 140.506 55.5909C140.506 54.697 140.663 53.9186 140.977 53.2557C141.292 52.589 141.729 52.0739 142.29 51.7102C142.85 51.3428 143.498 51.1591 144.233 51.1591C144.801 51.1591 145.252 51.2538 145.585 51.4432C145.922 51.6288 146.18 51.8409 146.358 52.0795C146.54 52.3144 146.68 52.5076 146.778 52.6591H146.915V51.2727H148.21V60.25C148.21 61 148.04 61.6098 147.699 62.0795C147.362 62.553 146.907 62.8996 146.335 63.1193C145.767 63.3428 145.134 63.4545 144.438 63.4545ZM144.392 58.6591C144.93 58.6591 145.384 58.536 145.756 58.2898C146.127 58.0436 146.409 57.6894 146.602 57.2273C146.795 56.7652 146.892 56.2121 146.892 55.5682C146.892 54.9394 146.797 54.3845 146.608 53.9034C146.419 53.4223 146.138 53.0455 145.767 52.7727C145.396 52.5 144.938 52.3636 144.392 52.3636C143.824 52.3636 143.35 52.5076 142.972 52.7955C142.597 53.0833 142.314 53.4697 142.125 53.9545C141.939 54.4394 141.847 54.9773 141.847 55.5682C141.847 56.1742 141.941 56.7102 142.131 57.1761C142.324 57.6383 142.608 58.0019 142.983 58.267C143.362 58.5284 143.831 58.6591 144.392 58.6591ZM154.46 51.2727V52.4091H149.938V51.2727H154.46ZM151.256 49.1818H152.597V57.5C152.597 57.8788 152.652 58.1629 152.761 58.3523C152.875 58.5379 153.019 58.6629 153.193 58.7273C153.371 58.7879 153.559 58.8182 153.756 58.8182C153.903 58.8182 154.025 58.8106 154.119 58.7955C154.214 58.7765 154.29 58.7614 154.347 58.75L154.619 59.9545C154.528 59.9886 154.402 60.0227 154.239 60.0568C154.076 60.0947 153.869 60.1136 153.619 60.1136C153.241 60.1136 152.869 60.0322 152.506 59.8693C152.146 59.7064 151.847 59.4583 151.608 59.125C151.373 58.7917 151.256 58.3712 151.256 57.8636V49.1818ZM158.006 54.75V60H156.665V48.3636H158.006V52.6364H158.119C158.324 52.1856 158.631 51.8277 159.04 51.5625C159.453 51.2936 160.002 51.1591 160.688 51.1591C161.282 51.1591 161.803 51.2784 162.25 51.517C162.697 51.7519 163.044 52.1136 163.29 52.6023C163.54 53.0871 163.665 53.7045 163.665 54.4545V60H162.324V54.5455C162.324 53.8523 162.144 53.3163 161.784 52.9375C161.428 52.5549 160.934 52.3636 160.301 52.3636C159.862 52.3636 159.468 52.4564 159.119 52.642C158.775 52.8277 158.502 53.0985 158.301 53.4545C158.104 53.8106 158.006 54.2424 158.006 54.75Z" fill="white"/>
</g>
<path d="M52.6761 101.912V100.818H60.3125V101.912H57.1108V111H55.8778V101.912H52.6761ZM63.2296 106.406V111H62.0563V100.818H63.2296V104.557H63.329C63.508 104.162 63.7765 103.849 64.1344 103.617C64.4957 103.382 64.9763 103.264 65.5762 103.264C66.0965 103.264 66.5523 103.369 66.9434 103.577C67.3345 103.783 67.6377 104.099 67.8532 104.527C68.0719 104.951 68.1813 105.491 68.1813 106.148V111H67.008V106.227C67.008 105.621 66.8506 105.152 66.5357 104.82C66.2241 104.486 65.7916 104.318 65.2381 104.318C64.8536 104.318 64.5089 104.399 64.204 104.562C63.9024 104.724 63.6638 104.961 63.4881 105.273C63.3158 105.584 63.2296 105.962 63.2296 106.406ZM70.3278 111V103.364H71.5011V111H70.3278ZM70.9244 102.091C70.6957 102.091 70.4985 102.013 70.3327 101.857C70.1703 101.701 70.0891 101.514 70.0891 101.295C70.0891 101.077 70.1703 100.889 70.3327 100.734C70.4985 100.578 70.6957 100.5 70.9244 100.5C71.1531 100.5 71.3486 100.578 71.511 100.734C71.6767 100.889 71.7596 101.077 71.7596 101.295C71.7596 101.514 71.6767 101.701 71.511 101.857C71.3486 102.013 71.1531 102.091 70.9244 102.091ZM79.0591 105.074L78.0051 105.372C77.9389 105.196 77.8411 105.026 77.7118 104.86C77.5859 104.691 77.4135 104.552 77.1948 104.442C76.976 104.333 76.696 104.278 76.3546 104.278C75.8873 104.278 75.4978 104.386 75.1863 104.602C74.878 104.814 74.7239 105.084 74.7239 105.412C74.7239 105.704 74.83 105.934 75.0421 106.103C75.2542 106.272 75.5856 106.413 76.0364 106.526L77.1699 106.804C77.8527 106.97 78.3614 107.223 78.6962 107.565C79.031 107.903 79.1983 108.339 79.1983 108.872C79.1983 109.31 79.0724 109.701 78.8205 110.045C78.5719 110.39 78.2239 110.662 77.7765 110.861C77.329 111.06 76.8087 111.159 76.2154 111.159C75.4365 111.159 74.7918 110.99 74.2814 110.652C73.771 110.314 73.4479 109.82 73.312 109.17L74.4256 108.892C74.5317 109.303 74.7322 109.611 75.0272 109.817C75.3255 110.022 75.7149 110.125 76.1955 110.125C76.7424 110.125 77.1766 110.009 77.498 109.777C77.8229 109.542 77.9853 109.26 77.9853 108.932C77.9853 108.667 77.8925 108.445 77.7069 108.266C77.5212 108.083 77.2362 107.947 76.8517 107.858L75.579 107.56C74.8797 107.394 74.3659 107.137 74.0378 106.789C73.713 106.438 73.5506 105.999 73.5506 105.472C73.5506 105.041 73.6716 104.66 73.9135 104.328C74.1588 103.997 74.4919 103.737 74.9128 103.548C75.3371 103.359 75.8176 103.264 76.3546 103.264C77.1103 103.264 77.7035 103.43 78.1344 103.761C78.5686 104.093 78.8768 104.53 79.0591 105.074ZM88.0043 111.159C87.3149 111.159 86.71 110.995 86.1896 110.667C85.6726 110.339 85.2682 109.88 84.9766 109.29C84.6882 108.7 84.544 108.01 84.544 107.222C84.544 106.426 84.6882 105.732 84.9766 105.138C85.2682 104.545 85.6726 104.085 86.1896 103.756C86.71 103.428 87.3149 103.264 88.0043 103.264C88.6937 103.264 89.2969 103.428 89.8139 103.756C90.3343 104.085 90.7386 104.545 91.027 105.138C91.3187 105.732 91.4645 106.426 91.4645 107.222C91.4645 108.01 91.3187 108.7 91.027 109.29C90.7386 109.88 90.3343 110.339 89.8139 110.667C89.2969 110.995 88.6937 111.159 88.0043 111.159ZM88.0043 110.105C88.5279 110.105 88.9588 109.971 89.2969 109.702C89.6349 109.434 89.8852 109.081 90.0476 108.643C90.21 108.206 90.2912 107.732 90.2912 107.222C90.2912 106.711 90.21 106.236 90.0476 105.795C89.8852 105.354 89.6349 104.998 89.2969 104.726C88.9588 104.454 88.5279 104.318 88.0043 104.318C87.4806 104.318 87.0497 104.454 86.7116 104.726C86.3736 104.998 86.1233 105.354 85.9609 105.795C85.7985 106.236 85.7173 106.711 85.7173 107.222C85.7173 107.732 85.7985 108.206 85.9609 108.643C86.1233 109.081 86.3736 109.434 86.7116 109.702C87.0497 109.971 87.4806 110.105 88.0043 110.105ZM94.4288 106.406V111H93.2555V103.364H94.389V104.557H94.4885C94.6674 104.169 94.9392 103.857 95.3038 103.622C95.6684 103.384 96.139 103.264 96.7157 103.264C97.2328 103.264 97.6852 103.37 98.073 103.582C98.4608 103.791 98.7624 104.109 98.9778 104.537C99.1932 104.961 99.301 105.498 99.301 106.148V111H98.1277V106.227C98.1277 105.627 97.9719 105.16 97.6603 104.825C97.3488 104.487 96.9212 104.318 96.3777 104.318C96.0031 104.318 95.6684 104.399 95.3734 104.562C95.0817 104.724 94.8514 104.961 94.6824 105.273C94.5133 105.584 94.4288 105.962 94.4288 106.406ZM104.647 111.159C103.911 111.159 103.276 110.997 102.743 110.672C102.212 110.344 101.803 109.886 101.515 109.3C101.23 108.71 101.087 108.024 101.087 107.241C101.087 106.459 101.23 105.77 101.515 105.173C101.803 104.573 102.204 104.106 102.718 103.771C103.235 103.433 103.838 103.264 104.527 103.264C104.925 103.264 105.318 103.33 105.706 103.463C106.093 103.596 106.446 103.811 106.765 104.109C107.083 104.404 107.336 104.795 107.525 105.283C107.714 105.77 107.809 106.37 107.809 107.082V107.58H101.922V106.565H106.615C106.615 106.134 106.529 105.75 106.357 105.412C106.188 105.074 105.946 104.807 105.631 104.612C105.319 104.416 104.952 104.318 104.527 104.318C104.06 104.318 103.656 104.434 103.314 104.666C102.976 104.895 102.716 105.193 102.534 105.561C102.351 105.929 102.26 106.323 102.26 106.744V107.42C102.26 107.997 102.36 108.486 102.559 108.887C102.761 109.285 103.041 109.588 103.399 109.797C103.757 110.002 104.173 110.105 104.647 110.105C104.955 110.105 105.233 110.062 105.482 109.976C105.734 109.886 105.951 109.754 106.133 109.578C106.315 109.399 106.456 109.177 106.556 108.912L107.689 109.23C107.57 109.615 107.369 109.953 107.088 110.244C106.806 110.533 106.458 110.758 106.044 110.92C105.629 111.08 105.164 111.159 104.647 111.159ZM113.531 111V103.364H114.704V111H113.531ZM114.127 102.091C113.899 102.091 113.702 102.013 113.536 101.857C113.373 101.701 113.292 101.514 113.292 101.295C113.292 101.077 113.373 100.889 113.536 100.734C113.702 100.578 113.899 100.5 114.127 100.5C114.356 100.5 114.552 100.578 114.714 100.734C114.88 100.889 114.963 101.077 114.963 101.295C114.963 101.514 114.88 101.701 114.714 101.857C114.552 102.013 114.356 102.091 114.127 102.091ZM122.262 105.074L121.208 105.372C121.142 105.196 121.044 105.026 120.915 104.86C120.789 104.691 120.617 104.552 120.398 104.442C120.179 104.333 119.899 104.278 119.558 104.278C119.09 104.278 118.701 104.386 118.389 104.602C118.081 104.814 117.927 105.084 117.927 105.412C117.927 105.704 118.033 105.934 118.245 106.103C118.457 106.272 118.789 106.413 119.24 106.526L120.373 106.804C121.056 106.97 121.565 107.223 121.899 107.565C122.234 107.903 122.401 108.339 122.401 108.872C122.401 109.31 122.276 109.701 122.024 110.045C121.775 110.39 121.427 110.662 120.98 110.861C120.532 111.06 120.012 111.159 119.419 111.159C118.64 111.159 117.995 110.99 117.485 110.652C116.974 110.314 116.651 109.82 116.515 109.17L117.629 108.892C117.735 109.303 117.935 109.611 118.23 109.817C118.529 110.022 118.918 110.125 119.399 110.125C119.945 110.125 120.38 110.009 120.701 109.777C121.026 109.542 121.188 109.26 121.188 108.932C121.188 108.667 121.096 108.445 120.91 108.266C120.724 108.083 120.439 107.947 120.055 107.858L118.782 107.56C118.083 107.394 117.569 107.137 117.241 106.789C116.916 106.438 116.754 105.999 116.754 105.472C116.754 105.041 116.875 104.66 117.117 104.328C117.362 103.997 117.695 103.737 118.116 103.548C118.54 103.359 119.021 103.264 119.558 103.264C120.313 103.264 120.907 103.43 121.338 103.761C121.772 104.093 122.08 104.53 122.262 105.074ZM131.426 103.364V104.358H127.469V103.364H131.426ZM128.622 101.534H129.795V108.812C129.795 109.144 129.844 109.393 129.94 109.558C130.039 109.721 130.165 109.83 130.317 109.886C130.473 109.939 130.637 109.966 130.81 109.966C130.939 109.966 131.045 109.959 131.128 109.946C131.211 109.929 131.277 109.916 131.327 109.906L131.565 110.96C131.486 110.99 131.375 111.02 131.232 111.05C131.09 111.083 130.909 111.099 130.69 111.099C130.359 111.099 130.034 111.028 129.716 110.886C129.401 110.743 129.139 110.526 128.93 110.234C128.725 109.943 128.622 109.575 128.622 109.131V101.534ZM134.528 106.406V111H133.355V100.818H134.528V104.557H134.628C134.807 104.162 135.075 103.849 135.433 103.617C135.795 103.382 136.275 103.264 136.875 103.264C137.395 103.264 137.851 103.369 138.242 103.577C138.633 103.783 138.937 104.099 139.152 104.527C139.371 104.951 139.48 105.491 139.48 106.148V111H138.307V106.227C138.307 105.621 138.149 105.152 137.835 104.82C137.523 104.486 137.09 104.318 136.537 104.318C136.152 104.318 135.808 104.399 135.503 104.562C135.201 104.724 134.963 104.961 134.787 105.273C134.615 105.584 134.528 105.962 134.528 106.406ZM141.627 111V103.364H142.8V111H141.627ZM142.223 102.091C141.994 102.091 141.797 102.013 141.632 101.857C141.469 101.701 141.388 101.514 141.388 101.295C141.388 101.077 141.469 100.889 141.632 100.734C141.797 100.578 141.994 100.5 142.223 100.5C142.452 100.5 142.647 100.578 142.81 100.734C142.976 100.889 143.058 101.077 143.058 101.295C143.058 101.514 142.976 101.701 142.81 101.857C142.647 102.013 142.452 102.091 142.223 102.091ZM144.949 111V103.364H146.082V104.517H146.162C146.301 104.139 146.553 103.833 146.918 103.597C147.282 103.362 147.693 103.244 148.151 103.244C148.237 103.244 148.344 103.246 148.474 103.249C148.603 103.253 148.701 103.258 148.767 103.264V104.457C148.727 104.447 148.636 104.433 148.494 104.413C148.354 104.389 148.207 104.378 148.051 104.378C147.68 104.378 147.348 104.456 147.057 104.612C146.768 104.764 146.54 104.976 146.371 105.248C146.205 105.516 146.122 105.823 146.122 106.168V111H144.949ZM153.957 103.364V104.358H150V103.364H153.957ZM151.153 101.534H152.327V108.812C152.327 109.144 152.375 109.393 152.471 109.558C152.57 109.721 152.696 109.83 152.849 109.886C153.004 109.939 153.169 109.966 153.341 109.966C153.47 109.966 153.576 109.959 153.659 109.946C153.742 109.929 153.808 109.916 153.858 109.906L154.097 110.96C154.017 110.99 153.906 111.02 153.763 111.05C153.621 111.083 153.44 111.099 153.222 111.099C152.89 111.099 152.565 111.028 152.247 110.886C151.932 110.743 151.67 110.526 151.462 110.234C151.256 109.943 151.153 109.575 151.153 109.131V101.534ZM156.478 113.864C156.279 113.864 156.102 113.847 155.946 113.814C155.79 113.784 155.683 113.754 155.623 113.724L155.921 112.69C156.206 112.763 156.458 112.79 156.677 112.77C156.896 112.75 157.089 112.652 157.259 112.477C157.431 112.304 157.588 112.024 157.731 111.636L157.95 111.04L155.126 103.364H156.398L158.506 109.449H158.586L160.694 103.364H161.967L158.725 112.114C158.579 112.508 158.399 112.835 158.183 113.093C157.968 113.355 157.718 113.549 157.433 113.675C157.151 113.801 156.833 113.864 156.478 113.864ZM167.89 106.088V107.182H163.436V106.088H167.89ZM171.128 106.406V111H169.955V103.364H171.088V104.557H171.188C171.367 104.169 171.638 103.857 172.003 103.622C172.368 103.384 172.838 103.264 173.415 103.264C173.932 103.264 174.384 103.37 174.772 103.582C175.16 103.791 175.462 104.109 175.677 104.537C175.892 104.961 176 105.498 176 106.148V111H174.827V106.227C174.827 105.627 174.671 105.16 174.36 104.825C174.048 104.487 173.62 104.318 173.077 104.318C172.702 104.318 172.368 104.399 172.073 104.562C171.781 104.724 171.551 104.961 171.382 105.273C171.213 105.584 171.128 105.962 171.128 106.406ZM178.144 111V103.364H179.317V111H178.144ZM178.741 102.091C178.512 102.091 178.315 102.013 178.149 101.857C177.987 101.701 177.906 101.514 177.906 101.295C177.906 101.077 177.987 100.889 178.149 100.734C178.315 100.578 178.512 100.5 178.741 100.5C178.969 100.5 179.165 100.578 179.327 100.734C179.493 100.889 179.576 101.077 179.576 101.295C179.576 101.514 179.493 101.701 179.327 101.857C179.165 102.013 178.969 102.091 178.741 102.091ZM182.64 106.406V111H181.466V103.364H182.6V104.557H182.699C182.878 104.169 183.15 103.857 183.515 103.622C183.879 103.384 184.35 103.264 184.927 103.264C185.444 103.264 185.896 103.37 186.284 103.582C186.672 103.791 186.973 104.109 187.189 104.537C187.404 104.961 187.512 105.498 187.512 106.148V111H186.339V106.227C186.339 105.627 186.183 105.16 185.871 104.825C185.56 104.487 185.132 104.318 184.589 104.318C184.214 104.318 183.879 104.399 183.584 104.562C183.293 104.724 183.062 104.961 182.893 105.273C182.724 105.584 182.64 105.962 182.64 106.406ZM192.858 111.159C192.122 111.159 191.487 110.997 190.953 110.672C190.423 110.344 190.014 109.886 189.725 109.3C189.44 108.71 189.298 108.024 189.298 107.241C189.298 106.459 189.44 105.77 189.725 105.173C190.014 104.573 190.415 104.106 190.929 103.771C191.446 103.433 192.049 103.264 192.738 103.264C193.136 103.264 193.529 103.33 193.917 103.463C194.304 103.596 194.657 103.811 194.975 104.109C195.294 104.404 195.547 104.795 195.736 105.283C195.925 105.77 196.02 106.37 196.02 107.082V107.58H190.133V106.565H194.826C194.826 106.134 194.74 105.75 194.568 105.412C194.399 105.074 194.157 104.807 193.842 104.612C193.53 104.416 193.163 104.318 192.738 104.318C192.271 104.318 191.867 104.434 191.525 104.666C191.187 104.895 190.927 105.193 190.745 105.561C190.562 105.929 190.471 106.323 190.471 106.744V107.42C190.471 107.997 190.571 108.486 190.77 108.887C190.972 109.285 191.252 109.588 191.61 109.797C191.968 110.002 192.384 110.105 192.858 110.105C193.166 110.105 193.444 110.062 193.693 109.976C193.945 109.886 194.162 109.754 194.344 109.578C194.526 109.399 194.667 109.177 194.767 108.912L195.9 109.23C195.781 109.615 195.58 109.953 195.299 110.244C195.017 110.533 194.669 110.758 194.255 110.92C193.84 111.08 193.375 111.159 192.858 111.159ZM204.844 111.159C204.128 111.159 203.512 110.99 202.995 110.652C202.478 110.314 202.08 109.848 201.801 109.255C201.523 108.662 201.384 107.984 201.384 107.222C201.384 106.446 201.526 105.762 201.811 105.168C202.1 104.572 202.501 104.106 203.015 103.771C203.532 103.433 204.135 103.264 204.824 103.264C205.361 103.264 205.845 103.364 206.276 103.562C206.707 103.761 207.06 104.04 207.335 104.398C207.61 104.756 207.781 105.173 207.847 105.651H206.674C206.584 105.303 206.385 104.994 206.077 104.726C205.772 104.454 205.361 104.318 204.844 104.318C204.387 104.318 203.986 104.437 203.641 104.676C203.3 104.911 203.033 105.245 202.841 105.675C202.652 106.103 202.557 106.605 202.557 107.182C202.557 107.772 202.65 108.286 202.836 108.723C203.025 109.161 203.29 109.5 203.631 109.742C203.976 109.984 204.38 110.105 204.844 110.105C205.149 110.105 205.426 110.052 205.674 109.946C205.923 109.84 206.133 109.688 206.306 109.489C206.478 109.29 206.601 109.051 206.674 108.773H207.847C207.781 109.223 207.617 109.629 207.355 109.991C207.096 110.349 206.753 110.634 206.326 110.846C205.901 111.055 205.408 111.159 204.844 111.159ZM210.735 106.406V111H209.562V100.818H210.735V104.557H210.835C211.014 104.162 211.282 103.849 211.64 103.617C212.002 103.382 212.482 103.264 213.082 103.264C213.602 103.264 214.058 103.369 214.449 103.577C214.84 103.783 215.144 104.099 215.359 104.527C215.578 104.951 215.687 105.491 215.687 106.148V111H214.514V106.227C214.514 105.621 214.356 105.152 214.042 104.82C213.73 104.486 213.297 104.318 212.744 104.318C212.359 104.318 212.015 104.399 211.71 104.562C211.408 104.724 211.17 104.961 210.994 105.273C210.822 105.584 210.735 105.962 210.735 106.406ZM220.081 111.179C219.597 111.179 219.158 111.088 218.763 110.906C218.369 110.72 218.056 110.453 217.824 110.105C217.592 109.754 217.476 109.33 217.476 108.832C217.476 108.395 217.562 108.04 217.734 107.768C217.907 107.493 218.137 107.278 218.425 107.122C218.714 106.966 219.032 106.85 219.38 106.774C219.731 106.695 220.084 106.632 220.439 106.585C220.903 106.526 221.279 106.481 221.567 106.451C221.859 106.418 222.071 106.363 222.204 106.287C222.34 106.211 222.407 106.078 222.407 105.889V105.849C222.407 105.359 222.273 104.978 222.005 104.706C221.74 104.434 221.337 104.298 220.797 104.298C220.237 104.298 219.797 104.421 219.479 104.666C219.161 104.911 218.937 105.173 218.808 105.452L217.694 105.054C217.893 104.59 218.158 104.229 218.49 103.97C218.825 103.708 219.189 103.526 219.584 103.423C219.981 103.317 220.372 103.264 220.757 103.264C221.002 103.264 221.284 103.294 221.602 103.354C221.924 103.41 222.233 103.528 222.532 103.707C222.833 103.886 223.084 104.156 223.282 104.517C223.481 104.878 223.581 105.362 223.581 105.969V111H222.407V109.966H222.348C222.268 110.132 222.136 110.309 221.95 110.498C221.765 110.687 221.518 110.848 221.209 110.98C220.901 111.113 220.525 111.179 220.081 111.179ZM220.26 110.125C220.724 110.125 221.115 110.034 221.433 109.852C221.755 109.669 221.997 109.434 222.159 109.146C222.325 108.857 222.407 108.554 222.407 108.236V107.162C222.358 107.222 222.248 107.276 222.079 107.326C221.914 107.372 221.721 107.414 221.503 107.45C221.287 107.483 221.077 107.513 220.871 107.54C220.669 107.563 220.505 107.583 220.379 107.599C220.074 107.639 219.789 107.704 219.524 107.793C219.262 107.879 219.05 108.01 218.888 108.186C218.729 108.358 218.649 108.594 218.649 108.892C218.649 109.3 218.8 109.608 219.101 109.817C219.406 110.022 219.792 110.125 220.26 110.125ZM225.722 111V103.364H226.856V104.517H226.935C227.075 104.139 227.326 103.833 227.691 103.597C228.056 103.362 228.467 103.244 228.924 103.244C229.01 103.244 229.118 103.246 229.247 103.249C229.376 103.253 229.474 103.258 229.54 103.264V104.457C229.501 104.447 229.41 104.433 229.267 104.413C229.128 104.389 228.98 104.378 228.825 104.378C228.453 104.378 228.122 104.456 227.83 104.612C227.542 104.764 227.313 104.976 227.144 105.248C226.978 105.516 226.896 105.823 226.896 106.168V111H225.722ZM233.178 111.179C232.695 111.179 232.255 111.088 231.861 110.906C231.467 110.72 231.153 110.453 230.921 110.105C230.689 109.754 230.573 109.33 230.573 108.832C230.573 108.395 230.66 108.04 230.832 107.768C231.004 107.493 231.235 107.278 231.523 107.122C231.811 106.966 232.129 106.85 232.477 106.774C232.829 106.695 233.182 106.632 233.536 106.585C234 106.526 234.377 106.481 234.665 106.451C234.957 106.418 235.169 106.363 235.301 106.287C235.437 106.211 235.505 106.078 235.505 105.889V105.849C235.505 105.359 235.371 104.978 235.102 104.706C234.837 104.434 234.435 104.298 233.894 104.298C233.334 104.298 232.895 104.421 232.577 104.666C232.259 104.911 232.035 105.173 231.906 105.452L230.792 105.054C230.991 104.59 231.256 104.229 231.588 103.97C231.922 103.708 232.287 103.526 232.681 103.423C233.079 103.317 233.47 103.264 233.855 103.264C234.1 103.264 234.382 103.294 234.7 103.354C235.021 103.41 235.331 103.528 235.629 103.707C235.931 103.886 236.181 104.156 236.38 104.517C236.579 104.878 236.678 105.362 236.678 105.969V111H235.505V109.966H235.445C235.366 110.132 235.233 110.309 235.048 110.498C234.862 110.687 234.615 110.848 234.307 110.98C233.999 111.113 233.623 111.179 233.178 111.179ZM233.357 110.125C233.821 110.125 234.213 110.034 234.531 109.852C234.852 109.669 235.094 109.434 235.257 109.146C235.422 108.857 235.505 108.554 235.505 108.236V107.162C235.455 107.222 235.346 107.276 235.177 107.326C235.011 107.372 234.819 107.414 234.6 107.45C234.385 107.483 234.174 107.513 233.969 107.54C233.767 107.563 233.603 107.583 233.477 107.599C233.172 107.639 232.887 107.704 232.622 107.793C232.36 107.879 232.148 108.01 231.985 108.186C231.826 108.358 231.747 108.594 231.747 108.892C231.747 109.3 231.897 109.608 232.199 109.817C232.504 110.022 232.89 110.125 233.357 110.125ZM241.922 111.159C241.206 111.159 240.59 110.99 240.073 110.652C239.556 110.314 239.158 109.848 238.88 109.255C238.601 108.662 238.462 107.984 238.462 107.222C238.462 106.446 238.605 105.762 238.89 105.168C239.178 104.572 239.579 104.106 240.093 103.771C240.61 103.433 241.213 103.264 241.902 103.264C242.439 103.264 242.923 103.364 243.354 103.562C243.785 103.761 244.138 104.04 244.413 104.398C244.688 104.756 244.859 105.173 244.925 105.651H243.752C243.662 105.303 243.463 104.994 243.155 104.726C242.85 104.454 242.439 104.318 241.922 104.318C241.465 104.318 241.064 104.437 240.719 104.676C240.378 104.911 240.111 105.245 239.919 105.675C239.73 106.103 239.635 106.605 239.635 107.182C239.635 107.772 239.728 108.286 239.914 108.723C240.103 109.161 240.368 109.5 240.709 109.742C241.054 109.984 241.458 110.105 241.922 110.105C242.227 110.105 242.504 110.052 242.752 109.946C243.001 109.84 243.212 109.688 243.384 109.489C243.556 109.29 243.679 109.051 243.752 108.773H244.925C244.859 109.223 244.695 109.629 244.433 109.991C244.174 110.349 243.831 110.634 243.404 110.846C242.98 111.055 242.486 111.159 241.922 111.159ZM249.961 103.364V104.358H246.004V103.364H249.961ZM247.157 101.534H248.331V108.812C248.331 109.144 248.379 109.393 248.475 109.558C248.574 109.721 248.7 109.83 248.853 109.886C249.008 109.939 249.172 109.966 249.345 109.966C249.474 109.966 249.58 109.959 249.663 109.946C249.746 109.929 249.812 109.916 249.862 109.906L250.1 110.96C250.021 110.99 249.91 111.02 249.767 111.05C249.625 111.083 249.444 111.099 249.225 111.099C248.894 111.099 248.569 111.028 248.251 110.886C247.936 110.743 247.674 110.526 247.466 110.234C247.26 109.943 247.157 109.575 247.157 109.131V101.534ZM254.846 111.159C254.11 111.159 253.475 110.997 252.942 110.672C252.411 110.344 252.002 109.886 251.714 109.3C251.429 108.71 251.286 108.024 251.286 107.241C251.286 106.459 251.429 105.77 251.714 105.173C252.002 104.573 252.403 104.106 252.917 103.771C253.434 103.433 254.037 103.264 254.727 103.264C255.124 103.264 255.517 103.33 255.905 103.463C256.293 103.596 256.646 103.811 256.964 104.109C257.282 104.404 257.536 104.795 257.724 105.283C257.913 105.77 258.008 106.37 258.008 107.082V107.58H252.121V106.565H256.815C256.815 106.134 256.728 105.75 256.556 105.412C256.387 105.074 256.145 104.807 255.83 104.612C255.519 104.416 255.151 104.318 254.727 104.318C254.259 104.318 253.855 104.434 253.513 104.666C253.175 104.895 252.915 105.193 252.733 105.561C252.551 105.929 252.46 106.323 252.46 106.744V107.42C252.46 107.997 252.559 108.486 252.758 108.887C252.96 109.285 253.24 109.588 253.598 109.797C253.956 110.002 254.372 110.105 254.846 110.105C255.154 110.105 255.433 110.062 255.681 109.976C255.933 109.886 256.15 109.754 256.332 109.578C256.515 109.399 256.656 109.177 256.755 108.912L257.888 109.23C257.769 109.615 257.569 109.953 257.287 110.244C257.005 110.533 256.657 110.758 256.243 110.92C255.829 111.08 255.363 111.159 254.846 111.159ZM259.793 111V103.364H260.926V104.517H261.006C261.145 104.139 261.397 103.833 261.761 103.597C262.126 103.362 262.537 103.244 262.994 103.244C263.08 103.244 263.188 103.246 263.317 103.249C263.447 103.253 263.545 103.258 263.611 103.264V104.457C263.571 104.447 263.48 104.433 263.337 104.413C263.198 104.389 263.051 104.378 262.895 104.378C262.524 104.378 262.192 104.456 261.901 104.612C261.612 104.764 261.384 104.976 261.214 105.248C261.049 105.516 260.966 105.823 260.966 106.168V111H259.793ZM270.411 105.074L269.357 105.372C269.29 105.196 269.193 105.026 269.063 104.86C268.937 104.691 268.765 104.552 268.546 104.442C268.328 104.333 268.048 104.278 267.706 104.278C267.239 104.278 266.849 104.386 266.538 104.602C266.23 104.814 266.075 105.084 266.075 105.412C266.075 105.704 266.182 105.934 266.394 106.103C266.606 106.272 266.937 106.413 267.388 106.526L268.521 106.804C269.204 106.97 269.713 107.223 270.048 107.565C270.383 107.903 270.55 108.339 270.55 108.872C270.55 109.31 270.424 109.701 270.172 110.045C269.923 110.39 269.575 110.662 269.128 110.861C268.681 111.06 268.16 111.159 267.567 111.159C266.788 111.159 266.143 110.99 265.633 110.652C265.123 110.314 264.799 109.82 264.664 109.17L265.777 108.892C265.883 109.303 266.084 109.611 266.379 109.817C266.677 110.022 267.066 110.125 267.547 110.125C268.094 110.125 268.528 110.009 268.85 109.777C269.174 109.542 269.337 109.26 269.337 108.932C269.337 108.667 269.244 108.445 269.058 108.266C268.873 108.083 268.588 107.947 268.203 107.858L266.931 107.56C266.231 107.394 265.718 107.137 265.389 106.789C265.065 106.438 264.902 105.999 264.902 105.472C264.902 105.041 265.023 104.66 265.265 104.328C265.51 103.997 265.843 103.737 266.264 103.548C266.689 103.359 267.169 103.264 267.706 103.264C268.462 103.264 269.055 103.43 269.486 103.761C269.92 104.093 270.228 104.53 270.411 105.074ZM277.427 100.818V111H276.254V100.818H277.427ZM282.678 111.159C281.989 111.159 281.384 110.995 280.863 110.667C280.346 110.339 279.942 109.88 279.65 109.29C279.362 108.7 279.218 108.01 279.218 107.222C279.218 106.426 279.362 105.732 279.65 105.138C279.942 104.545 280.346 104.085 280.863 103.756C281.384 103.428 281.989 103.264 282.678 103.264C283.367 103.264 283.971 103.428 284.488 103.756C285.008 104.085 285.412 104.545 285.701 105.138C285.992 105.732 286.138 106.426 286.138 107.222C286.138 108.01 285.992 108.7 285.701 109.29C285.412 109.88 285.008 110.339 284.488 110.667C283.971 110.995 283.367 111.159 282.678 111.159ZM282.678 110.105C283.202 110.105 283.633 109.971 283.971 109.702C284.309 109.434 284.559 109.081 284.721 108.643C284.884 108.206 284.965 107.732 284.965 107.222C284.965 106.711 284.884 106.236 284.721 105.795C284.559 105.354 284.309 104.998 283.971 104.726C283.633 104.454 283.202 104.318 282.678 104.318C282.154 104.318 281.724 104.454 281.385 104.726C281.047 104.998 280.797 105.354 280.635 105.795C280.472 106.236 280.391 106.711 280.391 107.222C280.391 107.732 280.472 108.206 280.635 108.643C280.797 109.081 281.047 109.434 281.385 109.702C281.724 109.971 282.154 110.105 282.678 110.105ZM289.103 106.406V111H287.929V103.364H289.063V104.557H289.162C289.341 104.169 289.613 103.857 289.978 103.622C290.342 103.384 290.813 103.264 291.39 103.264C291.907 103.264 292.359 103.37 292.747 103.582C293.135 103.791 293.436 104.109 293.652 104.537C293.867 104.961 293.975 105.498 293.975 106.148V111H292.801V106.227C292.801 105.627 292.646 105.16 292.334 104.825C292.023 104.487 291.595 104.318 291.051 104.318C290.677 104.318 290.342 104.399 290.047 104.562C289.756 104.724 289.525 104.961 289.356 105.273C289.187 105.584 289.103 105.962 289.103 106.406ZM299.201 114.023C298.634 114.023 298.147 113.95 297.74 113.804C297.332 113.661 296.992 113.473 296.72 113.237C296.452 113.005 296.238 112.757 296.079 112.491L297.014 111.835C297.12 111.974 297.254 112.134 297.416 112.312C297.579 112.495 297.801 112.652 298.083 112.785C298.368 112.921 298.74 112.989 299.201 112.989C299.818 112.989 300.326 112.839 300.727 112.541C301.128 112.243 301.329 111.776 301.329 111.139V109.588H301.23C301.143 109.727 301.021 109.9 300.862 110.105C300.706 110.307 300.481 110.488 300.186 110.647C299.894 110.803 299.499 110.881 299.002 110.881C298.386 110.881 297.832 110.735 297.342 110.443C296.855 110.152 296.468 109.727 296.183 109.17C295.902 108.614 295.761 107.937 295.761 107.142C295.761 106.36 295.898 105.679 296.173 105.099C296.449 104.515 296.831 104.065 297.322 103.746C297.812 103.425 298.379 103.264 299.022 103.264C299.519 103.264 299.914 103.347 300.205 103.513C300.5 103.675 300.726 103.861 300.882 104.07C301.041 104.275 301.163 104.444 301.249 104.577H301.369V103.364H302.502V111.219C302.502 111.875 302.353 112.409 302.055 112.82C301.76 113.234 301.362 113.537 300.862 113.729C300.365 113.925 299.811 114.023 299.201 114.023ZM299.161 109.827C299.632 109.827 300.03 109.719 300.355 109.504C300.679 109.288 300.926 108.978 301.095 108.574C301.264 108.17 301.349 107.686 301.349 107.122C301.349 106.572 301.266 106.086 301.1 105.665C300.935 105.245 300.689 104.915 300.365 104.676C300.04 104.437 299.639 104.318 299.161 104.318C298.664 104.318 298.25 104.444 297.919 104.696C297.59 104.948 297.343 105.286 297.178 105.71C297.015 106.134 296.934 106.605 296.934 107.122C296.934 107.652 297.017 108.121 297.183 108.529C297.352 108.933 297.6 109.252 297.928 109.484C298.26 109.712 298.671 109.827 299.161 109.827Z" fill="white" fill-opacity="0.95"/>
<path d="M52.6761 157.912V156.818H60.3125V157.912H57.1108V167H55.8778V157.912H52.6761ZM63.2296 162.406V167H62.0563V156.818H63.2296V160.557H63.329C63.508 160.162 63.7765 159.849 64.1344 159.617C64.4957 159.382 64.9763 159.264 65.5762 159.264C66.0965 159.264 66.5523 159.369 66.9434 159.577C67.3345 159.783 67.6377 160.099 67.8532 160.527C68.0719 160.951 68.1813 161.491 68.1813 162.148V167H67.008V162.227C67.008 161.621 66.8506 161.152 66.5357 160.82C66.2241 160.486 65.7916 160.318 65.2381 160.318C64.8536 160.318 64.5089 160.399 64.204 160.562C63.9024 160.724 63.6638 160.961 63.4881 161.273C63.3158 161.584 63.2296 161.962 63.2296 162.406ZM70.3278 167V159.364H71.5011V167H70.3278ZM70.9244 158.091C70.6957 158.091 70.4985 158.013 70.3327 157.857C70.1703 157.701 70.0891 157.514 70.0891 157.295C70.0891 157.077 70.1703 156.889 70.3327 156.734C70.4985 156.578 70.6957 156.5 70.9244 156.5C71.1531 156.5 71.3486 156.578 71.511 156.734C71.6767 156.889 71.7596 157.077 71.7596 157.295C71.7596 157.514 71.6767 157.701 71.511 157.857C71.3486 158.013 71.1531 158.091 70.9244 158.091ZM79.0591 161.074L78.0051 161.372C77.9389 161.196 77.8411 161.026 77.7118 160.86C77.5859 160.691 77.4135 160.552 77.1948 160.442C76.976 160.333 76.696 160.278 76.3546 160.278C75.8873 160.278 75.4978 160.386 75.1863 160.602C74.878 160.814 74.7239 161.084 74.7239 161.412C74.7239 161.704 74.83 161.934 75.0421 162.103C75.2542 162.272 75.5856 162.413 76.0364 162.526L77.1699 162.804C77.8527 162.97 78.3614 163.223 78.6962 163.565C79.031 163.903 79.1983 164.339 79.1983 164.872C79.1983 165.31 79.0724 165.701 78.8205 166.045C78.5719 166.39 78.2239 166.662 77.7765 166.861C77.329 167.06 76.8087 167.159 76.2154 167.159C75.4365 167.159 74.7918 166.99 74.2814 166.652C73.771 166.314 73.4479 165.82 73.312 165.17L74.4256 164.892C74.5317 165.303 74.7322 165.611 75.0272 165.817C75.3255 166.022 75.7149 166.125 76.1955 166.125C76.7424 166.125 77.1766 166.009 77.498 165.777C77.8229 165.542 77.9853 165.26 77.9853 164.932C77.9853 164.667 77.8925 164.445 77.7069 164.266C77.5212 164.083 77.2362 163.947 76.8517 163.858L75.579 163.56C74.8797 163.394 74.3659 163.137 74.0378 162.789C73.713 162.438 73.5506 161.999 73.5506 161.472C73.5506 161.041 73.6716 160.66 73.9135 160.328C74.1588 159.997 74.4919 159.737 74.9128 159.548C75.3371 159.359 75.8176 159.264 76.3546 159.264C77.1103 159.264 77.7035 159.43 78.1344 159.761C78.5686 160.093 78.8768 160.53 79.0591 161.074ZM88.0043 167.159C87.3149 167.159 86.71 166.995 86.1896 166.667C85.6726 166.339 85.2682 165.88 84.9766 165.29C84.6882 164.7 84.544 164.01 84.544 163.222C84.544 162.426 84.6882 161.732 84.9766 161.138C85.2682 160.545 85.6726 160.085 86.1896 159.756C86.71 159.428 87.3149 159.264 88.0043 159.264C88.6937 159.264 89.2969 159.428 89.8139 159.756C90.3343 160.085 90.7386 160.545 91.027 161.138C91.3187 161.732 91.4645 162.426 91.4645 163.222C91.4645 164.01 91.3187 164.7 91.027 165.29C90.7386 165.88 90.3343 166.339 89.8139 166.667C89.2969 166.995 88.6937 167.159 88.0043 167.159ZM88.0043 166.105C88.5279 166.105 88.9588 165.971 89.2969 165.702C89.6349 165.434 89.8852 165.081 90.0476 164.643C90.21 164.206 90.2912 163.732 90.2912 163.222C90.2912 162.711 90.21 162.236 90.0476 161.795C89.8852 161.354 89.6349 160.998 89.2969 160.726C88.9588 160.454 88.5279 160.318 88.0043 160.318C87.4806 160.318 87.0497 160.454 86.7116 160.726C86.3736 160.998 86.1233 161.354 85.9609 161.795C85.7985 162.236 85.7173 162.711 85.7173 163.222C85.7173 163.732 85.7985 164.206 85.9609 164.643C86.1233 165.081 86.3736 165.434 86.7116 165.702C87.0497 165.971 87.4806 166.105 88.0043 166.105ZM94.4288 162.406V167H93.2555V159.364H94.389V160.557H94.4885C94.6674 160.169 94.9392 159.857 95.3038 159.622C95.6684 159.384 96.139 159.264 96.7157 159.264C97.2328 159.264 97.6852 159.37 98.073 159.582C98.4608 159.791 98.7624 160.109 98.9778 160.537C99.1932 160.961 99.301 161.498 99.301 162.148V167H98.1277V162.227C98.1277 161.627 97.9719 161.16 97.6603 160.825C97.3488 160.487 96.9212 160.318 96.3777 160.318C96.0031 160.318 95.6684 160.399 95.3734 160.562C95.0817 160.724 94.8514 160.961 94.6824 161.273C94.5133 161.584 94.4288 161.962 94.4288 162.406ZM104.647 167.159C103.911 167.159 103.276 166.997 102.743 166.672C102.212 166.344 101.803 165.886 101.515 165.3C101.23 164.71 101.087 164.024 101.087 163.241C101.087 162.459 101.23 161.77 101.515 161.173C101.803 160.573 102.204 160.106 102.718 159.771C103.235 159.433 103.838 159.264 104.527 159.264C104.925 159.264 105.318 159.33 105.706 159.463C106.093 159.596 106.446 159.811 106.765 160.109C107.083 160.404 107.336 160.795 107.525 161.283C107.714 161.77 107.809 162.37 107.809 163.082V163.58H101.922V162.565H106.615C106.615 162.134 106.529 161.75 106.357 161.412C106.188 161.074 105.946 160.807 105.631 160.612C105.319 160.416 104.952 160.318 104.527 160.318C104.06 160.318 103.656 160.434 103.314 160.666C102.976 160.895 102.716 161.193 102.534 161.561C102.351 161.929 102.26 162.323 102.26 162.744V163.42C102.26 163.997 102.36 164.486 102.559 164.887C102.761 165.285 103.041 165.588 103.399 165.797C103.757 166.002 104.173 166.105 104.647 166.105C104.955 166.105 105.233 166.062 105.482 165.976C105.734 165.886 105.951 165.754 106.133 165.578C106.315 165.399 106.456 165.177 106.556 164.912L107.689 165.23C107.57 165.615 107.369 165.953 107.088 166.244C106.806 166.533 106.458 166.758 106.044 166.92C105.629 167.08 105.164 167.159 104.647 167.159ZM113.531 167V159.364H114.704V167H113.531ZM114.127 158.091C113.899 158.091 113.702 158.013 113.536 157.857C113.373 157.701 113.292 157.514 113.292 157.295C113.292 157.077 113.373 156.889 113.536 156.734C113.702 156.578 113.899 156.5 114.127 156.5C114.356 156.5 114.552 156.578 114.714 156.734C114.88 156.889 114.963 157.077 114.963 157.295C114.963 157.514 114.88 157.701 114.714 157.857C114.552 158.013 114.356 158.091 114.127 158.091ZM122.262 161.074L121.208 161.372C121.142 161.196 121.044 161.026 120.915 160.86C120.789 160.691 120.617 160.552 120.398 160.442C120.179 160.333 119.899 160.278 119.558 160.278C119.09 160.278 118.701 160.386 118.389 160.602C118.081 160.814 117.927 161.084 117.927 161.412C117.927 161.704 118.033 161.934 118.245 162.103C118.457 162.272 118.789 162.413 119.24 162.526L120.373 162.804C121.056 162.97 121.565 163.223 121.899 163.565C122.234 163.903 122.401 164.339 122.401 164.872C122.401 165.31 122.276 165.701 122.024 166.045C121.775 166.39 121.427 166.662 120.98 166.861C120.532 167.06 120.012 167.159 119.419 167.159C118.64 167.159 117.995 166.99 117.485 166.652C116.974 166.314 116.651 165.82 116.515 165.17L117.629 164.892C117.735 165.303 117.935 165.611 118.23 165.817C118.529 166.022 118.918 166.125 119.399 166.125C119.945 166.125 120.38 166.009 120.701 165.777C121.026 165.542 121.188 165.26 121.188 164.932C121.188 164.667 121.096 164.445 120.91 164.266C120.724 164.083 120.439 163.947 120.055 163.858L118.782 163.56C118.083 163.394 117.569 163.137 117.241 162.789C116.916 162.438 116.754 161.999 116.754 161.472C116.754 161.041 116.875 160.66 117.117 160.328C117.362 159.997 117.695 159.737 118.116 159.548C118.54 159.359 119.021 159.264 119.558 159.264C120.313 159.264 120.907 159.43 121.338 159.761C121.772 160.093 122.08 160.53 122.262 161.074ZM128.085 167V166.105L131.446 162.426C131.84 161.995 132.165 161.621 132.42 161.303C132.676 160.981 132.865 160.679 132.987 160.398C133.113 160.113 133.176 159.814 133.176 159.503C133.176 159.145 133.09 158.835 132.918 158.573C132.749 158.311 132.517 158.109 132.222 157.967C131.927 157.824 131.595 157.753 131.227 157.753C130.836 157.753 130.495 157.834 130.203 157.996C129.915 158.156 129.691 158.379 129.532 158.668C129.376 158.956 129.298 159.294 129.298 159.682H128.125C128.125 159.085 128.263 158.562 128.538 158.111C128.813 157.66 129.187 157.309 129.661 157.057C130.138 156.805 130.674 156.679 131.267 156.679C131.864 156.679 132.392 156.805 132.853 157.057C133.314 157.309 133.675 157.648 133.937 158.076C134.199 158.504 134.33 158.979 134.33 159.503C134.33 159.877 134.262 160.244 134.126 160.602C133.993 160.956 133.761 161.352 133.43 161.79C133.102 162.224 132.646 162.754 132.062 163.381L129.776 165.827V165.906H134.509V167H128.085ZM139.744 167.139C139.16 167.139 138.635 167.023 138.168 166.791C137.7 166.559 137.326 166.241 137.044 165.837C136.762 165.432 136.608 164.972 136.582 164.455H137.775C137.821 164.915 138.03 165.296 138.401 165.598C138.776 165.896 139.223 166.045 139.744 166.045C140.161 166.045 140.532 165.948 140.857 165.752C141.185 165.557 141.442 165.288 141.628 164.947C141.817 164.602 141.911 164.213 141.911 163.778C141.911 163.334 141.813 162.938 141.618 162.59C141.426 162.239 141.161 161.962 140.822 161.76C140.484 161.558 140.098 161.455 139.664 161.452C139.353 161.448 139.033 161.496 138.705 161.596C138.376 161.692 138.106 161.816 137.894 161.969L136.741 161.83L137.357 156.818H142.647V157.912H138.391L138.033 160.915H138.093C138.302 160.749 138.564 160.612 138.879 160.502C139.193 160.393 139.522 160.338 139.863 160.338C140.486 160.338 141.041 160.487 141.528 160.786C142.019 161.08 142.403 161.485 142.682 161.999C142.964 162.512 143.104 163.099 143.104 163.759C143.104 164.408 142.959 164.988 142.667 165.499C142.379 166.006 141.981 166.407 141.474 166.702C140.967 166.993 140.39 167.139 139.744 167.139ZM152.139 167.159C151.423 167.159 150.807 166.99 150.29 166.652C149.773 166.314 149.375 165.848 149.096 165.255C148.818 164.662 148.679 163.984 148.679 163.222C148.679 162.446 148.821 161.762 149.106 161.168C149.395 160.572 149.796 160.106 150.309 159.771C150.827 159.433 151.43 159.264 152.119 159.264C152.656 159.264 153.14 159.364 153.571 159.562C154.002 159.761 154.355 160.04 154.63 160.398C154.905 160.756 155.076 161.173 155.142 161.651H153.969C153.879 161.303 153.68 160.994 153.372 160.726C153.067 160.454 152.656 160.318 152.139 160.318C151.682 160.318 151.281 160.437 150.936 160.676C150.595 160.911 150.328 161.245 150.135 161.675C149.947 162.103 149.852 162.605 149.852 163.182C149.852 163.772 149.945 164.286 150.131 164.723C150.319 165.161 150.585 165.5 150.926 165.742C151.271 165.984 151.675 166.105 152.139 166.105C152.444 166.105 152.721 166.052 152.969 165.946C153.218 165.84 153.428 165.688 153.601 165.489C153.773 165.29 153.896 165.051 153.969 164.773H155.142C155.076 165.223 154.912 165.629 154.65 165.991C154.391 166.349 154.048 166.634 153.621 166.846C153.196 167.055 152.702 167.159 152.139 167.159ZM158.03 162.406V167H156.857V156.818H158.03V160.557H158.13C158.309 160.162 158.577 159.849 158.935 159.617C159.296 159.382 159.777 159.264 160.377 159.264C160.897 159.264 161.353 159.369 161.744 159.577C162.135 159.783 162.439 160.099 162.654 160.527C162.873 160.951 162.982 161.491 162.982 162.148V167H161.809V162.227C161.809 161.621 161.651 161.152 161.336 160.82C161.025 160.486 160.592 160.318 160.039 160.318C159.654 160.318 159.31 160.399 159.005 160.562C158.703 160.724 158.465 160.961 158.289 161.273C158.117 161.584 158.03 161.962 158.03 162.406ZM167.376 167.179C166.892 167.179 166.453 167.088 166.058 166.906C165.664 166.72 165.351 166.453 165.119 166.105C164.887 165.754 164.771 165.33 164.771 164.832C164.771 164.395 164.857 164.04 165.029 163.768C165.201 163.493 165.432 163.278 165.72 163.122C166.009 162.966 166.327 162.85 166.675 162.774C167.026 162.695 167.379 162.632 167.734 162.585C168.198 162.526 168.574 162.481 168.862 162.451C169.154 162.418 169.366 162.363 169.499 162.287C169.634 162.211 169.702 162.078 169.702 161.889V161.849C169.702 161.359 169.568 160.978 169.3 160.706C169.035 160.434 168.632 160.298 168.092 160.298C167.531 160.298 167.092 160.421 166.774 160.666C166.456 160.911 166.232 161.173 166.103 161.452L164.989 161.054C165.188 160.59 165.453 160.229 165.785 159.97C166.12 159.708 166.484 159.526 166.879 159.423C167.276 159.317 167.667 159.264 168.052 159.264C168.297 159.264 168.579 159.294 168.897 159.354C169.219 159.41 169.528 159.528 169.827 159.707C170.128 159.886 170.379 160.156 170.577 160.517C170.776 160.878 170.876 161.362 170.876 161.969V167H169.702V165.966H169.643C169.563 166.132 169.431 166.309 169.245 166.498C169.059 166.687 168.813 166.848 168.504 166.98C168.196 167.113 167.82 167.179 167.376 167.179ZM167.555 166.125C168.019 166.125 168.41 166.034 168.728 165.852C169.049 165.669 169.291 165.434 169.454 165.146C169.62 164.857 169.702 164.554 169.702 164.236V163.162C169.653 163.222 169.543 163.276 169.374 163.326C169.209 163.372 169.016 163.414 168.798 163.45C168.582 163.483 168.372 163.513 168.166 163.54C167.964 163.563 167.8 163.583 167.674 163.599C167.369 163.639 167.084 163.704 166.819 163.793C166.557 163.879 166.345 164.01 166.183 164.186C166.023 164.358 165.944 164.594 165.944 164.892C165.944 165.3 166.095 165.608 166.396 165.817C166.701 166.022 167.087 166.125 167.555 166.125ZM173.017 167V159.364H174.151V160.517H174.23C174.369 160.139 174.621 159.833 174.986 159.597C175.351 159.362 175.762 159.244 176.219 159.244C176.305 159.244 176.413 159.246 176.542 159.249C176.671 159.253 176.769 159.258 176.835 159.264V160.457C176.796 160.447 176.704 160.433 176.562 160.413C176.423 160.389 176.275 160.378 176.119 160.378C175.748 160.378 175.417 160.456 175.125 160.612C174.837 160.764 174.608 160.976 174.439 161.248C174.273 161.516 174.191 161.823 174.191 162.168V167H173.017ZM180.473 167.179C179.989 167.179 179.55 167.088 179.156 166.906C178.761 166.72 178.448 166.453 178.216 166.105C177.984 165.754 177.868 165.33 177.868 164.832C177.868 164.395 177.954 164.04 178.127 163.768C178.299 163.493 178.529 163.278 178.818 163.122C179.106 162.966 179.424 162.85 179.772 162.774C180.124 162.695 180.477 162.632 180.831 162.585C181.295 162.526 181.672 162.481 181.96 162.451C182.252 162.418 182.464 162.363 182.596 162.287C182.732 162.211 182.8 162.078 182.8 161.889V161.849C182.8 161.359 182.666 160.978 182.397 160.706C182.132 160.434 181.73 160.298 181.189 160.298C180.629 160.298 180.19 160.421 179.872 160.666C179.554 160.911 179.33 161.173 179.201 161.452L178.087 161.054C178.286 160.59 178.551 160.229 178.882 159.97C179.217 159.708 179.582 159.526 179.976 159.423C180.374 159.317 180.765 159.264 181.15 159.264C181.395 159.264 181.676 159.294 181.995 159.354C182.316 159.41 182.626 159.528 182.924 159.707C183.226 159.886 183.476 160.156 183.675 160.517C183.874 160.878 183.973 161.362 183.973 161.969V167H182.8V165.966H182.74C182.661 166.132 182.528 166.309 182.343 166.498C182.157 166.687 181.91 166.848 181.602 166.98C181.294 167.113 180.917 167.179 180.473 167.179ZM180.652 166.125C181.116 166.125 181.507 166.034 181.826 165.852C182.147 165.669 182.389 165.434 182.551 165.146C182.717 164.857 182.8 164.554 182.8 164.236V163.162C182.75 163.222 182.641 163.276 182.472 163.326C182.306 163.372 182.114 163.414 181.895 163.45C181.68 163.483 181.469 163.513 181.264 163.54C181.062 163.563 180.898 163.583 180.772 163.599C180.467 163.639 180.182 163.704 179.917 163.793C179.655 163.879 179.443 164.01 179.28 164.186C179.121 164.358 179.042 164.594 179.042 164.892C179.042 165.3 179.192 165.608 179.494 165.817C179.799 166.022 180.185 166.125 180.652 166.125ZM189.217 167.159C188.501 167.159 187.885 166.99 187.368 166.652C186.851 166.314 186.453 165.848 186.175 165.255C185.896 164.662 185.757 163.984 185.757 163.222C185.757 162.446 185.899 161.762 186.184 161.168C186.473 160.572 186.874 160.106 187.388 159.771C187.905 159.433 188.508 159.264 189.197 159.264C189.734 159.264 190.218 159.364 190.649 159.562C191.08 159.761 191.433 160.04 191.708 160.398C191.983 160.756 192.154 161.173 192.22 161.651H191.047C190.957 161.303 190.758 160.994 190.45 160.726C190.145 160.454 189.734 160.318 189.217 160.318C188.76 160.318 188.359 160.437 188.014 160.676C187.673 160.911 187.406 161.245 187.214 161.675C187.025 162.103 186.93 162.605 186.93 163.182C186.93 163.772 187.023 164.286 187.209 164.723C187.398 165.161 187.663 165.5 188.004 165.742C188.349 165.984 188.753 166.105 189.217 166.105C189.522 166.105 189.799 166.052 190.047 165.946C190.296 165.84 190.506 165.688 190.679 165.489C190.851 165.29 190.974 165.051 191.047 164.773H192.22C192.154 165.223 191.99 165.629 191.728 165.991C191.469 166.349 191.126 166.634 190.699 166.846C190.274 167.055 189.781 167.159 189.217 167.159ZM197.256 159.364V160.358H193.299V159.364H197.256ZM194.452 157.534H195.626V164.812C195.626 165.144 195.674 165.393 195.77 165.558C195.869 165.721 195.995 165.83 196.148 165.886C196.303 165.939 196.467 165.966 196.64 165.966C196.769 165.966 196.875 165.959 196.958 165.946C197.041 165.929 197.107 165.916 197.157 165.906L197.395 166.96C197.316 166.99 197.205 167.02 197.062 167.05C196.92 167.083 196.739 167.099 196.52 167.099C196.189 167.099 195.864 167.028 195.546 166.886C195.231 166.743 194.969 166.526 194.76 166.234C194.555 165.943 194.452 165.575 194.452 165.131V157.534ZM202.141 167.159C201.405 167.159 200.77 166.997 200.237 166.672C199.706 166.344 199.297 165.886 199.009 165.3C198.724 164.71 198.581 164.024 198.581 163.241C198.581 162.459 198.724 161.77 199.009 161.173C199.297 160.573 199.698 160.106 200.212 159.771C200.729 159.433 201.332 159.264 202.021 159.264C202.419 159.264 202.812 159.33 203.2 159.463C203.588 159.596 203.941 159.811 204.259 160.109C204.577 160.404 204.83 160.795 205.019 161.283C205.208 161.77 205.303 162.37 205.303 163.082V163.58H199.416V162.565H204.11C204.11 162.134 204.023 161.75 203.851 161.412C203.682 161.074 203.44 160.807 203.125 160.612C202.814 160.416 202.446 160.318 202.021 160.318C201.554 160.318 201.15 160.434 200.808 160.666C200.47 160.895 200.21 161.193 200.028 161.561C199.846 161.929 199.754 162.323 199.754 162.744V163.42C199.754 163.997 199.854 164.486 200.053 164.887C200.255 165.285 200.535 165.588 200.893 165.797C201.251 166.002 201.667 166.105 202.141 166.105C202.449 166.105 202.727 166.062 202.976 165.976C203.228 165.886 203.445 165.754 203.627 165.578C203.81 165.399 203.95 165.177 204.05 164.912L205.183 165.23C205.064 165.615 204.864 165.953 204.582 166.244C204.3 166.533 203.952 166.758 203.538 166.92C203.124 167.08 202.658 167.159 202.141 167.159ZM207.088 167V159.364H208.221V160.517H208.301C208.44 160.139 208.692 159.833 209.056 159.597C209.421 159.362 209.832 159.244 210.289 159.244C210.375 159.244 210.483 159.246 210.612 159.249C210.742 159.253 210.839 159.258 210.906 159.264V160.457C210.866 160.447 210.775 160.433 210.632 160.413C210.493 160.389 210.346 160.378 210.19 160.378C209.819 160.378 209.487 160.456 209.195 160.612C208.907 160.764 208.678 160.976 208.509 161.248C208.344 161.516 208.261 161.823 208.261 162.168V167H207.088ZM217.706 161.074L216.652 161.372C216.585 161.196 216.488 161.026 216.358 160.86C216.232 160.691 216.06 160.552 215.841 160.442C215.623 160.333 215.342 160.278 215.001 160.278C214.534 160.278 214.144 160.386 213.833 160.602C213.525 160.814 213.37 161.084 213.37 161.412C213.37 161.704 213.476 161.934 213.689 162.103C213.901 162.272 214.232 162.413 214.683 162.526L215.816 162.804C216.499 162.97 217.008 163.223 217.343 163.565C217.677 163.903 217.845 164.339 217.845 164.872C217.845 165.31 217.719 165.701 217.467 166.045C217.218 166.39 216.87 166.662 216.423 166.861C215.975 167.06 215.455 167.159 214.862 167.159C214.083 167.159 213.438 166.99 212.928 166.652C212.417 166.314 212.094 165.82 211.958 165.17L213.072 164.892C213.178 165.303 213.379 165.611 213.674 165.817C213.972 166.022 214.361 166.125 214.842 166.125C215.389 166.125 215.823 166.009 216.145 165.777C216.469 165.542 216.632 165.26 216.632 164.932C216.632 164.667 216.539 164.445 216.353 164.266C216.168 164.083 215.883 163.947 215.498 163.858L214.225 163.56C213.526 163.394 213.012 163.137 212.684 162.789C212.359 162.438 212.197 161.999 212.197 161.472C212.197 161.041 212.318 160.66 212.56 160.328C212.805 159.997 213.138 159.737 213.559 159.548C213.984 159.359 214.464 159.264 215.001 159.264C215.757 159.264 216.35 159.43 216.781 159.761C217.215 160.093 217.523 160.53 217.706 161.074Z" fill="white" fill-opacity="0.95"/>
<path d="M52.6761 213.912V212.818H60.3125V213.912H57.1108V223H55.8778V213.912H52.6761ZM63.2296 218.406V223H62.0563V212.818H63.2296V216.557H63.329C63.508 216.162 63.7765 215.849 64.1344 215.617C64.4957 215.382 64.9763 215.264 65.5762 215.264C66.0965 215.264 66.5523 215.369 66.9434 215.577C67.3345 215.783 67.6377 216.099 67.8532 216.527C68.0719 216.951 68.1813 217.491 68.1813 218.148V223H67.008V218.227C67.008 217.621 66.8506 217.152 66.5357 216.82C66.2241 216.486 65.7916 216.318 65.2381 216.318C64.8536 216.318 64.5089 216.399 64.204 216.562C63.9024 216.724 63.6638 216.961 63.4881 217.273C63.3158 217.584 63.2296 217.962 63.2296 218.406ZM70.3278 223V215.364H71.5011V223H70.3278ZM70.9244 214.091C70.6957 214.091 70.4985 214.013 70.3327 213.857C70.1703 213.701 70.0891 213.514 70.0891 213.295C70.0891 213.077 70.1703 212.889 70.3327 212.734C70.4985 212.578 70.6957 212.5 70.9244 212.5C71.1531 212.5 71.3486 212.578 71.511 212.734C71.6767 212.889 71.7596 213.077 71.7596 213.295C71.7596 213.514 71.6767 213.701 71.511 213.857C71.3486 214.013 71.1531 214.091 70.9244 214.091ZM79.0591 217.074L78.0051 217.372C77.9389 217.196 77.8411 217.026 77.7118 216.86C77.5859 216.691 77.4135 216.552 77.1948 216.442C76.976 216.333 76.696 216.278 76.3546 216.278C75.8873 216.278 75.4978 216.386 75.1863 216.602C74.878 216.814 74.7239 217.084 74.7239 217.412C74.7239 217.704 74.83 217.934 75.0421 218.103C75.2542 218.272 75.5856 218.413 76.0364 218.526L77.1699 218.804C77.8527 218.97 78.3614 219.223 78.6962 219.565C79.031 219.903 79.1983 220.339 79.1983 220.872C79.1983 221.31 79.0724 221.701 78.8205 222.045C78.5719 222.39 78.2239 222.662 77.7765 222.861C77.329 223.06 76.8087 223.159 76.2154 223.159C75.4365 223.159 74.7918 222.99 74.2814 222.652C73.771 222.314 73.4479 221.82 73.312 221.17L74.4256 220.892C74.5317 221.303 74.7322 221.611 75.0272 221.817C75.3255 222.022 75.7149 222.125 76.1955 222.125C76.7424 222.125 77.1766 222.009 77.498 221.777C77.8229 221.542 77.9853 221.26 77.9853 220.932C77.9853 220.667 77.8925 220.445 77.7069 220.266C77.5212 220.083 77.2362 219.947 76.8517 219.858L75.579 219.56C74.8797 219.394 74.3659 219.137 74.0378 218.789C73.713 218.438 73.5506 217.999 73.5506 217.472C73.5506 217.041 73.6716 216.66 73.9135 216.328C74.1588 215.997 74.4919 215.737 74.9128 215.548C75.3371 215.359 75.8176 215.264 76.3546 215.264C77.1103 215.264 77.7035 215.43 78.1344 215.761C78.5686 216.093 78.8768 216.53 79.0591 217.074ZM88.0043 223.159C87.3149 223.159 86.71 222.995 86.1896 222.667C85.6726 222.339 85.2682 221.88 84.9766 221.29C84.6882 220.7 84.544 220.01 84.544 219.222C84.544 218.426 84.6882 217.732 84.9766 217.138C85.2682 216.545 85.6726 216.085 86.1896 215.756C86.71 215.428 87.3149 215.264 88.0043 215.264C88.6937 215.264 89.2969 215.428 89.8139 215.756C90.3343 216.085 90.7386 216.545 91.027 217.138C91.3187 217.732 91.4645 218.426 91.4645 219.222C91.4645 220.01 91.3187 220.7 91.027 221.29C90.7386 221.88 90.3343 222.339 89.8139 222.667C89.2969 222.995 88.6937 223.159 88.0043 223.159ZM88.0043 222.105C88.5279 222.105 88.9588 221.971 89.2969 221.702C89.6349 221.434 89.8852 221.081 90.0476 220.643C90.21 220.206 90.2912 219.732 90.2912 219.222C90.2912 218.711 90.21 218.236 90.0476 217.795C89.8852 217.354 89.6349 216.998 89.2969 216.726C88.9588 216.454 88.5279 216.318 88.0043 216.318C87.4806 216.318 87.0497 216.454 86.7116 216.726C86.3736 216.998 86.1233 217.354 85.9609 217.795C85.7985 218.236 85.7173 218.711 85.7173 219.222C85.7173 219.732 85.7985 220.206 85.9609 220.643C86.1233 221.081 86.3736 221.434 86.7116 221.702C87.0497 221.971 87.4806 222.105 88.0043 222.105ZM94.4288 218.406V223H93.2555V215.364H94.389V216.557H94.4885C94.6674 216.169 94.9392 215.857 95.3038 215.622C95.6684 215.384 96.139 215.264 96.7157 215.264C97.2328 215.264 97.6852 215.37 98.073 215.582C98.4608 215.791 98.7624 216.109 98.9778 216.537C99.1932 216.961 99.301 217.498 99.301 218.148V223H98.1277V218.227C98.1277 217.627 97.9719 217.16 97.6603 216.825C97.3488 216.487 96.9212 216.318 96.3777 216.318C96.0031 216.318 95.6684 216.399 95.3734 216.562C95.0817 216.724 94.8514 216.961 94.6824 217.273C94.5133 217.584 94.4288 217.962 94.4288 218.406ZM104.647 223.159C103.911 223.159 103.276 222.997 102.743 222.672C102.212 222.344 101.803 221.886 101.515 221.3C101.23 220.71 101.087 220.024 101.087 219.241C101.087 218.459 101.23 217.77 101.515 217.173C101.803 216.573 102.204 216.106 102.718 215.771C103.235 215.433 103.838 215.264 104.527 215.264C104.925 215.264 105.318 215.33 105.706 215.463C106.093 215.596 106.446 215.811 106.765 216.109C107.083 216.404 107.336 216.795 107.525 217.283C107.714 217.77 107.809 218.37 107.809 219.082V219.58H101.922V218.565H106.615C106.615 218.134 106.529 217.75 106.357 217.412C106.188 217.074 105.946 216.807 105.631 216.612C105.319 216.416 104.952 216.318 104.527 216.318C104.06 216.318 103.656 216.434 103.314 216.666C102.976 216.895 102.716 217.193 102.534 217.561C102.351 217.929 102.26 218.323 102.26 218.744V219.42C102.26 219.997 102.36 220.486 102.559 220.887C102.761 221.285 103.041 221.588 103.399 221.797C103.757 222.002 104.173 222.105 104.647 222.105C104.955 222.105 105.233 222.062 105.482 221.976C105.734 221.886 105.951 221.754 106.133 221.578C106.315 221.399 106.456 221.177 106.556 220.912L107.689 221.23C107.57 221.615 107.369 221.953 107.088 222.244C106.806 222.533 106.458 222.758 106.044 222.92C105.629 223.08 105.164 223.159 104.647 223.159ZM113.531 223V215.364H114.704V223H113.531ZM114.127 214.091C113.899 214.091 113.702 214.013 113.536 213.857C113.373 213.701 113.292 213.514 113.292 213.295C113.292 213.077 113.373 212.889 113.536 212.734C113.702 212.578 113.899 212.5 114.127 212.5C114.356 212.5 114.552 212.578 114.714 212.734C114.88 212.889 114.963 213.077 114.963 213.295C114.963 213.514 114.88 213.701 114.714 213.857C114.552 214.013 114.356 214.091 114.127 214.091ZM122.262 217.074L121.208 217.372C121.142 217.196 121.044 217.026 120.915 216.86C120.789 216.691 120.617 216.552 120.398 216.442C120.179 216.333 119.899 216.278 119.558 216.278C119.09 216.278 118.701 216.386 118.389 216.602C118.081 216.814 117.927 217.084 117.927 217.412C117.927 217.704 118.033 217.934 118.245 218.103C118.457 218.272 118.789 218.413 119.24 218.526L120.373 218.804C121.056 218.97 121.565 219.223 121.899 219.565C122.234 219.903 122.401 220.339 122.401 220.872C122.401 221.31 122.276 221.701 122.024 222.045C121.775 222.39 121.427 222.662 120.98 222.861C120.532 223.06 120.012 223.159 119.419 223.159C118.64 223.159 117.995 222.99 117.485 222.652C116.974 222.314 116.651 221.82 116.515 221.17L117.629 220.892C117.735 221.303 117.935 221.611 118.23 221.817C118.529 222.022 118.918 222.125 119.399 222.125C119.945 222.125 120.38 222.009 120.701 221.777C121.026 221.542 121.188 221.26 121.188 220.932C121.188 220.667 121.096 220.445 120.91 220.266C120.724 220.083 120.439 219.947 120.055 219.858L118.782 219.56C118.083 219.394 117.569 219.137 117.241 218.789C116.916 218.438 116.754 217.999 116.754 217.472C116.754 217.041 116.875 216.66 117.117 216.328C117.362 215.997 117.695 215.737 118.116 215.548C118.54 215.359 119.021 215.264 119.558 215.264C120.313 215.264 120.907 215.43 121.338 215.761C121.772 216.093 122.08 216.53 122.262 217.074ZM131.267 223.139C130.684 223.139 130.158 223.023 129.691 222.791C129.224 222.559 128.849 222.241 128.567 221.837C128.286 221.432 128.132 220.972 128.105 220.455H129.298C129.345 220.915 129.554 221.296 129.925 221.598C130.299 221.896 130.747 222.045 131.267 222.045C131.685 222.045 132.056 221.948 132.381 221.752C132.709 221.557 132.966 221.288 133.151 220.947C133.34 220.602 133.435 220.213 133.435 219.778C133.435 219.334 133.337 218.938 133.141 218.59C132.949 218.239 132.684 217.962 132.346 217.76C132.008 217.558 131.622 217.455 131.188 217.452C130.876 217.448 130.556 217.496 130.228 217.596C129.9 217.692 129.63 217.816 129.418 217.969L128.264 217.83L128.881 212.818H134.17V213.912H129.915L129.557 216.915H129.616C129.825 216.749 130.087 216.612 130.402 216.502C130.717 216.393 131.045 216.338 131.386 216.338C132.009 216.338 132.565 216.487 133.052 216.786C133.542 217.08 133.927 217.485 134.205 217.999C134.487 218.512 134.628 219.099 134.628 219.759C134.628 220.408 134.482 220.988 134.19 221.499C133.902 222.006 133.504 222.407 132.997 222.702C132.49 222.993 131.913 223.139 131.267 223.139ZM139.924 223.139C139.175 223.139 138.537 222.935 138.01 222.528C137.483 222.117 137.08 221.522 136.802 220.743C136.523 219.961 136.384 219.016 136.384 217.909C136.384 216.809 136.523 215.869 136.802 215.09C137.083 214.308 137.488 213.711 138.015 213.3C138.545 212.886 139.181 212.679 139.924 212.679C140.666 212.679 141.301 212.886 141.828 213.3C142.358 213.711 142.763 214.308 143.041 215.09C143.323 215.869 143.464 216.809 143.464 217.909C143.464 219.016 143.324 219.961 143.046 220.743C142.768 221.522 142.365 222.117 141.838 222.528C141.311 222.935 140.673 223.139 139.924 223.139ZM139.924 222.045C140.666 222.045 141.243 221.687 141.654 220.972C142.065 220.256 142.27 219.235 142.27 217.909C142.27 217.027 142.176 216.277 141.987 215.657C141.801 215.037 141.533 214.565 141.182 214.24C140.834 213.915 140.414 213.753 139.924 213.753C139.188 213.753 138.613 214.116 138.199 214.842C137.784 215.564 137.577 216.587 137.577 217.909C137.577 218.791 137.67 219.54 137.856 220.156C138.041 220.773 138.308 221.242 138.656 221.563C139.007 221.885 139.43 222.045 139.924 222.045ZM152.412 223.159C151.697 223.159 151.08 222.99 150.563 222.652C150.046 222.314 149.648 221.848 149.37 221.255C149.091 220.662 148.952 219.984 148.952 219.222C148.952 218.446 149.095 217.762 149.38 217.168C149.668 216.572 150.069 216.106 150.583 215.771C151.1 215.433 151.703 215.264 152.393 215.264C152.93 215.264 153.413 215.364 153.844 215.562C154.275 215.761 154.628 216.04 154.903 216.398C155.178 216.756 155.349 217.173 155.415 217.651H154.242C154.153 217.303 153.954 216.994 153.645 216.726C153.34 216.454 152.93 216.318 152.412 216.318C151.955 216.318 151.554 216.437 151.209 216.676C150.868 216.911 150.601 217.245 150.409 217.675C150.22 218.103 150.126 218.605 150.126 219.182C150.126 219.772 150.218 220.286 150.404 220.723C150.593 221.161 150.858 221.5 151.199 221.742C151.544 221.984 151.948 222.105 152.412 222.105C152.717 222.105 152.994 222.052 153.243 221.946C153.491 221.84 153.702 221.688 153.874 221.489C154.046 221.29 154.169 221.051 154.242 220.773H155.415C155.349 221.223 155.185 221.629 154.923 221.991C154.665 222.349 154.322 222.634 153.894 222.846C153.47 223.055 152.976 223.159 152.412 223.159ZM158.304 218.406V223H157.131V212.818H158.304V216.557H158.403C158.582 216.162 158.851 215.849 159.209 215.617C159.57 215.382 160.05 215.264 160.65 215.264C161.171 215.264 161.626 215.369 162.018 215.577C162.409 215.783 162.712 216.099 162.927 216.527C163.146 216.951 163.256 217.491 163.256 218.148V223H162.082V218.227C162.082 217.621 161.925 217.152 161.61 216.82C161.298 216.486 160.866 216.318 160.312 216.318C159.928 216.318 159.583 216.399 159.278 216.562C158.977 216.724 158.738 216.961 158.562 217.273C158.39 217.584 158.304 217.962 158.304 218.406ZM167.649 223.179C167.165 223.179 166.726 223.088 166.332 222.906C165.937 222.72 165.624 222.453 165.392 222.105C165.16 221.754 165.044 221.33 165.044 220.832C165.044 220.395 165.13 220.04 165.303 219.768C165.475 219.493 165.705 219.278 165.994 219.122C166.282 218.966 166.6 218.85 166.948 218.774C167.299 218.695 167.652 218.632 168.007 218.585C168.471 218.526 168.847 218.481 169.136 218.451C169.427 218.418 169.639 218.363 169.772 218.287C169.908 218.211 169.976 218.078 169.976 217.889V217.849C169.976 217.359 169.842 216.978 169.573 216.706C169.308 216.434 168.905 216.298 168.365 216.298C167.805 216.298 167.366 216.421 167.048 216.666C166.729 216.911 166.506 217.173 166.376 217.452L165.263 217.054C165.462 216.59 165.727 216.229 166.058 215.97C166.393 215.708 166.758 215.526 167.152 215.423C167.55 215.317 167.941 215.264 168.325 215.264C168.571 215.264 168.852 215.294 169.17 215.354C169.492 215.41 169.802 215.528 170.1 215.707C170.402 215.886 170.652 216.156 170.851 216.517C171.05 216.878 171.149 217.362 171.149 217.969V223H169.976V221.966H169.916C169.837 222.132 169.704 222.309 169.518 222.498C169.333 222.687 169.086 222.848 168.778 222.98C168.469 223.113 168.093 223.179 167.649 223.179ZM167.828 222.125C168.292 222.125 168.683 222.034 169.001 221.852C169.323 221.669 169.565 221.434 169.727 221.146C169.893 220.857 169.976 220.554 169.976 220.236V219.162C169.926 219.222 169.817 219.276 169.648 219.326C169.482 219.372 169.29 219.414 169.071 219.45C168.856 219.483 168.645 219.513 168.44 219.54C168.237 219.563 168.073 219.583 167.947 219.599C167.643 219.639 167.357 219.704 167.092 219.793C166.83 219.879 166.618 220.01 166.456 220.186C166.297 220.358 166.217 220.594 166.217 220.892C166.217 221.3 166.368 221.608 166.67 221.817C166.975 222.022 167.361 222.125 167.828 222.125ZM173.291 223V215.364H174.424V216.517H174.504C174.643 216.139 174.895 215.833 175.259 215.597C175.624 215.362 176.035 215.244 176.492 215.244C176.579 215.244 176.686 215.246 176.816 215.249C176.945 215.253 177.043 215.258 177.109 215.264V216.457C177.069 216.447 176.978 216.433 176.835 216.413C176.696 216.389 176.549 216.378 176.393 216.378C176.022 216.378 175.69 216.456 175.399 216.612C175.11 216.764 174.882 216.976 174.713 217.248C174.547 217.516 174.464 217.823 174.464 218.168V223H173.291ZM180.747 223.179C180.263 223.179 179.824 223.088 179.429 222.906C179.035 222.72 178.722 222.453 178.49 222.105C178.258 221.754 178.142 221.33 178.142 220.832C178.142 220.395 178.228 220.04 178.4 219.768C178.573 219.493 178.803 219.278 179.091 219.122C179.38 218.966 179.698 218.85 180.046 218.774C180.397 218.695 180.75 218.632 181.105 218.585C181.569 218.526 181.945 218.481 182.233 218.451C182.525 218.418 182.737 218.363 182.87 218.287C183.006 218.211 183.074 218.078 183.074 217.889V217.849C183.074 217.359 182.939 216.978 182.671 216.706C182.406 216.434 182.003 216.298 181.463 216.298C180.903 216.298 180.463 216.421 180.145 216.666C179.827 216.911 179.603 217.173 179.474 217.452L178.36 217.054C178.559 216.59 178.824 216.229 179.156 215.97C179.491 215.708 179.855 215.526 180.25 215.423C180.647 215.317 181.038 215.264 181.423 215.264C181.668 215.264 181.95 215.294 182.268 215.354C182.59 215.41 182.9 215.528 183.198 215.707C183.499 215.886 183.75 216.156 183.949 216.517C184.147 216.878 184.247 217.362 184.247 217.969V223H183.074V221.966H183.014C182.934 222.132 182.802 222.309 182.616 222.498C182.431 222.687 182.184 222.848 181.875 222.98C181.567 223.113 181.191 223.179 180.747 223.179ZM180.926 222.125C181.39 222.125 181.781 222.034 182.099 221.852C182.421 221.669 182.663 221.434 182.825 221.146C182.991 220.857 183.074 220.554 183.074 220.236V219.162C183.024 219.222 182.914 219.276 182.745 219.326C182.58 219.372 182.387 219.414 182.169 219.45C181.953 219.483 181.743 219.513 181.537 219.54C181.335 219.563 181.171 219.583 181.045 219.599C180.74 219.639 180.455 219.704 180.19 219.793C179.928 219.879 179.716 220.01 179.554 220.186C179.395 220.358 179.315 220.594 179.315 220.892C179.315 221.3 179.466 221.608 179.767 221.817C180.072 222.022 180.458 222.125 180.926 222.125ZM189.491 223.159C188.775 223.159 188.158 222.99 187.641 222.652C187.124 222.314 186.726 221.848 186.448 221.255C186.17 220.662 186.03 219.984 186.03 219.222C186.03 218.446 186.173 217.762 186.458 217.168C186.746 216.572 187.147 216.106 187.661 215.771C188.178 215.433 188.781 215.264 189.471 215.264C190.008 215.264 190.492 215.364 190.922 215.562C191.353 215.761 191.706 216.04 191.981 216.398C192.256 216.756 192.427 217.173 192.493 217.651H191.32C191.231 217.303 191.032 216.994 190.724 216.726C190.419 216.454 190.008 216.318 189.491 216.318C189.033 216.318 188.632 216.437 188.287 216.676C187.946 216.911 187.679 217.245 187.487 217.675C187.298 218.103 187.204 218.605 187.204 219.182C187.204 219.772 187.296 220.286 187.482 220.723C187.671 221.161 187.936 221.5 188.278 221.742C188.622 221.984 189.027 222.105 189.491 222.105C189.796 222.105 190.072 222.052 190.321 221.946C190.569 221.84 190.78 221.688 190.952 221.489C191.125 221.29 191.247 221.051 191.32 220.773H192.493C192.427 221.223 192.263 221.629 192.001 221.991C191.743 222.349 191.4 222.634 190.972 222.846C190.548 223.055 190.054 223.159 189.491 223.159ZM197.53 215.364V216.358H193.572V215.364H197.53ZM194.726 213.534H195.899V220.812C195.899 221.144 195.947 221.393 196.043 221.558C196.143 221.721 196.269 221.83 196.421 221.886C196.577 221.939 196.741 221.966 196.913 221.966C197.042 221.966 197.148 221.959 197.231 221.946C197.314 221.929 197.381 221.916 197.43 221.906L197.669 222.96C197.589 222.99 197.478 223.02 197.336 223.05C197.193 223.083 197.013 223.099 196.794 223.099C196.462 223.099 196.138 223.028 195.819 222.886C195.505 222.743 195.243 222.526 195.034 222.234C194.828 221.943 194.726 221.575 194.726 221.131V213.534ZM202.414 223.159C201.678 223.159 201.044 222.997 200.51 222.672C199.98 222.344 199.57 221.886 199.282 221.3C198.997 220.71 198.855 220.024 198.855 219.241C198.855 218.459 198.997 217.77 199.282 217.173C199.57 216.573 199.972 216.106 200.485 215.771C201.002 215.433 201.606 215.264 202.295 215.264C202.693 215.264 203.085 215.33 203.473 215.463C203.861 215.596 204.214 215.811 204.532 216.109C204.85 216.404 205.104 216.795 205.293 217.283C205.482 217.77 205.576 218.37 205.576 219.082V219.58H199.69V218.565H204.383C204.383 218.134 204.297 217.75 204.124 217.412C203.955 217.074 203.713 216.807 203.399 216.612C203.087 216.416 202.719 216.318 202.295 216.318C201.828 216.318 201.423 216.434 201.082 216.666C200.744 216.895 200.484 217.193 200.301 217.561C200.119 217.929 200.028 218.323 200.028 218.744V219.42C200.028 219.997 200.127 220.486 200.326 220.887C200.528 221.285 200.808 221.588 201.166 221.797C201.524 222.002 201.94 222.105 202.414 222.105C202.722 222.105 203.001 222.062 203.249 221.976C203.501 221.886 203.718 221.754 203.901 221.578C204.083 221.399 204.224 221.177 204.323 220.912L205.457 221.23C205.338 221.615 205.137 221.953 204.855 222.244C204.574 222.533 204.226 222.758 203.811 222.92C203.397 223.08 202.931 223.159 202.414 223.159ZM207.361 223V215.364H208.494V216.517H208.574C208.713 216.139 208.965 215.833 209.33 215.597C209.694 215.362 210.105 215.244 210.563 215.244C210.649 215.244 210.757 215.246 210.886 215.249C211.015 215.253 211.113 215.258 211.179 215.264V216.457C211.139 216.447 211.048 216.433 210.906 216.413C210.767 216.389 210.619 216.378 210.463 216.378C210.092 216.378 209.761 216.456 209.469 216.612C209.181 216.764 208.952 216.976 208.783 217.248C208.617 217.516 208.534 217.823 208.534 218.168V223H207.361ZM217.979 217.074L216.925 217.372C216.859 217.196 216.761 217.026 216.632 216.86C216.506 216.691 216.333 216.552 216.115 216.442C215.896 216.333 215.616 216.278 215.275 216.278C214.807 216.278 214.418 216.386 214.106 216.602C213.798 216.814 213.644 217.084 213.644 217.412C213.644 217.704 213.75 217.934 213.962 218.103C214.174 218.272 214.506 218.413 214.956 218.526L216.09 218.804C216.773 218.97 217.281 219.223 217.616 219.565C217.951 219.903 218.118 220.339 218.118 220.872C218.118 221.31 217.992 221.701 217.74 222.045C217.492 222.39 217.144 222.662 216.696 222.861C216.249 223.06 215.729 223.159 215.135 223.159C214.356 223.159 213.712 222.99 213.201 222.652C212.691 222.314 212.368 221.82 212.232 221.17L213.346 220.892C213.452 221.303 213.652 221.611 213.947 221.817C214.245 222.022 214.635 222.125 215.115 222.125C215.662 222.125 216.096 222.009 216.418 221.777C216.743 221.542 216.905 221.26 216.905 220.932C216.905 220.667 216.812 220.445 216.627 220.266C216.441 220.083 216.156 219.947 215.772 219.858L214.499 219.56C213.8 219.394 213.286 219.137 212.958 218.789C212.633 218.438 212.471 217.999 212.471 217.472C212.471 217.041 212.592 216.66 212.833 216.328C213.079 215.997 213.412 215.737 213.833 215.548C214.257 215.359 214.738 215.264 215.275 215.264C216.03 215.264 216.623 215.43 217.054 215.761C217.489 216.093 217.797 216.53 217.979 217.074ZM223.981 223V212.818H225.154V216.577H225.254C225.34 216.444 225.459 216.275 225.612 216.07C225.767 215.861 225.99 215.675 226.278 215.513C226.57 215.347 226.964 215.264 227.461 215.264C228.104 215.264 228.671 215.425 229.161 215.746C229.652 216.068 230.035 216.524 230.31 217.114C230.585 217.704 230.722 218.4 230.722 219.202C230.722 220.01 230.585 220.711 230.31 221.305C230.035 221.895 229.654 222.352 229.166 222.677C228.679 222.998 228.117 223.159 227.481 223.159C226.99 223.159 226.598 223.078 226.303 222.915C226.008 222.75 225.781 222.562 225.622 222.354C225.463 222.142 225.34 221.966 225.254 221.827H225.115V223H223.981ZM225.134 219.182C225.134 219.759 225.219 220.267 225.388 220.708C225.557 221.146 225.804 221.489 226.129 221.737C226.454 221.982 226.851 222.105 227.322 222.105C227.812 222.105 228.222 221.976 228.55 221.717C228.881 221.455 229.13 221.104 229.296 220.663C229.465 220.219 229.549 219.725 229.549 219.182C229.549 218.645 229.466 218.161 229.301 217.73C229.138 217.296 228.891 216.953 228.56 216.701C228.232 216.446 227.819 216.318 227.322 216.318C226.845 216.318 226.444 216.439 226.119 216.681C225.794 216.92 225.549 217.254 225.383 217.685C225.217 218.113 225.134 218.612 225.134 219.182ZM235.719 223.159C234.983 223.159 234.348 222.997 233.815 222.672C233.285 222.344 232.875 221.886 232.587 221.3C232.302 220.71 232.159 220.024 232.159 219.241C232.159 218.459 232.302 217.77 232.587 217.173C232.875 216.573 233.276 216.106 233.79 215.771C234.307 215.433 234.91 215.264 235.6 215.264C235.997 215.264 236.39 215.33 236.778 215.463C237.166 215.596 237.519 215.811 237.837 216.109C238.155 216.404 238.409 216.795 238.597 217.283C238.786 217.77 238.881 218.37 238.881 219.082V219.58H232.994V218.565H237.688C237.688 218.134 237.602 217.75 237.429 217.412C237.26 217.074 237.018 216.807 236.703 216.612C236.392 216.416 236.024 216.318 235.6 216.318C235.132 216.318 234.728 216.434 234.387 216.666C234.048 216.895 233.788 217.193 233.606 217.561C233.424 217.929 233.333 218.323 233.333 218.744V219.42C233.333 219.997 233.432 220.486 233.631 220.887C233.833 221.285 234.113 221.588 234.471 221.797C234.829 222.002 235.245 222.105 235.719 222.105C236.027 222.105 236.306 222.062 236.554 221.976C236.806 221.886 237.023 221.754 237.205 221.578C237.388 221.399 237.529 221.177 237.628 220.912L238.762 221.23C238.642 221.615 238.442 221.953 238.16 222.244C237.878 222.533 237.53 222.758 237.116 222.92C236.702 223.08 236.236 223.159 235.719 223.159ZM243.768 223.159C243.052 223.159 242.436 222.99 241.919 222.652C241.401 222.314 241.004 221.848 240.725 221.255C240.447 220.662 240.308 219.984 240.308 219.222C240.308 218.446 240.45 217.762 240.735 217.168C241.024 216.572 241.425 216.106 241.938 215.771C242.455 215.433 243.059 215.264 243.748 215.264C244.285 215.264 244.769 215.364 245.2 215.562C245.631 215.761 245.984 216.04 246.259 216.398C246.534 216.756 246.704 217.173 246.771 217.651H245.597C245.508 217.303 245.309 216.994 245.001 216.726C244.696 216.454 244.285 216.318 243.768 216.318C243.311 216.318 242.91 216.437 242.565 216.676C242.223 216.911 241.957 217.245 241.764 217.675C241.575 218.103 241.481 218.605 241.481 219.182C241.481 219.772 241.574 220.286 241.759 220.723C241.948 221.161 242.213 221.5 242.555 221.742C242.9 221.984 243.304 222.105 243.768 222.105C244.073 222.105 244.35 222.052 244.598 221.946C244.847 221.84 245.057 221.688 245.23 221.489C245.402 221.29 245.525 221.051 245.597 220.773H246.771C246.704 221.223 246.54 221.629 246.279 221.991C246.02 222.349 245.677 222.634 245.249 222.846C244.825 223.055 244.331 223.159 243.768 223.159ZM250.733 223.179C250.249 223.179 249.81 223.088 249.416 222.906C249.021 222.72 248.708 222.453 248.476 222.105C248.244 221.754 248.128 221.33 248.128 220.832C248.128 220.395 248.214 220.04 248.387 219.768C248.559 219.493 248.789 219.278 249.078 219.122C249.366 218.966 249.684 218.85 250.032 218.774C250.383 218.695 250.736 218.632 251.091 218.585C251.555 218.526 251.931 218.481 252.22 218.451C252.511 218.418 252.723 218.363 252.856 218.287C252.992 218.211 253.06 218.078 253.06 217.889V217.849C253.06 217.359 252.926 216.978 252.657 216.706C252.392 216.434 251.989 216.298 251.449 216.298C250.889 216.298 250.45 216.421 250.132 216.666C249.813 216.911 249.59 217.173 249.46 217.452L248.347 217.054C248.546 216.59 248.811 216.229 249.142 215.97C249.477 215.708 249.842 215.526 250.236 215.423C250.634 215.317 251.025 215.264 251.409 215.264C251.655 215.264 251.936 215.294 252.254 215.354C252.576 215.41 252.886 215.528 253.184 215.707C253.486 215.886 253.736 216.156 253.935 216.517C254.134 216.878 254.233 217.362 254.233 217.969V223H253.06V221.966H253C252.921 222.132 252.788 222.309 252.602 222.498C252.417 222.687 252.17 222.848 251.862 222.98C251.553 223.113 251.177 223.179 250.733 223.179ZM250.912 222.125C251.376 222.125 251.767 222.034 252.085 221.852C252.407 221.669 252.649 221.434 252.811 221.146C252.977 220.857 253.06 220.554 253.06 220.236V219.162C253.01 219.222 252.901 219.276 252.732 219.326C252.566 219.372 252.374 219.414 252.155 219.45C251.94 219.483 251.729 219.513 251.524 219.54C251.321 219.563 251.157 219.583 251.031 219.599C250.727 219.639 250.441 219.704 250.176 219.793C249.914 219.879 249.702 220.01 249.54 220.186C249.381 220.358 249.301 220.594 249.301 220.892C249.301 221.3 249.452 221.608 249.754 221.817C250.059 222.022 250.445 222.125 250.912 222.125ZM261.187 219.878V215.364H262.36V223H261.187V221.707H261.108C260.929 222.095 260.65 222.425 260.272 222.697C259.895 222.965 259.417 223.099 258.841 223.099C258.363 223.099 257.939 222.995 257.568 222.786C257.197 222.574 256.905 222.256 256.693 221.832C256.481 221.404 256.375 220.866 256.375 220.216V215.364H257.548V220.136C257.548 220.693 257.704 221.137 258.015 221.469C258.33 221.8 258.731 221.966 259.218 221.966C259.51 221.966 259.807 221.891 260.108 221.742C260.413 221.593 260.668 221.364 260.874 221.056C261.083 220.748 261.187 220.355 261.187 219.878ZM269.919 217.074L268.865 217.372C268.798 217.196 268.7 217.026 268.571 216.86C268.445 216.691 268.273 216.552 268.054 216.442C267.835 216.333 267.555 216.278 267.214 216.278C266.747 216.278 266.357 216.386 266.046 216.602C265.737 216.814 265.583 217.084 265.583 217.412C265.583 217.704 265.689 217.934 265.901 218.103C266.114 218.272 266.445 218.413 266.896 218.526L268.029 218.804C268.712 218.97 269.221 219.223 269.556 219.565C269.89 219.903 270.058 220.339 270.058 220.872C270.058 221.31 269.932 221.701 269.68 222.045C269.431 222.39 269.083 222.662 268.636 222.861C268.188 223.06 267.668 223.159 267.075 223.159C266.296 223.159 265.651 222.99 265.141 222.652C264.63 222.314 264.307 221.82 264.171 221.17L265.285 220.892C265.391 221.303 265.592 221.611 265.887 221.817C266.185 222.022 266.574 222.125 267.055 222.125C267.602 222.125 268.036 222.009 268.357 221.777C268.682 221.542 268.845 221.26 268.845 220.932C268.845 220.667 268.752 220.445 268.566 220.266C268.381 220.083 268.096 219.947 267.711 219.858L266.438 219.56C265.739 219.394 265.225 219.137 264.897 218.789C264.572 218.438 264.41 217.999 264.41 217.472C264.41 217.041 264.531 216.66 264.773 216.328C265.018 215.997 265.351 215.737 265.772 215.548C266.196 215.359 266.677 215.264 267.214 215.264C267.97 215.264 268.563 215.43 268.994 215.761C269.428 216.093 269.736 216.53 269.919 217.074ZM275.026 223.159C274.29 223.159 273.655 222.997 273.121 222.672C272.591 222.344 272.182 221.886 271.893 221.3C271.608 220.71 271.466 220.024 271.466 219.241C271.466 218.459 271.608 217.77 271.893 217.173C272.182 216.573 272.583 216.106 273.097 215.771C273.614 215.433 274.217 215.264 274.906 215.264C275.304 215.264 275.697 215.33 276.085 215.463C276.472 215.596 276.825 215.811 277.143 216.109C277.462 216.404 277.715 216.795 277.904 217.283C278.093 217.77 278.188 218.37 278.188 219.082V219.58H272.301V218.565H276.994C276.994 218.134 276.908 217.75 276.736 217.412C276.567 217.074 276.325 216.807 276.01 216.612C275.698 216.416 275.33 216.318 274.906 216.318C274.439 216.318 274.035 216.434 273.693 216.666C273.355 216.895 273.095 217.193 272.913 217.561C272.73 217.929 272.639 218.323 272.639 218.744V219.42C272.639 219.997 272.739 220.486 272.938 220.887C273.14 221.285 273.42 221.588 273.778 221.797C274.136 222.002 274.552 222.105 275.026 222.105C275.334 222.105 275.612 222.062 275.861 221.976C276.113 221.886 276.33 221.754 276.512 221.578C276.694 221.399 276.835 221.177 276.935 220.912L278.068 221.23C277.949 221.615 277.748 221.953 277.467 222.244C277.185 222.533 276.837 222.758 276.423 222.92C276.008 223.08 275.543 223.159 275.026 223.159ZM287.012 223.159C286.323 223.159 285.718 222.995 285.197 222.667C284.68 222.339 284.276 221.88 283.984 221.29C283.696 220.7 283.552 220.01 283.552 219.222C283.552 218.426 283.696 217.732 283.984 217.138C284.276 216.545 284.68 216.085 285.197 215.756C285.718 215.428 286.323 215.264 287.012 215.264C287.701 215.264 288.305 215.428 288.822 215.756C289.342 216.085 289.746 216.545 290.035 217.138C290.326 217.732 290.472 218.426 290.472 219.222C290.472 220.01 290.326 220.7 290.035 221.29C289.746 221.88 289.342 222.339 288.822 222.667C288.305 222.995 287.701 223.159 287.012 223.159ZM287.012 222.105C287.536 222.105 287.967 221.971 288.305 221.702C288.643 221.434 288.893 221.081 289.055 220.643C289.218 220.206 289.299 219.732 289.299 219.222C289.299 218.711 289.218 218.236 289.055 217.795C288.893 217.354 288.643 216.998 288.305 216.726C287.967 216.454 287.536 216.318 287.012 216.318C286.488 216.318 286.058 216.454 285.719 216.726C285.381 216.998 285.131 217.354 284.969 217.795C284.806 218.236 284.725 218.711 284.725 219.222C284.725 219.732 284.806 220.206 284.969 220.643C285.131 221.081 285.381 221.434 285.719 221.702C286.058 221.971 286.488 222.105 287.012 222.105ZM295.664 215.364V216.358H291.547V215.364H295.664ZM292.78 223V214.31C292.78 213.872 292.883 213.508 293.089 213.216C293.294 212.924 293.561 212.705 293.889 212.56C294.217 212.414 294.564 212.341 294.928 212.341C295.216 212.341 295.452 212.364 295.634 212.411C295.816 212.457 295.952 212.5 296.042 212.54L295.704 213.554C295.644 213.534 295.561 213.509 295.455 213.479C295.352 213.45 295.216 213.435 295.047 213.435C294.66 213.435 294.38 213.532 294.207 213.728C294.038 213.924 293.954 214.21 293.954 214.588V223H292.78ZM303.493 223.179C303.009 223.179 302.57 223.088 302.175 222.906C301.781 222.72 301.468 222.453 301.236 222.105C301.004 221.754 300.888 221.33 300.888 220.832C300.888 220.395 300.974 220.04 301.146 219.768C301.319 219.493 301.549 219.278 301.837 219.122C302.126 218.966 302.444 218.85 302.792 218.774C303.143 218.695 303.496 218.632 303.851 218.585C304.315 218.526 304.691 218.481 304.979 218.451C305.271 218.418 305.483 218.363 305.616 218.287C305.752 218.211 305.82 218.078 305.82 217.889V217.849C305.82 217.359 305.685 216.978 305.417 216.706C305.152 216.434 304.749 216.298 304.209 216.298C303.649 216.298 303.21 216.421 302.891 216.666C302.573 216.911 302.349 217.173 302.22 217.452L301.107 217.054C301.305 216.59 301.571 216.229 301.902 215.97C302.237 215.708 302.601 215.526 302.996 215.423C303.393 215.317 303.785 215.264 304.169 215.264C304.414 215.264 304.696 215.294 305.014 215.354C305.336 215.41 305.646 215.528 305.944 215.707C306.246 215.886 306.496 216.156 306.695 216.517C306.893 216.878 306.993 217.362 306.993 217.969V223H305.82V221.966H305.76C305.68 222.132 305.548 222.309 305.362 222.498C305.177 222.687 304.93 222.848 304.621 222.98C304.313 223.113 303.937 223.179 303.493 223.179ZM303.672 222.125C304.136 222.125 304.527 222.034 304.845 221.852C305.167 221.669 305.409 221.434 305.571 221.146C305.737 220.857 305.82 220.554 305.82 220.236V219.162C305.77 219.222 305.661 219.276 305.491 219.326C305.326 219.372 305.134 219.414 304.915 219.45C304.699 219.483 304.489 219.513 304.283 219.54C304.081 219.563 303.917 219.583 303.791 219.599C303.486 219.639 303.201 219.704 302.936 219.793C302.674 219.879 302.462 220.01 302.3 220.186C302.141 220.358 302.061 220.594 302.061 220.892C302.061 221.3 302.212 221.608 302.513 221.817C302.818 222.022 303.205 222.125 303.672 222.125ZM310.308 212.818V223H309.134V212.818H310.308ZM313.63 212.818V223H312.457V212.818H313.63ZM323.037 215.364V216.358H319.08V215.364H323.037ZM320.233 213.534H321.407V220.812C321.407 221.144 321.455 221.393 321.551 221.558C321.65 221.721 321.776 221.83 321.929 221.886C322.085 221.939 322.249 221.966 322.421 221.966C322.55 221.966 322.656 221.959 322.739 221.946C322.822 221.929 322.888 221.916 322.938 221.906L323.177 222.96C323.097 222.99 322.986 223.02 322.844 223.05C322.701 223.083 322.52 223.099 322.302 223.099C321.97 223.099 321.645 223.028 321.327 222.886C321.012 222.743 320.751 222.526 320.542 222.234C320.336 221.943 320.233 221.575 320.233 221.131V213.534ZM326.14 218.406V223H324.966V212.818H326.14V216.557H326.239C326.418 216.162 326.687 215.849 327.045 215.617C327.406 215.382 327.886 215.264 328.486 215.264C329.007 215.264 329.462 215.369 329.854 215.577C330.245 215.783 330.548 216.099 330.763 216.527C330.982 216.951 331.091 217.491 331.091 218.148V223H329.918V218.227C329.918 217.621 329.761 217.152 329.446 216.82C329.134 216.486 328.702 216.318 328.148 216.318C327.764 216.318 327.419 216.399 327.114 216.562C326.813 216.724 326.574 216.961 326.398 217.273C326.226 217.584 326.14 217.962 326.14 218.406ZM336.44 223.159C335.704 223.159 335.069 222.997 334.536 222.672C334.005 222.344 333.596 221.886 333.308 221.3C333.022 220.71 332.88 220.024 332.88 219.241C332.88 218.459 333.022 217.77 333.308 217.173C333.596 216.573 333.997 216.106 334.511 215.771C335.028 215.433 335.631 215.264 336.32 215.264C336.718 215.264 337.111 215.33 337.499 215.463C337.886 215.596 338.239 215.811 338.558 216.109C338.876 216.404 339.129 216.795 339.318 217.283C339.507 217.77 339.602 218.37 339.602 219.082V219.58H333.715V218.565H338.408C338.408 218.134 338.322 217.75 338.15 217.412C337.981 217.074 337.739 216.807 337.424 216.612C337.112 216.416 336.745 216.318 336.32 216.318C335.853 216.318 335.449 216.434 335.107 216.666C334.769 216.895 334.509 217.193 334.327 217.561C334.144 217.929 334.053 218.323 334.053 218.744V219.42C334.053 219.997 334.153 220.486 334.352 220.887C334.554 221.285 334.834 221.588 335.192 221.797C335.55 222.002 335.966 222.105 336.44 222.105C336.748 222.105 337.026 222.062 337.275 221.976C337.527 221.886 337.744 221.754 337.926 221.578C338.108 221.399 338.249 221.177 338.349 220.912L339.482 221.23C339.363 221.615 339.162 221.953 338.881 222.244C338.599 222.533 338.251 222.758 337.837 222.92C337.422 223.08 336.957 223.159 336.44 223.159ZM347.054 223L344.727 215.364H345.96L347.611 221.21H347.69L349.321 215.364H350.574L352.185 221.19H352.264L353.915 215.364H355.148L352.821 223H351.668L349.997 217.134H349.878L348.207 223H347.054ZM359.541 223.159C358.852 223.159 358.247 222.995 357.727 222.667C357.21 222.339 356.805 221.88 356.514 221.29C356.225 220.7 356.081 220.01 356.081 219.222C356.081 218.426 356.225 217.732 356.514 217.138C356.805 216.545 357.21 216.085 357.727 215.756C358.247 215.428 358.852 215.264 359.541 215.264C360.231 215.264 360.834 215.428 361.351 215.756C361.871 216.085 362.276 216.545 362.564 217.138C362.856 217.732 363.002 218.426 363.002 219.222C363.002 220.01 362.856 220.7 362.564 221.29C362.276 221.88 361.871 222.339 361.351 222.667C360.834 222.995 360.231 223.159 359.541 223.159ZM359.541 222.105C360.065 222.105 360.496 221.971 360.834 221.702C361.172 221.434 361.422 221.081 361.585 220.643C361.747 220.206 361.828 219.732 361.828 219.222C361.828 218.711 361.747 218.236 361.585 217.795C361.422 217.354 361.172 216.998 360.834 216.726C360.496 216.454 360.065 216.318 359.541 216.318C359.018 216.318 358.587 216.454 358.249 216.726C357.911 216.998 357.66 217.354 357.498 217.795C357.336 218.236 357.254 218.711 357.254 219.222C357.254 219.732 357.336 220.206 357.498 220.643C357.66 221.081 357.911 221.434 358.249 221.702C358.587 221.971 359.018 222.105 359.541 222.105ZM364.793 223V215.364H365.926V216.517H366.006C366.145 216.139 366.397 215.833 366.761 215.597C367.126 215.362 367.537 215.244 367.994 215.244C368.08 215.244 368.188 215.246 368.317 215.249C368.447 215.253 368.545 215.258 368.611 215.264V216.457C368.571 216.447 368.48 216.433 368.337 216.413C368.198 216.389 368.051 216.378 367.895 216.378C367.524 216.378 367.192 216.456 366.901 216.612C366.612 216.764 366.384 216.976 366.214 217.248C366.049 217.516 365.966 217.823 365.966 218.168V223H364.793ZM372.653 223.159C372.016 223.159 371.455 222.998 370.967 222.677C370.48 222.352 370.099 221.895 369.824 221.305C369.549 220.711 369.411 220.01 369.411 219.202C369.411 218.4 369.549 217.704 369.824 217.114C370.099 216.524 370.482 216.068 370.972 215.746C371.463 215.425 372.03 215.264 372.673 215.264C373.17 215.264 373.563 215.347 373.851 215.513C374.143 215.675 374.365 215.861 374.517 216.07C374.673 216.275 374.794 216.444 374.88 216.577H374.979V212.818H376.153V223H375.019V221.827H374.88C374.794 221.966 374.671 222.142 374.512 222.354C374.353 222.562 374.126 222.75 373.831 222.915C373.536 223.078 373.143 223.159 372.653 223.159ZM372.812 222.105C373.282 222.105 373.68 221.982 374.005 221.737C374.33 221.489 374.577 221.146 374.746 220.708C374.915 220.267 374.999 219.759 374.999 219.182C374.999 218.612 374.916 218.113 374.751 217.685C374.585 217.254 374.34 216.92 374.015 216.681C373.69 216.439 373.289 216.318 372.812 216.318C372.315 216.318 371.9 216.446 371.569 216.701C371.241 216.953 370.994 217.296 370.828 217.73C370.666 218.161 370.585 218.645 370.585 219.182C370.585 219.725 370.667 220.219 370.833 220.663C371.002 221.104 371.251 221.455 371.579 221.717C371.91 221.976 372.321 222.105 372.812 222.105ZM383.874 217.074L382.82 217.372C382.753 217.196 382.656 217.026 382.526 216.86C382.4 216.691 382.228 216.552 382.009 216.442C381.79 216.333 381.51 216.278 381.169 216.278C380.702 216.278 380.312 216.386 380.001 216.602C379.692 216.814 379.538 217.084 379.538 217.412C379.538 217.704 379.644 217.934 379.857 218.103C380.069 218.272 380.4 218.413 380.851 218.526L381.984 218.804C382.667 218.97 383.176 219.223 383.511 219.565C383.845 219.903 384.013 220.339 384.013 220.872C384.013 221.31 383.887 221.701 383.635 222.045C383.386 222.39 383.038 222.662 382.591 222.861C382.143 223.06 381.623 223.159 381.03 223.159C380.251 223.159 379.606 222.99 379.096 222.652C378.585 222.314 378.262 221.82 378.126 221.17L379.24 220.892C379.346 221.303 379.547 221.611 379.842 221.817C380.14 222.022 380.529 222.125 381.01 222.125C381.557 222.125 381.991 222.009 382.312 221.777C382.637 221.542 382.8 221.26 382.8 220.932C382.8 220.667 382.707 220.445 382.521 220.266C382.336 220.083 382.051 219.947 381.666 219.858L380.393 219.56C379.694 219.394 379.18 219.137 378.852 218.789C378.527 218.438 378.365 217.999 378.365 217.472C378.365 217.041 378.486 216.66 378.728 216.328C378.973 215.997 379.306 215.737 379.727 215.548C380.152 215.359 380.632 215.264 381.169 215.264C381.925 215.264 382.518 215.43 382.949 215.761C383.383 216.093 383.691 216.53 383.874 217.074Z" fill="white" fill-opacity="0.95"/>
<defs>
<clipPath id="clip0_1706_72186">
<rect width="137" height="28" fill="white" transform="translate(40 40)"/>
</clipPath>
</defs>
</svg>
