<svg width="559" height="276" viewBox="0 0 559 276" fill="none" xmlns="http://www.w3.org/2000/svg">
<rect width="559" height="276" rx="24" fill="#262626"/>
<g clip-path="url(#clip0_1706_72045)">
<rect x="40" y="40" width="292" height="28" rx="14" fill="#7856FF"/>
<path d="M53.4091 60V48.3636H54.8182V58.75H60.2273V60H53.4091ZM65.7727 60.1818C64.9848 60.1818 64.2936 59.9943 63.6989 59.6193C63.108 59.2443 62.6458 58.7197 62.3125 58.0455C61.983 57.3712 61.8182 56.5833 61.8182 55.6818C61.8182 54.7727 61.983 53.9792 62.3125 53.3011C62.6458 52.6231 63.108 52.0966 63.6989 51.7216C64.2936 51.3466 64.9848 51.1591 65.7727 51.1591C66.5606 51.1591 67.25 51.3466 67.8409 51.7216C68.4356 52.0966 68.8977 52.6231 69.2273 53.3011C69.5606 53.9792 69.7273 54.7727 69.7273 55.6818C69.7273 56.5833 69.5606 57.3712 69.2273 58.0455C68.8977 58.7197 68.4356 59.2443 67.8409 59.6193C67.25 59.9943 66.5606 60.1818 65.7727 60.1818ZM65.7727 58.9773C66.3712 58.9773 66.8636 58.8239 67.25 58.517C67.6364 58.2102 67.9223 57.8068 68.108 57.3068C68.2936 56.8068 68.3864 56.2652 68.3864 55.6818C68.3864 55.0985 68.2936 54.5549 68.108 54.0511C67.9223 53.5473 67.6364 53.1402 67.25 52.8295C66.8636 52.5189 66.3712 52.3636 65.7727 52.3636C65.1742 52.3636 64.6818 52.5189 64.2955 52.8295C63.9091 53.1402 63.6231 53.5473 63.4375 54.0511C63.2519 54.5549 63.1591 55.0985 63.1591 55.6818C63.1591 56.2652 63.2519 56.8068 63.4375 57.3068C63.6231 57.8068 63.9091 58.2102 64.2955 58.517C64.6818 58.8239 65.1742 58.9773 65.7727 58.9773ZM75.2969 63.4545C74.6491 63.4545 74.0923 63.3712 73.6264 63.2045C73.1605 63.0417 72.7723 62.8258 72.4616 62.5568C72.1548 62.2917 71.9105 62.0076 71.7287 61.7045L72.7969 60.9545C72.9181 61.1136 73.0715 61.2955 73.2571 61.5C73.4427 61.7083 73.6965 61.8883 74.0185 62.0398C74.3442 62.1951 74.7704 62.2727 75.2969 62.2727C76.0014 62.2727 76.5829 62.1023 77.0412 61.7614C77.4995 61.4205 77.7287 60.8864 77.7287 60.1591V58.3864H77.6151C77.5166 58.5455 77.3764 58.7424 77.1946 58.9773C77.0166 59.2083 76.759 59.4148 76.4219 59.5966C76.0885 59.7746 75.6378 59.8636 75.0696 59.8636C74.3651 59.8636 73.7325 59.697 73.1719 59.3636C72.6151 59.0303 72.1738 58.5455 71.848 57.9091C71.526 57.2727 71.3651 56.5 71.3651 55.5909C71.3651 54.697 71.5223 53.9186 71.8366 53.2557C72.151 52.589 72.5885 52.0739 73.1491 51.7102C73.7098 51.3428 74.3575 51.1591 75.0923 51.1591C75.6605 51.1591 76.1113 51.2538 76.4446 51.4432C76.7817 51.6288 77.0393 51.8409 77.2173 52.0795C77.3991 52.3144 77.5393 52.5076 77.6378 52.6591H77.7741V51.2727H79.0696V60.25C79.0696 61 78.8991 61.6098 78.5582 62.0795C78.2211 62.553 77.7666 62.8996 77.1946 63.1193C76.6264 63.3428 75.9938 63.4545 75.2969 63.4545ZM75.2514 58.6591C75.7893 58.6591 76.2438 58.536 76.6151 58.2898C76.9863 58.0436 77.2685 57.6894 77.4616 57.2273C77.6548 56.7652 77.7514 56.2121 77.7514 55.5682C77.7514 54.9394 77.6567 54.3845 77.4673 53.9034C77.2779 53.4223 76.9976 53.0455 76.6264 52.7727C76.2552 52.5 75.7969 52.3636 75.2514 52.3636C74.6832 52.3636 74.2098 52.5076 73.831 52.7955C73.456 53.0833 73.1738 53.4697 72.9844 53.9545C72.7988 54.4394 72.706 54.9773 72.706 55.5682C72.706 56.1742 72.8007 56.7102 72.9901 57.1761C73.1832 57.6383 73.4673 58.0019 73.8423 58.267C74.2211 58.5284 74.6908 58.6591 75.2514 58.6591ZM81.5241 60V51.2727H82.8651V60H81.5241ZM82.206 49.8182C81.9446 49.8182 81.7192 49.7292 81.5298 49.5511C81.3442 49.3731 81.2514 49.1591 81.2514 48.9091C81.2514 48.6591 81.3442 48.4451 81.5298 48.267C81.7192 48.089 81.9446 48 82.206 48C82.4673 48 82.6908 48.089 82.8764 48.267C83.0658 48.4451 83.1605 48.6591 83.1605 48.9091C83.1605 49.1591 83.0658 49.3731 82.8764 49.5511C82.6908 49.7292 82.4673 49.8182 82.206 49.8182ZM88.8665 60.1818C88.0483 60.1818 87.3438 59.9886 86.7528 59.6023C86.1619 59.2159 85.7074 58.6837 85.3892 58.0057C85.071 57.3277 84.9119 56.553 84.9119 55.6818C84.9119 54.7955 85.0748 54.0133 85.4006 53.3352C85.7301 52.6534 86.1884 52.1212 86.7756 51.7386C87.3665 51.3523 88.0559 51.1591 88.8438 51.1591C89.4574 51.1591 90.0104 51.2727 90.5028 51.5C90.9953 51.7273 91.3987 52.0455 91.7131 52.4545C92.0275 52.8636 92.2225 53.3409 92.2983 53.8864H90.9574C90.8551 53.4886 90.6278 53.1364 90.2756 52.8295C89.9271 52.5189 89.4574 52.3636 88.8665 52.3636C88.3438 52.3636 87.8854 52.5 87.4915 52.7727C87.1013 53.0417 86.7964 53.4223 86.5767 53.9148C86.3608 54.4034 86.2528 54.9773 86.2528 55.6364C86.2528 56.3106 86.3589 56.8977 86.571 57.3977C86.7869 57.8977 87.09 58.286 87.4801 58.5625C87.8741 58.839 88.3362 58.9773 88.8665 58.9773C89.215 58.9773 89.5312 58.9167 89.8153 58.7955C90.0994 58.6742 90.34 58.5 90.5369 58.2727C90.7339 58.0455 90.8741 57.7727 90.9574 57.4545H92.2983C92.2225 57.9697 92.035 58.4337 91.7358 58.8466C91.4403 59.2557 91.0483 59.5814 90.5597 59.8239C90.0748 60.0625 89.5104 60.1818 88.8665 60.1818ZM102.304 60.1818C101.516 60.1818 100.825 59.9943 100.23 59.6193C99.6392 59.2443 99.1771 58.7197 98.8438 58.0455C98.5142 57.3712 98.3494 56.5833 98.3494 55.6818C98.3494 54.7727 98.5142 53.9792 98.8438 53.3011C99.1771 52.6231 99.6392 52.0966 100.23 51.7216C100.825 51.3466 101.516 51.1591 102.304 51.1591C103.092 51.1591 103.781 51.3466 104.372 51.7216C104.967 52.0966 105.429 52.6231 105.759 53.3011C106.092 53.9792 106.259 54.7727 106.259 55.6818C106.259 56.5833 106.092 57.3712 105.759 58.0455C105.429 58.7197 104.967 59.2443 104.372 59.6193C103.781 59.9943 103.092 60.1818 102.304 60.1818ZM102.304 58.9773C102.902 58.9773 103.395 58.8239 103.781 58.517C104.168 58.2102 104.454 57.8068 104.639 57.3068C104.825 56.8068 104.918 56.2652 104.918 55.6818C104.918 55.0985 104.825 54.5549 104.639 54.0511C104.454 53.5473 104.168 53.1402 103.781 52.8295C103.395 52.5189 102.902 52.3636 102.304 52.3636C101.705 52.3636 101.213 52.5189 100.827 52.8295C100.44 53.1402 100.154 53.5473 99.9688 54.0511C99.7831 54.5549 99.6903 55.0985 99.6903 55.6818C99.6903 56.2652 99.7831 56.8068 99.9688 57.3068C100.154 57.8068 100.44 58.2102 100.827 58.517C101.213 58.8239 101.705 58.9773 102.304 58.9773ZM108.305 60V51.2727H109.601V52.5909H109.692C109.851 52.1591 110.139 51.8087 110.555 51.5398C110.972 51.2708 111.442 51.1364 111.964 51.1364C112.063 51.1364 112.186 51.1383 112.334 51.142C112.482 51.1458 112.593 51.1515 112.669 51.1591V52.5227C112.624 52.5114 112.519 52.4943 112.357 52.4716C112.197 52.4451 112.029 52.4318 111.851 52.4318C111.427 52.4318 111.048 52.5208 110.714 52.6989C110.385 52.8731 110.124 53.1155 109.93 53.4261C109.741 53.733 109.646 54.0833 109.646 54.4773V60H108.305ZM117.288 60.1818C116.561 60.1818 115.919 59.9981 115.362 59.6307C114.805 59.2595 114.37 58.7367 114.055 58.0625C113.741 57.3845 113.584 56.5833 113.584 55.6591C113.584 54.7424 113.741 53.947 114.055 53.2727C114.37 52.5985 114.807 52.0777 115.368 51.7102C115.929 51.3428 116.576 51.1591 117.311 51.1591C117.879 51.1591 118.328 51.2538 118.658 51.4432C118.991 51.6288 119.245 51.8409 119.419 52.0795C119.597 52.3144 119.735 52.5076 119.834 52.6591H119.947V48.3636H121.288V60H119.993V58.6591H119.834C119.735 58.8182 119.595 59.0189 119.413 59.2614C119.232 59.5 118.972 59.714 118.635 59.9034C118.298 60.089 117.849 60.1818 117.288 60.1818ZM117.47 58.9773C118.008 58.9773 118.463 58.8371 118.834 58.5568C119.205 58.2727 119.487 57.8807 119.68 57.3807C119.874 56.8769 119.97 56.2955 119.97 55.6364C119.97 54.9848 119.875 54.4148 119.686 53.9261C119.497 53.4337 119.216 53.0511 118.845 52.7784C118.474 52.5019 118.016 52.3636 117.47 52.3636C116.902 52.3636 116.429 52.5095 116.05 52.8011C115.675 53.089 115.393 53.4811 115.203 53.9773C115.018 54.4697 114.925 55.0227 114.925 55.6364C114.925 56.2576 115.019 56.822 115.209 57.3295C115.402 57.8333 115.686 58.2348 116.061 58.5341C116.44 58.8295 116.91 58.9773 117.47 58.9773ZM127.589 60.1818C126.749 60.1818 126.023 59.9962 125.413 59.625C124.807 59.25 124.339 58.7273 124.01 58.0568C123.684 57.3826 123.521 56.5985 123.521 55.7045C123.521 54.8106 123.684 54.0227 124.01 53.3409C124.339 52.6553 124.798 52.1212 125.385 51.7386C125.976 51.3523 126.665 51.1591 127.453 51.1591C127.908 51.1591 128.357 51.2348 128.8 51.3864C129.243 51.5379 129.646 51.7841 130.01 52.125C130.374 52.4621 130.663 52.9091 130.879 53.4659C131.095 54.0227 131.203 54.7083 131.203 55.5227V56.0909H124.476V54.9318H129.839C129.839 54.4394 129.741 54 129.544 53.6136C129.351 53.2273 129.074 52.9223 128.714 52.6989C128.358 52.4754 127.938 52.3636 127.453 52.3636C126.919 52.3636 126.457 52.4962 126.067 52.7614C125.68 53.0227 125.383 53.3636 125.175 53.7841C124.966 54.2045 124.862 54.6553 124.862 55.1364V55.9091C124.862 56.5682 124.976 57.1269 125.203 57.5852C125.434 58.0398 125.754 58.3864 126.163 58.625C126.572 58.8598 127.048 58.9773 127.589 58.9773C127.942 58.9773 128.26 58.928 128.544 58.8295C128.832 58.7273 129.08 58.5758 129.288 58.375C129.497 58.1705 129.658 57.9167 129.771 57.6136L131.067 57.9773C130.93 58.4167 130.701 58.803 130.379 59.1364C130.057 59.4659 129.66 59.7235 129.186 59.9091C128.713 60.0909 128.18 60.1818 127.589 60.1818ZM133.243 60V51.2727H134.538V52.5909H134.629C134.788 52.1591 135.076 51.8087 135.493 51.5398C135.91 51.2708 136.379 51.1364 136.902 51.1364C137 51.1364 137.124 51.1383 137.271 51.142C137.419 51.1458 137.531 51.1515 137.607 51.1591V52.5227C137.561 52.5114 137.457 52.4943 137.294 52.4716C137.135 52.4451 136.966 52.4318 136.788 52.4318C136.364 52.4318 135.985 52.5208 135.652 52.6989C135.322 52.8731 135.061 53.1155 134.868 53.4261C134.679 53.733 134.584 54.0833 134.584 54.4773V60H133.243ZM144.173 55.0909C144.173 53.6591 144.359 52.3428 144.73 51.142C145.105 49.9375 145.639 48.8295 146.332 47.8182H147.514C147.241 48.1932 146.986 48.6553 146.747 49.2045C146.512 49.75 146.306 50.3504 146.128 51.0057C145.95 51.6572 145.81 52.3314 145.707 53.0284C145.609 53.7254 145.56 54.4129 145.56 55.0909C145.56 55.9924 145.647 56.9072 145.821 57.8352C145.995 58.7633 146.23 59.625 146.526 60.4205C146.821 61.2159 147.151 61.8636 147.514 62.3636H146.332C145.639 61.3523 145.105 60.2462 144.73 59.0455C144.359 57.8409 144.173 56.5227 144.173 55.0909ZM150.834 48.3636V60H149.493V48.3636H150.834ZM156.949 60.1818C156.108 60.1818 155.383 59.9962 154.773 59.625C154.167 59.25 153.699 58.7273 153.369 58.0568C153.044 57.3826 152.881 56.5985 152.881 55.7045C152.881 54.8106 153.044 54.0227 153.369 53.3409C153.699 52.6553 154.157 52.1212 154.744 51.7386C155.335 51.3523 156.025 51.1591 156.812 51.1591C157.267 51.1591 157.716 51.2348 158.159 51.3864C158.602 51.5379 159.006 51.7841 159.369 52.125C159.733 52.4621 160.023 52.9091 160.239 53.4659C160.455 54.0227 160.562 54.7083 160.562 55.5227V56.0909H153.835V54.9318H159.199C159.199 54.4394 159.1 54 158.903 53.6136C158.71 53.2273 158.434 52.9223 158.074 52.6989C157.718 52.4754 157.297 52.3636 156.812 52.3636C156.278 52.3636 155.816 52.4962 155.426 52.7614C155.04 53.0227 154.742 53.3636 154.534 53.7841C154.326 54.2045 154.222 54.6553 154.222 55.1364V55.9091C154.222 56.5682 154.335 57.1269 154.562 57.5852C154.794 58.0398 155.114 58.3864 155.523 58.625C155.932 58.8598 156.407 58.9773 156.949 58.9773C157.301 58.9773 157.619 58.928 157.903 58.8295C158.191 58.7273 158.439 58.5758 158.648 58.375C158.856 58.1705 159.017 57.9167 159.131 57.6136L160.426 57.9773C160.29 58.4167 160.061 58.803 159.739 59.1364C159.417 59.4659 159.019 59.7235 158.545 59.9091C158.072 60.0909 157.54 60.1818 156.949 60.1818ZM165.17 60.2045C164.617 60.2045 164.116 60.1004 163.665 59.892C163.214 59.6799 162.856 59.375 162.591 58.9773C162.326 58.5758 162.193 58.0909 162.193 57.5227C162.193 57.0227 162.292 56.6174 162.489 56.3068C162.686 55.9924 162.949 55.7462 163.278 55.5682C163.608 55.3902 163.972 55.2576 164.369 55.1705C164.771 55.0795 165.174 55.0076 165.58 54.9545C166.11 54.8864 166.54 54.8352 166.869 54.8011C167.203 54.7633 167.445 54.7008 167.597 54.6136C167.752 54.5265 167.83 54.375 167.83 54.1591V54.1136C167.83 53.553 167.676 53.1174 167.369 52.8068C167.066 52.4962 166.606 52.3409 165.989 52.3409C165.348 52.3409 164.847 52.4811 164.483 52.7614C164.119 53.0417 163.864 53.3409 163.716 53.6591L162.443 53.2045C162.67 52.6742 162.973 52.2614 163.352 51.9659C163.735 51.6667 164.152 51.4583 164.602 51.3409C165.057 51.2197 165.504 51.1591 165.943 51.1591C166.223 51.1591 166.545 51.1932 166.909 51.2614C167.277 51.3258 167.631 51.4602 167.972 51.6648C168.316 51.8693 168.602 52.178 168.83 52.5909C169.057 53.0038 169.17 53.5568 169.17 54.25V60H167.83V58.8182H167.761C167.67 59.0076 167.519 59.2102 167.307 59.4261C167.095 59.642 166.813 59.8258 166.46 59.9773C166.108 60.1288 165.678 60.2045 165.17 60.2045ZM165.375 59C165.905 59 166.352 58.8958 166.716 58.6875C167.083 58.4792 167.36 58.2102 167.545 57.8807C167.735 57.5511 167.83 57.2045 167.83 56.8409V55.6136C167.773 55.6818 167.648 55.7443 167.455 55.8011C167.265 55.8542 167.045 55.9015 166.795 55.9432C166.549 55.9811 166.309 56.0152 166.074 56.0455C165.843 56.072 165.655 56.0947 165.511 56.1136C165.163 56.1591 164.837 56.233 164.534 56.3352C164.235 56.4337 163.992 56.5833 163.807 56.7841C163.625 56.9811 163.534 57.25 163.534 57.5909C163.534 58.0568 163.706 58.4091 164.051 58.6477C164.4 58.8826 164.841 59 165.375 59ZM177.8 53.2273L176.595 53.5682C176.519 53.3674 176.408 53.1723 176.26 52.983C176.116 52.7898 175.919 52.6307 175.669 52.5057C175.419 52.3807 175.099 52.3182 174.709 52.3182C174.175 52.3182 173.73 52.4413 173.374 52.6875C173.021 52.9299 172.845 53.2386 172.845 53.6136C172.845 53.947 172.966 54.2102 173.209 54.4034C173.451 54.5966 173.83 54.7576 174.345 54.8864L175.641 55.2045C176.421 55.3939 177.002 55.6837 177.385 56.0739C177.768 56.4602 177.959 56.9583 177.959 57.5682C177.959 58.0682 177.815 58.5152 177.527 58.9091C177.243 59.303 176.845 59.6136 176.334 59.8409C175.822 60.0682 175.228 60.1818 174.55 60.1818C173.66 60.1818 172.923 59.9886 172.339 59.6023C171.756 59.2159 171.387 58.6515 171.232 57.9091L172.504 57.5909C172.625 58.0606 172.855 58.4129 173.192 58.6477C173.533 58.8826 173.978 59 174.527 59C175.152 59 175.648 58.8674 176.016 58.6023C176.387 58.3333 176.572 58.0114 176.572 57.6364C176.572 57.3333 176.466 57.0795 176.254 56.875C176.042 56.6667 175.716 56.5114 175.277 56.4091L173.822 56.0682C173.023 55.8788 172.436 55.5852 172.061 55.1875C171.69 54.786 171.504 54.2841 171.504 53.6818C171.504 53.1894 171.643 52.7538 171.919 52.375C172.199 51.9962 172.58 51.6989 173.061 51.483C173.546 51.267 174.095 51.1591 174.709 51.1591C175.572 51.1591 176.25 51.3485 176.743 51.7273C177.239 52.1061 177.591 52.6061 177.8 53.2273ZM183.773 51.2727V52.4091H179.25V51.2727H183.773ZM180.568 49.1818H181.909V57.5C181.909 57.8788 181.964 58.1629 182.074 58.3523C182.188 58.5379 182.331 58.6629 182.506 58.7273C182.684 58.7879 182.871 58.8182 183.068 58.8182C183.216 58.8182 183.337 58.8106 183.432 58.7955C183.527 58.7765 183.602 58.7614 183.659 58.75L183.932 59.9545C183.841 59.9886 183.714 60.0227 183.551 60.0568C183.388 60.0947 183.182 60.1136 182.932 60.1136C182.553 60.1136 182.182 60.0322 181.818 59.8693C181.458 59.7064 181.159 59.4583 180.92 59.125C180.686 58.7917 180.568 58.3712 180.568 57.8636V49.1818ZM194.085 51.2727V52.4091H189.562V51.2727H194.085ZM190.881 49.1818H192.222V57.5C192.222 57.8788 192.277 58.1629 192.386 58.3523C192.5 58.5379 192.644 58.6629 192.818 58.7273C192.996 58.7879 193.184 58.8182 193.381 58.8182C193.528 58.8182 193.65 58.8106 193.744 58.7955C193.839 58.7765 193.915 58.7614 193.972 58.75L194.244 59.9545C194.153 59.9886 194.027 60.0227 193.864 60.0568C193.701 60.0947 193.494 60.1136 193.244 60.1136C192.866 60.1136 192.494 60.0322 192.131 59.8693C191.771 59.7064 191.472 59.4583 191.233 59.125C190.998 58.7917 190.881 58.3712 190.881 57.8636V49.1818ZM199.554 60.1818C198.766 60.1818 198.075 59.9943 197.48 59.6193C196.889 59.2443 196.427 58.7197 196.094 58.0455C195.764 57.3712 195.599 56.5833 195.599 55.6818C195.599 54.7727 195.764 53.9792 196.094 53.3011C196.427 52.6231 196.889 52.0966 197.48 51.7216C198.075 51.3466 198.766 51.1591 199.554 51.1591C200.342 51.1591 201.031 51.3466 201.622 51.7216C202.217 52.0966 202.679 52.6231 203.009 53.3011C203.342 53.9792 203.509 54.7727 203.509 55.6818C203.509 56.5833 203.342 57.3712 203.009 58.0455C202.679 58.7197 202.217 59.2443 201.622 59.6193C201.031 59.9943 200.342 60.1818 199.554 60.1818ZM199.554 58.9773C200.152 58.9773 200.645 58.8239 201.031 58.517C201.418 58.2102 201.704 57.8068 201.889 57.3068C202.075 56.8068 202.168 56.2652 202.168 55.6818C202.168 55.0985 202.075 54.5549 201.889 54.0511C201.704 53.5473 201.418 53.1402 201.031 52.8295C200.645 52.5189 200.152 52.3636 199.554 52.3636C198.955 52.3636 198.463 52.5189 198.077 52.8295C197.69 53.1402 197.404 53.5473 197.219 54.0511C197.033 54.5549 196.94 55.0985 196.94 55.6818C196.94 56.2652 197.033 56.8068 197.219 57.3068C197.404 57.8068 197.69 58.2102 198.077 58.517C198.463 58.8239 198.955 58.9773 199.554 58.9773ZM210.055 60V51.2727H211.351V52.6364H211.464C211.646 52.1705 211.94 51.8087 212.345 51.5511C212.75 51.2898 213.237 51.1591 213.805 51.1591C214.381 51.1591 214.86 51.2898 215.243 51.5511C215.629 51.8087 215.93 52.1705 216.146 52.6364H216.237C216.461 52.1856 216.796 51.8277 217.243 51.5625C217.69 51.2936 218.226 51.1591 218.851 51.1591C219.631 51.1591 220.269 51.4034 220.766 51.892C221.262 52.3769 221.51 53.1326 221.51 54.1591V60H220.169V54.1591C220.169 53.5152 219.993 53.0549 219.641 52.7784C219.288 52.5019 218.874 52.3636 218.396 52.3636C217.783 52.3636 217.307 52.5492 216.97 52.9205C216.633 53.2879 216.464 53.7538 216.464 54.3182V60H215.101V54.0227C215.101 53.5265 214.94 53.1269 214.618 52.8239C214.296 52.517 213.881 52.3636 213.374 52.3636C213.025 52.3636 212.699 52.4564 212.396 52.642C212.097 52.8277 211.855 53.0852 211.669 53.4148C211.487 53.7405 211.396 54.1174 211.396 54.5455V60H210.055ZM227.507 60.1818C226.719 60.1818 226.028 59.9943 225.433 59.6193C224.842 59.2443 224.38 58.7197 224.047 58.0455C223.717 57.3712 223.553 56.5833 223.553 55.6818C223.553 54.7727 223.717 53.9792 224.047 53.3011C224.38 52.6231 224.842 52.0966 225.433 51.7216C226.028 51.3466 226.719 51.1591 227.507 51.1591C228.295 51.1591 228.984 51.3466 229.575 51.7216C230.17 52.0966 230.632 52.6231 230.962 53.3011C231.295 53.9792 231.462 54.7727 231.462 55.6818C231.462 56.5833 231.295 57.3712 230.962 58.0455C230.632 58.7197 230.17 59.2443 229.575 59.6193C228.984 59.9943 228.295 60.1818 227.507 60.1818ZM227.507 58.9773C228.106 58.9773 228.598 58.8239 228.984 58.517C229.371 58.2102 229.657 57.8068 229.842 57.3068C230.028 56.8068 230.121 56.2652 230.121 55.6818C230.121 55.0985 230.028 54.5549 229.842 54.0511C229.657 53.5473 229.371 53.1402 228.984 52.8295C228.598 52.5189 228.106 52.3636 227.507 52.3636C226.909 52.3636 226.416 52.5189 226.03 52.8295C225.643 53.1402 225.357 53.5473 225.172 54.0511C224.986 54.5549 224.893 55.0985 224.893 55.6818C224.893 56.2652 224.986 56.8068 225.172 57.3068C225.357 57.8068 225.643 58.2102 226.03 58.517C226.416 58.8239 226.909 58.9773 227.507 58.9773ZM239.69 53.2273L238.486 53.5682C238.41 53.3674 238.298 53.1723 238.151 52.983C238.007 52.7898 237.81 52.6307 237.56 52.5057C237.31 52.3807 236.99 52.3182 236.599 52.3182C236.065 52.3182 235.62 52.4413 235.264 52.6875C234.912 52.9299 234.736 53.2386 234.736 53.6136C234.736 53.947 234.857 54.2102 235.099 54.4034C235.342 54.5966 235.721 54.7576 236.236 54.8864L237.531 55.2045C238.312 55.3939 238.893 55.6837 239.276 56.0739C239.658 56.4602 239.849 56.9583 239.849 57.5682C239.849 58.0682 239.705 58.5152 239.418 58.9091C239.134 59.303 238.736 59.6136 238.224 59.8409C237.713 60.0682 237.118 60.1818 236.44 60.1818C235.55 60.1818 234.813 59.9886 234.23 59.6023C233.647 59.2159 233.277 58.6515 233.122 57.9091L234.395 57.5909C234.516 58.0606 234.745 58.4129 235.082 58.6477C235.423 58.8826 235.868 59 236.418 59C237.043 59 237.539 58.8674 237.906 58.6023C238.277 58.3333 238.463 58.0114 238.463 57.6364C238.463 57.3333 238.357 57.0795 238.145 56.875C237.933 56.6667 237.607 56.5114 237.168 56.4091L235.713 56.0682C234.914 55.8788 234.327 55.5852 233.952 55.1875C233.58 54.786 233.395 54.2841 233.395 53.6818C233.395 53.1894 233.533 52.7538 233.81 52.375C234.09 51.9962 234.471 51.6989 234.952 51.483C235.437 51.267 235.986 51.1591 236.599 51.1591C237.463 51.1591 238.141 51.3485 238.634 51.7273C239.13 52.1061 239.482 52.6061 239.69 53.2273ZM245.663 51.2727V52.4091H241.141V51.2727H245.663ZM242.459 49.1818H243.8V57.5C243.8 57.8788 243.855 58.1629 243.964 58.3523C244.078 58.5379 244.222 58.6629 244.396 58.7273C244.574 58.7879 244.762 58.8182 244.959 58.8182C245.107 58.8182 245.228 58.8106 245.322 58.7955C245.417 58.7765 245.493 58.7614 245.55 58.75L245.822 59.9545C245.732 59.9886 245.605 60.0227 245.442 60.0568C245.279 60.0947 245.072 60.1136 244.822 60.1136C244.444 60.1136 244.072 60.0322 243.709 59.8693C243.349 59.7064 243.05 59.4583 242.811 59.125C242.576 58.7917 242.459 58.3712 242.459 57.8636V49.1818ZM252.18 60V51.2727H253.521V60H252.18ZM252.862 49.8182C252.601 49.8182 252.375 49.7292 252.186 49.5511C252 49.3731 251.908 49.1591 251.908 48.9091C251.908 48.6591 252 48.4451 252.186 48.267C252.375 48.089 252.601 48 252.862 48C253.124 48 253.347 48.089 253.533 48.267C253.722 48.4451 253.817 48.6591 253.817 48.9091C253.817 49.1591 253.722 49.3731 253.533 49.5511C253.347 49.7292 253.124 49.8182 252.862 49.8182ZM257.318 54.75V60H255.977V51.2727H257.273V52.6364H257.386C257.591 52.1932 257.902 51.8371 258.318 51.5682C258.735 51.2955 259.273 51.1591 259.932 51.1591C260.523 51.1591 261.04 51.2803 261.483 51.5227C261.926 51.7614 262.271 52.125 262.517 52.6136C262.763 53.0985 262.886 53.7121 262.886 54.4545V60H261.545V54.5455C261.545 53.8598 261.367 53.3258 261.011 52.9432C260.655 52.5568 260.167 52.3636 259.545 52.3636C259.117 52.3636 258.735 52.4564 258.398 52.642C258.064 52.8277 257.801 53.0985 257.608 53.4545C257.415 53.8106 257.318 54.2424 257.318 54.75ZM272.161 51.2727L268.933 60H267.57L264.342 51.2727H265.797L268.206 58.2273H268.297L270.706 51.2727H272.161ZM277.163 60.1818C276.375 60.1818 275.684 59.9943 275.089 59.6193C274.499 59.2443 274.036 58.7197 273.703 58.0455C273.374 57.3712 273.209 56.5833 273.209 55.6818C273.209 54.7727 273.374 53.9792 273.703 53.3011C274.036 52.6231 274.499 52.0966 275.089 51.7216C275.684 51.3466 276.375 51.1591 277.163 51.1591C277.951 51.1591 278.641 51.3466 279.232 51.7216C279.826 52.0966 280.288 52.6231 280.618 53.3011C280.951 53.9792 281.118 54.7727 281.118 55.6818C281.118 56.5833 280.951 57.3712 280.618 58.0455C280.288 58.7197 279.826 59.2443 279.232 59.6193C278.641 59.9943 277.951 60.1818 277.163 60.1818ZM277.163 58.9773C277.762 58.9773 278.254 58.8239 278.641 58.517C279.027 58.2102 279.313 57.8068 279.499 57.3068C279.684 56.8068 279.777 56.2652 279.777 55.6818C279.777 55.0985 279.684 54.5549 279.499 54.0511C279.313 53.5473 279.027 53.1402 278.641 52.8295C278.254 52.5189 277.762 52.3636 277.163 52.3636C276.565 52.3636 276.072 52.5189 275.686 52.8295C275.3 53.1402 275.014 53.5473 274.828 54.0511C274.643 54.5549 274.55 55.0985 274.55 55.6818C274.55 56.2652 274.643 56.8068 274.828 57.3068C275.014 57.8068 275.3 58.2102 275.686 58.517C276.072 58.8239 276.565 58.9773 277.163 58.9773ZM284.506 48.3636V60H283.165V48.3636H284.506ZM294.098 51.2727L290.871 60H289.507L286.28 51.2727H287.734L290.143 58.2273H290.234L292.643 51.2727H294.098ZM299.214 60.1818C298.374 60.1818 297.648 59.9962 297.038 59.625C296.432 59.25 295.964 58.7273 295.635 58.0568C295.309 57.3826 295.146 56.5985 295.146 55.7045C295.146 54.8106 295.309 54.0227 295.635 53.3409C295.964 52.6553 296.423 52.1212 297.01 51.7386C297.601 51.3523 298.29 51.1591 299.078 51.1591C299.533 51.1591 299.982 51.2348 300.425 51.3864C300.868 51.5379 301.271 51.7841 301.635 52.125C301.999 52.4621 302.288 52.9091 302.504 53.4659C302.72 54.0227 302.828 54.7083 302.828 55.5227V56.0909H296.101V54.9318H301.464C301.464 54.4394 301.366 54 301.169 53.6136C300.976 53.2273 300.699 52.9223 300.339 52.6989C299.983 52.4754 299.563 52.3636 299.078 52.3636C298.544 52.3636 298.082 52.4962 297.692 52.7614C297.305 53.0227 297.008 53.3636 296.8 53.7841C296.591 54.2045 296.487 54.6553 296.487 55.1364V55.9091C296.487 56.5682 296.601 57.1269 296.828 57.5852C297.059 58.0398 297.379 58.3864 297.788 58.625C298.197 58.8598 298.673 58.9773 299.214 58.9773C299.567 58.9773 299.885 58.928 300.169 58.8295C300.457 58.7273 300.705 58.5758 300.913 58.375C301.122 58.1705 301.283 57.9167 301.396 57.6136L302.692 57.9773C302.555 58.4167 302.326 58.803 302.004 59.1364C301.682 59.4659 301.285 59.7235 300.811 59.9091C300.338 60.0909 299.805 60.1818 299.214 60.1818ZM308.163 60.1818C307.436 60.1818 306.794 59.9981 306.237 59.6307C305.68 59.2595 305.245 58.7367 304.93 58.0625C304.616 57.3845 304.459 56.5833 304.459 55.6591C304.459 54.7424 304.616 53.947 304.93 53.2727C305.245 52.5985 305.682 52.0777 306.243 51.7102C306.804 51.3428 307.451 51.1591 308.186 51.1591C308.754 51.1591 309.203 51.2538 309.533 51.4432C309.866 51.6288 310.12 51.8409 310.294 52.0795C310.472 52.3144 310.61 52.5076 310.709 52.6591H310.822V48.3636H312.163V60H310.868V58.6591H310.709C310.61 58.8182 310.47 59.0189 310.288 59.2614C310.107 59.5 309.847 59.714 309.51 59.9034C309.173 60.089 308.724 60.1818 308.163 60.1818ZM308.345 58.9773C308.883 58.9773 309.338 58.8371 309.709 58.5568C310.08 58.2727 310.362 57.8807 310.555 57.3807C310.749 56.8769 310.845 56.2955 310.845 55.6364C310.845 54.9848 310.75 54.4148 310.561 53.9261C310.372 53.4337 310.091 53.0511 309.72 52.7784C309.349 52.5019 308.891 52.3636 308.345 52.3636C307.777 52.3636 307.304 52.5095 306.925 52.8011C306.55 53.089 306.268 53.4811 306.078 53.9773C305.893 54.4697 305.8 55.0227 305.8 55.6364C305.8 56.2576 305.894 56.822 306.084 57.3295C306.277 57.8333 306.561 58.2348 306.936 58.5341C307.315 58.8295 307.785 58.9773 308.345 58.9773ZM317.669 55.0909C317.669 56.5227 317.482 57.8409 317.107 59.0455C316.735 60.2462 316.203 61.3523 315.51 62.3636H314.328C314.601 61.9886 314.855 61.5265 315.089 60.9773C315.328 60.4318 315.536 59.8333 315.714 59.1818C315.893 58.5265 316.031 57.8504 316.129 57.1534C316.232 56.4527 316.283 55.7652 316.283 55.0909C316.283 54.1894 316.196 53.2746 316.021 52.3466C315.847 51.4186 315.612 50.5568 315.317 49.7614C315.021 48.9659 314.692 48.3182 314.328 47.8182H315.51C316.203 48.8295 316.735 49.9375 317.107 51.142C317.482 52.3428 317.669 53.6591 317.669 55.0909Z" fill="white"/>
</g>
<path d="M58.8011 103.364C58.7415 102.86 58.4995 102.469 58.0753 102.19C57.651 101.912 57.1307 101.773 56.5142 101.773C56.0634 101.773 55.669 101.846 55.331 101.991C54.9962 102.137 54.7344 102.338 54.5455 102.593C54.3598 102.848 54.267 103.138 54.267 103.463C54.267 103.735 54.3317 103.969 54.4609 104.164C54.5935 104.356 54.7625 104.517 54.968 104.646C55.1735 104.772 55.389 104.877 55.6143 104.96C55.8397 105.039 56.0469 105.104 56.2358 105.153L57.2699 105.432C57.535 105.501 57.83 105.598 58.1548 105.72C58.483 105.843 58.7962 106.01 59.0945 106.222C59.3961 106.431 59.6446 106.7 59.8402 107.028C60.0357 107.356 60.1335 107.759 60.1335 108.236C60.1335 108.786 59.9893 109.283 59.701 109.727C59.416 110.171 58.9983 110.524 58.4482 110.786C57.9013 111.048 57.2367 111.179 56.4545 111.179C55.7254 111.179 55.094 111.061 54.5604 110.826C54.0301 110.591 53.6125 110.263 53.3075 109.842C53.0059 109.421 52.8352 108.932 52.7955 108.375H54.0682C54.1013 108.759 54.2306 109.078 54.456 109.33C54.6847 109.578 54.973 109.764 55.321 109.886C55.6723 110.006 56.0502 110.065 56.4545 110.065C56.9252 110.065 57.3478 109.989 57.7223 109.837C58.0968 109.681 58.3935 109.465 58.6122 109.19C58.831 108.912 58.9403 108.587 58.9403 108.216C58.9403 107.878 58.8459 107.603 58.657 107.391C58.468 107.179 58.2195 107.006 57.9112 106.874C57.603 106.741 57.2699 106.625 56.9119 106.526L55.6591 106.168C54.8636 105.939 54.2339 105.612 53.7699 105.188C53.3059 104.764 53.0739 104.209 53.0739 103.523C53.0739 102.953 53.228 102.455 53.5362 102.031C53.8478 101.604 54.2654 101.272 54.7891 101.037C55.3161 100.798 55.9044 100.679 56.554 100.679C57.2102 100.679 57.7936 100.797 58.304 101.032C58.8144 101.264 59.2188 101.582 59.517 101.987C59.8187 102.391 59.9777 102.85 59.9943 103.364H58.8011ZM63.1749 100.818V111H62.0016V100.818H63.1749ZM68.5256 111.159C67.7898 111.159 67.1551 110.997 66.6214 110.672C66.0911 110.344 65.6818 109.886 65.3935 109.3C65.1084 108.71 64.9659 108.024 64.9659 107.241C64.9659 106.459 65.1084 105.77 65.3935 105.173C65.6818 104.573 66.0829 104.106 66.5966 103.771C67.1136 103.433 67.7169 103.264 68.4062 103.264C68.804 103.264 69.1967 103.33 69.5845 103.463C69.9723 103.596 70.3253 103.811 70.6435 104.109C70.9616 104.404 71.2152 104.795 71.4041 105.283C71.593 105.77 71.6875 106.37 71.6875 107.082V107.58H65.8011V106.565H70.4943C70.4943 106.134 70.4081 105.75 70.2358 105.412C70.0668 105.074 69.8248 104.807 69.5099 104.612C69.1984 104.416 68.8305 104.318 68.4062 104.318C67.9389 104.318 67.5346 104.434 67.1932 104.666C66.8551 104.895 66.5949 105.193 66.4126 105.561C66.2304 105.929 66.1392 106.323 66.1392 106.744V107.42C66.1392 107.997 66.2386 108.486 66.4375 108.887C66.6397 109.285 66.9197 109.588 67.2777 109.797C67.6357 110.002 68.0516 110.105 68.5256 110.105C68.8338 110.105 69.1122 110.062 69.3608 109.976C69.6127 109.886 69.8298 109.754 70.0121 109.578C70.1944 109.399 70.3352 109.177 70.4347 108.912L71.5682 109.23C71.4489 109.615 71.2483 109.953 70.9666 110.244C70.6849 110.533 70.3369 110.758 69.9226 110.92C69.5083 111.08 69.0426 111.159 68.5256 111.159ZM76.674 111.159C75.9382 111.159 75.3035 110.997 74.7699 110.672C74.2396 110.344 73.8303 109.886 73.5419 109.3C73.2569 108.71 73.1143 108.024 73.1143 107.241C73.1143 106.459 73.2569 105.77 73.5419 105.173C73.8303 104.573 74.2313 104.106 74.745 103.771C75.2621 103.433 75.8653 103.264 76.5547 103.264C76.9524 103.264 77.3452 103.33 77.733 103.463C78.1207 103.596 78.4737 103.811 78.7919 104.109C79.1101 104.404 79.3636 104.795 79.5526 105.283C79.7415 105.77 79.8359 106.37 79.8359 107.082V107.58H73.9496V106.565H78.6428C78.6428 106.134 78.5566 105.75 78.3842 105.412C78.2152 105.074 77.9732 104.807 77.6584 104.612C77.3468 104.416 76.9789 104.318 76.5547 104.318C76.0874 104.318 75.683 104.434 75.3416 104.666C75.0036 104.895 74.7434 105.193 74.5611 105.561C74.3788 105.929 74.2876 106.323 74.2876 106.744V107.42C74.2876 107.997 74.3871 108.486 74.5859 108.887C74.7881 109.285 75.0682 109.588 75.4261 109.797C75.7841 110.002 76.2 110.105 76.674 110.105C76.9822 110.105 77.2607 110.062 77.5092 109.976C77.7611 109.886 77.9782 109.754 78.1605 109.578C78.3428 109.399 78.4837 109.177 78.5831 108.912L79.7166 109.23C79.5973 109.615 79.3968 109.953 79.1151 110.244C78.8333 110.533 78.4853 110.758 78.071 110.92C77.6567 111.08 77.1911 111.159 76.674 111.159ZM81.6207 113.864V103.364H82.7543V104.577H82.8935C82.9796 104.444 83.099 104.275 83.2514 104.07C83.4072 103.861 83.6293 103.675 83.9176 103.513C84.2093 103.347 84.6037 103.264 85.1009 103.264C85.7438 103.264 86.3106 103.425 86.8011 103.746C87.2917 104.068 87.6745 104.524 87.9496 105.114C88.2247 105.704 88.3622 106.4 88.3622 107.202C88.3622 108.01 88.2247 108.711 87.9496 109.305C87.6745 109.895 87.2933 110.352 86.8061 110.677C86.3189 110.998 85.7571 111.159 85.1207 111.159C84.6302 111.159 84.2375 111.078 83.9425 110.915C83.6475 110.75 83.4205 110.562 83.2614 110.354C83.1023 110.142 82.9796 109.966 82.8935 109.827H82.794V113.864H81.6207ZM82.7741 107.182C82.7741 107.759 82.8587 108.267 83.0277 108.708C83.1967 109.146 83.4437 109.489 83.7685 109.737C84.0933 109.982 84.491 110.105 84.9616 110.105C85.4522 110.105 85.8615 109.976 86.1896 109.717C86.5211 109.455 86.7696 109.104 86.9354 108.663C87.1044 108.219 87.1889 107.725 87.1889 107.182C87.1889 106.645 87.1061 106.161 86.9403 105.73C86.7779 105.296 86.531 104.953 86.1996 104.701C85.8714 104.446 85.4588 104.318 84.9616 104.318C84.4844 104.318 84.0833 104.439 83.7585 104.681C83.4337 104.92 83.1884 105.254 83.0227 105.685C82.857 106.113 82.7741 106.612 82.7741 107.182Z" fill="white" fill-opacity="0.95"/>
<path d="M53.233 167V156.818H56.6733C57.4688 156.818 58.1217 156.954 58.6321 157.226C59.1425 157.494 59.5204 157.864 59.7656 158.335C60.0109 158.805 60.1335 159.34 60.1335 159.94C60.1335 160.54 60.0109 161.072 59.7656 161.536C59.5204 162 59.1442 162.365 58.6371 162.63C58.13 162.892 57.482 163.023 56.6932 163.023H53.9091V161.909H56.6534C57.197 161.909 57.6345 161.83 57.9659 161.67C58.3007 161.511 58.5426 161.286 58.6918 160.994C58.8442 160.699 58.9205 160.348 58.9205 159.94C58.9205 159.533 58.8442 159.176 58.6918 158.871C58.5393 158.567 58.2957 158.331 57.9609 158.165C57.6262 157.996 57.1837 157.912 56.6335 157.912H54.4659V167H53.233ZM58.0256 162.426L60.5312 167H59.0994L56.6335 162.426H58.0256ZM65.1486 167.159C64.4128 167.159 63.7781 166.997 63.2445 166.672C62.7142 166.344 62.3049 165.886 62.0165 165.3C61.7315 164.71 61.589 164.024 61.589 163.241C61.589 162.459 61.7315 161.77 62.0165 161.173C62.3049 160.573 62.7059 160.106 63.2196 159.771C63.7367 159.433 64.3399 159.264 65.0293 159.264C65.427 159.264 65.8198 159.33 66.2076 159.463C66.5953 159.596 66.9483 159.811 67.2665 160.109C67.5847 160.404 67.8382 160.795 68.0272 161.283C68.2161 161.77 68.3105 162.37 68.3105 163.082V163.58H62.4242V162.565H67.1174C67.1174 162.134 67.0312 161.75 66.8588 161.412C66.6898 161.074 66.4479 160.807 66.133 160.612C65.8214 160.416 65.4535 160.318 65.0293 160.318C64.562 160.318 64.1576 160.434 63.8162 160.666C63.4782 160.895 63.218 161.193 63.0357 161.561C62.8534 161.929 62.7623 162.323 62.7623 162.744V163.42C62.7623 163.997 62.8617 164.486 63.0605 164.887C63.2627 165.285 63.5428 165.588 63.9007 165.797C64.2587 166.002 64.6747 166.105 65.1486 166.105C65.4569 166.105 65.7353 166.062 65.9838 165.976C66.2357 165.886 66.4528 165.754 66.6351 165.578C66.8174 165.399 66.9583 165.177 67.0577 164.912L68.1912 165.23C68.0719 165.615 67.8714 165.953 67.5897 166.244C67.3079 166.533 66.9599 166.758 66.5456 166.92C66.1313 167.08 65.6657 167.159 65.1486 167.159ZM75.5044 161.074L74.4505 161.372C74.3842 161.196 74.2864 161.026 74.1571 160.86C74.0312 160.691 73.8588 160.552 73.6401 160.442C73.4213 160.333 73.1413 160.278 72.7999 160.278C72.3326 160.278 71.9431 160.386 71.6316 160.602C71.3233 160.814 71.1692 161.084 71.1692 161.412C71.1692 161.704 71.2753 161.934 71.4874 162.103C71.6995 162.272 72.031 162.413 72.4817 162.526L73.6152 162.804C74.298 162.97 74.8068 163.223 75.1415 163.565C75.4763 163.903 75.6436 164.339 75.6436 164.872C75.6436 165.31 75.5177 165.701 75.2658 166.045C75.0172 166.39 74.6692 166.662 74.2218 166.861C73.7743 167.06 73.254 167.159 72.6607 167.159C71.8818 167.159 71.2372 166.99 70.7267 166.652C70.2163 166.314 69.8932 165.82 69.7573 165.17L70.8709 164.892C70.977 165.303 71.1775 165.611 71.4725 165.817C71.7708 166.022 72.1602 166.125 72.6408 166.125C73.1877 166.125 73.6219 166.009 73.9434 165.777C74.2682 165.542 74.4306 165.26 74.4306 164.932C74.4306 164.667 74.3378 164.445 74.1522 164.266C73.9666 164.083 73.6815 163.947 73.2971 163.858L72.0243 163.56C71.325 163.394 70.8113 163.137 70.4831 162.789C70.1583 162.438 69.9959 161.999 69.9959 161.472C69.9959 161.041 70.1169 160.66 70.3588 160.328C70.6041 159.997 70.9372 159.737 71.3581 159.548C71.7824 159.359 72.263 159.264 72.7999 159.264C73.5556 159.264 74.1489 159.43 74.5797 159.761C75.0139 160.093 75.3221 160.53 75.5044 161.074ZM80.7308 159.364V160.358H76.7734V159.364H80.7308ZM77.9268 157.534H79.1001V164.812C79.1001 165.144 79.1482 165.393 79.2443 165.558C79.3438 165.721 79.4697 165.83 79.6222 165.886C79.7779 165.939 79.942 165.966 80.1143 165.966C80.2436 165.966 80.3497 165.959 80.4325 165.946C80.5154 165.929 80.5817 165.916 80.6314 165.906L80.87 166.96C80.7905 166.99 80.6795 167.02 80.5369 167.05C80.3944 167.083 80.2138 167.099 79.995 167.099C79.6636 167.099 79.3388 167.028 79.0206 166.886C78.7057 166.743 78.4439 166.526 78.2351 166.234C78.0296 165.943 77.9268 165.575 77.9268 165.131V157.534ZM84.7429 167.179C84.259 167.179 83.8198 167.088 83.4254 166.906C83.031 166.72 82.7178 166.453 82.4858 166.105C82.2538 165.754 82.1378 165.33 82.1378 164.832C82.1378 164.395 82.224 164.04 82.3963 163.768C82.5687 163.493 82.799 163.278 83.0874 163.122C83.3757 162.966 83.6939 162.85 84.0419 162.774C84.3932 162.695 84.7462 162.632 85.1009 162.585C85.5649 162.526 85.9411 162.481 86.2294 162.451C86.5211 162.418 86.7332 162.363 86.8658 162.287C87.0017 162.211 87.0696 162.078 87.0696 161.889V161.849C87.0696 161.359 86.9354 160.978 86.6669 160.706C86.4018 160.434 85.9991 160.298 85.4588 160.298C84.8987 160.298 84.4595 160.421 84.1413 160.666C83.8232 160.911 83.5994 161.173 83.4702 161.452L82.3565 161.054C82.5554 160.59 82.8205 160.229 83.152 159.97C83.4867 159.708 83.8513 159.526 84.2457 159.423C84.6435 159.317 85.0346 159.264 85.419 159.264C85.6643 159.264 85.946 159.294 86.2642 159.354C86.5857 159.41 86.8956 159.528 87.1939 159.707C87.4955 159.886 87.7457 160.156 87.9446 160.517C88.1435 160.878 88.2429 161.362 88.2429 161.969V167H87.0696V165.966H87.0099C86.9304 166.132 86.7978 166.309 86.6122 166.498C86.4266 166.687 86.1797 166.848 85.8714 166.98C85.5632 167.113 85.187 167.179 84.7429 167.179ZM84.9219 166.125C85.3859 166.125 85.777 166.034 86.0952 165.852C86.4167 165.669 86.6586 165.434 86.821 165.146C86.9867 164.857 87.0696 164.554 87.0696 164.236V163.162C87.0199 163.222 86.9105 163.276 86.7415 163.326C86.5758 163.372 86.3835 163.414 86.1648 163.45C85.9493 163.483 85.7389 163.513 85.5334 163.54C85.3312 163.563 85.1671 163.583 85.0412 163.599C84.7363 163.639 84.4512 163.704 84.1861 163.793C83.9242 163.879 83.7121 164.01 83.5497 164.186C83.3906 164.358 83.3111 164.594 83.3111 164.892C83.3111 165.3 83.4619 165.608 83.7635 165.817C84.0684 166.022 84.4545 166.125 84.9219 166.125ZM90.3844 167V159.364H91.5179V160.517H91.5975C91.7367 160.139 91.9886 159.833 92.3532 159.597C92.7177 159.362 93.1287 159.244 93.5861 159.244C93.6723 159.244 93.78 159.246 93.9093 159.249C94.0385 159.253 94.1363 159.258 94.2026 159.264V160.457C94.1628 160.447 94.0717 160.433 93.9292 160.413C93.79 160.389 93.6425 160.378 93.4867 160.378C93.1155 160.378 92.784 160.456 92.4924 160.612C92.204 160.764 91.9753 160.976 91.8063 161.248C91.6406 161.516 91.5577 161.823 91.5577 162.168V167H90.3844ZM99.3929 159.364V160.358H95.4355V159.364H99.3929ZM96.589 157.534H97.7623V164.812C97.7623 165.144 97.8103 165.393 97.9064 165.558C98.0059 165.721 98.1318 165.83 98.2843 165.886C98.44 165.939 98.6041 165.966 98.7765 165.966C98.9057 165.966 99.0118 165.959 99.0946 165.946C99.1775 165.929 99.2438 165.916 99.2935 165.906L99.5321 166.96C99.4526 166.99 99.3416 167.02 99.199 167.05C99.0565 167.083 98.8759 167.099 98.6571 167.099C98.3257 167.099 98.0009 167.028 97.6827 166.886C97.3678 166.743 97.106 166.526 96.8972 166.234C96.6917 165.943 96.589 165.575 96.589 165.131V157.534Z" fill="white" fill-opacity="0.95"/>
<path d="M58.8011 215.364C58.7415 214.86 58.4995 214.469 58.0753 214.19C57.651 213.912 57.1307 213.773 56.5142 213.773C56.0634 213.773 55.669 213.846 55.331 213.991C54.9962 214.137 54.7344 214.338 54.5455 214.593C54.3598 214.848 54.267 215.138 54.267 215.463C54.267 215.735 54.3317 215.969 54.4609 216.164C54.5935 216.356 54.7625 216.517 54.968 216.646C55.1735 216.772 55.389 216.877 55.6143 216.96C55.8397 217.039 56.0469 217.104 56.2358 217.153L57.2699 217.432C57.535 217.501 57.83 217.598 58.1548 217.72C58.483 217.843 58.7962 218.01 59.0945 218.222C59.3961 218.431 59.6446 218.7 59.8402 219.028C60.0357 219.356 60.1335 219.759 60.1335 220.236C60.1335 220.786 59.9893 221.283 59.701 221.727C59.416 222.171 58.9983 222.524 58.4482 222.786C57.9013 223.048 57.2367 223.179 56.4545 223.179C55.7254 223.179 55.094 223.061 54.5604 222.826C54.0301 222.591 53.6125 222.263 53.3075 221.842C53.0059 221.421 52.8352 220.932 52.7955 220.375H54.0682C54.1013 220.759 54.2306 221.078 54.456 221.33C54.6847 221.578 54.973 221.764 55.321 221.886C55.6723 222.006 56.0502 222.065 56.4545 222.065C56.9252 222.065 57.3478 221.989 57.7223 221.837C58.0968 221.681 58.3935 221.465 58.6122 221.19C58.831 220.912 58.9403 220.587 58.9403 220.216C58.9403 219.878 58.8459 219.603 58.657 219.391C58.468 219.179 58.2195 219.006 57.9112 218.874C57.603 218.741 57.2699 218.625 56.9119 218.526L55.6591 218.168C54.8636 217.939 54.2339 217.612 53.7699 217.188C53.3059 216.764 53.0739 216.209 53.0739 215.523C53.0739 214.953 53.228 214.455 53.5362 214.031C53.8478 213.604 54.2654 213.272 54.7891 213.037C55.3161 212.798 55.9044 212.679 56.554 212.679C57.2102 212.679 57.7936 212.797 58.304 213.032C58.8144 213.264 59.2188 213.582 59.517 213.987C59.8187 214.391 59.9777 214.85 59.9943 215.364H58.8011ZM63.1749 218.406V223H62.0016V212.818H63.1749V216.557H63.2743C63.4533 216.162 63.7218 215.849 64.0797 215.617C64.441 215.382 64.9216 215.264 65.5215 215.264C66.0418 215.264 66.4976 215.369 66.8887 215.577C67.2798 215.783 67.583 216.099 67.7985 216.527C68.0172 216.951 68.1266 217.491 68.1266 218.148V223H66.9533V218.227C66.9533 217.621 66.7959 217.152 66.481 216.82C66.1694 216.486 65.7369 216.318 65.1834 216.318C64.7989 216.318 64.4542 216.399 64.1493 216.562C63.8477 216.724 63.6091 216.961 63.4334 217.273C63.2611 217.584 63.1749 217.962 63.1749 218.406ZM75.0856 219.878V215.364H76.2589V223H75.0856V221.707H75.006C74.8271 222.095 74.5487 222.425 74.1708 222.697C73.793 222.965 73.3157 223.099 72.739 223.099C72.2617 223.099 71.8375 222.995 71.4663 222.786C71.0951 222.574 70.8034 222.256 70.5913 221.832C70.3791 221.404 70.2731 220.866 70.2731 220.216V215.364H71.4464V220.136C71.4464 220.693 71.6022 221.137 71.9137 221.469C72.2286 221.8 72.6296 221.966 73.1168 221.966C73.4085 221.966 73.7051 221.891 74.0067 221.742C74.3117 221.593 74.5669 221.364 74.7724 221.056C74.9812 220.748 75.0856 220.355 75.0856 219.878ZM81.7289 215.364V216.358H77.7715V215.364H81.7289ZM78.9249 213.534H80.0982V220.812C80.0982 221.144 80.1462 221.393 80.2424 221.558C80.3418 221.721 80.4677 221.83 80.6202 221.886C80.776 221.939 80.94 221.966 81.1124 221.966C81.2417 221.966 81.3477 221.959 81.4306 221.946C81.5134 221.929 81.5797 221.916 81.6294 221.906L81.8681 222.96C81.7885 222.99 81.6775 223.02 81.535 223.05C81.3925 223.083 81.2118 223.099 80.9931 223.099C80.6616 223.099 80.3368 223.028 80.0186 222.886C79.7038 222.743 79.4419 222.526 79.2331 222.234C79.0276 221.943 78.9249 221.575 78.9249 221.131V213.534ZM90.3148 223.159C89.6784 223.159 89.1167 222.998 88.6294 222.677C88.1422 222.352 87.7611 221.895 87.486 221.305C87.2109 220.711 87.0733 220.01 87.0733 219.202C87.0733 218.4 87.2109 217.704 87.486 217.114C87.7611 216.524 88.1439 216.068 88.6344 215.746C89.1249 215.425 89.6917 215.264 90.3347 215.264C90.8319 215.264 91.2246 215.347 91.513 215.513C91.8046 215.675 92.0267 215.861 92.1792 216.07C92.3349 216.275 92.4559 216.444 92.5421 216.577H92.6415V212.818H93.8148V223H92.6813V221.827H92.5421C92.4559 221.966 92.3333 222.142 92.1742 222.354C92.0151 222.562 91.7881 222.75 91.4931 222.915C91.1981 223.078 90.8053 223.159 90.3148 223.159ZM90.4739 222.105C90.9445 222.105 91.3423 221.982 91.6671 221.737C91.9919 221.489 92.2388 221.146 92.4078 220.708C92.5769 220.267 92.6614 219.759 92.6614 219.182C92.6614 218.612 92.5785 218.113 92.4128 217.685C92.2471 217.254 92.0018 216.92 91.677 216.681C91.3522 216.439 90.9512 216.318 90.4739 216.318C89.9767 216.318 89.5624 216.446 89.231 216.701C88.9029 216.953 88.656 217.296 88.4902 217.73C88.3278 218.161 88.2466 218.645 88.2466 219.182C88.2466 219.725 88.3295 220.219 88.4952 220.663C88.6642 221.104 88.9128 221.455 89.2409 221.717C89.5724 221.976 89.9834 222.105 90.4739 222.105ZM99.2289 223.159C98.5395 223.159 97.9346 222.995 97.4142 222.667C96.8972 222.339 96.4928 221.88 96.2012 221.29C95.9128 220.7 95.7686 220.01 95.7686 219.222C95.7686 218.426 95.9128 217.732 96.2012 217.138C96.4928 216.545 96.8972 216.085 97.4142 215.756C97.9346 215.428 98.5395 215.264 99.2289 215.264C99.9183 215.264 100.521 215.428 101.039 215.756C101.559 216.085 101.963 216.545 102.252 217.138C102.543 217.732 102.689 218.426 102.689 219.222C102.689 220.01 102.543 220.7 102.252 221.29C101.963 221.88 101.559 222.339 101.039 222.667C100.521 222.995 99.9183 223.159 99.2289 223.159ZM99.2289 222.105C99.7525 222.105 100.183 221.971 100.521 221.702C100.86 221.434 101.11 221.081 101.272 220.643C101.435 220.206 101.516 219.732 101.516 219.222C101.516 218.711 101.435 218.236 101.272 217.795C101.11 217.354 100.86 216.998 100.521 216.726C100.183 216.454 99.7525 216.318 99.2289 216.318C98.7052 216.318 98.2743 216.454 97.9363 216.726C97.5982 216.998 97.348 217.354 97.1855 217.795C97.0231 218.236 96.9419 218.711 96.9419 219.222C96.9419 219.732 97.0231 220.206 97.1855 220.643C97.348 221.081 97.5982 221.434 97.9363 221.702C98.2743 221.971 98.7052 222.105 99.2289 222.105ZM105.95 223L103.624 215.364H104.857L106.507 221.21H106.587L108.218 215.364H109.47L111.081 221.19H111.161L112.811 215.364H114.044L111.718 223H110.564L108.894 217.134H108.774L107.104 223H105.95ZM116.769 218.406V223H115.595V215.364H116.729V216.557H116.828C117.007 216.169 117.279 215.857 117.644 215.622C118.008 215.384 118.479 215.264 119.056 215.264C119.573 215.264 120.025 215.37 120.413 215.582C120.801 215.791 121.102 216.109 121.318 216.537C121.533 216.961 121.641 217.498 121.641 218.148V223H120.468V218.227C120.468 217.627 120.312 217.16 120 216.825C119.689 216.487 119.261 216.318 118.718 216.318C118.343 216.318 118.008 216.399 117.713 216.562C117.422 216.724 117.191 216.961 117.022 217.273C116.853 217.584 116.769 217.962 116.769 218.406Z" fill="white" fill-opacity="0.95"/>
<defs>
<clipPath id="clip0_1706_72045">
<rect width="292" height="28" fill="white" transform="translate(40 40)"/>
</clipPath>
</defs>
</svg>
