<svg width="559" height="336" viewBox="0 0 559 336" fill="none" xmlns="http://www.w3.org/2000/svg">
<rect width="559" height="324" rx="24" fill="#262626"/>
<g filter="url(#filter0_d_1706_70158)">
<mask id="path-2-inside-1_1706_70158" fill="white">
<path d="M141.5 68C141.5 63.5817 145.082 60 149.5 60H409.5C413.918 60 417.5 63.5817 417.5 68V256C417.5 260.418 413.918 264 409.5 264H149.5C145.082 264 141.5 260.418 141.5 256V68Z"/>
</mask>
<path d="M141.5 68C141.5 63.5817 145.082 60 149.5 60H409.5C413.918 60 417.5 63.5817 417.5 68V256C417.5 260.418 413.918 264 409.5 264H149.5C145.082 264 141.5 260.418 141.5 256V68Z" fill="black"/>
<path d="M149.5 61H409.5V59H149.5V61ZM416.5 68V256H418.5V68H416.5ZM409.5 263H149.5V265H409.5V263ZM142.5 256V68H140.5V256H142.5ZM149.5 263C145.634 263 142.5 259.866 142.5 256H140.5C140.5 260.971 144.529 265 149.5 265V263ZM416.5 256C416.5 259.866 413.366 263 409.5 263V265C414.471 265 418.5 260.971 418.5 256H416.5ZM409.5 61C413.366 61 416.5 64.134 416.5 68H418.5C418.5 63.0294 414.471 59 409.5 59V61ZM149.5 59C144.529 59 140.5 63.0294 140.5 68H142.5C142.5 64.134 145.634 61 149.5 61V59Z" fill="white" fill-opacity="0.4" mask="url(#path-2-inside-1_1706_70158)"/>
</g>
<path d="M174.375 94.3749H173.684L173.044 88.6492C172.939 87.7325 172.605 86.8568 172.073 86.1027C171.541 85.3486 170.829 84.7402 170 84.3334V83.7269C170.001 83.3985 169.937 83.0732 169.811 82.7698C169.685 82.4663 169.501 82.1909 169.268 81.9594C168.792 81.5045 168.159 81.2507 167.5 81.2507C166.842 81.2507 166.209 81.5045 165.732 81.9594C165.5 82.1909 165.315 82.4663 165.189 82.7698C165.063 83.0732 164.999 83.3985 165 83.7269V84.3334C164.172 84.7403 163.459 85.3488 162.927 86.103C162.396 86.8573 162.062 87.733 161.957 88.6498L161.316 94.3749H160.625C160.459 94.3749 160.3 94.4408 160.183 94.558C160.066 94.6752 160 94.8342 160 94.9999C160 95.1657 160.066 95.3247 160.183 95.4419C160.3 95.5591 160.459 95.6249 160.625 95.6249H164.375C164.376 96.453 164.706 97.2468 165.292 97.8319C165.878 98.417 166.672 98.7457 167.5 98.7457C168.328 98.7457 169.122 98.417 169.708 97.8319C170.294 97.2468 170.624 96.453 170.625 95.6249H174.375C174.541 95.6249 174.7 95.5591 174.817 95.4419C174.934 95.3247 175 95.1657 175 94.9999C175 94.8342 174.934 94.6752 174.817 94.558C174.7 94.4408 174.541 94.3749 174.375 94.3749ZM166.25 83.7387C166.25 83.5745 166.282 83.4118 166.345 83.2601C166.407 83.1084 166.5 82.9707 166.616 82.8549C166.854 82.6273 167.171 82.5004 167.5 82.5004C167.829 82.5004 168.146 82.6273 168.384 82.8549C168.501 82.9707 168.593 83.1084 168.656 83.2601C168.719 83.4118 168.751 83.5745 168.75 83.7387V83.8947C167.928 83.7017 167.072 83.7017 166.25 83.8947V83.7387ZM163.199 88.7896C163.332 87.7427 163.842 86.7803 164.634 86.0826C165.425 85.3849 166.444 85 167.5 84.9999C168.555 84.9998 169.574 85.3846 170.366 86.0822C171.158 86.7797 171.668 87.7421 171.801 88.789L172.426 94.3749H162.574L163.199 88.7896ZM167.5 97.4999C167.003 97.4994 166.526 97.3017 166.175 96.9502C165.823 96.5986 165.626 96.122 165.625 95.6249H169.375C169.375 96.1221 169.177 96.5987 168.825 96.9502C168.474 97.3017 167.997 97.4994 167.5 97.4999Z" fill="white" fill-opacity="0.95"/>
<path d="M190.733 84.8182H192.205L195.665 93.2699H195.784L199.244 84.8182H200.716V95H199.562V87.2642H199.463L196.281 95H195.168L191.986 87.2642H191.886V95H190.733V84.8182ZM207.841 91.8778V87.3636H209.015V95H207.841V93.7074H207.762C207.583 94.0952 207.305 94.425 206.927 94.6967C206.549 94.9652 206.072 95.0994 205.495 95.0994C205.018 95.0994 204.593 94.995 204.222 94.7862C203.851 94.5741 203.559 94.2559 203.347 93.8317C203.135 93.4041 203.029 92.8655 203.029 92.2159V87.3636H204.202V92.1364C204.202 92.6932 204.358 93.1373 204.67 93.4688C204.984 93.8002 205.385 93.9659 205.873 93.9659C206.164 93.9659 206.461 93.8913 206.763 93.7422C207.068 93.593 207.323 93.3643 207.528 93.0561C207.737 92.7479 207.841 92.3551 207.841 91.8778ZM214.485 87.3636V88.358H210.527V87.3636H214.485ZM211.681 85.5341H212.854V92.8125C212.854 93.1439 212.902 93.3925 212.998 93.5582C213.098 93.7206 213.224 93.83 213.376 93.8864C213.532 93.9394 213.696 93.9659 213.868 93.9659C213.998 93.9659 214.104 93.9593 214.186 93.946C214.269 93.9295 214.336 93.9162 214.385 93.9062L214.624 94.9602C214.544 94.9901 214.433 95.0199 214.291 95.0497C214.148 95.0829 213.968 95.0994 213.749 95.0994C213.417 95.0994 213.093 95.0282 212.775 94.8857C212.46 94.7431 212.198 94.526 211.989 94.2344C211.783 93.9427 211.681 93.5748 211.681 93.1307V85.5341ZM219.369 95.1591C218.634 95.1591 217.999 94.9967 217.465 94.6719C216.935 94.3438 216.526 93.8864 216.237 93.2997C215.952 92.7098 215.81 92.0237 215.81 91.2415C215.81 90.4593 215.952 89.7699 216.237 89.1733C216.526 88.5734 216.927 88.1061 217.44 87.7713C217.957 87.4332 218.561 87.2642 219.25 87.2642C219.648 87.2642 220.04 87.3305 220.428 87.4631C220.816 87.5956 221.169 87.8111 221.487 88.1094C221.805 88.4044 222.059 88.7955 222.248 89.2827C222.437 89.7699 222.531 90.3698 222.531 91.0824V91.5795H216.645V90.5653H221.338C221.338 90.1345 221.252 89.75 221.08 89.4119C220.911 89.0739 220.669 88.8071 220.354 88.6115C220.042 88.416 219.674 88.3182 219.25 88.3182C218.783 88.3182 218.378 88.4342 218.037 88.6662C217.699 88.8949 217.439 89.1932 217.256 89.5611C217.074 89.929 216.983 90.3234 216.983 90.7443V91.4205C216.983 91.9972 217.082 92.486 217.281 92.8871C217.483 93.2848 217.763 93.5881 218.121 93.7969C218.479 94.0024 218.895 94.1051 219.369 94.1051C219.678 94.1051 219.956 94.062 220.205 93.9759C220.456 93.8864 220.674 93.7538 220.856 93.5781C221.038 93.3991 221.179 93.1771 221.278 92.9119L222.412 93.2301C222.293 93.6146 222.092 93.9527 221.81 94.2443C221.529 94.5327 221.181 94.758 220.766 94.9205C220.352 95.0795 219.886 95.1591 219.369 95.1591ZM229.427 90.4062V95H228.254V87.3636H229.387V88.5568H229.487C229.665 88.169 229.937 87.8575 230.302 87.6222C230.666 87.3835 231.137 87.2642 231.714 87.2642C232.231 87.2642 232.683 87.3703 233.071 87.5824C233.459 87.7912 233.76 88.1094 233.976 88.5369C234.191 88.9612 234.299 89.4981 234.299 90.1477V95H233.126V90.2273C233.126 89.6274 232.97 89.16 232.658 88.8253C232.347 88.4872 231.919 88.3182 231.376 88.3182C231.001 88.3182 230.666 88.3994 230.371 88.5618C230.08 88.7242 229.849 88.9612 229.68 89.2727C229.511 89.5843 229.427 89.9621 229.427 90.4062ZM239.545 95.1591C238.856 95.1591 238.251 94.995 237.731 94.6669C237.214 94.3388 236.809 93.8797 236.518 93.2898C236.229 92.6998 236.085 92.0104 236.085 91.2216C236.085 90.4261 236.229 89.7318 236.518 89.1385C236.809 88.5452 237.214 88.0845 237.731 87.7564C238.251 87.4283 238.856 87.2642 239.545 87.2642C240.235 87.2642 240.838 87.4283 241.355 87.7564C241.875 88.0845 242.28 88.5452 242.568 89.1385C242.86 89.7318 243.006 90.4261 243.006 91.2216C243.006 92.0104 242.86 92.6998 242.568 93.2898C242.28 93.8797 241.875 94.3388 241.355 94.6669C240.838 94.995 240.235 95.1591 239.545 95.1591ZM239.545 94.1051C240.069 94.1051 240.5 93.9709 240.838 93.7024C241.176 93.4339 241.426 93.081 241.589 92.6435C241.751 92.206 241.832 91.732 241.832 91.2216C241.832 90.7112 241.751 90.2356 241.589 89.7947C241.426 89.3539 241.176 88.9976 240.838 88.7259C240.5 88.4541 240.069 88.3182 239.545 88.3182C239.022 88.3182 238.591 88.4541 238.253 88.7259C237.915 88.9976 237.664 89.3539 237.502 89.7947C237.34 90.2356 237.258 90.7112 237.258 91.2216C237.258 91.732 237.34 92.206 237.502 92.6435C237.664 93.081 237.915 93.4339 238.253 93.7024C238.591 93.9709 239.022 94.1051 239.545 94.1051ZM248.118 87.3636V88.358H244.16V87.3636H248.118ZM245.314 85.5341H246.487V92.8125C246.487 93.1439 246.535 93.3925 246.631 93.5582C246.73 93.7206 246.856 93.83 247.009 93.8864C247.165 93.9394 247.329 93.9659 247.501 93.9659C247.63 93.9659 247.736 93.9593 247.819 93.946C247.902 93.9295 247.968 93.9162 248.018 93.9062L248.257 94.9602C248.177 94.9901 248.066 95.0199 247.924 95.0497C247.781 95.0829 247.6 95.0994 247.382 95.0994C247.05 95.0994 246.725 95.0282 246.407 94.8857C246.092 94.7431 245.831 94.526 245.622 94.2344C245.416 93.9427 245.314 93.5748 245.314 93.1307V85.5341ZM249.882 95V87.3636H251.056V95H249.882ZM250.479 86.0909C250.25 86.0909 250.053 86.013 249.887 85.8572C249.725 85.7015 249.644 85.5142 249.644 85.2955C249.644 85.0767 249.725 84.8894 249.887 84.7337C250.053 84.5779 250.25 84.5 250.479 84.5C250.708 84.5 250.903 84.5779 251.066 84.7337C251.231 84.8894 251.314 85.0767 251.314 85.2955C251.314 85.5142 251.231 85.7015 251.066 85.8572C250.903 86.013 250.708 86.0909 250.479 86.0909ZM256.605 87.3636V88.358H252.489V87.3636H256.605ZM253.722 95V86.3097C253.722 85.8722 253.825 85.5076 254.03 85.2159C254.235 84.9242 254.502 84.7055 254.83 84.5597C255.159 84.4138 255.505 84.3409 255.869 84.3409C256.158 84.3409 256.393 84.3641 256.575 84.4105C256.758 84.4569 256.894 84.5 256.983 84.5398L256.645 85.554C256.585 85.5341 256.503 85.5092 256.396 85.4794C256.294 85.4496 256.158 85.4347 255.989 85.4347C255.601 85.4347 255.321 85.5324 255.149 85.728C254.98 85.9235 254.895 86.2102 254.895 86.5881V95H253.722ZM258.25 95V87.3636H259.423V95H258.25ZM258.846 86.0909C258.618 86.0909 258.42 86.013 258.255 85.8572C258.092 85.7015 258.011 85.5142 258.011 85.2955C258.011 85.0767 258.092 84.8894 258.255 84.7337C258.42 84.5779 258.618 84.5 258.846 84.5C259.075 84.5 259.27 84.5779 259.433 84.7337C259.599 84.8894 259.681 85.0767 259.681 85.2955C259.681 85.5142 259.599 85.7015 259.433 85.8572C259.27 86.013 259.075 86.0909 258.846 86.0909ZM264.674 95.1591C263.958 95.1591 263.342 94.9901 262.825 94.652C262.308 94.3139 261.91 93.8482 261.632 93.255C261.353 92.6617 261.214 91.9839 261.214 91.2216C261.214 90.446 261.356 89.7616 261.642 89.1683C261.93 88.5717 262.331 88.1061 262.845 87.7713C263.362 87.4332 263.965 87.2642 264.654 87.2642C265.191 87.2642 265.675 87.3636 266.106 87.5625C266.537 87.7614 266.89 88.0398 267.165 88.3977C267.44 88.7557 267.611 89.1733 267.677 89.6506H266.504C266.414 89.3026 266.215 88.9943 265.907 88.7259C265.602 88.4541 265.191 88.3182 264.674 88.3182C264.217 88.3182 263.816 88.4375 263.471 88.6761C263.13 88.9115 262.863 89.2446 262.671 89.6754C262.482 90.103 262.387 90.6051 262.387 91.1818C262.387 91.7718 262.48 92.2855 262.666 92.723C262.855 93.1605 263.12 93.5002 263.461 93.7422C263.806 93.9841 264.21 94.1051 264.674 94.1051C264.979 94.1051 265.256 94.0521 265.504 93.946C265.753 93.84 265.963 93.6875 266.136 93.4886C266.308 93.2898 266.431 93.0511 266.504 92.7727H267.677C267.611 93.2235 267.447 93.6295 267.185 93.9908C266.926 94.3487 266.583 94.6338 266.156 94.8459C265.731 95.0547 265.238 95.1591 264.674 95.1591ZM271.639 95.179C271.155 95.179 270.716 95.0878 270.322 94.9055C269.927 94.7199 269.614 94.4531 269.382 94.1051C269.15 93.7538 269.034 93.3295 269.034 92.8324C269.034 92.3949 269.12 92.0402 269.293 91.7685C269.465 91.4934 269.695 91.2779 269.984 91.1222C270.272 90.9664 270.59 90.8504 270.938 90.7741C271.29 90.6946 271.643 90.6316 271.997 90.5852C272.461 90.5256 272.838 90.4808 273.126 90.451C273.418 90.4179 273.63 90.3632 273.762 90.2869C273.898 90.2107 273.966 90.0781 273.966 89.8892V89.8494C273.966 89.3589 273.832 88.9777 273.563 88.706C273.298 88.4342 272.896 88.2983 272.355 88.2983C271.795 88.2983 271.356 88.4209 271.038 88.6662C270.72 88.9115 270.496 89.1733 270.367 89.4517L269.253 89.054C269.452 88.59 269.717 88.2287 270.048 87.9702C270.383 87.7083 270.748 87.526 271.142 87.4233C271.54 87.3172 271.931 87.2642 272.316 87.2642C272.561 87.2642 272.843 87.294 273.161 87.3537C273.482 87.41 273.792 87.5277 274.09 87.7067C274.392 87.8857 274.642 88.1558 274.841 88.517C275.04 88.8783 275.139 89.3622 275.139 89.9688V95H273.966V93.9659H273.906C273.827 94.1316 273.694 94.3089 273.509 94.4979C273.323 94.6868 273.076 94.8475 272.768 94.9801C272.46 95.1127 272.084 95.179 271.639 95.179ZM271.818 94.125C272.282 94.125 272.673 94.0339 272.992 93.8516C273.313 93.6693 273.555 93.4339 273.718 93.1456C273.883 92.8572 273.966 92.554 273.966 92.2358V91.1619C273.916 91.2216 273.807 91.2763 273.638 91.326C273.472 91.3724 273.28 91.4138 273.061 91.4503C272.846 91.4834 272.635 91.5133 272.43 91.5398C272.228 91.563 272.064 91.5829 271.938 91.5994C271.633 91.6392 271.348 91.7038 271.083 91.7933C270.821 91.8795 270.609 92.0104 270.446 92.1861C270.287 92.3584 270.208 92.5937 270.208 92.892C270.208 93.2997 270.358 93.608 270.66 93.8168C270.965 94.0223 271.351 94.125 271.818 94.125ZM280.602 87.3636V88.358H276.645V87.3636H280.602ZM277.798 85.5341H278.971V92.8125C278.971 93.1439 279.019 93.3925 279.115 93.5582C279.215 93.7206 279.341 93.83 279.493 93.8864C279.649 93.9394 279.813 93.9659 279.985 93.9659C280.115 93.9659 280.221 93.9593 280.304 93.946C280.386 93.9295 280.453 93.9162 280.502 93.9062L280.741 94.9602C280.662 94.9901 280.551 95.0199 280.408 95.0497C280.266 95.0829 280.085 95.0994 279.866 95.0994C279.535 95.0994 279.21 95.0282 278.892 94.8857C278.577 94.7431 278.315 94.526 278.106 94.2344C277.901 93.9427 277.798 93.5748 277.798 93.1307V85.5341ZM282.367 95V87.3636H283.54V95H282.367ZM282.963 86.0909C282.735 86.0909 282.538 86.013 282.372 85.8572C282.209 85.7015 282.128 85.5142 282.128 85.2955C282.128 85.0767 282.209 84.8894 282.372 84.7337C282.538 84.5779 282.735 84.5 282.963 84.5C283.192 84.5 283.388 84.5779 283.55 84.7337C283.716 84.8894 283.799 85.0767 283.799 85.2955C283.799 85.5142 283.716 85.7015 283.55 85.8572C283.388 86.013 283.192 86.0909 282.963 86.0909ZM288.791 95.1591C288.102 95.1591 287.497 94.995 286.977 94.6669C286.46 94.3388 286.055 93.8797 285.764 93.2898C285.475 92.6998 285.331 92.0104 285.331 91.2216C285.331 90.4261 285.475 89.7318 285.764 89.1385C286.055 88.5452 286.46 88.0845 286.977 87.7564C287.497 87.4283 288.102 87.2642 288.791 87.2642C289.481 87.2642 290.084 87.4283 290.601 87.7564C291.121 88.0845 291.526 88.5452 291.814 89.1385C292.106 89.7318 292.252 90.4261 292.252 91.2216C292.252 92.0104 292.106 92.6998 291.814 93.2898C291.526 93.8797 291.121 94.3388 290.601 94.6669C290.084 94.995 289.481 95.1591 288.791 95.1591ZM288.791 94.1051C289.315 94.1051 289.746 93.9709 290.084 93.7024C290.422 93.4339 290.672 93.081 290.835 92.6435C290.997 92.206 291.078 91.732 291.078 91.2216C291.078 90.7112 290.997 90.2356 290.835 89.7947C290.672 89.3539 290.422 88.9976 290.084 88.7259C289.746 88.4541 289.315 88.3182 288.791 88.3182C288.268 88.3182 287.837 88.4541 287.499 88.7259C287.161 88.9976 286.91 89.3539 286.748 89.7947C286.586 90.2356 286.504 90.7112 286.504 91.2216C286.504 91.732 286.586 92.206 286.748 92.6435C286.91 93.081 287.161 93.4339 287.499 93.7024C287.837 93.9709 288.268 94.1051 288.791 94.1051ZM295.216 90.4062V95H294.043V87.3636H295.176V88.5568H295.276C295.455 88.169 295.726 87.8575 296.091 87.6222C296.455 87.3835 296.926 87.2642 297.503 87.2642C298.02 87.2642 298.472 87.3703 298.86 87.5824C299.248 87.7912 299.549 88.1094 299.765 88.5369C299.98 88.9612 300.088 89.4981 300.088 90.1477V95H298.915V90.2273C298.915 89.6274 298.759 89.16 298.447 88.8253C298.136 88.4872 297.708 88.3182 297.165 88.3182C296.79 88.3182 296.455 88.3994 296.161 88.5618C295.869 88.7242 295.638 88.9612 295.469 89.2727C295.3 89.5843 295.216 89.9621 295.216 90.4062ZM307.641 89.0739L306.587 89.3722C306.521 89.1965 306.423 89.0258 306.294 88.8601C306.168 88.6911 305.996 88.5518 305.777 88.4425C305.558 88.3331 305.278 88.2784 304.937 88.2784C304.469 88.2784 304.08 88.3861 303.768 88.6016C303.46 88.8137 303.306 89.0838 303.306 89.4119C303.306 89.7036 303.412 89.9339 303.624 90.103C303.836 90.272 304.168 90.4129 304.618 90.5256L305.752 90.804C306.435 90.9697 306.943 91.2232 307.278 91.5646C307.613 91.9027 307.78 92.3385 307.78 92.8722C307.78 93.3097 307.654 93.7008 307.403 94.0455C307.154 94.3902 306.806 94.6619 306.358 94.8608C305.911 95.0597 305.391 95.1591 304.797 95.1591C304.019 95.1591 303.374 94.9901 302.863 94.652C302.353 94.3139 302.03 93.8201 301.894 93.1705L303.008 92.892C303.114 93.303 303.314 93.6113 303.609 93.8168C303.907 94.0223 304.297 94.125 304.778 94.125C305.324 94.125 305.759 94.009 306.08 93.777C306.405 93.5417 306.567 93.2599 306.567 92.9318C306.567 92.6667 306.474 92.4446 306.289 92.2656C306.103 92.0833 305.818 91.9474 305.434 91.858L304.161 91.5597C303.462 91.3939 302.948 91.1371 302.62 90.7891C302.295 90.4377 302.133 89.9986 302.133 89.4716C302.133 89.0407 302.254 88.6596 302.496 88.3281C302.741 87.9967 303.074 87.7365 303.495 87.5476C303.919 87.3587 304.4 87.2642 304.937 87.2642C305.692 87.2642 306.286 87.4299 306.716 87.7614C307.151 88.0928 307.459 88.5303 307.641 89.0739Z" fill="white" fill-opacity="0.95"/>
<path d="M161.25 134.125H165C165.5 134.125 165.975 133.925 166.325 133.575C166.675 133.225 166.875 132.744 166.875 132.25V128.5C166.875 128.006 166.675 127.525 166.325 127.175C165.975 126.825 165.5 126.625 165 126.625H161.25C160.75 126.625 160.275 126.825 159.925 127.175C159.575 127.525 159.375 128.006 159.375 128.5V132.25C159.375 132.744 159.575 133.225 159.925 133.575C160.275 133.925 160.75 134.125 161.25 134.125ZM165.444 128.056C165.556 128.175 165.625 128.337 165.625 128.5V132.25C165.625 132.413 165.556 132.575 165.444 132.694C165.325 132.806 165.169 132.875 165 132.875H161.25C161.081 132.875 160.925 132.806 160.806 132.694C160.694 132.575 160.625 132.413 160.625 132.25V128.5C160.625 128.337 160.694 128.175 160.806 128.056C160.925 127.944 161.081 127.875 161.25 127.875H165C165.169 127.875 165.325 127.944 165.444 128.056Z" fill="white" fill-opacity="0.95"/>
<path d="M168.675 133.575C169.025 133.925 169.5 134.125 170 134.125H173.75C174.25 134.125 174.725 133.925 175.075 133.575C175.425 133.225 175.625 132.744 175.625 132.25V128.5C175.625 128.006 175.425 127.525 175.075 127.175C174.725 126.825 174.25 126.625 173.75 126.625H170C169.5 126.625 169.025 126.825 168.675 127.175C168.325 127.525 168.125 128.006 168.125 128.5V132.25C168.125 132.744 168.325 133.225 168.675 133.575ZM174.194 128.056C174.306 128.175 174.375 128.337 174.375 128.5V132.25C174.375 132.413 174.306 132.575 174.194 132.694C174.075 132.806 173.919 132.875 173.75 132.875H170C169.831 132.875 169.675 132.806 169.556 132.694C169.444 132.575 169.375 132.413 169.375 132.25V128.5C169.375 128.337 169.444 128.175 169.556 128.056C169.675 127.944 169.831 127.875 170 127.875H173.75C173.919 127.875 174.075 127.944 174.194 128.056Z" fill="white" fill-opacity="0.95"/>
<path d="M171.25 121V119.125C171.25 118.781 171.531 118.5 171.875 118.5C172.219 118.5 172.5 118.781 172.5 119.125V121H174.375C174.719 121 175 121.281 175 121.625C175 121.969 174.719 122.25 174.375 122.25H172.5V124.125C172.5 124.469 172.219 124.75 171.875 124.75C171.531 124.75 171.25 124.469 171.25 124.125V122.25H169.375C169.031 122.25 168.75 121.969 168.75 121.625C168.75 121.281 169.031 121 169.375 121H171.25Z" fill="white" fill-opacity="0.95"/>
<path d="M161.25 125.375H165C165.5 125.375 165.975 125.175 166.325 124.825C166.675 124.475 166.875 123.994 166.875 123.5V119.75C166.875 119.256 166.675 118.775 166.325 118.425C165.975 118.075 165.5 117.875 165 117.875H161.25C160.75 117.875 160.275 118.075 159.925 118.425C159.575 118.775 159.375 119.256 159.375 119.75V123.5C159.375 123.994 159.575 124.475 159.925 124.825C160.275 125.175 160.75 125.375 161.25 125.375ZM165.444 119.306C165.556 119.425 165.625 119.587 165.625 119.75V123.5C165.625 123.663 165.556 123.825 165.444 123.944C165.325 124.056 165.169 124.125 165 124.125H161.25C161.081 124.125 160.925 124.056 160.806 123.944C160.694 123.825 160.625 123.663 160.625 123.5V119.75C160.625 119.587 160.694 119.425 160.806 119.306C160.925 119.194 161.081 119.125 161.25 119.125H165C165.169 119.125 165.325 119.194 165.444 119.306Z" fill="white" fill-opacity="0.95"/>
<path d="M191.151 131H189.858L193.597 120.818H194.869L198.608 131H197.315L194.273 122.429H194.193L191.151 131ZM191.628 127.023H196.838V128.116H191.628V127.023ZM202.918 131.159C202.282 131.159 201.72 130.998 201.233 130.677C200.746 130.352 200.365 129.895 200.089 129.305C199.814 128.711 199.677 128.01 199.677 127.202C199.677 126.4 199.814 125.704 200.089 125.114C200.365 124.524 200.747 124.068 201.238 123.746C201.728 123.425 202.295 123.264 202.938 123.264C203.435 123.264 203.828 123.347 204.116 123.513C204.408 123.675 204.63 123.861 204.783 124.07C204.938 124.275 205.059 124.444 205.146 124.577H205.245V120.818H206.418V131H205.285V129.827H205.146C205.059 129.966 204.937 130.142 204.778 130.354C204.619 130.562 204.392 130.75 204.097 130.915C203.802 131.078 203.409 131.159 202.918 131.159ZM203.077 130.105C203.548 130.105 203.946 129.982 204.271 129.737C204.595 129.489 204.842 129.146 205.011 128.708C205.18 128.267 205.265 127.759 205.265 127.182C205.265 126.612 205.182 126.113 205.016 125.685C204.851 125.254 204.605 124.92 204.281 124.681C203.956 124.439 203.555 124.318 203.077 124.318C202.58 124.318 202.166 124.446 201.835 124.701C201.506 124.953 201.259 125.296 201.094 125.73C200.931 126.161 200.85 126.645 200.85 127.182C200.85 127.725 200.933 128.219 201.099 128.663C201.268 129.104 201.516 129.455 201.844 129.717C202.176 129.976 202.587 130.105 203.077 130.105ZM211.614 131.159C210.977 131.159 210.415 130.998 209.928 130.677C209.441 130.352 209.06 129.895 208.785 129.305C208.51 128.711 208.372 128.01 208.372 127.202C208.372 126.4 208.51 125.704 208.785 125.114C209.06 124.524 209.443 124.068 209.933 123.746C210.424 123.425 210.991 123.264 211.634 123.264C212.131 123.264 212.523 123.347 212.812 123.513C213.103 123.675 213.326 123.861 213.478 124.07C213.634 124.275 213.755 124.444 213.841 124.577H213.94V120.818H215.114V131H213.98V129.827H213.841C213.755 129.966 213.632 130.142 213.473 130.354C213.314 130.562 213.087 130.75 212.792 130.915C212.497 131.078 212.104 131.159 211.614 131.159ZM211.773 130.105C212.243 130.105 212.641 129.982 212.966 129.737C213.291 129.489 213.538 129.146 213.707 128.708C213.876 128.267 213.96 127.759 213.96 127.182C213.96 126.612 213.877 126.113 213.712 125.685C213.546 125.254 213.301 124.92 212.976 124.681C212.651 124.439 212.25 124.318 211.773 124.318C211.276 124.318 210.861 124.446 210.53 124.701C210.202 124.953 209.955 125.296 209.789 125.73C209.627 126.161 209.545 126.645 209.545 127.182C209.545 127.725 209.628 128.219 209.794 128.663C209.963 129.104 210.212 129.455 210.54 129.717C210.871 129.976 211.282 130.105 211.773 130.105ZM223.61 131.179C223.126 131.179 222.687 131.088 222.293 130.906C221.898 130.72 221.585 130.453 221.353 130.105C221.121 129.754 221.005 129.33 221.005 128.832C221.005 128.395 221.091 128.04 221.263 127.768C221.436 127.493 221.666 127.278 221.955 127.122C222.243 126.966 222.561 126.85 222.909 126.774C223.26 126.695 223.613 126.632 223.968 126.585C224.432 126.526 224.808 126.481 225.097 126.451C225.388 126.418 225.6 126.363 225.733 126.287C225.869 126.211 225.937 126.078 225.937 125.889V125.849C225.937 125.359 225.803 124.978 225.534 124.706C225.269 124.434 224.866 124.298 224.326 124.298C223.766 124.298 223.327 124.421 223.009 124.666C222.69 124.911 222.467 125.173 222.337 125.452L221.224 125.054C221.423 124.59 221.688 124.229 222.019 123.97C222.354 123.708 222.719 123.526 223.113 123.423C223.511 123.317 223.902 123.264 224.286 123.264C224.531 123.264 224.813 123.294 225.131 123.354C225.453 123.41 225.763 123.528 226.061 123.707C226.363 123.886 226.613 124.156 226.812 124.517C227.011 124.878 227.11 125.362 227.11 125.969V131H225.937V129.966H225.877C225.798 130.132 225.665 130.309 225.479 130.498C225.294 130.687 225.047 130.848 224.739 130.98C224.43 131.113 224.054 131.179 223.61 131.179ZM223.789 130.125C224.253 130.125 224.644 130.034 224.962 129.852C225.284 129.669 225.526 129.434 225.688 129.146C225.854 128.857 225.937 128.554 225.937 128.236V127.162C225.887 127.222 225.778 127.276 225.609 127.326C225.443 127.372 225.251 127.414 225.032 127.45C224.817 127.483 224.606 127.513 224.401 127.54C224.198 127.563 224.034 127.583 223.908 127.599C223.603 127.639 223.318 127.704 223.053 127.793C222.791 127.879 222.579 128.01 222.417 128.186C222.258 128.358 222.178 128.594 222.178 128.892C222.178 129.3 222.329 129.608 222.631 129.817C222.936 130.022 223.322 130.125 223.789 130.125ZM229.252 133.864V123.364H230.385V124.577H230.524C230.61 124.444 230.73 124.275 230.882 124.07C231.038 123.861 231.26 123.675 231.548 123.513C231.84 123.347 232.235 123.264 232.732 123.264C233.375 123.264 233.941 123.425 234.432 123.746C234.923 124.068 235.305 124.524 235.58 125.114C235.856 125.704 235.993 126.4 235.993 127.202C235.993 128.01 235.856 128.711 235.58 129.305C235.305 129.895 234.924 130.352 234.437 130.677C233.95 130.998 233.388 131.159 232.752 131.159C232.261 131.159 231.868 131.078 231.573 130.915C231.278 130.75 231.051 130.562 230.892 130.354C230.733 130.142 230.61 129.966 230.524 129.827H230.425V133.864H229.252ZM230.405 127.182C230.405 127.759 230.49 128.267 230.659 128.708C230.828 129.146 231.075 129.489 231.399 129.737C231.724 129.982 232.122 130.105 232.593 130.105C233.083 130.105 233.492 129.976 233.82 129.717C234.152 129.455 234.401 129.104 234.566 128.663C234.735 128.219 234.82 127.725 234.82 127.182C234.82 126.645 234.737 126.161 234.571 125.73C234.409 125.296 234.162 124.953 233.83 124.701C233.502 124.446 233.09 124.318 232.593 124.318C232.115 124.318 231.714 124.439 231.389 124.681C231.065 124.92 230.819 125.254 230.654 125.685C230.488 126.113 230.405 126.612 230.405 127.182ZM237.783 133.864V123.364H238.916V124.577H239.056C239.142 124.444 239.261 124.275 239.414 124.07C239.569 123.861 239.791 123.675 240.08 123.513C240.371 123.347 240.766 123.264 241.263 123.264C241.906 123.264 242.473 123.425 242.963 123.746C243.454 124.068 243.837 124.524 244.112 125.114C244.387 125.704 244.524 126.4 244.524 127.202C244.524 128.01 244.387 128.711 244.112 129.305C243.837 129.895 243.455 130.352 242.968 130.677C242.481 130.998 241.919 131.159 241.283 131.159C240.792 131.159 240.4 131.078 240.105 130.915C239.81 130.75 239.583 130.562 239.423 130.354C239.264 130.142 239.142 129.966 239.056 129.827H238.956V133.864H237.783ZM238.936 127.182C238.936 127.759 239.021 128.267 239.19 128.708C239.359 129.146 239.606 129.489 239.931 129.737C240.255 129.982 240.653 130.105 241.124 130.105C241.614 130.105 242.024 129.976 242.352 129.717C242.683 129.455 242.932 129.104 243.097 128.663C243.267 128.219 243.351 127.725 243.351 127.182C243.351 126.645 243.268 126.161 243.102 125.73C242.94 125.296 242.693 124.953 242.362 124.701C242.034 124.446 241.621 124.318 241.124 124.318C240.646 124.318 240.245 124.439 239.921 124.681C239.596 124.92 239.351 125.254 239.185 125.685C239.019 126.113 238.936 126.612 238.936 127.182ZM251.723 125.074L250.669 125.372C250.603 125.196 250.505 125.026 250.376 124.86C250.25 124.691 250.078 124.552 249.859 124.442C249.64 124.333 249.36 124.278 249.019 124.278C248.551 124.278 248.162 124.386 247.85 124.602C247.542 124.814 247.388 125.084 247.388 125.412C247.388 125.704 247.494 125.934 247.706 126.103C247.918 126.272 248.25 126.413 248.7 126.526L249.834 126.804C250.517 126.97 251.026 127.223 251.36 127.565C251.695 127.903 251.862 128.339 251.862 128.872C251.862 129.31 251.736 129.701 251.485 130.045C251.236 130.39 250.888 130.662 250.441 130.861C249.993 131.06 249.473 131.159 248.879 131.159C248.101 131.159 247.456 130.99 246.945 130.652C246.435 130.314 246.112 129.82 245.976 129.17L247.09 128.892C247.196 129.303 247.396 129.611 247.691 129.817C247.99 130.022 248.379 130.125 248.86 130.125C249.406 130.125 249.841 130.009 250.162 129.777C250.487 129.542 250.649 129.26 250.649 128.932C250.649 128.667 250.557 128.445 250.371 128.266C250.185 128.083 249.9 127.947 249.516 127.858L248.243 127.56C247.544 127.394 247.03 127.137 246.702 126.789C246.377 126.438 246.215 125.999 246.215 125.472C246.215 125.041 246.336 124.66 246.578 124.328C246.823 123.997 247.156 123.737 247.577 123.548C248.001 123.359 248.482 123.264 249.019 123.264C249.774 123.264 250.368 123.43 250.798 123.761C251.233 124.093 251.541 124.53 251.723 125.074Z" fill="white" fill-opacity="0.95"/>
<path d="M167.344 160.437C167.775 160.437 168.125 160.088 168.125 159.656C168.125 159.225 167.775 158.875 167.344 158.875C166.912 158.875 166.563 159.225 166.563 159.656C166.563 160.088 166.912 160.437 167.344 160.437Z" fill="white" fill-opacity="0.95"/>
<path d="M168.125 162C168.125 161.918 168.109 161.837 168.078 161.761C168.046 161.685 168 161.616 167.942 161.558C167.884 161.5 167.815 161.454 167.739 161.423C167.664 161.391 167.582 161.375 167.5 161.375H166.875C166.709 161.375 166.551 161.441 166.433 161.558C166.316 161.675 166.25 161.834 166.25 162C166.25 162.166 166.316 162.325 166.433 162.442C166.551 162.559 166.709 162.625 166.875 162.625V164.5H166.25C166.084 164.5 165.926 164.566 165.808 164.683C165.691 164.8 165.625 164.959 165.625 165.125C165.625 165.291 165.691 165.45 165.808 165.567C165.926 165.684 166.084 165.75 166.25 165.75H168.75C168.916 165.75 169.075 165.684 169.192 165.567C169.309 165.45 169.375 165.291 169.375 165.125C169.375 164.959 169.309 164.8 169.192 164.683C169.075 164.566 168.916 164.5 168.75 164.5H168.125V162Z" fill="white" fill-opacity="0.95"/>
<path d="M175.435 160.134C175.354 160.146 175.276 160.174 175.206 160.217C175.136 160.259 175.075 160.315 175.026 160.381C174.978 160.447 174.943 160.523 174.923 160.602C174.904 160.682 174.9 160.765 174.912 160.846C174.971 161.228 175 161.614 175 162C175 163.483 174.56 164.933 173.736 166.167C172.912 167.4 171.741 168.362 170.37 168.929C169 169.497 167.492 169.645 166.037 169.356C164.582 169.067 163.246 168.352 162.197 167.303C161.148 166.254 160.434 164.918 160.144 163.463C159.855 162.008 160.003 160.5 160.571 159.13C161.139 157.76 162.1 156.588 163.333 155.764C164.567 154.94 166.017 154.5 167.5 154.5C167.694 154.5 167.886 154.507 168.076 154.522C168.242 154.535 168.405 154.481 168.531 154.374C168.657 154.266 168.735 154.112 168.748 153.947C168.761 153.782 168.707 153.618 168.599 153.492C168.492 153.366 168.338 153.288 168.173 153.276C167.951 153.259 167.726 153.25 167.5 153.25C165.77 153.25 164.078 153.763 162.639 154.725C161.2 155.686 160.079 157.053 159.416 158.652C158.754 160.25 158.581 162.01 158.918 163.707C159.256 165.404 160.089 166.964 161.313 168.187C162.537 169.411 164.096 170.244 165.793 170.582C167.491 170.92 169.25 170.746 170.849 170.084C172.448 169.422 173.814 168.3 174.776 166.861C175.737 165.422 176.25 163.731 176.25 162C176.25 161.55 176.216 161.101 176.148 160.657C176.136 160.575 176.108 160.497 176.065 160.427C176.023 160.357 175.967 160.295 175.901 160.247C175.834 160.198 175.759 160.163 175.679 160.144C175.599 160.124 175.517 160.121 175.435 160.134Z" fill="white" fill-opacity="0.95"/>
<path d="M170.589 158.875H173.995C174.543 158.88 175.075 158.684 175.489 158.325C175.904 157.966 176.173 157.467 176.246 156.924C176.3 156.423 176.179 155.92 175.905 155.498C175.63 155.077 175.218 154.763 174.738 154.61C174.491 154.139 174.102 153.757 173.627 153.519C173.151 153.28 172.612 153.198 172.087 153.282C171.561 153.367 171.076 153.614 170.699 153.989C170.322 154.365 170.072 154.849 169.985 155.374C169.567 155.515 169.215 155.804 168.996 156.186C168.777 156.569 168.706 157.018 168.797 157.45C168.887 157.857 169.114 158.221 169.44 158.48C169.767 158.74 170.172 158.879 170.589 158.875ZM170.131 156.733C170.183 156.67 170.247 156.619 170.321 156.584C170.394 156.55 170.474 156.531 170.556 156.531H171.181V155.906C171.18 155.546 171.317 155.2 171.564 154.938C171.811 154.677 172.149 154.52 172.508 154.5C172.776 154.518 173.033 154.611 173.249 154.769C173.466 154.927 173.634 155.143 173.733 155.392L173.869 155.713L174.213 155.767C174.452 155.803 174.667 155.93 174.814 156.121C174.961 156.311 175.029 156.552 175.003 156.791C174.965 157.029 174.842 157.245 174.656 157.398C174.471 157.552 174.236 157.632 173.995 157.625H170.589C170.46 157.628 170.334 157.588 170.231 157.511C170.128 157.434 170.054 157.324 170.021 157.199C170.003 157.118 170.004 157.034 170.023 156.954C170.042 156.873 170.079 156.798 170.131 156.733Z" fill="white" fill-opacity="0.95"/>
<path d="M191.151 156.818L194.173 165.389H194.293L197.315 156.818H198.608L194.869 167H193.597L189.858 156.818H191.151ZM200.035 167V159.364H201.208V167H200.035ZM200.631 158.091C200.403 158.091 200.205 158.013 200.04 157.857C199.877 157.701 199.796 157.514 199.796 157.295C199.796 157.077 199.877 156.889 200.04 156.734C200.205 156.578 200.403 156.5 200.631 156.5C200.86 156.5 201.056 156.578 201.218 156.734C201.384 156.889 201.467 157.077 201.467 157.295C201.467 157.514 201.384 157.701 201.218 157.857C201.056 158.013 200.86 158.091 200.631 158.091ZM206.559 167.159C205.823 167.159 205.188 166.997 204.655 166.672C204.124 166.344 203.715 165.886 203.427 165.3C203.142 164.71 202.999 164.024 202.999 163.241C202.999 162.459 203.142 161.77 203.427 161.173C203.715 160.573 204.116 160.106 204.63 159.771C205.147 159.433 205.75 159.264 206.439 159.264C206.837 159.264 207.23 159.33 207.618 159.463C208.006 159.596 208.358 159.811 208.677 160.109C208.995 160.404 209.248 160.795 209.437 161.283C209.626 161.77 209.721 162.37 209.721 163.082V163.58H203.834V162.565H208.528C208.528 162.134 208.441 161.75 208.269 161.412C208.1 161.074 207.858 160.807 207.543 160.612C207.232 160.416 206.864 160.318 206.439 160.318C205.972 160.318 205.568 160.434 205.226 160.666C204.888 160.895 204.628 161.193 204.446 161.561C204.264 161.929 204.172 162.323 204.172 162.744V163.42C204.172 163.997 204.272 164.486 204.471 164.887C204.673 165.285 204.953 165.588 205.311 165.797C205.669 166.002 206.085 166.105 206.559 166.105C206.867 166.105 207.145 166.062 207.394 165.976C207.646 165.886 207.863 165.754 208.045 165.578C208.228 165.399 208.368 165.177 208.468 164.912L209.601 165.23C209.482 165.615 209.282 165.953 209 166.244C208.718 166.533 208.37 166.758 207.956 166.92C207.541 167.08 207.076 167.159 206.559 167.159ZM213.236 167L210.909 159.364H212.142L213.792 165.21H213.872L215.503 159.364H216.756L218.366 165.19H218.446L220.096 159.364H221.329L219.003 167H217.849L216.179 161.134H216.059L214.389 167H213.236ZM229.702 167.159C229.065 167.159 228.503 166.998 228.016 166.677C227.529 166.352 227.148 165.895 226.873 165.305C226.598 164.711 226.46 164.01 226.46 163.202C226.46 162.4 226.598 161.704 226.873 161.114C227.148 160.524 227.531 160.068 228.021 159.746C228.512 159.425 229.078 159.264 229.721 159.264C230.219 159.264 230.611 159.347 230.9 159.513C231.191 159.675 231.413 159.861 231.566 160.07C231.722 160.275 231.843 160.444 231.929 160.577H232.028V156.818H233.202V167H232.068V165.827H231.929C231.843 165.966 231.72 166.142 231.561 166.354C231.402 166.562 231.175 166.75 230.88 166.915C230.585 167.078 230.192 167.159 229.702 167.159ZM229.861 166.105C230.331 166.105 230.729 165.982 231.054 165.737C231.379 165.489 231.626 165.146 231.795 164.708C231.964 164.267 232.048 163.759 232.048 163.182C232.048 162.612 231.965 162.113 231.8 161.685C231.634 161.254 231.389 160.92 231.064 160.681C230.739 160.439 230.338 160.318 229.861 160.318C229.363 160.318 228.949 160.446 228.618 160.701C228.29 160.953 228.043 161.296 227.877 161.73C227.715 162.161 227.633 162.645 227.633 163.182C227.633 163.725 227.716 164.219 227.882 164.663C228.051 165.104 228.3 165.455 228.628 165.717C228.959 165.976 229.37 166.105 229.861 166.105ZM235.513 167V159.364H236.687V167H235.513ZM236.11 158.091C235.881 158.091 235.684 158.013 235.518 157.857C235.356 157.701 235.275 157.514 235.275 157.295C235.275 157.077 235.356 156.889 235.518 156.734C235.684 156.578 235.881 156.5 236.11 156.5C236.339 156.5 236.534 156.578 236.697 156.734C236.862 156.889 236.945 157.077 236.945 157.295C236.945 157.514 236.862 157.701 236.697 157.857C236.534 158.013 236.339 158.091 236.11 158.091ZM238.836 167V159.364H239.969V160.517H240.049C240.188 160.139 240.44 159.833 240.804 159.597C241.169 159.362 241.58 159.244 242.037 159.244C242.123 159.244 242.231 159.246 242.36 159.249C242.49 159.253 242.587 159.258 242.654 159.264V160.457C242.614 160.447 242.523 160.433 242.38 160.413C242.241 160.389 242.094 160.378 241.938 160.378C241.567 160.378 241.235 160.456 240.944 160.612C240.655 160.764 240.426 160.976 240.257 161.248C240.092 161.516 240.009 161.823 240.009 162.168V167H238.836ZM247.014 167.159C246.278 167.159 245.643 166.997 245.11 166.672C244.579 166.344 244.17 165.886 243.882 165.3C243.597 164.71 243.454 164.024 243.454 163.241C243.454 162.459 243.597 161.77 243.882 161.173C244.17 160.573 244.571 160.106 245.085 159.771C245.602 159.433 246.205 159.264 246.895 159.264C247.292 159.264 247.685 159.33 248.073 159.463C248.461 159.596 248.814 159.811 249.132 160.109C249.45 160.404 249.703 160.795 249.892 161.283C250.081 161.77 250.176 162.37 250.176 163.082V163.58H244.289V162.565H248.983C248.983 162.134 248.896 161.75 248.724 161.412C248.555 161.074 248.313 160.807 247.998 160.612C247.687 160.416 247.319 160.318 246.895 160.318C246.427 160.318 246.023 160.434 245.681 160.666C245.343 160.895 245.083 161.193 244.901 161.561C244.719 161.929 244.627 162.323 244.627 162.744V163.42C244.627 163.997 244.727 164.486 244.926 164.887C245.128 165.285 245.408 165.588 245.766 165.797C246.124 166.002 246.54 166.105 247.014 166.105C247.322 166.105 247.6 166.062 247.849 165.976C248.101 165.886 248.318 165.754 248.5 165.578C248.683 165.399 248.824 165.177 248.923 164.912L250.056 165.23C249.937 165.615 249.737 165.953 249.455 166.244C249.173 166.533 248.825 166.758 248.411 166.92C247.997 167.08 247.531 167.159 247.014 167.159ZM255.063 167.159C254.347 167.159 253.73 166.99 253.213 166.652C252.696 166.314 252.299 165.848 252.02 165.255C251.742 164.662 251.603 163.984 251.603 163.222C251.603 162.446 251.745 161.762 252.03 161.168C252.319 160.572 252.72 160.106 253.233 159.771C253.75 159.433 254.354 159.264 255.043 159.264C255.58 159.264 256.064 159.364 256.495 159.562C256.926 159.761 257.279 160.04 257.554 160.398C257.829 160.756 257.999 161.173 258.066 161.651H256.892C256.803 161.303 256.604 160.994 256.296 160.726C255.991 160.454 255.58 160.318 255.063 160.318C254.605 160.318 254.204 160.437 253.86 160.676C253.518 160.911 253.252 161.245 253.059 161.675C252.87 162.103 252.776 162.605 252.776 163.182C252.776 163.772 252.869 164.286 253.054 164.723C253.243 165.161 253.508 165.5 253.85 165.742C254.194 165.984 254.599 166.105 255.063 166.105C255.368 166.105 255.645 166.052 255.893 165.946C256.142 165.84 256.352 165.688 256.525 165.489C256.697 165.29 256.819 165.051 256.892 164.773H258.066C257.999 165.223 257.835 165.629 257.574 165.991C257.315 166.349 256.972 166.634 256.544 166.846C256.12 167.055 255.626 167.159 255.063 167.159ZM263.102 159.364V160.358H259.145V159.364H263.102ZM260.298 157.534H261.471V164.812C261.471 165.144 261.519 165.393 261.615 165.558C261.715 165.721 261.841 165.83 261.993 165.886C262.149 165.939 262.313 165.966 262.485 165.966C262.615 165.966 262.721 165.959 262.804 165.946C262.886 165.929 262.953 165.916 263.002 165.906L263.241 166.96C263.162 166.99 263.051 167.02 262.908 167.05C262.766 167.083 262.585 167.099 262.366 167.099C262.035 167.099 261.71 167.028 261.392 166.886C261.077 166.743 260.815 166.526 260.606 166.234C260.401 165.943 260.298 165.575 260.298 165.131V157.534ZM268.804 167V159.364H269.938V160.557H270.037C270.196 160.149 270.453 159.833 270.808 159.607C271.163 159.379 271.588 159.264 272.086 159.264C272.589 159.264 273.009 159.379 273.343 159.607C273.681 159.833 273.945 160.149 274.134 160.557H274.213C274.409 160.162 274.702 159.849 275.093 159.617C275.484 159.382 275.953 159.264 276.5 159.264C277.183 159.264 277.742 159.478 278.176 159.906C278.61 160.33 278.827 160.991 278.827 161.889V167H277.654V161.889C277.654 161.326 277.5 160.923 277.191 160.681C276.883 160.439 276.52 160.318 276.103 160.318C275.566 160.318 275.15 160.481 274.855 160.805C274.56 161.127 274.412 161.535 274.412 162.028V167H273.219V161.77C273.219 161.336 273.078 160.986 272.797 160.721C272.515 160.452 272.152 160.318 271.708 160.318C271.403 160.318 271.118 160.399 270.853 160.562C270.591 160.724 270.379 160.95 270.216 161.238C270.057 161.523 269.978 161.853 269.978 162.227V167H268.804ZM284.174 167.159C283.438 167.159 282.804 166.997 282.27 166.672C281.74 166.344 281.33 165.886 281.042 165.3C280.757 164.71 280.614 164.024 280.614 163.241C280.614 162.459 280.757 161.77 281.042 161.173C281.33 160.573 281.731 160.106 282.245 159.771C282.762 159.433 283.365 159.264 284.055 159.264C284.452 159.264 284.845 159.33 285.233 159.463C285.621 159.596 285.974 159.811 286.292 160.109C286.61 160.404 286.864 160.795 287.053 161.283C287.241 161.77 287.336 162.37 287.336 163.082V163.58H281.45V162.565H286.143C286.143 162.134 286.057 161.75 285.884 161.412C285.715 161.074 285.473 160.807 285.158 160.612C284.847 160.416 284.479 160.318 284.055 160.318C283.587 160.318 283.183 160.434 282.842 160.666C282.504 160.895 282.243 161.193 282.061 161.561C281.879 161.929 281.788 162.323 281.788 162.744V163.42C281.788 163.997 281.887 164.486 282.086 164.887C282.288 165.285 282.568 165.588 282.926 165.797C283.284 166.002 283.7 166.105 284.174 166.105C284.482 166.105 284.761 166.062 285.009 165.976C285.261 165.886 285.478 165.754 285.661 165.578C285.843 165.399 285.984 165.177 286.083 164.912L287.217 165.23C287.097 165.615 286.897 165.953 286.615 166.244C286.333 166.533 285.985 166.758 285.571 166.92C285.157 167.08 284.691 167.159 284.174 167.159ZM294.53 161.074L293.476 161.372C293.41 161.196 293.312 161.026 293.183 160.86C293.057 160.691 292.884 160.552 292.665 160.442C292.447 160.333 292.167 160.278 291.825 160.278C291.358 160.278 290.969 160.386 290.657 160.602C290.349 160.814 290.195 161.084 290.195 161.412C290.195 161.704 290.301 161.934 290.513 162.103C290.725 162.272 291.056 162.413 291.507 162.526L292.641 162.804C293.323 162.97 293.832 163.223 294.167 163.565C294.502 163.903 294.669 164.339 294.669 164.872C294.669 165.31 294.543 165.701 294.291 166.045C294.043 166.39 293.695 166.662 293.247 166.861C292.8 167.06 292.279 167.159 291.686 167.159C290.907 167.159 290.263 166.99 289.752 166.652C289.242 166.314 288.919 165.82 288.783 165.17L289.896 164.892C290.002 165.303 290.203 165.611 290.498 165.817C290.796 166.022 291.186 166.125 291.666 166.125C292.213 166.125 292.647 166.009 292.969 165.777C293.294 165.542 293.456 165.26 293.456 164.932C293.456 164.667 293.363 164.445 293.178 164.266C292.992 164.083 292.707 163.947 292.322 163.858L291.05 163.56C290.35 163.394 289.837 163.137 289.509 162.789C289.184 162.438 289.021 161.999 289.021 161.472C289.021 161.041 289.142 160.66 289.384 160.328C289.629 159.997 289.963 159.737 290.384 159.548C290.808 159.359 291.288 159.264 291.825 159.264C292.581 159.264 293.174 159.43 293.605 159.761C294.039 160.093 294.348 160.53 294.53 161.074ZM301.844 161.074L300.79 161.372C300.724 161.196 300.626 161.026 300.497 160.86C300.371 160.691 300.199 160.552 299.98 160.442C299.761 160.333 299.481 160.278 299.14 160.278C298.672 160.278 298.283 160.386 297.971 160.602C297.663 160.814 297.509 161.084 297.509 161.412C297.509 161.704 297.615 161.934 297.827 162.103C298.039 162.272 298.371 162.413 298.822 162.526L299.955 162.804C300.638 162.97 301.147 163.223 301.481 163.565C301.816 163.903 301.983 164.339 301.983 164.872C301.983 165.31 301.858 165.701 301.606 166.045C301.357 166.39 301.009 166.662 300.562 166.861C300.114 167.06 299.594 167.159 299.001 167.159C298.222 167.159 297.577 166.99 297.067 166.652C296.556 166.314 296.233 165.82 296.097 165.17L297.211 164.892C297.317 165.303 297.517 165.611 297.812 165.817C298.111 166.022 298.5 166.125 298.981 166.125C299.528 166.125 299.962 166.009 300.283 165.777C300.608 165.542 300.77 165.26 300.77 164.932C300.77 164.667 300.678 164.445 300.492 164.266C300.306 164.083 300.021 163.947 299.637 163.858L298.364 163.56C297.665 163.394 297.151 163.137 296.823 162.789C296.498 162.438 296.336 161.999 296.336 161.472C296.336 161.041 296.457 160.66 296.699 160.328C296.944 159.997 297.277 159.737 297.698 159.548C298.122 159.359 298.603 159.264 299.14 159.264C299.895 159.264 300.489 159.43 300.92 159.761C301.354 160.093 301.662 160.53 301.844 161.074ZM305.997 167.179C305.513 167.179 305.074 167.088 304.679 166.906C304.285 166.72 303.972 166.453 303.74 166.105C303.508 165.754 303.392 165.33 303.392 164.832C303.392 164.395 303.478 164.04 303.65 163.768C303.823 163.493 304.053 163.278 304.341 163.122C304.63 162.966 304.948 162.85 305.296 162.774C305.647 162.695 306 162.632 306.355 162.585C306.819 162.526 307.195 162.481 307.483 162.451C307.775 162.418 307.987 162.363 308.12 162.287C308.256 162.211 308.324 162.078 308.324 161.889V161.849C308.324 161.359 308.189 160.978 307.921 160.706C307.656 160.434 307.253 160.298 306.713 160.298C306.153 160.298 305.713 160.421 305.395 160.666C305.077 160.911 304.853 161.173 304.724 161.452L303.61 161.054C303.809 160.59 304.074 160.229 304.406 159.97C304.741 159.708 305.105 159.526 305.5 159.423C305.897 159.317 306.288 159.264 306.673 159.264C306.918 159.264 307.2 159.294 307.518 159.354C307.84 159.41 308.15 159.528 308.448 159.707C308.749 159.886 309 160.156 309.199 160.517C309.397 160.878 309.497 161.362 309.497 161.969V167H308.324V165.966H308.264C308.184 166.132 308.052 166.309 307.866 166.498C307.681 166.687 307.434 166.848 307.125 166.98C306.817 167.113 306.441 167.179 305.997 167.179ZM306.176 166.125C306.64 166.125 307.031 166.034 307.349 165.852C307.671 165.669 307.913 165.434 308.075 165.146C308.241 164.857 308.324 164.554 308.324 164.236V163.162C308.274 163.222 308.164 163.276 307.995 163.326C307.83 163.372 307.637 163.414 307.419 163.45C307.203 163.483 306.993 163.513 306.787 163.54C306.585 163.563 306.421 163.583 306.295 163.599C305.99 163.639 305.705 163.704 305.44 163.793C305.178 163.879 304.966 164.01 304.804 164.186C304.645 164.358 304.565 164.594 304.565 164.892C304.565 165.3 304.716 165.608 305.017 165.817C305.322 166.022 305.708 166.125 306.176 166.125ZM314.721 170.023C314.154 170.023 313.667 169.95 313.259 169.804C312.851 169.661 312.512 169.473 312.24 169.237C311.971 169.005 311.758 168.757 311.599 168.491L312.533 167.835C312.639 167.974 312.773 168.134 312.936 168.312C313.098 168.495 313.32 168.652 313.602 168.785C313.887 168.921 314.26 168.989 314.721 168.989C315.337 168.989 315.846 168.839 316.247 168.541C316.648 168.243 316.849 167.776 316.849 167.139V165.588H316.749C316.663 165.727 316.54 165.9 316.381 166.105C316.225 166.307 316 166.488 315.705 166.647C315.413 166.803 315.019 166.881 314.522 166.881C313.905 166.881 313.352 166.735 312.861 166.443C312.374 166.152 311.988 165.727 311.703 165.17C311.421 164.614 311.28 163.937 311.28 163.142C311.28 162.36 311.418 161.679 311.693 161.099C311.968 160.515 312.351 160.065 312.841 159.746C313.332 159.425 313.899 159.264 314.542 159.264C315.039 159.264 315.433 159.347 315.725 159.513C316.02 159.675 316.245 159.861 316.401 160.07C316.56 160.275 316.683 160.444 316.769 160.577H316.888V159.364H318.022V167.219C318.022 167.875 317.873 168.409 317.574 168.82C317.279 169.234 316.882 169.537 316.381 169.729C315.884 169.925 315.331 170.023 314.721 170.023ZM314.681 165.827C315.152 165.827 315.549 165.719 315.874 165.504C316.199 165.288 316.446 164.978 316.615 164.574C316.784 164.17 316.868 163.686 316.868 163.122C316.868 162.572 316.786 162.086 316.62 161.665C316.454 161.245 316.209 160.915 315.884 160.676C315.559 160.437 315.158 160.318 314.681 160.318C314.184 160.318 313.769 160.444 313.438 160.696C313.11 160.948 312.863 161.286 312.697 161.71C312.535 162.134 312.454 162.605 312.454 163.122C312.454 163.652 312.537 164.121 312.702 164.529C312.871 164.933 313.12 165.252 313.448 165.484C313.779 165.712 314.19 165.827 314.681 165.827ZM323.371 167.159C322.635 167.159 322.001 166.997 321.467 166.672C320.937 166.344 320.528 165.886 320.239 165.3C319.954 164.71 319.812 164.024 319.812 163.241C319.812 162.459 319.954 161.77 320.239 161.173C320.528 160.573 320.929 160.106 321.442 159.771C321.959 159.433 322.563 159.264 323.252 159.264C323.65 159.264 324.042 159.33 324.43 159.463C324.818 159.596 325.171 159.811 325.489 160.109C325.807 160.404 326.061 160.795 326.25 161.283C326.439 161.77 326.533 162.37 326.533 163.082V163.58H320.647V162.565H325.34C325.34 162.134 325.254 161.75 325.081 161.412C324.912 161.074 324.671 160.807 324.356 160.612C324.044 160.416 323.676 160.318 323.252 160.318C322.785 160.318 322.38 160.434 322.039 160.666C321.701 160.895 321.441 161.193 321.258 161.561C321.076 161.929 320.985 162.323 320.985 162.744V163.42C320.985 163.997 321.084 164.486 321.283 164.887C321.485 165.285 321.765 165.588 322.123 165.797C322.481 166.002 322.897 166.105 323.371 166.105C323.68 166.105 323.958 166.062 324.206 165.976C324.458 165.886 324.675 165.754 324.858 165.578C325.04 165.399 325.181 165.177 325.28 164.912L326.414 165.23C326.295 165.615 326.094 165.953 325.812 166.244C325.531 166.533 325.183 166.758 324.768 166.92C324.354 167.08 323.888 167.159 323.371 167.159ZM332.256 169.864V159.364H333.389V160.577H333.528C333.614 160.444 333.734 160.275 333.886 160.07C334.042 159.861 334.264 159.675 334.552 159.513C334.844 159.347 335.238 159.264 335.736 159.264C336.379 159.264 336.945 159.425 337.436 159.746C337.926 160.068 338.309 160.524 338.584 161.114C338.859 161.704 338.997 162.4 338.997 163.202C338.997 164.01 338.859 164.711 338.584 165.305C338.309 165.895 337.928 166.352 337.441 166.677C336.954 166.998 336.392 167.159 335.756 167.159C335.265 167.159 334.872 167.078 334.577 166.915C334.282 166.75 334.055 166.562 333.896 166.354C333.737 166.142 333.614 165.966 333.528 165.827H333.429V169.864H332.256ZM333.409 163.182C333.409 163.759 333.493 164.267 333.662 164.708C333.831 165.146 334.078 165.489 334.403 165.737C334.728 165.982 335.126 166.105 335.596 166.105C336.087 166.105 336.496 165.976 336.824 165.717C337.156 165.455 337.404 165.104 337.57 164.663C337.739 164.219 337.824 163.725 337.824 163.182C337.824 162.645 337.741 162.161 337.575 161.73C337.413 161.296 337.166 160.953 336.834 160.701C336.506 160.446 336.094 160.318 335.596 160.318C335.119 160.318 334.718 160.439 334.393 160.681C334.068 160.92 333.823 161.254 333.657 161.685C333.492 162.113 333.409 162.612 333.409 163.182ZM343.889 167.159C343.2 167.159 342.595 166.995 342.074 166.667C341.557 166.339 341.153 165.88 340.861 165.29C340.573 164.7 340.429 164.01 340.429 163.222C340.429 162.426 340.573 161.732 340.861 161.138C341.153 160.545 341.557 160.085 342.074 159.756C342.595 159.428 343.2 159.264 343.889 159.264C344.578 159.264 345.182 159.428 345.699 159.756C346.219 160.085 346.623 160.545 346.912 161.138C347.203 161.732 347.349 162.426 347.349 163.222C347.349 164.01 347.203 164.7 346.912 165.29C346.623 165.88 346.219 166.339 345.699 166.667C345.182 166.995 344.578 167.159 343.889 167.159ZM343.889 166.105C344.413 166.105 344.844 165.971 345.182 165.702C345.52 165.434 345.77 165.081 345.932 164.643C346.095 164.206 346.176 163.732 346.176 163.222C346.176 162.711 346.095 162.236 345.932 161.795C345.77 161.354 345.52 160.998 345.182 160.726C344.844 160.454 344.413 160.318 343.889 160.318C343.365 160.318 342.934 160.454 342.596 160.726C342.258 160.998 342.008 161.354 341.846 161.795C341.683 162.236 341.602 162.711 341.602 163.222C341.602 163.732 341.683 164.206 341.846 164.643C342.008 165.081 342.258 165.434 342.596 165.702C342.934 165.971 343.365 166.105 343.889 166.105ZM350.314 156.818V167H349.14V156.818H350.314ZM352.463 167V159.364H353.636V167H352.463ZM353.059 158.091C352.83 158.091 352.633 158.013 352.468 157.857C352.305 157.701 352.224 157.514 352.224 157.295C352.224 157.077 352.305 156.889 352.468 156.734C352.633 156.578 352.83 156.5 353.059 156.5C353.288 156.5 353.483 156.578 353.646 156.734C353.811 156.889 353.894 157.077 353.894 157.295C353.894 157.514 353.811 157.701 353.646 157.857C353.483 158.013 353.288 158.091 353.059 158.091ZM358.887 167.159C358.171 167.159 357.555 166.99 357.038 166.652C356.521 166.314 356.123 165.848 355.844 165.255C355.566 164.662 355.427 163.984 355.427 163.222C355.427 162.446 355.569 161.762 355.854 161.168C356.143 160.572 356.544 160.106 357.058 159.771C357.575 159.433 358.178 159.264 358.867 159.264C359.404 159.264 359.888 159.364 360.319 159.562C360.75 159.761 361.103 160.04 361.378 160.398C361.653 160.756 361.824 161.173 361.89 161.651H360.717C360.627 161.303 360.428 160.994 360.12 160.726C359.815 160.454 359.404 160.318 358.887 160.318C358.43 160.318 358.029 160.437 357.684 160.676C357.343 160.911 357.076 161.245 356.884 161.675C356.695 162.103 356.6 162.605 356.6 163.182C356.6 163.772 356.693 164.286 356.879 164.723C357.067 165.161 357.333 165.5 357.674 165.742C358.019 165.984 358.423 166.105 358.887 166.105C359.192 166.105 359.469 166.052 359.717 165.946C359.966 165.84 360.176 165.688 360.349 165.489C360.521 165.29 360.644 165.051 360.717 164.773H361.89C361.824 165.223 361.66 165.629 361.398 165.991C361.139 166.349 360.796 166.634 360.369 166.846C359.944 167.055 359.451 167.159 358.887 167.159ZM364.361 169.844C364.162 169.844 363.985 169.827 363.829 169.794C363.673 169.764 363.565 169.734 363.506 169.705L363.804 168.67C364.232 168.78 364.588 168.777 364.873 168.661C365.158 168.548 365.405 168.206 365.614 167.636L365.832 167.04L363.009 159.364H364.281L366.389 165.449H366.469L368.577 159.364L369.859 159.384L366.608 168.114C366.462 168.501 366.281 168.823 366.066 169.078C365.851 169.337 365.6 169.529 365.315 169.655C365.034 169.781 364.715 169.844 364.361 169.844Z" fill="white" fill-opacity="0.95"/>
<path d="M171.25 194.875H163.75C163.584 194.875 163.425 194.941 163.308 195.058C163.191 195.175 163.125 195.334 163.125 195.5C163.125 195.666 163.191 195.825 163.308 195.942C163.425 196.059 163.584 196.125 163.75 196.125H171.25C171.416 196.125 171.575 196.059 171.692 195.942C171.809 195.825 171.875 195.666 171.875 195.5C171.875 195.334 171.809 195.175 171.692 195.058C171.575 194.941 171.416 194.875 171.25 194.875Z" fill="white" fill-opacity="0.95"/>
<path d="M170.625 198H164.375C164.044 198.001 163.726 198.132 163.492 198.367C163.257 198.601 163.126 198.919 163.125 199.25V201.125C163.126 201.457 163.257 201.774 163.492 202.009C163.726 202.243 164.044 202.375 164.375 202.375H170.625C170.957 202.375 171.274 202.243 171.509 202.009C171.743 201.774 171.875 201.457 171.875 201.125V199.25C171.875 198.919 171.743 198.601 171.509 198.367C171.274 198.132 170.957 198.001 170.625 198ZM170.625 201.125H164.375V199.25H170.625L170.625 201.125Z" fill="white" fill-opacity="0.95"/>
<path d="M171.875 191.125V189.875C171.875 189.709 171.809 189.551 171.692 189.433C171.575 189.316 171.416 189.25 171.25 189.25C171.084 189.25 170.925 189.316 170.808 189.433C170.691 189.551 170.625 189.709 170.625 189.875V191.125H164.375V189.875C164.375 189.709 164.309 189.551 164.192 189.433C164.075 189.316 163.916 189.25 163.75 189.25C163.584 189.25 163.425 189.316 163.308 189.433C163.191 189.551 163.125 189.709 163.125 189.875V191.125C162.296 191.126 161.502 191.455 160.916 192.041C160.331 192.627 160.001 193.421 160 194.25V203C160.001 203.828 160.331 204.622 160.916 205.208C161.502 205.794 162.296 206.124 163.125 206.125H171.875C172.704 206.124 173.498 205.794 174.084 205.208C174.669 204.622 174.999 203.828 175 203V194.25C174.999 193.421 174.669 192.627 174.084 192.041C173.498 191.455 172.704 191.126 171.875 191.125ZM173.75 203C173.749 203.497 173.552 203.973 173.2 204.325C172.849 204.676 172.372 204.874 171.875 204.875H163.125C162.628 204.874 162.151 204.676 161.8 204.325C161.448 203.973 161.251 203.497 161.25 203V194.25C161.251 193.753 161.448 193.276 161.8 192.924C162.151 192.573 162.628 192.375 163.125 192.375H171.875C172.372 192.375 172.849 192.573 173.2 192.924C173.552 193.276 173.749 193.753 173.75 194.25V203Z" fill="white" fill-opacity="0.95"/>
<path d="M190.733 192.818H192.205L195.665 201.27H195.784L199.244 192.818H200.716V203H199.562V195.264H199.463L196.281 203H195.168L191.986 195.264H191.886V203H190.733V192.818ZM206.231 203.159C205.495 203.159 204.86 202.997 204.327 202.672C203.796 202.344 203.387 201.886 203.099 201.3C202.814 200.71 202.671 200.024 202.671 199.241C202.671 198.459 202.814 197.77 203.099 197.173C203.387 196.573 203.788 196.106 204.302 195.771C204.819 195.433 205.422 195.264 206.111 195.264C206.509 195.264 206.902 195.33 207.29 195.463C207.677 195.596 208.03 195.811 208.349 196.109C208.667 196.404 208.92 196.795 209.109 197.283C209.298 197.77 209.393 198.37 209.393 199.082V199.58H203.506V198.565H208.199C208.199 198.134 208.113 197.75 207.941 197.412C207.772 197.074 207.53 196.807 207.215 196.612C206.903 196.416 206.536 196.318 206.111 196.318C205.644 196.318 205.24 196.434 204.898 196.666C204.56 196.895 204.3 197.193 204.118 197.561C203.935 197.929 203.844 198.323 203.844 198.744V199.42C203.844 199.997 203.944 200.486 204.143 200.887C204.345 201.285 204.625 201.588 204.983 201.797C205.341 202.002 205.757 202.105 206.231 202.105C206.539 202.105 206.817 202.062 207.066 201.976C207.318 201.886 207.535 201.754 207.717 201.578C207.899 201.399 208.04 201.177 208.14 200.912L209.273 201.23C209.154 201.615 208.953 201.953 208.672 202.244C208.39 202.533 208.042 202.758 207.628 202.92C207.213 203.08 206.748 203.159 206.231 203.159ZM214.379 203.159C213.643 203.159 213.009 202.997 212.475 202.672C211.945 202.344 211.535 201.886 211.247 201.3C210.962 200.71 210.819 200.024 210.819 199.241C210.819 198.459 210.962 197.77 211.247 197.173C211.535 196.573 211.936 196.106 212.45 195.771C212.967 195.433 213.57 195.264 214.26 195.264C214.657 195.264 215.05 195.33 215.438 195.463C215.826 195.596 216.179 195.811 216.497 196.109C216.815 196.404 217.069 196.795 217.258 197.283C217.447 197.77 217.541 198.37 217.541 199.082V199.58H211.655V198.565H216.348C216.348 198.134 216.262 197.75 216.089 197.412C215.92 197.074 215.678 196.807 215.363 196.612C215.052 196.416 214.684 196.318 214.26 196.318C213.792 196.318 213.388 196.434 213.047 196.666C212.709 196.895 212.448 197.193 212.266 197.561C212.084 197.929 211.993 198.323 211.993 198.744V199.42C211.993 199.997 212.092 200.486 212.291 200.887C212.493 201.285 212.773 201.588 213.131 201.797C213.489 202.002 213.905 202.105 214.379 202.105C214.687 202.105 214.966 202.062 215.214 201.976C215.466 201.886 215.683 201.754 215.866 201.578C216.048 201.399 216.189 201.177 216.288 200.912L217.422 201.23C217.302 201.615 217.102 201.953 216.82 202.244C216.538 202.533 216.19 202.758 215.776 202.92C215.362 203.08 214.896 203.159 214.379 203.159ZM222.647 195.364V196.358H218.689V195.364H222.647ZM219.843 193.534H221.016V200.812C221.016 201.144 221.064 201.393 221.16 201.558C221.26 201.721 221.386 201.83 221.538 201.886C221.694 201.939 221.858 201.966 222.03 201.966C222.16 201.966 222.266 201.959 222.349 201.946C222.431 201.929 222.498 201.916 222.547 201.906L222.786 202.96C222.706 202.99 222.595 203.02 222.453 203.05C222.31 203.083 222.13 203.099 221.911 203.099C221.58 203.099 221.255 203.028 220.937 202.886C220.622 202.743 220.36 202.526 220.151 202.234C219.946 201.943 219.843 201.575 219.843 201.131V193.534ZM224.412 203V195.364H225.585V203H224.412ZM225.008 194.091C224.78 194.091 224.582 194.013 224.417 193.857C224.254 193.701 224.173 193.514 224.173 193.295C224.173 193.077 224.254 192.889 224.417 192.734C224.582 192.578 224.78 192.5 225.008 192.5C225.237 192.5 225.433 192.578 225.595 192.734C225.761 192.889 225.844 193.077 225.844 193.295C225.844 193.514 225.761 193.701 225.595 193.857C225.433 194.013 225.237 194.091 225.008 194.091ZM228.907 198.406V203H227.734V195.364H228.868V196.557H228.967C229.146 196.169 229.418 195.857 229.782 195.622C230.147 195.384 230.618 195.264 231.194 195.264C231.711 195.264 232.164 195.37 232.551 195.582C232.939 195.791 233.241 196.109 233.456 196.537C233.672 196.961 233.779 197.498 233.779 198.148V203H232.606V198.227C232.606 197.627 232.45 197.16 232.139 196.825C231.827 196.487 231.4 196.318 230.856 196.318C230.482 196.318 230.147 196.399 229.852 196.562C229.56 196.724 229.33 196.961 229.161 197.273C228.992 197.584 228.907 197.962 228.907 198.406ZM239.006 206.023C238.439 206.023 237.952 205.95 237.544 205.804C237.137 205.661 236.797 205.473 236.525 205.237C236.257 205.005 236.043 204.757 235.884 204.491L236.818 203.835C236.924 203.974 237.059 204.134 237.221 204.312C237.383 204.495 237.606 204.652 237.887 204.785C238.172 204.921 238.545 204.989 239.006 204.989C239.622 204.989 240.131 204.839 240.532 204.541C240.933 204.243 241.134 203.776 241.134 203.139V201.588H241.034C240.948 201.727 240.825 201.9 240.666 202.105C240.511 202.307 240.285 202.488 239.99 202.647C239.699 202.803 239.304 202.881 238.807 202.881C238.191 202.881 237.637 202.735 237.146 202.443C236.659 202.152 236.273 201.727 235.988 201.17C235.706 200.614 235.566 199.937 235.566 199.142C235.566 198.36 235.703 197.679 235.978 197.099C236.253 196.515 236.636 196.065 237.127 195.746C237.617 195.425 238.184 195.264 238.827 195.264C239.324 195.264 239.718 195.347 240.01 195.513C240.305 195.675 240.53 195.861 240.686 196.07C240.845 196.275 240.968 196.444 241.054 196.577H241.173V195.364H242.307V203.219C242.307 203.875 242.158 204.409 241.86 204.82C241.565 205.234 241.167 205.537 240.666 205.729C240.169 205.925 239.616 206.023 239.006 206.023ZM238.966 201.827C239.437 201.827 239.834 201.719 240.159 201.504C240.484 201.288 240.731 200.978 240.9 200.574C241.069 200.17 241.154 199.686 241.154 199.122C241.154 198.572 241.071 198.086 240.905 197.665C240.739 197.245 240.494 196.915 240.169 196.676C239.844 196.437 239.443 196.318 238.966 196.318C238.469 196.318 238.055 196.444 237.723 196.696C237.395 196.948 237.148 197.286 236.982 197.71C236.82 198.134 236.739 198.605 236.739 199.122C236.739 199.652 236.822 200.121 236.987 200.529C237.156 200.933 237.405 201.252 237.733 201.484C238.065 201.712 238.476 201.827 238.966 201.827ZM251.494 203.159C250.779 203.159 250.162 202.99 249.645 202.652C249.128 202.314 248.73 201.848 248.452 201.255C248.173 200.662 248.034 199.984 248.034 199.222C248.034 198.446 248.177 197.762 248.462 197.168C248.75 196.572 249.151 196.106 249.665 195.771C250.182 195.433 250.785 195.264 251.475 195.264C252.012 195.264 252.495 195.364 252.926 195.562C253.357 195.761 253.71 196.04 253.985 196.398C254.26 196.756 254.431 197.173 254.497 197.651H253.324C253.235 197.303 253.036 196.994 252.727 196.726C252.423 196.454 252.012 196.318 251.494 196.318C251.037 196.318 250.636 196.437 250.291 196.676C249.95 196.911 249.683 197.245 249.491 197.675C249.302 198.103 249.208 198.605 249.208 199.182C249.208 199.772 249.3 200.286 249.486 200.723C249.675 201.161 249.94 201.5 250.281 201.742C250.626 201.984 251.03 202.105 251.494 202.105C251.799 202.105 252.076 202.052 252.325 201.946C252.573 201.84 252.784 201.688 252.956 201.489C253.128 201.29 253.251 201.051 253.324 200.773H254.497C254.431 201.223 254.267 201.629 254.005 201.991C253.747 202.349 253.404 202.634 252.976 202.846C252.552 203.055 252.058 203.159 251.494 203.159ZM258.46 203.179C257.976 203.179 257.537 203.088 257.142 202.906C256.748 202.72 256.435 202.453 256.203 202.105C255.971 201.754 255.855 201.33 255.855 200.832C255.855 200.395 255.941 200.04 256.113 199.768C256.285 199.493 256.516 199.278 256.804 199.122C257.093 198.966 257.411 198.85 257.759 198.774C258.11 198.695 258.463 198.632 258.818 198.585C259.282 198.526 259.658 198.481 259.946 198.451C260.238 198.418 260.45 198.363 260.583 198.287C260.718 198.211 260.786 198.078 260.786 197.889V197.849C260.786 197.359 260.652 196.978 260.384 196.706C260.119 196.434 259.716 196.298 259.176 196.298C258.615 196.298 258.176 196.421 257.858 196.666C257.54 196.911 257.316 197.173 257.187 197.452L256.073 197.054C256.272 196.59 256.537 196.229 256.869 195.97C257.204 195.708 257.568 195.526 257.963 195.423C258.36 195.317 258.751 195.264 259.136 195.264C259.381 195.264 259.663 195.294 259.981 195.354C260.302 195.41 260.612 195.528 260.911 195.707C261.212 195.886 261.463 196.156 261.661 196.517C261.86 196.878 261.96 197.362 261.96 197.969V203H260.786V201.966H260.727C260.647 202.132 260.515 202.309 260.329 202.498C260.143 202.687 259.896 202.848 259.588 202.98C259.28 203.113 258.904 203.179 258.46 203.179ZM258.639 202.125C259.103 202.125 259.494 202.034 259.812 201.852C260.133 201.669 260.375 201.434 260.538 201.146C260.704 200.857 260.786 200.554 260.786 200.236V199.162C260.737 199.222 260.627 199.276 260.458 199.326C260.293 199.372 260.1 199.414 259.882 199.45C259.666 199.483 259.456 199.513 259.25 199.54C259.048 199.563 258.884 199.583 258.758 199.599C258.453 199.639 258.168 199.704 257.903 199.793C257.641 199.879 257.429 200.01 257.267 200.186C257.107 200.358 257.028 200.594 257.028 200.892C257.028 201.3 257.179 201.608 257.48 201.817C257.785 202.022 258.171 202.125 258.639 202.125ZM264.101 205.864V195.364H265.235V196.577H265.374C265.46 196.444 265.579 196.275 265.732 196.07C265.888 195.861 266.11 195.675 266.398 195.513C266.69 195.347 267.084 195.264 267.581 195.264C268.224 195.264 268.791 195.425 269.282 195.746C269.772 196.068 270.155 196.524 270.43 197.114C270.705 197.704 270.843 198.4 270.843 199.202C270.843 200.01 270.705 200.711 270.43 201.305C270.155 201.895 269.774 202.352 269.287 202.677C268.799 202.998 268.238 203.159 267.601 203.159C267.111 203.159 266.718 203.078 266.423 202.915C266.128 202.75 265.901 202.562 265.742 202.354C265.583 202.142 265.46 201.966 265.374 201.827H265.275V205.864H264.101ZM265.255 199.182C265.255 199.759 265.339 200.267 265.508 200.708C265.677 201.146 265.924 201.489 266.249 201.737C266.574 201.982 266.971 202.105 267.442 202.105C267.933 202.105 268.342 201.976 268.67 201.717C269.002 201.455 269.25 201.104 269.416 200.663C269.585 200.219 269.669 199.725 269.669 199.182C269.669 198.645 269.587 198.161 269.421 197.73C269.258 197.296 269.011 196.953 268.68 196.701C268.352 196.446 267.939 196.318 267.442 196.318C266.965 196.318 266.564 196.439 266.239 196.681C265.914 196.92 265.669 197.254 265.503 197.685C265.337 198.113 265.255 198.612 265.255 199.182ZM274.88 203.179C274.396 203.179 273.957 203.088 273.562 202.906C273.168 202.72 272.855 202.453 272.623 202.105C272.391 201.754 272.275 201.33 272.275 200.832C272.275 200.395 272.361 200.04 272.533 199.768C272.705 199.493 272.936 199.278 273.224 199.122C273.512 198.966 273.831 198.85 274.179 198.774C274.53 198.695 274.883 198.632 275.238 198.585C275.702 198.526 276.078 198.481 276.366 198.451C276.658 198.418 276.87 198.363 277.002 198.287C277.138 198.211 277.206 198.078 277.206 197.889V197.849C277.206 197.359 277.072 196.978 276.804 196.706C276.538 196.434 276.136 196.298 275.596 196.298C275.035 196.298 274.596 196.421 274.278 196.666C273.96 196.911 273.736 197.173 273.607 197.452L272.493 197.054C272.692 196.59 272.957 196.229 273.289 195.97C273.623 195.708 273.988 195.526 274.382 195.423C274.78 195.317 275.171 195.264 275.556 195.264C275.801 195.264 276.083 195.294 276.401 195.354C276.722 195.41 277.032 195.528 277.331 195.707C277.632 195.886 277.882 196.156 278.081 196.517C278.28 196.878 278.38 197.362 278.38 197.969V203H277.206V201.966H277.147C277.067 202.132 276.935 202.309 276.749 202.498C276.563 202.687 276.316 202.848 276.008 202.98C275.7 203.113 275.324 203.179 274.88 203.179ZM275.059 202.125C275.523 202.125 275.914 202.034 276.232 201.852C276.553 201.669 276.795 201.434 276.958 201.146C277.123 200.857 277.206 200.554 277.206 200.236V199.162C277.157 199.222 277.047 199.276 276.878 199.326C276.712 199.372 276.52 199.414 276.301 199.45C276.086 199.483 275.876 199.513 275.67 199.54C275.468 199.563 275.304 199.583 275.178 199.599C274.873 199.639 274.588 199.704 274.323 199.793C274.061 199.879 273.849 200.01 273.686 200.186C273.527 200.358 273.448 200.594 273.448 200.892C273.448 201.3 273.599 201.608 273.9 201.817C274.205 202.022 274.591 202.125 275.059 202.125ZM280.68 203V192.818H281.854V196.577H281.953C282.039 196.444 282.158 196.275 282.311 196.07C282.467 195.861 282.689 195.675 282.977 195.513C283.269 195.347 283.663 195.264 284.16 195.264C284.803 195.264 285.37 195.425 285.861 195.746C286.351 196.068 286.734 196.524 287.009 197.114C287.284 197.704 287.422 198.4 287.422 199.202C287.422 200.01 287.284 200.711 287.009 201.305C286.734 201.895 286.353 202.352 285.866 202.677C285.378 202.998 284.817 203.159 284.18 203.159C283.69 203.159 283.297 203.078 283.002 202.915C282.707 202.75 282.48 202.562 282.321 202.354C282.162 202.142 282.039 201.966 281.953 201.827H281.814V203H280.68ZM281.834 199.182C281.834 199.759 281.918 200.267 282.087 200.708C282.256 201.146 282.503 201.489 282.828 201.737C283.153 201.982 283.55 202.105 284.021 202.105C284.512 202.105 284.921 201.976 285.249 201.717C285.581 201.455 285.829 201.104 285.995 200.663C286.164 200.219 286.248 199.725 286.248 199.182C286.248 198.645 286.166 198.161 286 197.73C285.837 197.296 285.59 196.953 285.259 196.701C284.931 196.446 284.518 196.318 284.021 196.318C283.544 196.318 283.143 196.439 282.818 196.681C282.493 196.92 282.248 197.254 282.082 197.685C281.916 198.113 281.834 198.612 281.834 199.182ZM289.216 203V195.364H290.39V203H289.216ZM289.813 194.091C289.584 194.091 289.387 194.013 289.221 193.857C289.059 193.701 288.978 193.514 288.978 193.295C288.978 193.077 289.059 192.889 289.221 192.734C289.387 192.578 289.584 192.5 289.813 192.5C290.042 192.5 290.237 192.578 290.4 192.734C290.565 192.889 290.648 193.077 290.648 193.295C290.648 193.514 290.565 193.701 290.4 193.857C290.237 194.013 290.042 194.091 289.813 194.091ZM293.712 192.818V203H292.539V192.818H293.712ZM295.861 203V195.364H297.034V203H295.861ZM296.458 194.091C296.229 194.091 296.032 194.013 295.866 193.857C295.704 193.701 295.622 193.514 295.622 193.295C295.622 193.077 295.704 192.889 295.866 192.734C296.032 192.578 296.229 192.5 296.458 192.5C296.686 192.5 296.882 192.578 297.044 192.734C297.21 192.889 297.293 193.077 297.293 193.295C297.293 193.514 297.21 193.701 297.044 193.857C296.882 194.013 296.686 194.091 296.458 194.091ZM302.504 195.364V196.358H298.547V195.364H302.504ZM299.7 193.534H300.874V200.812C300.874 201.144 300.922 201.393 301.018 201.558C301.117 201.721 301.243 201.83 301.396 201.886C301.551 201.939 301.715 201.966 301.888 201.966C302.017 201.966 302.123 201.959 302.206 201.946C302.289 201.929 302.355 201.916 302.405 201.906L302.643 202.96C302.564 202.99 302.453 203.02 302.31 203.05C302.168 203.083 301.987 203.099 301.768 203.099C301.437 203.099 301.112 203.028 300.794 202.886C300.479 202.743 300.217 202.526 300.009 202.234C299.803 201.943 299.7 201.575 299.7 201.131V193.534ZM304.269 203V195.364H305.442V203H304.269ZM304.866 194.091C304.637 194.091 304.44 194.013 304.274 193.857C304.112 193.701 304.031 193.514 304.031 193.295C304.031 193.077 304.112 192.889 304.274 192.734C304.44 192.578 304.637 192.5 304.866 192.5C305.094 192.5 305.29 192.578 305.452 192.734C305.618 192.889 305.701 193.077 305.701 193.295C305.701 193.514 305.618 193.701 305.452 193.857C305.29 194.013 305.094 194.091 304.866 194.091ZM310.793 203.159C310.057 203.159 309.423 202.997 308.889 202.672C308.359 202.344 307.949 201.886 307.661 201.3C307.376 200.71 307.233 200.024 307.233 199.241C307.233 198.459 307.376 197.77 307.661 197.173C307.949 196.573 308.35 196.106 308.864 195.771C309.381 195.433 309.984 195.264 310.674 195.264C311.072 195.264 311.464 195.33 311.852 195.463C312.24 195.596 312.593 195.811 312.911 196.109C313.229 196.404 313.483 196.795 313.672 197.283C313.861 197.77 313.955 198.37 313.955 199.082V199.58H308.069V198.565H312.762C312.762 198.134 312.676 197.75 312.503 197.412C312.334 197.074 312.092 196.807 311.778 196.612C311.466 196.416 311.098 196.318 310.674 196.318C310.206 196.318 309.802 196.434 309.461 196.666C309.123 196.895 308.863 197.193 308.68 197.561C308.498 197.929 308.407 198.323 308.407 198.744V199.42C308.407 199.997 308.506 200.486 308.705 200.887C308.907 201.285 309.187 201.588 309.545 201.797C309.903 202.002 310.319 202.105 310.793 202.105C311.101 202.105 311.38 202.062 311.628 201.976C311.88 201.886 312.097 201.754 312.28 201.578C312.462 201.399 312.603 201.177 312.702 200.912L313.836 201.23C313.716 201.615 313.516 201.953 313.234 202.244C312.952 202.533 312.604 202.758 312.19 202.92C311.776 203.08 311.31 203.159 310.793 203.159ZM321.149 197.074L320.095 197.372C320.029 197.196 319.931 197.026 319.802 196.86C319.676 196.691 319.503 196.552 319.285 196.442C319.066 196.333 318.786 196.278 318.444 196.278C317.977 196.278 317.588 196.386 317.276 196.602C316.968 196.814 316.814 197.084 316.814 197.412C316.814 197.704 316.92 197.934 317.132 198.103C317.344 198.272 317.675 198.413 318.126 198.526L319.26 198.804C319.943 198.97 320.451 199.223 320.786 199.565C321.121 199.903 321.288 200.339 321.288 200.872C321.288 201.31 321.162 201.701 320.91 202.045C320.662 202.39 320.314 202.662 319.866 202.861C319.419 203.06 318.898 203.159 318.305 203.159C317.526 203.159 316.882 202.99 316.371 202.652C315.861 202.314 315.538 201.82 315.402 201.17L316.515 200.892C316.622 201.303 316.822 201.611 317.117 201.817C317.415 202.022 317.805 202.125 318.285 202.125C318.832 202.125 319.266 202.009 319.588 201.777C319.913 201.542 320.075 201.26 320.075 200.932C320.075 200.667 319.982 200.445 319.797 200.266C319.611 200.083 319.326 199.947 318.942 199.858L317.669 199.56C316.97 199.394 316.456 199.137 316.128 198.789C315.803 198.438 315.64 197.999 315.64 197.472C315.64 197.041 315.761 196.66 316.003 196.328C316.249 195.997 316.582 195.737 317.003 195.548C317.427 195.359 317.907 195.264 318.444 195.264C319.2 195.264 319.793 195.43 320.224 195.761C320.658 196.093 320.967 196.53 321.149 197.074Z" fill="white" fill-opacity="0.95"/>
<path d="M173.125 238.507C173.043 238.507 172.961 238.523 172.886 238.554C172.81 238.585 172.741 238.631 172.683 238.69C172.625 238.748 172.579 238.817 172.547 238.892C172.516 238.968 172.5 239.05 172.5 239.132V239.625C172.499 240.122 172.301 240.598 171.95 240.95C171.598 241.301 171.122 241.499 170.625 241.5H164.375C163.878 241.499 163.401 241.301 163.05 240.95C162.698 240.598 162.5 240.122 162.5 239.625V228.375C162.5 227.878 162.698 227.401 163.05 227.05C163.401 226.698 163.878 226.5 164.375 226.5H170.625C171.122 226.5 171.598 226.698 171.95 227.05C172.301 227.401 172.499 227.878 172.5 228.375V228.815C172.5 228.981 172.566 229.14 172.683 229.257C172.8 229.375 172.959 229.44 173.125 229.44C173.291 229.44 173.449 229.375 173.567 229.257C173.684 229.14 173.75 228.981 173.75 228.815V228.375C173.749 227.546 173.419 226.752 172.833 226.166C172.248 225.58 171.453 225.251 170.625 225.25H164.375C163.546 225.251 162.752 225.58 162.166 226.166C161.58 226.752 161.251 227.546 161.25 228.375V239.625C161.251 240.453 161.58 241.248 162.166 241.833C162.752 242.419 163.546 242.749 164.375 242.75H170.625C171.453 242.749 172.248 242.419 172.833 241.833C173.419 241.248 173.749 240.453 173.75 239.625V239.132C173.75 239.05 173.734 238.968 173.702 238.892C173.671 238.817 173.625 238.748 173.567 238.69C173.509 238.631 173.44 238.585 173.364 238.554C173.288 238.523 173.207 238.507 173.125 238.507Z" fill="white" fill-opacity="0.95"/>
<path d="M176.067 233.558L173.567 231.058C173.45 230.941 173.291 230.875 173.125 230.875C172.96 230.875 172.801 230.941 172.683 231.058C172.566 231.175 172.5 231.334 172.5 231.5C172.5 231.665 172.566 231.824 172.683 231.942L174.117 233.375H170.625C170.459 233.375 170.3 233.441 170.183 233.558C170.066 233.675 170 233.834 170 234C170 234.166 170.066 234.325 170.183 234.442C170.3 234.559 170.459 234.625 170.625 234.625H174.117L172.683 236.058C172.625 236.116 172.579 236.185 172.548 236.261C172.517 236.336 172.5 236.418 172.5 236.5C172.5 236.582 172.517 236.663 172.548 236.739C172.579 236.815 172.625 236.884 172.683 236.942C172.741 237 172.81 237.046 172.886 237.077C172.962 237.109 173.043 237.125 173.125 237.125C173.207 237.125 173.289 237.109 173.364 237.077C173.44 237.046 173.509 237 173.567 236.942L176.067 234.442C176.125 234.384 176.171 234.315 176.203 234.239C176.234 234.163 176.25 234.082 176.25 234C176.25 233.918 176.234 233.836 176.203 233.761C176.171 233.685 176.125 233.616 176.067 233.558Z" fill="white" fill-opacity="0.95"/>
<path d="M190.733 239V228.818H191.966V237.906H196.699V239H190.733ZM201.651 239.159C200.915 239.159 200.28 238.997 199.746 238.672C199.216 238.344 198.807 237.886 198.518 237.3C198.233 236.71 198.091 236.024 198.091 235.241C198.091 234.459 198.233 233.77 198.518 233.173C198.807 232.573 199.208 232.106 199.722 231.771C200.239 231.433 200.842 231.264 201.531 231.264C201.929 231.264 202.322 231.33 202.71 231.463C203.097 231.596 203.45 231.811 203.768 232.109C204.087 232.404 204.34 232.795 204.529 233.283C204.718 233.77 204.812 234.37 204.812 235.082V235.58H198.926V234.565H203.619C203.619 234.134 203.533 233.75 203.361 233.412C203.192 233.074 202.95 232.807 202.635 232.612C202.323 232.416 201.955 232.318 201.531 232.318C201.064 232.318 200.66 232.434 200.318 232.666C199.98 232.895 199.72 233.193 199.538 233.561C199.355 233.929 199.264 234.323 199.264 234.744V235.42C199.264 235.997 199.364 236.486 199.562 236.887C199.765 237.285 200.045 237.588 200.403 237.797C200.761 238.002 201.177 238.105 201.651 238.105C201.959 238.105 202.237 238.062 202.486 237.976C202.738 237.886 202.955 237.754 203.137 237.578C203.319 237.399 203.46 237.177 203.56 236.912L204.693 237.23C204.574 237.615 204.373 237.953 204.092 238.244C203.81 238.533 203.462 238.758 203.048 238.92C202.633 239.08 202.168 239.159 201.651 239.159ZM208.844 239.179C208.361 239.179 207.921 239.088 207.527 238.906C207.133 238.72 206.819 238.453 206.587 238.105C206.355 237.754 206.239 237.33 206.239 236.832C206.239 236.395 206.326 236.04 206.498 235.768C206.67 235.493 206.901 235.278 207.189 235.122C207.477 234.966 207.795 234.85 208.143 234.774C208.495 234.695 208.848 234.632 209.202 234.585C209.666 234.526 210.043 234.481 210.331 234.451C210.623 234.418 210.835 234.363 210.967 234.287C211.103 234.211 211.171 234.078 211.171 233.889V233.849C211.171 233.359 211.037 232.978 210.768 232.706C210.503 232.434 210.101 232.298 209.56 232.298C209 232.298 208.561 232.421 208.243 232.666C207.925 232.911 207.701 233.173 207.572 233.452L206.458 233.054C206.657 232.59 206.922 232.229 207.254 231.97C207.588 231.708 207.953 231.526 208.347 231.423C208.745 231.317 209.136 231.264 209.521 231.264C209.766 231.264 210.048 231.294 210.366 231.354C210.687 231.41 210.997 231.528 211.295 231.707C211.597 231.886 211.847 232.156 212.046 232.517C212.245 232.878 212.344 233.362 212.344 233.969V239H211.171V237.966H211.112C211.032 238.132 210.899 238.309 210.714 238.498C210.528 238.687 210.281 238.848 209.973 238.98C209.665 239.113 209.289 239.179 208.844 239.179ZM209.023 238.125C209.487 238.125 209.879 238.034 210.197 237.852C210.518 237.669 210.76 237.434 210.923 237.146C211.088 236.857 211.171 236.554 211.171 236.236V235.162C211.121 235.222 211.012 235.276 210.843 235.326C210.677 235.372 210.485 235.414 210.266 235.45C210.051 235.483 209.84 235.513 209.635 235.54C209.433 235.563 209.269 235.583 209.143 235.599C208.838 235.639 208.553 235.704 208.288 235.793C208.026 235.879 207.814 236.01 207.651 236.186C207.492 236.358 207.413 236.594 207.413 236.892C207.413 237.3 207.563 237.608 207.865 237.817C208.17 238.022 208.556 238.125 209.023 238.125ZM220.457 231.364L217.633 239H216.44L213.616 231.364H214.889L216.997 237.449H217.076L219.184 231.364H220.457ZM224.934 239.159C224.198 239.159 223.563 238.997 223.03 238.672C222.499 238.344 222.09 237.886 221.802 237.3C221.517 236.71 221.374 236.024 221.374 235.241C221.374 234.459 221.517 233.77 221.802 233.173C222.09 232.573 222.491 232.106 223.005 231.771C223.522 231.433 224.125 231.264 224.814 231.264C225.212 231.264 225.605 231.33 225.993 231.463C226.381 231.596 226.733 231.811 227.052 232.109C227.37 232.404 227.623 232.795 227.812 233.283C228.001 233.77 228.096 234.37 228.096 235.082V235.58H222.209V234.565H226.903C226.903 234.134 226.816 233.75 226.644 233.412C226.475 233.074 226.233 232.807 225.918 232.612C225.607 232.416 225.239 232.318 224.814 232.318C224.347 232.318 223.943 232.434 223.601 232.666C223.263 232.895 223.003 233.193 222.821 233.561C222.639 233.929 222.547 234.323 222.547 234.744V235.42C222.547 235.997 222.647 236.486 222.846 236.887C223.048 237.285 223.328 237.588 223.686 237.797C224.044 238.002 224.46 238.105 224.934 238.105C225.242 238.105 225.52 238.062 225.769 237.976C226.021 237.886 226.238 237.754 226.42 237.578C226.603 237.399 226.743 237.177 226.843 236.912L227.976 237.23C227.857 237.615 227.657 237.953 227.375 238.244C227.093 238.533 226.745 238.758 226.331 238.92C225.916 239.08 225.451 239.159 224.934 239.159Z" fill="white" fill-opacity="0.95"/>
<defs>
<filter id="filter0_d_1706_70158" x="93.5" y="36" width="372" height="300" filterUnits="userSpaceOnUse" color-interpolation-filters="sRGB">
<feFlood flood-opacity="0" result="BackgroundImageFix"/>
<feColorMatrix in="SourceAlpha" type="matrix" values="0 0 0 0 0 0 0 0 0 0 0 0 0 0 0 0 0 0 127 0" result="hardAlpha"/>
<feOffset dy="24"/>
<feGaussianBlur stdDeviation="24"/>
<feComposite in2="hardAlpha" operator="out"/>
<feColorMatrix type="matrix" values="0 0 0 0 0 0 0 0 0 0 0 0 0 0 0 0 0 0 0.2 0"/>
<feBlend mode="normal" in2="BackgroundImageFix" result="effect1_dropShadow_1706_70158"/>
<feBlend mode="normal" in="SourceGraphic" in2="effect1_dropShadow_1706_70158" result="shape"/>
</filter>
</defs>
</svg>
