<svg width="559" height="248" viewBox="0 0 559 248" fill="none" xmlns="http://www.w3.org/2000/svg">
<rect width="559" height="248" rx="20" fill="#1A1A1A"/>
<path d="M182.011 106V94.3636H189.716V96.392H184.472V99.1648H189.205V101.193H184.472V106H182.011ZM191.325 106V97.2727H193.746V106H191.325ZM192.547 96.1477C192.187 96.1477 191.878 96.0284 191.621 95.7898C191.363 95.5473 191.234 95.2576 191.234 94.9205C191.234 94.5871 191.363 94.3011 191.621 94.0625C191.878 93.8201 192.185 93.6989 192.541 93.6989C192.905 93.6989 193.214 93.8201 193.467 94.0625C193.725 94.3011 193.854 94.5871 193.854 94.9205C193.854 95.2576 193.725 95.5473 193.467 95.7898C193.214 96.0284 192.907 96.1477 192.547 96.1477ZM198.105 94.3636V106H195.685V94.3636H198.105ZM204.686 97.2727V99.0909H199.43V97.2727H204.686ZM200.624 95.1818H203.044V103.318C203.044 103.542 203.078 103.716 203.146 103.841C203.214 103.962 203.309 104.047 203.43 104.097C203.555 104.146 203.699 104.17 203.862 104.17C203.976 104.17 204.089 104.161 204.203 104.142C204.317 104.119 204.404 104.102 204.464 104.091L204.845 105.892C204.724 105.93 204.554 105.973 204.334 106.023C204.114 106.076 203.847 106.108 203.533 106.119C202.949 106.142 202.438 106.064 201.999 105.886C201.563 105.708 201.224 105.432 200.982 105.057C200.739 104.682 200.62 104.208 200.624 103.636V95.1818ZM210.146 106.17C209.249 106.17 208.476 105.989 207.828 105.625C207.184 105.258 206.688 104.739 206.339 104.068C205.991 103.394 205.817 102.597 205.817 101.676C205.817 100.778 205.991 99.9905 206.339 99.3125C206.688 98.6345 207.179 98.1061 207.811 97.7273C208.447 97.3485 209.194 97.1591 210.05 97.1591C210.625 97.1591 211.161 97.2519 211.658 97.4375C212.158 97.6193 212.593 97.8939 212.964 98.2614C213.339 98.6288 213.631 99.0909 213.839 99.6477C214.048 100.201 214.152 100.848 214.152 101.591V102.256H206.783V100.756H211.874C211.874 100.407 211.798 100.098 211.646 99.8295C211.495 99.5606 211.285 99.3504 211.016 99.1989C210.75 99.0436 210.442 98.9659 210.089 98.9659C209.722 98.9659 209.396 99.0511 209.112 99.2216C208.832 99.3883 208.612 99.6136 208.453 99.8977C208.294 100.178 208.213 100.491 208.209 100.835V102.261C208.209 102.693 208.288 103.066 208.447 103.381C208.61 103.695 208.839 103.938 209.135 104.108C209.43 104.278 209.781 104.364 210.186 104.364C210.455 104.364 210.701 104.326 210.925 104.25C211.148 104.174 211.339 104.061 211.499 103.909C211.658 103.758 211.779 103.572 211.862 103.352L214.101 103.5C213.987 104.038 213.754 104.508 213.402 104.909C213.054 105.307 212.603 105.617 212.05 105.841C211.5 106.061 210.866 106.17 210.146 106.17ZM215.732 106V97.2727H218.078V98.7955H218.169C218.328 98.2538 218.595 97.8447 218.97 97.5682C219.345 97.2879 219.777 97.1477 220.266 97.1477C220.387 97.1477 220.518 97.1553 220.658 97.1705C220.798 97.1856 220.921 97.2064 221.027 97.233V99.3807C220.913 99.3466 220.756 99.3163 220.555 99.2898C220.355 99.2633 220.171 99.25 220.004 99.25C219.648 99.25 219.33 99.3277 219.05 99.483C218.773 99.6345 218.554 99.8466 218.391 100.119C218.232 100.392 218.152 100.706 218.152 101.062V106H215.732ZM229.54 99.7614L227.324 99.8977C227.286 99.7083 227.205 99.5379 227.08 99.3864C226.955 99.2311 226.79 99.108 226.585 99.017C226.384 98.9223 226.144 98.875 225.864 98.875C225.489 98.875 225.172 98.9545 224.915 99.1136C224.657 99.2689 224.528 99.4773 224.528 99.7386C224.528 99.947 224.612 100.123 224.778 100.267C224.945 100.411 225.231 100.527 225.636 100.614L227.216 100.932C228.064 101.106 228.697 101.386 229.114 101.773C229.53 102.159 229.739 102.667 229.739 103.295C229.739 103.867 229.57 104.369 229.233 104.801C228.9 105.233 228.441 105.57 227.858 105.812C227.278 106.051 226.61 106.17 225.852 106.17C224.697 106.17 223.777 105.93 223.091 105.449C222.409 104.964 222.009 104.305 221.892 103.472L224.273 103.347C224.345 103.699 224.519 103.968 224.795 104.153C225.072 104.335 225.426 104.426 225.858 104.426C226.282 104.426 226.623 104.345 226.881 104.182C227.142 104.015 227.275 103.801 227.278 103.54C227.275 103.32 227.182 103.14 227 103C226.818 102.856 226.538 102.746 226.159 102.67L224.648 102.369C223.795 102.199 223.161 101.903 222.744 101.483C222.331 101.062 222.125 100.527 222.125 99.875C222.125 99.3144 222.277 98.8314 222.58 98.4261C222.886 98.0208 223.316 97.7083 223.869 97.4886C224.426 97.2689 225.078 97.1591 225.824 97.1591C226.926 97.1591 227.794 97.392 228.426 97.858C229.063 98.3239 229.434 98.9583 229.54 99.7614Z" fill="white" fill-opacity="0.95"/>
<g filter="url(#filter0_ddd_1854_13384)">
<rect x="181" y="136" width="77" height="24" rx="4" fill="#102B2A"/>
<rect x="181.5" y="136.5" width="76" height="23" rx="3.5" stroke="#3CC29A"/>
<path d="M192.289 153V142.818H193.522V151.906H198.255V153H192.289ZM203.107 153.159C202.417 153.159 201.813 152.995 201.292 152.667C200.775 152.339 200.371 151.88 200.079 151.29C199.791 150.7 199.647 150.01 199.647 149.222C199.647 148.426 199.791 147.732 200.079 147.138C200.371 146.545 200.775 146.085 201.292 145.756C201.813 145.428 202.417 145.264 203.107 145.264C203.796 145.264 204.399 145.428 204.916 145.756C205.437 146.085 205.841 146.545 206.13 147.138C206.421 147.732 206.567 148.426 206.567 149.222C206.567 150.01 206.421 150.7 206.13 151.29C205.841 151.88 205.437 152.339 204.916 152.667C204.399 152.995 203.796 153.159 203.107 153.159ZM203.107 152.105C203.63 152.105 204.061 151.971 204.399 151.702C204.737 151.434 204.988 151.081 205.15 150.643C205.313 150.206 205.394 149.732 205.394 149.222C205.394 148.711 205.313 148.236 205.15 147.795C204.988 147.354 204.737 146.998 204.399 146.726C204.061 146.454 203.63 146.318 203.107 146.318C202.583 146.318 202.152 146.454 201.814 146.726C201.476 146.998 201.226 147.354 201.063 147.795C200.901 148.236 200.82 148.711 200.82 149.222C200.82 149.732 200.901 150.206 201.063 150.643C201.226 151.081 201.476 151.434 201.814 151.702C202.152 151.971 202.583 152.105 203.107 152.105ZM211.46 153.159C210.744 153.159 210.128 152.99 209.611 152.652C209.094 152.314 208.696 151.848 208.418 151.255C208.139 150.662 208 149.984 208 149.222C208 148.446 208.143 147.762 208.428 147.168C208.716 146.572 209.117 146.106 209.631 145.771C210.148 145.433 210.751 145.264 211.44 145.264C211.977 145.264 212.461 145.364 212.892 145.562C213.323 145.761 213.676 146.04 213.951 146.398C214.226 146.756 214.397 147.173 214.463 147.651H213.29C213.2 147.303 213.002 146.994 212.693 146.726C212.388 146.454 211.977 146.318 211.46 146.318C211.003 146.318 210.602 146.437 210.257 146.676C209.916 146.911 209.649 147.245 209.457 147.675C209.268 148.103 209.173 148.605 209.173 149.182C209.173 149.772 209.266 150.286 209.452 150.723C209.641 151.161 209.906 151.5 210.247 151.742C210.592 151.984 210.996 152.105 211.46 152.105C211.765 152.105 212.042 152.052 212.291 151.946C212.539 151.84 212.75 151.688 212.922 151.489C213.094 151.29 213.217 151.051 213.29 150.773H214.463C214.397 151.223 214.233 151.629 213.971 151.991C213.712 152.349 213.369 152.634 212.942 152.846C212.518 153.055 212.024 153.159 211.46 153.159ZM218.426 153.179C217.942 153.179 217.502 153.088 217.108 152.906C216.714 152.72 216.4 152.453 216.168 152.105C215.936 151.754 215.82 151.33 215.82 150.832C215.82 150.395 215.907 150.04 216.079 149.768C216.251 149.493 216.482 149.278 216.77 149.122C217.058 148.966 217.377 148.85 217.725 148.774C218.076 148.695 218.429 148.632 218.783 148.585C219.247 148.526 219.624 148.481 219.912 148.451C220.204 148.418 220.416 148.363 220.548 148.287C220.684 148.211 220.752 148.078 220.752 147.889V147.849C220.752 147.359 220.618 146.978 220.35 146.706C220.084 146.434 219.682 146.298 219.141 146.298C218.581 146.298 218.142 146.421 217.824 146.666C217.506 146.911 217.282 147.173 217.153 147.452L216.039 147.054C216.238 146.59 216.503 146.229 216.835 145.97C217.169 145.708 217.534 145.526 217.928 145.423C218.326 145.317 218.717 145.264 219.102 145.264C219.347 145.264 219.629 145.294 219.947 145.354C220.268 145.41 220.578 145.528 220.877 145.707C221.178 145.886 221.428 146.156 221.627 146.517C221.826 146.878 221.926 147.362 221.926 147.969V153H220.752V151.966H220.693C220.613 152.132 220.48 152.309 220.295 152.498C220.109 152.687 219.862 152.848 219.554 152.98C219.246 153.113 218.87 153.179 218.426 153.179ZM218.604 152.125C219.069 152.125 219.46 152.034 219.778 151.852C220.099 151.669 220.341 151.434 220.504 151.146C220.669 150.857 220.752 150.554 220.752 150.236V149.162C220.703 149.222 220.593 149.276 220.424 149.326C220.258 149.372 220.066 149.414 219.847 149.45C219.632 149.483 219.421 149.513 219.216 149.54C219.014 149.563 218.85 149.583 218.724 149.599C218.419 149.639 218.134 149.704 217.869 149.793C217.607 149.879 217.395 150.01 217.232 150.186C217.073 150.358 216.994 150.594 216.994 150.892C216.994 151.3 217.145 151.608 217.446 151.817C217.751 152.022 218.137 152.125 218.604 152.125ZM227.388 145.364V146.358H223.431V145.364H227.388ZM224.584 143.534H225.757V150.812C225.757 151.144 225.805 151.393 225.902 151.558C226.001 151.721 226.127 151.83 226.279 151.886C226.435 151.939 226.599 151.966 226.772 151.966C226.901 151.966 227.007 151.959 227.09 151.946C227.173 151.929 227.239 151.916 227.289 151.906L227.527 152.96C227.448 152.99 227.337 153.02 227.194 153.05C227.052 153.083 226.871 153.099 226.652 153.099C226.321 153.099 225.996 153.028 225.678 152.886C225.363 152.743 225.101 152.526 224.892 152.234C224.687 151.943 224.584 151.575 224.584 151.131V143.534ZM229.153 153V145.364H230.326V153H229.153ZM229.75 144.091C229.521 144.091 229.324 144.013 229.158 143.857C228.996 143.701 228.914 143.514 228.914 143.295C228.914 143.077 228.996 142.889 229.158 142.734C229.324 142.578 229.521 142.5 229.75 142.5C229.978 142.5 230.174 142.578 230.336 142.734C230.502 142.889 230.585 143.077 230.585 143.295C230.585 143.514 230.502 143.701 230.336 143.857C230.174 144.013 229.978 144.091 229.75 144.091ZM235.578 153.159C234.888 153.159 234.283 152.995 233.763 152.667C233.246 152.339 232.841 151.88 232.55 151.29C232.261 150.7 232.117 150.01 232.117 149.222C232.117 148.426 232.261 147.732 232.55 147.138C232.841 146.545 233.246 146.085 233.763 145.756C234.283 145.428 234.888 145.264 235.578 145.264C236.267 145.264 236.87 145.428 237.387 145.756C237.908 146.085 238.312 146.545 238.6 147.138C238.892 147.732 239.038 148.426 239.038 149.222C239.038 150.01 238.892 150.7 238.6 151.29C238.312 151.88 237.908 152.339 237.387 152.667C236.87 152.995 236.267 153.159 235.578 153.159ZM235.578 152.105C236.101 152.105 236.532 151.971 236.87 151.702C237.208 151.434 237.458 151.081 237.621 150.643C237.783 150.206 237.864 149.732 237.864 149.222C237.864 148.711 237.783 148.236 237.621 147.795C237.458 147.354 237.208 146.998 236.87 146.726C236.532 146.454 236.101 146.318 235.578 146.318C235.054 146.318 234.623 146.454 234.285 146.726C233.947 146.998 233.697 147.354 233.534 147.795C233.372 148.236 233.291 148.711 233.291 149.222C233.291 149.732 233.372 150.206 233.534 150.643C233.697 151.081 233.947 151.434 234.285 151.702C234.623 151.971 235.054 152.105 235.578 152.105ZM242.002 148.406V153H240.829V145.364H241.962V146.557H242.062C242.241 146.169 242.512 145.857 242.877 145.622C243.242 145.384 243.712 145.264 244.289 145.264C244.806 145.264 245.258 145.37 245.646 145.582C246.034 145.791 246.336 146.109 246.551 146.537C246.766 146.961 246.874 147.498 246.874 148.148V153H245.701V148.227C245.701 147.627 245.545 147.16 245.234 146.825C244.922 146.487 244.494 146.318 243.951 146.318C243.576 146.318 243.242 146.399 242.947 146.562C242.655 146.724 242.425 146.961 242.256 147.273C242.087 147.584 242.002 147.962 242.002 148.406Z" fill="white" fill-opacity="0.95"/>
</g>
<rect x="274.5" y="136.5" width="73" height="23" rx="3.5" fill="#102B2A"/>
<rect x="274.5" y="136.5" width="73" height="23" rx="3.5" stroke="#30C9B0"/>
<path d="M289.6 152.1C289.534 152.1 289.469 152.087 289.408 152.062C289.347 152.037 289.292 151.999 289.246 151.953L285.646 148.335C285.599 148.288 285.563 148.233 285.538 148.172C285.513 148.112 285.5 148.047 285.5 147.981C285.5 147.915 285.514 147.85 285.539 147.79C285.564 147.729 285.601 147.674 285.648 147.628C285.694 147.582 285.749 147.545 285.81 147.52C285.871 147.495 285.936 147.482 286.002 147.482C286.067 147.483 286.132 147.496 286.193 147.521C286.253 147.546 286.308 147.583 286.355 147.63L289.627 150.918L297.675 144.021C297.776 143.935 297.906 143.892 298.039 143.902C298.171 143.912 298.293 143.975 298.38 144.075C298.466 144.176 298.509 144.307 298.498 144.439C298.488 144.571 298.426 144.693 298.325 144.78L289.925 151.979C289.835 152.057 289.72 152.1 289.6 152.1Z" fill="white" fill-opacity="0.95"/>
<path d="M305.54 153V142.818H308.98C309.779 142.818 310.432 142.962 310.939 143.251C311.449 143.536 311.827 143.922 312.072 144.409C312.318 144.896 312.44 145.44 312.44 146.04C312.44 146.64 312.318 147.185 312.072 147.675C311.83 148.166 311.456 148.557 310.949 148.849C310.442 149.137 309.792 149.281 309 149.281H306.534V148.188H308.96C309.507 148.188 309.946 148.093 310.278 147.904C310.609 147.715 310.849 147.46 310.998 147.138C311.151 146.814 311.227 146.447 311.227 146.04C311.227 145.632 311.151 145.268 310.998 144.946C310.849 144.625 310.607 144.373 310.273 144.19C309.938 144.005 309.494 143.912 308.94 143.912H306.773V153H305.54ZM314.267 153V145.364H315.401V146.517H315.48C315.619 146.139 315.871 145.833 316.236 145.597C316.601 145.362 317.012 145.244 317.469 145.244C317.555 145.244 317.663 145.246 317.792 145.249C317.921 145.253 318.019 145.258 318.085 145.264V146.457C318.046 146.447 317.954 146.433 317.812 146.413C317.673 146.389 317.525 146.378 317.369 146.378C316.998 146.378 316.667 146.456 316.375 146.612C316.087 146.764 315.858 146.976 315.689 147.248C315.523 147.516 315.441 147.823 315.441 148.168V153H314.267ZM319.476 153V145.364H320.65V153H319.476ZM320.073 144.091C319.844 144.091 319.647 144.013 319.481 143.857C319.319 143.701 319.238 143.514 319.238 143.295C319.238 143.077 319.319 142.889 319.481 142.734C319.647 142.578 319.844 142.5 320.073 142.5C320.301 142.5 320.497 142.578 320.659 142.734C320.825 142.889 320.908 143.077 320.908 143.295C320.908 143.514 320.825 143.701 320.659 143.857C320.497 144.013 320.301 144.091 320.073 144.091ZM325.901 153.159C325.185 153.159 324.568 152.99 324.051 152.652C323.534 152.314 323.137 151.848 322.858 151.255C322.58 150.662 322.441 149.984 322.441 149.222C322.441 148.446 322.583 147.762 322.868 147.168C323.156 146.572 323.557 146.106 324.071 145.771C324.588 145.433 325.191 145.264 325.881 145.264C326.418 145.264 326.902 145.364 327.333 145.562C327.763 145.761 328.116 146.04 328.392 146.398C328.667 146.756 328.837 147.173 328.904 147.651H327.73C327.641 147.303 327.442 146.994 327.134 146.726C326.829 146.454 326.418 146.318 325.901 146.318C325.443 146.318 325.042 146.437 324.698 146.676C324.356 146.911 324.089 147.245 323.897 147.675C323.708 148.103 323.614 148.605 323.614 149.182C323.614 149.772 323.707 150.286 323.892 150.723C324.081 151.161 324.346 151.5 324.688 151.742C325.032 151.984 325.437 152.105 325.901 152.105C326.206 152.105 326.482 152.052 326.731 151.946C326.98 151.84 327.19 151.688 327.362 151.489C327.535 151.29 327.657 151.051 327.73 150.773H328.904C328.837 151.223 328.673 151.629 328.411 151.991C328.153 152.349 327.81 152.634 327.382 152.846C326.958 153.055 326.464 153.159 325.901 153.159ZM333.82 153.159C333.085 153.159 332.45 152.997 331.916 152.672C331.386 152.344 330.977 151.886 330.688 151.3C330.403 150.71 330.261 150.024 330.261 149.241C330.261 148.459 330.403 147.77 330.688 147.173C330.977 146.573 331.378 146.106 331.892 145.771C332.409 145.433 333.012 145.264 333.701 145.264C334.099 145.264 334.492 145.33 334.879 145.463C335.267 145.596 335.62 145.811 335.938 146.109C336.257 146.404 336.51 146.795 336.699 147.283C336.888 147.77 336.982 148.37 336.982 149.082V149.58H331.096V148.565H335.789C335.789 148.134 335.703 147.75 335.531 147.412C335.362 147.074 335.12 146.807 334.805 146.612C334.493 146.416 334.125 146.318 333.701 146.318C333.234 146.318 332.829 146.434 332.488 146.666C332.15 146.895 331.89 147.193 331.708 147.561C331.525 147.929 331.434 148.323 331.434 148.744V149.42C331.434 149.997 331.534 150.486 331.732 150.887C331.935 151.285 332.215 151.588 332.573 151.797C332.931 152.002 333.347 152.105 333.82 152.105C334.129 152.105 334.407 152.062 334.656 151.976C334.908 151.886 335.125 151.754 335.307 151.578C335.489 151.399 335.63 151.177 335.73 150.912L336.863 151.23C336.744 151.615 336.543 151.953 336.262 152.244C335.98 152.533 335.632 152.758 335.218 152.92C334.803 153.08 334.338 153.159 333.82 153.159Z" fill="white" fill-opacity="0.95"/>
<rect x="364.5" y="136.5" width="52" height="23" rx="3.5" fill="#102B2A"/>
<rect x="364.5" y="136.5" width="52" height="23" rx="3.5" stroke="#3CC29A"/>
<path d="M374.879 143.912V142.818H382.516V143.912H379.314V153H378.081V143.912H374.879ZM384.14 155.844C383.941 155.844 383.764 155.827 383.608 155.794C383.452 155.764 383.345 155.734 383.285 155.705L383.583 154.67C384.011 154.78 384.367 154.777 384.652 154.661C384.937 154.548 385.184 154.206 385.393 153.636L385.612 153.04L382.788 145.364H384.061L386.169 151.449H386.248L388.356 145.364L389.639 145.384L386.387 154.114C386.241 154.501 386.061 154.823 385.845 155.078C385.63 155.337 385.38 155.529 385.095 155.655C384.813 155.781 384.495 155.844 384.14 155.844ZM391.191 155.864V145.364H392.325V146.577H392.464C392.55 146.444 392.669 146.275 392.822 146.07C392.978 145.861 393.2 145.675 393.488 145.513C393.78 145.347 394.174 145.264 394.671 145.264C395.314 145.264 395.881 145.425 396.371 145.746C396.862 146.068 397.245 146.524 397.52 147.114C397.795 147.704 397.933 148.4 397.933 149.202C397.933 150.01 397.795 150.711 397.52 151.305C397.245 151.895 396.864 152.352 396.376 152.677C395.889 152.998 395.327 153.159 394.691 153.159C394.201 153.159 393.808 153.078 393.513 152.915C393.218 152.75 392.991 152.562 392.832 152.354C392.673 152.142 392.55 151.966 392.464 151.827H392.364V155.864H391.191ZM392.344 149.182C392.344 149.759 392.429 150.267 392.598 150.708C392.767 151.146 393.014 151.489 393.339 151.737C393.664 151.982 394.061 152.105 394.532 152.105C395.022 152.105 395.432 151.976 395.76 151.717C396.091 151.455 396.34 151.104 396.506 150.663C396.675 150.219 396.759 149.725 396.759 149.182C396.759 148.645 396.676 148.161 396.511 147.73C396.348 147.296 396.101 146.953 395.77 146.701C395.442 146.446 395.029 146.318 394.532 146.318C394.055 146.318 393.654 146.439 393.329 146.681C393.004 146.92 392.759 147.254 392.593 147.685C392.427 148.113 392.344 148.612 392.344 149.182ZM402.924 153.159C402.188 153.159 401.554 152.997 401.02 152.672C400.49 152.344 400.08 151.886 399.792 151.3C399.507 150.71 399.364 150.024 399.364 149.241C399.364 148.459 399.507 147.77 399.792 147.173C400.08 146.573 400.481 146.106 400.995 145.771C401.512 145.433 402.115 145.264 402.805 145.264C403.202 145.264 403.595 145.33 403.983 145.463C404.371 145.596 404.724 145.811 405.042 146.109C405.36 146.404 405.614 146.795 405.803 147.283C405.991 147.77 406.086 148.37 406.086 149.082V149.58H400.2V148.565H404.893C404.893 148.134 404.807 147.75 404.634 147.412C404.465 147.074 404.223 146.807 403.908 146.612C403.597 146.416 403.229 146.318 402.805 146.318C402.337 146.318 401.933 146.434 401.592 146.666C401.254 146.895 400.993 147.193 400.811 147.561C400.629 147.929 400.538 148.323 400.538 148.744V149.42C400.538 149.997 400.637 150.486 400.836 150.887C401.038 151.285 401.318 151.588 401.676 151.797C402.034 152.002 402.45 152.105 402.924 152.105C403.232 152.105 403.511 152.062 403.759 151.976C404.011 151.886 404.228 151.754 404.411 151.578C404.593 151.399 404.734 151.177 404.833 150.912L405.967 151.23C405.847 151.615 405.647 151.953 405.365 152.244C405.083 152.533 404.735 152.758 404.321 152.92C403.907 153.08 403.441 153.159 402.924 153.159Z" fill="white" fill-opacity="0.95"/>
<rect x="172" y="127" width="96" height="42" rx="5" stroke="#DA0087" stroke-width="2"/>
<rect x="174" y="129" width="92" height="38" rx="3" stroke="white" stroke-opacity="0.9" stroke-width="2"/>
<rect x="271" y="127" width="83" height="42" rx="5" stroke="#DA0087" stroke-width="2"/>
<rect x="273" y="129" width="79" height="38" rx="3" stroke="white" stroke-opacity="0.9" stroke-width="2"/>
<path d="M312 89V88" stroke="#DA0087"/>
<path d="M312 80L308 88H316L312 80Z" fill="#DA0087"/>
<rect x="249" y="81" width="126" height="28" rx="14" fill="#DA0087"/>
<path d="M268.773 92.2727C268.705 91.697 268.428 91.25 267.943 90.9318C267.458 90.6136 266.864 90.4545 266.159 90.4545C265.644 90.4545 265.193 90.5379 264.807 90.7045C264.424 90.8712 264.125 91.1004 263.909 91.392C263.697 91.6837 263.591 92.0152 263.591 92.3864C263.591 92.697 263.665 92.964 263.812 93.1875C263.964 93.4072 264.157 93.5909 264.392 93.7386C264.627 93.8826 264.873 94.0019 265.131 94.0966C265.388 94.1875 265.625 94.2614 265.841 94.3182L267.023 94.6364C267.326 94.7159 267.663 94.8258 268.034 94.9659C268.409 95.1061 268.767 95.2973 269.108 95.5398C269.453 95.7784 269.737 96.0852 269.96 96.4602C270.184 96.8352 270.295 97.2955 270.295 97.8409C270.295 98.4697 270.131 99.0379 269.801 99.5455C269.475 100.053 268.998 100.456 268.369 100.756C267.744 101.055 266.985 101.205 266.091 101.205C265.258 101.205 264.536 101.07 263.926 100.801C263.32 100.532 262.843 100.157 262.494 99.6761C262.15 99.1951 261.955 98.6364 261.909 98H263.364C263.402 98.4394 263.549 98.803 263.807 99.0909C264.068 99.375 264.398 99.5871 264.795 99.7273C265.197 99.8636 265.629 99.9318 266.091 99.9318C266.629 99.9318 267.112 99.8447 267.54 99.6705C267.968 99.4924 268.307 99.2462 268.557 98.9318C268.807 98.6136 268.932 98.2424 268.932 97.8182C268.932 97.4318 268.824 97.1174 268.608 96.875C268.392 96.6326 268.108 96.4356 267.756 96.2841C267.403 96.1326 267.023 96 266.614 95.8864L265.182 95.4773C264.273 95.2159 263.553 94.8428 263.023 94.358C262.492 93.8731 262.227 93.2386 262.227 92.4545C262.227 91.803 262.403 91.2348 262.756 90.75C263.112 90.2614 263.589 89.8826 264.188 89.6136C264.79 89.3409 265.462 89.2045 266.205 89.2045C266.955 89.2045 267.621 89.339 268.205 89.608C268.788 89.8731 269.25 90.2367 269.591 90.6989C269.936 91.161 270.117 91.6856 270.136 92.2727H268.773ZM272.43 104.273V92.2727H273.726V93.6591H273.885C273.983 93.5076 274.12 93.3144 274.294 93.0795C274.472 92.8409 274.726 92.6288 275.055 92.4432C275.389 92.2538 275.839 92.1591 276.408 92.1591C277.143 92.1591 277.79 92.3428 278.351 92.7102C278.911 93.0777 279.349 93.5985 279.663 94.2727C279.978 94.947 280.135 95.7424 280.135 96.6591C280.135 97.5833 279.978 98.3845 279.663 99.0625C279.349 99.7367 278.913 100.259 278.357 100.631C277.8 100.998 277.158 101.182 276.43 101.182C275.87 101.182 275.421 101.089 275.084 100.903C274.747 100.714 274.487 100.5 274.305 100.261C274.124 100.019 273.983 99.8182 273.885 99.6591H273.771V104.273H272.43ZM273.749 96.6364C273.749 97.2955 273.845 97.8769 274.038 98.3807C274.232 98.8807 274.514 99.2727 274.885 99.5568C275.256 99.8371 275.711 99.9773 276.249 99.9773C276.809 99.9773 277.277 99.8295 277.652 99.5341C278.031 99.2348 278.315 98.8333 278.504 98.3295C278.697 97.822 278.794 97.2576 278.794 96.6364C278.794 96.0227 278.699 95.4697 278.51 94.9773C278.324 94.4811 278.042 94.089 277.663 93.8011C277.288 93.5095 276.817 93.3636 276.249 93.3636C275.703 93.3636 275.245 93.5019 274.874 93.7784C274.502 94.0511 274.222 94.4337 274.033 94.9261C273.843 95.4148 273.749 95.9848 273.749 96.6364ZM284.749 101.205C284.196 101.205 283.694 101.1 283.243 100.892C282.792 100.68 282.434 100.375 282.169 99.9773C281.904 99.5758 281.771 99.0909 281.771 98.5227C281.771 98.0227 281.87 97.6174 282.067 97.3068C282.264 96.9924 282.527 96.7462 282.857 96.5682C283.186 96.3902 283.55 96.2576 283.947 96.1705C284.349 96.0795 284.752 96.0076 285.158 95.9545C285.688 95.8864 286.118 95.8352 286.447 95.8011C286.781 95.7633 287.023 95.7008 287.175 95.6136C287.33 95.5265 287.408 95.375 287.408 95.1591V95.1136C287.408 94.553 287.254 94.1174 286.947 93.8068C286.644 93.4962 286.184 93.3409 285.567 93.3409C284.927 93.3409 284.425 93.4811 284.061 93.7614C283.697 94.0417 283.442 94.3409 283.294 94.6591L282.021 94.2045C282.249 93.6742 282.552 93.2614 282.93 92.9659C283.313 92.6667 283.73 92.4583 284.18 92.3409C284.635 92.2197 285.082 92.1591 285.521 92.1591C285.802 92.1591 286.124 92.1932 286.487 92.2614C286.855 92.3258 287.209 92.4602 287.55 92.6648C287.894 92.8693 288.18 93.178 288.408 93.5909C288.635 94.0038 288.749 94.5568 288.749 95.25V101H287.408V99.8182H287.339C287.249 100.008 287.097 100.21 286.885 100.426C286.673 100.642 286.391 100.826 286.038 100.977C285.686 101.129 285.256 101.205 284.749 101.205ZM284.953 100C285.483 100 285.93 99.8958 286.294 99.6875C286.661 99.4792 286.938 99.2102 287.124 98.8807C287.313 98.5511 287.408 98.2045 287.408 97.8409V96.6136C287.351 96.6818 287.226 96.7443 287.033 96.8011C286.843 96.8542 286.624 96.9015 286.374 96.9432C286.127 96.9811 285.887 97.0152 285.652 97.0455C285.421 97.072 285.233 97.0947 285.089 97.1136C284.741 97.1591 284.415 97.233 284.112 97.3352C283.813 97.4337 283.571 97.5833 283.385 97.7841C283.203 97.9811 283.112 98.25 283.112 98.5909C283.112 99.0568 283.285 99.4091 283.629 99.6477C283.978 99.8826 284.419 100 284.953 100ZM294.741 101.182C293.923 101.182 293.219 100.989 292.628 100.602C292.037 100.216 291.582 99.6837 291.264 99.0057C290.946 98.3277 290.787 97.553 290.787 96.6818C290.787 95.7955 290.95 95.0133 291.276 94.3352C291.605 93.6534 292.063 93.1212 292.651 92.7386C293.241 92.3523 293.931 92.1591 294.719 92.1591C295.332 92.1591 295.885 92.2727 296.378 92.5C296.87 92.7273 297.274 93.0455 297.588 93.4545C297.902 93.8636 298.098 94.3409 298.173 94.8864H296.832C296.73 94.4886 296.503 94.1364 296.151 93.8295C295.802 93.5189 295.332 93.3636 294.741 93.3636C294.219 93.3636 293.76 93.5 293.366 93.7727C292.976 94.0417 292.671 94.4223 292.452 94.9148C292.236 95.4034 292.128 95.9773 292.128 96.6364C292.128 97.3106 292.234 97.8977 292.446 98.3977C292.662 98.8977 292.965 99.286 293.355 99.5625C293.749 99.839 294.211 99.9773 294.741 99.9773C295.09 99.9773 295.406 99.9167 295.69 99.7955C295.974 99.6742 296.215 99.5 296.412 99.2727C296.609 99.0455 296.749 98.7727 296.832 98.4545H298.173C298.098 98.9697 297.91 99.4337 297.611 99.8466C297.315 100.256 296.923 100.581 296.435 100.824C295.95 101.062 295.385 101.182 294.741 101.182ZM303.793 101.182C302.952 101.182 302.226 100.996 301.616 100.625C301.01 100.25 300.543 99.7273 300.213 99.0568C299.887 98.3826 299.724 97.5985 299.724 96.7045C299.724 95.8106 299.887 95.0227 300.213 94.3409C300.543 93.6553 301.001 93.1212 301.588 92.7386C302.179 92.3523 302.868 92.1591 303.656 92.1591C304.111 92.1591 304.56 92.2348 305.003 92.3864C305.446 92.5379 305.849 92.7841 306.213 93.125C306.577 93.4621 306.866 93.9091 307.082 94.4659C307.298 95.0227 307.406 95.7083 307.406 96.5227V97.0909H300.679V95.9318H306.043C306.043 95.4394 305.944 95 305.747 94.6136C305.554 94.2273 305.277 93.9223 304.918 93.6989C304.562 93.4754 304.141 93.3636 303.656 93.3636C303.122 93.3636 302.66 93.4962 302.27 93.7614C301.884 94.0227 301.586 94.3636 301.378 94.7841C301.17 95.2045 301.065 95.6553 301.065 96.1364V96.9091C301.065 97.5682 301.179 98.1269 301.406 98.5852C301.637 99.0398 301.957 99.3864 302.366 99.625C302.776 99.8598 303.251 99.9773 303.793 99.9773C304.145 99.9773 304.463 99.928 304.747 99.8295C305.035 99.7273 305.283 99.5758 305.491 99.375C305.7 99.1705 305.861 98.9167 305.974 98.6136L307.27 98.9773C307.134 99.4167 306.904 99.803 306.582 100.136C306.26 100.466 305.863 100.723 305.389 100.909C304.916 101.091 304.384 101.182 303.793 101.182ZM318.06 88.8182L314.31 102.75H313.082L316.832 88.8182H318.06ZM324.331 101V89.3636H331.354V90.6136H325.74V94.5455H330.99V95.7955H325.74V99.75H331.445V101H324.331ZM335.053 95.75V101H333.712V92.2727H335.007V93.6364H335.121C335.325 93.1932 335.636 92.8371 336.053 92.5682C336.469 92.2955 337.007 92.1591 337.666 92.1591C338.257 92.1591 338.774 92.2803 339.217 92.5227C339.661 92.7614 340.005 93.125 340.251 93.6136C340.498 94.0985 340.621 94.7121 340.621 95.4545V101H339.28V95.5455C339.28 94.8598 339.102 94.3258 338.746 93.9432C338.39 93.5568 337.901 93.3636 337.28 93.3636C336.852 93.3636 336.469 93.4564 336.132 93.642C335.799 93.8277 335.536 94.0985 335.342 94.4545C335.149 94.8106 335.053 95.2424 335.053 95.75ZM346.866 92.2727V93.4091H342.344V92.2727H346.866ZM343.662 90.1818H345.003V98.5C345.003 98.8788 345.058 99.1629 345.168 99.3523C345.281 99.5379 345.425 99.6629 345.599 99.7273C345.777 99.7879 345.965 99.8182 346.162 99.8182C346.31 99.8182 346.431 99.8106 346.526 99.7955C346.62 99.7765 346.696 99.7614 346.753 99.75L347.026 100.955C346.935 100.989 346.808 101.023 346.645 101.057C346.482 101.095 346.276 101.114 346.026 101.114C345.647 101.114 345.276 101.032 344.912 100.869C344.552 100.706 344.253 100.458 344.014 100.125C343.779 99.7917 343.662 99.3712 343.662 98.8636V90.1818ZM352.449 101.182C351.608 101.182 350.883 100.996 350.273 100.625C349.667 100.25 349.199 99.7273 348.869 99.0568C348.544 98.3826 348.381 97.5985 348.381 96.7045C348.381 95.8106 348.544 95.0227 348.869 94.3409C349.199 93.6553 349.657 93.1212 350.244 92.7386C350.835 92.3523 351.525 92.1591 352.312 92.1591C352.767 92.1591 353.216 92.2348 353.659 92.3864C354.102 92.5379 354.506 92.7841 354.869 93.125C355.233 93.4621 355.523 93.9091 355.739 94.4659C355.955 95.0227 356.062 95.7083 356.062 96.5227V97.0909H349.335V95.9318H354.699C354.699 95.4394 354.6 95 354.403 94.6136C354.21 94.2273 353.934 93.9223 353.574 93.6989C353.218 93.4754 352.797 93.3636 352.312 93.3636C351.778 93.3636 351.316 93.4962 350.926 93.7614C350.54 94.0227 350.242 94.3636 350.034 94.7841C349.826 95.2045 349.722 95.6553 349.722 96.1364V96.9091C349.722 97.5682 349.835 98.1269 350.062 98.5852C350.294 99.0398 350.614 99.3864 351.023 99.625C351.432 99.8598 351.907 99.9773 352.449 99.9773C352.801 99.9773 353.119 99.928 353.403 99.8295C353.691 99.7273 353.939 99.5758 354.148 99.375C354.356 99.1705 354.517 98.9167 354.631 98.6136L355.926 98.9773C355.79 99.4167 355.561 99.803 355.239 100.136C354.917 100.466 354.519 100.723 354.045 100.909C353.572 101.091 353.04 101.182 352.449 101.182ZM358.102 101V92.2727H359.398V93.5909H359.489C359.648 93.1591 359.936 92.8087 360.352 92.5398C360.769 92.2708 361.239 92.1364 361.761 92.1364C361.86 92.1364 361.983 92.1383 362.131 92.142C362.278 92.1458 362.39 92.1515 362.466 92.1591V93.5227C362.42 93.5114 362.316 93.4943 362.153 93.4716C361.994 93.4451 361.826 93.4318 361.648 93.4318C361.223 93.4318 360.845 93.5208 360.511 93.6989C360.182 93.8731 359.92 94.1155 359.727 94.4261C359.538 94.733 359.443 95.0833 359.443 95.4773V101H358.102Z" fill="white"/>
<defs>
<filter id="filter0_ddd_1854_13384" x="176" y="131" width="87" height="34" filterUnits="userSpaceOnUse" color-interpolation-filters="sRGB">
<feFlood flood-opacity="0" result="BackgroundImageFix"/>
<feColorMatrix in="SourceAlpha" type="matrix" values="0 0 0 0 0 0 0 0 0 0 0 0 0 0 0 0 0 0 127 0" result="hardAlpha"/>
<feMorphology radius="4" operator="dilate" in="SourceAlpha" result="effect1_dropShadow_1854_13384"/>
<feOffset/>
<feComposite in2="hardAlpha" operator="out"/>
<feColorMatrix type="matrix" values="0 0 0 0 0.392157 0 0 0 0 0.705882 0 0 0 0 0.980392 0 0 0 1 0"/>
<feBlend mode="normal" in2="BackgroundImageFix" result="effect1_dropShadow_1854_13384"/>
<feColorMatrix in="SourceAlpha" type="matrix" values="0 0 0 0 0 0 0 0 0 0 0 0 0 0 0 0 0 0 127 0" result="hardAlpha"/>
<feMorphology radius="5" operator="dilate" in="SourceAlpha" result="effect2_dropShadow_1854_13384"/>
<feOffset/>
<feComposite in2="hardAlpha" operator="out"/>
<feColorMatrix type="matrix" values="0 0 0 0 0.392157 0 0 0 0 0.705882 0 0 0 0 0.980392 0 0 0 0.3 0"/>
<feBlend mode="normal" in2="effect1_dropShadow_1854_13384" result="effect2_dropShadow_1854_13384"/>
<feColorMatrix in="SourceAlpha" type="matrix" values="0 0 0 0 0 0 0 0 0 0 0 0 0 0 0 0 0 0 127 0" result="hardAlpha"/>
<feMorphology radius="2" operator="dilate" in="SourceAlpha" result="effect3_dropShadow_1854_13384"/>
<feOffset/>
<feComposite in2="hardAlpha" operator="out"/>
<feColorMatrix type="matrix" values="0 0 0 0 0 0 0 0 0 0 0 0 0 0 0 0 0 0 1 0"/>
<feBlend mode="normal" in2="effect2_dropShadow_1854_13384" result="effect3_dropShadow_1854_13384"/>
<feBlend mode="normal" in="SourceGraphic" in2="effect3_dropShadow_1854_13384" result="shape"/>
</filter>
</defs>
</svg>
