<svg width="559" height="248" viewBox="0 0 559 248" fill="none" xmlns="http://www.w3.org/2000/svg">
<rect width="559" height="248" rx="20" fill="#1A1A1A"/>
<path d="M202.011 106V94.3636H209.716V96.392H204.472V99.1648H209.205V101.193H204.472V106H202.011ZM211.325 106V97.2727H213.746V106H211.325ZM212.547 96.1477C212.187 96.1477 211.878 96.0284 211.621 95.7898C211.363 95.5473 211.234 95.2576 211.234 94.9205C211.234 94.5871 211.363 94.3011 211.621 94.0625C211.878 93.8201 212.185 93.6989 212.541 93.6989C212.905 93.6989 213.214 93.8201 213.467 94.0625C213.725 94.3011 213.854 94.5871 213.854 94.9205C213.854 95.2576 213.725 95.5473 213.467 95.7898C213.214 96.0284 212.907 96.1477 212.547 96.1477ZM218.105 94.3636V106H215.685V94.3636H218.105ZM224.686 97.2727V99.0909H219.43V97.2727H224.686ZM220.624 95.1818H223.044V103.318C223.044 103.542 223.078 103.716 223.146 103.841C223.214 103.962 223.309 104.047 223.43 104.097C223.555 104.146 223.699 104.17 223.862 104.17C223.976 104.17 224.089 104.161 224.203 104.142C224.317 104.119 224.404 104.102 224.464 104.091L224.845 105.892C224.724 105.93 224.554 105.973 224.334 106.023C224.114 106.076 223.847 106.108 223.533 106.119C222.949 106.142 222.438 106.064 221.999 105.886C221.563 105.708 221.224 105.432 220.982 105.057C220.739 104.682 220.62 104.208 220.624 103.636V95.1818ZM230.146 106.17C229.249 106.17 228.476 105.989 227.828 105.625C227.184 105.258 226.688 104.739 226.339 104.068C225.991 103.394 225.817 102.597 225.817 101.676C225.817 100.778 225.991 99.9905 226.339 99.3125C226.688 98.6345 227.179 98.1061 227.811 97.7273C228.447 97.3485 229.194 97.1591 230.05 97.1591C230.625 97.1591 231.161 97.2519 231.658 97.4375C232.158 97.6193 232.593 97.8939 232.964 98.2614C233.339 98.6288 233.631 99.0909 233.839 99.6477C234.048 100.201 234.152 100.848 234.152 101.591V102.256H226.783V100.756H231.874C231.874 100.407 231.798 100.098 231.646 99.8295C231.495 99.5606 231.285 99.3504 231.016 99.1989C230.75 99.0436 230.442 98.9659 230.089 98.9659C229.722 98.9659 229.396 99.0511 229.112 99.2216C228.832 99.3883 228.612 99.6136 228.453 99.8977C228.294 100.178 228.213 100.491 228.209 100.835V102.261C228.209 102.693 228.288 103.066 228.447 103.381C228.61 103.695 228.839 103.938 229.135 104.108C229.43 104.278 229.781 104.364 230.186 104.364C230.455 104.364 230.701 104.326 230.925 104.25C231.148 104.174 231.339 104.061 231.499 103.909C231.658 103.758 231.779 103.572 231.862 103.352L234.101 103.5C233.987 104.038 233.754 104.508 233.402 104.909C233.054 105.307 232.603 105.617 232.05 105.841C231.5 106.061 230.866 106.17 230.146 106.17ZM235.732 106V97.2727H238.078V98.7955H238.169C238.328 98.2538 238.595 97.8447 238.97 97.5682C239.345 97.2879 239.777 97.1477 240.266 97.1477C240.387 97.1477 240.518 97.1553 240.658 97.1705C240.798 97.1856 240.921 97.2064 241.027 97.233V99.3807C240.913 99.3466 240.756 99.3163 240.555 99.2898C240.355 99.2633 240.171 99.25 240.004 99.25C239.648 99.25 239.33 99.3277 239.05 99.483C238.773 99.6345 238.554 99.8466 238.391 100.119C238.232 100.392 238.152 100.706 238.152 101.062V106H235.732ZM249.54 99.7614L247.324 99.8977C247.286 99.7083 247.205 99.5379 247.08 99.3864C246.955 99.2311 246.79 99.108 246.585 99.017C246.384 98.9223 246.144 98.875 245.864 98.875C245.489 98.875 245.172 98.9545 244.915 99.1136C244.657 99.2689 244.528 99.4773 244.528 99.7386C244.528 99.947 244.612 100.123 244.778 100.267C244.945 100.411 245.231 100.527 245.636 100.614L247.216 100.932C248.064 101.106 248.697 101.386 249.114 101.773C249.53 102.159 249.739 102.667 249.739 103.295C249.739 103.867 249.57 104.369 249.233 104.801C248.9 105.233 248.441 105.57 247.858 105.812C247.278 106.051 246.61 106.17 245.852 106.17C244.697 106.17 243.777 105.93 243.091 105.449C242.409 104.964 242.009 104.305 241.892 103.472L244.273 103.347C244.345 103.699 244.519 103.968 244.795 104.153C245.072 104.335 245.426 104.426 245.858 104.426C246.282 104.426 246.623 104.345 246.881 104.182C247.142 104.015 247.275 103.801 247.278 103.54C247.275 103.32 247.182 103.14 247 103C246.818 102.856 246.538 102.746 246.159 102.67L244.648 102.369C243.795 102.199 243.161 101.903 242.744 101.483C242.331 101.062 242.125 100.527 242.125 99.875C242.125 99.3144 242.277 98.8314 242.58 98.4261C242.886 98.0208 243.316 97.7083 243.869 97.4886C244.426 97.2689 245.078 97.1591 245.824 97.1591C246.926 97.1591 247.794 97.392 248.426 97.858C249.063 98.3239 249.434 98.9583 249.54 99.7614Z" fill="white" fill-opacity="0.95"/>
<g filter="url(#filter0_ddd_1854_13335)">
<rect x="201" y="136" width="77" height="24" rx="4" fill="#102B2A"/>
<rect x="201.5" y="136.5" width="76" height="23" rx="3.5" stroke="#3CC29A"/>
<path d="M212.289 153V142.818H213.522V151.906H218.255V153H212.289ZM223.107 153.159C222.417 153.159 221.813 152.995 221.292 152.667C220.775 152.339 220.371 151.88 220.079 151.29C219.791 150.7 219.647 150.01 219.647 149.222C219.647 148.426 219.791 147.732 220.079 147.138C220.371 146.545 220.775 146.085 221.292 145.756C221.813 145.428 222.417 145.264 223.107 145.264C223.796 145.264 224.399 145.428 224.916 145.756C225.437 146.085 225.841 146.545 226.13 147.138C226.421 147.732 226.567 148.426 226.567 149.222C226.567 150.01 226.421 150.7 226.13 151.29C225.841 151.88 225.437 152.339 224.916 152.667C224.399 152.995 223.796 153.159 223.107 153.159ZM223.107 152.105C223.63 152.105 224.061 151.971 224.399 151.702C224.737 151.434 224.988 151.081 225.15 150.643C225.313 150.206 225.394 149.732 225.394 149.222C225.394 148.711 225.313 148.236 225.15 147.795C224.988 147.354 224.737 146.998 224.399 146.726C224.061 146.454 223.63 146.318 223.107 146.318C222.583 146.318 222.152 146.454 221.814 146.726C221.476 146.998 221.226 147.354 221.063 147.795C220.901 148.236 220.82 148.711 220.82 149.222C220.82 149.732 220.901 150.206 221.063 150.643C221.226 151.081 221.476 151.434 221.814 151.702C222.152 151.971 222.583 152.105 223.107 152.105ZM231.46 153.159C230.744 153.159 230.128 152.99 229.611 152.652C229.094 152.314 228.696 151.848 228.418 151.255C228.139 150.662 228 149.984 228 149.222C228 148.446 228.143 147.762 228.428 147.168C228.716 146.572 229.117 146.106 229.631 145.771C230.148 145.433 230.751 145.264 231.44 145.264C231.977 145.264 232.461 145.364 232.892 145.562C233.323 145.761 233.676 146.04 233.951 146.398C234.226 146.756 234.397 147.173 234.463 147.651H233.29C233.2 147.303 233.002 146.994 232.693 146.726C232.388 146.454 231.977 146.318 231.46 146.318C231.003 146.318 230.602 146.437 230.257 146.676C229.916 146.911 229.649 147.245 229.457 147.675C229.268 148.103 229.173 148.605 229.173 149.182C229.173 149.772 229.266 150.286 229.452 150.723C229.641 151.161 229.906 151.5 230.247 151.742C230.592 151.984 230.996 152.105 231.46 152.105C231.765 152.105 232.042 152.052 232.291 151.946C232.539 151.84 232.75 151.688 232.922 151.489C233.094 151.29 233.217 151.051 233.29 150.773H234.463C234.397 151.223 234.233 151.629 233.971 151.991C233.712 152.349 233.369 152.634 232.942 152.846C232.518 153.055 232.024 153.159 231.46 153.159ZM238.426 153.179C237.942 153.179 237.502 153.088 237.108 152.906C236.714 152.72 236.4 152.453 236.168 152.105C235.936 151.754 235.82 151.33 235.82 150.832C235.82 150.395 235.907 150.04 236.079 149.768C236.251 149.493 236.482 149.278 236.77 149.122C237.058 148.966 237.377 148.85 237.725 148.774C238.076 148.695 238.429 148.632 238.783 148.585C239.247 148.526 239.624 148.481 239.912 148.451C240.204 148.418 240.416 148.363 240.548 148.287C240.684 148.211 240.752 148.078 240.752 147.889V147.849C240.752 147.359 240.618 146.978 240.35 146.706C240.084 146.434 239.682 146.298 239.141 146.298C238.581 146.298 238.142 146.421 237.824 146.666C237.506 146.911 237.282 147.173 237.153 147.452L236.039 147.054C236.238 146.59 236.503 146.229 236.835 145.97C237.169 145.708 237.534 145.526 237.928 145.423C238.326 145.317 238.717 145.264 239.102 145.264C239.347 145.264 239.629 145.294 239.947 145.354C240.268 145.41 240.578 145.528 240.877 145.707C241.178 145.886 241.428 146.156 241.627 146.517C241.826 146.878 241.926 147.362 241.926 147.969V153H240.752V151.966H240.693C240.613 152.132 240.48 152.309 240.295 152.498C240.109 152.687 239.862 152.848 239.554 152.98C239.246 153.113 238.87 153.179 238.426 153.179ZM238.604 152.125C239.069 152.125 239.46 152.034 239.778 151.852C240.099 151.669 240.341 151.434 240.504 151.146C240.669 150.857 240.752 150.554 240.752 150.236V149.162C240.703 149.222 240.593 149.276 240.424 149.326C240.258 149.372 240.066 149.414 239.847 149.45C239.632 149.483 239.421 149.513 239.216 149.54C239.014 149.563 238.85 149.583 238.724 149.599C238.419 149.639 238.134 149.704 237.869 149.793C237.607 149.879 237.395 150.01 237.232 150.186C237.073 150.358 236.994 150.594 236.994 150.892C236.994 151.3 237.145 151.608 237.446 151.817C237.751 152.022 238.137 152.125 238.604 152.125ZM247.388 145.364V146.358H243.431V145.364H247.388ZM244.584 143.534H245.757V150.812C245.757 151.144 245.805 151.393 245.902 151.558C246.001 151.721 246.127 151.83 246.279 151.886C246.435 151.939 246.599 151.966 246.772 151.966C246.901 151.966 247.007 151.959 247.09 151.946C247.173 151.929 247.239 151.916 247.289 151.906L247.527 152.96C247.448 152.99 247.337 153.02 247.194 153.05C247.052 153.083 246.871 153.099 246.652 153.099C246.321 153.099 245.996 153.028 245.678 152.886C245.363 152.743 245.101 152.526 244.892 152.234C244.687 151.943 244.584 151.575 244.584 151.131V143.534ZM249.153 153V145.364H250.326V153H249.153ZM249.75 144.091C249.521 144.091 249.324 144.013 249.158 143.857C248.996 143.701 248.914 143.514 248.914 143.295C248.914 143.077 248.996 142.889 249.158 142.734C249.324 142.578 249.521 142.5 249.75 142.5C249.978 142.5 250.174 142.578 250.336 142.734C250.502 142.889 250.585 143.077 250.585 143.295C250.585 143.514 250.502 143.701 250.336 143.857C250.174 144.013 249.978 144.091 249.75 144.091ZM255.578 153.159C254.888 153.159 254.283 152.995 253.763 152.667C253.246 152.339 252.841 151.88 252.55 151.29C252.261 150.7 252.117 150.01 252.117 149.222C252.117 148.426 252.261 147.732 252.55 147.138C252.841 146.545 253.246 146.085 253.763 145.756C254.283 145.428 254.888 145.264 255.578 145.264C256.267 145.264 256.87 145.428 257.387 145.756C257.908 146.085 258.312 146.545 258.6 147.138C258.892 147.732 259.038 148.426 259.038 149.222C259.038 150.01 258.892 150.7 258.6 151.29C258.312 151.88 257.908 152.339 257.387 152.667C256.87 152.995 256.267 153.159 255.578 153.159ZM255.578 152.105C256.101 152.105 256.532 151.971 256.87 151.702C257.208 151.434 257.458 151.081 257.621 150.643C257.783 150.206 257.864 149.732 257.864 149.222C257.864 148.711 257.783 148.236 257.621 147.795C257.458 147.354 257.208 146.998 256.87 146.726C256.532 146.454 256.101 146.318 255.578 146.318C255.054 146.318 254.623 146.454 254.285 146.726C253.947 146.998 253.697 147.354 253.534 147.795C253.372 148.236 253.291 148.711 253.291 149.222C253.291 149.732 253.372 150.206 253.534 150.643C253.697 151.081 253.947 151.434 254.285 151.702C254.623 151.971 255.054 152.105 255.578 152.105ZM262.002 148.406V153H260.829V145.364H261.962V146.557H262.062C262.241 146.169 262.512 145.857 262.877 145.622C263.242 145.384 263.712 145.264 264.289 145.264C264.806 145.264 265.258 145.37 265.646 145.582C266.034 145.791 266.336 146.109 266.551 146.537C266.766 146.961 266.874 147.498 266.874 148.148V153H265.701V148.227C265.701 147.627 265.545 147.16 265.234 146.825C264.922 146.487 264.494 146.318 263.951 146.318C263.576 146.318 263.242 146.399 262.947 146.562C262.655 146.724 262.425 146.961 262.256 147.273C262.087 147.584 262.002 147.962 262.002 148.406Z" fill="white" fill-opacity="0.95"/>
</g>
<rect x="294.5" y="136.5" width="53" height="23" rx="3.5" fill="#102B2A"/>
<rect x="294.5" y="136.5" width="53" height="23" rx="3.5" stroke="#3CC29A"/>
<path d="M305.54 153V142.818H308.98C309.779 142.818 310.432 142.962 310.939 143.251C311.449 143.536 311.827 143.922 312.072 144.409C312.318 144.896 312.44 145.44 312.44 146.04C312.44 146.64 312.318 147.185 312.072 147.675C311.83 148.166 311.456 148.557 310.949 148.849C310.442 149.137 309.792 149.281 309 149.281H306.534V148.188H308.96C309.507 148.188 309.946 148.093 310.278 147.904C310.609 147.715 310.849 147.46 310.998 147.138C311.151 146.814 311.227 146.447 311.227 146.04C311.227 145.632 311.151 145.268 310.998 144.946C310.849 144.625 310.607 144.373 310.273 144.19C309.938 144.005 309.494 143.912 308.94 143.912H306.773V153H305.54ZM314.267 153V145.364H315.401V146.517H315.48C315.619 146.139 315.871 145.833 316.236 145.597C316.601 145.362 317.012 145.244 317.469 145.244C317.555 145.244 317.663 145.246 317.792 145.249C317.921 145.253 318.019 145.258 318.085 145.264V146.457C318.046 146.447 317.954 146.433 317.812 146.413C317.673 146.389 317.525 146.378 317.369 146.378C316.998 146.378 316.667 146.456 316.375 146.612C316.087 146.764 315.858 146.976 315.689 147.248C315.523 147.516 315.441 147.823 315.441 148.168V153H314.267ZM319.476 153V145.364H320.65V153H319.476ZM320.073 144.091C319.844 144.091 319.647 144.013 319.481 143.857C319.319 143.701 319.238 143.514 319.238 143.295C319.238 143.077 319.319 142.889 319.481 142.734C319.647 142.578 319.844 142.5 320.073 142.5C320.301 142.5 320.497 142.578 320.659 142.734C320.825 142.889 320.908 143.077 320.908 143.295C320.908 143.514 320.825 143.701 320.659 143.857C320.497 144.013 320.301 144.091 320.073 144.091ZM325.901 153.159C325.185 153.159 324.568 152.99 324.051 152.652C323.534 152.314 323.137 151.848 322.858 151.255C322.58 150.662 322.441 149.984 322.441 149.222C322.441 148.446 322.583 147.762 322.868 147.168C323.156 146.572 323.557 146.106 324.071 145.771C324.588 145.433 325.191 145.264 325.881 145.264C326.418 145.264 326.902 145.364 327.333 145.562C327.763 145.761 328.116 146.04 328.392 146.398C328.667 146.756 328.837 147.173 328.904 147.651H327.73C327.641 147.303 327.442 146.994 327.134 146.726C326.829 146.454 326.418 146.318 325.901 146.318C325.443 146.318 325.042 146.437 324.698 146.676C324.356 146.911 324.089 147.245 323.897 147.675C323.708 148.103 323.614 148.605 323.614 149.182C323.614 149.772 323.707 150.286 323.892 150.723C324.081 151.161 324.346 151.5 324.688 151.742C325.032 151.984 325.437 152.105 325.901 152.105C326.206 152.105 326.482 152.052 326.731 151.946C326.98 151.84 327.19 151.688 327.362 151.489C327.535 151.29 327.657 151.051 327.73 150.773H328.904C328.837 151.223 328.673 151.629 328.411 151.991C328.153 152.349 327.81 152.634 327.382 152.846C326.958 153.055 326.464 153.159 325.901 153.159ZM333.82 153.159C333.085 153.159 332.45 152.997 331.916 152.672C331.386 152.344 330.977 151.886 330.688 151.3C330.403 150.71 330.261 150.024 330.261 149.241C330.261 148.459 330.403 147.77 330.688 147.173C330.977 146.573 331.378 146.106 331.892 145.771C332.409 145.433 333.012 145.264 333.701 145.264C334.099 145.264 334.492 145.33 334.879 145.463C335.267 145.596 335.62 145.811 335.938 146.109C336.257 146.404 336.51 146.795 336.699 147.283C336.888 147.77 336.982 148.37 336.982 149.082V149.58H331.096V148.565H335.789C335.789 148.134 335.703 147.75 335.531 147.412C335.362 147.074 335.12 146.807 334.805 146.612C334.493 146.416 334.125 146.318 333.701 146.318C333.234 146.318 332.829 146.434 332.488 146.666C332.15 146.895 331.89 147.193 331.708 147.561C331.525 147.929 331.434 148.323 331.434 148.744V149.42C331.434 149.997 331.534 150.486 331.732 150.887C331.935 151.285 332.215 151.588 332.573 151.797C332.931 152.002 333.347 152.105 333.82 152.105C334.129 152.105 334.407 152.062 334.656 151.976C334.908 151.886 335.125 151.754 335.307 151.578C335.489 151.399 335.63 151.177 335.73 150.912L336.863 151.23C336.744 151.615 336.543 151.953 336.262 152.244C335.98 152.533 335.632 152.758 335.218 152.92C334.803 153.08 334.338 153.159 333.82 153.159Z" fill="white" fill-opacity="0.95"/>
<rect x="364.5" y="136.5" width="52" height="23" rx="3.5" fill="#102B2A"/>
<rect x="364.5" y="136.5" width="52" height="23" rx="3.5" stroke="#3CC29A"/>
<path d="M374.886 143.912V142.818H382.522V143.912H379.321V153H378.088V143.912H374.886ZM384.147 155.864C383.948 155.864 383.771 155.847 383.615 155.814C383.459 155.784 383.351 155.754 383.292 155.724L383.59 154.69C383.875 154.763 384.127 154.79 384.346 154.77C384.565 154.75 384.758 154.652 384.927 154.477C385.1 154.304 385.257 154.024 385.4 153.636L385.619 153.04L382.795 145.364H384.067L386.175 151.449H386.255L388.363 145.364H389.636L386.394 154.114C386.248 154.508 386.068 154.835 385.852 155.093C385.637 155.355 385.387 155.549 385.101 155.675C384.82 155.801 384.502 155.864 384.147 155.864ZM391.184 155.864V145.364H392.318V146.577H392.457C392.543 146.444 392.662 146.275 392.815 146.07C392.971 145.861 393.193 145.675 393.481 145.513C393.773 145.347 394.167 145.264 394.664 145.264C395.307 145.264 395.874 145.425 396.365 145.746C396.855 146.068 397.238 146.524 397.513 147.114C397.788 147.704 397.926 148.4 397.926 149.202C397.926 150.01 397.788 150.711 397.513 151.305C397.238 151.895 396.857 152.352 396.37 152.677C395.882 152.998 395.321 153.159 394.684 153.159C394.194 153.159 393.801 153.078 393.506 152.915C393.211 152.75 392.984 152.562 392.825 152.354C392.666 152.142 392.543 151.966 392.457 151.827H392.358V155.864H391.184ZM392.338 149.182C392.338 149.759 392.422 150.267 392.591 150.708C392.76 151.146 393.007 151.489 393.332 151.737C393.657 151.982 394.054 152.105 394.525 152.105C395.016 152.105 395.425 151.976 395.753 151.717C396.085 151.455 396.333 151.104 396.499 150.663C396.668 150.219 396.752 149.725 396.752 149.182C396.752 148.645 396.67 148.161 396.504 147.73C396.341 147.296 396.094 146.953 395.763 146.701C395.435 146.446 395.022 146.318 394.525 146.318C394.048 146.318 393.647 146.439 393.322 146.681C392.997 146.92 392.752 147.254 392.586 147.685C392.42 148.113 392.338 148.612 392.338 149.182ZM402.917 153.159C402.181 153.159 401.547 152.997 401.013 152.672C400.483 152.344 400.073 151.886 399.785 151.3C399.5 150.71 399.358 150.024 399.358 149.241C399.358 148.459 399.5 147.77 399.785 147.173C400.073 146.573 400.474 146.106 400.988 145.771C401.505 145.433 402.108 145.264 402.798 145.264C403.196 145.264 403.588 145.33 403.976 145.463C404.364 145.596 404.717 145.811 405.035 146.109C405.353 146.404 405.607 146.795 405.796 147.283C405.985 147.77 406.079 148.37 406.079 149.082V149.58H400.193V148.565H404.886C404.886 148.134 404.8 147.75 404.627 147.412C404.458 147.074 404.216 146.807 403.902 146.612C403.59 146.416 403.222 146.318 402.798 146.318C402.331 146.318 401.926 146.434 401.585 146.666C401.247 146.895 400.987 147.193 400.804 147.561C400.622 147.929 400.531 148.323 400.531 148.744V149.42C400.531 149.997 400.63 150.486 400.829 150.887C401.031 151.285 401.311 151.588 401.669 151.797C402.027 152.002 402.443 152.105 402.917 152.105C403.225 152.105 403.504 152.062 403.752 151.976C404.004 151.886 404.221 151.754 404.404 151.578C404.586 151.399 404.727 151.177 404.826 150.912L405.96 151.23C405.84 151.615 405.64 151.953 405.358 152.244C405.076 152.533 404.728 152.758 404.314 152.92C403.9 153.08 403.434 153.159 402.917 153.159Z" fill="white" fill-opacity="0.95"/>
<rect x="192" y="127" width="94" height="42" rx="5" stroke="#DA0087" stroke-width="2"/>
<rect x="194" y="129" width="90" height="38" rx="3" stroke="white" stroke-opacity="0.9" stroke-width="2"/>
<rect x="289" y="127" width="63" height="42" rx="5" stroke="#DA0087" stroke-width="2"/>
<rect x="291" y="129" width="59" height="38" rx="3" stroke="white" stroke-opacity="0.9" stroke-width="2"/>
<path d="M317.5 92V91" stroke="#DA0087"/>
<path d="M317.5 83L313.5 91H321.5L317.5 83Z" fill="#DA0087"/>
<rect x="291" y="84" width="53" height="28" rx="14" fill="#DA0087"/>
<path d="M303.773 93.6136V92.3636H312.5V93.6136H308.841V104H307.432V93.6136H303.773ZM315.874 104.205C315.321 104.205 314.819 104.1 314.368 103.892C313.917 103.68 313.559 103.375 313.294 102.977C313.029 102.576 312.896 102.091 312.896 101.523C312.896 101.023 312.995 100.617 313.192 100.307C313.389 99.9924 313.652 99.7462 313.982 99.5682C314.311 99.3902 314.675 99.2576 315.072 99.1705C315.474 99.0795 315.877 99.0076 316.283 98.9545C316.813 98.8864 317.243 98.8352 317.572 98.8011C317.906 98.7633 318.148 98.7008 318.3 98.6136C318.455 98.5265 318.533 98.375 318.533 98.1591V98.1136C318.533 97.553 318.379 97.1174 318.072 96.8068C317.769 96.4962 317.309 96.3409 316.692 96.3409C316.052 96.3409 315.55 96.4811 315.186 96.7614C314.822 97.0417 314.567 97.3409 314.419 97.6591L313.146 97.2045C313.374 96.6742 313.677 96.2614 314.055 95.9659C314.438 95.6667 314.855 95.4583 315.305 95.3409C315.76 95.2197 316.207 95.1591 316.646 95.1591C316.927 95.1591 317.249 95.1932 317.612 95.2614C317.98 95.3258 318.334 95.4602 318.675 95.6648C319.019 95.8693 319.305 96.178 319.533 96.5909C319.76 97.0038 319.874 97.5568 319.874 98.25V104H318.533V102.818H318.464C318.374 103.008 318.222 103.21 318.01 103.426C317.798 103.642 317.516 103.826 317.163 103.977C316.811 104.129 316.381 104.205 315.874 104.205ZM316.078 103C316.608 103 317.055 102.896 317.419 102.688C317.786 102.479 318.063 102.21 318.249 101.881C318.438 101.551 318.533 101.205 318.533 100.841V99.6136C318.476 99.6818 318.351 99.7443 318.158 99.8011C317.968 99.8542 317.749 99.9015 317.499 99.9432C317.252 99.9811 317.012 100.015 316.777 100.045C316.546 100.072 316.358 100.095 316.214 100.114C315.866 100.159 315.54 100.233 315.237 100.335C314.938 100.434 314.696 100.583 314.51 100.784C314.328 100.981 314.237 101.25 314.237 101.591C314.237 102.057 314.41 102.409 314.754 102.648C315.103 102.883 315.544 103 316.078 103ZM322.503 104V92.3636H323.844V96.6591H323.957C324.056 96.5076 324.192 96.3144 324.366 96.0795C324.545 95.8409 324.798 95.6288 325.128 95.4432C325.461 95.2538 325.912 95.1591 326.48 95.1591C327.215 95.1591 327.863 95.3428 328.423 95.7102C328.984 96.0777 329.421 96.5985 329.736 97.2727C330.05 97.947 330.207 98.7424 330.207 99.6591C330.207 100.583 330.05 101.384 329.736 102.062C329.421 102.737 328.986 103.259 328.429 103.631C327.872 103.998 327.23 104.182 326.503 104.182C325.942 104.182 325.493 104.089 325.156 103.903C324.819 103.714 324.56 103.5 324.378 103.261C324.196 103.019 324.056 102.818 323.957 102.659H323.798V104H322.503ZM323.821 99.6364C323.821 100.295 323.918 100.877 324.111 101.381C324.304 101.881 324.586 102.273 324.957 102.557C325.329 102.837 325.783 102.977 326.321 102.977C326.882 102.977 327.349 102.83 327.724 102.534C328.103 102.235 328.387 101.833 328.577 101.33C328.77 100.822 328.866 100.258 328.866 99.6364C328.866 99.0227 328.772 98.4697 328.582 97.9773C328.397 97.4811 328.115 97.089 327.736 96.8011C327.361 96.5095 326.889 96.3636 326.321 96.3636C325.776 96.3636 325.317 96.5019 324.946 96.7784C324.575 97.0511 324.295 97.4337 324.105 97.9261C323.916 98.4148 323.821 98.9848 323.821 99.6364Z" fill="white"/>
<defs>
<filter id="filter0_ddd_1854_13335" x="196" y="131" width="87" height="34" filterUnits="userSpaceOnUse" color-interpolation-filters="sRGB">
<feFlood flood-opacity="0" result="BackgroundImageFix"/>
<feColorMatrix in="SourceAlpha" type="matrix" values="0 0 0 0 0 0 0 0 0 0 0 0 0 0 0 0 0 0 127 0" result="hardAlpha"/>
<feMorphology radius="4" operator="dilate" in="SourceAlpha" result="effect1_dropShadow_1854_13335"/>
<feOffset/>
<feComposite in2="hardAlpha" operator="out"/>
<feColorMatrix type="matrix" values="0 0 0 0 0.392157 0 0 0 0 0.705882 0 0 0 0 0.980392 0 0 0 1 0"/>
<feBlend mode="normal" in2="BackgroundImageFix" result="effect1_dropShadow_1854_13335"/>
<feColorMatrix in="SourceAlpha" type="matrix" values="0 0 0 0 0 0 0 0 0 0 0 0 0 0 0 0 0 0 127 0" result="hardAlpha"/>
<feMorphology radius="5" operator="dilate" in="SourceAlpha" result="effect2_dropShadow_1854_13335"/>
<feOffset/>
<feComposite in2="hardAlpha" operator="out"/>
<feColorMatrix type="matrix" values="0 0 0 0 0.392157 0 0 0 0 0.705882 0 0 0 0 0.980392 0 0 0 0.3 0"/>
<feBlend mode="normal" in2="effect1_dropShadow_1854_13335" result="effect2_dropShadow_1854_13335"/>
<feColorMatrix in="SourceAlpha" type="matrix" values="0 0 0 0 0 0 0 0 0 0 0 0 0 0 0 0 0 0 127 0" result="hardAlpha"/>
<feMorphology radius="2" operator="dilate" in="SourceAlpha" result="effect3_dropShadow_1854_13335"/>
<feOffset/>
<feComposite in2="hardAlpha" operator="out"/>
<feColorMatrix type="matrix" values="0 0 0 0 0 0 0 0 0 0 0 0 0 0 0 0 0 0 1 0"/>
<feBlend mode="normal" in2="effect2_dropShadow_1854_13335" result="effect3_dropShadow_1854_13335"/>
<feBlend mode="normal" in="SourceGraphic" in2="effect3_dropShadow_1854_13335" result="shape"/>
</filter>
</defs>
</svg>
