<svg width="1150" height="304" viewBox="0 0 1150 304" fill="none" xmlns="http://www.w3.org/2000/svg">
<rect width="1150" height="304" rx="16" fill="#262626"/>
<path d="M320.5 136.5C320.434 136.5 320.369 136.487 320.309 136.462C320.248 136.437 320.193 136.4 320.146 136.354C320.1 136.307 320.063 136.252 320.038 136.191C320.013 136.131 320 136.066 320 136C320 137.187 319.648 138.347 318.989 139.333C318.33 140.32 317.392 141.089 316.296 141.543C315.2 141.997 313.993 142.116 312.829 141.885C311.666 141.653 310.596 141.082 309.757 140.243C308.918 139.404 308.347 138.334 308.115 137.171C307.884 136.007 308.003 134.8 308.457 133.704C308.911 132.608 309.68 131.67 310.667 131.011C311.653 130.352 312.813 130 314 130C313.867 130 313.74 129.947 313.646 129.854C313.553 129.76 313.5 129.633 313.5 129.5C313.5 129.367 313.553 129.24 313.646 129.146C313.74 129.053 313.867 129 314 129C312.616 129 311.262 129.411 310.111 130.18C308.96 130.949 308.063 132.042 307.533 133.321C307.003 134.6 306.864 136.008 307.135 137.366C307.405 138.723 308.071 139.971 309.05 140.95C310.029 141.929 311.277 142.595 312.634 142.865C313.992 143.136 315.4 142.997 316.679 142.467C317.958 141.937 319.051 141.04 319.82 139.889C320.589 138.738 321 137.384 321 136C321 136.066 320.987 136.131 320.962 136.191C320.937 136.252 320.9 136.307 320.854 136.354C320.807 136.4 320.752 136.437 320.691 136.462C320.631 136.487 320.566 136.5 320.5 136.5Z" fill="white" fill-opacity="0.2"/>
<path d="M313.5 129.5C313.5 129.566 313.513 129.631 313.538 129.691C313.563 129.752 313.6 129.807 313.646 129.854C313.693 129.9 313.748 129.937 313.809 129.962C313.869 129.987 313.934 130 314 130C315.591 130.002 317.116 130.634 318.241 131.759C319.366 132.884 319.998 134.409 320 136C320 136.133 320.053 136.26 320.146 136.354C320.24 136.447 320.367 136.5 320.5 136.5C320.633 136.5 320.76 136.447 320.854 136.354C320.947 136.26 321 136.133 321 136C320.998 134.144 320.26 132.365 318.947 131.053C317.635 129.74 315.856 129.002 314 129C313.934 129 313.869 129.013 313.809 129.038C313.748 129.063 313.693 129.1 313.646 129.146C313.6 129.193 313.563 129.248 313.538 129.309C313.513 129.369 313.5 129.434 313.5 129.5Z" fill="#3492EB"/>
<path d="M322 128H326L330 128" stroke="#DB1F2E" stroke-linecap="round" stroke-dasharray="0.01 4"/>
<path d="M322 144H326L330 144" stroke="#DB1F2E" stroke-linecap="round" stroke-dasharray="0.01 4"/>
<path d="M338 128H346L354 128" stroke="#DB1F2E"/>
<path d="M346 129V128" stroke="#DB1F2E"/>
<path d="M343.865 132.727V140H342.985V133.651H342.942L341.166 134.83V133.935L342.985 132.727H343.865ZM348.372 140.099C348.073 140.095 347.775 140.038 347.477 139.929C347.179 139.82 346.906 139.637 346.66 139.379C346.414 139.118 346.216 138.767 346.067 138.324C345.918 137.879 345.843 137.32 345.843 136.648C345.843 136.001 345.904 135.429 346.024 134.929C346.145 134.427 346.32 134.004 346.55 133.661C346.78 133.318 347.057 133.058 347.381 132.88C347.708 132.702 348.076 132.614 348.485 132.614C348.893 132.614 349.255 132.695 349.572 132.859C349.892 133.022 350.152 133.249 350.353 133.54C350.554 133.829 350.685 134.164 350.744 134.545H349.877C349.797 134.212 349.641 133.937 349.409 133.722C349.177 133.504 348.869 133.395 348.485 133.395C347.922 133.395 347.478 133.641 347.154 134.134C346.832 134.624 346.67 135.315 346.667 136.207H346.724C346.857 136.006 347.014 135.835 347.196 135.692C347.381 135.548 347.585 135.437 347.807 135.359C348.03 135.281 348.265 135.241 348.514 135.241C348.93 135.241 349.312 135.346 349.657 135.554C350.003 135.76 350.28 136.045 350.488 136.41C350.697 136.772 350.801 137.188 350.801 137.656C350.801 138.106 350.7 138.518 350.499 138.892C350.298 139.264 350.015 139.56 349.65 139.78C349.288 139.998 348.862 140.104 348.372 140.099ZM348.372 139.318C348.67 139.318 348.938 139.244 349.174 139.094C349.413 138.945 349.602 138.745 349.739 138.494C349.879 138.243 349.948 137.964 349.948 137.656C349.948 137.356 349.881 137.082 349.746 136.836C349.613 136.587 349.43 136.39 349.196 136.243C348.964 136.096 348.698 136.023 348.4 136.023C348.175 136.023 347.966 136.068 347.772 136.158C347.577 136.245 347.407 136.366 347.26 136.52C347.116 136.674 347.002 136.85 346.919 137.049C346.836 137.246 346.795 137.453 346.795 137.67C346.795 137.959 346.862 138.229 346.997 138.48C347.135 138.731 347.322 138.933 347.559 139.087C347.798 139.241 348.069 139.318 348.372 139.318Z" fill="white" fill-opacity="0.95"/>
<path d="M346 145V144" stroke="#DB1F2E"/>
<path d="M338 145H346L354 145" stroke="#DB1F2E"/>
<path d="M306 144V148L306 152" stroke="#FF634E" stroke-linecap="round" stroke-dasharray="0.01 4"/>
<path d="M322 144V148L322 152" stroke="#DB1F2E" stroke-linecap="round" stroke-dasharray="0.01 4"/>
<path d="M306 160V168L306 176" stroke="#DB1F2E"/>
<path d="M306 168H307" stroke="#DB1F2E"/>
<path d="M311.865 164.227V171.5H310.985V165.151H310.942L309.166 166.33V165.435L310.985 164.227H311.865ZM316.372 171.599C316.073 171.595 315.775 171.538 315.477 171.429C315.179 171.32 314.906 171.137 314.66 170.879C314.414 170.618 314.216 170.267 314.067 169.824C313.918 169.379 313.843 168.82 313.843 168.148C313.843 167.501 313.904 166.929 314.024 166.429C314.145 165.927 314.32 165.504 314.55 165.161C314.78 164.818 315.057 164.558 315.381 164.38C315.708 164.202 316.076 164.114 316.485 164.114C316.893 164.114 317.255 164.195 317.572 164.359C317.892 164.522 318.152 164.749 318.353 165.04C318.554 165.329 318.685 165.664 318.744 166.045H317.877C317.797 165.712 317.641 165.437 317.409 165.222C317.177 165.004 316.869 164.895 316.485 164.895C315.922 164.895 315.478 165.141 315.154 165.634C314.832 166.124 314.67 166.815 314.667 167.707H314.724C314.857 167.506 315.014 167.335 315.196 167.192C315.381 167.048 315.585 166.937 315.807 166.859C316.03 166.781 316.265 166.741 316.514 166.741C316.93 166.741 317.312 166.846 317.657 167.054C318.003 167.26 318.28 167.545 318.488 167.91C318.697 168.272 318.801 168.688 318.801 169.156C318.801 169.606 318.7 170.018 318.499 170.392C318.298 170.764 318.015 171.06 317.65 171.28C317.288 171.498 316.862 171.604 316.372 171.599ZM316.372 170.818C316.67 170.818 316.938 170.744 317.174 170.594C317.413 170.445 317.602 170.245 317.739 169.994C317.879 169.743 317.948 169.464 317.948 169.156C317.948 168.856 317.881 168.582 317.746 168.336C317.613 168.087 317.43 167.89 317.196 167.743C316.964 167.596 316.698 167.523 316.4 167.523C316.175 167.523 315.966 167.568 315.772 167.658C315.577 167.745 315.407 167.866 315.26 168.02C315.116 168.174 315.002 168.35 314.919 168.549C314.836 168.746 314.795 168.953 314.795 169.17C314.795 169.459 314.862 169.729 314.997 169.98C315.135 170.231 315.322 170.433 315.559 170.587C315.798 170.741 316.069 170.818 316.372 170.818Z" fill="white" fill-opacity="0.95"/>
<path d="M321 168H322" stroke="#DB1F2E"/>
<path d="M322 160V168L322 176" stroke="#DB1F2E"/>
<path d="M465 137C464.869 137 464.739 136.974 464.617 136.924C464.496 136.874 464.386 136.8 464.293 136.707C464.2 136.614 464.126 136.504 464.076 136.383C464.026 136.261 464 136.131 464 136C464 138.373 463.296 140.693 461.978 142.667C460.659 144.64 458.785 146.178 456.592 147.087C454.399 147.995 451.987 148.232 449.659 147.769C447.331 147.306 445.193 146.164 443.515 144.485C441.836 142.807 440.694 140.669 440.231 138.341C439.768 136.013 440.005 133.601 440.913 131.408C441.822 129.215 443.36 127.341 445.333 126.022C447.307 124.704 449.627 124 452 124C451.735 124 451.48 123.895 451.293 123.707C451.105 123.52 451 123.265 451 123C451 122.735 451.105 122.48 451.293 122.293C451.48 122.105 451.735 122 452 122C449.231 122 446.524 122.821 444.222 124.359C441.92 125.898 440.125 128.084 439.066 130.642C438.006 133.201 437.729 136.016 438.269 138.731C438.809 141.447 440.143 143.942 442.101 145.899C444.058 147.857 446.553 149.191 449.269 149.731C451.984 150.271 454.799 149.994 457.358 148.934C459.916 147.875 462.102 146.08 463.641 143.778C465.179 141.476 466 138.769 466 136C466 136.131 465.974 136.261 465.924 136.383C465.874 136.504 465.8 136.614 465.707 136.707C465.614 136.8 465.504 136.874 465.383 136.924C465.261 136.974 465.131 137 465 137Z" fill="white" fill-opacity="0.2"/>
<path d="M451 123C451 123.131 451.026 123.261 451.076 123.383C451.126 123.504 451.2 123.614 451.293 123.707C451.386 123.8 451.496 123.874 451.617 123.924C451.739 123.974 451.869 124 452 124C455.182 124.003 458.232 125.269 460.481 127.519C462.731 129.768 463.997 132.818 464 136C464 136.265 464.105 136.52 464.293 136.707C464.48 136.895 464.735 137 465 137C465.265 137 465.52 136.895 465.707 136.707C465.895 136.52 466 136.265 466 136C465.996 132.288 464.519 128.73 461.895 126.105C459.27 123.48 455.712 122.004 452 122C451.869 122 451.739 122.026 451.617 122.076C451.496 122.126 451.386 122.2 451.293 122.293C451.2 122.386 451.126 122.496 451.076 122.617C451.026 122.739 451 122.869 451 123Z" fill="#3492EB"/>
<path d="M468 120.046H472L476 120.046" stroke="#DB1F2E" stroke-linecap="round" stroke-dasharray="0.01 4"/>
<path d="M468 152.046H472L476 152.046" stroke="#DB1F2E" stroke-linecap="round" stroke-dasharray="0.01 4"/>
<path d="M484 120.046H492L500 120.046" stroke="#DB1F2E"/>
<path d="M492 128.546V120.046" stroke="#DB1F2E"/>
<path d="M488.999 139.645C488.531 139.645 488.113 139.565 487.746 139.404C487.381 139.243 487.091 139.019 486.876 138.733C486.663 138.444 486.547 138.109 486.528 137.728H487.423C487.442 137.962 487.522 138.165 487.664 138.335C487.806 138.503 487.992 138.633 488.222 138.726C488.451 138.818 488.706 138.864 488.985 138.864C489.298 138.864 489.575 138.81 489.816 138.701C490.058 138.592 490.247 138.44 490.384 138.246C490.522 138.052 490.59 137.827 490.59 137.571C490.59 137.304 490.524 137.068 490.391 136.865C490.259 136.659 490.065 136.498 489.809 136.382C489.553 136.266 489.241 136.208 488.871 136.208H488.289V135.427H488.871C489.16 135.427 489.414 135.374 489.631 135.27C489.852 135.166 490.023 135.019 490.146 134.83C490.272 134.641 490.335 134.418 490.335 134.162C490.335 133.916 490.28 133.702 490.171 133.52C490.062 133.337 489.908 133.195 489.71 133.093C489.513 132.992 489.281 132.941 489.013 132.941C488.763 132.941 488.526 132.987 488.303 133.079C488.083 133.169 487.903 133.301 487.763 133.473C487.624 133.644 487.548 133.85 487.536 134.091H486.684C486.698 133.71 486.813 133.376 487.028 133.09C487.244 132.801 487.526 132.576 487.874 132.415C488.224 132.254 488.609 132.174 489.028 132.174C489.478 132.174 489.863 132.265 490.185 132.447C490.507 132.627 490.755 132.865 490.928 133.161C491.1 133.457 491.187 133.776 491.187 134.12C491.187 134.529 491.079 134.879 490.864 135.167C490.651 135.456 490.361 135.656 489.994 135.767V135.824C490.453 135.9 490.812 136.095 491.07 136.41C491.328 136.723 491.457 137.11 491.457 137.571C491.457 137.967 491.349 138.322 491.134 138.637C490.92 138.949 490.629 139.196 490.26 139.375C489.891 139.555 489.47 139.645 488.999 139.645ZM492.909 139.546V138.907L495.31 136.279C495.591 135.971 495.823 135.704 496.006 135.476C496.188 135.247 496.323 135.031 496.411 134.83C496.5 134.626 496.545 134.413 496.545 134.191C496.545 133.935 496.484 133.714 496.361 133.527C496.24 133.34 496.074 133.195 495.864 133.093C495.653 132.992 495.416 132.941 495.153 132.941C494.874 132.941 494.63 132.999 494.422 133.115C494.216 133.228 494.056 133.388 493.942 133.594C493.831 133.8 493.776 134.042 493.776 134.319H492.938C492.938 133.892 493.036 133.518 493.232 133.196C493.429 132.874 493.696 132.624 494.035 132.444C494.376 132.264 494.758 132.174 495.182 132.174C495.608 132.174 495.986 132.264 496.315 132.444C496.644 132.624 496.902 132.866 497.089 133.172C497.276 133.477 497.369 133.817 497.369 134.191C497.369 134.458 497.321 134.72 497.224 134.976C497.129 135.229 496.963 135.512 496.727 135.824C496.492 136.134 496.167 136.513 495.75 136.961L494.116 138.708V138.765H497.497V139.546H492.909Z" fill="white" fill-opacity="0.95"/>
<path d="M492 152.046V143.546" stroke="#DB1F2E"/>
<path d="M484 152.046H492L500 152.046" stroke="#DB1F2E"/>
<path d="M436 152V156L436 160" stroke="#DB1F2E" stroke-linecap="round" stroke-dasharray="0.01 4"/>
<path d="M468 152V156L468 160" stroke="#DB1F2E" stroke-linecap="round" stroke-dasharray="0.01 4"/>
<path d="M436 168V176L436 184" stroke="#DB1F2E"/>
<path d="M436 176H441.5" stroke="#DB1F2E"/>
<path d="M448.999 179.599C448.531 179.599 448.113 179.519 447.746 179.358C447.381 179.197 447.091 178.973 446.876 178.687C446.663 178.398 446.547 178.063 446.528 177.682H447.423C447.442 177.916 447.522 178.119 447.664 178.289C447.806 178.457 447.992 178.587 448.222 178.68C448.451 178.772 448.706 178.818 448.985 178.818C449.298 178.818 449.575 178.764 449.816 178.655C450.058 178.546 450.247 178.394 450.384 178.2C450.522 178.006 450.59 177.781 450.59 177.526C450.59 177.258 450.524 177.022 450.391 176.819C450.259 176.613 450.065 176.452 449.809 176.336C449.553 176.22 449.241 176.162 448.871 176.162H448.289V175.381H448.871C449.16 175.381 449.414 175.329 449.631 175.224C449.852 175.12 450.023 174.973 450.146 174.784C450.272 174.595 450.335 174.372 450.335 174.116C450.335 173.87 450.28 173.656 450.171 173.474C450.062 173.291 449.908 173.149 449.71 173.048C449.513 172.946 449.281 172.895 449.013 172.895C448.763 172.895 448.526 172.941 448.303 173.033C448.083 173.123 447.903 173.255 447.763 173.428C447.624 173.598 447.548 173.804 447.536 174.045H446.684C446.698 173.664 446.813 173.33 447.028 173.044C447.244 172.755 447.526 172.53 447.874 172.369C448.224 172.208 448.609 172.128 449.028 172.128C449.478 172.128 449.863 172.219 450.185 172.401C450.507 172.581 450.755 172.819 450.928 173.115C451.1 173.411 451.187 173.731 451.187 174.074C451.187 174.483 451.079 174.833 450.864 175.121C450.651 175.41 450.361 175.61 449.994 175.722V175.778C450.453 175.854 450.812 176.049 451.07 176.364C451.328 176.677 451.457 177.064 451.457 177.526C451.457 177.921 451.349 178.276 451.134 178.591C450.92 178.903 450.629 179.15 450.26 179.33C449.891 179.509 449.47 179.599 448.999 179.599ZM452.909 179.5V178.861L455.31 176.233C455.591 175.925 455.823 175.658 456.006 175.43C456.188 175.201 456.323 174.985 456.411 174.784C456.5 174.58 456.545 174.367 456.545 174.145C456.545 173.889 456.484 173.668 456.361 173.481C456.24 173.294 456.074 173.149 455.864 173.048C455.653 172.946 455.416 172.895 455.153 172.895C454.874 172.895 454.63 172.953 454.422 173.069C454.216 173.183 454.056 173.342 453.942 173.548C453.831 173.754 453.776 173.996 453.776 174.273H452.938C452.938 173.847 453.036 173.473 453.232 173.151C453.429 172.829 453.696 172.578 454.035 172.398C454.376 172.218 454.758 172.128 455.182 172.128C455.608 172.128 455.986 172.218 456.315 172.398C456.644 172.578 456.902 172.82 457.089 173.126C457.276 173.431 457.369 173.771 457.369 174.145C457.369 174.412 457.321 174.674 457.224 174.93C457.129 175.183 456.963 175.466 456.727 175.778C456.492 176.089 456.167 176.467 455.75 176.915L454.116 178.662V178.719H457.497V179.5H452.909Z" fill="white" fill-opacity="0.95"/>
<path d="M462.5 176H468" stroke="#DB1F2E"/>
<path d="M468 168V176L468 184" stroke="#DB1F2E"/>
<path d="M621.696 137.361C621.518 137.361 621.341 137.326 621.175 137.258C621.01 137.189 620.86 137.089 620.734 136.963C620.607 136.836 620.507 136.686 620.439 136.521C620.37 136.356 620.335 136.179 620.335 136C620.335 139.231 619.377 142.389 617.582 145.075C615.787 147.761 613.236 149.855 610.251 151.091C607.266 152.328 603.982 152.651 600.813 152.021C597.645 151.391 594.734 149.835 592.45 147.55C590.165 145.266 588.609 142.355 587.979 139.187C587.349 136.018 587.672 132.734 588.909 129.749C590.145 126.764 592.239 124.213 594.925 122.418C597.611 120.623 600.769 119.665 604 119.665C603.639 119.665 603.293 119.521 603.038 119.266C602.782 119.011 602.639 118.665 602.639 118.304C602.639 117.943 602.782 117.596 603.038 117.341C603.293 117.086 603.639 116.942 604 116.942C600.231 116.942 596.546 118.06 593.412 120.154C590.278 122.248 587.836 125.225 586.393 128.707C584.951 132.189 584.573 136.021 585.309 139.718C586.044 143.415 587.859 146.81 590.524 149.476C593.19 152.141 596.585 153.956 600.282 154.691C603.979 155.427 607.811 155.049 611.293 153.607C614.775 152.164 617.752 149.722 619.846 146.588C621.94 143.454 623.058 139.769 623.058 136C623.058 136.179 623.023 136.356 622.954 136.521C622.886 136.686 622.786 136.836 622.659 136.963C622.533 137.089 622.383 137.189 622.217 137.258C622.052 137.326 621.875 137.361 621.696 137.361Z" fill="white" fill-opacity="0.2"/>
<path d="M602.639 118.304C602.639 118.482 602.674 118.659 602.742 118.825C602.811 118.99 602.911 119.14 603.037 119.266C603.164 119.393 603.314 119.493 603.479 119.561C603.644 119.63 603.821 119.665 604 119.665C608.331 119.67 612.483 121.392 615.546 124.455C618.608 127.517 620.33 131.669 620.335 136C620.335 136.361 620.479 136.707 620.734 136.962C620.989 137.218 621.335 137.361 621.696 137.361C622.057 137.361 622.404 137.218 622.659 136.962C622.914 136.707 623.058 136.361 623.058 136C623.052 130.947 621.042 126.103 617.47 122.53C613.897 118.958 609.053 116.948 604 116.942C603.821 116.942 603.644 116.977 603.479 117.046C603.314 117.114 603.164 117.214 603.037 117.341C602.911 117.467 602.811 117.617 602.742 117.783C602.674 117.948 602.639 118.125 602.639 118.304Z" fill="#3492EB"/>
<path d="M626 114.046H630L634 114.046" stroke="#DB1F2E" stroke-linecap="round" stroke-dasharray="0.01 4"/>
<path d="M626 158.046H630L634 158.046" stroke="#DB1F2E" stroke-linecap="round" stroke-dasharray="0.01 4"/>
<path d="M642 114.046H650L658 114.046" stroke="#DB1F2E"/>
<path d="M650 128.546V114.046" stroke="#DB1F2E"/>
<path d="M644.166 138.054V137.33L647.362 132.273H647.888V133.395H647.533L645.118 137.216V137.273H649.422V138.054H644.166ZM647.59 139.546V137.834V137.497V132.273H648.428V139.546H647.59ZM650.582 138.054V137.33L653.778 132.273H654.304V133.395H653.949L651.534 137.216V137.273H655.838V138.054H650.582ZM654.006 139.546V137.834V137.497V132.273H654.844V139.546H654.006Z" fill="white" fill-opacity="0.95"/>
<path d="M650 158.046V143.546" stroke="#DB1F2E"/>
<path d="M642 158.046H650L658 158.046" stroke="#DB1F2E"/>
<path d="M582 158V162L582 166" stroke="#DB1F2E" stroke-linecap="round" stroke-dasharray="0.01 4"/>
<path d="M626 158V162L626 166" stroke="#DB1F2E" stroke-linecap="round" stroke-dasharray="0.01 4"/>
<path d="M582 174V182L582 190" stroke="#DB1F2E"/>
<path d="M582 182H593.5" stroke="#DB1F2E"/>
<path d="M598.166 184.009V183.284L601.362 178.227H601.888V179.349H601.533L599.118 183.17V183.227H603.422V184.009H598.166ZM601.59 185.5V183.788V183.451V178.227H602.428V185.5H601.59ZM604.582 184.009V183.284L607.778 178.227H608.304V179.349H607.949L605.534 183.17V183.227H609.838V184.009H604.582ZM608.006 185.5V183.788V183.451V178.227H608.844V185.5H608.006Z" fill="white" fill-opacity="0.95"/>
<path d="M614.5 182H626" stroke="#DB1F2E"/>
<path d="M626 174V182L626 190" stroke="#DB1F2E"/>
<path d="M804.893 138.222C804.602 138.223 804.312 138.165 804.043 138.054C803.773 137.942 803.528 137.778 803.321 137.572C803.115 137.365 802.951 137.12 802.84 136.851C802.728 136.581 802.671 136.292 802.671 136C802.671 141.275 801.107 146.431 798.176 150.817C795.245 155.203 791.08 158.622 786.207 160.64C781.333 162.659 775.971 163.187 770.797 162.158C765.623 161.129 760.871 158.589 757.141 154.859C753.411 151.129 750.871 146.377 749.842 141.203C748.813 136.029 749.341 130.667 751.36 125.793C753.378 120.92 756.797 116.755 761.183 113.824C765.569 110.893 770.725 109.329 776 109.329C775.411 109.329 774.845 109.095 774.429 108.678C774.012 108.261 773.778 107.696 773.778 107.107C773.778 106.517 774.012 105.952 774.429 105.535C774.845 105.118 775.411 104.884 776 104.884C769.846 104.884 763.83 106.709 758.713 110.128C753.596 113.547 749.608 118.407 747.253 124.092C744.898 129.778 744.282 136.034 745.482 142.07C746.683 148.106 749.646 153.65 753.998 158.002C758.35 162.354 763.894 165.317 769.93 166.518C775.966 167.718 782.222 167.102 787.908 164.747C793.593 162.392 798.453 158.404 801.872 153.287C805.291 148.17 807.116 142.154 807.116 136C807.116 136.292 807.059 136.581 806.947 136.851C806.836 137.12 806.672 137.365 806.465 137.572C806.259 137.778 806.014 137.942 805.744 138.054C805.474 138.165 805.185 138.223 804.893 138.222Z" fill="white" fill-opacity="0.2"/>
<path d="M773.778 107.107C773.777 107.399 773.835 107.688 773.946 107.957C774.058 108.227 774.222 108.472 774.428 108.679C774.635 108.885 774.88 109.049 775.149 109.16C775.419 109.272 775.708 109.329 776 109.329C783.071 109.337 789.851 112.149 794.851 117.149C799.851 122.149 802.663 128.929 802.671 136C802.671 136.589 802.905 137.155 803.322 137.571C803.739 137.988 804.304 138.222 804.893 138.222C805.483 138.222 806.048 137.988 806.465 137.571C806.882 137.155 807.116 136.589 807.116 136C807.107 127.75 803.826 119.841 797.992 114.008C792.159 108.175 784.25 104.893 776 104.884C775.708 104.884 775.419 104.941 775.149 105.053C774.88 105.165 774.635 105.328 774.428 105.535C774.222 105.741 774.058 105.986 773.946 106.256C773.835 106.526 773.777 106.815 773.778 107.107Z" fill="#3492EB"/>
<path d="M812 100.046H816L820 100.046" stroke="#DB1F2E" stroke-linecap="round" stroke-dasharray="0.01 4"/>
<path d="M812 172.046H816L820 172.046" stroke="#DB1F2E" stroke-linecap="round" stroke-dasharray="0.01 4"/>
<path d="M828 100.046H836L844 100.046" stroke="#DB1F2E"/>
<path d="M836 128.546V100.046" stroke="#DB1F2E"/>
<path d="M831.096 139.546L834.349 133.111V133.054H830.599V132.273H835.258V133.097L832.02 139.546H831.096ZM836.582 139.546V138.907L838.983 136.279C839.264 135.971 839.496 135.704 839.679 135.476C839.861 135.247 839.996 135.031 840.083 134.83C840.173 134.626 840.218 134.413 840.218 134.191C840.218 133.935 840.157 133.714 840.034 133.527C839.913 133.34 839.747 133.195 839.536 133.093C839.326 132.992 839.089 132.941 838.826 132.941C838.547 132.941 838.303 132.999 838.095 133.115C837.889 133.228 837.729 133.388 837.615 133.594C837.504 133.8 837.448 134.042 837.448 134.319H836.61C836.61 133.892 836.709 133.518 836.905 133.196C837.102 132.874 837.369 132.624 837.708 132.444C838.049 132.264 838.431 132.174 838.855 132.174C839.281 132.174 839.658 132.264 839.987 132.444C840.317 132.624 840.575 132.866 840.762 133.172C840.949 133.477 841.042 133.817 841.042 134.191C841.042 134.458 840.994 134.72 840.897 134.976C840.802 135.229 840.636 135.512 840.399 135.824C840.165 136.134 839.84 136.513 839.423 136.961L837.789 138.708V138.765H841.17V139.546H836.582Z" fill="white" fill-opacity="0.95"/>
<path d="M836 172.046V143.546" stroke="#DB1F2E"/>
<path d="M828 172.046H836L844 172.046" stroke="#DB1F2E"/>
<path d="M740 172V176L740 180" stroke="#DB1F2E" stroke-linecap="round" stroke-dasharray="0.01 4"/>
<path d="M812 172V176L812 180" stroke="#DB1F2E" stroke-linecap="round" stroke-dasharray="0.01 4"/>
<path d="M740 188V196L740 204" stroke="#DB1F2E"/>
<path d="M740 196H766" stroke="#DB1F2E"/>
<path d="M771.096 199.5L774.349 193.065V193.009H770.599V192.227H775.258V193.051L772.02 199.5H771.096ZM776.582 199.5V198.861L778.983 196.233C779.264 195.925 779.496 195.658 779.679 195.43C779.861 195.201 779.996 194.985 780.083 194.784C780.173 194.58 780.218 194.367 780.218 194.145C780.218 193.889 780.157 193.668 780.034 193.481C779.913 193.294 779.747 193.149 779.536 193.048C779.326 192.946 779.089 192.895 778.826 192.895C778.547 192.895 778.303 192.953 778.095 193.069C777.889 193.183 777.729 193.342 777.615 193.548C777.504 193.754 777.448 193.996 777.448 194.273H776.61C776.61 193.847 776.709 193.473 776.905 193.151C777.102 192.829 777.369 192.578 777.708 192.398C778.049 192.218 778.431 192.128 778.855 192.128C779.281 192.128 779.658 192.218 779.987 192.398C780.317 192.578 780.575 192.82 780.762 193.126C780.949 193.431 781.042 193.771 781.042 194.145C781.042 194.412 780.994 194.674 780.897 194.93C780.802 195.183 780.636 195.466 780.399 195.778C780.165 196.089 779.84 196.467 779.423 196.915L777.789 198.662V198.719H781.17V199.5H776.582Z" fill="white" fill-opacity="0.95"/>
<path d="M786 196H812" stroke="#DB1F2E"/>
<path d="M812 188V196L812 204" stroke="#DB1F2E"/>
</svg>
