<svg width="1150" height="282" viewBox="0 0 1150 282" fill="none" xmlns="http://www.w3.org/2000/svg">
<rect width="1150" height="282" rx="16" fill="#262626"/>
<rect x="301.5" y="100" width="32" height="32" rx="16" fill="#DA0087"/>
<path d="M319.255 111.318V121.5H317.102V113.362H317.043L314.711 114.823V112.914L317.232 111.318H319.255Z" fill="white" fill-opacity="0.95"/>
<rect x="436.5" y="100" width="32" height="32" rx="16" fill="#DA0087"/>
<path d="M448.825 121.5V119.949L452.45 116.593C452.758 116.295 453.016 116.026 453.225 115.788C453.437 115.549 453.598 115.315 453.707 115.087C453.817 114.855 453.871 114.604 453.871 114.336C453.871 114.038 453.804 113.781 453.668 113.565C453.532 113.347 453.346 113.179 453.111 113.063C452.875 112.944 452.609 112.884 452.31 112.884C451.999 112.884 451.727 112.947 451.495 113.073C451.263 113.199 451.084 113.38 450.958 113.615C450.832 113.85 450.769 114.13 450.769 114.455H448.726C448.726 113.789 448.877 113.211 449.178 112.72C449.48 112.23 449.902 111.85 450.446 111.582C450.99 111.313 451.616 111.179 452.325 111.179C453.054 111.179 453.689 111.308 454.229 111.567C454.773 111.822 455.196 112.177 455.497 112.631C455.799 113.085 455.95 113.605 455.95 114.192C455.95 114.576 455.873 114.956 455.721 115.33C455.572 115.705 455.305 116.121 454.92 116.578C454.536 117.032 453.994 117.577 453.295 118.214L451.808 119.67V119.74H456.084V121.5H448.825Z" fill="white" fill-opacity="0.95"/>
<rect x="590.844" y="100" width="32" height="32" rx="16" fill="#DA0087"/>
<path d="M606.433 121.639C605.69 121.639 605.029 121.512 604.449 121.256C603.872 120.998 603.416 120.643 603.082 120.192C602.75 119.738 602.58 119.215 602.57 118.621H604.737C604.75 118.87 604.832 119.089 604.981 119.278C605.133 119.463 605.335 119.607 605.587 119.71C605.839 119.813 606.123 119.864 606.438 119.864C606.766 119.864 607.056 119.806 607.308 119.69C607.559 119.574 607.757 119.414 607.899 119.208C608.042 119.003 608.113 118.766 608.113 118.497C608.113 118.225 608.037 117.985 607.884 117.776C607.735 117.564 607.52 117.398 607.238 117.279C606.96 117.16 606.628 117.1 606.244 117.1H605.294V115.519H606.244C606.568 115.519 606.855 115.463 607.104 115.35C607.356 115.237 607.551 115.082 607.69 114.883C607.83 114.681 607.899 114.445 607.899 114.177C607.899 113.922 607.838 113.698 607.715 113.506C607.596 113.31 607.427 113.158 607.208 113.048C606.993 112.939 606.741 112.884 606.452 112.884C606.161 112.884 605.894 112.937 605.652 113.043C605.41 113.146 605.216 113.294 605.07 113.486C604.924 113.678 604.847 113.903 604.837 114.162H602.773C602.783 113.575 602.951 113.058 603.276 112.611C603.6 112.163 604.038 111.814 604.588 111.562C605.142 111.307 605.766 111.179 606.462 111.179C607.165 111.179 607.78 111.307 608.307 111.562C608.834 111.817 609.243 112.162 609.535 112.596C609.83 113.027 609.976 113.511 609.972 114.048C609.976 114.618 609.798 115.093 609.44 115.474C609.086 115.856 608.623 116.098 608.053 116.2V116.28C608.802 116.376 609.372 116.636 609.763 117.06C610.158 117.481 610.353 118.008 610.35 118.641C610.353 119.221 610.186 119.737 609.848 120.188C609.513 120.638 609.051 120.993 608.461 121.251C607.871 121.51 607.195 121.639 606.433 121.639Z" fill="white" fill-opacity="0.95"/>
<rect x="754.5" y="100" width="32" height="32" rx="16" fill="#DA0087"/>
<path d="M766.171 119.71V118.015L770.422 111.318H771.884V113.665H771.018L768.339 117.906V117.985H774.379V119.71H766.171ZM771.058 121.5V119.193L771.098 118.442V111.318H773.116V121.5H771.058Z" fill="white" fill-opacity="0.95"/>
<path d="M339 146.5C338.934 146.5 338.869 146.487 338.809 146.462C338.748 146.437 338.693 146.4 338.646 146.354C338.6 146.307 338.563 146.252 338.538 146.191C338.513 146.131 338.5 146.066 338.5 146C338.5 147.187 338.148 148.347 337.489 149.333C336.83 150.32 335.892 151.089 334.796 151.543C333.7 151.997 332.493 152.116 331.329 151.885C330.166 151.653 329.096 151.082 328.257 150.243C327.418 149.404 326.847 148.334 326.615 147.171C326.384 146.007 326.503 144.8 326.957 143.704C327.411 142.608 328.18 141.67 329.167 141.011C330.153 140.352 331.313 140 332.5 140C332.367 140 332.24 139.947 332.146 139.854C332.053 139.76 332 139.633 332 139.5C332 139.367 332.053 139.24 332.146 139.146C332.24 139.053 332.367 139 332.5 139C331.116 139 329.762 139.411 328.611 140.18C327.46 140.949 326.563 142.042 326.033 143.321C325.503 144.6 325.364 146.008 325.635 147.366C325.905 148.723 326.571 149.971 327.55 150.95C328.529 151.929 329.777 152.595 331.134 152.865C332.492 153.136 333.9 152.997 335.179 152.467C336.458 151.937 337.551 151.04 338.32 149.889C339.089 148.738 339.5 147.384 339.5 146C339.5 146.066 339.487 146.131 339.462 146.191C339.437 146.252 339.4 146.307 339.354 146.354C339.307 146.4 339.252 146.437 339.191 146.462C339.131 146.487 339.066 146.5 339 146.5Z" fill="white" fill-opacity="0.2"/>
<path d="M332 139.5C332 139.566 332.013 139.631 332.038 139.691C332.063 139.752 332.1 139.807 332.146 139.854C332.193 139.9 332.248 139.937 332.309 139.962C332.369 139.987 332.434 140 332.5 140C334.091 140.002 335.616 140.634 336.741 141.759C337.866 142.884 338.498 144.409 338.5 146C338.5 146.133 338.553 146.26 338.646 146.354C338.74 146.447 338.867 146.5 339 146.5C339.133 146.5 339.26 146.447 339.354 146.354C339.447 146.26 339.5 146.133 339.5 146C339.498 144.144 338.76 142.365 337.447 141.053C336.135 139.74 334.356 139.002 332.5 139C332.434 139 332.369 139.013 332.309 139.038C332.248 139.063 332.193 139.1 332.146 139.146C332.1 139.193 332.063 139.248 332.038 139.309C332.013 139.369 332 139.434 332 139.5Z" fill="#3492EB"/>
<path d="M489.5 147C489.369 147 489.239 146.974 489.117 146.924C488.996 146.874 488.886 146.8 488.793 146.707C488.7 146.614 488.626 146.504 488.576 146.383C488.526 146.261 488.5 146.131 488.5 146C488.5 148.373 487.796 150.693 486.478 152.667C485.159 154.64 483.285 156.178 481.092 157.087C478.899 157.995 476.487 158.232 474.159 157.769C471.831 157.306 469.693 156.164 468.015 154.485C466.336 152.807 465.194 150.669 464.731 148.341C464.268 146.013 464.505 143.601 465.413 141.408C466.322 139.215 467.86 137.341 469.833 136.022C471.807 134.704 474.127 134 476.5 134C476.235 134 475.98 133.895 475.793 133.707C475.605 133.52 475.5 133.265 475.5 133C475.5 132.735 475.605 132.48 475.793 132.293C475.98 132.105 476.235 132 476.5 132C473.731 132 471.024 132.821 468.722 134.359C466.42 135.898 464.625 138.084 463.566 140.642C462.506 143.201 462.229 146.016 462.769 148.731C463.309 151.447 464.643 153.942 466.601 155.899C468.558 157.857 471.053 159.191 473.769 159.731C476.484 160.271 479.299 159.994 481.858 158.934C484.416 157.875 486.602 156.08 488.141 153.778C489.679 151.476 490.5 148.769 490.5 146C490.5 146.131 490.474 146.261 490.424 146.383C490.374 146.504 490.3 146.614 490.207 146.707C490.114 146.8 490.004 146.874 489.883 146.924C489.761 146.974 489.631 147 489.5 147Z" fill="white" fill-opacity="0.2"/>
<path d="M475.5 133C475.5 133.131 475.526 133.261 475.576 133.383C475.626 133.504 475.7 133.614 475.793 133.707C475.886 133.8 475.996 133.874 476.117 133.924C476.239 133.974 476.369 134 476.5 134C479.682 134.003 482.732 135.269 484.981 137.519C487.231 139.768 488.497 142.818 488.5 146C488.5 146.265 488.605 146.52 488.793 146.707C488.98 146.895 489.235 147 489.5 147C489.765 147 490.02 146.895 490.207 146.707C490.395 146.52 490.5 146.265 490.5 146C490.496 142.288 489.019 138.73 486.395 136.105C483.77 133.48 480.212 132.004 476.5 132C476.369 132 476.239 132.026 476.117 132.076C475.996 132.126 475.886 132.2 475.793 132.293C475.7 132.386 475.626 132.496 475.576 132.617C475.526 132.739 475.5 132.869 475.5 133Z" fill="#3492EB"/>
<path d="M489.5 145.004C489.369 145.004 489.239 145.03 489.117 145.08C488.996 145.131 488.886 145.204 488.793 145.297C488.7 145.39 488.626 145.5 488.576 145.622C488.526 145.743 488.5 145.873 488.5 146.004C488.497 149.186 487.231 152.236 484.981 154.486C482.732 156.736 479.682 158.001 476.5 158.004C476.235 158.004 475.98 158.11 475.793 158.297C475.605 158.485 475.5 158.739 475.5 159.004C475.5 159.27 475.605 159.524 475.793 159.711C475.98 159.899 476.235 160.004 476.5 160.004C480.212 160 483.77 158.524 486.395 155.899C489.02 153.275 490.496 149.716 490.5 146.004C490.5 145.873 490.474 145.743 490.424 145.622C490.374 145.5 490.3 145.39 490.207 145.297C490.114 145.204 490.004 145.131 489.883 145.08C489.761 145.03 489.631 145.004 489.5 145.004Z" fill="#3492EB"/>
<path d="M463.509 145.004C463.64 145.004 463.77 145.03 463.892 145.08C464.013 145.131 464.123 145.204 464.216 145.297C464.309 145.39 464.383 145.5 464.433 145.622C464.483 145.743 464.509 145.873 464.509 146.004C464.512 149.186 465.778 152.236 468.027 154.486C470.277 156.736 473.327 158.001 476.509 158.004C476.774 158.004 477.028 158.11 477.216 158.297C477.403 158.485 477.509 158.739 477.509 159.004C477.509 159.27 477.403 159.524 477.216 159.711C477.028 159.899 476.774 160.004 476.509 160.004C472.797 160 469.239 158.524 466.614 155.899C463.989 153.275 462.513 149.716 462.509 146.004C462.509 145.873 462.535 145.743 462.585 145.622C462.635 145.5 462.709 145.39 462.802 145.297C462.894 145.204 463.005 145.131 463.126 145.08C463.247 145.03 463.377 145.004 463.509 145.004Z" fill="#3492EB"/>
<path d="M652.196 147.361C652.018 147.361 651.841 147.326 651.675 147.258C651.51 147.189 651.36 147.089 651.234 146.963C651.107 146.836 651.007 146.686 650.939 146.521C650.87 146.356 650.835 146.179 650.835 146C650.835 149.231 649.877 152.389 648.082 155.075C646.287 157.761 643.736 159.855 640.751 161.091C637.766 162.328 634.482 162.651 631.313 162.021C628.145 161.391 625.234 159.835 622.95 157.55C620.665 155.266 619.109 152.355 618.479 149.187C617.849 146.018 618.172 142.734 619.409 139.749C620.645 136.764 622.739 134.213 625.425 132.418C628.111 130.623 631.269 129.665 634.5 129.665C634.139 129.665 633.793 129.521 633.538 129.266C633.282 129.011 633.139 128.665 633.139 128.304C633.139 127.943 633.282 127.596 633.538 127.341C633.793 127.086 634.139 126.942 634.5 126.942C630.731 126.942 627.046 128.06 623.912 130.154C620.778 132.248 618.336 135.225 616.893 138.707C615.451 142.189 615.073 146.021 615.809 149.718C616.544 153.415 618.359 156.81 621.024 159.476C623.69 162.141 627.085 163.956 630.782 164.691C634.479 165.427 638.311 165.049 641.793 163.607C645.275 162.164 648.252 159.722 650.346 156.588C652.44 153.454 653.558 149.769 653.558 146C653.558 146.179 653.523 146.356 653.454 146.521C653.386 146.686 653.286 146.836 653.159 146.963C653.033 147.089 652.883 147.189 652.717 147.258C652.552 147.326 652.375 147.361 652.196 147.361Z" fill="white" fill-opacity="0.2"/>
<path d="M633.139 128.304C633.139 128.482 633.174 128.659 633.242 128.825C633.311 128.99 633.411 129.14 633.537 129.266C633.664 129.393 633.814 129.493 633.979 129.561C634.144 129.63 634.321 129.665 634.5 129.665C638.831 129.67 642.983 131.392 646.046 134.455C649.108 137.517 650.83 141.669 650.835 146C650.835 146.361 650.979 146.707 651.234 146.962C651.489 147.218 651.835 147.361 652.196 147.361C652.557 147.361 652.904 147.218 653.159 146.962C653.414 146.707 653.558 146.361 653.558 146C653.552 140.947 651.542 136.103 647.97 132.53C644.397 128.958 639.553 126.948 634.5 126.942C634.321 126.942 634.144 126.977 633.979 127.046C633.814 127.114 633.664 127.214 633.537 127.341C633.411 127.467 633.311 127.617 633.242 127.783C633.174 127.948 633.139 128.125 633.139 128.304Z" fill="#3492EB"/>
<path d="M841.393 148.222C841.102 148.223 840.812 148.165 840.543 148.054C840.273 147.942 840.028 147.778 839.821 147.572C839.615 147.365 839.451 147.12 839.34 146.851C839.228 146.581 839.171 146.292 839.171 146C839.171 151.275 837.607 156.431 834.676 160.817C831.745 165.203 827.58 168.622 822.707 170.64C817.833 172.659 812.471 173.187 807.297 172.158C802.123 171.129 797.371 168.589 793.641 164.859C789.911 161.129 787.371 156.377 786.342 151.203C785.313 146.029 785.841 140.667 787.86 135.793C789.878 130.92 793.297 126.755 797.683 123.824C802.069 120.893 807.225 119.329 812.5 119.329C811.911 119.329 811.345 119.095 810.929 118.678C810.512 118.261 810.278 117.696 810.278 117.107C810.278 116.517 810.512 115.952 810.929 115.535C811.345 115.118 811.911 114.884 812.5 114.884C806.346 114.884 800.33 116.709 795.213 120.128C790.096 123.547 786.108 128.407 783.753 134.092C781.398 139.778 780.782 146.034 781.982 152.07C783.183 158.106 786.146 163.65 790.498 168.002C794.85 172.354 800.394 175.317 806.43 176.518C812.466 177.718 818.722 177.102 824.408 174.747C830.093 172.392 834.953 168.404 838.372 163.287C841.791 158.17 843.616 152.154 843.616 146C843.616 146.292 843.559 146.581 843.447 146.851C843.336 147.12 843.172 147.365 842.965 147.572C842.759 147.778 842.514 147.942 842.244 148.054C841.974 148.165 841.685 148.223 841.393 148.222Z" fill="white" fill-opacity="0.2"/>
<path d="M810.278 117.107C810.277 117.399 810.335 117.688 810.446 117.957C810.558 118.227 810.722 118.472 810.928 118.679C811.135 118.885 811.38 119.049 811.649 119.16C811.919 119.272 812.208 119.329 812.5 119.329C819.571 119.337 826.351 122.149 831.351 127.149C836.351 132.149 839.163 138.929 839.171 146C839.171 146.589 839.405 147.155 839.822 147.571C840.239 147.988 840.804 148.222 841.393 148.222C841.983 148.222 842.548 147.988 842.965 147.571C843.382 147.155 843.616 146.589 843.616 146C843.607 137.75 840.326 129.841 834.492 124.008C828.659 118.175 820.75 114.893 812.5 114.884C812.208 114.884 811.919 114.941 811.649 115.053C811.38 115.165 811.135 115.328 810.928 115.535C810.722 115.741 810.558 115.986 810.446 116.256C810.335 116.526 810.277 116.815 810.278 117.107Z" fill="#3492EB"/>
<path d="M841.393 143.787C841.101 143.787 840.812 143.845 840.543 143.956C840.273 144.068 840.028 144.232 839.821 144.438C839.615 144.644 839.451 144.889 839.34 145.159C839.228 145.429 839.171 145.718 839.171 146.01C839.163 153.081 836.351 159.86 831.351 164.86C826.351 169.861 819.571 172.673 812.5 172.681C811.911 172.681 811.345 172.915 810.929 173.332C810.512 173.748 810.278 174.314 810.278 174.903C810.278 175.493 810.512 176.058 810.929 176.475C811.345 176.892 811.911 177.126 812.5 177.126C820.75 177.117 828.659 173.835 834.492 168.002C840.325 162.169 843.607 154.26 843.616 146.01C843.616 145.718 843.559 145.429 843.447 145.159C843.335 144.889 843.172 144.644 842.965 144.438C842.759 144.232 842.514 144.068 842.244 143.956C841.974 143.845 841.685 143.787 841.393 143.787Z" fill="#3492EB"/>
<path d="M783.626 143.787C783.918 143.787 784.207 143.845 784.477 143.956C784.747 144.068 784.992 144.232 785.198 144.438C785.405 144.644 785.568 144.889 785.68 145.159C785.792 145.429 785.849 145.718 785.849 146.01C785.857 153.081 788.669 159.86 793.669 164.86C798.669 169.861 805.449 172.673 812.52 172.681C813.109 172.681 813.674 172.915 814.091 173.332C814.508 173.748 814.742 174.314 814.742 174.903C814.742 175.493 814.508 176.058 814.091 176.475C813.674 176.892 813.109 177.126 812.52 177.126C804.27 177.117 796.361 173.835 790.528 168.002C784.694 162.169 781.413 154.26 781.404 146.01C781.404 145.718 781.461 145.429 781.573 145.159C781.684 144.889 781.848 144.644 782.054 144.438C782.261 144.232 782.506 144.068 782.776 143.956C783.045 143.845 783.334 143.787 783.626 143.787Z" fill="#3492EB"/>
</svg>
