<svg width="1150" height="262" viewBox="0 0 1150 262" fill="none" xmlns="http://www.w3.org/2000/svg">
<rect width="1150" height="262" rx="16" fill="#262626"/>
<rect x="348.875" y="100" width="32" height="32" rx="16" fill="#DA0087"/>
<path d="M366.63 111.318V121.5H364.477V113.362H364.418L362.086 114.823V112.914L364.607 111.318H366.63Z" fill="white" fill-opacity="0.95"/>
<rect x="500.875" y="100" width="32" height="32" rx="16" fill="#DA0087"/>
<path d="M513.2 121.5V119.949L516.825 116.593C517.133 116.295 517.391 116.026 517.6 115.788C517.812 115.549 517.973 115.315 518.082 115.087C518.192 114.855 518.246 114.604 518.246 114.336C518.246 114.038 518.179 113.781 518.043 113.565C517.907 113.347 517.721 113.179 517.486 113.063C517.25 112.944 516.984 112.884 516.685 112.884C516.374 112.884 516.102 112.947 515.87 113.073C515.638 113.199 515.459 113.38 515.333 113.615C515.207 113.85 515.144 114.13 515.144 114.455H513.101C513.101 113.789 513.252 113.211 513.553 112.72C513.855 112.23 514.277 111.85 514.821 111.582C515.365 111.313 515.991 111.179 516.7 111.179C517.429 111.179 518.064 111.308 518.604 111.567C519.148 111.822 519.571 112.177 519.872 112.631C520.174 113.085 520.325 113.605 520.325 114.192C520.325 114.576 520.248 114.956 520.096 115.33C519.947 115.705 519.68 116.121 519.295 116.578C518.911 117.032 518.369 117.577 517.67 118.214L516.183 119.67V119.74H520.459V121.5H513.2Z" fill="white" fill-opacity="0.95"/>
<rect x="653.125" y="100" width="32" height="32" rx="16" fill="#DA0087"/>
<path d="M668.714 121.639C667.971 121.639 667.31 121.512 666.73 121.256C666.153 120.998 665.698 120.643 665.363 120.192C665.031 119.738 664.861 119.215 664.851 118.621H667.018C667.032 118.87 667.113 119.089 667.262 119.278C667.415 119.463 667.617 119.607 667.869 119.71C668.121 119.813 668.404 119.864 668.719 119.864C669.047 119.864 669.337 119.806 669.589 119.69C669.841 119.574 670.038 119.414 670.18 119.208C670.323 119.003 670.394 118.766 670.394 118.497C670.394 118.225 670.318 117.985 670.165 117.776C670.016 117.564 669.801 117.398 669.519 117.279C669.241 117.16 668.909 117.1 668.525 117.1H667.575V115.519H668.525C668.85 115.519 669.136 115.463 669.385 115.35C669.637 115.237 669.832 115.082 669.972 114.883C670.111 114.681 670.18 114.445 670.18 114.177C670.18 113.922 670.119 113.698 669.996 113.506C669.877 113.31 669.708 113.158 669.489 113.048C669.274 112.939 669.022 112.884 668.734 112.884C668.442 112.884 668.175 112.937 667.933 113.043C667.691 113.146 667.497 113.294 667.352 113.486C667.206 113.678 667.128 113.903 667.118 114.162H665.055C665.065 113.575 665.232 113.058 665.557 112.611C665.882 112.163 666.319 111.814 666.869 111.562C667.423 111.307 668.048 111.179 668.744 111.179C669.446 111.179 670.061 111.307 670.588 111.562C671.115 111.817 671.524 112.162 671.816 112.596C672.111 113.027 672.257 113.511 672.254 114.048C672.257 114.618 672.08 115.093 671.722 115.474C671.367 115.856 670.905 116.098 670.335 116.2V116.28C671.084 116.376 671.654 116.636 672.045 117.06C672.439 117.481 672.635 118.008 672.631 118.641C672.635 119.221 672.467 119.737 672.129 120.188C671.795 120.638 671.332 120.993 670.742 121.251C670.152 121.51 669.476 121.639 668.714 121.639Z" fill="white" fill-opacity="0.95"/>
<rect x="804.875" y="100" width="32" height="32" rx="16" fill="#DA0087"/>
<path d="M816.546 119.71V118.015L820.797 111.318H822.259V113.665H821.393L818.714 117.906V117.985H824.754V119.71H816.546ZM821.433 121.5V119.193L821.473 118.442V111.318H823.491V121.5H821.433Z" fill="white" fill-opacity="0.95"/>
<path d="M342.125 147C341.994 147 341.864 146.974 341.742 146.924C341.621 146.874 341.511 146.8 341.418 146.707C341.325 146.614 341.251 146.504 341.201 146.383C341.151 146.261 341.125 146.131 341.125 146C341.125 148.373 340.421 150.693 339.103 152.667C337.784 154.64 335.91 156.178 333.717 157.087C331.524 157.995 329.112 158.232 326.784 157.769C324.456 157.306 322.318 156.164 320.64 154.485C318.961 152.807 317.819 150.669 317.356 148.341C316.893 146.013 317.13 143.601 318.038 141.408C318.947 139.215 320.485 137.341 322.458 136.022C324.432 134.704 326.752 134 329.125 134C328.86 134 328.605 133.895 328.418 133.707C328.23 133.52 328.125 133.265 328.125 133C328.125 132.735 328.23 132.48 328.418 132.293C328.605 132.105 328.86 132 329.125 132C326.356 132 323.649 132.821 321.347 134.359C319.045 135.898 317.25 138.084 316.191 140.642C315.131 143.201 314.854 146.016 315.394 148.731C315.934 151.447 317.268 153.942 319.226 155.899C321.183 157.857 323.678 159.191 326.394 159.731C329.109 160.271 331.924 159.994 334.483 158.934C337.041 157.875 339.227 156.08 340.766 153.778C342.304 151.476 343.125 148.769 343.125 146C343.125 146.131 343.099 146.261 343.049 146.383C342.999 146.504 342.925 146.614 342.832 146.707C342.739 146.8 342.629 146.874 342.508 146.924C342.386 146.974 342.256 147 342.125 147Z" fill="white" fill-opacity="0.2"/>
<path d="M328.125 133C328.125 133.131 328.151 133.261 328.201 133.383C328.251 133.504 328.325 133.614 328.418 133.707C328.511 133.8 328.621 133.874 328.742 133.924C328.864 133.974 328.994 134 329.125 134C332.307 134.003 335.357 135.269 337.606 137.519C339.856 139.768 341.122 142.818 341.125 146C341.125 146.265 341.23 146.52 341.418 146.707C341.605 146.895 341.86 147 342.125 147C342.39 147 342.645 146.895 342.832 146.707C343.02 146.52 343.125 146.265 343.125 146C343.121 142.288 341.644 138.73 339.02 136.105C336.395 133.48 332.837 132.004 329.125 132C328.994 132 328.864 132.026 328.742 132.076C328.621 132.126 328.511 132.2 328.418 132.293C328.325 132.386 328.251 132.496 328.201 132.617C328.151 132.739 328.125 132.869 328.125 133Z" fill="#3492EB"/>
<path d="M494.125 147C493.994 147 493.864 146.974 493.742 146.924C493.621 146.874 493.511 146.8 493.418 146.707C493.325 146.614 493.251 146.504 493.201 146.383C493.151 146.261 493.125 146.131 493.125 146C493.125 148.373 492.421 150.693 491.103 152.667C489.784 154.64 487.91 156.178 485.717 157.087C483.524 157.995 481.112 158.232 478.784 157.769C476.456 157.306 474.318 156.164 472.64 154.485C470.961 152.807 469.819 150.669 469.356 148.341C468.893 146.013 469.13 143.601 470.038 141.408C470.947 139.215 472.485 137.341 474.458 136.022C476.432 134.704 478.752 134 481.125 134C480.86 134 480.605 133.895 480.418 133.707C480.23 133.52 480.125 133.265 480.125 133C480.125 132.735 480.23 132.48 480.418 132.293C480.605 132.105 480.86 132 481.125 132C478.356 132 475.649 132.821 473.347 134.359C471.045 135.898 469.25 138.084 468.191 140.642C467.131 143.201 466.854 146.016 467.394 148.731C467.934 151.447 469.268 153.942 471.226 155.899C473.183 157.857 475.678 159.191 478.394 159.731C481.109 160.271 483.924 159.994 486.483 158.934C489.041 157.875 491.227 156.08 492.766 153.778C494.304 151.476 495.125 148.769 495.125 146C495.125 146.131 495.099 146.261 495.049 146.383C494.999 146.504 494.925 146.614 494.832 146.707C494.739 146.8 494.629 146.874 494.508 146.924C494.386 146.974 494.256 147 494.125 147Z" fill="white" fill-opacity="0.2"/>
<path d="M480.125 133C480.125 133.131 480.151 133.261 480.201 133.383C480.251 133.504 480.325 133.614 480.418 133.707C480.511 133.8 480.621 133.874 480.742 133.924C480.864 133.974 480.994 134 481.125 134C484.307 134.003 487.357 135.269 489.606 137.519C491.856 139.768 493.122 142.818 493.125 146C493.125 146.265 493.23 146.52 493.418 146.707C493.605 146.895 493.86 147 494.125 147C494.39 147 494.645 146.895 494.832 146.707C495.02 146.52 495.125 146.265 495.125 146C495.121 142.288 493.644 138.73 491.02 136.105C488.395 133.48 484.837 132.004 481.125 132C480.994 132 480.864 132.026 480.742 132.076C480.621 132.126 480.511 132.2 480.418 132.293C480.325 132.386 480.251 132.496 480.201 132.617C480.151 132.739 480.125 132.869 480.125 133Z" fill="#3492EB"/>
<path d="M494.125 145.004C493.994 145.004 493.864 145.03 493.742 145.08C493.621 145.131 493.511 145.204 493.418 145.297C493.325 145.39 493.251 145.5 493.201 145.622C493.151 145.743 493.125 145.873 493.125 146.004C493.122 149.186 491.856 152.236 489.606 154.486C487.357 156.736 484.307 158.001 481.125 158.004C480.86 158.004 480.605 158.11 480.418 158.297C480.23 158.485 480.125 158.739 480.125 159.004C480.125 159.27 480.23 159.524 480.418 159.711C480.605 159.899 480.86 160.004 481.125 160.004C484.837 160 488.395 158.524 491.02 155.899C493.645 153.275 495.121 149.716 495.125 146.004C495.125 145.873 495.099 145.743 495.049 145.622C494.999 145.5 494.925 145.39 494.832 145.297C494.739 145.204 494.629 145.131 494.508 145.08C494.386 145.03 494.256 145.004 494.125 145.004Z" fill="#3492EB"/>
<path d="M468.134 145.004C468.265 145.004 468.395 145.03 468.517 145.08C468.638 145.131 468.748 145.204 468.841 145.297C468.934 145.39 469.008 145.5 469.058 145.622C469.108 145.743 469.134 145.873 469.134 146.004C469.137 149.186 470.403 152.236 472.652 154.486C474.902 156.736 477.952 158.001 481.134 158.004C481.399 158.004 481.653 158.11 481.841 158.297C482.028 158.485 482.134 158.739 482.134 159.004C482.134 159.27 482.028 159.524 481.841 159.711C481.653 159.899 481.399 160.004 481.134 160.004C477.422 160 473.864 158.524 471.239 155.899C468.614 153.275 467.138 149.716 467.134 146.004C467.134 145.873 467.16 145.743 467.21 145.622C467.26 145.5 467.334 145.39 467.427 145.297C467.519 145.204 467.63 145.131 467.751 145.08C467.872 145.03 468.002 145.004 468.134 145.004Z" fill="#3492EB"/>
<path d="M633.125 132C630.356 132 627.649 132.821 625.347 134.359C623.044 135.898 621.25 138.084 620.19 140.642C619.131 143.2 618.854 146.015 619.394 148.731C619.934 151.447 621.267 153.941 623.225 155.899C625.183 157.857 627.678 159.191 630.393 159.731C633.109 160.271 635.924 159.994 638.482 158.934C641.04 157.874 643.227 156.08 644.765 153.778C646.304 151.475 647.125 148.769 647.125 146C647.121 142.288 645.644 138.729 643.02 136.105C640.395 133.48 636.837 132.004 633.125 132ZM633.125 158C630.751 158 628.431 157.296 626.458 155.977C624.485 154.659 622.946 152.785 622.038 150.592C621.13 148.399 620.892 145.986 621.355 143.659C621.818 141.331 622.961 139.193 624.639 137.514C626.318 135.836 628.456 134.693 630.784 134.23C633.111 133.767 635.524 134.005 637.717 134.913C639.91 135.821 641.784 137.36 643.102 139.333C644.421 141.306 645.125 143.626 645.125 146C645.121 149.181 643.856 152.232 641.606 154.481C639.357 156.731 636.306 157.996 633.125 158Z" fill="#27A17A"/>
<path d="M637.474 142.241L631.178 147.636L628.834 145.28C628.741 145.187 628.631 145.113 628.51 145.062C628.389 145.012 628.259 144.986 628.128 144.985C627.996 144.985 627.866 145.01 627.745 145.06C627.623 145.11 627.513 145.184 627.42 145.276C627.327 145.369 627.253 145.479 627.202 145.6C627.151 145.721 627.125 145.851 627.125 145.982C627.124 146.114 627.15 146.244 627.2 146.365C627.25 146.487 627.323 146.597 627.416 146.69L630.416 149.705C630.594 149.884 630.833 149.989 631.085 149.999C631.337 150.009 631.584 149.923 631.775 149.759L638.775 143.759C638.875 143.673 638.957 143.569 639.016 143.452C639.075 143.335 639.111 143.207 639.121 143.076C639.131 142.946 639.115 142.814 639.075 142.689C639.034 142.565 638.969 142.449 638.884 142.349C638.798 142.25 638.694 142.168 638.577 142.109C638.46 142.049 638.332 142.013 638.201 142.003C638.071 141.993 637.939 142.009 637.814 142.05C637.689 142.091 637.574 142.156 637.474 142.241Z" fill="#27A17A"/>
<path d="M784.625 132C781.856 132 779.15 132.821 776.847 134.359C774.545 135.898 772.751 138.084 771.691 140.642C770.631 143.201 770.354 146.016 770.894 148.731C771.434 151.447 772.768 153.942 774.726 155.899C776.684 157.857 779.178 159.191 781.894 159.731C784.61 160.271 787.425 159.994 789.983 158.934C792.541 157.875 794.727 156.08 796.266 153.778C797.804 151.476 798.625 148.769 798.625 146C798.621 142.288 797.145 138.73 794.52 136.105C791.896 133.48 788.337 132.004 784.625 132ZM784.625 158C782.252 158 779.932 157.296 777.958 155.978C775.985 154.659 774.447 152.785 773.539 150.592C772.63 148.399 772.393 145.987 772.856 143.659C773.319 141.331 774.462 139.193 776.14 137.515C777.818 135.836 779.956 134.694 782.284 134.231C784.612 133.768 787.025 134.005 789.217 134.913C791.41 135.822 793.284 137.36 794.603 139.333C795.921 141.307 796.625 143.627 796.625 146C796.622 149.182 795.356 152.232 793.107 154.481C790.857 156.731 787.807 157.997 784.625 158Z" fill="#F55868"/>
<path d="M784.625 153C785.315 153 785.875 152.44 785.875 151.75C785.875 151.06 785.315 150.5 784.625 150.5C783.935 150.5 783.375 151.06 783.375 151.75C783.375 152.44 783.935 153 784.625 153Z" fill="#F55868"/>
<path d="M784.625 149C784.757 149 784.887 148.974 785.008 148.924C785.129 148.874 785.24 148.8 785.333 148.707C785.425 148.614 785.499 148.504 785.549 148.383C785.6 148.261 785.625 148.131 785.625 148V141C785.625 140.735 785.52 140.48 785.332 140.293C785.145 140.105 784.89 140 784.625 140C784.36 140 784.106 140.105 783.918 140.293C783.731 140.48 783.625 140.735 783.625 141V148C783.625 148.131 783.651 148.261 783.701 148.383C783.751 148.504 783.825 148.614 783.918 148.707C784.011 148.8 784.121 148.874 784.242 148.924C784.364 148.974 784.494 149 784.625 149Z" fill="#F55868"/>
</svg>
