<svg width="1150" height="260" viewBox="0 0 1150 260" fill="none" xmlns="http://www.w3.org/2000/svg">
<rect width="1150" height="260" rx="16" fill="#262626"/>
<path d="M426.233 115V104.818H427.466V113.906H432.199V115H426.233ZM436.196 115.179C435.712 115.179 435.273 115.088 434.879 114.906C434.484 114.72 434.171 114.453 433.939 114.105C433.707 113.754 433.591 113.33 433.591 112.832C433.591 112.395 433.677 112.04 433.849 111.768C434.022 111.493 434.252 111.278 434.54 111.122C434.829 110.966 435.147 110.85 435.495 110.774C435.846 110.695 436.199 110.632 436.554 110.585C437.018 110.526 437.394 110.481 437.683 110.451C437.974 110.418 438.186 110.363 438.319 110.287C438.455 110.211 438.523 110.078 438.523 109.889V109.849C438.523 109.359 438.388 108.978 438.12 108.706C437.855 108.434 437.452 108.298 436.912 108.298C436.352 108.298 435.913 108.421 435.594 108.666C435.276 108.911 435.053 109.173 434.923 109.452L433.81 109.054C434.009 108.59 434.274 108.229 434.605 107.97C434.94 107.708 435.304 107.526 435.699 107.423C436.097 107.317 436.488 107.264 436.872 107.264C437.117 107.264 437.399 107.294 437.717 107.354C438.039 107.41 438.349 107.528 438.647 107.707C438.949 107.886 439.199 108.156 439.398 108.517C439.597 108.878 439.696 109.362 439.696 109.969V115H438.523V113.966H438.463C438.384 114.132 438.251 114.309 438.065 114.498C437.88 114.687 437.633 114.848 437.325 114.98C437.016 115.113 436.64 115.179 436.196 115.179ZM436.375 114.125C436.839 114.125 437.23 114.034 437.548 113.852C437.87 113.669 438.112 113.434 438.274 113.146C438.44 112.857 438.523 112.554 438.523 112.236V111.162C438.473 111.222 438.364 111.276 438.195 111.326C438.029 111.372 437.837 111.414 437.618 111.45C437.402 111.483 437.192 111.513 436.987 111.54C436.784 111.563 436.62 111.583 436.494 111.599C436.189 111.639 435.904 111.704 435.639 111.793C435.377 111.879 435.165 112.01 435.003 112.186C434.844 112.358 434.764 112.594 434.764 112.892C434.764 113.3 434.915 113.608 435.217 113.817C435.522 114.022 435.908 114.125 436.375 114.125ZM441.997 115V104.818H443.17V108.577H443.269C443.356 108.444 443.475 108.275 443.627 108.07C443.783 107.861 444.005 107.675 444.294 107.513C444.585 107.347 444.98 107.264 445.477 107.264C446.12 107.264 446.686 107.425 447.177 107.746C447.668 108.068 448.05 108.524 448.325 109.114C448.601 109.704 448.738 110.4 448.738 111.202C448.738 112.01 448.601 112.711 448.325 113.305C448.05 113.895 447.669 114.352 447.182 114.677C446.695 114.998 446.133 115.159 445.497 115.159C445.006 115.159 444.613 115.078 444.318 114.915C444.023 114.75 443.796 114.562 443.637 114.354C443.478 114.142 443.356 113.966 443.269 113.827H443.13V115H441.997ZM443.15 111.182C443.15 111.759 443.235 112.267 443.404 112.708C443.573 113.146 443.82 113.489 444.144 113.737C444.469 113.982 444.867 114.105 445.338 114.105C445.828 114.105 446.237 113.976 446.566 113.717C446.897 113.455 447.146 113.104 447.311 112.663C447.48 112.219 447.565 111.725 447.565 111.182C447.565 110.645 447.482 110.161 447.316 109.73C447.154 109.296 446.907 108.953 446.575 108.701C446.247 108.446 445.835 108.318 445.338 108.318C444.86 108.318 444.459 108.439 444.134 108.681C443.81 108.92 443.564 109.254 443.399 109.685C443.233 110.113 443.15 110.612 443.15 111.182ZM453.735 115.159C452.999 115.159 452.364 114.997 451.83 114.672C451.3 114.344 450.891 113.886 450.602 113.3C450.317 112.71 450.175 112.024 450.175 111.241C450.175 110.459 450.317 109.77 450.602 109.173C450.891 108.573 451.292 108.106 451.806 107.771C452.323 107.433 452.926 107.264 453.615 107.264C454.013 107.264 454.406 107.33 454.794 107.463C455.181 107.596 455.534 107.811 455.852 108.109C456.171 108.404 456.424 108.795 456.613 109.283C456.802 109.77 456.896 110.37 456.896 111.082V111.58H451.01V110.565H455.703C455.703 110.134 455.617 109.75 455.445 109.412C455.276 109.074 455.034 108.807 454.719 108.612C454.407 108.416 454.039 108.318 453.615 108.318C453.148 108.318 452.744 108.434 452.402 108.666C452.064 108.895 451.804 109.193 451.622 109.561C451.439 109.929 451.348 110.323 451.348 110.744V111.42C451.348 111.997 451.448 112.486 451.646 112.887C451.849 113.285 452.129 113.588 452.487 113.797C452.845 114.002 453.261 114.105 453.735 114.105C454.043 114.105 454.321 114.062 454.57 113.976C454.822 113.886 455.039 113.754 455.221 113.578C455.403 113.399 455.544 113.177 455.644 112.912L456.777 113.23C456.658 113.615 456.457 113.953 456.176 114.244C455.894 114.533 455.546 114.758 455.132 114.92C454.717 115.08 454.252 115.159 453.735 115.159ZM459.855 104.818V115H458.681V104.818H459.855Z" fill="white" fill-opacity="0.95"/>
<path d="M698.618 115L703.172 105.991V105.912H697.922V104.818H704.445V105.972L699.911 115H698.618ZM709.343 115.139C708.76 115.139 708.235 115.023 707.767 114.791C707.3 114.559 706.925 114.241 706.644 113.837C706.362 113.432 706.208 112.972 706.181 112.455H707.374C707.421 112.915 707.63 113.296 708.001 113.598C708.375 113.896 708.823 114.045 709.343 114.045C709.761 114.045 710.132 113.948 710.457 113.752C710.785 113.557 711.042 113.288 711.227 112.947C711.416 112.602 711.511 112.213 711.511 111.778C711.511 111.334 711.413 110.938 711.218 110.59C711.025 110.239 710.76 109.962 710.422 109.76C710.084 109.558 709.698 109.455 709.264 109.452C708.952 109.448 708.632 109.496 708.304 109.596C707.976 109.692 707.706 109.816 707.494 109.969L706.34 109.83L706.957 104.818H712.247V105.912H707.991L707.633 108.915H707.693C707.901 108.749 708.163 108.612 708.478 108.502C708.793 108.393 709.121 108.338 709.463 108.338C710.086 108.338 710.641 108.487 711.128 108.786C711.619 109.08 712.003 109.485 712.281 109.999C712.563 110.512 712.704 111.099 712.704 111.759C712.704 112.408 712.558 112.988 712.267 113.499C711.978 114.006 711.58 114.407 711.073 114.702C710.566 114.993 709.99 115.139 709.343 115.139ZM719.869 113.091V112.554C719.869 112.183 719.946 111.843 720.098 111.535C720.254 111.223 720.479 110.975 720.774 110.789C721.072 110.6 721.434 110.506 721.858 110.506C722.289 110.506 722.65 110.6 722.942 110.789C723.233 110.975 723.454 111.223 723.603 111.535C723.752 111.843 723.827 112.183 723.827 112.554V113.091C723.827 113.462 723.75 113.804 723.598 114.115C723.449 114.423 723.227 114.672 722.932 114.861C722.64 115.046 722.282 115.139 721.858 115.139C721.427 115.139 721.064 115.046 720.769 114.861C720.474 114.672 720.25 114.423 720.098 114.115C719.946 113.804 719.869 113.462 719.869 113.091ZM720.884 112.554V113.091C720.884 113.399 720.956 113.676 721.102 113.921C721.248 114.163 721.5 114.284 721.858 114.284C722.206 114.284 722.451 114.163 722.594 113.921C722.74 113.676 722.812 113.399 722.812 113.091V112.554C722.812 112.246 722.743 111.971 722.604 111.729C722.464 111.483 722.216 111.361 721.858 111.361C721.51 111.361 721.26 111.483 721.107 111.729C720.958 111.971 720.884 112.246 720.884 112.554ZM714.798 107.264V106.727C714.798 106.356 714.875 106.016 715.027 105.708C715.183 105.397 715.408 105.148 715.703 104.962C716.001 104.773 716.363 104.679 716.787 104.679C717.218 104.679 717.579 104.773 717.871 104.962C718.162 105.148 718.383 105.397 718.532 105.708C718.681 106.016 718.756 106.356 718.756 106.727V107.264C718.756 107.635 718.679 107.977 718.527 108.288C718.378 108.597 718.156 108.845 717.861 109.034C717.569 109.22 717.211 109.312 716.787 109.312C716.356 109.312 715.993 109.22 715.698 109.034C715.403 108.845 715.179 108.597 715.027 108.288C714.875 107.977 714.798 107.635 714.798 107.264ZM715.812 106.727V107.264C715.812 107.572 715.885 107.849 716.031 108.094C716.177 108.336 716.429 108.457 716.787 108.457C717.135 108.457 717.38 108.336 717.523 108.094C717.669 107.849 717.741 107.572 717.741 107.264V106.727C717.741 106.419 717.672 106.144 717.533 105.902C717.393 105.657 717.145 105.534 716.787 105.534C716.439 105.534 716.189 105.657 716.036 105.902C715.887 106.144 715.812 106.419 715.812 106.727ZM715.176 115L722.176 104.818H723.31L716.31 115H715.176Z" fill="white" fill-opacity="0.95"/>
<g clip-path="url(#clip0_1906_6394)">
<rect width="300" height="4" transform="translate(425 128)" fill="#8F8F8F"/>
<rect width="225" height="4" transform="translate(425 128)" fill="#3492EB"/>
</g>
<path d="M426.233 155V144.818H427.466V149.352H432.895V144.818H434.128V155H432.895V150.446H427.466V155H426.233ZM439.639 155.159C438.903 155.159 438.268 154.997 437.735 154.672C437.204 154.344 436.795 153.886 436.507 153.3C436.222 152.71 436.079 152.024 436.079 151.241C436.079 150.459 436.222 149.77 436.507 149.173C436.795 148.573 437.196 148.106 437.71 147.771C438.227 147.433 438.83 147.264 439.52 147.264C439.917 147.264 440.31 147.33 440.698 147.463C441.086 147.596 441.439 147.811 441.757 148.109C442.075 148.404 442.328 148.795 442.517 149.283C442.706 149.77 442.801 150.37 442.801 151.082V151.58H436.914V150.565H441.608C441.608 150.134 441.521 149.75 441.349 149.412C441.18 149.074 440.938 148.807 440.623 148.612C440.312 148.416 439.944 148.318 439.52 148.318C439.052 148.318 438.648 148.434 438.306 148.666C437.968 148.895 437.708 149.193 437.526 149.561C437.344 149.929 437.252 150.323 437.252 150.744V151.42C437.252 151.997 437.352 152.486 437.551 152.887C437.753 153.285 438.033 153.588 438.391 153.797C438.749 154.002 439.165 154.105 439.639 154.105C439.947 154.105 440.225 154.062 440.474 153.976C440.726 153.886 440.943 153.754 441.125 153.578C441.308 153.399 441.449 153.177 441.548 152.912L442.681 153.23C442.562 153.615 442.362 153.953 442.08 154.244C441.798 154.533 441.45 154.758 441.036 154.92C440.622 155.08 440.156 155.159 439.639 155.159ZM445.759 144.818V155H444.586V144.818H445.759ZM447.908 157.864V147.364H449.041V148.577H449.181C449.267 148.444 449.386 148.275 449.539 148.07C449.694 147.861 449.916 147.675 450.205 147.513C450.496 147.347 450.891 147.264 451.388 147.264C452.031 147.264 452.598 147.425 453.088 147.746C453.579 148.068 453.962 148.524 454.237 149.114C454.512 149.704 454.649 150.4 454.649 151.202C454.649 152.01 454.512 152.711 454.237 153.305C453.962 153.895 453.58 154.352 453.093 154.677C452.606 154.998 452.044 155.159 451.408 155.159C450.917 155.159 450.525 155.078 450.23 154.915C449.935 154.75 449.708 154.562 449.548 154.354C449.389 154.142 449.267 153.966 449.181 153.827H449.081V157.864H447.908ZM449.061 151.182C449.061 151.759 449.146 152.267 449.315 152.708C449.484 153.146 449.731 153.489 450.056 153.737C450.38 153.982 450.778 154.105 451.249 154.105C451.739 154.105 452.149 153.976 452.477 153.717C452.808 153.455 453.057 153.104 453.222 152.663C453.392 152.219 453.476 151.725 453.476 151.182C453.476 150.645 453.393 150.161 453.227 149.73C453.065 149.296 452.818 148.953 452.487 148.701C452.159 148.446 451.746 148.318 451.249 148.318C450.771 148.318 450.37 148.439 450.046 148.681C449.721 148.92 449.476 149.254 449.31 149.685C449.144 150.113 449.061 150.612 449.061 151.182ZM459.641 155.159C458.905 155.159 458.27 154.997 457.737 154.672C457.206 154.344 456.797 153.886 456.509 153.3C456.224 152.71 456.081 152.024 456.081 151.241C456.081 150.459 456.224 149.77 456.509 149.173C456.797 148.573 457.198 148.106 457.712 147.771C458.229 147.433 458.832 147.264 459.521 147.264C459.919 147.264 460.312 147.33 460.7 147.463C461.088 147.596 461.441 147.811 461.759 148.109C462.077 148.404 462.33 148.795 462.519 149.283C462.708 149.77 462.803 150.37 462.803 151.082V151.58H456.916V150.565H461.61C461.61 150.134 461.523 149.75 461.351 149.412C461.182 149.074 460.94 148.807 460.625 148.612C460.314 148.416 459.946 148.318 459.521 148.318C459.054 148.318 458.65 148.434 458.308 148.666C457.97 148.895 457.71 149.193 457.528 149.561C457.346 149.929 457.254 150.323 457.254 150.744V151.42C457.254 151.997 457.354 152.486 457.553 152.887C457.755 153.285 458.035 153.588 458.393 153.797C458.751 154.002 459.167 154.105 459.641 154.105C459.949 154.105 460.227 154.062 460.476 153.976C460.728 153.886 460.945 153.754 461.127 153.578C461.31 153.399 461.45 153.177 461.55 152.912L462.683 153.23C462.564 153.615 462.364 153.953 462.082 154.244C461.8 154.533 461.452 154.758 461.038 154.92C460.624 155.08 460.158 155.159 459.641 155.159ZM464.588 155V147.364H465.721V148.517H465.801C465.94 148.139 466.192 147.833 466.556 147.597C466.921 147.362 467.332 147.244 467.789 147.244C467.875 147.244 467.983 147.246 468.112 147.249C468.242 147.253 468.339 147.258 468.406 147.264V148.457C468.366 148.447 468.275 148.433 468.132 148.413C467.993 148.389 467.846 148.378 467.69 148.378C467.319 148.378 466.987 148.456 466.695 148.612C466.407 148.764 466.178 148.976 466.009 149.248C465.844 149.516 465.761 149.823 465.761 150.168V155H464.588ZM477.055 147.364V148.358H473.098V147.364H477.055ZM474.251 145.534H475.424V152.812C475.424 153.144 475.472 153.393 475.569 153.558C475.668 153.721 475.794 153.83 475.946 153.886C476.102 153.939 476.266 153.966 476.439 153.966C476.568 153.966 476.674 153.959 476.757 153.946C476.84 153.929 476.906 153.916 476.956 153.906L477.194 154.96C477.115 154.99 477.004 155.02 476.861 155.05C476.719 155.083 476.538 155.099 476.319 155.099C475.988 155.099 475.663 155.028 475.345 154.886C475.03 154.743 474.768 154.526 474.559 154.234C474.354 153.943 474.251 153.575 474.251 153.131V145.534ZM481.94 155.159C481.204 155.159 480.569 154.997 480.036 154.672C479.505 154.344 479.096 153.886 478.808 153.3C478.522 152.71 478.38 152.024 478.38 151.241C478.38 150.459 478.522 149.77 478.808 149.173C479.096 148.573 479.497 148.106 480.011 147.771C480.528 147.433 481.131 147.264 481.82 147.264C482.218 147.264 482.611 147.33 482.999 147.463C483.386 147.596 483.739 147.811 484.058 148.109C484.376 148.404 484.629 148.795 484.818 149.283C485.007 149.77 485.102 150.37 485.102 151.082V151.58H479.215V150.565H483.908C483.908 150.134 483.822 149.75 483.65 149.412C483.481 149.074 483.239 148.807 482.924 148.612C482.612 148.416 482.245 148.318 481.82 148.318C481.353 148.318 480.949 148.434 480.607 148.666C480.269 148.895 480.009 149.193 479.827 149.561C479.644 149.929 479.553 150.323 479.553 150.744V151.42C479.553 151.997 479.653 152.486 479.852 152.887C480.054 153.285 480.334 153.588 480.692 153.797C481.05 154.002 481.466 154.105 481.94 154.105C482.248 154.105 482.526 154.062 482.775 153.976C483.027 153.886 483.244 153.754 483.426 153.578C483.608 153.399 483.749 153.177 483.849 152.912L484.982 153.23C484.863 153.615 484.662 153.953 484.381 154.244C484.099 154.533 483.751 154.758 483.337 154.92C482.922 155.08 482.457 155.159 481.94 155.159ZM487.556 147.364L489.386 150.486L491.215 147.364H492.568L490.102 151.182L492.568 155H491.215L489.386 152.037L487.556 155H486.204L488.63 151.182L486.204 147.364H487.556ZM497.563 147.364V148.358H493.605V147.364H497.563ZM494.759 145.534H495.932V152.812C495.932 153.144 495.98 153.393 496.076 153.558C496.176 153.721 496.302 153.83 496.454 153.886C496.61 153.939 496.774 153.966 496.946 153.966C497.076 153.966 497.182 153.959 497.265 153.946C497.347 153.929 497.414 153.916 497.463 153.906L497.702 154.96C497.623 154.99 497.511 155.02 497.369 155.05C497.226 155.083 497.046 155.099 496.827 155.099C496.496 155.099 496.171 155.028 495.853 154.886C495.538 154.743 495.276 154.526 495.067 154.234C494.862 153.943 494.759 153.575 494.759 153.131V145.534Z" fill="white" fill-opacity="0.7"/>
<defs>
<clipPath id="clip0_1906_6394">
<rect x="425" y="128" width="300" height="4" rx="2" fill="white"/>
</clipPath>
</defs>
</svg>
