<svg width="1150" height="402" viewBox="0 0 1150 402" fill="none" xmlns="http://www.w3.org/2000/svg">
<rect width="1150" height="402" rx="16" fill="#1A1A1A"/>
<path d="M578.111 92C578.111 95.866 574.977 99 571.111 99C567.245 99 564.111 95.866 564.111 92C564.111 88.134 567.245 85 571.111 85C574.977 85 578.111 88.134 578.111 92Z" stroke="#64B4FA" stroke-width="2"/>
<g clip-path="url(#clip0_2029_9110)">
<path d="M588.379 97V86.8182H589.612V95.9062H594.345V97H588.379ZM598.343 97.179C597.859 97.179 597.419 97.0878 597.025 96.9055C596.631 96.7199 596.317 96.4531 596.085 96.1051C595.853 95.7538 595.737 95.3295 595.737 94.8324C595.737 94.3949 595.824 94.0402 595.996 93.7685C596.168 93.4934 596.399 93.2779 596.687 93.1222C596.975 92.9664 597.294 92.8504 597.642 92.7741C597.993 92.6946 598.346 92.6316 598.7 92.5852C599.164 92.5256 599.541 92.4808 599.829 92.451C600.121 92.4179 600.333 92.3632 600.465 92.2869C600.601 92.2107 600.669 92.0781 600.669 91.8892V91.8494C600.669 91.3589 600.535 90.9777 600.267 90.706C600.001 90.4342 599.599 90.2983 599.058 90.2983C598.498 90.2983 598.059 90.4209 597.741 90.6662C597.423 90.9115 597.199 91.1733 597.07 91.4517L595.956 91.054C596.155 90.59 596.42 90.2287 596.752 89.9702C597.086 89.7083 597.451 89.526 597.845 89.4233C598.243 89.3172 598.634 89.2642 599.019 89.2642C599.264 89.2642 599.546 89.294 599.864 89.3537C600.185 89.41 600.495 89.5277 600.794 89.7067C601.095 89.8857 601.345 90.1558 601.544 90.517C601.743 90.8783 601.843 91.3622 601.843 91.9688V97H600.669V95.9659H600.61C600.53 96.1316 600.397 96.3089 600.212 96.4979C600.026 96.6868 599.779 96.8475 599.471 96.9801C599.163 97.1127 598.787 97.179 598.343 97.179ZM598.521 96.125C598.985 96.125 599.377 96.0339 599.695 95.8516C600.016 95.6693 600.258 95.4339 600.421 95.1456C600.586 94.8572 600.669 94.554 600.669 94.2358V93.1619C600.619 93.2216 600.51 93.2763 600.341 93.326C600.175 93.3724 599.983 93.4138 599.764 93.4503C599.549 93.4834 599.338 93.5133 599.133 93.5398C598.931 93.563 598.767 93.5829 598.641 93.5994C598.336 93.6392 598.051 93.7038 597.786 93.7933C597.524 93.8795 597.312 94.0104 597.149 94.1861C596.99 94.3584 596.911 94.5937 596.911 94.892C596.911 95.2997 597.061 95.608 597.363 95.8168C597.668 96.0223 598.054 96.125 598.521 96.125ZM604.143 97V86.8182H605.316V90.5767H605.416C605.502 90.4441 605.621 90.2751 605.774 90.0696C605.93 89.8608 606.152 89.6752 606.44 89.5128C606.732 89.3471 607.126 89.2642 607.623 89.2642C608.266 89.2642 608.833 89.425 609.324 89.7464C609.814 90.0679 610.197 90.5237 610.472 91.1136C610.747 91.7036 610.885 92.3996 610.885 93.2017C610.885 94.0104 610.747 94.7114 610.472 95.3047C610.197 95.8946 609.816 96.352 609.328 96.6768C608.841 96.9983 608.279 97.1591 607.643 97.1591C607.153 97.1591 606.76 97.0779 606.465 96.9155C606.17 96.7498 605.943 96.5625 605.784 96.3537C605.625 96.1416 605.502 95.9659 605.416 95.8267H605.277V97H604.143ZM605.297 93.1818C605.297 93.7585 605.381 94.2673 605.55 94.7081C605.719 95.1456 605.966 95.4886 606.291 95.7372C606.616 95.9825 607.013 96.1051 607.484 96.1051C607.975 96.1051 608.384 95.9759 608.712 95.7173C609.043 95.4555 609.292 95.1042 609.458 94.6634C609.627 94.2192 609.711 93.7254 609.711 93.1818C609.711 92.6449 609.628 92.161 609.463 91.7301C609.3 91.2959 609.053 90.9529 608.722 90.701C608.394 90.4458 607.981 90.3182 607.484 90.3182C607.007 90.3182 606.606 90.4392 606.281 90.6811C605.956 90.9197 605.711 91.2545 605.545 91.6854C605.379 92.1129 605.297 92.6117 605.297 93.1818ZM615.881 97.1591C615.145 97.1591 614.511 96.9967 613.977 96.6719C613.447 96.3438 613.037 95.8864 612.749 95.2997C612.464 94.7098 612.321 94.0237 612.321 93.2415C612.321 92.4593 612.464 91.7699 612.749 91.1733C613.037 90.5734 613.438 90.1061 613.952 89.7713C614.469 89.4332 615.072 89.2642 615.762 89.2642C616.159 89.2642 616.552 89.3305 616.94 89.4631C617.328 89.5956 617.681 89.8111 617.999 90.1094C618.317 90.4044 618.571 90.7955 618.76 91.2827C618.949 91.7699 619.043 92.3698 619.043 93.0824V93.5795H613.157V92.5653H617.85C617.85 92.1345 617.764 91.75 617.591 91.4119C617.422 91.0739 617.18 90.8071 616.865 90.6115C616.554 90.416 616.186 90.3182 615.762 90.3182C615.294 90.3182 614.89 90.4342 614.549 90.6662C614.211 90.8949 613.95 91.1932 613.768 91.5611C613.586 91.929 613.495 92.3234 613.495 92.7443V93.4205C613.495 93.9972 613.594 94.486 613.793 94.8871C613.995 95.2848 614.275 95.5881 614.633 95.7969C614.991 96.0024 615.407 96.1051 615.881 96.1051C616.189 96.1051 616.468 96.062 616.716 95.9759C616.968 95.8864 617.185 95.7538 617.368 95.5781C617.55 95.3991 617.691 95.1771 617.79 94.9119L618.924 95.2301C618.804 95.6146 618.604 95.9527 618.322 96.2443C618.04 96.5327 617.692 96.758 617.278 96.9205C616.864 97.0795 616.398 97.1591 615.881 97.1591ZM622.001 86.8182V97H620.828V86.8182H622.001Z" fill="white" fill-opacity="0.7"/>
</g>
<rect x="570.111" y="106" width="2" height="24" fill="#8F8F8F"/>
<path d="M578.111 144C578.111 147.866 574.977 151 571.111 151C567.245 151 564.111 147.866 564.111 144C564.111 140.134 567.245 137 571.111 137C574.977 137 578.111 140.134 578.111 144Z" stroke="#64B4FA" stroke-width="2"/>
<g clip-path="url(#clip1_2029_9110)">
<path d="M588.379 149V138.818H589.612V147.906H594.345V149H588.379ZM598.343 149.179C597.859 149.179 597.419 149.088 597.025 148.906C596.631 148.72 596.317 148.453 596.085 148.105C595.853 147.754 595.737 147.33 595.737 146.832C595.737 146.395 595.824 146.04 595.996 145.768C596.168 145.493 596.399 145.278 596.687 145.122C596.975 144.966 597.294 144.85 597.642 144.774C597.993 144.695 598.346 144.632 598.7 144.585C599.164 144.526 599.541 144.481 599.829 144.451C600.121 144.418 600.333 144.363 600.465 144.287C600.601 144.211 600.669 144.078 600.669 143.889V143.849C600.669 143.359 600.535 142.978 600.267 142.706C600.001 142.434 599.599 142.298 599.058 142.298C598.498 142.298 598.059 142.421 597.741 142.666C597.423 142.911 597.199 143.173 597.07 143.452L595.956 143.054C596.155 142.59 596.42 142.229 596.752 141.97C597.086 141.708 597.451 141.526 597.845 141.423C598.243 141.317 598.634 141.264 599.019 141.264C599.264 141.264 599.546 141.294 599.864 141.354C600.185 141.41 600.495 141.528 600.794 141.707C601.095 141.886 601.345 142.156 601.544 142.517C601.743 142.878 601.843 143.362 601.843 143.969V149H600.669V147.966H600.61C600.53 148.132 600.397 148.309 600.212 148.498C600.026 148.687 599.779 148.848 599.471 148.98C599.163 149.113 598.787 149.179 598.343 149.179ZM598.521 148.125C598.985 148.125 599.377 148.034 599.695 147.852C600.016 147.669 600.258 147.434 600.421 147.146C600.586 146.857 600.669 146.554 600.669 146.236V145.162C600.619 145.222 600.51 145.276 600.341 145.326C600.175 145.372 599.983 145.414 599.764 145.45C599.549 145.483 599.338 145.513 599.133 145.54C598.931 145.563 598.767 145.583 598.641 145.599C598.336 145.639 598.051 145.704 597.786 145.793C597.524 145.879 597.312 146.01 597.149 146.186C596.99 146.358 596.911 146.594 596.911 146.892C596.911 147.3 597.061 147.608 597.363 147.817C597.668 148.022 598.054 148.125 598.521 148.125ZM604.143 149V138.818H605.316V142.577H605.416C605.502 142.444 605.621 142.275 605.774 142.07C605.93 141.861 606.152 141.675 606.44 141.513C606.732 141.347 607.126 141.264 607.623 141.264C608.266 141.264 608.833 141.425 609.324 141.746C609.814 142.068 610.197 142.524 610.472 143.114C610.747 143.704 610.885 144.4 610.885 145.202C610.885 146.01 610.747 146.711 610.472 147.305C610.197 147.895 609.816 148.352 609.328 148.677C608.841 148.998 608.279 149.159 607.643 149.159C607.153 149.159 606.76 149.078 606.465 148.915C606.17 148.75 605.943 148.562 605.784 148.354C605.625 148.142 605.502 147.966 605.416 147.827H605.277V149H604.143ZM605.297 145.182C605.297 145.759 605.381 146.267 605.55 146.708C605.719 147.146 605.966 147.489 606.291 147.737C606.616 147.982 607.013 148.105 607.484 148.105C607.975 148.105 608.384 147.976 608.712 147.717C609.043 147.455 609.292 147.104 609.458 146.663C609.627 146.219 609.711 145.725 609.711 145.182C609.711 144.645 609.628 144.161 609.463 143.73C609.3 143.296 609.053 142.953 608.722 142.701C608.394 142.446 607.981 142.318 607.484 142.318C607.007 142.318 606.606 142.439 606.281 142.681C605.956 142.92 605.711 143.254 605.545 143.685C605.379 144.113 605.297 144.612 605.297 145.182ZM615.881 149.159C615.145 149.159 614.511 148.997 613.977 148.672C613.447 148.344 613.037 147.886 612.749 147.3C612.464 146.71 612.321 146.024 612.321 145.241C612.321 144.459 612.464 143.77 612.749 143.173C613.037 142.573 613.438 142.106 613.952 141.771C614.469 141.433 615.072 141.264 615.762 141.264C616.159 141.264 616.552 141.33 616.94 141.463C617.328 141.596 617.681 141.811 617.999 142.109C618.317 142.404 618.571 142.795 618.76 143.283C618.949 143.77 619.043 144.37 619.043 145.082V145.58H613.157V144.565H617.85C617.85 144.134 617.764 143.75 617.591 143.412C617.422 143.074 617.18 142.807 616.865 142.612C616.554 142.416 616.186 142.318 615.762 142.318C615.294 142.318 614.89 142.434 614.549 142.666C614.211 142.895 613.95 143.193 613.768 143.561C613.586 143.929 613.495 144.323 613.495 144.744V145.42C613.495 145.997 613.594 146.486 613.793 146.887C613.995 147.285 614.275 147.588 614.633 147.797C614.991 148.002 615.407 148.105 615.881 148.105C616.189 148.105 616.468 148.062 616.716 147.976C616.968 147.886 617.185 147.754 617.368 147.578C617.55 147.399 617.691 147.177 617.79 146.912L618.924 147.23C618.804 147.615 618.604 147.953 618.322 148.244C618.04 148.533 617.692 148.758 617.278 148.92C616.864 149.08 616.398 149.159 615.881 149.159ZM622.001 138.818V149H620.828V138.818H622.001Z" fill="white" fill-opacity="0.7"/>
</g>
<rect x="570.111" y="158" width="2" height="24" fill="#8F8F8F"/>
<path d="M578.111 196C578.111 199.866 574.977 203 571.111 203C567.245 203 564.111 199.866 564.111 196C564.111 192.134 567.245 189 571.111 189C574.977 189 578.111 192.134 578.111 196Z" stroke="#64B4FA" stroke-width="2"/>
<g clip-path="url(#clip2_2029_9110)">
<path d="M588.379 201V190.818H589.612V199.906H594.345V201H588.379ZM598.343 201.179C597.859 201.179 597.419 201.088 597.025 200.906C596.631 200.72 596.317 200.453 596.085 200.105C595.853 199.754 595.737 199.33 595.737 198.832C595.737 198.395 595.824 198.04 595.996 197.768C596.168 197.493 596.399 197.278 596.687 197.122C596.975 196.966 597.294 196.85 597.642 196.774C597.993 196.695 598.346 196.632 598.7 196.585C599.164 196.526 599.541 196.481 599.829 196.451C600.121 196.418 600.333 196.363 600.465 196.287C600.601 196.211 600.669 196.078 600.669 195.889V195.849C600.669 195.359 600.535 194.978 600.267 194.706C600.001 194.434 599.599 194.298 599.058 194.298C598.498 194.298 598.059 194.421 597.741 194.666C597.423 194.911 597.199 195.173 597.07 195.452L595.956 195.054C596.155 194.59 596.42 194.229 596.752 193.97C597.086 193.708 597.451 193.526 597.845 193.423C598.243 193.317 598.634 193.264 599.019 193.264C599.264 193.264 599.546 193.294 599.864 193.354C600.185 193.41 600.495 193.528 600.794 193.707C601.095 193.886 601.345 194.156 601.544 194.517C601.743 194.878 601.843 195.362 601.843 195.969V201H600.669V199.966H600.61C600.53 200.132 600.397 200.309 600.212 200.498C600.026 200.687 599.779 200.848 599.471 200.98C599.163 201.113 598.787 201.179 598.343 201.179ZM598.521 200.125C598.985 200.125 599.377 200.034 599.695 199.852C600.016 199.669 600.258 199.434 600.421 199.146C600.586 198.857 600.669 198.554 600.669 198.236V197.162C600.619 197.222 600.51 197.276 600.341 197.326C600.175 197.372 599.983 197.414 599.764 197.45C599.549 197.483 599.338 197.513 599.133 197.54C598.931 197.563 598.767 197.583 598.641 197.599C598.336 197.639 598.051 197.704 597.786 197.793C597.524 197.879 597.312 198.01 597.149 198.186C596.99 198.358 596.911 198.594 596.911 198.892C596.911 199.3 597.061 199.608 597.363 199.817C597.668 200.022 598.054 200.125 598.521 200.125ZM604.143 201V190.818H605.316V194.577H605.416C605.502 194.444 605.621 194.275 605.774 194.07C605.93 193.861 606.152 193.675 606.44 193.513C606.732 193.347 607.126 193.264 607.623 193.264C608.266 193.264 608.833 193.425 609.324 193.746C609.814 194.068 610.197 194.524 610.472 195.114C610.747 195.704 610.885 196.4 610.885 197.202C610.885 198.01 610.747 198.711 610.472 199.305C610.197 199.895 609.816 200.352 609.328 200.677C608.841 200.998 608.279 201.159 607.643 201.159C607.153 201.159 606.76 201.078 606.465 200.915C606.17 200.75 605.943 200.562 605.784 200.354C605.625 200.142 605.502 199.966 605.416 199.827H605.277V201H604.143ZM605.297 197.182C605.297 197.759 605.381 198.267 605.55 198.708C605.719 199.146 605.966 199.489 606.291 199.737C606.616 199.982 607.013 200.105 607.484 200.105C607.975 200.105 608.384 199.976 608.712 199.717C609.043 199.455 609.292 199.104 609.458 198.663C609.627 198.219 609.711 197.725 609.711 197.182C609.711 196.645 609.628 196.161 609.463 195.73C609.3 195.296 609.053 194.953 608.722 194.701C608.394 194.446 607.981 194.318 607.484 194.318C607.007 194.318 606.606 194.439 606.281 194.681C605.956 194.92 605.711 195.254 605.545 195.685C605.379 196.113 605.297 196.612 605.297 197.182ZM615.881 201.159C615.145 201.159 614.511 200.997 613.977 200.672C613.447 200.344 613.037 199.886 612.749 199.3C612.464 198.71 612.321 198.024 612.321 197.241C612.321 196.459 612.464 195.77 612.749 195.173C613.037 194.573 613.438 194.106 613.952 193.771C614.469 193.433 615.072 193.264 615.762 193.264C616.159 193.264 616.552 193.33 616.94 193.463C617.328 193.596 617.681 193.811 617.999 194.109C618.317 194.404 618.571 194.795 618.76 195.283C618.949 195.77 619.043 196.37 619.043 197.082V197.58H613.157V196.565H617.85C617.85 196.134 617.764 195.75 617.591 195.412C617.422 195.074 617.18 194.807 616.865 194.612C616.554 194.416 616.186 194.318 615.762 194.318C615.294 194.318 614.89 194.434 614.549 194.666C614.211 194.895 613.95 195.193 613.768 195.561C613.586 195.929 613.495 196.323 613.495 196.744V197.42C613.495 197.997 613.594 198.486 613.793 198.887C613.995 199.285 614.275 199.588 614.633 199.797C614.991 200.002 615.407 200.105 615.881 200.105C616.189 200.105 616.468 200.062 616.716 199.976C616.968 199.886 617.185 199.754 617.368 199.578C617.55 199.399 617.691 199.177 617.79 198.912L618.924 199.23C618.804 199.615 618.604 199.953 618.322 200.244C618.04 200.533 617.692 200.758 617.278 200.92C616.864 201.08 616.398 201.159 615.881 201.159ZM622.001 190.818V201H620.828V190.818H622.001Z" fill="white" fill-opacity="0.7"/>
</g>
<rect x="570.111" y="210" width="2" height="24" fill="#8F8F8F"/>
<path d="M578.111 248C578.111 251.866 574.977 255 571.111 255C567.245 255 564.111 251.866 564.111 248C564.111 244.134 567.245 241 571.111 241C574.977 241 578.111 244.134 578.111 248Z" stroke="#64B4FA" stroke-width="2"/>
<g clip-path="url(#clip3_2029_9110)">
<path d="M588.379 253V242.818H589.612V251.906H594.345V253H588.379ZM598.343 253.179C597.859 253.179 597.419 253.088 597.025 252.906C596.631 252.72 596.317 252.453 596.085 252.105C595.853 251.754 595.737 251.33 595.737 250.832C595.737 250.395 595.824 250.04 595.996 249.768C596.168 249.493 596.399 249.278 596.687 249.122C596.975 248.966 597.294 248.85 597.642 248.774C597.993 248.695 598.346 248.632 598.7 248.585C599.164 248.526 599.541 248.481 599.829 248.451C600.121 248.418 600.333 248.363 600.465 248.287C600.601 248.211 600.669 248.078 600.669 247.889V247.849C600.669 247.359 600.535 246.978 600.267 246.706C600.001 246.434 599.599 246.298 599.058 246.298C598.498 246.298 598.059 246.421 597.741 246.666C597.423 246.911 597.199 247.173 597.07 247.452L595.956 247.054C596.155 246.59 596.42 246.229 596.752 245.97C597.086 245.708 597.451 245.526 597.845 245.423C598.243 245.317 598.634 245.264 599.019 245.264C599.264 245.264 599.546 245.294 599.864 245.354C600.185 245.41 600.495 245.528 600.794 245.707C601.095 245.886 601.345 246.156 601.544 246.517C601.743 246.878 601.843 247.362 601.843 247.969V253H600.669V251.966H600.61C600.53 252.132 600.397 252.309 600.212 252.498C600.026 252.687 599.779 252.848 599.471 252.98C599.163 253.113 598.787 253.179 598.343 253.179ZM598.521 252.125C598.985 252.125 599.377 252.034 599.695 251.852C600.016 251.669 600.258 251.434 600.421 251.146C600.586 250.857 600.669 250.554 600.669 250.236V249.162C600.619 249.222 600.51 249.276 600.341 249.326C600.175 249.372 599.983 249.414 599.764 249.45C599.549 249.483 599.338 249.513 599.133 249.54C598.931 249.563 598.767 249.583 598.641 249.599C598.336 249.639 598.051 249.704 597.786 249.793C597.524 249.879 597.312 250.01 597.149 250.186C596.99 250.358 596.911 250.594 596.911 250.892C596.911 251.3 597.061 251.608 597.363 251.817C597.668 252.022 598.054 252.125 598.521 252.125ZM604.143 253V242.818H605.316V246.577H605.416C605.502 246.444 605.621 246.275 605.774 246.07C605.93 245.861 606.152 245.675 606.44 245.513C606.732 245.347 607.126 245.264 607.623 245.264C608.266 245.264 608.833 245.425 609.324 245.746C609.814 246.068 610.197 246.524 610.472 247.114C610.747 247.704 610.885 248.4 610.885 249.202C610.885 250.01 610.747 250.711 610.472 251.305C610.197 251.895 609.816 252.352 609.328 252.677C608.841 252.998 608.279 253.159 607.643 253.159C607.153 253.159 606.76 253.078 606.465 252.915C606.17 252.75 605.943 252.562 605.784 252.354C605.625 252.142 605.502 251.966 605.416 251.827H605.277V253H604.143ZM605.297 249.182C605.297 249.759 605.381 250.267 605.55 250.708C605.719 251.146 605.966 251.489 606.291 251.737C606.616 251.982 607.013 252.105 607.484 252.105C607.975 252.105 608.384 251.976 608.712 251.717C609.043 251.455 609.292 251.104 609.458 250.663C609.627 250.219 609.711 249.725 609.711 249.182C609.711 248.645 609.628 248.161 609.463 247.73C609.3 247.296 609.053 246.953 608.722 246.701C608.394 246.446 607.981 246.318 607.484 246.318C607.007 246.318 606.606 246.439 606.281 246.681C605.956 246.92 605.711 247.254 605.545 247.685C605.379 248.113 605.297 248.612 605.297 249.182ZM615.881 253.159C615.145 253.159 614.511 252.997 613.977 252.672C613.447 252.344 613.037 251.886 612.749 251.3C612.464 250.71 612.321 250.024 612.321 249.241C612.321 248.459 612.464 247.77 612.749 247.173C613.037 246.573 613.438 246.106 613.952 245.771C614.469 245.433 615.072 245.264 615.762 245.264C616.159 245.264 616.552 245.33 616.94 245.463C617.328 245.596 617.681 245.811 617.999 246.109C618.317 246.404 618.571 246.795 618.76 247.283C618.949 247.77 619.043 248.37 619.043 249.082V249.58H613.157V248.565H617.85C617.85 248.134 617.764 247.75 617.591 247.412C617.422 247.074 617.18 246.807 616.865 246.612C616.554 246.416 616.186 246.318 615.762 246.318C615.294 246.318 614.89 246.434 614.549 246.666C614.211 246.895 613.95 247.193 613.768 247.561C613.586 247.929 613.495 248.323 613.495 248.744V249.42C613.495 249.997 613.594 250.486 613.793 250.887C613.995 251.285 614.275 251.588 614.633 251.797C614.991 252.002 615.407 252.105 615.881 252.105C616.189 252.105 616.468 252.062 616.716 251.976C616.968 251.886 617.185 251.754 617.368 251.578C617.55 251.399 617.691 251.177 617.79 250.912L618.924 251.23C618.804 251.615 618.604 251.953 618.322 252.244C618.04 252.533 617.692 252.758 617.278 252.92C616.864 253.08 616.398 253.159 615.881 253.159ZM622.001 242.818V253H620.828V242.818H622.001Z" fill="white" fill-opacity="0.7"/>
</g>
<rect x="570.111" y="262" width="2" height="24" fill="#8F8F8F"/>
<path d="M578.111 300C578.111 303.866 574.977 307 571.111 307C567.245 307 564.111 303.866 564.111 300C564.111 296.134 567.245 293 571.111 293C574.977 293 578.111 296.134 578.111 300Z" stroke="#64B4FA" stroke-width="2"/>
<g clip-path="url(#clip4_2029_9110)">
<path d="M588.379 305V294.818H589.612V303.906H594.345V305H588.379ZM598.343 305.179C597.859 305.179 597.419 305.088 597.025 304.906C596.631 304.72 596.317 304.453 596.085 304.105C595.853 303.754 595.737 303.33 595.737 302.832C595.737 302.395 595.824 302.04 595.996 301.768C596.168 301.493 596.399 301.278 596.687 301.122C596.975 300.966 597.294 300.85 597.642 300.774C597.993 300.695 598.346 300.632 598.7 300.585C599.164 300.526 599.541 300.481 599.829 300.451C600.121 300.418 600.333 300.363 600.465 300.287C600.601 300.211 600.669 300.078 600.669 299.889V299.849C600.669 299.359 600.535 298.978 600.267 298.706C600.001 298.434 599.599 298.298 599.058 298.298C598.498 298.298 598.059 298.421 597.741 298.666C597.423 298.911 597.199 299.173 597.07 299.452L595.956 299.054C596.155 298.59 596.42 298.229 596.752 297.97C597.086 297.708 597.451 297.526 597.845 297.423C598.243 297.317 598.634 297.264 599.019 297.264C599.264 297.264 599.546 297.294 599.864 297.354C600.185 297.41 600.495 297.528 600.794 297.707C601.095 297.886 601.345 298.156 601.544 298.517C601.743 298.878 601.843 299.362 601.843 299.969V305H600.669V303.966H600.61C600.53 304.132 600.397 304.309 600.212 304.498C600.026 304.687 599.779 304.848 599.471 304.98C599.163 305.113 598.787 305.179 598.343 305.179ZM598.521 304.125C598.985 304.125 599.377 304.034 599.695 303.852C600.016 303.669 600.258 303.434 600.421 303.146C600.586 302.857 600.669 302.554 600.669 302.236V301.162C600.619 301.222 600.51 301.276 600.341 301.326C600.175 301.372 599.983 301.414 599.764 301.45C599.549 301.483 599.338 301.513 599.133 301.54C598.931 301.563 598.767 301.583 598.641 301.599C598.336 301.639 598.051 301.704 597.786 301.793C597.524 301.879 597.312 302.01 597.149 302.186C596.99 302.358 596.911 302.594 596.911 302.892C596.911 303.3 597.061 303.608 597.363 303.817C597.668 304.022 598.054 304.125 598.521 304.125ZM604.143 305V294.818H605.316V298.577H605.416C605.502 298.444 605.621 298.275 605.774 298.07C605.93 297.861 606.152 297.675 606.44 297.513C606.732 297.347 607.126 297.264 607.623 297.264C608.266 297.264 608.833 297.425 609.324 297.746C609.814 298.068 610.197 298.524 610.472 299.114C610.747 299.704 610.885 300.4 610.885 301.202C610.885 302.01 610.747 302.711 610.472 303.305C610.197 303.895 609.816 304.352 609.328 304.677C608.841 304.998 608.279 305.159 607.643 305.159C607.153 305.159 606.76 305.078 606.465 304.915C606.17 304.75 605.943 304.562 605.784 304.354C605.625 304.142 605.502 303.966 605.416 303.827H605.277V305H604.143ZM605.297 301.182C605.297 301.759 605.381 302.267 605.55 302.708C605.719 303.146 605.966 303.489 606.291 303.737C606.616 303.982 607.013 304.105 607.484 304.105C607.975 304.105 608.384 303.976 608.712 303.717C609.043 303.455 609.292 303.104 609.458 302.663C609.627 302.219 609.711 301.725 609.711 301.182C609.711 300.645 609.628 300.161 609.463 299.73C609.3 299.296 609.053 298.953 608.722 298.701C608.394 298.446 607.981 298.318 607.484 298.318C607.007 298.318 606.606 298.439 606.281 298.681C605.956 298.92 605.711 299.254 605.545 299.685C605.379 300.113 605.297 300.612 605.297 301.182ZM615.881 305.159C615.145 305.159 614.511 304.997 613.977 304.672C613.447 304.344 613.037 303.886 612.749 303.3C612.464 302.71 612.321 302.024 612.321 301.241C612.321 300.459 612.464 299.77 612.749 299.173C613.037 298.573 613.438 298.106 613.952 297.771C614.469 297.433 615.072 297.264 615.762 297.264C616.159 297.264 616.552 297.33 616.94 297.463C617.328 297.596 617.681 297.811 617.999 298.109C618.317 298.404 618.571 298.795 618.76 299.283C618.949 299.77 619.043 300.37 619.043 301.082V301.58H613.157V300.565H617.85C617.85 300.134 617.764 299.75 617.591 299.412C617.422 299.074 617.18 298.807 616.865 298.612C616.554 298.416 616.186 298.318 615.762 298.318C615.294 298.318 614.89 298.434 614.549 298.666C614.211 298.895 613.95 299.193 613.768 299.561C613.586 299.929 613.495 300.323 613.495 300.744V301.42C613.495 301.997 613.594 302.486 613.793 302.887C613.995 303.285 614.275 303.588 614.633 303.797C614.991 304.002 615.407 304.105 615.881 304.105C616.189 304.105 616.468 304.062 616.716 303.976C616.968 303.886 617.185 303.754 617.368 303.578C617.55 303.399 617.691 303.177 617.79 302.912L618.924 303.23C618.804 303.615 618.604 303.953 618.322 304.244C618.04 304.533 617.692 304.758 617.278 304.92C616.864 305.08 616.398 305.159 615.881 305.159ZM622.001 294.818V305H620.828V294.818H622.001Z" fill="white" fill-opacity="0.7"/>
</g>
<rect x="570.111" y="314" width="2" height="24" fill="#8F8F8F"/>
<path d="M578.111 352C578.111 355.866 574.977 359 571.111 359C567.245 359 564.111 355.866 564.111 352C564.111 348.134 567.245 345 571.111 345C574.977 345 578.111 348.134 578.111 352Z" stroke="#64B4FA" stroke-width="2"/>
<g clip-path="url(#clip5_2029_9110)">
<path d="M588.379 357V346.818H589.612V355.906H594.345V357H588.379ZM598.343 357.179C597.859 357.179 597.419 357.088 597.025 356.906C596.631 356.72 596.317 356.453 596.085 356.105C595.853 355.754 595.737 355.33 595.737 354.832C595.737 354.395 595.824 354.04 595.996 353.768C596.168 353.493 596.399 353.278 596.687 353.122C596.975 352.966 597.294 352.85 597.642 352.774C597.993 352.695 598.346 352.632 598.7 352.585C599.164 352.526 599.541 352.481 599.829 352.451C600.121 352.418 600.333 352.363 600.465 352.287C600.601 352.211 600.669 352.078 600.669 351.889V351.849C600.669 351.359 600.535 350.978 600.267 350.706C600.001 350.434 599.599 350.298 599.058 350.298C598.498 350.298 598.059 350.421 597.741 350.666C597.423 350.911 597.199 351.173 597.07 351.452L595.956 351.054C596.155 350.59 596.42 350.229 596.752 349.97C597.086 349.708 597.451 349.526 597.845 349.423C598.243 349.317 598.634 349.264 599.019 349.264C599.264 349.264 599.546 349.294 599.864 349.354C600.185 349.41 600.495 349.528 600.794 349.707C601.095 349.886 601.345 350.156 601.544 350.517C601.743 350.878 601.843 351.362 601.843 351.969V357H600.669V355.966H600.61C600.53 356.132 600.397 356.309 600.212 356.498C600.026 356.687 599.779 356.848 599.471 356.98C599.163 357.113 598.787 357.179 598.343 357.179ZM598.521 356.125C598.985 356.125 599.377 356.034 599.695 355.852C600.016 355.669 600.258 355.434 600.421 355.146C600.586 354.857 600.669 354.554 600.669 354.236V353.162C600.619 353.222 600.51 353.276 600.341 353.326C600.175 353.372 599.983 353.414 599.764 353.45C599.549 353.483 599.338 353.513 599.133 353.54C598.931 353.563 598.767 353.583 598.641 353.599C598.336 353.639 598.051 353.704 597.786 353.793C597.524 353.879 597.312 354.01 597.149 354.186C596.99 354.358 596.911 354.594 596.911 354.892C596.911 355.3 597.061 355.608 597.363 355.817C597.668 356.022 598.054 356.125 598.521 356.125ZM604.143 357V346.818H605.316V350.577H605.416C605.502 350.444 605.621 350.275 605.774 350.07C605.93 349.861 606.152 349.675 606.44 349.513C606.732 349.347 607.126 349.264 607.623 349.264C608.266 349.264 608.833 349.425 609.324 349.746C609.814 350.068 610.197 350.524 610.472 351.114C610.747 351.704 610.885 352.4 610.885 353.202C610.885 354.01 610.747 354.711 610.472 355.305C610.197 355.895 609.816 356.352 609.328 356.677C608.841 356.998 608.279 357.159 607.643 357.159C607.153 357.159 606.76 357.078 606.465 356.915C606.17 356.75 605.943 356.562 605.784 356.354C605.625 356.142 605.502 355.966 605.416 355.827H605.277V357H604.143ZM605.297 353.182C605.297 353.759 605.381 354.267 605.55 354.708C605.719 355.146 605.966 355.489 606.291 355.737C606.616 355.982 607.013 356.105 607.484 356.105C607.975 356.105 608.384 355.976 608.712 355.717C609.043 355.455 609.292 355.104 609.458 354.663C609.627 354.219 609.711 353.725 609.711 353.182C609.711 352.645 609.628 352.161 609.463 351.73C609.3 351.296 609.053 350.953 608.722 350.701C608.394 350.446 607.981 350.318 607.484 350.318C607.007 350.318 606.606 350.439 606.281 350.681C605.956 350.92 605.711 351.254 605.545 351.685C605.379 352.113 605.297 352.612 605.297 353.182ZM615.881 357.159C615.145 357.159 614.511 356.997 613.977 356.672C613.447 356.344 613.037 355.886 612.749 355.3C612.464 354.71 612.321 354.024 612.321 353.241C612.321 352.459 612.464 351.77 612.749 351.173C613.037 350.573 613.438 350.106 613.952 349.771C614.469 349.433 615.072 349.264 615.762 349.264C616.159 349.264 616.552 349.33 616.94 349.463C617.328 349.596 617.681 349.811 617.999 350.109C618.317 350.404 618.571 350.795 618.76 351.283C618.949 351.77 619.043 352.37 619.043 353.082V353.58H613.157V352.565H617.85C617.85 352.134 617.764 351.75 617.591 351.412C617.422 351.074 617.18 350.807 616.865 350.612C616.554 350.416 616.186 350.318 615.762 350.318C615.294 350.318 614.89 350.434 614.549 350.666C614.211 350.895 613.95 351.193 613.768 351.561C613.586 351.929 613.495 352.323 613.495 352.744V353.42C613.495 353.997 613.594 354.486 613.793 354.887C613.995 355.285 614.275 355.588 614.633 355.797C614.991 356.002 615.407 356.105 615.881 356.105C616.189 356.105 616.468 356.062 616.716 355.976C616.968 355.886 617.185 355.754 617.368 355.578C617.55 355.399 617.691 355.177 617.79 354.912L618.924 355.23C618.804 355.615 618.604 355.953 618.322 356.244C618.04 356.533 617.692 356.758 617.278 356.92C616.864 357.08 616.398 357.159 615.881 357.159ZM622.001 346.818V357H620.828V346.818H622.001Z" fill="white" fill-opacity="0.7"/>
</g>
<path d="M568.573 58H566.926V50.0703L564.376 51.0068V49.5645L568.471 48.0469H568.573V58ZM577.3 47.999V49.3867H577.19C576.648 49.3867 576.176 49.4619 575.775 49.6123C575.379 49.7581 575.044 49.9632 574.77 50.2275C574.492 50.4919 574.276 50.8086 574.121 51.1777C573.971 51.5469 573.877 51.9434 573.841 52.3672C573.95 52.2441 574.078 52.1257 574.223 52.0117C574.369 51.8932 574.531 51.7884 574.709 51.6973C574.877 51.6107 575.064 51.5423 575.269 51.4922C575.474 51.4375 575.691 51.4102 575.919 51.4102C576.402 51.4102 576.821 51.5013 577.177 51.6836C577.537 51.8659 577.833 52.112 578.065 52.4219C578.302 52.7318 578.475 53.0872 578.585 53.4883C578.699 53.8893 578.756 54.3063 578.756 54.7393C578.756 55.2132 578.683 55.6576 578.537 56.0723C578.396 56.4824 578.188 56.8402 577.915 57.1455C577.637 57.4554 577.297 57.6992 576.896 57.877C576.5 58.0501 576.046 58.1367 575.536 58.1367C575.012 58.1367 574.545 58.0365 574.135 57.8359C573.724 57.6354 573.378 57.3643 573.096 57.0225C572.795 56.667 572.567 56.25 572.412 55.7715C572.257 55.2884 572.18 54.7803 572.18 54.2471V53.5703C572.18 52.7682 572.282 52.0049 572.487 51.2803C572.697 50.5511 573.043 49.9245 573.526 49.4004C573.936 48.9492 574.442 48.6029 575.044 48.3613C575.645 48.1198 576.333 47.999 577.108 47.999H577.3ZM575.515 52.7363C575.319 52.7363 575.133 52.766 574.955 52.8252C574.777 52.8844 574.613 52.9665 574.463 53.0713C574.326 53.1761 574.203 53.2969 574.094 53.4336C573.984 53.5703 573.893 53.723 573.82 53.8916V54.3975C573.82 54.7939 573.863 55.1426 573.95 55.4434C574.041 55.7441 574.164 55.9948 574.319 56.1953C574.474 56.3958 574.654 56.5485 574.859 56.6533C575.064 56.7581 575.283 56.8105 575.515 56.8105C575.771 56.8105 575.999 56.7604 576.199 56.6602C576.4 56.5553 576.57 56.4141 576.712 56.2363C576.853 56.054 576.96 55.8398 577.033 55.5938C577.106 55.3431 577.142 55.0719 577.142 54.7803C577.142 54.5023 577.106 54.2402 577.033 53.9941C576.965 53.7435 576.862 53.5247 576.725 53.3379C576.589 53.151 576.418 53.0052 576.213 52.9004C576.012 52.791 575.78 52.7363 575.515 52.7363Z" fill="#C7A5FA"/>
<g clip-path="url(#clip6_2029_9110)">
<line x1="563.429" y1="80" x2="563.429" y2="65" stroke="#C7A5FA"/>
<line x1="562.929" y1="72.5" x2="579.929" y2="72.5" stroke="#C7A5FA"/>
<line x1="579.429" y1="80" x2="579.429" y2="65" stroke="#C7A5FA"/>
</g>
<g clip-path="url(#clip7_2029_9110)">
<rect x="563.429" y="84.5" width="15" height="15" stroke="#C7A5FA" stroke-opacity="0.5" stroke-dasharray="4 4"/>
</g>
<path d="M522.1 227H515.421V225.865L518.661 222.338C518.93 222.042 519.156 221.777 519.338 221.545C519.52 221.308 519.668 221.091 519.782 220.896C519.892 220.7 519.969 220.517 520.015 220.349C520.065 220.175 520.09 220.002 520.09 219.829C520.09 219.597 520.056 219.385 519.987 219.193C519.919 219.002 519.819 218.838 519.687 218.701C519.554 218.564 519.395 218.457 519.208 218.38C519.026 218.302 518.821 218.264 518.593 218.264C518.301 218.264 518.048 218.305 517.834 218.387C517.62 218.469 517.442 218.585 517.301 218.735C517.155 218.895 517.046 219.089 516.973 219.316C516.9 219.54 516.863 219.795 516.863 220.082H515.223C515.223 219.649 515.302 219.241 515.462 218.858C515.621 218.471 515.849 218.134 516.146 217.847C516.437 217.56 516.793 217.332 517.212 217.163C517.636 216.994 518.107 216.91 518.627 216.91C519.115 216.91 519.55 216.981 519.933 217.122C520.32 217.263 520.646 217.459 520.91 217.71C521.17 217.961 521.368 218.261 521.505 218.612C521.642 218.959 521.71 219.341 521.71 219.761C521.71 220.075 521.658 220.381 521.553 220.677C521.453 220.968 521.314 221.258 521.136 221.545C520.953 221.832 520.737 222.121 520.486 222.413C520.24 222.705 519.971 223.006 519.68 223.315L517.465 225.681H522.1V227ZM529.404 223.452H530.655V224.778H529.404V227H527.77V224.778H523.464L523.423 223.773L527.722 217.047H529.404V223.452ZM525.091 223.452H527.77V219.234L527.579 219.59L525.091 223.452ZM532.313 229.844V219.604H533.817L533.878 220.362C533.979 220.239 534.088 220.128 534.206 220.027C534.325 219.927 534.452 219.84 534.589 219.768C534.767 219.672 534.963 219.599 535.177 219.549C535.391 219.494 535.619 219.467 535.861 219.467C536.335 219.467 536.752 219.558 537.112 219.74C537.476 219.923 537.782 220.18 538.028 220.513C538.269 220.845 538.454 221.244 538.581 221.709C538.709 222.169 538.773 222.677 538.773 223.233V223.377C538.773 223.91 538.709 224.407 538.581 224.867C538.458 225.327 538.274 225.724 538.028 226.057C537.782 226.394 537.479 226.658 537.118 226.85C536.758 227.041 536.346 227.137 535.881 227.137C535.617 227.137 535.373 227.109 535.15 227.055C534.931 227 534.728 226.92 534.541 226.815C534.432 226.752 534.327 226.679 534.227 226.597C534.127 226.515 534.033 226.426 533.947 226.33V229.844H532.313ZM537.139 223.233C537.139 222.901 537.105 222.589 537.036 222.297C536.973 222.001 536.872 221.743 536.736 221.524C536.594 221.306 536.414 221.132 536.196 221.005C535.977 220.877 535.715 220.813 535.409 220.813C535.241 220.813 535.084 220.832 534.938 220.868C534.792 220.905 534.662 220.957 534.548 221.025C534.416 221.098 534.3 221.189 534.2 221.299C534.104 221.408 534.02 221.531 533.947 221.668V224.956C534.01 225.084 534.088 225.2 534.179 225.305C534.27 225.41 534.375 225.501 534.493 225.578C534.617 225.651 534.756 225.71 534.91 225.756C535.065 225.797 535.236 225.817 535.423 225.817C535.729 225.817 535.988 225.754 536.202 225.626C536.421 225.494 536.599 225.316 536.736 225.093C536.877 224.865 536.979 224.605 537.043 224.313C537.107 224.017 537.139 223.705 537.139 223.377V223.233ZM543.814 222.092L545.585 219.604H547.396L544.799 223.247L547.478 227H545.674L543.828 224.416L541.989 227H540.178L542.857 223.247L540.267 219.604H542.064L543.814 222.092Z" fill="#C7A5FA"/>
<g clip-path="url(#clip8_2029_9110)">
<line x1="567.31" y1="233.5" x2="552.31" y2="233.5" stroke="#C7A5FA"/>
<line x1="559.81" y1="234" x2="559.81" y2="210" stroke="#C7A5FA"/>
<line x1="567.31" y1="210.5" x2="552.31" y2="210.5" stroke="#C7A5FA"/>
</g>
<g clip-path="url(#clip9_2029_9110)">
<rect width="72" height="4" transform="translate(562.929 101)" fill="#30C9B0" fill-opacity="0.5"/>
<rect x="562.929" y="101" width="72" height="4" fill="#30C9B0" fill-opacity="0.5"/>
</g>
<g clip-path="url(#clip10_2029_9110)">
<line x1="636.929" y1="101.5" x2="648.929" y2="101.5" stroke="#30C9B0"/>
<line x1="643.429" y1="101" x2="643.429" y2="105" stroke="#30C9B0"/>
<line x1="636.929" y1="104.5" x2="648.929" y2="104.5" stroke="#30C9B0"/>
</g>
<path d="M657.538 104.452H658.789V105.778H657.538V108H655.904V105.778H651.598L651.557 104.773L655.857 98.0469H657.538V104.452ZM653.225 104.452H655.904V100.234L655.713 100.59L653.225 104.452Z" fill="#30C9B0"/>
<g clip-path="url(#clip11_2029_9110)">
<rect width="72" height="4" transform="translate(562.929 153)" fill="#30C9B0" fill-opacity="0.5"/>
<rect x="562.929" y="153" width="72" height="4" fill="#30C9B0" fill-opacity="0.5"/>
</g>
<g clip-path="url(#clip12_2029_9110)">
<line x1="636.929" y1="153.5" x2="648.929" y2="153.5" stroke="#30C9B0"/>
<line x1="643.429" y1="153" x2="643.429" y2="157" stroke="#30C9B0"/>
<line x1="636.929" y1="156.5" x2="648.929" y2="156.5" stroke="#30C9B0"/>
</g>
<path d="M657.538 156.452H658.789V157.778H657.538V160H655.904V157.778H651.598L651.557 156.773L655.857 150.047H657.538V156.452ZM653.225 156.452H655.904V152.234L655.713 152.59L653.225 156.452Z" fill="#30C9B0"/>
<defs>
<clipPath id="clip0_2029_9110">
<rect width="36" height="20" fill="white" transform="translate(587.111 82)"/>
</clipPath>
<clipPath id="clip1_2029_9110">
<rect width="36" height="20" fill="white" transform="translate(587.111 134)"/>
</clipPath>
<clipPath id="clip2_2029_9110">
<rect width="36" height="20" fill="white" transform="translate(587.111 186)"/>
</clipPath>
<clipPath id="clip3_2029_9110">
<rect width="36" height="20" fill="white" transform="translate(587.111 238)"/>
</clipPath>
<clipPath id="clip4_2029_9110">
<rect width="36" height="20" fill="white" transform="translate(587.111 290)"/>
</clipPath>
<clipPath id="clip5_2029_9110">
<rect width="36" height="20" fill="white" transform="translate(587.111 342)"/>
</clipPath>
<clipPath id="clip6_2029_9110">
<rect width="17" height="15" fill="white" transform="translate(562.929 65)"/>
</clipPath>
<clipPath id="clip7_2029_9110">
<rect width="16" height="16" fill="white" transform="translate(562.929 84)"/>
</clipPath>
<clipPath id="clip8_2029_9110">
<rect width="24" height="15" fill="white" transform="translate(552.31 234) rotate(-90)"/>
</clipPath>
<clipPath id="clip9_2029_9110">
<rect width="72" height="4" fill="white" transform="translate(562.929 101)"/>
</clipPath>
<clipPath id="clip10_2029_9110">
<rect width="4" height="12" fill="white" transform="translate(648.929 101) rotate(90)"/>
</clipPath>
<clipPath id="clip11_2029_9110">
<rect width="72" height="4" fill="white" transform="translate(562.929 153)"/>
</clipPath>
<clipPath id="clip12_2029_9110">
<rect width="4" height="12" fill="white" transform="translate(648.929 153) rotate(90)"/>
</clipPath>
</defs>
</svg>
