<svg width="1150" height="309" viewBox="0 0 1150 309" fill="none" xmlns="http://www.w3.org/2000/svg">
<rect width="1150" height="309" rx="16" fill="#1A1A1A"/>
<path d="M227 147C227 150.866 223.866 154 220 154C216.134 154 213 150.866 213 147C213 143.134 216.134 140 220 140C223.866 140 227 143.134 227 147Z" stroke="#64B4FA" stroke-width="2"/>
<g clip-path="url(#clip0_2029_9317)">
<path d="M203.268 178V167.818H204.501V176.906H209.234V178H203.268ZM213.231 178.179C212.747 178.179 212.308 178.088 211.914 177.906C211.519 177.72 211.206 177.453 210.974 177.105C210.742 176.754 210.626 176.33 210.626 175.832C210.626 175.395 210.712 175.04 210.885 174.768C211.057 174.493 211.287 174.278 211.576 174.122C211.864 173.966 212.182 173.85 212.53 173.774C212.882 173.695 213.234 173.632 213.589 173.585C214.053 173.526 214.429 173.481 214.718 173.451C215.009 173.418 215.221 173.363 215.354 173.287C215.49 173.211 215.558 173.078 215.558 172.889V172.849C215.558 172.359 215.424 171.978 215.155 171.706C214.89 171.434 214.487 171.298 213.947 171.298C213.387 171.298 212.948 171.421 212.63 171.666C212.311 171.911 212.088 172.173 211.958 172.452L210.845 172.054C211.044 171.59 211.309 171.229 211.64 170.97C211.975 170.708 212.34 170.526 212.734 170.423C213.132 170.317 213.523 170.264 213.907 170.264C214.153 170.264 214.434 170.294 214.752 170.354C215.074 170.41 215.384 170.528 215.682 170.707C215.984 170.886 216.234 171.156 216.433 171.517C216.632 171.878 216.731 172.362 216.731 172.969V178H215.558V176.966H215.498C215.419 177.132 215.286 177.309 215.1 177.498C214.915 177.687 214.668 177.848 214.36 177.98C214.051 178.113 213.675 178.179 213.231 178.179ZM213.41 177.125C213.874 177.125 214.265 177.034 214.583 176.852C214.905 176.669 215.147 176.434 215.309 176.146C215.475 175.857 215.558 175.554 215.558 175.236V174.162C215.508 174.222 215.399 174.276 215.23 174.326C215.064 174.372 214.872 174.414 214.653 174.45C214.438 174.483 214.227 174.513 214.022 174.54C213.819 174.563 213.655 174.583 213.529 174.599C213.225 174.639 212.94 174.704 212.674 174.793C212.413 174.879 212.2 175.01 212.038 175.186C211.879 175.358 211.799 175.594 211.799 175.892C211.799 176.3 211.95 176.608 212.252 176.817C212.557 177.022 212.943 177.125 213.41 177.125ZM219.032 178V167.818H220.205V171.577H220.305C220.391 171.444 220.51 171.275 220.662 171.07C220.818 170.861 221.04 170.675 221.329 170.513C221.62 170.347 222.015 170.264 222.512 170.264C223.155 170.264 223.722 170.425 224.212 170.746C224.703 171.068 225.086 171.524 225.361 172.114C225.636 172.704 225.773 173.4 225.773 174.202C225.773 175.01 225.636 175.711 225.361 176.305C225.086 176.895 224.704 177.352 224.217 177.677C223.73 177.998 223.168 178.159 222.532 178.159C222.041 178.159 221.648 178.078 221.354 177.915C221.059 177.75 220.831 177.562 220.672 177.354C220.513 177.142 220.391 176.966 220.305 176.827H220.165V178H219.032ZM220.185 174.182C220.185 174.759 220.27 175.267 220.439 175.708C220.608 176.146 220.855 176.489 221.18 176.737C221.504 176.982 221.902 177.105 222.373 177.105C222.863 177.105 223.273 176.976 223.601 176.717C223.932 176.455 224.181 176.104 224.346 175.663C224.515 175.219 224.6 174.725 224.6 174.182C224.6 173.645 224.517 173.161 224.351 172.73C224.189 172.296 223.942 171.953 223.611 171.701C223.282 171.446 222.87 171.318 222.373 171.318C221.895 171.318 221.494 171.439 221.17 171.681C220.845 171.92 220.599 172.254 220.434 172.685C220.268 173.113 220.185 173.612 220.185 174.182ZM230.77 178.159C230.034 178.159 229.399 177.997 228.866 177.672C228.335 177.344 227.926 176.886 227.638 176.3C227.353 175.71 227.21 175.024 227.21 174.241C227.21 173.459 227.353 172.77 227.638 172.173C227.926 171.573 228.327 171.106 228.841 170.771C229.358 170.433 229.961 170.264 230.65 170.264C231.048 170.264 231.441 170.33 231.829 170.463C232.216 170.596 232.569 170.811 232.888 171.109C233.206 171.404 233.459 171.795 233.648 172.283C233.837 172.77 233.932 173.37 233.932 174.082V174.58H228.045V173.565H232.738C232.738 173.134 232.652 172.75 232.48 172.412C232.311 172.074 232.069 171.807 231.754 171.612C231.443 171.416 231.075 171.318 230.65 171.318C230.183 171.318 229.779 171.434 229.437 171.666C229.099 171.895 228.839 172.193 228.657 172.561C228.474 172.929 228.383 173.323 228.383 173.744V174.42C228.383 174.997 228.483 175.486 228.682 175.887C228.884 176.285 229.164 176.588 229.522 176.797C229.88 177.002 230.296 177.105 230.77 177.105C231.078 177.105 231.356 177.062 231.605 176.976C231.857 176.886 232.074 176.754 232.256 176.578C232.439 176.399 232.579 176.177 232.679 175.912L233.812 176.23C233.693 176.615 233.492 176.953 233.211 177.244C232.929 177.533 232.581 177.758 232.167 177.92C231.752 178.08 231.287 178.159 230.77 178.159ZM236.89 167.818V178H235.716V167.818H236.89Z" fill="white" fill-opacity="0.7"/>
</g>
<rect x="236" y="146" width="150" height="2" fill="#8F8F8F"/>
<path d="M409 147C409 150.866 405.866 154 402 154C398.134 154 395 150.866 395 147C395 143.134 398.134 140 402 140C405.866 140 409 143.134 409 147Z" stroke="#64B4FA" stroke-width="2"/>
<g clip-path="url(#clip1_2029_9317)">
<path d="M385.268 178V167.818H386.501V176.906H391.234V178H385.268ZM395.231 178.179C394.747 178.179 394.308 178.088 393.914 177.906C393.519 177.72 393.206 177.453 392.974 177.105C392.742 176.754 392.626 176.33 392.626 175.832C392.626 175.395 392.712 175.04 392.885 174.768C393.057 174.493 393.287 174.278 393.576 174.122C393.864 173.966 394.182 173.85 394.53 173.774C394.882 173.695 395.234 173.632 395.589 173.585C396.053 173.526 396.429 173.481 396.718 173.451C397.009 173.418 397.221 173.363 397.354 173.287C397.49 173.211 397.558 173.078 397.558 172.889V172.849C397.558 172.359 397.424 171.978 397.155 171.706C396.89 171.434 396.487 171.298 395.947 171.298C395.387 171.298 394.948 171.421 394.63 171.666C394.311 171.911 394.088 172.173 393.958 172.452L392.845 172.054C393.044 171.59 393.309 171.229 393.64 170.97C393.975 170.708 394.34 170.526 394.734 170.423C395.132 170.317 395.523 170.264 395.907 170.264C396.153 170.264 396.434 170.294 396.752 170.354C397.074 170.41 397.384 170.528 397.682 170.707C397.984 170.886 398.234 171.156 398.433 171.517C398.632 171.878 398.731 172.362 398.731 172.969V178H397.558V176.966H397.498C397.419 177.132 397.286 177.309 397.1 177.498C396.915 177.687 396.668 177.848 396.36 177.98C396.051 178.113 395.675 178.179 395.231 178.179ZM395.41 177.125C395.874 177.125 396.265 177.034 396.583 176.852C396.905 176.669 397.147 176.434 397.309 176.146C397.475 175.857 397.558 175.554 397.558 175.236V174.162C397.508 174.222 397.399 174.276 397.23 174.326C397.064 174.372 396.872 174.414 396.653 174.45C396.438 174.483 396.227 174.513 396.022 174.54C395.819 174.563 395.655 174.583 395.529 174.599C395.225 174.639 394.94 174.704 394.674 174.793C394.413 174.879 394.2 175.01 394.038 175.186C393.879 175.358 393.799 175.594 393.799 175.892C393.799 176.3 393.95 176.608 394.252 176.817C394.557 177.022 394.943 177.125 395.41 177.125ZM401.032 178V167.818H402.205V171.577H402.305C402.391 171.444 402.51 171.275 402.662 171.07C402.818 170.861 403.04 170.675 403.329 170.513C403.62 170.347 404.015 170.264 404.512 170.264C405.155 170.264 405.722 170.425 406.212 170.746C406.703 171.068 407.086 171.524 407.361 172.114C407.636 172.704 407.773 173.4 407.773 174.202C407.773 175.01 407.636 175.711 407.361 176.305C407.086 176.895 406.704 177.352 406.217 177.677C405.73 177.998 405.168 178.159 404.532 178.159C404.041 178.159 403.648 178.078 403.354 177.915C403.059 177.75 402.831 177.562 402.672 177.354C402.513 177.142 402.391 176.966 402.305 176.827H402.165V178H401.032ZM402.185 174.182C402.185 174.759 402.27 175.267 402.439 175.708C402.608 176.146 402.855 176.489 403.18 176.737C403.504 176.982 403.902 177.105 404.373 177.105C404.863 177.105 405.273 176.976 405.601 176.717C405.932 176.455 406.181 176.104 406.346 175.663C406.515 175.219 406.6 174.725 406.6 174.182C406.6 173.645 406.517 173.161 406.351 172.73C406.189 172.296 405.942 171.953 405.611 171.701C405.282 171.446 404.87 171.318 404.373 171.318C403.895 171.318 403.494 171.439 403.17 171.681C402.845 171.92 402.599 172.254 402.434 172.685C402.268 173.113 402.185 173.612 402.185 174.182ZM412.77 178.159C412.034 178.159 411.399 177.997 410.866 177.672C410.335 177.344 409.926 176.886 409.638 176.3C409.353 175.71 409.21 175.024 409.21 174.241C409.21 173.459 409.353 172.77 409.638 172.173C409.926 171.573 410.327 171.106 410.841 170.771C411.358 170.433 411.961 170.264 412.65 170.264C413.048 170.264 413.441 170.33 413.829 170.463C414.216 170.596 414.569 170.811 414.888 171.109C415.206 171.404 415.459 171.795 415.648 172.283C415.837 172.77 415.932 173.37 415.932 174.082V174.58H410.045V173.565H414.738C414.738 173.134 414.652 172.75 414.48 172.412C414.311 172.074 414.069 171.807 413.754 171.612C413.443 171.416 413.075 171.318 412.65 171.318C412.183 171.318 411.779 171.434 411.437 171.666C411.099 171.895 410.839 172.193 410.657 172.561C410.474 172.929 410.383 173.323 410.383 173.744V174.42C410.383 174.997 410.483 175.486 410.682 175.887C410.884 176.285 411.164 176.588 411.522 176.797C411.88 177.002 412.296 177.105 412.77 177.105C413.078 177.105 413.356 177.062 413.605 176.976C413.857 176.886 414.074 176.754 414.256 176.578C414.439 176.399 414.579 176.177 414.679 175.912L415.812 176.23C415.693 176.615 415.492 176.953 415.211 177.244C414.929 177.533 414.581 177.758 414.167 177.92C413.752 178.08 413.287 178.159 412.77 178.159ZM418.89 167.818V178H417.716V167.818H418.89Z" fill="white" fill-opacity="0.7"/>
</g>
<rect x="418" y="146" width="150" height="2" fill="#8F8F8F"/>
<path d="M591 147C591 150.866 587.866 154 584 154C580.134 154 577 150.866 577 147C577 143.134 580.134 140 584 140C587.866 140 591 143.134 591 147Z" stroke="#64B4FA" stroke-width="2"/>
<g clip-path="url(#clip2_2029_9317)">
<path d="M567.268 178V167.818H568.501V176.906H573.234V178H567.268ZM577.231 178.179C576.747 178.179 576.308 178.088 575.914 177.906C575.519 177.72 575.206 177.453 574.974 177.105C574.742 176.754 574.626 176.33 574.626 175.832C574.626 175.395 574.712 175.04 574.885 174.768C575.057 174.493 575.287 174.278 575.576 174.122C575.864 173.966 576.182 173.85 576.53 173.774C576.882 173.695 577.234 173.632 577.589 173.585C578.053 173.526 578.429 173.481 578.718 173.451C579.009 173.418 579.221 173.363 579.354 173.287C579.49 173.211 579.558 173.078 579.558 172.889V172.849C579.558 172.359 579.424 171.978 579.155 171.706C578.89 171.434 578.487 171.298 577.947 171.298C577.387 171.298 576.948 171.421 576.63 171.666C576.311 171.911 576.088 172.173 575.958 172.452L574.845 172.054C575.044 171.59 575.309 171.229 575.64 170.97C575.975 170.708 576.34 170.526 576.734 170.423C577.132 170.317 577.523 170.264 577.907 170.264C578.153 170.264 578.434 170.294 578.752 170.354C579.074 170.41 579.384 170.528 579.682 170.707C579.984 170.886 580.234 171.156 580.433 171.517C580.632 171.878 580.731 172.362 580.731 172.969V178H579.558V176.966H579.498C579.419 177.132 579.286 177.309 579.1 177.498C578.915 177.687 578.668 177.848 578.36 177.98C578.051 178.113 577.675 178.179 577.231 178.179ZM577.41 177.125C577.874 177.125 578.265 177.034 578.583 176.852C578.905 176.669 579.147 176.434 579.309 176.146C579.475 175.857 579.558 175.554 579.558 175.236V174.162C579.508 174.222 579.399 174.276 579.23 174.326C579.064 174.372 578.872 174.414 578.653 174.45C578.438 174.483 578.227 174.513 578.022 174.54C577.819 174.563 577.655 174.583 577.529 174.599C577.225 174.639 576.94 174.704 576.674 174.793C576.413 174.879 576.2 175.01 576.038 175.186C575.879 175.358 575.799 175.594 575.799 175.892C575.799 176.3 575.95 176.608 576.252 176.817C576.557 177.022 576.943 177.125 577.41 177.125ZM583.032 178V167.818H584.205V171.577H584.305C584.391 171.444 584.51 171.275 584.662 171.07C584.818 170.861 585.04 170.675 585.329 170.513C585.62 170.347 586.015 170.264 586.512 170.264C587.155 170.264 587.722 170.425 588.212 170.746C588.703 171.068 589.086 171.524 589.361 172.114C589.636 172.704 589.773 173.4 589.773 174.202C589.773 175.01 589.636 175.711 589.361 176.305C589.086 176.895 588.704 177.352 588.217 177.677C587.73 177.998 587.168 178.159 586.532 178.159C586.041 178.159 585.648 178.078 585.354 177.915C585.059 177.75 584.831 177.562 584.672 177.354C584.513 177.142 584.391 176.966 584.305 176.827H584.165V178H583.032ZM584.185 174.182C584.185 174.759 584.27 175.267 584.439 175.708C584.608 176.146 584.855 176.489 585.18 176.737C585.504 176.982 585.902 177.105 586.373 177.105C586.863 177.105 587.273 176.976 587.601 176.717C587.932 176.455 588.181 176.104 588.346 175.663C588.515 175.219 588.6 174.725 588.6 174.182C588.6 173.645 588.517 173.161 588.351 172.73C588.189 172.296 587.942 171.953 587.611 171.701C587.282 171.446 586.87 171.318 586.373 171.318C585.895 171.318 585.494 171.439 585.17 171.681C584.845 171.92 584.599 172.254 584.434 172.685C584.268 173.113 584.185 173.612 584.185 174.182ZM594.77 178.159C594.034 178.159 593.399 177.997 592.866 177.672C592.335 177.344 591.926 176.886 591.638 176.3C591.353 175.71 591.21 175.024 591.21 174.241C591.21 173.459 591.353 172.77 591.638 172.173C591.926 171.573 592.327 171.106 592.841 170.771C593.358 170.433 593.961 170.264 594.65 170.264C595.048 170.264 595.441 170.33 595.829 170.463C596.216 170.596 596.569 170.811 596.888 171.109C597.206 171.404 597.459 171.795 597.648 172.283C597.837 172.77 597.932 173.37 597.932 174.082V174.58H592.045V173.565H596.738C596.738 173.134 596.652 172.75 596.48 172.412C596.311 172.074 596.069 171.807 595.754 171.612C595.443 171.416 595.075 171.318 594.65 171.318C594.183 171.318 593.779 171.434 593.437 171.666C593.099 171.895 592.839 172.193 592.657 172.561C592.474 172.929 592.383 173.323 592.383 173.744V174.42C592.383 174.997 592.483 175.486 592.682 175.887C592.884 176.285 593.164 176.588 593.522 176.797C593.88 177.002 594.296 177.105 594.77 177.105C595.078 177.105 595.356 177.062 595.605 176.976C595.857 176.886 596.074 176.754 596.256 176.578C596.439 176.399 596.579 176.177 596.679 175.912L597.812 176.23C597.693 176.615 597.492 176.953 597.211 177.244C596.929 177.533 596.581 177.758 596.167 177.92C595.752 178.08 595.287 178.159 594.77 178.159ZM600.89 167.818V178H599.716V167.818H600.89Z" fill="white" fill-opacity="0.7"/>
</g>
<rect x="600" y="146" width="150" height="2" fill="#8F8F8F"/>
<path d="M773 147C773 150.866 769.866 154 766 154C762.134 154 759 150.866 759 147C759 143.134 762.134 140 766 140C769.866 140 773 143.134 773 147Z" stroke="#64B4FA" stroke-width="2"/>
<g clip-path="url(#clip3_2029_9317)">
<path d="M749.268 178V167.818H750.501V176.906H755.234V178H749.268ZM759.231 178.179C758.747 178.179 758.308 178.088 757.914 177.906C757.519 177.72 757.206 177.453 756.974 177.105C756.742 176.754 756.626 176.33 756.626 175.832C756.626 175.395 756.712 175.04 756.885 174.768C757.057 174.493 757.287 174.278 757.576 174.122C757.864 173.966 758.182 173.85 758.53 173.774C758.882 173.695 759.234 173.632 759.589 173.585C760.053 173.526 760.429 173.481 760.718 173.451C761.009 173.418 761.221 173.363 761.354 173.287C761.49 173.211 761.558 173.078 761.558 172.889V172.849C761.558 172.359 761.424 171.978 761.155 171.706C760.89 171.434 760.487 171.298 759.947 171.298C759.387 171.298 758.948 171.421 758.63 171.666C758.311 171.911 758.088 172.173 757.958 172.452L756.845 172.054C757.044 171.59 757.309 171.229 757.64 170.97C757.975 170.708 758.34 170.526 758.734 170.423C759.132 170.317 759.523 170.264 759.907 170.264C760.153 170.264 760.434 170.294 760.752 170.354C761.074 170.41 761.384 170.528 761.682 170.707C761.984 170.886 762.234 171.156 762.433 171.517C762.632 171.878 762.731 172.362 762.731 172.969V178H761.558V176.966H761.498C761.419 177.132 761.286 177.309 761.1 177.498C760.915 177.687 760.668 177.848 760.36 177.98C760.051 178.113 759.675 178.179 759.231 178.179ZM759.41 177.125C759.874 177.125 760.265 177.034 760.583 176.852C760.905 176.669 761.147 176.434 761.309 176.146C761.475 175.857 761.558 175.554 761.558 175.236V174.162C761.508 174.222 761.399 174.276 761.23 174.326C761.064 174.372 760.872 174.414 760.653 174.45C760.438 174.483 760.227 174.513 760.022 174.54C759.819 174.563 759.655 174.583 759.529 174.599C759.225 174.639 758.94 174.704 758.674 174.793C758.413 174.879 758.2 175.01 758.038 175.186C757.879 175.358 757.799 175.594 757.799 175.892C757.799 176.3 757.95 176.608 758.252 176.817C758.557 177.022 758.943 177.125 759.41 177.125ZM765.032 178V167.818H766.205V171.577H766.305C766.391 171.444 766.51 171.275 766.662 171.07C766.818 170.861 767.04 170.675 767.329 170.513C767.62 170.347 768.015 170.264 768.512 170.264C769.155 170.264 769.722 170.425 770.212 170.746C770.703 171.068 771.086 171.524 771.361 172.114C771.636 172.704 771.773 173.4 771.773 174.202C771.773 175.01 771.636 175.711 771.361 176.305C771.086 176.895 770.704 177.352 770.217 177.677C769.73 177.998 769.168 178.159 768.532 178.159C768.041 178.159 767.648 178.078 767.354 177.915C767.059 177.75 766.831 177.562 766.672 177.354C766.513 177.142 766.391 176.966 766.305 176.827H766.165V178H765.032ZM766.185 174.182C766.185 174.759 766.27 175.267 766.439 175.708C766.608 176.146 766.855 176.489 767.18 176.737C767.504 176.982 767.902 177.105 768.373 177.105C768.863 177.105 769.273 176.976 769.601 176.717C769.932 176.455 770.181 176.104 770.346 175.663C770.515 175.219 770.6 174.725 770.6 174.182C770.6 173.645 770.517 173.161 770.351 172.73C770.189 172.296 769.942 171.953 769.611 171.701C769.282 171.446 768.87 171.318 768.373 171.318C767.895 171.318 767.494 171.439 767.17 171.681C766.845 171.92 766.599 172.254 766.434 172.685C766.268 173.113 766.185 173.612 766.185 174.182ZM776.77 178.159C776.034 178.159 775.399 177.997 774.866 177.672C774.335 177.344 773.926 176.886 773.638 176.3C773.353 175.71 773.21 175.024 773.21 174.241C773.21 173.459 773.353 172.77 773.638 172.173C773.926 171.573 774.327 171.106 774.841 170.771C775.358 170.433 775.961 170.264 776.65 170.264C777.048 170.264 777.441 170.33 777.829 170.463C778.216 170.596 778.569 170.811 778.888 171.109C779.206 171.404 779.459 171.795 779.648 172.283C779.837 172.77 779.932 173.37 779.932 174.082V174.58H774.045V173.565H778.738C778.738 173.134 778.652 172.75 778.48 172.412C778.311 172.074 778.069 171.807 777.754 171.612C777.443 171.416 777.075 171.318 776.65 171.318C776.183 171.318 775.779 171.434 775.437 171.666C775.099 171.895 774.839 172.193 774.657 172.561C774.474 172.929 774.383 173.323 774.383 173.744V174.42C774.383 174.997 774.483 175.486 774.682 175.887C774.884 176.285 775.164 176.588 775.522 176.797C775.88 177.002 776.296 177.105 776.77 177.105C777.078 177.105 777.356 177.062 777.605 176.976C777.857 176.886 778.074 176.754 778.256 176.578C778.439 176.399 778.579 176.177 778.679 175.912L779.812 176.23C779.693 176.615 779.492 176.953 779.211 177.244C778.929 177.533 778.581 177.758 778.167 177.92C777.752 178.08 777.287 178.159 776.77 178.159ZM782.89 167.818V178H781.716V167.818H782.89Z" fill="white" fill-opacity="0.7"/>
</g>
<rect x="782" y="146" width="150" height="2" fill="#8F8F8F"/>
<path d="M955 147C955 150.866 951.866 154 948 154C944.134 154 941 150.866 941 147C941 143.134 944.134 140 948 140C951.866 140 955 143.134 955 147Z" stroke="#64B4FA" stroke-width="2"/>
<g clip-path="url(#clip4_2029_9317)">
<path d="M931.268 178V167.818H932.501V176.906H937.234V178H931.268ZM941.231 178.179C940.747 178.179 940.308 178.088 939.914 177.906C939.519 177.72 939.206 177.453 938.974 177.105C938.742 176.754 938.626 176.33 938.626 175.832C938.626 175.395 938.712 175.04 938.885 174.768C939.057 174.493 939.287 174.278 939.576 174.122C939.864 173.966 940.182 173.85 940.53 173.774C940.882 173.695 941.234 173.632 941.589 173.585C942.053 173.526 942.429 173.481 942.718 173.451C943.009 173.418 943.221 173.363 943.354 173.287C943.49 173.211 943.558 173.078 943.558 172.889V172.849C943.558 172.359 943.424 171.978 943.155 171.706C942.89 171.434 942.487 171.298 941.947 171.298C941.387 171.298 940.948 171.421 940.63 171.666C940.311 171.911 940.088 172.173 939.958 172.452L938.845 172.054C939.044 171.59 939.309 171.229 939.64 170.97C939.975 170.708 940.34 170.526 940.734 170.423C941.132 170.317 941.523 170.264 941.907 170.264C942.153 170.264 942.434 170.294 942.752 170.354C943.074 170.41 943.384 170.528 943.682 170.707C943.984 170.886 944.234 171.156 944.433 171.517C944.632 171.878 944.731 172.362 944.731 172.969V178H943.558V176.966H943.498C943.419 177.132 943.286 177.309 943.1 177.498C942.915 177.687 942.668 177.848 942.36 177.98C942.051 178.113 941.675 178.179 941.231 178.179ZM941.41 177.125C941.874 177.125 942.265 177.034 942.583 176.852C942.905 176.669 943.147 176.434 943.309 176.146C943.475 175.857 943.558 175.554 943.558 175.236V174.162C943.508 174.222 943.399 174.276 943.23 174.326C943.064 174.372 942.872 174.414 942.653 174.45C942.438 174.483 942.227 174.513 942.022 174.54C941.819 174.563 941.655 174.583 941.529 174.599C941.225 174.639 940.94 174.704 940.674 174.793C940.413 174.879 940.2 175.01 940.038 175.186C939.879 175.358 939.799 175.594 939.799 175.892C939.799 176.3 939.95 176.608 940.252 176.817C940.557 177.022 940.943 177.125 941.41 177.125ZM947.032 178V167.818H948.205V171.577H948.305C948.391 171.444 948.51 171.275 948.662 171.07C948.818 170.861 949.04 170.675 949.329 170.513C949.62 170.347 950.015 170.264 950.512 170.264C951.155 170.264 951.722 170.425 952.212 170.746C952.703 171.068 953.086 171.524 953.361 172.114C953.636 172.704 953.773 173.4 953.773 174.202C953.773 175.01 953.636 175.711 953.361 176.305C953.086 176.895 952.704 177.352 952.217 177.677C951.73 177.998 951.168 178.159 950.532 178.159C950.041 178.159 949.648 178.078 949.354 177.915C949.059 177.75 948.831 177.562 948.672 177.354C948.513 177.142 948.391 176.966 948.305 176.827H948.165V178H947.032ZM948.185 174.182C948.185 174.759 948.27 175.267 948.439 175.708C948.608 176.146 948.855 176.489 949.18 176.737C949.504 176.982 949.902 177.105 950.373 177.105C950.863 177.105 951.273 176.976 951.601 176.717C951.932 176.455 952.181 176.104 952.346 175.663C952.515 175.219 952.6 174.725 952.6 174.182C952.6 173.645 952.517 173.161 952.351 172.73C952.189 172.296 951.942 171.953 951.611 171.701C951.282 171.446 950.87 171.318 950.373 171.318C949.895 171.318 949.494 171.439 949.17 171.681C948.845 171.92 948.599 172.254 948.434 172.685C948.268 173.113 948.185 173.612 948.185 174.182ZM958.77 178.159C958.034 178.159 957.399 177.997 956.866 177.672C956.335 177.344 955.926 176.886 955.638 176.3C955.353 175.71 955.21 175.024 955.21 174.241C955.21 173.459 955.353 172.77 955.638 172.173C955.926 171.573 956.327 171.106 956.841 170.771C957.358 170.433 957.961 170.264 958.65 170.264C959.048 170.264 959.441 170.33 959.829 170.463C960.216 170.596 960.569 170.811 960.888 171.109C961.206 171.404 961.459 171.795 961.648 172.283C961.837 172.77 961.932 173.37 961.932 174.082V174.58H956.045V173.565H960.738C960.738 173.134 960.652 172.75 960.48 172.412C960.311 172.074 960.069 171.807 959.754 171.612C959.443 171.416 959.075 171.318 958.65 171.318C958.183 171.318 957.779 171.434 957.437 171.666C957.099 171.895 956.839 172.193 956.657 172.561C956.474 172.929 956.383 173.323 956.383 173.744V174.42C956.383 174.997 956.483 175.486 956.682 175.887C956.884 176.285 957.164 176.588 957.522 176.797C957.88 177.002 958.296 177.105 958.77 177.105C959.078 177.105 959.356 177.062 959.605 176.976C959.857 176.886 960.074 176.754 960.256 176.578C960.439 176.399 960.579 176.177 960.679 175.912L961.812 176.23C961.693 176.615 961.492 176.953 961.211 177.244C960.929 177.533 960.581 177.758 960.167 177.92C959.752 178.08 959.287 178.159 958.77 178.159ZM964.89 167.818V178H963.716V167.818H964.89Z" fill="white" fill-opacity="0.7"/>
</g>
<path d="M586.277 84V118" stroke="#DA0087"/>
<path d="M586.277 126L582.277 118H590.277L586.277 126Z" fill="#DA0087"/>
<rect x="521.277" y="64" width="130" height="28" rx="14" fill="#DA0087"/>
<path d="M541.05 75.2727C540.982 74.697 540.705 74.25 540.221 73.9318C539.736 73.6136 539.141 73.4545 538.436 73.4545C537.921 73.4545 537.471 73.5379 537.084 73.7045C536.702 73.8712 536.402 74.1004 536.186 74.392C535.974 74.6837 535.868 75.0152 535.868 75.3864C535.868 75.697 535.942 75.964 536.09 76.1875C536.241 76.4072 536.435 76.5909 536.669 76.7386C536.904 76.8826 537.15 77.0019 537.408 77.0966C537.666 77.1875 537.902 77.2614 538.118 77.3182L539.3 77.6364C539.603 77.7159 539.94 77.8258 540.311 77.9659C540.686 78.1061 541.044 78.2973 541.385 78.5398C541.73 78.7784 542.014 79.0852 542.238 79.4602C542.461 79.8352 542.573 80.2955 542.573 80.8409C542.573 81.4697 542.408 82.0379 542.078 82.5455C541.753 83.053 541.275 83.4564 540.647 83.7557C540.022 84.0549 539.262 84.2045 538.368 84.2045C537.535 84.2045 536.813 84.0701 536.203 83.8011C535.597 83.5322 535.12 83.1572 534.772 82.6761C534.427 82.1951 534.232 81.6364 534.186 81H535.641C535.679 81.4394 535.827 81.803 536.084 82.0909C536.346 82.375 536.675 82.5871 537.073 82.7273C537.474 82.8636 537.906 82.9318 538.368 82.9318C538.906 82.9318 539.389 82.8447 539.817 82.6705C540.245 82.4924 540.584 82.2462 540.834 81.9318C541.084 81.6136 541.209 81.2424 541.209 80.8182C541.209 80.4318 541.101 80.1174 540.885 79.875C540.669 79.6326 540.385 79.4356 540.033 79.2841C539.681 79.1326 539.3 79 538.891 78.8864L537.459 78.4773C536.55 78.2159 535.83 77.8428 535.3 77.358C534.77 76.8731 534.505 76.2386 534.505 75.4545C534.505 74.803 534.681 74.2348 535.033 73.75C535.389 73.2614 535.866 72.8826 536.465 72.6136C537.067 72.3409 537.739 72.2045 538.482 72.2045C539.232 72.2045 539.899 72.339 540.482 72.608C541.065 72.8731 541.527 73.2367 541.868 73.6989C542.213 74.161 542.395 74.6856 542.414 75.2727H541.05ZM548.503 75.2727V76.4091H543.98V75.2727H548.503ZM545.299 73.1818H546.64V81.5C546.64 81.8788 546.694 82.1629 546.804 82.3523C546.918 82.5379 547.062 82.6629 547.236 82.7273C547.414 82.7879 547.602 82.8182 547.799 82.8182C547.946 82.8182 548.068 82.8106 548.162 82.7955C548.257 82.7765 548.333 82.7614 548.39 82.75L548.662 83.9545C548.571 83.9886 548.444 84.0227 548.282 84.0568C548.119 84.0947 547.912 84.1136 547.662 84.1136C547.283 84.1136 546.912 84.0322 546.549 83.8693C546.189 83.7064 545.89 83.4583 545.651 83.125C545.416 82.7917 545.299 82.3712 545.299 81.8636V73.1818ZM554.086 84.1818C553.245 84.1818 552.519 83.9962 551.909 83.625C551.303 83.25 550.836 82.7273 550.506 82.0568C550.18 81.3826 550.017 80.5985 550.017 79.7045C550.017 78.8106 550.18 78.0227 550.506 77.3409C550.836 76.6553 551.294 76.1212 551.881 75.7386C552.472 75.3523 553.161 75.1591 553.949 75.1591C554.404 75.1591 554.853 75.2348 555.296 75.3864C555.739 75.5379 556.142 75.7841 556.506 76.125C556.87 76.4621 557.159 76.9091 557.375 77.4659C557.591 78.0227 557.699 78.7083 557.699 79.5227V80.0909H550.972V78.9318H556.336C556.336 78.4394 556.237 78 556.04 77.6136C555.847 77.2273 555.57 76.9223 555.211 76.6989C554.855 76.4754 554.434 76.3636 553.949 76.3636C553.415 76.3636 552.953 76.4962 552.563 76.7614C552.176 77.0227 551.879 77.3636 551.671 77.7841C551.462 78.2045 551.358 78.6553 551.358 79.1364V79.9091C551.358 80.5682 551.472 81.1269 551.699 81.5852C551.93 82.0398 552.25 82.3864 552.659 82.625C553.069 82.8598 553.544 82.9773 554.086 82.9773C554.438 82.9773 554.756 82.928 555.04 82.8295C555.328 82.7273 555.576 82.5758 555.784 82.375C555.993 82.1705 556.154 81.9167 556.267 81.6136L557.563 81.9773C557.426 82.4167 557.197 82.803 556.875 83.1364C556.553 83.4659 556.156 83.7235 555.682 83.9091C555.209 84.0909 554.676 84.1818 554.086 84.1818ZM559.739 87.2727V75.2727H561.034V76.6591H561.194C561.292 76.5076 561.428 76.3144 561.603 76.0795C561.781 75.8409 562.034 75.6288 562.364 75.4432C562.697 75.2538 563.148 75.1591 563.716 75.1591C564.451 75.1591 565.099 75.3428 565.659 75.7102C566.22 76.0777 566.658 76.5985 566.972 77.2727C567.286 77.947 567.444 78.7424 567.444 79.6591C567.444 80.5833 567.286 81.3845 566.972 82.0625C566.658 82.7367 566.222 83.2595 565.665 83.6307C565.108 83.9981 564.466 84.1818 563.739 84.1818C563.178 84.1818 562.73 84.089 562.392 83.9034C562.055 83.714 561.796 83.5 561.614 83.2614C561.432 83.0189 561.292 82.8182 561.194 82.6591H561.08V87.2727H559.739ZM561.057 79.6364C561.057 80.2955 561.154 80.8769 561.347 81.3807C561.54 81.8807 561.822 82.2727 562.194 82.5568C562.565 82.8371 563.019 82.9773 563.557 82.9773C564.118 82.9773 564.586 82.8295 564.961 82.5341C565.339 82.2348 565.623 81.8333 565.813 81.3295C566.006 80.822 566.103 80.2576 566.103 79.6364C566.103 79.0227 566.008 78.4697 565.819 77.9773C565.633 77.4811 565.351 77.089 564.972 76.8011C564.597 76.5095 564.125 76.3636 563.557 76.3636C563.012 76.3636 562.553 76.5019 562.182 76.7784C561.811 77.0511 561.531 77.4337 561.341 77.9261C561.152 78.4148 561.057 78.9848 561.057 79.6364ZM575.58 72.3636V84H574.171V72.3636H575.58ZM579.564 78.75V84H578.223V75.2727H579.519V76.6364H579.632C579.837 76.1932 580.148 75.8371 580.564 75.5682C580.981 75.2955 581.519 75.1591 582.178 75.1591C582.769 75.1591 583.286 75.2803 583.729 75.5227C584.172 75.7614 584.517 76.125 584.763 76.6136C585.009 77.0985 585.132 77.7121 585.132 78.4545V84H583.792V78.5455C583.792 77.8598 583.614 77.3258 583.257 76.9432C582.901 76.5568 582.413 76.3636 581.792 76.3636C581.364 76.3636 580.981 76.4564 580.644 76.642C580.31 76.8277 580.047 77.0985 579.854 77.4545C579.661 77.8106 579.564 78.2424 579.564 78.75ZM590.878 84.1818C590.151 84.1818 589.509 83.9981 588.952 83.6307C588.395 83.2595 587.96 82.7367 587.645 82.0625C587.331 81.3845 587.174 80.5833 587.174 79.6591C587.174 78.7424 587.331 77.947 587.645 77.2727C587.96 76.5985 588.397 76.0777 588.958 75.7102C589.518 75.3428 590.166 75.1591 590.901 75.1591C591.469 75.1591 591.918 75.2538 592.248 75.4432C592.581 75.6288 592.835 75.8409 593.009 76.0795C593.187 76.3144 593.325 76.5076 593.424 76.6591H593.537V72.3636H594.878V84H593.583V82.6591H593.424C593.325 82.8182 593.185 83.0189 593.003 83.2614C592.821 83.5 592.562 83.714 592.225 83.9034C591.888 84.089 591.439 84.1818 590.878 84.1818ZM591.06 82.9773C591.598 82.9773 592.052 82.8371 592.424 82.5568C592.795 82.2727 593.077 81.8807 593.27 81.3807C593.463 80.8769 593.56 80.2955 593.56 79.6364C593.56 78.9848 593.465 78.4148 593.276 77.9261C593.087 77.4337 592.806 77.0511 592.435 76.7784C592.064 76.5019 591.605 76.3636 591.06 76.3636C590.492 76.3636 590.018 76.5095 589.64 76.8011C589.265 77.089 588.982 77.4811 588.793 77.9773C588.607 78.4697 588.515 79.0227 588.515 79.6364C588.515 80.2576 588.609 80.822 588.799 81.3295C588.992 81.8333 589.276 82.2348 589.651 82.5341C590.03 82.8295 590.499 82.9773 591.06 82.9773ZM597.52 84V75.2727H598.861V84H597.52ZM598.202 73.8182C597.941 73.8182 597.715 73.7292 597.526 73.5511C597.34 73.3731 597.248 73.1591 597.248 72.9091C597.248 72.6591 597.34 72.4451 597.526 72.267C597.715 72.089 597.941 72 598.202 72C598.463 72 598.687 72.089 598.873 72.267C599.062 72.4451 599.157 72.6591 599.157 72.9091C599.157 73.1591 599.062 73.3731 598.873 73.5511C598.687 73.7292 598.463 73.8182 598.202 73.8182ZM604.863 84.1818C604.044 84.1818 603.34 83.9886 602.749 83.6023C602.158 83.2159 601.703 82.6837 601.385 82.0057C601.067 81.3277 600.908 80.553 600.908 79.6818C600.908 78.7955 601.071 78.0133 601.397 77.3352C601.726 76.6534 602.185 76.1212 602.772 75.7386C603.363 75.3523 604.052 75.1591 604.84 75.1591C605.453 75.1591 606.007 75.2727 606.499 75.5C606.991 75.7273 607.395 76.0455 607.709 76.4545C608.024 76.8636 608.219 77.3409 608.294 77.8864H606.953C606.851 77.4886 606.624 77.1364 606.272 76.8295C605.923 76.5189 605.453 76.3636 604.863 76.3636C604.34 76.3636 603.882 76.5 603.488 76.7727C603.097 77.0417 602.792 77.4223 602.573 77.9148C602.357 78.4034 602.249 78.9773 602.249 79.6364C602.249 80.3106 602.355 80.8977 602.567 81.3977C602.783 81.8977 603.086 82.286 603.476 82.5625C603.87 82.839 604.332 82.9773 604.863 82.9773C605.211 82.9773 605.527 82.9167 605.811 82.7955C606.096 82.6742 606.336 82.5 606.533 82.2727C606.73 82.0455 606.87 81.7727 606.953 81.4545H608.294C608.219 81.9697 608.031 82.4337 607.732 82.8466C607.436 83.2557 607.044 83.5814 606.556 83.8239C606.071 84.0625 605.507 84.1818 604.863 84.1818ZM612.823 84.2045C612.27 84.2045 611.768 84.1004 611.317 83.892C610.866 83.6799 610.508 83.375 610.243 82.9773C609.978 82.5758 609.846 82.0909 609.846 81.5227C609.846 81.0227 609.944 80.6174 610.141 80.3068C610.338 79.9924 610.601 79.7462 610.931 79.5682C611.26 79.3902 611.624 79.2576 612.022 79.1705C612.423 79.0795 612.827 79.0076 613.232 78.9545C613.762 78.8864 614.192 78.8352 614.522 78.8011C614.855 78.7633 615.097 78.7008 615.249 78.6136C615.404 78.5265 615.482 78.375 615.482 78.1591V78.1136C615.482 77.553 615.328 77.1174 615.022 76.8068C614.719 76.4962 614.258 76.3409 613.641 76.3409C613.001 76.3409 612.499 76.4811 612.135 76.7614C611.772 77.0417 611.516 77.3409 611.368 77.6591L610.096 77.2045C610.323 76.6742 610.626 76.2614 611.005 75.9659C611.387 75.6667 611.804 75.4583 612.255 75.3409C612.709 75.2197 613.156 75.1591 613.596 75.1591C613.876 75.1591 614.198 75.1932 614.561 75.2614C614.929 75.3258 615.283 75.4602 615.624 75.6648C615.969 75.8693 616.255 76.178 616.482 76.5909C616.709 77.0038 616.823 77.5568 616.823 78.25V84H615.482V82.8182H615.414C615.323 83.0076 615.171 83.2102 614.959 83.4261C614.747 83.642 614.465 83.8258 614.113 83.9773C613.76 84.1288 613.33 84.2045 612.823 84.2045ZM613.027 83C613.558 83 614.005 82.8958 614.368 82.6875C614.736 82.4792 615.012 82.2102 615.198 81.8807C615.387 81.5511 615.482 81.2045 615.482 80.8409V79.6136C615.425 79.6818 615.3 79.7443 615.107 79.8011C614.917 79.8542 614.698 79.9015 614.448 79.9432C614.202 79.9811 613.961 80.0152 613.726 80.0455C613.495 80.072 613.308 80.0947 613.164 80.1136C612.815 80.1591 612.489 80.233 612.186 80.3352C611.887 80.4337 611.645 80.5833 611.459 80.7841C611.277 80.9811 611.186 81.25 611.186 81.5909C611.186 82.0568 611.359 82.4091 611.703 82.6477C612.052 82.8826 612.493 83 613.027 83ZM623.066 75.2727V76.4091H618.543V75.2727H623.066ZM619.861 73.1818H621.202V81.5C621.202 81.8788 621.257 82.1629 621.367 82.3523C621.48 82.5379 621.624 82.6629 621.799 82.7273C621.977 82.7879 622.164 82.8182 622.361 82.8182C622.509 82.8182 622.63 82.8106 622.725 82.7955C622.819 82.7765 622.895 82.7614 622.952 82.75L623.225 83.9545C623.134 83.9886 623.007 84.0227 622.844 84.0568C622.681 84.0947 622.475 84.1136 622.225 84.1136C621.846 84.1136 621.475 84.0322 621.111 83.8693C620.751 83.7064 620.452 83.4583 620.213 83.125C619.979 82.7917 619.861 82.3712 619.861 81.8636V73.1818ZM628.534 84.1818C627.747 84.1818 627.055 83.9943 626.461 83.6193C625.87 83.2443 625.408 82.7197 625.074 82.0455C624.745 81.3712 624.58 80.5833 624.58 79.6818C624.58 78.7727 624.745 77.9792 625.074 77.3011C625.408 76.6231 625.87 76.0966 626.461 75.7216C627.055 75.3466 627.747 75.1591 628.534 75.1591C629.322 75.1591 630.012 75.3466 630.603 75.7216C631.197 76.0966 631.659 76.6231 631.989 77.3011C632.322 77.9792 632.489 78.7727 632.489 79.6818C632.489 80.5833 632.322 81.3712 631.989 82.0455C631.659 82.7197 631.197 83.2443 630.603 83.6193C630.012 83.9943 629.322 84.1818 628.534 84.1818ZM628.534 82.9773C629.133 82.9773 629.625 82.8239 630.012 82.517C630.398 82.2102 630.684 81.8068 630.87 81.3068C631.055 80.8068 631.148 80.2652 631.148 79.6818C631.148 79.0985 631.055 78.5549 630.87 78.0511C630.684 77.5473 630.398 77.1402 630.012 76.8295C629.625 76.5189 629.133 76.3636 628.534 76.3636C627.936 76.3636 627.444 76.5189 627.057 76.8295C626.671 77.1402 626.385 77.5473 626.199 78.0511C626.014 78.5549 625.921 79.0985 625.921 79.6818C625.921 80.2652 626.014 80.8068 626.199 81.3068C626.385 81.8068 626.671 82.2102 627.057 82.517C627.444 82.8239 627.936 82.9773 628.534 82.9773ZM634.536 84V75.2727H635.831V76.5909H635.922C636.081 76.1591 636.369 75.8087 636.786 75.5398C637.203 75.2708 637.672 75.1364 638.195 75.1364C638.293 75.1364 638.417 75.1383 638.564 75.142C638.712 75.1458 638.824 75.1515 638.9 75.1591V76.5227C638.854 76.5114 638.75 76.4943 638.587 76.4716C638.428 76.4451 638.259 76.4318 638.081 76.4318C637.657 76.4318 637.278 76.5208 636.945 76.6989C636.615 76.8731 636.354 77.1155 636.161 77.4261C635.971 77.733 635.877 78.0833 635.877 78.4773V84H634.536Z" fill="white" fill-opacity="0.95"/>
<path d="M717.5 84V127" stroke="#DA0087"/>
<path d="M717.5 135L713.5 127H721.5L717.5 135Z" fill="#DA0087"/>
<rect x="661" y="64" width="113" height="28" rx="14" fill="#DA0087"/>
<path d="M680.773 75.2727C680.705 74.697 680.428 74.25 679.943 73.9318C679.458 73.6136 678.864 73.4545 678.159 73.4545C677.644 73.4545 677.193 73.5379 676.807 73.7045C676.424 73.8712 676.125 74.1004 675.909 74.392C675.697 74.6837 675.591 75.0152 675.591 75.3864C675.591 75.697 675.665 75.964 675.812 76.1875C675.964 76.4072 676.157 76.5909 676.392 76.7386C676.627 76.8826 676.873 77.0019 677.131 77.0966C677.388 77.1875 677.625 77.2614 677.841 77.3182L679.023 77.6364C679.326 77.7159 679.663 77.8258 680.034 77.9659C680.409 78.1061 680.767 78.2973 681.108 78.5398C681.453 78.7784 681.737 79.0852 681.96 79.4602C682.184 79.8352 682.295 80.2955 682.295 80.8409C682.295 81.4697 682.131 82.0379 681.801 82.5455C681.475 83.053 680.998 83.4564 680.369 83.7557C679.744 84.0549 678.985 84.2045 678.091 84.2045C677.258 84.2045 676.536 84.0701 675.926 83.8011C675.32 83.5322 674.843 83.1572 674.494 82.6761C674.15 82.1951 673.955 81.6364 673.909 81H675.364C675.402 81.4394 675.549 81.803 675.807 82.0909C676.068 82.375 676.398 82.5871 676.795 82.7273C677.197 82.8636 677.629 82.9318 678.091 82.9318C678.629 82.9318 679.112 82.8447 679.54 82.6705C679.968 82.4924 680.307 82.2462 680.557 81.9318C680.807 81.6136 680.932 81.2424 680.932 80.8182C680.932 80.4318 680.824 80.1174 680.608 79.875C680.392 79.6326 680.108 79.4356 679.756 79.2841C679.403 79.1326 679.023 79 678.614 78.8864L677.182 78.4773C676.273 78.2159 675.553 77.8428 675.023 77.358C674.492 76.8731 674.227 76.2386 674.227 75.4545C674.227 74.803 674.403 74.2348 674.756 73.75C675.112 73.2614 675.589 72.8826 676.188 72.6136C676.79 72.3409 677.462 72.2045 678.205 72.2045C678.955 72.2045 679.621 72.339 680.205 72.608C680.788 72.8731 681.25 73.2367 681.591 73.6989C681.936 74.161 682.117 74.6856 682.136 75.2727H680.773ZM688.226 75.2727V76.4091H683.703V75.2727H688.226ZM685.021 73.1818H686.362V81.5C686.362 81.8788 686.417 82.1629 686.527 82.3523C686.641 82.5379 686.785 82.6629 686.959 82.7273C687.137 82.7879 687.324 82.8182 687.521 82.8182C687.669 82.8182 687.79 82.8106 687.885 82.7955C687.98 82.7765 688.055 82.7614 688.112 82.75L688.385 83.9545C688.294 83.9886 688.167 84.0227 688.004 84.0568C687.841 84.0947 687.635 84.1136 687.385 84.1136C687.006 84.1136 686.635 84.0322 686.271 83.8693C685.911 83.7064 685.612 83.4583 685.374 83.125C685.139 82.7917 685.021 82.3712 685.021 81.8636V73.1818ZM693.808 84.1818C692.967 84.1818 692.242 83.9962 691.632 83.625C691.026 83.25 690.558 82.7273 690.229 82.0568C689.903 81.3826 689.74 80.5985 689.74 79.7045C689.74 78.8106 689.903 78.0227 690.229 77.3409C690.558 76.6553 691.017 76.1212 691.604 75.7386C692.195 75.3523 692.884 75.1591 693.672 75.1591C694.126 75.1591 694.575 75.2348 695.018 75.3864C695.462 75.5379 695.865 75.7841 696.229 76.125C696.592 76.4621 696.882 76.9091 697.098 77.4659C697.314 78.0227 697.422 78.7083 697.422 79.5227V80.0909H690.695V78.9318H696.058C696.058 78.4394 695.96 78 695.763 77.6136C695.57 77.2273 695.293 76.9223 694.933 76.6989C694.577 76.4754 694.157 76.3636 693.672 76.3636C693.138 76.3636 692.676 76.4962 692.286 76.7614C691.899 77.0227 691.602 77.3636 691.393 77.7841C691.185 78.2045 691.081 78.6553 691.081 79.1364V79.9091C691.081 80.5682 691.195 81.1269 691.422 81.5852C691.653 82.0398 691.973 82.3864 692.382 82.625C692.791 82.8598 693.267 82.9773 693.808 82.9773C694.161 82.9773 694.479 82.928 694.763 82.8295C695.051 82.7273 695.299 82.5758 695.507 82.375C695.715 82.1705 695.876 81.9167 695.99 81.6136L697.286 81.9773C697.149 82.4167 696.92 82.803 696.598 83.1364C696.276 83.4659 695.878 83.7235 695.405 83.9091C694.931 84.0909 694.399 84.1818 693.808 84.1818ZM699.462 87.2727V75.2727H700.757V76.6591H700.916C701.015 76.5076 701.151 76.3144 701.325 76.0795C701.503 75.8409 701.757 75.6288 702.087 75.4432C702.42 75.2538 702.871 75.1591 703.439 75.1591C704.174 75.1591 704.821 75.3428 705.382 75.7102C705.943 76.0777 706.38 76.5985 706.695 77.2727C707.009 77.947 707.166 78.7424 707.166 79.6591C707.166 80.5833 707.009 81.3845 706.695 82.0625C706.38 82.7367 705.945 83.2595 705.388 83.6307C704.831 83.9981 704.189 84.1818 703.462 84.1818C702.901 84.1818 702.452 84.089 702.115 83.9034C701.778 83.714 701.518 83.5 701.337 83.2614C701.155 83.0189 701.015 82.8182 700.916 82.6591H700.803V87.2727H699.462ZM700.78 79.6364C700.78 80.2955 700.876 80.8769 701.07 81.3807C701.263 81.8807 701.545 82.2727 701.916 82.5568C702.287 82.8371 702.742 82.9773 703.28 82.9773C703.84 82.9773 704.308 82.8295 704.683 82.5341C705.062 82.2348 705.346 81.8333 705.536 81.3295C705.729 80.822 705.825 80.2576 705.825 79.6364C705.825 79.0227 705.731 78.4697 705.541 77.9773C705.356 77.4811 705.073 77.089 704.695 76.8011C704.32 76.5095 703.848 76.3636 703.28 76.3636C702.734 76.3636 702.276 76.5019 701.905 76.7784C701.534 77.0511 701.253 77.4337 701.064 77.9261C700.875 78.4148 700.78 78.9848 700.78 79.6364ZM713.893 84V72.3636H715.234V76.6591H715.348C715.446 76.5076 715.583 76.3144 715.757 76.0795C715.935 75.8409 716.189 75.6288 716.518 75.4432C716.852 75.2538 717.303 75.1591 717.871 75.1591C718.606 75.1591 719.253 75.3428 719.814 75.7102C720.375 76.0777 720.812 76.5985 721.126 77.2727C721.441 77.947 721.598 78.7424 721.598 79.6591C721.598 80.5833 721.441 81.3845 721.126 82.0625C720.812 82.7367 720.376 83.2595 719.82 83.6307C719.263 83.9981 718.621 84.1818 717.893 84.1818C717.333 84.1818 716.884 84.089 716.547 83.9034C716.21 83.714 715.95 83.5 715.768 83.2614C715.587 83.0189 715.446 82.8182 715.348 82.6591H715.189V84H713.893ZM715.212 79.6364C715.212 80.2955 715.308 80.8769 715.501 81.3807C715.695 81.8807 715.977 82.2727 716.348 82.5568C716.719 82.8371 717.174 82.9773 717.712 82.9773C718.272 82.9773 718.74 82.8295 719.115 82.5341C719.494 82.2348 719.778 81.8333 719.967 81.3295C720.161 80.822 720.257 80.2576 720.257 79.6364C720.257 79.0227 720.162 78.4697 719.973 77.9773C719.787 77.4811 719.505 77.089 719.126 76.8011C718.751 76.5095 718.28 76.3636 717.712 76.3636C717.166 76.3636 716.708 76.5019 716.337 76.7784C715.965 77.0511 715.685 77.4337 715.496 77.9261C715.306 78.4148 715.212 78.9848 715.212 79.6364ZM723.649 84V75.2727H724.945V76.5909H725.036C725.195 76.1591 725.482 75.8087 725.899 75.5398C726.316 75.2708 726.786 75.1364 727.308 75.1364C727.407 75.1364 727.53 75.1383 727.678 75.142C727.825 75.1458 727.937 75.1515 728.013 75.1591V76.5227C727.967 76.5114 727.863 76.4943 727.7 76.4716C727.541 76.4451 727.373 76.4318 727.195 76.4318C726.77 76.4318 726.392 76.5208 726.058 76.6989C725.729 76.8731 725.467 77.1155 725.274 77.4261C725.085 77.733 724.99 78.0833 724.99 78.4773V84H723.649ZM729.602 84V75.2727H730.943V84H729.602ZM730.284 73.8182C730.023 73.8182 729.797 73.7292 729.608 73.5511C729.422 73.3731 729.33 73.1591 729.33 72.9091C729.33 72.6591 729.422 72.4451 729.608 72.267C729.797 72.089 730.023 72 730.284 72C730.545 72 730.769 72.089 730.955 72.267C731.144 72.4451 731.239 72.6591 731.239 72.9091C731.239 73.1591 731.144 73.3731 730.955 73.5511C730.769 73.7292 730.545 73.8182 730.284 73.8182ZM736.695 84.1818C735.967 84.1818 735.325 83.9981 734.768 83.6307C734.212 83.2595 733.776 82.7367 733.462 82.0625C733.147 81.3845 732.99 80.5833 732.99 79.6591C732.99 78.7424 733.147 77.947 733.462 77.2727C733.776 76.5985 734.214 76.0777 734.774 75.7102C735.335 75.3428 735.982 75.1591 736.717 75.1591C737.286 75.1591 737.734 75.2538 738.064 75.4432C738.397 75.6288 738.651 75.8409 738.825 76.0795C739.003 76.3144 739.142 76.5076 739.24 76.6591H739.354V72.3636H740.695V84H739.399V82.6591H739.24C739.142 82.8182 739.001 83.0189 738.82 83.2614C738.638 83.5 738.378 83.714 738.041 83.9034C737.704 84.089 737.255 84.1818 736.695 84.1818ZM736.876 82.9773C737.414 82.9773 737.869 82.8371 738.24 82.5568C738.611 82.2727 738.893 81.8807 739.087 81.3807C739.28 80.8769 739.376 80.2955 739.376 79.6364C739.376 78.9848 739.282 78.4148 739.092 77.9261C738.903 77.4337 738.623 77.0511 738.251 76.7784C737.88 76.5019 737.422 76.3636 736.876 76.3636C736.308 76.3636 735.835 76.5095 735.456 76.8011C735.081 77.089 734.799 77.4811 734.609 77.9773C734.424 78.4697 734.331 79.0227 734.331 79.6364C734.331 80.2576 734.426 80.822 734.615 81.3295C734.808 81.8333 735.092 82.2348 735.467 82.5341C735.846 82.8295 736.316 82.9773 736.876 82.9773ZM746.859 87.4545C746.212 87.4545 745.655 87.3712 745.189 87.2045C744.723 87.0417 744.335 86.8258 744.024 86.5568C743.717 86.2917 743.473 86.0076 743.291 85.7045L744.359 84.9545C744.481 85.1136 744.634 85.2955 744.82 85.5C745.005 85.7083 745.259 85.8883 745.581 86.0398C745.907 86.1951 746.333 86.2727 746.859 86.2727C747.564 86.2727 748.145 86.1023 748.604 85.7614C749.062 85.4205 749.291 84.8864 749.291 84.1591V82.3864H749.178C749.079 82.5455 748.939 82.7424 748.757 82.9773C748.579 83.2083 748.321 83.4148 747.984 83.5966C747.651 83.7746 747.2 83.8636 746.632 83.8636C745.928 83.8636 745.295 83.697 744.734 83.3636C744.178 83.0303 743.736 82.5455 743.411 81.9091C743.089 81.2727 742.928 80.5 742.928 79.5909C742.928 78.697 743.085 77.9186 743.399 77.2557C743.714 76.589 744.151 76.0739 744.712 75.7102C745.272 75.3428 745.92 75.1591 746.655 75.1591C747.223 75.1591 747.674 75.2538 748.007 75.4432C748.344 75.6288 748.602 75.8409 748.78 76.0795C748.962 76.3144 749.102 76.5076 749.2 76.6591H749.337V75.2727H750.632V84.25C750.632 85 750.462 85.6098 750.121 86.0795C749.784 86.553 749.329 86.8996 748.757 87.1193C748.189 87.3428 747.556 87.4545 746.859 87.4545ZM746.814 82.6591C747.352 82.6591 747.806 82.536 748.178 82.2898C748.549 82.0436 748.831 81.6894 749.024 81.2273C749.217 80.7652 749.314 80.2121 749.314 79.5682C749.314 78.9394 749.219 78.3845 749.03 77.9034C748.84 77.4223 748.56 77.0455 748.189 76.7727C747.818 76.5 747.359 76.3636 746.814 76.3636C746.246 76.3636 745.772 76.5076 745.393 76.7955C745.018 77.0833 744.736 77.4697 744.547 77.9545C744.361 78.4394 744.268 78.9773 744.268 79.5682C744.268 80.1742 744.363 80.7102 744.553 81.1761C744.746 81.6383 745.03 82.0019 745.405 82.267C745.784 82.5284 746.253 82.6591 746.814 82.6591ZM756.746 84.1818C755.905 84.1818 755.179 83.9962 754.57 83.625C753.964 83.25 753.496 82.7273 753.166 82.0568C752.84 81.3826 752.678 80.5985 752.678 79.7045C752.678 78.8106 752.84 78.0227 753.166 77.3409C753.496 76.6553 753.954 76.1212 754.541 75.7386C755.132 75.3523 755.821 75.1591 756.609 75.1591C757.064 75.1591 757.513 75.2348 757.956 75.3864C758.399 75.5379 758.803 75.7841 759.166 76.125C759.53 76.4621 759.82 76.9091 760.036 77.4659C760.251 78.0227 760.359 78.7083 760.359 79.5227V80.0909H753.632V78.9318H758.996C758.996 78.4394 758.897 78 758.7 77.6136C758.507 77.2273 758.231 76.9223 757.871 76.6989C757.515 76.4754 757.094 76.3636 756.609 76.3636C756.075 76.3636 755.613 76.4962 755.223 76.7614C754.837 77.0227 754.539 77.3636 754.331 77.7841C754.123 78.2045 754.018 78.6553 754.018 79.1364V79.9091C754.018 80.5682 754.132 81.1269 754.359 81.5852C754.59 82.0398 754.911 82.3864 755.32 82.625C755.729 82.8598 756.204 82.9773 756.746 82.9773C757.098 82.9773 757.416 82.928 757.7 82.8295C757.988 82.7273 758.236 82.5758 758.445 82.375C758.653 82.1705 758.814 81.9167 758.928 81.6136L760.223 81.9773C760.087 82.4167 759.857 82.803 759.536 83.1364C759.214 83.4659 758.816 83.7235 758.342 83.9091C757.869 84.0909 757.337 84.1818 756.746 84.1818Z" fill="white" fill-opacity="0.95"/>
<path d="M582.871 225V191" stroke="#DA0087"/>
<path d="M582.871 183L578.871 191H586.871L582.871 183Z" fill="#DA0087"/>
<rect x="530.371" y="217" width="105" height="28" rx="14" fill="#DA0087"/>
<path d="M550.144 228.273C550.076 227.697 549.799 227.25 549.314 226.932C548.829 226.614 548.235 226.455 547.53 226.455C547.015 226.455 546.564 226.538 546.178 226.705C545.795 226.871 545.496 227.1 545.28 227.392C545.068 227.684 544.962 228.015 544.962 228.386C544.962 228.697 545.036 228.964 545.184 229.188C545.335 229.407 545.528 229.591 545.763 229.739C545.998 229.883 546.244 230.002 546.502 230.097C546.759 230.187 546.996 230.261 547.212 230.318L548.394 230.636C548.697 230.716 549.034 230.826 549.405 230.966C549.78 231.106 550.138 231.297 550.479 231.54C550.824 231.778 551.108 232.085 551.331 232.46C551.555 232.835 551.667 233.295 551.667 233.841C551.667 234.47 551.502 235.038 551.172 235.545C550.846 236.053 550.369 236.456 549.74 236.756C549.115 237.055 548.356 237.205 547.462 237.205C546.629 237.205 545.907 237.07 545.297 236.801C544.691 236.532 544.214 236.157 543.865 235.676C543.521 235.195 543.326 234.636 543.28 234H544.735C544.773 234.439 544.92 234.803 545.178 235.091C545.439 235.375 545.769 235.587 546.167 235.727C546.568 235.864 547 235.932 547.462 235.932C548 235.932 548.483 235.845 548.911 235.67C549.339 235.492 549.678 235.246 549.928 234.932C550.178 234.614 550.303 234.242 550.303 233.818C550.303 233.432 550.195 233.117 549.979 232.875C549.763 232.633 549.479 232.436 549.127 232.284C548.775 232.133 548.394 232 547.985 231.886L546.553 231.477C545.644 231.216 544.924 230.843 544.394 230.358C543.864 229.873 543.598 229.239 543.598 228.455C543.598 227.803 543.775 227.235 544.127 226.75C544.483 226.261 544.96 225.883 545.559 225.614C546.161 225.341 546.833 225.205 547.576 225.205C548.326 225.205 548.992 225.339 549.576 225.608C550.159 225.873 550.621 226.237 550.962 226.699C551.307 227.161 551.489 227.686 551.507 228.273H550.144ZM557.597 228.273V229.409H553.074V228.273H557.597ZM554.392 226.182H555.733V234.5C555.733 234.879 555.788 235.163 555.898 235.352C556.012 235.538 556.156 235.663 556.33 235.727C556.508 235.788 556.695 235.818 556.892 235.818C557.04 235.818 557.161 235.811 557.256 235.795C557.351 235.777 557.426 235.761 557.483 235.75L557.756 236.955C557.665 236.989 557.538 237.023 557.375 237.057C557.212 237.095 557.006 237.114 556.756 237.114C556.377 237.114 556.006 237.032 555.642 236.869C555.283 236.706 554.983 236.458 554.745 236.125C554.51 235.792 554.392 235.371 554.392 234.864V226.182ZM563.179 237.182C562.338 237.182 561.613 236.996 561.003 236.625C560.397 236.25 559.929 235.727 559.6 235.057C559.274 234.383 559.111 233.598 559.111 232.705C559.111 231.811 559.274 231.023 559.6 230.341C559.929 229.655 560.388 229.121 560.975 228.739C561.566 228.352 562.255 228.159 563.043 228.159C563.498 228.159 563.946 228.235 564.39 228.386C564.833 228.538 565.236 228.784 565.6 229.125C565.963 229.462 566.253 229.909 566.469 230.466C566.685 231.023 566.793 231.708 566.793 232.523V233.091H560.066V231.932H565.429C565.429 231.439 565.331 231 565.134 230.614C564.941 230.227 564.664 229.922 564.304 229.699C563.948 229.475 563.528 229.364 563.043 229.364C562.509 229.364 562.047 229.496 561.657 229.761C561.27 230.023 560.973 230.364 560.765 230.784C560.556 231.205 560.452 231.655 560.452 232.136V232.909C560.452 233.568 560.566 234.127 560.793 234.585C561.024 235.04 561.344 235.386 561.753 235.625C562.162 235.86 562.638 235.977 563.179 235.977C563.532 235.977 563.85 235.928 564.134 235.83C564.422 235.727 564.67 235.576 564.878 235.375C565.087 235.17 565.248 234.917 565.361 234.614L566.657 234.977C566.52 235.417 566.291 235.803 565.969 236.136C565.647 236.466 565.249 236.723 564.776 236.909C564.302 237.091 563.77 237.182 563.179 237.182ZM568.833 240.273V228.273H570.128V229.659H570.287C570.386 229.508 570.522 229.314 570.696 229.08C570.874 228.841 571.128 228.629 571.458 228.443C571.791 228.254 572.242 228.159 572.81 228.159C573.545 228.159 574.193 228.343 574.753 228.71C575.314 229.078 575.751 229.598 576.066 230.273C576.38 230.947 576.537 231.742 576.537 232.659C576.537 233.583 576.38 234.384 576.066 235.062C575.751 235.737 575.316 236.259 574.759 236.631C574.202 236.998 573.56 237.182 572.833 237.182C572.272 237.182 571.823 237.089 571.486 236.903C571.149 236.714 570.89 236.5 570.708 236.261C570.526 236.019 570.386 235.818 570.287 235.659H570.174V240.273H568.833ZM570.151 232.636C570.151 233.295 570.248 233.877 570.441 234.381C570.634 234.881 570.916 235.273 571.287 235.557C571.658 235.837 572.113 235.977 572.651 235.977C573.212 235.977 573.679 235.83 574.054 235.534C574.433 235.235 574.717 234.833 574.907 234.33C575.1 233.822 575.196 233.258 575.196 232.636C575.196 232.023 575.102 231.47 574.912 230.977C574.727 230.481 574.444 230.089 574.066 229.801C573.691 229.509 573.219 229.364 572.651 229.364C572.105 229.364 571.647 229.502 571.276 229.778C570.905 230.051 570.624 230.434 570.435 230.926C570.246 231.415 570.151 231.985 570.151 232.636ZM583.265 237V225.364H584.674V235.75H590.083V237H583.265ZM594.651 237.205C594.098 237.205 593.596 237.1 593.145 236.892C592.694 236.68 592.337 236.375 592.071 235.977C591.806 235.576 591.674 235.091 591.674 234.523C591.674 234.023 591.772 233.617 591.969 233.307C592.166 232.992 592.429 232.746 592.759 232.568C593.088 232.39 593.452 232.258 593.85 232.17C594.251 232.08 594.655 232.008 595.06 231.955C595.59 231.886 596.02 231.835 596.35 231.801C596.683 231.763 596.926 231.701 597.077 231.614C597.232 231.527 597.31 231.375 597.31 231.159V231.114C597.31 230.553 597.157 230.117 596.85 229.807C596.547 229.496 596.087 229.341 595.469 229.341C594.829 229.341 594.327 229.481 593.963 229.761C593.6 230.042 593.344 230.341 593.196 230.659L591.924 230.205C592.151 229.674 592.454 229.261 592.833 228.966C593.215 228.667 593.632 228.458 594.083 228.341C594.537 228.22 594.984 228.159 595.424 228.159C595.704 228.159 596.026 228.193 596.39 228.261C596.757 228.326 597.111 228.46 597.452 228.665C597.797 228.869 598.083 229.178 598.31 229.591C598.537 230.004 598.651 230.557 598.651 231.25V237H597.31V235.818H597.242C597.151 236.008 596.999 236.21 596.787 236.426C596.575 236.642 596.293 236.826 595.941 236.977C595.588 237.129 595.158 237.205 594.651 237.205ZM594.855 236C595.386 236 595.833 235.896 596.196 235.688C596.564 235.479 596.84 235.21 597.026 234.881C597.215 234.551 597.31 234.205 597.31 233.841V232.614C597.253 232.682 597.128 232.744 596.935 232.801C596.746 232.854 596.526 232.902 596.276 232.943C596.03 232.981 595.789 233.015 595.554 233.045C595.323 233.072 595.136 233.095 594.992 233.114C594.643 233.159 594.318 233.233 594.015 233.335C593.715 233.434 593.473 233.583 593.287 233.784C593.105 233.981 593.015 234.25 593.015 234.591C593.015 235.057 593.187 235.409 593.532 235.648C593.88 235.883 594.321 236 594.855 236ZM601.28 237V225.364H602.621V229.659H602.735C602.833 229.508 602.97 229.314 603.144 229.08C603.322 228.841 603.576 228.629 603.905 228.443C604.239 228.254 604.689 228.159 605.257 228.159C605.992 228.159 606.64 228.343 607.201 228.71C607.761 229.078 608.199 229.598 608.513 230.273C608.828 230.947 608.985 231.742 608.985 232.659C608.985 233.583 608.828 234.384 608.513 235.062C608.199 235.737 607.763 236.259 607.206 236.631C606.65 236.998 606.007 237.182 605.28 237.182C604.72 237.182 604.271 237.089 603.934 236.903C603.596 236.714 603.337 236.5 603.155 236.261C602.973 236.019 602.833 235.818 602.735 235.659H602.576V237H601.28ZM602.598 232.636C602.598 233.295 602.695 233.877 602.888 234.381C603.081 234.881 603.364 235.273 603.735 235.557C604.106 235.837 604.56 235.977 605.098 235.977C605.659 235.977 606.127 235.83 606.502 235.534C606.881 235.235 607.165 234.833 607.354 234.33C607.547 233.822 607.644 233.258 607.644 232.636C607.644 232.023 607.549 231.47 607.36 230.977C607.174 230.481 606.892 230.089 606.513 229.801C606.138 229.509 605.667 229.364 605.098 229.364C604.553 229.364 604.095 229.502 603.723 229.778C603.352 230.051 603.072 230.434 602.882 230.926C602.693 231.415 602.598 231.985 602.598 232.636ZM614.695 237.182C613.854 237.182 613.129 236.996 612.519 236.625C611.913 236.25 611.445 235.727 611.115 235.057C610.79 234.383 610.627 233.598 610.627 232.705C610.627 231.811 610.79 231.023 611.115 230.341C611.445 229.655 611.903 229.121 612.49 228.739C613.081 228.352 613.771 228.159 614.559 228.159C615.013 228.159 615.462 228.235 615.905 228.386C616.348 228.538 616.752 228.784 617.115 229.125C617.479 229.462 617.769 229.909 617.985 230.466C618.201 231.023 618.309 231.708 618.309 232.523V233.091H611.581V231.932H616.945C616.945 231.439 616.846 231 616.65 230.614C616.456 230.227 616.18 229.922 615.82 229.699C615.464 229.475 615.043 229.364 614.559 229.364C614.025 229.364 613.562 229.496 613.172 229.761C612.786 230.023 612.489 230.364 612.28 230.784C612.072 231.205 611.968 231.655 611.968 232.136V232.909C611.968 233.568 612.081 234.127 612.309 234.585C612.54 235.04 612.86 235.386 613.269 235.625C613.678 235.86 614.153 235.977 614.695 235.977C615.047 235.977 615.365 235.928 615.65 235.83C615.937 235.727 616.185 235.576 616.394 235.375C616.602 235.17 616.763 234.917 616.877 234.614L618.172 234.977C618.036 235.417 617.807 235.803 617.485 236.136C617.163 236.466 616.765 236.723 616.292 236.909C615.818 237.091 615.286 237.182 614.695 237.182ZM621.689 225.364V237H620.348V225.364H621.689Z" fill="white" fill-opacity="0.95"/>
<defs>
<clipPath id="clip0_2029_9317">
<rect width="36" height="20" fill="white" transform="translate(202 163)"/>
</clipPath>
<clipPath id="clip1_2029_9317">
<rect width="36" height="20" fill="white" transform="translate(384 163)"/>
</clipPath>
<clipPath id="clip2_2029_9317">
<rect width="36" height="20" fill="white" transform="translate(566 163)"/>
</clipPath>
<clipPath id="clip3_2029_9317">
<rect width="36" height="20" fill="white" transform="translate(748 163)"/>
</clipPath>
<clipPath id="clip4_2029_9317">
<rect width="36" height="20" fill="white" transform="translate(930 163)"/>
</clipPath>
</defs>
</svg>
