<svg width="1150" height="259" viewBox="0 0 1150 259" fill="none" xmlns="http://www.w3.org/2000/svg">
<rect width="1150" height="259" rx="16" fill="#1A1A1A"/>
<g opacity="0.5">
<g clip-path="url(#clip0_2029_9012)">
<rect x="362.445" y="129.25" width="449.555" height="8" fill="#30C9B0" fill-opacity="0.5"/>
</g>
</g>
<g clip-path="url(#clip1_2029_9012)">
<line x1="339.445" y1="129.75" x2="354.445" y2="129.75" stroke="#30C9B0"/>
<line x1="346.945" y1="139.25" x2="346.945" y2="131.25" stroke="#30C9B0"/>
<line x1="339.445" y1="136.75" x2="354.445" y2="136.75" stroke="#30C9B0"/>
</g>
<path d="M334.29 130.922C334.29 131.223 334.24 131.503 334.14 131.763C334.044 132.022 333.907 132.255 333.729 132.46C333.62 132.592 333.495 132.715 333.354 132.829C333.212 132.943 333.055 133.043 332.882 133.13C333.087 133.226 333.276 133.337 333.449 133.465C333.627 133.588 333.782 133.731 333.914 133.896C334.101 134.114 334.247 134.363 334.352 134.641C334.456 134.919 334.509 135.219 334.509 135.543C334.509 136.003 334.424 136.411 334.256 136.767C334.087 137.122 333.857 137.418 333.565 137.655C333.269 137.897 332.923 138.079 332.526 138.202C332.134 138.325 331.711 138.387 331.255 138.387C330.79 138.387 330.357 138.325 329.956 138.202C329.56 138.079 329.215 137.897 328.924 137.655C328.628 137.418 328.395 137.124 328.227 136.773C328.062 136.418 327.98 136.008 327.98 135.543C327.98 135.27 328.017 135.01 328.09 134.764C328.167 134.518 328.277 134.29 328.418 134.08C328.559 133.88 328.728 133.7 328.924 133.54C329.124 133.376 329.348 133.237 329.594 133.123C329.384 133.018 329.193 132.891 329.02 132.74C328.851 132.59 328.707 132.424 328.589 132.241C328.466 132.054 328.37 131.849 328.302 131.626C328.233 131.403 328.199 131.168 328.199 130.922C328.199 130.48 328.274 130.088 328.425 129.746C328.58 129.404 328.792 129.115 329.061 128.878C329.325 128.641 329.642 128.463 330.011 128.345C330.384 128.222 330.792 128.16 331.234 128.16C331.672 128.16 332.075 128.222 332.444 128.345C332.818 128.463 333.144 128.641 333.422 128.878C333.691 129.11 333.903 129.4 334.058 129.746C334.213 130.088 334.29 130.48 334.29 130.922ZM332.875 135.454C332.875 135.208 332.834 134.985 332.752 134.784C332.674 134.579 332.565 134.401 332.424 134.251C332.278 134.11 332.105 134 331.904 133.923C331.704 133.845 331.483 133.807 331.241 133.807C330.991 133.807 330.765 133.845 330.564 133.923C330.368 134 330.2 134.11 330.059 134.251C329.917 134.401 329.808 134.579 329.73 134.784C329.658 134.985 329.621 135.21 329.621 135.461C329.621 135.716 329.66 135.946 329.737 136.151C329.815 136.352 329.926 136.521 330.072 136.657C330.214 136.789 330.382 136.892 330.578 136.965C330.779 137.033 331.004 137.067 331.255 137.067C331.492 137.067 331.708 137.031 331.904 136.958C332.105 136.885 332.278 136.78 332.424 136.644C332.561 136.502 332.67 136.334 332.752 136.138C332.834 135.937 332.875 135.709 332.875 135.454ZM332.663 130.983C332.663 130.76 332.627 130.557 332.554 130.375C332.485 130.193 332.39 130.033 332.267 129.896C332.139 129.769 331.989 129.669 331.815 129.596C331.642 129.523 331.446 129.486 331.228 129.486C331.013 129.486 330.82 129.523 330.646 129.596C330.478 129.664 330.332 129.762 330.209 129.89C330.09 130.017 329.999 130.174 329.936 130.361C329.872 130.548 329.84 130.756 329.84 130.983C329.84 131.207 329.872 131.412 329.936 131.599C329.999 131.781 330.095 131.936 330.223 132.063C330.346 132.196 330.494 132.298 330.667 132.371C330.84 132.444 331.034 132.48 331.248 132.48C331.462 132.48 331.656 132.444 331.829 132.371C332.002 132.298 332.15 132.196 332.273 132.063C332.396 131.936 332.492 131.781 332.561 131.599C332.629 131.412 332.663 131.207 332.663 130.983Z" fill="#30C9B0"/>
<path d="M416.555 121.25C416.555 125.116 413.421 128.25 409.555 128.25C405.689 128.25 402.555 125.116 402.555 121.25C402.555 117.384 405.689 114.25 409.555 114.25C413.421 114.25 416.555 117.384 416.555 121.25Z" stroke="#64B4FA" stroke-width="2"/>
<g clip-path="url(#clip2_2029_9012)">
<path d="M392.823 152.25V142.068H394.056V151.156H398.789V152.25H392.823ZM402.786 152.429C402.302 152.429 401.863 152.338 401.468 152.156C401.074 151.97 400.761 151.703 400.529 151.355C400.297 151.004 400.181 150.58 400.181 150.082C400.181 149.645 400.267 149.29 400.439 149.018C400.612 148.743 400.842 148.528 401.13 148.372C401.419 148.216 401.737 148.1 402.085 148.024C402.436 147.945 402.789 147.882 403.144 147.835C403.608 147.776 403.984 147.731 404.272 147.701C404.564 147.668 404.776 147.613 404.909 147.537C405.045 147.461 405.113 147.328 405.113 147.139V147.099C405.113 146.609 404.978 146.228 404.71 145.956C404.445 145.684 404.042 145.548 403.502 145.548C402.942 145.548 402.502 145.671 402.184 145.916C401.866 146.161 401.642 146.423 401.513 146.702L400.4 146.304C400.598 145.84 400.864 145.479 401.195 145.22C401.53 144.958 401.894 144.776 402.289 144.673C402.686 144.567 403.078 144.514 403.462 144.514C403.707 144.514 403.989 144.544 404.307 144.604C404.629 144.66 404.939 144.778 405.237 144.957C405.538 145.136 405.789 145.406 405.988 145.767C406.186 146.128 406.286 146.612 406.286 147.219V152.25H405.113V151.216H405.053C404.973 151.382 404.841 151.559 404.655 151.748C404.47 151.937 404.223 152.098 403.914 152.23C403.606 152.363 403.23 152.429 402.786 152.429ZM402.965 151.375C403.429 151.375 403.82 151.284 404.138 151.102C404.46 150.919 404.702 150.684 404.864 150.396C405.03 150.107 405.113 149.804 405.113 149.486V148.412C405.063 148.472 404.953 148.526 404.784 148.576C404.619 148.622 404.426 148.664 404.208 148.7C403.992 148.733 403.782 148.763 403.576 148.79C403.374 148.813 403.21 148.833 403.084 148.849C402.779 148.889 402.494 148.954 402.229 149.043C401.967 149.129 401.755 149.26 401.593 149.436C401.434 149.608 401.354 149.844 401.354 150.142C401.354 150.55 401.505 150.858 401.806 151.067C402.111 151.272 402.498 151.375 402.965 151.375ZM408.586 152.25V142.068H409.76V145.827H409.859C409.945 145.694 410.065 145.525 410.217 145.32C410.373 145.111 410.595 144.925 410.883 144.763C411.175 144.597 411.569 144.514 412.067 144.514C412.71 144.514 413.276 144.675 413.767 144.996C414.257 145.318 414.64 145.774 414.915 146.364C415.19 146.954 415.328 147.65 415.328 148.452C415.328 149.26 415.19 149.961 414.915 150.555C414.64 151.145 414.259 151.602 413.772 151.927C413.285 152.248 412.723 152.409 412.086 152.409C411.596 152.409 411.203 152.328 410.908 152.165C410.613 152 410.386 151.812 410.227 151.604C410.068 151.392 409.945 151.216 409.859 151.077H409.72V152.25H408.586ZM409.74 148.432C409.74 149.009 409.824 149.517 409.993 149.958C410.162 150.396 410.409 150.739 410.734 150.987C411.059 151.232 411.457 151.355 411.927 151.355C412.418 151.355 412.827 151.226 413.155 150.967C413.487 150.705 413.735 150.354 413.901 149.913C414.07 149.469 414.155 148.975 414.155 148.432C414.155 147.895 414.072 147.411 413.906 146.98C413.744 146.546 413.497 146.203 413.165 145.951C412.837 145.696 412.425 145.568 411.927 145.568C411.45 145.568 411.049 145.689 410.724 145.931C410.399 146.17 410.154 146.504 409.988 146.935C409.823 147.363 409.74 147.862 409.74 148.432ZM420.324 152.409C419.589 152.409 418.954 152.247 418.42 151.922C417.89 151.594 417.481 151.136 417.192 150.55C416.907 149.96 416.765 149.274 416.765 148.491C416.765 147.709 416.907 147.02 417.192 146.423C417.481 145.823 417.882 145.356 418.395 145.021C418.912 144.683 419.516 144.514 420.205 144.514C420.603 144.514 420.996 144.58 421.383 144.713C421.771 144.846 422.124 145.061 422.442 145.359C422.76 145.654 423.014 146.045 423.203 146.533C423.392 147.02 423.486 147.62 423.486 148.332V148.83H417.6V147.815H422.293C422.293 147.384 422.207 147 422.035 146.662C421.866 146.324 421.624 146.057 421.309 145.862C420.997 145.666 420.629 145.568 420.205 145.568C419.738 145.568 419.333 145.684 418.992 145.916C418.654 146.145 418.394 146.443 418.211 146.811C418.029 147.179 417.938 147.573 417.938 147.994V148.67C417.938 149.247 418.037 149.736 418.236 150.137C418.439 150.535 418.719 150.838 419.077 151.047C419.434 151.252 419.85 151.355 420.324 151.355C420.633 151.355 420.911 151.312 421.16 151.226C421.412 151.136 421.629 151.004 421.811 150.828C421.993 150.649 422.134 150.427 422.233 150.162L423.367 150.48C423.248 150.865 423.047 151.203 422.765 151.494C422.484 151.783 422.136 152.008 421.721 152.17C421.307 152.33 420.841 152.409 420.324 152.409ZM426.444 142.068V152.25H425.271V142.068H426.444Z" fill="white" fill-opacity="0.7"/>
</g>
<rect x="425.555" y="120.25" width="150" height="2" fill="#8F8F8F"/>
<path d="M598.555 121.25C598.555 125.116 595.421 128.25 591.555 128.25C587.689 128.25 584.555 125.116 584.555 121.25C584.555 117.384 587.689 114.25 591.555 114.25C595.421 114.25 598.555 117.384 598.555 121.25Z" stroke="white" stroke-opacity="0.4" stroke-width="2"/>
<g clip-path="url(#clip3_2029_9012)">
<path d="M560.098 149.52C560.098 149.184 560.023 148.918 559.874 148.722C559.706 148.489 559.398 148.274 558.95 148.078C558.502 147.882 557.825 147.658 556.92 147.406C555.706 147.07 554.871 146.655 554.414 146.16C554.04 145.759 553.854 145.222 553.854 144.55C553.854 143.738 554.208 143.094 554.918 142.618C555.571 142.179 556.42 141.96 557.466 141.96C558.632 141.96 559.58 142.235 560.308 142.786C560.961 143.271 561.344 143.906 561.456 144.69H559.986C559.902 144.158 559.622 143.761 559.146 143.5C558.726 143.257 558.166 143.136 557.466 143.136C556.682 143.136 556.103 143.285 555.73 143.584C555.431 143.817 555.282 144.121 555.282 144.494C555.282 144.737 555.319 144.937 555.394 145.096C555.478 145.245 555.618 145.381 555.814 145.502C556.178 145.745 556.882 146.011 557.928 146.3C559.384 146.711 560.368 147.177 560.882 147.7C561.311 148.129 561.526 148.717 561.526 149.464C561.526 150.351 561.138 151.083 560.364 151.662C559.636 152.194 558.712 152.46 557.592 152.46C556.425 152.46 555.459 152.147 554.694 151.522C554.031 150.981 553.634 150.281 553.504 149.422H554.974C555.067 150.038 555.361 150.509 555.856 150.836C556.304 151.135 556.873 151.284 557.564 151.284C558.422 151.284 559.08 151.088 559.538 150.696C559.911 150.379 560.098 149.987 560.098 149.52ZM568.096 150.15H569.552C569.347 150.887 568.941 151.466 568.334 151.886C567.765 152.269 567.083 152.46 566.29 152.46C565.142 152.46 564.246 152.096 563.602 151.368C563.014 150.687 562.72 149.767 562.72 148.61C562.72 147.294 563.093 146.295 563.84 145.614C564.456 145.045 565.249 144.76 566.22 144.76C567.359 144.76 568.217 145.129 568.796 145.866C569.356 146.575 569.636 147.588 569.636 148.904H564.092C564.148 149.763 564.409 150.402 564.876 150.822C565.259 151.158 565.744 151.326 566.332 151.326C566.789 151.326 567.186 151.2 567.522 150.948C567.802 150.733 567.993 150.467 568.096 150.15ZM566.248 145.838C565.651 145.838 565.17 146.025 564.806 146.398C564.461 146.743 564.241 147.224 564.148 147.84H568.264C568.217 147.14 567.984 146.617 567.564 146.272C567.228 145.983 566.789 145.838 566.248 145.838ZM574.496 151.172V152.32C574.15 152.413 573.819 152.46 573.502 152.46C572.83 152.46 572.326 152.25 571.99 151.83C571.7 151.485 571.556 151.023 571.556 150.444V146.118H570.478V144.97H571.556L571.64 143.22H572.9V144.97H574.468V146.118H572.9V150.472C572.9 151.013 573.156 151.284 573.67 151.284C573.912 151.284 574.188 151.247 574.496 151.172ZM581.301 142.17V152.25H579.957V142.17H581.301ZM582.845 148.61C582.845 147.275 583.242 146.267 584.035 145.586C584.67 145.035 585.472 144.76 586.443 144.76C587.572 144.76 588.459 145.119 589.103 145.838C589.719 146.51 590.027 147.434 590.027 148.61C590.027 149.926 589.64 150.929 588.865 151.62C588.23 152.18 587.418 152.46 586.429 152.46C585.3 152.46 584.408 152.087 583.755 151.34C583.148 150.659 582.845 149.749 582.845 148.61ZM584.245 148.61C584.245 149.543 584.483 150.257 584.959 150.752C585.351 151.163 585.85 151.368 586.457 151.368C587.166 151.368 587.712 151.102 588.095 150.57C588.45 150.085 588.627 149.431 588.627 148.61C588.627 147.658 588.394 146.939 587.927 146.454C587.544 146.053 587.05 145.852 586.443 145.852C585.743 145.852 585.197 146.118 584.805 146.65C584.432 147.135 584.245 147.789 584.245 148.61ZM596.31 149.912H597.78C597.668 150.696 597.299 151.326 596.674 151.802C596.105 152.241 595.409 152.46 594.588 152.46C593.515 152.46 592.661 152.091 592.026 151.354C591.438 150.673 591.144 149.777 591.144 148.666C591.144 147.378 591.499 146.379 592.208 145.67C592.815 145.063 593.603 144.76 594.574 144.76C595.47 144.76 596.207 144.998 596.786 145.474C597.299 145.894 597.612 146.445 597.724 147.126H596.24C596.147 146.734 595.955 146.431 595.666 146.216C595.386 146.001 595.031 145.894 594.602 145.894C593.939 145.894 593.431 146.155 593.076 146.678C592.74 147.163 592.572 147.84 592.572 148.708C592.572 149.613 592.796 150.299 593.244 150.766C593.599 151.139 594.056 151.326 594.616 151.326C595.101 151.326 595.498 151.186 595.806 150.906C596.077 150.663 596.245 150.332 596.31 149.912ZM600.464 147H599.036C599.111 146.272 599.456 145.707 600.072 145.306C600.623 144.942 601.318 144.76 602.158 144.76C603.157 144.76 603.922 145.021 604.454 145.544C604.902 145.992 605.126 146.571 605.126 147.28V152.25H604.02L603.852 151.256C603.283 152.059 602.471 152.46 601.416 152.46C600.585 152.46 599.937 152.236 599.47 151.788C599.087 151.415 598.896 150.943 598.896 150.374C598.896 149.655 599.143 149.1 599.638 148.708C600.077 148.363 600.749 148.111 601.654 147.952L603.782 147.588V147.224C603.782 146.748 603.619 146.389 603.292 146.146C603.003 145.931 602.606 145.824 602.102 145.824C601.113 145.824 600.567 146.216 600.464 147ZM601.738 151.326C602.307 151.326 602.802 151.139 603.222 150.766C603.595 150.421 603.782 150.024 603.782 149.576V148.638L601.976 148.96C601.313 149.072 600.861 149.245 600.618 149.478C600.422 149.665 600.324 149.917 600.324 150.234C600.324 150.589 600.445 150.859 600.688 151.046C600.931 151.233 601.281 151.326 601.738 151.326ZM610.261 151.172V152.32C609.916 152.413 609.585 152.46 609.267 152.46C608.595 152.46 608.091 152.25 607.755 151.83C607.466 151.485 607.321 151.023 607.321 150.444V146.118H606.243V144.97H607.321L607.405 143.22H608.665V144.97H610.233V146.118H608.665V150.472C608.665 151.013 608.922 151.284 609.435 151.284C609.678 151.284 609.953 151.247 610.261 151.172ZM612.953 143.752H611.441V142.17H612.953V143.752ZM612.869 152.25H611.525V144.97H612.869V152.25ZM614.414 148.61C614.414 147.275 614.81 146.267 615.604 145.586C616.238 145.035 617.041 144.76 618.012 144.76C619.141 144.76 620.028 145.119 620.672 145.838C621.288 146.51 621.596 147.434 621.596 148.61C621.596 149.926 621.208 150.929 620.434 151.62C619.799 152.18 618.987 152.46 617.998 152.46C616.868 152.46 615.977 152.087 615.324 151.34C614.717 150.659 614.414 149.749 614.414 148.61ZM615.814 148.61C615.814 149.543 616.052 150.257 616.528 150.752C616.92 151.163 617.419 151.368 618.026 151.368C618.735 151.368 619.281 151.102 619.664 150.57C620.018 150.085 620.196 149.431 620.196 148.61C620.196 147.658 619.962 146.939 619.496 146.454C619.113 146.053 618.618 145.852 618.012 145.852C617.312 145.852 616.766 146.118 616.374 146.65C616 147.135 615.814 147.789 615.814 148.61ZM624.476 152.25H623.132V144.97H624.238L624.392 145.894C624.934 145.138 625.671 144.76 626.604 144.76C627.463 144.76 628.121 145.026 628.578 145.558C628.98 146.034 629.18 146.683 629.18 147.504V152.25H627.836V147.518C627.836 146.445 627.318 145.908 626.282 145.908C625.741 145.908 625.298 146.095 624.952 146.468C624.635 146.804 624.476 147.233 624.476 147.756V152.25Z" fill="white" fill-opacity="0.7"/>
</g>
<rect x="607.555" y="120.25" width="150" height="2" fill="#8F8F8F"/>
<path fill-rule="evenodd" clip-rule="evenodd" d="M773.555 129.25C777.973 129.25 781.555 125.668 781.555 121.25C781.555 116.832 777.973 113.25 773.555 113.25C769.136 113.25 765.555 116.832 765.555 121.25C765.555 125.668 769.136 129.25 773.555 129.25Z" fill="#3492EB"/>
<g clip-path="url(#clip4_2029_9012)">
<path d="M736.017 152.25H734.337L731.901 148.414H729.507V152.25H728.079V142.17H731.341C732.713 142.17 733.74 142.483 734.421 143.108C735.028 143.649 735.331 144.391 735.331 145.334C735.331 146.678 734.655 147.607 733.301 148.12L736.017 152.25ZM731.369 143.332H729.507V147.252H731.411C732.242 147.252 732.872 147.056 733.301 146.664C733.665 146.328 733.847 145.885 733.847 145.334C733.847 143.999 733.021 143.332 731.369 143.332ZM741.893 150.15H743.349C743.144 150.887 742.738 151.466 742.131 151.886C741.562 152.269 740.88 152.46 740.087 152.46C738.939 152.46 738.043 152.096 737.399 151.368C736.811 150.687 736.517 149.767 736.517 148.61C736.517 147.294 736.89 146.295 737.637 145.614C738.253 145.045 739.046 144.76 740.017 144.76C741.156 144.76 742.014 145.129 742.593 145.866C743.153 146.575 743.433 147.588 743.433 148.904H737.889C737.945 149.763 738.206 150.402 738.673 150.822C739.056 151.158 739.541 151.326 740.129 151.326C740.586 151.326 740.983 151.2 741.319 150.948C741.599 150.733 741.79 150.467 741.893 150.15ZM740.045 145.838C739.448 145.838 738.967 146.025 738.603 146.398C738.258 146.743 738.038 147.224 737.945 147.84H742.061C742.014 147.14 741.781 146.617 741.361 146.272C741.025 145.983 740.586 145.838 740.045 145.838ZM744.96 152.74H746.402C746.468 153.113 746.654 153.403 746.962 153.608C747.28 153.813 747.695 153.916 748.208 153.916C748.927 153.916 749.464 153.729 749.818 153.356C750.117 153.039 750.266 152.595 750.266 152.026V151.088C749.725 151.723 748.918 152.04 747.844 152.04C746.874 152.04 746.085 151.69 745.478 150.99C744.909 150.337 744.624 149.487 744.624 148.442C744.624 147.229 744.97 146.291 745.66 145.628C746.248 145.049 747.004 144.76 747.928 144.76C748.974 144.76 749.762 145.152 750.294 145.936L750.504 144.97H751.61V152.096C751.61 153.011 751.279 153.729 750.616 154.252C750.019 154.737 749.23 154.98 748.25 154.98C747.233 154.98 746.435 154.751 745.856 154.294C745.371 153.911 745.072 153.393 744.96 152.74ZM746.024 148.47C746.024 149.263 746.258 149.884 746.724 150.332C747.107 150.705 747.578 150.892 748.138 150.892C748.876 150.892 749.44 150.649 749.832 150.164C750.168 149.753 750.336 149.203 750.336 148.512C750.336 147.625 750.108 146.949 749.65 146.482C749.268 146.099 748.764 145.908 748.138 145.908C747.448 145.908 746.916 146.146 746.542 146.622C746.197 147.07 746.024 147.686 746.024 148.47ZM755.004 143.752H753.492V142.17H755.004V143.752ZM754.92 152.25H753.576V144.97H754.92V152.25ZM761.14 150.276C761.14 149.865 760.926 149.557 760.496 149.352C760.244 149.24 759.754 149.1 759.026 148.932C758.13 148.736 757.491 148.451 757.108 148.078C756.791 147.761 756.632 147.345 756.632 146.832C756.632 146.151 756.908 145.628 757.458 145.264C757.953 144.928 758.62 144.76 759.46 144.76C760.328 144.76 761.033 144.975 761.574 145.404C762.041 145.777 762.33 146.272 762.442 146.888H761.07C760.912 146.179 760.37 145.824 759.446 145.824C758.933 145.824 758.55 145.917 758.298 146.104C758.093 146.263 757.99 146.463 757.99 146.706C757.99 147.005 758.102 147.229 758.326 147.378C758.56 147.527 759.012 147.677 759.684 147.826C760.711 148.05 761.425 148.325 761.826 148.652C762.274 149.016 762.498 149.525 762.498 150.178C762.498 150.906 762.2 151.48 761.602 151.9C761.061 152.273 760.347 152.46 759.46 152.46C758.49 152.46 757.72 152.227 757.15 151.76C756.656 151.349 756.38 150.817 756.324 150.164H757.696C757.846 150.985 758.438 151.396 759.474 151.396C760.034 151.396 760.468 151.275 760.776 151.032C761.019 150.836 761.14 150.584 761.14 150.276ZM767.283 151.172V152.32C766.937 152.413 766.606 152.46 766.289 152.46C765.617 152.46 765.113 152.25 764.777 151.83C764.487 151.485 764.343 151.023 764.343 150.444V146.118H763.265V144.97H764.343L764.427 143.22H765.687V144.97H767.255V146.118H765.687V150.472C765.687 151.013 765.943 151.284 766.457 151.284C766.699 151.284 766.975 151.247 767.283 151.172ZM773.434 150.15H774.89C774.685 150.887 774.279 151.466 773.672 151.886C773.103 152.269 772.421 152.46 771.628 152.46C770.48 152.46 769.584 152.096 768.94 151.368C768.352 150.687 768.058 149.767 768.058 148.61C768.058 147.294 768.431 146.295 769.178 145.614C769.794 145.045 770.587 144.76 771.558 144.76C772.697 144.76 773.555 145.129 774.134 145.866C774.694 146.575 774.974 147.588 774.974 148.904H769.43C769.486 149.763 769.747 150.402 770.214 150.822C770.597 151.158 771.082 151.326 771.67 151.326C772.127 151.326 772.524 151.2 772.86 150.948C773.14 150.733 773.331 150.467 773.434 150.15ZM771.586 145.838C770.989 145.838 770.508 146.025 770.144 146.398C769.799 146.743 769.579 147.224 769.486 147.84H773.602C773.555 147.14 773.322 146.617 772.902 146.272C772.566 145.983 772.127 145.838 771.586 145.838ZM777.929 152.25H776.585V144.97H777.691L777.873 146.048C778.284 145.189 778.9 144.76 779.721 144.76C779.992 144.76 780.258 144.793 780.519 144.858V146.202C780.202 146.118 779.917 146.076 779.665 146.076C779.124 146.076 778.699 146.295 778.391 146.734C778.083 147.173 777.929 147.793 777.929 148.596V152.25ZM785.703 144.97H787.047V149.744C787.047 150.789 787.551 151.312 788.559 151.312C789.175 151.312 789.646 151.093 789.973 150.654C790.225 150.318 790.351 149.903 790.351 149.408V144.97H791.695V152.25H790.589L790.435 151.41C789.922 152.11 789.194 152.46 788.251 152.46C787.42 152.46 786.781 152.203 786.333 151.69C785.913 151.214 785.703 150.556 785.703 149.716V144.97ZM797.918 150.276C797.918 149.865 797.703 149.557 797.274 149.352C797.022 149.24 796.532 149.1 795.804 148.932C794.908 148.736 794.268 148.451 793.886 148.078C793.568 147.761 793.41 147.345 793.41 146.832C793.41 146.151 793.685 145.628 794.236 145.264C794.73 144.928 795.398 144.76 796.238 144.76C797.106 144.76 797.81 144.975 798.352 145.404C798.818 145.777 799.108 146.272 799.22 146.888H797.848C797.689 146.179 797.148 145.824 796.224 145.824C795.71 145.824 795.328 145.917 795.076 146.104C794.87 146.263 794.768 146.463 794.768 146.706C794.768 147.005 794.88 147.229 795.104 147.378C795.337 147.527 795.79 147.677 796.462 147.826C797.488 148.05 798.202 148.325 798.604 148.652C799.052 149.016 799.276 149.525 799.276 150.178C799.276 150.906 798.977 151.48 798.38 151.9C797.838 152.273 797.124 152.46 796.238 152.46C795.267 152.46 794.497 152.227 793.928 151.76C793.433 151.349 793.158 150.817 793.102 150.164H794.474C794.623 150.985 795.216 151.396 796.252 151.396C796.812 151.396 797.246 151.275 797.554 151.032C797.796 150.836 797.918 150.584 797.918 150.276ZM805.768 150.15H807.224C807.019 150.887 806.613 151.466 806.006 151.886C805.437 152.269 804.755 152.46 803.962 152.46C802.814 152.46 801.918 152.096 801.274 151.368C800.686 150.687 800.392 149.767 800.392 148.61C800.392 147.294 800.765 146.295 801.512 145.614C802.128 145.045 802.921 144.76 803.892 144.76C805.031 144.76 805.889 145.129 806.468 145.866C807.028 146.575 807.308 147.588 807.308 148.904H801.764C801.82 149.763 802.081 150.402 802.548 150.822C802.931 151.158 803.416 151.326 804.004 151.326C804.461 151.326 804.858 151.2 805.194 150.948C805.474 150.733 805.665 150.467 805.768 150.15ZM803.92 145.838C803.323 145.838 802.842 146.025 802.478 146.398C802.133 146.743 801.913 147.224 801.82 147.84H805.936C805.889 147.14 805.656 146.617 805.236 146.272C804.9 145.983 804.461 145.838 803.92 145.838ZM810.263 152.25H808.919V144.97H810.025L810.207 146.048C810.618 145.189 811.234 144.76 812.055 144.76C812.326 144.76 812.592 144.793 812.853 144.858V146.202C812.536 146.118 812.251 146.076 811.999 146.076C811.458 146.076 811.033 146.295 810.725 146.734C810.417 147.173 810.263 147.793 810.263 148.596V152.25ZM818.166 150.276C818.166 149.865 817.951 149.557 817.522 149.352C817.27 149.24 816.78 149.1 816.052 148.932C815.156 148.736 814.516 148.451 814.134 148.078C813.816 147.761 813.658 147.345 813.658 146.832C813.658 146.151 813.933 145.628 814.484 145.264C814.978 144.928 815.646 144.76 816.486 144.76C817.354 144.76 818.058 144.975 818.6 145.404C819.066 145.777 819.356 146.272 819.468 146.888H818.096C817.937 146.179 817.396 145.824 816.472 145.824C815.958 145.824 815.576 145.917 815.324 146.104C815.118 146.263 815.016 146.463 815.016 146.706C815.016 147.005 815.128 147.229 815.352 147.378C815.585 147.527 816.038 147.677 816.71 147.826C817.736 148.05 818.45 148.325 818.852 148.652C819.3 149.016 819.524 149.525 819.524 150.178C819.524 150.906 819.225 151.48 818.628 151.9C818.086 152.273 817.372 152.46 816.486 152.46C815.515 152.46 814.745 152.227 814.176 151.76C813.681 151.349 813.406 150.817 813.35 150.164H814.722C814.871 150.985 815.464 151.396 816.5 151.396C817.06 151.396 817.494 151.275 817.802 151.032C818.044 150.836 818.166 150.584 818.166 150.276Z" fill="white" fill-opacity="0.95"/>
</g>
<g clip-path="url(#clip5_2029_9012)">
<line x1="401.97" y1="109.5" x2="401.97" y2="94.5" stroke="#C7A5FA"/>
<line x1="401.47" y1="102" x2="417.47" y2="102" stroke="#C7A5FA"/>
<line x1="416.97" y1="109.5" x2="416.97" y2="94.5" stroke="#C7A5FA"/>
</g>
<path d="M407.114 87.5H405.466V79.5703L402.917 80.5068V79.0645L407.011 77.5469H407.114V87.5ZM415.84 77.499V78.8867H415.731C415.188 78.8867 414.717 78.9619 414.316 79.1123C413.919 79.2581 413.584 79.4632 413.311 79.7275C413.033 79.9919 412.816 80.3086 412.661 80.6777C412.511 81.0469 412.418 81.4434 412.381 81.8672C412.491 81.7441 412.618 81.6257 412.764 81.5117C412.91 81.3932 413.072 81.2884 413.249 81.1973C413.418 81.1107 413.605 81.0423 413.81 80.9922C414.015 80.9375 414.231 80.9102 414.459 80.9102C414.942 80.9102 415.362 81.0013 415.717 81.1836C416.077 81.3659 416.373 81.612 416.606 81.9219C416.843 82.2318 417.016 82.5872 417.125 82.9883C417.239 83.3893 417.296 83.8063 417.296 84.2393C417.296 84.7132 417.223 85.1576 417.077 85.5723C416.936 85.9824 416.729 86.3402 416.455 86.6455C416.177 86.9554 415.838 87.1992 415.437 87.377C415.04 87.5501 414.587 87.6367 414.076 87.6367C413.552 87.6367 413.085 87.5365 412.675 87.3359C412.265 87.1354 411.919 86.8643 411.636 86.5225C411.335 86.167 411.107 85.75 410.952 85.2715C410.798 84.7884 410.72 84.2803 410.72 83.7471V83.0703C410.72 82.2682 410.823 81.5049 411.028 80.7803C411.237 80.0511 411.584 79.4245 412.067 78.9004C412.477 78.4492 412.983 78.1029 413.584 77.8613C414.186 77.6198 414.874 77.499 415.649 77.499H415.84ZM414.056 82.2363C413.86 82.2363 413.673 82.266 413.495 82.3252C413.318 82.3844 413.154 82.4665 413.003 82.5713C412.867 82.6761 412.743 82.7969 412.634 82.9336C412.525 83.0703 412.434 83.223 412.361 83.3916V83.8975C412.361 84.2939 412.404 84.6426 412.491 84.9434C412.582 85.2441 412.705 85.4948 412.86 85.6953C413.015 85.8958 413.195 86.0485 413.4 86.1533C413.605 86.2581 413.824 86.3105 414.056 86.3105C414.311 86.3105 414.539 86.2604 414.74 86.1602C414.94 86.0553 415.111 85.9141 415.252 85.7363C415.394 85.554 415.501 85.3398 415.574 85.0938C415.646 84.8431 415.683 84.5719 415.683 84.2803C415.683 84.0023 415.646 83.7402 415.574 83.4941C415.505 83.2435 415.403 83.0247 415.266 82.8379C415.129 82.651 414.958 82.5052 414.753 82.4004C414.553 82.291 414.32 82.2363 414.056 82.2363Z" fill="#C7A5FA"/>
<g clip-path="url(#clip6_2029_9012)">
<rect x="401.97" y="114" width="15" height="15" stroke="#C7A5FA" stroke-opacity="0.5" stroke-dasharray="4 4"/>
</g>
<g clip-path="url(#clip7_2029_9012)">
<line x1="425.329" y1="109.5" x2="425.329" y2="94.5" stroke="#C7A5FA"/>
<line x1="424.829" y1="102" x2="574.829" y2="102" stroke="#C7A5FA"/>
<line x1="574.329" y1="109.5" x2="574.329" y2="94.5" stroke="#C7A5FA"/>
</g>
<path d="M493.01 87.875H491.363V79.9453L488.813 80.8818V79.4395L492.908 77.9219H493.01V87.875ZM497.102 82.9395L497.635 77.9219H502.987V79.3711H498.995L498.735 81.7568C498.899 81.6611 499.114 81.57 499.378 81.4834C499.647 81.3968 499.954 81.3535 500.301 81.3535C500.77 81.3535 501.189 81.431 501.559 81.5859C501.932 81.7409 502.249 81.9619 502.509 82.249C502.764 82.5407 502.96 82.8939 503.097 83.3086C503.233 83.7188 503.302 84.1813 503.302 84.6963C503.302 85.152 503.236 85.5827 503.104 85.9883C502.976 86.3893 502.778 86.7402 502.509 87.041C502.244 87.3418 501.91 87.5788 501.504 87.752C501.098 87.9251 500.62 88.0117 500.068 88.0117C499.649 88.0117 499.248 87.9525 498.865 87.834C498.482 87.7109 498.143 87.5286 497.847 87.2871C497.55 87.0501 497.307 86.7562 497.115 86.4053C496.928 86.0498 496.821 85.6419 496.794 85.1816H498.387C498.446 85.6693 498.624 86.043 498.92 86.3027C499.221 86.5625 499.604 86.6924 500.068 86.6924C500.342 86.6924 500.579 86.6423 500.779 86.542C500.98 86.4417 501.148 86.3005 501.285 86.1182C501.413 85.9404 501.508 85.7262 501.572 85.4756C501.636 85.2204 501.668 84.9447 501.668 84.6484C501.668 84.3613 501.629 84.0993 501.552 83.8623C501.479 83.6208 501.367 83.4111 501.217 83.2334C501.066 83.0557 500.88 82.9189 500.656 82.8232C500.433 82.723 500.173 82.6729 499.877 82.6729C499.681 82.6729 499.51 82.6888 499.364 82.7207C499.223 82.7526 499.098 82.7936 498.988 82.8438C498.874 82.8984 498.77 82.9622 498.674 83.0352C498.583 83.1035 498.494 83.1787 498.407 83.2607L497.102 82.9395ZM511.508 84.0811C511.508 84.7191 511.433 85.2842 511.283 85.7764C511.137 86.264 510.925 86.6719 510.647 87C510.374 87.3372 510.036 87.5924 509.635 87.7656C509.239 87.9342 508.788 88.0186 508.282 88.0186C507.781 88.0186 507.329 87.9342 506.928 87.7656C506.527 87.5924 506.188 87.3372 505.91 87C505.627 86.6719 505.411 86.264 505.26 85.7764C505.115 85.2842 505.042 84.7191 505.042 84.0811V81.7227C505.042 81.0846 505.115 80.5218 505.26 80.0342C505.411 79.542 505.625 79.1273 505.903 78.79C506.181 78.4574 506.518 78.2067 506.915 78.0381C507.316 77.8649 507.767 77.7783 508.268 77.7783C508.774 77.7783 509.225 77.8649 509.622 78.0381C510.023 78.2067 510.365 78.4574 510.647 78.79C510.921 79.1273 511.132 79.542 511.283 80.0342C511.433 80.5218 511.508 81.0846 511.508 81.7227V84.0811ZM506.682 83.5L509.847 81.1006C509.829 80.7451 509.779 80.4375 509.697 80.1777C509.619 79.918 509.508 79.7061 509.362 79.542C509.234 79.3962 509.077 79.2868 508.89 79.2139C508.708 79.141 508.501 79.1045 508.268 79.1045C508.018 79.1045 507.797 79.1478 507.605 79.2344C507.414 79.321 507.254 79.4486 507.127 79.6172C506.976 79.8086 506.865 80.057 506.792 80.3623C506.719 80.6631 506.682 81.0186 506.682 81.4287V82.7686C506.682 82.9417 506.682 83.0739 506.682 83.165C506.682 83.2562 506.682 83.3678 506.682 83.5ZM509.861 84.3545V83.0967C509.861 82.9827 509.861 82.8643 509.861 82.7412C509.861 82.6182 509.861 82.4906 509.861 82.3584L506.696 84.7441C506.719 85.0586 506.767 85.3366 506.839 85.5781C506.917 85.8197 507.02 86.0202 507.147 86.1797C507.275 86.3529 507.432 86.4827 507.619 86.5693C507.81 86.6559 508.031 86.6992 508.282 86.6992C508.528 86.6992 508.744 86.6582 508.931 86.5762C509.118 86.4896 509.278 86.3643 509.41 86.2002C509.56 86.0088 509.672 85.7581 509.745 85.4482C509.822 85.1383 509.861 84.7738 509.861 84.3545Z" fill="#C7A5FA"/>
<g clip-path="url(#clip8_2029_9012)">
<line x1="329.597" y1="174.5" x2="329.597" y2="159.5" stroke="#C7A5FA"/>
<line x1="329.097" y1="167" x2="489.097" y2="167" stroke="#C7A5FA"/>
<line x1="488.597" y1="174.5" x2="488.597" y2="159.5" stroke="#C7A5FA"/>
</g>
<path d="M389.704 185.875H388.057V177.945L385.507 178.882V177.439L389.602 175.922H389.704V185.875ZM398.431 175.874V177.262H398.321C397.779 177.262 397.307 177.337 396.906 177.487C396.51 177.633 396.175 177.838 395.901 178.103C395.623 178.367 395.407 178.684 395.252 179.053C395.102 179.422 395.008 179.818 394.972 180.242C395.081 180.119 395.209 180.001 395.355 179.887C395.5 179.768 395.662 179.663 395.84 179.572C396.009 179.486 396.195 179.417 396.4 179.367C396.606 179.312 396.822 179.285 397.05 179.285C397.533 179.285 397.952 179.376 398.308 179.559C398.668 179.741 398.964 179.987 399.196 180.297C399.433 180.607 399.606 180.962 399.716 181.363C399.83 181.764 399.887 182.181 399.887 182.614C399.887 183.088 399.814 183.533 399.668 183.947C399.527 184.357 399.319 184.715 399.046 185.021C398.768 185.33 398.428 185.574 398.027 185.752C397.631 185.925 397.177 186.012 396.667 186.012C396.143 186.012 395.676 185.911 395.266 185.711C394.856 185.51 394.509 185.239 394.227 184.897C393.926 184.542 393.698 184.125 393.543 183.646C393.388 183.163 393.311 182.655 393.311 182.122V181.445C393.311 180.643 393.413 179.88 393.618 179.155C393.828 178.426 394.174 177.799 394.657 177.275C395.067 176.824 395.573 176.478 396.175 176.236C396.776 175.995 397.465 175.874 398.239 175.874H398.431ZM396.647 180.611C396.451 180.611 396.264 180.641 396.086 180.7C395.908 180.759 395.744 180.841 395.594 180.946C395.457 181.051 395.334 181.172 395.225 181.309C395.115 181.445 395.024 181.598 394.951 181.767V182.272C394.951 182.669 394.995 183.018 395.081 183.318C395.172 183.619 395.295 183.87 395.45 184.07C395.605 184.271 395.785 184.424 395.99 184.528C396.195 184.633 396.414 184.686 396.647 184.686C396.902 184.686 397.13 184.635 397.33 184.535C397.531 184.43 397.702 184.289 397.843 184.111C397.984 183.929 398.091 183.715 398.164 183.469C398.237 183.218 398.273 182.947 398.273 182.655C398.273 182.377 398.237 182.115 398.164 181.869C398.096 181.618 397.993 181.4 397.856 181.213C397.72 181.026 397.549 180.88 397.344 180.775C397.143 180.666 396.911 180.611 396.647 180.611ZM408.203 182.081C408.203 182.719 408.128 183.284 407.977 183.776C407.831 184.264 407.619 184.672 407.341 185C407.068 185.337 406.731 185.592 406.33 185.766C405.933 185.934 405.482 186.019 404.976 186.019C404.475 186.019 404.024 185.934 403.623 185.766C403.222 185.592 402.882 185.337 402.604 185C402.322 184.672 402.105 184.264 401.955 183.776C401.809 183.284 401.736 182.719 401.736 182.081V179.723C401.736 179.085 401.809 178.522 401.955 178.034C402.105 177.542 402.319 177.127 402.597 176.79C402.875 176.457 403.213 176.207 403.609 176.038C404.01 175.865 404.461 175.778 404.963 175.778C405.468 175.778 405.92 175.865 406.316 176.038C406.717 176.207 407.059 176.457 407.341 176.79C407.615 177.127 407.827 177.542 407.977 178.034C408.128 178.522 408.203 179.085 408.203 179.723V182.081ZM403.377 181.5L406.542 179.101C406.523 178.745 406.473 178.438 406.391 178.178C406.314 177.918 406.202 177.706 406.056 177.542C405.929 177.396 405.771 177.287 405.585 177.214C405.402 177.141 405.195 177.104 404.963 177.104C404.712 177.104 404.491 177.148 404.299 177.234C404.108 177.321 403.949 177.449 403.821 177.617C403.671 177.809 403.559 178.057 403.486 178.362C403.413 178.663 403.377 179.019 403.377 179.429V180.769C403.377 180.942 403.377 181.074 403.377 181.165C403.377 181.256 403.377 181.368 403.377 181.5ZM406.555 182.354V181.097C406.555 180.983 406.555 180.864 406.555 180.741C406.555 180.618 406.555 180.491 406.555 180.358L403.39 182.744C403.413 183.059 403.461 183.337 403.534 183.578C403.611 183.82 403.714 184.02 403.841 184.18C403.969 184.353 404.126 184.483 404.313 184.569C404.505 184.656 404.726 184.699 404.976 184.699C405.222 184.699 405.439 184.658 405.626 184.576C405.813 184.49 405.972 184.364 406.104 184.2C406.255 184.009 406.366 183.758 406.439 183.448C406.517 183.138 406.555 182.774 406.555 182.354ZM410.1 188.719V178.479H411.604L411.665 179.237C411.766 179.114 411.875 179.003 411.993 178.902C412.112 178.802 412.24 178.715 412.376 178.643C412.554 178.547 412.75 178.474 412.964 178.424C413.178 178.369 413.406 178.342 413.648 178.342C414.122 178.342 414.539 178.433 414.899 178.615C415.263 178.798 415.569 179.055 415.815 179.388C416.056 179.72 416.241 180.119 416.368 180.584C416.496 181.044 416.56 181.552 416.56 182.108V182.252C416.56 182.785 416.496 183.282 416.368 183.742C416.245 184.202 416.061 184.599 415.815 184.932C415.569 185.269 415.266 185.533 414.906 185.725C414.546 185.916 414.133 186.012 413.668 186.012C413.404 186.012 413.16 185.984 412.937 185.93C412.718 185.875 412.515 185.795 412.328 185.69C412.219 185.627 412.114 185.554 412.014 185.472C411.914 185.39 411.82 185.301 411.734 185.205V188.719H410.1ZM414.926 182.108C414.926 181.776 414.892 181.464 414.824 181.172C414.76 180.876 414.659 180.618 414.523 180.399C414.381 180.181 414.201 180.007 413.983 179.88C413.764 179.752 413.502 179.688 413.197 179.688C413.028 179.688 412.871 179.707 412.725 179.743C412.579 179.78 412.449 179.832 412.335 179.9C412.203 179.973 412.087 180.064 411.987 180.174C411.891 180.283 411.807 180.406 411.734 180.543V183.831C411.798 183.959 411.875 184.075 411.966 184.18C412.057 184.285 412.162 184.376 412.281 184.453C412.404 184.526 412.543 184.585 412.698 184.631C412.853 184.672 413.023 184.692 413.21 184.692C413.516 184.692 413.775 184.629 413.99 184.501C414.208 184.369 414.386 184.191 414.523 183.968C414.664 183.74 414.767 183.48 414.83 183.188C414.894 182.892 414.926 182.58 414.926 182.252V182.108ZM421.602 180.967L423.372 178.479H425.184L422.586 182.122L425.266 185.875H423.461L421.615 183.291L419.776 185.875H417.965L420.644 182.122L418.054 178.479H419.852L421.602 180.967ZM345.274 197.828C345.274 197.186 345.324 196.579 345.424 196.01C345.524 195.436 345.659 194.905 345.827 194.417C346.001 193.938 346.199 193.499 346.422 193.098C346.65 192.697 346.889 192.341 347.14 192.031C347.386 191.721 347.639 191.459 347.899 191.245C348.158 191.026 348.409 190.858 348.651 190.739L348.979 191.689C348.833 191.799 348.687 191.931 348.541 192.086C348.395 192.241 348.252 192.416 348.111 192.612C347.915 192.89 347.73 193.216 347.557 193.59C347.388 193.964 347.242 194.371 347.119 194.813C347.005 195.228 346.914 195.686 346.846 196.188C346.782 196.689 346.75 197.231 346.75 197.814V197.958C346.75 198.528 346.782 199.059 346.846 199.551C346.91 200.038 346.985 200.453 347.071 200.795C347.181 201.205 347.306 201.586 347.447 201.937C347.593 202.287 347.746 202.597 347.905 202.866C348.074 203.14 348.25 203.381 348.432 203.591C348.614 203.8 348.796 203.976 348.979 204.117L348.651 205.033C348.409 204.915 348.158 204.746 347.899 204.527C347.639 204.313 347.384 204.051 347.133 203.741C346.882 203.431 346.643 203.076 346.415 202.675C346.192 202.278 345.996 201.836 345.827 201.349C345.659 200.866 345.524 200.341 345.424 199.776C345.324 199.207 345.274 198.596 345.274 197.944V197.828ZM353.959 200.521H358.71V201.875H352.311V191.922H353.959V200.521ZM365.201 201.875C365.151 201.784 365.11 201.674 365.078 201.547C365.05 201.415 365.025 201.278 365.002 201.137C364.888 201.255 364.759 201.369 364.613 201.479C364.471 201.583 364.312 201.674 364.134 201.752C363.957 201.834 363.765 201.898 363.56 201.943C363.355 201.989 363.134 202.012 362.897 202.012C362.514 202.012 362.163 201.957 361.844 201.848C361.53 201.734 361.261 201.579 361.038 201.383C360.81 201.191 360.632 200.961 360.504 200.692C360.381 200.419 360.32 200.125 360.32 199.811C360.32 199.405 360.4 199.047 360.559 198.737C360.723 198.423 360.96 198.163 361.27 197.958C361.557 197.767 361.91 197.621 362.33 197.521C362.753 197.42 363.232 197.37 363.765 197.37H364.955V196.871C364.955 196.68 364.92 196.507 364.852 196.352C364.788 196.197 364.695 196.062 364.572 195.948C364.44 195.834 364.278 195.748 364.086 195.688C363.9 195.625 363.683 195.593 363.437 195.593C363.214 195.593 363.018 195.62 362.849 195.675C362.685 195.729 362.548 195.805 362.439 195.9C362.33 195.987 362.248 196.094 362.193 196.222C362.143 196.345 362.118 196.477 362.118 196.618H360.477C360.482 196.322 360.552 196.037 360.689 195.764C360.826 195.49 361.026 195.249 361.291 195.039C361.546 194.825 361.86 194.656 362.234 194.533C362.612 194.406 363.043 194.342 363.526 194.342C363.959 194.342 364.362 194.396 364.736 194.506C365.114 194.611 365.44 194.768 365.713 194.978C365.987 195.187 366.201 195.454 366.356 195.777C366.511 196.096 366.588 196.465 366.588 196.885V200.173C366.588 200.506 366.611 200.806 366.657 201.075C366.707 201.34 366.777 201.567 366.869 201.759V201.875H365.201ZM363.211 200.699C363.426 200.699 363.624 200.672 363.806 200.617C363.993 200.562 364.162 200.492 364.312 200.405C364.462 200.319 364.592 200.221 364.702 200.111C364.811 200.002 364.895 199.888 364.955 199.77V198.402H363.902C363.546 198.402 363.239 198.437 362.979 198.505C362.719 198.569 362.512 198.662 362.357 198.785C362.22 198.89 362.118 199.015 362.049 199.161C361.985 199.307 361.954 199.471 361.954 199.653C361.954 199.804 361.981 199.945 362.036 200.077C362.09 200.205 362.17 200.314 362.275 200.405C362.38 200.496 362.51 200.569 362.665 200.624C362.819 200.674 363.002 200.699 363.211 200.699ZM375.246 198.252C375.246 198.594 375.221 198.92 375.171 199.229C375.121 199.539 375.048 199.826 374.952 200.091C374.843 200.405 374.697 200.69 374.515 200.945C374.332 201.201 374.114 201.412 373.859 201.581C373.653 201.718 373.423 201.823 373.168 201.896C372.917 201.973 372.644 202.012 372.348 202.012C372.047 202.012 371.774 201.975 371.527 201.902C371.281 201.829 371.06 201.722 370.864 201.581C370.764 201.508 370.668 201.431 370.577 201.349C370.491 201.262 370.406 201.169 370.324 201.068L370.249 201.875H368.773V191.375H370.406V195.203C370.502 195.085 370.607 194.978 370.721 194.882C370.835 194.786 370.958 194.702 371.09 194.629C371.263 194.533 371.452 194.463 371.657 194.417C371.867 194.367 372.093 194.342 372.334 194.342C372.653 194.342 372.945 194.385 373.209 194.472C373.478 194.554 373.72 194.672 373.934 194.827C374.116 194.955 374.278 195.112 374.419 195.299C374.565 195.481 374.693 195.682 374.802 195.9C374.948 196.206 375.057 196.545 375.13 196.919C375.207 197.293 375.246 197.689 375.246 198.108V198.252ZM373.612 198.108C373.612 197.899 373.599 197.696 373.571 197.5C373.549 197.299 373.514 197.113 373.469 196.939C373.405 196.73 373.321 196.541 373.216 196.372C373.116 196.199 372.979 196.053 372.806 195.935C372.692 195.853 372.562 195.791 372.416 195.75C372.27 195.709 372.106 195.688 371.924 195.688C371.701 195.688 371.5 195.72 371.322 195.784C371.145 195.843 370.99 195.93 370.858 196.044C370.762 196.121 370.675 196.213 370.598 196.317C370.525 196.418 370.461 196.527 370.406 196.646V199.708C370.47 199.845 370.545 199.97 370.632 200.084C370.723 200.193 370.826 200.291 370.94 200.378C371.067 200.469 371.213 200.542 371.377 200.597C371.546 200.647 371.733 200.672 371.938 200.672C372.124 200.672 372.293 200.649 372.443 200.604C372.594 200.553 372.728 200.487 372.847 200.405C373.006 200.291 373.136 200.148 373.236 199.975C373.341 199.797 373.421 199.599 373.476 199.38C373.521 199.216 373.555 199.038 373.578 198.847C373.601 198.655 373.612 198.457 373.612 198.252V198.108ZM380.466 202.012C379.919 202.012 379.417 201.921 378.962 201.738C378.511 201.556 378.123 201.303 377.8 200.979C377.476 200.66 377.225 200.285 377.048 199.852C376.874 199.414 376.788 198.942 376.788 198.437V198.156C376.788 197.577 376.879 197.053 377.061 196.584C377.244 196.115 377.494 195.714 377.813 195.381C378.132 195.048 378.501 194.793 378.921 194.615C379.344 194.433 379.796 194.342 380.274 194.342C380.807 194.342 381.279 194.433 381.689 194.615C382.099 194.793 382.443 195.041 382.721 195.36C382.999 195.684 383.209 196.069 383.35 196.516C383.492 196.962 383.562 197.45 383.562 197.979V198.683H378.435V198.717C378.485 199.04 378.563 199.312 378.668 199.53C378.773 199.749 378.916 199.945 379.098 200.118C379.281 200.3 379.495 200.442 379.741 200.542C379.992 200.642 380.265 200.692 380.561 200.692C380.967 200.692 381.345 200.615 381.696 200.46C382.047 200.3 382.336 200.075 382.564 199.783L383.439 200.631C383.193 200.986 382.815 201.305 382.304 201.588C381.799 201.87 381.186 202.012 380.466 202.012ZM380.267 195.668C380.035 195.668 379.818 195.711 379.618 195.798C379.422 195.88 379.247 195.998 379.092 196.153C378.937 196.313 378.807 196.504 378.702 196.728C378.597 196.951 378.52 197.204 378.469 197.486H381.949V197.377C381.949 197.163 381.91 196.951 381.833 196.741C381.755 196.527 381.646 196.34 381.505 196.181C381.368 196.026 381.195 195.903 380.985 195.812C380.78 195.716 380.541 195.668 380.267 195.668ZM385.596 191.375H389.581V200.521H391.824V201.875H385.596V200.521H387.934V192.735H385.596V191.375ZM405.099 192.674V194.479H407.882V195.702H405.099V199.236C405.099 199.51 405.131 199.74 405.195 199.927C405.263 200.109 405.357 200.253 405.475 200.357C405.594 200.467 405.735 200.544 405.899 200.59C406.063 200.635 406.243 200.658 406.439 200.658C406.58 200.658 406.726 200.651 406.877 200.638C407.027 200.624 407.173 200.606 407.314 200.583C407.451 200.565 407.578 200.544 407.697 200.521C407.82 200.494 407.923 200.471 408.005 200.453L408.182 201.581C408.064 201.654 407.92 201.718 407.752 201.772C407.588 201.823 407.41 201.866 407.218 201.902C407.027 201.939 406.827 201.966 406.617 201.984C406.412 202.007 406.207 202.019 406.002 202.019C405.628 202.019 405.284 201.968 404.969 201.868C404.66 201.763 404.393 201.602 404.17 201.383C403.946 201.169 403.771 200.893 403.643 200.556C403.52 200.218 403.459 199.813 403.459 199.339V195.702H401.668V194.479H403.459V192.674H405.099ZM413.538 202.012C412.992 202.012 412.49 201.921 412.034 201.738C411.583 201.556 411.196 201.303 410.872 200.979C410.549 200.66 410.298 200.285 410.12 199.852C409.947 199.414 409.861 198.942 409.861 198.437V198.156C409.861 197.577 409.952 197.053 410.134 196.584C410.316 196.115 410.567 195.714 410.886 195.381C411.205 195.048 411.574 194.793 411.993 194.615C412.417 194.433 412.868 194.342 413.347 194.342C413.88 194.342 414.352 194.433 414.762 194.615C415.172 194.793 415.516 195.041 415.794 195.36C416.072 195.684 416.282 196.069 416.423 196.516C416.564 196.962 416.635 197.45 416.635 197.979V198.683H411.508V198.717C411.558 199.04 411.636 199.312 411.741 199.53C411.845 199.749 411.989 199.945 412.171 200.118C412.354 200.3 412.568 200.442 412.814 200.542C413.064 200.642 413.338 200.692 413.634 200.692C414.04 200.692 414.418 200.615 414.769 200.46C415.12 200.3 415.409 200.075 415.637 199.783L416.512 200.631C416.266 200.986 415.888 201.305 415.377 201.588C414.871 201.87 414.258 202.012 413.538 202.012ZM413.34 195.668C413.108 195.668 412.891 195.711 412.691 195.798C412.495 195.88 412.319 195.998 412.164 196.153C412.009 196.313 411.88 196.504 411.775 196.728C411.67 196.951 411.592 197.204 411.542 197.486H415.022V197.377C415.022 197.163 414.983 196.951 414.906 196.741C414.828 196.527 414.719 196.34 414.577 196.181C414.441 196.026 414.268 195.903 414.058 195.812C413.853 195.716 413.614 195.668 413.34 195.668ZM421.602 196.967L423.372 194.479H425.184L422.586 198.122L425.266 201.875H423.461L421.615 199.291L419.776 201.875H417.965L420.644 198.122L418.054 194.479H419.852L421.602 196.967ZM429.904 192.674V194.479H432.686V195.702H429.904V199.236C429.904 199.51 429.936 199.74 430 199.927C430.068 200.109 430.161 200.253 430.28 200.357C430.398 200.467 430.54 200.544 430.704 200.59C430.868 200.635 431.048 200.658 431.244 200.658C431.385 200.658 431.531 200.651 431.681 200.638C431.832 200.624 431.977 200.606 432.119 200.583C432.255 200.565 432.383 200.544 432.502 200.521C432.625 200.494 432.727 200.471 432.809 200.453L432.987 201.581C432.868 201.654 432.725 201.718 432.556 201.772C432.392 201.823 432.214 201.866 432.023 201.902C431.832 201.939 431.631 201.966 431.421 201.984C431.216 202.007 431.011 202.019 430.806 202.019C430.433 202.019 430.088 201.968 429.774 201.868C429.464 201.763 429.198 201.602 428.974 201.383C428.751 201.169 428.575 200.893 428.448 200.556C428.325 200.218 428.263 199.813 428.263 199.339V195.702H426.472V194.479H428.263V192.674H429.904ZM449.66 198.252C449.66 198.594 449.635 198.92 449.585 199.229C449.535 199.539 449.462 199.826 449.366 200.091C449.257 200.405 449.111 200.69 448.929 200.945C448.746 201.201 448.528 201.412 448.272 201.581C448.067 201.718 447.837 201.823 447.582 201.896C447.331 201.973 447.058 202.012 446.762 202.012C446.461 202.012 446.187 201.975 445.941 201.902C445.695 201.829 445.474 201.722 445.278 201.581C445.178 201.508 445.082 201.431 444.991 201.349C444.905 201.262 444.82 201.169 444.738 201.068L444.663 201.875H443.186V191.375H444.82V195.203C444.916 195.085 445.021 194.978 445.135 194.882C445.249 194.786 445.372 194.702 445.504 194.629C445.677 194.533 445.866 194.463 446.071 194.417C446.281 194.367 446.506 194.342 446.748 194.342C447.067 194.342 447.359 194.385 447.623 194.472C447.892 194.554 448.133 194.672 448.348 194.827C448.53 194.955 448.692 195.112 448.833 195.299C448.979 195.481 449.106 195.682 449.216 195.9C449.362 196.206 449.471 196.545 449.544 196.919C449.621 197.293 449.66 197.689 449.66 198.108V198.252ZM448.026 198.108C448.026 197.899 448.013 197.696 447.985 197.5C447.962 197.299 447.928 197.113 447.883 196.939C447.819 196.73 447.735 196.541 447.63 196.372C447.53 196.199 447.393 196.053 447.22 195.935C447.106 195.853 446.976 195.791 446.83 195.75C446.684 195.709 446.52 195.688 446.338 195.688C446.114 195.688 445.914 195.72 445.736 195.784C445.558 195.843 445.404 195.93 445.271 196.044C445.176 196.121 445.089 196.213 445.012 196.317C444.939 196.418 444.875 196.527 444.82 196.646V199.708C444.884 199.845 444.959 199.97 445.046 200.084C445.137 200.193 445.239 200.291 445.353 200.378C445.481 200.469 445.627 200.542 445.791 200.597C445.96 200.647 446.146 200.672 446.351 200.672C446.538 200.672 446.707 200.649 446.857 200.604C447.008 200.553 447.142 200.487 447.261 200.405C447.42 200.291 447.55 200.148 447.65 199.975C447.755 199.797 447.835 199.599 447.89 199.38C447.935 199.216 447.969 199.038 447.992 198.847C448.015 198.655 448.026 198.457 448.026 198.252V198.108ZM451.126 198.108C451.126 197.571 451.204 197.074 451.359 196.618C451.514 196.158 451.739 195.759 452.036 195.422C452.327 195.085 452.685 194.82 453.109 194.629C453.533 194.438 454.016 194.342 454.558 194.342C455.1 194.342 455.584 194.438 456.007 194.629C456.436 194.82 456.798 195.085 457.094 195.422C457.386 195.759 457.609 196.158 457.764 196.618C457.919 197.074 457.997 197.571 457.997 198.108V198.252C457.997 198.794 457.919 199.293 457.764 199.749C457.609 200.205 457.386 200.601 457.094 200.938C456.803 201.276 456.443 201.54 456.014 201.731C455.59 201.923 455.11 202.019 454.572 202.019C454.029 202.019 453.544 201.923 453.116 201.731C452.687 201.54 452.327 201.276 452.036 200.938C451.739 200.601 451.514 200.205 451.359 199.749C451.204 199.293 451.126 198.794 451.126 198.252V198.108ZM452.76 198.252C452.76 198.585 452.794 198.899 452.863 199.195C452.936 199.492 453.047 199.751 453.198 199.975C453.344 200.198 453.53 200.376 453.758 200.508C453.986 200.635 454.257 200.699 454.572 200.699C454.877 200.699 455.144 200.635 455.372 200.508C455.599 200.376 455.786 200.198 455.932 199.975C456.078 199.751 456.185 199.492 456.253 199.195C456.326 198.899 456.363 198.585 456.363 198.252V198.108C456.363 197.785 456.326 197.475 456.253 197.179C456.181 196.882 456.073 196.623 455.932 196.399C455.782 196.176 455.593 195.998 455.365 195.866C455.141 195.734 454.873 195.668 454.558 195.668C454.248 195.668 453.979 195.734 453.751 195.866C453.528 195.998 453.344 196.176 453.198 196.399C453.047 196.623 452.936 196.882 452.863 197.179C452.794 197.475 452.76 197.785 452.76 198.108V198.252ZM462.943 196.967L464.713 194.479H466.525L463.927 198.122L466.607 201.875H464.802L462.956 199.291L461.117 201.875H459.306L461.986 198.122L459.395 194.479H461.193L462.943 196.967ZM471.566 201.663C471.566 202.155 471.445 202.654 471.204 203.16C470.967 203.671 470.652 204.101 470.261 204.452L469.345 203.967C469.541 203.643 469.691 203.301 469.796 202.941C469.905 202.581 469.96 202.176 469.96 201.725V200.282H471.566V201.663ZM349.888 213.637H345.677V217.875H344.023V207.922H350.489V209.282H345.677V212.283H349.888V213.637ZM352.585 210.479H356.509V216.521H358.682V217.875H352.585V216.521H354.861V211.839H352.585V210.479ZM354.711 208.564C354.711 208.432 354.734 208.312 354.779 208.202C354.825 208.088 354.891 207.99 354.977 207.908C355.059 207.831 355.157 207.771 355.271 207.73C355.39 207.685 355.522 207.662 355.668 207.662C355.914 207.662 356.112 207.726 356.263 207.854C356.417 207.977 356.506 208.136 356.529 208.332C356.561 208.533 356.527 208.708 356.427 208.858C356.326 209.004 356.181 209.102 355.989 209.152C355.893 209.239 355.779 209.296 355.647 209.323C355.515 209.351 355.369 209.339 355.21 209.289C355.046 209.239 354.92 209.15 354.834 209.022C354.752 208.89 354.711 208.738 354.711 208.564ZM363.724 212.967L365.495 210.479H367.306L364.708 214.122L367.388 217.875H365.583L363.738 215.291L361.899 217.875H360.087L362.767 214.122L360.176 210.479H361.974L363.724 212.967ZM372.197 218.012C371.651 218.012 371.149 217.921 370.693 217.738C370.242 217.556 369.855 217.303 369.531 216.979C369.208 216.66 368.957 216.285 368.779 215.852C368.606 215.414 368.52 214.942 368.52 214.437V214.156C368.52 213.577 368.611 213.053 368.793 212.584C368.975 212.115 369.226 211.714 369.545 211.381C369.864 211.048 370.233 210.793 370.652 210.615C371.076 210.433 371.527 210.342 372.006 210.342C372.539 210.342 373.011 210.433 373.421 210.615C373.831 210.793 374.175 211.041 374.453 211.36C374.731 211.684 374.941 212.069 375.082 212.516C375.223 212.962 375.294 213.45 375.294 213.979V214.683H370.167V214.717C370.217 215.04 370.295 215.312 370.4 215.53C370.504 215.749 370.648 215.945 370.83 216.118C371.012 216.3 371.227 216.442 371.473 216.542C371.723 216.642 371.997 216.692 372.293 216.692C372.699 216.692 373.077 216.615 373.428 216.46C373.779 216.3 374.068 216.075 374.296 215.783L375.171 216.631C374.925 216.986 374.547 217.305 374.036 217.588C373.53 217.87 372.917 218.012 372.197 218.012ZM371.999 211.668C371.767 211.668 371.55 211.711 371.35 211.798C371.154 211.88 370.978 211.998 370.823 212.153C370.668 212.313 370.539 212.504 370.434 212.728C370.329 212.951 370.251 213.204 370.201 213.486H373.681V213.377C373.681 213.163 373.642 212.951 373.565 212.741C373.487 212.527 373.378 212.34 373.236 212.181C373.1 212.026 372.927 211.903 372.717 211.812C372.512 211.716 372.273 211.668 371.999 211.668ZM376.795 214.122C376.795 213.562 376.861 213.051 376.993 212.591C377.13 212.126 377.326 211.727 377.581 211.395C377.831 211.062 378.137 210.804 378.497 210.622C378.861 210.435 379.272 210.342 379.727 210.342C380.137 210.342 380.495 210.415 380.801 210.561C381.11 210.702 381.384 210.905 381.621 211.169V207.375H383.255V217.875H381.771L381.696 217.103C381.459 217.394 381.177 217.62 380.848 217.779C380.52 217.934 380.142 218.012 379.714 218.012C379.262 218.012 378.857 217.918 378.497 217.731C378.137 217.54 377.831 217.276 377.581 216.938C377.33 216.606 377.136 216.212 377 215.756C376.863 215.296 376.795 214.799 376.795 214.266V214.122ZM378.428 214.266C378.428 214.594 378.46 214.904 378.524 215.195C378.588 215.487 378.688 215.74 378.825 215.954C378.962 216.177 379.137 216.353 379.351 216.48C379.566 216.604 379.823 216.665 380.124 216.665C380.493 216.665 380.798 216.585 381.04 216.426C381.281 216.262 381.475 216.041 381.621 215.763V212.584C381.475 212.311 381.281 212.094 381.04 211.935C380.803 211.771 380.502 211.688 380.137 211.688C379.832 211.688 379.57 211.752 379.351 211.88C379.137 212.007 378.964 212.183 378.832 212.406C378.691 212.63 378.588 212.889 378.524 213.186C378.46 213.477 378.428 213.789 378.428 214.122V214.266ZM395.457 207.922L396.688 212.181L398.048 207.922H400.092V217.875H398.547V214.498L398.643 210.055L397.111 214.806H396.257L394.869 210.219L394.958 214.498V217.875H393.42V207.922H395.457ZM406.542 217.875C406.492 217.784 406.451 217.674 406.419 217.547C406.391 217.415 406.366 217.278 406.343 217.137C406.23 217.255 406.1 217.369 405.954 217.479C405.813 217.583 405.653 217.674 405.475 217.752C405.298 217.834 405.106 217.898 404.901 217.943C404.696 217.989 404.475 218.012 404.238 218.012C403.855 218.012 403.504 217.957 403.185 217.848C402.871 217.734 402.602 217.579 402.379 217.383C402.151 217.191 401.973 216.961 401.845 216.692C401.722 216.419 401.661 216.125 401.661 215.811C401.661 215.405 401.741 215.047 401.9 214.737C402.064 214.423 402.301 214.163 402.611 213.958C402.898 213.767 403.251 213.621 403.671 213.521C404.094 213.42 404.573 213.37 405.106 213.37H406.296V212.871C406.296 212.68 406.261 212.507 406.193 212.352C406.129 212.197 406.036 212.062 405.913 211.948C405.781 211.834 405.619 211.748 405.427 211.688C405.241 211.625 405.024 211.593 404.778 211.593C404.555 211.593 404.359 211.62 404.19 211.675C404.026 211.729 403.889 211.805 403.78 211.9C403.671 211.987 403.589 212.094 403.534 212.222C403.484 212.345 403.459 212.477 403.459 212.618H401.818C401.823 212.322 401.893 212.037 402.03 211.764C402.167 211.49 402.367 211.249 402.632 211.039C402.887 210.825 403.201 210.656 403.575 210.533C403.953 210.406 404.384 210.342 404.867 210.342C405.3 210.342 405.703 210.396 406.077 210.506C406.455 210.611 406.781 210.768 407.054 210.978C407.328 211.187 407.542 211.454 407.697 211.777C407.852 212.096 407.929 212.465 407.929 212.885V216.173C407.929 216.506 407.952 216.806 407.998 217.075C408.048 217.34 408.119 217.567 408.21 217.759V217.875H406.542ZM404.552 216.699C404.767 216.699 404.965 216.672 405.147 216.617C405.334 216.562 405.503 216.492 405.653 216.405C405.803 216.319 405.933 216.221 406.043 216.111C406.152 216.002 406.236 215.888 406.296 215.77V214.402H405.243C404.887 214.402 404.58 214.437 404.32 214.505C404.06 214.569 403.853 214.662 403.698 214.785C403.561 214.89 403.459 215.015 403.39 215.161C403.327 215.307 403.295 215.471 403.295 215.653C403.295 215.804 403.322 215.945 403.377 216.077C403.431 216.205 403.511 216.314 403.616 216.405C403.721 216.496 403.851 216.569 404.006 216.624C404.161 216.674 404.343 216.699 404.552 216.699ZM413.333 212.967L415.104 210.479H416.915L414.318 214.122L416.997 217.875H415.193L413.347 215.291L411.508 217.875H409.697L412.376 214.122L409.785 210.479H411.583L413.333 212.967ZM427.176 217.875L425.878 207.922H427.402L428.086 214.033L428.133 214.423L428.202 214.013L429.159 207.922H430.417L431.408 214.04L431.476 214.45L431.524 214.033L432.214 207.922H433.746L432.433 217.875H430.881L429.87 211.784L429.801 211.312L429.726 211.784L428.728 217.875H427.176ZM435.267 210.479H439.191V216.521H441.364V217.875H435.267V216.521H437.543V211.839H435.267V210.479ZM437.393 208.564C437.393 208.432 437.416 208.312 437.461 208.202C437.507 208.088 437.573 207.99 437.659 207.908C437.741 207.831 437.839 207.771 437.953 207.73C438.072 207.685 438.204 207.662 438.35 207.662C438.596 207.662 438.794 207.726 438.945 207.854C439.1 207.977 439.188 208.136 439.211 208.332C439.243 208.533 439.209 208.708 439.109 208.858C439.008 209.004 438.863 209.102 438.671 209.152C438.575 209.239 438.461 209.296 438.329 209.323C438.197 209.351 438.051 209.339 437.892 209.289C437.728 209.239 437.602 209.15 437.516 209.022C437.434 208.89 437.393 208.738 437.393 208.564ZM442.94 214.122C442.94 213.562 443.006 213.051 443.139 212.591C443.275 212.126 443.471 211.727 443.726 211.395C443.977 211.062 444.282 210.804 444.642 210.622C445.007 210.435 445.417 210.342 445.873 210.342C446.283 210.342 446.641 210.415 446.946 210.561C447.256 210.702 447.53 210.905 447.766 211.169V207.375H449.4V217.875H447.917L447.842 217.103C447.605 217.394 447.322 217.62 446.994 217.779C446.666 217.934 446.288 218.012 445.859 218.012C445.408 218.012 445.002 217.918 444.642 217.731C444.282 217.54 443.977 217.276 443.726 216.938C443.476 216.606 443.282 216.212 443.145 215.756C443.009 215.296 442.94 214.799 442.94 214.266V214.122ZM444.574 214.266C444.574 214.594 444.606 214.904 444.67 215.195C444.734 215.487 444.834 215.74 444.971 215.954C445.107 216.177 445.283 216.353 445.497 216.48C445.711 216.604 445.969 216.665 446.269 216.665C446.639 216.665 446.944 216.585 447.185 216.426C447.427 216.262 447.621 216.041 447.766 215.763V212.584C447.621 212.311 447.427 212.094 447.185 211.935C446.948 211.771 446.648 211.688 446.283 211.688C445.978 211.688 445.716 211.752 445.497 211.88C445.283 212.007 445.11 212.183 444.977 212.406C444.836 212.63 444.734 212.889 444.67 213.186C444.606 213.477 444.574 213.789 444.574 214.122V214.266ZM454.709 208.674V210.479H457.491V211.702H454.709V215.236C454.709 215.51 454.74 215.74 454.804 215.927C454.873 216.109 454.966 216.253 455.084 216.357C455.203 216.467 455.344 216.544 455.508 216.59C455.672 216.635 455.852 216.658 456.048 216.658C456.19 216.658 456.335 216.651 456.486 216.638C456.636 216.624 456.782 216.606 456.923 216.583C457.06 216.565 457.188 216.544 457.306 216.521C457.429 216.494 457.532 216.471 457.614 216.453L457.792 217.581C457.673 217.654 457.529 217.718 457.361 217.772C457.197 217.823 457.019 217.866 456.828 217.902C456.636 217.939 456.436 217.966 456.226 217.984C456.021 218.007 455.816 218.019 455.611 218.019C455.237 218.019 454.893 217.968 454.579 217.868C454.269 217.763 454.002 217.602 453.779 217.383C453.556 217.169 453.38 216.893 453.252 216.556C453.129 216.218 453.068 215.813 453.068 215.339V211.702H451.277V210.479H453.068V208.674H454.709ZM461.329 211.531C461.425 211.385 461.532 211.251 461.651 211.128C461.769 211.005 461.894 210.898 462.027 210.807C462.232 210.656 462.457 210.542 462.703 210.465C462.954 210.383 463.218 210.342 463.496 210.342C463.884 210.342 464.237 210.399 464.556 210.513C464.879 210.627 465.155 210.804 465.383 211.046C465.611 211.287 465.786 211.597 465.909 211.976C466.037 212.349 466.101 212.798 466.101 213.322V217.875H464.467V213.309C464.467 213.035 464.433 212.796 464.364 212.591C464.301 212.386 464.205 212.219 464.077 212.092C463.945 211.955 463.783 211.855 463.592 211.791C463.405 211.723 463.189 211.688 462.943 211.688C462.751 211.688 462.569 211.711 462.396 211.757C462.227 211.802 462.072 211.868 461.931 211.955C461.812 212.023 461.701 212.105 461.596 212.201C461.496 212.297 461.407 212.404 461.329 212.522V217.875H459.695V207.375H461.329V211.531ZM472.838 213.944C472.838 214.582 472.785 215.184 472.68 215.749C472.58 216.314 472.444 216.838 472.27 217.321C472.097 217.809 471.897 218.253 471.669 218.654C471.441 219.055 471.199 219.411 470.944 219.721C470.689 220.04 470.429 220.309 470.165 220.527C469.901 220.746 469.645 220.915 469.399 221.033L469.078 220.117C469.251 219.99 469.424 219.828 469.597 219.632C469.771 219.436 469.939 219.21 470.103 218.955C470.277 218.673 470.438 218.351 470.589 217.991C470.744 217.636 470.874 217.242 470.978 216.809C471.079 216.408 471.156 215.97 471.211 215.496C471.27 215.022 471.3 214.509 471.3 213.958V213.814C471.3 213.245 471.268 212.721 471.204 212.242C471.14 211.764 471.06 211.335 470.965 210.957C470.837 210.465 470.682 210.023 470.5 209.631C470.322 209.239 470.135 208.899 469.939 208.612C469.803 208.407 469.659 208.225 469.509 208.065C469.363 207.901 469.219 207.765 469.078 207.655L469.399 206.739C469.645 206.858 469.901 207.029 470.165 207.252C470.434 207.471 470.694 207.735 470.944 208.045C471.204 208.364 471.448 208.724 471.676 209.125C471.903 209.521 472.102 209.964 472.27 210.451C472.439 210.934 472.576 211.456 472.68 212.017C472.785 212.573 472.838 213.176 472.838 213.828V213.944Z" fill="#C7A5FA"/>
<rect x="329.487" y="139.75" width="159" height="18.7499" stroke="#643ABD"/>
<g opacity="0.5">
<g clip-path="url(#clip9_2029_9012)">
<rect width="7.78753" height="20" transform="translate(599.712 108)" fill="#30C9B0" fill-opacity="0.5"/>
<rect x="599.712" y="108" width="7.78753" height="20" fill="#30C9B0" fill-opacity="0.5"/>
</g>
</g>
<g clip-path="url(#clip10_2029_9012)">
<line x1="600" y1="104" x2="600" y2="89" stroke="#30C9B0"/>
<line x1="599.5" y1="96.5" x2="607.288" y2="96.5" stroke="#30C9B0"/>
<line x1="607" y1="104" x2="607" y2="89" stroke="#30C9B0"/>
</g>
<path d="M606.929 74.6719C606.929 74.9727 606.879 75.2529 606.779 75.5127C606.683 75.7725 606.547 76.0049 606.369 76.21C606.259 76.3421 606.134 76.4652 605.993 76.5791C605.852 76.693 605.694 76.7933 605.521 76.8799C605.726 76.9756 605.915 77.0872 606.088 77.2148C606.266 77.3379 606.421 77.4814 606.553 77.6455C606.74 77.8643 606.886 78.1126 606.991 78.3906C607.096 78.6686 607.148 78.9694 607.148 79.293C607.148 79.7533 607.064 80.1611 606.895 80.5166C606.727 80.8721 606.496 81.1683 606.205 81.4053C605.908 81.6468 605.562 81.8291 605.166 81.9521C604.774 82.0752 604.35 82.1367 603.894 82.1367C603.429 82.1367 602.996 82.0752 602.595 81.9521C602.199 81.8291 601.855 81.6468 601.563 81.4053C601.267 81.1683 601.034 80.8743 600.866 80.5234C600.702 80.168 600.62 79.7578 600.62 79.293C600.62 79.0195 600.656 78.7598 600.729 78.5137C600.807 78.2676 600.916 78.0397 601.057 77.8301C601.199 77.6296 601.367 77.4495 601.563 77.29C601.764 77.126 601.987 76.987 602.233 76.873C602.023 76.7682 601.832 76.6406 601.659 76.4902C601.49 76.3398 601.347 76.1735 601.228 75.9912C601.105 75.8044 601.009 75.5993 600.941 75.376C600.873 75.1527 600.838 74.918 600.838 74.6719C600.838 74.2298 600.914 73.8379 601.064 73.4961C601.219 73.1543 601.431 72.8649 601.7 72.6279C601.964 72.391 602.281 72.2132 602.65 72.0947C603.024 71.9717 603.432 71.9102 603.874 71.9102C604.311 71.9102 604.714 71.9717 605.084 72.0947C605.457 72.2132 605.783 72.391 606.061 72.6279C606.33 72.8604 606.542 73.1497 606.697 73.4961C606.852 73.8379 606.929 74.2298 606.929 74.6719ZM605.514 79.2041C605.514 78.958 605.473 78.7347 605.391 78.5342C605.314 78.3291 605.204 78.1514 605.063 78.001C604.917 77.8597 604.744 77.7503 604.544 77.6729C604.343 77.5954 604.122 77.5566 603.88 77.5566C603.63 77.5566 603.404 77.5954 603.204 77.6729C603.008 77.7503 602.839 77.8597 602.698 78.001C602.557 78.1514 602.447 78.3291 602.37 78.5342C602.297 78.7347 602.26 78.9603 602.26 79.2109C602.26 79.4661 602.299 79.6963 602.377 79.9014C602.454 80.1019 602.566 80.2705 602.712 80.4072C602.853 80.5394 603.021 80.6419 603.217 80.7148C603.418 80.7832 603.644 80.8174 603.894 80.8174C604.131 80.8174 604.348 80.7809 604.544 80.708C604.744 80.6351 604.917 80.5303 605.063 80.3936C605.2 80.2523 605.309 80.0837 605.391 79.8877C605.473 79.6872 605.514 79.4593 605.514 79.2041ZM605.302 74.7334C605.302 74.5101 605.266 74.3073 605.193 74.125C605.125 73.9427 605.029 73.7832 604.906 73.6465C604.778 73.5189 604.628 73.4186 604.455 73.3457C604.282 73.2728 604.086 73.2363 603.867 73.2363C603.653 73.2363 603.459 73.2728 603.286 73.3457C603.117 73.4141 602.971 73.512 602.848 73.6396C602.73 73.7673 602.639 73.9245 602.575 74.1113C602.511 74.2982 602.479 74.5055 602.479 74.7334C602.479 74.9567 602.511 75.1618 602.575 75.3486C602.639 75.5309 602.734 75.6859 602.862 75.8135C602.985 75.9456 603.133 76.0482 603.306 76.1211C603.479 76.194 603.673 76.2305 603.887 76.2305C604.102 76.2305 604.295 76.194 604.468 76.1211C604.642 76.0482 604.79 75.9456 604.913 75.8135C605.036 75.6859 605.131 75.5309 605.2 75.3486C605.268 75.1618 605.302 74.9567 605.302 74.7334Z" fill="#30C9B0"/>
<defs>
<clipPath id="clip0_2029_9012">
<rect width="449.555" height="8" fill="white" transform="translate(362.445 129.25)"/>
</clipPath>
<clipPath id="clip1_2029_9012">
<rect width="15" height="8" fill="white" transform="translate(339.445 129.25)"/>
</clipPath>
<clipPath id="clip2_2029_9012">
<rect width="36" height="20" fill="white" transform="translate(391.555 137.25)"/>
</clipPath>
<clipPath id="clip3_2029_9012">
<rect width="160" height="21" fill="white" transform="translate(511.555 137.25)"/>
</clipPath>
<clipPath id="clip4_2029_9012">
<rect width="160" height="21" fill="white" transform="translate(693.555 137.25)"/>
</clipPath>
<clipPath id="clip5_2029_9012">
<rect width="16" height="15" fill="white" transform="translate(401.47 94.5)"/>
</clipPath>
<clipPath id="clip6_2029_9012">
<rect width="16" height="16" fill="white" transform="translate(401.47 113.5)"/>
</clipPath>
<clipPath id="clip7_2029_9012">
<rect width="150" height="15" fill="white" transform="translate(424.829 94.5)"/>
</clipPath>
<clipPath id="clip8_2029_9012">
<rect width="160" height="15" fill="white" transform="translate(329.097 159.5)"/>
</clipPath>
<clipPath id="clip9_2029_9012">
<rect width="7.78753" height="20" fill="white" transform="translate(599.712 108)"/>
</clipPath>
<clipPath id="clip10_2029_9012">
<rect width="7.78753" height="15" fill="white" transform="translate(599.5 89)"/>
</clipPath>
</defs>
</svg>
