<svg width="1150" height="307" viewBox="0 0 1150 307" fill="none" xmlns="http://www.w3.org/2000/svg">
<rect width="1150" height="307" rx="16" fill="#1A1A1A"/>
<path d="M460.184 159.25C460.184 163.116 457.05 166.25 453.184 166.25C449.318 166.25 446.184 163.116 446.184 159.25C446.184 155.384 449.318 152.25 453.184 152.25C457.05 152.25 460.184 155.384 460.184 159.25Z" stroke="#64B4FA" stroke-width="2"/>
<g clip-path="url(#clip0_2029_9064)">
<path d="M470.452 164.25V154.068H471.685V163.156H476.418V164.25H470.452ZM480.415 164.429C479.931 164.429 479.492 164.338 479.097 164.156C478.703 163.97 478.39 163.703 478.158 163.355C477.926 163.004 477.81 162.58 477.81 162.082C477.81 161.645 477.896 161.29 478.068 161.018C478.241 160.743 478.471 160.528 478.759 160.372C479.048 160.216 479.366 160.1 479.714 160.024C480.065 159.945 480.418 159.882 480.773 159.835C481.237 159.776 481.613 159.731 481.901 159.701C482.193 159.668 482.405 159.613 482.538 159.537C482.674 159.461 482.741 159.328 482.741 159.139V159.099C482.741 158.609 482.607 158.228 482.339 157.956C482.074 157.684 481.671 157.548 481.131 157.548C480.571 157.548 480.131 157.671 479.813 157.916C479.495 158.161 479.271 158.423 479.142 158.702L478.028 158.304C478.227 157.84 478.492 157.479 478.824 157.22C479.159 156.958 479.523 156.776 479.918 156.673C480.315 156.567 480.706 156.514 481.091 156.514C481.336 156.514 481.618 156.544 481.936 156.604C482.258 156.66 482.567 156.778 482.866 156.957C483.167 157.136 483.418 157.406 483.616 157.767C483.815 158.128 483.915 158.612 483.915 159.219V164.25H482.741V163.216H482.682C482.602 163.382 482.47 163.559 482.284 163.748C482.098 163.937 481.852 164.098 481.543 164.23C481.235 164.363 480.859 164.429 480.415 164.429ZM480.594 163.375C481.058 163.375 481.449 163.284 481.767 163.102C482.089 162.919 482.33 162.684 482.493 162.396C482.659 162.107 482.741 161.804 482.741 161.486V160.412C482.692 160.472 482.582 160.526 482.413 160.576C482.248 160.622 482.055 160.664 481.837 160.7C481.621 160.733 481.411 160.763 481.205 160.79C481.003 160.813 480.839 160.833 480.713 160.849C480.408 160.889 480.123 160.954 479.858 161.043C479.596 161.129 479.384 161.26 479.222 161.436C479.063 161.608 478.983 161.844 478.983 162.142C478.983 162.55 479.134 162.858 479.435 163.067C479.74 163.272 480.126 163.375 480.594 163.375ZM486.215 164.25V154.068H487.389V157.827H487.488C487.574 157.694 487.694 157.525 487.846 157.32C488.002 157.111 488.224 156.925 488.512 156.763C488.804 156.597 489.198 156.514 489.695 156.514C490.338 156.514 490.905 156.675 491.396 156.996C491.886 157.318 492.269 157.774 492.544 158.364C492.819 158.954 492.957 159.65 492.957 160.452C492.957 161.26 492.819 161.961 492.544 162.555C492.269 163.145 491.888 163.602 491.401 163.927C490.914 164.248 490.352 164.409 489.715 164.409C489.225 164.409 488.832 164.328 488.537 164.165C488.242 164 488.015 163.812 487.856 163.604C487.697 163.392 487.574 163.216 487.488 163.077H487.349V164.25H486.215ZM487.369 160.432C487.369 161.009 487.453 161.517 487.622 161.958C487.791 162.396 488.038 162.739 488.363 162.987C488.688 163.232 489.086 163.355 489.556 163.355C490.047 163.355 490.456 163.226 490.784 162.967C491.116 162.705 491.364 162.354 491.53 161.913C491.699 161.469 491.784 160.975 491.784 160.432C491.784 159.895 491.701 159.411 491.535 158.98C491.373 158.546 491.126 158.203 490.794 157.951C490.466 157.696 490.053 157.568 489.556 157.568C489.079 157.568 488.678 157.689 488.353 157.931C488.028 158.17 487.783 158.504 487.617 158.935C487.452 159.363 487.369 159.862 487.369 160.432ZM497.953 164.409C497.218 164.409 496.583 164.247 496.049 163.922C495.519 163.594 495.11 163.136 494.821 162.55C494.536 161.96 494.394 161.274 494.394 160.491C494.394 159.709 494.536 159.02 494.821 158.423C495.11 157.823 495.511 157.356 496.024 157.021C496.541 156.683 497.145 156.514 497.834 156.514C498.232 156.514 498.624 156.58 499.012 156.713C499.4 156.846 499.753 157.061 500.071 157.359C500.389 157.654 500.643 158.045 500.832 158.533C501.021 159.02 501.115 159.62 501.115 160.332V160.83H495.229V159.815H499.922C499.922 159.384 499.836 159 499.664 158.662C499.494 158.324 499.253 158.057 498.938 157.862C498.626 157.666 498.258 157.568 497.834 157.568C497.367 157.568 496.962 157.684 496.621 157.916C496.283 158.145 496.023 158.443 495.84 158.811C495.658 159.179 495.567 159.573 495.567 159.994V160.67C495.567 161.247 495.666 161.736 495.865 162.137C496.067 162.535 496.347 162.838 496.705 163.047C497.063 163.252 497.479 163.355 497.953 163.355C498.262 163.355 498.54 163.312 498.789 163.226C499.04 163.136 499.258 163.004 499.44 162.828C499.622 162.649 499.763 162.427 499.862 162.162L500.996 162.48C500.877 162.865 500.676 163.203 500.394 163.494C500.113 163.783 499.765 164.008 499.35 164.17C498.936 164.33 498.47 164.409 497.953 164.409ZM504.073 154.068V164.25H502.9V154.068H504.073Z" fill="white" fill-opacity="0.7"/>
</g>
<rect x="513.184" y="158.25" width="24" height="2" fill="#8F8F8F"/>
<path d="M560.184 159.25C560.184 163.116 557.05 166.25 553.184 166.25C549.318 166.25 546.184 163.116 546.184 159.25C546.184 155.384 549.318 152.25 553.184 152.25C557.05 152.25 560.184 155.384 560.184 159.25Z" stroke="#64B4FA" stroke-width="2"/>
<g clip-path="url(#clip1_2029_9064)">
<path d="M570.452 164.25V154.068H571.685V163.156H576.418V164.25H570.452ZM580.415 164.429C579.931 164.429 579.492 164.338 579.097 164.156C578.703 163.97 578.39 163.703 578.158 163.355C577.926 163.004 577.81 162.58 577.81 162.082C577.81 161.645 577.896 161.29 578.068 161.018C578.241 160.743 578.471 160.528 578.759 160.372C579.048 160.216 579.366 160.1 579.714 160.024C580.065 159.945 580.418 159.882 580.773 159.835C581.237 159.776 581.613 159.731 581.901 159.701C582.193 159.668 582.405 159.613 582.538 159.537C582.674 159.461 582.741 159.328 582.741 159.139V159.099C582.741 158.609 582.607 158.228 582.339 157.956C582.074 157.684 581.671 157.548 581.131 157.548C580.571 157.548 580.131 157.671 579.813 157.916C579.495 158.161 579.271 158.423 579.142 158.702L578.028 158.304C578.227 157.84 578.492 157.479 578.824 157.22C579.159 156.958 579.523 156.776 579.918 156.673C580.315 156.567 580.706 156.514 581.091 156.514C581.336 156.514 581.618 156.544 581.936 156.604C582.258 156.66 582.567 156.778 582.866 156.957C583.167 157.136 583.418 157.406 583.616 157.767C583.815 158.128 583.915 158.612 583.915 159.219V164.25H582.741V163.216H582.682C582.602 163.382 582.47 163.559 582.284 163.748C582.098 163.937 581.852 164.098 581.543 164.23C581.235 164.363 580.859 164.429 580.415 164.429ZM580.594 163.375C581.058 163.375 581.449 163.284 581.767 163.102C582.089 162.919 582.33 162.684 582.493 162.396C582.659 162.107 582.741 161.804 582.741 161.486V160.412C582.692 160.472 582.582 160.526 582.413 160.576C582.248 160.622 582.055 160.664 581.837 160.7C581.621 160.733 581.411 160.763 581.205 160.79C581.003 160.813 580.839 160.833 580.713 160.849C580.408 160.889 580.123 160.954 579.858 161.043C579.596 161.129 579.384 161.26 579.222 161.436C579.063 161.608 578.983 161.844 578.983 162.142C578.983 162.55 579.134 162.858 579.435 163.067C579.74 163.272 580.126 163.375 580.594 163.375ZM586.215 164.25V154.068H587.389V157.827H587.488C587.574 157.694 587.694 157.525 587.846 157.32C588.002 157.111 588.224 156.925 588.512 156.763C588.804 156.597 589.198 156.514 589.695 156.514C590.338 156.514 590.905 156.675 591.396 156.996C591.886 157.318 592.269 157.774 592.544 158.364C592.819 158.954 592.957 159.65 592.957 160.452C592.957 161.26 592.819 161.961 592.544 162.555C592.269 163.145 591.888 163.602 591.401 163.927C590.914 164.248 590.352 164.409 589.715 164.409C589.225 164.409 588.832 164.328 588.537 164.165C588.242 164 588.015 163.812 587.856 163.604C587.697 163.392 587.574 163.216 587.488 163.077H587.349V164.25H586.215ZM587.369 160.432C587.369 161.009 587.453 161.517 587.622 161.958C587.791 162.396 588.038 162.739 588.363 162.987C588.688 163.232 589.086 163.355 589.556 163.355C590.047 163.355 590.456 163.226 590.784 162.967C591.116 162.705 591.364 162.354 591.53 161.913C591.699 161.469 591.784 160.975 591.784 160.432C591.784 159.895 591.701 159.411 591.535 158.98C591.373 158.546 591.126 158.203 590.794 157.951C590.466 157.696 590.053 157.568 589.556 157.568C589.079 157.568 588.678 157.689 588.353 157.931C588.028 158.17 587.783 158.504 587.617 158.935C587.452 159.363 587.369 159.862 587.369 160.432ZM597.953 164.409C597.218 164.409 596.583 164.247 596.049 163.922C595.519 163.594 595.11 163.136 594.821 162.55C594.536 161.96 594.394 161.274 594.394 160.491C594.394 159.709 594.536 159.02 594.821 158.423C595.11 157.823 595.511 157.356 596.024 157.021C596.541 156.683 597.145 156.514 597.834 156.514C598.232 156.514 598.624 156.58 599.012 156.713C599.4 156.846 599.753 157.061 600.071 157.359C600.389 157.654 600.643 158.045 600.832 158.533C601.021 159.02 601.115 159.62 601.115 160.332V160.83H595.229V159.815H599.922C599.922 159.384 599.836 159 599.664 158.662C599.494 158.324 599.253 158.057 598.938 157.862C598.626 157.666 598.258 157.568 597.834 157.568C597.367 157.568 596.962 157.684 596.621 157.916C596.283 158.145 596.023 158.443 595.84 158.811C595.658 159.179 595.567 159.573 595.567 159.994V160.67C595.567 161.247 595.666 161.736 595.865 162.137C596.067 162.535 596.347 162.838 596.705 163.047C597.063 163.252 597.479 163.355 597.953 163.355C598.262 163.355 598.54 163.312 598.789 163.226C599.04 163.136 599.258 163.004 599.44 162.828C599.622 162.649 599.763 162.427 599.862 162.162L600.996 162.48C600.877 162.865 600.676 163.203 600.394 163.494C600.113 163.783 599.765 164.008 599.35 164.17C598.936 164.33 598.47 164.409 597.953 164.409ZM604.073 154.068V164.25H602.9V154.068H604.073Z" fill="white" fill-opacity="0.7"/>
</g>
<rect x="613.184" y="158.25" width="24" height="2" fill="#8F8F8F"/>
<path d="M660.184 159.25C660.184 163.116 657.05 166.25 653.184 166.25C649.318 166.25 646.184 163.116 646.184 159.25C646.184 155.384 649.318 152.25 653.184 152.25C657.05 152.25 660.184 155.384 660.184 159.25Z" stroke="#64B4FA" stroke-width="2"/>
<g clip-path="url(#clip2_2029_9064)">
<path d="M670.452 164.25V154.068H671.685V163.156H676.418V164.25H670.452ZM680.415 164.429C679.931 164.429 679.492 164.338 679.097 164.156C678.703 163.97 678.39 163.703 678.158 163.355C677.926 163.004 677.81 162.58 677.81 162.082C677.81 161.645 677.896 161.29 678.068 161.018C678.241 160.743 678.471 160.528 678.759 160.372C679.048 160.216 679.366 160.1 679.714 160.024C680.065 159.945 680.418 159.882 680.773 159.835C681.237 159.776 681.613 159.731 681.901 159.701C682.193 159.668 682.405 159.613 682.538 159.537C682.674 159.461 682.741 159.328 682.741 159.139V159.099C682.741 158.609 682.607 158.228 682.339 157.956C682.074 157.684 681.671 157.548 681.131 157.548C680.571 157.548 680.131 157.671 679.813 157.916C679.495 158.161 679.271 158.423 679.142 158.702L678.028 158.304C678.227 157.84 678.492 157.479 678.824 157.22C679.159 156.958 679.523 156.776 679.918 156.673C680.315 156.567 680.706 156.514 681.091 156.514C681.336 156.514 681.618 156.544 681.936 156.604C682.258 156.66 682.567 156.778 682.866 156.957C683.167 157.136 683.418 157.406 683.616 157.767C683.815 158.128 683.915 158.612 683.915 159.219V164.25H682.741V163.216H682.682C682.602 163.382 682.47 163.559 682.284 163.748C682.098 163.937 681.852 164.098 681.543 164.23C681.235 164.363 680.859 164.429 680.415 164.429ZM680.594 163.375C681.058 163.375 681.449 163.284 681.767 163.102C682.089 162.919 682.33 162.684 682.493 162.396C682.659 162.107 682.741 161.804 682.741 161.486V160.412C682.692 160.472 682.582 160.526 682.413 160.576C682.248 160.622 682.055 160.664 681.837 160.7C681.621 160.733 681.411 160.763 681.205 160.79C681.003 160.813 680.839 160.833 680.713 160.849C680.408 160.889 680.123 160.954 679.858 161.043C679.596 161.129 679.384 161.26 679.222 161.436C679.063 161.608 678.983 161.844 678.983 162.142C678.983 162.55 679.134 162.858 679.435 163.067C679.74 163.272 680.126 163.375 680.594 163.375ZM686.215 164.25V154.068H687.389V157.827H687.488C687.574 157.694 687.694 157.525 687.846 157.32C688.002 157.111 688.224 156.925 688.512 156.763C688.804 156.597 689.198 156.514 689.695 156.514C690.338 156.514 690.905 156.675 691.396 156.996C691.886 157.318 692.269 157.774 692.544 158.364C692.819 158.954 692.957 159.65 692.957 160.452C692.957 161.26 692.819 161.961 692.544 162.555C692.269 163.145 691.888 163.602 691.401 163.927C690.914 164.248 690.352 164.409 689.715 164.409C689.225 164.409 688.832 164.328 688.537 164.165C688.242 164 688.015 163.812 687.856 163.604C687.697 163.392 687.574 163.216 687.488 163.077H687.349V164.25H686.215ZM687.369 160.432C687.369 161.009 687.453 161.517 687.622 161.958C687.791 162.396 688.038 162.739 688.363 162.987C688.688 163.232 689.086 163.355 689.556 163.355C690.047 163.355 690.456 163.226 690.784 162.967C691.116 162.705 691.364 162.354 691.53 161.913C691.699 161.469 691.784 160.975 691.784 160.432C691.784 159.895 691.701 159.411 691.535 158.98C691.373 158.546 691.126 158.203 690.794 157.951C690.466 157.696 690.053 157.568 689.556 157.568C689.079 157.568 688.678 157.689 688.353 157.931C688.028 158.17 687.783 158.504 687.617 158.935C687.452 159.363 687.369 159.862 687.369 160.432ZM697.953 164.409C697.218 164.409 696.583 164.247 696.049 163.922C695.519 163.594 695.11 163.136 694.821 162.55C694.536 161.96 694.394 161.274 694.394 160.491C694.394 159.709 694.536 159.02 694.821 158.423C695.11 157.823 695.511 157.356 696.024 157.021C696.541 156.683 697.145 156.514 697.834 156.514C698.232 156.514 698.624 156.58 699.012 156.713C699.4 156.846 699.753 157.061 700.071 157.359C700.389 157.654 700.643 158.045 700.832 158.533C701.021 159.02 701.115 159.62 701.115 160.332V160.83H695.229V159.815H699.922C699.922 159.384 699.836 159 699.664 158.662C699.494 158.324 699.253 158.057 698.938 157.862C698.626 157.666 698.258 157.568 697.834 157.568C697.367 157.568 696.962 157.684 696.621 157.916C696.283 158.145 696.023 158.443 695.84 158.811C695.658 159.179 695.567 159.573 695.567 159.994V160.67C695.567 161.247 695.666 161.736 695.865 162.137C696.067 162.535 696.347 162.838 696.705 163.047C697.063 163.252 697.479 163.355 697.953 163.355C698.262 163.355 698.54 163.312 698.789 163.226C699.04 163.136 699.258 163.004 699.44 162.828C699.622 162.649 699.763 162.427 699.862 162.162L700.996 162.48C700.877 162.865 700.676 163.203 700.394 163.494C700.113 163.783 699.765 164.008 699.35 164.17C698.936 164.33 698.47 164.409 697.953 164.409ZM704.073 154.068V164.25H702.9V154.068H704.073Z" fill="white" fill-opacity="0.7"/>
</g>
<g clip-path="url(#clip3_2029_9064)">
<line x1="445.599" y1="149.5" x2="445.599" y2="134.5" stroke="#C7A5FA"/>
<line x1="445.099" y1="142" x2="457.099" y2="142" stroke="#C7A5FA"/>
<line x1="456.599" y1="149.5" x2="456.599" y2="134.5" stroke="#C7A5FA"/>
</g>
<path d="M448.243 127.5H446.595V119.57L444.046 120.507V119.064L448.14 117.547H448.243V127.5ZM458.425 127.5H451.746V126.365L454.987 122.838C455.256 122.542 455.481 122.277 455.663 122.045C455.846 121.808 455.994 121.591 456.108 121.396C456.217 121.2 456.295 121.017 456.34 120.849C456.39 120.675 456.415 120.502 456.415 120.329C456.415 120.097 456.381 119.885 456.313 119.693C456.244 119.502 456.144 119.338 456.012 119.201C455.88 119.064 455.72 118.957 455.534 118.88C455.351 118.802 455.146 118.764 454.918 118.764C454.627 118.764 454.374 118.805 454.159 118.887C453.945 118.969 453.768 119.085 453.626 119.235C453.48 119.395 453.371 119.589 453.298 119.816C453.225 120.04 453.189 120.295 453.189 120.582H451.548C451.548 120.149 451.628 119.741 451.787 119.358C451.947 118.971 452.175 118.634 452.471 118.347C452.763 118.06 453.118 117.832 453.537 117.663C453.961 117.494 454.433 117.41 454.952 117.41C455.44 117.41 455.875 117.481 456.258 117.622C456.645 117.763 456.971 117.959 457.236 118.21C457.495 118.461 457.694 118.761 457.83 119.112C457.967 119.459 458.035 119.841 458.035 120.261C458.035 120.575 457.983 120.881 457.878 121.177C457.778 121.468 457.639 121.758 457.461 122.045C457.279 122.332 457.062 122.621 456.812 122.913C456.566 123.205 456.297 123.506 456.005 123.815L453.79 126.181H458.425V127.5Z" fill="#C7A5FA"/>
<g clip-path="url(#clip4_2029_9064)">
<rect x="445.599" y="154" width="11" height="11" stroke="#C7A5FA" stroke-opacity="0.5" stroke-dasharray="4 4"/>
</g>
<g clip-path="url(#clip5_2029_9064)">
<line x1="460.226" y1="186.5" x2="460.226" y2="171.5" stroke="#C7A5FA"/>
<line x1="459.726" y1="179" x2="619.726" y2="179" stroke="#C7A5FA"/>
<line x1="619.226" y1="186.5" x2="619.226" y2="171.5" stroke="#C7A5FA"/>
</g>
<path d="M474.858 204.875H473.211V196.945L470.661 197.882V196.439L474.756 194.922H474.858V204.875ZM483.584 194.874V196.262H483.475C482.933 196.262 482.461 196.337 482.06 196.487C481.664 196.633 481.329 196.838 481.055 197.103C480.777 197.367 480.561 197.684 480.406 198.053C480.255 198.422 480.162 198.818 480.126 199.242C480.235 199.119 480.362 199.001 480.508 198.887C480.654 198.768 480.816 198.663 480.994 198.572C481.162 198.486 481.349 198.417 481.554 198.367C481.759 198.312 481.976 198.285 482.204 198.285C482.687 198.285 483.106 198.376 483.461 198.559C483.821 198.741 484.118 198.987 484.35 199.297C484.587 199.607 484.76 199.962 484.87 200.363C484.984 200.764 485.041 201.181 485.041 201.614C485.041 202.088 484.968 202.533 484.822 202.947C484.681 203.357 484.473 203.715 484.2 204.021C483.922 204.33 483.582 204.574 483.181 204.752C482.785 204.925 482.331 205.012 481.821 205.012C481.297 205.012 480.83 204.911 480.419 204.711C480.009 204.51 479.663 204.239 479.38 203.897C479.08 203.542 478.852 203.125 478.697 202.646C478.542 202.163 478.464 201.655 478.464 201.122V200.445C478.464 199.643 478.567 198.88 478.772 198.155C478.982 197.426 479.328 196.799 479.811 196.275C480.221 195.824 480.727 195.478 481.329 195.236C481.93 194.995 482.618 194.874 483.393 194.874H483.584ZM481.8 199.611C481.604 199.611 481.418 199.641 481.24 199.7C481.062 199.759 480.898 199.841 480.748 199.946C480.611 200.051 480.488 200.172 480.378 200.309C480.269 200.445 480.178 200.598 480.105 200.767V201.272C480.105 201.669 480.148 202.018 480.235 202.318C480.326 202.619 480.449 202.87 480.604 203.07C480.759 203.271 480.939 203.424 481.144 203.528C481.349 203.633 481.568 203.686 481.8 203.686C482.056 203.686 482.283 203.635 482.484 203.535C482.684 203.43 482.855 203.289 482.997 203.111C483.138 202.929 483.245 202.715 483.318 202.469C483.391 202.218 483.427 201.947 483.427 201.655C483.427 201.377 483.391 201.115 483.318 200.869C483.25 200.618 483.147 200.4 483.01 200.213C482.874 200.026 482.703 199.88 482.498 199.775C482.297 199.666 482.065 199.611 481.8 199.611ZM493.357 201.081C493.357 201.719 493.281 202.284 493.131 202.776C492.985 203.264 492.773 203.672 492.495 204C492.222 204.337 491.885 204.592 491.484 204.766C491.087 204.934 490.636 205.019 490.13 205.019C489.629 205.019 489.178 204.934 488.777 204.766C488.375 204.592 488.036 204.337 487.758 204C487.475 203.672 487.259 203.264 487.109 202.776C486.963 202.284 486.89 201.719 486.89 201.081V198.723C486.89 198.085 486.963 197.522 487.109 197.034C487.259 196.542 487.473 196.127 487.751 195.79C488.029 195.457 488.366 195.207 488.763 195.038C489.164 194.865 489.615 194.778 490.116 194.778C490.622 194.778 491.073 194.865 491.47 195.038C491.871 195.207 492.213 195.457 492.495 195.79C492.769 196.127 492.981 196.542 493.131 197.034C493.281 197.522 493.357 198.085 493.357 198.723V201.081ZM488.53 200.5L491.695 198.101C491.677 197.745 491.627 197.438 491.545 197.178C491.468 196.918 491.356 196.706 491.21 196.542C491.083 196.396 490.925 196.287 490.738 196.214C490.556 196.141 490.349 196.104 490.116 196.104C489.866 196.104 489.645 196.148 489.453 196.234C489.262 196.321 489.102 196.449 488.975 196.617C488.824 196.809 488.713 197.057 488.64 197.362C488.567 197.663 488.53 198.019 488.53 198.429V199.769C488.53 199.942 488.53 200.074 488.53 200.165C488.53 200.256 488.53 200.368 488.53 200.5ZM491.709 201.354V200.097C491.709 199.983 491.709 199.864 491.709 199.741C491.709 199.618 491.709 199.491 491.709 199.358L488.544 201.744C488.567 202.059 488.615 202.337 488.688 202.578C488.765 202.82 488.868 203.02 488.995 203.18C489.123 203.353 489.28 203.483 489.467 203.569C489.658 203.656 489.879 203.699 490.13 203.699C490.376 203.699 490.593 203.658 490.779 203.576C490.966 203.49 491.126 203.364 491.258 203.2C491.408 203.009 491.52 202.758 491.593 202.448C491.67 202.138 491.709 201.774 491.709 201.354ZM495.254 207.719V197.479H496.758L496.819 198.237C496.919 198.114 497.029 198.003 497.147 197.902C497.266 197.802 497.393 197.715 497.53 197.643C497.708 197.547 497.904 197.474 498.118 197.424C498.332 197.369 498.56 197.342 498.802 197.342C499.276 197.342 499.693 197.433 500.053 197.615C500.417 197.798 500.722 198.055 500.969 198.388C501.21 198.72 501.395 199.119 501.522 199.584C501.65 200.044 501.714 200.552 501.714 201.108V201.252C501.714 201.785 501.65 202.282 501.522 202.742C501.399 203.202 501.215 203.599 500.969 203.932C500.722 204.269 500.419 204.533 500.059 204.725C499.699 204.916 499.287 205.012 498.822 205.012C498.558 205.012 498.314 204.984 498.091 204.93C497.872 204.875 497.669 204.795 497.482 204.69C497.373 204.627 497.268 204.554 497.168 204.472C497.068 204.39 496.974 204.301 496.888 204.205V207.719H495.254ZM500.08 201.108C500.08 200.776 500.046 200.464 499.977 200.172C499.914 199.876 499.813 199.618 499.677 199.399C499.535 199.181 499.355 199.007 499.137 198.88C498.918 198.752 498.656 198.688 498.35 198.688C498.182 198.688 498.025 198.707 497.879 198.743C497.733 198.78 497.603 198.832 497.489 198.9C497.357 198.973 497.241 199.064 497.14 199.174C497.045 199.283 496.96 199.406 496.888 199.543V202.831C496.951 202.959 497.029 203.075 497.12 203.18C497.211 203.285 497.316 203.376 497.434 203.453C497.557 203.526 497.696 203.585 497.851 203.631C498.006 203.672 498.177 203.692 498.364 203.692C498.669 203.692 498.929 203.629 499.143 203.501C499.362 203.369 499.54 203.191 499.677 202.968C499.818 202.74 499.92 202.48 499.984 202.188C500.048 201.892 500.08 201.58 500.08 201.252V201.108ZM506.755 199.967L508.526 197.479H510.337L507.74 201.122L510.419 204.875H508.615L506.769 202.291L504.93 204.875H503.119L505.798 201.122L503.207 197.479H505.005L506.755 199.967ZM521.378 200.828C521.378 200.186 521.428 199.579 521.528 199.01C521.628 198.436 521.763 197.905 521.931 197.417C522.105 196.938 522.303 196.499 522.526 196.098C522.754 195.697 522.993 195.341 523.244 195.031C523.49 194.721 523.743 194.459 524.003 194.245C524.262 194.026 524.513 193.858 524.755 193.739L525.083 194.689C524.937 194.799 524.791 194.931 524.645 195.086C524.499 195.241 524.356 195.416 524.215 195.612C524.019 195.89 523.834 196.216 523.661 196.59C523.492 196.964 523.346 197.371 523.223 197.813C523.109 198.228 523.018 198.686 522.95 199.188C522.886 199.689 522.854 200.231 522.854 200.814V200.958C522.854 201.528 522.886 202.059 522.95 202.551C523.014 203.038 523.089 203.453 523.176 203.795C523.285 204.205 523.41 204.586 523.551 204.937C523.697 205.287 523.85 205.597 524.009 205.866C524.178 206.14 524.354 206.381 524.536 206.591C524.718 206.8 524.9 206.976 525.083 207.117L524.755 208.033C524.513 207.915 524.262 207.746 524.003 207.527C523.743 207.313 523.488 207.051 523.237 206.741C522.986 206.431 522.747 206.076 522.519 205.675C522.296 205.278 522.1 204.836 521.931 204.349C521.763 203.866 521.628 203.341 521.528 202.776C521.428 202.207 521.378 201.596 521.378 200.944V200.828ZM530.22 194.922L531.451 199.181L532.811 194.922H534.855V204.875H533.31V201.498L533.406 197.055L531.874 201.806H531.02L529.632 197.219L529.721 201.498V204.875H528.183V194.922H530.22ZM541.305 204.875C541.255 204.784 541.214 204.674 541.182 204.547C541.154 204.415 541.129 204.278 541.106 204.137C540.993 204.255 540.863 204.369 540.717 204.479C540.576 204.583 540.416 204.674 540.238 204.752C540.061 204.834 539.869 204.898 539.664 204.943C539.459 204.989 539.238 205.012 539.001 205.012C538.618 205.012 538.267 204.957 537.948 204.848C537.634 204.734 537.365 204.579 537.142 204.383C536.914 204.191 536.736 203.961 536.608 203.692C536.485 203.419 536.424 203.125 536.424 202.811C536.424 202.405 536.504 202.047 536.663 201.737C536.827 201.423 537.064 201.163 537.374 200.958C537.661 200.767 538.014 200.621 538.434 200.521C538.857 200.42 539.336 200.37 539.869 200.37H541.059V199.871C541.059 199.68 541.024 199.507 540.956 199.352C540.892 199.197 540.799 199.062 540.676 198.948C540.544 198.834 540.382 198.748 540.19 198.688C540.004 198.625 539.787 198.593 539.541 198.593C539.318 198.593 539.122 198.62 538.953 198.675C538.789 198.729 538.652 198.805 538.543 198.9C538.434 198.987 538.352 199.094 538.297 199.222C538.247 199.345 538.222 199.477 538.222 199.618H536.581C536.586 199.322 536.656 199.037 536.793 198.764C536.93 198.49 537.13 198.249 537.395 198.039C537.65 197.825 537.964 197.656 538.338 197.533C538.716 197.406 539.147 197.342 539.63 197.342C540.063 197.342 540.466 197.396 540.84 197.506C541.218 197.611 541.544 197.768 541.817 197.978C542.091 198.187 542.305 198.454 542.46 198.777C542.615 199.096 542.692 199.465 542.692 199.885V203.173C542.692 203.506 542.715 203.806 542.761 204.075C542.811 204.34 542.882 204.567 542.973 204.759V204.875H541.305ZM539.315 203.699C539.53 203.699 539.728 203.672 539.91 203.617C540.097 203.562 540.266 203.492 540.416 203.405C540.566 203.319 540.696 203.221 540.806 203.111C540.915 203.002 540.999 202.888 541.059 202.77V201.402H540.006C539.65 201.402 539.343 201.437 539.083 201.505C538.823 201.569 538.616 201.662 538.461 201.785C538.324 201.89 538.222 202.015 538.153 202.161C538.09 202.307 538.058 202.471 538.058 202.653C538.058 202.804 538.085 202.945 538.14 203.077C538.194 203.205 538.274 203.314 538.379 203.405C538.484 203.496 538.614 203.569 538.769 203.624C538.924 203.674 539.106 203.699 539.315 203.699ZM548.096 199.967L549.867 197.479H551.678L549.081 201.122L551.76 204.875H549.956L548.11 202.291L546.271 204.875H544.46L547.139 201.122L544.548 197.479H546.346L548.096 199.967ZM561.939 204.875L560.641 194.922H562.165L562.849 201.033L562.896 201.423L562.965 201.013L563.922 194.922H565.18L566.171 201.04L566.239 201.45L566.287 201.033L566.977 194.922H568.509L567.196 204.875H565.644L564.633 198.784L564.564 198.312L564.489 198.784L563.491 204.875H561.939ZM570.03 197.479H573.954V203.521H576.128V204.875H570.03V203.521H572.306V198.839H570.03V197.479ZM572.156 195.564C572.156 195.432 572.179 195.312 572.224 195.202C572.27 195.088 572.336 194.99 572.422 194.908C572.504 194.831 572.602 194.771 572.716 194.73C572.835 194.685 572.967 194.662 573.113 194.662C573.359 194.662 573.557 194.726 573.708 194.854C573.863 194.977 573.951 195.136 573.974 195.332C574.006 195.533 573.972 195.708 573.872 195.858C573.771 196.004 573.626 196.102 573.434 196.152C573.338 196.239 573.225 196.296 573.092 196.323C572.96 196.351 572.814 196.339 572.655 196.289C572.491 196.239 572.365 196.15 572.279 196.022C572.197 195.89 572.156 195.738 572.156 195.564ZM577.703 201.122C577.703 200.562 577.769 200.051 577.902 199.591C578.038 199.126 578.234 198.727 578.489 198.395C578.74 198.062 579.045 197.804 579.405 197.622C579.77 197.435 580.18 197.342 580.636 197.342C581.046 197.342 581.404 197.415 581.709 197.561C582.019 197.702 582.293 197.905 582.529 198.169V194.375H584.163V204.875H582.68L582.605 204.103C582.368 204.394 582.085 204.62 581.757 204.779C581.429 204.934 581.051 205.012 580.622 205.012C580.171 205.012 579.765 204.918 579.405 204.731C579.045 204.54 578.74 204.276 578.489 203.938C578.239 203.606 578.045 203.212 577.908 202.756C577.772 202.296 577.703 201.799 577.703 201.266V201.122ZM579.337 201.266C579.337 201.594 579.369 201.904 579.433 202.195C579.497 202.487 579.597 202.74 579.734 202.954C579.87 203.177 580.046 203.353 580.26 203.48C580.474 203.604 580.732 203.665 581.032 203.665C581.402 203.665 581.707 203.585 581.948 203.426C582.19 203.262 582.384 203.041 582.529 202.763V199.584C582.384 199.311 582.19 199.094 581.948 198.935C581.711 198.771 581.411 198.688 581.046 198.688C580.741 198.688 580.479 198.752 580.26 198.88C580.046 199.007 579.873 199.183 579.74 199.406C579.599 199.63 579.497 199.889 579.433 200.186C579.369 200.477 579.337 200.789 579.337 201.122V201.266ZM589.472 195.674V197.479H592.254V198.702H589.472V202.236C589.472 202.51 589.503 202.74 589.567 202.927C589.636 203.109 589.729 203.253 589.848 203.357C589.966 203.467 590.107 203.544 590.271 203.59C590.435 203.635 590.615 203.658 590.811 203.658C590.953 203.658 591.098 203.651 591.249 203.638C591.399 203.624 591.545 203.606 591.686 203.583C591.823 203.565 591.951 203.544 592.069 203.521C592.192 203.494 592.295 203.471 592.377 203.453L592.555 204.581C592.436 204.654 592.292 204.718 592.124 204.772C591.96 204.823 591.782 204.866 591.591 204.902C591.399 204.939 591.199 204.966 590.989 204.984C590.784 205.007 590.579 205.019 590.374 205.019C590 205.019 589.656 204.968 589.342 204.868C589.032 204.763 588.765 204.602 588.542 204.383C588.319 204.169 588.143 203.893 588.015 203.556C587.892 203.218 587.831 202.813 587.831 202.339V198.702H586.04V197.479H587.831V195.674H589.472ZM596.092 198.531C596.188 198.385 596.295 198.251 596.414 198.128C596.532 198.005 596.657 197.898 596.79 197.807C596.995 197.656 597.22 197.542 597.466 197.465C597.717 197.383 597.981 197.342 598.259 197.342C598.647 197.342 599 197.399 599.319 197.513C599.642 197.627 599.918 197.804 600.146 198.046C600.374 198.287 600.549 198.597 600.672 198.976C600.8 199.349 600.864 199.798 600.864 200.322V204.875H599.23V200.309C599.23 200.035 599.196 199.796 599.127 199.591C599.064 199.386 598.968 199.219 598.84 199.092C598.708 198.955 598.546 198.855 598.355 198.791C598.168 198.723 597.952 198.688 597.706 198.688C597.514 198.688 597.332 198.711 597.159 198.757C596.99 198.802 596.835 198.868 596.694 198.955C596.575 199.023 596.464 199.105 596.359 199.201C596.259 199.297 596.17 199.404 596.092 199.522V204.875H594.458V194.375H596.092V198.531ZM607.601 200.944C607.601 201.582 607.548 202.184 607.443 202.749C607.343 203.314 607.207 203.838 607.033 204.321C606.86 204.809 606.66 205.253 606.432 205.654C606.204 206.055 605.962 206.411 605.707 206.721C605.452 207.04 605.192 207.309 604.928 207.527C604.664 207.746 604.408 207.915 604.162 208.033L603.841 207.117C604.014 206.99 604.187 206.828 604.36 206.632C604.534 206.436 604.702 206.21 604.866 205.955C605.04 205.673 605.201 205.351 605.352 204.991C605.507 204.636 605.637 204.242 605.741 203.809C605.842 203.408 605.919 202.97 605.974 202.496C606.033 202.022 606.063 201.509 606.063 200.958V200.814C606.063 200.245 606.031 199.721 605.967 199.242C605.903 198.764 605.823 198.335 605.728 197.957C605.6 197.465 605.445 197.023 605.263 196.631C605.085 196.239 604.898 195.899 604.702 195.612C604.566 195.407 604.422 195.225 604.272 195.065C604.126 194.901 603.982 194.765 603.841 194.655L604.162 193.739C604.408 193.858 604.664 194.029 604.928 194.252C605.197 194.471 605.457 194.735 605.707 195.045C605.967 195.364 606.211 195.724 606.439 196.125C606.666 196.521 606.865 196.964 607.033 197.451C607.202 197.934 607.339 198.456 607.443 199.017C607.548 199.573 607.601 200.176 607.601 200.828V200.944Z" fill="#C7A5FA"/>
<rect x="460.116" y="149.75" width="159" height="18.7499" stroke="#643ABD"/>
<g opacity="0.5">
<g clip-path="url(#clip6_2029_9064)">
<rect width="7.78753" height="20" transform="translate(662.341 144)" fill="#30C9B0" fill-opacity="0.5"/>
<rect x="662.341" y="144" width="7.78753" height="20" fill="#30C9B0" fill-opacity="0.5"/>
</g>
</g>
<g clip-path="url(#clip7_2029_9064)">
<line x1="662.629" y1="140" x2="662.629" y2="125" stroke="#30C9B0"/>
<line x1="662.129" y1="132.5" x2="669.916" y2="132.5" stroke="#30C9B0"/>
<line x1="669.629" y1="140" x2="669.629" y2="125" stroke="#30C9B0"/>
</g>
<path d="M669.558 110.672C669.558 110.973 669.508 111.253 669.408 111.513C669.312 111.772 669.175 112.005 668.998 112.21C668.888 112.342 668.763 112.465 668.622 112.579C668.48 112.693 668.323 112.793 668.15 112.88C668.355 112.976 668.544 113.087 668.717 113.215C668.895 113.338 669.05 113.481 669.182 113.646C669.369 113.864 669.515 114.113 669.62 114.391C669.725 114.669 669.777 114.969 669.777 115.293C669.777 115.753 669.693 116.161 669.524 116.517C669.355 116.872 669.125 117.168 668.834 117.405C668.537 117.647 668.191 117.829 667.795 117.952C667.403 118.075 666.979 118.137 666.523 118.137C666.058 118.137 665.625 118.075 665.224 117.952C664.828 117.829 664.484 117.647 664.192 117.405C663.896 117.168 663.663 116.874 663.495 116.523C663.331 116.168 663.249 115.758 663.249 115.293C663.249 115.02 663.285 114.76 663.358 114.514C663.436 114.268 663.545 114.04 663.686 113.83C663.827 113.63 663.996 113.45 664.192 113.29C664.393 113.126 664.616 112.987 664.862 112.873C664.652 112.768 664.461 112.641 664.288 112.49C664.119 112.34 663.976 112.174 663.857 111.991C663.734 111.804 663.638 111.599 663.57 111.376C663.502 111.153 663.467 110.918 663.467 110.672C663.467 110.23 663.543 109.838 663.693 109.496C663.848 109.154 664.06 108.865 664.329 108.628C664.593 108.391 664.91 108.213 665.279 108.095C665.653 107.972 666.061 107.91 666.503 107.91C666.94 107.91 667.343 107.972 667.713 108.095C668.086 108.213 668.412 108.391 668.69 108.628C668.959 108.86 669.171 109.15 669.326 109.496C669.481 109.838 669.558 110.23 669.558 110.672ZM668.143 115.204C668.143 114.958 668.102 114.735 668.02 114.534C667.943 114.329 667.833 114.151 667.692 114.001C667.546 113.86 667.373 113.75 667.172 113.673C666.972 113.595 666.751 113.557 666.509 113.557C666.259 113.557 666.033 113.595 665.833 113.673C665.637 113.75 665.468 113.86 665.327 114.001C665.186 114.151 665.076 114.329 664.999 114.534C664.926 114.735 664.889 114.96 664.889 115.211C664.889 115.466 664.928 115.696 665.005 115.901C665.083 116.102 665.195 116.271 665.34 116.407C665.482 116.539 665.65 116.642 665.846 116.715C666.047 116.783 666.272 116.817 666.523 116.817C666.76 116.817 666.977 116.781 667.172 116.708C667.373 116.635 667.546 116.53 667.692 116.394C667.829 116.252 667.938 116.084 668.02 115.888C668.102 115.687 668.143 115.459 668.143 115.204ZM667.931 110.733C667.931 110.51 667.895 110.307 667.822 110.125C667.754 109.943 667.658 109.783 667.535 109.646C667.407 109.519 667.257 109.419 667.084 109.346C666.91 109.273 666.714 109.236 666.496 109.236C666.282 109.236 666.088 109.273 665.915 109.346C665.746 109.414 665.6 109.512 665.477 109.64C665.359 109.767 665.268 109.924 665.204 110.111C665.14 110.298 665.108 110.506 665.108 110.733C665.108 110.957 665.14 111.162 665.204 111.349C665.268 111.531 665.363 111.686 665.491 111.813C665.614 111.946 665.762 112.048 665.935 112.121C666.108 112.194 666.302 112.23 666.516 112.23C666.73 112.23 666.924 112.194 667.097 112.121C667.27 112.048 667.419 111.946 667.542 111.813C667.665 111.686 667.76 111.531 667.829 111.349C667.897 111.162 667.931 110.957 667.931 110.733Z" fill="#30C9B0"/>
<g opacity="0.5">
<g clip-path="url(#clip8_2029_9064)">
<rect width="7.78753" height="20" transform="translate(642.341 144)" fill="#30C9B0" fill-opacity="0.5"/>
<rect x="642.341" y="144" width="7.78753" height="20" fill="#30C9B0" fill-opacity="0.5"/>
</g>
</g>
<g clip-path="url(#clip9_2029_9064)">
<line x1="642.629" y1="140" x2="642.629" y2="125" stroke="#30C9B0"/>
<line x1="642.129" y1="132.5" x2="649.916" y2="132.5" stroke="#30C9B0"/>
<line x1="649.629" y1="140" x2="649.629" y2="125" stroke="#30C9B0"/>
</g>
<path d="M649.558 110.672C649.558 110.973 649.508 111.253 649.408 111.513C649.312 111.772 649.175 112.005 648.998 112.21C648.888 112.342 648.763 112.465 648.622 112.579C648.48 112.693 648.323 112.793 648.15 112.88C648.355 112.976 648.544 113.087 648.717 113.215C648.895 113.338 649.05 113.481 649.182 113.646C649.369 113.864 649.515 114.113 649.62 114.391C649.725 114.669 649.777 114.969 649.777 115.293C649.777 115.753 649.693 116.161 649.524 116.517C649.355 116.872 649.125 117.168 648.834 117.405C648.537 117.647 648.191 117.829 647.795 117.952C647.403 118.075 646.979 118.137 646.523 118.137C646.058 118.137 645.625 118.075 645.224 117.952C644.828 117.829 644.484 117.647 644.192 117.405C643.896 117.168 643.663 116.874 643.495 116.523C643.331 116.168 643.249 115.758 643.249 115.293C643.249 115.02 643.285 114.76 643.358 114.514C643.436 114.268 643.545 114.04 643.686 113.83C643.827 113.63 643.996 113.45 644.192 113.29C644.393 113.126 644.616 112.987 644.862 112.873C644.652 112.768 644.461 112.641 644.288 112.49C644.119 112.34 643.976 112.174 643.857 111.991C643.734 111.804 643.638 111.599 643.57 111.376C643.502 111.153 643.467 110.918 643.467 110.672C643.467 110.23 643.543 109.838 643.693 109.496C643.848 109.154 644.06 108.865 644.329 108.628C644.593 108.391 644.91 108.213 645.279 108.095C645.653 107.972 646.061 107.91 646.503 107.91C646.94 107.91 647.343 107.972 647.713 108.095C648.086 108.213 648.412 108.391 648.69 108.628C648.959 108.86 649.171 109.15 649.326 109.496C649.481 109.838 649.558 110.23 649.558 110.672ZM648.143 115.204C648.143 114.958 648.102 114.735 648.02 114.534C647.943 114.329 647.833 114.151 647.692 114.001C647.546 113.86 647.373 113.75 647.172 113.673C646.972 113.595 646.751 113.557 646.509 113.557C646.259 113.557 646.033 113.595 645.833 113.673C645.637 113.75 645.468 113.86 645.327 114.001C645.186 114.151 645.076 114.329 644.999 114.534C644.926 114.735 644.889 114.96 644.889 115.211C644.889 115.466 644.928 115.696 645.005 115.901C645.083 116.102 645.195 116.271 645.34 116.407C645.482 116.539 645.65 116.642 645.846 116.715C646.047 116.783 646.272 116.817 646.523 116.817C646.76 116.817 646.977 116.781 647.172 116.708C647.373 116.635 647.546 116.53 647.692 116.394C647.829 116.252 647.938 116.084 648.02 115.888C648.102 115.687 648.143 115.459 648.143 115.204ZM647.931 110.733C647.931 110.51 647.895 110.307 647.822 110.125C647.754 109.943 647.658 109.783 647.535 109.646C647.407 109.519 647.257 109.419 647.084 109.346C646.91 109.273 646.714 109.236 646.496 109.236C646.282 109.236 646.088 109.273 645.915 109.346C645.746 109.414 645.6 109.512 645.477 109.64C645.359 109.767 645.268 109.924 645.204 110.111C645.14 110.298 645.108 110.506 645.108 110.733C645.108 110.957 645.14 111.162 645.204 111.349C645.268 111.531 645.363 111.686 645.491 111.813C645.614 111.946 645.762 112.048 645.935 112.121C646.108 112.194 646.302 112.23 646.516 112.23C646.73 112.23 646.924 112.194 647.097 112.121C647.27 112.048 647.419 111.946 647.542 111.813C647.665 111.686 647.76 111.531 647.829 111.349C647.897 111.162 647.931 110.957 647.931 110.733Z" fill="#30C9B0"/>
<defs>
<clipPath id="clip0_2029_9064">
<rect width="36" height="20" fill="white" transform="translate(469.184 149.25)"/>
</clipPath>
<clipPath id="clip1_2029_9064">
<rect width="36" height="20" fill="white" transform="translate(569.184 149.25)"/>
</clipPath>
<clipPath id="clip2_2029_9064">
<rect width="36" height="20" fill="white" transform="translate(669.184 149.25)"/>
</clipPath>
<clipPath id="clip3_2029_9064">
<rect width="12" height="15" fill="white" transform="translate(445.099 134.5)"/>
</clipPath>
<clipPath id="clip4_2029_9064">
<rect width="12" height="12" fill="white" transform="translate(445.099 153.5)"/>
</clipPath>
<clipPath id="clip5_2029_9064">
<rect width="160" height="15" fill="white" transform="translate(459.726 171.5)"/>
</clipPath>
<clipPath id="clip6_2029_9064">
<rect width="7.78753" height="20" fill="white" transform="translate(662.341 144)"/>
</clipPath>
<clipPath id="clip7_2029_9064">
<rect width="7.78753" height="15" fill="white" transform="translate(662.129 125)"/>
</clipPath>
<clipPath id="clip8_2029_9064">
<rect width="7.78753" height="20" fill="white" transform="translate(642.341 144)"/>
</clipPath>
<clipPath id="clip9_2029_9064">
<rect width="7.78753" height="15" fill="white" transform="translate(642.129 125)"/>
</clipPath>
</defs>
</svg>
