<svg width="1150" height="315" viewBox="0 0 1150 315" fill="none" xmlns="http://www.w3.org/2000/svg">
<rect width="1150" height="314.797" rx="16" fill="#1A1A1A"/>
<rect x="778.5" y="155.399" width="139" height="60" rx="5" stroke="#DA0087" stroke-width="2" stroke-linecap="square"/>
<rect x="780.5" y="157.399" width="135" height="56" rx="3" stroke="white" stroke-opacity="0.9" stroke-width="2" stroke-linecap="square"/>
<rect x="779.5" y="113.149" width="36" height="36" rx="18" fill="#DA0087"/>
<rect x="780.5" y="114.149" width="34" height="34" rx="17" stroke="white" stroke-opacity="0.9" stroke-width="2"/>
<path d="M792.845 135.103V133.166L797.703 125.513H799.374V128.194H798.385L795.322 133.041V133.132H802.226V135.103H792.845ZM798.43 137.149V134.513L798.476 133.655V125.513H800.783V137.149H798.43Z" fill="white" fill-opacity="0.95"/>
<rect x="602.5" y="155.399" width="126" height="60" rx="5" stroke="#DA0087" stroke-width="2" stroke-linecap="square"/>
<rect x="604.5" y="157.399" width="122" height="56" rx="3" stroke="white" stroke-opacity="0.9" stroke-width="2" stroke-linecap="square"/>
<rect x="603.5" y="113.149" width="36" height="36" rx="18" fill="#DA0087"/>
<rect x="604.5" y="114.149" width="34" height="34" rx="17" stroke="white" stroke-opacity="0.9" stroke-width="2"/>
<path d="M621.471 137.308C620.622 137.308 619.867 137.162 619.204 136.871C618.545 136.575 618.024 136.17 617.641 135.655C617.263 135.136 617.067 134.537 617.056 133.859H619.533C619.549 134.143 619.641 134.393 619.812 134.609C619.986 134.821 620.217 134.986 620.505 135.103C620.793 135.221 621.117 135.28 621.477 135.28C621.852 135.28 622.183 135.213 622.471 135.081C622.759 134.948 622.984 134.764 623.147 134.53C623.31 134.295 623.391 134.024 623.391 133.717C623.391 133.407 623.304 133.132 623.13 132.893C622.96 132.651 622.713 132.461 622.391 132.325C622.073 132.189 621.694 132.121 621.255 132.121H620.17V130.314H621.255C621.626 130.314 621.954 130.249 622.238 130.121C622.526 129.992 622.749 129.814 622.908 129.586C623.067 129.355 623.147 129.086 623.147 128.78C623.147 128.488 623.077 128.232 622.937 128.013C622.8 127.789 622.607 127.615 622.357 127.49C622.111 127.365 621.823 127.302 621.494 127.302C621.16 127.302 620.855 127.363 620.579 127.484C620.302 127.602 620.081 127.77 619.914 127.99C619.747 128.21 619.658 128.467 619.647 128.763H617.289C617.3 128.092 617.492 127.501 617.863 126.99C618.234 126.478 618.734 126.079 619.363 125.791C619.996 125.499 620.71 125.353 621.505 125.353C622.308 125.353 623.011 125.499 623.613 125.791C624.215 126.083 624.683 126.477 625.016 126.973C625.353 127.465 625.52 128.018 625.516 128.632C625.52 129.283 625.317 129.827 624.908 130.263C624.503 130.698 623.975 130.975 623.323 131.092V131.183C624.179 131.293 624.831 131.59 625.278 132.075C625.728 132.556 625.952 133.158 625.948 133.882C625.952 134.545 625.761 135.134 625.374 135.649C624.992 136.164 624.463 136.569 623.789 136.865C623.115 137.16 622.342 137.308 621.471 137.308Z" fill="white" fill-opacity="0.95"/>
<rect x="422.5" y="155.797" width="117" height="60" rx="5" stroke="#DA0087" stroke-width="2" stroke-linecap="square"/>
<rect x="424.5" y="157.797" width="113" height="56" rx="3" stroke="white" stroke-opacity="0.9" stroke-width="2" stroke-linecap="square"/>
<rect x="423.5" y="113.149" width="36" height="36" rx="18" fill="#DA0087"/>
<rect x="424.5" y="114.149" width="34" height="34" rx="17" stroke="white" stroke-opacity="0.9" stroke-width="2"/>
<path d="M437.404 137.149V135.376L441.546 131.541C441.898 131.2 442.194 130.893 442.433 130.621C442.675 130.348 442.859 130.081 442.984 129.819C443.109 129.554 443.171 129.268 443.171 128.961C443.171 128.621 443.094 128.327 442.938 128.081C442.783 127.831 442.571 127.639 442.302 127.507C442.033 127.371 441.728 127.302 441.387 127.302C441.031 127.302 440.72 127.374 440.455 127.518C440.19 127.662 439.986 127.869 439.842 128.138C439.698 128.407 439.626 128.727 439.626 129.098H437.29C437.29 128.336 437.463 127.675 437.808 127.115C438.152 126.554 438.635 126.121 439.256 125.814C439.878 125.507 440.594 125.353 441.404 125.353C442.237 125.353 442.963 125.501 443.58 125.797C444.201 126.088 444.684 126.494 445.029 127.013C445.374 127.532 445.546 128.126 445.546 128.797C445.546 129.236 445.459 129.67 445.285 130.098C445.114 130.526 444.809 131.001 444.37 131.524C443.931 132.043 443.311 132.666 442.512 133.393L440.813 135.058V135.138H445.7V137.149H437.404Z" fill="white" fill-opacity="0.95"/>
<rect x="242.5" y="155.797" width="117" height="60" rx="5" stroke="#DA0087" stroke-width="2" stroke-linecap="square"/>
<rect x="244.5" y="157.797" width="113" height="56" rx="3" stroke="white" stroke-opacity="0.9" stroke-width="2" stroke-linecap="square"/>
<rect x="243.5" y="113.149" width="36" height="36" rx="18" fill="#DA0087"/>
<rect x="244.5" y="114.149" width="34" height="34" rx="17" stroke="white" stroke-opacity="0.9" stroke-width="2"/>
<path d="M263.592 125.513V137.149H261.131V127.848H261.063L258.398 129.518V127.336L261.279 125.513H263.592Z" fill="white" fill-opacity="0.95"/>
<path d="M302.169 129.451C301.341 129.451 300.669 130.123 300.669 130.951C300.669 131.78 301.341 132.451 302.169 132.451V129.451ZM403.23 132.012C403.815 131.426 403.815 130.476 403.23 129.891L393.684 120.345C393.098 119.759 392.148 119.759 391.562 120.345C390.977 120.93 390.977 121.88 391.562 122.466L400.048 130.951L391.562 139.436C390.977 140.022 390.977 140.972 391.562 141.558C392.148 142.144 393.098 142.144 393.684 141.558L403.23 132.012ZM302.169 132.451H402.169V129.451H302.169V132.451Z" fill="#DA0087"/>
<path d="M482.169 129.451C481.341 129.451 480.669 130.123 480.669 130.951C480.669 131.78 481.341 132.451 482.169 132.451V129.451ZM583.23 132.012C583.815 131.426 583.815 130.476 583.23 129.891L573.684 120.345C573.098 119.759 572.148 119.759 571.562 120.345C570.977 120.93 570.977 121.88 571.562 122.466L580.048 130.951L571.562 139.436C570.977 140.022 570.977 140.972 571.562 141.558C572.148 142.144 573.098 142.144 573.684 141.558L583.23 132.012ZM482.169 132.451H582.169V129.451H482.169V132.451Z" fill="#DA0087"/>
<path d="M660.169 129.451C659.341 129.451 658.669 130.123 658.669 130.951C658.669 131.78 659.341 132.451 660.169 132.451V129.451ZM761.23 132.012C761.815 131.426 761.815 130.476 761.23 129.891L751.684 120.345C751.098 119.759 750.148 119.759 749.562 120.345C748.977 120.93 748.977 121.88 749.562 122.466L758.048 130.951L749.562 139.436C748.977 140.022 748.977 140.972 749.562 141.558C750.148 142.144 751.098 142.144 751.684 141.558L761.23 132.012ZM660.169 132.451H760.169V129.451H660.169V132.451Z" fill="#DA0087"/>
<path d="M309 172.824C309 176.69 305.866 179.824 302 179.824C298.134 179.824 295 176.69 295 172.824C295 168.958 298.134 165.824 302 165.824C305.866 165.824 309 168.958 309 172.824Z" stroke="#64B4FA" stroke-width="2"/>
<g clip-path="url(#clip0_2029_8878)">
<path d="M285.268 203.824V193.642H286.501V202.73H291.234V203.824H285.268ZM295.231 204.003C294.747 204.003 294.308 203.912 293.914 203.73C293.519 203.544 293.206 203.277 292.974 202.929C292.742 202.578 292.626 202.154 292.626 201.657C292.626 201.219 292.712 200.864 292.885 200.593C293.057 200.318 293.287 200.102 293.576 199.946C293.864 199.791 294.182 199.675 294.53 199.598C294.882 199.519 295.234 199.456 295.589 199.409C296.053 199.35 296.429 199.305 296.718 199.275C297.009 199.242 297.221 199.187 297.354 199.111C297.49 199.035 297.558 198.902 297.558 198.713V198.674C297.558 198.183 297.424 197.802 297.155 197.53C296.89 197.258 296.487 197.123 295.947 197.123C295.387 197.123 294.948 197.245 294.63 197.49C294.311 197.736 294.088 197.998 293.958 198.276L292.845 197.878C293.044 197.414 293.309 197.053 293.64 196.794C293.975 196.533 294.34 196.35 294.734 196.248C295.132 196.141 295.523 196.088 295.907 196.088C296.153 196.088 296.434 196.118 296.752 196.178C297.074 196.234 297.384 196.352 297.682 196.531C297.984 196.71 298.234 196.98 298.433 197.341C298.632 197.703 298.731 198.186 298.731 198.793V203.824H297.558V202.79H297.498C297.419 202.956 297.286 203.133 297.1 203.322C296.915 203.511 296.668 203.672 296.36 203.804C296.051 203.937 295.675 204.003 295.231 204.003ZM295.41 202.949C295.874 202.949 296.265 202.858 296.583 202.676C296.905 202.493 297.147 202.258 297.309 201.97C297.475 201.681 297.558 201.378 297.558 201.06V199.986C297.508 200.046 297.399 200.1 297.23 200.15C297.064 200.197 296.872 200.238 296.653 200.275C296.438 200.308 296.227 200.337 296.022 200.364C295.819 200.387 295.655 200.407 295.529 200.424C295.225 200.463 294.94 200.528 294.674 200.618C294.413 200.704 294.2 200.835 294.038 201.01C293.879 201.183 293.799 201.418 293.799 201.716C293.799 202.124 293.95 202.432 294.252 202.641C294.557 202.846 294.943 202.949 295.41 202.949ZM301.032 203.824V193.642H302.205V197.401H302.305C302.391 197.268 302.51 197.099 302.662 196.894C302.818 196.685 303.04 196.499 303.329 196.337C303.62 196.171 304.015 196.088 304.512 196.088C305.155 196.088 305.722 196.249 306.212 196.571C306.703 196.892 307.086 197.348 307.361 197.938C307.636 198.528 307.773 199.224 307.773 200.026C307.773 200.835 307.636 201.536 307.361 202.129C307.086 202.719 306.704 203.176 306.217 203.501C305.73 203.823 305.168 203.983 304.532 203.983C304.041 203.983 303.648 203.902 303.354 203.74C303.059 203.574 302.831 203.387 302.672 203.178C302.513 202.966 302.391 202.79 302.305 202.651H302.165V203.824H301.032ZM302.185 200.006C302.185 200.583 302.27 201.092 302.439 201.532C302.608 201.97 302.855 202.313 303.18 202.561C303.504 202.807 303.902 202.929 304.373 202.929C304.863 202.929 305.273 202.8 305.601 202.542C305.932 202.28 306.181 201.928 306.346 201.488C306.515 201.043 306.6 200.55 306.6 200.006C306.6 199.469 306.517 198.985 306.351 198.554C306.189 198.12 305.942 197.777 305.611 197.525C305.282 197.27 304.87 197.142 304.373 197.142C303.895 197.142 303.494 197.263 303.17 197.505C302.845 197.744 302.599 198.079 302.434 198.51C302.268 198.937 302.185 199.436 302.185 200.006ZM312.77 203.983C312.034 203.983 311.399 203.821 310.866 203.496C310.335 203.168 309.926 202.711 309.638 202.124C309.353 201.534 309.21 200.848 309.21 200.066C309.21 199.283 309.353 198.594 309.638 197.998C309.926 197.398 310.327 196.93 310.841 196.596C311.358 196.257 311.961 196.088 312.65 196.088C313.048 196.088 313.441 196.155 313.829 196.287C314.216 196.42 314.569 196.635 314.888 196.934C315.206 197.229 315.459 197.62 315.648 198.107C315.837 198.594 315.932 199.194 315.932 199.907V200.404H310.045V199.39H314.738C314.738 198.959 314.652 198.574 314.48 198.236C314.311 197.898 314.069 197.631 313.754 197.436C313.443 197.24 313.075 197.142 312.65 197.142C312.183 197.142 311.779 197.258 311.437 197.49C311.099 197.719 310.839 198.017 310.657 198.385C310.474 198.753 310.383 199.148 310.383 199.569V200.245C310.383 200.821 310.483 201.31 310.682 201.711C310.884 202.109 311.164 202.412 311.522 202.621C311.88 202.827 312.296 202.929 312.77 202.929C313.078 202.929 313.356 202.886 313.605 202.8C313.857 202.711 314.074 202.578 314.256 202.402C314.439 202.223 314.579 202.001 314.679 201.736L315.812 202.054C315.693 202.439 315.492 202.777 315.211 203.069C314.929 203.357 314.581 203.582 314.167 203.745C313.752 203.904 313.287 203.983 312.77 203.983ZM318.89 193.642V203.824H317.716V193.642H318.89Z" fill="white" fill-opacity="0.7"/>
</g>
<rect x="318" y="171.824" width="150" height="2" fill="#8F8F8F"/>
<path d="M491 172.824C491 176.69 487.866 179.824 484 179.824C480.134 179.824 477 176.69 477 172.824C477 168.958 480.134 165.824 484 165.824C487.866 165.824 491 168.958 491 172.824Z" stroke="#64B4FA" stroke-width="2"/>
<g clip-path="url(#clip1_2029_8878)">
<path d="M467.268 203.824V193.642H468.501V202.73H473.234V203.824H467.268ZM477.231 204.003C476.747 204.003 476.308 203.912 475.914 203.73C475.519 203.544 475.206 203.277 474.974 202.929C474.742 202.578 474.626 202.154 474.626 201.657C474.626 201.219 474.712 200.864 474.885 200.593C475.057 200.318 475.287 200.102 475.576 199.946C475.864 199.791 476.182 199.675 476.53 199.598C476.882 199.519 477.234 199.456 477.589 199.409C478.053 199.35 478.429 199.305 478.718 199.275C479.009 199.242 479.221 199.187 479.354 199.111C479.49 199.035 479.558 198.902 479.558 198.713V198.674C479.558 198.183 479.424 197.802 479.155 197.53C478.89 197.258 478.487 197.123 477.947 197.123C477.387 197.123 476.948 197.245 476.63 197.49C476.311 197.736 476.088 197.998 475.958 198.276L474.845 197.878C475.044 197.414 475.309 197.053 475.64 196.794C475.975 196.533 476.34 196.35 476.734 196.248C477.132 196.141 477.523 196.088 477.907 196.088C478.153 196.088 478.434 196.118 478.752 196.178C479.074 196.234 479.384 196.352 479.682 196.531C479.984 196.71 480.234 196.98 480.433 197.341C480.632 197.703 480.731 198.186 480.731 198.793V203.824H479.558V202.79H479.498C479.419 202.956 479.286 203.133 479.1 203.322C478.915 203.511 478.668 203.672 478.36 203.804C478.051 203.937 477.675 204.003 477.231 204.003ZM477.41 202.949C477.874 202.949 478.265 202.858 478.583 202.676C478.905 202.493 479.147 202.258 479.309 201.97C479.475 201.681 479.558 201.378 479.558 201.06V199.986C479.508 200.046 479.399 200.1 479.23 200.15C479.064 200.197 478.872 200.238 478.653 200.275C478.438 200.308 478.227 200.337 478.022 200.364C477.819 200.387 477.655 200.407 477.529 200.424C477.225 200.463 476.94 200.528 476.674 200.618C476.413 200.704 476.2 200.835 476.038 201.01C475.879 201.183 475.799 201.418 475.799 201.716C475.799 202.124 475.95 202.432 476.252 202.641C476.557 202.846 476.943 202.949 477.41 202.949ZM483.032 203.824V193.642H484.205V197.401H484.305C484.391 197.268 484.51 197.099 484.662 196.894C484.818 196.685 485.04 196.499 485.329 196.337C485.62 196.171 486.015 196.088 486.512 196.088C487.155 196.088 487.722 196.249 488.212 196.571C488.703 196.892 489.086 197.348 489.361 197.938C489.636 198.528 489.773 199.224 489.773 200.026C489.773 200.835 489.636 201.536 489.361 202.129C489.086 202.719 488.704 203.176 488.217 203.501C487.73 203.823 487.168 203.983 486.532 203.983C486.041 203.983 485.648 203.902 485.354 203.74C485.059 203.574 484.831 203.387 484.672 203.178C484.513 202.966 484.391 202.79 484.305 202.651H484.165V203.824H483.032ZM484.185 200.006C484.185 200.583 484.27 201.092 484.439 201.532C484.608 201.97 484.855 202.313 485.18 202.561C485.504 202.807 485.902 202.929 486.373 202.929C486.863 202.929 487.273 202.8 487.601 202.542C487.932 202.28 488.181 201.928 488.346 201.488C488.515 201.043 488.6 200.55 488.6 200.006C488.6 199.469 488.517 198.985 488.351 198.554C488.189 198.12 487.942 197.777 487.611 197.525C487.282 197.27 486.87 197.142 486.373 197.142C485.895 197.142 485.494 197.263 485.17 197.505C484.845 197.744 484.599 198.079 484.434 198.51C484.268 198.937 484.185 199.436 484.185 200.006ZM494.77 203.983C494.034 203.983 493.399 203.821 492.866 203.496C492.335 203.168 491.926 202.711 491.638 202.124C491.353 201.534 491.21 200.848 491.21 200.066C491.21 199.283 491.353 198.594 491.638 197.998C491.926 197.398 492.327 196.93 492.841 196.596C493.358 196.257 493.961 196.088 494.65 196.088C495.048 196.088 495.441 196.155 495.829 196.287C496.216 196.42 496.569 196.635 496.888 196.934C497.206 197.229 497.459 197.62 497.648 198.107C497.837 198.594 497.932 199.194 497.932 199.907V200.404H492.045V199.39H496.738C496.738 198.959 496.652 198.574 496.48 198.236C496.311 197.898 496.069 197.631 495.754 197.436C495.443 197.24 495.075 197.142 494.65 197.142C494.183 197.142 493.779 197.258 493.437 197.49C493.099 197.719 492.839 198.017 492.657 198.385C492.474 198.753 492.383 199.148 492.383 199.569V200.245C492.383 200.821 492.483 201.31 492.682 201.711C492.884 202.109 493.164 202.412 493.522 202.621C493.88 202.827 494.296 202.929 494.77 202.929C495.078 202.929 495.356 202.886 495.605 202.8C495.857 202.711 496.074 202.578 496.256 202.402C496.439 202.223 496.579 202.001 496.679 201.736L497.812 202.054C497.693 202.439 497.492 202.777 497.211 203.069C496.929 203.357 496.581 203.582 496.167 203.745C495.752 203.904 495.287 203.983 494.77 203.983ZM500.89 193.642V203.824H499.716V193.642H500.89Z" fill="white" fill-opacity="0.7"/>
</g>
<rect x="500" y="171.824" width="150" height="2" fill="#8F8F8F"/>
<path d="M673 172.824C673 176.69 669.866 179.824 666 179.824C662.134 179.824 659 176.69 659 172.824C659 168.958 662.134 165.824 666 165.824C669.866 165.824 673 168.958 673 172.824Z" stroke="#3492EB" stroke-width="2"/>
<g clip-path="url(#clip2_2029_8878)">
<path d="M633.33 203.824H631.384L630.502 201.374H626.19L625.308 203.824H623.474L627.394 193.744H629.41L633.33 203.824ZM628.374 195.368L626.666 200.058H630.04L628.374 195.368ZM635.431 201.752C635.562 202.452 636.089 202.802 637.013 202.802C637.526 202.802 637.914 202.704 638.175 202.508C638.39 202.34 638.497 202.121 638.497 201.85C638.497 201.505 638.31 201.248 637.937 201.08C637.722 200.987 637.251 200.856 636.523 200.688C635.627 200.483 634.988 200.203 634.605 199.848C634.222 199.503 634.031 199.05 634.031 198.49C634.031 197.781 634.32 197.235 634.899 196.852C635.412 196.507 636.117 196.334 637.013 196.334C637.937 196.334 638.679 196.554 639.239 196.992C639.724 197.366 640.028 197.87 640.149 198.504H638.441C638.301 197.879 637.816 197.566 636.985 197.566C636.145 197.566 635.725 197.823 635.725 198.336C635.725 198.598 635.832 198.794 636.047 198.924C636.262 199.055 636.696 199.2 637.349 199.358C638.357 199.592 639.057 199.853 639.449 200.142C639.944 200.506 640.191 201.02 640.191 201.682C640.191 202.438 639.883 203.031 639.267 203.46C638.707 203.843 637.951 204.034 636.999 204.034C636 204.034 635.202 203.796 634.605 203.32C634.101 202.919 633.807 202.396 633.723 201.752H635.431ZM642.732 201.752C642.863 202.452 643.39 202.802 644.314 202.802C644.827 202.802 645.215 202.704 645.476 202.508C645.691 202.34 645.798 202.121 645.798 201.85C645.798 201.505 645.611 201.248 645.238 201.08C645.023 200.987 644.552 200.856 643.824 200.688C642.928 200.483 642.289 200.203 641.906 199.848C641.523 199.503 641.332 199.05 641.332 198.49C641.332 197.781 641.621 197.235 642.2 196.852C642.713 196.507 643.418 196.334 644.314 196.334C645.238 196.334 645.98 196.554 646.54 196.992C647.025 197.366 647.329 197.87 647.45 198.504H645.742C645.602 197.879 645.117 197.566 644.286 197.566C643.446 197.566 643.026 197.823 643.026 198.336C643.026 198.598 643.133 198.794 643.348 198.924C643.563 199.055 643.997 199.2 644.65 199.358C645.658 199.592 646.358 199.853 646.75 200.142C647.245 200.506 647.492 201.02 647.492 201.682C647.492 202.438 647.184 203.031 646.568 203.46C646.008 203.843 645.252 204.034 644.3 204.034C643.301 204.034 642.503 203.796 641.906 203.32C641.402 202.919 641.108 202.396 641.024 201.752H642.732ZM650.688 195.438H648.84V193.744H650.688V195.438ZM650.604 203.824H648.924V196.544H650.604V203.824ZM652.299 204.3H654.063C654.24 204.972 654.796 205.308 655.729 205.308C656.933 205.308 657.535 204.734 657.535 203.586V202.774C656.984 203.334 656.238 203.614 655.295 203.614C654.306 203.614 653.503 203.264 652.887 202.564C652.318 201.911 652.033 201.066 652.033 200.03C652.033 198.808 652.383 197.86 653.083 197.188C653.671 196.619 654.427 196.334 655.351 196.334C656.322 196.334 657.078 196.689 657.619 197.398L657.885 196.544H659.215V203.572C659.215 204.534 658.87 205.285 658.179 205.826C657.563 206.312 656.751 206.554 655.743 206.554C654.66 206.554 653.816 206.326 653.209 205.868C652.714 205.486 652.411 204.963 652.299 204.3ZM653.755 200.044C653.755 200.8 653.965 201.384 654.385 201.794C654.73 202.121 655.164 202.284 655.687 202.284C656.359 202.284 656.868 202.065 657.213 201.626C657.512 201.244 657.661 200.721 657.661 200.058C657.661 199.228 657.456 198.602 657.045 198.182C656.709 197.837 656.256 197.664 655.687 197.664C655.062 197.664 654.576 197.888 654.231 198.336C653.914 198.747 653.755 199.316 653.755 200.044ZM662.69 203.824H661.01V196.544H662.396L662.578 197.412C663.11 196.694 663.848 196.334 664.79 196.334C665.668 196.334 666.34 196.605 666.806 197.146C667.217 197.622 667.422 198.271 667.422 199.092V203.824H665.742V199.134C665.742 198.136 665.28 197.636 664.356 197.636C663.852 197.636 663.442 197.814 663.124 198.168C662.835 198.495 662.69 198.906 662.69 199.4V203.824ZM673.054 196.544H674.734V201.332C674.734 202.266 675.191 202.732 676.106 202.732C676.638 202.732 677.053 202.541 677.352 202.158C677.594 201.832 677.716 201.43 677.716 200.954V196.544H679.396V203.824H678.01L677.828 203.012C677.305 203.694 676.577 204.034 675.644 204.034C674.785 204.034 674.127 203.773 673.67 203.25C673.259 202.774 673.054 202.121 673.054 201.29V196.544ZM682.394 201.752C682.525 202.452 683.052 202.802 683.976 202.802C684.489 202.802 684.877 202.704 685.138 202.508C685.353 202.34 685.46 202.121 685.46 201.85C685.46 201.505 685.273 201.248 684.9 201.08C684.685 200.987 684.214 200.856 683.486 200.688C682.59 200.483 681.951 200.203 681.568 199.848C681.185 199.503 680.994 199.05 680.994 198.49C680.994 197.781 681.283 197.235 681.862 196.852C682.375 196.507 683.08 196.334 683.976 196.334C684.9 196.334 685.642 196.554 686.202 196.992C686.687 197.366 686.991 197.87 687.112 198.504H685.404C685.264 197.879 684.779 197.566 683.948 197.566C683.108 197.566 682.688 197.823 682.688 198.336C682.688 198.598 682.795 198.794 683.01 198.924C683.225 199.055 683.659 199.2 684.312 199.358C685.32 199.592 686.02 199.853 686.412 200.142C686.907 200.506 687.154 201.02 687.154 201.682C687.154 202.438 686.846 203.031 686.23 203.46C685.67 203.843 684.914 204.034 683.962 204.034C682.963 204.034 682.165 203.796 681.568 203.32C681.064 202.919 680.77 202.396 680.686 201.752H682.394ZM693.528 201.724H695.292C695.096 202.471 694.69 203.05 694.074 203.46C693.486 203.843 692.763 204.034 691.904 204.034C690.719 204.034 689.795 203.661 689.132 202.914C688.526 202.233 688.222 201.323 688.222 200.184C688.222 198.878 688.6 197.879 689.356 197.188C689.991 196.619 690.817 196.334 691.834 196.334C693.02 196.334 693.916 196.722 694.522 197.496C695.092 198.215 695.376 199.242 695.376 200.576H689.93C689.996 201.36 690.238 201.934 690.658 202.298C690.994 202.597 691.433 202.746 691.974 202.746C692.357 202.746 692.688 202.653 692.968 202.466C693.248 202.28 693.435 202.032 693.528 201.724ZM693.654 199.428C693.617 198.747 693.412 198.248 693.038 197.93C692.73 197.66 692.329 197.524 691.834 197.524C691.293 197.524 690.859 197.702 690.532 198.056C690.234 198.374 690.042 198.831 689.958 199.428H693.654ZM701.087 196.432V198.056C700.779 197.963 700.485 197.916 700.205 197.916C699.682 197.916 699.262 198.145 698.945 198.602C698.646 199.041 698.497 199.648 698.497 200.422V203.824H696.817V196.544H698.203L698.413 197.636C698.824 196.768 699.444 196.334 700.275 196.334C700.574 196.334 700.844 196.367 701.087 196.432ZM703.23 201.752C703.361 202.452 703.888 202.802 704.812 202.802C705.325 202.802 705.713 202.704 705.974 202.508C706.189 202.34 706.296 202.121 706.296 201.85C706.296 201.505 706.109 201.248 705.736 201.08C705.521 200.987 705.05 200.856 704.322 200.688C703.426 200.483 702.787 200.203 702.404 199.848C702.021 199.503 701.83 199.05 701.83 198.49C701.83 197.781 702.119 197.235 702.698 196.852C703.211 196.507 703.916 196.334 704.812 196.334C705.736 196.334 706.478 196.554 707.038 196.992C707.523 197.366 707.827 197.87 707.948 198.504H706.24C706.1 197.879 705.615 197.566 704.784 197.566C703.944 197.566 703.524 197.823 703.524 198.336C703.524 198.598 703.631 198.794 703.846 198.924C704.061 199.055 704.495 199.2 705.148 199.358C706.156 199.592 706.856 199.853 707.248 200.142C707.743 200.506 707.99 201.02 707.99 201.682C707.99 202.438 707.682 203.031 707.066 203.46C706.506 203.843 705.75 204.034 704.798 204.034C703.799 204.034 703.001 203.796 702.404 203.32C701.9 202.919 701.606 202.396 701.522 201.752H703.23Z" fill="white" fill-opacity="0.95"/>
</g>
<rect x="682" y="171.824" width="150" height="2" fill="#8F8F8F"/>
<path fill-rule="evenodd" clip-rule="evenodd" d="M848 180.824C852.418 180.824 856 177.242 856 172.824C856 168.406 852.418 164.824 848 164.824C843.582 164.824 840 168.406 840 172.824C840 177.242 843.582 180.824 848 180.824Z" fill="#3492EB"/>
<g clip-path="url(#clip3_2029_8878)">
<path d="M803.384 201.094C803.384 200.758 803.309 200.492 803.16 200.296C802.992 200.063 802.684 199.848 802.236 199.652C801.788 199.456 801.111 199.232 800.206 198.98C798.992 198.644 798.157 198.229 797.7 197.734C797.326 197.333 797.14 196.796 797.14 196.124C797.14 195.312 797.494 194.668 798.204 194.192C798.857 193.754 799.706 193.534 800.752 193.534C801.918 193.534 802.866 193.81 803.594 194.36C804.247 194.846 804.63 195.48 804.742 196.264H803.272C803.188 195.732 802.908 195.336 802.432 195.074C802.012 194.832 801.452 194.71 800.752 194.71C799.968 194.71 799.389 194.86 799.016 195.158C798.717 195.392 798.568 195.695 798.568 196.068C798.568 196.311 798.605 196.512 798.68 196.67C798.764 196.82 798.904 196.955 799.1 197.076C799.464 197.319 800.168 197.585 801.214 197.874C802.67 198.285 803.654 198.752 804.168 199.274C804.597 199.704 804.812 200.292 804.812 201.038C804.812 201.925 804.424 202.658 803.65 203.236C802.922 203.768 801.998 204.034 800.878 204.034C799.711 204.034 798.745 203.722 797.98 203.096C797.317 202.555 796.92 201.855 796.79 200.996H798.26C798.353 201.612 798.647 202.084 799.142 202.41C799.59 202.709 800.159 202.858 800.85 202.858C801.708 202.858 802.366 202.662 802.824 202.27C803.197 201.953 803.384 201.561 803.384 201.094ZM811.382 201.724H812.838C812.633 202.462 812.227 203.04 811.62 203.46C811.051 203.843 810.37 204.034 809.576 204.034C808.428 204.034 807.532 203.67 806.888 202.942C806.3 202.261 806.006 201.342 806.006 200.184C806.006 198.868 806.38 197.87 807.126 197.188C807.742 196.619 808.536 196.334 809.506 196.334C810.645 196.334 811.504 196.703 812.082 197.44C812.642 198.15 812.922 199.162 812.922 200.478H807.378C807.434 201.337 807.696 201.976 808.162 202.396C808.545 202.732 809.03 202.9 809.618 202.9C810.076 202.9 810.472 202.774 810.808 202.522C811.088 202.308 811.28 202.042 811.382 201.724ZM809.534 197.412C808.937 197.412 808.456 197.599 808.092 197.972C807.747 198.318 807.528 198.798 807.434 199.414H811.55C811.504 198.714 811.27 198.192 810.85 197.846C810.514 197.557 810.076 197.412 809.534 197.412ZM815.878 193.744V203.824H814.534V193.744H815.878ZM822.798 201.724H824.254C824.049 202.462 823.643 203.04 823.036 203.46C822.467 203.843 821.786 204.034 820.992 204.034C819.844 204.034 818.948 203.67 818.304 202.942C817.716 202.261 817.422 201.342 817.422 200.184C817.422 198.868 817.796 197.87 818.542 197.188C819.158 196.619 819.952 196.334 820.922 196.334C822.061 196.334 822.92 196.703 823.498 197.44C824.058 198.15 824.338 199.162 824.338 200.478H818.794C818.85 201.337 819.112 201.976 819.578 202.396C819.961 202.732 820.446 202.9 821.034 202.9C821.492 202.9 821.888 202.774 822.224 202.522C822.504 202.308 822.696 202.042 822.798 201.724ZM820.95 197.412C820.353 197.412 819.872 197.599 819.508 197.972C819.163 198.318 818.944 198.798 818.85 199.414H822.966C822.92 198.714 822.686 198.192 822.266 197.846C821.93 197.557 821.492 197.412 820.95 197.412ZM830.696 201.486H832.166C832.054 202.27 831.685 202.9 831.06 203.376C830.49 203.815 829.795 204.034 828.974 204.034C827.9 204.034 827.046 203.666 826.412 202.928C825.824 202.247 825.53 201.351 825.53 200.24C825.53 198.952 825.884 197.954 826.594 197.244C827.2 196.638 827.989 196.334 828.96 196.334C829.856 196.334 830.593 196.572 831.172 197.048C831.685 197.468 831.998 198.019 832.11 198.7H830.626C830.532 198.308 830.341 198.005 830.052 197.79C829.772 197.576 829.417 197.468 828.988 197.468C828.325 197.468 827.816 197.73 827.462 198.252C827.126 198.738 826.958 199.414 826.958 200.282C826.958 201.188 827.182 201.874 827.63 202.34C827.984 202.714 828.442 202.9 829.002 202.9C829.487 202.9 829.884 202.76 830.192 202.48C830.462 202.238 830.63 201.906 830.696 201.486ZM836.95 202.746V203.894C836.604 203.988 836.273 204.034 835.956 204.034C835.284 204.034 834.78 203.824 834.444 203.404C834.154 203.059 834.01 202.597 834.01 202.018V197.692H832.932V196.544H834.01L834.094 194.794H835.354V196.544H836.922V197.692H835.354V202.046C835.354 202.588 835.61 202.858 836.124 202.858C836.366 202.858 836.642 202.821 836.95 202.746ZM843.755 193.744V203.824H842.411V193.744H843.755ZM845.299 200.184C845.299 198.85 845.696 197.842 846.489 197.16C847.124 196.61 847.927 196.334 848.897 196.334C850.027 196.334 850.913 196.694 851.557 197.412C852.173 198.084 852.481 199.008 852.481 200.184C852.481 201.5 852.094 202.504 851.319 203.194C850.685 203.754 849.873 204.034 848.883 204.034C847.754 204.034 846.863 203.661 846.209 202.914C845.603 202.233 845.299 201.323 845.299 200.184ZM846.699 200.184C846.699 201.118 846.937 201.832 847.413 202.326C847.805 202.737 848.305 202.942 848.911 202.942C849.621 202.942 850.167 202.676 850.549 202.144C850.904 201.659 851.081 201.006 851.081 200.184C851.081 199.232 850.848 198.514 850.381 198.028C849.999 197.627 849.504 197.426 848.897 197.426C848.197 197.426 847.651 197.692 847.259 198.224C846.886 198.71 846.699 199.363 846.699 200.184ZM858.764 201.486H860.234C860.122 202.27 859.753 202.9 859.128 203.376C858.559 203.815 857.863 204.034 857.042 204.034C855.969 204.034 855.115 203.666 854.48 202.928C853.892 202.247 853.598 201.351 853.598 200.24C853.598 198.952 853.953 197.954 854.662 197.244C855.269 196.638 856.057 196.334 857.028 196.334C857.924 196.334 858.661 196.572 859.24 197.048C859.753 197.468 860.066 198.019 860.178 198.7H858.694C858.601 198.308 858.409 198.005 858.12 197.79C857.84 197.576 857.485 197.468 857.056 197.468C856.393 197.468 855.885 197.73 855.53 198.252C855.194 198.738 855.026 199.414 855.026 200.282C855.026 201.188 855.25 201.874 855.698 202.34C856.053 202.714 856.51 202.9 857.07 202.9C857.555 202.9 857.952 202.76 858.26 202.48C858.531 202.238 858.699 201.906 858.764 201.486ZM862.918 198.574H861.49C861.565 197.846 861.91 197.282 862.526 196.88C863.077 196.516 863.772 196.334 864.612 196.334C865.611 196.334 866.376 196.596 866.908 197.118C867.356 197.566 867.58 198.145 867.58 198.854V203.824H866.474L866.306 202.83C865.737 203.633 864.925 204.034 863.87 204.034C863.039 204.034 862.391 203.81 861.924 203.362C861.541 202.989 861.35 202.518 861.35 201.948C861.35 201.23 861.597 200.674 862.092 200.282C862.531 199.937 863.203 199.685 864.108 199.526L866.236 199.162V198.798C866.236 198.322 866.073 197.963 865.746 197.72C865.457 197.506 865.06 197.398 864.556 197.398C863.567 197.398 863.021 197.79 862.918 198.574ZM864.192 202.9C864.761 202.9 865.256 202.714 865.676 202.34C866.049 201.995 866.236 201.598 866.236 201.15V200.212L864.43 200.534C863.767 200.646 863.315 200.819 863.072 201.052C862.876 201.239 862.778 201.491 862.778 201.808C862.778 202.163 862.899 202.434 863.142 202.62C863.385 202.807 863.735 202.9 864.192 202.9ZM872.715 202.746V203.894C872.37 203.988 872.039 204.034 871.721 204.034C871.049 204.034 870.545 203.824 870.209 203.404C869.92 203.059 869.775 202.597 869.775 202.018V197.692H868.697V196.544H869.775L869.859 194.794H871.119V196.544H872.687V197.692H871.119V202.046C871.119 202.588 871.376 202.858 871.889 202.858C872.132 202.858 872.407 202.821 872.715 202.746ZM875.407 195.326H873.895V193.744H875.407V195.326ZM875.323 203.824H873.979V196.544H875.323V203.824ZM876.868 200.184C876.868 198.85 877.264 197.842 878.058 197.16C878.692 196.61 879.495 196.334 880.466 196.334C881.595 196.334 882.482 196.694 883.126 197.412C883.742 198.084 884.05 199.008 884.05 200.184C884.05 201.5 883.662 202.504 882.888 203.194C882.253 203.754 881.441 204.034 880.452 204.034C879.322 204.034 878.431 203.661 877.778 202.914C877.171 202.233 876.868 201.323 876.868 200.184ZM878.268 200.184C878.268 201.118 878.506 201.832 878.982 202.326C879.374 202.737 879.873 202.942 880.48 202.942C881.189 202.942 881.735 202.676 882.118 202.144C882.472 201.659 882.65 201.006 882.65 200.184C882.65 199.232 882.416 198.514 881.95 198.028C881.567 197.627 881.072 197.426 880.466 197.426C879.766 197.426 879.22 197.692 878.828 198.224C878.454 198.71 878.268 199.363 878.268 200.184ZM886.93 203.824H885.586V196.544H886.692L886.846 197.468C887.388 196.712 888.125 196.334 889.058 196.334C889.917 196.334 890.575 196.6 891.032 197.132C891.434 197.608 891.634 198.257 891.634 199.078V203.824H890.29V199.092C890.29 198.019 889.772 197.482 888.736 197.482C888.195 197.482 887.752 197.669 887.406 198.042C887.089 198.378 886.93 198.808 886.93 199.33V203.824ZM897.786 201.85C897.786 201.44 897.571 201.132 897.142 200.926C896.89 200.814 896.4 200.674 895.672 200.506C894.776 200.31 894.136 200.026 893.754 199.652C893.436 199.335 893.278 198.92 893.278 198.406C893.278 197.725 893.553 197.202 894.104 196.838C894.598 196.502 895.266 196.334 896.106 196.334C896.974 196.334 897.678 196.549 898.22 196.978C898.686 197.352 898.976 197.846 899.088 198.462H897.716C897.557 197.753 897.016 197.398 896.092 197.398C895.578 197.398 895.196 197.492 894.944 197.678C894.738 197.837 894.636 198.038 894.636 198.28C894.636 198.579 894.748 198.803 894.972 198.952C895.205 199.102 895.658 199.251 896.33 199.4C897.356 199.624 898.07 199.9 898.472 200.226C898.92 200.59 899.144 201.099 899.144 201.752C899.144 202.48 898.845 203.054 898.248 203.474C897.706 203.848 896.992 204.034 896.106 204.034C895.135 204.034 894.365 203.801 893.796 203.334C893.301 202.924 893.026 202.392 892.97 201.738H894.342C894.491 202.56 895.084 202.97 896.12 202.97C896.68 202.97 897.114 202.849 897.422 202.606C897.664 202.41 897.786 202.158 897.786 201.85Z" fill="white" fill-opacity="0.95"/>
</g>
<defs>
<clipPath id="clip0_2029_8878">
<rect width="36" height="20" fill="white" transform="translate(284 188.824)"/>
</clipPath>
<clipPath id="clip1_2029_8878">
<rect width="36" height="20" fill="white" transform="translate(466 188.824)"/>
</clipPath>
<clipPath id="clip2_2029_8878">
<rect width="160" height="21" fill="white" transform="translate(586 188.824)"/>
</clipPath>
<clipPath id="clip3_2029_8878">
<rect width="160" height="21" fill="white" transform="translate(768 188.824)"/>
</clipPath>
</defs>
</svg>
