<svg width="1150" height="287" viewBox="0 0 1150 287" fill="none" xmlns="http://www.w3.org/2000/svg">
<rect width="1150" height="287" rx="16" fill="#1A1A1A"/>
<path d="M301.75 141C301.75 143.761 299.511 146 296.75 146C293.989 146 291.75 143.761 291.75 141C291.75 138.239 293.989 136 296.75 136C299.511 136 301.75 138.239 301.75 141Z" stroke="#3492EB" stroke-width="2"/>
<g clip-path="url(#clip0_2029_12016)">
<path d="M317.422 138.993C317.369 138.522 317.15 138.158 316.766 137.899C316.381 137.637 315.897 137.506 315.314 137.506C314.896 137.506 314.535 137.573 314.23 137.705C313.925 137.835 313.688 138.013 313.519 138.242C313.353 138.468 313.271 138.724 313.271 139.013C313.271 139.255 313.327 139.464 313.44 139.639C313.556 139.815 313.706 139.962 313.892 140.082C314.081 140.198 314.283 140.295 314.499 140.375C314.714 140.451 314.921 140.514 315.12 140.564L316.114 140.822C316.439 140.902 316.772 141.01 317.114 141.146C317.455 141.281 317.772 141.46 318.063 141.683C318.355 141.905 318.59 142.18 318.769 142.508C318.951 142.836 319.043 143.229 319.043 143.686C319.043 144.263 318.893 144.775 318.595 145.222C318.3 145.67 317.871 146.023 317.308 146.281C316.747 146.54 316.07 146.669 315.274 146.669C314.512 146.669 313.852 146.548 313.295 146.306C312.739 146.064 312.303 145.721 311.988 145.277C311.673 144.83 311.499 144.299 311.466 143.686H313.007C313.037 144.054 313.156 144.361 313.365 144.606C313.577 144.848 313.847 145.028 314.175 145.148C314.507 145.264 314.87 145.322 315.264 145.322C315.698 145.322 316.085 145.254 316.423 145.118C316.764 144.979 317.032 144.786 317.228 144.541C317.424 144.293 317.521 144.003 317.521 143.671C317.521 143.37 317.435 143.123 317.263 142.93C317.094 142.738 316.863 142.579 316.572 142.453C316.283 142.327 315.957 142.216 315.592 142.12L314.389 141.792C313.574 141.57 312.928 141.243 312.45 140.812C311.976 140.382 311.739 139.812 311.739 139.102C311.739 138.516 311.898 138.004 312.217 137.566C312.535 137.129 312.966 136.789 313.509 136.547C314.053 136.302 314.666 136.179 315.349 136.179C316.038 136.179 316.646 136.3 317.173 136.542C317.704 136.784 318.121 137.117 318.426 137.541C318.731 137.962 318.89 138.446 318.903 138.993H317.422ZM324.324 138.864V140.057H320.153V138.864H324.324ZM321.271 137.034H322.758V144.258C322.758 144.546 322.801 144.763 322.887 144.909C322.973 145.052 323.084 145.149 323.22 145.202C323.359 145.252 323.51 145.277 323.672 145.277C323.792 145.277 323.896 145.269 323.986 145.252C324.075 145.236 324.145 145.222 324.194 145.212L324.463 146.44C324.377 146.473 324.254 146.507 324.095 146.54C323.936 146.576 323.737 146.596 323.498 146.599C323.107 146.606 322.743 146.536 322.405 146.391C322.067 146.245 321.793 146.019 321.584 145.714C321.376 145.41 321.271 145.027 321.271 144.566V137.034ZM329.177 146.654C328.425 146.654 327.777 146.493 327.233 146.172C326.693 145.847 326.275 145.391 325.98 144.805C325.689 144.215 325.543 143.524 325.543 142.732C325.543 141.949 325.689 141.26 325.98 140.663C326.275 140.067 326.686 139.601 327.213 139.266C327.744 138.932 328.364 138.764 329.073 138.764C329.504 138.764 329.921 138.835 330.326 138.978C330.73 139.121 331.093 139.344 331.414 139.649C331.736 139.954 331.989 140.35 332.175 140.837C332.361 141.321 332.453 141.91 332.453 142.602V143.129H326.383V142.016H330.997C330.997 141.625 330.917 141.278 330.758 140.977C330.599 140.672 330.375 140.431 330.087 140.256C329.802 140.08 329.467 139.992 329.083 139.992C328.665 139.992 328.301 140.095 327.989 140.3C327.681 140.503 327.442 140.768 327.273 141.096C327.107 141.421 327.025 141.774 327.025 142.155V143.025C327.025 143.535 327.114 143.969 327.293 144.327C327.475 144.685 327.729 144.959 328.054 145.148C328.378 145.333 328.758 145.426 329.192 145.426C329.474 145.426 329.731 145.386 329.963 145.307C330.195 145.224 330.395 145.101 330.564 144.939C330.733 144.777 330.863 144.576 330.952 144.337L332.359 144.591C332.246 145.005 332.044 145.368 331.752 145.68C331.464 145.988 331.101 146.228 330.664 146.401C330.23 146.57 329.734 146.654 329.177 146.654ZM334.103 149.364V138.864H335.555V140.102H335.679C335.765 139.942 335.889 139.759 336.052 139.55C336.214 139.341 336.439 139.159 336.728 139.003C337.016 138.844 337.397 138.764 337.871 138.764C338.488 138.764 339.038 138.92 339.522 139.232C340.006 139.543 340.385 139.992 340.66 140.579C340.939 141.165 341.078 141.871 341.078 142.697C341.078 143.522 340.94 144.23 340.665 144.82C340.39 145.406 340.012 145.859 339.532 146.177C339.051 146.492 338.503 146.649 337.886 146.649C337.422 146.649 337.043 146.571 336.748 146.415C336.456 146.26 336.227 146.077 336.062 145.869C335.896 145.66 335.768 145.474 335.679 145.312H335.589V149.364H334.103ZM335.559 142.682C335.559 143.219 335.637 143.689 335.793 144.094C335.949 144.498 336.174 144.815 336.469 145.043C336.764 145.269 337.126 145.381 337.553 145.381C337.997 145.381 338.368 145.264 338.667 145.028C338.965 144.79 339.19 144.467 339.343 144.059C339.499 143.651 339.577 143.192 339.577 142.682C339.577 142.178 339.5 141.726 339.348 141.325C339.199 140.924 338.973 140.607 338.672 140.375C338.373 140.143 338.001 140.027 337.553 140.027C337.122 140.027 336.758 140.138 336.459 140.36C336.164 140.582 335.941 140.892 335.788 141.29C335.636 141.687 335.559 142.152 335.559 142.682ZM347.935 136.318V146.5H346.449V136.318H347.935ZM352.157 146.669C351.673 146.669 351.236 146.58 350.845 146.401C350.454 146.218 350.144 145.955 349.915 145.61C349.69 145.265 349.577 144.843 349.577 144.342C349.577 143.911 349.66 143.557 349.825 143.278C349.991 143 350.215 142.78 350.497 142.617C350.778 142.455 351.093 142.332 351.441 142.249C351.789 142.166 352.144 142.103 352.505 142.06C352.963 142.007 353.334 141.964 353.619 141.931C353.904 141.895 354.111 141.837 354.24 141.757C354.369 141.678 354.434 141.548 354.434 141.369V141.335C354.434 140.9 354.311 140.564 354.066 140.325C353.824 140.087 353.463 139.967 352.982 139.967C352.482 139.967 352.088 140.078 351.799 140.3C351.514 140.519 351.317 140.763 351.208 141.031L349.811 140.713C349.976 140.249 350.218 139.875 350.536 139.589C350.858 139.301 351.227 139.092 351.645 138.963C352.063 138.83 352.502 138.764 352.963 138.764C353.267 138.764 353.591 138.801 353.932 138.874C354.277 138.943 354.598 139.072 354.896 139.261C355.198 139.45 355.445 139.72 355.637 140.072C355.829 140.42 355.926 140.872 355.926 141.429V146.5H354.474V145.456H354.414C354.318 145.648 354.174 145.837 353.982 146.023C353.789 146.208 353.543 146.362 353.241 146.485C352.939 146.608 352.578 146.669 352.157 146.669ZM352.48 145.476C352.891 145.476 353.243 145.395 353.534 145.232C353.829 145.07 354.053 144.858 354.205 144.596C354.361 144.331 354.439 144.047 354.439 143.746V142.761C354.386 142.814 354.283 142.864 354.131 142.911C353.982 142.954 353.811 142.992 353.619 143.025C353.427 143.055 353.239 143.083 353.057 143.109C352.875 143.133 352.722 143.152 352.6 143.169C352.311 143.205 352.048 143.267 351.809 143.353C351.574 143.439 351.385 143.563 351.242 143.726C351.103 143.885 351.034 144.097 351.034 144.362C351.034 144.73 351.169 145.009 351.441 145.197C351.713 145.383 352.059 145.476 352.48 145.476ZM358.025 146.5V136.318H359.511V140.102H359.601C359.687 139.942 359.811 139.759 359.974 139.55C360.136 139.341 360.362 139.159 360.65 139.003C360.938 138.844 361.319 138.764 361.793 138.764C362.41 138.764 362.96 138.92 363.444 139.232C363.928 139.543 364.307 139.992 364.582 140.579C364.861 141.165 365 141.871 365 142.697C365 143.522 364.862 144.23 364.587 144.82C364.312 145.406 363.934 145.859 363.454 146.177C362.973 146.492 362.425 146.649 361.808 146.649C361.344 146.649 360.965 146.571 360.67 146.415C360.378 146.26 360.149 146.077 359.984 145.869C359.818 145.66 359.69 145.474 359.601 145.312H359.477V146.5H358.025ZM359.482 142.682C359.482 143.219 359.559 143.689 359.715 144.094C359.871 144.498 360.096 144.815 360.391 145.043C360.686 145.269 361.048 145.381 361.475 145.381C361.919 145.381 362.29 145.264 362.589 145.028C362.887 144.79 363.112 144.467 363.265 144.059C363.421 143.651 363.499 143.192 363.499 142.682C363.499 142.178 363.422 141.726 363.27 141.325C363.121 140.924 362.895 140.607 362.594 140.375C362.295 140.143 361.923 140.027 361.475 140.027C361.044 140.027 360.68 140.138 360.381 140.36C360.086 140.582 359.863 140.892 359.71 141.29C359.558 141.687 359.482 142.152 359.482 142.682ZM369.96 146.654C369.208 146.654 368.56 146.493 368.017 146.172C367.476 145.847 367.059 145.391 366.764 144.805C366.472 144.215 366.326 143.524 366.326 142.732C366.326 141.949 366.472 141.26 366.764 140.663C367.059 140.067 367.47 139.601 367.997 139.266C368.527 138.932 369.147 138.764 369.856 138.764C370.287 138.764 370.704 138.835 371.109 138.978C371.513 139.121 371.876 139.344 372.198 139.649C372.519 139.954 372.773 140.35 372.958 140.837C373.144 141.321 373.237 141.91 373.237 142.602V143.129H367.166V142.016H371.78C371.78 141.625 371.7 141.278 371.541 140.977C371.382 140.672 371.159 140.431 370.87 140.256C370.585 140.08 370.25 139.992 369.866 139.992C369.448 139.992 369.084 140.095 368.772 140.3C368.464 140.503 368.225 140.768 368.056 141.096C367.891 141.421 367.808 141.774 367.808 142.155V143.025C367.808 143.535 367.897 143.969 368.076 144.327C368.258 144.685 368.512 144.959 368.837 145.148C369.162 145.333 369.541 145.426 369.975 145.426C370.257 145.426 370.514 145.386 370.746 145.307C370.978 145.224 371.178 145.101 371.347 144.939C371.517 144.777 371.646 144.576 371.735 144.337L373.142 144.591C373.03 145.005 372.827 145.368 372.536 145.68C372.247 145.988 371.884 146.228 371.447 146.401C371.013 146.57 370.517 146.654 369.96 146.654ZM376.373 136.318V146.5H374.886V136.318H376.373ZM382.872 141.553V142.841H378.357V141.553H382.872ZM387.075 146.669C386.591 146.669 386.154 146.58 385.763 146.401C385.372 146.218 385.062 145.955 384.833 145.61C384.608 145.265 384.495 144.843 384.495 144.342C384.495 143.911 384.578 143.557 384.743 143.278C384.909 143 385.133 142.78 385.415 142.617C385.696 142.455 386.011 142.332 386.359 142.249C386.707 142.166 387.062 142.103 387.423 142.06C387.881 142.007 388.252 141.964 388.537 141.931C388.822 141.895 389.029 141.837 389.158 141.757C389.287 141.678 389.352 141.548 389.352 141.369V141.335C389.352 140.9 389.229 140.564 388.984 140.325C388.742 140.087 388.381 139.967 387.9 139.967C387.4 139.967 387.006 140.078 386.717 140.3C386.432 140.519 386.235 140.763 386.126 141.031L384.729 140.713C384.894 140.249 385.136 139.875 385.454 139.589C385.776 139.301 386.145 139.092 386.563 138.963C386.981 138.83 387.42 138.764 387.881 138.764C388.185 138.764 388.509 138.801 388.85 138.874C389.195 138.943 389.516 139.072 389.814 139.261C390.116 139.45 390.363 139.72 390.555 140.072C390.747 140.42 390.844 140.872 390.844 141.429V146.5H389.392V145.456H389.332C389.236 145.648 389.092 145.837 388.9 146.023C388.707 146.208 388.461 146.362 388.159 146.485C387.857 146.608 387.496 146.669 387.075 146.669ZM387.398 145.476C387.809 145.476 388.161 145.395 388.452 145.232C388.747 145.07 388.971 144.858 389.123 144.596C389.279 144.331 389.357 144.047 389.357 143.746V142.761C389.304 142.814 389.201 142.864 389.049 142.911C388.9 142.954 388.729 142.992 388.537 143.025C388.345 143.055 388.157 143.083 387.975 143.109C387.793 143.133 387.64 143.152 387.518 143.169C387.229 143.205 386.966 143.267 386.727 143.353C386.492 143.439 386.303 143.563 386.16 143.726C386.021 143.885 385.952 144.097 385.952 144.362C385.952 144.73 386.087 145.009 386.359 145.197C386.631 145.383 386.977 145.476 387.398 145.476ZM396.04 146.654C395.301 146.654 394.665 146.487 394.131 146.152C393.601 145.814 393.193 145.348 392.908 144.755C392.623 144.162 392.48 143.482 392.48 142.717C392.48 141.941 392.626 141.257 392.918 140.663C393.21 140.067 393.621 139.601 394.151 139.266C394.681 138.932 395.306 138.764 396.025 138.764C396.605 138.764 397.122 138.872 397.576 139.087C398.03 139.299 398.397 139.598 398.675 139.982C398.957 140.367 399.124 140.816 399.177 141.33H397.73C397.651 140.972 397.469 140.663 397.184 140.405C396.902 140.146 396.524 140.017 396.05 140.017C395.636 140.017 395.273 140.126 394.961 140.345C394.653 140.561 394.413 140.869 394.24 141.27C394.068 141.668 393.982 142.138 393.982 142.682C393.982 143.239 394.066 143.719 394.235 144.124C394.404 144.528 394.643 144.841 394.951 145.063C395.263 145.285 395.629 145.396 396.05 145.396C396.332 145.396 396.587 145.345 396.816 145.242C397.048 145.136 397.242 144.985 397.397 144.79C397.556 144.594 397.667 144.359 397.73 144.084H399.177C399.124 144.578 398.963 145.018 398.695 145.406C398.426 145.794 398.067 146.099 397.616 146.321C397.169 146.543 396.643 146.654 396.04 146.654ZM404.331 138.864V140.057H400.16V138.864H404.331ZM401.279 137.034H402.765V144.258C402.765 144.546 402.809 144.763 402.895 144.909C402.981 145.052 403.092 145.149 403.228 145.202C403.367 145.252 403.518 145.277 403.68 145.277C403.8 145.277 403.904 145.269 403.993 145.252C404.083 145.236 404.153 145.222 404.202 145.212L404.471 146.44C404.385 146.473 404.262 146.507 404.103 146.54C403.944 146.576 403.745 146.596 403.506 146.599C403.115 146.606 402.751 146.536 402.412 146.391C402.074 146.245 401.801 146.019 401.592 145.714C401.383 145.41 401.279 145.027 401.279 144.566V137.034ZM405.976 146.5V138.864H407.462V146.5H405.976ZM406.727 137.685C406.468 137.685 406.246 137.599 406.06 137.427C405.878 137.251 405.787 137.042 405.787 136.8C405.787 136.555 405.878 136.346 406.06 136.174C406.246 135.998 406.468 135.911 406.727 135.911C406.985 135.911 407.205 135.998 407.388 136.174C407.573 136.346 407.666 136.555 407.666 136.8C407.666 137.042 407.573 137.251 407.388 137.427C407.205 137.599 406.985 137.685 406.727 137.685ZM415.995 138.864L413.226 146.5H411.635L408.861 138.864H410.456L412.39 144.74H412.47L414.399 138.864H415.995ZM420.423 146.654C419.671 146.654 419.023 146.493 418.479 146.172C417.939 145.847 417.522 145.391 417.227 144.805C416.935 144.215 416.789 143.524 416.789 142.732C416.789 141.949 416.935 141.26 417.227 140.663C417.522 140.067 417.933 139.601 418.46 139.266C418.99 138.932 419.61 138.764 420.319 138.764C420.75 138.764 421.167 138.835 421.572 138.978C421.976 139.121 422.339 139.344 422.661 139.649C422.982 139.954 423.236 140.35 423.421 140.837C423.607 141.321 423.7 141.91 423.7 142.602V143.129H417.629V142.016H422.243C422.243 141.625 422.163 141.278 422.004 140.977C421.845 140.672 421.621 140.431 421.333 140.256C421.048 140.08 420.713 139.992 420.329 139.992C419.911 139.992 419.547 140.095 419.235 140.3C418.927 140.503 418.688 140.768 418.519 141.096C418.353 141.421 418.271 141.774 418.271 142.155V143.025C418.271 143.535 418.36 143.969 418.539 144.327C418.721 144.685 418.975 144.959 419.3 145.148C419.625 145.333 420.004 145.426 420.438 145.426C420.72 145.426 420.977 145.386 421.209 145.307C421.441 145.224 421.641 145.101 421.81 144.939C421.979 144.777 422.109 144.576 422.198 144.337L423.605 144.591C423.492 145.005 423.29 145.368 422.999 145.68C422.71 145.988 422.347 146.228 421.91 146.401C421.476 146.57 420.98 146.654 420.423 146.654Z" fill="white" fill-opacity="0.95"/>
</g>
<rect x="432.75" y="140" width="24" height="2" fill="#8F8F8F"/>
<path d="M479.75 141C479.75 144.866 476.616 148 472.75 148C468.884 148 465.75 144.866 465.75 141C465.75 137.134 468.884 134 472.75 134C476.616 134 479.75 137.134 479.75 141Z" stroke="#64B4FA" stroke-width="2"/>
<g clip-path="url(#clip1_2029_12016)">
<path d="M490.018 146V135.818H491.251V144.906H495.984V146H490.018ZM499.981 146.179C499.497 146.179 499.058 146.088 498.664 145.906C498.269 145.72 497.956 145.453 497.724 145.105C497.492 144.754 497.376 144.33 497.376 143.832C497.376 143.395 497.462 143.04 497.635 142.768C497.807 142.493 498.037 142.278 498.326 142.122C498.614 141.966 498.932 141.85 499.28 141.774C499.632 141.695 499.984 141.632 500.339 141.585C500.803 141.526 501.179 141.481 501.468 141.451C501.759 141.418 501.971 141.363 502.104 141.287C502.24 141.211 502.308 141.078 502.308 140.889V140.849C502.308 140.359 502.174 139.978 501.905 139.706C501.64 139.434 501.237 139.298 500.697 139.298C500.137 139.298 499.698 139.421 499.38 139.666C499.061 139.911 498.838 140.173 498.708 140.452L497.595 140.054C497.794 139.59 498.059 139.229 498.39 138.97C498.725 138.708 499.09 138.526 499.484 138.423C499.882 138.317 500.273 138.264 500.657 138.264C500.903 138.264 501.184 138.294 501.502 138.354C501.824 138.41 502.134 138.528 502.432 138.707C502.734 138.886 502.984 139.156 503.183 139.517C503.382 139.878 503.481 140.362 503.481 140.969V146H502.308V144.966H502.248C502.169 145.132 502.036 145.309 501.85 145.498C501.665 145.687 501.418 145.848 501.11 145.98C500.801 146.113 500.425 146.179 499.981 146.179ZM500.16 145.125C500.624 145.125 501.015 145.034 501.333 144.852C501.655 144.669 501.897 144.434 502.059 144.146C502.225 143.857 502.308 143.554 502.308 143.236V142.162C502.258 142.222 502.149 142.276 501.98 142.326C501.814 142.372 501.622 142.414 501.403 142.45C501.188 142.483 500.977 142.513 500.772 142.54C500.569 142.563 500.405 142.583 500.279 142.599C499.975 142.639 499.69 142.704 499.424 142.793C499.163 142.879 498.95 143.01 498.788 143.186C498.629 143.358 498.549 143.594 498.549 143.892C498.549 144.3 498.7 144.608 499.002 144.817C499.307 145.022 499.693 145.125 500.16 145.125ZM505.782 146V135.818H506.955V139.577H507.055C507.141 139.444 507.26 139.275 507.412 139.07C507.568 138.861 507.79 138.675 508.079 138.513C508.37 138.347 508.765 138.264 509.262 138.264C509.905 138.264 510.472 138.425 510.962 138.746C511.453 139.068 511.836 139.524 512.111 140.114C512.386 140.704 512.523 141.4 512.523 142.202C512.523 143.01 512.386 143.711 512.111 144.305C511.836 144.895 511.454 145.352 510.967 145.677C510.48 145.998 509.918 146.159 509.282 146.159C508.791 146.159 508.398 146.078 508.104 145.915C507.809 145.75 507.581 145.562 507.422 145.354C507.263 145.142 507.141 144.966 507.055 144.827H506.915V146H505.782ZM506.935 142.182C506.935 142.759 507.02 143.267 507.189 143.708C507.358 144.146 507.605 144.489 507.93 144.737C508.254 144.982 508.652 145.105 509.123 145.105C509.613 145.105 510.023 144.976 510.351 144.717C510.682 144.455 510.931 144.104 511.096 143.663C511.265 143.219 511.35 142.725 511.35 142.182C511.35 141.645 511.267 141.161 511.101 140.73C510.939 140.296 510.692 139.953 510.361 139.701C510.032 139.446 509.62 139.318 509.123 139.318C508.645 139.318 508.244 139.439 507.92 139.681C507.595 139.92 507.349 140.254 507.184 140.685C507.018 141.113 506.935 141.612 506.935 142.182ZM517.52 146.159C516.784 146.159 516.149 145.997 515.616 145.672C515.085 145.344 514.676 144.886 514.388 144.3C514.103 143.71 513.96 143.024 513.96 142.241C513.96 141.459 514.103 140.77 514.388 140.173C514.676 139.573 515.077 139.106 515.591 138.771C516.108 138.433 516.711 138.264 517.4 138.264C517.798 138.264 518.191 138.33 518.579 138.463C518.966 138.596 519.319 138.811 519.638 139.109C519.956 139.404 520.209 139.795 520.398 140.283C520.587 140.77 520.682 141.37 520.682 142.082V142.58H514.795V141.565H519.488C519.488 141.134 519.402 140.75 519.23 140.412C519.061 140.074 518.819 139.807 518.504 139.612C518.193 139.416 517.825 139.318 517.4 139.318C516.933 139.318 516.529 139.434 516.187 139.666C515.849 139.895 515.589 140.193 515.407 140.561C515.224 140.929 515.133 141.323 515.133 141.744V142.42C515.133 142.997 515.233 143.486 515.432 143.887C515.634 144.285 515.914 144.588 516.272 144.797C516.63 145.002 517.046 145.105 517.52 145.105C517.828 145.105 518.106 145.062 518.355 144.976C518.607 144.886 518.824 144.754 519.006 144.578C519.189 144.399 519.329 144.177 519.429 143.912L520.562 144.23C520.443 144.615 520.242 144.953 519.961 145.244C519.679 145.533 519.331 145.758 518.917 145.92C518.502 146.08 518.037 146.159 517.52 146.159ZM523.64 135.818V146H522.466V135.818H523.64Z" fill="white" fill-opacity="0.7"/>
</g>
<rect x="532.75" y="140" width="24" height="2" fill="#8F8F8F"/>
<path d="M579.75 141C579.75 144.866 576.616 148 572.75 148C568.884 148 565.75 144.866 565.75 141C565.75 137.134 568.884 134 572.75 134C576.616 134 579.75 137.134 579.75 141Z" stroke="#64B4FA" stroke-width="2"/>
<g clip-path="url(#clip2_2029_12016)">
<path d="M590.018 146V135.818H591.251V144.906H595.984V146H590.018ZM599.981 146.179C599.497 146.179 599.058 146.088 598.664 145.906C598.269 145.72 597.956 145.453 597.724 145.105C597.492 144.754 597.376 144.33 597.376 143.832C597.376 143.395 597.462 143.04 597.635 142.768C597.807 142.493 598.037 142.278 598.326 142.122C598.614 141.966 598.932 141.85 599.28 141.774C599.632 141.695 599.984 141.632 600.339 141.585C600.803 141.526 601.179 141.481 601.468 141.451C601.759 141.418 601.971 141.363 602.104 141.287C602.24 141.211 602.308 141.078 602.308 140.889V140.849C602.308 140.359 602.174 139.978 601.905 139.706C601.64 139.434 601.237 139.298 600.697 139.298C600.137 139.298 599.698 139.421 599.38 139.666C599.061 139.911 598.838 140.173 598.708 140.452L597.595 140.054C597.794 139.59 598.059 139.229 598.39 138.97C598.725 138.708 599.09 138.526 599.484 138.423C599.882 138.317 600.273 138.264 600.657 138.264C600.903 138.264 601.184 138.294 601.502 138.354C601.824 138.41 602.134 138.528 602.432 138.707C602.734 138.886 602.984 139.156 603.183 139.517C603.382 139.878 603.481 140.362 603.481 140.969V146H602.308V144.966H602.248C602.169 145.132 602.036 145.309 601.85 145.498C601.665 145.687 601.418 145.848 601.11 145.98C600.801 146.113 600.425 146.179 599.981 146.179ZM600.16 145.125C600.624 145.125 601.015 145.034 601.333 144.852C601.655 144.669 601.897 144.434 602.059 144.146C602.225 143.857 602.308 143.554 602.308 143.236V142.162C602.258 142.222 602.149 142.276 601.98 142.326C601.814 142.372 601.622 142.414 601.403 142.45C601.188 142.483 600.977 142.513 600.772 142.54C600.569 142.563 600.405 142.583 600.279 142.599C599.975 142.639 599.69 142.704 599.424 142.793C599.163 142.879 598.95 143.01 598.788 143.186C598.629 143.358 598.549 143.594 598.549 143.892C598.549 144.3 598.7 144.608 599.002 144.817C599.307 145.022 599.693 145.125 600.16 145.125ZM605.782 146V135.818H606.955V139.577H607.055C607.141 139.444 607.26 139.275 607.412 139.07C607.568 138.861 607.79 138.675 608.079 138.513C608.37 138.347 608.765 138.264 609.262 138.264C609.905 138.264 610.472 138.425 610.962 138.746C611.453 139.068 611.836 139.524 612.111 140.114C612.386 140.704 612.523 141.4 612.523 142.202C612.523 143.01 612.386 143.711 612.111 144.305C611.836 144.895 611.454 145.352 610.967 145.677C610.48 145.998 609.918 146.159 609.282 146.159C608.791 146.159 608.398 146.078 608.104 145.915C607.809 145.75 607.581 145.562 607.422 145.354C607.263 145.142 607.141 144.966 607.055 144.827H606.915V146H605.782ZM606.935 142.182C606.935 142.759 607.02 143.267 607.189 143.708C607.358 144.146 607.605 144.489 607.93 144.737C608.254 144.982 608.652 145.105 609.123 145.105C609.613 145.105 610.023 144.976 610.351 144.717C610.682 144.455 610.931 144.104 611.096 143.663C611.265 143.219 611.35 142.725 611.35 142.182C611.35 141.645 611.267 141.161 611.101 140.73C610.939 140.296 610.692 139.953 610.361 139.701C610.032 139.446 609.62 139.318 609.123 139.318C608.645 139.318 608.244 139.439 607.92 139.681C607.595 139.92 607.349 140.254 607.184 140.685C607.018 141.113 606.935 141.612 606.935 142.182ZM617.52 146.159C616.784 146.159 616.149 145.997 615.616 145.672C615.085 145.344 614.676 144.886 614.388 144.3C614.103 143.71 613.96 143.024 613.96 142.241C613.96 141.459 614.103 140.77 614.388 140.173C614.676 139.573 615.077 139.106 615.591 138.771C616.108 138.433 616.711 138.264 617.4 138.264C617.798 138.264 618.191 138.33 618.579 138.463C618.966 138.596 619.319 138.811 619.638 139.109C619.956 139.404 620.209 139.795 620.398 140.283C620.587 140.77 620.682 141.37 620.682 142.082V142.58H614.795V141.565H619.488C619.488 141.134 619.402 140.75 619.23 140.412C619.061 140.074 618.819 139.807 618.504 139.612C618.193 139.416 617.825 139.318 617.4 139.318C616.933 139.318 616.529 139.434 616.187 139.666C615.849 139.895 615.589 140.193 615.407 140.561C615.224 140.929 615.133 141.323 615.133 141.744V142.42C615.133 142.997 615.233 143.486 615.432 143.887C615.634 144.285 615.914 144.588 616.272 144.797C616.63 145.002 617.046 145.105 617.52 145.105C617.828 145.105 618.106 145.062 618.355 144.976C618.607 144.886 618.824 144.754 619.006 144.578C619.189 144.399 619.329 144.177 619.429 143.912L620.562 144.23C620.443 144.615 620.242 144.953 619.961 145.244C619.679 145.533 619.331 145.758 618.917 145.92C618.502 146.08 618.037 146.159 617.52 146.159ZM623.64 135.818V146H622.466V135.818H623.64Z" fill="white" fill-opacity="0.7"/>
</g>
<rect x="632.75" y="140" width="24" height="2" fill="#8F8F8F"/>
<path d="M679.75 141C679.75 144.866 676.616 148 672.75 148C668.884 148 665.75 144.866 665.75 141C665.75 137.134 668.884 134 672.75 134C676.616 134 679.75 137.134 679.75 141Z" stroke="#64B4FA" stroke-width="2"/>
<g clip-path="url(#clip3_2029_12016)">
<path d="M690.018 146V135.818H691.251V144.906H695.984V146H690.018ZM699.981 146.179C699.497 146.179 699.058 146.088 698.664 145.906C698.269 145.72 697.956 145.453 697.724 145.105C697.492 144.754 697.376 144.33 697.376 143.832C697.376 143.395 697.462 143.04 697.635 142.768C697.807 142.493 698.037 142.278 698.326 142.122C698.614 141.966 698.932 141.85 699.28 141.774C699.632 141.695 699.984 141.632 700.339 141.585C700.803 141.526 701.179 141.481 701.468 141.451C701.759 141.418 701.971 141.363 702.104 141.287C702.24 141.211 702.308 141.078 702.308 140.889V140.849C702.308 140.359 702.174 139.978 701.905 139.706C701.64 139.434 701.237 139.298 700.697 139.298C700.137 139.298 699.698 139.421 699.38 139.666C699.061 139.911 698.838 140.173 698.708 140.452L697.595 140.054C697.794 139.59 698.059 139.229 698.39 138.97C698.725 138.708 699.09 138.526 699.484 138.423C699.882 138.317 700.273 138.264 700.657 138.264C700.903 138.264 701.184 138.294 701.502 138.354C701.824 138.41 702.134 138.528 702.432 138.707C702.734 138.886 702.984 139.156 703.183 139.517C703.382 139.878 703.481 140.362 703.481 140.969V146H702.308V144.966H702.248C702.169 145.132 702.036 145.309 701.85 145.498C701.665 145.687 701.418 145.848 701.11 145.98C700.801 146.113 700.425 146.179 699.981 146.179ZM700.16 145.125C700.624 145.125 701.015 145.034 701.333 144.852C701.655 144.669 701.897 144.434 702.059 144.146C702.225 143.857 702.308 143.554 702.308 143.236V142.162C702.258 142.222 702.149 142.276 701.98 142.326C701.814 142.372 701.622 142.414 701.403 142.45C701.188 142.483 700.977 142.513 700.772 142.54C700.569 142.563 700.405 142.583 700.279 142.599C699.975 142.639 699.69 142.704 699.424 142.793C699.163 142.879 698.95 143.01 698.788 143.186C698.629 143.358 698.549 143.594 698.549 143.892C698.549 144.3 698.7 144.608 699.002 144.817C699.307 145.022 699.693 145.125 700.16 145.125ZM705.782 146V135.818H706.955V139.577H707.055C707.141 139.444 707.26 139.275 707.412 139.07C707.568 138.861 707.79 138.675 708.079 138.513C708.37 138.347 708.765 138.264 709.262 138.264C709.905 138.264 710.472 138.425 710.962 138.746C711.453 139.068 711.836 139.524 712.111 140.114C712.386 140.704 712.523 141.4 712.523 142.202C712.523 143.01 712.386 143.711 712.111 144.305C711.836 144.895 711.454 145.352 710.967 145.677C710.48 145.998 709.918 146.159 709.282 146.159C708.791 146.159 708.398 146.078 708.104 145.915C707.809 145.75 707.581 145.562 707.422 145.354C707.263 145.142 707.141 144.966 707.055 144.827H706.915V146H705.782ZM706.935 142.182C706.935 142.759 707.02 143.267 707.189 143.708C707.358 144.146 707.605 144.489 707.93 144.737C708.254 144.982 708.652 145.105 709.123 145.105C709.613 145.105 710.023 144.976 710.351 144.717C710.682 144.455 710.931 144.104 711.096 143.663C711.265 143.219 711.35 142.725 711.35 142.182C711.35 141.645 711.267 141.161 711.101 140.73C710.939 140.296 710.692 139.953 710.361 139.701C710.032 139.446 709.62 139.318 709.123 139.318C708.645 139.318 708.244 139.439 707.92 139.681C707.595 139.92 707.349 140.254 707.184 140.685C707.018 141.113 706.935 141.612 706.935 142.182ZM717.52 146.159C716.784 146.159 716.149 145.997 715.616 145.672C715.085 145.344 714.676 144.886 714.388 144.3C714.103 143.71 713.96 143.024 713.96 142.241C713.96 141.459 714.103 140.77 714.388 140.173C714.676 139.573 715.077 139.106 715.591 138.771C716.108 138.433 716.711 138.264 717.4 138.264C717.798 138.264 718.191 138.33 718.579 138.463C718.966 138.596 719.319 138.811 719.638 139.109C719.956 139.404 720.209 139.795 720.398 140.283C720.587 140.77 720.682 141.37 720.682 142.082V142.58H714.795V141.565H719.488C719.488 141.134 719.402 140.75 719.23 140.412C719.061 140.074 718.819 139.807 718.504 139.612C718.193 139.416 717.825 139.318 717.4 139.318C716.933 139.318 716.529 139.434 716.187 139.666C715.849 139.895 715.589 140.193 715.407 140.561C715.224 140.929 715.133 141.323 715.133 141.744V142.42C715.133 142.997 715.233 143.486 715.432 143.887C715.634 144.285 715.914 144.588 716.272 144.797C716.63 145.002 717.046 145.105 717.52 145.105C717.828 145.105 718.106 145.062 718.355 144.976C718.607 144.886 718.824 144.754 719.006 144.578C719.189 144.399 719.329 144.177 719.429 143.912L720.562 144.23C720.443 144.615 720.242 144.953 719.961 145.244C719.679 145.533 719.331 145.758 718.917 145.92C718.502 146.08 718.037 146.159 717.52 146.159ZM723.64 135.818V146H722.466V135.818H723.64Z" fill="white" fill-opacity="0.7"/>
</g>
<rect x="732.75" y="140" width="24" height="2" fill="#8F8F8F"/>
<path d="M779.75 141C779.75 144.866 776.616 148 772.75 148C768.884 148 765.75 144.866 765.75 141C765.75 137.134 768.884 134 772.75 134C776.616 134 779.75 137.134 779.75 141Z" stroke="#64B4FA" stroke-width="2"/>
<g clip-path="url(#clip4_2029_12016)">
<path d="M790.018 146V135.818H791.251V144.906H795.984V146H790.018ZM799.981 146.179C799.497 146.179 799.058 146.088 798.664 145.906C798.269 145.72 797.956 145.453 797.724 145.105C797.492 144.754 797.376 144.33 797.376 143.832C797.376 143.395 797.462 143.04 797.635 142.768C797.807 142.493 798.037 142.278 798.326 142.122C798.614 141.966 798.932 141.85 799.28 141.774C799.632 141.695 799.984 141.632 800.339 141.585C800.803 141.526 801.179 141.481 801.468 141.451C801.759 141.418 801.971 141.363 802.104 141.287C802.24 141.211 802.308 141.078 802.308 140.889V140.849C802.308 140.359 802.174 139.978 801.905 139.706C801.64 139.434 801.237 139.298 800.697 139.298C800.137 139.298 799.698 139.421 799.38 139.666C799.061 139.911 798.838 140.173 798.708 140.452L797.595 140.054C797.794 139.59 798.059 139.229 798.39 138.97C798.725 138.708 799.09 138.526 799.484 138.423C799.882 138.317 800.273 138.264 800.657 138.264C800.903 138.264 801.184 138.294 801.502 138.354C801.824 138.41 802.134 138.528 802.432 138.707C802.734 138.886 802.984 139.156 803.183 139.517C803.382 139.878 803.481 140.362 803.481 140.969V146H802.308V144.966H802.248C802.169 145.132 802.036 145.309 801.85 145.498C801.665 145.687 801.418 145.848 801.11 145.98C800.801 146.113 800.425 146.179 799.981 146.179ZM800.16 145.125C800.624 145.125 801.015 145.034 801.333 144.852C801.655 144.669 801.897 144.434 802.059 144.146C802.225 143.857 802.308 143.554 802.308 143.236V142.162C802.258 142.222 802.149 142.276 801.98 142.326C801.814 142.372 801.622 142.414 801.403 142.45C801.188 142.483 800.977 142.513 800.772 142.54C800.569 142.563 800.405 142.583 800.279 142.599C799.975 142.639 799.69 142.704 799.424 142.793C799.163 142.879 798.95 143.01 798.788 143.186C798.629 143.358 798.549 143.594 798.549 143.892C798.549 144.3 798.7 144.608 799.002 144.817C799.307 145.022 799.693 145.125 800.16 145.125ZM805.782 146V135.818H806.955V139.577H807.055C807.141 139.444 807.26 139.275 807.412 139.07C807.568 138.861 807.79 138.675 808.079 138.513C808.37 138.347 808.765 138.264 809.262 138.264C809.905 138.264 810.472 138.425 810.962 138.746C811.453 139.068 811.836 139.524 812.111 140.114C812.386 140.704 812.523 141.4 812.523 142.202C812.523 143.01 812.386 143.711 812.111 144.305C811.836 144.895 811.454 145.352 810.967 145.677C810.48 145.998 809.918 146.159 809.282 146.159C808.791 146.159 808.398 146.078 808.104 145.915C807.809 145.75 807.581 145.562 807.422 145.354C807.263 145.142 807.141 144.966 807.055 144.827H806.915V146H805.782ZM806.935 142.182C806.935 142.759 807.02 143.267 807.189 143.708C807.358 144.146 807.605 144.489 807.93 144.737C808.254 144.982 808.652 145.105 809.123 145.105C809.613 145.105 810.023 144.976 810.351 144.717C810.682 144.455 810.931 144.104 811.096 143.663C811.265 143.219 811.35 142.725 811.35 142.182C811.35 141.645 811.267 141.161 811.101 140.73C810.939 140.296 810.692 139.953 810.361 139.701C810.032 139.446 809.62 139.318 809.123 139.318C808.645 139.318 808.244 139.439 807.92 139.681C807.595 139.92 807.349 140.254 807.184 140.685C807.018 141.113 806.935 141.612 806.935 142.182ZM817.52 146.159C816.784 146.159 816.149 145.997 815.616 145.672C815.085 145.344 814.676 144.886 814.388 144.3C814.103 143.71 813.96 143.024 813.96 142.241C813.96 141.459 814.103 140.77 814.388 140.173C814.676 139.573 815.077 139.106 815.591 138.771C816.108 138.433 816.711 138.264 817.4 138.264C817.798 138.264 818.191 138.33 818.579 138.463C818.966 138.596 819.319 138.811 819.638 139.109C819.956 139.404 820.209 139.795 820.398 140.283C820.587 140.77 820.682 141.37 820.682 142.082V142.58H814.795V141.565H819.488C819.488 141.134 819.402 140.75 819.23 140.412C819.061 140.074 818.819 139.807 818.504 139.612C818.193 139.416 817.825 139.318 817.4 139.318C816.933 139.318 816.529 139.434 816.187 139.666C815.849 139.895 815.589 140.193 815.407 140.561C815.224 140.929 815.133 141.323 815.133 141.744V142.42C815.133 142.997 815.233 143.486 815.432 143.887C815.634 144.285 815.914 144.588 816.272 144.797C816.63 145.002 817.046 145.105 817.52 145.105C817.828 145.105 818.106 145.062 818.355 144.976C818.607 144.886 818.824 144.754 819.006 144.578C819.189 144.399 819.329 144.177 819.429 143.912L820.562 144.23C820.443 144.615 820.242 144.953 819.961 145.244C819.679 145.533 819.331 145.758 818.917 145.92C818.502 146.08 818.037 146.159 817.52 146.159ZM823.64 135.818V146H822.466V135.818H823.64Z" fill="white" fill-opacity="0.7"/>
</g>
<rect x="832.75" y="140" width="24" height="2" fill="#8F8F8F"/>
<path d="M879.75 141C879.75 144.866 876.616 148 872.75 148C868.884 148 865.75 144.866 865.75 141C865.75 137.134 868.884 134 872.75 134C876.616 134 879.75 137.134 879.75 141Z" stroke="#64B4FA" stroke-width="2"/>
<g clip-path="url(#clip5_2029_12016)">
<path d="M890.018 146V135.818H891.251V144.906H895.984V146H890.018ZM899.981 146.179C899.497 146.179 899.058 146.088 898.664 145.906C898.269 145.72 897.956 145.453 897.724 145.105C897.492 144.754 897.376 144.33 897.376 143.832C897.376 143.395 897.462 143.04 897.635 142.768C897.807 142.493 898.037 142.278 898.326 142.122C898.614 141.966 898.932 141.85 899.28 141.774C899.632 141.695 899.984 141.632 900.339 141.585C900.803 141.526 901.179 141.481 901.468 141.451C901.759 141.418 901.971 141.363 902.104 141.287C902.24 141.211 902.308 141.078 902.308 140.889V140.849C902.308 140.359 902.174 139.978 901.905 139.706C901.64 139.434 901.237 139.298 900.697 139.298C900.137 139.298 899.698 139.421 899.38 139.666C899.061 139.911 898.838 140.173 898.708 140.452L897.595 140.054C897.794 139.59 898.059 139.229 898.39 138.97C898.725 138.708 899.09 138.526 899.484 138.423C899.882 138.317 900.273 138.264 900.657 138.264C900.903 138.264 901.184 138.294 901.502 138.354C901.824 138.41 902.134 138.528 902.432 138.707C902.734 138.886 902.984 139.156 903.183 139.517C903.382 139.878 903.481 140.362 903.481 140.969V146H902.308V144.966H902.248C902.169 145.132 902.036 145.309 901.85 145.498C901.665 145.687 901.418 145.848 901.11 145.98C900.801 146.113 900.425 146.179 899.981 146.179ZM900.16 145.125C900.624 145.125 901.015 145.034 901.333 144.852C901.655 144.669 901.897 144.434 902.059 144.146C902.225 143.857 902.308 143.554 902.308 143.236V142.162C902.258 142.222 902.149 142.276 901.98 142.326C901.814 142.372 901.622 142.414 901.403 142.45C901.188 142.483 900.977 142.513 900.772 142.54C900.569 142.563 900.405 142.583 900.279 142.599C899.975 142.639 899.69 142.704 899.424 142.793C899.163 142.879 898.95 143.01 898.788 143.186C898.629 143.358 898.549 143.594 898.549 143.892C898.549 144.3 898.7 144.608 899.002 144.817C899.307 145.022 899.693 145.125 900.16 145.125ZM905.782 146V135.818H906.955V139.577H907.055C907.141 139.444 907.26 139.275 907.412 139.07C907.568 138.861 907.79 138.675 908.079 138.513C908.37 138.347 908.765 138.264 909.262 138.264C909.905 138.264 910.472 138.425 910.962 138.746C911.453 139.068 911.836 139.524 912.111 140.114C912.386 140.704 912.523 141.4 912.523 142.202C912.523 143.01 912.386 143.711 912.111 144.305C911.836 144.895 911.454 145.352 910.967 145.677C910.48 145.998 909.918 146.159 909.282 146.159C908.791 146.159 908.398 146.078 908.104 145.915C907.809 145.75 907.581 145.562 907.422 145.354C907.263 145.142 907.141 144.966 907.055 144.827H906.915V146H905.782ZM906.935 142.182C906.935 142.759 907.02 143.267 907.189 143.708C907.358 144.146 907.605 144.489 907.93 144.737C908.254 144.982 908.652 145.105 909.123 145.105C909.613 145.105 910.023 144.976 910.351 144.717C910.682 144.455 910.931 144.104 911.096 143.663C911.265 143.219 911.35 142.725 911.35 142.182C911.35 141.645 911.267 141.161 911.101 140.73C910.939 140.296 910.692 139.953 910.361 139.701C910.032 139.446 909.62 139.318 909.123 139.318C908.645 139.318 908.244 139.439 907.92 139.681C907.595 139.92 907.349 140.254 907.184 140.685C907.018 141.113 906.935 141.612 906.935 142.182ZM917.52 146.159C916.784 146.159 916.149 145.997 915.616 145.672C915.085 145.344 914.676 144.886 914.388 144.3C914.103 143.71 913.96 143.024 913.96 142.241C913.96 141.459 914.103 140.77 914.388 140.173C914.676 139.573 915.077 139.106 915.591 138.771C916.108 138.433 916.711 138.264 917.4 138.264C917.798 138.264 918.191 138.33 918.579 138.463C918.966 138.596 919.319 138.811 919.638 139.109C919.956 139.404 920.209 139.795 920.398 140.283C920.587 140.77 920.682 141.37 920.682 142.082V142.58H914.795V141.565H919.488C919.488 141.134 919.402 140.75 919.23 140.412C919.061 140.074 918.819 139.807 918.504 139.612C918.193 139.416 917.825 139.318 917.4 139.318C916.933 139.318 916.529 139.434 916.187 139.666C915.849 139.895 915.589 140.193 915.407 140.561C915.224 140.929 915.133 141.323 915.133 141.744V142.42C915.133 142.997 915.233 143.486 915.432 143.887C915.634 144.285 915.914 144.588 916.272 144.797C916.63 145.002 917.046 145.105 917.52 145.105C917.828 145.105 918.106 145.062 918.355 144.976C918.607 144.886 918.824 144.754 919.006 144.578C919.189 144.399 919.329 144.177 919.429 143.912L920.562 144.23C920.443 144.615 920.242 144.953 919.961 145.244C919.679 145.533 919.331 145.758 918.917 145.92C918.502 146.08 918.037 146.159 917.52 146.159ZM923.64 135.818V146H922.466V135.818H923.64Z" fill="white" fill-opacity="0.7"/>
</g>
<path d="M308.25 90V124" stroke="#DA0087"/>
<path d="M308.25 132L304.25 124H312.25L308.25 132Z" fill="#DA0087"/>
<rect x="243.25" y="70" width="130" height="28" rx="14" fill="#DA0087"/>
<path d="M263.023 81.2727C262.955 80.697 262.678 80.25 262.193 79.9318C261.708 79.6136 261.114 79.4545 260.409 79.4545C259.894 79.4545 259.443 79.5379 259.057 79.7045C258.674 79.8712 258.375 80.1004 258.159 80.392C257.947 80.6837 257.841 81.0152 257.841 81.3864C257.841 81.697 257.915 81.964 258.062 82.1875C258.214 82.4072 258.407 82.5909 258.642 82.7386C258.877 82.8826 259.123 83.0019 259.381 83.0966C259.638 83.1875 259.875 83.2614 260.091 83.3182L261.273 83.6364C261.576 83.7159 261.913 83.8258 262.284 83.9659C262.659 84.1061 263.017 84.2973 263.358 84.5398C263.703 84.7784 263.987 85.0852 264.21 85.4602C264.434 85.8352 264.545 86.2955 264.545 86.8409C264.545 87.4697 264.381 88.0379 264.051 88.5455C263.725 89.053 263.248 89.4564 262.619 89.7557C261.994 90.0549 261.235 90.2045 260.341 90.2045C259.508 90.2045 258.786 90.0701 258.176 89.8011C257.57 89.5322 257.093 89.1572 256.744 88.6761C256.4 88.1951 256.205 87.6364 256.159 87H257.614C257.652 87.4394 257.799 87.803 258.057 88.0909C258.318 88.375 258.648 88.5871 259.045 88.7273C259.447 88.8636 259.879 88.9318 260.341 88.9318C260.879 88.9318 261.362 88.8447 261.79 88.6705C262.218 88.4924 262.557 88.2462 262.807 87.9318C263.057 87.6136 263.182 87.2424 263.182 86.8182C263.182 86.4318 263.074 86.1174 262.858 85.875C262.642 85.6326 262.358 85.4356 262.006 85.2841C261.653 85.1326 261.273 85 260.864 84.8864L259.432 84.4773C258.523 84.2159 257.803 83.8428 257.273 83.358C256.742 82.8731 256.477 82.2386 256.477 81.4545C256.477 80.803 256.653 80.2348 257.006 79.75C257.362 79.2614 257.839 78.8826 258.438 78.6136C259.04 78.3409 259.712 78.2045 260.455 78.2045C261.205 78.2045 261.871 78.339 262.455 78.608C263.038 78.8731 263.5 79.2367 263.841 79.6989C264.186 80.161 264.367 80.6856 264.386 81.2727H263.023ZM270.476 81.2727V82.4091H265.953V81.2727H270.476ZM267.271 79.1818H268.612V87.5C268.612 87.8788 268.667 88.1629 268.777 88.3523C268.891 88.5379 269.035 88.6629 269.209 88.7273C269.387 88.7879 269.574 88.8182 269.771 88.8182C269.919 88.8182 270.04 88.8106 270.135 88.7955C270.23 88.7765 270.305 88.7614 270.362 88.75L270.635 89.9545C270.544 89.9886 270.417 90.0227 270.254 90.0568C270.091 90.0947 269.885 90.1136 269.635 90.1136C269.256 90.1136 268.885 90.0322 268.521 89.8693C268.161 89.7064 267.862 89.4583 267.624 89.125C267.389 88.7917 267.271 88.3712 267.271 87.8636V79.1818ZM276.058 90.1818C275.217 90.1818 274.492 89.9962 273.882 89.625C273.276 89.25 272.808 88.7273 272.479 88.0568C272.153 87.3826 271.99 86.5985 271.99 85.7045C271.99 84.8106 272.153 84.0227 272.479 83.3409C272.808 82.6553 273.267 82.1212 273.854 81.7386C274.445 81.3523 275.134 81.1591 275.922 81.1591C276.376 81.1591 276.825 81.2348 277.268 81.3864C277.712 81.5379 278.115 81.7841 278.479 82.125C278.842 82.4621 279.132 82.9091 279.348 83.4659C279.564 84.0227 279.672 84.7083 279.672 85.5227V86.0909H272.945V84.9318H278.308C278.308 84.4394 278.21 84 278.013 83.6136C277.82 83.2273 277.543 82.9223 277.183 82.6989C276.827 82.4754 276.407 82.3636 275.922 82.3636C275.388 82.3636 274.926 82.4962 274.536 82.7614C274.149 83.0227 273.852 83.3636 273.643 83.7841C273.435 84.2045 273.331 84.6553 273.331 85.1364V85.9091C273.331 86.5682 273.445 87.1269 273.672 87.5852C273.903 88.0398 274.223 88.3864 274.632 88.625C275.041 88.8598 275.517 88.9773 276.058 88.9773C276.411 88.9773 276.729 88.928 277.013 88.8295C277.301 88.7273 277.549 88.5758 277.757 88.375C277.965 88.1705 278.126 87.9167 278.24 87.6136L279.536 87.9773C279.399 88.4167 279.17 88.803 278.848 89.1364C278.526 89.4659 278.128 89.7235 277.655 89.9091C277.181 90.0909 276.649 90.1818 276.058 90.1818ZM281.712 93.2727V81.2727H283.007V82.6591H283.166C283.265 82.5076 283.401 82.3144 283.575 82.0795C283.753 81.8409 284.007 81.6288 284.337 81.4432C284.67 81.2538 285.121 81.1591 285.689 81.1591C286.424 81.1591 287.071 81.3428 287.632 81.7102C288.193 82.0777 288.63 82.5985 288.945 83.2727C289.259 83.947 289.416 84.7424 289.416 85.6591C289.416 86.5833 289.259 87.3845 288.945 88.0625C288.63 88.7367 288.195 89.2595 287.638 89.6307C287.081 89.9981 286.439 90.1818 285.712 90.1818C285.151 90.1818 284.702 90.089 284.365 89.9034C284.028 89.714 283.768 89.5 283.587 89.2614C283.405 89.0189 283.265 88.8182 283.166 88.6591H283.053V93.2727H281.712ZM283.03 85.6364C283.03 86.2955 283.126 86.8769 283.32 87.3807C283.513 87.8807 283.795 88.2727 284.166 88.5568C284.537 88.8371 284.992 88.9773 285.53 88.9773C286.09 88.9773 286.558 88.8295 286.933 88.5341C287.312 88.2348 287.596 87.8333 287.786 87.3295C287.979 86.822 288.075 86.2576 288.075 85.6364C288.075 85.0227 287.981 84.4697 287.791 83.9773C287.606 83.4811 287.323 83.089 286.945 82.8011C286.57 82.5095 286.098 82.3636 285.53 82.3636C284.984 82.3636 284.526 82.5019 284.155 82.7784C283.784 83.0511 283.503 83.4337 283.314 83.9261C283.125 84.4148 283.03 84.9848 283.03 85.6364ZM297.553 78.3636V90H296.143V78.3636H297.553ZM301.537 84.75V90H300.196V81.2727H301.491V82.6364H301.605C301.81 82.1932 302.12 81.8371 302.537 81.5682C302.954 81.2955 303.491 81.1591 304.151 81.1591C304.741 81.1591 305.259 81.2803 305.702 81.5227C306.145 81.7614 306.49 82.125 306.736 82.6136C306.982 83.0985 307.105 83.7121 307.105 84.4545V90H305.764V84.5455C305.764 83.8598 305.586 83.3258 305.23 82.9432C304.874 82.5568 304.385 82.3636 303.764 82.3636C303.336 82.3636 302.954 82.4564 302.616 82.642C302.283 82.8277 302.02 83.0985 301.827 83.4545C301.634 83.8106 301.537 84.2424 301.537 84.75ZM312.851 90.1818C312.124 90.1818 311.482 89.9981 310.925 89.6307C310.368 89.2595 309.932 88.7367 309.618 88.0625C309.304 87.3845 309.146 86.5833 309.146 85.6591C309.146 84.7424 309.304 83.947 309.618 83.2727C309.932 82.5985 310.37 82.0777 310.93 81.7102C311.491 81.3428 312.139 81.1591 312.874 81.1591C313.442 81.1591 313.891 81.2538 314.22 81.4432C314.554 81.6288 314.807 81.8409 314.982 82.0795C315.16 82.3144 315.298 82.5076 315.396 82.6591H315.51V78.3636H316.851V90H315.555V88.6591H315.396C315.298 88.8182 315.158 89.0189 314.976 89.2614C314.794 89.5 314.535 89.714 314.197 89.9034C313.86 90.089 313.411 90.1818 312.851 90.1818ZM313.033 88.9773C313.571 88.9773 314.025 88.8371 314.396 88.5568C314.768 88.2727 315.05 87.8807 315.243 87.3807C315.436 86.8769 315.533 86.2955 315.533 85.6364C315.533 84.9848 315.438 84.4148 315.249 83.9261C315.059 83.4337 314.779 83.0511 314.408 82.7784C314.036 82.5019 313.578 82.3636 313.033 82.3636C312.464 82.3636 311.991 82.5095 311.612 82.8011C311.237 83.089 310.955 83.4811 310.766 83.9773C310.58 84.4697 310.487 85.0227 310.487 85.6364C310.487 86.2576 310.582 86.822 310.771 87.3295C310.964 87.8333 311.249 88.2348 311.624 88.5341C312.002 88.8295 312.472 88.9773 313.033 88.9773ZM319.493 90V81.2727H320.834V90H319.493ZM320.175 79.8182C319.913 79.8182 319.688 79.7292 319.499 79.5511C319.313 79.3731 319.22 79.1591 319.22 78.9091C319.22 78.6591 319.313 78.4451 319.499 78.267C319.688 78.089 319.913 78 320.175 78C320.436 78 320.66 78.089 320.845 78.267C321.035 78.4451 321.129 78.6591 321.129 78.9091C321.129 79.1591 321.035 79.3731 320.845 79.5511C320.66 79.7292 320.436 79.8182 320.175 79.8182ZM326.835 90.1818C326.017 90.1818 325.313 89.9886 324.722 89.6023C324.131 89.2159 323.676 88.6837 323.358 88.0057C323.04 87.3277 322.881 86.553 322.881 85.6818C322.881 84.7955 323.044 84.0133 323.369 83.3352C323.699 82.6534 324.157 82.1212 324.744 81.7386C325.335 81.3523 326.025 81.1591 326.812 81.1591C327.426 81.1591 327.979 81.2727 328.472 81.5C328.964 81.7273 329.367 82.0455 329.682 82.4545C329.996 82.8636 330.191 83.3409 330.267 83.8864H328.926C328.824 83.4886 328.597 83.1364 328.244 82.8295C327.896 82.5189 327.426 82.3636 326.835 82.3636C326.313 82.3636 325.854 82.5 325.46 82.7727C325.07 83.0417 324.765 83.4223 324.545 83.9148C324.33 84.4034 324.222 84.9773 324.222 85.6364C324.222 86.3106 324.328 86.8977 324.54 87.3977C324.756 87.8977 325.059 88.286 325.449 88.5625C325.843 88.839 326.305 88.9773 326.835 88.9773C327.184 88.9773 327.5 88.9167 327.784 88.7955C328.068 88.6742 328.309 88.5 328.506 88.2727C328.703 88.0455 328.843 87.7727 328.926 87.4545H330.267C330.191 87.9697 330.004 88.4337 329.705 88.8466C329.409 89.2557 329.017 89.5814 328.528 89.8239C328.044 90.0625 327.479 90.1818 326.835 90.1818ZM334.795 90.2045C334.242 90.2045 333.741 90.1004 333.29 89.892C332.839 89.6799 332.481 89.375 332.216 88.9773C331.951 88.5758 331.818 88.0909 331.818 87.5227C331.818 87.0227 331.917 86.6174 332.114 86.3068C332.311 85.9924 332.574 85.7462 332.903 85.5682C333.233 85.3902 333.597 85.2576 333.994 85.1705C334.396 85.0795 334.799 85.0076 335.205 84.9545C335.735 84.8864 336.165 84.8352 336.494 84.8011C336.828 84.7633 337.07 84.7008 337.222 84.6136C337.377 84.5265 337.455 84.375 337.455 84.1591V84.1136C337.455 83.553 337.301 83.1174 336.994 82.8068C336.691 82.4962 336.231 82.3409 335.614 82.3409C334.973 82.3409 334.472 82.4811 334.108 82.7614C333.744 83.0417 333.489 83.3409 333.341 83.6591L332.068 83.2045C332.295 82.6742 332.598 82.2614 332.977 81.9659C333.36 81.6667 333.777 81.4583 334.227 81.3409C334.682 81.2197 335.129 81.1591 335.568 81.1591C335.848 81.1591 336.17 81.1932 336.534 81.2614C336.902 81.3258 337.256 81.4602 337.597 81.6648C337.941 81.8693 338.227 82.178 338.455 82.5909C338.682 83.0038 338.795 83.5568 338.795 84.25V90H337.455V88.8182H337.386C337.295 89.0076 337.144 89.2102 336.932 89.4261C336.72 89.642 336.438 89.8258 336.085 89.9773C335.733 90.1288 335.303 90.2045 334.795 90.2045ZM335 89C335.53 89 335.977 88.8958 336.341 88.6875C336.708 88.4792 336.985 88.2102 337.17 87.8807C337.36 87.5511 337.455 87.2045 337.455 86.8409V85.6136C337.398 85.6818 337.273 85.7443 337.08 85.8011C336.89 85.8542 336.67 85.9015 336.42 85.9432C336.174 85.9811 335.934 86.0152 335.699 86.0455C335.468 86.072 335.28 86.0947 335.136 86.1136C334.788 86.1591 334.462 86.233 334.159 86.3352C333.86 86.4337 333.617 86.5833 333.432 86.7841C333.25 86.9811 333.159 87.25 333.159 87.5909C333.159 88.0568 333.331 88.4091 333.676 88.6477C334.025 88.8826 334.466 89 335 89ZM345.038 81.2727V82.4091H340.516V81.2727H345.038ZM341.834 79.1818H343.175V87.5C343.175 87.8788 343.23 88.1629 343.339 88.3523C343.453 88.5379 343.597 88.6629 343.771 88.7273C343.949 88.7879 344.137 88.8182 344.334 88.8182C344.482 88.8182 344.603 88.8106 344.697 88.7955C344.792 88.7765 344.868 88.7614 344.925 88.75L345.197 89.9545C345.107 89.9886 344.98 90.0227 344.817 90.0568C344.654 90.0947 344.447 90.1136 344.197 90.1136C343.819 90.1136 343.447 90.0322 343.084 89.8693C342.724 89.7064 342.425 89.4583 342.186 89.125C341.951 88.7917 341.834 88.3712 341.834 87.8636V79.1818ZM350.507 90.1818C349.719 90.1818 349.028 89.9943 348.433 89.6193C347.842 89.2443 347.38 88.7197 347.047 88.0455C346.717 87.3712 346.553 86.5833 346.553 85.6818C346.553 84.7727 346.717 83.9792 347.047 83.3011C347.38 82.6231 347.842 82.0966 348.433 81.7216C349.028 81.3466 349.719 81.1591 350.507 81.1591C351.295 81.1591 351.984 81.3466 352.575 81.7216C353.17 82.0966 353.632 82.6231 353.962 83.3011C354.295 83.9792 354.462 84.7727 354.462 85.6818C354.462 86.5833 354.295 87.3712 353.962 88.0455C353.632 88.7197 353.17 89.2443 352.575 89.6193C351.984 89.9943 351.295 90.1818 350.507 90.1818ZM350.507 88.9773C351.106 88.9773 351.598 88.8239 351.984 88.517C352.371 88.2102 352.657 87.8068 352.842 87.3068C353.028 86.8068 353.121 86.2652 353.121 85.6818C353.121 85.0985 353.028 84.5549 352.842 84.0511C352.657 83.5473 352.371 83.1402 351.984 82.8295C351.598 82.5189 351.106 82.3636 350.507 82.3636C349.909 82.3636 349.416 82.5189 349.03 82.8295C348.643 83.1402 348.357 83.5473 348.172 84.0511C347.986 84.5549 347.893 85.0985 347.893 85.6818C347.893 86.2652 347.986 86.8068 348.172 87.3068C348.357 87.8068 348.643 88.2102 349.03 88.517C349.416 88.8239 349.909 88.9773 350.507 88.9773ZM356.509 90V81.2727H357.804V82.5909H357.895C358.054 82.1591 358.342 81.8087 358.759 81.5398C359.175 81.2708 359.645 81.1364 360.168 81.1364C360.266 81.1364 360.389 81.1383 360.537 81.142C360.685 81.1458 360.796 81.1515 360.872 81.1591V82.5227C360.827 82.5114 360.723 82.4943 360.56 82.4716C360.401 82.4451 360.232 82.4318 360.054 82.4318C359.63 82.4318 359.251 82.5208 358.918 82.6989C358.588 82.8731 358.327 83.1155 358.134 83.4261C357.944 83.733 357.849 84.0833 357.849 84.4773V90H356.509Z" fill="white" fill-opacity="0.95"/>
<path d="M550.934 84V127" stroke="#DA0087"/>
<path d="M550.934 135L546.934 127H554.934L550.934 135Z" fill="#DA0087"/>
<rect x="494.434" y="64" width="113" height="28" rx="14" fill="#DA0087"/>
<path d="M514.206 75.2727C514.138 74.697 513.862 74.25 513.377 73.9318C512.892 73.6136 512.297 73.4545 511.593 73.4545C511.078 73.4545 510.627 73.5379 510.24 73.7045C509.858 73.8712 509.559 74.1004 509.343 74.392C509.131 74.6837 509.025 75.0152 509.025 75.3864C509.025 75.697 509.098 75.964 509.246 76.1875C509.398 76.4072 509.591 76.5909 509.826 76.7386C510.06 76.8826 510.307 77.0019 510.564 77.0966C510.822 77.1875 511.059 77.2614 511.275 77.3182L512.456 77.6364C512.759 77.7159 513.096 77.8258 513.468 77.9659C513.843 78.1061 514.201 78.2973 514.542 78.5398C514.886 78.7784 515.17 79.0852 515.394 79.4602C515.617 79.8352 515.729 80.2955 515.729 80.8409C515.729 81.4697 515.564 82.0379 515.235 82.5455C514.909 83.053 514.432 83.4564 513.803 83.7557C513.178 84.0549 512.418 84.2045 511.525 84.2045C510.691 84.2045 509.97 84.0701 509.36 83.8011C508.754 83.5322 508.276 83.1572 507.928 82.6761C507.583 82.1951 507.388 81.6364 507.343 81H508.797C508.835 81.4394 508.983 81.803 509.24 82.0909C509.502 82.375 509.831 82.5871 510.229 82.7273C510.631 82.8636 511.062 82.9318 511.525 82.9318C512.062 82.9318 512.545 82.8447 512.973 82.6705C513.401 82.4924 513.74 82.2462 513.99 81.9318C514.24 81.6136 514.365 81.2424 514.365 80.8182C514.365 80.4318 514.257 80.1174 514.042 79.875C513.826 79.6326 513.542 79.4356 513.189 79.2841C512.837 79.1326 512.456 79 512.047 78.8864L510.615 78.4773C509.706 78.2159 508.987 77.8428 508.456 77.358C507.926 76.8731 507.661 76.2386 507.661 75.4545C507.661 74.803 507.837 74.2348 508.189 73.75C508.545 73.2614 509.023 72.8826 509.621 72.6136C510.223 72.3409 510.896 72.2045 511.638 72.2045C512.388 72.2045 513.055 72.339 513.638 72.608C514.221 72.8731 514.684 73.2367 515.025 73.6989C515.369 74.161 515.551 74.6856 515.57 75.2727H514.206ZM521.659 75.2727V76.4091H517.137V75.2727H521.659ZM518.455 73.1818H519.796V81.5C519.796 81.8788 519.851 82.1629 519.961 82.3523C520.074 82.5379 520.218 82.6629 520.392 82.7273C520.57 82.7879 520.758 82.8182 520.955 82.8182C521.103 82.8182 521.224 82.8106 521.319 82.7955C521.413 82.7765 521.489 82.7614 521.546 82.75L521.819 83.9545C521.728 83.9886 521.601 84.0227 521.438 84.0568C521.275 84.0947 521.069 84.1136 520.819 84.1136C520.44 84.1136 520.069 84.0322 519.705 83.8693C519.345 83.7064 519.046 83.4583 518.807 83.125C518.572 82.7917 518.455 82.3712 518.455 81.8636V73.1818ZM527.242 84.1818C526.401 84.1818 525.676 83.9962 525.066 83.625C524.46 83.25 523.992 82.7273 523.662 82.0568C523.337 81.3826 523.174 80.5985 523.174 79.7045C523.174 78.8106 523.337 78.0227 523.662 77.3409C523.992 76.6553 524.45 76.1212 525.037 75.7386C525.628 75.3523 526.318 75.1591 527.105 75.1591C527.56 75.1591 528.009 75.2348 528.452 75.3864C528.895 75.5379 529.299 75.7841 529.662 76.125C530.026 76.4621 530.316 76.9091 530.532 77.4659C530.748 78.0227 530.855 78.7083 530.855 79.5227V80.0909H524.128V78.9318H529.492C529.492 78.4394 529.393 78 529.196 77.6136C529.003 77.2273 528.727 76.9223 528.367 76.6989C528.011 76.4754 527.59 76.3636 527.105 76.3636C526.571 76.3636 526.109 76.4962 525.719 76.7614C525.333 77.0227 525.035 77.3636 524.827 77.7841C524.619 78.2045 524.515 78.6553 524.515 79.1364V79.9091C524.515 80.5682 524.628 81.1269 524.855 81.5852C525.087 82.0398 525.407 82.3864 525.816 82.625C526.225 82.8598 526.7 82.9773 527.242 82.9773C527.594 82.9773 527.912 82.928 528.196 82.8295C528.484 82.7273 528.732 82.5758 528.941 82.375C529.149 82.1705 529.31 81.9167 529.424 81.6136L530.719 81.9773C530.583 82.4167 530.354 82.803 530.032 83.1364C529.71 83.4659 529.312 83.7235 528.838 83.9091C528.365 84.0909 527.833 84.1818 527.242 84.1818ZM532.895 87.2727V75.2727H534.191V76.6591H534.35C534.448 76.5076 534.585 76.3144 534.759 76.0795C534.937 75.8409 535.191 75.6288 535.52 75.4432C535.854 75.2538 536.304 75.1591 536.873 75.1591C537.607 75.1591 538.255 75.3428 538.816 75.7102C539.376 76.0777 539.814 76.5985 540.128 77.2727C540.443 77.947 540.6 78.7424 540.6 79.6591C540.6 80.5833 540.443 81.3845 540.128 82.0625C539.814 82.7367 539.378 83.2595 538.821 83.6307C538.265 83.9981 537.623 84.1818 536.895 84.1818C536.335 84.1818 535.886 84.089 535.549 83.9034C535.212 83.714 534.952 83.5 534.77 83.2614C534.588 83.0189 534.448 82.8182 534.35 82.6591H534.236V87.2727H532.895ZM534.213 79.6364C534.213 80.2955 534.31 80.8769 534.503 81.3807C534.696 81.8807 534.979 82.2727 535.35 82.5568C535.721 82.8371 536.176 82.9773 536.713 82.9773C537.274 82.9773 537.742 82.8295 538.117 82.5341C538.496 82.2348 538.78 81.8333 538.969 81.3295C539.162 80.822 539.259 80.2576 539.259 79.6364C539.259 79.0227 539.164 78.4697 538.975 77.9773C538.789 77.4811 538.507 77.089 538.128 76.8011C537.753 76.5095 537.282 76.3636 536.713 76.3636C536.168 76.3636 535.71 76.5019 535.338 76.7784C534.967 77.0511 534.687 77.4337 534.498 77.9261C534.308 78.4148 534.213 78.9848 534.213 79.6364ZM547.327 84V72.3636H548.668V76.6591H548.782C548.88 76.5076 549.016 76.3144 549.191 76.0795C549.369 75.8409 549.623 75.6288 549.952 75.4432C550.285 75.2538 550.736 75.1591 551.304 75.1591C552.039 75.1591 552.687 75.3428 553.248 75.7102C553.808 76.0777 554.246 76.5985 554.56 77.2727C554.874 77.947 555.032 78.7424 555.032 79.6591C555.032 80.5833 554.874 81.3845 554.56 82.0625C554.246 82.7367 553.81 83.2595 553.253 83.6307C552.696 83.9981 552.054 84.1818 551.327 84.1818C550.766 84.1818 550.318 84.089 549.98 83.9034C549.643 83.714 549.384 83.5 549.202 83.2614C549.02 83.0189 548.88 82.8182 548.782 82.6591H548.623V84H547.327ZM548.645 79.6364C548.645 80.2955 548.742 80.8769 548.935 81.3807C549.128 81.8807 549.41 82.2727 549.782 82.5568C550.153 82.8371 550.607 82.9773 551.145 82.9773C551.706 82.9773 552.174 82.8295 552.549 82.5341C552.927 82.2348 553.212 81.8333 553.401 81.3295C553.594 80.822 553.691 80.2576 553.691 79.6364C553.691 79.0227 553.596 78.4697 553.407 77.9773C553.221 77.4811 552.939 77.089 552.56 76.8011C552.185 76.5095 551.713 76.3636 551.145 76.3636C550.6 76.3636 550.141 76.5019 549.77 76.7784C549.399 77.0511 549.119 77.4337 548.929 77.9261C548.74 78.4148 548.645 78.9848 548.645 79.6364ZM557.083 84V75.2727H558.378V76.5909H558.469C558.628 76.1591 558.916 75.8087 559.333 75.5398C559.749 75.2708 560.219 75.1364 560.742 75.1364C560.84 75.1364 560.963 75.1383 561.111 75.142C561.259 75.1458 561.371 75.1515 561.446 75.1591V76.5227C561.401 76.5114 561.297 76.4943 561.134 76.4716C560.975 76.4451 560.806 76.4318 560.628 76.4318C560.204 76.4318 559.825 76.5208 559.492 76.6989C559.162 76.8731 558.901 77.1155 558.708 77.4261C558.518 77.733 558.424 78.0833 558.424 78.4773V84H557.083ZM563.036 84V75.2727H564.377V84H563.036ZM563.718 73.8182C563.456 73.8182 563.231 73.7292 563.042 73.5511C562.856 73.3731 562.763 73.1591 562.763 72.9091C562.763 72.6591 562.856 72.4451 563.042 72.267C563.231 72.089 563.456 72 563.718 72C563.979 72 564.203 72.089 564.388 72.267C564.578 72.4451 564.672 72.6591 564.672 72.9091C564.672 73.1591 564.578 73.3731 564.388 73.5511C564.203 73.7292 563.979 73.8182 563.718 73.8182ZM570.128 84.1818C569.401 84.1818 568.759 83.9981 568.202 83.6307C567.645 83.2595 567.21 82.7367 566.895 82.0625C566.581 81.3845 566.424 80.5833 566.424 79.6591C566.424 78.7424 566.581 77.947 566.895 77.2727C567.21 76.5985 567.647 76.0777 568.208 75.7102C568.768 75.3428 569.416 75.1591 570.151 75.1591C570.719 75.1591 571.168 75.2538 571.498 75.4432C571.831 75.6288 572.085 75.8409 572.259 76.0795C572.437 76.3144 572.575 76.5076 572.674 76.6591H572.787V72.3636H574.128V84H572.833V82.6591H572.674C572.575 82.8182 572.435 83.0189 572.253 83.2614C572.071 83.5 571.812 83.714 571.475 83.9034C571.138 84.089 570.689 84.1818 570.128 84.1818ZM570.31 82.9773C570.848 82.9773 571.302 82.8371 571.674 82.5568C572.045 82.2727 572.327 81.8807 572.52 81.3807C572.713 80.8769 572.81 80.2955 572.81 79.6364C572.81 78.9848 572.715 78.4148 572.526 77.9261C572.337 77.4337 572.056 77.0511 571.685 76.7784C571.314 76.5019 570.855 76.3636 570.31 76.3636C569.742 76.3636 569.268 76.5095 568.89 76.8011C568.515 77.089 568.232 77.4811 568.043 77.9773C567.857 78.4697 567.765 79.0227 567.765 79.6364C567.765 80.2576 567.859 80.822 568.049 81.3295C568.242 81.8333 568.526 82.2348 568.901 82.5341C569.28 82.8295 569.749 82.9773 570.31 82.9773ZM580.293 87.4545C579.645 87.4545 579.088 87.3712 578.623 87.2045C578.157 87.0417 577.768 86.8258 577.458 86.5568C577.151 86.2917 576.907 86.0076 576.725 85.7045L577.793 84.9545C577.914 85.1136 578.068 85.2955 578.253 85.5C578.439 85.7083 578.693 85.8883 579.015 86.0398C579.34 86.1951 579.766 86.2727 580.293 86.2727C580.998 86.2727 581.579 86.1023 582.037 85.7614C582.496 85.4205 582.725 84.8864 582.725 84.1591V82.3864H582.611C582.513 82.5455 582.373 82.7424 582.191 82.9773C582.013 83.2083 581.755 83.4148 581.418 83.5966C581.085 83.7746 580.634 83.8636 580.066 83.8636C579.361 83.8636 578.729 83.697 578.168 83.3636C577.611 83.0303 577.17 82.5455 576.844 81.9091C576.522 81.2727 576.361 80.5 576.361 79.5909C576.361 78.697 576.518 77.9186 576.833 77.2557C577.147 76.589 577.585 76.0739 578.145 75.7102C578.706 75.3428 579.354 75.1591 580.088 75.1591C580.657 75.1591 581.107 75.2538 581.441 75.4432C581.778 75.6288 582.035 75.8409 582.213 76.0795C582.395 76.3144 582.535 76.5076 582.634 76.6591H582.77V75.2727H584.066V84.25C584.066 85 583.895 85.6098 583.554 86.0795C583.217 86.553 582.763 86.8996 582.191 87.1193C581.623 87.3428 580.99 87.4545 580.293 87.4545ZM580.248 82.6591C580.785 82.6591 581.24 82.536 581.611 82.2898C581.982 82.0436 582.265 81.6894 582.458 81.2273C582.651 80.7652 582.748 80.2121 582.748 79.5682C582.748 78.9394 582.653 78.3845 582.463 77.9034C582.274 77.4223 581.994 77.0455 581.623 76.7727C581.251 76.5 580.793 76.3636 580.248 76.3636C579.679 76.3636 579.206 76.5076 578.827 76.7955C578.452 77.0833 578.17 77.4697 577.98 77.9545C577.795 78.4394 577.702 78.9773 577.702 79.5682C577.702 80.1742 577.797 80.7102 577.986 81.1761C578.179 81.6383 578.463 82.0019 578.838 82.267C579.217 82.5284 579.687 82.6591 580.248 82.6591ZM590.179 84.1818C589.338 84.1818 588.613 83.9962 588.003 83.625C587.397 83.25 586.929 82.7273 586.6 82.0568C586.274 81.3826 586.111 80.5985 586.111 79.7045C586.111 78.8106 586.274 78.0227 586.6 77.3409C586.929 76.6553 587.388 76.1212 587.975 75.7386C588.566 75.3523 589.255 75.1591 590.043 75.1591C590.498 75.1591 590.946 75.2348 591.39 75.3864C591.833 75.5379 592.236 75.7841 592.6 76.125C592.963 76.4621 593.253 76.9091 593.469 77.4659C593.685 78.0227 593.793 78.7083 593.793 79.5227V80.0909H587.066V78.9318H592.429C592.429 78.4394 592.331 78 592.134 77.6136C591.941 77.2273 591.664 76.9223 591.304 76.6989C590.948 76.4754 590.528 76.3636 590.043 76.3636C589.509 76.3636 589.047 76.4962 588.657 76.7614C588.27 77.0227 587.973 77.3636 587.765 77.7841C587.556 78.2045 587.452 78.6553 587.452 79.1364V79.9091C587.452 80.5682 587.566 81.1269 587.793 81.5852C588.024 82.0398 588.344 82.3864 588.753 82.625C589.162 82.8598 589.638 82.9773 590.179 82.9773C590.532 82.9773 590.85 82.928 591.134 82.8295C591.422 82.7273 591.67 82.5758 591.878 82.375C592.087 82.1705 592.248 81.9167 592.361 81.6136L593.657 81.9773C593.52 82.4167 593.291 82.803 592.969 83.1364C592.647 83.4659 592.249 83.7235 591.776 83.9091C591.302 84.0909 590.77 84.1818 590.179 84.1818Z" fill="white" fill-opacity="0.95"/>
<path d="M388.75 203V169" stroke="#DA0087"/>
<path d="M388.75 161L384.75 169H392.75L388.75 161Z" fill="#DA0087"/>
<rect x="336.25" y="195" width="105" height="28" rx="14" fill="#DA0087"/>
<path d="M356.023 206.273C355.955 205.697 355.678 205.25 355.193 204.932C354.708 204.614 354.114 204.455 353.409 204.455C352.894 204.455 352.443 204.538 352.057 204.705C351.674 204.871 351.375 205.1 351.159 205.392C350.947 205.684 350.841 206.015 350.841 206.386C350.841 206.697 350.915 206.964 351.062 207.188C351.214 207.407 351.407 207.591 351.642 207.739C351.877 207.883 352.123 208.002 352.381 208.097C352.638 208.187 352.875 208.261 353.091 208.318L354.273 208.636C354.576 208.716 354.913 208.826 355.284 208.966C355.659 209.106 356.017 209.297 356.358 209.54C356.703 209.778 356.987 210.085 357.21 210.46C357.434 210.835 357.545 211.295 357.545 211.841C357.545 212.47 357.381 213.038 357.051 213.545C356.725 214.053 356.248 214.456 355.619 214.756C354.994 215.055 354.235 215.205 353.341 215.205C352.508 215.205 351.786 215.07 351.176 214.801C350.57 214.532 350.093 214.157 349.744 213.676C349.4 213.195 349.205 212.636 349.159 212H350.614C350.652 212.439 350.799 212.803 351.057 213.091C351.318 213.375 351.648 213.587 352.045 213.727C352.447 213.864 352.879 213.932 353.341 213.932C353.879 213.932 354.362 213.845 354.79 213.67C355.218 213.492 355.557 213.246 355.807 212.932C356.057 212.614 356.182 212.242 356.182 211.818C356.182 211.432 356.074 211.117 355.858 210.875C355.642 210.633 355.358 210.436 355.006 210.284C354.653 210.133 354.273 210 353.864 209.886L352.432 209.477C351.523 209.216 350.803 208.843 350.273 208.358C349.742 207.873 349.477 207.239 349.477 206.455C349.477 205.803 349.653 205.235 350.006 204.75C350.362 204.261 350.839 203.883 351.438 203.614C352.04 203.341 352.712 203.205 353.455 203.205C354.205 203.205 354.871 203.339 355.455 203.608C356.038 203.873 356.5 204.237 356.841 204.699C357.186 205.161 357.367 205.686 357.386 206.273H356.023ZM363.476 206.273V207.409H358.953V206.273H363.476ZM360.271 204.182H361.612V212.5C361.612 212.879 361.667 213.163 361.777 213.352C361.891 213.538 362.035 213.663 362.209 213.727C362.387 213.788 362.574 213.818 362.771 213.818C362.919 213.818 363.04 213.811 363.135 213.795C363.23 213.777 363.305 213.761 363.362 213.75L363.635 214.955C363.544 214.989 363.417 215.023 363.254 215.057C363.091 215.095 362.885 215.114 362.635 215.114C362.256 215.114 361.885 215.032 361.521 214.869C361.161 214.706 360.862 214.458 360.624 214.125C360.389 213.792 360.271 213.371 360.271 212.864V204.182ZM369.058 215.182C368.217 215.182 367.492 214.996 366.882 214.625C366.276 214.25 365.808 213.727 365.479 213.057C365.153 212.383 364.99 211.598 364.99 210.705C364.99 209.811 365.153 209.023 365.479 208.341C365.808 207.655 366.267 207.121 366.854 206.739C367.445 206.352 368.134 206.159 368.922 206.159C369.376 206.159 369.825 206.235 370.268 206.386C370.712 206.538 371.115 206.784 371.479 207.125C371.842 207.462 372.132 207.909 372.348 208.466C372.564 209.023 372.672 209.708 372.672 210.523V211.091H365.945V209.932H371.308C371.308 209.439 371.21 209 371.013 208.614C370.82 208.227 370.543 207.922 370.183 207.699C369.827 207.475 369.407 207.364 368.922 207.364C368.388 207.364 367.926 207.496 367.536 207.761C367.149 208.023 366.852 208.364 366.643 208.784C366.435 209.205 366.331 209.655 366.331 210.136V210.909C366.331 211.568 366.445 212.127 366.672 212.585C366.903 213.04 367.223 213.386 367.632 213.625C368.041 213.86 368.517 213.977 369.058 213.977C369.411 213.977 369.729 213.928 370.013 213.83C370.301 213.727 370.549 213.576 370.757 213.375C370.965 213.17 371.126 212.917 371.24 212.614L372.536 212.977C372.399 213.417 372.17 213.803 371.848 214.136C371.526 214.466 371.128 214.723 370.655 214.909C370.181 215.091 369.649 215.182 369.058 215.182ZM374.712 218.273V206.273H376.007V207.659H376.166C376.265 207.508 376.401 207.314 376.575 207.08C376.753 206.841 377.007 206.629 377.337 206.443C377.67 206.254 378.121 206.159 378.689 206.159C379.424 206.159 380.071 206.343 380.632 206.71C381.193 207.078 381.63 207.598 381.945 208.273C382.259 208.947 382.416 209.742 382.416 210.659C382.416 211.583 382.259 212.384 381.945 213.062C381.63 213.737 381.195 214.259 380.638 214.631C380.081 214.998 379.439 215.182 378.712 215.182C378.151 215.182 377.702 215.089 377.365 214.903C377.028 214.714 376.768 214.5 376.587 214.261C376.405 214.019 376.265 213.818 376.166 213.659H376.053V218.273H374.712ZM376.03 210.636C376.03 211.295 376.126 211.877 376.32 212.381C376.513 212.881 376.795 213.273 377.166 213.557C377.537 213.837 377.992 213.977 378.53 213.977C379.09 213.977 379.558 213.83 379.933 213.534C380.312 213.235 380.596 212.833 380.786 212.33C380.979 211.822 381.075 211.258 381.075 210.636C381.075 210.023 380.981 209.47 380.791 208.977C380.606 208.481 380.323 208.089 379.945 207.801C379.57 207.509 379.098 207.364 378.53 207.364C377.984 207.364 377.526 207.502 377.155 207.778C376.784 208.051 376.503 208.434 376.314 208.926C376.125 209.415 376.03 209.985 376.03 210.636ZM389.143 215V203.364H390.553V213.75H395.962V215H389.143ZM400.53 215.205C399.977 215.205 399.475 215.1 399.024 214.892C398.573 214.68 398.215 214.375 397.95 213.977C397.685 213.576 397.553 213.091 397.553 212.523C397.553 212.023 397.651 211.617 397.848 211.307C398.045 210.992 398.308 210.746 398.638 210.568C398.967 210.39 399.331 210.258 399.729 210.17C400.13 210.08 400.534 210.008 400.939 209.955C401.469 209.886 401.899 209.835 402.229 209.801C402.562 209.763 402.804 209.701 402.956 209.614C403.111 209.527 403.189 209.375 403.189 209.159V209.114C403.189 208.553 403.036 208.117 402.729 207.807C402.426 207.496 401.965 207.341 401.348 207.341C400.708 207.341 400.206 207.481 399.842 207.761C399.479 208.042 399.223 208.341 399.075 208.659L397.803 208.205C398.03 207.674 398.333 207.261 398.712 206.966C399.094 206.667 399.511 206.458 399.962 206.341C400.416 206.22 400.863 206.159 401.303 206.159C401.583 206.159 401.905 206.193 402.268 206.261C402.636 206.326 402.99 206.46 403.331 206.665C403.676 206.869 403.962 207.178 404.189 207.591C404.416 208.004 404.53 208.557 404.53 209.25V215H403.189V213.818H403.121C403.03 214.008 402.878 214.21 402.666 214.426C402.454 214.642 402.172 214.826 401.82 214.977C401.467 215.129 401.037 215.205 400.53 215.205ZM400.734 214C401.265 214 401.712 213.896 402.075 213.688C402.443 213.479 402.719 213.21 402.905 212.881C403.094 212.551 403.189 212.205 403.189 211.841V210.614C403.132 210.682 403.007 210.744 402.814 210.801C402.625 210.854 402.405 210.902 402.155 210.943C401.909 210.981 401.668 211.015 401.433 211.045C401.202 211.072 401.015 211.095 400.871 211.114C400.522 211.159 400.196 211.233 399.893 211.335C399.594 211.434 399.352 211.583 399.166 211.784C398.984 211.981 398.893 212.25 398.893 212.591C398.893 213.057 399.066 213.409 399.411 213.648C399.759 213.883 400.2 214 400.734 214ZM407.159 215V203.364H408.5V207.659H408.614C408.712 207.508 408.848 207.314 409.023 207.08C409.201 206.841 409.455 206.629 409.784 206.443C410.117 206.254 410.568 206.159 411.136 206.159C411.871 206.159 412.519 206.343 413.08 206.71C413.64 207.078 414.078 207.598 414.392 208.273C414.706 208.947 414.864 209.742 414.864 210.659C414.864 211.583 414.706 212.384 414.392 213.062C414.078 213.737 413.642 214.259 413.085 214.631C412.528 214.998 411.886 215.182 411.159 215.182C410.598 215.182 410.15 215.089 409.812 214.903C409.475 214.714 409.216 214.5 409.034 214.261C408.852 214.019 408.712 213.818 408.614 213.659H408.455V215H407.159ZM408.477 210.636C408.477 211.295 408.574 211.877 408.767 212.381C408.96 212.881 409.242 213.273 409.614 213.557C409.985 213.837 410.439 213.977 410.977 213.977C411.538 213.977 412.006 213.83 412.381 213.534C412.759 213.235 413.044 212.833 413.233 212.33C413.426 211.822 413.523 211.258 413.523 210.636C413.523 210.023 413.428 209.47 413.239 208.977C413.053 208.481 412.771 208.089 412.392 207.801C412.017 207.509 411.545 207.364 410.977 207.364C410.432 207.364 409.973 207.502 409.602 207.778C409.231 208.051 408.951 208.434 408.761 208.926C408.572 209.415 408.477 209.985 408.477 210.636ZM420.574 215.182C419.733 215.182 419.008 214.996 418.398 214.625C417.792 214.25 417.324 213.727 416.994 213.057C416.669 212.383 416.506 211.598 416.506 210.705C416.506 209.811 416.669 209.023 416.994 208.341C417.324 207.655 417.782 207.121 418.369 206.739C418.96 206.352 419.65 206.159 420.438 206.159C420.892 206.159 421.341 206.235 421.784 206.386C422.227 206.538 422.631 206.784 422.994 207.125C423.358 207.462 423.648 207.909 423.864 208.466C424.08 209.023 424.188 209.708 424.188 210.523V211.091H417.46V209.932H422.824C422.824 209.439 422.725 209 422.528 208.614C422.335 208.227 422.059 207.922 421.699 207.699C421.343 207.475 420.922 207.364 420.438 207.364C419.903 207.364 419.441 207.496 419.051 207.761C418.665 208.023 418.367 208.364 418.159 208.784C417.951 209.205 417.847 209.655 417.847 210.136V210.909C417.847 211.568 417.96 212.127 418.188 212.585C418.419 213.04 418.739 213.386 419.148 213.625C419.557 213.86 420.032 213.977 420.574 213.977C420.926 213.977 421.244 213.928 421.528 213.83C421.816 213.727 422.064 213.576 422.273 213.375C422.481 213.17 422.642 212.917 422.756 212.614L424.051 212.977C423.915 213.417 423.686 213.803 423.364 214.136C423.042 214.466 422.644 214.723 422.17 214.909C421.697 215.091 421.165 215.182 420.574 215.182ZM427.568 203.364V215H426.227V203.364H427.568Z" fill="white" fill-opacity="0.95"/>
<defs>
<clipPath id="clip0_2029_12016">
<rect width="114" height="21" fill="white" transform="translate(310.75 130.5)"/>
</clipPath>
<clipPath id="clip1_2029_12016">
<rect width="36" height="20" fill="white" transform="translate(488.75 131)"/>
</clipPath>
<clipPath id="clip2_2029_12016">
<rect width="36" height="20" fill="white" transform="translate(588.75 131)"/>
</clipPath>
<clipPath id="clip3_2029_12016">
<rect width="36" height="20" fill="white" transform="translate(688.75 131)"/>
</clipPath>
<clipPath id="clip4_2029_12016">
<rect width="36" height="20" fill="white" transform="translate(788.75 131)"/>
</clipPath>
<clipPath id="clip5_2029_12016">
<rect width="36" height="20" fill="white" transform="translate(888.75 131)"/>
</clipPath>
</defs>
</svg>
