<svg width="1150" height="637" viewBox="0 0 1150 637" fill="none" xmlns="http://www.w3.org/2000/svg">
<rect width="1150" height="637" rx="16" fill="#1A1A1A"/>
<rect x="109" y="106.5" width="32" height="32" rx="16" fill="#DA0087"/>
<path d="M126.755 117.818V128H124.602V119.862H124.543L122.211 121.323V119.414L124.732 117.818H126.755Z" fill="white" fill-opacity="0.95"/>
<path d="M240 108C240 111.866 236.866 115 233 115C229.134 115 226 111.866 226 108C226 104.134 229.134 101 233 101C236.866 101 240 104.134 240 108Z" stroke="#64B4FA" stroke-width="2"/>
<g clip-path="url(#clip0_2029_9358)">
<path d="M216.268 139V128.818H217.501V137.906H222.234V139H216.268ZM226.231 139.179C225.747 139.179 225.308 139.088 224.914 138.906C224.519 138.72 224.206 138.453 223.974 138.105C223.742 137.754 223.626 137.33 223.626 136.832C223.626 136.395 223.712 136.04 223.885 135.768C224.057 135.493 224.287 135.278 224.576 135.122C224.864 134.966 225.182 134.85 225.53 134.774C225.882 134.695 226.234 134.632 226.589 134.585C227.053 134.526 227.429 134.481 227.718 134.451C228.009 134.418 228.221 134.363 228.354 134.287C228.49 134.211 228.558 134.078 228.558 133.889V133.849C228.558 133.359 228.424 132.978 228.155 132.706C227.89 132.434 227.487 132.298 226.947 132.298C226.387 132.298 225.948 132.421 225.63 132.666C225.311 132.911 225.088 133.173 224.958 133.452L223.845 133.054C224.044 132.59 224.309 132.229 224.64 131.97C224.975 131.708 225.34 131.526 225.734 131.423C226.132 131.317 226.523 131.264 226.907 131.264C227.153 131.264 227.434 131.294 227.752 131.354C228.074 131.41 228.384 131.528 228.682 131.707C228.984 131.886 229.234 132.156 229.433 132.517C229.632 132.878 229.731 133.362 229.731 133.969V139H228.558V137.966H228.498C228.419 138.132 228.286 138.309 228.1 138.498C227.915 138.687 227.668 138.848 227.36 138.98C227.051 139.113 226.675 139.179 226.231 139.179ZM226.41 138.125C226.874 138.125 227.265 138.034 227.583 137.852C227.905 137.669 228.147 137.434 228.309 137.146C228.475 136.857 228.558 136.554 228.558 136.236V135.162C228.508 135.222 228.399 135.276 228.23 135.326C228.064 135.372 227.872 135.414 227.653 135.45C227.438 135.483 227.227 135.513 227.022 135.54C226.819 135.563 226.655 135.583 226.529 135.599C226.225 135.639 225.94 135.704 225.674 135.793C225.413 135.879 225.2 136.01 225.038 136.186C224.879 136.358 224.799 136.594 224.799 136.892C224.799 137.3 224.95 137.608 225.252 137.817C225.557 138.022 225.943 138.125 226.41 138.125ZM232.032 139V128.818H233.205V132.577H233.305C233.391 132.444 233.51 132.275 233.662 132.07C233.818 131.861 234.04 131.675 234.329 131.513C234.62 131.347 235.015 131.264 235.512 131.264C236.155 131.264 236.722 131.425 237.212 131.746C237.703 132.068 238.086 132.524 238.361 133.114C238.636 133.704 238.773 134.4 238.773 135.202C238.773 136.01 238.636 136.711 238.361 137.305C238.086 137.895 237.704 138.352 237.217 138.677C236.73 138.998 236.168 139.159 235.532 139.159C235.041 139.159 234.648 139.078 234.354 138.915C234.059 138.75 233.831 138.562 233.672 138.354C233.513 138.142 233.391 137.966 233.305 137.827H233.165V139H232.032ZM233.185 135.182C233.185 135.759 233.27 136.267 233.439 136.708C233.608 137.146 233.855 137.489 234.18 137.737C234.504 137.982 234.902 138.105 235.373 138.105C235.863 138.105 236.273 137.976 236.601 137.717C236.932 137.455 237.181 137.104 237.346 136.663C237.515 136.219 237.6 135.725 237.6 135.182C237.6 134.645 237.517 134.161 237.351 133.73C237.189 133.296 236.942 132.953 236.611 132.701C236.282 132.446 235.87 132.318 235.373 132.318C234.895 132.318 234.494 132.439 234.17 132.681C233.845 132.92 233.599 133.254 233.434 133.685C233.268 134.113 233.185 134.612 233.185 135.182ZM243.77 139.159C243.034 139.159 242.399 138.997 241.866 138.672C241.335 138.344 240.926 137.886 240.638 137.3C240.353 136.71 240.21 136.024 240.21 135.241C240.21 134.459 240.353 133.77 240.638 133.173C240.926 132.573 241.327 132.106 241.841 131.771C242.358 131.433 242.961 131.264 243.65 131.264C244.048 131.264 244.441 131.33 244.829 131.463C245.216 131.596 245.569 131.811 245.888 132.109C246.206 132.404 246.459 132.795 246.648 133.283C246.837 133.77 246.932 134.37 246.932 135.082V135.58H241.045V134.565H245.738C245.738 134.134 245.652 133.75 245.48 133.412C245.311 133.074 245.069 132.807 244.754 132.612C244.443 132.416 244.075 132.318 243.65 132.318C243.183 132.318 242.779 132.434 242.437 132.666C242.099 132.895 241.839 133.193 241.657 133.561C241.474 133.929 241.383 134.323 241.383 134.744V135.42C241.383 135.997 241.483 136.486 241.682 136.887C241.884 137.285 242.164 137.588 242.522 137.797C242.88 138.002 243.296 138.105 243.77 138.105C244.078 138.105 244.356 138.062 244.605 137.976C244.857 137.886 245.074 137.754 245.256 137.578C245.439 137.399 245.579 137.177 245.679 136.912L246.812 137.23C246.693 137.615 246.492 137.953 246.211 138.244C245.929 138.533 245.581 138.758 245.167 138.92C244.752 139.08 244.287 139.159 243.77 139.159ZM249.89 128.818V139H248.716V128.818H249.89Z" fill="white" fill-opacity="0.7"/>
</g>
<rect x="249" y="107" width="150" height="2" fill="#8F8F8F"/>
<path d="M422 108C422 111.866 418.866 115 415 115C411.134 115 408 111.866 408 108C408 104.134 411.134 101 415 101C418.866 101 422 104.134 422 108Z" stroke="#64B4FA" stroke-width="2"/>
<g clip-path="url(#clip1_2029_9358)">
<path d="M398.268 139V128.818H399.501V137.906H404.234V139H398.268ZM408.231 139.179C407.747 139.179 407.308 139.088 406.914 138.906C406.519 138.72 406.206 138.453 405.974 138.105C405.742 137.754 405.626 137.33 405.626 136.832C405.626 136.395 405.712 136.04 405.885 135.768C406.057 135.493 406.287 135.278 406.576 135.122C406.864 134.966 407.182 134.85 407.53 134.774C407.882 134.695 408.234 134.632 408.589 134.585C409.053 134.526 409.429 134.481 409.718 134.451C410.009 134.418 410.221 134.363 410.354 134.287C410.49 134.211 410.558 134.078 410.558 133.889V133.849C410.558 133.359 410.424 132.978 410.155 132.706C409.89 132.434 409.487 132.298 408.947 132.298C408.387 132.298 407.948 132.421 407.63 132.666C407.311 132.911 407.088 133.173 406.958 133.452L405.845 133.054C406.044 132.59 406.309 132.229 406.64 131.97C406.975 131.708 407.34 131.526 407.734 131.423C408.132 131.317 408.523 131.264 408.907 131.264C409.153 131.264 409.434 131.294 409.752 131.354C410.074 131.41 410.384 131.528 410.682 131.707C410.984 131.886 411.234 132.156 411.433 132.517C411.632 132.878 411.731 133.362 411.731 133.969V139H410.558V137.966H410.498C410.419 138.132 410.286 138.309 410.1 138.498C409.915 138.687 409.668 138.848 409.36 138.98C409.051 139.113 408.675 139.179 408.231 139.179ZM408.41 138.125C408.874 138.125 409.265 138.034 409.583 137.852C409.905 137.669 410.147 137.434 410.309 137.146C410.475 136.857 410.558 136.554 410.558 136.236V135.162C410.508 135.222 410.399 135.276 410.23 135.326C410.064 135.372 409.872 135.414 409.653 135.45C409.438 135.483 409.227 135.513 409.022 135.54C408.819 135.563 408.655 135.583 408.529 135.599C408.225 135.639 407.94 135.704 407.674 135.793C407.413 135.879 407.2 136.01 407.038 136.186C406.879 136.358 406.799 136.594 406.799 136.892C406.799 137.3 406.95 137.608 407.252 137.817C407.557 138.022 407.943 138.125 408.41 138.125ZM414.032 139V128.818H415.205V132.577H415.305C415.391 132.444 415.51 132.275 415.662 132.07C415.818 131.861 416.04 131.675 416.329 131.513C416.62 131.347 417.015 131.264 417.512 131.264C418.155 131.264 418.722 131.425 419.212 131.746C419.703 132.068 420.086 132.524 420.361 133.114C420.636 133.704 420.773 134.4 420.773 135.202C420.773 136.01 420.636 136.711 420.361 137.305C420.086 137.895 419.704 138.352 419.217 138.677C418.73 138.998 418.168 139.159 417.532 139.159C417.041 139.159 416.648 139.078 416.354 138.915C416.059 138.75 415.831 138.562 415.672 138.354C415.513 138.142 415.391 137.966 415.305 137.827H415.165V139H414.032ZM415.185 135.182C415.185 135.759 415.27 136.267 415.439 136.708C415.608 137.146 415.855 137.489 416.18 137.737C416.504 137.982 416.902 138.105 417.373 138.105C417.863 138.105 418.273 137.976 418.601 137.717C418.932 137.455 419.181 137.104 419.346 136.663C419.515 136.219 419.6 135.725 419.6 135.182C419.6 134.645 419.517 134.161 419.351 133.73C419.189 133.296 418.942 132.953 418.611 132.701C418.282 132.446 417.87 132.318 417.373 132.318C416.895 132.318 416.494 132.439 416.17 132.681C415.845 132.92 415.599 133.254 415.434 133.685C415.268 134.113 415.185 134.612 415.185 135.182ZM425.77 139.159C425.034 139.159 424.399 138.997 423.866 138.672C423.335 138.344 422.926 137.886 422.638 137.3C422.353 136.71 422.21 136.024 422.21 135.241C422.21 134.459 422.353 133.77 422.638 133.173C422.926 132.573 423.327 132.106 423.841 131.771C424.358 131.433 424.961 131.264 425.65 131.264C426.048 131.264 426.441 131.33 426.829 131.463C427.216 131.596 427.569 131.811 427.888 132.109C428.206 132.404 428.459 132.795 428.648 133.283C428.837 133.77 428.932 134.37 428.932 135.082V135.58H423.045V134.565H427.738C427.738 134.134 427.652 133.75 427.48 133.412C427.311 133.074 427.069 132.807 426.754 132.612C426.443 132.416 426.075 132.318 425.65 132.318C425.183 132.318 424.779 132.434 424.437 132.666C424.099 132.895 423.839 133.193 423.657 133.561C423.474 133.929 423.383 134.323 423.383 134.744V135.42C423.383 135.997 423.483 136.486 423.682 136.887C423.884 137.285 424.164 137.588 424.522 137.797C424.88 138.002 425.296 138.105 425.77 138.105C426.078 138.105 426.356 138.062 426.605 137.976C426.857 137.886 427.074 137.754 427.256 137.578C427.439 137.399 427.579 137.177 427.679 136.912L428.812 137.23C428.693 137.615 428.492 137.953 428.211 138.244C427.929 138.533 427.581 138.758 427.167 138.92C426.752 139.08 426.287 139.159 425.77 139.159ZM431.89 128.818V139H430.716V128.818H431.89Z" fill="white" fill-opacity="0.7"/>
</g>
<rect x="431" y="107" width="150" height="2" fill="#8F8F8F"/>
<path d="M604 108C604 111.866 600.866 115 597 115C593.134 115 590 111.866 590 108C590 104.134 593.134 101 597 101C600.866 101 604 104.134 604 108Z" stroke="#64B4FA" stroke-width="2"/>
<g clip-path="url(#clip2_2029_9358)">
<path d="M580.268 139V128.818H581.501V137.906H586.234V139H580.268ZM590.231 139.179C589.747 139.179 589.308 139.088 588.914 138.906C588.519 138.72 588.206 138.453 587.974 138.105C587.742 137.754 587.626 137.33 587.626 136.832C587.626 136.395 587.712 136.04 587.885 135.768C588.057 135.493 588.287 135.278 588.576 135.122C588.864 134.966 589.182 134.85 589.53 134.774C589.882 134.695 590.234 134.632 590.589 134.585C591.053 134.526 591.429 134.481 591.718 134.451C592.009 134.418 592.221 134.363 592.354 134.287C592.49 134.211 592.558 134.078 592.558 133.889V133.849C592.558 133.359 592.424 132.978 592.155 132.706C591.89 132.434 591.487 132.298 590.947 132.298C590.387 132.298 589.948 132.421 589.63 132.666C589.311 132.911 589.088 133.173 588.958 133.452L587.845 133.054C588.044 132.59 588.309 132.229 588.64 131.97C588.975 131.708 589.34 131.526 589.734 131.423C590.132 131.317 590.523 131.264 590.907 131.264C591.153 131.264 591.434 131.294 591.752 131.354C592.074 131.41 592.384 131.528 592.682 131.707C592.984 131.886 593.234 132.156 593.433 132.517C593.632 132.878 593.731 133.362 593.731 133.969V139H592.558V137.966H592.498C592.419 138.132 592.286 138.309 592.1 138.498C591.915 138.687 591.668 138.848 591.36 138.98C591.051 139.113 590.675 139.179 590.231 139.179ZM590.41 138.125C590.874 138.125 591.265 138.034 591.583 137.852C591.905 137.669 592.147 137.434 592.309 137.146C592.475 136.857 592.558 136.554 592.558 136.236V135.162C592.508 135.222 592.399 135.276 592.23 135.326C592.064 135.372 591.872 135.414 591.653 135.45C591.438 135.483 591.227 135.513 591.022 135.54C590.819 135.563 590.655 135.583 590.529 135.599C590.225 135.639 589.94 135.704 589.674 135.793C589.413 135.879 589.2 136.01 589.038 136.186C588.879 136.358 588.799 136.594 588.799 136.892C588.799 137.3 588.95 137.608 589.252 137.817C589.557 138.022 589.943 138.125 590.41 138.125ZM596.032 139V128.818H597.205V132.577H597.305C597.391 132.444 597.51 132.275 597.662 132.07C597.818 131.861 598.04 131.675 598.329 131.513C598.62 131.347 599.015 131.264 599.512 131.264C600.155 131.264 600.722 131.425 601.212 131.746C601.703 132.068 602.086 132.524 602.361 133.114C602.636 133.704 602.773 134.4 602.773 135.202C602.773 136.01 602.636 136.711 602.361 137.305C602.086 137.895 601.704 138.352 601.217 138.677C600.73 138.998 600.168 139.159 599.532 139.159C599.041 139.159 598.648 139.078 598.354 138.915C598.059 138.75 597.831 138.562 597.672 138.354C597.513 138.142 597.391 137.966 597.305 137.827H597.165V139H596.032ZM597.185 135.182C597.185 135.759 597.27 136.267 597.439 136.708C597.608 137.146 597.855 137.489 598.18 137.737C598.504 137.982 598.902 138.105 599.373 138.105C599.863 138.105 600.273 137.976 600.601 137.717C600.932 137.455 601.181 137.104 601.346 136.663C601.515 136.219 601.6 135.725 601.6 135.182C601.6 134.645 601.517 134.161 601.351 133.73C601.189 133.296 600.942 132.953 600.611 132.701C600.282 132.446 599.87 132.318 599.373 132.318C598.895 132.318 598.494 132.439 598.17 132.681C597.845 132.92 597.599 133.254 597.434 133.685C597.268 134.113 597.185 134.612 597.185 135.182ZM607.77 139.159C607.034 139.159 606.399 138.997 605.866 138.672C605.335 138.344 604.926 137.886 604.638 137.3C604.353 136.71 604.21 136.024 604.21 135.241C604.21 134.459 604.353 133.77 604.638 133.173C604.926 132.573 605.327 132.106 605.841 131.771C606.358 131.433 606.961 131.264 607.65 131.264C608.048 131.264 608.441 131.33 608.829 131.463C609.216 131.596 609.569 131.811 609.888 132.109C610.206 132.404 610.459 132.795 610.648 133.283C610.837 133.77 610.932 134.37 610.932 135.082V135.58H605.045V134.565H609.738C609.738 134.134 609.652 133.75 609.48 133.412C609.311 133.074 609.069 132.807 608.754 132.612C608.443 132.416 608.075 132.318 607.65 132.318C607.183 132.318 606.779 132.434 606.437 132.666C606.099 132.895 605.839 133.193 605.657 133.561C605.474 133.929 605.383 134.323 605.383 134.744V135.42C605.383 135.997 605.483 136.486 605.682 136.887C605.884 137.285 606.164 137.588 606.522 137.797C606.88 138.002 607.296 138.105 607.77 138.105C608.078 138.105 608.356 138.062 608.605 137.976C608.857 137.886 609.074 137.754 609.256 137.578C609.439 137.399 609.579 137.177 609.679 136.912L610.812 137.23C610.693 137.615 610.492 137.953 610.211 138.244C609.929 138.533 609.581 138.758 609.167 138.92C608.752 139.08 608.287 139.159 607.77 139.159ZM613.89 128.818V139H612.716V128.818H613.89Z" fill="white" fill-opacity="0.7"/>
</g>
<rect x="613" y="107" width="150" height="2" fill="#8F8F8F"/>
<path fill-rule="evenodd" clip-rule="evenodd" d="M779 116C783.418 116 787 112.418 787 108C787 103.582 783.418 100 779 100C774.582 100 771 103.582 771 108C771 112.418 774.582 116 779 116Z" fill="#3492EB"/>
<g clip-path="url(#clip3_2029_9358)">
<path d="M721.849 136.116H723.627C723.711 136.685 723.981 137.124 724.439 137.432C724.859 137.712 725.395 137.852 726.049 137.852C726.842 137.852 727.439 137.689 727.841 137.362C728.158 137.091 728.317 136.746 728.317 136.326C728.317 135.822 728.074 135.435 727.589 135.164C727.197 134.931 726.469 134.674 725.405 134.394C724.229 134.086 723.398 133.703 722.913 133.246C722.437 132.789 722.199 132.182 722.199 131.426C722.199 130.549 722.567 129.867 723.305 129.382C723.977 128.934 724.873 128.71 725.993 128.71C727.187 128.71 728.144 128.985 728.863 129.536C729.488 130.021 729.861 130.665 729.983 131.468H728.219C728.153 130.992 727.901 130.628 727.463 130.376C727.071 130.161 726.571 130.054 725.965 130.054C725.255 130.054 724.733 130.185 724.397 130.446C724.135 130.651 724.005 130.927 724.005 131.272C724.005 131.701 724.187 132.028 724.551 132.252C724.877 132.457 725.498 132.677 726.413 132.91C727.785 133.274 728.751 133.708 729.311 134.212C729.852 134.707 730.123 135.365 730.123 136.186C730.123 137.101 729.735 137.838 728.961 138.398C728.223 138.939 727.257 139.21 726.063 139.21C724.821 139.21 723.813 138.893 723.039 138.258C722.376 137.707 721.979 136.993 721.849 136.116ZM735.151 137.768V139.042C734.759 139.154 734.385 139.21 734.031 139.21C733.312 139.21 732.766 138.995 732.393 138.566C732.075 138.202 731.917 137.712 731.917 137.096V133.008H730.825V131.72H731.917L732.029 129.97H733.597V131.72H735.137V133.008H733.597V137.152C733.597 137.637 733.844 137.88 734.339 137.88C734.553 137.88 734.824 137.843 735.151 137.768ZM741.17 136.9H742.934C742.738 137.647 742.332 138.225 741.716 138.636C741.128 139.019 740.405 139.21 739.546 139.21C738.361 139.21 737.437 138.837 736.774 138.09C736.167 137.409 735.864 136.499 735.864 135.36C735.864 134.053 736.242 133.055 736.998 132.364C737.633 131.795 738.459 131.51 739.476 131.51C740.661 131.51 741.557 131.897 742.164 132.672C742.733 133.391 743.018 134.417 743.018 135.752H737.572C737.637 136.536 737.88 137.11 738.3 137.474C738.636 137.773 739.075 137.922 739.616 137.922C739.999 137.922 740.33 137.829 740.61 137.642C740.89 137.455 741.077 137.208 741.17 136.9ZM741.296 134.604C741.259 133.923 741.053 133.423 740.68 133.106C740.372 132.835 739.971 132.7 739.476 132.7C738.935 132.7 738.501 132.877 738.174 133.232C737.875 133.549 737.684 134.007 737.6 134.604H741.296ZM744.459 131.72H745.789L746.083 132.616C746.671 131.879 747.469 131.51 748.477 131.51C749.522 131.51 750.334 131.879 750.913 132.616C751.435 133.288 751.697 134.175 751.697 135.276C751.697 136.592 751.337 137.605 750.619 138.314C750.021 138.911 749.261 139.21 748.337 139.21C747.403 139.21 746.671 138.869 746.139 138.188V141.52H744.459V131.72ZM749.975 135.29C749.975 134.422 749.769 133.773 749.359 133.344C749.032 133.008 748.598 132.84 748.057 132.84C747.431 132.84 746.937 133.069 746.573 133.526C746.237 133.965 746.069 134.548 746.069 135.276C746.069 136.191 746.274 136.872 746.685 137.32C747.03 137.693 747.478 137.88 748.029 137.88C748.673 137.88 749.163 137.642 749.499 137.166C749.816 136.718 749.975 136.093 749.975 135.29ZM758.785 128.92V139H757.105V128.92H758.785ZM762.104 133.778H760.354C760.475 133.022 760.853 132.443 761.488 132.042C762.057 131.687 762.771 131.51 763.63 131.51C764.666 131.51 765.459 131.776 766.01 132.308C766.486 132.765 766.724 133.358 766.724 134.086V139H765.38L765.17 138.104C764.6 138.841 763.793 139.21 762.748 139.21C761.917 139.21 761.273 138.986 760.816 138.538C760.414 138.146 760.214 137.647 760.214 137.04C760.214 136.359 760.461 135.827 760.956 135.444C761.404 135.089 762.099 134.833 763.042 134.674L765.044 134.338V133.988C765.044 133.549 764.899 133.223 764.61 133.008C764.358 132.812 764.012 132.714 763.574 132.714C762.706 132.714 762.216 133.069 762.104 133.778ZM765.044 135.444L763.462 135.724C762.92 135.827 762.533 135.971 762.3 136.158C762.066 136.335 761.95 136.587 761.95 136.914C761.95 137.595 762.365 137.936 763.196 137.936C763.737 137.936 764.194 137.759 764.568 137.404C764.885 137.096 765.044 136.737 765.044 136.326V135.444ZM768.439 128.92H770.119V132.602C770.698 131.874 771.477 131.51 772.457 131.51C773.512 131.51 774.324 131.869 774.893 132.588C775.416 133.241 775.677 134.119 775.677 135.22C775.677 136.564 775.318 137.595 774.599 138.314C774.011 138.911 773.25 139.21 772.317 139.21C771.356 139.21 770.6 138.846 770.049 138.118L769.783 139H768.439V128.92ZM773.955 135.29C773.955 134.413 773.754 133.764 773.353 133.344C773.026 133.008 772.588 132.84 772.037 132.84C771.412 132.84 770.917 133.069 770.553 133.526C770.217 133.965 770.049 134.548 770.049 135.276C770.049 136.191 770.254 136.872 770.665 137.32C771.01 137.693 771.458 137.88 772.009 137.88C772.653 137.88 773.143 137.642 773.479 137.166C773.796 136.718 773.955 136.093 773.955 135.29ZM782.049 136.9H783.813C783.617 137.647 783.211 138.225 782.595 138.636C782.007 139.019 781.284 139.21 780.425 139.21C779.24 139.21 778.316 138.837 777.653 138.09C777.046 137.409 776.743 136.499 776.743 135.36C776.743 134.053 777.121 133.055 777.877 132.364C778.512 131.795 779.338 131.51 780.355 131.51C781.54 131.51 782.436 131.897 783.043 132.672C783.612 133.391 783.897 134.417 783.897 135.752H778.451C778.516 136.536 778.759 137.11 779.179 137.474C779.515 137.773 779.954 137.922 780.495 137.922C780.878 137.922 781.209 137.829 781.489 137.642C781.769 137.455 781.956 137.208 782.049 136.9ZM782.175 134.604C782.138 133.923 781.932 133.423 781.559 133.106C781.251 132.835 780.85 132.7 780.355 132.7C779.814 132.7 779.38 132.877 779.053 133.232C778.754 133.549 778.563 134.007 778.479 134.604H782.175ZM787.017 128.92V139H785.337V128.92H787.017ZM794.27 135.178H789.118V133.778H794.27V135.178ZM804.975 139H803.029L802.147 136.55H797.835L796.953 139H795.119L799.039 128.92H801.055L804.975 139ZM800.019 130.544L798.311 135.234H801.685L800.019 130.544ZM810.633 136.634H812.425C812.285 137.446 811.897 138.085 811.263 138.552C810.665 138.991 809.928 139.21 809.051 139.21C807.893 139.21 806.997 138.841 806.363 138.104C805.793 137.441 805.509 136.55 805.509 135.43C805.509 134.123 805.873 133.12 806.601 132.42C807.235 131.813 808.057 131.51 809.065 131.51C810.007 131.51 810.787 131.753 811.403 132.238C811.944 132.667 812.275 133.223 812.397 133.904H810.577C810.493 133.559 810.32 133.288 810.059 133.092C809.797 132.887 809.48 132.784 809.107 132.784C808.5 132.784 808.038 133.027 807.721 133.512C807.422 133.969 807.273 134.623 807.273 135.472C807.273 136.331 807.473 136.979 807.875 137.418C808.192 137.763 808.593 137.936 809.079 137.936C809.489 137.936 809.825 137.824 810.087 137.6C810.357 137.376 810.539 137.054 810.633 136.634ZM817.442 137.768V139.042C817.05 139.154 816.676 139.21 816.322 139.21C815.603 139.21 815.057 138.995 814.684 138.566C814.366 138.202 814.208 137.712 814.208 137.096V133.008H813.116V131.72H814.208L814.32 129.97H815.888V131.72H817.428V133.008H815.888V137.152C815.888 137.637 816.135 137.88 816.63 137.88C816.844 137.88 817.115 137.843 817.442 137.768ZM820.351 130.614H818.503V128.92H820.351V130.614ZM820.267 139H818.587V131.72H820.267V139ZM826.792 131.72H828.542L825.994 139H823.796L821.276 131.72H823.11L824.958 137.698L826.792 131.72ZM834.221 136.9H835.985C835.789 137.647 835.383 138.225 834.767 138.636C834.179 139.019 833.455 139.21 832.597 139.21C831.411 139.21 830.487 138.837 829.825 138.09C829.218 137.409 828.915 136.499 828.915 135.36C828.915 134.053 829.293 133.055 830.049 132.364C830.683 131.795 831.509 131.51 832.527 131.51C833.712 131.51 834.608 131.897 835.215 132.672C835.784 133.391 836.069 134.417 836.069 135.752H830.623C830.688 136.536 830.931 137.11 831.351 137.474C831.687 137.773 832.125 137.922 832.667 137.922C833.049 137.922 833.381 137.829 833.661 137.642C833.941 137.455 834.127 137.208 834.221 136.9ZM834.347 134.604C834.309 133.923 834.104 133.423 833.731 133.106C833.423 132.835 833.021 132.7 832.527 132.7C831.985 132.7 831.551 132.877 831.225 133.232C830.926 133.549 830.735 134.007 830.651 134.604H834.347Z" fill="white" fill-opacity="0.95"/>
</g>
<rect x="795" y="107" width="150" height="2" fill="#8F8F8F"/>
<path d="M968 108C968 111.866 964.866 115 961 115C957.134 115 954 111.866 954 108C954 104.134 957.134 101 961 101C964.866 101 968 104.134 968 108Z" stroke="#64B4FA" stroke-width="2"/>
<g clip-path="url(#clip4_2029_9358)">
<path d="M944.268 139V128.818H945.501V137.906H950.234V139H944.268ZM954.231 139.179C953.747 139.179 953.308 139.088 952.914 138.906C952.519 138.72 952.206 138.453 951.974 138.105C951.742 137.754 951.626 137.33 951.626 136.832C951.626 136.395 951.712 136.04 951.885 135.768C952.057 135.493 952.287 135.278 952.576 135.122C952.864 134.966 953.182 134.85 953.53 134.774C953.882 134.695 954.234 134.632 954.589 134.585C955.053 134.526 955.429 134.481 955.718 134.451C956.009 134.418 956.221 134.363 956.354 134.287C956.49 134.211 956.558 134.078 956.558 133.889V133.849C956.558 133.359 956.424 132.978 956.155 132.706C955.89 132.434 955.487 132.298 954.947 132.298C954.387 132.298 953.948 132.421 953.63 132.666C953.311 132.911 953.088 133.173 952.958 133.452L951.845 133.054C952.044 132.59 952.309 132.229 952.64 131.97C952.975 131.708 953.34 131.526 953.734 131.423C954.132 131.317 954.523 131.264 954.907 131.264C955.153 131.264 955.434 131.294 955.752 131.354C956.074 131.41 956.384 131.528 956.682 131.707C956.984 131.886 957.234 132.156 957.433 132.517C957.632 132.878 957.731 133.362 957.731 133.969V139H956.558V137.966H956.498C956.419 138.132 956.286 138.309 956.1 138.498C955.915 138.687 955.668 138.848 955.36 138.98C955.051 139.113 954.675 139.179 954.231 139.179ZM954.41 138.125C954.874 138.125 955.265 138.034 955.583 137.852C955.905 137.669 956.147 137.434 956.309 137.146C956.475 136.857 956.558 136.554 956.558 136.236V135.162C956.508 135.222 956.399 135.276 956.23 135.326C956.064 135.372 955.872 135.414 955.653 135.45C955.438 135.483 955.227 135.513 955.022 135.54C954.819 135.563 954.655 135.583 954.529 135.599C954.225 135.639 953.94 135.704 953.674 135.793C953.413 135.879 953.2 136.01 953.038 136.186C952.879 136.358 952.799 136.594 952.799 136.892C952.799 137.3 952.95 137.608 953.252 137.817C953.557 138.022 953.943 138.125 954.41 138.125ZM960.032 139V128.818H961.205V132.577H961.305C961.391 132.444 961.51 132.275 961.662 132.07C961.818 131.861 962.04 131.675 962.329 131.513C962.62 131.347 963.015 131.264 963.512 131.264C964.155 131.264 964.722 131.425 965.212 131.746C965.703 132.068 966.086 132.524 966.361 133.114C966.636 133.704 966.773 134.4 966.773 135.202C966.773 136.01 966.636 136.711 966.361 137.305C966.086 137.895 965.704 138.352 965.217 138.677C964.73 138.998 964.168 139.159 963.532 139.159C963.041 139.159 962.648 139.078 962.354 138.915C962.059 138.75 961.831 138.562 961.672 138.354C961.513 138.142 961.391 137.966 961.305 137.827H961.165V139H960.032ZM961.185 135.182C961.185 135.759 961.27 136.267 961.439 136.708C961.608 137.146 961.855 137.489 962.18 137.737C962.504 137.982 962.902 138.105 963.373 138.105C963.863 138.105 964.273 137.976 964.601 137.717C964.932 137.455 965.181 137.104 965.346 136.663C965.515 136.219 965.6 135.725 965.6 135.182C965.6 134.645 965.517 134.161 965.351 133.73C965.189 133.296 964.942 132.953 964.611 132.701C964.282 132.446 963.87 132.318 963.373 132.318C962.895 132.318 962.494 132.439 962.17 132.681C961.845 132.92 961.599 133.254 961.434 133.685C961.268 134.113 961.185 134.612 961.185 135.182ZM971.77 139.159C971.034 139.159 970.399 138.997 969.866 138.672C969.335 138.344 968.926 137.886 968.638 137.3C968.353 136.71 968.21 136.024 968.21 135.241C968.21 134.459 968.353 133.77 968.638 133.173C968.926 132.573 969.327 132.106 969.841 131.771C970.358 131.433 970.961 131.264 971.65 131.264C972.048 131.264 972.441 131.33 972.829 131.463C973.216 131.596 973.569 131.811 973.888 132.109C974.206 132.404 974.459 132.795 974.648 133.283C974.837 133.77 974.932 134.37 974.932 135.082V135.58H969.045V134.565H973.738C973.738 134.134 973.652 133.75 973.48 133.412C973.311 133.074 973.069 132.807 972.754 132.612C972.443 132.416 972.075 132.318 971.65 132.318C971.183 132.318 970.779 132.434 970.437 132.666C970.099 132.895 969.839 133.193 969.657 133.561C969.474 133.929 969.383 134.323 969.383 134.744V135.42C969.383 135.997 969.483 136.486 969.682 136.887C969.884 137.285 970.164 137.588 970.522 137.797C970.88 138.002 971.296 138.105 971.77 138.105C972.078 138.105 972.356 138.062 972.605 137.976C972.857 137.886 973.074 137.754 973.256 137.578C973.439 137.399 973.579 137.177 973.679 136.912L974.812 137.23C974.693 137.615 974.492 137.953 974.211 138.244C973.929 138.533 973.581 138.758 973.167 138.92C972.752 139.08 972.287 139.159 971.77 139.159ZM977.89 128.818V139H976.716V128.818H977.89Z" fill="white" fill-opacity="0.7"/>
</g>
<rect x="236" y="185" width="32" height="32" rx="16" fill="#DA0087"/>
<path d="M248.325 206.5V204.949L251.95 201.593C252.258 201.295 252.516 201.026 252.725 200.788C252.937 200.549 253.098 200.315 253.207 200.087C253.317 199.855 253.371 199.604 253.371 199.336C253.371 199.038 253.304 198.781 253.168 198.565C253.032 198.347 252.846 198.179 252.611 198.063C252.375 197.944 252.109 197.884 251.81 197.884C251.499 197.884 251.227 197.947 250.995 198.073C250.763 198.199 250.584 198.38 250.458 198.615C250.332 198.85 250.269 199.13 250.269 199.455H248.226C248.226 198.789 248.377 198.211 248.678 197.72C248.98 197.23 249.402 196.85 249.946 196.582C250.49 196.313 251.116 196.179 251.825 196.179C252.554 196.179 253.189 196.308 253.729 196.567C254.273 196.822 254.696 197.177 254.997 197.631C255.299 198.085 255.45 198.605 255.45 199.192C255.45 199.576 255.373 199.956 255.221 200.33C255.072 200.705 254.805 201.121 254.42 201.578C254.036 202.032 253.494 202.577 252.795 203.214L251.308 204.67V204.74H255.584V206.5H248.325Z" fill="white" fill-opacity="0.95"/>
<path d="M291 201C291 203.761 288.761 206 286 206C283.239 206 281 203.761 281 201C281 198.239 283.239 196 286 196C288.761 196 291 198.239 291 201Z" stroke="#3492EB" stroke-width="2"/>
<g clip-path="url(#clip5_2029_9358)">
<path d="M306.672 198.993C306.619 198.522 306.4 198.158 306.016 197.899C305.631 197.637 305.147 197.506 304.564 197.506C304.146 197.506 303.785 197.573 303.48 197.705C303.175 197.835 302.938 198.013 302.769 198.242C302.603 198.468 302.521 198.724 302.521 199.013C302.521 199.255 302.577 199.464 302.69 199.639C302.806 199.815 302.956 199.962 303.142 200.082C303.331 200.198 303.533 200.295 303.749 200.375C303.964 200.451 304.171 200.514 304.37 200.564L305.364 200.822C305.689 200.902 306.022 201.01 306.364 201.146C306.705 201.281 307.022 201.46 307.313 201.683C307.605 201.905 307.84 202.18 308.019 202.508C308.201 202.836 308.293 203.229 308.293 203.686C308.293 204.263 308.143 204.775 307.845 205.222C307.55 205.67 307.121 206.023 306.558 206.281C305.997 206.54 305.32 206.669 304.524 206.669C303.762 206.669 303.102 206.548 302.545 206.306C301.989 206.064 301.553 205.721 301.238 205.277C300.923 204.83 300.749 204.299 300.716 203.686H302.257C302.287 204.054 302.406 204.361 302.615 204.606C302.827 204.848 303.097 205.028 303.425 205.148C303.757 205.264 304.12 205.322 304.514 205.322C304.948 205.322 305.335 205.254 305.673 205.118C306.014 204.979 306.282 204.786 306.478 204.541C306.674 204.293 306.771 204.003 306.771 203.671C306.771 203.37 306.685 203.123 306.513 202.93C306.344 202.738 306.113 202.579 305.822 202.453C305.533 202.327 305.207 202.216 304.842 202.12L303.639 201.792C302.824 201.57 302.178 201.243 301.7 200.812C301.226 200.382 300.989 199.812 300.989 199.102C300.989 198.516 301.148 198.004 301.467 197.566C301.785 197.129 302.216 196.789 302.759 196.547C303.303 196.302 303.916 196.179 304.599 196.179C305.288 196.179 305.896 196.3 306.423 196.542C306.954 196.784 307.371 197.117 307.676 197.541C307.981 197.962 308.14 198.446 308.153 198.993H306.672ZM313.574 198.864V200.057H309.403V198.864H313.574ZM310.521 197.034H312.008V204.258C312.008 204.546 312.051 204.763 312.137 204.909C312.223 205.052 312.334 205.149 312.47 205.202C312.609 205.252 312.76 205.277 312.922 205.277C313.042 205.277 313.146 205.269 313.236 205.252C313.325 205.236 313.395 205.222 313.444 205.212L313.713 206.44C313.627 206.473 313.504 206.507 313.345 206.54C313.186 206.576 312.987 206.596 312.748 206.599C312.357 206.606 311.993 206.536 311.655 206.391C311.317 206.245 311.043 206.019 310.834 205.714C310.626 205.41 310.521 205.027 310.521 204.566V197.034ZM318.427 206.654C317.675 206.654 317.027 206.493 316.483 206.172C315.943 205.847 315.525 205.391 315.23 204.805C314.939 204.215 314.793 203.524 314.793 202.732C314.793 201.949 314.939 201.26 315.23 200.663C315.525 200.067 315.936 199.601 316.463 199.266C316.994 198.932 317.614 198.764 318.323 198.764C318.754 198.764 319.171 198.835 319.576 198.978C319.98 199.121 320.343 199.344 320.664 199.649C320.986 199.954 321.239 200.35 321.425 200.837C321.611 201.321 321.703 201.91 321.703 202.602V203.129H315.633V202.016H320.247C320.247 201.625 320.167 201.278 320.008 200.977C319.849 200.672 319.625 200.431 319.337 200.256C319.052 200.08 318.717 199.992 318.333 199.992C317.915 199.992 317.551 200.095 317.239 200.3C316.931 200.503 316.692 200.768 316.523 201.096C316.357 201.421 316.275 201.774 316.275 202.155V203.025C316.275 203.535 316.364 203.969 316.543 204.327C316.725 204.685 316.979 204.959 317.304 205.148C317.628 205.333 318.008 205.426 318.442 205.426C318.724 205.426 318.981 205.386 319.213 205.307C319.445 205.224 319.645 205.101 319.814 204.939C319.983 204.777 320.113 204.576 320.202 204.337L321.609 204.591C321.496 205.005 321.294 205.368 321.002 205.68C320.714 205.988 320.351 206.228 319.914 206.401C319.48 206.57 318.984 206.654 318.427 206.654ZM323.353 209.364V198.864H324.805V200.102H324.929C325.015 199.942 325.139 199.759 325.302 199.55C325.464 199.341 325.689 199.159 325.978 199.003C326.266 198.844 326.647 198.764 327.121 198.764C327.738 198.764 328.288 198.92 328.772 199.232C329.256 199.543 329.635 199.992 329.91 200.579C330.189 201.165 330.328 201.871 330.328 202.697C330.328 203.522 330.19 204.23 329.915 204.82C329.64 205.406 329.262 205.859 328.782 206.177C328.301 206.492 327.753 206.649 327.136 206.649C326.672 206.649 326.293 206.571 325.998 206.415C325.706 206.26 325.477 206.077 325.312 205.869C325.146 205.66 325.018 205.474 324.929 205.312H324.839V209.364H323.353ZM324.809 202.682C324.809 203.219 324.887 203.689 325.043 204.094C325.199 204.498 325.424 204.815 325.719 205.043C326.014 205.269 326.376 205.381 326.803 205.381C327.247 205.381 327.618 205.264 327.917 205.028C328.215 204.79 328.44 204.467 328.593 204.059C328.749 203.651 328.827 203.192 328.827 202.682C328.827 202.178 328.75 201.726 328.598 201.325C328.449 200.924 328.223 200.607 327.922 200.375C327.623 200.143 327.251 200.027 326.803 200.027C326.372 200.027 326.008 200.138 325.709 200.36C325.414 200.582 325.191 200.892 325.038 201.29C324.886 201.687 324.809 202.152 324.809 202.682ZM337.185 196.318V206.5H335.699V196.318H337.185ZM341.407 206.669C340.923 206.669 340.486 206.58 340.095 206.401C339.704 206.218 339.394 205.955 339.165 205.61C338.94 205.265 338.827 204.843 338.827 204.342C338.827 203.911 338.91 203.557 339.075 203.278C339.241 203 339.465 202.78 339.747 202.617C340.028 202.455 340.343 202.332 340.691 202.249C341.039 202.166 341.394 202.103 341.755 202.06C342.213 202.007 342.584 201.964 342.869 201.931C343.154 201.895 343.361 201.837 343.49 201.757C343.619 201.678 343.684 201.548 343.684 201.369V201.335C343.684 200.9 343.561 200.564 343.316 200.325C343.074 200.087 342.713 199.967 342.232 199.967C341.732 199.967 341.338 200.078 341.049 200.3C340.764 200.519 340.567 200.763 340.458 201.031L339.061 200.713C339.226 200.249 339.468 199.875 339.786 199.589C340.108 199.301 340.477 199.092 340.895 198.963C341.313 198.83 341.752 198.764 342.213 198.764C342.517 198.764 342.841 198.801 343.182 198.874C343.527 198.943 343.848 199.072 344.146 199.261C344.448 199.45 344.695 199.72 344.887 200.072C345.079 200.42 345.176 200.872 345.176 201.429V206.5H343.724V205.456H343.664C343.568 205.648 343.424 205.837 343.232 206.023C343.039 206.208 342.793 206.362 342.491 206.485C342.189 206.608 341.828 206.669 341.407 206.669ZM341.73 205.476C342.141 205.476 342.493 205.395 342.784 205.232C343.079 205.07 343.303 204.858 343.455 204.596C343.611 204.331 343.689 204.047 343.689 203.746V202.761C343.636 202.814 343.533 202.864 343.381 202.911C343.232 202.954 343.061 202.992 342.869 203.025C342.677 203.055 342.489 203.083 342.307 203.109C342.125 203.133 341.972 203.152 341.85 203.169C341.561 203.205 341.298 203.267 341.059 203.353C340.824 203.439 340.635 203.563 340.492 203.726C340.353 203.885 340.284 204.097 340.284 204.362C340.284 204.73 340.419 205.009 340.691 205.197C340.963 205.383 341.309 205.476 341.73 205.476ZM347.275 206.5V196.318H348.761V200.102H348.851C348.937 199.942 349.061 199.759 349.224 199.55C349.386 199.341 349.612 199.159 349.9 199.003C350.188 198.844 350.569 198.764 351.043 198.764C351.66 198.764 352.21 198.92 352.694 199.232C353.178 199.543 353.557 199.992 353.832 200.579C354.111 201.165 354.25 201.871 354.25 202.697C354.25 203.522 354.112 204.23 353.837 204.82C353.562 205.406 353.184 205.859 352.704 206.177C352.223 206.492 351.675 206.649 351.058 206.649C350.594 206.649 350.215 206.571 349.92 206.415C349.628 206.26 349.399 206.077 349.234 205.869C349.068 205.66 348.94 205.474 348.851 205.312H348.727V206.5H347.275ZM348.732 202.682C348.732 203.219 348.809 203.689 348.965 204.094C349.121 204.498 349.346 204.815 349.641 205.043C349.936 205.269 350.298 205.381 350.725 205.381C351.169 205.381 351.54 205.264 351.839 205.028C352.137 204.79 352.362 204.467 352.515 204.059C352.671 203.651 352.749 203.192 352.749 202.682C352.749 202.178 352.672 201.726 352.52 201.325C352.371 200.924 352.145 200.607 351.844 200.375C351.545 200.143 351.173 200.027 350.725 200.027C350.294 200.027 349.93 200.138 349.631 200.36C349.336 200.582 349.113 200.892 348.96 201.29C348.808 201.687 348.732 202.152 348.732 202.682ZM359.21 206.654C358.458 206.654 357.81 206.493 357.267 206.172C356.726 205.847 356.309 205.391 356.014 204.805C355.722 204.215 355.576 203.524 355.576 202.732C355.576 201.949 355.722 201.26 356.014 200.663C356.309 200.067 356.72 199.601 357.247 199.266C357.777 198.932 358.397 198.764 359.106 198.764C359.537 198.764 359.954 198.835 360.359 198.978C360.763 199.121 361.126 199.344 361.448 199.649C361.769 199.954 362.023 200.35 362.208 200.837C362.394 201.321 362.487 201.91 362.487 202.602V203.129H356.416V202.016H361.03C361.03 201.625 360.95 201.278 360.791 200.977C360.632 200.672 360.409 200.431 360.12 200.256C359.835 200.08 359.5 199.992 359.116 199.992C358.698 199.992 358.334 200.095 358.022 200.3C357.714 200.503 357.475 200.768 357.306 201.096C357.141 201.421 357.058 201.774 357.058 202.155V203.025C357.058 203.535 357.147 203.969 357.326 204.327C357.508 204.685 357.762 204.959 358.087 205.148C358.412 205.333 358.791 205.426 359.225 205.426C359.507 205.426 359.764 205.386 359.996 205.307C360.228 205.224 360.428 205.101 360.597 204.939C360.767 204.777 360.896 204.576 360.985 204.337L362.392 204.591C362.28 205.005 362.077 205.368 361.786 205.68C361.497 205.988 361.134 206.228 360.697 206.401C360.263 206.57 359.767 206.654 359.21 206.654ZM365.623 196.318V206.5H364.136V196.318H365.623ZM372.122 201.553V202.841H367.607V201.553H372.122ZM376.325 206.669C375.841 206.669 375.404 206.58 375.013 206.401C374.622 206.218 374.312 205.955 374.083 205.61C373.858 205.265 373.745 204.843 373.745 204.342C373.745 203.911 373.828 203.557 373.993 203.278C374.159 203 374.383 202.78 374.665 202.617C374.946 202.455 375.261 202.332 375.609 202.249C375.957 202.166 376.312 202.103 376.673 202.06C377.131 202.007 377.502 201.964 377.787 201.931C378.072 201.895 378.279 201.837 378.408 201.757C378.537 201.678 378.602 201.548 378.602 201.369V201.335C378.602 200.9 378.479 200.564 378.234 200.325C377.992 200.087 377.631 199.967 377.15 199.967C376.65 199.967 376.256 200.078 375.967 200.3C375.682 200.519 375.485 200.763 375.376 201.031L373.979 200.713C374.144 200.249 374.386 199.875 374.704 199.589C375.026 199.301 375.395 199.092 375.813 198.963C376.231 198.83 376.67 198.764 377.131 198.764C377.435 198.764 377.759 198.801 378.1 198.874C378.445 198.943 378.766 199.072 379.064 199.261C379.366 199.45 379.613 199.72 379.805 200.072C379.997 200.42 380.094 200.872 380.094 201.429V206.5H378.642V205.456H378.582C378.486 205.648 378.342 205.837 378.15 206.023C377.957 206.208 377.711 206.362 377.409 206.485C377.107 206.608 376.746 206.669 376.325 206.669ZM376.648 205.476C377.059 205.476 377.411 205.395 377.702 205.232C377.997 205.07 378.221 204.858 378.373 204.596C378.529 204.331 378.607 204.047 378.607 203.746V202.761C378.554 202.814 378.451 202.864 378.299 202.911C378.15 202.954 377.979 202.992 377.787 203.025C377.595 203.055 377.407 203.083 377.225 203.109C377.043 203.133 376.89 203.152 376.768 203.169C376.479 203.205 376.216 203.267 375.977 203.353C375.742 203.439 375.553 203.563 375.41 203.726C375.271 203.885 375.202 204.097 375.202 204.362C375.202 204.73 375.337 205.009 375.609 205.197C375.881 205.383 376.227 205.476 376.648 205.476ZM385.29 206.654C384.551 206.654 383.915 206.487 383.381 206.152C382.851 205.814 382.443 205.348 382.158 204.755C381.873 204.162 381.73 203.482 381.73 202.717C381.73 201.941 381.876 201.257 382.168 200.663C382.46 200.067 382.871 199.601 383.401 199.266C383.931 198.932 384.556 198.764 385.275 198.764C385.855 198.764 386.372 198.872 386.826 199.087C387.28 199.299 387.647 199.598 387.925 199.982C388.207 200.367 388.374 200.816 388.427 201.33H386.98C386.901 200.972 386.719 200.663 386.434 200.405C386.152 200.146 385.774 200.017 385.3 200.017C384.886 200.017 384.523 200.126 384.211 200.345C383.903 200.561 383.663 200.869 383.49 201.27C383.318 201.668 383.232 202.138 383.232 202.682C383.232 203.239 383.316 203.719 383.485 204.124C383.654 204.528 383.893 204.841 384.201 205.063C384.513 205.285 384.879 205.396 385.3 205.396C385.582 205.396 385.837 205.345 386.066 205.242C386.298 205.136 386.492 204.985 386.647 204.79C386.806 204.594 386.917 204.359 386.98 204.084H388.427C388.374 204.578 388.213 205.018 387.945 205.406C387.676 205.794 387.317 206.099 386.866 206.321C386.419 206.543 385.893 206.654 385.29 206.654ZM393.581 198.864V200.057H389.41V198.864H393.581ZM390.529 197.034H392.015V204.258C392.015 204.546 392.059 204.763 392.145 204.909C392.231 205.052 392.342 205.149 392.478 205.202C392.617 205.252 392.768 205.277 392.93 205.277C393.05 205.277 393.154 205.269 393.243 205.252C393.333 205.236 393.403 205.222 393.452 205.212L393.721 206.44C393.635 206.473 393.512 206.507 393.353 206.54C393.194 206.576 392.995 206.596 392.756 206.599C392.365 206.606 392.001 206.536 391.662 206.391C391.324 206.245 391.051 206.019 390.842 205.714C390.633 205.41 390.529 205.027 390.529 204.566V197.034ZM395.226 206.5V198.864H396.712V206.5H395.226ZM395.977 197.685C395.718 197.685 395.496 197.599 395.31 197.427C395.128 197.251 395.037 197.042 395.037 196.8C395.037 196.555 395.128 196.346 395.31 196.174C395.496 195.998 395.718 195.911 395.977 195.911C396.235 195.911 396.455 195.998 396.638 196.174C396.823 196.346 396.916 196.555 396.916 196.8C396.916 197.042 396.823 197.251 396.638 197.427C396.455 197.599 396.235 197.685 395.977 197.685ZM405.245 198.864L402.476 206.5H400.885L398.111 198.864H399.706L401.64 204.74H401.72L403.649 198.864H405.245ZM409.673 206.654C408.921 206.654 408.273 206.493 407.729 206.172C407.189 205.847 406.772 205.391 406.477 204.805C406.185 204.215 406.039 203.524 406.039 202.732C406.039 201.949 406.185 201.26 406.477 200.663C406.772 200.067 407.183 199.601 407.71 199.266C408.24 198.932 408.86 198.764 409.569 198.764C410 198.764 410.417 198.835 410.822 198.978C411.226 199.121 411.589 199.344 411.911 199.649C412.232 199.954 412.486 200.35 412.671 200.837C412.857 201.321 412.95 201.91 412.95 202.602V203.129H406.879V202.016H411.493C411.493 201.625 411.413 201.278 411.254 200.977C411.095 200.672 410.871 200.431 410.583 200.256C410.298 200.08 409.963 199.992 409.579 199.992C409.161 199.992 408.797 200.095 408.485 200.3C408.177 200.503 407.938 200.768 407.769 201.096C407.603 201.421 407.521 201.774 407.521 202.155V203.025C407.521 203.535 407.61 203.969 407.789 204.327C407.971 204.685 408.225 204.959 408.55 205.148C408.875 205.333 409.254 205.426 409.688 205.426C409.97 205.426 410.227 205.386 410.459 205.307C410.691 205.224 410.891 205.101 411.06 204.939C411.229 204.777 411.359 204.576 411.448 204.337L412.855 204.591C412.742 205.005 412.54 205.368 412.249 205.68C411.96 205.988 411.597 206.228 411.16 206.401C410.726 206.57 410.23 206.654 409.673 206.654Z" fill="white" fill-opacity="0.95"/>
</g>
<rect x="422" y="200" width="24" height="2" fill="#8F8F8F"/>
<path d="M469 201C469 204.866 465.866 208 462 208C458.134 208 455 204.866 455 201C455 197.134 458.134 194 462 194C465.866 194 469 197.134 469 201Z" stroke="#64B4FA" stroke-width="2"/>
<g clip-path="url(#clip6_2029_9358)">
<path d="M479.268 206V195.818H480.501V204.906H485.234V206H479.268ZM489.231 206.179C488.747 206.179 488.308 206.088 487.914 205.906C487.519 205.72 487.206 205.453 486.974 205.105C486.742 204.754 486.626 204.33 486.626 203.832C486.626 203.395 486.712 203.04 486.885 202.768C487.057 202.493 487.287 202.278 487.576 202.122C487.864 201.966 488.182 201.85 488.53 201.774C488.882 201.695 489.234 201.632 489.589 201.585C490.053 201.526 490.429 201.481 490.718 201.451C491.009 201.418 491.221 201.363 491.354 201.287C491.49 201.211 491.558 201.078 491.558 200.889V200.849C491.558 200.359 491.424 199.978 491.155 199.706C490.89 199.434 490.487 199.298 489.947 199.298C489.387 199.298 488.948 199.421 488.63 199.666C488.311 199.911 488.088 200.173 487.958 200.452L486.845 200.054C487.044 199.59 487.309 199.229 487.64 198.97C487.975 198.708 488.34 198.526 488.734 198.423C489.132 198.317 489.523 198.264 489.907 198.264C490.153 198.264 490.434 198.294 490.752 198.354C491.074 198.41 491.384 198.528 491.682 198.707C491.984 198.886 492.234 199.156 492.433 199.517C492.632 199.878 492.731 200.362 492.731 200.969V206H491.558V204.966H491.498C491.419 205.132 491.286 205.309 491.1 205.498C490.915 205.687 490.668 205.848 490.36 205.98C490.051 206.113 489.675 206.179 489.231 206.179ZM489.41 205.125C489.874 205.125 490.265 205.034 490.583 204.852C490.905 204.669 491.147 204.434 491.309 204.146C491.475 203.857 491.558 203.554 491.558 203.236V202.162C491.508 202.222 491.399 202.276 491.23 202.326C491.064 202.372 490.872 202.414 490.653 202.45C490.438 202.483 490.227 202.513 490.022 202.54C489.819 202.563 489.655 202.583 489.529 202.599C489.225 202.639 488.94 202.704 488.674 202.793C488.413 202.879 488.2 203.01 488.038 203.186C487.879 203.358 487.799 203.594 487.799 203.892C487.799 204.3 487.95 204.608 488.252 204.817C488.557 205.022 488.943 205.125 489.41 205.125ZM495.032 206V195.818H496.205V199.577H496.305C496.391 199.444 496.51 199.275 496.662 199.07C496.818 198.861 497.04 198.675 497.329 198.513C497.62 198.347 498.015 198.264 498.512 198.264C499.155 198.264 499.722 198.425 500.212 198.746C500.703 199.068 501.086 199.524 501.361 200.114C501.636 200.704 501.773 201.4 501.773 202.202C501.773 203.01 501.636 203.711 501.361 204.305C501.086 204.895 500.704 205.352 500.217 205.677C499.73 205.998 499.168 206.159 498.532 206.159C498.041 206.159 497.648 206.078 497.354 205.915C497.059 205.75 496.831 205.562 496.672 205.354C496.513 205.142 496.391 204.966 496.305 204.827H496.165V206H495.032ZM496.185 202.182C496.185 202.759 496.27 203.267 496.439 203.708C496.608 204.146 496.855 204.489 497.18 204.737C497.504 204.982 497.902 205.105 498.373 205.105C498.863 205.105 499.273 204.976 499.601 204.717C499.932 204.455 500.181 204.104 500.346 203.663C500.515 203.219 500.6 202.725 500.6 202.182C500.6 201.645 500.517 201.161 500.351 200.73C500.189 200.296 499.942 199.953 499.611 199.701C499.282 199.446 498.87 199.318 498.373 199.318C497.895 199.318 497.494 199.439 497.17 199.681C496.845 199.92 496.599 200.254 496.434 200.685C496.268 201.113 496.185 201.612 496.185 202.182ZM506.77 206.159C506.034 206.159 505.399 205.997 504.866 205.672C504.335 205.344 503.926 204.886 503.638 204.3C503.353 203.71 503.21 203.024 503.21 202.241C503.21 201.459 503.353 200.77 503.638 200.173C503.926 199.573 504.327 199.106 504.841 198.771C505.358 198.433 505.961 198.264 506.65 198.264C507.048 198.264 507.441 198.33 507.829 198.463C508.216 198.596 508.569 198.811 508.888 199.109C509.206 199.404 509.459 199.795 509.648 200.283C509.837 200.77 509.932 201.37 509.932 202.082V202.58H504.045V201.565H508.738C508.738 201.134 508.652 200.75 508.48 200.412C508.311 200.074 508.069 199.807 507.754 199.612C507.443 199.416 507.075 199.318 506.65 199.318C506.183 199.318 505.779 199.434 505.437 199.666C505.099 199.895 504.839 200.193 504.657 200.561C504.474 200.929 504.383 201.323 504.383 201.744V202.42C504.383 202.997 504.483 203.486 504.682 203.887C504.884 204.285 505.164 204.588 505.522 204.797C505.88 205.002 506.296 205.105 506.77 205.105C507.078 205.105 507.356 205.062 507.605 204.976C507.857 204.886 508.074 204.754 508.256 204.578C508.439 204.399 508.579 204.177 508.679 203.912L509.812 204.23C509.693 204.615 509.492 204.953 509.211 205.244C508.929 205.533 508.581 205.758 508.167 205.92C507.752 206.08 507.287 206.159 506.77 206.159ZM512.89 195.818V206H511.716V195.818H512.89Z" fill="white" fill-opacity="0.7"/>
</g>
<rect x="522" y="200" width="24" height="2" fill="#8F8F8F"/>
<path d="M569 201C569 204.866 565.866 208 562 208C558.134 208 555 204.866 555 201C555 197.134 558.134 194 562 194C565.866 194 569 197.134 569 201Z" stroke="#64B4FA" stroke-width="2"/>
<g clip-path="url(#clip7_2029_9358)">
<path d="M579.268 206V195.818H580.501V204.906H585.234V206H579.268ZM589.231 206.179C588.747 206.179 588.308 206.088 587.914 205.906C587.519 205.72 587.206 205.453 586.974 205.105C586.742 204.754 586.626 204.33 586.626 203.832C586.626 203.395 586.712 203.04 586.885 202.768C587.057 202.493 587.287 202.278 587.576 202.122C587.864 201.966 588.182 201.85 588.53 201.774C588.882 201.695 589.234 201.632 589.589 201.585C590.053 201.526 590.429 201.481 590.718 201.451C591.009 201.418 591.221 201.363 591.354 201.287C591.49 201.211 591.558 201.078 591.558 200.889V200.849C591.558 200.359 591.424 199.978 591.155 199.706C590.89 199.434 590.487 199.298 589.947 199.298C589.387 199.298 588.948 199.421 588.63 199.666C588.311 199.911 588.088 200.173 587.958 200.452L586.845 200.054C587.044 199.59 587.309 199.229 587.64 198.97C587.975 198.708 588.34 198.526 588.734 198.423C589.132 198.317 589.523 198.264 589.907 198.264C590.153 198.264 590.434 198.294 590.752 198.354C591.074 198.41 591.384 198.528 591.682 198.707C591.984 198.886 592.234 199.156 592.433 199.517C592.632 199.878 592.731 200.362 592.731 200.969V206H591.558V204.966H591.498C591.419 205.132 591.286 205.309 591.1 205.498C590.915 205.687 590.668 205.848 590.36 205.98C590.051 206.113 589.675 206.179 589.231 206.179ZM589.41 205.125C589.874 205.125 590.265 205.034 590.583 204.852C590.905 204.669 591.147 204.434 591.309 204.146C591.475 203.857 591.558 203.554 591.558 203.236V202.162C591.508 202.222 591.399 202.276 591.23 202.326C591.064 202.372 590.872 202.414 590.653 202.45C590.438 202.483 590.227 202.513 590.022 202.54C589.819 202.563 589.655 202.583 589.529 202.599C589.225 202.639 588.94 202.704 588.674 202.793C588.413 202.879 588.2 203.01 588.038 203.186C587.879 203.358 587.799 203.594 587.799 203.892C587.799 204.3 587.95 204.608 588.252 204.817C588.557 205.022 588.943 205.125 589.41 205.125ZM595.032 206V195.818H596.205V199.577H596.305C596.391 199.444 596.51 199.275 596.662 199.07C596.818 198.861 597.04 198.675 597.329 198.513C597.62 198.347 598.015 198.264 598.512 198.264C599.155 198.264 599.722 198.425 600.212 198.746C600.703 199.068 601.086 199.524 601.361 200.114C601.636 200.704 601.773 201.4 601.773 202.202C601.773 203.01 601.636 203.711 601.361 204.305C601.086 204.895 600.704 205.352 600.217 205.677C599.73 205.998 599.168 206.159 598.532 206.159C598.041 206.159 597.648 206.078 597.354 205.915C597.059 205.75 596.831 205.562 596.672 205.354C596.513 205.142 596.391 204.966 596.305 204.827H596.165V206H595.032ZM596.185 202.182C596.185 202.759 596.27 203.267 596.439 203.708C596.608 204.146 596.855 204.489 597.18 204.737C597.504 204.982 597.902 205.105 598.373 205.105C598.863 205.105 599.273 204.976 599.601 204.717C599.932 204.455 600.181 204.104 600.346 203.663C600.515 203.219 600.6 202.725 600.6 202.182C600.6 201.645 600.517 201.161 600.351 200.73C600.189 200.296 599.942 199.953 599.611 199.701C599.282 199.446 598.87 199.318 598.373 199.318C597.895 199.318 597.494 199.439 597.17 199.681C596.845 199.92 596.599 200.254 596.434 200.685C596.268 201.113 596.185 201.612 596.185 202.182ZM606.77 206.159C606.034 206.159 605.399 205.997 604.866 205.672C604.335 205.344 603.926 204.886 603.638 204.3C603.353 203.71 603.21 203.024 603.21 202.241C603.21 201.459 603.353 200.77 603.638 200.173C603.926 199.573 604.327 199.106 604.841 198.771C605.358 198.433 605.961 198.264 606.65 198.264C607.048 198.264 607.441 198.33 607.829 198.463C608.216 198.596 608.569 198.811 608.888 199.109C609.206 199.404 609.459 199.795 609.648 200.283C609.837 200.77 609.932 201.37 609.932 202.082V202.58H604.045V201.565H608.738C608.738 201.134 608.652 200.75 608.48 200.412C608.311 200.074 608.069 199.807 607.754 199.612C607.443 199.416 607.075 199.318 606.65 199.318C606.183 199.318 605.779 199.434 605.437 199.666C605.099 199.895 604.839 200.193 604.657 200.561C604.474 200.929 604.383 201.323 604.383 201.744V202.42C604.383 202.997 604.483 203.486 604.682 203.887C604.884 204.285 605.164 204.588 605.522 204.797C605.88 205.002 606.296 205.105 606.77 205.105C607.078 205.105 607.356 205.062 607.605 204.976C607.857 204.886 608.074 204.754 608.256 204.578C608.439 204.399 608.579 204.177 608.679 203.912L609.812 204.23C609.693 204.615 609.492 204.953 609.211 205.244C608.929 205.533 608.581 205.758 608.167 205.92C607.752 206.08 607.287 206.159 606.77 206.159ZM612.89 195.818V206H611.716V195.818H612.89Z" fill="white" fill-opacity="0.7"/>
</g>
<rect x="622" y="200" width="24" height="2" fill="#8F8F8F"/>
<path d="M669 201C669 204.866 665.866 208 662 208C658.134 208 655 204.866 655 201C655 197.134 658.134 194 662 194C665.866 194 669 197.134 669 201Z" stroke="#64B4FA" stroke-width="2"/>
<g clip-path="url(#clip8_2029_9358)">
<path d="M679.268 206V195.818H680.501V204.906H685.234V206H679.268ZM689.231 206.179C688.747 206.179 688.308 206.088 687.914 205.906C687.519 205.72 687.206 205.453 686.974 205.105C686.742 204.754 686.626 204.33 686.626 203.832C686.626 203.395 686.712 203.04 686.885 202.768C687.057 202.493 687.287 202.278 687.576 202.122C687.864 201.966 688.182 201.85 688.53 201.774C688.882 201.695 689.234 201.632 689.589 201.585C690.053 201.526 690.429 201.481 690.718 201.451C691.009 201.418 691.221 201.363 691.354 201.287C691.49 201.211 691.558 201.078 691.558 200.889V200.849C691.558 200.359 691.424 199.978 691.155 199.706C690.89 199.434 690.487 199.298 689.947 199.298C689.387 199.298 688.948 199.421 688.63 199.666C688.311 199.911 688.088 200.173 687.958 200.452L686.845 200.054C687.044 199.59 687.309 199.229 687.64 198.97C687.975 198.708 688.34 198.526 688.734 198.423C689.132 198.317 689.523 198.264 689.907 198.264C690.153 198.264 690.434 198.294 690.752 198.354C691.074 198.41 691.384 198.528 691.682 198.707C691.984 198.886 692.234 199.156 692.433 199.517C692.632 199.878 692.731 200.362 692.731 200.969V206H691.558V204.966H691.498C691.419 205.132 691.286 205.309 691.1 205.498C690.915 205.687 690.668 205.848 690.36 205.98C690.051 206.113 689.675 206.179 689.231 206.179ZM689.41 205.125C689.874 205.125 690.265 205.034 690.583 204.852C690.905 204.669 691.147 204.434 691.309 204.146C691.475 203.857 691.558 203.554 691.558 203.236V202.162C691.508 202.222 691.399 202.276 691.23 202.326C691.064 202.372 690.872 202.414 690.653 202.45C690.438 202.483 690.227 202.513 690.022 202.54C689.819 202.563 689.655 202.583 689.529 202.599C689.225 202.639 688.94 202.704 688.674 202.793C688.413 202.879 688.2 203.01 688.038 203.186C687.879 203.358 687.799 203.594 687.799 203.892C687.799 204.3 687.95 204.608 688.252 204.817C688.557 205.022 688.943 205.125 689.41 205.125ZM695.032 206V195.818H696.205V199.577H696.305C696.391 199.444 696.51 199.275 696.662 199.07C696.818 198.861 697.04 198.675 697.329 198.513C697.62 198.347 698.015 198.264 698.512 198.264C699.155 198.264 699.722 198.425 700.212 198.746C700.703 199.068 701.086 199.524 701.361 200.114C701.636 200.704 701.773 201.4 701.773 202.202C701.773 203.01 701.636 203.711 701.361 204.305C701.086 204.895 700.704 205.352 700.217 205.677C699.73 205.998 699.168 206.159 698.532 206.159C698.041 206.159 697.648 206.078 697.354 205.915C697.059 205.75 696.831 205.562 696.672 205.354C696.513 205.142 696.391 204.966 696.305 204.827H696.165V206H695.032ZM696.185 202.182C696.185 202.759 696.27 203.267 696.439 203.708C696.608 204.146 696.855 204.489 697.18 204.737C697.504 204.982 697.902 205.105 698.373 205.105C698.863 205.105 699.273 204.976 699.601 204.717C699.932 204.455 700.181 204.104 700.346 203.663C700.515 203.219 700.6 202.725 700.6 202.182C700.6 201.645 700.517 201.161 700.351 200.73C700.189 200.296 699.942 199.953 699.611 199.701C699.282 199.446 698.87 199.318 698.373 199.318C697.895 199.318 697.494 199.439 697.17 199.681C696.845 199.92 696.599 200.254 696.434 200.685C696.268 201.113 696.185 201.612 696.185 202.182ZM706.77 206.159C706.034 206.159 705.399 205.997 704.866 205.672C704.335 205.344 703.926 204.886 703.638 204.3C703.353 203.71 703.21 203.024 703.21 202.241C703.21 201.459 703.353 200.77 703.638 200.173C703.926 199.573 704.327 199.106 704.841 198.771C705.358 198.433 705.961 198.264 706.65 198.264C707.048 198.264 707.441 198.33 707.829 198.463C708.216 198.596 708.569 198.811 708.888 199.109C709.206 199.404 709.459 199.795 709.648 200.283C709.837 200.77 709.932 201.37 709.932 202.082V202.58H704.045V201.565H708.738C708.738 201.134 708.652 200.75 708.48 200.412C708.311 200.074 708.069 199.807 707.754 199.612C707.443 199.416 707.075 199.318 706.65 199.318C706.183 199.318 705.779 199.434 705.437 199.666C705.099 199.895 704.839 200.193 704.657 200.561C704.474 200.929 704.383 201.323 704.383 201.744V202.42C704.383 202.997 704.483 203.486 704.682 203.887C704.884 204.285 705.164 204.588 705.522 204.797C705.88 205.002 706.296 205.105 706.77 205.105C707.078 205.105 707.356 205.062 707.605 204.976C707.857 204.886 708.074 204.754 708.256 204.578C708.439 204.399 708.579 204.177 708.679 203.912L709.812 204.23C709.693 204.615 709.492 204.953 709.211 205.244C708.929 205.533 708.581 205.758 708.167 205.92C707.752 206.08 707.287 206.159 706.77 206.159ZM712.89 195.818V206H711.716V195.818H712.89Z" fill="white" fill-opacity="0.7"/>
</g>
<rect x="722" y="200" width="24" height="2" fill="#8F8F8F"/>
<path d="M769 201C769 204.866 765.866 208 762 208C758.134 208 755 204.866 755 201C755 197.134 758.134 194 762 194C765.866 194 769 197.134 769 201Z" stroke="#64B4FA" stroke-width="2"/>
<g clip-path="url(#clip9_2029_9358)">
<path d="M779.268 206V195.818H780.501V204.906H785.234V206H779.268ZM789.231 206.179C788.747 206.179 788.308 206.088 787.914 205.906C787.519 205.72 787.206 205.453 786.974 205.105C786.742 204.754 786.626 204.33 786.626 203.832C786.626 203.395 786.712 203.04 786.885 202.768C787.057 202.493 787.287 202.278 787.576 202.122C787.864 201.966 788.182 201.85 788.53 201.774C788.882 201.695 789.234 201.632 789.589 201.585C790.053 201.526 790.429 201.481 790.718 201.451C791.009 201.418 791.221 201.363 791.354 201.287C791.49 201.211 791.558 201.078 791.558 200.889V200.849C791.558 200.359 791.424 199.978 791.155 199.706C790.89 199.434 790.487 199.298 789.947 199.298C789.387 199.298 788.948 199.421 788.63 199.666C788.311 199.911 788.088 200.173 787.958 200.452L786.845 200.054C787.044 199.59 787.309 199.229 787.64 198.97C787.975 198.708 788.34 198.526 788.734 198.423C789.132 198.317 789.523 198.264 789.907 198.264C790.153 198.264 790.434 198.294 790.752 198.354C791.074 198.41 791.384 198.528 791.682 198.707C791.984 198.886 792.234 199.156 792.433 199.517C792.632 199.878 792.731 200.362 792.731 200.969V206H791.558V204.966H791.498C791.419 205.132 791.286 205.309 791.1 205.498C790.915 205.687 790.668 205.848 790.36 205.98C790.051 206.113 789.675 206.179 789.231 206.179ZM789.41 205.125C789.874 205.125 790.265 205.034 790.583 204.852C790.905 204.669 791.147 204.434 791.309 204.146C791.475 203.857 791.558 203.554 791.558 203.236V202.162C791.508 202.222 791.399 202.276 791.23 202.326C791.064 202.372 790.872 202.414 790.653 202.45C790.438 202.483 790.227 202.513 790.022 202.54C789.819 202.563 789.655 202.583 789.529 202.599C789.225 202.639 788.94 202.704 788.674 202.793C788.413 202.879 788.2 203.01 788.038 203.186C787.879 203.358 787.799 203.594 787.799 203.892C787.799 204.3 787.95 204.608 788.252 204.817C788.557 205.022 788.943 205.125 789.41 205.125ZM795.032 206V195.818H796.205V199.577H796.305C796.391 199.444 796.51 199.275 796.662 199.07C796.818 198.861 797.04 198.675 797.329 198.513C797.62 198.347 798.015 198.264 798.512 198.264C799.155 198.264 799.722 198.425 800.212 198.746C800.703 199.068 801.086 199.524 801.361 200.114C801.636 200.704 801.773 201.4 801.773 202.202C801.773 203.01 801.636 203.711 801.361 204.305C801.086 204.895 800.704 205.352 800.217 205.677C799.73 205.998 799.168 206.159 798.532 206.159C798.041 206.159 797.648 206.078 797.354 205.915C797.059 205.75 796.831 205.562 796.672 205.354C796.513 205.142 796.391 204.966 796.305 204.827H796.165V206H795.032ZM796.185 202.182C796.185 202.759 796.27 203.267 796.439 203.708C796.608 204.146 796.855 204.489 797.18 204.737C797.504 204.982 797.902 205.105 798.373 205.105C798.863 205.105 799.273 204.976 799.601 204.717C799.932 204.455 800.181 204.104 800.346 203.663C800.515 203.219 800.6 202.725 800.6 202.182C800.6 201.645 800.517 201.161 800.351 200.73C800.189 200.296 799.942 199.953 799.611 199.701C799.282 199.446 798.87 199.318 798.373 199.318C797.895 199.318 797.494 199.439 797.17 199.681C796.845 199.92 796.599 200.254 796.434 200.685C796.268 201.113 796.185 201.612 796.185 202.182ZM806.77 206.159C806.034 206.159 805.399 205.997 804.866 205.672C804.335 205.344 803.926 204.886 803.638 204.3C803.353 203.71 803.21 203.024 803.21 202.241C803.21 201.459 803.353 200.77 803.638 200.173C803.926 199.573 804.327 199.106 804.841 198.771C805.358 198.433 805.961 198.264 806.65 198.264C807.048 198.264 807.441 198.33 807.829 198.463C808.216 198.596 808.569 198.811 808.888 199.109C809.206 199.404 809.459 199.795 809.648 200.283C809.837 200.77 809.932 201.37 809.932 202.082V202.58H804.045V201.565H808.738C808.738 201.134 808.652 200.75 808.48 200.412C808.311 200.074 808.069 199.807 807.754 199.612C807.443 199.416 807.075 199.318 806.65 199.318C806.183 199.318 805.779 199.434 805.437 199.666C805.099 199.895 804.839 200.193 804.657 200.561C804.474 200.929 804.383 201.323 804.383 201.744V202.42C804.383 202.997 804.483 203.486 804.682 203.887C804.884 204.285 805.164 204.588 805.522 204.797C805.88 205.002 806.296 205.105 806.77 205.105C807.078 205.105 807.356 205.062 807.605 204.976C807.857 204.886 808.074 204.754 808.256 204.578C808.439 204.399 808.579 204.177 808.679 203.912L809.812 204.23C809.693 204.615 809.492 204.953 809.211 205.244C808.929 205.533 808.581 205.758 808.167 205.92C807.752 206.08 807.287 206.159 806.77 206.159ZM812.89 195.818V206H811.716V195.818H812.89Z" fill="white" fill-opacity="0.7"/>
</g>
<rect x="822" y="200" width="24" height="2" fill="#8F8F8F"/>
<path d="M869 201C869 204.866 865.866 208 862 208C858.134 208 855 204.866 855 201C855 197.134 858.134 194 862 194C865.866 194 869 197.134 869 201Z" stroke="#64B4FA" stroke-width="2"/>
<g clip-path="url(#clip10_2029_9358)">
<path d="M879.268 206V195.818H880.501V204.906H885.234V206H879.268ZM889.231 206.179C888.747 206.179 888.308 206.088 887.914 205.906C887.519 205.72 887.206 205.453 886.974 205.105C886.742 204.754 886.626 204.33 886.626 203.832C886.626 203.395 886.712 203.04 886.885 202.768C887.057 202.493 887.287 202.278 887.576 202.122C887.864 201.966 888.182 201.85 888.53 201.774C888.882 201.695 889.234 201.632 889.589 201.585C890.053 201.526 890.429 201.481 890.718 201.451C891.009 201.418 891.221 201.363 891.354 201.287C891.49 201.211 891.558 201.078 891.558 200.889V200.849C891.558 200.359 891.424 199.978 891.155 199.706C890.89 199.434 890.487 199.298 889.947 199.298C889.387 199.298 888.948 199.421 888.63 199.666C888.311 199.911 888.088 200.173 887.958 200.452L886.845 200.054C887.044 199.59 887.309 199.229 887.64 198.97C887.975 198.708 888.34 198.526 888.734 198.423C889.132 198.317 889.523 198.264 889.907 198.264C890.153 198.264 890.434 198.294 890.752 198.354C891.074 198.41 891.384 198.528 891.682 198.707C891.984 198.886 892.234 199.156 892.433 199.517C892.632 199.878 892.731 200.362 892.731 200.969V206H891.558V204.966H891.498C891.419 205.132 891.286 205.309 891.1 205.498C890.915 205.687 890.668 205.848 890.36 205.98C890.051 206.113 889.675 206.179 889.231 206.179ZM889.41 205.125C889.874 205.125 890.265 205.034 890.583 204.852C890.905 204.669 891.147 204.434 891.309 204.146C891.475 203.857 891.558 203.554 891.558 203.236V202.162C891.508 202.222 891.399 202.276 891.23 202.326C891.064 202.372 890.872 202.414 890.653 202.45C890.438 202.483 890.227 202.513 890.022 202.54C889.819 202.563 889.655 202.583 889.529 202.599C889.225 202.639 888.94 202.704 888.674 202.793C888.413 202.879 888.2 203.01 888.038 203.186C887.879 203.358 887.799 203.594 887.799 203.892C887.799 204.3 887.95 204.608 888.252 204.817C888.557 205.022 888.943 205.125 889.41 205.125ZM895.032 206V195.818H896.205V199.577H896.305C896.391 199.444 896.51 199.275 896.662 199.07C896.818 198.861 897.04 198.675 897.329 198.513C897.62 198.347 898.015 198.264 898.512 198.264C899.155 198.264 899.722 198.425 900.212 198.746C900.703 199.068 901.086 199.524 901.361 200.114C901.636 200.704 901.773 201.4 901.773 202.202C901.773 203.01 901.636 203.711 901.361 204.305C901.086 204.895 900.704 205.352 900.217 205.677C899.73 205.998 899.168 206.159 898.532 206.159C898.041 206.159 897.648 206.078 897.354 205.915C897.059 205.75 896.831 205.562 896.672 205.354C896.513 205.142 896.391 204.966 896.305 204.827H896.165V206H895.032ZM896.185 202.182C896.185 202.759 896.27 203.267 896.439 203.708C896.608 204.146 896.855 204.489 897.18 204.737C897.504 204.982 897.902 205.105 898.373 205.105C898.863 205.105 899.273 204.976 899.601 204.717C899.932 204.455 900.181 204.104 900.346 203.663C900.515 203.219 900.6 202.725 900.6 202.182C900.6 201.645 900.517 201.161 900.351 200.73C900.189 200.296 899.942 199.953 899.611 199.701C899.282 199.446 898.87 199.318 898.373 199.318C897.895 199.318 897.494 199.439 897.17 199.681C896.845 199.92 896.599 200.254 896.434 200.685C896.268 201.113 896.185 201.612 896.185 202.182ZM906.77 206.159C906.034 206.159 905.399 205.997 904.866 205.672C904.335 205.344 903.926 204.886 903.638 204.3C903.353 203.71 903.21 203.024 903.21 202.241C903.21 201.459 903.353 200.77 903.638 200.173C903.926 199.573 904.327 199.106 904.841 198.771C905.358 198.433 905.961 198.264 906.65 198.264C907.048 198.264 907.441 198.33 907.829 198.463C908.216 198.596 908.569 198.811 908.888 199.109C909.206 199.404 909.459 199.795 909.648 200.283C909.837 200.77 909.932 201.37 909.932 202.082V202.58H904.045V201.565H908.738C908.738 201.134 908.652 200.75 908.48 200.412C908.311 200.074 908.069 199.807 907.754 199.612C907.443 199.416 907.075 199.318 906.65 199.318C906.183 199.318 905.779 199.434 905.437 199.666C905.099 199.895 904.839 200.193 904.657 200.561C904.474 200.929 904.383 201.323 904.383 201.744V202.42C904.383 202.997 904.483 203.486 904.682 203.887C904.884 204.285 905.164 204.588 905.522 204.797C905.88 205.002 906.296 205.105 906.77 205.105C907.078 205.105 907.356 205.062 907.605 204.976C907.857 204.886 908.074 204.754 908.256 204.578C908.439 204.399 908.579 204.177 908.679 203.912L909.812 204.23C909.693 204.615 909.492 204.953 909.211 205.244C908.929 205.533 908.581 205.758 908.167 205.92C907.752 206.08 907.287 206.159 906.77 206.159ZM912.89 195.818V206H911.716V195.818H912.89Z" fill="white" fill-opacity="0.7"/>
</g>
<rect x="523" y="257" width="32" height="32" rx="16" fill="#DA0087"/>
<path d="M538.589 278.639C537.846 278.639 537.185 278.512 536.605 278.256C536.028 277.998 535.573 277.643 535.238 277.192C534.906 276.738 534.736 276.215 534.726 275.621H536.893C536.907 275.87 536.988 276.089 537.137 276.278C537.29 276.463 537.492 276.607 537.744 276.71C537.996 276.813 538.279 276.864 538.594 276.864C538.922 276.864 539.212 276.806 539.464 276.69C539.716 276.574 539.913 276.414 540.055 276.208C540.198 276.003 540.269 275.766 540.269 275.497C540.269 275.225 540.193 274.985 540.04 274.776C539.891 274.564 539.676 274.398 539.394 274.279C539.116 274.16 538.784 274.1 538.4 274.1H537.45V272.519H538.4C538.725 272.519 539.011 272.463 539.26 272.35C539.512 272.237 539.707 272.082 539.847 271.883C539.986 271.681 540.055 271.445 540.055 271.177C540.055 270.922 539.994 270.698 539.871 270.506C539.752 270.31 539.583 270.158 539.364 270.048C539.149 269.939 538.897 269.884 538.609 269.884C538.317 269.884 538.05 269.937 537.808 270.043C537.566 270.146 537.372 270.294 537.227 270.486C537.081 270.678 537.003 270.903 536.993 271.162H534.93C534.94 270.575 535.107 270.058 535.432 269.611C535.757 269.163 536.194 268.814 536.744 268.562C537.298 268.307 537.923 268.179 538.619 268.179C539.321 268.179 539.936 268.307 540.463 268.562C540.99 268.817 541.399 269.162 541.691 269.596C541.986 270.027 542.132 270.511 542.129 271.048C542.132 271.618 541.955 272.093 541.597 272.474C541.242 272.856 540.78 273.098 540.21 273.2V273.28C540.959 273.376 541.529 273.636 541.92 274.06C542.314 274.481 542.51 275.008 542.506 275.641C542.51 276.221 542.342 276.737 542.004 277.188C541.67 277.638 541.207 277.993 540.617 278.251C540.027 278.51 539.351 278.639 538.589 278.639Z" fill="white" fill-opacity="0.95"/>
<path d="M582 267C582 270.866 578.866 274 575 274C571.134 274 568 270.866 568 267C568 263.134 571.134 260 575 260C578.866 260 582 263.134 582 267Z" stroke="#64B4FA" stroke-width="2"/>
<g clip-path="url(#clip11_2029_9358)">
<path d="M592.268 272V261.818H593.501V270.906H598.234V272H592.268ZM602.231 272.179C601.747 272.179 601.308 272.088 600.914 271.906C600.519 271.72 600.206 271.453 599.974 271.105C599.742 270.754 599.626 270.33 599.626 269.832C599.626 269.395 599.712 269.04 599.885 268.768C600.057 268.493 600.287 268.278 600.576 268.122C600.864 267.966 601.182 267.85 601.53 267.774C601.882 267.695 602.234 267.632 602.589 267.585C603.053 267.526 603.429 267.481 603.718 267.451C604.009 267.418 604.221 267.363 604.354 267.287C604.49 267.211 604.558 267.078 604.558 266.889V266.849C604.558 266.359 604.424 265.978 604.155 265.706C603.89 265.434 603.487 265.298 602.947 265.298C602.387 265.298 601.948 265.421 601.63 265.666C601.311 265.911 601.088 266.173 600.958 266.452L599.845 266.054C600.044 265.59 600.309 265.229 600.64 264.97C600.975 264.708 601.34 264.526 601.734 264.423C602.132 264.317 602.523 264.264 602.907 264.264C603.153 264.264 603.434 264.294 603.752 264.354C604.074 264.41 604.384 264.528 604.682 264.707C604.984 264.886 605.234 265.156 605.433 265.517C605.632 265.878 605.731 266.362 605.731 266.969V272H604.558V270.966H604.498C604.419 271.132 604.286 271.309 604.1 271.498C603.915 271.687 603.668 271.848 603.36 271.98C603.051 272.113 602.675 272.179 602.231 272.179ZM602.41 271.125C602.874 271.125 603.265 271.034 603.583 270.852C603.905 270.669 604.147 270.434 604.309 270.146C604.475 269.857 604.558 269.554 604.558 269.236V268.162C604.508 268.222 604.399 268.276 604.23 268.326C604.064 268.372 603.872 268.414 603.653 268.45C603.438 268.483 603.227 268.513 603.022 268.54C602.819 268.563 602.655 268.583 602.529 268.599C602.225 268.639 601.94 268.704 601.674 268.793C601.413 268.879 601.2 269.01 601.038 269.186C600.879 269.358 600.799 269.594 600.799 269.892C600.799 270.3 600.95 270.608 601.252 270.817C601.557 271.022 601.943 271.125 602.41 271.125ZM608.032 272V261.818H609.205V265.577H609.305C609.391 265.444 609.51 265.275 609.662 265.07C609.818 264.861 610.04 264.675 610.329 264.513C610.62 264.347 611.015 264.264 611.512 264.264C612.155 264.264 612.722 264.425 613.212 264.746C613.703 265.068 614.086 265.524 614.361 266.114C614.636 266.704 614.773 267.4 614.773 268.202C614.773 269.01 614.636 269.711 614.361 270.305C614.086 270.895 613.704 271.352 613.217 271.677C612.73 271.998 612.168 272.159 611.532 272.159C611.041 272.159 610.648 272.078 610.354 271.915C610.059 271.75 609.831 271.562 609.672 271.354C609.513 271.142 609.391 270.966 609.305 270.827H609.165V272H608.032ZM609.185 268.182C609.185 268.759 609.27 269.267 609.439 269.708C609.608 270.146 609.855 270.489 610.18 270.737C610.504 270.982 610.902 271.105 611.373 271.105C611.863 271.105 612.273 270.976 612.601 270.717C612.932 270.455 613.181 270.104 613.346 269.663C613.515 269.219 613.6 268.725 613.6 268.182C613.6 267.645 613.517 267.161 613.351 266.73C613.189 266.296 612.942 265.953 612.611 265.701C612.282 265.446 611.87 265.318 611.373 265.318C610.895 265.318 610.494 265.439 610.17 265.681C609.845 265.92 609.599 266.254 609.434 266.685C609.268 267.113 609.185 267.612 609.185 268.182ZM619.77 272.159C619.034 272.159 618.399 271.997 617.866 271.672C617.335 271.344 616.926 270.886 616.638 270.3C616.353 269.71 616.21 269.024 616.21 268.241C616.21 267.459 616.353 266.77 616.638 266.173C616.926 265.573 617.327 265.106 617.841 264.771C618.358 264.433 618.961 264.264 619.65 264.264C620.048 264.264 620.441 264.33 620.829 264.463C621.216 264.596 621.569 264.811 621.888 265.109C622.206 265.404 622.459 265.795 622.648 266.283C622.837 266.77 622.932 267.37 622.932 268.082V268.58H617.045V267.565H621.738C621.738 267.134 621.652 266.75 621.48 266.412C621.311 266.074 621.069 265.807 620.754 265.612C620.443 265.416 620.075 265.318 619.65 265.318C619.183 265.318 618.779 265.434 618.437 265.666C618.099 265.895 617.839 266.193 617.657 266.561C617.474 266.929 617.383 267.323 617.383 267.744V268.42C617.383 268.997 617.483 269.486 617.682 269.887C617.884 270.285 618.164 270.588 618.522 270.797C618.88 271.002 619.296 271.105 619.77 271.105C620.078 271.105 620.356 271.062 620.605 270.976C620.857 270.886 621.074 270.754 621.256 270.578C621.439 270.399 621.579 270.177 621.679 269.912L622.812 270.23C622.693 270.615 622.492 270.953 622.211 271.244C621.929 271.533 621.581 271.758 621.167 271.92C620.752 272.08 620.287 272.159 619.77 272.159ZM625.89 261.818V272H624.716V261.818H625.89Z" fill="white" fill-opacity="0.7"/>
</g>
<rect x="574" y="281" width="2" height="24" fill="#8F8F8F"/>
<path d="M582 319C582 322.866 578.866 326 575 326C571.134 326 568 322.866 568 319C568 315.134 571.134 312 575 312C578.866 312 582 315.134 582 319Z" stroke="#64B4FA" stroke-width="2"/>
<g clip-path="url(#clip12_2029_9358)">
<path d="M592.268 324V313.818H593.501V322.906H598.234V324H592.268ZM602.231 324.179C601.747 324.179 601.308 324.088 600.914 323.906C600.519 323.72 600.206 323.453 599.974 323.105C599.742 322.754 599.626 322.33 599.626 321.832C599.626 321.395 599.712 321.04 599.885 320.768C600.057 320.493 600.287 320.278 600.576 320.122C600.864 319.966 601.182 319.85 601.53 319.774C601.882 319.695 602.234 319.632 602.589 319.585C603.053 319.526 603.429 319.481 603.718 319.451C604.009 319.418 604.221 319.363 604.354 319.287C604.49 319.211 604.558 319.078 604.558 318.889V318.849C604.558 318.359 604.424 317.978 604.155 317.706C603.89 317.434 603.487 317.298 602.947 317.298C602.387 317.298 601.948 317.421 601.63 317.666C601.311 317.911 601.088 318.173 600.958 318.452L599.845 318.054C600.044 317.59 600.309 317.229 600.64 316.97C600.975 316.708 601.34 316.526 601.734 316.423C602.132 316.317 602.523 316.264 602.907 316.264C603.153 316.264 603.434 316.294 603.752 316.354C604.074 316.41 604.384 316.528 604.682 316.707C604.984 316.886 605.234 317.156 605.433 317.517C605.632 317.878 605.731 318.362 605.731 318.969V324H604.558V322.966H604.498C604.419 323.132 604.286 323.309 604.1 323.498C603.915 323.687 603.668 323.848 603.36 323.98C603.051 324.113 602.675 324.179 602.231 324.179ZM602.41 323.125C602.874 323.125 603.265 323.034 603.583 322.852C603.905 322.669 604.147 322.434 604.309 322.146C604.475 321.857 604.558 321.554 604.558 321.236V320.162C604.508 320.222 604.399 320.276 604.23 320.326C604.064 320.372 603.872 320.414 603.653 320.45C603.438 320.483 603.227 320.513 603.022 320.54C602.819 320.563 602.655 320.583 602.529 320.599C602.225 320.639 601.94 320.704 601.674 320.793C601.413 320.879 601.2 321.01 601.038 321.186C600.879 321.358 600.799 321.594 600.799 321.892C600.799 322.3 600.95 322.608 601.252 322.817C601.557 323.022 601.943 323.125 602.41 323.125ZM608.032 324V313.818H609.205V317.577H609.305C609.391 317.444 609.51 317.275 609.662 317.07C609.818 316.861 610.04 316.675 610.329 316.513C610.62 316.347 611.015 316.264 611.512 316.264C612.155 316.264 612.722 316.425 613.212 316.746C613.703 317.068 614.086 317.524 614.361 318.114C614.636 318.704 614.773 319.4 614.773 320.202C614.773 321.01 614.636 321.711 614.361 322.305C614.086 322.895 613.704 323.352 613.217 323.677C612.73 323.998 612.168 324.159 611.532 324.159C611.041 324.159 610.648 324.078 610.354 323.915C610.059 323.75 609.831 323.562 609.672 323.354C609.513 323.142 609.391 322.966 609.305 322.827H609.165V324H608.032ZM609.185 320.182C609.185 320.759 609.27 321.267 609.439 321.708C609.608 322.146 609.855 322.489 610.18 322.737C610.504 322.982 610.902 323.105 611.373 323.105C611.863 323.105 612.273 322.976 612.601 322.717C612.932 322.455 613.181 322.104 613.346 321.663C613.515 321.219 613.6 320.725 613.6 320.182C613.6 319.645 613.517 319.161 613.351 318.73C613.189 318.296 612.942 317.953 612.611 317.701C612.282 317.446 611.87 317.318 611.373 317.318C610.895 317.318 610.494 317.439 610.17 317.681C609.845 317.92 609.599 318.254 609.434 318.685C609.268 319.113 609.185 319.612 609.185 320.182ZM619.77 324.159C619.034 324.159 618.399 323.997 617.866 323.672C617.335 323.344 616.926 322.886 616.638 322.3C616.353 321.71 616.21 321.024 616.21 320.241C616.21 319.459 616.353 318.77 616.638 318.173C616.926 317.573 617.327 317.106 617.841 316.771C618.358 316.433 618.961 316.264 619.65 316.264C620.048 316.264 620.441 316.33 620.829 316.463C621.216 316.596 621.569 316.811 621.888 317.109C622.206 317.404 622.459 317.795 622.648 318.283C622.837 318.77 622.932 319.37 622.932 320.082V320.58H617.045V319.565H621.738C621.738 319.134 621.652 318.75 621.48 318.412C621.311 318.074 621.069 317.807 620.754 317.612C620.443 317.416 620.075 317.318 619.65 317.318C619.183 317.318 618.779 317.434 618.437 317.666C618.099 317.895 617.839 318.193 617.657 318.561C617.474 318.929 617.383 319.323 617.383 319.744V320.42C617.383 320.997 617.483 321.486 617.682 321.887C617.884 322.285 618.164 322.588 618.522 322.797C618.88 323.002 619.296 323.105 619.77 323.105C620.078 323.105 620.356 323.062 620.605 322.976C620.857 322.886 621.074 322.754 621.256 322.578C621.439 322.399 621.579 322.177 621.679 321.912L622.812 322.23C622.693 322.615 622.492 322.953 622.211 323.244C621.929 323.533 621.581 323.758 621.167 323.92C620.752 324.08 620.287 324.159 619.77 324.159ZM625.89 313.818V324H624.716V313.818H625.89Z" fill="white" fill-opacity="0.7"/>
</g>
<rect x="574" y="333" width="2" height="24" fill="#8F8F8F"/>
<path d="M582 371C582 374.866 578.866 378 575 378C571.134 378 568 374.866 568 371C568 367.134 571.134 364 575 364C578.866 364 582 367.134 582 371Z" stroke="#64B4FA" stroke-width="2"/>
<g clip-path="url(#clip13_2029_9358)">
<path d="M592.268 376V365.818H593.501V374.906H598.234V376H592.268ZM602.231 376.179C601.747 376.179 601.308 376.088 600.914 375.906C600.519 375.72 600.206 375.453 599.974 375.105C599.742 374.754 599.626 374.33 599.626 373.832C599.626 373.395 599.712 373.04 599.885 372.768C600.057 372.493 600.287 372.278 600.576 372.122C600.864 371.966 601.182 371.85 601.53 371.774C601.882 371.695 602.234 371.632 602.589 371.585C603.053 371.526 603.429 371.481 603.718 371.451C604.009 371.418 604.221 371.363 604.354 371.287C604.49 371.211 604.558 371.078 604.558 370.889V370.849C604.558 370.359 604.424 369.978 604.155 369.706C603.89 369.434 603.487 369.298 602.947 369.298C602.387 369.298 601.948 369.421 601.63 369.666C601.311 369.911 601.088 370.173 600.958 370.452L599.845 370.054C600.044 369.59 600.309 369.229 600.64 368.97C600.975 368.708 601.34 368.526 601.734 368.423C602.132 368.317 602.523 368.264 602.907 368.264C603.153 368.264 603.434 368.294 603.752 368.354C604.074 368.41 604.384 368.528 604.682 368.707C604.984 368.886 605.234 369.156 605.433 369.517C605.632 369.878 605.731 370.362 605.731 370.969V376H604.558V374.966H604.498C604.419 375.132 604.286 375.309 604.1 375.498C603.915 375.687 603.668 375.848 603.36 375.98C603.051 376.113 602.675 376.179 602.231 376.179ZM602.41 375.125C602.874 375.125 603.265 375.034 603.583 374.852C603.905 374.669 604.147 374.434 604.309 374.146C604.475 373.857 604.558 373.554 604.558 373.236V372.162C604.508 372.222 604.399 372.276 604.23 372.326C604.064 372.372 603.872 372.414 603.653 372.45C603.438 372.483 603.227 372.513 603.022 372.54C602.819 372.563 602.655 372.583 602.529 372.599C602.225 372.639 601.94 372.704 601.674 372.793C601.413 372.879 601.2 373.01 601.038 373.186C600.879 373.358 600.799 373.594 600.799 373.892C600.799 374.3 600.95 374.608 601.252 374.817C601.557 375.022 601.943 375.125 602.41 375.125ZM608.032 376V365.818H609.205V369.577H609.305C609.391 369.444 609.51 369.275 609.662 369.07C609.818 368.861 610.04 368.675 610.329 368.513C610.62 368.347 611.015 368.264 611.512 368.264C612.155 368.264 612.722 368.425 613.212 368.746C613.703 369.068 614.086 369.524 614.361 370.114C614.636 370.704 614.773 371.4 614.773 372.202C614.773 373.01 614.636 373.711 614.361 374.305C614.086 374.895 613.704 375.352 613.217 375.677C612.73 375.998 612.168 376.159 611.532 376.159C611.041 376.159 610.648 376.078 610.354 375.915C610.059 375.75 609.831 375.562 609.672 375.354C609.513 375.142 609.391 374.966 609.305 374.827H609.165V376H608.032ZM609.185 372.182C609.185 372.759 609.27 373.267 609.439 373.708C609.608 374.146 609.855 374.489 610.18 374.737C610.504 374.982 610.902 375.105 611.373 375.105C611.863 375.105 612.273 374.976 612.601 374.717C612.932 374.455 613.181 374.104 613.346 373.663C613.515 373.219 613.6 372.725 613.6 372.182C613.6 371.645 613.517 371.161 613.351 370.73C613.189 370.296 612.942 369.953 612.611 369.701C612.282 369.446 611.87 369.318 611.373 369.318C610.895 369.318 610.494 369.439 610.17 369.681C609.845 369.92 609.599 370.254 609.434 370.685C609.268 371.113 609.185 371.612 609.185 372.182ZM619.77 376.159C619.034 376.159 618.399 375.997 617.866 375.672C617.335 375.344 616.926 374.886 616.638 374.3C616.353 373.71 616.21 373.024 616.21 372.241C616.21 371.459 616.353 370.77 616.638 370.173C616.926 369.573 617.327 369.106 617.841 368.771C618.358 368.433 618.961 368.264 619.65 368.264C620.048 368.264 620.441 368.33 620.829 368.463C621.216 368.596 621.569 368.811 621.888 369.109C622.206 369.404 622.459 369.795 622.648 370.283C622.837 370.77 622.932 371.37 622.932 372.082V372.58H617.045V371.565H621.738C621.738 371.134 621.652 370.75 621.48 370.412C621.311 370.074 621.069 369.807 620.754 369.612C620.443 369.416 620.075 369.318 619.65 369.318C619.183 369.318 618.779 369.434 618.437 369.666C618.099 369.895 617.839 370.193 617.657 370.561C617.474 370.929 617.383 371.323 617.383 371.744V372.42C617.383 372.997 617.483 373.486 617.682 373.887C617.884 374.285 618.164 374.588 618.522 374.797C618.88 375.002 619.296 375.105 619.77 375.105C620.078 375.105 620.356 375.062 620.605 374.976C620.857 374.886 621.074 374.754 621.256 374.578C621.439 374.399 621.579 374.177 621.679 373.912L622.812 374.23C622.693 374.615 622.492 374.953 622.211 375.244C621.929 375.533 621.581 375.758 621.167 375.92C620.752 376.08 620.287 376.159 619.77 376.159ZM625.89 365.818V376H624.716V365.818H625.89Z" fill="white" fill-opacity="0.7"/>
</g>
<rect x="574" y="385" width="2" height="24" fill="#8F8F8F"/>
<path d="M582 423C582 426.866 578.866 430 575 430C571.134 430 568 426.866 568 423C568 419.134 571.134 416 575 416C578.866 416 582 419.134 582 423Z" stroke="#64B4FA" stroke-width="2"/>
<g clip-path="url(#clip14_2029_9358)">
<path d="M592.268 428V417.818H593.501V426.906H598.234V428H592.268ZM602.231 428.179C601.747 428.179 601.308 428.088 600.914 427.906C600.519 427.72 600.206 427.453 599.974 427.105C599.742 426.754 599.626 426.33 599.626 425.832C599.626 425.395 599.712 425.04 599.885 424.768C600.057 424.493 600.287 424.278 600.576 424.122C600.864 423.966 601.182 423.85 601.53 423.774C601.882 423.695 602.234 423.632 602.589 423.585C603.053 423.526 603.429 423.481 603.718 423.451C604.009 423.418 604.221 423.363 604.354 423.287C604.49 423.211 604.558 423.078 604.558 422.889V422.849C604.558 422.359 604.424 421.978 604.155 421.706C603.89 421.434 603.487 421.298 602.947 421.298C602.387 421.298 601.948 421.421 601.63 421.666C601.311 421.911 601.088 422.173 600.958 422.452L599.845 422.054C600.044 421.59 600.309 421.229 600.64 420.97C600.975 420.708 601.34 420.526 601.734 420.423C602.132 420.317 602.523 420.264 602.907 420.264C603.153 420.264 603.434 420.294 603.752 420.354C604.074 420.41 604.384 420.528 604.682 420.707C604.984 420.886 605.234 421.156 605.433 421.517C605.632 421.878 605.731 422.362 605.731 422.969V428H604.558V426.966H604.498C604.419 427.132 604.286 427.309 604.1 427.498C603.915 427.687 603.668 427.848 603.36 427.98C603.051 428.113 602.675 428.179 602.231 428.179ZM602.41 427.125C602.874 427.125 603.265 427.034 603.583 426.852C603.905 426.669 604.147 426.434 604.309 426.146C604.475 425.857 604.558 425.554 604.558 425.236V424.162C604.508 424.222 604.399 424.276 604.23 424.326C604.064 424.372 603.872 424.414 603.653 424.45C603.438 424.483 603.227 424.513 603.022 424.54C602.819 424.563 602.655 424.583 602.529 424.599C602.225 424.639 601.94 424.704 601.674 424.793C601.413 424.879 601.2 425.01 601.038 425.186C600.879 425.358 600.799 425.594 600.799 425.892C600.799 426.3 600.95 426.608 601.252 426.817C601.557 427.022 601.943 427.125 602.41 427.125ZM608.032 428V417.818H609.205V421.577H609.305C609.391 421.444 609.51 421.275 609.662 421.07C609.818 420.861 610.04 420.675 610.329 420.513C610.62 420.347 611.015 420.264 611.512 420.264C612.155 420.264 612.722 420.425 613.212 420.746C613.703 421.068 614.086 421.524 614.361 422.114C614.636 422.704 614.773 423.4 614.773 424.202C614.773 425.01 614.636 425.711 614.361 426.305C614.086 426.895 613.704 427.352 613.217 427.677C612.73 427.998 612.168 428.159 611.532 428.159C611.041 428.159 610.648 428.078 610.354 427.915C610.059 427.75 609.831 427.562 609.672 427.354C609.513 427.142 609.391 426.966 609.305 426.827H609.165V428H608.032ZM609.185 424.182C609.185 424.759 609.27 425.267 609.439 425.708C609.608 426.146 609.855 426.489 610.18 426.737C610.504 426.982 610.902 427.105 611.373 427.105C611.863 427.105 612.273 426.976 612.601 426.717C612.932 426.455 613.181 426.104 613.346 425.663C613.515 425.219 613.6 424.725 613.6 424.182C613.6 423.645 613.517 423.161 613.351 422.73C613.189 422.296 612.942 421.953 612.611 421.701C612.282 421.446 611.87 421.318 611.373 421.318C610.895 421.318 610.494 421.439 610.17 421.681C609.845 421.92 609.599 422.254 609.434 422.685C609.268 423.113 609.185 423.612 609.185 424.182ZM619.77 428.159C619.034 428.159 618.399 427.997 617.866 427.672C617.335 427.344 616.926 426.886 616.638 426.3C616.353 425.71 616.21 425.024 616.21 424.241C616.21 423.459 616.353 422.77 616.638 422.173C616.926 421.573 617.327 421.106 617.841 420.771C618.358 420.433 618.961 420.264 619.65 420.264C620.048 420.264 620.441 420.33 620.829 420.463C621.216 420.596 621.569 420.811 621.888 421.109C622.206 421.404 622.459 421.795 622.648 422.283C622.837 422.77 622.932 423.37 622.932 424.082V424.58H617.045V423.565H621.738C621.738 423.134 621.652 422.75 621.48 422.412C621.311 422.074 621.069 421.807 620.754 421.612C620.443 421.416 620.075 421.318 619.65 421.318C619.183 421.318 618.779 421.434 618.437 421.666C618.099 421.895 617.839 422.193 617.657 422.561C617.474 422.929 617.383 423.323 617.383 423.744V424.42C617.383 424.997 617.483 425.486 617.682 425.887C617.884 426.285 618.164 426.588 618.522 426.797C618.88 427.002 619.296 427.105 619.77 427.105C620.078 427.105 620.356 427.062 620.605 426.976C620.857 426.886 621.074 426.754 621.256 426.578C621.439 426.399 621.579 426.177 621.679 425.912L622.812 426.23C622.693 426.615 622.492 426.953 622.211 427.244C621.929 427.533 621.581 427.758 621.167 427.92C620.752 428.08 620.287 428.159 619.77 428.159ZM625.89 417.818V428H624.716V417.818H625.89Z" fill="white" fill-opacity="0.7"/>
</g>
<rect x="574" y="437" width="2" height="24" fill="#8F8F8F"/>
<path d="M582 475C582 478.866 578.866 482 575 482C571.134 482 568 478.866 568 475C568 471.134 571.134 468 575 468C578.866 468 582 471.134 582 475Z" stroke="#64B4FA" stroke-width="2"/>
<g clip-path="url(#clip15_2029_9358)">
<path d="M592.268 480V469.818H593.501V478.906H598.234V480H592.268ZM602.231 480.179C601.747 480.179 601.308 480.088 600.914 479.906C600.519 479.72 600.206 479.453 599.974 479.105C599.742 478.754 599.626 478.33 599.626 477.832C599.626 477.395 599.712 477.04 599.885 476.768C600.057 476.493 600.287 476.278 600.576 476.122C600.864 475.966 601.182 475.85 601.53 475.774C601.882 475.695 602.234 475.632 602.589 475.585C603.053 475.526 603.429 475.481 603.718 475.451C604.009 475.418 604.221 475.363 604.354 475.287C604.49 475.211 604.558 475.078 604.558 474.889V474.849C604.558 474.359 604.424 473.978 604.155 473.706C603.89 473.434 603.487 473.298 602.947 473.298C602.387 473.298 601.948 473.421 601.63 473.666C601.311 473.911 601.088 474.173 600.958 474.452L599.845 474.054C600.044 473.59 600.309 473.229 600.64 472.97C600.975 472.708 601.34 472.526 601.734 472.423C602.132 472.317 602.523 472.264 602.907 472.264C603.153 472.264 603.434 472.294 603.752 472.354C604.074 472.41 604.384 472.528 604.682 472.707C604.984 472.886 605.234 473.156 605.433 473.517C605.632 473.878 605.731 474.362 605.731 474.969V480H604.558V478.966H604.498C604.419 479.132 604.286 479.309 604.1 479.498C603.915 479.687 603.668 479.848 603.36 479.98C603.051 480.113 602.675 480.179 602.231 480.179ZM602.41 479.125C602.874 479.125 603.265 479.034 603.583 478.852C603.905 478.669 604.147 478.434 604.309 478.146C604.475 477.857 604.558 477.554 604.558 477.236V476.162C604.508 476.222 604.399 476.276 604.23 476.326C604.064 476.372 603.872 476.414 603.653 476.45C603.438 476.483 603.227 476.513 603.022 476.54C602.819 476.563 602.655 476.583 602.529 476.599C602.225 476.639 601.94 476.704 601.674 476.793C601.413 476.879 601.2 477.01 601.038 477.186C600.879 477.358 600.799 477.594 600.799 477.892C600.799 478.3 600.95 478.608 601.252 478.817C601.557 479.022 601.943 479.125 602.41 479.125ZM608.032 480V469.818H609.205V473.577H609.305C609.391 473.444 609.51 473.275 609.662 473.07C609.818 472.861 610.04 472.675 610.329 472.513C610.62 472.347 611.015 472.264 611.512 472.264C612.155 472.264 612.722 472.425 613.212 472.746C613.703 473.068 614.086 473.524 614.361 474.114C614.636 474.704 614.773 475.4 614.773 476.202C614.773 477.01 614.636 477.711 614.361 478.305C614.086 478.895 613.704 479.352 613.217 479.677C612.73 479.998 612.168 480.159 611.532 480.159C611.041 480.159 610.648 480.078 610.354 479.915C610.059 479.75 609.831 479.562 609.672 479.354C609.513 479.142 609.391 478.966 609.305 478.827H609.165V480H608.032ZM609.185 476.182C609.185 476.759 609.27 477.267 609.439 477.708C609.608 478.146 609.855 478.489 610.18 478.737C610.504 478.982 610.902 479.105 611.373 479.105C611.863 479.105 612.273 478.976 612.601 478.717C612.932 478.455 613.181 478.104 613.346 477.663C613.515 477.219 613.6 476.725 613.6 476.182C613.6 475.645 613.517 475.161 613.351 474.73C613.189 474.296 612.942 473.953 612.611 473.701C612.282 473.446 611.87 473.318 611.373 473.318C610.895 473.318 610.494 473.439 610.17 473.681C609.845 473.92 609.599 474.254 609.434 474.685C609.268 475.113 609.185 475.612 609.185 476.182ZM619.77 480.159C619.034 480.159 618.399 479.997 617.866 479.672C617.335 479.344 616.926 478.886 616.638 478.3C616.353 477.71 616.21 477.024 616.21 476.241C616.21 475.459 616.353 474.77 616.638 474.173C616.926 473.573 617.327 473.106 617.841 472.771C618.358 472.433 618.961 472.264 619.65 472.264C620.048 472.264 620.441 472.33 620.829 472.463C621.216 472.596 621.569 472.811 621.888 473.109C622.206 473.404 622.459 473.795 622.648 474.283C622.837 474.77 622.932 475.37 622.932 476.082V476.58H617.045V475.565H621.738C621.738 475.134 621.652 474.75 621.48 474.412C621.311 474.074 621.069 473.807 620.754 473.612C620.443 473.416 620.075 473.318 619.65 473.318C619.183 473.318 618.779 473.434 618.437 473.666C618.099 473.895 617.839 474.193 617.657 474.561C617.474 474.929 617.383 475.323 617.383 475.744V476.42C617.383 476.997 617.483 477.486 617.682 477.887C617.884 478.285 618.164 478.588 618.522 478.797C618.88 479.002 619.296 479.105 619.77 479.105C620.078 479.105 620.356 479.062 620.605 478.976C620.857 478.886 621.074 478.754 621.256 478.578C621.439 478.399 621.579 478.177 621.679 477.912L622.812 478.23C622.693 478.615 622.492 478.953 622.211 479.244C621.929 479.533 621.581 479.758 621.167 479.92C620.752 480.08 620.287 480.159 619.77 480.159ZM625.89 469.818V480H624.716V469.818H625.89Z" fill="white" fill-opacity="0.7"/>
</g>
<rect x="574" y="489" width="2" height="24" fill="#8F8F8F"/>
<path d="M582 527C582 530.866 578.866 534 575 534C571.134 534 568 530.866 568 527C568 523.134 571.134 520 575 520C578.866 520 582 523.134 582 527Z" stroke="#64B4FA" stroke-width="2"/>
<g clip-path="url(#clip16_2029_9358)">
<path d="M592.268 532V521.818H593.501V530.906H598.234V532H592.268ZM602.231 532.179C601.747 532.179 601.308 532.088 600.914 531.906C600.519 531.72 600.206 531.453 599.974 531.105C599.742 530.754 599.626 530.33 599.626 529.832C599.626 529.395 599.712 529.04 599.885 528.768C600.057 528.493 600.287 528.278 600.576 528.122C600.864 527.966 601.182 527.85 601.53 527.774C601.882 527.695 602.234 527.632 602.589 527.585C603.053 527.526 603.429 527.481 603.718 527.451C604.009 527.418 604.221 527.363 604.354 527.287C604.49 527.211 604.558 527.078 604.558 526.889V526.849C604.558 526.359 604.424 525.978 604.155 525.706C603.89 525.434 603.487 525.298 602.947 525.298C602.387 525.298 601.948 525.421 601.63 525.666C601.311 525.911 601.088 526.173 600.958 526.452L599.845 526.054C600.044 525.59 600.309 525.229 600.64 524.97C600.975 524.708 601.34 524.526 601.734 524.423C602.132 524.317 602.523 524.264 602.907 524.264C603.153 524.264 603.434 524.294 603.752 524.354C604.074 524.41 604.384 524.528 604.682 524.707C604.984 524.886 605.234 525.156 605.433 525.517C605.632 525.878 605.731 526.362 605.731 526.969V532H604.558V530.966H604.498C604.419 531.132 604.286 531.309 604.1 531.498C603.915 531.687 603.668 531.848 603.36 531.98C603.051 532.113 602.675 532.179 602.231 532.179ZM602.41 531.125C602.874 531.125 603.265 531.034 603.583 530.852C603.905 530.669 604.147 530.434 604.309 530.146C604.475 529.857 604.558 529.554 604.558 529.236V528.162C604.508 528.222 604.399 528.276 604.23 528.326C604.064 528.372 603.872 528.414 603.653 528.45C603.438 528.483 603.227 528.513 603.022 528.54C602.819 528.563 602.655 528.583 602.529 528.599C602.225 528.639 601.94 528.704 601.674 528.793C601.413 528.879 601.2 529.01 601.038 529.186C600.879 529.358 600.799 529.594 600.799 529.892C600.799 530.3 600.95 530.608 601.252 530.817C601.557 531.022 601.943 531.125 602.41 531.125ZM608.032 532V521.818H609.205V525.577H609.305C609.391 525.444 609.51 525.275 609.662 525.07C609.818 524.861 610.04 524.675 610.329 524.513C610.62 524.347 611.015 524.264 611.512 524.264C612.155 524.264 612.722 524.425 613.212 524.746C613.703 525.068 614.086 525.524 614.361 526.114C614.636 526.704 614.773 527.4 614.773 528.202C614.773 529.01 614.636 529.711 614.361 530.305C614.086 530.895 613.704 531.352 613.217 531.677C612.73 531.998 612.168 532.159 611.532 532.159C611.041 532.159 610.648 532.078 610.354 531.915C610.059 531.75 609.831 531.562 609.672 531.354C609.513 531.142 609.391 530.966 609.305 530.827H609.165V532H608.032ZM609.185 528.182C609.185 528.759 609.27 529.267 609.439 529.708C609.608 530.146 609.855 530.489 610.18 530.737C610.504 530.982 610.902 531.105 611.373 531.105C611.863 531.105 612.273 530.976 612.601 530.717C612.932 530.455 613.181 530.104 613.346 529.663C613.515 529.219 613.6 528.725 613.6 528.182C613.6 527.645 613.517 527.161 613.351 526.73C613.189 526.296 612.942 525.953 612.611 525.701C612.282 525.446 611.87 525.318 611.373 525.318C610.895 525.318 610.494 525.439 610.17 525.681C609.845 525.92 609.599 526.254 609.434 526.685C609.268 527.113 609.185 527.612 609.185 528.182ZM619.77 532.159C619.034 532.159 618.399 531.997 617.866 531.672C617.335 531.344 616.926 530.886 616.638 530.3C616.353 529.71 616.21 529.024 616.21 528.241C616.21 527.459 616.353 526.77 616.638 526.173C616.926 525.573 617.327 525.106 617.841 524.771C618.358 524.433 618.961 524.264 619.65 524.264C620.048 524.264 620.441 524.33 620.829 524.463C621.216 524.596 621.569 524.811 621.888 525.109C622.206 525.404 622.459 525.795 622.648 526.283C622.837 526.77 622.932 527.37 622.932 528.082V528.58H617.045V527.565H621.738C621.738 527.134 621.652 526.75 621.48 526.412C621.311 526.074 621.069 525.807 620.754 525.612C620.443 525.416 620.075 525.318 619.65 525.318C619.183 525.318 618.779 525.434 618.437 525.666C618.099 525.895 617.839 526.193 617.657 526.561C617.474 526.929 617.383 527.323 617.383 527.744V528.42C617.383 528.997 617.483 529.486 617.682 529.887C617.884 530.285 618.164 530.588 618.522 530.797C618.88 531.002 619.296 531.105 619.77 531.105C620.078 531.105 620.356 531.062 620.605 530.976C620.857 530.886 621.074 530.754 621.256 530.578C621.439 530.399 621.579 530.177 621.679 529.912L622.812 530.23C622.693 530.615 622.492 530.953 622.211 531.244C621.929 531.533 621.581 531.758 621.167 531.92C620.752 532.08 620.287 532.159 619.77 532.159ZM625.89 521.818V532H624.716V521.818H625.89Z" fill="white" fill-opacity="0.7"/>
</g>
<defs>
<clipPath id="clip0_2029_9358">
<rect width="36" height="20" fill="white" transform="translate(215 124)"/>
</clipPath>
<clipPath id="clip1_2029_9358">
<rect width="36" height="20" fill="white" transform="translate(397 124)"/>
</clipPath>
<clipPath id="clip2_2029_9358">
<rect width="36" height="20" fill="white" transform="translate(579 124)"/>
</clipPath>
<clipPath id="clip3_2029_9358">
<rect width="160" height="21" fill="white" transform="translate(699 124)"/>
</clipPath>
<clipPath id="clip4_2029_9358">
<rect width="36" height="20" fill="white" transform="translate(943 124)"/>
</clipPath>
<clipPath id="clip5_2029_9358">
<rect width="114" height="21" fill="white" transform="translate(300 190.5)"/>
</clipPath>
<clipPath id="clip6_2029_9358">
<rect width="36" height="20" fill="white" transform="translate(478 191)"/>
</clipPath>
<clipPath id="clip7_2029_9358">
<rect width="36" height="20" fill="white" transform="translate(578 191)"/>
</clipPath>
<clipPath id="clip8_2029_9358">
<rect width="36" height="20" fill="white" transform="translate(678 191)"/>
</clipPath>
<clipPath id="clip9_2029_9358">
<rect width="36" height="20" fill="white" transform="translate(778 191)"/>
</clipPath>
<clipPath id="clip10_2029_9358">
<rect width="36" height="20" fill="white" transform="translate(878 191)"/>
</clipPath>
<clipPath id="clip11_2029_9358">
<rect width="36" height="20" fill="white" transform="translate(591 257)"/>
</clipPath>
<clipPath id="clip12_2029_9358">
<rect width="36" height="20" fill="white" transform="translate(591 309)"/>
</clipPath>
<clipPath id="clip13_2029_9358">
<rect width="36" height="20" fill="white" transform="translate(591 361)"/>
</clipPath>
<clipPath id="clip14_2029_9358">
<rect width="36" height="20" fill="white" transform="translate(591 413)"/>
</clipPath>
<clipPath id="clip15_2029_9358">
<rect width="36" height="20" fill="white" transform="translate(591 465)"/>
</clipPath>
<clipPath id="clip16_2029_9358">
<rect width="36" height="20" fill="white" transform="translate(591 517)"/>
</clipPath>
</defs>
</svg>
