<svg width="1150" height="247" viewBox="0 0 1150 247" fill="none" xmlns="http://www.w3.org/2000/svg">
<rect width="1150" height="247" rx="16" fill="#1A1A1A"/>
<path d="M400 109C400 112.866 396.866 116 393 116C389.134 116 386 112.866 386 109C386 105.134 389.134 102 393 102C396.866 102 400 105.134 400 109Z" stroke="#64B4FA" stroke-width="2"/>
<g clip-path="url(#clip0_2031_6460)">
<path d="M376.268 140V129.818H377.501V138.906H382.234V140H376.268ZM386.231 140.179C385.747 140.179 385.308 140.088 384.914 139.906C384.519 139.72 384.206 139.453 383.974 139.105C383.742 138.754 383.626 138.33 383.626 137.832C383.626 137.395 383.712 137.04 383.885 136.768C384.057 136.493 384.287 136.278 384.576 136.122C384.864 135.966 385.182 135.85 385.53 135.774C385.882 135.695 386.234 135.632 386.589 135.585C387.053 135.526 387.429 135.481 387.718 135.451C388.009 135.418 388.221 135.363 388.354 135.287C388.49 135.211 388.558 135.078 388.558 134.889V134.849C388.558 134.359 388.424 133.978 388.155 133.706C387.89 133.434 387.487 133.298 386.947 133.298C386.387 133.298 385.948 133.421 385.63 133.666C385.311 133.911 385.088 134.173 384.958 134.452L383.845 134.054C384.044 133.59 384.309 133.229 384.64 132.97C384.975 132.708 385.34 132.526 385.734 132.423C386.132 132.317 386.523 132.264 386.907 132.264C387.153 132.264 387.434 132.294 387.752 132.354C388.074 132.41 388.384 132.528 388.682 132.707C388.984 132.886 389.234 133.156 389.433 133.517C389.632 133.878 389.731 134.362 389.731 134.969V140H388.558V138.966H388.498C388.419 139.132 388.286 139.309 388.1 139.498C387.915 139.687 387.668 139.848 387.36 139.98C387.051 140.113 386.675 140.179 386.231 140.179ZM386.41 139.125C386.874 139.125 387.265 139.034 387.583 138.852C387.905 138.669 388.147 138.434 388.309 138.146C388.475 137.857 388.558 137.554 388.558 137.236V136.162C388.508 136.222 388.399 136.276 388.23 136.326C388.064 136.372 387.872 136.414 387.653 136.45C387.438 136.483 387.227 136.513 387.022 136.54C386.819 136.563 386.655 136.583 386.529 136.599C386.225 136.639 385.94 136.704 385.674 136.793C385.413 136.879 385.2 137.01 385.038 137.186C384.879 137.358 384.799 137.594 384.799 137.892C384.799 138.3 384.95 138.608 385.252 138.817C385.557 139.022 385.943 139.125 386.41 139.125ZM392.032 140V129.818H393.205V133.577H393.305C393.391 133.444 393.51 133.275 393.662 133.07C393.818 132.861 394.04 132.675 394.329 132.513C394.62 132.347 395.015 132.264 395.512 132.264C396.155 132.264 396.722 132.425 397.212 132.746C397.703 133.068 398.086 133.524 398.361 134.114C398.636 134.704 398.773 135.4 398.773 136.202C398.773 137.01 398.636 137.711 398.361 138.305C398.086 138.895 397.704 139.352 397.217 139.677C396.73 139.998 396.168 140.159 395.532 140.159C395.041 140.159 394.648 140.078 394.354 139.915C394.059 139.75 393.831 139.562 393.672 139.354C393.513 139.142 393.391 138.966 393.305 138.827H393.165V140H392.032ZM393.185 136.182C393.185 136.759 393.27 137.267 393.439 137.708C393.608 138.146 393.855 138.489 394.18 138.737C394.504 138.982 394.902 139.105 395.373 139.105C395.863 139.105 396.273 138.976 396.601 138.717C396.932 138.455 397.181 138.104 397.346 137.663C397.515 137.219 397.6 136.725 397.6 136.182C397.6 135.645 397.517 135.161 397.351 134.73C397.189 134.296 396.942 133.953 396.611 133.701C396.282 133.446 395.87 133.318 395.373 133.318C394.895 133.318 394.494 133.439 394.17 133.681C393.845 133.92 393.599 134.254 393.434 134.685C393.268 135.113 393.185 135.612 393.185 136.182ZM403.77 140.159C403.034 140.159 402.399 139.997 401.866 139.672C401.335 139.344 400.926 138.886 400.638 138.3C400.353 137.71 400.21 137.024 400.21 136.241C400.21 135.459 400.353 134.77 400.638 134.173C400.926 133.573 401.327 133.106 401.841 132.771C402.358 132.433 402.961 132.264 403.65 132.264C404.048 132.264 404.441 132.33 404.829 132.463C405.216 132.596 405.569 132.811 405.888 133.109C406.206 133.404 406.459 133.795 406.648 134.283C406.837 134.77 406.932 135.37 406.932 136.082V136.58H401.045V135.565H405.738C405.738 135.134 405.652 134.75 405.48 134.412C405.311 134.074 405.069 133.807 404.754 133.612C404.443 133.416 404.075 133.318 403.65 133.318C403.183 133.318 402.779 133.434 402.437 133.666C402.099 133.895 401.839 134.193 401.657 134.561C401.474 134.929 401.383 135.323 401.383 135.744V136.42C401.383 136.997 401.483 137.486 401.682 137.887C401.884 138.285 402.164 138.588 402.522 138.797C402.88 139.002 403.296 139.105 403.77 139.105C404.078 139.105 404.356 139.062 404.605 138.976C404.857 138.886 405.074 138.754 405.256 138.578C405.439 138.399 405.579 138.177 405.679 137.912L406.812 138.23C406.693 138.615 406.492 138.953 406.211 139.244C405.929 139.533 405.581 139.758 405.167 139.92C404.752 140.08 404.287 140.159 403.77 140.159ZM409.89 129.818V140H408.716V129.818H409.89Z" fill="white" fill-opacity="0.7"/>
</g>
<rect x="409" y="108" width="150" height="2" fill="#8F8F8F"/>
<path d="M582 109C582 112.866 578.866 116 575 116C571.134 116 568 112.866 568 109C568 105.134 571.134 102 575 102C578.866 102 582 105.134 582 109Z" stroke="#64B4FA" stroke-width="2"/>
<g clip-path="url(#clip1_2031_6460)">
<path d="M524.872 133.493C524.819 133.022 524.6 132.658 524.216 132.399C523.831 132.137 523.347 132.006 522.764 132.006C522.347 132.006 521.985 132.073 521.68 132.205C521.375 132.335 521.138 132.513 520.969 132.742C520.804 132.968 520.721 133.224 520.721 133.513C520.721 133.755 520.777 133.964 520.89 134.139C521.006 134.315 521.157 134.462 521.342 134.582C521.531 134.698 521.733 134.795 521.949 134.875C522.164 134.951 522.371 135.014 522.57 135.064L523.565 135.322C523.889 135.402 524.222 135.51 524.564 135.646C524.905 135.781 525.222 135.96 525.513 136.183C525.805 136.405 526.04 136.68 526.219 137.008C526.402 137.336 526.493 137.729 526.493 138.186C526.493 138.763 526.344 139.275 526.045 139.722C525.75 140.17 525.321 140.523 524.758 140.781C524.198 141.04 523.52 141.169 522.724 141.169C521.962 141.169 521.302 141.048 520.746 140.806C520.189 140.564 519.753 140.221 519.438 139.777C519.123 139.33 518.949 138.799 518.916 138.186H520.457C520.487 138.554 520.606 138.861 520.815 139.106C521.027 139.348 521.297 139.528 521.626 139.648C521.957 139.764 522.32 139.822 522.714 139.822C523.149 139.822 523.535 139.754 523.873 139.618C524.214 139.479 524.483 139.286 524.678 139.041C524.874 138.793 524.972 138.503 524.972 138.171C524.972 137.87 524.885 137.623 524.713 137.43C524.544 137.238 524.314 137.079 524.022 136.953C523.734 136.827 523.407 136.716 523.043 136.62L521.839 136.292C521.024 136.07 520.378 135.743 519.9 135.312C519.427 134.882 519.19 134.312 519.19 133.602C519.19 133.016 519.349 132.504 519.667 132.066C519.985 131.629 520.416 131.289 520.959 131.047C521.503 130.802 522.116 130.679 522.799 130.679C523.488 130.679 524.097 130.8 524.623 131.042C525.154 131.284 525.571 131.617 525.876 132.041C526.181 132.462 526.34 132.946 526.354 133.493H524.872ZM531.774 133.364V134.557H527.603V133.364H531.774ZM528.721 131.534H530.208V138.758C530.208 139.046 530.251 139.263 530.337 139.409C530.423 139.552 530.534 139.649 530.67 139.702C530.809 139.752 530.96 139.777 531.123 139.777C531.242 139.777 531.346 139.769 531.436 139.752C531.525 139.736 531.595 139.722 531.645 139.712L531.913 140.94C531.827 140.973 531.704 141.007 531.545 141.04C531.386 141.076 531.187 141.096 530.949 141.099C530.557 141.106 530.193 141.036 529.855 140.891C529.517 140.745 529.243 140.519 529.035 140.214C528.826 139.91 528.721 139.527 528.721 139.066V131.534ZM536.627 141.154C535.875 141.154 535.227 140.993 534.684 140.672C534.143 140.347 533.726 139.891 533.431 139.305C533.139 138.715 532.993 138.024 532.993 137.232C532.993 136.449 533.139 135.76 533.431 135.163C533.726 134.567 534.137 134.101 534.664 133.766C535.194 133.432 535.814 133.264 536.523 133.264C536.954 133.264 537.371 133.335 537.776 133.478C538.18 133.621 538.543 133.844 538.865 134.149C539.186 134.454 539.44 134.85 539.625 135.337C539.811 135.821 539.904 136.41 539.904 137.102V137.629H533.833V136.516H538.447C538.447 136.125 538.367 135.778 538.208 135.477C538.049 135.172 537.826 134.931 537.537 134.756C537.252 134.58 536.917 134.492 536.533 134.492C536.115 134.492 535.751 134.595 535.439 134.8C535.131 135.003 534.892 135.268 534.723 135.596C534.558 135.921 534.475 136.274 534.475 136.655V137.525C534.475 138.035 534.564 138.469 534.743 138.827C534.925 139.185 535.179 139.459 535.504 139.648C535.829 139.833 536.208 139.926 536.642 139.926C536.924 139.926 537.181 139.886 537.413 139.807C537.645 139.724 537.845 139.601 538.014 139.439C538.184 139.277 538.313 139.076 538.402 138.837L539.809 139.091C539.697 139.505 539.494 139.868 539.203 140.18C538.914 140.488 538.551 140.728 538.114 140.901C537.68 141.07 537.184 141.154 536.627 141.154ZM541.553 143.864V133.364H543.005V134.602H543.129C543.215 134.442 543.339 134.259 543.502 134.05C543.664 133.841 543.89 133.659 544.178 133.503C544.466 133.344 544.848 133.264 545.321 133.264C545.938 133.264 546.488 133.42 546.972 133.732C547.456 134.043 547.835 134.492 548.111 135.079C548.389 135.665 548.528 136.371 548.528 137.197C548.528 138.022 548.391 138.73 548.116 139.32C547.84 139.906 547.463 140.359 546.982 140.677C546.501 140.992 545.953 141.149 545.336 141.149C544.872 141.149 544.493 141.071 544.198 140.915C543.906 140.76 543.678 140.577 543.512 140.369C543.346 140.16 543.218 139.974 543.129 139.812H543.04V143.864H541.553ZM543.01 137.182C543.01 137.719 543.088 138.189 543.243 138.594C543.399 138.998 543.624 139.315 543.919 139.543C544.214 139.769 544.576 139.881 545.003 139.881C545.447 139.881 545.819 139.764 546.117 139.528C546.415 139.29 546.641 138.967 546.793 138.559C546.949 138.151 547.027 137.692 547.027 137.182C547.027 136.678 546.95 136.226 546.798 135.825C546.649 135.424 546.424 135.107 546.122 134.875C545.824 134.643 545.451 134.527 545.003 134.527C544.572 134.527 544.208 134.638 543.91 134.86C543.615 135.082 543.391 135.392 543.238 135.79C543.086 136.187 543.01 136.652 543.01 137.182ZM555.385 130.818V141H553.899V130.818H555.385ZM559.607 141.169C559.123 141.169 558.686 141.08 558.295 140.901C557.904 140.718 557.594 140.455 557.365 140.11C557.14 139.765 557.027 139.343 557.027 138.842C557.027 138.411 557.11 138.057 557.276 137.778C557.441 137.5 557.665 137.28 557.947 137.117C558.229 136.955 558.543 136.832 558.891 136.749C559.239 136.666 559.594 136.603 559.955 136.56C560.413 136.507 560.784 136.464 561.069 136.431C561.354 136.395 561.561 136.337 561.69 136.257C561.82 136.178 561.884 136.048 561.884 135.869V135.835C561.884 135.4 561.762 135.064 561.516 134.825C561.274 134.587 560.913 134.467 560.433 134.467C559.932 134.467 559.538 134.578 559.249 134.8C558.964 135.019 558.767 135.263 558.658 135.531L557.261 135.213C557.426 134.749 557.668 134.375 557.987 134.089C558.308 133.801 558.678 133.592 559.095 133.463C559.513 133.33 559.952 133.264 560.413 133.264C560.718 133.264 561.041 133.301 561.382 133.374C561.727 133.443 562.048 133.572 562.347 133.761C562.648 133.95 562.895 134.22 563.087 134.572C563.28 134.92 563.376 135.372 563.376 135.929V141H561.924V139.956H561.864C561.768 140.148 561.624 140.337 561.432 140.523C561.24 140.708 560.993 140.862 560.691 140.985C560.39 141.108 560.028 141.169 559.607 141.169ZM559.93 139.976C560.341 139.976 560.693 139.895 560.984 139.732C561.279 139.57 561.503 139.358 561.656 139.096C561.811 138.831 561.889 138.547 561.889 138.246V137.261C561.836 137.314 561.734 137.364 561.581 137.411C561.432 137.454 561.261 137.492 561.069 137.525C560.877 137.555 560.689 137.583 560.507 137.609C560.325 137.633 560.172 137.652 560.05 137.669C559.761 137.705 559.498 137.767 559.259 137.853C559.024 137.939 558.835 138.063 558.693 138.226C558.553 138.385 558.484 138.597 558.484 138.862C558.484 139.23 558.62 139.509 558.891 139.697C559.163 139.883 559.51 139.976 559.93 139.976ZM565.475 141V130.818H566.962V134.602H567.051C567.137 134.442 567.262 134.259 567.424 134.05C567.586 133.841 567.812 133.659 568.1 133.503C568.388 133.344 568.77 133.264 569.244 133.264C569.86 133.264 570.41 133.42 570.894 133.732C571.378 134.043 571.757 134.492 572.033 135.079C572.311 135.665 572.45 136.371 572.45 137.197C572.45 138.022 572.313 138.73 572.038 139.32C571.762 139.906 571.385 140.359 570.904 140.677C570.423 140.992 569.875 141.149 569.258 141.149C568.794 141.149 568.415 141.071 568.12 140.915C567.828 140.76 567.6 140.577 567.434 140.369C567.268 140.16 567.141 139.974 567.051 139.812H566.927V141H565.475ZM566.932 137.182C566.932 137.719 567.01 138.189 567.165 138.594C567.321 138.998 567.547 139.315 567.842 139.543C568.137 139.769 568.498 139.881 568.925 139.881C569.369 139.881 569.741 139.764 570.039 139.528C570.337 139.29 570.563 138.967 570.715 138.559C570.871 138.151 570.949 137.692 570.949 137.182C570.949 136.678 570.873 136.226 570.72 135.825C570.571 135.424 570.346 135.107 570.044 134.875C569.746 134.643 569.373 134.527 568.925 134.527C568.494 134.527 568.13 134.638 567.832 134.86C567.537 135.082 567.313 135.392 567.16 135.79C567.008 136.187 566.932 136.652 566.932 137.182ZM577.411 141.154C576.658 141.154 576.01 140.993 575.467 140.672C574.926 140.347 574.509 139.891 574.214 139.305C573.922 138.715 573.776 138.024 573.776 137.232C573.776 136.449 573.922 135.76 574.214 135.163C574.509 134.567 574.92 134.101 575.447 133.766C575.977 133.432 576.597 133.264 577.306 133.264C577.737 133.264 578.155 133.335 578.559 133.478C578.963 133.621 579.326 133.844 579.648 134.149C579.969 134.454 580.223 134.85 580.408 135.337C580.594 135.821 580.687 136.41 580.687 137.102V137.629H574.617V136.516H579.23C579.23 136.125 579.151 135.778 578.992 135.477C578.832 135.172 578.609 134.931 578.32 134.756C578.035 134.58 577.701 134.492 577.316 134.492C576.899 134.492 576.534 134.595 576.222 134.8C575.914 135.003 575.676 135.268 575.506 135.596C575.341 135.921 575.258 136.274 575.258 136.655V137.525C575.258 138.035 575.347 138.469 575.526 138.827C575.709 139.185 575.962 139.459 576.287 139.648C576.612 139.833 576.991 139.926 577.426 139.926C577.707 139.926 577.964 139.886 578.196 139.807C578.428 139.724 578.629 139.601 578.798 139.439C578.967 139.277 579.096 139.076 579.185 138.837L580.592 139.091C580.48 139.505 580.278 139.868 579.986 140.18C579.698 140.488 579.335 140.728 578.897 140.901C578.463 141.07 577.967 141.154 577.411 141.154ZM583.823 130.818V141H582.336V130.818H583.823ZM590.322 136.053V137.341H585.808V136.053H590.322ZM594.525 141.169C594.041 141.169 593.604 141.08 593.213 140.901C592.822 140.718 592.512 140.455 592.283 140.11C592.058 139.765 591.945 139.343 591.945 138.842C591.945 138.411 592.028 138.057 592.194 137.778C592.359 137.5 592.583 137.28 592.865 137.117C593.147 136.955 593.461 136.832 593.809 136.749C594.157 136.666 594.512 136.603 594.873 136.56C595.331 136.507 595.702 136.464 595.987 136.431C596.272 136.395 596.479 136.337 596.608 136.257C596.738 136.178 596.802 136.048 596.802 135.869V135.835C596.802 135.4 596.68 135.064 596.434 134.825C596.192 134.587 595.831 134.467 595.351 134.467C594.85 134.467 594.456 134.578 594.167 134.8C593.882 135.019 593.685 135.263 593.576 135.531L592.179 135.213C592.344 134.749 592.586 134.375 592.905 134.089C593.226 133.801 593.596 133.592 594.013 133.463C594.431 133.33 594.87 133.264 595.331 133.264C595.636 133.264 595.959 133.301 596.3 133.374C596.645 133.443 596.966 133.572 597.265 133.761C597.566 133.95 597.813 134.22 598.005 134.572C598.198 134.92 598.294 135.372 598.294 135.929V141H596.842V139.956H596.782C596.686 140.148 596.542 140.337 596.35 140.523C596.158 140.708 595.911 140.862 595.609 140.985C595.307 141.108 594.946 141.169 594.525 141.169ZM594.848 139.976C595.259 139.976 595.611 139.895 595.902 139.732C596.197 139.57 596.421 139.358 596.574 139.096C596.729 138.831 596.807 138.547 596.807 138.246V137.261C596.754 137.314 596.651 137.364 596.499 137.411C596.35 137.454 596.179 137.492 595.987 137.525C595.795 137.555 595.607 137.583 595.425 137.609C595.243 137.633 595.09 137.652 594.968 137.669C594.679 137.705 594.416 137.767 594.177 137.853C593.942 137.939 593.753 138.063 593.611 138.226C593.471 138.385 593.402 138.597 593.402 138.862C593.402 139.23 593.538 139.509 593.809 139.697C594.081 139.883 594.428 139.976 594.848 139.976ZM603.49 141.154C602.751 141.154 602.115 140.987 601.581 140.652C601.051 140.314 600.643 139.848 600.358 139.255C600.073 138.662 599.931 137.982 599.931 137.217C599.931 136.441 600.076 135.757 600.368 135.163C600.66 134.567 601.071 134.101 601.601 133.766C602.131 133.432 602.756 133.264 603.475 133.264C604.055 133.264 604.572 133.372 605.027 133.587C605.481 133.799 605.847 134.098 606.125 134.482C606.407 134.867 606.574 135.316 606.627 135.83H605.181C605.101 135.472 604.919 135.163 604.634 134.905C604.352 134.646 603.974 134.517 603.5 134.517C603.086 134.517 602.723 134.626 602.411 134.845C602.103 135.061 601.863 135.369 601.691 135.77C601.518 136.168 601.432 136.638 601.432 137.182C601.432 137.739 601.517 138.219 601.686 138.624C601.855 139.028 602.093 139.341 602.402 139.563C602.713 139.785 603.079 139.896 603.5 139.896C603.782 139.896 604.037 139.845 604.266 139.742C604.498 139.636 604.692 139.485 604.848 139.29C605.007 139.094 605.118 138.859 605.181 138.584H606.627C606.574 139.078 606.414 139.518 606.145 139.906C605.877 140.294 605.517 140.599 605.066 140.821C604.619 141.043 604.094 141.154 603.49 141.154ZM611.782 133.364V134.557H607.611V133.364H611.782ZM608.729 131.534H610.216V138.758C610.216 139.046 610.259 139.263 610.345 139.409C610.431 139.552 610.542 139.649 610.678 139.702C610.817 139.752 610.968 139.777 611.13 139.777C611.25 139.777 611.354 139.769 611.444 139.752C611.533 139.736 611.603 139.722 611.652 139.712L611.921 140.94C611.835 140.973 611.712 141.007 611.553 141.04C611.394 141.076 611.195 141.096 610.956 141.099C610.565 141.106 610.201 141.036 609.863 140.891C609.525 140.745 609.251 140.519 609.042 140.214C608.834 139.91 608.729 139.527 608.729 139.066V131.534ZM613.426 141V133.364H614.913V141H613.426ZM614.177 132.185C613.918 132.185 613.696 132.099 613.511 131.927C613.328 131.751 613.237 131.542 613.237 131.3C613.237 131.055 613.328 130.846 613.511 130.674C613.696 130.498 613.918 130.411 614.177 130.411C614.435 130.411 614.656 130.498 614.838 130.674C615.024 130.846 615.116 131.055 615.116 131.3C615.116 131.542 615.024 131.751 614.838 131.927C614.656 132.099 614.435 132.185 614.177 132.185ZM623.445 133.364L620.676 141H619.085L616.311 133.364H617.907L619.841 139.24H619.92L621.849 133.364H623.445ZM627.873 141.154C627.121 141.154 626.473 140.993 625.93 140.672C625.389 140.347 624.972 139.891 624.677 139.305C624.385 138.715 624.239 138.024 624.239 137.232C624.239 136.449 624.385 135.76 624.677 135.163C624.972 134.567 625.383 134.101 625.91 133.766C626.44 133.432 627.06 133.264 627.769 133.264C628.2 133.264 628.618 133.335 629.022 133.478C629.426 133.621 629.789 133.844 630.111 134.149C630.432 134.454 630.686 134.85 630.871 135.337C631.057 135.821 631.15 136.41 631.15 137.102V137.629H625.079V136.516H629.693C629.693 136.125 629.614 135.778 629.454 135.477C629.295 135.172 629.072 134.931 628.783 134.756C628.498 134.58 628.164 134.492 627.779 134.492C627.361 134.492 626.997 134.595 626.685 134.8C626.377 135.003 626.138 135.268 625.969 135.596C625.804 135.921 625.721 136.274 625.721 136.655V137.525C625.721 138.035 625.81 138.469 625.989 138.827C626.172 139.185 626.425 139.459 626.75 139.648C627.075 139.833 627.454 139.926 627.888 139.926C628.17 139.926 628.427 139.886 628.659 139.807C628.891 139.724 629.092 139.601 629.261 139.439C629.43 139.277 629.559 139.076 629.648 138.837L631.055 139.091C630.943 139.505 630.74 139.868 630.449 140.18C630.16 140.488 629.797 140.728 629.36 140.901C628.926 141.07 628.43 141.154 627.873 141.154Z" fill="white" fill-opacity="0.95"/>
</g>
<rect x="591" y="108" width="150" height="2" fill="#8F8F8F"/>
<path fill-rule="evenodd" clip-rule="evenodd" d="M757 117C761.418 117 765 113.418 765 109C765 104.582 761.418 101 757 101C752.582 101 749 104.582 749 109C749 113.418 752.582 117 757 117Z" fill="#3492EB"/>
<g clip-path="url(#clip2_2031_6460)">
<path d="M725.205 140H723.623L722.629 137.452H717.827L716.819 140H715.321L719.465 129.92H721.075L725.205 140ZM720.249 131.348L718.289 136.29H722.167L720.249 131.348ZM730.442 138.026C730.442 137.615 730.227 137.307 729.798 137.102C729.546 136.99 729.056 136.85 728.328 136.682C727.432 136.486 726.793 136.201 726.41 135.828C726.093 135.511 725.934 135.095 725.934 134.582C725.934 133.901 726.209 133.378 726.76 133.014C727.255 132.678 727.922 132.51 728.762 132.51C729.63 132.51 730.335 132.725 730.876 133.154C731.343 133.527 731.632 134.022 731.744 134.638H730.372C730.213 133.929 729.672 133.574 728.748 133.574C728.235 133.574 727.852 133.667 727.6 133.854C727.395 134.013 727.292 134.213 727.292 134.456C727.292 134.755 727.404 134.979 727.628 135.128C727.861 135.277 728.314 135.427 728.986 135.576C730.013 135.8 730.727 136.075 731.128 136.402C731.576 136.766 731.8 137.275 731.8 137.928C731.8 138.656 731.501 139.23 730.904 139.65C730.363 140.023 729.649 140.21 728.762 140.21C727.791 140.21 727.021 139.977 726.452 139.51C725.957 139.099 725.682 138.567 725.626 137.914H726.998C727.147 138.735 727.74 139.146 728.776 139.146C729.336 139.146 729.77 139.025 730.078 138.782C730.321 138.586 730.442 138.334 730.442 138.026ZM737.497 138.026C737.497 137.615 737.282 137.307 736.853 137.102C736.601 136.99 736.111 136.85 735.383 136.682C734.487 136.486 733.847 136.201 733.465 135.828C733.147 135.511 732.989 135.095 732.989 134.582C732.989 133.901 733.264 133.378 733.815 133.014C734.309 132.678 734.977 132.51 735.817 132.51C736.685 132.51 737.389 132.725 737.931 133.154C738.397 133.527 738.687 134.022 738.799 134.638H737.427C737.268 133.929 736.727 133.574 735.803 133.574C735.289 133.574 734.907 133.667 734.655 133.854C734.449 134.013 734.347 134.213 734.347 134.456C734.347 134.755 734.459 134.979 734.683 135.128C734.916 135.277 735.369 135.427 736.041 135.576C737.067 135.8 737.781 136.075 738.183 136.402C738.631 136.766 738.855 137.275 738.855 137.928C738.855 138.656 738.556 139.23 737.959 139.65C737.417 140.023 736.703 140.21 735.817 140.21C734.846 140.21 734.076 139.977 733.507 139.51C733.012 139.099 732.737 138.567 732.681 137.914H734.053C734.202 138.735 734.795 139.146 735.831 139.146C736.391 139.146 736.825 139.025 737.133 138.782C737.375 138.586 737.497 138.334 737.497 138.026ZM741.819 131.502H740.307V129.92H741.819V131.502ZM741.735 140H740.391V132.72H741.735V140ZM743.616 140.49H745.058C745.123 140.863 745.31 141.153 745.618 141.358C745.935 141.563 746.35 141.666 746.864 141.666C747.582 141.666 748.119 141.479 748.474 141.106C748.772 140.789 748.922 140.345 748.922 139.776V138.838C748.38 139.473 747.573 139.79 746.5 139.79C745.529 139.79 744.74 139.44 744.134 138.74C743.564 138.087 743.28 137.237 743.28 136.192C743.28 134.979 743.625 134.041 744.316 133.378C744.904 132.799 745.66 132.51 746.584 132.51C747.629 132.51 748.418 132.902 748.95 133.686L749.16 132.72H750.266V139.846C750.266 140.761 749.934 141.479 749.272 142.002C748.674 142.487 747.886 142.73 746.906 142.73C745.888 142.73 745.09 142.501 744.512 142.044C744.026 141.661 743.728 141.143 743.616 140.49ZM744.68 136.22C744.68 137.013 744.913 137.634 745.38 138.082C745.762 138.455 746.234 138.642 746.794 138.642C747.531 138.642 748.096 138.399 748.488 137.914C748.824 137.503 748.992 136.953 748.992 136.262C748.992 135.375 748.763 134.699 748.306 134.232C747.923 133.849 747.419 133.658 746.794 133.658C746.103 133.658 745.571 133.896 745.198 134.372C744.852 134.82 744.68 135.436 744.68 136.22ZM753.575 140H752.231V132.72H753.337L753.491 133.644C754.032 132.888 754.77 132.51 755.703 132.51C756.562 132.51 757.22 132.776 757.677 133.308C758.078 133.784 758.279 134.433 758.279 135.254V140H756.935V135.268C756.935 134.195 756.417 133.658 755.381 133.658C754.84 133.658 754.396 133.845 754.051 134.218C753.734 134.554 753.575 134.983 753.575 135.506V140ZM764.302 132.72H765.646V137.494C765.646 138.539 766.15 139.062 767.158 139.062C767.774 139.062 768.245 138.843 768.572 138.404C768.824 138.068 768.95 137.653 768.95 137.158V132.72H770.294V140H769.188L769.034 139.16C768.52 139.86 767.792 140.21 766.85 140.21C766.019 140.21 765.38 139.953 764.932 139.44C764.512 138.964 764.302 138.306 764.302 137.466V132.72ZM776.516 138.026C776.516 137.615 776.302 137.307 775.872 137.102C775.62 136.99 775.13 136.85 774.402 136.682C773.506 136.486 772.867 136.201 772.484 135.828C772.167 135.511 772.008 135.095 772.008 134.582C772.008 133.901 772.284 133.378 772.834 133.014C773.329 132.678 773.996 132.51 774.836 132.51C775.704 132.51 776.409 132.725 776.95 133.154C777.417 133.527 777.706 134.022 777.818 134.638H776.446C776.288 133.929 775.746 133.574 774.822 133.574C774.309 133.574 773.926 133.667 773.674 133.854C773.469 134.013 773.366 134.213 773.366 134.456C773.366 134.755 773.478 134.979 773.702 135.128C773.936 135.277 774.388 135.427 775.06 135.576C776.087 135.8 776.801 136.075 777.202 136.402C777.65 136.766 777.874 137.275 777.874 137.928C777.874 138.656 777.576 139.23 776.978 139.65C776.437 140.023 775.723 140.21 774.836 140.21C773.866 140.21 773.096 139.977 772.526 139.51C772.032 139.099 771.756 138.567 771.7 137.914H773.072C773.222 138.735 773.814 139.146 774.85 139.146C775.41 139.146 775.844 139.025 776.152 138.782C776.395 138.586 776.516 138.334 776.516 138.026ZM784.367 137.9H785.823C785.617 138.637 785.211 139.216 784.605 139.636C784.035 140.019 783.354 140.21 782.561 140.21C781.413 140.21 780.517 139.846 779.873 139.118C779.285 138.437 778.991 137.517 778.991 136.36C778.991 135.044 779.364 134.045 780.111 133.364C780.727 132.795 781.52 132.51 782.491 132.51C783.629 132.51 784.488 132.879 785.067 133.616C785.627 134.325 785.907 135.338 785.907 136.654H780.363C780.419 137.513 780.68 138.152 781.147 138.572C781.529 138.908 782.015 139.076 782.603 139.076C783.06 139.076 783.457 138.95 783.793 138.698C784.073 138.483 784.264 138.217 784.367 137.9ZM782.519 133.588C781.921 133.588 781.441 133.775 781.077 134.148C780.731 134.493 780.512 134.974 780.419 135.59H784.535C784.488 134.89 784.255 134.367 783.835 134.022C783.499 133.733 783.06 133.588 782.519 133.588ZM788.862 140H787.518V132.72H788.624L788.806 133.798C789.217 132.939 789.833 132.51 790.654 132.51C790.925 132.51 791.191 132.543 791.452 132.608V133.952C791.135 133.868 790.85 133.826 790.598 133.826C790.057 133.826 789.632 134.045 789.324 134.484C789.016 134.923 788.862 135.543 788.862 136.346V140ZM796.764 138.026C796.764 137.615 796.55 137.307 796.12 137.102C795.868 136.99 795.378 136.85 794.65 136.682C793.754 136.486 793.115 136.201 792.732 135.828C792.415 135.511 792.256 135.095 792.256 134.582C792.256 133.901 792.532 133.378 793.082 133.014C793.577 132.678 794.244 132.51 795.084 132.51C795.952 132.51 796.657 132.725 797.198 133.154C797.665 133.527 797.954 134.022 798.066 134.638H796.694C796.536 133.929 795.994 133.574 795.07 133.574C794.557 133.574 794.174 133.667 793.922 133.854C793.717 134.013 793.614 134.213 793.614 134.456C793.614 134.755 793.726 134.979 793.95 135.128C794.184 135.277 794.636 135.427 795.308 135.576C796.335 135.8 797.049 136.075 797.45 136.402C797.898 136.766 798.122 137.275 798.122 137.928C798.122 138.656 797.824 139.23 797.226 139.65C796.685 140.023 795.971 140.21 795.084 140.21C794.114 140.21 793.344 139.977 792.774 139.51C792.28 139.099 792.004 138.567 791.948 137.914H793.32C793.47 138.735 794.062 139.146 795.098 139.146C795.658 139.146 796.092 139.025 796.4 138.782C796.643 138.586 796.764 138.334 796.764 138.026Z" fill="white" fill-opacity="0.95"/>
</g>
<defs>
<clipPath id="clip0_2031_6460">
<rect width="36" height="20" fill="white" transform="translate(375 125)"/>
</clipPath>
<clipPath id="clip1_2031_6460">
<rect width="114" height="21" fill="white" transform="translate(518 125)"/>
</clipPath>
<clipPath id="clip2_2031_6460">
<rect width="160" height="21" fill="white" transform="translate(677 125)"/>
</clipPath>
</defs>
</svg>
