<svg width="559" height="245" viewBox="0 0 559 245" fill="none" xmlns="http://www.w3.org/2000/svg">
<rect width="559" height="245" rx="16" fill="#1A1A1A"/>
<path d="M104.5 108C104.5 111.866 101.366 115 97.5 115C93.634 115 90.5 111.866 90.5 108C90.5 104.134 93.634 101 97.5 101C101.366 101 104.5 104.134 104.5 108Z" stroke="#64B4FA" stroke-width="2"/>
<g clip-path="url(#clip0_2031_6477)">
<path d="M80.7681 139V128.818H82.0011V137.906H86.734V139H80.7681ZM90.7312 139.179C90.2473 139.179 89.8081 139.088 89.4137 138.906C89.0193 138.72 88.7061 138.453 88.4741 138.105C88.2421 137.754 88.1261 137.33 88.1261 136.832C88.1261 136.395 88.2122 136.04 88.3846 135.768C88.5569 135.493 88.7873 135.278 89.0756 135.122C89.364 134.966 89.6822 134.85 90.0302 134.774C90.3815 134.695 90.7345 134.632 91.0891 134.585C91.5531 134.526 91.9293 134.481 92.2177 134.451C92.5094 134.418 92.7215 134.363 92.854 134.287C92.9899 134.211 93.0579 134.078 93.0579 133.889V133.849C93.0579 133.359 92.9237 132.978 92.6552 132.706C92.39 132.434 91.9873 132.298 91.4471 132.298C90.887 132.298 90.4478 132.421 90.1296 132.666C89.8114 132.911 89.5877 133.173 89.4585 133.452L88.3448 133.054C88.5437 132.59 88.8088 132.229 89.1403 131.97C89.475 131.708 89.8396 131.526 90.234 131.423C90.6317 131.317 91.0228 131.264 91.4073 131.264C91.6526 131.264 91.9343 131.294 92.2525 131.354C92.574 131.41 92.8839 131.528 93.1822 131.707C93.4838 131.886 93.734 132.156 93.9329 132.517C94.1317 132.878 94.2312 133.362 94.2312 133.969V139H93.0579V137.966H92.9982C92.9187 138.132 92.7861 138.309 92.6005 138.498C92.4149 138.687 92.168 138.848 91.8597 138.98C91.5515 139.113 91.1753 139.179 90.7312 139.179ZM90.9102 138.125C91.3742 138.125 91.7653 138.034 92.0835 137.852C92.4049 137.669 92.6469 137.434 92.8093 137.146C92.975 136.857 93.0579 136.554 93.0579 136.236V135.162C93.0082 135.222 92.8988 135.276 92.7298 135.326C92.564 135.372 92.3718 135.414 92.1531 135.45C91.9376 135.483 91.7272 135.513 91.5217 135.54C91.3195 135.563 91.1554 135.583 91.0295 135.599C90.7246 135.639 90.4395 135.704 90.1744 135.793C89.9125 135.879 89.7004 136.01 89.538 136.186C89.3789 136.358 89.2994 136.594 89.2994 136.892C89.2994 137.3 89.4502 137.608 89.7518 137.817C90.0567 138.022 90.4428 138.125 90.9102 138.125ZM96.5318 139V128.818H97.7051V132.577H97.8045C97.8907 132.444 98.01 132.275 98.1625 132.07C98.3182 131.861 98.5403 131.675 98.8287 131.513C99.1203 131.347 99.5147 131.264 100.012 131.264C100.655 131.264 101.222 131.425 101.712 131.746C102.203 132.068 102.586 132.524 102.861 133.114C103.136 133.704 103.273 134.4 103.273 135.202C103.273 136.01 103.136 136.711 102.861 137.305C102.586 137.895 102.204 138.352 101.717 138.677C101.23 138.998 100.668 139.159 100.032 139.159C99.5413 139.159 99.1485 139.078 98.8535 138.915C98.5585 138.75 98.3315 138.562 98.1724 138.354C98.0133 138.142 97.8907 137.966 97.8045 137.827H97.6653V139H96.5318ZM97.6852 135.182C97.6852 135.759 97.7697 136.267 97.9387 136.708C98.1078 137.146 98.3547 137.489 98.6795 137.737C99.0043 137.982 99.402 138.105 99.8727 138.105C100.363 138.105 100.773 137.976 101.101 137.717C101.432 137.455 101.681 137.104 101.846 136.663C102.015 136.219 102.1 135.725 102.1 135.182C102.1 134.645 102.017 134.161 101.851 133.73C101.689 133.296 101.442 132.953 101.111 132.701C100.782 132.446 100.37 132.318 99.8727 132.318C99.3954 132.318 98.9944 132.439 98.6696 132.681C98.3448 132.92 98.0995 133.254 97.9338 133.685C97.7681 134.113 97.6852 134.612 97.6852 135.182ZM108.27 139.159C107.534 139.159 106.899 138.997 106.366 138.672C105.835 138.344 105.426 137.886 105.138 137.3C104.853 136.71 104.71 136.024 104.71 135.241C104.71 134.459 104.853 133.77 105.138 133.173C105.426 132.573 105.827 132.106 106.341 131.771C106.858 131.433 107.461 131.264 108.15 131.264C108.548 131.264 108.941 131.33 109.329 131.463C109.716 131.596 110.069 131.811 110.388 132.109C110.706 132.404 110.959 132.795 111.148 133.283C111.337 133.77 111.432 134.37 111.432 135.082V135.58H105.545V134.565H110.238C110.238 134.134 110.152 133.75 109.98 133.412C109.811 133.074 109.569 132.807 109.254 132.612C108.943 132.416 108.575 132.318 108.15 132.318C107.683 132.318 107.279 132.434 106.937 132.666C106.599 132.895 106.339 133.193 106.157 133.561C105.974 133.929 105.883 134.323 105.883 134.744V135.42C105.883 135.997 105.983 136.486 106.182 136.887C106.384 137.285 106.664 137.588 107.022 137.797C107.38 138.002 107.796 138.105 108.27 138.105C108.578 138.105 108.856 138.062 109.105 137.976C109.357 137.886 109.574 137.754 109.756 137.578C109.939 137.399 110.079 137.177 110.179 136.912L111.312 137.23C111.193 137.615 110.992 137.953 110.711 138.244C110.429 138.533 110.081 138.758 109.667 138.92C109.252 139.08 108.787 139.159 108.27 139.159ZM114.39 128.818V139H113.216V128.818H114.39Z" fill="white" fill-opacity="0.7"/>
</g>
<rect x="113.5" y="107" width="150" height="2" fill="#8F8F8F"/>
<path d="M286.5 108C286.5 111.866 283.366 115 279.5 115C275.634 115 272.5 111.866 272.5 108C272.5 104.134 275.634 101 279.5 101C283.366 101 286.5 104.134 286.5 108Z" stroke="#64B4FA" stroke-width="2"/>
<g clip-path="url(#clip1_2031_6477)">
<path d="M229.372 132.493C229.319 132.022 229.1 131.658 228.716 131.399C228.331 131.137 227.847 131.006 227.264 131.006C226.847 131.006 226.485 131.073 226.18 131.205C225.875 131.335 225.638 131.513 225.469 131.742C225.304 131.968 225.221 132.224 225.221 132.513C225.221 132.755 225.277 132.964 225.39 133.139C225.506 133.315 225.657 133.462 225.842 133.582C226.031 133.698 226.233 133.795 226.449 133.875C226.664 133.951 226.871 134.014 227.07 134.064L228.065 134.322C228.389 134.402 228.722 134.51 229.064 134.646C229.405 134.781 229.722 134.96 230.013 135.183C230.305 135.405 230.54 135.68 230.719 136.008C230.902 136.336 230.993 136.729 230.993 137.186C230.993 137.763 230.844 138.275 230.545 138.722C230.25 139.17 229.821 139.523 229.258 139.781C228.698 140.04 228.02 140.169 227.224 140.169C226.462 140.169 225.802 140.048 225.246 139.806C224.689 139.564 224.253 139.221 223.938 138.777C223.623 138.33 223.449 137.799 223.416 137.186H224.957C224.987 137.554 225.106 137.861 225.315 138.106C225.527 138.348 225.797 138.528 226.126 138.648C226.457 138.764 226.82 138.822 227.214 138.822C227.649 138.822 228.035 138.754 228.373 138.618C228.714 138.479 228.983 138.286 229.178 138.041C229.374 137.793 229.472 137.503 229.472 137.171C229.472 136.87 229.385 136.623 229.213 136.43C229.044 136.238 228.814 136.079 228.522 135.953C228.234 135.827 227.907 135.716 227.543 135.62L226.339 135.292C225.524 135.07 224.878 134.743 224.4 134.312C223.927 133.882 223.69 133.312 223.69 132.602C223.69 132.016 223.849 131.504 224.167 131.066C224.485 130.629 224.916 130.289 225.459 130.047C226.003 129.802 226.616 129.679 227.299 129.679C227.988 129.679 228.597 129.8 229.123 130.042C229.654 130.284 230.071 130.617 230.376 131.041C230.681 131.462 230.84 131.946 230.854 132.493H229.372ZM236.274 132.364V133.557H232.103V132.364H236.274ZM233.221 130.534H234.708V137.758C234.708 138.046 234.751 138.263 234.837 138.409C234.923 138.552 235.034 138.649 235.17 138.702C235.309 138.752 235.46 138.777 235.623 138.777C235.742 138.777 235.846 138.769 235.936 138.752C236.025 138.736 236.095 138.722 236.145 138.712L236.413 139.94C236.327 139.973 236.204 140.007 236.045 140.04C235.886 140.076 235.687 140.096 235.449 140.099C235.057 140.106 234.693 140.036 234.355 139.891C234.017 139.745 233.743 139.519 233.535 139.214C233.326 138.91 233.221 138.527 233.221 138.066V130.534ZM241.127 140.154C240.375 140.154 239.727 139.993 239.184 139.672C238.643 139.347 238.226 138.891 237.931 138.305C237.639 137.715 237.493 137.024 237.493 136.232C237.493 135.449 237.639 134.76 237.931 134.163C238.226 133.567 238.637 133.101 239.164 132.766C239.694 132.432 240.314 132.264 241.023 132.264C241.454 132.264 241.871 132.335 242.276 132.478C242.68 132.621 243.043 132.844 243.365 133.149C243.686 133.454 243.94 133.85 244.125 134.337C244.311 134.821 244.404 135.41 244.404 136.102V136.629H238.333V135.516H242.947C242.947 135.125 242.867 134.778 242.708 134.477C242.549 134.172 242.326 133.931 242.037 133.756C241.752 133.58 241.417 133.492 241.033 133.492C240.615 133.492 240.251 133.595 239.939 133.8C239.631 134.003 239.392 134.268 239.223 134.596C239.058 134.921 238.975 135.274 238.975 135.655V136.525C238.975 137.035 239.064 137.469 239.243 137.827C239.425 138.185 239.679 138.459 240.004 138.648C240.329 138.833 240.708 138.926 241.142 138.926C241.424 138.926 241.681 138.886 241.913 138.807C242.145 138.724 242.345 138.601 242.514 138.439C242.684 138.277 242.813 138.076 242.902 137.837L244.309 138.091C244.197 138.505 243.994 138.868 243.703 139.18C243.414 139.488 243.051 139.728 242.614 139.901C242.18 140.07 241.684 140.154 241.127 140.154ZM246.053 142.864V132.364H247.505V133.602H247.629C247.715 133.442 247.839 133.259 248.002 133.05C248.164 132.841 248.39 132.659 248.678 132.503C248.966 132.344 249.348 132.264 249.821 132.264C250.438 132.264 250.988 132.42 251.472 132.732C251.956 133.043 252.335 133.492 252.611 134.079C252.889 134.665 253.028 135.371 253.028 136.197C253.028 137.022 252.891 137.73 252.616 138.32C252.34 138.906 251.963 139.359 251.482 139.677C251.001 139.992 250.453 140.149 249.836 140.149C249.372 140.149 248.993 140.071 248.698 139.915C248.406 139.76 248.178 139.577 248.012 139.369C247.846 139.16 247.718 138.974 247.629 138.812H247.54V142.864H246.053ZM247.51 136.182C247.51 136.719 247.588 137.189 247.743 137.594C247.899 137.998 248.124 138.315 248.419 138.543C248.714 138.769 249.076 138.881 249.503 138.881C249.947 138.881 250.319 138.764 250.617 138.528C250.915 138.29 251.141 137.967 251.293 137.559C251.449 137.151 251.527 136.692 251.527 136.182C251.527 135.678 251.45 135.226 251.298 134.825C251.149 134.424 250.924 134.107 250.622 133.875C250.324 133.643 249.951 133.527 249.503 133.527C249.072 133.527 248.708 133.638 248.41 133.86C248.115 134.082 247.891 134.392 247.738 134.79C247.586 135.187 247.51 135.652 247.51 136.182ZM259.885 129.818V140H258.399V129.818H259.885ZM264.107 140.169C263.623 140.169 263.186 140.08 262.795 139.901C262.404 139.718 262.094 139.455 261.865 139.11C261.64 138.765 261.527 138.343 261.527 137.842C261.527 137.411 261.61 137.057 261.776 136.778C261.941 136.5 262.165 136.28 262.447 136.117C262.729 135.955 263.043 135.832 263.391 135.749C263.739 135.666 264.094 135.603 264.455 135.56C264.913 135.507 265.284 135.464 265.569 135.431C265.854 135.395 266.061 135.337 266.19 135.257C266.32 135.178 266.384 135.048 266.384 134.869V134.835C266.384 134.4 266.262 134.064 266.016 133.825C265.774 133.587 265.413 133.467 264.933 133.467C264.432 133.467 264.038 133.578 263.749 133.8C263.464 134.019 263.267 134.263 263.158 134.531L261.761 134.213C261.926 133.749 262.168 133.375 262.487 133.089C262.808 132.801 263.178 132.592 263.595 132.463C264.013 132.33 264.452 132.264 264.913 132.264C265.218 132.264 265.541 132.301 265.882 132.374C266.227 132.443 266.548 132.572 266.847 132.761C267.148 132.95 267.395 133.22 267.587 133.572C267.78 133.92 267.876 134.372 267.876 134.929V140H266.424V138.956H266.364C266.268 139.148 266.124 139.337 265.932 139.523C265.74 139.708 265.493 139.862 265.191 139.985C264.89 140.108 264.528 140.169 264.107 140.169ZM264.43 138.976C264.841 138.976 265.193 138.895 265.484 138.732C265.779 138.57 266.003 138.358 266.156 138.096C266.311 137.831 266.389 137.547 266.389 137.246V136.261C266.336 136.314 266.234 136.364 266.081 136.411C265.932 136.454 265.761 136.492 265.569 136.525C265.377 136.555 265.189 136.583 265.007 136.609C264.825 136.633 264.672 136.652 264.55 136.669C264.261 136.705 263.998 136.767 263.759 136.853C263.524 136.939 263.335 137.063 263.193 137.226C263.053 137.385 262.984 137.597 262.984 137.862C262.984 138.23 263.12 138.509 263.391 138.697C263.663 138.883 264.01 138.976 264.43 138.976ZM269.975 140V129.818H271.462V133.602H271.551C271.637 133.442 271.762 133.259 271.924 133.05C272.086 132.841 272.312 132.659 272.6 132.503C272.888 132.344 273.27 132.264 273.744 132.264C274.36 132.264 274.91 132.42 275.394 132.732C275.878 133.043 276.257 133.492 276.533 134.079C276.811 134.665 276.95 135.371 276.95 136.197C276.95 137.022 276.813 137.73 276.538 138.32C276.262 138.906 275.885 139.359 275.404 139.677C274.923 139.992 274.375 140.149 273.758 140.149C273.294 140.149 272.915 140.071 272.62 139.915C272.328 139.76 272.1 139.577 271.934 139.369C271.768 139.16 271.641 138.974 271.551 138.812H271.427V140H269.975ZM271.432 136.182C271.432 136.719 271.51 137.189 271.665 137.594C271.821 137.998 272.047 138.315 272.342 138.543C272.637 138.769 272.998 138.881 273.425 138.881C273.869 138.881 274.241 138.764 274.539 138.528C274.837 138.29 275.063 137.967 275.215 137.559C275.371 137.151 275.449 136.692 275.449 136.182C275.449 135.678 275.373 135.226 275.22 134.825C275.071 134.424 274.846 134.107 274.544 133.875C274.246 133.643 273.873 133.527 273.425 133.527C272.994 133.527 272.63 133.638 272.332 133.86C272.037 134.082 271.813 134.392 271.66 134.79C271.508 135.187 271.432 135.652 271.432 136.182ZM281.911 140.154C281.158 140.154 280.51 139.993 279.967 139.672C279.426 139.347 279.009 138.891 278.714 138.305C278.422 137.715 278.276 137.024 278.276 136.232C278.276 135.449 278.422 134.76 278.714 134.163C279.009 133.567 279.42 133.101 279.947 132.766C280.477 132.432 281.097 132.264 281.806 132.264C282.237 132.264 282.655 132.335 283.059 132.478C283.463 132.621 283.826 132.844 284.148 133.149C284.469 133.454 284.723 133.85 284.908 134.337C285.094 134.821 285.187 135.41 285.187 136.102V136.629H279.117V135.516H283.73C283.73 135.125 283.651 134.778 283.492 134.477C283.332 134.172 283.109 133.931 282.82 133.756C282.535 133.58 282.201 133.492 281.816 133.492C281.399 133.492 281.034 133.595 280.722 133.8C280.414 134.003 280.176 134.268 280.006 134.596C279.841 134.921 279.758 135.274 279.758 135.655V136.525C279.758 137.035 279.847 137.469 280.026 137.827C280.209 138.185 280.462 138.459 280.787 138.648C281.112 138.833 281.491 138.926 281.926 138.926C282.207 138.926 282.464 138.886 282.696 138.807C282.928 138.724 283.129 138.601 283.298 138.439C283.467 138.277 283.596 138.076 283.685 137.837L285.092 138.091C284.98 138.505 284.778 138.868 284.486 139.18C284.198 139.488 283.835 139.728 283.397 139.901C282.963 140.07 282.467 140.154 281.911 140.154ZM288.323 129.818V140H286.836V129.818H288.323ZM294.822 135.053V136.341H290.308V135.053H294.822ZM299.025 140.169C298.541 140.169 298.104 140.08 297.713 139.901C297.322 139.718 297.012 139.455 296.783 139.11C296.558 138.765 296.445 138.343 296.445 137.842C296.445 137.411 296.528 137.057 296.694 136.778C296.859 136.5 297.083 136.28 297.365 136.117C297.647 135.955 297.961 135.832 298.309 135.749C298.657 135.666 299.012 135.603 299.373 135.56C299.831 135.507 300.202 135.464 300.487 135.431C300.772 135.395 300.979 135.337 301.108 135.257C301.238 135.178 301.302 135.048 301.302 134.869V134.835C301.302 134.4 301.18 134.064 300.934 133.825C300.692 133.587 300.331 133.467 299.851 133.467C299.35 133.467 298.956 133.578 298.667 133.8C298.382 134.019 298.185 134.263 298.076 134.531L296.679 134.213C296.844 133.749 297.086 133.375 297.405 133.089C297.726 132.801 298.096 132.592 298.513 132.463C298.931 132.33 299.37 132.264 299.831 132.264C300.136 132.264 300.459 132.301 300.8 132.374C301.145 132.443 301.466 132.572 301.765 132.761C302.066 132.95 302.313 133.22 302.505 133.572C302.698 133.92 302.794 134.372 302.794 134.929V140H301.342V138.956H301.282C301.186 139.148 301.042 139.337 300.85 139.523C300.658 139.708 300.411 139.862 300.109 139.985C299.807 140.108 299.446 140.169 299.025 140.169ZM299.348 138.976C299.759 138.976 300.111 138.895 300.402 138.732C300.697 138.57 300.921 138.358 301.074 138.096C301.229 137.831 301.307 137.547 301.307 137.246V136.261C301.254 136.314 301.151 136.364 300.999 136.411C300.85 136.454 300.679 136.492 300.487 136.525C300.295 136.555 300.107 136.583 299.925 136.609C299.743 136.633 299.59 136.652 299.468 136.669C299.179 136.705 298.916 136.767 298.677 136.853C298.442 136.939 298.253 137.063 298.111 137.226C297.971 137.385 297.902 137.597 297.902 137.862C297.902 138.23 298.038 138.509 298.309 138.697C298.581 138.883 298.928 138.976 299.348 138.976ZM307.99 140.154C307.251 140.154 306.615 139.987 306.081 139.652C305.551 139.314 305.143 138.848 304.858 138.255C304.573 137.662 304.431 136.982 304.431 136.217C304.431 135.441 304.576 134.757 304.868 134.163C305.16 133.567 305.571 133.101 306.101 132.766C306.631 132.432 307.256 132.264 307.975 132.264C308.555 132.264 309.072 132.372 309.527 132.587C309.981 132.799 310.347 133.098 310.625 133.482C310.907 133.867 311.074 134.316 311.127 134.83H309.681C309.601 134.472 309.419 134.163 309.134 133.905C308.852 133.646 308.474 133.517 308 133.517C307.586 133.517 307.223 133.626 306.911 133.845C306.603 134.061 306.363 134.369 306.191 134.77C306.018 135.168 305.932 135.638 305.932 136.182C305.932 136.739 306.017 137.219 306.186 137.624C306.355 138.028 306.593 138.341 306.902 138.563C307.213 138.785 307.579 138.896 308 138.896C308.282 138.896 308.537 138.845 308.766 138.742C308.998 138.636 309.192 138.485 309.348 138.29C309.507 138.094 309.618 137.859 309.681 137.584H311.127C311.074 138.078 310.914 138.518 310.645 138.906C310.377 139.294 310.017 139.599 309.566 139.821C309.119 140.043 308.594 140.154 307.99 140.154ZM316.282 132.364V133.557H312.111V132.364H316.282ZM313.229 130.534H314.716V137.758C314.716 138.046 314.759 138.263 314.845 138.409C314.931 138.552 315.042 138.649 315.178 138.702C315.317 138.752 315.468 138.777 315.63 138.777C315.75 138.777 315.854 138.769 315.944 138.752C316.033 138.736 316.103 138.722 316.152 138.712L316.421 139.94C316.335 139.973 316.212 140.007 316.053 140.04C315.894 140.076 315.695 140.096 315.456 140.099C315.065 140.106 314.701 140.036 314.363 139.891C314.025 139.745 313.751 139.519 313.542 139.214C313.334 138.91 313.229 138.527 313.229 138.066V130.534ZM317.926 140V132.364H319.413V140H317.926ZM318.677 131.185C318.418 131.185 318.196 131.099 318.011 130.927C317.828 130.751 317.737 130.542 317.737 130.3C317.737 130.055 317.828 129.846 318.011 129.674C318.196 129.498 318.418 129.411 318.677 129.411C318.935 129.411 319.156 129.498 319.338 129.674C319.524 129.846 319.616 130.055 319.616 130.3C319.616 130.542 319.524 130.751 319.338 130.927C319.156 131.099 318.935 131.185 318.677 131.185ZM327.945 132.364L325.176 140H323.585L320.811 132.364H322.407L324.341 138.24H324.42L326.349 132.364H327.945ZM332.373 140.154C331.621 140.154 330.973 139.993 330.43 139.672C329.889 139.347 329.472 138.891 329.177 138.305C328.885 137.715 328.739 137.024 328.739 136.232C328.739 135.449 328.885 134.76 329.177 134.163C329.472 133.567 329.883 133.101 330.41 132.766C330.94 132.432 331.56 132.264 332.269 132.264C332.7 132.264 333.118 132.335 333.522 132.478C333.926 132.621 334.289 132.844 334.611 133.149C334.932 133.454 335.186 133.85 335.371 134.337C335.557 134.821 335.65 135.41 335.65 136.102V136.629H329.579V135.516H334.193C334.193 135.125 334.114 134.778 333.954 134.477C333.795 134.172 333.572 133.931 333.283 133.756C332.998 133.58 332.664 133.492 332.279 133.492C331.861 133.492 331.497 133.595 331.185 133.8C330.877 134.003 330.638 134.268 330.469 134.596C330.304 134.921 330.221 135.274 330.221 135.655V136.525C330.221 137.035 330.31 137.469 330.489 137.827C330.672 138.185 330.925 138.459 331.25 138.648C331.575 138.833 331.954 138.926 332.388 138.926C332.67 138.926 332.927 138.886 333.159 138.807C333.391 138.724 333.592 138.601 333.761 138.439C333.93 138.277 334.059 138.076 334.148 137.837L335.555 138.091C335.443 138.505 335.24 138.868 334.949 139.18C334.66 139.488 334.297 139.728 333.86 139.901C333.426 140.07 332.93 140.154 332.373 140.154Z" fill="white" fill-opacity="0.95"/>
</g>
<rect x="295.5" y="107" width="150" height="2" fill="#8F8F8F"/>
<path fill-rule="evenodd" clip-rule="evenodd" d="M461.5 116C465.918 116 469.5 112.418 469.5 108C469.5 103.582 465.918 100 461.5 100C457.082 100 453.5 103.582 453.5 108C453.5 112.418 457.082 116 461.5 116Z" fill="#3492EB"/>
<g clip-path="url(#clip2_2031_6477)">
<path d="M429.705 139H428.123L427.129 136.452H422.327L421.319 139H419.821L423.965 128.92H425.575L429.705 139ZM424.749 130.348L422.789 135.29H426.667L424.749 130.348ZM434.942 137.026C434.942 136.615 434.727 136.307 434.298 136.102C434.046 135.99 433.556 135.85 432.828 135.682C431.932 135.486 431.293 135.201 430.91 134.828C430.593 134.511 430.434 134.095 430.434 133.582C430.434 132.901 430.709 132.378 431.26 132.014C431.755 131.678 432.422 131.51 433.262 131.51C434.13 131.51 434.835 131.725 435.376 132.154C435.843 132.527 436.132 133.022 436.244 133.638H434.872C434.713 132.929 434.172 132.574 433.248 132.574C432.735 132.574 432.352 132.667 432.1 132.854C431.895 133.013 431.792 133.213 431.792 133.456C431.792 133.755 431.904 133.979 432.128 134.128C432.361 134.277 432.814 134.427 433.486 134.576C434.513 134.8 435.227 135.075 435.628 135.402C436.076 135.766 436.3 136.275 436.3 136.928C436.3 137.656 436.001 138.23 435.404 138.65C434.863 139.023 434.149 139.21 433.262 139.21C432.291 139.21 431.521 138.977 430.952 138.51C430.457 138.099 430.182 137.567 430.126 136.914H431.498C431.647 137.735 432.24 138.146 433.276 138.146C433.836 138.146 434.27 138.025 434.578 137.782C434.821 137.586 434.942 137.334 434.942 137.026ZM441.997 137.026C441.997 136.615 441.782 136.307 441.353 136.102C441.101 135.99 440.611 135.85 439.883 135.682C438.987 135.486 438.347 135.201 437.965 134.828C437.647 134.511 437.489 134.095 437.489 133.582C437.489 132.901 437.764 132.378 438.315 132.014C438.809 131.678 439.477 131.51 440.317 131.51C441.185 131.51 441.889 131.725 442.431 132.154C442.897 132.527 443.187 133.022 443.299 133.638H441.927C441.768 132.929 441.227 132.574 440.303 132.574C439.789 132.574 439.407 132.667 439.155 132.854C438.949 133.013 438.847 133.213 438.847 133.456C438.847 133.755 438.959 133.979 439.183 134.128C439.416 134.277 439.869 134.427 440.541 134.576C441.567 134.8 442.281 135.075 442.683 135.402C443.131 135.766 443.355 136.275 443.355 136.928C443.355 137.656 443.056 138.23 442.459 138.65C441.917 139.023 441.203 139.21 440.317 139.21C439.346 139.21 438.576 138.977 438.007 138.51C437.512 138.099 437.237 137.567 437.181 136.914H438.553C438.702 137.735 439.295 138.146 440.331 138.146C440.891 138.146 441.325 138.025 441.633 137.782C441.875 137.586 441.997 137.334 441.997 137.026ZM446.319 130.502H444.807V128.92H446.319V130.502ZM446.235 139H444.891V131.72H446.235V139ZM448.116 139.49H449.558C449.623 139.863 449.81 140.153 450.118 140.358C450.435 140.563 450.85 140.666 451.364 140.666C452.082 140.666 452.619 140.479 452.974 140.106C453.272 139.789 453.422 139.345 453.422 138.776V137.838C452.88 138.473 452.073 138.79 451 138.79C450.029 138.79 449.24 138.44 448.634 137.74C448.064 137.087 447.78 136.237 447.78 135.192C447.78 133.979 448.125 133.041 448.816 132.378C449.404 131.799 450.16 131.51 451.084 131.51C452.129 131.51 452.918 131.902 453.45 132.686L453.66 131.72H454.766V138.846C454.766 139.761 454.434 140.479 453.772 141.002C453.174 141.487 452.386 141.73 451.406 141.73C450.388 141.73 449.59 141.501 449.012 141.044C448.526 140.661 448.228 140.143 448.116 139.49ZM449.18 135.22C449.18 136.013 449.413 136.634 449.88 137.082C450.262 137.455 450.734 137.642 451.294 137.642C452.031 137.642 452.596 137.399 452.988 136.914C453.324 136.503 453.492 135.953 453.492 135.262C453.492 134.375 453.263 133.699 452.806 133.232C452.423 132.849 451.919 132.658 451.294 132.658C450.603 132.658 450.071 132.896 449.698 133.372C449.352 133.82 449.18 134.436 449.18 135.22ZM458.075 139H456.731V131.72H457.837L457.991 132.644C458.532 131.888 459.27 131.51 460.203 131.51C461.062 131.51 461.72 131.776 462.177 132.308C462.578 132.784 462.779 133.433 462.779 134.254V139H461.435V134.268C461.435 133.195 460.917 132.658 459.881 132.658C459.34 132.658 458.896 132.845 458.551 133.218C458.234 133.554 458.075 133.983 458.075 134.506V139ZM468.802 131.72H470.146V136.494C470.146 137.539 470.65 138.062 471.658 138.062C472.274 138.062 472.745 137.843 473.072 137.404C473.324 137.068 473.45 136.653 473.45 136.158V131.72H474.794V139H473.688L473.534 138.16C473.02 138.86 472.292 139.21 471.35 139.21C470.519 139.21 469.88 138.953 469.432 138.44C469.012 137.964 468.802 137.306 468.802 136.466V131.72ZM481.016 137.026C481.016 136.615 480.802 136.307 480.372 136.102C480.12 135.99 479.63 135.85 478.902 135.682C478.006 135.486 477.367 135.201 476.984 134.828C476.667 134.511 476.508 134.095 476.508 133.582C476.508 132.901 476.784 132.378 477.334 132.014C477.829 131.678 478.496 131.51 479.336 131.51C480.204 131.51 480.909 131.725 481.45 132.154C481.917 132.527 482.206 133.022 482.318 133.638H480.946C480.788 132.929 480.246 132.574 479.322 132.574C478.809 132.574 478.426 132.667 478.174 132.854C477.969 133.013 477.866 133.213 477.866 133.456C477.866 133.755 477.978 133.979 478.202 134.128C478.436 134.277 478.888 134.427 479.56 134.576C480.587 134.8 481.301 135.075 481.702 135.402C482.15 135.766 482.374 136.275 482.374 136.928C482.374 137.656 482.076 138.23 481.478 138.65C480.937 139.023 480.223 139.21 479.336 139.21C478.366 139.21 477.596 138.977 477.026 138.51C476.532 138.099 476.256 137.567 476.2 136.914H477.572C477.722 137.735 478.314 138.146 479.35 138.146C479.91 138.146 480.344 138.025 480.652 137.782C480.895 137.586 481.016 137.334 481.016 137.026ZM488.867 136.9H490.323C490.117 137.637 489.711 138.216 489.105 138.636C488.535 139.019 487.854 139.21 487.061 139.21C485.913 139.21 485.017 138.846 484.373 138.118C483.785 137.437 483.491 136.517 483.491 135.36C483.491 134.044 483.864 133.045 484.611 132.364C485.227 131.795 486.02 131.51 486.991 131.51C488.129 131.51 488.988 131.879 489.567 132.616C490.127 133.325 490.407 134.338 490.407 135.654H484.863C484.919 136.513 485.18 137.152 485.647 137.572C486.029 137.908 486.515 138.076 487.103 138.076C487.56 138.076 487.957 137.95 488.293 137.698C488.573 137.483 488.764 137.217 488.867 136.9ZM487.019 132.588C486.421 132.588 485.941 132.775 485.577 133.148C485.231 133.493 485.012 133.974 484.919 134.59H489.035C488.988 133.89 488.755 133.367 488.335 133.022C487.999 132.733 487.56 132.588 487.019 132.588ZM493.362 139H492.018V131.72H493.124L493.306 132.798C493.717 131.939 494.333 131.51 495.154 131.51C495.425 131.51 495.691 131.543 495.952 131.608V132.952C495.635 132.868 495.35 132.826 495.098 132.826C494.557 132.826 494.132 133.045 493.824 133.484C493.516 133.923 493.362 134.543 493.362 135.346V139ZM501.264 137.026C501.264 136.615 501.05 136.307 500.62 136.102C500.368 135.99 499.878 135.85 499.15 135.682C498.254 135.486 497.615 135.201 497.232 134.828C496.915 134.511 496.756 134.095 496.756 133.582C496.756 132.901 497.032 132.378 497.582 132.014C498.077 131.678 498.744 131.51 499.584 131.51C500.452 131.51 501.157 131.725 501.698 132.154C502.165 132.527 502.454 133.022 502.566 133.638H501.194C501.036 132.929 500.494 132.574 499.57 132.574C499.057 132.574 498.674 132.667 498.422 132.854C498.217 133.013 498.114 133.213 498.114 133.456C498.114 133.755 498.226 133.979 498.45 134.128C498.684 134.277 499.136 134.427 499.808 134.576C500.835 134.8 501.549 135.075 501.95 135.402C502.398 135.766 502.622 136.275 502.622 136.928C502.622 137.656 502.324 138.23 501.726 138.65C501.185 139.023 500.471 139.21 499.584 139.21C498.614 139.21 497.844 138.977 497.274 138.51C496.78 138.099 496.504 137.567 496.448 136.914H497.82C497.97 137.735 498.562 138.146 499.598 138.146C500.158 138.146 500.592 138.025 500.9 137.782C501.143 137.586 501.264 137.334 501.264 137.026Z" fill="white" fill-opacity="0.95"/>
</g>
<defs>
<clipPath id="clip0_2031_6477">
<rect width="36" height="20" fill="white" transform="translate(79.5 124)"/>
</clipPath>
<clipPath id="clip1_2031_6477">
<rect width="114" height="21" fill="white" transform="translate(222.5 124)"/>
</clipPath>
<clipPath id="clip2_2031_6477">
<rect width="160" height="21" fill="white" transform="translate(381.5 124)"/>
</clipPath>
</defs>
</svg>
