<svg width="559" height="270" viewBox="0 0 559 270" fill="none" xmlns="http://www.w3.org/2000/svg">
<rect width="559" height="270" rx="16" fill="#1A1A1A"/>
<path d="M514.201 48.1999C514.069 48.2002 513.938 48.1743 513.816 48.1236C513.695 48.073 513.584 47.9987 513.492 47.905L506.291 40.6696C506.199 40.5765 506.125 40.4661 506.076 40.3446C506.026 40.2232 506 40.0931 506 39.9618C506.001 39.8305 506.027 39.7005 506.078 39.5793C506.128 39.4581 506.202 39.3481 506.295 39.2555C506.388 39.1629 506.499 39.0896 506.62 39.0397C506.742 38.9898 506.872 38.9643 507.003 38.9646C507.134 38.965 507.264 38.9912 507.386 39.0418C507.507 39.0924 507.617 39.1663 507.709 39.2595L514.254 45.8366L530.35 32.0417C530.551 31.8692 530.813 31.7837 531.077 31.804C531.341 31.8244 531.587 31.9488 531.759 32.1501C531.932 32.3513 532.017 32.6129 531.997 32.8771C531.976 33.1414 531.852 33.3868 531.651 33.5593L514.851 47.9587C514.67 48.1145 514.439 48.2001 514.201 48.1999Z" fill="url(#paint0_linear_2031_6269)"/>
<path d="M104.5 92.5C104.5 96.366 101.366 99.5 97.5 99.5C93.634 99.5 90.5 96.366 90.5 92.5C90.5 88.634 93.634 85.5 97.5 85.5C101.366 85.5 104.5 88.634 104.5 92.5Z" stroke="#64B4FA" stroke-width="2"/>
<g clip-path="url(#clip0_2031_6269)">
<path d="M80.7681 123.5V113.318H82.0011V122.406H86.734V123.5H80.7681ZM90.7312 123.679C90.2473 123.679 89.8081 123.588 89.4137 123.406C89.0193 123.22 88.7061 122.953 88.4741 122.605C88.2421 122.254 88.1261 121.83 88.1261 121.332C88.1261 120.895 88.2122 120.54 88.3846 120.268C88.5569 119.993 88.7873 119.778 89.0756 119.622C89.364 119.466 89.6822 119.35 90.0302 119.274C90.3815 119.195 90.7345 119.132 91.0891 119.085C91.5531 119.026 91.9293 118.981 92.2177 118.951C92.5094 118.918 92.7215 118.863 92.854 118.787C92.9899 118.711 93.0579 118.578 93.0579 118.389V118.349C93.0579 117.859 92.9237 117.478 92.6552 117.206C92.39 116.934 91.9873 116.798 91.4471 116.798C90.887 116.798 90.4478 116.921 90.1296 117.166C89.8114 117.411 89.5877 117.673 89.4585 117.952L88.3448 117.554C88.5437 117.09 88.8088 116.729 89.1403 116.47C89.475 116.208 89.8396 116.026 90.234 115.923C90.6317 115.817 91.0228 115.764 91.4073 115.764C91.6526 115.764 91.9343 115.794 92.2525 115.854C92.574 115.91 92.8839 116.028 93.1822 116.207C93.4838 116.386 93.734 116.656 93.9329 117.017C94.1317 117.378 94.2312 117.862 94.2312 118.469V123.5H93.0579V122.466H92.9982C92.9187 122.632 92.7861 122.809 92.6005 122.998C92.4149 123.187 92.168 123.348 91.8597 123.48C91.5515 123.613 91.1753 123.679 90.7312 123.679ZM90.9102 122.625C91.3742 122.625 91.7653 122.534 92.0835 122.352C92.4049 122.169 92.6469 121.934 92.8093 121.646C92.975 121.357 93.0579 121.054 93.0579 120.736V119.662C93.0082 119.722 92.8988 119.776 92.7298 119.826C92.564 119.872 92.3718 119.914 92.1531 119.95C91.9376 119.983 91.7272 120.013 91.5217 120.04C91.3195 120.063 91.1554 120.083 91.0295 120.099C90.7246 120.139 90.4395 120.204 90.1744 120.293C89.9125 120.379 89.7004 120.51 89.538 120.686C89.3789 120.858 89.2994 121.094 89.2994 121.392C89.2994 121.8 89.4502 122.108 89.7518 122.317C90.0567 122.522 90.4428 122.625 90.9102 122.625ZM96.5318 123.5V113.318H97.7051V117.077H97.8045C97.8907 116.944 98.01 116.775 98.1625 116.57C98.3182 116.361 98.5403 116.175 98.8287 116.013C99.1203 115.847 99.5147 115.764 100.012 115.764C100.655 115.764 101.222 115.925 101.712 116.246C102.203 116.568 102.586 117.024 102.861 117.614C103.136 118.204 103.273 118.9 103.273 119.702C103.273 120.51 103.136 121.211 102.861 121.805C102.586 122.395 102.204 122.852 101.717 123.177C101.23 123.498 100.668 123.659 100.032 123.659C99.5413 123.659 99.1485 123.578 98.8535 123.415C98.5585 123.25 98.3315 123.062 98.1724 122.854C98.0133 122.642 97.8907 122.466 97.8045 122.327H97.6653V123.5H96.5318ZM97.6852 119.682C97.6852 120.259 97.7697 120.767 97.9387 121.208C98.1078 121.646 98.3547 121.989 98.6795 122.237C99.0043 122.482 99.402 122.605 99.8727 122.605C100.363 122.605 100.773 122.476 101.101 122.217C101.432 121.955 101.681 121.604 101.846 121.163C102.015 120.719 102.1 120.225 102.1 119.682C102.1 119.145 102.017 118.661 101.851 118.23C101.689 117.796 101.442 117.453 101.111 117.201C100.782 116.946 100.37 116.818 99.8727 116.818C99.3954 116.818 98.9944 116.939 98.6696 117.181C98.3448 117.42 98.0995 117.754 97.9338 118.185C97.7681 118.613 97.6852 119.112 97.6852 119.682ZM108.27 123.659C107.534 123.659 106.899 123.497 106.366 123.172C105.835 122.844 105.426 122.386 105.138 121.8C104.853 121.21 104.71 120.524 104.71 119.741C104.71 118.959 104.853 118.27 105.138 117.673C105.426 117.073 105.827 116.606 106.341 116.271C106.858 115.933 107.461 115.764 108.15 115.764C108.548 115.764 108.941 115.83 109.329 115.963C109.716 116.096 110.069 116.311 110.388 116.609C110.706 116.904 110.959 117.295 111.148 117.783C111.337 118.27 111.432 118.87 111.432 119.582V120.08H105.545V119.065H110.238C110.238 118.634 110.152 118.25 109.98 117.912C109.811 117.574 109.569 117.307 109.254 117.112C108.943 116.916 108.575 116.818 108.15 116.818C107.683 116.818 107.279 116.934 106.937 117.166C106.599 117.395 106.339 117.693 106.157 118.061C105.974 118.429 105.883 118.823 105.883 119.244V119.92C105.883 120.497 105.983 120.986 106.182 121.387C106.384 121.785 106.664 122.088 107.022 122.297C107.38 122.502 107.796 122.605 108.27 122.605C108.578 122.605 108.856 122.562 109.105 122.476C109.357 122.386 109.574 122.254 109.756 122.078C109.939 121.899 110.079 121.677 110.179 121.412L111.312 121.73C111.193 122.115 110.992 122.453 110.711 122.744C110.429 123.033 110.081 123.258 109.667 123.42C109.252 123.58 108.787 123.659 108.27 123.659ZM114.39 113.318V123.5H113.216V113.318H114.39Z" fill="white" fill-opacity="0.7"/>
</g>
<rect x="113.5" y="91.5" width="150" height="2" fill="#8F8F8F"/>
<path d="M286.5 92.5C286.5 96.366 283.366 99.5 279.5 99.5C275.634 99.5 272.5 96.366 272.5 92.5C272.5 88.634 275.634 85.5 279.5 85.5C283.366 85.5 286.5 88.634 286.5 92.5Z" stroke="#64B4FA" stroke-width="2"/>
<g clip-path="url(#clip1_2031_6269)">
<path d="M262.768 123.5V113.318H264.001V122.406H268.734V123.5H262.768ZM272.731 123.679C272.247 123.679 271.808 123.588 271.414 123.406C271.019 123.22 270.706 122.953 270.474 122.605C270.242 122.254 270.126 121.83 270.126 121.332C270.126 120.895 270.212 120.54 270.385 120.268C270.557 119.993 270.787 119.778 271.076 119.622C271.364 119.466 271.682 119.35 272.03 119.274C272.382 119.195 272.734 119.132 273.089 119.085C273.553 119.026 273.929 118.981 274.218 118.951C274.509 118.918 274.721 118.863 274.854 118.787C274.99 118.711 275.058 118.578 275.058 118.389V118.349C275.058 117.859 274.924 117.478 274.655 117.206C274.39 116.934 273.987 116.798 273.447 116.798C272.887 116.798 272.448 116.921 272.13 117.166C271.811 117.411 271.588 117.673 271.458 117.952L270.345 117.554C270.544 117.09 270.809 116.729 271.14 116.47C271.475 116.208 271.84 116.026 272.234 115.923C272.632 115.817 273.023 115.764 273.407 115.764C273.653 115.764 273.934 115.794 274.252 115.854C274.574 115.91 274.884 116.028 275.182 116.207C275.484 116.386 275.734 116.656 275.933 117.017C276.132 117.378 276.231 117.862 276.231 118.469V123.5H275.058V122.466H274.998C274.919 122.632 274.786 122.809 274.6 122.998C274.415 123.187 274.168 123.348 273.86 123.48C273.551 123.613 273.175 123.679 272.731 123.679ZM272.91 122.625C273.374 122.625 273.765 122.534 274.083 122.352C274.405 122.169 274.647 121.934 274.809 121.646C274.975 121.357 275.058 121.054 275.058 120.736V119.662C275.008 119.722 274.899 119.776 274.73 119.826C274.564 119.872 274.372 119.914 274.153 119.95C273.938 119.983 273.727 120.013 273.522 120.04C273.319 120.063 273.155 120.083 273.029 120.099C272.725 120.139 272.44 120.204 272.174 120.293C271.913 120.379 271.7 120.51 271.538 120.686C271.379 120.858 271.299 121.094 271.299 121.392C271.299 121.8 271.45 122.108 271.752 122.317C272.057 122.522 272.443 122.625 272.91 122.625ZM278.532 123.5V113.318H279.705V117.077H279.805C279.891 116.944 280.01 116.775 280.162 116.57C280.318 116.361 280.54 116.175 280.829 116.013C281.12 115.847 281.515 115.764 282.012 115.764C282.655 115.764 283.222 115.925 283.712 116.246C284.203 116.568 284.586 117.024 284.861 117.614C285.136 118.204 285.273 118.9 285.273 119.702C285.273 120.51 285.136 121.211 284.861 121.805C284.586 122.395 284.204 122.852 283.717 123.177C283.23 123.498 282.668 123.659 282.032 123.659C281.541 123.659 281.148 123.578 280.854 123.415C280.559 123.25 280.331 123.062 280.172 122.854C280.013 122.642 279.891 122.466 279.805 122.327H279.665V123.5H278.532ZM279.685 119.682C279.685 120.259 279.77 120.767 279.939 121.208C280.108 121.646 280.355 121.989 280.68 122.237C281.004 122.482 281.402 122.605 281.873 122.605C282.363 122.605 282.773 122.476 283.101 122.217C283.432 121.955 283.681 121.604 283.846 121.163C284.015 120.719 284.1 120.225 284.1 119.682C284.1 119.145 284.017 118.661 283.851 118.23C283.689 117.796 283.442 117.453 283.111 117.201C282.782 116.946 282.37 116.818 281.873 116.818C281.395 116.818 280.994 116.939 280.67 117.181C280.345 117.42 280.099 117.754 279.934 118.185C279.768 118.613 279.685 119.112 279.685 119.682ZM290.27 123.659C289.534 123.659 288.899 123.497 288.366 123.172C287.835 122.844 287.426 122.386 287.138 121.8C286.853 121.21 286.71 120.524 286.71 119.741C286.71 118.959 286.853 118.27 287.138 117.673C287.426 117.073 287.827 116.606 288.341 116.271C288.858 115.933 289.461 115.764 290.15 115.764C290.548 115.764 290.941 115.83 291.329 115.963C291.716 116.096 292.069 116.311 292.388 116.609C292.706 116.904 292.959 117.295 293.148 117.783C293.337 118.27 293.432 118.87 293.432 119.582V120.08H287.545V119.065H292.238C292.238 118.634 292.152 118.25 291.98 117.912C291.811 117.574 291.569 117.307 291.254 117.112C290.943 116.916 290.575 116.818 290.15 116.818C289.683 116.818 289.279 116.934 288.937 117.166C288.599 117.395 288.339 117.693 288.157 118.061C287.974 118.429 287.883 118.823 287.883 119.244V119.92C287.883 120.497 287.983 120.986 288.182 121.387C288.384 121.785 288.664 122.088 289.022 122.297C289.38 122.502 289.796 122.605 290.27 122.605C290.578 122.605 290.856 122.562 291.105 122.476C291.357 122.386 291.574 122.254 291.756 122.078C291.939 121.899 292.079 121.677 292.179 121.412L293.312 121.73C293.193 122.115 292.992 122.453 292.711 122.744C292.429 123.033 292.081 123.258 291.667 123.42C291.252 123.58 290.787 123.659 290.27 123.659ZM296.39 113.318V123.5H295.216V113.318H296.39Z" fill="white" fill-opacity="0.7"/>
</g>
<rect x="295.5" y="91.5" width="150" height="2" fill="#8F8F8F"/>
<path d="M468.5 92.5C468.5 96.366 465.366 99.5 461.5 99.5C457.634 99.5 454.5 96.366 454.5 92.5C454.5 88.634 457.634 85.5 461.5 85.5C465.366 85.5 468.5 88.634 468.5 92.5Z" stroke="#64B4FA" stroke-width="2"/>
<g clip-path="url(#clip2_2031_6269)">
<path d="M444.768 123.5V113.318H446.001V122.406H450.734V123.5H444.768ZM454.731 123.679C454.247 123.679 453.808 123.588 453.414 123.406C453.019 123.22 452.706 122.953 452.474 122.605C452.242 122.254 452.126 121.83 452.126 121.332C452.126 120.895 452.212 120.54 452.385 120.268C452.557 119.993 452.787 119.778 453.076 119.622C453.364 119.466 453.682 119.35 454.03 119.274C454.382 119.195 454.734 119.132 455.089 119.085C455.553 119.026 455.929 118.981 456.218 118.951C456.509 118.918 456.721 118.863 456.854 118.787C456.99 118.711 457.058 118.578 457.058 118.389V118.349C457.058 117.859 456.924 117.478 456.655 117.206C456.39 116.934 455.987 116.798 455.447 116.798C454.887 116.798 454.448 116.921 454.13 117.166C453.811 117.411 453.588 117.673 453.458 117.952L452.345 117.554C452.544 117.09 452.809 116.729 453.14 116.47C453.475 116.208 453.84 116.026 454.234 115.923C454.632 115.817 455.023 115.764 455.407 115.764C455.653 115.764 455.934 115.794 456.252 115.854C456.574 115.91 456.884 116.028 457.182 116.207C457.484 116.386 457.734 116.656 457.933 117.017C458.132 117.378 458.231 117.862 458.231 118.469V123.5H457.058V122.466H456.998C456.919 122.632 456.786 122.809 456.6 122.998C456.415 123.187 456.168 123.348 455.86 123.48C455.551 123.613 455.175 123.679 454.731 123.679ZM454.91 122.625C455.374 122.625 455.765 122.534 456.083 122.352C456.405 122.169 456.647 121.934 456.809 121.646C456.975 121.357 457.058 121.054 457.058 120.736V119.662C457.008 119.722 456.899 119.776 456.73 119.826C456.564 119.872 456.372 119.914 456.153 119.95C455.938 119.983 455.727 120.013 455.522 120.04C455.319 120.063 455.155 120.083 455.029 120.099C454.725 120.139 454.44 120.204 454.174 120.293C453.913 120.379 453.7 120.51 453.538 120.686C453.379 120.858 453.299 121.094 453.299 121.392C453.299 121.8 453.45 122.108 453.752 122.317C454.057 122.522 454.443 122.625 454.91 122.625ZM460.532 123.5V113.318H461.705V117.077H461.805C461.891 116.944 462.01 116.775 462.162 116.57C462.318 116.361 462.54 116.175 462.829 116.013C463.12 115.847 463.515 115.764 464.012 115.764C464.655 115.764 465.222 115.925 465.712 116.246C466.203 116.568 466.586 117.024 466.861 117.614C467.136 118.204 467.273 118.9 467.273 119.702C467.273 120.51 467.136 121.211 466.861 121.805C466.586 122.395 466.204 122.852 465.717 123.177C465.23 123.498 464.668 123.659 464.032 123.659C463.541 123.659 463.148 123.578 462.854 123.415C462.559 123.25 462.331 123.062 462.172 122.854C462.013 122.642 461.891 122.466 461.805 122.327H461.665V123.5H460.532ZM461.685 119.682C461.685 120.259 461.77 120.767 461.939 121.208C462.108 121.646 462.355 121.989 462.68 122.237C463.004 122.482 463.402 122.605 463.873 122.605C464.363 122.605 464.773 122.476 465.101 122.217C465.432 121.955 465.681 121.604 465.846 121.163C466.015 120.719 466.1 120.225 466.1 119.682C466.1 119.145 466.017 118.661 465.851 118.23C465.689 117.796 465.442 117.453 465.111 117.201C464.782 116.946 464.37 116.818 463.873 116.818C463.395 116.818 462.994 116.939 462.67 117.181C462.345 117.42 462.099 117.754 461.934 118.185C461.768 118.613 461.685 119.112 461.685 119.682ZM472.27 123.659C471.534 123.659 470.899 123.497 470.366 123.172C469.835 122.844 469.426 122.386 469.138 121.8C468.853 121.21 468.71 120.524 468.71 119.741C468.71 118.959 468.853 118.27 469.138 117.673C469.426 117.073 469.827 116.606 470.341 116.271C470.858 115.933 471.461 115.764 472.15 115.764C472.548 115.764 472.941 115.83 473.329 115.963C473.716 116.096 474.069 116.311 474.388 116.609C474.706 116.904 474.959 117.295 475.148 117.783C475.337 118.27 475.432 118.87 475.432 119.582V120.08H469.545V119.065H474.238C474.238 118.634 474.152 118.25 473.98 117.912C473.811 117.574 473.569 117.307 473.254 117.112C472.943 116.916 472.575 116.818 472.15 116.818C471.683 116.818 471.279 116.934 470.937 117.166C470.599 117.395 470.339 117.693 470.157 118.061C469.974 118.429 469.883 118.823 469.883 119.244V119.92C469.883 120.497 469.983 120.986 470.182 121.387C470.384 121.785 470.664 122.088 471.022 122.297C471.38 122.502 471.796 122.605 472.27 122.605C472.578 122.605 472.856 122.562 473.105 122.476C473.357 122.386 473.574 122.254 473.756 122.078C473.939 121.899 474.079 121.677 474.179 121.412L475.312 121.73C475.193 122.115 474.992 122.453 474.711 122.744C474.429 123.033 474.081 123.258 473.667 123.42C473.252 123.58 472.787 123.659 472.27 123.659ZM478.39 113.318V123.5H477.216V113.318H478.39Z" fill="white" fill-opacity="0.7"/>
</g>
<path d="M164.5 170.5C164.5 174.366 161.366 177.5 157.5 177.5C153.634 177.5 150.5 174.366 150.5 170.5C150.5 166.634 153.634 163.5 157.5 163.5C161.366 163.5 164.5 166.634 164.5 170.5Z" stroke="#64B4FA" stroke-width="2"/>
<g clip-path="url(#clip3_2031_6269)">
<path d="M174.768 175.5V165.318H176.001V174.406H180.734V175.5H174.768ZM184.731 175.679C184.247 175.679 183.808 175.588 183.414 175.406C183.019 175.22 182.706 174.953 182.474 174.605C182.242 174.254 182.126 173.83 182.126 173.332C182.126 172.895 182.212 172.54 182.385 172.268C182.557 171.993 182.787 171.778 183.076 171.622C183.364 171.466 183.682 171.35 184.03 171.274C184.382 171.195 184.734 171.132 185.089 171.085C185.553 171.026 185.929 170.981 186.218 170.951C186.509 170.918 186.721 170.863 186.854 170.787C186.99 170.711 187.058 170.578 187.058 170.389V170.349C187.058 169.859 186.924 169.478 186.655 169.206C186.39 168.934 185.987 168.798 185.447 168.798C184.887 168.798 184.448 168.921 184.13 169.166C183.811 169.411 183.588 169.673 183.458 169.952L182.345 169.554C182.544 169.09 182.809 168.729 183.14 168.47C183.475 168.208 183.84 168.026 184.234 167.923C184.632 167.817 185.023 167.764 185.407 167.764C185.653 167.764 185.934 167.794 186.252 167.854C186.574 167.91 186.884 168.028 187.182 168.207C187.484 168.386 187.734 168.656 187.933 169.017C188.132 169.378 188.231 169.862 188.231 170.469V175.5H187.058V174.466H186.998C186.919 174.632 186.786 174.809 186.6 174.998C186.415 175.187 186.168 175.348 185.86 175.48C185.551 175.613 185.175 175.679 184.731 175.679ZM184.91 174.625C185.374 174.625 185.765 174.534 186.083 174.352C186.405 174.169 186.647 173.934 186.809 173.646C186.975 173.357 187.058 173.054 187.058 172.736V171.662C187.008 171.722 186.899 171.776 186.73 171.826C186.564 171.872 186.372 171.914 186.153 171.95C185.938 171.983 185.727 172.013 185.522 172.04C185.319 172.063 185.155 172.083 185.029 172.099C184.725 172.139 184.44 172.204 184.174 172.293C183.913 172.379 183.7 172.51 183.538 172.686C183.379 172.858 183.299 173.094 183.299 173.392C183.299 173.8 183.45 174.108 183.752 174.317C184.057 174.522 184.443 174.625 184.91 174.625ZM190.532 175.5V165.318H191.705V169.077H191.805C191.891 168.944 192.01 168.775 192.162 168.57C192.318 168.361 192.54 168.175 192.829 168.013C193.12 167.847 193.515 167.764 194.012 167.764C194.655 167.764 195.222 167.925 195.712 168.246C196.203 168.568 196.586 169.024 196.861 169.614C197.136 170.204 197.273 170.9 197.273 171.702C197.273 172.51 197.136 173.211 196.861 173.805C196.586 174.395 196.204 174.852 195.717 175.177C195.23 175.498 194.668 175.659 194.032 175.659C193.541 175.659 193.148 175.578 192.854 175.415C192.559 175.25 192.331 175.062 192.172 174.854C192.013 174.642 191.891 174.466 191.805 174.327H191.665V175.5H190.532ZM191.685 171.682C191.685 172.259 191.77 172.767 191.939 173.208C192.108 173.646 192.355 173.989 192.68 174.237C193.004 174.482 193.402 174.605 193.873 174.605C194.363 174.605 194.773 174.476 195.101 174.217C195.432 173.955 195.681 173.604 195.846 173.163C196.015 172.719 196.1 172.225 196.1 171.682C196.1 171.145 196.017 170.661 195.851 170.23C195.689 169.796 195.442 169.453 195.111 169.201C194.782 168.946 194.37 168.818 193.873 168.818C193.395 168.818 192.994 168.939 192.67 169.181C192.345 169.42 192.099 169.754 191.934 170.185C191.768 170.613 191.685 171.112 191.685 171.682ZM202.27 175.659C201.534 175.659 200.899 175.497 200.366 175.172C199.835 174.844 199.426 174.386 199.138 173.8C198.853 173.21 198.71 172.524 198.71 171.741C198.71 170.959 198.853 170.27 199.138 169.673C199.426 169.073 199.827 168.606 200.341 168.271C200.858 167.933 201.461 167.764 202.15 167.764C202.548 167.764 202.941 167.83 203.329 167.963C203.716 168.096 204.069 168.311 204.388 168.609C204.706 168.904 204.959 169.295 205.148 169.783C205.337 170.27 205.432 170.87 205.432 171.582V172.08H199.545V171.065H204.238C204.238 170.634 204.152 170.25 203.98 169.912C203.811 169.574 203.569 169.307 203.254 169.112C202.943 168.916 202.575 168.818 202.15 168.818C201.683 168.818 201.279 168.934 200.937 169.166C200.599 169.395 200.339 169.693 200.157 170.061C199.974 170.429 199.883 170.823 199.883 171.244V171.92C199.883 172.497 199.983 172.986 200.182 173.387C200.384 173.785 200.664 174.088 201.022 174.297C201.38 174.502 201.796 174.605 202.27 174.605C202.578 174.605 202.856 174.562 203.105 174.476C203.357 174.386 203.574 174.254 203.756 174.078C203.939 173.899 204.079 173.677 204.179 173.412L205.312 173.73C205.193 174.115 204.992 174.453 204.711 174.744C204.429 175.033 204.081 175.258 203.667 175.42C203.252 175.58 202.787 175.659 202.27 175.659ZM208.39 165.318V175.5H207.216V165.318H208.39Z" fill="white" fill-opacity="0.7"/>
</g>
<rect x="217.5" y="169.5" width="24" height="2" fill="#8F8F8F"/>
<path d="M264.5 170.5C264.5 174.366 261.366 177.5 257.5 177.5C253.634 177.5 250.5 174.366 250.5 170.5C250.5 166.634 253.634 163.5 257.5 163.5C261.366 163.5 264.5 166.634 264.5 170.5Z" stroke="#64B4FA" stroke-width="2"/>
<g clip-path="url(#clip4_2031_6269)">
<path d="M274.768 175.5V165.318H276.001V174.406H280.734V175.5H274.768ZM284.731 175.679C284.247 175.679 283.808 175.588 283.414 175.406C283.019 175.22 282.706 174.953 282.474 174.605C282.242 174.254 282.126 173.83 282.126 173.332C282.126 172.895 282.212 172.54 282.385 172.268C282.557 171.993 282.787 171.778 283.076 171.622C283.364 171.466 283.682 171.35 284.03 171.274C284.382 171.195 284.734 171.132 285.089 171.085C285.553 171.026 285.929 170.981 286.218 170.951C286.509 170.918 286.721 170.863 286.854 170.787C286.99 170.711 287.058 170.578 287.058 170.389V170.349C287.058 169.859 286.924 169.478 286.655 169.206C286.39 168.934 285.987 168.798 285.447 168.798C284.887 168.798 284.448 168.921 284.13 169.166C283.811 169.411 283.588 169.673 283.458 169.952L282.345 169.554C282.544 169.09 282.809 168.729 283.14 168.47C283.475 168.208 283.84 168.026 284.234 167.923C284.632 167.817 285.023 167.764 285.407 167.764C285.653 167.764 285.934 167.794 286.252 167.854C286.574 167.91 286.884 168.028 287.182 168.207C287.484 168.386 287.734 168.656 287.933 169.017C288.132 169.378 288.231 169.862 288.231 170.469V175.5H287.058V174.466H286.998C286.919 174.632 286.786 174.809 286.6 174.998C286.415 175.187 286.168 175.348 285.86 175.48C285.551 175.613 285.175 175.679 284.731 175.679ZM284.91 174.625C285.374 174.625 285.765 174.534 286.083 174.352C286.405 174.169 286.647 173.934 286.809 173.646C286.975 173.357 287.058 173.054 287.058 172.736V171.662C287.008 171.722 286.899 171.776 286.73 171.826C286.564 171.872 286.372 171.914 286.153 171.95C285.938 171.983 285.727 172.013 285.522 172.04C285.319 172.063 285.155 172.083 285.029 172.099C284.725 172.139 284.44 172.204 284.174 172.293C283.913 172.379 283.7 172.51 283.538 172.686C283.379 172.858 283.299 173.094 283.299 173.392C283.299 173.8 283.45 174.108 283.752 174.317C284.057 174.522 284.443 174.625 284.91 174.625ZM290.532 175.5V165.318H291.705V169.077H291.805C291.891 168.944 292.01 168.775 292.162 168.57C292.318 168.361 292.54 168.175 292.829 168.013C293.12 167.847 293.515 167.764 294.012 167.764C294.655 167.764 295.222 167.925 295.712 168.246C296.203 168.568 296.586 169.024 296.861 169.614C297.136 170.204 297.273 170.9 297.273 171.702C297.273 172.51 297.136 173.211 296.861 173.805C296.586 174.395 296.204 174.852 295.717 175.177C295.23 175.498 294.668 175.659 294.032 175.659C293.541 175.659 293.148 175.578 292.854 175.415C292.559 175.25 292.331 175.062 292.172 174.854C292.013 174.642 291.891 174.466 291.805 174.327H291.665V175.5H290.532ZM291.685 171.682C291.685 172.259 291.77 172.767 291.939 173.208C292.108 173.646 292.355 173.989 292.68 174.237C293.004 174.482 293.402 174.605 293.873 174.605C294.363 174.605 294.773 174.476 295.101 174.217C295.432 173.955 295.681 173.604 295.846 173.163C296.015 172.719 296.1 172.225 296.1 171.682C296.1 171.145 296.017 170.661 295.851 170.23C295.689 169.796 295.442 169.453 295.111 169.201C294.782 168.946 294.37 168.818 293.873 168.818C293.395 168.818 292.994 168.939 292.67 169.181C292.345 169.42 292.099 169.754 291.934 170.185C291.768 170.613 291.685 171.112 291.685 171.682ZM302.27 175.659C301.534 175.659 300.899 175.497 300.366 175.172C299.835 174.844 299.426 174.386 299.138 173.8C298.853 173.21 298.71 172.524 298.71 171.741C298.71 170.959 298.853 170.27 299.138 169.673C299.426 169.073 299.827 168.606 300.341 168.271C300.858 167.933 301.461 167.764 302.15 167.764C302.548 167.764 302.941 167.83 303.329 167.963C303.716 168.096 304.069 168.311 304.388 168.609C304.706 168.904 304.959 169.295 305.148 169.783C305.337 170.27 305.432 170.87 305.432 171.582V172.08H299.545V171.065H304.238C304.238 170.634 304.152 170.25 303.98 169.912C303.811 169.574 303.569 169.307 303.254 169.112C302.943 168.916 302.575 168.818 302.15 168.818C301.683 168.818 301.279 168.934 300.937 169.166C300.599 169.395 300.339 169.693 300.157 170.061C299.974 170.429 299.883 170.823 299.883 171.244V171.92C299.883 172.497 299.983 172.986 300.182 173.387C300.384 173.785 300.664 174.088 301.022 174.297C301.38 174.502 301.796 174.605 302.27 174.605C302.578 174.605 302.856 174.562 303.105 174.476C303.357 174.386 303.574 174.254 303.756 174.078C303.939 173.899 304.079 173.677 304.179 173.412L305.312 173.73C305.193 174.115 304.992 174.453 304.711 174.744C304.429 175.033 304.081 175.258 303.667 175.42C303.252 175.58 302.787 175.659 302.27 175.659ZM308.39 165.318V175.5H307.216V165.318H308.39Z" fill="white" fill-opacity="0.7"/>
</g>
<rect x="317.5" y="169.5" width="24" height="2" fill="#8F8F8F"/>
<path d="M364.5 170.5C364.5 174.366 361.366 177.5 357.5 177.5C353.634 177.5 350.5 174.366 350.5 170.5C350.5 166.634 353.634 163.5 357.5 163.5C361.366 163.5 364.5 166.634 364.5 170.5Z" stroke="#64B4FA" stroke-width="2"/>
<g clip-path="url(#clip5_2031_6269)">
<path d="M374.768 175.5V165.318H376.001V174.406H380.734V175.5H374.768ZM384.731 175.679C384.247 175.679 383.808 175.588 383.414 175.406C383.019 175.22 382.706 174.953 382.474 174.605C382.242 174.254 382.126 173.83 382.126 173.332C382.126 172.895 382.212 172.54 382.385 172.268C382.557 171.993 382.787 171.778 383.076 171.622C383.364 171.466 383.682 171.35 384.03 171.274C384.382 171.195 384.734 171.132 385.089 171.085C385.553 171.026 385.929 170.981 386.218 170.951C386.509 170.918 386.721 170.863 386.854 170.787C386.99 170.711 387.058 170.578 387.058 170.389V170.349C387.058 169.859 386.924 169.478 386.655 169.206C386.39 168.934 385.987 168.798 385.447 168.798C384.887 168.798 384.448 168.921 384.13 169.166C383.811 169.411 383.588 169.673 383.458 169.952L382.345 169.554C382.544 169.09 382.809 168.729 383.14 168.47C383.475 168.208 383.84 168.026 384.234 167.923C384.632 167.817 385.023 167.764 385.407 167.764C385.653 167.764 385.934 167.794 386.252 167.854C386.574 167.91 386.884 168.028 387.182 168.207C387.484 168.386 387.734 168.656 387.933 169.017C388.132 169.378 388.231 169.862 388.231 170.469V175.5H387.058V174.466H386.998C386.919 174.632 386.786 174.809 386.6 174.998C386.415 175.187 386.168 175.348 385.86 175.48C385.551 175.613 385.175 175.679 384.731 175.679ZM384.91 174.625C385.374 174.625 385.765 174.534 386.083 174.352C386.405 174.169 386.647 173.934 386.809 173.646C386.975 173.357 387.058 173.054 387.058 172.736V171.662C387.008 171.722 386.899 171.776 386.73 171.826C386.564 171.872 386.372 171.914 386.153 171.95C385.938 171.983 385.727 172.013 385.522 172.04C385.319 172.063 385.155 172.083 385.029 172.099C384.725 172.139 384.44 172.204 384.174 172.293C383.913 172.379 383.7 172.51 383.538 172.686C383.379 172.858 383.299 173.094 383.299 173.392C383.299 173.8 383.45 174.108 383.752 174.317C384.057 174.522 384.443 174.625 384.91 174.625ZM390.532 175.5V165.318H391.705V169.077H391.805C391.891 168.944 392.01 168.775 392.162 168.57C392.318 168.361 392.54 168.175 392.829 168.013C393.12 167.847 393.515 167.764 394.012 167.764C394.655 167.764 395.222 167.925 395.712 168.246C396.203 168.568 396.586 169.024 396.861 169.614C397.136 170.204 397.273 170.9 397.273 171.702C397.273 172.51 397.136 173.211 396.861 173.805C396.586 174.395 396.204 174.852 395.717 175.177C395.23 175.498 394.668 175.659 394.032 175.659C393.541 175.659 393.148 175.578 392.854 175.415C392.559 175.25 392.331 175.062 392.172 174.854C392.013 174.642 391.891 174.466 391.805 174.327H391.665V175.5H390.532ZM391.685 171.682C391.685 172.259 391.77 172.767 391.939 173.208C392.108 173.646 392.355 173.989 392.68 174.237C393.004 174.482 393.402 174.605 393.873 174.605C394.363 174.605 394.773 174.476 395.101 174.217C395.432 173.955 395.681 173.604 395.846 173.163C396.015 172.719 396.1 172.225 396.1 171.682C396.1 171.145 396.017 170.661 395.851 170.23C395.689 169.796 395.442 169.453 395.111 169.201C394.782 168.946 394.37 168.818 393.873 168.818C393.395 168.818 392.994 168.939 392.67 169.181C392.345 169.42 392.099 169.754 391.934 170.185C391.768 170.613 391.685 171.112 391.685 171.682ZM402.27 175.659C401.534 175.659 400.899 175.497 400.366 175.172C399.835 174.844 399.426 174.386 399.138 173.8C398.853 173.21 398.71 172.524 398.71 171.741C398.71 170.959 398.853 170.27 399.138 169.673C399.426 169.073 399.827 168.606 400.341 168.271C400.858 167.933 401.461 167.764 402.15 167.764C402.548 167.764 402.941 167.83 403.329 167.963C403.716 168.096 404.069 168.311 404.388 168.609C404.706 168.904 404.959 169.295 405.148 169.783C405.337 170.27 405.432 170.87 405.432 171.582V172.08H399.545V171.065H404.238C404.238 170.634 404.152 170.25 403.98 169.912C403.811 169.574 403.569 169.307 403.254 169.112C402.943 168.916 402.575 168.818 402.15 168.818C401.683 168.818 401.279 168.934 400.937 169.166C400.599 169.395 400.339 169.693 400.157 170.061C399.974 170.429 399.883 170.823 399.883 171.244V171.92C399.883 172.497 399.983 172.986 400.182 173.387C400.384 173.785 400.664 174.088 401.022 174.297C401.38 174.502 401.796 174.605 402.27 174.605C402.578 174.605 402.856 174.562 403.105 174.476C403.357 174.386 403.574 174.254 403.756 174.078C403.939 173.899 404.079 173.677 404.179 173.412L405.312 173.73C405.193 174.115 404.992 174.453 404.711 174.744C404.429 175.033 404.081 175.258 403.667 175.42C403.252 175.58 402.787 175.659 402.27 175.659ZM408.39 165.318V175.5H407.216V165.318H408.39Z" fill="white" fill-opacity="0.7"/>
</g>
<path d="M0 247H559C559 259.703 548.703 270 536 270H23C10.2975 270 0 259.703 0 247Z" fill="url(#paint1_linear_2031_6269)"/>
<defs>
<linearGradient id="paint0_linear_2031_6269" x1="519" y1="31.8011" x2="519" y2="48.1999" gradientUnits="userSpaceOnUse">
<stop stop-color="#3CC29A"/>
<stop offset="1" stop-color="#93C437"/>
</linearGradient>
<linearGradient id="paint1_linear_2031_6269" x1="279.5" y1="247" x2="279.5" y2="270" gradientUnits="userSpaceOnUse">
<stop stop-color="#3CC29A"/>
<stop offset="1" stop-color="#93C437"/>
</linearGradient>
<clipPath id="clip0_2031_6269">
<rect width="36" height="20" fill="white" transform="translate(79.5 108.5)"/>
</clipPath>
<clipPath id="clip1_2031_6269">
<rect width="36" height="20" fill="white" transform="translate(261.5 108.5)"/>
</clipPath>
<clipPath id="clip2_2031_6269">
<rect width="36" height="20" fill="white" transform="translate(443.5 108.5)"/>
</clipPath>
<clipPath id="clip3_2031_6269">
<rect width="36" height="20" fill="white" transform="translate(173.5 160.5)"/>
</clipPath>
<clipPath id="clip4_2031_6269">
<rect width="36" height="20" fill="white" transform="translate(273.5 160.5)"/>
</clipPath>
<clipPath id="clip5_2031_6269">
<rect width="36" height="20" fill="white" transform="translate(373.5 160.5)"/>
</clipPath>
</defs>
</svg>
