<svg width="1150" height="274" viewBox="0 0 1150 274" fill="none" xmlns="http://www.w3.org/2000/svg">
<rect width="1150" height="274" rx="16" fill="#1A1A1A"/>
<g clip-path="url(#clip0_2031_6783)">
<path d="M259.207 116L264.854 110.354C264.945 110.259 264.996 110.133 264.995 110.002C264.994 109.87 264.941 109.745 264.849 109.652C264.756 109.559 264.63 109.506 264.499 109.505C264.368 109.504 264.241 109.555 264.147 109.646L258.147 115.646C258.053 115.74 258 115.867 258 116C258 116.133 258.053 116.26 258.147 116.354L264.147 122.354C264.193 122.401 264.248 122.439 264.309 122.465C264.37 122.491 264.436 122.505 264.502 122.505C264.568 122.506 264.634 122.493 264.695 122.468C264.757 122.443 264.812 122.406 264.859 122.359C264.906 122.312 264.943 122.256 264.968 122.195C264.994 122.134 265.006 122.068 265.006 122.002C265.005 121.935 264.992 121.87 264.966 121.809C264.939 121.748 264.901 121.693 264.854 121.646L259.207 116Z" fill="white" fill-opacity="0.95"/>
<g clip-path="url(#clip1_2031_6783)">
<rect x="289.5" y="100" width="61" height="32" rx="16" fill="white" fill-opacity="0.2"/>
<path d="M302.949 121V110.818H304.485V119.678H309.099V121H302.949ZM312.954 121.169C312.47 121.169 312.033 121.08 311.642 120.901C311.25 120.718 310.941 120.455 310.712 120.11C310.486 119.765 310.374 119.343 310.374 118.842C310.374 118.411 310.457 118.057 310.622 117.778C310.788 117.5 311.012 117.28 311.294 117.117C311.575 116.955 311.89 116.832 312.238 116.749C312.586 116.666 312.941 116.603 313.302 116.56C313.759 116.507 314.131 116.464 314.416 116.431C314.701 116.395 314.908 116.337 315.037 116.257C315.166 116.178 315.231 116.048 315.231 115.869V115.835C315.231 115.4 315.108 115.064 314.863 114.825C314.621 114.587 314.26 114.467 313.779 114.467C313.279 114.467 312.884 114.578 312.596 114.8C312.311 115.019 312.114 115.263 312.004 115.531L310.607 115.213C310.773 114.749 311.015 114.375 311.333 114.089C311.655 113.801 312.024 113.592 312.442 113.463C312.86 113.33 313.299 113.264 313.759 113.264C314.064 113.264 314.387 113.301 314.729 113.374C315.074 113.443 315.395 113.572 315.693 113.761C315.995 113.95 316.242 114.22 316.434 114.572C316.626 114.92 316.722 115.372 316.722 115.929V121H315.271V119.956H315.211C315.115 120.148 314.971 120.337 314.779 120.523C314.586 120.708 314.339 120.862 314.038 120.985C313.736 121.108 313.375 121.169 312.954 121.169ZM313.277 119.976C313.688 119.976 314.039 119.895 314.331 119.732C314.626 119.57 314.85 119.358 315.002 119.096C315.158 118.831 315.236 118.547 315.236 118.246V117.261C315.183 117.314 315.08 117.364 314.928 117.411C314.779 117.454 314.608 117.492 314.416 117.525C314.223 117.555 314.036 117.583 313.854 117.609C313.672 117.633 313.519 117.652 313.396 117.669C313.108 117.705 312.845 117.767 312.606 117.853C312.371 117.939 312.182 118.063 312.039 118.226C311.9 118.385 311.83 118.597 311.83 118.862C311.83 119.23 311.966 119.509 312.238 119.697C312.51 119.883 312.856 119.976 313.277 119.976ZM318.822 121V110.818H320.308V114.602H320.398C320.484 114.442 320.608 114.259 320.771 114.05C320.933 113.841 321.158 113.659 321.447 113.503C321.735 113.344 322.116 113.264 322.59 113.264C323.207 113.264 323.757 113.42 324.241 113.732C324.725 114.043 325.104 114.492 325.379 115.079C325.658 115.665 325.797 116.371 325.797 117.197C325.797 118.022 325.659 118.73 325.384 119.32C325.109 119.906 324.731 120.359 324.251 120.677C323.77 120.992 323.222 121.149 322.605 121.149C322.141 121.149 321.762 121.071 321.467 120.915C321.175 120.76 320.946 120.577 320.781 120.369C320.615 120.16 320.487 119.974 320.398 119.812H320.273V121H318.822ZM320.278 117.182C320.278 117.719 320.356 118.189 320.512 118.594C320.668 118.998 320.893 119.315 321.188 119.543C321.483 119.769 321.844 119.881 322.272 119.881C322.716 119.881 323.087 119.764 323.386 119.528C323.684 119.29 323.909 118.967 324.062 118.559C324.218 118.151 324.295 117.692 324.295 117.182C324.295 116.678 324.219 116.226 324.067 115.825C323.918 115.424 323.692 115.107 323.391 114.875C323.092 114.643 322.719 114.527 322.272 114.527C321.841 114.527 321.477 114.638 321.178 114.86C320.883 115.082 320.66 115.392 320.507 115.79C320.355 116.187 320.278 116.652 320.278 117.182ZM330.757 121.154C330.005 121.154 329.357 120.993 328.813 120.672C328.273 120.347 327.856 119.891 327.561 119.305C327.269 118.715 327.123 118.024 327.123 117.232C327.123 116.449 327.269 115.76 327.561 115.163C327.856 114.567 328.267 114.101 328.794 113.766C329.324 113.432 329.944 113.264 330.653 113.264C331.084 113.264 331.501 113.335 331.906 113.478C332.31 113.621 332.673 113.844 332.994 114.149C333.316 114.454 333.57 114.85 333.755 115.337C333.941 115.821 334.034 116.41 334.034 117.102V117.629H327.963V116.516H332.577C332.577 116.125 332.497 115.778 332.338 115.477C332.179 115.172 331.955 114.931 331.667 114.756C331.382 114.58 331.047 114.492 330.663 114.492C330.245 114.492 329.881 114.595 329.569 114.8C329.261 115.003 329.022 115.268 328.853 115.596C328.687 115.921 328.605 116.274 328.605 116.655V117.525C328.605 118.035 328.694 118.469 328.873 118.827C329.055 119.185 329.309 119.459 329.634 119.648C329.959 119.833 330.338 119.926 330.772 119.926C331.054 119.926 331.311 119.886 331.543 119.807C331.775 119.724 331.975 119.601 332.144 119.439C332.313 119.277 332.443 119.076 332.532 118.837L333.939 119.091C333.826 119.505 333.624 119.868 333.333 120.18C333.044 120.488 332.681 120.728 332.244 120.901C331.81 121.07 331.314 121.154 330.757 121.154ZM337.169 110.818V121H335.683V110.818H337.169Z" fill="white" fill-opacity="0.95"/>
<path d="M371.949 121V110.818H373.485V119.678H378.099V121H371.949ZM381.954 121.169C381.47 121.169 381.033 121.08 380.642 120.901C380.25 120.718 379.941 120.455 379.712 120.11C379.486 119.765 379.374 119.343 379.374 118.842C379.374 118.411 379.457 118.057 379.622 117.778C379.788 117.5 380.012 117.28 380.294 117.117C380.575 116.955 380.89 116.832 381.238 116.749C381.586 116.666 381.941 116.603 382.302 116.56C382.759 116.507 383.131 116.464 383.416 116.431C383.701 116.395 383.908 116.337 384.037 116.257C384.166 116.178 384.231 116.048 384.231 115.869V115.835C384.231 115.4 384.108 115.064 383.863 114.825C383.621 114.587 383.26 114.467 382.779 114.467C382.279 114.467 381.884 114.578 381.596 114.8C381.311 115.019 381.114 115.263 381.004 115.531L379.607 115.213C379.773 114.749 380.015 114.375 380.333 114.089C380.655 113.801 381.024 113.592 381.442 113.463C381.86 113.33 382.299 113.264 382.759 113.264C383.064 113.264 383.387 113.301 383.729 113.374C384.074 113.443 384.395 113.572 384.693 113.761C384.995 113.95 385.242 114.22 385.434 114.572C385.626 114.92 385.722 115.372 385.722 115.929V121H384.271V119.956H384.211C384.115 120.148 383.971 120.337 383.779 120.523C383.586 120.708 383.339 120.862 383.038 120.985C382.736 121.108 382.375 121.169 381.954 121.169ZM382.277 119.976C382.688 119.976 383.039 119.895 383.331 119.732C383.626 119.57 383.85 119.358 384.002 119.096C384.158 118.831 384.236 118.547 384.236 118.246V117.261C384.183 117.314 384.08 117.364 383.928 117.411C383.779 117.454 383.608 117.492 383.416 117.525C383.223 117.555 383.036 117.583 382.854 117.609C382.672 117.633 382.519 117.652 382.396 117.669C382.108 117.705 381.845 117.767 381.606 117.853C381.371 117.939 381.182 118.063 381.039 118.226C380.9 118.385 380.83 118.597 380.83 118.862C380.83 119.23 380.966 119.509 381.238 119.697C381.51 119.883 381.856 119.976 382.277 119.976ZM387.822 121V110.818H389.308V114.602H389.398C389.484 114.442 389.608 114.259 389.771 114.05C389.933 113.841 390.158 113.659 390.447 113.503C390.735 113.344 391.116 113.264 391.59 113.264C392.207 113.264 392.757 113.42 393.241 113.732C393.725 114.043 394.104 114.492 394.379 115.079C394.658 115.665 394.797 116.371 394.797 117.197C394.797 118.022 394.659 118.73 394.384 119.32C394.109 119.906 393.731 120.359 393.251 120.677C392.77 120.992 392.222 121.149 391.605 121.149C391.141 121.149 390.762 121.071 390.467 120.915C390.175 120.76 389.946 120.577 389.781 120.369C389.615 120.16 389.487 119.974 389.398 119.812H389.273V121H387.822ZM389.278 117.182C389.278 117.719 389.356 118.189 389.512 118.594C389.668 118.998 389.893 119.315 390.188 119.543C390.483 119.769 390.844 119.881 391.272 119.881C391.716 119.881 392.087 119.764 392.386 119.528C392.684 119.29 392.909 118.967 393.062 118.559C393.218 118.151 393.295 117.692 393.295 117.182C393.295 116.678 393.219 116.226 393.067 115.825C392.918 115.424 392.692 115.107 392.391 114.875C392.092 114.643 391.719 114.527 391.272 114.527C390.841 114.527 390.477 114.638 390.178 114.86C389.883 115.082 389.66 115.392 389.507 115.79C389.355 116.187 389.278 116.652 389.278 117.182ZM399.757 121.154C399.005 121.154 398.357 120.993 397.813 120.672C397.273 120.347 396.856 119.891 396.561 119.305C396.269 118.715 396.123 118.024 396.123 117.232C396.123 116.449 396.269 115.76 396.561 115.163C396.856 114.567 397.267 114.101 397.794 113.766C398.324 113.432 398.944 113.264 399.653 113.264C400.084 113.264 400.501 113.335 400.906 113.478C401.31 113.621 401.673 113.844 401.994 114.149C402.316 114.454 402.57 114.85 402.755 115.337C402.941 115.821 403.034 116.41 403.034 117.102V117.629H396.963V116.516H401.577C401.577 116.125 401.497 115.778 401.338 115.477C401.179 115.172 400.955 114.931 400.667 114.756C400.382 114.58 400.047 114.492 399.663 114.492C399.245 114.492 398.881 114.595 398.569 114.8C398.261 115.003 398.022 115.268 397.853 115.596C397.687 115.921 397.605 116.274 397.605 116.655V117.525C397.605 118.035 397.694 118.469 397.873 118.827C398.055 119.185 398.309 119.459 398.634 119.648C398.959 119.833 399.338 119.926 399.772 119.926C400.054 119.926 400.311 119.886 400.543 119.807C400.775 119.724 400.975 119.601 401.144 119.439C401.313 119.277 401.443 119.076 401.532 118.837L402.939 119.091C402.826 119.505 402.624 119.868 402.333 120.18C402.044 120.488 401.681 120.728 401.244 120.901C400.81 121.07 400.314 121.154 399.757 121.154ZM406.169 110.818V121H404.683V110.818H406.169Z" fill="white" fill-opacity="0.7"/>
<path d="M440.949 121V110.818H442.485V119.678H447.099V121H440.949ZM450.954 121.169C450.47 121.169 450.033 121.08 449.642 120.901C449.25 120.718 448.941 120.455 448.712 120.11C448.486 119.765 448.374 119.343 448.374 118.842C448.374 118.411 448.457 118.057 448.622 117.778C448.788 117.5 449.012 117.28 449.294 117.117C449.575 116.955 449.89 116.832 450.238 116.749C450.586 116.666 450.941 116.603 451.302 116.56C451.759 116.507 452.131 116.464 452.416 116.431C452.701 116.395 452.908 116.337 453.037 116.257C453.166 116.178 453.231 116.048 453.231 115.869V115.835C453.231 115.4 453.108 115.064 452.863 114.825C452.621 114.587 452.26 114.467 451.779 114.467C451.279 114.467 450.884 114.578 450.596 114.8C450.311 115.019 450.114 115.263 450.004 115.531L448.607 115.213C448.773 114.749 449.015 114.375 449.333 114.089C449.655 113.801 450.024 113.592 450.442 113.463C450.86 113.33 451.299 113.264 451.759 113.264C452.064 113.264 452.387 113.301 452.729 113.374C453.074 113.443 453.395 113.572 453.693 113.761C453.995 113.95 454.242 114.22 454.434 114.572C454.626 114.92 454.722 115.372 454.722 115.929V121H453.271V119.956H453.211C453.115 120.148 452.971 120.337 452.779 120.523C452.586 120.708 452.339 120.862 452.038 120.985C451.736 121.108 451.375 121.169 450.954 121.169ZM451.277 119.976C451.688 119.976 452.039 119.895 452.331 119.732C452.626 119.57 452.85 119.358 453.002 119.096C453.158 118.831 453.236 118.547 453.236 118.246V117.261C453.183 117.314 453.08 117.364 452.928 117.411C452.779 117.454 452.608 117.492 452.416 117.525C452.223 117.555 452.036 117.583 451.854 117.609C451.672 117.633 451.519 117.652 451.396 117.669C451.108 117.705 450.845 117.767 450.606 117.853C450.371 117.939 450.182 118.063 450.039 118.226C449.9 118.385 449.83 118.597 449.83 118.862C449.83 119.23 449.966 119.509 450.238 119.697C450.51 119.883 450.856 119.976 451.277 119.976ZM456.822 121V110.818H458.308V114.602H458.398C458.484 114.442 458.608 114.259 458.771 114.05C458.933 113.841 459.158 113.659 459.447 113.503C459.735 113.344 460.116 113.264 460.59 113.264C461.207 113.264 461.757 113.42 462.241 113.732C462.725 114.043 463.104 114.492 463.379 115.079C463.658 115.665 463.797 116.371 463.797 117.197C463.797 118.022 463.659 118.73 463.384 119.32C463.109 119.906 462.731 120.359 462.251 120.677C461.77 120.992 461.222 121.149 460.605 121.149C460.141 121.149 459.762 121.071 459.467 120.915C459.175 120.76 458.946 120.577 458.781 120.369C458.615 120.16 458.487 119.974 458.398 119.812H458.273V121H456.822ZM458.278 117.182C458.278 117.719 458.356 118.189 458.512 118.594C458.668 118.998 458.893 119.315 459.188 119.543C459.483 119.769 459.844 119.881 460.272 119.881C460.716 119.881 461.087 119.764 461.386 119.528C461.684 119.29 461.909 118.967 462.062 118.559C462.218 118.151 462.295 117.692 462.295 117.182C462.295 116.678 462.219 116.226 462.067 115.825C461.918 115.424 461.692 115.107 461.391 114.875C461.092 114.643 460.719 114.527 460.272 114.527C459.841 114.527 459.477 114.638 459.178 114.86C458.883 115.082 458.66 115.392 458.507 115.79C458.355 116.187 458.278 116.652 458.278 117.182ZM468.757 121.154C468.005 121.154 467.357 120.993 466.813 120.672C466.273 120.347 465.856 119.891 465.561 119.305C465.269 118.715 465.123 118.024 465.123 117.232C465.123 116.449 465.269 115.76 465.561 115.163C465.856 114.567 466.267 114.101 466.794 113.766C467.324 113.432 467.944 113.264 468.653 113.264C469.084 113.264 469.501 113.335 469.906 113.478C470.31 113.621 470.673 113.844 470.994 114.149C471.316 114.454 471.57 114.85 471.755 115.337C471.941 115.821 472.034 116.41 472.034 117.102V117.629H465.963V116.516H470.577C470.577 116.125 470.497 115.778 470.338 115.477C470.179 115.172 469.955 114.931 469.667 114.756C469.382 114.58 469.047 114.492 468.663 114.492C468.245 114.492 467.881 114.595 467.569 114.8C467.261 115.003 467.022 115.268 466.853 115.596C466.687 115.921 466.605 116.274 466.605 116.655V117.525C466.605 118.035 466.694 118.469 466.873 118.827C467.055 119.185 467.309 119.459 467.634 119.648C467.959 119.833 468.338 119.926 468.772 119.926C469.054 119.926 469.311 119.886 469.543 119.807C469.775 119.724 469.975 119.601 470.144 119.439C470.313 119.277 470.443 119.076 470.532 118.837L471.939 119.091C471.826 119.505 471.624 119.868 471.333 120.18C471.044 120.488 470.681 120.728 470.244 120.901C469.81 121.07 469.314 121.154 468.757 121.154ZM475.169 110.818V121H473.683V110.818H475.169Z" fill="white" fill-opacity="0.7"/>
<path d="M509.949 121V110.818H511.485V119.678H516.099V121H509.949ZM519.954 121.169C519.47 121.169 519.033 121.08 518.642 120.901C518.25 120.718 517.941 120.455 517.712 120.11C517.486 119.765 517.374 119.343 517.374 118.842C517.374 118.411 517.457 118.057 517.622 117.778C517.788 117.5 518.012 117.28 518.294 117.117C518.575 116.955 518.89 116.832 519.238 116.749C519.586 116.666 519.941 116.603 520.302 116.56C520.759 116.507 521.131 116.464 521.416 116.431C521.701 116.395 521.908 116.337 522.037 116.257C522.166 116.178 522.231 116.048 522.231 115.869V115.835C522.231 115.4 522.108 115.064 521.863 114.825C521.621 114.587 521.26 114.467 520.779 114.467C520.279 114.467 519.884 114.578 519.596 114.8C519.311 115.019 519.114 115.263 519.004 115.531L517.607 115.213C517.773 114.749 518.015 114.375 518.333 114.089C518.655 113.801 519.024 113.592 519.442 113.463C519.86 113.33 520.299 113.264 520.759 113.264C521.064 113.264 521.387 113.301 521.729 113.374C522.074 113.443 522.395 113.572 522.693 113.761C522.995 113.95 523.242 114.22 523.434 114.572C523.626 114.92 523.722 115.372 523.722 115.929V121H522.271V119.956H522.211C522.115 120.148 521.971 120.337 521.779 120.523C521.586 120.708 521.339 120.862 521.038 120.985C520.736 121.108 520.375 121.169 519.954 121.169ZM520.277 119.976C520.688 119.976 521.039 119.895 521.331 119.732C521.626 119.57 521.85 119.358 522.002 119.096C522.158 118.831 522.236 118.547 522.236 118.246V117.261C522.183 117.314 522.08 117.364 521.928 117.411C521.779 117.454 521.608 117.492 521.416 117.525C521.223 117.555 521.036 117.583 520.854 117.609C520.672 117.633 520.519 117.652 520.396 117.669C520.108 117.705 519.845 117.767 519.606 117.853C519.371 117.939 519.182 118.063 519.039 118.226C518.9 118.385 518.83 118.597 518.83 118.862C518.83 119.23 518.966 119.509 519.238 119.697C519.51 119.883 519.856 119.976 520.277 119.976ZM525.822 121V110.818H527.308V114.602H527.398C527.484 114.442 527.608 114.259 527.771 114.05C527.933 113.841 528.158 113.659 528.447 113.503C528.735 113.344 529.116 113.264 529.59 113.264C530.207 113.264 530.757 113.42 531.241 113.732C531.725 114.043 532.104 114.492 532.379 115.079C532.658 115.665 532.797 116.371 532.797 117.197C532.797 118.022 532.659 118.73 532.384 119.32C532.109 119.906 531.731 120.359 531.251 120.677C530.77 120.992 530.222 121.149 529.605 121.149C529.141 121.149 528.762 121.071 528.467 120.915C528.175 120.76 527.946 120.577 527.781 120.369C527.615 120.16 527.487 119.974 527.398 119.812H527.273V121H525.822ZM527.278 117.182C527.278 117.719 527.356 118.189 527.512 118.594C527.668 118.998 527.893 119.315 528.188 119.543C528.483 119.769 528.844 119.881 529.272 119.881C529.716 119.881 530.087 119.764 530.386 119.528C530.684 119.29 530.909 118.967 531.062 118.559C531.218 118.151 531.295 117.692 531.295 117.182C531.295 116.678 531.219 116.226 531.067 115.825C530.918 115.424 530.692 115.107 530.391 114.875C530.092 114.643 529.719 114.527 529.272 114.527C528.841 114.527 528.477 114.638 528.178 114.86C527.883 115.082 527.66 115.392 527.507 115.79C527.355 116.187 527.278 116.652 527.278 117.182ZM537.757 121.154C537.005 121.154 536.357 120.993 535.813 120.672C535.273 120.347 534.856 119.891 534.561 119.305C534.269 118.715 534.123 118.024 534.123 117.232C534.123 116.449 534.269 115.76 534.561 115.163C534.856 114.567 535.267 114.101 535.794 113.766C536.324 113.432 536.944 113.264 537.653 113.264C538.084 113.264 538.501 113.335 538.906 113.478C539.31 113.621 539.673 113.844 539.994 114.149C540.316 114.454 540.57 114.85 540.755 115.337C540.941 115.821 541.034 116.41 541.034 117.102V117.629H534.963V116.516H539.577C539.577 116.125 539.497 115.778 539.338 115.477C539.179 115.172 538.955 114.931 538.667 114.756C538.382 114.58 538.047 114.492 537.663 114.492C537.245 114.492 536.881 114.595 536.569 114.8C536.261 115.003 536.022 115.268 535.853 115.596C535.687 115.921 535.605 116.274 535.605 116.655V117.525C535.605 118.035 535.694 118.469 535.873 118.827C536.055 119.185 536.309 119.459 536.634 119.648C536.959 119.833 537.338 119.926 537.772 119.926C538.054 119.926 538.311 119.886 538.543 119.807C538.775 119.724 538.975 119.601 539.144 119.439C539.313 119.277 539.443 119.076 539.532 118.837L540.939 119.091C540.826 119.505 540.624 119.868 540.333 120.18C540.044 120.488 539.681 120.728 539.244 120.901C538.81 121.07 538.314 121.154 537.757 121.154ZM544.169 110.818V121H542.683V110.818H544.169Z" fill="white" fill-opacity="0.7"/>
<path d="M578.949 121V110.818H580.485V119.678H585.099V121H578.949ZM588.954 121.169C588.47 121.169 588.033 121.08 587.642 120.901C587.25 120.718 586.941 120.455 586.712 120.11C586.486 119.765 586.374 119.343 586.374 118.842C586.374 118.411 586.457 118.057 586.622 117.778C586.788 117.5 587.012 117.28 587.294 117.117C587.575 116.955 587.89 116.832 588.238 116.749C588.586 116.666 588.941 116.603 589.302 116.56C589.759 116.507 590.131 116.464 590.416 116.431C590.701 116.395 590.908 116.337 591.037 116.257C591.166 116.178 591.231 116.048 591.231 115.869V115.835C591.231 115.4 591.108 115.064 590.863 114.825C590.621 114.587 590.26 114.467 589.779 114.467C589.279 114.467 588.884 114.578 588.596 114.8C588.311 115.019 588.114 115.263 588.004 115.531L586.607 115.213C586.773 114.749 587.015 114.375 587.333 114.089C587.655 113.801 588.024 113.592 588.442 113.463C588.86 113.33 589.299 113.264 589.759 113.264C590.064 113.264 590.387 113.301 590.729 113.374C591.074 113.443 591.395 113.572 591.693 113.761C591.995 113.95 592.242 114.22 592.434 114.572C592.626 114.92 592.722 115.372 592.722 115.929V121H591.271V119.956H591.211C591.115 120.148 590.971 120.337 590.779 120.523C590.586 120.708 590.339 120.862 590.038 120.985C589.736 121.108 589.375 121.169 588.954 121.169ZM589.277 119.976C589.688 119.976 590.039 119.895 590.331 119.732C590.626 119.57 590.85 119.358 591.002 119.096C591.158 118.831 591.236 118.547 591.236 118.246V117.261C591.183 117.314 591.08 117.364 590.928 117.411C590.779 117.454 590.608 117.492 590.416 117.525C590.223 117.555 590.036 117.583 589.854 117.609C589.672 117.633 589.519 117.652 589.396 117.669C589.108 117.705 588.845 117.767 588.606 117.853C588.371 117.939 588.182 118.063 588.039 118.226C587.9 118.385 587.83 118.597 587.83 118.862C587.83 119.23 587.966 119.509 588.238 119.697C588.51 119.883 588.856 119.976 589.277 119.976ZM594.822 121V110.818H596.308V114.602H596.398C596.484 114.442 596.608 114.259 596.771 114.05C596.933 113.841 597.158 113.659 597.447 113.503C597.735 113.344 598.116 113.264 598.59 113.264C599.207 113.264 599.757 113.42 600.241 113.732C600.725 114.043 601.104 114.492 601.379 115.079C601.658 115.665 601.797 116.371 601.797 117.197C601.797 118.022 601.659 118.73 601.384 119.32C601.109 119.906 600.731 120.359 600.251 120.677C599.77 120.992 599.222 121.149 598.605 121.149C598.141 121.149 597.762 121.071 597.467 120.915C597.175 120.76 596.946 120.577 596.781 120.369C596.615 120.16 596.487 119.974 596.398 119.812H596.273V121H594.822ZM596.278 117.182C596.278 117.719 596.356 118.189 596.512 118.594C596.668 118.998 596.893 119.315 597.188 119.543C597.483 119.769 597.844 119.881 598.272 119.881C598.716 119.881 599.087 119.764 599.386 119.528C599.684 119.29 599.909 118.967 600.062 118.559C600.218 118.151 600.295 117.692 600.295 117.182C600.295 116.678 600.219 116.226 600.067 115.825C599.918 115.424 599.692 115.107 599.391 114.875C599.092 114.643 598.719 114.527 598.272 114.527C597.841 114.527 597.477 114.638 597.178 114.86C596.883 115.082 596.66 115.392 596.507 115.79C596.355 116.187 596.278 116.652 596.278 117.182ZM606.757 121.154C606.005 121.154 605.357 120.993 604.813 120.672C604.273 120.347 603.856 119.891 603.561 119.305C603.269 118.715 603.123 118.024 603.123 117.232C603.123 116.449 603.269 115.76 603.561 115.163C603.856 114.567 604.267 114.101 604.794 113.766C605.324 113.432 605.944 113.264 606.653 113.264C607.084 113.264 607.501 113.335 607.906 113.478C608.31 113.621 608.673 113.844 608.994 114.149C609.316 114.454 609.57 114.85 609.755 115.337C609.941 115.821 610.034 116.41 610.034 117.102V117.629H603.963V116.516H608.577C608.577 116.125 608.497 115.778 608.338 115.477C608.179 115.172 607.955 114.931 607.667 114.756C607.382 114.58 607.047 114.492 606.663 114.492C606.245 114.492 605.881 114.595 605.569 114.8C605.261 115.003 605.022 115.268 604.853 115.596C604.687 115.921 604.605 116.274 604.605 116.655V117.525C604.605 118.035 604.694 118.469 604.873 118.827C605.055 119.185 605.309 119.459 605.634 119.648C605.959 119.833 606.338 119.926 606.772 119.926C607.054 119.926 607.311 119.886 607.543 119.807C607.775 119.724 607.975 119.601 608.144 119.439C608.313 119.277 608.443 119.076 608.532 118.837L609.939 119.091C609.826 119.505 609.624 119.868 609.333 120.18C609.044 120.488 608.681 120.728 608.244 120.901C607.81 121.07 607.314 121.154 606.757 121.154ZM613.169 110.818V121H611.683V110.818H613.169Z" fill="white" fill-opacity="0.7"/>
<path d="M647.949 121V110.818H649.485V119.678H654.099V121H647.949ZM657.954 121.169C657.47 121.169 657.033 121.08 656.642 120.901C656.25 120.718 655.941 120.455 655.712 120.11C655.486 119.765 655.374 119.343 655.374 118.842C655.374 118.411 655.457 118.057 655.622 117.778C655.788 117.5 656.012 117.28 656.294 117.117C656.575 116.955 656.89 116.832 657.238 116.749C657.586 116.666 657.941 116.603 658.302 116.56C658.759 116.507 659.131 116.464 659.416 116.431C659.701 116.395 659.908 116.337 660.037 116.257C660.166 116.178 660.231 116.048 660.231 115.869V115.835C660.231 115.4 660.108 115.064 659.863 114.825C659.621 114.587 659.26 114.467 658.779 114.467C658.279 114.467 657.884 114.578 657.596 114.8C657.311 115.019 657.114 115.263 657.004 115.531L655.607 115.213C655.773 114.749 656.015 114.375 656.333 114.089C656.655 113.801 657.024 113.592 657.442 113.463C657.86 113.33 658.299 113.264 658.759 113.264C659.064 113.264 659.387 113.301 659.729 113.374C660.074 113.443 660.395 113.572 660.693 113.761C660.995 113.95 661.242 114.22 661.434 114.572C661.626 114.92 661.722 115.372 661.722 115.929V121H660.271V119.956H660.211C660.115 120.148 659.971 120.337 659.779 120.523C659.586 120.708 659.339 120.862 659.038 120.985C658.736 121.108 658.375 121.169 657.954 121.169ZM658.277 119.976C658.688 119.976 659.039 119.895 659.331 119.732C659.626 119.57 659.85 119.358 660.002 119.096C660.158 118.831 660.236 118.547 660.236 118.246V117.261C660.183 117.314 660.08 117.364 659.928 117.411C659.779 117.454 659.608 117.492 659.416 117.525C659.223 117.555 659.036 117.583 658.854 117.609C658.672 117.633 658.519 117.652 658.396 117.669C658.108 117.705 657.845 117.767 657.606 117.853C657.371 117.939 657.182 118.063 657.039 118.226C656.9 118.385 656.83 118.597 656.83 118.862C656.83 119.23 656.966 119.509 657.238 119.697C657.51 119.883 657.856 119.976 658.277 119.976ZM663.822 121V110.818H665.308V114.602H665.398C665.484 114.442 665.608 114.259 665.771 114.05C665.933 113.841 666.158 113.659 666.447 113.503C666.735 113.344 667.116 113.264 667.59 113.264C668.207 113.264 668.757 113.42 669.241 113.732C669.725 114.043 670.104 114.492 670.379 115.079C670.658 115.665 670.797 116.371 670.797 117.197C670.797 118.022 670.659 118.73 670.384 119.32C670.109 119.906 669.731 120.359 669.251 120.677C668.77 120.992 668.222 121.149 667.605 121.149C667.141 121.149 666.762 121.071 666.467 120.915C666.175 120.76 665.946 120.577 665.781 120.369C665.615 120.16 665.487 119.974 665.398 119.812H665.273V121H663.822ZM665.278 117.182C665.278 117.719 665.356 118.189 665.512 118.594C665.668 118.998 665.893 119.315 666.188 119.543C666.483 119.769 666.844 119.881 667.272 119.881C667.716 119.881 668.087 119.764 668.386 119.528C668.684 119.29 668.909 118.967 669.062 118.559C669.218 118.151 669.295 117.692 669.295 117.182C669.295 116.678 669.219 116.226 669.067 115.825C668.918 115.424 668.692 115.107 668.391 114.875C668.092 114.643 667.719 114.527 667.272 114.527C666.841 114.527 666.477 114.638 666.178 114.86C665.883 115.082 665.66 115.392 665.507 115.79C665.355 116.187 665.278 116.652 665.278 117.182ZM675.757 121.154C675.005 121.154 674.357 120.993 673.813 120.672C673.273 120.347 672.856 119.891 672.561 119.305C672.269 118.715 672.123 118.024 672.123 117.232C672.123 116.449 672.269 115.76 672.561 115.163C672.856 114.567 673.267 114.101 673.794 113.766C674.324 113.432 674.944 113.264 675.653 113.264C676.084 113.264 676.501 113.335 676.906 113.478C677.31 113.621 677.673 113.844 677.994 114.149C678.316 114.454 678.57 114.85 678.755 115.337C678.941 115.821 679.034 116.41 679.034 117.102V117.629H672.963V116.516H677.577C677.577 116.125 677.497 115.778 677.338 115.477C677.179 115.172 676.955 114.931 676.667 114.756C676.382 114.58 676.047 114.492 675.663 114.492C675.245 114.492 674.881 114.595 674.569 114.8C674.261 115.003 674.022 115.268 673.853 115.596C673.687 115.921 673.605 116.274 673.605 116.655V117.525C673.605 118.035 673.694 118.469 673.873 118.827C674.055 119.185 674.309 119.459 674.634 119.648C674.959 119.833 675.338 119.926 675.772 119.926C676.054 119.926 676.311 119.886 676.543 119.807C676.775 119.724 676.975 119.601 677.144 119.439C677.313 119.277 677.443 119.076 677.532 118.837L678.939 119.091C678.826 119.505 678.624 119.868 678.333 120.18C678.044 120.488 677.681 120.728 677.244 120.901C676.81 121.07 676.314 121.154 675.757 121.154ZM682.169 110.818V121H680.683V110.818H682.169Z" fill="white" fill-opacity="0.7"/>
<path d="M716.949 121V110.818H718.485V119.678H723.099V121H716.949ZM726.954 121.169C726.47 121.169 726.033 121.08 725.642 120.901C725.25 120.718 724.941 120.455 724.712 120.11C724.486 119.765 724.374 119.343 724.374 118.842C724.374 118.411 724.457 118.057 724.622 117.778C724.788 117.5 725.012 117.28 725.294 117.117C725.575 116.955 725.89 116.832 726.238 116.749C726.586 116.666 726.941 116.603 727.302 116.56C727.759 116.507 728.131 116.464 728.416 116.431C728.701 116.395 728.908 116.337 729.037 116.257C729.166 116.178 729.231 116.048 729.231 115.869V115.835C729.231 115.4 729.108 115.064 728.863 114.825C728.621 114.587 728.26 114.467 727.779 114.467C727.279 114.467 726.884 114.578 726.596 114.8C726.311 115.019 726.114 115.263 726.004 115.531L724.607 115.213C724.773 114.749 725.015 114.375 725.333 114.089C725.655 113.801 726.024 113.592 726.442 113.463C726.86 113.33 727.299 113.264 727.759 113.264C728.064 113.264 728.387 113.301 728.729 113.374C729.074 113.443 729.395 113.572 729.693 113.761C729.995 113.95 730.242 114.22 730.434 114.572C730.626 114.92 730.722 115.372 730.722 115.929V121H729.271V119.956H729.211C729.115 120.148 728.971 120.337 728.779 120.523C728.586 120.708 728.339 120.862 728.038 120.985C727.736 121.108 727.375 121.169 726.954 121.169ZM727.277 119.976C727.688 119.976 728.039 119.895 728.331 119.732C728.626 119.57 728.85 119.358 729.002 119.096C729.158 118.831 729.236 118.547 729.236 118.246V117.261C729.183 117.314 729.08 117.364 728.928 117.411C728.779 117.454 728.608 117.492 728.416 117.525C728.223 117.555 728.036 117.583 727.854 117.609C727.672 117.633 727.519 117.652 727.396 117.669C727.108 117.705 726.845 117.767 726.606 117.853C726.371 117.939 726.182 118.063 726.039 118.226C725.9 118.385 725.83 118.597 725.83 118.862C725.83 119.23 725.966 119.509 726.238 119.697C726.51 119.883 726.856 119.976 727.277 119.976ZM732.822 121V110.818H734.308V114.602H734.398C734.484 114.442 734.608 114.259 734.771 114.05C734.933 113.841 735.158 113.659 735.447 113.503C735.735 113.344 736.116 113.264 736.59 113.264C737.207 113.264 737.757 113.42 738.241 113.732C738.725 114.043 739.104 114.492 739.379 115.079C739.658 115.665 739.797 116.371 739.797 117.197C739.797 118.022 739.659 118.73 739.384 119.32C739.109 119.906 738.731 120.359 738.251 120.677C737.77 120.992 737.222 121.149 736.605 121.149C736.141 121.149 735.762 121.071 735.467 120.915C735.175 120.76 734.946 120.577 734.781 120.369C734.615 120.16 734.487 119.974 734.398 119.812H734.273V121H732.822ZM734.278 117.182C734.278 117.719 734.356 118.189 734.512 118.594C734.668 118.998 734.893 119.315 735.188 119.543C735.483 119.769 735.844 119.881 736.272 119.881C736.716 119.881 737.087 119.764 737.386 119.528C737.684 119.29 737.909 118.967 738.062 118.559C738.218 118.151 738.295 117.692 738.295 117.182C738.295 116.678 738.219 116.226 738.067 115.825C737.918 115.424 737.692 115.107 737.391 114.875C737.092 114.643 736.719 114.527 736.272 114.527C735.841 114.527 735.477 114.638 735.178 114.86C734.883 115.082 734.66 115.392 734.507 115.79C734.355 116.187 734.278 116.652 734.278 117.182ZM744.757 121.154C744.005 121.154 743.357 120.993 742.813 120.672C742.273 120.347 741.856 119.891 741.561 119.305C741.269 118.715 741.123 118.024 741.123 117.232C741.123 116.449 741.269 115.76 741.561 115.163C741.856 114.567 742.267 114.101 742.794 113.766C743.324 113.432 743.944 113.264 744.653 113.264C745.084 113.264 745.501 113.335 745.906 113.478C746.31 113.621 746.673 113.844 746.994 114.149C747.316 114.454 747.57 114.85 747.755 115.337C747.941 115.821 748.034 116.41 748.034 117.102V117.629H741.963V116.516H746.577C746.577 116.125 746.497 115.778 746.338 115.477C746.179 115.172 745.955 114.931 745.667 114.756C745.382 114.58 745.047 114.492 744.663 114.492C744.245 114.492 743.881 114.595 743.569 114.8C743.261 115.003 743.022 115.268 742.853 115.596C742.687 115.921 742.605 116.274 742.605 116.655V117.525C742.605 118.035 742.694 118.469 742.873 118.827C743.055 119.185 743.309 119.459 743.634 119.648C743.959 119.833 744.338 119.926 744.772 119.926C745.054 119.926 745.311 119.886 745.543 119.807C745.775 119.724 745.975 119.601 746.144 119.439C746.313 119.277 746.443 119.076 746.532 118.837L747.939 119.091C747.826 119.505 747.624 119.868 747.333 120.18C747.044 120.488 746.681 120.728 746.244 120.901C745.81 121.07 745.314 121.154 744.757 121.154ZM751.169 110.818V121H749.683V110.818H751.169Z" fill="white" fill-opacity="0.7"/>
<path d="M785.949 121V110.818H787.485V119.678H792.099V121H785.949ZM795.954 121.169C795.47 121.169 795.033 121.08 794.642 120.901C794.25 120.718 793.941 120.455 793.712 120.11C793.486 119.765 793.374 119.343 793.374 118.842C793.374 118.411 793.457 118.057 793.622 117.778C793.788 117.5 794.012 117.28 794.294 117.117C794.575 116.955 794.89 116.832 795.238 116.749C795.586 116.666 795.941 116.603 796.302 116.56C796.759 116.507 797.131 116.464 797.416 116.431C797.701 116.395 797.908 116.337 798.037 116.257C798.166 116.178 798.231 116.048 798.231 115.869V115.835C798.231 115.4 798.108 115.064 797.863 114.825C797.621 114.587 797.26 114.467 796.779 114.467C796.279 114.467 795.884 114.578 795.596 114.8C795.311 115.019 795.114 115.263 795.004 115.531L793.607 115.213C793.773 114.749 794.015 114.375 794.333 114.089C794.655 113.801 795.024 113.592 795.442 113.463C795.86 113.33 796.299 113.264 796.759 113.264C797.064 113.264 797.387 113.301 797.729 113.374C798.074 113.443 798.395 113.572 798.693 113.761C798.995 113.95 799.242 114.22 799.434 114.572C799.626 114.92 799.722 115.372 799.722 115.929V121H798.271V119.956H798.211C798.115 120.148 797.971 120.337 797.779 120.523C797.586 120.708 797.339 120.862 797.038 120.985C796.736 121.108 796.375 121.169 795.954 121.169ZM796.277 119.976C796.688 119.976 797.039 119.895 797.331 119.732C797.626 119.57 797.85 119.358 798.002 119.096C798.158 118.831 798.236 118.547 798.236 118.246V117.261C798.183 117.314 798.08 117.364 797.928 117.411C797.779 117.454 797.608 117.492 797.416 117.525C797.223 117.555 797.036 117.583 796.854 117.609C796.672 117.633 796.519 117.652 796.396 117.669C796.108 117.705 795.845 117.767 795.606 117.853C795.371 117.939 795.182 118.063 795.039 118.226C794.9 118.385 794.83 118.597 794.83 118.862C794.83 119.23 794.966 119.509 795.238 119.697C795.51 119.883 795.856 119.976 796.277 119.976ZM801.822 121V110.818H803.308V114.602H803.398C803.484 114.442 803.608 114.259 803.771 114.05C803.933 113.841 804.158 113.659 804.447 113.503C804.735 113.344 805.116 113.264 805.59 113.264C806.207 113.264 806.757 113.42 807.241 113.732C807.725 114.043 808.104 114.492 808.379 115.079C808.658 115.665 808.797 116.371 808.797 117.197C808.797 118.022 808.659 118.73 808.384 119.32C808.109 119.906 807.731 120.359 807.251 120.677C806.77 120.992 806.222 121.149 805.605 121.149C805.141 121.149 804.762 121.071 804.467 120.915C804.175 120.76 803.946 120.577 803.781 120.369C803.615 120.16 803.487 119.974 803.398 119.812H803.273V121H801.822ZM803.278 117.182C803.278 117.719 803.356 118.189 803.512 118.594C803.668 118.998 803.893 119.315 804.188 119.543C804.483 119.769 804.844 119.881 805.272 119.881C805.716 119.881 806.087 119.764 806.386 119.528C806.684 119.29 806.909 118.967 807.062 118.559C807.218 118.151 807.295 117.692 807.295 117.182C807.295 116.678 807.219 116.226 807.067 115.825C806.918 115.424 806.692 115.107 806.391 114.875C806.092 114.643 805.719 114.527 805.272 114.527C804.841 114.527 804.477 114.638 804.178 114.86C803.883 115.082 803.66 115.392 803.507 115.79C803.355 116.187 803.278 116.652 803.278 117.182ZM813.757 121.154C813.005 121.154 812.357 120.993 811.813 120.672C811.273 120.347 810.856 119.891 810.561 119.305C810.269 118.715 810.123 118.024 810.123 117.232C810.123 116.449 810.269 115.76 810.561 115.163C810.856 114.567 811.267 114.101 811.794 113.766C812.324 113.432 812.944 113.264 813.653 113.264C814.084 113.264 814.501 113.335 814.906 113.478C815.31 113.621 815.673 113.844 815.994 114.149C816.316 114.454 816.57 114.85 816.755 115.337C816.941 115.821 817.034 116.41 817.034 117.102V117.629H810.963V116.516H815.577C815.577 116.125 815.497 115.778 815.338 115.477C815.179 115.172 814.955 114.931 814.667 114.756C814.382 114.58 814.047 114.492 813.663 114.492C813.245 114.492 812.881 114.595 812.569 114.8C812.261 115.003 812.022 115.268 811.853 115.596C811.687 115.921 811.605 116.274 811.605 116.655V117.525C811.605 118.035 811.694 118.469 811.873 118.827C812.055 119.185 812.309 119.459 812.634 119.648C812.959 119.833 813.338 119.926 813.772 119.926C814.054 119.926 814.311 119.886 814.543 119.807C814.775 119.724 814.975 119.601 815.144 119.439C815.313 119.277 815.443 119.076 815.532 118.837L816.939 119.091C816.826 119.505 816.624 119.868 816.333 120.18C816.044 120.488 815.681 120.728 815.244 120.901C814.81 121.07 814.314 121.154 813.757 121.154ZM820.169 110.818V121H818.683V110.818H820.169Z" fill="white" fill-opacity="0.7"/>
<path d="M854.949 121V110.818H856.485V119.678H861.099V121H854.949ZM864.954 121.169C864.47 121.169 864.033 121.08 863.642 120.901C863.25 120.718 862.941 120.455 862.712 120.11C862.486 119.765 862.374 119.343 862.374 118.842C862.374 118.411 862.457 118.057 862.622 117.778C862.788 117.5 863.012 117.28 863.294 117.117C863.575 116.955 863.89 116.832 864.238 116.749C864.586 116.666 864.941 116.603 865.302 116.56C865.759 116.507 866.131 116.464 866.416 116.431C866.701 116.395 866.908 116.337 867.037 116.257C867.166 116.178 867.231 116.048 867.231 115.869V115.835C867.231 115.4 867.108 115.064 866.863 114.825C866.621 114.587 866.26 114.467 865.779 114.467C865.279 114.467 864.884 114.578 864.596 114.8C864.311 115.019 864.114 115.263 864.004 115.531L862.607 115.213C862.773 114.749 863.015 114.375 863.333 114.089C863.655 113.801 864.024 113.592 864.442 113.463C864.86 113.33 865.299 113.264 865.759 113.264C866.064 113.264 866.387 113.301 866.729 113.374C867.074 113.443 867.395 113.572 867.693 113.761C867.995 113.95 868.242 114.22 868.434 114.572C868.626 114.92 868.722 115.372 868.722 115.929V121H867.271V119.956H867.211C867.115 120.148 866.971 120.337 866.779 120.523C866.586 120.708 866.339 120.862 866.038 120.985C865.736 121.108 865.375 121.169 864.954 121.169ZM865.277 119.976C865.688 119.976 866.039 119.895 866.331 119.732C866.626 119.57 866.85 119.358 867.002 119.096C867.158 118.831 867.236 118.547 867.236 118.246V117.261C867.183 117.314 867.08 117.364 866.928 117.411C866.779 117.454 866.608 117.492 866.416 117.525C866.223 117.555 866.036 117.583 865.854 117.609C865.672 117.633 865.519 117.652 865.396 117.669C865.108 117.705 864.845 117.767 864.606 117.853C864.371 117.939 864.182 118.063 864.039 118.226C863.9 118.385 863.83 118.597 863.83 118.862C863.83 119.23 863.966 119.509 864.238 119.697C864.51 119.883 864.856 119.976 865.277 119.976ZM870.822 121V110.818H872.308V114.602H872.398C872.484 114.442 872.608 114.259 872.771 114.05C872.933 113.841 873.158 113.659 873.447 113.503C873.735 113.344 874.116 113.264 874.59 113.264C875.207 113.264 875.757 113.42 876.241 113.732C876.725 114.043 877.104 114.492 877.379 115.079C877.658 115.665 877.797 116.371 877.797 117.197C877.797 118.022 877.659 118.73 877.384 119.32C877.109 119.906 876.731 120.359 876.251 120.677C875.77 120.992 875.222 121.149 874.605 121.149C874.141 121.149 873.762 121.071 873.467 120.915C873.175 120.76 872.946 120.577 872.781 120.369C872.615 120.16 872.487 119.974 872.398 119.812H872.273V121H870.822ZM872.278 117.182C872.278 117.719 872.356 118.189 872.512 118.594C872.668 118.998 872.893 119.315 873.188 119.543C873.483 119.769 873.844 119.881 874.272 119.881C874.716 119.881 875.087 119.764 875.386 119.528C875.684 119.29 875.909 118.967 876.062 118.559C876.218 118.151 876.295 117.692 876.295 117.182C876.295 116.678 876.219 116.226 876.067 115.825C875.918 115.424 875.692 115.107 875.391 114.875C875.092 114.643 874.719 114.527 874.272 114.527C873.841 114.527 873.477 114.638 873.178 114.86C872.883 115.082 872.66 115.392 872.507 115.79C872.355 116.187 872.278 116.652 872.278 117.182ZM882.757 121.154C882.005 121.154 881.357 120.993 880.813 120.672C880.273 120.347 879.856 119.891 879.561 119.305C879.269 118.715 879.123 118.024 879.123 117.232C879.123 116.449 879.269 115.76 879.561 115.163C879.856 114.567 880.267 114.101 880.794 113.766C881.324 113.432 881.944 113.264 882.653 113.264C883.084 113.264 883.501 113.335 883.906 113.478C884.31 113.621 884.673 113.844 884.994 114.149C885.316 114.454 885.57 114.85 885.755 115.337C885.941 115.821 886.034 116.41 886.034 117.102V117.629H879.963V116.516H884.577C884.577 116.125 884.497 115.778 884.338 115.477C884.179 115.172 883.955 114.931 883.667 114.756C883.382 114.58 883.047 114.492 882.663 114.492C882.245 114.492 881.881 114.595 881.569 114.8C881.261 115.003 881.022 115.268 880.853 115.596C880.687 115.921 880.605 116.274 880.605 116.655V117.525C880.605 118.035 880.694 118.469 880.873 118.827C881.055 119.185 881.309 119.459 881.634 119.648C881.959 119.833 882.338 119.926 882.772 119.926C883.054 119.926 883.311 119.886 883.543 119.807C883.775 119.724 883.975 119.601 884.144 119.439C884.313 119.277 884.443 119.076 884.532 118.837L885.939 119.091C885.826 119.505 885.624 119.868 885.333 120.18C885.044 120.488 884.681 120.728 884.244 120.901C883.81 121.07 883.314 121.154 882.757 121.154ZM889.169 110.818V121H887.683V110.818H889.169Z" fill="white" fill-opacity="0.7"/>
</g>
<path d="M891.854 115.646L885.854 109.646C885.807 109.599 885.752 109.561 885.691 109.535C885.63 109.509 885.565 109.495 885.498 109.495C885.432 109.494 885.366 109.507 885.305 109.532C885.244 109.557 885.188 109.594 885.141 109.641C885.094 109.688 885.057 109.744 885.032 109.805C885.007 109.866 884.994 109.932 884.995 109.998C884.995 110.065 885.009 110.13 885.035 110.191C885.061 110.252 885.099 110.307 885.147 110.354L890.793 116L885.147 121.646C885.099 121.693 885.061 121.748 885.035 121.809C885.009 121.87 884.995 121.935 884.995 122.002C884.994 122.068 885.007 122.134 885.032 122.195C885.057 122.256 885.094 122.312 885.141 122.359C885.188 122.406 885.244 122.443 885.305 122.468C885.366 122.493 885.432 122.506 885.498 122.505C885.565 122.505 885.63 122.491 885.691 122.465C885.752 122.439 885.807 122.401 885.854 122.354L891.854 116.354C891.947 116.26 892 116.133 892 116C892 115.867 891.947 115.74 891.854 115.646Z" fill="white" fill-opacity="0.95"/>
</g>
<g clip-path="url(#clip2_2031_6783)">
<path d="M259.207 158L264.854 152.354C264.945 152.259 264.996 152.133 264.995 152.002C264.994 151.87 264.941 151.745 264.849 151.652C264.756 151.559 264.63 151.506 264.499 151.505C264.368 151.504 264.241 151.555 264.147 151.646L258.147 157.646C258.053 157.74 258 157.867 258 158C258 158.133 258.053 158.26 258.147 158.354L264.147 164.354C264.193 164.401 264.248 164.439 264.309 164.465C264.37 164.491 264.436 164.505 264.502 164.505C264.568 164.506 264.634 164.493 264.695 164.468C264.757 164.443 264.812 164.406 264.859 164.359C264.906 164.312 264.943 164.256 264.968 164.195C264.994 164.134 265.006 164.068 265.006 164.002C265.005 163.935 264.992 163.87 264.966 163.809C264.939 163.748 264.901 163.693 264.854 163.646L259.207 158Z" fill="white" fill-opacity="0.95"/>
<g clip-path="url(#clip3_2031_6783)">
<mask id="path-29-inside-1_2031_6783" fill="white">
<path d="M289.5 146C289.5 143.791 291.291 142 293.5 142H346.5C348.709 142 350.5 143.791 350.5 146V174H289.5V146Z"/>
</mask>
<path d="M289.5 142H350.5H289.5ZM350.5 176H289.5V172H350.5V176ZM289.5 174V142V174ZM350.5 142V174V142Z" fill="white" fill-opacity="0.9" mask="url(#path-29-inside-1_2031_6783)"/>
<path d="M302.949 163V152.818H304.485V161.678H309.099V163H302.949ZM312.954 163.169C312.47 163.169 312.033 163.08 311.642 162.901C311.25 162.718 310.941 162.455 310.712 162.11C310.486 161.765 310.374 161.343 310.374 160.842C310.374 160.411 310.457 160.057 310.622 159.778C310.788 159.5 311.012 159.28 311.294 159.117C311.575 158.955 311.89 158.832 312.238 158.749C312.586 158.666 312.941 158.603 313.302 158.56C313.759 158.507 314.131 158.464 314.416 158.431C314.701 158.395 314.908 158.337 315.037 158.257C315.166 158.178 315.231 158.048 315.231 157.869V157.835C315.231 157.4 315.108 157.064 314.863 156.825C314.621 156.587 314.26 156.467 313.779 156.467C313.279 156.467 312.884 156.578 312.596 156.8C312.311 157.019 312.114 157.263 312.004 157.531L310.607 157.213C310.773 156.749 311.015 156.375 311.333 156.089C311.655 155.801 312.024 155.592 312.442 155.463C312.86 155.33 313.299 155.264 313.759 155.264C314.064 155.264 314.387 155.301 314.729 155.374C315.074 155.443 315.395 155.572 315.693 155.761C315.995 155.95 316.242 156.22 316.434 156.572C316.626 156.92 316.722 157.372 316.722 157.929V163H315.271V161.956H315.211C315.115 162.148 314.971 162.337 314.779 162.523C314.586 162.708 314.339 162.862 314.038 162.985C313.736 163.108 313.375 163.169 312.954 163.169ZM313.277 161.976C313.688 161.976 314.039 161.895 314.331 161.732C314.626 161.57 314.85 161.358 315.002 161.096C315.158 160.831 315.236 160.547 315.236 160.246V159.261C315.183 159.314 315.08 159.364 314.928 159.411C314.779 159.454 314.608 159.492 314.416 159.525C314.223 159.555 314.036 159.583 313.854 159.609C313.672 159.633 313.519 159.652 313.396 159.669C313.108 159.705 312.845 159.767 312.606 159.853C312.371 159.939 312.182 160.063 312.039 160.226C311.9 160.385 311.83 160.597 311.83 160.862C311.83 161.23 311.966 161.509 312.238 161.697C312.51 161.883 312.856 161.976 313.277 161.976ZM318.822 163V152.818H320.308V156.602H320.398C320.484 156.442 320.608 156.259 320.771 156.05C320.933 155.841 321.158 155.659 321.447 155.503C321.735 155.344 322.116 155.264 322.59 155.264C323.207 155.264 323.757 155.42 324.241 155.732C324.725 156.043 325.104 156.492 325.379 157.079C325.658 157.665 325.797 158.371 325.797 159.197C325.797 160.022 325.659 160.73 325.384 161.32C325.109 161.906 324.731 162.359 324.251 162.677C323.77 162.992 323.222 163.149 322.605 163.149C322.141 163.149 321.762 163.071 321.467 162.915C321.175 162.76 320.946 162.577 320.781 162.369C320.615 162.16 320.487 161.974 320.398 161.812H320.273V163H318.822ZM320.278 159.182C320.278 159.719 320.356 160.189 320.512 160.594C320.668 160.998 320.893 161.315 321.188 161.543C321.483 161.769 321.844 161.881 322.272 161.881C322.716 161.881 323.087 161.764 323.386 161.528C323.684 161.29 323.909 160.967 324.062 160.559C324.218 160.151 324.295 159.692 324.295 159.182C324.295 158.678 324.219 158.226 324.067 157.825C323.918 157.424 323.692 157.107 323.391 156.875C323.092 156.643 322.719 156.527 322.272 156.527C321.841 156.527 321.477 156.638 321.178 156.86C320.883 157.082 320.66 157.392 320.507 157.79C320.355 158.187 320.278 158.652 320.278 159.182ZM330.757 163.154C330.005 163.154 329.357 162.993 328.813 162.672C328.273 162.347 327.856 161.891 327.561 161.305C327.269 160.715 327.123 160.024 327.123 159.232C327.123 158.449 327.269 157.76 327.561 157.163C327.856 156.567 328.267 156.101 328.794 155.766C329.324 155.432 329.944 155.264 330.653 155.264C331.084 155.264 331.501 155.335 331.906 155.478C332.31 155.621 332.673 155.844 332.994 156.149C333.316 156.454 333.57 156.85 333.755 157.337C333.941 157.821 334.034 158.41 334.034 159.102V159.629H327.963V158.516H332.577C332.577 158.125 332.497 157.778 332.338 157.477C332.179 157.172 331.955 156.931 331.667 156.756C331.382 156.58 331.047 156.492 330.663 156.492C330.245 156.492 329.881 156.595 329.569 156.8C329.261 157.003 329.022 157.268 328.853 157.596C328.687 157.921 328.605 158.274 328.605 158.655V159.525C328.605 160.035 328.694 160.469 328.873 160.827C329.055 161.185 329.309 161.459 329.634 161.648C329.959 161.833 330.338 161.926 330.772 161.926C331.054 161.926 331.311 161.886 331.543 161.807C331.775 161.724 331.975 161.601 332.144 161.439C332.313 161.277 332.443 161.076 332.532 160.837L333.939 161.091C333.826 161.505 333.624 161.868 333.333 162.18C333.044 162.488 332.681 162.728 332.244 162.901C331.81 163.07 331.314 163.154 330.757 163.154ZM337.169 152.818V163H335.683V152.818H337.169Z" fill="white" fill-opacity="0.95"/>
<path d="M371.949 163V152.818H373.485V161.678H378.099V163H371.949ZM381.954 163.169C381.47 163.169 381.033 163.08 380.642 162.901C380.25 162.718 379.941 162.455 379.712 162.11C379.486 161.765 379.374 161.343 379.374 160.842C379.374 160.411 379.457 160.057 379.622 159.778C379.788 159.5 380.012 159.28 380.294 159.117C380.575 158.955 380.89 158.832 381.238 158.749C381.586 158.666 381.941 158.603 382.302 158.56C382.759 158.507 383.131 158.464 383.416 158.431C383.701 158.395 383.908 158.337 384.037 158.257C384.166 158.178 384.231 158.048 384.231 157.869V157.835C384.231 157.4 384.108 157.064 383.863 156.825C383.621 156.587 383.26 156.467 382.779 156.467C382.279 156.467 381.884 156.578 381.596 156.8C381.311 157.019 381.114 157.263 381.004 157.531L379.607 157.213C379.773 156.749 380.015 156.375 380.333 156.089C380.655 155.801 381.024 155.592 381.442 155.463C381.86 155.33 382.299 155.264 382.759 155.264C383.064 155.264 383.387 155.301 383.729 155.374C384.074 155.443 384.395 155.572 384.693 155.761C384.995 155.95 385.242 156.22 385.434 156.572C385.626 156.92 385.722 157.372 385.722 157.929V163H384.271V161.956H384.211C384.115 162.148 383.971 162.337 383.779 162.523C383.586 162.708 383.339 162.862 383.038 162.985C382.736 163.108 382.375 163.169 381.954 163.169ZM382.277 161.976C382.688 161.976 383.039 161.895 383.331 161.732C383.626 161.57 383.85 161.358 384.002 161.096C384.158 160.831 384.236 160.547 384.236 160.246V159.261C384.183 159.314 384.08 159.364 383.928 159.411C383.779 159.454 383.608 159.492 383.416 159.525C383.223 159.555 383.036 159.583 382.854 159.609C382.672 159.633 382.519 159.652 382.396 159.669C382.108 159.705 381.845 159.767 381.606 159.853C381.371 159.939 381.182 160.063 381.039 160.226C380.9 160.385 380.83 160.597 380.83 160.862C380.83 161.23 380.966 161.509 381.238 161.697C381.51 161.883 381.856 161.976 382.277 161.976ZM387.822 163V152.818H389.308V156.602H389.398C389.484 156.442 389.608 156.259 389.771 156.05C389.933 155.841 390.158 155.659 390.447 155.503C390.735 155.344 391.116 155.264 391.59 155.264C392.207 155.264 392.757 155.42 393.241 155.732C393.725 156.043 394.104 156.492 394.379 157.079C394.658 157.665 394.797 158.371 394.797 159.197C394.797 160.022 394.659 160.73 394.384 161.32C394.109 161.906 393.731 162.359 393.251 162.677C392.77 162.992 392.222 163.149 391.605 163.149C391.141 163.149 390.762 163.071 390.467 162.915C390.175 162.76 389.946 162.577 389.781 162.369C389.615 162.16 389.487 161.974 389.398 161.812H389.273V163H387.822ZM389.278 159.182C389.278 159.719 389.356 160.189 389.512 160.594C389.668 160.998 389.893 161.315 390.188 161.543C390.483 161.769 390.844 161.881 391.272 161.881C391.716 161.881 392.087 161.764 392.386 161.528C392.684 161.29 392.909 160.967 393.062 160.559C393.218 160.151 393.295 159.692 393.295 159.182C393.295 158.678 393.219 158.226 393.067 157.825C392.918 157.424 392.692 157.107 392.391 156.875C392.092 156.643 391.719 156.527 391.272 156.527C390.841 156.527 390.477 156.638 390.178 156.86C389.883 157.082 389.66 157.392 389.507 157.79C389.355 158.187 389.278 158.652 389.278 159.182ZM399.757 163.154C399.005 163.154 398.357 162.993 397.813 162.672C397.273 162.347 396.856 161.891 396.561 161.305C396.269 160.715 396.123 160.024 396.123 159.232C396.123 158.449 396.269 157.76 396.561 157.163C396.856 156.567 397.267 156.101 397.794 155.766C398.324 155.432 398.944 155.264 399.653 155.264C400.084 155.264 400.501 155.335 400.906 155.478C401.31 155.621 401.673 155.844 401.994 156.149C402.316 156.454 402.57 156.85 402.755 157.337C402.941 157.821 403.034 158.41 403.034 159.102V159.629H396.963V158.516H401.577C401.577 158.125 401.497 157.778 401.338 157.477C401.179 157.172 400.955 156.931 400.667 156.756C400.382 156.58 400.047 156.492 399.663 156.492C399.245 156.492 398.881 156.595 398.569 156.8C398.261 157.003 398.022 157.268 397.853 157.596C397.687 157.921 397.605 158.274 397.605 158.655V159.525C397.605 160.035 397.694 160.469 397.873 160.827C398.055 161.185 398.309 161.459 398.634 161.648C398.959 161.833 399.338 161.926 399.772 161.926C400.054 161.926 400.311 161.886 400.543 161.807C400.775 161.724 400.975 161.601 401.144 161.439C401.313 161.277 401.443 161.076 401.532 160.837L402.939 161.091C402.826 161.505 402.624 161.868 402.333 162.18C402.044 162.488 401.681 162.728 401.244 162.901C400.81 163.07 400.314 163.154 399.757 163.154ZM406.169 152.818V163H404.683V152.818H406.169Z" fill="white" fill-opacity="0.7"/>
<path d="M440.949 163V152.818H442.485V161.678H447.099V163H440.949ZM450.954 163.169C450.47 163.169 450.033 163.08 449.642 162.901C449.25 162.718 448.941 162.455 448.712 162.11C448.486 161.765 448.374 161.343 448.374 160.842C448.374 160.411 448.457 160.057 448.622 159.778C448.788 159.5 449.012 159.28 449.294 159.117C449.575 158.955 449.89 158.832 450.238 158.749C450.586 158.666 450.941 158.603 451.302 158.56C451.759 158.507 452.131 158.464 452.416 158.431C452.701 158.395 452.908 158.337 453.037 158.257C453.166 158.178 453.231 158.048 453.231 157.869V157.835C453.231 157.4 453.108 157.064 452.863 156.825C452.621 156.587 452.26 156.467 451.779 156.467C451.279 156.467 450.884 156.578 450.596 156.8C450.311 157.019 450.114 157.263 450.004 157.531L448.607 157.213C448.773 156.749 449.015 156.375 449.333 156.089C449.655 155.801 450.024 155.592 450.442 155.463C450.86 155.33 451.299 155.264 451.759 155.264C452.064 155.264 452.387 155.301 452.729 155.374C453.074 155.443 453.395 155.572 453.693 155.761C453.995 155.95 454.242 156.22 454.434 156.572C454.626 156.92 454.722 157.372 454.722 157.929V163H453.271V161.956H453.211C453.115 162.148 452.971 162.337 452.779 162.523C452.586 162.708 452.339 162.862 452.038 162.985C451.736 163.108 451.375 163.169 450.954 163.169ZM451.277 161.976C451.688 161.976 452.039 161.895 452.331 161.732C452.626 161.57 452.85 161.358 453.002 161.096C453.158 160.831 453.236 160.547 453.236 160.246V159.261C453.183 159.314 453.08 159.364 452.928 159.411C452.779 159.454 452.608 159.492 452.416 159.525C452.223 159.555 452.036 159.583 451.854 159.609C451.672 159.633 451.519 159.652 451.396 159.669C451.108 159.705 450.845 159.767 450.606 159.853C450.371 159.939 450.182 160.063 450.039 160.226C449.9 160.385 449.83 160.597 449.83 160.862C449.83 161.23 449.966 161.509 450.238 161.697C450.51 161.883 450.856 161.976 451.277 161.976ZM456.822 163V152.818H458.308V156.602H458.398C458.484 156.442 458.608 156.259 458.771 156.05C458.933 155.841 459.158 155.659 459.447 155.503C459.735 155.344 460.116 155.264 460.59 155.264C461.207 155.264 461.757 155.42 462.241 155.732C462.725 156.043 463.104 156.492 463.379 157.079C463.658 157.665 463.797 158.371 463.797 159.197C463.797 160.022 463.659 160.73 463.384 161.32C463.109 161.906 462.731 162.359 462.251 162.677C461.77 162.992 461.222 163.149 460.605 163.149C460.141 163.149 459.762 163.071 459.467 162.915C459.175 162.76 458.946 162.577 458.781 162.369C458.615 162.16 458.487 161.974 458.398 161.812H458.273V163H456.822ZM458.278 159.182C458.278 159.719 458.356 160.189 458.512 160.594C458.668 160.998 458.893 161.315 459.188 161.543C459.483 161.769 459.844 161.881 460.272 161.881C460.716 161.881 461.087 161.764 461.386 161.528C461.684 161.29 461.909 160.967 462.062 160.559C462.218 160.151 462.295 159.692 462.295 159.182C462.295 158.678 462.219 158.226 462.067 157.825C461.918 157.424 461.692 157.107 461.391 156.875C461.092 156.643 460.719 156.527 460.272 156.527C459.841 156.527 459.477 156.638 459.178 156.86C458.883 157.082 458.66 157.392 458.507 157.79C458.355 158.187 458.278 158.652 458.278 159.182ZM468.757 163.154C468.005 163.154 467.357 162.993 466.813 162.672C466.273 162.347 465.856 161.891 465.561 161.305C465.269 160.715 465.123 160.024 465.123 159.232C465.123 158.449 465.269 157.76 465.561 157.163C465.856 156.567 466.267 156.101 466.794 155.766C467.324 155.432 467.944 155.264 468.653 155.264C469.084 155.264 469.501 155.335 469.906 155.478C470.31 155.621 470.673 155.844 470.994 156.149C471.316 156.454 471.57 156.85 471.755 157.337C471.941 157.821 472.034 158.41 472.034 159.102V159.629H465.963V158.516H470.577C470.577 158.125 470.497 157.778 470.338 157.477C470.179 157.172 469.955 156.931 469.667 156.756C469.382 156.58 469.047 156.492 468.663 156.492C468.245 156.492 467.881 156.595 467.569 156.8C467.261 157.003 467.022 157.268 466.853 157.596C466.687 157.921 466.605 158.274 466.605 158.655V159.525C466.605 160.035 466.694 160.469 466.873 160.827C467.055 161.185 467.309 161.459 467.634 161.648C467.959 161.833 468.338 161.926 468.772 161.926C469.054 161.926 469.311 161.886 469.543 161.807C469.775 161.724 469.975 161.601 470.144 161.439C470.313 161.277 470.443 161.076 470.532 160.837L471.939 161.091C471.826 161.505 471.624 161.868 471.333 162.18C471.044 162.488 470.681 162.728 470.244 162.901C469.81 163.07 469.314 163.154 468.757 163.154ZM475.169 152.818V163H473.683V152.818H475.169Z" fill="white" fill-opacity="0.7"/>
<path d="M509.949 163V152.818H511.485V161.678H516.099V163H509.949ZM519.954 163.169C519.47 163.169 519.033 163.08 518.642 162.901C518.25 162.718 517.941 162.455 517.712 162.11C517.486 161.765 517.374 161.343 517.374 160.842C517.374 160.411 517.457 160.057 517.622 159.778C517.788 159.5 518.012 159.28 518.294 159.117C518.575 158.955 518.89 158.832 519.238 158.749C519.586 158.666 519.941 158.603 520.302 158.56C520.759 158.507 521.131 158.464 521.416 158.431C521.701 158.395 521.908 158.337 522.037 158.257C522.166 158.178 522.231 158.048 522.231 157.869V157.835C522.231 157.4 522.108 157.064 521.863 156.825C521.621 156.587 521.26 156.467 520.779 156.467C520.279 156.467 519.884 156.578 519.596 156.8C519.311 157.019 519.114 157.263 519.004 157.531L517.607 157.213C517.773 156.749 518.015 156.375 518.333 156.089C518.655 155.801 519.024 155.592 519.442 155.463C519.86 155.33 520.299 155.264 520.759 155.264C521.064 155.264 521.387 155.301 521.729 155.374C522.074 155.443 522.395 155.572 522.693 155.761C522.995 155.95 523.242 156.22 523.434 156.572C523.626 156.92 523.722 157.372 523.722 157.929V163H522.271V161.956H522.211C522.115 162.148 521.971 162.337 521.779 162.523C521.586 162.708 521.339 162.862 521.038 162.985C520.736 163.108 520.375 163.169 519.954 163.169ZM520.277 161.976C520.688 161.976 521.039 161.895 521.331 161.732C521.626 161.57 521.85 161.358 522.002 161.096C522.158 160.831 522.236 160.547 522.236 160.246V159.261C522.183 159.314 522.08 159.364 521.928 159.411C521.779 159.454 521.608 159.492 521.416 159.525C521.223 159.555 521.036 159.583 520.854 159.609C520.672 159.633 520.519 159.652 520.396 159.669C520.108 159.705 519.845 159.767 519.606 159.853C519.371 159.939 519.182 160.063 519.039 160.226C518.9 160.385 518.83 160.597 518.83 160.862C518.83 161.23 518.966 161.509 519.238 161.697C519.51 161.883 519.856 161.976 520.277 161.976ZM525.822 163V152.818H527.308V156.602H527.398C527.484 156.442 527.608 156.259 527.771 156.05C527.933 155.841 528.158 155.659 528.447 155.503C528.735 155.344 529.116 155.264 529.59 155.264C530.207 155.264 530.757 155.42 531.241 155.732C531.725 156.043 532.104 156.492 532.379 157.079C532.658 157.665 532.797 158.371 532.797 159.197C532.797 160.022 532.659 160.73 532.384 161.32C532.109 161.906 531.731 162.359 531.251 162.677C530.77 162.992 530.222 163.149 529.605 163.149C529.141 163.149 528.762 163.071 528.467 162.915C528.175 162.76 527.946 162.577 527.781 162.369C527.615 162.16 527.487 161.974 527.398 161.812H527.273V163H525.822ZM527.278 159.182C527.278 159.719 527.356 160.189 527.512 160.594C527.668 160.998 527.893 161.315 528.188 161.543C528.483 161.769 528.844 161.881 529.272 161.881C529.716 161.881 530.087 161.764 530.386 161.528C530.684 161.29 530.909 160.967 531.062 160.559C531.218 160.151 531.295 159.692 531.295 159.182C531.295 158.678 531.219 158.226 531.067 157.825C530.918 157.424 530.692 157.107 530.391 156.875C530.092 156.643 529.719 156.527 529.272 156.527C528.841 156.527 528.477 156.638 528.178 156.86C527.883 157.082 527.66 157.392 527.507 157.79C527.355 158.187 527.278 158.652 527.278 159.182ZM537.757 163.154C537.005 163.154 536.357 162.993 535.813 162.672C535.273 162.347 534.856 161.891 534.561 161.305C534.269 160.715 534.123 160.024 534.123 159.232C534.123 158.449 534.269 157.76 534.561 157.163C534.856 156.567 535.267 156.101 535.794 155.766C536.324 155.432 536.944 155.264 537.653 155.264C538.084 155.264 538.501 155.335 538.906 155.478C539.31 155.621 539.673 155.844 539.994 156.149C540.316 156.454 540.57 156.85 540.755 157.337C540.941 157.821 541.034 158.41 541.034 159.102V159.629H534.963V158.516H539.577C539.577 158.125 539.497 157.778 539.338 157.477C539.179 157.172 538.955 156.931 538.667 156.756C538.382 156.58 538.047 156.492 537.663 156.492C537.245 156.492 536.881 156.595 536.569 156.8C536.261 157.003 536.022 157.268 535.853 157.596C535.687 157.921 535.605 158.274 535.605 158.655V159.525C535.605 160.035 535.694 160.469 535.873 160.827C536.055 161.185 536.309 161.459 536.634 161.648C536.959 161.833 537.338 161.926 537.772 161.926C538.054 161.926 538.311 161.886 538.543 161.807C538.775 161.724 538.975 161.601 539.144 161.439C539.313 161.277 539.443 161.076 539.532 160.837L540.939 161.091C540.826 161.505 540.624 161.868 540.333 162.18C540.044 162.488 539.681 162.728 539.244 162.901C538.81 163.07 538.314 163.154 537.757 163.154ZM544.169 152.818V163H542.683V152.818H544.169Z" fill="white" fill-opacity="0.7"/>
<path d="M578.949 163V152.818H580.485V161.678H585.099V163H578.949ZM588.954 163.169C588.47 163.169 588.033 163.08 587.642 162.901C587.25 162.718 586.941 162.455 586.712 162.11C586.486 161.765 586.374 161.343 586.374 160.842C586.374 160.411 586.457 160.057 586.622 159.778C586.788 159.5 587.012 159.28 587.294 159.117C587.575 158.955 587.89 158.832 588.238 158.749C588.586 158.666 588.941 158.603 589.302 158.56C589.759 158.507 590.131 158.464 590.416 158.431C590.701 158.395 590.908 158.337 591.037 158.257C591.166 158.178 591.231 158.048 591.231 157.869V157.835C591.231 157.4 591.108 157.064 590.863 156.825C590.621 156.587 590.26 156.467 589.779 156.467C589.279 156.467 588.884 156.578 588.596 156.8C588.311 157.019 588.114 157.263 588.004 157.531L586.607 157.213C586.773 156.749 587.015 156.375 587.333 156.089C587.655 155.801 588.024 155.592 588.442 155.463C588.86 155.33 589.299 155.264 589.759 155.264C590.064 155.264 590.387 155.301 590.729 155.374C591.074 155.443 591.395 155.572 591.693 155.761C591.995 155.95 592.242 156.22 592.434 156.572C592.626 156.92 592.722 157.372 592.722 157.929V163H591.271V161.956H591.211C591.115 162.148 590.971 162.337 590.779 162.523C590.586 162.708 590.339 162.862 590.038 162.985C589.736 163.108 589.375 163.169 588.954 163.169ZM589.277 161.976C589.688 161.976 590.039 161.895 590.331 161.732C590.626 161.57 590.85 161.358 591.002 161.096C591.158 160.831 591.236 160.547 591.236 160.246V159.261C591.183 159.314 591.08 159.364 590.928 159.411C590.779 159.454 590.608 159.492 590.416 159.525C590.223 159.555 590.036 159.583 589.854 159.609C589.672 159.633 589.519 159.652 589.396 159.669C589.108 159.705 588.845 159.767 588.606 159.853C588.371 159.939 588.182 160.063 588.039 160.226C587.9 160.385 587.83 160.597 587.83 160.862C587.83 161.23 587.966 161.509 588.238 161.697C588.51 161.883 588.856 161.976 589.277 161.976ZM594.822 163V152.818H596.308V156.602H596.398C596.484 156.442 596.608 156.259 596.771 156.05C596.933 155.841 597.158 155.659 597.447 155.503C597.735 155.344 598.116 155.264 598.59 155.264C599.207 155.264 599.757 155.42 600.241 155.732C600.725 156.043 601.104 156.492 601.379 157.079C601.658 157.665 601.797 158.371 601.797 159.197C601.797 160.022 601.659 160.73 601.384 161.32C601.109 161.906 600.731 162.359 600.251 162.677C599.77 162.992 599.222 163.149 598.605 163.149C598.141 163.149 597.762 163.071 597.467 162.915C597.175 162.76 596.946 162.577 596.781 162.369C596.615 162.16 596.487 161.974 596.398 161.812H596.273V163H594.822ZM596.278 159.182C596.278 159.719 596.356 160.189 596.512 160.594C596.668 160.998 596.893 161.315 597.188 161.543C597.483 161.769 597.844 161.881 598.272 161.881C598.716 161.881 599.087 161.764 599.386 161.528C599.684 161.29 599.909 160.967 600.062 160.559C600.218 160.151 600.295 159.692 600.295 159.182C600.295 158.678 600.219 158.226 600.067 157.825C599.918 157.424 599.692 157.107 599.391 156.875C599.092 156.643 598.719 156.527 598.272 156.527C597.841 156.527 597.477 156.638 597.178 156.86C596.883 157.082 596.66 157.392 596.507 157.79C596.355 158.187 596.278 158.652 596.278 159.182ZM606.757 163.154C606.005 163.154 605.357 162.993 604.813 162.672C604.273 162.347 603.856 161.891 603.561 161.305C603.269 160.715 603.123 160.024 603.123 159.232C603.123 158.449 603.269 157.76 603.561 157.163C603.856 156.567 604.267 156.101 604.794 155.766C605.324 155.432 605.944 155.264 606.653 155.264C607.084 155.264 607.501 155.335 607.906 155.478C608.31 155.621 608.673 155.844 608.994 156.149C609.316 156.454 609.57 156.85 609.755 157.337C609.941 157.821 610.034 158.41 610.034 159.102V159.629H603.963V158.516H608.577C608.577 158.125 608.497 157.778 608.338 157.477C608.179 157.172 607.955 156.931 607.667 156.756C607.382 156.58 607.047 156.492 606.663 156.492C606.245 156.492 605.881 156.595 605.569 156.8C605.261 157.003 605.022 157.268 604.853 157.596C604.687 157.921 604.605 158.274 604.605 158.655V159.525C604.605 160.035 604.694 160.469 604.873 160.827C605.055 161.185 605.309 161.459 605.634 161.648C605.959 161.833 606.338 161.926 606.772 161.926C607.054 161.926 607.311 161.886 607.543 161.807C607.775 161.724 607.975 161.601 608.144 161.439C608.313 161.277 608.443 161.076 608.532 160.837L609.939 161.091C609.826 161.505 609.624 161.868 609.333 162.18C609.044 162.488 608.681 162.728 608.244 162.901C607.81 163.07 607.314 163.154 606.757 163.154ZM613.169 152.818V163H611.683V152.818H613.169Z" fill="white" fill-opacity="0.7"/>
<path d="M647.949 163V152.818H649.485V161.678H654.099V163H647.949ZM657.954 163.169C657.47 163.169 657.033 163.08 656.642 162.901C656.25 162.718 655.941 162.455 655.712 162.11C655.486 161.765 655.374 161.343 655.374 160.842C655.374 160.411 655.457 160.057 655.622 159.778C655.788 159.5 656.012 159.28 656.294 159.117C656.575 158.955 656.89 158.832 657.238 158.749C657.586 158.666 657.941 158.603 658.302 158.56C658.759 158.507 659.131 158.464 659.416 158.431C659.701 158.395 659.908 158.337 660.037 158.257C660.166 158.178 660.231 158.048 660.231 157.869V157.835C660.231 157.4 660.108 157.064 659.863 156.825C659.621 156.587 659.26 156.467 658.779 156.467C658.279 156.467 657.884 156.578 657.596 156.8C657.311 157.019 657.114 157.263 657.004 157.531L655.607 157.213C655.773 156.749 656.015 156.375 656.333 156.089C656.655 155.801 657.024 155.592 657.442 155.463C657.86 155.33 658.299 155.264 658.759 155.264C659.064 155.264 659.387 155.301 659.729 155.374C660.074 155.443 660.395 155.572 660.693 155.761C660.995 155.95 661.242 156.22 661.434 156.572C661.626 156.92 661.722 157.372 661.722 157.929V163H660.271V161.956H660.211C660.115 162.148 659.971 162.337 659.779 162.523C659.586 162.708 659.339 162.862 659.038 162.985C658.736 163.108 658.375 163.169 657.954 163.169ZM658.277 161.976C658.688 161.976 659.039 161.895 659.331 161.732C659.626 161.57 659.85 161.358 660.002 161.096C660.158 160.831 660.236 160.547 660.236 160.246V159.261C660.183 159.314 660.08 159.364 659.928 159.411C659.779 159.454 659.608 159.492 659.416 159.525C659.223 159.555 659.036 159.583 658.854 159.609C658.672 159.633 658.519 159.652 658.396 159.669C658.108 159.705 657.845 159.767 657.606 159.853C657.371 159.939 657.182 160.063 657.039 160.226C656.9 160.385 656.83 160.597 656.83 160.862C656.83 161.23 656.966 161.509 657.238 161.697C657.51 161.883 657.856 161.976 658.277 161.976ZM663.822 163V152.818H665.308V156.602H665.398C665.484 156.442 665.608 156.259 665.771 156.05C665.933 155.841 666.158 155.659 666.447 155.503C666.735 155.344 667.116 155.264 667.59 155.264C668.207 155.264 668.757 155.42 669.241 155.732C669.725 156.043 670.104 156.492 670.379 157.079C670.658 157.665 670.797 158.371 670.797 159.197C670.797 160.022 670.659 160.73 670.384 161.32C670.109 161.906 669.731 162.359 669.251 162.677C668.77 162.992 668.222 163.149 667.605 163.149C667.141 163.149 666.762 163.071 666.467 162.915C666.175 162.76 665.946 162.577 665.781 162.369C665.615 162.16 665.487 161.974 665.398 161.812H665.273V163H663.822ZM665.278 159.182C665.278 159.719 665.356 160.189 665.512 160.594C665.668 160.998 665.893 161.315 666.188 161.543C666.483 161.769 666.844 161.881 667.272 161.881C667.716 161.881 668.087 161.764 668.386 161.528C668.684 161.29 668.909 160.967 669.062 160.559C669.218 160.151 669.295 159.692 669.295 159.182C669.295 158.678 669.219 158.226 669.067 157.825C668.918 157.424 668.692 157.107 668.391 156.875C668.092 156.643 667.719 156.527 667.272 156.527C666.841 156.527 666.477 156.638 666.178 156.86C665.883 157.082 665.66 157.392 665.507 157.79C665.355 158.187 665.278 158.652 665.278 159.182ZM675.757 163.154C675.005 163.154 674.357 162.993 673.813 162.672C673.273 162.347 672.856 161.891 672.561 161.305C672.269 160.715 672.123 160.024 672.123 159.232C672.123 158.449 672.269 157.76 672.561 157.163C672.856 156.567 673.267 156.101 673.794 155.766C674.324 155.432 674.944 155.264 675.653 155.264C676.084 155.264 676.501 155.335 676.906 155.478C677.31 155.621 677.673 155.844 677.994 156.149C678.316 156.454 678.57 156.85 678.755 157.337C678.941 157.821 679.034 158.41 679.034 159.102V159.629H672.963V158.516H677.577C677.577 158.125 677.497 157.778 677.338 157.477C677.179 157.172 676.955 156.931 676.667 156.756C676.382 156.58 676.047 156.492 675.663 156.492C675.245 156.492 674.881 156.595 674.569 156.8C674.261 157.003 674.022 157.268 673.853 157.596C673.687 157.921 673.605 158.274 673.605 158.655V159.525C673.605 160.035 673.694 160.469 673.873 160.827C674.055 161.185 674.309 161.459 674.634 161.648C674.959 161.833 675.338 161.926 675.772 161.926C676.054 161.926 676.311 161.886 676.543 161.807C676.775 161.724 676.975 161.601 677.144 161.439C677.313 161.277 677.443 161.076 677.532 160.837L678.939 161.091C678.826 161.505 678.624 161.868 678.333 162.18C678.044 162.488 677.681 162.728 677.244 162.901C676.81 163.07 676.314 163.154 675.757 163.154ZM682.169 152.818V163H680.683V152.818H682.169Z" fill="white" fill-opacity="0.7"/>
<path d="M716.949 163V152.818H718.485V161.678H723.099V163H716.949ZM726.954 163.169C726.47 163.169 726.033 163.08 725.642 162.901C725.25 162.718 724.941 162.455 724.712 162.11C724.486 161.765 724.374 161.343 724.374 160.842C724.374 160.411 724.457 160.057 724.622 159.778C724.788 159.5 725.012 159.28 725.294 159.117C725.575 158.955 725.89 158.832 726.238 158.749C726.586 158.666 726.941 158.603 727.302 158.56C727.759 158.507 728.131 158.464 728.416 158.431C728.701 158.395 728.908 158.337 729.037 158.257C729.166 158.178 729.231 158.048 729.231 157.869V157.835C729.231 157.4 729.108 157.064 728.863 156.825C728.621 156.587 728.26 156.467 727.779 156.467C727.279 156.467 726.884 156.578 726.596 156.8C726.311 157.019 726.114 157.263 726.004 157.531L724.607 157.213C724.773 156.749 725.015 156.375 725.333 156.089C725.655 155.801 726.024 155.592 726.442 155.463C726.86 155.33 727.299 155.264 727.759 155.264C728.064 155.264 728.387 155.301 728.729 155.374C729.074 155.443 729.395 155.572 729.693 155.761C729.995 155.95 730.242 156.22 730.434 156.572C730.626 156.92 730.722 157.372 730.722 157.929V163H729.271V161.956H729.211C729.115 162.148 728.971 162.337 728.779 162.523C728.586 162.708 728.339 162.862 728.038 162.985C727.736 163.108 727.375 163.169 726.954 163.169ZM727.277 161.976C727.688 161.976 728.039 161.895 728.331 161.732C728.626 161.57 728.85 161.358 729.002 161.096C729.158 160.831 729.236 160.547 729.236 160.246V159.261C729.183 159.314 729.08 159.364 728.928 159.411C728.779 159.454 728.608 159.492 728.416 159.525C728.223 159.555 728.036 159.583 727.854 159.609C727.672 159.633 727.519 159.652 727.396 159.669C727.108 159.705 726.845 159.767 726.606 159.853C726.371 159.939 726.182 160.063 726.039 160.226C725.9 160.385 725.83 160.597 725.83 160.862C725.83 161.23 725.966 161.509 726.238 161.697C726.51 161.883 726.856 161.976 727.277 161.976ZM732.822 163V152.818H734.308V156.602H734.398C734.484 156.442 734.608 156.259 734.771 156.05C734.933 155.841 735.158 155.659 735.447 155.503C735.735 155.344 736.116 155.264 736.59 155.264C737.207 155.264 737.757 155.42 738.241 155.732C738.725 156.043 739.104 156.492 739.379 157.079C739.658 157.665 739.797 158.371 739.797 159.197C739.797 160.022 739.659 160.73 739.384 161.32C739.109 161.906 738.731 162.359 738.251 162.677C737.77 162.992 737.222 163.149 736.605 163.149C736.141 163.149 735.762 163.071 735.467 162.915C735.175 162.76 734.946 162.577 734.781 162.369C734.615 162.16 734.487 161.974 734.398 161.812H734.273V163H732.822ZM734.278 159.182C734.278 159.719 734.356 160.189 734.512 160.594C734.668 160.998 734.893 161.315 735.188 161.543C735.483 161.769 735.844 161.881 736.272 161.881C736.716 161.881 737.087 161.764 737.386 161.528C737.684 161.29 737.909 160.967 738.062 160.559C738.218 160.151 738.295 159.692 738.295 159.182C738.295 158.678 738.219 158.226 738.067 157.825C737.918 157.424 737.692 157.107 737.391 156.875C737.092 156.643 736.719 156.527 736.272 156.527C735.841 156.527 735.477 156.638 735.178 156.86C734.883 157.082 734.66 157.392 734.507 157.79C734.355 158.187 734.278 158.652 734.278 159.182ZM744.757 163.154C744.005 163.154 743.357 162.993 742.813 162.672C742.273 162.347 741.856 161.891 741.561 161.305C741.269 160.715 741.123 160.024 741.123 159.232C741.123 158.449 741.269 157.76 741.561 157.163C741.856 156.567 742.267 156.101 742.794 155.766C743.324 155.432 743.944 155.264 744.653 155.264C745.084 155.264 745.501 155.335 745.906 155.478C746.31 155.621 746.673 155.844 746.994 156.149C747.316 156.454 747.57 156.85 747.755 157.337C747.941 157.821 748.034 158.41 748.034 159.102V159.629H741.963V158.516H746.577C746.577 158.125 746.497 157.778 746.338 157.477C746.179 157.172 745.955 156.931 745.667 156.756C745.382 156.58 745.047 156.492 744.663 156.492C744.245 156.492 743.881 156.595 743.569 156.8C743.261 157.003 743.022 157.268 742.853 157.596C742.687 157.921 742.605 158.274 742.605 158.655V159.525C742.605 160.035 742.694 160.469 742.873 160.827C743.055 161.185 743.309 161.459 743.634 161.648C743.959 161.833 744.338 161.926 744.772 161.926C745.054 161.926 745.311 161.886 745.543 161.807C745.775 161.724 745.975 161.601 746.144 161.439C746.313 161.277 746.443 161.076 746.532 160.837L747.939 161.091C747.826 161.505 747.624 161.868 747.333 162.18C747.044 162.488 746.681 162.728 746.244 162.901C745.81 163.07 745.314 163.154 744.757 163.154ZM751.169 152.818V163H749.683V152.818H751.169Z" fill="white" fill-opacity="0.7"/>
<path d="M785.949 163V152.818H787.485V161.678H792.099V163H785.949ZM795.954 163.169C795.47 163.169 795.033 163.08 794.642 162.901C794.25 162.718 793.941 162.455 793.712 162.11C793.486 161.765 793.374 161.343 793.374 160.842C793.374 160.411 793.457 160.057 793.622 159.778C793.788 159.5 794.012 159.28 794.294 159.117C794.575 158.955 794.89 158.832 795.238 158.749C795.586 158.666 795.941 158.603 796.302 158.56C796.759 158.507 797.131 158.464 797.416 158.431C797.701 158.395 797.908 158.337 798.037 158.257C798.166 158.178 798.231 158.048 798.231 157.869V157.835C798.231 157.4 798.108 157.064 797.863 156.825C797.621 156.587 797.26 156.467 796.779 156.467C796.279 156.467 795.884 156.578 795.596 156.8C795.311 157.019 795.114 157.263 795.004 157.531L793.607 157.213C793.773 156.749 794.015 156.375 794.333 156.089C794.655 155.801 795.024 155.592 795.442 155.463C795.86 155.33 796.299 155.264 796.759 155.264C797.064 155.264 797.387 155.301 797.729 155.374C798.074 155.443 798.395 155.572 798.693 155.761C798.995 155.95 799.242 156.22 799.434 156.572C799.626 156.92 799.722 157.372 799.722 157.929V163H798.271V161.956H798.211C798.115 162.148 797.971 162.337 797.779 162.523C797.586 162.708 797.339 162.862 797.038 162.985C796.736 163.108 796.375 163.169 795.954 163.169ZM796.277 161.976C796.688 161.976 797.039 161.895 797.331 161.732C797.626 161.57 797.85 161.358 798.002 161.096C798.158 160.831 798.236 160.547 798.236 160.246V159.261C798.183 159.314 798.08 159.364 797.928 159.411C797.779 159.454 797.608 159.492 797.416 159.525C797.223 159.555 797.036 159.583 796.854 159.609C796.672 159.633 796.519 159.652 796.396 159.669C796.108 159.705 795.845 159.767 795.606 159.853C795.371 159.939 795.182 160.063 795.039 160.226C794.9 160.385 794.83 160.597 794.83 160.862C794.83 161.23 794.966 161.509 795.238 161.697C795.51 161.883 795.856 161.976 796.277 161.976ZM801.822 163V152.818H803.308V156.602H803.398C803.484 156.442 803.608 156.259 803.771 156.05C803.933 155.841 804.158 155.659 804.447 155.503C804.735 155.344 805.116 155.264 805.59 155.264C806.207 155.264 806.757 155.42 807.241 155.732C807.725 156.043 808.104 156.492 808.379 157.079C808.658 157.665 808.797 158.371 808.797 159.197C808.797 160.022 808.659 160.73 808.384 161.32C808.109 161.906 807.731 162.359 807.251 162.677C806.77 162.992 806.222 163.149 805.605 163.149C805.141 163.149 804.762 163.071 804.467 162.915C804.175 162.76 803.946 162.577 803.781 162.369C803.615 162.16 803.487 161.974 803.398 161.812H803.273V163H801.822ZM803.278 159.182C803.278 159.719 803.356 160.189 803.512 160.594C803.668 160.998 803.893 161.315 804.188 161.543C804.483 161.769 804.844 161.881 805.272 161.881C805.716 161.881 806.087 161.764 806.386 161.528C806.684 161.29 806.909 160.967 807.062 160.559C807.218 160.151 807.295 159.692 807.295 159.182C807.295 158.678 807.219 158.226 807.067 157.825C806.918 157.424 806.692 157.107 806.391 156.875C806.092 156.643 805.719 156.527 805.272 156.527C804.841 156.527 804.477 156.638 804.178 156.86C803.883 157.082 803.66 157.392 803.507 157.79C803.355 158.187 803.278 158.652 803.278 159.182ZM813.757 163.154C813.005 163.154 812.357 162.993 811.813 162.672C811.273 162.347 810.856 161.891 810.561 161.305C810.269 160.715 810.123 160.024 810.123 159.232C810.123 158.449 810.269 157.76 810.561 157.163C810.856 156.567 811.267 156.101 811.794 155.766C812.324 155.432 812.944 155.264 813.653 155.264C814.084 155.264 814.501 155.335 814.906 155.478C815.31 155.621 815.673 155.844 815.994 156.149C816.316 156.454 816.57 156.85 816.755 157.337C816.941 157.821 817.034 158.41 817.034 159.102V159.629H810.963V158.516H815.577C815.577 158.125 815.497 157.778 815.338 157.477C815.179 157.172 814.955 156.931 814.667 156.756C814.382 156.58 814.047 156.492 813.663 156.492C813.245 156.492 812.881 156.595 812.569 156.8C812.261 157.003 812.022 157.268 811.853 157.596C811.687 157.921 811.605 158.274 811.605 158.655V159.525C811.605 160.035 811.694 160.469 811.873 160.827C812.055 161.185 812.309 161.459 812.634 161.648C812.959 161.833 813.338 161.926 813.772 161.926C814.054 161.926 814.311 161.886 814.543 161.807C814.775 161.724 814.975 161.601 815.144 161.439C815.313 161.277 815.443 161.076 815.532 160.837L816.939 161.091C816.826 161.505 816.624 161.868 816.333 162.18C816.044 162.488 815.681 162.728 815.244 162.901C814.81 163.07 814.314 163.154 813.757 163.154ZM820.169 152.818V163H818.683V152.818H820.169Z" fill="white" fill-opacity="0.7"/>
<path d="M854.949 163V152.818H856.485V161.678H861.099V163H854.949ZM864.954 163.169C864.47 163.169 864.033 163.08 863.642 162.901C863.25 162.718 862.941 162.455 862.712 162.11C862.486 161.765 862.374 161.343 862.374 160.842C862.374 160.411 862.457 160.057 862.622 159.778C862.788 159.5 863.012 159.28 863.294 159.117C863.575 158.955 863.89 158.832 864.238 158.749C864.586 158.666 864.941 158.603 865.302 158.56C865.759 158.507 866.131 158.464 866.416 158.431C866.701 158.395 866.908 158.337 867.037 158.257C867.166 158.178 867.231 158.048 867.231 157.869V157.835C867.231 157.4 867.108 157.064 866.863 156.825C866.621 156.587 866.26 156.467 865.779 156.467C865.279 156.467 864.884 156.578 864.596 156.8C864.311 157.019 864.114 157.263 864.004 157.531L862.607 157.213C862.773 156.749 863.015 156.375 863.333 156.089C863.655 155.801 864.024 155.592 864.442 155.463C864.86 155.33 865.299 155.264 865.759 155.264C866.064 155.264 866.387 155.301 866.729 155.374C867.074 155.443 867.395 155.572 867.693 155.761C867.995 155.95 868.242 156.22 868.434 156.572C868.626 156.92 868.722 157.372 868.722 157.929V163H867.271V161.956H867.211C867.115 162.148 866.971 162.337 866.779 162.523C866.586 162.708 866.339 162.862 866.038 162.985C865.736 163.108 865.375 163.169 864.954 163.169ZM865.277 161.976C865.688 161.976 866.039 161.895 866.331 161.732C866.626 161.57 866.85 161.358 867.002 161.096C867.158 160.831 867.236 160.547 867.236 160.246V159.261C867.183 159.314 867.08 159.364 866.928 159.411C866.779 159.454 866.608 159.492 866.416 159.525C866.223 159.555 866.036 159.583 865.854 159.609C865.672 159.633 865.519 159.652 865.396 159.669C865.108 159.705 864.845 159.767 864.606 159.853C864.371 159.939 864.182 160.063 864.039 160.226C863.9 160.385 863.83 160.597 863.83 160.862C863.83 161.23 863.966 161.509 864.238 161.697C864.51 161.883 864.856 161.976 865.277 161.976ZM870.822 163V152.818H872.308V156.602H872.398C872.484 156.442 872.608 156.259 872.771 156.05C872.933 155.841 873.158 155.659 873.447 155.503C873.735 155.344 874.116 155.264 874.59 155.264C875.207 155.264 875.757 155.42 876.241 155.732C876.725 156.043 877.104 156.492 877.379 157.079C877.658 157.665 877.797 158.371 877.797 159.197C877.797 160.022 877.659 160.73 877.384 161.32C877.109 161.906 876.731 162.359 876.251 162.677C875.77 162.992 875.222 163.149 874.605 163.149C874.141 163.149 873.762 163.071 873.467 162.915C873.175 162.76 872.946 162.577 872.781 162.369C872.615 162.16 872.487 161.974 872.398 161.812H872.273V163H870.822ZM872.278 159.182C872.278 159.719 872.356 160.189 872.512 160.594C872.668 160.998 872.893 161.315 873.188 161.543C873.483 161.769 873.844 161.881 874.272 161.881C874.716 161.881 875.087 161.764 875.386 161.528C875.684 161.29 875.909 160.967 876.062 160.559C876.218 160.151 876.295 159.692 876.295 159.182C876.295 158.678 876.219 158.226 876.067 157.825C875.918 157.424 875.692 157.107 875.391 156.875C875.092 156.643 874.719 156.527 874.272 156.527C873.841 156.527 873.477 156.638 873.178 156.86C872.883 157.082 872.66 157.392 872.507 157.79C872.355 158.187 872.278 158.652 872.278 159.182ZM882.757 163.154C882.005 163.154 881.357 162.993 880.813 162.672C880.273 162.347 879.856 161.891 879.561 161.305C879.269 160.715 879.123 160.024 879.123 159.232C879.123 158.449 879.269 157.76 879.561 157.163C879.856 156.567 880.267 156.101 880.794 155.766C881.324 155.432 881.944 155.264 882.653 155.264C883.084 155.264 883.501 155.335 883.906 155.478C884.31 155.621 884.673 155.844 884.994 156.149C885.316 156.454 885.57 156.85 885.755 157.337C885.941 157.821 886.034 158.41 886.034 159.102V159.629H879.963V158.516H884.577C884.577 158.125 884.497 157.778 884.338 157.477C884.179 157.172 883.955 156.931 883.667 156.756C883.382 156.58 883.047 156.492 882.663 156.492C882.245 156.492 881.881 156.595 881.569 156.8C881.261 157.003 881.022 157.268 880.853 157.596C880.687 157.921 880.605 158.274 880.605 158.655V159.525C880.605 160.035 880.694 160.469 880.873 160.827C881.055 161.185 881.309 161.459 881.634 161.648C881.959 161.833 882.338 161.926 882.772 161.926C883.054 161.926 883.311 161.886 883.543 161.807C883.775 161.724 883.975 161.601 884.144 161.439C884.313 161.277 884.443 161.076 884.532 160.837L885.939 161.091C885.826 161.505 885.624 161.868 885.333 162.18C885.044 162.488 884.681 162.728 884.244 162.901C883.81 163.07 883.314 163.154 882.757 163.154ZM889.169 152.818V163H887.683V152.818H889.169Z" fill="white" fill-opacity="0.7"/>
</g>
<path d="M891.854 157.646L885.854 151.646C885.807 151.599 885.752 151.561 885.691 151.535C885.63 151.509 885.565 151.495 885.498 151.495C885.432 151.494 885.366 151.507 885.305 151.532C885.244 151.557 885.188 151.594 885.141 151.641C885.094 151.688 885.057 151.744 885.032 151.805C885.007 151.866 884.994 151.932 884.995 151.998C884.995 152.065 885.009 152.13 885.035 152.191C885.061 152.252 885.099 152.307 885.147 152.354L890.793 158L885.147 163.646C885.099 163.693 885.061 163.748 885.035 163.809C885.009 163.87 884.995 163.935 884.995 164.002C884.994 164.068 885.007 164.134 885.032 164.195C885.057 164.256 885.094 164.312 885.141 164.359C885.188 164.406 885.244 164.443 885.305 164.468C885.366 164.493 885.432 164.506 885.498 164.505C885.565 164.505 885.63 164.491 885.691 164.465C885.752 164.439 885.807 164.401 885.854 164.354L891.854 158.354C891.947 158.26 892 158.133 892 158C892 157.867 891.947 157.74 891.854 157.646Z" fill="white" fill-opacity="0.95"/>
</g>
<defs>
<clipPath id="clip0_2031_6783">
<rect width="659" height="32" fill="white" transform="translate(245.5 100)"/>
</clipPath>
<clipPath id="clip1_2031_6783">
<rect width="571" height="32" fill="white" transform="translate(289.5 100)"/>
</clipPath>
<clipPath id="clip2_2031_6783">
<rect width="659" height="32" fill="white" transform="translate(245.5 142)"/>
</clipPath>
<clipPath id="clip3_2031_6783">
<rect width="571" height="32" fill="white" transform="translate(289.5 142)"/>
</clipPath>
</defs>
</svg>
