<svg width="559" height="263" viewBox="0 0 559 263" fill="none" xmlns="http://www.w3.org/2000/svg">
<rect width="559" height="263" rx="16" fill="#1A1A1A"/>
<path d="M519 25.9997C516.232 25.9997 513.525 26.8208 511.223 28.3591C508.92 29.8975 507.126 32.084 506.066 34.6421C505.007 37.2003 504.729 40.0152 505.27 42.731C505.81 45.4467 507.143 47.9412 509.101 49.8992C511.059 51.8571 513.553 53.1905 516.269 53.7307C518.985 54.2709 521.8 53.9936 524.358 52.934C526.916 51.8744 529.103 50.08 530.641 47.7777C532.179 45.4754 533 42.7686 533 39.9997C532.996 36.2879 531.52 32.7294 528.895 30.1048C526.271 27.4802 522.712 26.0039 519 25.9997ZM528.155 47.7404L511.26 30.8449C513.555 28.8985 516.498 27.8864 519.505 28.0097C522.511 28.1331 525.362 29.3828 527.49 31.5106C529.617 33.6385 530.867 36.4889 530.99 39.4956C531.114 42.5023 530.102 45.4454 528.155 47.7404ZM509.846 32.259L526.741 49.1545C524.446 51.1009 521.503 52.1129 518.496 51.9896C515.49 51.8662 512.639 50.6165 510.512 48.4887C508.384 46.3608 507.134 43.5105 507.011 40.5038C506.887 37.4971 507.899 34.554 509.846 32.259Z" fill="#FC8B98"/>
<path d="M468 114.5C468 118.366 464.866 121.5 461 121.5C457.134 121.5 454 118.366 454 114.5C454 110.634 457.134 107.5 461 107.5C464.866 107.5 468 110.634 468 114.5Z" stroke="#3492EB" stroke-width="2"/>
<g clip-path="url(#clip0_2031_6197)">
<path d="M444.919 135.42H448.195C449.847 135.42 451.102 135.887 451.961 136.82C452.754 137.679 453.151 138.892 453.151 140.46C453.151 142.159 452.619 143.461 451.555 144.366C450.659 145.122 449.506 145.5 448.097 145.5H444.919V135.42ZM448.209 136.554H446.347V144.324H448.237C449.432 144.324 450.323 143.951 450.911 143.204C451.443 142.551 451.709 141.636 451.709 140.46C451.709 139.079 451.354 138.057 450.645 137.394C450.048 136.834 449.236 136.554 448.209 136.554ZM454.341 141.86C454.341 140.525 454.738 139.517 455.531 138.836C456.166 138.285 456.969 138.01 457.939 138.01C459.069 138.01 459.955 138.369 460.599 139.088C461.215 139.76 461.523 140.684 461.523 141.86C461.523 143.176 461.136 144.179 460.361 144.87C459.727 145.43 458.915 145.71 457.925 145.71C456.796 145.71 455.905 145.337 455.251 144.59C454.645 143.909 454.341 142.999 454.341 141.86ZM455.741 141.86C455.741 142.793 455.979 143.507 456.455 144.002C456.847 144.413 457.347 144.618 457.953 144.618C458.663 144.618 459.209 144.352 459.591 143.82C459.946 143.335 460.123 142.681 460.123 141.86C460.123 140.908 459.89 140.189 459.423 139.704C459.041 139.303 458.546 139.102 457.939 139.102C457.239 139.102 456.693 139.368 456.301 139.9C455.928 140.385 455.741 141.039 455.741 141.86ZM464.404 145.5H463.06V138.22H464.166L464.32 139.144C464.861 138.388 465.599 138.01 466.532 138.01C467.391 138.01 468.049 138.276 468.506 138.808C468.907 139.284 469.108 139.933 469.108 140.754V145.5H467.764V140.768C467.764 139.695 467.246 139.158 466.21 139.158C465.669 139.158 465.225 139.345 464.88 139.718C464.563 140.054 464.404 140.483 464.404 141.006V145.5ZM475.959 143.4H477.415C477.21 144.137 476.804 144.716 476.197 145.136C475.628 145.519 474.947 145.71 474.153 145.71C473.005 145.71 472.109 145.346 471.465 144.618C470.877 143.937 470.583 143.017 470.583 141.86C470.583 140.544 470.957 139.545 471.703 138.864C472.319 138.295 473.113 138.01 474.083 138.01C475.222 138.01 476.081 138.379 476.659 139.116C477.219 139.825 477.499 140.838 477.499 142.154H471.955C472.011 143.013 472.273 143.652 472.739 144.072C473.122 144.408 473.607 144.576 474.195 144.576C474.653 144.576 475.049 144.45 475.385 144.198C475.665 143.983 475.857 143.717 475.959 143.4ZM474.111 139.088C473.514 139.088 473.033 139.275 472.669 139.648C472.324 139.993 472.105 140.474 472.011 141.09H476.127C476.081 140.39 475.847 139.867 475.427 139.522C475.091 139.233 474.653 139.088 474.111 139.088Z" fill="white" fill-opacity="0.7"/>
</g>
<rect x="295" y="113.5" width="150" height="2" fill="white" fill-opacity="0.3"/>
<path d="M286 114.5C286 118.366 282.866 121.5 279 121.5C275.134 121.5 272 118.366 272 114.5C272 110.634 275.134 107.5 279 107.5C282.866 107.5 286 110.634 286 114.5Z" stroke="#64B4FA" stroke-width="2"/>
<path d="M239.392 145.5H237.81L236.816 142.952H232.014L231.006 145.5H229.508L233.652 135.42H235.262L239.392 145.5ZM234.436 136.848L232.476 141.79H236.354L234.436 136.848ZM244.629 143.526C244.629 143.115 244.414 142.807 243.985 142.602C243.733 142.49 243.243 142.35 242.515 142.182C241.619 141.986 240.979 141.701 240.597 141.328C240.279 141.011 240.121 140.595 240.121 140.082C240.121 139.401 240.396 138.878 240.947 138.514C241.441 138.178 242.109 138.01 242.949 138.01C243.817 138.01 244.521 138.225 245.063 138.654C245.529 139.027 245.819 139.522 245.931 140.138H244.559C244.4 139.429 243.859 139.074 242.935 139.074C242.421 139.074 242.039 139.167 241.787 139.354C241.581 139.513 241.479 139.713 241.479 139.956C241.479 140.255 241.591 140.479 241.815 140.628C242.048 140.777 242.501 140.927 243.173 141.076C244.199 141.3 244.913 141.575 245.315 141.902C245.763 142.266 245.987 142.775 245.987 143.428C245.987 144.156 245.688 144.73 245.091 145.15C244.549 145.523 243.835 145.71 242.949 145.71C241.978 145.71 241.208 145.477 240.639 145.01C240.144 144.599 239.869 144.067 239.813 143.414H241.185C241.334 144.235 241.927 144.646 242.963 144.646C243.523 144.646 243.957 144.525 244.265 144.282C244.507 144.086 244.629 143.834 244.629 143.526ZM251.683 143.526C251.683 143.115 251.469 142.807 251.039 142.602C250.787 142.49 250.297 142.35 249.569 142.182C248.673 141.986 248.034 141.701 247.651 141.328C247.334 141.011 247.175 140.595 247.175 140.082C247.175 139.401 247.451 138.878 248.001 138.514C248.496 138.178 249.163 138.01 250.003 138.01C250.871 138.01 251.576 138.225 252.117 138.654C252.584 139.027 252.873 139.522 252.985 140.138H251.613C251.455 139.429 250.913 139.074 249.989 139.074C249.476 139.074 249.093 139.167 248.841 139.354C248.636 139.513 248.533 139.713 248.533 139.956C248.533 140.255 248.645 140.479 248.869 140.628C249.103 140.777 249.555 140.927 250.227 141.076C251.254 141.3 251.968 141.575 252.369 141.902C252.817 142.266 253.041 142.775 253.041 143.428C253.041 144.156 252.743 144.73 252.145 145.15C251.604 145.523 250.89 145.71 250.003 145.71C249.033 145.71 248.263 145.477 247.693 145.01C247.199 144.599 246.923 144.067 246.867 143.414H248.239C248.389 144.235 248.981 144.646 250.017 144.646C250.577 144.646 251.011 144.525 251.319 144.282C251.562 144.086 251.683 143.834 251.683 143.526ZM256.006 137.002H254.494V135.42H256.006V137.002ZM255.922 145.5H254.578V138.22H255.922V145.5ZM257.802 145.99H259.244C259.31 146.363 259.496 146.653 259.804 146.858C260.122 147.063 260.537 147.166 261.05 147.166C261.769 147.166 262.306 146.979 262.66 146.606C262.959 146.289 263.108 145.845 263.108 145.276V144.338C262.567 144.973 261.76 145.29 260.686 145.29C259.716 145.29 258.927 144.94 258.32 144.24C257.751 143.587 257.466 142.737 257.466 141.692C257.466 140.479 257.812 139.541 258.502 138.878C259.09 138.299 259.846 138.01 260.77 138.01C261.816 138.01 262.604 138.402 263.136 139.186L263.346 138.22H264.452V145.346C264.452 146.261 264.121 146.979 263.458 147.502C262.861 147.987 262.072 148.23 261.092 148.23C260.075 148.23 259.277 148.001 258.698 147.544C258.213 147.161 257.914 146.643 257.802 145.99ZM258.866 141.72C258.866 142.513 259.1 143.134 259.566 143.582C259.949 143.955 260.42 144.142 260.98 144.142C261.718 144.142 262.282 143.899 262.674 143.414C263.01 143.003 263.178 142.453 263.178 141.762C263.178 140.875 262.95 140.199 262.492 139.732C262.11 139.349 261.606 139.158 260.98 139.158C260.29 139.158 259.758 139.396 259.384 139.872C259.039 140.32 258.866 140.936 258.866 141.72ZM267.762 145.5H266.418V138.22H267.524L267.678 139.144C268.219 138.388 268.956 138.01 269.89 138.01C270.748 138.01 271.406 138.276 271.864 138.808C272.265 139.284 272.466 139.933 272.466 140.754V145.5H271.122V140.768C271.122 139.695 270.604 139.158 269.568 139.158C269.026 139.158 268.583 139.345 268.238 139.718C267.92 140.054 267.762 140.483 267.762 141.006V145.5ZM282.856 144.506C283.724 144.506 284.438 144.231 284.998 143.68C285.483 143.204 285.745 142.625 285.782 141.944H287.224C287.187 142.607 286.981 143.223 286.608 143.792C286.225 144.371 285.717 144.828 285.082 145.164C284.401 145.528 283.649 145.71 282.828 145.71C281.307 145.71 280.131 145.192 279.3 144.156C278.572 143.241 278.208 142.009 278.208 140.46C278.208 138.687 278.707 137.329 279.706 136.386C280.537 135.602 281.615 135.21 282.94 135.21C284.2 135.21 285.245 135.597 286.076 136.372C286.767 137.007 287.145 137.767 287.21 138.654H285.768C285.675 137.917 285.343 137.343 284.774 136.932C284.27 136.577 283.659 136.4 282.94 136.4C281.867 136.4 281.041 136.783 280.462 137.548C279.93 138.248 279.664 139.219 279.664 140.46C279.664 141.823 280 142.868 280.672 143.596C281.232 144.203 281.96 144.506 282.856 144.506ZM288.337 141.86C288.337 140.525 288.734 139.517 289.527 138.836C290.162 138.285 290.965 138.01 291.935 138.01C293.065 138.01 293.951 138.369 294.595 139.088C295.211 139.76 295.519 140.684 295.519 141.86C295.519 143.176 295.132 144.179 294.357 144.87C293.723 145.43 292.911 145.71 291.921 145.71C290.792 145.71 289.901 145.337 289.247 144.59C288.641 143.909 288.337 142.999 288.337 141.86ZM289.737 141.86C289.737 142.793 289.975 143.507 290.451 144.002C290.843 144.413 291.343 144.618 291.949 144.618C292.659 144.618 293.205 144.352 293.587 143.82C293.942 143.335 294.119 142.681 294.119 141.86C294.119 140.908 293.886 140.189 293.419 139.704C293.037 139.303 292.542 139.102 291.935 139.102C291.235 139.102 290.689 139.368 290.297 139.9C289.924 140.385 289.737 141.039 289.737 141.86ZM298.4 145.5H297.056V138.22H298.162L298.316 139.144C298.858 138.388 299.595 138.01 300.528 138.01C301.387 138.01 302.045 138.276 302.502 138.808C302.904 139.284 303.104 139.933 303.104 140.754V145.5H301.76V140.768C301.76 139.695 301.242 139.158 300.206 139.158C299.665 139.158 299.222 139.345 298.876 139.718C298.559 140.054 298.4 140.483 298.4 141.006V145.5ZM308.248 144.422V145.57C307.902 145.663 307.571 145.71 307.254 145.71C306.582 145.71 306.078 145.5 305.742 145.08C305.452 144.735 305.308 144.273 305.308 143.694V139.368H304.23V138.22H305.308L305.392 136.47H306.652V138.22H308.22V139.368H306.652V143.722C306.652 144.263 306.908 144.534 307.422 144.534C307.664 144.534 307.94 144.497 308.248 144.422ZM310.659 140.25H309.231C309.306 139.522 309.651 138.957 310.267 138.556C310.818 138.192 311.513 138.01 312.353 138.01C313.352 138.01 314.117 138.271 314.649 138.794C315.097 139.242 315.321 139.821 315.321 140.53V145.5H314.215L314.047 144.506C313.478 145.309 312.666 145.71 311.611 145.71C310.781 145.71 310.132 145.486 309.665 145.038C309.283 144.665 309.091 144.193 309.091 143.624C309.091 142.905 309.339 142.35 309.833 141.958C310.272 141.613 310.944 141.361 311.849 141.202L313.977 140.838V140.474C313.977 139.998 313.814 139.639 313.487 139.396C313.198 139.181 312.801 139.074 312.297 139.074C311.308 139.074 310.762 139.466 310.659 140.25ZM311.933 144.576C312.503 144.576 312.997 144.389 313.417 144.016C313.791 143.671 313.977 143.274 313.977 142.826V141.888L312.171 142.21C311.509 142.322 311.056 142.495 310.813 142.728C310.617 142.915 310.519 143.167 310.519 143.484C310.519 143.839 310.641 144.109 310.883 144.296C311.126 144.483 311.476 144.576 311.933 144.576ZM321.955 143.162H323.425C323.313 143.946 322.944 144.576 322.319 145.052C321.749 145.491 321.054 145.71 320.233 145.71C319.159 145.71 318.305 145.341 317.671 144.604C317.083 143.923 316.789 143.027 316.789 141.916C316.789 140.628 317.143 139.629 317.853 138.92C318.459 138.313 319.248 138.01 320.219 138.01C321.115 138.01 321.852 138.248 322.431 138.724C322.944 139.144 323.257 139.695 323.369 140.376H321.885C321.791 139.984 321.6 139.681 321.311 139.466C321.031 139.251 320.676 139.144 320.247 139.144C319.584 139.144 319.075 139.405 318.721 139.928C318.385 140.413 318.217 141.09 318.217 141.958C318.217 142.863 318.441 143.549 318.889 144.016C319.243 144.389 319.701 144.576 320.261 144.576C320.746 144.576 321.143 144.436 321.451 144.156C321.721 143.913 321.889 143.582 321.955 143.162ZM328.208 144.422V145.57C327.863 145.663 327.532 145.71 327.214 145.71C326.542 145.71 326.038 145.5 325.702 145.08C325.413 144.735 325.268 144.273 325.268 143.694V139.368H324.19V138.22H325.268L325.352 136.47H326.612V138.22H328.18V139.368H326.612V143.722C326.612 144.263 326.869 144.534 327.382 144.534C327.625 144.534 327.9 144.497 328.208 144.422ZM243.409 156.42H244.837V166.5H243.409V156.42ZM248.211 166.5H246.867V159.22H247.973L248.127 160.144C248.668 159.388 249.405 159.01 250.339 159.01C251.197 159.01 251.855 159.276 252.313 159.808C252.714 160.284 252.915 160.933 252.915 161.754V166.5H251.571V161.768C251.571 160.695 251.053 160.158 250.017 160.158C249.475 160.158 249.032 160.345 248.687 160.718C248.369 161.054 248.211 161.483 248.211 162.006V166.5ZM258.408 156.378V157.54C257.96 157.428 257.591 157.372 257.302 157.372C257.059 157.372 256.868 157.437 256.728 157.568C256.597 157.699 256.532 157.881 256.532 158.114V159.22H258.1V160.368H256.532V166.5H255.188V160.368H254.11V159.22H255.188V158.198C255.188 157.554 255.398 157.05 255.818 156.686C256.191 156.369 256.658 156.21 257.218 156.21C257.582 156.21 257.979 156.266 258.408 156.378ZM258.902 162.86C258.902 161.525 259.298 160.517 260.092 159.836C260.726 159.285 261.529 159.01 262.5 159.01C263.629 159.01 264.516 159.369 265.16 160.088C265.776 160.76 266.084 161.684 266.084 162.86C266.084 164.176 265.696 165.179 264.922 165.87C264.287 166.43 263.475 166.71 262.486 166.71C261.356 166.71 260.465 166.337 259.812 165.59C259.205 164.909 258.902 163.999 258.902 162.86ZM260.302 162.86C260.302 163.793 260.54 164.507 261.016 165.002C261.408 165.413 261.907 165.618 262.514 165.618C263.223 165.618 263.769 165.352 264.152 164.82C264.506 164.335 264.684 163.681 264.684 162.86C264.684 161.908 264.45 161.189 263.984 160.704C263.601 160.303 263.106 160.102 262.5 160.102C261.8 160.102 261.254 160.368 260.862 160.9C260.488 161.385 260.302 162.039 260.302 162.86ZM268.965 166.5H267.621V159.22H268.727L268.909 160.298C269.319 159.439 269.935 159.01 270.757 159.01C271.027 159.01 271.293 159.043 271.555 159.108V160.452C271.237 160.368 270.953 160.326 270.701 160.326C270.159 160.326 269.735 160.545 269.427 160.984C269.119 161.423 268.965 162.043 268.965 162.846V166.5ZM273.955 166.5H272.611V159.22H273.717L273.857 160.074C274.352 159.365 275.066 159.01 275.999 159.01C277.016 159.01 277.73 159.393 278.141 160.158C278.626 159.393 279.415 159.01 280.507 159.01C281.319 159.01 281.944 159.257 282.383 159.752C282.775 160.209 282.971 160.835 282.971 161.628V166.5H281.627V161.726C281.627 160.681 281.156 160.158 280.213 160.158C279.653 160.158 279.205 160.377 278.869 160.816C278.598 161.171 278.463 161.586 278.463 162.062V166.5H277.119V161.726C277.119 160.681 276.648 160.158 275.705 160.158C275.182 160.158 274.748 160.363 274.403 160.774C274.104 161.119 273.955 161.535 273.955 162.02V166.5ZM286.009 161.25H284.581C284.656 160.522 285.001 159.957 285.617 159.556C286.168 159.192 286.863 159.01 287.703 159.01C288.702 159.01 289.467 159.271 289.999 159.794C290.447 160.242 290.671 160.821 290.671 161.53V166.5H289.565L289.397 165.506C288.828 166.309 288.016 166.71 286.961 166.71C286.13 166.71 285.482 166.486 285.015 166.038C284.632 165.665 284.441 165.193 284.441 164.624C284.441 163.905 284.688 163.35 285.183 162.958C285.622 162.613 286.294 162.361 287.199 162.202L289.327 161.838V161.474C289.327 160.998 289.164 160.639 288.837 160.396C288.548 160.181 288.151 160.074 287.647 160.074C286.658 160.074 286.112 160.466 286.009 161.25ZM287.283 165.576C287.852 165.576 288.347 165.389 288.767 165.016C289.14 164.671 289.327 164.274 289.327 163.826V162.888L287.521 163.21C286.858 163.322 286.406 163.495 286.163 163.728C285.967 163.915 285.869 164.167 285.869 164.484C285.869 164.839 285.99 165.109 286.233 165.296C286.476 165.483 286.826 165.576 287.283 165.576ZM295.806 165.422V166.57C295.461 166.663 295.129 166.71 294.812 166.71C294.14 166.71 293.636 166.5 293.3 166.08C293.011 165.735 292.866 165.273 292.866 164.694V160.368H291.788V159.22H292.866L292.95 157.47H294.21V159.22H295.778V160.368H294.21V164.722C294.21 165.263 294.467 165.534 294.98 165.534C295.223 165.534 295.498 165.497 295.806 165.422ZM298.498 158.002H296.986V156.42H298.498V158.002ZM298.414 166.5H297.07V159.22H298.414V166.5ZM299.958 162.86C299.958 161.525 300.355 160.517 301.148 159.836C301.783 159.285 302.586 159.01 303.556 159.01C304.686 159.01 305.572 159.369 306.216 160.088C306.832 160.76 307.14 161.684 307.14 162.86C307.14 164.176 306.753 165.179 305.978 165.87C305.344 166.43 304.532 166.71 303.542 166.71C302.413 166.71 301.522 166.337 300.868 165.59C300.262 164.909 299.958 163.999 299.958 162.86ZM301.358 162.86C301.358 163.793 301.596 164.507 302.072 165.002C302.464 165.413 302.964 165.618 303.57 165.618C304.28 165.618 304.826 165.352 305.208 164.82C305.563 164.335 305.74 163.681 305.74 162.86C305.74 161.908 305.507 161.189 305.04 160.704C304.658 160.303 304.163 160.102 303.556 160.102C302.856 160.102 302.31 160.368 301.918 160.9C301.545 161.385 301.358 162.039 301.358 162.86ZM310.021 166.5H308.677V159.22H309.783L309.937 160.144C310.479 159.388 311.216 159.01 312.149 159.01C313.008 159.01 313.666 159.276 314.123 159.808C314.525 160.284 314.725 160.933 314.725 161.754V166.5H313.381V161.768C313.381 160.695 312.863 160.158 311.827 160.158C311.286 160.158 310.843 160.345 310.497 160.718C310.18 161.054 310.021 161.483 310.021 162.006V166.5Z" fill="white" fill-opacity="0.7"/>
<rect x="113" y="113.5" width="150" height="2" fill="white" fill-opacity="0.3"/>
<path d="M104 114.5C104 118.366 100.866 121.5 97 121.5C93.134 121.5 90 118.366 90 114.5C90 110.634 93.134 107.5 97 107.5C100.866 107.5 104 110.634 104 114.5Z" stroke="#3492EB" stroke-width="2"/>
<g clip-path="url(#clip1_2031_6197)">
<path d="M64.2004 145.5H62.6184L61.6244 142.952H56.8224L55.8144 145.5H54.3164L58.4604 135.42H60.0704L64.2004 145.5ZM59.2444 136.848L57.2844 141.79H61.1624L59.2444 136.848ZM69.4372 143.526C69.4372 143.115 69.2225 142.807 68.7932 142.602C68.5412 142.49 68.0512 142.35 67.3232 142.182C66.4272 141.986 65.7878 141.701 65.4052 141.328C65.0878 141.011 64.9292 140.595 64.9292 140.082C64.9292 139.401 65.2045 138.878 65.7552 138.514C66.2498 138.178 66.9172 138.01 67.7572 138.01C68.6252 138.01 69.3298 138.225 69.8712 138.654C70.3378 139.027 70.6272 139.522 70.7392 140.138H69.3672C69.2085 139.429 68.6672 139.074 67.7432 139.074C67.2298 139.074 66.8472 139.167 66.5952 139.354C66.3898 139.513 66.2872 139.713 66.2872 139.956C66.2872 140.255 66.3992 140.479 66.6232 140.628C66.8565 140.777 67.3092 140.927 67.9812 141.076C69.0078 141.3 69.7218 141.575 70.1232 141.902C70.5712 142.266 70.7952 142.775 70.7952 143.428C70.7952 144.156 70.4965 144.73 69.8992 145.15C69.3578 145.523 68.6438 145.71 67.7572 145.71C66.7865 145.71 66.0165 145.477 65.4472 145.01C64.9525 144.599 64.6772 144.067 64.6212 143.414H65.9932C66.1425 144.235 66.7352 144.646 67.7712 144.646C68.3312 144.646 68.7652 144.525 69.0732 144.282C69.3158 144.086 69.4372 143.834 69.4372 143.526ZM76.4919 143.526C76.4919 143.115 76.2772 142.807 75.8479 142.602C75.5959 142.49 75.1059 142.35 74.3779 142.182C73.4819 141.986 72.8425 141.701 72.4599 141.328C72.1425 141.011 71.9839 140.595 71.9839 140.082C71.9839 139.401 72.2592 138.878 72.8099 138.514C73.3045 138.178 73.9719 138.01 74.8119 138.01C75.6799 138.01 76.3845 138.225 76.9259 138.654C77.3925 139.027 77.6819 139.522 77.7939 140.138H76.4219C76.2632 139.429 75.7219 139.074 74.7979 139.074C74.2845 139.074 73.9019 139.167 73.6499 139.354C73.4445 139.513 73.3419 139.713 73.3419 139.956C73.3419 140.255 73.4539 140.479 73.6779 140.628C73.9112 140.777 74.3639 140.927 75.0359 141.076C76.0625 141.3 76.7765 141.575 77.1779 141.902C77.6259 142.266 77.8499 142.775 77.8499 143.428C77.8499 144.156 77.5512 144.73 76.9539 145.15C76.4125 145.523 75.6985 145.71 74.8119 145.71C73.8412 145.71 73.0712 145.477 72.5019 145.01C72.0072 144.599 71.7319 144.067 71.6759 143.414H73.0479C73.1972 144.235 73.7899 144.646 74.8259 144.646C75.3859 144.646 75.8199 144.525 76.1279 144.282C76.3705 144.086 76.4919 143.834 76.4919 143.526ZM80.8143 137.002H79.3023V135.42H80.8143V137.002ZM80.7303 145.5H79.3863V138.22H80.7303V145.5ZM82.6108 145.99H84.0528C84.1182 146.363 84.3048 146.653 84.6128 146.858C84.9302 147.063 85.3455 147.166 85.8588 147.166C86.5775 147.166 87.1142 146.979 87.4688 146.606C87.7675 146.289 87.9168 145.845 87.9168 145.276V144.338C87.3755 144.973 86.5682 145.29 85.4948 145.29C84.5242 145.29 83.7355 144.94 83.1288 144.24C82.5595 143.587 82.2748 142.737 82.2748 141.692C82.2748 140.479 82.6202 139.541 83.3108 138.878C83.8988 138.299 84.6548 138.01 85.5788 138.01C86.6242 138.01 87.4128 138.402 87.9448 139.186L88.1548 138.22H89.2608V145.346C89.2608 146.261 88.9295 146.979 88.2668 147.502C87.6695 147.987 86.8808 148.23 85.9008 148.23C84.8835 148.23 84.0855 148.001 83.5068 147.544C83.0215 147.161 82.7228 146.643 82.6108 145.99ZM83.6748 141.72C83.6748 142.513 83.9082 143.134 84.3748 143.582C84.7575 143.955 85.2288 144.142 85.7888 144.142C86.5262 144.142 87.0908 143.899 87.4828 143.414C87.8188 143.003 87.9868 142.453 87.9868 141.762C87.9868 140.875 87.7582 140.199 87.3008 139.732C86.9182 139.349 86.4142 139.158 85.7888 139.158C85.0982 139.158 84.5662 139.396 84.1928 139.872C83.8475 140.32 83.6748 140.936 83.6748 141.72ZM92.5701 145.5H91.2261V138.22H92.3321L92.4861 139.144C93.0274 138.388 93.7648 138.01 94.6981 138.01C95.5568 138.01 96.2148 138.276 96.6721 138.808C97.0734 139.284 97.2741 139.933 97.2741 140.754V145.5H95.9301V140.768C95.9301 139.695 95.4121 139.158 94.3761 139.158C93.8348 139.158 93.3914 139.345 93.0461 139.718C92.7288 140.054 92.5701 140.483 92.5701 141.006V145.5ZM103.367 135.42H104.795V142.252C104.795 142.989 105.047 143.559 105.551 143.96C105.999 144.324 106.601 144.506 107.357 144.506C108.225 144.506 108.887 144.268 109.345 143.792C109.727 143.4 109.919 142.887 109.919 142.252V135.42H111.305V142.126C111.305 143.302 110.894 144.217 110.073 144.87C109.373 145.43 108.463 145.71 107.343 145.71C106.045 145.71 105.033 145.341 104.305 144.604C103.679 143.969 103.367 143.143 103.367 142.126V135.42ZM117.521 143.526C117.521 143.115 117.306 142.807 116.877 142.602C116.625 142.49 116.135 142.35 115.407 142.182C114.511 141.986 113.872 141.701 113.489 141.328C113.172 141.011 113.013 140.595 113.013 140.082C113.013 139.401 113.288 138.878 113.839 138.514C114.334 138.178 115.001 138.01 115.841 138.01C116.709 138.01 117.414 138.225 117.955 138.654C118.422 139.027 118.711 139.522 118.823 140.138H117.451C117.292 139.429 116.751 139.074 115.827 139.074C115.314 139.074 114.931 139.167 114.679 139.354C114.474 139.513 114.371 139.713 114.371 139.956C114.371 140.255 114.483 140.479 114.707 140.628C114.94 140.777 115.393 140.927 116.065 141.076C117.092 141.3 117.806 141.575 118.207 141.902C118.655 142.266 118.879 142.775 118.879 143.428C118.879 144.156 118.58 144.73 117.983 145.15C117.442 145.523 116.728 145.71 115.841 145.71C114.87 145.71 114.1 145.477 113.531 145.01C113.036 144.599 112.761 144.067 112.705 143.414H114.077C114.226 144.235 114.819 144.646 115.855 144.646C116.415 144.646 116.849 144.525 117.157 144.282C117.4 144.086 117.521 143.834 117.521 143.526ZM125.372 143.4H126.828C126.622 144.137 126.216 144.716 125.61 145.136C125.04 145.519 124.359 145.71 123.566 145.71C122.418 145.71 121.522 145.346 120.878 144.618C120.29 143.937 119.996 143.017 119.996 141.86C119.996 140.544 120.369 139.545 121.116 138.864C121.732 138.295 122.525 138.01 123.496 138.01C124.634 138.01 125.493 138.379 126.072 139.116C126.632 139.825 126.912 140.838 126.912 142.154H121.368C121.424 143.013 121.685 143.652 122.152 144.072C122.534 144.408 123.02 144.576 123.608 144.576C124.065 144.576 124.462 144.45 124.798 144.198C125.078 143.983 125.269 143.717 125.372 143.4ZM123.524 139.088C122.926 139.088 122.446 139.275 122.082 139.648C121.736 139.993 121.517 140.474 121.424 141.09H125.54C125.493 140.39 125.26 139.867 124.84 139.522C124.504 139.233 124.065 139.088 123.524 139.088ZM129.867 145.5H128.523V138.22H129.629L129.811 139.298C130.222 138.439 130.838 138.01 131.659 138.01C131.93 138.01 132.196 138.043 132.457 138.108V139.452C132.14 139.368 131.855 139.326 131.603 139.326C131.062 139.326 130.637 139.545 130.329 139.984C130.021 140.423 129.867 141.043 129.867 141.846V145.5ZM137.769 143.526C137.769 143.115 137.555 142.807 137.125 142.602C136.873 142.49 136.383 142.35 135.655 142.182C134.759 141.986 134.12 141.701 133.737 141.328C133.42 141.011 133.261 140.595 133.261 140.082C133.261 139.401 133.537 138.878 134.087 138.514C134.582 138.178 135.249 138.01 136.089 138.01C136.957 138.01 137.662 138.225 138.203 138.654C138.67 139.027 138.959 139.522 139.071 140.138H137.699C137.541 139.429 136.999 139.074 136.075 139.074C135.562 139.074 135.179 139.167 134.927 139.354C134.722 139.513 134.619 139.713 134.619 139.956C134.619 140.255 134.731 140.479 134.955 140.628C135.189 140.777 135.641 140.927 136.313 141.076C137.34 141.3 138.054 141.575 138.455 141.902C138.903 142.266 139.127 142.775 139.127 143.428C139.127 144.156 138.829 144.73 138.231 145.15C137.69 145.523 136.976 145.71 136.089 145.71C135.119 145.71 134.349 145.477 133.779 145.01C133.285 144.599 133.009 144.067 132.953 143.414H134.325C134.475 144.235 135.067 144.646 136.103 144.646C136.663 144.646 137.097 144.525 137.405 144.282C137.648 144.086 137.769 143.834 137.769 143.526Z" fill="white" fill-opacity="0.7"/>
</g>
<path d="M0 240H559C559 252.703 548.703 263 536 263H23C10.2975 263 0 252.703 0 240Z" fill="url(#paint0_linear_2031_6197)"/>
<defs>
<linearGradient id="paint0_linear_2031_6197" x1="279.5" y1="240" x2="279.5" y2="263" gradientUnits="userSpaceOnUse">
<stop stop-color="#F0677E"/>
<stop offset="1" stop-color="#DB1F2E"/>
</linearGradient>
<clipPath id="clip0_2031_6197">
<rect width="160" height="21" fill="white" transform="translate(381 130.5)"/>
</clipPath>
<clipPath id="clip1_2031_6197">
<rect width="160" height="21" fill="white" transform="translate(17 130.5)"/>
</clipPath>
</defs>
</svg>
