<svg width="559" height="279" viewBox="0 0 559 279" fill="none" xmlns="http://www.w3.org/2000/svg">
<rect width="559" height="279" rx="16" fill="#1A1A1A"/>
<path d="M97.5 80V114" stroke="#DA0087"/>
<path d="M97.5 122L93.5 114H101.5L97.5 122Z" fill="#DA0087"/>
<rect x="24" y="60" width="147" height="28" rx="14" fill="#DA0087"/>
<path d="M46.7727 72H45.3636C45.2803 71.5947 45.1345 71.2386 44.9261 70.9318C44.7216 70.625 44.4716 70.3674 44.1761 70.1591C43.8845 69.947 43.5606 69.7879 43.2045 69.6818C42.8485 69.5758 42.4773 69.5227 42.0909 69.5227C41.3864 69.5227 40.7481 69.7008 40.1761 70.0568C39.608 70.4129 39.1553 70.9375 38.8182 71.6307C38.4848 72.3239 38.3182 73.1742 38.3182 74.1818C38.3182 75.1894 38.4848 76.0398 38.8182 76.733C39.1553 77.4261 39.608 77.9508 40.1761 78.3068C40.7481 78.6629 41.3864 78.8409 42.0909 78.8409C42.4773 78.8409 42.8485 78.7879 43.2045 78.6818C43.5606 78.5758 43.8845 78.4186 44.1761 78.2102C44.4716 77.9981 44.7216 77.7386 44.9261 77.4318C45.1345 77.1212 45.2803 76.7652 45.3636 76.3636H46.7727C46.6667 76.9583 46.4735 77.4905 46.1932 77.9602C45.9129 78.4299 45.5644 78.8295 45.1477 79.1591C44.7311 79.4848 44.2633 79.733 43.7443 79.9034C43.2292 80.0739 42.678 80.1591 42.0909 80.1591C41.0985 80.1591 40.2159 79.9167 39.4432 79.4318C38.6705 78.947 38.0625 78.2576 37.6193 77.3636C37.1761 76.4697 36.9545 75.4091 36.9545 74.1818C36.9545 72.9545 37.1761 71.8939 37.6193 71C38.0625 70.1061 38.6705 69.4167 39.4432 68.9318C40.2159 68.447 41.0985 68.2045 42.0909 68.2045C42.678 68.2045 43.2292 68.2898 43.7443 68.4602C44.2633 68.6307 44.7311 68.8807 45.1477 69.2102C45.5644 69.536 45.9129 69.9337 46.1932 70.4034C46.4735 70.8693 46.6667 71.4015 46.7727 72ZM52.4134 80.1818C51.6255 80.1818 50.9342 79.9943 50.3395 79.6193C49.7486 79.2443 49.2865 78.7197 48.9531 78.0455C48.6236 77.3712 48.4588 76.5833 48.4588 75.6818C48.4588 74.7727 48.6236 73.9792 48.9531 73.3011C49.2865 72.6231 49.7486 72.0966 50.3395 71.7216C50.9342 71.3466 51.6255 71.1591 52.4134 71.1591C53.2012 71.1591 53.8906 71.3466 54.4815 71.7216C55.0762 72.0966 55.5384 72.6231 55.8679 73.3011C56.2012 73.9792 56.3679 74.7727 56.3679 75.6818C56.3679 76.5833 56.2012 77.3712 55.8679 78.0455C55.5384 78.7197 55.0762 79.2443 54.4815 79.6193C53.8906 79.9943 53.2012 80.1818 52.4134 80.1818ZM52.4134 78.9773C53.0118 78.9773 53.5043 78.8239 53.8906 78.517C54.277 78.2102 54.563 77.8068 54.7486 77.3068C54.9342 76.8068 55.027 76.2652 55.027 75.6818C55.027 75.0985 54.9342 74.5549 54.7486 74.0511C54.563 73.5473 54.277 73.1402 53.8906 72.8295C53.5043 72.5189 53.0118 72.3636 52.4134 72.3636C51.8149 72.3636 51.3224 72.5189 50.9361 72.8295C50.5497 73.1402 50.2637 73.5473 50.0781 74.0511C49.8925 74.5549 49.7997 75.0985 49.7997 75.6818C49.7997 76.2652 49.8925 76.8068 50.0781 77.3068C50.2637 77.8068 50.5497 78.2102 50.9361 78.517C51.3224 78.8239 51.8149 78.9773 52.4134 78.9773ZM58.4148 80V71.2727H59.7102V72.6364H59.8239C60.0057 72.1705 60.2992 71.8087 60.7045 71.5511C61.1098 71.2898 61.5966 71.1591 62.1648 71.1591C62.7405 71.1591 63.2197 71.2898 63.6023 71.5511C63.9886 71.8087 64.2898 72.1705 64.5057 72.6364H64.5966C64.8201 72.1856 65.1553 71.8277 65.6023 71.5625C66.0492 71.2936 66.5852 71.1591 67.2102 71.1591C67.9905 71.1591 68.6288 71.4034 69.125 71.892C69.6212 72.3769 69.8693 73.1326 69.8693 74.1591V80H68.5284V74.1591C68.5284 73.5152 68.3523 73.0549 68 72.7784C67.6477 72.5019 67.233 72.3636 66.7557 72.3636C66.142 72.3636 65.6667 72.5492 65.3295 72.9205C64.9924 73.2879 64.8239 73.7538 64.8239 74.3182V80H63.4602V74.0227C63.4602 73.5265 63.2992 73.1269 62.9773 72.8239C62.6553 72.517 62.2405 72.3636 61.733 72.3636C61.3845 72.3636 61.0587 72.4564 60.7557 72.642C60.4564 72.8277 60.214 73.0852 60.0284 73.4148C59.8466 73.7405 59.7557 74.1174 59.7557 74.5455V80H58.4148ZM72.321 83.2727V71.2727H73.6165V72.6591H73.7756C73.8741 72.5076 74.0104 72.3144 74.1847 72.0795C74.3627 71.8409 74.6165 71.6288 74.946 71.4432C75.2794 71.2538 75.7301 71.1591 76.2983 71.1591C77.0331 71.1591 77.6809 71.3428 78.2415 71.7102C78.8021 72.0777 79.2396 72.5985 79.554 73.2727C79.8684 73.947 80.0256 74.7424 80.0256 75.6591C80.0256 76.5833 79.8684 77.3845 79.554 78.0625C79.2396 78.7367 78.804 79.2595 78.2472 79.6307C77.6903 79.9981 77.0483 80.1818 76.321 80.1818C75.7604 80.1818 75.3116 80.089 74.9744 79.9034C74.6373 79.714 74.3778 79.5 74.196 79.2614C74.0142 79.0189 73.8741 78.8182 73.7756 78.6591H73.6619V83.2727H72.321ZM73.6392 75.6364C73.6392 76.2955 73.7358 76.8769 73.929 77.3807C74.1222 77.8807 74.4044 78.2727 74.7756 78.5568C75.1468 78.8371 75.6013 78.9773 76.1392 78.9773C76.6998 78.9773 77.1676 78.8295 77.5426 78.5341C77.9214 78.2348 78.2055 77.8333 78.3949 77.3295C78.5881 76.822 78.6847 76.2576 78.6847 75.6364C78.6847 75.0227 78.59 74.4697 78.4006 73.9773C78.215 73.4811 77.9328 73.089 77.554 72.8011C77.179 72.5095 76.7074 72.3636 76.1392 72.3636C75.5938 72.3636 75.1354 72.5019 74.7642 72.7784C74.393 73.0511 74.1127 73.4337 73.9233 73.9261C73.7339 74.4148 73.6392 74.9848 73.6392 75.6364ZM83.4119 68.3636V80H82.071V68.3636H83.4119ZM89.527 80.1818C88.6861 80.1818 87.9607 79.9962 87.3509 79.625C86.7448 79.25 86.277 78.7273 85.9474 78.0568C85.6217 77.3826 85.4588 76.5985 85.4588 75.7045C85.4588 74.8106 85.6217 74.0227 85.9474 73.3409C86.277 72.6553 86.7353 72.1212 87.3224 71.7386C87.9134 71.3523 88.6027 71.1591 89.3906 71.1591C89.8452 71.1591 90.294 71.2348 90.7372 71.3864C91.1804 71.5379 91.5838 71.7841 91.9474 72.125C92.3111 72.4621 92.6009 72.9091 92.8168 73.4659C93.0327 74.0227 93.1406 74.7083 93.1406 75.5227V76.0909H86.4134V74.9318H91.777C91.777 74.4394 91.6785 74 91.4815 73.6136C91.2884 73.2273 91.0118 72.9223 90.652 72.6989C90.2959 72.4754 89.8755 72.3636 89.3906 72.3636C88.8565 72.3636 88.3944 72.4962 88.0043 72.7614C87.6179 73.0227 87.3205 73.3636 87.1122 73.7841C86.9039 74.2045 86.7997 74.6553 86.7997 75.1364V75.9091C86.7997 76.5682 86.9134 77.1269 87.1406 77.5852C87.3717 78.0398 87.6918 78.3864 88.1009 78.625C88.5099 78.8598 88.9853 78.9773 89.527 78.9773C89.8793 78.9773 90.1974 78.928 90.4815 78.8295C90.7694 78.7273 91.0175 78.5758 91.2259 78.375C91.4342 78.1705 91.5952 77.9167 91.7088 77.6136L93.0043 77.9773C92.8679 78.4167 92.6387 78.803 92.3168 79.1364C91.9948 79.4659 91.5971 79.7235 91.1236 79.9091C90.6501 80.0909 90.1179 80.1818 89.527 80.1818ZM98.9759 71.2727V72.4091H94.4531V71.2727H98.9759ZM95.7713 69.1818H97.1122V77.5C97.1122 77.8788 97.1671 78.1629 97.277 78.3523C97.3906 78.5379 97.5346 78.6629 97.7088 78.7273C97.8868 78.7879 98.0743 78.8182 98.2713 78.8182C98.419 78.8182 98.5402 78.8106 98.6349 78.7955C98.7296 78.7765 98.8054 78.7614 98.8622 78.75L99.1349 79.9545C99.044 79.9886 98.9171 80.0227 98.7543 80.0568C98.5914 80.0947 98.3849 80.1136 98.1349 80.1136C97.7562 80.1136 97.3849 80.0322 97.0213 79.8693C96.6615 79.7064 96.3622 79.4583 96.1236 79.125C95.8887 78.7917 95.7713 78.3712 95.7713 77.8636V69.1818ZM104.558 80.1818C103.717 80.1818 102.992 79.9962 102.382 79.625C101.776 79.25 101.308 78.7273 100.979 78.0568C100.653 77.3826 100.49 76.5985 100.49 75.7045C100.49 74.8106 100.653 74.0227 100.979 73.3409C101.308 72.6553 101.767 72.1212 102.354 71.7386C102.945 71.3523 103.634 71.1591 104.422 71.1591C104.876 71.1591 105.325 71.2348 105.768 71.3864C106.212 71.5379 106.615 71.7841 106.979 72.125C107.342 72.4621 107.632 72.9091 107.848 73.4659C108.064 74.0227 108.172 74.7083 108.172 75.5227V76.0909H101.445V74.9318H106.808C106.808 74.4394 106.71 74 106.513 73.6136C106.32 73.2273 106.043 72.9223 105.683 72.6989C105.327 72.4754 104.907 72.3636 104.422 72.3636C103.888 72.3636 103.426 72.4962 103.036 72.7614C102.649 73.0227 102.352 73.3636 102.143 73.7841C101.935 74.2045 101.831 74.6553 101.831 75.1364V75.9091C101.831 76.5682 101.945 77.1269 102.172 77.5852C102.403 78.0398 102.723 78.3864 103.132 78.625C103.541 78.8598 104.017 78.9773 104.558 78.9773C104.911 78.9773 105.229 78.928 105.513 78.8295C105.801 78.7273 106.049 78.5758 106.257 78.375C106.465 78.1705 106.626 77.9167 106.74 77.6136L108.036 77.9773C107.899 78.4167 107.67 78.803 107.348 79.1364C107.026 79.4659 106.628 79.7235 106.155 79.9091C105.681 80.0909 105.149 80.1818 104.558 80.1818ZM113.507 80.1818C112.78 80.1818 112.138 79.9981 111.581 79.6307C111.024 79.2595 110.589 78.7367 110.274 78.0625C109.96 77.3845 109.803 76.5833 109.803 75.6591C109.803 74.7424 109.96 73.947 110.274 73.2727C110.589 72.5985 111.026 72.0777 111.587 71.7102C112.147 71.3428 112.795 71.1591 113.53 71.1591C114.098 71.1591 114.547 71.2538 114.876 71.4432C115.21 71.6288 115.464 71.8409 115.638 72.0795C115.816 72.3144 115.954 72.5076 116.053 72.6591H116.166V68.3636H117.507V80H116.212V78.6591H116.053C115.954 78.8182 115.814 79.0189 115.632 79.2614C115.45 79.5 115.191 79.714 114.854 79.9034C114.517 80.089 114.068 80.1818 113.507 80.1818ZM113.689 78.9773C114.227 78.9773 114.681 78.8371 115.053 78.5568C115.424 78.2727 115.706 77.8807 115.899 77.3807C116.092 76.8769 116.189 76.2955 116.189 75.6364C116.189 74.9848 116.094 74.4148 115.905 73.9261C115.715 73.4337 115.435 73.0511 115.064 72.7784C114.693 72.5019 114.234 72.3636 113.689 72.3636C113.121 72.3636 112.647 72.5095 112.268 72.8011C111.893 73.089 111.611 73.4811 111.422 73.9773C111.236 74.4697 111.143 75.0227 111.143 75.6364C111.143 76.2576 111.238 76.822 111.428 77.3295C111.621 77.8333 111.905 78.2348 112.28 78.5341C112.659 78.8295 113.128 78.9773 113.689 78.9773ZM131.195 71.2727C131.126 70.697 130.85 70.25 130.365 69.9318C129.88 69.6136 129.286 69.4545 128.581 69.4545C128.066 69.4545 127.615 69.5379 127.229 69.7045C126.846 69.8712 126.547 70.1004 126.331 70.392C126.119 70.6837 126.013 71.0152 126.013 71.3864C126.013 71.697 126.087 71.964 126.234 72.1875C126.386 72.4072 126.579 72.5909 126.814 72.7386C127.049 72.8826 127.295 73.0019 127.553 73.0966C127.81 73.1875 128.047 73.2614 128.263 73.3182L129.445 73.6364C129.748 73.7159 130.085 73.8258 130.456 73.9659C130.831 74.1061 131.189 74.2973 131.53 74.5398C131.875 74.7784 132.159 75.0852 132.382 75.4602C132.606 75.8352 132.717 76.2955 132.717 76.8409C132.717 77.4697 132.553 78.0379 132.223 78.5455C131.897 79.053 131.42 79.4564 130.791 79.7557C130.166 80.0549 129.407 80.2045 128.513 80.2045C127.679 80.2045 126.958 80.0701 126.348 79.8011C125.742 79.5322 125.265 79.1572 124.916 78.6761C124.571 78.1951 124.376 77.6364 124.331 77H125.786C125.823 77.4394 125.971 77.803 126.229 78.0909C126.49 78.375 126.82 78.5871 127.217 78.7273C127.619 78.8636 128.051 78.9318 128.513 78.9318C129.051 78.9318 129.534 78.8447 129.962 78.6705C130.39 78.4924 130.729 78.2462 130.979 77.9318C131.229 77.6136 131.354 77.2424 131.354 76.8182C131.354 76.4318 131.246 76.1174 131.03 75.875C130.814 75.6326 130.53 75.4356 130.178 75.2841C129.825 75.1326 129.445 75 129.036 74.8864L127.604 74.4773C126.695 74.2159 125.975 73.8428 125.445 73.358C124.914 72.8731 124.649 72.2386 124.649 71.4545C124.649 70.803 124.825 70.2348 125.178 69.75C125.534 69.2614 126.011 68.8826 126.609 68.6136C127.212 68.3409 127.884 68.2045 128.626 68.2045C129.376 68.2045 130.043 68.339 130.626 68.608C131.21 68.8731 131.672 69.2367 132.013 69.6989C132.357 70.161 132.539 70.6856 132.558 71.2727H131.195ZM138.648 71.2727V72.4091H134.125V71.2727H138.648ZM135.443 69.1818H136.784V77.5C136.784 77.8788 136.839 78.1629 136.949 78.3523C137.063 78.5379 137.206 78.6629 137.381 78.7273C137.559 78.7879 137.746 78.8182 137.943 78.8182C138.091 78.8182 138.212 78.8106 138.307 78.7955C138.402 78.7765 138.477 78.7614 138.534 78.75L138.807 79.9545C138.716 79.9886 138.589 80.0227 138.426 80.0568C138.263 80.0947 138.057 80.1136 137.807 80.1136C137.428 80.1136 137.057 80.0322 136.693 79.8693C136.333 79.7064 136.034 79.4583 135.795 79.125C135.561 78.7917 135.443 78.3712 135.443 77.8636V69.1818ZM144.23 80.1818C143.389 80.1818 142.664 79.9962 142.054 79.625C141.448 79.25 140.98 78.7273 140.651 78.0568C140.325 77.3826 140.162 76.5985 140.162 75.7045C140.162 74.8106 140.325 74.0227 140.651 73.3409C140.98 72.6553 141.438 72.1212 142.026 71.7386C142.616 71.3523 143.306 71.1591 144.094 71.1591C144.548 71.1591 144.997 71.2348 145.44 71.3864C145.884 71.5379 146.287 71.7841 146.651 72.125C147.014 72.4621 147.304 72.9091 147.52 73.4659C147.736 74.0227 147.844 74.7083 147.844 75.5227V76.0909H141.116V74.9318H146.48C146.48 74.4394 146.382 74 146.185 73.6136C145.991 73.2273 145.715 72.9223 145.355 72.6989C144.999 72.4754 144.579 72.3636 144.094 72.3636C143.56 72.3636 143.098 72.4962 142.707 72.7614C142.321 73.0227 142.024 73.3636 141.815 73.7841C141.607 74.2045 141.503 74.6553 141.503 75.1364V75.9091C141.503 76.5682 141.616 77.1269 141.844 77.5852C142.075 78.0398 142.395 78.3864 142.804 78.625C143.213 78.8598 143.688 78.9773 144.23 78.9773C144.582 78.9773 144.901 78.928 145.185 78.8295C145.473 78.7273 145.721 78.5758 145.929 78.375C146.137 78.1705 146.298 77.9167 146.412 77.6136L147.707 77.9773C147.571 78.4167 147.342 78.803 147.02 79.1364C146.698 79.4659 146.3 79.7235 145.827 79.9091C145.353 80.0909 144.821 80.1818 144.23 80.1818ZM149.884 83.2727V71.2727H151.179V72.6591H151.338C151.437 72.5076 151.573 72.3144 151.747 72.0795C151.925 71.8409 152.179 71.6288 152.509 71.4432C152.842 71.2538 153.293 71.1591 153.861 71.1591C154.596 71.1591 155.243 71.3428 155.804 71.7102C156.365 72.0777 156.802 72.5985 157.116 73.2727C157.431 73.947 157.588 74.7424 157.588 75.6591C157.588 76.5833 157.431 77.3845 157.116 78.0625C156.802 78.7367 156.366 79.2595 155.81 79.6307C155.253 79.9981 154.611 80.1818 153.884 80.1818C153.323 80.1818 152.874 80.089 152.537 79.9034C152.2 79.714 151.94 79.5 151.759 79.2614C151.577 79.0189 151.437 78.8182 151.338 78.6591H151.224V83.2727H149.884ZM151.202 75.6364C151.202 76.2955 151.298 76.8769 151.491 77.3807C151.685 77.8807 151.967 78.2727 152.338 78.5568C152.709 78.8371 153.164 78.9773 153.702 78.9773C154.262 78.9773 154.73 78.8295 155.105 78.5341C155.484 78.2348 155.768 77.8333 155.957 77.3295C156.151 76.822 156.247 76.2576 156.247 75.6364C156.247 75.0227 156.152 74.4697 155.963 73.9773C155.777 73.4811 155.495 73.089 155.116 72.8011C154.741 72.5095 154.27 72.3636 153.702 72.3636C153.156 72.3636 152.698 72.5019 152.327 72.7784C151.955 73.0511 151.675 73.4337 151.486 73.9261C151.296 74.4148 151.202 74.9848 151.202 75.6364Z" fill="white" fill-opacity="0.95"/>
<path d="M104.5 136C104.5 139.866 101.366 143 97.5 143C93.634 143 90.5 139.866 90.5 136C90.5 132.134 93.634 129 97.5 129C101.366 129 104.5 132.134 104.5 136Z" stroke="#64B4FA" stroke-width="2"/>
<g clip-path="url(#clip0_2031_6140)">
<path d="M80.7681 167V156.818H82.0011V165.906H86.734V167H80.7681ZM90.7312 167.179C90.2473 167.179 89.8081 167.088 89.4137 166.906C89.0193 166.72 88.7061 166.453 88.4741 166.105C88.2421 165.754 88.1261 165.33 88.1261 164.832C88.1261 164.395 88.2122 164.04 88.3846 163.768C88.5569 163.493 88.7873 163.278 89.0756 163.122C89.364 162.966 89.6822 162.85 90.0302 162.774C90.3815 162.695 90.7345 162.632 91.0891 162.585C91.5531 162.526 91.9293 162.481 92.2177 162.451C92.5094 162.418 92.7215 162.363 92.854 162.287C92.9899 162.211 93.0579 162.078 93.0579 161.889V161.849C93.0579 161.359 92.9237 160.978 92.6552 160.706C92.39 160.434 91.9873 160.298 91.4471 160.298C90.887 160.298 90.4478 160.421 90.1296 160.666C89.8114 160.911 89.5877 161.173 89.4585 161.452L88.3448 161.054C88.5437 160.59 88.8088 160.229 89.1403 159.97C89.475 159.708 89.8396 159.526 90.234 159.423C90.6317 159.317 91.0228 159.264 91.4073 159.264C91.6526 159.264 91.9343 159.294 92.2525 159.354C92.574 159.41 92.8839 159.528 93.1822 159.707C93.4838 159.886 93.734 160.156 93.9329 160.517C94.1317 160.878 94.2312 161.362 94.2312 161.969V167H93.0579V165.966H92.9982C92.9187 166.132 92.7861 166.309 92.6005 166.498C92.4149 166.687 92.168 166.848 91.8597 166.98C91.5515 167.113 91.1753 167.179 90.7312 167.179ZM90.9102 166.125C91.3742 166.125 91.7653 166.034 92.0835 165.852C92.4049 165.669 92.6469 165.434 92.8093 165.146C92.975 164.857 93.0579 164.554 93.0579 164.236V163.162C93.0082 163.222 92.8988 163.276 92.7298 163.326C92.564 163.372 92.3718 163.414 92.1531 163.45C91.9376 163.483 91.7272 163.513 91.5217 163.54C91.3195 163.563 91.1554 163.583 91.0295 163.599C90.7246 163.639 90.4395 163.704 90.1744 163.793C89.9125 163.879 89.7004 164.01 89.538 164.186C89.3789 164.358 89.2994 164.594 89.2994 164.892C89.2994 165.3 89.4502 165.608 89.7518 165.817C90.0567 166.022 90.4428 166.125 90.9102 166.125ZM96.5318 167V156.818H97.7051V160.577H97.8045C97.8907 160.444 98.01 160.275 98.1625 160.07C98.3182 159.861 98.5403 159.675 98.8287 159.513C99.1203 159.347 99.5147 159.264 100.012 159.264C100.655 159.264 101.222 159.425 101.712 159.746C102.203 160.068 102.586 160.524 102.861 161.114C103.136 161.704 103.273 162.4 103.273 163.202C103.273 164.01 103.136 164.711 102.861 165.305C102.586 165.895 102.204 166.352 101.717 166.677C101.23 166.998 100.668 167.159 100.032 167.159C99.5413 167.159 99.1485 167.078 98.8535 166.915C98.5585 166.75 98.3315 166.562 98.1724 166.354C98.0133 166.142 97.8907 165.966 97.8045 165.827H97.6653V167H96.5318ZM97.6852 163.182C97.6852 163.759 97.7697 164.267 97.9387 164.708C98.1078 165.146 98.3547 165.489 98.6795 165.737C99.0043 165.982 99.402 166.105 99.8727 166.105C100.363 166.105 100.773 165.976 101.101 165.717C101.432 165.455 101.681 165.104 101.846 164.663C102.015 164.219 102.1 163.725 102.1 163.182C102.1 162.645 102.017 162.161 101.851 161.73C101.689 161.296 101.442 160.953 101.111 160.701C100.782 160.446 100.37 160.318 99.8727 160.318C99.3954 160.318 98.9944 160.439 98.6696 160.681C98.3448 160.92 98.0995 161.254 97.9338 161.685C97.7681 162.113 97.6852 162.612 97.6852 163.182ZM108.27 167.159C107.534 167.159 106.899 166.997 106.366 166.672C105.835 166.344 105.426 165.886 105.138 165.3C104.853 164.71 104.71 164.024 104.71 163.241C104.71 162.459 104.853 161.77 105.138 161.173C105.426 160.573 105.827 160.106 106.341 159.771C106.858 159.433 107.461 159.264 108.15 159.264C108.548 159.264 108.941 159.33 109.329 159.463C109.716 159.596 110.069 159.811 110.388 160.109C110.706 160.404 110.959 160.795 111.148 161.283C111.337 161.77 111.432 162.37 111.432 163.082V163.58H105.545V162.565H110.238C110.238 162.134 110.152 161.75 109.98 161.412C109.811 161.074 109.569 160.807 109.254 160.612C108.943 160.416 108.575 160.318 108.15 160.318C107.683 160.318 107.279 160.434 106.937 160.666C106.599 160.895 106.339 161.193 106.157 161.561C105.974 161.929 105.883 162.323 105.883 162.744V163.42C105.883 163.997 105.983 164.486 106.182 164.887C106.384 165.285 106.664 165.588 107.022 165.797C107.38 166.002 107.796 166.105 108.27 166.105C108.578 166.105 108.856 166.062 109.105 165.976C109.357 165.886 109.574 165.754 109.756 165.578C109.939 165.399 110.079 165.177 110.179 164.912L111.312 165.23C111.193 165.615 110.992 165.953 110.711 166.244C110.429 166.533 110.081 166.758 109.667 166.92C109.252 167.08 108.787 167.159 108.27 167.159ZM114.39 156.818V167H113.216V156.818H114.39Z" fill="white" fill-opacity="0.7"/>
</g>
<rect x="113.5" y="135" width="150" height="2" fill="#8F8F8F"/>
<path d="M286.5 136C286.5 139.866 283.366 143 279.5 143C275.634 143 272.5 139.866 272.5 136C272.5 132.134 275.634 129 279.5 129C283.366 129 286.5 132.134 286.5 136Z" stroke="#64B4FA" stroke-width="2"/>
<g clip-path="url(#clip1_2031_6140)">
<path d="M229.372 160.493C229.319 160.022 229.1 159.658 228.716 159.399C228.331 159.137 227.847 159.006 227.264 159.006C226.847 159.006 226.485 159.073 226.18 159.205C225.875 159.335 225.638 159.513 225.469 159.742C225.304 159.968 225.221 160.224 225.221 160.513C225.221 160.755 225.277 160.964 225.39 161.139C225.506 161.315 225.657 161.462 225.842 161.582C226.031 161.698 226.233 161.795 226.449 161.875C226.664 161.951 226.871 162.014 227.07 162.064L228.065 162.322C228.389 162.402 228.722 162.51 229.064 162.646C229.405 162.781 229.722 162.96 230.013 163.183C230.305 163.405 230.54 163.68 230.719 164.008C230.902 164.336 230.993 164.729 230.993 165.186C230.993 165.763 230.844 166.275 230.545 166.722C230.25 167.17 229.821 167.523 229.258 167.781C228.698 168.04 228.02 168.169 227.224 168.169C226.462 168.169 225.802 168.048 225.246 167.806C224.689 167.564 224.253 167.221 223.938 166.777C223.623 166.33 223.449 165.799 223.416 165.186H224.957C224.987 165.554 225.106 165.861 225.315 166.106C225.527 166.348 225.797 166.528 226.126 166.648C226.457 166.764 226.82 166.822 227.214 166.822C227.649 166.822 228.035 166.754 228.373 166.618C228.714 166.479 228.983 166.286 229.178 166.041C229.374 165.793 229.472 165.503 229.472 165.171C229.472 164.87 229.385 164.623 229.213 164.43C229.044 164.238 228.814 164.079 228.522 163.953C228.234 163.827 227.907 163.716 227.543 163.62L226.339 163.292C225.524 163.07 224.878 162.743 224.4 162.312C223.927 161.882 223.69 161.312 223.69 160.602C223.69 160.016 223.849 159.504 224.167 159.066C224.485 158.629 224.916 158.289 225.459 158.047C226.003 157.802 226.616 157.679 227.299 157.679C227.988 157.679 228.597 157.8 229.123 158.042C229.654 158.284 230.071 158.617 230.376 159.041C230.681 159.462 230.84 159.946 230.854 160.493H229.372ZM236.274 160.364V161.557H232.103V160.364H236.274ZM233.221 158.534H234.708V165.758C234.708 166.046 234.751 166.263 234.837 166.409C234.923 166.552 235.034 166.649 235.17 166.702C235.309 166.752 235.46 166.777 235.623 166.777C235.742 166.777 235.846 166.769 235.936 166.752C236.025 166.736 236.095 166.722 236.145 166.712L236.413 167.94C236.327 167.973 236.204 168.007 236.045 168.04C235.886 168.076 235.687 168.096 235.449 168.099C235.057 168.106 234.693 168.036 234.355 167.891C234.017 167.745 233.743 167.519 233.535 167.214C233.326 166.91 233.221 166.527 233.221 166.066V158.534ZM241.127 168.154C240.375 168.154 239.727 167.993 239.184 167.672C238.643 167.347 238.226 166.891 237.931 166.305C237.639 165.715 237.493 165.024 237.493 164.232C237.493 163.449 237.639 162.76 237.931 162.163C238.226 161.567 238.637 161.101 239.164 160.766C239.694 160.432 240.314 160.264 241.023 160.264C241.454 160.264 241.871 160.335 242.276 160.478C242.68 160.621 243.043 160.844 243.365 161.149C243.686 161.454 243.94 161.85 244.125 162.337C244.311 162.821 244.404 163.41 244.404 164.102V164.629H238.333V163.516H242.947C242.947 163.125 242.867 162.778 242.708 162.477C242.549 162.172 242.326 161.931 242.037 161.756C241.752 161.58 241.417 161.492 241.033 161.492C240.615 161.492 240.251 161.595 239.939 161.8C239.631 162.003 239.392 162.268 239.223 162.596C239.058 162.921 238.975 163.274 238.975 163.655V164.525C238.975 165.035 239.064 165.469 239.243 165.827C239.425 166.185 239.679 166.459 240.004 166.648C240.329 166.833 240.708 166.926 241.142 166.926C241.424 166.926 241.681 166.886 241.913 166.807C242.145 166.724 242.345 166.601 242.514 166.439C242.684 166.277 242.813 166.076 242.902 165.837L244.309 166.091C244.197 166.505 243.994 166.868 243.703 167.18C243.414 167.488 243.051 167.728 242.614 167.901C242.18 168.07 241.684 168.154 241.127 168.154ZM246.053 170.864V160.364H247.505V161.602H247.629C247.715 161.442 247.839 161.259 248.002 161.05C248.164 160.841 248.39 160.659 248.678 160.503C248.966 160.344 249.348 160.264 249.821 160.264C250.438 160.264 250.988 160.42 251.472 160.732C251.956 161.043 252.335 161.492 252.611 162.079C252.889 162.665 253.028 163.371 253.028 164.197C253.028 165.022 252.891 165.73 252.616 166.32C252.34 166.906 251.963 167.359 251.482 167.677C251.001 167.992 250.453 168.149 249.836 168.149C249.372 168.149 248.993 168.071 248.698 167.915C248.406 167.76 248.178 167.577 248.012 167.369C247.846 167.16 247.718 166.974 247.629 166.812H247.54V170.864H246.053ZM247.51 164.182C247.51 164.719 247.588 165.189 247.743 165.594C247.899 165.998 248.124 166.315 248.419 166.543C248.714 166.769 249.076 166.881 249.503 166.881C249.947 166.881 250.319 166.764 250.617 166.528C250.915 166.29 251.141 165.967 251.293 165.559C251.449 165.151 251.527 164.692 251.527 164.182C251.527 163.678 251.45 163.226 251.298 162.825C251.149 162.424 250.924 162.107 250.622 161.875C250.324 161.643 249.951 161.527 249.503 161.527C249.072 161.527 248.708 161.638 248.41 161.86C248.115 162.082 247.891 162.392 247.738 162.79C247.586 163.187 247.51 163.652 247.51 164.182ZM259.885 157.818V168H258.399V157.818H259.885ZM264.107 168.169C263.623 168.169 263.186 168.08 262.795 167.901C262.404 167.718 262.094 167.455 261.865 167.11C261.64 166.765 261.527 166.343 261.527 165.842C261.527 165.411 261.61 165.057 261.776 164.778C261.941 164.5 262.165 164.28 262.447 164.117C262.729 163.955 263.043 163.832 263.391 163.749C263.739 163.666 264.094 163.603 264.455 163.56C264.913 163.507 265.284 163.464 265.569 163.431C265.854 163.395 266.061 163.337 266.19 163.257C266.32 163.178 266.384 163.048 266.384 162.869V162.835C266.384 162.4 266.262 162.064 266.016 161.825C265.774 161.587 265.413 161.467 264.933 161.467C264.432 161.467 264.038 161.578 263.749 161.8C263.464 162.019 263.267 162.263 263.158 162.531L261.761 162.213C261.926 161.749 262.168 161.375 262.487 161.089C262.808 160.801 263.178 160.592 263.595 160.463C264.013 160.33 264.452 160.264 264.913 160.264C265.218 160.264 265.541 160.301 265.882 160.374C266.227 160.443 266.548 160.572 266.847 160.761C267.148 160.95 267.395 161.22 267.587 161.572C267.78 161.92 267.876 162.372 267.876 162.929V168H266.424V166.956H266.364C266.268 167.148 266.124 167.337 265.932 167.523C265.74 167.708 265.493 167.862 265.191 167.985C264.89 168.108 264.528 168.169 264.107 168.169ZM264.43 166.976C264.841 166.976 265.193 166.895 265.484 166.732C265.779 166.57 266.003 166.358 266.156 166.096C266.311 165.831 266.389 165.547 266.389 165.246V164.261C266.336 164.314 266.234 164.364 266.081 164.411C265.932 164.454 265.761 164.492 265.569 164.525C265.377 164.555 265.189 164.583 265.007 164.609C264.825 164.633 264.672 164.652 264.55 164.669C264.261 164.705 263.998 164.767 263.759 164.853C263.524 164.939 263.335 165.063 263.193 165.226C263.053 165.385 262.984 165.597 262.984 165.862C262.984 166.23 263.12 166.509 263.391 166.697C263.663 166.883 264.01 166.976 264.43 166.976ZM269.975 168V157.818H271.462V161.602H271.551C271.637 161.442 271.762 161.259 271.924 161.05C272.086 160.841 272.312 160.659 272.6 160.503C272.888 160.344 273.27 160.264 273.744 160.264C274.36 160.264 274.91 160.42 275.394 160.732C275.878 161.043 276.257 161.492 276.533 162.079C276.811 162.665 276.95 163.371 276.95 164.197C276.95 165.022 276.813 165.73 276.538 166.32C276.262 166.906 275.885 167.359 275.404 167.677C274.923 167.992 274.375 168.149 273.758 168.149C273.294 168.149 272.915 168.071 272.62 167.915C272.328 167.76 272.1 167.577 271.934 167.369C271.768 167.16 271.641 166.974 271.551 166.812H271.427V168H269.975ZM271.432 164.182C271.432 164.719 271.51 165.189 271.665 165.594C271.821 165.998 272.047 166.315 272.342 166.543C272.637 166.769 272.998 166.881 273.425 166.881C273.869 166.881 274.241 166.764 274.539 166.528C274.837 166.29 275.063 165.967 275.215 165.559C275.371 165.151 275.449 164.692 275.449 164.182C275.449 163.678 275.373 163.226 275.22 162.825C275.071 162.424 274.846 162.107 274.544 161.875C274.246 161.643 273.873 161.527 273.425 161.527C272.994 161.527 272.63 161.638 272.332 161.86C272.037 162.082 271.813 162.392 271.66 162.79C271.508 163.187 271.432 163.652 271.432 164.182ZM281.911 168.154C281.158 168.154 280.51 167.993 279.967 167.672C279.426 167.347 279.009 166.891 278.714 166.305C278.422 165.715 278.276 165.024 278.276 164.232C278.276 163.449 278.422 162.76 278.714 162.163C279.009 161.567 279.42 161.101 279.947 160.766C280.477 160.432 281.097 160.264 281.806 160.264C282.237 160.264 282.655 160.335 283.059 160.478C283.463 160.621 283.826 160.844 284.148 161.149C284.469 161.454 284.723 161.85 284.908 162.337C285.094 162.821 285.187 163.41 285.187 164.102V164.629H279.117V163.516H283.73C283.73 163.125 283.651 162.778 283.492 162.477C283.332 162.172 283.109 161.931 282.82 161.756C282.535 161.58 282.201 161.492 281.816 161.492C281.399 161.492 281.034 161.595 280.722 161.8C280.414 162.003 280.176 162.268 280.006 162.596C279.841 162.921 279.758 163.274 279.758 163.655V164.525C279.758 165.035 279.847 165.469 280.026 165.827C280.209 166.185 280.462 166.459 280.787 166.648C281.112 166.833 281.491 166.926 281.926 166.926C282.207 166.926 282.464 166.886 282.696 166.807C282.928 166.724 283.129 166.601 283.298 166.439C283.467 166.277 283.596 166.076 283.685 165.837L285.092 166.091C284.98 166.505 284.778 166.868 284.486 167.18C284.198 167.488 283.835 167.728 283.397 167.901C282.963 168.07 282.467 168.154 281.911 168.154ZM288.323 157.818V168H286.836V157.818H288.323ZM294.822 163.053V164.341H290.308V163.053H294.822ZM299.025 168.169C298.541 168.169 298.104 168.08 297.713 167.901C297.322 167.718 297.012 167.455 296.783 167.11C296.558 166.765 296.445 166.343 296.445 165.842C296.445 165.411 296.528 165.057 296.694 164.778C296.859 164.5 297.083 164.28 297.365 164.117C297.647 163.955 297.961 163.832 298.309 163.749C298.657 163.666 299.012 163.603 299.373 163.56C299.831 163.507 300.202 163.464 300.487 163.431C300.772 163.395 300.979 163.337 301.108 163.257C301.238 163.178 301.302 163.048 301.302 162.869V162.835C301.302 162.4 301.18 162.064 300.934 161.825C300.692 161.587 300.331 161.467 299.851 161.467C299.35 161.467 298.956 161.578 298.667 161.8C298.382 162.019 298.185 162.263 298.076 162.531L296.679 162.213C296.844 161.749 297.086 161.375 297.405 161.089C297.726 160.801 298.096 160.592 298.513 160.463C298.931 160.33 299.37 160.264 299.831 160.264C300.136 160.264 300.459 160.301 300.8 160.374C301.145 160.443 301.466 160.572 301.765 160.761C302.066 160.95 302.313 161.22 302.505 161.572C302.698 161.92 302.794 162.372 302.794 162.929V168H301.342V166.956H301.282C301.186 167.148 301.042 167.337 300.85 167.523C300.658 167.708 300.411 167.862 300.109 167.985C299.807 168.108 299.446 168.169 299.025 168.169ZM299.348 166.976C299.759 166.976 300.111 166.895 300.402 166.732C300.697 166.57 300.921 166.358 301.074 166.096C301.229 165.831 301.307 165.547 301.307 165.246V164.261C301.254 164.314 301.151 164.364 300.999 164.411C300.85 164.454 300.679 164.492 300.487 164.525C300.295 164.555 300.107 164.583 299.925 164.609C299.743 164.633 299.59 164.652 299.468 164.669C299.179 164.705 298.916 164.767 298.677 164.853C298.442 164.939 298.253 165.063 298.111 165.226C297.971 165.385 297.902 165.597 297.902 165.862C297.902 166.23 298.038 166.509 298.309 166.697C298.581 166.883 298.928 166.976 299.348 166.976ZM307.99 168.154C307.251 168.154 306.615 167.987 306.081 167.652C305.551 167.314 305.143 166.848 304.858 166.255C304.573 165.662 304.431 164.982 304.431 164.217C304.431 163.441 304.576 162.757 304.868 162.163C305.16 161.567 305.571 161.101 306.101 160.766C306.631 160.432 307.256 160.264 307.975 160.264C308.555 160.264 309.072 160.372 309.527 160.587C309.981 160.799 310.347 161.098 310.625 161.482C310.907 161.867 311.074 162.316 311.127 162.83H309.681C309.601 162.472 309.419 162.163 309.134 161.905C308.852 161.646 308.474 161.517 308 161.517C307.586 161.517 307.223 161.626 306.911 161.845C306.603 162.061 306.363 162.369 306.191 162.77C306.018 163.168 305.932 163.638 305.932 164.182C305.932 164.739 306.017 165.219 306.186 165.624C306.355 166.028 306.593 166.341 306.902 166.563C307.213 166.785 307.579 166.896 308 166.896C308.282 166.896 308.537 166.845 308.766 166.742C308.998 166.636 309.192 166.485 309.348 166.29C309.507 166.094 309.618 165.859 309.681 165.584H311.127C311.074 166.078 310.914 166.518 310.645 166.906C310.377 167.294 310.017 167.599 309.566 167.821C309.119 168.043 308.594 168.154 307.99 168.154ZM316.282 160.364V161.557H312.111V160.364H316.282ZM313.229 158.534H314.716V165.758C314.716 166.046 314.759 166.263 314.845 166.409C314.931 166.552 315.042 166.649 315.178 166.702C315.317 166.752 315.468 166.777 315.63 166.777C315.75 166.777 315.854 166.769 315.944 166.752C316.033 166.736 316.103 166.722 316.152 166.712L316.421 167.94C316.335 167.973 316.212 168.007 316.053 168.04C315.894 168.076 315.695 168.096 315.456 168.099C315.065 168.106 314.701 168.036 314.363 167.891C314.025 167.745 313.751 167.519 313.542 167.214C313.334 166.91 313.229 166.527 313.229 166.066V158.534ZM317.926 168V160.364H319.413V168H317.926ZM318.677 159.185C318.418 159.185 318.196 159.099 318.011 158.927C317.828 158.751 317.737 158.542 317.737 158.3C317.737 158.055 317.828 157.846 318.011 157.674C318.196 157.498 318.418 157.411 318.677 157.411C318.935 157.411 319.156 157.498 319.338 157.674C319.524 157.846 319.616 158.055 319.616 158.3C319.616 158.542 319.524 158.751 319.338 158.927C319.156 159.099 318.935 159.185 318.677 159.185ZM327.945 160.364L325.176 168H323.585L320.811 160.364H322.407L324.341 166.24H324.42L326.349 160.364H327.945ZM332.373 168.154C331.621 168.154 330.973 167.993 330.43 167.672C329.889 167.347 329.472 166.891 329.177 166.305C328.885 165.715 328.739 165.024 328.739 164.232C328.739 163.449 328.885 162.76 329.177 162.163C329.472 161.567 329.883 161.101 330.41 160.766C330.94 160.432 331.56 160.264 332.269 160.264C332.7 160.264 333.118 160.335 333.522 160.478C333.926 160.621 334.289 160.844 334.611 161.149C334.932 161.454 335.186 161.85 335.371 162.337C335.557 162.821 335.65 163.41 335.65 164.102V164.629H329.579V163.516H334.193C334.193 163.125 334.114 162.778 333.954 162.477C333.795 162.172 333.572 161.931 333.283 161.756C332.998 161.58 332.664 161.492 332.279 161.492C331.861 161.492 331.497 161.595 331.185 161.8C330.877 162.003 330.638 162.268 330.469 162.596C330.304 162.921 330.221 163.274 330.221 163.655V164.525C330.221 165.035 330.31 165.469 330.489 165.827C330.672 166.185 330.925 166.459 331.25 166.648C331.575 166.833 331.954 166.926 332.388 166.926C332.67 166.926 332.927 166.886 333.159 166.807C333.391 166.724 333.592 166.601 333.761 166.439C333.93 166.277 334.059 166.076 334.148 165.837L335.555 166.091C335.443 166.505 335.24 166.868 334.949 167.18C334.66 167.488 334.297 167.728 333.86 167.901C333.426 168.07 332.93 168.154 332.373 168.154Z" fill="white" fill-opacity="0.95"/>
</g>
<rect x="295.5" y="135" width="150" height="2" fill="#8F8F8F"/>
<path fill-rule="evenodd" clip-rule="evenodd" d="M461.5 144C465.918 144 469.5 140.418 469.5 136C469.5 131.582 465.918 128 461.5 128C457.082 128 453.5 131.582 453.5 136C453.5 140.418 457.082 144 461.5 144Z" fill="#3492EB"/>
<g clip-path="url(#clip2_2031_6140)">
<path d="M429.705 167H428.123L427.129 164.452H422.327L421.319 167H419.821L423.965 156.92H425.575L429.705 167ZM424.749 158.348L422.789 163.29H426.667L424.749 158.348ZM434.942 165.026C434.942 164.615 434.727 164.307 434.298 164.102C434.046 163.99 433.556 163.85 432.828 163.682C431.932 163.486 431.293 163.201 430.91 162.828C430.593 162.511 430.434 162.095 430.434 161.582C430.434 160.901 430.709 160.378 431.26 160.014C431.755 159.678 432.422 159.51 433.262 159.51C434.13 159.51 434.835 159.725 435.376 160.154C435.843 160.527 436.132 161.022 436.244 161.638H434.872C434.713 160.929 434.172 160.574 433.248 160.574C432.735 160.574 432.352 160.667 432.1 160.854C431.895 161.013 431.792 161.213 431.792 161.456C431.792 161.755 431.904 161.979 432.128 162.128C432.361 162.277 432.814 162.427 433.486 162.576C434.513 162.8 435.227 163.075 435.628 163.402C436.076 163.766 436.3 164.275 436.3 164.928C436.3 165.656 436.001 166.23 435.404 166.65C434.863 167.023 434.149 167.21 433.262 167.21C432.291 167.21 431.521 166.977 430.952 166.51C430.457 166.099 430.182 165.567 430.126 164.914H431.498C431.647 165.735 432.24 166.146 433.276 166.146C433.836 166.146 434.27 166.025 434.578 165.782C434.821 165.586 434.942 165.334 434.942 165.026ZM441.997 165.026C441.997 164.615 441.782 164.307 441.353 164.102C441.101 163.99 440.611 163.85 439.883 163.682C438.987 163.486 438.347 163.201 437.965 162.828C437.647 162.511 437.489 162.095 437.489 161.582C437.489 160.901 437.764 160.378 438.315 160.014C438.809 159.678 439.477 159.51 440.317 159.51C441.185 159.51 441.889 159.725 442.431 160.154C442.897 160.527 443.187 161.022 443.299 161.638H441.927C441.768 160.929 441.227 160.574 440.303 160.574C439.789 160.574 439.407 160.667 439.155 160.854C438.949 161.013 438.847 161.213 438.847 161.456C438.847 161.755 438.959 161.979 439.183 162.128C439.416 162.277 439.869 162.427 440.541 162.576C441.567 162.8 442.281 163.075 442.683 163.402C443.131 163.766 443.355 164.275 443.355 164.928C443.355 165.656 443.056 166.23 442.459 166.65C441.917 167.023 441.203 167.21 440.317 167.21C439.346 167.21 438.576 166.977 438.007 166.51C437.512 166.099 437.237 165.567 437.181 164.914H438.553C438.702 165.735 439.295 166.146 440.331 166.146C440.891 166.146 441.325 166.025 441.633 165.782C441.875 165.586 441.997 165.334 441.997 165.026ZM446.319 158.502H444.807V156.92H446.319V158.502ZM446.235 167H444.891V159.72H446.235V167ZM448.116 167.49H449.558C449.623 167.863 449.81 168.153 450.118 168.358C450.435 168.563 450.85 168.666 451.364 168.666C452.082 168.666 452.619 168.479 452.974 168.106C453.272 167.789 453.422 167.345 453.422 166.776V165.838C452.88 166.473 452.073 166.79 451 166.79C450.029 166.79 449.24 166.44 448.634 165.74C448.064 165.087 447.78 164.237 447.78 163.192C447.78 161.979 448.125 161.041 448.816 160.378C449.404 159.799 450.16 159.51 451.084 159.51C452.129 159.51 452.918 159.902 453.45 160.686L453.66 159.72H454.766V166.846C454.766 167.761 454.434 168.479 453.772 169.002C453.174 169.487 452.386 169.73 451.406 169.73C450.388 169.73 449.59 169.501 449.012 169.044C448.526 168.661 448.228 168.143 448.116 167.49ZM449.18 163.22C449.18 164.013 449.413 164.634 449.88 165.082C450.262 165.455 450.734 165.642 451.294 165.642C452.031 165.642 452.596 165.399 452.988 164.914C453.324 164.503 453.492 163.953 453.492 163.262C453.492 162.375 453.263 161.699 452.806 161.232C452.423 160.849 451.919 160.658 451.294 160.658C450.603 160.658 450.071 160.896 449.698 161.372C449.352 161.82 449.18 162.436 449.18 163.22ZM458.075 167H456.731V159.72H457.837L457.991 160.644C458.532 159.888 459.27 159.51 460.203 159.51C461.062 159.51 461.72 159.776 462.177 160.308C462.578 160.784 462.779 161.433 462.779 162.254V167H461.435V162.268C461.435 161.195 460.917 160.658 459.881 160.658C459.34 160.658 458.896 160.845 458.551 161.218C458.234 161.554 458.075 161.983 458.075 162.506V167ZM468.802 159.72H470.146V164.494C470.146 165.539 470.65 166.062 471.658 166.062C472.274 166.062 472.745 165.843 473.072 165.404C473.324 165.068 473.45 164.653 473.45 164.158V159.72H474.794V167H473.688L473.534 166.16C473.02 166.86 472.292 167.21 471.35 167.21C470.519 167.21 469.88 166.953 469.432 166.44C469.012 165.964 468.802 165.306 468.802 164.466V159.72ZM481.016 165.026C481.016 164.615 480.802 164.307 480.372 164.102C480.12 163.99 479.63 163.85 478.902 163.682C478.006 163.486 477.367 163.201 476.984 162.828C476.667 162.511 476.508 162.095 476.508 161.582C476.508 160.901 476.784 160.378 477.334 160.014C477.829 159.678 478.496 159.51 479.336 159.51C480.204 159.51 480.909 159.725 481.45 160.154C481.917 160.527 482.206 161.022 482.318 161.638H480.946C480.788 160.929 480.246 160.574 479.322 160.574C478.809 160.574 478.426 160.667 478.174 160.854C477.969 161.013 477.866 161.213 477.866 161.456C477.866 161.755 477.978 161.979 478.202 162.128C478.436 162.277 478.888 162.427 479.56 162.576C480.587 162.8 481.301 163.075 481.702 163.402C482.15 163.766 482.374 164.275 482.374 164.928C482.374 165.656 482.076 166.23 481.478 166.65C480.937 167.023 480.223 167.21 479.336 167.21C478.366 167.21 477.596 166.977 477.026 166.51C476.532 166.099 476.256 165.567 476.2 164.914H477.572C477.722 165.735 478.314 166.146 479.35 166.146C479.91 166.146 480.344 166.025 480.652 165.782C480.895 165.586 481.016 165.334 481.016 165.026ZM488.867 164.9H490.323C490.117 165.637 489.711 166.216 489.105 166.636C488.535 167.019 487.854 167.21 487.061 167.21C485.913 167.21 485.017 166.846 484.373 166.118C483.785 165.437 483.491 164.517 483.491 163.36C483.491 162.044 483.864 161.045 484.611 160.364C485.227 159.795 486.02 159.51 486.991 159.51C488.129 159.51 488.988 159.879 489.567 160.616C490.127 161.325 490.407 162.338 490.407 163.654H484.863C484.919 164.513 485.18 165.152 485.647 165.572C486.029 165.908 486.515 166.076 487.103 166.076C487.56 166.076 487.957 165.95 488.293 165.698C488.573 165.483 488.764 165.217 488.867 164.9ZM487.019 160.588C486.421 160.588 485.941 160.775 485.577 161.148C485.231 161.493 485.012 161.974 484.919 162.59H489.035C488.988 161.89 488.755 161.367 488.335 161.022C487.999 160.733 487.56 160.588 487.019 160.588ZM493.362 167H492.018V159.72H493.124L493.306 160.798C493.717 159.939 494.333 159.51 495.154 159.51C495.425 159.51 495.691 159.543 495.952 159.608V160.952C495.635 160.868 495.35 160.826 495.098 160.826C494.557 160.826 494.132 161.045 493.824 161.484C493.516 161.923 493.362 162.543 493.362 163.346V167ZM501.264 165.026C501.264 164.615 501.05 164.307 500.62 164.102C500.368 163.99 499.878 163.85 499.15 163.682C498.254 163.486 497.615 163.201 497.232 162.828C496.915 162.511 496.756 162.095 496.756 161.582C496.756 160.901 497.032 160.378 497.582 160.014C498.077 159.678 498.744 159.51 499.584 159.51C500.452 159.51 501.157 159.725 501.698 160.154C502.165 160.527 502.454 161.022 502.566 161.638H501.194C501.036 160.929 500.494 160.574 499.57 160.574C499.057 160.574 498.674 160.667 498.422 160.854C498.217 161.013 498.114 161.213 498.114 161.456C498.114 161.755 498.226 161.979 498.45 162.128C498.684 162.277 499.136 162.427 499.808 162.576C500.835 162.8 501.549 163.075 501.95 163.402C502.398 163.766 502.622 164.275 502.622 164.928C502.622 165.656 502.324 166.23 501.726 166.65C501.185 167.023 500.471 167.21 499.584 167.21C498.614 167.21 497.844 166.977 497.274 166.51C496.78 166.099 496.504 165.567 496.448 164.914H497.82C497.97 165.735 498.562 166.146 499.598 166.146C500.158 166.146 500.592 166.025 500.9 165.782C501.143 165.586 501.264 165.334 501.264 165.026Z" fill="white" fill-opacity="0.95"/>
</g>
<path d="M187.5 199V155" stroke="#DA0087"/>
<path d="M187.5 147L183.5 155H191.5L187.5 147Z" fill="#DA0087"/>
<rect x="87" y="191" width="201" height="28" rx="14" fill="#DA0087"/>
<path d="M109.773 203H108.364C108.28 202.595 108.134 202.239 107.926 201.932C107.722 201.625 107.472 201.367 107.176 201.159C106.884 200.947 106.561 200.788 106.205 200.682C105.848 200.576 105.477 200.523 105.091 200.523C104.386 200.523 103.748 200.701 103.176 201.057C102.608 201.413 102.155 201.938 101.818 202.631C101.485 203.324 101.318 204.174 101.318 205.182C101.318 206.189 101.485 207.04 101.818 207.733C102.155 208.426 102.608 208.951 103.176 209.307C103.748 209.663 104.386 209.841 105.091 209.841C105.477 209.841 105.848 209.788 106.205 209.682C106.561 209.576 106.884 209.419 107.176 209.21C107.472 208.998 107.722 208.739 107.926 208.432C108.134 208.121 108.28 207.765 108.364 207.364H109.773C109.667 207.958 109.473 208.491 109.193 208.96C108.913 209.43 108.564 209.83 108.148 210.159C107.731 210.485 107.263 210.733 106.744 210.903C106.229 211.074 105.678 211.159 105.091 211.159C104.098 211.159 103.216 210.917 102.443 210.432C101.67 209.947 101.063 209.258 100.619 208.364C100.176 207.47 99.9545 206.409 99.9545 205.182C99.9545 203.955 100.176 202.894 100.619 202C101.063 201.106 101.67 200.417 102.443 199.932C103.216 199.447 104.098 199.205 105.091 199.205C105.678 199.205 106.229 199.29 106.744 199.46C107.263 199.631 107.731 199.881 108.148 200.21C108.564 200.536 108.913 200.934 109.193 201.403C109.473 201.869 109.667 202.402 109.773 203ZM115.413 211.182C114.625 211.182 113.934 210.994 113.339 210.619C112.749 210.244 112.286 209.72 111.953 209.045C111.624 208.371 111.459 207.583 111.459 206.682C111.459 205.773 111.624 204.979 111.953 204.301C112.286 203.623 112.749 203.097 113.339 202.722C113.934 202.347 114.625 202.159 115.413 202.159C116.201 202.159 116.891 202.347 117.482 202.722C118.076 203.097 118.538 203.623 118.868 204.301C119.201 204.979 119.368 205.773 119.368 206.682C119.368 207.583 119.201 208.371 118.868 209.045C118.538 209.72 118.076 210.244 117.482 210.619C116.891 210.994 116.201 211.182 115.413 211.182ZM115.413 209.977C116.012 209.977 116.504 209.824 116.891 209.517C117.277 209.21 117.563 208.807 117.749 208.307C117.934 207.807 118.027 207.265 118.027 206.682C118.027 206.098 117.934 205.555 117.749 205.051C117.563 204.547 117.277 204.14 116.891 203.83C116.504 203.519 116.012 203.364 115.413 203.364C114.815 203.364 114.322 203.519 113.936 203.83C113.55 204.14 113.264 204.547 113.078 205.051C112.893 205.555 112.8 206.098 112.8 206.682C112.8 207.265 112.893 207.807 113.078 208.307C113.264 208.807 113.55 209.21 113.936 209.517C114.322 209.824 114.815 209.977 115.413 209.977ZM121.415 211V202.273H122.71V203.636H122.824C123.006 203.17 123.299 202.809 123.705 202.551C124.11 202.29 124.597 202.159 125.165 202.159C125.741 202.159 126.22 202.29 126.602 202.551C126.989 202.809 127.29 203.17 127.506 203.636H127.597C127.82 203.186 128.155 202.828 128.602 202.562C129.049 202.294 129.585 202.159 130.21 202.159C130.991 202.159 131.629 202.403 132.125 202.892C132.621 203.377 132.869 204.133 132.869 205.159V211H131.528V205.159C131.528 204.515 131.352 204.055 131 203.778C130.648 203.502 130.233 203.364 129.756 203.364C129.142 203.364 128.667 203.549 128.33 203.92C127.992 204.288 127.824 204.754 127.824 205.318V211H126.46V205.023C126.46 204.527 126.299 204.127 125.977 203.824C125.655 203.517 125.241 203.364 124.733 203.364C124.384 203.364 124.059 203.456 123.756 203.642C123.456 203.828 123.214 204.085 123.028 204.415C122.847 204.741 122.756 205.117 122.756 205.545V211H121.415ZM135.321 214.273V202.273H136.616V203.659H136.776C136.874 203.508 137.01 203.314 137.185 203.08C137.363 202.841 137.616 202.629 137.946 202.443C138.279 202.254 138.73 202.159 139.298 202.159C140.033 202.159 140.681 202.343 141.241 202.71C141.802 203.078 142.24 203.598 142.554 204.273C142.868 204.947 143.026 205.742 143.026 206.659C143.026 207.583 142.868 208.384 142.554 209.062C142.24 209.737 141.804 210.259 141.247 210.631C140.69 210.998 140.048 211.182 139.321 211.182C138.76 211.182 138.312 211.089 137.974 210.903C137.637 210.714 137.378 210.5 137.196 210.261C137.014 210.019 136.874 209.818 136.776 209.659H136.662V214.273H135.321ZM136.639 206.636C136.639 207.295 136.736 207.877 136.929 208.381C137.122 208.881 137.404 209.273 137.776 209.557C138.147 209.837 138.601 209.977 139.139 209.977C139.7 209.977 140.168 209.83 140.543 209.534C140.921 209.235 141.205 208.833 141.395 208.33C141.588 207.822 141.685 207.258 141.685 206.636C141.685 206.023 141.59 205.47 141.401 204.977C141.215 204.481 140.933 204.089 140.554 203.801C140.179 203.509 139.707 203.364 139.139 203.364C138.594 203.364 138.135 203.502 137.764 203.778C137.393 204.051 137.113 204.434 136.923 204.926C136.734 205.415 136.639 205.985 136.639 206.636ZM146.412 199.364V211H145.071V199.364H146.412ZM152.527 211.182C151.686 211.182 150.961 210.996 150.351 210.625C149.745 210.25 149.277 209.727 148.947 209.057C148.622 208.383 148.459 207.598 148.459 206.705C148.459 205.811 148.622 205.023 148.947 204.341C149.277 203.655 149.735 203.121 150.322 202.739C150.913 202.352 151.603 202.159 152.391 202.159C152.845 202.159 153.294 202.235 153.737 202.386C154.18 202.538 154.584 202.784 154.947 203.125C155.311 203.462 155.601 203.909 155.817 204.466C156.033 205.023 156.141 205.708 156.141 206.523V207.091H149.413V205.932H154.777C154.777 205.439 154.679 205 154.482 204.614C154.288 204.227 154.012 203.922 153.652 203.699C153.296 203.475 152.875 203.364 152.391 203.364C151.857 203.364 151.394 203.496 151.004 203.761C150.618 204.023 150.321 204.364 150.112 204.784C149.904 205.205 149.8 205.655 149.8 206.136V206.909C149.8 207.568 149.913 208.127 150.141 208.585C150.372 209.04 150.692 209.386 151.101 209.625C151.51 209.86 151.985 209.977 152.527 209.977C152.879 209.977 153.197 209.928 153.482 209.83C153.769 209.727 154.018 209.576 154.226 209.375C154.434 209.17 154.595 208.917 154.709 208.614L156.004 208.977C155.868 209.417 155.639 209.803 155.317 210.136C154.995 210.466 154.597 210.723 154.124 210.909C153.65 211.091 153.118 211.182 152.527 211.182ZM161.976 202.273V203.409H157.453V202.273H161.976ZM158.771 200.182H160.112V208.5C160.112 208.879 160.167 209.163 160.277 209.352C160.391 209.538 160.535 209.663 160.709 209.727C160.887 209.788 161.074 209.818 161.271 209.818C161.419 209.818 161.54 209.811 161.635 209.795C161.73 209.777 161.805 209.761 161.862 209.75L162.135 210.955C162.044 210.989 161.917 211.023 161.754 211.057C161.591 211.095 161.385 211.114 161.135 211.114C160.756 211.114 160.385 211.032 160.021 210.869C159.661 210.706 159.362 210.458 159.124 210.125C158.889 209.792 158.771 209.371 158.771 208.864V200.182ZM167.558 211.182C166.717 211.182 165.992 210.996 165.382 210.625C164.776 210.25 164.308 209.727 163.979 209.057C163.653 208.383 163.49 207.598 163.49 206.705C163.49 205.811 163.653 205.023 163.979 204.341C164.308 203.655 164.767 203.121 165.354 202.739C165.945 202.352 166.634 202.159 167.422 202.159C167.876 202.159 168.325 202.235 168.768 202.386C169.212 202.538 169.615 202.784 169.979 203.125C170.342 203.462 170.632 203.909 170.848 204.466C171.064 205.023 171.172 205.708 171.172 206.523V207.091H164.445V205.932H169.808C169.808 205.439 169.71 205 169.513 204.614C169.32 204.227 169.043 203.922 168.683 203.699C168.327 203.475 167.907 203.364 167.422 203.364C166.888 203.364 166.426 203.496 166.036 203.761C165.649 204.023 165.352 204.364 165.143 204.784C164.935 205.205 164.831 205.655 164.831 206.136V206.909C164.831 207.568 164.945 208.127 165.172 208.585C165.403 209.04 165.723 209.386 166.132 209.625C166.541 209.86 167.017 209.977 167.558 209.977C167.911 209.977 168.229 209.928 168.513 209.83C168.801 209.727 169.049 209.576 169.257 209.375C169.465 209.17 169.626 208.917 169.74 208.614L171.036 208.977C170.899 209.417 170.67 209.803 170.348 210.136C170.026 210.466 169.628 210.723 169.155 210.909C168.681 211.091 168.149 211.182 167.558 211.182ZM176.507 211.182C175.78 211.182 175.138 210.998 174.581 210.631C174.024 210.259 173.589 209.737 173.274 209.062C172.96 208.384 172.803 207.583 172.803 206.659C172.803 205.742 172.96 204.947 173.274 204.273C173.589 203.598 174.026 203.078 174.587 202.71C175.147 202.343 175.795 202.159 176.53 202.159C177.098 202.159 177.547 202.254 177.876 202.443C178.21 202.629 178.464 202.841 178.638 203.08C178.816 203.314 178.954 203.508 179.053 203.659H179.166V199.364H180.507V211H179.212V209.659H179.053C178.954 209.818 178.814 210.019 178.632 210.261C178.45 210.5 178.191 210.714 177.854 210.903C177.517 211.089 177.068 211.182 176.507 211.182ZM176.689 209.977C177.227 209.977 177.681 209.837 178.053 209.557C178.424 209.273 178.706 208.881 178.899 208.381C179.092 207.877 179.189 207.295 179.189 206.636C179.189 205.985 179.094 205.415 178.905 204.926C178.715 204.434 178.435 204.051 178.064 203.778C177.693 203.502 177.234 203.364 176.689 203.364C176.121 203.364 175.647 203.509 175.268 203.801C174.893 204.089 174.611 204.481 174.422 204.977C174.236 205.47 174.143 206.023 174.143 206.636C174.143 207.258 174.238 207.822 174.428 208.33C174.621 208.833 174.905 209.235 175.28 209.534C175.659 209.83 176.128 209.977 176.689 209.977ZM194.195 202.273C194.126 201.697 193.85 201.25 193.365 200.932C192.88 200.614 192.286 200.455 191.581 200.455C191.066 200.455 190.615 200.538 190.229 200.705C189.846 200.871 189.547 201.1 189.331 201.392C189.119 201.684 189.013 202.015 189.013 202.386C189.013 202.697 189.087 202.964 189.234 203.188C189.386 203.407 189.579 203.591 189.814 203.739C190.049 203.883 190.295 204.002 190.553 204.097C190.81 204.187 191.047 204.261 191.263 204.318L192.445 204.636C192.748 204.716 193.085 204.826 193.456 204.966C193.831 205.106 194.189 205.297 194.53 205.54C194.875 205.778 195.159 206.085 195.382 206.46C195.606 206.835 195.717 207.295 195.717 207.841C195.717 208.47 195.553 209.038 195.223 209.545C194.897 210.053 194.42 210.456 193.791 210.756C193.166 211.055 192.407 211.205 191.513 211.205C190.679 211.205 189.958 211.07 189.348 210.801C188.742 210.532 188.265 210.157 187.916 209.676C187.571 209.195 187.376 208.636 187.331 208H188.786C188.823 208.439 188.971 208.803 189.229 209.091C189.49 209.375 189.82 209.587 190.217 209.727C190.619 209.864 191.051 209.932 191.513 209.932C192.051 209.932 192.534 209.845 192.962 209.67C193.39 209.492 193.729 209.246 193.979 208.932C194.229 208.614 194.354 208.242 194.354 207.818C194.354 207.432 194.246 207.117 194.03 206.875C193.814 206.633 193.53 206.436 193.178 206.284C192.825 206.133 192.445 206 192.036 205.886L190.604 205.477C189.695 205.216 188.975 204.843 188.445 204.358C187.914 203.873 187.649 203.239 187.649 202.455C187.649 201.803 187.825 201.235 188.178 200.75C188.534 200.261 189.011 199.883 189.609 199.614C190.212 199.341 190.884 199.205 191.626 199.205C192.376 199.205 193.043 199.339 193.626 199.608C194.21 199.873 194.672 200.237 195.013 200.699C195.357 201.161 195.539 201.686 195.558 202.273H194.195ZM201.648 202.273V203.409H197.125V202.273H201.648ZM198.443 200.182H199.784V208.5C199.784 208.879 199.839 209.163 199.949 209.352C200.063 209.538 200.206 209.663 200.381 209.727C200.559 209.788 200.746 209.818 200.943 209.818C201.091 209.818 201.212 209.811 201.307 209.795C201.402 209.777 201.477 209.761 201.534 209.75L201.807 210.955C201.716 210.989 201.589 211.023 201.426 211.057C201.263 211.095 201.057 211.114 200.807 211.114C200.428 211.114 200.057 211.032 199.693 210.869C199.333 210.706 199.034 210.458 198.795 210.125C198.561 209.792 198.443 209.371 198.443 208.864V200.182ZM207.23 211.182C206.389 211.182 205.664 210.996 205.054 210.625C204.448 210.25 203.98 209.727 203.651 209.057C203.325 208.383 203.162 207.598 203.162 206.705C203.162 205.811 203.325 205.023 203.651 204.341C203.98 203.655 204.438 203.121 205.026 202.739C205.616 202.352 206.306 202.159 207.094 202.159C207.548 202.159 207.997 202.235 208.44 202.386C208.884 202.538 209.287 202.784 209.651 203.125C210.014 203.462 210.304 203.909 210.52 204.466C210.736 205.023 210.844 205.708 210.844 206.523V207.091H204.116V205.932H209.48C209.48 205.439 209.382 205 209.185 204.614C208.991 204.227 208.715 203.922 208.355 203.699C207.999 203.475 207.579 203.364 207.094 203.364C206.56 203.364 206.098 203.496 205.707 203.761C205.321 204.023 205.024 204.364 204.815 204.784C204.607 205.205 204.503 205.655 204.503 206.136V206.909C204.503 207.568 204.616 208.127 204.844 208.585C205.075 209.04 205.395 209.386 205.804 209.625C206.213 209.86 206.688 209.977 207.23 209.977C207.582 209.977 207.901 209.928 208.185 209.83C208.473 209.727 208.721 209.576 208.929 209.375C209.137 209.17 209.298 208.917 209.412 208.614L210.707 208.977C210.571 209.417 210.342 209.803 210.02 210.136C209.698 210.466 209.3 210.723 208.827 210.909C208.353 211.091 207.821 211.182 207.23 211.182ZM212.884 214.273V202.273H214.179V203.659H214.338C214.437 203.508 214.573 203.314 214.747 203.08C214.925 202.841 215.179 202.629 215.509 202.443C215.842 202.254 216.293 202.159 216.861 202.159C217.596 202.159 218.243 202.343 218.804 202.71C219.365 203.078 219.802 203.598 220.116 204.273C220.431 204.947 220.588 205.742 220.588 206.659C220.588 207.583 220.431 208.384 220.116 209.062C219.802 209.737 219.366 210.259 218.81 210.631C218.253 210.998 217.611 211.182 216.884 211.182C216.323 211.182 215.874 211.089 215.537 210.903C215.2 210.714 214.94 210.5 214.759 210.261C214.577 210.019 214.437 209.818 214.338 209.659H214.224V214.273H212.884ZM214.202 206.636C214.202 207.295 214.298 207.877 214.491 208.381C214.685 208.881 214.967 209.273 215.338 209.557C215.709 209.837 216.164 209.977 216.702 209.977C217.262 209.977 217.73 209.83 218.105 209.534C218.484 209.235 218.768 208.833 218.957 208.33C219.151 207.822 219.247 207.258 219.247 206.636C219.247 206.023 219.152 205.47 218.963 204.977C218.777 204.481 218.495 204.089 218.116 203.801C217.741 203.509 217.27 203.364 216.702 203.364C216.156 203.364 215.698 203.502 215.327 203.778C214.955 204.051 214.675 204.434 214.486 204.926C214.296 205.415 214.202 205.985 214.202 206.636ZM227.315 211V199.364H231.384C232.194 199.364 232.863 199.504 233.389 199.784C233.916 200.061 234.308 200.434 234.565 200.903C234.823 201.369 234.952 201.886 234.952 202.455C234.952 202.955 234.863 203.367 234.685 203.693C234.51 204.019 234.279 204.277 233.991 204.466C233.707 204.655 233.399 204.795 233.065 204.886V205C233.421 205.023 233.779 205.148 234.139 205.375C234.499 205.602 234.8 205.928 235.043 206.352C235.285 206.777 235.406 207.295 235.406 207.909C235.406 208.492 235.274 209.017 235.009 209.483C234.743 209.949 234.325 210.318 233.753 210.591C233.181 210.864 232.437 211 231.52 211H227.315ZM228.724 209.75H231.52C232.44 209.75 233.094 209.572 233.48 209.216C233.87 208.856 234.065 208.42 234.065 207.909C234.065 207.515 233.965 207.152 233.764 206.818C233.563 206.481 233.277 206.212 232.906 206.011C232.535 205.807 232.096 205.705 231.588 205.705H228.724V209.75ZM228.724 204.477H231.338C231.762 204.477 232.145 204.394 232.486 204.227C232.83 204.061 233.103 203.826 233.304 203.523C233.509 203.22 233.611 202.864 233.611 202.455C233.611 201.943 233.433 201.509 233.077 201.153C232.721 200.794 232.156 200.614 231.384 200.614H228.724V204.477ZM237.54 211V202.273H238.835V203.591H238.926C239.085 203.159 239.373 202.809 239.79 202.54C240.206 202.271 240.676 202.136 241.199 202.136C241.297 202.136 241.42 202.138 241.568 202.142C241.716 202.146 241.828 202.152 241.903 202.159V203.523C241.858 203.511 241.754 203.494 241.591 203.472C241.432 203.445 241.263 203.432 241.085 203.432C240.661 203.432 240.282 203.521 239.949 203.699C239.619 203.873 239.358 204.116 239.165 204.426C238.975 204.733 238.881 205.083 238.881 205.477V211H237.54ZM243.493 211V202.273H244.834V211H243.493ZM244.175 200.818C243.913 200.818 243.688 200.729 243.499 200.551C243.313 200.373 243.22 200.159 243.22 199.909C243.22 199.659 243.313 199.445 243.499 199.267C243.688 199.089 243.913 199 244.175 199C244.436 199 244.66 199.089 244.845 199.267C245.035 199.445 245.129 199.659 245.129 199.909C245.129 200.159 245.035 200.373 244.845 200.551C244.66 200.729 244.436 200.818 244.175 200.818ZM250.585 211.182C249.858 211.182 249.216 210.998 248.659 210.631C248.102 210.259 247.667 209.737 247.352 209.062C247.038 208.384 246.881 207.583 246.881 206.659C246.881 205.742 247.038 204.947 247.352 204.273C247.667 203.598 248.104 203.078 248.665 202.71C249.225 202.343 249.873 202.159 250.608 202.159C251.176 202.159 251.625 202.254 251.955 202.443C252.288 202.629 252.542 202.841 252.716 203.08C252.894 203.314 253.032 203.508 253.131 203.659H253.244V199.364H254.585V211H253.29V209.659H253.131C253.032 209.818 252.892 210.019 252.71 210.261C252.528 210.5 252.269 210.714 251.932 210.903C251.595 211.089 251.146 211.182 250.585 211.182ZM250.767 209.977C251.305 209.977 251.759 209.837 252.131 209.557C252.502 209.273 252.784 208.881 252.977 208.381C253.17 207.877 253.267 207.295 253.267 206.636C253.267 205.985 253.172 205.415 252.983 204.926C252.794 204.434 252.513 204.051 252.142 203.778C251.771 203.502 251.313 203.364 250.767 203.364C250.199 203.364 249.725 203.509 249.347 203.801C248.972 204.089 248.689 204.481 248.5 204.977C248.314 205.47 248.222 206.023 248.222 206.636C248.222 207.258 248.316 207.822 248.506 208.33C248.699 208.833 248.983 209.235 249.358 209.534C249.737 209.83 250.206 209.977 250.767 209.977ZM260.75 214.455C260.102 214.455 259.545 214.371 259.08 214.205C258.614 214.042 258.225 213.826 257.915 213.557C257.608 213.292 257.364 213.008 257.182 212.705L258.25 211.955C258.371 212.114 258.525 212.295 258.71 212.5C258.896 212.708 259.15 212.888 259.472 213.04C259.797 213.195 260.223 213.273 260.75 213.273C261.455 213.273 262.036 213.102 262.494 212.761C262.953 212.42 263.182 211.886 263.182 211.159V209.386H263.068C262.97 209.545 262.83 209.742 262.648 209.977C262.47 210.208 262.212 210.415 261.875 210.597C261.542 210.775 261.091 210.864 260.523 210.864C259.818 210.864 259.186 210.697 258.625 210.364C258.068 210.03 257.627 209.545 257.301 208.909C256.979 208.273 256.818 207.5 256.818 206.591C256.818 205.697 256.975 204.919 257.29 204.256C257.604 203.589 258.042 203.074 258.602 202.71C259.163 202.343 259.811 202.159 260.545 202.159C261.114 202.159 261.564 202.254 261.898 202.443C262.235 202.629 262.492 202.841 262.67 203.08C262.852 203.314 262.992 203.508 263.091 203.659H263.227V202.273H264.523V211.25C264.523 212 264.352 212.61 264.011 213.08C263.674 213.553 263.22 213.9 262.648 214.119C262.08 214.343 261.447 214.455 260.75 214.455ZM260.705 209.659C261.242 209.659 261.697 209.536 262.068 209.29C262.439 209.044 262.722 208.689 262.915 208.227C263.108 207.765 263.205 207.212 263.205 206.568C263.205 205.939 263.11 205.384 262.92 204.903C262.731 204.422 262.451 204.045 262.08 203.773C261.708 203.5 261.25 203.364 260.705 203.364C260.136 203.364 259.663 203.508 259.284 203.795C258.909 204.083 258.627 204.47 258.438 204.955C258.252 205.439 258.159 205.977 258.159 206.568C258.159 207.174 258.254 207.71 258.443 208.176C258.636 208.638 258.92 209.002 259.295 209.267C259.674 209.528 260.144 209.659 260.705 209.659ZM270.636 211.182C269.795 211.182 269.07 210.996 268.46 210.625C267.854 210.25 267.386 209.727 267.057 209.057C266.731 208.383 266.568 207.598 266.568 206.705C266.568 205.811 266.731 205.023 267.057 204.341C267.386 203.655 267.845 203.121 268.432 202.739C269.023 202.352 269.712 202.159 270.5 202.159C270.955 202.159 271.403 202.235 271.847 202.386C272.29 202.538 272.693 202.784 273.057 203.125C273.42 203.462 273.71 203.909 273.926 204.466C274.142 205.023 274.25 205.708 274.25 206.523V207.091H267.523V205.932H272.886C272.886 205.439 272.788 205 272.591 204.614C272.398 204.227 272.121 203.922 271.761 203.699C271.405 203.475 270.985 203.364 270.5 203.364C269.966 203.364 269.504 203.496 269.114 203.761C268.727 204.023 268.43 204.364 268.222 204.784C268.013 205.205 267.909 205.655 267.909 206.136V206.909C267.909 207.568 268.023 208.127 268.25 208.585C268.481 209.04 268.801 209.386 269.21 209.625C269.619 209.86 270.095 209.977 270.636 209.977C270.989 209.977 271.307 209.928 271.591 209.83C271.879 209.727 272.127 209.576 272.335 209.375C272.544 209.17 272.705 208.917 272.818 208.614L274.114 208.977C273.977 209.417 273.748 209.803 273.426 210.136C273.104 210.466 272.706 210.723 272.233 210.909C271.759 211.091 271.227 211.182 270.636 211.182Z" fill="white" fill-opacity="0.95"/>
<defs>
<clipPath id="clip0_2031_6140">
<rect width="36" height="20" fill="white" transform="translate(79.5 152)"/>
</clipPath>
<clipPath id="clip1_2031_6140">
<rect width="114" height="21" fill="white" transform="translate(222.5 152)"/>
</clipPath>
<clipPath id="clip2_2031_6140">
<rect width="160" height="21" fill="white" transform="translate(381.5 152)"/>
</clipPath>
</defs>
</svg>
