<svg width="559" height="247" viewBox="0 0 559 247" fill="none" xmlns="http://www.w3.org/2000/svg">
<rect width="559" height="247" rx="16" fill="#1A1A1A"/>
<path d="M104.5 109C104.5 112.866 101.366 116 97.5 116C93.634 116 90.5 112.866 90.5 109C90.5 105.134 93.634 102 97.5 102C101.366 102 104.5 105.134 104.5 109Z" stroke="#64B4FA" stroke-width="2"/>
<g clip-path="url(#clip0_2031_6560)">
<path d="M80.7681 140V129.818H82.0011V138.906H86.734V140H80.7681ZM90.7312 140.179C90.2473 140.179 89.8081 140.088 89.4137 139.906C89.0193 139.72 88.7061 139.453 88.4741 139.105C88.2421 138.754 88.1261 138.33 88.1261 137.832C88.1261 137.395 88.2122 137.04 88.3846 136.768C88.5569 136.493 88.7873 136.278 89.0756 136.122C89.364 135.966 89.6822 135.85 90.0302 135.774C90.3815 135.695 90.7345 135.632 91.0891 135.585C91.5531 135.526 91.9293 135.481 92.2177 135.451C92.5094 135.418 92.7215 135.363 92.854 135.287C92.9899 135.211 93.0579 135.078 93.0579 134.889V134.849C93.0579 134.359 92.9237 133.978 92.6552 133.706C92.39 133.434 91.9873 133.298 91.4471 133.298C90.887 133.298 90.4478 133.421 90.1296 133.666C89.8114 133.911 89.5877 134.173 89.4585 134.452L88.3448 134.054C88.5437 133.59 88.8088 133.229 89.1403 132.97C89.475 132.708 89.8396 132.526 90.234 132.423C90.6317 132.317 91.0228 132.264 91.4073 132.264C91.6526 132.264 91.9343 132.294 92.2525 132.354C92.574 132.41 92.8839 132.528 93.1822 132.707C93.4838 132.886 93.734 133.156 93.9329 133.517C94.1317 133.878 94.2312 134.362 94.2312 134.969V140H93.0579V138.966H92.9982C92.9187 139.132 92.7861 139.309 92.6005 139.498C92.4149 139.687 92.168 139.848 91.8597 139.98C91.5515 140.113 91.1753 140.179 90.7312 140.179ZM90.9102 139.125C91.3742 139.125 91.7653 139.034 92.0835 138.852C92.4049 138.669 92.6469 138.434 92.8093 138.146C92.975 137.857 93.0579 137.554 93.0579 137.236V136.162C93.0082 136.222 92.8988 136.276 92.7298 136.326C92.564 136.372 92.3718 136.414 92.1531 136.45C91.9376 136.483 91.7272 136.513 91.5217 136.54C91.3195 136.563 91.1554 136.583 91.0295 136.599C90.7246 136.639 90.4395 136.704 90.1744 136.793C89.9125 136.879 89.7004 137.01 89.538 137.186C89.3789 137.358 89.2994 137.594 89.2994 137.892C89.2994 138.3 89.4502 138.608 89.7518 138.817C90.0567 139.022 90.4428 139.125 90.9102 139.125ZM96.5318 140V129.818H97.7051V133.577H97.8045C97.8907 133.444 98.01 133.275 98.1625 133.07C98.3182 132.861 98.5403 132.675 98.8287 132.513C99.1203 132.347 99.5147 132.264 100.012 132.264C100.655 132.264 101.222 132.425 101.712 132.746C102.203 133.068 102.586 133.524 102.861 134.114C103.136 134.704 103.273 135.4 103.273 136.202C103.273 137.01 103.136 137.711 102.861 138.305C102.586 138.895 102.204 139.352 101.717 139.677C101.23 139.998 100.668 140.159 100.032 140.159C99.5413 140.159 99.1485 140.078 98.8535 139.915C98.5585 139.75 98.3315 139.562 98.1724 139.354C98.0133 139.142 97.8907 138.966 97.8045 138.827H97.6653V140H96.5318ZM97.6852 136.182C97.6852 136.759 97.7697 137.267 97.9387 137.708C98.1078 138.146 98.3547 138.489 98.6795 138.737C99.0043 138.982 99.402 139.105 99.8727 139.105C100.363 139.105 100.773 138.976 101.101 138.717C101.432 138.455 101.681 138.104 101.846 137.663C102.015 137.219 102.1 136.725 102.1 136.182C102.1 135.645 102.017 135.161 101.851 134.73C101.689 134.296 101.442 133.953 101.111 133.701C100.782 133.446 100.37 133.318 99.8727 133.318C99.3954 133.318 98.9944 133.439 98.6696 133.681C98.3448 133.92 98.0995 134.254 97.9338 134.685C97.7681 135.113 97.6852 135.612 97.6852 136.182ZM108.27 140.159C107.534 140.159 106.899 139.997 106.366 139.672C105.835 139.344 105.426 138.886 105.138 138.3C104.853 137.71 104.71 137.024 104.71 136.241C104.71 135.459 104.853 134.77 105.138 134.173C105.426 133.573 105.827 133.106 106.341 132.771C106.858 132.433 107.461 132.264 108.15 132.264C108.548 132.264 108.941 132.33 109.329 132.463C109.716 132.596 110.069 132.811 110.388 133.109C110.706 133.404 110.959 133.795 111.148 134.283C111.337 134.77 111.432 135.37 111.432 136.082V136.58H105.545V135.565H110.238C110.238 135.134 110.152 134.75 109.98 134.412C109.811 134.074 109.569 133.807 109.254 133.612C108.943 133.416 108.575 133.318 108.15 133.318C107.683 133.318 107.279 133.434 106.937 133.666C106.599 133.895 106.339 134.193 106.157 134.561C105.974 134.929 105.883 135.323 105.883 135.744V136.42C105.883 136.997 105.983 137.486 106.182 137.887C106.384 138.285 106.664 138.588 107.022 138.797C107.38 139.002 107.796 139.105 108.27 139.105C108.578 139.105 108.856 139.062 109.105 138.976C109.357 138.886 109.574 138.754 109.756 138.578C109.939 138.399 110.079 138.177 110.179 137.912L111.312 138.23C111.193 138.615 110.992 138.953 110.711 139.244C110.429 139.533 110.081 139.758 109.667 139.92C109.252 140.08 108.787 140.159 108.27 140.159ZM114.39 129.818V140H113.216V129.818H114.39Z" fill="white" fill-opacity="0.7"/>
</g>
<rect x="113.5" y="108" width="150" height="2" fill="#8F8F8F"/>
<path d="M286.5 109C286.5 112.866 283.366 116 279.5 116C275.634 116 272.5 112.866 272.5 109C272.5 105.134 275.634 102 279.5 102C283.366 102 286.5 105.134 286.5 109Z" stroke="#64B4FA" stroke-width="2"/>
<g clip-path="url(#clip1_2031_6560)">
<path d="M229.372 133.493C229.319 133.022 229.1 132.658 228.716 132.399C228.331 132.137 227.847 132.006 227.264 132.006C226.847 132.006 226.485 132.073 226.18 132.205C225.875 132.335 225.638 132.513 225.469 132.742C225.304 132.968 225.221 133.224 225.221 133.513C225.221 133.755 225.277 133.964 225.39 134.139C225.506 134.315 225.657 134.462 225.842 134.582C226.031 134.698 226.233 134.795 226.449 134.875C226.664 134.951 226.871 135.014 227.07 135.064L228.065 135.322C228.389 135.402 228.722 135.51 229.064 135.646C229.405 135.781 229.722 135.96 230.013 136.183C230.305 136.405 230.54 136.68 230.719 137.008C230.902 137.336 230.993 137.729 230.993 138.186C230.993 138.763 230.844 139.275 230.545 139.722C230.25 140.17 229.821 140.523 229.258 140.781C228.698 141.04 228.02 141.169 227.224 141.169C226.462 141.169 225.802 141.048 225.246 140.806C224.689 140.564 224.253 140.221 223.938 139.777C223.623 139.33 223.449 138.799 223.416 138.186H224.957C224.987 138.554 225.106 138.861 225.315 139.106C225.527 139.348 225.797 139.528 226.126 139.648C226.457 139.764 226.82 139.822 227.214 139.822C227.649 139.822 228.035 139.754 228.373 139.618C228.714 139.479 228.983 139.286 229.178 139.041C229.374 138.793 229.472 138.503 229.472 138.171C229.472 137.87 229.385 137.623 229.213 137.43C229.044 137.238 228.814 137.079 228.522 136.953C228.234 136.827 227.907 136.716 227.543 136.62L226.339 136.292C225.524 136.07 224.878 135.743 224.4 135.312C223.927 134.882 223.69 134.312 223.69 133.602C223.69 133.016 223.849 132.504 224.167 132.066C224.485 131.629 224.916 131.289 225.459 131.047C226.003 130.802 226.616 130.679 227.299 130.679C227.988 130.679 228.597 130.8 229.123 131.042C229.654 131.284 230.071 131.617 230.376 132.041C230.681 132.462 230.84 132.946 230.854 133.493H229.372ZM236.274 133.364V134.557H232.103V133.364H236.274ZM233.221 131.534H234.708V138.758C234.708 139.046 234.751 139.263 234.837 139.409C234.923 139.552 235.034 139.649 235.17 139.702C235.309 139.752 235.46 139.777 235.623 139.777C235.742 139.777 235.846 139.769 235.936 139.752C236.025 139.736 236.095 139.722 236.145 139.712L236.413 140.94C236.327 140.973 236.204 141.007 236.045 141.04C235.886 141.076 235.687 141.096 235.449 141.099C235.057 141.106 234.693 141.036 234.355 140.891C234.017 140.745 233.743 140.519 233.535 140.214C233.326 139.91 233.221 139.527 233.221 139.066V131.534ZM241.127 141.154C240.375 141.154 239.727 140.993 239.184 140.672C238.643 140.347 238.226 139.891 237.931 139.305C237.639 138.715 237.493 138.024 237.493 137.232C237.493 136.449 237.639 135.76 237.931 135.163C238.226 134.567 238.637 134.101 239.164 133.766C239.694 133.432 240.314 133.264 241.023 133.264C241.454 133.264 241.871 133.335 242.276 133.478C242.68 133.621 243.043 133.844 243.365 134.149C243.686 134.454 243.94 134.85 244.125 135.337C244.311 135.821 244.404 136.41 244.404 137.102V137.629H238.333V136.516H242.947C242.947 136.125 242.867 135.778 242.708 135.477C242.549 135.172 242.326 134.931 242.037 134.756C241.752 134.58 241.417 134.492 241.033 134.492C240.615 134.492 240.251 134.595 239.939 134.8C239.631 135.003 239.392 135.268 239.223 135.596C239.058 135.921 238.975 136.274 238.975 136.655V137.525C238.975 138.035 239.064 138.469 239.243 138.827C239.425 139.185 239.679 139.459 240.004 139.648C240.329 139.833 240.708 139.926 241.142 139.926C241.424 139.926 241.681 139.886 241.913 139.807C242.145 139.724 242.345 139.601 242.514 139.439C242.684 139.277 242.813 139.076 242.902 138.837L244.309 139.091C244.197 139.505 243.994 139.868 243.703 140.18C243.414 140.488 243.051 140.728 242.614 140.901C242.18 141.07 241.684 141.154 241.127 141.154ZM246.053 143.864V133.364H247.505V134.602H247.629C247.715 134.442 247.839 134.259 248.002 134.05C248.164 133.841 248.39 133.659 248.678 133.503C248.966 133.344 249.348 133.264 249.821 133.264C250.438 133.264 250.988 133.42 251.472 133.732C251.956 134.043 252.335 134.492 252.611 135.079C252.889 135.665 253.028 136.371 253.028 137.197C253.028 138.022 252.891 138.73 252.616 139.32C252.34 139.906 251.963 140.359 251.482 140.677C251.001 140.992 250.453 141.149 249.836 141.149C249.372 141.149 248.993 141.071 248.698 140.915C248.406 140.76 248.178 140.577 248.012 140.369C247.846 140.16 247.718 139.974 247.629 139.812H247.54V143.864H246.053ZM247.51 137.182C247.51 137.719 247.588 138.189 247.743 138.594C247.899 138.998 248.124 139.315 248.419 139.543C248.714 139.769 249.076 139.881 249.503 139.881C249.947 139.881 250.319 139.764 250.617 139.528C250.915 139.29 251.141 138.967 251.293 138.559C251.449 138.151 251.527 137.692 251.527 137.182C251.527 136.678 251.45 136.226 251.298 135.825C251.149 135.424 250.924 135.107 250.622 134.875C250.324 134.643 249.951 134.527 249.503 134.527C249.072 134.527 248.708 134.638 248.41 134.86C248.115 135.082 247.891 135.392 247.738 135.79C247.586 136.187 247.51 136.652 247.51 137.182ZM259.885 130.818V141H258.399V130.818H259.885ZM264.107 141.169C263.623 141.169 263.186 141.08 262.795 140.901C262.404 140.718 262.094 140.455 261.865 140.11C261.64 139.765 261.527 139.343 261.527 138.842C261.527 138.411 261.61 138.057 261.776 137.778C261.941 137.5 262.165 137.28 262.447 137.117C262.729 136.955 263.043 136.832 263.391 136.749C263.739 136.666 264.094 136.603 264.455 136.56C264.913 136.507 265.284 136.464 265.569 136.431C265.854 136.395 266.061 136.337 266.19 136.257C266.32 136.178 266.384 136.048 266.384 135.869V135.835C266.384 135.4 266.262 135.064 266.016 134.825C265.774 134.587 265.413 134.467 264.933 134.467C264.432 134.467 264.038 134.578 263.749 134.8C263.464 135.019 263.267 135.263 263.158 135.531L261.761 135.213C261.926 134.749 262.168 134.375 262.487 134.089C262.808 133.801 263.178 133.592 263.595 133.463C264.013 133.33 264.452 133.264 264.913 133.264C265.218 133.264 265.541 133.301 265.882 133.374C266.227 133.443 266.548 133.572 266.847 133.761C267.148 133.95 267.395 134.22 267.587 134.572C267.78 134.92 267.876 135.372 267.876 135.929V141H266.424V139.956H266.364C266.268 140.148 266.124 140.337 265.932 140.523C265.74 140.708 265.493 140.862 265.191 140.985C264.89 141.108 264.528 141.169 264.107 141.169ZM264.43 139.976C264.841 139.976 265.193 139.895 265.484 139.732C265.779 139.57 266.003 139.358 266.156 139.096C266.311 138.831 266.389 138.547 266.389 138.246V137.261C266.336 137.314 266.234 137.364 266.081 137.411C265.932 137.454 265.761 137.492 265.569 137.525C265.377 137.555 265.189 137.583 265.007 137.609C264.825 137.633 264.672 137.652 264.55 137.669C264.261 137.705 263.998 137.767 263.759 137.853C263.524 137.939 263.335 138.063 263.193 138.226C263.053 138.385 262.984 138.597 262.984 138.862C262.984 139.23 263.12 139.509 263.391 139.697C263.663 139.883 264.01 139.976 264.43 139.976ZM269.975 141V130.818H271.462V134.602H271.551C271.637 134.442 271.762 134.259 271.924 134.05C272.086 133.841 272.312 133.659 272.6 133.503C272.888 133.344 273.27 133.264 273.744 133.264C274.36 133.264 274.91 133.42 275.394 133.732C275.878 134.043 276.257 134.492 276.533 135.079C276.811 135.665 276.95 136.371 276.95 137.197C276.95 138.022 276.813 138.73 276.538 139.32C276.262 139.906 275.885 140.359 275.404 140.677C274.923 140.992 274.375 141.149 273.758 141.149C273.294 141.149 272.915 141.071 272.62 140.915C272.328 140.76 272.1 140.577 271.934 140.369C271.768 140.16 271.641 139.974 271.551 139.812H271.427V141H269.975ZM271.432 137.182C271.432 137.719 271.51 138.189 271.665 138.594C271.821 138.998 272.047 139.315 272.342 139.543C272.637 139.769 272.998 139.881 273.425 139.881C273.869 139.881 274.241 139.764 274.539 139.528C274.837 139.29 275.063 138.967 275.215 138.559C275.371 138.151 275.449 137.692 275.449 137.182C275.449 136.678 275.373 136.226 275.22 135.825C275.071 135.424 274.846 135.107 274.544 134.875C274.246 134.643 273.873 134.527 273.425 134.527C272.994 134.527 272.63 134.638 272.332 134.86C272.037 135.082 271.813 135.392 271.66 135.79C271.508 136.187 271.432 136.652 271.432 137.182ZM281.911 141.154C281.158 141.154 280.51 140.993 279.967 140.672C279.426 140.347 279.009 139.891 278.714 139.305C278.422 138.715 278.276 138.024 278.276 137.232C278.276 136.449 278.422 135.76 278.714 135.163C279.009 134.567 279.42 134.101 279.947 133.766C280.477 133.432 281.097 133.264 281.806 133.264C282.237 133.264 282.655 133.335 283.059 133.478C283.463 133.621 283.826 133.844 284.148 134.149C284.469 134.454 284.723 134.85 284.908 135.337C285.094 135.821 285.187 136.41 285.187 137.102V137.629H279.117V136.516H283.73C283.73 136.125 283.651 135.778 283.492 135.477C283.332 135.172 283.109 134.931 282.82 134.756C282.535 134.58 282.201 134.492 281.816 134.492C281.399 134.492 281.034 134.595 280.722 134.8C280.414 135.003 280.176 135.268 280.006 135.596C279.841 135.921 279.758 136.274 279.758 136.655V137.525C279.758 138.035 279.847 138.469 280.026 138.827C280.209 139.185 280.462 139.459 280.787 139.648C281.112 139.833 281.491 139.926 281.926 139.926C282.207 139.926 282.464 139.886 282.696 139.807C282.928 139.724 283.129 139.601 283.298 139.439C283.467 139.277 283.596 139.076 283.685 138.837L285.092 139.091C284.98 139.505 284.778 139.868 284.486 140.18C284.198 140.488 283.835 140.728 283.397 140.901C282.963 141.07 282.467 141.154 281.911 141.154ZM288.323 130.818V141H286.836V130.818H288.323ZM294.822 136.053V137.341H290.308V136.053H294.822ZM299.025 141.169C298.541 141.169 298.104 141.08 297.713 140.901C297.322 140.718 297.012 140.455 296.783 140.11C296.558 139.765 296.445 139.343 296.445 138.842C296.445 138.411 296.528 138.057 296.694 137.778C296.859 137.5 297.083 137.28 297.365 137.117C297.647 136.955 297.961 136.832 298.309 136.749C298.657 136.666 299.012 136.603 299.373 136.56C299.831 136.507 300.202 136.464 300.487 136.431C300.772 136.395 300.979 136.337 301.108 136.257C301.238 136.178 301.302 136.048 301.302 135.869V135.835C301.302 135.4 301.18 135.064 300.934 134.825C300.692 134.587 300.331 134.467 299.851 134.467C299.35 134.467 298.956 134.578 298.667 134.8C298.382 135.019 298.185 135.263 298.076 135.531L296.679 135.213C296.844 134.749 297.086 134.375 297.405 134.089C297.726 133.801 298.096 133.592 298.513 133.463C298.931 133.33 299.37 133.264 299.831 133.264C300.136 133.264 300.459 133.301 300.8 133.374C301.145 133.443 301.466 133.572 301.765 133.761C302.066 133.95 302.313 134.22 302.505 134.572C302.698 134.92 302.794 135.372 302.794 135.929V141H301.342V139.956H301.282C301.186 140.148 301.042 140.337 300.85 140.523C300.658 140.708 300.411 140.862 300.109 140.985C299.807 141.108 299.446 141.169 299.025 141.169ZM299.348 139.976C299.759 139.976 300.111 139.895 300.402 139.732C300.697 139.57 300.921 139.358 301.074 139.096C301.229 138.831 301.307 138.547 301.307 138.246V137.261C301.254 137.314 301.151 137.364 300.999 137.411C300.85 137.454 300.679 137.492 300.487 137.525C300.295 137.555 300.107 137.583 299.925 137.609C299.743 137.633 299.59 137.652 299.468 137.669C299.179 137.705 298.916 137.767 298.677 137.853C298.442 137.939 298.253 138.063 298.111 138.226C297.971 138.385 297.902 138.597 297.902 138.862C297.902 139.23 298.038 139.509 298.309 139.697C298.581 139.883 298.928 139.976 299.348 139.976ZM307.99 141.154C307.251 141.154 306.615 140.987 306.081 140.652C305.551 140.314 305.143 139.848 304.858 139.255C304.573 138.662 304.431 137.982 304.431 137.217C304.431 136.441 304.576 135.757 304.868 135.163C305.16 134.567 305.571 134.101 306.101 133.766C306.631 133.432 307.256 133.264 307.975 133.264C308.555 133.264 309.072 133.372 309.527 133.587C309.981 133.799 310.347 134.098 310.625 134.482C310.907 134.867 311.074 135.316 311.127 135.83H309.681C309.601 135.472 309.419 135.163 309.134 134.905C308.852 134.646 308.474 134.517 308 134.517C307.586 134.517 307.223 134.626 306.911 134.845C306.603 135.061 306.363 135.369 306.191 135.77C306.018 136.168 305.932 136.638 305.932 137.182C305.932 137.739 306.017 138.219 306.186 138.624C306.355 139.028 306.593 139.341 306.902 139.563C307.213 139.785 307.579 139.896 308 139.896C308.282 139.896 308.537 139.845 308.766 139.742C308.998 139.636 309.192 139.485 309.348 139.29C309.507 139.094 309.618 138.859 309.681 138.584H311.127C311.074 139.078 310.914 139.518 310.645 139.906C310.377 140.294 310.017 140.599 309.566 140.821C309.119 141.043 308.594 141.154 307.99 141.154ZM316.282 133.364V134.557H312.111V133.364H316.282ZM313.229 131.534H314.716V138.758C314.716 139.046 314.759 139.263 314.845 139.409C314.931 139.552 315.042 139.649 315.178 139.702C315.317 139.752 315.468 139.777 315.63 139.777C315.75 139.777 315.854 139.769 315.944 139.752C316.033 139.736 316.103 139.722 316.152 139.712L316.421 140.94C316.335 140.973 316.212 141.007 316.053 141.04C315.894 141.076 315.695 141.096 315.456 141.099C315.065 141.106 314.701 141.036 314.363 140.891C314.025 140.745 313.751 140.519 313.542 140.214C313.334 139.91 313.229 139.527 313.229 139.066V131.534ZM317.926 141V133.364H319.413V141H317.926ZM318.677 132.185C318.418 132.185 318.196 132.099 318.011 131.927C317.828 131.751 317.737 131.542 317.737 131.3C317.737 131.055 317.828 130.846 318.011 130.674C318.196 130.498 318.418 130.411 318.677 130.411C318.935 130.411 319.156 130.498 319.338 130.674C319.524 130.846 319.616 131.055 319.616 131.3C319.616 131.542 319.524 131.751 319.338 131.927C319.156 132.099 318.935 132.185 318.677 132.185ZM327.945 133.364L325.176 141H323.585L320.811 133.364H322.407L324.341 139.24H324.42L326.349 133.364H327.945ZM332.373 141.154C331.621 141.154 330.973 140.993 330.43 140.672C329.889 140.347 329.472 139.891 329.177 139.305C328.885 138.715 328.739 138.024 328.739 137.232C328.739 136.449 328.885 135.76 329.177 135.163C329.472 134.567 329.883 134.101 330.41 133.766C330.94 133.432 331.56 133.264 332.269 133.264C332.7 133.264 333.118 133.335 333.522 133.478C333.926 133.621 334.289 133.844 334.611 134.149C334.932 134.454 335.186 134.85 335.371 135.337C335.557 135.821 335.65 136.41 335.65 137.102V137.629H329.579V136.516H334.193C334.193 136.125 334.114 135.778 333.954 135.477C333.795 135.172 333.572 134.931 333.283 134.756C332.998 134.58 332.664 134.492 332.279 134.492C331.861 134.492 331.497 134.595 331.185 134.8C330.877 135.003 330.638 135.268 330.469 135.596C330.304 135.921 330.221 136.274 330.221 136.655V137.525C330.221 138.035 330.31 138.469 330.489 138.827C330.672 139.185 330.925 139.459 331.25 139.648C331.575 139.833 331.954 139.926 332.388 139.926C332.67 139.926 332.927 139.886 333.159 139.807C333.391 139.724 333.592 139.601 333.761 139.439C333.93 139.277 334.059 139.076 334.148 138.837L335.555 139.091C335.443 139.505 335.24 139.868 334.949 140.18C334.66 140.488 334.297 140.728 333.86 140.901C333.426 141.07 332.93 141.154 332.373 141.154Z" fill="white" fill-opacity="0.95"/>
</g>
<rect x="295.5" y="108" width="150" height="2" fill="#8F8F8F"/>
<path fill-rule="evenodd" clip-rule="evenodd" d="M461.5 117C465.918 117 469.5 113.418 469.5 109C469.5 104.582 465.918 101 461.5 101C457.082 101 453.5 104.582 453.5 109C453.5 113.418 457.082 117 461.5 117Z" fill="#3492EB"/>
<g clip-path="url(#clip2_2031_6560)">
<path d="M429.705 140H428.123L427.129 137.452H422.327L421.319 140H419.821L423.965 129.92H425.575L429.705 140ZM424.749 131.348L422.789 136.29H426.667L424.749 131.348ZM434.942 138.026C434.942 137.615 434.727 137.307 434.298 137.102C434.046 136.99 433.556 136.85 432.828 136.682C431.932 136.486 431.293 136.201 430.91 135.828C430.593 135.511 430.434 135.095 430.434 134.582C430.434 133.901 430.709 133.378 431.26 133.014C431.755 132.678 432.422 132.51 433.262 132.51C434.13 132.51 434.835 132.725 435.376 133.154C435.843 133.527 436.132 134.022 436.244 134.638H434.872C434.713 133.929 434.172 133.574 433.248 133.574C432.735 133.574 432.352 133.667 432.1 133.854C431.895 134.013 431.792 134.213 431.792 134.456C431.792 134.755 431.904 134.979 432.128 135.128C432.361 135.277 432.814 135.427 433.486 135.576C434.513 135.8 435.227 136.075 435.628 136.402C436.076 136.766 436.3 137.275 436.3 137.928C436.3 138.656 436.001 139.23 435.404 139.65C434.863 140.023 434.149 140.21 433.262 140.21C432.291 140.21 431.521 139.977 430.952 139.51C430.457 139.099 430.182 138.567 430.126 137.914H431.498C431.647 138.735 432.24 139.146 433.276 139.146C433.836 139.146 434.27 139.025 434.578 138.782C434.821 138.586 434.942 138.334 434.942 138.026ZM441.997 138.026C441.997 137.615 441.782 137.307 441.353 137.102C441.101 136.99 440.611 136.85 439.883 136.682C438.987 136.486 438.347 136.201 437.965 135.828C437.647 135.511 437.489 135.095 437.489 134.582C437.489 133.901 437.764 133.378 438.315 133.014C438.809 132.678 439.477 132.51 440.317 132.51C441.185 132.51 441.889 132.725 442.431 133.154C442.897 133.527 443.187 134.022 443.299 134.638H441.927C441.768 133.929 441.227 133.574 440.303 133.574C439.789 133.574 439.407 133.667 439.155 133.854C438.949 134.013 438.847 134.213 438.847 134.456C438.847 134.755 438.959 134.979 439.183 135.128C439.416 135.277 439.869 135.427 440.541 135.576C441.567 135.8 442.281 136.075 442.683 136.402C443.131 136.766 443.355 137.275 443.355 137.928C443.355 138.656 443.056 139.23 442.459 139.65C441.917 140.023 441.203 140.21 440.317 140.21C439.346 140.21 438.576 139.977 438.007 139.51C437.512 139.099 437.237 138.567 437.181 137.914H438.553C438.702 138.735 439.295 139.146 440.331 139.146C440.891 139.146 441.325 139.025 441.633 138.782C441.875 138.586 441.997 138.334 441.997 138.026ZM446.319 131.502H444.807V129.92H446.319V131.502ZM446.235 140H444.891V132.72H446.235V140ZM448.116 140.49H449.558C449.623 140.863 449.81 141.153 450.118 141.358C450.435 141.563 450.85 141.666 451.364 141.666C452.082 141.666 452.619 141.479 452.974 141.106C453.272 140.789 453.422 140.345 453.422 139.776V138.838C452.88 139.473 452.073 139.79 451 139.79C450.029 139.79 449.24 139.44 448.634 138.74C448.064 138.087 447.78 137.237 447.78 136.192C447.78 134.979 448.125 134.041 448.816 133.378C449.404 132.799 450.16 132.51 451.084 132.51C452.129 132.51 452.918 132.902 453.45 133.686L453.66 132.72H454.766V139.846C454.766 140.761 454.434 141.479 453.772 142.002C453.174 142.487 452.386 142.73 451.406 142.73C450.388 142.73 449.59 142.501 449.012 142.044C448.526 141.661 448.228 141.143 448.116 140.49ZM449.18 136.22C449.18 137.013 449.413 137.634 449.88 138.082C450.262 138.455 450.734 138.642 451.294 138.642C452.031 138.642 452.596 138.399 452.988 137.914C453.324 137.503 453.492 136.953 453.492 136.262C453.492 135.375 453.263 134.699 452.806 134.232C452.423 133.849 451.919 133.658 451.294 133.658C450.603 133.658 450.071 133.896 449.698 134.372C449.352 134.82 449.18 135.436 449.18 136.22ZM458.075 140H456.731V132.72H457.837L457.991 133.644C458.532 132.888 459.27 132.51 460.203 132.51C461.062 132.51 461.72 132.776 462.177 133.308C462.578 133.784 462.779 134.433 462.779 135.254V140H461.435V135.268C461.435 134.195 460.917 133.658 459.881 133.658C459.34 133.658 458.896 133.845 458.551 134.218C458.234 134.554 458.075 134.983 458.075 135.506V140ZM468.802 132.72H470.146V137.494C470.146 138.539 470.65 139.062 471.658 139.062C472.274 139.062 472.745 138.843 473.072 138.404C473.324 138.068 473.45 137.653 473.45 137.158V132.72H474.794V140H473.688L473.534 139.16C473.02 139.86 472.292 140.21 471.35 140.21C470.519 140.21 469.88 139.953 469.432 139.44C469.012 138.964 468.802 138.306 468.802 137.466V132.72ZM481.016 138.026C481.016 137.615 480.802 137.307 480.372 137.102C480.12 136.99 479.63 136.85 478.902 136.682C478.006 136.486 477.367 136.201 476.984 135.828C476.667 135.511 476.508 135.095 476.508 134.582C476.508 133.901 476.784 133.378 477.334 133.014C477.829 132.678 478.496 132.51 479.336 132.51C480.204 132.51 480.909 132.725 481.45 133.154C481.917 133.527 482.206 134.022 482.318 134.638H480.946C480.788 133.929 480.246 133.574 479.322 133.574C478.809 133.574 478.426 133.667 478.174 133.854C477.969 134.013 477.866 134.213 477.866 134.456C477.866 134.755 477.978 134.979 478.202 135.128C478.436 135.277 478.888 135.427 479.56 135.576C480.587 135.8 481.301 136.075 481.702 136.402C482.15 136.766 482.374 137.275 482.374 137.928C482.374 138.656 482.076 139.23 481.478 139.65C480.937 140.023 480.223 140.21 479.336 140.21C478.366 140.21 477.596 139.977 477.026 139.51C476.532 139.099 476.256 138.567 476.2 137.914H477.572C477.722 138.735 478.314 139.146 479.35 139.146C479.91 139.146 480.344 139.025 480.652 138.782C480.895 138.586 481.016 138.334 481.016 138.026ZM488.867 137.9H490.323C490.117 138.637 489.711 139.216 489.105 139.636C488.535 140.019 487.854 140.21 487.061 140.21C485.913 140.21 485.017 139.846 484.373 139.118C483.785 138.437 483.491 137.517 483.491 136.36C483.491 135.044 483.864 134.045 484.611 133.364C485.227 132.795 486.02 132.51 486.991 132.51C488.129 132.51 488.988 132.879 489.567 133.616C490.127 134.325 490.407 135.338 490.407 136.654H484.863C484.919 137.513 485.18 138.152 485.647 138.572C486.029 138.908 486.515 139.076 487.103 139.076C487.56 139.076 487.957 138.95 488.293 138.698C488.573 138.483 488.764 138.217 488.867 137.9ZM487.019 133.588C486.421 133.588 485.941 133.775 485.577 134.148C485.231 134.493 485.012 134.974 484.919 135.59H489.035C488.988 134.89 488.755 134.367 488.335 134.022C487.999 133.733 487.56 133.588 487.019 133.588ZM493.362 140H492.018V132.72H493.124L493.306 133.798C493.717 132.939 494.333 132.51 495.154 132.51C495.425 132.51 495.691 132.543 495.952 132.608V133.952C495.635 133.868 495.35 133.826 495.098 133.826C494.557 133.826 494.132 134.045 493.824 134.484C493.516 134.923 493.362 135.543 493.362 136.346V140ZM501.264 138.026C501.264 137.615 501.05 137.307 500.62 137.102C500.368 136.99 499.878 136.85 499.15 136.682C498.254 136.486 497.615 136.201 497.232 135.828C496.915 135.511 496.756 135.095 496.756 134.582C496.756 133.901 497.032 133.378 497.582 133.014C498.077 132.678 498.744 132.51 499.584 132.51C500.452 132.51 501.157 132.725 501.698 133.154C502.165 133.527 502.454 134.022 502.566 134.638H501.194C501.036 133.929 500.494 133.574 499.57 133.574C499.057 133.574 498.674 133.667 498.422 133.854C498.217 134.013 498.114 134.213 498.114 134.456C498.114 134.755 498.226 134.979 498.45 135.128C498.684 135.277 499.136 135.427 499.808 135.576C500.835 135.8 501.549 136.075 501.95 136.402C502.398 136.766 502.622 137.275 502.622 137.928C502.622 138.656 502.324 139.23 501.726 139.65C501.185 140.023 500.471 140.21 499.584 140.21C498.614 140.21 497.844 139.977 497.274 139.51C496.78 139.099 496.504 138.567 496.448 137.914H497.82C497.97 138.735 498.562 139.146 499.598 139.146C500.158 139.146 500.592 139.025 500.9 138.782C501.143 138.586 501.264 138.334 501.264 138.026Z" fill="white" fill-opacity="0.95"/>
</g>
<defs>
<clipPath id="clip0_2031_6560">
<rect width="36" height="20" fill="white" transform="translate(79.5 125)"/>
</clipPath>
<clipPath id="clip1_2031_6560">
<rect width="114" height="21" fill="white" transform="translate(222.5 125)"/>
</clipPath>
<clipPath id="clip2_2031_6560">
<rect width="160" height="21" fill="white" transform="translate(381.5 125)"/>
</clipPath>
</defs>
</svg>
