<svg width="559" height="245" viewBox="0 0 559 245" fill="none" xmlns="http://www.w3.org/2000/svg">
<rect width="559" height="245" rx="16" fill="#1A1A1A"/>
<path d="M104.5 108C104.5 111.866 101.366 115 97.5 115C93.634 115 90.5 111.866 90.5 108C90.5 104.134 93.634 101 97.5 101C101.366 101 104.5 104.134 104.5 108Z" stroke="#64B4FA" stroke-width="2"/>
<g clip-path="url(#clip0_2031_6175)">
<path d="M80.7681 139V128.818H82.0011V137.906H86.734V139H80.7681ZM90.7312 139.179C90.2473 139.179 89.8081 139.088 89.4137 138.906C89.0193 138.72 88.7061 138.453 88.4741 138.105C88.2421 137.754 88.1261 137.33 88.1261 136.832C88.1261 136.395 88.2122 136.04 88.3846 135.768C88.5569 135.493 88.7873 135.278 89.0756 135.122C89.364 134.966 89.6822 134.85 90.0302 134.774C90.3815 134.695 90.7345 134.632 91.0891 134.585C91.5531 134.526 91.9293 134.481 92.2177 134.451C92.5094 134.418 92.7215 134.363 92.854 134.287C92.9899 134.211 93.0579 134.078 93.0579 133.889V133.849C93.0579 133.359 92.9237 132.978 92.6552 132.706C92.39 132.434 91.9873 132.298 91.4471 132.298C90.887 132.298 90.4478 132.421 90.1296 132.666C89.8114 132.911 89.5877 133.173 89.4585 133.452L88.3448 133.054C88.5437 132.59 88.8088 132.229 89.1403 131.97C89.475 131.708 89.8396 131.526 90.234 131.423C90.6317 131.317 91.0228 131.264 91.4073 131.264C91.6526 131.264 91.9343 131.294 92.2525 131.354C92.574 131.41 92.8839 131.528 93.1822 131.707C93.4838 131.886 93.734 132.156 93.9329 132.517C94.1317 132.878 94.2312 133.362 94.2312 133.969V139H93.0579V137.966H92.9982C92.9187 138.132 92.7861 138.309 92.6005 138.498C92.4149 138.687 92.168 138.848 91.8597 138.98C91.5515 139.113 91.1753 139.179 90.7312 139.179ZM90.9102 138.125C91.3742 138.125 91.7653 138.034 92.0835 137.852C92.4049 137.669 92.6469 137.434 92.8093 137.146C92.975 136.857 93.0579 136.554 93.0579 136.236V135.162C93.0082 135.222 92.8988 135.276 92.7298 135.326C92.564 135.372 92.3718 135.414 92.1531 135.45C91.9376 135.483 91.7272 135.513 91.5217 135.54C91.3195 135.563 91.1554 135.583 91.0295 135.599C90.7246 135.639 90.4395 135.704 90.1744 135.793C89.9125 135.879 89.7004 136.01 89.538 136.186C89.3789 136.358 89.2994 136.594 89.2994 136.892C89.2994 137.3 89.4502 137.608 89.7518 137.817C90.0567 138.022 90.4428 138.125 90.9102 138.125ZM96.5318 139V128.818H97.7051V132.577H97.8045C97.8907 132.444 98.01 132.275 98.1625 132.07C98.3182 131.861 98.5403 131.675 98.8287 131.513C99.1203 131.347 99.5147 131.264 100.012 131.264C100.655 131.264 101.222 131.425 101.712 131.746C102.203 132.068 102.586 132.524 102.861 133.114C103.136 133.704 103.273 134.4 103.273 135.202C103.273 136.01 103.136 136.711 102.861 137.305C102.586 137.895 102.204 138.352 101.717 138.677C101.23 138.998 100.668 139.159 100.032 139.159C99.5413 139.159 99.1485 139.078 98.8535 138.915C98.5585 138.75 98.3315 138.562 98.1724 138.354C98.0133 138.142 97.8907 137.966 97.8045 137.827H97.6653V139H96.5318ZM97.6852 135.182C97.6852 135.759 97.7697 136.267 97.9387 136.708C98.1078 137.146 98.3547 137.489 98.6795 137.737C99.0043 137.982 99.402 138.105 99.8727 138.105C100.363 138.105 100.773 137.976 101.101 137.717C101.432 137.455 101.681 137.104 101.846 136.663C102.015 136.219 102.1 135.725 102.1 135.182C102.1 134.645 102.017 134.161 101.851 133.73C101.689 133.296 101.442 132.953 101.111 132.701C100.782 132.446 100.37 132.318 99.8727 132.318C99.3954 132.318 98.9944 132.439 98.6696 132.681C98.3448 132.92 98.0995 133.254 97.9338 133.685C97.7681 134.113 97.6852 134.612 97.6852 135.182ZM108.27 139.159C107.534 139.159 106.899 138.997 106.366 138.672C105.835 138.344 105.426 137.886 105.138 137.3C104.853 136.71 104.71 136.024 104.71 135.241C104.71 134.459 104.853 133.77 105.138 133.173C105.426 132.573 105.827 132.106 106.341 131.771C106.858 131.433 107.461 131.264 108.15 131.264C108.548 131.264 108.941 131.33 109.329 131.463C109.716 131.596 110.069 131.811 110.388 132.109C110.706 132.404 110.959 132.795 111.148 133.283C111.337 133.77 111.432 134.37 111.432 135.082V135.58H105.545V134.565H110.238C110.238 134.134 110.152 133.75 109.98 133.412C109.811 133.074 109.569 132.807 109.254 132.612C108.943 132.416 108.575 132.318 108.15 132.318C107.683 132.318 107.279 132.434 106.937 132.666C106.599 132.895 106.339 133.193 106.157 133.561C105.974 133.929 105.883 134.323 105.883 134.744V135.42C105.883 135.997 105.983 136.486 106.182 136.887C106.384 137.285 106.664 137.588 107.022 137.797C107.38 138.002 107.796 138.105 108.27 138.105C108.578 138.105 108.856 138.062 109.105 137.976C109.357 137.886 109.574 137.754 109.756 137.578C109.939 137.399 110.079 137.177 110.179 136.912L111.312 137.23C111.193 137.615 110.992 137.953 110.711 138.244C110.429 138.533 110.081 138.758 109.667 138.92C109.252 139.08 108.787 139.159 108.27 139.159ZM114.39 128.818V139H113.216V128.818H114.39Z" fill="white" fill-opacity="0.7"/>
</g>
<rect x="113.5" y="107" width="150" height="2" fill="#8F8F8F"/>
<path d="M286.5 108C286.5 111.866 283.366 115 279.5 115C275.634 115 272.5 111.866 272.5 108C272.5 104.134 275.634 101 279.5 101C283.366 101 286.5 104.134 286.5 108Z" stroke="#F55868" stroke-width="2"/>
<g clip-path="url(#clip1_2031_6175)">
<path d="M243.869 131.706L240.793 128.631C240.712 128.55 240.616 128.485 240.51 128.441C240.403 128.397 240.29 128.374 240.175 128.375H235.825C235.71 128.375 235.596 128.397 235.49 128.441C235.384 128.485 235.288 128.549 235.207 128.631L232.13 131.708C232.049 131.789 231.985 131.885 231.941 131.991C231.897 132.097 231.875 132.21 231.875 132.325V136.675C231.876 136.906 231.968 137.128 232.131 137.293L235.207 140.369C235.288 140.45 235.384 140.515 235.49 140.559C235.596 140.603 235.71 140.625 235.825 140.625H240.175C240.407 140.624 240.629 140.532 240.793 140.369L243.868 137.294C244.032 137.129 244.124 136.907 244.125 136.675V132.325C244.124 132.093 244.032 131.871 243.869 131.706ZM240.175 139.75L235.826 139.75L232.75 136.675L232.75 132.326L235.825 129.25H240.175L243.25 132.325L243.25 136.674L240.175 139.75Z" fill="#FC8B98"/>
<path d="M240.059 132.44C240.019 132.4 239.97 132.368 239.917 132.346C239.864 132.324 239.807 132.312 239.75 132.312C239.693 132.312 239.636 132.324 239.583 132.346C239.53 132.368 239.481 132.4 239.441 132.44L238 133.881L236.559 132.44C236.519 132.4 236.47 132.367 236.417 132.345C236.364 132.323 236.307 132.312 236.25 132.312C236.192 132.312 236.135 132.323 236.082 132.345C236.029 132.367 235.981 132.399 235.94 132.44C235.899 132.481 235.867 132.529 235.845 132.582C235.823 132.635 235.812 132.692 235.812 132.75C235.812 132.807 235.823 132.864 235.845 132.917C235.868 132.97 235.9 133.018 235.941 133.059L237.381 134.5L235.941 135.94C235.9 135.981 235.868 136.029 235.845 136.082C235.823 136.136 235.812 136.192 235.812 136.25C235.812 136.307 235.823 136.364 235.845 136.418C235.867 136.471 235.899 136.519 235.94 136.56C235.981 136.6 236.029 136.633 236.082 136.655C236.135 136.677 236.192 136.688 236.25 136.688C236.307 136.688 236.364 136.676 236.417 136.654C236.47 136.632 236.519 136.6 236.559 136.559L238 135.118L239.441 136.559C239.481 136.6 239.529 136.632 239.583 136.654C239.636 136.676 239.693 136.688 239.75 136.688C239.808 136.688 239.865 136.677 239.918 136.655C239.971 136.633 240.019 136.6 240.06 136.56C240.101 136.519 240.133 136.471 240.155 136.418C240.177 136.364 240.188 136.307 240.188 136.25C240.188 136.192 240.177 136.136 240.154 136.082C240.132 136.029 240.1 135.981 240.059 135.94L238.619 134.5L240.059 133.059C240.1 133.018 240.132 132.97 240.154 132.917C240.176 132.864 240.188 132.807 240.188 132.75C240.188 132.692 240.176 132.635 240.154 132.582C240.132 132.529 240.1 132.481 240.059 132.44Z" fill="#FC8B98"/>
<path d="M250.233 140V129.818H251.466V138.906H256.199V140H250.233ZM261.051 140.159C260.362 140.159 259.757 139.995 259.237 139.667C258.719 139.339 258.315 138.88 258.023 138.29C257.735 137.7 257.591 137.01 257.591 136.222C257.591 135.426 257.735 134.732 258.023 134.138C258.315 133.545 258.719 133.085 259.237 132.756C259.757 132.428 260.362 132.264 261.051 132.264C261.741 132.264 262.344 132.428 262.861 132.756C263.381 133.085 263.786 133.545 264.074 134.138C264.366 134.732 264.511 135.426 264.511 136.222C264.511 137.01 264.366 137.7 264.074 138.29C263.786 138.88 263.381 139.339 262.861 139.667C262.344 139.995 261.741 140.159 261.051 140.159ZM261.051 139.105C261.575 139.105 262.006 138.971 262.344 138.702C262.682 138.434 262.932 138.081 263.094 137.643C263.257 137.206 263.338 136.732 263.338 136.222C263.338 135.711 263.257 135.236 263.094 134.795C262.932 134.354 262.682 133.998 262.344 133.726C262.006 133.454 261.575 133.318 261.051 133.318C260.527 133.318 260.097 133.454 259.759 133.726C259.42 133.998 259.17 134.354 259.008 134.795C258.845 135.236 258.764 135.711 258.764 136.222C258.764 136.732 258.845 137.206 259.008 137.643C259.17 138.081 259.42 138.434 259.759 138.702C260.097 138.971 260.527 139.105 261.051 139.105ZM269.405 140.159C268.689 140.159 268.072 139.99 267.555 139.652C267.038 139.314 266.64 138.848 266.362 138.255C266.084 137.662 265.944 136.984 265.944 136.222C265.944 135.446 266.087 134.762 266.372 134.168C266.66 133.572 267.061 133.106 267.575 132.771C268.092 132.433 268.695 132.264 269.385 132.264C269.922 132.264 270.406 132.364 270.836 132.562C271.267 132.761 271.62 133.04 271.895 133.398C272.171 133.756 272.341 134.173 272.407 134.651H271.234C271.145 134.303 270.946 133.994 270.638 133.726C270.333 133.454 269.922 133.318 269.405 133.318C268.947 133.318 268.546 133.437 268.202 133.676C267.86 133.911 267.593 134.245 267.401 134.675C267.212 135.103 267.118 135.605 267.118 136.182C267.118 136.772 267.211 137.286 267.396 137.723C267.585 138.161 267.85 138.5 268.192 138.742C268.536 138.984 268.941 139.105 269.405 139.105C269.71 139.105 269.986 139.052 270.235 138.946C270.483 138.84 270.694 138.688 270.866 138.489C271.039 138.29 271.161 138.051 271.234 137.773H272.407C272.341 138.223 272.177 138.629 271.915 138.991C271.657 139.349 271.314 139.634 270.886 139.846C270.462 140.055 269.968 140.159 269.405 140.159ZM276.37 140.179C275.886 140.179 275.447 140.088 275.052 139.906C274.658 139.72 274.345 139.453 274.113 139.105C273.881 138.754 273.765 138.33 273.765 137.832C273.765 137.395 273.851 137.04 274.023 136.768C274.196 136.493 274.426 136.278 274.714 136.122C275.003 135.966 275.321 135.85 275.669 135.774C276.02 135.695 276.373 135.632 276.728 135.585C277.192 135.526 277.568 135.481 277.856 135.451C278.148 135.418 278.36 135.363 278.493 135.287C278.629 135.211 278.697 135.078 278.697 134.889V134.849C278.697 134.359 278.562 133.978 278.294 133.706C278.029 133.434 277.626 133.298 277.086 133.298C276.526 133.298 276.086 133.421 275.768 133.666C275.45 133.911 275.226 134.173 275.097 134.452L273.983 134.054C274.182 133.59 274.448 133.229 274.779 132.97C275.114 132.708 275.478 132.526 275.873 132.423C276.27 132.317 276.662 132.264 277.046 132.264C277.291 132.264 277.573 132.294 277.891 132.354C278.213 132.41 278.523 132.528 278.821 132.707C279.122 132.886 279.373 133.156 279.572 133.517C279.77 133.878 279.87 134.362 279.87 134.969V140H278.697V138.966H278.637C278.557 139.132 278.425 139.309 278.239 139.498C278.054 139.687 277.807 139.848 277.498 139.98C277.19 140.113 276.814 140.179 276.37 140.179ZM276.549 139.125C277.013 139.125 277.404 139.034 277.722 138.852C278.044 138.669 278.286 138.434 278.448 138.146C278.614 137.857 278.697 137.554 278.697 137.236V136.162C278.647 136.222 278.537 136.276 278.368 136.326C278.203 136.372 278.01 136.414 277.792 136.45C277.576 136.483 277.366 136.513 277.16 136.54C276.958 136.563 276.794 136.583 276.668 136.599C276.363 136.639 276.078 136.704 275.813 136.793C275.551 136.879 275.339 137.01 275.177 137.186C275.018 137.358 274.938 137.594 274.938 137.892C274.938 138.3 275.089 138.608 275.39 138.817C275.695 139.022 276.081 139.125 276.549 139.125ZM283.185 129.818V140H282.011V129.818H283.185ZM285.334 140V132.364H286.507V140H285.334ZM285.93 131.091C285.702 131.091 285.504 131.013 285.339 130.857C285.176 130.701 285.095 130.514 285.095 130.295C285.095 130.077 285.176 129.889 285.339 129.734C285.504 129.578 285.702 129.5 285.93 129.5C286.159 129.5 286.354 129.578 286.517 129.734C286.683 129.889 286.765 130.077 286.765 130.295C286.765 130.514 286.683 130.701 286.517 130.857C286.354 131.013 286.159 131.091 285.93 131.091ZM288.437 140V139.105L292.772 133.537V133.457H288.576V132.364H294.284V133.298L290.068 138.827V138.906H294.423V140H288.437ZM298.477 140.179C297.993 140.179 297.554 140.088 297.16 139.906C296.765 139.72 296.452 139.453 296.22 139.105C295.988 138.754 295.872 138.33 295.872 137.832C295.872 137.395 295.958 137.04 296.131 136.768C296.303 136.493 296.533 136.278 296.822 136.122C297.11 135.966 297.428 135.85 297.776 135.774C298.128 135.695 298.481 135.632 298.835 135.585C299.299 135.526 299.675 135.481 299.964 135.451C300.255 135.418 300.468 135.363 300.6 135.287C300.736 135.211 300.804 135.078 300.804 134.889V134.849C300.804 134.359 300.67 133.978 300.401 133.706C300.136 133.434 299.733 133.298 299.193 133.298C298.633 133.298 298.194 133.421 297.876 133.666C297.558 133.911 297.334 134.173 297.205 134.452L296.091 134.054C296.29 133.59 296.555 133.229 296.886 132.97C297.221 132.708 297.586 132.526 297.98 132.423C298.378 132.317 298.769 132.264 299.153 132.264C299.399 132.264 299.68 132.294 299.999 132.354C300.32 132.41 300.63 132.528 300.928 132.707C301.23 132.886 301.48 133.156 301.679 133.517C301.878 133.878 301.977 134.362 301.977 134.969V140H300.804V138.966H300.744C300.665 139.132 300.532 139.309 300.347 139.498C300.161 139.687 299.914 139.848 299.606 139.98C299.298 140.113 298.921 140.179 298.477 140.179ZM298.656 139.125C299.12 139.125 299.511 139.034 299.83 138.852C300.151 138.669 300.393 138.434 300.555 138.146C300.721 137.857 300.804 137.554 300.804 137.236V136.162C300.754 136.222 300.645 136.276 300.476 136.326C300.31 136.372 300.118 136.414 299.899 136.45C299.684 136.483 299.473 136.513 299.268 136.54C299.066 136.563 298.902 136.583 298.776 136.599C298.471 136.639 298.186 136.704 297.92 136.793C297.659 136.879 297.446 137.01 297.284 137.186C297.125 137.358 297.045 137.594 297.045 137.892C297.045 138.3 297.196 138.608 297.498 138.817C297.803 139.022 298.189 139.125 298.656 139.125ZM307.44 132.364V133.358H303.482V132.364H307.44ZM304.636 130.534H305.809V137.812C305.809 138.144 305.857 138.393 305.953 138.558C306.053 138.721 306.179 138.83 306.331 138.886C306.487 138.939 306.651 138.966 306.823 138.966C306.953 138.966 307.059 138.959 307.142 138.946C307.224 138.929 307.291 138.916 307.34 138.906L307.579 139.96C307.499 139.99 307.388 140.02 307.246 140.05C307.103 140.083 306.923 140.099 306.704 140.099C306.373 140.099 306.048 140.028 305.73 139.886C305.415 139.743 305.153 139.526 304.944 139.234C304.739 138.943 304.636 138.575 304.636 138.131V130.534ZM309.205 140V132.364H310.378V140H309.205ZM309.801 131.091C309.573 131.091 309.375 131.013 309.21 130.857C309.047 130.701 308.966 130.514 308.966 130.295C308.966 130.077 309.047 129.889 309.21 129.734C309.375 129.578 309.573 129.5 309.801 129.5C310.03 129.5 310.226 129.578 310.388 129.734C310.554 129.889 310.637 130.077 310.637 130.295C310.637 130.514 310.554 130.701 310.388 130.857C310.226 131.013 310.03 131.091 309.801 131.091ZM315.629 140.159C314.94 140.159 314.335 139.995 313.815 139.667C313.298 139.339 312.893 138.88 312.602 138.29C312.313 137.7 312.169 137.01 312.169 136.222C312.169 135.426 312.313 134.732 312.602 134.138C312.893 133.545 313.298 133.085 313.815 132.756C314.335 132.428 314.94 132.264 315.629 132.264C316.319 132.264 316.922 132.428 317.439 132.756C317.959 133.085 318.364 133.545 318.652 134.138C318.944 134.732 319.089 135.426 319.089 136.222C319.089 137.01 318.944 137.7 318.652 138.29C318.364 138.88 317.959 139.339 317.439 139.667C316.922 139.995 316.319 140.159 315.629 140.159ZM315.629 139.105C316.153 139.105 316.584 138.971 316.922 138.702C317.26 138.434 317.51 138.081 317.673 137.643C317.835 137.206 317.916 136.732 317.916 136.222C317.916 135.711 317.835 135.236 317.673 134.795C317.51 134.354 317.26 133.998 316.922 133.726C316.584 133.454 316.153 133.318 315.629 133.318C315.106 133.318 314.675 133.454 314.337 133.726C313.999 133.998 313.748 134.354 313.586 134.795C313.424 135.236 313.342 135.711 313.342 136.222C313.342 136.732 313.424 137.206 313.586 137.643C313.748 138.081 313.999 138.434 314.337 138.702C314.675 138.971 315.106 139.105 315.629 139.105ZM322.054 135.406V140H320.881V132.364H322.014V133.557H322.113C322.292 133.169 322.564 132.857 322.929 132.622C323.293 132.384 323.764 132.264 324.341 132.264C324.858 132.264 325.31 132.37 325.698 132.582C326.086 132.791 326.387 133.109 326.603 133.537C326.818 133.961 326.926 134.498 326.926 135.148V140H325.753V135.227C325.753 134.627 325.597 134.16 325.285 133.825C324.974 133.487 324.546 133.318 324.003 133.318C323.628 133.318 323.293 133.399 322.998 133.562C322.707 133.724 322.476 133.961 322.307 134.273C322.138 134.584 322.054 134.962 322.054 135.406Z" fill="white" fill-opacity="0.7"/>
</g>
<rect x="295.5" y="107" width="150" height="2" fill="#8F8F8F"/>
<path fill-rule="evenodd" clip-rule="evenodd" d="M461.5 116C465.918 116 469.5 112.418 469.5 108C469.5 103.582 465.918 100 461.5 100C457.082 100 453.5 103.582 453.5 108C453.5 112.418 457.082 116 461.5 116Z" fill="#3492EB"/>
<g clip-path="url(#clip2_2031_6175)">
<path d="M417.053 138.006C417.921 138.006 418.635 137.731 419.195 137.18C419.681 136.704 419.942 136.125 419.979 135.444H421.421C421.384 136.107 421.179 136.723 420.805 137.292C420.423 137.871 419.914 138.328 419.279 138.664C418.598 139.028 417.847 139.21 417.025 139.21C415.504 139.21 414.328 138.692 413.497 137.656C412.769 136.741 412.405 135.509 412.405 133.96C412.405 132.187 412.905 130.829 413.903 129.886C414.734 129.102 415.812 128.71 417.137 128.71C418.397 128.71 419.443 129.097 420.273 129.872C420.964 130.507 421.342 131.267 421.407 132.154H419.965C419.872 131.417 419.541 130.843 418.971 130.432C418.467 130.077 417.856 129.9 417.137 129.9C416.064 129.9 415.238 130.283 414.659 131.048C414.127 131.748 413.861 132.719 413.861 133.96C413.861 135.323 414.197 136.368 414.869 137.096C415.429 137.703 416.157 138.006 417.053 138.006ZM424.299 139H422.955V131.72H424.061L424.243 132.798C424.653 131.939 425.269 131.51 426.091 131.51C426.361 131.51 426.627 131.543 426.889 131.608V132.952C426.571 132.868 426.287 132.826 426.035 132.826C425.493 132.826 425.069 133.045 424.761 133.484C424.453 133.923 424.299 134.543 424.299 135.346V139ZM432.764 136.9H434.22C434.015 137.637 433.609 138.216 433.002 138.636C432.433 139.019 431.751 139.21 430.958 139.21C429.81 139.21 428.914 138.846 428.27 138.118C427.682 137.437 427.388 136.517 427.388 135.36C427.388 134.044 427.761 133.045 428.508 132.364C429.124 131.795 429.917 131.51 430.888 131.51C432.027 131.51 432.885 131.879 433.464 132.616C434.024 133.325 434.304 134.338 434.304 135.654H428.76C428.816 136.513 429.077 137.152 429.544 137.572C429.927 137.908 430.412 138.076 431 138.076C431.457 138.076 431.854 137.95 432.19 137.698C432.47 137.483 432.661 137.217 432.764 136.9ZM430.916 132.588C430.319 132.588 429.838 132.775 429.474 133.148C429.129 133.493 428.909 133.974 428.816 134.59H432.932C432.885 133.89 432.652 133.367 432.232 133.022C431.896 132.733 431.457 132.588 430.916 132.588ZM437.064 133.75H435.636C435.71 133.022 436.056 132.457 436.672 132.056C437.222 131.692 437.918 131.51 438.758 131.51C439.756 131.51 440.522 131.771 441.054 132.294C441.502 132.742 441.726 133.321 441.726 134.03V139H440.62L440.452 138.006C439.882 138.809 439.07 139.21 438.016 139.21C437.185 139.21 436.536 138.986 436.07 138.538C435.687 138.165 435.496 137.693 435.496 137.124C435.496 136.405 435.743 135.85 436.238 135.458C436.676 135.113 437.348 134.861 438.254 134.702L440.382 134.338V133.974C440.382 133.498 440.218 133.139 439.892 132.896C439.602 132.681 439.206 132.574 438.702 132.574C437.712 132.574 437.166 132.966 437.064 133.75ZM438.338 138.076C438.907 138.076 439.402 137.889 439.822 137.516C440.195 137.171 440.382 136.774 440.382 136.326V135.388L438.576 135.71C437.913 135.822 437.46 135.995 437.218 136.228C437.022 136.415 436.924 136.667 436.924 136.984C436.924 137.339 437.045 137.609 437.288 137.796C437.53 137.983 437.88 138.076 438.338 138.076ZM446.861 137.922V139.07C446.515 139.163 446.184 139.21 445.867 139.21C445.195 139.21 444.691 139 444.355 138.58C444.065 138.235 443.921 137.773 443.921 137.194V132.868H442.843V131.72H443.921L444.005 129.97H445.265V131.72H446.833V132.868H445.265V137.222C445.265 137.763 445.521 138.034 446.035 138.034C446.277 138.034 446.553 137.997 446.861 137.922ZM453.012 136.9H454.468C454.263 137.637 453.857 138.216 453.25 138.636C452.681 139.019 452 139.21 451.206 139.21C450.058 139.21 449.162 138.846 448.518 138.118C447.93 137.437 447.636 136.517 447.636 135.36C447.636 134.044 448.01 133.045 448.756 132.364C449.372 131.795 450.166 131.51 451.136 131.51C452.275 131.51 453.134 131.879 453.712 132.616C454.272 133.325 454.552 134.338 454.552 135.654H449.008C449.064 136.513 449.326 137.152 449.792 137.572C450.175 137.908 450.66 138.076 451.248 138.076C451.706 138.076 452.102 137.95 452.438 137.698C452.718 137.483 452.91 137.217 453.012 136.9ZM451.164 132.588C450.567 132.588 450.086 132.775 449.722 133.148C449.377 133.493 449.158 133.974 449.064 134.59H453.18C453.134 133.89 452.9 133.367 452.48 133.022C452.144 132.733 451.706 132.588 451.164 132.588ZM461.509 133.75H460.081C460.156 133.022 460.501 132.457 461.117 132.056C461.668 131.692 462.363 131.51 463.203 131.51C464.202 131.51 464.967 131.771 465.499 132.294C465.947 132.742 466.171 133.321 466.171 134.03V139H465.065L464.897 138.006C464.328 138.809 463.516 139.21 462.461 139.21C461.63 139.21 460.982 138.986 460.515 138.538C460.132 138.165 459.941 137.693 459.941 137.124C459.941 136.405 460.188 135.85 460.683 135.458C461.122 135.113 461.794 134.861 462.699 134.702L464.827 134.338V133.974C464.827 133.498 464.664 133.139 464.337 132.896C464.048 132.681 463.651 132.574 463.147 132.574C462.158 132.574 461.612 132.966 461.509 133.75ZM462.783 138.076C463.352 138.076 463.847 137.889 464.267 137.516C464.64 137.171 464.827 136.774 464.827 136.326V135.388L463.021 135.71C462.358 135.822 461.906 135.995 461.663 136.228C461.467 136.415 461.369 136.667 461.369 136.984C461.369 137.339 461.49 137.609 461.733 137.796C461.976 137.983 462.326 138.076 462.783 138.076ZM472.804 136.662H474.274C474.162 137.446 473.793 138.076 473.168 138.552C472.599 138.991 471.903 139.21 471.082 139.21C470.009 139.21 469.155 138.841 468.52 138.104C467.932 137.423 467.638 136.527 467.638 135.416C467.638 134.128 467.993 133.129 468.702 132.42C469.309 131.813 470.097 131.51 471.068 131.51C471.964 131.51 472.701 131.748 473.28 132.224C473.793 132.644 474.106 133.195 474.218 133.876H472.734C472.641 133.484 472.449 133.181 472.16 132.966C471.88 132.751 471.525 132.644 471.096 132.644C470.433 132.644 469.925 132.905 469.57 133.428C469.234 133.913 469.066 134.59 469.066 135.458C469.066 136.363 469.29 137.049 469.738 137.516C470.093 137.889 470.55 138.076 471.11 138.076C471.595 138.076 471.992 137.936 472.3 137.656C472.571 137.413 472.739 137.082 472.804 136.662ZM480.556 136.662H482.026C481.914 137.446 481.545 138.076 480.92 138.552C480.351 138.991 479.655 139.21 478.834 139.21C477.761 139.21 476.907 138.841 476.272 138.104C475.684 137.423 475.39 136.527 475.39 135.416C475.39 134.128 475.745 133.129 476.454 132.42C477.061 131.813 477.849 131.51 478.82 131.51C479.716 131.51 480.453 131.748 481.032 132.224C481.545 132.644 481.858 133.195 481.97 133.876H480.486C480.393 133.484 480.201 133.181 479.912 132.966C479.632 132.751 479.277 132.644 478.848 132.644C478.185 132.644 477.677 132.905 477.322 133.428C476.986 133.913 476.818 134.59 476.818 135.458C476.818 136.363 477.042 137.049 477.49 137.516C477.845 137.889 478.302 138.076 478.862 138.076C479.347 138.076 479.744 137.936 480.052 137.656C480.323 137.413 480.491 137.082 480.556 136.662ZM483.142 135.36C483.142 134.025 483.539 133.017 484.332 132.336C484.967 131.785 485.769 131.51 486.74 131.51C487.869 131.51 488.756 131.869 489.4 132.588C490.016 133.26 490.324 134.184 490.324 135.36C490.324 136.676 489.937 137.679 489.162 138.37C488.527 138.93 487.715 139.21 486.726 139.21C485.597 139.21 484.705 138.837 484.052 138.09C483.445 137.409 483.142 136.499 483.142 135.36ZM484.542 135.36C484.542 136.293 484.78 137.007 485.256 137.502C485.648 137.913 486.147 138.118 486.754 138.118C487.463 138.118 488.009 137.852 488.392 137.32C488.747 136.835 488.924 136.181 488.924 135.36C488.924 134.408 488.691 133.689 488.224 133.204C487.841 132.803 487.347 132.602 486.74 132.602C486.04 132.602 485.494 132.868 485.102 133.4C484.729 133.885 484.542 134.539 484.542 135.36ZM491.791 131.72H493.135V136.494C493.135 137.539 493.639 138.062 494.647 138.062C495.263 138.062 495.734 137.843 496.061 137.404C496.313 137.068 496.439 136.653 496.439 136.158V131.72H497.783V139H496.677L496.523 138.16C496.01 138.86 495.282 139.21 494.339 139.21C493.508 139.21 492.869 138.953 492.421 138.44C492.001 137.964 491.791 137.306 491.791 136.466V131.72ZM501.094 139H499.75V131.72H500.856L501.01 132.644C501.551 131.888 502.288 131.51 503.222 131.51C504.08 131.51 504.738 131.776 505.196 132.308C505.597 132.784 505.798 133.433 505.798 134.254V139H504.454V134.268C504.454 133.195 503.936 132.658 502.9 132.658C502.358 132.658 501.915 132.845 501.57 133.218C501.252 133.554 501.094 133.983 501.094 134.506V139ZM510.941 137.922V139.07C510.596 139.163 510.264 139.21 509.947 139.21C509.275 139.21 508.771 139 508.435 138.58C508.146 138.235 508.001 137.773 508.001 137.194V132.868H506.923V131.72H508.001L508.085 129.97H509.345V131.72H510.913V132.868H509.345V137.222C509.345 137.763 509.602 138.034 510.115 138.034C510.358 138.034 510.633 137.997 510.941 137.922Z" fill="white" fill-opacity="0.95"/>
</g>
<defs>
<clipPath id="clip0_2031_6175">
<rect width="36" height="20" fill="white" transform="translate(79.5 124)"/>
</clipPath>
<clipPath id="clip1_2031_6175">
<rect width="97" height="21" fill="white" transform="translate(231 124)"/>
</clipPath>
<clipPath id="clip2_2031_6175">
<rect width="160" height="21" fill="white" transform="translate(381.5 124)"/>
</clipPath>
</defs>
</svg>
