<svg width="559" height="171" viewBox="0 0 559 171" fill="none" xmlns="http://www.w3.org/2000/svg">
<rect width="559" height="170.769" rx="16" fill="#1A1A1A"/>
<path d="M104.5 73.769C104.5 77.635 101.366 80.769 97.5 80.769C93.634 80.769 90.5 77.635 90.5 73.769C90.5 69.903 93.634 66.769 97.5 66.769C101.366 66.769 104.5 69.903 104.5 73.769Z" stroke="#64B4FA" stroke-width="2"/>
<g clip-path="url(#clip0_2040_6455)">
<path d="M80.7681 104.769V94.5872H82.0011V103.675H86.734V104.769H80.7681ZM90.7312 104.948C90.2473 104.948 89.8081 104.857 89.4137 104.675C89.0193 104.489 88.7061 104.222 88.4741 103.874C88.2421 103.523 88.1261 103.099 88.1261 102.601C88.1261 102.164 88.2122 101.809 88.3846 101.538C88.5569 101.262 88.7873 101.047 89.0756 100.891C89.364 100.735 89.6822 100.619 90.0302 100.543C90.3815 100.464 90.7345 100.401 91.0891 100.354C91.5531 100.295 91.9293 100.25 92.2177 100.22C92.5094 100.187 92.7215 100.132 92.854 100.056C92.9899 99.9797 93.0579 99.8472 93.0579 99.6582V99.6185C93.0579 99.1279 92.9237 98.7468 92.6552 98.475C92.39 98.2032 91.9873 98.0673 91.4471 98.0673C90.887 98.0673 90.4478 98.19 90.1296 98.4352C89.8114 98.6805 89.5877 98.9423 89.4585 99.2207L88.3448 98.823C88.5437 98.359 88.8088 97.9977 89.1403 97.7392C89.475 97.4774 89.8396 97.2951 90.234 97.1923C90.6317 97.0863 91.0228 97.0332 91.4073 97.0332C91.6526 97.0332 91.9343 97.0631 92.2525 97.1227C92.574 97.1791 92.8839 97.2967 93.1822 97.4757C93.4838 97.6547 93.734 97.9248 93.9329 98.2861C94.1317 98.6474 94.2312 99.1313 94.2312 99.7378V104.769H93.0579V103.735H92.9982C92.9187 103.901 92.7861 104.078 92.6005 104.267C92.4149 104.456 92.168 104.617 91.8597 104.749C91.5515 104.882 91.1753 104.948 90.7312 104.948ZM90.9102 103.894C91.3742 103.894 91.7653 103.803 92.0835 103.621C92.4049 103.438 92.6469 103.203 92.8093 102.915C92.975 102.626 93.0579 102.323 93.0579 102.005V100.931C93.0082 100.991 92.8988 101.045 92.7298 101.095C92.564 101.141 92.3718 101.183 92.1531 101.219C91.9376 101.252 91.7272 101.282 91.5217 101.309C91.3195 101.332 91.1554 101.352 91.0295 101.368C90.7246 101.408 90.4395 101.473 90.1744 101.562C89.9125 101.649 89.7004 101.779 89.538 101.955C89.3789 102.127 89.2994 102.363 89.2994 102.661C89.2994 103.069 89.4502 103.377 89.7518 103.586C90.0567 103.791 90.4428 103.894 90.9102 103.894ZM96.5318 104.769V94.5872H97.7051V98.3457H97.8045C97.8907 98.2132 98.01 98.0441 98.1625 97.8386C98.3182 97.6298 98.5403 97.4442 98.8287 97.2818C99.1203 97.1161 99.5147 97.0332 100.012 97.0332C100.655 97.0332 101.222 97.194 101.712 97.5155C102.203 97.837 102.586 98.2927 102.861 98.8827C103.136 99.4726 103.273 100.169 103.273 100.971C103.273 101.779 103.136 102.48 102.861 103.074C102.586 103.664 102.204 104.121 101.717 104.446C101.23 104.767 100.668 104.928 100.032 104.928C99.5413 104.928 99.1485 104.847 98.8535 104.685C98.5585 104.519 98.3315 104.332 98.1724 104.123C98.0133 103.911 97.8907 103.735 97.8045 103.596H97.6653V104.769H96.5318ZM97.6852 100.951C97.6852 101.528 97.7697 102.036 97.9387 102.477C98.1078 102.915 98.3547 103.258 98.6795 103.506C99.0043 103.752 99.402 103.874 99.8727 103.874C100.363 103.874 100.773 103.745 101.101 103.486C101.432 103.225 101.681 102.873 101.846 102.432C102.015 101.988 102.1 101.494 102.1 100.951C102.1 100.414 102.017 99.93 101.851 99.4992C101.689 99.065 101.442 98.7219 101.111 98.47C100.782 98.2148 100.37 98.0872 99.8727 98.0872C99.3954 98.0872 98.9944 98.2082 98.6696 98.4502C98.3448 98.6888 98.0995 99.0235 97.9338 99.4544C97.7681 99.882 97.6852 100.381 97.6852 100.951ZM108.27 104.928C107.534 104.928 106.899 104.766 106.366 104.441C105.835 104.113 105.426 103.655 105.138 103.069C104.853 102.479 104.71 101.793 104.71 101.011C104.71 100.228 104.853 99.5389 105.138 98.9423C105.426 98.3424 105.827 97.8751 106.341 97.5403C106.858 97.2023 107.461 97.0332 108.15 97.0332C108.548 97.0332 108.941 97.0995 109.329 97.2321C109.716 97.3647 110.069 97.5801 110.388 97.8784C110.706 98.1734 110.959 98.5645 111.148 99.0517C111.337 99.5389 111.432 100.139 111.432 100.851V101.349H105.545V100.334H110.238C110.238 99.9035 110.152 99.519 109.98 99.181C109.811 98.8429 109.569 98.5761 109.254 98.3805C108.943 98.185 108.575 98.0872 108.15 98.0872C107.683 98.0872 107.279 98.2032 106.937 98.4352C106.599 98.6639 106.339 98.9622 106.157 99.3301C105.974 99.698 105.883 100.092 105.883 100.513V101.189C105.883 101.766 105.983 102.255 106.182 102.656C106.384 103.054 106.664 103.357 107.022 103.566C107.38 103.771 107.796 103.874 108.27 103.874C108.578 103.874 108.856 103.831 109.105 103.745C109.357 103.655 109.574 103.523 109.756 103.347C109.939 103.168 110.079 102.946 110.179 102.681L111.312 102.999C111.193 103.384 110.992 103.722 110.711 104.013C110.429 104.302 110.081 104.527 109.667 104.689C109.252 104.849 108.787 104.928 108.27 104.928ZM114.39 94.5872V104.769H113.216V94.5872H114.39Z" fill="white" fill-opacity="0.7"/>
</g>
<rect x="113.5" y="72.769" width="150" height="2" fill="#8F8F8F"/>
<path d="M286.5 73.769C286.5 77.635 283.366 80.769 279.5 80.769C275.634 80.769 272.5 77.635 272.5 73.769C272.5 69.903 275.634 66.769 279.5 66.769C283.366 66.769 286.5 69.903 286.5 73.769Z" stroke="#3492EB" stroke-width="2"/>
<g clip-path="url(#clip1_2040_6455)">
<path d="M246.83 104.769H244.884L244.002 102.319H239.69L238.808 104.769H236.974L240.894 94.689H242.91L246.83 104.769ZM241.874 96.313L240.166 101.003H243.54L241.874 96.313ZM248.931 102.697C249.062 103.397 249.589 103.747 250.513 103.747C251.026 103.747 251.414 103.649 251.675 103.453C251.89 103.285 251.997 103.066 251.997 102.795C251.997 102.45 251.81 102.193 251.437 102.025C251.222 101.932 250.751 101.801 250.023 101.633C249.127 101.428 248.488 101.148 248.105 100.793C247.722 100.448 247.531 99.995 247.531 99.435C247.531 98.7257 247.82 98.1797 248.399 97.797C248.912 97.4517 249.617 97.279 250.513 97.279C251.437 97.279 252.179 97.4984 252.739 97.937C253.224 98.3104 253.528 98.8144 253.649 99.449H251.941C251.801 98.8237 251.316 98.511 250.485 98.511C249.645 98.511 249.225 98.7677 249.225 99.281C249.225 99.5424 249.332 99.7384 249.547 99.869C249.762 99.9997 250.196 100.144 250.849 100.303C251.857 100.536 252.557 100.798 252.949 101.087C253.444 101.451 253.691 101.964 253.691 102.627C253.691 103.383 253.383 103.976 252.767 104.405C252.207 104.788 251.451 104.979 250.499 104.979C249.5 104.979 248.702 104.741 248.105 104.265C247.601 103.864 247.307 103.341 247.223 102.697H248.931ZM256.232 102.697C256.363 103.397 256.89 103.747 257.814 103.747C258.327 103.747 258.715 103.649 258.976 103.453C259.191 103.285 259.298 103.066 259.298 102.795C259.298 102.45 259.111 102.193 258.738 102.025C258.523 101.932 258.052 101.801 257.324 101.633C256.428 101.428 255.789 101.148 255.406 100.793C255.023 100.448 254.832 99.995 254.832 99.435C254.832 98.7257 255.121 98.1797 255.7 97.797C256.213 97.4517 256.918 97.279 257.814 97.279C258.738 97.279 259.48 97.4984 260.04 97.937C260.525 98.3104 260.829 98.8144 260.95 99.449H259.242C259.102 98.8237 258.617 98.511 257.786 98.511C256.946 98.511 256.526 98.7677 256.526 99.281C256.526 99.5424 256.633 99.7384 256.848 99.869C257.063 99.9997 257.497 100.144 258.15 100.303C259.158 100.536 259.858 100.798 260.25 101.087C260.745 101.451 260.992 101.964 260.992 102.627C260.992 103.383 260.684 103.976 260.068 104.405C259.508 104.788 258.752 104.979 257.8 104.979C256.801 104.979 256.003 104.741 255.406 104.265C254.902 103.864 254.608 103.341 254.524 102.697H256.232ZM264.188 96.383H262.34V94.689H264.188V96.383ZM264.104 104.769H262.424V97.489H264.104V104.769ZM265.799 105.245H267.563C267.74 105.917 268.296 106.253 269.229 106.253C270.433 106.253 271.035 105.679 271.035 104.531V103.719C270.484 104.279 269.738 104.559 268.795 104.559C267.806 104.559 267.003 104.209 266.387 103.509C265.818 102.856 265.533 102.011 265.533 100.975C265.533 99.7524 265.883 98.805 266.583 98.133C267.171 97.5637 267.927 97.279 268.851 97.279C269.822 97.279 270.578 97.6337 271.119 98.343L271.385 97.489H272.715V104.517C272.715 105.478 272.37 106.23 271.679 106.771C271.063 107.256 270.251 107.499 269.243 107.499C268.16 107.499 267.316 107.27 266.709 106.813C266.214 106.43 265.911 105.908 265.799 105.245ZM267.255 100.989C267.255 101.745 267.465 102.328 267.885 102.739C268.23 103.066 268.664 103.229 269.187 103.229C269.859 103.229 270.368 103.01 270.713 102.571C271.012 102.188 271.161 101.666 271.161 101.003C271.161 100.172 270.956 99.547 270.545 99.127C270.209 98.7817 269.756 98.609 269.187 98.609C268.562 98.609 268.076 98.833 267.731 99.281C267.414 99.6917 267.255 100.261 267.255 100.989ZM276.19 104.769H274.51V97.489H275.896L276.078 98.357C276.61 97.6384 277.348 97.279 278.29 97.279C279.168 97.279 279.84 97.5497 280.306 98.091C280.717 98.567 280.922 99.2157 280.922 100.037V104.769H279.242V100.079C279.242 99.0804 278.78 98.581 277.856 98.581C277.352 98.581 276.942 98.7584 276.624 99.113C276.335 99.4397 276.19 99.8504 276.19 100.345V104.769ZM286.554 97.489H288.234V102.277C288.234 103.21 288.691 103.677 289.606 103.677C290.138 103.677 290.553 103.486 290.852 103.103C291.094 102.776 291.216 102.375 291.216 101.899V97.489H292.896V104.769H291.51L291.328 103.957C290.805 104.638 290.077 104.979 289.144 104.979C288.285 104.979 287.627 104.718 287.17 104.195C286.759 103.719 286.554 103.066 286.554 102.235V97.489ZM295.894 102.697C296.025 103.397 296.552 103.747 297.476 103.747C297.989 103.747 298.377 103.649 298.638 103.453C298.853 103.285 298.96 103.066 298.96 102.795C298.96 102.45 298.773 102.193 298.4 102.025C298.185 101.932 297.714 101.801 296.986 101.633C296.09 101.428 295.451 101.148 295.068 100.793C294.685 100.448 294.494 99.995 294.494 99.435C294.494 98.7257 294.783 98.1797 295.362 97.797C295.875 97.4517 296.58 97.279 297.476 97.279C298.4 97.279 299.142 97.4984 299.702 97.937C300.187 98.3104 300.491 98.8144 300.612 99.449H298.904C298.764 98.8237 298.279 98.511 297.448 98.511C296.608 98.511 296.188 98.7677 296.188 99.281C296.188 99.5424 296.295 99.7384 296.51 99.869C296.725 99.9997 297.159 100.144 297.812 100.303C298.82 100.536 299.52 100.798 299.912 101.087C300.407 101.451 300.654 101.964 300.654 102.627C300.654 103.383 300.346 103.976 299.73 104.405C299.17 104.788 298.414 104.979 297.462 104.979C296.463 104.979 295.665 104.741 295.068 104.265C294.564 103.864 294.27 103.341 294.186 102.697H295.894ZM307.028 102.669H308.792C308.596 103.416 308.19 103.994 307.574 104.405C306.986 104.788 306.263 104.979 305.404 104.979C304.219 104.979 303.295 104.606 302.632 103.859C302.026 103.178 301.722 102.268 301.722 101.129C301.722 99.8224 302.1 98.8237 302.856 98.133C303.491 97.5637 304.317 97.279 305.334 97.279C306.52 97.279 307.416 97.6664 308.022 98.441C308.592 99.1597 308.876 100.186 308.876 101.521H303.43C303.496 102.305 303.738 102.879 304.158 103.243C304.494 103.542 304.933 103.691 305.474 103.691C305.857 103.691 306.188 103.598 306.468 103.411C306.748 103.224 306.935 102.977 307.028 102.669ZM307.154 100.373C307.117 99.6917 306.912 99.1924 306.538 98.875C306.23 98.6044 305.829 98.469 305.334 98.469C304.793 98.469 304.359 98.6464 304.032 99.001C303.734 99.3184 303.542 99.7757 303.458 100.373H307.154ZM314.587 97.377V99.001C314.279 98.9077 313.985 98.861 313.705 98.861C313.182 98.861 312.762 99.0897 312.445 99.547C312.146 99.9857 311.997 100.592 311.997 101.367V104.769H310.317V97.489H311.703L311.913 98.581C312.324 97.713 312.944 97.279 313.775 97.279C314.074 97.279 314.344 97.3117 314.587 97.377ZM316.73 102.697C316.861 103.397 317.388 103.747 318.312 103.747C318.825 103.747 319.213 103.649 319.474 103.453C319.689 103.285 319.796 103.066 319.796 102.795C319.796 102.45 319.609 102.193 319.236 102.025C319.021 101.932 318.55 101.801 317.822 101.633C316.926 101.428 316.287 101.148 315.904 100.793C315.521 100.448 315.33 99.995 315.33 99.435C315.33 98.7257 315.619 98.1797 316.198 97.797C316.711 97.4517 317.416 97.279 318.312 97.279C319.236 97.279 319.978 97.4984 320.538 97.937C321.023 98.3104 321.327 98.8144 321.448 99.449H319.74C319.6 98.8237 319.115 98.511 318.284 98.511C317.444 98.511 317.024 98.7677 317.024 99.281C317.024 99.5424 317.131 99.7384 317.346 99.869C317.561 99.9997 317.995 100.144 318.648 100.303C319.656 100.536 320.356 100.798 320.748 101.087C321.243 101.451 321.49 101.964 321.49 102.627C321.49 103.383 321.182 103.976 320.566 104.405C320.006 104.788 319.25 104.979 318.298 104.979C317.299 104.979 316.501 104.741 315.904 104.265C315.4 103.864 315.106 103.341 315.022 102.697H316.73Z" fill="white" fill-opacity="0.95"/>
</g>
<rect x="295.5" y="72.769" width="150" height="2" fill="#8F8F8F"/>
<path fill-rule="evenodd" clip-rule="evenodd" d="M461.5 81.769C465.918 81.769 469.5 78.1873 469.5 73.769C469.5 69.3508 465.918 65.769 461.5 65.769C457.082 65.769 453.5 69.3508 453.5 73.769C453.5 78.1873 457.082 81.769 461.5 81.769Z" fill="#3492EB"/>
<g clip-path="url(#clip2_2040_6455)">
<path d="M437.035 103.775C437.903 103.775 438.617 103.5 439.177 102.949C439.662 102.473 439.924 101.894 439.961 101.213H441.403C441.366 101.876 441.16 102.492 440.787 103.061C440.404 103.64 439.896 104.097 439.261 104.433C438.58 104.797 437.828 104.979 437.007 104.979C435.486 104.979 434.31 104.461 433.479 103.425C432.751 102.51 432.387 101.278 432.387 99.729C432.387 97.9557 432.886 96.5977 433.885 95.655C434.716 94.871 435.794 94.479 437.119 94.479C438.379 94.479 439.424 94.8664 440.255 95.641C440.946 96.2757 441.324 97.0364 441.389 97.923H439.947C439.854 97.1857 439.522 96.6117 438.953 96.201C438.449 95.8464 437.838 95.669 437.119 95.669C436.046 95.669 435.22 96.0517 434.641 96.817C434.109 97.517 433.843 98.4877 433.843 99.729C433.843 101.092 434.179 102.137 434.851 102.865C435.411 103.472 436.139 103.775 437.035 103.775ZM444.28 94.689V104.769H442.936V94.689H444.28ZM447.673 96.271H446.161V94.689H447.673V96.271ZM447.589 104.769H446.245V97.489H447.589V104.769ZM454.299 102.431H455.769C455.657 103.215 455.289 103.845 454.663 104.321C454.094 104.76 453.399 104.979 452.577 104.979C451.504 104.979 450.65 104.61 450.015 103.873C449.427 103.192 449.133 102.296 449.133 101.185C449.133 99.897 449.488 98.8984 450.197 98.189C450.804 97.5824 451.593 97.279 452.563 97.279C453.459 97.279 454.197 97.517 454.775 97.993C455.289 98.413 455.601 98.9637 455.713 99.645H454.229C454.136 99.253 453.945 98.9497 453.655 98.735C453.375 98.5204 453.021 98.413 452.591 98.413C451.929 98.413 451.42 98.6744 451.065 99.197C450.729 99.6824 450.561 100.359 450.561 101.227C450.561 102.132 450.785 102.818 451.233 103.285C451.588 103.658 452.045 103.845 452.605 103.845C453.091 103.845 453.487 103.705 453.795 103.425C454.066 103.182 454.234 102.851 454.299 102.431ZM458.649 104.769H457.305V94.689H458.649V100.317L461.505 97.489H463.269L459.993 100.653L463.675 104.769H461.883L458.649 101.101V104.769ZM465.727 99.519H464.299C464.373 98.791 464.719 98.2264 465.335 97.825C465.885 97.461 466.581 97.279 467.421 97.279C468.419 97.279 469.185 97.5404 469.717 98.063C470.165 98.511 470.389 99.0897 470.389 99.799V104.769H469.283L469.115 103.775C468.545 104.578 467.733 104.979 466.679 104.979C465.848 104.979 465.199 104.755 464.733 104.307C464.35 103.934 464.159 103.462 464.159 102.893C464.159 102.174 464.406 101.619 464.901 101.227C465.339 100.882 466.011 100.63 466.917 100.471L469.045 100.107V99.743C469.045 99.267 468.881 98.9077 468.555 98.665C468.265 98.4504 467.869 98.343 467.365 98.343C466.375 98.343 465.829 98.735 465.727 99.519ZM467.001 103.845C467.57 103.845 468.065 103.658 468.485 103.285C468.858 102.94 469.045 102.543 469.045 102.095V101.157L467.239 101.479C466.576 101.591 466.123 101.764 465.881 101.997C465.685 102.184 465.587 102.436 465.587 102.753C465.587 103.108 465.708 103.378 465.951 103.565C466.193 103.752 466.543 103.845 467.001 103.845ZM473.382 104.769H472.276V94.689H473.62V98.497C474.189 97.685 475.001 97.279 476.056 97.279C477.101 97.279 477.913 97.6524 478.492 98.399C479.005 99.071 479.262 99.9624 479.262 101.073C479.262 102.389 478.912 103.397 478.212 104.097C477.624 104.685 476.873 104.979 475.958 104.979C474.922 104.979 474.133 104.587 473.592 103.803L473.382 104.769ZM477.862 101.045C477.862 100.13 477.633 99.4444 477.176 98.987C476.812 98.6137 476.336 98.427 475.748 98.427C475.067 98.427 474.525 98.6744 474.124 99.169C473.741 99.645 473.55 100.27 473.55 101.045C473.55 101.978 473.779 102.692 474.236 103.187C474.619 103.616 475.123 103.831 475.748 103.831C476.448 103.831 476.98 103.574 477.344 103.061C477.689 102.585 477.862 101.913 477.862 101.045ZM482.151 94.689V104.769H480.807V94.689H482.151ZM489.072 102.669H490.528C490.322 103.406 489.916 103.985 489.31 104.405C488.74 104.788 488.059 104.979 487.266 104.979C486.118 104.979 485.222 104.615 484.578 103.887C483.99 103.206 483.696 102.286 483.696 101.129C483.696 99.813 484.069 98.8144 484.816 98.133C485.432 97.5637 486.225 97.279 487.196 97.279C488.334 97.279 489.193 97.6477 489.772 98.385C490.332 99.0944 490.612 100.107 490.612 101.423H485.068C485.124 102.282 485.385 102.921 485.852 103.341C486.234 103.677 486.72 103.845 487.308 103.845C487.765 103.845 488.162 103.719 488.498 103.467C488.778 103.252 488.969 102.986 489.072 102.669ZM487.224 98.357C486.626 98.357 486.146 98.5437 485.782 98.917C485.436 99.2624 485.217 99.743 485.124 100.359H489.24C489.193 99.659 488.96 99.1364 488.54 98.791C488.204 98.5017 487.765 98.357 487.224 98.357Z" fill="white" fill-opacity="0.95"/>
</g>
<g filter="url(#filter0_d_2040_6455)">
<path d="M117.77 92.049C117.49 91.689 117.14 90.959 116.53 90.049C116.18 89.549 115.32 88.599 115.06 88.109C114.873 87.8112 114.818 87.4486 114.91 87.109C115.067 86.4632 115.68 86.0348 116.34 86.109C116.851 86.2116 117.32 86.4619 117.69 86.829C117.948 87.0721 118.186 87.3364 118.4 87.619C118.56 87.819 118.6 87.899 118.78 88.129C118.96 88.359 119.08 88.589 118.99 88.249C118.92 87.749 118.8 86.909 118.63 86.159C118.5 85.589 118.47 85.499 118.35 85.069C118.23 84.639 118.16 84.279 118.03 83.789C117.911 83.3075 117.818 82.8202 117.75 82.329C117.624 81.7007 117.716 81.0482 118.01 80.479C118.36 80.1503 118.872 80.0636 119.31 80.259C119.751 80.5843 120.079 81.0386 120.25 81.559C120.512 82.1994 120.687 82.872 120.77 83.559C120.93 84.559 121.24 86.019 121.25 86.319C121.25 85.949 121.18 85.169 121.25 84.819C121.319 84.4541 121.573 84.1513 121.92 84.019C122.218 83.9276 122.533 83.907 122.84 83.959C123.15 84.0238 123.425 84.2021 123.61 84.459C123.842 85.0424 123.97 85.6616 123.99 86.289C124.017 85.7396 124.111 85.1955 124.27 84.669C124.437 84.4335 124.681 84.2638 124.96 84.189C125.291 84.1285 125.63 84.1285 125.96 84.189C126.231 84.2796 126.468 84.4505 126.64 84.679C126.852 85.2093 126.98 85.7693 127.02 86.339C127.02 86.479 127.09 85.949 127.31 85.599C127.424 85.2596 127.711 85.0069 128.062 84.9362C128.413 84.8656 128.775 84.9875 129.012 85.2562C129.249 85.525 129.324 85.8996 129.21 86.239C129.21 86.889 129.21 86.859 129.21 87.299C129.21 87.739 129.21 88.129 129.21 88.499C129.174 89.0842 129.093 89.6658 128.97 90.239C128.796 90.7461 128.554 91.2272 128.25 91.669C127.765 92.2089 127.363 92.8192 127.06 93.479C126.985 93.8068 126.951 94.1428 126.96 94.479C126.959 94.7896 126.999 95.099 127.08 95.399C126.671 95.4422 126.259 95.4422 125.85 95.399C125.46 95.339 124.98 94.559 124.85 94.319C124.786 94.1901 124.654 94.1087 124.51 94.1087C124.366 94.1087 124.234 94.1901 124.17 94.319C123.95 94.699 123.46 95.389 123.12 95.429C122.45 95.509 121.07 95.429 119.98 95.429C119.98 95.429 120.16 94.429 119.75 94.069C119.34 93.709 118.92 93.289 118.61 93.009L117.77 92.049Z" fill="white"/>
<path d="M117.77 92.049C117.49 91.689 117.14 90.959 116.53 90.049C116.18 89.549 115.32 88.599 115.06 88.109C114.873 87.8112 114.818 87.4486 114.91 87.109C115.067 86.4632 115.68 86.0348 116.34 86.109C116.851 86.2116 117.32 86.4619 117.69 86.829C117.948 87.0721 118.186 87.3364 118.4 87.619C118.56 87.819 118.6 87.899 118.78 88.129C118.96 88.359 119.08 88.589 118.99 88.249C118.92 87.749 118.8 86.909 118.63 86.159C118.5 85.589 118.47 85.499 118.35 85.069C118.23 84.639 118.16 84.279 118.03 83.789C117.911 83.3075 117.818 82.8202 117.75 82.329C117.624 81.7007 117.716 81.0482 118.01 80.479C118.36 80.1503 118.872 80.0636 119.31 80.259C119.751 80.5843 120.079 81.0386 120.25 81.559C120.512 82.1994 120.687 82.872 120.77 83.559C120.93 84.559 121.24 86.019 121.25 86.319C121.25 85.949 121.18 85.169 121.25 84.819C121.319 84.4541 121.573 84.1513 121.92 84.019C122.218 83.9276 122.533 83.907 122.84 83.959C123.15 84.0238 123.425 84.2021 123.61 84.459C123.842 85.0424 123.97 85.6616 123.99 86.289C124.017 85.7396 124.111 85.1955 124.27 84.669C124.437 84.4335 124.681 84.2638 124.96 84.189C125.291 84.1285 125.63 84.1285 125.96 84.189C126.231 84.2796 126.468 84.4505 126.64 84.679C126.852 85.2093 126.98 85.7693 127.02 86.339C127.02 86.479 127.09 85.949 127.31 85.599C127.424 85.2596 127.711 85.0069 128.062 84.9362C128.413 84.8656 128.775 84.9875 129.012 85.2562C129.249 85.525 129.324 85.8996 129.21 86.239C129.21 86.889 129.21 86.859 129.21 87.299C129.21 87.739 129.21 88.129 129.21 88.499C129.174 89.0842 129.093 89.6658 128.97 90.239C128.796 90.7461 128.554 91.2272 128.25 91.669C127.765 92.2089 127.363 92.8192 127.06 93.479C126.985 93.8068 126.951 94.1428 126.96 94.479C126.959 94.7896 126.999 95.099 127.08 95.399C126.671 95.4422 126.259 95.4422 125.85 95.399C125.46 95.339 124.98 94.559 124.85 94.319C124.786 94.1901 124.654 94.1087 124.51 94.1087C124.366 94.1087 124.234 94.1901 124.17 94.319C123.95 94.699 123.46 95.389 123.12 95.429C122.45 95.509 121.07 95.429 119.98 95.429C119.98 95.429 120.16 94.429 119.75 94.069C119.34 93.709 118.92 93.289 118.61 93.009L117.77 92.049Z" stroke="black" stroke-width="0.75"/>
</g>
<path d="M126.75 92.5949V89.1432C126.75 88.6593 126.357 88.269 125.875 88.269C125.393 88.269 125 88.6593 125 89.1432V92.5949C125 93.0788 125.393 93.469 125.875 93.469C126.357 93.469 126.75 93.0788 126.75 92.5949Z" fill="black" stroke="white"/>
<path d="M124.77 92.5908L124.75 89.1372C124.747 88.6527 124.351 88.2663 123.87 88.2691C123.389 88.2718 122.997 88.6628 123 89.1473L123.02 92.6009C123.023 93.0854 123.419 93.4718 123.9 93.469C124.381 93.4663 124.773 93.0753 124.77 92.5908Z" fill="black" stroke="white"/>
<path d="M121 89.1509L121.02 92.5973C121.023 93.0793 121.415 93.4719 121.9 93.469C122.386 93.4662 122.773 93.0691 122.77 92.5871L122.75 89.1407C122.747 88.6587 122.355 88.2662 121.87 88.2691C121.384 88.2719 120.997 88.669 121 89.1509Z" fill="black" stroke="white"/>
<rect x="38.1519" y="60.5" width="121.61" height="49.7693" stroke="#643ABD"/>
<defs>
<filter id="filter0_d_2040_6455" x="112.691" y="78.9808" width="18.7462" height="19.6586" filterUnits="userSpaceOnUse" color-interpolation-filters="sRGB">
<feFlood flood-opacity="0" result="BackgroundImageFix"/>
<feColorMatrix in="SourceAlpha" type="matrix" values="0 0 0 0 0 0 0 0 0 0 0 0 0 0 0 0 0 0 127 0" result="hardAlpha"/>
<feOffset dy="1"/>
<feGaussianBlur stdDeviation="0.9"/>
<feColorMatrix type="matrix" values="0 0 0 0 0 0 0 0 0 0 0 0 0 0 0 0 0 0 0.65 0"/>
<feBlend mode="normal" in2="BackgroundImageFix" result="effect1_dropShadow_2040_6455"/>
<feBlend mode="normal" in="SourceGraphic" in2="effect1_dropShadow_2040_6455" result="shape"/>
</filter>
<clipPath id="clip0_2040_6455">
<rect width="36" height="20" fill="white" transform="translate(79.5 89.769)"/>
</clipPath>
<clipPath id="clip1_2040_6455">
<rect width="160" height="21" fill="white" transform="translate(199.5 89.769)"/>
</clipPath>
<clipPath id="clip2_2040_6455">
<rect width="160" height="21" fill="white" transform="translate(381.5 89.769)"/>
</clipPath>
</defs>
</svg>
