<svg width="559" height="185" viewBox="0 0 559 185" fill="none" xmlns="http://www.w3.org/2000/svg">
<rect width="559" height="185" rx="16" fill="#1A1A1A"/>
<rect opacity="0.5" x="278" y="98" width="8" height="27" fill="#30C9B0" fill-opacity="0.5"/>
<g clip-path="url(#clip0_2102_36010)">
<line x1="278.5" y1="93" x2="278.5" y2="78" stroke="#3CC29A"/>
<line x1="278" y1="85.5" x2="285.998" y2="85.5" stroke="#3CC29A"/>
<line x1="285.5" y1="93" x2="285.5" y2="78" stroke="#3CC29A"/>
</g>
<path d="M285.049 66.6719C285.049 66.9727 284.999 67.2529 284.898 67.5127C284.803 67.7725 284.666 68.0049 284.488 68.21C284.379 68.3421 284.254 68.4652 284.112 68.5791C283.971 68.693 283.814 68.7933 283.641 68.8799C283.846 68.9756 284.035 69.0872 284.208 69.2148C284.386 69.3379 284.541 69.4814 284.673 69.6455C284.86 69.8643 285.006 70.1126 285.11 70.3906C285.215 70.6686 285.268 70.9694 285.268 71.293C285.268 71.7533 285.183 72.1611 285.015 72.5166C284.846 72.8721 284.616 73.1683 284.324 73.4053C284.028 73.6468 283.682 73.8291 283.285 73.9521C282.893 74.0752 282.469 74.1367 282.014 74.1367C281.549 74.1367 281.116 74.0752 280.715 73.9521C280.318 73.8291 279.974 73.6468 279.683 73.4053C279.386 73.1683 279.154 72.8743 278.985 72.5234C278.821 72.168 278.739 71.7578 278.739 71.293C278.739 71.0195 278.776 70.7598 278.849 70.5137C278.926 70.2676 279.035 70.0397 279.177 69.8301C279.318 69.6296 279.487 69.4495 279.683 69.29C279.883 69.126 280.106 68.987 280.353 68.873C280.143 68.7682 279.951 68.6406 279.778 68.4902C279.61 68.3398 279.466 68.1735 279.348 67.9912C279.225 67.8044 279.129 67.5993 279.061 67.376C278.992 67.1527 278.958 66.918 278.958 66.6719C278.958 66.2298 279.033 65.8379 279.184 65.4961C279.339 65.1543 279.55 64.8649 279.819 64.6279C280.084 64.391 280.4 64.2132 280.77 64.0947C281.143 63.9717 281.551 63.9102 281.993 63.9102C282.431 63.9102 282.834 63.9717 283.203 64.0947C283.577 64.2132 283.903 64.391 284.181 64.6279C284.45 64.8604 284.661 65.1497 284.816 65.4961C284.971 65.8379 285.049 66.2298 285.049 66.6719ZM283.634 71.2041C283.634 70.958 283.593 70.7347 283.511 70.5342C283.433 70.3291 283.324 70.1514 283.183 70.001C283.037 69.8597 282.864 69.7503 282.663 69.6729C282.463 69.5954 282.242 69.5566 282 69.5566C281.749 69.5566 281.524 69.5954 281.323 69.6729C281.127 69.7503 280.959 69.8597 280.817 70.001C280.676 70.1514 280.567 70.3291 280.489 70.5342C280.416 70.7347 280.38 70.9603 280.38 71.2109C280.38 71.4661 280.419 71.6963 280.496 71.9014C280.574 72.1019 280.685 72.2705 280.831 72.4072C280.972 72.5394 281.141 72.6419 281.337 72.7148C281.537 72.7832 281.763 72.8174 282.014 72.8174C282.251 72.8174 282.467 72.7809 282.663 72.708C282.864 72.6351 283.037 72.5303 283.183 72.3936C283.319 72.2523 283.429 72.0837 283.511 71.8877C283.593 71.6872 283.634 71.4593 283.634 71.2041ZM283.422 66.7334C283.422 66.5101 283.385 66.3073 283.312 66.125C283.244 65.9427 283.148 65.7832 283.025 65.6465C282.898 65.5189 282.747 65.4186 282.574 65.3457C282.401 65.2728 282.205 65.2363 281.986 65.2363C281.772 65.2363 281.578 65.2728 281.405 65.3457C281.237 65.4141 281.091 65.512 280.968 65.6396C280.849 65.7673 280.758 65.9245 280.694 66.1113C280.631 66.2982 280.599 66.5055 280.599 66.7334C280.599 66.9567 280.631 67.1618 280.694 67.3486C280.758 67.5309 280.854 67.6859 280.981 67.8135C281.104 67.9456 281.253 68.0482 281.426 68.1211C281.599 68.194 281.793 68.2305 282.007 68.2305C282.221 68.2305 282.415 68.194 282.588 68.1211C282.761 68.0482 282.909 67.9456 283.032 67.8135C283.155 67.6859 283.251 67.5309 283.319 67.3486C283.388 67.1618 283.422 66.9567 283.422 66.7334Z" fill="#3CC29A"/>
<rect opacity="0.5" x="96" y="98" width="8" height="27" fill="#30C9B0" fill-opacity="0.5"/>
<g clip-path="url(#clip1_2102_36010)">
<line x1="96.5" y1="93" x2="96.5" y2="78" stroke="#3CC29A"/>
<line x1="96" y1="85.5" x2="103.998" y2="85.5" stroke="#3CC29A"/>
<line x1="103.5" y1="93" x2="103.5" y2="78" stroke="#3CC29A"/>
</g>
<path d="M103.049 66.6719C103.049 66.9727 102.999 67.2529 102.898 67.5127C102.803 67.7725 102.666 68.0049 102.488 68.21C102.379 68.3421 102.254 68.4652 102.112 68.5791C101.971 68.693 101.814 68.7933 101.641 68.8799C101.846 68.9756 102.035 69.0872 102.208 69.2148C102.386 69.3379 102.541 69.4814 102.673 69.6455C102.86 69.8643 103.006 70.1126 103.11 70.3906C103.215 70.6686 103.268 70.9694 103.268 71.293C103.268 71.7533 103.183 72.1611 103.015 72.5166C102.846 72.8721 102.616 73.1683 102.324 73.4053C102.028 73.6468 101.682 73.8291 101.285 73.9521C100.893 74.0752 100.469 74.1367 100.014 74.1367C99.5488 74.1367 99.1159 74.0752 98.7148 73.9521C98.3184 73.8291 97.9743 73.6468 97.6826 73.4053C97.3864 73.1683 97.154 72.8743 96.9854 72.5234C96.8213 72.168 96.7393 71.7578 96.7393 71.293C96.7393 71.0195 96.7757 70.7598 96.8486 70.5137C96.9261 70.2676 97.0355 70.0397 97.1768 69.8301C97.318 69.6296 97.4867 69.4495 97.6826 69.29C97.8831 69.126 98.1064 68.987 98.3525 68.873C98.1429 68.7682 97.9515 68.6406 97.7783 68.4902C97.6097 68.3398 97.4661 68.1735 97.3477 67.9912C97.2246 67.8044 97.1289 67.5993 97.0605 67.376C96.9922 67.1527 96.958 66.918 96.958 66.6719C96.958 66.2298 97.0332 65.8379 97.1836 65.4961C97.3385 65.1543 97.5505 64.8649 97.8193 64.6279C98.0837 64.391 98.4004 64.2132 98.7695 64.0947C99.1432 63.9717 99.5511 63.9102 99.9932 63.9102C100.431 63.9102 100.834 63.9717 101.203 64.0947C101.577 64.2132 101.903 64.391 102.181 64.6279C102.45 64.8604 102.661 65.1497 102.816 65.4961C102.971 65.8379 103.049 66.2298 103.049 66.6719ZM101.634 71.2041C101.634 70.958 101.593 70.7347 101.511 70.5342C101.433 70.3291 101.324 70.1514 101.183 70.001C101.037 69.8597 100.864 69.7503 100.663 69.6729C100.463 69.5954 100.242 69.5566 100 69.5566C99.7493 69.5566 99.5238 69.5954 99.3232 69.6729C99.1273 69.7503 98.9587 69.8597 98.8174 70.001C98.6761 70.1514 98.5667 70.3291 98.4893 70.5342C98.4163 70.7347 98.3799 70.9603 98.3799 71.2109C98.3799 71.4661 98.4186 71.6963 98.4961 71.9014C98.5736 72.1019 98.6852 72.2705 98.8311 72.4072C98.9723 72.5394 99.141 72.6419 99.3369 72.7148C99.5374 72.7832 99.763 72.8174 100.014 72.8174C100.251 72.8174 100.467 72.7809 100.663 72.708C100.864 72.6351 101.037 72.5303 101.183 72.3936C101.319 72.2523 101.429 72.0837 101.511 71.8877C101.593 71.6872 101.634 71.4593 101.634 71.2041ZM101.422 66.7334C101.422 66.5101 101.385 66.3073 101.312 66.125C101.244 65.9427 101.148 65.7832 101.025 65.6465C100.898 65.5189 100.747 65.4186 100.574 65.3457C100.401 65.2728 100.205 65.2363 99.9863 65.2363C99.7721 65.2363 99.5785 65.2728 99.4053 65.3457C99.2367 65.4141 99.0908 65.512 98.9678 65.6396C98.8493 65.7673 98.7581 65.9245 98.6943 66.1113C98.6305 66.2982 98.5986 66.5055 98.5986 66.7334C98.5986 66.9567 98.6305 67.1618 98.6943 67.3486C98.7581 67.5309 98.8538 67.6859 98.9814 67.8135C99.1045 67.9456 99.2526 68.0482 99.4258 68.1211C99.599 68.194 99.7926 68.2305 100.007 68.2305C100.221 68.2305 100.415 68.194 100.588 68.1211C100.761 68.0482 100.909 67.9456 101.032 67.8135C101.155 67.6859 101.251 67.5309 101.319 67.3486C101.388 67.1618 101.422 66.9567 101.422 66.7334Z" fill="#3CC29A"/>
<path d="M389.396 119.333H382.718V118.199L385.958 114.671C386.227 114.375 386.452 114.111 386.635 113.878C386.817 113.641 386.965 113.425 387.079 113.229C387.188 113.033 387.266 112.851 387.312 112.682C387.362 112.509 387.387 112.336 387.387 112.162C387.387 111.93 387.353 111.718 387.284 111.527C387.216 111.335 387.116 111.171 386.983 111.035C386.851 110.898 386.692 110.791 386.505 110.713C386.323 110.636 386.118 110.597 385.89 110.597C385.598 110.597 385.345 110.638 385.131 110.72C384.917 110.802 384.739 110.918 384.598 111.069C384.452 111.228 384.342 111.422 384.27 111.65C384.197 111.873 384.16 112.128 384.16 112.415H382.52C382.52 111.982 382.599 111.575 382.759 111.192C382.918 110.804 383.146 110.467 383.442 110.18C383.734 109.893 384.09 109.665 384.509 109.496C384.933 109.328 385.404 109.244 385.924 109.244C386.411 109.244 386.847 109.314 387.229 109.455C387.617 109.597 387.943 109.793 388.207 110.043C388.467 110.294 388.665 110.595 388.802 110.946C388.938 111.292 389.007 111.675 389.007 112.094C389.007 112.409 388.954 112.714 388.85 113.01C388.749 113.302 388.61 113.591 388.433 113.878C388.25 114.165 388.034 114.455 387.783 114.746C387.537 115.038 387.268 115.339 386.977 115.649L384.762 118.014H389.396V119.333ZM397.713 115.539C397.713 116.177 397.637 116.743 397.487 117.235C397.341 117.722 397.129 118.13 396.851 118.458C396.578 118.796 396.241 119.051 395.839 119.224C395.443 119.393 394.992 119.477 394.486 119.477C393.985 119.477 393.534 119.393 393.132 119.224C392.731 119.051 392.392 118.796 392.114 118.458C391.831 118.13 391.615 117.722 391.464 117.235C391.319 116.743 391.246 116.177 391.246 115.539V113.181C391.246 112.543 391.319 111.98 391.464 111.493C391.615 111 391.829 110.586 392.107 110.248C392.385 109.916 392.722 109.665 393.119 109.496C393.52 109.323 393.971 109.237 394.472 109.237C394.978 109.237 395.429 109.323 395.826 109.496C396.227 109.665 396.569 109.916 396.851 110.248C397.125 110.586 397.337 111 397.487 111.493C397.637 111.98 397.713 112.543 397.713 113.181V115.539ZM392.886 114.958L396.051 112.559C396.033 112.203 395.983 111.896 395.901 111.636C395.824 111.376 395.712 111.164 395.566 111C395.438 110.855 395.281 110.745 395.094 110.672C394.912 110.599 394.705 110.563 394.472 110.563C394.222 110.563 394.001 110.606 393.809 110.693C393.618 110.779 393.458 110.907 393.331 111.076C393.18 111.267 393.069 111.515 392.996 111.821C392.923 112.121 392.886 112.477 392.886 112.887V114.227C392.886 114.4 392.886 114.532 392.886 114.623C392.886 114.715 392.886 114.826 392.886 114.958ZM396.065 115.813V114.555C396.065 114.441 396.065 114.323 396.065 114.2C396.065 114.077 396.065 113.949 396.065 113.817L392.9 116.203C392.923 116.517 392.971 116.795 393.044 117.036C393.121 117.278 393.224 117.479 393.351 117.638C393.479 117.811 393.636 117.941 393.823 118.028C394.014 118.114 394.235 118.158 394.486 118.158C394.732 118.158 394.949 118.117 395.135 118.035C395.322 117.948 395.482 117.823 395.614 117.659C395.764 117.467 395.876 117.217 395.949 116.907C396.026 116.597 396.065 116.232 396.065 115.813ZM409.197 115.286C409.197 114.644 409.247 114.038 409.348 113.468C409.448 112.894 409.582 112.363 409.751 111.875C409.924 111.397 410.122 110.957 410.346 110.556C410.573 110.155 410.813 109.8 411.063 109.49C411.309 109.18 411.562 108.918 411.822 108.703C412.082 108.485 412.333 108.316 412.574 108.198L412.902 109.148C412.756 109.257 412.611 109.389 412.465 109.544C412.319 109.699 412.175 109.875 412.034 110.071C411.838 110.349 411.654 110.675 411.48 111.048C411.312 111.422 411.166 111.83 411.043 112.272C410.929 112.687 410.838 113.145 410.769 113.646C410.706 114.147 410.674 114.689 410.674 115.273V115.416C410.674 115.986 410.706 116.517 410.769 117.009C410.833 117.497 410.908 117.911 410.995 118.253C411.104 118.663 411.23 119.044 411.371 119.395C411.517 119.746 411.67 120.056 411.829 120.325C411.998 120.598 412.173 120.84 412.355 121.049C412.538 121.259 412.72 121.434 412.902 121.576L412.574 122.492C412.333 122.373 412.082 122.204 411.822 121.986C411.562 121.772 411.307 121.509 411.057 121.2C410.806 120.89 410.567 120.534 410.339 120.133C410.115 119.737 409.92 119.295 409.751 118.807C409.582 118.324 409.448 117.8 409.348 117.235C409.247 116.665 409.197 116.054 409.197 115.403V115.286ZM417.882 117.98H422.633V119.333H416.235V109.38H417.882V117.98ZM429.124 119.333C429.074 119.242 429.033 119.133 429.001 119.005C428.974 118.873 428.949 118.736 428.926 118.595C428.812 118.714 428.682 118.828 428.536 118.937C428.395 119.042 428.236 119.133 428.058 119.21C427.88 119.292 427.689 119.356 427.484 119.402C427.279 119.447 427.057 119.47 426.821 119.47C426.438 119.47 426.087 119.415 425.768 119.306C425.453 119.192 425.184 119.037 424.961 118.841C424.733 118.65 424.556 118.42 424.428 118.151C424.305 117.877 424.243 117.583 424.243 117.269C424.243 116.863 424.323 116.506 424.483 116.196C424.647 115.881 424.884 115.621 425.194 115.416C425.481 115.225 425.834 115.079 426.253 114.979C426.677 114.879 427.155 114.828 427.689 114.828H428.878V114.329C428.878 114.138 428.844 113.965 428.776 113.81C428.712 113.655 428.618 113.521 428.495 113.407C428.363 113.293 428.201 113.206 428.01 113.147C427.823 113.083 427.607 113.051 427.361 113.051C427.137 113.051 426.941 113.078 426.773 113.133C426.609 113.188 426.472 113.263 426.362 113.359C426.253 113.445 426.171 113.552 426.116 113.68C426.066 113.803 426.041 113.935 426.041 114.077H424.401C424.405 113.78 424.476 113.495 424.612 113.222C424.749 112.949 424.95 112.707 425.214 112.497C425.469 112.283 425.784 112.115 426.157 111.992C426.536 111.864 426.966 111.8 427.449 111.8C427.882 111.8 428.286 111.855 428.659 111.964C429.038 112.069 429.363 112.226 429.637 112.436C429.91 112.646 430.125 112.912 430.279 113.236C430.434 113.555 430.512 113.924 430.512 114.343V117.631C430.512 117.964 430.535 118.265 430.58 118.534C430.63 118.798 430.701 119.026 430.792 119.217V119.333H429.124ZM427.135 118.158C427.349 118.158 427.547 118.13 427.73 118.076C427.917 118.021 428.085 117.95 428.236 117.864C428.386 117.777 428.516 117.679 428.625 117.57C428.735 117.46 428.819 117.346 428.878 117.228V115.861H427.825C427.47 115.861 427.162 115.895 426.903 115.963C426.643 116.027 426.435 116.12 426.28 116.244C426.144 116.348 426.041 116.474 425.973 116.62C425.909 116.765 425.877 116.929 425.877 117.112C425.877 117.262 425.904 117.403 425.959 117.536C426.014 117.663 426.094 117.773 426.198 117.864C426.303 117.955 426.433 118.028 426.588 118.082C426.743 118.133 426.925 118.158 427.135 118.158ZM439.17 115.71C439.17 116.052 439.145 116.378 439.095 116.688C439.044 116.998 438.972 117.285 438.876 117.549C438.766 117.864 438.621 118.148 438.438 118.404C438.256 118.659 438.037 118.871 437.782 119.039C437.577 119.176 437.347 119.281 437.092 119.354C436.841 119.431 436.568 119.47 436.271 119.47C435.971 119.47 435.697 119.434 435.451 119.361C435.205 119.288 434.984 119.181 434.788 119.039C434.688 118.967 434.592 118.889 434.501 118.807C434.414 118.72 434.33 118.627 434.248 118.527L434.173 119.333H432.696V108.833H434.33V112.661C434.426 112.543 434.53 112.436 434.644 112.34C434.758 112.245 434.881 112.16 435.014 112.087C435.187 111.992 435.376 111.921 435.581 111.875C435.791 111.825 436.016 111.8 436.258 111.8C436.577 111.8 436.868 111.843 437.133 111.93C437.402 112.012 437.643 112.131 437.857 112.286C438.04 112.413 438.201 112.57 438.343 112.757C438.488 112.939 438.616 113.14 438.725 113.359C438.871 113.664 438.981 114.004 439.054 114.377C439.131 114.751 439.17 115.148 439.17 115.567V115.71ZM437.536 115.567C437.536 115.357 437.522 115.154 437.495 114.958C437.472 114.758 437.438 114.571 437.392 114.398C437.329 114.188 437.244 113.999 437.139 113.83C437.039 113.657 436.903 113.511 436.729 113.393C436.615 113.311 436.486 113.249 436.34 113.208C436.194 113.167 436.03 113.147 435.847 113.147C435.624 113.147 435.424 113.179 435.246 113.243C435.068 113.302 434.913 113.388 434.781 113.502C434.685 113.58 434.599 113.671 434.521 113.776C434.448 113.876 434.385 113.985 434.33 114.104V117.166C434.394 117.303 434.469 117.428 434.556 117.542C434.647 117.652 434.749 117.75 434.863 117.836C434.991 117.927 435.137 118 435.301 118.055C435.469 118.105 435.656 118.13 435.861 118.13C436.048 118.13 436.217 118.107 436.367 118.062C436.517 118.012 436.652 117.946 436.77 117.864C436.93 117.75 437.06 117.606 437.16 117.433C437.265 117.255 437.345 117.057 437.399 116.838C437.445 116.674 437.479 116.496 437.502 116.305C437.525 116.114 437.536 115.915 437.536 115.71V115.567ZM444.389 119.47C443.842 119.47 443.341 119.379 442.885 119.197C442.434 119.014 442.047 118.761 441.723 118.438C441.4 118.119 441.149 117.743 440.971 117.31C440.798 116.872 440.711 116.401 440.711 115.895V115.615C440.711 115.036 440.803 114.512 440.985 114.042C441.167 113.573 441.418 113.172 441.737 112.839C442.056 112.507 442.425 112.251 442.844 112.074C443.268 111.891 443.719 111.8 444.198 111.8C444.731 111.8 445.203 111.891 445.613 112.074C446.023 112.251 446.367 112.5 446.645 112.819C446.923 113.142 447.133 113.527 447.274 113.974C447.415 114.421 447.486 114.908 447.486 115.437V116.141H442.359V116.175C442.409 116.499 442.486 116.77 442.591 116.989C442.696 117.207 442.84 117.403 443.022 117.577C443.204 117.759 443.418 117.9 443.665 118C443.915 118.101 444.189 118.151 444.485 118.151C444.89 118.151 445.269 118.073 445.62 117.918C445.971 117.759 446.26 117.533 446.488 117.242L447.363 118.089C447.117 118.445 446.738 118.764 446.228 119.046C445.722 119.329 445.109 119.47 444.389 119.47ZM444.191 113.126C443.958 113.126 443.742 113.17 443.541 113.256C443.346 113.338 443.17 113.457 443.015 113.612C442.86 113.771 442.73 113.963 442.625 114.186C442.521 114.409 442.443 114.662 442.393 114.945H445.873V114.835C445.873 114.621 445.834 114.409 445.756 114.2C445.679 113.985 445.569 113.799 445.428 113.639C445.291 113.484 445.118 113.361 444.909 113.27C444.704 113.174 444.464 113.126 444.191 113.126ZM449.52 108.833H453.505V117.98H455.747V119.333H449.52V117.98H451.858V110.194H449.52V108.833ZM472.133 119.333H470.527V114.897H467.177V119.333H465.578V109.38H467.177V113.543H470.527V109.38H472.133V119.333ZM477.462 119.47C476.915 119.47 476.414 119.379 475.958 119.197C475.507 119.014 475.12 118.761 474.796 118.438C474.472 118.119 474.222 117.743 474.044 117.31C473.871 116.872 473.784 116.401 473.784 115.895V115.615C473.784 115.036 473.875 114.512 474.058 114.042C474.24 113.573 474.491 113.172 474.81 112.839C475.129 112.507 475.498 112.251 475.917 112.074C476.341 111.891 476.792 111.8 477.271 111.8C477.804 111.8 478.275 111.891 478.686 112.074C479.096 112.251 479.44 112.5 479.718 112.819C479.996 113.142 480.205 113.527 480.347 113.974C480.488 114.421 480.559 114.908 480.559 115.437V116.141H475.432V116.175C475.482 116.499 475.559 116.77 475.664 116.989C475.769 117.207 475.912 117.403 476.095 117.577C476.277 117.759 476.491 117.9 476.737 118C476.988 118.101 477.261 118.151 477.558 118.151C477.963 118.151 478.342 118.073 478.692 117.918C479.043 117.759 479.333 117.533 479.561 117.242L480.436 118.089C480.189 118.445 479.811 118.764 479.301 119.046C478.795 119.329 478.182 119.47 477.462 119.47ZM477.264 113.126C477.031 113.126 476.815 113.17 476.614 113.256C476.418 113.338 476.243 113.457 476.088 113.612C475.933 113.771 475.803 113.963 475.698 114.186C475.593 114.409 475.516 114.662 475.466 114.945H478.945V114.835C478.945 114.621 478.907 114.409 478.829 114.2C478.752 113.985 478.642 113.799 478.501 113.639C478.364 113.484 478.191 113.361 477.981 113.27C477.776 113.174 477.537 113.126 477.264 113.126ZM482.654 111.937H486.578V117.98H488.752V119.333H482.654V117.98H484.93V113.297H482.654V111.937ZM484.78 110.023C484.78 109.891 484.803 109.77 484.848 109.661C484.894 109.547 484.96 109.449 485.047 109.367C485.129 109.289 485.227 109.23 485.341 109.189C485.459 109.143 485.591 109.12 485.737 109.12C485.983 109.12 486.181 109.184 486.332 109.312C486.487 109.435 486.576 109.594 486.598 109.79C486.63 109.991 486.596 110.166 486.496 110.317C486.396 110.463 486.25 110.561 486.058 110.611C485.963 110.697 485.849 110.754 485.716 110.782C485.584 110.809 485.438 110.798 485.279 110.747C485.115 110.697 484.99 110.608 484.903 110.481C484.821 110.349 484.78 110.196 484.78 110.023ZM490.334 115.58C490.334 115.02 490.403 114.509 490.539 114.049C490.676 113.584 490.874 113.186 491.134 112.853C491.394 112.52 491.706 112.263 492.071 112.08C492.44 111.894 492.854 111.8 493.315 111.8C493.588 111.8 493.837 111.83 494.06 111.889C494.283 111.944 494.486 112.026 494.668 112.135C494.787 112.203 494.898 112.286 495.003 112.381C495.108 112.472 495.206 112.573 495.297 112.682L495.366 111.937H496.849V119.128C496.849 119.625 496.767 120.065 496.603 120.448C496.443 120.835 496.218 121.163 495.926 121.432C495.63 121.696 495.274 121.897 494.86 122.034C494.45 122.175 493.996 122.245 493.499 122.245C493.29 122.245 493.06 122.223 492.809 122.177C492.558 122.132 492.308 122.061 492.057 121.965C491.806 121.87 491.567 121.744 491.339 121.589C491.111 121.434 490.915 121.247 490.751 121.029L491.524 120.037C491.656 120.197 491.797 120.334 491.948 120.448C492.103 120.566 492.26 120.662 492.419 120.735C492.579 120.808 492.741 120.86 492.905 120.892C493.069 120.928 493.235 120.947 493.404 120.947C493.695 120.947 493.953 120.906 494.176 120.824C494.404 120.742 494.598 120.623 494.757 120.468C494.903 120.318 495.015 120.133 495.092 119.914C495.174 119.696 495.215 119.447 495.215 119.169V118.657C495.119 118.757 495.019 118.85 494.914 118.937C494.814 119.023 494.705 119.099 494.586 119.162C494.409 119.263 494.213 119.338 493.998 119.388C493.784 119.443 493.552 119.47 493.301 119.47C492.845 119.47 492.435 119.377 492.071 119.19C491.706 118.998 491.394 118.734 491.134 118.397C490.879 118.064 490.681 117.67 490.539 117.214C490.403 116.754 490.334 116.257 490.334 115.724V115.58ZM491.975 115.724C491.975 116.052 492.007 116.362 492.071 116.654C492.139 116.945 492.246 117.198 492.392 117.412C492.533 117.636 492.713 117.811 492.932 117.939C493.151 118.062 493.41 118.123 493.711 118.123C493.898 118.123 494.067 118.103 494.217 118.062C494.372 118.021 494.511 117.964 494.634 117.891C494.757 117.814 494.867 117.72 494.962 117.611C495.058 117.501 495.142 117.381 495.215 117.248V114.008C495.142 113.871 495.053 113.748 494.949 113.639C494.848 113.53 494.732 113.436 494.6 113.359C494.481 113.295 494.349 113.245 494.203 113.208C494.058 113.167 493.898 113.147 493.725 113.147C493.42 113.147 493.158 113.211 492.939 113.338C492.72 113.466 492.54 113.641 492.399 113.865C492.253 114.088 492.146 114.348 492.077 114.644C492.009 114.936 491.975 115.248 491.975 115.58V115.724ZM500.448 112.99C500.544 112.844 500.651 112.709 500.769 112.586C500.888 112.463 501.013 112.356 501.145 112.265C501.351 112.115 501.576 112.001 501.822 111.923C502.073 111.841 502.337 111.8 502.615 111.8C503.003 111.8 503.356 111.857 503.675 111.971C503.998 112.085 504.274 112.263 504.502 112.504C504.73 112.746 504.905 113.056 505.028 113.434C505.156 113.808 505.22 114.257 505.22 114.781V119.333H503.586V114.767C503.586 114.494 503.552 114.254 503.483 114.049C503.42 113.844 503.324 113.678 503.196 113.55C503.064 113.413 502.902 113.313 502.711 113.249C502.524 113.181 502.308 113.147 502.061 113.147C501.87 113.147 501.688 113.17 501.515 113.215C501.346 113.261 501.191 113.327 501.05 113.413C500.931 113.482 500.82 113.564 500.715 113.66C500.615 113.755 500.526 113.862 500.448 113.981V119.333H498.814V108.833H500.448V112.99ZM510.364 110.132V111.937H513.146V113.161H510.364V116.695C510.364 116.968 510.396 117.198 510.46 117.385C510.528 117.567 510.621 117.711 510.74 117.816C510.858 117.925 511 118.003 511.164 118.048C511.328 118.094 511.508 118.117 511.704 118.117C511.845 118.117 511.991 118.11 512.141 118.096C512.292 118.082 512.437 118.064 512.579 118.041C512.715 118.023 512.843 118.003 512.962 117.98C513.085 117.953 513.187 117.93 513.269 117.911L513.447 119.039C513.328 119.112 513.185 119.176 513.016 119.231C512.852 119.281 512.674 119.324 512.483 119.361C512.292 119.397 512.091 119.425 511.881 119.443C511.676 119.466 511.471 119.477 511.266 119.477C510.893 119.477 510.548 119.427 510.234 119.327C509.924 119.222 509.657 119.06 509.434 118.841C509.211 118.627 509.035 118.351 508.908 118.014C508.785 117.677 508.723 117.271 508.723 116.797V113.161H506.932V111.937H508.723V110.132H510.364ZM520.225 115.403C520.225 116.041 520.172 116.642 520.068 117.207C519.967 117.773 519.831 118.297 519.657 118.78C519.484 119.267 519.284 119.712 519.056 120.113C518.828 120.514 518.586 120.869 518.331 121.179C518.076 121.498 517.816 121.767 517.552 121.986C517.288 122.204 517.032 122.373 516.786 122.492L516.465 121.576C516.638 121.448 516.811 121.286 516.985 121.09C517.158 120.894 517.326 120.669 517.49 120.413C517.664 120.131 517.825 119.81 517.976 119.45C518.131 119.094 518.261 118.7 518.365 118.267C518.466 117.866 518.543 117.428 518.598 116.954C518.657 116.481 518.687 115.968 518.687 115.416V115.273C518.687 114.703 518.655 114.179 518.591 113.701C518.527 113.222 518.447 112.794 518.352 112.415C518.224 111.923 518.069 111.481 517.887 111.089C517.709 110.697 517.522 110.358 517.326 110.071C517.19 109.866 517.046 109.683 516.896 109.524C516.75 109.36 516.606 109.223 516.465 109.114L516.786 108.198C517.032 108.316 517.288 108.487 517.552 108.71C517.821 108.929 518.081 109.193 518.331 109.503C518.591 109.822 518.835 110.182 519.063 110.583C519.291 110.98 519.489 111.422 519.657 111.91C519.826 112.393 519.963 112.914 520.068 113.475C520.172 114.031 520.225 114.635 520.225 115.286V115.403Z" fill="#C7A5FA"/>
<g clip-path="url(#clip2_2102_36010)">
<line x1="363" y1="104.5" x2="378" y2="104.5" stroke="#C7A5FA"/>
<line x1="370.5" y1="124.833" x2="370.5" y2="104.833" stroke="#C7A5FA"/>
<line x1="363" y1="123.5" x2="378" y2="123.5" stroke="#C7A5FA"/>
</g>
<path d="M61.233 120V109.818H62.4659V118.906H67.1989V120H61.233ZM71.196 120.179C70.7121 120.179 70.273 120.088 69.8786 119.906C69.4841 119.72 69.1709 119.453 68.9389 119.105C68.7069 118.754 68.5909 118.33 68.5909 117.832C68.5909 117.395 68.6771 117.04 68.8494 116.768C69.0218 116.493 69.2521 116.278 69.5405 116.122C69.8288 115.966 70.147 115.85 70.495 115.774C70.8464 115.695 71.1993 115.632 71.554 115.585C72.018 115.526 72.3942 115.481 72.6825 115.451C72.9742 115.418 73.1863 115.363 73.3189 115.287C73.4548 115.211 73.5227 115.078 73.5227 114.889V114.849C73.5227 114.359 73.3885 113.978 73.12 113.706C72.8549 113.434 72.4522 113.298 71.9119 113.298C71.3518 113.298 70.9126 113.421 70.5945 113.666C70.2763 113.911 70.0526 114.173 69.9233 114.452L68.8097 114.054C69.0085 113.59 69.2737 113.229 69.6051 112.97C69.9399 112.708 70.3045 112.526 70.6989 112.423C71.0966 112.317 71.4877 112.264 71.8722 112.264C72.1174 112.264 72.3991 112.294 72.7173 112.354C73.0388 112.41 73.3487 112.528 73.647 112.707C73.9486 112.886 74.1989 113.156 74.3977 113.517C74.5966 113.878 74.696 114.362 74.696 114.969V120H73.5227V118.966H73.4631C73.3835 119.132 73.2509 119.309 73.0653 119.498C72.8797 119.687 72.6328 119.848 72.3246 119.98C72.0163 120.113 71.6402 120.179 71.196 120.179ZM71.375 119.125C71.839 119.125 72.2301 119.034 72.5483 118.852C72.8698 118.669 73.1117 118.434 73.2741 118.146C73.4399 117.857 73.5227 117.554 73.5227 117.236V116.162C73.473 116.222 73.3636 116.276 73.1946 116.326C73.0289 116.372 72.8366 116.414 72.6179 116.45C72.4025 116.483 72.192 116.513 71.9865 116.54C71.7843 116.563 71.6203 116.583 71.4943 116.599C71.1894 116.639 70.9044 116.704 70.6392 116.793C70.3774 116.879 70.1652 117.01 70.0028 117.186C69.8438 117.358 69.7642 117.594 69.7642 117.892C69.7642 118.3 69.915 118.608 70.2166 118.817C70.5215 119.022 70.9077 119.125 71.375 119.125ZM76.9966 120V109.818H78.1699V113.577H78.2694C78.3555 113.444 78.4748 113.275 78.6273 113.07C78.7831 112.861 79.0051 112.675 79.2935 112.513C79.5852 112.347 79.9796 112.264 80.4767 112.264C81.1197 112.264 81.6865 112.425 82.177 112.746C82.6676 113.068 83.0504 113.524 83.3255 114.114C83.6006 114.704 83.7381 115.4 83.7381 116.202C83.7381 117.01 83.6006 117.711 83.3255 118.305C83.0504 118.895 82.6692 119.352 82.182 119.677C81.6948 119.998 81.133 120.159 80.4966 120.159C80.0061 120.159 79.6133 120.078 79.3184 119.915C79.0234 119.75 78.7963 119.562 78.6373 119.354C78.4782 119.142 78.3555 118.966 78.2694 118.827H78.1301V120H76.9966ZM78.15 116.182C78.15 116.759 78.2346 117.267 78.4036 117.708C78.5726 118.146 78.8195 118.489 79.1444 118.737C79.4692 118.982 79.8669 119.105 80.3375 119.105C80.8281 119.105 81.2374 118.976 81.5655 118.717C81.897 118.455 82.1455 118.104 82.3113 117.663C82.4803 117.219 82.5648 116.725 82.5648 116.182C82.5648 115.645 82.4819 115.161 82.3162 114.73C82.1538 114.296 81.9069 113.953 81.5755 113.701C81.2473 113.446 80.8347 113.318 80.3375 113.318C79.8603 113.318 79.4592 113.439 79.1344 113.681C78.8096 113.92 78.5643 114.254 78.3986 114.685C78.2329 115.113 78.15 115.612 78.15 116.182ZM88.7346 120.159C87.9988 120.159 87.3641 119.997 86.8304 119.672C86.3001 119.344 85.8908 118.886 85.6025 118.3C85.3174 117.71 85.1749 117.024 85.1749 116.241C85.1749 115.459 85.3174 114.77 85.6025 114.173C85.8908 113.573 86.2918 113.106 86.8056 112.771C87.3226 112.433 87.9258 112.264 88.6152 112.264C89.013 112.264 89.4057 112.33 89.7935 112.463C90.1813 112.596 90.5343 112.811 90.8525 113.109C91.1706 113.404 91.4242 113.795 91.6131 114.283C91.802 114.77 91.8965 115.37 91.8965 116.082V116.58H86.0101V115.565H90.7033C90.7033 115.134 90.6171 114.75 90.4448 114.412C90.2757 114.074 90.0338 113.807 89.7189 113.612C89.4074 113.416 89.0395 113.318 88.6152 113.318C88.1479 113.318 87.7435 113.434 87.4022 113.666C87.0641 113.895 86.8039 114.193 86.6216 114.561C86.4393 114.929 86.3482 115.323 86.3482 115.744V116.42C86.3482 116.997 86.4476 117.486 86.6465 117.887C86.8487 118.285 87.1287 118.588 87.4867 118.797C87.8446 119.002 88.2606 119.105 88.7346 119.105C89.0428 119.105 89.3212 119.062 89.5698 118.976C89.8217 118.886 90.0388 118.754 90.2211 118.578C90.4034 118.399 90.5442 118.177 90.6436 117.912L91.7772 118.23C91.6578 118.615 91.4573 118.953 91.1756 119.244C90.8939 119.533 90.5459 119.758 90.1316 119.92C89.7173 120.08 89.2516 120.159 88.7346 120.159ZM94.8546 109.818V120H93.6813V109.818H94.8546Z" fill="white" fill-opacity="0.95"/>
<g clip-path="url(#clip3_2102_36010)">
<rect width="174" height="4" transform="translate(104 113)" fill="#8F8F8F"/>
<rect width="130.5" height="4" transform="translate(104 113)" fill="#3492EB"/>
</g>
<path d="M287.233 120V109.818H288.466V114.352H293.895V109.818H295.128V120H293.895V115.446H288.466V120H287.233ZM300.639 120.159C299.903 120.159 299.268 119.997 298.735 119.672C298.204 119.344 297.795 118.886 297.507 118.3C297.222 117.71 297.079 117.024 297.079 116.241C297.079 115.459 297.222 114.77 297.507 114.173C297.795 113.573 298.196 113.106 298.71 112.771C299.227 112.433 299.83 112.264 300.52 112.264C300.917 112.264 301.31 112.33 301.698 112.463C302.086 112.596 302.439 112.811 302.757 113.109C303.075 113.404 303.328 113.795 303.517 114.283C303.706 114.77 303.801 115.37 303.801 116.082V116.58H297.914V115.565H302.608C302.608 115.134 302.521 114.75 302.349 114.412C302.18 114.074 301.938 113.807 301.623 113.612C301.312 113.416 300.944 113.318 300.52 113.318C300.052 113.318 299.648 113.434 299.306 113.666C298.968 113.895 298.708 114.193 298.526 114.561C298.344 114.929 298.252 115.323 298.252 115.744V116.42C298.252 116.997 298.352 117.486 298.551 117.887C298.753 118.285 299.033 118.588 299.391 118.797C299.749 119.002 300.165 119.105 300.639 119.105C300.947 119.105 301.225 119.062 301.474 118.976C301.726 118.886 301.943 118.754 302.125 118.578C302.308 118.399 302.449 118.177 302.548 117.912L303.681 118.23C303.562 118.615 303.362 118.953 303.08 119.244C302.798 119.533 302.45 119.758 302.036 119.92C301.622 120.08 301.156 120.159 300.639 120.159ZM306.759 109.818V120H305.586V109.818H306.759ZM308.908 122.864V112.364H310.041V113.577H310.181C310.267 113.444 310.386 113.275 310.539 113.07C310.694 112.861 310.916 112.675 311.205 112.513C311.496 112.347 311.891 112.264 312.388 112.264C313.031 112.264 313.598 112.425 314.088 112.746C314.579 113.068 314.962 113.524 315.237 114.114C315.512 114.704 315.649 115.4 315.649 116.202C315.649 117.01 315.512 117.711 315.237 118.305C314.962 118.895 314.58 119.352 314.093 119.677C313.606 119.998 313.044 120.159 312.408 120.159C311.917 120.159 311.525 120.078 311.23 119.915C310.935 119.75 310.708 119.562 310.548 119.354C310.389 119.142 310.267 118.966 310.181 118.827H310.081V122.864H308.908ZM310.061 116.182C310.061 116.759 310.146 117.267 310.315 117.708C310.484 118.146 310.731 118.489 311.056 118.737C311.38 118.982 311.778 119.105 312.249 119.105C312.739 119.105 313.149 118.976 313.477 118.717C313.808 118.455 314.057 118.104 314.222 117.663C314.392 117.219 314.476 116.725 314.476 116.182C314.476 115.645 314.393 115.161 314.227 114.73C314.065 114.296 313.818 113.953 313.487 113.701C313.159 113.446 312.746 113.318 312.249 113.318C311.771 113.318 311.37 113.439 311.046 113.681C310.721 113.92 310.476 114.254 310.31 114.685C310.144 115.113 310.061 115.612 310.061 116.182ZM320.641 120.159C319.905 120.159 319.27 119.997 318.737 119.672C318.206 119.344 317.797 118.886 317.509 118.3C317.224 117.71 317.081 117.024 317.081 116.241C317.081 115.459 317.224 114.77 317.509 114.173C317.797 113.573 318.198 113.106 318.712 112.771C319.229 112.433 319.832 112.264 320.521 112.264C320.919 112.264 321.312 112.33 321.7 112.463C322.088 112.596 322.441 112.811 322.759 113.109C323.077 113.404 323.33 113.795 323.519 114.283C323.708 114.77 323.803 115.37 323.803 116.082V116.58H317.916V115.565H322.61C322.61 115.134 322.523 114.75 322.351 114.412C322.182 114.074 321.94 113.807 321.625 113.612C321.314 113.416 320.946 113.318 320.521 113.318C320.054 113.318 319.65 113.434 319.308 113.666C318.97 113.895 318.71 114.193 318.528 114.561C318.346 114.929 318.254 115.323 318.254 115.744V116.42C318.254 116.997 318.354 117.486 318.553 117.887C318.755 118.285 319.035 118.588 319.393 118.797C319.751 119.002 320.167 119.105 320.641 119.105C320.949 119.105 321.227 119.062 321.476 118.976C321.728 118.886 321.945 118.754 322.127 118.578C322.31 118.399 322.45 118.177 322.55 117.912L323.683 118.23C323.564 118.615 323.364 118.953 323.082 119.244C322.8 119.533 322.452 119.758 322.038 119.92C321.624 120.08 321.158 120.159 320.641 120.159ZM325.588 120V112.364H326.721V113.517H326.801C326.94 113.139 327.192 112.833 327.556 112.597C327.921 112.362 328.332 112.244 328.789 112.244C328.875 112.244 328.983 112.246 329.112 112.249C329.242 112.253 329.339 112.258 329.406 112.264V113.457C329.366 113.447 329.275 113.433 329.132 113.413C328.993 113.389 328.846 113.378 328.69 113.378C328.319 113.378 327.987 113.456 327.695 113.612C327.407 113.764 327.178 113.976 327.009 114.248C326.844 114.516 326.761 114.823 326.761 115.168V120H325.588ZM338.055 112.364V113.358H334.098V112.364H338.055ZM335.251 110.534H336.424V117.812C336.424 118.144 336.472 118.393 336.569 118.558C336.668 118.721 336.794 118.83 336.946 118.886C337.102 118.939 337.266 118.966 337.439 118.966C337.568 118.966 337.674 118.959 337.757 118.946C337.84 118.929 337.906 118.916 337.956 118.906L338.194 119.96C338.115 119.99 338.004 120.02 337.861 120.05C337.719 120.083 337.538 120.099 337.319 120.099C336.988 120.099 336.663 120.028 336.345 119.886C336.03 119.743 335.768 119.526 335.559 119.234C335.354 118.943 335.251 118.575 335.251 118.131V110.534ZM342.94 120.159C342.204 120.159 341.569 119.997 341.036 119.672C340.505 119.344 340.096 118.886 339.808 118.3C339.522 117.71 339.38 117.024 339.38 116.241C339.38 115.459 339.522 114.77 339.808 114.173C340.096 113.573 340.497 113.106 341.011 112.771C341.528 112.433 342.131 112.264 342.82 112.264C343.218 112.264 343.611 112.33 343.999 112.463C344.386 112.596 344.739 112.811 345.058 113.109C345.376 113.404 345.629 113.795 345.818 114.283C346.007 114.77 346.102 115.37 346.102 116.082V116.58H340.215V115.565H344.908C344.908 115.134 344.822 114.75 344.65 114.412C344.481 114.074 344.239 113.807 343.924 113.612C343.612 113.416 343.245 113.318 342.82 113.318C342.353 113.318 341.949 113.434 341.607 113.666C341.269 113.895 341.009 114.193 340.827 114.561C340.644 114.929 340.553 115.323 340.553 115.744V116.42C340.553 116.997 340.653 117.486 340.852 117.887C341.054 118.285 341.334 118.588 341.692 118.797C342.05 119.002 342.466 119.105 342.94 119.105C343.248 119.105 343.526 119.062 343.775 118.976C344.027 118.886 344.244 118.754 344.426 118.578C344.608 118.399 344.749 118.177 344.849 117.912L345.982 118.23C345.863 118.615 345.662 118.953 345.381 119.244C345.099 119.533 344.751 119.758 344.337 119.92C343.922 120.08 343.457 120.159 342.94 120.159ZM348.556 112.364L350.386 115.486L352.215 112.364H353.568L351.102 116.182L353.568 120H352.215L350.386 117.037L348.556 120H347.204L349.63 116.182L347.204 112.364H348.556ZM358.563 112.364V113.358H354.605V112.364H358.563ZM355.759 110.534H356.932V117.812C356.932 118.144 356.98 118.393 357.076 118.558C357.176 118.721 357.302 118.83 357.454 118.886C357.61 118.939 357.774 118.966 357.946 118.966C358.076 118.966 358.182 118.959 358.265 118.946C358.347 118.929 358.414 118.916 358.463 118.906L358.702 119.96C358.623 119.99 358.511 120.02 358.369 120.05C358.226 120.083 358.046 120.099 357.827 120.099C357.496 120.099 357.171 120.028 356.853 119.886C356.538 119.743 356.276 119.526 356.067 119.234C355.862 118.943 355.759 118.575 355.759 118.131V110.534Z" fill="white" fill-opacity="0.7"/>
<defs>
<clipPath id="clip0_2102_36010">
<rect width="7.99779" height="15" fill="white" transform="translate(278 78)"/>
</clipPath>
<clipPath id="clip1_2102_36010">
<rect width="7.99779" height="15" fill="white" transform="translate(96 78)"/>
</clipPath>
<clipPath id="clip2_2102_36010">
<rect width="15" height="20" fill="white" transform="translate(363 104)"/>
</clipPath>
<clipPath id="clip3_2102_36010">
<rect x="104" y="113" width="174" height="4" rx="2" fill="white"/>
</clipPath>
</defs>
</svg>
