<svg width="1150" height="308" viewBox="0 0 1150 308" fill="none" xmlns="http://www.w3.org/2000/svg">
<rect width="1150" height="308" rx="16" fill="#1A1A1A"/>
<rect x="100" y="100" width="32" height="32" rx="16" fill="#932099"/>
<path d="M117.755 111.318V121.5H115.602V113.362H115.543L113.211 114.823V112.914L115.732 111.318H117.755Z" fill="white" fill-opacity="0.95"/>
<path d="M101.233 159V148.818H102.466V157.906H107.199V159H101.233ZM111.196 159.179C110.712 159.179 110.273 159.088 109.879 158.906C109.484 158.72 109.171 158.453 108.939 158.105C108.707 157.754 108.591 157.33 108.591 156.832C108.591 156.395 108.677 156.04 108.849 155.768C109.022 155.493 109.252 155.278 109.54 155.122C109.829 154.966 110.147 154.85 110.495 154.774C110.846 154.695 111.199 154.632 111.554 154.585C112.018 154.526 112.394 154.481 112.683 154.451C112.974 154.418 113.186 154.363 113.319 154.287C113.455 154.211 113.523 154.078 113.523 153.889V153.849C113.523 153.359 113.388 152.978 113.12 152.706C112.855 152.434 112.452 152.298 111.912 152.298C111.352 152.298 110.913 152.421 110.594 152.666C110.276 152.911 110.053 153.173 109.923 153.452L108.81 153.054C109.009 152.59 109.274 152.229 109.605 151.97C109.94 151.708 110.304 151.526 110.699 151.423C111.097 151.317 111.488 151.264 111.872 151.264C112.117 151.264 112.399 151.294 112.717 151.354C113.039 151.41 113.349 151.528 113.647 151.707C113.949 151.886 114.199 152.156 114.398 152.517C114.597 152.878 114.696 153.362 114.696 153.969V159H113.523V157.966H113.463C113.384 158.132 113.251 158.309 113.065 158.498C112.88 158.687 112.633 158.848 112.325 158.98C112.016 159.113 111.64 159.179 111.196 159.179ZM111.375 158.125C111.839 158.125 112.23 158.034 112.548 157.852C112.87 157.669 113.112 157.434 113.274 157.146C113.44 156.857 113.523 156.554 113.523 156.236V155.162C113.473 155.222 113.364 155.276 113.195 155.326C113.029 155.372 112.837 155.414 112.618 155.45C112.402 155.483 112.192 155.513 111.987 155.54C111.784 155.563 111.62 155.583 111.494 155.599C111.189 155.639 110.904 155.704 110.639 155.793C110.377 155.879 110.165 156.01 110.003 156.186C109.844 156.358 109.764 156.594 109.764 156.892C109.764 157.3 109.915 157.608 110.217 157.817C110.522 158.022 110.908 158.125 111.375 158.125ZM116.997 159V148.818H118.17V152.577H118.269C118.356 152.444 118.475 152.275 118.627 152.07C118.783 151.861 119.005 151.675 119.294 151.513C119.585 151.347 119.98 151.264 120.477 151.264C121.12 151.264 121.686 151.425 122.177 151.746C122.668 152.068 123.05 152.524 123.325 153.114C123.601 153.704 123.738 154.4 123.738 155.202C123.738 156.01 123.601 156.711 123.325 157.305C123.05 157.895 122.669 158.352 122.182 158.677C121.695 158.998 121.133 159.159 120.497 159.159C120.006 159.159 119.613 159.078 119.318 158.915C119.023 158.75 118.796 158.562 118.637 158.354C118.478 158.142 118.356 157.966 118.269 157.827H118.13V159H116.997ZM118.15 155.182C118.15 155.759 118.235 156.267 118.404 156.708C118.573 157.146 118.82 157.489 119.144 157.737C119.469 157.982 119.867 158.105 120.338 158.105C120.828 158.105 121.237 157.976 121.566 157.717C121.897 157.455 122.146 157.104 122.311 156.663C122.48 156.219 122.565 155.725 122.565 155.182C122.565 154.645 122.482 154.161 122.316 153.73C122.154 153.296 121.907 152.953 121.575 152.701C121.247 152.446 120.835 152.318 120.338 152.318C119.86 152.318 119.459 152.439 119.134 152.681C118.81 152.92 118.564 153.254 118.399 153.685C118.233 154.113 118.15 154.612 118.15 155.182ZM128.735 159.159C127.999 159.159 127.364 158.997 126.83 158.672C126.3 158.344 125.891 157.886 125.602 157.3C125.317 156.71 125.175 156.024 125.175 155.241C125.175 154.459 125.317 153.77 125.602 153.173C125.891 152.573 126.292 152.106 126.806 151.771C127.323 151.433 127.926 151.264 128.615 151.264C129.013 151.264 129.406 151.33 129.794 151.463C130.181 151.596 130.534 151.811 130.852 152.109C131.171 152.404 131.424 152.795 131.613 153.283C131.802 153.77 131.896 154.37 131.896 155.082V155.58H126.01V154.565H130.703C130.703 154.134 130.617 153.75 130.445 153.412C130.276 153.074 130.034 152.807 129.719 152.612C129.407 152.416 129.039 152.318 128.615 152.318C128.148 152.318 127.744 152.434 127.402 152.666C127.064 152.895 126.804 153.193 126.622 153.561C126.439 153.929 126.348 154.323 126.348 154.744V155.42C126.348 155.997 126.448 156.486 126.646 156.887C126.849 157.285 127.129 157.588 127.487 157.797C127.845 158.002 128.261 158.105 128.735 158.105C129.043 158.105 129.321 158.062 129.57 157.976C129.822 157.886 130.039 157.754 130.221 157.578C130.403 157.399 130.544 157.177 130.644 156.912L131.777 157.23C131.658 157.615 131.457 157.953 131.176 158.244C130.894 158.533 130.546 158.758 130.132 158.92C129.717 159.08 129.252 159.159 128.735 159.159ZM134.855 148.818V159H133.681V148.818H134.855Z" fill="white" fill-opacity="0.95"/>
<path d="M323.618 159L328.172 149.991V149.912H322.922V148.818H329.445V149.972L324.911 159H323.618ZM334.343 159.139C333.76 159.139 333.235 159.023 332.767 158.791C332.3 158.559 331.925 158.241 331.644 157.837C331.362 157.432 331.208 156.972 331.181 156.455H332.374C332.421 156.915 332.63 157.296 333.001 157.598C333.375 157.896 333.823 158.045 334.343 158.045C334.761 158.045 335.132 157.948 335.457 157.752C335.785 157.557 336.042 157.288 336.227 156.947C336.416 156.602 336.511 156.213 336.511 155.778C336.511 155.334 336.413 154.938 336.218 154.59C336.025 154.239 335.76 153.962 335.422 153.76C335.084 153.558 334.698 153.455 334.264 153.452C333.952 153.448 333.632 153.496 333.304 153.596C332.976 153.692 332.706 153.816 332.494 153.969L331.34 153.83L331.957 148.818H337.247V149.912H332.991L332.633 152.915H332.693C332.901 152.749 333.163 152.612 333.478 152.502C333.793 152.393 334.121 152.338 334.463 152.338C335.086 152.338 335.641 152.487 336.128 152.786C336.619 153.08 337.003 153.485 337.281 153.999C337.563 154.512 337.704 155.099 337.704 155.759C337.704 156.408 337.558 156.988 337.267 157.499C336.978 158.006 336.58 158.407 336.073 158.702C335.566 158.993 334.99 159.139 334.343 159.139ZM344.869 157.091V156.554C344.869 156.183 344.946 155.843 345.098 155.535C345.254 155.223 345.479 154.975 345.774 154.789C346.072 154.6 346.434 154.506 346.858 154.506C347.289 154.506 347.65 154.6 347.942 154.789C348.233 154.975 348.454 155.223 348.603 155.535C348.752 155.843 348.827 156.183 348.827 156.554V157.091C348.827 157.462 348.75 157.804 348.598 158.115C348.449 158.423 348.227 158.672 347.932 158.861C347.64 159.046 347.282 159.139 346.858 159.139C346.427 159.139 346.064 159.046 345.769 158.861C345.474 158.672 345.25 158.423 345.098 158.115C344.946 157.804 344.869 157.462 344.869 157.091ZM345.884 156.554V157.091C345.884 157.399 345.956 157.676 346.102 157.921C346.248 158.163 346.5 158.284 346.858 158.284C347.206 158.284 347.451 158.163 347.594 157.921C347.74 157.676 347.812 157.399 347.812 157.091V156.554C347.812 156.246 347.743 155.971 347.604 155.729C347.464 155.483 347.216 155.361 346.858 155.361C346.51 155.361 346.26 155.483 346.107 155.729C345.958 155.971 345.884 156.246 345.884 156.554ZM339.798 151.264V150.727C339.798 150.356 339.875 150.016 340.027 149.708C340.183 149.397 340.408 149.148 340.703 148.962C341.001 148.773 341.363 148.679 341.787 148.679C342.218 148.679 342.579 148.773 342.871 148.962C343.162 149.148 343.383 149.397 343.532 149.708C343.681 150.016 343.756 150.356 343.756 150.727V151.264C343.756 151.635 343.679 151.977 343.527 152.288C343.378 152.597 343.156 152.845 342.861 153.034C342.569 153.22 342.211 153.312 341.787 153.312C341.356 153.312 340.993 153.22 340.698 153.034C340.403 152.845 340.179 152.597 340.027 152.288C339.875 151.977 339.798 151.635 339.798 151.264ZM340.812 150.727V151.264C340.812 151.572 340.885 151.849 341.031 152.094C341.177 152.336 341.429 152.457 341.787 152.457C342.135 152.457 342.38 152.336 342.523 152.094C342.669 151.849 342.741 151.572 342.741 151.264V150.727C342.741 150.419 342.672 150.144 342.533 149.902C342.393 149.657 342.145 149.534 341.787 149.534C341.439 149.534 341.189 149.657 341.036 149.902C340.887 150.144 340.812 150.419 340.812 150.727ZM340.176 159L347.176 148.818H348.31L341.31 159H340.176Z" fill="white" fill-opacity="0.95"/>
<g clip-path="url(#clip0_2102_35271)">
<rect width="250" height="8" transform="translate(100 172)" fill="#8F8F8F"/>
<rect width="187.5" height="8" transform="translate(100 172)" fill="#3492EB"/>
</g>
<path d="M101.233 203V192.818H102.466V197.352H107.895V192.818H109.128V203H107.895V198.446H102.466V203H101.233ZM114.639 203.159C113.903 203.159 113.268 202.997 112.735 202.672C112.204 202.344 111.795 201.886 111.507 201.3C111.222 200.71 111.079 200.024 111.079 199.241C111.079 198.459 111.222 197.77 111.507 197.173C111.795 196.573 112.196 196.106 112.71 195.771C113.227 195.433 113.83 195.264 114.52 195.264C114.917 195.264 115.31 195.33 115.698 195.463C116.086 195.596 116.439 195.811 116.757 196.109C117.075 196.404 117.328 196.795 117.517 197.283C117.706 197.77 117.801 198.37 117.801 199.082V199.58H111.914V198.565H116.608C116.608 198.134 116.521 197.75 116.349 197.412C116.18 197.074 115.938 196.807 115.623 196.612C115.312 196.416 114.944 196.318 114.52 196.318C114.052 196.318 113.648 196.434 113.306 196.666C112.968 196.895 112.708 197.193 112.526 197.561C112.344 197.929 112.252 198.323 112.252 198.744V199.42C112.252 199.997 112.352 200.486 112.551 200.887C112.753 201.285 113.033 201.588 113.391 201.797C113.749 202.002 114.165 202.105 114.639 202.105C114.947 202.105 115.225 202.062 115.474 201.976C115.726 201.886 115.943 201.754 116.125 201.578C116.308 201.399 116.449 201.177 116.548 200.912L117.681 201.23C117.562 201.615 117.362 201.953 117.08 202.244C116.798 202.533 116.45 202.758 116.036 202.92C115.622 203.08 115.156 203.159 114.639 203.159ZM120.759 192.818V203H119.586V192.818H120.759ZM122.908 205.864V195.364H124.041V196.577H124.181C124.267 196.444 124.386 196.275 124.539 196.07C124.694 195.861 124.916 195.675 125.205 195.513C125.496 195.347 125.891 195.264 126.388 195.264C127.031 195.264 127.598 195.425 128.088 195.746C128.579 196.068 128.962 196.524 129.237 197.114C129.512 197.704 129.649 198.4 129.649 199.202C129.649 200.01 129.512 200.711 129.237 201.305C128.962 201.895 128.58 202.352 128.093 202.677C127.606 202.998 127.044 203.159 126.408 203.159C125.917 203.159 125.525 203.078 125.23 202.915C124.935 202.75 124.708 202.562 124.548 202.354C124.389 202.142 124.267 201.966 124.181 201.827H124.081V205.864H122.908ZM124.061 199.182C124.061 199.759 124.146 200.267 124.315 200.708C124.484 201.146 124.731 201.489 125.056 201.737C125.38 201.982 125.778 202.105 126.249 202.105C126.739 202.105 127.149 201.976 127.477 201.717C127.808 201.455 128.057 201.104 128.222 200.663C128.392 200.219 128.476 199.725 128.476 199.182C128.476 198.645 128.393 198.161 128.227 197.73C128.065 197.296 127.818 196.953 127.487 196.701C127.159 196.446 126.746 196.318 126.249 196.318C125.771 196.318 125.37 196.439 125.046 196.681C124.721 196.92 124.476 197.254 124.31 197.685C124.144 198.113 124.061 198.612 124.061 199.182ZM134.641 203.159C133.905 203.159 133.27 202.997 132.737 202.672C132.206 202.344 131.797 201.886 131.509 201.3C131.224 200.71 131.081 200.024 131.081 199.241C131.081 198.459 131.224 197.77 131.509 197.173C131.797 196.573 132.198 196.106 132.712 195.771C133.229 195.433 133.832 195.264 134.521 195.264C134.919 195.264 135.312 195.33 135.7 195.463C136.088 195.596 136.441 195.811 136.759 196.109C137.077 196.404 137.33 196.795 137.519 197.283C137.708 197.77 137.803 198.37 137.803 199.082V199.58H131.916V198.565H136.61C136.61 198.134 136.523 197.75 136.351 197.412C136.182 197.074 135.94 196.807 135.625 196.612C135.314 196.416 134.946 196.318 134.521 196.318C134.054 196.318 133.65 196.434 133.308 196.666C132.97 196.895 132.71 197.193 132.528 197.561C132.346 197.929 132.254 198.323 132.254 198.744V199.42C132.254 199.997 132.354 200.486 132.553 200.887C132.755 201.285 133.035 201.588 133.393 201.797C133.751 202.002 134.167 202.105 134.641 202.105C134.949 202.105 135.227 202.062 135.476 201.976C135.728 201.886 135.945 201.754 136.127 201.578C136.31 201.399 136.45 201.177 136.55 200.912L137.683 201.23C137.564 201.615 137.364 201.953 137.082 202.244C136.8 202.533 136.452 202.758 136.038 202.92C135.624 203.08 135.158 203.159 134.641 203.159ZM139.588 203V195.364H140.721V196.517H140.801C140.94 196.139 141.192 195.833 141.556 195.597C141.921 195.362 142.332 195.244 142.789 195.244C142.875 195.244 142.983 195.246 143.112 195.249C143.242 195.253 143.339 195.258 143.406 195.264V196.457C143.366 196.447 143.275 196.433 143.132 196.413C142.993 196.389 142.846 196.378 142.69 196.378C142.319 196.378 141.987 196.456 141.695 196.612C141.407 196.764 141.178 196.976 141.009 197.248C140.844 197.516 140.761 197.823 140.761 198.168V203H139.588ZM152.055 195.364V196.358H148.098V195.364H152.055ZM149.251 193.534H150.424V200.812C150.424 201.144 150.472 201.393 150.569 201.558C150.668 201.721 150.794 201.83 150.946 201.886C151.102 201.939 151.266 201.966 151.439 201.966C151.568 201.966 151.674 201.959 151.757 201.946C151.84 201.929 151.906 201.916 151.956 201.906L152.194 202.96C152.115 202.99 152.004 203.02 151.861 203.05C151.719 203.083 151.538 203.099 151.319 203.099C150.988 203.099 150.663 203.028 150.345 202.886C150.03 202.743 149.768 202.526 149.559 202.234C149.354 201.943 149.251 201.575 149.251 201.131V193.534ZM156.94 203.159C156.204 203.159 155.569 202.997 155.036 202.672C154.505 202.344 154.096 201.886 153.808 201.3C153.522 200.71 153.38 200.024 153.38 199.241C153.38 198.459 153.522 197.77 153.808 197.173C154.096 196.573 154.497 196.106 155.011 195.771C155.528 195.433 156.131 195.264 156.82 195.264C157.218 195.264 157.611 195.33 157.999 195.463C158.386 195.596 158.739 195.811 159.058 196.109C159.376 196.404 159.629 196.795 159.818 197.283C160.007 197.77 160.102 198.37 160.102 199.082V199.58H154.215V198.565H158.908C158.908 198.134 158.822 197.75 158.65 197.412C158.481 197.074 158.239 196.807 157.924 196.612C157.612 196.416 157.245 196.318 156.82 196.318C156.353 196.318 155.949 196.434 155.607 196.666C155.269 196.895 155.009 197.193 154.827 197.561C154.644 197.929 154.553 198.323 154.553 198.744V199.42C154.553 199.997 154.653 200.486 154.852 200.887C155.054 201.285 155.334 201.588 155.692 201.797C156.05 202.002 156.466 202.105 156.94 202.105C157.248 202.105 157.526 202.062 157.775 201.976C158.027 201.886 158.244 201.754 158.426 201.578C158.608 201.399 158.749 201.177 158.849 200.912L159.982 201.23C159.863 201.615 159.662 201.953 159.381 202.244C159.099 202.533 158.751 202.758 158.337 202.92C157.922 203.08 157.457 203.159 156.94 203.159ZM162.556 195.364L164.386 198.486L166.215 195.364H167.568L165.102 199.182L167.568 203H166.215L164.386 200.037L162.556 203H161.204L163.63 199.182L161.204 195.364H162.556ZM172.563 195.364V196.358H168.605V195.364H172.563ZM169.759 193.534H170.932V200.812C170.932 201.144 170.98 201.393 171.076 201.558C171.176 201.721 171.302 201.83 171.454 201.886C171.61 201.939 171.774 201.966 171.946 201.966C172.076 201.966 172.182 201.959 172.265 201.946C172.347 201.929 172.414 201.916 172.463 201.906L172.702 202.96C172.623 202.99 172.511 203.02 172.369 203.05C172.226 203.083 172.046 203.099 171.827 203.099C171.496 203.099 171.171 203.028 170.853 202.886C170.538 202.743 170.276 202.526 170.067 202.234C169.862 201.943 169.759 201.575 169.759 201.131V193.534Z" fill="white" fill-opacity="0.7"/>
<rect x="450" y="100" width="32" height="32" rx="16" fill="#932099"/>
<path d="M462.325 121.5V119.949L465.95 116.593C466.258 116.295 466.516 116.026 466.725 115.788C466.937 115.549 467.098 115.315 467.207 115.087C467.317 114.855 467.371 114.604 467.371 114.336C467.371 114.038 467.304 113.781 467.168 113.565C467.032 113.347 466.846 113.179 466.611 113.063C466.375 112.944 466.109 112.884 465.81 112.884C465.499 112.884 465.227 112.947 464.995 113.073C464.763 113.199 464.584 113.38 464.458 113.615C464.332 113.85 464.269 114.13 464.269 114.455H462.226C462.226 113.789 462.377 113.211 462.678 112.72C462.98 112.23 463.402 111.85 463.946 111.582C464.49 111.313 465.116 111.179 465.825 111.179C466.554 111.179 467.189 111.308 467.729 111.567C468.273 111.822 468.696 112.177 468.997 112.631C469.299 113.085 469.45 113.605 469.45 114.192C469.45 114.576 469.373 114.956 469.221 115.33C469.072 115.705 468.805 116.121 468.42 116.578C468.036 117.032 467.494 117.577 466.795 118.214L465.308 119.67V119.74H469.584V121.5H462.325Z" fill="white" fill-opacity="0.95"/>
<path d="M451.233 159V148.818H452.466V157.906H457.199V159H451.233ZM461.196 159.179C460.712 159.179 460.273 159.088 459.879 158.906C459.484 158.72 459.171 158.453 458.939 158.105C458.707 157.754 458.591 157.33 458.591 156.832C458.591 156.395 458.677 156.04 458.849 155.768C459.022 155.493 459.252 155.278 459.54 155.122C459.829 154.966 460.147 154.85 460.495 154.774C460.846 154.695 461.199 154.632 461.554 154.585C462.018 154.526 462.394 154.481 462.683 154.451C462.974 154.418 463.186 154.363 463.319 154.287C463.455 154.211 463.523 154.078 463.523 153.889V153.849C463.523 153.359 463.388 152.978 463.12 152.706C462.855 152.434 462.452 152.298 461.912 152.298C461.352 152.298 460.913 152.421 460.594 152.666C460.276 152.911 460.053 153.173 459.923 153.452L458.81 153.054C459.009 152.59 459.274 152.229 459.605 151.97C459.94 151.708 460.304 151.526 460.699 151.423C461.097 151.317 461.488 151.264 461.872 151.264C462.117 151.264 462.399 151.294 462.717 151.354C463.039 151.41 463.349 151.528 463.647 151.707C463.949 151.886 464.199 152.156 464.398 152.517C464.597 152.878 464.696 153.362 464.696 153.969V159H463.523V157.966H463.463C463.384 158.132 463.251 158.309 463.065 158.498C462.88 158.687 462.633 158.848 462.325 158.98C462.016 159.113 461.64 159.179 461.196 159.179ZM461.375 158.125C461.839 158.125 462.23 158.034 462.548 157.852C462.87 157.669 463.112 157.434 463.274 157.146C463.44 156.857 463.523 156.554 463.523 156.236V155.162C463.473 155.222 463.364 155.276 463.195 155.326C463.029 155.372 462.837 155.414 462.618 155.45C462.402 155.483 462.192 155.513 461.987 155.54C461.784 155.563 461.62 155.583 461.494 155.599C461.189 155.639 460.904 155.704 460.639 155.793C460.377 155.879 460.165 156.01 460.003 156.186C459.844 156.358 459.764 156.594 459.764 156.892C459.764 157.3 459.915 157.608 460.217 157.817C460.522 158.022 460.908 158.125 461.375 158.125ZM466.997 159V148.818H468.17V152.577H468.269C468.356 152.444 468.475 152.275 468.627 152.07C468.783 151.861 469.005 151.675 469.294 151.513C469.585 151.347 469.98 151.264 470.477 151.264C471.12 151.264 471.686 151.425 472.177 151.746C472.668 152.068 473.05 152.524 473.325 153.114C473.601 153.704 473.738 154.4 473.738 155.202C473.738 156.01 473.601 156.711 473.325 157.305C473.05 157.895 472.669 158.352 472.182 158.677C471.695 158.998 471.133 159.159 470.497 159.159C470.006 159.159 469.613 159.078 469.318 158.915C469.023 158.75 468.796 158.562 468.637 158.354C468.478 158.142 468.356 157.966 468.269 157.827H468.13V159H466.997ZM468.15 155.182C468.15 155.759 468.235 156.267 468.404 156.708C468.573 157.146 468.82 157.489 469.144 157.737C469.469 157.982 469.867 158.105 470.338 158.105C470.828 158.105 471.237 157.976 471.566 157.717C471.897 157.455 472.146 157.104 472.311 156.663C472.48 156.219 472.565 155.725 472.565 155.182C472.565 154.645 472.482 154.161 472.316 153.73C472.154 153.296 471.907 152.953 471.575 152.701C471.247 152.446 470.835 152.318 470.338 152.318C469.86 152.318 469.459 152.439 469.134 152.681C468.81 152.92 468.564 153.254 468.399 153.685C468.233 154.113 468.15 154.612 468.15 155.182ZM478.735 159.159C477.999 159.159 477.364 158.997 476.83 158.672C476.3 158.344 475.891 157.886 475.602 157.3C475.317 156.71 475.175 156.024 475.175 155.241C475.175 154.459 475.317 153.77 475.602 153.173C475.891 152.573 476.292 152.106 476.806 151.771C477.323 151.433 477.926 151.264 478.615 151.264C479.013 151.264 479.406 151.33 479.794 151.463C480.181 151.596 480.534 151.811 480.852 152.109C481.171 152.404 481.424 152.795 481.613 153.283C481.802 153.77 481.896 154.37 481.896 155.082V155.58H476.01V154.565H480.703C480.703 154.134 480.617 153.75 480.445 153.412C480.276 153.074 480.034 152.807 479.719 152.612C479.407 152.416 479.039 152.318 478.615 152.318C478.148 152.318 477.744 152.434 477.402 152.666C477.064 152.895 476.804 153.193 476.622 153.561C476.439 153.929 476.348 154.323 476.348 154.744V155.42C476.348 155.997 476.448 156.486 476.646 156.887C476.849 157.285 477.129 157.588 477.487 157.797C477.845 158.002 478.261 158.105 478.735 158.105C479.043 158.105 479.321 158.062 479.57 157.976C479.822 157.886 480.039 157.754 480.221 157.578C480.403 157.399 480.544 157.177 480.644 156.912L481.777 157.23C481.658 157.615 481.457 157.953 481.176 158.244C480.894 158.533 480.546 158.758 480.132 158.92C479.717 159.08 479.252 159.159 478.735 159.159ZM484.855 148.818V159H483.681V148.818H484.855Z" fill="white" fill-opacity="0.95"/>
<g clip-path="url(#clip1_2102_35271)">
<rect width="250" height="8" transform="translate(450 172)" fill="#27A17A"/>
</g>
<path d="M464.75 198C464.75 201.728 461.728 204.75 458 204.75C454.272 204.75 451.25 201.728 451.25 198C451.25 194.272 454.272 191.25 458 191.25C461.728 191.25 464.75 194.272 464.75 198ZM461.358 194.906L456.75 199.515L454.625 197.39C454.179 196.944 453.455 196.944 453.009 197.39C452.563 197.837 452.563 198.56 453.009 199.007L455.433 201.431C455.445 201.442 455.456 201.453 455.468 201.464L455.942 201.939C456.389 202.385 457.112 202.385 457.559 201.939L462.975 196.522C463.421 196.076 463.421 195.352 462.975 194.906C462.528 194.46 461.805 194.46 461.358 194.906Z" fill="#3CC29A"/>
<path d="M475.233 203V192.818H476.466V197.352H481.895V192.818H483.128V203H481.895V198.446H476.466V203H475.233ZM488.639 203.159C487.903 203.159 487.268 202.997 486.735 202.672C486.204 202.344 485.795 201.886 485.507 201.3C485.222 200.71 485.079 200.024 485.079 199.241C485.079 198.459 485.222 197.77 485.507 197.173C485.795 196.573 486.196 196.106 486.71 195.771C487.227 195.433 487.83 195.264 488.52 195.264C488.917 195.264 489.31 195.33 489.698 195.463C490.086 195.596 490.439 195.811 490.757 196.109C491.075 196.404 491.328 196.795 491.517 197.283C491.706 197.77 491.801 198.37 491.801 199.082V199.58H485.914V198.565H490.608C490.608 198.134 490.521 197.75 490.349 197.412C490.18 197.074 489.938 196.807 489.623 196.612C489.312 196.416 488.944 196.318 488.52 196.318C488.052 196.318 487.648 196.434 487.306 196.666C486.968 196.895 486.708 197.193 486.526 197.561C486.344 197.929 486.252 198.323 486.252 198.744V199.42C486.252 199.997 486.352 200.486 486.551 200.887C486.753 201.285 487.033 201.588 487.391 201.797C487.749 202.002 488.165 202.105 488.639 202.105C488.947 202.105 489.225 202.062 489.474 201.976C489.726 201.886 489.943 201.754 490.125 201.578C490.308 201.399 490.449 201.177 490.548 200.912L491.681 201.23C491.562 201.615 491.362 201.953 491.08 202.244C490.798 202.533 490.45 202.758 490.036 202.92C489.622 203.08 489.156 203.159 488.639 203.159ZM494.759 192.818V203H493.586V192.818H494.759ZM496.908 205.864V195.364H498.041V196.577H498.181C498.267 196.444 498.386 196.275 498.539 196.07C498.694 195.861 498.916 195.675 499.205 195.513C499.496 195.347 499.891 195.264 500.388 195.264C501.031 195.264 501.598 195.425 502.088 195.746C502.579 196.068 502.962 196.524 503.237 197.114C503.512 197.704 503.649 198.4 503.649 199.202C503.649 200.01 503.512 200.711 503.237 201.305C502.962 201.895 502.58 202.352 502.093 202.677C501.606 202.998 501.044 203.159 500.408 203.159C499.917 203.159 499.525 203.078 499.23 202.915C498.935 202.75 498.708 202.562 498.548 202.354C498.389 202.142 498.267 201.966 498.181 201.827H498.081V205.864H496.908ZM498.061 199.182C498.061 199.759 498.146 200.267 498.315 200.708C498.484 201.146 498.731 201.489 499.056 201.737C499.38 201.982 499.778 202.105 500.249 202.105C500.739 202.105 501.149 201.976 501.477 201.717C501.808 201.455 502.057 201.104 502.222 200.663C502.392 200.219 502.476 199.725 502.476 199.182C502.476 198.645 502.393 198.161 502.227 197.73C502.065 197.296 501.818 196.953 501.487 196.701C501.159 196.446 500.746 196.318 500.249 196.318C499.771 196.318 499.37 196.439 499.046 196.681C498.721 196.92 498.476 197.254 498.31 197.685C498.144 198.113 498.061 198.612 498.061 199.182ZM508.641 203.159C507.905 203.159 507.27 202.997 506.737 202.672C506.206 202.344 505.797 201.886 505.509 201.3C505.224 200.71 505.081 200.024 505.081 199.241C505.081 198.459 505.224 197.77 505.509 197.173C505.797 196.573 506.198 196.106 506.712 195.771C507.229 195.433 507.832 195.264 508.521 195.264C508.919 195.264 509.312 195.33 509.7 195.463C510.088 195.596 510.441 195.811 510.759 196.109C511.077 196.404 511.33 196.795 511.519 197.283C511.708 197.77 511.803 198.37 511.803 199.082V199.58H505.916V198.565H510.61C510.61 198.134 510.523 197.75 510.351 197.412C510.182 197.074 509.94 196.807 509.625 196.612C509.314 196.416 508.946 196.318 508.521 196.318C508.054 196.318 507.65 196.434 507.308 196.666C506.97 196.895 506.71 197.193 506.528 197.561C506.346 197.929 506.254 198.323 506.254 198.744V199.42C506.254 199.997 506.354 200.486 506.553 200.887C506.755 201.285 507.035 201.588 507.393 201.797C507.751 202.002 508.167 202.105 508.641 202.105C508.949 202.105 509.227 202.062 509.476 201.976C509.728 201.886 509.945 201.754 510.127 201.578C510.31 201.399 510.45 201.177 510.55 200.912L511.683 201.23C511.564 201.615 511.364 201.953 511.082 202.244C510.8 202.533 510.452 202.758 510.038 202.92C509.624 203.08 509.158 203.159 508.641 203.159ZM513.588 203V195.364H514.721V196.517H514.801C514.94 196.139 515.192 195.833 515.556 195.597C515.921 195.362 516.332 195.244 516.789 195.244C516.875 195.244 516.983 195.246 517.112 195.249C517.242 195.253 517.339 195.258 517.406 195.264V196.457C517.366 196.447 517.275 196.433 517.132 196.413C516.993 196.389 516.846 196.378 516.69 196.378C516.319 196.378 515.987 196.456 515.695 196.612C515.407 196.764 515.178 196.976 515.009 197.248C514.844 197.516 514.761 197.823 514.761 198.168V203H513.588ZM526.055 195.364V196.358H522.098V195.364H526.055ZM523.251 193.534H524.424V200.812C524.424 201.144 524.472 201.393 524.569 201.558C524.668 201.721 524.794 201.83 524.946 201.886C525.102 201.939 525.266 201.966 525.439 201.966C525.568 201.966 525.674 201.959 525.757 201.946C525.84 201.929 525.906 201.916 525.956 201.906L526.194 202.96C526.115 202.99 526.004 203.02 525.861 203.05C525.719 203.083 525.538 203.099 525.319 203.099C524.988 203.099 524.663 203.028 524.345 202.886C524.03 202.743 523.768 202.526 523.559 202.234C523.354 201.943 523.251 201.575 523.251 201.131V193.534ZM530.94 203.159C530.204 203.159 529.569 202.997 529.036 202.672C528.505 202.344 528.096 201.886 527.808 201.3C527.522 200.71 527.38 200.024 527.38 199.241C527.38 198.459 527.522 197.77 527.808 197.173C528.096 196.573 528.497 196.106 529.011 195.771C529.528 195.433 530.131 195.264 530.82 195.264C531.218 195.264 531.611 195.33 531.999 195.463C532.386 195.596 532.739 195.811 533.058 196.109C533.376 196.404 533.629 196.795 533.818 197.283C534.007 197.77 534.102 198.37 534.102 199.082V199.58H528.215V198.565H532.908C532.908 198.134 532.822 197.75 532.65 197.412C532.481 197.074 532.239 196.807 531.924 196.612C531.612 196.416 531.245 196.318 530.82 196.318C530.353 196.318 529.949 196.434 529.607 196.666C529.269 196.895 529.009 197.193 528.827 197.561C528.644 197.929 528.553 198.323 528.553 198.744V199.42C528.553 199.997 528.653 200.486 528.852 200.887C529.054 201.285 529.334 201.588 529.692 201.797C530.05 202.002 530.466 202.105 530.94 202.105C531.248 202.105 531.526 202.062 531.775 201.976C532.027 201.886 532.244 201.754 532.426 201.578C532.608 201.399 532.749 201.177 532.849 200.912L533.982 201.23C533.863 201.615 533.662 201.953 533.381 202.244C533.099 202.533 532.751 202.758 532.337 202.92C531.922 203.08 531.457 203.159 530.94 203.159ZM536.556 195.364L538.386 198.486L540.215 195.364H541.568L539.102 199.182L541.568 203H540.215L538.386 200.037L536.556 203H535.204L537.63 199.182L535.204 195.364H536.556ZM546.563 195.364V196.358H542.605V195.364H546.563ZM543.759 193.534H544.932V200.812C544.932 201.144 544.98 201.393 545.076 201.558C545.176 201.721 545.302 201.83 545.454 201.886C545.61 201.939 545.774 201.966 545.946 201.966C546.076 201.966 546.182 201.959 546.265 201.946C546.347 201.929 546.414 201.916 546.463 201.906L546.702 202.96C546.623 202.99 546.511 203.02 546.369 203.05C546.226 203.083 546.046 203.099 545.827 203.099C545.496 203.099 545.171 203.028 544.853 202.886C544.538 202.743 544.276 202.526 544.067 202.234C543.862 201.943 543.759 201.575 543.759 201.131V193.534Z" fill="#3CC29A"/>
<rect x="800" y="100" width="32" height="32" rx="16" fill="#932099"/>
<path d="M815.589 121.639C814.846 121.639 814.185 121.512 813.605 121.256C813.028 120.998 812.573 120.643 812.238 120.192C811.906 119.738 811.736 119.215 811.726 118.621H813.893C813.907 118.87 813.988 119.089 814.137 119.278C814.29 119.463 814.492 119.607 814.744 119.71C814.996 119.813 815.279 119.864 815.594 119.864C815.922 119.864 816.212 119.806 816.464 119.69C816.716 119.574 816.913 119.414 817.055 119.208C817.198 119.003 817.269 118.766 817.269 118.497C817.269 118.225 817.193 117.985 817.04 117.776C816.891 117.564 816.676 117.398 816.394 117.279C816.116 117.16 815.784 117.1 815.4 117.1H814.45V115.519H815.4C815.725 115.519 816.011 115.463 816.26 115.35C816.512 115.237 816.707 115.082 816.847 114.883C816.986 114.681 817.055 114.445 817.055 114.177C817.055 113.922 816.994 113.698 816.871 113.506C816.752 113.31 816.583 113.158 816.364 113.048C816.149 112.939 815.897 112.884 815.609 112.884C815.317 112.884 815.05 112.937 814.808 113.043C814.566 113.146 814.372 113.294 814.227 113.486C814.081 113.678 814.003 113.903 813.993 114.162H811.93C811.94 113.575 812.107 113.058 812.432 112.611C812.757 112.163 813.194 111.814 813.744 111.562C814.298 111.307 814.923 111.179 815.619 111.179C816.321 111.179 816.936 111.307 817.463 111.562C817.99 111.817 818.399 112.162 818.691 112.596C818.986 113.027 819.132 113.511 819.129 114.048C819.132 114.618 818.955 115.093 818.597 115.474C818.242 115.856 817.78 116.098 817.21 116.2V116.28C817.959 116.376 818.529 116.636 818.92 117.06C819.314 117.481 819.51 118.008 819.506 118.641C819.51 119.221 819.342 119.737 819.004 120.188C818.67 120.638 818.207 120.993 817.617 121.251C817.027 121.51 816.351 121.639 815.589 121.639Z" fill="white" fill-opacity="0.95"/>
<path d="M801.233 159V148.818H802.466V157.906H807.199V159H801.233ZM811.196 159.179C810.712 159.179 810.273 159.088 809.879 158.906C809.484 158.72 809.171 158.453 808.939 158.105C808.707 157.754 808.591 157.33 808.591 156.832C808.591 156.395 808.677 156.04 808.849 155.768C809.022 155.493 809.252 155.278 809.54 155.122C809.829 154.966 810.147 154.85 810.495 154.774C810.846 154.695 811.199 154.632 811.554 154.585C812.018 154.526 812.394 154.481 812.683 154.451C812.974 154.418 813.186 154.363 813.319 154.287C813.455 154.211 813.523 154.078 813.523 153.889V153.849C813.523 153.359 813.388 152.978 813.12 152.706C812.855 152.434 812.452 152.298 811.912 152.298C811.352 152.298 810.913 152.421 810.594 152.666C810.276 152.911 810.053 153.173 809.923 153.452L808.81 153.054C809.009 152.59 809.274 152.229 809.605 151.97C809.94 151.708 810.304 151.526 810.699 151.423C811.097 151.317 811.488 151.264 811.872 151.264C812.117 151.264 812.399 151.294 812.717 151.354C813.039 151.41 813.349 151.528 813.647 151.707C813.949 151.886 814.199 152.156 814.398 152.517C814.597 152.878 814.696 153.362 814.696 153.969V159H813.523V157.966H813.463C813.384 158.132 813.251 158.309 813.065 158.498C812.88 158.687 812.633 158.848 812.325 158.98C812.016 159.113 811.64 159.179 811.196 159.179ZM811.375 158.125C811.839 158.125 812.23 158.034 812.548 157.852C812.87 157.669 813.112 157.434 813.274 157.146C813.44 156.857 813.523 156.554 813.523 156.236V155.162C813.473 155.222 813.364 155.276 813.195 155.326C813.029 155.372 812.837 155.414 812.618 155.45C812.402 155.483 812.192 155.513 811.987 155.54C811.784 155.563 811.62 155.583 811.494 155.599C811.189 155.639 810.904 155.704 810.639 155.793C810.377 155.879 810.165 156.01 810.003 156.186C809.844 156.358 809.764 156.594 809.764 156.892C809.764 157.3 809.915 157.608 810.217 157.817C810.522 158.022 810.908 158.125 811.375 158.125ZM816.997 159V148.818H818.17V152.577H818.269C818.356 152.444 818.475 152.275 818.627 152.07C818.783 151.861 819.005 151.675 819.294 151.513C819.585 151.347 819.98 151.264 820.477 151.264C821.12 151.264 821.686 151.425 822.177 151.746C822.668 152.068 823.05 152.524 823.325 153.114C823.601 153.704 823.738 154.4 823.738 155.202C823.738 156.01 823.601 156.711 823.325 157.305C823.05 157.895 822.669 158.352 822.182 158.677C821.695 158.998 821.133 159.159 820.497 159.159C820.006 159.159 819.613 159.078 819.318 158.915C819.023 158.75 818.796 158.562 818.637 158.354C818.478 158.142 818.356 157.966 818.269 157.827H818.13V159H816.997ZM818.15 155.182C818.15 155.759 818.235 156.267 818.404 156.708C818.573 157.146 818.82 157.489 819.144 157.737C819.469 157.982 819.867 158.105 820.338 158.105C820.828 158.105 821.237 157.976 821.566 157.717C821.897 157.455 822.146 157.104 822.311 156.663C822.48 156.219 822.565 155.725 822.565 155.182C822.565 154.645 822.482 154.161 822.316 153.73C822.154 153.296 821.907 152.953 821.575 152.701C821.247 152.446 820.835 152.318 820.338 152.318C819.86 152.318 819.459 152.439 819.134 152.681C818.81 152.92 818.564 153.254 818.399 153.685C818.233 154.113 818.15 154.612 818.15 155.182ZM828.735 159.159C827.999 159.159 827.364 158.997 826.83 158.672C826.3 158.344 825.891 157.886 825.602 157.3C825.317 156.71 825.175 156.024 825.175 155.241C825.175 154.459 825.317 153.77 825.602 153.173C825.891 152.573 826.292 152.106 826.806 151.771C827.323 151.433 827.926 151.264 828.615 151.264C829.013 151.264 829.406 151.33 829.794 151.463C830.181 151.596 830.534 151.811 830.852 152.109C831.171 152.404 831.424 152.795 831.613 153.283C831.802 153.77 831.896 154.37 831.896 155.082V155.58H826.01V154.565H830.703C830.703 154.134 830.617 153.75 830.445 153.412C830.276 153.074 830.034 152.807 829.719 152.612C829.407 152.416 829.039 152.318 828.615 152.318C828.148 152.318 827.744 152.434 827.402 152.666C827.064 152.895 826.804 153.193 826.622 153.561C826.439 153.929 826.348 154.323 826.348 154.744V155.42C826.348 155.997 826.448 156.486 826.646 156.887C826.849 157.285 827.129 157.588 827.487 157.797C827.845 158.002 828.261 158.105 828.735 158.105C829.043 158.105 829.321 158.062 829.57 157.976C829.822 157.886 830.039 157.754 830.221 157.578C830.403 157.399 830.544 157.177 830.644 156.912L831.777 157.23C831.658 157.615 831.457 157.953 831.176 158.244C830.894 158.533 830.546 158.758 830.132 158.92C829.717 159.08 829.252 159.159 828.735 159.159ZM834.855 148.818V159H833.681V148.818H834.855Z" fill="white" fill-opacity="0.95"/>
<g clip-path="url(#clip2_2102_35271)">
<rect width="250" height="8" transform="translate(800 172)" fill="#F55868"/>
</g>
<path d="M801.452 195.054L805.054 191.452C805.252 191.254 805.52 191.143 805.8 191.143H810.2C810.48 191.143 810.749 191.254 810.946 191.452L814.548 195.054C814.746 195.251 814.857 195.52 814.857 195.8V200.2C814.857 200.48 814.746 200.748 814.548 200.946L810.946 204.548C810.749 204.746 810.48 204.857 810.2 204.857H805.8C805.52 204.857 805.252 204.746 805.054 204.548L801.452 200.946C801.254 200.748 801.143 200.48 801.143 200.2V195.8C801.143 195.52 801.254 195.251 801.452 195.054ZM803.763 193.763C803.317 194.21 803.317 194.933 803.763 195.38L806.384 198L803.763 200.62C803.317 201.067 803.317 201.79 803.763 202.237C804.21 202.683 804.933 202.683 805.38 202.237L808 199.616L810.62 202.237C811.067 202.683 811.79 202.683 812.237 202.237C812.683 201.79 812.683 201.067 812.237 200.62L809.616 198L812.237 195.38C812.683 194.933 812.683 194.21 812.237 193.763C811.79 193.317 811.067 193.317 810.62 193.763L808 196.384L805.38 193.763C804.933 193.317 804.21 193.317 803.763 193.763Z" fill="#FC8B98"/>
<path d="M825.233 203V192.818H826.466V197.352H831.895V192.818H833.128V203H831.895V198.446H826.466V203H825.233ZM838.639 203.159C837.903 203.159 837.268 202.997 836.735 202.672C836.204 202.344 835.795 201.886 835.507 201.3C835.222 200.71 835.079 200.024 835.079 199.241C835.079 198.459 835.222 197.77 835.507 197.173C835.795 196.573 836.196 196.106 836.71 195.771C837.227 195.433 837.83 195.264 838.52 195.264C838.917 195.264 839.31 195.33 839.698 195.463C840.086 195.596 840.439 195.811 840.757 196.109C841.075 196.404 841.328 196.795 841.517 197.283C841.706 197.77 841.801 198.37 841.801 199.082V199.58H835.914V198.565H840.608C840.608 198.134 840.521 197.75 840.349 197.412C840.18 197.074 839.938 196.807 839.623 196.612C839.312 196.416 838.944 196.318 838.52 196.318C838.052 196.318 837.648 196.434 837.306 196.666C836.968 196.895 836.708 197.193 836.526 197.561C836.344 197.929 836.252 198.323 836.252 198.744V199.42C836.252 199.997 836.352 200.486 836.551 200.887C836.753 201.285 837.033 201.588 837.391 201.797C837.749 202.002 838.165 202.105 838.639 202.105C838.947 202.105 839.225 202.062 839.474 201.976C839.726 201.886 839.943 201.754 840.125 201.578C840.308 201.399 840.449 201.177 840.548 200.912L841.681 201.23C841.562 201.615 841.362 201.953 841.08 202.244C840.798 202.533 840.45 202.758 840.036 202.92C839.622 203.08 839.156 203.159 838.639 203.159ZM844.759 192.818V203H843.586V192.818H844.759ZM846.908 205.864V195.364H848.041V196.577H848.181C848.267 196.444 848.386 196.275 848.539 196.07C848.694 195.861 848.916 195.675 849.205 195.513C849.496 195.347 849.891 195.264 850.388 195.264C851.031 195.264 851.598 195.425 852.088 195.746C852.579 196.068 852.962 196.524 853.237 197.114C853.512 197.704 853.649 198.4 853.649 199.202C853.649 200.01 853.512 200.711 853.237 201.305C852.962 201.895 852.58 202.352 852.093 202.677C851.606 202.998 851.044 203.159 850.408 203.159C849.917 203.159 849.525 203.078 849.23 202.915C848.935 202.75 848.708 202.562 848.548 202.354C848.389 202.142 848.267 201.966 848.181 201.827H848.081V205.864H846.908ZM848.061 199.182C848.061 199.759 848.146 200.267 848.315 200.708C848.484 201.146 848.731 201.489 849.056 201.737C849.38 201.982 849.778 202.105 850.249 202.105C850.739 202.105 851.149 201.976 851.477 201.717C851.808 201.455 852.057 201.104 852.222 200.663C852.392 200.219 852.476 199.725 852.476 199.182C852.476 198.645 852.393 198.161 852.227 197.73C852.065 197.296 851.818 196.953 851.487 196.701C851.159 196.446 850.746 196.318 850.249 196.318C849.771 196.318 849.37 196.439 849.046 196.681C848.721 196.92 848.476 197.254 848.31 197.685C848.144 198.113 848.061 198.612 848.061 199.182ZM858.641 203.159C857.905 203.159 857.27 202.997 856.737 202.672C856.206 202.344 855.797 201.886 855.509 201.3C855.224 200.71 855.081 200.024 855.081 199.241C855.081 198.459 855.224 197.77 855.509 197.173C855.797 196.573 856.198 196.106 856.712 195.771C857.229 195.433 857.832 195.264 858.521 195.264C858.919 195.264 859.312 195.33 859.7 195.463C860.088 195.596 860.441 195.811 860.759 196.109C861.077 196.404 861.33 196.795 861.519 197.283C861.708 197.77 861.803 198.37 861.803 199.082V199.58H855.916V198.565H860.61C860.61 198.134 860.523 197.75 860.351 197.412C860.182 197.074 859.94 196.807 859.625 196.612C859.314 196.416 858.946 196.318 858.521 196.318C858.054 196.318 857.65 196.434 857.308 196.666C856.97 196.895 856.71 197.193 856.528 197.561C856.346 197.929 856.254 198.323 856.254 198.744V199.42C856.254 199.997 856.354 200.486 856.553 200.887C856.755 201.285 857.035 201.588 857.393 201.797C857.751 202.002 858.167 202.105 858.641 202.105C858.949 202.105 859.227 202.062 859.476 201.976C859.728 201.886 859.945 201.754 860.127 201.578C860.31 201.399 860.45 201.177 860.55 200.912L861.683 201.23C861.564 201.615 861.364 201.953 861.082 202.244C860.8 202.533 860.452 202.758 860.038 202.92C859.624 203.08 859.158 203.159 858.641 203.159ZM863.588 203V195.364H864.721V196.517H864.801C864.94 196.139 865.192 195.833 865.556 195.597C865.921 195.362 866.332 195.244 866.789 195.244C866.875 195.244 866.983 195.246 867.112 195.249C867.242 195.253 867.339 195.258 867.406 195.264V196.457C867.366 196.447 867.275 196.433 867.132 196.413C866.993 196.389 866.846 196.378 866.69 196.378C866.319 196.378 865.987 196.456 865.695 196.612C865.407 196.764 865.178 196.976 865.009 197.248C864.844 197.516 864.761 197.823 864.761 198.168V203H863.588ZM876.055 195.364V196.358H872.098V195.364H876.055ZM873.251 193.534H874.424V200.812C874.424 201.144 874.472 201.393 874.569 201.558C874.668 201.721 874.794 201.83 874.946 201.886C875.102 201.939 875.266 201.966 875.439 201.966C875.568 201.966 875.674 201.959 875.757 201.946C875.84 201.929 875.906 201.916 875.956 201.906L876.194 202.96C876.115 202.99 876.004 203.02 875.861 203.05C875.719 203.083 875.538 203.099 875.319 203.099C874.988 203.099 874.663 203.028 874.345 202.886C874.03 202.743 873.768 202.526 873.559 202.234C873.354 201.943 873.251 201.575 873.251 201.131V193.534ZM880.94 203.159C880.204 203.159 879.569 202.997 879.036 202.672C878.505 202.344 878.096 201.886 877.808 201.3C877.522 200.71 877.38 200.024 877.38 199.241C877.38 198.459 877.522 197.77 877.808 197.173C878.096 196.573 878.497 196.106 879.011 195.771C879.528 195.433 880.131 195.264 880.82 195.264C881.218 195.264 881.611 195.33 881.999 195.463C882.386 195.596 882.739 195.811 883.058 196.109C883.376 196.404 883.629 196.795 883.818 197.283C884.007 197.77 884.102 198.37 884.102 199.082V199.58H878.215V198.565H882.908C882.908 198.134 882.822 197.75 882.65 197.412C882.481 197.074 882.239 196.807 881.924 196.612C881.612 196.416 881.245 196.318 880.82 196.318C880.353 196.318 879.949 196.434 879.607 196.666C879.269 196.895 879.009 197.193 878.827 197.561C878.644 197.929 878.553 198.323 878.553 198.744V199.42C878.553 199.997 878.653 200.486 878.852 200.887C879.054 201.285 879.334 201.588 879.692 201.797C880.05 202.002 880.466 202.105 880.94 202.105C881.248 202.105 881.526 202.062 881.775 201.976C882.027 201.886 882.244 201.754 882.426 201.578C882.608 201.399 882.749 201.177 882.849 200.912L883.982 201.23C883.863 201.615 883.662 201.953 883.381 202.244C883.099 202.533 882.751 202.758 882.337 202.92C881.922 203.08 881.457 203.159 880.94 203.159ZM886.556 195.364L888.386 198.486L890.215 195.364H891.568L889.102 199.182L891.568 203H890.215L888.386 200.037L886.556 203H885.204L887.63 199.182L885.204 195.364H886.556ZM896.563 195.364V196.358H892.605V195.364H896.563ZM893.759 193.534H894.932V200.812C894.932 201.144 894.98 201.393 895.076 201.558C895.176 201.721 895.302 201.83 895.454 201.886C895.61 201.939 895.774 201.966 895.946 201.966C896.076 201.966 896.182 201.959 896.265 201.946C896.347 201.929 896.414 201.916 896.463 201.906L896.702 202.96C896.623 202.99 896.511 203.02 896.369 203.05C896.226 203.083 896.046 203.099 895.827 203.099C895.496 203.099 895.171 203.028 894.853 202.886C894.538 202.743 894.276 202.526 894.067 202.234C893.862 201.943 893.759 201.575 893.759 201.131V193.534Z" fill="#FC8B98"/>
<defs>
<clipPath id="clip0_2102_35271">
<rect x="100" y="172" width="250" height="8" rx="4" fill="white"/>
</clipPath>
<clipPath id="clip1_2102_35271">
<rect x="450" y="172" width="250" height="8" rx="4" fill="white"/>
</clipPath>
<clipPath id="clip2_2102_35271">
<rect x="800" y="172" width="250" height="8" rx="4" fill="white"/>
</clipPath>
</defs>
</svg>
