<svg width="559" height="245" viewBox="0 0 559 245" fill="none" xmlns="http://www.w3.org/2000/svg">
<rect width="559" height="245" rx="16" fill="#1A1A1A"/>
<rect opacity="0.5" x="60" y="107" width="12" height="66" fill="#30C9B0" fill-opacity="0.5"/>
<g clip-path="url(#clip0_2102_36063)">
<line x1="60.5" y1="101" x2="60.5" y2="86" stroke="#3CC29A"/>
<line x1="60" y1="93.5" x2="71.9967" y2="93.5" stroke="#3CC29A"/>
<line x1="71.5" y1="101" x2="71.5" y2="86" stroke="#3CC29A"/>
</g>
<path d="M63.1442 79H61.4968V71.0703L58.947 72.0068V70.5645L63.0417 69.0469H63.1442V79ZM73.3265 79H66.6478V77.8652L69.888 74.3379C70.1569 74.0417 70.3825 73.7773 70.5648 73.5449C70.7471 73.3079 70.8952 73.0915 71.0091 72.8955C71.1185 72.6995 71.1959 72.5173 71.2415 72.3486C71.2917 72.1755 71.3167 72.0023 71.3167 71.8291C71.3167 71.5967 71.2825 71.3848 71.2142 71.1934C71.1458 71.002 71.0456 70.8379 70.9134 70.7012C70.7812 70.5645 70.6217 70.4574 70.4349 70.3799C70.2526 70.3024 70.0475 70.2637 69.8196 70.2637C69.528 70.2637 69.2751 70.3047 69.0609 70.3867C68.8467 70.4688 68.6689 70.585 68.5277 70.7354C68.3818 70.8949 68.2724 71.0885 68.1995 71.3164C68.1266 71.5397 68.0902 71.7949 68.0902 72.082H66.4495C66.4495 71.6491 66.5293 71.2412 66.6888 70.8584C66.8483 70.471 67.0762 70.1338 67.3724 69.8467C67.664 69.5596 68.0195 69.3317 68.4388 69.1631C68.8626 68.9945 69.3343 68.9102 69.8538 68.9102C70.3415 68.9102 70.7767 68.9808 71.1595 69.1221C71.5469 69.2633 71.8727 69.4593 72.137 69.71C72.3968 69.9606 72.595 70.2614 72.7318 70.6123C72.8685 70.9587 72.9368 71.3415 72.9368 71.7607C72.9368 72.0752 72.8844 72.3805 72.7796 72.6768C72.6793 72.9684 72.5404 73.2578 72.3626 73.5449C72.1803 73.832 71.9639 74.1214 71.7132 74.4131C71.4671 74.7048 71.1982 75.0055 70.9066 75.3154L68.6917 77.6807H73.3265V79Z" fill="#3CC29A"/>
<rect opacity="0.5" x="372" y="107" width="12" height="66" fill="#30C9B0" fill-opacity="0.5"/>
<g clip-path="url(#clip1_2102_36063)">
<line x1="372.5" y1="101" x2="372.5" y2="86" stroke="#3CC29A"/>
<line x1="372" y1="93.5" x2="383.997" y2="93.5" stroke="#3CC29A"/>
<line x1="383.5" y1="101" x2="383.5" y2="86" stroke="#3CC29A"/>
</g>
<path d="M375.144 79H373.497V71.0703L370.947 72.0068V70.5645L375.042 69.0469H375.144V79ZM385.326 79H378.648V77.8652L381.888 74.3379C382.157 74.0417 382.382 73.7773 382.565 73.5449C382.747 73.3079 382.895 73.0915 383.009 72.8955C383.118 72.6995 383.196 72.5173 383.242 72.3486C383.292 72.1755 383.317 72.0023 383.317 71.8291C383.317 71.5967 383.283 71.3848 383.214 71.1934C383.146 71.002 383.046 70.8379 382.913 70.7012C382.781 70.5645 382.622 70.4574 382.435 70.3799C382.253 70.3024 382.048 70.2637 381.82 70.2637C381.528 70.2637 381.275 70.3047 381.061 70.3867C380.847 70.4688 380.669 70.585 380.528 70.7354C380.382 70.8949 380.272 71.0885 380.2 71.3164C380.127 71.5397 380.09 71.7949 380.09 72.082H378.45C378.45 71.6491 378.529 71.2412 378.689 70.8584C378.848 70.471 379.076 70.1338 379.372 69.8467C379.664 69.5596 380.02 69.3317 380.439 69.1631C380.863 68.9945 381.334 68.9102 381.854 68.9102C382.341 68.9102 382.777 68.9808 383.159 69.1221C383.547 69.2633 383.873 69.4593 384.137 69.71C384.397 69.9606 384.595 70.2614 384.732 70.6123C384.868 70.9587 384.937 71.3415 384.937 71.7607C384.937 72.0752 384.884 72.3805 384.78 72.6768C384.679 72.9684 384.54 73.2578 384.363 73.5449C384.18 73.832 383.964 74.1214 383.713 74.4131C383.467 74.7048 383.198 75.0055 382.907 75.3154L380.692 77.6807H385.326V79Z" fill="#3CC29A"/>
<rect opacity="0.5" x="383.998" y="173" width="12" height="323.998" transform="rotate(90 383.998 173)" fill="#30C9B0" fill-opacity="0.5"/>
<g clip-path="url(#clip2_2102_36063)">
<line x1="389.998" y1="173.5" x2="404.998" y2="173.5" stroke="#3CC29A"/>
<line x1="397.498" y1="173" x2="397.498" y2="184.997" stroke="#3CC29A"/>
<line x1="389.998" y1="184.5" x2="404.998" y2="184.5" stroke="#3CC29A"/>
</g>
<path d="M414.142 184H412.495V176.07L409.945 177.007V175.565L414.04 174.047H414.142V184ZM424.325 184H417.646V182.865L420.886 179.338C421.155 179.042 421.38 178.777 421.563 178.545C421.745 178.308 421.893 178.092 422.007 177.896C422.116 177.7 422.194 177.517 422.24 177.349C422.29 177.176 422.315 177.002 422.315 176.829C422.315 176.597 422.281 176.385 422.212 176.193C422.144 176.002 422.044 175.838 421.911 175.701C421.779 175.565 421.62 175.457 421.433 175.38C421.251 175.303 421.046 175.264 420.818 175.264C420.526 175.264 420.273 175.305 420.059 175.387C419.845 175.469 419.667 175.585 419.526 175.735C419.38 175.895 419.27 176.089 419.198 176.317C419.125 176.54 419.088 176.795 419.088 177.082H417.448C417.448 176.649 417.527 176.241 417.687 175.859C417.846 175.471 418.074 175.134 418.37 174.847C418.662 174.56 419.018 174.332 419.437 174.163C419.861 173.995 420.332 173.91 420.852 173.91C421.339 173.91 421.775 173.981 422.158 174.122C422.545 174.263 422.871 174.459 423.135 174.71C423.395 174.961 423.593 175.262 423.73 175.612C423.866 175.959 423.935 176.342 423.935 176.761C423.935 177.075 423.882 177.381 423.778 177.677C423.677 177.969 423.538 178.258 423.361 178.545C423.178 178.832 422.962 179.122 422.711 179.413C422.465 179.705 422.196 180.006 421.905 180.316L419.69 182.681H424.325V184Z" fill="#3CC29A"/>
<rect opacity="0.5" x="383.998" y="95" width="12" height="323.998" transform="rotate(90 383.998 95)" fill="#30C9B0" fill-opacity="0.5"/>
<g clip-path="url(#clip3_2102_36063)">
<line x1="389.998" y1="95.5" x2="404.998" y2="95.5" stroke="#3CC29A"/>
<line x1="397.498" y1="95" x2="397.498" y2="106.997" stroke="#3CC29A"/>
<line x1="389.998" y1="106.5" x2="404.998" y2="106.5" stroke="#3CC29A"/>
</g>
<path d="M414.142 106H412.495V98.0704L409.945 99.007V97.5646L414.04 96.047H414.142V106ZM424.325 106H417.646V104.865L420.886 101.338C421.155 101.042 421.38 100.777 421.563 100.545C421.745 100.308 421.893 100.092 422.007 99.8956C422.116 99.6997 422.194 99.5174 422.24 99.3488C422.29 99.1756 422.315 99.0024 422.315 98.8292C422.315 98.5968 422.281 98.3849 422.212 98.1935C422.144 98.0021 422.044 97.838 421.911 97.7013C421.779 97.5646 421.62 97.4575 421.433 97.38C421.251 97.3025 421.046 97.2638 420.818 97.2638C420.526 97.2638 420.273 97.3048 420.059 97.3868C419.845 97.4689 419.667 97.5851 419.526 97.7355C419.38 97.895 419.27 98.0887 419.198 98.3165C419.125 98.5398 419.088 98.795 419.088 99.0822H417.448C417.448 98.6492 417.527 98.2413 417.687 97.8585C417.846 97.4712 418.074 97.1339 418.37 96.8468C418.662 96.5597 419.018 96.3318 419.437 96.1632C419.861 95.9946 420.332 95.9103 420.852 95.9103C421.339 95.9103 421.775 95.9809 422.158 96.1222C422.545 96.2635 422.871 96.4594 423.135 96.7101C423.395 96.9607 423.593 97.2615 423.73 97.6124C423.866 97.9588 423.935 98.3416 423.935 98.7609C423.935 99.0753 423.882 99.3807 423.778 99.6769C423.677 99.9685 423.538 100.258 423.361 100.545C423.178 100.832 422.962 101.122 422.711 101.413C422.465 101.705 422.196 102.006 421.905 102.316L419.69 104.681H424.325V106Z" fill="#3CC29A"/>
<path d="M72.98 110.92H74.408V117.752C74.408 118.489 74.66 119.059 75.164 119.46C75.612 119.824 76.214 120.006 76.97 120.006C77.838 120.006 78.5007 119.768 78.958 119.292C79.3407 118.9 79.532 118.387 79.532 117.752V110.92H80.918V117.626C80.918 118.802 80.5073 119.717 79.686 120.37C78.986 120.93 78.076 121.21 76.956 121.21C75.6587 121.21 74.646 120.841 73.918 120.104C73.2927 119.469 72.98 118.643 72.98 117.626V110.92ZM87.1344 119.026C87.1344 118.615 86.9198 118.307 86.4904 118.102C86.2384 117.99 85.7484 117.85 85.0204 117.682C84.1244 117.486 83.4851 117.201 83.1024 116.828C82.7851 116.511 82.6264 116.095 82.6264 115.582C82.6264 114.901 82.9018 114.378 83.4524 114.014C83.9471 113.678 84.6144 113.51 85.4544 113.51C86.3224 113.51 87.0271 113.725 87.5684 114.154C88.0351 114.527 88.3244 115.022 88.4364 115.638H87.0644C86.9058 114.929 86.3644 114.574 85.4404 114.574C84.9271 114.574 84.5444 114.667 84.2924 114.854C84.0871 115.013 83.9844 115.213 83.9844 115.456C83.9844 115.755 84.0964 115.979 84.3204 116.128C84.5538 116.277 85.0064 116.427 85.6784 116.576C86.7051 116.8 87.4191 117.075 87.8204 117.402C88.2684 117.766 88.4924 118.275 88.4924 118.928C88.4924 119.656 88.1938 120.23 87.5964 120.65C87.0551 121.023 86.3411 121.21 85.4544 121.21C84.4838 121.21 83.7138 120.977 83.1444 120.51C82.6498 120.099 82.3744 119.567 82.3184 118.914H83.6904C83.8398 119.735 84.4324 120.146 85.4684 120.146C86.0284 120.146 86.4624 120.025 86.7704 119.782C87.0131 119.586 87.1344 119.334 87.1344 119.026ZM94.9848 118.9H96.4408C96.2355 119.637 95.8295 120.216 95.2228 120.636C94.6535 121.019 93.9722 121.21 93.1788 121.21C92.0308 121.21 91.1348 120.846 90.4908 120.118C89.9028 119.437 89.6088 118.517 89.6088 117.36C89.6088 116.044 89.9822 115.045 90.7288 114.364C91.3448 113.795 92.1382 113.51 93.1088 113.51C94.2475 113.51 95.1062 113.879 95.6848 114.616C96.2448 115.325 96.5248 116.338 96.5248 117.654H90.9808C91.0368 118.513 91.2982 119.152 91.7648 119.572C92.1475 119.908 92.6328 120.076 93.2208 120.076C93.6782 120.076 94.0748 119.95 94.4108 119.698C94.6908 119.483 94.8822 119.217 94.9848 118.9ZM93.1368 114.588C92.5395 114.588 92.0588 114.775 91.6948 115.148C91.3495 115.493 91.1302 115.974 91.0368 116.59H95.1528C95.1062 115.89 94.8728 115.367 94.4528 115.022C94.1168 114.733 93.6782 114.588 93.1368 114.588ZM99.4803 121H98.1363V113.72H99.2423L99.4243 114.798C99.8349 113.939 100.451 113.51 101.272 113.51C101.543 113.51 101.809 113.543 102.07 113.608V114.952C101.753 114.868 101.468 114.826 101.216 114.826C100.675 114.826 100.25 115.045 99.9423 115.484C99.6343 115.923 99.4803 116.543 99.4803 117.346V121ZM107.382 119.026C107.382 118.615 107.168 118.307 106.738 118.102C106.486 117.99 105.996 117.85 105.268 117.682C104.372 117.486 103.733 117.201 103.35 116.828C103.033 116.511 102.874 116.095 102.874 115.582C102.874 114.901 103.15 114.378 103.7 114.014C104.195 113.678 104.862 113.51 105.702 113.51C106.57 113.51 107.275 113.725 107.816 114.154C108.283 114.527 108.572 115.022 108.684 115.638H107.312C107.154 114.929 106.612 114.574 105.688 114.574C105.175 114.574 104.792 114.667 104.54 114.854C104.335 115.013 104.232 115.213 104.232 115.456C104.232 115.755 104.344 115.979 104.568 116.128C104.802 116.277 105.254 116.427 105.926 116.576C106.953 116.8 107.667 117.075 108.068 117.402C108.516 117.766 108.74 118.275 108.74 118.928C108.74 119.656 108.442 120.23 107.844 120.65C107.303 121.023 106.589 121.21 105.702 121.21C104.732 121.21 103.962 120.977 103.392 120.51C102.898 120.099 102.622 119.567 102.566 118.914H103.938C104.088 119.735 104.68 120.146 105.716 120.146C106.276 120.146 106.71 120.025 107.018 119.782C107.261 119.586 107.382 119.334 107.382 119.026ZM123.28 113.72H124.624L122.496 121H120.942L119.178 115.246L117.442 121H115.832L113.704 113.72H115.104L116.672 119.572L118.408 113.72H120.018L121.726 119.544L123.28 113.72ZM127.236 112.502H125.724V110.92H127.236V112.502ZM127.152 121H125.808V113.72H127.152V121ZM132.365 119.922V121.07C132.019 121.163 131.688 121.21 131.371 121.21C130.699 121.21 130.195 121 129.859 120.58C129.569 120.235 129.425 119.773 129.425 119.194V114.868H128.347V113.72H129.425L129.509 111.97H130.769V113.72H132.337V114.868H130.769V119.222C130.769 119.763 131.025 120.034 131.539 120.034C131.781 120.034 132.057 119.997 132.365 119.922ZM134.972 121H133.628V110.92H134.972V114.546C135.504 113.855 136.214 113.51 137.1 113.51C137.959 113.51 138.617 113.776 139.074 114.308C139.476 114.784 139.676 115.433 139.676 116.254V121H138.332V116.268C138.332 115.195 137.814 114.658 136.778 114.658C136.228 114.658 135.78 114.849 135.434 115.232C135.126 115.577 134.972 116.021 134.972 116.562V121ZM150.445 113.72H151.845L149.283 121H147.463L144.929 113.72H146.399L148.415 119.908L150.445 113.72ZM154.388 112.502H152.876V110.92H154.388V112.502ZM154.304 121H152.96V113.72H154.304V121ZM162.835 121H161.729L161.491 119.978C160.931 120.799 160.124 121.21 159.069 121.21C158.052 121.21 157.249 120.841 156.661 120.104C156.12 119.423 155.849 118.522 155.849 117.402C155.849 116.049 156.194 115.031 156.885 114.35C157.464 113.79 158.22 113.51 159.153 113.51C160.161 113.51 160.94 113.888 161.491 114.644V110.92H162.835V121ZM157.249 117.43C157.249 118.335 157.473 119.021 157.921 119.488C158.294 119.871 158.775 120.062 159.363 120.062C160.091 120.062 160.656 119.787 161.057 119.236C161.393 118.76 161.561 118.163 161.561 117.444C161.561 116.501 161.337 115.783 160.889 115.288C160.506 114.868 159.998 114.658 159.363 114.658C158.654 114.658 158.117 114.915 157.753 115.428C157.417 115.895 157.249 116.562 157.249 117.43ZM169.756 118.9H171.212C171.007 119.637 170.601 120.216 169.994 120.636C169.425 121.019 168.744 121.21 167.95 121.21C166.802 121.21 165.906 120.846 165.262 120.118C164.674 119.437 164.38 118.517 164.38 117.36C164.38 116.044 164.754 115.045 165.5 114.364C166.116 113.795 166.91 113.51 167.88 113.51C169.019 113.51 169.878 113.879 170.456 114.616C171.016 115.325 171.296 116.338 171.296 117.654H165.752C165.808 118.513 166.07 119.152 166.536 119.572C166.919 119.908 167.404 120.076 167.992 120.076C168.45 120.076 168.846 119.95 169.182 119.698C169.462 119.483 169.654 119.217 169.756 118.9ZM167.908 114.588C167.311 114.588 166.83 114.775 166.466 115.148C166.121 115.493 165.902 115.974 165.808 116.59H169.924C169.878 115.89 169.644 115.367 169.224 115.022C168.888 114.733 168.45 114.588 167.908 114.588ZM172.488 117.36C172.488 116.025 172.884 115.017 173.678 114.336C174.312 113.785 175.115 113.51 176.086 113.51C177.215 113.51 178.102 113.869 178.746 114.588C179.362 115.26 179.67 116.184 179.67 117.36C179.67 118.676 179.282 119.679 178.508 120.37C177.873 120.93 177.061 121.21 176.072 121.21C174.942 121.21 174.051 120.837 173.398 120.09C172.791 119.409 172.488 118.499 172.488 117.36ZM173.888 117.36C173.888 118.293 174.126 119.007 174.602 119.502C174.994 119.913 175.493 120.118 176.1 120.118C176.809 120.118 177.355 119.852 177.738 119.32C178.092 118.835 178.27 118.181 178.27 117.36C178.27 116.408 178.036 115.689 177.57 115.204C177.187 114.803 176.692 114.602 176.086 114.602C175.386 114.602 174.84 114.868 174.448 115.4C174.074 115.885 173.888 116.539 173.888 117.36Z" fill="white" fill-opacity="0.95"/>
<path d="M345.693 113.762H344.279C344.391 112.894 344.793 112.203 345.483 111.69C346.099 111.223 346.846 110.99 347.723 110.99C348.722 110.99 349.52 111.27 350.117 111.83C350.649 112.343 350.915 112.992 350.915 113.776C350.915 114.467 350.719 115.106 350.327 115.694C350.01 116.189 349.427 116.837 348.577 117.64L346.337 119.768H350.873V121H344.517V119.768L347.709 116.702C348.419 116.021 348.899 115.479 349.151 115.078C349.413 114.667 349.543 114.238 349.543 113.79C349.543 113.249 349.357 112.829 348.983 112.53C348.657 112.259 348.227 112.124 347.695 112.124C347.098 112.124 346.617 112.287 346.253 112.614C345.936 112.903 345.749 113.286 345.693 113.762ZM352.548 118.62H353.976C354.079 119.077 354.321 119.437 354.704 119.698C355.068 119.95 355.516 120.076 356.048 120.076C356.711 120.076 357.243 119.847 357.644 119.39C357.999 118.979 358.176 118.438 358.176 117.766C358.176 117.01 357.957 116.436 357.518 116.044C357.154 115.708 356.673 115.54 356.076 115.54C355.273 115.54 354.62 115.839 354.116 116.436H352.926L353.136 111.2H359.156V112.334H354.354L354.242 115.204C354.839 114.728 355.553 114.49 356.384 114.49C357.355 114.49 358.134 114.807 358.722 115.442C359.282 116.049 359.562 116.842 359.562 117.822C359.562 118.839 359.212 119.67 358.512 120.314C357.868 120.911 357.042 121.21 356.034 121.21C355.017 121.21 354.172 120.911 353.5 120.314C352.977 119.847 352.66 119.283 352.548 118.62ZM365.493 113.356C365.493 114.149 365.217 114.765 364.667 115.204C364.228 115.549 363.705 115.722 363.099 115.722C362.389 115.722 361.811 115.498 361.363 115.05C360.933 114.621 360.719 114.056 360.719 113.356C360.719 112.553 360.994 111.937 361.545 111.508C361.974 111.163 362.492 110.99 363.099 110.99C363.808 110.99 364.387 111.214 364.835 111.662C365.273 112.091 365.493 112.656 365.493 113.356ZM361.853 113.356C361.853 113.86 361.988 114.233 362.259 114.476C362.473 114.653 362.753 114.742 363.099 114.742C363.5 114.742 363.813 114.621 364.037 114.378C364.261 114.145 364.373 113.804 364.373 113.356C364.373 112.852 364.228 112.479 363.939 112.236C363.724 112.059 363.444 111.97 363.099 111.97C362.697 111.97 362.389 112.091 362.175 112.334C361.96 112.567 361.853 112.908 361.853 113.356ZM369.413 111.2L364.065 121H362.721L368.069 111.2H369.413ZM371.513 118.844C371.513 119.637 371.237 120.253 370.687 120.692C370.248 121.037 369.725 121.21 369.119 121.21C368.409 121.21 367.831 120.986 367.383 120.538C366.953 120.109 366.739 119.544 366.739 118.844C366.739 118.041 367.014 117.425 367.565 116.996C367.994 116.651 368.512 116.478 369.119 116.478C369.828 116.478 370.407 116.702 370.855 117.15C371.293 117.579 371.513 118.144 371.513 118.844ZM367.873 118.844C367.873 119.348 368.008 119.721 368.279 119.964C368.493 120.141 368.773 120.23 369.119 120.23C369.52 120.23 369.833 120.109 370.057 119.866C370.281 119.633 370.393 119.292 370.393 118.844C370.393 118.34 370.248 117.967 369.959 117.724C369.744 117.547 369.464 117.458 369.119 117.458C368.717 117.458 368.409 117.579 368.195 117.822C367.98 118.055 367.873 118.396 367.873 118.844Z" fill="white" fill-opacity="0.95"/>
<rect x="72" y="135" width="300" height="8" rx="4" fill="#3B3B3B"/>
<rect x="72" y="135" width="75" height="8" rx="4" fill="#3492EB"/>
<g clip-path="url(#clip4_2102_36063)">
<path d="M81.884 166H80.302L79.308 163.452H74.506L73.498 166H72L76.144 155.92H77.754L81.884 166ZM76.928 157.348L74.968 162.29H78.846L76.928 157.348ZM87.5408 158.72H88.9408L86.3788 166H84.5588L82.0248 158.72H83.4948L85.5108 164.908L87.5408 158.72ZM94.7387 163.9H96.1947C95.9894 164.637 95.5834 165.216 94.9767 165.636C94.4074 166.019 93.7261 166.21 92.9327 166.21C91.7847 166.21 90.8887 165.846 90.2447 165.118C89.6567 164.437 89.3627 163.517 89.3627 162.36C89.3627 161.044 89.7361 160.045 90.4827 159.364C91.0987 158.795 91.8921 158.51 92.8627 158.51C94.0014 158.51 94.8601 158.879 95.4387 159.616C95.9987 160.325 96.2787 161.338 96.2787 162.654H90.7347C90.7907 163.513 91.0521 164.152 91.5187 164.572C91.9014 164.908 92.3867 165.076 92.9747 165.076C93.4321 165.076 93.8287 164.95 94.1647 164.698C94.4447 164.483 94.6361 164.217 94.7387 163.9ZM92.8907 159.588C92.2934 159.588 91.8127 159.775 91.4487 160.148C91.1034 160.493 90.8841 160.974 90.7907 161.59H94.9067C94.8601 160.89 94.6267 160.367 94.2067 160.022C93.8707 159.733 93.4321 159.588 92.8907 159.588ZM99.2342 166H97.8902V158.72H98.9962L99.1782 159.798C99.5888 158.939 100.205 158.51 101.026 158.51C101.297 158.51 101.563 158.543 101.824 158.608V159.952C101.507 159.868 101.222 159.826 100.97 159.826C100.429 159.826 100.004 160.045 99.6962 160.484C99.3882 160.923 99.2342 161.543 99.2342 162.346V166ZM104.028 160.75H102.6C102.675 160.022 103.02 159.457 103.636 159.056C104.187 158.692 104.882 158.51 105.722 158.51C106.721 158.51 107.486 158.771 108.018 159.294C108.466 159.742 108.69 160.321 108.69 161.03V166H107.584L107.416 165.006C106.847 165.809 106.035 166.21 104.98 166.21C104.15 166.21 103.501 165.986 103.034 165.538C102.652 165.165 102.46 164.693 102.46 164.124C102.46 163.405 102.708 162.85 103.202 162.458C103.641 162.113 104.313 161.861 105.218 161.702L107.346 161.338V160.974C107.346 160.498 107.183 160.139 106.856 159.896C106.567 159.681 106.17 159.574 105.666 159.574C104.677 159.574 104.131 159.966 104.028 160.75ZM105.302 165.076C105.872 165.076 106.366 164.889 106.786 164.516C107.16 164.171 107.346 163.774 107.346 163.326V162.388L105.54 162.71C104.878 162.822 104.425 162.995 104.182 163.228C103.986 163.415 103.888 163.667 103.888 163.984C103.888 164.339 104.01 164.609 104.252 164.796C104.495 164.983 104.845 165.076 105.302 165.076ZM110.494 166.49H111.936C112.001 166.863 112.188 167.153 112.496 167.358C112.813 167.563 113.228 167.666 113.742 167.666C114.46 167.666 114.997 167.479 115.352 167.106C115.65 166.789 115.8 166.345 115.8 165.776V164.838C115.258 165.473 114.451 165.79 113.378 165.79C112.407 165.79 111.618 165.44 111.012 164.74C110.442 164.087 110.158 163.237 110.158 162.192C110.158 160.979 110.503 160.041 111.194 159.378C111.782 158.799 112.538 158.51 113.462 158.51C114.507 158.51 115.296 158.902 115.828 159.686L116.038 158.72H117.144V165.846C117.144 166.761 116.812 167.479 116.15 168.002C115.552 168.487 114.764 168.73 113.784 168.73C112.766 168.73 111.968 168.501 111.39 168.044C110.904 167.661 110.606 167.143 110.494 166.49ZM111.558 162.22C111.558 163.013 111.791 163.634 112.258 164.082C112.64 164.455 113.112 164.642 113.672 164.642C114.409 164.642 114.974 164.399 115.366 163.914C115.702 163.503 115.87 162.953 115.87 162.262C115.87 161.375 115.641 160.699 115.184 160.232C114.801 159.849 114.297 159.658 113.672 159.658C112.981 159.658 112.449 159.896 112.076 160.372C111.73 160.82 111.558 161.436 111.558 162.22ZM124.065 163.9H125.521C125.316 164.637 124.91 165.216 124.303 165.636C123.734 166.019 123.052 166.21 122.259 166.21C121.111 166.21 120.215 165.846 119.571 165.118C118.983 164.437 118.689 163.517 118.689 162.36C118.689 161.044 119.062 160.045 119.809 159.364C120.425 158.795 121.218 158.51 122.189 158.51C123.328 158.51 124.186 158.879 124.765 159.616C125.325 160.325 125.605 161.338 125.605 162.654H120.061C120.117 163.513 120.378 164.152 120.845 164.572C121.228 164.908 121.713 165.076 122.301 165.076C122.758 165.076 123.155 164.95 123.491 164.698C123.771 164.483 123.962 164.217 124.065 163.9ZM122.217 159.588C121.62 159.588 121.139 159.775 120.775 160.148C120.43 160.493 120.21 160.974 120.117 161.59H124.233C124.186 160.89 123.953 160.367 123.533 160.022C123.197 159.733 122.758 159.588 122.217 159.588ZM130.994 162.36C130.994 161.025 131.39 160.017 132.184 159.336C132.818 158.785 133.621 158.51 134.592 158.51C135.721 158.51 136.608 158.869 137.252 159.588C137.868 160.26 138.176 161.184 138.176 162.36C138.176 163.676 137.788 164.679 137.014 165.37C136.379 165.93 135.567 166.21 134.578 166.21C133.448 166.21 132.557 165.837 131.904 165.09C131.297 164.409 130.994 163.499 130.994 162.36ZM132.394 162.36C132.394 163.293 132.632 164.007 133.108 164.502C133.5 164.913 133.999 165.118 134.606 165.118C135.315 165.118 135.861 164.852 136.244 164.32C136.598 163.835 136.776 163.181 136.776 162.36C136.776 161.408 136.542 160.689 136.076 160.204C135.693 159.803 135.198 159.602 134.592 159.602C133.892 159.602 133.346 159.868 132.954 160.4C132.58 160.885 132.394 161.539 132.394 162.36ZM143.31 155.878V157.04C142.862 156.928 142.494 156.872 142.204 156.872C141.962 156.872 141.77 156.937 141.63 157.068C141.5 157.199 141.434 157.381 141.434 157.614V158.72H143.002V159.868H141.434V166H140.09V159.868H139.012V158.72H140.09V157.698C140.09 157.054 140.3 156.55 140.72 156.186C141.094 155.869 141.56 155.71 142.12 155.71C142.484 155.71 142.881 155.766 143.31 155.878ZM154.847 158.51C154.847 158.967 154.707 159.392 154.427 159.784C154.147 160.176 153.751 160.507 153.237 160.778C154.553 161.357 155.211 162.215 155.211 163.354C155.211 164.25 154.843 164.969 154.105 165.51C153.452 165.977 152.631 166.21 151.641 166.21C150.503 166.21 149.597 165.916 148.925 165.328C148.356 164.824 148.071 164.199 148.071 163.452C148.071 162.733 148.305 162.131 148.771 161.646C149.089 161.31 149.495 161.049 149.989 160.862C148.953 160.377 148.435 159.625 148.435 158.608C148.435 157.703 148.799 157.012 149.527 156.536C150.097 156.172 150.801 155.99 151.641 155.99C152.621 155.99 153.405 156.214 153.993 156.662C154.563 157.11 154.847 157.726 154.847 158.51ZM153.783 163.354C153.783 162.635 153.48 162.108 152.873 161.772C152.575 161.604 152.066 161.441 151.347 161.282C150.806 161.441 150.372 161.683 150.045 162.01C149.681 162.383 149.499 162.831 149.499 163.354C149.499 163.895 149.7 164.325 150.101 164.642C150.475 164.95 150.988 165.104 151.641 165.104C152.379 165.104 152.939 164.917 153.321 164.544C153.629 164.245 153.783 163.849 153.783 163.354ZM149.751 158.538C149.751 159.229 150.036 159.733 150.605 160.05C150.932 160.227 151.371 160.353 151.921 160.428C152.976 160.017 153.503 159.387 153.503 158.538C153.503 158.053 153.298 157.67 152.887 157.39C152.542 157.157 152.127 157.04 151.641 157.04C151.063 157.04 150.596 157.18 150.241 157.46C149.915 157.731 149.751 158.09 149.751 158.538ZM156.55 163.62H157.978C158.081 164.077 158.323 164.437 158.706 164.698C159.07 164.95 159.518 165.076 160.05 165.076C160.713 165.076 161.245 164.847 161.646 164.39C162.001 163.979 162.178 163.438 162.178 162.766C162.178 162.01 161.959 161.436 161.52 161.044C161.156 160.708 160.675 160.54 160.078 160.54C159.275 160.54 158.622 160.839 158.118 161.436H156.928L157.138 156.2H163.158V157.334H158.356L158.244 160.204C158.841 159.728 159.555 159.49 160.386 159.49C161.357 159.49 162.136 159.807 162.724 160.442C163.284 161.049 163.564 161.842 163.564 162.822C163.564 163.839 163.214 164.67 162.514 165.314C161.87 165.911 161.044 166.21 160.036 166.21C159.019 166.21 158.174 165.911 157.502 165.314C156.979 164.847 156.662 164.283 156.55 163.62ZM169.494 158.356C169.494 159.149 169.219 159.765 168.668 160.204C168.23 160.549 167.707 160.722 167.1 160.722C166.391 160.722 165.812 160.498 165.364 160.05C164.935 159.621 164.72 159.056 164.72 158.356C164.72 157.553 164.996 156.937 165.546 156.508C165.976 156.163 166.494 155.99 167.1 155.99C167.81 155.99 168.388 156.214 168.836 156.662C169.275 157.091 169.494 157.656 169.494 158.356ZM165.854 158.356C165.854 158.86 165.99 159.233 166.26 159.476C166.475 159.653 166.755 159.742 167.1 159.742C167.502 159.742 167.814 159.621 168.038 159.378C168.262 159.145 168.374 158.804 168.374 158.356C168.374 157.852 168.23 157.479 167.94 157.236C167.726 157.059 167.446 156.97 167.1 156.97C166.699 156.97 166.391 157.091 166.176 157.334C165.962 157.567 165.854 157.908 165.854 158.356ZM173.414 156.2L168.066 166H166.722L172.07 156.2H173.414ZM175.514 163.844C175.514 164.637 175.239 165.253 174.688 165.692C174.25 166.037 173.727 166.21 173.12 166.21C172.411 166.21 171.832 165.986 171.384 165.538C170.955 165.109 170.74 164.544 170.74 163.844C170.74 163.041 171.016 162.425 171.566 161.996C171.996 161.651 172.514 161.478 173.12 161.478C173.83 161.478 174.408 161.702 174.856 162.15C175.295 162.579 175.514 163.144 175.514 163.844ZM171.874 163.844C171.874 164.348 172.01 164.721 172.28 164.964C172.495 165.141 172.775 165.23 173.12 165.23C173.522 165.23 173.834 165.109 174.058 164.866C174.282 164.633 174.394 164.292 174.394 163.844C174.394 163.34 174.25 162.967 173.96 162.724C173.746 162.547 173.466 162.458 173.12 162.458C172.719 162.458 172.411 162.579 172.196 162.822C171.982 163.055 171.874 163.396 171.874 163.844ZM185.855 158.72H187.255L184.693 166H182.873L180.339 158.72H181.809L183.825 164.908L185.855 158.72ZM189.799 157.502H188.287V155.92H189.799V157.502ZM189.715 166H188.371V158.72H189.715V166ZM198.245 166H197.139L196.901 164.978C196.341 165.799 195.534 166.21 194.479 166.21C193.462 166.21 192.659 165.841 192.071 165.104C191.53 164.423 191.259 163.522 191.259 162.402C191.259 161.049 191.605 160.031 192.295 159.35C192.874 158.79 193.63 158.51 194.563 158.51C195.571 158.51 196.351 158.888 196.901 159.644V155.92H198.245V166ZM192.659 162.43C192.659 163.335 192.883 164.021 193.331 164.488C193.705 164.871 194.185 165.062 194.773 165.062C195.501 165.062 196.066 164.787 196.467 164.236C196.803 163.76 196.971 163.163 196.971 162.444C196.971 161.501 196.747 160.783 196.299 160.288C195.917 159.868 195.408 159.658 194.773 159.658C194.064 159.658 193.527 159.915 193.163 160.428C192.827 160.895 192.659 161.562 192.659 162.43ZM205.166 163.9H206.622C206.417 164.637 206.011 165.216 205.404 165.636C204.835 166.019 204.154 166.21 203.36 166.21C202.212 166.21 201.316 165.846 200.672 165.118C200.084 164.437 199.79 163.517 199.79 162.36C199.79 161.044 200.164 160.045 200.91 159.364C201.526 158.795 202.32 158.51 203.29 158.51C204.429 158.51 205.288 158.879 205.866 159.616C206.426 160.325 206.706 161.338 206.706 162.654H201.162C201.218 163.513 201.48 164.152 201.946 164.572C202.329 164.908 202.814 165.076 203.402 165.076C203.86 165.076 204.256 164.95 204.592 164.698C204.872 164.483 205.064 164.217 205.166 163.9ZM203.318 159.588C202.721 159.588 202.24 159.775 201.876 160.148C201.531 160.493 201.312 160.974 201.218 161.59H205.334C205.288 160.89 205.054 160.367 204.634 160.022C204.298 159.733 203.86 159.588 203.318 159.588ZM207.898 162.36C207.898 161.025 208.295 160.017 209.088 159.336C209.723 158.785 210.525 158.51 211.496 158.51C212.625 158.51 213.512 158.869 214.156 159.588C214.772 160.26 215.08 161.184 215.08 162.36C215.08 163.676 214.693 164.679 213.918 165.37C213.283 165.93 212.471 166.21 211.482 166.21C210.353 166.21 209.461 165.837 208.808 165.09C208.201 164.409 207.898 163.499 207.898 162.36ZM209.298 162.36C209.298 163.293 209.536 164.007 210.012 164.502C210.404 164.913 210.903 165.118 211.51 165.118C212.219 165.118 212.765 164.852 213.148 164.32C213.503 163.835 213.68 163.181 213.68 162.36C213.68 161.408 213.447 160.689 212.98 160.204C212.597 159.803 212.103 159.602 211.496 159.602C210.796 159.602 210.25 159.868 209.858 160.4C209.485 160.885 209.298 161.539 209.298 162.36ZM222.158 166H220.814V158.72H221.92L222.06 159.574C222.555 158.865 223.269 158.51 224.202 158.51C225.219 158.51 225.933 158.893 226.344 159.658C226.829 158.893 227.618 158.51 228.71 158.51C229.522 158.51 230.147 158.757 230.586 159.252C230.978 159.709 231.174 160.335 231.174 161.128V166H229.83V161.226C229.83 160.181 229.359 159.658 228.416 159.658C227.856 159.658 227.408 159.877 227.072 160.316C226.801 160.671 226.666 161.086 226.666 161.562V166H225.322V161.226C225.322 160.181 224.851 159.658 223.908 159.658C223.385 159.658 222.951 159.863 222.606 160.274C222.307 160.619 222.158 161.035 222.158 161.52V166ZM238.02 163.9H239.476C239.271 164.637 238.865 165.216 238.258 165.636C237.689 166.019 237.007 166.21 236.214 166.21C235.066 166.21 234.17 165.846 233.526 165.118C232.938 164.437 232.644 163.517 232.644 162.36C232.644 161.044 233.017 160.045 233.764 159.364C234.38 158.795 235.173 158.51 236.144 158.51C237.283 158.51 238.141 158.879 238.72 159.616C239.28 160.325 239.56 161.338 239.56 162.654H234.016C234.072 163.513 234.333 164.152 234.8 164.572C235.183 164.908 235.668 165.076 236.256 165.076C236.713 165.076 237.11 164.95 237.446 164.698C237.726 164.483 237.917 164.217 238.02 163.9ZM236.172 159.588C235.575 159.588 235.094 159.775 234.73 160.148C234.385 160.493 234.165 160.974 234.072 161.59H238.188C238.141 160.89 237.908 160.367 237.488 160.022C237.152 159.733 236.713 159.588 236.172 159.588ZM246.127 163.9H247.583C247.378 164.637 246.972 165.216 246.365 165.636C245.796 166.019 245.115 166.21 244.321 166.21C243.173 166.21 242.277 165.846 241.633 165.118C241.045 164.437 240.751 163.517 240.751 162.36C240.751 161.044 241.125 160.045 241.871 159.364C242.487 158.795 243.281 158.51 244.251 158.51C245.39 158.51 246.249 158.879 246.827 159.616C247.387 160.325 247.667 161.338 247.667 162.654H242.123C242.179 163.513 242.441 164.152 242.907 164.572C243.29 164.908 243.775 165.076 244.363 165.076C244.821 165.076 245.217 164.95 245.553 164.698C245.833 164.483 246.025 164.217 246.127 163.9ZM244.279 159.588C243.682 159.588 243.201 159.775 242.837 160.148C242.492 160.493 242.273 160.974 242.179 161.59H246.295C246.249 160.89 246.015 160.367 245.595 160.022C245.259 159.733 244.821 159.588 244.279 159.588ZM252.527 164.922V166.07C252.181 166.163 251.85 166.21 251.533 166.21C250.861 166.21 250.357 166 250.021 165.58C249.731 165.235 249.587 164.773 249.587 164.194V159.868H248.509V158.72H249.587L249.671 156.97H250.931V158.72H252.499V159.868H250.931V164.222C250.931 164.763 251.187 165.034 251.701 165.034C251.943 165.034 252.219 164.997 252.527 164.922ZM255.219 157.502H253.707V155.92H255.219V157.502ZM255.135 166H253.791V158.72H255.135V166ZM258.443 166H257.099V158.72H258.205L258.359 159.644C258.9 158.888 259.638 158.51 260.571 158.51C261.43 158.51 262.088 158.776 262.545 159.308C262.946 159.784 263.147 160.433 263.147 161.254V166H261.803V161.268C261.803 160.195 261.285 159.658 260.249 159.658C259.708 159.658 259.264 159.845 258.919 160.218C258.602 160.554 258.443 160.983 258.443 161.506V166ZM264.959 166.49H266.401C266.466 166.863 266.653 167.153 266.961 167.358C267.278 167.563 267.693 167.666 268.207 167.666C268.925 167.666 269.462 167.479 269.817 167.106C270.115 166.789 270.265 166.345 270.265 165.776V164.838C269.723 165.473 268.916 165.79 267.843 165.79C266.872 165.79 266.083 165.44 265.477 164.74C264.907 164.087 264.623 163.237 264.623 162.192C264.623 160.979 264.968 160.041 265.659 159.378C266.247 158.799 267.003 158.51 267.927 158.51C268.972 158.51 269.761 158.902 270.293 159.686L270.503 158.72H271.609V165.846C271.609 166.761 271.277 167.479 270.615 168.002C270.017 168.487 269.229 168.73 268.249 168.73C267.231 168.73 266.433 168.501 265.855 168.044C265.369 167.661 265.071 167.143 264.959 166.49ZM266.023 162.22C266.023 163.013 266.256 163.634 266.723 164.082C267.105 164.455 267.577 164.642 268.137 164.642C268.874 164.642 269.439 164.399 269.831 163.914C270.167 163.503 270.335 162.953 270.335 162.262C270.335 161.375 270.106 160.699 269.649 160.232C269.266 159.849 268.762 159.658 268.137 159.658C267.446 159.658 266.914 159.896 266.541 160.372C266.195 160.82 266.023 161.436 266.023 162.22ZM277.701 158.72H279.045V163.494C279.045 164.539 279.549 165.062 280.557 165.062C281.173 165.062 281.644 164.843 281.971 164.404C282.223 164.068 282.349 163.653 282.349 163.158V158.72H283.693V166H282.587L282.433 165.16C281.92 165.86 281.192 166.21 280.249 166.21C279.418 166.21 278.779 165.953 278.331 165.44C277.911 164.964 277.701 164.306 277.701 163.466V158.72ZM289.916 164.026C289.916 163.615 289.701 163.307 289.272 163.102C289.02 162.99 288.53 162.85 287.802 162.682C286.906 162.486 286.266 162.201 285.884 161.828C285.566 161.511 285.408 161.095 285.408 160.582C285.408 159.901 285.683 159.378 286.234 159.014C286.728 158.678 287.396 158.51 288.236 158.51C289.104 158.51 289.808 158.725 290.35 159.154C290.816 159.527 291.106 160.022 291.218 160.638H289.846C289.687 159.929 289.146 159.574 288.222 159.574C287.708 159.574 287.326 159.667 287.074 159.854C286.868 160.013 286.766 160.213 286.766 160.456C286.766 160.755 286.878 160.979 287.102 161.128C287.335 161.277 287.788 161.427 288.46 161.576C289.486 161.8 290.2 162.075 290.602 162.402C291.05 162.766 291.274 163.275 291.274 163.928C291.274 164.656 290.975 165.23 290.378 165.65C289.836 166.023 289.122 166.21 288.236 166.21C287.265 166.21 286.495 165.977 285.926 165.51C285.431 165.099 285.156 164.567 285.1 163.914H286.472C286.621 164.735 287.214 165.146 288.25 165.146C288.81 165.146 289.244 165.025 289.552 164.782C289.794 164.586 289.916 164.334 289.916 164.026ZM297.766 163.9H299.222C299.017 164.637 298.611 165.216 298.004 165.636C297.435 166.019 296.753 166.21 295.96 166.21C294.812 166.21 293.916 165.846 293.272 165.118C292.684 164.437 292.39 163.517 292.39 162.36C292.39 161.044 292.763 160.045 293.51 159.364C294.126 158.795 294.919 158.51 295.89 158.51C297.029 158.51 297.887 158.879 298.466 159.616C299.026 160.325 299.306 161.338 299.306 162.654H293.762C293.818 163.513 294.079 164.152 294.546 164.572C294.929 164.908 295.414 165.076 296.002 165.076C296.459 165.076 296.856 164.95 297.192 164.698C297.472 164.483 297.663 164.217 297.766 163.9ZM295.918 159.588C295.321 159.588 294.84 159.775 294.476 160.148C294.131 160.493 293.911 160.974 293.818 161.59H297.934C297.887 160.89 297.654 160.367 297.234 160.022C296.898 159.733 296.459 159.588 295.918 159.588ZM307.484 166H306.378L306.14 164.978C305.58 165.799 304.772 166.21 303.718 166.21C302.7 166.21 301.898 165.841 301.31 165.104C300.768 164.423 300.498 163.522 300.498 162.402C300.498 161.049 300.843 160.031 301.534 159.35C302.112 158.79 302.868 158.51 303.802 158.51C304.81 158.51 305.589 158.888 306.14 159.644V155.92H307.484V166ZM301.898 162.43C301.898 163.335 302.122 164.021 302.57 164.488C302.943 164.871 303.424 165.062 304.012 165.062C304.74 165.062 305.304 164.787 305.706 164.236C306.042 163.76 306.21 163.163 306.21 162.444C306.21 161.501 305.986 160.783 305.538 160.288C305.155 159.868 304.646 159.658 304.012 159.658C303.302 159.658 302.766 159.915 302.402 160.428C302.066 160.895 301.898 161.562 301.898 162.43Z" fill="white" fill-opacity="0.7"/>
</g>
<defs>
<clipPath id="clip0_2102_36063">
<rect width="11.9967" height="15" fill="white" transform="translate(60 86)"/>
</clipPath>
<clipPath id="clip1_2102_36063">
<rect width="11.9967" height="15" fill="white" transform="translate(372 86)"/>
</clipPath>
<clipPath id="clip2_2102_36063">
<rect width="11.9967" height="15" fill="white" transform="translate(404.998 173) rotate(90)"/>
</clipPath>
<clipPath id="clip3_2102_36063">
<rect width="11.9967" height="15" fill="white" transform="translate(404.998 95) rotate(90)"/>
</clipPath>
<clipPath id="clip4_2102_36063">
<rect width="200" height="21" fill="white" transform="translate(72 151)"/>
</clipPath>
</defs>
</svg>
