<svg width="1150" height="266" viewBox="0 0 1150 266" fill="none" xmlns="http://www.w3.org/2000/svg">
<rect width="1150" height="266" rx="16" fill="#1A1A1A"/>
<path d="M375.98 104.92H377.408V111.752C377.408 112.489 377.66 113.059 378.164 113.46C378.612 113.824 379.214 114.006 379.97 114.006C380.838 114.006 381.501 113.768 381.958 113.292C382.341 112.9 382.532 112.387 382.532 111.752V104.92H383.918V111.626C383.918 112.802 383.507 113.717 382.686 114.37C381.986 114.93 381.076 115.21 379.956 115.21C378.659 115.21 377.646 114.841 376.918 114.104C376.293 113.469 375.98 112.643 375.98 111.626V104.92ZM385.878 107.72H386.984L387.194 108.672C387.792 107.897 388.613 107.51 389.658 107.51C390.704 107.51 391.516 107.883 392.094 108.63C392.608 109.302 392.864 110.193 392.864 111.304C392.864 112.62 392.514 113.628 391.814 114.328C391.226 114.916 390.475 115.21 389.56 115.21C388.524 115.21 387.745 114.827 387.222 114.062V117.52H385.878V107.72ZM391.464 111.276C391.464 110.361 391.236 109.675 390.778 109.218C390.414 108.845 389.938 108.658 389.35 108.658C388.669 108.658 388.128 108.905 387.726 109.4C387.344 109.876 387.152 110.501 387.152 111.276C387.152 112.209 387.381 112.923 387.838 113.418C388.221 113.847 388.725 114.062 389.35 114.062C390.05 114.062 390.582 113.805 390.946 113.292C391.292 112.816 391.464 112.144 391.464 111.276ZM395.754 104.92V115H394.41V104.92H395.754ZM397.298 111.36C397.298 110.025 397.695 109.017 398.488 108.336C399.123 107.785 399.926 107.51 400.896 107.51C402.026 107.51 402.912 107.869 403.556 108.588C404.172 109.26 404.48 110.184 404.48 111.36C404.48 112.676 404.093 113.679 403.318 114.37C402.684 114.93 401.872 115.21 400.882 115.21C399.753 115.21 398.862 114.837 398.208 114.09C397.602 113.409 397.298 112.499 397.298 111.36ZM398.698 111.36C398.698 112.293 398.936 113.007 399.412 113.502C399.804 113.913 400.304 114.118 400.91 114.118C401.62 114.118 402.166 113.852 402.548 113.32C402.903 112.835 403.08 112.181 403.08 111.36C403.08 110.408 402.847 109.689 402.38 109.204C401.998 108.803 401.503 108.602 400.896 108.602C400.196 108.602 399.65 108.868 399.258 109.4C398.885 109.885 398.698 110.539 398.698 111.36ZM407.165 109.75H405.737C405.812 109.022 406.157 108.457 406.773 108.056C407.324 107.692 408.019 107.51 408.859 107.51C409.858 107.51 410.623 107.771 411.155 108.294C411.603 108.742 411.827 109.321 411.827 110.03V115H410.721L410.553 114.006C409.984 114.809 409.172 115.21 408.117 115.21C407.286 115.21 406.638 114.986 406.171 114.538C405.788 114.165 405.597 113.693 405.597 113.124C405.597 112.405 405.844 111.85 406.339 111.458C406.778 111.113 407.45 110.861 408.355 110.702L410.483 110.338V109.974C410.483 109.498 410.32 109.139 409.993 108.896C409.704 108.681 409.307 108.574 408.803 108.574C407.814 108.574 407.268 108.966 407.165 109.75ZM408.439 114.076C409.008 114.076 409.503 113.889 409.923 113.516C410.296 113.171 410.483 112.774 410.483 112.326V111.388L408.677 111.71C408.014 111.822 407.562 111.995 407.319 112.228C407.123 112.415 407.025 112.667 407.025 112.984C407.025 113.339 407.146 113.609 407.389 113.796C407.632 113.983 407.982 114.076 408.439 114.076ZM420.28 115H419.174L418.936 113.978C418.376 114.799 417.569 115.21 416.514 115.21C415.497 115.21 414.694 114.841 414.106 114.104C413.565 113.423 413.294 112.522 413.294 111.402C413.294 110.049 413.64 109.031 414.33 108.35C414.909 107.79 415.665 107.51 416.598 107.51C417.606 107.51 418.386 107.888 418.936 108.644V104.92H420.28V115ZM414.694 111.43C414.694 112.335 414.918 113.021 415.366 113.488C415.74 113.871 416.22 114.062 416.808 114.062C417.536 114.062 418.101 113.787 418.502 113.236C418.838 112.76 419.006 112.163 419.006 111.444C419.006 110.501 418.782 109.783 418.334 109.288C417.952 108.868 417.443 108.658 416.808 108.658C416.099 108.658 415.562 108.915 415.198 109.428C414.862 109.895 414.694 110.562 414.694 111.43ZM423.674 106.502H422.162V104.92H423.674V106.502ZM423.59 115H422.246V107.72H423.59V115ZM426.898 115H425.554V107.72H426.66L426.814 108.644C427.356 107.888 428.093 107.51 429.026 107.51C429.885 107.51 430.543 107.776 431 108.308C431.402 108.784 431.602 109.433 431.602 110.254V115H430.258V110.268C430.258 109.195 429.74 108.658 428.704 108.658C428.163 108.658 427.72 108.845 427.374 109.218C427.057 109.554 426.898 109.983 426.898 110.506V115ZM433.414 115.49H434.856C434.921 115.863 435.108 116.153 435.416 116.358C435.733 116.563 436.148 116.666 436.662 116.666C437.38 116.666 437.917 116.479 438.272 116.106C438.57 115.789 438.72 115.345 438.72 114.776V113.838C438.178 114.473 437.371 114.79 436.298 114.79C435.327 114.79 434.538 114.44 433.932 113.74C433.362 113.087 433.078 112.237 433.078 111.192C433.078 109.979 433.423 109.041 434.114 108.378C434.702 107.799 435.458 107.51 436.382 107.51C437.427 107.51 438.216 107.902 438.748 108.686L438.958 107.72H440.064V114.846C440.064 115.761 439.732 116.479 439.07 117.002C438.472 117.487 437.684 117.73 436.704 117.73C435.686 117.73 434.888 117.501 434.31 117.044C433.824 116.661 433.526 116.143 433.414 115.49ZM434.478 111.22C434.478 112.013 434.711 112.634 435.178 113.082C435.56 113.455 436.032 113.642 436.592 113.642C437.329 113.642 437.894 113.399 438.286 112.914C438.622 112.503 438.79 111.953 438.79 111.262C438.79 110.375 438.561 109.699 438.104 109.232C437.721 108.849 437.217 108.658 436.592 108.658C435.901 108.658 435.369 108.896 434.996 109.372C434.65 109.82 434.478 110.436 434.478 111.22ZM451.98 109.554V110.744H447.724V115H446.296V104.92H452.47V106.124H447.724V109.554H451.98ZM455.502 106.502H453.99V104.92H455.502V106.502ZM455.418 115H454.074V107.72H455.418V115ZM458.726 104.92V115H457.382V104.92H458.726ZM465.647 112.9H467.103C466.898 113.637 466.492 114.216 465.885 114.636C465.316 115.019 464.634 115.21 463.841 115.21C462.693 115.21 461.797 114.846 461.153 114.118C460.565 113.437 460.271 112.517 460.271 111.36C460.271 110.044 460.644 109.045 461.391 108.364C462.007 107.795 462.8 107.51 463.771 107.51C464.91 107.51 465.768 107.879 466.347 108.616C466.907 109.325 467.187 110.338 467.187 111.654H461.643C461.699 112.513 461.96 113.152 462.427 113.572C462.81 113.908 463.295 114.076 463.883 114.076C464.34 114.076 464.737 113.95 465.073 113.698C465.353 113.483 465.544 113.217 465.647 112.9ZM463.799 108.588C463.202 108.588 462.721 108.775 462.357 109.148C462.012 109.493 461.792 109.974 461.699 110.59H465.815C465.768 109.89 465.535 109.367 465.115 109.022C464.779 108.733 464.34 108.588 463.799 108.588ZM473.054 113.026C473.054 112.615 472.84 112.307 472.41 112.102C472.158 111.99 471.668 111.85 470.94 111.682C470.044 111.486 469.405 111.201 469.022 110.828C468.705 110.511 468.546 110.095 468.546 109.582C468.546 108.901 468.822 108.378 469.372 108.014C469.867 107.678 470.534 107.51 471.374 107.51C472.242 107.51 472.947 107.725 473.488 108.154C473.955 108.527 474.244 109.022 474.356 109.638H472.984C472.826 108.929 472.284 108.574 471.36 108.574C470.847 108.574 470.464 108.667 470.212 108.854C470.007 109.013 469.904 109.213 469.904 109.456C469.904 109.755 470.016 109.979 470.24 110.128C470.474 110.277 470.926 110.427 471.598 110.576C472.625 110.8 473.339 111.075 473.74 111.402C474.188 111.766 474.412 112.275 474.412 112.928C474.412 113.656 474.114 114.23 473.516 114.65C472.975 115.023 472.261 115.21 471.374 115.21C470.404 115.21 469.634 114.977 469.064 114.51C468.57 114.099 468.294 113.567 468.238 112.914H469.61C469.76 113.735 470.352 114.146 471.388 114.146C471.948 114.146 472.382 114.025 472.69 113.782C472.933 113.586 473.054 113.334 473.054 113.026Z" fill="white" fill-opacity="0.95"/>
<path d="M748.693 107.762H747.279C747.391 106.894 747.793 106.203 748.483 105.69C749.099 105.223 749.846 104.99 750.723 104.99C751.722 104.99 752.52 105.27 753.117 105.83C753.649 106.343 753.915 106.992 753.915 107.776C753.915 108.467 753.719 109.106 753.327 109.694C753.01 110.189 752.427 110.837 751.577 111.64L749.337 113.768H753.873V115H747.517V113.768L750.709 110.702C751.419 110.021 751.899 109.479 752.151 109.078C752.413 108.667 752.543 108.238 752.543 107.79C752.543 107.249 752.357 106.829 751.983 106.53C751.657 106.259 751.227 106.124 750.695 106.124C750.098 106.124 749.617 106.287 749.253 106.614C748.936 106.903 748.749 107.286 748.693 107.762ZM755.548 112.62H756.976C757.079 113.077 757.321 113.437 757.704 113.698C758.068 113.95 758.516 114.076 759.048 114.076C759.711 114.076 760.243 113.847 760.644 113.39C760.999 112.979 761.176 112.438 761.176 111.766C761.176 111.01 760.957 110.436 760.518 110.044C760.154 109.708 759.673 109.54 759.076 109.54C758.273 109.54 757.62 109.839 757.116 110.436H755.926L756.136 105.2H762.156V106.334H757.354L757.242 109.204C757.839 108.728 758.553 108.49 759.384 108.49C760.355 108.49 761.134 108.807 761.722 109.442C762.282 110.049 762.562 110.842 762.562 111.822C762.562 112.839 762.212 113.67 761.512 114.314C760.868 114.911 760.042 115.21 759.034 115.21C758.017 115.21 757.172 114.911 756.5 114.314C755.977 113.847 755.66 113.283 755.548 112.62ZM768.493 107.356C768.493 108.149 768.217 108.765 767.667 109.204C767.228 109.549 766.705 109.722 766.099 109.722C765.389 109.722 764.811 109.498 764.363 109.05C763.933 108.621 763.719 108.056 763.719 107.356C763.719 106.553 763.994 105.937 764.545 105.508C764.974 105.163 765.492 104.99 766.099 104.99C766.808 104.99 767.387 105.214 767.835 105.662C768.273 106.091 768.493 106.656 768.493 107.356ZM764.853 107.356C764.853 107.86 764.988 108.233 765.259 108.476C765.473 108.653 765.753 108.742 766.099 108.742C766.5 108.742 766.813 108.621 767.037 108.378C767.261 108.145 767.373 107.804 767.373 107.356C767.373 106.852 767.228 106.479 766.939 106.236C766.724 106.059 766.444 105.97 766.099 105.97C765.697 105.97 765.389 106.091 765.175 106.334C764.96 106.567 764.853 106.908 764.853 107.356ZM772.413 105.2L767.065 115H765.721L771.069 105.2H772.413ZM774.513 112.844C774.513 113.637 774.237 114.253 773.687 114.692C773.248 115.037 772.725 115.21 772.119 115.21C771.409 115.21 770.831 114.986 770.383 114.538C769.953 114.109 769.739 113.544 769.739 112.844C769.739 112.041 770.014 111.425 770.565 110.996C770.994 110.651 771.512 110.478 772.119 110.478C772.828 110.478 773.407 110.702 773.855 111.15C774.293 111.579 774.513 112.144 774.513 112.844ZM770.873 112.844C770.873 113.348 771.008 113.721 771.279 113.964C771.493 114.141 771.773 114.23 772.119 114.23C772.52 114.23 772.833 114.109 773.057 113.866C773.281 113.633 773.393 113.292 773.393 112.844C773.393 112.34 773.248 111.967 772.959 111.724C772.744 111.547 772.464 111.458 772.119 111.458C771.717 111.458 771.409 111.579 771.195 111.822C770.98 112.055 770.873 112.396 770.873 112.844Z" fill="white" fill-opacity="0.95"/>
<rect x="375" y="129" width="400" height="8" rx="4" fill="#3B3B3B"/>
<rect x="375" y="129" width="100" height="8" rx="4" fill="#3492EB"/>
<path d="M377.254 152.762H375.84C375.952 151.894 376.353 151.203 377.044 150.69C377.66 150.223 378.407 149.99 379.284 149.99C380.283 149.99 381.081 150.27 381.678 150.83C382.21 151.343 382.476 151.992 382.476 152.776C382.476 153.467 382.28 154.106 381.888 154.694C381.571 155.189 380.987 155.837 380.138 156.64L377.898 158.768H382.434V160H376.078V158.768L379.27 155.702C379.979 155.021 380.46 154.479 380.712 154.078C380.973 153.667 381.104 153.238 381.104 152.79C381.104 152.249 380.917 151.829 380.544 151.53C380.217 151.259 379.788 151.124 379.256 151.124C378.659 151.124 378.178 151.287 377.814 151.614C377.497 151.903 377.31 152.286 377.254 152.762ZM384.109 157.62H385.537C385.639 158.077 385.882 158.437 386.265 158.698C386.629 158.95 387.077 159.076 387.609 159.076C388.271 159.076 388.803 158.847 389.205 158.39C389.559 157.979 389.737 157.438 389.737 156.766C389.737 156.01 389.517 155.436 389.079 155.044C388.715 154.708 388.234 154.54 387.637 154.54C386.834 154.54 386.181 154.839 385.677 155.436H384.487L384.697 150.2H390.717V151.334H385.915L385.803 154.204C386.4 153.728 387.114 153.49 387.945 153.49C388.915 153.49 389.695 153.807 390.283 154.442C390.843 155.049 391.123 155.842 391.123 156.822C391.123 157.839 390.773 158.67 390.073 159.314C389.429 159.911 388.603 160.21 387.595 160.21C386.577 160.21 385.733 159.911 385.061 159.314C384.538 158.847 384.221 158.283 384.109 157.62ZM394.113 160H392.769V152.72H393.875L394.015 153.574C394.51 152.865 395.224 152.51 396.157 152.51C397.174 152.51 397.888 152.893 398.299 153.658C398.784 152.893 399.573 152.51 400.665 152.51C401.477 152.51 402.102 152.757 402.541 153.252C402.933 153.709 403.129 154.335 403.129 155.128V160H401.785V155.226C401.785 154.181 401.314 153.658 400.371 153.658C399.811 153.658 399.363 153.877 399.027 154.316C398.756 154.671 398.621 155.086 398.621 155.562V160H397.277V155.226C397.277 154.181 396.806 153.658 395.863 153.658C395.34 153.658 394.906 153.863 394.561 154.274C394.262 154.619 394.113 155.035 394.113 155.52V160ZM406.125 160H405.019V149.92H406.363V153.728C406.932 152.916 407.744 152.51 408.799 152.51C409.844 152.51 410.656 152.883 411.235 153.63C411.748 154.302 412.005 155.193 412.005 156.304C412.005 157.62 411.655 158.628 410.955 159.328C410.367 159.916 409.616 160.21 408.701 160.21C407.665 160.21 406.876 159.818 406.335 159.034L406.125 160ZM410.605 156.276C410.605 155.361 410.376 154.675 409.919 154.218C409.555 153.845 409.079 153.658 408.491 153.658C407.81 153.658 407.268 153.905 406.867 154.4C406.484 154.876 406.293 155.501 406.293 156.276C406.293 157.209 406.522 157.923 406.979 158.418C407.362 158.847 407.866 159.062 408.491 159.062C409.191 159.062 409.723 158.805 410.087 158.292C410.432 157.816 410.605 157.144 410.605 156.276ZM417.328 156.36C417.328 155.025 417.724 154.017 418.518 153.336C419.152 152.785 419.955 152.51 420.926 152.51C422.055 152.51 422.942 152.869 423.586 153.588C424.202 154.26 424.51 155.184 424.51 156.36C424.51 157.676 424.122 158.679 423.348 159.37C422.713 159.93 421.901 160.21 420.912 160.21C419.782 160.21 418.891 159.837 418.238 159.09C417.631 158.409 417.328 157.499 417.328 156.36ZM418.728 156.36C418.728 157.293 418.966 158.007 419.442 158.502C419.834 158.913 420.333 159.118 420.94 159.118C421.649 159.118 422.195 158.852 422.578 158.32C422.932 157.835 423.11 157.181 423.11 156.36C423.11 155.408 422.876 154.689 422.41 154.204C422.027 153.803 421.532 153.602 420.926 153.602C420.226 153.602 419.68 153.868 419.288 154.4C418.914 154.885 418.728 155.539 418.728 156.36ZM425.976 152.72H427.32V157.494C427.32 158.539 427.824 159.062 428.832 159.062C429.448 159.062 429.92 158.843 430.246 158.404C430.498 158.068 430.624 157.653 430.624 157.158V152.72H431.968V160H430.862L430.708 159.16C430.195 159.86 429.467 160.21 428.524 160.21C427.694 160.21 427.054 159.953 426.606 159.44C426.186 158.964 425.976 158.306 425.976 157.466V152.72ZM437.183 158.922V160.07C436.838 160.163 436.506 160.21 436.189 160.21C435.517 160.21 435.013 160 434.677 159.58C434.388 159.235 434.243 158.773 434.243 158.194V153.868H433.165V152.72H434.243L434.327 150.97H435.587V152.72H437.155V153.868H435.587V158.222C435.587 158.763 435.844 159.034 436.357 159.034C436.6 159.034 436.875 158.997 437.183 158.922ZM442.224 156.36C442.224 155.025 442.621 154.017 443.414 153.336C444.049 152.785 444.851 152.51 445.822 152.51C446.951 152.51 447.838 152.869 448.482 153.588C449.098 154.26 449.406 155.184 449.406 156.36C449.406 157.676 449.019 158.679 448.244 159.37C447.609 159.93 446.797 160.21 445.808 160.21C444.679 160.21 443.787 159.837 443.134 159.09C442.527 158.409 442.224 157.499 442.224 156.36ZM443.624 156.36C443.624 157.293 443.862 158.007 444.338 158.502C444.73 158.913 445.229 159.118 445.836 159.118C446.545 159.118 447.091 158.852 447.474 158.32C447.829 157.835 448.006 157.181 448.006 156.36C448.006 155.408 447.773 154.689 447.306 154.204C446.923 153.803 446.429 153.602 445.822 153.602C445.122 153.602 444.576 153.868 444.184 154.4C443.811 154.885 443.624 155.539 443.624 156.36ZM454.541 149.878V151.04C454.093 150.928 453.724 150.872 453.435 150.872C453.192 150.872 453.001 150.937 452.861 151.068C452.73 151.199 452.665 151.381 452.665 151.614V152.72H454.233V153.868H452.665V160H451.321V153.868H450.243V152.72H451.321V151.698C451.321 151.054 451.531 150.55 451.951 150.186C452.324 149.869 452.791 149.71 453.351 149.71C453.715 149.71 454.112 149.766 454.541 149.878ZM464.062 160H462.732V151.6L460.534 152.734V151.348L462.746 150.2H464.062V160ZM471.266 159.09C472.032 159.09 472.587 158.717 472.932 157.97C473.24 157.317 473.394 156.351 473.394 155.072C473.394 153.625 473.194 152.58 472.792 151.936C472.447 151.385 471.938 151.11 471.266 151.11C470.501 151.11 469.946 151.474 469.6 152.202C469.292 152.846 469.138 153.803 469.138 155.072C469.138 156.528 469.339 157.583 469.74 158.236C470.086 158.805 470.594 159.09 471.266 159.09ZM471.266 160.21C470.146 160.21 469.274 159.734 468.648 158.782C468.06 157.886 467.766 156.649 467.766 155.072C467.766 153.243 468.144 151.889 468.9 151.012C469.498 150.331 470.286 149.99 471.266 149.99C472.396 149.99 473.268 150.443 473.884 151.348C474.472 152.225 474.766 153.467 474.766 155.072C474.766 156.873 474.388 158.222 473.632 159.118C473.026 159.846 472.237 160.21 471.266 160.21ZM479.661 159.09C480.426 159.09 480.982 158.717 481.327 157.97C481.635 157.317 481.789 156.351 481.789 155.072C481.789 153.625 481.588 152.58 481.187 151.936C480.842 151.385 480.333 151.11 479.661 151.11C478.896 151.11 478.34 151.474 477.995 152.202C477.687 152.846 477.533 153.803 477.533 155.072C477.533 156.528 477.734 157.583 478.135 158.236C478.48 158.805 478.989 159.09 479.661 159.09ZM479.661 160.21C478.541 160.21 477.668 159.734 477.043 158.782C476.455 157.886 476.161 156.649 476.161 155.072C476.161 153.243 476.539 151.889 477.295 151.012C477.892 150.331 478.681 149.99 479.661 149.99C480.79 149.99 481.663 150.443 482.279 151.348C482.867 152.225 483.161 153.467 483.161 155.072C483.161 156.873 482.783 158.222 482.027 159.118C481.42 159.846 480.632 160.21 479.661 160.21ZM486.179 160H484.835V152.72H485.941L486.081 153.574C486.576 152.865 487.29 152.51 488.223 152.51C489.241 152.51 489.955 152.893 490.365 153.658C490.851 152.893 491.639 152.51 492.731 152.51C493.543 152.51 494.169 152.757 494.607 153.252C494.999 153.709 495.195 154.335 495.195 155.128V160H493.851V155.226C493.851 154.181 493.38 153.658 492.437 153.658C491.877 153.658 491.429 153.877 491.093 154.316C490.823 154.671 490.687 155.086 490.687 155.562V160H489.343V155.226C489.343 154.181 488.872 153.658 487.929 153.658C487.407 153.658 486.973 153.863 486.627 154.274C486.329 154.619 486.179 155.035 486.179 155.52V160ZM498.191 160H497.085V149.92H498.429V153.728C498.999 152.916 499.811 152.51 500.865 152.51C501.911 152.51 502.723 152.883 503.301 153.63C503.815 154.302 504.071 155.193 504.071 156.304C504.071 157.62 503.721 158.628 503.021 159.328C502.433 159.916 501.682 160.21 500.767 160.21C499.731 160.21 498.943 159.818 498.401 159.034L498.191 160ZM502.671 156.276C502.671 155.361 502.443 154.675 501.985 154.218C501.621 153.845 501.145 153.658 500.557 153.658C499.876 153.658 499.335 153.905 498.933 154.4C498.551 154.876 498.359 155.501 498.359 156.276C498.359 157.209 498.588 157.923 499.045 158.418C499.428 158.847 499.932 159.062 500.557 159.062C501.257 159.062 501.789 158.805 502.153 158.292C502.499 157.816 502.671 157.144 502.671 156.276Z" fill="white" fill-opacity="0.7"/>
</svg>
