<svg width="559" height="186" viewBox="0 0 559 186" fill="none" xmlns="http://www.w3.org/2000/svg">
<rect width="559" height="186" rx="16" fill="#1A1A1A"/>
<rect opacity="0.5" x="406.916" y="81" width="8" height="300.029" transform="rotate(90 406.916 81)" fill="#30C9B0" fill-opacity="0.5"/>
<g clip-path="url(#clip0_2102_36114)">
<line x1="413.113" y1="81.5" x2="428.113" y2="81.5" stroke="#3CC29A"/>
<line x1="420.613" y1="81" x2="420.613" y2="89" stroke="#3CC29A"/>
<line x1="413.113" y1="88.5" x2="428.113" y2="88.5" stroke="#3CC29A"/>
</g>
<path d="M443.162 82.3384C443.162 82.6392 443.112 82.9194 443.011 83.1792C442.916 83.439 442.779 83.6714 442.601 83.8765C442.492 84.0086 442.367 84.1317 442.225 84.2456C442.084 84.3595 441.927 84.4598 441.754 84.5464C441.959 84.6421 442.148 84.7537 442.321 84.8813C442.499 85.0044 442.654 85.1479 442.786 85.312C442.973 85.5308 443.119 85.7791 443.223 86.0571C443.328 86.3351 443.381 86.6359 443.381 86.9595C443.381 87.4198 443.296 87.8276 443.128 88.1831C442.959 88.5386 442.729 88.8348 442.437 89.0718C442.141 89.3133 441.795 89.4956 441.398 89.6187C441.006 89.7417 440.582 89.8032 440.127 89.8032C439.662 89.8032 439.229 89.7417 438.828 89.6187C438.431 89.4956 438.087 89.3133 437.796 89.0718C437.499 88.8348 437.267 88.5409 437.098 88.1899C436.934 87.8345 436.852 87.4243 436.852 86.9595C436.852 86.686 436.889 86.4263 436.962 86.1802C437.039 85.9341 437.148 85.7062 437.29 85.4966C437.431 85.2961 437.6 85.116 437.796 84.9565C437.996 84.7925 438.219 84.6535 438.466 84.5396C438.256 84.4347 438.064 84.3071 437.891 84.1567C437.723 84.0063 437.579 83.84 437.461 83.6577C437.338 83.4709 437.242 83.2658 437.174 83.0425C437.105 82.8192 437.071 82.5845 437.071 82.3384C437.071 81.8963 437.146 81.5044 437.297 81.1626C437.452 80.8208 437.663 80.5314 437.932 80.2944C438.197 80.0575 438.513 79.8797 438.883 79.7612C439.256 79.6382 439.664 79.5767 440.106 79.5767C440.544 79.5767 440.947 79.6382 441.316 79.7612C441.69 79.8797 442.016 80.0575 442.294 80.2944C442.563 80.5269 442.774 80.8162 442.929 81.1626C443.084 81.5044 443.162 81.8963 443.162 82.3384ZM441.747 86.8706C441.747 86.6245 441.706 86.4012 441.624 86.2007C441.546 85.9956 441.437 85.8179 441.296 85.6675C441.15 85.5262 440.977 85.4168 440.776 85.3394C440.576 85.2619 440.355 85.2231 440.113 85.2231C439.862 85.2231 439.637 85.2619 439.436 85.3394C439.24 85.4168 439.072 85.5262 438.93 85.6675C438.789 85.8179 438.68 85.9956 438.602 86.2007C438.529 86.4012 438.493 86.6268 438.493 86.8774C438.493 87.1326 438.532 87.3628 438.609 87.5679C438.687 87.7684 438.798 87.937 438.944 88.0737C439.085 88.2059 439.254 88.3084 439.45 88.3813C439.65 88.4497 439.876 88.4839 440.127 88.4839C440.364 88.4839 440.58 88.4474 440.776 88.3745C440.977 88.3016 441.15 88.1968 441.296 88.0601C441.432 87.9188 441.542 87.7502 441.624 87.5542C441.706 87.3537 441.747 87.1258 441.747 86.8706ZM441.535 82.3999C441.535 82.1766 441.498 81.9738 441.425 81.7915C441.357 81.6092 441.261 81.4497 441.138 81.313C441.011 81.1854 440.86 81.0851 440.687 81.0122C440.514 80.9393 440.318 80.9028 440.099 80.9028C439.885 80.9028 439.691 80.9393 439.518 81.0122C439.35 81.0806 439.204 81.1785 439.081 81.3062C438.962 81.4338 438.871 81.591 438.807 81.7778C438.744 81.9647 438.712 82.172 438.712 82.3999C438.712 82.6232 438.744 82.8283 438.807 83.0151C438.871 83.1974 438.967 83.3524 439.094 83.48C439.217 83.6121 439.366 83.7147 439.539 83.7876C439.712 83.8605 439.906 83.897 440.12 83.897C440.334 83.897 440.528 83.8605 440.701 83.7876C440.874 83.7147 441.022 83.6121 441.145 83.48C441.268 83.3524 441.364 83.1974 441.432 83.0151C441.501 82.8283 441.535 82.6232 441.535 82.3999Z" fill="#3CC29A"/>
<rect opacity="0.5" x="406.916" y="98" width="8" height="300.029" transform="rotate(90 406.916 98)" fill="#30C9B0" fill-opacity="0.5"/>
<g clip-path="url(#clip1_2102_36114)">
<line x1="413.113" y1="98.5" x2="428.113" y2="98.5" stroke="#3CC29A"/>
<line x1="420.613" y1="98" x2="420.613" y2="106" stroke="#3CC29A"/>
<line x1="413.113" y1="105.5" x2="428.113" y2="105.5" stroke="#3CC29A"/>
</g>
<path d="M443.162 99.3384C443.162 99.6392 443.112 99.9194 443.011 100.179C442.916 100.439 442.779 100.671 442.601 100.876C442.492 101.009 442.367 101.132 442.225 101.246C442.084 101.36 441.927 101.46 441.754 101.546C441.959 101.642 442.148 101.754 442.321 101.881C442.499 102.004 442.654 102.148 442.786 102.312C442.973 102.531 443.119 102.779 443.223 103.057C443.328 103.335 443.381 103.636 443.381 103.959C443.381 104.42 443.296 104.828 443.128 105.183C442.959 105.539 442.729 105.835 442.437 106.072C442.141 106.313 441.795 106.496 441.398 106.619C441.006 106.742 440.582 106.803 440.127 106.803C439.662 106.803 439.229 106.742 438.828 106.619C438.431 106.496 438.087 106.313 437.796 106.072C437.499 105.835 437.267 105.541 437.098 105.19C436.934 104.834 436.852 104.424 436.852 103.959C436.852 103.686 436.889 103.426 436.962 103.18C437.039 102.934 437.148 102.706 437.29 102.497C437.431 102.296 437.6 102.116 437.796 101.957C437.996 101.792 438.219 101.653 438.466 101.54C438.256 101.435 438.064 101.307 437.891 101.157C437.723 101.006 437.579 100.84 437.461 100.658C437.338 100.471 437.242 100.266 437.174 100.042C437.105 99.8192 437.071 99.5845 437.071 99.3384C437.071 98.8963 437.146 98.5044 437.297 98.1626C437.452 97.8208 437.663 97.5314 437.932 97.2944C438.197 97.0575 438.513 96.8797 438.883 96.7612C439.256 96.6382 439.664 96.5767 440.106 96.5767C440.544 96.5767 440.947 96.6382 441.316 96.7612C441.69 96.8797 442.016 97.0575 442.294 97.2944C442.563 97.5269 442.774 97.8162 442.929 98.1626C443.084 98.5044 443.162 98.8963 443.162 99.3384ZM441.747 103.871C441.747 103.625 441.706 103.401 441.624 103.201C441.546 102.996 441.437 102.818 441.296 102.667C441.15 102.526 440.977 102.417 440.776 102.339C440.576 102.262 440.355 102.223 440.113 102.223C439.862 102.223 439.637 102.262 439.436 102.339C439.24 102.417 439.072 102.526 438.93 102.667C438.789 102.818 438.68 102.996 438.602 103.201C438.529 103.401 438.493 103.627 438.493 103.877C438.493 104.133 438.532 104.363 438.609 104.568C438.687 104.768 438.798 104.937 438.944 105.074C439.085 105.206 439.254 105.308 439.45 105.381C439.65 105.45 439.876 105.484 440.127 105.484C440.364 105.484 440.58 105.447 440.776 105.375C440.977 105.302 441.15 105.197 441.296 105.06C441.432 104.919 441.542 104.75 441.624 104.554C441.706 104.354 441.747 104.126 441.747 103.871ZM441.535 99.3999C441.535 99.1766 441.498 98.9738 441.425 98.7915C441.357 98.6092 441.261 98.4497 441.138 98.313C441.011 98.1854 440.86 98.0851 440.687 98.0122C440.514 97.9393 440.318 97.9028 440.099 97.9028C439.885 97.9028 439.691 97.9393 439.518 98.0122C439.35 98.0806 439.204 98.1785 439.081 98.3062C438.962 98.4338 438.871 98.591 438.807 98.7778C438.744 98.9647 438.712 99.172 438.712 99.3999C438.712 99.6232 438.744 99.8283 438.807 100.015C438.871 100.197 438.967 100.352 439.094 100.48C439.217 100.612 439.366 100.715 439.539 100.788C439.712 100.861 439.906 100.897 440.12 100.897C440.334 100.897 440.528 100.861 440.701 100.788C440.874 100.715 441.022 100.612 441.145 100.48C441.268 100.352 441.364 100.197 441.432 100.015C441.501 99.8283 441.535 99.6232 441.535 99.3999Z" fill="#3CC29A"/>
<path d="M107.867 64.92H109.295V71.752C109.295 72.4893 109.547 73.0587 110.051 73.46C110.499 73.824 111.101 74.006 111.857 74.006C112.725 74.006 113.388 73.768 113.845 73.292C114.228 72.9 114.419 72.3867 114.419 71.752V64.92H115.805V71.626C115.805 72.802 115.395 73.7167 114.573 74.37C113.873 74.93 112.963 75.21 111.843 75.21C110.546 75.21 109.533 74.8413 108.805 74.104C108.18 73.4693 107.867 72.6433 107.867 71.626V64.92ZM117.766 67.72H118.872L119.082 68.672C119.679 67.8973 120.5 67.51 121.546 67.51C122.591 67.51 123.403 67.8833 123.982 68.63C124.495 69.302 124.752 70.1933 124.752 71.304C124.752 72.62 124.402 73.628 123.702 74.328C123.114 74.916 122.362 75.21 121.448 75.21C120.412 75.21 119.632 74.8273 119.11 74.062V77.52H117.766V67.72ZM123.352 71.276C123.352 70.3613 123.123 69.6753 122.666 69.218C122.302 68.8447 121.826 68.658 121.238 68.658C120.556 68.658 120.015 68.9053 119.614 69.4C119.231 69.876 119.04 70.5013 119.04 71.276C119.04 72.2093 119.268 72.9233 119.726 73.418C120.108 73.8473 120.612 74.062 121.238 74.062C121.938 74.062 122.47 73.8053 122.834 73.292C123.179 72.816 123.352 72.144 123.352 71.276ZM127.641 64.92V75H126.297V64.92H127.641ZM129.186 71.36C129.186 70.0253 129.582 69.0173 130.376 68.336C131.01 67.7853 131.813 67.51 132.784 67.51C133.913 67.51 134.8 67.8693 135.444 68.588C136.06 69.26 136.368 70.184 136.368 71.36C136.368 72.676 135.98 73.6793 135.206 74.37C134.571 74.93 133.759 75.21 132.77 75.21C131.64 75.21 130.749 74.8367 130.096 74.09C129.489 73.4087 129.186 72.4987 129.186 71.36ZM130.586 71.36C130.586 72.2933 130.824 73.0073 131.3 73.502C131.692 73.9127 132.191 74.118 132.798 74.118C133.507 74.118 134.053 73.852 134.436 73.32C134.79 72.8347 134.968 72.1813 134.968 71.36C134.968 70.408 134.734 69.6893 134.268 69.204C133.885 68.8027 133.39 68.602 132.784 68.602C132.084 68.602 131.538 68.868 131.146 69.4C130.772 69.8853 130.586 70.5387 130.586 71.36ZM139.052 69.75H137.624C137.699 69.022 138.044 68.4573 138.66 68.056C139.211 67.692 139.906 67.51 140.746 67.51C141.745 67.51 142.51 67.7713 143.042 68.294C143.49 68.742 143.714 69.3207 143.714 70.03V75H142.608L142.44 74.006C141.871 74.8087 141.059 75.21 140.004 75.21C139.174 75.21 138.525 74.986 138.058 74.538C137.676 74.1647 137.484 73.6933 137.484 73.124C137.484 72.4053 137.732 71.85 138.226 71.458C138.665 71.1127 139.337 70.8607 140.242 70.702L142.37 70.338V69.974C142.37 69.498 142.207 69.1387 141.88 68.896C141.591 68.6813 141.194 68.574 140.69 68.574C139.701 68.574 139.155 68.966 139.052 69.75ZM140.326 74.076C140.896 74.076 141.39 73.8893 141.81 73.516C142.184 73.1707 142.37 72.774 142.37 72.326V71.388L140.564 71.71C139.902 71.822 139.449 71.9947 139.206 72.228C139.01 72.4147 138.912 72.6667 138.912 72.984C138.912 73.3387 139.034 73.6093 139.276 73.796C139.519 73.9827 139.869 74.076 140.326 74.076ZM152.168 75H151.062L150.824 73.978C150.264 74.7993 149.456 75.21 148.402 75.21C147.384 75.21 146.582 74.8413 145.994 74.104C145.452 73.4227 145.182 72.522 145.182 71.402C145.182 70.0487 145.527 69.0313 146.218 68.35C146.796 67.79 147.552 67.51 148.486 67.51C149.494 67.51 150.273 67.888 150.824 68.644V64.92H152.168V75ZM146.582 71.43C146.582 72.3353 146.806 73.0213 147.254 73.488C147.627 73.8707 148.108 74.062 148.696 74.062C149.424 74.062 149.988 73.7867 150.39 73.236C150.726 72.76 150.894 72.1627 150.894 71.444C150.894 70.5013 150.67 69.7827 150.222 69.288C149.839 68.868 149.33 68.658 148.696 68.658C147.986 68.658 147.45 68.9147 147.086 69.428C146.75 69.8947 146.582 70.562 146.582 71.43ZM155.561 66.502H154.049V64.92H155.561V66.502ZM155.477 75H154.133V67.72H155.477V75ZM158.786 75H157.442V67.72H158.548L158.702 68.644C159.243 67.888 159.98 67.51 160.914 67.51C161.772 67.51 162.43 67.776 162.888 68.308C163.289 68.784 163.49 69.4327 163.49 70.254V75H162.146V70.268C162.146 69.1947 161.628 68.658 160.592 68.658C160.05 68.658 159.607 68.8447 159.262 69.218C158.944 69.554 158.786 69.9833 158.786 70.506V75ZM165.301 75.49H166.743C166.808 75.8633 166.995 76.1527 167.303 76.358C167.62 76.5633 168.036 76.666 168.549 76.666C169.268 76.666 169.804 76.4793 170.159 76.106C170.458 75.7887 170.607 75.3453 170.607 74.776V73.838C170.066 74.4727 169.258 74.79 168.185 74.79C167.214 74.79 166.426 74.44 165.819 73.74C165.25 73.0867 164.965 72.2373 164.965 71.192C164.965 69.9787 165.31 69.0407 166.001 68.378C166.589 67.7993 167.345 67.51 168.269 67.51C169.314 67.51 170.103 67.902 170.635 68.686L170.845 67.72H171.951V74.846C171.951 75.7607 171.62 76.4793 170.957 77.002C170.36 77.4873 169.571 77.73 168.591 77.73C167.574 77.73 166.776 77.5013 166.197 77.044C165.712 76.6613 165.413 76.1433 165.301 75.49ZM166.365 71.22C166.365 72.0133 166.598 72.634 167.065 73.082C167.448 73.4553 167.919 73.642 168.479 73.642C169.216 73.642 169.781 73.3993 170.173 72.914C170.509 72.5033 170.677 71.9527 170.677 71.262C170.677 70.3753 170.448 69.6987 169.991 69.232C169.608 68.8493 169.104 68.658 168.479 68.658C167.788 68.658 167.256 68.896 166.883 69.372C166.538 69.82 166.365 70.436 166.365 71.22Z" fill="white" fill-opacity="0.95"/>
<path d="M385.607 66.404L381.603 75H380.077L384.179 66.404H379.377V65.2H385.607V66.404ZM387.435 72.62H388.863C388.966 73.0773 389.209 73.4367 389.591 73.698C389.955 73.95 390.403 74.076 390.935 74.076C391.598 74.076 392.13 73.8473 392.531 73.39C392.886 72.9793 393.063 72.438 393.063 71.766C393.063 71.01 392.844 70.436 392.405 70.044C392.041 69.708 391.561 69.54 390.963 69.54C390.161 69.54 389.507 69.8387 389.003 70.436H387.813L388.023 65.2H394.043V66.334H389.241L389.129 69.204C389.727 68.728 390.441 68.49 391.271 68.49C392.242 68.49 393.021 68.8073 393.609 69.442C394.169 70.0487 394.449 70.842 394.449 71.822C394.449 72.8393 394.099 73.67 393.399 74.314C392.755 74.9113 391.929 75.21 390.921 75.21C389.904 75.21 389.059 74.9113 388.387 74.314C387.865 73.8473 387.547 73.2827 387.435 72.62ZM400.38 67.356C400.38 68.1493 400.105 68.7653 399.554 69.204C399.115 69.5493 398.593 69.722 397.986 69.722C397.277 69.722 396.698 69.498 396.25 69.05C395.821 68.6207 395.606 68.056 395.606 67.356C395.606 66.5533 395.881 65.9373 396.432 65.508C396.861 65.1627 397.379 64.99 397.986 64.99C398.695 64.99 399.274 65.214 399.722 65.662C400.161 66.0913 400.38 66.656 400.38 67.356ZM396.74 67.356C396.74 67.86 396.875 68.2333 397.146 68.476C397.361 68.6533 397.641 68.742 397.986 68.742C398.387 68.742 398.7 68.6207 398.924 68.378C399.148 68.1447 399.26 67.804 399.26 67.356C399.26 66.852 399.115 66.4787 398.826 66.236C398.611 66.0587 398.331 65.97 397.986 65.97C397.585 65.97 397.277 66.0913 397.062 66.334C396.847 66.5673 396.74 66.908 396.74 67.356ZM404.3 65.2L398.952 75H397.608L402.956 65.2H404.3ZM406.4 72.844C406.4 73.6373 406.125 74.2533 405.574 74.692C405.135 75.0373 404.613 75.21 404.006 75.21C403.297 75.21 402.718 74.986 402.27 74.538C401.841 74.1087 401.626 73.544 401.626 72.844C401.626 72.0413 401.901 71.4253 402.452 70.996C402.881 70.6507 403.399 70.478 404.006 70.478C404.715 70.478 405.294 70.702 405.742 71.15C406.181 71.5793 406.4 72.144 406.4 72.844ZM402.76 72.844C402.76 73.348 402.895 73.7213 403.166 73.964C403.381 74.1413 403.661 74.23 404.006 74.23C404.407 74.23 404.72 74.1087 404.944 73.866C405.168 73.6327 405.28 73.292 405.28 72.844C405.28 72.34 405.135 71.9667 404.846 71.724C404.631 71.5467 404.351 71.458 404.006 71.458C403.605 71.458 403.297 71.5793 403.082 71.822C402.867 72.0553 402.76 72.396 402.76 72.844Z" fill="white" fill-opacity="0.95"/>
<rect x="106.887" y="89" width="300" height="8" rx="4" fill="#3B3B3B"/>
<rect x="106.887" y="89" width="225" height="8" rx="4" fill="#3492EB"/>
<g clip-path="url(#clip2_2102_36114)">
<path d="M116.771 120H115.189L114.195 117.452H109.393L108.385 120H106.887L111.031 109.92H112.641L116.771 120ZM111.815 111.348L109.855 116.29H113.733L111.815 111.348ZM122.428 112.72H123.828L121.266 120H119.446L116.912 112.72H118.382L120.398 118.908L122.428 112.72ZM129.626 117.9H131.082C130.877 118.637 130.471 119.216 129.864 119.636C129.295 120.019 128.613 120.21 127.82 120.21C126.672 120.21 125.776 119.846 125.132 119.118C124.544 118.437 124.25 117.517 124.25 116.36C124.25 115.044 124.623 114.045 125.37 113.364C125.986 112.795 126.779 112.51 127.75 112.51C128.889 112.51 129.747 112.879 130.326 113.616C130.886 114.325 131.166 115.338 131.166 116.654H125.622C125.678 117.513 125.939 118.152 126.406 118.572C126.789 118.908 127.274 119.076 127.862 119.076C128.319 119.076 128.716 118.95 129.052 118.698C129.332 118.483 129.523 118.217 129.626 117.9ZM127.778 113.588C127.181 113.588 126.7 113.775 126.336 114.148C125.991 114.493 125.771 114.974 125.678 115.59H129.794C129.747 114.89 129.514 114.367 129.094 114.022C128.758 113.733 128.319 113.588 127.778 113.588ZM134.122 120H132.778V112.72H133.884L134.066 113.798C134.476 112.939 135.092 112.51 135.914 112.51C136.184 112.51 136.45 112.543 136.712 112.608V113.952C136.394 113.868 136.11 113.826 135.858 113.826C135.316 113.826 134.892 114.045 134.584 114.484C134.276 114.923 134.122 115.543 134.122 116.346V120ZM138.916 114.75H137.488C137.562 114.022 137.908 113.457 138.524 113.056C139.074 112.692 139.77 112.51 140.61 112.51C141.608 112.51 142.374 112.771 142.906 113.294C143.354 113.742 143.578 114.321 143.578 115.03V120H142.472L142.304 119.006C141.734 119.809 140.922 120.21 139.868 120.21C139.037 120.21 138.388 119.986 137.922 119.538C137.539 119.165 137.348 118.693 137.348 118.124C137.348 117.405 137.595 116.85 138.09 116.458C138.528 116.113 139.2 115.861 140.106 115.702L142.234 115.338V114.974C142.234 114.498 142.07 114.139 141.744 113.896C141.454 113.681 141.058 113.574 140.554 113.574C139.564 113.574 139.018 113.966 138.916 114.75ZM140.19 119.076C140.759 119.076 141.254 118.889 141.674 118.516C142.047 118.171 142.234 117.774 142.234 117.326V116.388L140.428 116.71C139.765 116.822 139.312 116.995 139.07 117.228C138.874 117.415 138.776 117.667 138.776 117.984C138.776 118.339 138.897 118.609 139.14 118.796C139.382 118.983 139.732 119.076 140.19 119.076ZM145.381 120.49H146.823C146.888 120.863 147.075 121.153 147.383 121.358C147.7 121.563 148.116 121.666 148.629 121.666C149.348 121.666 149.884 121.479 150.239 121.106C150.538 120.789 150.687 120.345 150.687 119.776V118.838C150.146 119.473 149.338 119.79 148.265 119.79C147.294 119.79 146.506 119.44 145.899 118.74C145.33 118.087 145.045 117.237 145.045 116.192C145.045 114.979 145.39 114.041 146.081 113.378C146.669 112.799 147.425 112.51 148.349 112.51C149.394 112.51 150.183 112.902 150.715 113.686L150.925 112.72H152.031V119.846C152.031 120.761 151.7 121.479 151.037 122.002C150.44 122.487 149.651 122.73 148.671 122.73C147.654 122.73 146.856 122.501 146.277 122.044C145.792 121.661 145.493 121.143 145.381 120.49ZM146.445 116.22C146.445 117.013 146.678 117.634 147.145 118.082C147.528 118.455 147.999 118.642 148.559 118.642C149.296 118.642 149.861 118.399 150.253 117.914C150.589 117.503 150.757 116.953 150.757 116.262C150.757 115.375 150.528 114.699 150.071 114.232C149.688 113.849 149.184 113.658 148.559 113.658C147.868 113.658 147.336 113.896 146.963 114.372C146.618 114.82 146.445 115.436 146.445 116.22ZM158.952 117.9H160.408C160.203 118.637 159.797 119.216 159.19 119.636C158.621 120.019 157.94 120.21 157.146 120.21C155.998 120.21 155.102 119.846 154.458 119.118C153.87 118.437 153.576 117.517 153.576 116.36C153.576 115.044 153.95 114.045 154.696 113.364C155.312 112.795 156.106 112.51 157.076 112.51C158.215 112.51 159.074 112.879 159.652 113.616C160.212 114.325 160.492 115.338 160.492 116.654H154.948C155.004 117.513 155.266 118.152 155.732 118.572C156.115 118.908 156.6 119.076 157.188 119.076C157.646 119.076 158.042 118.95 158.378 118.698C158.658 118.483 158.85 118.217 158.952 117.9ZM157.104 113.588C156.507 113.588 156.026 113.775 155.662 114.148C155.317 114.493 155.098 114.974 155.004 115.59H159.12C159.074 114.89 158.84 114.367 158.42 114.022C158.084 113.733 157.646 113.588 157.104 113.588ZM165.881 116.36C165.881 115.025 166.278 114.017 167.071 113.336C167.706 112.785 168.508 112.51 169.479 112.51C170.608 112.51 171.495 112.869 172.139 113.588C172.755 114.26 173.063 115.184 173.063 116.36C173.063 117.676 172.676 118.679 171.901 119.37C171.266 119.93 170.454 120.21 169.465 120.21C168.336 120.21 167.444 119.837 166.791 119.09C166.184 118.409 165.881 117.499 165.881 116.36ZM167.281 116.36C167.281 117.293 167.519 118.007 167.995 118.502C168.387 118.913 168.886 119.118 169.493 119.118C170.202 119.118 170.748 118.852 171.131 118.32C171.486 117.835 171.663 117.181 171.663 116.36C171.663 115.408 171.43 114.689 170.963 114.204C170.58 113.803 170.086 113.602 169.479 113.602C168.779 113.602 168.233 113.868 167.841 114.4C167.468 114.885 167.281 115.539 167.281 116.36ZM178.198 109.878V111.04C177.75 110.928 177.381 110.872 177.092 110.872C176.849 110.872 176.658 110.937 176.518 111.068C176.387 111.199 176.322 111.381 176.322 111.614V112.72H177.89V113.868H176.322V120H174.978V113.868H173.9V112.72H174.978V111.698C174.978 111.054 175.188 110.55 175.608 110.186C175.981 109.869 176.448 109.71 177.008 109.71C177.372 109.71 177.768 109.766 178.198 109.878ZM189.735 112.51C189.735 112.967 189.595 113.392 189.315 113.784C189.035 114.176 188.638 114.507 188.125 114.778C189.441 115.357 190.099 116.215 190.099 117.354C190.099 118.25 189.73 118.969 188.993 119.51C188.339 119.977 187.518 120.21 186.529 120.21C185.39 120.21 184.485 119.916 183.813 119.328C183.243 118.824 182.959 118.199 182.959 117.452C182.959 116.733 183.192 116.131 183.659 115.646C183.976 115.31 184.382 115.049 184.877 114.862C183.841 114.377 183.323 113.625 183.323 112.608C183.323 111.703 183.687 111.012 184.415 110.536C184.984 110.172 185.689 109.99 186.529 109.99C187.509 109.99 188.293 110.214 188.881 110.662C189.45 111.11 189.735 111.726 189.735 112.51ZM188.671 117.354C188.671 116.635 188.367 116.108 187.761 115.772C187.462 115.604 186.953 115.441 186.235 115.282C185.693 115.441 185.259 115.683 184.933 116.01C184.569 116.383 184.387 116.831 184.387 117.354C184.387 117.895 184.587 118.325 184.989 118.642C185.362 118.95 185.875 119.104 186.529 119.104C187.266 119.104 187.826 118.917 188.209 118.544C188.517 118.245 188.671 117.849 188.671 117.354ZM184.639 112.538C184.639 113.229 184.923 113.733 185.493 114.05C185.819 114.227 186.258 114.353 186.809 114.428C187.863 114.017 188.391 113.387 188.391 112.538C188.391 112.053 188.185 111.67 187.775 111.39C187.429 111.157 187.014 111.04 186.529 111.04C185.95 111.04 185.483 111.18 185.129 111.46C184.802 111.731 184.639 112.09 184.639 112.538ZM191.437 117.62H192.865C192.968 118.077 193.211 118.437 193.593 118.698C193.957 118.95 194.405 119.076 194.937 119.076C195.6 119.076 196.132 118.847 196.533 118.39C196.888 117.979 197.065 117.438 197.065 116.766C197.065 116.01 196.846 115.436 196.407 115.044C196.043 114.708 195.563 114.54 194.965 114.54C194.163 114.54 193.509 114.839 193.005 115.436H191.815L192.025 110.2H198.045V111.334H193.243L193.131 114.204C193.729 113.728 194.443 113.49 195.273 113.49C196.244 113.49 197.023 113.807 197.611 114.442C198.171 115.049 198.451 115.842 198.451 116.822C198.451 117.839 198.101 118.67 197.401 119.314C196.757 119.911 195.931 120.21 194.923 120.21C193.906 120.21 193.061 119.911 192.389 119.314C191.867 118.847 191.549 118.283 191.437 117.62ZM204.382 112.356C204.382 113.149 204.107 113.765 203.556 114.204C203.117 114.549 202.595 114.722 201.988 114.722C201.279 114.722 200.7 114.498 200.252 114.05C199.823 113.621 199.608 113.056 199.608 112.356C199.608 111.553 199.883 110.937 200.434 110.508C200.863 110.163 201.381 109.99 201.988 109.99C202.697 109.99 203.276 110.214 203.724 110.662C204.163 111.091 204.382 111.656 204.382 112.356ZM200.742 112.356C200.742 112.86 200.877 113.233 201.148 113.476C201.363 113.653 201.643 113.742 201.988 113.742C202.389 113.742 202.702 113.621 202.926 113.378C203.15 113.145 203.262 112.804 203.262 112.356C203.262 111.852 203.117 111.479 202.828 111.236C202.613 111.059 202.333 110.97 201.988 110.97C201.587 110.97 201.279 111.091 201.064 111.334C200.849 111.567 200.742 111.908 200.742 112.356ZM208.302 110.2L202.954 120H201.61L206.958 110.2H208.302ZM210.402 117.844C210.402 118.637 210.127 119.253 209.576 119.692C209.137 120.037 208.615 120.21 208.008 120.21C207.299 120.21 206.72 119.986 206.272 119.538C205.843 119.109 205.628 118.544 205.628 117.844C205.628 117.041 205.903 116.425 206.454 115.996C206.883 115.651 207.401 115.478 208.008 115.478C208.717 115.478 209.296 115.702 209.744 116.15C210.183 116.579 210.402 117.144 210.402 117.844ZM206.762 117.844C206.762 118.348 206.897 118.721 207.168 118.964C207.383 119.141 207.663 119.23 208.008 119.23C208.409 119.23 208.722 119.109 208.946 118.866C209.17 118.633 209.282 118.292 209.282 117.844C209.282 117.34 209.137 116.967 208.848 116.724C208.633 116.547 208.353 116.458 208.008 116.458C207.607 116.458 207.299 116.579 207.084 116.822C206.869 117.055 206.762 117.396 206.762 117.844ZM220.743 112.72H222.143L219.581 120H217.761L215.227 112.72H216.697L218.713 118.908L220.743 112.72ZM224.686 111.502H223.174V109.92H224.686V111.502ZM224.602 120H223.258V112.72H224.602V120ZM233.133 120H232.027L231.789 118.978C231.229 119.799 230.421 120.21 229.367 120.21C228.349 120.21 227.547 119.841 226.959 119.104C226.417 118.423 226.147 117.522 226.147 116.402C226.147 115.049 226.492 114.031 227.183 113.35C227.761 112.79 228.517 112.51 229.451 112.51C230.459 112.51 231.238 112.888 231.789 113.644V109.92H233.133V120ZM227.547 116.43C227.547 117.335 227.771 118.021 228.219 118.488C228.592 118.871 229.073 119.062 229.661 119.062C230.389 119.062 230.953 118.787 231.355 118.236C231.691 117.76 231.859 117.163 231.859 116.444C231.859 115.501 231.635 114.783 231.187 114.288C230.804 113.868 230.295 113.658 229.661 113.658C228.951 113.658 228.415 113.915 228.051 114.428C227.715 114.895 227.547 115.562 227.547 116.43ZM240.054 117.9H241.51C241.305 118.637 240.899 119.216 240.292 119.636C239.723 120.019 239.041 120.21 238.248 120.21C237.1 120.21 236.204 119.846 235.56 119.118C234.972 118.437 234.678 117.517 234.678 116.36C234.678 115.044 235.051 114.045 235.798 113.364C236.414 112.795 237.207 112.51 238.178 112.51C239.317 112.51 240.175 112.879 240.754 113.616C241.314 114.325 241.594 115.338 241.594 116.654H236.05C236.106 117.513 236.367 118.152 236.834 118.572C237.217 118.908 237.702 119.076 238.29 119.076C238.747 119.076 239.144 118.95 239.48 118.698C239.76 118.483 239.951 118.217 240.054 117.9ZM238.206 113.588C237.609 113.588 237.128 113.775 236.764 114.148C236.419 114.493 236.199 114.974 236.106 115.59H240.222C240.175 114.89 239.942 114.367 239.522 114.022C239.186 113.733 238.747 113.588 238.206 113.588ZM242.785 116.36C242.785 115.025 243.182 114.017 243.975 113.336C244.61 112.785 245.413 112.51 246.383 112.51C247.513 112.51 248.399 112.869 249.043 113.588C249.659 114.26 249.967 115.184 249.967 116.36C249.967 117.676 249.58 118.679 248.805 119.37C248.171 119.93 247.359 120.21 246.369 120.21C245.24 120.21 244.349 119.837 243.695 119.09C243.089 118.409 242.785 117.499 242.785 116.36ZM244.185 116.36C244.185 117.293 244.423 118.007 244.899 118.502C245.291 118.913 245.791 119.118 246.397 119.118C247.107 119.118 247.653 118.852 248.035 118.32C248.39 117.835 248.567 117.181 248.567 116.36C248.567 115.408 248.334 114.689 247.867 114.204C247.485 113.803 246.99 113.602 246.383 113.602C245.683 113.602 245.137 113.868 244.745 114.4C244.372 114.885 244.185 115.539 244.185 116.36ZM257.045 120H255.701V112.72H256.807L256.947 113.574C257.442 112.865 258.156 112.51 259.089 112.51C260.107 112.51 260.821 112.893 261.231 113.658C261.717 112.893 262.505 112.51 263.597 112.51C264.409 112.51 265.035 112.757 265.473 113.252C265.865 113.709 266.061 114.335 266.061 115.128V120H264.717V115.226C264.717 114.181 264.246 113.658 263.303 113.658C262.743 113.658 262.295 113.877 261.959 114.316C261.689 114.671 261.553 115.086 261.553 115.562V120H260.209V115.226C260.209 114.181 259.738 113.658 258.795 113.658C258.273 113.658 257.839 113.863 257.493 114.274C257.195 114.619 257.045 115.035 257.045 115.52V120ZM272.907 117.9H274.363C274.158 118.637 273.752 119.216 273.145 119.636C272.576 120.019 271.895 120.21 271.101 120.21C269.953 120.21 269.057 119.846 268.413 119.118C267.825 118.437 267.531 117.517 267.531 116.36C267.531 115.044 267.905 114.045 268.651 113.364C269.267 112.795 270.061 112.51 271.031 112.51C272.17 112.51 273.029 112.879 273.607 113.616C274.167 114.325 274.447 115.338 274.447 116.654H268.903C268.959 117.513 269.221 118.152 269.687 118.572C270.07 118.908 270.555 119.076 271.143 119.076C271.601 119.076 271.997 118.95 272.333 118.698C272.613 118.483 272.805 118.217 272.907 117.9ZM271.059 113.588C270.462 113.588 269.981 113.775 269.617 114.148C269.272 114.493 269.053 114.974 268.959 115.59H273.075C273.029 114.89 272.795 114.367 272.375 114.022C272.039 113.733 271.601 113.588 271.059 113.588ZM281.015 117.9H282.471C282.265 118.637 281.859 119.216 281.253 119.636C280.683 120.019 280.002 120.21 279.209 120.21C278.061 120.21 277.165 119.846 276.521 119.118C275.933 118.437 275.639 117.517 275.639 116.36C275.639 115.044 276.012 114.045 276.759 113.364C277.375 112.795 278.168 112.51 279.139 112.51C280.277 112.51 281.136 112.879 281.715 113.616C282.275 114.325 282.555 115.338 282.555 116.654H277.011C277.067 117.513 277.328 118.152 277.795 118.572C278.177 118.908 278.663 119.076 279.251 119.076C279.708 119.076 280.105 118.95 280.441 118.698C280.721 118.483 280.912 118.217 281.015 117.9ZM279.167 113.588C278.569 113.588 278.089 113.775 277.725 114.148C277.379 114.493 277.16 114.974 277.067 115.59H281.183C281.136 114.89 280.903 114.367 280.483 114.022C280.147 113.733 279.708 113.588 279.167 113.588ZM287.414 118.922V120.07C287.069 120.163 286.738 120.21 286.42 120.21C285.748 120.21 285.244 120 284.908 119.58C284.619 119.235 284.474 118.773 284.474 118.194V113.868H283.396V112.72H284.474L284.558 110.97H285.818V112.72H287.386V113.868H285.818V118.222C285.818 118.763 286.075 119.034 286.588 119.034C286.831 119.034 287.106 118.997 287.414 118.922ZM290.106 111.502H288.594V109.92H290.106V111.502ZM290.022 120H288.678V112.72H290.022V120ZM293.331 120H291.987V112.72H293.093L293.247 113.644C293.788 112.888 294.525 112.51 295.459 112.51C296.317 112.51 296.975 112.776 297.433 113.308C297.834 113.784 298.035 114.433 298.035 115.254V120H296.691V115.268C296.691 114.195 296.173 113.658 295.137 113.658C294.595 113.658 294.152 113.845 293.807 114.218C293.489 114.554 293.331 114.983 293.331 115.506V120ZM299.846 120.49H301.288C301.353 120.863 301.54 121.153 301.848 121.358C302.165 121.563 302.581 121.666 303.094 121.666C303.813 121.666 304.349 121.479 304.704 121.106C305.003 120.789 305.152 120.345 305.152 119.776V118.838C304.611 119.473 303.803 119.79 302.73 119.79C301.759 119.79 300.971 119.44 300.364 118.74C299.795 118.087 299.51 117.237 299.51 116.192C299.51 114.979 299.855 114.041 300.546 113.378C301.134 112.799 301.89 112.51 302.814 112.51C303.859 112.51 304.648 112.902 305.18 113.686L305.39 112.72H306.496V119.846C306.496 120.761 306.165 121.479 305.502 122.002C304.905 122.487 304.116 122.73 303.136 122.73C302.119 122.73 301.321 122.501 300.742 122.044C300.257 121.661 299.958 121.143 299.846 120.49ZM300.91 116.22C300.91 117.013 301.143 117.634 301.61 118.082C301.993 118.455 302.464 118.642 303.024 118.642C303.761 118.642 304.326 118.399 304.718 117.914C305.054 117.503 305.222 116.953 305.222 116.262C305.222 115.375 304.993 114.699 304.536 114.232C304.153 113.849 303.649 113.658 303.024 113.658C302.333 113.658 301.801 113.896 301.428 114.372C301.083 114.82 300.91 115.436 300.91 116.22ZM312.588 112.72H313.932V117.494C313.932 118.539 314.436 119.062 315.444 119.062C316.06 119.062 316.532 118.843 316.858 118.404C317.11 118.068 317.236 117.653 317.236 117.158V112.72H318.58V120H317.474L317.32 119.16C316.807 119.86 316.079 120.21 315.136 120.21C314.306 120.21 313.666 119.953 313.218 119.44C312.798 118.964 312.588 118.306 312.588 117.466V112.72ZM324.803 118.026C324.803 117.615 324.588 117.307 324.159 117.102C323.907 116.99 323.417 116.85 322.689 116.682C321.793 116.486 321.154 116.201 320.771 115.828C320.454 115.511 320.295 115.095 320.295 114.582C320.295 113.901 320.57 113.378 321.121 113.014C321.616 112.678 322.283 112.51 323.123 112.51C323.991 112.51 324.696 112.725 325.237 113.154C325.704 113.527 325.993 114.022 326.105 114.638H324.733C324.574 113.929 324.033 113.574 323.109 113.574C322.596 113.574 322.213 113.667 321.961 113.854C321.756 114.013 321.653 114.213 321.653 114.456C321.653 114.755 321.765 114.979 321.989 115.128C322.222 115.277 322.675 115.427 323.347 115.576C324.374 115.8 325.088 116.075 325.489 116.402C325.937 116.766 326.161 117.275 326.161 117.928C326.161 118.656 325.862 119.23 325.265 119.65C324.724 120.023 324.01 120.21 323.123 120.21C322.152 120.21 321.382 119.977 320.813 119.51C320.318 119.099 320.043 118.567 319.987 117.914H321.359C321.508 118.735 322.101 119.146 323.137 119.146C323.697 119.146 324.131 119.025 324.439 118.782C324.682 118.586 324.803 118.334 324.803 118.026ZM332.653 117.9H334.109C333.904 118.637 333.498 119.216 332.891 119.636C332.322 120.019 331.641 120.21 330.847 120.21C329.699 120.21 328.803 119.846 328.159 119.118C327.571 118.437 327.277 117.517 327.277 116.36C327.277 115.044 327.651 114.045 328.397 113.364C329.013 112.795 329.807 112.51 330.777 112.51C331.916 112.51 332.775 112.879 333.353 113.616C333.913 114.325 334.193 115.338 334.193 116.654H328.649C328.705 117.513 328.967 118.152 329.433 118.572C329.816 118.908 330.301 119.076 330.889 119.076C331.347 119.076 331.743 118.95 332.079 118.698C332.359 118.483 332.551 118.217 332.653 117.9ZM330.805 113.588C330.208 113.588 329.727 113.775 329.363 114.148C329.018 114.493 328.799 114.974 328.705 115.59H332.821C332.775 114.89 332.541 114.367 332.121 114.022C331.785 113.733 331.347 113.588 330.805 113.588ZM342.371 120H341.265L341.027 118.978C340.467 119.799 339.66 120.21 338.605 120.21C337.588 120.21 336.785 119.841 336.197 119.104C335.656 118.423 335.385 117.522 335.385 116.402C335.385 115.049 335.73 114.031 336.421 113.35C337 112.79 337.756 112.51 338.689 112.51C339.697 112.51 340.476 112.888 341.027 113.644V109.92H342.371V120ZM336.785 116.43C336.785 117.335 337.009 118.021 337.457 118.488C337.83 118.871 338.311 119.062 338.899 119.062C339.627 119.062 340.192 118.787 340.593 118.236C340.929 117.76 341.097 117.163 341.097 116.444C341.097 115.501 340.873 114.783 340.425 114.288C340.042 113.868 339.534 113.658 338.899 113.658C338.19 113.658 337.653 113.915 337.289 114.428C336.953 114.895 336.785 115.562 336.785 116.43Z" fill="white" fill-opacity="0.7"/>
</g>
<defs>
<clipPath id="clip0_2102_36114">
<rect width="8" height="15" fill="white" transform="translate(428.113 81) rotate(90)"/>
</clipPath>
<clipPath id="clip1_2102_36114">
<rect width="8" height="15" fill="white" transform="translate(428.113 98) rotate(90)"/>
</clipPath>
<clipPath id="clip2_2102_36114">
<rect width="200" height="21" fill="white" transform="translate(106.887 105)"/>
</clipPath>
</defs>
</svg>
