<svg width="559" height="216" viewBox="0 0 559 216" fill="none" xmlns="http://www.w3.org/2000/svg">
<rect width="559" height="215.824" rx="16" fill="#1A1A1A"/>
<path d="M97.1021 92.8321H98.5301V99.6641C98.5301 100.401 98.7821 100.971 99.2861 101.372C99.7341 101.736 100.336 101.918 101.092 101.918C101.96 101.918 102.623 101.68 103.08 101.204C103.463 100.812 103.654 100.299 103.654 99.6641V92.8321H105.04V99.5381C105.04 100.714 104.629 101.629 103.808 102.282C103.108 102.842 102.198 103.122 101.078 103.122C99.7807 103.122 98.7681 102.753 98.0401 102.016C97.4147 101.381 97.1021 100.555 97.1021 99.5381V92.8321ZM107.001 95.6321H108.107L108.317 96.5841C108.914 95.8094 109.735 95.4221 110.781 95.4221C111.826 95.4221 112.638 95.7954 113.217 96.5421C113.73 97.2141 113.987 98.1054 113.987 99.2161C113.987 100.532 113.637 101.54 112.937 102.24C112.349 102.828 111.597 103.122 110.683 103.122C109.647 103.122 108.867 102.739 108.345 101.974V105.432H107.001V95.6321ZM112.587 99.1881C112.587 98.2734 112.358 97.5874 111.901 97.1301C111.537 96.7568 111.061 96.5701 110.473 96.5701C109.791 96.5701 109.25 96.8174 108.849 97.3121C108.466 97.7881 108.275 98.4134 108.275 99.1881C108.275 100.121 108.503 100.835 108.961 101.33C109.343 101.759 109.847 101.974 110.473 101.974C111.173 101.974 111.705 101.717 112.069 101.204C112.414 100.728 112.587 100.056 112.587 99.1881ZM116.876 92.8321V102.912H115.532V92.8321H116.876ZM118.42 99.2721C118.42 97.9374 118.817 96.9294 119.61 96.2481C120.245 95.6974 121.048 95.4221 122.018 95.4221C123.148 95.4221 124.034 95.7814 124.678 96.5001C125.294 97.1721 125.602 98.0961 125.602 99.2721C125.602 100.588 125.215 101.591 124.44 102.282C123.806 102.842 122.994 103.122 122.004 103.122C120.875 103.122 119.984 102.749 119.33 102.002C118.724 101.321 118.42 100.411 118.42 99.2721ZM119.82 99.2721C119.82 100.205 120.058 100.919 120.534 101.414C120.926 101.825 121.426 102.03 122.032 102.03C122.742 102.03 123.288 101.764 123.67 101.232C124.025 100.747 124.202 100.093 124.202 99.2721C124.202 98.3201 123.969 97.6014 123.502 97.1161C123.12 96.7148 122.625 96.5141 122.018 96.5141C121.318 96.5141 120.772 96.7801 120.38 97.3121C120.007 97.7974 119.82 98.4508 119.82 99.2721ZM128.287 97.6621H126.859C126.934 96.9341 127.279 96.3694 127.895 95.9681C128.446 95.6041 129.141 95.4221 129.981 95.4221C130.98 95.4221 131.745 95.6834 132.277 96.2061C132.725 96.6541 132.949 97.2328 132.949 97.9421V102.912H131.843L131.675 101.918C131.106 102.721 130.294 103.122 129.239 103.122C128.409 103.122 127.76 102.898 127.293 102.45C126.911 102.077 126.719 101.605 126.719 101.036C126.719 100.317 126.967 99.7621 127.461 99.3701C127.9 99.0248 128.572 98.7728 129.477 98.6141L131.605 98.2501V97.8861C131.605 97.4101 131.442 97.0508 131.115 96.8081C130.826 96.5934 130.429 96.4861 129.925 96.4861C128.936 96.4861 128.39 96.8781 128.287 97.6621ZM129.561 101.988C130.131 101.988 130.625 101.801 131.045 101.428C131.419 101.083 131.605 100.686 131.605 100.238V99.3001L129.799 99.6221C129.137 99.7341 128.684 99.9068 128.441 100.14C128.245 100.327 128.147 100.579 128.147 100.896C128.147 101.251 128.269 101.521 128.511 101.708C128.754 101.895 129.104 101.988 129.561 101.988ZM141.402 102.912H140.296L140.058 101.89C139.498 102.711 138.691 103.122 137.636 103.122C136.619 103.122 135.816 102.753 135.228 102.016C134.687 101.335 134.416 100.434 134.416 99.3141C134.416 97.9608 134.762 96.9434 135.452 96.2621C136.031 95.7021 136.787 95.4221 137.72 95.4221C138.728 95.4221 139.508 95.8001 140.058 96.5561V92.8321H141.402V102.912ZM135.816 99.3421C135.816 100.247 136.04 100.933 136.488 101.4C136.862 101.783 137.342 101.974 137.93 101.974C138.658 101.974 139.223 101.699 139.624 101.148C139.96 100.672 140.128 100.075 140.128 99.3561C140.128 98.4134 139.904 97.6948 139.456 97.2001C139.074 96.7801 138.565 96.5701 137.93 96.5701C137.221 96.5701 136.684 96.8268 136.32 97.3401C135.984 97.8068 135.816 98.4741 135.816 99.3421ZM144.796 94.4141H143.284V92.8321H144.796V94.4141ZM144.712 102.912H143.368V95.6321H144.712V102.912ZM148.02 102.912H146.676V95.6321H147.782L147.936 96.5561C148.478 95.8001 149.215 95.4221 150.148 95.4221C151.007 95.4221 151.665 95.6881 152.122 96.2201C152.524 96.6961 152.724 97.3448 152.724 98.1661V102.912H151.38V98.1801C151.38 97.1068 150.862 96.5701 149.826 96.5701C149.285 96.5701 148.842 96.7568 148.496 97.1301C148.179 97.4661 148.02 97.8954 148.02 98.4181V102.912ZM154.536 103.402H155.978C156.043 103.775 156.23 104.065 156.538 104.27C156.855 104.475 157.27 104.578 157.784 104.578C158.502 104.578 159.039 104.391 159.394 104.018C159.692 103.701 159.842 103.257 159.842 102.688V101.75C159.3 102.385 158.493 102.702 157.42 102.702C156.449 102.702 155.66 102.352 155.054 101.652C154.484 100.999 154.2 100.149 154.2 99.1041C154.2 97.8908 154.545 96.9528 155.236 96.2901C155.824 95.7114 156.58 95.4221 157.504 95.4221C158.549 95.4221 159.338 95.8141 159.87 96.5981L160.08 95.6321H161.186V102.758C161.186 103.673 160.854 104.391 160.192 104.914C159.594 105.399 158.806 105.642 157.826 105.642C156.808 105.642 156.01 105.413 155.432 104.956C154.946 104.573 154.648 104.055 154.536 103.402ZM155.6 99.1321C155.6 99.9254 155.833 100.546 156.3 100.994C156.682 101.367 157.154 101.554 157.714 101.554C158.451 101.554 159.016 101.311 159.408 100.826C159.744 100.415 159.912 99.8648 159.912 99.1741C159.912 98.2874 159.683 97.6108 159.226 97.1441C158.843 96.7614 158.339 96.5701 157.714 96.5701C157.023 96.5701 156.491 96.8081 156.118 97.2841C155.772 97.7321 155.6 98.3481 155.6 99.1321ZM173.102 97.4661V98.6561H168.846V102.912H167.418V92.8321H173.592V94.0361H168.846V97.4661H173.102ZM176.624 94.4141H175.112V92.8321H176.624V94.4141ZM176.54 102.912H175.196V95.6321H176.54V102.912ZM179.848 92.8321V102.912H178.504V92.8321H179.848ZM186.769 100.812H188.225C188.02 101.549 187.614 102.128 187.007 102.548C186.438 102.931 185.756 103.122 184.963 103.122C183.815 103.122 182.919 102.758 182.275 102.03C181.687 101.349 181.393 100.429 181.393 99.2721C181.393 97.9561 181.766 96.9574 182.513 96.2761C183.129 95.7068 183.922 95.4221 184.893 95.4221C186.032 95.4221 186.89 95.7908 187.469 96.5281C188.029 97.2374 188.309 98.2501 188.309 99.5661H182.765C182.821 100.425 183.082 101.064 183.549 101.484C183.932 101.82 184.417 101.988 185.005 101.988C185.462 101.988 185.859 101.862 186.195 101.61C186.475 101.395 186.666 101.129 186.769 100.812ZM184.921 96.5001C184.324 96.5001 183.843 96.6868 183.479 97.0601C183.134 97.4054 182.914 97.8861 182.821 98.5021H186.937C186.89 97.8021 186.657 97.2794 186.237 96.9341C185.901 96.6448 185.462 96.5001 184.921 96.5001ZM194.176 100.938C194.176 100.527 193.962 100.219 193.532 100.014C193.28 99.9021 192.79 99.7621 192.062 99.5941C191.166 99.3981 190.527 99.1134 190.144 98.7401C189.827 98.4228 189.668 98.0074 189.668 97.4941C189.668 96.8128 189.944 96.2901 190.494 95.9261C190.989 95.5901 191.656 95.4221 192.496 95.4221C193.364 95.4221 194.069 95.6368 194.61 96.0661C195.077 96.4394 195.366 96.9341 195.478 97.5501H194.106C193.948 96.8408 193.406 96.4861 192.482 96.4861C191.969 96.4861 191.586 96.5794 191.334 96.7661C191.129 96.9248 191.026 97.1254 191.026 97.3681C191.026 97.6668 191.138 97.8908 191.362 98.0401C191.596 98.1894 192.048 98.3388 192.72 98.4881C193.747 98.7121 194.461 98.9874 194.862 99.3141C195.31 99.6781 195.534 100.187 195.534 100.84C195.534 101.568 195.236 102.142 194.638 102.562C194.097 102.935 193.383 103.122 192.496 103.122C191.526 103.122 190.756 102.889 190.186 102.422C189.692 102.011 189.416 101.479 189.36 100.826H190.732C190.882 101.647 191.474 102.058 192.51 102.058C193.07 102.058 193.504 101.937 193.812 101.694C194.055 101.498 194.176 101.246 194.176 100.938Z" fill="white" fill-opacity="0.95"/>
<path d="M469.816 95.6741H468.402C468.514 94.8061 468.915 94.1154 469.606 93.6021C470.222 93.1354 470.968 92.9021 471.846 92.9021C472.844 92.9021 473.642 93.1821 474.24 93.7421C474.772 94.2554 475.038 94.9041 475.038 95.6881C475.038 96.3788 474.842 97.0181 474.45 97.6061C474.132 98.1008 473.549 98.7494 472.7 99.5521L470.46 101.68H474.996V102.912H468.64V101.68L471.832 98.6141C472.541 97.9328 473.022 97.3914 473.274 96.9901C473.535 96.5794 473.666 96.1501 473.666 95.7021C473.666 95.1608 473.479 94.7408 473.106 94.4421C472.779 94.1714 472.35 94.0361 471.818 94.0361C471.22 94.0361 470.74 94.1994 470.376 94.5261C470.058 94.8154 469.872 95.1981 469.816 95.6741ZM476.67 100.532H478.098C478.201 100.989 478.443 101.349 478.826 101.61C479.19 101.862 479.638 101.988 480.17 101.988C480.833 101.988 481.365 101.759 481.766 101.302C482.121 100.891 482.298 100.35 482.298 99.6781C482.298 98.9221 482.079 98.3481 481.64 97.9561C481.276 97.6201 480.795 97.4521 480.198 97.4521C479.395 97.4521 478.742 97.7508 478.238 98.3481H477.048L477.258 93.1121H483.278V94.2461H478.476L478.364 97.1161C478.961 96.6401 479.675 96.4021 480.506 96.4021C481.477 96.4021 482.256 96.7194 482.844 97.3541C483.404 97.9608 483.684 98.7541 483.684 99.7341C483.684 100.751 483.334 101.582 482.634 102.226C481.99 102.823 481.164 103.122 480.156 103.122C479.139 103.122 478.294 102.823 477.622 102.226C477.099 101.759 476.782 101.195 476.67 100.532ZM489.615 95.2681C489.615 96.0614 489.339 96.6774 488.789 97.1161C488.35 97.4614 487.827 97.6341 487.221 97.6341C486.511 97.6341 485.933 97.4101 485.485 96.9621C485.055 96.5328 484.841 95.9681 484.841 95.2681C484.841 94.4654 485.116 93.8494 485.667 93.4201C486.096 93.0748 486.614 92.9021 487.221 92.9021C487.93 92.9021 488.509 93.1261 488.957 93.5741C489.395 94.0034 489.615 94.5681 489.615 95.2681ZM485.975 95.2681C485.975 95.7721 486.11 96.1454 486.381 96.3881C486.595 96.5654 486.875 96.6541 487.221 96.6541C487.622 96.6541 487.935 96.5328 488.159 96.2901C488.383 96.0568 488.495 95.7161 488.495 95.2681C488.495 94.7641 488.35 94.3908 488.061 94.1481C487.846 93.9708 487.566 93.8821 487.221 93.8821C486.819 93.8821 486.511 94.0034 486.297 94.2461C486.082 94.4794 485.975 94.8201 485.975 95.2681ZM493.535 93.1121L488.187 102.912H486.843L492.191 93.1121H493.535ZM495.635 100.756C495.635 101.549 495.359 102.165 494.809 102.604C494.37 102.949 493.847 103.122 493.241 103.122C492.531 103.122 491.953 102.898 491.505 102.45C491.075 102.021 490.861 101.456 490.861 100.756C490.861 99.9534 491.136 99.3374 491.687 98.9081C492.116 98.5628 492.634 98.3901 493.241 98.3901C493.95 98.3901 494.529 98.6141 494.977 99.0621C495.415 99.4914 495.635 100.056 495.635 100.756ZM491.995 100.756C491.995 101.26 492.13 101.633 492.401 101.876C492.615 102.053 492.895 102.142 493.241 102.142C493.642 102.142 493.955 102.021 494.179 101.778C494.403 101.545 494.515 101.204 494.515 100.756C494.515 100.252 494.37 99.8788 494.081 99.6361C493.866 99.4588 493.586 99.3701 493.241 99.3701C492.839 99.3701 492.531 99.4914 492.317 99.7341C492.102 99.9674 491.995 100.308 491.995 100.756Z" fill="white" fill-opacity="0.95"/>
<rect x="96.1221" y="116.912" width="400" height="8" rx="4" fill="#3B3B3B"/>
<rect x="96.1221" y="116.912" width="100" height="8" rx="4" fill="#3492EB"/>
<g clip-path="url(#clip0_2102_36116)">
<path d="M101.54 148.122C100.009 148.122 98.8054 147.604 97.9281 146.568C97.1441 145.625 96.7521 144.393 96.7521 142.872C96.7521 141.127 97.2794 139.769 98.3341 138.798C99.1927 138.014 100.266 137.622 101.554 137.622C103.047 137.622 104.233 138.121 105.11 139.12C105.922 140.063 106.328 141.313 106.328 142.872C106.328 144.608 105.81 145.957 104.774 146.918C103.915 147.721 102.837 148.122 101.54 148.122ZM101.54 146.96C102.623 146.96 103.463 146.563 104.06 145.77C104.601 145.051 104.872 144.085 104.872 142.872C104.872 141.481 104.522 140.422 103.822 139.694C103.243 139.087 102.483 138.784 101.54 138.784C100.457 138.784 99.6174 139.181 99.0201 139.974C98.4787 140.693 98.2081 141.659 98.2081 142.872C98.2081 144.263 98.5581 145.322 99.2581 146.05C99.8367 146.657 100.597 146.96 101.54 146.96ZM107.944 140.632H109.05L109.26 141.584C109.857 140.809 110.679 140.422 111.724 140.422C112.769 140.422 113.581 140.795 114.16 141.542C114.673 142.214 114.93 143.105 114.93 144.216C114.93 145.532 114.58 146.54 113.88 147.24C113.292 147.828 112.541 148.122 111.626 148.122C110.59 148.122 109.811 147.739 109.288 146.974V150.432H107.944V140.632ZM113.53 144.188C113.53 143.273 113.301 142.587 112.844 142.13C112.48 141.757 112.004 141.57 111.416 141.57C110.735 141.57 110.193 141.817 109.792 142.312C109.409 142.788 109.218 143.413 109.218 144.188C109.218 145.121 109.447 145.835 109.904 146.33C110.287 146.759 110.791 146.974 111.416 146.974C112.116 146.974 112.648 146.717 113.012 146.204C113.357 145.728 113.53 145.056 113.53 144.188ZM119.723 146.834V147.982C119.378 148.075 119.046 148.122 118.729 148.122C118.057 148.122 117.553 147.912 117.217 147.492C116.928 147.147 116.783 146.685 116.783 146.106V141.78H115.705V140.632H116.783L116.867 138.882H118.127V140.632H119.695V141.78H118.127V146.134C118.127 146.675 118.384 146.946 118.897 146.946C119.14 146.946 119.415 146.909 119.723 146.834ZM122.415 139.414H120.903V137.832H122.415V139.414ZM122.331 147.912H120.987V140.632H122.331V147.912ZM123.875 144.272C123.875 142.937 124.272 141.929 125.065 141.248C125.7 140.697 126.503 140.422 127.473 140.422C128.603 140.422 129.489 140.781 130.133 141.5C130.749 142.172 131.057 143.096 131.057 144.272C131.057 145.588 130.67 146.591 129.895 147.282C129.261 147.842 128.449 148.122 127.459 148.122C126.33 148.122 125.439 147.749 124.785 147.002C124.179 146.321 123.875 145.411 123.875 144.272ZM125.275 144.272C125.275 145.205 125.513 145.919 125.989 146.414C126.381 146.825 126.881 147.03 127.487 147.03C128.197 147.03 128.743 146.764 129.125 146.232C129.48 145.747 129.657 145.093 129.657 144.272C129.657 143.32 129.424 142.601 128.957 142.116C128.575 141.715 128.08 141.514 127.473 141.514C126.773 141.514 126.227 141.78 125.835 142.312C125.462 142.797 125.275 143.451 125.275 144.272ZM133.938 147.912H132.594V140.632H133.7L133.854 141.556C134.396 140.8 135.133 140.422 136.066 140.422C136.925 140.422 137.583 140.688 138.04 141.22C138.442 141.696 138.642 142.345 138.642 143.166V147.912H137.298V143.18C137.298 142.107 136.78 141.57 135.744 141.57C135.203 141.57 134.76 141.757 134.414 142.13C134.097 142.466 133.938 142.895 133.938 143.418V147.912ZM141.686 142.662H140.258C140.332 141.934 140.678 141.369 141.294 140.968C141.844 140.604 142.54 140.422 143.38 140.422C144.378 140.422 145.144 140.683 145.676 141.206C146.124 141.654 146.348 142.233 146.348 142.942V147.912H145.242L145.074 146.918C144.504 147.721 143.692 148.122 142.638 148.122C141.807 148.122 141.158 147.898 140.692 147.45C140.309 147.077 140.118 146.605 140.118 146.036C140.118 145.317 140.365 144.762 140.86 144.37C141.298 144.025 141.97 143.773 142.876 143.614L145.004 143.25V142.886C145.004 142.41 144.84 142.051 144.514 141.808C144.224 141.593 143.828 141.486 143.324 141.486C142.334 141.486 141.788 141.878 141.686 142.662ZM142.96 146.988C143.529 146.988 144.024 146.801 144.444 146.428C144.817 146.083 145.004 145.686 145.004 145.238V144.3L143.198 144.622C142.535 144.734 142.082 144.907 141.84 145.14C141.644 145.327 141.546 145.579 141.546 145.896C141.546 146.251 141.667 146.521 141.91 146.708C142.152 146.895 142.502 146.988 142.96 146.988ZM149.579 137.832V147.912H148.235V137.832H149.579ZM162.167 137.832H163.609V147.912H162.167V143.418H157.239V147.912H155.811V137.832H157.239V142.214H162.167V137.832ZM170.595 145.812H172.051C171.846 146.549 171.44 147.128 170.833 147.548C170.264 147.931 169.583 148.122 168.789 148.122C167.641 148.122 166.745 147.758 166.101 147.03C165.513 146.349 165.219 145.429 165.219 144.272C165.219 142.956 165.593 141.957 166.339 141.276C166.955 140.707 167.749 140.422 168.719 140.422C169.858 140.422 170.717 140.791 171.295 141.528C171.855 142.237 172.135 143.25 172.135 144.566H166.591C166.647 145.425 166.909 146.064 167.375 146.484C167.758 146.82 168.243 146.988 168.831 146.988C169.289 146.988 169.685 146.862 170.021 146.61C170.301 146.395 170.493 146.129 170.595 145.812ZM168.747 141.5C168.15 141.5 167.669 141.687 167.305 142.06C166.96 142.405 166.741 142.886 166.647 143.502H170.763C170.717 142.802 170.483 142.279 170.063 141.934C169.727 141.645 169.289 141.5 168.747 141.5ZM175.091 137.832V147.912H173.747V137.832H175.091ZM177.055 140.632H178.161L178.371 141.584C178.969 140.809 179.79 140.422 180.835 140.422C181.881 140.422 182.693 140.795 183.271 141.542C183.785 142.214 184.041 143.105 184.041 144.216C184.041 145.532 183.691 146.54 182.991 147.24C182.403 147.828 181.652 148.122 180.737 148.122C179.701 148.122 178.922 147.739 178.399 146.974V150.432H177.055V140.632ZM182.641 144.188C182.641 143.273 182.413 142.587 181.955 142.13C181.591 141.757 181.115 141.57 180.527 141.57C179.846 141.57 179.305 141.817 178.903 142.312C178.521 142.788 178.329 143.413 178.329 144.188C178.329 145.121 178.558 145.835 179.015 146.33C179.398 146.759 179.902 146.974 180.527 146.974C181.227 146.974 181.759 146.717 182.123 146.204C182.469 145.728 182.641 145.056 182.641 144.188ZM190.542 145.812H191.998C191.793 146.549 191.387 147.128 190.78 147.548C190.211 147.931 189.53 148.122 188.736 148.122C187.588 148.122 186.692 147.758 186.048 147.03C185.46 146.349 185.166 145.429 185.166 144.272C185.166 142.956 185.54 141.957 186.286 141.276C186.902 140.707 187.696 140.422 188.666 140.422C189.805 140.422 190.664 140.791 191.242 141.528C191.802 142.237 192.082 143.25 192.082 144.566H186.538C186.594 145.425 186.856 146.064 187.322 146.484C187.705 146.82 188.19 146.988 188.778 146.988C189.236 146.988 189.632 146.862 189.968 146.61C190.248 146.395 190.44 146.129 190.542 145.812ZM188.694 141.5C188.097 141.5 187.616 141.687 187.252 142.06C186.907 142.405 186.688 142.886 186.594 143.502H190.71C190.664 142.802 190.43 142.279 190.01 141.934C189.674 141.645 189.236 141.5 188.694 141.5ZM195.038 147.912H193.694V140.632H194.8L194.982 141.71C195.393 140.851 196.009 140.422 196.83 140.422C197.101 140.422 197.367 140.455 197.628 140.52V141.864C197.311 141.78 197.026 141.738 196.774 141.738C196.233 141.738 195.808 141.957 195.5 142.396C195.192 142.835 195.038 143.455 195.038 144.258V147.912ZM210.203 137.832V139.106H206.815V147.912H205.387V139.106H202.041V137.832H210.203ZM215.152 145.812H216.608C216.402 146.549 215.996 147.128 215.39 147.548C214.82 147.931 214.139 148.122 213.346 148.122C212.198 148.122 211.302 147.758 210.658 147.03C210.07 146.349 209.776 145.429 209.776 144.272C209.776 142.956 210.149 141.957 210.896 141.276C211.512 140.707 212.305 140.422 213.276 140.422C214.414 140.422 215.273 140.791 215.852 141.528C216.412 142.237 216.692 143.25 216.692 144.566H211.148C211.204 145.425 211.465 146.064 211.932 146.484C212.314 146.82 212.8 146.988 213.388 146.988C213.845 146.988 214.242 146.862 214.578 146.61C214.858 146.395 215.049 146.129 215.152 145.812ZM213.304 141.5C212.706 141.5 212.226 141.687 211.862 142.06C211.516 142.405 211.297 142.886 211.204 143.502H215.32C215.273 142.802 215.04 142.279 214.62 141.934C214.284 141.645 213.845 141.5 213.304 141.5ZM224.169 140.632L221.733 144.034L224.589 147.912H222.951L220.977 145.098L219.045 147.912H217.463L220.179 144.132L217.631 140.632H219.241L220.977 143.082L222.629 140.632H224.169ZM228.961 146.834V147.982C228.616 148.075 228.285 148.122 227.967 148.122C227.295 148.122 226.791 147.912 226.455 147.492C226.166 147.147 226.021 146.685 226.021 146.106V141.78H224.943V140.632H226.021L226.105 138.882H227.365V140.632H228.933V141.78H227.365V146.134C227.365 146.675 227.622 146.946 228.135 146.946C228.378 146.946 228.653 146.909 228.961 146.834Z" fill="white" fill-opacity="0.7"/>
</g>
<rect x="458.31" y="84" width="42" height="30" rx="5" stroke="#DA0087" stroke-width="2" stroke-linecap="square"/>
<rect x="460.31" y="86" width="38" height="26" rx="3" stroke="white" stroke-opacity="0.9" stroke-width="2" stroke-linecap="square"/>
<rect x="91.8096" y="83" width="114" height="30" rx="5" stroke="#DA0087" stroke-width="2" stroke-linecap="square"/>
<rect x="93.8096" y="85" width="110" height="26" rx="3" stroke="white" stroke-opacity="0.9" stroke-width="2" stroke-linecap="square"/>
<rect x="89.1221" y="126.824" width="150" height="30" rx="5" stroke="#DA0087" stroke-width="2" stroke-linecap="square"/>
<rect x="91.1221" y="128.824" width="146" height="26" rx="3" stroke="white" stroke-opacity="0.9" stroke-width="2" stroke-linecap="square"/>
<rect x="60" y="60" width="28" height="28" rx="14" fill="#DA0087"/>
<rect x="61" y="61" width="26" height="26" rx="13" stroke="white" stroke-opacity="0.9" stroke-width="2"/>
<path d="M76.0916 68.3636V80H73.6314V70.6989H73.5632L70.8984 72.3693V70.1875L73.7791 68.3636H76.0916Z" fill="white" fill-opacity="0.95"/>
<rect x="60" y="110" width="28" height="28" rx="14" fill="#DA0087"/>
<rect x="61" y="111" width="26" height="26" rx="13" stroke="white" stroke-opacity="0.9" stroke-width="2"/>
<path d="M73.9709 130.159C73.1224 130.159 72.3667 130.013 71.7038 129.722C71.0447 129.426 70.5239 129.021 70.1413 128.506C69.7625 127.987 69.5675 127.388 69.5561 126.71H72.0334C72.0485 126.994 72.1413 127.244 72.3118 127.46C72.486 127.672 72.7171 127.837 73.005 127.955C73.2929 128.072 73.6167 128.131 73.9766 128.131C74.3516 128.131 74.683 128.064 74.9709 127.932C75.2588 127.799 75.4841 127.616 75.647 127.381C75.8099 127.146 75.8913 126.875 75.8913 126.568C75.8913 126.258 75.8042 125.983 75.63 125.744C75.4595 125.502 75.2133 125.312 74.8913 125.176C74.5732 125.04 74.1944 124.972 73.755 124.972H72.6697V123.165H73.755C74.1262 123.165 74.4538 123.1 74.7379 122.972C75.0258 122.843 75.2493 122.665 75.4084 122.438C75.5675 122.206 75.647 121.938 75.647 121.631C75.647 121.339 75.5769 121.083 75.4368 120.864C75.3004 120.64 75.1072 120.466 74.8572 120.341C74.611 120.216 74.3232 120.153 73.9936 120.153C73.6603 120.153 73.3554 120.214 73.0788 120.335C72.8023 120.453 72.5807 120.621 72.4141 120.841C72.2474 121.061 72.1584 121.318 72.147 121.614H69.7891C69.8004 120.943 69.9917 120.352 70.3629 119.841C70.7341 119.33 71.2341 118.93 71.8629 118.642C72.4955 118.35 73.2095 118.205 74.005 118.205C74.808 118.205 75.5107 118.35 76.1129 118.642C76.7152 118.934 77.183 119.328 77.5163 119.824C77.8535 120.316 78.0201 120.869 78.0163 121.483C78.0201 122.134 77.8175 122.678 77.4084 123.114C77.0031 123.549 76.4747 123.826 75.8232 123.943V124.034C76.6792 124.144 77.3307 124.441 77.7777 124.926C78.2285 125.407 78.4519 126.009 78.4482 126.733C78.4519 127.396 78.2607 127.985 77.8743 128.5C77.4917 129.015 76.9633 129.42 76.2891 129.716C75.6148 130.011 74.8421 130.159 73.9709 130.159Z" fill="white" fill-opacity="0.95"/>
<rect x="440" y="60" width="28" height="28" rx="14" fill="#DA0087"/>
<rect x="441" y="61" width="26" height="26" rx="13" stroke="white" stroke-opacity="0.9" stroke-width="2"/>
<path d="M449.904 80V78.2273L454.046 74.392C454.398 74.0511 454.694 73.7443 454.933 73.4716C455.175 73.1989 455.359 72.9318 455.484 72.6705C455.609 72.4053 455.671 72.1193 455.671 71.8125C455.671 71.4716 455.594 71.178 455.438 70.9318C455.283 70.6818 455.071 70.4905 454.802 70.358C454.533 70.2216 454.228 70.1534 453.887 70.1534C453.531 70.1534 453.22 70.2254 452.955 70.3693C452.69 70.5133 452.486 70.7197 452.342 70.9886C452.198 71.2576 452.126 71.5777 452.126 71.9489H449.79C449.79 71.1875 449.963 70.5265 450.308 69.9659C450.652 69.4053 451.135 68.9716 451.756 68.6648C452.378 68.358 453.094 68.2045 453.904 68.2045C454.737 68.2045 455.463 68.3523 456.08 68.6477C456.701 68.9394 457.184 69.3447 457.529 69.8636C457.874 70.3826 458.046 70.9773 458.046 71.6477C458.046 72.0871 457.959 72.5208 457.785 72.9489C457.614 73.3769 457.309 73.8523 456.87 74.375C456.431 74.8939 455.811 75.517 455.012 76.2443L453.313 77.9091V77.9886H458.2V80H449.904Z" fill="white" fill-opacity="0.95"/>
<defs>
<clipPath id="clip0_2102_36116">
<rect width="200" height="21" fill="white" transform="translate(96.1221 132.912)"/>
</clipPath>
</defs>
</svg>
