<svg width="1150" height="401" viewBox="0 0 1150 401" fill="none" xmlns="http://www.w3.org/2000/svg">
<rect width="1150" height="401" rx="16" fill="#1A1A1A"/>
<path d="M715.233 207V196.818H716.466V205.906H721.199V207H715.233ZM725.196 207.179C724.712 207.179 724.273 207.088 723.879 206.906C723.484 206.72 723.171 206.453 722.939 206.105C722.707 205.754 722.591 205.33 722.591 204.832C722.591 204.395 722.677 204.04 722.849 203.768C723.022 203.493 723.252 203.278 723.54 203.122C723.829 202.966 724.147 202.85 724.495 202.774C724.846 202.695 725.199 202.632 725.554 202.585C726.018 202.526 726.394 202.481 726.683 202.451C726.974 202.418 727.186 202.363 727.319 202.287C727.455 202.211 727.523 202.078 727.523 201.889V201.849C727.523 201.359 727.388 200.978 727.12 200.706C726.855 200.434 726.452 200.298 725.912 200.298C725.352 200.298 724.913 200.421 724.594 200.666C724.276 200.911 724.053 201.173 723.923 201.452L722.81 201.054C723.009 200.59 723.274 200.229 723.605 199.97C723.94 199.708 724.304 199.526 724.699 199.423C725.097 199.317 725.488 199.264 725.872 199.264C726.117 199.264 726.399 199.294 726.717 199.354C727.039 199.41 727.349 199.528 727.647 199.707C727.949 199.886 728.199 200.156 728.398 200.517C728.597 200.878 728.696 201.362 728.696 201.969V207H727.523V205.966H727.463C727.384 206.132 727.251 206.309 727.065 206.498C726.88 206.687 726.633 206.848 726.325 206.98C726.016 207.113 725.64 207.179 725.196 207.179ZM725.375 206.125C725.839 206.125 726.23 206.034 726.548 205.852C726.87 205.669 727.112 205.434 727.274 205.146C727.44 204.857 727.523 204.554 727.523 204.236V203.162C727.473 203.222 727.364 203.276 727.195 203.326C727.029 203.372 726.837 203.414 726.618 203.45C726.402 203.483 726.192 203.513 725.987 203.54C725.784 203.563 725.62 203.583 725.494 203.599C725.189 203.639 724.904 203.704 724.639 203.793C724.377 203.879 724.165 204.01 724.003 204.186C723.844 204.358 723.764 204.594 723.764 204.892C723.764 205.3 723.915 205.608 724.217 205.817C724.522 206.022 724.908 206.125 725.375 206.125ZM730.997 207V196.818H732.17V200.577H732.269C732.356 200.444 732.475 200.275 732.627 200.07C732.783 199.861 733.005 199.675 733.294 199.513C733.585 199.347 733.98 199.264 734.477 199.264C735.12 199.264 735.686 199.425 736.177 199.746C736.668 200.068 737.05 200.524 737.325 201.114C737.601 201.704 737.738 202.4 737.738 203.202C737.738 204.01 737.601 204.711 737.325 205.305C737.05 205.895 736.669 206.352 736.182 206.677C735.695 206.998 735.133 207.159 734.497 207.159C734.006 207.159 733.613 207.078 733.318 206.915C733.023 206.75 732.796 206.562 732.637 206.354C732.478 206.142 732.356 205.966 732.269 205.827H732.13V207H730.997ZM732.15 203.182C732.15 203.759 732.235 204.267 732.404 204.708C732.573 205.146 732.82 205.489 733.144 205.737C733.469 205.982 733.867 206.105 734.338 206.105C734.828 206.105 735.237 205.976 735.566 205.717C735.897 205.455 736.146 205.104 736.311 204.663C736.48 204.219 736.565 203.725 736.565 203.182C736.565 202.645 736.482 202.161 736.316 201.73C736.154 201.296 735.907 200.953 735.575 200.701C735.247 200.446 734.835 200.318 734.338 200.318C733.86 200.318 733.459 200.439 733.134 200.681C732.81 200.92 732.564 201.254 732.399 201.685C732.233 202.113 732.15 202.612 732.15 203.182ZM742.735 207.159C741.999 207.159 741.364 206.997 740.83 206.672C740.3 206.344 739.891 205.886 739.602 205.3C739.317 204.71 739.175 204.024 739.175 203.241C739.175 202.459 739.317 201.77 739.602 201.173C739.891 200.573 740.292 200.106 740.806 199.771C741.323 199.433 741.926 199.264 742.615 199.264C743.013 199.264 743.406 199.33 743.794 199.463C744.181 199.596 744.534 199.811 744.852 200.109C745.171 200.404 745.424 200.795 745.613 201.283C745.802 201.77 745.896 202.37 745.896 203.082V203.58H740.01V202.565H744.703C744.703 202.134 744.617 201.75 744.445 201.412C744.276 201.074 744.034 200.807 743.719 200.612C743.407 200.416 743.039 200.318 742.615 200.318C742.148 200.318 741.744 200.434 741.402 200.666C741.064 200.895 740.804 201.193 740.622 201.561C740.439 201.929 740.348 202.323 740.348 202.744V203.42C740.348 203.997 740.448 204.486 740.646 204.887C740.849 205.285 741.129 205.588 741.487 205.797C741.845 206.002 742.261 206.105 742.735 206.105C743.043 206.105 743.321 206.062 743.57 205.976C743.822 205.886 744.039 205.754 744.221 205.578C744.403 205.399 744.544 205.177 744.644 204.912L745.777 205.23C745.658 205.615 745.457 205.953 745.176 206.244C744.894 206.533 744.546 206.758 744.132 206.92C743.717 207.08 743.252 207.159 742.735 207.159ZM748.855 196.818V207H747.681V196.818H748.855Z" fill="white" fill-opacity="0.95"/>
<g clip-path="url(#clip0_2102_35974)">
<rect width="174" height="4" transform="translate(758 200)" fill="#8F8F8F"/>
<rect width="87" height="4" transform="translate(758 200)" fill="#3492EB"/>
</g>
<path d="M941.233 207V196.818H942.466V201.352H947.895V196.818H949.128V207H947.895V202.446H942.466V207H941.233ZM954.639 207.159C953.903 207.159 953.268 206.997 952.735 206.672C952.204 206.344 951.795 205.886 951.507 205.3C951.222 204.71 951.079 204.024 951.079 203.241C951.079 202.459 951.222 201.77 951.507 201.173C951.795 200.573 952.196 200.106 952.71 199.771C953.227 199.433 953.83 199.264 954.52 199.264C954.917 199.264 955.31 199.33 955.698 199.463C956.086 199.596 956.439 199.811 956.757 200.109C957.075 200.404 957.328 200.795 957.517 201.283C957.706 201.77 957.801 202.37 957.801 203.082V203.58H951.914V202.565H956.608C956.608 202.134 956.521 201.75 956.349 201.412C956.18 201.074 955.938 200.807 955.623 200.612C955.312 200.416 954.944 200.318 954.52 200.318C954.052 200.318 953.648 200.434 953.306 200.666C952.968 200.895 952.708 201.193 952.526 201.561C952.344 201.929 952.252 202.323 952.252 202.744V203.42C952.252 203.997 952.352 204.486 952.551 204.887C952.753 205.285 953.033 205.588 953.391 205.797C953.749 206.002 954.165 206.105 954.639 206.105C954.947 206.105 955.225 206.062 955.474 205.976C955.726 205.886 955.943 205.754 956.125 205.578C956.308 205.399 956.449 205.177 956.548 204.912L957.681 205.23C957.562 205.615 957.362 205.953 957.08 206.244C956.798 206.533 956.45 206.758 956.036 206.92C955.622 207.08 955.156 207.159 954.639 207.159ZM960.759 196.818V207H959.586V196.818H960.759ZM962.908 209.864V199.364H964.041V200.577H964.181C964.267 200.444 964.386 200.275 964.539 200.07C964.694 199.861 964.916 199.675 965.205 199.513C965.496 199.347 965.891 199.264 966.388 199.264C967.031 199.264 967.598 199.425 968.088 199.746C968.579 200.068 968.962 200.524 969.237 201.114C969.512 201.704 969.649 202.4 969.649 203.202C969.649 204.01 969.512 204.711 969.237 205.305C968.962 205.895 968.58 206.352 968.093 206.677C967.606 206.998 967.044 207.159 966.408 207.159C965.917 207.159 965.525 207.078 965.23 206.915C964.935 206.75 964.708 206.562 964.548 206.354C964.389 206.142 964.267 205.966 964.181 205.827H964.081V209.864H962.908ZM964.061 203.182C964.061 203.759 964.146 204.267 964.315 204.708C964.484 205.146 964.731 205.489 965.056 205.737C965.38 205.982 965.778 206.105 966.249 206.105C966.739 206.105 967.149 205.976 967.477 205.717C967.808 205.455 968.057 205.104 968.222 204.663C968.392 204.219 968.476 203.725 968.476 203.182C968.476 202.645 968.393 202.161 968.227 201.73C968.065 201.296 967.818 200.953 967.487 200.701C967.159 200.446 966.746 200.318 966.249 200.318C965.771 200.318 965.37 200.439 965.046 200.681C964.721 200.92 964.476 201.254 964.31 201.685C964.144 202.113 964.061 202.612 964.061 203.182ZM974.641 207.159C973.905 207.159 973.27 206.997 972.737 206.672C972.206 206.344 971.797 205.886 971.509 205.3C971.224 204.71 971.081 204.024 971.081 203.241C971.081 202.459 971.224 201.77 971.509 201.173C971.797 200.573 972.198 200.106 972.712 199.771C973.229 199.433 973.832 199.264 974.521 199.264C974.919 199.264 975.312 199.33 975.7 199.463C976.088 199.596 976.441 199.811 976.759 200.109C977.077 200.404 977.33 200.795 977.519 201.283C977.708 201.77 977.803 202.37 977.803 203.082V203.58H971.916V202.565H976.61C976.61 202.134 976.523 201.75 976.351 201.412C976.182 201.074 975.94 200.807 975.625 200.612C975.314 200.416 974.946 200.318 974.521 200.318C974.054 200.318 973.65 200.434 973.308 200.666C972.97 200.895 972.71 201.193 972.528 201.561C972.346 201.929 972.254 202.323 972.254 202.744V203.42C972.254 203.997 972.354 204.486 972.553 204.887C972.755 205.285 973.035 205.588 973.393 205.797C973.751 206.002 974.167 206.105 974.641 206.105C974.949 206.105 975.227 206.062 975.476 205.976C975.728 205.886 975.945 205.754 976.127 205.578C976.31 205.399 976.45 205.177 976.55 204.912L977.683 205.23C977.564 205.615 977.364 205.953 977.082 206.244C976.8 206.533 976.452 206.758 976.038 206.92C975.624 207.08 975.158 207.159 974.641 207.159ZM979.588 207V199.364H980.721V200.517H980.801C980.94 200.139 981.192 199.833 981.556 199.597C981.921 199.362 982.332 199.244 982.789 199.244C982.875 199.244 982.983 199.246 983.112 199.249C983.242 199.253 983.339 199.258 983.406 199.264V200.457C983.366 200.447 983.275 200.433 983.132 200.413C982.993 200.389 982.846 200.378 982.69 200.378C982.319 200.378 981.987 200.456 981.695 200.612C981.407 200.764 981.178 200.976 981.009 201.248C980.844 201.516 980.761 201.823 980.761 202.168V207H979.588ZM992.055 199.364V200.358H988.098V199.364H992.055ZM989.251 197.534H990.424V204.812C990.424 205.144 990.472 205.393 990.569 205.558C990.668 205.721 990.794 205.83 990.946 205.886C991.102 205.939 991.266 205.966 991.439 205.966C991.568 205.966 991.674 205.959 991.757 205.946C991.84 205.929 991.906 205.916 991.956 205.906L992.194 206.96C992.115 206.99 992.004 207.02 991.861 207.05C991.719 207.083 991.538 207.099 991.319 207.099C990.988 207.099 990.663 207.028 990.345 206.886C990.03 206.743 989.768 206.526 989.559 206.234C989.354 205.943 989.251 205.575 989.251 205.131V197.534ZM996.94 207.159C996.204 207.159 995.569 206.997 995.036 206.672C994.505 206.344 994.096 205.886 993.808 205.3C993.522 204.71 993.38 204.024 993.38 203.241C993.38 202.459 993.522 201.77 993.808 201.173C994.096 200.573 994.497 200.106 995.011 199.771C995.528 199.433 996.131 199.264 996.82 199.264C997.218 199.264 997.611 199.33 997.999 199.463C998.386 199.596 998.739 199.811 999.058 200.109C999.376 200.404 999.629 200.795 999.818 201.283C1000.01 201.77 1000.1 202.37 1000.1 203.082V203.58H994.215V202.565H998.908C998.908 202.134 998.822 201.75 998.65 201.412C998.481 201.074 998.239 200.807 997.924 200.612C997.612 200.416 997.245 200.318 996.82 200.318C996.353 200.318 995.949 200.434 995.607 200.666C995.269 200.895 995.009 201.193 994.827 201.561C994.644 201.929 994.553 202.323 994.553 202.744V203.42C994.553 203.997 994.653 204.486 994.852 204.887C995.054 205.285 995.334 205.588 995.692 205.797C996.05 206.002 996.466 206.105 996.94 206.105C997.248 206.105 997.526 206.062 997.775 205.976C998.027 205.886 998.244 205.754 998.426 205.578C998.608 205.399 998.749 205.177 998.849 204.912L999.982 205.23C999.863 205.615 999.662 205.953 999.381 206.244C999.099 206.533 998.751 206.758 998.337 206.92C997.922 207.08 997.457 207.159 996.94 207.159ZM1002.56 199.364L1004.39 202.486L1006.22 199.364H1007.57L1005.1 203.182L1007.57 207H1006.22L1004.39 204.037L1002.56 207H1001.2L1003.63 203.182L1001.2 199.364H1002.56ZM1012.56 199.364V200.358H1008.61V199.364H1012.56ZM1009.76 197.534H1010.93V204.812C1010.93 205.144 1010.98 205.393 1011.08 205.558C1011.18 205.721 1011.3 205.83 1011.45 205.886C1011.61 205.939 1011.77 205.966 1011.95 205.966C1012.08 205.966 1012.18 205.959 1012.26 205.946C1012.35 205.929 1012.41 205.916 1012.46 205.906L1012.7 206.96C1012.62 206.99 1012.51 207.02 1012.37 207.05C1012.23 207.083 1012.05 207.099 1011.83 207.099C1011.5 207.099 1011.17 207.028 1010.85 206.886C1010.54 206.743 1010.28 206.526 1010.07 206.234C1009.86 205.943 1009.76 205.575 1009.76 205.131V197.534Z" fill="white" fill-opacity="0.7"/>
<path d="M727 120V182" stroke="#DA0087"/>
<path d="M727 190L723 182H731L727 190Z" fill="#DA0087"/>
<rect x="694" y="100" width="66" height="28" rx="14" fill="#DA0087"/>
<path d="M707.409 120V108.364H708.818V118.75H714.227V120H707.409ZM718.795 120.205C718.242 120.205 717.741 120.1 717.29 119.892C716.839 119.68 716.481 119.375 716.216 118.977C715.951 118.576 715.818 118.091 715.818 117.523C715.818 117.023 715.917 116.617 716.114 116.307C716.311 115.992 716.574 115.746 716.903 115.568C717.233 115.39 717.597 115.258 717.994 115.17C718.396 115.08 718.799 115.008 719.205 114.955C719.735 114.886 720.165 114.835 720.494 114.801C720.828 114.763 721.07 114.701 721.222 114.614C721.377 114.527 721.455 114.375 721.455 114.159V114.114C721.455 113.553 721.301 113.117 720.994 112.807C720.691 112.496 720.231 112.341 719.614 112.341C718.973 112.341 718.472 112.481 718.108 112.761C717.744 113.042 717.489 113.341 717.341 113.659L716.068 113.205C716.295 112.674 716.598 112.261 716.977 111.966C717.36 111.667 717.777 111.458 718.227 111.341C718.682 111.22 719.129 111.159 719.568 111.159C719.848 111.159 720.17 111.193 720.534 111.261C720.902 111.326 721.256 111.46 721.597 111.665C721.941 111.869 722.227 112.178 722.455 112.591C722.682 113.004 722.795 113.557 722.795 114.25V120H721.455V118.818H721.386C721.295 119.008 721.144 119.21 720.932 119.426C720.72 119.642 720.438 119.826 720.085 119.977C719.733 120.129 719.303 120.205 718.795 120.205ZM719 119C719.53 119 719.977 118.896 720.341 118.688C720.708 118.479 720.985 118.21 721.17 117.881C721.36 117.551 721.455 117.205 721.455 116.841V115.614C721.398 115.682 721.273 115.744 721.08 115.801C720.89 115.854 720.67 115.902 720.42 115.943C720.174 115.981 719.934 116.015 719.699 116.045C719.468 116.072 719.28 116.095 719.136 116.114C718.788 116.159 718.462 116.233 718.159 116.335C717.86 116.434 717.617 116.583 717.432 116.784C717.25 116.981 717.159 117.25 717.159 117.591C717.159 118.057 717.331 118.409 717.676 118.648C718.025 118.883 718.466 119 719 119ZM725.425 120V108.364H726.766V112.659H726.879C726.978 112.508 727.114 112.314 727.288 112.08C727.466 111.841 727.72 111.629 728.05 111.443C728.383 111.254 728.834 111.159 729.402 111.159C730.137 111.159 730.785 111.343 731.345 111.71C731.906 112.078 732.343 112.598 732.658 113.273C732.972 113.947 733.129 114.742 733.129 115.659C733.129 116.583 732.972 117.384 732.658 118.062C732.343 118.737 731.908 119.259 731.351 119.631C730.794 119.998 730.152 120.182 729.425 120.182C728.864 120.182 728.415 120.089 728.078 119.903C727.741 119.714 727.482 119.5 727.3 119.261C727.118 119.019 726.978 118.818 726.879 118.659H726.72V120H725.425ZM726.743 115.636C726.743 116.295 726.839 116.877 727.033 117.381C727.226 117.881 727.508 118.273 727.879 118.557C728.25 118.837 728.705 118.977 729.243 118.977C729.804 118.977 730.271 118.83 730.646 118.534C731.025 118.235 731.309 117.833 731.499 117.33C731.692 116.822 731.788 116.258 731.788 115.636C731.788 115.023 731.694 114.47 731.504 113.977C731.319 113.481 731.036 113.089 730.658 112.801C730.283 112.509 729.811 112.364 729.243 112.364C728.697 112.364 728.239 112.502 727.868 112.778C727.497 113.051 727.216 113.434 727.027 113.926C726.838 114.415 726.743 114.985 726.743 115.636ZM738.839 120.182C737.999 120.182 737.273 119.996 736.663 119.625C736.057 119.25 735.589 118.727 735.26 118.057C734.934 117.383 734.771 116.598 734.771 115.705C734.771 114.811 734.934 114.023 735.26 113.341C735.589 112.655 736.048 112.121 736.635 111.739C737.226 111.352 737.915 111.159 738.703 111.159C739.158 111.159 739.607 111.235 740.05 111.386C740.493 111.538 740.896 111.784 741.26 112.125C741.624 112.462 741.913 112.909 742.129 113.466C742.345 114.023 742.453 114.708 742.453 115.523V116.091H735.726V114.932H741.089C741.089 114.439 740.991 114 740.794 113.614C740.601 113.227 740.324 112.922 739.964 112.699C739.608 112.475 739.188 112.364 738.703 112.364C738.169 112.364 737.707 112.496 737.317 112.761C736.93 113.023 736.633 113.364 736.425 113.784C736.216 114.205 736.112 114.655 736.112 115.136V115.909C736.112 116.568 736.226 117.127 736.453 117.585C736.684 118.04 737.004 118.386 737.413 118.625C737.822 118.86 738.298 118.977 738.839 118.977C739.192 118.977 739.51 118.928 739.794 118.83C740.082 118.727 740.33 118.576 740.538 118.375C740.747 118.17 740.908 117.917 741.021 117.614L742.317 117.977C742.18 118.417 741.951 118.803 741.629 119.136C741.307 119.466 740.91 119.723 740.436 119.909C739.963 120.091 739.43 120.182 738.839 120.182ZM745.834 108.364V120H744.493V108.364H745.834Z" fill="white"/>
<path d="M886.5 120V182" stroke="#DA0087"/>
<path d="M886.5 190L882.5 182H890.5L886.5 190Z" fill="#DA0087"/>
<rect x="826" y="100" width="121" height="28" rx="14" fill="#DA0087"/>
<path d="M839.409 120V108.364H843.477C844.288 108.364 844.956 108.504 845.483 108.784C846.009 109.061 846.402 109.434 846.659 109.903C846.917 110.369 847.045 110.886 847.045 111.455C847.045 111.955 846.956 112.367 846.778 112.693C846.604 113.019 846.373 113.277 846.085 113.466C845.801 113.655 845.492 113.795 845.159 113.886V114C845.515 114.023 845.873 114.148 846.233 114.375C846.593 114.602 846.894 114.928 847.136 115.352C847.379 115.777 847.5 116.295 847.5 116.909C847.5 117.492 847.367 118.017 847.102 118.483C846.837 118.949 846.419 119.318 845.847 119.591C845.275 119.864 844.53 120 843.614 120H839.409ZM840.818 118.75H843.614C844.534 118.75 845.188 118.572 845.574 118.216C845.964 117.856 846.159 117.42 846.159 116.909C846.159 116.515 846.059 116.152 845.858 115.818C845.657 115.481 845.371 115.212 845 115.011C844.629 114.807 844.189 114.705 843.682 114.705H840.818V118.75ZM840.818 113.477H843.432C843.856 113.477 844.239 113.394 844.58 113.227C844.924 113.061 845.197 112.826 845.398 112.523C845.602 112.22 845.705 111.864 845.705 111.455C845.705 110.943 845.527 110.509 845.17 110.153C844.814 109.794 844.25 109.614 843.477 109.614H840.818V113.477ZM852.202 120.205C851.649 120.205 851.147 120.1 850.696 119.892C850.245 119.68 849.887 119.375 849.622 118.977C849.357 118.576 849.224 118.091 849.224 117.523C849.224 117.023 849.323 116.617 849.52 116.307C849.717 115.992 849.98 115.746 850.31 115.568C850.639 115.39 851.003 115.258 851.401 115.17C851.802 115.08 852.205 115.008 852.611 114.955C853.141 114.886 853.571 114.835 853.901 114.801C854.234 114.763 854.476 114.701 854.628 114.614C854.783 114.527 854.861 114.375 854.861 114.159V114.114C854.861 113.553 854.707 113.117 854.401 112.807C854.098 112.496 853.637 112.341 853.02 112.341C852.38 112.341 851.878 112.481 851.514 112.761C851.151 113.042 850.895 113.341 850.747 113.659L849.474 113.205C849.702 112.674 850.005 112.261 850.384 111.966C850.766 111.667 851.183 111.458 851.634 111.341C852.088 111.22 852.535 111.159 852.974 111.159C853.255 111.159 853.577 111.193 853.94 111.261C854.308 111.326 854.662 111.46 855.003 111.665C855.348 111.869 855.634 112.178 855.861 112.591C856.088 113.004 856.202 113.557 856.202 114.25V120H854.861V118.818H854.793C854.702 119.008 854.55 119.21 854.338 119.426C854.126 119.642 853.844 119.826 853.491 119.977C853.139 120.129 852.709 120.205 852.202 120.205ZM852.406 119C852.937 119 853.384 118.896 853.747 118.688C854.115 118.479 854.391 118.21 854.577 117.881C854.766 117.551 854.861 117.205 854.861 116.841V115.614C854.804 115.682 854.679 115.744 854.486 115.801C854.296 115.854 854.077 115.902 853.827 115.943C853.58 115.981 853.34 116.015 853.105 116.045C852.874 116.072 852.687 116.095 852.543 116.114C852.194 116.159 851.868 116.233 851.565 116.335C851.266 116.434 851.024 116.583 850.838 116.784C850.656 116.981 850.565 117.25 850.565 117.591C850.565 118.057 850.738 118.409 851.082 118.648C851.431 118.883 851.872 119 852.406 119ZM858.649 120V111.273H859.945V112.591H860.036C860.195 112.159 860.482 111.809 860.899 111.54C861.316 111.271 861.786 111.136 862.308 111.136C862.407 111.136 862.53 111.138 862.678 111.142C862.825 111.146 862.937 111.152 863.013 111.159V112.523C862.967 112.511 862.863 112.494 862.7 112.472C862.541 112.445 862.373 112.432 862.195 112.432C861.77 112.432 861.392 112.521 861.058 112.699C860.729 112.873 860.467 113.116 860.274 113.426C860.085 113.733 859.99 114.083 859.99 114.477V120H858.649ZM870.693 108.364V120H869.284V108.364H870.693ZM874.678 114.75V120H873.337V111.273H874.632V112.636H874.746C874.95 112.193 875.261 111.837 875.678 111.568C876.094 111.295 876.632 111.159 877.291 111.159C877.882 111.159 878.399 111.28 878.842 111.523C879.286 111.761 879.63 112.125 879.876 112.614C880.123 113.098 880.246 113.712 880.246 114.455V120H878.905V114.545C878.905 113.86 878.727 113.326 878.371 112.943C878.015 112.557 877.526 112.364 876.905 112.364C876.477 112.364 876.094 112.456 875.757 112.642C875.424 112.828 875.161 113.098 874.967 113.455C874.774 113.811 874.678 114.242 874.678 114.75ZM885.991 120.182C885.264 120.182 884.622 119.998 884.065 119.631C883.509 119.259 883.073 118.737 882.759 118.062C882.444 117.384 882.287 116.583 882.287 115.659C882.287 114.742 882.444 113.947 882.759 113.273C883.073 112.598 883.51 112.078 884.071 111.71C884.632 111.343 885.279 111.159 886.014 111.159C886.582 111.159 887.031 111.254 887.361 111.443C887.694 111.629 887.948 111.841 888.122 112.08C888.3 112.314 888.438 112.508 888.537 112.659H888.651V108.364H889.991V120H888.696V118.659H888.537C888.438 118.818 888.298 119.019 888.116 119.261C887.935 119.5 887.675 119.714 887.338 119.903C887.001 120.089 886.552 120.182 885.991 120.182ZM886.173 118.977C886.711 118.977 887.166 118.837 887.537 118.557C887.908 118.273 888.19 117.881 888.384 117.381C888.577 116.877 888.673 116.295 888.673 115.636C888.673 114.985 888.579 114.415 888.389 113.926C888.2 113.434 887.92 113.051 887.548 112.778C887.177 112.502 886.719 112.364 886.173 112.364C885.605 112.364 885.132 112.509 884.753 112.801C884.378 113.089 884.096 113.481 883.906 113.977C883.721 114.47 883.628 115.023 883.628 115.636C883.628 116.258 883.723 116.822 883.912 117.33C884.105 117.833 884.389 118.235 884.764 118.534C885.143 118.83 885.613 118.977 886.173 118.977ZM892.634 120V111.273H893.974V120H892.634ZM893.315 109.818C893.054 109.818 892.829 109.729 892.639 109.551C892.454 109.373 892.361 109.159 892.361 108.909C892.361 108.659 892.454 108.445 892.639 108.267C892.829 108.089 893.054 108 893.315 108C893.577 108 893.8 108.089 893.986 108.267C894.175 108.445 894.27 108.659 894.27 108.909C894.27 109.159 894.175 109.373 893.986 109.551C893.8 109.729 893.577 109.818 893.315 109.818ZM899.976 120.182C899.158 120.182 898.453 119.989 897.862 119.602C897.271 119.216 896.817 118.684 896.499 118.006C896.18 117.328 896.021 116.553 896.021 115.682C896.021 114.795 896.184 114.013 896.51 113.335C896.839 112.653 897.298 112.121 897.885 111.739C898.476 111.352 899.165 111.159 899.953 111.159C900.567 111.159 901.12 111.273 901.612 111.5C902.105 111.727 902.508 112.045 902.822 112.455C903.137 112.864 903.332 113.341 903.408 113.886H902.067C901.964 113.489 901.737 113.136 901.385 112.83C901.036 112.519 900.567 112.364 899.976 112.364C899.453 112.364 898.995 112.5 898.601 112.773C898.211 113.042 897.906 113.422 897.686 113.915C897.47 114.403 897.362 114.977 897.362 115.636C897.362 116.311 897.468 116.898 897.68 117.398C897.896 117.898 898.199 118.286 898.589 118.562C898.983 118.839 899.446 118.977 899.976 118.977C900.324 118.977 900.641 118.917 900.925 118.795C901.209 118.674 901.449 118.5 901.646 118.273C901.843 118.045 901.983 117.773 902.067 117.455H903.408C903.332 117.97 903.144 118.434 902.845 118.847C902.55 119.256 902.158 119.581 901.669 119.824C901.184 120.062 900.62 120.182 899.976 120.182ZM907.936 120.205C907.383 120.205 906.881 120.1 906.43 119.892C905.98 119.68 905.622 119.375 905.357 118.977C905.091 118.576 904.959 118.091 904.959 117.523C904.959 117.023 905.057 116.617 905.254 116.307C905.451 115.992 905.714 115.746 906.044 115.568C906.374 115.39 906.737 115.258 907.135 115.17C907.536 115.08 907.94 115.008 908.345 114.955C908.875 114.886 909.305 114.835 909.635 114.801C909.968 114.763 910.211 114.701 910.362 114.614C910.518 114.527 910.595 114.375 910.595 114.159V114.114C910.595 113.553 910.442 113.117 910.135 112.807C909.832 112.496 909.372 112.341 908.754 112.341C908.114 112.341 907.612 112.481 907.249 112.761C906.885 113.042 906.629 113.341 906.482 113.659L905.209 113.205C905.436 112.674 905.739 112.261 906.118 111.966C906.5 111.667 906.917 111.458 907.368 111.341C907.822 111.22 908.269 111.159 908.709 111.159C908.989 111.159 909.311 111.193 909.675 111.261C910.042 111.326 910.396 111.46 910.737 111.665C911.082 111.869 911.368 112.178 911.595 112.591C911.822 113.004 911.936 113.557 911.936 114.25V120H910.595V118.818H910.527C910.436 119.008 910.285 119.21 910.072 119.426C909.86 119.642 909.578 119.826 909.226 119.977C908.874 120.129 908.444 120.205 907.936 120.205ZM908.141 119C908.671 119 909.118 118.896 909.482 118.688C909.849 118.479 910.125 118.21 910.311 117.881C910.5 117.551 910.595 117.205 910.595 116.841V115.614C910.538 115.682 910.413 115.744 910.22 115.801C910.031 115.854 909.811 115.902 909.561 115.943C909.315 115.981 909.074 116.015 908.839 116.045C908.608 116.072 908.421 116.095 908.277 116.114C907.929 116.159 907.603 116.233 907.3 116.335C907 116.434 906.758 116.583 906.572 116.784C906.391 116.981 906.3 117.25 906.3 117.591C906.3 118.057 906.472 118.409 906.817 118.648C907.165 118.883 907.607 119 908.141 119ZM918.179 111.273V112.409H913.656V111.273H918.179ZM914.974 109.182H916.315V117.5C916.315 117.879 916.37 118.163 916.48 118.352C916.594 118.538 916.738 118.663 916.912 118.727C917.09 118.788 917.277 118.818 917.474 118.818C917.622 118.818 917.743 118.811 917.838 118.795C917.933 118.777 918.009 118.761 918.065 118.75L918.338 119.955C918.247 119.989 918.12 120.023 917.957 120.057C917.795 120.095 917.588 120.114 917.338 120.114C916.959 120.114 916.588 120.032 916.224 119.869C915.865 119.706 915.565 119.458 915.327 119.125C915.092 118.792 914.974 118.371 914.974 117.864V109.182ZM923.648 120.182C922.86 120.182 922.169 119.994 921.574 119.619C920.983 119.244 920.521 118.72 920.188 118.045C919.858 117.371 919.693 116.583 919.693 115.682C919.693 114.773 919.858 113.979 920.188 113.301C920.521 112.623 920.983 112.097 921.574 111.722C922.169 111.347 922.86 111.159 923.648 111.159C924.436 111.159 925.125 111.347 925.716 111.722C926.311 112.097 926.773 112.623 927.102 113.301C927.436 113.979 927.602 114.773 927.602 115.682C927.602 116.583 927.436 117.371 927.102 118.045C926.773 118.72 926.311 119.244 925.716 119.619C925.125 119.994 924.436 120.182 923.648 120.182ZM923.648 118.977C924.246 118.977 924.739 118.824 925.125 118.517C925.511 118.21 925.797 117.807 925.983 117.307C926.169 116.807 926.261 116.265 926.261 115.682C926.261 115.098 926.169 114.555 925.983 114.051C925.797 113.547 925.511 113.14 925.125 112.83C924.739 112.519 924.246 112.364 923.648 112.364C923.049 112.364 922.557 112.519 922.17 112.83C921.784 113.14 921.498 113.547 921.312 114.051C921.127 114.555 921.034 115.098 921.034 115.682C921.034 116.265 921.127 116.807 921.312 117.307C921.498 117.807 921.784 118.21 922.17 118.517C922.557 118.824 923.049 118.977 923.648 118.977ZM929.649 120V111.273H930.945V112.591H931.036C931.195 112.159 931.482 111.809 931.899 111.54C932.316 111.271 932.786 111.136 933.308 111.136C933.407 111.136 933.53 111.138 933.678 111.142C933.825 111.146 933.937 111.152 934.013 111.159V112.523C933.967 112.511 933.863 112.494 933.7 112.472C933.541 112.445 933.373 112.432 933.195 112.432C932.77 112.432 932.392 112.521 932.058 112.699C931.729 112.873 931.467 113.116 931.274 113.426C931.085 113.733 930.99 114.083 930.99 114.477V120H929.649Z" fill="white"/>
<path d="M828 281V224" stroke="#DA0087"/>
<path d="M828 216L824 224H832L828 216Z" fill="#DA0087"/>
<rect x="795" y="273" width="66" height="28" rx="14" fill="#DA0087"/>
<path d="M807.773 282.614V281.364H816.5V282.614H812.841V293H811.432V282.614H807.773ZM817.587 293V284.273H818.882V285.591H818.973C819.132 285.159 819.42 284.809 819.837 284.54C820.253 284.271 820.723 284.136 821.246 284.136C821.344 284.136 821.467 284.138 821.615 284.142C821.763 284.146 821.875 284.152 821.95 284.159V285.523C821.905 285.511 821.801 285.494 821.638 285.472C821.479 285.445 821.31 285.432 821.132 285.432C820.708 285.432 820.329 285.521 819.996 285.699C819.666 285.873 819.405 286.116 819.212 286.426C819.022 286.733 818.928 287.083 818.928 287.477V293H817.587ZM826.108 293.205C825.555 293.205 825.053 293.1 824.602 292.892C824.152 292.68 823.794 292.375 823.528 291.977C823.263 291.576 823.131 291.091 823.131 290.523C823.131 290.023 823.229 289.617 823.426 289.307C823.623 288.992 823.886 288.746 824.216 288.568C824.545 288.39 824.909 288.258 825.307 288.17C825.708 288.08 826.112 288.008 826.517 287.955C827.047 287.886 827.477 287.835 827.807 287.801C828.14 287.763 828.383 287.701 828.534 287.614C828.689 287.527 828.767 287.375 828.767 287.159V287.114C828.767 286.553 828.614 286.117 828.307 285.807C828.004 285.496 827.544 285.341 826.926 285.341C826.286 285.341 825.784 285.481 825.42 285.761C825.057 286.042 824.801 286.341 824.653 286.659L823.381 286.205C823.608 285.674 823.911 285.261 824.29 284.966C824.672 284.667 825.089 284.458 825.54 284.341C825.994 284.22 826.441 284.159 826.881 284.159C827.161 284.159 827.483 284.193 827.847 284.261C828.214 284.326 828.568 284.46 828.909 284.665C829.254 284.869 829.54 285.178 829.767 285.591C829.994 286.004 830.108 286.557 830.108 287.25V293H828.767V291.818H828.699C828.608 292.008 828.456 292.21 828.244 292.426C828.032 292.642 827.75 292.826 827.398 292.977C827.045 293.129 826.616 293.205 826.108 293.205ZM826.312 292C826.843 292 827.29 291.896 827.653 291.688C828.021 291.479 828.297 291.21 828.483 290.881C828.672 290.551 828.767 290.205 828.767 289.841V288.614C828.71 288.682 828.585 288.744 828.392 288.801C828.203 288.854 827.983 288.902 827.733 288.943C827.487 288.981 827.246 289.015 827.011 289.045C826.78 289.072 826.593 289.095 826.449 289.114C826.1 289.159 825.775 289.233 825.472 289.335C825.172 289.434 824.93 289.583 824.744 289.784C824.563 289.981 824.472 290.25 824.472 290.591C824.472 291.057 824.644 291.409 824.989 291.648C825.337 291.883 825.778 292 826.312 292ZM836.101 293.182C835.283 293.182 834.578 292.989 833.987 292.602C833.396 292.216 832.942 291.684 832.624 291.006C832.305 290.328 832.146 289.553 832.146 288.682C832.146 287.795 832.309 287.013 832.635 286.335C832.964 285.653 833.423 285.121 834.01 284.739C834.601 284.352 835.29 284.159 836.078 284.159C836.692 284.159 837.245 284.273 837.737 284.5C838.23 284.727 838.633 285.045 838.947 285.455C839.262 285.864 839.457 286.341 839.533 286.886H838.192C838.089 286.489 837.862 286.136 837.51 285.83C837.161 285.519 836.692 285.364 836.101 285.364C835.578 285.364 835.12 285.5 834.726 285.773C834.336 286.042 834.031 286.422 833.811 286.915C833.595 287.403 833.487 287.977 833.487 288.636C833.487 289.311 833.593 289.898 833.805 290.398C834.021 290.898 834.324 291.286 834.714 291.562C835.108 291.839 835.571 291.977 836.101 291.977C836.449 291.977 836.766 291.917 837.05 291.795C837.334 291.674 837.574 291.5 837.771 291.273C837.968 291.045 838.108 290.773 838.192 290.455H839.533C839.457 290.97 839.269 291.434 838.97 291.847C838.675 292.256 838.283 292.581 837.794 292.824C837.309 293.062 836.745 293.182 836.101 293.182ZM842.743 289.818L842.72 288.159H842.993L846.811 284.273H848.47L844.402 288.386H844.288L842.743 289.818ZM841.493 293V281.364H842.834V293H841.493ZM847.038 293L843.629 288.682L844.584 287.75L848.743 293H847.038Z" fill="white"/>
<path d="M990.5 281V224" stroke="#DA0087"/>
<path d="M990.5 216L986.5 224H994.5L990.5 216Z" fill="#DA0087"/>
<rect x="935" y="273" width="111" height="28" rx="14" fill="#DA0087"/>
<path d="M948.409 293V281.364H949.818V286.545H956.023V281.364H957.432V293H956.023V287.795H949.818V293H948.409ZM963.73 293.182C962.889 293.182 962.164 292.996 961.554 292.625C960.948 292.25 960.48 291.727 960.151 291.057C959.825 290.383 959.662 289.598 959.662 288.705C959.662 287.811 959.825 287.023 960.151 286.341C960.48 285.655 960.938 285.121 961.526 284.739C962.116 284.352 962.806 284.159 963.594 284.159C964.048 284.159 964.497 284.235 964.94 284.386C965.384 284.538 965.787 284.784 966.151 285.125C966.514 285.462 966.804 285.909 967.02 286.466C967.236 287.023 967.344 287.708 967.344 288.523V289.091H960.616V287.932H965.98C965.98 287.439 965.882 287 965.685 286.614C965.491 286.227 965.215 285.922 964.855 285.699C964.499 285.475 964.079 285.364 963.594 285.364C963.06 285.364 962.598 285.496 962.207 285.761C961.821 286.023 961.524 286.364 961.315 286.784C961.107 287.205 961.003 287.655 961.003 288.136V288.909C961.003 289.568 961.116 290.127 961.344 290.585C961.575 291.04 961.895 291.386 962.304 291.625C962.713 291.86 963.188 291.977 963.73 291.977C964.082 291.977 964.401 291.928 964.685 291.83C964.973 291.727 965.221 291.576 965.429 291.375C965.637 291.17 965.798 290.917 965.912 290.614L967.207 290.977C967.071 291.417 966.842 291.803 966.52 292.136C966.198 292.466 965.8 292.723 965.327 292.909C964.853 293.091 964.321 293.182 963.73 293.182ZM970.724 281.364V293H969.384V281.364H970.724ZM973.18 296.273V284.273H974.476V285.659H974.635C974.733 285.508 974.87 285.314 975.044 285.08C975.222 284.841 975.476 284.629 975.805 284.443C976.139 284.254 976.589 284.159 977.158 284.159C977.893 284.159 978.54 284.343 979.101 284.71C979.661 285.078 980.099 285.598 980.413 286.273C980.728 286.947 980.885 287.742 980.885 288.659C980.885 289.583 980.728 290.384 980.413 291.062C980.099 291.737 979.663 292.259 979.107 292.631C978.55 292.998 977.908 293.182 977.18 293.182C976.62 293.182 976.171 293.089 975.834 292.903C975.497 292.714 975.237 292.5 975.055 292.261C974.874 292.019 974.733 291.818 974.635 291.659H974.521V296.273H973.18ZM974.499 288.636C974.499 289.295 974.595 289.877 974.788 290.381C974.982 290.881 975.264 291.273 975.635 291.557C976.006 291.837 976.461 291.977 976.999 291.977C977.559 291.977 978.027 291.83 978.402 291.534C978.781 291.235 979.065 290.833 979.254 290.33C979.447 289.822 979.544 289.258 979.544 288.636C979.544 288.023 979.449 287.47 979.26 286.977C979.074 286.481 978.792 286.089 978.413 285.801C978.038 285.509 977.567 285.364 976.999 285.364C976.453 285.364 975.995 285.502 975.624 285.778C975.252 286.051 974.972 286.434 974.783 286.926C974.593 287.415 974.499 287.985 974.499 288.636ZM986.589 293.182C985.749 293.182 985.023 292.996 984.413 292.625C983.807 292.25 983.339 291.727 983.01 291.057C982.684 290.383 982.521 289.598 982.521 288.705C982.521 287.811 982.684 287.023 983.01 286.341C983.339 285.655 983.798 285.121 984.385 284.739C984.976 284.352 985.665 284.159 986.453 284.159C986.908 284.159 987.357 284.235 987.8 284.386C988.243 284.538 988.646 284.784 989.01 285.125C989.374 285.462 989.663 285.909 989.879 286.466C990.095 287.023 990.203 287.708 990.203 288.523V289.091H983.476V287.932H988.839C988.839 287.439 988.741 287 988.544 286.614C988.351 286.227 988.074 285.922 987.714 285.699C987.358 285.475 986.938 285.364 986.453 285.364C985.919 285.364 985.457 285.496 985.067 285.761C984.68 286.023 984.383 286.364 984.175 286.784C983.966 287.205 983.862 287.655 983.862 288.136V288.909C983.862 289.568 983.976 290.127 984.203 290.585C984.434 291.04 984.754 291.386 985.163 291.625C985.572 291.86 986.048 291.977 986.589 291.977C986.942 291.977 987.26 291.928 987.544 291.83C987.832 291.727 988.08 291.576 988.288 291.375C988.497 291.17 988.658 290.917 988.771 290.614L990.067 290.977C989.93 291.417 989.701 291.803 989.379 292.136C989.057 292.466 988.66 292.723 988.186 292.909C987.713 293.091 987.18 293.182 986.589 293.182ZM992.243 293V284.273H993.538V285.591H993.629C993.788 285.159 994.076 284.809 994.493 284.54C994.91 284.271 995.379 284.136 995.902 284.136C996 284.136 996.124 284.138 996.271 284.142C996.419 284.146 996.531 284.152 996.607 284.159V285.523C996.561 285.511 996.457 285.494 996.294 285.472C996.135 285.445 995.966 285.432 995.788 285.432C995.364 285.432 994.985 285.521 994.652 285.699C994.322 285.873 994.061 286.116 993.868 286.426C993.679 286.733 993.584 287.083 993.584 287.477V293H992.243ZM1002.24 282.614V281.364H1010.97V282.614H1007.31V293H1005.9V282.614H1002.24ZM1015.36 293.182C1014.51 293.182 1013.79 292.996 1013.18 292.625C1012.57 292.25 1012.11 291.727 1011.78 291.057C1011.45 290.383 1011.29 289.598 1011.29 288.705C1011.29 287.811 1011.45 287.023 1011.78 286.341C1012.11 285.655 1012.56 285.121 1013.15 284.739C1013.74 284.352 1014.43 284.159 1015.22 284.159C1015.67 284.159 1016.12 284.235 1016.57 284.386C1017.01 284.538 1017.41 284.784 1017.78 285.125C1018.14 285.462 1018.43 285.909 1018.64 286.466C1018.86 287.023 1018.97 287.708 1018.97 288.523V289.091H1012.24V287.932H1017.61C1017.61 287.439 1017.51 287 1017.31 286.614C1017.12 286.227 1016.84 285.922 1016.48 285.699C1016.12 285.475 1015.7 285.364 1015.22 285.364C1014.68 285.364 1014.22 285.496 1013.83 285.761C1013.45 286.023 1013.15 286.364 1012.94 286.784C1012.73 287.205 1012.63 287.655 1012.63 288.136V288.909C1012.63 289.568 1012.74 290.127 1012.97 290.585C1013.2 291.04 1013.52 291.386 1013.93 291.625C1014.34 291.86 1014.81 291.977 1015.36 291.977C1015.71 291.977 1016.03 291.928 1016.31 291.83C1016.6 291.727 1016.85 291.576 1017.05 291.375C1017.26 291.17 1017.42 290.917 1017.54 290.614L1018.83 290.977C1018.7 291.417 1018.47 291.803 1018.14 292.136C1017.82 292.466 1017.43 292.723 1016.95 292.909C1016.48 293.091 1015.95 293.182 1015.36 293.182ZM1021.77 284.273L1023.87 287.841L1025.96 284.273H1027.5L1024.68 288.636L1027.5 293H1025.96L1023.87 289.614L1021.77 293H1020.23L1023 288.636L1020.23 284.273H1021.77ZM1033.21 284.273V285.409H1028.69V284.273H1033.21ZM1030.01 282.182H1031.35V290.5C1031.35 290.879 1031.4 291.163 1031.51 291.352C1031.63 291.538 1031.77 291.663 1031.94 291.727C1032.12 291.788 1032.31 291.818 1032.51 291.818C1032.65 291.818 1032.77 291.811 1032.87 291.795C1032.96 291.777 1033.04 291.761 1033.1 291.75L1033.37 292.955C1033.28 292.989 1033.15 293.023 1032.99 293.057C1032.83 293.095 1032.62 293.114 1032.37 293.114C1031.99 293.114 1031.62 293.032 1031.26 292.869C1030.9 292.706 1030.6 292.458 1030.36 292.125C1030.12 291.792 1030.01 291.371 1030.01 290.864V282.182Z" fill="white"/>
<path d="M259.233 184V173.818H260.466V182.906H265.199V184H259.233ZM269.196 184.179C268.712 184.179 268.273 184.088 267.879 183.906C267.484 183.72 267.171 183.453 266.939 183.105C266.707 182.754 266.591 182.33 266.591 181.832C266.591 181.395 266.677 181.04 266.849 180.768C267.022 180.493 267.252 180.278 267.54 180.122C267.829 179.966 268.147 179.85 268.495 179.774C268.846 179.695 269.199 179.632 269.554 179.585C270.018 179.526 270.394 179.481 270.683 179.451C270.974 179.418 271.186 179.363 271.319 179.287C271.455 179.211 271.523 179.078 271.523 178.889V178.849C271.523 178.359 271.388 177.978 271.12 177.706C270.855 177.434 270.452 177.298 269.912 177.298C269.352 177.298 268.913 177.421 268.594 177.666C268.276 177.911 268.053 178.173 267.923 178.452L266.81 178.054C267.009 177.59 267.274 177.229 267.605 176.97C267.94 176.708 268.304 176.526 268.699 176.423C269.097 176.317 269.488 176.264 269.872 176.264C270.117 176.264 270.399 176.294 270.717 176.354C271.039 176.41 271.349 176.528 271.647 176.707C271.949 176.886 272.199 177.156 272.398 177.517C272.597 177.878 272.696 178.362 272.696 178.969V184H271.523V182.966H271.463C271.384 183.132 271.251 183.309 271.065 183.498C270.88 183.687 270.633 183.848 270.325 183.98C270.016 184.113 269.64 184.179 269.196 184.179ZM269.375 183.125C269.839 183.125 270.23 183.034 270.548 182.852C270.87 182.669 271.112 182.434 271.274 182.146C271.44 181.857 271.523 181.554 271.523 181.236V180.162C271.473 180.222 271.364 180.276 271.195 180.326C271.029 180.372 270.837 180.414 270.618 180.45C270.402 180.483 270.192 180.513 269.987 180.54C269.784 180.563 269.62 180.583 269.494 180.599C269.189 180.639 268.904 180.704 268.639 180.793C268.377 180.879 268.165 181.01 268.003 181.186C267.844 181.358 267.764 181.594 267.764 181.892C267.764 182.3 267.915 182.608 268.217 182.817C268.522 183.022 268.908 183.125 269.375 183.125ZM274.997 184V173.818H276.17V177.577H276.269C276.356 177.444 276.475 177.275 276.627 177.07C276.783 176.861 277.005 176.675 277.294 176.513C277.585 176.347 277.98 176.264 278.477 176.264C279.12 176.264 279.686 176.425 280.177 176.746C280.668 177.068 281.05 177.524 281.325 178.114C281.601 178.704 281.738 179.4 281.738 180.202C281.738 181.01 281.601 181.711 281.325 182.305C281.05 182.895 280.669 183.352 280.182 183.677C279.695 183.998 279.133 184.159 278.497 184.159C278.006 184.159 277.613 184.078 277.318 183.915C277.023 183.75 276.796 183.562 276.637 183.354C276.478 183.142 276.356 182.966 276.269 182.827H276.13V184H274.997ZM276.15 180.182C276.15 180.759 276.235 181.267 276.404 181.708C276.573 182.146 276.82 182.489 277.144 182.737C277.469 182.982 277.867 183.105 278.338 183.105C278.828 183.105 279.237 182.976 279.566 182.717C279.897 182.455 280.146 182.104 280.311 181.663C280.48 181.219 280.565 180.725 280.565 180.182C280.565 179.645 280.482 179.161 280.316 178.73C280.154 178.296 279.907 177.953 279.575 177.701C279.247 177.446 278.835 177.318 278.338 177.318C277.86 177.318 277.459 177.439 277.134 177.681C276.81 177.92 276.564 178.254 276.399 178.685C276.233 179.113 276.15 179.612 276.15 180.182ZM286.735 184.159C285.999 184.159 285.364 183.997 284.83 183.672C284.3 183.344 283.891 182.886 283.602 182.3C283.317 181.71 283.175 181.024 283.175 180.241C283.175 179.459 283.317 178.77 283.602 178.173C283.891 177.573 284.292 177.106 284.806 176.771C285.323 176.433 285.926 176.264 286.615 176.264C287.013 176.264 287.406 176.33 287.794 176.463C288.181 176.596 288.534 176.811 288.852 177.109C289.171 177.404 289.424 177.795 289.613 178.283C289.802 178.77 289.896 179.37 289.896 180.082V180.58H284.01V179.565H288.703C288.703 179.134 288.617 178.75 288.445 178.412C288.276 178.074 288.034 177.807 287.719 177.612C287.407 177.416 287.039 177.318 286.615 177.318C286.148 177.318 285.744 177.434 285.402 177.666C285.064 177.895 284.804 178.193 284.622 178.561C284.439 178.929 284.348 179.323 284.348 179.744V180.42C284.348 180.997 284.448 181.486 284.646 181.887C284.849 182.285 285.129 182.588 285.487 182.797C285.845 183.002 286.261 183.105 286.735 183.105C287.043 183.105 287.321 183.062 287.57 182.976C287.822 182.886 288.039 182.754 288.221 182.578C288.403 182.399 288.544 182.177 288.644 181.912L289.777 182.23C289.658 182.615 289.457 182.953 289.176 183.244C288.894 183.533 288.546 183.758 288.132 183.92C287.717 184.08 287.252 184.159 286.735 184.159ZM292.855 173.818V184H291.681V173.818H292.855Z" fill="white" fill-opacity="0.95"/>
<path d="M531.618 184L536.172 174.991V174.912H530.922V173.818H537.445V174.972L532.911 184H531.618ZM542.343 184.139C541.76 184.139 541.235 184.023 540.767 183.791C540.3 183.559 539.925 183.241 539.644 182.837C539.362 182.432 539.208 181.972 539.181 181.455H540.374C540.421 181.915 540.63 182.296 541.001 182.598C541.375 182.896 541.823 183.045 542.343 183.045C542.761 183.045 543.132 182.948 543.457 182.752C543.785 182.557 544.042 182.288 544.227 181.947C544.416 181.602 544.511 181.213 544.511 180.778C544.511 180.334 544.413 179.938 544.218 179.59C544.025 179.239 543.76 178.962 543.422 178.76C543.084 178.558 542.698 178.455 542.264 178.452C541.952 178.448 541.632 178.496 541.304 178.596C540.976 178.692 540.706 178.816 540.494 178.969L539.34 178.83L539.957 173.818H545.247V174.912H540.991L540.633 177.915H540.693C540.901 177.749 541.163 177.612 541.478 177.502C541.793 177.393 542.121 177.338 542.463 177.338C543.086 177.338 543.641 177.487 544.128 177.786C544.619 178.08 545.003 178.485 545.281 178.999C545.563 179.512 545.704 180.099 545.704 180.759C545.704 181.408 545.558 181.988 545.267 182.499C544.978 183.006 544.58 183.407 544.073 183.702C543.566 183.993 542.99 184.139 542.343 184.139ZM552.869 182.091V181.554C552.869 181.183 552.946 180.843 553.098 180.535C553.254 180.223 553.479 179.975 553.774 179.789C554.072 179.6 554.434 179.506 554.858 179.506C555.289 179.506 555.65 179.6 555.942 179.789C556.233 179.975 556.454 180.223 556.603 180.535C556.752 180.843 556.827 181.183 556.827 181.554V182.091C556.827 182.462 556.75 182.804 556.598 183.115C556.449 183.423 556.227 183.672 555.932 183.861C555.64 184.046 555.282 184.139 554.858 184.139C554.427 184.139 554.064 184.046 553.769 183.861C553.474 183.672 553.25 183.423 553.098 183.115C552.946 182.804 552.869 182.462 552.869 182.091ZM553.884 181.554V182.091C553.884 182.399 553.956 182.676 554.102 182.921C554.248 183.163 554.5 183.284 554.858 183.284C555.206 183.284 555.451 183.163 555.594 182.921C555.74 182.676 555.812 182.399 555.812 182.091V181.554C555.812 181.246 555.743 180.971 555.604 180.729C555.464 180.483 555.216 180.361 554.858 180.361C554.51 180.361 554.26 180.483 554.107 180.729C553.958 180.971 553.884 181.246 553.884 181.554ZM547.798 176.264V175.727C547.798 175.356 547.875 175.016 548.027 174.708C548.183 174.397 548.408 174.148 548.703 173.962C549.001 173.773 549.363 173.679 549.787 173.679C550.218 173.679 550.579 173.773 550.871 173.962C551.162 174.148 551.383 174.397 551.532 174.708C551.681 175.016 551.756 175.356 551.756 175.727V176.264C551.756 176.635 551.679 176.977 551.527 177.288C551.378 177.597 551.156 177.845 550.861 178.034C550.569 178.22 550.211 178.312 549.787 178.312C549.356 178.312 548.993 178.22 548.698 178.034C548.403 177.845 548.179 177.597 548.027 177.288C547.875 176.977 547.798 176.635 547.798 176.264ZM548.812 175.727V176.264C548.812 176.572 548.885 176.849 549.031 177.094C549.177 177.336 549.429 177.457 549.787 177.457C550.135 177.457 550.38 177.336 550.523 177.094C550.669 176.849 550.741 176.572 550.741 176.264V175.727C550.741 175.419 550.672 175.144 550.533 174.902C550.393 174.657 550.145 174.534 549.787 174.534C549.439 174.534 549.189 174.657 549.036 174.902C548.887 175.144 548.812 175.419 548.812 175.727ZM548.176 184L555.176 173.818H556.31L549.31 184H548.176Z" fill="white" fill-opacity="0.95"/>
<g clip-path="url(#clip1_2102_35974)">
<rect width="300" height="8" transform="translate(258 197)" fill="#8F8F8F"/>
<rect width="225" height="8" transform="translate(258 197)" fill="#3492EB"/>
</g>
<path d="M259.233 228V217.818H260.466V222.352H265.895V217.818H267.128V228H265.895V223.446H260.466V228H259.233ZM272.639 228.159C271.903 228.159 271.268 227.997 270.735 227.672C270.204 227.344 269.795 226.886 269.507 226.3C269.222 225.71 269.079 225.024 269.079 224.241C269.079 223.459 269.222 222.77 269.507 222.173C269.795 221.573 270.196 221.106 270.71 220.771C271.227 220.433 271.83 220.264 272.52 220.264C272.917 220.264 273.31 220.33 273.698 220.463C274.086 220.596 274.439 220.811 274.757 221.109C275.075 221.404 275.328 221.795 275.517 222.283C275.706 222.77 275.801 223.37 275.801 224.082V224.58H269.914V223.565H274.608C274.608 223.134 274.521 222.75 274.349 222.412C274.18 222.074 273.938 221.807 273.623 221.612C273.312 221.416 272.944 221.318 272.52 221.318C272.052 221.318 271.648 221.434 271.306 221.666C270.968 221.895 270.708 222.193 270.526 222.561C270.344 222.929 270.252 223.323 270.252 223.744V224.42C270.252 224.997 270.352 225.486 270.551 225.887C270.753 226.285 271.033 226.588 271.391 226.797C271.749 227.002 272.165 227.105 272.639 227.105C272.947 227.105 273.225 227.062 273.474 226.976C273.726 226.886 273.943 226.754 274.125 226.578C274.308 226.399 274.449 226.177 274.548 225.912L275.681 226.23C275.562 226.615 275.362 226.953 275.08 227.244C274.798 227.533 274.45 227.758 274.036 227.92C273.622 228.08 273.156 228.159 272.639 228.159ZM278.759 217.818V228H277.586V217.818H278.759ZM280.908 230.864V220.364H282.041V221.577H282.181C282.267 221.444 282.386 221.275 282.539 221.07C282.694 220.861 282.916 220.675 283.205 220.513C283.496 220.347 283.891 220.264 284.388 220.264C285.031 220.264 285.598 220.425 286.088 220.746C286.579 221.068 286.962 221.524 287.237 222.114C287.512 222.704 287.649 223.4 287.649 224.202C287.649 225.01 287.512 225.711 287.237 226.305C286.962 226.895 286.58 227.352 286.093 227.677C285.606 227.998 285.044 228.159 284.408 228.159C283.917 228.159 283.525 228.078 283.23 227.915C282.935 227.75 282.708 227.562 282.548 227.354C282.389 227.142 282.267 226.966 282.181 226.827H282.081V230.864H280.908ZM282.061 224.182C282.061 224.759 282.146 225.267 282.315 225.708C282.484 226.146 282.731 226.489 283.056 226.737C283.38 226.982 283.778 227.105 284.249 227.105C284.739 227.105 285.149 226.976 285.477 226.717C285.808 226.455 286.057 226.104 286.222 225.663C286.392 225.219 286.476 224.725 286.476 224.182C286.476 223.645 286.393 223.161 286.227 222.73C286.065 222.296 285.818 221.953 285.487 221.701C285.159 221.446 284.746 221.318 284.249 221.318C283.771 221.318 283.37 221.439 283.046 221.681C282.721 221.92 282.476 222.254 282.31 222.685C282.144 223.113 282.061 223.612 282.061 224.182ZM292.641 228.159C291.905 228.159 291.27 227.997 290.737 227.672C290.206 227.344 289.797 226.886 289.509 226.3C289.224 225.71 289.081 225.024 289.081 224.241C289.081 223.459 289.224 222.77 289.509 222.173C289.797 221.573 290.198 221.106 290.712 220.771C291.229 220.433 291.832 220.264 292.521 220.264C292.919 220.264 293.312 220.33 293.7 220.463C294.088 220.596 294.441 220.811 294.759 221.109C295.077 221.404 295.33 221.795 295.519 222.283C295.708 222.77 295.803 223.37 295.803 224.082V224.58H289.916V223.565H294.61C294.61 223.134 294.523 222.75 294.351 222.412C294.182 222.074 293.94 221.807 293.625 221.612C293.314 221.416 292.946 221.318 292.521 221.318C292.054 221.318 291.65 221.434 291.308 221.666C290.97 221.895 290.71 222.193 290.528 222.561C290.346 222.929 290.254 223.323 290.254 223.744V224.42C290.254 224.997 290.354 225.486 290.553 225.887C290.755 226.285 291.035 226.588 291.393 226.797C291.751 227.002 292.167 227.105 292.641 227.105C292.949 227.105 293.227 227.062 293.476 226.976C293.728 226.886 293.945 226.754 294.127 226.578C294.31 226.399 294.45 226.177 294.55 225.912L295.683 226.23C295.564 226.615 295.364 226.953 295.082 227.244C294.8 227.533 294.452 227.758 294.038 227.92C293.624 228.08 293.158 228.159 292.641 228.159ZM297.588 228V220.364H298.721V221.517H298.801C298.94 221.139 299.192 220.833 299.556 220.597C299.921 220.362 300.332 220.244 300.789 220.244C300.875 220.244 300.983 220.246 301.112 220.249C301.242 220.253 301.339 220.258 301.406 220.264V221.457C301.366 221.447 301.275 221.433 301.132 221.413C300.993 221.389 300.846 221.378 300.69 221.378C300.319 221.378 299.987 221.456 299.695 221.612C299.407 221.764 299.178 221.976 299.009 222.248C298.844 222.516 298.761 222.823 298.761 223.168V228H297.588ZM310.055 220.364V221.358H306.098V220.364H310.055ZM307.251 218.534H308.424V225.812C308.424 226.144 308.472 226.393 308.569 226.558C308.668 226.721 308.794 226.83 308.946 226.886C309.102 226.939 309.266 226.966 309.439 226.966C309.568 226.966 309.674 226.959 309.757 226.946C309.84 226.929 309.906 226.916 309.956 226.906L310.194 227.96C310.115 227.99 310.004 228.02 309.861 228.05C309.719 228.083 309.538 228.099 309.319 228.099C308.988 228.099 308.663 228.028 308.345 227.886C308.03 227.743 307.768 227.526 307.559 227.234C307.354 226.943 307.251 226.575 307.251 226.131V218.534ZM314.94 228.159C314.204 228.159 313.569 227.997 313.036 227.672C312.505 227.344 312.096 226.886 311.808 226.3C311.522 225.71 311.38 225.024 311.38 224.241C311.38 223.459 311.522 222.77 311.808 222.173C312.096 221.573 312.497 221.106 313.011 220.771C313.528 220.433 314.131 220.264 314.82 220.264C315.218 220.264 315.611 220.33 315.999 220.463C316.386 220.596 316.739 220.811 317.058 221.109C317.376 221.404 317.629 221.795 317.818 222.283C318.007 222.77 318.102 223.37 318.102 224.082V224.58H312.215V223.565H316.908C316.908 223.134 316.822 222.75 316.65 222.412C316.481 222.074 316.239 221.807 315.924 221.612C315.612 221.416 315.245 221.318 314.82 221.318C314.353 221.318 313.949 221.434 313.607 221.666C313.269 221.895 313.009 222.193 312.827 222.561C312.644 222.929 312.553 223.323 312.553 223.744V224.42C312.553 224.997 312.653 225.486 312.852 225.887C313.054 226.285 313.334 226.588 313.692 226.797C314.05 227.002 314.466 227.105 314.94 227.105C315.248 227.105 315.526 227.062 315.775 226.976C316.027 226.886 316.244 226.754 316.426 226.578C316.608 226.399 316.749 226.177 316.849 225.912L317.982 226.23C317.863 226.615 317.662 226.953 317.381 227.244C317.099 227.533 316.751 227.758 316.337 227.92C315.922 228.08 315.457 228.159 314.94 228.159ZM320.556 220.364L322.386 223.486L324.215 220.364H325.568L323.102 224.182L325.568 228H324.215L322.386 225.037L320.556 228H319.204L321.63 224.182L319.204 220.364H320.556ZM330.563 220.364V221.358H326.605V220.364H330.563ZM327.759 218.534H328.932V225.812C328.932 226.144 328.98 226.393 329.076 226.558C329.176 226.721 329.302 226.83 329.454 226.886C329.61 226.939 329.774 226.966 329.946 226.966C330.076 226.966 330.182 226.959 330.265 226.946C330.347 226.929 330.414 226.916 330.463 226.906L330.702 227.96C330.623 227.99 330.511 228.02 330.369 228.05C330.226 228.083 330.046 228.099 329.827 228.099C329.496 228.099 329.171 228.028 328.853 227.886C328.538 227.743 328.276 227.526 328.067 227.234C327.862 226.943 327.759 226.575 327.759 226.131V218.534Z" fill="white" fill-opacity="0.7"/>
<path d="M270.5 120V154" stroke="#DA0087"/>
<path d="M270.5 162L266.5 154H274.5L270.5 162Z" fill="#DA0087"/>
<rect x="237.5" y="100" width="66" height="28" rx="14" fill="#DA0087"/>
<path d="M250.909 120V108.364H252.318V118.75H257.727V120H250.909ZM262.295 120.205C261.742 120.205 261.241 120.1 260.79 119.892C260.339 119.68 259.981 119.375 259.716 118.977C259.451 118.576 259.318 118.091 259.318 117.523C259.318 117.023 259.417 116.617 259.614 116.307C259.811 115.992 260.074 115.746 260.403 115.568C260.733 115.39 261.097 115.258 261.494 115.17C261.896 115.08 262.299 115.008 262.705 114.955C263.235 114.886 263.665 114.835 263.994 114.801C264.328 114.763 264.57 114.701 264.722 114.614C264.877 114.527 264.955 114.375 264.955 114.159V114.114C264.955 113.553 264.801 113.117 264.494 112.807C264.191 112.496 263.731 112.341 263.114 112.341C262.473 112.341 261.972 112.481 261.608 112.761C261.244 113.042 260.989 113.341 260.841 113.659L259.568 113.205C259.795 112.674 260.098 112.261 260.477 111.966C260.86 111.667 261.277 111.458 261.727 111.341C262.182 111.22 262.629 111.159 263.068 111.159C263.348 111.159 263.67 111.193 264.034 111.261C264.402 111.326 264.756 111.46 265.097 111.665C265.441 111.869 265.727 112.178 265.955 112.591C266.182 113.004 266.295 113.557 266.295 114.25V120H264.955V118.818H264.886C264.795 119.008 264.644 119.21 264.432 119.426C264.22 119.642 263.938 119.826 263.585 119.977C263.233 120.129 262.803 120.205 262.295 120.205ZM262.5 119C263.03 119 263.477 118.896 263.841 118.688C264.208 118.479 264.485 118.21 264.67 117.881C264.86 117.551 264.955 117.205 264.955 116.841V115.614C264.898 115.682 264.773 115.744 264.58 115.801C264.39 115.854 264.17 115.902 263.92 115.943C263.674 115.981 263.434 116.015 263.199 116.045C262.968 116.072 262.78 116.095 262.636 116.114C262.288 116.159 261.962 116.233 261.659 116.335C261.36 116.434 261.117 116.583 260.932 116.784C260.75 116.981 260.659 117.25 260.659 117.591C260.659 118.057 260.831 118.409 261.176 118.648C261.525 118.883 261.966 119 262.5 119ZM268.925 120V108.364H270.266V112.659H270.379C270.478 112.508 270.614 112.314 270.788 112.08C270.966 111.841 271.22 111.629 271.55 111.443C271.883 111.254 272.334 111.159 272.902 111.159C273.637 111.159 274.285 111.343 274.845 111.71C275.406 112.078 275.843 112.598 276.158 113.273C276.472 113.947 276.629 114.742 276.629 115.659C276.629 116.583 276.472 117.384 276.158 118.062C275.843 118.737 275.408 119.259 274.851 119.631C274.294 119.998 273.652 120.182 272.925 120.182C272.364 120.182 271.915 120.089 271.578 119.903C271.241 119.714 270.982 119.5 270.8 119.261C270.618 119.019 270.478 118.818 270.379 118.659H270.22V120H268.925ZM270.243 115.636C270.243 116.295 270.339 116.877 270.533 117.381C270.726 117.881 271.008 118.273 271.379 118.557C271.75 118.837 272.205 118.977 272.743 118.977C273.304 118.977 273.771 118.83 274.146 118.534C274.525 118.235 274.809 117.833 274.999 117.33C275.192 116.822 275.288 116.258 275.288 115.636C275.288 115.023 275.194 114.47 275.004 113.977C274.819 113.481 274.536 113.089 274.158 112.801C273.783 112.509 273.311 112.364 272.743 112.364C272.197 112.364 271.739 112.502 271.368 112.778C270.997 113.051 270.716 113.434 270.527 113.926C270.338 114.415 270.243 114.985 270.243 115.636ZM282.339 120.182C281.499 120.182 280.773 119.996 280.163 119.625C279.557 119.25 279.089 118.727 278.76 118.057C278.434 117.383 278.271 116.598 278.271 115.705C278.271 114.811 278.434 114.023 278.76 113.341C279.089 112.655 279.548 112.121 280.135 111.739C280.726 111.352 281.415 111.159 282.203 111.159C282.658 111.159 283.107 111.235 283.55 111.386C283.993 111.538 284.396 111.784 284.76 112.125C285.124 112.462 285.413 112.909 285.629 113.466C285.845 114.023 285.953 114.708 285.953 115.523V116.091H279.226V114.932H284.589C284.589 114.439 284.491 114 284.294 113.614C284.101 113.227 283.824 112.922 283.464 112.699C283.108 112.475 282.688 112.364 282.203 112.364C281.669 112.364 281.207 112.496 280.817 112.761C280.43 113.023 280.133 113.364 279.925 113.784C279.716 114.205 279.612 114.655 279.612 115.136V115.909C279.612 116.568 279.726 117.127 279.953 117.585C280.184 118.04 280.504 118.386 280.913 118.625C281.322 118.86 281.798 118.977 282.339 118.977C282.692 118.977 283.01 118.928 283.294 118.83C283.582 118.727 283.83 118.576 284.038 118.375C284.247 118.17 284.408 117.917 284.521 117.614L285.817 117.977C285.68 118.417 285.451 118.803 285.129 119.136C284.807 119.466 284.41 119.723 283.936 119.909C283.463 120.091 282.93 120.182 282.339 120.182ZM289.334 108.364V120H287.993V108.364H289.334Z" fill="white"/>
<path d="M293 281V247" stroke="#DA0087"/>
<path d="M293 239L289 247H297L293 239Z" fill="#DA0087"/>
<rect x="237.5" y="273" width="111" height="28" rx="14" fill="#DA0087"/>
<path d="M250.909 293V281.364H252.318V286.545H258.523V281.364H259.932V293H258.523V287.795H252.318V293H250.909ZM266.23 293.182C265.389 293.182 264.664 292.996 264.054 292.625C263.448 292.25 262.98 291.727 262.651 291.057C262.325 290.383 262.162 289.598 262.162 288.705C262.162 287.811 262.325 287.023 262.651 286.341C262.98 285.655 263.438 285.121 264.026 284.739C264.616 284.352 265.306 284.159 266.094 284.159C266.548 284.159 266.997 284.235 267.44 284.386C267.884 284.538 268.287 284.784 268.651 285.125C269.014 285.462 269.304 285.909 269.52 286.466C269.736 287.023 269.844 287.708 269.844 288.523V289.091H263.116V287.932H268.48C268.48 287.439 268.382 287 268.185 286.614C267.991 286.227 267.715 285.922 267.355 285.699C266.999 285.475 266.579 285.364 266.094 285.364C265.56 285.364 265.098 285.496 264.707 285.761C264.321 286.023 264.024 286.364 263.815 286.784C263.607 287.205 263.503 287.655 263.503 288.136V288.909C263.503 289.568 263.616 290.127 263.844 290.585C264.075 291.04 264.395 291.386 264.804 291.625C265.213 291.86 265.688 291.977 266.23 291.977C266.582 291.977 266.901 291.928 267.185 291.83C267.473 291.727 267.721 291.576 267.929 291.375C268.137 291.17 268.298 290.917 268.412 290.614L269.707 290.977C269.571 291.417 269.342 291.803 269.02 292.136C268.698 292.466 268.3 292.723 267.827 292.909C267.353 293.091 266.821 293.182 266.23 293.182ZM273.224 281.364V293H271.884V281.364H273.224ZM275.68 296.273V284.273H276.976V285.659H277.135C277.233 285.508 277.37 285.314 277.544 285.08C277.722 284.841 277.976 284.629 278.305 284.443C278.639 284.254 279.089 284.159 279.658 284.159C280.393 284.159 281.04 284.343 281.601 284.71C282.161 285.078 282.599 285.598 282.913 286.273C283.228 286.947 283.385 287.742 283.385 288.659C283.385 289.583 283.228 290.384 282.913 291.062C282.599 291.737 282.163 292.259 281.607 292.631C281.05 292.998 280.408 293.182 279.68 293.182C279.12 293.182 278.671 293.089 278.334 292.903C277.997 292.714 277.737 292.5 277.555 292.261C277.374 292.019 277.233 291.818 277.135 291.659H277.021V296.273H275.68ZM276.999 288.636C276.999 289.295 277.095 289.877 277.288 290.381C277.482 290.881 277.764 291.273 278.135 291.557C278.506 291.837 278.961 291.977 279.499 291.977C280.059 291.977 280.527 291.83 280.902 291.534C281.281 291.235 281.565 290.833 281.754 290.33C281.947 289.822 282.044 289.258 282.044 288.636C282.044 288.023 281.949 287.47 281.76 286.977C281.574 286.481 281.292 286.089 280.913 285.801C280.538 285.509 280.067 285.364 279.499 285.364C278.953 285.364 278.495 285.502 278.124 285.778C277.752 286.051 277.472 286.434 277.283 286.926C277.093 287.415 276.999 287.985 276.999 288.636ZM289.089 293.182C288.249 293.182 287.523 292.996 286.913 292.625C286.307 292.25 285.839 291.727 285.51 291.057C285.184 290.383 285.021 289.598 285.021 288.705C285.021 287.811 285.184 287.023 285.51 286.341C285.839 285.655 286.298 285.121 286.885 284.739C287.476 284.352 288.165 284.159 288.953 284.159C289.408 284.159 289.857 284.235 290.3 284.386C290.743 284.538 291.146 284.784 291.51 285.125C291.874 285.462 292.163 285.909 292.379 286.466C292.595 287.023 292.703 287.708 292.703 288.523V289.091H285.976V287.932H291.339C291.339 287.439 291.241 287 291.044 286.614C290.851 286.227 290.574 285.922 290.214 285.699C289.858 285.475 289.438 285.364 288.953 285.364C288.419 285.364 287.957 285.496 287.567 285.761C287.18 286.023 286.883 286.364 286.675 286.784C286.466 287.205 286.362 287.655 286.362 288.136V288.909C286.362 289.568 286.476 290.127 286.703 290.585C286.934 291.04 287.254 291.386 287.663 291.625C288.072 291.86 288.548 291.977 289.089 291.977C289.442 291.977 289.76 291.928 290.044 291.83C290.332 291.727 290.58 291.576 290.788 291.375C290.997 291.17 291.158 290.917 291.271 290.614L292.567 290.977C292.43 291.417 292.201 291.803 291.879 292.136C291.557 292.466 291.16 292.723 290.686 292.909C290.213 293.091 289.68 293.182 289.089 293.182ZM294.743 293V284.273H296.038V285.591H296.129C296.288 285.159 296.576 284.809 296.993 284.54C297.41 284.271 297.879 284.136 298.402 284.136C298.5 284.136 298.624 284.138 298.771 284.142C298.919 284.146 299.031 284.152 299.107 284.159V285.523C299.061 285.511 298.957 285.494 298.794 285.472C298.635 285.445 298.466 285.432 298.288 285.432C297.864 285.432 297.485 285.521 297.152 285.699C296.822 285.873 296.561 286.116 296.368 286.426C296.179 286.733 296.084 287.083 296.084 287.477V293H294.743ZM304.741 282.614V281.364H313.469V282.614H309.81V293H308.401V282.614H304.741ZM317.855 293.182C317.014 293.182 316.289 292.996 315.679 292.625C315.073 292.25 314.605 291.727 314.276 291.057C313.95 290.383 313.787 289.598 313.787 288.705C313.787 287.811 313.95 287.023 314.276 286.341C314.605 285.655 315.063 285.121 315.651 284.739C316.241 284.352 316.931 284.159 317.719 284.159C318.173 284.159 318.622 284.235 319.065 284.386C319.509 284.538 319.912 284.784 320.276 285.125C320.639 285.462 320.929 285.909 321.145 286.466C321.361 287.023 321.469 287.708 321.469 288.523V289.091H314.741V287.932H320.105C320.105 287.439 320.007 287 319.81 286.614C319.616 286.227 319.34 285.922 318.98 285.699C318.624 285.475 318.204 285.364 317.719 285.364C317.185 285.364 316.723 285.496 316.332 285.761C315.946 286.023 315.649 286.364 315.44 286.784C315.232 287.205 315.128 287.655 315.128 288.136V288.909C315.128 289.568 315.241 290.127 315.469 290.585C315.7 291.04 316.02 291.386 316.429 291.625C316.838 291.86 317.313 291.977 317.855 291.977C318.207 291.977 318.526 291.928 318.81 291.83C319.098 291.727 319.346 291.576 319.554 291.375C319.762 291.17 319.923 290.917 320.037 290.614L321.332 290.977C321.196 291.417 320.967 291.803 320.645 292.136C320.323 292.466 319.925 292.723 319.452 292.909C318.978 293.091 318.446 293.182 317.855 293.182ZM324.274 284.273L326.365 287.841L328.456 284.273H330.001L327.183 288.636L330.001 293H328.456L326.365 289.614L324.274 293H322.729L325.501 288.636L322.729 284.273H324.274ZM335.71 284.273V285.409H331.188V284.273H335.71ZM332.506 282.182H333.847V290.5C333.847 290.879 333.902 291.163 334.011 291.352C334.125 291.538 334.269 291.663 334.443 291.727C334.621 291.788 334.809 291.818 335.006 291.818C335.153 291.818 335.275 291.811 335.369 291.795C335.464 291.777 335.54 291.761 335.597 291.75L335.869 292.955C335.778 292.989 335.652 293.023 335.489 293.057C335.326 293.095 335.119 293.114 334.869 293.114C334.491 293.114 334.119 293.032 333.756 292.869C333.396 292.706 333.097 292.458 332.858 292.125C332.623 291.792 332.506 291.371 332.506 290.864V282.182Z" fill="white"/>
<path d="M447 281V224" stroke="#DA0087"/>
<path d="M447 216L443 224H451L447 216Z" fill="#DA0087"/>
<rect x="414" y="273" width="66" height="28" rx="14" fill="#DA0087"/>
<path d="M426.773 282.614V281.364H435.5V282.614H431.841V293H430.432V282.614H426.773ZM436.587 293V284.273H437.882V285.591H437.973C438.132 285.159 438.42 284.809 438.837 284.54C439.253 284.271 439.723 284.136 440.246 284.136C440.344 284.136 440.467 284.138 440.615 284.142C440.763 284.146 440.875 284.152 440.95 284.159V285.523C440.905 285.511 440.801 285.494 440.638 285.472C440.479 285.445 440.31 285.432 440.132 285.432C439.708 285.432 439.329 285.521 438.996 285.699C438.666 285.873 438.405 286.116 438.212 286.426C438.022 286.733 437.928 287.083 437.928 287.477V293H436.587ZM445.108 293.205C444.555 293.205 444.053 293.1 443.602 292.892C443.152 292.68 442.794 292.375 442.528 291.977C442.263 291.576 442.131 291.091 442.131 290.523C442.131 290.023 442.229 289.617 442.426 289.307C442.623 288.992 442.886 288.746 443.216 288.568C443.545 288.39 443.909 288.258 444.307 288.17C444.708 288.08 445.112 288.008 445.517 287.955C446.047 287.886 446.477 287.835 446.807 287.801C447.14 287.763 447.383 287.701 447.534 287.614C447.689 287.527 447.767 287.375 447.767 287.159V287.114C447.767 286.553 447.614 286.117 447.307 285.807C447.004 285.496 446.544 285.341 445.926 285.341C445.286 285.341 444.784 285.481 444.42 285.761C444.057 286.042 443.801 286.341 443.653 286.659L442.381 286.205C442.608 285.674 442.911 285.261 443.29 284.966C443.672 284.667 444.089 284.458 444.54 284.341C444.994 284.22 445.441 284.159 445.881 284.159C446.161 284.159 446.483 284.193 446.847 284.261C447.214 284.326 447.568 284.46 447.909 284.665C448.254 284.869 448.54 285.178 448.767 285.591C448.994 286.004 449.108 286.557 449.108 287.25V293H447.767V291.818H447.699C447.608 292.008 447.456 292.21 447.244 292.426C447.032 292.642 446.75 292.826 446.398 292.977C446.045 293.129 445.616 293.205 445.108 293.205ZM445.312 292C445.843 292 446.29 291.896 446.653 291.688C447.021 291.479 447.297 291.21 447.483 290.881C447.672 290.551 447.767 290.205 447.767 289.841V288.614C447.71 288.682 447.585 288.744 447.392 288.801C447.203 288.854 446.983 288.902 446.733 288.943C446.487 288.981 446.246 289.015 446.011 289.045C445.78 289.072 445.593 289.095 445.449 289.114C445.1 289.159 444.775 289.233 444.472 289.335C444.172 289.434 443.93 289.583 443.744 289.784C443.563 289.981 443.472 290.25 443.472 290.591C443.472 291.057 443.644 291.409 443.989 291.648C444.337 291.883 444.778 292 445.312 292ZM455.101 293.182C454.283 293.182 453.578 292.989 452.987 292.602C452.396 292.216 451.942 291.684 451.624 291.006C451.305 290.328 451.146 289.553 451.146 288.682C451.146 287.795 451.309 287.013 451.635 286.335C451.964 285.653 452.423 285.121 453.01 284.739C453.601 284.352 454.29 284.159 455.078 284.159C455.692 284.159 456.245 284.273 456.737 284.5C457.23 284.727 457.633 285.045 457.947 285.455C458.262 285.864 458.457 286.341 458.533 286.886H457.192C457.089 286.489 456.862 286.136 456.51 285.83C456.161 285.519 455.692 285.364 455.101 285.364C454.578 285.364 454.12 285.5 453.726 285.773C453.336 286.042 453.031 286.422 452.811 286.915C452.595 287.403 452.487 287.977 452.487 288.636C452.487 289.311 452.593 289.898 452.805 290.398C453.021 290.898 453.324 291.286 453.714 291.562C454.108 291.839 454.571 291.977 455.101 291.977C455.449 291.977 455.766 291.917 456.05 291.795C456.334 291.674 456.574 291.5 456.771 291.273C456.968 291.045 457.108 290.773 457.192 290.455H458.533C458.457 290.97 458.269 291.434 457.97 291.847C457.675 292.256 457.283 292.581 456.794 292.824C456.309 293.062 455.745 293.182 455.101 293.182ZM461.743 289.818L461.72 288.159H461.993L465.811 284.273H467.47L463.402 288.386H463.288L461.743 289.818ZM460.493 293V281.364H461.834V293H460.493ZM466.038 293L462.629 288.682L463.584 287.75L467.743 293H466.038Z" fill="white"/>
<path d="M217 202H245" stroke="#DA0087"/>
<path d="M253 202L245 198V206L253 202Z" fill="#DA0087"/>
<rect x="104" y="188" width="121" height="28" rx="14" fill="#DA0087"/>
<path d="M117.409 208V196.364H121.477C122.288 196.364 122.956 196.504 123.483 196.784C124.009 197.061 124.402 197.434 124.659 197.903C124.917 198.369 125.045 198.886 125.045 199.455C125.045 199.955 124.956 200.367 124.778 200.693C124.604 201.019 124.373 201.277 124.085 201.466C123.801 201.655 123.492 201.795 123.159 201.886V202C123.515 202.023 123.873 202.148 124.233 202.375C124.593 202.602 124.894 202.928 125.136 203.352C125.379 203.777 125.5 204.295 125.5 204.909C125.5 205.492 125.367 206.017 125.102 206.483C124.837 206.949 124.419 207.318 123.847 207.591C123.275 207.864 122.53 208 121.614 208H117.409ZM118.818 206.75H121.614C122.534 206.75 123.188 206.572 123.574 206.216C123.964 205.856 124.159 205.42 124.159 204.909C124.159 204.515 124.059 204.152 123.858 203.818C123.657 203.481 123.371 203.212 123 203.011C122.629 202.807 122.189 202.705 121.682 202.705H118.818V206.75ZM118.818 201.477H121.432C121.856 201.477 122.239 201.394 122.58 201.227C122.924 201.061 123.197 200.826 123.398 200.523C123.602 200.22 123.705 199.864 123.705 199.455C123.705 198.943 123.527 198.509 123.17 198.153C122.814 197.794 122.25 197.614 121.477 197.614H118.818V201.477ZM130.202 208.205C129.649 208.205 129.147 208.1 128.696 207.892C128.245 207.68 127.887 207.375 127.622 206.977C127.357 206.576 127.224 206.091 127.224 205.523C127.224 205.023 127.323 204.617 127.52 204.307C127.717 203.992 127.98 203.746 128.31 203.568C128.639 203.39 129.003 203.258 129.401 203.17C129.802 203.08 130.205 203.008 130.611 202.955C131.141 202.886 131.571 202.835 131.901 202.801C132.234 202.763 132.476 202.701 132.628 202.614C132.783 202.527 132.861 202.375 132.861 202.159V202.114C132.861 201.553 132.707 201.117 132.401 200.807C132.098 200.496 131.637 200.341 131.02 200.341C130.38 200.341 129.878 200.481 129.514 200.761C129.151 201.042 128.895 201.341 128.747 201.659L127.474 201.205C127.702 200.674 128.005 200.261 128.384 199.966C128.766 199.667 129.183 199.458 129.634 199.341C130.088 199.22 130.535 199.159 130.974 199.159C131.255 199.159 131.577 199.193 131.94 199.261C132.308 199.326 132.662 199.46 133.003 199.665C133.348 199.869 133.634 200.178 133.861 200.591C134.088 201.004 134.202 201.557 134.202 202.25V208H132.861V206.818H132.793C132.702 207.008 132.55 207.21 132.338 207.426C132.126 207.642 131.844 207.826 131.491 207.977C131.139 208.129 130.709 208.205 130.202 208.205ZM130.406 207C130.937 207 131.384 206.896 131.747 206.688C132.115 206.479 132.391 206.21 132.577 205.881C132.766 205.551 132.861 205.205 132.861 204.841V203.614C132.804 203.682 132.679 203.744 132.486 203.801C132.296 203.854 132.077 203.902 131.827 203.943C131.58 203.981 131.34 204.015 131.105 204.045C130.874 204.072 130.687 204.095 130.543 204.114C130.194 204.159 129.868 204.233 129.565 204.335C129.266 204.434 129.024 204.583 128.838 204.784C128.656 204.981 128.565 205.25 128.565 205.591C128.565 206.057 128.738 206.409 129.082 206.648C129.431 206.883 129.872 207 130.406 207ZM136.649 208V199.273H137.945V200.591H138.036C138.195 200.159 138.482 199.809 138.899 199.54C139.316 199.271 139.786 199.136 140.308 199.136C140.407 199.136 140.53 199.138 140.678 199.142C140.825 199.146 140.937 199.152 141.013 199.159V200.523C140.967 200.511 140.863 200.494 140.7 200.472C140.541 200.445 140.373 200.432 140.195 200.432C139.77 200.432 139.392 200.521 139.058 200.699C138.729 200.873 138.467 201.116 138.274 201.426C138.085 201.733 137.99 202.083 137.99 202.477V208H136.649ZM148.693 196.364V208H147.284V196.364H148.693ZM152.678 202.75V208H151.337V199.273H152.632V200.636H152.746C152.95 200.193 153.261 199.837 153.678 199.568C154.094 199.295 154.632 199.159 155.291 199.159C155.882 199.159 156.399 199.28 156.842 199.523C157.286 199.761 157.63 200.125 157.876 200.614C158.123 201.098 158.246 201.712 158.246 202.455V208H156.905V202.545C156.905 201.86 156.727 201.326 156.371 200.943C156.015 200.557 155.526 200.364 154.905 200.364C154.477 200.364 154.094 200.456 153.757 200.642C153.424 200.828 153.161 201.098 152.967 201.455C152.774 201.811 152.678 202.242 152.678 202.75ZM163.991 208.182C163.264 208.182 162.622 207.998 162.065 207.631C161.509 207.259 161.073 206.737 160.759 206.062C160.444 205.384 160.287 204.583 160.287 203.659C160.287 202.742 160.444 201.947 160.759 201.273C161.073 200.598 161.51 200.078 162.071 199.71C162.632 199.343 163.279 199.159 164.014 199.159C164.582 199.159 165.031 199.254 165.361 199.443C165.694 199.629 165.948 199.841 166.122 200.08C166.3 200.314 166.438 200.508 166.537 200.659H166.651V196.364H167.991V208H166.696V206.659H166.537C166.438 206.818 166.298 207.019 166.116 207.261C165.935 207.5 165.675 207.714 165.338 207.903C165.001 208.089 164.552 208.182 163.991 208.182ZM164.173 206.977C164.711 206.977 165.166 206.837 165.537 206.557C165.908 206.273 166.19 205.881 166.384 205.381C166.577 204.877 166.673 204.295 166.673 203.636C166.673 202.985 166.579 202.415 166.389 201.926C166.2 201.434 165.92 201.051 165.548 200.778C165.177 200.502 164.719 200.364 164.173 200.364C163.605 200.364 163.132 200.509 162.753 200.801C162.378 201.089 162.096 201.481 161.906 201.977C161.721 202.47 161.628 203.023 161.628 203.636C161.628 204.258 161.723 204.822 161.912 205.33C162.105 205.833 162.389 206.235 162.764 206.534C163.143 206.83 163.613 206.977 164.173 206.977ZM170.634 208V199.273H171.974V208H170.634ZM171.315 197.818C171.054 197.818 170.829 197.729 170.639 197.551C170.454 197.373 170.361 197.159 170.361 196.909C170.361 196.659 170.454 196.445 170.639 196.267C170.829 196.089 171.054 196 171.315 196C171.577 196 171.8 196.089 171.986 196.267C172.175 196.445 172.27 196.659 172.27 196.909C172.27 197.159 172.175 197.373 171.986 197.551C171.8 197.729 171.577 197.818 171.315 197.818ZM177.976 208.182C177.158 208.182 176.453 207.989 175.862 207.602C175.271 207.216 174.817 206.684 174.499 206.006C174.18 205.328 174.021 204.553 174.021 203.682C174.021 202.795 174.184 202.013 174.51 201.335C174.839 200.653 175.298 200.121 175.885 199.739C176.476 199.352 177.165 199.159 177.953 199.159C178.567 199.159 179.12 199.273 179.612 199.5C180.105 199.727 180.508 200.045 180.822 200.455C181.137 200.864 181.332 201.341 181.408 201.886H180.067C179.964 201.489 179.737 201.136 179.385 200.83C179.036 200.519 178.567 200.364 177.976 200.364C177.453 200.364 176.995 200.5 176.601 200.773C176.211 201.042 175.906 201.422 175.686 201.915C175.47 202.403 175.362 202.977 175.362 203.636C175.362 204.311 175.468 204.898 175.68 205.398C175.896 205.898 176.199 206.286 176.589 206.562C176.983 206.839 177.446 206.977 177.976 206.977C178.324 206.977 178.641 206.917 178.925 206.795C179.209 206.674 179.449 206.5 179.646 206.273C179.843 206.045 179.983 205.773 180.067 205.455H181.408C181.332 205.97 181.144 206.434 180.845 206.847C180.55 207.256 180.158 207.581 179.669 207.824C179.184 208.062 178.62 208.182 177.976 208.182ZM185.936 208.205C185.383 208.205 184.881 208.1 184.43 207.892C183.98 207.68 183.622 207.375 183.357 206.977C183.091 206.576 182.959 206.091 182.959 205.523C182.959 205.023 183.057 204.617 183.254 204.307C183.451 203.992 183.714 203.746 184.044 203.568C184.374 203.39 184.737 203.258 185.135 203.17C185.536 203.08 185.94 203.008 186.345 202.955C186.875 202.886 187.305 202.835 187.635 202.801C187.968 202.763 188.211 202.701 188.362 202.614C188.518 202.527 188.595 202.375 188.595 202.159V202.114C188.595 201.553 188.442 201.117 188.135 200.807C187.832 200.496 187.372 200.341 186.754 200.341C186.114 200.341 185.612 200.481 185.249 200.761C184.885 201.042 184.629 201.341 184.482 201.659L183.209 201.205C183.436 200.674 183.739 200.261 184.118 199.966C184.5 199.667 184.917 199.458 185.368 199.341C185.822 199.22 186.269 199.159 186.709 199.159C186.989 199.159 187.311 199.193 187.675 199.261C188.042 199.326 188.396 199.46 188.737 199.665C189.082 199.869 189.368 200.178 189.595 200.591C189.822 201.004 189.936 201.557 189.936 202.25V208H188.595V206.818H188.527C188.436 207.008 188.285 207.21 188.072 207.426C187.86 207.642 187.578 207.826 187.226 207.977C186.874 208.129 186.444 208.205 185.936 208.205ZM186.141 207C186.671 207 187.118 206.896 187.482 206.688C187.849 206.479 188.125 206.21 188.311 205.881C188.5 205.551 188.595 205.205 188.595 204.841V203.614C188.538 203.682 188.413 203.744 188.22 203.801C188.031 203.854 187.811 203.902 187.561 203.943C187.315 203.981 187.074 204.015 186.839 204.045C186.608 204.072 186.421 204.095 186.277 204.114C185.929 204.159 185.603 204.233 185.3 204.335C185 204.434 184.758 204.583 184.572 204.784C184.391 204.981 184.3 205.25 184.3 205.591C184.3 206.057 184.472 206.409 184.817 206.648C185.165 206.883 185.607 207 186.141 207ZM196.179 199.273V200.409H191.656V199.273H196.179ZM192.974 197.182H194.315V205.5C194.315 205.879 194.37 206.163 194.48 206.352C194.594 206.538 194.738 206.663 194.912 206.727C195.09 206.788 195.277 206.818 195.474 206.818C195.622 206.818 195.743 206.811 195.838 206.795C195.933 206.777 196.009 206.761 196.065 206.75L196.338 207.955C196.247 207.989 196.12 208.023 195.957 208.057C195.795 208.095 195.588 208.114 195.338 208.114C194.959 208.114 194.588 208.032 194.224 207.869C193.865 207.706 193.565 207.458 193.327 207.125C193.092 206.792 192.974 206.371 192.974 205.864V197.182ZM201.648 208.182C200.86 208.182 200.169 207.994 199.574 207.619C198.983 207.244 198.521 206.72 198.188 206.045C197.858 205.371 197.693 204.583 197.693 203.682C197.693 202.773 197.858 201.979 198.188 201.301C198.521 200.623 198.983 200.097 199.574 199.722C200.169 199.347 200.86 199.159 201.648 199.159C202.436 199.159 203.125 199.347 203.716 199.722C204.311 200.097 204.773 200.623 205.102 201.301C205.436 201.979 205.602 202.773 205.602 203.682C205.602 204.583 205.436 205.371 205.102 206.045C204.773 206.72 204.311 207.244 203.716 207.619C203.125 207.994 202.436 208.182 201.648 208.182ZM201.648 206.977C202.246 206.977 202.739 206.824 203.125 206.517C203.511 206.21 203.797 205.807 203.983 205.307C204.169 204.807 204.261 204.265 204.261 203.682C204.261 203.098 204.169 202.555 203.983 202.051C203.797 201.547 203.511 201.14 203.125 200.83C202.739 200.519 202.246 200.364 201.648 200.364C201.049 200.364 200.557 200.519 200.17 200.83C199.784 201.14 199.498 201.547 199.312 202.051C199.127 202.555 199.034 203.098 199.034 203.682C199.034 204.265 199.127 204.807 199.312 205.307C199.498 205.807 199.784 206.21 200.17 206.517C200.557 206.824 201.049 206.977 201.648 206.977ZM207.649 208V199.273H208.945V200.591H209.036C209.195 200.159 209.482 199.809 209.899 199.54C210.316 199.271 210.786 199.136 211.308 199.136C211.407 199.136 211.53 199.138 211.678 199.142C211.825 199.146 211.937 199.152 212.013 199.159V200.523C211.967 200.511 211.863 200.494 211.7 200.472C211.541 200.445 211.373 200.432 211.195 200.432C210.77 200.432 210.392 200.521 210.058 200.699C209.729 200.873 209.467 201.116 209.274 201.426C209.085 201.733 208.99 202.083 208.99 202.477V208H207.649Z" fill="white"/>
<path d="M540.5 120V154" stroke="#DA0087"/>
<path d="M540.5 162L536.5 154H544.5L540.5 162Z" fill="#DA0087"/>
<rect x="485" y="100" width="111" height="28" rx="14" fill="#DA0087"/>
<path d="M498.409 120V108.364H502.341C503.254 108.364 504 108.528 504.58 108.858C505.163 109.184 505.595 109.625 505.875 110.182C506.155 110.739 506.295 111.36 506.295 112.045C506.295 112.731 506.155 113.354 505.875 113.915C505.598 114.475 505.17 114.922 504.591 115.256C504.011 115.585 503.269 115.75 502.364 115.75H499.545V114.5H502.318C502.943 114.5 503.445 114.392 503.824 114.176C504.203 113.96 504.477 113.669 504.648 113.301C504.822 112.93 504.909 112.511 504.909 112.045C504.909 111.58 504.822 111.163 504.648 110.795C504.477 110.428 504.201 110.14 503.818 109.932C503.436 109.72 502.928 109.614 502.295 109.614H499.818V120H498.409ZM511.949 120.182C511.108 120.182 510.383 119.996 509.773 119.625C509.167 119.25 508.699 118.727 508.369 118.057C508.044 117.383 507.881 116.598 507.881 115.705C507.881 114.811 508.044 114.023 508.369 113.341C508.699 112.655 509.157 112.121 509.744 111.739C510.335 111.352 511.025 111.159 511.812 111.159C512.267 111.159 512.716 111.235 513.159 111.386C513.602 111.538 514.006 111.784 514.369 112.125C514.733 112.462 515.023 112.909 515.239 113.466C515.455 114.023 515.562 114.708 515.562 115.523V116.091H508.835V114.932H514.199C514.199 114.439 514.1 114 513.903 113.614C513.71 113.227 513.434 112.922 513.074 112.699C512.718 112.475 512.297 112.364 511.812 112.364C511.278 112.364 510.816 112.496 510.426 112.761C510.04 113.023 509.742 113.364 509.534 113.784C509.326 114.205 509.222 114.655 509.222 115.136V115.909C509.222 116.568 509.335 117.127 509.562 117.585C509.794 118.04 510.114 118.386 510.523 118.625C510.932 118.86 511.407 118.977 511.949 118.977C512.301 118.977 512.619 118.928 512.903 118.83C513.191 118.727 513.439 118.576 513.648 118.375C513.856 118.17 514.017 117.917 514.131 117.614L515.426 117.977C515.29 118.417 515.061 118.803 514.739 119.136C514.417 119.466 514.019 119.723 513.545 119.909C513.072 120.091 512.54 120.182 511.949 120.182ZM517.602 120V111.273H518.898V112.591H518.989C519.148 112.159 519.436 111.809 519.852 111.54C520.269 111.271 520.739 111.136 521.261 111.136C521.36 111.136 521.483 111.138 521.631 111.142C521.778 111.146 521.89 111.152 521.966 111.159V112.523C521.92 112.511 521.816 112.494 521.653 112.472C521.494 112.445 521.326 112.432 521.148 112.432C520.723 112.432 520.345 112.521 520.011 112.699C519.682 112.873 519.42 113.116 519.227 113.426C519.038 113.733 518.943 114.083 518.943 114.477V120H517.602ZM526.835 120.182C526.017 120.182 525.313 119.989 524.722 119.602C524.131 119.216 523.676 118.684 523.358 118.006C523.04 117.328 522.881 116.553 522.881 115.682C522.881 114.795 523.044 114.013 523.369 113.335C523.699 112.653 524.157 112.121 524.744 111.739C525.335 111.352 526.025 111.159 526.812 111.159C527.426 111.159 527.979 111.273 528.472 111.5C528.964 111.727 529.367 112.045 529.682 112.455C529.996 112.864 530.191 113.341 530.267 113.886H528.926C528.824 113.489 528.597 113.136 528.244 112.83C527.896 112.519 527.426 112.364 526.835 112.364C526.313 112.364 525.854 112.5 525.46 112.773C525.07 113.042 524.765 113.422 524.545 113.915C524.33 114.403 524.222 114.977 524.222 115.636C524.222 116.311 524.328 116.898 524.54 117.398C524.756 117.898 525.059 118.286 525.449 118.562C525.843 118.839 526.305 118.977 526.835 118.977C527.184 118.977 527.5 118.917 527.784 118.795C528.068 118.674 528.309 118.5 528.506 118.273C528.703 118.045 528.843 117.773 528.926 117.455H530.267C530.191 117.97 530.004 118.434 529.705 118.847C529.409 119.256 529.017 119.581 528.528 119.824C528.044 120.062 527.479 120.182 526.835 120.182ZM535.886 120.182C535.045 120.182 534.32 119.996 533.71 119.625C533.104 119.25 532.636 118.727 532.307 118.057C531.981 117.383 531.818 116.598 531.818 115.705C531.818 114.811 531.981 114.023 532.307 113.341C532.636 112.655 533.095 112.121 533.682 111.739C534.273 111.352 534.962 111.159 535.75 111.159C536.205 111.159 536.653 111.235 537.097 111.386C537.54 111.538 537.943 111.784 538.307 112.125C538.67 112.462 538.96 112.909 539.176 113.466C539.392 114.023 539.5 114.708 539.5 115.523V116.091H532.773V114.932H538.136C538.136 114.439 538.038 114 537.841 113.614C537.648 113.227 537.371 112.922 537.011 112.699C536.655 112.475 536.235 112.364 535.75 112.364C535.216 112.364 534.754 112.496 534.364 112.761C533.977 113.023 533.68 113.364 533.472 113.784C533.263 114.205 533.159 114.655 533.159 115.136V115.909C533.159 116.568 533.273 117.127 533.5 117.585C533.731 118.04 534.051 118.386 534.46 118.625C534.869 118.86 535.345 118.977 535.886 118.977C536.239 118.977 536.557 118.928 536.841 118.83C537.129 118.727 537.377 118.576 537.585 118.375C537.794 118.17 537.955 117.917 538.068 117.614L539.364 117.977C539.227 118.417 538.998 118.803 538.676 119.136C538.354 119.466 537.956 119.723 537.483 119.909C537.009 120.091 536.477 120.182 535.886 120.182ZM542.881 114.75V120H541.54V111.273H542.835V112.636H542.949C543.153 112.193 543.464 111.837 543.881 111.568C544.297 111.295 544.835 111.159 545.494 111.159C546.085 111.159 546.602 111.28 547.045 111.523C547.489 111.761 547.833 112.125 548.08 112.614C548.326 113.098 548.449 113.712 548.449 114.455V120H547.108V114.545C547.108 113.86 546.93 113.326 546.574 112.943C546.218 112.557 545.729 112.364 545.108 112.364C544.68 112.364 544.297 112.456 543.96 112.642C543.627 112.828 543.364 113.098 543.17 113.455C542.977 113.811 542.881 114.242 542.881 114.75ZM554.695 111.273V112.409H550.172V111.273H554.695ZM551.49 109.182H552.831V117.5C552.831 117.879 552.886 118.163 552.996 118.352C553.109 118.538 553.253 118.663 553.428 118.727C553.606 118.788 553.793 118.818 553.99 118.818C554.138 118.818 554.259 118.811 554.354 118.795C554.448 118.777 554.524 118.761 554.581 118.75L554.854 119.955C554.763 119.989 554.636 120.023 554.473 120.057C554.31 120.095 554.104 120.114 553.854 120.114C553.475 120.114 553.104 120.032 552.74 119.869C552.38 119.706 552.081 119.458 551.842 119.125C551.607 118.792 551.49 118.371 551.49 117.864V109.182ZM559.28 120.205C558.727 120.205 558.225 120.1 557.774 119.892C557.323 119.68 556.965 119.375 556.7 118.977C556.435 118.576 556.303 118.091 556.303 117.523C556.303 117.023 556.401 116.617 556.598 116.307C556.795 115.992 557.058 115.746 557.388 115.568C557.717 115.39 558.081 115.258 558.479 115.17C558.88 115.08 559.284 115.008 559.689 114.955C560.219 114.886 560.649 114.835 560.979 114.801C561.312 114.763 561.554 114.701 561.706 114.614C561.861 114.527 561.939 114.375 561.939 114.159V114.114C561.939 113.553 561.786 113.117 561.479 112.807C561.176 112.496 560.715 112.341 560.098 112.341C559.458 112.341 558.956 112.481 558.592 112.761C558.229 113.042 557.973 113.341 557.825 113.659L556.553 113.205C556.78 112.674 557.083 112.261 557.462 111.966C557.844 111.667 558.261 111.458 558.712 111.341C559.166 111.22 559.613 111.159 560.053 111.159C560.333 111.159 560.655 111.193 561.018 111.261C561.386 111.326 561.74 111.46 562.081 111.665C562.426 111.869 562.712 112.178 562.939 112.591C563.166 113.004 563.28 113.557 563.28 114.25V120H561.939V118.818H561.871C561.78 119.008 561.628 119.21 561.416 119.426C561.204 119.642 560.922 119.826 560.57 119.977C560.217 120.129 559.787 120.205 559.28 120.205ZM559.484 119C560.015 119 560.462 118.896 560.825 118.688C561.193 118.479 561.469 118.21 561.655 117.881C561.844 117.551 561.939 117.205 561.939 116.841V115.614C561.882 115.682 561.757 115.744 561.564 115.801C561.375 115.854 561.155 115.902 560.905 115.943C560.659 115.981 560.418 116.015 560.183 116.045C559.952 116.072 559.765 116.095 559.621 116.114C559.272 116.159 558.946 116.233 558.643 116.335C558.344 116.434 558.102 116.583 557.916 116.784C557.734 116.981 557.643 117.25 557.643 117.591C557.643 118.057 557.816 118.409 558.161 118.648C558.509 118.883 558.95 119 559.484 119ZM569.25 123.455C568.602 123.455 568.045 123.371 567.58 123.205C567.114 123.042 566.725 122.826 566.415 122.557C566.108 122.292 565.864 122.008 565.682 121.705L566.75 120.955C566.871 121.114 567.025 121.295 567.21 121.5C567.396 121.708 567.65 121.888 567.972 122.04C568.297 122.195 568.723 122.273 569.25 122.273C569.955 122.273 570.536 122.102 570.994 121.761C571.453 121.42 571.682 120.886 571.682 120.159V118.386H571.568C571.47 118.545 571.33 118.742 571.148 118.977C570.97 119.208 570.712 119.415 570.375 119.597C570.042 119.775 569.591 119.864 569.023 119.864C568.318 119.864 567.686 119.697 567.125 119.364C566.568 119.03 566.127 118.545 565.801 117.909C565.479 117.273 565.318 116.5 565.318 115.591C565.318 114.697 565.475 113.919 565.79 113.256C566.104 112.589 566.542 112.074 567.102 111.71C567.663 111.343 568.311 111.159 569.045 111.159C569.614 111.159 570.064 111.254 570.398 111.443C570.735 111.629 570.992 111.841 571.17 112.08C571.352 112.314 571.492 112.508 571.591 112.659H571.727V111.273H573.023V120.25C573.023 121 572.852 121.61 572.511 122.08C572.174 122.553 571.72 122.9 571.148 123.119C570.58 123.343 569.947 123.455 569.25 123.455ZM569.205 118.659C569.742 118.659 570.197 118.536 570.568 118.29C570.939 118.044 571.222 117.689 571.415 117.227C571.608 116.765 571.705 116.212 571.705 115.568C571.705 114.939 571.61 114.384 571.42 113.903C571.231 113.422 570.951 113.045 570.58 112.773C570.208 112.5 569.75 112.364 569.205 112.364C568.636 112.364 568.163 112.508 567.784 112.795C567.409 113.083 567.127 113.47 566.938 113.955C566.752 114.439 566.659 114.977 566.659 115.568C566.659 116.174 566.754 116.71 566.943 117.176C567.136 117.638 567.42 118.002 567.795 118.267C568.174 118.528 568.644 118.659 569.205 118.659ZM579.136 120.182C578.295 120.182 577.57 119.996 576.96 119.625C576.354 119.25 575.886 118.727 575.557 118.057C575.231 117.383 575.068 116.598 575.068 115.705C575.068 114.811 575.231 114.023 575.557 113.341C575.886 112.655 576.345 112.121 576.932 111.739C577.523 111.352 578.212 111.159 579 111.159C579.455 111.159 579.903 111.235 580.347 111.386C580.79 111.538 581.193 111.784 581.557 112.125C581.92 112.462 582.21 112.909 582.426 113.466C582.642 114.023 582.75 114.708 582.75 115.523V116.091H576.023V114.932H581.386C581.386 114.439 581.288 114 581.091 113.614C580.898 113.227 580.621 112.922 580.261 112.699C579.905 112.475 579.485 112.364 579 112.364C578.466 112.364 578.004 112.496 577.614 112.761C577.227 113.023 576.93 113.364 576.722 113.784C576.513 114.205 576.409 114.655 576.409 115.136V115.909C576.409 116.568 576.523 117.127 576.75 117.585C576.981 118.04 577.301 118.386 577.71 118.625C578.119 118.86 578.595 118.977 579.136 118.977C579.489 118.977 579.807 118.928 580.091 118.83C580.379 118.727 580.627 118.576 580.835 118.375C581.044 118.17 581.205 117.917 581.318 117.614L582.614 117.977C582.477 118.417 582.248 118.803 581.926 119.136C581.604 119.466 581.206 119.723 580.733 119.909C580.259 120.091 579.727 120.182 579.136 120.182Z" fill="white"/>
<defs>
<clipPath id="clip0_2102_35974">
<rect x="758" y="200" width="174" height="4" rx="2" fill="white"/>
</clipPath>
<clipPath id="clip1_2102_35974">
<rect x="258" y="197" width="300" height="8" rx="4" fill="white"/>
</clipPath>
</defs>
</svg>
