<svg width="559" height="300" viewBox="0 0 559 300" fill="none" xmlns="http://www.w3.org/2000/svg">
<rect width="559" height="300" rx="16" fill="#1A1A1A"/>
<path d="M60.98 64.92H62.408V71.752C62.408 72.4893 62.66 73.0587 63.164 73.46C63.612 73.824 64.214 74.006 64.97 74.006C65.838 74.006 66.5007 73.768 66.958 73.292C67.3407 72.9 67.532 72.3867 67.532 71.752V64.92H68.918V71.626C68.918 72.802 68.5073 73.7167 67.686 74.37C66.986 74.93 66.076 75.21 64.956 75.21C63.6587 75.21 62.646 74.8413 61.918 74.104C61.2927 73.4693 60.98 72.6433 60.98 71.626V64.92ZM70.8784 67.72H71.9844L72.1944 68.672C72.7918 67.8973 73.6131 67.51 74.6584 67.51C75.7038 67.51 76.5158 67.8833 77.0944 68.63C77.6078 69.302 77.8644 70.1933 77.8644 71.304C77.8644 72.62 77.5144 73.628 76.8144 74.328C76.2264 74.916 75.4751 75.21 74.5604 75.21C73.5244 75.21 72.7451 74.8273 72.2224 74.062V77.52H70.8784V67.72ZM76.4644 71.276C76.4644 70.3613 76.2358 69.6753 75.7784 69.218C75.4144 68.8447 74.9384 68.658 74.3504 68.658C73.6691 68.658 73.1278 68.9053 72.7264 69.4C72.3438 69.876 72.1524 70.5013 72.1524 71.276C72.1524 72.2093 72.3811 72.9233 72.8384 73.418C73.2211 73.8473 73.7251 74.062 74.3504 74.062C75.0504 74.062 75.5824 73.8053 75.9464 73.292C76.2918 72.816 76.4644 72.144 76.4644 71.276ZM80.7537 64.92V75H79.4097V64.92H80.7537ZM82.2983 71.36C82.2983 70.0253 82.6949 69.0173 83.4883 68.336C84.1229 67.7853 84.9256 67.51 85.8963 67.51C87.0256 67.51 87.9123 67.8693 88.5563 68.588C89.1723 69.26 89.4803 70.184 89.4803 71.36C89.4803 72.676 89.0929 73.6793 88.3183 74.37C87.6836 74.93 86.8716 75.21 85.8823 75.21C84.7529 75.21 83.8616 74.8367 83.2083 74.09C82.6016 73.4087 82.2983 72.4987 82.2983 71.36ZM83.6983 71.36C83.6983 72.2933 83.9363 73.0073 84.4123 73.502C84.8043 73.9127 85.3036 74.118 85.9103 74.118C86.6196 74.118 87.1656 73.852 87.5483 73.32C87.9029 72.8347 88.0803 72.1813 88.0803 71.36C88.0803 70.408 87.8469 69.6893 87.3803 69.204C86.9976 68.8027 86.5029 68.602 85.8963 68.602C85.1963 68.602 84.6503 68.868 84.2583 69.4C83.8849 69.8853 83.6983 70.5387 83.6983 71.36ZM92.1651 69.75H90.7371C90.8118 69.022 91.1571 68.4573 91.7731 68.056C92.3238 67.692 93.0191 67.51 93.8591 67.51C94.8578 67.51 95.6231 67.7713 96.1551 68.294C96.6031 68.742 96.8271 69.3207 96.8271 70.03V75H95.7211L95.5531 74.006C94.9838 74.8087 94.1718 75.21 93.1171 75.21C92.2864 75.21 91.6378 74.986 91.1711 74.538C90.7884 74.1647 90.5971 73.6933 90.5971 73.124C90.5971 72.4053 90.8444 71.85 91.3391 71.458C91.7778 71.1127 92.4498 70.8607 93.3551 70.702L95.4831 70.338V69.974C95.4831 69.498 95.3198 69.1387 94.9931 68.896C94.7038 68.6813 94.3071 68.574 93.8031 68.574C92.8138 68.574 92.2678 68.966 92.1651 69.75ZM93.4391 74.076C94.0084 74.076 94.5031 73.8893 94.9231 73.516C95.2964 73.1707 95.4831 72.774 95.4831 72.326V71.388L93.6771 71.71C93.0144 71.822 92.5618 71.9947 92.3191 72.228C92.1231 72.4147 92.0251 72.6667 92.0251 72.984C92.0251 73.3387 92.1464 73.6093 92.3891 73.796C92.6318 73.9827 92.9818 74.076 93.4391 74.076ZM105.28 75H104.174L103.936 73.978C103.376 74.7993 102.569 75.21 101.514 75.21C100.497 75.21 99.6944 74.8413 99.1064 74.104C98.565 73.4227 98.2944 72.522 98.2944 71.402C98.2944 70.0487 98.6397 69.0313 99.3304 68.35C99.909 67.79 100.665 67.51 101.598 67.51C102.606 67.51 103.386 67.888 103.936 68.644V64.92H105.28V75ZM99.6944 71.43C99.6944 72.3353 99.9184 73.0213 100.366 73.488C100.74 73.8707 101.22 74.062 101.808 74.062C102.536 74.062 103.101 73.7867 103.502 73.236C103.838 72.76 104.006 72.1627 104.006 71.444C104.006 70.5013 103.782 69.7827 103.334 69.288C102.952 68.868 102.443 68.658 101.808 68.658C101.099 68.658 100.562 68.9147 100.198 69.428C99.8624 69.8947 99.6944 70.562 99.6944 71.43ZM108.674 66.502H107.162V64.92H108.674V66.502ZM108.59 75H107.246V67.72H108.59V75ZM111.898 75H110.554V67.72H111.66L111.814 68.644C112.356 67.888 113.093 67.51 114.026 67.51C114.885 67.51 115.543 67.776 116 68.308C116.402 68.784 116.602 69.4327 116.602 70.254V75H115.258V70.268C115.258 69.1947 114.74 68.658 113.704 68.658C113.163 68.658 112.72 68.8447 112.374 69.218C112.057 69.554 111.898 69.9833 111.898 70.506V75ZM118.414 75.49H119.856C119.921 75.8633 120.108 76.1527 120.416 76.358C120.733 76.5633 121.148 76.666 121.662 76.666C122.38 76.666 122.917 76.4793 123.272 76.106C123.57 75.7887 123.72 75.3453 123.72 74.776V73.838C123.178 74.4727 122.371 74.79 121.298 74.79C120.327 74.79 119.538 74.44 118.932 73.74C118.362 73.0867 118.078 72.2373 118.078 71.192C118.078 69.9787 118.423 69.0407 119.114 68.378C119.702 67.7993 120.458 67.51 121.382 67.51C122.427 67.51 123.216 67.902 123.748 68.686L123.958 67.72H125.064V74.846C125.064 75.7607 124.732 76.4793 124.07 77.002C123.472 77.4873 122.684 77.73 121.704 77.73C120.686 77.73 119.888 77.5013 119.31 77.044C118.824 76.6613 118.526 76.1433 118.414 75.49ZM119.478 71.22C119.478 72.0133 119.711 72.634 120.178 73.082C120.56 73.4553 121.032 73.642 121.592 73.642C122.329 73.642 122.894 73.3993 123.286 72.914C123.622 72.5033 123.79 71.9527 123.79 71.262C123.79 70.3753 123.561 69.6987 123.104 69.232C122.721 68.8493 122.217 68.658 121.592 68.658C120.901 68.658 120.369 68.896 119.996 69.372C119.65 69.82 119.478 70.436 119.478 71.22Z" fill="white" fill-opacity="0.95"/>
<path d="M238.719 66.404L234.715 75H233.189L237.291 66.404H232.489V65.2H238.719V66.404ZM240.548 72.62H241.976C242.079 73.0773 242.321 73.4367 242.704 73.698C243.068 73.95 243.516 74.076 244.048 74.076C244.711 74.076 245.243 73.8473 245.644 73.39C245.999 72.9793 246.176 72.438 246.176 71.766C246.176 71.01 245.957 70.436 245.518 70.044C245.154 69.708 244.673 69.54 244.076 69.54C243.273 69.54 242.62 69.8387 242.116 70.436H240.926L241.136 65.2H247.156V66.334H242.354L242.242 69.204C242.839 68.728 243.553 68.49 244.384 68.49C245.355 68.49 246.134 68.8073 246.722 69.442C247.282 70.0487 247.562 70.842 247.562 71.822C247.562 72.8393 247.212 73.67 246.512 74.314C245.868 74.9113 245.042 75.21 244.034 75.21C243.017 75.21 242.172 74.9113 241.5 74.314C240.977 73.8473 240.66 73.2827 240.548 72.62ZM253.493 67.356C253.493 68.1493 253.217 68.7653 252.667 69.204C252.228 69.5493 251.705 69.722 251.099 69.722C250.389 69.722 249.811 69.498 249.363 69.05C248.933 68.6207 248.719 68.056 248.719 67.356C248.719 66.5533 248.994 65.9373 249.545 65.508C249.974 65.1627 250.492 64.99 251.099 64.99C251.808 64.99 252.387 65.214 252.835 65.662C253.273 66.0913 253.493 66.656 253.493 67.356ZM249.853 67.356C249.853 67.86 249.988 68.2333 250.259 68.476C250.473 68.6533 250.753 68.742 251.099 68.742C251.5 68.742 251.813 68.6207 252.037 68.378C252.261 68.1447 252.373 67.804 252.373 67.356C252.373 66.852 252.228 66.4787 251.939 66.236C251.724 66.0587 251.444 65.97 251.099 65.97C250.697 65.97 250.389 66.0913 250.175 66.334C249.96 66.5673 249.853 66.908 249.853 67.356ZM257.413 65.2L252.065 75H250.721L256.069 65.2H257.413ZM259.513 72.844C259.513 73.6373 259.237 74.2533 258.687 74.692C258.248 75.0373 257.725 75.21 257.119 75.21C256.409 75.21 255.831 74.986 255.383 74.538C254.953 74.1087 254.739 73.544 254.739 72.844C254.739 72.0413 255.014 71.4253 255.565 70.996C255.994 70.6507 256.512 70.478 257.119 70.478C257.828 70.478 258.407 70.702 258.855 71.15C259.293 71.5793 259.513 72.144 259.513 72.844ZM255.873 72.844C255.873 73.348 256.008 73.7213 256.279 73.964C256.493 74.1413 256.773 74.23 257.119 74.23C257.52 74.23 257.833 74.1087 258.057 73.866C258.281 73.6327 258.393 73.292 258.393 72.844C258.393 72.34 258.248 71.9667 257.959 71.724C257.744 71.5467 257.464 71.458 257.119 71.458C256.717 71.458 256.409 71.5793 256.195 71.822C255.98 72.0553 255.873 72.396 255.873 72.844Z" fill="white" fill-opacity="0.95"/>
<rect x="60" y="89" width="200" height="8" rx="4" fill="#3B3B3B"/>
<rect x="60" y="89" width="150" height="8" rx="4" fill="#3492EB"/>
<g clip-path="url(#clip0_2102_36112)">
<path d="M69.884 120H68.302L67.308 117.452H62.506L61.498 120H60L64.144 109.92H65.754L69.884 120ZM64.928 111.348L62.968 116.29H66.846L64.928 111.348ZM75.5408 112.72H76.9408L74.3788 120H72.5588L70.0248 112.72H71.4948L73.5108 118.908L75.5408 112.72ZM82.7387 117.9H84.1947C83.9894 118.637 83.5834 119.216 82.9767 119.636C82.4074 120.019 81.7261 120.21 80.9327 120.21C79.7847 120.21 78.8887 119.846 78.2447 119.118C77.6567 118.437 77.3627 117.517 77.3627 116.36C77.3627 115.044 77.7361 114.045 78.4827 113.364C79.0987 112.795 79.8921 112.51 80.8627 112.51C82.0014 112.51 82.8601 112.879 83.4387 113.616C83.9987 114.325 84.2787 115.338 84.2787 116.654H78.7347C78.7907 117.513 79.0521 118.152 79.5187 118.572C79.9014 118.908 80.3867 119.076 80.9747 119.076C81.4321 119.076 81.8287 118.95 82.1647 118.698C82.4447 118.483 82.6361 118.217 82.7387 117.9ZM80.8907 113.588C80.2934 113.588 79.8127 113.775 79.4487 114.148C79.1034 114.493 78.8841 114.974 78.7907 115.59H82.9067C82.8601 114.89 82.6267 114.367 82.2067 114.022C81.8707 113.733 81.4321 113.588 80.8907 113.588ZM87.2342 120H85.8902V112.72H86.9962L87.1782 113.798C87.5888 112.939 88.2048 112.51 89.0262 112.51C89.2968 112.51 89.5628 112.543 89.8242 112.608V113.952C89.5068 113.868 89.2222 113.826 88.9702 113.826C88.4288 113.826 88.0042 114.045 87.6962 114.484C87.3882 114.923 87.2342 115.543 87.2342 116.346V120ZM92.0284 114.75H90.6004C90.6751 114.022 91.0204 113.457 91.6364 113.056C92.1871 112.692 92.8824 112.51 93.7224 112.51C94.7211 112.51 95.4864 112.771 96.0184 113.294C96.4664 113.742 96.6904 114.321 96.6904 115.03V120H95.5844L95.4164 119.006C94.8471 119.809 94.0351 120.21 92.9804 120.21C92.1497 120.21 91.5011 119.986 91.0344 119.538C90.6517 119.165 90.4604 118.693 90.4604 118.124C90.4604 117.405 90.7077 116.85 91.2024 116.458C91.6411 116.113 92.3131 115.861 93.2184 115.702L95.3464 115.338V114.974C95.3464 114.498 95.1831 114.139 94.8564 113.896C94.5671 113.681 94.1704 113.574 93.6664 113.574C92.6771 113.574 92.1311 113.966 92.0284 114.75ZM93.3024 119.076C93.8717 119.076 94.3664 118.889 94.7864 118.516C95.1597 118.171 95.3464 117.774 95.3464 117.326V116.388L93.5404 116.71C92.8777 116.822 92.4251 116.995 92.1824 117.228C91.9864 117.415 91.8884 117.667 91.8884 117.984C91.8884 118.339 92.0097 118.609 92.2524 118.796C92.4951 118.983 92.8451 119.076 93.3024 119.076ZM98.4937 120.49H99.9357C100.001 120.863 100.188 121.153 100.496 121.358C100.813 121.563 101.228 121.666 101.742 121.666C102.46 121.666 102.997 121.479 103.352 121.106C103.65 120.789 103.8 120.345 103.8 119.776V118.838C103.258 119.473 102.451 119.79 101.378 119.79C100.407 119.79 99.6183 119.44 99.0117 118.74C98.4423 118.087 98.1577 117.237 98.1577 116.192C98.1577 114.979 98.503 114.041 99.1937 113.378C99.7817 112.799 100.538 112.51 101.462 112.51C102.507 112.51 103.296 112.902 103.828 113.686L104.038 112.72H105.144V119.846C105.144 120.761 104.812 121.479 104.15 122.002C103.552 122.487 102.764 122.73 101.784 122.73C100.766 122.73 99.9683 122.501 99.3897 122.044C98.9043 121.661 98.6057 121.143 98.4937 120.49ZM99.5577 116.22C99.5577 117.013 99.791 117.634 100.258 118.082C100.64 118.455 101.112 118.642 101.672 118.642C102.409 118.642 102.974 118.399 103.366 117.914C103.702 117.503 103.87 116.953 103.87 116.262C103.87 115.375 103.641 114.699 103.184 114.232C102.801 113.849 102.297 113.658 101.672 113.658C100.981 113.658 100.449 113.896 100.076 114.372C99.7303 114.82 99.5577 115.436 99.5577 116.22ZM112.065 117.9H113.521C113.316 118.637 112.91 119.216 112.303 119.636C111.734 120.019 111.052 120.21 110.259 120.21C109.111 120.21 108.215 119.846 107.571 119.118C106.983 118.437 106.689 117.517 106.689 116.36C106.689 115.044 107.062 114.045 107.809 113.364C108.425 112.795 109.218 112.51 110.189 112.51C111.328 112.51 112.186 112.879 112.765 113.616C113.325 114.325 113.605 115.338 113.605 116.654H108.061C108.117 117.513 108.378 118.152 108.845 118.572C109.228 118.908 109.713 119.076 110.301 119.076C110.758 119.076 111.155 118.95 111.491 118.698C111.771 118.483 111.962 118.217 112.065 117.9ZM110.217 113.588C109.62 113.588 109.139 113.775 108.775 114.148C108.43 114.493 108.21 114.974 108.117 115.59H112.233C112.186 114.89 111.953 114.367 111.533 114.022C111.197 113.733 110.758 113.588 110.217 113.588ZM118.994 116.36C118.994 115.025 119.39 114.017 120.184 113.336C120.818 112.785 121.621 112.51 122.592 112.51C123.721 112.51 124.608 112.869 125.252 113.588C125.868 114.26 126.176 115.184 126.176 116.36C126.176 117.676 125.788 118.679 125.014 119.37C124.379 119.93 123.567 120.21 122.578 120.21C121.448 120.21 120.557 119.837 119.904 119.09C119.297 118.409 118.994 117.499 118.994 116.36ZM120.394 116.36C120.394 117.293 120.632 118.007 121.108 118.502C121.5 118.913 121.999 119.118 122.606 119.118C123.315 119.118 123.861 118.852 124.244 118.32C124.598 117.835 124.776 117.181 124.776 116.36C124.776 115.408 124.542 114.689 124.076 114.204C123.693 113.803 123.198 113.602 122.592 113.602C121.892 113.602 121.346 113.868 120.954 114.4C120.58 114.885 120.394 115.539 120.394 116.36ZM131.31 109.878V111.04C130.862 110.928 130.494 110.872 130.204 110.872C129.962 110.872 129.77 110.937 129.63 111.068C129.5 111.199 129.434 111.381 129.434 111.614V112.72H131.002V113.868H129.434V120H128.09V113.868H127.012V112.72H128.09V111.698C128.09 111.054 128.3 110.55 128.72 110.186C129.094 109.869 129.56 109.71 130.12 109.71C130.484 109.71 130.881 109.766 131.31 109.878ZM142.847 112.51C142.847 112.967 142.707 113.392 142.427 113.784C142.147 114.176 141.751 114.507 141.237 114.778C142.553 115.357 143.211 116.215 143.211 117.354C143.211 118.25 142.843 118.969 142.105 119.51C141.452 119.977 140.631 120.21 139.641 120.21C138.503 120.21 137.597 119.916 136.925 119.328C136.356 118.824 136.071 118.199 136.071 117.452C136.071 116.733 136.305 116.131 136.771 115.646C137.089 115.31 137.495 115.049 137.989 114.862C136.953 114.377 136.435 113.625 136.435 112.608C136.435 111.703 136.799 111.012 137.527 110.536C138.097 110.172 138.801 109.99 139.641 109.99C140.621 109.99 141.405 110.214 141.993 110.662C142.563 111.11 142.847 111.726 142.847 112.51ZM141.783 117.354C141.783 116.635 141.48 116.108 140.873 115.772C140.575 115.604 140.066 115.441 139.347 115.282C138.806 115.441 138.372 115.683 138.045 116.01C137.681 116.383 137.499 116.831 137.499 117.354C137.499 117.895 137.7 118.325 138.101 118.642C138.475 118.95 138.988 119.104 139.641 119.104C140.379 119.104 140.939 118.917 141.321 118.544C141.629 118.245 141.783 117.849 141.783 117.354ZM137.751 112.538C137.751 113.229 138.036 113.733 138.605 114.05C138.932 114.227 139.371 114.353 139.921 114.428C140.976 114.017 141.503 113.387 141.503 112.538C141.503 112.053 141.298 111.67 140.887 111.39C140.542 111.157 140.127 111.04 139.641 111.04C139.063 111.04 138.596 111.18 138.241 111.46C137.915 111.731 137.751 112.09 137.751 112.538ZM144.55 117.62H145.978C146.081 118.077 146.323 118.437 146.706 118.698C147.07 118.95 147.518 119.076 148.05 119.076C148.713 119.076 149.245 118.847 149.646 118.39C150.001 117.979 150.178 117.438 150.178 116.766C150.178 116.01 149.959 115.436 149.52 115.044C149.156 114.708 148.675 114.54 148.078 114.54C147.275 114.54 146.622 114.839 146.118 115.436H144.928L145.138 110.2H151.158V111.334H146.356L146.244 114.204C146.841 113.728 147.555 113.49 148.386 113.49C149.357 113.49 150.136 113.807 150.724 114.442C151.284 115.049 151.564 115.842 151.564 116.822C151.564 117.839 151.214 118.67 150.514 119.314C149.87 119.911 149.044 120.21 148.036 120.21C147.019 120.21 146.174 119.911 145.502 119.314C144.979 118.847 144.662 118.283 144.55 117.62ZM157.494 112.356C157.494 113.149 157.219 113.765 156.668 114.204C156.23 114.549 155.707 114.722 155.1 114.722C154.391 114.722 153.812 114.498 153.364 114.05C152.935 113.621 152.72 113.056 152.72 112.356C152.72 111.553 152.996 110.937 153.546 110.508C153.976 110.163 154.494 109.99 155.1 109.99C155.81 109.99 156.388 110.214 156.836 110.662C157.275 111.091 157.494 111.656 157.494 112.356ZM153.854 112.356C153.854 112.86 153.99 113.233 154.26 113.476C154.475 113.653 154.755 113.742 155.1 113.742C155.502 113.742 155.814 113.621 156.038 113.378C156.262 113.145 156.374 112.804 156.374 112.356C156.374 111.852 156.23 111.479 155.94 111.236C155.726 111.059 155.446 110.97 155.1 110.97C154.699 110.97 154.391 111.091 154.176 111.334C153.962 111.567 153.854 111.908 153.854 112.356ZM161.414 110.2L156.066 120H154.722L160.07 110.2H161.414ZM163.514 117.844C163.514 118.637 163.239 119.253 162.688 119.692C162.25 120.037 161.727 120.21 161.12 120.21C160.411 120.21 159.832 119.986 159.384 119.538C158.955 119.109 158.74 118.544 158.74 117.844C158.74 117.041 159.016 116.425 159.566 115.996C159.996 115.651 160.514 115.478 161.12 115.478C161.83 115.478 162.408 115.702 162.856 116.15C163.295 116.579 163.514 117.144 163.514 117.844ZM159.874 117.844C159.874 118.348 160.01 118.721 160.28 118.964C160.495 119.141 160.775 119.23 161.12 119.23C161.522 119.23 161.834 119.109 162.058 118.866C162.282 118.633 162.394 118.292 162.394 117.844C162.394 117.34 162.25 116.967 161.96 116.724C161.746 116.547 161.466 116.458 161.12 116.458C160.719 116.458 160.411 116.579 160.196 116.822C159.982 117.055 159.874 117.396 159.874 117.844ZM173.855 112.72H175.255L172.693 120H170.873L168.339 112.72H169.809L171.825 118.908L173.855 112.72ZM177.799 111.502H176.287V109.92H177.799V111.502ZM177.715 120H176.371V112.72H177.715V120ZM186.245 120H185.139L184.901 118.978C184.341 119.799 183.534 120.21 182.479 120.21C181.462 120.21 180.659 119.841 180.071 119.104C179.53 118.423 179.259 117.522 179.259 116.402C179.259 115.049 179.605 114.031 180.295 113.35C180.874 112.79 181.63 112.51 182.563 112.51C183.571 112.51 184.351 112.888 184.901 113.644V109.92H186.245V120ZM180.659 116.43C180.659 117.335 180.883 118.021 181.331 118.488C181.705 118.871 182.185 119.062 182.773 119.062C183.501 119.062 184.066 118.787 184.467 118.236C184.803 117.76 184.971 117.163 184.971 116.444C184.971 115.501 184.747 114.783 184.299 114.288C183.917 113.868 183.408 113.658 182.773 113.658C182.064 113.658 181.527 113.915 181.163 114.428C180.827 114.895 180.659 115.562 180.659 116.43ZM193.166 117.9H194.622C194.417 118.637 194.011 119.216 193.404 119.636C192.835 120.019 192.154 120.21 191.36 120.21C190.212 120.21 189.316 119.846 188.672 119.118C188.084 118.437 187.79 117.517 187.79 116.36C187.79 115.044 188.164 114.045 188.91 113.364C189.526 112.795 190.32 112.51 191.29 112.51C192.429 112.51 193.288 112.879 193.866 113.616C194.426 114.325 194.706 115.338 194.706 116.654H189.162C189.218 117.513 189.48 118.152 189.946 118.572C190.329 118.908 190.814 119.076 191.402 119.076C191.86 119.076 192.256 118.95 192.592 118.698C192.872 118.483 193.064 118.217 193.166 117.9ZM191.318 113.588C190.721 113.588 190.24 113.775 189.876 114.148C189.531 114.493 189.312 114.974 189.218 115.59H193.334C193.288 114.89 193.054 114.367 192.634 114.022C192.298 113.733 191.86 113.588 191.318 113.588ZM195.898 116.36C195.898 115.025 196.295 114.017 197.088 113.336C197.723 112.785 198.525 112.51 199.496 112.51C200.625 112.51 201.512 112.869 202.156 113.588C202.772 114.26 203.08 115.184 203.08 116.36C203.08 117.676 202.693 118.679 201.918 119.37C201.283 119.93 200.471 120.21 199.482 120.21C198.353 120.21 197.461 119.837 196.808 119.09C196.201 118.409 195.898 117.499 195.898 116.36ZM197.298 116.36C197.298 117.293 197.536 118.007 198.012 118.502C198.404 118.913 198.903 119.118 199.51 119.118C200.219 119.118 200.765 118.852 201.148 118.32C201.503 117.835 201.68 117.181 201.68 116.36C201.68 115.408 201.447 114.689 200.98 114.204C200.597 113.803 200.103 113.602 199.496 113.602C198.796 113.602 198.25 113.868 197.858 114.4C197.485 114.885 197.298 115.539 197.298 116.36ZM210.158 120H208.814V112.72H209.92L210.06 113.574C210.555 112.865 211.269 112.51 212.202 112.51C213.219 112.51 213.933 112.893 214.344 113.658C214.829 112.893 215.618 112.51 216.71 112.51C217.522 112.51 218.147 112.757 218.586 113.252C218.978 113.709 219.174 114.335 219.174 115.128V120H217.83V115.226C217.83 114.181 217.359 113.658 216.416 113.658C215.856 113.658 215.408 113.877 215.072 114.316C214.801 114.671 214.666 115.086 214.666 115.562V120H213.322V115.226C213.322 114.181 212.851 113.658 211.908 113.658C211.385 113.658 210.951 113.863 210.606 114.274C210.307 114.619 210.158 115.035 210.158 115.52V120ZM226.02 117.9H227.476C227.271 118.637 226.865 119.216 226.258 119.636C225.689 120.019 225.007 120.21 224.214 120.21C223.066 120.21 222.17 119.846 221.526 119.118C220.938 118.437 220.644 117.517 220.644 116.36C220.644 115.044 221.017 114.045 221.764 113.364C222.38 112.795 223.173 112.51 224.144 112.51C225.283 112.51 226.141 112.879 226.72 113.616C227.28 114.325 227.56 115.338 227.56 116.654H222.016C222.072 117.513 222.333 118.152 222.8 118.572C223.183 118.908 223.668 119.076 224.256 119.076C224.713 119.076 225.11 118.95 225.446 118.698C225.726 118.483 225.917 118.217 226.02 117.9ZM224.172 113.588C223.575 113.588 223.094 113.775 222.73 114.148C222.385 114.493 222.165 114.974 222.072 115.59H226.188C226.141 114.89 225.908 114.367 225.488 114.022C225.152 113.733 224.713 113.588 224.172 113.588ZM234.127 117.9H235.583C235.378 118.637 234.972 119.216 234.365 119.636C233.796 120.019 233.115 120.21 232.321 120.21C231.173 120.21 230.277 119.846 229.633 119.118C229.045 118.437 228.751 117.517 228.751 116.36C228.751 115.044 229.125 114.045 229.871 113.364C230.487 112.795 231.281 112.51 232.251 112.51C233.39 112.51 234.249 112.879 234.827 113.616C235.387 114.325 235.667 115.338 235.667 116.654H230.123C230.179 117.513 230.441 118.152 230.907 118.572C231.29 118.908 231.775 119.076 232.363 119.076C232.821 119.076 233.217 118.95 233.553 118.698C233.833 118.483 234.025 118.217 234.127 117.9ZM232.279 113.588C231.682 113.588 231.201 113.775 230.837 114.148C230.492 114.493 230.273 114.974 230.179 115.59H234.295C234.249 114.89 234.015 114.367 233.595 114.022C233.259 113.733 232.821 113.588 232.279 113.588ZM240.527 118.922V120.07C240.181 120.163 239.85 120.21 239.533 120.21C238.861 120.21 238.357 120 238.021 119.58C237.731 119.235 237.587 118.773 237.587 118.194V113.868H236.509V112.72H237.587L237.671 110.97H238.931V112.72H240.499V113.868H238.931V118.222C238.931 118.763 239.187 119.034 239.701 119.034C239.943 119.034 240.219 118.997 240.527 118.922ZM243.219 111.502H241.707V109.92H243.219V111.502ZM243.135 120H241.791V112.72H243.135V120ZM246.443 120H245.099V112.72H246.205L246.359 113.644C246.9 112.888 247.638 112.51 248.571 112.51C249.43 112.51 250.088 112.776 250.545 113.308C250.946 113.784 251.147 114.433 251.147 115.254V120H249.803V115.268C249.803 114.195 249.285 113.658 248.249 113.658C247.708 113.658 247.264 113.845 246.919 114.218C246.602 114.554 246.443 114.983 246.443 115.506V120ZM252.959 120.49H254.401C254.466 120.863 254.653 121.153 254.961 121.358C255.278 121.563 255.693 121.666 256.207 121.666C256.925 121.666 257.462 121.479 257.817 121.106C258.115 120.789 258.265 120.345 258.265 119.776V118.838C257.723 119.473 256.916 119.79 255.843 119.79C254.872 119.79 254.083 119.44 253.477 118.74C252.907 118.087 252.623 117.237 252.623 116.192C252.623 114.979 252.968 114.041 253.659 113.378C254.247 112.799 255.003 112.51 255.927 112.51C256.972 112.51 257.761 112.902 258.293 113.686L258.503 112.72H259.609V119.846C259.609 120.761 259.277 121.479 258.615 122.002C258.017 122.487 257.229 122.73 256.249 122.73C255.231 122.73 254.433 122.501 253.855 122.044C253.369 121.661 253.071 121.143 252.959 120.49ZM254.023 116.22C254.023 117.013 254.256 117.634 254.723 118.082C255.105 118.455 255.577 118.642 256.137 118.642C256.874 118.642 257.439 118.399 257.831 117.914C258.167 117.503 258.335 116.953 258.335 116.262C258.335 115.375 258.106 114.699 257.649 114.232C257.266 113.849 256.762 113.658 256.137 113.658C255.446 113.658 254.914 113.896 254.541 114.372C254.195 114.82 254.023 115.436 254.023 116.22ZM265.701 112.72H267.045V117.494C267.045 118.539 267.549 119.062 268.557 119.062C269.173 119.062 269.644 118.843 269.971 118.404C270.223 118.068 270.349 117.653 270.349 117.158V112.72H271.693V120H270.587L270.433 119.16C269.92 119.86 269.192 120.21 268.249 120.21C267.418 120.21 266.779 119.953 266.331 119.44C265.911 118.964 265.701 118.306 265.701 117.466V112.72ZM277.916 118.026C277.916 117.615 277.701 117.307 277.272 117.102C277.02 116.99 276.53 116.85 275.802 116.682C274.906 116.486 274.266 116.201 273.884 115.828C273.566 115.511 273.408 115.095 273.408 114.582C273.408 113.901 273.683 113.378 274.234 113.014C274.728 112.678 275.396 112.51 276.236 112.51C277.104 112.51 277.808 112.725 278.35 113.154C278.816 113.527 279.106 114.022 279.218 114.638H277.846C277.687 113.929 277.146 113.574 276.222 113.574C275.708 113.574 275.326 113.667 275.074 113.854C274.868 114.013 274.766 114.213 274.766 114.456C274.766 114.755 274.878 114.979 275.102 115.128C275.335 115.277 275.788 115.427 276.46 115.576C277.486 115.8 278.2 116.075 278.602 116.402C279.05 116.766 279.274 117.275 279.274 117.928C279.274 118.656 278.975 119.23 278.378 119.65C277.836 120.023 277.122 120.21 276.236 120.21C275.265 120.21 274.495 119.977 273.926 119.51C273.431 119.099 273.156 118.567 273.1 117.914H274.472C274.621 118.735 275.214 119.146 276.25 119.146C276.81 119.146 277.244 119.025 277.552 118.782C277.794 118.586 277.916 118.334 277.916 118.026ZM285.766 117.9H287.222C287.017 118.637 286.611 119.216 286.004 119.636C285.435 120.019 284.753 120.21 283.96 120.21C282.812 120.21 281.916 119.846 281.272 119.118C280.684 118.437 280.39 117.517 280.39 116.36C280.39 115.044 280.763 114.045 281.51 113.364C282.126 112.795 282.919 112.51 283.89 112.51C285.029 112.51 285.887 112.879 286.466 113.616C287.026 114.325 287.306 115.338 287.306 116.654H281.762C281.818 117.513 282.079 118.152 282.546 118.572C282.929 118.908 283.414 119.076 284.002 119.076C284.459 119.076 284.856 118.95 285.192 118.698C285.472 118.483 285.663 118.217 285.766 117.9ZM283.918 113.588C283.321 113.588 282.84 113.775 282.476 114.148C282.131 114.493 281.911 114.974 281.818 115.59H285.934C285.887 114.89 285.654 114.367 285.234 114.022C284.898 113.733 284.459 113.588 283.918 113.588ZM295.484 120H294.378L294.14 118.978C293.58 119.799 292.772 120.21 291.718 120.21C290.7 120.21 289.898 119.841 289.31 119.104C288.768 118.423 288.498 117.522 288.498 116.402C288.498 115.049 288.843 114.031 289.534 113.35C290.112 112.79 290.868 112.51 291.802 112.51C292.81 112.51 293.589 112.888 294.14 113.644V109.92H295.484V120ZM289.898 116.43C289.898 117.335 290.122 118.021 290.57 118.488C290.943 118.871 291.424 119.062 292.012 119.062C292.74 119.062 293.304 118.787 293.706 118.236C294.042 117.76 294.21 117.163 294.21 116.444C294.21 115.501 293.986 114.783 293.538 114.288C293.155 113.868 292.646 113.658 292.012 113.658C291.302 113.658 290.766 113.915 290.402 114.428C290.066 114.895 289.898 115.562 289.898 116.43Z" fill="white" fill-opacity="0.7"/>
</g>
<path d="M60.98 178.92H62.408V185.752C62.408 186.489 62.66 187.059 63.164 187.46C63.612 187.824 64.214 188.006 64.97 188.006C65.838 188.006 66.5007 187.768 66.958 187.292C67.3407 186.9 67.532 186.387 67.532 185.752V178.92H68.918V185.626C68.918 186.802 68.5073 187.717 67.686 188.37C66.986 188.93 66.076 189.21 64.956 189.21C63.6587 189.21 62.646 188.841 61.918 188.104C61.2927 187.469 60.98 186.643 60.98 185.626V178.92ZM70.8784 181.72H71.9844L72.1944 182.672C72.7918 181.897 73.6131 181.51 74.6584 181.51C75.7038 181.51 76.5158 181.883 77.0944 182.63C77.6078 183.302 77.8644 184.193 77.8644 185.304C77.8644 186.62 77.5144 187.628 76.8144 188.328C76.2264 188.916 75.4751 189.21 74.5604 189.21C73.5244 189.21 72.7451 188.827 72.2224 188.062V191.52H70.8784V181.72ZM76.4644 185.276C76.4644 184.361 76.2358 183.675 75.7784 183.218C75.4144 182.845 74.9384 182.658 74.3504 182.658C73.6691 182.658 73.1278 182.905 72.7264 183.4C72.3438 183.876 72.1524 184.501 72.1524 185.276C72.1524 186.209 72.3811 186.923 72.8384 187.418C73.2211 187.847 73.7251 188.062 74.3504 188.062C75.0504 188.062 75.5824 187.805 75.9464 187.292C76.2918 186.816 76.4644 186.144 76.4644 185.276ZM80.7537 178.92V189H79.4097V178.92H80.7537ZM82.2983 185.36C82.2983 184.025 82.6949 183.017 83.4883 182.336C84.1229 181.785 84.9256 181.51 85.8963 181.51C87.0256 181.51 87.9123 181.869 88.5563 182.588C89.1723 183.26 89.4803 184.184 89.4803 185.36C89.4803 186.676 89.0929 187.679 88.3183 188.37C87.6836 188.93 86.8716 189.21 85.8823 189.21C84.7529 189.21 83.8616 188.837 83.2083 188.09C82.6016 187.409 82.2983 186.499 82.2983 185.36ZM83.6983 185.36C83.6983 186.293 83.9363 187.007 84.4123 187.502C84.8043 187.913 85.3036 188.118 85.9103 188.118C86.6196 188.118 87.1656 187.852 87.5483 187.32C87.9029 186.835 88.0803 186.181 88.0803 185.36C88.0803 184.408 87.8469 183.689 87.3803 183.204C86.9976 182.803 86.5029 182.602 85.8963 182.602C85.1963 182.602 84.6503 182.868 84.2583 183.4C83.8849 183.885 83.6983 184.539 83.6983 185.36ZM92.1651 183.75H90.7371C90.8118 183.022 91.1571 182.457 91.7731 182.056C92.3238 181.692 93.0191 181.51 93.8591 181.51C94.8578 181.51 95.6231 181.771 96.1551 182.294C96.6031 182.742 96.8271 183.321 96.8271 184.03V189H95.7211L95.5531 188.006C94.9838 188.809 94.1718 189.21 93.1171 189.21C92.2864 189.21 91.6378 188.986 91.1711 188.538C90.7884 188.165 90.5971 187.693 90.5971 187.124C90.5971 186.405 90.8444 185.85 91.3391 185.458C91.7778 185.113 92.4498 184.861 93.3551 184.702L95.4831 184.338V183.974C95.4831 183.498 95.3198 183.139 94.9931 182.896C94.7038 182.681 94.3071 182.574 93.8031 182.574C92.8138 182.574 92.2678 182.966 92.1651 183.75ZM93.4391 188.076C94.0084 188.076 94.5031 187.889 94.9231 187.516C95.2964 187.171 95.4831 186.774 95.4831 186.326V185.388L93.6771 185.71C93.0144 185.822 92.5618 185.995 92.3191 186.228C92.1231 186.415 92.0251 186.667 92.0251 186.984C92.0251 187.339 92.1464 187.609 92.3891 187.796C92.6318 187.983 92.9818 188.076 93.4391 188.076ZM105.28 189H104.174L103.936 187.978C103.376 188.799 102.569 189.21 101.514 189.21C100.497 189.21 99.6944 188.841 99.1064 188.104C98.565 187.423 98.2944 186.522 98.2944 185.402C98.2944 184.049 98.6397 183.031 99.3304 182.35C99.909 181.79 100.665 181.51 101.598 181.51C102.606 181.51 103.386 181.888 103.936 182.644V178.92H105.28V189ZM99.6944 185.43C99.6944 186.335 99.9184 187.021 100.366 187.488C100.74 187.871 101.22 188.062 101.808 188.062C102.536 188.062 103.101 187.787 103.502 187.236C103.838 186.76 104.006 186.163 104.006 185.444C104.006 184.501 103.782 183.783 103.334 183.288C102.952 182.868 102.443 182.658 101.808 182.658C101.099 182.658 100.562 182.915 100.198 183.428C99.8624 183.895 99.6944 184.562 99.6944 185.43ZM108.674 180.502H107.162V178.92H108.674V180.502ZM108.59 189H107.246V181.72H108.59V189ZM111.898 189H110.554V181.72H111.66L111.814 182.644C112.356 181.888 113.093 181.51 114.026 181.51C114.885 181.51 115.543 181.776 116 182.308C116.402 182.784 116.602 183.433 116.602 184.254V189H115.258V184.268C115.258 183.195 114.74 182.658 113.704 182.658C113.163 182.658 112.72 182.845 112.374 183.218C112.057 183.554 111.898 183.983 111.898 184.506V189ZM118.414 189.49H119.856C119.921 189.863 120.108 190.153 120.416 190.358C120.733 190.563 121.148 190.666 121.662 190.666C122.38 190.666 122.917 190.479 123.272 190.106C123.57 189.789 123.72 189.345 123.72 188.776V187.838C123.178 188.473 122.371 188.79 121.298 188.79C120.327 188.79 119.538 188.44 118.932 187.74C118.362 187.087 118.078 186.237 118.078 185.192C118.078 183.979 118.423 183.041 119.114 182.378C119.702 181.799 120.458 181.51 121.382 181.51C122.427 181.51 123.216 181.902 123.748 182.686L123.958 181.72H125.064V188.846C125.064 189.761 124.732 190.479 124.07 191.002C123.472 191.487 122.684 191.73 121.704 191.73C120.686 191.73 119.888 191.501 119.31 191.044C118.824 190.661 118.526 190.143 118.414 189.49ZM119.478 185.22C119.478 186.013 119.711 186.634 120.178 187.082C120.56 187.455 121.032 187.642 121.592 187.642C122.329 187.642 122.894 187.399 123.286 186.914C123.622 186.503 123.79 185.953 123.79 185.262C123.79 184.375 123.561 183.699 123.104 183.232C122.721 182.849 122.217 182.658 121.592 182.658C120.901 182.658 120.369 182.896 119.996 183.372C119.65 183.82 119.478 184.436 119.478 185.22Z" fill="white" fill-opacity="0.95"/>
<path d="M438.719 180.404L434.715 189H433.189L437.291 180.404H432.489V179.2H438.719V180.404ZM440.548 186.62H441.976C442.079 187.077 442.321 187.437 442.704 187.698C443.068 187.95 443.516 188.076 444.048 188.076C444.711 188.076 445.243 187.847 445.644 187.39C445.999 186.979 446.176 186.438 446.176 185.766C446.176 185.01 445.957 184.436 445.518 184.044C445.154 183.708 444.673 183.54 444.076 183.54C443.273 183.54 442.62 183.839 442.116 184.436H440.926L441.136 179.2H447.156V180.334H442.354L442.242 183.204C442.839 182.728 443.553 182.49 444.384 182.49C445.355 182.49 446.134 182.807 446.722 183.442C447.282 184.049 447.562 184.842 447.562 185.822C447.562 186.839 447.212 187.67 446.512 188.314C445.868 188.911 445.042 189.21 444.034 189.21C443.017 189.21 442.172 188.911 441.5 188.314C440.977 187.847 440.66 187.283 440.548 186.62ZM453.493 181.356C453.493 182.149 453.217 182.765 452.667 183.204C452.228 183.549 451.705 183.722 451.099 183.722C450.389 183.722 449.811 183.498 449.363 183.05C448.933 182.621 448.719 182.056 448.719 181.356C448.719 180.553 448.994 179.937 449.545 179.508C449.974 179.163 450.492 178.99 451.099 178.99C451.808 178.99 452.387 179.214 452.835 179.662C453.273 180.091 453.493 180.656 453.493 181.356ZM449.853 181.356C449.853 181.86 449.988 182.233 450.259 182.476C450.473 182.653 450.753 182.742 451.099 182.742C451.5 182.742 451.813 182.621 452.037 182.378C452.261 182.145 452.373 181.804 452.373 181.356C452.373 180.852 452.228 180.479 451.939 180.236C451.724 180.059 451.444 179.97 451.099 179.97C450.697 179.97 450.389 180.091 450.175 180.334C449.96 180.567 449.853 180.908 449.853 181.356ZM457.413 179.2L452.065 189H450.721L456.069 179.2H457.413ZM459.513 186.844C459.513 187.637 459.237 188.253 458.687 188.692C458.248 189.037 457.725 189.21 457.119 189.21C456.409 189.21 455.831 188.986 455.383 188.538C454.953 188.109 454.739 187.544 454.739 186.844C454.739 186.041 455.014 185.425 455.565 184.996C455.994 184.651 456.512 184.478 457.119 184.478C457.828 184.478 458.407 184.702 458.855 185.15C459.293 185.579 459.513 186.144 459.513 186.844ZM455.873 186.844C455.873 187.348 456.008 187.721 456.279 187.964C456.493 188.141 456.773 188.23 457.119 188.23C457.52 188.23 457.833 188.109 458.057 187.866C458.281 187.633 458.393 187.292 458.393 186.844C458.393 186.34 458.248 185.967 457.959 185.724C457.744 185.547 457.464 185.458 457.119 185.458C456.717 185.458 456.409 185.579 456.195 185.822C455.98 186.055 455.873 186.396 455.873 186.844Z" fill="white" fill-opacity="0.95"/>
<rect x="60" y="203" width="400" height="8" rx="4" fill="#3B3B3B"/>
<rect x="60" y="203" width="300" height="8" rx="4" fill="#3492EB"/>
<g clip-path="url(#clip1_2102_36112)">
<path d="M69.884 234H68.302L67.308 231.452H62.506L61.498 234H60L64.144 223.92H65.754L69.884 234ZM64.928 225.348L62.968 230.29H66.846L64.928 225.348ZM75.5408 226.72H76.9408L74.3788 234H72.5588L70.0248 226.72H71.4948L73.5108 232.908L75.5408 226.72ZM82.7387 231.9H84.1947C83.9894 232.637 83.5834 233.216 82.9767 233.636C82.4074 234.019 81.7261 234.21 80.9327 234.21C79.7847 234.21 78.8887 233.846 78.2447 233.118C77.6567 232.437 77.3627 231.517 77.3627 230.36C77.3627 229.044 77.7361 228.045 78.4827 227.364C79.0987 226.795 79.8921 226.51 80.8627 226.51C82.0014 226.51 82.8601 226.879 83.4387 227.616C83.9987 228.325 84.2787 229.338 84.2787 230.654H78.7347C78.7907 231.513 79.0521 232.152 79.5187 232.572C79.9014 232.908 80.3867 233.076 80.9747 233.076C81.4321 233.076 81.8287 232.95 82.1647 232.698C82.4447 232.483 82.6361 232.217 82.7387 231.9ZM80.8907 227.588C80.2934 227.588 79.8127 227.775 79.4487 228.148C79.1034 228.493 78.8841 228.974 78.7907 229.59H82.9067C82.8601 228.89 82.6267 228.367 82.2067 228.022C81.8707 227.733 81.4321 227.588 80.8907 227.588ZM87.2342 234H85.8902V226.72H86.9962L87.1782 227.798C87.5888 226.939 88.2048 226.51 89.0262 226.51C89.2968 226.51 89.5628 226.543 89.8242 226.608V227.952C89.5068 227.868 89.2222 227.826 88.9702 227.826C88.4288 227.826 88.0042 228.045 87.6962 228.484C87.3882 228.923 87.2342 229.543 87.2342 230.346V234ZM92.0284 228.75H90.6004C90.6751 228.022 91.0204 227.457 91.6364 227.056C92.1871 226.692 92.8824 226.51 93.7224 226.51C94.7211 226.51 95.4864 226.771 96.0184 227.294C96.4664 227.742 96.6904 228.321 96.6904 229.03V234H95.5844L95.4164 233.006C94.8471 233.809 94.0351 234.21 92.9804 234.21C92.1497 234.21 91.5011 233.986 91.0344 233.538C90.6517 233.165 90.4604 232.693 90.4604 232.124C90.4604 231.405 90.7077 230.85 91.2024 230.458C91.6411 230.113 92.3131 229.861 93.2184 229.702L95.3464 229.338V228.974C95.3464 228.498 95.1831 228.139 94.8564 227.896C94.5671 227.681 94.1704 227.574 93.6664 227.574C92.6771 227.574 92.1311 227.966 92.0284 228.75ZM93.3024 233.076C93.8717 233.076 94.3664 232.889 94.7864 232.516C95.1597 232.171 95.3464 231.774 95.3464 231.326V230.388L93.5404 230.71C92.8777 230.822 92.4251 230.995 92.1824 231.228C91.9864 231.415 91.8884 231.667 91.8884 231.984C91.8884 232.339 92.0097 232.609 92.2524 232.796C92.4951 232.983 92.8451 233.076 93.3024 233.076ZM98.4937 234.49H99.9357C100.001 234.863 100.188 235.153 100.496 235.358C100.813 235.563 101.228 235.666 101.742 235.666C102.46 235.666 102.997 235.479 103.352 235.106C103.65 234.789 103.8 234.345 103.8 233.776V232.838C103.258 233.473 102.451 233.79 101.378 233.79C100.407 233.79 99.6183 233.44 99.0117 232.74C98.4423 232.087 98.1577 231.237 98.1577 230.192C98.1577 228.979 98.503 228.041 99.1937 227.378C99.7817 226.799 100.538 226.51 101.462 226.51C102.507 226.51 103.296 226.902 103.828 227.686L104.038 226.72H105.144V233.846C105.144 234.761 104.812 235.479 104.15 236.002C103.552 236.487 102.764 236.73 101.784 236.73C100.766 236.73 99.9683 236.501 99.3897 236.044C98.9043 235.661 98.6057 235.143 98.4937 234.49ZM99.5577 230.22C99.5577 231.013 99.791 231.634 100.258 232.082C100.64 232.455 101.112 232.642 101.672 232.642C102.409 232.642 102.974 232.399 103.366 231.914C103.702 231.503 103.87 230.953 103.87 230.262C103.87 229.375 103.641 228.699 103.184 228.232C102.801 227.849 102.297 227.658 101.672 227.658C100.981 227.658 100.449 227.896 100.076 228.372C99.7303 228.82 99.5577 229.436 99.5577 230.22ZM112.065 231.9H113.521C113.316 232.637 112.91 233.216 112.303 233.636C111.734 234.019 111.052 234.21 110.259 234.21C109.111 234.21 108.215 233.846 107.571 233.118C106.983 232.437 106.689 231.517 106.689 230.36C106.689 229.044 107.062 228.045 107.809 227.364C108.425 226.795 109.218 226.51 110.189 226.51C111.328 226.51 112.186 226.879 112.765 227.616C113.325 228.325 113.605 229.338 113.605 230.654H108.061C108.117 231.513 108.378 232.152 108.845 232.572C109.228 232.908 109.713 233.076 110.301 233.076C110.758 233.076 111.155 232.95 111.491 232.698C111.771 232.483 111.962 232.217 112.065 231.9ZM110.217 227.588C109.62 227.588 109.139 227.775 108.775 228.148C108.43 228.493 108.21 228.974 108.117 229.59H112.233C112.186 228.89 111.953 228.367 111.533 228.022C111.197 227.733 110.758 227.588 110.217 227.588ZM118.994 230.36C118.994 229.025 119.39 228.017 120.184 227.336C120.818 226.785 121.621 226.51 122.592 226.51C123.721 226.51 124.608 226.869 125.252 227.588C125.868 228.26 126.176 229.184 126.176 230.36C126.176 231.676 125.788 232.679 125.014 233.37C124.379 233.93 123.567 234.21 122.578 234.21C121.448 234.21 120.557 233.837 119.904 233.09C119.297 232.409 118.994 231.499 118.994 230.36ZM120.394 230.36C120.394 231.293 120.632 232.007 121.108 232.502C121.5 232.913 121.999 233.118 122.606 233.118C123.315 233.118 123.861 232.852 124.244 232.32C124.598 231.835 124.776 231.181 124.776 230.36C124.776 229.408 124.542 228.689 124.076 228.204C123.693 227.803 123.198 227.602 122.592 227.602C121.892 227.602 121.346 227.868 120.954 228.4C120.58 228.885 120.394 229.539 120.394 230.36ZM131.31 223.878V225.04C130.862 224.928 130.494 224.872 130.204 224.872C129.962 224.872 129.77 224.937 129.63 225.068C129.5 225.199 129.434 225.381 129.434 225.614V226.72H131.002V227.868H129.434V234H128.09V227.868H127.012V226.72H128.09V225.698C128.09 225.054 128.3 224.55 128.72 224.186C129.094 223.869 129.56 223.71 130.12 223.71C130.484 223.71 130.881 223.766 131.31 223.878ZM142.847 226.51C142.847 226.967 142.707 227.392 142.427 227.784C142.147 228.176 141.751 228.507 141.237 228.778C142.553 229.357 143.211 230.215 143.211 231.354C143.211 232.25 142.843 232.969 142.105 233.51C141.452 233.977 140.631 234.21 139.641 234.21C138.503 234.21 137.597 233.916 136.925 233.328C136.356 232.824 136.071 232.199 136.071 231.452C136.071 230.733 136.305 230.131 136.771 229.646C137.089 229.31 137.495 229.049 137.989 228.862C136.953 228.377 136.435 227.625 136.435 226.608C136.435 225.703 136.799 225.012 137.527 224.536C138.097 224.172 138.801 223.99 139.641 223.99C140.621 223.99 141.405 224.214 141.993 224.662C142.563 225.11 142.847 225.726 142.847 226.51ZM141.783 231.354C141.783 230.635 141.48 230.108 140.873 229.772C140.575 229.604 140.066 229.441 139.347 229.282C138.806 229.441 138.372 229.683 138.045 230.01C137.681 230.383 137.499 230.831 137.499 231.354C137.499 231.895 137.7 232.325 138.101 232.642C138.475 232.95 138.988 233.104 139.641 233.104C140.379 233.104 140.939 232.917 141.321 232.544C141.629 232.245 141.783 231.849 141.783 231.354ZM137.751 226.538C137.751 227.229 138.036 227.733 138.605 228.05C138.932 228.227 139.371 228.353 139.921 228.428C140.976 228.017 141.503 227.387 141.503 226.538C141.503 226.053 141.298 225.67 140.887 225.39C140.542 225.157 140.127 225.04 139.641 225.04C139.063 225.04 138.596 225.18 138.241 225.46C137.915 225.731 137.751 226.09 137.751 226.538ZM144.55 231.62H145.978C146.081 232.077 146.323 232.437 146.706 232.698C147.07 232.95 147.518 233.076 148.05 233.076C148.713 233.076 149.245 232.847 149.646 232.39C150.001 231.979 150.178 231.438 150.178 230.766C150.178 230.01 149.959 229.436 149.52 229.044C149.156 228.708 148.675 228.54 148.078 228.54C147.275 228.54 146.622 228.839 146.118 229.436H144.928L145.138 224.2H151.158V225.334H146.356L146.244 228.204C146.841 227.728 147.555 227.49 148.386 227.49C149.357 227.49 150.136 227.807 150.724 228.442C151.284 229.049 151.564 229.842 151.564 230.822C151.564 231.839 151.214 232.67 150.514 233.314C149.87 233.911 149.044 234.21 148.036 234.21C147.019 234.21 146.174 233.911 145.502 233.314C144.979 232.847 144.662 232.283 144.55 231.62ZM157.494 226.356C157.494 227.149 157.219 227.765 156.668 228.204C156.23 228.549 155.707 228.722 155.1 228.722C154.391 228.722 153.812 228.498 153.364 228.05C152.935 227.621 152.72 227.056 152.72 226.356C152.72 225.553 152.996 224.937 153.546 224.508C153.976 224.163 154.494 223.99 155.1 223.99C155.81 223.99 156.388 224.214 156.836 224.662C157.275 225.091 157.494 225.656 157.494 226.356ZM153.854 226.356C153.854 226.86 153.99 227.233 154.26 227.476C154.475 227.653 154.755 227.742 155.1 227.742C155.502 227.742 155.814 227.621 156.038 227.378C156.262 227.145 156.374 226.804 156.374 226.356C156.374 225.852 156.23 225.479 155.94 225.236C155.726 225.059 155.446 224.97 155.1 224.97C154.699 224.97 154.391 225.091 154.176 225.334C153.962 225.567 153.854 225.908 153.854 226.356ZM161.414 224.2L156.066 234H154.722L160.07 224.2H161.414ZM163.514 231.844C163.514 232.637 163.239 233.253 162.688 233.692C162.25 234.037 161.727 234.21 161.12 234.21C160.411 234.21 159.832 233.986 159.384 233.538C158.955 233.109 158.74 232.544 158.74 231.844C158.74 231.041 159.016 230.425 159.566 229.996C159.996 229.651 160.514 229.478 161.12 229.478C161.83 229.478 162.408 229.702 162.856 230.15C163.295 230.579 163.514 231.144 163.514 231.844ZM159.874 231.844C159.874 232.348 160.01 232.721 160.28 232.964C160.495 233.141 160.775 233.23 161.12 233.23C161.522 233.23 161.834 233.109 162.058 232.866C162.282 232.633 162.394 232.292 162.394 231.844C162.394 231.34 162.25 230.967 161.96 230.724C161.746 230.547 161.466 230.458 161.12 230.458C160.719 230.458 160.411 230.579 160.196 230.822C159.982 231.055 159.874 231.396 159.874 231.844ZM173.855 226.72H175.255L172.693 234H170.873L168.339 226.72H169.809L171.825 232.908L173.855 226.72ZM177.799 225.502H176.287V223.92H177.799V225.502ZM177.715 234H176.371V226.72H177.715V234ZM186.245 234H185.139L184.901 232.978C184.341 233.799 183.534 234.21 182.479 234.21C181.462 234.21 180.659 233.841 180.071 233.104C179.53 232.423 179.259 231.522 179.259 230.402C179.259 229.049 179.605 228.031 180.295 227.35C180.874 226.79 181.63 226.51 182.563 226.51C183.571 226.51 184.351 226.888 184.901 227.644V223.92H186.245V234ZM180.659 230.43C180.659 231.335 180.883 232.021 181.331 232.488C181.705 232.871 182.185 233.062 182.773 233.062C183.501 233.062 184.066 232.787 184.467 232.236C184.803 231.76 184.971 231.163 184.971 230.444C184.971 229.501 184.747 228.783 184.299 228.288C183.917 227.868 183.408 227.658 182.773 227.658C182.064 227.658 181.527 227.915 181.163 228.428C180.827 228.895 180.659 229.562 180.659 230.43ZM193.166 231.9H194.622C194.417 232.637 194.011 233.216 193.404 233.636C192.835 234.019 192.154 234.21 191.36 234.21C190.212 234.21 189.316 233.846 188.672 233.118C188.084 232.437 187.79 231.517 187.79 230.36C187.79 229.044 188.164 228.045 188.91 227.364C189.526 226.795 190.32 226.51 191.29 226.51C192.429 226.51 193.288 226.879 193.866 227.616C194.426 228.325 194.706 229.338 194.706 230.654H189.162C189.218 231.513 189.48 232.152 189.946 232.572C190.329 232.908 190.814 233.076 191.402 233.076C191.86 233.076 192.256 232.95 192.592 232.698C192.872 232.483 193.064 232.217 193.166 231.9ZM191.318 227.588C190.721 227.588 190.24 227.775 189.876 228.148C189.531 228.493 189.312 228.974 189.218 229.59H193.334C193.288 228.89 193.054 228.367 192.634 228.022C192.298 227.733 191.86 227.588 191.318 227.588ZM195.898 230.36C195.898 229.025 196.295 228.017 197.088 227.336C197.723 226.785 198.525 226.51 199.496 226.51C200.625 226.51 201.512 226.869 202.156 227.588C202.772 228.26 203.08 229.184 203.08 230.36C203.08 231.676 202.693 232.679 201.918 233.37C201.283 233.93 200.471 234.21 199.482 234.21C198.353 234.21 197.461 233.837 196.808 233.09C196.201 232.409 195.898 231.499 195.898 230.36ZM197.298 230.36C197.298 231.293 197.536 232.007 198.012 232.502C198.404 232.913 198.903 233.118 199.51 233.118C200.219 233.118 200.765 232.852 201.148 232.32C201.503 231.835 201.68 231.181 201.68 230.36C201.68 229.408 201.447 228.689 200.98 228.204C200.597 227.803 200.103 227.602 199.496 227.602C198.796 227.602 198.25 227.868 197.858 228.4C197.485 228.885 197.298 229.539 197.298 230.36ZM210.158 234H208.814V226.72H209.92L210.06 227.574C210.555 226.865 211.269 226.51 212.202 226.51C213.219 226.51 213.933 226.893 214.344 227.658C214.829 226.893 215.618 226.51 216.71 226.51C217.522 226.51 218.147 226.757 218.586 227.252C218.978 227.709 219.174 228.335 219.174 229.128V234H217.83V229.226C217.83 228.181 217.359 227.658 216.416 227.658C215.856 227.658 215.408 227.877 215.072 228.316C214.801 228.671 214.666 229.086 214.666 229.562V234H213.322V229.226C213.322 228.181 212.851 227.658 211.908 227.658C211.385 227.658 210.951 227.863 210.606 228.274C210.307 228.619 210.158 229.035 210.158 229.52V234ZM226.02 231.9H227.476C227.271 232.637 226.865 233.216 226.258 233.636C225.689 234.019 225.007 234.21 224.214 234.21C223.066 234.21 222.17 233.846 221.526 233.118C220.938 232.437 220.644 231.517 220.644 230.36C220.644 229.044 221.017 228.045 221.764 227.364C222.38 226.795 223.173 226.51 224.144 226.51C225.283 226.51 226.141 226.879 226.72 227.616C227.28 228.325 227.56 229.338 227.56 230.654H222.016C222.072 231.513 222.333 232.152 222.8 232.572C223.183 232.908 223.668 233.076 224.256 233.076C224.713 233.076 225.11 232.95 225.446 232.698C225.726 232.483 225.917 232.217 226.02 231.9ZM224.172 227.588C223.575 227.588 223.094 227.775 222.73 228.148C222.385 228.493 222.165 228.974 222.072 229.59H226.188C226.141 228.89 225.908 228.367 225.488 228.022C225.152 227.733 224.713 227.588 224.172 227.588ZM234.127 231.9H235.583C235.378 232.637 234.972 233.216 234.365 233.636C233.796 234.019 233.115 234.21 232.321 234.21C231.173 234.21 230.277 233.846 229.633 233.118C229.045 232.437 228.751 231.517 228.751 230.36C228.751 229.044 229.125 228.045 229.871 227.364C230.487 226.795 231.281 226.51 232.251 226.51C233.39 226.51 234.249 226.879 234.827 227.616C235.387 228.325 235.667 229.338 235.667 230.654H230.123C230.179 231.513 230.441 232.152 230.907 232.572C231.29 232.908 231.775 233.076 232.363 233.076C232.821 233.076 233.217 232.95 233.553 232.698C233.833 232.483 234.025 232.217 234.127 231.9ZM232.279 227.588C231.682 227.588 231.201 227.775 230.837 228.148C230.492 228.493 230.273 228.974 230.179 229.59H234.295C234.249 228.89 234.015 228.367 233.595 228.022C233.259 227.733 232.821 227.588 232.279 227.588ZM240.527 232.922V234.07C240.181 234.163 239.85 234.21 239.533 234.21C238.861 234.21 238.357 234 238.021 233.58C237.731 233.235 237.587 232.773 237.587 232.194V227.868H236.509V226.72H237.587L237.671 224.97H238.931V226.72H240.499V227.868H238.931V232.222C238.931 232.763 239.187 233.034 239.701 233.034C239.943 233.034 240.219 232.997 240.527 232.922ZM243.219 225.502H241.707V223.92H243.219V225.502ZM243.135 234H241.791V226.72H243.135V234ZM246.443 234H245.099V226.72H246.205L246.359 227.644C246.9 226.888 247.638 226.51 248.571 226.51C249.43 226.51 250.088 226.776 250.545 227.308C250.946 227.784 251.147 228.433 251.147 229.254V234H249.803V229.268C249.803 228.195 249.285 227.658 248.249 227.658C247.708 227.658 247.264 227.845 246.919 228.218C246.602 228.554 246.443 228.983 246.443 229.506V234ZM252.959 234.49H254.401C254.466 234.863 254.653 235.153 254.961 235.358C255.278 235.563 255.693 235.666 256.207 235.666C256.925 235.666 257.462 235.479 257.817 235.106C258.115 234.789 258.265 234.345 258.265 233.776V232.838C257.723 233.473 256.916 233.79 255.843 233.79C254.872 233.79 254.083 233.44 253.477 232.74C252.907 232.087 252.623 231.237 252.623 230.192C252.623 228.979 252.968 228.041 253.659 227.378C254.247 226.799 255.003 226.51 255.927 226.51C256.972 226.51 257.761 226.902 258.293 227.686L258.503 226.72H259.609V233.846C259.609 234.761 259.277 235.479 258.615 236.002C258.017 236.487 257.229 236.73 256.249 236.73C255.231 236.73 254.433 236.501 253.855 236.044C253.369 235.661 253.071 235.143 252.959 234.49ZM254.023 230.22C254.023 231.013 254.256 231.634 254.723 232.082C255.105 232.455 255.577 232.642 256.137 232.642C256.874 232.642 257.439 232.399 257.831 231.914C258.167 231.503 258.335 230.953 258.335 230.262C258.335 229.375 258.106 228.699 257.649 228.232C257.266 227.849 256.762 227.658 256.137 227.658C255.446 227.658 254.914 227.896 254.541 228.372C254.195 228.82 254.023 229.436 254.023 230.22ZM265.701 226.72H267.045V231.494C267.045 232.539 267.549 233.062 268.557 233.062C269.173 233.062 269.644 232.843 269.971 232.404C270.223 232.068 270.349 231.653 270.349 231.158V226.72H271.693V234H270.587L270.433 233.16C269.92 233.86 269.192 234.21 268.249 234.21C267.418 234.21 266.779 233.953 266.331 233.44C265.911 232.964 265.701 232.306 265.701 231.466V226.72ZM277.916 232.026C277.916 231.615 277.701 231.307 277.272 231.102C277.02 230.99 276.53 230.85 275.802 230.682C274.906 230.486 274.266 230.201 273.884 229.828C273.566 229.511 273.408 229.095 273.408 228.582C273.408 227.901 273.683 227.378 274.234 227.014C274.728 226.678 275.396 226.51 276.236 226.51C277.104 226.51 277.808 226.725 278.35 227.154C278.816 227.527 279.106 228.022 279.218 228.638H277.846C277.687 227.929 277.146 227.574 276.222 227.574C275.708 227.574 275.326 227.667 275.074 227.854C274.868 228.013 274.766 228.213 274.766 228.456C274.766 228.755 274.878 228.979 275.102 229.128C275.335 229.277 275.788 229.427 276.46 229.576C277.486 229.8 278.2 230.075 278.602 230.402C279.05 230.766 279.274 231.275 279.274 231.928C279.274 232.656 278.975 233.23 278.378 233.65C277.836 234.023 277.122 234.21 276.236 234.21C275.265 234.21 274.495 233.977 273.926 233.51C273.431 233.099 273.156 232.567 273.1 231.914H274.472C274.621 232.735 275.214 233.146 276.25 233.146C276.81 233.146 277.244 233.025 277.552 232.782C277.794 232.586 277.916 232.334 277.916 232.026ZM285.766 231.9H287.222C287.017 232.637 286.611 233.216 286.004 233.636C285.435 234.019 284.753 234.21 283.96 234.21C282.812 234.21 281.916 233.846 281.272 233.118C280.684 232.437 280.39 231.517 280.39 230.36C280.39 229.044 280.763 228.045 281.51 227.364C282.126 226.795 282.919 226.51 283.89 226.51C285.029 226.51 285.887 226.879 286.466 227.616C287.026 228.325 287.306 229.338 287.306 230.654H281.762C281.818 231.513 282.079 232.152 282.546 232.572C282.929 232.908 283.414 233.076 284.002 233.076C284.459 233.076 284.856 232.95 285.192 232.698C285.472 232.483 285.663 232.217 285.766 231.9ZM283.918 227.588C283.321 227.588 282.84 227.775 282.476 228.148C282.131 228.493 281.911 228.974 281.818 229.59H285.934C285.887 228.89 285.654 228.367 285.234 228.022C284.898 227.733 284.459 227.588 283.918 227.588ZM295.484 234H294.378L294.14 232.978C293.58 233.799 292.772 234.21 291.718 234.21C290.7 234.21 289.898 233.841 289.31 233.104C288.768 232.423 288.498 231.522 288.498 230.402C288.498 229.049 288.843 228.031 289.534 227.35C290.112 226.79 290.868 226.51 291.802 226.51C292.81 226.51 293.589 226.888 294.14 227.644V223.92H295.484V234ZM289.898 230.43C289.898 231.335 290.122 232.021 290.57 232.488C290.943 232.871 291.424 233.062 292.012 233.062C292.74 233.062 293.304 232.787 293.706 232.236C294.042 231.76 294.21 231.163 294.21 230.444C294.21 229.501 293.986 228.783 293.538 228.288C293.155 227.868 292.646 227.658 292.012 227.658C291.302 227.658 290.766 227.915 290.402 228.428C290.066 228.895 289.898 229.562 289.898 230.43Z" fill="white" fill-opacity="0.7"/>
</g>
<defs>
<clipPath id="clip0_2102_36112">
<rect width="200" height="21" fill="white" transform="translate(60 105)"/>
</clipPath>
<clipPath id="clip1_2102_36112">
<rect width="200" height="21" fill="white" transform="translate(60 219)"/>
</clipPath>
</defs>
</svg>
