<svg width="1356" height="62" viewBox="0 0 1356 62" fill="none" xmlns="http://www.w3.org/2000/svg">
<mask id="path-1-inside-1_2110_46661" fill="white">
<path d="M0 0H200V62H0V0Z"/>
</mask>
<path d="M0 0H200V62H0V0Z" fill="#1A1A1A"/>
<path d="M199 0V62H201V0H199Z" fill="#707070" mask="url(#path-1-inside-1_2110_46661)"/>
<mask id="path-3-inside-2_2110_46661" fill="white">
<path d="M200 0H500V62H200V0Z"/>
</mask>
<path d="M200 0H500V62H200V0Z" fill="#1A1A1A"/>
<path d="M500 62V63H501V62H500ZM499 0V62H501V0H499ZM500 61H200V63H500V61Z" fill="#707070" mask="url(#path-3-inside-2_2110_46661)"/>
<path d="M232.358 38H230.511L235.852 23.4545H237.67L243.011 38H241.165L236.818 25.7557H236.705L232.358 38ZM233.04 32.3182H240.483V33.8807H233.04V32.3182ZM249.482 38.2273C248.459 38.2273 247.578 37.9858 246.839 37.5028C246.101 37.0199 245.533 36.3546 245.135 35.5071C244.737 34.6596 244.538 33.6913 244.538 32.6023C244.538 31.4943 244.742 30.5166 245.149 29.669C245.561 28.8168 246.134 28.1515 246.868 27.6733C247.607 27.1903 248.468 26.9489 249.453 26.9489C250.22 26.9489 250.911 27.0909 251.527 27.375C252.143 27.6591 252.647 28.0568 253.04 28.5682C253.433 29.0795 253.677 29.6761 253.771 30.358H252.095C251.967 29.8608 251.683 29.4205 251.243 29.0369C250.807 28.6487 250.22 28.4545 249.482 28.4545C248.828 28.4545 248.255 28.625 247.763 28.9659C247.275 29.3021 246.894 29.7779 246.619 30.3935C246.349 31.0043 246.214 31.7216 246.214 32.5455C246.214 33.3883 246.347 34.1222 246.612 34.7472C246.882 35.3722 247.261 35.8575 247.749 36.2031C248.241 36.5488 248.819 36.7216 249.482 36.7216C249.917 36.7216 250.312 36.6458 250.668 36.4943C251.023 36.3428 251.323 36.125 251.57 35.8409C251.816 35.5568 251.991 35.2159 252.095 34.8182H253.771C253.677 35.4621 253.442 36.0421 253.068 36.5582C252.699 37.0696 252.209 37.4768 251.598 37.7798C250.992 38.0781 250.286 38.2273 249.482 38.2273ZM260.966 27.0909V28.5114H255.312V27.0909H260.966ZM256.96 24.4773H258.636V34.875C258.636 35.3485 258.705 35.7036 258.842 35.9403C258.984 36.1723 259.164 36.3286 259.382 36.4091C259.605 36.4848 259.839 36.5227 260.085 36.5227C260.27 36.5227 260.421 36.5133 260.54 36.4943C260.658 36.4706 260.753 36.4517 260.824 36.4375L261.165 37.9432C261.051 37.9858 260.893 38.0284 260.689 38.071C260.485 38.1184 260.227 38.142 259.915 38.142C259.441 38.142 258.977 38.0402 258.523 37.8366C258.073 37.633 257.699 37.3229 257.401 36.9062C257.107 36.4896 256.96 35.964 256.96 35.3295V24.4773ZM263.487 38V27.0909H265.163V38H263.487ZM264.339 25.2727C264.013 25.2727 263.731 25.1615 263.494 24.9389C263.262 24.7164 263.146 24.4489 263.146 24.1364C263.146 23.8239 263.262 23.5563 263.494 23.3338C263.731 23.1113 264.013 23 264.339 23C264.666 23 264.946 23.1113 265.178 23.3338C265.414 23.5563 265.533 23.8239 265.533 24.1364C265.533 24.4489 265.414 24.7164 265.178 24.9389C264.946 25.1615 264.666 25.2727 264.339 25.2727ZM277.154 27.0909L273.12 38H271.415L267.381 27.0909H269.199L272.211 35.7841H272.324L275.336 27.0909H277.154ZM283.549 38.2273C282.498 38.2273 281.592 37.9953 280.829 37.5312C280.072 37.0625 279.487 36.4091 279.075 35.571C278.668 34.7282 278.464 33.7481 278.464 32.6307C278.464 31.5133 278.668 30.5284 279.075 29.6761C279.487 28.8191 280.06 28.1515 280.794 27.6733C281.532 27.1903 282.394 26.9489 283.379 26.9489C283.947 26.9489 284.508 27.0436 285.062 27.233C285.616 27.4223 286.12 27.7301 286.575 28.1562C287.029 28.5777 287.392 29.1364 287.662 29.8324C287.931 30.5284 288.066 31.3854 288.066 32.4034V33.1136H279.657V31.6648H286.362C286.362 31.0492 286.239 30.5 285.993 30.017C285.751 29.5341 285.405 29.1529 284.956 28.8736C284.511 28.5942 283.985 28.4545 283.379 28.4545C282.711 28.4545 282.134 28.6203 281.646 28.9517C281.163 29.2784 280.791 29.7045 280.531 30.2301C280.27 30.7557 280.14 31.3191 280.14 31.9205V32.8864C280.14 33.7102 280.282 34.4086 280.566 34.9815C280.855 35.5497 281.255 35.983 281.767 36.2812C282.278 36.5748 282.872 36.7216 283.549 36.7216C283.99 36.7216 284.387 36.66 284.743 36.5369C285.102 36.4091 285.413 36.2197 285.673 35.9688C285.933 35.7131 286.135 35.3958 286.277 35.017L287.896 35.4716C287.725 36.0208 287.439 36.5038 287.037 36.9205C286.634 37.3324 286.137 37.6544 285.545 37.8864C284.953 38.1136 284.288 38.2273 283.549 38.2273Z" fill="white" fill-opacity="0.95"/>
<mask id="path-6-inside-3_2110_46661" fill="white">
<path d="M500 0H740V62H500V0Z"/>
</mask>
<path d="M500 0H740V62H500V0Z" fill="#1A1A1A"/>
<path d="M740 62V63H741V62H740ZM739 0V62H741V0H739ZM740 61H500V63H740V61Z" fill="#707070" mask="url(#path-6-inside-3_2110_46661)"/>
<path d="M530.966 25.017V23.4545H541.875V25.017H537.301V38H535.54V25.017H530.966ZM547.358 38.2273C546.307 38.2273 545.4 37.9953 544.638 37.5312C543.88 37.0625 543.295 36.4091 542.884 35.571C542.476 34.7282 542.273 33.7481 542.273 32.6307C542.273 31.5133 542.476 30.5284 542.884 29.6761C543.295 28.8191 543.868 28.1515 544.602 27.6733C545.341 27.1903 546.203 26.9489 547.188 26.9489C547.756 26.9489 548.317 27.0436 548.871 27.233C549.425 27.4223 549.929 27.7301 550.384 28.1562C550.838 28.5777 551.2 29.1364 551.47 29.8324C551.74 30.5284 551.875 31.3854 551.875 32.4034V33.1136H543.466V31.6648H550.17C550.17 31.0492 550.047 30.5 549.801 30.017C549.56 29.5341 549.214 29.1529 548.764 28.8736C548.319 28.5942 547.794 28.4545 547.188 28.4545C546.52 28.4545 545.942 28.6203 545.455 28.9517C544.972 29.2784 544.6 29.7045 544.339 30.2301C544.079 30.7557 543.949 31.3191 543.949 31.9205V32.8864C543.949 33.7102 544.091 34.4086 544.375 34.9815C544.664 35.5497 545.064 35.983 545.575 36.2812C546.087 36.5748 546.681 36.7216 547.358 36.7216C547.798 36.7216 548.196 36.66 548.551 36.5369C548.911 36.4091 549.221 36.2197 549.482 35.9688C549.742 35.7131 549.943 35.3958 550.085 35.017L551.705 35.4716C551.534 36.0208 551.248 36.5038 550.845 36.9205C550.443 37.3324 549.946 37.6544 549.354 37.8864C548.762 38.1136 548.097 38.2273 547.358 38.2273ZM555.382 27.0909L557.995 31.5511L560.609 27.0909H562.541L559.018 32.5455L562.541 38H560.609L557.995 33.767L555.382 38H553.45L556.916 32.5455L553.45 27.0909H555.382ZM569.677 27.0909V28.5114H564.023V27.0909H569.677ZM565.671 24.4773H567.347V34.875C567.347 35.3485 567.416 35.7036 567.553 35.9403C567.695 36.1723 567.875 36.3286 568.093 36.4091C568.316 36.4848 568.55 36.5227 568.796 36.5227C568.981 36.5227 569.132 36.5133 569.251 36.4943C569.369 36.4706 569.464 36.4517 569.535 36.4375L569.876 37.9432C569.762 37.9858 569.603 38.0284 569.4 38.071C569.196 38.1184 568.938 38.142 568.626 38.142C568.152 38.142 567.688 38.0402 567.234 37.8366C566.784 37.633 566.41 37.3229 566.112 36.9062C565.818 36.4896 565.671 35.964 565.671 35.3295V24.4773ZM577.34 22.7727L572.653 40.1875H571.119L575.806 22.7727H577.34ZM579.327 38V27.0909H581.003V38H579.327ZM580.179 25.2727C579.853 25.2727 579.571 25.1615 579.334 24.9389C579.102 24.7164 578.986 24.4489 578.986 24.1364C578.986 23.8239 579.102 23.5563 579.334 23.3338C579.571 23.1113 579.853 23 580.179 23C580.506 23 580.785 23.1113 581.017 23.3338C581.254 23.5563 581.373 23.8239 581.373 24.1364C581.373 24.4489 581.254 24.7164 581.017 24.9389C580.785 25.1615 580.506 25.2727 580.179 25.2727ZM588.505 38.2273C587.482 38.2273 586.602 37.9858 585.863 37.5028C585.124 37.0199 584.556 36.3546 584.158 35.5071C583.761 34.6596 583.562 33.6913 583.562 32.6023C583.562 31.4943 583.765 30.5166 584.173 29.669C584.585 28.8168 585.157 28.1515 585.891 27.6733C586.63 27.1903 587.492 26.9489 588.477 26.9489C589.244 26.9489 589.935 27.0909 590.55 27.375C591.166 27.6591 591.67 28.0568 592.063 28.5682C592.456 29.0795 592.7 29.6761 592.795 30.358H591.119C590.991 29.8608 590.707 29.4205 590.266 29.0369C589.831 28.6487 589.244 28.4545 588.505 28.4545C587.852 28.4545 587.279 28.625 586.786 28.9659C586.299 29.3021 585.917 29.7779 585.643 30.3935C585.373 31.0043 585.238 31.7216 585.238 32.5455C585.238 33.3883 585.371 34.1222 585.636 34.7472C585.906 35.3722 586.284 35.8575 586.772 36.2031C587.264 36.5488 587.842 36.7216 588.505 36.7216C588.941 36.7216 589.336 36.6458 589.691 36.4943C590.046 36.3428 590.347 36.125 590.593 35.8409C590.839 35.5568 591.014 35.2159 591.119 34.8182H592.795C592.7 35.4621 592.466 36.0421 592.092 36.5582C591.722 37.0696 591.232 37.4768 590.621 37.7798C590.015 38.0781 589.31 38.2273 588.505 38.2273ZM599.677 38.2273C598.692 38.2273 597.828 37.9929 597.085 37.5241C596.346 37.0554 595.768 36.3996 595.352 35.5568C594.94 34.714 594.734 33.7292 594.734 32.6023C594.734 31.4659 594.94 30.474 595.352 29.6264C595.768 28.7789 596.346 28.1207 597.085 27.652C597.828 27.1832 598.692 26.9489 599.677 26.9489C600.662 26.9489 601.523 27.1832 602.262 27.652C603.005 28.1207 603.583 28.7789 603.995 29.6264C604.412 30.474 604.62 31.4659 604.62 32.6023C604.62 33.7292 604.412 34.714 603.995 35.5568C603.583 36.3996 603.005 37.0554 602.262 37.5241C601.523 37.9929 600.662 38.2273 599.677 38.2273ZM599.677 36.7216C600.425 36.7216 601.04 36.5298 601.523 36.1463C602.006 35.7628 602.364 35.2585 602.596 34.6335C602.828 34.0085 602.944 33.3314 602.944 32.6023C602.944 31.8731 602.828 31.1937 602.596 30.5639C602.364 29.9342 602.006 29.4252 601.523 29.0369C601.04 28.6487 600.425 28.4545 599.677 28.4545C598.929 28.4545 598.313 28.6487 597.83 29.0369C597.347 29.4252 596.99 29.9342 596.758 30.5639C596.526 31.1937 596.41 31.8731 596.41 32.6023C596.41 33.3314 596.526 34.0085 596.758 34.6335C596.99 35.2585 597.347 35.7628 597.83 36.1463C598.313 36.5298 598.929 36.7216 599.677 36.7216ZM608.855 31.4375V38H607.179V27.0909H608.798V28.7955H608.94C609.196 28.2415 609.584 27.7964 610.105 27.4602C610.626 27.1193 611.298 26.9489 612.122 26.9489C612.86 26.9489 613.507 27.1004 614.061 27.4034C614.615 27.7017 615.046 28.1562 615.353 28.767C615.661 29.3731 615.815 30.1402 615.815 31.0682V38H614.139V31.1818C614.139 30.3248 613.916 29.6572 613.471 29.179C613.026 28.696 612.415 28.4545 611.639 28.4545C611.104 28.4545 610.626 28.5705 610.204 28.8026C609.788 29.0346 609.458 29.3731 609.217 29.8182C608.975 30.2633 608.855 30.803 608.855 31.4375Z" fill="white" fill-opacity="0.95"/>
<mask id="path-9-inside-4_2110_46661" fill="white">
<path d="M740 0H1356V62H740V0Z"/>
</mask>
<path d="M740 0H1356V62H740V0Z" fill="#1A1A1A"/>
<path d="M1356 61H740V63H1356V61Z" fill="#707070" mask="url(#path-9-inside-4_2110_46661)"/>
<path d="M776.278 27.0909V28.5114H770.625V27.0909H776.278ZM772.273 24.4773H773.949V34.875C773.949 35.3485 774.018 35.7036 774.155 35.9403C774.297 36.1723 774.477 36.3286 774.695 36.4091C774.917 36.4848 775.152 36.5227 775.398 36.5227C775.582 36.5227 775.734 36.5133 775.852 36.4943C775.971 36.4706 776.065 36.4517 776.136 36.4375L776.477 37.9432C776.364 37.9858 776.205 38.0284 776.001 38.071C775.798 38.1184 775.54 38.142 775.227 38.142C774.754 38.142 774.29 38.0402 773.835 37.8366C773.385 37.633 773.011 37.3229 772.713 36.9062C772.42 36.4896 772.273 35.964 772.273 35.3295V24.4773ZM780.71 31.4375V38H779.034V23.4545H780.71V28.7955H780.852C781.108 28.232 781.491 27.7846 782.003 27.4531C782.519 27.117 783.205 26.9489 784.062 26.9489C784.806 26.9489 785.457 27.098 786.016 27.3963C786.574 27.6899 787.008 28.142 787.315 28.7528C787.628 29.3589 787.784 30.1307 787.784 31.0682V38H786.108V31.1818C786.108 30.3153 785.883 29.6454 785.433 29.1719C784.988 28.6937 784.37 28.4545 783.58 28.4545C783.03 28.4545 782.538 28.5705 782.102 28.8026C781.671 29.0346 781.33 29.3731 781.08 29.8182C780.833 30.2633 780.71 30.803 780.71 31.4375ZM795.424 38.2273C794.373 38.2273 793.467 37.9953 792.704 37.5312C791.947 37.0625 791.362 36.4091 790.95 35.571C790.543 34.7282 790.339 33.7481 790.339 32.6307C790.339 31.5133 790.543 30.5284 790.95 29.6761C791.362 28.8191 791.935 28.1515 792.669 27.6733C793.407 27.1903 794.269 26.9489 795.254 26.9489C795.822 26.9489 796.383 27.0436 796.937 27.233C797.491 27.4223 797.995 27.7301 798.45 28.1562C798.904 28.5777 799.267 29.1364 799.537 29.8324C799.806 30.5284 799.941 31.3854 799.941 32.4034V33.1136H791.532V31.6648H798.237C798.237 31.0492 798.114 30.5 797.868 30.017C797.626 29.5341 797.28 29.1529 796.831 28.8736C796.386 28.5942 795.86 28.4545 795.254 28.4545C794.586 28.4545 794.009 28.6203 793.521 28.9517C793.038 29.2784 792.666 29.7045 792.406 30.2301C792.145 30.7557 792.015 31.3191 792.015 31.9205V32.8864C792.015 33.7102 792.157 34.4086 792.441 34.9815C792.73 35.5497 793.13 35.983 793.642 36.2812C794.153 36.5748 794.747 36.7216 795.424 36.7216C795.865 36.7216 796.262 36.66 796.618 36.5369C796.977 36.4091 797.288 36.2197 797.548 35.9688C797.808 35.7131 798.01 35.3958 798.152 35.017L799.771 35.4716C799.6 36.0208 799.314 36.5038 798.912 36.9205C798.509 37.3324 798.012 37.6544 797.42 37.8864C796.828 38.1136 796.163 38.2273 795.424 38.2273ZM802.491 38V27.0909H804.11V28.7955H804.252C804.48 28.2131 804.847 27.7609 805.353 27.4389C805.86 27.1122 806.468 26.9489 807.179 26.9489C807.898 26.9489 808.497 27.1122 808.975 27.4389C809.458 27.7609 809.835 28.2131 810.105 28.7955H810.218C810.498 28.232 810.917 27.7846 811.475 27.4531C812.034 27.117 812.704 26.9489 813.485 26.9489C814.461 26.9489 815.259 27.2543 815.879 27.8651C816.499 28.4711 816.809 29.4157 816.809 30.6989V38H815.133V30.6989C815.133 29.8939 814.913 29.3187 814.473 28.973C814.032 28.6274 813.514 28.4545 812.917 28.4545C812.15 28.4545 811.556 28.6866 811.135 29.1506C810.713 29.6098 810.502 30.1922 810.502 30.8977V38H808.798V30.5284C808.798 29.9081 808.597 29.4086 808.194 29.0298C807.792 28.6463 807.273 28.4545 806.639 28.4545C806.203 28.4545 805.796 28.5705 805.417 28.8026C805.043 29.0346 804.74 29.3565 804.508 29.7685C804.281 30.1757 804.167 30.6468 804.167 31.1818V38H802.491ZM824.448 38.2273C823.397 38.2273 822.49 37.9953 821.728 37.5312C820.97 37.0625 820.385 36.4091 819.973 35.571C819.566 34.7282 819.363 33.7481 819.363 32.6307C819.363 31.5133 819.566 30.5284 819.973 29.6761C820.385 28.8191 820.958 28.1515 821.692 27.6733C822.431 27.1903 823.292 26.9489 824.277 26.9489C824.846 26.9489 825.407 27.0436 825.961 27.233C826.515 27.4223 827.019 27.7301 827.473 28.1562C827.928 28.5777 828.29 29.1364 828.56 29.8324C828.83 30.5284 828.965 31.3854 828.965 32.4034V33.1136H820.556V31.6648H827.26C827.26 31.0492 827.137 30.5 826.891 30.017C826.65 29.5341 826.304 29.1529 825.854 28.8736C825.409 28.5942 824.883 28.4545 824.277 28.4545C823.61 28.4545 823.032 28.6203 822.544 28.9517C822.061 29.2784 821.69 29.7045 821.429 30.2301C821.169 30.7557 821.039 31.3191 821.039 31.9205V32.8864C821.039 33.7102 821.181 34.4086 821.465 34.9815C821.754 35.5497 822.154 35.983 822.665 36.2812C823.176 36.5748 823.771 36.7216 824.448 36.7216C824.888 36.7216 825.286 36.66 825.641 36.5369C826.001 36.4091 826.311 36.2197 826.571 35.9688C826.832 35.7131 827.033 35.3958 827.175 35.017L828.794 35.4716C828.624 36.0208 828.337 36.5038 827.935 36.9205C827.533 37.3324 827.035 37.6544 826.444 37.8864C825.852 38.1136 825.186 38.2273 824.448 38.2273ZM836.657 22.7727L831.969 40.1875H830.435L835.123 22.7727H836.657ZM840.32 31.4375V38H838.643V27.0909H840.263V28.7955H840.405C840.661 28.2415 841.049 27.7964 841.57 27.4602C842.09 27.1193 842.763 26.9489 843.587 26.9489C844.325 26.9489 844.972 27.1004 845.526 27.4034C846.08 27.7017 846.51 28.1562 846.818 28.767C847.126 29.3731 847.28 30.1402 847.28 31.0682V38H845.604V31.1818C845.604 30.3248 845.381 29.6572 844.936 29.179C844.491 28.696 843.88 28.4545 843.104 28.4545C842.569 28.4545 842.09 28.5705 841.669 28.8026C841.252 29.0346 840.923 29.3731 840.682 29.8182C840.44 30.2633 840.32 30.803 840.32 31.4375ZM854.917 38.2273C853.865 38.2273 852.959 37.9953 852.196 37.5312C851.439 37.0625 850.854 36.4091 850.442 35.571C850.035 34.7282 849.831 33.7481 849.831 32.6307C849.831 31.5133 850.035 30.5284 850.442 29.6761C850.854 28.8191 851.427 28.1515 852.161 27.6733C852.9 27.1903 853.761 26.9489 854.746 26.9489C855.314 26.9489 855.875 27.0436 856.429 27.233C856.983 27.4223 857.488 27.7301 857.942 28.1562C858.397 28.5777 858.759 29.1364 859.029 29.8324C859.299 30.5284 859.434 31.3854 859.434 32.4034V33.1136H851.025V31.6648H857.729C857.729 31.0492 857.606 30.5 857.36 30.017C857.118 29.5341 856.773 29.1529 856.323 28.8736C855.878 28.5942 855.352 28.4545 854.746 28.4545C854.078 28.4545 853.501 28.6203 853.013 28.9517C852.53 29.2784 852.158 29.7045 851.898 30.2301C851.638 30.7557 851.507 31.3191 851.507 31.9205V32.8864C851.507 33.7102 851.65 34.4086 851.934 34.9815C852.222 35.5497 852.623 35.983 853.134 36.2812C853.645 36.5748 854.239 36.7216 854.917 36.7216C855.357 36.7216 855.755 36.66 856.11 36.5369C856.47 36.4091 856.78 36.2197 857.04 35.9688C857.301 35.7131 857.502 35.3958 857.644 35.017L859.263 35.4716C859.093 36.0208 858.806 36.5038 858.404 36.9205C858.001 37.3324 857.504 37.6544 856.912 37.8864C856.32 38.1136 855.655 38.2273 854.917 38.2273ZM868.858 33.5398V27.0909H870.534V38H868.858V36.1534H868.745C868.489 36.7074 868.091 37.1785 867.551 37.5668C867.012 37.9503 866.33 38.142 865.506 38.142C864.824 38.142 864.218 37.9929 863.688 37.6946C863.158 37.3916 862.741 36.937 862.438 36.331C862.135 35.7202 861.983 34.9508 861.983 34.0227V27.0909H863.659V33.9091C863.659 34.7045 863.882 35.339 864.327 35.8125C864.777 36.286 865.35 36.5227 866.046 36.5227C866.462 36.5227 866.886 36.4162 867.317 36.2031C867.753 35.9901 868.117 35.6634 868.411 35.223C868.709 34.7827 868.858 34.2216 868.858 33.5398ZM878.349 27.0909V28.5114H872.695V27.0909H878.349ZM874.343 24.4773H876.019V34.875C876.019 35.3485 876.088 35.7036 876.225 35.9403C876.367 36.1723 876.547 36.3286 876.765 36.4091C876.987 36.4848 877.222 36.5227 877.468 36.5227C877.653 36.5227 877.804 36.5133 877.923 36.4943C878.041 36.4706 878.136 36.4517 878.207 36.4375L878.548 37.9432C878.434 37.9858 878.275 38.0284 878.072 38.071C877.868 38.1184 877.61 38.142 877.298 38.142C876.824 38.142 876.36 38.0402 875.906 37.8366C875.456 37.633 875.082 37.3229 874.783 36.9062C874.49 36.4896 874.343 35.964 874.343 35.3295V24.4773ZM880.87 38V27.0909H882.489V28.7386H882.603C882.802 28.1989 883.162 27.7609 883.683 27.4247C884.203 27.0885 884.79 26.9205 885.444 26.9205C885.567 26.9205 885.721 26.9228 885.906 26.9276C886.09 26.9323 886.23 26.9394 886.325 26.9489V28.6534C886.268 28.6392 886.138 28.6179 885.934 28.5895C885.735 28.5563 885.524 28.5398 885.302 28.5398C884.772 28.5398 884.298 28.651 883.881 28.8736C883.469 29.0914 883.143 29.3944 882.901 29.7827C882.665 30.1662 882.546 30.6042 882.546 31.0966V38H880.87ZM891.522 38.2557C890.83 38.2557 890.203 38.1255 889.64 37.8651C889.076 37.5999 888.629 37.2188 888.297 36.7216C887.966 36.2197 887.8 35.6136 887.8 34.9034C887.8 34.2784 887.923 33.7718 888.169 33.3835C888.416 32.9905 888.745 32.6828 889.157 32.4602C889.569 32.2377 890.023 32.072 890.52 31.9631C891.022 31.8494 891.526 31.7595 892.033 31.6932C892.696 31.608 893.233 31.544 893.645 31.5014C894.062 31.4541 894.365 31.3759 894.554 31.267C894.748 31.1581 894.846 30.9687 894.846 30.6989V30.642C894.846 29.9413 894.654 29.3968 894.27 29.0085C893.891 28.6203 893.316 28.4261 892.544 28.4261C891.744 28.4261 891.117 28.6013 890.662 28.9517C890.208 29.3021 889.888 29.6761 889.703 30.0739L888.113 29.5057C888.397 28.8428 888.775 28.3267 889.249 27.9574C889.727 27.5833 890.248 27.3229 890.811 27.1761C891.38 27.0246 891.938 26.9489 892.488 26.9489C892.838 26.9489 893.24 26.9915 893.695 27.0767C894.154 27.1572 894.597 27.3253 895.023 27.581C895.454 27.8366 895.811 28.2225 896.096 28.7386C896.38 29.2547 896.522 29.946 896.522 30.8125V38H894.846V36.5227H894.76C894.647 36.7595 894.457 37.0128 894.192 37.2827C893.927 37.5526 893.574 37.7822 893.134 37.9716C892.694 38.161 892.156 38.2557 891.522 38.2557ZM891.777 36.75C892.44 36.75 892.999 36.6198 893.453 36.3594C893.913 36.099 894.258 35.7628 894.49 35.3509C894.727 34.9389 894.846 34.5057 894.846 34.0511V32.517C894.775 32.6023 894.618 32.6804 894.377 32.7514C894.14 32.8177 893.865 32.8769 893.553 32.929C893.245 32.9763 892.944 33.0189 892.651 33.0568C892.362 33.09 892.128 33.1184 891.948 33.142C891.512 33.1989 891.105 33.2912 890.726 33.419C890.352 33.5421 890.049 33.7292 889.817 33.9801C889.59 34.2263 889.476 34.5625 889.476 34.9886C889.476 35.571 889.692 36.0114 890.123 36.3097C890.558 36.6032 891.11 36.75 891.777 36.75ZM901.257 23.4545V38H899.581V23.4545H901.257ZM909.469 22.7727L904.782 40.1875H903.248L907.935 22.7727H909.469ZM916.2 27.0909V28.5114H910.547V27.0909H916.2ZM912.195 24.4773H913.871V34.875C913.871 35.3485 913.939 35.7036 914.077 35.9403C914.219 36.1723 914.399 36.3286 914.616 36.4091C914.839 36.4848 915.073 36.5227 915.32 36.5227C915.504 36.5227 915.656 36.5133 915.774 36.4943C915.893 36.4706 915.987 36.4517 916.058 36.4375L916.399 37.9432C916.286 37.9858 916.127 38.0284 915.923 38.071C915.72 38.1184 915.462 38.142 915.149 38.142C914.676 38.142 914.212 38.0402 913.757 37.8366C913.307 37.633 912.933 37.3229 912.635 36.9062C912.341 36.4896 912.195 35.964 912.195 35.3295V24.4773ZM923.178 38.2273C922.127 38.2273 921.22 37.9953 920.458 37.5312C919.701 37.0625 919.116 36.4091 918.704 35.571C918.297 34.7282 918.093 33.7481 918.093 32.6307C918.093 31.5133 918.297 30.5284 918.704 29.6761C919.116 28.8191 919.689 28.1515 920.423 27.6733C921.161 27.1903 922.023 26.9489 923.008 26.9489C923.576 26.9489 924.137 27.0436 924.691 27.233C925.245 27.4223 925.749 27.7301 926.204 28.1562C926.658 28.5777 927.021 29.1364 927.29 29.8324C927.56 30.5284 927.695 31.3854 927.695 32.4034V33.1136H919.286V31.6648H925.991C925.991 31.0492 925.868 30.5 925.621 30.017C925.38 29.5341 925.034 29.1529 924.585 28.8736C924.139 28.5942 923.614 28.4545 923.008 28.4545C922.34 28.4545 921.763 28.6203 921.275 28.9517C920.792 29.2784 920.42 29.7045 920.16 30.2301C919.899 30.7557 919.769 31.3191 919.769 31.9205V32.8864C919.769 33.7102 919.911 34.4086 920.195 34.9815C920.484 35.5497 920.884 35.983 921.396 36.2812C921.907 36.5748 922.501 36.7216 923.178 36.7216C923.619 36.7216 924.016 36.66 924.371 36.5369C924.731 36.4091 925.041 36.2197 925.302 35.9688C925.562 35.7131 925.763 35.3958 925.906 35.017L927.525 35.4716C927.354 36.0208 927.068 36.5038 926.665 36.9205C926.263 37.3324 925.766 37.6544 925.174 37.8864C924.582 38.1136 923.917 38.2273 923.178 38.2273ZM931.202 27.0909L933.816 31.5511L936.429 27.0909H938.361L934.838 32.5455L938.361 38H936.429L933.816 33.767L931.202 38H929.27L932.736 32.5455L929.27 27.0909H931.202ZM945.497 27.0909V28.5114H939.844V27.0909H945.497ZM941.491 24.4773H943.168V34.875C943.168 35.3485 943.236 35.7036 943.374 35.9403C943.516 36.1723 943.696 36.3286 943.913 36.4091C944.136 36.4848 944.37 36.5227 944.616 36.5227C944.801 36.5227 944.953 36.5133 945.071 36.4943C945.189 36.4706 945.284 36.4517 945.355 36.4375L945.696 37.9432C945.582 37.9858 945.424 38.0284 945.22 38.071C945.017 38.1184 944.759 38.142 944.446 38.142C943.973 38.142 943.509 38.0402 943.054 37.8366C942.604 37.633 942.23 37.3229 941.932 36.9062C941.638 36.4896 941.491 35.964 941.491 35.3295V24.4773ZM953.161 22.7727L948.473 40.1875H946.939L951.626 22.7727H953.161ZM959.267 38.2273C958.358 38.2273 957.555 37.9976 956.859 37.5384C956.163 37.0743 955.618 36.4209 955.225 35.5781C954.833 34.7306 954.636 33.7292 954.636 32.5739C954.636 31.428 954.833 30.4337 955.225 29.5909C955.618 28.7481 956.165 28.0971 956.866 27.6378C957.567 27.1785 958.377 26.9489 959.295 26.9489C960.005 26.9489 960.566 27.0672 960.978 27.304C961.395 27.536 961.712 27.8011 961.93 28.0994C962.153 28.393 962.325 28.6345 962.449 28.8239H962.591V23.4545H964.267V38H962.647V36.3239H962.449C962.325 36.5227 962.15 36.7737 961.923 37.0767C961.696 37.375 961.371 37.6425 960.95 37.8793C960.529 38.1113 959.967 38.2273 959.267 38.2273ZM959.494 36.7216C960.166 36.7216 960.734 36.5464 961.199 36.196C961.663 35.8409 962.015 35.3509 962.257 34.7259C962.498 34.0961 962.619 33.3693 962.619 32.5455C962.619 31.7311 962.501 31.0185 962.264 30.4077C962.027 29.7921 961.677 29.3139 961.213 28.973C960.749 28.6274 960.176 28.4545 959.494 28.4545C958.784 28.4545 958.192 28.6368 957.718 29.0014C957.25 29.3613 956.897 29.8513 956.66 30.4716C956.428 31.0871 956.312 31.7784 956.312 32.5455C956.312 33.322 956.431 34.0275 956.667 34.6619C956.909 35.2917 957.264 35.7936 957.733 36.1676C958.206 36.5369 958.793 36.7216 959.494 36.7216ZM967.569 38V27.0909H969.245V38H967.569ZM968.422 25.2727C968.095 25.2727 967.813 25.1615 967.576 24.9389C967.344 24.7164 967.228 24.4489 967.228 24.1364C967.228 23.8239 967.344 23.5563 967.576 23.3338C967.813 23.1113 968.095 23 968.422 23C968.748 23 969.028 23.1113 969.26 23.3338C969.496 23.5563 969.615 23.8239 969.615 24.1364C969.615 24.4489 969.496 24.7164 969.26 24.9389C969.028 25.1615 968.748 25.2727 968.422 25.2727ZM980.043 29.5341L978.537 29.9602C978.442 29.7093 978.303 29.4654 978.118 29.2287C977.938 28.9872 977.692 28.7884 977.379 28.6321C977.067 28.4759 976.667 28.3977 976.179 28.3977C975.511 28.3977 974.955 28.5516 974.51 28.8594C974.07 29.1624 973.849 29.5483 973.849 30.017C973.849 30.4337 974.001 30.7628 974.304 31.0043C974.607 31.2457 975.08 31.447 975.724 31.608L977.344 32.0057C978.319 32.2424 979.046 32.6046 979.524 33.0923C980.002 33.5753 980.241 34.1979 980.241 34.9602C980.241 35.5852 980.062 36.1439 979.702 36.6364C979.347 37.1288 978.849 37.517 978.21 37.8011C977.571 38.0852 976.828 38.2273 975.98 38.2273C974.867 38.2273 973.946 37.9858 973.217 37.5028C972.488 37.0199 972.027 36.3144 971.832 35.3864L973.423 34.9886C973.575 35.5758 973.861 36.0161 974.283 36.3097C974.709 36.6032 975.265 36.75 975.952 36.75C976.733 36.75 977.353 36.5843 977.812 36.2528C978.277 35.9167 978.509 35.5142 978.509 35.0455C978.509 34.6667 978.376 34.3494 978.111 34.0938C977.846 33.8333 977.438 33.6392 976.889 33.5114L975.071 33.0852C974.072 32.8485 973.338 32.4815 972.869 31.9844C972.405 31.4825 972.173 30.8551 972.173 30.1023C972.173 29.4867 972.346 28.9422 972.692 28.4688C973.042 27.9953 973.518 27.6236 974.119 27.3537C974.725 27.0838 975.412 26.9489 976.179 26.9489C977.259 26.9489 978.106 27.1856 978.722 27.6591C979.342 28.1326 979.782 28.7576 980.043 29.5341ZM985.975 38.2557C985.283 38.2557 984.656 38.1255 984.093 37.8651C983.529 37.5999 983.082 37.2188 982.75 36.7216C982.419 36.2197 982.253 35.6136 982.253 34.9034C982.253 34.2784 982.376 33.7718 982.623 33.3835C982.869 32.9905 983.198 32.6828 983.61 32.4602C984.022 32.2377 984.476 32.072 984.973 31.9631C985.475 31.8494 985.98 31.7595 986.486 31.6932C987.149 31.608 987.686 31.544 988.098 31.5014C988.515 31.4541 988.818 31.3759 989.007 31.267C989.202 31.1581 989.299 30.9687 989.299 30.6989V30.642C989.299 29.9413 989.107 29.3968 988.723 29.0085C988.345 28.6203 987.769 28.4261 986.998 28.4261C986.197 28.4261 985.57 28.6013 985.115 28.9517C984.661 29.3021 984.341 29.6761 984.157 30.0739L982.566 29.5057C982.85 28.8428 983.229 28.3267 983.702 27.9574C984.18 27.5833 984.701 27.3229 985.265 27.1761C985.833 27.0246 986.391 26.9489 986.941 26.9489C987.291 26.9489 987.694 26.9915 988.148 27.0767C988.607 27.1572 989.05 27.3253 989.476 27.581C989.907 27.8366 990.265 28.2225 990.549 28.7386C990.833 29.2547 990.975 29.946 990.975 30.8125V38H989.299V36.5227H989.213C989.1 36.7595 988.91 37.0128 988.645 37.2827C988.38 37.5526 988.027 37.7822 987.587 37.9716C987.147 38.161 986.609 38.2557 985.975 38.2557ZM986.23 36.75C986.893 36.75 987.452 36.6198 987.907 36.3594C988.366 36.099 988.712 35.7628 988.944 35.3509C989.18 34.9389 989.299 34.5057 989.299 34.0511V32.517C989.228 32.6023 989.071 32.6804 988.83 32.7514C988.593 32.8177 988.319 32.8769 988.006 32.929C987.698 32.9763 987.398 33.0189 987.104 33.0568C986.815 33.09 986.581 33.1184 986.401 33.142C985.965 33.1989 985.558 33.2912 985.179 33.419C984.805 33.5421 984.502 33.7292 984.27 33.9801C984.043 34.2263 983.929 34.5625 983.929 34.9886C983.929 35.571 984.145 36.0114 984.576 36.3097C985.011 36.6032 985.563 36.75 986.23 36.75ZM994.261 38V23.4545H995.938V28.8239H996.08C996.203 28.6345 996.373 28.393 996.591 28.0994C996.813 27.8011 997.131 27.536 997.543 27.304C997.959 27.0672 998.523 26.9489 999.233 26.9489C1000.15 26.9489 1000.96 27.1785 1001.66 27.6378C1002.36 28.0971 1002.91 28.7481 1003.3 29.5909C1003.7 30.4337 1003.89 31.428 1003.89 32.5739C1003.89 33.7292 1003.7 34.7306 1003.3 35.5781C1002.91 36.4209 1002.37 37.0743 1001.67 37.5384C1000.97 37.9976 1000.17 38.2273 999.261 38.2273C998.561 38.2273 998 38.1113 997.578 37.8793C997.157 37.6425 996.832 37.375 996.605 37.0767C996.378 36.7737 996.203 36.5227 996.08 36.3239H995.881V38H994.261ZM995.909 32.5455C995.909 33.3693 996.03 34.0961 996.271 34.7259C996.513 35.3509 996.866 35.8409 997.33 36.196C997.794 36.5464 998.362 36.7216 999.034 36.7216C999.735 36.7216 1000.32 36.5369 1000.79 36.1676C1001.26 35.7936 1001.62 35.2917 1001.85 34.6619C1002.1 34.0275 1002.22 33.322 1002.22 32.5455C1002.22 31.7784 1002.1 31.0871 1001.86 30.4716C1001.63 29.8513 1001.28 29.3613 1000.8 29.0014C1000.33 28.6368 999.744 28.4545 999.034 28.4545C998.352 28.4545 997.779 28.6274 997.315 28.973C996.851 29.3139 996.501 29.7921 996.264 30.4077C996.027 31.0185 995.909 31.7311 995.909 32.5455ZM1008.13 23.4545V38H1006.46V23.4545H1008.13ZM1015.78 38.2273C1014.72 38.2273 1013.82 37.9953 1013.06 37.5312C1012.3 37.0625 1011.71 36.4091 1011.3 35.571C1010.89 34.7282 1010.69 33.7481 1010.69 32.6307C1010.69 31.5133 1010.89 30.5284 1011.3 29.6761C1011.71 28.8191 1012.29 28.1515 1013.02 27.6733C1013.76 27.1903 1014.62 26.9489 1015.61 26.9489C1016.17 26.9489 1016.73 27.0436 1017.29 27.233C1017.84 27.4223 1018.35 27.7301 1018.8 28.1562C1019.26 28.5777 1019.62 29.1364 1019.89 29.8324C1020.16 30.5284 1020.29 31.3854 1020.29 32.4034V33.1136H1011.88V31.6648H1018.59C1018.59 31.0492 1018.47 30.5 1018.22 30.017C1017.98 29.5341 1017.63 29.1529 1017.18 28.8736C1016.74 28.5942 1016.21 28.4545 1015.61 28.4545C1014.94 28.4545 1014.36 28.6203 1013.87 28.9517C1013.39 29.2784 1013.02 29.7045 1012.76 30.2301C1012.5 30.7557 1012.37 31.3191 1012.37 31.9205V32.8864C1012.37 33.7102 1012.51 34.4086 1012.79 34.9815C1013.08 35.5497 1013.48 35.983 1013.99 36.2812C1014.5 36.5748 1015.1 36.7216 1015.78 36.7216C1016.22 36.7216 1016.61 36.66 1016.97 36.5369C1017.33 36.4091 1017.64 36.2197 1017.9 35.9688C1018.16 35.7131 1018.36 35.3958 1018.5 35.017L1020.12 35.4716C1019.95 36.0208 1019.67 36.5038 1019.26 36.9205C1018.86 37.3324 1018.36 37.6544 1017.77 37.8864C1017.18 38.1136 1016.51 38.2273 1015.78 38.2273ZM1026.96 38.2273C1026.05 38.2273 1025.25 37.9976 1024.55 37.5384C1023.86 37.0743 1023.31 36.4209 1022.92 35.5781C1022.53 34.7306 1022.33 33.7292 1022.33 32.5739C1022.33 31.428 1022.53 30.4337 1022.92 29.5909C1023.31 28.7481 1023.86 28.0971 1024.56 27.6378C1025.26 27.1785 1026.07 26.9489 1026.99 26.9489C1027.7 26.9489 1028.26 27.0672 1028.67 27.304C1029.09 27.536 1029.41 27.8011 1029.63 28.0994C1029.85 28.393 1030.02 28.6345 1030.14 28.8239H1030.29V23.4545H1031.96V38H1030.34V36.3239H1030.14C1030.02 36.5227 1029.85 36.7737 1029.62 37.0767C1029.39 37.375 1029.07 37.6425 1028.65 37.8793C1028.22 38.1113 1027.66 38.2273 1026.96 38.2273ZM1027.19 36.7216C1027.86 36.7216 1028.43 36.5464 1028.89 36.196C1029.36 35.8409 1029.71 35.3509 1029.95 34.7259C1030.19 34.0961 1030.31 33.3693 1030.31 32.5455C1030.31 31.7311 1030.2 31.0185 1029.96 30.4077C1029.72 29.7921 1029.37 29.3139 1028.91 28.973C1028.44 28.6274 1027.87 28.4545 1027.19 28.4545C1026.48 28.4545 1025.89 28.6368 1025.41 29.0014C1024.94 29.3613 1024.59 29.8513 1024.36 30.4716C1024.12 31.0871 1024.01 31.7784 1024.01 32.5455C1024.01 33.322 1024.13 34.0275 1024.36 34.6619C1024.6 35.2917 1024.96 35.7936 1025.43 36.1676C1025.9 36.5369 1026.49 36.7216 1027.19 36.7216Z" fill="white" fill-opacity="0.95"/>
</svg>
