<svg width="1150" height="344" viewBox="0 0 1150 344" fill="none" xmlns="http://www.w3.org/2000/svg">
<rect width="1150" height="344" rx="16" fill="#1A1A1A"/>
<g clip-path="url(#clip0_2110_44856)">
<path d="M259.207 136L264.854 130.354C264.945 130.259 264.996 130.133 264.995 130.002C264.994 129.87 264.941 129.745 264.848 129.652C264.756 129.559 264.63 129.506 264.499 129.505C264.367 129.504 264.241 129.555 264.147 129.646L258.147 135.646C258.053 135.74 258 135.867 258 136C258 136.133 258.053 136.26 258.147 136.354L264.147 142.354C264.193 142.401 264.248 142.439 264.309 142.465C264.37 142.491 264.435 142.505 264.502 142.505C264.568 142.506 264.634 142.493 264.695 142.468C264.756 142.443 264.812 142.406 264.859 142.359C264.906 142.312 264.943 142.256 264.968 142.195C264.993 142.134 265.006 142.068 265.006 142.002C265.005 141.935 264.991 141.87 264.965 141.809C264.939 141.748 264.901 141.693 264.854 141.646L259.207 136Z" fill="white" fill-opacity="0.95"/>
<g clip-path="url(#clip1_2110_44856)">
<rect x="289.5" y="120" width="61" height="32" rx="16" fill="white" fill-opacity="0.2"/>
<path d="M302.949 141V130.818H304.485V139.678H309.099V141H302.949ZM312.954 141.169C312.47 141.169 312.033 141.08 311.642 140.901C311.25 140.718 310.941 140.455 310.712 140.11C310.486 139.765 310.374 139.343 310.374 138.842C310.374 138.411 310.457 138.057 310.622 137.778C310.788 137.5 311.012 137.28 311.294 137.117C311.575 136.955 311.89 136.832 312.238 136.749C312.586 136.666 312.941 136.603 313.302 136.56C313.759 136.507 314.131 136.464 314.416 136.431C314.701 136.395 314.908 136.337 315.037 136.257C315.166 136.178 315.231 136.048 315.231 135.869V135.835C315.231 135.4 315.108 135.064 314.863 134.825C314.621 134.587 314.26 134.467 313.779 134.467C313.279 134.467 312.884 134.578 312.596 134.8C312.311 135.019 312.114 135.263 312.004 135.531L310.607 135.213C310.773 134.749 311.015 134.375 311.333 134.089C311.655 133.801 312.024 133.592 312.442 133.463C312.86 133.33 313.299 133.264 313.759 133.264C314.064 133.264 314.387 133.301 314.729 133.374C315.074 133.443 315.395 133.572 315.693 133.761C315.995 133.95 316.242 134.22 316.434 134.572C316.626 134.92 316.722 135.372 316.722 135.929V141H315.271V139.956H315.211C315.115 140.148 314.971 140.337 314.779 140.523C314.586 140.708 314.339 140.862 314.038 140.985C313.736 141.108 313.375 141.169 312.954 141.169ZM313.277 139.976C313.688 139.976 314.039 139.895 314.331 139.732C314.626 139.57 314.85 139.358 315.002 139.096C315.158 138.831 315.236 138.547 315.236 138.246V137.261C315.183 137.314 315.08 137.364 314.928 137.411C314.779 137.454 314.608 137.492 314.416 137.525C314.223 137.555 314.036 137.583 313.854 137.609C313.672 137.633 313.519 137.652 313.396 137.669C313.108 137.705 312.845 137.767 312.606 137.853C312.371 137.939 312.182 138.063 312.039 138.226C311.9 138.385 311.83 138.597 311.83 138.862C311.83 139.23 311.966 139.509 312.238 139.697C312.51 139.883 312.856 139.976 313.277 139.976ZM318.822 141V130.818H320.308V134.602H320.398C320.484 134.442 320.608 134.259 320.771 134.05C320.933 133.841 321.158 133.659 321.447 133.503C321.735 133.344 322.116 133.264 322.59 133.264C323.207 133.264 323.757 133.42 324.241 133.732C324.725 134.043 325.104 134.492 325.379 135.079C325.658 135.665 325.797 136.371 325.797 137.197C325.797 138.022 325.659 138.73 325.384 139.32C325.109 139.906 324.731 140.359 324.251 140.677C323.77 140.992 323.222 141.149 322.605 141.149C322.141 141.149 321.762 141.071 321.467 140.915C321.175 140.76 320.946 140.577 320.781 140.369C320.615 140.16 320.487 139.974 320.398 139.812H320.273V141H318.822ZM320.278 137.182C320.278 137.719 320.356 138.189 320.512 138.594C320.668 138.998 320.893 139.315 321.188 139.543C321.483 139.769 321.844 139.881 322.272 139.881C322.716 139.881 323.087 139.764 323.386 139.528C323.684 139.29 323.909 138.967 324.062 138.559C324.218 138.151 324.295 137.692 324.295 137.182C324.295 136.678 324.219 136.226 324.067 135.825C323.918 135.424 323.692 135.107 323.391 134.875C323.092 134.643 322.719 134.527 322.272 134.527C321.841 134.527 321.477 134.638 321.178 134.86C320.883 135.082 320.66 135.392 320.507 135.79C320.355 136.187 320.278 136.652 320.278 137.182ZM330.757 141.154C330.005 141.154 329.357 140.993 328.813 140.672C328.273 140.347 327.856 139.891 327.561 139.305C327.269 138.715 327.123 138.024 327.123 137.232C327.123 136.449 327.269 135.76 327.561 135.163C327.856 134.567 328.267 134.101 328.794 133.766C329.324 133.432 329.944 133.264 330.653 133.264C331.084 133.264 331.501 133.335 331.906 133.478C332.31 133.621 332.673 133.844 332.994 134.149C333.316 134.454 333.57 134.85 333.755 135.337C333.941 135.821 334.034 136.41 334.034 137.102V137.629H327.963V136.516H332.577C332.577 136.125 332.497 135.778 332.338 135.477C332.179 135.172 331.955 134.931 331.667 134.756C331.382 134.58 331.047 134.492 330.663 134.492C330.245 134.492 329.881 134.595 329.569 134.8C329.261 135.003 329.022 135.268 328.853 135.596C328.687 135.921 328.605 136.274 328.605 136.655V137.525C328.605 138.035 328.694 138.469 328.873 138.827C329.055 139.185 329.309 139.459 329.634 139.648C329.959 139.833 330.338 139.926 330.772 139.926C331.054 139.926 331.311 139.886 331.543 139.807C331.775 139.724 331.975 139.601 332.144 139.439C332.313 139.277 332.443 139.076 332.532 138.837L333.939 139.091C333.826 139.505 333.624 139.868 333.333 140.18C333.044 140.488 332.681 140.728 332.244 140.901C331.81 141.07 331.314 141.154 330.757 141.154ZM337.169 130.818V141H335.683V130.818H337.169Z" fill="white" fill-opacity="0.95"/>
<path d="M371.949 141V130.818H373.485V139.678H378.099V141H371.949ZM381.954 141.169C381.47 141.169 381.033 141.08 380.642 140.901C380.25 140.718 379.941 140.455 379.712 140.11C379.486 139.765 379.374 139.343 379.374 138.842C379.374 138.411 379.457 138.057 379.622 137.778C379.788 137.5 380.012 137.28 380.294 137.117C380.575 136.955 380.89 136.832 381.238 136.749C381.586 136.666 381.941 136.603 382.302 136.56C382.759 136.507 383.131 136.464 383.416 136.431C383.701 136.395 383.908 136.337 384.037 136.257C384.166 136.178 384.231 136.048 384.231 135.869V135.835C384.231 135.4 384.108 135.064 383.863 134.825C383.621 134.587 383.26 134.467 382.779 134.467C382.279 134.467 381.884 134.578 381.596 134.8C381.311 135.019 381.114 135.263 381.004 135.531L379.607 135.213C379.773 134.749 380.015 134.375 380.333 134.089C380.655 133.801 381.024 133.592 381.442 133.463C381.86 133.33 382.299 133.264 382.759 133.264C383.064 133.264 383.387 133.301 383.729 133.374C384.074 133.443 384.395 133.572 384.693 133.761C384.995 133.95 385.242 134.22 385.434 134.572C385.626 134.92 385.722 135.372 385.722 135.929V141H384.271V139.956H384.211C384.115 140.148 383.971 140.337 383.779 140.523C383.586 140.708 383.339 140.862 383.038 140.985C382.736 141.108 382.375 141.169 381.954 141.169ZM382.277 139.976C382.688 139.976 383.039 139.895 383.331 139.732C383.626 139.57 383.85 139.358 384.002 139.096C384.158 138.831 384.236 138.547 384.236 138.246V137.261C384.183 137.314 384.08 137.364 383.928 137.411C383.779 137.454 383.608 137.492 383.416 137.525C383.223 137.555 383.036 137.583 382.854 137.609C382.672 137.633 382.519 137.652 382.396 137.669C382.108 137.705 381.845 137.767 381.606 137.853C381.371 137.939 381.182 138.063 381.039 138.226C380.9 138.385 380.83 138.597 380.83 138.862C380.83 139.23 380.966 139.509 381.238 139.697C381.51 139.883 381.856 139.976 382.277 139.976ZM387.822 141V130.818H389.308V134.602H389.398C389.484 134.442 389.608 134.259 389.771 134.05C389.933 133.841 390.158 133.659 390.447 133.503C390.735 133.344 391.116 133.264 391.59 133.264C392.207 133.264 392.757 133.42 393.241 133.732C393.725 134.043 394.104 134.492 394.379 135.079C394.658 135.665 394.797 136.371 394.797 137.197C394.797 138.022 394.659 138.73 394.384 139.32C394.109 139.906 393.731 140.359 393.251 140.677C392.77 140.992 392.222 141.149 391.605 141.149C391.141 141.149 390.762 141.071 390.467 140.915C390.175 140.76 389.946 140.577 389.781 140.369C389.615 140.16 389.487 139.974 389.398 139.812H389.273V141H387.822ZM389.278 137.182C389.278 137.719 389.356 138.189 389.512 138.594C389.668 138.998 389.893 139.315 390.188 139.543C390.483 139.769 390.844 139.881 391.272 139.881C391.716 139.881 392.087 139.764 392.386 139.528C392.684 139.29 392.909 138.967 393.062 138.559C393.218 138.151 393.295 137.692 393.295 137.182C393.295 136.678 393.219 136.226 393.067 135.825C392.918 135.424 392.692 135.107 392.391 134.875C392.092 134.643 391.719 134.527 391.272 134.527C390.841 134.527 390.477 134.638 390.178 134.86C389.883 135.082 389.66 135.392 389.507 135.79C389.355 136.187 389.278 136.652 389.278 137.182ZM399.757 141.154C399.005 141.154 398.357 140.993 397.813 140.672C397.273 140.347 396.856 139.891 396.561 139.305C396.269 138.715 396.123 138.024 396.123 137.232C396.123 136.449 396.269 135.76 396.561 135.163C396.856 134.567 397.267 134.101 397.794 133.766C398.324 133.432 398.944 133.264 399.653 133.264C400.084 133.264 400.501 133.335 400.906 133.478C401.31 133.621 401.673 133.844 401.994 134.149C402.316 134.454 402.57 134.85 402.755 135.337C402.941 135.821 403.034 136.41 403.034 137.102V137.629H396.963V136.516H401.577C401.577 136.125 401.497 135.778 401.338 135.477C401.179 135.172 400.955 134.931 400.667 134.756C400.382 134.58 400.047 134.492 399.663 134.492C399.245 134.492 398.881 134.595 398.569 134.8C398.261 135.003 398.022 135.268 397.853 135.596C397.687 135.921 397.605 136.274 397.605 136.655V137.525C397.605 138.035 397.694 138.469 397.873 138.827C398.055 139.185 398.309 139.459 398.634 139.648C398.959 139.833 399.338 139.926 399.772 139.926C400.054 139.926 400.311 139.886 400.543 139.807C400.775 139.724 400.975 139.601 401.144 139.439C401.313 139.277 401.443 139.076 401.532 138.837L402.939 139.091C402.826 139.505 402.624 139.868 402.333 140.18C402.044 140.488 401.681 140.728 401.244 140.901C400.81 141.07 400.314 141.154 399.757 141.154ZM406.169 130.818V141H404.683V130.818H406.169Z" fill="white" fill-opacity="0.7"/>
<path d="M440.949 141V130.818H442.485V139.678H447.099V141H440.949ZM450.954 141.169C450.47 141.169 450.033 141.08 449.642 140.901C449.25 140.718 448.941 140.455 448.712 140.11C448.486 139.765 448.374 139.343 448.374 138.842C448.374 138.411 448.457 138.057 448.622 137.778C448.788 137.5 449.012 137.28 449.294 137.117C449.575 136.955 449.89 136.832 450.238 136.749C450.586 136.666 450.941 136.603 451.302 136.56C451.759 136.507 452.131 136.464 452.416 136.431C452.701 136.395 452.908 136.337 453.037 136.257C453.166 136.178 453.231 136.048 453.231 135.869V135.835C453.231 135.4 453.108 135.064 452.863 134.825C452.621 134.587 452.26 134.467 451.779 134.467C451.279 134.467 450.884 134.578 450.596 134.8C450.311 135.019 450.114 135.263 450.004 135.531L448.607 135.213C448.773 134.749 449.015 134.375 449.333 134.089C449.655 133.801 450.024 133.592 450.442 133.463C450.86 133.33 451.299 133.264 451.759 133.264C452.064 133.264 452.387 133.301 452.729 133.374C453.074 133.443 453.395 133.572 453.693 133.761C453.995 133.95 454.242 134.22 454.434 134.572C454.626 134.92 454.722 135.372 454.722 135.929V141H453.271V139.956H453.211C453.115 140.148 452.971 140.337 452.779 140.523C452.586 140.708 452.339 140.862 452.038 140.985C451.736 141.108 451.375 141.169 450.954 141.169ZM451.277 139.976C451.688 139.976 452.039 139.895 452.331 139.732C452.626 139.57 452.85 139.358 453.002 139.096C453.158 138.831 453.236 138.547 453.236 138.246V137.261C453.183 137.314 453.08 137.364 452.928 137.411C452.779 137.454 452.608 137.492 452.416 137.525C452.223 137.555 452.036 137.583 451.854 137.609C451.672 137.633 451.519 137.652 451.396 137.669C451.108 137.705 450.845 137.767 450.606 137.853C450.371 137.939 450.182 138.063 450.039 138.226C449.9 138.385 449.83 138.597 449.83 138.862C449.83 139.23 449.966 139.509 450.238 139.697C450.51 139.883 450.856 139.976 451.277 139.976ZM456.822 141V130.818H458.308V134.602H458.398C458.484 134.442 458.608 134.259 458.771 134.05C458.933 133.841 459.158 133.659 459.447 133.503C459.735 133.344 460.116 133.264 460.59 133.264C461.207 133.264 461.757 133.42 462.241 133.732C462.725 134.043 463.104 134.492 463.379 135.079C463.658 135.665 463.797 136.371 463.797 137.197C463.797 138.022 463.659 138.73 463.384 139.32C463.109 139.906 462.731 140.359 462.251 140.677C461.77 140.992 461.222 141.149 460.605 141.149C460.141 141.149 459.762 141.071 459.467 140.915C459.175 140.76 458.946 140.577 458.781 140.369C458.615 140.16 458.487 139.974 458.398 139.812H458.273V141H456.822ZM458.278 137.182C458.278 137.719 458.356 138.189 458.512 138.594C458.668 138.998 458.893 139.315 459.188 139.543C459.483 139.769 459.844 139.881 460.272 139.881C460.716 139.881 461.087 139.764 461.386 139.528C461.684 139.29 461.909 138.967 462.062 138.559C462.218 138.151 462.295 137.692 462.295 137.182C462.295 136.678 462.219 136.226 462.067 135.825C461.918 135.424 461.692 135.107 461.391 134.875C461.092 134.643 460.719 134.527 460.272 134.527C459.841 134.527 459.477 134.638 459.178 134.86C458.883 135.082 458.66 135.392 458.507 135.79C458.355 136.187 458.278 136.652 458.278 137.182ZM468.757 141.154C468.005 141.154 467.357 140.993 466.813 140.672C466.273 140.347 465.856 139.891 465.561 139.305C465.269 138.715 465.123 138.024 465.123 137.232C465.123 136.449 465.269 135.76 465.561 135.163C465.856 134.567 466.267 134.101 466.794 133.766C467.324 133.432 467.944 133.264 468.653 133.264C469.084 133.264 469.501 133.335 469.906 133.478C470.31 133.621 470.673 133.844 470.994 134.149C471.316 134.454 471.57 134.85 471.755 135.337C471.941 135.821 472.034 136.41 472.034 137.102V137.629H465.963V136.516H470.577C470.577 136.125 470.497 135.778 470.338 135.477C470.179 135.172 469.955 134.931 469.667 134.756C469.382 134.58 469.047 134.492 468.663 134.492C468.245 134.492 467.881 134.595 467.569 134.8C467.261 135.003 467.022 135.268 466.853 135.596C466.687 135.921 466.605 136.274 466.605 136.655V137.525C466.605 138.035 466.694 138.469 466.873 138.827C467.055 139.185 467.309 139.459 467.634 139.648C467.959 139.833 468.338 139.926 468.772 139.926C469.054 139.926 469.311 139.886 469.543 139.807C469.775 139.724 469.975 139.601 470.144 139.439C470.313 139.277 470.443 139.076 470.532 138.837L471.939 139.091C471.826 139.505 471.624 139.868 471.333 140.18C471.044 140.488 470.681 140.728 470.244 140.901C469.81 141.07 469.314 141.154 468.757 141.154ZM475.169 130.818V141H473.683V130.818H475.169Z" fill="white" fill-opacity="0.7"/>
<path d="M509.949 141V130.818H511.485V139.678H516.099V141H509.949ZM519.954 141.169C519.47 141.169 519.033 141.08 518.642 140.901C518.25 140.718 517.941 140.455 517.712 140.11C517.486 139.765 517.374 139.343 517.374 138.842C517.374 138.411 517.457 138.057 517.622 137.778C517.788 137.5 518.012 137.28 518.294 137.117C518.575 136.955 518.89 136.832 519.238 136.749C519.586 136.666 519.941 136.603 520.302 136.56C520.759 136.507 521.131 136.464 521.416 136.431C521.701 136.395 521.908 136.337 522.037 136.257C522.166 136.178 522.231 136.048 522.231 135.869V135.835C522.231 135.4 522.108 135.064 521.863 134.825C521.621 134.587 521.26 134.467 520.779 134.467C520.279 134.467 519.884 134.578 519.596 134.8C519.311 135.019 519.114 135.263 519.004 135.531L517.607 135.213C517.773 134.749 518.015 134.375 518.333 134.089C518.655 133.801 519.024 133.592 519.442 133.463C519.86 133.33 520.299 133.264 520.759 133.264C521.064 133.264 521.387 133.301 521.729 133.374C522.074 133.443 522.395 133.572 522.693 133.761C522.995 133.95 523.242 134.22 523.434 134.572C523.626 134.92 523.722 135.372 523.722 135.929V141H522.271V139.956H522.211C522.115 140.148 521.971 140.337 521.779 140.523C521.586 140.708 521.339 140.862 521.038 140.985C520.736 141.108 520.375 141.169 519.954 141.169ZM520.277 139.976C520.688 139.976 521.039 139.895 521.331 139.732C521.626 139.57 521.85 139.358 522.002 139.096C522.158 138.831 522.236 138.547 522.236 138.246V137.261C522.183 137.314 522.08 137.364 521.928 137.411C521.779 137.454 521.608 137.492 521.416 137.525C521.223 137.555 521.036 137.583 520.854 137.609C520.672 137.633 520.519 137.652 520.396 137.669C520.108 137.705 519.845 137.767 519.606 137.853C519.371 137.939 519.182 138.063 519.039 138.226C518.9 138.385 518.83 138.597 518.83 138.862C518.83 139.23 518.966 139.509 519.238 139.697C519.51 139.883 519.856 139.976 520.277 139.976ZM525.822 141V130.818H527.308V134.602H527.398C527.484 134.442 527.608 134.259 527.771 134.05C527.933 133.841 528.158 133.659 528.447 133.503C528.735 133.344 529.116 133.264 529.59 133.264C530.207 133.264 530.757 133.42 531.241 133.732C531.725 134.043 532.104 134.492 532.379 135.079C532.658 135.665 532.797 136.371 532.797 137.197C532.797 138.022 532.659 138.73 532.384 139.32C532.109 139.906 531.731 140.359 531.251 140.677C530.77 140.992 530.222 141.149 529.605 141.149C529.141 141.149 528.762 141.071 528.467 140.915C528.175 140.76 527.946 140.577 527.781 140.369C527.615 140.16 527.487 139.974 527.398 139.812H527.273V141H525.822ZM527.278 137.182C527.278 137.719 527.356 138.189 527.512 138.594C527.668 138.998 527.893 139.315 528.188 139.543C528.483 139.769 528.844 139.881 529.272 139.881C529.716 139.881 530.087 139.764 530.386 139.528C530.684 139.29 530.909 138.967 531.062 138.559C531.218 138.151 531.295 137.692 531.295 137.182C531.295 136.678 531.219 136.226 531.067 135.825C530.918 135.424 530.692 135.107 530.391 134.875C530.092 134.643 529.719 134.527 529.272 134.527C528.841 134.527 528.477 134.638 528.178 134.86C527.883 135.082 527.66 135.392 527.507 135.79C527.355 136.187 527.278 136.652 527.278 137.182ZM537.757 141.154C537.005 141.154 536.357 140.993 535.813 140.672C535.273 140.347 534.856 139.891 534.561 139.305C534.269 138.715 534.123 138.024 534.123 137.232C534.123 136.449 534.269 135.76 534.561 135.163C534.856 134.567 535.267 134.101 535.794 133.766C536.324 133.432 536.944 133.264 537.653 133.264C538.084 133.264 538.501 133.335 538.906 133.478C539.31 133.621 539.673 133.844 539.994 134.149C540.316 134.454 540.57 134.85 540.755 135.337C540.941 135.821 541.034 136.41 541.034 137.102V137.629H534.963V136.516H539.577C539.577 136.125 539.497 135.778 539.338 135.477C539.179 135.172 538.955 134.931 538.667 134.756C538.382 134.58 538.047 134.492 537.663 134.492C537.245 134.492 536.881 134.595 536.569 134.8C536.261 135.003 536.022 135.268 535.853 135.596C535.687 135.921 535.605 136.274 535.605 136.655V137.525C535.605 138.035 535.694 138.469 535.873 138.827C536.055 139.185 536.309 139.459 536.634 139.648C536.959 139.833 537.338 139.926 537.772 139.926C538.054 139.926 538.311 139.886 538.543 139.807C538.775 139.724 538.975 139.601 539.144 139.439C539.313 139.277 539.443 139.076 539.532 138.837L540.939 139.091C540.826 139.505 540.624 139.868 540.333 140.18C540.044 140.488 539.681 140.728 539.244 140.901C538.81 141.07 538.314 141.154 537.757 141.154ZM544.169 130.818V141H542.683V130.818H544.169Z" fill="white" fill-opacity="0.7"/>
<path d="M578.949 141V130.818H580.485V139.678H585.099V141H578.949ZM588.954 141.169C588.47 141.169 588.033 141.08 587.642 140.901C587.25 140.718 586.941 140.455 586.712 140.11C586.486 139.765 586.374 139.343 586.374 138.842C586.374 138.411 586.457 138.057 586.622 137.778C586.788 137.5 587.012 137.28 587.294 137.117C587.575 136.955 587.89 136.832 588.238 136.749C588.586 136.666 588.941 136.603 589.302 136.56C589.759 136.507 590.131 136.464 590.416 136.431C590.701 136.395 590.908 136.337 591.037 136.257C591.166 136.178 591.231 136.048 591.231 135.869V135.835C591.231 135.4 591.108 135.064 590.863 134.825C590.621 134.587 590.26 134.467 589.779 134.467C589.279 134.467 588.884 134.578 588.596 134.8C588.311 135.019 588.114 135.263 588.004 135.531L586.607 135.213C586.773 134.749 587.015 134.375 587.333 134.089C587.655 133.801 588.024 133.592 588.442 133.463C588.86 133.33 589.299 133.264 589.759 133.264C590.064 133.264 590.387 133.301 590.729 133.374C591.074 133.443 591.395 133.572 591.693 133.761C591.995 133.95 592.242 134.22 592.434 134.572C592.626 134.92 592.722 135.372 592.722 135.929V141H591.271V139.956H591.211C591.115 140.148 590.971 140.337 590.779 140.523C590.586 140.708 590.339 140.862 590.038 140.985C589.736 141.108 589.375 141.169 588.954 141.169ZM589.277 139.976C589.688 139.976 590.039 139.895 590.331 139.732C590.626 139.57 590.85 139.358 591.002 139.096C591.158 138.831 591.236 138.547 591.236 138.246V137.261C591.183 137.314 591.08 137.364 590.928 137.411C590.779 137.454 590.608 137.492 590.416 137.525C590.223 137.555 590.036 137.583 589.854 137.609C589.672 137.633 589.519 137.652 589.396 137.669C589.108 137.705 588.845 137.767 588.606 137.853C588.371 137.939 588.182 138.063 588.039 138.226C587.9 138.385 587.83 138.597 587.83 138.862C587.83 139.23 587.966 139.509 588.238 139.697C588.51 139.883 588.856 139.976 589.277 139.976ZM594.822 141V130.818H596.308V134.602H596.398C596.484 134.442 596.608 134.259 596.771 134.05C596.933 133.841 597.158 133.659 597.447 133.503C597.735 133.344 598.116 133.264 598.59 133.264C599.207 133.264 599.757 133.42 600.241 133.732C600.725 134.043 601.104 134.492 601.379 135.079C601.658 135.665 601.797 136.371 601.797 137.197C601.797 138.022 601.659 138.73 601.384 139.32C601.109 139.906 600.731 140.359 600.251 140.677C599.77 140.992 599.222 141.149 598.605 141.149C598.141 141.149 597.762 141.071 597.467 140.915C597.175 140.76 596.946 140.577 596.781 140.369C596.615 140.16 596.487 139.974 596.398 139.812H596.273V141H594.822ZM596.278 137.182C596.278 137.719 596.356 138.189 596.512 138.594C596.668 138.998 596.893 139.315 597.188 139.543C597.483 139.769 597.844 139.881 598.272 139.881C598.716 139.881 599.087 139.764 599.386 139.528C599.684 139.29 599.909 138.967 600.062 138.559C600.218 138.151 600.295 137.692 600.295 137.182C600.295 136.678 600.219 136.226 600.067 135.825C599.918 135.424 599.692 135.107 599.391 134.875C599.092 134.643 598.719 134.527 598.272 134.527C597.841 134.527 597.477 134.638 597.178 134.86C596.883 135.082 596.66 135.392 596.507 135.79C596.355 136.187 596.278 136.652 596.278 137.182ZM606.757 141.154C606.005 141.154 605.357 140.993 604.813 140.672C604.273 140.347 603.856 139.891 603.561 139.305C603.269 138.715 603.123 138.024 603.123 137.232C603.123 136.449 603.269 135.76 603.561 135.163C603.856 134.567 604.267 134.101 604.794 133.766C605.324 133.432 605.944 133.264 606.653 133.264C607.084 133.264 607.501 133.335 607.906 133.478C608.31 133.621 608.673 133.844 608.994 134.149C609.316 134.454 609.57 134.85 609.755 135.337C609.941 135.821 610.034 136.41 610.034 137.102V137.629H603.963V136.516H608.577C608.577 136.125 608.497 135.778 608.338 135.477C608.179 135.172 607.955 134.931 607.667 134.756C607.382 134.58 607.047 134.492 606.663 134.492C606.245 134.492 605.881 134.595 605.569 134.8C605.261 135.003 605.022 135.268 604.853 135.596C604.687 135.921 604.605 136.274 604.605 136.655V137.525C604.605 138.035 604.694 138.469 604.873 138.827C605.055 139.185 605.309 139.459 605.634 139.648C605.959 139.833 606.338 139.926 606.772 139.926C607.054 139.926 607.311 139.886 607.543 139.807C607.775 139.724 607.975 139.601 608.144 139.439C608.313 139.277 608.443 139.076 608.532 138.837L609.939 139.091C609.826 139.505 609.624 139.868 609.333 140.18C609.044 140.488 608.681 140.728 608.244 140.901C607.81 141.07 607.314 141.154 606.757 141.154ZM613.169 130.818V141H611.683V130.818H613.169Z" fill="white" fill-opacity="0.7"/>
<path d="M647.949 141V130.818H649.485V139.678H654.099V141H647.949ZM657.954 141.169C657.47 141.169 657.033 141.08 656.642 140.901C656.25 140.718 655.941 140.455 655.712 140.11C655.486 139.765 655.374 139.343 655.374 138.842C655.374 138.411 655.457 138.057 655.622 137.778C655.788 137.5 656.012 137.28 656.294 137.117C656.575 136.955 656.89 136.832 657.238 136.749C657.586 136.666 657.941 136.603 658.302 136.56C658.759 136.507 659.131 136.464 659.416 136.431C659.701 136.395 659.908 136.337 660.037 136.257C660.166 136.178 660.231 136.048 660.231 135.869V135.835C660.231 135.4 660.108 135.064 659.863 134.825C659.621 134.587 659.26 134.467 658.779 134.467C658.279 134.467 657.884 134.578 657.596 134.8C657.311 135.019 657.114 135.263 657.004 135.531L655.607 135.213C655.773 134.749 656.015 134.375 656.333 134.089C656.655 133.801 657.024 133.592 657.442 133.463C657.86 133.33 658.299 133.264 658.759 133.264C659.064 133.264 659.387 133.301 659.729 133.374C660.074 133.443 660.395 133.572 660.693 133.761C660.995 133.95 661.242 134.22 661.434 134.572C661.626 134.92 661.722 135.372 661.722 135.929V141H660.271V139.956H660.211C660.115 140.148 659.971 140.337 659.779 140.523C659.586 140.708 659.339 140.862 659.038 140.985C658.736 141.108 658.375 141.169 657.954 141.169ZM658.277 139.976C658.688 139.976 659.039 139.895 659.331 139.732C659.626 139.57 659.85 139.358 660.002 139.096C660.158 138.831 660.236 138.547 660.236 138.246V137.261C660.183 137.314 660.08 137.364 659.928 137.411C659.779 137.454 659.608 137.492 659.416 137.525C659.223 137.555 659.036 137.583 658.854 137.609C658.672 137.633 658.519 137.652 658.396 137.669C658.108 137.705 657.845 137.767 657.606 137.853C657.371 137.939 657.182 138.063 657.039 138.226C656.9 138.385 656.83 138.597 656.83 138.862C656.83 139.23 656.966 139.509 657.238 139.697C657.51 139.883 657.856 139.976 658.277 139.976ZM663.822 141V130.818H665.308V134.602H665.398C665.484 134.442 665.608 134.259 665.771 134.05C665.933 133.841 666.158 133.659 666.447 133.503C666.735 133.344 667.116 133.264 667.59 133.264C668.207 133.264 668.757 133.42 669.241 133.732C669.725 134.043 670.104 134.492 670.379 135.079C670.658 135.665 670.797 136.371 670.797 137.197C670.797 138.022 670.659 138.73 670.384 139.32C670.109 139.906 669.731 140.359 669.251 140.677C668.77 140.992 668.222 141.149 667.605 141.149C667.141 141.149 666.762 141.071 666.467 140.915C666.175 140.76 665.946 140.577 665.781 140.369C665.615 140.16 665.487 139.974 665.398 139.812H665.273V141H663.822ZM665.278 137.182C665.278 137.719 665.356 138.189 665.512 138.594C665.668 138.998 665.893 139.315 666.188 139.543C666.483 139.769 666.844 139.881 667.272 139.881C667.716 139.881 668.087 139.764 668.386 139.528C668.684 139.29 668.909 138.967 669.062 138.559C669.218 138.151 669.295 137.692 669.295 137.182C669.295 136.678 669.219 136.226 669.067 135.825C668.918 135.424 668.692 135.107 668.391 134.875C668.092 134.643 667.719 134.527 667.272 134.527C666.841 134.527 666.477 134.638 666.178 134.86C665.883 135.082 665.66 135.392 665.507 135.79C665.355 136.187 665.278 136.652 665.278 137.182ZM675.757 141.154C675.005 141.154 674.357 140.993 673.813 140.672C673.273 140.347 672.856 139.891 672.561 139.305C672.269 138.715 672.123 138.024 672.123 137.232C672.123 136.449 672.269 135.76 672.561 135.163C672.856 134.567 673.267 134.101 673.794 133.766C674.324 133.432 674.944 133.264 675.653 133.264C676.084 133.264 676.501 133.335 676.906 133.478C677.31 133.621 677.673 133.844 677.994 134.149C678.316 134.454 678.57 134.85 678.755 135.337C678.941 135.821 679.034 136.41 679.034 137.102V137.629H672.963V136.516H677.577C677.577 136.125 677.497 135.778 677.338 135.477C677.179 135.172 676.955 134.931 676.667 134.756C676.382 134.58 676.047 134.492 675.663 134.492C675.245 134.492 674.881 134.595 674.569 134.8C674.261 135.003 674.022 135.268 673.853 135.596C673.687 135.921 673.605 136.274 673.605 136.655V137.525C673.605 138.035 673.694 138.469 673.873 138.827C674.055 139.185 674.309 139.459 674.634 139.648C674.959 139.833 675.338 139.926 675.772 139.926C676.054 139.926 676.311 139.886 676.543 139.807C676.775 139.724 676.975 139.601 677.144 139.439C677.313 139.277 677.443 139.076 677.532 138.837L678.939 139.091C678.826 139.505 678.624 139.868 678.333 140.18C678.044 140.488 677.681 140.728 677.244 140.901C676.81 141.07 676.314 141.154 675.757 141.154ZM682.169 130.818V141H680.683V130.818H682.169Z" fill="white" fill-opacity="0.7"/>
<path d="M716.949 141V130.818H718.485V139.678H723.099V141H716.949ZM726.954 141.169C726.47 141.169 726.033 141.08 725.642 140.901C725.25 140.718 724.941 140.455 724.712 140.11C724.486 139.765 724.374 139.343 724.374 138.842C724.374 138.411 724.457 138.057 724.622 137.778C724.788 137.5 725.012 137.28 725.294 137.117C725.575 136.955 725.89 136.832 726.238 136.749C726.586 136.666 726.941 136.603 727.302 136.56C727.759 136.507 728.131 136.464 728.416 136.431C728.701 136.395 728.908 136.337 729.037 136.257C729.166 136.178 729.231 136.048 729.231 135.869V135.835C729.231 135.4 729.108 135.064 728.863 134.825C728.621 134.587 728.26 134.467 727.779 134.467C727.279 134.467 726.884 134.578 726.596 134.8C726.311 135.019 726.114 135.263 726.004 135.531L724.607 135.213C724.773 134.749 725.015 134.375 725.333 134.089C725.655 133.801 726.024 133.592 726.442 133.463C726.86 133.33 727.299 133.264 727.759 133.264C728.064 133.264 728.387 133.301 728.729 133.374C729.074 133.443 729.395 133.572 729.693 133.761C729.995 133.95 730.242 134.22 730.434 134.572C730.626 134.92 730.722 135.372 730.722 135.929V141H729.271V139.956H729.211C729.115 140.148 728.971 140.337 728.779 140.523C728.586 140.708 728.339 140.862 728.038 140.985C727.736 141.108 727.375 141.169 726.954 141.169ZM727.277 139.976C727.688 139.976 728.039 139.895 728.331 139.732C728.626 139.57 728.85 139.358 729.002 139.096C729.158 138.831 729.236 138.547 729.236 138.246V137.261C729.183 137.314 729.08 137.364 728.928 137.411C728.779 137.454 728.608 137.492 728.416 137.525C728.223 137.555 728.036 137.583 727.854 137.609C727.672 137.633 727.519 137.652 727.396 137.669C727.108 137.705 726.845 137.767 726.606 137.853C726.371 137.939 726.182 138.063 726.039 138.226C725.9 138.385 725.83 138.597 725.83 138.862C725.83 139.23 725.966 139.509 726.238 139.697C726.51 139.883 726.856 139.976 727.277 139.976ZM732.822 141V130.818H734.308V134.602H734.398C734.484 134.442 734.608 134.259 734.771 134.05C734.933 133.841 735.158 133.659 735.447 133.503C735.735 133.344 736.116 133.264 736.59 133.264C737.207 133.264 737.757 133.42 738.241 133.732C738.725 134.043 739.104 134.492 739.379 135.079C739.658 135.665 739.797 136.371 739.797 137.197C739.797 138.022 739.659 138.73 739.384 139.32C739.109 139.906 738.731 140.359 738.251 140.677C737.77 140.992 737.222 141.149 736.605 141.149C736.141 141.149 735.762 141.071 735.467 140.915C735.175 140.76 734.946 140.577 734.781 140.369C734.615 140.16 734.487 139.974 734.398 139.812H734.273V141H732.822ZM734.278 137.182C734.278 137.719 734.356 138.189 734.512 138.594C734.668 138.998 734.893 139.315 735.188 139.543C735.483 139.769 735.844 139.881 736.272 139.881C736.716 139.881 737.087 139.764 737.386 139.528C737.684 139.29 737.909 138.967 738.062 138.559C738.218 138.151 738.295 137.692 738.295 137.182C738.295 136.678 738.219 136.226 738.067 135.825C737.918 135.424 737.692 135.107 737.391 134.875C737.092 134.643 736.719 134.527 736.272 134.527C735.841 134.527 735.477 134.638 735.178 134.86C734.883 135.082 734.66 135.392 734.507 135.79C734.355 136.187 734.278 136.652 734.278 137.182ZM744.757 141.154C744.005 141.154 743.357 140.993 742.813 140.672C742.273 140.347 741.856 139.891 741.561 139.305C741.269 138.715 741.123 138.024 741.123 137.232C741.123 136.449 741.269 135.76 741.561 135.163C741.856 134.567 742.267 134.101 742.794 133.766C743.324 133.432 743.944 133.264 744.653 133.264C745.084 133.264 745.501 133.335 745.906 133.478C746.31 133.621 746.673 133.844 746.994 134.149C747.316 134.454 747.57 134.85 747.755 135.337C747.941 135.821 748.034 136.41 748.034 137.102V137.629H741.963V136.516H746.577C746.577 136.125 746.497 135.778 746.338 135.477C746.179 135.172 745.955 134.931 745.667 134.756C745.382 134.58 745.047 134.492 744.663 134.492C744.245 134.492 743.881 134.595 743.569 134.8C743.261 135.003 743.022 135.268 742.853 135.596C742.687 135.921 742.605 136.274 742.605 136.655V137.525C742.605 138.035 742.694 138.469 742.873 138.827C743.055 139.185 743.309 139.459 743.634 139.648C743.959 139.833 744.338 139.926 744.772 139.926C745.054 139.926 745.311 139.886 745.543 139.807C745.775 139.724 745.975 139.601 746.144 139.439C746.313 139.277 746.443 139.076 746.532 138.837L747.939 139.091C747.826 139.505 747.624 139.868 747.333 140.18C747.044 140.488 746.681 140.728 746.244 140.901C745.81 141.07 745.314 141.154 744.757 141.154ZM751.169 130.818V141H749.683V130.818H751.169Z" fill="white" fill-opacity="0.7"/>
<path d="M785.949 141V130.818H787.485V139.678H792.099V141H785.949ZM795.954 141.169C795.47 141.169 795.033 141.08 794.642 140.901C794.25 140.718 793.941 140.455 793.712 140.11C793.486 139.765 793.374 139.343 793.374 138.842C793.374 138.411 793.457 138.057 793.622 137.778C793.788 137.5 794.012 137.28 794.294 137.117C794.575 136.955 794.89 136.832 795.238 136.749C795.586 136.666 795.941 136.603 796.302 136.56C796.759 136.507 797.131 136.464 797.416 136.431C797.701 136.395 797.908 136.337 798.037 136.257C798.166 136.178 798.231 136.048 798.231 135.869V135.835C798.231 135.4 798.108 135.064 797.863 134.825C797.621 134.587 797.26 134.467 796.779 134.467C796.279 134.467 795.884 134.578 795.596 134.8C795.311 135.019 795.114 135.263 795.004 135.531L793.607 135.213C793.773 134.749 794.015 134.375 794.333 134.089C794.655 133.801 795.024 133.592 795.442 133.463C795.86 133.33 796.299 133.264 796.759 133.264C797.064 133.264 797.387 133.301 797.729 133.374C798.074 133.443 798.395 133.572 798.693 133.761C798.995 133.95 799.242 134.22 799.434 134.572C799.626 134.92 799.722 135.372 799.722 135.929V141H798.271V139.956H798.211C798.115 140.148 797.971 140.337 797.779 140.523C797.586 140.708 797.339 140.862 797.038 140.985C796.736 141.108 796.375 141.169 795.954 141.169ZM796.277 139.976C796.688 139.976 797.039 139.895 797.331 139.732C797.626 139.57 797.85 139.358 798.002 139.096C798.158 138.831 798.236 138.547 798.236 138.246V137.261C798.183 137.314 798.08 137.364 797.928 137.411C797.779 137.454 797.608 137.492 797.416 137.525C797.223 137.555 797.036 137.583 796.854 137.609C796.672 137.633 796.519 137.652 796.396 137.669C796.108 137.705 795.845 137.767 795.606 137.853C795.371 137.939 795.182 138.063 795.039 138.226C794.9 138.385 794.83 138.597 794.83 138.862C794.83 139.23 794.966 139.509 795.238 139.697C795.51 139.883 795.856 139.976 796.277 139.976ZM801.822 141V130.818H803.308V134.602H803.398C803.484 134.442 803.608 134.259 803.771 134.05C803.933 133.841 804.158 133.659 804.447 133.503C804.735 133.344 805.116 133.264 805.59 133.264C806.207 133.264 806.757 133.42 807.241 133.732C807.725 134.043 808.104 134.492 808.379 135.079C808.658 135.665 808.797 136.371 808.797 137.197C808.797 138.022 808.659 138.73 808.384 139.32C808.109 139.906 807.731 140.359 807.251 140.677C806.77 140.992 806.222 141.149 805.605 141.149C805.141 141.149 804.762 141.071 804.467 140.915C804.175 140.76 803.946 140.577 803.781 140.369C803.615 140.16 803.487 139.974 803.398 139.812H803.273V141H801.822ZM803.278 137.182C803.278 137.719 803.356 138.189 803.512 138.594C803.668 138.998 803.893 139.315 804.188 139.543C804.483 139.769 804.844 139.881 805.272 139.881C805.716 139.881 806.087 139.764 806.386 139.528C806.684 139.29 806.909 138.967 807.062 138.559C807.218 138.151 807.295 137.692 807.295 137.182C807.295 136.678 807.219 136.226 807.067 135.825C806.918 135.424 806.692 135.107 806.391 134.875C806.092 134.643 805.719 134.527 805.272 134.527C804.841 134.527 804.477 134.638 804.178 134.86C803.883 135.082 803.66 135.392 803.507 135.79C803.355 136.187 803.278 136.652 803.278 137.182ZM813.757 141.154C813.005 141.154 812.357 140.993 811.813 140.672C811.273 140.347 810.856 139.891 810.561 139.305C810.269 138.715 810.123 138.024 810.123 137.232C810.123 136.449 810.269 135.76 810.561 135.163C810.856 134.567 811.267 134.101 811.794 133.766C812.324 133.432 812.944 133.264 813.653 133.264C814.084 133.264 814.501 133.335 814.906 133.478C815.31 133.621 815.673 133.844 815.994 134.149C816.316 134.454 816.57 134.85 816.755 135.337C816.941 135.821 817.034 136.41 817.034 137.102V137.629H810.963V136.516H815.577C815.577 136.125 815.497 135.778 815.338 135.477C815.179 135.172 814.955 134.931 814.667 134.756C814.382 134.58 814.047 134.492 813.663 134.492C813.245 134.492 812.881 134.595 812.569 134.8C812.261 135.003 812.022 135.268 811.853 135.596C811.687 135.921 811.605 136.274 811.605 136.655V137.525C811.605 138.035 811.694 138.469 811.873 138.827C812.055 139.185 812.309 139.459 812.634 139.648C812.959 139.833 813.338 139.926 813.772 139.926C814.054 139.926 814.311 139.886 814.543 139.807C814.775 139.724 814.975 139.601 815.144 139.439C815.313 139.277 815.443 139.076 815.532 138.837L816.939 139.091C816.826 139.505 816.624 139.868 816.333 140.18C816.044 140.488 815.681 140.728 815.244 140.901C814.81 141.07 814.314 141.154 813.757 141.154ZM820.169 130.818V141H818.683V130.818H820.169Z" fill="white" fill-opacity="0.7"/>
<path d="M854.949 141V130.818H856.485V139.678H861.099V141H854.949ZM864.954 141.169C864.47 141.169 864.033 141.08 863.642 140.901C863.25 140.718 862.941 140.455 862.712 140.11C862.486 139.765 862.374 139.343 862.374 138.842C862.374 138.411 862.457 138.057 862.622 137.778C862.788 137.5 863.012 137.28 863.294 137.117C863.575 136.955 863.89 136.832 864.238 136.749C864.586 136.666 864.941 136.603 865.302 136.56C865.759 136.507 866.131 136.464 866.416 136.431C866.701 136.395 866.908 136.337 867.037 136.257C867.166 136.178 867.231 136.048 867.231 135.869V135.835C867.231 135.4 867.108 135.064 866.863 134.825C866.621 134.587 866.26 134.467 865.779 134.467C865.279 134.467 864.884 134.578 864.596 134.8C864.311 135.019 864.114 135.263 864.004 135.531L862.607 135.213C862.773 134.749 863.015 134.375 863.333 134.089C863.655 133.801 864.024 133.592 864.442 133.463C864.86 133.33 865.299 133.264 865.759 133.264C866.064 133.264 866.387 133.301 866.729 133.374C867.074 133.443 867.395 133.572 867.693 133.761C867.995 133.95 868.242 134.22 868.434 134.572C868.626 134.92 868.722 135.372 868.722 135.929V141H867.271V139.956H867.211C867.115 140.148 866.971 140.337 866.779 140.523C866.586 140.708 866.339 140.862 866.038 140.985C865.736 141.108 865.375 141.169 864.954 141.169ZM865.277 139.976C865.688 139.976 866.039 139.895 866.331 139.732C866.626 139.57 866.85 139.358 867.002 139.096C867.158 138.831 867.236 138.547 867.236 138.246V137.261C867.183 137.314 867.08 137.364 866.928 137.411C866.779 137.454 866.608 137.492 866.416 137.525C866.223 137.555 866.036 137.583 865.854 137.609C865.672 137.633 865.519 137.652 865.396 137.669C865.108 137.705 864.845 137.767 864.606 137.853C864.371 137.939 864.182 138.063 864.039 138.226C863.9 138.385 863.83 138.597 863.83 138.862C863.83 139.23 863.966 139.509 864.238 139.697C864.51 139.883 864.856 139.976 865.277 139.976ZM870.822 141V130.818H872.308V134.602H872.398C872.484 134.442 872.608 134.259 872.771 134.05C872.933 133.841 873.158 133.659 873.447 133.503C873.735 133.344 874.116 133.264 874.59 133.264C875.207 133.264 875.757 133.42 876.241 133.732C876.725 134.043 877.104 134.492 877.379 135.079C877.658 135.665 877.797 136.371 877.797 137.197C877.797 138.022 877.659 138.73 877.384 139.32C877.109 139.906 876.731 140.359 876.251 140.677C875.77 140.992 875.222 141.149 874.605 141.149C874.141 141.149 873.762 141.071 873.467 140.915C873.175 140.76 872.946 140.577 872.781 140.369C872.615 140.16 872.487 139.974 872.398 139.812H872.273V141H870.822ZM872.278 137.182C872.278 137.719 872.356 138.189 872.512 138.594C872.668 138.998 872.893 139.315 873.188 139.543C873.483 139.769 873.844 139.881 874.272 139.881C874.716 139.881 875.087 139.764 875.386 139.528C875.684 139.29 875.909 138.967 876.062 138.559C876.218 138.151 876.295 137.692 876.295 137.182C876.295 136.678 876.219 136.226 876.067 135.825C875.918 135.424 875.692 135.107 875.391 134.875C875.092 134.643 874.719 134.527 874.272 134.527C873.841 134.527 873.477 134.638 873.178 134.86C872.883 135.082 872.66 135.392 872.507 135.79C872.355 136.187 872.278 136.652 872.278 137.182ZM882.757 141.154C882.005 141.154 881.357 140.993 880.813 140.672C880.273 140.347 879.856 139.891 879.561 139.305C879.269 138.715 879.123 138.024 879.123 137.232C879.123 136.449 879.269 135.76 879.561 135.163C879.856 134.567 880.267 134.101 880.794 133.766C881.324 133.432 881.944 133.264 882.653 133.264C883.084 133.264 883.501 133.335 883.906 133.478C884.31 133.621 884.673 133.844 884.994 134.149C885.316 134.454 885.57 134.85 885.755 135.337C885.941 135.821 886.034 136.41 886.034 137.102V137.629H879.963V136.516H884.577C884.577 136.125 884.497 135.778 884.338 135.477C884.179 135.172 883.955 134.931 883.667 134.756C883.382 134.58 883.047 134.492 882.663 134.492C882.245 134.492 881.881 134.595 881.569 134.8C881.261 135.003 881.022 135.268 880.853 135.596C880.687 135.921 880.605 136.274 880.605 136.655V137.525C880.605 138.035 880.694 138.469 880.873 138.827C881.055 139.185 881.309 139.459 881.634 139.648C881.959 139.833 882.338 139.926 882.772 139.926C883.054 139.926 883.311 139.886 883.543 139.807C883.775 139.724 883.975 139.601 884.144 139.439C884.313 139.277 884.443 139.076 884.532 138.837L885.939 139.091C885.826 139.505 885.624 139.868 885.333 140.18C885.044 140.488 884.681 140.728 884.244 140.901C883.81 141.07 883.314 141.154 882.757 141.154ZM889.169 130.818V141H887.683V130.818H889.169Z" fill="white" fill-opacity="0.7"/>
</g>
<path d="M891.854 135.646L885.854 129.646C885.807 129.599 885.752 129.561 885.691 129.535C885.63 129.509 885.565 129.495 885.498 129.495C885.432 129.494 885.366 129.507 885.305 129.532C885.244 129.557 885.188 129.594 885.141 129.641C885.094 129.688 885.057 129.744 885.032 129.805C885.007 129.866 884.994 129.932 884.995 129.998C884.995 130.065 885.009 130.13 885.035 130.191C885.061 130.252 885.099 130.307 885.147 130.354L890.793 136L885.147 141.646C885.099 141.693 885.061 141.748 885.035 141.809C885.009 141.87 884.995 141.935 884.995 142.002C884.994 142.068 885.007 142.134 885.032 142.195C885.057 142.256 885.094 142.312 885.141 142.359C885.188 142.406 885.244 142.443 885.305 142.468C885.366 142.493 885.432 142.506 885.498 142.505C885.565 142.505 885.63 142.491 885.691 142.465C885.752 142.439 885.807 142.401 885.854 142.354L891.854 136.354C891.947 136.26 892 136.133 892 136C892 135.867 891.947 135.74 891.854 135.646Z" fill="white" fill-opacity="0.95"/>
</g>
<g clip-path="url(#clip2_2110_44856)">
<path d="M259.207 208L264.854 202.354C264.945 202.259 264.996 202.133 264.995 202.002C264.994 201.87 264.941 201.745 264.848 201.652C264.756 201.559 264.63 201.506 264.499 201.505C264.367 201.504 264.241 201.555 264.147 201.646L258.147 207.646C258.053 207.74 258 207.867 258 208C258 208.133 258.053 208.26 258.147 208.354L264.147 214.354C264.193 214.401 264.248 214.439 264.309 214.465C264.37 214.491 264.435 214.505 264.502 214.505C264.568 214.506 264.634 214.493 264.695 214.468C264.756 214.443 264.812 214.406 264.859 214.359C264.906 214.312 264.943 214.256 264.968 214.195C264.993 214.134 265.006 214.068 265.006 214.002C265.005 213.935 264.991 213.87 264.965 213.809C264.939 213.748 264.901 213.693 264.854 213.646L259.207 208Z" fill="white" fill-opacity="0.95"/>
<g clip-path="url(#clip3_2110_44856)">
<mask id="path-29-inside-1_2110_44856" fill="white">
<path d="M289.5 196C289.5 193.791 291.291 192 293.5 192H346.5C348.709 192 350.5 193.791 350.5 196V224H289.5V196Z"/>
</mask>
<path d="M289.5 192H350.5H289.5ZM350.5 226H289.5V222H350.5V226ZM289.5 224V192V224ZM350.5 192V224V192Z" fill="white" fill-opacity="0.9" mask="url(#path-29-inside-1_2110_44856)"/>
<path d="M302.949 213V202.818H304.485V211.678H309.099V213H302.949ZM312.954 213.169C312.47 213.169 312.033 213.08 311.642 212.901C311.25 212.718 310.941 212.455 310.712 212.11C310.486 211.765 310.374 211.343 310.374 210.842C310.374 210.411 310.457 210.057 310.622 209.778C310.788 209.5 311.012 209.28 311.294 209.117C311.575 208.955 311.89 208.832 312.238 208.749C312.586 208.666 312.941 208.603 313.302 208.56C313.759 208.507 314.131 208.464 314.416 208.431C314.701 208.395 314.908 208.337 315.037 208.257C315.166 208.178 315.231 208.048 315.231 207.869V207.835C315.231 207.4 315.108 207.064 314.863 206.825C314.621 206.587 314.26 206.467 313.779 206.467C313.279 206.467 312.884 206.578 312.596 206.8C312.311 207.019 312.114 207.263 312.004 207.531L310.607 207.213C310.773 206.749 311.015 206.375 311.333 206.089C311.655 205.801 312.024 205.592 312.442 205.463C312.86 205.33 313.299 205.264 313.759 205.264C314.064 205.264 314.387 205.301 314.729 205.374C315.074 205.443 315.395 205.572 315.693 205.761C315.995 205.95 316.242 206.22 316.434 206.572C316.626 206.92 316.722 207.372 316.722 207.929V213H315.271V211.956H315.211C315.115 212.148 314.971 212.337 314.779 212.523C314.586 212.708 314.339 212.862 314.038 212.985C313.736 213.108 313.375 213.169 312.954 213.169ZM313.277 211.976C313.688 211.976 314.039 211.895 314.331 211.732C314.626 211.57 314.85 211.358 315.002 211.096C315.158 210.831 315.236 210.547 315.236 210.246V209.261C315.183 209.314 315.08 209.364 314.928 209.411C314.779 209.454 314.608 209.492 314.416 209.525C314.223 209.555 314.036 209.583 313.854 209.609C313.672 209.633 313.519 209.652 313.396 209.669C313.108 209.705 312.845 209.767 312.606 209.853C312.371 209.939 312.182 210.063 312.039 210.226C311.9 210.385 311.83 210.597 311.83 210.862C311.83 211.23 311.966 211.509 312.238 211.697C312.51 211.883 312.856 211.976 313.277 211.976ZM318.822 213V202.818H320.308V206.602H320.398C320.484 206.442 320.608 206.259 320.771 206.05C320.933 205.841 321.158 205.659 321.447 205.503C321.735 205.344 322.116 205.264 322.59 205.264C323.207 205.264 323.757 205.42 324.241 205.732C324.725 206.043 325.104 206.492 325.379 207.079C325.658 207.665 325.797 208.371 325.797 209.197C325.797 210.022 325.659 210.73 325.384 211.32C325.109 211.906 324.731 212.359 324.251 212.677C323.77 212.992 323.222 213.149 322.605 213.149C322.141 213.149 321.762 213.071 321.467 212.915C321.175 212.76 320.946 212.577 320.781 212.369C320.615 212.16 320.487 211.974 320.398 211.812H320.273V213H318.822ZM320.278 209.182C320.278 209.719 320.356 210.189 320.512 210.594C320.668 210.998 320.893 211.315 321.188 211.543C321.483 211.769 321.844 211.881 322.272 211.881C322.716 211.881 323.087 211.764 323.386 211.528C323.684 211.29 323.909 210.967 324.062 210.559C324.218 210.151 324.295 209.692 324.295 209.182C324.295 208.678 324.219 208.226 324.067 207.825C323.918 207.424 323.692 207.107 323.391 206.875C323.092 206.643 322.719 206.527 322.272 206.527C321.841 206.527 321.477 206.638 321.178 206.86C320.883 207.082 320.66 207.392 320.507 207.79C320.355 208.187 320.278 208.652 320.278 209.182ZM330.757 213.154C330.005 213.154 329.357 212.993 328.813 212.672C328.273 212.347 327.856 211.891 327.561 211.305C327.269 210.715 327.123 210.024 327.123 209.232C327.123 208.449 327.269 207.76 327.561 207.163C327.856 206.567 328.267 206.101 328.794 205.766C329.324 205.432 329.944 205.264 330.653 205.264C331.084 205.264 331.501 205.335 331.906 205.478C332.31 205.621 332.673 205.844 332.994 206.149C333.316 206.454 333.57 206.85 333.755 207.337C333.941 207.821 334.034 208.41 334.034 209.102V209.629H327.963V208.516H332.577C332.577 208.125 332.497 207.778 332.338 207.477C332.179 207.172 331.955 206.931 331.667 206.756C331.382 206.58 331.047 206.492 330.663 206.492C330.245 206.492 329.881 206.595 329.569 206.8C329.261 207.003 329.022 207.268 328.853 207.596C328.687 207.921 328.605 208.274 328.605 208.655V209.525C328.605 210.035 328.694 210.469 328.873 210.827C329.055 211.185 329.309 211.459 329.634 211.648C329.959 211.833 330.338 211.926 330.772 211.926C331.054 211.926 331.311 211.886 331.543 211.807C331.775 211.724 331.975 211.601 332.144 211.439C332.313 211.277 332.443 211.076 332.532 210.837L333.939 211.091C333.826 211.505 333.624 211.868 333.333 212.18C333.044 212.488 332.681 212.728 332.244 212.901C331.81 213.07 331.314 213.154 330.757 213.154ZM337.169 202.818V213H335.683V202.818H337.169Z" fill="white" fill-opacity="0.95"/>
<path d="M371.949 213V202.818H373.485V211.678H378.099V213H371.949ZM381.954 213.169C381.47 213.169 381.033 213.08 380.642 212.901C380.25 212.718 379.941 212.455 379.712 212.11C379.486 211.765 379.374 211.343 379.374 210.842C379.374 210.411 379.457 210.057 379.622 209.778C379.788 209.5 380.012 209.28 380.294 209.117C380.575 208.955 380.89 208.832 381.238 208.749C381.586 208.666 381.941 208.603 382.302 208.56C382.759 208.507 383.131 208.464 383.416 208.431C383.701 208.395 383.908 208.337 384.037 208.257C384.166 208.178 384.231 208.048 384.231 207.869V207.835C384.231 207.4 384.108 207.064 383.863 206.825C383.621 206.587 383.26 206.467 382.779 206.467C382.279 206.467 381.884 206.578 381.596 206.8C381.311 207.019 381.114 207.263 381.004 207.531L379.607 207.213C379.773 206.749 380.015 206.375 380.333 206.089C380.655 205.801 381.024 205.592 381.442 205.463C381.86 205.33 382.299 205.264 382.759 205.264C383.064 205.264 383.387 205.301 383.729 205.374C384.074 205.443 384.395 205.572 384.693 205.761C384.995 205.95 385.242 206.22 385.434 206.572C385.626 206.92 385.722 207.372 385.722 207.929V213H384.271V211.956H384.211C384.115 212.148 383.971 212.337 383.779 212.523C383.586 212.708 383.339 212.862 383.038 212.985C382.736 213.108 382.375 213.169 381.954 213.169ZM382.277 211.976C382.688 211.976 383.039 211.895 383.331 211.732C383.626 211.57 383.85 211.358 384.002 211.096C384.158 210.831 384.236 210.547 384.236 210.246V209.261C384.183 209.314 384.08 209.364 383.928 209.411C383.779 209.454 383.608 209.492 383.416 209.525C383.223 209.555 383.036 209.583 382.854 209.609C382.672 209.633 382.519 209.652 382.396 209.669C382.108 209.705 381.845 209.767 381.606 209.853C381.371 209.939 381.182 210.063 381.039 210.226C380.9 210.385 380.83 210.597 380.83 210.862C380.83 211.23 380.966 211.509 381.238 211.697C381.51 211.883 381.856 211.976 382.277 211.976ZM387.822 213V202.818H389.308V206.602H389.398C389.484 206.442 389.608 206.259 389.771 206.05C389.933 205.841 390.158 205.659 390.447 205.503C390.735 205.344 391.116 205.264 391.59 205.264C392.207 205.264 392.757 205.42 393.241 205.732C393.725 206.043 394.104 206.492 394.379 207.079C394.658 207.665 394.797 208.371 394.797 209.197C394.797 210.022 394.659 210.73 394.384 211.32C394.109 211.906 393.731 212.359 393.251 212.677C392.77 212.992 392.222 213.149 391.605 213.149C391.141 213.149 390.762 213.071 390.467 212.915C390.175 212.76 389.946 212.577 389.781 212.369C389.615 212.16 389.487 211.974 389.398 211.812H389.273V213H387.822ZM389.278 209.182C389.278 209.719 389.356 210.189 389.512 210.594C389.668 210.998 389.893 211.315 390.188 211.543C390.483 211.769 390.844 211.881 391.272 211.881C391.716 211.881 392.087 211.764 392.386 211.528C392.684 211.29 392.909 210.967 393.062 210.559C393.218 210.151 393.295 209.692 393.295 209.182C393.295 208.678 393.219 208.226 393.067 207.825C392.918 207.424 392.692 207.107 392.391 206.875C392.092 206.643 391.719 206.527 391.272 206.527C390.841 206.527 390.477 206.638 390.178 206.86C389.883 207.082 389.66 207.392 389.507 207.79C389.355 208.187 389.278 208.652 389.278 209.182ZM399.757 213.154C399.005 213.154 398.357 212.993 397.813 212.672C397.273 212.347 396.856 211.891 396.561 211.305C396.269 210.715 396.123 210.024 396.123 209.232C396.123 208.449 396.269 207.76 396.561 207.163C396.856 206.567 397.267 206.101 397.794 205.766C398.324 205.432 398.944 205.264 399.653 205.264C400.084 205.264 400.501 205.335 400.906 205.478C401.31 205.621 401.673 205.844 401.994 206.149C402.316 206.454 402.57 206.85 402.755 207.337C402.941 207.821 403.034 208.41 403.034 209.102V209.629H396.963V208.516H401.577C401.577 208.125 401.497 207.778 401.338 207.477C401.179 207.172 400.955 206.931 400.667 206.756C400.382 206.58 400.047 206.492 399.663 206.492C399.245 206.492 398.881 206.595 398.569 206.8C398.261 207.003 398.022 207.268 397.853 207.596C397.687 207.921 397.605 208.274 397.605 208.655V209.525C397.605 210.035 397.694 210.469 397.873 210.827C398.055 211.185 398.309 211.459 398.634 211.648C398.959 211.833 399.338 211.926 399.772 211.926C400.054 211.926 400.311 211.886 400.543 211.807C400.775 211.724 400.975 211.601 401.144 211.439C401.313 211.277 401.443 211.076 401.532 210.837L402.939 211.091C402.826 211.505 402.624 211.868 402.333 212.18C402.044 212.488 401.681 212.728 401.244 212.901C400.81 213.07 400.314 213.154 399.757 213.154ZM406.169 202.818V213H404.683V202.818H406.169Z" fill="white" fill-opacity="0.7"/>
<path d="M440.949 213V202.818H442.485V211.678H447.099V213H440.949ZM450.954 213.169C450.47 213.169 450.033 213.08 449.642 212.901C449.25 212.718 448.941 212.455 448.712 212.11C448.486 211.765 448.374 211.343 448.374 210.842C448.374 210.411 448.457 210.057 448.622 209.778C448.788 209.5 449.012 209.28 449.294 209.117C449.575 208.955 449.89 208.832 450.238 208.749C450.586 208.666 450.941 208.603 451.302 208.56C451.759 208.507 452.131 208.464 452.416 208.431C452.701 208.395 452.908 208.337 453.037 208.257C453.166 208.178 453.231 208.048 453.231 207.869V207.835C453.231 207.4 453.108 207.064 452.863 206.825C452.621 206.587 452.26 206.467 451.779 206.467C451.279 206.467 450.884 206.578 450.596 206.8C450.311 207.019 450.114 207.263 450.004 207.531L448.607 207.213C448.773 206.749 449.015 206.375 449.333 206.089C449.655 205.801 450.024 205.592 450.442 205.463C450.86 205.33 451.299 205.264 451.759 205.264C452.064 205.264 452.387 205.301 452.729 205.374C453.074 205.443 453.395 205.572 453.693 205.761C453.995 205.95 454.242 206.22 454.434 206.572C454.626 206.92 454.722 207.372 454.722 207.929V213H453.271V211.956H453.211C453.115 212.148 452.971 212.337 452.779 212.523C452.586 212.708 452.339 212.862 452.038 212.985C451.736 213.108 451.375 213.169 450.954 213.169ZM451.277 211.976C451.688 211.976 452.039 211.895 452.331 211.732C452.626 211.57 452.85 211.358 453.002 211.096C453.158 210.831 453.236 210.547 453.236 210.246V209.261C453.183 209.314 453.08 209.364 452.928 209.411C452.779 209.454 452.608 209.492 452.416 209.525C452.223 209.555 452.036 209.583 451.854 209.609C451.672 209.633 451.519 209.652 451.396 209.669C451.108 209.705 450.845 209.767 450.606 209.853C450.371 209.939 450.182 210.063 450.039 210.226C449.9 210.385 449.83 210.597 449.83 210.862C449.83 211.23 449.966 211.509 450.238 211.697C450.51 211.883 450.856 211.976 451.277 211.976ZM456.822 213V202.818H458.308V206.602H458.398C458.484 206.442 458.608 206.259 458.771 206.05C458.933 205.841 459.158 205.659 459.447 205.503C459.735 205.344 460.116 205.264 460.59 205.264C461.207 205.264 461.757 205.42 462.241 205.732C462.725 206.043 463.104 206.492 463.379 207.079C463.658 207.665 463.797 208.371 463.797 209.197C463.797 210.022 463.659 210.73 463.384 211.32C463.109 211.906 462.731 212.359 462.251 212.677C461.77 212.992 461.222 213.149 460.605 213.149C460.141 213.149 459.762 213.071 459.467 212.915C459.175 212.76 458.946 212.577 458.781 212.369C458.615 212.16 458.487 211.974 458.398 211.812H458.273V213H456.822ZM458.278 209.182C458.278 209.719 458.356 210.189 458.512 210.594C458.668 210.998 458.893 211.315 459.188 211.543C459.483 211.769 459.844 211.881 460.272 211.881C460.716 211.881 461.087 211.764 461.386 211.528C461.684 211.29 461.909 210.967 462.062 210.559C462.218 210.151 462.295 209.692 462.295 209.182C462.295 208.678 462.219 208.226 462.067 207.825C461.918 207.424 461.692 207.107 461.391 206.875C461.092 206.643 460.719 206.527 460.272 206.527C459.841 206.527 459.477 206.638 459.178 206.86C458.883 207.082 458.66 207.392 458.507 207.79C458.355 208.187 458.278 208.652 458.278 209.182ZM468.757 213.154C468.005 213.154 467.357 212.993 466.813 212.672C466.273 212.347 465.856 211.891 465.561 211.305C465.269 210.715 465.123 210.024 465.123 209.232C465.123 208.449 465.269 207.76 465.561 207.163C465.856 206.567 466.267 206.101 466.794 205.766C467.324 205.432 467.944 205.264 468.653 205.264C469.084 205.264 469.501 205.335 469.906 205.478C470.31 205.621 470.673 205.844 470.994 206.149C471.316 206.454 471.57 206.85 471.755 207.337C471.941 207.821 472.034 208.41 472.034 209.102V209.629H465.963V208.516H470.577C470.577 208.125 470.497 207.778 470.338 207.477C470.179 207.172 469.955 206.931 469.667 206.756C469.382 206.58 469.047 206.492 468.663 206.492C468.245 206.492 467.881 206.595 467.569 206.8C467.261 207.003 467.022 207.268 466.853 207.596C466.687 207.921 466.605 208.274 466.605 208.655V209.525C466.605 210.035 466.694 210.469 466.873 210.827C467.055 211.185 467.309 211.459 467.634 211.648C467.959 211.833 468.338 211.926 468.772 211.926C469.054 211.926 469.311 211.886 469.543 211.807C469.775 211.724 469.975 211.601 470.144 211.439C470.313 211.277 470.443 211.076 470.532 210.837L471.939 211.091C471.826 211.505 471.624 211.868 471.333 212.18C471.044 212.488 470.681 212.728 470.244 212.901C469.81 213.07 469.314 213.154 468.757 213.154ZM475.169 202.818V213H473.683V202.818H475.169Z" fill="white" fill-opacity="0.7"/>
<path d="M509.949 213V202.818H511.485V211.678H516.099V213H509.949ZM519.954 213.169C519.47 213.169 519.033 213.08 518.642 212.901C518.25 212.718 517.941 212.455 517.712 212.11C517.486 211.765 517.374 211.343 517.374 210.842C517.374 210.411 517.457 210.057 517.622 209.778C517.788 209.5 518.012 209.28 518.294 209.117C518.575 208.955 518.89 208.832 519.238 208.749C519.586 208.666 519.941 208.603 520.302 208.56C520.759 208.507 521.131 208.464 521.416 208.431C521.701 208.395 521.908 208.337 522.037 208.257C522.166 208.178 522.231 208.048 522.231 207.869V207.835C522.231 207.4 522.108 207.064 521.863 206.825C521.621 206.587 521.26 206.467 520.779 206.467C520.279 206.467 519.884 206.578 519.596 206.8C519.311 207.019 519.114 207.263 519.004 207.531L517.607 207.213C517.773 206.749 518.015 206.375 518.333 206.089C518.655 205.801 519.024 205.592 519.442 205.463C519.86 205.33 520.299 205.264 520.759 205.264C521.064 205.264 521.387 205.301 521.729 205.374C522.074 205.443 522.395 205.572 522.693 205.761C522.995 205.95 523.242 206.22 523.434 206.572C523.626 206.92 523.722 207.372 523.722 207.929V213H522.271V211.956H522.211C522.115 212.148 521.971 212.337 521.779 212.523C521.586 212.708 521.339 212.862 521.038 212.985C520.736 213.108 520.375 213.169 519.954 213.169ZM520.277 211.976C520.688 211.976 521.039 211.895 521.331 211.732C521.626 211.57 521.85 211.358 522.002 211.096C522.158 210.831 522.236 210.547 522.236 210.246V209.261C522.183 209.314 522.08 209.364 521.928 209.411C521.779 209.454 521.608 209.492 521.416 209.525C521.223 209.555 521.036 209.583 520.854 209.609C520.672 209.633 520.519 209.652 520.396 209.669C520.108 209.705 519.845 209.767 519.606 209.853C519.371 209.939 519.182 210.063 519.039 210.226C518.9 210.385 518.83 210.597 518.83 210.862C518.83 211.23 518.966 211.509 519.238 211.697C519.51 211.883 519.856 211.976 520.277 211.976ZM525.822 213V202.818H527.308V206.602H527.398C527.484 206.442 527.608 206.259 527.771 206.05C527.933 205.841 528.158 205.659 528.447 205.503C528.735 205.344 529.116 205.264 529.59 205.264C530.207 205.264 530.757 205.42 531.241 205.732C531.725 206.043 532.104 206.492 532.379 207.079C532.658 207.665 532.797 208.371 532.797 209.197C532.797 210.022 532.659 210.73 532.384 211.32C532.109 211.906 531.731 212.359 531.251 212.677C530.77 212.992 530.222 213.149 529.605 213.149C529.141 213.149 528.762 213.071 528.467 212.915C528.175 212.76 527.946 212.577 527.781 212.369C527.615 212.16 527.487 211.974 527.398 211.812H527.273V213H525.822ZM527.278 209.182C527.278 209.719 527.356 210.189 527.512 210.594C527.668 210.998 527.893 211.315 528.188 211.543C528.483 211.769 528.844 211.881 529.272 211.881C529.716 211.881 530.087 211.764 530.386 211.528C530.684 211.29 530.909 210.967 531.062 210.559C531.218 210.151 531.295 209.692 531.295 209.182C531.295 208.678 531.219 208.226 531.067 207.825C530.918 207.424 530.692 207.107 530.391 206.875C530.092 206.643 529.719 206.527 529.272 206.527C528.841 206.527 528.477 206.638 528.178 206.86C527.883 207.082 527.66 207.392 527.507 207.79C527.355 208.187 527.278 208.652 527.278 209.182ZM537.757 213.154C537.005 213.154 536.357 212.993 535.813 212.672C535.273 212.347 534.856 211.891 534.561 211.305C534.269 210.715 534.123 210.024 534.123 209.232C534.123 208.449 534.269 207.76 534.561 207.163C534.856 206.567 535.267 206.101 535.794 205.766C536.324 205.432 536.944 205.264 537.653 205.264C538.084 205.264 538.501 205.335 538.906 205.478C539.31 205.621 539.673 205.844 539.994 206.149C540.316 206.454 540.57 206.85 540.755 207.337C540.941 207.821 541.034 208.41 541.034 209.102V209.629H534.963V208.516H539.577C539.577 208.125 539.497 207.778 539.338 207.477C539.179 207.172 538.955 206.931 538.667 206.756C538.382 206.58 538.047 206.492 537.663 206.492C537.245 206.492 536.881 206.595 536.569 206.8C536.261 207.003 536.022 207.268 535.853 207.596C535.687 207.921 535.605 208.274 535.605 208.655V209.525C535.605 210.035 535.694 210.469 535.873 210.827C536.055 211.185 536.309 211.459 536.634 211.648C536.959 211.833 537.338 211.926 537.772 211.926C538.054 211.926 538.311 211.886 538.543 211.807C538.775 211.724 538.975 211.601 539.144 211.439C539.313 211.277 539.443 211.076 539.532 210.837L540.939 211.091C540.826 211.505 540.624 211.868 540.333 212.18C540.044 212.488 539.681 212.728 539.244 212.901C538.81 213.07 538.314 213.154 537.757 213.154ZM544.169 202.818V213H542.683V202.818H544.169Z" fill="white" fill-opacity="0.7"/>
<path d="M578.949 213V202.818H580.485V211.678H585.099V213H578.949ZM588.954 213.169C588.47 213.169 588.033 213.08 587.642 212.901C587.25 212.718 586.941 212.455 586.712 212.11C586.486 211.765 586.374 211.343 586.374 210.842C586.374 210.411 586.457 210.057 586.622 209.778C586.788 209.5 587.012 209.28 587.294 209.117C587.575 208.955 587.89 208.832 588.238 208.749C588.586 208.666 588.941 208.603 589.302 208.56C589.759 208.507 590.131 208.464 590.416 208.431C590.701 208.395 590.908 208.337 591.037 208.257C591.166 208.178 591.231 208.048 591.231 207.869V207.835C591.231 207.4 591.108 207.064 590.863 206.825C590.621 206.587 590.26 206.467 589.779 206.467C589.279 206.467 588.884 206.578 588.596 206.8C588.311 207.019 588.114 207.263 588.004 207.531L586.607 207.213C586.773 206.749 587.015 206.375 587.333 206.089C587.655 205.801 588.024 205.592 588.442 205.463C588.86 205.33 589.299 205.264 589.759 205.264C590.064 205.264 590.387 205.301 590.729 205.374C591.074 205.443 591.395 205.572 591.693 205.761C591.995 205.95 592.242 206.22 592.434 206.572C592.626 206.92 592.722 207.372 592.722 207.929V213H591.271V211.956H591.211C591.115 212.148 590.971 212.337 590.779 212.523C590.586 212.708 590.339 212.862 590.038 212.985C589.736 213.108 589.375 213.169 588.954 213.169ZM589.277 211.976C589.688 211.976 590.039 211.895 590.331 211.732C590.626 211.57 590.85 211.358 591.002 211.096C591.158 210.831 591.236 210.547 591.236 210.246V209.261C591.183 209.314 591.08 209.364 590.928 209.411C590.779 209.454 590.608 209.492 590.416 209.525C590.223 209.555 590.036 209.583 589.854 209.609C589.672 209.633 589.519 209.652 589.396 209.669C589.108 209.705 588.845 209.767 588.606 209.853C588.371 209.939 588.182 210.063 588.039 210.226C587.9 210.385 587.83 210.597 587.83 210.862C587.83 211.23 587.966 211.509 588.238 211.697C588.51 211.883 588.856 211.976 589.277 211.976ZM594.822 213V202.818H596.308V206.602H596.398C596.484 206.442 596.608 206.259 596.771 206.05C596.933 205.841 597.158 205.659 597.447 205.503C597.735 205.344 598.116 205.264 598.59 205.264C599.207 205.264 599.757 205.42 600.241 205.732C600.725 206.043 601.104 206.492 601.379 207.079C601.658 207.665 601.797 208.371 601.797 209.197C601.797 210.022 601.659 210.73 601.384 211.32C601.109 211.906 600.731 212.359 600.251 212.677C599.77 212.992 599.222 213.149 598.605 213.149C598.141 213.149 597.762 213.071 597.467 212.915C597.175 212.76 596.946 212.577 596.781 212.369C596.615 212.16 596.487 211.974 596.398 211.812H596.273V213H594.822ZM596.278 209.182C596.278 209.719 596.356 210.189 596.512 210.594C596.668 210.998 596.893 211.315 597.188 211.543C597.483 211.769 597.844 211.881 598.272 211.881C598.716 211.881 599.087 211.764 599.386 211.528C599.684 211.29 599.909 210.967 600.062 210.559C600.218 210.151 600.295 209.692 600.295 209.182C600.295 208.678 600.219 208.226 600.067 207.825C599.918 207.424 599.692 207.107 599.391 206.875C599.092 206.643 598.719 206.527 598.272 206.527C597.841 206.527 597.477 206.638 597.178 206.86C596.883 207.082 596.66 207.392 596.507 207.79C596.355 208.187 596.278 208.652 596.278 209.182ZM606.757 213.154C606.005 213.154 605.357 212.993 604.813 212.672C604.273 212.347 603.856 211.891 603.561 211.305C603.269 210.715 603.123 210.024 603.123 209.232C603.123 208.449 603.269 207.76 603.561 207.163C603.856 206.567 604.267 206.101 604.794 205.766C605.324 205.432 605.944 205.264 606.653 205.264C607.084 205.264 607.501 205.335 607.906 205.478C608.31 205.621 608.673 205.844 608.994 206.149C609.316 206.454 609.57 206.85 609.755 207.337C609.941 207.821 610.034 208.41 610.034 209.102V209.629H603.963V208.516H608.577C608.577 208.125 608.497 207.778 608.338 207.477C608.179 207.172 607.955 206.931 607.667 206.756C607.382 206.58 607.047 206.492 606.663 206.492C606.245 206.492 605.881 206.595 605.569 206.8C605.261 207.003 605.022 207.268 604.853 207.596C604.687 207.921 604.605 208.274 604.605 208.655V209.525C604.605 210.035 604.694 210.469 604.873 210.827C605.055 211.185 605.309 211.459 605.634 211.648C605.959 211.833 606.338 211.926 606.772 211.926C607.054 211.926 607.311 211.886 607.543 211.807C607.775 211.724 607.975 211.601 608.144 211.439C608.313 211.277 608.443 211.076 608.532 210.837L609.939 211.091C609.826 211.505 609.624 211.868 609.333 212.18C609.044 212.488 608.681 212.728 608.244 212.901C607.81 213.07 607.314 213.154 606.757 213.154ZM613.169 202.818V213H611.683V202.818H613.169Z" fill="white" fill-opacity="0.7"/>
<path d="M647.949 213V202.818H649.485V211.678H654.099V213H647.949ZM657.954 213.169C657.47 213.169 657.033 213.08 656.642 212.901C656.25 212.718 655.941 212.455 655.712 212.11C655.486 211.765 655.374 211.343 655.374 210.842C655.374 210.411 655.457 210.057 655.622 209.778C655.788 209.5 656.012 209.28 656.294 209.117C656.575 208.955 656.89 208.832 657.238 208.749C657.586 208.666 657.941 208.603 658.302 208.56C658.759 208.507 659.131 208.464 659.416 208.431C659.701 208.395 659.908 208.337 660.037 208.257C660.166 208.178 660.231 208.048 660.231 207.869V207.835C660.231 207.4 660.108 207.064 659.863 206.825C659.621 206.587 659.26 206.467 658.779 206.467C658.279 206.467 657.884 206.578 657.596 206.8C657.311 207.019 657.114 207.263 657.004 207.531L655.607 207.213C655.773 206.749 656.015 206.375 656.333 206.089C656.655 205.801 657.024 205.592 657.442 205.463C657.86 205.33 658.299 205.264 658.759 205.264C659.064 205.264 659.387 205.301 659.729 205.374C660.074 205.443 660.395 205.572 660.693 205.761C660.995 205.95 661.242 206.22 661.434 206.572C661.626 206.92 661.722 207.372 661.722 207.929V213H660.271V211.956H660.211C660.115 212.148 659.971 212.337 659.779 212.523C659.586 212.708 659.339 212.862 659.038 212.985C658.736 213.108 658.375 213.169 657.954 213.169ZM658.277 211.976C658.688 211.976 659.039 211.895 659.331 211.732C659.626 211.57 659.85 211.358 660.002 211.096C660.158 210.831 660.236 210.547 660.236 210.246V209.261C660.183 209.314 660.08 209.364 659.928 209.411C659.779 209.454 659.608 209.492 659.416 209.525C659.223 209.555 659.036 209.583 658.854 209.609C658.672 209.633 658.519 209.652 658.396 209.669C658.108 209.705 657.845 209.767 657.606 209.853C657.371 209.939 657.182 210.063 657.039 210.226C656.9 210.385 656.83 210.597 656.83 210.862C656.83 211.23 656.966 211.509 657.238 211.697C657.51 211.883 657.856 211.976 658.277 211.976ZM663.822 213V202.818H665.308V206.602H665.398C665.484 206.442 665.608 206.259 665.771 206.05C665.933 205.841 666.158 205.659 666.447 205.503C666.735 205.344 667.116 205.264 667.59 205.264C668.207 205.264 668.757 205.42 669.241 205.732C669.725 206.043 670.104 206.492 670.379 207.079C670.658 207.665 670.797 208.371 670.797 209.197C670.797 210.022 670.659 210.73 670.384 211.32C670.109 211.906 669.731 212.359 669.251 212.677C668.77 212.992 668.222 213.149 667.605 213.149C667.141 213.149 666.762 213.071 666.467 212.915C666.175 212.76 665.946 212.577 665.781 212.369C665.615 212.16 665.487 211.974 665.398 211.812H665.273V213H663.822ZM665.278 209.182C665.278 209.719 665.356 210.189 665.512 210.594C665.668 210.998 665.893 211.315 666.188 211.543C666.483 211.769 666.844 211.881 667.272 211.881C667.716 211.881 668.087 211.764 668.386 211.528C668.684 211.29 668.909 210.967 669.062 210.559C669.218 210.151 669.295 209.692 669.295 209.182C669.295 208.678 669.219 208.226 669.067 207.825C668.918 207.424 668.692 207.107 668.391 206.875C668.092 206.643 667.719 206.527 667.272 206.527C666.841 206.527 666.477 206.638 666.178 206.86C665.883 207.082 665.66 207.392 665.507 207.79C665.355 208.187 665.278 208.652 665.278 209.182ZM675.757 213.154C675.005 213.154 674.357 212.993 673.813 212.672C673.273 212.347 672.856 211.891 672.561 211.305C672.269 210.715 672.123 210.024 672.123 209.232C672.123 208.449 672.269 207.76 672.561 207.163C672.856 206.567 673.267 206.101 673.794 205.766C674.324 205.432 674.944 205.264 675.653 205.264C676.084 205.264 676.501 205.335 676.906 205.478C677.31 205.621 677.673 205.844 677.994 206.149C678.316 206.454 678.57 206.85 678.755 207.337C678.941 207.821 679.034 208.41 679.034 209.102V209.629H672.963V208.516H677.577C677.577 208.125 677.497 207.778 677.338 207.477C677.179 207.172 676.955 206.931 676.667 206.756C676.382 206.58 676.047 206.492 675.663 206.492C675.245 206.492 674.881 206.595 674.569 206.8C674.261 207.003 674.022 207.268 673.853 207.596C673.687 207.921 673.605 208.274 673.605 208.655V209.525C673.605 210.035 673.694 210.469 673.873 210.827C674.055 211.185 674.309 211.459 674.634 211.648C674.959 211.833 675.338 211.926 675.772 211.926C676.054 211.926 676.311 211.886 676.543 211.807C676.775 211.724 676.975 211.601 677.144 211.439C677.313 211.277 677.443 211.076 677.532 210.837L678.939 211.091C678.826 211.505 678.624 211.868 678.333 212.18C678.044 212.488 677.681 212.728 677.244 212.901C676.81 213.07 676.314 213.154 675.757 213.154ZM682.169 202.818V213H680.683V202.818H682.169Z" fill="white" fill-opacity="0.7"/>
<path d="M716.949 213V202.818H718.485V211.678H723.099V213H716.949ZM726.954 213.169C726.47 213.169 726.033 213.08 725.642 212.901C725.25 212.718 724.941 212.455 724.712 212.11C724.486 211.765 724.374 211.343 724.374 210.842C724.374 210.411 724.457 210.057 724.622 209.778C724.788 209.5 725.012 209.28 725.294 209.117C725.575 208.955 725.89 208.832 726.238 208.749C726.586 208.666 726.941 208.603 727.302 208.56C727.759 208.507 728.131 208.464 728.416 208.431C728.701 208.395 728.908 208.337 729.037 208.257C729.166 208.178 729.231 208.048 729.231 207.869V207.835C729.231 207.4 729.108 207.064 728.863 206.825C728.621 206.587 728.26 206.467 727.779 206.467C727.279 206.467 726.884 206.578 726.596 206.8C726.311 207.019 726.114 207.263 726.004 207.531L724.607 207.213C724.773 206.749 725.015 206.375 725.333 206.089C725.655 205.801 726.024 205.592 726.442 205.463C726.86 205.33 727.299 205.264 727.759 205.264C728.064 205.264 728.387 205.301 728.729 205.374C729.074 205.443 729.395 205.572 729.693 205.761C729.995 205.95 730.242 206.22 730.434 206.572C730.626 206.92 730.722 207.372 730.722 207.929V213H729.271V211.956H729.211C729.115 212.148 728.971 212.337 728.779 212.523C728.586 212.708 728.339 212.862 728.038 212.985C727.736 213.108 727.375 213.169 726.954 213.169ZM727.277 211.976C727.688 211.976 728.039 211.895 728.331 211.732C728.626 211.57 728.85 211.358 729.002 211.096C729.158 210.831 729.236 210.547 729.236 210.246V209.261C729.183 209.314 729.08 209.364 728.928 209.411C728.779 209.454 728.608 209.492 728.416 209.525C728.223 209.555 728.036 209.583 727.854 209.609C727.672 209.633 727.519 209.652 727.396 209.669C727.108 209.705 726.845 209.767 726.606 209.853C726.371 209.939 726.182 210.063 726.039 210.226C725.9 210.385 725.83 210.597 725.83 210.862C725.83 211.23 725.966 211.509 726.238 211.697C726.51 211.883 726.856 211.976 727.277 211.976ZM732.822 213V202.818H734.308V206.602H734.398C734.484 206.442 734.608 206.259 734.771 206.05C734.933 205.841 735.158 205.659 735.447 205.503C735.735 205.344 736.116 205.264 736.59 205.264C737.207 205.264 737.757 205.42 738.241 205.732C738.725 206.043 739.104 206.492 739.379 207.079C739.658 207.665 739.797 208.371 739.797 209.197C739.797 210.022 739.659 210.73 739.384 211.32C739.109 211.906 738.731 212.359 738.251 212.677C737.77 212.992 737.222 213.149 736.605 213.149C736.141 213.149 735.762 213.071 735.467 212.915C735.175 212.76 734.946 212.577 734.781 212.369C734.615 212.16 734.487 211.974 734.398 211.812H734.273V213H732.822ZM734.278 209.182C734.278 209.719 734.356 210.189 734.512 210.594C734.668 210.998 734.893 211.315 735.188 211.543C735.483 211.769 735.844 211.881 736.272 211.881C736.716 211.881 737.087 211.764 737.386 211.528C737.684 211.29 737.909 210.967 738.062 210.559C738.218 210.151 738.295 209.692 738.295 209.182C738.295 208.678 738.219 208.226 738.067 207.825C737.918 207.424 737.692 207.107 737.391 206.875C737.092 206.643 736.719 206.527 736.272 206.527C735.841 206.527 735.477 206.638 735.178 206.86C734.883 207.082 734.66 207.392 734.507 207.79C734.355 208.187 734.278 208.652 734.278 209.182ZM744.757 213.154C744.005 213.154 743.357 212.993 742.813 212.672C742.273 212.347 741.856 211.891 741.561 211.305C741.269 210.715 741.123 210.024 741.123 209.232C741.123 208.449 741.269 207.76 741.561 207.163C741.856 206.567 742.267 206.101 742.794 205.766C743.324 205.432 743.944 205.264 744.653 205.264C745.084 205.264 745.501 205.335 745.906 205.478C746.31 205.621 746.673 205.844 746.994 206.149C747.316 206.454 747.57 206.85 747.755 207.337C747.941 207.821 748.034 208.41 748.034 209.102V209.629H741.963V208.516H746.577C746.577 208.125 746.497 207.778 746.338 207.477C746.179 207.172 745.955 206.931 745.667 206.756C745.382 206.58 745.047 206.492 744.663 206.492C744.245 206.492 743.881 206.595 743.569 206.8C743.261 207.003 743.022 207.268 742.853 207.596C742.687 207.921 742.605 208.274 742.605 208.655V209.525C742.605 210.035 742.694 210.469 742.873 210.827C743.055 211.185 743.309 211.459 743.634 211.648C743.959 211.833 744.338 211.926 744.772 211.926C745.054 211.926 745.311 211.886 745.543 211.807C745.775 211.724 745.975 211.601 746.144 211.439C746.313 211.277 746.443 211.076 746.532 210.837L747.939 211.091C747.826 211.505 747.624 211.868 747.333 212.18C747.044 212.488 746.681 212.728 746.244 212.901C745.81 213.07 745.314 213.154 744.757 213.154ZM751.169 202.818V213H749.683V202.818H751.169Z" fill="white" fill-opacity="0.7"/>
<path d="M785.949 213V202.818H787.485V211.678H792.099V213H785.949ZM795.954 213.169C795.47 213.169 795.033 213.08 794.642 212.901C794.25 212.718 793.941 212.455 793.712 212.11C793.486 211.765 793.374 211.343 793.374 210.842C793.374 210.411 793.457 210.057 793.622 209.778C793.788 209.5 794.012 209.28 794.294 209.117C794.575 208.955 794.89 208.832 795.238 208.749C795.586 208.666 795.941 208.603 796.302 208.56C796.759 208.507 797.131 208.464 797.416 208.431C797.701 208.395 797.908 208.337 798.037 208.257C798.166 208.178 798.231 208.048 798.231 207.869V207.835C798.231 207.4 798.108 207.064 797.863 206.825C797.621 206.587 797.26 206.467 796.779 206.467C796.279 206.467 795.884 206.578 795.596 206.8C795.311 207.019 795.114 207.263 795.004 207.531L793.607 207.213C793.773 206.749 794.015 206.375 794.333 206.089C794.655 205.801 795.024 205.592 795.442 205.463C795.86 205.33 796.299 205.264 796.759 205.264C797.064 205.264 797.387 205.301 797.729 205.374C798.074 205.443 798.395 205.572 798.693 205.761C798.995 205.95 799.242 206.22 799.434 206.572C799.626 206.92 799.722 207.372 799.722 207.929V213H798.271V211.956H798.211C798.115 212.148 797.971 212.337 797.779 212.523C797.586 212.708 797.339 212.862 797.038 212.985C796.736 213.108 796.375 213.169 795.954 213.169ZM796.277 211.976C796.688 211.976 797.039 211.895 797.331 211.732C797.626 211.57 797.85 211.358 798.002 211.096C798.158 210.831 798.236 210.547 798.236 210.246V209.261C798.183 209.314 798.08 209.364 797.928 209.411C797.779 209.454 797.608 209.492 797.416 209.525C797.223 209.555 797.036 209.583 796.854 209.609C796.672 209.633 796.519 209.652 796.396 209.669C796.108 209.705 795.845 209.767 795.606 209.853C795.371 209.939 795.182 210.063 795.039 210.226C794.9 210.385 794.83 210.597 794.83 210.862C794.83 211.23 794.966 211.509 795.238 211.697C795.51 211.883 795.856 211.976 796.277 211.976ZM801.822 213V202.818H803.308V206.602H803.398C803.484 206.442 803.608 206.259 803.771 206.05C803.933 205.841 804.158 205.659 804.447 205.503C804.735 205.344 805.116 205.264 805.59 205.264C806.207 205.264 806.757 205.42 807.241 205.732C807.725 206.043 808.104 206.492 808.379 207.079C808.658 207.665 808.797 208.371 808.797 209.197C808.797 210.022 808.659 210.73 808.384 211.32C808.109 211.906 807.731 212.359 807.251 212.677C806.77 212.992 806.222 213.149 805.605 213.149C805.141 213.149 804.762 213.071 804.467 212.915C804.175 212.76 803.946 212.577 803.781 212.369C803.615 212.16 803.487 211.974 803.398 211.812H803.273V213H801.822ZM803.278 209.182C803.278 209.719 803.356 210.189 803.512 210.594C803.668 210.998 803.893 211.315 804.188 211.543C804.483 211.769 804.844 211.881 805.272 211.881C805.716 211.881 806.087 211.764 806.386 211.528C806.684 211.29 806.909 210.967 807.062 210.559C807.218 210.151 807.295 209.692 807.295 209.182C807.295 208.678 807.219 208.226 807.067 207.825C806.918 207.424 806.692 207.107 806.391 206.875C806.092 206.643 805.719 206.527 805.272 206.527C804.841 206.527 804.477 206.638 804.178 206.86C803.883 207.082 803.66 207.392 803.507 207.79C803.355 208.187 803.278 208.652 803.278 209.182ZM813.757 213.154C813.005 213.154 812.357 212.993 811.813 212.672C811.273 212.347 810.856 211.891 810.561 211.305C810.269 210.715 810.123 210.024 810.123 209.232C810.123 208.449 810.269 207.76 810.561 207.163C810.856 206.567 811.267 206.101 811.794 205.766C812.324 205.432 812.944 205.264 813.653 205.264C814.084 205.264 814.501 205.335 814.906 205.478C815.31 205.621 815.673 205.844 815.994 206.149C816.316 206.454 816.57 206.85 816.755 207.337C816.941 207.821 817.034 208.41 817.034 209.102V209.629H810.963V208.516H815.577C815.577 208.125 815.497 207.778 815.338 207.477C815.179 207.172 814.955 206.931 814.667 206.756C814.382 206.58 814.047 206.492 813.663 206.492C813.245 206.492 812.881 206.595 812.569 206.8C812.261 207.003 812.022 207.268 811.853 207.596C811.687 207.921 811.605 208.274 811.605 208.655V209.525C811.605 210.035 811.694 210.469 811.873 210.827C812.055 211.185 812.309 211.459 812.634 211.648C812.959 211.833 813.338 211.926 813.772 211.926C814.054 211.926 814.311 211.886 814.543 211.807C814.775 211.724 814.975 211.601 815.144 211.439C815.313 211.277 815.443 211.076 815.532 210.837L816.939 211.091C816.826 211.505 816.624 211.868 816.333 212.18C816.044 212.488 815.681 212.728 815.244 212.901C814.81 213.07 814.314 213.154 813.757 213.154ZM820.169 202.818V213H818.683V202.818H820.169Z" fill="white" fill-opacity="0.7"/>
<path d="M854.949 213V202.818H856.485V211.678H861.099V213H854.949ZM864.954 213.169C864.47 213.169 864.033 213.08 863.642 212.901C863.25 212.718 862.941 212.455 862.712 212.11C862.486 211.765 862.374 211.343 862.374 210.842C862.374 210.411 862.457 210.057 862.622 209.778C862.788 209.5 863.012 209.28 863.294 209.117C863.575 208.955 863.89 208.832 864.238 208.749C864.586 208.666 864.941 208.603 865.302 208.56C865.759 208.507 866.131 208.464 866.416 208.431C866.701 208.395 866.908 208.337 867.037 208.257C867.166 208.178 867.231 208.048 867.231 207.869V207.835C867.231 207.4 867.108 207.064 866.863 206.825C866.621 206.587 866.26 206.467 865.779 206.467C865.279 206.467 864.884 206.578 864.596 206.8C864.311 207.019 864.114 207.263 864.004 207.531L862.607 207.213C862.773 206.749 863.015 206.375 863.333 206.089C863.655 205.801 864.024 205.592 864.442 205.463C864.86 205.33 865.299 205.264 865.759 205.264C866.064 205.264 866.387 205.301 866.729 205.374C867.074 205.443 867.395 205.572 867.693 205.761C867.995 205.95 868.242 206.22 868.434 206.572C868.626 206.92 868.722 207.372 868.722 207.929V213H867.271V211.956H867.211C867.115 212.148 866.971 212.337 866.779 212.523C866.586 212.708 866.339 212.862 866.038 212.985C865.736 213.108 865.375 213.169 864.954 213.169ZM865.277 211.976C865.688 211.976 866.039 211.895 866.331 211.732C866.626 211.57 866.85 211.358 867.002 211.096C867.158 210.831 867.236 210.547 867.236 210.246V209.261C867.183 209.314 867.08 209.364 866.928 209.411C866.779 209.454 866.608 209.492 866.416 209.525C866.223 209.555 866.036 209.583 865.854 209.609C865.672 209.633 865.519 209.652 865.396 209.669C865.108 209.705 864.845 209.767 864.606 209.853C864.371 209.939 864.182 210.063 864.039 210.226C863.9 210.385 863.83 210.597 863.83 210.862C863.83 211.23 863.966 211.509 864.238 211.697C864.51 211.883 864.856 211.976 865.277 211.976ZM870.822 213V202.818H872.308V206.602H872.398C872.484 206.442 872.608 206.259 872.771 206.05C872.933 205.841 873.158 205.659 873.447 205.503C873.735 205.344 874.116 205.264 874.59 205.264C875.207 205.264 875.757 205.42 876.241 205.732C876.725 206.043 877.104 206.492 877.379 207.079C877.658 207.665 877.797 208.371 877.797 209.197C877.797 210.022 877.659 210.73 877.384 211.32C877.109 211.906 876.731 212.359 876.251 212.677C875.77 212.992 875.222 213.149 874.605 213.149C874.141 213.149 873.762 213.071 873.467 212.915C873.175 212.76 872.946 212.577 872.781 212.369C872.615 212.16 872.487 211.974 872.398 211.812H872.273V213H870.822ZM872.278 209.182C872.278 209.719 872.356 210.189 872.512 210.594C872.668 210.998 872.893 211.315 873.188 211.543C873.483 211.769 873.844 211.881 874.272 211.881C874.716 211.881 875.087 211.764 875.386 211.528C875.684 211.29 875.909 210.967 876.062 210.559C876.218 210.151 876.295 209.692 876.295 209.182C876.295 208.678 876.219 208.226 876.067 207.825C875.918 207.424 875.692 207.107 875.391 206.875C875.092 206.643 874.719 206.527 874.272 206.527C873.841 206.527 873.477 206.638 873.178 206.86C872.883 207.082 872.66 207.392 872.507 207.79C872.355 208.187 872.278 208.652 872.278 209.182ZM882.757 213.154C882.005 213.154 881.357 212.993 880.813 212.672C880.273 212.347 879.856 211.891 879.561 211.305C879.269 210.715 879.123 210.024 879.123 209.232C879.123 208.449 879.269 207.76 879.561 207.163C879.856 206.567 880.267 206.101 880.794 205.766C881.324 205.432 881.944 205.264 882.653 205.264C883.084 205.264 883.501 205.335 883.906 205.478C884.31 205.621 884.673 205.844 884.994 206.149C885.316 206.454 885.57 206.85 885.755 207.337C885.941 207.821 886.034 208.41 886.034 209.102V209.629H879.963V208.516H884.577C884.577 208.125 884.497 207.778 884.338 207.477C884.179 207.172 883.955 206.931 883.667 206.756C883.382 206.58 883.047 206.492 882.663 206.492C882.245 206.492 881.881 206.595 881.569 206.8C881.261 207.003 881.022 207.268 880.853 207.596C880.687 207.921 880.605 208.274 880.605 208.655V209.525C880.605 210.035 880.694 210.469 880.873 210.827C881.055 211.185 881.309 211.459 881.634 211.648C881.959 211.833 882.338 211.926 882.772 211.926C883.054 211.926 883.311 211.886 883.543 211.807C883.775 211.724 883.975 211.601 884.144 211.439C884.313 211.277 884.443 211.076 884.532 210.837L885.939 211.091C885.826 211.505 885.624 211.868 885.333 212.18C885.044 212.488 884.681 212.728 884.244 212.901C883.81 213.07 883.314 213.154 882.757 213.154ZM889.169 202.818V213H887.683V202.818H889.169Z" fill="white" fill-opacity="0.7"/>
</g>
<path d="M891.854 207.646L885.854 201.646C885.807 201.599 885.752 201.561 885.691 201.535C885.63 201.509 885.565 201.495 885.498 201.495C885.432 201.494 885.366 201.507 885.305 201.532C885.244 201.557 885.188 201.594 885.141 201.641C885.094 201.688 885.057 201.744 885.032 201.805C885.007 201.866 884.994 201.932 884.995 201.998C884.995 202.065 885.009 202.13 885.035 202.191C885.061 202.252 885.099 202.307 885.147 202.354L890.793 208L885.147 213.646C885.099 213.693 885.061 213.748 885.035 213.809C885.009 213.87 884.995 213.935 884.995 214.002C884.994 214.068 885.007 214.134 885.032 214.195C885.057 214.256 885.094 214.312 885.141 214.359C885.188 214.406 885.244 214.443 885.305 214.468C885.366 214.493 885.432 214.506 885.498 214.505C885.565 214.505 885.63 214.491 885.691 214.465C885.752 214.439 885.807 214.401 885.854 214.354L891.854 208.354C891.947 208.26 892 208.133 892 208C892 207.867 891.947 207.74 891.854 207.646Z" fill="white" fill-opacity="0.95"/>
</g>
<defs>
<clipPath id="clip0_2110_44856">
<rect width="659" height="32" fill="white" transform="translate(245.5 120)"/>
</clipPath>
<clipPath id="clip1_2110_44856">
<rect width="571" height="32" fill="white" transform="translate(289.5 120)"/>
</clipPath>
<clipPath id="clip2_2110_44856">
<rect width="659" height="32" fill="white" transform="translate(245.5 192)"/>
</clipPath>
<clipPath id="clip3_2110_44856">
<rect width="571" height="32" fill="white" transform="translate(289.5 192)"/>
</clipPath>
</defs>
</svg>
