<svg width="571" height="263" viewBox="0 0 571 263" fill="none" xmlns="http://www.w3.org/2000/svg">
<rect x="8" width="555" height="263" rx="16" fill="#1A1A1A"/>
<path d="M523 25.9996C520.232 25.9996 517.525 26.8207 515.223 28.3591C512.92 29.8974 511.126 32.0839 510.066 34.6421C509.007 37.2002 508.729 40.0152 509.27 42.7309C509.81 45.4466 511.143 47.9412 513.101 49.8991C515.059 51.8571 517.553 53.1904 520.269 53.7306C522.985 54.2708 525.8 53.9936 528.358 52.9339C530.916 51.8743 533.103 50.0799 534.641 47.7776C536.179 45.4753 537 42.7686 537 39.9996C536.996 36.2879 535.52 32.7293 532.895 30.1047C530.271 27.4801 526.712 26.0038 523 25.9996ZM532.155 47.7404L515.26 30.8449C517.555 28.8984 520.498 27.8864 523.505 28.0097C526.511 28.133 529.362 29.3827 531.49 31.5106C533.617 33.6384 534.867 36.4888 534.99 39.4955C535.114 42.5022 534.102 45.4454 532.155 47.7404ZM513.846 32.2589L530.741 49.1544C528.446 51.1008 525.503 52.1129 522.496 51.9895C519.49 51.8662 516.639 50.6165 514.512 48.4886C512.384 46.3608 511.134 43.5105 511.011 40.5038C510.887 37.4971 511.899 34.5539 513.846 32.2589Z" fill="#FC8B98"/>
<g clip-path="url(#clip0_2110_63108)">
<path d="M13.7072 129L19.3537 123.354C19.4451 123.259 19.4958 123.133 19.4948 123.002C19.4938 122.87 19.4412 122.745 19.3484 122.652C19.2555 122.559 19.1299 122.507 18.9986 122.506C18.8673 122.505 18.7409 122.555 18.6467 122.647L12.6467 128.647C12.5529 128.74 12.5002 128.868 12.5002 129C12.5002 129.133 12.5529 129.26 12.6467 129.354L18.6467 135.354C18.6928 135.401 18.748 135.439 18.809 135.465C18.8699 135.491 18.9355 135.505 19.0018 135.505C19.0681 135.506 19.1338 135.493 19.1951 135.468C19.2565 135.443 19.3122 135.406 19.3591 135.359C19.406 135.312 19.4431 135.256 19.4682 135.195C19.4933 135.134 19.506 135.068 19.5055 135.002C19.505 134.935 19.4913 134.87 19.4653 134.809C19.4392 134.748 19.4013 134.693 19.3537 134.647L13.7072 129Z" fill="white" fill-opacity="0.95"/>
<g clip-path="url(#clip1_2110_63108)">
<rect x="44" y="113" width="93" height="32" rx="16" fill="white" fill-opacity="0.2"/>
<path d="M57.5551 123.818H59.4195L62.661 131.733H62.7803L66.0218 123.818H67.8861V134H66.4244V126.632H66.33L63.3271 133.985H62.1141L59.1112 126.627H59.0168V134H57.5551V123.818ZM73.2915 134.154C72.5391 134.154 71.8911 133.993 71.3476 133.672C70.8073 133.347 70.3897 132.891 70.0947 132.305C69.8031 131.715 69.6572 131.024 69.6572 130.232C69.6572 129.449 69.8031 128.76 70.0947 128.163C70.3897 127.567 70.8007 127.101 71.3277 126.766C71.858 126.432 72.4778 126.264 73.1871 126.264C73.6179 126.264 74.0355 126.335 74.4399 126.478C74.8443 126.621 75.2072 126.844 75.5287 127.149C75.8502 127.454 76.1037 127.85 76.2893 128.337C76.4749 128.821 76.5677 129.41 76.5677 130.102V130.629H70.4974V129.516H75.1111C75.1111 129.125 75.0315 128.778 74.8724 128.477C74.7133 128.172 74.4896 127.931 74.2013 127.756C73.9162 127.58 73.5815 127.492 73.197 127.492C72.7794 127.492 72.4148 127.595 72.1032 127.8C71.795 128.003 71.5564 128.268 71.3873 128.596C71.2216 128.921 71.1388 129.274 71.1388 129.655V130.525C71.1388 131.035 71.2282 131.469 71.4072 131.827C71.5895 132.185 71.8431 132.459 72.1679 132.648C72.4927 132.833 72.8722 132.926 73.3064 132.926C73.5881 132.926 73.845 132.886 74.077 132.807C74.309 132.724 74.5095 132.601 74.6785 132.439C74.8476 132.277 74.9768 132.076 75.0663 131.837L76.4733 132.091C76.3606 132.505 76.1584 132.868 75.8667 133.18C75.5784 133.488 75.2155 133.728 74.778 133.901C74.3438 134.07 73.8483 134.154 73.2915 134.154ZM83.9394 128.228L82.5921 128.467C82.5357 128.294 82.4462 128.13 82.3236 127.974C82.2043 127.819 82.0419 127.691 81.8364 127.592C81.6309 127.492 81.374 127.442 81.0658 127.442C80.6449 127.442 80.2935 127.537 80.0118 127.726C79.7301 127.911 79.5892 128.152 79.5892 128.447C79.5892 128.702 79.6837 128.907 79.8726 129.063C80.0615 129.219 80.3664 129.347 80.7874 129.446L82.0004 129.724C82.7031 129.887 83.2268 130.137 83.5715 130.475C83.9162 130.813 84.0885 131.252 84.0885 131.793C84.0885 132.25 83.9559 132.658 83.6908 133.016C83.4289 133.37 83.0627 133.649 82.5921 133.851C82.1247 134.053 81.5828 134.154 80.9664 134.154C80.1112 134.154 79.4136 133.972 78.8733 133.607C78.3331 133.239 78.0016 132.717 77.879 132.041L79.3158 131.822C79.4053 132.197 79.5892 132.48 79.8676 132.673C80.146 132.862 80.509 132.956 80.9564 132.956C81.4436 132.956 81.8331 132.855 82.1247 132.653C82.4164 132.447 82.5622 132.197 82.5622 131.902C82.5622 131.663 82.4727 131.463 82.2938 131.3C82.1181 131.138 81.848 131.015 81.4834 130.933L80.1908 130.649C79.4782 130.487 78.9512 130.228 78.6098 129.874C78.2718 129.519 78.1027 129.07 78.1027 128.526C78.1027 128.076 78.2287 127.681 78.4806 127.343C78.7325 127.005 79.0805 126.741 79.5246 126.553C79.9687 126.36 80.4775 126.264 81.0509 126.264C81.8762 126.264 82.5258 126.443 82.9997 126.801C83.4737 127.156 83.7869 127.631 83.9394 128.228ZM91.4452 128.228L90.0979 128.467C90.0416 128.294 89.9521 128.13 89.8295 127.974C89.7101 127.819 89.5477 127.691 89.3422 127.592C89.1367 127.492 88.8799 127.442 88.5716 127.442C88.1507 127.442 87.7994 127.537 87.5177 127.726C87.2359 127.911 87.0951 128.152 87.0951 128.447C87.0951 128.702 87.1895 128.907 87.3785 129.063C87.5674 129.219 87.8723 129.347 88.2932 129.446L89.5063 129.724C90.209 129.887 90.7326 130.137 91.0773 130.475C91.422 130.813 91.5944 131.252 91.5944 131.793C91.5944 132.25 91.4618 132.658 91.1966 133.016C90.9348 133.37 90.5686 133.649 90.0979 133.851C89.6306 134.053 89.0887 134.154 88.4722 134.154C87.6171 134.154 86.9194 133.972 86.3792 133.607C85.8389 133.239 85.5075 132.717 85.3849 132.041L86.8216 131.822C86.9111 132.197 87.0951 132.48 87.3735 132.673C87.6519 132.862 88.0148 132.956 88.4623 132.956C88.9495 132.956 89.3389 132.855 89.6306 132.653C89.9223 132.447 90.0681 132.197 90.0681 131.902C90.0681 131.663 89.9786 131.463 89.7996 131.3C89.624 131.138 89.3538 131.015 88.9893 130.933L87.6966 130.649C86.984 130.487 86.4571 130.228 86.1157 129.874C85.7776 129.519 85.6086 129.07 85.6086 128.526C85.6086 128.076 85.7345 127.681 85.9864 127.343C86.2383 127.005 86.5863 126.741 87.0305 126.553C87.4746 126.36 87.9833 126.264 88.5567 126.264C89.382 126.264 90.0316 126.443 90.5056 126.801C90.9796 127.156 91.2928 127.631 91.4452 128.228ZM95.4511 134.169C94.9672 134.169 94.5297 134.08 94.1386 133.901C93.7475 133.718 93.4376 133.455 93.2089 133.11C92.9835 132.765 92.8708 132.343 92.8708 131.842C92.8708 131.411 92.9537 131.057 93.1194 130.778C93.2851 130.5 93.5088 130.28 93.7906 130.117C94.0723 129.955 94.3872 129.832 94.7352 129.749C95.0832 129.666 95.4378 129.603 95.7991 129.56C96.2565 129.507 96.6277 129.464 96.9127 129.431C97.1978 129.395 97.4049 129.337 97.5342 129.257C97.6634 129.178 97.7281 129.048 97.7281 128.869V128.835C97.7281 128.4 97.6054 128.064 97.3602 127.825C97.1182 127.587 96.757 127.467 96.2764 127.467C95.7759 127.467 95.3815 127.578 95.0931 127.8C94.8081 128.019 94.6109 128.263 94.5015 128.531L93.1045 128.213C93.2702 127.749 93.5122 127.375 93.8303 127.089C94.1518 126.801 94.5214 126.592 94.939 126.463C95.3566 126.33 95.7958 126.264 96.2565 126.264C96.5614 126.264 96.8846 126.301 97.2259 126.374C97.5706 126.443 97.8921 126.572 98.1904 126.761C98.492 126.95 98.739 127.22 98.9312 127.572C99.1234 127.92 99.2195 128.372 99.2195 128.929V134H97.7678V132.956H97.7082C97.6121 133.148 97.4679 133.337 97.2757 133.523C97.0834 133.708 96.8365 133.862 96.5349 133.985C96.2333 134.108 95.872 134.169 95.4511 134.169ZM95.7742 132.976C96.1852 132.976 96.5365 132.895 96.8282 132.732C97.1232 132.57 97.3469 132.358 97.4994 132.096C97.6552 131.831 97.733 131.547 97.733 131.246V130.261C97.68 130.314 97.5773 130.364 97.4248 130.411C97.2757 130.454 97.105 130.492 96.9127 130.525C96.7205 130.555 96.5332 130.583 96.3509 130.609C96.1686 130.633 96.0162 130.652 95.8936 130.669C95.6052 130.705 95.3417 130.767 95.1031 130.853C94.8677 130.939 94.6788 131.063 94.5363 131.226C94.3971 131.385 94.3275 131.597 94.3275 131.862C94.3275 132.23 94.4634 132.509 94.7352 132.697C95.007 132.883 95.3533 132.976 95.7742 132.976ZM104.401 137.023C103.795 137.023 103.273 136.943 102.835 136.784C102.401 136.625 102.046 136.415 101.771 136.153C101.496 135.891 101.291 135.604 101.155 135.293L102.432 134.766C102.522 134.911 102.641 135.066 102.79 135.228C102.943 135.394 103.148 135.535 103.407 135.651C103.669 135.767 104.005 135.825 104.416 135.825C104.98 135.825 105.445 135.687 105.813 135.412C106.181 135.14 106.365 134.706 106.365 134.109V132.608H106.271C106.181 132.77 106.052 132.951 105.883 133.15C105.717 133.349 105.488 133.521 105.197 133.667C104.905 133.813 104.525 133.886 104.058 133.886C103.455 133.886 102.911 133.745 102.427 133.463C101.947 133.178 101.566 132.759 101.284 132.205C101.006 131.648 100.866 130.964 100.866 130.152C100.866 129.34 101.004 128.644 101.279 128.064C101.557 127.484 101.939 127.04 102.422 126.732C102.906 126.42 103.455 126.264 104.068 126.264C104.542 126.264 104.925 126.344 105.217 126.503C105.508 126.659 105.735 126.841 105.898 127.05C106.063 127.259 106.191 127.442 106.28 127.602H106.39V126.364H107.847V134.169C107.847 134.825 107.694 135.364 107.389 135.785C107.084 136.206 106.672 136.517 106.151 136.719C105.634 136.922 105.051 137.023 104.401 137.023ZM104.386 132.653C104.814 132.653 105.175 132.553 105.47 132.354C105.768 132.152 105.994 131.864 106.146 131.489C106.302 131.112 106.38 130.659 106.38 130.132C106.38 129.618 106.304 129.166 106.151 128.775C105.999 128.384 105.775 128.079 105.48 127.86C105.185 127.638 104.82 127.527 104.386 127.527C103.939 127.527 103.566 127.643 103.268 127.875C102.969 128.104 102.744 128.415 102.592 128.81C102.442 129.204 102.368 129.645 102.368 130.132C102.368 130.633 102.444 131.072 102.597 131.45C102.749 131.827 102.974 132.122 103.273 132.335C103.574 132.547 103.945 132.653 104.386 132.653ZM113.131 134.154C112.379 134.154 111.731 133.993 111.187 133.672C110.647 133.347 110.23 132.891 109.935 132.305C109.643 131.715 109.497 131.024 109.497 130.232C109.497 129.449 109.643 128.76 109.935 128.163C110.23 127.567 110.641 127.101 111.168 126.766C111.698 126.432 112.318 126.264 113.027 126.264C113.458 126.264 113.875 126.335 114.28 126.478C114.684 126.621 115.047 126.844 115.369 127.149C115.69 127.454 115.944 127.85 116.129 128.337C116.315 128.821 116.408 129.41 116.408 130.102V130.629H110.337V129.516H114.951C114.951 129.125 114.871 128.778 114.712 128.477C114.553 128.172 114.329 127.931 114.041 127.756C113.756 127.58 113.421 127.492 113.037 127.492C112.619 127.492 112.255 127.595 111.943 127.8C111.635 128.003 111.396 128.268 111.227 128.596C111.061 128.921 110.979 129.274 110.979 129.655V130.525C110.979 131.035 111.068 131.469 111.247 131.827C111.429 132.185 111.683 132.459 112.008 132.648C112.333 132.833 112.712 132.926 113.146 132.926C113.428 132.926 113.685 132.886 113.917 132.807C114.149 132.724 114.349 132.601 114.518 132.439C114.687 132.277 114.817 132.076 114.906 131.837L116.313 132.091C116.2 132.505 115.998 132.868 115.707 133.18C115.418 133.488 115.055 133.728 114.618 133.901C114.184 134.07 113.688 134.154 113.131 134.154ZM123.779 128.228L122.432 128.467C122.376 128.294 122.286 128.13 122.163 127.974C122.044 127.819 121.882 127.691 121.676 127.592C121.471 127.492 121.214 127.442 120.906 127.442C120.485 127.442 120.133 127.537 119.852 127.726C119.57 127.911 119.429 128.152 119.429 128.447C119.429 128.702 119.524 128.907 119.712 129.063C119.901 129.219 120.206 129.347 120.627 129.446L121.84 129.724C122.543 129.887 123.067 130.137 123.411 130.475C123.756 130.813 123.928 131.252 123.928 131.793C123.928 132.25 123.796 132.658 123.531 133.016C123.269 133.37 122.903 133.649 122.432 133.851C121.965 134.053 121.423 134.154 120.806 134.154C119.951 134.154 119.253 133.972 118.713 133.607C118.173 133.239 117.841 132.717 117.719 132.041L119.156 131.822C119.245 132.197 119.429 132.48 119.707 132.673C119.986 132.862 120.349 132.956 120.796 132.956C121.283 132.956 121.673 132.855 121.965 132.653C122.256 132.447 122.402 132.197 122.402 131.902C122.402 131.663 122.313 131.463 122.134 131.3C121.958 131.138 121.688 131.015 121.323 130.933L120.031 130.649C119.318 130.487 118.791 130.228 118.45 129.874C118.112 129.519 117.943 129.07 117.943 128.526C117.943 128.076 118.069 127.681 118.32 127.343C118.572 127.005 118.92 126.741 119.364 126.553C119.809 126.36 120.317 126.264 120.891 126.264C121.716 126.264 122.366 126.443 122.84 126.801C123.314 127.156 123.627 127.631 123.779 128.228Z" fill="white" fill-opacity="0.95"/>
<path d="M158.191 134V123.818H161.82C162.612 123.818 163.269 123.962 163.789 124.251C164.309 124.539 164.699 124.933 164.957 125.434C165.216 125.931 165.345 126.491 165.345 127.114C165.345 127.741 165.214 128.304 164.952 128.805C164.694 129.302 164.303 129.696 163.779 129.988C163.259 130.276 162.604 130.42 161.815 130.42H159.319V129.118H161.676C162.176 129.118 162.582 129.032 162.894 128.859C163.206 128.684 163.434 128.445 163.58 128.143C163.726 127.842 163.799 127.499 163.799 127.114C163.799 126.73 163.726 126.388 163.58 126.09C163.434 125.792 163.204 125.558 162.889 125.389C162.577 125.22 162.166 125.136 161.656 125.136H159.727V134H158.191ZM170.222 134.154C169.47 134.154 168.822 133.993 168.278 133.672C167.738 133.347 167.32 132.891 167.025 132.305C166.734 131.715 166.588 131.024 166.588 130.232C166.588 129.449 166.734 128.76 167.025 128.163C167.32 127.567 167.731 127.101 168.258 126.766C168.789 126.432 169.408 126.264 170.118 126.264C170.549 126.264 170.966 126.335 171.371 126.478C171.775 126.621 172.138 126.844 172.459 127.149C172.781 127.454 173.034 127.85 173.22 128.337C173.406 128.821 173.498 129.41 173.498 130.102V130.629H167.428V129.516H172.042C172.042 129.125 171.962 128.778 171.803 128.477C171.644 128.172 171.42 127.931 171.132 127.756C170.847 127.58 170.512 127.492 170.128 127.492C169.71 127.492 169.345 127.595 169.034 127.8C168.726 128.003 168.487 128.268 168.318 128.596C168.152 128.921 168.069 129.274 168.069 129.655V130.525C168.069 131.035 168.159 131.469 168.338 131.827C168.52 132.185 168.774 132.459 169.099 132.648C169.423 132.833 169.803 132.926 170.237 132.926C170.519 132.926 170.776 132.886 171.008 132.807C171.24 132.724 171.44 132.601 171.609 132.439C171.778 132.277 171.907 132.076 171.997 131.837L173.404 132.091C173.291 132.505 173.089 132.868 172.797 133.18C172.509 133.488 172.146 133.728 171.709 133.901C171.274 134.07 170.779 134.154 170.222 134.154ZM178.364 134.154C177.648 134.154 177.024 133.99 176.49 133.662C175.956 133.334 175.542 132.875 175.247 132.285C174.952 131.695 174.805 131.005 174.805 130.217C174.805 129.424 174.952 128.732 175.247 128.138C175.542 127.545 175.956 127.085 176.49 126.756C177.024 126.428 177.648 126.264 178.364 126.264C179.08 126.264 179.705 126.428 180.239 126.756C180.772 127.085 181.187 127.545 181.482 128.138C181.777 128.732 181.924 129.424 181.924 130.217C181.924 131.005 181.777 131.695 181.482 132.285C181.187 132.875 180.772 133.334 180.239 133.662C179.705 133.99 179.08 134.154 178.364 134.154ZM178.369 132.906C178.833 132.906 179.218 132.784 179.523 132.538C179.828 132.293 180.053 131.967 180.199 131.559C180.348 131.151 180.423 130.702 180.423 130.212C180.423 129.724 180.348 129.277 180.199 128.869C180.053 128.458 179.828 128.129 179.523 127.88C179.218 127.631 178.833 127.507 178.369 127.507C177.902 127.507 177.514 127.631 177.206 127.88C176.901 128.129 176.674 128.458 176.525 128.869C176.379 129.277 176.306 129.724 176.306 130.212C176.306 130.702 176.379 131.151 176.525 131.559C176.674 131.967 176.901 132.293 177.206 132.538C177.514 132.784 177.902 132.906 178.369 132.906ZM183.583 136.864V126.364H185.035V127.602H185.159C185.245 127.442 185.37 127.259 185.532 127.05C185.695 126.841 185.92 126.659 186.208 126.503C186.497 126.344 186.878 126.264 187.352 126.264C187.968 126.264 188.518 126.42 189.002 126.732C189.486 127.043 189.866 127.492 190.141 128.079C190.419 128.665 190.558 129.371 190.558 130.197C190.558 131.022 190.421 131.73 190.146 132.32C189.871 132.906 189.493 133.359 189.012 133.677C188.532 133.992 187.983 134.149 187.367 134.149C186.903 134.149 186.523 134.071 186.228 133.915C185.936 133.76 185.708 133.577 185.542 133.369C185.376 133.16 185.249 132.974 185.159 132.812H185.07V136.864H183.583ZM185.04 130.182C185.04 130.719 185.118 131.189 185.274 131.594C185.429 131.998 185.655 132.315 185.95 132.543C186.245 132.769 186.606 132.881 187.034 132.881C187.478 132.881 187.849 132.764 188.147 132.528C188.445 132.29 188.671 131.967 188.823 131.559C188.979 131.151 189.057 130.692 189.057 130.182C189.057 129.678 188.981 129.226 188.828 128.825C188.679 128.424 188.454 128.107 188.152 127.875C187.854 127.643 187.481 127.527 187.034 127.527C186.603 127.527 186.238 127.638 185.94 127.86C185.645 128.082 185.421 128.392 185.269 128.79C185.116 129.187 185.04 129.652 185.04 130.182ZM193.71 123.818V134H192.224V123.818H193.71ZM199.001 134.154C198.249 134.154 197.601 133.993 197.058 133.672C196.517 133.347 196.1 132.891 195.805 132.305C195.513 131.715 195.367 131.024 195.367 130.232C195.367 129.449 195.513 128.76 195.805 128.163C196.1 127.567 196.511 127.101 197.038 126.766C197.568 126.432 198.188 126.264 198.897 126.264C199.328 126.264 199.746 126.335 200.15 126.478C200.554 126.621 200.917 126.844 201.239 127.149C201.56 127.454 201.814 127.85 201.999 128.337C202.185 128.821 202.278 129.41 202.278 130.102V130.629H196.207V129.516H200.821C200.821 129.125 200.741 128.778 200.582 128.477C200.423 128.172 200.2 127.931 199.911 127.756C199.626 127.58 199.291 127.492 198.907 127.492C198.489 127.492 198.125 127.595 197.813 127.8C197.505 128.003 197.266 128.268 197.097 128.596C196.932 128.921 196.849 129.274 196.849 129.655V130.525C196.849 131.035 196.938 131.469 197.117 131.827C197.299 132.185 197.553 132.459 197.878 132.648C198.203 132.833 198.582 132.926 199.016 132.926C199.298 132.926 199.555 132.886 199.787 132.807C200.019 132.724 200.219 132.601 200.388 132.439C200.558 132.277 200.687 132.076 200.776 131.837L202.183 132.091C202.071 132.505 201.868 132.868 201.577 133.18C201.288 133.488 200.925 133.728 200.488 133.901C200.054 134.07 199.558 134.154 199.001 134.154Z" fill="white" fill-opacity="0.7"/>
<g clip-path="url(#clip2_2110_63108)">
<path d="M247.882 122.7C248.2 122.831 248.489 123.024 248.732 123.268C249.223 123.76 249.499 124.426 249.499 125.121C249.499 125.816 249.223 126.483 248.732 126.975L240.5 135.207C240.407 135.3 240.297 135.374 240.176 135.424C240.054 135.475 239.924 135.5 239.793 135.5H237.5C237.235 135.5 236.981 135.394 236.793 135.207C236.606 135.019 236.5 134.765 236.5 134.5V132.207C236.5 132.076 236.525 131.945 236.576 131.824C236.626 131.703 236.7 131.593 236.793 131.5L245.025 123.268C245.269 123.024 245.558 122.831 245.876 122.7C246.194 122.568 246.534 122.5 246.879 122.5C247.223 122.5 247.564 122.568 247.882 122.7ZM239.793 134.5L248.025 126.268C248.178 126.118 248.299 125.939 248.382 125.742C248.466 125.544 248.509 125.333 248.51 125.119C248.511 124.904 248.469 124.692 248.388 124.494C248.306 124.296 248.186 124.116 248.035 123.965C247.884 123.814 247.704 123.694 247.506 123.612C247.308 123.531 247.096 123.489 246.882 123.49C246.667 123.491 246.456 123.534 246.258 123.618C246.061 123.701 245.882 123.822 245.732 123.975L237.5 132.207V134.5H239.793ZM242.5 123C242.5 122.724 242.276 122.5 242 122.5H237C236.724 122.5 236.5 122.724 236.5 123C236.5 123.276 236.724 123.5 237 123.5H242C242.276 123.5 242.5 123.276 242.5 123ZM237 124.5H240C240.276 124.5 240.5 124.724 240.5 125C240.5 125.276 240.276 125.5 240 125.5H237C236.724 125.5 236.5 125.276 236.5 125C236.5 124.724 236.724 124.5 237 124.5ZM237 126.5H238C238.276 126.5 238.5 126.724 238.5 127C238.5 127.276 238.276 127.5 238 127.5H237C236.724 127.5 236.5 127.276 236.5 127C236.5 126.724 236.724 126.5 237 126.5Z" fill="white" fill-opacity="0.95"/>
<path d="M269.066 117.129H267.515C267.456 116.798 267.345 116.506 267.182 116.254C267.02 116.002 266.821 115.789 266.586 115.613C266.35 115.437 266.087 115.305 265.795 115.215C265.507 115.126 265.2 115.081 264.875 115.081C264.289 115.081 263.763 115.228 263.299 115.523C262.839 115.818 262.474 116.251 262.206 116.821C261.941 117.391 261.808 118.087 261.808 118.909C261.808 119.738 261.941 120.437 262.206 121.007C262.474 121.577 262.84 122.008 263.304 122.3C263.768 122.591 264.29 122.737 264.87 122.737C265.192 122.737 265.497 122.694 265.785 122.608C266.077 122.518 266.34 122.388 266.576 122.215C266.811 122.043 267.01 121.832 267.172 121.584C267.338 121.332 267.452 121.044 267.515 120.719L269.066 120.724C268.984 121.224 268.823 121.685 268.584 122.106C268.349 122.523 268.046 122.885 267.674 123.19C267.307 123.491 266.886 123.725 266.412 123.891C265.938 124.056 265.421 124.139 264.861 124.139C263.979 124.139 263.193 123.93 262.504 123.513C261.815 123.092 261.271 122.49 260.873 121.708C260.479 120.926 260.282 119.993 260.282 118.909C260.282 117.822 260.481 116.889 260.878 116.11C261.276 115.328 261.82 114.728 262.509 114.31C263.198 113.889 263.982 113.679 264.861 113.679C265.401 113.679 265.905 113.757 266.372 113.913C266.843 114.065 267.265 114.29 267.64 114.589C268.014 114.884 268.324 115.245 268.569 115.673C268.815 116.097 268.98 116.582 269.066 117.129ZM274.002 124.154C273.286 124.154 272.661 123.99 272.128 123.662C271.594 123.334 271.18 122.875 270.885 122.285C270.59 121.695 270.442 121.005 270.442 120.217C270.442 119.424 270.59 118.732 270.885 118.138C271.18 117.545 271.594 117.085 272.128 116.756C272.661 116.428 273.286 116.264 274.002 116.264C274.718 116.264 275.343 116.428 275.876 116.756C276.41 117.085 276.824 117.545 277.119 118.138C277.414 118.732 277.562 119.424 277.562 120.217C277.562 121.005 277.414 121.695 277.119 122.285C276.824 122.875 276.41 123.334 275.876 123.662C275.343 123.99 274.718 124.154 274.002 124.154ZM274.007 122.906C274.471 122.906 274.855 122.784 275.16 122.538C275.465 122.293 275.691 121.967 275.837 121.559C275.986 121.151 276.06 120.702 276.06 120.212C276.06 119.724 275.986 119.277 275.837 118.869C275.691 118.458 275.465 118.129 275.16 117.88C274.855 117.631 274.471 117.507 274.007 117.507C273.54 117.507 273.152 117.631 272.844 117.88C272.539 118.129 272.312 118.458 272.163 118.869C272.017 119.277 271.944 119.724 271.944 120.212C271.944 120.702 272.017 121.151 272.163 121.559C272.312 121.967 272.539 122.293 272.844 122.538C273.152 122.784 273.54 122.906 274.007 122.906ZM280.707 119.466V124H279.221V116.364H280.648V117.607H280.742C280.918 117.202 281.193 116.877 281.568 116.632C281.945 116.387 282.421 116.264 282.994 116.264C283.515 116.264 283.97 116.374 284.362 116.592C284.753 116.808 285.056 117.129 285.271 117.557C285.487 117.984 285.595 118.513 285.595 119.143V124H284.108V119.322C284.108 118.768 283.964 118.336 283.676 118.024C283.387 117.709 282.991 117.552 282.487 117.552C282.143 117.552 281.836 117.626 281.568 117.776C281.302 117.925 281.092 118.143 280.936 118.432C280.784 118.717 280.707 119.062 280.707 119.466ZM291.153 116.364V117.557H286.982V116.364H291.153ZM288.1 114.534H289.587V121.758C289.587 122.046 289.63 122.263 289.716 122.409C289.802 122.552 289.913 122.649 290.049 122.702C290.188 122.752 290.339 122.777 290.502 122.777C290.621 122.777 290.725 122.769 290.815 122.752C290.904 122.736 290.974 122.722 291.024 122.712L291.292 123.94C291.206 123.973 291.083 124.007 290.924 124.04C290.765 124.076 290.566 124.096 290.328 124.099C289.936 124.106 289.572 124.036 289.234 123.891C288.896 123.745 288.622 123.519 288.413 123.214C288.205 122.91 288.1 122.527 288.1 122.066V114.534ZM296.006 124.154C295.254 124.154 294.606 123.993 294.062 123.672C293.522 123.347 293.105 122.891 292.81 122.305C292.518 121.715 292.372 121.024 292.372 120.232C292.372 119.449 292.518 118.76 292.81 118.163C293.105 117.567 293.516 117.101 294.043 116.766C294.573 116.432 295.193 116.264 295.902 116.264C296.333 116.264 296.75 116.335 297.155 116.478C297.559 116.621 297.922 116.844 298.244 117.149C298.565 117.454 298.819 117.85 299.004 118.337C299.19 118.821 299.283 119.41 299.283 120.102V120.629H293.212V119.516H297.826C297.826 119.125 297.746 118.778 297.587 118.477C297.428 118.172 297.204 117.931 296.916 117.756C296.631 117.58 296.296 117.492 295.912 117.492C295.494 117.492 295.13 117.595 294.818 117.8C294.51 118.003 294.271 118.268 294.102 118.596C293.936 118.921 293.854 119.274 293.854 119.655V120.525C293.854 121.035 293.943 121.469 294.122 121.827C294.304 122.185 294.558 122.459 294.883 122.648C295.208 122.833 295.587 122.926 296.021 122.926C296.303 122.926 296.56 122.886 296.792 122.807C297.024 122.724 297.224 122.601 297.393 122.439C297.562 122.277 297.692 122.076 297.781 121.837L299.188 122.091C299.075 122.505 298.873 122.868 298.582 123.18C298.293 123.488 297.93 123.728 297.493 123.901C297.059 124.07 296.563 124.154 296.006 124.154ZM302.418 119.466V124H300.932V116.364H302.359V117.607H302.453C302.629 117.202 302.904 116.877 303.278 116.632C303.656 116.387 304.132 116.264 304.705 116.264C305.226 116.264 305.681 116.374 306.073 116.592C306.464 116.808 306.767 117.129 306.982 117.557C307.198 117.984 307.305 118.513 307.305 119.143V124H305.819V119.322C305.819 118.768 305.675 118.336 305.386 118.024C305.098 117.709 304.702 117.552 304.198 117.552C303.854 117.552 303.547 117.626 303.278 117.776C303.013 117.925 302.803 118.143 302.647 118.432C302.495 118.717 302.418 119.062 302.418 119.466ZM312.864 116.364V117.557H308.693V116.364H312.864ZM309.811 114.534H311.298V121.758C311.298 122.046 311.341 122.263 311.427 122.409C311.513 122.552 311.624 122.649 311.76 122.702C311.899 122.752 312.05 122.777 312.212 122.777C312.332 122.777 312.436 122.769 312.526 122.752C312.615 122.736 312.685 122.722 312.734 122.712L313.003 123.94C312.917 123.973 312.794 124.007 312.635 124.04C312.476 124.076 312.277 124.096 312.038 124.099C311.647 124.106 311.283 124.036 310.945 123.891C310.607 123.745 310.333 123.519 310.124 123.214C309.916 122.91 309.811 122.527 309.811 122.066V114.534ZM276.731 136.493C276.678 136.022 276.46 135.658 276.075 135.399C275.691 135.137 275.207 135.006 274.623 135.006C274.206 135.006 273.845 135.073 273.54 135.205C273.235 135.335 272.998 135.513 272.829 135.742C272.663 135.968 272.58 136.224 272.58 136.513C272.58 136.755 272.637 136.964 272.749 137.139C272.865 137.315 273.016 137.462 273.202 137.582C273.391 137.698 273.593 137.795 273.808 137.875C274.024 137.951 274.231 138.014 274.43 138.064L275.424 138.322C275.749 138.402 276.082 138.51 276.423 138.646C276.765 138.781 277.081 138.96 277.373 139.183C277.664 139.405 277.9 139.68 278.079 140.008C278.261 140.336 278.352 140.729 278.352 141.186C278.352 141.763 278.203 142.275 277.905 142.722C277.61 143.17 277.181 143.523 276.617 143.781C276.057 144.04 275.379 144.169 274.584 144.169C273.821 144.169 273.162 144.048 272.605 143.806C272.048 143.564 271.612 143.221 271.297 142.777C270.983 142.33 270.809 141.799 270.775 141.186H272.317C272.347 141.554 272.466 141.861 272.675 142.106C272.887 142.348 273.157 142.528 273.485 142.648C273.816 142.764 274.179 142.822 274.574 142.822C275.008 142.822 275.394 142.754 275.732 142.618C276.074 142.479 276.342 142.286 276.538 142.041C276.733 141.793 276.831 141.503 276.831 141.171C276.831 140.87 276.745 140.623 276.572 140.43C276.403 140.238 276.173 140.079 275.881 139.953C275.593 139.827 275.266 139.716 274.902 139.62L273.699 139.292C272.883 139.07 272.237 138.743 271.76 138.312C271.286 137.882 271.049 137.312 271.049 136.602C271.049 136.016 271.208 135.504 271.526 135.066C271.844 134.629 272.275 134.289 272.819 134.047C273.362 133.802 273.976 133.679 274.658 133.679C275.348 133.679 275.956 133.8 276.483 134.042C277.013 134.284 277.431 134.617 277.736 135.041C278.041 135.462 278.2 135.946 278.213 136.493H276.731ZM283.633 136.364V137.557H279.462V136.364H283.633ZM280.581 134.534H282.067V141.758C282.067 142.046 282.11 142.263 282.196 142.409C282.283 142.552 282.394 142.649 282.53 142.702C282.669 142.752 282.82 142.777 282.982 142.777C283.101 142.777 283.206 142.769 283.295 142.752C283.385 142.736 283.454 142.722 283.504 142.712L283.772 143.94C283.686 143.973 283.564 144.007 283.405 144.04C283.245 144.076 283.047 144.096 282.808 144.099C282.417 144.106 282.052 144.036 281.714 143.891C281.376 143.745 281.103 143.519 280.894 143.214C280.685 142.91 280.581 142.527 280.581 142.066V134.534ZM290.115 140.833V136.364H291.606V144H290.145V142.678H290.065C289.89 143.085 289.608 143.425 289.22 143.697C288.836 143.965 288.357 144.099 287.783 144.099C287.293 144.099 286.859 143.992 286.481 143.776C286.106 143.558 285.811 143.234 285.596 142.807C285.384 142.379 285.278 141.851 285.278 141.221V136.364H286.764V141.042C286.764 141.562 286.908 141.977 287.197 142.285C287.485 142.593 287.86 142.747 288.32 142.747C288.599 142.747 288.875 142.678 289.15 142.538C289.429 142.399 289.659 142.189 289.842 141.907C290.027 141.625 290.118 141.267 290.115 140.833ZM297.238 136.364V137.557H292.923V136.364H297.238ZM294.106 144V135.479C294.106 135.001 294.21 134.605 294.419 134.29C294.628 133.972 294.905 133.735 295.249 133.58C295.594 133.42 295.969 133.341 296.373 133.341C296.671 133.341 296.926 133.366 297.139 133.415C297.351 133.462 297.508 133.505 297.611 133.545L297.263 134.748C297.193 134.728 297.104 134.705 296.994 134.678C296.885 134.648 296.752 134.634 296.597 134.634C296.235 134.634 295.977 134.723 295.821 134.902C295.669 135.081 295.592 135.339 295.592 135.678V144H294.106ZM302.406 136.364V137.557H298.091V136.364H302.406ZM299.274 144V135.479C299.274 135.001 299.378 134.605 299.587 134.29C299.796 133.972 300.073 133.735 300.417 133.58C300.762 133.42 301.137 133.341 301.541 133.341C301.839 133.341 302.094 133.366 302.307 133.415C302.519 133.462 302.676 133.505 302.779 133.545L302.431 134.748C302.361 134.728 302.272 134.705 302.162 134.678C302.053 134.648 301.92 134.634 301.765 134.634C301.403 134.634 301.145 134.723 300.989 134.902C300.837 135.081 300.76 135.339 300.76 135.678V144H299.274Z" fill="white" fill-opacity="0.7"/>
</g>
<path d="M347.455 123.818H349.319L352.56 131.733H352.68L355.921 123.818H357.786V134H356.324V126.632H356.229L353.227 133.985H352.013L349.011 126.627H348.916V134H347.455V123.818ZM363.191 134.154C362.439 134.154 361.791 133.993 361.247 133.672C360.707 133.347 360.289 132.891 359.994 132.305C359.702 131.715 359.557 131.024 359.557 130.232C359.557 129.449 359.702 128.76 359.994 128.163C360.289 127.567 360.7 127.101 361.227 126.766C361.757 126.432 362.377 126.264 363.086 126.264C363.517 126.264 363.935 126.335 364.339 126.478C364.744 126.621 365.107 126.844 365.428 127.149C365.75 127.454 366.003 127.85 366.189 128.337C366.374 128.821 366.467 129.41 366.467 130.102V130.629H360.397V129.516H365.01C365.01 129.125 364.931 128.778 364.772 128.477C364.613 128.172 364.389 127.931 364.101 127.756C363.816 127.58 363.481 127.492 363.096 127.492C362.679 127.492 362.314 127.595 362.003 127.8C361.694 128.003 361.456 128.268 361.287 128.596C361.121 128.921 361.038 129.274 361.038 129.655V130.525C361.038 131.035 361.128 131.469 361.307 131.827C361.489 132.185 361.742 132.459 362.067 132.648C362.392 132.833 362.772 132.926 363.206 132.926C363.488 132.926 363.744 132.886 363.976 132.807C364.208 132.724 364.409 132.601 364.578 132.439C364.747 132.277 364.876 132.076 364.966 131.837L366.373 132.091C366.26 132.505 366.058 132.868 365.766 133.18C365.478 133.488 365.115 133.728 364.677 133.901C364.243 134.07 363.748 134.154 363.191 134.154ZM371.408 134.154C370.655 134.154 370.007 133.993 369.464 133.672C368.924 133.347 368.506 132.891 368.211 132.305C367.919 131.715 367.773 131.024 367.773 130.232C367.773 129.449 367.919 128.76 368.211 128.163C368.506 127.567 368.917 127.101 369.444 126.766C369.974 126.432 370.594 126.264 371.303 126.264C371.734 126.264 372.152 126.335 372.556 126.478C372.96 126.621 373.323 126.844 373.645 127.149C373.966 127.454 374.22 127.85 374.406 128.337C374.591 128.821 374.684 129.41 374.684 130.102V130.629H368.614V129.516H373.227C373.227 129.125 373.148 128.778 372.989 128.477C372.83 128.172 372.606 127.931 372.317 127.756C372.032 127.58 371.698 127.492 371.313 127.492C370.896 127.492 370.531 127.595 370.219 127.8C369.911 128.003 369.673 128.268 369.504 128.596C369.338 128.921 369.255 129.274 369.255 129.655V130.525C369.255 131.035 369.344 131.469 369.523 131.827C369.706 132.185 369.959 132.459 370.284 132.648C370.609 132.833 370.988 132.926 371.423 132.926C371.704 132.926 371.961 132.886 372.193 132.807C372.425 132.724 372.626 132.601 372.795 132.439C372.964 132.277 373.093 132.076 373.183 131.837L374.589 132.091C374.477 132.505 374.275 132.868 373.983 133.18C373.695 133.488 373.332 133.728 372.894 133.901C372.46 134.07 371.964 134.154 371.408 134.154ZM379.898 126.364V127.557H375.727V126.364H379.898ZM376.845 124.534H378.332V131.758C378.332 132.046 378.375 132.263 378.461 132.409C378.547 132.552 378.658 132.649 378.794 132.702C378.933 132.752 379.084 132.777 379.247 132.777C379.366 132.777 379.47 132.769 379.56 132.752C379.649 132.736 379.719 132.722 379.769 132.712L380.037 133.94C379.951 133.973 379.828 134.007 379.669 134.04C379.51 134.076 379.311 134.096 379.073 134.099C378.682 134.106 378.317 134.036 377.979 133.891C377.641 133.745 377.367 133.519 377.159 133.214C376.95 132.91 376.845 132.527 376.845 132.066V124.534ZM381.542 134V126.364H383.029V134H381.542ZM382.293 125.185C382.034 125.185 381.812 125.099 381.627 124.927C381.444 124.751 381.353 124.542 381.353 124.3C381.353 124.055 381.444 123.846 381.627 123.674C381.812 123.498 382.034 123.411 382.293 123.411C382.551 123.411 382.772 123.498 382.954 123.674C383.14 123.846 383.233 124.055 383.233 124.3C383.233 124.542 383.14 124.751 382.954 124.927C382.772 125.099 382.551 125.185 382.293 125.185ZM386.515 129.466V134H385.029V126.364H386.455V127.607H386.55C386.726 127.202 387.001 126.877 387.375 126.632C387.753 126.387 388.229 126.264 388.802 126.264C389.322 126.264 389.778 126.374 390.169 126.592C390.56 126.808 390.864 127.129 391.079 127.557C391.294 127.984 391.402 128.513 391.402 129.143V134H389.916V129.322C389.916 128.768 389.771 128.336 389.483 128.024C389.195 127.709 388.799 127.552 388.295 127.552C387.95 127.552 387.644 127.626 387.375 127.776C387.11 127.925 386.9 128.143 386.744 128.432C386.591 128.717 386.515 129.062 386.515 129.466ZM396.597 137.023C395.991 137.023 395.469 136.943 395.031 136.784C394.597 136.625 394.243 136.415 393.968 136.153C393.692 135.891 393.487 135.604 393.351 135.293L394.629 134.766C394.718 134.911 394.838 135.066 394.987 135.228C395.139 135.394 395.345 135.535 395.603 135.651C395.865 135.767 396.201 135.825 396.612 135.825C397.176 135.825 397.642 135.687 398.009 135.412C398.377 135.14 398.561 134.706 398.561 134.109V132.608H398.467C398.377 132.77 398.248 132.951 398.079 133.15C397.913 133.349 397.685 133.521 397.393 133.667C397.101 133.813 396.722 133.886 396.254 133.886C395.651 133.886 395.108 133.745 394.624 133.463C394.143 133.178 393.762 132.759 393.48 132.205C393.202 131.648 393.063 130.964 393.063 130.152C393.063 129.34 393.2 128.644 393.475 128.064C393.754 127.484 394.135 127.04 394.619 126.732C395.103 126.42 395.651 126.264 396.264 126.264C396.738 126.264 397.121 126.344 397.413 126.503C397.704 126.659 397.932 126.841 398.094 127.05C398.26 127.259 398.387 127.442 398.477 127.602H398.586V126.364H400.043V134.169C400.043 134.825 399.89 135.364 399.585 135.785C399.28 136.206 398.868 136.517 398.347 136.719C397.83 136.922 397.247 137.023 396.597 137.023ZM396.583 132.653C397.01 132.653 397.371 132.553 397.666 132.354C397.965 132.152 398.19 131.864 398.343 131.489C398.498 131.112 398.576 130.659 398.576 130.132C398.576 129.618 398.5 129.166 398.347 128.775C398.195 128.384 397.971 128.079 397.676 127.86C397.381 127.638 397.017 127.527 396.583 127.527C396.135 127.527 395.762 127.643 395.464 127.875C395.166 128.104 394.94 128.415 394.788 128.81C394.639 129.204 394.564 129.645 394.564 130.132C394.564 130.633 394.64 131.072 394.793 131.45C394.945 131.827 395.171 132.122 395.469 132.335C395.771 132.547 396.142 132.653 396.583 132.653ZM407.964 134.169C407.48 134.169 407.042 134.08 406.651 133.901C406.26 133.718 405.95 133.455 405.722 133.11C405.496 132.765 405.384 132.343 405.384 131.842C405.384 131.411 405.466 131.057 405.632 130.778C405.798 130.5 406.022 130.28 406.303 130.117C406.585 129.955 406.9 129.832 407.248 129.749C407.596 129.666 407.951 129.603 408.312 129.56C408.769 129.507 409.14 129.464 409.425 129.431C409.71 129.395 409.918 129.337 410.047 129.257C410.176 129.178 410.241 129.048 410.241 128.869V128.835C410.241 128.4 410.118 128.064 409.873 127.825C409.631 127.587 409.27 127.467 408.789 127.467C408.289 127.467 407.894 127.578 407.606 127.8C407.321 128.019 407.124 128.263 407.014 128.531L405.617 128.213C405.783 127.749 406.025 127.375 406.343 127.089C406.665 126.801 407.034 126.592 407.452 126.463C407.869 126.33 408.308 126.264 408.769 126.264C409.074 126.264 409.397 126.301 409.739 126.374C410.083 126.443 410.405 126.572 410.703 126.761C411.005 126.95 411.252 127.22 411.444 127.572C411.636 127.92 411.732 128.372 411.732 128.929V134H410.281V132.956H410.221C410.125 133.148 409.981 133.337 409.788 133.523C409.596 133.708 409.349 133.862 409.048 133.985C408.746 134.108 408.385 134.169 407.964 134.169ZM408.287 132.976C408.698 132.976 409.049 132.895 409.341 132.732C409.636 132.57 409.86 132.358 410.012 132.096C410.168 131.831 410.246 131.547 410.246 131.246V130.261C410.193 130.314 410.09 130.364 409.938 130.411C409.788 130.454 409.618 130.492 409.425 130.525C409.233 130.555 409.046 130.583 408.864 130.609C408.681 130.633 408.529 130.652 408.406 130.669C408.118 130.705 407.854 130.767 407.616 130.853C407.38 130.939 407.192 131.063 407.049 131.226C406.91 131.385 406.84 131.597 406.84 131.862C406.84 132.23 406.976 132.509 407.248 132.697C407.52 132.883 407.866 132.976 408.287 132.976ZM416.914 137.023C416.307 137.023 415.785 136.943 415.348 136.784C414.914 136.625 414.559 136.415 414.284 136.153C414.009 135.891 413.803 135.604 413.667 135.293L414.945 134.766C415.035 134.911 415.154 135.066 415.303 135.228C415.456 135.394 415.661 135.535 415.92 135.651C416.181 135.767 416.518 135.825 416.929 135.825C417.492 135.825 417.958 135.687 418.326 135.412C418.694 135.14 418.878 134.706 418.878 134.109V132.608H418.783C418.694 132.77 418.564 132.951 418.395 133.15C418.23 133.349 418.001 133.521 417.709 133.667C417.418 133.813 417.038 133.886 416.571 133.886C415.968 133.886 415.424 133.745 414.94 133.463C414.46 133.178 414.078 132.759 413.797 132.205C413.518 131.648 413.379 130.964 413.379 130.152C413.379 129.34 413.517 128.644 413.792 128.064C414.07 127.484 414.451 127.04 414.935 126.732C415.419 126.42 415.968 126.264 416.581 126.264C417.055 126.264 417.438 126.344 417.729 126.503C418.021 126.659 418.248 126.841 418.41 127.05C418.576 127.259 418.704 127.442 418.793 127.602H418.903V126.364H420.359V134.169C420.359 134.825 420.207 135.364 419.902 135.785C419.597 136.206 419.184 136.517 418.664 136.719C418.147 136.922 417.564 137.023 416.914 137.023ZM416.899 132.653C417.327 132.653 417.688 132.553 417.983 132.354C418.281 132.152 418.506 131.864 418.659 131.489C418.815 131.112 418.893 130.659 418.893 130.132C418.893 129.618 418.816 129.166 418.664 128.775C418.511 128.384 418.288 128.079 417.993 127.86C417.698 127.638 417.333 127.527 416.899 127.527C416.452 127.527 416.079 127.643 415.78 127.875C415.482 128.104 415.257 128.415 415.104 128.81C414.955 129.204 414.881 129.645 414.881 130.132C414.881 130.633 414.957 131.072 415.109 131.45C415.262 131.827 415.487 132.122 415.785 132.335C416.087 132.547 416.458 132.653 416.899 132.653ZM425.644 134.154C424.892 134.154 424.244 133.993 423.7 133.672C423.16 133.347 422.742 132.891 422.447 132.305C422.156 131.715 422.01 131.024 422.01 130.232C422.01 129.449 422.156 128.76 422.447 128.163C422.742 127.567 423.153 127.101 423.68 126.766C424.211 126.432 424.83 126.264 425.54 126.264C425.97 126.264 426.388 126.335 426.792 126.478C427.197 126.621 427.56 126.844 427.881 127.149C428.203 127.454 428.456 127.85 428.642 128.337C428.827 128.821 428.92 129.41 428.92 130.102V130.629H422.85V129.516H427.464C427.464 129.125 427.384 128.778 427.225 128.477C427.066 128.172 426.842 127.931 426.554 127.756C426.269 127.58 425.934 127.492 425.55 127.492C425.132 127.492 424.767 127.595 424.456 127.8C424.148 128.003 423.909 128.268 423.74 128.596C423.574 128.921 423.491 129.274 423.491 129.655V130.525C423.491 131.035 423.581 131.469 423.76 131.827C423.942 132.185 424.196 132.459 424.52 132.648C424.845 132.833 425.225 132.926 425.659 132.926C425.941 132.926 426.198 132.886 426.43 132.807C426.662 132.724 426.862 132.601 427.031 132.439C427.2 132.277 427.329 132.076 427.419 131.837L428.826 132.091C428.713 132.505 428.511 132.868 428.219 133.18C427.931 133.488 427.568 133.728 427.131 133.901C426.696 134.07 426.201 134.154 425.644 134.154ZM432.056 129.466V134H430.57V126.364H431.996V127.607H432.091C432.267 127.202 432.542 126.877 432.916 126.632C433.294 126.387 433.77 126.264 434.343 126.264C434.863 126.264 435.319 126.374 435.71 126.592C436.101 126.808 436.405 127.129 436.62 127.557C436.835 127.984 436.943 128.513 436.943 129.143V134H435.457V129.322C435.457 128.768 435.313 128.336 435.024 128.024C434.736 127.709 434.34 127.552 433.836 127.552C433.491 127.552 433.185 127.626 432.916 127.776C432.651 127.925 432.441 128.143 432.285 128.432C432.132 128.717 432.056 129.062 432.056 129.466ZM441.795 134.149C441.179 134.149 440.629 133.992 440.145 133.677C439.664 133.359 439.286 132.906 439.011 132.32C438.74 131.73 438.604 131.022 438.604 130.197C438.604 129.371 438.741 128.665 439.016 128.079C439.295 127.492 439.676 127.043 440.16 126.732C440.644 126.42 441.192 126.264 441.805 126.264C442.279 126.264 442.661 126.344 442.949 126.503C443.241 126.659 443.466 126.841 443.625 127.05C443.787 127.259 443.913 127.442 444.003 127.602H444.092V123.818H445.579V134H444.127V132.812H444.003C443.913 132.974 443.784 133.16 443.615 133.369C443.449 133.577 443.221 133.76 442.929 133.915C442.637 134.071 442.259 134.149 441.795 134.149ZM442.124 132.881C442.551 132.881 442.912 132.769 443.207 132.543C443.506 132.315 443.731 131.998 443.884 131.594C444.039 131.189 444.117 130.719 444.117 130.182C444.117 129.652 444.041 129.187 443.888 128.79C443.736 128.392 443.512 128.082 443.217 127.86C442.922 127.638 442.558 127.527 442.124 127.527C441.676 127.527 441.303 127.643 441.005 127.875C440.707 128.107 440.481 128.424 440.329 128.825C440.18 129.226 440.105 129.678 440.105 130.182C440.105 130.692 440.181 131.151 440.334 131.559C440.486 131.967 440.712 132.29 441.01 132.528C441.312 132.764 441.683 132.881 442.124 132.881ZM449.923 134.169C449.439 134.169 449.001 134.08 448.61 133.901C448.219 133.718 447.909 133.455 447.681 133.11C447.455 132.765 447.343 132.343 447.343 131.842C447.343 131.411 447.425 131.057 447.591 130.778C447.757 130.5 447.981 130.28 448.262 130.117C448.544 129.955 448.859 129.832 449.207 129.749C449.555 129.666 449.91 129.603 450.271 129.56C450.728 129.507 451.099 129.464 451.384 129.431C451.669 129.395 451.877 129.337 452.006 129.257C452.135 129.178 452.2 129.048 452.2 128.869V128.835C452.2 128.4 452.077 128.064 451.832 127.825C451.59 127.587 451.229 127.467 450.748 127.467C450.248 127.467 449.853 127.578 449.565 127.8C449.28 128.019 449.083 128.263 448.973 128.531L447.576 128.213C447.742 127.749 447.984 127.375 448.302 127.089C448.624 126.801 448.993 126.592 449.411 126.463C449.828 126.33 450.267 126.264 450.728 126.264C451.033 126.264 451.356 126.301 451.698 126.374C452.042 126.443 452.364 126.572 452.662 126.761C452.964 126.95 453.211 127.22 453.403 127.572C453.595 127.92 453.691 128.372 453.691 128.929V134H452.24V132.956H452.18C452.084 133.148 451.94 133.337 451.747 133.523C451.555 133.708 451.308 133.862 451.007 133.985C450.705 134.108 450.344 134.169 449.923 134.169ZM450.246 132.976C450.657 132.976 451.008 132.895 451.3 132.732C451.595 132.57 451.819 132.358 451.971 132.096C452.127 131.831 452.205 131.547 452.205 131.246V130.261C452.152 130.314 452.049 130.364 451.896 130.411C451.747 130.454 451.577 130.492 451.384 130.525C451.192 130.555 451.005 130.583 450.823 130.609C450.64 130.633 450.488 130.652 450.365 130.669C450.077 130.705 449.813 130.767 449.575 130.853C449.339 130.939 449.151 131.063 449.008 131.226C448.869 131.385 448.799 131.597 448.799 131.862C448.799 132.23 448.935 132.509 449.207 132.697C449.479 132.883 449.825 132.976 450.246 132.976ZM463.01 126.364V127.557H458.695V126.364H463.01ZM459.878 134V125.479C459.878 125.001 459.983 124.605 460.192 124.29C460.4 123.972 460.677 123.735 461.022 123.58C461.367 123.42 461.741 123.341 462.145 123.341C462.444 123.341 462.699 123.366 462.911 123.415C463.123 123.462 463.281 123.505 463.383 123.545L463.035 124.748C462.966 124.728 462.876 124.705 462.767 124.678C462.657 124.648 462.525 124.634 462.369 124.634C462.008 124.634 461.749 124.723 461.594 124.902C461.441 125.081 461.365 125.339 461.365 125.678V134H459.878ZM467.46 134.154C466.744 134.154 466.119 133.99 465.586 133.662C465.052 133.334 464.638 132.875 464.343 132.285C464.048 131.695 463.9 131.005 463.9 130.217C463.9 129.424 464.048 128.732 464.343 128.138C464.638 127.545 465.052 127.085 465.586 126.756C466.119 126.428 466.744 126.264 467.46 126.264C468.176 126.264 468.801 126.428 469.334 126.756C469.868 127.085 470.282 127.545 470.577 128.138C470.872 128.732 471.02 129.424 471.02 130.217C471.02 131.005 470.872 131.695 470.577 132.285C470.282 132.875 469.868 133.334 469.334 133.662C468.801 133.99 468.176 134.154 467.46 134.154ZM467.465 132.906C467.929 132.906 468.314 132.784 468.618 132.538C468.923 132.293 469.149 131.967 469.295 131.559C469.444 131.151 469.518 130.702 469.518 130.212C469.518 129.724 469.444 129.277 469.295 128.869C469.149 128.458 468.923 128.129 468.618 127.88C468.314 127.631 467.929 127.507 467.465 127.507C466.998 127.507 466.61 127.631 466.302 127.88C465.997 128.129 465.77 128.458 465.621 128.869C465.475 129.277 465.402 129.724 465.402 130.212C465.402 130.702 465.475 131.151 465.621 131.559C465.77 131.967 465.997 132.293 466.302 132.538C466.61 132.784 466.998 132.906 467.465 132.906ZM472.679 134V126.364H474.116V127.577H474.195C474.335 127.166 474.58 126.843 474.931 126.607C475.286 126.369 475.687 126.249 476.134 126.249C476.227 126.249 476.336 126.253 476.462 126.259C476.592 126.266 476.693 126.274 476.766 126.284V127.706C476.706 127.689 476.6 127.671 476.447 127.651C476.295 127.628 476.143 127.616 475.99 127.616C475.639 127.616 475.326 127.691 475.05 127.84C474.779 127.986 474.563 128.19 474.404 128.452C474.245 128.71 474.165 129.005 474.165 129.337V134H472.679ZM485.322 126.364V127.557H481.151V126.364H485.322ZM482.269 124.534H483.756V131.758C483.756 132.046 483.799 132.263 483.885 132.409C483.971 132.552 484.082 132.649 484.218 132.702C484.357 132.752 484.508 132.777 484.67 132.777C484.79 132.777 484.894 132.769 484.984 132.752C485.073 132.736 485.143 132.722 485.192 132.712L485.461 133.94C485.375 133.973 485.252 134.007 485.093 134.04C484.934 134.076 484.735 134.096 484.496 134.099C484.105 134.106 483.741 134.036 483.403 133.891C483.065 133.745 482.791 133.519 482.582 133.214C482.374 132.91 482.269 132.527 482.269 132.066V124.534ZM488.617 129.466V134H487.13V123.818H488.597V127.607H488.691C488.87 127.196 489.144 126.869 489.512 126.627C489.879 126.385 490.36 126.264 490.953 126.264C491.477 126.264 491.934 126.372 492.325 126.587C492.72 126.803 493.025 127.124 493.24 127.552C493.459 127.976 493.568 128.506 493.568 129.143V134H492.082V129.322C492.082 128.762 491.938 128.327 491.649 128.019C491.361 127.708 490.96 127.552 490.446 127.552C490.095 127.552 489.78 127.626 489.502 127.776C489.227 127.925 489.009 128.143 488.85 128.432C488.695 128.717 488.617 129.062 488.617 129.466ZM498.843 134.154C498.091 134.154 497.443 133.993 496.899 133.672C496.359 133.347 495.941 132.891 495.646 132.305C495.355 131.715 495.209 131.024 495.209 130.232C495.209 129.449 495.355 128.76 495.646 128.163C495.941 127.567 496.352 127.101 496.879 126.766C497.41 126.432 498.03 126.264 498.739 126.264C499.17 126.264 499.587 126.335 499.992 126.478C500.396 126.621 500.759 126.844 501.08 127.149C501.402 127.454 501.655 127.85 501.841 128.337C502.027 128.821 502.119 129.41 502.119 130.102V130.629H496.049V129.516H500.663C500.663 129.125 500.583 128.778 500.424 128.477C500.265 128.172 500.041 127.931 499.753 127.756C499.468 127.58 499.133 127.492 498.749 127.492C498.331 127.492 497.967 127.595 497.655 127.8C497.347 128.003 497.108 128.268 496.939 128.596C496.773 128.921 496.691 129.274 496.691 129.655V130.525C496.691 131.035 496.78 131.469 496.959 131.827C497.141 132.185 497.395 132.459 497.72 132.648C498.044 132.833 498.424 132.926 498.858 132.926C499.14 132.926 499.397 132.886 499.629 132.807C499.861 132.724 500.061 132.601 500.23 132.439C500.399 132.277 500.529 132.076 500.618 131.837L502.025 132.091C501.912 132.505 501.71 132.868 501.419 133.18C501.13 133.488 500.767 133.728 500.33 133.901C499.896 134.07 499.4 134.154 498.843 134.154ZM504.748 134.094C504.476 134.094 504.243 133.998 504.047 133.806C503.852 133.611 503.754 133.375 503.754 133.1C503.754 132.828 503.852 132.596 504.047 132.404C504.243 132.209 504.476 132.111 504.748 132.111C505.02 132.111 505.254 132.209 505.449 132.404C505.645 132.596 505.743 132.828 505.743 133.1C505.743 133.282 505.696 133.45 505.603 133.602C505.514 133.751 505.395 133.871 505.245 133.96C505.096 134.05 504.931 134.094 504.748 134.094ZM508.713 134.094C508.441 134.094 508.208 133.998 508.012 133.806C507.817 133.611 507.719 133.375 507.719 133.1C507.719 132.828 507.817 132.596 508.012 132.404C508.208 132.209 508.441 132.111 508.713 132.111C508.985 132.111 509.219 132.209 509.414 132.404C509.61 132.596 509.707 132.828 509.707 133.1C509.707 133.282 509.661 133.45 509.568 133.602C509.479 133.751 509.359 133.871 509.21 133.96C509.061 134.05 508.895 134.094 508.713 134.094ZM512.678 134.094C512.406 134.094 512.172 133.998 511.977 133.806C511.781 133.611 511.684 133.375 511.684 133.1C511.684 132.828 511.781 132.596 511.977 132.404C512.172 132.209 512.406 132.111 512.678 132.111C512.95 132.111 513.183 132.209 513.379 132.404C513.574 132.596 513.672 132.828 513.672 133.1C513.672 133.282 513.626 133.45 513.533 133.602C513.444 133.751 513.324 133.871 513.175 133.96C513.026 134.05 512.86 134.094 512.678 134.094Z" fill="white" fill-opacity="0.7"/>
</g>
<path d="M558.354 128.647L552.354 122.647C552.307 122.599 552.252 122.561 552.191 122.535C552.13 122.509 552.065 122.495 551.998 122.495C551.932 122.494 551.866 122.507 551.805 122.532C551.744 122.557 551.688 122.594 551.641 122.641C551.594 122.688 551.557 122.744 551.532 122.805C551.507 122.867 551.494 122.932 551.495 122.999C551.495 123.065 551.509 123.13 551.535 123.191C551.561 123.252 551.599 123.307 551.647 123.354L557.293 129L551.647 134.647C551.599 134.693 551.561 134.748 551.535 134.809C551.509 134.87 551.495 134.935 551.495 135.002C551.494 135.068 551.507 135.134 551.532 135.195C551.557 135.256 551.594 135.312 551.641 135.359C551.688 135.406 551.744 135.443 551.805 135.468C551.866 135.493 551.932 135.506 551.998 135.505C552.065 135.505 552.13 135.491 552.191 135.465C552.252 135.439 552.307 135.401 552.354 135.354L558.354 129.354C558.447 129.26 558.5 129.133 558.5 129C558.5 128.868 558.447 128.74 558.354 128.647Z" fill="white" fill-opacity="0.95"/>
</g>
<path d="M8 240H563C563 252.703 552.703 263 540 263H31C18.2975 263 8 252.703 8 240Z" fill="url(#paint0_linear_2110_63108)"/>
<defs>
<linearGradient id="paint0_linear_2110_63108" x1="285.5" y1="240" x2="285.5" y2="263" gradientUnits="userSpaceOnUse">
<stop stop-color="#F0677E"/>
<stop offset="1" stop-color="#DB1F2E"/>
</linearGradient>
<clipPath id="clip0_2110_63108">
<rect width="571" height="32" fill="white" transform="translate(0 113)"/>
</clipPath>
<clipPath id="clip1_2110_63108">
<rect width="483" height="32" fill="white" transform="translate(44 113)"/>
</clipPath>
<clipPath id="clip2_2110_63108">
<rect x="223" y="113" width="103" height="32" rx="16" fill="white"/>
</clipPath>
</defs>
</svg>
