<svg width="555" height="270" viewBox="0 0 555 270" fill="none" xmlns="http://www.w3.org/2000/svg">
<rect width="555" height="270" rx="16" fill="#1A1A1A"/>
<path d="M510.2 48.1999C510.069 48.2002 509.938 48.1743 509.816 48.1237C509.695 48.0731 509.584 47.9987 509.491 47.905L502.291 40.6697C502.199 40.5766 502.125 40.4661 502.075 40.3447C502.026 40.2232 502 40.0931 502 39.9618C502.001 39.8305 502.027 39.7006 502.078 39.5794C502.128 39.4582 502.202 39.3482 502.295 39.2556C502.388 39.163 502.499 39.0897 502.62 39.0397C502.742 38.9898 502.872 38.9643 503.003 38.9647C503.134 38.9651 503.264 38.9913 503.385 39.0419C503.507 39.0924 503.617 39.1664 503.709 39.2595L510.254 45.8367L526.35 32.0417C526.551 31.8692 526.813 31.7838 527.077 31.8041C527.341 31.8244 527.587 31.9489 527.759 32.1501C527.932 32.3514 528.017 32.6129 527.997 32.8772C527.976 33.1415 527.852 33.3868 527.651 33.5593L510.851 47.9587C510.67 48.1145 510.439 48.2001 510.2 48.1999Z" fill="url(#paint0_linear_2110_63099)"/>
<g clip-path="url(#clip0_2110_63099)">
<path d="M76.2072 132.5L81.8537 126.854C81.9451 126.759 81.9958 126.633 81.9948 126.502C81.9938 126.37 81.9412 126.245 81.8484 126.152C81.7555 126.059 81.6299 126.007 81.4986 126.006C81.3673 126.005 81.2409 126.055 81.1467 126.147L75.1467 132.147C75.0529 132.24 75.0002 132.368 75.0002 132.5C75.0002 132.633 75.0529 132.76 75.1467 132.854L81.1467 138.854C81.1928 138.901 81.248 138.939 81.309 138.965C81.3699 138.991 81.4355 139.005 81.5018 139.005C81.5681 139.006 81.6338 138.993 81.6951 138.968C81.7565 138.943 81.8122 138.906 81.8591 138.859C81.906 138.812 81.9431 138.756 81.9682 138.695C81.9933 138.634 82.006 138.568 82.0055 138.502C82.005 138.435 81.9913 138.37 81.9653 138.309C81.9392 138.248 81.9013 138.193 81.8537 138.147L76.2072 132.5Z" fill="white" fill-opacity="0.95"/>
<g clip-path="url(#clip1_2110_63099)">
<rect x="106.5" y="116.5" width="93" height="32" rx="16" fill="white" fill-opacity="0.2"/>
<path d="M120.055 127.318H121.919L125.161 135.233H125.28L128.522 127.318H130.386V137.5H128.924V130.132H128.83L125.827 137.485H124.614L121.611 130.127H121.517V137.5H120.055V127.318ZM135.791 137.654C135.039 137.654 134.391 137.493 133.848 137.172C133.307 136.847 132.89 136.391 132.595 135.805C132.303 135.215 132.157 134.524 132.157 133.732C132.157 132.949 132.303 132.26 132.595 131.663C132.89 131.067 133.301 130.601 133.828 130.266C134.358 129.932 134.978 129.764 135.687 129.764C136.118 129.764 136.536 129.835 136.94 129.978C137.344 130.121 137.707 130.344 138.029 130.649C138.35 130.954 138.604 131.35 138.789 131.837C138.975 132.321 139.068 132.91 139.068 133.602V134.129H132.997V133.016H137.611C137.611 132.625 137.532 132.278 137.372 131.977C137.213 131.672 136.99 131.431 136.701 131.256C136.416 131.08 136.081 130.992 135.697 130.992C135.279 130.992 134.915 131.095 134.603 131.3C134.295 131.503 134.056 131.768 133.887 132.096C133.722 132.421 133.639 132.774 133.639 133.155V134.025C133.639 134.535 133.728 134.969 133.907 135.327C134.09 135.685 134.343 135.959 134.668 136.148C134.993 136.333 135.372 136.426 135.806 136.426C136.088 136.426 136.345 136.386 136.577 136.307C136.809 136.224 137.009 136.101 137.179 135.939C137.348 135.777 137.477 135.576 137.566 135.337L138.973 135.591C138.861 136.005 138.658 136.368 138.367 136.68C138.078 136.988 137.715 137.228 137.278 137.401C136.844 137.57 136.348 137.654 135.791 137.654ZM146.439 131.728L145.092 131.967C145.036 131.794 144.946 131.63 144.824 131.474C144.704 131.319 144.542 131.191 144.336 131.092C144.131 130.992 143.874 130.942 143.566 130.942C143.145 130.942 142.794 131.037 142.512 131.226C142.23 131.411 142.089 131.652 142.089 131.947C142.089 132.202 142.184 132.407 142.373 132.563C142.562 132.719 142.866 132.847 143.287 132.946L144.5 133.224C145.203 133.387 145.727 133.637 146.071 133.975C146.416 134.313 146.589 134.752 146.589 135.293C146.589 135.75 146.456 136.158 146.191 136.516C145.929 136.87 145.563 137.149 145.092 137.351C144.625 137.553 144.083 137.654 143.466 137.654C142.611 137.654 141.914 137.472 141.373 137.107C140.833 136.739 140.502 136.217 140.379 135.541L141.816 135.322C141.905 135.697 142.089 135.98 142.368 136.173C142.646 136.362 143.009 136.456 143.456 136.456C143.944 136.456 144.333 136.355 144.625 136.153C144.916 135.947 145.062 135.697 145.062 135.402C145.062 135.163 144.973 134.963 144.794 134.8C144.618 134.638 144.348 134.515 143.983 134.433L142.691 134.149C141.978 133.987 141.451 133.728 141.11 133.374C140.772 133.019 140.603 132.57 140.603 132.026C140.603 131.576 140.729 131.181 140.981 130.843C141.232 130.505 141.58 130.241 142.025 130.053C142.469 129.86 142.977 129.764 143.551 129.764C144.376 129.764 145.026 129.943 145.5 130.301C145.974 130.656 146.287 131.131 146.439 131.728ZM153.945 131.728L152.598 131.967C152.542 131.794 152.452 131.63 152.329 131.474C152.21 131.319 152.048 131.191 151.842 131.092C151.637 130.992 151.38 130.942 151.072 130.942C150.651 130.942 150.299 131.037 150.018 131.226C149.736 131.411 149.595 131.652 149.595 131.947C149.595 132.202 149.69 132.407 149.878 132.563C150.067 132.719 150.372 132.847 150.793 132.946L152.006 133.224C152.709 133.387 153.233 133.637 153.577 133.975C153.922 134.313 154.094 134.752 154.094 135.293C154.094 135.75 153.962 136.158 153.697 136.516C153.435 136.87 153.069 137.149 152.598 137.351C152.131 137.553 151.589 137.654 150.972 137.654C150.117 137.654 149.419 137.472 148.879 137.107C148.339 136.739 148.007 136.217 147.885 135.541L149.322 135.322C149.411 135.697 149.595 135.98 149.873 136.173C150.152 136.362 150.515 136.456 150.962 136.456C151.449 136.456 151.839 136.355 152.131 136.153C152.422 135.947 152.568 135.697 152.568 135.402C152.568 135.163 152.479 134.963 152.3 134.8C152.124 134.638 151.854 134.515 151.489 134.433L150.197 134.149C149.484 133.987 148.957 133.728 148.616 133.374C148.278 133.019 148.109 132.57 148.109 132.026C148.109 131.576 148.235 131.181 148.486 130.843C148.738 130.505 149.086 130.241 149.53 130.053C149.975 129.86 150.483 129.764 151.057 129.764C151.882 129.764 152.532 129.943 153.006 130.301C153.48 130.656 153.793 131.131 153.945 131.728ZM157.951 137.669C157.467 137.669 157.03 137.58 156.639 137.401C156.247 137.218 155.938 136.955 155.709 136.61C155.484 136.265 155.371 135.843 155.371 135.342C155.371 134.911 155.454 134.557 155.619 134.278C155.785 134 156.009 133.78 156.291 133.617C156.572 133.455 156.887 133.332 157.235 133.249C157.583 133.166 157.938 133.103 158.299 133.06C158.756 133.007 159.128 132.964 159.413 132.931C159.698 132.895 159.905 132.837 160.034 132.757C160.163 132.678 160.228 132.548 160.228 132.369V132.335C160.228 131.9 160.105 131.564 159.86 131.325C159.618 131.087 159.257 130.967 158.776 130.967C158.276 130.967 157.881 131.078 157.593 131.3C157.308 131.519 157.111 131.763 157.002 132.031L155.604 131.713C155.77 131.249 156.012 130.875 156.33 130.589C156.652 130.301 157.021 130.092 157.439 129.963C157.857 129.83 158.296 129.764 158.756 129.764C159.061 129.764 159.385 129.801 159.726 129.874C160.071 129.943 160.392 130.072 160.69 130.261C160.992 130.45 161.239 130.72 161.431 131.072C161.623 131.42 161.72 131.872 161.72 132.429V137.5H160.268V136.456H160.208C160.112 136.648 159.968 136.837 159.776 137.023C159.583 137.208 159.336 137.362 159.035 137.485C158.733 137.608 158.372 137.669 157.951 137.669ZM158.274 136.476C158.685 136.476 159.037 136.395 159.328 136.232C159.623 136.07 159.847 135.858 159.999 135.596C160.155 135.331 160.233 135.047 160.233 134.746V133.761C160.18 133.814 160.077 133.864 159.925 133.911C159.776 133.954 159.605 133.992 159.413 134.025C159.22 134.055 159.033 134.083 158.851 134.109C158.669 134.133 158.516 134.152 158.394 134.169C158.105 134.205 157.842 134.267 157.603 134.353C157.368 134.439 157.179 134.563 157.036 134.726C156.897 134.885 156.828 135.097 156.828 135.362C156.828 135.73 156.963 136.009 157.235 136.197C157.507 136.383 157.853 136.476 158.274 136.476ZM166.901 140.523C166.295 140.523 165.773 140.443 165.335 140.284C164.901 140.125 164.546 139.915 164.271 139.653C163.996 139.391 163.791 139.104 163.655 138.793L164.932 138.266C165.022 138.411 165.141 138.566 165.29 138.728C165.443 138.894 165.648 139.035 165.907 139.151C166.169 139.267 166.505 139.325 166.916 139.325C167.48 139.325 167.945 139.187 168.313 138.912C168.681 138.64 168.865 138.206 168.865 137.609V136.108H168.771C168.681 136.27 168.552 136.451 168.383 136.65C168.217 136.849 167.988 137.021 167.697 137.167C167.405 137.313 167.025 137.386 166.558 137.386C165.955 137.386 165.411 137.245 164.927 136.963C164.447 136.678 164.066 136.259 163.784 135.705C163.506 135.148 163.366 134.464 163.366 133.652C163.366 132.84 163.504 132.144 163.779 131.564C164.057 130.984 164.439 130.54 164.922 130.232C165.406 129.92 165.955 129.764 166.568 129.764C167.042 129.764 167.425 129.844 167.717 130.003C168.008 130.159 168.235 130.341 168.398 130.55C168.563 130.759 168.691 130.942 168.78 131.102H168.89V129.864H170.347V137.669C170.347 138.325 170.194 138.864 169.889 139.285C169.584 139.706 169.172 140.017 168.651 140.219C168.134 140.422 167.551 140.523 166.901 140.523ZM166.886 136.153C167.314 136.153 167.675 136.053 167.97 135.854C168.268 135.652 168.494 135.364 168.646 134.989C168.802 134.612 168.88 134.159 168.88 133.632C168.88 133.118 168.804 132.666 168.651 132.275C168.499 131.884 168.275 131.579 167.98 131.36C167.685 131.138 167.32 131.027 166.886 131.027C166.439 131.027 166.066 131.143 165.768 131.375C165.469 131.604 165.244 131.915 165.092 132.31C164.942 132.704 164.868 133.145 164.868 133.632C164.868 134.133 164.944 134.572 165.097 134.95C165.249 135.327 165.474 135.622 165.773 135.835C166.074 136.047 166.445 136.153 166.886 136.153ZM175.631 137.654C174.879 137.654 174.231 137.493 173.687 137.172C173.147 136.847 172.73 136.391 172.435 135.805C172.143 135.215 171.997 134.524 171.997 133.732C171.997 132.949 172.143 132.26 172.435 131.663C172.73 131.067 173.141 130.601 173.668 130.266C174.198 129.932 174.818 129.764 175.527 129.764C175.958 129.764 176.375 129.835 176.78 129.978C177.184 130.121 177.547 130.344 177.869 130.649C178.19 130.954 178.444 131.35 178.629 131.837C178.815 132.321 178.908 132.91 178.908 133.602V134.129H172.837V133.016H177.451C177.451 132.625 177.371 132.278 177.212 131.977C177.053 131.672 176.829 131.431 176.541 131.256C176.256 131.08 175.921 130.992 175.537 130.992C175.119 130.992 174.755 131.095 174.443 131.3C174.135 131.503 173.896 131.768 173.727 132.096C173.561 132.421 173.479 132.774 173.479 133.155V134.025C173.479 134.535 173.568 134.969 173.747 135.327C173.929 135.685 174.183 135.959 174.508 136.148C174.833 136.333 175.212 136.426 175.646 136.426C175.928 136.426 176.185 136.386 176.417 136.307C176.649 136.224 176.849 136.101 177.018 135.939C177.187 135.777 177.317 135.576 177.406 135.337L178.813 135.591C178.7 136.005 178.498 136.368 178.207 136.68C177.918 136.988 177.555 137.228 177.118 137.401C176.684 137.57 176.188 137.654 175.631 137.654ZM186.279 131.728L184.932 131.967C184.876 131.794 184.786 131.63 184.663 131.474C184.544 131.319 184.382 131.191 184.176 131.092C183.971 130.992 183.714 130.942 183.406 130.942C182.985 130.942 182.633 131.037 182.352 131.226C182.07 131.411 181.929 131.652 181.929 131.947C181.929 132.202 182.024 132.407 182.212 132.563C182.401 132.719 182.706 132.847 183.127 132.946L184.34 133.224C185.043 133.387 185.567 133.637 185.911 133.975C186.256 134.313 186.428 134.752 186.428 135.293C186.428 135.75 186.296 136.158 186.031 136.516C185.769 136.87 185.403 137.149 184.932 137.351C184.465 137.553 183.923 137.654 183.306 137.654C182.451 137.654 181.753 137.472 181.213 137.107C180.673 136.739 180.341 136.217 180.219 135.541L181.656 135.322C181.745 135.697 181.929 135.98 182.207 136.173C182.486 136.362 182.849 136.456 183.296 136.456C183.783 136.456 184.173 136.355 184.465 136.153C184.756 135.947 184.902 135.697 184.902 135.402C184.902 135.163 184.813 134.963 184.634 134.8C184.458 134.638 184.188 134.515 183.823 134.433L182.531 134.149C181.818 133.987 181.291 133.728 180.95 133.374C180.612 133.019 180.443 132.57 180.443 132.026C180.443 131.576 180.569 131.181 180.82 130.843C181.072 130.505 181.42 130.241 181.864 130.053C182.309 129.86 182.817 129.764 183.391 129.764C184.216 129.764 184.866 129.943 185.34 130.301C185.814 130.656 186.127 131.131 186.279 131.728Z" fill="white" fill-opacity="0.95"/>
<path d="M220.691 137.5V127.318H224.32C225.112 127.318 225.769 127.462 226.289 127.751C226.809 128.039 227.199 128.433 227.457 128.934C227.716 129.431 227.845 129.991 227.845 130.614C227.845 131.241 227.714 131.804 227.452 132.305C227.194 132.802 226.803 133.196 226.279 133.488C225.759 133.776 225.104 133.92 224.315 133.92H221.819V132.618H224.176C224.676 132.618 225.082 132.532 225.394 132.359C225.706 132.184 225.934 131.945 226.08 131.643C226.226 131.342 226.299 130.999 226.299 130.614C226.299 130.23 226.226 129.888 226.08 129.59C225.934 129.292 225.704 129.058 225.389 128.889C225.077 128.72 224.666 128.636 224.156 128.636H222.227V137.5H220.691ZM232.722 137.654C231.97 137.654 231.322 137.493 230.778 137.172C230.238 136.847 229.82 136.391 229.525 135.805C229.234 135.215 229.088 134.524 229.088 133.732C229.088 132.949 229.234 132.26 229.525 131.663C229.82 131.067 230.231 130.601 230.758 130.266C231.289 129.932 231.908 129.764 232.618 129.764C233.049 129.764 233.466 129.835 233.871 129.978C234.275 130.121 234.638 130.344 234.959 130.649C235.281 130.954 235.534 131.35 235.72 131.837C235.906 132.321 235.998 132.91 235.998 133.602V134.129H229.928V133.016H234.542C234.542 132.625 234.462 132.278 234.303 131.977C234.144 131.672 233.92 131.431 233.632 131.256C233.347 131.08 233.012 130.992 232.628 130.992C232.21 130.992 231.845 131.095 231.534 131.3C231.226 131.503 230.987 131.768 230.818 132.096C230.652 132.421 230.569 132.774 230.569 133.155V134.025C230.569 134.535 230.659 134.969 230.838 135.327C231.02 135.685 231.274 135.959 231.599 136.148C231.923 136.333 232.303 136.426 232.737 136.426C233.019 136.426 233.276 136.386 233.508 136.307C233.74 136.224 233.94 136.101 234.109 135.939C234.278 135.777 234.407 135.576 234.497 135.337L235.904 135.591C235.791 136.005 235.589 136.368 235.297 136.68C235.009 136.988 234.646 137.228 234.209 137.401C233.774 137.57 233.279 137.654 232.722 137.654ZM240.864 137.654C240.148 137.654 239.524 137.49 238.99 137.162C238.456 136.834 238.042 136.375 237.747 135.785C237.452 135.195 237.305 134.505 237.305 133.717C237.305 132.924 237.452 132.232 237.747 131.638C238.042 131.045 238.456 130.585 238.99 130.256C239.524 129.928 240.148 129.764 240.864 129.764C241.58 129.764 242.205 129.928 242.739 130.256C243.272 130.585 243.687 131.045 243.982 131.638C244.277 132.232 244.424 132.924 244.424 133.717C244.424 134.505 244.277 135.195 243.982 135.785C243.687 136.375 243.272 136.834 242.739 137.162C242.205 137.49 241.58 137.654 240.864 137.654ZM240.869 136.406C241.333 136.406 241.718 136.284 242.023 136.038C242.328 135.793 242.553 135.467 242.699 135.059C242.848 134.651 242.923 134.202 242.923 133.712C242.923 133.224 242.848 132.777 242.699 132.369C242.553 131.958 242.328 131.629 242.023 131.38C241.718 131.131 241.333 131.007 240.869 131.007C240.402 131.007 240.014 131.131 239.706 131.38C239.401 131.629 239.174 131.958 239.025 132.369C238.879 132.777 238.806 133.224 238.806 133.712C238.806 134.202 238.879 134.651 239.025 135.059C239.174 135.467 239.401 135.793 239.706 136.038C240.014 136.284 240.402 136.406 240.869 136.406ZM246.083 140.364V129.864H247.535V131.102H247.659C247.745 130.942 247.87 130.759 248.032 130.55C248.195 130.341 248.42 130.159 248.708 130.003C248.997 129.844 249.378 129.764 249.852 129.764C250.468 129.764 251.018 129.92 251.502 130.232C251.986 130.543 252.366 130.992 252.641 131.579C252.919 132.165 253.058 132.871 253.058 133.697C253.058 134.522 252.921 135.23 252.646 135.82C252.371 136.406 251.993 136.859 251.512 137.177C251.032 137.492 250.483 137.649 249.867 137.649C249.403 137.649 249.023 137.571 248.728 137.415C248.436 137.26 248.208 137.077 248.042 136.869C247.876 136.66 247.749 136.474 247.659 136.312H247.57V140.364H246.083ZM247.54 133.682C247.54 134.219 247.618 134.689 247.774 135.094C247.929 135.498 248.155 135.815 248.45 136.043C248.745 136.269 249.106 136.381 249.534 136.381C249.978 136.381 250.349 136.264 250.647 136.028C250.945 135.79 251.171 135.467 251.323 135.059C251.479 134.651 251.557 134.192 251.557 133.682C251.557 133.178 251.481 132.726 251.328 132.325C251.179 131.924 250.954 131.607 250.652 131.375C250.354 131.143 249.981 131.027 249.534 131.027C249.103 131.027 248.738 131.138 248.44 131.36C248.145 131.582 247.921 131.892 247.769 132.29C247.616 132.687 247.54 133.152 247.54 133.682ZM256.21 127.318V137.5H254.724V127.318H256.21ZM261.501 137.654C260.749 137.654 260.101 137.493 259.558 137.172C259.017 136.847 258.6 136.391 258.305 135.805C258.013 135.215 257.867 134.524 257.867 133.732C257.867 132.949 258.013 132.26 258.305 131.663C258.6 131.067 259.011 130.601 259.538 130.266C260.068 129.932 260.688 129.764 261.397 129.764C261.828 129.764 262.246 129.835 262.65 129.978C263.054 130.121 263.417 130.344 263.739 130.649C264.06 130.954 264.314 131.35 264.499 131.837C264.685 132.321 264.778 132.91 264.778 133.602V134.129H258.707V133.016H263.321C263.321 132.625 263.241 132.278 263.082 131.977C262.923 131.672 262.7 131.431 262.411 131.256C262.126 131.08 261.791 130.992 261.407 130.992C260.989 130.992 260.625 131.095 260.313 131.3C260.005 131.503 259.766 131.768 259.597 132.096C259.432 132.421 259.349 132.774 259.349 133.155V134.025C259.349 134.535 259.438 134.969 259.617 135.327C259.799 135.685 260.053 135.959 260.378 136.148C260.703 136.333 261.082 136.426 261.516 136.426C261.798 136.426 262.055 136.386 262.287 136.307C262.519 136.224 262.719 136.101 262.888 135.939C263.058 135.777 263.187 135.576 263.276 135.337L264.683 135.591C264.571 136.005 264.368 136.368 264.077 136.68C263.788 136.988 263.425 137.228 262.988 137.401C262.554 137.57 262.058 137.654 261.501 137.654Z" fill="white" fill-opacity="0.7"/>
<path d="M307.566 130.629H306.015C305.956 130.298 305.845 130.006 305.682 129.754C305.52 129.502 305.321 129.289 305.086 129.113C304.85 128.937 304.587 128.805 304.295 128.715C304.007 128.626 303.7 128.581 303.375 128.581C302.789 128.581 302.263 128.728 301.799 129.023C301.339 129.318 300.974 129.751 300.706 130.321C300.441 130.891 300.308 131.587 300.308 132.409C300.308 133.238 300.441 133.937 300.706 134.507C300.974 135.077 301.34 135.508 301.804 135.8C302.268 136.091 302.79 136.237 303.37 136.237C303.692 136.237 303.997 136.194 304.285 136.108C304.577 136.018 304.84 135.888 305.076 135.715C305.311 135.543 305.51 135.332 305.672 135.084C305.838 134.832 305.952 134.544 306.015 134.219L307.566 134.224C307.484 134.724 307.323 135.185 307.084 135.606C306.849 136.023 306.546 136.385 306.174 136.69C305.807 136.991 305.386 137.225 304.912 137.391C304.438 137.556 303.921 137.639 303.361 137.639C302.479 137.639 301.693 137.43 301.004 137.013C300.315 136.592 299.771 135.99 299.373 135.208C298.979 134.426 298.782 133.493 298.782 132.409C298.782 131.322 298.981 130.389 299.378 129.61C299.776 128.828 300.32 128.228 301.009 127.81C301.698 127.389 302.482 127.179 303.361 127.179C303.901 127.179 304.405 127.257 304.872 127.413C305.343 127.565 305.765 127.79 306.14 128.089C306.514 128.384 306.824 128.745 307.069 129.173C307.315 129.597 307.48 130.082 307.566 130.629ZM312.502 137.654C311.786 137.654 311.161 137.49 310.628 137.162C310.094 136.834 309.68 136.375 309.385 135.785C309.09 135.195 308.942 134.505 308.942 133.717C308.942 132.924 309.09 132.232 309.385 131.638C309.68 131.045 310.094 130.585 310.628 130.256C311.161 129.928 311.786 129.764 312.502 129.764C313.218 129.764 313.843 129.928 314.376 130.256C314.91 130.585 315.324 131.045 315.619 131.638C315.914 132.232 316.062 132.924 316.062 133.717C316.062 134.505 315.914 135.195 315.619 135.785C315.324 136.375 314.91 136.834 314.376 137.162C313.843 137.49 313.218 137.654 312.502 137.654ZM312.507 136.406C312.971 136.406 313.355 136.284 313.66 136.038C313.965 135.793 314.191 135.467 314.337 135.059C314.486 134.651 314.56 134.202 314.56 133.712C314.56 133.224 314.486 132.777 314.337 132.369C314.191 131.958 313.965 131.629 313.66 131.38C313.355 131.131 312.971 131.007 312.507 131.007C312.04 131.007 311.652 131.131 311.344 131.38C311.039 131.629 310.812 131.958 310.663 132.369C310.517 132.777 310.444 133.224 310.444 133.712C310.444 134.202 310.517 134.651 310.663 135.059C310.812 135.467 311.039 135.793 311.344 136.038C311.652 136.284 312.04 136.406 312.507 136.406ZM319.207 132.966V137.5H317.721V129.864H319.148V131.107H319.242C319.418 130.702 319.693 130.377 320.068 130.132C320.445 129.887 320.921 129.764 321.494 129.764C322.015 129.764 322.47 129.874 322.862 130.092C323.253 130.308 323.556 130.629 323.771 131.057C323.987 131.484 324.095 132.013 324.095 132.643V137.5H322.608V132.822C322.608 132.268 322.464 131.836 322.176 131.524C321.887 131.209 321.491 131.052 320.987 131.052C320.643 131.052 320.336 131.126 320.068 131.276C319.802 131.425 319.592 131.643 319.436 131.932C319.284 132.217 319.207 132.562 319.207 132.966ZM329.653 129.864V131.057H325.482V129.864H329.653ZM326.6 128.034H328.087V135.258C328.087 135.546 328.13 135.763 328.216 135.909C328.302 136.052 328.413 136.149 328.549 136.202C328.688 136.252 328.839 136.277 329.002 136.277C329.121 136.277 329.225 136.269 329.315 136.252C329.404 136.236 329.474 136.222 329.524 136.212L329.792 137.44C329.706 137.473 329.583 137.507 329.424 137.54C329.265 137.576 329.066 137.596 328.828 137.599C328.436 137.606 328.072 137.536 327.734 137.391C327.396 137.245 327.122 137.019 326.913 136.714C326.705 136.41 326.6 136.027 326.6 135.566V128.034ZM334.506 137.654C333.754 137.654 333.106 137.493 332.562 137.172C332.022 136.847 331.605 136.391 331.31 135.805C331.018 135.215 330.872 134.524 330.872 133.732C330.872 132.949 331.018 132.26 331.31 131.663C331.605 131.067 332.016 130.601 332.543 130.266C333.073 129.932 333.693 129.764 334.402 129.764C334.833 129.764 335.25 129.835 335.655 129.978C336.059 130.121 336.422 130.344 336.744 130.649C337.065 130.954 337.319 131.35 337.504 131.837C337.69 132.321 337.783 132.91 337.783 133.602V134.129H331.712V133.016H336.326C336.326 132.625 336.246 132.278 336.087 131.977C335.928 131.672 335.704 131.431 335.416 131.256C335.131 131.08 334.796 130.992 334.412 130.992C333.994 130.992 333.63 131.095 333.318 131.3C333.01 131.503 332.771 131.768 332.602 132.096C332.436 132.421 332.354 132.774 332.354 133.155V134.025C332.354 134.535 332.443 134.969 332.622 135.327C332.804 135.685 333.058 135.959 333.383 136.148C333.708 136.333 334.087 136.426 334.521 136.426C334.803 136.426 335.06 136.386 335.292 136.307C335.524 136.224 335.724 136.101 335.893 135.939C336.062 135.777 336.192 135.576 336.281 135.337L337.688 135.591C337.575 136.005 337.373 136.368 337.082 136.68C336.793 136.988 336.43 137.228 335.993 137.401C335.559 137.57 335.063 137.654 334.506 137.654ZM340.918 132.966V137.5H339.432V129.864H340.859V131.107H340.953C341.129 130.702 341.404 130.377 341.778 130.132C342.156 129.887 342.632 129.764 343.205 129.764C343.726 129.764 344.181 129.874 344.573 130.092C344.964 130.308 345.267 130.629 345.482 131.057C345.698 131.484 345.805 132.013 345.805 132.643V137.5H344.319V132.822C344.319 132.268 344.175 131.836 343.886 131.524C343.598 131.209 343.202 131.052 342.698 131.052C342.354 131.052 342.047 131.126 341.778 131.276C341.513 131.425 341.303 131.643 341.147 131.932C340.995 132.217 340.918 132.562 340.918 132.966ZM351.364 129.864V131.057H347.193V129.864H351.364ZM348.311 128.034H349.798V135.258C349.798 135.546 349.841 135.763 349.927 135.909C350.013 136.052 350.124 136.149 350.26 136.202C350.399 136.252 350.55 136.277 350.712 136.277C350.832 136.277 350.936 136.269 351.026 136.252C351.115 136.236 351.185 136.222 351.234 136.212L351.503 137.44C351.417 137.473 351.294 137.507 351.135 137.54C350.976 137.576 350.777 137.596 350.538 137.599C350.147 137.606 349.783 137.536 349.445 137.391C349.107 137.245 348.833 137.019 348.624 136.714C348.416 136.41 348.311 136.027 348.311 135.566V128.034Z" fill="white" fill-opacity="0.7"/>
<path d="M386.659 137.5H385.029L388.693 127.318H390.468L394.132 137.5H392.501L389.622 129.168H389.543L386.659 137.5ZM386.933 133.513H392.223V134.805H386.933V133.513ZM398.561 140.523C397.955 140.523 397.433 140.443 396.995 140.284C396.561 140.125 396.206 139.915 395.931 139.653C395.656 139.391 395.451 139.104 395.315 138.793L396.593 138.266C396.682 138.411 396.801 138.566 396.951 138.728C397.103 138.894 397.309 139.035 397.567 139.151C397.829 139.267 398.165 139.325 398.576 139.325C399.14 139.325 399.605 139.187 399.973 138.912C400.341 138.64 400.525 138.206 400.525 137.609V136.108H400.431C400.341 136.27 400.212 136.451 400.043 136.65C399.877 136.849 399.648 137.021 399.357 137.167C399.065 137.313 398.686 137.386 398.218 137.386C397.615 137.386 397.072 137.245 396.588 136.963C396.107 136.678 395.726 136.259 395.444 135.705C395.166 135.148 395.027 134.464 395.027 133.652C395.027 132.84 395.164 132.144 395.439 131.564C395.718 130.984 396.099 130.54 396.583 130.232C397.067 129.92 397.615 129.764 398.228 129.764C398.702 129.764 399.085 129.844 399.377 130.003C399.668 130.159 399.895 130.341 400.058 130.55C400.224 130.759 400.351 130.942 400.441 131.102H400.55V129.864H402.007V137.669C402.007 138.325 401.854 138.864 401.549 139.285C401.244 139.706 400.832 140.017 400.311 140.219C399.794 140.422 399.211 140.523 398.561 140.523ZM398.546 136.153C398.974 136.153 399.335 136.053 399.63 135.854C399.929 135.652 400.154 135.364 400.306 134.989C400.462 134.612 400.54 134.159 400.54 133.632C400.54 133.118 400.464 132.666 400.311 132.275C400.159 131.884 399.935 131.579 399.64 131.36C399.345 131.138 398.981 131.027 398.546 131.027C398.099 131.027 397.726 131.143 397.428 131.375C397.13 131.604 396.904 131.915 396.752 132.31C396.603 132.704 396.528 133.145 396.528 133.632C396.528 134.133 396.604 134.572 396.757 134.95C396.909 135.327 397.134 135.622 397.433 135.835C397.734 136.047 398.106 136.153 398.546 136.153ZM407.291 137.654C406.539 137.654 405.891 137.493 405.348 137.172C404.807 136.847 404.39 136.391 404.095 135.805C403.803 135.215 403.657 134.524 403.657 133.732C403.657 132.949 403.803 132.26 404.095 131.663C404.39 131.067 404.801 130.601 405.328 130.266C405.858 129.932 406.478 129.764 407.187 129.764C407.618 129.764 408.036 129.835 408.44 129.978C408.844 130.121 409.207 130.344 409.529 130.649C409.85 130.954 410.104 131.35 410.289 131.837C410.475 132.321 410.568 132.91 410.568 133.602V134.129H404.497V133.016H409.111C409.111 132.625 409.032 132.278 408.872 131.977C408.713 131.672 408.49 131.431 408.201 131.256C407.916 131.08 407.581 130.992 407.197 130.992C406.779 130.992 406.415 131.095 406.103 131.3C405.795 131.503 405.556 131.768 405.387 132.096C405.222 132.421 405.139 132.774 405.139 133.155V134.025C405.139 134.535 405.228 134.969 405.407 135.327C405.59 135.685 405.843 135.959 406.168 136.148C406.493 136.333 406.872 136.426 407.306 136.426C407.588 136.426 407.845 136.386 408.077 136.307C408.309 136.224 408.509 136.101 408.679 135.939C408.848 135.777 408.977 135.576 409.066 135.337L410.473 135.591C410.361 136.005 410.158 136.368 409.867 136.68C409.578 136.988 409.215 137.228 408.778 137.401C408.344 137.57 407.848 137.654 407.291 137.654ZM413.704 132.966V137.5H412.217V129.864H413.644V131.107H413.738C413.914 130.702 414.189 130.377 414.564 130.132C414.941 129.887 415.417 129.764 415.991 129.764C416.511 129.764 416.967 129.874 417.358 130.092C417.749 130.308 418.052 130.629 418.267 131.057C418.483 131.484 418.591 132.013 418.591 132.643V137.5H417.104V132.822C417.104 132.268 416.96 131.836 416.672 131.524C416.383 131.209 415.987 131.052 415.483 131.052C415.139 131.052 414.832 131.126 414.564 131.276C414.299 131.425 414.088 131.643 413.932 131.932C413.78 132.217 413.704 132.562 413.704 132.966ZM423.443 137.649C422.826 137.649 422.276 137.492 421.792 137.177C421.312 136.859 420.934 136.406 420.659 135.82C420.387 135.23 420.251 134.522 420.251 133.697C420.251 132.871 420.389 132.165 420.664 131.579C420.942 130.992 421.323 130.543 421.807 130.232C422.291 129.92 422.84 129.764 423.453 129.764C423.927 129.764 424.308 129.844 424.596 130.003C424.888 130.159 425.113 130.341 425.272 130.55C425.435 130.759 425.561 130.942 425.65 131.102H425.74V127.318H427.226V137.5H425.775V136.312H425.65C425.561 136.474 425.432 136.66 425.263 136.869C425.097 137.077 424.868 137.26 424.576 137.415C424.285 137.571 423.907 137.649 423.443 137.649ZM423.771 136.381C424.199 136.381 424.56 136.269 424.855 136.043C425.153 135.815 425.379 135.498 425.531 135.094C425.687 134.689 425.765 134.219 425.765 133.682C425.765 133.152 425.688 132.687 425.536 132.29C425.383 131.892 425.16 131.582 424.865 131.36C424.57 131.138 424.205 131.027 423.771 131.027C423.324 131.027 422.951 131.143 422.652 131.375C422.354 131.607 422.129 131.924 421.976 132.325C421.827 132.726 421.753 133.178 421.753 133.682C421.753 134.192 421.829 134.651 421.981 135.059C422.134 135.467 422.359 135.79 422.657 136.028C422.959 136.264 423.33 136.381 423.771 136.381ZM431.57 137.669C431.086 137.669 430.649 137.58 430.258 137.401C429.867 137.218 429.557 136.955 429.328 136.61C429.103 136.265 428.99 135.843 428.99 135.342C428.99 134.911 429.073 134.557 429.239 134.278C429.404 134 429.628 133.78 429.91 133.617C430.191 133.455 430.506 133.332 430.854 133.249C431.202 133.166 431.557 133.103 431.918 133.06C432.376 133.007 432.747 132.964 433.032 132.931C433.317 132.895 433.524 132.837 433.653 132.757C433.783 132.678 433.847 132.548 433.847 132.369V132.335C433.847 131.9 433.725 131.564 433.479 131.325C433.237 131.087 432.876 130.967 432.396 130.967C431.895 130.967 431.501 131.078 431.212 131.3C430.927 131.519 430.73 131.763 430.621 132.031L429.224 131.713C429.389 131.249 429.631 130.875 429.949 130.589C430.271 130.301 430.641 130.092 431.058 129.963C431.476 129.83 431.915 129.764 432.376 129.764C432.681 129.764 433.004 129.801 433.345 129.874C433.69 129.943 434.011 130.072 434.31 130.261C434.611 130.45 434.858 130.72 435.05 131.072C435.243 131.42 435.339 131.872 435.339 132.429V137.5H433.887V136.456H433.827C433.731 136.648 433.587 136.837 433.395 137.023C433.203 137.208 432.956 137.362 432.654 137.485C432.352 137.608 431.991 137.669 431.57 137.669ZM431.893 136.476C432.304 136.476 432.656 136.395 432.947 136.232C433.242 136.07 433.466 135.858 433.619 135.596C433.774 135.331 433.852 135.047 433.852 134.746V133.761C433.799 133.814 433.696 133.864 433.544 133.911C433.395 133.954 433.224 133.992 433.032 134.025C432.84 134.055 432.652 134.083 432.47 134.109C432.288 134.133 432.135 134.152 432.013 134.169C431.724 134.205 431.461 134.267 431.222 134.353C430.987 134.439 430.798 134.563 430.655 134.726C430.516 134.885 430.447 135.097 430.447 135.362C430.447 135.73 430.583 136.009 430.854 136.197C431.126 136.383 431.472 136.476 431.893 136.476Z" fill="white" fill-opacity="0.7"/>
</g>
<path d="M479.854 132.147L473.854 126.147C473.807 126.099 473.752 126.061 473.691 126.035C473.63 126.009 473.565 125.995 473.498 125.995C473.432 125.994 473.366 126.007 473.305 126.032C473.244 126.057 473.188 126.094 473.141 126.141C473.094 126.188 473.057 126.244 473.032 126.305C473.007 126.367 472.994 126.432 472.995 126.499C472.995 126.565 473.009 126.63 473.035 126.691C473.061 126.752 473.099 126.807 473.147 126.854L478.793 132.5L473.147 138.147C473.099 138.193 473.061 138.248 473.035 138.309C473.009 138.37 472.995 138.435 472.995 138.502C472.994 138.568 473.007 138.634 473.032 138.695C473.057 138.756 473.094 138.812 473.141 138.859C473.188 138.906 473.244 138.943 473.305 138.968C473.366 138.993 473.432 139.006 473.498 139.005C473.565 139.005 473.63 138.991 473.691 138.965C473.752 138.939 473.807 138.901 473.854 138.854L479.854 132.854C479.947 132.76 480 132.633 480 132.5C480 132.368 479.947 132.24 479.854 132.147Z" fill="white" fill-opacity="0.95"/>
</g>
<path d="M0 247H555C555 259.703 544.703 270 532 270H23C10.2975 270 0 259.703 0 247Z" fill="url(#paint1_linear_2110_63099)"/>
<defs>
<linearGradient id="paint0_linear_2110_63099" x1="515" y1="31.8011" x2="515" y2="48.1999" gradientUnits="userSpaceOnUse">
<stop stop-color="#3CC29A"/>
<stop offset="1" stop-color="#93C437"/>
</linearGradient>
<linearGradient id="paint1_linear_2110_63099" x1="277.5" y1="247" x2="277.5" y2="270" gradientUnits="userSpaceOnUse">
<stop stop-color="#3CC29A"/>
<stop offset="1" stop-color="#93C437"/>
</linearGradient>
<clipPath id="clip0_2110_63099">
<rect width="430" height="32" fill="white" transform="translate(62.5 116.5)"/>
</clipPath>
<clipPath id="clip1_2110_63099">
<rect width="342" height="32" fill="white" transform="translate(106.5 116.5)"/>
</clipPath>
</defs>
</svg>
