<svg width="555" height="232" viewBox="0 0 555 232" fill="none" xmlns="http://www.w3.org/2000/svg">
<rect width="555" height="232" rx="16" fill="#1A1A1A"/>
<g clip-path="url(#clip0_2110_63345)">
<g clip-path="url(#clip1_2110_63345)">
<rect x="58.5" y="100" width="117" height="32" rx="16" fill="white" fill-opacity="0.2"/>
<path d="M73.4885 122.5C72.9582 122.508 72.432 122.407 71.9419 122.204C71.8223 122.15 71.719 122.065 71.6422 121.958C71.5653 121.852 71.5177 121.727 71.5039 121.596C71.4899 121.467 71.5105 121.336 71.5633 121.218C71.6162 121.099 71.6996 120.996 71.805 120.92C71.8655 120.876 71.9356 120.831 72.0128 120.782C72.4938 120.503 72.8605 120.063 73.0478 119.54C72.2604 118.328 71.8995 116.888 72.0223 115.447C72.145 114.007 72.7444 112.648 73.7256 111.587C74.7068 110.525 76.0139 109.821 77.4402 109.585C78.8665 109.35 80.3306 109.596 81.6011 110.286C82.8716 110.976 83.8759 112.069 84.4554 113.394C85.0348 114.718 85.1562 116.198 84.8005 117.599C84.4447 119 83.6321 120.243 82.491 121.13C81.35 122.018 79.9456 122.5 78.5 122.5C77.5397 122.5 76.5914 122.287 75.7226 121.878C75.0496 122.288 74.2764 122.503 73.4885 122.5ZM72.8315 121.437C73.2739 121.527 73.7299 121.524 74.1714 121.431C74.6129 121.338 75.0307 121.155 75.3991 120.894C75.4748 120.841 75.5638 120.809 75.6563 120.803C75.7489 120.797 75.8412 120.817 75.9231 120.861C77.1146 121.493 78.4969 121.666 79.8073 121.346C81.1178 121.026 82.2651 120.236 83.0313 119.126C83.7975 118.016 84.1293 116.663 83.9636 115.324C83.7978 113.986 83.1462 112.754 82.1323 111.865C81.1185 110.975 79.8132 110.488 78.4643 110.498C77.1154 110.507 75.817 111.012 74.8157 111.916C73.8143 112.819 73.1799 114.06 73.0329 115.4C72.8858 116.741 73.2364 118.09 74.0181 119.189C74.0656 119.256 74.096 119.333 74.1067 119.414C74.1173 119.495 74.1079 119.578 74.0791 119.654C73.8565 120.363 73.4208 120.985 72.8315 121.437Z" fill="white" fill-opacity="0.95"/>
<path d="M96.0551 110.818H97.9195L101.161 118.733H101.28L104.522 110.818H106.386V121H104.924V113.632H104.83L101.827 120.985H100.614L97.6112 113.627H97.5168V121H96.0551V110.818ZM111.791 121.154C111.039 121.154 110.391 120.993 109.848 120.672C109.307 120.347 108.89 119.891 108.595 119.305C108.303 118.715 108.157 118.024 108.157 117.232C108.157 116.449 108.303 115.76 108.595 115.163C108.89 114.567 109.301 114.101 109.828 113.766C110.358 113.432 110.978 113.264 111.687 113.264C112.118 113.264 112.536 113.335 112.94 113.478C113.344 113.621 113.707 113.844 114.029 114.149C114.35 114.454 114.604 114.85 114.789 115.337C114.975 115.821 115.068 116.41 115.068 117.102V117.629H108.997V116.516H113.611C113.611 116.125 113.532 115.778 113.372 115.477C113.213 115.172 112.99 114.931 112.701 114.756C112.416 114.58 112.081 114.492 111.697 114.492C111.279 114.492 110.915 114.595 110.603 114.8C110.295 115.003 110.056 115.268 109.887 115.596C109.722 115.921 109.639 116.274 109.639 116.655V117.525C109.639 118.035 109.728 118.469 109.907 118.827C110.09 119.185 110.343 119.459 110.668 119.648C110.993 119.833 111.372 119.926 111.806 119.926C112.088 119.926 112.345 119.886 112.577 119.807C112.809 119.724 113.009 119.601 113.179 119.439C113.348 119.277 113.477 119.076 113.566 118.837L114.973 119.091C114.861 119.505 114.658 119.868 114.367 120.18C114.078 120.488 113.715 120.728 113.278 120.901C112.844 121.07 112.348 121.154 111.791 121.154ZM122.439 115.228L121.092 115.467C121.036 115.294 120.946 115.13 120.824 114.974C120.704 114.819 120.542 114.691 120.336 114.592C120.131 114.492 119.874 114.442 119.566 114.442C119.145 114.442 118.794 114.537 118.512 114.726C118.23 114.911 118.089 115.152 118.089 115.447C118.089 115.702 118.184 115.907 118.373 116.063C118.562 116.219 118.866 116.347 119.287 116.446L120.5 116.724C121.203 116.887 121.727 117.137 122.071 117.475C122.416 117.813 122.589 118.252 122.589 118.793C122.589 119.25 122.456 119.658 122.191 120.016C121.929 120.37 121.563 120.649 121.092 120.851C120.625 121.053 120.083 121.154 119.466 121.154C118.611 121.154 117.914 120.972 117.373 120.607C116.833 120.239 116.502 119.717 116.379 119.041L117.816 118.822C117.905 119.197 118.089 119.48 118.368 119.673C118.646 119.862 119.009 119.956 119.456 119.956C119.944 119.956 120.333 119.855 120.625 119.653C120.916 119.447 121.062 119.197 121.062 118.902C121.062 118.663 120.973 118.463 120.794 118.3C120.618 118.138 120.348 118.015 119.983 117.933L118.691 117.649C117.978 117.487 117.451 117.228 117.11 116.874C116.772 116.519 116.603 116.07 116.603 115.526C116.603 115.076 116.729 114.681 116.981 114.343C117.232 114.005 117.58 113.741 118.025 113.553C118.469 113.36 118.977 113.264 119.551 113.264C120.376 113.264 121.026 113.443 121.5 113.801C121.974 114.156 122.287 114.631 122.439 115.228ZM129.945 115.228L128.598 115.467C128.542 115.294 128.452 115.13 128.329 114.974C128.21 114.819 128.048 114.691 127.842 114.592C127.637 114.492 127.38 114.442 127.072 114.442C126.651 114.442 126.299 114.537 126.018 114.726C125.736 114.911 125.595 115.152 125.595 115.447C125.595 115.702 125.69 115.907 125.878 116.063C126.067 116.219 126.372 116.347 126.793 116.446L128.006 116.724C128.709 116.887 129.233 117.137 129.577 117.475C129.922 117.813 130.094 118.252 130.094 118.793C130.094 119.25 129.962 119.658 129.697 120.016C129.435 120.37 129.069 120.649 128.598 120.851C128.131 121.053 127.589 121.154 126.972 121.154C126.117 121.154 125.419 120.972 124.879 120.607C124.339 120.239 124.007 119.717 123.885 119.041L125.322 118.822C125.411 119.197 125.595 119.48 125.873 119.673C126.152 119.862 126.515 119.956 126.962 119.956C127.449 119.956 127.839 119.855 128.131 119.653C128.422 119.447 128.568 119.197 128.568 118.902C128.568 118.663 128.479 118.463 128.3 118.3C128.124 118.138 127.854 118.015 127.489 117.933L126.197 117.649C125.484 117.487 124.957 117.228 124.616 116.874C124.278 116.519 124.109 116.07 124.109 115.526C124.109 115.076 124.235 114.681 124.486 114.343C124.738 114.005 125.086 113.741 125.53 113.553C125.975 113.36 126.483 113.264 127.057 113.264C127.882 113.264 128.532 113.443 129.006 113.801C129.48 114.156 129.793 114.631 129.945 115.228ZM133.951 121.169C133.467 121.169 133.03 121.08 132.639 120.901C132.247 120.718 131.938 120.455 131.709 120.11C131.484 119.765 131.371 119.343 131.371 118.842C131.371 118.411 131.454 118.057 131.619 117.778C131.785 117.5 132.009 117.28 132.291 117.117C132.572 116.955 132.887 116.832 133.235 116.749C133.583 116.666 133.938 116.603 134.299 116.56C134.756 116.507 135.128 116.464 135.413 116.431C135.698 116.395 135.905 116.337 136.034 116.257C136.163 116.178 136.228 116.048 136.228 115.869V115.835C136.228 115.4 136.105 115.064 135.86 114.825C135.618 114.587 135.257 114.467 134.776 114.467C134.276 114.467 133.881 114.578 133.593 114.8C133.308 115.019 133.111 115.263 133.002 115.531L131.604 115.213C131.77 114.749 132.012 114.375 132.33 114.089C132.652 113.801 133.021 113.592 133.439 113.463C133.857 113.33 134.296 113.264 134.756 113.264C135.061 113.264 135.385 113.301 135.726 113.374C136.071 113.443 136.392 113.572 136.69 113.761C136.992 113.95 137.239 114.22 137.431 114.572C137.623 114.92 137.72 115.372 137.72 115.929V121H136.268V119.956H136.208C136.112 120.148 135.968 120.337 135.776 120.523C135.583 120.708 135.336 120.862 135.035 120.985C134.733 121.108 134.372 121.169 133.951 121.169ZM134.274 119.976C134.685 119.976 135.037 119.895 135.328 119.732C135.623 119.57 135.847 119.358 135.999 119.096C136.155 118.831 136.233 118.547 136.233 118.246V117.261C136.18 117.314 136.077 117.364 135.925 117.411C135.776 117.454 135.605 117.492 135.413 117.525C135.22 117.555 135.033 117.583 134.851 117.609C134.669 117.633 134.516 117.652 134.394 117.669C134.105 117.705 133.842 117.767 133.603 117.853C133.368 117.939 133.179 118.063 133.036 118.226C132.897 118.385 132.828 118.597 132.828 118.862C132.828 119.23 132.963 119.509 133.235 119.697C133.507 119.883 133.853 119.976 134.274 119.976ZM142.901 124.023C142.295 124.023 141.773 123.943 141.335 123.784C140.901 123.625 140.546 123.415 140.271 123.153C139.996 122.891 139.791 122.604 139.655 122.293L140.932 121.766C141.022 121.911 141.141 122.066 141.29 122.228C141.443 122.394 141.648 122.535 141.907 122.651C142.169 122.767 142.505 122.825 142.916 122.825C143.48 122.825 143.945 122.687 144.313 122.412C144.681 122.14 144.865 121.706 144.865 121.109V119.608H144.771C144.681 119.77 144.552 119.951 144.383 120.15C144.217 120.349 143.988 120.521 143.697 120.667C143.405 120.813 143.025 120.886 142.558 120.886C141.955 120.886 141.411 120.745 140.927 120.463C140.447 120.178 140.066 119.759 139.784 119.205C139.506 118.648 139.366 117.964 139.366 117.152C139.366 116.34 139.504 115.644 139.779 115.064C140.057 114.484 140.439 114.04 140.922 113.732C141.406 113.42 141.955 113.264 142.568 113.264C143.042 113.264 143.425 113.344 143.717 113.503C144.008 113.659 144.235 113.841 144.398 114.05C144.563 114.259 144.691 114.442 144.78 114.602H144.89V113.364H146.347V121.169C146.347 121.825 146.194 122.364 145.889 122.785C145.584 123.206 145.172 123.517 144.651 123.719C144.134 123.922 143.551 124.023 142.901 124.023ZM142.886 119.653C143.314 119.653 143.675 119.553 143.97 119.354C144.268 119.152 144.494 118.864 144.646 118.489C144.802 118.112 144.88 117.659 144.88 117.132C144.88 116.618 144.804 116.166 144.651 115.775C144.499 115.384 144.275 115.079 143.98 114.86C143.685 114.638 143.32 114.527 142.886 114.527C142.439 114.527 142.066 114.643 141.768 114.875C141.469 115.104 141.244 115.415 141.092 115.81C140.942 116.204 140.868 116.645 140.868 117.132C140.868 117.633 140.944 118.072 141.097 118.45C141.249 118.827 141.474 119.122 141.773 119.335C142.074 119.547 142.445 119.653 142.886 119.653ZM151.631 121.154C150.879 121.154 150.231 120.993 149.687 120.672C149.147 120.347 148.73 119.891 148.435 119.305C148.143 118.715 147.997 118.024 147.997 117.232C147.997 116.449 148.143 115.76 148.435 115.163C148.73 114.567 149.141 114.101 149.668 113.766C150.198 113.432 150.818 113.264 151.527 113.264C151.958 113.264 152.375 113.335 152.78 113.478C153.184 113.621 153.547 113.844 153.869 114.149C154.19 114.454 154.444 114.85 154.629 115.337C154.815 115.821 154.908 116.41 154.908 117.102V117.629H148.837V116.516H153.451C153.451 116.125 153.371 115.778 153.212 115.477C153.053 115.172 152.829 114.931 152.541 114.756C152.256 114.58 151.921 114.492 151.537 114.492C151.119 114.492 150.755 114.595 150.443 114.8C150.135 115.003 149.896 115.268 149.727 115.596C149.561 115.921 149.479 116.274 149.479 116.655V117.525C149.479 118.035 149.568 118.469 149.747 118.827C149.929 119.185 150.183 119.459 150.508 119.648C150.833 119.833 151.212 119.926 151.646 119.926C151.928 119.926 152.185 119.886 152.417 119.807C152.649 119.724 152.849 119.601 153.018 119.439C153.187 119.277 153.317 119.076 153.406 118.837L154.813 119.091C154.7 119.505 154.498 119.868 154.207 120.18C153.918 120.488 153.555 120.728 153.118 120.901C152.684 121.07 152.188 121.154 151.631 121.154ZM162.279 115.228L160.932 115.467C160.876 115.294 160.786 115.13 160.663 114.974C160.544 114.819 160.382 114.691 160.176 114.592C159.971 114.492 159.714 114.442 159.406 114.442C158.985 114.442 158.633 114.537 158.352 114.726C158.07 114.911 157.929 115.152 157.929 115.447C157.929 115.702 158.024 115.907 158.212 116.063C158.401 116.219 158.706 116.347 159.127 116.446L160.34 116.724C161.043 116.887 161.567 117.137 161.911 117.475C162.256 117.813 162.428 118.252 162.428 118.793C162.428 119.25 162.296 119.658 162.031 120.016C161.769 120.37 161.403 120.649 160.932 120.851C160.465 121.053 159.923 121.154 159.306 121.154C158.451 121.154 157.753 120.972 157.213 120.607C156.673 120.239 156.341 119.717 156.219 119.041L157.656 118.822C157.745 119.197 157.929 119.48 158.207 119.673C158.486 119.862 158.849 119.956 159.296 119.956C159.783 119.956 160.173 119.855 160.465 119.653C160.756 119.447 160.902 119.197 160.902 118.902C160.902 118.663 160.813 118.463 160.634 118.3C160.458 118.138 160.188 118.015 159.823 117.933L158.531 117.649C157.818 117.487 157.291 117.228 156.95 116.874C156.612 116.519 156.443 116.07 156.443 115.526C156.443 115.076 156.569 114.681 156.82 114.343C157.072 114.005 157.42 113.741 157.864 113.553C158.309 113.36 158.817 113.264 159.391 113.264C160.216 113.264 160.866 113.443 161.34 113.801C161.814 114.156 162.127 114.631 162.279 115.228Z" fill="white" fill-opacity="0.95"/>
<path d="M210.5 116C210.504 114.38 209.947 112.808 208.924 111.552C207.901 110.295 206.474 109.432 204.887 109.108C203.299 108.784 201.648 109.019 200.215 109.774C198.781 110.529 197.653 111.757 197.021 113.249C196.39 114.741 196.294 116.406 196.751 117.96C197.207 119.515 198.188 120.863 199.526 121.777C200.864 122.691 202.477 123.114 204.091 122.974C205.705 122.833 207.221 122.139 208.381 121.008C208.391 120.999 208.4 120.992 208.409 120.983C209.071 120.333 209.597 119.558 209.956 118.702C210.316 117.847 210.5 116.928 210.5 116ZM203.5 110C204.63 109.999 205.737 110.317 206.694 110.917C207.651 111.518 208.418 112.377 208.908 113.395C209.398 114.413 209.59 115.549 209.462 116.672C209.334 117.794 208.891 118.858 208.185 119.739C207.565 118.629 206.57 117.777 205.377 117.337C205.862 116.948 206.214 116.418 206.385 115.821C206.556 115.223 206.537 114.588 206.331 114.001C206.124 113.415 205.741 112.907 205.234 112.548C204.727 112.189 204.121 111.996 203.5 111.996C202.879 111.996 202.273 112.189 201.766 112.549C201.259 112.908 200.876 113.416 200.67 114.002C200.464 114.588 200.445 115.224 200.616 115.821C200.787 116.419 201.139 116.948 201.624 117.337C200.432 117.78 199.437 118.632 198.817 119.741C198.111 118.86 197.667 117.796 197.539 116.674C197.411 115.551 197.602 114.415 198.092 113.396C198.581 112.378 199.349 111.519 200.306 110.918C201.263 110.317 202.37 109.999 203.5 110ZM201.5 115C201.5 114.604 201.618 114.218 201.837 113.889C202.057 113.56 202.369 113.303 202.735 113.152C203.1 113.001 203.502 112.961 203.89 113.038C204.278 113.115 204.635 113.306 204.914 113.586C205.194 113.865 205.385 114.222 205.462 114.61C205.539 114.998 205.499 115.4 205.348 115.765C205.197 116.131 204.94 116.443 204.611 116.663C204.282 116.883 203.896 117 203.5 117C202.97 116.999 202.462 116.788 202.087 116.414C201.712 116.039 201.501 115.53 201.5 115ZM199.554 120.509C199.906 119.759 200.463 119.124 201.162 118.68C201.861 118.236 202.672 118 203.5 118C204.328 118 205.139 118.236 205.838 118.68C206.537 119.124 207.095 119.759 207.446 120.509C206.356 121.47 204.953 122 203.5 122C202.047 122 200.644 121.47 199.554 120.509Z" fill="white" fill-opacity="0.95"/>
<path d="M220.691 121V110.818H224.32C225.112 110.818 225.769 110.962 226.289 111.251C226.809 111.539 227.199 111.933 227.457 112.434C227.716 112.931 227.845 113.491 227.845 114.114C227.845 114.741 227.714 115.304 227.452 115.805C227.194 116.302 226.803 116.696 226.279 116.988C225.759 117.276 225.104 117.42 224.315 117.42H221.819V116.118H224.176C224.676 116.118 225.082 116.032 225.394 115.859C225.706 115.684 225.934 115.445 226.08 115.143C226.226 114.842 226.299 114.499 226.299 114.114C226.299 113.73 226.226 113.388 226.08 113.09C225.934 112.792 225.704 112.558 225.389 112.389C225.077 112.22 224.666 112.136 224.156 112.136H222.227V121H220.691ZM232.722 121.154C231.97 121.154 231.322 120.993 230.778 120.672C230.238 120.347 229.82 119.891 229.525 119.305C229.234 118.715 229.088 118.024 229.088 117.232C229.088 116.449 229.234 115.76 229.525 115.163C229.82 114.567 230.231 114.101 230.758 113.766C231.289 113.432 231.908 113.264 232.618 113.264C233.049 113.264 233.466 113.335 233.871 113.478C234.275 113.621 234.638 113.844 234.959 114.149C235.281 114.454 235.534 114.85 235.72 115.337C235.906 115.821 235.998 116.41 235.998 117.102V117.629H229.928V116.516H234.542C234.542 116.125 234.462 115.778 234.303 115.477C234.144 115.172 233.92 114.931 233.632 114.756C233.347 114.58 233.012 114.492 232.628 114.492C232.21 114.492 231.845 114.595 231.534 114.8C231.226 115.003 230.987 115.268 230.818 115.596C230.652 115.921 230.569 116.274 230.569 116.655V117.525C230.569 118.035 230.659 118.469 230.838 118.827C231.02 119.185 231.274 119.459 231.599 119.648C231.923 119.833 232.303 119.926 232.737 119.926C233.019 119.926 233.276 119.886 233.508 119.807C233.74 119.724 233.94 119.601 234.109 119.439C234.278 119.277 234.407 119.076 234.497 118.837L235.904 119.091C235.791 119.505 235.589 119.868 235.297 120.18C235.009 120.488 234.646 120.728 234.209 120.901C233.774 121.07 233.279 121.154 232.722 121.154ZM240.864 121.154C240.148 121.154 239.524 120.99 238.99 120.662C238.456 120.334 238.042 119.875 237.747 119.285C237.452 118.695 237.305 118.005 237.305 117.217C237.305 116.424 237.452 115.732 237.747 115.138C238.042 114.545 238.456 114.085 238.99 113.756C239.524 113.428 240.148 113.264 240.864 113.264C241.58 113.264 242.205 113.428 242.739 113.756C243.272 114.085 243.687 114.545 243.982 115.138C244.277 115.732 244.424 116.424 244.424 117.217C244.424 118.005 244.277 118.695 243.982 119.285C243.687 119.875 243.272 120.334 242.739 120.662C242.205 120.99 241.58 121.154 240.864 121.154ZM240.869 119.906C241.333 119.906 241.718 119.784 242.023 119.538C242.328 119.293 242.553 118.967 242.699 118.559C242.848 118.151 242.923 117.702 242.923 117.212C242.923 116.724 242.848 116.277 242.699 115.869C242.553 115.458 242.328 115.129 242.023 114.88C241.718 114.631 241.333 114.507 240.869 114.507C240.402 114.507 240.014 114.631 239.706 114.88C239.401 115.129 239.174 115.458 239.025 115.869C238.879 116.277 238.806 116.724 238.806 117.212C238.806 117.702 238.879 118.151 239.025 118.559C239.174 118.967 239.401 119.293 239.706 119.538C240.014 119.784 240.402 119.906 240.869 119.906ZM246.083 123.864V113.364H247.535V114.602H247.659C247.745 114.442 247.87 114.259 248.032 114.05C248.195 113.841 248.42 113.659 248.708 113.503C248.997 113.344 249.378 113.264 249.852 113.264C250.468 113.264 251.018 113.42 251.502 113.732C251.986 114.043 252.366 114.492 252.641 115.079C252.919 115.665 253.058 116.371 253.058 117.197C253.058 118.022 252.921 118.73 252.646 119.32C252.371 119.906 251.993 120.359 251.512 120.677C251.032 120.992 250.483 121.149 249.867 121.149C249.403 121.149 249.023 121.071 248.728 120.915C248.436 120.76 248.208 120.577 248.042 120.369C247.876 120.16 247.749 119.974 247.659 119.812H247.57V123.864H246.083ZM247.54 117.182C247.54 117.719 247.618 118.189 247.774 118.594C247.929 118.998 248.155 119.315 248.45 119.543C248.745 119.769 249.106 119.881 249.534 119.881C249.978 119.881 250.349 119.764 250.647 119.528C250.945 119.29 251.171 118.967 251.323 118.559C251.479 118.151 251.557 117.692 251.557 117.182C251.557 116.678 251.481 116.226 251.328 115.825C251.179 115.424 250.954 115.107 250.652 114.875C250.354 114.643 249.981 114.527 249.534 114.527C249.103 114.527 248.738 114.638 248.44 114.86C248.145 115.082 247.921 115.392 247.769 115.79C247.616 116.187 247.54 116.652 247.54 117.182ZM256.21 110.818V121H254.724V110.818H256.21ZM261.501 121.154C260.749 121.154 260.101 120.993 259.558 120.672C259.017 120.347 258.6 119.891 258.305 119.305C258.013 118.715 257.867 118.024 257.867 117.232C257.867 116.449 258.013 115.76 258.305 115.163C258.6 114.567 259.011 114.101 259.538 113.766C260.068 113.432 260.688 113.264 261.397 113.264C261.828 113.264 262.246 113.335 262.65 113.478C263.054 113.621 263.417 113.844 263.739 114.149C264.06 114.454 264.314 114.85 264.499 115.337C264.685 115.821 264.778 116.41 264.778 117.102V117.629H258.707V116.516H263.321C263.321 116.125 263.241 115.778 263.082 115.477C262.923 115.172 262.7 114.931 262.411 114.756C262.126 114.58 261.791 114.492 261.407 114.492C260.989 114.492 260.625 114.595 260.313 114.8C260.005 115.003 259.766 115.268 259.597 115.596C259.432 115.921 259.349 116.274 259.349 116.655V117.525C259.349 118.035 259.438 118.469 259.617 118.827C259.799 119.185 260.053 119.459 260.378 119.648C260.703 119.833 261.082 119.926 261.516 119.926C261.798 119.926 262.055 119.886 262.287 119.807C262.519 119.724 262.719 119.601 262.888 119.439C263.058 119.277 263.187 119.076 263.276 118.837L264.683 119.091C264.571 119.505 264.368 119.868 264.077 120.18C263.788 120.488 263.425 120.728 262.988 120.901C262.554 121.07 262.058 121.154 261.501 121.154Z" fill="white" fill-opacity="0.7"/>
<path d="M307.25 115.501C307.596 115.501 307.934 115.398 308.222 115.206C308.51 115.013 308.734 114.74 308.867 114.42C308.999 114.1 309.034 113.749 308.966 113.409C308.899 113.07 308.732 112.758 308.487 112.513C308.242 112.268 307.931 112.102 307.591 112.034C307.252 111.967 306.9 112.001 306.58 112.134C306.26 112.266 305.987 112.49 305.795 112.778C305.602 113.066 305.5 113.404 305.5 113.751C305.5 114.214 305.685 114.659 306.013 114.987C306.341 115.315 306.786 115.5 307.25 115.501ZM307.25 113.001C307.398 113.001 307.543 113.044 307.666 113.127C307.79 113.209 307.886 113.326 307.943 113.463C307.999 113.601 308.014 113.751 307.985 113.897C307.956 114.042 307.885 114.176 307.78 114.281C307.675 114.386 307.542 114.457 307.396 114.486C307.251 114.515 307.1 114.5 306.963 114.443C306.826 114.387 306.709 114.291 306.626 114.167C306.544 114.044 306.5 113.899 306.5 113.751C306.5 113.552 306.579 113.361 306.72 113.22C306.86 113.08 307.051 113.001 307.25 113.001Z" fill="white" fill-opacity="0.95"/>
<path d="M309 109H302C301.337 109.001 300.702 109.264 300.233 109.733C299.764 110.202 299.501 110.837 299.5 111.5V120.5C299.501 121.163 299.764 121.798 300.233 122.267C300.702 122.736 301.337 122.999 302 123H309C309.663 122.999 310.298 122.736 310.767 122.267C311.235 121.798 311.499 121.163 311.5 120.5V111.5C311.499 110.837 311.235 110.202 310.767 109.733C310.298 109.264 309.663 109.001 309 109ZM302 110H309C309.397 110 309.779 110.159 310.06 110.44C310.341 110.721 310.499 111.102 310.5 111.5V120.5C310.499 120.818 310.396 121.128 310.206 121.384L306.254 116.831C306.009 116.557 305.706 116.342 305.368 116.199C305.03 116.056 304.664 115.989 304.297 116.003C303.931 116.017 303.571 116.112 303.245 116.281C302.919 116.449 302.634 116.688 302.41 116.979L300.5 119.442V111.5C300.5 111.102 300.658 110.721 300.94 110.44C301.221 110.159 301.602 110 302 110ZM302 122C301.685 121.999 301.378 121.899 301.124 121.713C300.869 121.528 300.68 121.267 300.582 120.968L303.202 117.589C303.336 117.414 303.507 117.27 303.703 117.169C303.899 117.067 304.115 117.01 304.335 117.002C304.554 116.991 304.773 117.03 304.975 117.115C305.178 117.199 305.359 117.328 305.505 117.492L309.372 121.948C309.251 121.981 309.125 121.998 309 122H302Z" fill="white" fill-opacity="0.95"/>
<path d="M331.566 114.129H330.015C329.956 113.798 329.845 113.506 329.682 113.254C329.52 113.002 329.321 112.789 329.086 112.613C328.85 112.437 328.587 112.305 328.295 112.215C328.007 112.126 327.7 112.081 327.375 112.081C326.789 112.081 326.263 112.228 325.799 112.523C325.339 112.818 324.974 113.251 324.706 113.821C324.441 114.391 324.308 115.087 324.308 115.909C324.308 116.738 324.441 117.437 324.706 118.007C324.974 118.577 325.34 119.008 325.804 119.3C326.268 119.591 326.79 119.737 327.37 119.737C327.692 119.737 327.997 119.694 328.285 119.608C328.577 119.518 328.84 119.388 329.076 119.215C329.311 119.043 329.51 118.832 329.672 118.584C329.838 118.332 329.952 118.044 330.015 117.719L331.566 117.724C331.484 118.224 331.323 118.685 331.084 119.106C330.849 119.523 330.546 119.885 330.174 120.19C329.807 120.491 329.386 120.725 328.912 120.891C328.438 121.056 327.921 121.139 327.361 121.139C326.479 121.139 325.693 120.93 325.004 120.513C324.315 120.092 323.771 119.49 323.373 118.708C322.979 117.926 322.782 116.993 322.782 115.909C322.782 114.822 322.981 113.889 323.378 113.11C323.776 112.328 324.32 111.728 325.009 111.31C325.698 110.889 326.482 110.679 327.361 110.679C327.901 110.679 328.405 110.757 328.872 110.913C329.343 111.065 329.765 111.29 330.14 111.589C330.514 111.884 330.824 112.245 331.069 112.673C331.315 113.097 331.48 113.582 331.566 114.129ZM336.502 121.154C335.786 121.154 335.161 120.99 334.628 120.662C334.094 120.334 333.68 119.875 333.385 119.285C333.09 118.695 332.942 118.005 332.942 117.217C332.942 116.424 333.09 115.732 333.385 115.138C333.68 114.545 334.094 114.085 334.628 113.756C335.161 113.428 335.786 113.264 336.502 113.264C337.218 113.264 337.843 113.428 338.376 113.756C338.91 114.085 339.324 114.545 339.619 115.138C339.914 115.732 340.062 116.424 340.062 117.217C340.062 118.005 339.914 118.695 339.619 119.285C339.324 119.875 338.91 120.334 338.376 120.662C337.843 120.99 337.218 121.154 336.502 121.154ZM336.507 119.906C336.971 119.906 337.355 119.784 337.66 119.538C337.965 119.293 338.191 118.967 338.337 118.559C338.486 118.151 338.56 117.702 338.56 117.212C338.56 116.724 338.486 116.277 338.337 115.869C338.191 115.458 337.965 115.129 337.66 114.88C337.355 114.631 336.971 114.507 336.507 114.507C336.04 114.507 335.652 114.631 335.344 114.88C335.039 115.129 334.812 115.458 334.663 115.869C334.517 116.277 334.444 116.724 334.444 117.212C334.444 117.702 334.517 118.151 334.663 118.559C334.812 118.967 335.039 119.293 335.344 119.538C335.652 119.784 336.04 119.906 336.507 119.906ZM343.207 116.466V121H341.721V113.364H343.148V114.607H343.242C343.418 114.202 343.693 113.877 344.068 113.632C344.445 113.387 344.921 113.264 345.494 113.264C346.015 113.264 346.47 113.374 346.862 113.592C347.253 113.808 347.556 114.129 347.771 114.557C347.987 114.984 348.095 115.513 348.095 116.143V121H346.608V116.322C346.608 115.768 346.464 115.336 346.176 115.024C345.887 114.709 345.491 114.552 344.987 114.552C344.643 114.552 344.336 114.626 344.068 114.776C343.802 114.925 343.592 115.143 343.436 115.432C343.284 115.717 343.207 116.062 343.207 116.466ZM353.653 113.364V114.557H349.482V113.364H353.653ZM350.6 111.534H352.087V118.758C352.087 119.046 352.13 119.263 352.216 119.409C352.302 119.552 352.413 119.649 352.549 119.702C352.688 119.752 352.839 119.777 353.002 119.777C353.121 119.777 353.225 119.769 353.315 119.752C353.404 119.736 353.474 119.722 353.524 119.712L353.792 120.94C353.706 120.973 353.583 121.007 353.424 121.04C353.265 121.076 353.066 121.096 352.828 121.099C352.436 121.106 352.072 121.036 351.734 120.891C351.396 120.745 351.122 120.519 350.913 120.214C350.705 119.91 350.6 119.527 350.6 119.066V111.534ZM358.506 121.154C357.754 121.154 357.106 120.993 356.562 120.672C356.022 120.347 355.605 119.891 355.31 119.305C355.018 118.715 354.872 118.024 354.872 117.232C354.872 116.449 355.018 115.76 355.31 115.163C355.605 114.567 356.016 114.101 356.543 113.766C357.073 113.432 357.693 113.264 358.402 113.264C358.833 113.264 359.25 113.335 359.655 113.478C360.059 113.621 360.422 113.844 360.744 114.149C361.065 114.454 361.319 114.85 361.504 115.337C361.69 115.821 361.783 116.41 361.783 117.102V117.629H355.712V116.516H360.326C360.326 116.125 360.246 115.778 360.087 115.477C359.928 115.172 359.704 114.931 359.416 114.756C359.131 114.58 358.796 114.492 358.412 114.492C357.994 114.492 357.63 114.595 357.318 114.8C357.01 115.003 356.771 115.268 356.602 115.596C356.436 115.921 356.354 116.274 356.354 116.655V117.525C356.354 118.035 356.443 118.469 356.622 118.827C356.804 119.185 357.058 119.459 357.383 119.648C357.708 119.833 358.087 119.926 358.521 119.926C358.803 119.926 359.06 119.886 359.292 119.807C359.524 119.724 359.724 119.601 359.893 119.439C360.062 119.277 360.192 119.076 360.281 118.837L361.688 119.091C361.575 119.505 361.373 119.868 361.082 120.18C360.793 120.488 360.43 120.728 359.993 120.901C359.559 121.07 359.063 121.154 358.506 121.154ZM364.918 116.466V121H363.432V113.364H364.859V114.607H364.953C365.129 114.202 365.404 113.877 365.778 113.632C366.156 113.387 366.632 113.264 367.205 113.264C367.726 113.264 368.181 113.374 368.573 113.592C368.964 113.808 369.267 114.129 369.482 114.557C369.698 114.984 369.805 115.513 369.805 116.143V121H368.319V116.322C368.319 115.768 368.175 115.336 367.886 115.024C367.598 114.709 367.202 114.552 366.698 114.552C366.354 114.552 366.047 114.626 365.778 114.776C365.513 114.925 365.303 115.143 365.147 115.432C364.995 115.717 364.918 116.062 364.918 116.466ZM375.364 113.364V114.557H371.193V113.364H375.364ZM372.311 111.534H373.798V118.758C373.798 119.046 373.841 119.263 373.927 119.409C374.013 119.552 374.124 119.649 374.26 119.702C374.399 119.752 374.55 119.777 374.712 119.777C374.832 119.777 374.936 119.769 375.026 119.752C375.115 119.736 375.185 119.722 375.234 119.712L375.503 120.94C375.417 120.973 375.294 121.007 375.135 121.04C374.976 121.076 374.777 121.096 374.538 121.099C374.147 121.106 373.783 121.036 373.445 120.891C373.107 120.745 372.833 120.519 372.624 120.214C372.416 119.91 372.311 119.527 372.311 119.066V111.534Z" fill="white" fill-opacity="0.7"/>
<path d="M416.5 114.125C416.845 114.125 417.125 113.845 417.125 113.5C417.125 113.155 416.845 112.875 416.5 112.875C416.155 112.875 415.875 113.155 415.875 113.5C415.875 113.845 416.155 114.125 416.5 114.125Z" fill="white" fill-opacity="0.95"/>
<path d="M416.5 117.125C416.845 117.125 417.125 116.845 417.125 116.5C417.125 116.155 416.845 115.875 416.5 115.875C416.155 115.875 415.875 116.155 415.875 116.5C415.875 116.845 416.155 117.125 416.5 117.125Z" fill="white" fill-opacity="0.95"/>
<path d="M416.5 120.125C416.845 120.125 417.125 119.845 417.125 119.5C417.125 119.155 416.845 118.875 416.5 118.875C416.155 118.875 415.875 119.155 415.875 119.5C415.875 119.845 416.155 120.125 416.5 120.125Z" fill="white" fill-opacity="0.95"/>
<path d="M413.5 114.125C413.845 114.125 414.125 113.845 414.125 113.5C414.125 113.155 413.845 112.875 413.5 112.875C413.155 112.875 412.875 113.155 412.875 113.5C412.875 113.845 413.155 114.125 413.5 114.125Z" fill="white" fill-opacity="0.95"/>
<path d="M420 110.5V109.5C420 109.368 419.947 109.24 419.854 109.147C419.76 109.053 419.633 109 419.5 109C419.367 109 419.24 109.053 419.146 109.147C419.053 109.24 419 109.368 419 109.5V110.5H414V109.5C414 109.368 413.947 109.24 413.854 109.147C413.76 109.053 413.633 109 413.5 109C413.367 109 413.24 109.053 413.146 109.147C413.053 109.24 413 109.368 413 109.5V110.5C412.337 110.501 411.702 110.764 411.233 111.233C410.764 111.702 410.501 112.337 410.5 113V120C410.501 120.663 410.764 121.298 411.233 121.767C411.702 122.235 412.337 122.499 413 122.5H420C420.663 122.499 421.298 122.235 421.767 121.767C422.236 121.298 422.499 120.663 422.5 120V113C422.499 112.337 422.236 111.702 421.767 111.233C421.298 110.764 420.663 110.501 420 110.5ZM421.5 120C421.5 120.397 421.341 120.779 421.06 121.06C420.779 121.341 420.398 121.499 420 121.5H413C412.602 121.499 412.221 121.341 411.94 121.06C411.659 120.779 411.5 120.397 411.5 120V113C411.5 112.602 411.659 112.221 411.94 111.94C412.221 111.658 412.602 111.5 413 111.5H420C420.398 111.5 420.779 111.658 421.06 111.94C421.341 112.221 421.5 112.602 421.5 113V120Z" fill="white" fill-opacity="0.95"/>
<path d="M413.5 117.125C413.845 117.125 414.125 116.845 414.125 116.5C414.125 116.155 413.845 115.875 413.5 115.875C413.155 115.875 412.875 116.155 412.875 116.5C412.875 116.845 413.155 117.125 413.5 117.125Z" fill="white" fill-opacity="0.95"/>
<path d="M413.5 120.125C413.845 120.125 414.125 119.845 414.125 119.5C414.125 119.155 413.845 118.875 413.5 118.875C413.155 118.875 412.875 119.155 412.875 119.5C412.875 119.845 413.155 120.125 413.5 120.125Z" fill="white" fill-opacity="0.95"/>
<path d="M419.5 114.125C419.845 114.125 420.125 113.845 420.125 113.5C420.125 113.155 419.845 112.875 419.5 112.875C419.155 112.875 418.875 113.155 418.875 113.5C418.875 113.845 419.155 114.125 419.5 114.125Z" fill="white" fill-opacity="0.95"/>
<path d="M419.5 117.125C419.845 117.125 420.125 116.845 420.125 116.5C420.125 116.155 419.845 115.875 419.5 115.875C419.155 115.875 418.875 116.155 418.875 116.5C418.875 116.845 419.155 117.125 419.5 117.125Z" fill="white" fill-opacity="0.95"/>
<path d="M419.5 120.125C419.845 120.125 420.125 119.845 420.125 119.5C420.125 119.155 419.845 118.875 419.5 118.875C419.155 118.875 418.875 119.155 418.875 119.5C418.875 119.845 419.155 120.125 419.5 120.125Z" fill="white" fill-opacity="0.95"/>
<path d="M434.659 121H433.029L436.693 110.818H438.468L442.132 121H440.501L437.622 112.668H437.543L434.659 121ZM434.933 117.013H440.223V118.305H434.933V117.013ZM446.561 124.023C445.955 124.023 445.433 123.943 444.995 123.784C444.561 123.625 444.206 123.415 443.931 123.153C443.656 122.891 443.451 122.604 443.315 122.293L444.593 121.766C444.682 121.911 444.801 122.066 444.951 122.228C445.103 122.394 445.309 122.535 445.567 122.651C445.829 122.767 446.165 122.825 446.576 122.825C447.14 122.825 447.605 122.687 447.973 122.412C448.341 122.14 448.525 121.706 448.525 121.109V119.608H448.431C448.341 119.77 448.212 119.951 448.043 120.15C447.877 120.349 447.648 120.521 447.357 120.667C447.065 120.813 446.686 120.886 446.218 120.886C445.615 120.886 445.072 120.745 444.588 120.463C444.107 120.178 443.726 119.759 443.444 119.205C443.166 118.648 443.027 117.964 443.027 117.152C443.027 116.34 443.164 115.644 443.439 115.064C443.718 114.484 444.099 114.04 444.583 113.732C445.067 113.42 445.615 113.264 446.228 113.264C446.702 113.264 447.085 113.344 447.377 113.503C447.668 113.659 447.895 113.841 448.058 114.05C448.224 114.259 448.351 114.442 448.441 114.602H448.55V113.364H450.007V121.169C450.007 121.825 449.854 122.364 449.549 122.785C449.244 123.206 448.832 123.517 448.311 123.719C447.794 123.922 447.211 124.023 446.561 124.023ZM446.546 119.653C446.974 119.653 447.335 119.553 447.63 119.354C447.929 119.152 448.154 118.864 448.306 118.489C448.462 118.112 448.54 117.659 448.54 117.132C448.54 116.618 448.464 116.166 448.311 115.775C448.159 115.384 447.935 115.079 447.64 114.86C447.345 114.638 446.981 114.527 446.546 114.527C446.099 114.527 445.726 114.643 445.428 114.875C445.13 115.104 444.904 115.415 444.752 115.81C444.603 116.204 444.528 116.645 444.528 117.132C444.528 117.633 444.604 118.072 444.757 118.45C444.909 118.827 445.134 119.122 445.433 119.335C445.734 119.547 446.106 119.653 446.546 119.653ZM455.291 121.154C454.539 121.154 453.891 120.993 453.348 120.672C452.807 120.347 452.39 119.891 452.095 119.305C451.803 118.715 451.657 118.024 451.657 117.232C451.657 116.449 451.803 115.76 452.095 115.163C452.39 114.567 452.801 114.101 453.328 113.766C453.858 113.432 454.478 113.264 455.187 113.264C455.618 113.264 456.036 113.335 456.44 113.478C456.844 113.621 457.207 113.844 457.529 114.149C457.85 114.454 458.104 114.85 458.289 115.337C458.475 115.821 458.568 116.41 458.568 117.102V117.629H452.497V116.516H457.111C457.111 116.125 457.032 115.778 456.872 115.477C456.713 115.172 456.49 114.931 456.201 114.756C455.916 114.58 455.581 114.492 455.197 114.492C454.779 114.492 454.415 114.595 454.103 114.8C453.795 115.003 453.556 115.268 453.387 115.596C453.222 115.921 453.139 116.274 453.139 116.655V117.525C453.139 118.035 453.228 118.469 453.407 118.827C453.59 119.185 453.843 119.459 454.168 119.648C454.493 119.833 454.872 119.926 455.306 119.926C455.588 119.926 455.845 119.886 456.077 119.807C456.309 119.724 456.509 119.601 456.679 119.439C456.848 119.277 456.977 119.076 457.066 118.837L458.473 119.091C458.361 119.505 458.158 119.868 457.867 120.18C457.578 120.488 457.215 120.728 456.778 120.901C456.344 121.07 455.848 121.154 455.291 121.154ZM461.704 116.466V121H460.217V113.364H461.644V114.607H461.738C461.914 114.202 462.189 113.877 462.564 113.632C462.941 113.387 463.417 113.264 463.991 113.264C464.511 113.264 464.967 113.374 465.358 113.592C465.749 113.808 466.052 114.129 466.267 114.557C466.483 114.984 466.591 115.513 466.591 116.143V121H465.104V116.322C465.104 115.768 464.96 115.336 464.672 115.024C464.383 114.709 463.987 114.552 463.483 114.552C463.139 114.552 462.832 114.626 462.564 114.776C462.299 114.925 462.088 115.143 461.932 115.432C461.78 115.717 461.704 116.062 461.704 116.466ZM471.443 121.149C470.826 121.149 470.276 120.992 469.792 120.677C469.312 120.359 468.934 119.906 468.659 119.32C468.387 118.73 468.251 118.022 468.251 117.197C468.251 116.371 468.389 115.665 468.664 115.079C468.942 114.492 469.323 114.043 469.807 113.732C470.291 113.42 470.84 113.264 471.453 113.264C471.927 113.264 472.308 113.344 472.596 113.503C472.888 113.659 473.113 113.841 473.272 114.05C473.435 114.259 473.561 114.442 473.65 114.602H473.74V110.818H475.226V121H473.775V119.812H473.65C473.561 119.974 473.432 120.16 473.263 120.369C473.097 120.577 472.868 120.76 472.576 120.915C472.285 121.071 471.907 121.149 471.443 121.149ZM471.771 119.881C472.199 119.881 472.56 119.769 472.855 119.543C473.153 119.315 473.379 118.998 473.531 118.594C473.687 118.189 473.765 117.719 473.765 117.182C473.765 116.652 473.688 116.187 473.536 115.79C473.383 115.392 473.16 115.082 472.865 114.86C472.57 114.638 472.205 114.527 471.771 114.527C471.324 114.527 470.951 114.643 470.652 114.875C470.354 115.107 470.129 115.424 469.976 115.825C469.827 116.226 469.753 116.678 469.753 117.182C469.753 117.692 469.829 118.151 469.981 118.559C470.134 118.967 470.359 119.29 470.657 119.528C470.959 119.764 471.33 119.881 471.771 119.881ZM479.57 121.169C479.086 121.169 478.649 121.08 478.258 120.901C477.867 120.718 477.557 120.455 477.328 120.11C477.103 119.765 476.99 119.343 476.99 118.842C476.99 118.411 477.073 118.057 477.239 117.778C477.404 117.5 477.628 117.28 477.91 117.117C478.191 116.955 478.506 116.832 478.854 116.749C479.202 116.666 479.557 116.603 479.918 116.56C480.376 116.507 480.747 116.464 481.032 116.431C481.317 116.395 481.524 116.337 481.653 116.257C481.783 116.178 481.847 116.048 481.847 115.869V115.835C481.847 115.4 481.725 115.064 481.479 114.825C481.237 114.587 480.876 114.467 480.396 114.467C479.895 114.467 479.501 114.578 479.212 114.8C478.927 115.019 478.73 115.263 478.621 115.531L477.224 115.213C477.389 114.749 477.631 114.375 477.949 114.089C478.271 113.801 478.641 113.592 479.058 113.463C479.476 113.33 479.915 113.264 480.376 113.264C480.681 113.264 481.004 113.301 481.345 113.374C481.69 113.443 482.011 113.572 482.31 113.761C482.611 113.95 482.858 114.22 483.05 114.572C483.243 114.92 483.339 115.372 483.339 115.929V121H481.887V119.956H481.827C481.731 120.148 481.587 120.337 481.395 120.523C481.203 120.708 480.956 120.862 480.654 120.985C480.352 121.108 479.991 121.169 479.57 121.169ZM479.893 119.976C480.304 119.976 480.656 119.895 480.947 119.732C481.242 119.57 481.466 119.358 481.619 119.096C481.774 118.831 481.852 118.547 481.852 118.246V117.261C481.799 117.314 481.696 117.364 481.544 117.411C481.395 117.454 481.224 117.492 481.032 117.525C480.84 117.555 480.652 117.583 480.47 117.609C480.288 117.633 480.135 117.652 480.013 117.669C479.724 117.705 479.461 117.767 479.222 117.853C478.987 117.939 478.798 118.063 478.655 118.226C478.516 118.385 478.447 118.597 478.447 118.862C478.447 119.23 478.583 119.509 478.854 119.697C479.126 119.883 479.472 119.976 479.893 119.976Z" fill="white" fill-opacity="0.7"/>
</g>
</g>
<defs>
<clipPath id="clip0_2110_63345">
<rect width="438" height="32" fill="white" transform="translate(58.5 100)"/>
</clipPath>
<clipPath id="clip1_2110_63345">
<rect width="438" height="32" fill="white" transform="translate(58.5 100)"/>
</clipPath>
</defs>
</svg>
