<svg width="1150" height="62" viewBox="0 0 1150 62" fill="none" xmlns="http://www.w3.org/2000/svg">
<g clip-path="url(#clip0_2110_46646)">
<mask id="path-1-inside-1_2110_46646" fill="white">
<path d="M0 0H1150V62H0V0Z"/>
</mask>
<mask id="path-3-inside-2_2110_46646" fill="white">
<path d="M0 0H200V62H0V0Z"/>
</mask>
<path d="M0 0H200V62H0V0Z" fill="#1A1A1A"/>
<path d="M199 0V62H201V0H199Z" fill="#707070" mask="url(#path-3-inside-2_2110_46646)"/>
<mask id="path-5-inside-3_2110_46646" fill="white">
<path d="M200 0H500V62H200V0Z"/>
</mask>
<path d="M200 0H500V62H200V0Z" fill="#1A1A1A"/>
<path d="M499 0V62H501V0H499Z" fill="#707070" mask="url(#path-5-inside-3_2110_46646)"/>
<path d="M232.358 38H230.511L235.852 23.4545H237.67L243.011 38H241.165L236.818 25.7557H236.705L232.358 38ZM233.04 32.3182H240.483V33.8807H233.04V32.3182ZM249.482 38.2273C248.459 38.2273 247.578 37.9858 246.839 37.5028C246.101 37.0199 245.533 36.3546 245.135 35.5071C244.737 34.6596 244.538 33.6913 244.538 32.6023C244.538 31.4943 244.742 30.5166 245.149 29.669C245.561 28.8168 246.134 28.1515 246.868 27.6733C247.607 27.1903 248.468 26.9489 249.453 26.9489C250.22 26.9489 250.911 27.0909 251.527 27.375C252.143 27.6591 252.647 28.0568 253.04 28.5682C253.433 29.0795 253.677 29.6761 253.771 30.358H252.095C251.967 29.8608 251.683 29.4205 251.243 29.0369C250.807 28.6487 250.22 28.4545 249.482 28.4545C248.828 28.4545 248.255 28.625 247.763 28.9659C247.275 29.3021 246.894 29.7779 246.619 30.3935C246.349 31.0043 246.214 31.7216 246.214 32.5455C246.214 33.3883 246.347 34.1222 246.612 34.7472C246.882 35.3722 247.261 35.8575 247.749 36.2031C248.241 36.5488 248.819 36.7216 249.482 36.7216C249.917 36.7216 250.312 36.6458 250.668 36.4943C251.023 36.3428 251.323 36.125 251.57 35.8409C251.816 35.5568 251.991 35.2159 252.095 34.8182H253.771C253.677 35.4621 253.442 36.0421 253.068 36.5582C252.699 37.0696 252.209 37.4768 251.598 37.7798C250.992 38.0781 250.286 38.2273 249.482 38.2273ZM260.966 27.0909V28.5114H255.312V27.0909H260.966ZM256.96 24.4773H258.636V34.875C258.636 35.3485 258.705 35.7036 258.842 35.9403C258.984 36.1723 259.164 36.3286 259.382 36.4091C259.605 36.4848 259.839 36.5227 260.085 36.5227C260.27 36.5227 260.421 36.5133 260.54 36.4943C260.658 36.4706 260.753 36.4517 260.824 36.4375L261.165 37.9432C261.051 37.9858 260.893 38.0284 260.689 38.071C260.485 38.1184 260.227 38.142 259.915 38.142C259.441 38.142 258.977 38.0402 258.523 37.8366C258.073 37.633 257.699 37.3229 257.401 36.9062C257.107 36.4896 256.96 35.964 256.96 35.3295V24.4773ZM263.487 38V27.0909H265.163V38H263.487ZM264.339 25.2727C264.013 25.2727 263.731 25.1615 263.494 24.9389C263.262 24.7164 263.146 24.4489 263.146 24.1364C263.146 23.8239 263.262 23.5563 263.494 23.3338C263.731 23.1113 264.013 23 264.339 23C264.666 23 264.946 23.1113 265.178 23.3338C265.414 23.5563 265.533 23.8239 265.533 24.1364C265.533 24.4489 265.414 24.7164 265.178 24.9389C264.946 25.1615 264.666 25.2727 264.339 25.2727ZM277.154 27.0909L273.12 38H271.415L267.381 27.0909H269.199L272.211 35.7841H272.324L275.336 27.0909H277.154ZM283.549 38.2273C282.498 38.2273 281.592 37.9953 280.829 37.5312C280.072 37.0625 279.487 36.4091 279.075 35.571C278.668 34.7282 278.464 33.7481 278.464 32.6307C278.464 31.5133 278.668 30.5284 279.075 29.6761C279.487 28.8191 280.06 28.1515 280.794 27.6733C281.532 27.1903 282.394 26.9489 283.379 26.9489C283.947 26.9489 284.508 27.0436 285.062 27.233C285.616 27.4223 286.12 27.7301 286.575 28.1562C287.029 28.5777 287.392 29.1364 287.662 29.8324C287.931 30.5284 288.066 31.3854 288.066 32.4034V33.1136H279.657V31.6648H286.362C286.362 31.0492 286.239 30.5 285.993 30.017C285.751 29.5341 285.405 29.1529 284.956 28.8736C284.511 28.5942 283.985 28.4545 283.379 28.4545C282.711 28.4545 282.134 28.6203 281.646 28.9517C281.163 29.2784 280.791 29.7045 280.531 30.2301C280.27 30.7557 280.14 31.3191 280.14 31.9205V32.8864C280.14 33.7102 280.282 34.4086 280.566 34.9815C280.855 35.5497 281.255 35.983 281.767 36.2812C282.278 36.5748 282.872 36.7216 283.549 36.7216C283.99 36.7216 284.387 36.66 284.743 36.5369C285.102 36.4091 285.413 36.2197 285.673 35.9688C285.933 35.7131 286.135 35.3958 286.277 35.017L287.896 35.4716C287.725 36.0208 287.439 36.5038 287.037 36.9205C286.634 37.3324 286.137 37.6544 285.545 37.8864C284.953 38.1136 284.288 38.2273 283.549 38.2273Z" fill="white" fill-opacity="0.95"/>
<mask id="path-8-inside-4_2110_46646" fill="white">
<path d="M500 0H740V62H500V0Z"/>
</mask>
<path d="M500 0H740V62H500V0Z" fill="#1A1A1A"/>
<path d="M739 0V62H741V0H739Z" fill="#707070" mask="url(#path-8-inside-4_2110_46646)"/>
<path d="M531.761 38V23.4545H536.847C537.86 23.4545 538.696 23.6297 539.354 23.9801C540.012 24.3258 540.502 24.7921 540.824 25.3793C541.146 25.9616 541.307 26.608 541.307 27.3182C541.307 27.9432 541.196 28.4593 540.973 28.8665C540.755 29.2737 540.466 29.5956 540.107 29.8324C539.751 30.0691 539.366 30.2443 538.949 30.358V30.5C539.394 30.5284 539.841 30.6847 540.291 30.9688C540.741 31.2528 541.117 31.66 541.42 32.1903C541.723 32.7206 541.875 33.3693 541.875 34.1364C541.875 34.8655 541.709 35.5213 541.378 36.1037C541.046 36.6861 540.523 37.1477 539.808 37.4886C539.093 37.8295 538.163 38 537.017 38H531.761ZM533.523 36.4375H537.017C538.168 36.4375 538.984 36.215 539.467 35.7699C539.955 35.3201 540.199 34.7756 540.199 34.1364C540.199 33.6439 540.073 33.1894 539.822 32.7727C539.571 32.3513 539.214 32.0152 538.75 31.7642C538.286 31.5085 537.737 31.3807 537.102 31.3807H533.523V36.4375ZM533.523 29.8466H536.79C537.32 29.8466 537.798 29.7424 538.224 29.5341C538.655 29.3258 538.996 29.0322 539.247 28.6534C539.503 28.2746 539.631 27.8295 539.631 27.3182C539.631 26.679 539.408 26.1368 538.963 25.6918C538.518 25.242 537.813 25.017 536.847 25.017H533.523V29.8466ZM547.752 38.2557C547.061 38.2557 546.433 38.1255 545.87 37.8651C545.307 37.5999 544.859 37.2188 544.528 36.7216C544.196 36.2197 544.031 35.6136 544.031 34.9034C544.031 34.2784 544.154 33.7718 544.4 33.3835C544.646 32.9905 544.975 32.6828 545.387 32.4602C545.799 32.2377 546.254 32.072 546.751 31.9631C547.253 31.8494 547.757 31.7595 548.263 31.6932C548.926 31.608 549.464 31.544 549.876 31.5014C550.292 31.4541 550.595 31.3759 550.785 31.267C550.979 31.1581 551.076 30.9687 551.076 30.6989V30.642C551.076 29.9413 550.884 29.3968 550.501 29.0085C550.122 28.6203 549.547 28.4261 548.775 28.4261C547.975 28.4261 547.347 28.6013 546.893 28.9517C546.438 29.3021 546.119 29.6761 545.934 30.0739L544.343 29.5057C544.627 28.8428 545.006 28.3267 545.479 27.9574C545.958 27.5833 546.478 27.3229 547.042 27.1761C547.61 27.0246 548.169 26.9489 548.718 26.9489C549.068 26.9489 549.471 26.9915 549.925 27.0767C550.385 27.1572 550.827 27.3253 551.254 27.581C551.684 27.8366 552.042 28.2225 552.326 28.7386C552.61 29.2547 552.752 29.946 552.752 30.8125V38H551.076V36.5227H550.991C550.877 36.7595 550.688 37.0128 550.423 37.2827C550.157 37.5526 549.805 37.7822 549.364 37.9716C548.924 38.161 548.387 38.2557 547.752 38.2557ZM548.008 36.75C548.671 36.75 549.229 36.6198 549.684 36.3594C550.143 36.099 550.489 35.7628 550.721 35.3509C550.958 34.9389 551.076 34.5057 551.076 34.0511V32.517C551.005 32.6023 550.849 32.6804 550.607 32.7514C550.371 32.8177 550.096 32.8769 549.783 32.929C549.476 32.9763 549.175 33.0189 548.881 33.0568C548.593 33.09 548.358 33.1184 548.178 33.142C547.743 33.1989 547.335 33.2912 546.957 33.419C546.583 33.5421 546.28 33.7292 546.048 33.9801C545.82 34.2263 545.707 34.5625 545.707 34.9886C545.707 35.571 545.922 36.0114 546.353 36.3097C546.789 36.6032 547.34 36.75 548.008 36.75ZM560.243 38.2273C559.221 38.2273 558.34 37.9858 557.601 37.5028C556.863 37.0199 556.294 36.3546 555.897 35.5071C555.499 34.6596 555.3 33.6913 555.3 32.6023C555.3 31.4943 555.504 30.5166 555.911 29.669C556.323 28.8168 556.896 28.1515 557.63 27.6733C558.368 27.1903 559.23 26.9489 560.215 26.9489C560.982 26.9489 561.673 27.0909 562.289 27.375C562.904 27.6591 563.408 28.0568 563.801 28.5682C564.194 29.0795 564.438 29.6761 564.533 30.358H562.857C562.729 29.8608 562.445 29.4205 562.005 29.0369C561.569 28.6487 560.982 28.4545 560.243 28.4545C559.59 28.4545 559.017 28.625 558.525 28.9659C558.037 29.3021 557.656 29.7779 557.381 30.3935C557.111 31.0043 556.976 31.7216 556.976 32.5455C556.976 33.3883 557.109 34.1222 557.374 34.7472C557.644 35.3722 558.023 35.8575 558.51 36.2031C559.003 36.5488 559.58 36.7216 560.243 36.7216C560.679 36.7216 561.074 36.6458 561.429 36.4943C561.784 36.3428 562.085 36.125 562.331 35.8409C562.578 35.5568 562.753 35.2159 562.857 34.8182H564.533C564.438 35.4621 564.204 36.0421 563.83 36.5582C563.461 37.0696 562.971 37.4768 562.36 37.7798C561.754 38.0781 561.048 38.2273 560.243 38.2273ZM568.546 34.0227L568.517 31.9489H568.858L573.631 27.0909H575.705L570.62 32.233H570.478L568.546 34.0227ZM566.983 38V23.4545H568.659V38H566.983ZM573.915 38L569.654 32.6023L570.847 31.4375L576.046 38H573.915ZM581.816 42.3182C581.007 42.3182 580.311 42.214 579.728 42.0057C579.146 41.8021 578.661 41.5322 578.272 41.196C577.889 40.8646 577.583 40.5095 577.356 40.1307L578.691 39.1932C578.843 39.392 579.035 39.6193 579.267 39.875C579.499 40.1354 579.816 40.3603 580.218 40.5497C580.626 40.7438 581.158 40.8409 581.816 40.8409C582.697 40.8409 583.424 40.6278 583.997 40.2017C584.57 39.7756 584.856 39.108 584.856 38.1989V35.983H584.714C584.591 36.1818 584.416 36.428 584.189 36.7216C583.966 37.0104 583.644 37.2685 583.223 37.4957C582.806 37.7183 582.243 37.8295 581.532 37.8295C580.652 37.8295 579.861 37.6212 579.16 37.2045C578.464 36.7879 577.913 36.1818 577.505 35.3864C577.103 34.5909 576.902 33.625 576.902 32.4886C576.902 31.3712 577.098 30.3982 577.491 29.5696C577.884 28.7363 578.431 28.0923 579.132 27.6378C579.833 27.1785 580.642 26.9489 581.561 26.9489C582.271 26.9489 582.834 27.0672 583.251 27.304C583.672 27.536 583.994 27.8011 584.217 28.0994C584.444 28.393 584.619 28.6345 584.743 28.8239H584.913V27.0909H586.532V38.3125C586.532 39.25 586.319 40.0123 585.893 40.5994C585.472 41.1913 584.904 41.6245 584.189 41.8991C583.478 42.1785 582.688 42.3182 581.816 42.3182ZM581.76 36.3239C582.432 36.3239 583 36.17 583.464 35.8622C583.928 35.5545 584.281 35.1117 584.522 34.5341C584.764 33.9564 584.885 33.2652 584.885 32.4602C584.885 31.6742 584.766 30.9806 584.529 30.3793C584.293 29.7779 583.942 29.3068 583.478 28.9659C583.014 28.625 582.441 28.4545 581.76 28.4545C581.049 28.4545 580.458 28.6345 579.984 28.9943C579.515 29.3542 579.163 29.8371 578.926 30.4432C578.694 31.0492 578.578 31.7216 578.578 32.4602C578.578 33.2178 578.696 33.8878 578.933 34.4702C579.174 35.0478 579.529 35.5024 579.998 35.8338C580.472 36.1605 581.059 36.3239 581.76 36.3239ZM589.6 38V27.0909H591.22V28.7386H591.333C591.532 28.1989 591.892 27.7609 592.413 27.4247C592.934 27.0885 593.521 26.9205 594.174 26.9205C594.297 26.9205 594.451 26.9228 594.636 26.9276C594.821 26.9323 594.96 26.9394 595.055 26.9489V28.6534C594.998 28.6392 594.868 28.6179 594.664 28.5895C594.466 28.5563 594.255 28.5398 594.032 28.5398C593.502 28.5398 593.029 28.651 592.612 28.8736C592.2 29.0914 591.873 29.3944 591.632 29.7827C591.395 30.1662 591.277 30.6042 591.277 31.0966V38H589.6ZM601.142 38.2273C600.157 38.2273 599.293 37.9929 598.549 37.5241C597.811 37.0554 597.233 36.3996 596.816 35.5568C596.404 34.714 596.199 33.7292 596.199 32.6023C596.199 31.4659 596.404 30.474 596.816 29.6264C597.233 28.7789 597.811 28.1207 598.549 27.652C599.293 27.1832 600.157 26.9489 601.142 26.9489C602.127 26.9489 602.988 27.1832 603.727 27.652C604.47 28.1207 605.048 28.7789 605.46 29.6264C605.877 30.474 606.085 31.4659 606.085 32.6023C606.085 33.7292 605.877 34.714 605.46 35.5568C605.048 36.3996 604.47 37.0554 603.727 37.5241C602.988 37.9929 602.127 38.2273 601.142 38.2273ZM601.142 36.7216C601.89 36.7216 602.505 36.5298 602.988 36.1463C603.471 35.7628 603.829 35.2585 604.061 34.6335C604.293 34.0085 604.409 33.3314 604.409 32.6023C604.409 31.8731 604.293 31.1937 604.061 30.5639C603.829 29.9342 603.471 29.4252 602.988 29.0369C602.505 28.6487 601.89 28.4545 601.142 28.4545C600.394 28.4545 599.778 28.6487 599.295 29.0369C598.812 29.4252 598.455 29.9342 598.223 30.5639C597.991 31.1937 597.875 31.8731 597.875 32.6023C597.875 33.3314 597.991 34.0085 598.223 34.6335C598.455 35.2585 598.812 35.7628 599.295 36.1463C599.778 36.5298 600.394 36.7216 601.142 36.7216ZM615.518 33.5398V27.0909H617.195V38H615.518V36.1534H615.405C615.149 36.7074 614.751 37.1785 614.212 37.5668C613.672 37.9503 612.99 38.142 612.166 38.142C611.484 38.142 610.878 37.9929 610.348 37.6946C609.818 37.3916 609.401 36.937 609.098 36.331C608.795 35.7202 608.643 34.9508 608.643 34.0227V27.0909H610.32V33.9091C610.32 34.7045 610.542 35.339 610.987 35.8125C611.437 36.286 612.01 36.5227 612.706 36.5227C613.123 36.5227 613.546 36.4162 613.977 36.2031C614.413 35.9901 614.777 35.6634 615.071 35.223C615.369 34.7827 615.518 34.2216 615.518 33.5398ZM621.941 31.4375V38H620.265V27.0909H621.884V28.7955H622.026C622.282 28.2415 622.67 27.7964 623.191 27.4602C623.712 27.1193 624.384 26.9489 625.208 26.9489C625.946 26.9489 626.593 27.1004 627.147 27.4034C627.701 27.7017 628.132 28.1562 628.439 28.767C628.747 29.3731 628.901 30.1402 628.901 31.0682V38H627.225V31.1818C627.225 30.3248 627.002 29.6572 626.557 29.179C626.112 28.696 625.501 28.4545 624.725 28.4545C624.19 28.4545 623.712 28.5705 623.29 28.8026C622.873 29.0346 622.544 29.3731 622.303 29.8182C622.061 30.2633 621.941 30.803 621.941 31.4375ZM636.083 38.2273C635.174 38.2273 634.371 37.9976 633.675 37.5384C632.979 37.0743 632.435 36.4209 632.042 35.5781C631.649 34.7306 631.452 33.7292 631.452 32.5739C631.452 31.428 631.649 30.4337 632.042 29.5909C632.435 28.7481 632.982 28.0971 633.683 27.6378C634.383 27.1785 635.193 26.9489 636.112 26.9489C636.822 26.9489 637.383 27.0672 637.795 27.304C638.211 27.536 638.529 27.8011 638.746 28.0994C638.969 28.393 639.142 28.6345 639.265 28.8239H639.407V23.4545H641.083V38H639.464V36.3239H639.265C639.142 36.5227 638.967 36.7737 638.739 37.0767C638.512 37.375 638.188 37.6425 637.766 37.8793C637.345 38.1113 636.784 38.2273 636.083 38.2273ZM636.31 36.7216C636.983 36.7216 637.551 36.5464 638.015 36.196C638.479 35.8409 638.832 35.3509 639.073 34.7259C639.315 34.0961 639.435 33.3693 639.435 32.5455C639.435 31.7311 639.317 31.0185 639.08 30.4077C638.844 29.7921 638.493 29.3139 638.029 28.973C637.565 28.6274 636.992 28.4545 636.31 28.4545C635.6 28.4545 635.008 28.6368 634.535 29.0014C634.066 29.3613 633.713 29.8513 633.477 30.4716C633.245 31.0871 633.129 31.7784 633.129 32.5455C633.129 33.322 633.247 34.0275 633.484 34.6619C633.725 35.2917 634.08 35.7936 634.549 36.1676C635.022 36.5369 635.61 36.7216 636.31 36.7216Z" fill="white" fill-opacity="0.95"/>
<path d="M740 0H1356V62H740V0Z" fill="#1A1A1A"/>
<path d="M776.278 27.0909V28.5114H770.625V27.0909H776.278ZM772.273 24.4773H773.949V34.875C773.949 35.3485 774.018 35.7036 774.155 35.9403C774.297 36.1723 774.477 36.3286 774.695 36.4091C774.917 36.4848 775.152 36.5227 775.398 36.5227C775.582 36.5227 775.734 36.5133 775.852 36.4943C775.971 36.4706 776.065 36.4517 776.136 36.4375L776.477 37.9432C776.364 37.9858 776.205 38.0284 776.001 38.071C775.798 38.1184 775.54 38.142 775.227 38.142C774.754 38.142 774.29 38.0402 773.835 37.8366C773.385 37.633 773.011 37.3229 772.713 36.9062C772.42 36.4896 772.273 35.964 772.273 35.3295V24.4773ZM780.71 31.4375V38H779.034V23.4545H780.71V28.7955H780.852C781.108 28.232 781.491 27.7846 782.003 27.4531C782.519 27.117 783.205 26.9489 784.062 26.9489C784.806 26.9489 785.457 27.098 786.016 27.3963C786.574 27.6899 787.008 28.142 787.315 28.7528C787.628 29.3589 787.784 30.1307 787.784 31.0682V38H786.108V31.1818C786.108 30.3153 785.883 29.6454 785.433 29.1719C784.988 28.6937 784.37 28.4545 783.58 28.4545C783.03 28.4545 782.538 28.5705 782.102 28.8026C781.671 29.0346 781.33 29.3731 781.08 29.8182C780.833 30.2633 780.71 30.803 780.71 31.4375ZM795.424 38.2273C794.373 38.2273 793.467 37.9953 792.704 37.5312C791.947 37.0625 791.362 36.4091 790.95 35.571C790.543 34.7282 790.339 33.7481 790.339 32.6307C790.339 31.5133 790.543 30.5284 790.95 29.6761C791.362 28.8191 791.935 28.1515 792.669 27.6733C793.407 27.1903 794.269 26.9489 795.254 26.9489C795.822 26.9489 796.383 27.0436 796.937 27.233C797.491 27.4223 797.995 27.7301 798.45 28.1562C798.904 28.5777 799.267 29.1364 799.537 29.8324C799.806 30.5284 799.941 31.3854 799.941 32.4034V33.1136H791.532V31.6648H798.237C798.237 31.0492 798.114 30.5 797.868 30.017C797.626 29.5341 797.28 29.1529 796.831 28.8736C796.386 28.5942 795.86 28.4545 795.254 28.4545C794.586 28.4545 794.009 28.6203 793.521 28.9517C793.038 29.2784 792.666 29.7045 792.406 30.2301C792.145 30.7557 792.015 31.3191 792.015 31.9205V32.8864C792.015 33.7102 792.157 34.4086 792.441 34.9815C792.73 35.5497 793.13 35.983 793.642 36.2812C794.153 36.5748 794.747 36.7216 795.424 36.7216C795.865 36.7216 796.262 36.66 796.618 36.5369C796.977 36.4091 797.288 36.2197 797.548 35.9688C797.808 35.7131 798.01 35.3958 798.152 35.017L799.771 35.4716C799.6 36.0208 799.314 36.5038 798.912 36.9205C798.509 37.3324 798.012 37.6544 797.42 37.8864C796.828 38.1136 796.163 38.2273 795.424 38.2273ZM802.491 38V27.0909H804.11V28.7955H804.252C804.48 28.2131 804.847 27.7609 805.353 27.4389C805.86 27.1122 806.468 26.9489 807.179 26.9489C807.898 26.9489 808.497 27.1122 808.975 27.4389C809.458 27.7609 809.835 28.2131 810.105 28.7955H810.218C810.498 28.232 810.917 27.7846 811.475 27.4531C812.034 27.117 812.704 26.9489 813.485 26.9489C814.461 26.9489 815.259 27.2543 815.879 27.8651C816.499 28.4711 816.809 29.4157 816.809 30.6989V38H815.133V30.6989C815.133 29.8939 814.913 29.3187 814.473 28.973C814.032 28.6274 813.514 28.4545 812.917 28.4545C812.15 28.4545 811.556 28.6866 811.135 29.1506C810.713 29.6098 810.502 30.1922 810.502 30.8977V38H808.798V30.5284C808.798 29.9081 808.597 29.4086 808.194 29.0298C807.792 28.6463 807.273 28.4545 806.639 28.4545C806.203 28.4545 805.796 28.5705 805.417 28.8026C805.043 29.0346 804.74 29.3565 804.508 29.7685C804.281 30.1757 804.167 30.6468 804.167 31.1818V38H802.491ZM824.448 38.2273C823.397 38.2273 822.49 37.9953 821.728 37.5312C820.97 37.0625 820.385 36.4091 819.973 35.571C819.566 34.7282 819.363 33.7481 819.363 32.6307C819.363 31.5133 819.566 30.5284 819.973 29.6761C820.385 28.8191 820.958 28.1515 821.692 27.6733C822.431 27.1903 823.292 26.9489 824.277 26.9489C824.846 26.9489 825.407 27.0436 825.961 27.233C826.515 27.4223 827.019 27.7301 827.473 28.1562C827.928 28.5777 828.29 29.1364 828.56 29.8324C828.83 30.5284 828.965 31.3854 828.965 32.4034V33.1136H820.556V31.6648H827.26C827.26 31.0492 827.137 30.5 826.891 30.017C826.65 29.5341 826.304 29.1529 825.854 28.8736C825.409 28.5942 824.883 28.4545 824.277 28.4545C823.61 28.4545 823.032 28.6203 822.544 28.9517C822.061 29.2784 821.69 29.7045 821.429 30.2301C821.169 30.7557 821.039 31.3191 821.039 31.9205V32.8864C821.039 33.7102 821.181 34.4086 821.465 34.9815C821.754 35.5497 822.154 35.983 822.665 36.2812C823.176 36.5748 823.771 36.7216 824.448 36.7216C824.888 36.7216 825.286 36.66 825.641 36.5369C826.001 36.4091 826.311 36.2197 826.571 35.9688C826.832 35.7131 827.033 35.3958 827.175 35.017L828.794 35.4716C828.624 36.0208 828.337 36.5038 827.935 36.9205C827.533 37.3324 827.035 37.6544 826.444 37.8864C825.852 38.1136 825.186 38.2273 824.448 38.2273ZM836.657 22.7727L831.969 40.1875H830.435L835.123 22.7727H836.657ZM840.32 31.4375V38H838.643V27.0909H840.263V28.7955H840.405C840.661 28.2415 841.049 27.7964 841.57 27.4602C842.09 27.1193 842.763 26.9489 843.587 26.9489C844.325 26.9489 844.972 27.1004 845.526 27.4034C846.08 27.7017 846.51 28.1562 846.818 28.767C847.126 29.3731 847.28 30.1402 847.28 31.0682V38H845.604V31.1818C845.604 30.3248 845.381 29.6572 844.936 29.179C844.491 28.696 843.88 28.4545 843.104 28.4545C842.569 28.4545 842.09 28.5705 841.669 28.8026C841.252 29.0346 840.923 29.3731 840.682 29.8182C840.44 30.2633 840.32 30.803 840.32 31.4375ZM854.917 38.2273C853.865 38.2273 852.959 37.9953 852.196 37.5312C851.439 37.0625 850.854 36.4091 850.442 35.571C850.035 34.7282 849.831 33.7481 849.831 32.6307C849.831 31.5133 850.035 30.5284 850.442 29.6761C850.854 28.8191 851.427 28.1515 852.161 27.6733C852.9 27.1903 853.761 26.9489 854.746 26.9489C855.314 26.9489 855.875 27.0436 856.429 27.233C856.983 27.4223 857.488 27.7301 857.942 28.1562C858.397 28.5777 858.759 29.1364 859.029 29.8324C859.299 30.5284 859.434 31.3854 859.434 32.4034V33.1136H851.025V31.6648H857.729C857.729 31.0492 857.606 30.5 857.36 30.017C857.118 29.5341 856.773 29.1529 856.323 28.8736C855.878 28.5942 855.352 28.4545 854.746 28.4545C854.078 28.4545 853.501 28.6203 853.013 28.9517C852.53 29.2784 852.158 29.7045 851.898 30.2301C851.638 30.7557 851.507 31.3191 851.507 31.9205V32.8864C851.507 33.7102 851.65 34.4086 851.934 34.9815C852.222 35.5497 852.623 35.983 853.134 36.2812C853.645 36.5748 854.239 36.7216 854.917 36.7216C855.357 36.7216 855.755 36.66 856.11 36.5369C856.47 36.4091 856.78 36.2197 857.04 35.9688C857.301 35.7131 857.502 35.3958 857.644 35.017L859.263 35.4716C859.093 36.0208 858.806 36.5038 858.404 36.9205C858.001 37.3324 857.504 37.6544 856.912 37.8864C856.32 38.1136 855.655 38.2273 854.917 38.2273ZM868.858 33.5398V27.0909H870.534V38H868.858V36.1534H868.745C868.489 36.7074 868.091 37.1785 867.551 37.5668C867.012 37.9503 866.33 38.142 865.506 38.142C864.824 38.142 864.218 37.9929 863.688 37.6946C863.158 37.3916 862.741 36.937 862.438 36.331C862.135 35.7202 861.983 34.9508 861.983 34.0227V27.0909H863.659V33.9091C863.659 34.7045 863.882 35.339 864.327 35.8125C864.777 36.286 865.35 36.5227 866.046 36.5227C866.462 36.5227 866.886 36.4162 867.317 36.2031C867.753 35.9901 868.117 35.6634 868.411 35.223C868.709 34.7827 868.858 34.2216 868.858 33.5398ZM878.349 27.0909V28.5114H872.695V27.0909H878.349ZM874.343 24.4773H876.019V34.875C876.019 35.3485 876.088 35.7036 876.225 35.9403C876.367 36.1723 876.547 36.3286 876.765 36.4091C876.987 36.4848 877.222 36.5227 877.468 36.5227C877.653 36.5227 877.804 36.5133 877.923 36.4943C878.041 36.4706 878.136 36.4517 878.207 36.4375L878.548 37.9432C878.434 37.9858 878.275 38.0284 878.072 38.071C877.868 38.1184 877.61 38.142 877.298 38.142C876.824 38.142 876.36 38.0402 875.906 37.8366C875.456 37.633 875.082 37.3229 874.783 36.9062C874.49 36.4896 874.343 35.964 874.343 35.3295V24.4773ZM880.87 38V27.0909H882.489V28.7386H882.603C882.802 28.1989 883.162 27.7609 883.683 27.4247C884.203 27.0885 884.79 26.9205 885.444 26.9205C885.567 26.9205 885.721 26.9228 885.906 26.9276C886.09 26.9323 886.23 26.9394 886.325 26.9489V28.6534C886.268 28.6392 886.138 28.6179 885.934 28.5895C885.735 28.5563 885.524 28.5398 885.302 28.5398C884.772 28.5398 884.298 28.651 883.881 28.8736C883.469 29.0914 883.143 29.3944 882.901 29.7827C882.665 30.1662 882.546 30.6042 882.546 31.0966V38H880.87ZM891.522 38.2557C890.83 38.2557 890.203 38.1255 889.64 37.8651C889.076 37.5999 888.629 37.2188 888.297 36.7216C887.966 36.2197 887.8 35.6136 887.8 34.9034C887.8 34.2784 887.923 33.7718 888.169 33.3835C888.416 32.9905 888.745 32.6828 889.157 32.4602C889.569 32.2377 890.023 32.072 890.52 31.9631C891.022 31.8494 891.526 31.7595 892.033 31.6932C892.696 31.608 893.233 31.544 893.645 31.5014C894.062 31.4541 894.365 31.3759 894.554 31.267C894.748 31.1581 894.846 30.9687 894.846 30.6989V30.642C894.846 29.9413 894.654 29.3968 894.27 29.0085C893.891 28.6203 893.316 28.4261 892.544 28.4261C891.744 28.4261 891.117 28.6013 890.662 28.9517C890.208 29.3021 889.888 29.6761 889.703 30.0739L888.113 29.5057C888.397 28.8428 888.775 28.3267 889.249 27.9574C889.727 27.5833 890.248 27.3229 890.811 27.1761C891.38 27.0246 891.938 26.9489 892.488 26.9489C892.838 26.9489 893.24 26.9915 893.695 27.0767C894.154 27.1572 894.597 27.3253 895.023 27.581C895.454 27.8366 895.811 28.2225 896.096 28.7386C896.38 29.2547 896.522 29.946 896.522 30.8125V38H894.846V36.5227H894.76C894.647 36.7595 894.457 37.0128 894.192 37.2827C893.927 37.5526 893.574 37.7822 893.134 37.9716C892.694 38.161 892.156 38.2557 891.522 38.2557ZM891.777 36.75C892.44 36.75 892.999 36.6198 893.453 36.3594C893.913 36.099 894.258 35.7628 894.49 35.3509C894.727 34.9389 894.846 34.5057 894.846 34.0511V32.517C894.775 32.6023 894.618 32.6804 894.377 32.7514C894.14 32.8177 893.865 32.8769 893.553 32.929C893.245 32.9763 892.944 33.0189 892.651 33.0568C892.362 33.09 892.128 33.1184 891.948 33.142C891.512 33.1989 891.105 33.2912 890.726 33.419C890.352 33.5421 890.049 33.7292 889.817 33.9801C889.59 34.2263 889.476 34.5625 889.476 34.9886C889.476 35.571 889.692 36.0114 890.123 36.3097C890.558 36.6032 891.11 36.75 891.777 36.75ZM901.257 23.4545V38H899.581V23.4545H901.257ZM909.469 22.7727L904.782 40.1875H903.248L907.935 22.7727H909.469ZM911.683 38V23.4545H913.359V28.8239H913.501C913.625 28.6345 913.795 28.393 914.013 28.0994C914.235 27.8011 914.553 27.536 914.964 27.304C915.381 27.0672 915.945 26.9489 916.655 26.9489C917.573 26.9489 918.383 27.1785 919.084 27.6378C919.785 28.0971 920.331 28.7481 920.724 29.5909C921.117 30.4337 921.314 31.428 921.314 32.5739C921.314 33.7292 921.117 34.7306 920.724 35.5781C920.331 36.4209 919.787 37.0743 919.091 37.5384C918.395 37.9976 917.592 38.2273 916.683 38.2273C915.982 38.2273 915.421 38.1113 915 37.8793C914.579 37.6425 914.254 37.375 914.027 37.0767C913.8 36.7737 913.625 36.5227 913.501 36.3239H913.303V38H911.683ZM913.331 32.5455C913.331 33.3693 913.452 34.0961 913.693 34.7259C913.935 35.3509 914.287 35.8409 914.751 36.196C915.215 36.5464 915.784 36.7216 916.456 36.7216C917.157 36.7216 917.741 36.5369 918.21 36.1676C918.684 35.7936 919.039 35.2917 919.276 34.6619C919.517 34.0275 919.638 33.322 919.638 32.5455C919.638 31.7784 919.519 31.0871 919.283 30.4716C919.051 29.8513 918.698 29.3613 918.224 29.0014C917.756 28.6368 917.166 28.4545 916.456 28.4545C915.774 28.4545 915.201 28.6274 914.737 28.973C914.273 29.3139 913.923 29.7921 913.686 30.4077C913.449 31.0185 913.331 31.7311 913.331 32.5455ZM928.622 27.0909V28.5114H922.969V27.0909H928.622ZM924.616 24.4773H926.293V34.875C926.293 35.3485 926.361 35.7036 926.499 35.9403C926.641 36.1723 926.821 36.3286 927.038 36.4091C927.261 36.4848 927.495 36.5227 927.741 36.5227C927.926 36.5227 928.078 36.5133 928.196 36.4943C928.314 36.4706 928.409 36.4517 928.48 36.4375L928.821 37.9432C928.707 37.9858 928.549 38.0284 928.345 38.071C928.142 38.1184 927.884 38.142 927.571 38.142C927.098 38.142 926.634 38.0402 926.179 37.8366C925.729 37.633 925.355 37.3229 925.057 36.9062C924.763 36.4896 924.616 35.964 924.616 35.3295V24.4773ZM932.82 31.4375V38H931.143V27.0909H932.763V28.7955H932.905C933.161 28.2415 933.549 27.7964 934.07 27.4602C934.59 27.1193 935.263 26.9489 936.087 26.9489C936.825 26.9489 937.472 27.1004 938.026 27.4034C938.58 27.7017 939.01 28.1562 939.318 28.767C939.626 29.3731 939.78 30.1402 939.78 31.0682V38H938.104V31.1818C938.104 30.3248 937.881 29.6572 937.436 29.179C936.991 28.696 936.38 28.4545 935.604 28.4545C935.069 28.4545 934.59 28.5705 934.169 28.8026C933.752 29.0346 933.423 29.3731 933.182 29.8182C932.94 30.2633 932.82 30.803 932.82 31.4375ZM947.985 22.7727L943.297 40.1875H941.763L946.451 22.7727H947.985ZM957.699 29.5341L956.193 29.9602C956.098 29.7093 955.959 29.4654 955.774 29.2287C955.594 28.9872 955.348 28.7884 955.036 28.6321C954.723 28.4759 954.323 28.3977 953.835 28.3977C953.168 28.3977 952.611 28.5516 952.166 28.8594C951.726 29.1624 951.506 29.5483 951.506 30.017C951.506 30.4337 951.657 30.7628 951.96 31.0043C952.263 31.2457 952.737 31.447 953.381 31.608L955 32.0057C955.975 32.2424 956.702 32.6046 957.18 33.0923C957.659 33.5753 957.898 34.1979 957.898 34.9602C957.898 35.5852 957.718 36.1439 957.358 36.6364C957.003 37.1288 956.506 37.517 955.866 37.8011C955.227 38.0852 954.484 38.2273 953.636 38.2273C952.524 38.2273 951.603 37.9858 950.874 37.5028C950.144 37.0199 949.683 36.3144 949.489 35.3864L951.08 34.9886C951.231 35.5758 951.518 36.0161 951.939 36.3097C952.365 36.6032 952.921 36.75 953.608 36.75C954.389 36.75 955.009 36.5843 955.469 36.2528C955.933 35.9167 956.165 35.5142 956.165 35.0455C956.165 34.6667 956.032 34.3494 955.767 34.0938C955.502 33.8333 955.095 33.6392 954.545 33.5114L952.727 33.0852C951.728 32.8485 950.994 32.4815 950.526 31.9844C950.062 31.4825 949.83 30.8551 949.83 30.1023C949.83 29.4867 950.002 28.9422 950.348 28.4688C950.698 27.9953 951.174 27.6236 951.776 27.3537C952.382 27.0838 953.068 26.9489 953.835 26.9489C954.915 26.9489 955.762 27.1856 956.378 27.6591C956.998 28.1326 957.438 28.7576 957.699 29.5341ZM964.995 38.2273C963.944 38.2273 963.037 37.9953 962.275 37.5312C961.517 37.0625 960.932 36.4091 960.52 35.571C960.113 34.7282 959.909 33.7481 959.909 32.6307C959.909 31.5133 960.113 30.5284 960.52 29.6761C960.932 28.8191 961.505 28.1515 962.239 27.6733C962.978 27.1903 963.839 26.9489 964.824 26.9489C965.392 26.9489 965.953 27.0436 966.507 27.233C967.061 27.4223 967.566 27.7301 968.02 28.1562C968.475 28.5777 968.837 29.1364 969.107 29.8324C969.377 30.5284 969.512 31.3854 969.512 32.4034V33.1136H961.103V31.6648H967.807C967.807 31.0492 967.684 30.5 967.438 30.017C967.196 29.5341 966.851 29.1529 966.401 28.8736C965.956 28.5942 965.43 28.4545 964.824 28.4545C964.157 28.4545 963.579 28.6203 963.091 28.9517C962.608 29.2784 962.237 29.7045 961.976 30.2301C961.716 30.7557 961.586 31.3191 961.586 31.9205V32.8864C961.586 33.7102 961.728 34.4086 962.012 34.9815C962.301 35.5497 962.701 35.983 963.212 36.2812C963.723 36.5748 964.318 36.7216 964.995 36.7216C965.435 36.7216 965.833 36.66 966.188 36.5369C966.548 36.4091 966.858 36.2197 967.118 35.9688C967.379 35.7131 967.58 35.3958 967.722 35.017L969.341 35.4716C969.171 36.0208 968.884 36.5038 968.482 36.9205C968.079 37.3324 967.582 37.6544 966.99 37.8864C966.399 38.1136 965.733 38.2273 964.995 38.2273ZM976.493 38.2273C975.471 38.2273 974.59 37.9858 973.851 37.5028C973.113 37.0199 972.544 36.3546 972.147 35.5071C971.749 34.6596 971.55 33.6913 971.55 32.6023C971.55 31.4943 971.754 30.5166 972.161 29.669C972.573 28.8168 973.146 28.1515 973.88 27.6733C974.618 27.1903 975.48 26.9489 976.465 26.9489C977.232 26.9489 977.923 27.0909 978.539 27.375C979.154 27.6591 979.658 28.0568 980.051 28.5682C980.444 29.0795 980.688 29.6761 980.783 30.358H979.107C978.979 29.8608 978.695 29.4205 978.255 29.0369C977.819 28.6487 977.232 28.4545 976.493 28.4545C975.84 28.4545 975.267 28.625 974.775 28.9659C974.287 29.3021 973.906 29.7779 973.631 30.3935C973.361 31.0043 973.226 31.7216 973.226 32.5455C973.226 33.3883 973.359 34.1222 973.624 34.7472C973.894 35.3722 974.273 35.8575 974.76 36.2031C975.253 36.5488 975.83 36.7216 976.493 36.7216C976.929 36.7216 977.324 36.6458 977.679 36.4943C978.034 36.3428 978.335 36.125 978.581 35.8409C978.828 35.5568 979.003 35.2159 979.107 34.8182H980.783C980.688 35.4621 980.454 36.0421 980.08 36.5582C979.711 37.0696 979.221 37.4768 978.61 37.7798C978.004 38.0781 977.298 38.2273 976.493 38.2273ZM987.665 38.2273C986.68 38.2273 985.816 37.9929 985.073 37.5241C984.334 37.0554 983.757 36.3996 983.34 35.5568C982.928 34.714 982.722 33.7292 982.722 32.6023C982.722 31.4659 982.928 30.474 983.34 29.6264C983.757 28.7789 984.334 28.1207 985.073 27.652C985.816 27.1832 986.68 26.9489 987.665 26.9489C988.65 26.9489 989.512 27.1832 990.25 27.652C990.994 28.1207 991.571 28.7789 991.983 29.6264C992.4 30.474 992.608 31.4659 992.608 32.6023C992.608 33.7292 992.4 34.714 991.983 35.5568C991.571 36.3996 990.994 37.0554 990.25 37.5241C989.512 37.9929 988.65 38.2273 987.665 38.2273ZM987.665 36.7216C988.413 36.7216 989.029 36.5298 989.512 36.1463C989.995 35.7628 990.352 35.2585 990.584 34.6335C990.816 34.0085 990.932 33.3314 990.932 32.6023C990.932 31.8731 990.816 31.1937 990.584 30.5639C990.352 29.9342 989.995 29.4252 989.512 29.0369C989.029 28.6487 988.413 28.4545 987.665 28.4545C986.917 28.4545 986.301 28.6487 985.819 29.0369C985.336 29.4252 984.978 29.9342 984.746 30.5639C984.514 31.1937 984.398 31.8731 984.398 32.6023C984.398 33.3314 984.514 34.0085 984.746 34.6335C984.978 35.2585 985.336 35.7628 985.819 36.1463C986.301 36.5298 986.917 36.7216 987.665 36.7216ZM996.843 31.4375V38H995.167V27.0909H996.786V28.7955H996.928C997.184 28.2415 997.572 27.7964 998.093 27.4602C998.614 27.1193 999.286 26.9489 1000.11 26.9489C1000.85 26.9489 1001.5 27.1004 1002.05 27.4034C1002.6 27.7017 1003.03 28.1562 1003.34 28.767C1003.65 29.3731 1003.8 30.1402 1003.8 31.0682V38H1002.13V31.1818C1002.13 30.3248 1001.9 29.6572 1001.46 29.179C1001.01 28.696 1000.4 28.4545 999.627 28.4545C999.092 28.4545 998.614 28.5705 998.192 28.8026C997.776 29.0346 997.447 29.3731 997.205 29.8182C996.964 30.2633 996.843 30.803 996.843 31.4375ZM1010.99 38.2273C1010.08 38.2273 1009.27 37.9976 1008.58 37.5384C1007.88 37.0743 1007.34 36.4209 1006.94 35.5781C1006.55 34.7306 1006.35 33.7292 1006.35 32.5739C1006.35 31.428 1006.55 30.4337 1006.94 29.5909C1007.34 28.7481 1007.88 28.0971 1008.58 27.6378C1009.29 27.1785 1010.1 26.9489 1011.01 26.9489C1011.72 26.9489 1012.29 27.0672 1012.7 27.304C1013.11 27.536 1013.43 27.8011 1013.65 28.0994C1013.87 28.393 1014.04 28.6345 1014.17 28.8239H1014.31V23.4545H1015.99V38H1014.37V36.3239H1014.17C1014.04 36.5227 1013.87 36.7737 1013.64 37.0767C1013.41 37.375 1013.09 37.6425 1012.67 37.8793C1012.25 38.1113 1011.69 38.2273 1010.99 38.2273ZM1011.21 36.7216C1011.89 36.7216 1012.45 36.5464 1012.92 36.196C1013.38 35.8409 1013.73 35.3509 1013.98 34.7259C1014.22 34.0961 1014.34 33.3693 1014.34 32.5455C1014.34 31.7311 1014.22 31.0185 1013.98 30.4077C1013.75 29.7921 1013.4 29.3139 1012.93 28.973C1012.47 28.6274 1011.89 28.4545 1011.21 28.4545C1010.5 28.4545 1009.91 28.6368 1009.44 29.0014C1008.97 29.3613 1008.62 29.8513 1008.38 30.4716C1008.15 31.0871 1008.03 31.7784 1008.03 32.5455C1008.03 33.322 1008.15 34.0275 1008.39 34.6619C1008.63 35.2917 1008.98 35.7936 1009.45 36.1676C1009.92 36.5369 1010.51 36.7216 1011.21 36.7216ZM1022.5 38.2557C1021.81 38.2557 1021.18 38.1255 1020.62 37.8651C1020.05 37.5999 1019.61 37.2188 1019.27 36.7216C1018.94 36.2197 1018.78 35.6136 1018.78 34.9034C1018.78 34.2784 1018.9 33.7718 1019.15 33.3835C1019.39 32.9905 1019.72 32.6828 1020.13 32.4602C1020.55 32.2377 1021 32.072 1021.5 31.9631C1022 31.8494 1022.5 31.7595 1023.01 31.6932C1023.67 31.608 1024.21 31.544 1024.62 31.5014C1025.04 31.4541 1025.34 31.3759 1025.53 31.267C1025.73 31.1581 1025.82 30.9687 1025.82 30.6989V30.642C1025.82 29.9413 1025.63 29.3968 1025.25 29.0085C1024.87 28.6203 1024.29 28.4261 1023.52 28.4261C1022.72 28.4261 1022.09 28.6013 1021.64 28.9517C1021.18 29.3021 1020.86 29.6761 1020.68 30.0739L1019.09 29.5057C1019.37 28.8428 1019.75 28.3267 1020.23 27.9574C1020.7 27.5833 1021.22 27.3229 1021.79 27.1761C1022.36 27.0246 1022.91 26.9489 1023.46 26.9489C1023.81 26.9489 1024.22 26.9915 1024.67 27.0767C1025.13 27.1572 1025.57 27.3253 1026 27.581C1026.43 27.8366 1026.79 28.2225 1027.07 28.7386C1027.36 29.2547 1027.5 29.946 1027.5 30.8125V38H1025.82V36.5227H1025.74C1025.62 36.7595 1025.43 37.0128 1025.17 37.2827C1024.9 37.5526 1024.55 37.7822 1024.11 37.9716C1023.67 38.161 1023.13 38.2557 1022.5 38.2557ZM1022.75 36.75C1023.42 36.75 1023.98 36.6198 1024.43 36.3594C1024.89 36.099 1025.23 35.7628 1025.47 35.3509C1025.7 34.9389 1025.82 34.5057 1025.82 34.0511V32.517C1025.75 32.6023 1025.59 32.6804 1025.35 32.7514C1025.12 32.8177 1024.84 32.8769 1024.53 32.929C1024.22 32.9763 1023.92 33.0189 1023.63 33.0568C1023.34 33.09 1023.1 33.1184 1022.92 33.142C1022.49 33.1989 1022.08 33.2912 1021.7 33.419C1021.33 33.5421 1021.03 33.7292 1020.79 33.9801C1020.57 34.2263 1020.45 34.5625 1020.45 34.9886C1020.45 35.571 1020.67 36.0114 1021.1 36.3097C1021.53 36.6032 1022.09 36.75 1022.75 36.75ZM1030.56 38V27.0909H1032.18V28.7386H1032.29C1032.49 28.1989 1032.85 27.7609 1033.37 27.4247C1033.89 27.0885 1034.48 26.9205 1035.13 26.9205C1035.25 26.9205 1035.41 26.9228 1035.59 26.9276C1035.78 26.9323 1035.92 26.9394 1036.01 26.9489V28.6534C1035.96 28.6392 1035.83 28.6179 1035.62 28.5895C1035.42 28.5563 1035.21 28.5398 1034.99 28.5398C1034.46 28.5398 1033.99 28.651 1033.57 28.8736C1033.16 29.0914 1032.83 29.3944 1032.59 29.7827C1032.35 30.1662 1032.23 30.6042 1032.23 31.0966V38H1030.56ZM1039.41 42.0625C1039.13 42.0625 1038.87 42.0388 1038.65 41.9915C1038.43 41.9489 1038.27 41.9063 1038.19 41.8636L1038.62 40.3864C1039.23 40.5426 1039.73 40.5379 1040.14 40.3722C1040.55 40.2112 1040.9 39.7235 1041.2 38.9091L1041.51 38.0568L1037.48 27.0909H1039.3L1042.31 35.7841H1042.42L1045.43 27.0909L1047.27 27.1193L1042.62 39.5909C1042.41 40.1449 1042.15 40.6042 1041.85 40.9688C1041.54 41.3381 1041.18 41.6127 1040.77 41.7926C1040.37 41.9725 1039.92 42.0625 1039.41 42.0625ZM1053.49 22.7727L1048.81 40.1875H1047.27L1051.96 22.7727H1053.49ZM1058.69 38.2557C1058 38.2557 1057.37 38.1255 1056.81 37.8651C1056.24 37.5999 1055.8 37.2188 1055.47 36.7216C1055.13 36.2197 1054.97 35.6136 1054.97 34.9034C1054.97 34.2784 1055.09 33.7718 1055.34 33.3835C1055.58 32.9905 1055.91 32.6828 1056.32 32.4602C1056.74 32.2377 1057.19 32.072 1057.69 31.9631C1058.19 31.8494 1058.69 31.7595 1059.2 31.6932C1059.86 31.608 1060.4 31.544 1060.81 31.5014C1061.23 31.4541 1061.53 31.3759 1061.72 31.267C1061.92 31.1581 1062.01 30.9687 1062.01 30.6989V30.642C1062.01 29.9413 1061.82 29.3968 1061.44 29.0085C1061.06 28.6203 1060.48 28.4261 1059.71 28.4261C1058.91 28.4261 1058.28 28.6013 1057.83 28.9517C1057.38 29.3021 1057.06 29.6761 1056.87 30.0739L1055.28 29.5057C1055.56 28.8428 1055.94 28.3267 1056.42 27.9574C1056.9 27.5833 1057.42 27.3229 1057.98 27.1761C1058.55 27.0246 1059.11 26.9489 1059.66 26.9489C1060.01 26.9489 1060.41 26.9915 1060.86 27.0767C1061.32 27.1572 1061.76 27.3253 1062.19 27.581C1062.62 27.8366 1062.98 28.2225 1063.26 28.7386C1063.55 29.2547 1063.69 29.946 1063.69 30.8125V38H1062.01V36.5227H1061.93C1061.81 36.7595 1061.63 37.0128 1061.36 37.2827C1061.09 37.5526 1060.74 37.7822 1060.3 37.9716C1059.86 38.161 1059.32 38.2557 1058.69 38.2557ZM1058.95 36.75C1059.61 36.75 1060.17 36.6198 1060.62 36.3594C1061.08 36.099 1061.43 35.7628 1061.66 35.3509C1061.9 34.9389 1062.01 34.5057 1062.01 34.0511V32.517C1061.94 32.6023 1061.79 32.6804 1061.54 32.7514C1061.31 32.8177 1061.03 32.8769 1060.72 32.929C1060.41 32.9763 1060.11 33.0189 1059.82 33.0568C1059.53 33.09 1059.3 33.1184 1059.12 33.142C1058.68 33.1989 1058.27 33.2912 1057.89 33.419C1057.52 33.5421 1057.22 33.7292 1056.99 33.9801C1056.76 34.2263 1056.64 34.5625 1056.64 34.9886C1056.64 35.571 1056.86 36.0114 1057.29 36.3097C1057.73 36.6032 1058.28 36.75 1058.95 36.75ZM1071.18 38.2273C1070.16 38.2273 1069.28 37.9858 1068.54 37.5028C1067.8 37.0199 1067.23 36.3546 1066.83 35.5071C1066.44 34.6596 1066.24 33.6913 1066.24 32.6023C1066.24 31.4943 1066.44 30.5166 1066.85 29.669C1067.26 28.8168 1067.83 28.1515 1068.57 27.6733C1069.31 27.1903 1070.17 26.9489 1071.15 26.9489C1071.92 26.9489 1072.61 27.0909 1073.23 27.375C1073.84 27.6591 1074.35 28.0568 1074.74 28.5682C1075.13 29.0795 1075.38 29.6761 1075.47 30.358H1073.79C1073.67 29.8608 1073.38 29.4205 1072.94 29.0369C1072.51 28.6487 1071.92 28.4545 1071.18 28.4545C1070.53 28.4545 1069.95 28.625 1069.46 28.9659C1068.97 29.3021 1068.59 29.7779 1068.32 30.3935C1068.05 31.0043 1067.91 31.7216 1067.91 32.5455C1067.91 33.3883 1068.05 34.1222 1068.31 34.7472C1068.58 35.3722 1068.96 35.8575 1069.45 36.2031C1069.94 36.5488 1070.52 36.7216 1071.18 36.7216C1071.62 36.7216 1072.01 36.6458 1072.37 36.4943C1072.72 36.3428 1073.02 36.125 1073.27 35.8409C1073.52 35.5568 1073.69 35.2159 1073.79 34.8182H1075.47C1075.38 35.4621 1075.14 36.0421 1074.77 36.5582C1074.4 37.0696 1073.91 37.4768 1073.3 37.7798C1072.69 38.0781 1071.99 38.2273 1071.18 38.2273ZM1082.67 27.0909V28.5114H1077.01V27.0909H1082.67ZM1078.66 24.4773H1080.34V34.875C1080.34 35.3485 1080.4 35.7036 1080.54 35.9403C1080.68 36.1723 1080.86 36.3286 1081.08 36.4091C1081.3 36.4848 1081.54 36.5227 1081.78 36.5227C1081.97 36.5227 1082.12 36.5133 1082.24 36.4943C1082.36 36.4706 1082.45 36.4517 1082.52 36.4375L1082.86 37.9432C1082.75 37.9858 1082.59 38.0284 1082.39 38.071C1082.18 38.1184 1081.93 38.142 1081.61 38.142C1081.14 38.142 1080.68 38.0402 1080.22 37.8366C1079.77 37.633 1079.4 37.3229 1079.1 36.9062C1078.81 36.4896 1078.66 35.964 1078.66 35.3295V24.4773ZM1085.19 38V27.0909H1086.86V38H1085.19ZM1086.04 25.2727C1085.71 25.2727 1085.43 25.1615 1085.19 24.9389C1084.96 24.7164 1084.85 24.4489 1084.85 24.1364C1084.85 23.8239 1084.96 23.5563 1085.19 23.3338C1085.43 23.1113 1085.71 23 1086.04 23C1086.37 23 1086.64 23.1113 1086.88 23.3338C1087.11 23.5563 1087.23 23.8239 1087.23 24.1364C1087.23 24.4489 1087.11 24.7164 1086.88 24.9389C1086.64 25.1615 1086.37 25.2727 1086.04 25.2727ZM1098.85 27.0909L1094.82 38H1093.11L1089.08 27.0909H1090.9L1093.91 35.7841H1094.02L1097.03 27.0909H1098.85ZM1105.25 38.2273C1104.2 38.2273 1103.29 37.9953 1102.53 37.5312C1101.77 37.0625 1101.19 36.4091 1100.77 35.571C1100.37 34.7282 1100.16 33.7481 1100.16 32.6307C1100.16 31.5133 1100.37 30.5284 1100.77 29.6761C1101.19 28.8191 1101.76 28.1515 1102.49 27.6733C1103.23 27.1903 1104.09 26.9489 1105.08 26.9489C1105.65 26.9489 1106.21 27.0436 1106.76 27.233C1107.32 27.4223 1107.82 27.7301 1108.27 28.1562C1108.73 28.5777 1109.09 29.1364 1109.36 29.8324C1109.63 30.5284 1109.77 31.3854 1109.77 32.4034V33.1136H1101.36V31.6648H1108.06C1108.06 31.0492 1107.94 30.5 1107.69 30.017C1107.45 29.5341 1107.1 29.1529 1106.65 28.8736C1106.21 28.5942 1105.68 28.4545 1105.08 28.4545C1104.41 28.4545 1103.83 28.6203 1103.35 28.9517C1102.86 29.2784 1102.49 29.7045 1102.23 30.2301C1101.97 30.7557 1101.84 31.3191 1101.84 31.9205V32.8864C1101.84 33.7102 1101.98 34.4086 1102.27 34.9815C1102.55 35.5497 1102.95 35.983 1103.47 36.2812C1103.98 36.5748 1104.57 36.7216 1105.25 36.7216C1105.69 36.7216 1106.09 36.66 1106.44 36.5369C1106.8 36.4091 1107.11 36.2197 1107.37 35.9688C1107.63 35.7131 1107.83 35.3958 1107.98 35.017L1109.6 35.4716C1109.42 36.0208 1109.14 36.5038 1108.74 36.9205C1108.33 37.3324 1107.84 37.6544 1107.24 37.8864C1106.65 38.1136 1105.99 38.2273 1105.25 38.2273ZM1117.46 22.7727L1112.77 40.1875H1111.24L1115.92 22.7727H1117.46ZM1119.44 42.0909V27.0909H1121.06V28.8239H1121.26C1121.39 28.6345 1121.56 28.393 1121.77 28.0994C1122 27.8011 1122.31 27.536 1122.73 27.304C1123.14 27.0672 1123.71 26.9489 1124.42 26.9489C1125.33 26.9489 1126.14 27.1785 1126.84 27.6378C1127.55 28.0971 1128.09 28.7481 1128.49 29.5909C1128.88 30.4337 1129.07 31.428 1129.07 32.5739C1129.07 33.7292 1128.88 34.7306 1128.49 35.5781C1128.09 36.4209 1127.55 37.0743 1126.85 37.5384C1126.16 37.9976 1125.35 38.2273 1124.44 38.2273C1123.74 38.2273 1123.18 38.1113 1122.76 37.8793C1122.34 37.6425 1122.02 37.375 1121.79 37.0767C1121.56 36.7737 1121.39 36.5227 1121.26 36.3239H1121.12V42.0909H1119.44ZM1121.09 32.5455C1121.09 33.3693 1121.21 34.0961 1121.45 34.7259C1121.7 35.3509 1122.05 35.8409 1122.51 36.196C1122.98 36.5464 1123.54 36.7216 1124.22 36.7216C1124.92 36.7216 1125.5 36.5369 1125.97 36.1676C1126.44 35.7936 1126.8 35.2917 1127.04 34.6619C1127.28 34.0275 1127.4 33.322 1127.4 32.5455C1127.4 31.7784 1127.28 31.0871 1127.04 30.4716C1126.81 29.8513 1126.46 29.3613 1125.99 29.0014C1125.52 28.6368 1124.93 28.4545 1124.22 28.4545C1123.54 28.4545 1122.96 28.6274 1122.5 28.973C1122.03 29.3139 1121.68 29.7921 1121.45 30.4077C1121.21 31.0185 1121.09 31.7311 1121.09 32.5455ZM1131.63 38V27.0909H1133.25V28.7386H1133.36C1133.56 28.1989 1133.92 27.7609 1134.44 27.4247C1134.97 27.0885 1135.55 26.9205 1136.21 26.9205C1136.33 26.9205 1136.48 26.9228 1136.67 26.9276C1136.85 26.9323 1136.99 26.9394 1137.09 26.9489V28.6534C1137.03 28.6392 1136.9 28.6179 1136.7 28.5895C1136.5 28.5563 1136.29 28.5398 1136.06 28.5398C1135.53 28.5398 1135.06 28.651 1134.64 28.8736C1134.23 29.0914 1133.9 29.3944 1133.66 29.7827C1133.43 30.1662 1133.31 30.6042 1133.31 31.0966V38H1131.63ZM1143.31 38.2273C1142.26 38.2273 1141.36 37.9953 1140.59 37.5312C1139.84 37.0625 1139.25 36.4091 1138.84 35.571C1138.43 34.7282 1138.23 33.7481 1138.23 32.6307C1138.23 31.5133 1138.43 30.5284 1138.84 29.6761C1139.25 28.8191 1139.83 28.1515 1140.56 27.6733C1141.3 27.1903 1142.16 26.9489 1143.14 26.9489C1143.71 26.9489 1144.27 27.0436 1144.83 27.233C1145.38 27.4223 1145.89 27.7301 1146.34 28.1562C1146.8 28.5777 1147.16 29.1364 1147.43 29.8324C1147.7 30.5284 1147.83 31.3854 1147.83 32.4034V33.1136H1139.42V31.6648H1146.13C1146.13 31.0492 1146 30.5 1145.76 30.017C1145.52 29.5341 1145.17 29.1529 1144.72 28.8736C1144.28 28.5942 1143.75 28.4545 1143.14 28.4545C1142.48 28.4545 1141.9 28.6203 1141.41 28.9517C1140.93 29.2784 1140.56 29.7045 1140.3 30.2301C1140.04 30.7557 1139.91 31.3191 1139.91 31.9205V32.8864C1139.91 33.7102 1140.05 34.4086 1140.33 34.9815C1140.62 35.5497 1141.02 35.983 1141.53 36.2812C1142.04 36.5748 1142.64 36.7216 1143.31 36.7216C1143.76 36.7216 1144.15 36.66 1144.51 36.5369C1144.87 36.4091 1145.18 36.2197 1145.44 35.9688C1145.7 35.7131 1145.9 35.3958 1146.04 35.017L1147.66 35.4716C1147.49 36.0208 1147.2 36.5038 1146.8 36.9205C1146.4 37.3324 1145.9 37.6544 1145.31 37.8864C1144.72 38.1136 1144.05 38.2273 1143.31 38.2273ZM1158.11 29.5341L1156.6 29.9602C1156.51 29.7093 1156.37 29.4654 1156.18 29.2287C1156 28.9872 1155.76 28.7884 1155.45 28.6321C1155.13 28.4759 1154.73 28.3977 1154.25 28.3977C1153.58 28.3977 1153.02 28.5516 1152.58 28.8594C1152.14 29.1624 1151.92 29.5483 1151.92 30.017C1151.92 30.4337 1152.07 30.7628 1152.37 31.0043C1152.67 31.2457 1153.15 31.447 1153.79 31.608L1155.41 32.0057C1156.39 32.2424 1157.11 32.6046 1157.59 33.0923C1158.07 33.5753 1158.31 34.1979 1158.31 34.9602C1158.31 35.5852 1158.13 36.1439 1157.77 36.6364C1157.41 37.1288 1156.92 37.517 1156.28 37.8011C1155.64 38.0852 1154.89 38.2273 1154.05 38.2273C1152.93 38.2273 1152.01 37.9858 1151.28 37.5028C1150.55 37.0199 1150.09 36.3144 1149.9 35.3864L1151.49 34.9886C1151.64 35.5758 1151.93 36.0161 1152.35 36.3097C1152.78 36.6032 1153.33 36.75 1154.02 36.75C1154.8 36.75 1155.42 36.5843 1155.88 36.2528C1156.34 35.9167 1156.57 35.5142 1156.57 35.0455C1156.57 34.6667 1156.44 34.3494 1156.18 34.0938C1155.91 33.8333 1155.5 33.6392 1154.96 33.5114L1153.14 33.0852C1152.14 32.8485 1151.4 32.4815 1150.94 31.9844C1150.47 31.4825 1150.24 30.8551 1150.24 30.1023C1150.24 29.4867 1150.41 28.9422 1150.76 28.4688C1151.11 27.9953 1151.58 27.6236 1152.19 27.3537C1152.79 27.0838 1153.48 26.9489 1154.25 26.9489C1155.32 26.9489 1156.17 27.1856 1156.79 27.6591C1157.41 28.1326 1157.85 28.7576 1158.11 29.5341ZM1168.56 29.5341L1167.05 29.9602C1166.96 29.7093 1166.82 29.4654 1166.63 29.2287C1166.45 28.9872 1166.21 28.7884 1165.89 28.6321C1165.58 28.4759 1165.18 28.3977 1164.69 28.3977C1164.03 28.3977 1163.47 28.5516 1163.03 28.8594C1162.59 29.1624 1162.37 29.5483 1162.37 30.017C1162.37 30.4337 1162.52 30.7628 1162.82 31.0043C1163.12 31.2457 1163.6 31.447 1164.24 31.608L1165.86 32.0057C1166.83 32.2424 1167.56 32.6046 1168.04 33.0923C1168.52 33.5753 1168.76 34.1979 1168.76 34.9602C1168.76 35.5852 1168.58 36.1439 1168.22 36.6364C1167.86 37.1288 1167.37 37.517 1166.73 37.8011C1166.09 38.0852 1165.34 38.2273 1164.5 38.2273C1163.38 38.2273 1162.46 37.9858 1161.73 37.5028C1161 37.0199 1160.54 36.3144 1160.35 35.3864L1161.94 34.9886C1162.09 35.5758 1162.38 36.0161 1162.8 36.3097C1163.22 36.6032 1163.78 36.75 1164.47 36.75C1165.25 36.75 1165.87 36.5843 1166.33 36.2528C1166.79 35.9167 1167.02 35.5142 1167.02 35.0455C1167.02 34.6667 1166.89 34.3494 1166.63 34.0938C1166.36 33.8333 1165.95 33.6392 1165.4 33.5114L1163.59 33.0852C1162.59 32.8485 1161.85 32.4815 1161.38 31.9844C1160.92 31.4825 1160.69 30.8551 1160.69 30.1023C1160.69 29.4867 1160.86 28.9422 1161.21 28.4688C1161.56 27.9953 1162.03 27.6236 1162.63 27.3537C1163.24 27.0838 1163.93 26.9489 1164.69 26.9489C1165.77 26.9489 1166.62 27.1856 1167.24 27.6591C1167.86 28.1326 1168.3 28.7576 1168.56 29.5341ZM1175.85 38.2273C1174.8 38.2273 1173.9 37.9953 1173.13 37.5312C1172.38 37.0625 1171.79 36.4091 1171.38 35.571C1170.97 34.7282 1170.77 33.7481 1170.77 32.6307C1170.77 31.5133 1170.97 30.5284 1171.38 29.6761C1171.79 28.8191 1172.36 28.1515 1173.1 27.6733C1173.84 27.1903 1174.7 26.9489 1175.68 26.9489C1176.25 26.9489 1176.81 27.0436 1177.37 27.233C1177.92 27.4223 1178.43 27.7301 1178.88 28.1562C1179.33 28.5777 1179.7 29.1364 1179.97 29.8324C1180.24 30.5284 1180.37 31.3854 1180.37 32.4034V33.1136H1171.96V31.6648H1178.67C1178.67 31.0492 1178.54 30.5 1178.3 30.017C1178.06 29.5341 1177.71 29.1529 1177.26 28.8736C1176.82 28.5942 1176.29 28.4545 1175.68 28.4545C1175.02 28.4545 1174.44 28.6203 1173.95 28.9517C1173.47 29.2784 1173.1 29.7045 1172.84 30.2301C1172.58 30.7557 1172.44 31.3191 1172.44 31.9205V32.8864C1172.44 33.7102 1172.59 34.4086 1172.87 34.9815C1173.16 35.5497 1173.56 35.983 1174.07 36.2812C1174.58 36.5748 1175.18 36.7216 1175.85 36.7216C1176.29 36.7216 1176.69 36.66 1177.05 36.5369C1177.41 36.4091 1177.72 36.2197 1177.98 35.9688C1178.24 35.7131 1178.44 35.3958 1178.58 35.017L1180.2 35.4716C1180.03 36.0208 1179.74 36.5038 1179.34 36.9205C1178.94 37.3324 1178.44 37.6544 1177.85 37.8864C1177.26 38.1136 1176.59 38.2273 1175.85 38.2273ZM1187.04 38.2273C1186.13 38.2273 1185.33 37.9976 1184.63 37.5384C1183.94 37.0743 1183.39 36.4209 1183 35.5781C1182.61 34.7306 1182.41 33.7292 1182.41 32.5739C1182.41 31.428 1182.61 30.4337 1183 29.5909C1183.39 28.7481 1183.94 28.0971 1184.64 27.6378C1185.34 27.1785 1186.15 26.9489 1187.07 26.9489C1187.78 26.9489 1188.34 27.0672 1188.75 27.304C1189.17 27.536 1189.49 27.8011 1189.7 28.0994C1189.93 28.393 1190.1 28.6345 1190.22 28.8239H1190.36V23.4545H1192.04V38H1190.42V36.3239H1190.22C1190.1 36.5227 1189.92 36.7737 1189.7 37.0767C1189.47 37.375 1189.14 37.6425 1188.72 37.8793C1188.3 38.1113 1187.74 38.2273 1187.04 38.2273ZM1187.27 36.7216C1187.94 36.7216 1188.51 36.5464 1188.97 36.196C1189.44 35.8409 1189.79 35.3509 1190.03 34.7259C1190.27 34.0961 1190.39 33.3693 1190.39 32.5455C1190.39 31.7311 1190.27 31.0185 1190.04 30.4077C1189.8 29.7921 1189.45 29.3139 1188.99 28.973C1188.52 28.6274 1187.95 28.4545 1187.27 28.4545C1186.56 28.4545 1185.97 28.6368 1185.49 29.0014C1185.02 29.3613 1184.67 29.8513 1184.43 30.4716C1184.2 31.0871 1184.09 31.7784 1184.09 32.5455C1184.09 33.322 1184.2 34.0275 1184.44 34.6619C1184.68 35.2917 1185.04 35.7936 1185.51 36.1676C1185.98 36.5369 1186.57 36.7216 1187.27 36.7216Z" fill="white" fill-opacity="0.95"/>
</g>
<path d="M1150 61H0V63H1150V61Z" fill="#5B5B5B" mask="url(#path-1-inside-1_2110_46646)"/>
<defs>
<clipPath id="clip0_2110_46646">
<path d="M0 0H1150V62H0V0Z" fill="white"/>
</clipPath>
</defs>
</svg>
