<svg width="1150" height="412" viewBox="0 0 1150 412" fill="none" xmlns="http://www.w3.org/2000/svg">
<rect width="1150" height="412" rx="16" fill="#1A1A1A"/>
<rect x="195" y="100" width="32" height="32" rx="16" fill="#DA0087"/>
<path d="M212.755 111.318V121.5H210.602V113.362H210.543L208.211 114.823V112.914L210.732 111.318H212.755Z" fill="white"/>
<g clip-path="url(#clip0_2110_62821)">
<rect x="195" y="144" width="61" height="32" rx="16" fill="white" fill-opacity="0.2"/>
<path d="M208.449 165V154.818H209.985V163.678H214.599V165H208.449ZM218.454 165.169C217.97 165.169 217.533 165.08 217.142 164.901C216.75 164.718 216.441 164.455 216.212 164.11C215.986 163.765 215.874 163.343 215.874 162.842C215.874 162.411 215.957 162.057 216.122 161.778C216.288 161.5 216.512 161.28 216.794 161.117C217.075 160.955 217.39 160.832 217.738 160.749C218.086 160.666 218.441 160.603 218.802 160.56C219.259 160.507 219.631 160.464 219.916 160.431C220.201 160.395 220.408 160.337 220.537 160.257C220.666 160.178 220.731 160.048 220.731 159.869V159.835C220.731 159.4 220.608 159.064 220.363 158.825C220.121 158.587 219.76 158.467 219.279 158.467C218.779 158.467 218.384 158.578 218.096 158.8C217.811 159.019 217.614 159.263 217.504 159.531L216.107 159.213C216.273 158.749 216.515 158.375 216.833 158.089C217.155 157.801 217.524 157.592 217.942 157.463C218.36 157.33 218.799 157.264 219.259 157.264C219.564 157.264 219.887 157.301 220.229 157.374C220.574 157.443 220.895 157.572 221.193 157.761C221.495 157.95 221.742 158.22 221.934 158.572C222.126 158.92 222.222 159.372 222.222 159.929V165H220.771V163.956H220.711C220.615 164.148 220.471 164.337 220.279 164.523C220.086 164.708 219.839 164.862 219.538 164.985C219.236 165.108 218.875 165.169 218.454 165.169ZM218.777 163.976C219.188 163.976 219.539 163.895 219.831 163.732C220.126 163.57 220.35 163.358 220.502 163.096C220.658 162.831 220.736 162.547 220.736 162.246V161.261C220.683 161.314 220.58 161.364 220.428 161.411C220.279 161.454 220.108 161.492 219.916 161.525C219.723 161.555 219.536 161.583 219.354 161.609C219.172 161.633 219.019 161.652 218.896 161.669C218.608 161.705 218.345 161.767 218.106 161.853C217.871 161.939 217.682 162.063 217.539 162.226C217.4 162.385 217.33 162.597 217.33 162.862C217.33 163.23 217.466 163.509 217.738 163.697C218.01 163.883 218.356 163.976 218.777 163.976ZM224.322 165V154.818H225.808V158.602H225.898C225.984 158.442 226.108 158.259 226.271 158.05C226.433 157.841 226.658 157.659 226.947 157.503C227.235 157.344 227.616 157.264 228.09 157.264C228.707 157.264 229.257 157.42 229.741 157.732C230.225 158.043 230.604 158.492 230.879 159.079C231.158 159.665 231.297 160.371 231.297 161.197C231.297 162.022 231.159 162.73 230.884 163.32C230.609 163.906 230.231 164.359 229.751 164.677C229.27 164.992 228.722 165.149 228.105 165.149C227.641 165.149 227.262 165.071 226.967 164.915C226.675 164.76 226.446 164.577 226.281 164.369C226.115 164.16 225.987 163.974 225.898 163.812H225.773V165H224.322ZM225.778 161.182C225.778 161.719 225.856 162.189 226.012 162.594C226.168 162.998 226.393 163.315 226.688 163.543C226.983 163.769 227.344 163.881 227.772 163.881C228.216 163.881 228.587 163.764 228.886 163.528C229.184 163.29 229.409 162.967 229.562 162.559C229.718 162.151 229.795 161.692 229.795 161.182C229.795 160.678 229.719 160.226 229.567 159.825C229.418 159.424 229.192 159.107 228.891 158.875C228.592 158.643 228.219 158.527 227.772 158.527C227.341 158.527 226.977 158.638 226.678 158.86C226.383 159.082 226.16 159.392 226.007 159.79C225.855 160.187 225.778 160.652 225.778 161.182ZM236.257 165.154C235.505 165.154 234.857 164.993 234.313 164.672C233.773 164.347 233.356 163.891 233.061 163.305C232.769 162.715 232.623 162.024 232.623 161.232C232.623 160.449 232.769 159.76 233.061 159.163C233.356 158.567 233.767 158.101 234.294 157.766C234.824 157.432 235.444 157.264 236.153 157.264C236.584 157.264 237.001 157.335 237.406 157.478C237.81 157.621 238.173 157.844 238.494 158.149C238.816 158.454 239.07 158.85 239.255 159.337C239.441 159.821 239.534 160.41 239.534 161.102V161.629H233.463V160.516H238.077C238.077 160.125 237.997 159.778 237.838 159.477C237.679 159.172 237.455 158.931 237.167 158.756C236.882 158.58 236.547 158.492 236.163 158.492C235.745 158.492 235.381 158.595 235.069 158.8C234.761 159.003 234.522 159.268 234.353 159.596C234.187 159.921 234.105 160.274 234.105 160.655V161.525C234.105 162.035 234.194 162.469 234.373 162.827C234.555 163.185 234.809 163.459 235.134 163.648C235.459 163.833 235.838 163.926 236.272 163.926C236.554 163.926 236.811 163.886 237.043 163.807C237.275 163.724 237.475 163.601 237.644 163.439C237.813 163.277 237.943 163.076 238.032 162.837L239.439 163.091C239.326 163.505 239.124 163.868 238.833 164.18C238.544 164.488 238.181 164.728 237.744 164.901C237.31 165.07 236.814 165.154 236.257 165.154ZM242.669 154.818V165H241.183V154.818H242.669Z" fill="white" fill-opacity="0.95"/>
<path d="M277.449 165V154.818H278.985V163.678H283.599V165H277.449ZM287.454 165.169C286.97 165.169 286.533 165.08 286.142 164.901C285.75 164.718 285.441 164.455 285.212 164.11C284.986 163.765 284.874 163.343 284.874 162.842C284.874 162.411 284.957 162.057 285.122 161.778C285.288 161.5 285.512 161.28 285.794 161.117C286.075 160.955 286.39 160.832 286.738 160.749C287.086 160.666 287.441 160.603 287.802 160.56C288.259 160.507 288.631 160.464 288.916 160.431C289.201 160.395 289.408 160.337 289.537 160.257C289.666 160.178 289.731 160.048 289.731 159.869V159.835C289.731 159.4 289.608 159.064 289.363 158.825C289.121 158.587 288.76 158.467 288.279 158.467C287.779 158.467 287.384 158.578 287.096 158.8C286.811 159.019 286.614 159.263 286.504 159.531L285.107 159.213C285.273 158.749 285.515 158.375 285.833 158.089C286.155 157.801 286.524 157.592 286.942 157.463C287.36 157.33 287.799 157.264 288.259 157.264C288.564 157.264 288.887 157.301 289.229 157.374C289.574 157.443 289.895 157.572 290.193 157.761C290.495 157.95 290.742 158.22 290.934 158.572C291.126 158.92 291.222 159.372 291.222 159.929V165H289.771V163.956H289.711C289.615 164.148 289.471 164.337 289.279 164.523C289.086 164.708 288.839 164.862 288.538 164.985C288.236 165.108 287.875 165.169 287.454 165.169ZM287.777 163.976C288.188 163.976 288.539 163.895 288.831 163.732C289.126 163.57 289.35 163.358 289.502 163.096C289.658 162.831 289.736 162.547 289.736 162.246V161.261C289.683 161.314 289.58 161.364 289.428 161.411C289.279 161.454 289.108 161.492 288.916 161.525C288.723 161.555 288.536 161.583 288.354 161.609C288.172 161.633 288.019 161.652 287.896 161.669C287.608 161.705 287.345 161.767 287.106 161.853C286.871 161.939 286.682 162.063 286.539 162.226C286.4 162.385 286.33 162.597 286.33 162.862C286.33 163.23 286.466 163.509 286.738 163.697C287.01 163.883 287.356 163.976 287.777 163.976ZM293.322 165V154.818H294.808V158.602H294.898C294.984 158.442 295.108 158.259 295.271 158.05C295.433 157.841 295.658 157.659 295.947 157.503C296.235 157.344 296.616 157.264 297.09 157.264C297.707 157.264 298.257 157.42 298.741 157.732C299.225 158.043 299.604 158.492 299.879 159.079C300.158 159.665 300.297 160.371 300.297 161.197C300.297 162.022 300.159 162.73 299.884 163.32C299.609 163.906 299.231 164.359 298.751 164.677C298.27 164.992 297.722 165.149 297.105 165.149C296.641 165.149 296.262 165.071 295.967 164.915C295.675 164.76 295.446 164.577 295.281 164.369C295.115 164.16 294.987 163.974 294.898 163.812H294.773V165H293.322ZM294.778 161.182C294.778 161.719 294.856 162.189 295.012 162.594C295.168 162.998 295.393 163.315 295.688 163.543C295.983 163.769 296.344 163.881 296.772 163.881C297.216 163.881 297.587 163.764 297.886 163.528C298.184 163.29 298.409 162.967 298.562 162.559C298.718 162.151 298.795 161.692 298.795 161.182C298.795 160.678 298.719 160.226 298.567 159.825C298.418 159.424 298.192 159.107 297.891 158.875C297.592 158.643 297.219 158.527 296.772 158.527C296.341 158.527 295.977 158.638 295.678 158.86C295.383 159.082 295.16 159.392 295.007 159.79C294.855 160.187 294.778 160.652 294.778 161.182ZM305.257 165.154C304.505 165.154 303.857 164.993 303.313 164.672C302.773 164.347 302.356 163.891 302.061 163.305C301.769 162.715 301.623 162.024 301.623 161.232C301.623 160.449 301.769 159.76 302.061 159.163C302.356 158.567 302.767 158.101 303.294 157.766C303.824 157.432 304.444 157.264 305.153 157.264C305.584 157.264 306.001 157.335 306.406 157.478C306.81 157.621 307.173 157.844 307.494 158.149C307.816 158.454 308.07 158.85 308.255 159.337C308.441 159.821 308.534 160.41 308.534 161.102V161.629H302.463V160.516H307.077C307.077 160.125 306.997 159.778 306.838 159.477C306.679 159.172 306.455 158.931 306.167 158.756C305.882 158.58 305.547 158.492 305.163 158.492C304.745 158.492 304.381 158.595 304.069 158.8C303.761 159.003 303.522 159.268 303.353 159.596C303.187 159.921 303.105 160.274 303.105 160.655V161.525C303.105 162.035 303.194 162.469 303.373 162.827C303.555 163.185 303.809 163.459 304.134 163.648C304.459 163.833 304.838 163.926 305.272 163.926C305.554 163.926 305.811 163.886 306.043 163.807C306.275 163.724 306.475 163.601 306.644 163.439C306.813 163.277 306.943 163.076 307.032 162.837L308.439 163.091C308.326 163.505 308.124 163.868 307.833 164.18C307.544 164.488 307.181 164.728 306.744 164.901C306.31 165.07 305.814 165.154 305.257 165.154ZM311.669 154.818V165H310.183V154.818H311.669Z" fill="white" fill-opacity="0.7"/>
<path d="M346.449 165V154.818H347.985V163.678H352.599V165H346.449ZM356.454 165.169C355.97 165.169 355.533 165.08 355.142 164.901C354.75 164.718 354.441 164.455 354.212 164.11C353.986 163.765 353.874 163.343 353.874 162.842C353.874 162.411 353.957 162.057 354.122 161.778C354.288 161.5 354.512 161.28 354.794 161.117C355.075 160.955 355.39 160.832 355.738 160.749C356.086 160.666 356.441 160.603 356.802 160.56C357.259 160.507 357.631 160.464 357.916 160.431C358.201 160.395 358.408 160.337 358.537 160.257C358.666 160.178 358.731 160.048 358.731 159.869V159.835C358.731 159.4 358.608 159.064 358.363 158.825C358.121 158.587 357.76 158.467 357.279 158.467C356.779 158.467 356.384 158.578 356.096 158.8C355.811 159.019 355.614 159.263 355.504 159.531L354.107 159.213C354.273 158.749 354.515 158.375 354.833 158.089C355.155 157.801 355.524 157.592 355.942 157.463C356.36 157.33 356.799 157.264 357.259 157.264C357.564 157.264 357.887 157.301 358.229 157.374C358.574 157.443 358.895 157.572 359.193 157.761C359.495 157.95 359.742 158.22 359.934 158.572C360.126 158.92 360.222 159.372 360.222 159.929V165H358.771V163.956H358.711C358.615 164.148 358.471 164.337 358.279 164.523C358.086 164.708 357.839 164.862 357.538 164.985C357.236 165.108 356.875 165.169 356.454 165.169ZM356.777 163.976C357.188 163.976 357.539 163.895 357.831 163.732C358.126 163.57 358.35 163.358 358.502 163.096C358.658 162.831 358.736 162.547 358.736 162.246V161.261C358.683 161.314 358.58 161.364 358.428 161.411C358.279 161.454 358.108 161.492 357.916 161.525C357.723 161.555 357.536 161.583 357.354 161.609C357.172 161.633 357.019 161.652 356.896 161.669C356.608 161.705 356.345 161.767 356.106 161.853C355.871 161.939 355.682 162.063 355.539 162.226C355.4 162.385 355.33 162.597 355.33 162.862C355.33 163.23 355.466 163.509 355.738 163.697C356.01 163.883 356.356 163.976 356.777 163.976ZM362.322 165V154.818H363.808V158.602H363.898C363.984 158.442 364.108 158.259 364.271 158.05C364.433 157.841 364.658 157.659 364.947 157.503C365.235 157.344 365.616 157.264 366.09 157.264C366.707 157.264 367.257 157.42 367.741 157.732C368.225 158.043 368.604 158.492 368.879 159.079C369.158 159.665 369.297 160.371 369.297 161.197C369.297 162.022 369.159 162.73 368.884 163.32C368.609 163.906 368.231 164.359 367.751 164.677C367.27 164.992 366.722 165.149 366.105 165.149C365.641 165.149 365.262 165.071 364.967 164.915C364.675 164.76 364.446 164.577 364.281 164.369C364.115 164.16 363.987 163.974 363.898 163.812H363.773V165H362.322ZM363.778 161.182C363.778 161.719 363.856 162.189 364.012 162.594C364.168 162.998 364.393 163.315 364.688 163.543C364.983 163.769 365.344 163.881 365.772 163.881C366.216 163.881 366.587 163.764 366.886 163.528C367.184 163.29 367.409 162.967 367.562 162.559C367.718 162.151 367.795 161.692 367.795 161.182C367.795 160.678 367.719 160.226 367.567 159.825C367.418 159.424 367.192 159.107 366.891 158.875C366.592 158.643 366.219 158.527 365.772 158.527C365.341 158.527 364.977 158.638 364.678 158.86C364.383 159.082 364.16 159.392 364.007 159.79C363.855 160.187 363.778 160.652 363.778 161.182ZM374.257 165.154C373.505 165.154 372.857 164.993 372.313 164.672C371.773 164.347 371.356 163.891 371.061 163.305C370.769 162.715 370.623 162.024 370.623 161.232C370.623 160.449 370.769 159.76 371.061 159.163C371.356 158.567 371.767 158.101 372.294 157.766C372.824 157.432 373.444 157.264 374.153 157.264C374.584 157.264 375.001 157.335 375.406 157.478C375.81 157.621 376.173 157.844 376.494 158.149C376.816 158.454 377.07 158.85 377.255 159.337C377.441 159.821 377.534 160.41 377.534 161.102V161.629H371.463V160.516H376.077C376.077 160.125 375.997 159.778 375.838 159.477C375.679 159.172 375.455 158.931 375.167 158.756C374.882 158.58 374.547 158.492 374.163 158.492C373.745 158.492 373.381 158.595 373.069 158.8C372.761 159.003 372.522 159.268 372.353 159.596C372.187 159.921 372.105 160.274 372.105 160.655V161.525C372.105 162.035 372.194 162.469 372.373 162.827C372.555 163.185 372.809 163.459 373.134 163.648C373.459 163.833 373.838 163.926 374.272 163.926C374.554 163.926 374.811 163.886 375.043 163.807C375.275 163.724 375.475 163.601 375.644 163.439C375.813 163.277 375.943 163.076 376.032 162.837L377.439 163.091C377.326 163.505 377.124 163.868 376.833 164.18C376.544 164.488 376.181 164.728 375.744 164.901C375.31 165.07 374.814 165.154 374.257 165.154ZM380.669 154.818V165H379.183V154.818H380.669Z" fill="white" fill-opacity="0.7"/>
<path d="M415.449 165V154.818H416.985V163.678H421.599V165H415.449ZM425.454 165.169C424.97 165.169 424.533 165.08 424.142 164.901C423.75 164.718 423.441 164.455 423.212 164.11C422.986 163.765 422.874 163.343 422.874 162.842C422.874 162.411 422.957 162.057 423.122 161.778C423.288 161.5 423.512 161.28 423.794 161.117C424.075 160.955 424.39 160.832 424.738 160.749C425.086 160.666 425.441 160.603 425.802 160.56C426.259 160.507 426.631 160.464 426.916 160.431C427.201 160.395 427.408 160.337 427.537 160.257C427.666 160.178 427.731 160.048 427.731 159.869V159.835C427.731 159.4 427.608 159.064 427.363 158.825C427.121 158.587 426.76 158.467 426.279 158.467C425.779 158.467 425.384 158.578 425.096 158.8C424.811 159.019 424.614 159.263 424.504 159.531L423.107 159.213C423.273 158.749 423.515 158.375 423.833 158.089C424.155 157.801 424.524 157.592 424.942 157.463C425.36 157.33 425.799 157.264 426.259 157.264C426.564 157.264 426.887 157.301 427.229 157.374C427.574 157.443 427.895 157.572 428.193 157.761C428.495 157.95 428.742 158.22 428.934 158.572C429.126 158.92 429.222 159.372 429.222 159.929V165H427.771V163.956H427.711C427.615 164.148 427.471 164.337 427.279 164.523C427.086 164.708 426.839 164.862 426.538 164.985C426.236 165.108 425.875 165.169 425.454 165.169ZM425.777 163.976C426.188 163.976 426.539 163.895 426.831 163.732C427.126 163.57 427.35 163.358 427.502 163.096C427.658 162.831 427.736 162.547 427.736 162.246V161.261C427.683 161.314 427.58 161.364 427.428 161.411C427.279 161.454 427.108 161.492 426.916 161.525C426.723 161.555 426.536 161.583 426.354 161.609C426.172 161.633 426.019 161.652 425.896 161.669C425.608 161.705 425.345 161.767 425.106 161.853C424.871 161.939 424.682 162.063 424.539 162.226C424.4 162.385 424.33 162.597 424.33 162.862C424.33 163.23 424.466 163.509 424.738 163.697C425.01 163.883 425.356 163.976 425.777 163.976ZM431.322 165V154.818H432.808V158.602H432.898C432.984 158.442 433.108 158.259 433.271 158.05C433.433 157.841 433.658 157.659 433.947 157.503C434.235 157.344 434.616 157.264 435.09 157.264C435.707 157.264 436.257 157.42 436.741 157.732C437.225 158.043 437.604 158.492 437.879 159.079C438.158 159.665 438.297 160.371 438.297 161.197C438.297 162.022 438.159 162.73 437.884 163.32C437.609 163.906 437.231 164.359 436.751 164.677C436.27 164.992 435.722 165.149 435.105 165.149C434.641 165.149 434.262 165.071 433.967 164.915C433.675 164.76 433.446 164.577 433.281 164.369C433.115 164.16 432.987 163.974 432.898 163.812H432.773V165H431.322ZM432.778 161.182C432.778 161.719 432.856 162.189 433.012 162.594C433.168 162.998 433.393 163.315 433.688 163.543C433.983 163.769 434.344 163.881 434.772 163.881C435.216 163.881 435.587 163.764 435.886 163.528C436.184 163.29 436.409 162.967 436.562 162.559C436.718 162.151 436.795 161.692 436.795 161.182C436.795 160.678 436.719 160.226 436.567 159.825C436.418 159.424 436.192 159.107 435.891 158.875C435.592 158.643 435.219 158.527 434.772 158.527C434.341 158.527 433.977 158.638 433.678 158.86C433.383 159.082 433.16 159.392 433.007 159.79C432.855 160.187 432.778 160.652 432.778 161.182ZM443.257 165.154C442.505 165.154 441.857 164.993 441.313 164.672C440.773 164.347 440.356 163.891 440.061 163.305C439.769 162.715 439.623 162.024 439.623 161.232C439.623 160.449 439.769 159.76 440.061 159.163C440.356 158.567 440.767 158.101 441.294 157.766C441.824 157.432 442.444 157.264 443.153 157.264C443.584 157.264 444.001 157.335 444.406 157.478C444.81 157.621 445.173 157.844 445.494 158.149C445.816 158.454 446.07 158.85 446.255 159.337C446.441 159.821 446.534 160.41 446.534 161.102V161.629H440.463V160.516H445.077C445.077 160.125 444.997 159.778 444.838 159.477C444.679 159.172 444.455 158.931 444.167 158.756C443.882 158.58 443.547 158.492 443.163 158.492C442.745 158.492 442.381 158.595 442.069 158.8C441.761 159.003 441.522 159.268 441.353 159.596C441.187 159.921 441.105 160.274 441.105 160.655V161.525C441.105 162.035 441.194 162.469 441.373 162.827C441.555 163.185 441.809 163.459 442.134 163.648C442.459 163.833 442.838 163.926 443.272 163.926C443.554 163.926 443.811 163.886 444.043 163.807C444.275 163.724 444.475 163.601 444.644 163.439C444.813 163.277 444.943 163.076 445.032 162.837L446.439 163.091C446.326 163.505 446.124 163.868 445.833 164.18C445.544 164.488 445.181 164.728 444.744 164.901C444.31 165.07 443.814 165.154 443.257 165.154ZM449.669 154.818V165H448.183V154.818H449.669Z" fill="white" fill-opacity="0.7"/>
<path d="M484.449 165V154.818H485.985V163.678H490.599V165H484.449ZM494.454 165.169C493.97 165.169 493.533 165.08 493.142 164.901C492.75 164.718 492.441 164.455 492.212 164.11C491.986 163.765 491.874 163.343 491.874 162.842C491.874 162.411 491.957 162.057 492.122 161.778C492.288 161.5 492.512 161.28 492.794 161.117C493.075 160.955 493.39 160.832 493.738 160.749C494.086 160.666 494.441 160.603 494.802 160.56C495.259 160.507 495.631 160.464 495.916 160.431C496.201 160.395 496.408 160.337 496.537 160.257C496.666 160.178 496.731 160.048 496.731 159.869V159.835C496.731 159.4 496.608 159.064 496.363 158.825C496.121 158.587 495.76 158.467 495.279 158.467C494.779 158.467 494.384 158.578 494.096 158.8C493.811 159.019 493.614 159.263 493.504 159.531L492.107 159.213C492.273 158.749 492.515 158.375 492.833 158.089C493.155 157.801 493.524 157.592 493.942 157.463C494.36 157.33 494.799 157.264 495.259 157.264C495.564 157.264 495.887 157.301 496.229 157.374C496.574 157.443 496.895 157.572 497.193 157.761C497.495 157.95 497.742 158.22 497.934 158.572C498.126 158.92 498.222 159.372 498.222 159.929V165H496.771V163.956H496.711C496.615 164.148 496.471 164.337 496.279 164.523C496.086 164.708 495.839 164.862 495.538 164.985C495.236 165.108 494.875 165.169 494.454 165.169ZM494.777 163.976C495.188 163.976 495.539 163.895 495.831 163.732C496.126 163.57 496.35 163.358 496.502 163.096C496.658 162.831 496.736 162.547 496.736 162.246V161.261C496.683 161.314 496.58 161.364 496.428 161.411C496.279 161.454 496.108 161.492 495.916 161.525C495.723 161.555 495.536 161.583 495.354 161.609C495.172 161.633 495.019 161.652 494.896 161.669C494.608 161.705 494.345 161.767 494.106 161.853C493.871 161.939 493.682 162.063 493.539 162.226C493.4 162.385 493.33 162.597 493.33 162.862C493.33 163.23 493.466 163.509 493.738 163.697C494.01 163.883 494.356 163.976 494.777 163.976ZM500.322 165V154.818H501.808V158.602H501.898C501.984 158.442 502.108 158.259 502.271 158.05C502.433 157.841 502.658 157.659 502.947 157.503C503.235 157.344 503.616 157.264 504.09 157.264C504.707 157.264 505.257 157.42 505.741 157.732C506.225 158.043 506.604 158.492 506.879 159.079C507.158 159.665 507.297 160.371 507.297 161.197C507.297 162.022 507.159 162.73 506.884 163.32C506.609 163.906 506.231 164.359 505.751 164.677C505.27 164.992 504.722 165.149 504.105 165.149C503.641 165.149 503.262 165.071 502.967 164.915C502.675 164.76 502.446 164.577 502.281 164.369C502.115 164.16 501.987 163.974 501.898 163.812H501.773V165H500.322ZM501.778 161.182C501.778 161.719 501.856 162.189 502.012 162.594C502.168 162.998 502.393 163.315 502.688 163.543C502.983 163.769 503.344 163.881 503.772 163.881C504.216 163.881 504.587 163.764 504.886 163.528C505.184 163.29 505.409 162.967 505.562 162.559C505.718 162.151 505.795 161.692 505.795 161.182C505.795 160.678 505.719 160.226 505.567 159.825C505.418 159.424 505.192 159.107 504.891 158.875C504.592 158.643 504.219 158.527 503.772 158.527C503.341 158.527 502.977 158.638 502.678 158.86C502.383 159.082 502.16 159.392 502.007 159.79C501.855 160.187 501.778 160.652 501.778 161.182ZM512.257 165.154C511.505 165.154 510.857 164.993 510.313 164.672C509.773 164.347 509.356 163.891 509.061 163.305C508.769 162.715 508.623 162.024 508.623 161.232C508.623 160.449 508.769 159.76 509.061 159.163C509.356 158.567 509.767 158.101 510.294 157.766C510.824 157.432 511.444 157.264 512.153 157.264C512.584 157.264 513.001 157.335 513.406 157.478C513.81 157.621 514.173 157.844 514.494 158.149C514.816 158.454 515.07 158.85 515.255 159.337C515.441 159.821 515.534 160.41 515.534 161.102V161.629H509.463V160.516H514.077C514.077 160.125 513.997 159.778 513.838 159.477C513.679 159.172 513.455 158.931 513.167 158.756C512.882 158.58 512.547 158.492 512.163 158.492C511.745 158.492 511.381 158.595 511.069 158.8C510.761 159.003 510.522 159.268 510.353 159.596C510.187 159.921 510.105 160.274 510.105 160.655V161.525C510.105 162.035 510.194 162.469 510.373 162.827C510.555 163.185 510.809 163.459 511.134 163.648C511.459 163.833 511.838 163.926 512.272 163.926C512.554 163.926 512.811 163.886 513.043 163.807C513.275 163.724 513.475 163.601 513.644 163.439C513.813 163.277 513.943 163.076 514.032 162.837L515.439 163.091C515.326 163.505 515.124 163.868 514.833 164.18C514.544 164.488 514.181 164.728 513.744 164.901C513.31 165.07 512.814 165.154 512.257 165.154ZM518.669 154.818V165H517.183V154.818H518.669Z" fill="white" fill-opacity="0.7"/>
<path d="M553.449 165V154.818H554.985V163.678H559.599V165H553.449ZM563.454 165.169C562.97 165.169 562.533 165.08 562.142 164.901C561.75 164.718 561.441 164.455 561.212 164.11C560.986 163.765 560.874 163.343 560.874 162.842C560.874 162.411 560.957 162.057 561.122 161.778C561.288 161.5 561.512 161.28 561.794 161.117C562.075 160.955 562.39 160.832 562.738 160.749C563.086 160.666 563.441 160.603 563.802 160.56C564.259 160.507 564.631 160.464 564.916 160.431C565.201 160.395 565.408 160.337 565.537 160.257C565.666 160.178 565.731 160.048 565.731 159.869V159.835C565.731 159.4 565.608 159.064 565.363 158.825C565.121 158.587 564.76 158.467 564.279 158.467C563.779 158.467 563.384 158.578 563.096 158.8C562.811 159.019 562.614 159.263 562.504 159.531L561.107 159.213C561.273 158.749 561.515 158.375 561.833 158.089C562.155 157.801 562.524 157.592 562.942 157.463C563.36 157.33 563.799 157.264 564.259 157.264C564.564 157.264 564.887 157.301 565.229 157.374C565.574 157.443 565.895 157.572 566.193 157.761C566.495 157.95 566.742 158.22 566.934 158.572C567.126 158.92 567.222 159.372 567.222 159.929V165H565.771V163.956H565.711C565.615 164.148 565.471 164.337 565.279 164.523C565.086 164.708 564.839 164.862 564.538 164.985C564.236 165.108 563.875 165.169 563.454 165.169ZM563.777 163.976C564.188 163.976 564.539 163.895 564.831 163.732C565.126 163.57 565.35 163.358 565.502 163.096C565.658 162.831 565.736 162.547 565.736 162.246V161.261C565.683 161.314 565.58 161.364 565.428 161.411C565.279 161.454 565.108 161.492 564.916 161.525C564.723 161.555 564.536 161.583 564.354 161.609C564.172 161.633 564.019 161.652 563.896 161.669C563.608 161.705 563.345 161.767 563.106 161.853C562.871 161.939 562.682 162.063 562.539 162.226C562.4 162.385 562.33 162.597 562.33 162.862C562.33 163.23 562.466 163.509 562.738 163.697C563.01 163.883 563.356 163.976 563.777 163.976ZM569.322 165V154.818H570.808V158.602H570.898C570.984 158.442 571.108 158.259 571.271 158.05C571.433 157.841 571.658 157.659 571.947 157.503C572.235 157.344 572.616 157.264 573.09 157.264C573.707 157.264 574.257 157.42 574.741 157.732C575.225 158.043 575.604 158.492 575.879 159.079C576.158 159.665 576.297 160.371 576.297 161.197C576.297 162.022 576.159 162.73 575.884 163.32C575.609 163.906 575.231 164.359 574.751 164.677C574.27 164.992 573.722 165.149 573.105 165.149C572.641 165.149 572.262 165.071 571.967 164.915C571.675 164.76 571.446 164.577 571.281 164.369C571.115 164.16 570.987 163.974 570.898 163.812H570.773V165H569.322ZM570.778 161.182C570.778 161.719 570.856 162.189 571.012 162.594C571.168 162.998 571.393 163.315 571.688 163.543C571.983 163.769 572.344 163.881 572.772 163.881C573.216 163.881 573.587 163.764 573.886 163.528C574.184 163.29 574.409 162.967 574.562 162.559C574.718 162.151 574.795 161.692 574.795 161.182C574.795 160.678 574.719 160.226 574.567 159.825C574.418 159.424 574.192 159.107 573.891 158.875C573.592 158.643 573.219 158.527 572.772 158.527C572.341 158.527 571.977 158.638 571.678 158.86C571.383 159.082 571.16 159.392 571.007 159.79C570.855 160.187 570.778 160.652 570.778 161.182ZM581.257 165.154C580.505 165.154 579.857 164.993 579.313 164.672C578.773 164.347 578.356 163.891 578.061 163.305C577.769 162.715 577.623 162.024 577.623 161.232C577.623 160.449 577.769 159.76 578.061 159.163C578.356 158.567 578.767 158.101 579.294 157.766C579.824 157.432 580.444 157.264 581.153 157.264C581.584 157.264 582.001 157.335 582.406 157.478C582.81 157.621 583.173 157.844 583.494 158.149C583.816 158.454 584.07 158.85 584.255 159.337C584.441 159.821 584.534 160.41 584.534 161.102V161.629H578.463V160.516H583.077C583.077 160.125 582.997 159.778 582.838 159.477C582.679 159.172 582.455 158.931 582.167 158.756C581.882 158.58 581.547 158.492 581.163 158.492C580.745 158.492 580.381 158.595 580.069 158.8C579.761 159.003 579.522 159.268 579.353 159.596C579.187 159.921 579.105 160.274 579.105 160.655V161.525C579.105 162.035 579.194 162.469 579.373 162.827C579.555 163.185 579.809 163.459 580.134 163.648C580.459 163.833 580.838 163.926 581.272 163.926C581.554 163.926 581.811 163.886 582.043 163.807C582.275 163.724 582.475 163.601 582.644 163.439C582.813 163.277 582.943 163.076 583.032 162.837L584.439 163.091C584.326 163.505 584.124 163.868 583.833 164.18C583.544 164.488 583.181 164.728 582.744 164.901C582.31 165.07 581.814 165.154 581.257 165.154ZM587.669 154.818V165H586.183V154.818H587.669Z" fill="white" fill-opacity="0.7"/>
<path d="M622.449 165V154.818H623.985V163.678H628.599V165H622.449ZM632.454 165.169C631.97 165.169 631.533 165.08 631.142 164.901C630.75 164.718 630.441 164.455 630.212 164.11C629.986 163.765 629.874 163.343 629.874 162.842C629.874 162.411 629.957 162.057 630.122 161.778C630.288 161.5 630.512 161.28 630.794 161.117C631.075 160.955 631.39 160.832 631.738 160.749C632.086 160.666 632.441 160.603 632.802 160.56C633.259 160.507 633.631 160.464 633.916 160.431C634.201 160.395 634.408 160.337 634.537 160.257C634.666 160.178 634.731 160.048 634.731 159.869V159.835C634.731 159.4 634.608 159.064 634.363 158.825C634.121 158.587 633.76 158.467 633.279 158.467C632.779 158.467 632.384 158.578 632.096 158.8C631.811 159.019 631.614 159.263 631.504 159.531L630.107 159.213C630.273 158.749 630.515 158.375 630.833 158.089C631.155 157.801 631.524 157.592 631.942 157.463C632.36 157.33 632.799 157.264 633.259 157.264C633.564 157.264 633.887 157.301 634.229 157.374C634.574 157.443 634.895 157.572 635.193 157.761C635.495 157.95 635.742 158.22 635.934 158.572C636.126 158.92 636.222 159.372 636.222 159.929V165H634.771V163.956H634.711C634.615 164.148 634.471 164.337 634.279 164.523C634.086 164.708 633.839 164.862 633.538 164.985C633.236 165.108 632.875 165.169 632.454 165.169ZM632.777 163.976C633.188 163.976 633.539 163.895 633.831 163.732C634.126 163.57 634.35 163.358 634.502 163.096C634.658 162.831 634.736 162.547 634.736 162.246V161.261C634.683 161.314 634.58 161.364 634.428 161.411C634.279 161.454 634.108 161.492 633.916 161.525C633.723 161.555 633.536 161.583 633.354 161.609C633.172 161.633 633.019 161.652 632.896 161.669C632.608 161.705 632.345 161.767 632.106 161.853C631.871 161.939 631.682 162.063 631.539 162.226C631.4 162.385 631.33 162.597 631.33 162.862C631.33 163.23 631.466 163.509 631.738 163.697C632.01 163.883 632.356 163.976 632.777 163.976ZM638.322 165V154.818H639.808V158.602H639.898C639.984 158.442 640.108 158.259 640.271 158.05C640.433 157.841 640.658 157.659 640.947 157.503C641.235 157.344 641.616 157.264 642.09 157.264C642.707 157.264 643.257 157.42 643.741 157.732C644.225 158.043 644.604 158.492 644.879 159.079C645.158 159.665 645.297 160.371 645.297 161.197C645.297 162.022 645.159 162.73 644.884 163.32C644.609 163.906 644.231 164.359 643.751 164.677C643.27 164.992 642.722 165.149 642.105 165.149C641.641 165.149 641.262 165.071 640.967 164.915C640.675 164.76 640.446 164.577 640.281 164.369C640.115 164.16 639.987 163.974 639.898 163.812H639.773V165H638.322ZM639.778 161.182C639.778 161.719 639.856 162.189 640.012 162.594C640.168 162.998 640.393 163.315 640.688 163.543C640.983 163.769 641.344 163.881 641.772 163.881C642.216 163.881 642.587 163.764 642.886 163.528C643.184 163.29 643.409 162.967 643.562 162.559C643.718 162.151 643.795 161.692 643.795 161.182C643.795 160.678 643.719 160.226 643.567 159.825C643.418 159.424 643.192 159.107 642.891 158.875C642.592 158.643 642.219 158.527 641.772 158.527C641.341 158.527 640.977 158.638 640.678 158.86C640.383 159.082 640.16 159.392 640.007 159.79C639.855 160.187 639.778 160.652 639.778 161.182ZM650.257 165.154C649.505 165.154 648.857 164.993 648.313 164.672C647.773 164.347 647.356 163.891 647.061 163.305C646.769 162.715 646.623 162.024 646.623 161.232C646.623 160.449 646.769 159.76 647.061 159.163C647.356 158.567 647.767 158.101 648.294 157.766C648.824 157.432 649.444 157.264 650.153 157.264C650.584 157.264 651.001 157.335 651.406 157.478C651.81 157.621 652.173 157.844 652.494 158.149C652.816 158.454 653.07 158.85 653.255 159.337C653.441 159.821 653.534 160.41 653.534 161.102V161.629H647.463V160.516H652.077C652.077 160.125 651.997 159.778 651.838 159.477C651.679 159.172 651.455 158.931 651.167 158.756C650.882 158.58 650.547 158.492 650.163 158.492C649.745 158.492 649.381 158.595 649.069 158.8C648.761 159.003 648.522 159.268 648.353 159.596C648.187 159.921 648.105 160.274 648.105 160.655V161.525C648.105 162.035 648.194 162.469 648.373 162.827C648.555 163.185 648.809 163.459 649.134 163.648C649.459 163.833 649.838 163.926 650.272 163.926C650.554 163.926 650.811 163.886 651.043 163.807C651.275 163.724 651.475 163.601 651.644 163.439C651.813 163.277 651.943 163.076 652.032 162.837L653.439 163.091C653.326 163.505 653.124 163.868 652.833 164.18C652.544 164.488 652.181 164.728 651.744 164.901C651.31 165.07 650.814 165.154 650.257 165.154ZM656.669 154.818V165H655.183V154.818H656.669Z" fill="white" fill-opacity="0.7"/>
<path d="M691.449 165V154.818H692.985V163.678H697.599V165H691.449ZM701.454 165.169C700.97 165.169 700.533 165.08 700.142 164.901C699.75 164.718 699.441 164.455 699.212 164.11C698.986 163.765 698.874 163.343 698.874 162.842C698.874 162.411 698.957 162.057 699.122 161.778C699.288 161.5 699.512 161.28 699.794 161.117C700.075 160.955 700.39 160.832 700.738 160.749C701.086 160.666 701.441 160.603 701.802 160.56C702.259 160.507 702.631 160.464 702.916 160.431C703.201 160.395 703.408 160.337 703.537 160.257C703.666 160.178 703.731 160.048 703.731 159.869V159.835C703.731 159.4 703.608 159.064 703.363 158.825C703.121 158.587 702.76 158.467 702.279 158.467C701.779 158.467 701.384 158.578 701.096 158.8C700.811 159.019 700.614 159.263 700.504 159.531L699.107 159.213C699.273 158.749 699.515 158.375 699.833 158.089C700.155 157.801 700.524 157.592 700.942 157.463C701.36 157.33 701.799 157.264 702.259 157.264C702.564 157.264 702.887 157.301 703.229 157.374C703.574 157.443 703.895 157.572 704.193 157.761C704.495 157.95 704.742 158.22 704.934 158.572C705.126 158.92 705.222 159.372 705.222 159.929V165H703.771V163.956H703.711C703.615 164.148 703.471 164.337 703.279 164.523C703.086 164.708 702.839 164.862 702.538 164.985C702.236 165.108 701.875 165.169 701.454 165.169ZM701.777 163.976C702.188 163.976 702.539 163.895 702.831 163.732C703.126 163.57 703.35 163.358 703.502 163.096C703.658 162.831 703.736 162.547 703.736 162.246V161.261C703.683 161.314 703.58 161.364 703.428 161.411C703.279 161.454 703.108 161.492 702.916 161.525C702.723 161.555 702.536 161.583 702.354 161.609C702.172 161.633 702.019 161.652 701.896 161.669C701.608 161.705 701.345 161.767 701.106 161.853C700.871 161.939 700.682 162.063 700.539 162.226C700.4 162.385 700.33 162.597 700.33 162.862C700.33 163.23 700.466 163.509 700.738 163.697C701.01 163.883 701.356 163.976 701.777 163.976ZM707.322 165V154.818H708.808V158.602H708.898C708.984 158.442 709.108 158.259 709.271 158.05C709.433 157.841 709.658 157.659 709.947 157.503C710.235 157.344 710.616 157.264 711.09 157.264C711.707 157.264 712.257 157.42 712.741 157.732C713.225 158.043 713.604 158.492 713.879 159.079C714.158 159.665 714.297 160.371 714.297 161.197C714.297 162.022 714.159 162.73 713.884 163.32C713.609 163.906 713.231 164.359 712.751 164.677C712.27 164.992 711.722 165.149 711.105 165.149C710.641 165.149 710.262 165.071 709.967 164.915C709.675 164.76 709.446 164.577 709.281 164.369C709.115 164.16 708.987 163.974 708.898 163.812H708.773V165H707.322ZM708.778 161.182C708.778 161.719 708.856 162.189 709.012 162.594C709.168 162.998 709.393 163.315 709.688 163.543C709.983 163.769 710.344 163.881 710.772 163.881C711.216 163.881 711.587 163.764 711.886 163.528C712.184 163.29 712.409 162.967 712.562 162.559C712.718 162.151 712.795 161.692 712.795 161.182C712.795 160.678 712.719 160.226 712.567 159.825C712.418 159.424 712.192 159.107 711.891 158.875C711.592 158.643 711.219 158.527 710.772 158.527C710.341 158.527 709.977 158.638 709.678 158.86C709.383 159.082 709.16 159.392 709.007 159.79C708.855 160.187 708.778 160.652 708.778 161.182ZM719.257 165.154C718.505 165.154 717.857 164.993 717.313 164.672C716.773 164.347 716.356 163.891 716.061 163.305C715.769 162.715 715.623 162.024 715.623 161.232C715.623 160.449 715.769 159.76 716.061 159.163C716.356 158.567 716.767 158.101 717.294 157.766C717.824 157.432 718.444 157.264 719.153 157.264C719.584 157.264 720.001 157.335 720.406 157.478C720.81 157.621 721.173 157.844 721.494 158.149C721.816 158.454 722.07 158.85 722.255 159.337C722.441 159.821 722.534 160.41 722.534 161.102V161.629H716.463V160.516H721.077C721.077 160.125 720.997 159.778 720.838 159.477C720.679 159.172 720.455 158.931 720.167 158.756C719.882 158.58 719.547 158.492 719.163 158.492C718.745 158.492 718.381 158.595 718.069 158.8C717.761 159.003 717.522 159.268 717.353 159.596C717.187 159.921 717.105 160.274 717.105 160.655V161.525C717.105 162.035 717.194 162.469 717.373 162.827C717.555 163.185 717.809 163.459 718.134 163.648C718.459 163.833 718.838 163.926 719.272 163.926C719.554 163.926 719.811 163.886 720.043 163.807C720.275 163.724 720.475 163.601 720.644 163.439C720.813 163.277 720.943 163.076 721.032 162.837L722.439 163.091C722.326 163.505 722.124 163.868 721.833 164.18C721.544 164.488 721.181 164.728 720.744 164.901C720.31 165.07 719.814 165.154 719.257 165.154ZM725.669 154.818V165H724.183V154.818H725.669Z" fill="white" fill-opacity="0.7"/>
<path d="M760.449 165V154.818H761.985V163.678H766.599V165H760.449ZM770.454 165.169C769.97 165.169 769.533 165.08 769.142 164.901C768.75 164.718 768.441 164.455 768.212 164.11C767.986 163.765 767.874 163.343 767.874 162.842C767.874 162.411 767.957 162.057 768.122 161.778C768.288 161.5 768.512 161.28 768.794 161.117C769.075 160.955 769.39 160.832 769.738 160.749C770.086 160.666 770.441 160.603 770.802 160.56C771.259 160.507 771.631 160.464 771.916 160.431C772.201 160.395 772.408 160.337 772.537 160.257C772.666 160.178 772.731 160.048 772.731 159.869V159.835C772.731 159.4 772.608 159.064 772.363 158.825C772.121 158.587 771.76 158.467 771.279 158.467C770.779 158.467 770.384 158.578 770.096 158.8C769.811 159.019 769.614 159.263 769.504 159.531L768.107 159.213C768.273 158.749 768.515 158.375 768.833 158.089C769.155 157.801 769.524 157.592 769.942 157.463C770.36 157.33 770.799 157.264 771.259 157.264C771.564 157.264 771.887 157.301 772.229 157.374C772.574 157.443 772.895 157.572 773.193 157.761C773.495 157.95 773.742 158.22 773.934 158.572C774.126 158.92 774.222 159.372 774.222 159.929V165H772.771V163.956H772.711C772.615 164.148 772.471 164.337 772.279 164.523C772.086 164.708 771.839 164.862 771.538 164.985C771.236 165.108 770.875 165.169 770.454 165.169ZM770.777 163.976C771.188 163.976 771.539 163.895 771.831 163.732C772.126 163.57 772.35 163.358 772.502 163.096C772.658 162.831 772.736 162.547 772.736 162.246V161.261C772.683 161.314 772.58 161.364 772.428 161.411C772.279 161.454 772.108 161.492 771.916 161.525C771.723 161.555 771.536 161.583 771.354 161.609C771.172 161.633 771.019 161.652 770.896 161.669C770.608 161.705 770.345 161.767 770.106 161.853C769.871 161.939 769.682 162.063 769.539 162.226C769.4 162.385 769.33 162.597 769.33 162.862C769.33 163.23 769.466 163.509 769.738 163.697C770.01 163.883 770.356 163.976 770.777 163.976ZM776.322 165V154.818H777.808V158.602H777.898C777.984 158.442 778.108 158.259 778.271 158.05C778.433 157.841 778.658 157.659 778.947 157.503C779.235 157.344 779.616 157.264 780.09 157.264C780.707 157.264 781.257 157.42 781.741 157.732C782.225 158.043 782.604 158.492 782.879 159.079C783.158 159.665 783.297 160.371 783.297 161.197C783.297 162.022 783.159 162.73 782.884 163.32C782.609 163.906 782.231 164.359 781.751 164.677C781.27 164.992 780.722 165.149 780.105 165.149C779.641 165.149 779.262 165.071 778.967 164.915C778.675 164.76 778.446 164.577 778.281 164.369C778.115 164.16 777.987 163.974 777.898 163.812H777.773V165H776.322ZM777.778 161.182C777.778 161.719 777.856 162.189 778.012 162.594C778.168 162.998 778.393 163.315 778.688 163.543C778.983 163.769 779.344 163.881 779.772 163.881C780.216 163.881 780.587 163.764 780.886 163.528C781.184 163.29 781.409 162.967 781.562 162.559C781.718 162.151 781.795 161.692 781.795 161.182C781.795 160.678 781.719 160.226 781.567 159.825C781.418 159.424 781.192 159.107 780.891 158.875C780.592 158.643 780.219 158.527 779.772 158.527C779.341 158.527 778.977 158.638 778.678 158.86C778.383 159.082 778.16 159.392 778.007 159.79C777.855 160.187 777.778 160.652 777.778 161.182ZM788.257 165.154C787.505 165.154 786.857 164.993 786.313 164.672C785.773 164.347 785.356 163.891 785.061 163.305C784.769 162.715 784.623 162.024 784.623 161.232C784.623 160.449 784.769 159.76 785.061 159.163C785.356 158.567 785.767 158.101 786.294 157.766C786.824 157.432 787.444 157.264 788.153 157.264C788.584 157.264 789.001 157.335 789.406 157.478C789.81 157.621 790.173 157.844 790.494 158.149C790.816 158.454 791.07 158.85 791.255 159.337C791.441 159.821 791.534 160.41 791.534 161.102V161.629H785.463V160.516H790.077C790.077 160.125 789.997 159.778 789.838 159.477C789.679 159.172 789.455 158.931 789.167 158.756C788.882 158.58 788.547 158.492 788.163 158.492C787.745 158.492 787.381 158.595 787.069 158.8C786.761 159.003 786.522 159.268 786.353 159.596C786.187 159.921 786.105 160.274 786.105 160.655V161.525C786.105 162.035 786.194 162.469 786.373 162.827C786.555 163.185 786.809 163.459 787.134 163.648C787.459 163.833 787.838 163.926 788.272 163.926C788.554 163.926 788.811 163.886 789.043 163.807C789.275 163.724 789.475 163.601 789.644 163.439C789.813 163.277 789.943 163.076 790.032 162.837L791.439 163.091C791.326 163.505 791.124 163.868 790.833 164.18C790.544 164.488 790.181 164.728 789.744 164.901C789.31 165.07 788.814 165.154 788.257 165.154ZM794.669 154.818V165H793.183V154.818H794.669Z" fill="white" fill-opacity="0.7"/>
<path d="M829.449 165V154.818H830.985V163.678H835.599V165H829.449ZM839.454 165.169C838.97 165.169 838.533 165.08 838.142 164.901C837.75 164.718 837.441 164.455 837.212 164.11C836.986 163.765 836.874 163.343 836.874 162.842C836.874 162.411 836.957 162.057 837.122 161.778C837.288 161.5 837.512 161.28 837.794 161.117C838.075 160.955 838.39 160.832 838.738 160.749C839.086 160.666 839.441 160.603 839.802 160.56C840.259 160.507 840.631 160.464 840.916 160.431C841.201 160.395 841.408 160.337 841.537 160.257C841.666 160.178 841.731 160.048 841.731 159.869V159.835C841.731 159.4 841.608 159.064 841.363 158.825C841.121 158.587 840.76 158.467 840.279 158.467C839.779 158.467 839.384 158.578 839.096 158.8C838.811 159.019 838.614 159.263 838.504 159.531L837.107 159.213C837.273 158.749 837.515 158.375 837.833 158.089C838.155 157.801 838.524 157.592 838.942 157.463C839.36 157.33 839.799 157.264 840.259 157.264C840.564 157.264 840.887 157.301 841.229 157.374C841.574 157.443 841.895 157.572 842.193 157.761C842.495 157.95 842.742 158.22 842.934 158.572C843.126 158.92 843.222 159.372 843.222 159.929V165H841.771V163.956H841.711C841.615 164.148 841.471 164.337 841.279 164.523C841.086 164.708 840.839 164.862 840.538 164.985C840.236 165.108 839.875 165.169 839.454 165.169ZM839.777 163.976C840.188 163.976 840.539 163.895 840.831 163.732C841.126 163.57 841.35 163.358 841.502 163.096C841.658 162.831 841.736 162.547 841.736 162.246V161.261C841.683 161.314 841.58 161.364 841.428 161.411C841.279 161.454 841.108 161.492 840.916 161.525C840.723 161.555 840.536 161.583 840.354 161.609C840.172 161.633 840.019 161.652 839.896 161.669C839.608 161.705 839.345 161.767 839.106 161.853C838.871 161.939 838.682 162.063 838.539 162.226C838.4 162.385 838.33 162.597 838.33 162.862C838.33 163.23 838.466 163.509 838.738 163.697C839.01 163.883 839.356 163.976 839.777 163.976ZM845.322 165V154.818H846.808V158.602H846.898C846.984 158.442 847.108 158.259 847.271 158.05C847.433 157.841 847.658 157.659 847.947 157.503C848.235 157.344 848.616 157.264 849.09 157.264C849.707 157.264 850.257 157.42 850.741 157.732C851.225 158.043 851.604 158.492 851.879 159.079C852.158 159.665 852.297 160.371 852.297 161.197C852.297 162.022 852.159 162.73 851.884 163.32C851.609 163.906 851.231 164.359 850.751 164.677C850.27 164.992 849.722 165.149 849.105 165.149C848.641 165.149 848.262 165.071 847.967 164.915C847.675 164.76 847.446 164.577 847.281 164.369C847.115 164.16 846.987 163.974 846.898 163.812H846.773V165H845.322ZM846.778 161.182C846.778 161.719 846.856 162.189 847.012 162.594C847.168 162.998 847.393 163.315 847.688 163.543C847.983 163.769 848.344 163.881 848.772 163.881C849.216 163.881 849.587 163.764 849.886 163.528C850.184 163.29 850.409 162.967 850.562 162.559C850.718 162.151 850.795 161.692 850.795 161.182C850.795 160.678 850.719 160.226 850.567 159.825C850.418 159.424 850.192 159.107 849.891 158.875C849.592 158.643 849.219 158.527 848.772 158.527C848.341 158.527 847.977 158.638 847.678 158.86C847.383 159.082 847.16 159.392 847.007 159.79C846.855 160.187 846.778 160.652 846.778 161.182ZM857.257 165.154C856.505 165.154 855.857 164.993 855.313 164.672C854.773 164.347 854.356 163.891 854.061 163.305C853.769 162.715 853.623 162.024 853.623 161.232C853.623 160.449 853.769 159.76 854.061 159.163C854.356 158.567 854.767 158.101 855.294 157.766C855.824 157.432 856.444 157.264 857.153 157.264C857.584 157.264 858.001 157.335 858.406 157.478C858.81 157.621 859.173 157.844 859.494 158.149C859.816 158.454 860.07 158.85 860.255 159.337C860.441 159.821 860.534 160.41 860.534 161.102V161.629H854.463V160.516H859.077C859.077 160.125 858.997 159.778 858.838 159.477C858.679 159.172 858.455 158.931 858.167 158.756C857.882 158.58 857.547 158.492 857.163 158.492C856.745 158.492 856.381 158.595 856.069 158.8C855.761 159.003 855.522 159.268 855.353 159.596C855.187 159.921 855.105 160.274 855.105 160.655V161.525C855.105 162.035 855.194 162.469 855.373 162.827C855.555 163.185 855.809 163.459 856.134 163.648C856.459 163.833 856.838 163.926 857.272 163.926C857.554 163.926 857.811 163.886 858.043 163.807C858.275 163.724 858.475 163.601 858.644 163.439C858.813 163.277 858.943 163.076 859.032 162.837L860.439 163.091C860.326 163.505 860.124 163.868 859.833 164.18C859.544 164.488 859.181 164.728 858.744 164.901C858.31 165.07 857.814 165.154 857.257 165.154ZM863.669 154.818V165H862.183V154.818H863.669Z" fill="white" fill-opacity="0.7"/>
<path d="M942.354 159.646L936.354 153.646C936.307 153.599 936.252 153.561 936.191 153.535C936.13 153.509 936.065 153.495 935.998 153.495C935.932 153.494 935.866 153.507 935.805 153.532C935.744 153.557 935.688 153.594 935.641 153.641C935.594 153.688 935.557 153.744 935.532 153.805C935.507 153.866 935.494 153.932 935.495 153.998C935.495 154.065 935.509 154.13 935.535 154.191C935.561 154.252 935.599 154.307 935.647 154.354L941.293 160L935.647 165.646C935.599 165.693 935.561 165.748 935.535 165.809C935.509 165.87 935.495 165.935 935.495 166.002C935.494 166.068 935.507 166.134 935.532 166.195C935.557 166.256 935.594 166.312 935.641 166.359C935.688 166.406 935.744 166.443 935.805 166.468C935.866 166.493 935.932 166.506 935.998 166.505C936.065 166.505 936.13 166.491 936.191 166.465C936.252 166.439 936.307 166.401 936.354 166.354L942.354 160.354C942.447 160.26 942.5 160.133 942.5 160C942.5 159.867 942.447 159.74 942.354 159.646Z" fill="white" fill-opacity="0.95"/>
</g>
<rect x="195" y="236" width="32" height="32" rx="16" fill="#DA0087"/>
<path d="M207.325 257.5V255.949L210.95 252.593C211.258 252.295 211.516 252.026 211.725 251.788C211.937 251.549 212.098 251.315 212.207 251.087C212.317 250.855 212.371 250.604 212.371 250.336C212.371 250.038 212.304 249.781 212.168 249.565C212.032 249.347 211.846 249.179 211.611 249.063C211.375 248.944 211.109 248.884 210.81 248.884C210.499 248.884 210.227 248.947 209.995 249.073C209.763 249.199 209.584 249.38 209.458 249.615C209.332 249.85 209.269 250.13 209.269 250.455H207.226C207.226 249.789 207.377 249.211 207.678 248.72C207.98 248.23 208.402 247.85 208.946 247.582C209.49 247.313 210.116 247.179 210.825 247.179C211.554 247.179 212.189 247.308 212.729 247.567C213.273 247.822 213.696 248.177 213.997 248.631C214.299 249.085 214.45 249.605 214.45 250.192C214.45 250.576 214.373 250.956 214.221 251.33C214.072 251.705 213.805 252.121 213.42 252.578C213.036 253.032 212.494 253.577 211.795 254.214L210.308 255.67V255.74H214.584V257.5H207.325Z" fill="white"/>
<g clip-path="url(#clip1_2110_62821)">
<mask id="path-29-inside-1_2110_62821" fill="white">
<path d="M195 284C195 281.791 196.791 280 199 280H252C254.209 280 256 281.791 256 284V312H195V284Z"/>
</mask>
<path d="M195 280H256H195ZM256 314H195V310H256V314ZM195 312V280V312ZM256 280V312V280Z" fill="white" fill-opacity="0.9" mask="url(#path-29-inside-1_2110_62821)"/>
<path d="M208.449 301V290.818H209.985V299.678H214.599V301H208.449ZM218.454 301.169C217.97 301.169 217.533 301.08 217.142 300.901C216.75 300.718 216.441 300.455 216.212 300.11C215.986 299.765 215.874 299.343 215.874 298.842C215.874 298.411 215.957 298.057 216.122 297.778C216.288 297.5 216.512 297.28 216.794 297.117C217.075 296.955 217.39 296.832 217.738 296.749C218.086 296.666 218.441 296.603 218.802 296.56C219.259 296.507 219.631 296.464 219.916 296.431C220.201 296.395 220.408 296.337 220.537 296.257C220.666 296.178 220.731 296.048 220.731 295.869V295.835C220.731 295.4 220.608 295.064 220.363 294.825C220.121 294.587 219.76 294.467 219.279 294.467C218.779 294.467 218.384 294.578 218.096 294.8C217.811 295.019 217.614 295.263 217.504 295.531L216.107 295.213C216.273 294.749 216.515 294.375 216.833 294.089C217.155 293.801 217.524 293.592 217.942 293.463C218.36 293.33 218.799 293.264 219.259 293.264C219.564 293.264 219.887 293.301 220.229 293.374C220.574 293.443 220.895 293.572 221.193 293.761C221.495 293.95 221.742 294.22 221.934 294.572C222.126 294.92 222.222 295.372 222.222 295.929V301H220.771V299.956H220.711C220.615 300.148 220.471 300.337 220.279 300.523C220.086 300.708 219.839 300.862 219.538 300.985C219.236 301.108 218.875 301.169 218.454 301.169ZM218.777 299.976C219.188 299.976 219.539 299.895 219.831 299.732C220.126 299.57 220.35 299.358 220.502 299.096C220.658 298.831 220.736 298.547 220.736 298.246V297.261C220.683 297.314 220.58 297.364 220.428 297.411C220.279 297.454 220.108 297.492 219.916 297.525C219.723 297.555 219.536 297.583 219.354 297.609C219.172 297.633 219.019 297.652 218.896 297.669C218.608 297.705 218.345 297.767 218.106 297.853C217.871 297.939 217.682 298.063 217.539 298.226C217.4 298.385 217.33 298.597 217.33 298.862C217.33 299.23 217.466 299.509 217.738 299.697C218.01 299.883 218.356 299.976 218.777 299.976ZM224.322 301V290.818H225.808V294.602H225.898C225.984 294.442 226.108 294.259 226.271 294.05C226.433 293.841 226.658 293.659 226.947 293.503C227.235 293.344 227.616 293.264 228.09 293.264C228.707 293.264 229.257 293.42 229.741 293.732C230.225 294.043 230.604 294.492 230.879 295.079C231.158 295.665 231.297 296.371 231.297 297.197C231.297 298.022 231.159 298.73 230.884 299.32C230.609 299.906 230.231 300.359 229.751 300.677C229.27 300.992 228.722 301.149 228.105 301.149C227.641 301.149 227.262 301.071 226.967 300.915C226.675 300.76 226.446 300.577 226.281 300.369C226.115 300.16 225.987 299.974 225.898 299.812H225.773V301H224.322ZM225.778 297.182C225.778 297.719 225.856 298.189 226.012 298.594C226.168 298.998 226.393 299.315 226.688 299.543C226.983 299.769 227.344 299.881 227.772 299.881C228.216 299.881 228.587 299.764 228.886 299.528C229.184 299.29 229.409 298.967 229.562 298.559C229.718 298.151 229.795 297.692 229.795 297.182C229.795 296.678 229.719 296.226 229.567 295.825C229.418 295.424 229.192 295.107 228.891 294.875C228.592 294.643 228.219 294.527 227.772 294.527C227.341 294.527 226.977 294.638 226.678 294.86C226.383 295.082 226.16 295.392 226.007 295.79C225.855 296.187 225.778 296.652 225.778 297.182ZM236.257 301.154C235.505 301.154 234.857 300.993 234.313 300.672C233.773 300.347 233.356 299.891 233.061 299.305C232.769 298.715 232.623 298.024 232.623 297.232C232.623 296.449 232.769 295.76 233.061 295.163C233.356 294.567 233.767 294.101 234.294 293.766C234.824 293.432 235.444 293.264 236.153 293.264C236.584 293.264 237.001 293.335 237.406 293.478C237.81 293.621 238.173 293.844 238.494 294.149C238.816 294.454 239.07 294.85 239.255 295.337C239.441 295.821 239.534 296.41 239.534 297.102V297.629H233.463V296.516H238.077C238.077 296.125 237.997 295.778 237.838 295.477C237.679 295.172 237.455 294.931 237.167 294.756C236.882 294.58 236.547 294.492 236.163 294.492C235.745 294.492 235.381 294.595 235.069 294.8C234.761 295.003 234.522 295.268 234.353 295.596C234.187 295.921 234.105 296.274 234.105 296.655V297.525C234.105 298.035 234.194 298.469 234.373 298.827C234.555 299.185 234.809 299.459 235.134 299.648C235.459 299.833 235.838 299.926 236.272 299.926C236.554 299.926 236.811 299.886 237.043 299.807C237.275 299.724 237.475 299.601 237.644 299.439C237.813 299.277 237.943 299.076 238.032 298.837L239.439 299.091C239.326 299.505 239.124 299.868 238.833 300.18C238.544 300.488 238.181 300.728 237.744 300.901C237.31 301.07 236.814 301.154 236.257 301.154ZM242.669 290.818V301H241.183V290.818H242.669Z" fill="white" fill-opacity="0.95"/>
<path d="M277.449 301V290.818H278.985V299.678H283.599V301H277.449ZM287.454 301.169C286.97 301.169 286.533 301.08 286.142 300.901C285.75 300.718 285.441 300.455 285.212 300.11C284.986 299.765 284.874 299.343 284.874 298.842C284.874 298.411 284.957 298.057 285.122 297.778C285.288 297.5 285.512 297.28 285.794 297.117C286.075 296.955 286.39 296.832 286.738 296.749C287.086 296.666 287.441 296.603 287.802 296.56C288.259 296.507 288.631 296.464 288.916 296.431C289.201 296.395 289.408 296.337 289.537 296.257C289.666 296.178 289.731 296.048 289.731 295.869V295.835C289.731 295.4 289.608 295.064 289.363 294.825C289.121 294.587 288.76 294.467 288.279 294.467C287.779 294.467 287.384 294.578 287.096 294.8C286.811 295.019 286.614 295.263 286.504 295.531L285.107 295.213C285.273 294.749 285.515 294.375 285.833 294.089C286.155 293.801 286.524 293.592 286.942 293.463C287.36 293.33 287.799 293.264 288.259 293.264C288.564 293.264 288.887 293.301 289.229 293.374C289.574 293.443 289.895 293.572 290.193 293.761C290.495 293.95 290.742 294.22 290.934 294.572C291.126 294.92 291.222 295.372 291.222 295.929V301H289.771V299.956H289.711C289.615 300.148 289.471 300.337 289.279 300.523C289.086 300.708 288.839 300.862 288.538 300.985C288.236 301.108 287.875 301.169 287.454 301.169ZM287.777 299.976C288.188 299.976 288.539 299.895 288.831 299.732C289.126 299.57 289.35 299.358 289.502 299.096C289.658 298.831 289.736 298.547 289.736 298.246V297.261C289.683 297.314 289.58 297.364 289.428 297.411C289.279 297.454 289.108 297.492 288.916 297.525C288.723 297.555 288.536 297.583 288.354 297.609C288.172 297.633 288.019 297.652 287.896 297.669C287.608 297.705 287.345 297.767 287.106 297.853C286.871 297.939 286.682 298.063 286.539 298.226C286.4 298.385 286.33 298.597 286.33 298.862C286.33 299.23 286.466 299.509 286.738 299.697C287.01 299.883 287.356 299.976 287.777 299.976ZM293.322 301V290.818H294.808V294.602H294.898C294.984 294.442 295.108 294.259 295.271 294.05C295.433 293.841 295.658 293.659 295.947 293.503C296.235 293.344 296.616 293.264 297.09 293.264C297.707 293.264 298.257 293.42 298.741 293.732C299.225 294.043 299.604 294.492 299.879 295.079C300.158 295.665 300.297 296.371 300.297 297.197C300.297 298.022 300.159 298.73 299.884 299.32C299.609 299.906 299.231 300.359 298.751 300.677C298.27 300.992 297.722 301.149 297.105 301.149C296.641 301.149 296.262 301.071 295.967 300.915C295.675 300.76 295.446 300.577 295.281 300.369C295.115 300.16 294.987 299.974 294.898 299.812H294.773V301H293.322ZM294.778 297.182C294.778 297.719 294.856 298.189 295.012 298.594C295.168 298.998 295.393 299.315 295.688 299.543C295.983 299.769 296.344 299.881 296.772 299.881C297.216 299.881 297.587 299.764 297.886 299.528C298.184 299.29 298.409 298.967 298.562 298.559C298.718 298.151 298.795 297.692 298.795 297.182C298.795 296.678 298.719 296.226 298.567 295.825C298.418 295.424 298.192 295.107 297.891 294.875C297.592 294.643 297.219 294.527 296.772 294.527C296.341 294.527 295.977 294.638 295.678 294.86C295.383 295.082 295.16 295.392 295.007 295.79C294.855 296.187 294.778 296.652 294.778 297.182ZM305.257 301.154C304.505 301.154 303.857 300.993 303.313 300.672C302.773 300.347 302.356 299.891 302.061 299.305C301.769 298.715 301.623 298.024 301.623 297.232C301.623 296.449 301.769 295.76 302.061 295.163C302.356 294.567 302.767 294.101 303.294 293.766C303.824 293.432 304.444 293.264 305.153 293.264C305.584 293.264 306.001 293.335 306.406 293.478C306.81 293.621 307.173 293.844 307.494 294.149C307.816 294.454 308.07 294.85 308.255 295.337C308.441 295.821 308.534 296.41 308.534 297.102V297.629H302.463V296.516H307.077C307.077 296.125 306.997 295.778 306.838 295.477C306.679 295.172 306.455 294.931 306.167 294.756C305.882 294.58 305.547 294.492 305.163 294.492C304.745 294.492 304.381 294.595 304.069 294.8C303.761 295.003 303.522 295.268 303.353 295.596C303.187 295.921 303.105 296.274 303.105 296.655V297.525C303.105 298.035 303.194 298.469 303.373 298.827C303.555 299.185 303.809 299.459 304.134 299.648C304.459 299.833 304.838 299.926 305.272 299.926C305.554 299.926 305.811 299.886 306.043 299.807C306.275 299.724 306.475 299.601 306.644 299.439C306.813 299.277 306.943 299.076 307.032 298.837L308.439 299.091C308.326 299.505 308.124 299.868 307.833 300.18C307.544 300.488 307.181 300.728 306.744 300.901C306.31 301.07 305.814 301.154 305.257 301.154ZM311.669 290.818V301H310.183V290.818H311.669Z" fill="white" fill-opacity="0.7"/>
<path d="M346.449 301V290.818H347.985V299.678H352.599V301H346.449ZM356.454 301.169C355.97 301.169 355.533 301.08 355.142 300.901C354.75 300.718 354.441 300.455 354.212 300.11C353.986 299.765 353.874 299.343 353.874 298.842C353.874 298.411 353.957 298.057 354.122 297.778C354.288 297.5 354.512 297.28 354.794 297.117C355.075 296.955 355.39 296.832 355.738 296.749C356.086 296.666 356.441 296.603 356.802 296.56C357.259 296.507 357.631 296.464 357.916 296.431C358.201 296.395 358.408 296.337 358.537 296.257C358.666 296.178 358.731 296.048 358.731 295.869V295.835C358.731 295.4 358.608 295.064 358.363 294.825C358.121 294.587 357.76 294.467 357.279 294.467C356.779 294.467 356.384 294.578 356.096 294.8C355.811 295.019 355.614 295.263 355.504 295.531L354.107 295.213C354.273 294.749 354.515 294.375 354.833 294.089C355.155 293.801 355.524 293.592 355.942 293.463C356.36 293.33 356.799 293.264 357.259 293.264C357.564 293.264 357.887 293.301 358.229 293.374C358.574 293.443 358.895 293.572 359.193 293.761C359.495 293.95 359.742 294.22 359.934 294.572C360.126 294.92 360.222 295.372 360.222 295.929V301H358.771V299.956H358.711C358.615 300.148 358.471 300.337 358.279 300.523C358.086 300.708 357.839 300.862 357.538 300.985C357.236 301.108 356.875 301.169 356.454 301.169ZM356.777 299.976C357.188 299.976 357.539 299.895 357.831 299.732C358.126 299.57 358.35 299.358 358.502 299.096C358.658 298.831 358.736 298.547 358.736 298.246V297.261C358.683 297.314 358.58 297.364 358.428 297.411C358.279 297.454 358.108 297.492 357.916 297.525C357.723 297.555 357.536 297.583 357.354 297.609C357.172 297.633 357.019 297.652 356.896 297.669C356.608 297.705 356.345 297.767 356.106 297.853C355.871 297.939 355.682 298.063 355.539 298.226C355.4 298.385 355.33 298.597 355.33 298.862C355.33 299.23 355.466 299.509 355.738 299.697C356.01 299.883 356.356 299.976 356.777 299.976ZM362.322 301V290.818H363.808V294.602H363.898C363.984 294.442 364.108 294.259 364.271 294.05C364.433 293.841 364.658 293.659 364.947 293.503C365.235 293.344 365.616 293.264 366.09 293.264C366.707 293.264 367.257 293.42 367.741 293.732C368.225 294.043 368.604 294.492 368.879 295.079C369.158 295.665 369.297 296.371 369.297 297.197C369.297 298.022 369.159 298.73 368.884 299.32C368.609 299.906 368.231 300.359 367.751 300.677C367.27 300.992 366.722 301.149 366.105 301.149C365.641 301.149 365.262 301.071 364.967 300.915C364.675 300.76 364.446 300.577 364.281 300.369C364.115 300.16 363.987 299.974 363.898 299.812H363.773V301H362.322ZM363.778 297.182C363.778 297.719 363.856 298.189 364.012 298.594C364.168 298.998 364.393 299.315 364.688 299.543C364.983 299.769 365.344 299.881 365.772 299.881C366.216 299.881 366.587 299.764 366.886 299.528C367.184 299.29 367.409 298.967 367.562 298.559C367.718 298.151 367.795 297.692 367.795 297.182C367.795 296.678 367.719 296.226 367.567 295.825C367.418 295.424 367.192 295.107 366.891 294.875C366.592 294.643 366.219 294.527 365.772 294.527C365.341 294.527 364.977 294.638 364.678 294.86C364.383 295.082 364.16 295.392 364.007 295.79C363.855 296.187 363.778 296.652 363.778 297.182ZM374.257 301.154C373.505 301.154 372.857 300.993 372.313 300.672C371.773 300.347 371.356 299.891 371.061 299.305C370.769 298.715 370.623 298.024 370.623 297.232C370.623 296.449 370.769 295.76 371.061 295.163C371.356 294.567 371.767 294.101 372.294 293.766C372.824 293.432 373.444 293.264 374.153 293.264C374.584 293.264 375.001 293.335 375.406 293.478C375.81 293.621 376.173 293.844 376.494 294.149C376.816 294.454 377.07 294.85 377.255 295.337C377.441 295.821 377.534 296.41 377.534 297.102V297.629H371.463V296.516H376.077C376.077 296.125 375.997 295.778 375.838 295.477C375.679 295.172 375.455 294.931 375.167 294.756C374.882 294.58 374.547 294.492 374.163 294.492C373.745 294.492 373.381 294.595 373.069 294.8C372.761 295.003 372.522 295.268 372.353 295.596C372.187 295.921 372.105 296.274 372.105 296.655V297.525C372.105 298.035 372.194 298.469 372.373 298.827C372.555 299.185 372.809 299.459 373.134 299.648C373.459 299.833 373.838 299.926 374.272 299.926C374.554 299.926 374.811 299.886 375.043 299.807C375.275 299.724 375.475 299.601 375.644 299.439C375.813 299.277 375.943 299.076 376.032 298.837L377.439 299.091C377.326 299.505 377.124 299.868 376.833 300.18C376.544 300.488 376.181 300.728 375.744 300.901C375.31 301.07 374.814 301.154 374.257 301.154ZM380.669 290.818V301H379.183V290.818H380.669Z" fill="white" fill-opacity="0.7"/>
<path d="M415.449 301V290.818H416.985V299.678H421.599V301H415.449ZM425.454 301.169C424.97 301.169 424.533 301.08 424.142 300.901C423.75 300.718 423.441 300.455 423.212 300.11C422.986 299.765 422.874 299.343 422.874 298.842C422.874 298.411 422.957 298.057 423.122 297.778C423.288 297.5 423.512 297.28 423.794 297.117C424.075 296.955 424.39 296.832 424.738 296.749C425.086 296.666 425.441 296.603 425.802 296.56C426.259 296.507 426.631 296.464 426.916 296.431C427.201 296.395 427.408 296.337 427.537 296.257C427.666 296.178 427.731 296.048 427.731 295.869V295.835C427.731 295.4 427.608 295.064 427.363 294.825C427.121 294.587 426.76 294.467 426.279 294.467C425.779 294.467 425.384 294.578 425.096 294.8C424.811 295.019 424.614 295.263 424.504 295.531L423.107 295.213C423.273 294.749 423.515 294.375 423.833 294.089C424.155 293.801 424.524 293.592 424.942 293.463C425.36 293.33 425.799 293.264 426.259 293.264C426.564 293.264 426.887 293.301 427.229 293.374C427.574 293.443 427.895 293.572 428.193 293.761C428.495 293.95 428.742 294.22 428.934 294.572C429.126 294.92 429.222 295.372 429.222 295.929V301H427.771V299.956H427.711C427.615 300.148 427.471 300.337 427.279 300.523C427.086 300.708 426.839 300.862 426.538 300.985C426.236 301.108 425.875 301.169 425.454 301.169ZM425.777 299.976C426.188 299.976 426.539 299.895 426.831 299.732C427.126 299.57 427.35 299.358 427.502 299.096C427.658 298.831 427.736 298.547 427.736 298.246V297.261C427.683 297.314 427.58 297.364 427.428 297.411C427.279 297.454 427.108 297.492 426.916 297.525C426.723 297.555 426.536 297.583 426.354 297.609C426.172 297.633 426.019 297.652 425.896 297.669C425.608 297.705 425.345 297.767 425.106 297.853C424.871 297.939 424.682 298.063 424.539 298.226C424.4 298.385 424.33 298.597 424.33 298.862C424.33 299.23 424.466 299.509 424.738 299.697C425.01 299.883 425.356 299.976 425.777 299.976ZM431.322 301V290.818H432.808V294.602H432.898C432.984 294.442 433.108 294.259 433.271 294.05C433.433 293.841 433.658 293.659 433.947 293.503C434.235 293.344 434.616 293.264 435.09 293.264C435.707 293.264 436.257 293.42 436.741 293.732C437.225 294.043 437.604 294.492 437.879 295.079C438.158 295.665 438.297 296.371 438.297 297.197C438.297 298.022 438.159 298.73 437.884 299.32C437.609 299.906 437.231 300.359 436.751 300.677C436.27 300.992 435.722 301.149 435.105 301.149C434.641 301.149 434.262 301.071 433.967 300.915C433.675 300.76 433.446 300.577 433.281 300.369C433.115 300.16 432.987 299.974 432.898 299.812H432.773V301H431.322ZM432.778 297.182C432.778 297.719 432.856 298.189 433.012 298.594C433.168 298.998 433.393 299.315 433.688 299.543C433.983 299.769 434.344 299.881 434.772 299.881C435.216 299.881 435.587 299.764 435.886 299.528C436.184 299.29 436.409 298.967 436.562 298.559C436.718 298.151 436.795 297.692 436.795 297.182C436.795 296.678 436.719 296.226 436.567 295.825C436.418 295.424 436.192 295.107 435.891 294.875C435.592 294.643 435.219 294.527 434.772 294.527C434.341 294.527 433.977 294.638 433.678 294.86C433.383 295.082 433.16 295.392 433.007 295.79C432.855 296.187 432.778 296.652 432.778 297.182ZM443.257 301.154C442.505 301.154 441.857 300.993 441.313 300.672C440.773 300.347 440.356 299.891 440.061 299.305C439.769 298.715 439.623 298.024 439.623 297.232C439.623 296.449 439.769 295.76 440.061 295.163C440.356 294.567 440.767 294.101 441.294 293.766C441.824 293.432 442.444 293.264 443.153 293.264C443.584 293.264 444.001 293.335 444.406 293.478C444.81 293.621 445.173 293.844 445.494 294.149C445.816 294.454 446.07 294.85 446.255 295.337C446.441 295.821 446.534 296.41 446.534 297.102V297.629H440.463V296.516H445.077C445.077 296.125 444.997 295.778 444.838 295.477C444.679 295.172 444.455 294.931 444.167 294.756C443.882 294.58 443.547 294.492 443.163 294.492C442.745 294.492 442.381 294.595 442.069 294.8C441.761 295.003 441.522 295.268 441.353 295.596C441.187 295.921 441.105 296.274 441.105 296.655V297.525C441.105 298.035 441.194 298.469 441.373 298.827C441.555 299.185 441.809 299.459 442.134 299.648C442.459 299.833 442.838 299.926 443.272 299.926C443.554 299.926 443.811 299.886 444.043 299.807C444.275 299.724 444.475 299.601 444.644 299.439C444.813 299.277 444.943 299.076 445.032 298.837L446.439 299.091C446.326 299.505 446.124 299.868 445.833 300.18C445.544 300.488 445.181 300.728 444.744 300.901C444.31 301.07 443.814 301.154 443.257 301.154ZM449.669 290.818V301H448.183V290.818H449.669Z" fill="white" fill-opacity="0.7"/>
<path d="M484.449 301V290.818H485.985V299.678H490.599V301H484.449ZM494.454 301.169C493.97 301.169 493.533 301.08 493.142 300.901C492.75 300.718 492.441 300.455 492.212 300.11C491.986 299.765 491.874 299.343 491.874 298.842C491.874 298.411 491.957 298.057 492.122 297.778C492.288 297.5 492.512 297.28 492.794 297.117C493.075 296.955 493.39 296.832 493.738 296.749C494.086 296.666 494.441 296.603 494.802 296.56C495.259 296.507 495.631 296.464 495.916 296.431C496.201 296.395 496.408 296.337 496.537 296.257C496.666 296.178 496.731 296.048 496.731 295.869V295.835C496.731 295.4 496.608 295.064 496.363 294.825C496.121 294.587 495.76 294.467 495.279 294.467C494.779 294.467 494.384 294.578 494.096 294.8C493.811 295.019 493.614 295.263 493.504 295.531L492.107 295.213C492.273 294.749 492.515 294.375 492.833 294.089C493.155 293.801 493.524 293.592 493.942 293.463C494.36 293.33 494.799 293.264 495.259 293.264C495.564 293.264 495.887 293.301 496.229 293.374C496.574 293.443 496.895 293.572 497.193 293.761C497.495 293.95 497.742 294.22 497.934 294.572C498.126 294.92 498.222 295.372 498.222 295.929V301H496.771V299.956H496.711C496.615 300.148 496.471 300.337 496.279 300.523C496.086 300.708 495.839 300.862 495.538 300.985C495.236 301.108 494.875 301.169 494.454 301.169ZM494.777 299.976C495.188 299.976 495.539 299.895 495.831 299.732C496.126 299.57 496.35 299.358 496.502 299.096C496.658 298.831 496.736 298.547 496.736 298.246V297.261C496.683 297.314 496.58 297.364 496.428 297.411C496.279 297.454 496.108 297.492 495.916 297.525C495.723 297.555 495.536 297.583 495.354 297.609C495.172 297.633 495.019 297.652 494.896 297.669C494.608 297.705 494.345 297.767 494.106 297.853C493.871 297.939 493.682 298.063 493.539 298.226C493.4 298.385 493.33 298.597 493.33 298.862C493.33 299.23 493.466 299.509 493.738 299.697C494.01 299.883 494.356 299.976 494.777 299.976ZM500.322 301V290.818H501.808V294.602H501.898C501.984 294.442 502.108 294.259 502.271 294.05C502.433 293.841 502.658 293.659 502.947 293.503C503.235 293.344 503.616 293.264 504.09 293.264C504.707 293.264 505.257 293.42 505.741 293.732C506.225 294.043 506.604 294.492 506.879 295.079C507.158 295.665 507.297 296.371 507.297 297.197C507.297 298.022 507.159 298.73 506.884 299.32C506.609 299.906 506.231 300.359 505.751 300.677C505.27 300.992 504.722 301.149 504.105 301.149C503.641 301.149 503.262 301.071 502.967 300.915C502.675 300.76 502.446 300.577 502.281 300.369C502.115 300.16 501.987 299.974 501.898 299.812H501.773V301H500.322ZM501.778 297.182C501.778 297.719 501.856 298.189 502.012 298.594C502.168 298.998 502.393 299.315 502.688 299.543C502.983 299.769 503.344 299.881 503.772 299.881C504.216 299.881 504.587 299.764 504.886 299.528C505.184 299.29 505.409 298.967 505.562 298.559C505.718 298.151 505.795 297.692 505.795 297.182C505.795 296.678 505.719 296.226 505.567 295.825C505.418 295.424 505.192 295.107 504.891 294.875C504.592 294.643 504.219 294.527 503.772 294.527C503.341 294.527 502.977 294.638 502.678 294.86C502.383 295.082 502.16 295.392 502.007 295.79C501.855 296.187 501.778 296.652 501.778 297.182ZM512.257 301.154C511.505 301.154 510.857 300.993 510.313 300.672C509.773 300.347 509.356 299.891 509.061 299.305C508.769 298.715 508.623 298.024 508.623 297.232C508.623 296.449 508.769 295.76 509.061 295.163C509.356 294.567 509.767 294.101 510.294 293.766C510.824 293.432 511.444 293.264 512.153 293.264C512.584 293.264 513.001 293.335 513.406 293.478C513.81 293.621 514.173 293.844 514.494 294.149C514.816 294.454 515.07 294.85 515.255 295.337C515.441 295.821 515.534 296.41 515.534 297.102V297.629H509.463V296.516H514.077C514.077 296.125 513.997 295.778 513.838 295.477C513.679 295.172 513.455 294.931 513.167 294.756C512.882 294.58 512.547 294.492 512.163 294.492C511.745 294.492 511.381 294.595 511.069 294.8C510.761 295.003 510.522 295.268 510.353 295.596C510.187 295.921 510.105 296.274 510.105 296.655V297.525C510.105 298.035 510.194 298.469 510.373 298.827C510.555 299.185 510.809 299.459 511.134 299.648C511.459 299.833 511.838 299.926 512.272 299.926C512.554 299.926 512.811 299.886 513.043 299.807C513.275 299.724 513.475 299.601 513.644 299.439C513.813 299.277 513.943 299.076 514.032 298.837L515.439 299.091C515.326 299.505 515.124 299.868 514.833 300.18C514.544 300.488 514.181 300.728 513.744 300.901C513.31 301.07 512.814 301.154 512.257 301.154ZM518.669 290.818V301H517.183V290.818H518.669Z" fill="white" fill-opacity="0.7"/>
<path d="M553.449 301V290.818H554.985V299.678H559.599V301H553.449ZM563.454 301.169C562.97 301.169 562.533 301.08 562.142 300.901C561.75 300.718 561.441 300.455 561.212 300.11C560.986 299.765 560.874 299.343 560.874 298.842C560.874 298.411 560.957 298.057 561.122 297.778C561.288 297.5 561.512 297.28 561.794 297.117C562.075 296.955 562.39 296.832 562.738 296.749C563.086 296.666 563.441 296.603 563.802 296.56C564.259 296.507 564.631 296.464 564.916 296.431C565.201 296.395 565.408 296.337 565.537 296.257C565.666 296.178 565.731 296.048 565.731 295.869V295.835C565.731 295.4 565.608 295.064 565.363 294.825C565.121 294.587 564.76 294.467 564.279 294.467C563.779 294.467 563.384 294.578 563.096 294.8C562.811 295.019 562.614 295.263 562.504 295.531L561.107 295.213C561.273 294.749 561.515 294.375 561.833 294.089C562.155 293.801 562.524 293.592 562.942 293.463C563.36 293.33 563.799 293.264 564.259 293.264C564.564 293.264 564.887 293.301 565.229 293.374C565.574 293.443 565.895 293.572 566.193 293.761C566.495 293.95 566.742 294.22 566.934 294.572C567.126 294.92 567.222 295.372 567.222 295.929V301H565.771V299.956H565.711C565.615 300.148 565.471 300.337 565.279 300.523C565.086 300.708 564.839 300.862 564.538 300.985C564.236 301.108 563.875 301.169 563.454 301.169ZM563.777 299.976C564.188 299.976 564.539 299.895 564.831 299.732C565.126 299.57 565.35 299.358 565.502 299.096C565.658 298.831 565.736 298.547 565.736 298.246V297.261C565.683 297.314 565.58 297.364 565.428 297.411C565.279 297.454 565.108 297.492 564.916 297.525C564.723 297.555 564.536 297.583 564.354 297.609C564.172 297.633 564.019 297.652 563.896 297.669C563.608 297.705 563.345 297.767 563.106 297.853C562.871 297.939 562.682 298.063 562.539 298.226C562.4 298.385 562.33 298.597 562.33 298.862C562.33 299.23 562.466 299.509 562.738 299.697C563.01 299.883 563.356 299.976 563.777 299.976ZM569.322 301V290.818H570.808V294.602H570.898C570.984 294.442 571.108 294.259 571.271 294.05C571.433 293.841 571.658 293.659 571.947 293.503C572.235 293.344 572.616 293.264 573.09 293.264C573.707 293.264 574.257 293.42 574.741 293.732C575.225 294.043 575.604 294.492 575.879 295.079C576.158 295.665 576.297 296.371 576.297 297.197C576.297 298.022 576.159 298.73 575.884 299.32C575.609 299.906 575.231 300.359 574.751 300.677C574.27 300.992 573.722 301.149 573.105 301.149C572.641 301.149 572.262 301.071 571.967 300.915C571.675 300.76 571.446 300.577 571.281 300.369C571.115 300.16 570.987 299.974 570.898 299.812H570.773V301H569.322ZM570.778 297.182C570.778 297.719 570.856 298.189 571.012 298.594C571.168 298.998 571.393 299.315 571.688 299.543C571.983 299.769 572.344 299.881 572.772 299.881C573.216 299.881 573.587 299.764 573.886 299.528C574.184 299.29 574.409 298.967 574.562 298.559C574.718 298.151 574.795 297.692 574.795 297.182C574.795 296.678 574.719 296.226 574.567 295.825C574.418 295.424 574.192 295.107 573.891 294.875C573.592 294.643 573.219 294.527 572.772 294.527C572.341 294.527 571.977 294.638 571.678 294.86C571.383 295.082 571.16 295.392 571.007 295.79C570.855 296.187 570.778 296.652 570.778 297.182ZM581.257 301.154C580.505 301.154 579.857 300.993 579.313 300.672C578.773 300.347 578.356 299.891 578.061 299.305C577.769 298.715 577.623 298.024 577.623 297.232C577.623 296.449 577.769 295.76 578.061 295.163C578.356 294.567 578.767 294.101 579.294 293.766C579.824 293.432 580.444 293.264 581.153 293.264C581.584 293.264 582.001 293.335 582.406 293.478C582.81 293.621 583.173 293.844 583.494 294.149C583.816 294.454 584.07 294.85 584.255 295.337C584.441 295.821 584.534 296.41 584.534 297.102V297.629H578.463V296.516H583.077C583.077 296.125 582.997 295.778 582.838 295.477C582.679 295.172 582.455 294.931 582.167 294.756C581.882 294.58 581.547 294.492 581.163 294.492C580.745 294.492 580.381 294.595 580.069 294.8C579.761 295.003 579.522 295.268 579.353 295.596C579.187 295.921 579.105 296.274 579.105 296.655V297.525C579.105 298.035 579.194 298.469 579.373 298.827C579.555 299.185 579.809 299.459 580.134 299.648C580.459 299.833 580.838 299.926 581.272 299.926C581.554 299.926 581.811 299.886 582.043 299.807C582.275 299.724 582.475 299.601 582.644 299.439C582.813 299.277 582.943 299.076 583.032 298.837L584.439 299.091C584.326 299.505 584.124 299.868 583.833 300.18C583.544 300.488 583.181 300.728 582.744 300.901C582.31 301.07 581.814 301.154 581.257 301.154ZM587.669 290.818V301H586.183V290.818H587.669Z" fill="white" fill-opacity="0.7"/>
<path d="M622.449 301V290.818H623.985V299.678H628.599V301H622.449ZM632.454 301.169C631.97 301.169 631.533 301.08 631.142 300.901C630.75 300.718 630.441 300.455 630.212 300.11C629.986 299.765 629.874 299.343 629.874 298.842C629.874 298.411 629.957 298.057 630.122 297.778C630.288 297.5 630.512 297.28 630.794 297.117C631.075 296.955 631.39 296.832 631.738 296.749C632.086 296.666 632.441 296.603 632.802 296.56C633.259 296.507 633.631 296.464 633.916 296.431C634.201 296.395 634.408 296.337 634.537 296.257C634.666 296.178 634.731 296.048 634.731 295.869V295.835C634.731 295.4 634.608 295.064 634.363 294.825C634.121 294.587 633.76 294.467 633.279 294.467C632.779 294.467 632.384 294.578 632.096 294.8C631.811 295.019 631.614 295.263 631.504 295.531L630.107 295.213C630.273 294.749 630.515 294.375 630.833 294.089C631.155 293.801 631.524 293.592 631.942 293.463C632.36 293.33 632.799 293.264 633.259 293.264C633.564 293.264 633.887 293.301 634.229 293.374C634.574 293.443 634.895 293.572 635.193 293.761C635.495 293.95 635.742 294.22 635.934 294.572C636.126 294.92 636.222 295.372 636.222 295.929V301H634.771V299.956H634.711C634.615 300.148 634.471 300.337 634.279 300.523C634.086 300.708 633.839 300.862 633.538 300.985C633.236 301.108 632.875 301.169 632.454 301.169ZM632.777 299.976C633.188 299.976 633.539 299.895 633.831 299.732C634.126 299.57 634.35 299.358 634.502 299.096C634.658 298.831 634.736 298.547 634.736 298.246V297.261C634.683 297.314 634.58 297.364 634.428 297.411C634.279 297.454 634.108 297.492 633.916 297.525C633.723 297.555 633.536 297.583 633.354 297.609C633.172 297.633 633.019 297.652 632.896 297.669C632.608 297.705 632.345 297.767 632.106 297.853C631.871 297.939 631.682 298.063 631.539 298.226C631.4 298.385 631.33 298.597 631.33 298.862C631.33 299.23 631.466 299.509 631.738 299.697C632.01 299.883 632.356 299.976 632.777 299.976ZM638.322 301V290.818H639.808V294.602H639.898C639.984 294.442 640.108 294.259 640.271 294.05C640.433 293.841 640.658 293.659 640.947 293.503C641.235 293.344 641.616 293.264 642.09 293.264C642.707 293.264 643.257 293.42 643.741 293.732C644.225 294.043 644.604 294.492 644.879 295.079C645.158 295.665 645.297 296.371 645.297 297.197C645.297 298.022 645.159 298.73 644.884 299.32C644.609 299.906 644.231 300.359 643.751 300.677C643.27 300.992 642.722 301.149 642.105 301.149C641.641 301.149 641.262 301.071 640.967 300.915C640.675 300.76 640.446 300.577 640.281 300.369C640.115 300.16 639.987 299.974 639.898 299.812H639.773V301H638.322ZM639.778 297.182C639.778 297.719 639.856 298.189 640.012 298.594C640.168 298.998 640.393 299.315 640.688 299.543C640.983 299.769 641.344 299.881 641.772 299.881C642.216 299.881 642.587 299.764 642.886 299.528C643.184 299.29 643.409 298.967 643.562 298.559C643.718 298.151 643.795 297.692 643.795 297.182C643.795 296.678 643.719 296.226 643.567 295.825C643.418 295.424 643.192 295.107 642.891 294.875C642.592 294.643 642.219 294.527 641.772 294.527C641.341 294.527 640.977 294.638 640.678 294.86C640.383 295.082 640.16 295.392 640.007 295.79C639.855 296.187 639.778 296.652 639.778 297.182ZM650.257 301.154C649.505 301.154 648.857 300.993 648.313 300.672C647.773 300.347 647.356 299.891 647.061 299.305C646.769 298.715 646.623 298.024 646.623 297.232C646.623 296.449 646.769 295.76 647.061 295.163C647.356 294.567 647.767 294.101 648.294 293.766C648.824 293.432 649.444 293.264 650.153 293.264C650.584 293.264 651.001 293.335 651.406 293.478C651.81 293.621 652.173 293.844 652.494 294.149C652.816 294.454 653.07 294.85 653.255 295.337C653.441 295.821 653.534 296.41 653.534 297.102V297.629H647.463V296.516H652.077C652.077 296.125 651.997 295.778 651.838 295.477C651.679 295.172 651.455 294.931 651.167 294.756C650.882 294.58 650.547 294.492 650.163 294.492C649.745 294.492 649.381 294.595 649.069 294.8C648.761 295.003 648.522 295.268 648.353 295.596C648.187 295.921 648.105 296.274 648.105 296.655V297.525C648.105 298.035 648.194 298.469 648.373 298.827C648.555 299.185 648.809 299.459 649.134 299.648C649.459 299.833 649.838 299.926 650.272 299.926C650.554 299.926 650.811 299.886 651.043 299.807C651.275 299.724 651.475 299.601 651.644 299.439C651.813 299.277 651.943 299.076 652.032 298.837L653.439 299.091C653.326 299.505 653.124 299.868 652.833 300.18C652.544 300.488 652.181 300.728 651.744 300.901C651.31 301.07 650.814 301.154 650.257 301.154ZM656.669 290.818V301H655.183V290.818H656.669Z" fill="white" fill-opacity="0.7"/>
<path d="M691.449 301V290.818H692.985V299.678H697.599V301H691.449ZM701.454 301.169C700.97 301.169 700.533 301.08 700.142 300.901C699.75 300.718 699.441 300.455 699.212 300.11C698.986 299.765 698.874 299.343 698.874 298.842C698.874 298.411 698.957 298.057 699.122 297.778C699.288 297.5 699.512 297.28 699.794 297.117C700.075 296.955 700.39 296.832 700.738 296.749C701.086 296.666 701.441 296.603 701.802 296.56C702.259 296.507 702.631 296.464 702.916 296.431C703.201 296.395 703.408 296.337 703.537 296.257C703.666 296.178 703.731 296.048 703.731 295.869V295.835C703.731 295.4 703.608 295.064 703.363 294.825C703.121 294.587 702.76 294.467 702.279 294.467C701.779 294.467 701.384 294.578 701.096 294.8C700.811 295.019 700.614 295.263 700.504 295.531L699.107 295.213C699.273 294.749 699.515 294.375 699.833 294.089C700.155 293.801 700.524 293.592 700.942 293.463C701.36 293.33 701.799 293.264 702.259 293.264C702.564 293.264 702.887 293.301 703.229 293.374C703.574 293.443 703.895 293.572 704.193 293.761C704.495 293.95 704.742 294.22 704.934 294.572C705.126 294.92 705.222 295.372 705.222 295.929V301H703.771V299.956H703.711C703.615 300.148 703.471 300.337 703.279 300.523C703.086 300.708 702.839 300.862 702.538 300.985C702.236 301.108 701.875 301.169 701.454 301.169ZM701.777 299.976C702.188 299.976 702.539 299.895 702.831 299.732C703.126 299.57 703.35 299.358 703.502 299.096C703.658 298.831 703.736 298.547 703.736 298.246V297.261C703.683 297.314 703.58 297.364 703.428 297.411C703.279 297.454 703.108 297.492 702.916 297.525C702.723 297.555 702.536 297.583 702.354 297.609C702.172 297.633 702.019 297.652 701.896 297.669C701.608 297.705 701.345 297.767 701.106 297.853C700.871 297.939 700.682 298.063 700.539 298.226C700.4 298.385 700.33 298.597 700.33 298.862C700.33 299.23 700.466 299.509 700.738 299.697C701.01 299.883 701.356 299.976 701.777 299.976ZM707.322 301V290.818H708.808V294.602H708.898C708.984 294.442 709.108 294.259 709.271 294.05C709.433 293.841 709.658 293.659 709.947 293.503C710.235 293.344 710.616 293.264 711.09 293.264C711.707 293.264 712.257 293.42 712.741 293.732C713.225 294.043 713.604 294.492 713.879 295.079C714.158 295.665 714.297 296.371 714.297 297.197C714.297 298.022 714.159 298.73 713.884 299.32C713.609 299.906 713.231 300.359 712.751 300.677C712.27 300.992 711.722 301.149 711.105 301.149C710.641 301.149 710.262 301.071 709.967 300.915C709.675 300.76 709.446 300.577 709.281 300.369C709.115 300.16 708.987 299.974 708.898 299.812H708.773V301H707.322ZM708.778 297.182C708.778 297.719 708.856 298.189 709.012 298.594C709.168 298.998 709.393 299.315 709.688 299.543C709.983 299.769 710.344 299.881 710.772 299.881C711.216 299.881 711.587 299.764 711.886 299.528C712.184 299.29 712.409 298.967 712.562 298.559C712.718 298.151 712.795 297.692 712.795 297.182C712.795 296.678 712.719 296.226 712.567 295.825C712.418 295.424 712.192 295.107 711.891 294.875C711.592 294.643 711.219 294.527 710.772 294.527C710.341 294.527 709.977 294.638 709.678 294.86C709.383 295.082 709.16 295.392 709.007 295.79C708.855 296.187 708.778 296.652 708.778 297.182ZM719.257 301.154C718.505 301.154 717.857 300.993 717.313 300.672C716.773 300.347 716.356 299.891 716.061 299.305C715.769 298.715 715.623 298.024 715.623 297.232C715.623 296.449 715.769 295.76 716.061 295.163C716.356 294.567 716.767 294.101 717.294 293.766C717.824 293.432 718.444 293.264 719.153 293.264C719.584 293.264 720.001 293.335 720.406 293.478C720.81 293.621 721.173 293.844 721.494 294.149C721.816 294.454 722.07 294.85 722.255 295.337C722.441 295.821 722.534 296.41 722.534 297.102V297.629H716.463V296.516H721.077C721.077 296.125 720.997 295.778 720.838 295.477C720.679 295.172 720.455 294.931 720.167 294.756C719.882 294.58 719.547 294.492 719.163 294.492C718.745 294.492 718.381 294.595 718.069 294.8C717.761 295.003 717.522 295.268 717.353 295.596C717.187 295.921 717.105 296.274 717.105 296.655V297.525C717.105 298.035 717.194 298.469 717.373 298.827C717.555 299.185 717.809 299.459 718.134 299.648C718.459 299.833 718.838 299.926 719.272 299.926C719.554 299.926 719.811 299.886 720.043 299.807C720.275 299.724 720.475 299.601 720.644 299.439C720.813 299.277 720.943 299.076 721.032 298.837L722.439 299.091C722.326 299.505 722.124 299.868 721.833 300.18C721.544 300.488 721.181 300.728 720.744 300.901C720.31 301.07 719.814 301.154 719.257 301.154ZM725.669 290.818V301H724.183V290.818H725.669Z" fill="white" fill-opacity="0.7"/>
<path d="M760.449 301V290.818H761.985V299.678H766.599V301H760.449ZM770.454 301.169C769.97 301.169 769.533 301.08 769.142 300.901C768.75 300.718 768.441 300.455 768.212 300.11C767.986 299.765 767.874 299.343 767.874 298.842C767.874 298.411 767.957 298.057 768.122 297.778C768.288 297.5 768.512 297.28 768.794 297.117C769.075 296.955 769.39 296.832 769.738 296.749C770.086 296.666 770.441 296.603 770.802 296.56C771.259 296.507 771.631 296.464 771.916 296.431C772.201 296.395 772.408 296.337 772.537 296.257C772.666 296.178 772.731 296.048 772.731 295.869V295.835C772.731 295.4 772.608 295.064 772.363 294.825C772.121 294.587 771.76 294.467 771.279 294.467C770.779 294.467 770.384 294.578 770.096 294.8C769.811 295.019 769.614 295.263 769.504 295.531L768.107 295.213C768.273 294.749 768.515 294.375 768.833 294.089C769.155 293.801 769.524 293.592 769.942 293.463C770.36 293.33 770.799 293.264 771.259 293.264C771.564 293.264 771.887 293.301 772.229 293.374C772.574 293.443 772.895 293.572 773.193 293.761C773.495 293.95 773.742 294.22 773.934 294.572C774.126 294.92 774.222 295.372 774.222 295.929V301H772.771V299.956H772.711C772.615 300.148 772.471 300.337 772.279 300.523C772.086 300.708 771.839 300.862 771.538 300.985C771.236 301.108 770.875 301.169 770.454 301.169ZM770.777 299.976C771.188 299.976 771.539 299.895 771.831 299.732C772.126 299.57 772.35 299.358 772.502 299.096C772.658 298.831 772.736 298.547 772.736 298.246V297.261C772.683 297.314 772.58 297.364 772.428 297.411C772.279 297.454 772.108 297.492 771.916 297.525C771.723 297.555 771.536 297.583 771.354 297.609C771.172 297.633 771.019 297.652 770.896 297.669C770.608 297.705 770.345 297.767 770.106 297.853C769.871 297.939 769.682 298.063 769.539 298.226C769.4 298.385 769.33 298.597 769.33 298.862C769.33 299.23 769.466 299.509 769.738 299.697C770.01 299.883 770.356 299.976 770.777 299.976ZM776.322 301V290.818H777.808V294.602H777.898C777.984 294.442 778.108 294.259 778.271 294.05C778.433 293.841 778.658 293.659 778.947 293.503C779.235 293.344 779.616 293.264 780.09 293.264C780.707 293.264 781.257 293.42 781.741 293.732C782.225 294.043 782.604 294.492 782.879 295.079C783.158 295.665 783.297 296.371 783.297 297.197C783.297 298.022 783.159 298.73 782.884 299.32C782.609 299.906 782.231 300.359 781.751 300.677C781.27 300.992 780.722 301.149 780.105 301.149C779.641 301.149 779.262 301.071 778.967 300.915C778.675 300.76 778.446 300.577 778.281 300.369C778.115 300.16 777.987 299.974 777.898 299.812H777.773V301H776.322ZM777.778 297.182C777.778 297.719 777.856 298.189 778.012 298.594C778.168 298.998 778.393 299.315 778.688 299.543C778.983 299.769 779.344 299.881 779.772 299.881C780.216 299.881 780.587 299.764 780.886 299.528C781.184 299.29 781.409 298.967 781.562 298.559C781.718 298.151 781.795 297.692 781.795 297.182C781.795 296.678 781.719 296.226 781.567 295.825C781.418 295.424 781.192 295.107 780.891 294.875C780.592 294.643 780.219 294.527 779.772 294.527C779.341 294.527 778.977 294.638 778.678 294.86C778.383 295.082 778.16 295.392 778.007 295.79C777.855 296.187 777.778 296.652 777.778 297.182ZM788.257 301.154C787.505 301.154 786.857 300.993 786.313 300.672C785.773 300.347 785.356 299.891 785.061 299.305C784.769 298.715 784.623 298.024 784.623 297.232C784.623 296.449 784.769 295.76 785.061 295.163C785.356 294.567 785.767 294.101 786.294 293.766C786.824 293.432 787.444 293.264 788.153 293.264C788.584 293.264 789.001 293.335 789.406 293.478C789.81 293.621 790.173 293.844 790.494 294.149C790.816 294.454 791.07 294.85 791.255 295.337C791.441 295.821 791.534 296.41 791.534 297.102V297.629H785.463V296.516H790.077C790.077 296.125 789.997 295.778 789.838 295.477C789.679 295.172 789.455 294.931 789.167 294.756C788.882 294.58 788.547 294.492 788.163 294.492C787.745 294.492 787.381 294.595 787.069 294.8C786.761 295.003 786.522 295.268 786.353 295.596C786.187 295.921 786.105 296.274 786.105 296.655V297.525C786.105 298.035 786.194 298.469 786.373 298.827C786.555 299.185 786.809 299.459 787.134 299.648C787.459 299.833 787.838 299.926 788.272 299.926C788.554 299.926 788.811 299.886 789.043 299.807C789.275 299.724 789.475 299.601 789.644 299.439C789.813 299.277 789.943 299.076 790.032 298.837L791.439 299.091C791.326 299.505 791.124 299.868 790.833 300.18C790.544 300.488 790.181 300.728 789.744 300.901C789.31 301.07 788.814 301.154 788.257 301.154ZM794.669 290.818V301H793.183V290.818H794.669Z" fill="white" fill-opacity="0.7"/>
<path d="M829.449 301V290.818H830.985V299.678H835.599V301H829.449ZM839.454 301.169C838.97 301.169 838.533 301.08 838.142 300.901C837.75 300.718 837.441 300.455 837.212 300.11C836.986 299.765 836.874 299.343 836.874 298.842C836.874 298.411 836.957 298.057 837.122 297.778C837.288 297.5 837.512 297.28 837.794 297.117C838.075 296.955 838.39 296.832 838.738 296.749C839.086 296.666 839.441 296.603 839.802 296.56C840.259 296.507 840.631 296.464 840.916 296.431C841.201 296.395 841.408 296.337 841.537 296.257C841.666 296.178 841.731 296.048 841.731 295.869V295.835C841.731 295.4 841.608 295.064 841.363 294.825C841.121 294.587 840.76 294.467 840.279 294.467C839.779 294.467 839.384 294.578 839.096 294.8C838.811 295.019 838.614 295.263 838.504 295.531L837.107 295.213C837.273 294.749 837.515 294.375 837.833 294.089C838.155 293.801 838.524 293.592 838.942 293.463C839.36 293.33 839.799 293.264 840.259 293.264C840.564 293.264 840.887 293.301 841.229 293.374C841.574 293.443 841.895 293.572 842.193 293.761C842.495 293.95 842.742 294.22 842.934 294.572C843.126 294.92 843.222 295.372 843.222 295.929V301H841.771V299.956H841.711C841.615 300.148 841.471 300.337 841.279 300.523C841.086 300.708 840.839 300.862 840.538 300.985C840.236 301.108 839.875 301.169 839.454 301.169ZM839.777 299.976C840.188 299.976 840.539 299.895 840.831 299.732C841.126 299.57 841.35 299.358 841.502 299.096C841.658 298.831 841.736 298.547 841.736 298.246V297.261C841.683 297.314 841.58 297.364 841.428 297.411C841.279 297.454 841.108 297.492 840.916 297.525C840.723 297.555 840.536 297.583 840.354 297.609C840.172 297.633 840.019 297.652 839.896 297.669C839.608 297.705 839.345 297.767 839.106 297.853C838.871 297.939 838.682 298.063 838.539 298.226C838.4 298.385 838.33 298.597 838.33 298.862C838.33 299.23 838.466 299.509 838.738 299.697C839.01 299.883 839.356 299.976 839.777 299.976ZM845.322 301V290.818H846.808V294.602H846.898C846.984 294.442 847.108 294.259 847.271 294.05C847.433 293.841 847.658 293.659 847.947 293.503C848.235 293.344 848.616 293.264 849.09 293.264C849.707 293.264 850.257 293.42 850.741 293.732C851.225 294.043 851.604 294.492 851.879 295.079C852.158 295.665 852.297 296.371 852.297 297.197C852.297 298.022 852.159 298.73 851.884 299.32C851.609 299.906 851.231 300.359 850.751 300.677C850.27 300.992 849.722 301.149 849.105 301.149C848.641 301.149 848.262 301.071 847.967 300.915C847.675 300.76 847.446 300.577 847.281 300.369C847.115 300.16 846.987 299.974 846.898 299.812H846.773V301H845.322ZM846.778 297.182C846.778 297.719 846.856 298.189 847.012 298.594C847.168 298.998 847.393 299.315 847.688 299.543C847.983 299.769 848.344 299.881 848.772 299.881C849.216 299.881 849.587 299.764 849.886 299.528C850.184 299.29 850.409 298.967 850.562 298.559C850.718 298.151 850.795 297.692 850.795 297.182C850.795 296.678 850.719 296.226 850.567 295.825C850.418 295.424 850.192 295.107 849.891 294.875C849.592 294.643 849.219 294.527 848.772 294.527C848.341 294.527 847.977 294.638 847.678 294.86C847.383 295.082 847.16 295.392 847.007 295.79C846.855 296.187 846.778 296.652 846.778 297.182ZM857.257 301.154C856.505 301.154 855.857 300.993 855.313 300.672C854.773 300.347 854.356 299.891 854.061 299.305C853.769 298.715 853.623 298.024 853.623 297.232C853.623 296.449 853.769 295.76 854.061 295.163C854.356 294.567 854.767 294.101 855.294 293.766C855.824 293.432 856.444 293.264 857.153 293.264C857.584 293.264 858.001 293.335 858.406 293.478C858.81 293.621 859.173 293.844 859.494 294.149C859.816 294.454 860.07 294.85 860.255 295.337C860.441 295.821 860.534 296.41 860.534 297.102V297.629H854.463V296.516H859.077C859.077 296.125 858.997 295.778 858.838 295.477C858.679 295.172 858.455 294.931 858.167 294.756C857.882 294.58 857.547 294.492 857.163 294.492C856.745 294.492 856.381 294.595 856.069 294.8C855.761 295.003 855.522 295.268 855.353 295.596C855.187 295.921 855.105 296.274 855.105 296.655V297.525C855.105 298.035 855.194 298.469 855.373 298.827C855.555 299.185 855.809 299.459 856.134 299.648C856.459 299.833 856.838 299.926 857.272 299.926C857.554 299.926 857.811 299.886 858.043 299.807C858.275 299.724 858.475 299.601 858.644 299.439C858.813 299.277 858.943 299.076 859.032 298.837L860.439 299.091C860.326 299.505 860.124 299.868 859.833 300.18C859.544 300.488 859.181 300.728 858.744 300.901C858.31 301.07 857.814 301.154 857.257 301.154ZM863.669 290.818V301H862.183V290.818H863.669Z" fill="white" fill-opacity="0.7"/>
<path d="M942.354 295.646L936.354 289.646C936.307 289.599 936.252 289.561 936.191 289.535C936.13 289.509 936.065 289.495 935.998 289.495C935.932 289.494 935.866 289.507 935.805 289.532C935.744 289.557 935.688 289.594 935.641 289.641C935.594 289.688 935.557 289.744 935.532 289.805C935.507 289.866 935.494 289.932 935.495 289.998C935.495 290.065 935.509 290.13 935.535 290.191C935.561 290.252 935.599 290.307 935.647 290.354L941.293 296L935.647 301.646C935.599 301.693 935.561 301.748 935.535 301.809C935.509 301.87 935.495 301.935 935.495 302.002C935.494 302.068 935.507 302.134 935.532 302.195C935.557 302.256 935.594 302.312 935.641 302.359C935.688 302.406 935.744 302.443 935.805 302.468C935.866 302.493 935.932 302.506 935.998 302.505C936.065 302.505 936.13 302.491 936.191 302.465C936.252 302.439 936.307 302.401 936.354 302.354L942.354 296.354C942.447 296.26 942.5 296.133 942.5 296C942.5 295.867 942.447 295.74 942.354 295.646Z" fill="white" fill-opacity="0.95"/>
</g>
<defs>
<clipPath id="clip0_2110_62821">
<rect width="760" height="32" fill="white" transform="translate(195 144)"/>
</clipPath>
<clipPath id="clip1_2110_62821">
<rect width="760" height="32" fill="white" transform="translate(195 280)"/>
</clipPath>
</defs>
</svg>
