<svg width="1150" height="232" viewBox="0 0 1150 232" fill="none" xmlns="http://www.w3.org/2000/svg">
<rect width="1150" height="232" rx="16" fill="#1A1A1A"/>
<g clip-path="url(#clip0_2110_62852)">
<path d="M208.707 116L214.354 110.354C214.445 110.26 214.496 110.133 214.495 110.002C214.494 109.871 214.441 109.745 214.348 109.652C214.256 109.559 214.13 109.507 213.999 109.506C213.867 109.505 213.741 109.555 213.647 109.647L207.647 115.647C207.553 115.74 207.5 115.868 207.5 116C207.5 116.133 207.553 116.26 207.647 116.354L213.647 122.354C213.693 122.401 213.748 122.439 213.809 122.465C213.87 122.491 213.935 122.505 214.002 122.506C214.068 122.506 214.134 122.493 214.195 122.468C214.256 122.443 214.312 122.406 214.359 122.359C214.406 122.312 214.443 122.257 214.468 122.195C214.493 122.134 214.506 122.068 214.506 122.002C214.505 121.935 214.491 121.87 214.465 121.809C214.439 121.748 214.401 121.693 214.354 121.647L208.707 116Z" fill="white" fill-opacity="0.95"/>
<g clip-path="url(#clip1_2110_62852)">
<rect x="229" y="100" width="61" height="32" rx="16" fill="white" fill-opacity="0.2"/>
<path d="M242.449 121V110.818H243.985V119.678H248.599V121H242.449ZM252.454 121.169C251.97 121.169 251.533 121.08 251.142 120.901C250.75 120.718 250.441 120.455 250.212 120.11C249.986 119.765 249.874 119.343 249.874 118.842C249.874 118.411 249.957 118.057 250.122 117.778C250.288 117.5 250.512 117.28 250.794 117.117C251.075 116.955 251.39 116.832 251.738 116.749C252.086 116.666 252.441 116.603 252.802 116.56C253.259 116.507 253.631 116.464 253.916 116.431C254.201 116.395 254.408 116.337 254.537 116.257C254.666 116.178 254.731 116.048 254.731 115.869V115.835C254.731 115.4 254.608 115.064 254.363 114.825C254.121 114.587 253.76 114.467 253.279 114.467C252.779 114.467 252.384 114.578 252.096 114.8C251.811 115.019 251.614 115.263 251.504 115.531L250.107 115.213C250.273 114.749 250.515 114.375 250.833 114.089C251.155 113.801 251.524 113.592 251.942 113.463C252.36 113.33 252.799 113.264 253.259 113.264C253.564 113.264 253.887 113.301 254.229 113.374C254.574 113.443 254.895 113.572 255.193 113.761C255.495 113.95 255.742 114.22 255.934 114.572C256.126 114.92 256.222 115.372 256.222 115.929V121H254.771V119.956H254.711C254.615 120.148 254.471 120.337 254.279 120.523C254.086 120.708 253.839 120.862 253.538 120.985C253.236 121.108 252.875 121.169 252.454 121.169ZM252.777 119.976C253.188 119.976 253.539 119.895 253.831 119.732C254.126 119.57 254.35 119.358 254.502 119.096C254.658 118.831 254.736 118.547 254.736 118.246V117.261C254.683 117.314 254.58 117.364 254.428 117.411C254.279 117.454 254.108 117.492 253.916 117.525C253.723 117.555 253.536 117.583 253.354 117.609C253.172 117.633 253.019 117.652 252.896 117.669C252.608 117.705 252.345 117.767 252.106 117.853C251.871 117.939 251.682 118.063 251.539 118.226C251.4 118.385 251.33 118.597 251.33 118.862C251.33 119.23 251.466 119.509 251.738 119.697C252.01 119.883 252.356 119.976 252.777 119.976ZM258.322 121V110.818H259.808V114.602H259.898C259.984 114.442 260.108 114.259 260.271 114.05C260.433 113.841 260.658 113.659 260.947 113.503C261.235 113.344 261.616 113.264 262.09 113.264C262.707 113.264 263.257 113.42 263.741 113.732C264.225 114.043 264.604 114.492 264.879 115.079C265.158 115.665 265.297 116.371 265.297 117.197C265.297 118.022 265.159 118.73 264.884 119.32C264.609 119.906 264.231 120.359 263.751 120.677C263.27 120.992 262.722 121.149 262.105 121.149C261.641 121.149 261.262 121.071 260.967 120.915C260.675 120.76 260.446 120.577 260.281 120.369C260.115 120.16 259.987 119.974 259.898 119.812H259.773V121H258.322ZM259.778 117.182C259.778 117.719 259.856 118.189 260.012 118.594C260.168 118.998 260.393 119.315 260.688 119.543C260.983 119.769 261.344 119.881 261.772 119.881C262.216 119.881 262.587 119.764 262.886 119.528C263.184 119.29 263.409 118.967 263.562 118.559C263.718 118.151 263.795 117.692 263.795 117.182C263.795 116.678 263.719 116.226 263.567 115.825C263.418 115.424 263.192 115.107 262.891 114.875C262.592 114.643 262.219 114.527 261.772 114.527C261.341 114.527 260.977 114.638 260.678 114.86C260.383 115.082 260.16 115.392 260.007 115.79C259.855 116.187 259.778 116.652 259.778 117.182ZM270.257 121.154C269.505 121.154 268.857 120.993 268.313 120.672C267.773 120.347 267.356 119.891 267.061 119.305C266.769 118.715 266.623 118.024 266.623 117.232C266.623 116.449 266.769 115.76 267.061 115.163C267.356 114.567 267.767 114.101 268.294 113.766C268.824 113.432 269.444 113.264 270.153 113.264C270.584 113.264 271.001 113.335 271.406 113.478C271.81 113.621 272.173 113.844 272.494 114.149C272.816 114.454 273.07 114.85 273.255 115.337C273.441 115.821 273.534 116.41 273.534 117.102V117.629H267.463V116.516H272.077C272.077 116.125 271.997 115.778 271.838 115.477C271.679 115.172 271.455 114.931 271.167 114.756C270.882 114.58 270.547 114.492 270.163 114.492C269.745 114.492 269.381 114.595 269.069 114.8C268.761 115.003 268.522 115.268 268.353 115.596C268.187 115.921 268.105 116.274 268.105 116.655V117.525C268.105 118.035 268.194 118.469 268.373 118.827C268.555 119.185 268.809 119.459 269.134 119.648C269.459 119.833 269.838 119.926 270.272 119.926C270.554 119.926 270.811 119.886 271.043 119.807C271.275 119.724 271.475 119.601 271.644 119.439C271.813 119.277 271.943 119.076 272.032 118.837L273.439 119.091C273.326 119.505 273.124 119.868 272.833 120.18C272.544 120.488 272.181 120.728 271.744 120.901C271.31 121.07 270.814 121.154 270.257 121.154ZM276.669 110.818V121H275.183V110.818H276.669Z" fill="white" fill-opacity="0.95"/>
<path d="M311.449 121V110.818H312.985V119.678H317.599V121H311.449ZM321.454 121.169C320.97 121.169 320.533 121.08 320.142 120.901C319.75 120.718 319.441 120.455 319.212 120.11C318.986 119.765 318.874 119.343 318.874 118.842C318.874 118.411 318.957 118.057 319.122 117.778C319.288 117.5 319.512 117.28 319.794 117.117C320.075 116.955 320.39 116.832 320.738 116.749C321.086 116.666 321.441 116.603 321.802 116.56C322.259 116.507 322.631 116.464 322.916 116.431C323.201 116.395 323.408 116.337 323.537 116.257C323.666 116.178 323.731 116.048 323.731 115.869V115.835C323.731 115.4 323.608 115.064 323.363 114.825C323.121 114.587 322.76 114.467 322.279 114.467C321.779 114.467 321.384 114.578 321.096 114.8C320.811 115.019 320.614 115.263 320.504 115.531L319.107 115.213C319.273 114.749 319.515 114.375 319.833 114.089C320.155 113.801 320.524 113.592 320.942 113.463C321.36 113.33 321.799 113.264 322.259 113.264C322.564 113.264 322.887 113.301 323.229 113.374C323.574 113.443 323.895 113.572 324.193 113.761C324.495 113.95 324.742 114.22 324.934 114.572C325.126 114.92 325.222 115.372 325.222 115.929V121H323.771V119.956H323.711C323.615 120.148 323.471 120.337 323.279 120.523C323.086 120.708 322.839 120.862 322.538 120.985C322.236 121.108 321.875 121.169 321.454 121.169ZM321.777 119.976C322.188 119.976 322.539 119.895 322.831 119.732C323.126 119.57 323.35 119.358 323.502 119.096C323.658 118.831 323.736 118.547 323.736 118.246V117.261C323.683 117.314 323.58 117.364 323.428 117.411C323.279 117.454 323.108 117.492 322.916 117.525C322.723 117.555 322.536 117.583 322.354 117.609C322.172 117.633 322.019 117.652 321.896 117.669C321.608 117.705 321.345 117.767 321.106 117.853C320.871 117.939 320.682 118.063 320.539 118.226C320.4 118.385 320.33 118.597 320.33 118.862C320.33 119.23 320.466 119.509 320.738 119.697C321.01 119.883 321.356 119.976 321.777 119.976ZM327.322 121V110.818H328.808V114.602H328.898C328.984 114.442 329.108 114.259 329.271 114.05C329.433 113.841 329.658 113.659 329.947 113.503C330.235 113.344 330.616 113.264 331.09 113.264C331.707 113.264 332.257 113.42 332.741 113.732C333.225 114.043 333.604 114.492 333.879 115.079C334.158 115.665 334.297 116.371 334.297 117.197C334.297 118.022 334.159 118.73 333.884 119.32C333.609 119.906 333.231 120.359 332.751 120.677C332.27 120.992 331.722 121.149 331.105 121.149C330.641 121.149 330.262 121.071 329.967 120.915C329.675 120.76 329.446 120.577 329.281 120.369C329.115 120.16 328.987 119.974 328.898 119.812H328.773V121H327.322ZM328.778 117.182C328.778 117.719 328.856 118.189 329.012 118.594C329.168 118.998 329.393 119.315 329.688 119.543C329.983 119.769 330.344 119.881 330.772 119.881C331.216 119.881 331.587 119.764 331.886 119.528C332.184 119.29 332.409 118.967 332.562 118.559C332.718 118.151 332.795 117.692 332.795 117.182C332.795 116.678 332.719 116.226 332.567 115.825C332.418 115.424 332.192 115.107 331.891 114.875C331.592 114.643 331.219 114.527 330.772 114.527C330.341 114.527 329.977 114.638 329.678 114.86C329.383 115.082 329.16 115.392 329.007 115.79C328.855 116.187 328.778 116.652 328.778 117.182ZM339.257 121.154C338.505 121.154 337.857 120.993 337.313 120.672C336.773 120.347 336.356 119.891 336.061 119.305C335.769 118.715 335.623 118.024 335.623 117.232C335.623 116.449 335.769 115.76 336.061 115.163C336.356 114.567 336.767 114.101 337.294 113.766C337.824 113.432 338.444 113.264 339.153 113.264C339.584 113.264 340.001 113.335 340.406 113.478C340.81 113.621 341.173 113.844 341.494 114.149C341.816 114.454 342.07 114.85 342.255 115.337C342.441 115.821 342.534 116.41 342.534 117.102V117.629H336.463V116.516H341.077C341.077 116.125 340.997 115.778 340.838 115.477C340.679 115.172 340.455 114.931 340.167 114.756C339.882 114.58 339.547 114.492 339.163 114.492C338.745 114.492 338.381 114.595 338.069 114.8C337.761 115.003 337.522 115.268 337.353 115.596C337.187 115.921 337.105 116.274 337.105 116.655V117.525C337.105 118.035 337.194 118.469 337.373 118.827C337.555 119.185 337.809 119.459 338.134 119.648C338.459 119.833 338.838 119.926 339.272 119.926C339.554 119.926 339.811 119.886 340.043 119.807C340.275 119.724 340.475 119.601 340.644 119.439C340.813 119.277 340.943 119.076 341.032 118.837L342.439 119.091C342.326 119.505 342.124 119.868 341.833 120.18C341.544 120.488 341.181 120.728 340.744 120.901C340.31 121.07 339.814 121.154 339.257 121.154ZM345.669 110.818V121H344.183V110.818H345.669Z" fill="white" fill-opacity="0.7"/>
<path d="M380.449 121V110.818H381.985V119.678H386.599V121H380.449ZM390.454 121.169C389.97 121.169 389.533 121.08 389.142 120.901C388.75 120.718 388.441 120.455 388.212 120.11C387.986 119.765 387.874 119.343 387.874 118.842C387.874 118.411 387.957 118.057 388.122 117.778C388.288 117.5 388.512 117.28 388.794 117.117C389.075 116.955 389.39 116.832 389.738 116.749C390.086 116.666 390.441 116.603 390.802 116.56C391.259 116.507 391.631 116.464 391.916 116.431C392.201 116.395 392.408 116.337 392.537 116.257C392.666 116.178 392.731 116.048 392.731 115.869V115.835C392.731 115.4 392.608 115.064 392.363 114.825C392.121 114.587 391.76 114.467 391.279 114.467C390.779 114.467 390.384 114.578 390.096 114.8C389.811 115.019 389.614 115.263 389.504 115.531L388.107 115.213C388.273 114.749 388.515 114.375 388.833 114.089C389.155 113.801 389.524 113.592 389.942 113.463C390.36 113.33 390.799 113.264 391.259 113.264C391.564 113.264 391.887 113.301 392.229 113.374C392.574 113.443 392.895 113.572 393.193 113.761C393.495 113.95 393.742 114.22 393.934 114.572C394.126 114.92 394.222 115.372 394.222 115.929V121H392.771V119.956H392.711C392.615 120.148 392.471 120.337 392.279 120.523C392.086 120.708 391.839 120.862 391.538 120.985C391.236 121.108 390.875 121.169 390.454 121.169ZM390.777 119.976C391.188 119.976 391.539 119.895 391.831 119.732C392.126 119.57 392.35 119.358 392.502 119.096C392.658 118.831 392.736 118.547 392.736 118.246V117.261C392.683 117.314 392.58 117.364 392.428 117.411C392.279 117.454 392.108 117.492 391.916 117.525C391.723 117.555 391.536 117.583 391.354 117.609C391.172 117.633 391.019 117.652 390.896 117.669C390.608 117.705 390.345 117.767 390.106 117.853C389.871 117.939 389.682 118.063 389.539 118.226C389.4 118.385 389.33 118.597 389.33 118.862C389.33 119.23 389.466 119.509 389.738 119.697C390.01 119.883 390.356 119.976 390.777 119.976ZM396.322 121V110.818H397.808V114.602H397.898C397.984 114.442 398.108 114.259 398.271 114.05C398.433 113.841 398.658 113.659 398.947 113.503C399.235 113.344 399.616 113.264 400.09 113.264C400.707 113.264 401.257 113.42 401.741 113.732C402.225 114.043 402.604 114.492 402.879 115.079C403.158 115.665 403.297 116.371 403.297 117.197C403.297 118.022 403.159 118.73 402.884 119.32C402.609 119.906 402.231 120.359 401.751 120.677C401.27 120.992 400.722 121.149 400.105 121.149C399.641 121.149 399.262 121.071 398.967 120.915C398.675 120.76 398.446 120.577 398.281 120.369C398.115 120.16 397.987 119.974 397.898 119.812H397.773V121H396.322ZM397.778 117.182C397.778 117.719 397.856 118.189 398.012 118.594C398.168 118.998 398.393 119.315 398.688 119.543C398.983 119.769 399.344 119.881 399.772 119.881C400.216 119.881 400.587 119.764 400.886 119.528C401.184 119.29 401.409 118.967 401.562 118.559C401.718 118.151 401.795 117.692 401.795 117.182C401.795 116.678 401.719 116.226 401.567 115.825C401.418 115.424 401.192 115.107 400.891 114.875C400.592 114.643 400.219 114.527 399.772 114.527C399.341 114.527 398.977 114.638 398.678 114.86C398.383 115.082 398.16 115.392 398.007 115.79C397.855 116.187 397.778 116.652 397.778 117.182ZM408.257 121.154C407.505 121.154 406.857 120.993 406.313 120.672C405.773 120.347 405.356 119.891 405.061 119.305C404.769 118.715 404.623 118.024 404.623 117.232C404.623 116.449 404.769 115.76 405.061 115.163C405.356 114.567 405.767 114.101 406.294 113.766C406.824 113.432 407.444 113.264 408.153 113.264C408.584 113.264 409.001 113.335 409.406 113.478C409.81 113.621 410.173 113.844 410.494 114.149C410.816 114.454 411.07 114.85 411.255 115.337C411.441 115.821 411.534 116.41 411.534 117.102V117.629H405.463V116.516H410.077C410.077 116.125 409.997 115.778 409.838 115.477C409.679 115.172 409.455 114.931 409.167 114.756C408.882 114.58 408.547 114.492 408.163 114.492C407.745 114.492 407.381 114.595 407.069 114.8C406.761 115.003 406.522 115.268 406.353 115.596C406.187 115.921 406.105 116.274 406.105 116.655V117.525C406.105 118.035 406.194 118.469 406.373 118.827C406.555 119.185 406.809 119.459 407.134 119.648C407.459 119.833 407.838 119.926 408.272 119.926C408.554 119.926 408.811 119.886 409.043 119.807C409.275 119.724 409.475 119.601 409.644 119.439C409.813 119.277 409.943 119.076 410.032 118.837L411.439 119.091C411.326 119.505 411.124 119.868 410.833 120.18C410.544 120.488 410.181 120.728 409.744 120.901C409.31 121.07 408.814 121.154 408.257 121.154ZM414.669 110.818V121H413.183V110.818H414.669Z" fill="white" fill-opacity="0.7"/>
<path d="M449.449 121V110.818H450.985V119.678H455.599V121H449.449ZM459.454 121.169C458.97 121.169 458.533 121.08 458.142 120.901C457.75 120.718 457.441 120.455 457.212 120.11C456.986 119.765 456.874 119.343 456.874 118.842C456.874 118.411 456.957 118.057 457.122 117.778C457.288 117.5 457.512 117.28 457.794 117.117C458.075 116.955 458.39 116.832 458.738 116.749C459.086 116.666 459.441 116.603 459.802 116.56C460.259 116.507 460.631 116.464 460.916 116.431C461.201 116.395 461.408 116.337 461.537 116.257C461.666 116.178 461.731 116.048 461.731 115.869V115.835C461.731 115.4 461.608 115.064 461.363 114.825C461.121 114.587 460.76 114.467 460.279 114.467C459.779 114.467 459.384 114.578 459.096 114.8C458.811 115.019 458.614 115.263 458.504 115.531L457.107 115.213C457.273 114.749 457.515 114.375 457.833 114.089C458.155 113.801 458.524 113.592 458.942 113.463C459.36 113.33 459.799 113.264 460.259 113.264C460.564 113.264 460.887 113.301 461.229 113.374C461.574 113.443 461.895 113.572 462.193 113.761C462.495 113.95 462.742 114.22 462.934 114.572C463.126 114.92 463.222 115.372 463.222 115.929V121H461.771V119.956H461.711C461.615 120.148 461.471 120.337 461.279 120.523C461.086 120.708 460.839 120.862 460.538 120.985C460.236 121.108 459.875 121.169 459.454 121.169ZM459.777 119.976C460.188 119.976 460.539 119.895 460.831 119.732C461.126 119.57 461.35 119.358 461.502 119.096C461.658 118.831 461.736 118.547 461.736 118.246V117.261C461.683 117.314 461.58 117.364 461.428 117.411C461.279 117.454 461.108 117.492 460.916 117.525C460.723 117.555 460.536 117.583 460.354 117.609C460.172 117.633 460.019 117.652 459.896 117.669C459.608 117.705 459.345 117.767 459.106 117.853C458.871 117.939 458.682 118.063 458.539 118.226C458.4 118.385 458.33 118.597 458.33 118.862C458.33 119.23 458.466 119.509 458.738 119.697C459.01 119.883 459.356 119.976 459.777 119.976ZM465.322 121V110.818H466.808V114.602H466.898C466.984 114.442 467.108 114.259 467.271 114.05C467.433 113.841 467.658 113.659 467.947 113.503C468.235 113.344 468.616 113.264 469.09 113.264C469.707 113.264 470.257 113.42 470.741 113.732C471.225 114.043 471.604 114.492 471.879 115.079C472.158 115.665 472.297 116.371 472.297 117.197C472.297 118.022 472.159 118.73 471.884 119.32C471.609 119.906 471.231 120.359 470.751 120.677C470.27 120.992 469.722 121.149 469.105 121.149C468.641 121.149 468.262 121.071 467.967 120.915C467.675 120.76 467.446 120.577 467.281 120.369C467.115 120.16 466.987 119.974 466.898 119.812H466.773V121H465.322ZM466.778 117.182C466.778 117.719 466.856 118.189 467.012 118.594C467.168 118.998 467.393 119.315 467.688 119.543C467.983 119.769 468.344 119.881 468.772 119.881C469.216 119.881 469.587 119.764 469.886 119.528C470.184 119.29 470.409 118.967 470.562 118.559C470.718 118.151 470.795 117.692 470.795 117.182C470.795 116.678 470.719 116.226 470.567 115.825C470.418 115.424 470.192 115.107 469.891 114.875C469.592 114.643 469.219 114.527 468.772 114.527C468.341 114.527 467.977 114.638 467.678 114.86C467.383 115.082 467.16 115.392 467.007 115.79C466.855 116.187 466.778 116.652 466.778 117.182ZM477.257 121.154C476.505 121.154 475.857 120.993 475.313 120.672C474.773 120.347 474.356 119.891 474.061 119.305C473.769 118.715 473.623 118.024 473.623 117.232C473.623 116.449 473.769 115.76 474.061 115.163C474.356 114.567 474.767 114.101 475.294 113.766C475.824 113.432 476.444 113.264 477.153 113.264C477.584 113.264 478.001 113.335 478.406 113.478C478.81 113.621 479.173 113.844 479.494 114.149C479.816 114.454 480.07 114.85 480.255 115.337C480.441 115.821 480.534 116.41 480.534 117.102V117.629H474.463V116.516H479.077C479.077 116.125 478.997 115.778 478.838 115.477C478.679 115.172 478.455 114.931 478.167 114.756C477.882 114.58 477.547 114.492 477.163 114.492C476.745 114.492 476.381 114.595 476.069 114.8C475.761 115.003 475.522 115.268 475.353 115.596C475.187 115.921 475.105 116.274 475.105 116.655V117.525C475.105 118.035 475.194 118.469 475.373 118.827C475.555 119.185 475.809 119.459 476.134 119.648C476.459 119.833 476.838 119.926 477.272 119.926C477.554 119.926 477.811 119.886 478.043 119.807C478.275 119.724 478.475 119.601 478.644 119.439C478.813 119.277 478.943 119.076 479.032 118.837L480.439 119.091C480.326 119.505 480.124 119.868 479.833 120.18C479.544 120.488 479.181 120.728 478.744 120.901C478.31 121.07 477.814 121.154 477.257 121.154ZM483.669 110.818V121H482.183V110.818H483.669Z" fill="white" fill-opacity="0.7"/>
<path d="M518.449 121V110.818H519.985V119.678H524.599V121H518.449ZM528.454 121.169C527.97 121.169 527.533 121.08 527.142 120.901C526.75 120.718 526.441 120.455 526.212 120.11C525.986 119.765 525.874 119.343 525.874 118.842C525.874 118.411 525.957 118.057 526.122 117.778C526.288 117.5 526.512 117.28 526.794 117.117C527.075 116.955 527.39 116.832 527.738 116.749C528.086 116.666 528.441 116.603 528.802 116.56C529.259 116.507 529.631 116.464 529.916 116.431C530.201 116.395 530.408 116.337 530.537 116.257C530.666 116.178 530.731 116.048 530.731 115.869V115.835C530.731 115.4 530.608 115.064 530.363 114.825C530.121 114.587 529.76 114.467 529.279 114.467C528.779 114.467 528.384 114.578 528.096 114.8C527.811 115.019 527.614 115.263 527.504 115.531L526.107 115.213C526.273 114.749 526.515 114.375 526.833 114.089C527.155 113.801 527.524 113.592 527.942 113.463C528.36 113.33 528.799 113.264 529.259 113.264C529.564 113.264 529.887 113.301 530.229 113.374C530.574 113.443 530.895 113.572 531.193 113.761C531.495 113.95 531.742 114.22 531.934 114.572C532.126 114.92 532.222 115.372 532.222 115.929V121H530.771V119.956H530.711C530.615 120.148 530.471 120.337 530.279 120.523C530.086 120.708 529.839 120.862 529.538 120.985C529.236 121.108 528.875 121.169 528.454 121.169ZM528.777 119.976C529.188 119.976 529.539 119.895 529.831 119.732C530.126 119.57 530.35 119.358 530.502 119.096C530.658 118.831 530.736 118.547 530.736 118.246V117.261C530.683 117.314 530.58 117.364 530.428 117.411C530.279 117.454 530.108 117.492 529.916 117.525C529.723 117.555 529.536 117.583 529.354 117.609C529.172 117.633 529.019 117.652 528.896 117.669C528.608 117.705 528.345 117.767 528.106 117.853C527.871 117.939 527.682 118.063 527.539 118.226C527.4 118.385 527.33 118.597 527.33 118.862C527.33 119.23 527.466 119.509 527.738 119.697C528.01 119.883 528.356 119.976 528.777 119.976ZM534.322 121V110.818H535.808V114.602H535.898C535.984 114.442 536.108 114.259 536.271 114.05C536.433 113.841 536.658 113.659 536.947 113.503C537.235 113.344 537.616 113.264 538.09 113.264C538.707 113.264 539.257 113.42 539.741 113.732C540.225 114.043 540.604 114.492 540.879 115.079C541.158 115.665 541.297 116.371 541.297 117.197C541.297 118.022 541.159 118.73 540.884 119.32C540.609 119.906 540.231 120.359 539.751 120.677C539.27 120.992 538.722 121.149 538.105 121.149C537.641 121.149 537.262 121.071 536.967 120.915C536.675 120.76 536.446 120.577 536.281 120.369C536.115 120.16 535.987 119.974 535.898 119.812H535.773V121H534.322ZM535.778 117.182C535.778 117.719 535.856 118.189 536.012 118.594C536.168 118.998 536.393 119.315 536.688 119.543C536.983 119.769 537.344 119.881 537.772 119.881C538.216 119.881 538.587 119.764 538.886 119.528C539.184 119.29 539.409 118.967 539.562 118.559C539.718 118.151 539.795 117.692 539.795 117.182C539.795 116.678 539.719 116.226 539.567 115.825C539.418 115.424 539.192 115.107 538.891 114.875C538.592 114.643 538.219 114.527 537.772 114.527C537.341 114.527 536.977 114.638 536.678 114.86C536.383 115.082 536.16 115.392 536.007 115.79C535.855 116.187 535.778 116.652 535.778 117.182ZM546.257 121.154C545.505 121.154 544.857 120.993 544.313 120.672C543.773 120.347 543.356 119.891 543.061 119.305C542.769 118.715 542.623 118.024 542.623 117.232C542.623 116.449 542.769 115.76 543.061 115.163C543.356 114.567 543.767 114.101 544.294 113.766C544.824 113.432 545.444 113.264 546.153 113.264C546.584 113.264 547.001 113.335 547.406 113.478C547.81 113.621 548.173 113.844 548.494 114.149C548.816 114.454 549.07 114.85 549.255 115.337C549.441 115.821 549.534 116.41 549.534 117.102V117.629H543.463V116.516H548.077C548.077 116.125 547.997 115.778 547.838 115.477C547.679 115.172 547.455 114.931 547.167 114.756C546.882 114.58 546.547 114.492 546.163 114.492C545.745 114.492 545.381 114.595 545.069 114.8C544.761 115.003 544.522 115.268 544.353 115.596C544.187 115.921 544.105 116.274 544.105 116.655V117.525C544.105 118.035 544.194 118.469 544.373 118.827C544.555 119.185 544.809 119.459 545.134 119.648C545.459 119.833 545.838 119.926 546.272 119.926C546.554 119.926 546.811 119.886 547.043 119.807C547.275 119.724 547.475 119.601 547.644 119.439C547.813 119.277 547.943 119.076 548.032 118.837L549.439 119.091C549.326 119.505 549.124 119.868 548.833 120.18C548.544 120.488 548.181 120.728 547.744 120.901C547.31 121.07 546.814 121.154 546.257 121.154ZM552.669 110.818V121H551.183V110.818H552.669Z" fill="white" fill-opacity="0.7"/>
<path d="M587.449 121V110.818H588.985V119.678H593.599V121H587.449ZM597.454 121.169C596.97 121.169 596.533 121.08 596.142 120.901C595.75 120.718 595.441 120.455 595.212 120.11C594.986 119.765 594.874 119.343 594.874 118.842C594.874 118.411 594.957 118.057 595.122 117.778C595.288 117.5 595.512 117.28 595.794 117.117C596.075 116.955 596.39 116.832 596.738 116.749C597.086 116.666 597.441 116.603 597.802 116.56C598.259 116.507 598.631 116.464 598.916 116.431C599.201 116.395 599.408 116.337 599.537 116.257C599.666 116.178 599.731 116.048 599.731 115.869V115.835C599.731 115.4 599.608 115.064 599.363 114.825C599.121 114.587 598.76 114.467 598.279 114.467C597.779 114.467 597.384 114.578 597.096 114.8C596.811 115.019 596.614 115.263 596.504 115.531L595.107 115.213C595.273 114.749 595.515 114.375 595.833 114.089C596.155 113.801 596.524 113.592 596.942 113.463C597.36 113.33 597.799 113.264 598.259 113.264C598.564 113.264 598.887 113.301 599.229 113.374C599.574 113.443 599.895 113.572 600.193 113.761C600.495 113.95 600.742 114.22 600.934 114.572C601.126 114.92 601.222 115.372 601.222 115.929V121H599.771V119.956H599.711C599.615 120.148 599.471 120.337 599.279 120.523C599.086 120.708 598.839 120.862 598.538 120.985C598.236 121.108 597.875 121.169 597.454 121.169ZM597.777 119.976C598.188 119.976 598.539 119.895 598.831 119.732C599.126 119.57 599.35 119.358 599.502 119.096C599.658 118.831 599.736 118.547 599.736 118.246V117.261C599.683 117.314 599.58 117.364 599.428 117.411C599.279 117.454 599.108 117.492 598.916 117.525C598.723 117.555 598.536 117.583 598.354 117.609C598.172 117.633 598.019 117.652 597.896 117.669C597.608 117.705 597.345 117.767 597.106 117.853C596.871 117.939 596.682 118.063 596.539 118.226C596.4 118.385 596.33 118.597 596.33 118.862C596.33 119.23 596.466 119.509 596.738 119.697C597.01 119.883 597.356 119.976 597.777 119.976ZM603.322 121V110.818H604.808V114.602H604.898C604.984 114.442 605.108 114.259 605.271 114.05C605.433 113.841 605.658 113.659 605.947 113.503C606.235 113.344 606.616 113.264 607.09 113.264C607.707 113.264 608.257 113.42 608.741 113.732C609.225 114.043 609.604 114.492 609.879 115.079C610.158 115.665 610.297 116.371 610.297 117.197C610.297 118.022 610.159 118.73 609.884 119.32C609.609 119.906 609.231 120.359 608.751 120.677C608.27 120.992 607.722 121.149 607.105 121.149C606.641 121.149 606.262 121.071 605.967 120.915C605.675 120.76 605.446 120.577 605.281 120.369C605.115 120.16 604.987 119.974 604.898 119.812H604.773V121H603.322ZM604.778 117.182C604.778 117.719 604.856 118.189 605.012 118.594C605.168 118.998 605.393 119.315 605.688 119.543C605.983 119.769 606.344 119.881 606.772 119.881C607.216 119.881 607.587 119.764 607.886 119.528C608.184 119.29 608.409 118.967 608.562 118.559C608.718 118.151 608.795 117.692 608.795 117.182C608.795 116.678 608.719 116.226 608.567 115.825C608.418 115.424 608.192 115.107 607.891 114.875C607.592 114.643 607.219 114.527 606.772 114.527C606.341 114.527 605.977 114.638 605.678 114.86C605.383 115.082 605.16 115.392 605.007 115.79C604.855 116.187 604.778 116.652 604.778 117.182ZM615.257 121.154C614.505 121.154 613.857 120.993 613.313 120.672C612.773 120.347 612.356 119.891 612.061 119.305C611.769 118.715 611.623 118.024 611.623 117.232C611.623 116.449 611.769 115.76 612.061 115.163C612.356 114.567 612.767 114.101 613.294 113.766C613.824 113.432 614.444 113.264 615.153 113.264C615.584 113.264 616.001 113.335 616.406 113.478C616.81 113.621 617.173 113.844 617.494 114.149C617.816 114.454 618.07 114.85 618.255 115.337C618.441 115.821 618.534 116.41 618.534 117.102V117.629H612.463V116.516H617.077C617.077 116.125 616.997 115.778 616.838 115.477C616.679 115.172 616.455 114.931 616.167 114.756C615.882 114.58 615.547 114.492 615.163 114.492C614.745 114.492 614.381 114.595 614.069 114.8C613.761 115.003 613.522 115.268 613.353 115.596C613.187 115.921 613.105 116.274 613.105 116.655V117.525C613.105 118.035 613.194 118.469 613.373 118.827C613.555 119.185 613.809 119.459 614.134 119.648C614.459 119.833 614.838 119.926 615.272 119.926C615.554 119.926 615.811 119.886 616.043 119.807C616.275 119.724 616.475 119.601 616.644 119.439C616.813 119.277 616.943 119.076 617.032 118.837L618.439 119.091C618.326 119.505 618.124 119.868 617.833 120.18C617.544 120.488 617.181 120.728 616.744 120.901C616.31 121.07 615.814 121.154 615.257 121.154ZM621.669 110.818V121H620.183V110.818H621.669Z" fill="white" fill-opacity="0.7"/>
<path d="M656.449 121V110.818H657.985V119.678H662.599V121H656.449ZM666.454 121.169C665.97 121.169 665.533 121.08 665.142 120.901C664.75 120.718 664.441 120.455 664.212 120.11C663.986 119.765 663.874 119.343 663.874 118.842C663.874 118.411 663.957 118.057 664.122 117.778C664.288 117.5 664.512 117.28 664.794 117.117C665.075 116.955 665.39 116.832 665.738 116.749C666.086 116.666 666.441 116.603 666.802 116.56C667.259 116.507 667.631 116.464 667.916 116.431C668.201 116.395 668.408 116.337 668.537 116.257C668.666 116.178 668.731 116.048 668.731 115.869V115.835C668.731 115.4 668.608 115.064 668.363 114.825C668.121 114.587 667.76 114.467 667.279 114.467C666.779 114.467 666.384 114.578 666.096 114.8C665.811 115.019 665.614 115.263 665.504 115.531L664.107 115.213C664.273 114.749 664.515 114.375 664.833 114.089C665.155 113.801 665.524 113.592 665.942 113.463C666.36 113.33 666.799 113.264 667.259 113.264C667.564 113.264 667.887 113.301 668.229 113.374C668.574 113.443 668.895 113.572 669.193 113.761C669.495 113.95 669.742 114.22 669.934 114.572C670.126 114.92 670.222 115.372 670.222 115.929V121H668.771V119.956H668.711C668.615 120.148 668.471 120.337 668.279 120.523C668.086 120.708 667.839 120.862 667.538 120.985C667.236 121.108 666.875 121.169 666.454 121.169ZM666.777 119.976C667.188 119.976 667.539 119.895 667.831 119.732C668.126 119.57 668.35 119.358 668.502 119.096C668.658 118.831 668.736 118.547 668.736 118.246V117.261C668.683 117.314 668.58 117.364 668.428 117.411C668.279 117.454 668.108 117.492 667.916 117.525C667.723 117.555 667.536 117.583 667.354 117.609C667.172 117.633 667.019 117.652 666.896 117.669C666.608 117.705 666.345 117.767 666.106 117.853C665.871 117.939 665.682 118.063 665.539 118.226C665.4 118.385 665.33 118.597 665.33 118.862C665.33 119.23 665.466 119.509 665.738 119.697C666.01 119.883 666.356 119.976 666.777 119.976ZM672.322 121V110.818H673.808V114.602H673.898C673.984 114.442 674.108 114.259 674.271 114.05C674.433 113.841 674.658 113.659 674.947 113.503C675.235 113.344 675.616 113.264 676.09 113.264C676.707 113.264 677.257 113.42 677.741 113.732C678.225 114.043 678.604 114.492 678.879 115.079C679.158 115.665 679.297 116.371 679.297 117.197C679.297 118.022 679.159 118.73 678.884 119.32C678.609 119.906 678.231 120.359 677.751 120.677C677.27 120.992 676.722 121.149 676.105 121.149C675.641 121.149 675.262 121.071 674.967 120.915C674.675 120.76 674.446 120.577 674.281 120.369C674.115 120.16 673.987 119.974 673.898 119.812H673.773V121H672.322ZM673.778 117.182C673.778 117.719 673.856 118.189 674.012 118.594C674.168 118.998 674.393 119.315 674.688 119.543C674.983 119.769 675.344 119.881 675.772 119.881C676.216 119.881 676.587 119.764 676.886 119.528C677.184 119.29 677.409 118.967 677.562 118.559C677.718 118.151 677.795 117.692 677.795 117.182C677.795 116.678 677.719 116.226 677.567 115.825C677.418 115.424 677.192 115.107 676.891 114.875C676.592 114.643 676.219 114.527 675.772 114.527C675.341 114.527 674.977 114.638 674.678 114.86C674.383 115.082 674.16 115.392 674.007 115.79C673.855 116.187 673.778 116.652 673.778 117.182ZM684.257 121.154C683.505 121.154 682.857 120.993 682.313 120.672C681.773 120.347 681.356 119.891 681.061 119.305C680.769 118.715 680.623 118.024 680.623 117.232C680.623 116.449 680.769 115.76 681.061 115.163C681.356 114.567 681.767 114.101 682.294 113.766C682.824 113.432 683.444 113.264 684.153 113.264C684.584 113.264 685.001 113.335 685.406 113.478C685.81 113.621 686.173 113.844 686.494 114.149C686.816 114.454 687.07 114.85 687.255 115.337C687.441 115.821 687.534 116.41 687.534 117.102V117.629H681.463V116.516H686.077C686.077 116.125 685.997 115.778 685.838 115.477C685.679 115.172 685.455 114.931 685.167 114.756C684.882 114.58 684.547 114.492 684.163 114.492C683.745 114.492 683.381 114.595 683.069 114.8C682.761 115.003 682.522 115.268 682.353 115.596C682.187 115.921 682.105 116.274 682.105 116.655V117.525C682.105 118.035 682.194 118.469 682.373 118.827C682.555 119.185 682.809 119.459 683.134 119.648C683.459 119.833 683.838 119.926 684.272 119.926C684.554 119.926 684.811 119.886 685.043 119.807C685.275 119.724 685.475 119.601 685.644 119.439C685.813 119.277 685.943 119.076 686.032 118.837L687.439 119.091C687.326 119.505 687.124 119.868 686.833 120.18C686.544 120.488 686.181 120.728 685.744 120.901C685.31 121.07 684.814 121.154 684.257 121.154ZM690.669 110.818V121H689.183V110.818H690.669Z" fill="white" fill-opacity="0.7"/>
<path d="M725.449 121V110.818H726.985V119.678H731.599V121H725.449ZM735.454 121.169C734.97 121.169 734.533 121.08 734.142 120.901C733.75 120.718 733.441 120.455 733.212 120.11C732.986 119.765 732.874 119.343 732.874 118.842C732.874 118.411 732.957 118.057 733.122 117.778C733.288 117.5 733.512 117.28 733.794 117.117C734.075 116.955 734.39 116.832 734.738 116.749C735.086 116.666 735.441 116.603 735.802 116.56C736.259 116.507 736.631 116.464 736.916 116.431C737.201 116.395 737.408 116.337 737.537 116.257C737.666 116.178 737.731 116.048 737.731 115.869V115.835C737.731 115.4 737.608 115.064 737.363 114.825C737.121 114.587 736.76 114.467 736.279 114.467C735.779 114.467 735.384 114.578 735.096 114.8C734.811 115.019 734.614 115.263 734.504 115.531L733.107 115.213C733.273 114.749 733.515 114.375 733.833 114.089C734.155 113.801 734.524 113.592 734.942 113.463C735.36 113.33 735.799 113.264 736.259 113.264C736.564 113.264 736.887 113.301 737.229 113.374C737.574 113.443 737.895 113.572 738.193 113.761C738.495 113.95 738.742 114.22 738.934 114.572C739.126 114.92 739.222 115.372 739.222 115.929V121H737.771V119.956H737.711C737.615 120.148 737.471 120.337 737.279 120.523C737.086 120.708 736.839 120.862 736.538 120.985C736.236 121.108 735.875 121.169 735.454 121.169ZM735.777 119.976C736.188 119.976 736.539 119.895 736.831 119.732C737.126 119.57 737.35 119.358 737.502 119.096C737.658 118.831 737.736 118.547 737.736 118.246V117.261C737.683 117.314 737.58 117.364 737.428 117.411C737.279 117.454 737.108 117.492 736.916 117.525C736.723 117.555 736.536 117.583 736.354 117.609C736.172 117.633 736.019 117.652 735.896 117.669C735.608 117.705 735.345 117.767 735.106 117.853C734.871 117.939 734.682 118.063 734.539 118.226C734.4 118.385 734.33 118.597 734.33 118.862C734.33 119.23 734.466 119.509 734.738 119.697C735.01 119.883 735.356 119.976 735.777 119.976ZM741.322 121V110.818H742.808V114.602H742.898C742.984 114.442 743.108 114.259 743.271 114.05C743.433 113.841 743.658 113.659 743.947 113.503C744.235 113.344 744.616 113.264 745.09 113.264C745.707 113.264 746.257 113.42 746.741 113.732C747.225 114.043 747.604 114.492 747.879 115.079C748.158 115.665 748.297 116.371 748.297 117.197C748.297 118.022 748.159 118.73 747.884 119.32C747.609 119.906 747.231 120.359 746.751 120.677C746.27 120.992 745.722 121.149 745.105 121.149C744.641 121.149 744.262 121.071 743.967 120.915C743.675 120.76 743.446 120.577 743.281 120.369C743.115 120.16 742.987 119.974 742.898 119.812H742.773V121H741.322ZM742.778 117.182C742.778 117.719 742.856 118.189 743.012 118.594C743.168 118.998 743.393 119.315 743.688 119.543C743.983 119.769 744.344 119.881 744.772 119.881C745.216 119.881 745.587 119.764 745.886 119.528C746.184 119.29 746.409 118.967 746.562 118.559C746.718 118.151 746.795 117.692 746.795 117.182C746.795 116.678 746.719 116.226 746.567 115.825C746.418 115.424 746.192 115.107 745.891 114.875C745.592 114.643 745.219 114.527 744.772 114.527C744.341 114.527 743.977 114.638 743.678 114.86C743.383 115.082 743.16 115.392 743.007 115.79C742.855 116.187 742.778 116.652 742.778 117.182ZM753.257 121.154C752.505 121.154 751.857 120.993 751.313 120.672C750.773 120.347 750.356 119.891 750.061 119.305C749.769 118.715 749.623 118.024 749.623 117.232C749.623 116.449 749.769 115.76 750.061 115.163C750.356 114.567 750.767 114.101 751.294 113.766C751.824 113.432 752.444 113.264 753.153 113.264C753.584 113.264 754.001 113.335 754.406 113.478C754.81 113.621 755.173 113.844 755.494 114.149C755.816 114.454 756.07 114.85 756.255 115.337C756.441 115.821 756.534 116.41 756.534 117.102V117.629H750.463V116.516H755.077C755.077 116.125 754.997 115.778 754.838 115.477C754.679 115.172 754.455 114.931 754.167 114.756C753.882 114.58 753.547 114.492 753.163 114.492C752.745 114.492 752.381 114.595 752.069 114.8C751.761 115.003 751.522 115.268 751.353 115.596C751.187 115.921 751.105 116.274 751.105 116.655V117.525C751.105 118.035 751.194 118.469 751.373 118.827C751.555 119.185 751.809 119.459 752.134 119.648C752.459 119.833 752.838 119.926 753.272 119.926C753.554 119.926 753.811 119.886 754.043 119.807C754.275 119.724 754.475 119.601 754.644 119.439C754.813 119.277 754.943 119.076 755.032 118.837L756.439 119.091C756.326 119.505 756.124 119.868 755.833 120.18C755.544 120.488 755.181 120.728 754.744 120.901C754.31 121.07 753.814 121.154 753.257 121.154ZM759.669 110.818V121H758.183V110.818H759.669Z" fill="white" fill-opacity="0.7"/>
<path d="M794.449 121V110.818H795.985V119.678H800.599V121H794.449ZM804.454 121.169C803.97 121.169 803.533 121.08 803.142 120.901C802.75 120.718 802.441 120.455 802.212 120.11C801.986 119.765 801.874 119.343 801.874 118.842C801.874 118.411 801.957 118.057 802.122 117.778C802.288 117.5 802.512 117.28 802.794 117.117C803.075 116.955 803.39 116.832 803.738 116.749C804.086 116.666 804.441 116.603 804.802 116.56C805.259 116.507 805.631 116.464 805.916 116.431C806.201 116.395 806.408 116.337 806.537 116.257C806.666 116.178 806.731 116.048 806.731 115.869V115.835C806.731 115.4 806.608 115.064 806.363 114.825C806.121 114.587 805.76 114.467 805.279 114.467C804.779 114.467 804.384 114.578 804.096 114.8C803.811 115.019 803.614 115.263 803.504 115.531L802.107 115.213C802.273 114.749 802.515 114.375 802.833 114.089C803.155 113.801 803.524 113.592 803.942 113.463C804.36 113.33 804.799 113.264 805.259 113.264C805.564 113.264 805.887 113.301 806.229 113.374C806.574 113.443 806.895 113.572 807.193 113.761C807.495 113.95 807.742 114.22 807.934 114.572C808.126 114.92 808.222 115.372 808.222 115.929V121H806.771V119.956H806.711C806.615 120.148 806.471 120.337 806.279 120.523C806.086 120.708 805.839 120.862 805.538 120.985C805.236 121.108 804.875 121.169 804.454 121.169ZM804.777 119.976C805.188 119.976 805.539 119.895 805.831 119.732C806.126 119.57 806.35 119.358 806.502 119.096C806.658 118.831 806.736 118.547 806.736 118.246V117.261C806.683 117.314 806.58 117.364 806.428 117.411C806.279 117.454 806.108 117.492 805.916 117.525C805.723 117.555 805.536 117.583 805.354 117.609C805.172 117.633 805.019 117.652 804.896 117.669C804.608 117.705 804.345 117.767 804.106 117.853C803.871 117.939 803.682 118.063 803.539 118.226C803.4 118.385 803.33 118.597 803.33 118.862C803.33 119.23 803.466 119.509 803.738 119.697C804.01 119.883 804.356 119.976 804.777 119.976ZM810.322 121V110.818H811.808V114.602H811.898C811.984 114.442 812.108 114.259 812.271 114.05C812.433 113.841 812.658 113.659 812.947 113.503C813.235 113.344 813.616 113.264 814.09 113.264C814.707 113.264 815.257 113.42 815.741 113.732C816.225 114.043 816.604 114.492 816.879 115.079C817.158 115.665 817.297 116.371 817.297 117.197C817.297 118.022 817.159 118.73 816.884 119.32C816.609 119.906 816.231 120.359 815.751 120.677C815.27 120.992 814.722 121.149 814.105 121.149C813.641 121.149 813.262 121.071 812.967 120.915C812.675 120.76 812.446 120.577 812.281 120.369C812.115 120.16 811.987 119.974 811.898 119.812H811.773V121H810.322ZM811.778 117.182C811.778 117.719 811.856 118.189 812.012 118.594C812.168 118.998 812.393 119.315 812.688 119.543C812.983 119.769 813.344 119.881 813.772 119.881C814.216 119.881 814.587 119.764 814.886 119.528C815.184 119.29 815.409 118.967 815.562 118.559C815.718 118.151 815.795 117.692 815.795 117.182C815.795 116.678 815.719 116.226 815.567 115.825C815.418 115.424 815.192 115.107 814.891 114.875C814.592 114.643 814.219 114.527 813.772 114.527C813.341 114.527 812.977 114.638 812.678 114.86C812.383 115.082 812.16 115.392 812.007 115.79C811.855 116.187 811.778 116.652 811.778 117.182ZM822.257 121.154C821.505 121.154 820.857 120.993 820.313 120.672C819.773 120.347 819.356 119.891 819.061 119.305C818.769 118.715 818.623 118.024 818.623 117.232C818.623 116.449 818.769 115.76 819.061 115.163C819.356 114.567 819.767 114.101 820.294 113.766C820.824 113.432 821.444 113.264 822.153 113.264C822.584 113.264 823.001 113.335 823.406 113.478C823.81 113.621 824.173 113.844 824.494 114.149C824.816 114.454 825.07 114.85 825.255 115.337C825.441 115.821 825.534 116.41 825.534 117.102V117.629H819.463V116.516H824.077C824.077 116.125 823.997 115.778 823.838 115.477C823.679 115.172 823.455 114.931 823.167 114.756C822.882 114.58 822.547 114.492 822.163 114.492C821.745 114.492 821.381 114.595 821.069 114.8C820.761 115.003 820.522 115.268 820.353 115.596C820.187 115.921 820.105 116.274 820.105 116.655V117.525C820.105 118.035 820.194 118.469 820.373 118.827C820.555 119.185 820.809 119.459 821.134 119.648C821.459 119.833 821.838 119.926 822.272 119.926C822.554 119.926 822.811 119.886 823.043 119.807C823.275 119.724 823.475 119.601 823.644 119.439C823.813 119.277 823.943 119.076 824.032 118.837L825.439 119.091C825.326 119.505 825.124 119.868 824.833 120.18C824.544 120.488 824.181 120.728 823.744 120.901C823.31 121.07 822.814 121.154 822.257 121.154ZM828.669 110.818V121H827.183V110.818H828.669Z" fill="white" fill-opacity="0.7"/>
<path d="M863.449 121V110.818H864.985V119.678H869.599V121H863.449ZM873.454 121.169C872.97 121.169 872.533 121.08 872.142 120.901C871.75 120.718 871.441 120.455 871.212 120.11C870.986 119.765 870.874 119.343 870.874 118.842C870.874 118.411 870.957 118.057 871.122 117.778C871.288 117.5 871.512 117.28 871.794 117.117C872.075 116.955 872.39 116.832 872.738 116.749C873.086 116.666 873.441 116.603 873.802 116.56C874.259 116.507 874.631 116.464 874.916 116.431C875.201 116.395 875.408 116.337 875.537 116.257C875.666 116.178 875.731 116.048 875.731 115.869V115.835C875.731 115.4 875.608 115.064 875.363 114.825C875.121 114.587 874.76 114.467 874.279 114.467C873.779 114.467 873.384 114.578 873.096 114.8C872.811 115.019 872.614 115.263 872.504 115.531L871.107 115.213C871.273 114.749 871.515 114.375 871.833 114.089C872.155 113.801 872.524 113.592 872.942 113.463C873.36 113.33 873.799 113.264 874.259 113.264C874.564 113.264 874.887 113.301 875.229 113.374C875.574 113.443 875.895 113.572 876.193 113.761C876.495 113.95 876.742 114.22 876.934 114.572C877.126 114.92 877.222 115.372 877.222 115.929V121H875.771V119.956H875.711C875.615 120.148 875.471 120.337 875.279 120.523C875.086 120.708 874.839 120.862 874.538 120.985C874.236 121.108 873.875 121.169 873.454 121.169ZM873.777 119.976C874.188 119.976 874.539 119.895 874.831 119.732C875.126 119.57 875.35 119.358 875.502 119.096C875.658 118.831 875.736 118.547 875.736 118.246V117.261C875.683 117.314 875.58 117.364 875.428 117.411C875.279 117.454 875.108 117.492 874.916 117.525C874.723 117.555 874.536 117.583 874.354 117.609C874.172 117.633 874.019 117.652 873.896 117.669C873.608 117.705 873.345 117.767 873.106 117.853C872.871 117.939 872.682 118.063 872.539 118.226C872.4 118.385 872.33 118.597 872.33 118.862C872.33 119.23 872.466 119.509 872.738 119.697C873.01 119.883 873.356 119.976 873.777 119.976ZM879.322 121V110.818H880.808V114.602H880.898C880.984 114.442 881.108 114.259 881.271 114.05C881.433 113.841 881.658 113.659 881.947 113.503C882.235 113.344 882.616 113.264 883.09 113.264C883.707 113.264 884.257 113.42 884.741 113.732C885.225 114.043 885.604 114.492 885.879 115.079C886.158 115.665 886.297 116.371 886.297 117.197C886.297 118.022 886.159 118.73 885.884 119.32C885.609 119.906 885.231 120.359 884.751 120.677C884.27 120.992 883.722 121.149 883.105 121.149C882.641 121.149 882.262 121.071 881.967 120.915C881.675 120.76 881.446 120.577 881.281 120.369C881.115 120.16 880.987 119.974 880.898 119.812H880.773V121H879.322ZM880.778 117.182C880.778 117.719 880.856 118.189 881.012 118.594C881.168 118.998 881.393 119.315 881.688 119.543C881.983 119.769 882.344 119.881 882.772 119.881C883.216 119.881 883.587 119.764 883.886 119.528C884.184 119.29 884.409 118.967 884.562 118.559C884.718 118.151 884.795 117.692 884.795 117.182C884.795 116.678 884.719 116.226 884.567 115.825C884.418 115.424 884.192 115.107 883.891 114.875C883.592 114.643 883.219 114.527 882.772 114.527C882.341 114.527 881.977 114.638 881.678 114.86C881.383 115.082 881.16 115.392 881.007 115.79C880.855 116.187 880.778 116.652 880.778 117.182ZM891.257 121.154C890.505 121.154 889.857 120.993 889.313 120.672C888.773 120.347 888.356 119.891 888.061 119.305C887.769 118.715 887.623 118.024 887.623 117.232C887.623 116.449 887.769 115.76 888.061 115.163C888.356 114.567 888.767 114.101 889.294 113.766C889.824 113.432 890.444 113.264 891.153 113.264C891.584 113.264 892.001 113.335 892.406 113.478C892.81 113.621 893.173 113.844 893.494 114.149C893.816 114.454 894.07 114.85 894.255 115.337C894.441 115.821 894.534 116.41 894.534 117.102V117.629H888.463V116.516H893.077C893.077 116.125 892.997 115.778 892.838 115.477C892.679 115.172 892.455 114.931 892.167 114.756C891.882 114.58 891.547 114.492 891.163 114.492C890.745 114.492 890.381 114.595 890.069 114.8C889.761 115.003 889.522 115.268 889.353 115.596C889.187 115.921 889.105 116.274 889.105 116.655V117.525C889.105 118.035 889.194 118.469 889.373 118.827C889.555 119.185 889.809 119.459 890.134 119.648C890.459 119.833 890.838 119.926 891.272 119.926C891.554 119.926 891.811 119.886 892.043 119.807C892.275 119.724 892.475 119.601 892.644 119.439C892.813 119.277 892.943 119.076 893.032 118.837L894.439 119.091C894.326 119.505 894.124 119.868 893.833 120.18C893.544 120.488 893.181 120.728 892.744 120.901C892.31 121.07 891.814 121.154 891.257 121.154ZM897.669 110.818V121H896.183V110.818H897.669Z" fill="white" fill-opacity="0.7"/>
</g>
<path d="M942.354 115.646L936.354 109.646C936.307 109.599 936.252 109.561 936.191 109.535C936.13 109.509 936.065 109.495 935.998 109.495C935.932 109.494 935.866 109.507 935.805 109.532C935.744 109.557 935.688 109.594 935.641 109.641C935.594 109.688 935.557 109.744 935.532 109.805C935.507 109.866 935.494 109.932 935.495 109.998C935.495 110.065 935.509 110.13 935.535 110.191C935.561 110.252 935.599 110.307 935.647 110.354L941.293 116L935.647 121.646C935.599 121.693 935.561 121.748 935.535 121.809C935.509 121.87 935.495 121.935 935.495 122.002C935.494 122.068 935.507 122.134 935.532 122.195C935.557 122.256 935.594 122.312 935.641 122.359C935.688 122.406 935.744 122.443 935.805 122.468C935.866 122.493 935.932 122.506 935.998 122.505C936.065 122.505 936.13 122.491 936.191 122.465C936.252 122.439 936.307 122.401 936.354 122.354L942.354 116.354C942.447 116.26 942.5 116.133 942.5 116C942.5 115.867 942.447 115.74 942.354 115.646Z" fill="white" fill-opacity="0.95"/>
</g>
<defs>
<clipPath id="clip0_2110_62852">
<rect width="760" height="32" fill="white" transform="translate(195 100)"/>
</clipPath>
<clipPath id="clip1_2110_62852">
<rect width="672" height="32" fill="white" transform="translate(239 100)"/>
</clipPath>
</defs>
</svg>
