<svg width="1356" height="62" viewBox="0 0 1356 62" fill="none" xmlns="http://www.w3.org/2000/svg">
<mask id="path-1-inside-1_2110_46641" fill="white">
<path d="M0 0H200V62H0V0Z"/>
</mask>
<path d="M0 0H200V62H0V0Z" fill="#1A1A1A"/>
<path d="M199 0V62H201V0H199Z" fill="#707070" mask="url(#path-1-inside-1_2110_46641)"/>
<mask id="path-3-inside-2_2110_46641" fill="white">
<path d="M200 0H500V62H200V0Z"/>
</mask>
<path d="M200 0H500V62H200V0Z" fill="#1A1A1A"/>
<path d="M500 62V63H501V62H500ZM499 0V62H501V0H499ZM500 61H200V63H500V61Z" fill="#707070" mask="url(#path-3-inside-2_2110_46641)"/>
<path d="M232.358 38H230.511L235.852 23.4545H237.67L243.011 38H241.165L236.818 25.7557H236.705L232.358 38ZM233.04 32.3182H240.483V33.8807H233.04V32.3182ZM249.482 38.2273C248.459 38.2273 247.578 37.9858 246.839 37.5028C246.101 37.0199 245.533 36.3546 245.135 35.5071C244.737 34.6596 244.538 33.6913 244.538 32.6023C244.538 31.4943 244.742 30.5166 245.149 29.669C245.561 28.8168 246.134 28.1515 246.868 27.6733C247.607 27.1903 248.468 26.9489 249.453 26.9489C250.22 26.9489 250.911 27.0909 251.527 27.375C252.143 27.6591 252.647 28.0568 253.04 28.5682C253.433 29.0795 253.677 29.6761 253.771 30.358H252.095C251.967 29.8608 251.683 29.4205 251.243 29.0369C250.807 28.6487 250.22 28.4545 249.482 28.4545C248.828 28.4545 248.255 28.625 247.763 28.9659C247.275 29.3021 246.894 29.7779 246.619 30.3935C246.349 31.0043 246.214 31.7216 246.214 32.5455C246.214 33.3883 246.347 34.1222 246.612 34.7472C246.882 35.3722 247.261 35.8575 247.749 36.2031C248.241 36.5488 248.819 36.7216 249.482 36.7216C249.917 36.7216 250.312 36.6458 250.668 36.4943C251.023 36.3428 251.323 36.125 251.57 35.8409C251.816 35.5568 251.991 35.2159 252.095 34.8182H253.771C253.677 35.4621 253.442 36.0421 253.068 36.5582C252.699 37.0696 252.209 37.4768 251.598 37.7798C250.992 38.0781 250.286 38.2273 249.482 38.2273ZM260.966 27.0909V28.5114H255.312V27.0909H260.966ZM256.96 24.4773H258.636V34.875C258.636 35.3485 258.705 35.7036 258.842 35.9403C258.984 36.1723 259.164 36.3286 259.382 36.4091C259.605 36.4848 259.839 36.5227 260.085 36.5227C260.27 36.5227 260.421 36.5133 260.54 36.4943C260.658 36.4706 260.753 36.4517 260.824 36.4375L261.165 37.9432C261.051 37.9858 260.893 38.0284 260.689 38.071C260.485 38.1184 260.227 38.142 259.915 38.142C259.441 38.142 258.977 38.0402 258.523 37.8366C258.073 37.633 257.699 37.3229 257.401 36.9062C257.107 36.4896 256.96 35.964 256.96 35.3295V24.4773ZM263.487 38V27.0909H265.163V38H263.487ZM264.339 25.2727C264.013 25.2727 263.731 25.1615 263.494 24.9389C263.262 24.7164 263.146 24.4489 263.146 24.1364C263.146 23.8239 263.262 23.5563 263.494 23.3338C263.731 23.1113 264.013 23 264.339 23C264.666 23 264.946 23.1113 265.178 23.3338C265.414 23.5563 265.533 23.8239 265.533 24.1364C265.533 24.4489 265.414 24.7164 265.178 24.9389C264.946 25.1615 264.666 25.2727 264.339 25.2727ZM277.154 27.0909L273.12 38H271.415L267.381 27.0909H269.199L272.211 35.7841H272.324L275.336 27.0909H277.154ZM283.549 38.2273C282.498 38.2273 281.592 37.9953 280.829 37.5312C280.072 37.0625 279.487 36.4091 279.075 35.571C278.668 34.7282 278.464 33.7481 278.464 32.6307C278.464 31.5133 278.668 30.5284 279.075 29.6761C279.487 28.8191 280.06 28.1515 280.794 27.6733C281.532 27.1903 282.394 26.9489 283.379 26.9489C283.947 26.9489 284.508 27.0436 285.062 27.233C285.616 27.4223 286.12 27.7301 286.575 28.1562C287.029 28.5777 287.392 29.1364 287.662 29.8324C287.931 30.5284 288.066 31.3854 288.066 32.4034V33.1136H279.657V31.6648H286.362C286.362 31.0492 286.239 30.5 285.993 30.017C285.751 29.5341 285.405 29.1529 284.956 28.8736C284.511 28.5942 283.985 28.4545 283.379 28.4545C282.711 28.4545 282.134 28.6203 281.646 28.9517C281.163 29.2784 280.791 29.7045 280.531 30.2301C280.27 30.7557 280.14 31.3191 280.14 31.9205V32.8864C280.14 33.7102 280.282 34.4086 280.566 34.9815C280.855 35.5497 281.255 35.983 281.767 36.2812C282.278 36.5748 282.872 36.7216 283.549 36.7216C283.99 36.7216 284.387 36.66 284.743 36.5369C285.102 36.4091 285.413 36.2197 285.673 35.9688C285.933 35.7131 286.135 35.3958 286.277 35.017L287.896 35.4716C287.725 36.0208 287.439 36.5038 287.037 36.9205C286.634 37.3324 286.137 37.6544 285.545 37.8864C284.953 38.1136 284.288 38.2273 283.549 38.2273Z" fill="white" fill-opacity="0.95"/>
<mask id="path-6-inside-3_2110_46641" fill="white">
<path d="M500 0H740V62H500V0Z"/>
</mask>
<path d="M500 0H740V62H500V0Z" fill="#1A1A1A"/>
<path d="M740 62V63H741V62H740ZM739 0V62H741V0H739ZM740 61H500V63H740V61Z" fill="#707070" mask="url(#path-6-inside-3_2110_46641)"/>
<path d="M530.966 25.017V23.4545H541.875V25.017H537.301V38H535.54V25.017H530.966ZM547.358 38.2273C546.307 38.2273 545.4 37.9953 544.638 37.5312C543.88 37.0625 543.295 36.4091 542.884 35.571C542.476 34.7282 542.273 33.7481 542.273 32.6307C542.273 31.5133 542.476 30.5284 542.884 29.6761C543.295 28.8191 543.868 28.1515 544.602 27.6733C545.341 27.1903 546.203 26.9489 547.188 26.9489C547.756 26.9489 548.317 27.0436 548.871 27.233C549.425 27.4223 549.929 27.7301 550.384 28.1562C550.838 28.5777 551.2 29.1364 551.47 29.8324C551.74 30.5284 551.875 31.3854 551.875 32.4034V33.1136H543.466V31.6648H550.17C550.17 31.0492 550.047 30.5 549.801 30.017C549.56 29.5341 549.214 29.1529 548.764 28.8736C548.319 28.5942 547.794 28.4545 547.188 28.4545C546.52 28.4545 545.942 28.6203 545.455 28.9517C544.972 29.2784 544.6 29.7045 544.339 30.2301C544.079 30.7557 543.949 31.3191 543.949 31.9205V32.8864C543.949 33.7102 544.091 34.4086 544.375 34.9815C544.664 35.5497 545.064 35.983 545.575 36.2812C546.087 36.5748 546.681 36.7216 547.358 36.7216C547.798 36.7216 548.196 36.66 548.551 36.5369C548.911 36.4091 549.221 36.2197 549.482 35.9688C549.742 35.7131 549.943 35.3958 550.085 35.017L551.705 35.4716C551.534 36.0208 551.248 36.5038 550.845 36.9205C550.443 37.3324 549.946 37.6544 549.354 37.8864C548.762 38.1136 548.097 38.2273 547.358 38.2273ZM555.382 27.0909L557.995 31.5511L560.609 27.0909H562.541L559.018 32.5455L562.541 38H560.609L557.995 33.767L555.382 38H553.45L556.916 32.5455L553.45 27.0909H555.382ZM569.677 27.0909V28.5114H564.023V27.0909H569.677ZM565.671 24.4773H567.347V34.875C567.347 35.3485 567.416 35.7036 567.553 35.9403C567.695 36.1723 567.875 36.3286 568.093 36.4091C568.316 36.4848 568.55 36.5227 568.796 36.5227C568.981 36.5227 569.132 36.5133 569.251 36.4943C569.369 36.4706 569.464 36.4517 569.535 36.4375L569.876 37.9432C569.762 37.9858 569.603 38.0284 569.4 38.071C569.196 38.1184 568.938 38.142 568.626 38.142C568.152 38.142 567.688 38.0402 567.234 37.8366C566.784 37.633 566.41 37.3229 566.112 36.9062C565.818 36.4896 565.671 35.964 565.671 35.3295V24.4773ZM577.34 22.7727L572.653 40.1875H571.119L575.806 22.7727H577.34ZM579.327 38V27.0909H581.003V38H579.327ZM580.179 25.2727C579.853 25.2727 579.571 25.1615 579.334 24.9389C579.102 24.7164 578.986 24.4489 578.986 24.1364C578.986 23.8239 579.102 23.5563 579.334 23.3338C579.571 23.1113 579.853 23 580.179 23C580.506 23 580.785 23.1113 581.017 23.3338C581.254 23.5563 581.373 23.8239 581.373 24.1364C581.373 24.4489 581.254 24.7164 581.017 24.9389C580.785 25.1615 580.506 25.2727 580.179 25.2727ZM588.505 38.2273C587.482 38.2273 586.602 37.9858 585.863 37.5028C585.124 37.0199 584.556 36.3546 584.158 35.5071C583.761 34.6596 583.562 33.6913 583.562 32.6023C583.562 31.4943 583.765 30.5166 584.173 29.669C584.585 28.8168 585.157 28.1515 585.891 27.6733C586.63 27.1903 587.492 26.9489 588.477 26.9489C589.244 26.9489 589.935 27.0909 590.55 27.375C591.166 27.6591 591.67 28.0568 592.063 28.5682C592.456 29.0795 592.7 29.6761 592.795 30.358H591.119C590.991 29.8608 590.707 29.4205 590.266 29.0369C589.831 28.6487 589.244 28.4545 588.505 28.4545C587.852 28.4545 587.279 28.625 586.786 28.9659C586.299 29.3021 585.917 29.7779 585.643 30.3935C585.373 31.0043 585.238 31.7216 585.238 32.5455C585.238 33.3883 585.371 34.1222 585.636 34.7472C585.906 35.3722 586.284 35.8575 586.772 36.2031C587.264 36.5488 587.842 36.7216 588.505 36.7216C588.941 36.7216 589.336 36.6458 589.691 36.4943C590.046 36.3428 590.347 36.125 590.593 35.8409C590.839 35.5568 591.014 35.2159 591.119 34.8182H592.795C592.7 35.4621 592.466 36.0421 592.092 36.5582C591.722 37.0696 591.232 37.4768 590.621 37.7798C590.015 38.0781 589.31 38.2273 588.505 38.2273ZM599.677 38.2273C598.692 38.2273 597.828 37.9929 597.085 37.5241C596.346 37.0554 595.768 36.3996 595.352 35.5568C594.94 34.714 594.734 33.7292 594.734 32.6023C594.734 31.4659 594.94 30.474 595.352 29.6264C595.768 28.7789 596.346 28.1207 597.085 27.652C597.828 27.1832 598.692 26.9489 599.677 26.9489C600.662 26.9489 601.523 27.1832 602.262 27.652C603.005 28.1207 603.583 28.7789 603.995 29.6264C604.412 30.474 604.62 31.4659 604.62 32.6023C604.62 33.7292 604.412 34.714 603.995 35.5568C603.583 36.3996 603.005 37.0554 602.262 37.5241C601.523 37.9929 600.662 38.2273 599.677 38.2273ZM599.677 36.7216C600.425 36.7216 601.04 36.5298 601.523 36.1463C602.006 35.7628 602.364 35.2585 602.596 34.6335C602.828 34.0085 602.944 33.3314 602.944 32.6023C602.944 31.8731 602.828 31.1937 602.596 30.5639C602.364 29.9342 602.006 29.4252 601.523 29.0369C601.04 28.6487 600.425 28.4545 599.677 28.4545C598.929 28.4545 598.313 28.6487 597.83 29.0369C597.347 29.4252 596.99 29.9342 596.758 30.5639C596.526 31.1937 596.41 31.8731 596.41 32.6023C596.41 33.3314 596.526 34.0085 596.758 34.6335C596.99 35.2585 597.347 35.7628 597.83 36.1463C598.313 36.5298 598.929 36.7216 599.677 36.7216ZM608.855 31.4375V38H607.179V27.0909H608.798V28.7955H608.94C609.196 28.2415 609.584 27.7964 610.105 27.4602C610.626 27.1193 611.298 26.9489 612.122 26.9489C612.86 26.9489 613.507 27.1004 614.061 27.4034C614.615 27.7017 615.046 28.1562 615.353 28.767C615.661 29.3731 615.815 30.1402 615.815 31.0682V38H614.139V31.1818C614.139 30.3248 613.916 29.6572 613.471 29.179C613.026 28.696 612.415 28.4545 611.639 28.4545C611.104 28.4545 610.626 28.5705 610.204 28.8026C609.788 29.0346 609.458 29.3731 609.217 29.8182C608.975 30.2633 608.855 30.803 608.855 31.4375Z" fill="white" fill-opacity="0.95"/>
<mask id="path-9-inside-4_2110_46641" fill="white">
<path d="M740 0H1356V62H740V0Z"/>
</mask>
<path d="M740 0H1356V62H740V0Z" fill="#1A1A1A"/>
<path d="M1356 61H740V63H1356V61Z" fill="#707070" mask="url(#path-9-inside-4_2110_46641)"/>
<path d="M776.278 27.0909V28.5114H770.625V27.0909H776.278ZM772.273 24.4773H773.949V34.875C773.949 35.3485 774.018 35.7036 774.155 35.9403C774.297 36.1723 774.477 36.3286 774.695 36.4091C774.917 36.4848 775.152 36.5227 775.398 36.5227C775.582 36.5227 775.734 36.5133 775.852 36.4943C775.971 36.4706 776.065 36.4517 776.136 36.4375L776.477 37.9432C776.364 37.9858 776.205 38.0284 776.001 38.071C775.798 38.1184 775.54 38.142 775.227 38.142C774.754 38.142 774.29 38.0402 773.835 37.8366C773.385 37.633 773.011 37.3229 772.713 36.9062C772.42 36.4896 772.273 35.964 772.273 35.3295V24.4773ZM780.71 31.4375V38H779.034V23.4545H780.71V28.7955H780.852C781.108 28.232 781.491 27.7846 782.003 27.4531C782.519 27.117 783.205 26.9489 784.062 26.9489C784.806 26.9489 785.457 27.098 786.016 27.3963C786.574 27.6899 787.008 28.142 787.315 28.7528C787.628 29.3589 787.784 30.1307 787.784 31.0682V38H786.108V31.1818C786.108 30.3153 785.883 29.6454 785.433 29.1719C784.988 28.6937 784.37 28.4545 783.58 28.4545C783.03 28.4545 782.538 28.5705 782.102 28.8026C781.671 29.0346 781.33 29.3731 781.08 29.8182C780.833 30.2633 780.71 30.803 780.71 31.4375ZM795.424 38.2273C794.373 38.2273 793.467 37.9953 792.704 37.5312C791.947 37.0625 791.362 36.4091 790.95 35.571C790.543 34.7282 790.339 33.7481 790.339 32.6307C790.339 31.5133 790.543 30.5284 790.95 29.6761C791.362 28.8191 791.935 28.1515 792.669 27.6733C793.407 27.1903 794.269 26.9489 795.254 26.9489C795.822 26.9489 796.383 27.0436 796.937 27.233C797.491 27.4223 797.995 27.7301 798.45 28.1562C798.904 28.5777 799.267 29.1364 799.537 29.8324C799.806 30.5284 799.941 31.3854 799.941 32.4034V33.1136H791.532V31.6648H798.237C798.237 31.0492 798.114 30.5 797.868 30.017C797.626 29.5341 797.28 29.1529 796.831 28.8736C796.386 28.5942 795.86 28.4545 795.254 28.4545C794.586 28.4545 794.009 28.6203 793.521 28.9517C793.038 29.2784 792.666 29.7045 792.406 30.2301C792.145 30.7557 792.015 31.3191 792.015 31.9205V32.8864C792.015 33.7102 792.157 34.4086 792.441 34.9815C792.73 35.5497 793.13 35.983 793.642 36.2812C794.153 36.5748 794.747 36.7216 795.424 36.7216C795.865 36.7216 796.262 36.66 796.618 36.5369C796.977 36.4091 797.288 36.2197 797.548 35.9688C797.808 35.7131 798.01 35.3958 798.152 35.017L799.771 35.4716C799.6 36.0208 799.314 36.5038 798.912 36.9205C798.509 37.3324 798.012 37.6544 797.42 37.8864C796.828 38.1136 796.163 38.2273 795.424 38.2273ZM802.491 38V27.0909H804.11V28.7955H804.252C804.48 28.2131 804.847 27.7609 805.353 27.4389C805.86 27.1122 806.468 26.9489 807.179 26.9489C807.898 26.9489 808.497 27.1122 808.975 27.4389C809.458 27.7609 809.835 28.2131 810.105 28.7955H810.218C810.498 28.232 810.917 27.7846 811.475 27.4531C812.034 27.117 812.704 26.9489 813.485 26.9489C814.461 26.9489 815.259 27.2543 815.879 27.8651C816.499 28.4711 816.809 29.4157 816.809 30.6989V38H815.133V30.6989C815.133 29.8939 814.913 29.3187 814.473 28.973C814.032 28.6274 813.514 28.4545 812.917 28.4545C812.15 28.4545 811.556 28.6866 811.135 29.1506C810.713 29.6098 810.502 30.1922 810.502 30.8977V38H808.798V30.5284C808.798 29.9081 808.597 29.4086 808.194 29.0298C807.792 28.6463 807.273 28.4545 806.639 28.4545C806.203 28.4545 805.796 28.5705 805.417 28.8026C805.043 29.0346 804.74 29.3565 804.508 29.7685C804.281 30.1757 804.167 30.6468 804.167 31.1818V38H802.491ZM824.448 38.2273C823.397 38.2273 822.49 37.9953 821.728 37.5312C820.97 37.0625 820.385 36.4091 819.973 35.571C819.566 34.7282 819.363 33.7481 819.363 32.6307C819.363 31.5133 819.566 30.5284 819.973 29.6761C820.385 28.8191 820.958 28.1515 821.692 27.6733C822.431 27.1903 823.292 26.9489 824.277 26.9489C824.846 26.9489 825.407 27.0436 825.961 27.233C826.515 27.4223 827.019 27.7301 827.473 28.1562C827.928 28.5777 828.29 29.1364 828.56 29.8324C828.83 30.5284 828.965 31.3854 828.965 32.4034V33.1136H820.556V31.6648H827.26C827.26 31.0492 827.137 30.5 826.891 30.017C826.65 29.5341 826.304 29.1529 825.854 28.8736C825.409 28.5942 824.883 28.4545 824.277 28.4545C823.61 28.4545 823.032 28.6203 822.544 28.9517C822.061 29.2784 821.69 29.7045 821.429 30.2301C821.169 30.7557 821.039 31.3191 821.039 31.9205V32.8864C821.039 33.7102 821.181 34.4086 821.465 34.9815C821.754 35.5497 822.154 35.983 822.665 36.2812C823.176 36.5748 823.771 36.7216 824.448 36.7216C824.888 36.7216 825.286 36.66 825.641 36.5369C826.001 36.4091 826.311 36.2197 826.571 35.9688C826.832 35.7131 827.033 35.3958 827.175 35.017L828.794 35.4716C828.624 36.0208 828.337 36.5038 827.935 36.9205C827.533 37.3324 827.035 37.6544 826.444 37.8864C825.852 38.1136 825.186 38.2273 824.448 38.2273ZM836.657 22.7727L831.969 40.1875H830.435L835.123 22.7727H836.657ZM840.32 31.4375V38H838.643V27.0909H840.263V28.7955H840.405C840.661 28.2415 841.049 27.7964 841.57 27.4602C842.09 27.1193 842.763 26.9489 843.587 26.9489C844.325 26.9489 844.972 27.1004 845.526 27.4034C846.08 27.7017 846.51 28.1562 846.818 28.767C847.126 29.3731 847.28 30.1402 847.28 31.0682V38H845.604V31.1818C845.604 30.3248 845.381 29.6572 844.936 29.179C844.491 28.696 843.88 28.4545 843.104 28.4545C842.569 28.4545 842.09 28.5705 841.669 28.8026C841.252 29.0346 840.923 29.3731 840.682 29.8182C840.44 30.2633 840.32 30.803 840.32 31.4375ZM854.917 38.2273C853.865 38.2273 852.959 37.9953 852.196 37.5312C851.439 37.0625 850.854 36.4091 850.442 35.571C850.035 34.7282 849.831 33.7481 849.831 32.6307C849.831 31.5133 850.035 30.5284 850.442 29.6761C850.854 28.8191 851.427 28.1515 852.161 27.6733C852.9 27.1903 853.761 26.9489 854.746 26.9489C855.314 26.9489 855.875 27.0436 856.429 27.233C856.983 27.4223 857.488 27.7301 857.942 28.1562C858.397 28.5777 858.759 29.1364 859.029 29.8324C859.299 30.5284 859.434 31.3854 859.434 32.4034V33.1136H851.025V31.6648H857.729C857.729 31.0492 857.606 30.5 857.36 30.017C857.118 29.5341 856.773 29.1529 856.323 28.8736C855.878 28.5942 855.352 28.4545 854.746 28.4545C854.078 28.4545 853.501 28.6203 853.013 28.9517C852.53 29.2784 852.158 29.7045 851.898 30.2301C851.638 30.7557 851.507 31.3191 851.507 31.9205V32.8864C851.507 33.7102 851.65 34.4086 851.934 34.9815C852.222 35.5497 852.623 35.983 853.134 36.2812C853.645 36.5748 854.239 36.7216 854.917 36.7216C855.357 36.7216 855.755 36.66 856.11 36.5369C856.47 36.4091 856.78 36.2197 857.04 35.9688C857.301 35.7131 857.502 35.3958 857.644 35.017L859.263 35.4716C859.093 36.0208 858.806 36.5038 858.404 36.9205C858.001 37.3324 857.504 37.6544 856.912 37.8864C856.32 38.1136 855.655 38.2273 854.917 38.2273ZM868.858 33.5398V27.0909H870.534V38H868.858V36.1534H868.745C868.489 36.7074 868.091 37.1785 867.551 37.5668C867.012 37.9503 866.33 38.142 865.506 38.142C864.824 38.142 864.218 37.9929 863.688 37.6946C863.158 37.3916 862.741 36.937 862.438 36.331C862.135 35.7202 861.983 34.9508 861.983 34.0227V27.0909H863.659V33.9091C863.659 34.7045 863.882 35.339 864.327 35.8125C864.777 36.286 865.35 36.5227 866.046 36.5227C866.462 36.5227 866.886 36.4162 867.317 36.2031C867.753 35.9901 868.117 35.6634 868.411 35.223C868.709 34.7827 868.858 34.2216 868.858 33.5398ZM878.349 27.0909V28.5114H872.695V27.0909H878.349ZM874.343 24.4773H876.019V34.875C876.019 35.3485 876.088 35.7036 876.225 35.9403C876.367 36.1723 876.547 36.3286 876.765 36.4091C876.987 36.4848 877.222 36.5227 877.468 36.5227C877.653 36.5227 877.804 36.5133 877.923 36.4943C878.041 36.4706 878.136 36.4517 878.207 36.4375L878.548 37.9432C878.434 37.9858 878.275 38.0284 878.072 38.071C877.868 38.1184 877.61 38.142 877.298 38.142C876.824 38.142 876.36 38.0402 875.906 37.8366C875.456 37.633 875.082 37.3229 874.783 36.9062C874.49 36.4896 874.343 35.964 874.343 35.3295V24.4773ZM880.87 38V27.0909H882.489V28.7386H882.603C882.802 28.1989 883.162 27.7609 883.683 27.4247C884.203 27.0885 884.79 26.9205 885.444 26.9205C885.567 26.9205 885.721 26.9228 885.906 26.9276C886.09 26.9323 886.23 26.9394 886.325 26.9489V28.6534C886.268 28.6392 886.138 28.6179 885.934 28.5895C885.735 28.5563 885.524 28.5398 885.302 28.5398C884.772 28.5398 884.298 28.651 883.881 28.8736C883.469 29.0914 883.143 29.3944 882.901 29.7827C882.665 30.1662 882.546 30.6042 882.546 31.0966V38H880.87ZM891.522 38.2557C890.83 38.2557 890.203 38.1255 889.64 37.8651C889.076 37.5999 888.629 37.2188 888.297 36.7216C887.966 36.2197 887.8 35.6136 887.8 34.9034C887.8 34.2784 887.923 33.7718 888.169 33.3835C888.416 32.9905 888.745 32.6828 889.157 32.4602C889.569 32.2377 890.023 32.072 890.52 31.9631C891.022 31.8494 891.526 31.7595 892.033 31.6932C892.696 31.608 893.233 31.544 893.645 31.5014C894.062 31.4541 894.365 31.3759 894.554 31.267C894.748 31.1581 894.846 30.9687 894.846 30.6989V30.642C894.846 29.9413 894.654 29.3968 894.27 29.0085C893.891 28.6203 893.316 28.4261 892.544 28.4261C891.744 28.4261 891.117 28.6013 890.662 28.9517C890.208 29.3021 889.888 29.6761 889.703 30.0739L888.113 29.5057C888.397 28.8428 888.775 28.3267 889.249 27.9574C889.727 27.5833 890.248 27.3229 890.811 27.1761C891.38 27.0246 891.938 26.9489 892.488 26.9489C892.838 26.9489 893.24 26.9915 893.695 27.0767C894.154 27.1572 894.597 27.3253 895.023 27.581C895.454 27.8366 895.811 28.2225 896.096 28.7386C896.38 29.2547 896.522 29.946 896.522 30.8125V38H894.846V36.5227H894.76C894.647 36.7595 894.457 37.0128 894.192 37.2827C893.927 37.5526 893.574 37.7822 893.134 37.9716C892.694 38.161 892.156 38.2557 891.522 38.2557ZM891.777 36.75C892.44 36.75 892.999 36.6198 893.453 36.3594C893.913 36.099 894.258 35.7628 894.49 35.3509C894.727 34.9389 894.846 34.5057 894.846 34.0511V32.517C894.775 32.6023 894.618 32.6804 894.377 32.7514C894.14 32.8177 893.865 32.8769 893.553 32.929C893.245 32.9763 892.944 33.0189 892.651 33.0568C892.362 33.09 892.128 33.1184 891.948 33.142C891.512 33.1989 891.105 33.2912 890.726 33.419C890.352 33.5421 890.049 33.7292 889.817 33.9801C889.59 34.2263 889.476 34.5625 889.476 34.9886C889.476 35.571 889.692 36.0114 890.123 36.3097C890.558 36.6032 891.11 36.75 891.777 36.75ZM901.257 23.4545V38H899.581V23.4545H901.257ZM909.469 22.7727L904.782 40.1875H903.248L907.935 22.7727H909.469ZM916.2 27.0909V28.5114H910.547V27.0909H916.2ZM912.195 24.4773H913.871V34.875C913.871 35.3485 913.939 35.7036 914.077 35.9403C914.219 36.1723 914.399 36.3286 914.616 36.4091C914.839 36.4848 915.073 36.5227 915.32 36.5227C915.504 36.5227 915.656 36.5133 915.774 36.4943C915.893 36.4706 915.987 36.4517 916.058 36.4375L916.399 37.9432C916.286 37.9858 916.127 38.0284 915.923 38.071C915.72 38.1184 915.462 38.142 915.149 38.142C914.676 38.142 914.212 38.0402 913.757 37.8366C913.307 37.633 912.933 37.3229 912.635 36.9062C912.341 36.4896 912.195 35.964 912.195 35.3295V24.4773ZM923.178 38.2273C922.127 38.2273 921.22 37.9953 920.458 37.5312C919.701 37.0625 919.116 36.4091 918.704 35.571C918.297 34.7282 918.093 33.7481 918.093 32.6307C918.093 31.5133 918.297 30.5284 918.704 29.6761C919.116 28.8191 919.689 28.1515 920.423 27.6733C921.161 27.1903 922.023 26.9489 923.008 26.9489C923.576 26.9489 924.137 27.0436 924.691 27.233C925.245 27.4223 925.749 27.7301 926.204 28.1562C926.658 28.5777 927.021 29.1364 927.29 29.8324C927.56 30.5284 927.695 31.3854 927.695 32.4034V33.1136H919.286V31.6648H925.991C925.991 31.0492 925.868 30.5 925.621 30.017C925.38 29.5341 925.034 29.1529 924.585 28.8736C924.139 28.5942 923.614 28.4545 923.008 28.4545C922.34 28.4545 921.763 28.6203 921.275 28.9517C920.792 29.2784 920.42 29.7045 920.16 30.2301C919.899 30.7557 919.769 31.3191 919.769 31.9205V32.8864C919.769 33.7102 919.911 34.4086 920.195 34.9815C920.484 35.5497 920.884 35.983 921.396 36.2812C921.907 36.5748 922.501 36.7216 923.178 36.7216C923.619 36.7216 924.016 36.66 924.371 36.5369C924.731 36.4091 925.041 36.2197 925.302 35.9688C925.562 35.7131 925.763 35.3958 925.906 35.017L927.525 35.4716C927.354 36.0208 927.068 36.5038 926.665 36.9205C926.263 37.3324 925.766 37.6544 925.174 37.8864C924.582 38.1136 923.917 38.2273 923.178 38.2273ZM931.202 27.0909L933.816 31.5511L936.429 27.0909H938.361L934.838 32.5455L938.361 38H936.429L933.816 33.767L931.202 38H929.27L932.736 32.5455L929.27 27.0909H931.202ZM945.497 27.0909V28.5114H939.844V27.0909H945.497ZM941.491 24.4773H943.168V34.875C943.168 35.3485 943.236 35.7036 943.374 35.9403C943.516 36.1723 943.696 36.3286 943.913 36.4091C944.136 36.4848 944.37 36.5227 944.616 36.5227C944.801 36.5227 944.953 36.5133 945.071 36.4943C945.189 36.4706 945.284 36.4517 945.355 36.4375L945.696 37.9432C945.582 37.9858 945.424 38.0284 945.22 38.071C945.017 38.1184 944.759 38.142 944.446 38.142C943.973 38.142 943.509 38.0402 943.054 37.8366C942.604 37.633 942.23 37.3229 941.932 36.9062C941.638 36.4896 941.491 35.964 941.491 35.3295V24.4773ZM953.161 22.7727L948.473 40.1875H946.939L951.626 22.7727H953.161ZM955.147 42.0909V27.0909H956.767V28.8239H956.966C957.089 28.6345 957.259 28.393 957.477 28.0994C957.699 27.8011 958.017 27.536 958.429 27.304C958.845 27.0672 959.409 26.9489 960.119 26.9489C961.038 26.9489 961.847 27.1785 962.548 27.6378C963.249 28.0971 963.796 28.7481 964.189 29.5909C964.582 30.4337 964.778 31.428 964.778 32.5739C964.778 33.7292 964.582 34.7306 964.189 35.5781C963.796 36.4209 963.251 37.0743 962.555 37.5384C961.859 37.9976 961.056 38.2273 960.147 38.2273C959.447 38.2273 958.886 38.1113 958.464 37.8793C958.043 37.6425 957.718 37.375 957.491 37.0767C957.264 36.7737 957.089 36.5227 956.966 36.3239H956.824V42.0909H955.147ZM956.795 32.5455C956.795 33.3693 956.916 34.0961 957.157 34.7259C957.399 35.3509 957.752 35.8409 958.216 36.196C958.68 36.5464 959.248 36.7216 959.92 36.7216C960.621 36.7216 961.206 36.5369 961.674 36.1676C962.148 35.7936 962.503 35.2917 962.74 34.6619C962.981 34.0275 963.102 33.322 963.102 32.5455C963.102 31.7784 962.984 31.0871 962.747 30.4716C962.515 29.8513 962.162 29.3613 961.689 29.0014C961.22 28.6368 960.63 28.4545 959.92 28.4545C959.238 28.4545 958.665 28.6274 958.201 28.973C957.737 29.3139 957.387 29.7921 957.15 30.4077C956.913 31.0185 956.795 31.7311 956.795 32.5455ZM967.335 38V27.0909H968.954V28.7386H969.068C969.267 28.1989 969.627 27.7609 970.147 27.4247C970.668 27.0885 971.255 26.9205 971.909 26.9205C972.032 26.9205 972.186 26.9228 972.37 26.9276C972.555 26.9323 972.695 26.9394 972.789 26.9489V28.6534C972.733 28.6392 972.602 28.6179 972.399 28.5895C972.2 28.5563 971.989 28.5398 971.767 28.5398C971.236 28.5398 970.763 28.651 970.346 28.8736C969.934 29.0914 969.608 29.3944 969.366 29.7827C969.129 30.1662 969.011 30.6042 969.011 31.0966V38H967.335ZM974.776 38V27.0909H976.452V38H974.776ZM975.629 25.2727C975.302 25.2727 975.02 25.1615 974.783 24.9389C974.551 24.7164 974.435 24.4489 974.435 24.1364C974.435 23.8239 974.551 23.5563 974.783 23.3338C975.02 23.1113 975.302 23 975.629 23C975.955 23 976.235 23.1113 976.467 23.3338C976.703 23.5563 976.822 23.8239 976.822 24.1364C976.822 24.4489 976.703 24.7164 976.467 24.9389C976.235 25.1615 975.955 25.2727 975.629 25.2727ZM979.522 38V27.0909H981.142V28.7955H981.284C981.511 28.2131 981.878 27.7609 982.385 27.4389C982.891 27.1122 983.5 26.9489 984.21 26.9489C984.93 26.9489 985.529 27.1122 986.007 27.4389C986.49 27.7609 986.866 28.2131 987.136 28.7955H987.25C987.529 28.232 987.948 27.7846 988.507 27.4531C989.065 27.117 989.735 26.9489 990.517 26.9489C991.492 26.9489 992.29 27.2543 992.91 27.8651C993.53 28.4711 993.841 29.4157 993.841 30.6989V38H992.164V30.6989C992.164 29.8939 991.944 29.3187 991.504 28.973C991.064 28.6274 990.545 28.4545 989.949 28.4545C989.181 28.4545 988.587 28.6866 988.166 29.1506C987.744 29.6098 987.534 30.1922 987.534 30.8977V38H985.829V30.5284C985.829 29.9081 985.628 29.4086 985.225 29.0298C984.823 28.6463 984.305 28.4545 983.67 28.4545C983.234 28.4545 982.827 28.5705 982.449 28.8026C982.074 29.0346 981.771 29.3565 981.539 29.7685C981.312 30.1757 981.199 30.6468 981.199 31.1818V38H979.522ZM1000.12 38.2557C999.424 38.2557 998.797 38.1255 998.233 37.8651C997.67 37.5999 997.222 37.2188 996.891 36.7216C996.56 36.2197 996.394 35.6136 996.394 34.9034C996.394 34.2784 996.517 33.7718 996.763 33.3835C997.009 32.9905 997.338 32.6828 997.75 32.4602C998.162 32.2377 998.617 32.072 999.114 31.9631C999.616 31.8494 1000.12 31.7595 1000.63 31.6932C1001.29 31.608 1001.83 31.544 1002.24 31.5014C1002.66 31.4541 1002.96 31.3759 1003.15 31.267C1003.34 31.1581 1003.44 30.9687 1003.44 30.6989V30.642C1003.44 29.9413 1003.25 29.3968 1002.86 29.0085C1002.49 28.6203 1001.91 28.4261 1001.14 28.4261C1000.34 28.4261 999.711 28.6013 999.256 28.9517C998.801 29.3021 998.482 29.6761 998.297 30.0739L996.706 29.5057C996.99 28.8428 997.369 28.3267 997.843 27.9574C998.321 27.5833 998.842 27.3229 999.405 27.1761C999.973 27.0246 1000.53 26.9489 1001.08 26.9489C1001.43 26.9489 1001.83 26.9915 1002.29 27.0767C1002.75 27.1572 1003.19 27.3253 1003.62 27.581C1004.05 27.8366 1004.41 28.2225 1004.69 28.7386C1004.97 29.2547 1005.12 29.946 1005.12 30.8125V38H1003.44V36.5227H1003.35C1003.24 36.7595 1003.05 37.0128 1002.79 37.2827C1002.52 37.5526 1002.17 37.7822 1001.73 37.9716C1001.29 38.161 1000.75 38.2557 1000.12 38.2557ZM1000.37 36.75C1001.03 36.75 1001.59 36.6198 1002.05 36.3594C1002.51 36.099 1002.85 35.7628 1003.08 35.3509C1003.32 34.9389 1003.44 34.5057 1003.44 34.0511V32.517C1003.37 32.6023 1003.21 32.6804 1002.97 32.7514C1002.73 32.8177 1002.46 32.8769 1002.15 32.929C1001.84 32.9763 1001.54 33.0189 1001.24 33.0568C1000.96 33.09 1000.72 33.1184 1000.54 33.142C1000.11 33.1989 999.699 33.2912 999.32 33.419C998.946 33.5421 998.643 33.7292 998.411 33.9801C998.184 34.2263 998.07 34.5625 998.07 34.9886C998.07 35.571 998.285 36.0114 998.716 36.3097C999.152 36.6032 999.703 36.75 1000.37 36.75ZM1008.17 38V27.0909H1009.79V28.7386H1009.91C1010.11 28.1989 1010.47 27.7609 1010.99 27.4247C1011.51 27.0885 1012.1 26.9205 1012.75 26.9205C1012.87 26.9205 1013.03 26.9228 1013.21 26.9276C1013.39 26.9323 1013.53 26.9394 1013.63 26.9489V28.6534C1013.57 28.6392 1013.44 28.6179 1013.24 28.5895C1013.04 28.5563 1012.83 28.5398 1012.61 28.5398C1012.08 28.5398 1011.6 28.651 1011.19 28.8736C1010.77 29.0914 1010.45 29.3944 1010.21 29.7827C1009.97 30.1662 1009.85 30.6042 1009.85 31.0966V38H1008.17ZM1017.03 42.0625C1016.74 42.0625 1016.49 42.0388 1016.27 41.9915C1016.05 41.9489 1015.89 41.9063 1015.81 41.8636L1016.23 40.3864C1016.84 40.5426 1017.35 40.5379 1017.76 40.3722C1018.17 40.2112 1018.52 39.7235 1018.82 38.9091L1019.13 38.0568L1015.1 27.0909H1016.91L1019.93 35.7841H1020.04L1023.05 27.0909L1024.88 27.1193L1020.24 39.5909C1020.03 40.1449 1019.77 40.6042 1019.46 40.9688C1019.16 41.3381 1018.8 41.6127 1018.39 41.7926C1017.99 41.9725 1017.53 42.0625 1017.03 42.0625ZM1031.11 22.7727L1026.42 40.1875H1024.89L1029.58 22.7727H1031.11ZM1037.22 38.2273C1036.31 38.2273 1035.5 37.9976 1034.81 37.5384C1034.11 37.0743 1033.57 36.4209 1033.17 35.5781C1032.78 34.7306 1032.59 33.7292 1032.59 32.5739C1032.59 31.428 1032.78 30.4337 1033.17 29.5909C1033.57 28.7481 1034.11 28.0971 1034.82 27.6378C1035.52 27.1785 1036.33 26.9489 1037.24 26.9489C1037.95 26.9489 1038.52 27.0672 1038.93 27.304C1039.34 27.536 1039.66 27.8011 1039.88 28.0994C1040.1 28.393 1040.27 28.6345 1040.4 28.8239H1040.54V23.4545H1042.22V38H1040.6V36.3239H1040.4C1040.27 36.5227 1040.1 36.7737 1039.87 37.0767C1039.64 37.375 1039.32 37.6425 1038.9 37.8793C1038.48 38.1113 1037.92 38.2273 1037.22 38.2273ZM1037.44 36.7216C1038.12 36.7216 1038.68 36.5464 1039.15 36.196C1039.61 35.8409 1039.96 35.3509 1040.21 34.7259C1040.45 34.0961 1040.57 33.3693 1040.57 32.5455C1040.57 31.7311 1040.45 31.0185 1040.21 30.4077C1039.98 29.7921 1039.63 29.3139 1039.16 28.973C1038.7 28.6274 1038.13 28.4545 1037.44 28.4545C1036.73 28.4545 1036.14 28.6368 1035.67 29.0014C1035.2 29.3613 1034.85 29.8513 1034.61 30.4716C1034.38 31.0871 1034.26 31.7784 1034.26 32.5455C1034.26 33.322 1034.38 34.0275 1034.62 34.6619C1034.86 35.2917 1035.21 35.7936 1035.68 36.1676C1036.16 36.5369 1036.74 36.7216 1037.44 36.7216ZM1050.09 38.2273C1049.04 38.2273 1048.13 37.9953 1047.37 37.5312C1046.61 37.0625 1046.03 36.4091 1045.62 35.571C1045.21 34.7282 1045.01 33.7481 1045.01 32.6307C1045.01 31.5133 1045.21 30.5284 1045.62 29.6761C1046.03 28.8191 1046.6 28.1515 1047.34 27.6733C1048.08 27.1903 1048.94 26.9489 1049.92 26.9489C1050.49 26.9489 1051.05 27.0436 1051.61 27.233C1052.16 27.4223 1052.66 27.7301 1053.12 28.1562C1053.57 28.5777 1053.93 29.1364 1054.2 29.8324C1054.47 30.5284 1054.61 31.3854 1054.61 32.4034V33.1136H1046.2V31.6648H1052.9C1052.9 31.0492 1052.78 30.5 1052.54 30.017C1052.29 29.5341 1051.95 29.1529 1051.5 28.8736C1051.05 28.5942 1050.53 28.4545 1049.92 28.4545C1049.25 28.4545 1048.68 28.6203 1048.19 28.9517C1047.71 29.2784 1047.33 29.7045 1047.07 30.2301C1046.81 30.7557 1046.68 31.3191 1046.68 31.9205V32.8864C1046.68 33.7102 1046.83 34.4086 1047.11 34.9815C1047.4 35.5497 1047.8 35.983 1048.31 36.2812C1048.82 36.5748 1049.42 36.7216 1050.09 36.7216C1050.53 36.7216 1050.93 36.66 1051.29 36.5369C1051.65 36.4091 1051.96 36.2197 1052.22 35.9688C1052.48 35.7131 1052.68 35.3958 1052.82 35.017L1054.44 35.4716C1054.27 36.0208 1053.98 36.5038 1053.58 36.9205C1053.18 37.3324 1052.68 37.6544 1052.09 37.8864C1051.5 38.1136 1050.83 38.2273 1050.09 38.2273ZM1062.02 27.0909V28.5114H1056.14V27.0909H1062.02ZM1057.9 38V25.5852C1057.9 24.9602 1058.04 24.4394 1058.34 24.0227C1058.63 23.6061 1059.01 23.2936 1059.48 23.0852C1059.95 22.8769 1060.45 22.7727 1060.97 22.7727C1061.38 22.7727 1061.71 22.8059 1061.97 22.8722C1062.23 22.9384 1062.43 23 1062.56 23.0568L1062.07 24.5057C1061.99 24.4773 1061.87 24.4418 1061.72 24.3991C1061.57 24.3565 1061.38 24.3352 1061.14 24.3352C1060.58 24.3352 1060.18 24.4749 1059.94 24.7543C1059.69 25.0336 1059.57 25.4432 1059.57 25.983V38H1057.9ZM1067.26 38.2557C1066.57 38.2557 1065.95 38.1255 1065.38 37.8651C1064.82 37.5999 1064.37 37.2188 1064.04 36.7216C1063.71 36.2197 1063.54 35.6136 1063.54 34.9034C1063.54 34.2784 1063.67 33.7718 1063.91 33.3835C1064.16 32.9905 1064.49 32.6828 1064.9 32.4602C1065.31 32.2377 1065.77 32.072 1066.26 31.9631C1066.76 31.8494 1067.27 31.7595 1067.78 31.6932C1068.44 31.608 1068.98 31.544 1069.39 31.5014C1069.8 31.4541 1070.11 31.3759 1070.3 31.267C1070.49 31.1581 1070.59 30.9687 1070.59 30.6989V30.642C1070.59 29.9413 1070.4 29.3968 1070.01 29.0085C1069.63 28.6203 1069.06 28.4261 1068.29 28.4261C1067.49 28.4261 1066.86 28.6013 1066.4 28.9517C1065.95 29.3021 1065.63 29.6761 1065.45 30.0739L1063.85 29.5057C1064.14 28.8428 1064.52 28.3267 1064.99 27.9574C1065.47 27.5833 1065.99 27.3229 1066.55 27.1761C1067.12 27.0246 1067.68 26.9489 1068.23 26.9489C1068.58 26.9489 1068.98 26.9915 1069.44 27.0767C1069.9 27.1572 1070.34 27.3253 1070.77 27.581C1071.2 27.8366 1071.55 28.2225 1071.84 28.7386C1072.12 29.2547 1072.26 29.946 1072.26 30.8125V38H1070.59V36.5227H1070.5C1070.39 36.7595 1070.2 37.0128 1069.93 37.2827C1069.67 37.5526 1069.32 37.7822 1068.88 37.9716C1068.44 38.161 1067.9 38.2557 1067.26 38.2557ZM1067.52 36.75C1068.18 36.75 1068.74 36.6198 1069.2 36.3594C1069.65 36.099 1070 35.7628 1070.23 35.3509C1070.47 34.9389 1070.59 34.5057 1070.59 34.0511V32.517C1070.52 32.6023 1070.36 32.6804 1070.12 32.7514C1069.88 32.8177 1069.61 32.8769 1069.3 32.929C1068.99 32.9763 1068.69 33.0189 1068.39 33.0568C1068.1 33.09 1067.87 33.1184 1067.69 33.142C1067.25 33.1989 1066.85 33.2912 1066.47 33.419C1066.09 33.5421 1065.79 33.7292 1065.56 33.9801C1065.33 34.2263 1065.22 34.5625 1065.22 34.9886C1065.22 35.571 1065.43 36.0114 1065.86 36.3097C1066.3 36.6032 1066.85 36.75 1067.52 36.75ZM1082.2 33.5398V27.0909H1083.87V38H1082.2V36.1534H1082.08C1081.83 36.7074 1081.43 37.1785 1080.89 37.5668C1080.35 37.9503 1079.67 38.142 1078.85 38.142C1078.16 38.142 1077.56 37.9929 1077.03 37.6946C1076.5 37.3916 1076.08 36.937 1075.78 36.331C1075.47 35.7202 1075.32 34.9508 1075.32 34.0227V27.0909H1077V33.9091C1077 34.7045 1077.22 35.339 1077.67 35.8125C1078.12 36.286 1078.69 36.5227 1079.39 36.5227C1079.8 36.5227 1080.23 36.4162 1080.66 36.2031C1081.09 35.9901 1081.46 35.6634 1081.75 35.223C1082.05 34.7827 1082.2 34.2216 1082.2 33.5398ZM1088.62 23.4545V38H1086.94V23.4545H1088.62ZM1096.43 27.0909V28.5114H1090.78V27.0909H1096.43ZM1092.43 24.4773H1094.11V34.875C1094.11 35.3485 1094.17 35.7036 1094.31 35.9403C1094.45 36.1723 1094.63 36.3286 1094.85 36.4091C1095.07 36.4848 1095.31 36.5227 1095.55 36.5227C1095.74 36.5227 1095.89 36.5133 1096.01 36.4943C1096.13 36.4706 1096.22 36.4517 1096.29 36.4375L1096.63 37.9432C1096.52 37.9858 1096.36 38.0284 1096.16 38.071C1095.95 38.1184 1095.7 38.142 1095.38 38.142C1094.91 38.142 1094.45 38.0402 1093.99 37.8366C1093.54 37.633 1093.17 37.3229 1092.87 36.9062C1092.58 36.4896 1092.43 35.964 1092.43 35.3295V24.4773Z" fill="white" fill-opacity="0.95"/>
</svg>
