<svg width="1356" height="92" viewBox="0 0 1356 92" fill="none" xmlns="http://www.w3.org/2000/svg">
<mask id="path-1-inside-1_2110_46586" fill="white">
<path d="M0 0H200V92H0V0Z"/>
</mask>
<path d="M0 0H200V92H0V0Z" fill="#1A1A1A"/>
<path d="M200 92V93H201V92H200ZM199 0V92H201V0H199ZM200 91H0V93H200V91Z" fill="#707070" mask="url(#path-1-inside-1_2110_46586)"/>
<path d="M43.2955 23.4545V38H41.5909L33.6648 26.5795H33.5227V38H31.7614V23.4545H33.4659L41.4205 34.9034H41.5625V23.4545H43.2955ZM51.7347 22.7727L47.0472 40.1875H45.5131L50.2006 22.7727H51.7347ZM54.5455 38H52.6989L58.0398 23.4545H59.858L65.1989 38H63.3523L59.0057 25.7557H58.892L54.5455 38ZM55.2273 32.3182H62.6705V33.8807H55.2273V32.3182Z" fill="white" fill-opacity="0.95"/>
<mask id="path-4-inside-2_2110_46586" fill="white">
<path d="M200 0H500V92H200V0Z"/>
</mask>
<path d="M200 0H500V92H200V0Z" fill="#1A1A1A"/>
<path d="M500 92V93H501V92H500ZM499 0V92H501V0H499ZM500 91H200V93H500V91Z" fill="#707070" mask="url(#path-4-inside-2_2110_46586)"/>
<path d="M232.358 53H230.511L235.852 38.4545H237.67L243.011 53H241.165L236.818 40.7557H236.705L232.358 53ZM233.04 47.3182H240.483V48.8807H233.04V47.3182ZM249.482 53.2273C248.459 53.2273 247.578 52.9858 246.839 52.5028C246.101 52.0199 245.533 51.3546 245.135 50.5071C244.737 49.6596 244.538 48.6913 244.538 47.6023C244.538 46.4943 244.742 45.5166 245.149 44.669C245.561 43.8168 246.134 43.1515 246.868 42.6733C247.607 42.1903 248.468 41.9489 249.453 41.9489C250.22 41.9489 250.911 42.0909 251.527 42.375C252.143 42.6591 252.647 43.0568 253.04 43.5682C253.433 44.0795 253.677 44.6761 253.771 45.358H252.095C251.967 44.8608 251.683 44.4205 251.243 44.0369C250.807 43.6487 250.22 43.4545 249.482 43.4545C248.828 43.4545 248.255 43.625 247.763 43.9659C247.275 44.3021 246.894 44.7779 246.619 45.3935C246.349 46.0043 246.214 46.7216 246.214 47.5455C246.214 48.3883 246.347 49.1222 246.612 49.7472C246.882 50.3722 247.261 50.8575 247.749 51.2031C248.241 51.5488 248.819 51.7216 249.482 51.7216C249.917 51.7216 250.312 51.6458 250.668 51.4943C251.023 51.3428 251.323 51.125 251.57 50.8409C251.816 50.5568 251.991 50.2159 252.095 49.8182H253.771C253.677 50.4621 253.442 51.0421 253.068 51.5582C252.699 52.0696 252.209 52.4768 251.598 52.7798C250.992 53.0781 250.286 53.2273 249.482 53.2273ZM260.966 42.0909V43.5114H255.312V42.0909H260.966ZM256.96 39.4773H258.636V49.875C258.636 50.3485 258.705 50.7036 258.842 50.9403C258.984 51.1723 259.164 51.3286 259.382 51.4091C259.605 51.4848 259.839 51.5227 260.085 51.5227C260.27 51.5227 260.421 51.5133 260.54 51.4943C260.658 51.4706 260.753 51.4517 260.824 51.4375L261.165 52.9432C261.051 52.9858 260.893 53.0284 260.689 53.071C260.485 53.1184 260.227 53.142 259.915 53.142C259.441 53.142 258.977 53.0402 258.523 52.8366C258.073 52.633 257.699 52.3229 257.401 51.9062C257.107 51.4896 256.96 50.964 256.96 50.3295V39.4773ZM263.487 53V42.0909H265.163V53H263.487ZM264.339 40.2727C264.013 40.2727 263.731 40.1615 263.494 39.9389C263.262 39.7164 263.146 39.4489 263.146 39.1364C263.146 38.8239 263.262 38.5563 263.494 38.3338C263.731 38.1113 264.013 38 264.339 38C264.666 38 264.946 38.1113 265.178 38.3338C265.414 38.5563 265.533 38.8239 265.533 39.1364C265.533 39.4489 265.414 39.7164 265.178 39.9389C264.946 40.1615 264.666 40.2727 264.339 40.2727ZM277.154 42.0909L273.12 53H271.415L267.381 42.0909H269.199L272.211 50.7841H272.324L275.336 42.0909H277.154ZM283.549 53.2273C282.498 53.2273 281.592 52.9953 280.829 52.5312C280.072 52.0625 279.487 51.4091 279.075 50.571C278.668 49.7282 278.464 48.7481 278.464 47.6307C278.464 46.5133 278.668 45.5284 279.075 44.6761C279.487 43.8191 280.06 43.1515 280.794 42.6733C281.532 42.1903 282.394 41.9489 283.379 41.9489C283.947 41.9489 284.508 42.0436 285.062 42.233C285.616 42.4223 286.12 42.7301 286.575 43.1562C287.029 43.5777 287.392 44.1364 287.662 44.8324C287.931 45.5284 288.066 46.3854 288.066 47.4034V48.1136H279.657V46.6648H286.362C286.362 46.0492 286.239 45.5 285.993 45.017C285.751 44.5341 285.405 44.1529 284.956 43.8736C284.511 43.5942 283.985 43.4545 283.379 43.4545C282.711 43.4545 282.134 43.6203 281.646 43.9517C281.163 44.2784 280.791 44.7045 280.531 45.2301C280.27 45.7557 280.14 46.3191 280.14 46.9205V47.8864C280.14 48.7102 280.282 49.4086 280.566 49.9815C280.855 50.5497 281.255 50.983 281.767 51.2812C282.278 51.5748 282.872 51.7216 283.549 51.7216C283.99 51.7216 284.387 51.66 284.743 51.5369C285.102 51.4091 285.413 51.2197 285.673 50.9688C285.933 50.7131 286.135 50.3958 286.277 50.017L287.896 50.4716C287.725 51.0208 287.439 51.5038 287.037 51.9205C286.634 52.3324 286.137 52.6544 285.545 52.8864C284.953 53.1136 284.288 53.2273 283.549 53.2273Z" fill="white" fill-opacity="0.95"/>
<mask id="path-7-inside-3_2110_46586" fill="white">
<path d="M500 0H740V92H500V0Z"/>
</mask>
<path d="M500 0H740V92H500V0Z" fill="#1A1A1A"/>
<path d="M740 92V93H741V92H740ZM739 0V92H741V0H739ZM740 91H500V93H740V91Z" fill="#707070" mask="url(#path-7-inside-3_2110_46586)"/>
<path d="M531.761 53V38.4545H536.847C537.86 38.4545 538.696 38.6297 539.354 38.9801C540.012 39.3258 540.502 39.7921 540.824 40.3793C541.146 40.9616 541.307 41.608 541.307 42.3182C541.307 42.9432 541.196 43.4593 540.973 43.8665C540.755 44.2737 540.466 44.5956 540.107 44.8324C539.751 45.0691 539.366 45.2443 538.949 45.358V45.5C539.394 45.5284 539.841 45.6847 540.291 45.9688C540.741 46.2528 541.117 46.66 541.42 47.1903C541.723 47.7206 541.875 48.3693 541.875 49.1364C541.875 49.8655 541.709 50.5213 541.378 51.1037C541.046 51.6861 540.523 52.1477 539.808 52.4886C539.093 52.8295 538.163 53 537.017 53H531.761ZM533.523 51.4375H537.017C538.168 51.4375 538.984 51.215 539.467 50.7699C539.955 50.3201 540.199 49.7756 540.199 49.1364C540.199 48.6439 540.073 48.1894 539.822 47.7727C539.571 47.3513 539.214 47.0152 538.75 46.7642C538.286 46.5085 537.737 46.3807 537.102 46.3807H533.523V51.4375ZM533.523 44.8466H536.79C537.32 44.8466 537.798 44.7424 538.224 44.5341C538.655 44.3258 538.996 44.0322 539.247 43.6534C539.503 43.2746 539.631 42.8295 539.631 42.3182C539.631 41.679 539.408 41.1368 538.963 40.6918C538.518 40.242 537.813 40.017 536.847 40.017H533.523V44.8466ZM548.974 53.2273C547.989 53.2273 547.125 52.9929 546.381 52.5241C545.643 52.0554 545.065 51.3996 544.648 50.5568C544.237 49.714 544.031 48.7292 544.031 47.6023C544.031 46.4659 544.237 45.474 544.648 44.6264C545.065 43.7789 545.643 43.1207 546.381 42.652C547.125 42.1832 547.989 41.9489 548.974 41.9489C549.959 41.9489 550.82 42.1832 551.559 42.652C552.302 43.1207 552.88 43.7789 553.292 44.6264C553.709 45.474 553.917 46.4659 553.917 47.6023C553.917 48.7292 553.709 49.714 553.292 50.5568C552.88 51.3996 552.302 52.0554 551.559 52.5241C550.82 52.9929 549.959 53.2273 548.974 53.2273ZM548.974 51.7216C549.722 51.7216 550.337 51.5298 550.82 51.1463C551.303 50.7628 551.661 50.2585 551.893 49.6335C552.125 49.0085 552.241 48.3314 552.241 47.6023C552.241 46.8731 552.125 46.1937 551.893 45.5639C551.661 44.9342 551.303 44.4252 550.82 44.0369C550.337 43.6487 549.722 43.4545 548.974 43.4545C548.226 43.4545 547.61 43.6487 547.127 44.0369C546.644 44.4252 546.287 44.9342 546.055 45.5639C545.823 46.1937 545.707 46.8731 545.707 47.6023C545.707 48.3314 545.823 49.0085 546.055 49.6335C546.287 50.2585 546.644 50.7628 547.127 51.1463C547.61 51.5298 548.226 51.7216 548.974 51.7216ZM561.22 42.0909V43.5114H555.566V42.0909H561.22ZM557.214 39.4773H558.89V49.875C558.89 50.3485 558.959 50.7036 559.096 50.9403C559.238 51.1723 559.418 51.3286 559.636 51.4091C559.859 51.4848 560.093 51.5227 560.339 51.5227C560.524 51.5227 560.675 51.5133 560.794 51.4943C560.912 51.4706 561.007 51.4517 561.078 51.4375L561.419 52.9432C561.305 52.9858 561.146 53.0284 560.943 53.071C560.739 53.1184 560.481 53.142 560.169 53.142C559.695 53.142 559.231 53.0402 558.777 52.8366C558.327 52.633 557.953 52.3229 557.654 51.9062C557.361 51.4896 557.214 50.964 557.214 50.3295V39.4773ZM568.485 42.0909V43.5114H562.832V42.0909H568.485ZM564.48 39.4773H566.156V49.875C566.156 50.3485 566.225 50.7036 566.362 50.9403C566.504 51.1723 566.684 51.3286 566.902 51.4091C567.124 51.4848 567.359 51.5227 567.605 51.5227C567.789 51.5227 567.941 51.5133 568.059 51.4943C568.178 51.4706 568.272 51.4517 568.343 51.4375L568.684 52.9432C568.571 52.9858 568.412 53.0284 568.208 53.071C568.005 53.1184 567.747 53.142 567.434 53.142C566.961 53.142 566.497 53.0402 566.042 52.8366C565.592 52.633 565.218 52.3229 564.92 51.9062C564.627 51.4896 564.48 50.964 564.48 50.3295V39.4773ZM575.321 53.2273C574.337 53.2273 573.472 52.9929 572.729 52.5241C571.99 52.0554 571.413 51.3996 570.996 50.5568C570.584 49.714 570.378 48.7292 570.378 47.6023C570.378 46.4659 570.584 45.474 570.996 44.6264C571.413 43.7789 571.99 43.1207 572.729 42.652C573.472 42.1832 574.337 41.9489 575.321 41.9489C576.306 41.9489 577.168 42.1832 577.907 42.652C578.65 43.1207 579.228 43.7789 579.64 44.6264C580.056 45.474 580.265 46.4659 580.265 47.6023C580.265 48.7292 580.056 49.714 579.64 50.5568C579.228 51.3996 578.65 52.0554 577.907 52.5241C577.168 52.9929 576.306 53.2273 575.321 53.2273ZM575.321 51.7216C576.069 51.7216 576.685 51.5298 577.168 51.1463C577.651 50.7628 578.008 50.2585 578.24 49.6335C578.472 49.0085 578.588 48.3314 578.588 47.6023C578.588 46.8731 578.472 46.1937 578.24 45.5639C578.008 44.9342 577.651 44.4252 577.168 44.0369C576.685 43.6487 576.069 43.4545 575.321 43.4545C574.573 43.4545 573.958 43.6487 573.475 44.0369C572.992 44.4252 572.634 44.9342 572.402 45.5639C572.17 46.1937 572.054 46.8731 572.054 47.6023C572.054 48.3314 572.17 49.0085 572.402 49.6335C572.634 50.2585 572.992 50.7628 573.475 51.1463C573.958 51.5298 574.573 51.7216 575.321 51.7216ZM582.823 53V42.0909H584.442V43.7955H584.585C584.812 43.2131 585.179 42.7609 585.685 42.4389C586.192 42.1122 586.8 41.9489 587.511 41.9489C588.23 41.9489 588.829 42.1122 589.308 42.4389C589.79 42.7609 590.167 43.2131 590.437 43.7955H590.55C590.83 43.232 591.249 42.7846 591.808 42.4531C592.366 42.117 593.036 41.9489 593.817 41.9489C594.793 41.9489 595.591 42.2543 596.211 42.8651C596.831 43.4711 597.141 44.4157 597.141 45.6989V53H595.465V45.6989C595.465 44.8939 595.245 44.3187 594.805 43.973C594.364 43.6274 593.846 43.4545 593.249 43.4545C592.482 43.4545 591.888 43.6866 591.467 44.1506C591.045 44.6098 590.835 45.1922 590.835 45.8977V53H589.13V45.5284C589.13 44.9081 588.929 44.4086 588.526 44.0298C588.124 43.6463 587.605 43.4545 586.971 43.4545C586.535 43.4545 586.128 43.5705 585.749 43.8026C585.375 44.0346 585.072 44.3565 584.84 44.7685C584.613 45.1757 584.499 45.6468 584.499 46.1818V53H582.823ZM606.058 53V38.4545H607.734V43.8239H607.876C608 43.6345 608.17 43.393 608.388 43.0994C608.61 42.8011 608.928 42.536 609.339 42.304C609.756 42.0672 610.32 41.9489 611.03 41.9489C611.948 41.9489 612.758 42.1785 613.459 42.6378C614.16 43.0971 614.706 43.7481 615.099 44.5909C615.492 45.4337 615.689 46.428 615.689 47.5739C615.689 48.7292 615.492 49.7306 615.099 50.5781C614.706 51.4209 614.162 52.0743 613.466 52.5384C612.77 52.9976 611.967 53.2273 611.058 53.2273C610.357 53.2273 609.796 53.1113 609.375 52.8793C608.954 52.6425 608.629 52.375 608.402 52.0767C608.175 51.7737 608 51.5227 607.876 51.3239H607.678V53H606.058ZM607.706 47.5455C607.706 48.3693 607.827 49.0961 608.068 49.7259C608.31 50.3509 608.662 50.8409 609.126 51.196C609.59 51.5464 610.159 51.7216 610.831 51.7216C611.532 51.7216 612.116 51.5369 612.585 51.1676C613.059 50.7936 613.414 50.2917 613.651 49.6619C613.892 49.0275 614.013 48.322 614.013 47.5455C614.013 46.7784 613.894 46.0871 613.658 45.4716C613.426 44.8513 613.073 44.3613 612.599 44.0014C612.131 43.6368 611.541 43.4545 610.831 43.4545C610.149 43.4545 609.576 43.6274 609.112 43.973C608.648 44.3139 608.298 44.7921 608.061 45.4077C607.824 46.0185 607.706 46.7311 607.706 47.5455ZM622.685 53.2273C621.7 53.2273 620.836 52.9929 620.092 52.5241C619.354 52.0554 618.776 51.3996 618.359 50.5568C617.947 49.714 617.741 48.7292 617.741 47.6023C617.741 46.4659 617.947 45.474 618.359 44.6264C618.776 43.7789 619.354 43.1207 620.092 42.652C620.836 42.1832 621.7 41.9489 622.685 41.9489C623.67 41.9489 624.531 42.1832 625.27 42.652C626.013 43.1207 626.591 43.7789 627.003 44.6264C627.42 45.474 627.628 46.4659 627.628 47.6023C627.628 48.7292 627.42 49.714 627.003 50.5568C626.591 51.3996 626.013 52.0554 625.27 52.5241C624.531 52.9929 623.67 53.2273 622.685 53.2273ZM622.685 51.7216C623.433 51.7216 624.048 51.5298 624.531 51.1463C625.014 50.7628 625.372 50.2585 625.604 49.6335C625.836 49.0085 625.952 48.3314 625.952 47.6023C625.952 46.8731 625.836 46.1937 625.604 45.5639C625.372 44.9342 625.014 44.4252 624.531 44.0369C624.048 43.6487 623.433 43.4545 622.685 43.4545C621.937 43.4545 621.321 43.6487 620.838 44.0369C620.355 44.4252 619.998 44.9342 619.766 45.5639C619.534 46.1937 619.418 46.8731 619.418 47.6023C619.418 48.3314 619.534 49.0085 619.766 49.6335C619.998 50.2585 620.355 50.7628 620.838 51.1463C621.321 51.5298 621.937 51.7216 622.685 51.7216ZM630.186 53V42.0909H631.806V43.7386H631.919C632.118 43.1989 632.478 42.7609 632.999 42.4247C633.52 42.0885 634.107 41.9205 634.76 41.9205C634.883 41.9205 635.037 41.9228 635.222 41.9276C635.407 41.9323 635.546 41.9394 635.641 41.9489V43.6534C635.584 43.6392 635.454 43.6179 635.25 43.5895C635.051 43.5563 634.841 43.5398 634.618 43.5398C634.088 43.5398 633.614 43.651 633.198 43.8736C632.786 44.0914 632.459 44.3944 632.218 44.7827C631.981 45.1662 631.863 45.6042 631.863 46.0966V53H630.186ZM641.415 53.2273C640.506 53.2273 639.703 52.9976 639.007 52.5384C638.311 52.0743 637.767 51.4209 637.374 50.5781C636.981 49.7306 636.784 48.7292 636.784 47.5739C636.784 46.428 636.981 45.4337 637.374 44.5909C637.767 43.7481 638.314 43.0971 639.015 42.6378C639.715 42.1785 640.525 41.9489 641.444 41.9489C642.154 41.9489 642.715 42.0672 643.127 42.304C643.543 42.536 643.861 42.8011 644.078 43.0994C644.301 43.393 644.474 43.6345 644.597 43.8239H644.739V38.4545H646.415V53H644.796V51.3239H644.597C644.474 51.5227 644.299 51.7737 644.071 52.0767C643.844 52.375 643.52 52.6425 643.098 52.8793C642.677 53.1113 642.116 53.2273 641.415 53.2273ZM641.642 51.7216C642.315 51.7216 642.883 51.5464 643.347 51.196C643.811 50.8409 644.164 50.3509 644.405 49.7259C644.647 49.0961 644.767 48.3693 644.767 47.5455C644.767 46.7311 644.649 46.0185 644.412 45.4077C644.176 44.7921 643.825 44.3139 643.361 43.973C642.897 43.6274 642.324 43.4545 641.642 43.4545C640.932 43.4545 640.34 43.6368 639.867 44.0014C639.398 44.3613 639.045 44.8513 638.809 45.4716C638.577 46.0871 638.461 46.7784 638.461 47.5455C638.461 48.322 638.579 49.0275 638.816 49.6619C639.057 50.2917 639.412 50.7936 639.881 51.1676C640.355 51.5369 640.942 51.7216 641.642 51.7216ZM654.292 53.2273C653.24 53.2273 652.334 52.9953 651.571 52.5312C650.814 52.0625 650.229 51.4091 649.817 50.571C649.41 49.7282 649.206 48.7481 649.206 47.6307C649.206 46.5133 649.41 45.5284 649.817 44.6761C650.229 43.8191 650.802 43.1515 651.536 42.6733C652.275 42.1903 653.136 41.9489 654.121 41.9489C654.689 41.9489 655.25 42.0436 655.804 42.233C656.358 42.4223 656.863 42.7301 657.317 43.1562C657.772 43.5777 658.134 44.1364 658.404 44.8324C658.674 45.5284 658.809 46.3854 658.809 47.4034V48.1136H650.4V46.6648H657.104C657.104 46.0492 656.981 45.5 656.735 45.017C656.493 44.5341 656.148 44.1529 655.698 43.8736C655.253 43.5942 654.727 43.4545 654.121 43.4545C653.453 43.4545 652.876 43.6203 652.388 43.9517C651.905 44.2784 651.533 44.7045 651.273 45.2301C651.013 45.7557 650.882 46.3191 650.882 46.9205V47.8864C650.882 48.7102 651.025 49.4086 651.309 49.9815C651.597 50.5497 651.998 50.983 652.509 51.2812C653.02 51.5748 653.614 51.7216 654.292 51.7216C654.732 51.7216 655.13 51.66 655.485 51.5369C655.845 51.4091 656.155 51.2197 656.415 50.9688C656.676 50.7131 656.877 50.3958 657.019 50.017L658.638 50.4716C658.468 51.0208 658.181 51.5038 657.779 51.9205C657.376 52.3324 656.879 52.6544 656.287 52.8864C655.695 53.1136 655.03 53.2273 654.292 53.2273ZM661.358 53V42.0909H662.978V43.7386H663.091C663.29 43.1989 663.65 42.7609 664.171 42.4247C664.692 42.0885 665.279 41.9205 665.932 41.9205C666.055 41.9205 666.209 41.9228 666.394 41.9276C666.578 41.9323 666.718 41.9394 666.813 41.9489V43.6534C666.756 43.6392 666.626 43.6179 666.422 43.5895C666.223 43.5563 666.013 43.5398 665.79 43.5398C665.26 43.5398 664.786 43.651 664.37 43.8736C663.958 44.0914 663.631 44.3944 663.39 44.7827C663.153 45.1662 663.034 45.6042 663.034 46.0966V53H661.358Z" fill="white" fill-opacity="0.95"/>
<mask id="path-10-inside-4_2110_46586" fill="white">
<path d="M740 0H1356V92H740V0Z"/>
</mask>
<path d="M740 0H1356V92H740V0Z" fill="#1A1A1A"/>
<path d="M1356 91H740V93H1356V91Z" fill="#707070" mask="url(#path-10-inside-4_2110_46586)"/>
<path d="M775.966 38.2273C774.943 38.2273 774.063 37.9858 773.324 37.5028C772.585 37.0199 772.017 36.3546 771.619 35.5071C771.222 34.6596 771.023 33.6913 771.023 32.6023C771.023 31.4943 771.226 30.5166 771.634 29.669C772.045 28.8168 772.618 28.1515 773.352 27.6733C774.091 27.1903 774.953 26.9489 775.938 26.9489C776.705 26.9489 777.396 27.0909 778.011 27.375C778.627 27.6591 779.131 28.0568 779.524 28.5682C779.917 29.0795 780.161 29.6761 780.256 30.358H778.58C778.452 29.8608 778.168 29.4205 777.727 29.0369C777.292 28.6487 776.705 28.4545 775.966 28.4545C775.313 28.4545 774.74 28.625 774.247 28.9659C773.759 29.3021 773.378 29.7779 773.104 30.3935C772.834 31.0043 772.699 31.7216 772.699 32.5455C772.699 33.3883 772.831 34.1222 773.097 34.7472C773.366 35.3722 773.745 35.8575 774.233 36.2031C774.725 36.5488 775.303 36.7216 775.966 36.7216C776.402 36.7216 776.797 36.6458 777.152 36.4943C777.507 36.3428 777.808 36.125 778.054 35.8409C778.3 35.5568 778.475 35.2159 778.58 34.8182H780.256C780.161 35.4621 779.927 36.0421 779.553 36.5582C779.183 37.0696 778.693 37.4768 778.082 37.7798C777.476 38.0781 776.771 38.2273 775.966 38.2273ZM787.138 38.2273C786.153 38.2273 785.289 37.9929 784.545 37.5241C783.807 37.0554 783.229 36.3996 782.812 35.5568C782.401 34.714 782.195 33.7292 782.195 32.6023C782.195 31.4659 782.401 30.474 782.812 29.6264C783.229 28.7789 783.807 28.1207 784.545 27.652C785.289 27.1832 786.153 26.9489 787.138 26.9489C788.123 26.9489 788.984 27.1832 789.723 27.652C790.466 28.1207 791.044 28.7789 791.456 29.6264C791.873 30.474 792.081 31.4659 792.081 32.6023C792.081 33.7292 791.873 34.714 791.456 35.5568C791.044 36.3996 790.466 37.0554 789.723 37.5241C788.984 37.9929 788.123 38.2273 787.138 38.2273ZM787.138 36.7216C787.886 36.7216 788.501 36.5298 788.984 36.1463C789.467 35.7628 789.825 35.2585 790.057 34.6335C790.289 34.0085 790.405 33.3314 790.405 32.6023C790.405 31.8731 790.289 31.1937 790.057 30.5639C789.825 29.9342 789.467 29.4252 788.984 29.0369C788.501 28.6487 787.886 28.4545 787.138 28.4545C786.39 28.4545 785.774 28.6487 785.291 29.0369C784.808 29.4252 784.451 29.9342 784.219 30.5639C783.987 31.1937 783.871 31.8731 783.871 32.6023C783.871 33.3314 783.987 34.0085 784.219 34.6335C784.451 35.2585 784.808 35.7628 785.291 36.1463C785.774 36.5298 786.39 36.7216 787.138 36.7216ZM796.316 23.4545V38H794.64V23.4545H796.316ZM803.817 38.2273C802.833 38.2273 801.969 37.9929 801.225 37.5241C800.487 37.0554 799.909 36.3996 799.492 35.5568C799.08 34.714 798.874 33.7292 798.874 32.6023C798.874 31.4659 799.08 30.474 799.492 29.6264C799.909 28.7789 800.487 28.1207 801.225 27.652C801.969 27.1832 802.833 26.9489 803.817 26.9489C804.802 26.9489 805.664 27.1832 806.403 27.652C807.146 28.1207 807.724 28.7789 808.136 29.6264C808.552 30.474 808.761 31.4659 808.761 32.6023C808.761 33.7292 808.552 34.714 808.136 35.5568C807.724 36.3996 807.146 37.0554 806.403 37.5241C805.664 37.9929 804.802 38.2273 803.817 38.2273ZM803.817 36.7216C804.566 36.7216 805.181 36.5298 805.664 36.1463C806.147 35.7628 806.504 35.2585 806.737 34.6335C806.969 34.0085 807.085 33.3314 807.085 32.6023C807.085 31.8731 806.969 31.1937 806.737 30.5639C806.504 29.9342 806.147 29.4252 805.664 29.0369C805.181 28.6487 804.566 28.4545 803.817 28.4545C803.069 28.4545 802.454 28.6487 801.971 29.0369C801.488 29.4252 801.13 29.9342 800.898 30.5639C800.666 31.1937 800.55 31.8731 800.55 32.6023C800.55 33.3314 800.666 34.0085 800.898 34.6335C801.13 35.2585 801.488 35.7628 801.971 36.1463C802.454 36.5298 803.069 36.7216 803.817 36.7216ZM811.319 38V27.0909H812.939V28.7386H813.052C813.251 28.1989 813.611 27.7609 814.132 27.4247C814.653 27.0885 815.24 26.9205 815.893 26.9205C816.016 26.9205 816.17 26.9228 816.355 26.9276C816.539 26.9323 816.679 26.9394 816.774 26.9489V28.6534C816.717 28.6392 816.587 28.6179 816.383 28.5895C816.184 28.5563 815.974 28.5398 815.751 28.5398C815.221 28.5398 814.747 28.651 814.331 28.8736C813.919 29.0914 813.592 29.3944 813.35 29.7827C813.114 30.1662 812.995 30.6042 812.995 31.0966V38H811.319ZM818.732 38.1136C818.382 38.1136 818.081 37.9882 817.83 37.7372C817.579 37.4863 817.454 37.1856 817.454 36.8352C817.454 36.4848 817.579 36.1842 817.83 35.9332C818.081 35.6823 818.382 35.5568 818.732 35.5568C819.083 35.5568 819.383 35.6823 819.634 35.9332C819.885 36.1842 820.011 36.4848 820.011 36.8352C820.011 37.0672 819.951 37.2803 819.833 37.4744C819.719 37.6686 819.566 37.8248 819.371 37.9432C819.182 38.0568 818.969 38.1136 818.732 38.1136ZM827.763 27.0909V28.5114H822.109V27.0909H827.763ZM823.757 24.4773H825.433V34.875C825.433 35.3485 825.502 35.7036 825.639 35.9403C825.781 36.1723 825.961 36.3286 826.179 36.4091C826.402 36.4848 826.636 36.5227 826.882 36.5227C827.067 36.5227 827.218 36.5133 827.337 36.4943C827.455 36.4706 827.55 36.4517 827.621 36.4375L827.962 37.9432C827.848 37.9858 827.689 38.0284 827.486 38.071C827.282 38.1184 827.024 38.142 826.712 38.142C826.238 38.142 825.774 38.0402 825.32 37.8366C824.87 37.633 824.496 37.3229 824.197 36.9062C823.904 36.4896 823.757 35.964 823.757 35.3295V24.4773ZM832.195 31.4375V38H830.518V23.4545H832.195V28.7955H832.337C832.592 28.232 832.976 27.7846 833.487 27.4531C834.003 27.117 834.69 26.9489 835.547 26.9489C836.29 26.9489 836.941 27.098 837.5 27.3963C838.059 27.6899 838.492 28.142 838.8 28.7528C839.112 29.3589 839.268 30.1307 839.268 31.0682V38H837.592V31.1818C837.592 30.3153 837.367 29.6454 836.918 29.1719C836.473 28.6937 835.855 28.4545 835.064 28.4545C834.515 28.4545 834.022 28.5705 833.587 28.8026C833.156 29.0346 832.815 29.3731 832.564 29.8182C832.318 30.2633 832.195 30.803 832.195 31.4375ZM846.909 38.2273C845.858 38.2273 844.951 37.9953 844.189 37.5312C843.431 37.0625 842.846 36.4091 842.434 35.571C842.027 34.7282 841.824 33.7481 841.824 32.6307C841.824 31.5133 842.027 30.5284 842.434 29.6761C842.846 28.8191 843.419 28.1515 844.153 27.6733C844.892 27.1903 845.753 26.9489 846.738 26.9489C847.306 26.9489 847.868 27.0436 848.422 27.233C848.975 27.4223 849.48 27.7301 849.934 28.1562C850.389 28.5777 850.751 29.1364 851.021 29.8324C851.291 30.5284 851.426 31.3854 851.426 32.4034V33.1136H843.017V31.6648H849.721C849.721 31.0492 849.598 30.5 849.352 30.017C849.11 29.5341 848.765 29.1529 848.315 28.8736C847.87 28.5942 847.344 28.4545 846.738 28.4545C846.071 28.4545 845.493 28.6203 845.005 28.9517C844.522 29.2784 844.151 29.7045 843.89 30.2301C843.63 30.7557 843.5 31.3191 843.5 31.9205V32.8864C843.5 33.7102 843.642 34.4086 843.926 34.9815C844.215 35.5497 844.615 35.983 845.126 36.2812C845.637 36.5748 846.232 36.7216 846.909 36.7216C847.349 36.7216 847.747 36.66 848.102 36.5369C848.462 36.4091 848.772 36.2197 849.032 35.9688C849.293 35.7131 849.494 35.3958 849.636 35.017L851.255 35.4716C851.085 36.0208 850.798 36.5038 850.396 36.9205C849.993 37.3324 849.496 37.6544 848.904 37.8864C848.313 38.1136 847.647 38.2273 846.909 38.2273ZM853.975 38V27.0909H855.595V28.7955H855.737C855.964 28.2131 856.331 27.7609 856.838 27.4389C857.344 27.1122 857.953 26.9489 858.663 26.9489C859.383 26.9489 859.982 27.1122 860.46 27.4389C860.943 27.7609 861.319 28.2131 861.589 28.7955H861.703C861.982 28.232 862.401 27.7846 862.96 27.4531C863.519 27.117 864.189 26.9489 864.97 26.9489C865.945 26.9489 866.743 27.2543 867.363 27.8651C867.984 28.4711 868.294 29.4157 868.294 30.6989V38H866.618V30.6989C866.618 29.8939 866.397 29.3187 865.957 28.973C865.517 28.6274 864.998 28.4545 864.402 28.4545C863.635 28.4545 863.04 28.6866 862.619 29.1506C862.198 29.6098 861.987 30.1922 861.987 30.8977V38H860.282V30.5284C860.282 29.9081 860.081 29.4086 859.679 29.0298C859.276 28.6463 858.758 28.4545 858.123 28.4545C857.688 28.4545 857.28 28.5705 856.902 28.8026C856.528 29.0346 856.225 29.3565 855.993 29.7685C855.765 30.1757 855.652 30.6468 855.652 31.1818V38H853.975ZM875.932 38.2273C874.881 38.2273 873.974 37.9953 873.212 37.5312C872.454 37.0625 871.87 36.4091 871.458 35.571C871.051 34.7282 870.847 33.7481 870.847 32.6307C870.847 31.5133 871.051 30.5284 871.458 29.6761C871.87 28.8191 872.443 28.1515 873.176 27.6733C873.915 27.1903 874.777 26.9489 875.762 26.9489C876.33 26.9489 876.891 27.0436 877.445 27.233C877.999 27.4223 878.503 27.7301 878.958 28.1562C879.412 28.5777 879.775 29.1364 880.044 29.8324C880.314 30.5284 880.449 31.3854 880.449 32.4034V33.1136H872.04V31.6648H878.745C878.745 31.0492 878.622 30.5 878.375 30.017C878.134 29.5341 877.788 29.1529 877.338 28.8736C876.893 28.5942 876.368 28.4545 875.762 28.4545C875.094 28.4545 874.516 28.6203 874.029 28.9517C873.546 29.2784 873.174 29.7045 872.914 30.2301C872.653 30.7557 872.523 31.3191 872.523 31.9205V32.8864C872.523 33.7102 872.665 34.4086 872.949 34.9815C873.238 35.5497 873.638 35.983 874.15 36.2812C874.661 36.5748 875.255 36.7216 875.932 36.7216C876.373 36.7216 876.77 36.66 877.125 36.5369C877.485 36.4091 877.795 36.2197 878.056 35.9688C878.316 35.7131 878.517 35.3958 878.659 35.017L880.279 35.4716C880.108 36.0208 879.822 36.5038 879.419 36.9205C879.017 37.3324 878.52 37.6544 877.928 37.8864C877.336 38.1136 876.671 38.2273 875.932 38.2273ZM884.221 38.1136C883.87 38.1136 883.569 37.9882 883.319 37.7372C883.068 37.4863 882.942 37.1856 882.942 36.8352C882.942 36.4848 883.068 36.1842 883.319 35.9332C883.569 35.6823 883.87 35.5568 884.221 35.5568C884.571 35.5568 884.872 35.6823 885.123 35.9332C885.373 36.1842 885.499 36.4848 885.499 36.8352C885.499 37.0672 885.44 37.2803 885.321 37.4744C885.208 37.6686 885.054 37.8248 884.86 37.9432C884.67 38.0568 884.457 38.1136 884.221 38.1136ZM888.734 38V23.4545H890.41V28.8239H890.552C890.675 28.6345 890.846 28.393 891.064 28.0994C891.286 27.8011 891.603 27.536 892.015 27.304C892.432 27.0672 892.995 26.9489 893.706 26.9489C894.624 26.9489 895.434 27.1785 896.135 27.6378C896.835 28.0971 897.382 28.7481 897.775 29.5909C898.168 30.4337 898.365 31.428 898.365 32.5739C898.365 33.7292 898.168 34.7306 897.775 35.5781C897.382 36.4209 896.838 37.0743 896.142 37.5384C895.446 37.9976 894.643 38.2273 893.734 38.2273C893.033 38.2273 892.472 38.1113 892.051 37.8793C891.629 37.6425 891.305 37.375 891.078 37.0767C890.85 36.7737 890.675 36.5227 890.552 36.3239H890.353V38H888.734ZM890.382 32.5455C890.382 33.3693 890.502 34.0961 890.744 34.7259C890.985 35.3509 891.338 35.8409 891.802 36.196C892.266 36.5464 892.834 36.7216 893.507 36.7216C894.208 36.7216 894.792 36.5369 895.261 36.1676C895.734 35.7936 896.09 35.2917 896.326 34.6619C896.568 34.0275 896.689 33.322 896.689 32.5455C896.689 31.7784 896.57 31.0871 896.333 30.4716C896.101 29.8513 895.749 29.3613 895.275 29.0014C894.806 28.6368 894.217 28.4545 893.507 28.4545C892.825 28.4545 892.252 28.6274 891.788 28.973C891.324 29.3139 890.974 29.7921 890.737 30.4077C890.5 31.0185 890.382 31.7311 890.382 32.5455ZM905.36 38.2273C904.376 38.2273 903.511 37.9929 902.768 37.5241C902.029 37.0554 901.452 36.3996 901.035 35.5568C900.623 34.714 900.417 33.7292 900.417 32.6023C900.417 31.4659 900.623 30.474 901.035 29.6264C901.452 28.7789 902.029 28.1207 902.768 27.652C903.511 27.1832 904.376 26.9489 905.36 26.9489C906.345 26.9489 907.207 27.1832 907.946 27.652C908.689 28.1207 909.267 28.7789 909.679 29.6264C910.095 30.474 910.304 31.4659 910.304 32.6023C910.304 33.7292 910.095 34.714 909.679 35.5568C909.267 36.3996 908.689 37.0554 907.946 37.5241C907.207 37.9929 906.345 38.2273 905.36 38.2273ZM905.36 36.7216C906.109 36.7216 906.724 36.5298 907.207 36.1463C907.69 35.7628 908.047 35.2585 908.279 34.6335C908.511 34.0085 908.627 33.3314 908.627 32.6023C908.627 31.8731 908.511 31.1937 908.279 30.5639C908.047 29.9342 907.69 29.4252 907.207 29.0369C906.724 28.6487 906.109 28.4545 905.36 28.4545C904.612 28.4545 903.997 28.6487 903.514 29.0369C903.031 29.4252 902.673 29.9342 902.441 30.5639C902.209 31.1937 902.093 31.8731 902.093 32.6023C902.093 33.3314 902.209 34.0085 902.441 34.6335C902.673 35.2585 903.031 35.7628 903.514 36.1463C903.997 36.5298 904.612 36.7216 905.36 36.7216ZM912.862 38V27.0909H914.482V28.7386H914.595C914.794 28.1989 915.154 27.7609 915.675 27.4247C916.196 27.0885 916.783 26.9205 917.436 26.9205C917.559 26.9205 917.713 26.9228 917.898 26.9276C918.082 26.9323 918.222 26.9394 918.317 26.9489V28.6534C918.26 28.6392 918.13 28.6179 917.926 28.5895C917.727 28.5563 917.517 28.5398 917.294 28.5398C916.764 28.5398 916.29 28.651 915.874 28.8736C915.462 29.0914 915.135 29.3944 914.893 29.7827C914.657 30.1662 914.538 30.6042 914.538 31.0966V38H912.862ZM924.091 38.2273C923.182 38.2273 922.379 37.9976 921.683 37.5384C920.987 37.0743 920.443 36.4209 920.05 35.5781C919.657 34.7306 919.46 33.7292 919.46 32.5739C919.46 31.428 919.657 30.4337 920.05 29.5909C920.443 28.7481 920.99 28.0971 921.69 27.6378C922.391 27.1785 923.201 26.9489 924.119 26.9489C924.83 26.9489 925.391 27.0672 925.803 27.304C926.219 27.536 926.536 27.8011 926.754 28.0994C926.977 28.393 927.15 28.6345 927.273 28.8239H927.415V23.4545H929.091V38H927.472V36.3239H927.273C927.15 36.5227 926.974 36.7737 926.747 37.0767C926.52 37.375 926.196 37.6425 925.774 37.8793C925.353 38.1113 924.792 38.2273 924.091 38.2273ZM924.318 36.7216C924.991 36.7216 925.559 36.5464 926.023 36.196C926.487 35.8409 926.839 35.3509 927.081 34.7259C927.322 34.0961 927.443 33.3693 927.443 32.5455C927.443 31.7311 927.325 31.0185 927.088 30.4077C926.851 29.7921 926.501 29.3139 926.037 28.973C925.573 28.6274 925 28.4545 924.318 28.4545C923.608 28.4545 923.016 28.6368 922.543 29.0014C922.074 29.3613 921.721 29.8513 921.484 30.4716C921.252 31.0871 921.136 31.7784 921.136 32.5455C921.136 33.322 921.255 34.0275 921.491 34.6619C921.733 35.2917 922.088 35.7936 922.557 36.1676C923.03 36.5369 923.617 36.7216 924.318 36.7216ZM936.967 38.2273C935.916 38.2273 935.009 37.9953 934.247 37.5312C933.49 37.0625 932.905 36.4091 932.493 35.571C932.086 34.7282 931.882 33.7481 931.882 32.6307C931.882 31.5133 932.086 30.5284 932.493 29.6761C932.905 28.8191 933.478 28.1515 934.212 27.6733C934.95 27.1903 935.812 26.9489 936.797 26.9489C937.365 26.9489 937.926 27.0436 938.48 27.233C939.034 27.4223 939.538 27.7301 939.993 28.1562C940.447 28.5777 940.81 29.1364 941.08 29.8324C941.349 30.5284 941.484 31.3854 941.484 32.4034V33.1136H933.075V31.6648H939.78C939.78 31.0492 939.657 30.5 939.411 30.017C939.169 29.5341 938.823 29.1529 938.374 28.8736C937.929 28.5942 937.403 28.4545 936.797 28.4545C936.129 28.4545 935.552 28.6203 935.064 28.9517C934.581 29.2784 934.209 29.7045 933.949 30.2301C933.688 30.7557 933.558 31.3191 933.558 31.9205V32.8864C933.558 33.7102 933.7 34.4086 933.984 34.9815C934.273 35.5497 934.673 35.983 935.185 36.2812C935.696 36.5748 936.29 36.7216 936.967 36.7216C937.408 36.7216 937.805 36.66 938.161 36.5369C938.52 36.4091 938.83 36.2197 939.091 35.9688C939.351 35.7131 939.553 35.3958 939.695 35.017L941.314 35.4716C941.143 36.0208 940.857 36.5038 940.455 36.9205C940.052 37.3324 939.555 37.6544 938.963 37.8864C938.371 38.1136 937.706 38.2273 936.967 38.2273ZM944.034 38V27.0909H945.653V28.7386H945.767C945.966 28.1989 946.326 27.7609 946.847 27.4247C947.367 27.0885 947.955 26.9205 948.608 26.9205C948.731 26.9205 948.885 26.9228 949.07 26.9276C949.254 26.9323 949.394 26.9394 949.489 26.9489V28.6534C949.432 28.6392 949.302 28.6179 949.098 28.5895C948.899 28.5563 948.688 28.5398 948.466 28.5398C947.936 28.5398 947.462 28.651 947.045 28.8736C946.634 29.0914 946.307 29.3944 946.065 29.7827C945.829 30.1662 945.71 30.6042 945.71 31.0966V38H944.034ZM951.447 38.1136C951.097 38.1136 950.796 37.9882 950.545 37.7372C950.294 37.4863 950.169 37.1856 950.169 36.8352C950.169 36.4848 950.294 36.1842 950.545 35.9332C950.796 35.6823 951.097 35.5568 951.447 35.5568C951.797 35.5568 952.098 35.6823 952.349 35.9332C952.6 36.1842 952.725 36.4848 952.725 36.8352C952.725 37.0672 952.666 37.2803 952.548 37.4744C952.434 37.6686 952.28 37.8248 952.086 37.9432C951.897 38.0568 951.684 38.1136 951.447 38.1136ZM957.409 31.4375V38H955.733V27.0909H957.353V28.7955H957.495C957.75 28.2415 958.139 27.7964 958.659 27.4602C959.18 27.1193 959.853 26.9489 960.676 26.9489C961.415 26.9489 962.061 27.1004 962.615 27.4034C963.169 27.7017 963.6 28.1562 963.908 28.767C964.216 29.3731 964.37 30.1402 964.37 31.0682V38H962.694V31.1818C962.694 30.3248 962.471 29.6572 962.026 29.179C961.581 28.696 960.97 28.4545 960.194 28.4545C959.658 28.4545 959.18 28.5705 958.759 28.8026C958.342 29.0346 958.013 29.3731 957.772 29.8182C957.53 30.2633 957.409 30.803 957.409 31.4375ZM972.006 38.2273C970.955 38.2273 970.049 37.9953 969.286 37.5312C968.529 37.0625 967.944 36.4091 967.532 35.571C967.125 34.7282 966.921 33.7481 966.921 32.6307C966.921 31.5133 967.125 30.5284 967.532 29.6761C967.944 28.8191 968.517 28.1515 969.251 27.6733C969.989 27.1903 970.851 26.9489 971.836 26.9489C972.404 26.9489 972.965 27.0436 973.519 27.233C974.073 27.4223 974.577 27.7301 975.032 28.1562C975.487 28.5777 975.849 29.1364 976.119 29.8324C976.388 30.5284 976.523 31.3854 976.523 32.4034V33.1136H968.114V31.6648H974.819C974.819 31.0492 974.696 30.5 974.45 30.017C974.208 29.5341 973.862 29.1529 973.413 28.8736C972.968 28.5942 972.442 28.4545 971.836 28.4545C971.168 28.4545 970.591 28.6203 970.103 28.9517C969.62 29.2784 969.248 29.7045 968.988 30.2301C968.728 30.7557 968.597 31.3191 968.597 31.9205V32.8864C968.597 33.7102 968.739 34.4086 969.023 34.9815C969.312 35.5497 969.712 35.983 970.224 36.2812C970.735 36.5748 971.329 36.7216 972.006 36.7216C972.447 36.7216 972.844 36.66 973.2 36.5369C973.559 36.4091 973.87 36.2197 974.13 35.9688C974.39 35.7131 974.592 35.3958 974.734 35.017L976.353 35.4716C976.183 36.0208 975.896 36.5038 975.494 36.9205C975.091 37.3324 974.594 37.6544 974.002 37.8864C973.41 38.1136 972.745 38.2273 972.006 38.2273ZM985.948 33.5398V27.0909H987.624V38H985.948V36.1534H985.835C985.579 36.7074 985.181 37.1785 984.641 37.5668C984.102 37.9503 983.42 38.142 982.596 38.142C981.914 38.142 981.308 37.9929 980.778 37.6946C980.247 37.3916 979.831 36.937 979.528 36.331C979.225 35.7202 979.073 34.9508 979.073 34.0227V27.0909H980.749V33.9091C980.749 34.7045 980.972 35.339 981.417 35.8125C981.867 36.286 982.44 36.5227 983.136 36.5227C983.552 36.5227 983.976 36.4162 984.407 36.2031C984.843 35.9901 985.207 35.6634 985.501 35.223C985.799 34.7827 985.948 34.2216 985.948 33.5398ZM995.439 27.0909V28.5114H989.785V27.0909H995.439ZM991.433 24.4773H993.109V34.875C993.109 35.3485 993.178 35.7036 993.315 35.9403C993.457 36.1723 993.637 36.3286 993.855 36.4091C994.077 36.4848 994.312 36.5227 994.558 36.5227C994.743 36.5227 994.894 36.5133 995.012 36.4943C995.131 36.4706 995.225 36.4517 995.297 36.4375L995.637 37.9432C995.524 37.9858 995.365 38.0284 995.162 38.071C994.958 38.1184 994.7 38.142 994.387 38.142C993.914 38.142 993.45 38.0402 992.995 37.8366C992.546 37.633 992.172 37.3229 991.873 36.9062C991.58 36.4896 991.433 35.964 991.433 35.3295V24.4773ZM997.96 38V27.0909H999.579V28.7386H999.693C999.892 28.1989 1000.25 27.7609 1000.77 27.4247C1001.29 27.0885 1001.88 26.9205 1002.53 26.9205C1002.66 26.9205 1002.81 26.9228 1003 26.9276C1003.18 26.9323 1003.32 26.9394 1003.41 26.9489V28.6534C1003.36 28.6392 1003.23 28.6179 1003.02 28.5895C1002.82 28.5563 1002.61 28.5398 1002.39 28.5398C1001.86 28.5398 1001.39 28.651 1000.97 28.8736C1000.56 29.0914 1000.23 29.3944 999.991 29.7827C999.754 30.1662 999.636 30.6042 999.636 31.0966V38H997.96ZM1008.61 38.2557C1007.92 38.2557 1007.29 38.1255 1006.73 37.8651C1006.17 37.5999 1005.72 37.2188 1005.39 36.7216C1005.06 36.2197 1004.89 35.6136 1004.89 34.9034C1004.89 34.2784 1005.01 33.7718 1005.26 33.3835C1005.51 32.9905 1005.83 32.6828 1006.25 32.4602C1006.66 32.2377 1007.11 32.072 1007.61 31.9631C1008.11 31.8494 1008.62 31.7595 1009.12 31.6932C1009.79 31.608 1010.32 31.544 1010.74 31.5014C1011.15 31.4541 1011.45 31.3759 1011.64 31.267C1011.84 31.1581 1011.94 30.9687 1011.94 30.6989V30.642C1011.94 29.9413 1011.74 29.3968 1011.36 29.0085C1010.98 28.6203 1010.41 28.4261 1009.63 28.4261C1008.83 28.4261 1008.21 28.6013 1007.75 28.9517C1007.3 29.3021 1006.98 29.6761 1006.79 30.0739L1005.2 29.5057C1005.49 28.8428 1005.87 28.3267 1006.34 27.9574C1006.82 27.5833 1007.34 27.3229 1007.9 27.1761C1008.47 27.0246 1009.03 26.9489 1009.58 26.9489C1009.93 26.9489 1010.33 26.9915 1010.78 27.0767C1011.24 27.1572 1011.69 27.3253 1012.11 27.581C1012.54 27.8366 1012.9 28.2225 1013.19 28.7386C1013.47 29.2547 1013.61 29.946 1013.61 30.8125V38H1011.94V36.5227H1011.85C1011.74 36.7595 1011.55 37.0128 1011.28 37.2827C1011.02 37.5526 1010.66 37.7822 1010.22 37.9716C1009.78 38.161 1009.25 38.2557 1008.61 38.2557ZM1008.87 36.75C1009.53 36.75 1010.09 36.6198 1010.54 36.3594C1011 36.099 1011.35 35.7628 1011.58 35.3509C1011.82 34.9389 1011.94 34.5057 1011.94 34.0511V32.517C1011.86 32.6023 1011.71 32.6804 1011.47 32.7514C1011.23 32.8177 1010.96 32.8769 1010.64 32.929C1010.33 32.9763 1010.03 33.0189 1009.74 33.0568C1009.45 33.09 1009.22 33.1184 1009.04 33.142C1008.6 33.1989 1008.19 33.2912 1007.82 33.419C1007.44 33.5421 1007.14 33.7292 1006.91 33.9801C1006.68 34.2263 1006.57 34.5625 1006.57 34.9886C1006.57 35.571 1006.78 36.0114 1007.21 36.3097C1007.65 36.6032 1008.2 36.75 1008.87 36.75ZM1018.35 23.4545V38H1016.67V23.4545H1018.35ZM1022.64 38.1136C1022.29 38.1136 1021.99 37.9882 1021.74 37.7372C1021.49 37.4863 1021.36 37.1856 1021.36 36.8352C1021.36 36.4848 1021.49 36.1842 1021.74 35.9332C1021.99 35.6823 1022.29 35.5568 1022.64 35.5568C1022.99 35.5568 1023.29 35.6823 1023.54 35.9332C1023.79 36.1842 1023.92 36.4848 1023.92 36.8352C1023.92 37.0672 1023.86 37.2803 1023.74 37.4744C1023.63 37.6686 1023.47 37.8248 1023.28 37.9432C1023.09 38.0568 1022.88 38.1136 1022.64 38.1136ZM1031.13 38.1989C1030.06 38.1989 1029.15 37.9077 1028.4 37.3253C1027.65 36.7382 1027.07 35.8883 1026.67 34.7756C1026.27 33.6581 1026.08 32.3087 1026.08 30.7273C1026.08 29.1553 1026.27 27.813 1026.67 26.7003C1027.08 25.5829 1027.65 24.7306 1028.41 24.1435C1029.16 23.5516 1030.07 23.2557 1031.13 23.2557C1032.19 23.2557 1033.1 23.5516 1033.85 24.1435C1034.61 24.7306 1035.19 25.5829 1035.59 26.7003C1035.99 27.813 1036.19 29.1553 1036.19 30.7273C1036.19 32.3087 1035.99 33.6581 1035.59 34.7756C1035.2 35.8883 1034.62 36.7382 1033.87 37.3253C1033.11 37.9077 1032.2 38.1989 1031.13 38.1989ZM1031.13 36.6364C1032.19 36.6364 1033.02 36.125 1033.6 35.1023C1034.19 34.0795 1034.49 32.6212 1034.49 30.7273C1034.49 29.4678 1034.35 28.3954 1034.08 27.5099C1033.82 26.6245 1033.43 25.9498 1032.93 25.4858C1032.43 25.0218 1031.83 24.7898 1031.13 24.7898C1030.08 24.7898 1029.26 25.3082 1028.67 26.3452C1028.08 27.3774 1027.78 28.8381 1027.78 30.7273C1027.78 31.9867 1027.91 33.0568 1028.18 33.9375C1028.44 34.8182 1028.82 35.4882 1029.32 35.9474C1029.82 36.4067 1030.43 36.6364 1031.13 36.6364ZM1038.55 35.017V33.5682L1044.94 23.4545H1045.99V25.6989H1045.28L1040.45 33.3409V33.4545H1049.06V35.017H1038.55ZM1045.39 38V34.5767V33.902V23.4545H1047.07V38H1045.39ZM771.761 68V53.4545H773.438V58.8239H773.58C773.703 58.6345 773.873 58.393 774.091 58.0994C774.313 57.8011 774.631 57.536 775.043 57.304C775.459 57.0672 776.023 56.9489 776.733 56.9489C777.652 56.9489 778.461 57.1785 779.162 57.6378C779.863 58.0971 780.41 58.7481 780.803 59.5909C781.196 60.4337 781.392 61.428 781.392 62.5739C781.392 63.7292 781.196 64.7306 780.803 65.5781C780.41 66.4209 779.865 67.0743 779.169 67.5384C778.473 67.9976 777.67 68.2273 776.761 68.2273C776.061 68.2273 775.5 68.1113 775.078 67.8793C774.657 67.6425 774.332 67.375 774.105 67.0767C773.878 66.7737 773.703 66.5227 773.58 66.3239H773.381V68H771.761ZM773.409 62.5455C773.409 63.3693 773.53 64.0961 773.771 64.7259C774.013 65.3509 774.366 65.8409 774.83 66.196C775.294 66.5464 775.862 66.7216 776.534 66.7216C777.235 66.7216 777.82 66.5369 778.288 66.1676C778.762 65.7936 779.117 65.2917 779.354 64.6619C779.595 64.0275 779.716 63.322 779.716 62.5455C779.716 61.7784 779.598 61.0871 779.361 60.4716C779.129 59.8513 778.776 59.3613 778.303 59.0014C777.834 58.6368 777.244 58.4545 776.534 58.4545C775.852 58.4545 775.279 58.6274 774.815 58.973C774.351 59.3139 774.001 59.7921 773.764 60.4077C773.527 61.0185 773.409 61.7311 773.409 62.5455ZM788.388 68.2273C787.403 68.2273 786.539 67.9929 785.795 67.5241C785.057 67.0554 784.479 66.3996 784.062 65.5568C783.651 64.714 783.445 63.7292 783.445 62.6023C783.445 61.4659 783.651 60.474 784.062 59.6264C784.479 58.7789 785.057 58.1207 785.795 57.652C786.539 57.1832 787.403 56.9489 788.388 56.9489C789.373 56.9489 790.234 57.1832 790.973 57.652C791.716 58.1207 792.294 58.7789 792.706 59.6264C793.123 60.474 793.331 61.4659 793.331 62.6023C793.331 63.7292 793.123 64.714 792.706 65.5568C792.294 66.3996 791.716 67.0554 790.973 67.5241C790.234 67.9929 789.373 68.2273 788.388 68.2273ZM788.388 66.7216C789.136 66.7216 789.751 66.5298 790.234 66.1463C790.717 65.7628 791.075 65.2585 791.307 64.6335C791.539 64.0085 791.655 63.3314 791.655 62.6023C791.655 61.8731 791.539 61.1937 791.307 60.5639C791.075 59.9342 790.717 59.4252 790.234 59.0369C789.751 58.6487 789.136 58.4545 788.388 58.4545C787.64 58.4545 787.024 58.6487 786.541 59.0369C786.058 59.4252 785.701 59.9342 785.469 60.5639C785.237 61.1937 785.121 61.8731 785.121 62.6023C785.121 63.3314 785.237 64.0085 785.469 64.6335C785.701 65.2585 786.058 65.7628 786.541 66.1463C787.024 66.5298 787.64 66.7216 788.388 66.7216ZM795.89 68V57.0909H797.509V58.7386H797.623C797.821 58.1989 798.181 57.7609 798.702 57.4247C799.223 57.0885 799.81 56.9205 800.463 56.9205C800.587 56.9205 800.74 56.9228 800.925 56.9276C801.11 56.9323 801.249 56.9394 801.344 56.9489V58.6534C801.287 58.6392 801.157 58.6179 800.953 58.5895C800.755 58.5563 800.544 58.5398 800.321 58.5398C799.791 58.5398 799.318 58.651 798.901 58.8736C798.489 59.0914 798.162 59.3944 797.921 59.7827C797.684 60.1662 797.566 60.6042 797.566 61.0966V68H795.89ZM807.118 68.2273C806.209 68.2273 805.407 67.9976 804.711 67.5384C804.015 67.0743 803.47 66.4209 803.077 65.5781C802.684 64.7306 802.488 63.7292 802.488 62.5739C802.488 61.428 802.684 60.4337 803.077 59.5909C803.47 58.7481 804.017 58.0971 804.718 57.6378C805.418 57.1785 806.228 56.9489 807.147 56.9489C807.857 56.9489 808.418 57.0672 808.83 57.304C809.247 57.536 809.564 57.8011 809.782 58.0994C810.004 58.393 810.177 58.6345 810.3 58.8239H810.442V53.4545H812.118V68H810.499V66.3239H810.3C810.177 66.5227 810.002 66.7737 809.775 67.0767C809.547 67.375 809.223 67.6425 808.801 67.8793C808.38 68.1113 807.819 68.2273 807.118 68.2273ZM807.346 66.7216C808.018 66.7216 808.586 66.5464 809.05 66.196C809.514 65.8409 809.867 65.3509 810.108 64.7259C810.35 64.0961 810.471 63.3693 810.471 62.5455C810.471 61.7311 810.352 61.0185 810.115 60.4077C809.879 59.7921 809.528 59.3139 809.064 58.973C808.6 58.6274 808.027 58.4545 807.346 58.4545C806.635 58.4545 806.043 58.6368 805.57 59.0014C805.101 59.3613 804.748 59.8513 804.512 60.4716C804.28 61.0871 804.164 61.7784 804.164 62.5455C804.164 63.322 804.282 64.0275 804.519 64.6619C804.76 65.2917 805.115 65.7936 805.584 66.1676C806.058 66.5369 806.645 66.7216 807.346 66.7216ZM819.995 68.2273C818.944 68.2273 818.037 67.9953 817.275 67.5312C816.517 67.0625 815.932 66.4091 815.52 65.571C815.113 64.7282 814.909 63.7481 814.909 62.6307C814.909 61.5133 815.113 60.5284 815.52 59.6761C815.932 58.8191 816.505 58.1515 817.239 57.6733C817.978 57.1903 818.839 56.9489 819.824 56.9489C820.392 56.9489 820.953 57.0436 821.507 57.233C822.061 57.4223 822.566 57.7301 823.02 58.1562C823.475 58.5777 823.837 59.1364 824.107 59.8324C824.377 60.5284 824.512 61.3854 824.512 62.4034V63.1136H816.103V61.6648H822.807C822.807 61.0492 822.684 60.5 822.438 60.017C822.196 59.5341 821.851 59.1529 821.401 58.8736C820.956 58.5942 820.43 58.4545 819.824 58.4545C819.157 58.4545 818.579 58.6203 818.091 58.9517C817.608 59.2784 817.237 59.7045 816.976 60.2301C816.716 60.7557 816.586 61.3191 816.586 61.9205V62.8864C816.586 63.7102 816.728 64.4086 817.012 64.9815C817.301 65.5497 817.701 65.983 818.212 66.2812C818.723 66.5748 819.318 66.7216 819.995 66.7216C820.435 66.7216 820.833 66.66 821.188 66.5369C821.548 66.4091 821.858 66.2197 822.118 65.9688C822.379 65.7131 822.58 65.3958 822.722 65.017L824.341 65.4716C824.171 66.0208 823.884 66.5038 823.482 66.9205C823.079 67.3324 822.582 67.6544 821.99 67.8864C821.399 68.1136 820.733 68.2273 819.995 68.2273ZM827.061 68V57.0909H828.681V58.7386H828.794C828.993 58.1989 829.353 57.7609 829.874 57.4247C830.395 57.0885 830.982 56.9205 831.635 56.9205C831.758 56.9205 831.912 56.9228 832.097 56.9276C832.282 56.9323 832.421 56.9394 832.516 56.9489V58.6534C832.459 58.6392 832.329 58.6179 832.125 58.5895C831.926 58.5563 831.716 58.5398 831.493 58.5398C830.963 58.5398 830.489 58.651 830.073 58.8736C829.661 59.0914 829.334 59.3944 829.093 59.7827C828.856 60.1662 828.738 60.6042 828.738 61.0966V68H827.061ZM839.952 60.983V62.5455H833.588V60.983H839.952ZM845.373 68L842.049 57.0909H843.81L846.168 65.4432H846.282L848.612 57.0909H850.401L852.702 65.4148H852.816L855.174 57.0909H856.935L853.612 68H851.964L849.577 59.6193H849.407L847.021 68H845.373ZM859.151 68V57.0909H860.827V68H859.151ZM860.004 55.2727C859.677 55.2727 859.395 55.1615 859.158 54.9389C858.926 54.7164 858.81 54.4489 858.81 54.1364C858.81 53.8239 858.926 53.5563 859.158 53.3338C859.395 53.1113 859.677 53 860.004 53C860.33 53 860.61 53.1113 860.842 53.3338C861.078 53.5563 861.197 53.8239 861.197 54.1364C861.197 54.4489 861.078 54.7164 860.842 54.9389C860.61 55.1615 860.33 55.2727 860.004 55.2727ZM868.017 68.2273C867.108 68.2273 866.305 67.9976 865.609 67.5384C864.913 67.0743 864.368 66.4209 863.975 65.5781C863.583 64.7306 863.386 63.7292 863.386 62.5739C863.386 61.428 863.583 60.4337 863.975 59.5909C864.368 58.7481 864.915 58.0971 865.616 57.6378C866.317 57.1785 867.127 56.9489 868.045 56.9489C868.755 56.9489 869.316 57.0672 869.728 57.304C870.145 57.536 870.462 57.8011 870.68 58.0994C870.903 58.393 871.075 58.6345 871.199 58.8239H871.341V53.4545H873.017V68H871.397V66.3239H871.199C871.075 66.5227 870.9 66.7737 870.673 67.0767C870.446 67.375 870.121 67.6425 869.7 67.8793C869.279 68.1113 868.717 68.2273 868.017 68.2273ZM868.244 66.7216C868.916 66.7216 869.484 66.5464 869.949 66.196C870.413 65.8409 870.765 65.3509 871.007 64.7259C871.248 64.0961 871.369 63.3693 871.369 62.5455C871.369 61.7311 871.251 61.0185 871.014 60.4077C870.777 59.7921 870.427 59.3139 869.963 58.973C869.499 58.6274 868.926 58.4545 868.244 58.4545C867.534 58.4545 866.942 58.6368 866.468 59.0014C866 59.3613 865.647 59.8513 865.41 60.4716C865.178 61.0871 865.062 61.7784 865.062 62.5455C865.062 63.322 865.181 64.0275 865.417 64.6619C865.659 65.2917 866.014 65.7936 866.483 66.1676C866.956 66.5369 867.543 66.7216 868.244 66.7216ZM881.064 57.0909V58.5114H875.41V57.0909H881.064ZM877.058 54.4773H878.734V64.875C878.734 65.3485 878.803 65.7036 878.94 65.9403C879.082 66.1723 879.262 66.3286 879.48 66.4091C879.702 66.4848 879.937 66.5227 880.183 66.5227C880.368 66.5227 880.519 66.5133 880.637 66.4943C880.756 66.4706 880.85 66.4517 880.922 66.4375L881.262 67.9432C881.149 67.9858 880.99 68.0284 880.787 68.071C880.583 68.1184 880.325 68.142 880.012 68.142C879.539 68.142 879.075 68.0402 878.62 67.8366C878.171 67.633 877.797 67.3229 877.498 66.9062C877.205 66.4896 877.058 65.964 877.058 65.3295V54.4773ZM885.495 61.4375V68H883.819V53.4545H885.495V58.7955H885.637C885.893 58.232 886.277 57.7846 886.788 57.4531C887.304 57.117 887.991 56.9489 888.848 56.9489C889.591 56.9489 890.242 57.098 890.801 57.3963C891.359 57.6899 891.793 58.142 892.1 58.7528C892.413 59.3589 892.569 60.1307 892.569 61.0682V68H890.893V61.1818C890.893 60.3153 890.668 59.6454 890.218 59.1719C889.773 58.6937 889.155 58.4545 888.365 58.4545C887.815 58.4545 887.323 58.5705 886.887 58.8026C886.457 59.0346 886.116 59.3731 885.865 59.8182C885.618 60.2633 885.495 60.803 885.495 61.4375ZM896.857 68.1136C896.507 68.1136 896.206 67.9882 895.955 67.7372C895.704 67.4863 895.579 67.1856 895.579 66.8352C895.579 66.4848 895.704 66.1842 895.955 65.9332C896.206 65.6823 896.507 65.5568 896.857 65.5568C897.208 65.5568 897.508 65.6823 897.759 65.9332C898.01 66.1842 898.136 66.4848 898.136 66.8352C898.136 67.0672 898.076 67.2803 897.958 67.4744C897.844 67.6686 897.691 67.8248 897.496 67.9432C897.307 68.0568 897.094 68.1136 896.857 68.1136ZM901.143 68V57.0909H902.763V58.7955H902.905C903.132 58.2131 903.499 57.7609 904.006 57.4389C904.512 57.1122 905.121 56.9489 905.831 56.9489C906.551 56.9489 907.15 57.1122 907.628 57.4389C908.111 57.7609 908.487 58.2131 908.757 58.7955H908.871C909.15 58.232 909.569 57.7846 910.128 57.4531C910.687 57.117 911.357 56.9489 912.138 56.9489C913.113 56.9489 913.911 57.2543 914.531 57.8651C915.152 58.4711 915.462 59.4157 915.462 60.6989V68H913.786V60.6989C913.786 59.8939 913.565 59.3187 913.125 58.973C912.685 58.6274 912.166 58.4545 911.57 58.4545C910.803 58.4545 910.208 58.6866 909.787 59.1506C909.366 59.6098 909.155 60.1922 909.155 60.8977V68H907.45V60.5284C907.45 59.9081 907.249 59.4086 906.847 59.0298C906.444 58.6463 905.926 58.4545 905.291 58.4545C904.856 58.4545 904.448 58.5705 904.07 58.8026C903.696 59.0346 903.393 59.3565 903.161 59.7685C902.933 60.1757 902.82 60.6468 902.82 61.1818V68H901.143ZM923.1 68.2273C922.049 68.2273 921.142 67.9953 920.38 67.5312C919.622 67.0625 919.038 66.4091 918.626 65.571C918.219 64.7282 918.015 63.7481 918.015 62.6307C918.015 61.5133 918.219 60.5284 918.626 59.6761C919.038 58.8191 919.611 58.1515 920.344 57.6733C921.083 57.1903 921.945 56.9489 922.93 56.9489C923.498 56.9489 924.059 57.0436 924.613 57.233C925.167 57.4223 925.671 57.7301 926.126 58.1562C926.58 58.5777 926.942 59.1364 927.212 59.8324C927.482 60.5284 927.617 61.3854 927.617 62.4034V63.1136H919.208V61.6648H925.913C925.913 61.0492 925.79 60.5 925.543 60.017C925.302 59.5341 924.956 59.1529 924.506 58.8736C924.061 58.5942 923.536 58.4545 922.93 58.4545C922.262 58.4545 921.684 58.6203 921.197 58.9517C920.714 59.2784 920.342 59.7045 920.082 60.2301C919.821 60.7557 919.691 61.3191 919.691 61.9205V62.8864C919.691 63.7102 919.833 64.4086 920.117 64.9815C920.406 65.5497 920.806 65.983 921.317 66.2812C921.829 66.5748 922.423 66.7216 923.1 66.7216C923.54 66.7216 923.938 66.66 924.293 66.5369C924.653 66.4091 924.963 66.2197 925.224 65.9688C925.484 65.7131 925.685 65.3958 925.827 65.017L927.447 65.4716C927.276 66.0208 926.99 66.5038 926.587 66.9205C926.185 67.3324 925.688 67.6544 925.096 67.8864C924.504 68.1136 923.839 68.2273 923.1 68.2273ZM934.286 68.2273C933.377 68.2273 932.575 67.9976 931.879 67.5384C931.183 67.0743 930.638 66.4209 930.245 65.5781C929.852 64.7306 929.656 63.7292 929.656 62.5739C929.656 61.428 929.852 60.4337 930.245 59.5909C930.638 58.7481 931.185 58.0971 931.886 57.6378C932.586 57.1785 933.396 56.9489 934.315 56.9489C935.025 56.9489 935.586 57.0672 935.998 57.304C936.415 57.536 936.732 57.8011 936.95 58.0994C937.172 58.393 937.345 58.6345 937.468 58.8239H937.61V53.4545H939.286V68H937.667V66.3239H937.468C937.345 66.5227 937.17 66.7737 936.942 67.0767C936.715 67.375 936.391 67.6425 935.969 67.8793C935.548 68.1113 934.987 68.2273 934.286 68.2273ZM934.513 66.7216C935.186 66.7216 935.754 66.5464 936.218 66.196C936.682 65.8409 937.035 65.3509 937.276 64.7259C937.518 64.0961 937.638 63.3693 937.638 62.5455C937.638 61.7311 937.52 61.0185 937.283 60.4077C937.047 59.7921 936.696 59.3139 936.232 58.973C935.768 58.6274 935.195 58.4545 934.513 58.4545C933.803 58.4545 933.211 58.6368 932.738 59.0014C932.269 59.3613 931.916 59.8513 931.68 60.4716C931.448 61.0871 931.332 61.7784 931.332 62.5455C931.332 63.322 931.45 64.0275 931.687 64.6619C931.928 65.2917 932.283 65.7936 932.752 66.1676C933.226 66.5369 933.813 66.7216 934.513 66.7216ZM942.589 68V57.0909H944.265V68H942.589ZM943.441 55.2727C943.114 55.2727 942.833 55.1615 942.596 54.9389C942.364 54.7164 942.248 54.4489 942.248 54.1364C942.248 53.8239 942.364 53.5563 942.596 53.3338C942.833 53.1113 943.114 53 943.441 53C943.768 53 944.047 53.1113 944.279 53.3338C944.516 53.5563 944.634 53.8239 944.634 54.1364C944.634 54.4489 944.516 54.7164 944.279 54.9389C944.047 55.1615 943.768 55.2727 943.441 55.2727ZM954.21 63.5398V57.0909H955.886V68H954.21V66.1534H954.096C953.841 66.7074 953.443 67.1785 952.903 67.5668C952.363 67.9503 951.681 68.142 950.858 68.142C950.176 68.142 949.57 67.9929 949.039 67.6946C948.509 67.3916 948.092 66.937 947.789 66.331C947.486 65.7202 947.335 64.9508 947.335 64.0227V57.0909H949.011V63.9091C949.011 64.7045 949.234 65.339 949.679 65.8125C950.128 66.286 950.701 66.5227 951.397 66.5227C951.814 66.5227 952.238 66.4162 952.669 66.2031C953.104 65.9901 953.469 65.6634 953.762 65.223C954.061 64.7827 954.21 64.2216 954.21 63.5398ZM958.956 68V57.0909H960.575V58.7955H960.717C960.945 58.2131 961.312 57.7609 961.818 57.4389C962.325 57.1122 962.933 56.9489 963.643 56.9489C964.363 56.9489 964.962 57.1122 965.44 57.4389C965.923 57.7609 966.3 58.2131 966.57 58.7955H966.683C966.963 58.232 967.382 57.7846 967.94 57.4531C968.499 57.117 969.169 56.9489 969.95 56.9489C970.926 56.9489 971.723 57.2543 972.344 57.8651C972.964 58.4711 973.274 59.4157 973.274 60.6989V68H971.598V60.6989C971.598 59.8939 971.378 59.3187 970.938 58.973C970.497 58.6274 969.979 58.4545 969.382 58.4545C968.615 58.4545 968.021 58.6866 967.599 59.1506C967.178 59.6098 966.967 60.1922 966.967 60.8977V68H965.263V60.5284C965.263 59.9081 965.062 59.4086 964.659 59.0298C964.257 58.6463 963.738 58.4545 963.104 58.4545C962.668 58.4545 962.261 58.5705 961.882 58.8026C961.508 59.0346 961.205 59.3565 960.973 59.7685C960.746 60.1757 960.632 60.6468 960.632 61.1818V68H958.956Z" fill="white" fill-opacity="0.95"/>
</svg>
