<svg width="1150" height="314" viewBox="0 0 1150 314" fill="none" xmlns="http://www.w3.org/2000/svg">
<rect width="1150" height="314" rx="16" fill="#1A1A1A"/>
<path d="M286.725 119.518C287.545 118.529 287.995 117.285 287.995 116C287.995 114.715 287.545 113.471 286.725 112.483L289.354 109.854C289.401 109.807 289.439 109.752 289.465 109.691C289.491 109.63 289.504 109.565 289.504 109.499C289.505 109.432 289.492 109.367 289.467 109.306C289.442 109.244 289.405 109.189 289.358 109.142C289.311 109.095 289.256 109.058 289.194 109.033C289.133 109.008 289.068 108.995 289.001 108.996C288.935 108.996 288.87 109.009 288.809 109.035C288.748 109.061 288.693 109.099 288.646 109.146L286.018 111.775C285.031 110.951 283.786 110.5 282.5 110.5C281.214 110.5 279.969 110.951 278.982 111.775L276.354 109.146C276.259 109.055 276.133 109.004 276.001 109.004C275.87 109.005 275.744 109.058 275.651 109.151C275.558 109.244 275.505 109.37 275.505 109.501C275.504 109.633 275.555 109.759 275.646 109.854L278.275 112.482C277.454 113.471 277.005 114.715 277.005 116C277.005 117.285 277.454 118.529 278.275 119.518L275.646 122.146C275.599 122.193 275.561 122.248 275.535 122.309C275.51 122.37 275.496 122.435 275.496 122.501C275.495 122.567 275.508 122.633 275.533 122.694C275.558 122.756 275.595 122.811 275.642 122.858C275.689 122.905 275.744 122.942 275.806 122.967C275.867 122.992 275.933 123.005 275.999 123.004C276.065 123.004 276.13 122.99 276.191 122.965C276.252 122.939 276.307 122.901 276.354 122.854L278.982 120.225C279.969 121.049 281.214 121.5 282.5 121.5C283.786 121.5 285.031 121.049 286.018 120.225L288.646 122.854C288.741 122.945 288.867 122.996 288.999 122.995C289.13 122.995 289.256 122.942 289.349 122.849C289.442 122.756 289.495 122.63 289.496 122.499C289.496 122.367 289.445 122.241 289.354 122.146L286.725 119.518ZM286.015 118.808L283.207 116L286.015 113.192C286.65 113.99 286.996 114.98 286.996 116C286.996 117.02 286.65 118.01 286.015 118.808ZM282.5 111.5C283.521 111.498 284.512 111.845 285.308 112.485L282.5 115.293L279.692 112.485C280.488 111.845 281.479 111.498 282.5 111.5ZM278.985 113.192L281.793 116L278.985 118.808C278.349 118.01 278.003 117.02 278.003 116C278.003 114.98 278.349 113.99 278.985 113.192ZM282.5 120.5C281.479 120.502 280.488 120.155 279.692 119.515L282.5 116.707L285.308 119.515C284.512 120.155 283.521 120.502 282.5 120.5Z" fill="white" fill-opacity="0.7"/>
<path d="M299.949 121V110.818H301.485V119.678H306.099V121H299.949ZM309.954 121.169C309.47 121.169 309.033 121.08 308.642 120.901C308.25 120.718 307.941 120.455 307.712 120.11C307.486 119.765 307.374 119.343 307.374 118.842C307.374 118.411 307.457 118.057 307.622 117.778C307.788 117.5 308.012 117.28 308.294 117.117C308.575 116.955 308.89 116.832 309.238 116.749C309.586 116.666 309.941 116.603 310.302 116.56C310.759 116.507 311.131 116.464 311.416 116.431C311.701 116.395 311.908 116.337 312.037 116.257C312.166 116.178 312.231 116.048 312.231 115.869V115.835C312.231 115.4 312.108 115.064 311.863 114.825C311.621 114.587 311.26 114.467 310.779 114.467C310.279 114.467 309.884 114.578 309.596 114.8C309.311 115.019 309.114 115.263 309.004 115.531L307.607 115.213C307.773 114.749 308.015 114.375 308.333 114.089C308.655 113.801 309.024 113.592 309.442 113.463C309.86 113.33 310.299 113.264 310.759 113.264C311.064 113.264 311.387 113.301 311.729 113.374C312.074 113.443 312.395 113.572 312.693 113.761C312.995 113.95 313.242 114.22 313.434 114.572C313.626 114.92 313.722 115.372 313.722 115.929V121H312.271V119.956H312.211C312.115 120.148 311.971 120.337 311.779 120.523C311.586 120.708 311.339 120.862 311.038 120.985C310.736 121.108 310.375 121.169 309.954 121.169ZM310.277 119.976C310.688 119.976 311.039 119.895 311.331 119.732C311.626 119.57 311.85 119.358 312.002 119.096C312.158 118.831 312.236 118.547 312.236 118.246V117.261C312.183 117.314 312.08 117.364 311.928 117.411C311.779 117.454 311.608 117.492 311.416 117.525C311.223 117.555 311.036 117.583 310.854 117.609C310.672 117.633 310.519 117.652 310.396 117.669C310.108 117.705 309.845 117.767 309.606 117.853C309.371 117.939 309.182 118.063 309.039 118.226C308.9 118.385 308.83 118.597 308.83 118.862C308.83 119.23 308.966 119.509 309.238 119.697C309.51 119.883 309.856 119.976 310.277 119.976ZM315.822 121V110.818H317.308V114.602H317.398C317.484 114.442 317.608 114.259 317.771 114.05C317.933 113.841 318.158 113.659 318.447 113.503C318.735 113.344 319.116 113.264 319.59 113.264C320.207 113.264 320.757 113.42 321.241 113.732C321.725 114.043 322.104 114.492 322.379 115.079C322.658 115.665 322.797 116.371 322.797 117.197C322.797 118.022 322.659 118.73 322.384 119.32C322.109 119.906 321.731 120.359 321.251 120.677C320.77 120.992 320.222 121.149 319.605 121.149C319.141 121.149 318.762 121.071 318.467 120.915C318.175 120.76 317.946 120.577 317.781 120.369C317.615 120.16 317.487 119.974 317.398 119.812H317.273V121H315.822ZM317.278 117.182C317.278 117.719 317.356 118.189 317.512 118.594C317.668 118.998 317.893 119.315 318.188 119.543C318.483 119.769 318.844 119.881 319.272 119.881C319.716 119.881 320.087 119.764 320.386 119.528C320.684 119.29 320.909 118.967 321.062 118.559C321.218 118.151 321.295 117.692 321.295 117.182C321.295 116.678 321.219 116.226 321.067 115.825C320.918 115.424 320.692 115.107 320.391 114.875C320.092 114.643 319.719 114.527 319.272 114.527C318.841 114.527 318.477 114.638 318.178 114.86C317.883 115.082 317.66 115.392 317.507 115.79C317.355 116.187 317.278 116.652 317.278 117.182ZM327.757 121.154C327.005 121.154 326.357 120.993 325.813 120.672C325.273 120.347 324.856 119.891 324.561 119.305C324.269 118.715 324.123 118.024 324.123 117.232C324.123 116.449 324.269 115.76 324.561 115.163C324.856 114.567 325.267 114.101 325.794 113.766C326.324 113.432 326.944 113.264 327.653 113.264C328.084 113.264 328.501 113.335 328.906 113.478C329.31 113.621 329.673 113.844 329.994 114.149C330.316 114.454 330.57 114.85 330.755 115.337C330.941 115.821 331.034 116.41 331.034 117.102V117.629H324.963V116.516H329.577C329.577 116.125 329.497 115.778 329.338 115.477C329.179 115.172 328.955 114.931 328.667 114.756C328.382 114.58 328.047 114.492 327.663 114.492C327.245 114.492 326.881 114.595 326.569 114.8C326.261 115.003 326.022 115.268 325.853 115.596C325.687 115.921 325.605 116.274 325.605 116.655V117.525C325.605 118.035 325.694 118.469 325.873 118.827C326.055 119.185 326.309 119.459 326.634 119.648C326.959 119.833 327.338 119.926 327.772 119.926C328.054 119.926 328.311 119.886 328.543 119.807C328.775 119.724 328.975 119.601 329.144 119.439C329.313 119.277 329.443 119.076 329.532 118.837L330.939 119.091C330.826 119.505 330.624 119.868 330.333 120.18C330.044 120.488 329.681 120.728 329.244 120.901C328.81 121.07 328.314 121.154 327.757 121.154ZM334.169 110.818V121H332.683V110.818H334.169Z" fill="white" fill-opacity="0.7"/>
<path d="M397.5 104C397.5 101.791 399.291 100 401.5 100H478.5C480.709 100 482.5 101.791 482.5 104V132H397.5V104Z" fill="white" fill-opacity="0.07"/>
<path d="M421.725 119.518C422.545 118.529 422.995 117.285 422.995 116C422.995 114.715 422.545 113.471 421.725 112.483L424.354 109.854C424.401 109.807 424.439 109.752 424.465 109.691C424.491 109.63 424.504 109.565 424.504 109.499C424.505 109.432 424.492 109.367 424.467 109.306C424.442 109.244 424.405 109.189 424.358 109.142C424.311 109.095 424.256 109.058 424.194 109.033C424.133 109.008 424.068 108.995 424.001 108.996C423.935 108.996 423.87 109.009 423.809 109.035C423.748 109.061 423.693 109.099 423.646 109.146L421.018 111.775C420.031 110.951 418.786 110.5 417.5 110.5C416.214 110.5 414.969 110.951 413.982 111.775L411.354 109.146C411.259 109.055 411.133 109.004 411.001 109.004C410.87 109.005 410.744 109.058 410.651 109.151C410.558 109.244 410.505 109.37 410.505 109.501C410.504 109.633 410.555 109.759 410.646 109.854L413.275 112.482C412.454 113.471 412.005 114.715 412.005 116C412.005 117.285 412.454 118.529 413.275 119.518L410.646 122.146C410.599 122.193 410.561 122.248 410.535 122.309C410.51 122.37 410.496 122.435 410.496 122.501C410.495 122.567 410.508 122.633 410.533 122.694C410.558 122.756 410.595 122.811 410.642 122.858C410.689 122.905 410.744 122.942 410.806 122.967C410.867 122.992 410.933 123.005 410.999 123.004C411.065 123.004 411.13 122.99 411.191 122.965C411.252 122.939 411.307 122.901 411.354 122.854L413.982 120.225C414.969 121.049 416.214 121.5 417.5 121.5C418.786 121.5 420.031 121.049 421.018 120.225L423.646 122.854C423.741 122.945 423.867 122.996 423.999 122.995C424.13 122.995 424.256 122.942 424.349 122.849C424.442 122.756 424.495 122.63 424.496 122.499C424.496 122.367 424.445 122.241 424.354 122.146L421.725 119.518ZM421.015 118.808L418.207 116L421.015 113.192C421.65 113.99 421.996 114.98 421.996 116C421.996 117.02 421.65 118.01 421.015 118.808ZM417.5 111.5C418.521 111.498 419.512 111.845 420.308 112.485L417.5 115.293L414.692 112.485C415.488 111.845 416.479 111.498 417.5 111.5ZM413.985 113.192L416.793 116L413.985 118.808C413.349 118.01 413.003 117.02 413.003 116C413.003 114.98 413.349 113.99 413.985 113.192ZM417.5 120.5C416.479 120.502 415.488 120.155 414.692 119.515L417.5 116.707L420.308 119.515C419.512 120.155 418.521 120.502 417.5 120.5Z" fill="white" fill-opacity="0.95"/>
<path d="M434.949 121V110.818H436.485V119.678H441.099V121H434.949ZM444.954 121.169C444.47 121.169 444.033 121.08 443.642 120.901C443.25 120.718 442.941 120.455 442.712 120.11C442.486 119.765 442.374 119.343 442.374 118.842C442.374 118.411 442.457 118.057 442.622 117.778C442.788 117.5 443.012 117.28 443.294 117.117C443.575 116.955 443.89 116.832 444.238 116.749C444.586 116.666 444.941 116.603 445.302 116.56C445.759 116.507 446.131 116.464 446.416 116.431C446.701 116.395 446.908 116.337 447.037 116.257C447.166 116.178 447.231 116.048 447.231 115.869V115.835C447.231 115.4 447.108 115.064 446.863 114.825C446.621 114.587 446.26 114.467 445.779 114.467C445.279 114.467 444.884 114.578 444.596 114.8C444.311 115.019 444.114 115.263 444.004 115.531L442.607 115.213C442.773 114.749 443.015 114.375 443.333 114.089C443.655 113.801 444.024 113.592 444.442 113.463C444.86 113.33 445.299 113.264 445.759 113.264C446.064 113.264 446.387 113.301 446.729 113.374C447.074 113.443 447.395 113.572 447.693 113.761C447.995 113.95 448.242 114.22 448.434 114.572C448.626 114.92 448.722 115.372 448.722 115.929V121H447.271V119.956H447.211C447.115 120.148 446.971 120.337 446.779 120.523C446.586 120.708 446.339 120.862 446.038 120.985C445.736 121.108 445.375 121.169 444.954 121.169ZM445.277 119.976C445.688 119.976 446.039 119.895 446.331 119.732C446.626 119.57 446.85 119.358 447.002 119.096C447.158 118.831 447.236 118.547 447.236 118.246V117.261C447.183 117.314 447.08 117.364 446.928 117.411C446.779 117.454 446.608 117.492 446.416 117.525C446.223 117.555 446.036 117.583 445.854 117.609C445.672 117.633 445.519 117.652 445.396 117.669C445.108 117.705 444.845 117.767 444.606 117.853C444.371 117.939 444.182 118.063 444.039 118.226C443.9 118.385 443.83 118.597 443.83 118.862C443.83 119.23 443.966 119.509 444.238 119.697C444.51 119.883 444.856 119.976 445.277 119.976ZM450.822 121V110.818H452.308V114.602H452.398C452.484 114.442 452.608 114.259 452.771 114.05C452.933 113.841 453.158 113.659 453.447 113.503C453.735 113.344 454.116 113.264 454.59 113.264C455.207 113.264 455.757 113.42 456.241 113.732C456.725 114.043 457.104 114.492 457.379 115.079C457.658 115.665 457.797 116.371 457.797 117.197C457.797 118.022 457.659 118.73 457.384 119.32C457.109 119.906 456.731 120.359 456.251 120.677C455.77 120.992 455.222 121.149 454.605 121.149C454.141 121.149 453.762 121.071 453.467 120.915C453.175 120.76 452.946 120.577 452.781 120.369C452.615 120.16 452.487 119.974 452.398 119.812H452.273V121H450.822ZM452.278 117.182C452.278 117.719 452.356 118.189 452.512 118.594C452.668 118.998 452.893 119.315 453.188 119.543C453.483 119.769 453.844 119.881 454.272 119.881C454.716 119.881 455.087 119.764 455.386 119.528C455.684 119.29 455.909 118.967 456.062 118.559C456.218 118.151 456.295 117.692 456.295 117.182C456.295 116.678 456.219 116.226 456.067 115.825C455.918 115.424 455.692 115.107 455.391 114.875C455.092 114.643 454.719 114.527 454.272 114.527C453.841 114.527 453.477 114.638 453.178 114.86C452.883 115.082 452.66 115.392 452.507 115.79C452.355 116.187 452.278 116.652 452.278 117.182ZM462.757 121.154C462.005 121.154 461.357 120.993 460.813 120.672C460.273 120.347 459.856 119.891 459.561 119.305C459.269 118.715 459.123 118.024 459.123 117.232C459.123 116.449 459.269 115.76 459.561 115.163C459.856 114.567 460.267 114.101 460.794 113.766C461.324 113.432 461.944 113.264 462.653 113.264C463.084 113.264 463.501 113.335 463.906 113.478C464.31 113.621 464.673 113.844 464.994 114.149C465.316 114.454 465.57 114.85 465.755 115.337C465.941 115.821 466.034 116.41 466.034 117.102V117.629H459.963V116.516H464.577C464.577 116.125 464.497 115.778 464.338 115.477C464.179 115.172 463.955 114.931 463.667 114.756C463.382 114.58 463.047 114.492 462.663 114.492C462.245 114.492 461.881 114.595 461.569 114.8C461.261 115.003 461.022 115.268 460.853 115.596C460.687 115.921 460.605 116.274 460.605 116.655V117.525C460.605 118.035 460.694 118.469 460.873 118.827C461.055 119.185 461.309 119.459 461.634 119.648C461.959 119.833 462.338 119.926 462.772 119.926C463.054 119.926 463.311 119.886 463.543 119.807C463.775 119.724 463.975 119.601 464.144 119.439C464.313 119.277 464.443 119.076 464.532 118.837L465.939 119.091C465.826 119.505 465.624 119.868 465.333 120.18C465.044 120.488 464.681 120.728 464.244 120.901C463.81 121.07 463.314 121.154 462.757 121.154ZM469.169 110.818V121H467.683V110.818H469.169Z" fill="white" fill-opacity="0.95"/>
<path d="M532.5 104C532.5 101.791 534.291 100 536.5 100H613.5C615.709 100 617.5 101.791 617.5 104V132H532.5V104Z" fill="white" fill-opacity="0.2"/>
<path d="M556.725 119.518C557.545 118.529 557.995 117.285 557.995 116C557.995 114.715 557.545 113.471 556.725 112.483L559.354 109.854C559.401 109.807 559.439 109.752 559.465 109.691C559.491 109.63 559.504 109.565 559.504 109.499C559.505 109.432 559.492 109.367 559.467 109.306C559.442 109.244 559.405 109.189 559.358 109.142C559.311 109.095 559.256 109.058 559.194 109.033C559.133 109.008 559.068 108.995 559.001 108.996C558.935 108.996 558.87 109.009 558.809 109.035C558.748 109.061 558.693 109.099 558.646 109.146L556.018 111.775C555.031 110.951 553.786 110.5 552.5 110.5C551.214 110.5 549.969 110.951 548.982 111.775L546.354 109.146C546.259 109.055 546.133 109.004 546.001 109.004C545.87 109.005 545.744 109.058 545.651 109.151C545.558 109.244 545.505 109.37 545.505 109.501C545.504 109.633 545.555 109.759 545.646 109.854L548.275 112.482C547.454 113.471 547.005 114.715 547.005 116C547.005 117.285 547.454 118.529 548.275 119.518L545.646 122.146C545.599 122.193 545.561 122.248 545.535 122.309C545.51 122.37 545.496 122.435 545.496 122.501C545.495 122.567 545.508 122.633 545.533 122.694C545.558 122.756 545.595 122.811 545.642 122.858C545.689 122.905 545.744 122.942 545.806 122.967C545.867 122.992 545.933 123.005 545.999 123.004C546.065 123.004 546.13 122.99 546.191 122.965C546.252 122.939 546.307 122.901 546.354 122.854L548.982 120.225C549.969 121.049 551.214 121.5 552.5 121.5C553.786 121.5 555.031 121.049 556.018 120.225L558.646 122.854C558.741 122.945 558.867 122.996 558.999 122.995C559.13 122.995 559.256 122.942 559.349 122.849C559.442 122.756 559.495 122.63 559.496 122.499C559.496 122.367 559.445 122.241 559.354 122.146L556.725 119.518ZM556.015 118.808L553.207 116L556.015 113.192C556.65 113.99 556.996 114.98 556.996 116C556.996 117.02 556.65 118.01 556.015 118.808ZM552.5 111.5C553.521 111.498 554.512 111.845 555.308 112.485L552.5 115.293L549.692 112.485C550.488 111.845 551.479 111.498 552.5 111.5ZM548.985 113.192L551.793 116L548.985 118.808C548.349 118.01 548.003 117.02 548.003 116C548.003 114.98 548.349 113.99 548.985 113.192ZM552.5 120.5C551.479 120.502 550.488 120.155 549.692 119.515L552.5 116.707L555.308 119.515C554.512 120.155 553.521 120.502 552.5 120.5Z" fill="white" fill-opacity="0.95"/>
<path d="M569.949 121V110.818H571.485V119.678H576.099V121H569.949ZM579.954 121.169C579.47 121.169 579.033 121.08 578.642 120.901C578.25 120.718 577.941 120.455 577.712 120.11C577.486 119.765 577.374 119.343 577.374 118.842C577.374 118.411 577.457 118.057 577.622 117.778C577.788 117.5 578.012 117.28 578.294 117.117C578.575 116.955 578.89 116.832 579.238 116.749C579.586 116.666 579.941 116.603 580.302 116.56C580.759 116.507 581.131 116.464 581.416 116.431C581.701 116.395 581.908 116.337 582.037 116.257C582.166 116.178 582.231 116.048 582.231 115.869V115.835C582.231 115.4 582.108 115.064 581.863 114.825C581.621 114.587 581.26 114.467 580.779 114.467C580.279 114.467 579.884 114.578 579.596 114.8C579.311 115.019 579.114 115.263 579.004 115.531L577.607 115.213C577.773 114.749 578.015 114.375 578.333 114.089C578.655 113.801 579.024 113.592 579.442 113.463C579.86 113.33 580.299 113.264 580.759 113.264C581.064 113.264 581.387 113.301 581.729 113.374C582.074 113.443 582.395 113.572 582.693 113.761C582.995 113.95 583.242 114.22 583.434 114.572C583.626 114.92 583.722 115.372 583.722 115.929V121H582.271V119.956H582.211C582.115 120.148 581.971 120.337 581.779 120.523C581.586 120.708 581.339 120.862 581.038 120.985C580.736 121.108 580.375 121.169 579.954 121.169ZM580.277 119.976C580.688 119.976 581.039 119.895 581.331 119.732C581.626 119.57 581.85 119.358 582.002 119.096C582.158 118.831 582.236 118.547 582.236 118.246V117.261C582.183 117.314 582.08 117.364 581.928 117.411C581.779 117.454 581.608 117.492 581.416 117.525C581.223 117.555 581.036 117.583 580.854 117.609C580.672 117.633 580.519 117.652 580.396 117.669C580.108 117.705 579.845 117.767 579.606 117.853C579.371 117.939 579.182 118.063 579.039 118.226C578.9 118.385 578.83 118.597 578.83 118.862C578.83 119.23 578.966 119.509 579.238 119.697C579.51 119.883 579.856 119.976 580.277 119.976ZM585.822 121V110.818H587.308V114.602H587.398C587.484 114.442 587.608 114.259 587.771 114.05C587.933 113.841 588.158 113.659 588.447 113.503C588.735 113.344 589.116 113.264 589.59 113.264C590.207 113.264 590.757 113.42 591.241 113.732C591.725 114.043 592.104 114.492 592.379 115.079C592.658 115.665 592.797 116.371 592.797 117.197C592.797 118.022 592.659 118.73 592.384 119.32C592.109 119.906 591.731 120.359 591.251 120.677C590.77 120.992 590.222 121.149 589.605 121.149C589.141 121.149 588.762 121.071 588.467 120.915C588.175 120.76 587.946 120.577 587.781 120.369C587.615 120.16 587.487 119.974 587.398 119.812H587.273V121H585.822ZM587.278 117.182C587.278 117.719 587.356 118.189 587.512 118.594C587.668 118.998 587.893 119.315 588.188 119.543C588.483 119.769 588.844 119.881 589.272 119.881C589.716 119.881 590.087 119.764 590.386 119.528C590.684 119.29 590.909 118.967 591.062 118.559C591.218 118.151 591.295 117.692 591.295 117.182C591.295 116.678 591.219 116.226 591.067 115.825C590.918 115.424 590.692 115.107 590.391 114.875C590.092 114.643 589.719 114.527 589.272 114.527C588.841 114.527 588.477 114.638 588.178 114.86C587.883 115.082 587.66 115.392 587.507 115.79C587.355 116.187 587.278 116.652 587.278 117.182ZM597.757 121.154C597.005 121.154 596.357 120.993 595.813 120.672C595.273 120.347 594.856 119.891 594.561 119.305C594.269 118.715 594.123 118.024 594.123 117.232C594.123 116.449 594.269 115.76 594.561 115.163C594.856 114.567 595.267 114.101 595.794 113.766C596.324 113.432 596.944 113.264 597.653 113.264C598.084 113.264 598.501 113.335 598.906 113.478C599.31 113.621 599.673 113.844 599.994 114.149C600.316 114.454 600.57 114.85 600.755 115.337C600.941 115.821 601.034 116.41 601.034 117.102V117.629H594.963V116.516H599.577C599.577 116.125 599.497 115.778 599.338 115.477C599.179 115.172 598.955 114.931 598.667 114.756C598.382 114.58 598.047 114.492 597.663 114.492C597.245 114.492 596.881 114.595 596.569 114.8C596.261 115.003 596.022 115.268 595.853 115.596C595.687 115.921 595.605 116.274 595.605 116.655V117.525C595.605 118.035 595.694 118.469 595.873 118.827C596.055 119.185 596.309 119.459 596.634 119.648C596.959 119.833 597.338 119.926 597.772 119.926C598.054 119.926 598.311 119.886 598.543 119.807C598.775 119.724 598.975 119.601 599.144 119.439C599.313 119.277 599.443 119.076 599.532 118.837L600.939 119.091C600.826 119.505 600.624 119.868 600.333 120.18C600.044 120.488 599.681 120.728 599.244 120.901C598.81 121.07 598.314 121.154 597.757 121.154ZM604.169 110.818V121H602.683V110.818H604.169Z" fill="white" fill-opacity="0.95"/>
<path d="M691.725 119.518C692.545 118.529 692.995 117.285 692.995 116C692.995 114.715 692.545 113.471 691.725 112.483L694.354 109.854C694.401 109.807 694.439 109.752 694.465 109.691C694.491 109.63 694.504 109.565 694.504 109.499C694.505 109.432 694.492 109.367 694.467 109.306C694.442 109.244 694.405 109.189 694.358 109.142C694.311 109.095 694.256 109.058 694.194 109.033C694.133 109.008 694.068 108.995 694.001 108.996C693.935 108.996 693.87 109.009 693.809 109.035C693.748 109.061 693.693 109.099 693.646 109.146L691.018 111.775C690.031 110.951 688.786 110.5 687.5 110.5C686.214 110.5 684.969 110.951 683.982 111.775L681.354 109.146C681.259 109.055 681.133 109.004 681.001 109.004C680.87 109.005 680.744 109.058 680.651 109.151C680.558 109.244 680.505 109.37 680.505 109.501C680.504 109.633 680.555 109.759 680.646 109.854L683.275 112.482C682.454 113.471 682.005 114.715 682.005 116C682.005 117.285 682.454 118.529 683.275 119.518L680.646 122.146C680.599 122.193 680.561 122.248 680.535 122.309C680.51 122.37 680.496 122.435 680.496 122.501C680.495 122.567 680.508 122.633 680.533 122.694C680.558 122.756 680.595 122.811 680.642 122.858C680.689 122.905 680.744 122.942 680.806 122.967C680.867 122.992 680.933 123.005 680.999 123.004C681.065 123.004 681.13 122.99 681.191 122.965C681.252 122.939 681.307 122.901 681.354 122.854L683.982 120.225C684.969 121.049 686.214 121.5 687.5 121.5C688.786 121.5 690.031 121.049 691.018 120.225L693.646 122.854C693.741 122.945 693.867 122.996 693.999 122.995C694.13 122.995 694.256 122.942 694.349 122.849C694.442 122.756 694.495 122.63 694.496 122.499C694.496 122.367 694.445 122.241 694.354 122.146L691.725 119.518ZM691.015 118.808L688.207 116L691.015 113.192C691.65 113.99 691.996 114.98 691.996 116C691.996 117.02 691.65 118.01 691.015 118.808ZM687.5 111.5C688.521 111.498 689.512 111.845 690.308 112.485L687.5 115.293L684.692 112.485C685.488 111.845 686.479 111.498 687.5 111.5ZM683.985 113.192L686.793 116L683.985 118.808C683.349 118.01 683.003 117.02 683.003 116C683.003 114.98 683.349 113.99 683.985 113.192ZM687.5 120.5C686.479 120.502 685.488 120.155 684.692 119.515L687.5 116.707L690.308 119.515C689.512 120.155 688.521 120.502 687.5 120.5Z" fill="white" fill-opacity="0.2"/>
<path d="M704.949 121V110.818H706.485V119.678H711.099V121H704.949ZM714.954 121.169C714.47 121.169 714.033 121.08 713.642 120.901C713.25 120.718 712.941 120.455 712.712 120.11C712.486 119.765 712.374 119.343 712.374 118.842C712.374 118.411 712.457 118.057 712.622 117.778C712.788 117.5 713.012 117.28 713.294 117.117C713.575 116.955 713.89 116.832 714.238 116.749C714.586 116.666 714.941 116.603 715.302 116.56C715.759 116.507 716.131 116.464 716.416 116.431C716.701 116.395 716.908 116.337 717.037 116.257C717.166 116.178 717.231 116.048 717.231 115.869V115.835C717.231 115.4 717.108 115.064 716.863 114.825C716.621 114.587 716.26 114.467 715.779 114.467C715.279 114.467 714.884 114.578 714.596 114.8C714.311 115.019 714.114 115.263 714.004 115.531L712.607 115.213C712.773 114.749 713.015 114.375 713.333 114.089C713.655 113.801 714.024 113.592 714.442 113.463C714.86 113.33 715.299 113.264 715.759 113.264C716.064 113.264 716.387 113.301 716.729 113.374C717.074 113.443 717.395 113.572 717.693 113.761C717.995 113.95 718.242 114.22 718.434 114.572C718.626 114.92 718.722 115.372 718.722 115.929V121H717.271V119.956H717.211C717.115 120.148 716.971 120.337 716.779 120.523C716.586 120.708 716.339 120.862 716.038 120.985C715.736 121.108 715.375 121.169 714.954 121.169ZM715.277 119.976C715.688 119.976 716.039 119.895 716.331 119.732C716.626 119.57 716.85 119.358 717.002 119.096C717.158 118.831 717.236 118.547 717.236 118.246V117.261C717.183 117.314 717.08 117.364 716.928 117.411C716.779 117.454 716.608 117.492 716.416 117.525C716.223 117.555 716.036 117.583 715.854 117.609C715.672 117.633 715.519 117.652 715.396 117.669C715.108 117.705 714.845 117.767 714.606 117.853C714.371 117.939 714.182 118.063 714.039 118.226C713.9 118.385 713.83 118.597 713.83 118.862C713.83 119.23 713.966 119.509 714.238 119.697C714.51 119.883 714.856 119.976 715.277 119.976ZM720.822 121V110.818H722.308V114.602H722.398C722.484 114.442 722.608 114.259 722.771 114.05C722.933 113.841 723.158 113.659 723.447 113.503C723.735 113.344 724.116 113.264 724.59 113.264C725.207 113.264 725.757 113.42 726.241 113.732C726.725 114.043 727.104 114.492 727.379 115.079C727.658 115.665 727.797 116.371 727.797 117.197C727.797 118.022 727.659 118.73 727.384 119.32C727.109 119.906 726.731 120.359 726.251 120.677C725.77 120.992 725.222 121.149 724.605 121.149C724.141 121.149 723.762 121.071 723.467 120.915C723.175 120.76 722.946 120.577 722.781 120.369C722.615 120.16 722.487 119.974 722.398 119.812H722.273V121H720.822ZM722.278 117.182C722.278 117.719 722.356 118.189 722.512 118.594C722.668 118.998 722.893 119.315 723.188 119.543C723.483 119.769 723.844 119.881 724.272 119.881C724.716 119.881 725.087 119.764 725.386 119.528C725.684 119.29 725.909 118.967 726.062 118.559C726.218 118.151 726.295 117.692 726.295 117.182C726.295 116.678 726.219 116.226 726.067 115.825C725.918 115.424 725.692 115.107 725.391 114.875C725.092 114.643 724.719 114.527 724.272 114.527C723.841 114.527 723.477 114.638 723.178 114.86C722.883 115.082 722.66 115.392 722.507 115.79C722.355 116.187 722.278 116.652 722.278 117.182ZM732.757 121.154C732.005 121.154 731.357 120.993 730.813 120.672C730.273 120.347 729.856 119.891 729.561 119.305C729.269 118.715 729.123 118.024 729.123 117.232C729.123 116.449 729.269 115.76 729.561 115.163C729.856 114.567 730.267 114.101 730.794 113.766C731.324 113.432 731.944 113.264 732.653 113.264C733.084 113.264 733.501 113.335 733.906 113.478C734.31 113.621 734.673 113.844 734.994 114.149C735.316 114.454 735.57 114.85 735.755 115.337C735.941 115.821 736.034 116.41 736.034 117.102V117.629H729.963V116.516H734.577C734.577 116.125 734.497 115.778 734.338 115.477C734.179 115.172 733.955 114.931 733.667 114.756C733.382 114.58 733.047 114.492 732.663 114.492C732.245 114.492 731.881 114.595 731.569 114.8C731.261 115.003 731.022 115.268 730.853 115.596C730.687 115.921 730.605 116.274 730.605 116.655V117.525C730.605 118.035 730.694 118.469 730.873 118.827C731.055 119.185 731.309 119.459 731.634 119.648C731.959 119.833 732.338 119.926 732.772 119.926C733.054 119.926 733.311 119.886 733.543 119.807C733.775 119.724 733.975 119.601 734.144 119.439C734.313 119.277 734.443 119.076 734.532 118.837L735.939 119.091C735.826 119.505 735.624 119.868 735.333 120.18C735.044 120.488 734.681 120.728 734.244 120.901C733.81 121.07 733.314 121.154 732.757 121.154ZM739.169 110.818V121H737.683V110.818H739.169Z" fill="white" fill-opacity="0.2"/>
<g filter="url(#filter0_ddd_2112_5127)">
<g clip-path="url(#clip0_2112_5127)">
<path d="M802.5 104C802.5 101.791 804.291 100 806.5 100H883.5C885.709 100 887.5 101.791 887.5 104V132H802.5V104Z" fill="white" fill-opacity="0.01" shape-rendering="crispEdges"/>
<path d="M826.725 119.518C827.545 118.529 827.995 117.285 827.995 116C827.995 114.715 827.545 113.471 826.725 112.483L829.354 109.854C829.401 109.807 829.439 109.752 829.465 109.691C829.491 109.63 829.504 109.565 829.504 109.499C829.505 109.432 829.492 109.367 829.467 109.306C829.442 109.244 829.405 109.189 829.358 109.142C829.311 109.095 829.256 109.058 829.194 109.033C829.133 109.008 829.068 108.995 829.001 108.996C828.935 108.996 828.87 109.009 828.809 109.035C828.748 109.061 828.693 109.099 828.646 109.146L826.018 111.775C825.031 110.951 823.786 110.5 822.5 110.5C821.214 110.5 819.969 110.951 818.982 111.775L816.354 109.146C816.259 109.055 816.133 109.004 816.001 109.004C815.87 109.005 815.744 109.058 815.651 109.151C815.558 109.244 815.505 109.37 815.505 109.501C815.504 109.633 815.555 109.759 815.646 109.854L818.275 112.482C817.454 113.471 817.005 114.715 817.005 116C817.005 117.285 817.454 118.529 818.275 119.518L815.646 122.146C815.599 122.193 815.561 122.248 815.535 122.309C815.51 122.37 815.496 122.435 815.496 122.501C815.495 122.567 815.508 122.633 815.533 122.694C815.558 122.756 815.595 122.811 815.642 122.858C815.689 122.905 815.744 122.942 815.806 122.967C815.867 122.992 815.933 123.005 815.999 123.004C816.065 123.004 816.13 122.99 816.191 122.965C816.252 122.939 816.307 122.901 816.354 122.854L818.982 120.225C819.969 121.049 821.214 121.5 822.5 121.5C823.786 121.5 825.031 121.049 826.018 120.225L828.646 122.854C828.741 122.945 828.867 122.996 828.999 122.995C829.13 122.995 829.256 122.942 829.349 122.849C829.442 122.756 829.495 122.63 829.496 122.499C829.496 122.367 829.445 122.241 829.354 122.146L826.725 119.518ZM826.015 118.808L823.207 116L826.015 113.192C826.65 113.99 826.996 114.98 826.996 116C826.996 117.02 826.65 118.01 826.015 118.808ZM822.5 111.5C823.521 111.498 824.512 111.845 825.308 112.485L822.5 115.293L819.692 112.485C820.488 111.845 821.479 111.498 822.5 111.5ZM818.985 113.192L821.793 116L818.985 118.808C818.349 118.01 818.003 117.02 818.003 116C818.003 114.98 818.349 113.99 818.985 113.192ZM822.5 120.5C821.479 120.502 820.488 120.155 819.692 119.515L822.5 116.707L825.308 119.515C824.512 120.155 823.521 120.502 822.5 120.5Z" fill="white" fill-opacity="0.95"/>
<path d="M839.949 121V110.818H841.485V119.678H846.099V121H839.949ZM849.954 121.169C849.47 121.169 849.033 121.08 848.642 120.901C848.25 120.718 847.941 120.455 847.712 120.11C847.486 119.765 847.374 119.343 847.374 118.842C847.374 118.411 847.457 118.057 847.622 117.778C847.788 117.5 848.012 117.28 848.294 117.117C848.575 116.955 848.89 116.832 849.238 116.749C849.586 116.666 849.941 116.603 850.302 116.56C850.759 116.507 851.131 116.464 851.416 116.431C851.701 116.395 851.908 116.337 852.037 116.257C852.166 116.178 852.231 116.048 852.231 115.869V115.835C852.231 115.4 852.108 115.064 851.863 114.825C851.621 114.587 851.26 114.467 850.779 114.467C850.279 114.467 849.884 114.578 849.596 114.8C849.311 115.019 849.114 115.263 849.004 115.531L847.607 115.213C847.773 114.749 848.015 114.375 848.333 114.089C848.655 113.801 849.024 113.592 849.442 113.463C849.86 113.33 850.299 113.264 850.759 113.264C851.064 113.264 851.387 113.301 851.729 113.374C852.074 113.443 852.395 113.572 852.693 113.761C852.995 113.95 853.242 114.22 853.434 114.572C853.626 114.92 853.722 115.372 853.722 115.929V121H852.271V119.956H852.211C852.115 120.148 851.971 120.337 851.779 120.523C851.586 120.708 851.339 120.862 851.038 120.985C850.736 121.108 850.375 121.169 849.954 121.169ZM850.277 119.976C850.688 119.976 851.039 119.895 851.331 119.732C851.626 119.57 851.85 119.358 852.002 119.096C852.158 118.831 852.236 118.547 852.236 118.246V117.261C852.183 117.314 852.08 117.364 851.928 117.411C851.779 117.454 851.608 117.492 851.416 117.525C851.223 117.555 851.036 117.583 850.854 117.609C850.672 117.633 850.519 117.652 850.396 117.669C850.108 117.705 849.845 117.767 849.606 117.853C849.371 117.939 849.182 118.063 849.039 118.226C848.9 118.385 848.83 118.597 848.83 118.862C848.83 119.23 848.966 119.509 849.238 119.697C849.51 119.883 849.856 119.976 850.277 119.976ZM855.822 121V110.818H857.308V114.602H857.398C857.484 114.442 857.608 114.259 857.771 114.05C857.933 113.841 858.158 113.659 858.447 113.503C858.735 113.344 859.116 113.264 859.59 113.264C860.207 113.264 860.757 113.42 861.241 113.732C861.725 114.043 862.104 114.492 862.379 115.079C862.658 115.665 862.797 116.371 862.797 117.197C862.797 118.022 862.659 118.73 862.384 119.32C862.109 119.906 861.731 120.359 861.251 120.677C860.77 120.992 860.222 121.149 859.605 121.149C859.141 121.149 858.762 121.071 858.467 120.915C858.175 120.76 857.946 120.577 857.781 120.369C857.615 120.16 857.487 119.974 857.398 119.812H857.273V121H855.822ZM857.278 117.182C857.278 117.719 857.356 118.189 857.512 118.594C857.668 118.998 857.893 119.315 858.188 119.543C858.483 119.769 858.844 119.881 859.272 119.881C859.716 119.881 860.087 119.764 860.386 119.528C860.684 119.29 860.909 118.967 861.062 118.559C861.218 118.151 861.295 117.692 861.295 117.182C861.295 116.678 861.219 116.226 861.067 115.825C860.918 115.424 860.692 115.107 860.391 114.875C860.092 114.643 859.719 114.527 859.272 114.527C858.841 114.527 858.477 114.638 858.178 114.86C857.883 115.082 857.66 115.392 857.507 115.79C857.355 116.187 857.278 116.652 857.278 117.182ZM867.757 121.154C867.005 121.154 866.357 120.993 865.813 120.672C865.273 120.347 864.856 119.891 864.561 119.305C864.269 118.715 864.123 118.024 864.123 117.232C864.123 116.449 864.269 115.76 864.561 115.163C864.856 114.567 865.267 114.101 865.794 113.766C866.324 113.432 866.944 113.264 867.653 113.264C868.084 113.264 868.501 113.335 868.906 113.478C869.31 113.621 869.673 113.844 869.994 114.149C870.316 114.454 870.57 114.85 870.755 115.337C870.941 115.821 871.034 116.41 871.034 117.102V117.629H864.963V116.516H869.577C869.577 116.125 869.497 115.778 869.338 115.477C869.179 115.172 868.955 114.931 868.667 114.756C868.382 114.58 868.047 114.492 867.663 114.492C867.245 114.492 866.881 114.595 866.569 114.8C866.261 115.003 866.022 115.268 865.853 115.596C865.687 115.921 865.605 116.274 865.605 116.655V117.525C865.605 118.035 865.694 118.469 865.873 118.827C866.055 119.185 866.309 119.459 866.634 119.648C866.959 119.833 867.338 119.926 867.772 119.926C868.054 119.926 868.311 119.886 868.543 119.807C868.775 119.724 868.975 119.601 869.144 119.439C869.313 119.277 869.443 119.076 869.532 118.837L870.939 119.091C870.826 119.505 870.624 119.868 870.333 120.18C870.044 120.488 869.681 120.728 869.244 120.901C868.81 121.07 868.314 121.154 867.757 121.154ZM874.169 110.818V121H872.683V110.818H874.169Z" fill="white" fill-opacity="0.95"/>
</g>
</g>
<mask id="path-18-inside-1_2112_5127" fill="white">
<path d="M262.5 186C262.5 183.791 264.291 182 266.5 182H343.5C345.709 182 347.5 183.791 347.5 186V214H262.5V186Z"/>
</mask>
<path d="M262.5 182H347.5H262.5ZM347.5 216H262.5V212H347.5V216ZM262.5 214V182V214ZM347.5 182V214V182Z" fill="white" fill-opacity="0.9" mask="url(#path-18-inside-1_2112_5127)"/>
<path d="M286.725 201.518C287.545 200.529 287.995 199.285 287.995 198C287.995 196.715 287.545 195.471 286.725 194.483L289.354 191.853C289.401 191.807 289.439 191.752 289.465 191.691C289.491 191.63 289.504 191.565 289.504 191.499C289.505 191.432 289.492 191.367 289.467 191.306C289.442 191.244 289.405 191.189 289.358 191.142C289.311 191.095 289.256 191.058 289.194 191.033C289.133 191.008 289.068 190.995 289.001 190.996C288.935 190.996 288.87 191.009 288.809 191.035C288.748 191.061 288.693 191.099 288.646 191.146L286.018 193.775C285.031 192.951 283.786 192.5 282.5 192.5C281.214 192.5 279.969 192.951 278.982 193.775L276.354 191.146C276.259 191.055 276.133 191.004 276.001 191.004C275.87 191.005 275.744 191.058 275.651 191.151C275.558 191.244 275.505 191.37 275.505 191.501C275.504 191.633 275.555 191.759 275.646 191.853L278.275 194.482C277.454 195.471 277.005 196.715 277.005 198C277.005 199.285 277.454 200.529 278.275 201.518L275.646 204.146C275.599 204.193 275.561 204.248 275.535 204.309C275.51 204.37 275.496 204.435 275.496 204.501C275.495 204.567 275.508 204.633 275.533 204.694C275.558 204.756 275.595 204.811 275.642 204.858C275.689 204.905 275.744 204.942 275.806 204.967C275.867 204.992 275.933 205.005 275.999 205.004C276.065 205.004 276.13 204.99 276.191 204.965C276.252 204.939 276.307 204.901 276.354 204.853L278.982 202.225C279.969 203.049 281.214 203.5 282.5 203.5C283.786 203.5 285.031 203.049 286.018 202.225L288.646 204.853C288.741 204.945 288.867 204.996 288.999 204.995C289.13 204.995 289.256 204.942 289.349 204.849C289.442 204.756 289.495 204.63 289.496 204.499C289.496 204.367 289.445 204.241 289.354 204.146L286.725 201.518ZM286.015 200.808L283.207 198L286.015 195.192C286.65 195.99 286.996 196.98 286.996 198C286.996 199.02 286.65 200.01 286.015 200.808ZM282.5 193.5C283.521 193.498 284.512 193.845 285.308 194.485L282.5 197.293L279.692 194.485C280.488 193.845 281.479 193.498 282.5 193.5ZM278.985 195.192L281.793 198L278.985 200.808C278.349 200.01 278.003 199.02 278.003 198C278.003 196.98 278.349 195.99 278.985 195.192ZM282.5 202.5C281.479 202.502 280.488 202.155 279.692 201.515L282.5 198.707L285.308 201.515C284.512 202.155 283.521 202.502 282.5 202.5Z" fill="white" fill-opacity="0.95"/>
<path d="M299.949 203V192.818H301.485V201.678H306.099V203H299.949ZM309.954 203.169C309.47 203.169 309.033 203.08 308.642 202.901C308.25 202.718 307.941 202.455 307.712 202.11C307.486 201.765 307.374 201.343 307.374 200.842C307.374 200.411 307.457 200.057 307.622 199.778C307.788 199.5 308.012 199.28 308.294 199.117C308.575 198.955 308.89 198.832 309.238 198.749C309.586 198.666 309.941 198.603 310.302 198.56C310.759 198.507 311.131 198.464 311.416 198.431C311.701 198.395 311.908 198.337 312.037 198.257C312.166 198.178 312.231 198.048 312.231 197.869V197.835C312.231 197.4 312.108 197.064 311.863 196.825C311.621 196.587 311.26 196.467 310.779 196.467C310.279 196.467 309.884 196.578 309.596 196.8C309.311 197.019 309.114 197.263 309.004 197.531L307.607 197.213C307.773 196.749 308.015 196.375 308.333 196.089C308.655 195.801 309.024 195.592 309.442 195.463C309.86 195.33 310.299 195.264 310.759 195.264C311.064 195.264 311.387 195.301 311.729 195.374C312.074 195.443 312.395 195.572 312.693 195.761C312.995 195.95 313.242 196.22 313.434 196.572C313.626 196.92 313.722 197.372 313.722 197.929V203H312.271V201.956H312.211C312.115 202.148 311.971 202.337 311.779 202.523C311.586 202.708 311.339 202.862 311.038 202.985C310.736 203.108 310.375 203.169 309.954 203.169ZM310.277 201.976C310.688 201.976 311.039 201.895 311.331 201.732C311.626 201.57 311.85 201.358 312.002 201.096C312.158 200.831 312.236 200.547 312.236 200.246V199.261C312.183 199.314 312.08 199.364 311.928 199.411C311.779 199.454 311.608 199.492 311.416 199.525C311.223 199.555 311.036 199.583 310.854 199.609C310.672 199.633 310.519 199.652 310.396 199.669C310.108 199.705 309.845 199.767 309.606 199.853C309.371 199.939 309.182 200.063 309.039 200.226C308.9 200.385 308.83 200.597 308.83 200.862C308.83 201.23 308.966 201.509 309.238 201.697C309.51 201.883 309.856 201.976 310.277 201.976ZM315.822 203V192.818H317.308V196.602H317.398C317.484 196.442 317.608 196.259 317.771 196.05C317.933 195.841 318.158 195.659 318.447 195.503C318.735 195.344 319.116 195.264 319.59 195.264C320.207 195.264 320.757 195.42 321.241 195.732C321.725 196.043 322.104 196.492 322.379 197.079C322.658 197.665 322.797 198.371 322.797 199.197C322.797 200.022 322.659 200.73 322.384 201.32C322.109 201.906 321.731 202.359 321.251 202.677C320.77 202.992 320.222 203.149 319.605 203.149C319.141 203.149 318.762 203.071 318.467 202.915C318.175 202.76 317.946 202.577 317.781 202.369C317.615 202.16 317.487 201.974 317.398 201.812H317.273V203H315.822ZM317.278 199.182C317.278 199.719 317.356 200.189 317.512 200.594C317.668 200.998 317.893 201.315 318.188 201.543C318.483 201.769 318.844 201.881 319.272 201.881C319.716 201.881 320.087 201.764 320.386 201.528C320.684 201.29 320.909 200.967 321.062 200.559C321.218 200.151 321.295 199.692 321.295 199.182C321.295 198.678 321.219 198.226 321.067 197.825C320.918 197.424 320.692 197.107 320.391 196.875C320.092 196.643 319.719 196.527 319.272 196.527C318.841 196.527 318.477 196.638 318.178 196.86C317.883 197.082 317.66 197.392 317.507 197.79C317.355 198.187 317.278 198.652 317.278 199.182ZM327.757 203.154C327.005 203.154 326.357 202.993 325.813 202.672C325.273 202.347 324.856 201.891 324.561 201.305C324.269 200.715 324.123 200.024 324.123 199.232C324.123 198.449 324.269 197.76 324.561 197.163C324.856 196.567 325.267 196.101 325.794 195.766C326.324 195.432 326.944 195.264 327.653 195.264C328.084 195.264 328.501 195.335 328.906 195.478C329.31 195.621 329.673 195.844 329.994 196.149C330.316 196.454 330.57 196.85 330.755 197.337C330.941 197.821 331.034 198.41 331.034 199.102V199.629H324.963V198.516H329.577C329.577 198.125 329.497 197.778 329.338 197.477C329.179 197.172 328.955 196.931 328.667 196.756C328.382 196.58 328.047 196.492 327.663 196.492C327.245 196.492 326.881 196.595 326.569 196.8C326.261 197.003 326.022 197.268 325.853 197.596C325.687 197.921 325.605 198.274 325.605 198.655V199.525C325.605 200.035 325.694 200.469 325.873 200.827C326.055 201.185 326.309 201.459 326.634 201.648C326.959 201.833 327.338 201.926 327.772 201.926C328.054 201.926 328.311 201.886 328.543 201.807C328.775 201.724 328.975 201.601 329.144 201.439C329.313 201.277 329.443 201.076 329.532 200.837L330.939 201.091C330.826 201.505 330.624 201.868 330.333 202.18C330.044 202.488 329.681 202.728 329.244 202.901C328.81 203.07 328.314 203.154 327.757 203.154ZM334.169 192.818V203H332.683V192.818H334.169Z" fill="white" fill-opacity="0.95"/>
<mask id="path-22-inside-2_2112_5127" fill="white">
<path d="M397.5 186C397.5 183.791 399.291 182 401.5 182H478.5C480.709 182 482.5 183.791 482.5 186V214H397.5V186Z"/>
</mask>
<path d="M397.5 186C397.5 183.791 399.291 182 401.5 182H478.5C480.709 182 482.5 183.791 482.5 186V214H397.5V186Z" fill="white" fill-opacity="0.07"/>
<path d="M397.5 182H482.5H397.5ZM482.5 216H397.5V212H482.5V216ZM397.5 214V182V214ZM482.5 182V214V182Z" fill="white" fill-opacity="0.9" mask="url(#path-22-inside-2_2112_5127)"/>
<path d="M421.725 201.518C422.545 200.529 422.995 199.285 422.995 198C422.995 196.715 422.545 195.471 421.725 194.483L424.354 191.853C424.401 191.807 424.439 191.752 424.465 191.691C424.491 191.63 424.504 191.565 424.504 191.499C424.505 191.432 424.492 191.367 424.467 191.306C424.442 191.244 424.405 191.189 424.358 191.142C424.311 191.095 424.256 191.058 424.194 191.033C424.133 191.008 424.068 190.995 424.001 190.996C423.935 190.996 423.87 191.009 423.809 191.035C423.748 191.061 423.693 191.099 423.646 191.146L421.018 193.775C420.031 192.951 418.786 192.5 417.5 192.5C416.214 192.5 414.969 192.951 413.982 193.775L411.354 191.146C411.259 191.055 411.133 191.004 411.001 191.004C410.87 191.005 410.744 191.058 410.651 191.151C410.558 191.244 410.505 191.37 410.505 191.501C410.504 191.633 410.555 191.759 410.646 191.853L413.275 194.482C412.454 195.471 412.005 196.715 412.005 198C412.005 199.285 412.454 200.529 413.275 201.518L410.646 204.146C410.599 204.193 410.561 204.248 410.535 204.309C410.51 204.37 410.496 204.435 410.496 204.501C410.495 204.567 410.508 204.633 410.533 204.694C410.558 204.756 410.595 204.811 410.642 204.858C410.689 204.905 410.744 204.942 410.806 204.967C410.867 204.992 410.933 205.005 410.999 205.004C411.065 205.004 411.13 204.99 411.191 204.965C411.252 204.939 411.307 204.901 411.354 204.853L413.982 202.225C414.969 203.049 416.214 203.5 417.5 203.5C418.786 203.5 420.031 203.049 421.018 202.225L423.646 204.853C423.741 204.945 423.867 204.996 423.999 204.995C424.13 204.995 424.256 204.942 424.349 204.849C424.442 204.756 424.495 204.63 424.496 204.499C424.496 204.367 424.445 204.241 424.354 204.146L421.725 201.518ZM421.015 200.808L418.207 198L421.015 195.192C421.65 195.99 421.996 196.98 421.996 198C421.996 199.02 421.65 200.01 421.015 200.808ZM417.5 193.5C418.521 193.498 419.512 193.845 420.308 194.485L417.5 197.293L414.692 194.485C415.488 193.845 416.479 193.498 417.5 193.5ZM413.985 195.192L416.793 198L413.985 200.808C413.349 200.01 413.003 199.02 413.003 198C413.003 196.98 413.349 195.99 413.985 195.192ZM417.5 202.5C416.479 202.502 415.488 202.155 414.692 201.515L417.5 198.707L420.308 201.515C419.512 202.155 418.521 202.502 417.5 202.5Z" fill="white" fill-opacity="0.95"/>
<path d="M434.949 203V192.818H436.485V201.678H441.099V203H434.949ZM444.954 203.169C444.47 203.169 444.033 203.08 443.642 202.901C443.25 202.718 442.941 202.455 442.712 202.11C442.486 201.765 442.374 201.343 442.374 200.842C442.374 200.411 442.457 200.057 442.622 199.778C442.788 199.5 443.012 199.28 443.294 199.117C443.575 198.955 443.89 198.832 444.238 198.749C444.586 198.666 444.941 198.603 445.302 198.56C445.759 198.507 446.131 198.464 446.416 198.431C446.701 198.395 446.908 198.337 447.037 198.257C447.166 198.178 447.231 198.048 447.231 197.869V197.835C447.231 197.4 447.108 197.064 446.863 196.825C446.621 196.587 446.26 196.467 445.779 196.467C445.279 196.467 444.884 196.578 444.596 196.8C444.311 197.019 444.114 197.263 444.004 197.531L442.607 197.213C442.773 196.749 443.015 196.375 443.333 196.089C443.655 195.801 444.024 195.592 444.442 195.463C444.86 195.33 445.299 195.264 445.759 195.264C446.064 195.264 446.387 195.301 446.729 195.374C447.074 195.443 447.395 195.572 447.693 195.761C447.995 195.95 448.242 196.22 448.434 196.572C448.626 196.92 448.722 197.372 448.722 197.929V203H447.271V201.956H447.211C447.115 202.148 446.971 202.337 446.779 202.523C446.586 202.708 446.339 202.862 446.038 202.985C445.736 203.108 445.375 203.169 444.954 203.169ZM445.277 201.976C445.688 201.976 446.039 201.895 446.331 201.732C446.626 201.57 446.85 201.358 447.002 201.096C447.158 200.831 447.236 200.547 447.236 200.246V199.261C447.183 199.314 447.08 199.364 446.928 199.411C446.779 199.454 446.608 199.492 446.416 199.525C446.223 199.555 446.036 199.583 445.854 199.609C445.672 199.633 445.519 199.652 445.396 199.669C445.108 199.705 444.845 199.767 444.606 199.853C444.371 199.939 444.182 200.063 444.039 200.226C443.9 200.385 443.83 200.597 443.83 200.862C443.83 201.23 443.966 201.509 444.238 201.697C444.51 201.883 444.856 201.976 445.277 201.976ZM450.822 203V192.818H452.308V196.602H452.398C452.484 196.442 452.608 196.259 452.771 196.05C452.933 195.841 453.158 195.659 453.447 195.503C453.735 195.344 454.116 195.264 454.59 195.264C455.207 195.264 455.757 195.42 456.241 195.732C456.725 196.043 457.104 196.492 457.379 197.079C457.658 197.665 457.797 198.371 457.797 199.197C457.797 200.022 457.659 200.73 457.384 201.32C457.109 201.906 456.731 202.359 456.251 202.677C455.77 202.992 455.222 203.149 454.605 203.149C454.141 203.149 453.762 203.071 453.467 202.915C453.175 202.76 452.946 202.577 452.781 202.369C452.615 202.16 452.487 201.974 452.398 201.812H452.273V203H450.822ZM452.278 199.182C452.278 199.719 452.356 200.189 452.512 200.594C452.668 200.998 452.893 201.315 453.188 201.543C453.483 201.769 453.844 201.881 454.272 201.881C454.716 201.881 455.087 201.764 455.386 201.528C455.684 201.29 455.909 200.967 456.062 200.559C456.218 200.151 456.295 199.692 456.295 199.182C456.295 198.678 456.219 198.226 456.067 197.825C455.918 197.424 455.692 197.107 455.391 196.875C455.092 196.643 454.719 196.527 454.272 196.527C453.841 196.527 453.477 196.638 453.178 196.86C452.883 197.082 452.66 197.392 452.507 197.79C452.355 198.187 452.278 198.652 452.278 199.182ZM462.757 203.154C462.005 203.154 461.357 202.993 460.813 202.672C460.273 202.347 459.856 201.891 459.561 201.305C459.269 200.715 459.123 200.024 459.123 199.232C459.123 198.449 459.269 197.76 459.561 197.163C459.856 196.567 460.267 196.101 460.794 195.766C461.324 195.432 461.944 195.264 462.653 195.264C463.084 195.264 463.501 195.335 463.906 195.478C464.31 195.621 464.673 195.844 464.994 196.149C465.316 196.454 465.57 196.85 465.755 197.337C465.941 197.821 466.034 198.41 466.034 199.102V199.629H459.963V198.516H464.577C464.577 198.125 464.497 197.778 464.338 197.477C464.179 197.172 463.955 196.931 463.667 196.756C463.382 196.58 463.047 196.492 462.663 196.492C462.245 196.492 461.881 196.595 461.569 196.8C461.261 197.003 461.022 197.268 460.853 197.596C460.687 197.921 460.605 198.274 460.605 198.655V199.525C460.605 200.035 460.694 200.469 460.873 200.827C461.055 201.185 461.309 201.459 461.634 201.648C461.959 201.833 462.338 201.926 462.772 201.926C463.054 201.926 463.311 201.886 463.543 201.807C463.775 201.724 463.975 201.601 464.144 201.439C464.313 201.277 464.443 201.076 464.532 200.837L465.939 201.091C465.826 201.505 465.624 201.868 465.333 202.18C465.044 202.488 464.681 202.728 464.244 202.901C463.81 203.07 463.314 203.154 462.757 203.154ZM469.169 192.818V203H467.683V192.818H469.169Z" fill="white" fill-opacity="0.95"/>
<mask id="path-26-inside-3_2112_5127" fill="white">
<path d="M532.5 186C532.5 183.791 534.291 182 536.5 182H613.5C615.709 182 617.5 183.791 617.5 186V214H532.5V186Z"/>
</mask>
<path d="M532.5 186C532.5 183.791 534.291 182 536.5 182H613.5C615.709 182 617.5 183.791 617.5 186V214H532.5V186Z" fill="white" fill-opacity="0.2"/>
<path d="M532.5 182H617.5H532.5ZM617.5 216H532.5V212H617.5V216ZM532.5 214V182V214ZM617.5 182V214V182Z" fill="white" fill-opacity="0.9" mask="url(#path-26-inside-3_2112_5127)"/>
<path d="M556.725 201.518C557.545 200.529 557.995 199.285 557.995 198C557.995 196.715 557.545 195.471 556.725 194.483L559.354 191.853C559.401 191.807 559.439 191.752 559.465 191.691C559.491 191.63 559.504 191.565 559.504 191.499C559.505 191.432 559.492 191.367 559.467 191.306C559.442 191.244 559.405 191.189 559.358 191.142C559.311 191.095 559.256 191.058 559.194 191.033C559.133 191.008 559.068 190.995 559.001 190.996C558.935 190.996 558.87 191.009 558.809 191.035C558.748 191.061 558.693 191.099 558.646 191.146L556.018 193.775C555.031 192.951 553.786 192.5 552.5 192.5C551.214 192.5 549.969 192.951 548.982 193.775L546.354 191.146C546.259 191.055 546.133 191.004 546.001 191.004C545.87 191.005 545.744 191.058 545.651 191.151C545.558 191.244 545.505 191.37 545.505 191.501C545.504 191.633 545.555 191.759 545.646 191.853L548.275 194.482C547.454 195.471 547.005 196.715 547.005 198C547.005 199.285 547.454 200.529 548.275 201.518L545.646 204.146C545.599 204.193 545.561 204.248 545.535 204.309C545.51 204.37 545.496 204.435 545.496 204.501C545.495 204.567 545.508 204.633 545.533 204.694C545.558 204.756 545.595 204.811 545.642 204.858C545.689 204.905 545.744 204.942 545.806 204.967C545.867 204.992 545.933 205.005 545.999 205.004C546.065 205.004 546.13 204.99 546.191 204.965C546.252 204.939 546.307 204.901 546.354 204.853L548.982 202.225C549.969 203.049 551.214 203.5 552.5 203.5C553.786 203.5 555.031 203.049 556.018 202.225L558.646 204.853C558.741 204.945 558.867 204.996 558.999 204.995C559.13 204.995 559.256 204.942 559.349 204.849C559.442 204.756 559.495 204.63 559.496 204.499C559.496 204.367 559.445 204.241 559.354 204.146L556.725 201.518ZM556.015 200.808L553.207 198L556.015 195.192C556.65 195.99 556.996 196.98 556.996 198C556.996 199.02 556.65 200.01 556.015 200.808ZM552.5 193.5C553.521 193.498 554.512 193.845 555.308 194.485L552.5 197.293L549.692 194.485C550.488 193.845 551.479 193.498 552.5 193.5ZM548.985 195.192L551.793 198L548.985 200.808C548.349 200.01 548.003 199.02 548.003 198C548.003 196.98 548.349 195.99 548.985 195.192ZM552.5 202.5C551.479 202.502 550.488 202.155 549.692 201.515L552.5 198.707L555.308 201.515C554.512 202.155 553.521 202.502 552.5 202.5Z" fill="white" fill-opacity="0.95"/>
<path d="M569.949 203V192.818H571.485V201.678H576.099V203H569.949ZM579.954 203.169C579.47 203.169 579.033 203.08 578.642 202.901C578.25 202.718 577.941 202.455 577.712 202.11C577.486 201.765 577.374 201.343 577.374 200.842C577.374 200.411 577.457 200.057 577.622 199.778C577.788 199.5 578.012 199.28 578.294 199.117C578.575 198.955 578.89 198.832 579.238 198.749C579.586 198.666 579.941 198.603 580.302 198.56C580.759 198.507 581.131 198.464 581.416 198.431C581.701 198.395 581.908 198.337 582.037 198.257C582.166 198.178 582.231 198.048 582.231 197.869V197.835C582.231 197.4 582.108 197.064 581.863 196.825C581.621 196.587 581.26 196.467 580.779 196.467C580.279 196.467 579.884 196.578 579.596 196.8C579.311 197.019 579.114 197.263 579.004 197.531L577.607 197.213C577.773 196.749 578.015 196.375 578.333 196.089C578.655 195.801 579.024 195.592 579.442 195.463C579.86 195.33 580.299 195.264 580.759 195.264C581.064 195.264 581.387 195.301 581.729 195.374C582.074 195.443 582.395 195.572 582.693 195.761C582.995 195.95 583.242 196.22 583.434 196.572C583.626 196.92 583.722 197.372 583.722 197.929V203H582.271V201.956H582.211C582.115 202.148 581.971 202.337 581.779 202.523C581.586 202.708 581.339 202.862 581.038 202.985C580.736 203.108 580.375 203.169 579.954 203.169ZM580.277 201.976C580.688 201.976 581.039 201.895 581.331 201.732C581.626 201.57 581.85 201.358 582.002 201.096C582.158 200.831 582.236 200.547 582.236 200.246V199.261C582.183 199.314 582.08 199.364 581.928 199.411C581.779 199.454 581.608 199.492 581.416 199.525C581.223 199.555 581.036 199.583 580.854 199.609C580.672 199.633 580.519 199.652 580.396 199.669C580.108 199.705 579.845 199.767 579.606 199.853C579.371 199.939 579.182 200.063 579.039 200.226C578.9 200.385 578.83 200.597 578.83 200.862C578.83 201.23 578.966 201.509 579.238 201.697C579.51 201.883 579.856 201.976 580.277 201.976ZM585.822 203V192.818H587.308V196.602H587.398C587.484 196.442 587.608 196.259 587.771 196.05C587.933 195.841 588.158 195.659 588.447 195.503C588.735 195.344 589.116 195.264 589.59 195.264C590.207 195.264 590.757 195.42 591.241 195.732C591.725 196.043 592.104 196.492 592.379 197.079C592.658 197.665 592.797 198.371 592.797 199.197C592.797 200.022 592.659 200.73 592.384 201.32C592.109 201.906 591.731 202.359 591.251 202.677C590.77 202.992 590.222 203.149 589.605 203.149C589.141 203.149 588.762 203.071 588.467 202.915C588.175 202.76 587.946 202.577 587.781 202.369C587.615 202.16 587.487 201.974 587.398 201.812H587.273V203H585.822ZM587.278 199.182C587.278 199.719 587.356 200.189 587.512 200.594C587.668 200.998 587.893 201.315 588.188 201.543C588.483 201.769 588.844 201.881 589.272 201.881C589.716 201.881 590.087 201.764 590.386 201.528C590.684 201.29 590.909 200.967 591.062 200.559C591.218 200.151 591.295 199.692 591.295 199.182C591.295 198.678 591.219 198.226 591.067 197.825C590.918 197.424 590.692 197.107 590.391 196.875C590.092 196.643 589.719 196.527 589.272 196.527C588.841 196.527 588.477 196.638 588.178 196.86C587.883 197.082 587.66 197.392 587.507 197.79C587.355 198.187 587.278 198.652 587.278 199.182ZM597.757 203.154C597.005 203.154 596.357 202.993 595.813 202.672C595.273 202.347 594.856 201.891 594.561 201.305C594.269 200.715 594.123 200.024 594.123 199.232C594.123 198.449 594.269 197.76 594.561 197.163C594.856 196.567 595.267 196.101 595.794 195.766C596.324 195.432 596.944 195.264 597.653 195.264C598.084 195.264 598.501 195.335 598.906 195.478C599.31 195.621 599.673 195.844 599.994 196.149C600.316 196.454 600.57 196.85 600.755 197.337C600.941 197.821 601.034 198.41 601.034 199.102V199.629H594.963V198.516H599.577C599.577 198.125 599.497 197.778 599.338 197.477C599.179 197.172 598.955 196.931 598.667 196.756C598.382 196.58 598.047 196.492 597.663 196.492C597.245 196.492 596.881 196.595 596.569 196.8C596.261 197.003 596.022 197.268 595.853 197.596C595.687 197.921 595.605 198.274 595.605 198.655V199.525C595.605 200.035 595.694 200.469 595.873 200.827C596.055 201.185 596.309 201.459 596.634 201.648C596.959 201.833 597.338 201.926 597.772 201.926C598.054 201.926 598.311 201.886 598.543 201.807C598.775 201.724 598.975 201.601 599.144 201.439C599.313 201.277 599.443 201.076 599.532 200.837L600.939 201.091C600.826 201.505 600.624 201.868 600.333 202.18C600.044 202.488 599.681 202.728 599.244 202.901C598.81 203.07 598.314 203.154 597.757 203.154ZM604.169 192.818V203H602.683V192.818H604.169Z" fill="white" fill-opacity="0.95"/>
<mask id="path-30-inside-4_2112_5127" fill="white">
<path d="M667.5 186C667.5 183.791 669.291 182 671.5 182H748.5C750.709 182 752.5 183.791 752.5 186V214H667.5V186Z"/>
</mask>
<path d="M667.5 182H752.5H667.5ZM752.5 216H667.5V212H752.5V216ZM667.5 214V182V214ZM752.5 182V214V182Z" fill="white" fill-opacity="0.2" mask="url(#path-30-inside-4_2112_5127)"/>
<path d="M691.725 201.518C692.545 200.529 692.995 199.285 692.995 198C692.995 196.715 692.545 195.471 691.725 194.483L694.354 191.853C694.401 191.807 694.439 191.752 694.465 191.691C694.491 191.63 694.504 191.565 694.504 191.499C694.505 191.432 694.492 191.367 694.467 191.306C694.442 191.244 694.405 191.189 694.358 191.142C694.311 191.095 694.256 191.058 694.194 191.033C694.133 191.008 694.068 190.995 694.001 190.996C693.935 190.996 693.87 191.009 693.809 191.035C693.748 191.061 693.693 191.099 693.646 191.146L691.018 193.775C690.031 192.951 688.786 192.5 687.5 192.5C686.214 192.5 684.969 192.951 683.982 193.775L681.354 191.146C681.259 191.055 681.133 191.004 681.001 191.004C680.87 191.005 680.744 191.058 680.651 191.151C680.558 191.244 680.505 191.37 680.505 191.501C680.504 191.633 680.555 191.759 680.646 191.853L683.275 194.482C682.454 195.471 682.005 196.715 682.005 198C682.005 199.285 682.454 200.529 683.275 201.518L680.646 204.146C680.599 204.193 680.561 204.248 680.535 204.309C680.51 204.37 680.496 204.435 680.496 204.501C680.495 204.567 680.508 204.633 680.533 204.694C680.558 204.756 680.595 204.811 680.642 204.858C680.689 204.905 680.744 204.942 680.806 204.967C680.867 204.992 680.933 205.005 680.999 205.004C681.065 205.004 681.13 204.99 681.191 204.965C681.252 204.939 681.307 204.901 681.354 204.853L683.982 202.225C684.969 203.049 686.214 203.5 687.5 203.5C688.786 203.5 690.031 203.049 691.018 202.225L693.646 204.853C693.741 204.945 693.867 204.996 693.999 204.995C694.13 204.995 694.256 204.942 694.349 204.849C694.442 204.756 694.495 204.63 694.496 204.499C694.496 204.367 694.445 204.241 694.354 204.146L691.725 201.518ZM691.015 200.808L688.207 198L691.015 195.192C691.65 195.99 691.996 196.98 691.996 198C691.996 199.02 691.65 200.01 691.015 200.808ZM687.5 193.5C688.521 193.498 689.512 193.845 690.308 194.485L687.5 197.293L684.692 194.485C685.488 193.845 686.479 193.498 687.5 193.5ZM683.985 195.192L686.793 198L683.985 200.808C683.349 200.01 683.003 199.02 683.003 198C683.003 196.98 683.349 195.99 683.985 195.192ZM687.5 202.5C686.479 202.502 685.488 202.155 684.692 201.515L687.5 198.707L690.308 201.515C689.512 202.155 688.521 202.502 687.5 202.5Z" fill="white" fill-opacity="0.2"/>
<path d="M704.949 203V192.818H706.485V201.678H711.099V203H704.949ZM714.954 203.169C714.47 203.169 714.033 203.08 713.642 202.901C713.25 202.718 712.941 202.455 712.712 202.11C712.486 201.765 712.374 201.343 712.374 200.842C712.374 200.411 712.457 200.057 712.622 199.778C712.788 199.5 713.012 199.28 713.294 199.117C713.575 198.955 713.89 198.832 714.238 198.749C714.586 198.666 714.941 198.603 715.302 198.56C715.759 198.507 716.131 198.464 716.416 198.431C716.701 198.395 716.908 198.337 717.037 198.257C717.166 198.178 717.231 198.048 717.231 197.869V197.835C717.231 197.4 717.108 197.064 716.863 196.825C716.621 196.587 716.26 196.467 715.779 196.467C715.279 196.467 714.884 196.578 714.596 196.8C714.311 197.019 714.114 197.263 714.004 197.531L712.607 197.213C712.773 196.749 713.015 196.375 713.333 196.089C713.655 195.801 714.024 195.592 714.442 195.463C714.86 195.33 715.299 195.264 715.759 195.264C716.064 195.264 716.387 195.301 716.729 195.374C717.074 195.443 717.395 195.572 717.693 195.761C717.995 195.95 718.242 196.22 718.434 196.572C718.626 196.92 718.722 197.372 718.722 197.929V203H717.271V201.956H717.211C717.115 202.148 716.971 202.337 716.779 202.523C716.586 202.708 716.339 202.862 716.038 202.985C715.736 203.108 715.375 203.169 714.954 203.169ZM715.277 201.976C715.688 201.976 716.039 201.895 716.331 201.732C716.626 201.57 716.85 201.358 717.002 201.096C717.158 200.831 717.236 200.547 717.236 200.246V199.261C717.183 199.314 717.08 199.364 716.928 199.411C716.779 199.454 716.608 199.492 716.416 199.525C716.223 199.555 716.036 199.583 715.854 199.609C715.672 199.633 715.519 199.652 715.396 199.669C715.108 199.705 714.845 199.767 714.606 199.853C714.371 199.939 714.182 200.063 714.039 200.226C713.9 200.385 713.83 200.597 713.83 200.862C713.83 201.23 713.966 201.509 714.238 201.697C714.51 201.883 714.856 201.976 715.277 201.976ZM720.822 203V192.818H722.308V196.602H722.398C722.484 196.442 722.608 196.259 722.771 196.05C722.933 195.841 723.158 195.659 723.447 195.503C723.735 195.344 724.116 195.264 724.59 195.264C725.207 195.264 725.757 195.42 726.241 195.732C726.725 196.043 727.104 196.492 727.379 197.079C727.658 197.665 727.797 198.371 727.797 199.197C727.797 200.022 727.659 200.73 727.384 201.32C727.109 201.906 726.731 202.359 726.251 202.677C725.77 202.992 725.222 203.149 724.605 203.149C724.141 203.149 723.762 203.071 723.467 202.915C723.175 202.76 722.946 202.577 722.781 202.369C722.615 202.16 722.487 201.974 722.398 201.812H722.273V203H720.822ZM722.278 199.182C722.278 199.719 722.356 200.189 722.512 200.594C722.668 200.998 722.893 201.315 723.188 201.543C723.483 201.769 723.844 201.881 724.272 201.881C724.716 201.881 725.087 201.764 725.386 201.528C725.684 201.29 725.909 200.967 726.062 200.559C726.218 200.151 726.295 199.692 726.295 199.182C726.295 198.678 726.219 198.226 726.067 197.825C725.918 197.424 725.692 197.107 725.391 196.875C725.092 196.643 724.719 196.527 724.272 196.527C723.841 196.527 723.477 196.638 723.178 196.86C722.883 197.082 722.66 197.392 722.507 197.79C722.355 198.187 722.278 198.652 722.278 199.182ZM732.757 203.154C732.005 203.154 731.357 202.993 730.813 202.672C730.273 202.347 729.856 201.891 729.561 201.305C729.269 200.715 729.123 200.024 729.123 199.232C729.123 198.449 729.269 197.76 729.561 197.163C729.856 196.567 730.267 196.101 730.794 195.766C731.324 195.432 731.944 195.264 732.653 195.264C733.084 195.264 733.501 195.335 733.906 195.478C734.31 195.621 734.673 195.844 734.994 196.149C735.316 196.454 735.57 196.85 735.755 197.337C735.941 197.821 736.034 198.41 736.034 199.102V199.629H729.963V198.516H734.577C734.577 198.125 734.497 197.778 734.338 197.477C734.179 197.172 733.955 196.931 733.667 196.756C733.382 196.58 733.047 196.492 732.663 196.492C732.245 196.492 731.881 196.595 731.569 196.8C731.261 197.003 731.022 197.268 730.853 197.596C730.687 197.921 730.605 198.274 730.605 198.655V199.525C730.605 200.035 730.694 200.469 730.873 200.827C731.055 201.185 731.309 201.459 731.634 201.648C731.959 201.833 732.338 201.926 732.772 201.926C733.054 201.926 733.311 201.886 733.543 201.807C733.775 201.724 733.975 201.601 734.144 201.439C734.313 201.277 734.443 201.076 734.532 200.837L735.939 201.091C735.826 201.505 735.624 201.868 735.333 202.18C735.044 202.488 734.681 202.728 734.244 202.901C733.81 203.07 733.314 203.154 732.757 203.154ZM739.169 192.818V203H737.683V192.818H739.169Z" fill="white" fill-opacity="0.2"/>
<g filter="url(#filter1_ddd_2112_5127)">
<g clip-path="url(#clip1_2112_5127)">
<path d="M802.5 186C802.5 183.791 804.291 182 806.5 182H883.5C885.709 182 887.5 183.791 887.5 186V214H802.5V186Z" fill="white" fill-opacity="0.01" shape-rendering="crispEdges"/>
<mask id="path-35-inside-5_2112_5127" fill="white">
<path d="M802.5 186C802.5 183.791 804.291 182 806.5 182H883.5C885.709 182 887.5 183.791 887.5 186V214H802.5V186Z"/>
</mask>
<path d="M802.5 182H887.5H802.5ZM887.5 216H802.5V212H887.5V216ZM802.5 214V182V214ZM887.5 182V214V182Z" fill="white" fill-opacity="0.9" mask="url(#path-35-inside-5_2112_5127)"/>
<path d="M826.725 201.518C827.545 200.529 827.995 199.285 827.995 198C827.995 196.715 827.545 195.471 826.725 194.483L829.354 191.853C829.401 191.807 829.439 191.752 829.465 191.691C829.491 191.63 829.504 191.565 829.504 191.499C829.505 191.432 829.492 191.367 829.467 191.306C829.442 191.244 829.405 191.189 829.358 191.142C829.311 191.095 829.256 191.058 829.194 191.033C829.133 191.008 829.068 190.995 829.001 190.996C828.935 190.996 828.87 191.009 828.809 191.035C828.748 191.061 828.693 191.099 828.646 191.146L826.018 193.775C825.031 192.951 823.786 192.5 822.5 192.5C821.214 192.5 819.969 192.951 818.982 193.775L816.354 191.146C816.259 191.055 816.133 191.004 816.001 191.004C815.87 191.005 815.744 191.058 815.651 191.151C815.558 191.244 815.505 191.37 815.505 191.501C815.504 191.633 815.555 191.759 815.646 191.853L818.275 194.482C817.454 195.471 817.005 196.715 817.005 198C817.005 199.285 817.454 200.529 818.275 201.518L815.646 204.146C815.599 204.193 815.561 204.248 815.535 204.309C815.51 204.37 815.496 204.435 815.496 204.501C815.495 204.567 815.508 204.633 815.533 204.694C815.558 204.756 815.595 204.811 815.642 204.858C815.689 204.905 815.744 204.942 815.806 204.967C815.867 204.992 815.933 205.005 815.999 205.004C816.065 205.004 816.13 204.99 816.191 204.965C816.252 204.939 816.307 204.901 816.354 204.853L818.982 202.225C819.969 203.049 821.214 203.5 822.5 203.5C823.786 203.5 825.031 203.049 826.018 202.225L828.646 204.853C828.741 204.945 828.867 204.996 828.999 204.995C829.13 204.995 829.256 204.942 829.349 204.849C829.442 204.756 829.495 204.63 829.496 204.499C829.496 204.367 829.445 204.241 829.354 204.146L826.725 201.518ZM826.015 200.808L823.207 198L826.015 195.192C826.65 195.99 826.996 196.98 826.996 198C826.996 199.02 826.65 200.01 826.015 200.808ZM822.5 193.5C823.521 193.498 824.512 193.845 825.308 194.485L822.5 197.293L819.692 194.485C820.488 193.845 821.479 193.498 822.5 193.5ZM818.985 195.192L821.793 198L818.985 200.808C818.349 200.01 818.003 199.02 818.003 198C818.003 196.98 818.349 195.99 818.985 195.192ZM822.5 202.5C821.479 202.502 820.488 202.155 819.692 201.515L822.5 198.707L825.308 201.515C824.512 202.155 823.521 202.502 822.5 202.5Z" fill="white" fill-opacity="0.95"/>
<path d="M839.949 203V192.818H841.485V201.678H846.099V203H839.949ZM849.954 203.169C849.47 203.169 849.033 203.08 848.642 202.901C848.25 202.718 847.941 202.455 847.712 202.11C847.486 201.765 847.374 201.343 847.374 200.842C847.374 200.411 847.457 200.057 847.622 199.778C847.788 199.5 848.012 199.28 848.294 199.117C848.575 198.955 848.89 198.832 849.238 198.749C849.586 198.666 849.941 198.603 850.302 198.56C850.759 198.507 851.131 198.464 851.416 198.431C851.701 198.395 851.908 198.337 852.037 198.257C852.166 198.178 852.231 198.048 852.231 197.869V197.835C852.231 197.4 852.108 197.064 851.863 196.825C851.621 196.587 851.26 196.467 850.779 196.467C850.279 196.467 849.884 196.578 849.596 196.8C849.311 197.019 849.114 197.263 849.004 197.531L847.607 197.213C847.773 196.749 848.015 196.375 848.333 196.089C848.655 195.801 849.024 195.592 849.442 195.463C849.86 195.33 850.299 195.264 850.759 195.264C851.064 195.264 851.387 195.301 851.729 195.374C852.074 195.443 852.395 195.572 852.693 195.761C852.995 195.95 853.242 196.22 853.434 196.572C853.626 196.92 853.722 197.372 853.722 197.929V203H852.271V201.956H852.211C852.115 202.148 851.971 202.337 851.779 202.523C851.586 202.708 851.339 202.862 851.038 202.985C850.736 203.108 850.375 203.169 849.954 203.169ZM850.277 201.976C850.688 201.976 851.039 201.895 851.331 201.732C851.626 201.57 851.85 201.358 852.002 201.096C852.158 200.831 852.236 200.547 852.236 200.246V199.261C852.183 199.314 852.08 199.364 851.928 199.411C851.779 199.454 851.608 199.492 851.416 199.525C851.223 199.555 851.036 199.583 850.854 199.609C850.672 199.633 850.519 199.652 850.396 199.669C850.108 199.705 849.845 199.767 849.606 199.853C849.371 199.939 849.182 200.063 849.039 200.226C848.9 200.385 848.83 200.597 848.83 200.862C848.83 201.23 848.966 201.509 849.238 201.697C849.51 201.883 849.856 201.976 850.277 201.976ZM855.822 203V192.818H857.308V196.602H857.398C857.484 196.442 857.608 196.259 857.771 196.05C857.933 195.841 858.158 195.659 858.447 195.503C858.735 195.344 859.116 195.264 859.59 195.264C860.207 195.264 860.757 195.42 861.241 195.732C861.725 196.043 862.104 196.492 862.379 197.079C862.658 197.665 862.797 198.371 862.797 199.197C862.797 200.022 862.659 200.73 862.384 201.32C862.109 201.906 861.731 202.359 861.251 202.677C860.77 202.992 860.222 203.149 859.605 203.149C859.141 203.149 858.762 203.071 858.467 202.915C858.175 202.76 857.946 202.577 857.781 202.369C857.615 202.16 857.487 201.974 857.398 201.812H857.273V203H855.822ZM857.278 199.182C857.278 199.719 857.356 200.189 857.512 200.594C857.668 200.998 857.893 201.315 858.188 201.543C858.483 201.769 858.844 201.881 859.272 201.881C859.716 201.881 860.087 201.764 860.386 201.528C860.684 201.29 860.909 200.967 861.062 200.559C861.218 200.151 861.295 199.692 861.295 199.182C861.295 198.678 861.219 198.226 861.067 197.825C860.918 197.424 860.692 197.107 860.391 196.875C860.092 196.643 859.719 196.527 859.272 196.527C858.841 196.527 858.477 196.638 858.178 196.86C857.883 197.082 857.66 197.392 857.507 197.79C857.355 198.187 857.278 198.652 857.278 199.182ZM867.757 203.154C867.005 203.154 866.357 202.993 865.813 202.672C865.273 202.347 864.856 201.891 864.561 201.305C864.269 200.715 864.123 200.024 864.123 199.232C864.123 198.449 864.269 197.76 864.561 197.163C864.856 196.567 865.267 196.101 865.794 195.766C866.324 195.432 866.944 195.264 867.653 195.264C868.084 195.264 868.501 195.335 868.906 195.478C869.31 195.621 869.673 195.844 869.994 196.149C870.316 196.454 870.57 196.85 870.755 197.337C870.941 197.821 871.034 198.41 871.034 199.102V199.629H864.963V198.516H869.577C869.577 198.125 869.497 197.778 869.338 197.477C869.179 197.172 868.955 196.931 868.667 196.756C868.382 196.58 868.047 196.492 867.663 196.492C867.245 196.492 866.881 196.595 866.569 196.8C866.261 197.003 866.022 197.268 865.853 197.596C865.687 197.921 865.605 198.274 865.605 198.655V199.525C865.605 200.035 865.694 200.469 865.873 200.827C866.055 201.185 866.309 201.459 866.634 201.648C866.959 201.833 867.338 201.926 867.772 201.926C868.054 201.926 868.311 201.886 868.543 201.807C868.775 201.724 868.975 201.601 869.144 201.439C869.313 201.277 869.443 201.076 869.532 200.837L870.939 201.091C870.826 201.505 870.624 201.868 870.333 202.18C870.044 202.488 869.681 202.728 869.244 202.901C868.81 203.07 868.314 203.154 867.757 203.154ZM874.169 192.818V203H872.683V192.818H874.169Z" fill="white" fill-opacity="0.95"/>
</g>
</g>
<defs>
<filter id="filter0_ddd_2112_5127" x="797.5" y="95" width="95" height="42" filterUnits="userSpaceOnUse" color-interpolation-filters="sRGB">
<feFlood flood-opacity="0" result="BackgroundImageFix"/>
<feColorMatrix in="SourceAlpha" type="matrix" values="0 0 0 0 0 0 0 0 0 0 0 0 0 0 0 0 0 0 127 0" result="hardAlpha"/>
<feMorphology radius="4" operator="dilate" in="SourceAlpha" result="effect1_dropShadow_2112_5127"/>
<feOffset/>
<feComposite in2="hardAlpha" operator="out"/>
<feColorMatrix type="matrix" values="0 0 0 0 0.392157 0 0 0 0 0.705882 0 0 0 0 0.980392 0 0 0 1 0"/>
<feBlend mode="normal" in2="BackgroundImageFix" result="effect1_dropShadow_2112_5127"/>
<feColorMatrix in="SourceAlpha" type="matrix" values="0 0 0 0 0 0 0 0 0 0 0 0 0 0 0 0 0 0 127 0" result="hardAlpha"/>
<feMorphology radius="5" operator="dilate" in="SourceAlpha" result="effect2_dropShadow_2112_5127"/>
<feOffset/>
<feComposite in2="hardAlpha" operator="out"/>
<feColorMatrix type="matrix" values="0 0 0 0 0.392157 0 0 0 0 0.705882 0 0 0 0 0.980392 0 0 0 0.35 0"/>
<feBlend mode="normal" in2="effect1_dropShadow_2112_5127" result="effect2_dropShadow_2112_5127"/>
<feColorMatrix in="SourceAlpha" type="matrix" values="0 0 0 0 0 0 0 0 0 0 0 0 0 0 0 0 0 0 127 0" result="hardAlpha"/>
<feMorphology radius="2" operator="dilate" in="SourceAlpha" result="effect3_dropShadow_2112_5127"/>
<feOffset/>
<feComposite in2="hardAlpha" operator="out"/>
<feColorMatrix type="matrix" values="0 0 0 0 0 0 0 0 0 0 0 0 0 0 0 0 0 0 1 0"/>
<feBlend mode="normal" in2="effect2_dropShadow_2112_5127" result="effect3_dropShadow_2112_5127"/>
<feBlend mode="normal" in="SourceGraphic" in2="effect3_dropShadow_2112_5127" result="shape"/>
</filter>
<filter id="filter1_ddd_2112_5127" x="797.5" y="177" width="95" height="42" filterUnits="userSpaceOnUse" color-interpolation-filters="sRGB">
<feFlood flood-opacity="0" result="BackgroundImageFix"/>
<feColorMatrix in="SourceAlpha" type="matrix" values="0 0 0 0 0 0 0 0 0 0 0 0 0 0 0 0 0 0 127 0" result="hardAlpha"/>
<feMorphology radius="4" operator="dilate" in="SourceAlpha" result="effect1_dropShadow_2112_5127"/>
<feOffset/>
<feComposite in2="hardAlpha" operator="out"/>
<feColorMatrix type="matrix" values="0 0 0 0 0.392157 0 0 0 0 0.705882 0 0 0 0 0.980392 0 0 0 1 0"/>
<feBlend mode="normal" in2="BackgroundImageFix" result="effect1_dropShadow_2112_5127"/>
<feColorMatrix in="SourceAlpha" type="matrix" values="0 0 0 0 0 0 0 0 0 0 0 0 0 0 0 0 0 0 127 0" result="hardAlpha"/>
<feMorphology radius="5" operator="dilate" in="SourceAlpha" result="effect2_dropShadow_2112_5127"/>
<feOffset/>
<feComposite in2="hardAlpha" operator="out"/>
<feColorMatrix type="matrix" values="0 0 0 0 0.392157 0 0 0 0 0.705882 0 0 0 0 0.980392 0 0 0 0.35 0"/>
<feBlend mode="normal" in2="effect1_dropShadow_2112_5127" result="effect2_dropShadow_2112_5127"/>
<feColorMatrix in="SourceAlpha" type="matrix" values="0 0 0 0 0 0 0 0 0 0 0 0 0 0 0 0 0 0 127 0" result="hardAlpha"/>
<feMorphology radius="2" operator="dilate" in="SourceAlpha" result="effect3_dropShadow_2112_5127"/>
<feOffset/>
<feComposite in2="hardAlpha" operator="out"/>
<feColorMatrix type="matrix" values="0 0 0 0 0 0 0 0 0 0 0 0 0 0 0 0 0 0 1 0"/>
<feBlend mode="normal" in2="effect2_dropShadow_2112_5127" result="effect3_dropShadow_2112_5127"/>
<feBlend mode="normal" in="SourceGraphic" in2="effect3_dropShadow_2112_5127" result="shape"/>
</filter>
<clipPath id="clip0_2112_5127">
<path d="M802.5 104C802.5 101.791 804.291 100 806.5 100H883.5C885.709 100 887.5 101.791 887.5 104V132H802.5V104Z" fill="white"/>
</clipPath>
<clipPath id="clip1_2112_5127">
<path d="M802.5 186C802.5 183.791 804.291 182 806.5 182H883.5C885.709 182 887.5 183.791 887.5 186V214H802.5V186Z" fill="white"/>
</clipPath>
</defs>
</svg>
