<svg width="1150" height="337" viewBox="0 0 1150 337" fill="none" xmlns="http://www.w3.org/2000/svg">
<rect width="1150" height="337" rx="16" fill="#1A1A1A"/>
<g clip-path="url(#clip0_2112_5215)">
<path d="M346.207 162L351.854 156.354C351.945 156.259 351.996 156.133 351.995 156.002C351.994 155.87 351.941 155.745 351.848 155.652C351.756 155.559 351.63 155.507 351.499 155.506C351.367 155.505 351.241 155.555 351.147 155.647L345.147 161.647C345.053 161.74 345 161.868 345 162C345 162.133 345.053 162.26 345.147 162.354L351.147 168.354C351.193 168.401 351.248 168.439 351.309 168.465C351.37 168.491 351.435 168.505 351.502 168.505C351.568 168.506 351.634 168.493 351.695 168.468C351.756 168.443 351.812 168.406 351.859 168.359C351.906 168.312 351.943 168.256 351.968 168.195C351.993 168.134 352.006 168.068 352.006 168.002C352.005 167.935 351.991 167.87 351.965 167.809C351.939 167.748 351.901 167.693 351.854 167.647L346.207 162Z" fill="white" fill-opacity="0.95"/>
<g clip-path="url(#clip1_2112_5215)">
<path d="M398.751 161.909C398.751 162.996 398.552 163.931 398.155 164.713C397.757 165.492 397.212 166.092 396.519 166.513C395.83 166.93 395.046 167.139 394.167 167.139C393.286 167.139 392.499 166.93 391.806 166.513C391.116 166.092 390.573 165.49 390.175 164.708C389.777 163.926 389.579 162.993 389.579 161.909C389.579 160.822 389.777 159.889 390.175 159.11C390.573 158.328 391.116 157.728 391.806 157.31C392.499 156.889 393.286 156.679 394.167 156.679C395.046 156.679 395.83 156.889 396.519 157.31C397.212 157.728 397.757 158.328 398.155 159.11C398.552 159.889 398.751 160.822 398.751 161.909ZM397.23 161.909C397.23 161.08 397.096 160.383 396.827 159.816C396.562 159.246 396.197 158.815 395.733 158.523C395.273 158.228 394.751 158.081 394.167 158.081C393.581 158.081 393.057 158.228 392.596 158.523C392.136 158.815 391.771 159.246 391.503 159.816C391.237 160.383 391.105 161.08 391.105 161.909C391.105 162.738 391.237 163.437 391.503 164.007C391.771 164.574 392.136 165.005 392.596 165.3C393.057 165.591 393.581 165.737 394.167 165.737C394.751 165.737 395.273 165.591 395.733 165.3C396.197 165.005 396.562 164.574 396.827 164.007C397.096 163.437 397.23 162.738 397.23 161.909ZM407.08 159.364L404.311 167H402.72L399.946 159.364H401.541L403.475 165.24H403.555L405.484 159.364H407.08ZM411.508 167.154C410.756 167.154 410.108 166.993 409.564 166.672C409.024 166.347 408.607 165.891 408.312 165.305C408.02 164.715 407.874 164.024 407.874 163.232C407.874 162.449 408.02 161.76 408.312 161.163C408.607 160.567 409.017 160.101 409.544 159.766C410.075 159.432 410.695 159.264 411.404 159.264C411.835 159.264 412.252 159.335 412.657 159.478C413.061 159.621 413.424 159.844 413.745 160.149C414.067 160.454 414.321 160.85 414.506 161.337C414.692 161.821 414.785 162.41 414.785 163.102V163.629H408.714V162.516H413.328C413.328 162.125 413.248 161.778 413.089 161.477C412.93 161.172 412.706 160.931 412.418 160.756C412.133 160.58 411.798 160.492 411.414 160.492C410.996 160.492 410.632 160.595 410.32 160.8C410.012 161.003 409.773 161.268 409.604 161.596C409.438 161.921 409.356 162.274 409.356 162.655V163.525C409.356 164.035 409.445 164.469 409.624 164.827C409.806 165.185 410.06 165.459 410.385 165.648C410.709 165.833 411.089 165.926 411.523 165.926C411.805 165.926 412.062 165.886 412.294 165.807C412.526 165.724 412.726 165.601 412.895 165.439C413.064 165.277 413.194 165.076 413.283 164.837L414.69 165.091C414.577 165.505 414.375 165.868 414.084 166.18C413.795 166.488 413.432 166.728 412.995 166.901C412.561 167.07 412.065 167.154 411.508 167.154ZM416.434 167V159.364H417.871V160.577H417.95C418.089 160.166 418.335 159.843 418.686 159.607C419.041 159.369 419.442 159.249 419.889 159.249C419.982 159.249 420.091 159.253 420.217 159.259C420.347 159.266 420.448 159.274 420.521 159.284V160.706C420.461 160.689 420.355 160.671 420.202 160.651C420.05 160.628 419.897 160.616 419.745 160.616C419.394 160.616 419.08 160.691 418.805 160.84C418.534 160.986 418.318 161.19 418.159 161.452C418 161.71 417.92 162.005 417.92 162.337V167H416.434ZM428.572 159.364L425.803 167H424.212L421.438 159.364H423.034L424.968 165.24H425.047L426.976 159.364H428.572ZM429.969 167V159.364H431.456V167H429.969ZM430.72 158.185C430.461 158.185 430.239 158.099 430.054 157.927C429.871 157.751 429.78 157.542 429.78 157.3C429.78 157.055 429.871 156.846 430.054 156.674C430.239 156.498 430.461 156.411 430.72 156.411C430.978 156.411 431.199 156.498 431.381 156.674C431.567 156.846 431.659 157.055 431.659 157.3C431.659 157.542 431.567 157.751 431.381 157.927C431.199 158.099 430.978 158.185 430.72 158.185ZM436.747 167.154C435.994 167.154 435.346 166.993 434.803 166.672C434.262 166.347 433.845 165.891 433.55 165.305C433.258 164.715 433.112 164.024 433.112 163.232C433.112 162.449 433.258 161.76 433.55 161.163C433.845 160.567 434.256 160.101 434.783 159.766C435.313 159.432 435.933 159.264 436.642 159.264C437.073 159.264 437.491 159.335 437.895 159.478C438.299 159.621 438.662 159.844 438.984 160.149C439.305 160.454 439.559 160.85 439.744 161.337C439.93 161.821 440.023 162.41 440.023 163.102V163.629H433.953V162.516H438.566C438.566 162.125 438.487 161.778 438.328 161.477C438.168 161.172 437.945 160.931 437.656 160.756C437.371 160.58 437.037 160.492 436.652 160.492C436.234 160.492 435.87 160.595 435.558 160.8C435.25 161.003 435.011 161.268 434.842 161.596C434.677 161.921 434.594 162.274 434.594 162.655V163.525C434.594 164.035 434.683 164.469 434.862 164.827C435.045 165.185 435.298 165.459 435.623 165.648C435.948 165.833 436.327 165.926 436.761 165.926C437.043 165.926 437.3 165.886 437.532 165.807C437.764 165.724 437.965 165.601 438.134 165.439C438.303 165.277 438.432 165.076 438.521 164.837L439.928 165.091C439.816 165.505 439.613 165.868 439.322 166.18C439.033 166.488 438.671 166.728 438.233 166.901C437.799 167.07 437.303 167.154 436.747 167.154ZM443.314 167L441.067 159.364H442.603L444.1 164.972H444.174L445.676 159.364H447.212L448.703 164.947H448.778L450.264 159.364H451.801L449.558 167H448.042L446.491 161.487H446.377L444.825 167H443.314Z" fill="white" fill-opacity="0.7"/>
<path d="M486.067 167V156.818H487.603V165.678H492.217V167H486.067ZM493.85 167V159.364H495.336V167H493.85ZM494.601 158.185C494.342 158.185 494.12 158.099 493.934 157.927C493.752 157.751 493.661 157.542 493.661 157.3C493.661 157.055 493.752 156.846 493.934 156.674C494.12 156.498 494.342 156.411 494.601 156.411C494.859 156.411 495.08 156.498 495.262 156.674C495.447 156.846 495.54 157.055 495.54 157.3C495.54 157.542 495.447 157.751 495.262 157.927C495.08 158.099 494.859 158.185 494.601 158.185ZM503.059 161.228L501.711 161.467C501.655 161.294 501.565 161.13 501.443 160.974C501.323 160.819 501.161 160.691 500.956 160.592C500.75 160.492 500.493 160.442 500.185 160.442C499.764 160.442 499.413 160.537 499.131 160.726C498.849 160.911 498.708 161.152 498.708 161.447C498.708 161.702 498.803 161.907 498.992 162.063C499.181 162.219 499.486 162.347 499.907 162.446L501.12 162.724C501.822 162.887 502.346 163.137 502.691 163.475C503.035 163.813 503.208 164.252 503.208 164.793C503.208 165.25 503.075 165.658 502.81 166.016C502.548 166.37 502.182 166.649 501.711 166.851C501.244 167.053 500.702 167.154 500.085 167.154C499.23 167.154 498.533 166.972 497.992 166.607C497.452 166.239 497.121 165.717 496.998 165.041L498.435 164.822C498.524 165.197 498.708 165.48 498.987 165.673C499.265 165.862 499.628 165.956 500.076 165.956C500.563 165.956 500.952 165.855 501.244 165.653C501.536 165.447 501.681 165.197 501.681 164.902C501.681 164.663 501.592 164.463 501.413 164.3C501.237 164.138 500.967 164.015 500.603 163.933L499.31 163.649C498.597 163.487 498.07 163.228 497.729 162.874C497.391 162.519 497.222 162.07 497.222 161.526C497.222 161.076 497.348 160.681 497.6 160.343C497.852 160.005 498.2 159.741 498.644 159.553C499.088 159.36 499.597 159.264 500.17 159.264C500.995 159.264 501.645 159.443 502.119 159.801C502.593 160.156 502.906 160.631 503.059 161.228ZM508.407 159.364V160.557H504.236V159.364H508.407ZM505.354 157.534H506.841V164.758C506.841 165.046 506.884 165.263 506.97 165.409C507.056 165.552 507.167 165.649 507.303 165.702C507.442 165.752 507.593 165.777 507.755 165.777C507.875 165.777 507.979 165.769 508.069 165.752C508.158 165.736 508.228 165.722 508.277 165.712L508.546 166.94C508.46 166.973 508.337 167.007 508.178 167.04C508.019 167.076 507.82 167.096 507.581 167.099C507.19 167.106 506.826 167.036 506.488 166.891C506.15 166.745 505.876 166.519 505.667 166.214C505.459 165.91 505.354 165.527 505.354 165.066V157.534Z" fill="white" fill-opacity="0.7"/>
<rect x="529.5" y="146" width="64" height="32" rx="16" fill="white" fill-opacity="0.2"/>
<path d="M542.904 167V156.818H546.632C547.355 156.818 547.953 156.937 548.427 157.176C548.901 157.411 549.256 157.731 549.491 158.136C549.726 158.537 549.844 158.989 549.844 159.493C549.844 159.917 549.766 160.275 549.61 160.567C549.455 160.855 549.246 161.087 548.984 161.263C548.725 161.435 548.44 161.561 548.129 161.641V161.74C548.467 161.757 548.797 161.866 549.118 162.068C549.443 162.267 549.712 162.55 549.924 162.918C550.136 163.286 550.242 163.734 550.242 164.261C550.242 164.781 550.119 165.248 549.874 165.663C549.632 166.074 549.257 166.4 548.75 166.642C548.243 166.881 547.595 167 546.806 167H542.904ZM544.44 165.683H546.657C547.393 165.683 547.92 165.54 548.238 165.255C548.556 164.97 548.716 164.614 548.716 164.186C548.716 163.865 548.634 163.57 548.472 163.301C548.31 163.033 548.078 162.819 547.776 162.66C547.478 162.501 547.123 162.421 546.712 162.421H544.44V165.683ZM544.44 161.223H546.498C546.843 161.223 547.153 161.157 547.428 161.024C547.706 160.892 547.927 160.706 548.089 160.467C548.255 160.225 548.338 159.94 548.338 159.612C548.338 159.191 548.19 158.838 547.895 158.553C547.6 158.268 547.148 158.126 546.538 158.126H544.44V161.223ZM555.161 167.154C554.445 167.154 553.821 166.99 553.287 166.662C552.753 166.334 552.339 165.875 552.044 165.285C551.749 164.695 551.602 164.005 551.602 163.217C551.602 162.424 551.749 161.732 552.044 161.138C552.339 160.545 552.753 160.085 553.287 159.756C553.821 159.428 554.445 159.264 555.161 159.264C555.877 159.264 556.502 159.428 557.036 159.756C557.569 160.085 557.983 160.545 558.278 161.138C558.573 161.732 558.721 162.424 558.721 163.217C558.721 164.005 558.573 164.695 558.278 165.285C557.983 165.875 557.569 166.334 557.036 166.662C556.502 166.99 555.877 167.154 555.161 167.154ZM555.166 165.906C555.63 165.906 556.015 165.784 556.32 165.538C556.625 165.293 556.85 164.967 556.996 164.559C557.145 164.151 557.219 163.702 557.219 163.212C557.219 162.724 557.145 162.277 556.996 161.869C556.85 161.458 556.625 161.129 556.32 160.88C556.015 160.631 555.63 160.507 555.166 160.507C554.699 160.507 554.311 160.631 554.003 160.88C553.698 161.129 553.471 161.458 553.322 161.869C553.176 162.277 553.103 162.724 553.103 163.212C553.103 163.702 553.176 164.151 553.322 164.559C553.471 164.967 553.698 165.293 554.003 165.538C554.311 165.784 554.699 165.906 555.166 165.906ZM562.602 167.169C562.119 167.169 561.681 167.08 561.29 166.901C560.899 166.718 560.589 166.455 560.36 166.11C560.135 165.765 560.022 165.343 560.022 164.842C560.022 164.411 560.105 164.057 560.271 163.778C560.436 163.5 560.66 163.28 560.942 163.117C561.224 162.955 561.539 162.832 561.887 162.749C562.235 162.666 562.589 162.603 562.95 162.56C563.408 162.507 563.779 162.464 564.064 162.431C564.349 162.395 564.556 162.337 564.686 162.257C564.815 162.178 564.879 162.048 564.879 161.869V161.835C564.879 161.4 564.757 161.064 564.512 160.825C564.27 160.587 563.908 160.467 563.428 160.467C562.927 160.467 562.533 160.578 562.244 160.8C561.959 161.019 561.762 161.263 561.653 161.531L560.256 161.213C560.422 160.749 560.664 160.375 560.982 160.089C561.303 159.801 561.673 159.592 562.09 159.463C562.508 159.33 562.947 159.264 563.408 159.264C563.713 159.264 564.036 159.301 564.377 159.374C564.722 159.443 565.044 159.572 565.342 159.761C565.643 159.95 565.89 160.22 566.083 160.572C566.275 160.92 566.371 161.372 566.371 161.929V167H564.919V165.956H564.86C564.763 166.148 564.619 166.337 564.427 166.523C564.235 166.708 563.988 166.862 563.686 166.985C563.385 167.108 563.023 167.169 562.602 167.169ZM562.926 165.976C563.337 165.976 563.688 165.895 563.98 165.732C564.275 165.57 564.498 165.358 564.651 165.096C564.807 164.831 564.884 164.547 564.884 164.246V163.261C564.831 163.314 564.729 163.364 564.576 163.411C564.427 163.454 564.256 163.492 564.064 163.525C563.872 163.555 563.685 163.583 563.502 163.609C563.32 163.633 563.168 163.652 563.045 163.669C562.757 163.705 562.493 163.767 562.254 163.853C562.019 163.939 561.83 164.063 561.688 164.226C561.548 164.385 561.479 164.597 561.479 164.862C561.479 165.23 561.615 165.509 561.887 165.697C562.158 165.883 562.505 165.976 562.926 165.976ZM568.351 167V159.364H569.788V160.577H569.867C570.006 160.166 570.252 159.843 570.603 159.607C570.958 159.369 571.359 159.249 571.806 159.249C571.899 159.249 572.008 159.253 572.134 159.259C572.263 159.266 572.365 159.274 572.438 159.284V160.706C572.378 160.689 572.272 160.671 572.119 160.651C571.967 160.628 571.814 160.616 571.662 160.616C571.311 160.616 570.997 160.691 570.722 160.84C570.451 160.986 570.235 161.19 570.076 161.452C569.917 161.71 569.837 162.005 569.837 162.337V167H568.351ZM576.309 167.149C575.693 167.149 575.142 166.992 574.659 166.677C574.178 166.359 573.8 165.906 573.525 165.32C573.253 164.73 573.117 164.022 573.117 163.197C573.117 162.371 573.255 161.665 573.53 161.079C573.808 160.492 574.19 160.043 574.673 159.732C575.157 159.42 575.706 159.264 576.319 159.264C576.793 159.264 577.174 159.344 577.463 159.503C577.754 159.659 577.98 159.841 578.139 160.05C578.301 160.259 578.427 160.442 578.517 160.602H578.606V156.818H580.093V167H578.641V165.812H578.517C578.427 165.974 578.298 166.16 578.129 166.369C577.963 166.577 577.734 166.76 577.443 166.915C577.151 167.071 576.773 167.149 576.309 167.149ZM576.637 165.881C577.065 165.881 577.426 165.769 577.721 165.543C578.019 165.315 578.245 164.998 578.397 164.594C578.553 164.189 578.631 163.719 578.631 163.182C578.631 162.652 578.555 162.187 578.402 161.79C578.25 161.392 578.026 161.082 577.731 160.86C577.436 160.638 577.071 160.527 576.637 160.527C576.19 160.527 575.817 160.643 575.519 160.875C575.22 161.107 574.995 161.424 574.843 161.825C574.693 162.226 574.619 162.678 574.619 163.182C574.619 163.692 574.695 164.151 574.847 164.559C575 164.967 575.225 165.29 575.524 165.528C575.825 165.764 576.196 165.881 576.637 165.881Z" fill="white" fill-opacity="0.95"/>
<path d="M614.241 158.141V156.818H622.12V158.141H618.944V167H617.412V158.141H614.241ZM623.742 167V159.364H625.229V167H623.742ZM624.493 158.185C624.235 158.185 624.013 158.099 623.827 157.927C623.645 157.751 623.554 157.542 623.554 157.3C623.554 157.055 623.645 156.846 623.827 156.674C624.013 156.498 624.235 156.411 624.493 156.411C624.752 156.411 624.972 156.498 625.154 156.674C625.34 156.846 625.433 157.055 625.433 157.3C625.433 157.542 625.34 157.751 625.154 157.927C624.972 158.099 624.752 158.185 624.493 158.185ZM627.229 167V159.364H628.656V160.607H628.75C628.909 160.186 629.169 159.857 629.531 159.622C629.892 159.384 630.324 159.264 630.828 159.264C631.339 159.264 631.766 159.384 632.111 159.622C632.459 159.861 632.716 160.189 632.881 160.607H632.961C633.143 160.199 633.433 159.874 633.831 159.632C634.229 159.387 634.703 159.264 635.253 159.264C635.946 159.264 636.511 159.481 636.948 159.915C637.389 160.35 637.609 161.004 637.609 161.879V167H636.123V162.018C636.123 161.501 635.982 161.127 635.7 160.895C635.419 160.663 635.082 160.547 634.691 160.547C634.207 160.547 633.831 160.696 633.563 160.994C633.294 161.289 633.16 161.669 633.16 162.133V167H631.678V161.924C631.678 161.51 631.549 161.177 631.291 160.925C631.032 160.673 630.696 160.547 630.281 160.547C630 160.547 629.739 160.621 629.501 160.771C629.265 160.916 629.075 161.12 628.929 161.382C628.787 161.644 628.715 161.947 628.715 162.292V167H627.229ZM642.893 167.154C642.141 167.154 641.493 166.993 640.949 166.672C640.409 166.347 639.991 165.891 639.696 165.305C639.405 164.715 639.259 164.024 639.259 163.232C639.259 162.449 639.405 161.76 639.696 161.163C639.991 160.567 640.402 160.101 640.929 159.766C641.46 159.432 642.079 159.264 642.789 159.264C643.219 159.264 643.637 159.335 644.041 159.478C644.446 159.621 644.809 159.844 645.13 160.149C645.452 160.454 645.705 160.85 645.891 161.337C646.076 161.821 646.169 162.41 646.169 163.102V163.629H640.099V162.516H644.713C644.713 162.125 644.633 161.778 644.474 161.477C644.315 161.172 644.091 160.931 643.803 160.756C643.518 160.58 643.183 160.492 642.799 160.492C642.381 160.492 642.016 160.595 641.705 160.8C641.397 161.003 641.158 161.268 640.989 161.596C640.823 161.921 640.74 162.274 640.74 162.655V163.525C640.74 164.035 640.83 164.469 641.009 164.827C641.191 165.185 641.445 165.459 641.769 165.648C642.094 165.833 642.474 165.926 642.908 165.926C643.19 165.926 643.447 165.886 643.679 165.807C643.911 165.724 644.111 165.601 644.28 165.439C644.449 165.277 644.578 165.076 644.668 164.837L646.075 165.091C645.962 165.505 645.76 165.868 645.468 166.18C645.18 166.488 644.817 166.728 644.38 166.901C643.945 167.07 643.45 167.154 642.893 167.154ZM649.305 156.818V167H647.819V156.818H649.305ZM651.305 167V159.364H652.791V167H651.305ZM652.056 158.185C651.797 158.185 651.575 158.099 651.389 157.927C651.207 157.751 651.116 157.542 651.116 157.3C651.116 157.055 651.207 156.846 651.389 156.674C651.575 156.498 651.797 156.411 652.056 156.411C652.314 156.411 652.535 156.498 652.717 156.674C652.902 156.846 652.995 157.055 652.995 157.3C652.995 157.542 652.902 157.751 652.717 157.927C652.535 158.099 652.314 158.185 652.056 158.185ZM656.278 162.466V167H654.791V159.364H656.218V160.607H656.313C656.488 160.202 656.763 159.877 657.138 159.632C657.516 159.387 657.991 159.264 658.565 159.264C659.085 159.264 659.541 159.374 659.932 159.592C660.323 159.808 660.626 160.129 660.842 160.557C661.057 160.984 661.165 161.513 661.165 162.143V167H659.678V162.322C659.678 161.768 659.534 161.336 659.246 161.024C658.957 160.709 658.561 160.552 658.058 160.552C657.713 160.552 657.406 160.626 657.138 160.776C656.873 160.925 656.662 161.143 656.506 161.432C656.354 161.717 656.278 162.062 656.278 162.466ZM666.45 167.154C665.697 167.154 665.049 166.993 664.506 166.672C663.966 166.347 663.548 165.891 663.253 165.305C662.961 164.715 662.815 164.024 662.815 163.232C662.815 162.449 662.961 161.76 663.253 161.163C663.548 160.567 663.959 160.101 664.486 159.766C665.016 159.432 665.636 159.264 666.345 159.264C666.776 159.264 667.194 159.335 667.598 159.478C668.002 159.621 668.365 159.844 668.687 160.149C669.008 160.454 669.262 160.85 669.448 161.337C669.633 161.821 669.726 162.41 669.726 163.102V163.629H663.656V162.516H668.269C668.269 162.125 668.19 161.778 668.031 161.477C667.872 161.172 667.648 160.931 667.359 160.756C667.074 160.58 666.74 160.492 666.355 160.492C665.938 160.492 665.573 160.595 665.261 160.8C664.953 161.003 664.715 161.268 664.546 161.596C664.38 161.921 664.297 162.274 664.297 162.655V163.525C664.297 164.035 664.386 164.469 664.565 164.827C664.748 165.185 665.001 165.459 665.326 165.648C665.651 165.833 666.03 165.926 666.465 165.926C666.746 165.926 667.003 165.886 667.235 165.807C667.467 165.724 667.668 165.601 667.837 165.439C668.006 165.277 668.135 165.076 668.225 164.837L669.631 165.091C669.519 165.505 669.317 165.868 669.025 166.18C668.737 166.488 668.374 166.728 667.936 166.901C667.502 167.07 667.006 167.154 666.45 167.154Z" fill="white" fill-opacity="0.7"/>
<path d="M712.354 160.129H710.802C710.743 159.798 710.632 159.506 710.469 159.254C710.307 159.002 710.108 158.789 709.873 158.613C709.637 158.437 709.374 158.305 709.082 158.215C708.794 158.126 708.487 158.081 708.163 158.081C707.576 158.081 707.051 158.228 706.587 158.523C706.126 158.818 705.761 159.251 705.493 159.821C705.228 160.391 705.095 161.087 705.095 161.909C705.095 162.738 705.228 163.437 705.493 164.007C705.761 164.577 706.128 165.008 706.592 165.3C707.056 165.591 707.578 165.737 708.158 165.737C708.479 165.737 708.784 165.694 709.072 165.608C709.364 165.518 709.628 165.388 709.863 165.215C710.098 165.043 710.297 164.832 710.459 164.584C710.625 164.332 710.739 164.044 710.802 163.719L712.354 163.724C712.271 164.224 712.11 164.685 711.871 165.106C711.636 165.523 711.333 165.885 710.962 166.19C710.594 166.491 710.173 166.725 709.699 166.891C709.225 167.056 708.708 167.139 708.148 167.139C707.266 167.139 706.48 166.93 705.791 166.513C705.102 166.092 704.558 165.49 704.16 164.708C703.766 163.926 703.569 162.993 703.569 161.909C703.569 160.822 703.768 159.889 704.165 159.11C704.563 158.328 705.107 157.728 705.796 157.31C706.485 156.889 707.269 156.679 708.148 156.679C708.688 156.679 709.192 156.757 709.659 156.913C710.13 157.065 710.552 157.29 710.927 157.589C711.301 157.884 711.611 158.245 711.856 158.673C712.102 159.097 712.267 159.582 712.354 160.129ZM716.295 167.169C715.811 167.169 715.373 167.08 714.982 166.901C714.591 166.718 714.281 166.455 714.053 166.11C713.827 165.765 713.715 165.343 713.715 164.842C713.715 164.411 713.797 164.057 713.963 163.778C714.129 163.5 714.353 163.28 714.634 163.117C714.916 162.955 715.231 162.832 715.579 162.749C715.927 162.666 716.282 162.603 716.643 162.56C717.1 162.507 717.471 162.464 717.756 162.431C718.042 162.395 718.249 162.337 718.378 162.257C718.507 162.178 718.572 162.048 718.572 161.869V161.835C718.572 161.4 718.449 161.064 718.204 160.825C717.962 160.587 717.601 160.467 717.12 160.467C716.62 160.467 716.225 160.578 715.937 160.8C715.652 161.019 715.455 161.263 715.345 161.531L713.948 161.213C714.114 160.749 714.356 160.375 714.674 160.089C714.996 159.801 715.365 159.592 715.783 159.463C716.2 159.33 716.64 159.264 717.1 159.264C717.405 159.264 717.728 159.301 718.07 159.374C718.414 159.443 718.736 159.572 719.034 159.761C719.336 159.95 719.583 160.22 719.775 160.572C719.967 160.92 720.063 161.372 720.063 161.929V167H718.612V165.956H718.552C718.456 166.148 718.312 166.337 718.119 166.523C717.927 166.708 717.68 166.862 717.379 166.985C717.077 167.108 716.716 167.169 716.295 167.169ZM716.618 165.976C717.029 165.976 717.38 165.895 717.672 165.732C717.967 165.57 718.191 165.358 718.343 165.096C718.499 164.831 718.577 164.547 718.577 164.246V163.261C718.524 163.314 718.421 163.364 718.269 163.411C718.119 163.454 717.949 163.492 717.756 163.525C717.564 163.555 717.377 163.583 717.195 163.609C717.012 163.633 716.86 163.652 716.737 163.669C716.449 163.705 716.185 163.767 715.947 163.853C715.711 163.939 715.523 164.063 715.38 164.226C715.241 164.385 715.171 164.597 715.171 164.862C715.171 165.23 715.307 165.509 715.579 165.697C715.851 165.883 716.197 165.976 716.618 165.976ZM723.53 156.818V167H722.043V156.818H723.53ZM728.821 167.154C728.068 167.154 727.42 166.993 726.877 166.672C726.337 166.347 725.919 165.891 725.624 165.305C725.332 164.715 725.187 164.024 725.187 163.232C725.187 162.449 725.332 161.76 725.624 161.163C725.919 160.567 726.33 160.101 726.857 159.766C727.387 159.432 728.007 159.264 728.716 159.264C729.147 159.264 729.565 159.335 729.969 159.478C730.374 159.621 730.736 159.844 731.058 160.149C731.379 160.454 731.633 160.85 731.819 161.337C732.004 161.821 732.097 162.41 732.097 163.102V163.629H726.027V162.516H730.64C730.64 162.125 730.561 161.778 730.402 161.477C730.243 161.172 730.019 160.931 729.731 160.756C729.446 160.58 729.111 160.492 728.726 160.492C728.309 160.492 727.944 160.595 727.633 160.8C727.324 161.003 727.086 161.268 726.917 161.596C726.751 161.921 726.668 162.274 726.668 162.655V163.525C726.668 164.035 726.758 164.469 726.937 164.827C727.119 165.185 727.372 165.459 727.697 165.648C728.022 165.833 728.401 165.926 728.836 165.926C729.117 165.926 729.374 165.886 729.606 165.807C729.838 165.724 730.039 165.601 730.208 165.439C730.377 165.277 730.506 165.076 730.596 164.837L732.003 165.091C731.89 165.505 731.688 165.868 731.396 166.18C731.108 166.488 730.745 166.728 730.307 166.901C729.873 167.07 729.378 167.154 728.821 167.154ZM735.233 162.466V167H733.746V159.364H735.173V160.607H735.268C735.443 160.202 735.718 159.877 736.093 159.632C736.471 159.387 736.946 159.264 737.52 159.264C738.04 159.264 738.496 159.374 738.887 159.592C739.278 159.808 739.581 160.129 739.797 160.557C740.012 160.984 740.12 161.513 740.12 162.143V167H738.633V162.322C738.633 161.768 738.489 161.336 738.201 161.024C737.913 160.709 737.516 160.552 737.013 160.552C736.668 160.552 736.361 160.626 736.093 160.776C735.828 160.925 735.617 161.143 735.462 161.432C735.309 161.717 735.233 162.062 735.233 162.466ZM744.972 167.149C744.356 167.149 743.806 166.992 743.322 166.677C742.841 166.359 742.463 165.906 742.188 165.32C741.916 164.73 741.78 164.022 741.78 163.197C741.78 162.371 741.918 161.665 742.193 161.079C742.472 160.492 742.853 160.043 743.337 159.732C743.82 159.42 744.369 159.264 744.982 159.264C745.456 159.264 745.837 159.344 746.126 159.503C746.417 159.659 746.643 159.841 746.802 160.05C746.964 160.259 747.09 160.442 747.18 160.602H747.269V156.818H748.756V167H747.304V165.812H747.18C747.09 165.974 746.961 166.16 746.792 166.369C746.626 166.577 746.397 166.76 746.106 166.915C745.814 167.071 745.436 167.149 744.972 167.149ZM745.3 165.881C745.728 165.881 746.089 165.769 746.384 165.543C746.682 165.315 746.908 164.998 747.06 164.594C747.216 164.189 747.294 163.719 747.294 163.182C747.294 162.652 747.218 162.187 747.065 161.79C746.913 161.392 746.689 161.082 746.394 160.86C746.099 160.638 745.735 160.527 745.3 160.527C744.853 160.527 744.48 160.643 744.182 160.875C743.883 161.107 743.658 161.424 743.506 161.825C743.356 162.226 743.282 162.678 743.282 163.182C743.282 163.692 743.358 164.151 743.511 164.559C743.663 164.967 743.888 165.29 744.187 165.528C744.488 165.764 744.86 165.881 745.3 165.881ZM753.1 167.169C752.616 167.169 752.178 167.08 751.787 166.901C751.396 166.718 751.086 166.455 750.857 166.11C750.632 165.765 750.519 165.343 750.519 164.842C750.519 164.411 750.602 164.057 750.768 163.778C750.934 163.5 751.157 163.28 751.439 163.117C751.721 162.955 752.036 162.832 752.384 162.749C752.732 162.666 753.086 162.603 753.448 162.56C753.905 162.507 754.276 162.464 754.561 162.431C754.846 162.395 755.053 162.337 755.183 162.257C755.312 162.178 755.377 162.048 755.377 161.869V161.835C755.377 161.4 755.254 161.064 755.009 160.825C754.767 160.587 754.405 160.467 753.925 160.467C753.424 160.467 753.03 160.578 752.742 160.8C752.457 161.019 752.259 161.263 752.15 161.531L750.753 161.213C750.919 160.749 751.161 160.375 751.479 160.089C751.8 159.801 752.17 159.592 752.587 159.463C753.005 159.33 753.444 159.264 753.905 159.264C754.21 159.264 754.533 159.301 754.874 159.374C755.219 159.443 755.541 159.572 755.839 159.761C756.14 159.95 756.387 160.22 756.58 160.572C756.772 160.92 756.868 161.372 756.868 161.929V167H755.416V165.956H755.357C755.261 166.148 755.116 166.337 754.924 166.523C754.732 166.708 754.485 166.862 754.183 166.985C753.882 167.108 753.52 167.169 753.1 167.169ZM753.423 165.976C753.834 165.976 754.185 165.895 754.477 165.732C754.772 165.57 754.995 165.358 755.148 165.096C755.304 164.831 755.381 164.547 755.381 164.246V163.261C755.328 163.314 755.226 163.364 755.073 163.411C754.924 163.454 754.753 163.492 754.561 163.525C754.369 163.555 754.182 163.583 753.999 163.609C753.817 163.633 753.665 163.652 753.542 163.669C753.254 163.705 752.99 163.767 752.752 163.853C752.516 163.939 752.327 164.063 752.185 164.226C752.046 164.385 751.976 164.597 751.976 164.862C751.976 165.23 752.112 165.509 752.384 165.697C752.655 165.883 753.002 165.976 753.423 165.976ZM758.848 167V159.364H760.285V160.577H760.364C760.503 160.166 760.749 159.843 761.1 159.607C761.455 159.369 761.856 159.249 762.303 159.249C762.396 159.249 762.505 159.253 762.631 159.259C762.761 159.266 762.862 159.274 762.935 159.284V160.706C762.875 160.689 762.769 160.671 762.616 160.651C762.464 160.628 762.311 160.616 762.159 160.616C761.808 160.616 761.494 160.691 761.219 160.84C760.948 160.986 760.732 161.19 760.573 161.452C760.414 161.71 760.334 162.005 760.334 162.337V167H758.848Z" fill="white" fill-opacity="0.7"/>
</g>
<path d="M806.854 161.647L800.854 155.647C800.807 155.599 800.752 155.561 800.691 155.535C800.63 155.509 800.565 155.495 800.498 155.495C800.432 155.494 800.366 155.507 800.305 155.532C800.244 155.557 800.188 155.594 800.141 155.641C800.094 155.688 800.057 155.744 800.032 155.805C800.007 155.867 799.994 155.932 799.995 155.999C799.995 156.065 800.009 156.13 800.035 156.191C800.061 156.252 800.099 156.307 800.147 156.354L805.793 162L800.147 167.647C800.099 167.693 800.061 167.748 800.035 167.809C800.009 167.87 799.995 167.935 799.995 168.002C799.994 168.068 800.007 168.134 800.032 168.195C800.057 168.256 800.094 168.312 800.141 168.359C800.188 168.406 800.244 168.443 800.305 168.468C800.366 168.493 800.432 168.506 800.498 168.505C800.565 168.505 800.63 168.491 800.691 168.465C800.752 168.439 800.807 168.401 800.854 168.354L806.854 162.354C806.947 162.26 807 162.133 807 162C807 161.868 806.947 161.74 806.854 161.647Z" fill="white" fill-opacity="0.95"/>
</g>
<rect x="376" y="100" width="94" height="28" rx="14" fill="#DA0087"/>
<rect x="380" y="104" width="20" height="20" rx="10" fill="white"/>
<path d="M391.151 109.273V118H389.83V110.594H389.778L387.69 111.957V110.696L389.868 109.273H391.151Z" fill="#DA0087"/>
<path d="M408.773 109.614V108.364H417.5V109.614H413.841V120H412.432V109.614H408.773ZM420.874 120.205C420.321 120.205 419.819 120.1 419.368 119.892C418.917 119.68 418.559 119.375 418.294 118.977C418.029 118.576 417.896 118.091 417.896 117.523C417.896 117.023 417.995 116.617 418.192 116.307C418.389 115.992 418.652 115.746 418.982 115.568C419.311 115.39 419.675 115.258 420.072 115.17C420.474 115.08 420.877 115.008 421.283 114.955C421.813 114.886 422.243 114.835 422.572 114.801C422.906 114.763 423.148 114.701 423.3 114.614C423.455 114.527 423.533 114.375 423.533 114.159V114.114C423.533 113.553 423.379 113.117 423.072 112.807C422.769 112.496 422.309 112.341 421.692 112.341C421.052 112.341 420.55 112.481 420.186 112.761C419.822 113.042 419.567 113.341 419.419 113.659L418.146 113.205C418.374 112.674 418.677 112.261 419.055 111.966C419.438 111.667 419.855 111.458 420.305 111.341C420.76 111.22 421.207 111.159 421.646 111.159C421.927 111.159 422.249 111.193 422.612 111.261C422.98 111.326 423.334 111.46 423.675 111.665C424.019 111.869 424.305 112.178 424.533 112.591C424.76 113.004 424.874 113.557 424.874 114.25V120H423.533V118.818H423.464C423.374 119.008 423.222 119.21 423.01 119.426C422.798 119.642 422.516 119.826 422.163 119.977C421.811 120.129 421.381 120.205 420.874 120.205ZM421.078 119C421.608 119 422.055 118.896 422.419 118.688C422.786 118.479 423.063 118.21 423.249 117.881C423.438 117.551 423.533 117.205 423.533 116.841V115.614C423.476 115.682 423.351 115.744 423.158 115.801C422.968 115.854 422.749 115.902 422.499 115.943C422.252 115.981 422.012 116.015 421.777 116.045C421.546 116.072 421.358 116.095 421.214 116.114C420.866 116.159 420.54 116.233 420.237 116.335C419.938 116.434 419.696 116.583 419.51 116.784C419.328 116.981 419.237 117.25 419.237 117.591C419.237 118.057 419.41 118.409 419.754 118.648C420.103 118.883 420.544 119 421.078 119ZM427.503 120V108.364H428.844V112.659H428.957C429.056 112.508 429.192 112.314 429.366 112.08C429.545 111.841 429.798 111.629 430.128 111.443C430.461 111.254 430.912 111.159 431.48 111.159C432.215 111.159 432.863 111.343 433.423 111.71C433.984 112.078 434.421 112.598 434.736 113.273C435.05 113.947 435.207 114.742 435.207 115.659C435.207 116.583 435.05 117.384 434.736 118.062C434.421 118.737 433.986 119.259 433.429 119.631C432.872 119.998 432.23 120.182 431.503 120.182C430.942 120.182 430.493 120.089 430.156 119.903C429.819 119.714 429.56 119.5 429.378 119.261C429.196 119.019 429.056 118.818 428.957 118.659H428.798V120H427.503ZM428.821 115.636C428.821 116.295 428.918 116.877 429.111 117.381C429.304 117.881 429.586 118.273 429.957 118.557C430.329 118.837 430.783 118.977 431.321 118.977C431.882 118.977 432.349 118.83 432.724 118.534C433.103 118.235 433.387 117.833 433.577 117.33C433.77 116.822 433.866 116.258 433.866 115.636C433.866 115.023 433.772 114.47 433.582 113.977C433.397 113.481 433.115 113.089 432.736 112.801C432.361 112.509 431.889 112.364 431.321 112.364C430.776 112.364 430.317 112.502 429.946 112.778C429.575 113.051 429.295 113.434 429.105 113.926C428.916 114.415 428.821 114.985 428.821 115.636ZM438.599 108.364V120H437.259V108.364H438.599ZM441.055 120V111.273H442.396V120H441.055ZM441.737 109.818C441.476 109.818 441.25 109.729 441.061 109.551C440.875 109.373 440.783 109.159 440.783 108.909C440.783 108.659 440.875 108.445 441.061 108.267C441.25 108.089 441.476 108 441.737 108C441.999 108 442.222 108.089 442.408 108.267C442.597 108.445 442.692 108.659 442.692 108.909C442.692 109.159 442.597 109.373 442.408 109.551C442.222 109.729 441.999 109.818 441.737 109.818ZM451.034 113.227L449.83 113.568C449.754 113.367 449.642 113.172 449.494 112.983C449.35 112.79 449.153 112.631 448.903 112.506C448.653 112.381 448.333 112.318 447.943 112.318C447.409 112.318 446.964 112.441 446.608 112.688C446.256 112.93 446.08 113.239 446.08 113.614C446.08 113.947 446.201 114.21 446.443 114.403C446.686 114.597 447.064 114.758 447.58 114.886L448.875 115.205C449.655 115.394 450.237 115.684 450.619 116.074C451.002 116.46 451.193 116.958 451.193 117.568C451.193 118.068 451.049 118.515 450.761 118.909C450.477 119.303 450.08 119.614 449.568 119.841C449.057 120.068 448.462 120.182 447.784 120.182C446.894 120.182 446.157 119.989 445.574 119.602C444.991 119.216 444.621 118.652 444.466 117.909L445.739 117.591C445.86 118.061 446.089 118.413 446.426 118.648C446.767 118.883 447.212 119 447.761 119C448.386 119 448.883 118.867 449.25 118.602C449.621 118.333 449.807 118.011 449.807 117.636C449.807 117.333 449.701 117.08 449.489 116.875C449.277 116.667 448.951 116.511 448.511 116.409L447.057 116.068C446.258 115.879 445.67 115.585 445.295 115.188C444.924 114.786 444.739 114.284 444.739 113.682C444.739 113.189 444.877 112.754 445.153 112.375C445.434 111.996 445.814 111.699 446.295 111.483C446.78 111.267 447.33 111.159 447.943 111.159C448.807 111.159 449.485 111.348 449.977 111.727C450.473 112.106 450.826 112.606 451.034 113.227ZM457.007 111.273V112.409H452.484V111.273H457.007ZM453.803 109.182H455.143V117.5C455.143 117.879 455.198 118.163 455.308 118.352C455.422 118.538 455.566 118.663 455.74 118.727C455.918 118.788 456.106 118.818 456.303 118.818C456.45 118.818 456.571 118.811 456.666 118.795C456.761 118.777 456.837 118.761 456.893 118.75L457.166 119.955C457.075 119.989 456.948 120.023 456.786 120.057C456.623 120.095 456.416 120.114 456.166 120.114C455.787 120.114 455.416 120.032 455.053 119.869C454.693 119.706 454.393 119.458 454.155 119.125C453.92 118.792 453.803 118.371 453.803 117.864V109.182Z" fill="white"/>
<path d="M564.5 217V188" stroke="#DA0087"/>
<path d="M564.5 180L560.5 188H568.5L564.5 180Z" fill="#DA0087"/>
<rect x="528" y="209" width="73" height="28" rx="14" fill="#DA0087"/>
<rect x="532" y="213" width="20" height="20" rx="10" fill="white"/>
<path d="M538.839 227V226.045L541.793 222.986C542.108 222.653 542.368 222.362 542.572 222.112C542.78 221.859 542.935 221.619 543.037 221.392C543.139 221.165 543.19 220.923 543.19 220.668C543.19 220.378 543.122 220.128 542.986 219.918C542.849 219.705 542.663 219.541 542.428 219.428C542.192 219.311 541.926 219.253 541.631 219.253C541.318 219.253 541.045 219.317 540.812 219.445C540.58 219.572 540.401 219.753 540.276 219.986C540.151 220.219 540.088 220.491 540.088 220.804H538.831C538.831 220.273 538.953 219.808 539.197 219.411C539.442 219.013 539.777 218.705 540.203 218.486C540.629 218.264 541.114 218.153 541.656 218.153C542.205 218.153 542.688 218.263 543.105 218.482C543.526 218.697 543.854 218.993 544.089 219.368C544.325 219.74 544.443 220.161 544.443 220.629C544.443 220.953 544.382 221.27 544.26 221.58C544.141 221.889 543.932 222.234 543.634 222.615C543.335 222.993 542.92 223.452 542.389 223.991L540.655 225.807V225.871H544.584V227H538.839Z" fill="#DA0087"/>
<path d="M560.773 218.614V217.364H569.5V218.614H565.841V229H564.432V218.614H560.773ZM572.874 229.205C572.321 229.205 571.819 229.1 571.368 228.892C570.917 228.68 570.559 228.375 570.294 227.977C570.029 227.576 569.896 227.091 569.896 226.523C569.896 226.023 569.995 225.617 570.192 225.307C570.389 224.992 570.652 224.746 570.982 224.568C571.311 224.39 571.675 224.258 572.072 224.17C572.474 224.08 572.877 224.008 573.283 223.955C573.813 223.886 574.243 223.835 574.572 223.801C574.906 223.763 575.148 223.701 575.3 223.614C575.455 223.527 575.533 223.375 575.533 223.159V223.114C575.533 222.553 575.379 222.117 575.072 221.807C574.769 221.496 574.309 221.341 573.692 221.341C573.052 221.341 572.55 221.481 572.186 221.761C571.822 222.042 571.567 222.341 571.419 222.659L570.146 222.205C570.374 221.674 570.677 221.261 571.055 220.966C571.438 220.667 571.855 220.458 572.305 220.341C572.76 220.22 573.207 220.159 573.646 220.159C573.927 220.159 574.249 220.193 574.612 220.261C574.98 220.326 575.334 220.46 575.675 220.665C576.019 220.869 576.305 221.178 576.533 221.591C576.76 222.004 576.874 222.557 576.874 223.25V229H575.533V227.818H575.464C575.374 228.008 575.222 228.21 575.01 228.426C574.798 228.642 574.516 228.826 574.163 228.977C573.811 229.129 573.381 229.205 572.874 229.205ZM573.078 228C573.608 228 574.055 227.896 574.419 227.688C574.786 227.479 575.063 227.21 575.249 226.881C575.438 226.551 575.533 226.205 575.533 225.841V224.614C575.476 224.682 575.351 224.744 575.158 224.801C574.968 224.854 574.749 224.902 574.499 224.943C574.252 224.981 574.012 225.015 573.777 225.045C573.546 225.072 573.358 225.095 573.214 225.114C572.866 225.159 572.54 225.233 572.237 225.335C571.938 225.434 571.696 225.583 571.51 225.784C571.328 225.981 571.237 226.25 571.237 226.591C571.237 227.057 571.41 227.409 571.754 227.648C572.103 227.883 572.544 228 573.078 228ZM579.503 229V217.364H580.844V221.659H580.957C581.056 221.508 581.192 221.314 581.366 221.08C581.545 220.841 581.798 220.629 582.128 220.443C582.461 220.254 582.912 220.159 583.48 220.159C584.215 220.159 584.863 220.343 585.423 220.71C585.984 221.078 586.421 221.598 586.736 222.273C587.05 222.947 587.207 223.742 587.207 224.659C587.207 225.583 587.05 226.384 586.736 227.062C586.421 227.737 585.986 228.259 585.429 228.631C584.872 228.998 584.23 229.182 583.503 229.182C582.942 229.182 582.493 229.089 582.156 228.903C581.819 228.714 581.56 228.5 581.378 228.261C581.196 228.019 581.056 227.818 580.957 227.659H580.798V229H579.503ZM580.821 224.636C580.821 225.295 580.918 225.877 581.111 226.381C581.304 226.881 581.586 227.273 581.957 227.557C582.329 227.837 582.783 227.977 583.321 227.977C583.882 227.977 584.349 227.83 584.724 227.534C585.103 227.235 585.387 226.833 585.577 226.33C585.77 225.822 585.866 225.258 585.866 224.636C585.866 224.023 585.772 223.47 585.582 222.977C585.397 222.481 585.115 222.089 584.736 221.801C584.361 221.509 583.889 221.364 583.321 221.364C582.776 221.364 582.317 221.502 581.946 221.778C581.575 222.051 581.295 222.434 581.105 222.926C580.916 223.415 580.821 223.985 580.821 224.636Z" fill="white"/>
<path d="M732.5 215V186" stroke="#DA0087"/>
<path d="M732.5 178L728.5 186H736.5L732.5 178Z" fill="#DA0087"/>
<rect x="696" y="207" width="73" height="28" rx="14" fill="#DA0087"/>
<rect x="700" y="211" width="20" height="20" rx="10" fill="white"/>
<path d="M709.878 225.119C709.293 225.119 708.77 225.018 708.31 224.817C707.852 224.615 707.49 224.335 707.223 223.977C706.959 223.616 706.817 223.199 706.797 222.724H708.135C708.152 222.983 708.239 223.207 708.395 223.398C708.554 223.585 708.761 223.73 709.017 223.832C709.273 223.935 709.557 223.986 709.869 223.986C710.213 223.986 710.517 223.926 710.781 223.807C711.048 223.687 711.257 223.521 711.408 223.308C711.558 223.092 711.634 222.844 711.634 222.562C711.634 222.27 711.558 222.013 711.408 221.791C711.26 221.567 711.043 221.391 710.756 221.263C710.472 221.135 710.128 221.071 709.724 221.071H708.987V219.997H709.724C710.048 219.997 710.332 219.939 710.577 219.822C710.824 219.706 711.017 219.544 711.156 219.337C711.295 219.126 711.365 218.881 711.365 218.599C711.365 218.33 711.304 218.095 711.182 217.896C711.063 217.695 710.892 217.537 710.67 217.423C710.452 217.31 710.193 217.253 709.895 217.253C709.611 217.253 709.345 217.305 709.098 217.411C708.854 217.513 708.655 217.661 708.501 217.854C708.348 218.044 708.266 218.273 708.254 218.54H706.98C706.994 218.068 707.134 217.653 707.398 217.295C707.665 216.937 708.017 216.658 708.455 216.456C708.892 216.254 709.378 216.153 709.912 216.153C710.472 216.153 710.955 216.263 711.361 216.482C711.77 216.697 712.085 216.986 712.307 217.347C712.531 217.707 712.642 218.102 712.639 218.531C712.642 219.02 712.506 219.435 712.23 219.776C711.957 220.116 711.594 220.345 711.139 220.462V220.53C711.719 220.618 712.168 220.848 712.486 221.22C712.807 221.592 712.966 222.054 712.963 222.605C712.966 223.085 712.832 223.516 712.562 223.896C712.295 224.277 711.93 224.577 711.467 224.795C711.004 225.011 710.474 225.119 709.878 225.119Z" fill="#DA0087"/>
<path d="M728.773 216.614V215.364H737.5V216.614H733.841V227H732.432V216.614H728.773ZM740.874 227.205C740.321 227.205 739.819 227.1 739.368 226.892C738.917 226.68 738.559 226.375 738.294 225.977C738.029 225.576 737.896 225.091 737.896 224.523C737.896 224.023 737.995 223.617 738.192 223.307C738.389 222.992 738.652 222.746 738.982 222.568C739.311 222.39 739.675 222.258 740.072 222.17C740.474 222.08 740.877 222.008 741.283 221.955C741.813 221.886 742.243 221.835 742.572 221.801C742.906 221.763 743.148 221.701 743.3 221.614C743.455 221.527 743.533 221.375 743.533 221.159V221.114C743.533 220.553 743.379 220.117 743.072 219.807C742.769 219.496 742.309 219.341 741.692 219.341C741.052 219.341 740.55 219.481 740.186 219.761C739.822 220.042 739.567 220.341 739.419 220.659L738.146 220.205C738.374 219.674 738.677 219.261 739.055 218.966C739.438 218.667 739.855 218.458 740.305 218.341C740.76 218.22 741.207 218.159 741.646 218.159C741.927 218.159 742.249 218.193 742.612 218.261C742.98 218.326 743.334 218.46 743.675 218.665C744.019 218.869 744.305 219.178 744.533 219.591C744.76 220.004 744.874 220.557 744.874 221.25V227H743.533V225.818H743.464C743.374 226.008 743.222 226.21 743.01 226.426C742.798 226.642 742.516 226.826 742.163 226.977C741.811 227.129 741.381 227.205 740.874 227.205ZM741.078 226C741.608 226 742.055 225.896 742.419 225.688C742.786 225.479 743.063 225.21 743.249 224.881C743.438 224.551 743.533 224.205 743.533 223.841V222.614C743.476 222.682 743.351 222.744 743.158 222.801C742.968 222.854 742.749 222.902 742.499 222.943C742.252 222.981 742.012 223.015 741.777 223.045C741.546 223.072 741.358 223.095 741.214 223.114C740.866 223.159 740.54 223.233 740.237 223.335C739.938 223.434 739.696 223.583 739.51 223.784C739.328 223.981 739.237 224.25 739.237 224.591C739.237 225.057 739.41 225.409 739.754 225.648C740.103 225.883 740.544 226 741.078 226ZM747.503 227V215.364H748.844V219.659H748.957C749.056 219.508 749.192 219.314 749.366 219.08C749.545 218.841 749.798 218.629 750.128 218.443C750.461 218.254 750.912 218.159 751.48 218.159C752.215 218.159 752.863 218.343 753.423 218.71C753.984 219.078 754.421 219.598 754.736 220.273C755.05 220.947 755.207 221.742 755.207 222.659C755.207 223.583 755.05 224.384 754.736 225.062C754.421 225.737 753.986 226.259 753.429 226.631C752.872 226.998 752.23 227.182 751.503 227.182C750.942 227.182 750.493 227.089 750.156 226.903C749.819 226.714 749.56 226.5 749.378 226.261C749.196 226.019 749.056 225.818 748.957 225.659H748.798V227H747.503ZM748.821 222.636C748.821 223.295 748.918 223.877 749.111 224.381C749.304 224.881 749.586 225.273 749.957 225.557C750.329 225.837 750.783 225.977 751.321 225.977C751.882 225.977 752.349 225.83 752.724 225.534C753.103 225.235 753.387 224.833 753.577 224.33C753.77 223.822 753.866 223.258 753.866 222.636C753.866 222.023 753.772 221.47 753.582 220.977C753.397 220.481 753.115 220.089 752.736 219.801C752.361 219.509 751.889 219.364 751.321 219.364C750.776 219.364 750.317 219.502 749.946 219.778C749.575 220.051 749.295 220.434 749.105 220.926C748.916 221.415 748.821 221.985 748.821 222.636Z" fill="white"/>
<path d="M846 162H817" stroke="#DA0087"/>
<path d="M809 162L817 158V166L809 162Z" fill="#DA0087"/>
<rect x="838" y="148" width="95" height="28" rx="14" fill="#DA0087"/>
<rect x="842" y="152" width="20" height="20" rx="10" fill="white"/>
<path d="M851.72 166.119C851.186 166.119 850.706 166.017 850.28 165.812C849.857 165.605 849.518 165.321 849.266 164.96C849.013 164.599 848.878 164.188 848.861 163.724H850.139C850.17 164.099 850.337 164.408 850.638 164.649C850.939 164.891 851.3 165.011 851.72 165.011C852.055 165.011 852.352 164.935 852.611 164.781C852.872 164.625 853.077 164.411 853.224 164.138C853.375 163.865 853.45 163.554 853.45 163.205C853.45 162.849 853.374 162.533 853.22 162.254C853.067 161.976 852.855 161.757 852.585 161.598C852.318 161.439 852.011 161.358 851.665 161.355C851.401 161.355 851.135 161.401 850.868 161.491C850.601 161.582 850.385 161.702 850.22 161.849L849.014 161.67L849.504 157.273H854.303V158.402H850.599L850.322 160.844H850.374C850.544 160.679 850.77 160.541 851.051 160.43C851.335 160.32 851.639 160.264 851.963 160.264C852.494 160.264 852.967 160.391 853.382 160.643C853.8 160.896 854.128 161.241 854.366 161.679C854.608 162.114 854.727 162.614 854.724 163.179C854.727 163.744 854.599 164.249 854.341 164.692C854.085 165.135 853.73 165.484 853.276 165.74C852.824 165.993 852.305 166.119 851.72 166.119Z" fill="#DA0087"/>
<path d="M871.409 168V156.364H875.477C876.288 156.364 876.956 156.504 877.483 156.784C878.009 157.061 878.402 157.434 878.659 157.903C878.917 158.369 879.045 158.886 879.045 159.455C879.045 159.955 878.956 160.367 878.778 160.693C878.604 161.019 878.373 161.277 878.085 161.466C877.801 161.655 877.492 161.795 877.159 161.886V162C877.515 162.023 877.873 162.148 878.233 162.375C878.593 162.602 878.894 162.928 879.136 163.352C879.379 163.777 879.5 164.295 879.5 164.909C879.5 165.492 879.367 166.017 879.102 166.483C878.837 166.949 878.419 167.318 877.847 167.591C877.275 167.864 876.53 168 875.614 168H871.409ZM872.818 166.75H875.614C876.534 166.75 877.188 166.572 877.574 166.216C877.964 165.856 878.159 165.42 878.159 164.909C878.159 164.515 878.059 164.152 877.858 163.818C877.657 163.481 877.371 163.212 877 163.011C876.629 162.807 876.189 162.705 875.682 162.705H872.818V166.75ZM872.818 161.477H875.432C875.856 161.477 876.239 161.394 876.58 161.227C876.924 161.061 877.197 160.826 877.398 160.523C877.602 160.22 877.705 159.864 877.705 159.455C877.705 158.943 877.527 158.509 877.17 158.153C876.814 157.794 876.25 157.614 875.477 157.614H872.818V161.477ZM887.134 164.432V159.273H888.474V168H887.134V166.523H887.043C886.838 166.966 886.52 167.343 886.088 167.653C885.656 167.96 885.111 168.114 884.452 168.114C883.906 168.114 883.421 167.994 882.997 167.756C882.573 167.513 882.24 167.15 881.997 166.665C881.755 166.176 881.634 165.561 881.634 164.818V159.273H882.974V164.727C882.974 165.364 883.152 165.871 883.509 166.25C883.868 166.629 884.327 166.818 884.884 166.818C885.217 166.818 885.556 166.733 885.901 166.562C886.249 166.392 886.541 166.131 886.776 165.778C887.014 165.426 887.134 164.977 887.134 164.432ZM894.726 159.273V160.409H890.203V159.273H894.726ZM891.521 157.182H892.862V165.5C892.862 165.879 892.917 166.163 893.027 166.352C893.141 166.538 893.285 166.663 893.459 166.727C893.637 166.788 893.824 166.818 894.021 166.818C894.169 166.818 894.29 166.811 894.385 166.795C894.48 166.777 894.555 166.761 894.612 166.75L894.885 167.955C894.794 167.989 894.667 168.023 894.504 168.057C894.341 168.095 894.135 168.114 893.885 168.114C893.506 168.114 893.135 168.032 892.771 167.869C892.411 167.706 892.112 167.458 891.874 167.125C891.639 166.792 891.521 166.371 891.521 165.864V157.182ZM900.538 159.273V160.409H896.016V159.273H900.538ZM897.334 157.182H898.675V165.5C898.675 165.879 898.73 166.163 898.839 166.352C898.953 166.538 899.097 166.663 899.271 166.727C899.449 166.788 899.637 166.818 899.834 166.818C899.982 166.818 900.103 166.811 900.197 166.795C900.292 166.777 900.368 166.761 900.425 166.75L900.697 167.955C900.607 167.989 900.48 168.023 900.317 168.057C900.154 168.095 899.947 168.114 899.697 168.114C899.319 168.114 898.947 168.032 898.584 167.869C898.224 167.706 897.925 167.458 897.686 167.125C897.451 166.792 897.334 166.371 897.334 165.864V157.182ZM906.007 168.182C905.219 168.182 904.528 167.994 903.933 167.619C903.342 167.244 902.88 166.72 902.547 166.045C902.217 165.371 902.053 164.583 902.053 163.682C902.053 162.773 902.217 161.979 902.547 161.301C902.88 160.623 903.342 160.097 903.933 159.722C904.528 159.347 905.219 159.159 906.007 159.159C906.795 159.159 907.484 159.347 908.075 159.722C908.67 160.097 909.132 160.623 909.462 161.301C909.795 161.979 909.962 162.773 909.962 163.682C909.962 164.583 909.795 165.371 909.462 166.045C909.132 166.72 908.67 167.244 908.075 167.619C907.484 167.994 906.795 168.182 906.007 168.182ZM906.007 166.977C906.606 166.977 907.098 166.824 907.484 166.517C907.871 166.21 908.157 165.807 908.342 165.307C908.528 164.807 908.621 164.265 908.621 163.682C908.621 163.098 908.528 162.555 908.342 162.051C908.157 161.547 907.871 161.14 907.484 160.83C907.098 160.519 906.606 160.364 906.007 160.364C905.409 160.364 904.916 160.519 904.53 160.83C904.143 161.14 903.857 161.547 903.672 162.051C903.486 162.555 903.393 163.098 903.393 163.682C903.393 164.265 903.486 164.807 903.672 165.307C903.857 165.807 904.143 166.21 904.53 166.517C904.916 166.824 905.409 166.977 906.007 166.977ZM913.349 162.75V168H912.009V159.273H913.304V160.636H913.418C913.622 160.193 913.933 159.837 914.349 159.568C914.766 159.295 915.304 159.159 915.963 159.159C916.554 159.159 917.071 159.28 917.514 159.523C917.957 159.761 918.302 160.125 918.548 160.614C918.795 161.098 918.918 161.712 918.918 162.455V168H917.577V162.545C917.577 161.86 917.399 161.326 917.043 160.943C916.687 160.557 916.198 160.364 915.577 160.364C915.149 160.364 914.766 160.456 914.429 160.642C914.096 160.828 913.832 161.098 913.639 161.455C913.446 161.811 913.349 162.242 913.349 162.75Z" fill="white"/>
<path d="M304 162H333" stroke="#DA0087"/>
<path d="M341 162L333 158V166L341 162Z" fill="#DA0087"/>
<rect x="217" y="148" width="95" height="28" rx="14" fill="#DA0087"/>
<rect x="221" y="152" width="20" height="20" rx="10" fill="white"/>
<path d="M227.656 164.295V163.23L231.428 157.273H232.267V158.841H231.734L229.037 163.111V163.179H234.206V164.295H227.656ZM231.794 166V163.972L231.803 163.486V157.273H233.051V166H231.794Z" fill="#DA0087"/>
<path d="M250.409 168V156.364H254.477C255.288 156.364 255.956 156.504 256.483 156.784C257.009 157.061 257.402 157.434 257.659 157.903C257.917 158.369 258.045 158.886 258.045 159.455C258.045 159.955 257.956 160.367 257.778 160.693C257.604 161.019 257.373 161.277 257.085 161.466C256.801 161.655 256.492 161.795 256.159 161.886V162C256.515 162.023 256.873 162.148 257.233 162.375C257.593 162.602 257.894 162.928 258.136 163.352C258.379 163.777 258.5 164.295 258.5 164.909C258.5 165.492 258.367 166.017 258.102 166.483C257.837 166.949 257.419 167.318 256.847 167.591C256.275 167.864 255.53 168 254.614 168H250.409ZM251.818 166.75H254.614C255.534 166.75 256.188 166.572 256.574 166.216C256.964 165.856 257.159 165.42 257.159 164.909C257.159 164.515 257.059 164.152 256.858 163.818C256.657 163.481 256.371 163.212 256 163.011C255.629 162.807 255.189 162.705 254.682 162.705H251.818V166.75ZM251.818 161.477H254.432C254.856 161.477 255.239 161.394 255.58 161.227C255.924 161.061 256.197 160.826 256.398 160.523C256.602 160.22 256.705 159.864 256.705 159.455C256.705 158.943 256.527 158.509 256.17 158.153C255.814 157.794 255.25 157.614 254.477 157.614H251.818V161.477ZM266.134 164.432V159.273H267.474V168H266.134V166.523H266.043C265.838 166.966 265.52 167.343 265.088 167.653C264.656 167.96 264.111 168.114 263.452 168.114C262.906 168.114 262.421 167.994 261.997 167.756C261.573 167.513 261.24 167.15 260.997 166.665C260.755 166.176 260.634 165.561 260.634 164.818V159.273H261.974V164.727C261.974 165.364 262.152 165.871 262.509 166.25C262.868 166.629 263.327 166.818 263.884 166.818C264.217 166.818 264.556 166.733 264.901 166.562C265.249 166.392 265.541 166.131 265.776 165.778C266.014 165.426 266.134 164.977 266.134 164.432ZM273.726 159.273V160.409H269.203V159.273H273.726ZM270.521 157.182H271.862V165.5C271.862 165.879 271.917 166.163 272.027 166.352C272.141 166.538 272.285 166.663 272.459 166.727C272.637 166.788 272.824 166.818 273.021 166.818C273.169 166.818 273.29 166.811 273.385 166.795C273.48 166.777 273.555 166.761 273.612 166.75L273.885 167.955C273.794 167.989 273.667 168.023 273.504 168.057C273.341 168.095 273.135 168.114 272.885 168.114C272.506 168.114 272.135 168.032 271.771 167.869C271.411 167.706 271.112 167.458 270.874 167.125C270.639 166.792 270.521 166.371 270.521 165.864V157.182ZM279.538 159.273V160.409H275.016V159.273H279.538ZM276.334 157.182H277.675V165.5C277.675 165.879 277.73 166.163 277.839 166.352C277.953 166.538 278.097 166.663 278.271 166.727C278.449 166.788 278.637 166.818 278.834 166.818C278.982 166.818 279.103 166.811 279.197 166.795C279.292 166.777 279.368 166.761 279.425 166.75L279.697 167.955C279.607 167.989 279.48 168.023 279.317 168.057C279.154 168.095 278.947 168.114 278.697 168.114C278.319 168.114 277.947 168.032 277.584 167.869C277.224 167.706 276.925 167.458 276.686 167.125C276.451 166.792 276.334 166.371 276.334 165.864V157.182ZM285.007 168.182C284.219 168.182 283.528 167.994 282.933 167.619C282.342 167.244 281.88 166.72 281.547 166.045C281.217 165.371 281.053 164.583 281.053 163.682C281.053 162.773 281.217 161.979 281.547 161.301C281.88 160.623 282.342 160.097 282.933 159.722C283.528 159.347 284.219 159.159 285.007 159.159C285.795 159.159 286.484 159.347 287.075 159.722C287.67 160.097 288.132 160.623 288.462 161.301C288.795 161.979 288.962 162.773 288.962 163.682C288.962 164.583 288.795 165.371 288.462 166.045C288.132 166.72 287.67 167.244 287.075 167.619C286.484 167.994 285.795 168.182 285.007 168.182ZM285.007 166.977C285.606 166.977 286.098 166.824 286.484 166.517C286.871 166.21 287.157 165.807 287.342 165.307C287.528 164.807 287.621 164.265 287.621 163.682C287.621 163.098 287.528 162.555 287.342 162.051C287.157 161.547 286.871 161.14 286.484 160.83C286.098 160.519 285.606 160.364 285.007 160.364C284.409 160.364 283.916 160.519 283.53 160.83C283.143 161.14 282.857 161.547 282.672 162.051C282.486 162.555 282.393 163.098 282.393 163.682C282.393 164.265 282.486 164.807 282.672 165.307C282.857 165.807 283.143 166.21 283.53 166.517C283.916 166.824 284.409 166.977 285.007 166.977ZM292.349 162.75V168H291.009V159.273H292.304V160.636H292.418C292.622 160.193 292.933 159.837 293.349 159.568C293.766 159.295 294.304 159.159 294.963 159.159C295.554 159.159 296.071 159.28 296.514 159.523C296.957 159.761 297.302 160.125 297.548 160.614C297.795 161.098 297.918 161.712 297.918 162.455V168H296.577V162.545C296.577 161.86 296.399 161.326 296.043 160.943C295.687 160.557 295.198 160.364 294.577 160.364C294.149 160.364 293.766 160.456 293.429 160.642C293.096 160.828 292.832 161.098 292.639 161.455C292.446 161.811 292.349 162.242 292.349 162.75Z" fill="white"/>
<defs>
<clipPath id="clip0_2112_5215">
<rect width="487" height="32" fill="white" transform="translate(332.5 146)"/>
</clipPath>
<clipPath id="clip1_2112_5215">
<rect width="399" height="32" fill="white" transform="translate(376.5 146)"/>
</clipPath>
</defs>
</svg>
