<svg width="42" height="42" viewBox="0 0 42 42" fill="none" xmlns="http://www.w3.org/2000/svg">
<path d="M14.4375 37.7349C12.7831 37.7315 11.1976 37.072 10.0288 35.9011C8.86004 34.7301 8.20347 33.1434 8.20312 31.489L8.20444 14.4329C8.20608 13.8256 8.44794 13.2436 8.8772 12.814C9.30646 12.3844 9.88825 12.142 10.4956 12.1399H15.9154C15.5919 11.4243 15.423 10.6486 15.4199 9.8633C15.4167 9.07804 15.5793 8.30094 15.897 7.5828C16.2147 6.86467 16.6804 6.22167 17.2636 5.69583C17.8468 5.16998 18.5344 4.77314 19.2815 4.53123C20.0286 4.28933 20.8183 4.2078 21.5991 4.29199C22.3798 4.37618 23.134 4.62419 23.8124 5.0198C24.4907 5.41542 25.0779 5.94973 25.5356 6.58782C25.9934 7.2259 26.3113 7.9534 26.4686 8.72276C26.6972 9.87456 26.5628 11.0689 26.084 12.1412H31.5007C32.1092 12.1416 32.6926 12.3834 33.123 12.8135C33.5534 13.2437 33.7955 13.827 33.7963 14.4355V20.393C33.7957 20.6845 33.7183 20.9708 33.5718 21.2228C33.4253 21.4748 33.2149 21.6838 32.9618 21.8285C32.7187 21.9708 32.4419 22.0455 32.1602 22.0448C31.8785 22.0441 31.6021 21.9681 31.3597 21.8247C30.6059 21.4002 29.727 21.2542 28.8765 21.4121C28.026 21.57 27.2581 22.0218 26.707 22.6886C26.181 23.3471 25.9022 24.1689 25.9187 25.0114C25.9352 25.854 26.2461 26.6642 26.7975 27.3016C27.3488 27.939 28.1058 28.3633 28.9373 28.5009C29.7687 28.6385 30.6221 28.4809 31.3494 28.0552C31.5956 27.9101 31.876 27.833 32.1618 27.8319C32.4476 27.8307 32.7286 27.9056 32.9759 28.0488C33.2253 28.1925 33.4325 28.3992 33.5767 28.6483C33.7209 28.8973 33.7971 29.1799 33.7976 29.4677L33.7989 35.438C33.7996 35.7394 33.7408 36.038 33.6258 36.3166C33.5109 36.5952 33.342 36.8483 33.129 37.0615C32.9159 37.2747 32.6628 37.4436 32.3843 37.5588C32.1058 37.6739 31.8072 37.7328 31.5059 37.7323H31.4969L14.4375 37.7349ZM10.4994 14.1086C10.4564 14.1082 10.4137 14.1164 10.3739 14.1327C10.3341 14.1489 10.298 14.173 10.2676 14.2034C10.2372 14.2339 10.2132 14.2701 10.197 14.3099C10.1808 14.3497 10.1727 14.3924 10.1731 14.4354L10.1719 31.489C10.1716 32.6214 10.6206 33.7077 11.4203 34.5096C12.22 35.3114 13.3051 35.7633 14.4375 35.7661L31.5006 35.7635H31.502C31.545 35.7647 31.5879 35.7571 31.628 35.7412C31.668 35.7254 31.7045 35.7016 31.7351 35.6713C31.7658 35.641 31.79 35.6049 31.8063 35.565C31.8226 35.5251 31.8307 35.4823 31.8301 35.4392L31.8288 30.0201C30.688 30.5376 29.4062 30.6559 28.1899 30.3561C26.9737 30.0562 25.8938 29.3555 25.1244 28.3669C24.355 27.3784 23.9408 26.1596 23.9486 24.9069C23.9565 23.6543 24.3858 22.4407 25.1676 21.4619C25.9408 20.4915 27.0154 19.8064 28.2214 19.5148C29.4275 19.2233 30.6964 19.3419 31.8275 19.852V14.4355C31.8273 14.349 31.7928 14.2661 31.7315 14.205C31.6702 14.144 31.5872 14.1098 31.5007 14.1099H25.5406C25.2512 14.1095 24.967 14.0328 24.7165 13.8877C24.4661 13.7426 24.2583 13.5341 24.114 13.2832C23.9704 13.037 23.8951 12.7569 23.896 12.4718C23.8969 12.1867 23.9739 11.9071 24.1192 11.6618C24.439 11.1129 24.6083 10.4893 24.61 9.85401C24.6116 9.21873 24.4456 8.59426 24.1287 8.04369C23.8117 7.49312 23.3551 7.03594 22.8049 6.71835C22.2547 6.40075 21.6304 6.23399 20.9951 6.23491C20.3598 6.23583 19.736 6.40439 19.1868 6.72357C18.6375 7.04275 18.1822 7.50124 17.8668 8.05272C17.5515 8.60421 17.3872 9.22915 17.3907 9.86443C17.3942 10.4997 17.5653 11.1228 17.8868 11.6708C18.0306 11.9133 18.1069 12.1899 18.1078 12.4718C18.1087 12.7538 18.0341 13.0308 17.8919 13.2742C17.7475 13.5272 17.5389 13.7375 17.2872 13.884C17.0354 14.0306 16.7495 14.108 16.4583 14.1087L10.4994 14.1086Z" fill="#73A321"/>
</svg>
