<svg width="16" height="16" viewBox="0 0 16 16" fill="none" xmlns="http://www.w3.org/2000/svg">
<rect width="16" height="16" rx="8" fill="#1170CF"/>
<g clip-path="url(#clip0_2432_22929)">
<path d="M11.1684 10.6382C11.784 9.89693 12.121 8.96368 12.121 8.0001C12.121 7.03651 11.784 6.10327 11.1684 5.36197L13.1401 3.39015C13.1756 3.35549 13.2039 3.31412 13.2234 3.26844C13.2428 3.22275 13.253 3.17366 13.2533 3.12402C13.2536 3.07437 13.2441 3.02516 13.2252 2.97924C13.2064 2.93331 13.1786 2.89158 13.1435 2.85648C13.1084 2.82137 13.0666 2.79359 13.0207 2.77474C12.9748 2.75588 12.9256 2.74634 12.8759 2.74665C12.8263 2.74697 12.7772 2.75713 12.7315 2.77657C12.6858 2.796 12.6445 2.82431 12.6098 2.85986L10.6387 4.83097C9.89809 4.21333 8.96428 3.87505 7.99991 3.87505C7.03553 3.87505 6.10172 4.21333 5.36109 4.83097L3.39009 2.85986C3.31946 2.79101 3.22456 2.75275 3.12593 2.75337C3.0273 2.754 2.93288 2.79345 2.86314 2.8632C2.79339 2.93294 2.75394 3.02736 2.75331 3.12599C2.75269 3.22462 2.79094 3.31952 2.8598 3.39015L4.83136 5.36171C4.21566 6.10303 3.87862 7.03634 3.87862 8C3.87862 8.96366 4.21566 9.89698 4.83136 10.6383L2.8598 12.6099C2.82425 12.6445 2.79594 12.6859 2.77651 12.7316C2.75707 12.7773 2.7469 12.8263 2.74659 12.876C2.74627 12.9256 2.75582 12.9748 2.77467 13.0208C2.79353 13.0667 2.82131 13.1084 2.85642 13.1435C2.89152 13.1786 2.93325 13.2064 2.97917 13.2253C3.0251 13.2441 3.07431 13.2537 3.12396 13.2534C3.1736 13.253 3.22269 13.2429 3.26837 13.2234C3.31406 13.204 3.35543 13.1757 3.39009 13.1401L5.36109 11.1691C6.10171 11.7868 7.03553 12.125 7.99991 12.125C8.96428 12.125 9.8981 11.7868 10.6387 11.1691L12.6098 13.1401C12.6804 13.209 12.7753 13.2473 12.874 13.2466C12.9726 13.246 13.067 13.2066 13.1367 13.1368C13.2065 13.0671 13.2459 12.9727 13.2466 12.874C13.2472 12.7754 13.2089 12.6805 13.1401 12.6099L11.1684 10.6382ZM10.6359 10.1057L8.53021 8.00002L10.6359 5.89428C11.1125 6.49264 11.3721 7.23501 11.3721 8C11.3721 8.765 11.1125 9.50736 10.6359 10.1057ZM7.99992 4.62502C8.7657 4.6233 9.50891 4.88414 10.1057 5.36403L7.99992 7.46974L5.89419 5.36396C6.49094 4.88408 7.23416 4.62327 7.99992 4.62502ZM5.36367 5.89417L7.46967 8.00002L5.36367 10.1058C4.88702 9.50744 4.62748 8.76504 4.62748 8C4.62748 7.23497 4.88702 6.49257 5.36367 5.89417ZM7.99992 11.375C7.23416 11.3768 6.49093 11.1159 5.89419 10.636L7.99992 8.53027L10.1057 10.636C9.50891 11.1159 8.7657 11.3767 7.99992 11.375Z" fill="white" fill-opacity="0.95"/>
</g>
<defs>
<clipPath id="clip0_2432_22929">
<rect width="12" height="12" fill="white" transform="translate(2 2)"/>
</clipPath>
</defs>
</svg>
