<svg width="159" height="20" viewBox="0 0 159 20" fill="none" xmlns="http://www.w3.org/2000/svg">
<rect x="0.5" y="2.5" width="15" height="15" rx="1.5" stroke="white" stroke-opacity="0.5"/>
<path d="M33.4261 8H32.1932C32.1203 7.64536 31.9927 7.33381 31.8104 7.06534C31.6314 6.79688 31.4126 6.5715 31.1541 6.3892C30.8989 6.2036 30.6155 6.06439 30.304 5.97159C29.9924 5.87879 29.6676 5.83239 29.3295 5.83239C28.7131 5.83239 28.1546 5.98816 27.6541 6.29972C27.157 6.61127 26.7609 7.07031 26.4659 7.67685C26.1742 8.28338 26.0284 9.02746 26.0284 9.90909C26.0284 10.7907 26.1742 11.5348 26.4659 12.1413C26.7609 12.7479 27.157 13.2069 27.6541 13.5185C28.1546 13.83 28.7131 13.9858 29.3295 13.9858C29.6676 13.9858 29.9924 13.9394 30.304 13.8466C30.6155 13.7538 30.8989 13.6162 31.1541 13.4339C31.4126 13.2483 31.6314 13.0213 31.8104 12.7528C31.9927 12.4811 32.1203 12.1695 32.1932 11.8182H33.4261C33.3333 12.3385 33.1643 12.8042 32.919 13.2152C32.6738 13.6262 32.3688 13.9759 32.0043 14.2642C31.6397 14.5492 31.2304 14.7663 30.7763 14.9155C30.3255 15.0646 29.8433 15.1392 29.3295 15.1392C28.4612 15.1392 27.6889 14.9271 27.0128 14.5028C26.3366 14.0786 25.8047 13.4754 25.4169 12.6932C25.0291 11.911 24.8352 10.983 24.8352 9.90909C24.8352 8.83523 25.0291 7.9072 25.4169 7.125C25.8047 6.3428 26.3366 5.73958 27.0128 5.31534C27.6889 4.8911 28.4612 4.67898 29.3295 4.67898C29.8433 4.67898 30.3255 4.75355 30.7763 4.9027C31.2304 5.05185 31.6397 5.2706 32.0043 5.55895C32.3688 5.84399 32.6738 6.192 32.919 6.60298C33.1643 7.01065 33.3333 7.47633 33.4261 8ZM36.4327 10.4062V15H35.2594V4.81818H36.4327V8.55682H36.5321C36.7111 8.16241 36.9796 7.84919 37.3375 7.61719C37.6988 7.38187 38.1794 7.2642 38.7793 7.2642C39.2997 7.2642 39.7554 7.36861 40.1465 7.57741C40.5376 7.78291 40.8409 8.09943 41.0563 8.52699C41.275 8.95123 41.3844 9.49148 41.3844 10.1477V15H40.2111V10.2273C40.2111 9.62074 40.0537 9.15175 39.7388 8.82031C39.4273 8.48556 38.9947 8.31818 38.4412 8.31818C38.0568 8.31818 37.7121 8.39938 37.4071 8.56179C37.1055 8.72419 36.8669 8.96117 36.6912 9.27273C36.5189 9.58428 36.4327 9.96212 36.4327 10.4062ZM46.7326 15.1591C45.9968 15.1591 45.3621 14.9967 44.8285 14.6719C44.2982 14.3438 43.8888 13.8864 43.6005 13.2997C43.3155 12.7098 43.1729 12.0237 43.1729 11.2415C43.1729 10.4593 43.3155 9.76989 43.6005 9.1733C43.8888 8.57339 44.2899 8.10606 44.8036 7.77131C45.3207 7.43324 45.9239 7.2642 46.6133 7.2642C47.011 7.2642 47.4038 7.33049 47.7915 7.46307C48.1793 7.59564 48.5323 7.81108 48.8505 8.10938C49.1687 8.40436 49.4222 8.79545 49.6112 9.28267C49.8001 9.76989 49.8945 10.3698 49.8945 11.0824V11.5795H44.0082V10.5653H48.7013C48.7013 10.1345 48.6152 9.75 48.4428 9.41193C48.2738 9.07386 48.0318 8.80705 47.717 8.61151C47.4054 8.41596 47.0375 8.31818 46.6133 8.31818C46.146 8.31818 45.7416 8.43419 45.4002 8.66619C45.0621 8.89489 44.802 9.19318 44.6197 9.56108C44.4374 9.92898 44.3462 10.3234 44.3462 10.7443V11.4205C44.3462 11.9972 44.4457 12.486 44.6445 12.8871C44.8467 13.2848 45.1268 13.5881 45.4847 13.7969C45.8427 14.0024 46.2586 14.1051 46.7326 14.1051C47.0408 14.1051 47.3192 14.062 47.5678 13.9759C47.8197 13.8864 48.0368 13.7538 48.2191 13.5781C48.4014 13.3991 48.5423 13.1771 48.6417 12.9119L49.7752 13.2301C49.6559 13.6146 49.4554 13.9527 49.1737 14.2443C48.8919 14.5327 48.5439 14.758 48.1296 14.9205C47.7153 15.0795 47.2496 15.1591 46.7326 15.1591ZM54.7816 15.1591C54.0657 15.1591 53.4492 14.9901 52.9322 14.652C52.4151 14.3139 52.0174 13.8482 51.739 13.255C51.4606 12.6617 51.3214 11.9839 51.3214 11.2216C51.3214 10.446 51.4639 9.7616 51.7489 9.16832C52.0373 8.57173 52.4383 8.10606 52.9521 7.77131C53.4691 7.43324 54.0723 7.2642 54.7617 7.2642C55.2987 7.2642 55.7826 7.36364 56.2134 7.5625C56.6443 7.76136 56.9973 8.03977 57.2724 8.39773C57.5475 8.75568 57.7182 9.1733 57.7844 9.65057H56.6112C56.5217 9.30256 56.3228 8.99432 56.0146 8.72585C55.7096 8.45407 55.2987 8.31818 54.7816 8.31818C54.3242 8.31818 53.9232 8.4375 53.5785 8.67614C53.2371 8.91146 52.9703 9.24455 52.7781 9.67543C52.5891 10.103 52.4947 10.6051 52.4947 11.1818C52.4947 11.7718 52.5875 12.2855 52.7731 12.723C52.962 13.1605 53.2272 13.5002 53.5685 13.7422C53.9132 13.9841 54.3176 14.1051 54.7816 14.1051C55.0865 14.1051 55.3633 14.0521 55.6119 13.946C55.8604 13.84 56.0709 13.6875 56.2433 13.4886C56.4156 13.2898 56.5382 13.0511 56.6112 12.7727H57.7844C57.7182 13.2235 57.5541 13.6295 57.2923 13.9908C57.0337 14.3487 56.6907 14.6338 56.2631 14.8459C55.8389 15.0547 55.3451 15.1591 54.7816 15.1591ZM60.5934 12.2159L60.5735 10.7642H60.8121L64.1531 7.36364H65.6048L62.0451 10.9631H61.9457L60.5934 12.2159ZM59.4996 15V4.81818H60.6729V15H59.4996ZM64.3519 15L61.369 11.2216L62.2042 10.4062L65.8434 15H64.3519ZM67.274 15V4.81818H68.4473V8.5767H68.5467C68.6329 8.44413 68.7522 8.27509 68.9047 8.0696C69.0604 7.8608 69.2825 7.67519 69.5708 7.51278C69.8625 7.34706 70.2569 7.2642 70.7541 7.2642C71.3971 7.2642 71.9638 7.42495 72.4544 7.74645C72.9449 8.06794 73.3277 8.52367 73.6028 9.11364C73.8779 9.7036 74.0154 10.3996 74.0154 11.2017C74.0154 12.0104 73.8779 12.7114 73.6028 13.3047C73.3277 13.8946 72.9466 14.352 72.4593 14.6768C71.9721 14.9983 71.4103 15.1591 70.774 15.1591C70.2834 15.1591 69.8907 15.0779 69.5957 14.9155C69.3007 14.7498 69.0737 14.5625 68.9146 14.3537C68.7555 14.1416 68.6329 13.9659 68.5467 13.8267H68.4075V15H67.274ZM68.4274 11.1818C68.4274 11.7585 68.5119 12.2673 68.6809 12.7081C68.85 13.1456 69.0969 13.4886 69.4217 13.7372C69.7465 13.9825 70.1442 14.1051 70.6149 14.1051C71.1054 14.1051 71.5147 13.9759 71.8429 13.7173C72.1743 13.4555 72.4229 13.1042 72.5886 12.6634C72.7576 12.2192 72.8422 11.7254 72.8422 11.1818C72.8422 10.6449 72.7593 10.161 72.5936 9.73011C72.4312 9.29593 72.1842 8.95289 71.8528 8.70099C71.5247 8.44579 71.112 8.31818 70.6149 8.31818C70.1376 8.31818 69.7366 8.43916 69.4118 8.68111C69.0869 8.91974 68.8417 9.2545 68.676 9.68537C68.5102 10.1129 68.4274 10.6117 68.4274 11.1818ZM78.9125 15.1591C78.2231 15.1591 77.6182 14.995 77.0978 14.6669C76.5808 14.3388 76.1764 13.8797 75.8848 13.2898C75.5964 12.6998 75.4522 12.0104 75.4522 11.2216C75.4522 10.4261 75.5964 9.73177 75.8848 9.13849C76.1764 8.54522 76.5808 8.08452 77.0978 7.75639C77.6182 7.42827 78.2231 7.2642 78.9125 7.2642C79.6019 7.2642 80.2051 7.42827 80.7221 7.75639C81.2425 8.08452 81.6468 8.54522 81.9352 9.13849C82.2269 9.73177 82.3727 10.4261 82.3727 11.2216C82.3727 12.0104 82.2269 12.6998 81.9352 13.2898C81.6468 13.8797 81.2425 14.3388 80.7221 14.6669C80.2051 14.995 79.6019 15.1591 78.9125 15.1591ZM78.9125 14.1051C79.4361 14.1051 79.867 13.9709 80.2051 13.7024C80.5431 13.4339 80.7934 13.081 80.9558 12.6435C81.1182 12.206 81.1994 11.732 81.1994 11.2216C81.1994 10.7112 81.1182 10.2356 80.9558 9.79474C80.7934 9.35393 80.5431 8.99763 80.2051 8.72585C79.867 8.45407 79.4361 8.31818 78.9125 8.31818C78.3888 8.31818 77.9579 8.45407 77.6199 8.72585C77.2818 8.99763 77.0315 9.35393 76.8691 9.79474C76.7067 10.2356 76.6255 10.7112 76.6255 11.2216C76.6255 11.732 76.7067 12.206 76.8691 12.6435C77.0315 13.081 77.2818 13.4339 77.6199 13.7024C77.9579 13.9709 78.3888 14.1051 78.9125 14.1051ZM84.7243 7.36364L86.5538 10.4858L88.3833 7.36364H89.7356L87.2697 11.1818L89.7356 15H88.3833L86.5538 12.0369L84.7243 15H83.372L85.7981 11.1818L83.372 7.36364H84.7243ZM95.5064 15V4.81818H96.7393V13.9062H101.472V15H95.5064ZM105.469 15.179C104.986 15.179 104.546 15.0878 104.152 14.9055C103.758 14.7199 103.444 14.4531 103.212 14.1051C102.98 13.7538 102.864 13.3295 102.864 12.8324C102.864 12.3949 102.951 12.0402 103.123 11.7685C103.295 11.4934 103.526 11.2779 103.814 11.1222C104.102 10.9664 104.42 10.8504 104.768 10.7741C105.12 10.6946 105.473 10.6316 105.827 10.5852C106.291 10.5256 106.668 10.4808 106.956 10.451C107.248 10.4179 107.46 10.3632 107.592 10.2869C107.728 10.2107 107.796 10.0781 107.796 9.8892V9.84943C107.796 9.3589 107.662 8.97775 107.393 8.70597C107.128 8.43419 106.726 8.2983 106.185 8.2983C105.625 8.2983 105.186 8.42093 104.868 8.66619C104.55 8.91146 104.326 9.1733 104.197 9.4517L103.083 9.05398C103.282 8.58996 103.547 8.22869 103.879 7.97017C104.213 7.70833 104.578 7.52604 104.972 7.4233C105.37 7.31723 105.761 7.2642 106.146 7.2642C106.391 7.2642 106.673 7.29403 106.991 7.35369C107.312 7.41004 107.622 7.5277 107.92 7.70668C108.222 7.88565 108.472 8.15578 108.671 8.51705C108.87 8.87831 108.969 9.36222 108.969 9.96875V15H107.796V13.9659H107.737C107.657 14.1316 107.524 14.3089 107.339 14.4979C107.153 14.6868 106.906 14.8475 106.598 14.9801C106.29 15.1127 105.914 15.179 105.469 15.179ZM105.648 14.125C106.112 14.125 106.504 14.0339 106.822 13.8516C107.143 13.6693 107.385 13.4339 107.548 13.1456C107.713 12.8572 107.796 12.554 107.796 12.2358V11.1619C107.746 11.2216 107.637 11.2763 107.468 11.326C107.302 11.3724 107.11 11.4138 106.891 11.4503C106.676 11.4834 106.465 11.5133 106.26 11.5398C106.058 11.563 105.894 11.5829 105.768 11.5994C105.463 11.6392 105.178 11.7038 104.913 11.7933C104.651 11.8795 104.439 12.0104 104.276 12.1861C104.117 12.3584 104.038 12.5937 104.038 12.892C104.038 13.2997 104.188 13.608 104.49 13.8168C104.795 14.0223 105.181 14.125 105.648 14.125ZM111.27 15V4.81818H112.443V8.5767H112.543C112.629 8.44413 112.748 8.27509 112.901 8.0696C113.057 7.8608 113.279 7.67519 113.567 7.51278C113.859 7.34706 114.253 7.2642 114.75 7.2642C115.393 7.2642 115.96 7.42495 116.45 7.74645C116.941 8.06794 117.324 8.52367 117.599 9.11364C117.874 9.7036 118.012 10.3996 118.012 11.2017C118.012 12.0104 117.874 12.7114 117.599 13.3047C117.324 13.8946 116.943 14.352 116.455 14.6768C115.968 14.9983 115.406 15.1591 114.77 15.1591C114.28 15.1591 113.887 15.0779 113.592 14.9155C113.297 14.7498 113.07 14.5625 112.911 14.3537C112.752 14.1416 112.629 13.9659 112.543 13.8267H112.404V15H111.27ZM112.423 11.1818C112.423 11.7585 112.508 12.2673 112.677 12.7081C112.846 13.1456 113.093 13.4886 113.418 13.7372C113.743 13.9825 114.14 14.1051 114.611 14.1051C115.102 14.1051 115.511 13.9759 115.839 13.7173C116.17 13.4555 116.419 13.1042 116.585 12.6634C116.754 12.2192 116.838 11.7254 116.838 11.1818C116.838 10.6449 116.755 10.161 116.59 9.73011C116.427 9.29593 116.18 8.95289 115.849 8.70099C115.521 8.44579 115.108 8.31818 114.611 8.31818C114.134 8.31818 113.733 8.43916 113.408 8.68111C113.083 8.91974 112.838 9.2545 112.672 9.68537C112.506 10.1129 112.423 10.6117 112.423 11.1818ZM123.008 15.1591C122.272 15.1591 121.637 14.9967 121.104 14.6719C120.574 14.3438 120.164 13.8864 119.876 13.2997C119.591 12.7098 119.448 12.0237 119.448 11.2415C119.448 10.4593 119.591 9.76989 119.876 9.1733C120.164 8.57339 120.565 8.10606 121.079 7.77131C121.596 7.43324 122.199 7.2642 122.889 7.2642C123.286 7.2642 123.679 7.33049 124.067 7.46307C124.455 7.59564 124.808 7.81108 125.126 8.10938C125.444 8.40436 125.698 8.79545 125.887 9.28267C126.075 9.76989 126.17 10.3698 126.17 11.0824V11.5795H120.284V10.5653H124.977C124.977 10.1345 124.891 9.75 124.718 9.41193C124.549 9.07386 124.307 8.80705 123.992 8.61151C123.681 8.41596 123.313 8.31818 122.889 8.31818C122.421 8.31818 122.017 8.43419 121.676 8.66619C121.338 8.89489 121.077 9.19318 120.895 9.56108C120.713 9.92898 120.622 10.3234 120.622 10.7443V11.4205C120.622 11.9972 120.721 12.486 120.92 12.8871C121.122 13.2848 121.402 13.5881 121.76 13.7969C122.118 14.0024 122.534 14.1051 123.008 14.1051C123.316 14.1051 123.595 14.062 123.843 13.9759C124.095 13.8864 124.312 13.7538 124.494 13.5781C124.677 13.3991 124.818 13.1771 124.917 12.9119L126.051 13.2301C125.931 13.6146 125.731 13.9527 125.449 14.2443C125.167 14.5327 124.819 14.758 124.405 14.9205C123.991 15.0795 123.525 15.1591 123.008 15.1591ZM129.128 4.81818V15H127.955V4.81818H129.128Z" fill="white" fill-opacity="0.95"/>
<path d="M149 16.75C152.728 16.75 155.75 13.7279 155.75 10C155.75 6.27208 152.728 3.25 149 3.25C145.272 3.25 142.25 6.27208 142.25 10C142.25 13.7279 145.272 16.75 149 16.75ZM147.286 5.71429C147.286 4.92531 147.925 4.28571 148.714 4.28571C149.503 4.28571 150.143 4.92531 150.143 5.71429C150.143 6.50326 149.503 7.14286 148.714 7.14286C147.925 7.14286 147.286 6.50326 147.286 5.71429ZM147.857 10C147.226 10 146.714 9.48833 146.714 8.85714C146.714 8.22596 147.226 7.71429 147.857 7.71429H149C149.631 7.71429 150.143 8.22596 150.143 8.85714V12.8571H151.286C151.917 12.8571 152.429 13.3688 152.429 14C152.429 14.6312 151.917 15.1429 151.286 15.1429H146.714C146.083 15.1429 145.571 14.6312 145.571 14C145.571 13.3688 146.083 12.8571 146.714 12.8571H147.857V10Z" fill="white" fill-opacity="0.95"/>
</svg>
