<svg width="96" height="24" viewBox="0 0 96 24" fill="none" xmlns="http://www.w3.org/2000/svg">
<rect width="48" height="24" rx="12" fill="#64B4FA"/>
<rect x="26" y="2" width="20" height="20" rx="10" fill="white"/>
<path d="M34.2003 15.075C34.1508 15.0751 34.1019 15.0654 34.0562 15.0464C34.0106 15.0274 33.9692 14.9995 33.9344 14.9644L31.2343 12.2511C31.1996 12.2162 31.1721 12.1748 31.1534 12.1292C31.1347 12.0837 31.1251 12.0349 31.1252 11.9857C31.1254 11.9364 31.1352 11.8877 31.1542 11.8423C31.1732 11.7968 31.2009 11.7556 31.2358 11.7208C31.2707 11.6861 31.3121 11.6586 31.3577 11.6399C31.4032 11.6212 31.452 11.6116 31.5012 11.6117C31.5505 11.6119 31.5992 11.6217 31.6447 11.6407C31.6901 11.6597 31.7314 11.6874 31.7661 11.7223L34.2204 14.1887L40.2563 9.01564C40.3318 8.95095 40.4298 8.9189 40.5289 8.92652C40.628 8.93414 40.7201 8.98082 40.7847 9.05629C40.8494 9.13176 40.8815 9.22983 40.8739 9.32893C40.8662 9.42803 40.8196 9.52005 40.7441 9.58473L34.4442 14.9845C34.3764 15.0429 34.2898 15.075 34.2003 15.075Z" fill="black" fill-opacity="0.95"/>
<path d="M61.233 17V6.81818H62.4659V15.9062H67.1989V17H61.233ZM71.196 17.179C70.7121 17.179 70.273 17.0878 69.8786 16.9055C69.4841 16.7199 69.1709 16.4531 68.9389 16.1051C68.7069 15.7538 68.5909 15.3295 68.5909 14.8324C68.5909 14.3949 68.6771 14.0402 68.8494 13.7685C69.0218 13.4934 69.2521 13.2779 69.5405 13.1222C69.8288 12.9664 70.147 12.8504 70.495 12.7741C70.8464 12.6946 71.1993 12.6316 71.554 12.5852C72.018 12.5256 72.3942 12.4808 72.6825 12.451C72.9742 12.4179 73.1863 12.3632 73.3189 12.2869C73.4548 12.2107 73.5227 12.0781 73.5227 11.8892V11.8494C73.5227 11.3589 73.3885 10.9777 73.12 10.706C72.8549 10.4342 72.4522 10.2983 71.9119 10.2983C71.3518 10.2983 70.9126 10.4209 70.5945 10.6662C70.2763 10.9115 70.0526 11.1733 69.9233 11.4517L68.8097 11.054C69.0085 10.59 69.2737 10.2287 69.6051 9.97017C69.9399 9.70833 70.3045 9.52604 70.6989 9.4233C71.0966 9.31723 71.4877 9.2642 71.8722 9.2642C72.1174 9.2642 72.3991 9.29403 72.7173 9.35369C73.0388 9.41004 73.3487 9.5277 73.647 9.70668C73.9486 9.88565 74.1989 10.1558 74.3977 10.517C74.5966 10.8783 74.696 11.3622 74.696 11.9688V17H73.5227V15.9659H73.4631C73.3835 16.1316 73.2509 16.3089 73.0653 16.4979C72.8797 16.6868 72.6328 16.8475 72.3246 16.9801C72.0163 17.1127 71.6402 17.179 71.196 17.179ZM71.375 16.125C71.839 16.125 72.2301 16.0339 72.5483 15.8516C72.8698 15.6693 73.1117 15.4339 73.2741 15.1456C73.4399 14.8572 73.5227 14.554 73.5227 14.2358V13.1619C73.473 13.2216 73.3636 13.2763 73.1946 13.326C73.0289 13.3724 72.8366 13.4138 72.6179 13.4503C72.4025 13.4834 72.192 13.5133 71.9865 13.5398C71.7843 13.563 71.6203 13.5829 71.4943 13.5994C71.1894 13.6392 70.9044 13.7038 70.6392 13.7933C70.3774 13.8795 70.1652 14.0104 70.0028 14.1861C69.8438 14.3584 69.7642 14.5937 69.7642 14.892C69.7642 15.2997 69.915 15.608 70.2166 15.8168C70.5215 16.0223 70.9077 16.125 71.375 16.125ZM76.9966 17V6.81818H78.1699V10.5767H78.2694C78.3555 10.4441 78.4748 10.2751 78.6273 10.0696C78.7831 9.8608 79.0051 9.67519 79.2935 9.51278C79.5852 9.34706 79.9796 9.2642 80.4767 9.2642C81.1197 9.2642 81.6865 9.42495 82.177 9.74645C82.6676 10.0679 83.0504 10.5237 83.3255 11.1136C83.6006 11.7036 83.7381 12.3996 83.7381 13.2017C83.7381 14.0104 83.6006 14.7114 83.3255 15.3047C83.0504 15.8946 82.6692 16.352 82.182 16.6768C81.6948 16.9983 81.133 17.1591 80.4966 17.1591C80.0061 17.1591 79.6133 17.0779 79.3184 16.9155C79.0234 16.7498 78.7963 16.5625 78.6373 16.3537C78.4782 16.1416 78.3555 15.9659 78.2694 15.8267H78.1301V17H76.9966ZM78.15 13.1818C78.15 13.7585 78.2346 14.2673 78.4036 14.7081C78.5726 15.1456 78.8195 15.4886 79.1444 15.7372C79.4692 15.9825 79.8669 16.1051 80.3375 16.1051C80.8281 16.1051 81.2374 15.9759 81.5655 15.7173C81.897 15.4555 82.1455 15.1042 82.3113 14.6634C82.4803 14.2192 82.5648 13.7254 82.5648 13.1818C82.5648 12.6449 82.4819 12.161 82.3162 11.7301C82.1538 11.2959 81.9069 10.9529 81.5755 10.701C81.2473 10.4458 80.8347 10.3182 80.3375 10.3182C79.8603 10.3182 79.4592 10.4392 79.1344 10.6811C78.8096 10.9197 78.5643 11.2545 78.3986 11.6854C78.2329 12.1129 78.15 12.6117 78.15 13.1818ZM88.7346 17.1591C87.9988 17.1591 87.3641 16.9967 86.8304 16.6719C86.3001 16.3438 85.8908 15.8864 85.6025 15.2997C85.3174 14.7098 85.1749 14.0237 85.1749 13.2415C85.1749 12.4593 85.3174 11.7699 85.6025 11.1733C85.8908 10.5734 86.2918 10.1061 86.8056 9.77131C87.3226 9.43324 87.9258 9.2642 88.6152 9.2642C89.013 9.2642 89.4057 9.33049 89.7935 9.46307C90.1813 9.59564 90.5343 9.81108 90.8525 10.1094C91.1706 10.4044 91.4242 10.7955 91.6131 11.2827C91.802 11.7699 91.8965 12.3698 91.8965 13.0824V13.5795H86.0101V12.5653H90.7033C90.7033 12.1345 90.6171 11.75 90.4448 11.4119C90.2757 11.0739 90.0338 10.8071 89.7189 10.6115C89.4074 10.416 89.0395 10.3182 88.6152 10.3182C88.1479 10.3182 87.7435 10.4342 87.4022 10.6662C87.0641 10.8949 86.8039 11.1932 86.6216 11.5611C86.4393 11.929 86.3482 12.3234 86.3482 12.7443V13.4205C86.3482 13.9972 86.4476 14.486 86.6465 14.8871C86.8487 15.2848 87.1287 15.5881 87.4867 15.7969C87.8446 16.0024 88.2606 16.1051 88.7346 16.1051C89.0428 16.1051 89.3212 16.062 89.5698 15.9759C89.8217 15.8864 90.0388 15.7538 90.2211 15.5781C90.4034 15.3991 90.5442 15.1771 90.6436 14.9119L91.7772 15.2301C91.6578 15.6146 91.4573 15.9527 91.1756 16.2443C90.8939 16.5327 90.5459 16.758 90.1316 16.9205C89.7173 17.0795 89.2516 17.1591 88.7346 17.1591ZM94.8546 6.81818V17H93.6813V6.81818H94.8546Z" fill="white" fill-opacity="0.95"/>
</svg>
