<svg width="42" height="42" viewBox="0 0 42 42" fill="none" xmlns="http://www.w3.org/2000/svg">
<path d="M14.4375 37.7348C12.7831 37.7314 11.1976 37.0719 10.0288 35.901C8.86004 34.7301 8.20347 33.1433 8.20312 31.4889L8.20444 14.4328C8.20608 13.8255 8.44794 13.2435 8.8772 12.8139C9.30646 12.3843 9.88825 12.142 10.4956 12.1398H15.9154C15.5919 11.4243 15.423 10.6485 15.4199 9.86324C15.4167 9.07797 15.5793 8.30088 15.897 7.58274C16.2147 6.86461 16.6804 6.22161 17.2636 5.69576C17.8468 5.16992 18.5344 4.77308 19.2815 4.53117C20.0286 4.28927 20.8183 4.20774 21.5991 4.29193C22.3798 4.37612 23.134 4.62413 23.8124 5.01974C24.4907 5.41535 25.0779 5.94967 25.5356 6.58775C25.9934 7.22584 26.3113 7.95334 26.4686 8.7227C26.6972 9.8745 26.5628 11.0689 26.084 12.1411H31.5007C32.1092 12.1415 32.6926 12.3833 33.123 12.8135C33.5534 13.2436 33.7955 13.8269 33.7963 14.4354V20.3929C33.7957 20.6845 33.7183 20.9707 33.5718 21.2227C33.4253 21.4748 33.2149 21.6837 32.9618 21.8285C32.7187 21.9708 32.4419 22.0454 32.1602 22.0448C31.8785 22.0441 31.6021 21.9681 31.3597 21.8246C30.6059 21.4001 29.727 21.2541 28.8765 21.412C28.026 21.5699 27.2581 22.0218 26.707 22.6885C26.181 23.347 25.9022 24.1688 25.9187 25.0114C25.9352 25.854 26.2461 26.6642 26.7975 27.3015C27.3488 27.9389 28.1058 28.3632 28.9373 28.5008C29.7687 28.6385 30.6221 28.4808 31.3494 28.0552C31.5956 27.91 31.876 27.8329 32.1618 27.8318C32.4476 27.8307 32.7286 27.9056 32.9759 28.0487C33.2253 28.1924 33.4325 28.3992 33.5767 28.6482C33.7209 28.8973 33.7971 29.1799 33.7976 29.4676L33.7989 35.438C33.7996 35.7393 33.7408 36.0379 33.6258 36.3165C33.5109 36.5951 33.342 36.8483 33.129 37.0614C32.9159 37.2746 32.6628 37.4436 32.3843 37.5587C32.1058 37.6738 31.8072 37.7328 31.5059 37.7322H31.4969L14.4375 37.7348ZM10.4994 14.1085C10.4564 14.1081 10.4137 14.1163 10.3739 14.1326C10.3341 14.1489 10.298 14.173 10.2676 14.2034C10.2372 14.2338 10.2132 14.27 10.197 14.3098C10.1808 14.3497 10.1727 14.3923 10.1731 14.4353L10.1719 31.4889C10.1716 32.6214 10.6206 33.7077 11.4203 34.5095C12.22 35.3113 13.3051 35.7633 14.4375 35.7661L31.5006 35.7635H31.502C31.545 35.7646 31.5879 35.757 31.628 35.7412C31.668 35.7253 31.7045 35.7016 31.7351 35.6713C31.7658 35.641 31.79 35.6048 31.8063 35.5649C31.8226 35.525 31.8307 35.4823 31.8301 35.4392L31.8288 30.02C30.688 30.5375 29.4062 30.6559 28.1899 30.356C26.9737 30.0561 25.8938 29.3554 25.1244 28.3669C24.355 27.3783 23.9408 26.1595 23.9486 24.9069C23.9565 23.6542 24.3858 22.4407 25.1676 21.4618C25.9408 20.4914 27.0154 19.8063 28.2214 19.5148C29.4275 19.2232 30.6964 19.3419 31.8275 19.852V14.4354C31.8273 14.3489 31.7928 14.266 31.7315 14.205C31.6702 14.1439 31.5872 14.1097 31.5007 14.1098H25.5406C25.2512 14.1094 24.967 14.0328 24.7165 13.8876C24.4661 13.7425 24.2583 13.534 24.114 13.2831C23.9704 13.0369 23.8951 12.7568 23.896 12.4717C23.8969 12.1867 23.9739 11.907 24.1192 11.6617C24.439 11.1128 24.6083 10.4892 24.61 9.85395C24.6116 9.21867 24.4456 8.5942 24.1287 8.04363C23.8117 7.49306 23.3551 7.03588 22.8049 6.71829C22.2547 6.40069 21.6304 6.23393 20.9951 6.23485C20.3598 6.23576 19.736 6.40433 19.1868 6.72351C18.6375 7.04269 18.1822 7.50118 17.8668 8.05266C17.5515 8.60415 17.3872 9.22909 17.3907 9.86437C17.3942 10.4996 17.5653 11.1227 17.8868 11.6707C18.0306 11.9132 18.1069 12.1898 18.1078 12.4717C18.1087 12.7537 18.0341 13.0307 17.8919 13.2742C17.7475 13.5271 17.5389 13.7375 17.2872 13.884C17.0354 14.0305 16.7495 14.108 16.4583 14.1086L10.4994 14.1085Z" fill="#73A321"/>
</svg>
