<svg width="555" height="200" viewBox="0 0 555 200" fill="none" xmlns="http://www.w3.org/2000/svg">
<rect width="555" height="200" rx="16" fill="#1A1A1A"/>
<rect x="198.5" y="80.5" width="15" height="15" rx="1.5" stroke="white" stroke-opacity="0.5"/>
<path d="M231.426 86H230.193C230.12 85.6454 229.993 85.3338 229.81 85.0653C229.631 84.7969 229.413 84.5715 229.154 84.3892C228.899 84.2036 228.616 84.0644 228.304 83.9716C227.992 83.8788 227.668 83.8324 227.33 83.8324C226.713 83.8324 226.155 83.9882 225.654 84.2997C225.157 84.6113 224.761 85.0703 224.466 85.6768C224.174 86.2834 224.028 87.0275 224.028 87.9091C224.028 88.7907 224.174 89.5348 224.466 90.1413C224.761 90.7479 225.157 91.2069 225.654 91.5185C226.155 91.83 226.713 91.9858 227.33 91.9858C227.668 91.9858 227.992 91.9394 228.304 91.8466C228.616 91.7538 228.899 91.6162 229.154 91.4339C229.413 91.2483 229.631 91.0213 229.81 90.7528C229.993 90.4811 230.12 90.1695 230.193 89.8182H231.426C231.333 90.3385 231.164 90.8042 230.919 91.2152C230.674 91.6262 230.369 91.9759 230.004 92.2642C229.64 92.5492 229.23 92.7663 228.776 92.9155C228.326 93.0646 227.843 93.1392 227.33 93.1392C226.461 93.1392 225.689 92.9271 225.013 92.5028C224.337 92.0786 223.805 91.4754 223.417 90.6932C223.029 89.911 222.835 88.983 222.835 87.9091C222.835 86.8352 223.029 85.9072 223.417 85.125C223.805 84.3428 224.337 83.7396 225.013 83.3153C225.689 82.8911 226.461 82.679 227.33 82.679C227.843 82.679 228.326 82.7536 228.776 82.9027C229.23 83.0518 229.64 83.2706 230.004 83.5589C230.369 83.844 230.674 84.192 230.919 84.603C231.164 85.0107 231.333 85.4763 231.426 86ZM234.433 88.4062V93H233.259V82.8182H234.433V86.5568H234.532C234.711 86.1624 234.98 85.8492 235.338 85.6172C235.699 85.3819 236.179 85.2642 236.779 85.2642C237.3 85.2642 237.755 85.3686 238.146 85.5774C238.538 85.7829 238.841 86.0994 239.056 86.527C239.275 86.9512 239.384 87.4915 239.384 88.1477V93H238.211V88.2273C238.211 87.6207 238.054 87.1518 237.739 86.8203C237.427 86.4856 236.995 86.3182 236.441 86.3182C236.057 86.3182 235.712 86.3994 235.407 86.5618C235.106 86.7242 234.867 86.9612 234.691 87.2727C234.519 87.5843 234.433 87.9621 234.433 88.4062ZM244.733 93.1591C243.997 93.1591 243.362 92.9967 242.828 92.6719C242.298 92.3438 241.889 91.8864 241.6 91.2997C241.315 90.7098 241.173 90.0237 241.173 89.2415C241.173 88.4593 241.315 87.7699 241.6 87.1733C241.889 86.5734 242.29 86.1061 242.804 85.7713C243.321 85.4332 243.924 85.2642 244.613 85.2642C245.011 85.2642 245.404 85.3305 245.792 85.4631C246.179 85.5956 246.532 85.8111 246.85 86.1094C247.169 86.4044 247.422 86.7955 247.611 87.2827C247.8 87.7699 247.895 88.3698 247.895 89.0824V89.5795H242.008V88.5653H246.701C246.701 88.1345 246.615 87.75 246.443 87.4119C246.274 87.0739 246.032 86.8071 245.717 86.6115C245.405 86.416 245.038 86.3182 244.613 86.3182C244.146 86.3182 243.742 86.4342 243.4 86.6662C243.062 86.8949 242.802 87.1932 242.62 87.5611C242.437 87.929 242.346 88.3234 242.346 88.7443V89.4205C242.346 89.9972 242.446 90.486 242.645 90.8871C242.847 91.2848 243.127 91.5881 243.485 91.7969C243.843 92.0024 244.259 92.1051 244.733 92.1051C245.041 92.1051 245.319 92.062 245.568 91.9759C245.82 91.8864 246.037 91.7538 246.219 91.5781C246.401 91.3991 246.542 91.1771 246.642 90.9119L247.775 91.2301C247.656 91.6146 247.455 91.9527 247.174 92.2443C246.892 92.5327 246.544 92.758 246.13 92.9205C245.715 93.0795 245.25 93.1591 244.733 93.1591ZM252.782 93.1591C252.066 93.1591 251.449 92.9901 250.932 92.652C250.415 92.3139 250.017 91.8482 249.739 91.255C249.461 90.6617 249.321 89.9839 249.321 89.2216C249.321 88.446 249.464 87.7616 249.749 87.1683C250.037 86.5717 250.438 86.1061 250.952 85.7713C251.469 85.4332 252.072 85.2642 252.762 85.2642C253.299 85.2642 253.783 85.3636 254.213 85.5625C254.644 85.7614 254.997 86.0398 255.272 86.3977C255.547 86.7557 255.718 87.1733 255.784 87.6506H254.611C254.522 87.3026 254.323 86.9943 254.015 86.7259C253.71 86.4541 253.299 86.3182 252.782 86.3182C252.324 86.3182 251.923 86.4375 251.578 86.6761C251.237 86.9115 250.97 87.2446 250.778 87.6754C250.589 88.103 250.495 88.6051 250.495 89.1818C250.495 89.7718 250.587 90.2855 250.773 90.723C250.962 91.1605 251.227 91.5002 251.569 91.7422C251.913 91.9841 252.318 92.1051 252.782 92.1051C253.087 92.1051 253.363 92.0521 253.612 91.946C253.86 91.84 254.071 91.6875 254.243 91.4886C254.416 91.2898 254.538 91.0511 254.611 90.7727H255.784C255.718 91.2235 255.554 91.6295 255.292 91.9908C255.034 92.3487 254.691 92.6338 254.263 92.8459C253.839 93.0547 253.345 93.1591 252.782 93.1591ZM258.593 90.2159L258.574 88.7642H258.812L262.153 85.3636H263.605L260.045 88.9631H259.946L258.593 90.2159ZM257.5 93V82.8182H258.673V93H257.5ZM262.352 93L259.369 89.2216L260.204 88.4062L263.843 93H262.352ZM265.274 93V82.8182H266.447V86.5767H266.547C266.633 86.4441 266.752 86.2751 266.905 86.0696C267.06 85.8608 267.282 85.6752 267.571 85.5128C267.863 85.3471 268.257 85.2642 268.754 85.2642C269.397 85.2642 269.964 85.425 270.454 85.7464C270.945 86.0679 271.328 86.5237 271.603 87.1136C271.878 87.7036 272.015 88.3996 272.015 89.2017C272.015 90.0104 271.878 90.7114 271.603 91.3047C271.328 91.8946 270.947 92.352 270.459 92.6768C269.972 92.9983 269.41 93.1591 268.774 93.1591C268.283 93.1591 267.891 93.0779 267.596 92.9155C267.301 92.7498 267.074 92.5625 266.915 92.3537C266.756 92.1416 266.633 91.9659 266.547 91.8267H266.407V93H265.274ZM266.427 89.1818C266.427 89.7585 266.512 90.2673 266.681 90.7081C266.85 91.1456 267.097 91.4886 267.422 91.7372C267.747 91.9825 268.144 92.1051 268.615 92.1051C269.105 92.1051 269.515 91.9759 269.843 91.7173C270.174 91.4555 270.423 91.1042 270.589 90.6634C270.758 90.2192 270.842 89.7254 270.842 89.1818C270.842 88.6449 270.759 88.161 270.594 87.7301C270.431 87.2959 270.184 86.9529 269.853 86.701C269.525 86.4458 269.112 86.3182 268.615 86.3182C268.138 86.3182 267.737 86.4392 267.412 86.6811C267.087 86.9197 266.842 87.2545 266.676 87.6854C266.51 88.1129 266.427 88.6117 266.427 89.1818ZM276.912 93.1591C276.223 93.1591 275.618 92.995 275.098 92.6669C274.581 92.3388 274.176 91.8797 273.885 91.2898C273.596 90.6998 273.452 90.0104 273.452 89.2216C273.452 88.4261 273.596 87.7318 273.885 87.1385C274.176 86.5452 274.581 86.0845 275.098 85.7564C275.618 85.4283 276.223 85.2642 276.912 85.2642C277.602 85.2642 278.205 85.4283 278.722 85.7564C279.242 86.0845 279.647 86.5452 279.935 87.1385C280.227 87.7318 280.373 88.4261 280.373 89.2216C280.373 90.0104 280.227 90.6998 279.935 91.2898C279.647 91.8797 279.242 92.3388 278.722 92.6669C278.205 92.995 277.602 93.1591 276.912 93.1591ZM276.912 92.1051C277.436 92.1051 277.867 91.9709 278.205 91.7024C278.543 91.4339 278.793 91.081 278.956 90.6435C279.118 90.206 279.199 89.732 279.199 89.2216C279.199 88.7112 279.118 88.2356 278.956 87.7947C278.793 87.3539 278.543 86.9976 278.205 86.7259C277.867 86.4541 277.436 86.3182 276.912 86.3182C276.389 86.3182 275.958 86.4541 275.62 86.7259C275.282 86.9976 275.032 87.3539 274.869 87.7947C274.707 88.2356 274.626 88.7112 274.626 89.2216C274.626 89.732 274.707 90.206 274.869 90.6435C275.032 91.081 275.282 91.4339 275.62 91.7024C275.958 91.9709 276.389 92.1051 276.912 92.1051ZM282.724 85.3636L284.554 88.4858L286.383 85.3636H287.736L285.27 89.1818L287.736 93H286.383L284.554 90.0369L282.724 93H281.372L283.798 89.1818L281.372 85.3636H282.724ZM293.506 93V82.8182H294.739V91.9062H299.472V93H293.506ZM303.469 93.179C302.986 93.179 302.546 93.0878 302.152 92.9055C301.758 92.7199 301.444 92.4531 301.212 92.1051C300.98 91.7538 300.864 91.3295 300.864 90.8324C300.864 90.3949 300.951 90.0402 301.123 89.7685C301.295 89.4934 301.526 89.2779 301.814 89.1222C302.102 88.9664 302.42 88.8504 302.768 88.7741C303.12 88.6946 303.473 88.6316 303.827 88.5852C304.291 88.5256 304.668 88.4808 304.956 88.451C305.248 88.4179 305.46 88.3632 305.592 88.2869C305.728 88.2107 305.796 88.0781 305.796 87.8892V87.8494C305.796 87.3589 305.662 86.9777 305.393 86.706C305.128 86.4342 304.726 86.2983 304.185 86.2983C303.625 86.2983 303.186 86.4209 302.868 86.6662C302.55 86.9115 302.326 87.1733 302.197 87.4517L301.083 87.054C301.282 86.59 301.547 86.2287 301.879 85.9702C302.213 85.7083 302.578 85.526 302.972 85.4233C303.37 85.3172 303.761 85.2642 304.146 85.2642C304.391 85.2642 304.673 85.294 304.991 85.3537C305.312 85.41 305.622 85.5277 305.92 85.7067C306.222 85.8857 306.472 86.1558 306.671 86.517C306.87 86.8783 306.969 87.3622 306.969 87.9688V93H305.796V91.9659H305.737C305.657 92.1316 305.524 92.3089 305.339 92.4979C305.153 92.6868 304.906 92.8475 304.598 92.9801C304.29 93.1127 303.914 93.179 303.469 93.179ZM303.648 92.125C304.112 92.125 304.504 92.0339 304.822 91.8516C305.143 91.6693 305.385 91.4339 305.548 91.1456C305.713 90.8572 305.796 90.554 305.796 90.2358V89.1619C305.746 89.2216 305.637 89.2763 305.468 89.326C305.302 89.3724 305.11 89.4138 304.891 89.4503C304.676 89.4834 304.465 89.5133 304.26 89.5398C304.058 89.563 303.894 89.5829 303.768 89.5994C303.463 89.6392 303.178 89.7038 302.913 89.7933C302.651 89.8795 302.439 90.0104 302.276 90.1861C302.117 90.3584 302.038 90.5937 302.038 90.892C302.038 91.2997 302.188 91.608 302.49 91.8168C302.795 92.0223 303.181 92.125 303.648 92.125ZM309.27 93V82.8182H310.443V86.5767H310.543C310.629 86.4441 310.748 86.2751 310.901 86.0696C311.057 85.8608 311.279 85.6752 311.567 85.5128C311.859 85.3471 312.253 85.2642 312.75 85.2642C313.393 85.2642 313.96 85.425 314.45 85.7464C314.941 86.0679 315.324 86.5237 315.599 87.1136C315.874 87.7036 316.012 88.3996 316.012 89.2017C316.012 90.0104 315.874 90.7114 315.599 91.3047C315.324 91.8946 314.943 92.352 314.455 92.6768C313.968 92.9983 313.406 93.1591 312.77 93.1591C312.28 93.1591 311.887 93.0779 311.592 92.9155C311.297 92.7498 311.07 92.5625 310.911 92.3537C310.752 92.1416 310.629 91.9659 310.543 91.8267H310.404V93H309.27ZM310.423 89.1818C310.423 89.7585 310.508 90.2673 310.677 90.7081C310.846 91.1456 311.093 91.4886 311.418 91.7372C311.743 91.9825 312.14 92.1051 312.611 92.1051C313.102 92.1051 313.511 91.9759 313.839 91.7173C314.17 91.4555 314.419 91.1042 314.585 90.6634C314.754 90.2192 314.838 89.7254 314.838 89.1818C314.838 88.6449 314.755 88.161 314.59 87.7301C314.427 87.2959 314.18 86.9529 313.849 86.701C313.521 86.4458 313.108 86.3182 312.611 86.3182C312.134 86.3182 311.733 86.4392 311.408 86.6811C311.083 86.9197 310.838 87.2545 310.672 87.6854C310.506 88.1129 310.423 88.6117 310.423 89.1818ZM321.008 93.1591C320.272 93.1591 319.637 92.9967 319.104 92.6719C318.574 92.3438 318.164 91.8864 317.876 91.2997C317.591 90.7098 317.448 90.0237 317.448 89.2415C317.448 88.4593 317.591 87.7699 317.876 87.1733C318.164 86.5734 318.565 86.1061 319.079 85.7713C319.596 85.4332 320.199 85.2642 320.889 85.2642C321.286 85.2642 321.679 85.3305 322.067 85.4631C322.455 85.5956 322.808 85.8111 323.126 86.1094C323.444 86.4044 323.698 86.7955 323.887 87.2827C324.075 87.7699 324.17 88.3698 324.17 89.0824V89.5795H318.284V88.5653H322.977C322.977 88.1345 322.891 87.75 322.718 87.4119C322.549 87.0739 322.307 86.8071 321.992 86.6115C321.681 86.416 321.313 86.3182 320.889 86.3182C320.421 86.3182 320.017 86.4342 319.676 86.6662C319.338 86.8949 319.077 87.1932 318.895 87.5611C318.713 87.929 318.622 88.3234 318.622 88.7443V89.4205C318.622 89.9972 318.721 90.486 318.92 90.8871C319.122 91.2848 319.402 91.5881 319.76 91.7969C320.118 92.0024 320.534 92.1051 321.008 92.1051C321.316 92.1051 321.595 92.062 321.843 91.9759C322.095 91.8864 322.312 91.7538 322.494 91.5781C322.677 91.3991 322.818 91.1771 322.917 90.9119L324.051 91.2301C323.931 91.6146 323.731 91.9527 323.449 92.2443C323.167 92.5327 322.819 92.758 322.405 92.9205C321.991 93.0795 321.525 93.1591 321.008 93.1591ZM327.128 82.8182V93H325.955V82.8182H327.128Z" fill="white" fill-opacity="0.95"/>
<path d="M347 94.75C350.728 94.75 353.75 91.7279 353.75 88C353.75 84.2721 350.728 81.25 347 81.25C343.272 81.25 340.25 84.2721 340.25 88C340.25 91.7279 343.272 94.75 347 94.75ZM345.286 83.7143C345.286 82.9253 345.925 82.2857 346.714 82.2857C347.503 82.2857 348.143 82.9253 348.143 83.7143C348.143 84.5033 347.503 85.1429 346.714 85.1429C345.925 85.1429 345.286 84.5033 345.286 83.7143ZM345.857 88C345.226 88 344.714 87.4883 344.714 86.8571C344.714 86.226 345.226 85.7143 345.857 85.7143H347C347.631 85.7143 348.143 86.226 348.143 86.8571V90.8571H349.286C349.917 90.8571 350.429 91.3688 350.429 92C350.429 92.6312 349.917 93.1429 349.286 93.1429H344.714C344.083 93.1429 343.571 92.6312 343.571 92C343.571 91.3688 344.083 90.8571 344.714 90.8571H345.857V88Z" fill="white" fill-opacity="0.95"/>
<path d="M223.233 117V106.818H224.466V111.352H229.895V106.818H231.128V117H229.895V112.446H224.466V117H223.233ZM236.639 117.159C235.903 117.159 235.268 116.997 234.735 116.672C234.204 116.344 233.795 115.886 233.507 115.3C233.222 114.71 233.079 114.024 233.079 113.241C233.079 112.459 233.222 111.77 233.507 111.173C233.795 110.573 234.196 110.106 234.71 109.771C235.227 109.433 235.83 109.264 236.52 109.264C236.917 109.264 237.31 109.33 237.698 109.463C238.086 109.596 238.439 109.811 238.757 110.109C239.075 110.404 239.328 110.795 239.517 111.283C239.706 111.77 239.801 112.37 239.801 113.082V113.58H233.914V112.565H238.608C238.608 112.134 238.521 111.75 238.349 111.412C238.18 111.074 237.938 110.807 237.623 110.612C237.312 110.416 236.944 110.318 236.52 110.318C236.052 110.318 235.648 110.434 235.306 110.666C234.968 110.895 234.708 111.193 234.526 111.561C234.344 111.929 234.252 112.323 234.252 112.744V113.42C234.252 113.997 234.352 114.486 234.551 114.887C234.753 115.285 235.033 115.588 235.391 115.797C235.749 116.002 236.165 116.105 236.639 116.105C236.947 116.105 237.225 116.062 237.474 115.976C237.726 115.886 237.943 115.754 238.125 115.578C238.308 115.399 238.449 115.177 238.548 114.912L239.681 115.23C239.562 115.615 239.362 115.953 239.08 116.244C238.798 116.533 238.45 116.758 238.036 116.92C237.622 117.08 237.156 117.159 236.639 117.159ZM242.759 106.818V117H241.586V106.818H242.759ZM244.908 119.864V109.364H246.041V110.577H246.181C246.267 110.444 246.386 110.275 246.539 110.07C246.694 109.861 246.916 109.675 247.205 109.513C247.496 109.347 247.891 109.264 248.388 109.264C249.031 109.264 249.598 109.425 250.088 109.746C250.579 110.068 250.962 110.524 251.237 111.114C251.512 111.704 251.649 112.4 251.649 113.202C251.649 114.01 251.512 114.711 251.237 115.305C250.962 115.895 250.58 116.352 250.093 116.677C249.606 116.998 249.044 117.159 248.408 117.159C247.917 117.159 247.525 117.078 247.23 116.915C246.935 116.75 246.708 116.562 246.548 116.354C246.389 116.142 246.267 115.966 246.181 115.827H246.081V119.864H244.908ZM246.061 113.182C246.061 113.759 246.146 114.267 246.315 114.708C246.484 115.146 246.731 115.489 247.056 115.737C247.38 115.982 247.778 116.105 248.249 116.105C248.739 116.105 249.149 115.976 249.477 115.717C249.808 115.455 250.057 115.104 250.222 114.663C250.392 114.219 250.476 113.725 250.476 113.182C250.476 112.645 250.393 112.161 250.227 111.73C250.065 111.296 249.818 110.953 249.487 110.701C249.159 110.446 248.746 110.318 248.249 110.318C247.771 110.318 247.37 110.439 247.046 110.681C246.721 110.92 246.476 111.254 246.31 111.685C246.144 112.113 246.061 112.612 246.061 113.182ZM256.641 117.159C255.905 117.159 255.27 116.997 254.737 116.672C254.206 116.344 253.797 115.886 253.509 115.3C253.224 114.71 253.081 114.024 253.081 113.241C253.081 112.459 253.224 111.77 253.509 111.173C253.797 110.573 254.198 110.106 254.712 109.771C255.229 109.433 255.832 109.264 256.521 109.264C256.919 109.264 257.312 109.33 257.7 109.463C258.088 109.596 258.441 109.811 258.759 110.109C259.077 110.404 259.33 110.795 259.519 111.283C259.708 111.77 259.803 112.37 259.803 113.082V113.58H253.916V112.565H258.61C258.61 112.134 258.523 111.75 258.351 111.412C258.182 111.074 257.94 110.807 257.625 110.612C257.314 110.416 256.946 110.318 256.521 110.318C256.054 110.318 255.65 110.434 255.308 110.666C254.97 110.895 254.71 111.193 254.528 111.561C254.346 111.929 254.254 112.323 254.254 112.744V113.42C254.254 113.997 254.354 114.486 254.553 114.887C254.755 115.285 255.035 115.588 255.393 115.797C255.751 116.002 256.167 116.105 256.641 116.105C256.949 116.105 257.227 116.062 257.476 115.976C257.728 115.886 257.945 115.754 258.127 115.578C258.31 115.399 258.45 115.177 258.55 114.912L259.683 115.23C259.564 115.615 259.364 115.953 259.082 116.244C258.8 116.533 258.452 116.758 258.038 116.92C257.624 117.08 257.158 117.159 256.641 117.159ZM261.588 117V109.364H262.721V110.517H262.801C262.94 110.139 263.192 109.833 263.556 109.597C263.921 109.362 264.332 109.244 264.789 109.244C264.875 109.244 264.983 109.246 265.112 109.249C265.242 109.253 265.339 109.258 265.406 109.264V110.457C265.366 110.447 265.275 110.433 265.132 110.413C264.993 110.389 264.846 110.378 264.69 110.378C264.319 110.378 263.987 110.456 263.695 110.612C263.407 110.764 263.178 110.976 263.009 111.248C262.844 111.516 262.761 111.823 262.761 112.168V117H261.588ZM274.055 109.364V110.358H270.098V109.364H274.055ZM271.251 107.534H272.424V114.812C272.424 115.144 272.472 115.393 272.569 115.558C272.668 115.721 272.794 115.83 272.946 115.886C273.102 115.939 273.266 115.966 273.439 115.966C273.568 115.966 273.674 115.959 273.757 115.946C273.84 115.929 273.906 115.916 273.956 115.906L274.194 116.96C274.115 116.99 274.004 117.02 273.861 117.05C273.719 117.083 273.538 117.099 273.319 117.099C272.988 117.099 272.663 117.028 272.345 116.886C272.03 116.743 271.768 116.526 271.559 116.234C271.354 115.943 271.251 115.575 271.251 115.131V107.534ZM278.94 117.159C278.204 117.159 277.569 116.997 277.036 116.672C276.505 116.344 276.096 115.886 275.808 115.3C275.522 114.71 275.38 114.024 275.38 113.241C275.38 112.459 275.522 111.77 275.808 111.173C276.096 110.573 276.497 110.106 277.011 109.771C277.528 109.433 278.131 109.264 278.82 109.264C279.218 109.264 279.611 109.33 279.999 109.463C280.386 109.596 280.739 109.811 281.058 110.109C281.376 110.404 281.629 110.795 281.818 111.283C282.007 111.77 282.102 112.37 282.102 113.082V113.58H276.215V112.565H280.908C280.908 112.134 280.822 111.75 280.65 111.412C280.481 111.074 280.239 110.807 279.924 110.612C279.612 110.416 279.245 110.318 278.82 110.318C278.353 110.318 277.949 110.434 277.607 110.666C277.269 110.895 277.009 111.193 276.827 111.561C276.644 111.929 276.553 112.323 276.553 112.744V113.42C276.553 113.997 276.653 114.486 276.852 114.887C277.054 115.285 277.334 115.588 277.692 115.797C278.05 116.002 278.466 116.105 278.94 116.105C279.248 116.105 279.526 116.062 279.775 115.976C280.027 115.886 280.244 115.754 280.426 115.578C280.608 115.399 280.749 115.177 280.849 114.912L281.982 115.23C281.863 115.615 281.662 115.953 281.381 116.244C281.099 116.533 280.751 116.758 280.337 116.92C279.922 117.08 279.457 117.159 278.94 117.159ZM284.556 109.364L286.386 112.486L288.215 109.364H289.568L287.102 113.182L289.568 117H288.215L286.386 114.037L284.556 117H283.204L285.63 113.182L283.204 109.364H284.556ZM294.563 109.364V110.358H290.605V109.364H294.563ZM291.759 107.534H292.932V114.812C292.932 115.144 292.98 115.393 293.076 115.558C293.176 115.721 293.302 115.83 293.454 115.886C293.61 115.939 293.774 115.966 293.946 115.966C294.076 115.966 294.182 115.959 294.265 115.946C294.347 115.929 294.414 115.916 294.463 115.906L294.702 116.96C294.623 116.99 294.511 117.02 294.369 117.05C294.226 117.083 294.046 117.099 293.827 117.099C293.496 117.099 293.171 117.028 292.853 116.886C292.538 116.743 292.276 116.526 292.067 116.234C291.862 115.943 291.759 115.575 291.759 115.131V107.534Z" fill="white" fill-opacity="0.7"/>
</svg>
