<svg width="555" height="200" viewBox="0 0 555 200" fill="none" xmlns="http://www.w3.org/2000/svg">
<rect width="555" height="200" rx="16" fill="#1A1A1A"/>
<rect x="198.5" y="92.5" width="15" height="15" rx="1.5" stroke="white" stroke-opacity="0.5"/>
<path d="M231.426 98H230.193C230.12 97.6454 229.993 97.3338 229.81 97.0653C229.631 96.7969 229.413 96.5715 229.154 96.3892C228.899 96.2036 228.616 96.0644 228.304 95.9716C227.992 95.8788 227.668 95.8324 227.33 95.8324C226.713 95.8324 226.155 95.9882 225.654 96.2997C225.157 96.6113 224.761 97.0703 224.466 97.6768C224.174 98.2834 224.028 99.0275 224.028 99.9091C224.028 100.791 224.174 101.535 224.466 102.141C224.761 102.748 225.157 103.207 225.654 103.518C226.155 103.83 226.713 103.986 227.33 103.986C227.668 103.986 227.992 103.939 228.304 103.847C228.616 103.754 228.899 103.616 229.154 103.434C229.413 103.248 229.631 103.021 229.81 102.753C229.993 102.481 230.12 102.17 230.193 101.818H231.426C231.333 102.339 231.164 102.804 230.919 103.215C230.674 103.626 230.369 103.976 230.004 104.264C229.64 104.549 229.23 104.766 228.776 104.915C228.326 105.065 227.843 105.139 227.33 105.139C226.461 105.139 225.689 104.927 225.013 104.503C224.337 104.079 223.805 103.475 223.417 102.693C223.029 101.911 222.835 100.983 222.835 99.9091C222.835 98.8352 223.029 97.9072 223.417 97.125C223.805 96.3428 224.337 95.7396 225.013 95.3153C225.689 94.8911 226.461 94.679 227.33 94.679C227.843 94.679 228.326 94.7536 228.776 94.9027C229.23 95.0518 229.64 95.2706 230.004 95.5589C230.369 95.844 230.674 96.192 230.919 96.603C231.164 97.0107 231.333 97.4763 231.426 98ZM234.433 100.406V105H233.259V94.8182H234.433V98.5568H234.532C234.711 98.1624 234.98 97.8492 235.338 97.6172C235.699 97.3819 236.179 97.2642 236.779 97.2642C237.3 97.2642 237.755 97.3686 238.146 97.5774C238.538 97.7829 238.841 98.0994 239.056 98.527C239.275 98.9512 239.384 99.4915 239.384 100.148V105H238.211V100.227C238.211 99.6207 238.054 99.1518 237.739 98.8203C237.427 98.4856 236.995 98.3182 236.441 98.3182C236.057 98.3182 235.712 98.3994 235.407 98.5618C235.106 98.7242 234.867 98.9612 234.691 99.2727C234.519 99.5843 234.433 99.9621 234.433 100.406ZM244.733 105.159C243.997 105.159 243.362 104.997 242.828 104.672C242.298 104.344 241.889 103.886 241.6 103.3C241.315 102.71 241.173 102.024 241.173 101.241C241.173 100.459 241.315 99.7699 241.6 99.1733C241.889 98.5734 242.29 98.1061 242.804 97.7713C243.321 97.4332 243.924 97.2642 244.613 97.2642C245.011 97.2642 245.404 97.3305 245.792 97.4631C246.179 97.5956 246.532 97.8111 246.85 98.1094C247.169 98.4044 247.422 98.7955 247.611 99.2827C247.8 99.7699 247.895 100.37 247.895 101.082V101.58H242.008V100.565H246.701C246.701 100.134 246.615 99.75 246.443 99.4119C246.274 99.0739 246.032 98.8071 245.717 98.6115C245.405 98.416 245.038 98.3182 244.613 98.3182C244.146 98.3182 243.742 98.4342 243.4 98.6662C243.062 98.8949 242.802 99.1932 242.62 99.5611C242.437 99.929 242.346 100.323 242.346 100.744V101.42C242.346 101.997 242.446 102.486 242.645 102.887C242.847 103.285 243.127 103.588 243.485 103.797C243.843 104.002 244.259 104.105 244.733 104.105C245.041 104.105 245.319 104.062 245.568 103.976C245.82 103.886 246.037 103.754 246.219 103.578C246.401 103.399 246.542 103.177 246.642 102.912L247.775 103.23C247.656 103.615 247.455 103.953 247.174 104.244C246.892 104.533 246.544 104.758 246.13 104.92C245.715 105.08 245.25 105.159 244.733 105.159ZM252.782 105.159C252.066 105.159 251.449 104.99 250.932 104.652C250.415 104.314 250.017 103.848 249.739 103.255C249.461 102.662 249.321 101.984 249.321 101.222C249.321 100.446 249.464 99.7616 249.749 99.1683C250.037 98.5717 250.438 98.1061 250.952 97.7713C251.469 97.4332 252.072 97.2642 252.762 97.2642C253.299 97.2642 253.783 97.3636 254.213 97.5625C254.644 97.7614 254.997 98.0398 255.272 98.3977C255.547 98.7557 255.718 99.1733 255.784 99.6506H254.611C254.522 99.3026 254.323 98.9943 254.015 98.7259C253.71 98.4541 253.299 98.3182 252.782 98.3182C252.324 98.3182 251.923 98.4375 251.578 98.6761C251.237 98.9115 250.97 99.2446 250.778 99.6754C250.589 100.103 250.495 100.605 250.495 101.182C250.495 101.772 250.587 102.286 250.773 102.723C250.962 103.161 251.227 103.5 251.569 103.742C251.913 103.984 252.318 104.105 252.782 104.105C253.087 104.105 253.363 104.052 253.612 103.946C253.86 103.84 254.071 103.688 254.243 103.489C254.416 103.29 254.538 103.051 254.611 102.773H255.784C255.718 103.223 255.554 103.629 255.292 103.991C255.034 104.349 254.691 104.634 254.263 104.846C253.839 105.055 253.345 105.159 252.782 105.159ZM258.593 102.216L258.574 100.764H258.812L262.153 97.3636H263.605L260.045 100.963H259.946L258.593 102.216ZM257.5 105V94.8182H258.673V105H257.5ZM262.352 105L259.369 101.222L260.204 100.406L263.843 105H262.352ZM265.274 105V94.8182H266.447V98.5767H266.547C266.633 98.4441 266.752 98.2751 266.905 98.0696C267.06 97.8608 267.282 97.6752 267.571 97.5128C267.863 97.3471 268.257 97.2642 268.754 97.2642C269.397 97.2642 269.964 97.425 270.454 97.7464C270.945 98.0679 271.328 98.5237 271.603 99.1136C271.878 99.7036 272.015 100.4 272.015 101.202C272.015 102.01 271.878 102.711 271.603 103.305C271.328 103.895 270.947 104.352 270.459 104.677C269.972 104.998 269.41 105.159 268.774 105.159C268.283 105.159 267.891 105.078 267.596 104.915C267.301 104.75 267.074 104.562 266.915 104.354C266.756 104.142 266.633 103.966 266.547 103.827H266.407V105H265.274ZM266.427 101.182C266.427 101.759 266.512 102.267 266.681 102.708C266.85 103.146 267.097 103.489 267.422 103.737C267.747 103.982 268.144 104.105 268.615 104.105C269.105 104.105 269.515 103.976 269.843 103.717C270.174 103.455 270.423 103.104 270.589 102.663C270.758 102.219 270.842 101.725 270.842 101.182C270.842 100.645 270.759 100.161 270.594 99.7301C270.431 99.2959 270.184 98.9529 269.853 98.701C269.525 98.4458 269.112 98.3182 268.615 98.3182C268.138 98.3182 267.737 98.4392 267.412 98.6811C267.087 98.9197 266.842 99.2545 266.676 99.6854C266.51 100.113 266.427 100.612 266.427 101.182ZM276.912 105.159C276.223 105.159 275.618 104.995 275.098 104.667C274.581 104.339 274.176 103.88 273.885 103.29C273.596 102.7 273.452 102.01 273.452 101.222C273.452 100.426 273.596 99.7318 273.885 99.1385C274.176 98.5452 274.581 98.0845 275.098 97.7564C275.618 97.4283 276.223 97.2642 276.912 97.2642C277.602 97.2642 278.205 97.4283 278.722 97.7564C279.242 98.0845 279.647 98.5452 279.935 99.1385C280.227 99.7318 280.373 100.426 280.373 101.222C280.373 102.01 280.227 102.7 279.935 103.29C279.647 103.88 279.242 104.339 278.722 104.667C278.205 104.995 277.602 105.159 276.912 105.159ZM276.912 104.105C277.436 104.105 277.867 103.971 278.205 103.702C278.543 103.434 278.793 103.081 278.956 102.643C279.118 102.206 279.199 101.732 279.199 101.222C279.199 100.711 279.118 100.236 278.956 99.7947C278.793 99.3539 278.543 98.9976 278.205 98.7259C277.867 98.4541 277.436 98.3182 276.912 98.3182C276.389 98.3182 275.958 98.4541 275.62 98.7259C275.282 98.9976 275.032 99.3539 274.869 99.7947C274.707 100.236 274.626 100.711 274.626 101.222C274.626 101.732 274.707 102.206 274.869 102.643C275.032 103.081 275.282 103.434 275.62 103.702C275.958 103.971 276.389 104.105 276.912 104.105ZM282.724 97.3636L284.554 100.486L286.383 97.3636H287.736L285.27 101.182L287.736 105H286.383L284.554 102.037L282.724 105H281.372L283.798 101.182L281.372 97.3636H282.724ZM293.506 105V94.8182H294.739V103.906H299.472V105H293.506ZM303.469 105.179C302.986 105.179 302.546 105.088 302.152 104.906C301.758 104.72 301.444 104.453 301.212 104.105C300.98 103.754 300.864 103.33 300.864 102.832C300.864 102.395 300.951 102.04 301.123 101.768C301.295 101.493 301.526 101.278 301.814 101.122C302.102 100.966 302.42 100.85 302.768 100.774C303.12 100.695 303.473 100.632 303.827 100.585C304.291 100.526 304.668 100.481 304.956 100.451C305.248 100.418 305.46 100.363 305.592 100.287C305.728 100.211 305.796 100.078 305.796 99.8892V99.8494C305.796 99.3589 305.662 98.9777 305.393 98.706C305.128 98.4342 304.726 98.2983 304.185 98.2983C303.625 98.2983 303.186 98.4209 302.868 98.6662C302.55 98.9115 302.326 99.1733 302.197 99.4517L301.083 99.054C301.282 98.59 301.547 98.2287 301.879 97.9702C302.213 97.7083 302.578 97.526 302.972 97.4233C303.37 97.3172 303.761 97.2642 304.146 97.2642C304.391 97.2642 304.673 97.294 304.991 97.3537C305.312 97.41 305.622 97.5277 305.92 97.7067C306.222 97.8857 306.472 98.1558 306.671 98.517C306.87 98.8783 306.969 99.3622 306.969 99.9688V105H305.796V103.966H305.737C305.657 104.132 305.524 104.309 305.339 104.498C305.153 104.687 304.906 104.848 304.598 104.98C304.29 105.113 303.914 105.179 303.469 105.179ZM303.648 104.125C304.112 104.125 304.504 104.034 304.822 103.852C305.143 103.669 305.385 103.434 305.548 103.146C305.713 102.857 305.796 102.554 305.796 102.236V101.162C305.746 101.222 305.637 101.276 305.468 101.326C305.302 101.372 305.11 101.414 304.891 101.45C304.676 101.483 304.465 101.513 304.26 101.54C304.058 101.563 303.894 101.583 303.768 101.599C303.463 101.639 303.178 101.704 302.913 101.793C302.651 101.879 302.439 102.01 302.276 102.186C302.117 102.358 302.038 102.594 302.038 102.892C302.038 103.3 302.188 103.608 302.49 103.817C302.795 104.022 303.181 104.125 303.648 104.125ZM309.27 105V94.8182H310.443V98.5767H310.543C310.629 98.4441 310.748 98.2751 310.901 98.0696C311.057 97.8608 311.279 97.6752 311.567 97.5128C311.859 97.3471 312.253 97.2642 312.75 97.2642C313.393 97.2642 313.96 97.425 314.45 97.7464C314.941 98.0679 315.324 98.5237 315.599 99.1136C315.874 99.7036 316.012 100.4 316.012 101.202C316.012 102.01 315.874 102.711 315.599 103.305C315.324 103.895 314.943 104.352 314.455 104.677C313.968 104.998 313.406 105.159 312.77 105.159C312.28 105.159 311.887 105.078 311.592 104.915C311.297 104.75 311.07 104.562 310.911 104.354C310.752 104.142 310.629 103.966 310.543 103.827H310.404V105H309.27ZM310.423 101.182C310.423 101.759 310.508 102.267 310.677 102.708C310.846 103.146 311.093 103.489 311.418 103.737C311.743 103.982 312.14 104.105 312.611 104.105C313.102 104.105 313.511 103.976 313.839 103.717C314.17 103.455 314.419 103.104 314.585 102.663C314.754 102.219 314.838 101.725 314.838 101.182C314.838 100.645 314.755 100.161 314.59 99.7301C314.427 99.2959 314.18 98.9529 313.849 98.701C313.521 98.4458 313.108 98.3182 312.611 98.3182C312.134 98.3182 311.733 98.4392 311.408 98.6811C311.083 98.9197 310.838 99.2545 310.672 99.6854C310.506 100.113 310.423 100.612 310.423 101.182ZM321.008 105.159C320.272 105.159 319.637 104.997 319.104 104.672C318.574 104.344 318.164 103.886 317.876 103.3C317.591 102.71 317.448 102.024 317.448 101.241C317.448 100.459 317.591 99.7699 317.876 99.1733C318.164 98.5734 318.565 98.1061 319.079 97.7713C319.596 97.4332 320.199 97.2642 320.889 97.2642C321.286 97.2642 321.679 97.3305 322.067 97.4631C322.455 97.5956 322.808 97.8111 323.126 98.1094C323.444 98.4044 323.698 98.7955 323.887 99.2827C324.075 99.7699 324.17 100.37 324.17 101.082V101.58H318.284V100.565H322.977C322.977 100.134 322.891 99.75 322.718 99.4119C322.549 99.0739 322.307 98.8071 321.992 98.6115C321.681 98.416 321.313 98.3182 320.889 98.3182C320.421 98.3182 320.017 98.4342 319.676 98.6662C319.338 98.8949 319.077 99.1932 318.895 99.5611C318.713 99.929 318.622 100.323 318.622 100.744V101.42C318.622 101.997 318.721 102.486 318.92 102.887C319.122 103.285 319.402 103.588 319.76 103.797C320.118 104.002 320.534 104.105 321.008 104.105C321.316 104.105 321.595 104.062 321.843 103.976C322.095 103.886 322.312 103.754 322.494 103.578C322.677 103.399 322.818 103.177 322.917 102.912L324.051 103.23C323.931 103.615 323.731 103.953 323.449 104.244C323.167 104.533 322.819 104.758 322.405 104.92C321.991 105.08 321.525 105.159 321.008 105.159ZM327.128 94.8182V105H325.955V94.8182H327.128Z" fill="white" fill-opacity="0.95"/>
<path d="M347 106.75C350.728 106.75 353.75 103.728 353.75 100C353.75 96.2721 350.728 93.25 347 93.25C343.272 93.25 340.25 96.2721 340.25 100C340.25 103.728 343.272 106.75 347 106.75ZM345.286 95.7143C345.286 94.9253 345.925 94.2857 346.714 94.2857C347.503 94.2857 348.143 94.9253 348.143 95.7143C348.143 96.5033 347.503 97.1429 346.714 97.1429C345.925 97.1429 345.286 96.5033 345.286 95.7143ZM345.857 100C345.226 100 344.714 99.4883 344.714 98.8571C344.714 98.226 345.226 97.7143 345.857 97.7143H347C347.631 97.7143 348.143 98.226 348.143 98.8571V102.857H349.286C349.917 102.857 350.429 103.369 350.429 104C350.429 104.631 349.917 105.143 349.286 105.143H344.714C344.083 105.143 343.571 104.631 343.571 104C343.571 103.369 344.083 102.857 344.714 102.857H345.857V100Z" fill="white" fill-opacity="0.95"/>
</svg>
