<svg width="16" height="20" viewBox="0 0 16 20" fill="none" xmlns="http://www.w3.org/2000/svg">
<rect y="2" width="16" height="16" rx="2" fill="white" fill-opacity="0.2"/>
<path d="M5.60029 14.1C5.53437 14.1002 5.46909 14.0872 5.40823 14.0619C5.34737 14.0366 5.29215 13.9994 5.24579 13.9526L1.6457 10.3349C1.5994 10.2883 1.56273 10.2331 1.53777 10.1724C1.51282 10.1117 1.50006 10.0466 1.50025 9.98097C1.50043 9.91532 1.51354 9.85034 1.53883 9.78975C1.56413 9.72917 1.60111 9.67415 1.64766 9.62786C1.69421 9.58156 1.74943 9.54489 1.81016 9.51993C1.87088 9.49497 1.93593 9.48222 2.00158 9.4824C2.06724 9.48259 2.13222 9.4957 2.1928 9.52099C2.25339 9.54629 2.3084 9.58326 2.3547 9.62982L5.62716 12.9184L13.675 6.02093C13.7756 5.93469 13.9064 5.89194 14.0385 5.90211C14.1707 5.91227 14.2933 5.97451 14.3796 6.07513C14.4658 6.17575 14.5086 6.30652 14.4984 6.43865C14.4882 6.57079 14.426 6.69348 14.3254 6.77972L5.92548 13.9794C5.83506 14.0573 5.71964 14.1001 5.60029 14.1Z" fill="black" fill-opacity="0.2"/>
</svg>
