<svg width="555" height="200" viewBox="0 0 555 200" fill="none" xmlns="http://www.w3.org/2000/svg">
<rect width="555" height="200" rx="16" fill="#1A1A1A"/>
<rect x="212.5" y="92.5" width="15" height="15" rx="1.5" stroke="white" stroke-opacity="0.5"/>
<path d="M245.426 98H244.193C244.12 97.6454 243.993 97.3338 243.81 97.0653C243.631 96.7969 243.413 96.5715 243.154 96.3892C242.899 96.2036 242.616 96.0644 242.304 95.9716C241.992 95.8788 241.668 95.8324 241.33 95.8324C240.713 95.8324 240.155 95.9882 239.654 96.2997C239.157 96.6113 238.761 97.0703 238.466 97.6768C238.174 98.2834 238.028 99.0275 238.028 99.9091C238.028 100.791 238.174 101.535 238.466 102.141C238.761 102.748 239.157 103.207 239.654 103.518C240.155 103.83 240.713 103.986 241.33 103.986C241.668 103.986 241.992 103.939 242.304 103.847C242.616 103.754 242.899 103.616 243.154 103.434C243.413 103.248 243.631 103.021 243.81 102.753C243.993 102.481 244.12 102.17 244.193 101.818H245.426C245.333 102.339 245.164 102.804 244.919 103.215C244.674 103.626 244.369 103.976 244.004 104.264C243.64 104.549 243.23 104.766 242.776 104.915C242.326 105.065 241.843 105.139 241.33 105.139C240.461 105.139 239.689 104.927 239.013 104.503C238.337 104.079 237.805 103.475 237.417 102.693C237.029 101.911 236.835 100.983 236.835 99.9091C236.835 98.8352 237.029 97.9072 237.417 97.125C237.805 96.3428 238.337 95.7396 239.013 95.3153C239.689 94.8911 240.461 94.679 241.33 94.679C241.843 94.679 242.326 94.7536 242.776 94.9027C243.23 95.0518 243.64 95.2706 244.004 95.5589C244.369 95.844 244.674 96.192 244.919 96.603C245.164 97.0107 245.333 97.4763 245.426 98ZM248.433 100.406V105H247.259V94.8182H248.433V98.5568H248.532C248.711 98.1624 248.98 97.8492 249.338 97.6172C249.699 97.3819 250.179 97.2642 250.779 97.2642C251.3 97.2642 251.755 97.3686 252.146 97.5774C252.538 97.7829 252.841 98.0994 253.056 98.527C253.275 98.9512 253.384 99.4915 253.384 100.148V105H252.211V100.227C252.211 99.6207 252.054 99.1518 251.739 98.8203C251.427 98.4856 250.995 98.3182 250.441 98.3182C250.057 98.3182 249.712 98.3994 249.407 98.5618C249.106 98.7242 248.867 98.9612 248.691 99.2727C248.519 99.5843 248.433 99.9621 248.433 100.406ZM258.733 105.159C257.997 105.159 257.362 104.997 256.828 104.672C256.298 104.344 255.889 103.886 255.6 103.3C255.315 102.71 255.173 102.024 255.173 101.241C255.173 100.459 255.315 99.7699 255.6 99.1733C255.889 98.5734 256.29 98.1061 256.804 97.7713C257.321 97.4332 257.924 97.2642 258.613 97.2642C259.011 97.2642 259.404 97.3305 259.792 97.4631C260.179 97.5956 260.532 97.8111 260.85 98.1094C261.169 98.4044 261.422 98.7955 261.611 99.2827C261.8 99.7699 261.895 100.37 261.895 101.082V101.58H256.008V100.565H260.701C260.701 100.134 260.615 99.75 260.443 99.4119C260.274 99.0739 260.032 98.8071 259.717 98.6115C259.405 98.416 259.038 98.3182 258.613 98.3182C258.146 98.3182 257.742 98.4342 257.4 98.6662C257.062 98.8949 256.802 99.1932 256.62 99.5611C256.437 99.929 256.346 100.323 256.346 100.744V101.42C256.346 101.997 256.446 102.486 256.645 102.887C256.847 103.285 257.127 103.588 257.485 103.797C257.843 104.002 258.259 104.105 258.733 104.105C259.041 104.105 259.319 104.062 259.568 103.976C259.82 103.886 260.037 103.754 260.219 103.578C260.401 103.399 260.542 103.177 260.642 102.912L261.775 103.23C261.656 103.615 261.455 103.953 261.174 104.244C260.892 104.533 260.544 104.758 260.13 104.92C259.715 105.08 259.25 105.159 258.733 105.159ZM266.782 105.159C266.066 105.159 265.449 104.99 264.932 104.652C264.415 104.314 264.017 103.848 263.739 103.255C263.461 102.662 263.321 101.984 263.321 101.222C263.321 100.446 263.464 99.7616 263.749 99.1683C264.037 98.5717 264.438 98.1061 264.952 97.7713C265.469 97.4332 266.072 97.2642 266.762 97.2642C267.299 97.2642 267.783 97.3636 268.213 97.5625C268.644 97.7614 268.997 98.0398 269.272 98.3977C269.547 98.7557 269.718 99.1733 269.784 99.6506H268.611C268.522 99.3026 268.323 98.9943 268.015 98.7259C267.71 98.4541 267.299 98.3182 266.782 98.3182C266.324 98.3182 265.923 98.4375 265.578 98.6761C265.237 98.9115 264.97 99.2446 264.778 99.6754C264.589 100.103 264.495 100.605 264.495 101.182C264.495 101.772 264.587 102.286 264.773 102.723C264.962 103.161 265.227 103.5 265.569 103.742C265.913 103.984 266.318 104.105 266.782 104.105C267.087 104.105 267.363 104.052 267.612 103.946C267.86 103.84 268.071 103.688 268.243 103.489C268.416 103.29 268.538 103.051 268.611 102.773H269.784C269.718 103.223 269.554 103.629 269.292 103.991C269.034 104.349 268.691 104.634 268.263 104.846C267.839 105.055 267.345 105.159 266.782 105.159ZM272.593 102.216L272.574 100.764H272.812L276.153 97.3636H277.605L274.045 100.963H273.946L272.593 102.216ZM271.5 105V94.8182H272.673V105H271.5ZM276.352 105L273.369 101.222L274.204 100.406L277.843 105H276.352ZM279.274 105V94.8182H280.447V98.5767H280.547C280.633 98.4441 280.752 98.2751 280.905 98.0696C281.06 97.8608 281.282 97.6752 281.571 97.5128C281.863 97.3471 282.257 97.2642 282.754 97.2642C283.397 97.2642 283.964 97.425 284.454 97.7464C284.945 98.0679 285.328 98.5237 285.603 99.1136C285.878 99.7036 286.015 100.4 286.015 101.202C286.015 102.01 285.878 102.711 285.603 103.305C285.328 103.895 284.947 104.352 284.459 104.677C283.972 104.998 283.41 105.159 282.774 105.159C282.283 105.159 281.891 105.078 281.596 104.915C281.301 104.75 281.074 104.562 280.915 104.354C280.756 104.142 280.633 103.966 280.547 103.827H280.407V105H279.274ZM280.427 101.182C280.427 101.759 280.512 102.267 280.681 102.708C280.85 103.146 281.097 103.489 281.422 103.737C281.747 103.982 282.144 104.105 282.615 104.105C283.105 104.105 283.515 103.976 283.843 103.717C284.174 103.455 284.423 103.104 284.589 102.663C284.758 102.219 284.842 101.725 284.842 101.182C284.842 100.645 284.759 100.161 284.594 99.7301C284.431 99.2959 284.184 98.9529 283.853 98.701C283.525 98.4458 283.112 98.3182 282.615 98.3182C282.138 98.3182 281.737 98.4392 281.412 98.6811C281.087 98.9197 280.842 99.2545 280.676 99.6854C280.51 100.113 280.427 100.612 280.427 101.182ZM290.912 105.159C290.223 105.159 289.618 104.995 289.098 104.667C288.581 104.339 288.176 103.88 287.885 103.29C287.596 102.7 287.452 102.01 287.452 101.222C287.452 100.426 287.596 99.7318 287.885 99.1385C288.176 98.5452 288.581 98.0845 289.098 97.7564C289.618 97.4283 290.223 97.2642 290.912 97.2642C291.602 97.2642 292.205 97.4283 292.722 97.7564C293.242 98.0845 293.647 98.5452 293.935 99.1385C294.227 99.7318 294.373 100.426 294.373 101.222C294.373 102.01 294.227 102.7 293.935 103.29C293.647 103.88 293.242 104.339 292.722 104.667C292.205 104.995 291.602 105.159 290.912 105.159ZM290.912 104.105C291.436 104.105 291.867 103.971 292.205 103.702C292.543 103.434 292.793 103.081 292.956 102.643C293.118 102.206 293.199 101.732 293.199 101.222C293.199 100.711 293.118 100.236 292.956 99.7947C292.793 99.3539 292.543 98.9976 292.205 98.7259C291.867 98.4541 291.436 98.3182 290.912 98.3182C290.389 98.3182 289.958 98.4541 289.62 98.7259C289.282 98.9976 289.032 99.3539 288.869 99.7947C288.707 100.236 288.626 100.711 288.626 101.222C288.626 101.732 288.707 102.206 288.869 102.643C289.032 103.081 289.282 103.434 289.62 103.702C289.958 103.971 290.389 104.105 290.912 104.105ZM296.724 97.3636L298.554 100.486L300.383 97.3636H301.736L299.27 101.182L301.736 105H300.383L298.554 102.037L296.724 105H295.372L297.798 101.182L295.372 97.3636H296.724ZM307.506 105V94.8182H308.739V103.906H313.472V105H307.506ZM317.469 105.179C316.986 105.179 316.546 105.088 316.152 104.906C315.758 104.72 315.444 104.453 315.212 104.105C314.98 103.754 314.864 103.33 314.864 102.832C314.864 102.395 314.951 102.04 315.123 101.768C315.295 101.493 315.526 101.278 315.814 101.122C316.102 100.966 316.42 100.85 316.768 100.774C317.12 100.695 317.473 100.632 317.827 100.585C318.291 100.526 318.668 100.481 318.956 100.451C319.248 100.418 319.46 100.363 319.592 100.287C319.728 100.211 319.796 100.078 319.796 99.8892V99.8494C319.796 99.3589 319.662 98.9777 319.393 98.706C319.128 98.4342 318.726 98.2983 318.185 98.2983C317.625 98.2983 317.186 98.4209 316.868 98.6662C316.55 98.9115 316.326 99.1733 316.197 99.4517L315.083 99.054C315.282 98.59 315.547 98.2287 315.879 97.9702C316.213 97.7083 316.578 97.526 316.972 97.4233C317.37 97.3172 317.761 97.2642 318.146 97.2642C318.391 97.2642 318.673 97.294 318.991 97.3537C319.312 97.41 319.622 97.5277 319.92 97.7067C320.222 97.8857 320.472 98.1558 320.671 98.517C320.87 98.8783 320.969 99.3622 320.969 99.9688V105H319.796V103.966H319.737C319.657 104.132 319.524 104.309 319.339 104.498C319.153 104.687 318.906 104.848 318.598 104.98C318.29 105.113 317.914 105.179 317.469 105.179ZM317.648 104.125C318.112 104.125 318.504 104.034 318.822 103.852C319.143 103.669 319.385 103.434 319.548 103.146C319.713 102.857 319.796 102.554 319.796 102.236V101.162C319.746 101.222 319.637 101.276 319.468 101.326C319.302 101.372 319.11 101.414 318.891 101.45C318.676 101.483 318.465 101.513 318.26 101.54C318.058 101.563 317.894 101.583 317.768 101.599C317.463 101.639 317.178 101.704 316.913 101.793C316.651 101.879 316.439 102.01 316.276 102.186C316.117 102.358 316.038 102.594 316.038 102.892C316.038 103.3 316.188 103.608 316.49 103.817C316.795 104.022 317.181 104.125 317.648 104.125ZM323.27 105V94.8182H324.443V98.5767H324.543C324.629 98.4441 324.748 98.2751 324.901 98.0696C325.057 97.8608 325.279 97.6752 325.567 97.5128C325.859 97.3471 326.253 97.2642 326.75 97.2642C327.393 97.2642 327.96 97.425 328.45 97.7464C328.941 98.0679 329.324 98.5237 329.599 99.1136C329.874 99.7036 330.012 100.4 330.012 101.202C330.012 102.01 329.874 102.711 329.599 103.305C329.324 103.895 328.943 104.352 328.455 104.677C327.968 104.998 327.406 105.159 326.77 105.159C326.28 105.159 325.887 105.078 325.592 104.915C325.297 104.75 325.07 104.562 324.911 104.354C324.752 104.142 324.629 103.966 324.543 103.827H324.404V105H323.27ZM324.423 101.182C324.423 101.759 324.508 102.267 324.677 102.708C324.846 103.146 325.093 103.489 325.418 103.737C325.743 103.982 326.14 104.105 326.611 104.105C327.102 104.105 327.511 103.976 327.839 103.717C328.17 103.455 328.419 103.104 328.585 102.663C328.754 102.219 328.838 101.725 328.838 101.182C328.838 100.645 328.755 100.161 328.59 99.7301C328.427 99.2959 328.18 98.9529 327.849 98.701C327.521 98.4458 327.108 98.3182 326.611 98.3182C326.134 98.3182 325.733 98.4392 325.408 98.6811C325.083 98.9197 324.838 99.2545 324.672 99.6854C324.506 100.113 324.423 100.612 324.423 101.182ZM335.008 105.159C334.272 105.159 333.637 104.997 333.104 104.672C332.574 104.344 332.164 103.886 331.876 103.3C331.591 102.71 331.448 102.024 331.448 101.241C331.448 100.459 331.591 99.7699 331.876 99.1733C332.164 98.5734 332.565 98.1061 333.079 97.7713C333.596 97.4332 334.199 97.2642 334.889 97.2642C335.286 97.2642 335.679 97.3305 336.067 97.4631C336.455 97.5956 336.808 97.8111 337.126 98.1094C337.444 98.4044 337.698 98.7955 337.887 99.2827C338.075 99.7699 338.17 100.37 338.17 101.082V101.58H332.284V100.565H336.977C336.977 100.134 336.891 99.75 336.718 99.4119C336.549 99.0739 336.307 98.8071 335.992 98.6115C335.681 98.416 335.313 98.3182 334.889 98.3182C334.421 98.3182 334.017 98.4342 333.676 98.6662C333.338 98.8949 333.077 99.1932 332.895 99.5611C332.713 99.929 332.622 100.323 332.622 100.744V101.42C332.622 101.997 332.721 102.486 332.92 102.887C333.122 103.285 333.402 103.588 333.76 103.797C334.118 104.002 334.534 104.105 335.008 104.105C335.316 104.105 335.595 104.062 335.843 103.976C336.095 103.886 336.312 103.754 336.494 103.578C336.677 103.399 336.818 103.177 336.917 102.912L338.051 103.23C337.931 103.615 337.731 103.953 337.449 104.244C337.167 104.533 336.819 104.758 336.405 104.92C335.991 105.08 335.525 105.159 335.008 105.159ZM341.128 94.8182V105H339.955V94.8182H341.128Z" fill="white" fill-opacity="0.95"/>
</svg>
