<svg width="250" height="36" viewBox="0 0 250 36" fill="none" xmlns="http://www.w3.org/2000/svg">
<g clip-path="url(#clip0_2893_27257)">
<rect width="250" height="8" fill="#8F8F8F"/>
<rect width="187.5" height="8" fill="#3492EB"/>
</g>
<path d="M1.23295 31V20.8182H2.46591V25.3523H7.89489V20.8182H9.12784V31H7.89489V26.446H2.46591V31H1.23295ZM14.6388 31.1591C13.9031 31.1591 13.2683 30.9967 12.7347 30.6719C12.2044 30.3438 11.7951 29.8864 11.5067 29.2997C11.2217 28.7098 11.0792 28.0237 11.0792 27.2415C11.0792 26.4593 11.2217 25.7699 11.5067 25.1733C11.7951 24.5734 12.1961 24.1061 12.7099 23.7713C13.2269 23.4332 13.8301 23.2642 14.5195 23.2642C14.9173 23.2642 15.31 23.3305 15.6978 23.4631C16.0856 23.5956 16.4386 23.8111 16.7567 24.1094C17.0749 24.4044 17.3285 24.7955 17.5174 25.2827C17.7063 25.7699 17.8008 26.3698 17.8008 27.0824V27.5795H11.9144V26.5653H16.6076C16.6076 26.1345 16.5214 25.75 16.3491 25.4119C16.18 25.0739 15.9381 24.8071 15.6232 24.6115C15.3117 24.416 14.9438 24.3182 14.5195 24.3182C14.0522 24.3182 13.6478 24.4342 13.3065 24.6662C12.9684 24.8949 12.7082 25.1932 12.5259 25.5611C12.3436 25.929 12.2525 26.3234 12.2525 26.7443V27.4205C12.2525 27.9972 12.3519 28.486 12.5508 28.8871C12.753 29.2848 13.033 29.5881 13.391 29.7969C13.7489 30.0024 14.1649 30.1051 14.6388 30.1051C14.9471 30.1051 15.2255 30.062 15.4741 29.9759C15.726 29.8864 15.9431 29.7538 16.1254 29.5781C16.3076 29.3991 16.4485 29.1771 16.5479 28.9119L17.6815 29.2301C17.5621 29.6146 17.3616 29.9527 17.0799 30.2443C16.7982 30.5327 16.4502 30.758 16.0359 30.9205C15.6216 31.0795 15.1559 31.1591 14.6388 31.1591ZM20.7589 20.8182V31H19.5856V20.8182H20.7589ZM22.9078 33.8636V23.3636H24.0414V24.5767H24.1806C24.2667 24.4441 24.3861 24.2751 24.5385 24.0696C24.6943 23.8608 24.9164 23.6752 25.2047 23.5128C25.4964 23.3471 25.8908 23.2642 26.388 23.2642C27.031 23.2642 27.5977 23.425 28.0882 23.7464C28.5788 24.0679 28.9616 24.5237 29.2367 25.1136C29.5118 25.7036 29.6493 26.3996 29.6493 27.2017C29.6493 28.0104 29.5118 28.7114 29.2367 29.3047C28.9616 29.8946 28.5804 30.352 28.0932 30.6768C27.606 30.9983 27.0442 31.1591 26.4078 31.1591C25.9173 31.1591 25.5246 31.0779 25.2296 30.9155C24.9346 30.7498 24.7076 30.5625 24.5485 30.3537C24.3894 30.1416 24.2667 29.9659 24.1806 29.8267H24.0811V33.8636H22.9078ZM24.0613 27.1818C24.0613 27.7585 24.1458 28.2673 24.3148 28.7081C24.4838 29.1456 24.7308 29.4886 25.0556 29.7372C25.3804 29.9825 25.7781 30.1051 26.2488 30.1051C26.7393 30.1051 27.1486 29.9759 27.4767 29.7173C27.8082 29.4555 28.0568 29.1042 28.2225 28.6634C28.3915 28.2192 28.476 27.7254 28.476 27.1818C28.476 26.6449 28.3932 26.161 28.2275 25.7301C28.065 25.2959 27.8181 24.9529 27.4867 24.701C27.1586 24.4458 26.7459 24.3182 26.2488 24.3182C25.7715 24.3182 25.3704 24.4392 25.0456 24.6811C24.7208 24.9197 24.4756 25.2545 24.3098 25.6854C24.1441 26.1129 24.0613 26.6117 24.0613 27.1818ZM34.6408 31.1591C33.905 31.1591 33.2703 30.9967 32.7367 30.6719C32.2064 30.3438 31.7971 29.8864 31.5087 29.2997C31.2237 28.7098 31.0811 28.0237 31.0811 27.2415C31.0811 26.4593 31.2237 25.7699 31.5087 25.1733C31.7971 24.5734 32.1981 24.1061 32.7118 23.7713C33.2289 23.4332 33.8321 23.2642 34.5215 23.2642C34.9192 23.2642 35.312 23.3305 35.6998 23.4631C36.0875 23.5956 36.4405 23.8111 36.7587 24.1094C37.0769 24.4044 37.3304 24.7955 37.5194 25.2827C37.7083 25.7699 37.8027 26.3698 37.8027 27.0824V27.5795H31.9164V26.5653H36.6096C36.6096 26.1345 36.5234 25.75 36.351 25.4119C36.182 25.0739 35.94 24.8071 35.6252 24.6115C35.3136 24.416 34.9457 24.3182 34.5215 24.3182C34.0542 24.3182 33.6498 24.4342 33.3084 24.6662C32.9703 24.8949 32.7102 25.1932 32.5279 25.5611C32.3456 25.929 32.2544 26.3234 32.2544 26.7443V27.4205C32.2544 27.9972 32.3539 28.486 32.5527 28.8871C32.7549 29.2848 33.035 29.5881 33.3929 29.7969C33.7509 30.0024 34.1668 30.1051 34.6408 30.1051C34.949 30.1051 35.2275 30.062 35.476 29.9759C35.7279 29.8864 35.945 29.7538 36.1273 29.5781C36.3096 29.3991 36.4505 29.1771 36.5499 28.9119L37.6834 29.2301C37.5641 29.6146 37.3636 29.9527 37.0819 30.2443C36.8001 30.5327 36.4521 30.758 36.0378 30.9205C35.6235 31.0795 35.1578 31.1591 34.6408 31.1591ZM39.5875 31V23.3636H40.7211V24.517H40.8006C40.9398 24.1392 41.1917 23.8326 41.5563 23.5973C41.9209 23.362 42.3319 23.2443 42.7892 23.2443C42.8754 23.2443 42.9831 23.246 43.1124 23.2493C43.2417 23.2526 43.3394 23.2576 43.4057 23.2642V24.4574C43.3659 24.4474 43.2748 24.4325 43.1323 24.4126C42.9931 24.3894 42.8456 24.3778 42.6898 24.3778C42.3186 24.3778 41.9872 24.4557 41.6955 24.6115C41.4071 24.764 41.1784 24.9761 41.0094 25.2479C40.8437 25.5163 40.7608 25.8229 40.7608 26.1676V31H39.5875ZM52.055 23.3636V24.358H48.0977V23.3636H52.055ZM49.2511 21.5341H50.4244V28.8125C50.4244 29.1439 50.4724 29.3925 50.5685 29.5582C50.668 29.7206 50.7939 29.83 50.9464 29.8864C51.1022 29.9394 51.2662 29.9659 51.4386 29.9659C51.5678 29.9659 51.6739 29.9593 51.7567 29.946C51.8396 29.9295 51.9059 29.9162 51.9556 29.9062L52.1942 30.9602C52.1147 30.9901 52.0037 31.0199 51.8612 31.0497C51.7186 31.0829 51.538 31.0994 51.3192 31.0994C50.9878 31.0994 50.663 31.0282 50.3448 30.8857C50.0299 30.7431 49.7681 30.526 49.5593 30.2344C49.3538 29.9427 49.2511 29.5748 49.2511 29.1307V21.5341ZM56.9396 31.1591C56.2038 31.1591 55.5691 30.9967 55.0355 30.6719C54.5052 30.3438 54.0959 29.8864 53.8075 29.2997C53.5225 28.7098 53.38 28.0237 53.38 27.2415C53.38 26.4593 53.5225 25.7699 53.8075 25.1733C54.0959 24.5734 54.4969 24.1061 55.0107 23.7713C55.5277 23.4332 56.1309 23.2642 56.8203 23.2642C57.218 23.2642 57.6108 23.3305 57.9986 23.4631C58.3864 23.5956 58.7393 23.8111 59.0575 24.1094C59.3757 24.4044 59.6293 24.7955 59.8182 25.2827C60.0071 25.7699 60.1016 26.3698 60.1016 27.0824V27.5795H54.2152V26.5653H58.9084C58.9084 26.1345 58.8222 25.75 58.6499 25.4119C58.4808 25.0739 58.2389 24.8071 57.924 24.6115C57.6125 24.416 57.2446 24.3182 56.8203 24.3182C56.353 24.3182 55.9486 24.4342 55.6072 24.6662C55.2692 24.8949 55.009 25.1932 54.8267 25.5611C54.6444 25.929 54.5533 26.3234 54.5533 26.7443V27.4205C54.5533 27.9972 54.6527 28.486 54.8516 28.8871C55.0537 29.2848 55.3338 29.5881 55.6918 29.7969C56.0497 30.0024 56.4657 30.1051 56.9396 30.1051C57.2479 30.1051 57.5263 30.062 57.7749 29.9759C58.0268 29.8864 58.2438 29.7538 58.4261 29.5781C58.6084 29.3991 58.7493 29.1771 58.8487 28.9119L59.9822 29.2301C59.8629 29.6146 59.6624 29.9527 59.3807 30.2443C59.099 30.5327 58.7509 30.758 58.3366 30.9205C57.9223 31.0795 57.4567 31.1591 56.9396 31.1591ZM62.5563 23.3636L64.3858 26.4858L66.2154 23.3636H67.5676L65.1017 27.1818L67.5676 31H66.2154L64.3858 28.0369L62.5563 31H61.204L63.6301 27.1818L61.204 23.3636H62.5563ZM72.5629 23.3636V24.358H68.6055V23.3636H72.5629ZM69.7589 21.5341H70.9322V28.8125C70.9322 29.1439 70.9802 29.3925 71.0763 29.5582C71.1758 29.7206 71.3017 29.83 71.4542 29.8864C71.61 29.9394 71.774 29.9659 71.9464 29.9659C72.0756 29.9659 72.1817 29.9593 72.2646 29.946C72.3474 29.9295 72.4137 29.9162 72.4634 29.9062L72.7021 30.9602C72.6225 30.9901 72.5115 31.0199 72.369 31.0497C72.2264 31.0829 72.0458 31.0994 71.8271 31.0994C71.4956 31.0994 71.1708 31.0282 70.8526 30.8857C70.5378 30.7431 70.2759 30.526 70.0671 30.2344C69.8616 29.9427 69.7589 29.5748 69.7589 29.1307V21.5341Z" fill="white" fill-opacity="0.7"/>
<defs>
<clipPath id="clip0_2893_27257">
<rect width="250" height="8" rx="4" fill="white"/>
</clipPath>
</defs>
</svg>
