<svg width="60" height="20" viewBox="0 0 60 20" fill="none" xmlns="http://www.w3.org/2000/svg">
<path d="M15 10C15 13.866 11.866 17 8 17C4.13401 17 1 13.866 1 10C1 6.13401 4.13401 3 8 3C11.866 3 15 6.13401 15 10Z" stroke="#64B4FA" stroke-width="2"/>
<g clip-path="url(#clip0_2893_36192)">
<path d="M25.2681 15V4.81818H26.5011V13.9062H31.234V15H25.2681ZM35.2312 15.179C34.7473 15.179 34.3081 15.0878 33.9137 14.9055C33.5193 14.7199 33.2061 14.4531 32.9741 14.1051C32.7421 13.7538 32.6261 13.3295 32.6261 12.8324C32.6261 12.3949 32.7122 12.0402 32.8846 11.7685C33.0569 11.4934 33.2873 11.2779 33.5756 11.1222C33.864 10.9664 34.1822 10.8504 34.5302 10.7741C34.8815 10.6946 35.2345 10.6316 35.5891 10.5852C36.0531 10.5256 36.4293 10.4808 36.7177 10.451C37.0094 10.4179 37.2215 10.3632 37.354 10.2869C37.4899 10.2107 37.5579 10.0781 37.5579 9.8892V9.84943C37.5579 9.3589 37.4237 8.97775 37.1552 8.70597C36.89 8.43419 36.4873 8.2983 35.9471 8.2983C35.387 8.2983 34.9478 8.42093 34.6296 8.66619C34.3114 8.91146 34.0877 9.1733 33.9585 9.4517L32.8448 9.05398C33.0437 8.58996 33.3088 8.22869 33.6403 7.97017C33.975 7.70833 34.3396 7.52604 34.734 7.4233C35.1317 7.31723 35.5228 7.2642 35.9073 7.2642C36.1526 7.2642 36.4343 7.29403 36.7525 7.35369C37.074 7.41004 37.3839 7.5277 37.6822 7.70668C37.9838 7.88565 38.234 8.15578 38.4329 8.51705C38.6317 8.87831 38.7312 9.36222 38.7312 9.96875V15H37.5579V13.9659H37.4982C37.4187 14.1316 37.2861 14.3089 37.1005 14.4979C36.9149 14.6868 36.668 14.8475 36.3597 14.9801C36.0515 15.1127 35.6753 15.179 35.2312 15.179ZM35.4102 14.125C35.8742 14.125 36.2653 14.0339 36.5835 13.8516C36.9049 13.6693 37.1469 13.4339 37.3093 13.1456C37.475 12.8572 37.5579 12.554 37.5579 12.2358V11.1619C37.5082 11.2216 37.3988 11.2763 37.2298 11.326C37.064 11.3724 36.8718 11.4138 36.6531 11.4503C36.4376 11.4834 36.2272 11.5133 36.0217 11.5398C35.8195 11.563 35.6554 11.5829 35.5295 11.5994C35.2246 11.6392 34.9395 11.7038 34.6744 11.7933C34.4125 11.8795 34.2004 12.0104 34.038 12.1861C33.8789 12.3584 33.7994 12.5937 33.7994 12.892C33.7994 13.2997 33.9502 13.608 34.2518 13.8168C34.5567 14.0223 34.9428 14.125 35.4102 14.125ZM41.0318 15V4.81818H42.2051V8.5767H42.3045C42.3907 8.44413 42.51 8.27509 42.6625 8.0696C42.8182 7.8608 43.0403 7.67519 43.3287 7.51278C43.6203 7.34706 44.0147 7.2642 44.5119 7.2642C45.1549 7.2642 45.7217 7.42495 46.2122 7.74645C46.7027 8.06794 47.0855 8.52367 47.3606 9.11364C47.6357 9.7036 47.7733 10.3996 47.7733 11.2017C47.7733 12.0104 47.6357 12.7114 47.3606 13.3047C47.0855 13.8946 46.7044 14.352 46.2172 14.6768C45.7299 14.9983 45.1681 15.1591 44.5318 15.1591C44.0413 15.1591 43.6485 15.0779 43.3535 14.9155C43.0585 14.7498 42.8315 14.5625 42.6724 14.3537C42.5133 14.1416 42.3907 13.9659 42.3045 13.8267H42.1653V15H41.0318ZM42.1852 11.1818C42.1852 11.7585 42.2697 12.2673 42.4387 12.7081C42.6078 13.1456 42.8547 13.4886 43.1795 13.7372C43.5043 13.9825 43.902 14.1051 44.3727 14.1051C44.8632 14.1051 45.2725 13.9759 45.6007 13.7173C45.9321 13.4555 46.1807 13.1042 46.3464 12.6634C46.5154 12.2192 46.6 11.7254 46.6 11.1818C46.6 10.6449 46.5171 10.161 46.3514 9.73011C46.189 9.29593 45.9421 8.95289 45.6106 8.70099C45.2825 8.44579 44.8699 8.31818 44.3727 8.31818C43.8954 8.31818 43.4944 8.43916 43.1696 8.68111C42.8448 8.91974 42.5995 9.2545 42.4338 9.68537C42.2681 10.1129 42.1852 10.6117 42.1852 11.1818ZM52.7697 15.1591C52.0339 15.1591 51.3992 14.9967 50.8656 14.6719C50.3353 14.3438 49.926 13.8864 49.6376 13.2997C49.3526 12.7098 49.21 12.0237 49.21 11.2415C49.21 10.4593 49.3526 9.76989 49.6376 9.1733C49.926 8.57339 50.327 8.10606 50.8407 7.77131C51.3578 7.43324 51.961 7.2642 52.6504 7.2642C53.0481 7.2642 53.4409 7.33049 53.8287 7.46307C54.2164 7.59564 54.5694 7.81108 54.8876 8.10938C55.2058 8.40436 55.4593 8.79545 55.6483 9.28267C55.8372 9.76989 55.9316 10.3698 55.9316 11.0824V11.5795H50.0453V10.5653H54.7385C54.7385 10.1345 54.6523 9.75 54.4799 9.41193C54.3109 9.07386 54.069 8.80705 53.7541 8.61151C53.4425 8.41596 53.0746 8.31818 52.6504 8.31818C52.1831 8.31818 51.7787 8.43419 51.4373 8.66619C51.0993 8.89489 50.8391 9.19318 50.6568 9.56108C50.4745 9.92898 50.3833 10.3234 50.3833 10.7443V11.4205C50.3833 11.9972 50.4828 12.486 50.6816 12.8871C50.8838 13.2848 51.1639 13.5881 51.5218 13.7969C51.8798 14.0024 52.2958 14.1051 52.7697 14.1051C53.0779 14.1051 53.3564 14.062 53.6049 13.9759C53.8568 13.8864 54.0739 13.7538 54.2562 13.5781C54.4385 13.3991 54.5794 13.1771 54.6788 12.9119L55.8123 13.2301C55.693 13.6146 55.4925 13.9527 55.2108 14.2443C54.929 14.5327 54.581 14.758 54.1667 14.9205C53.7524 15.0795 53.2868 15.1591 52.7697 15.1591ZM58.8897 4.81818V15H57.7164V4.81818H58.8897Z" fill="white" fill-opacity="0.7"/>
</g>
<defs>
<clipPath id="clip0_2893_36192">
<rect width="36" height="20" fill="white" transform="translate(24)"/>
</clipPath>
</defs>
</svg>
