<svg width="250" height="36" viewBox="0 0 250 36" fill="none" xmlns="http://www.w3.org/2000/svg">
<path d="M1.23295 15V4.81818H2.46591V13.9062H7.19886V15H1.23295ZM11.196 15.179C10.7121 15.179 10.273 15.0878 9.87855 14.9055C9.48414 14.7199 9.17093 14.4531 8.93892 14.1051C8.70691 13.7538 8.59091 13.3295 8.59091 12.8324C8.59091 12.3949 8.67708 12.0402 8.84943 11.7685C9.02178 11.4934 9.25213 11.2779 9.54048 11.1222C9.82884 10.9664 10.147 10.8504 10.495 10.7741C10.8464 10.6946 11.1993 10.6316 11.554 10.5852C12.018 10.5256 12.3942 10.4808 12.6825 10.451C12.9742 10.4179 13.1863 10.3632 13.3189 10.2869C13.4548 10.2107 13.5227 10.0781 13.5227 9.8892V9.84943C13.5227 9.3589 13.3885 8.97775 13.12 8.70597C12.8549 8.43419 12.4522 8.2983 11.9119 8.2983C11.3518 8.2983 10.9126 8.42093 10.5945 8.66619C10.2763 8.91146 10.0526 9.1733 9.9233 9.4517L8.80966 9.05398C9.00852 8.58996 9.27367 8.22869 9.60511 7.97017C9.93987 7.70833 10.3045 7.52604 10.6989 7.4233C11.0966 7.31723 11.4877 7.2642 11.8722 7.2642C12.1174 7.2642 12.3991 7.29403 12.7173 7.35369C13.0388 7.41004 13.3487 7.5277 13.647 7.70668C13.9486 7.88565 14.1989 8.15578 14.3977 8.51705C14.5966 8.87831 14.696 9.36222 14.696 9.96875V15H13.5227V13.9659H13.4631C13.3835 14.1316 13.2509 14.3089 13.0653 14.4979C12.8797 14.6868 12.6328 14.8475 12.3246 14.9801C12.0163 15.1127 11.6402 15.179 11.196 15.179ZM11.375 14.125C11.839 14.125 12.2301 14.0339 12.5483 13.8516C12.8698 13.6693 13.1117 13.4339 13.2741 13.1456C13.4399 12.8572 13.5227 12.554 13.5227 12.2358V11.1619C13.473 11.2216 13.3636 11.2763 13.1946 11.326C13.0289 11.3724 12.8366 11.4138 12.6179 11.4503C12.4025 11.4834 12.192 11.5133 11.9865 11.5398C11.7843 11.563 11.6203 11.5829 11.4943 11.5994C11.1894 11.6392 10.9044 11.7038 10.6392 11.7933C10.3774 11.8795 10.1652 12.0104 10.0028 12.1861C9.84375 12.3584 9.7642 12.5937 9.7642 12.892C9.7642 13.2997 9.91501 13.608 10.2166 13.8168C10.5215 14.0223 10.9077 14.125 11.375 14.125ZM16.9966 15V4.81818H18.1699V8.5767H18.2694C18.3555 8.44413 18.4748 8.27509 18.6273 8.0696C18.7831 7.8608 19.0051 7.67519 19.2935 7.51278C19.5852 7.34706 19.9796 7.2642 20.4767 7.2642C21.1197 7.2642 21.6865 7.42495 22.177 7.74645C22.6676 8.06794 23.0504 8.52367 23.3255 9.11364C23.6006 9.7036 23.7381 10.3996 23.7381 11.2017C23.7381 12.0104 23.6006 12.7114 23.3255 13.3047C23.0504 13.8946 22.6692 14.352 22.182 14.6768C21.6948 14.9983 21.133 15.1591 20.4966 15.1591C20.0061 15.1591 19.6133 15.0779 19.3184 14.9155C19.0234 14.7498 18.7963 14.5625 18.6373 14.3537C18.4782 14.1416 18.3555 13.9659 18.2694 13.8267H18.1301V15H16.9966ZM18.15 11.1818C18.15 11.7585 18.2346 12.2673 18.4036 12.7081C18.5726 13.1456 18.8195 13.4886 19.1444 13.7372C19.4692 13.9825 19.8669 14.1051 20.3375 14.1051C20.8281 14.1051 21.2374 13.9759 21.5655 13.7173C21.897 13.4555 22.1455 13.1042 22.3113 12.6634C22.4803 12.2192 22.5648 11.7254 22.5648 11.1818C22.5648 10.6449 22.4819 10.161 22.3162 9.73011C22.1538 9.29593 21.9069 8.95289 21.5755 8.70099C21.2473 8.44579 20.8347 8.31818 20.3375 8.31818C19.8603 8.31818 19.4592 8.43916 19.1344 8.68111C18.8096 8.91974 18.5643 9.2545 18.3986 9.68537C18.2329 10.1129 18.15 10.6117 18.15 11.1818ZM28.7346 15.1591C27.9988 15.1591 27.3641 14.9967 26.8304 14.6719C26.3001 14.3438 25.8908 13.8864 25.6025 13.2997C25.3174 12.7098 25.1749 12.0237 25.1749 11.2415C25.1749 10.4593 25.3174 9.76989 25.6025 9.1733C25.8908 8.57339 26.2918 8.10606 26.8056 7.77131C27.3226 7.43324 27.9258 7.2642 28.6152 7.2642C29.013 7.2642 29.4057 7.33049 29.7935 7.46307C30.1813 7.59564 30.5343 7.81108 30.8525 8.10938C31.1706 8.40436 31.4242 8.79545 31.6131 9.28267C31.802 9.76989 31.8965 10.3698 31.8965 11.0824V11.5795H26.0101V10.5653H30.7033C30.7033 10.1345 30.6171 9.75 30.4448 9.41193C30.2757 9.07386 30.0338 8.80705 29.7189 8.61151C29.4074 8.41596 29.0395 8.31818 28.6152 8.31818C28.1479 8.31818 27.7435 8.43419 27.4022 8.66619C27.0641 8.89489 26.8039 9.19318 26.6216 9.56108C26.4393 9.92898 26.3482 10.3234 26.3482 10.7443V11.4205C26.3482 11.9972 26.4476 12.486 26.6465 12.8871C26.8487 13.2848 27.1287 13.5881 27.4867 13.7969C27.8446 14.0024 28.2606 14.1051 28.7346 14.1051C29.0428 14.1051 29.3212 14.062 29.5698 13.9759C29.8217 13.8864 30.0388 13.7538 30.2211 13.5781C30.4034 13.3991 30.5442 13.1771 30.6436 12.9119L31.7772 13.2301C31.6578 13.6146 31.4573 13.9527 31.1756 14.2443C30.8939 14.5327 30.5459 14.758 30.1316 14.9205C29.7173 15.0795 29.2516 15.1591 28.7346 15.1591ZM34.8546 4.81818V15H33.6813V4.81818H34.8546Z" fill="white" fill-opacity="0.95"/>
<path d="M223.618 15L228.172 5.99148V5.91193H222.922V4.81818H229.445V5.97159L224.911 15H223.618ZM234.343 15.1392C233.76 15.1392 233.235 15.0232 232.767 14.7912C232.3 14.5592 231.925 14.241 231.644 13.8366C231.362 13.4323 231.208 12.9716 231.181 12.4545H232.374C232.421 12.9152 232.63 13.2964 233.001 13.598C233.375 13.8963 233.823 14.0455 234.343 14.0455C234.761 14.0455 235.132 13.9477 235.457 13.7521C235.785 13.5566 236.042 13.2881 236.227 12.9467C236.416 12.602 236.511 12.2126 236.511 11.7784C236.511 11.3343 236.413 10.9382 236.218 10.5902C236.025 10.2389 235.76 9.96212 235.422 9.75994C235.084 9.55776 234.698 9.45502 234.264 9.4517C233.952 9.44839 233.632 9.49645 233.304 9.59588C232.976 9.692 232.706 9.81629 232.494 9.96875L231.34 9.82955L231.957 4.81818H237.247V5.91193H232.991L232.633 8.91477H232.693C232.901 8.74905 233.163 8.61151 233.478 8.50213C233.793 8.39276 234.121 8.33807 234.463 8.33807C235.086 8.33807 235.641 8.48722 236.128 8.78551C236.619 9.08049 237.003 9.48485 237.281 9.99858C237.563 10.5123 237.704 11.099 237.704 11.7585C237.704 12.4081 237.558 12.9882 237.267 13.4986C236.978 14.0057 236.58 14.4067 236.073 14.7017C235.566 14.9934 234.99 15.1392 234.343 15.1392ZM244.869 13.0909V12.554C244.869 12.1828 244.946 11.843 245.098 11.5348C245.254 11.2232 245.479 10.9747 245.774 10.7891C246.072 10.6001 246.434 10.5057 246.858 10.5057C247.289 10.5057 247.65 10.6001 247.942 10.7891C248.233 10.9747 248.454 11.2232 248.603 11.5348C248.752 11.843 248.827 12.1828 248.827 12.554V13.0909C248.827 13.4621 248.75 13.8035 248.598 14.1151C248.449 14.4233 248.227 14.6719 247.932 14.8608C247.64 15.0464 247.282 15.1392 246.858 15.1392C246.427 15.1392 246.064 15.0464 245.769 14.8608C245.474 14.6719 245.25 14.4233 245.098 14.1151C244.946 13.8035 244.869 13.4621 244.869 13.0909ZM245.884 12.554V13.0909C245.884 13.3991 245.956 13.6759 246.102 13.9212C246.248 14.1631 246.5 14.2841 246.858 14.2841C247.206 14.2841 247.451 14.1631 247.594 13.9212C247.74 13.6759 247.812 13.3991 247.812 13.0909V12.554C247.812 12.2457 247.743 11.9706 247.604 11.7287C247.464 11.4834 247.216 11.3608 246.858 11.3608C246.51 11.3608 246.26 11.4834 246.107 11.7287C245.958 11.9706 245.884 12.2457 245.884 12.554ZM239.798 7.2642V6.72727C239.798 6.35606 239.875 6.01634 240.027 5.7081C240.183 5.39654 240.408 5.14796 240.703 4.96236C241.001 4.77344 241.363 4.67898 241.787 4.67898C242.218 4.67898 242.579 4.77344 242.871 4.96236C243.162 5.14796 243.383 5.39654 243.532 5.7081C243.681 6.01634 243.756 6.35606 243.756 6.72727V7.2642C243.756 7.63542 243.679 7.9768 243.527 8.28835C243.378 8.59659 243.156 8.84517 242.861 9.03409C242.569 9.2197 242.211 9.3125 241.787 9.3125C241.356 9.3125 240.993 9.2197 240.698 9.03409C240.403 8.84517 240.179 8.59659 240.027 8.28835C239.875 7.9768 239.798 7.63542 239.798 7.2642ZM240.812 6.72727V7.2642C240.812 7.57244 240.885 7.8492 241.031 8.09446C241.177 8.33641 241.429 8.45739 241.787 8.45739C242.135 8.45739 242.38 8.33641 242.523 8.09446C242.669 7.8492 242.741 7.57244 242.741 7.2642V6.72727C242.741 6.41903 242.672 6.14394 242.533 5.90199C242.393 5.65672 242.145 5.53409 241.787 5.53409C241.439 5.53409 241.189 5.65672 241.036 5.90199C240.887 6.14394 240.812 6.41903 240.812 6.72727ZM240.176 15L247.176 4.81818H248.31L241.31 15H240.176Z" fill="white" fill-opacity="0.95"/>
<g clip-path="url(#clip0_2893_27246)">
<rect width="250" height="8" transform="translate(0 28)" fill="#8F8F8F"/>
<rect width="187.5" height="8" transform="translate(0 28)" fill="#3492EB"/>
</g>
<defs>
<clipPath id="clip0_2893_27246">
<rect y="28" width="250" height="8" rx="4" fill="white"/>
</clipPath>
</defs>
</svg>
