<svg width="16" height="16" viewBox="0 0 16 16" fill="none" xmlns="http://www.w3.org/2000/svg">
<rect width="16" height="16" rx="8" fill="#780D13"/>
<g clip-path="url(#clip0_2893_36638)">
<path d="M13.0303 5.6056L10.3943 2.96961C10.3248 2.89973 10.2422 2.84433 10.1512 2.80662C10.0601 2.7689 9.96254 2.74961 9.86401 2.74988H6.13562C6.03725 2.74973 5.93982 2.76903 5.84894 2.80668C5.75806 2.84433 5.67552 2.89958 5.60608 2.96926L2.96863 5.60671C2.89915 5.6761 2.84407 5.75855 2.80655 5.8493C2.76903 5.94005 2.74981 6.03732 2.75 6.13552V9.86427C2.75056 10.0628 2.82939 10.2531 2.96938 10.3938L5.60609 13.0305C5.67548 13.1003 5.758 13.1556 5.8489 13.1932C5.93979 13.2309 6.03724 13.2501 6.13563 13.2499H9.86439C10.0629 13.2495 10.2533 13.1707 10.3939 13.0305L13.0299 10.3945C13.1704 10.2538 13.2496 10.0632 13.25 9.86426V6.13587C13.2494 5.93709 13.1704 5.74656 13.0303 5.6056ZM9.86438 12.4999L6.13635 12.5003L3.5 9.86427L3.49962 6.13624L6.13561 3.49989H9.864L12.5 6.13588L12.5004 9.86354L9.86438 12.4999Z" fill="white" fill-opacity="0.95"/>
<path d="M9.76514 6.23474C9.73033 6.19992 9.68899 6.17229 9.6435 6.15344C9.59801 6.13458 9.54924 6.12488 9.5 6.12488C9.45076 6.12488 9.40199 6.13458 9.3565 6.15344C9.31101 6.17229 9.26967 6.19992 9.23486 6.23474L7.99999 7.46962L6.76511 6.23474C6.73031 6.19983 6.68897 6.17211 6.64346 6.15319C6.59794 6.13426 6.54913 6.1245 6.49984 6.12446C6.45054 6.12442 6.40172 6.13409 6.35617 6.15294C6.31062 6.17178 6.26923 6.19943 6.23437 6.23428C6.19952 6.26914 6.17187 6.31053 6.15303 6.35608C6.13418 6.40163 6.12451 6.45045 6.12455 6.49975C6.12459 6.54904 6.13436 6.59785 6.15328 6.64337C6.1722 6.68888 6.19992 6.73022 6.23484 6.76502L7.46971 7.9999L6.23484 9.23477C6.19992 9.26957 6.1722 9.31091 6.15328 9.35643C6.13436 9.40195 6.12459 9.45075 6.12455 9.50004C6.12451 9.54934 6.13418 9.59816 6.15303 9.64371C6.17187 9.68926 6.19952 9.73065 6.23437 9.76551C6.26923 9.80037 6.31062 9.82801 6.35617 9.84685C6.40172 9.8657 6.45054 9.87538 6.49984 9.87533C6.54913 9.87529 6.59794 9.86553 6.64346 9.8466C6.68897 9.82768 6.73031 9.79997 6.76511 9.76505L7.99999 8.53017L9.23486 9.76505C9.26966 9.79997 9.311 9.82768 9.35652 9.8466C9.40204 9.86553 9.45084 9.87529 9.50014 9.87533C9.54943 9.87538 9.59825 9.8657 9.6438 9.84685C9.68935 9.82801 9.73074 9.80037 9.7656 9.76551C9.80046 9.73065 9.8281 9.68926 9.84694 9.64371C9.86579 9.59816 9.87547 9.54934 9.87542 9.50004C9.87538 9.45075 9.86562 9.40195 9.84669 9.35643C9.82777 9.31091 9.80006 9.26957 9.76514 9.23477L8.53026 7.9999L9.76514 6.76502C9.79997 6.73021 9.8276 6.68888 9.84645 6.64338C9.8653 6.59789 9.875 6.54913 9.875 6.49988C9.875 6.45064 9.8653 6.40188 9.84645 6.35638C9.8276 6.31089 9.79997 6.26956 9.76514 6.23474Z" fill="white" fill-opacity="0.95"/>
</g>
<defs>
<clipPath id="clip0_2893_36638">
<rect width="12" height="12" fill="white" transform="translate(2 2)"/>
</clipPath>
</defs>
</svg>
