<svg width="16" height="16" viewBox="0 0 16 16" fill="none" xmlns="http://www.w3.org/2000/svg">
<rect width="16" height="16" rx="8" fill="#1170CF"/>
<path d="M6.20003 11.075C6.1506 11.0751 6.10163 11.0654 6.05599 11.0464C6.01034 11.0274 5.96893 10.9995 5.93416 10.9644L3.23409 8.25111C3.19937 8.2162 3.17186 8.17478 3.15315 8.12924C3.13443 8.08369 3.12486 8.03491 3.125 7.98567C3.12514 7.93643 3.13497 7.88769 3.15394 7.84225C3.17291 7.79681 3.20065 7.75555 3.23556 7.72083C3.27048 7.68611 3.31189 7.65861 3.35743 7.63989C3.40298 7.62117 3.45176 7.61161 3.50101 7.61174C3.55025 7.61188 3.59898 7.62171 3.64442 7.64068C3.68986 7.65965 3.73112 7.68739 3.76584 7.7223L6.22019 10.1887L12.2561 5.01564C12.3315 4.95095 12.4296 4.9189 12.5287 4.92652C12.6278 4.93414 12.7198 4.98082 12.7845 5.05629C12.8492 5.13176 12.8812 5.22983 12.8736 5.32893C12.866 5.42803 12.8193 5.52005 12.7439 5.58473L6.44393 10.9845C6.37611 11.0429 6.28955 11.075 6.20003 11.075Z" fill="white" fill-opacity="0.95"/>
</svg>
