<svg width="1150" height="160" viewBox="0 0 1150 160" fill="none" xmlns="http://www.w3.org/2000/svg">
<rect width="1150" height="160" rx="16" fill="#1A1A1A"/>
<path d="M603.893 82.2224C603.602 82.2226 603.312 82.1652 603.043 82.0536C602.773 81.942 602.528 81.7783 602.322 81.5719C602.115 81.3654 601.951 81.1204 601.84 80.8506C601.728 80.5809 601.671 80.2918 601.671 79.9999C601.671 85.2749 600.107 90.4314 597.176 94.8174C594.245 99.2033 590.08 102.622 585.207 104.64C580.333 106.659 574.971 107.187 569.797 106.158C564.623 105.129 559.871 102.589 556.141 98.8589C552.411 95.129 549.871 90.3767 548.842 85.2031C547.813 80.0295 548.341 74.6669 550.36 69.7934C552.378 64.92 555.797 60.7546 560.183 57.824C564.569 54.8934 569.725 53.3292 575 53.3292C574.411 53.3292 573.845 53.095 573.429 52.6782C573.012 52.2614 572.778 51.6961 572.778 51.1066C572.778 50.5171 573.012 49.9518 573.429 49.535C573.845 49.1182 574.411 48.884 575 48.884C568.846 48.884 562.83 50.7089 557.713 54.128C552.596 57.5471 548.608 62.4067 546.253 68.0924C543.898 73.778 543.282 80.0344 544.482 86.0703C545.683 92.1062 548.646 97.6505 552.998 102.002C557.35 106.354 562.894 109.317 568.93 110.518C574.966 111.718 581.222 111.102 586.908 108.747C592.593 106.392 597.453 102.404 600.872 97.2869C604.291 92.1699 606.116 86.154 606.116 79.9999C606.116 80.2918 606.059 80.5809 605.947 80.8506C605.836 81.1204 605.672 81.3654 605.465 81.5719C605.259 81.7783 605.014 81.942 604.744 82.0536C604.475 82.1652 604.185 82.2226 603.893 82.2224Z" fill="white" fill-opacity="0.2"/>
<path d="M572.778 51.1066C572.777 51.3985 572.835 51.6876 572.946 51.9573C573.058 52.2271 573.222 52.4721 573.428 52.6786C573.635 52.885 573.88 53.0487 574.149 53.1603C574.419 53.272 574.708 53.3293 575 53.3292C582.071 53.3369 588.851 56.1493 593.851 61.1494C598.851 66.1494 601.663 72.9287 601.671 79.9999C601.671 80.5893 601.905 81.1547 602.322 81.5715C602.739 81.9883 603.304 82.2224 603.894 82.2224C604.483 82.2224 605.048 81.9883 605.465 81.5715C605.882 81.1547 606.116 80.5893 606.116 79.9999C606.107 71.7503 602.826 63.8412 596.992 58.0079C591.159 52.1745 583.25 48.8933 575 48.884C574.708 48.8839 574.419 48.9412 574.149 49.0529C573.88 49.1645 573.635 49.3282 573.428 49.5346C573.222 49.741 573.058 49.9861 572.946 50.2559C572.835 50.5256 572.777 50.8147 572.778 51.1066Z" fill="#3492EB"/>
<path d="M603.893 77.7874C603.601 77.7872 603.312 77.8446 603.043 77.9562C602.773 78.0678 602.528 78.2315 602.321 78.4379C602.115 78.6444 601.951 78.8894 601.84 79.1592C601.728 79.4289 601.671 79.718 601.671 80.0099C601.663 87.0811 598.851 93.8604 593.851 98.8604C588.85 103.861 582.071 106.673 575 106.681C574.411 106.681 573.845 106.915 573.428 107.332C573.012 107.748 572.777 108.314 572.777 108.903C572.777 109.493 573.012 110.058 573.428 110.475C573.845 110.892 574.411 111.126 575 111.126C583.25 111.117 591.159 107.835 596.992 102.002C602.825 96.1686 606.107 88.2595 606.116 80.0099C606.116 79.718 606.059 79.4289 605.947 79.1592C605.835 78.8894 605.672 78.6444 605.465 78.4379C605.259 78.2315 605.014 78.0678 604.744 77.9562C604.474 77.8446 604.185 77.7872 603.893 77.7874Z" fill="#3492EB"/>
<path d="M546.126 77.7874C546.418 77.7872 546.707 77.8446 546.977 77.9562C547.247 78.0678 547.492 78.2315 547.698 78.4379C547.905 78.6444 548.069 78.8894 548.18 79.1592C548.292 79.4289 548.349 79.718 548.349 80.0099C548.357 87.0811 551.169 93.8604 556.169 98.8604C561.169 103.861 567.949 106.673 575.02 106.681C575.609 106.681 576.175 106.915 576.591 107.332C577.008 107.748 577.242 108.314 577.242 108.903C577.242 109.493 577.008 110.058 576.591 110.475C576.175 110.892 575.609 111.126 575.02 111.126C566.77 111.117 558.861 107.835 553.028 102.002C547.194 96.1686 543.913 88.2595 543.904 80.0099C543.904 79.718 543.961 79.4289 544.073 79.1592C544.184 78.8894 544.348 78.6444 544.555 78.4379C544.761 78.2315 545.006 78.0678 545.276 77.9562C545.545 77.8446 545.835 77.7872 546.126 77.7874Z" fill="#3492EB"/>
</svg>
