<svg width="362" height="240" viewBox="0 0 362 240" fill="none" xmlns="http://www.w3.org/2000/svg">
<rect width="362" height="240" rx="16" fill="#1A1A1A"/>
<rect x="116" y="100" width="130" height="40" rx="20" fill="white" fill-opacity="0.95"/>
<path d="M147.281 124.397C148.307 123.162 148.868 121.606 148.868 120C148.868 118.394 148.307 116.839 147.281 115.603L150.567 112.317C150.626 112.259 150.673 112.19 150.706 112.114C150.738 112.038 150.755 111.956 150.756 111.873C150.756 111.791 150.74 111.709 150.709 111.632C150.677 111.555 150.631 111.486 150.573 111.427C150.514 111.369 150.444 111.323 150.368 111.291C150.291 111.26 150.209 111.244 150.127 111.244C150.044 111.245 149.962 111.262 149.886 111.294C149.81 111.327 149.741 111.374 149.683 111.433L146.398 114.718C145.164 113.689 143.607 113.125 142 113.125C140.393 113.125 138.836 113.689 137.602 114.718L134.317 111.433C134.199 111.318 134.041 111.255 133.877 111.256C133.712 111.257 133.555 111.322 133.439 111.439C133.322 111.555 133.257 111.712 133.256 111.877C133.255 112.041 133.318 112.199 133.433 112.317L136.719 115.603C135.693 116.838 135.131 118.394 135.131 120C135.131 121.606 135.693 123.162 136.719 124.397L133.433 127.683C133.374 127.741 133.327 127.81 133.294 127.886C133.262 127.962 133.245 128.044 133.244 128.127C133.244 128.209 133.26 128.291 133.291 128.368C133.323 128.444 133.369 128.514 133.427 128.573C133.486 128.631 133.555 128.677 133.632 128.709C133.709 128.74 133.791 128.756 133.873 128.756C133.956 128.755 134.038 128.738 134.114 128.706C134.19 128.673 134.259 128.626 134.317 128.567L137.602 125.282C138.836 126.311 140.393 126.875 142 126.875C143.607 126.875 145.164 126.311 146.398 125.282L149.683 128.567C149.801 128.682 149.959 128.745 150.123 128.744C150.288 128.743 150.445 128.678 150.561 128.561C150.678 128.445 150.743 128.288 150.744 128.123C150.745 127.959 150.682 127.801 150.567 127.683L147.281 124.397ZM146.393 123.51L142.884 120L146.393 116.49C147.188 117.488 147.62 118.725 147.62 120C147.62 121.275 147.188 122.512 146.393 123.51ZM142 114.375C143.276 114.372 144.515 114.807 145.51 115.607L142 119.116L138.49 115.607C139.485 114.807 140.724 114.372 142 114.375ZM137.606 116.49L141.116 120L137.606 123.51C136.812 122.512 136.379 121.275 136.379 120C136.379 118.725 136.812 117.488 137.606 116.49ZM142 125.625C140.724 125.628 139.485 125.193 138.49 124.393L142 120.884L145.51 124.393C144.515 125.193 143.276 125.628 142 125.625Z" fill="black" fill-opacity="0.95"/>
<path d="M161.513 126V114.364H163.268V124.489H168.541V126H161.513ZM172.947 126.193C172.394 126.193 171.894 126.091 171.447 125.886C171 125.678 170.646 125.377 170.385 124.983C170.127 124.589 169.999 124.106 169.999 123.534C169.999 123.042 170.093 122.636 170.283 122.318C170.472 122 170.728 121.748 171.05 121.562C171.372 121.377 171.732 121.237 172.129 121.142C172.527 121.047 172.932 120.975 173.345 120.926C173.868 120.866 174.292 120.816 174.618 120.778C174.944 120.737 175.18 120.67 175.328 120.58C175.476 120.489 175.55 120.341 175.55 120.136V120.097C175.55 119.6 175.41 119.216 175.129 118.943C174.853 118.67 174.44 118.534 173.891 118.534C173.319 118.534 172.868 118.661 172.538 118.915C172.213 119.165 171.987 119.443 171.862 119.75L170.266 119.386C170.455 118.856 170.732 118.428 171.095 118.102C171.463 117.773 171.885 117.534 172.362 117.386C172.839 117.235 173.341 117.159 173.868 117.159C174.216 117.159 174.586 117.201 174.976 117.284C175.37 117.364 175.737 117.511 176.078 117.727C176.423 117.943 176.705 118.252 176.925 118.653C177.144 119.051 177.254 119.568 177.254 120.205V126H175.595V124.807H175.527C175.417 125.027 175.252 125.242 175.033 125.455C174.813 125.667 174.531 125.843 174.186 125.983C173.841 126.123 173.429 126.193 172.947 126.193ZM173.317 124.83C173.786 124.83 174.188 124.737 174.521 124.551C174.858 124.366 175.114 124.123 175.288 123.824C175.466 123.521 175.555 123.197 175.555 122.852V121.727C175.495 121.788 175.377 121.845 175.203 121.898C175.033 121.947 174.838 121.991 174.618 122.028C174.398 122.062 174.184 122.095 173.976 122.125C173.768 122.152 173.593 122.174 173.453 122.193C173.124 122.235 172.822 122.305 172.55 122.403C172.281 122.502 172.065 122.644 171.902 122.83C171.743 123.011 171.663 123.254 171.663 123.557C171.663 123.977 171.819 124.295 172.129 124.511C172.44 124.723 172.836 124.83 173.317 124.83ZM179.653 126V114.364H181.352V118.688H181.455C181.553 118.506 181.695 118.295 181.881 118.057C182.066 117.818 182.324 117.61 182.653 117.432C182.983 117.25 183.419 117.159 183.96 117.159C184.665 117.159 185.294 117.337 185.847 117.693C186.4 118.049 186.833 118.562 187.148 119.233C187.466 119.903 187.625 120.71 187.625 121.653C187.625 122.597 187.468 123.405 187.153 124.08C186.839 124.75 186.407 125.267 185.858 125.631C185.309 125.991 184.682 126.17 183.977 126.17C183.447 126.17 183.013 126.081 182.676 125.903C182.343 125.725 182.081 125.517 181.892 125.278C181.703 125.04 181.557 124.828 181.455 124.642H181.312V126H179.653ZM181.318 121.636C181.318 122.25 181.407 122.788 181.585 123.25C181.763 123.712 182.021 124.074 182.358 124.335C182.695 124.593 183.108 124.722 183.597 124.722C184.104 124.722 184.528 124.587 184.869 124.318C185.21 124.045 185.468 123.676 185.642 123.21C185.82 122.744 185.909 122.22 185.909 121.636C185.909 121.061 185.822 120.544 185.648 120.085C185.477 119.627 185.22 119.265 184.875 119C184.534 118.735 184.108 118.602 183.597 118.602C183.104 118.602 182.688 118.729 182.347 118.983C182.009 119.237 181.754 119.591 181.58 120.045C181.405 120.5 181.318 121.03 181.318 121.636ZM193.294 126.176C192.434 126.176 191.694 125.992 191.072 125.625C190.455 125.254 189.978 124.733 189.641 124.062C189.307 123.388 189.141 122.598 189.141 121.693C189.141 120.799 189.307 120.011 189.641 119.33C189.978 118.648 190.447 118.116 191.05 117.733C191.656 117.35 192.364 117.159 193.175 117.159C193.667 117.159 194.144 117.241 194.607 117.403C195.069 117.566 195.483 117.822 195.851 118.17C196.218 118.519 196.508 118.972 196.72 119.528C196.932 120.081 197.038 120.754 197.038 121.545V122.148H190.101V120.875H195.374C195.374 120.428 195.283 120.032 195.101 119.688C194.919 119.339 194.663 119.064 194.334 118.864C194.008 118.663 193.625 118.562 193.186 118.562C192.709 118.562 192.292 118.68 191.936 118.915C191.584 119.146 191.311 119.449 191.118 119.824C190.929 120.195 190.834 120.598 190.834 121.034V122.028C190.834 122.612 190.936 123.108 191.141 123.517C191.349 123.926 191.639 124.239 192.01 124.455C192.381 124.667 192.815 124.773 193.311 124.773C193.633 124.773 193.927 124.727 194.192 124.636C194.457 124.542 194.686 124.402 194.879 124.216C195.072 124.03 195.22 123.801 195.322 123.528L196.93 123.818C196.802 124.292 196.571 124.706 196.237 125.062C195.908 125.415 195.493 125.689 194.993 125.886C194.497 126.08 193.93 126.176 193.294 126.176ZM200.622 114.364V126H198.923V114.364H200.622Z" fill="black" fill-opacity="0.95"/>
<path d="M225.281 124.397C226.307 123.162 226.868 121.606 226.868 120C226.868 118.394 226.307 116.839 225.281 115.603L228.567 112.317C228.626 112.259 228.673 112.19 228.706 112.114C228.738 112.038 228.755 111.956 228.756 111.873C228.756 111.791 228.74 111.709 228.709 111.632C228.677 111.555 228.631 111.486 228.573 111.427C228.514 111.369 228.444 111.323 228.368 111.291C228.291 111.26 228.209 111.244 228.127 111.244C228.044 111.245 227.962 111.262 227.886 111.294C227.81 111.327 227.741 111.374 227.683 111.433L224.398 114.718C223.164 113.689 221.607 113.125 220 113.125C218.393 113.125 216.836 113.689 215.602 114.718L212.317 111.433C212.199 111.318 212.041 111.255 211.877 111.256C211.712 111.257 211.555 111.322 211.439 111.439C211.322 111.555 211.257 111.712 211.256 111.877C211.255 112.041 211.318 112.199 211.433 112.317L214.719 115.603C213.693 116.838 213.131 118.394 213.131 120C213.131 121.606 213.693 123.162 214.719 124.397L211.433 127.683C211.374 127.741 211.327 127.81 211.294 127.886C211.262 127.962 211.245 128.044 211.244 128.127C211.244 128.209 211.26 128.291 211.291 128.368C211.323 128.444 211.369 128.514 211.427 128.573C211.486 128.631 211.555 128.677 211.632 128.709C211.709 128.74 211.791 128.756 211.873 128.756C211.956 128.755 212.038 128.738 212.114 128.706C212.19 128.673 212.259 128.626 212.317 128.567L215.602 125.282C216.836 126.311 218.393 126.875 220 126.875C221.607 126.875 223.164 126.311 224.398 125.282L227.683 128.567C227.801 128.682 227.959 128.745 228.123 128.744C228.288 128.743 228.445 128.678 228.561 128.561C228.678 128.445 228.743 128.288 228.744 128.123C228.745 127.959 228.682 127.801 228.567 127.683L225.281 124.397ZM224.393 123.51L220.884 120L224.393 116.49C225.188 117.488 225.62 118.725 225.62 120C225.62 121.275 225.188 122.512 224.393 123.51ZM220 114.375C221.276 114.372 222.515 114.807 223.51 115.607L220 119.116L216.49 115.607C217.485 114.807 218.724 114.372 220 114.375ZM215.606 116.49L219.116 120L215.606 123.51C214.812 122.512 214.379 121.275 214.379 120C214.379 118.725 214.812 117.488 215.606 116.49ZM220 125.625C218.724 125.628 217.485 125.193 216.49 124.393L220 120.884L223.51 124.393C222.515 125.193 221.276 125.628 220 125.625Z" fill="black" fill-opacity="0.95"/>
</svg>
