<svg width="362" height="240" viewBox="0 0 362 240" fill="none" xmlns="http://www.w3.org/2000/svg">
<rect width="362" height="240" rx="16" fill="#1A1A1A"/>
<rect x="151" y="112" width="16" height="16" rx="8" fill="#64B4FA"/>
<path fill-rule="evenodd" clip-rule="evenodd" d="M159 123C160.657 123 162 121.657 162 120C162 118.343 160.657 117 159 117C157.343 117 156 118.343 156 120C156 121.657 157.343 123 159 123Z" fill="black" fill-opacity="0.95"/>
<path d="M176.233 123V112.818H177.466V121.906H182.199V123H176.233ZM186.196 123.179C185.712 123.179 185.273 123.088 184.879 122.906C184.484 122.72 184.171 122.453 183.939 122.105C183.707 121.754 183.591 121.33 183.591 120.832C183.591 120.395 183.677 120.04 183.849 119.768C184.022 119.493 184.252 119.278 184.54 119.122C184.829 118.966 185.147 118.85 185.495 118.774C185.846 118.695 186.199 118.632 186.554 118.585C187.018 118.526 187.394 118.481 187.683 118.451C187.974 118.418 188.186 118.363 188.319 118.287C188.455 118.211 188.523 118.078 188.523 117.889V117.849C188.523 117.359 188.388 116.978 188.12 116.706C187.855 116.434 187.452 116.298 186.912 116.298C186.352 116.298 185.913 116.421 185.594 116.666C185.276 116.911 185.053 117.173 184.923 117.452L183.81 117.054C184.009 116.59 184.274 116.229 184.605 115.97C184.94 115.708 185.304 115.526 185.699 115.423C186.097 115.317 186.488 115.264 186.872 115.264C187.117 115.264 187.399 115.294 187.717 115.354C188.039 115.41 188.349 115.528 188.647 115.707C188.949 115.886 189.199 116.156 189.398 116.517C189.597 116.878 189.696 117.362 189.696 117.969V123H188.523V121.966H188.463C188.384 122.132 188.251 122.309 188.065 122.498C187.88 122.687 187.633 122.848 187.325 122.98C187.016 123.113 186.64 123.179 186.196 123.179ZM186.375 122.125C186.839 122.125 187.23 122.034 187.548 121.852C187.87 121.669 188.112 121.434 188.274 121.146C188.44 120.857 188.523 120.554 188.523 120.236V119.162C188.473 119.222 188.364 119.276 188.195 119.326C188.029 119.372 187.837 119.414 187.618 119.45C187.402 119.483 187.192 119.513 186.987 119.54C186.784 119.563 186.62 119.583 186.494 119.599C186.189 119.639 185.904 119.704 185.639 119.793C185.377 119.879 185.165 120.01 185.003 120.186C184.844 120.358 184.764 120.594 184.764 120.892C184.764 121.3 184.915 121.608 185.217 121.817C185.522 122.022 185.908 122.125 186.375 122.125ZM191.997 123V112.818H193.17V116.577H193.269C193.356 116.444 193.475 116.275 193.627 116.07C193.783 115.861 194.005 115.675 194.294 115.513C194.585 115.347 194.98 115.264 195.477 115.264C196.12 115.264 196.686 115.425 197.177 115.746C197.668 116.068 198.05 116.524 198.325 117.114C198.601 117.704 198.738 118.4 198.738 119.202C198.738 120.01 198.601 120.711 198.325 121.305C198.05 121.895 197.669 122.352 197.182 122.677C196.695 122.998 196.133 123.159 195.497 123.159C195.006 123.159 194.613 123.078 194.318 122.915C194.023 122.75 193.796 122.562 193.637 122.354C193.478 122.142 193.356 121.966 193.269 121.827H193.13V123H191.997ZM193.15 119.182C193.15 119.759 193.235 120.267 193.404 120.708C193.573 121.146 193.82 121.489 194.144 121.737C194.469 121.982 194.867 122.105 195.338 122.105C195.828 122.105 196.237 121.976 196.566 121.717C196.897 121.455 197.146 121.104 197.311 120.663C197.48 120.219 197.565 119.725 197.565 119.182C197.565 118.645 197.482 118.161 197.316 117.73C197.154 117.296 196.907 116.953 196.575 116.701C196.247 116.446 195.835 116.318 195.338 116.318C194.86 116.318 194.459 116.439 194.134 116.681C193.81 116.92 193.564 117.254 193.399 117.685C193.233 118.113 193.15 118.612 193.15 119.182ZM203.735 123.159C202.999 123.159 202.364 122.997 201.83 122.672C201.3 122.344 200.891 121.886 200.602 121.3C200.317 120.71 200.175 120.024 200.175 119.241C200.175 118.459 200.317 117.77 200.602 117.173C200.891 116.573 201.292 116.106 201.806 115.771C202.323 115.433 202.926 115.264 203.615 115.264C204.013 115.264 204.406 115.33 204.794 115.463C205.181 115.596 205.534 115.811 205.852 116.109C206.171 116.404 206.424 116.795 206.613 117.283C206.802 117.77 206.896 118.37 206.896 119.082V119.58H201.01V118.565H205.703C205.703 118.134 205.617 117.75 205.445 117.412C205.276 117.074 205.034 116.807 204.719 116.612C204.407 116.416 204.039 116.318 203.615 116.318C203.148 116.318 202.744 116.434 202.402 116.666C202.064 116.895 201.804 117.193 201.622 117.561C201.439 117.929 201.348 118.323 201.348 118.744V119.42C201.348 119.997 201.448 120.486 201.646 120.887C201.849 121.285 202.129 121.588 202.487 121.797C202.845 122.002 203.261 122.105 203.735 122.105C204.043 122.105 204.321 122.062 204.57 121.976C204.822 121.886 205.039 121.754 205.221 121.578C205.403 121.399 205.544 121.177 205.644 120.912L206.777 121.23C206.658 121.615 206.457 121.953 206.176 122.244C205.894 122.533 205.546 122.758 205.132 122.92C204.717 123.08 204.252 123.159 203.735 123.159ZM209.855 112.818V123H208.681V112.818H209.855Z" fill="white" fill-opacity="0.95"/>
</svg>
