<svg width="362" height="240" viewBox="0 0 362 240" fill="none" xmlns="http://www.w3.org/2000/svg">
<rect width="362" height="240" rx="16" fill="#1A1A1A"/>
<rect x="115.5" y="112" width="16" height="16" rx="2" fill="#64B4FA"/>
<path d="M121.1 124.1C121.034 124.1 120.969 124.087 120.908 124.062C120.847 124.036 120.792 123.999 120.746 123.952L117.146 120.335C117.099 120.288 117.063 120.233 117.038 120.172C117.013 120.112 117 120.047 117 119.981C117 119.915 117.014 119.85 117.039 119.79C117.064 119.729 117.101 119.674 117.148 119.628C117.194 119.581 117.249 119.545 117.31 119.52C117.371 119.495 117.436 119.482 117.502 119.482C117.567 119.482 117.632 119.496 117.693 119.521C117.753 119.546 117.808 119.583 117.855 119.63L121.127 122.918L129.175 116.021C129.276 115.935 129.406 115.892 129.539 115.902C129.671 115.912 129.793 115.974 129.88 116.075C129.966 116.176 130.009 116.306 129.998 116.439C129.988 116.571 129.926 116.693 129.825 116.78L121.425 123.979C121.335 124.057 121.22 124.1 121.1 124.1Z" fill="black" fill-opacity="0.95"/>
<path d="M148.926 118H147.693C147.62 117.645 147.493 117.334 147.31 117.065C147.131 116.797 146.913 116.571 146.654 116.389C146.399 116.204 146.116 116.064 145.804 115.972C145.492 115.879 145.168 115.832 144.83 115.832C144.213 115.832 143.655 115.988 143.154 116.3C142.657 116.611 142.261 117.07 141.966 117.677C141.674 118.283 141.528 119.027 141.528 119.909C141.528 120.791 141.674 121.535 141.966 122.141C142.261 122.748 142.657 123.207 143.154 123.518C143.655 123.83 144.213 123.986 144.83 123.986C145.168 123.986 145.492 123.939 145.804 123.847C146.116 123.754 146.399 123.616 146.654 123.434C146.913 123.248 147.131 123.021 147.31 122.753C147.493 122.481 147.62 122.17 147.693 121.818H148.926C148.833 122.339 148.664 122.804 148.419 123.215C148.174 123.626 147.869 123.976 147.504 124.264C147.14 124.549 146.73 124.766 146.276 124.915C145.826 125.065 145.343 125.139 144.83 125.139C143.961 125.139 143.189 124.927 142.513 124.503C141.837 124.079 141.305 123.475 140.917 122.693C140.529 121.911 140.335 120.983 140.335 119.909C140.335 118.835 140.529 117.907 140.917 117.125C141.305 116.343 141.837 115.74 142.513 115.315C143.189 114.891 143.961 114.679 144.83 114.679C145.343 114.679 145.826 114.754 146.276 114.903C146.73 115.052 147.14 115.271 147.504 115.559C147.869 115.844 148.174 116.192 148.419 116.603C148.664 117.011 148.833 117.476 148.926 118ZM151.933 120.406V125H150.759V114.818H151.933V118.557H152.032C152.211 118.162 152.48 117.849 152.838 117.617C153.199 117.382 153.679 117.264 154.279 117.264C154.8 117.264 155.255 117.369 155.646 117.577C156.038 117.783 156.341 118.099 156.556 118.527C156.775 118.951 156.884 119.491 156.884 120.148V125H155.711V120.227C155.711 119.621 155.554 119.152 155.239 118.82C154.927 118.486 154.495 118.318 153.941 118.318C153.557 118.318 153.212 118.399 152.907 118.562C152.606 118.724 152.367 118.961 152.191 119.273C152.019 119.584 151.933 119.962 151.933 120.406ZM162.233 125.159C161.497 125.159 160.862 124.997 160.328 124.672C159.798 124.344 159.389 123.886 159.1 123.3C158.815 122.71 158.673 122.024 158.673 121.241C158.673 120.459 158.815 119.77 159.1 119.173C159.389 118.573 159.79 118.106 160.304 117.771C160.821 117.433 161.424 117.264 162.113 117.264C162.511 117.264 162.904 117.33 163.292 117.463C163.679 117.596 164.032 117.811 164.35 118.109C164.669 118.404 164.922 118.795 165.111 119.283C165.3 119.77 165.395 120.37 165.395 121.082V121.58H159.508V120.565H164.201C164.201 120.134 164.115 119.75 163.943 119.412C163.774 119.074 163.532 118.807 163.217 118.612C162.905 118.416 162.538 118.318 162.113 118.318C161.646 118.318 161.242 118.434 160.9 118.666C160.562 118.895 160.302 119.193 160.12 119.561C159.937 119.929 159.846 120.323 159.846 120.744V121.42C159.846 121.997 159.946 122.486 160.145 122.887C160.347 123.285 160.627 123.588 160.985 123.797C161.343 124.002 161.759 124.105 162.233 124.105C162.541 124.105 162.819 124.062 163.068 123.976C163.32 123.886 163.537 123.754 163.719 123.578C163.901 123.399 164.042 123.177 164.142 122.912L165.275 123.23C165.156 123.615 164.955 123.953 164.674 124.244C164.392 124.533 164.044 124.758 163.63 124.92C163.215 125.08 162.75 125.159 162.233 125.159ZM170.282 125.159C169.566 125.159 168.949 124.99 168.432 124.652C167.915 124.314 167.517 123.848 167.239 123.255C166.961 122.662 166.821 121.984 166.821 121.222C166.821 120.446 166.964 119.762 167.249 119.168C167.537 118.572 167.938 118.106 168.452 117.771C168.969 117.433 169.572 117.264 170.262 117.264C170.799 117.264 171.283 117.364 171.713 117.562C172.144 117.761 172.497 118.04 172.772 118.398C173.047 118.756 173.218 119.173 173.284 119.651H172.111C172.022 119.303 171.823 118.994 171.515 118.726C171.21 118.454 170.799 118.318 170.282 118.318C169.824 118.318 169.423 118.437 169.078 118.676C168.737 118.911 168.47 119.245 168.278 119.675C168.089 120.103 167.995 120.605 167.995 121.182C167.995 121.772 168.087 122.286 168.273 122.723C168.462 123.161 168.727 123.5 169.069 123.742C169.413 123.984 169.818 124.105 170.282 124.105C170.587 124.105 170.863 124.052 171.112 123.946C171.36 123.84 171.571 123.688 171.743 123.489C171.916 123.29 172.038 123.051 172.111 122.773H173.284C173.218 123.223 173.054 123.629 172.792 123.991C172.534 124.349 172.191 124.634 171.763 124.846C171.339 125.055 170.845 125.159 170.282 125.159ZM176.093 122.216L176.074 120.764H176.312L179.653 117.364H181.105L177.545 120.963H177.446L176.093 122.216ZM175 125V114.818H176.173V125H175ZM179.852 125L176.869 121.222L177.704 120.406L181.343 125H179.852ZM182.774 125V114.818H183.947V118.577H184.047C184.133 118.444 184.252 118.275 184.405 118.07C184.56 117.861 184.782 117.675 185.071 117.513C185.363 117.347 185.757 117.264 186.254 117.264C186.897 117.264 187.464 117.425 187.954 117.746C188.445 118.068 188.828 118.524 189.103 119.114C189.378 119.704 189.515 120.4 189.515 121.202C189.515 122.01 189.378 122.711 189.103 123.305C188.828 123.895 188.447 124.352 187.959 124.677C187.472 124.998 186.91 125.159 186.274 125.159C185.783 125.159 185.391 125.078 185.096 124.915C184.801 124.75 184.574 124.562 184.415 124.354C184.256 124.142 184.133 123.966 184.047 123.827H183.907V125H182.774ZM183.927 121.182C183.927 121.759 184.012 122.267 184.181 122.708C184.35 123.146 184.597 123.489 184.922 123.737C185.247 123.982 185.644 124.105 186.115 124.105C186.605 124.105 187.015 123.976 187.343 123.717C187.674 123.455 187.923 123.104 188.089 122.663C188.258 122.219 188.342 121.725 188.342 121.182C188.342 120.645 188.259 120.161 188.094 119.73C187.931 119.296 187.684 118.953 187.353 118.701C187.025 118.446 186.612 118.318 186.115 118.318C185.638 118.318 185.237 118.439 184.912 118.681C184.587 118.92 184.342 119.254 184.176 119.685C184.01 120.113 183.927 120.612 183.927 121.182ZM194.412 125.159C193.723 125.159 193.118 124.995 192.598 124.667C192.081 124.339 191.676 123.88 191.385 123.29C191.096 122.7 190.952 122.01 190.952 121.222C190.952 120.426 191.096 119.732 191.385 119.138C191.676 118.545 192.081 118.085 192.598 117.756C193.118 117.428 193.723 117.264 194.412 117.264C195.102 117.264 195.705 117.428 196.222 117.756C196.742 118.085 197.147 118.545 197.435 119.138C197.727 119.732 197.873 120.426 197.873 121.222C197.873 122.01 197.727 122.7 197.435 123.29C197.147 123.88 196.742 124.339 196.222 124.667C195.705 124.995 195.102 125.159 194.412 125.159ZM194.412 124.105C194.936 124.105 195.367 123.971 195.705 123.702C196.043 123.434 196.293 123.081 196.456 122.643C196.618 122.206 196.699 121.732 196.699 121.222C196.699 120.711 196.618 120.236 196.456 119.795C196.293 119.354 196.043 118.998 195.705 118.726C195.367 118.454 194.936 118.318 194.412 118.318C193.889 118.318 193.458 118.454 193.12 118.726C192.782 118.998 192.532 119.354 192.369 119.795C192.207 120.236 192.126 120.711 192.126 121.222C192.126 121.732 192.207 122.206 192.369 122.643C192.532 123.081 192.782 123.434 193.12 123.702C193.458 123.971 193.889 124.105 194.412 124.105ZM200.224 117.364L202.054 120.486L203.883 117.364H205.236L202.77 121.182L205.236 125H203.883L202.054 122.037L200.224 125H198.872L201.298 121.182L198.872 117.364H200.224ZM211.006 125V114.818H212.239V123.906H216.972V125H211.006ZM220.969 125.179C220.486 125.179 220.046 125.088 219.652 124.906C219.258 124.72 218.944 124.453 218.712 124.105C218.48 123.754 218.364 123.33 218.364 122.832C218.364 122.395 218.451 122.04 218.623 121.768C218.795 121.493 219.026 121.278 219.314 121.122C219.602 120.966 219.92 120.85 220.268 120.774C220.62 120.695 220.973 120.632 221.327 120.585C221.791 120.526 222.168 120.481 222.456 120.451C222.748 120.418 222.96 120.363 223.092 120.287C223.228 120.211 223.296 120.078 223.296 119.889V119.849C223.296 119.359 223.162 118.978 222.893 118.706C222.628 118.434 222.226 118.298 221.685 118.298C221.125 118.298 220.686 118.421 220.368 118.666C220.05 118.911 219.826 119.173 219.697 119.452L218.583 119.054C218.782 118.59 219.047 118.229 219.379 117.97C219.713 117.708 220.078 117.526 220.472 117.423C220.87 117.317 221.261 117.264 221.646 117.264C221.891 117.264 222.173 117.294 222.491 117.354C222.812 117.41 223.122 117.528 223.42 117.707C223.722 117.886 223.972 118.156 224.171 118.517C224.37 118.878 224.469 119.362 224.469 119.969V125H223.296V123.966H223.237C223.157 124.132 223.024 124.309 222.839 124.498C222.653 124.687 222.406 124.848 222.098 124.98C221.79 125.113 221.414 125.179 220.969 125.179ZM221.148 124.125C221.612 124.125 222.004 124.034 222.322 123.852C222.643 123.669 222.885 123.434 223.048 123.146C223.213 122.857 223.296 122.554 223.296 122.236V121.162C223.246 121.222 223.137 121.276 222.968 121.326C222.802 121.372 222.61 121.414 222.391 121.45C222.176 121.483 221.965 121.513 221.76 121.54C221.558 121.563 221.394 121.583 221.268 121.599C220.963 121.639 220.678 121.704 220.413 121.793C220.151 121.879 219.939 122.01 219.776 122.186C219.617 122.358 219.538 122.594 219.538 122.892C219.538 123.3 219.688 123.608 219.99 123.817C220.295 124.022 220.681 124.125 221.148 124.125ZM226.77 125V114.818H227.943V118.577H228.043C228.129 118.444 228.248 118.275 228.401 118.07C228.557 117.861 228.779 117.675 229.067 117.513C229.359 117.347 229.753 117.264 230.25 117.264C230.893 117.264 231.46 117.425 231.95 117.746C232.441 118.068 232.824 118.524 233.099 119.114C233.374 119.704 233.512 120.4 233.512 121.202C233.512 122.01 233.374 122.711 233.099 123.305C232.824 123.895 232.443 124.352 231.955 124.677C231.468 124.998 230.906 125.159 230.27 125.159C229.78 125.159 229.387 125.078 229.092 124.915C228.797 124.75 228.57 124.562 228.411 124.354C228.252 124.142 228.129 123.966 228.043 123.827H227.904V125H226.77ZM227.923 121.182C227.923 121.759 228.008 122.267 228.177 122.708C228.346 123.146 228.593 123.489 228.918 123.737C229.243 123.982 229.64 124.105 230.111 124.105C230.602 124.105 231.011 123.976 231.339 123.717C231.67 123.455 231.919 123.104 232.085 122.663C232.254 122.219 232.338 121.725 232.338 121.182C232.338 120.645 232.255 120.161 232.09 119.73C231.927 119.296 231.68 118.953 231.349 118.701C231.021 118.446 230.608 118.318 230.111 118.318C229.634 118.318 229.233 118.439 228.908 118.681C228.583 118.92 228.338 119.254 228.172 119.685C228.006 120.113 227.923 120.612 227.923 121.182ZM238.508 125.159C237.772 125.159 237.137 124.997 236.604 124.672C236.074 124.344 235.664 123.886 235.376 123.3C235.091 122.71 234.948 122.024 234.948 121.241C234.948 120.459 235.091 119.77 235.376 119.173C235.664 118.573 236.065 118.106 236.579 117.771C237.096 117.433 237.699 117.264 238.389 117.264C238.786 117.264 239.179 117.33 239.567 117.463C239.955 117.596 240.308 117.811 240.626 118.109C240.944 118.404 241.198 118.795 241.387 119.283C241.575 119.77 241.67 120.37 241.67 121.082V121.58H235.784V120.565H240.477C240.477 120.134 240.391 119.75 240.218 119.412C240.049 119.074 239.807 118.807 239.492 118.612C239.181 118.416 238.813 118.318 238.389 118.318C237.921 118.318 237.517 118.434 237.176 118.666C236.838 118.895 236.577 119.193 236.395 119.561C236.213 119.929 236.122 120.323 236.122 120.744V121.42C236.122 121.997 236.221 122.486 236.42 122.887C236.622 123.285 236.902 123.588 237.26 123.797C237.618 124.002 238.034 124.105 238.508 124.105C238.816 124.105 239.095 124.062 239.343 123.976C239.595 123.886 239.812 123.754 239.994 123.578C240.177 123.399 240.318 123.177 240.417 122.912L241.551 123.23C241.431 123.615 241.231 123.953 240.949 124.244C240.667 124.533 240.319 124.758 239.905 124.92C239.491 125.08 239.025 125.159 238.508 125.159ZM244.628 114.818V125H243.455V114.818H244.628Z" fill="white" fill-opacity="0.95"/>
</svg>
