<svg width="102" height="35" viewBox="0 0 102 35" fill="none" xmlns="http://www.w3.org/2000/svg">
<g filter="url(#filter0_ddd_2959_42803)">
<rect x="5.5" y="5.5" width="48" height="24" rx="12" fill="white" fill-opacity="0.2" shape-rendering="crispEdges"/>
<rect x="5.5" y="5.5" width="48" height="24" rx="12" stroke="#707070" shape-rendering="crispEdges"/>
</g>
<rect x="7.5" y="7.5" width="20" height="20" rx="10" fill="white"/>
<path d="M18.0303 17.5L21.1402 14.3901C21.175 14.3553 21.2026 14.314 21.2214 14.2685C21.2403 14.223 21.25 14.1742 21.25 14.125C21.25 14.0758 21.2403 14.027 21.2214 13.9815C21.2026 13.936 21.175 13.8947 21.1402 13.8599C21.1053 13.825 21.064 13.7974 21.0185 13.7786C20.973 13.7597 20.9243 13.75 20.875 13.75C20.8258 13.75 20.777 13.7597 20.7315 13.7786C20.686 13.7974 20.6447 13.825 20.6099 13.8599L17.5 16.9697L14.3901 13.8599C14.3554 13.8247 14.314 13.7968 14.2685 13.7777C14.2229 13.7586 14.174 13.7487 14.1246 13.7485C14.0751 13.7484 14.0262 13.758 13.9805 13.7769C13.9348 13.7957 13.8933 13.8234 13.8584 13.8584C13.8234 13.8933 13.7957 13.9348 13.7769 13.9805C13.758 14.0262 13.7484 14.0752 13.7485 14.1246C13.7487 14.174 13.7586 14.2229 13.7777 14.2685C13.7968 14.314 13.8247 14.3554 13.8599 14.3901L16.9698 17.5L13.8599 20.6099C13.8251 20.6447 13.7974 20.686 13.7786 20.7315C13.7598 20.777 13.7501 20.8258 13.7501 20.875C13.7501 20.9243 13.7598 20.973 13.7786 21.0185C13.7974 21.064 13.8251 21.1053 13.8599 21.1402C13.8947 21.175 13.936 21.2026 13.9815 21.2214C14.027 21.2403 14.0758 21.25 14.125 21.25C14.1743 21.25 14.223 21.2403 14.2685 21.2215C14.314 21.2026 14.3553 21.175 14.3902 21.1402L17.5 18.0303L20.6099 21.1402C20.6802 21.2105 20.7756 21.25 20.875 21.25C20.9745 21.25 21.0699 21.2105 21.1402 21.1402C21.2105 21.0698 21.25 20.9745 21.25 20.875C21.25 20.7756 21.2105 20.6802 21.1402 20.6099L18.0303 17.5Z" fill="black" fill-opacity="0.95"/>
<path d="M66.733 22.5V12.3182H67.9659V21.4062H72.6989V22.5H66.733ZM76.696 22.679C76.2121 22.679 75.773 22.5878 75.3786 22.4055C74.9841 22.2199 74.6709 21.9531 74.4389 21.6051C74.2069 21.2538 74.0909 20.8295 74.0909 20.3324C74.0909 19.8949 74.1771 19.5402 74.3494 19.2685C74.5218 18.9934 74.7521 18.7779 75.0405 18.6222C75.3288 18.4664 75.647 18.3504 75.995 18.2741C76.3464 18.1946 76.6993 18.1316 77.054 18.0852C77.518 18.0256 77.8942 17.9808 78.1825 17.951C78.4742 17.9179 78.6863 17.8632 78.8189 17.7869C78.9548 17.7107 79.0227 17.5781 79.0227 17.3892V17.3494C79.0227 16.8589 78.8885 16.4777 78.62 16.206C78.3549 15.9342 77.9522 15.7983 77.4119 15.7983C76.8518 15.7983 76.4126 15.9209 76.0945 16.1662C75.7763 16.4115 75.5526 16.6733 75.4233 16.9517L74.3097 16.554C74.5085 16.09 74.7737 15.7287 75.1051 15.4702C75.4399 15.2083 75.8045 15.026 76.1989 14.9233C76.5966 14.8172 76.9877 14.7642 77.3722 14.7642C77.6174 14.7642 77.8991 14.794 78.2173 14.8537C78.5388 14.91 78.8487 15.0277 79.147 15.2067C79.4486 15.3857 79.6989 15.6558 79.8977 16.017C80.0966 16.3783 80.196 16.8622 80.196 17.4688V22.5H79.0227V21.4659H78.9631C78.8835 21.6316 78.7509 21.8089 78.5653 21.9979C78.3797 22.1868 78.1328 22.3475 77.8246 22.4801C77.5163 22.6127 77.1402 22.679 76.696 22.679ZM76.875 21.625C77.339 21.625 77.7301 21.5339 78.0483 21.3516C78.3698 21.1693 78.6117 20.9339 78.7741 20.6456C78.9399 20.3572 79.0227 20.054 79.0227 19.7358V18.6619C78.973 18.7216 78.8636 18.7763 78.6946 18.826C78.5289 18.8724 78.3366 18.9138 78.1179 18.9503C77.9025 18.9834 77.692 19.0133 77.4865 19.0398C77.2843 19.063 77.1203 19.0829 76.9943 19.0994C76.6894 19.1392 76.4044 19.2038 76.1392 19.2933C75.8774 19.3795 75.6652 19.5104 75.5028 19.6861C75.3438 19.8584 75.2642 20.0937 75.2642 20.392C75.2642 20.7997 75.415 21.108 75.7166 21.3168C76.0215 21.5223 76.4077 21.625 76.875 21.625ZM82.4966 22.5V12.3182H83.6699V16.0767H83.7694C83.8555 15.9441 83.9748 15.7751 84.1273 15.5696C84.2831 15.3608 84.5051 15.1752 84.7935 15.0128C85.0852 14.8471 85.4796 14.7642 85.9767 14.7642C86.6197 14.7642 87.1865 14.925 87.677 15.2464C88.1676 15.5679 88.5504 16.0237 88.8255 16.6136C89.1006 17.2036 89.2381 17.8996 89.2381 18.7017C89.2381 19.5104 89.1006 20.2114 88.8255 20.8047C88.5504 21.3946 88.1692 21.852 87.682 22.1768C87.1948 22.4983 86.633 22.6591 85.9966 22.6591C85.5061 22.6591 85.1133 22.5779 84.8184 22.4155C84.5234 22.2498 84.2963 22.0625 84.1373 21.8537C83.9782 21.6416 83.8555 21.4659 83.7694 21.3267H83.6301V22.5H82.4966ZM83.65 18.6818C83.65 19.2585 83.7346 19.7673 83.9036 20.2081C84.0726 20.6456 84.3195 20.9886 84.6444 21.2372C84.9692 21.4825 85.3669 21.6051 85.8375 21.6051C86.3281 21.6051 86.7374 21.4759 87.0655 21.2173C87.397 20.9555 87.6455 20.6042 87.8113 20.1634C87.9803 19.7192 88.0648 19.2254 88.0648 18.6818C88.0648 18.1449 87.9819 17.661 87.8162 17.2301C87.6538 16.7959 87.4069 16.4529 87.0755 16.201C86.7473 15.9458 86.3347 15.8182 85.8375 15.8182C85.3603 15.8182 84.9592 15.9392 84.6344 16.1811C84.3096 16.4197 84.0643 16.7545 83.8986 17.1854C83.7329 17.6129 83.65 18.1117 83.65 18.6818ZM94.2346 22.6591C93.4988 22.6591 92.8641 22.4967 92.3304 22.1719C91.8001 21.8438 91.3908 21.3864 91.1025 20.7997C90.8174 20.2098 90.6749 19.5237 90.6749 18.7415C90.6749 17.9593 90.8174 17.2699 91.1025 16.6733C91.3908 16.0734 91.7918 15.6061 92.3056 15.2713C92.8226 14.9332 93.4258 14.7642 94.1152 14.7642C94.513 14.7642 94.9057 14.8305 95.2935 14.9631C95.6813 15.0956 96.0343 15.3111 96.3525 15.6094C96.6706 15.9044 96.9242 16.2955 97.1131 16.7827C97.302 17.2699 97.3965 17.8698 97.3965 18.5824V19.0795H91.5101V18.0653H96.2033C96.2033 17.6345 96.1171 17.25 95.9448 16.9119C95.7757 16.5739 95.5338 16.3071 95.2189 16.1115C94.9074 15.916 94.5395 15.8182 94.1152 15.8182C93.6479 15.8182 93.2435 15.9342 92.9022 16.1662C92.5641 16.3949 92.3039 16.6932 92.1216 17.0611C91.9393 17.429 91.8482 17.8234 91.8482 18.2443V18.9205C91.8482 19.4972 91.9476 19.986 92.1465 20.3871C92.3487 20.7848 92.6287 21.0881 92.9867 21.2969C93.3446 21.5024 93.7606 21.6051 94.2346 21.6051C94.5428 21.6051 94.8212 21.562 95.0698 21.4759C95.3217 21.3864 95.5388 21.2538 95.7211 21.0781C95.9034 20.8991 96.0442 20.6771 96.1436 20.4119L97.2772 20.7301C97.1578 21.1146 96.9573 21.4527 96.6756 21.7443C96.3939 22.0327 96.0459 22.258 95.6316 22.4205C95.2173 22.5795 94.7516 22.6591 94.2346 22.6591ZM100.355 12.3182V22.5H99.1813V12.3182H100.355Z" fill="white" fill-opacity="0.95"/>
<defs>
<filter id="filter0_ddd_2959_42803" x="0" y="0" width="59" height="35" filterUnits="userSpaceOnUse" color-interpolation-filters="sRGB">
<feFlood flood-opacity="0" result="BackgroundImageFix"/>
<feColorMatrix in="SourceAlpha" type="matrix" values="0 0 0 0 0 0 0 0 0 0 0 0 0 0 0 0 0 0 127 0" result="hardAlpha"/>
<feMorphology radius="4" operator="dilate" in="SourceAlpha" result="effect1_dropShadow_2959_42803"/>
<feOffset/>
<feComposite in2="hardAlpha" operator="out"/>
<feColorMatrix type="matrix" values="0 0 0 0 0.392157 0 0 0 0 0.705882 0 0 0 0 0.980392 0 0 0 1 0"/>
<feBlend mode="normal" in2="BackgroundImageFix" result="effect1_dropShadow_2959_42803"/>
<feColorMatrix in="SourceAlpha" type="matrix" values="0 0 0 0 0 0 0 0 0 0 0 0 0 0 0 0 0 0 127 0" result="hardAlpha"/>
<feMorphology radius="5" operator="dilate" in="SourceAlpha" result="effect2_dropShadow_2959_42803"/>
<feOffset/>
<feComposite in2="hardAlpha" operator="out"/>
<feColorMatrix type="matrix" values="0 0 0 0 0.392157 0 0 0 0 0.705882 0 0 0 0 0.980392 0 0 0 0.35 0"/>
<feBlend mode="normal" in2="effect1_dropShadow_2959_42803" result="effect2_dropShadow_2959_42803"/>
<feColorMatrix in="SourceAlpha" type="matrix" values="0 0 0 0 0 0 0 0 0 0 0 0 0 0 0 0 0 0 127 0" result="hardAlpha"/>
<feMorphology radius="2" operator="dilate" in="SourceAlpha" result="effect3_dropShadow_2959_42803"/>
<feOffset/>
<feComposite in2="hardAlpha" operator="out"/>
<feColorMatrix type="matrix" values="0 0 0 0 0 0 0 0 0 0 0 0 0 0 0 0 0 0 1 0"/>
<feBlend mode="normal" in2="effect2_dropShadow_2959_42803" result="effect3_dropShadow_2959_42803"/>
<feBlend mode="normal" in="SourceGraphic" in2="effect3_dropShadow_2959_42803" result="shape"/>
</filter>
</defs>
</svg>
