<svg width="1150" height="352" viewBox="0 0 1150 352" fill="none" xmlns="http://www.w3.org/2000/svg">
<rect width="1150" height="352" rx="16" fill="#1A1A1A"/>
<rect x="585.392" y="162" width="48" height="24" rx="12" fill="#64B4FA"/>
<rect x="611.392" y="164" width="20" height="20" rx="10" fill="white"/>
<path d="M619.592 177.075C619.542 177.075 619.493 177.065 619.448 177.046C619.402 177.027 619.361 176.999 619.326 176.964L616.626 174.251C616.591 174.216 616.564 174.175 616.545 174.129C616.526 174.084 616.517 174.035 616.517 173.986C616.517 173.936 616.527 173.888 616.546 173.842C616.565 173.797 616.592 173.755 616.627 173.721C616.662 173.686 616.704 173.658 616.749 173.64C616.795 173.621 616.844 173.611 616.893 173.612C616.942 173.612 616.991 173.622 617.036 173.641C617.082 173.66 617.123 173.687 617.158 173.722L619.612 176.189L625.648 171.016C625.723 170.951 625.821 170.919 625.921 170.926C626.02 170.934 626.112 170.981 626.176 171.056C626.241 171.132 626.273 171.23 626.265 171.329C626.258 171.428 626.211 171.52 626.136 171.585L619.836 176.984C619.768 177.043 619.681 177.075 619.592 177.075Z" fill="black" fill-opacity="0.95"/>
<path d="M646.625 179V168.818H647.858V177.906H652.591V179H646.625ZM656.588 179.179C656.104 179.179 655.665 179.088 655.27 178.906C654.876 178.72 654.563 178.453 654.331 178.105C654.099 177.754 653.983 177.33 653.983 176.832C653.983 176.395 654.069 176.04 654.241 175.768C654.414 175.493 654.644 175.278 654.932 175.122C655.221 174.966 655.539 174.85 655.887 174.774C656.238 174.695 656.591 174.632 656.946 174.585C657.41 174.526 657.786 174.481 658.074 174.451C658.366 174.418 658.578 174.363 658.711 174.287C658.847 174.211 658.914 174.078 658.914 173.889V173.849C658.914 173.359 658.78 172.978 658.512 172.706C658.247 172.434 657.844 172.298 657.304 172.298C656.744 172.298 656.304 172.421 655.986 172.666C655.668 172.911 655.444 173.173 655.315 173.452L654.201 173.054C654.4 172.59 654.665 172.229 654.997 171.97C655.332 171.708 655.696 171.526 656.091 171.423C656.488 171.317 656.879 171.264 657.264 171.264C657.509 171.264 657.791 171.294 658.109 171.354C658.431 171.41 658.74 171.528 659.039 171.707C659.34 171.886 659.591 172.156 659.789 172.517C659.988 172.878 660.088 173.362 660.088 173.969V179H658.914V177.966H658.855C658.775 178.132 658.643 178.309 658.457 178.498C658.271 178.687 658.025 178.848 657.716 178.98C657.408 179.113 657.032 179.179 656.588 179.179ZM656.767 178.125C657.231 178.125 657.622 178.034 657.94 177.852C658.262 177.669 658.503 177.434 658.666 177.146C658.832 176.857 658.914 176.554 658.914 176.236V175.162C658.865 175.222 658.755 175.276 658.586 175.326C658.421 175.372 658.228 175.414 658.01 175.45C657.794 175.483 657.584 175.513 657.378 175.54C657.176 175.563 657.012 175.583 656.886 175.599C656.581 175.639 656.296 175.704 656.031 175.793C655.769 175.879 655.557 176.01 655.395 176.186C655.235 176.358 655.156 176.594 655.156 176.892C655.156 177.3 655.307 177.608 655.608 177.817C655.913 178.022 656.299 178.125 656.767 178.125ZM662.388 179V168.818H663.562V172.577H663.661C663.747 172.444 663.867 172.275 664.019 172.07C664.175 171.861 664.397 171.675 664.685 171.513C664.977 171.347 665.371 171.264 665.868 171.264C666.511 171.264 667.078 171.425 667.569 171.746C668.059 172.068 668.442 172.524 668.717 173.114C668.992 173.704 669.13 174.4 669.13 175.202C669.13 176.01 668.992 176.711 668.717 177.305C668.442 177.895 668.061 178.352 667.574 178.677C667.087 178.998 666.525 179.159 665.888 179.159C665.398 179.159 665.005 179.078 664.71 178.915C664.415 178.75 664.188 178.562 664.029 178.354C663.87 178.142 663.747 177.966 663.661 177.827H663.522V179H662.388ZM663.542 175.182C663.542 175.759 663.626 176.267 663.795 176.708C663.964 177.146 664.211 177.489 664.536 177.737C664.861 177.982 665.259 178.105 665.729 178.105C666.22 178.105 666.629 177.976 666.957 177.717C667.289 177.455 667.537 177.104 667.703 176.663C667.872 176.219 667.957 175.725 667.957 175.182C667.957 174.645 667.874 174.161 667.708 173.73C667.546 173.296 667.299 172.953 666.967 172.701C666.639 172.446 666.226 172.318 665.729 172.318C665.252 172.318 664.851 172.439 664.526 172.681C664.201 172.92 663.956 173.254 663.79 173.685C663.625 174.113 663.542 174.612 663.542 175.182ZM674.126 179.159C673.39 179.159 672.756 178.997 672.222 178.672C671.692 178.344 671.283 177.886 670.994 177.3C670.709 176.71 670.567 176.024 670.567 175.241C670.567 174.459 670.709 173.77 670.994 173.173C671.283 172.573 671.684 172.106 672.197 171.771C672.714 171.433 673.318 171.264 674.007 171.264C674.405 171.264 674.797 171.33 675.185 171.463C675.573 171.596 675.926 171.811 676.244 172.109C676.562 172.404 676.816 172.795 677.005 173.283C677.194 173.77 677.288 174.37 677.288 175.082V175.58H671.402V174.565H676.095C676.095 174.134 676.009 173.75 675.837 173.412C675.667 173.074 675.426 172.807 675.111 172.612C674.799 172.416 674.431 172.318 674.007 172.318C673.54 172.318 673.135 172.434 672.794 172.666C672.456 172.895 672.196 173.193 672.013 173.561C671.831 173.929 671.74 174.323 671.74 174.744V175.42C671.74 175.997 671.839 176.486 672.038 176.887C672.24 177.285 672.52 177.588 672.878 177.797C673.236 178.002 673.652 178.105 674.126 178.105C674.435 178.105 674.713 178.062 674.962 177.976C675.213 177.886 675.43 177.754 675.613 177.578C675.795 177.399 675.936 177.177 676.035 176.912L677.169 177.23C677.05 177.615 676.849 177.953 676.567 178.244C676.286 178.533 675.938 178.758 675.523 178.92C675.109 179.08 674.643 179.159 674.126 179.159ZM680.246 168.818V179H679.073V168.818H680.246Z" fill="white" fill-opacity="0.95"/>
<path d="M658.071 120V154" stroke="#DA0087"/>
<path d="M658.071 162L654.071 154H662.071L658.071 162Z" fill="#DA0087"/>
<rect x="613.071" y="100" width="90" height="28" rx="14" fill="#DA0087"/>
<path d="M635.722 108.364V120H634.313V109.841H634.245L631.404 111.727V110.295L634.313 108.364H635.722ZM641.536 120.091C641.256 120.091 641.015 119.991 640.814 119.79C640.613 119.589 640.513 119.348 640.513 119.068C640.513 118.788 640.613 118.547 640.814 118.347C641.015 118.146 641.256 118.045 641.536 118.045C641.816 118.045 642.057 118.146 642.257 118.347C642.458 118.547 642.559 118.788 642.559 119.068C642.559 119.254 642.511 119.424 642.416 119.58C642.326 119.735 642.202 119.86 642.047 119.955C641.896 120.045 641.725 120.091 641.536 120.091ZM650.48 120V108.364H651.889V118.75H657.298V120H650.48ZM661.866 120.205C661.313 120.205 660.811 120.1 660.361 119.892C659.91 119.68 659.552 119.375 659.287 118.977C659.022 118.576 658.889 118.091 658.889 117.523C658.889 117.023 658.987 116.617 659.184 116.307C659.381 115.992 659.645 115.746 659.974 115.568C660.304 115.39 660.667 115.258 661.065 115.17C661.467 115.08 661.87 115.008 662.275 114.955C662.806 114.886 663.236 114.835 663.565 114.801C663.898 114.763 664.141 114.701 664.292 114.614C664.448 114.527 664.525 114.375 664.525 114.159V114.114C664.525 113.553 664.372 113.117 664.065 112.807C663.762 112.496 663.302 112.341 662.684 112.341C662.044 112.341 661.542 112.481 661.179 112.761C660.815 113.042 660.559 113.341 660.412 113.659L659.139 113.205C659.366 112.674 659.669 112.261 660.048 111.966C660.431 111.667 660.847 111.458 661.298 111.341C661.753 111.22 662.2 111.159 662.639 111.159C662.919 111.159 663.241 111.193 663.605 111.261C663.972 111.326 664.326 111.46 664.667 111.665C665.012 111.869 665.298 112.178 665.525 112.591C665.753 113.004 665.866 113.557 665.866 114.25V120H664.525V118.818H664.457C664.366 119.008 664.215 119.21 664.003 119.426C663.79 119.642 663.508 119.826 663.156 119.977C662.804 120.129 662.374 120.205 661.866 120.205ZM662.071 119C662.601 119 663.048 118.896 663.412 118.688C663.779 118.479 664.056 118.21 664.241 117.881C664.431 117.551 664.525 117.205 664.525 116.841V115.614C664.469 115.682 664.344 115.744 664.15 115.801C663.961 115.854 663.741 115.902 663.491 115.943C663.245 115.981 663.005 116.015 662.77 116.045C662.539 116.072 662.351 116.095 662.207 116.114C661.859 116.159 661.533 116.233 661.23 116.335C660.931 116.434 660.688 116.583 660.503 116.784C660.321 116.981 660.23 117.25 660.23 117.591C660.23 118.057 660.402 118.409 660.747 118.648C661.095 118.883 661.537 119 662.071 119ZM668.496 120V108.364H669.836V112.659H669.95C670.049 112.508 670.185 112.314 670.359 112.08C670.537 111.841 670.791 111.629 671.121 111.443C671.454 111.254 671.905 111.159 672.473 111.159C673.208 111.159 673.855 111.343 674.416 111.71C674.977 112.078 675.414 112.598 675.728 113.273C676.043 113.947 676.2 114.742 676.2 115.659C676.2 116.583 676.043 117.384 675.728 118.062C675.414 118.737 674.978 119.259 674.422 119.631C673.865 119.998 673.223 120.182 672.496 120.182C671.935 120.182 671.486 120.089 671.149 119.903C670.812 119.714 670.552 119.5 670.371 119.261C670.189 119.019 670.049 118.818 669.95 118.659H669.791V120H668.496ZM669.814 115.636C669.814 116.295 669.91 116.877 670.103 117.381C670.297 117.881 670.579 118.273 670.95 118.557C671.321 118.837 671.776 118.977 672.314 118.977C672.874 118.977 673.342 118.83 673.717 118.534C674.096 118.235 674.38 117.833 674.569 117.33C674.763 116.822 674.859 116.258 674.859 115.636C674.859 115.023 674.764 114.47 674.575 113.977C674.389 113.481 674.107 113.089 673.728 112.801C673.353 112.509 672.882 112.364 672.314 112.364C671.768 112.364 671.31 112.502 670.939 112.778C670.567 113.051 670.287 113.434 670.098 113.926C669.908 114.415 669.814 114.985 669.814 115.636ZM681.91 120.182C681.069 120.182 680.344 119.996 679.734 119.625C679.128 119.25 678.66 118.727 678.331 118.057C678.005 117.383 677.842 116.598 677.842 115.705C677.842 114.811 678.005 114.023 678.331 113.341C678.66 112.655 679.119 112.121 679.706 111.739C680.297 111.352 680.986 111.159 681.774 111.159C682.228 111.159 682.677 111.235 683.121 111.386C683.564 111.538 683.967 111.784 684.331 112.125C684.694 112.462 684.984 112.909 685.2 113.466C685.416 114.023 685.524 114.708 685.524 115.523V116.091H678.797V114.932H684.16C684.16 114.439 684.062 114 683.865 113.614C683.672 113.227 683.395 112.922 683.035 112.699C682.679 112.475 682.259 112.364 681.774 112.364C681.24 112.364 680.778 112.496 680.388 112.761C680.001 113.023 679.704 113.364 679.496 113.784C679.287 114.205 679.183 114.655 679.183 115.136V115.909C679.183 116.568 679.297 117.127 679.524 117.585C679.755 118.04 680.075 118.386 680.484 118.625C680.893 118.86 681.369 118.977 681.91 118.977C682.263 118.977 682.581 118.928 682.865 118.83C683.153 118.727 683.401 118.576 683.609 118.375C683.817 118.17 683.978 117.917 684.092 117.614L685.388 117.977C685.251 118.417 685.022 118.803 684.7 119.136C684.378 119.466 683.98 119.723 683.507 119.909C683.033 120.091 682.501 120.182 681.91 120.182ZM688.905 108.364V120H687.564V108.364H688.905Z" fill="white" fill-opacity="0.95"/>
<path d="M528.929 175H563.929" stroke="#DA0087"/>
<path d="M571.929 175L563.929 171V179L571.929 175Z" fill="#DA0087"/>
<rect x="446.929" y="161" width="90" height="28" rx="14" fill="#DA0087"/>
<path d="M468.058 181.159C467.308 181.159 466.639 181.03 466.052 180.773C465.469 180.515 465.005 180.157 464.66 179.699C464.319 179.237 464.133 178.701 464.103 178.091H465.535C465.565 178.466 465.694 178.79 465.921 179.062C466.148 179.331 466.446 179.54 466.813 179.688C467.181 179.835 467.588 179.909 468.035 179.909C468.535 179.909 468.978 179.822 469.364 179.648C469.751 179.473 470.054 179.231 470.273 178.92C470.493 178.61 470.603 178.25 470.603 177.841C470.603 177.413 470.497 177.036 470.285 176.71C470.073 176.381 469.762 176.123 469.353 175.938C468.944 175.752 468.444 175.659 467.853 175.659H466.921V174.409H467.853C468.315 174.409 468.72 174.326 469.069 174.159C469.421 173.992 469.696 173.758 469.893 173.455C470.094 173.152 470.194 172.795 470.194 172.386C470.194 171.992 470.107 171.65 469.933 171.358C469.758 171.066 469.512 170.839 469.194 170.676C468.88 170.513 468.508 170.432 468.08 170.432C467.679 170.432 467.3 170.506 466.944 170.653C466.592 170.797 466.304 171.008 466.08 171.284C465.857 171.557 465.736 171.886 465.717 172.273H464.353C464.376 171.663 464.559 171.129 464.904 170.67C465.249 170.208 465.7 169.848 466.256 169.591C466.817 169.333 467.433 169.205 468.103 169.205C468.823 169.205 469.44 169.35 469.955 169.642C470.47 169.93 470.866 170.311 471.143 170.784C471.419 171.258 471.558 171.769 471.558 172.318C471.558 172.973 471.385 173.532 471.041 173.994C470.7 174.456 470.236 174.777 469.648 174.955V175.045C470.383 175.167 470.957 175.479 471.37 175.983C471.783 176.483 471.989 177.102 471.989 177.841C471.989 178.473 471.817 179.042 471.472 179.545C471.131 180.045 470.666 180.439 470.075 180.727C469.484 181.015 468.811 181.159 468.058 181.159ZM475.394 181.091C475.114 181.091 474.873 180.991 474.673 180.79C474.472 180.589 474.371 180.348 474.371 180.068C474.371 179.788 474.472 179.547 474.673 179.347C474.873 179.146 475.114 179.045 475.394 179.045C475.675 179.045 475.915 179.146 476.116 179.347C476.317 179.547 476.417 179.788 476.417 180.068C476.417 180.254 476.37 180.424 476.275 180.58C476.184 180.735 476.061 180.86 475.906 180.955C475.754 181.045 475.584 181.091 475.394 181.091ZM483.702 170.614V169.364H492.429V170.614H488.77V181H487.361V170.614H483.702ZM493.516 181V172.273H494.811V173.591H494.902C495.061 173.159 495.349 172.809 495.766 172.54C496.183 172.271 496.652 172.136 497.175 172.136C497.273 172.136 497.397 172.138 497.544 172.142C497.692 172.146 497.804 172.152 497.879 172.159V173.523C497.834 173.511 497.73 173.494 497.567 173.472C497.408 173.445 497.239 173.432 497.061 173.432C496.637 173.432 496.258 173.521 495.925 173.699C495.595 173.873 495.334 174.116 495.141 174.426C494.951 174.733 494.857 175.083 494.857 175.477V181H493.516ZM502.037 181.205C501.484 181.205 500.982 181.1 500.531 180.892C500.081 180.68 499.723 180.375 499.458 179.977C499.192 179.576 499.06 179.091 499.06 178.523C499.06 178.023 499.158 177.617 499.355 177.307C499.552 176.992 499.816 176.746 500.145 176.568C500.475 176.39 500.838 176.258 501.236 176.17C501.638 176.08 502.041 176.008 502.446 175.955C502.977 175.886 503.406 175.835 503.736 175.801C504.069 175.763 504.312 175.701 504.463 175.614C504.619 175.527 504.696 175.375 504.696 175.159V175.114C504.696 174.553 504.543 174.117 504.236 173.807C503.933 173.496 503.473 173.341 502.855 173.341C502.215 173.341 501.713 173.481 501.35 173.761C500.986 174.042 500.73 174.341 500.583 174.659L499.31 174.205C499.537 173.674 499.84 173.261 500.219 172.966C500.602 172.667 501.018 172.458 501.469 172.341C501.924 172.22 502.37 172.159 502.81 172.159C503.09 172.159 503.412 172.193 503.776 172.261C504.143 172.326 504.497 172.46 504.838 172.665C505.183 172.869 505.469 173.178 505.696 173.591C505.924 174.004 506.037 174.557 506.037 175.25V181H504.696V179.818H504.628C504.537 180.008 504.386 180.21 504.174 180.426C503.961 180.642 503.679 180.826 503.327 180.977C502.975 181.129 502.545 181.205 502.037 181.205ZM502.242 180C502.772 180 503.219 179.896 503.583 179.688C503.95 179.479 504.227 179.21 504.412 178.881C504.602 178.551 504.696 178.205 504.696 177.841V176.614C504.639 176.682 504.514 176.744 504.321 176.801C504.132 176.854 503.912 176.902 503.662 176.943C503.416 176.981 503.175 177.015 502.941 177.045C502.71 177.072 502.522 177.095 502.378 177.114C502.03 177.159 501.704 177.233 501.401 177.335C501.102 177.434 500.859 177.583 500.674 177.784C500.492 177.981 500.401 178.25 500.401 178.591C500.401 179.057 500.573 179.409 500.918 179.648C501.266 179.883 501.708 180 502.242 180ZM512.03 181.182C511.212 181.182 510.507 180.989 509.916 180.602C509.326 180.216 508.871 179.684 508.553 179.006C508.235 178.328 508.076 177.553 508.076 176.682C508.076 175.795 508.238 175.013 508.564 174.335C508.894 173.653 509.352 173.121 509.939 172.739C510.53 172.352 511.219 172.159 512.007 172.159C512.621 172.159 513.174 172.273 513.666 172.5C514.159 172.727 514.562 173.045 514.877 173.455C515.191 173.864 515.386 174.341 515.462 174.886H514.121C514.019 174.489 513.791 174.136 513.439 173.83C513.091 173.519 512.621 173.364 512.03 173.364C511.507 173.364 511.049 173.5 510.655 173.773C510.265 174.042 509.96 174.422 509.74 174.915C509.524 175.403 509.416 175.977 509.416 176.636C509.416 177.311 509.522 177.898 509.735 178.398C509.951 178.898 510.254 179.286 510.644 179.562C511.038 179.839 511.5 179.977 512.03 179.977C512.379 179.977 512.695 179.917 512.979 179.795C513.263 179.674 513.504 179.5 513.701 179.273C513.897 179.045 514.038 178.773 514.121 178.455H515.462C515.386 178.97 515.199 179.434 514.899 179.847C514.604 180.256 514.212 180.581 513.723 180.824C513.238 181.062 512.674 181.182 512.03 181.182ZM518.672 177.818L518.649 176.159H518.922L522.74 172.273H524.399L520.331 176.386H520.218L518.672 177.818ZM517.422 181V169.364H518.763V181H517.422ZM522.968 181L519.558 176.682L520.513 175.75L524.672 181H522.968Z" fill="white" fill-opacity="0.95"/>
<path d="M622.269 232V198" stroke="#DA0087"/>
<path d="M622.269 190L618.269 198H626.269L622.269 190Z" fill="#DA0087"/>
<rect x="571.269" y="224" width="102" height="28" rx="14" fill="#DA0087"/>
<path d="M588.715 244V242.977L592.556 238.773C593.007 238.28 593.378 237.852 593.67 237.489C593.961 237.121 594.177 236.777 594.317 236.455C594.461 236.129 594.533 235.788 594.533 235.432C594.533 235.023 594.435 234.669 594.238 234.369C594.045 234.07 593.78 233.839 593.442 233.676C593.105 233.513 592.727 233.432 592.306 233.432C591.859 233.432 591.469 233.525 591.136 233.71C590.806 233.892 590.55 234.148 590.369 234.477C590.191 234.807 590.102 235.193 590.102 235.636H588.761C588.761 234.955 588.918 234.356 589.232 233.841C589.547 233.326 589.975 232.924 590.516 232.636C591.062 232.348 591.674 232.205 592.352 232.205C593.033 232.205 593.638 232.348 594.164 232.636C594.691 232.924 595.103 233.312 595.403 233.801C595.702 234.29 595.852 234.833 595.852 235.432C595.852 235.86 595.774 236.278 595.619 236.688C595.467 237.093 595.202 237.545 594.823 238.045C594.448 238.542 593.927 239.148 593.261 239.864L590.647 242.659V242.75H596.056V244H588.715ZM599.734 244.091C599.453 244.091 599.213 243.991 599.012 243.79C598.811 243.589 598.711 243.348 598.711 243.068C598.711 242.788 598.811 242.547 599.012 242.347C599.213 242.146 599.453 242.045 599.734 242.045C600.014 242.045 600.255 242.146 600.455 242.347C600.656 242.547 600.756 242.788 600.756 243.068C600.756 243.254 600.709 243.424 600.614 243.58C600.523 243.735 600.4 243.86 600.245 243.955C600.094 244.045 599.923 244.091 599.734 244.091ZM608.678 244V232.364H610.087V237.545H616.291V232.364H617.7V244H616.291V238.795H610.087V244H608.678ZM622.908 244.205C622.355 244.205 621.853 244.1 621.402 243.892C620.951 243.68 620.593 243.375 620.328 242.977C620.063 242.576 619.931 242.091 619.931 241.523C619.931 241.023 620.029 240.617 620.226 240.307C620.423 239.992 620.686 239.746 621.016 239.568C621.345 239.39 621.709 239.258 622.107 239.17C622.508 239.08 622.912 239.008 623.317 238.955C623.847 238.886 624.277 238.835 624.607 238.801C624.94 238.763 625.183 238.701 625.334 238.614C625.489 238.527 625.567 238.375 625.567 238.159V238.114C625.567 237.553 625.414 237.117 625.107 236.807C624.804 236.496 624.343 236.341 623.726 236.341C623.086 236.341 622.584 236.481 622.22 236.761C621.857 237.042 621.601 237.341 621.453 237.659L620.181 237.205C620.408 236.674 620.711 236.261 621.09 235.966C621.472 235.667 621.889 235.458 622.34 235.341C622.794 235.22 623.241 235.159 623.681 235.159C623.961 235.159 624.283 235.193 624.647 235.261C625.014 235.326 625.368 235.46 625.709 235.665C626.054 235.869 626.34 236.178 626.567 236.591C626.794 237.004 626.908 237.557 626.908 238.25V244H625.567V242.818H625.499C625.408 243.008 625.256 243.21 625.044 243.426C624.832 243.642 624.55 243.826 624.198 243.977C623.845 244.129 623.415 244.205 622.908 244.205ZM623.112 243C623.643 243 624.09 242.896 624.453 242.688C624.821 242.479 625.097 242.21 625.283 241.881C625.472 241.551 625.567 241.205 625.567 240.841V239.614C625.51 239.682 625.385 239.744 625.192 239.801C625.003 239.854 624.783 239.902 624.533 239.943C624.287 239.981 624.046 240.015 623.811 240.045C623.58 240.072 623.393 240.095 623.249 240.114C622.9 240.159 622.575 240.233 622.272 240.335C621.972 240.434 621.73 240.583 621.544 240.784C621.362 240.981 621.272 241.25 621.272 241.591C621.272 242.057 621.444 242.409 621.789 242.648C622.137 242.883 622.578 243 623.112 243ZM630.696 238.75V244H629.355V235.273H630.651V236.636H630.764C630.969 236.193 631.28 235.837 631.696 235.568C632.113 235.295 632.651 235.159 633.31 235.159C633.901 235.159 634.418 235.28 634.861 235.523C635.304 235.761 635.649 236.125 635.895 236.614C636.141 237.098 636.264 237.712 636.264 238.455V244H634.924V238.545C634.924 237.86 634.745 237.326 634.389 236.943C634.033 236.557 633.545 236.364 632.924 236.364C632.495 236.364 632.113 236.456 631.776 236.642C631.442 236.828 631.179 237.098 630.986 237.455C630.793 237.811 630.696 238.242 630.696 238.75ZM642.01 244.182C641.283 244.182 640.641 243.998 640.084 243.631C639.527 243.259 639.092 242.737 638.777 242.062C638.463 241.384 638.306 240.583 638.306 239.659C638.306 238.742 638.463 237.947 638.777 237.273C639.092 236.598 639.529 236.078 640.09 235.71C640.65 235.343 641.298 235.159 642.033 235.159C642.601 235.159 643.05 235.254 643.379 235.443C643.713 235.629 643.967 235.841 644.141 236.08C644.319 236.314 644.457 236.508 644.556 236.659H644.669V232.364H646.01V244H644.715V242.659H644.556C644.457 242.818 644.317 243.019 644.135 243.261C643.953 243.5 643.694 243.714 643.357 243.903C643.02 244.089 642.571 244.182 642.01 244.182ZM642.192 242.977C642.73 242.977 643.184 242.837 643.556 242.557C643.927 242.273 644.209 241.881 644.402 241.381C644.595 240.877 644.692 240.295 644.692 239.636C644.692 238.985 644.597 238.415 644.408 237.926C644.218 237.434 643.938 237.051 643.567 236.778C643.196 236.502 642.737 236.364 642.192 236.364C641.624 236.364 641.15 236.509 640.772 236.801C640.397 237.089 640.114 237.481 639.925 237.977C639.739 238.47 639.647 239.023 639.647 239.636C639.647 240.258 639.741 240.822 639.931 241.33C640.124 241.833 640.408 242.235 640.783 242.534C641.162 242.83 641.631 242.977 642.192 242.977ZM649.993 232.364V244H648.652V232.364H649.993ZM656.108 244.182C655.267 244.182 654.542 243.996 653.932 243.625C653.326 243.25 652.858 242.727 652.529 242.057C652.203 241.383 652.04 240.598 652.04 239.705C652.04 238.811 652.203 238.023 652.529 237.341C652.858 236.655 653.316 236.121 653.904 235.739C654.495 235.352 655.184 235.159 655.972 235.159C656.426 235.159 656.875 235.235 657.318 235.386C657.762 235.538 658.165 235.784 658.529 236.125C658.892 236.462 659.182 236.909 659.398 237.466C659.614 238.023 659.722 238.708 659.722 239.523V240.091H652.995V238.932H658.358C658.358 238.439 658.26 238 658.063 237.614C657.87 237.227 657.593 236.922 657.233 236.699C656.877 236.475 656.457 236.364 655.972 236.364C655.438 236.364 654.976 236.496 654.585 236.761C654.199 237.023 653.902 237.364 653.693 237.784C653.485 238.205 653.381 238.655 653.381 239.136V239.909C653.381 240.568 653.495 241.127 653.722 241.585C653.953 242.04 654.273 242.386 654.682 242.625C655.091 242.86 655.566 242.977 656.108 242.977C656.46 242.977 656.779 242.928 657.063 242.83C657.351 242.727 657.599 242.576 657.807 242.375C658.015 242.17 658.176 241.917 658.29 241.614L659.585 241.977C659.449 242.417 659.22 242.803 658.898 243.136C658.576 243.466 658.178 243.723 657.705 243.909C657.231 244.091 656.699 244.182 656.108 244.182Z" fill="white" fill-opacity="0.95"/>
</svg>
