<svg width="48" height="24" viewBox="0 0 48 24" fill="none" xmlns="http://www.w3.org/2000/svg">
<rect width="48" height="24" rx="12" fill="white" fill-opacity="0.2"/>
<rect x="26" y="2" width="20" height="20" rx="10" fill="white" fill-opacity="0.2"/>
<path d="M34.2003 15.0748C34.1508 15.075 34.1019 15.0652 34.0562 15.0462C34.0106 15.0273 33.9692 14.9994 33.9344 14.9642L31.2343 12.251C31.1996 12.2161 31.1721 12.1747 31.1534 12.1291C31.1347 12.0836 31.1251 12.0348 31.1252 11.9855C31.1254 11.9363 31.1352 11.8876 31.1542 11.8421C31.1732 11.7967 31.2009 11.7554 31.2358 11.7207C31.2707 11.686 31.3121 11.6585 31.3577 11.6398C31.4032 11.621 31.452 11.6115 31.5012 11.6116C31.5505 11.6118 31.5992 11.6216 31.6447 11.6406C31.6901 11.6595 31.7314 11.6873 31.7661 11.7222L34.2204 14.1886L40.2563 9.01552C40.3318 8.95083 40.4298 8.91877 40.5289 8.9264C40.628 8.93402 40.7201 8.9807 40.7847 9.05617C40.8494 9.13163 40.8815 9.2297 40.8739 9.32881C40.8662 9.42791 40.8196 9.51992 40.7441 9.58461L34.4442 14.9844C34.3764 15.0428 34.2898 15.0749 34.2003 15.0748Z" fill="black" fill-opacity="0.2"/>
</svg>
