<svg width="1150" height="300" viewBox="0 0 1150 300" fill="none" xmlns="http://www.w3.org/2000/svg">
<rect width="1150" height="300" rx="16" fill="#1A1A1A"/>
<rect x="518.483" y="132" width="48" height="24" rx="12" fill="#64B4FA"/>
<rect x="544.483" y="134" width="20" height="20" rx="10" fill="white"/>
<path d="M552.683 147.075C552.634 147.075 552.585 147.065 552.539 147.046C552.494 147.027 552.452 146.999 552.417 146.964L549.717 144.251C549.683 144.216 549.655 144.175 549.636 144.129C549.618 144.084 549.608 144.035 549.608 143.986C549.608 143.936 549.618 143.888 549.637 143.842C549.656 143.797 549.684 143.755 549.719 143.721C549.754 143.686 549.795 143.658 549.841 143.64C549.886 143.621 549.935 143.611 549.984 143.612C550.034 143.612 550.082 143.622 550.128 143.641C550.173 143.66 550.214 143.687 550.249 143.722L552.703 146.189L558.739 141.016C558.815 140.951 558.913 140.919 559.012 140.926C559.111 140.934 559.203 140.981 559.268 141.056C559.332 141.132 559.365 141.23 559.357 141.329C559.349 141.428 559.303 141.52 559.227 141.585L552.927 146.984C552.859 147.043 552.773 147.075 552.683 147.075Z" fill="black" fill-opacity="0.95"/>
<path d="M579.716 149V138.818H580.949V147.906H585.682V149H579.716ZM589.679 149.179C589.195 149.179 588.756 149.088 588.362 148.906C587.967 148.72 587.654 148.453 587.422 148.105C587.19 147.754 587.074 147.33 587.074 146.832C587.074 146.395 587.16 146.04 587.333 145.768C587.505 145.493 587.735 145.278 588.024 145.122C588.312 144.966 588.63 144.85 588.978 144.774C589.33 144.695 589.682 144.632 590.037 144.585C590.501 144.526 590.877 144.481 591.166 144.451C591.457 144.418 591.669 144.363 591.802 144.287C591.938 144.211 592.006 144.078 592.006 143.889V143.849C592.006 143.359 591.872 142.978 591.603 142.706C591.338 142.434 590.935 142.298 590.395 142.298C589.835 142.298 589.396 142.421 589.078 142.666C588.759 142.911 588.536 143.173 588.406 143.452L587.293 143.054C587.492 142.59 587.757 142.229 588.088 141.97C588.423 141.708 588.788 141.526 589.182 141.423C589.58 141.317 589.971 141.264 590.355 141.264C590.601 141.264 590.882 141.294 591.2 141.354C591.522 141.41 591.832 141.528 592.13 141.707C592.432 141.886 592.682 142.156 592.881 142.517C593.08 142.878 593.179 143.362 593.179 143.969V149H592.006V147.966H591.946C591.867 148.132 591.734 148.309 591.548 148.498C591.363 148.687 591.116 148.848 590.808 148.98C590.499 149.113 590.123 149.179 589.679 149.179ZM589.858 148.125C590.322 148.125 590.713 148.034 591.031 147.852C591.353 147.669 591.595 147.434 591.757 147.146C591.923 146.857 592.006 146.554 592.006 146.236V145.162C591.956 145.222 591.847 145.276 591.678 145.326C591.512 145.372 591.32 145.414 591.101 145.45C590.886 145.483 590.675 145.513 590.47 145.54C590.267 145.563 590.103 145.583 589.977 145.599C589.673 145.639 589.388 145.704 589.122 145.793C588.861 145.879 588.648 146.01 588.486 146.186C588.327 146.358 588.247 146.594 588.247 146.892C588.247 147.3 588.398 147.608 588.7 147.817C589.005 148.022 589.391 148.125 589.858 148.125ZM595.48 149V138.818H596.653V142.577H596.753C596.839 142.444 596.958 142.275 597.11 142.07C597.266 141.861 597.488 141.675 597.777 141.513C598.068 141.347 598.463 141.264 598.96 141.264C599.603 141.264 600.17 141.425 600.66 141.746C601.151 142.068 601.534 142.524 601.809 143.114C602.084 143.704 602.221 144.4 602.221 145.202C602.221 146.01 602.084 146.711 601.809 147.305C601.534 147.895 601.152 148.352 600.665 148.677C600.178 148.998 599.616 149.159 598.98 149.159C598.489 149.159 598.096 149.078 597.802 148.915C597.507 148.75 597.279 148.562 597.12 148.354C596.961 148.142 596.839 147.966 596.753 147.827H596.613V149H595.48ZM596.633 145.182C596.633 145.759 596.718 146.267 596.887 146.708C597.056 147.146 597.303 147.489 597.628 147.737C597.952 147.982 598.35 148.105 598.821 148.105C599.311 148.105 599.721 147.976 600.049 147.717C600.38 147.455 600.629 147.104 600.794 146.663C600.963 146.219 601.048 145.725 601.048 145.182C601.048 144.645 600.965 144.161 600.799 143.73C600.637 143.296 600.39 142.953 600.059 142.701C599.73 142.446 599.318 142.318 598.821 142.318C598.343 142.318 597.942 142.439 597.618 142.681C597.293 142.92 597.047 143.254 596.882 143.685C596.716 144.113 596.633 144.612 596.633 145.182ZM607.218 149.159C606.482 149.159 605.847 148.997 605.314 148.672C604.783 148.344 604.374 147.886 604.086 147.3C603.801 146.71 603.658 146.024 603.658 145.241C603.658 144.459 603.801 143.77 604.086 143.173C604.374 142.573 604.775 142.106 605.289 141.771C605.806 141.433 606.409 141.264 607.098 141.264C607.496 141.264 607.889 141.33 608.277 141.463C608.664 141.596 609.017 141.811 609.336 142.109C609.654 142.404 609.907 142.795 610.096 143.283C610.285 143.77 610.38 144.37 610.38 145.082V145.58H604.493V144.565H609.186C609.186 144.134 609.1 143.75 608.928 143.412C608.759 143.074 608.517 142.807 608.202 142.612C607.891 142.416 607.523 142.318 607.098 142.318C606.631 142.318 606.227 142.434 605.885 142.666C605.547 142.895 605.287 143.193 605.105 143.561C604.922 143.929 604.831 144.323 604.831 144.744V145.42C604.831 145.997 604.931 146.486 605.13 146.887C605.332 147.285 605.612 147.588 605.97 147.797C606.328 148.002 606.744 148.105 607.218 148.105C607.526 148.105 607.804 148.062 608.053 147.976C608.305 147.886 608.522 147.754 608.704 147.578C608.887 147.399 609.027 147.177 609.127 146.912L610.26 147.23C610.141 147.615 609.94 147.953 609.659 148.244C609.377 148.533 609.029 148.758 608.615 148.92C608.2 149.08 607.735 149.159 607.218 149.159ZM613.338 138.818V149H612.164V138.818H613.338Z" fill="white" fill-opacity="0.95"/>
<path d="M632.483 150.75C636.211 150.75 639.233 147.728 639.233 144C639.233 140.272 636.211 137.25 632.483 137.25C628.755 137.25 625.733 140.272 625.733 144C625.733 147.728 628.755 150.75 632.483 150.75ZM630.769 139.714C630.769 138.925 631.408 138.286 632.197 138.286C632.986 138.286 633.626 138.925 633.626 139.714C633.626 140.503 632.986 141.143 632.197 141.143C631.408 141.143 630.769 140.503 630.769 139.714ZM631.34 144C630.709 144 630.197 143.488 630.197 142.857C630.197 142.226 630.709 141.714 631.34 141.714H632.483C633.114 141.714 633.626 142.226 633.626 142.857V146.857H634.769C635.4 146.857 635.912 147.369 635.912 148C635.912 148.631 635.4 149.143 634.769 149.143H630.197C629.566 149.143 629.055 148.631 629.055 148C629.055 147.369 629.566 146.857 630.197 146.857H631.34V144Z" fill="white" fill-opacity="0.95"/>
<rect x="518.483" y="168" width="48" height="24" rx="12" fill="#64B4FA"/>
<rect x="544.483" y="170" width="20" height="20" rx="10" fill="white"/>
<path d="M552.683 183.075C552.634 183.075 552.585 183.065 552.539 183.046C552.494 183.027 552.452 182.999 552.417 182.964L549.717 180.251C549.683 180.216 549.655 180.175 549.636 180.129C549.618 180.084 549.608 180.035 549.608 179.986C549.608 179.936 549.618 179.888 549.637 179.842C549.656 179.797 549.684 179.755 549.719 179.721C549.754 179.686 549.795 179.658 549.841 179.64C549.886 179.621 549.935 179.611 549.984 179.612C550.034 179.612 550.082 179.622 550.128 179.641C550.173 179.66 550.214 179.687 550.249 179.722L552.703 182.189L558.739 177.016C558.815 176.951 558.913 176.919 559.012 176.926C559.111 176.934 559.203 176.981 559.268 177.056C559.332 177.132 559.365 177.23 559.357 177.329C559.349 177.428 559.303 177.52 559.227 177.585L552.927 182.984C552.859 183.043 552.773 183.075 552.683 183.075Z" fill="black" fill-opacity="0.95"/>
<path d="M579.716 185V174.818H580.949V183.906H585.682V185H579.716ZM589.679 185.179C589.195 185.179 588.756 185.088 588.362 184.906C587.967 184.72 587.654 184.453 587.422 184.105C587.19 183.754 587.074 183.33 587.074 182.832C587.074 182.395 587.16 182.04 587.333 181.768C587.505 181.493 587.735 181.278 588.024 181.122C588.312 180.966 588.63 180.85 588.978 180.774C589.33 180.695 589.682 180.632 590.037 180.585C590.501 180.526 590.877 180.481 591.166 180.451C591.457 180.418 591.669 180.363 591.802 180.287C591.938 180.211 592.006 180.078 592.006 179.889V179.849C592.006 179.359 591.872 178.978 591.603 178.706C591.338 178.434 590.935 178.298 590.395 178.298C589.835 178.298 589.396 178.421 589.078 178.666C588.759 178.911 588.536 179.173 588.406 179.452L587.293 179.054C587.492 178.59 587.757 178.229 588.088 177.97C588.423 177.708 588.788 177.526 589.182 177.423C589.58 177.317 589.971 177.264 590.355 177.264C590.601 177.264 590.882 177.294 591.2 177.354C591.522 177.41 591.832 177.528 592.13 177.707C592.432 177.886 592.682 178.156 592.881 178.517C593.08 178.878 593.179 179.362 593.179 179.969V185H592.006V183.966H591.946C591.867 184.132 591.734 184.309 591.548 184.498C591.363 184.687 591.116 184.848 590.808 184.98C590.499 185.113 590.123 185.179 589.679 185.179ZM589.858 184.125C590.322 184.125 590.713 184.034 591.031 183.852C591.353 183.669 591.595 183.434 591.757 183.146C591.923 182.857 592.006 182.554 592.006 182.236V181.162C591.956 181.222 591.847 181.276 591.678 181.326C591.512 181.372 591.32 181.414 591.101 181.45C590.886 181.483 590.675 181.513 590.47 181.54C590.267 181.563 590.103 181.583 589.977 181.599C589.673 181.639 589.388 181.704 589.122 181.793C588.861 181.879 588.648 182.01 588.486 182.186C588.327 182.358 588.247 182.594 588.247 182.892C588.247 183.3 588.398 183.608 588.7 183.817C589.005 184.022 589.391 184.125 589.858 184.125ZM595.48 185V174.818H596.653V178.577H596.753C596.839 178.444 596.958 178.275 597.11 178.07C597.266 177.861 597.488 177.675 597.777 177.513C598.068 177.347 598.463 177.264 598.96 177.264C599.603 177.264 600.17 177.425 600.66 177.746C601.151 178.068 601.534 178.524 601.809 179.114C602.084 179.704 602.221 180.4 602.221 181.202C602.221 182.01 602.084 182.711 601.809 183.305C601.534 183.895 601.152 184.352 600.665 184.677C600.178 184.998 599.616 185.159 598.98 185.159C598.489 185.159 598.096 185.078 597.802 184.915C597.507 184.75 597.279 184.562 597.12 184.354C596.961 184.142 596.839 183.966 596.753 183.827H596.613V185H595.48ZM596.633 181.182C596.633 181.759 596.718 182.267 596.887 182.708C597.056 183.146 597.303 183.489 597.628 183.737C597.952 183.982 598.35 184.105 598.821 184.105C599.311 184.105 599.721 183.976 600.049 183.717C600.38 183.455 600.629 183.104 600.794 182.663C600.963 182.219 601.048 181.725 601.048 181.182C601.048 180.645 600.965 180.161 600.799 179.73C600.637 179.296 600.39 178.953 600.059 178.701C599.73 178.446 599.318 178.318 598.821 178.318C598.343 178.318 597.942 178.439 597.618 178.681C597.293 178.92 597.047 179.254 596.882 179.685C596.716 180.113 596.633 180.612 596.633 181.182ZM607.218 185.159C606.482 185.159 605.847 184.997 605.314 184.672C604.783 184.344 604.374 183.886 604.086 183.3C603.801 182.71 603.658 182.024 603.658 181.241C603.658 180.459 603.801 179.77 604.086 179.173C604.374 178.573 604.775 178.106 605.289 177.771C605.806 177.433 606.409 177.264 607.098 177.264C607.496 177.264 607.889 177.33 608.277 177.463C608.664 177.596 609.017 177.811 609.336 178.109C609.654 178.404 609.907 178.795 610.096 179.283C610.285 179.77 610.38 180.37 610.38 181.082V181.58H604.493V180.565H609.186C609.186 180.134 609.1 179.75 608.928 179.412C608.759 179.074 608.517 178.807 608.202 178.612C607.891 178.416 607.523 178.318 607.098 178.318C606.631 178.318 606.227 178.434 605.885 178.666C605.547 178.895 605.287 179.193 605.105 179.561C604.922 179.929 604.831 180.323 604.831 180.744V181.42C604.831 181.997 604.931 182.486 605.13 182.887C605.332 183.285 605.612 183.588 605.97 183.797C606.328 184.002 606.744 184.105 607.218 184.105C607.526 184.105 607.804 184.062 608.053 183.976C608.305 183.886 608.522 183.754 608.704 183.578C608.887 183.399 609.027 183.177 609.127 182.912L610.26 183.23C610.141 183.615 609.94 183.953 609.659 184.244C609.377 184.533 609.029 184.758 608.615 184.92C608.2 185.08 607.735 185.159 607.218 185.159ZM613.338 174.818V185H612.164V174.818H613.338Z" fill="white" fill-opacity="0.95"/>
<rect opacity="0.5" x="514.54" y="156" width="124.043" height="12" fill="#30C9B0"/>
<g clip-path="url(#clip0_2959_42327)">
<line x1="501.087" y1="156.5" x2="516.087" y2="156.5" stroke="#30C9B0"/>
<line x1="508.587" y1="169.5" x2="508.587" y2="157.5" stroke="#30C9B0"/>
<line x1="501.087" y1="167.5" x2="516.087" y2="167.5" stroke="#30C9B0"/>
</g>
<path d="M487.569 167H485.922V159.07L483.372 160.007V158.564L487.467 157.047H487.569V167ZM497.752 167H491.073V165.865L494.313 162.338C494.582 162.042 494.808 161.777 494.99 161.545C495.172 161.308 495.32 161.091 495.434 160.896C495.544 160.7 495.621 160.517 495.667 160.349C495.717 160.175 495.742 160.002 495.742 159.829C495.742 159.597 495.708 159.385 495.639 159.193C495.571 159.002 495.471 158.838 495.339 158.701C495.206 158.564 495.047 158.457 494.86 158.38C494.678 158.302 494.473 158.264 494.245 158.264C493.953 158.264 493.7 158.305 493.486 158.387C493.272 158.469 493.094 158.585 492.953 158.735C492.807 158.895 492.698 159.089 492.625 159.316C492.552 159.54 492.515 159.795 492.515 160.082H490.875C490.875 159.649 490.954 159.241 491.114 158.858C491.273 158.471 491.501 158.134 491.797 157.847C492.089 157.56 492.445 157.332 492.864 157.163C493.288 156.994 493.759 156.91 494.279 156.91C494.767 156.91 495.202 156.981 495.585 157.122C495.972 157.263 496.298 157.459 496.562 157.71C496.822 157.961 497.02 158.261 497.157 158.612C497.294 158.959 497.362 159.341 497.362 159.761C497.362 160.075 497.31 160.381 497.205 160.677C497.104 160.968 496.965 161.258 496.788 161.545C496.605 161.832 496.389 162.121 496.138 162.413C495.892 162.705 495.623 163.006 495.332 163.315L493.117 165.681H497.752V167Z" fill="#30C9B0"/>
<rect opacity="0.5" x="514.54" y="192" width="97.2762" height="8" fill="#FC97AA"/>
<g clip-path="url(#clip1_2959_42327)">
<line x1="501.087" y1="192.5" x2="516.087" y2="192.5" stroke="#FC97AA"/>
<line x1="508.587" y1="201" x2="508.587" y2="193" stroke="#FC97AA"/>
<line x1="501.087" y1="199.5" x2="516.087" y2="199.5" stroke="#FC97AA"/>
</g>
<path d="M495.34 193.672C495.34 193.973 495.29 194.253 495.189 194.513C495.094 194.772 494.957 195.005 494.779 195.21C494.67 195.342 494.545 195.465 494.403 195.579C494.262 195.693 494.105 195.793 493.932 195.88C494.137 195.976 494.326 196.087 494.499 196.215C494.677 196.338 494.832 196.481 494.964 196.646C495.151 196.864 495.297 197.113 495.401 197.391C495.506 197.669 495.559 197.969 495.559 198.293C495.559 198.753 495.474 199.161 495.306 199.517C495.137 199.872 494.907 200.168 494.615 200.405C494.319 200.647 493.973 200.829 493.576 200.952C493.184 201.075 492.76 201.137 492.305 201.137C491.84 201.137 491.407 201.075 491.006 200.952C490.609 200.829 490.265 200.647 489.974 200.405C489.677 200.168 489.445 199.874 489.276 199.523C489.112 199.168 489.03 198.758 489.03 198.293C489.03 198.02 489.067 197.76 489.14 197.514C489.217 197.268 489.326 197.04 489.468 196.83C489.609 196.63 489.778 196.45 489.974 196.29C490.174 196.126 490.397 195.987 490.644 195.873C490.434 195.768 490.243 195.641 490.069 195.49C489.901 195.34 489.757 195.174 489.639 194.991C489.516 194.804 489.42 194.599 489.352 194.376C489.283 194.153 489.249 193.918 489.249 193.672C489.249 193.23 489.324 192.838 489.475 192.496C489.63 192.154 489.841 191.865 490.11 191.628C490.375 191.391 490.691 191.213 491.061 191.095C491.434 190.972 491.842 190.91 492.284 190.91C492.722 190.91 493.125 190.972 493.494 191.095C493.868 191.213 494.194 191.391 494.472 191.628C494.741 191.86 494.952 192.15 495.107 192.496C495.262 192.838 495.34 193.23 495.34 193.672ZM493.925 198.204C493.925 197.958 493.884 197.735 493.802 197.534C493.724 197.329 493.615 197.151 493.474 197.001C493.328 196.86 493.155 196.75 492.954 196.673C492.754 196.595 492.533 196.557 492.291 196.557C492.04 196.557 491.815 196.595 491.614 196.673C491.418 196.75 491.25 196.86 491.108 197.001C490.967 197.151 490.858 197.329 490.78 197.534C490.707 197.735 490.671 197.96 490.671 198.211C490.671 198.466 490.71 198.696 490.787 198.901C490.865 199.102 490.976 199.271 491.122 199.407C491.263 199.539 491.432 199.642 491.628 199.715C491.828 199.783 492.054 199.817 492.305 199.817C492.542 199.817 492.758 199.781 492.954 199.708C493.155 199.635 493.328 199.53 493.474 199.394C493.61 199.252 493.72 199.084 493.802 198.888C493.884 198.687 493.925 198.459 493.925 198.204ZM493.713 193.733C493.713 193.51 493.676 193.307 493.604 193.125C493.535 192.943 493.439 192.783 493.316 192.646C493.189 192.519 493.038 192.419 492.865 192.346C492.692 192.273 492.496 192.236 492.277 192.236C492.063 192.236 491.869 192.273 491.696 192.346C491.528 192.414 491.382 192.512 491.259 192.64C491.14 192.767 491.049 192.924 490.985 193.111C490.922 193.298 490.89 193.506 490.89 193.733C490.89 193.957 490.922 194.162 490.985 194.349C491.049 194.531 491.145 194.686 491.272 194.813C491.396 194.946 491.544 195.048 491.717 195.121C491.89 195.194 492.084 195.23 492.298 195.23C492.512 195.23 492.706 195.194 492.879 195.121C493.052 195.048 493.2 194.946 493.323 194.813C493.446 194.686 493.542 194.531 493.61 194.349C493.679 194.162 493.713 193.957 493.713 193.733Z" fill="#FC97AA"/>
<rect opacity="0.5" x="514.54" y="124" width="37.5" height="8" fill="#FC97AA"/>
<g clip-path="url(#clip2_2959_42327)">
<line x1="501.087" y1="124.5" x2="516.087" y2="124.5" stroke="#FC97AA"/>
<line x1="508.587" y1="133" x2="508.587" y2="125" stroke="#FC97AA"/>
<line x1="501.087" y1="131.5" x2="516.087" y2="131.5" stroke="#FC97AA"/>
</g>
<path d="M495.34 125.672C495.34 125.973 495.29 126.253 495.189 126.513C495.094 126.772 494.957 127.005 494.779 127.21C494.67 127.342 494.545 127.465 494.403 127.579C494.262 127.693 494.105 127.793 493.932 127.88C494.137 127.976 494.326 128.087 494.499 128.215C494.677 128.338 494.832 128.481 494.964 128.646C495.151 128.864 495.297 129.113 495.401 129.391C495.506 129.669 495.559 129.969 495.559 130.293C495.559 130.753 495.474 131.161 495.306 131.517C495.137 131.872 494.907 132.168 494.615 132.405C494.319 132.647 493.973 132.829 493.576 132.952C493.184 133.075 492.76 133.137 492.305 133.137C491.84 133.137 491.407 133.075 491.006 132.952C490.609 132.829 490.265 132.647 489.974 132.405C489.677 132.168 489.445 131.874 489.276 131.523C489.112 131.168 489.03 130.758 489.03 130.293C489.03 130.02 489.067 129.76 489.14 129.514C489.217 129.268 489.326 129.04 489.468 128.83C489.609 128.63 489.778 128.45 489.974 128.29C490.174 128.126 490.397 127.987 490.644 127.873C490.434 127.768 490.243 127.641 490.069 127.49C489.901 127.34 489.757 127.174 489.639 126.991C489.516 126.804 489.42 126.599 489.352 126.376C489.283 126.153 489.249 125.918 489.249 125.672C489.249 125.23 489.324 124.838 489.475 124.496C489.63 124.154 489.841 123.865 490.11 123.628C490.375 123.391 490.691 123.213 491.061 123.095C491.434 122.972 491.842 122.91 492.284 122.91C492.722 122.91 493.125 122.972 493.494 123.095C493.868 123.213 494.194 123.391 494.472 123.628C494.741 123.86 494.952 124.15 495.107 124.496C495.262 124.838 495.34 125.23 495.34 125.672ZM493.925 130.204C493.925 129.958 493.884 129.735 493.802 129.534C493.724 129.329 493.615 129.151 493.474 129.001C493.328 128.86 493.155 128.75 492.954 128.673C492.754 128.595 492.533 128.557 492.291 128.557C492.04 128.557 491.815 128.595 491.614 128.673C491.418 128.75 491.25 128.86 491.108 129.001C490.967 129.151 490.858 129.329 490.78 129.534C490.707 129.735 490.671 129.96 490.671 130.211C490.671 130.466 490.71 130.696 490.787 130.901C490.865 131.102 490.976 131.271 491.122 131.407C491.263 131.539 491.432 131.642 491.628 131.715C491.828 131.783 492.054 131.817 492.305 131.817C492.542 131.817 492.758 131.781 492.954 131.708C493.155 131.635 493.328 131.53 493.474 131.394C493.61 131.252 493.72 131.084 493.802 130.888C493.884 130.687 493.925 130.459 493.925 130.204ZM493.713 125.733C493.713 125.51 493.676 125.307 493.604 125.125C493.535 124.943 493.439 124.783 493.316 124.646C493.189 124.519 493.038 124.419 492.865 124.346C492.692 124.273 492.496 124.236 492.277 124.236C492.063 124.236 491.869 124.273 491.696 124.346C491.528 124.414 491.382 124.512 491.259 124.64C491.14 124.767 491.049 124.924 490.985 125.111C490.922 125.298 490.89 125.506 490.89 125.733C490.89 125.957 490.922 126.162 490.985 126.349C491.049 126.531 491.145 126.686 491.272 126.813C491.396 126.946 491.544 127.048 491.717 127.121C491.89 127.194 492.084 127.23 492.298 127.23C492.512 127.23 492.706 127.194 492.879 127.121C493.052 127.048 493.2 126.946 493.323 126.813C493.446 126.686 493.542 126.531 493.61 126.349C493.679 126.162 493.713 125.957 493.713 125.733Z" fill="#FC97AA"/>
<g clip-path="url(#clip3_2959_42327)">
<rect x="643.317" y="136.5" width="12.3333" height="15" stroke="#C7A5FA" stroke-opacity="0.5" stroke-dasharray="4 4"/>
</g>
<rect opacity="0.5" x="567.015" y="135" width="12" height="54.459" fill="#30C9B0"/>
<g clip-path="url(#clip4_2959_42327)">
<line x1="567.697" y1="131" x2="567.697" y2="116" stroke="#30C9B0"/>
<line x1="567.197" y1="123.5" x2="578.397" y2="123.5" stroke="#30C9B0"/>
<line x1="577.697" y1="131" x2="577.697" y2="116" stroke="#30C9B0"/>
</g>
<path d="M569.941 113H568.294V105.07L565.744 106.007V104.564L569.839 103.047H569.941V113ZM580.123 113H573.445V111.865L576.685 108.338C576.954 108.042 577.179 107.777 577.362 107.545C577.544 107.308 577.692 107.091 577.806 106.896C577.915 106.7 577.993 106.517 578.038 106.349C578.089 106.175 578.114 106.002 578.114 105.829C578.114 105.597 578.079 105.385 578.011 105.193C577.943 105.002 577.842 104.838 577.71 104.701C577.578 104.564 577.419 104.457 577.232 104.38C577.049 104.302 576.844 104.264 576.617 104.264C576.325 104.264 576.072 104.305 575.858 104.387C575.644 104.469 575.466 104.585 575.325 104.735C575.179 104.895 575.069 105.089 574.996 105.316C574.923 105.54 574.887 105.795 574.887 106.082H573.246C573.246 105.649 573.326 105.241 573.486 104.858C573.645 104.471 573.873 104.134 574.169 103.847C574.461 103.56 574.816 103.332 575.236 103.163C575.659 102.994 576.131 102.91 576.651 102.91C577.138 102.91 577.574 102.981 577.956 103.122C578.344 103.263 578.67 103.459 578.934 103.71C579.194 103.961 579.392 104.261 579.529 104.612C579.665 104.959 579.734 105.341 579.734 105.761C579.734 106.075 579.681 106.381 579.576 106.677C579.476 106.968 579.337 107.258 579.159 107.545C578.977 107.832 578.761 108.121 578.51 108.413C578.264 108.705 577.995 109.006 577.703 109.315L575.489 111.681H580.123V113Z" fill="#30C9B0"/>
<rect opacity="0.5" x="634.833" y="135" width="8" height="17.1396" fill="#30C9B0"/>
<g clip-path="url(#clip5_2959_42327)">
<line x1="635.111" y1="131" x2="635.111" y2="116" stroke="#30C9B0"/>
<line x1="634.611" y1="123.5" x2="641.278" y2="123.5" stroke="#30C9B0"/>
<line x1="641.111" y1="131" x2="641.111" y2="116" stroke="#30C9B0"/>
</g>
<path d="M640.993 105.672C640.993 105.973 640.943 106.253 640.843 106.513C640.747 106.772 640.611 107.005 640.433 107.21C640.323 107.342 640.198 107.465 640.057 107.579C639.916 107.693 639.758 107.793 639.585 107.88C639.79 107.976 639.979 108.087 640.153 108.215C640.33 108.338 640.485 108.481 640.617 108.646C640.804 108.864 640.95 109.113 641.055 109.391C641.16 109.669 641.212 109.969 641.212 110.293C641.212 110.753 641.128 111.161 640.959 111.517C640.791 111.872 640.56 112.168 640.269 112.405C639.973 112.647 639.626 112.829 639.23 112.952C638.838 113.075 638.414 113.137 637.958 113.137C637.493 113.137 637.06 113.075 636.659 112.952C636.263 112.829 635.919 112.647 635.627 112.405C635.331 112.168 635.099 111.874 634.93 111.523C634.766 111.168 634.684 110.758 634.684 110.293C634.684 110.02 634.72 109.76 634.793 109.514C634.871 109.268 634.98 109.04 635.121 108.83C635.263 108.63 635.431 108.45 635.627 108.29C635.828 108.126 636.051 107.987 636.297 107.873C636.087 107.768 635.896 107.641 635.723 107.49C635.554 107.34 635.411 107.174 635.292 106.991C635.169 106.804 635.073 106.599 635.005 106.376C634.937 106.153 634.903 105.918 634.903 105.672C634.903 105.23 634.978 104.838 635.128 104.496C635.283 104.154 635.495 103.865 635.764 103.628C636.028 103.391 636.345 103.213 636.714 103.095C637.088 102.972 637.496 102.91 637.938 102.91C638.375 102.91 638.779 102.972 639.148 103.095C639.521 103.213 639.847 103.391 640.125 103.628C640.394 103.86 640.606 104.15 640.761 104.496C640.916 104.838 640.993 105.23 640.993 105.672ZM639.578 110.204C639.578 109.958 639.537 109.735 639.455 109.534C639.378 109.329 639.268 109.151 639.127 109.001C638.981 108.86 638.808 108.75 638.608 108.673C638.407 108.595 638.186 108.557 637.945 108.557C637.694 108.557 637.468 108.595 637.268 108.673C637.072 108.75 636.903 108.86 636.762 109.001C636.621 109.151 636.511 109.329 636.434 109.534C636.361 109.735 636.324 109.96 636.324 110.211C636.324 110.466 636.363 110.696 636.441 110.901C636.518 111.102 636.63 111.271 636.776 111.407C636.917 111.539 637.086 111.642 637.281 111.715C637.482 111.783 637.708 111.817 637.958 111.817C638.195 111.817 638.412 111.781 638.608 111.708C638.808 111.635 638.981 111.53 639.127 111.394C639.264 111.252 639.373 111.084 639.455 110.888C639.537 110.687 639.578 110.459 639.578 110.204ZM639.366 105.733C639.366 105.51 639.33 105.307 639.257 105.125C639.189 104.943 639.093 104.783 638.97 104.646C638.842 104.519 638.692 104.419 638.519 104.346C638.346 104.273 638.15 104.236 637.931 104.236C637.717 104.236 637.523 104.273 637.35 104.346C637.181 104.414 637.035 104.512 636.912 104.64C636.794 104.767 636.703 104.924 636.639 105.111C636.575 105.298 636.543 105.506 636.543 105.733C636.543 105.957 636.575 106.162 636.639 106.349C636.703 106.531 636.798 106.686 636.926 106.813C637.049 106.946 637.197 107.048 637.37 107.121C637.544 107.194 637.737 107.23 637.951 107.23C638.166 107.23 638.359 107.194 638.532 107.121C638.706 107.048 638.854 106.946 638.977 106.813C639.1 106.686 639.196 106.531 639.264 106.349C639.332 106.162 639.366 105.957 639.366 105.733Z" fill="#30C9B0"/>
<rect opacity="0.5" x="656.217" y="135.112" width="12" height="17.0916" fill="#FC97AA"/>
<g clip-path="url(#clip6_2959_42327)">
<line x1="657.798" y1="131.112" x2="657.798" y2="116.112" stroke="#FC97AA"/>
<line x1="657.298" y1="123.612" x2="669.298" y2="123.612" stroke="#FC97AA"/>
<line x1="668.798" y1="131.112" x2="668.798" y2="116.112" stroke="#FC97AA"/>
</g>
<path d="M659.776 113.112H658.128V105.183L655.579 106.119V104.677L659.673 103.159H659.776V113.112ZM669.958 113.112H663.279V111.978L666.52 108.45C666.788 108.154 667.014 107.89 667.196 107.657C667.379 107.42 667.527 107.204 667.641 107.008C667.75 106.812 667.828 106.63 667.873 106.461C667.923 106.288 667.948 106.115 667.948 105.941C667.948 105.709 667.914 105.497 667.846 105.306C667.777 105.114 667.677 104.95 667.545 104.813C667.413 104.677 667.253 104.57 667.066 104.492C666.884 104.415 666.679 104.376 666.451 104.376C666.16 104.376 665.907 104.417 665.692 104.499C665.478 104.581 665.301 104.697 665.159 104.848C665.013 105.007 664.904 105.201 664.831 105.429C664.758 105.652 664.722 105.907 664.722 106.194H663.081C663.081 105.761 663.161 105.354 663.32 104.971C663.48 104.583 663.708 104.246 664.004 103.959C664.296 103.672 664.651 103.444 665.07 103.275C665.494 103.107 665.966 103.022 666.485 103.022C666.973 103.022 667.408 103.093 667.791 103.234C668.178 103.376 668.504 103.572 668.769 103.822C669.028 104.073 669.227 104.374 669.363 104.725C669.5 105.071 669.568 105.454 669.568 105.873C669.568 106.188 669.516 106.493 669.411 106.789C669.311 107.081 669.172 107.37 668.994 107.657C668.812 107.944 668.595 108.234 668.345 108.525C668.099 108.817 667.83 109.118 667.538 109.428L665.323 111.793H669.958V113.112Z" fill="#FC97AA"/>
<defs>
<clipPath id="clip0_2959_42327">
<rect width="15" height="12" fill="white" transform="translate(501.087 156)"/>
</clipPath>
<clipPath id="clip1_2959_42327">
<rect width="15" height="8" fill="white" transform="translate(501.087 192)"/>
</clipPath>
<clipPath id="clip2_2959_42327">
<rect width="15" height="8" fill="white" transform="translate(501.087 124)"/>
</clipPath>
<clipPath id="clip3_2959_42327">
<rect width="13.3333" height="16" fill="white" transform="translate(642.817 136)"/>
</clipPath>
<clipPath id="clip4_2959_42327">
<rect width="11.2" height="15" fill="white" transform="translate(567.197 116)"/>
</clipPath>
<clipPath id="clip5_2959_42327">
<rect width="6.66667" height="15" fill="white" transform="translate(634.611 116)"/>
</clipPath>
<clipPath id="clip6_2959_42327">
<rect width="12" height="15" fill="white" transform="translate(657.298 116.112)"/>
</clipPath>
</defs>
</svg>
