<svg width="559" height="304" viewBox="0 0 559 304" fill="none" xmlns="http://www.w3.org/2000/svg">
<rect width="559" height="304" rx="16" fill="#1A1A1A"/>
<rect x="214.5" y="100" width="24" height="24" rx="12" fill="#932099"/>
<path d="M228.255 107.318V117.5H226.102V109.362H226.043L223.711 110.823V108.914L226.232 107.318H228.255Z" fill="white" fill-opacity="0.95"/>
<rect x="248.5" y="180" width="48" height="24" rx="12" fill="#64B4FA"/>
<rect x="274.5" y="182" width="20" height="20" rx="10" fill="white"/>
<path d="M282.7 195.075C282.651 195.075 282.602 195.065 282.556 195.046C282.51 195.027 282.469 194.999 282.434 194.964L279.734 192.251C279.699 192.216 279.672 192.175 279.653 192.129C279.635 192.084 279.625 192.035 279.625 191.986C279.625 191.936 279.635 191.888 279.654 191.842C279.673 191.797 279.701 191.755 279.736 191.721C279.771 191.686 279.812 191.658 279.858 191.64C279.903 191.621 279.952 191.611 280.001 191.612C280.05 191.612 280.099 191.622 280.145 191.641C280.19 191.66 280.231 191.687 280.266 191.722L282.72 194.189L288.756 189.016C288.832 188.951 288.93 188.919 289.029 188.926C289.128 188.934 289.22 188.981 289.285 189.056C289.349 189.132 289.381 189.23 289.374 189.329C289.366 189.428 289.319 189.52 289.244 189.585L282.944 194.984C282.876 195.043 282.79 195.075 282.7 195.075Z" fill="black" fill-opacity="0.95"/>
<path d="M309.733 197V186.818H310.966V195.906H315.699V197H309.733ZM319.696 197.179C319.212 197.179 318.773 197.088 318.379 196.906C317.984 196.72 317.671 196.453 317.439 196.105C317.207 195.754 317.091 195.33 317.091 194.832C317.091 194.395 317.177 194.04 317.349 193.768C317.522 193.493 317.752 193.278 318.04 193.122C318.329 192.966 318.647 192.85 318.995 192.774C319.346 192.695 319.699 192.632 320.054 192.585C320.518 192.526 320.894 192.481 321.183 192.451C321.474 192.418 321.686 192.363 321.819 192.287C321.955 192.211 322.023 192.078 322.023 191.889V191.849C322.023 191.359 321.888 190.978 321.62 190.706C321.355 190.434 320.952 190.298 320.412 190.298C319.852 190.298 319.413 190.421 319.094 190.666C318.776 190.911 318.553 191.173 318.423 191.452L317.31 191.054C317.509 190.59 317.774 190.229 318.105 189.97C318.44 189.708 318.804 189.526 319.199 189.423C319.597 189.317 319.988 189.264 320.372 189.264C320.617 189.264 320.899 189.294 321.217 189.354C321.539 189.41 321.849 189.528 322.147 189.707C322.449 189.886 322.699 190.156 322.898 190.517C323.097 190.878 323.196 191.362 323.196 191.969V197H322.023V195.966H321.963C321.884 196.132 321.751 196.309 321.565 196.498C321.38 196.687 321.133 196.848 320.825 196.98C320.516 197.113 320.14 197.179 319.696 197.179ZM319.875 196.125C320.339 196.125 320.73 196.034 321.048 195.852C321.37 195.669 321.612 195.434 321.774 195.146C321.94 194.857 322.023 194.554 322.023 194.236V193.162C321.973 193.222 321.864 193.276 321.695 193.326C321.529 193.372 321.337 193.414 321.118 193.45C320.902 193.483 320.692 193.513 320.487 193.54C320.284 193.563 320.12 193.583 319.994 193.599C319.689 193.639 319.404 193.704 319.139 193.793C318.877 193.879 318.665 194.01 318.503 194.186C318.344 194.358 318.264 194.594 318.264 194.892C318.264 195.3 318.415 195.608 318.717 195.817C319.022 196.022 319.408 196.125 319.875 196.125ZM325.497 197V186.818H326.67V190.577H326.769C326.856 190.444 326.975 190.275 327.127 190.07C327.283 189.861 327.505 189.675 327.794 189.513C328.085 189.347 328.48 189.264 328.977 189.264C329.62 189.264 330.186 189.425 330.677 189.746C331.168 190.068 331.55 190.524 331.825 191.114C332.101 191.704 332.238 192.4 332.238 193.202C332.238 194.01 332.101 194.711 331.825 195.305C331.55 195.895 331.169 196.352 330.682 196.677C330.195 196.998 329.633 197.159 328.997 197.159C328.506 197.159 328.113 197.078 327.818 196.915C327.523 196.75 327.296 196.562 327.137 196.354C326.978 196.142 326.856 195.966 326.769 195.827H326.63V197H325.497ZM326.65 193.182C326.65 193.759 326.735 194.267 326.904 194.708C327.073 195.146 327.32 195.489 327.644 195.737C327.969 195.982 328.367 196.105 328.838 196.105C329.328 196.105 329.737 195.976 330.066 195.717C330.397 195.455 330.646 195.104 330.811 194.663C330.98 194.219 331.065 193.725 331.065 193.182C331.065 192.645 330.982 192.161 330.816 191.73C330.654 191.296 330.407 190.953 330.075 190.701C329.747 190.446 329.335 190.318 328.838 190.318C328.36 190.318 327.959 190.439 327.634 190.681C327.31 190.92 327.064 191.254 326.899 191.685C326.733 192.113 326.65 192.612 326.65 193.182ZM337.235 197.159C336.499 197.159 335.864 196.997 335.33 196.672C334.8 196.344 334.391 195.886 334.102 195.3C333.817 194.71 333.675 194.024 333.675 193.241C333.675 192.459 333.817 191.77 334.102 191.173C334.391 190.573 334.792 190.106 335.306 189.771C335.823 189.433 336.426 189.264 337.115 189.264C337.513 189.264 337.906 189.33 338.294 189.463C338.681 189.596 339.034 189.811 339.352 190.109C339.671 190.404 339.924 190.795 340.113 191.283C340.302 191.77 340.396 192.37 340.396 193.082V193.58H334.51V192.565H339.203C339.203 192.134 339.117 191.75 338.945 191.412C338.776 191.074 338.534 190.807 338.219 190.612C337.907 190.416 337.539 190.318 337.115 190.318C336.648 190.318 336.244 190.434 335.902 190.666C335.564 190.895 335.304 191.193 335.122 191.561C334.939 191.929 334.848 192.323 334.848 192.744V193.42C334.848 193.997 334.948 194.486 335.146 194.887C335.349 195.285 335.629 195.588 335.987 195.797C336.345 196.002 336.761 196.105 337.235 196.105C337.543 196.105 337.821 196.062 338.07 195.976C338.322 195.886 338.539 195.754 338.721 195.578C338.903 195.399 339.044 195.177 339.144 194.912L340.277 195.23C340.158 195.615 339.957 195.953 339.676 196.244C339.394 196.533 339.046 196.758 338.632 196.92C338.217 197.08 337.752 197.159 337.235 197.159ZM343.355 186.818V197H342.181V186.818H343.355Z" fill="white" fill-opacity="0.95"/>
<rect x="248.5" y="100" width="48" height="24" rx="12" fill="#64B4FA"/>
<rect x="274.5" y="102" width="20" height="20" rx="10" fill="white"/>
<path d="M282.7 115.075C282.651 115.075 282.602 115.065 282.556 115.046C282.51 115.027 282.469 114.999 282.434 114.964L279.734 112.251C279.699 112.216 279.672 112.175 279.653 112.129C279.635 112.084 279.625 112.035 279.625 111.986C279.625 111.936 279.635 111.888 279.654 111.842C279.673 111.797 279.701 111.755 279.736 111.721C279.771 111.686 279.812 111.658 279.858 111.64C279.903 111.621 279.952 111.611 280.001 111.612C280.05 111.612 280.099 111.622 280.145 111.641C280.19 111.66 280.231 111.687 280.266 111.722L282.72 114.189L288.756 109.016C288.832 108.951 288.93 108.919 289.029 108.926C289.128 108.934 289.22 108.981 289.285 109.056C289.349 109.132 289.381 109.23 289.374 109.329C289.366 109.428 289.319 109.52 289.244 109.585L282.944 114.984C282.876 115.043 282.79 115.075 282.7 115.075Z" fill="black" fill-opacity="0.95"/>
<path d="M309.733 117V106.818H310.966V115.906H315.699V117H309.733ZM319.696 117.179C319.212 117.179 318.773 117.088 318.379 116.906C317.984 116.72 317.671 116.453 317.439 116.105C317.207 115.754 317.091 115.33 317.091 114.832C317.091 114.395 317.177 114.04 317.349 113.768C317.522 113.493 317.752 113.278 318.04 113.122C318.329 112.966 318.647 112.85 318.995 112.774C319.346 112.695 319.699 112.632 320.054 112.585C320.518 112.526 320.894 112.481 321.183 112.451C321.474 112.418 321.686 112.363 321.819 112.287C321.955 112.211 322.023 112.078 322.023 111.889V111.849C322.023 111.359 321.888 110.978 321.62 110.706C321.355 110.434 320.952 110.298 320.412 110.298C319.852 110.298 319.413 110.421 319.094 110.666C318.776 110.911 318.553 111.173 318.423 111.452L317.31 111.054C317.509 110.59 317.774 110.229 318.105 109.97C318.44 109.708 318.804 109.526 319.199 109.423C319.597 109.317 319.988 109.264 320.372 109.264C320.617 109.264 320.899 109.294 321.217 109.354C321.539 109.41 321.849 109.528 322.147 109.707C322.449 109.886 322.699 110.156 322.898 110.517C323.097 110.878 323.196 111.362 323.196 111.969V117H322.023V115.966H321.963C321.884 116.132 321.751 116.309 321.565 116.498C321.38 116.687 321.133 116.848 320.825 116.98C320.516 117.113 320.14 117.179 319.696 117.179ZM319.875 116.125C320.339 116.125 320.73 116.034 321.048 115.852C321.37 115.669 321.612 115.434 321.774 115.146C321.94 114.857 322.023 114.554 322.023 114.236V113.162C321.973 113.222 321.864 113.276 321.695 113.326C321.529 113.372 321.337 113.414 321.118 113.45C320.902 113.483 320.692 113.513 320.487 113.54C320.284 113.563 320.12 113.583 319.994 113.599C319.689 113.639 319.404 113.704 319.139 113.793C318.877 113.879 318.665 114.01 318.503 114.186C318.344 114.358 318.264 114.594 318.264 114.892C318.264 115.3 318.415 115.608 318.717 115.817C319.022 116.022 319.408 116.125 319.875 116.125ZM325.497 117V106.818H326.67V110.577H326.769C326.856 110.444 326.975 110.275 327.127 110.07C327.283 109.861 327.505 109.675 327.794 109.513C328.085 109.347 328.48 109.264 328.977 109.264C329.62 109.264 330.186 109.425 330.677 109.746C331.168 110.068 331.55 110.524 331.825 111.114C332.101 111.704 332.238 112.4 332.238 113.202C332.238 114.01 332.101 114.711 331.825 115.305C331.55 115.895 331.169 116.352 330.682 116.677C330.195 116.998 329.633 117.159 328.997 117.159C328.506 117.159 328.113 117.078 327.818 116.915C327.523 116.75 327.296 116.562 327.137 116.354C326.978 116.142 326.856 115.966 326.769 115.827H326.63V117H325.497ZM326.65 113.182C326.65 113.759 326.735 114.267 326.904 114.708C327.073 115.146 327.32 115.489 327.644 115.737C327.969 115.982 328.367 116.105 328.838 116.105C329.328 116.105 329.737 115.976 330.066 115.717C330.397 115.455 330.646 115.104 330.811 114.663C330.98 114.219 331.065 113.725 331.065 113.182C331.065 112.645 330.982 112.161 330.816 111.73C330.654 111.296 330.407 110.953 330.075 110.701C329.747 110.446 329.335 110.318 328.838 110.318C328.36 110.318 327.959 110.439 327.634 110.681C327.31 110.92 327.064 111.254 326.899 111.685C326.733 112.113 326.65 112.612 326.65 113.182ZM337.235 117.159C336.499 117.159 335.864 116.997 335.33 116.672C334.8 116.344 334.391 115.886 334.102 115.3C333.817 114.71 333.675 114.024 333.675 113.241C333.675 112.459 333.817 111.77 334.102 111.173C334.391 110.573 334.792 110.106 335.306 109.771C335.823 109.433 336.426 109.264 337.115 109.264C337.513 109.264 337.906 109.33 338.294 109.463C338.681 109.596 339.034 109.811 339.352 110.109C339.671 110.404 339.924 110.795 340.113 111.283C340.302 111.77 340.396 112.37 340.396 113.082V113.58H334.51V112.565H339.203C339.203 112.134 339.117 111.75 338.945 111.412C338.776 111.074 338.534 110.807 338.219 110.612C337.907 110.416 337.539 110.318 337.115 110.318C336.648 110.318 336.244 110.434 335.902 110.666C335.564 110.895 335.304 111.193 335.122 111.561C334.939 111.929 334.848 112.323 334.848 112.744V113.42C334.848 113.997 334.948 114.486 335.146 114.887C335.349 115.285 335.629 115.588 335.987 115.797C336.345 116.002 336.761 116.105 337.235 116.105C337.543 116.105 337.821 116.062 338.07 115.976C338.322 115.886 338.539 115.754 338.721 115.578C338.903 115.399 339.044 115.177 339.144 114.912L340.277 115.23C340.158 115.615 339.957 115.953 339.676 116.244C339.394 116.533 339.046 116.758 338.632 116.92C338.217 117.08 337.752 117.159 337.235 117.159ZM343.355 106.818V117H342.181V106.818H343.355Z" fill="white" fill-opacity="0.95"/>
<rect x="248.5" y="140" width="48" height="24" rx="12" fill="white" fill-opacity="0.2"/>
<rect x="248.5" y="140" width="48" height="24" rx="12" stroke="#707070"/>
<rect x="250.5" y="142" width="20" height="20" rx="10" fill="white"/>
<path d="M261.03 152L264.14 148.89C264.175 148.855 264.203 148.814 264.221 148.768C264.24 148.723 264.25 148.674 264.25 148.625C264.25 148.576 264.24 148.527 264.221 148.482C264.203 148.436 264.175 148.395 264.14 148.36C264.105 148.325 264.064 148.297 264.018 148.279C263.973 148.26 263.924 148.25 263.875 148.25C263.826 148.25 263.777 148.26 263.731 148.279C263.686 148.297 263.645 148.325 263.61 148.36L260.5 151.47L257.39 148.36C257.355 148.325 257.314 148.297 257.268 148.278C257.223 148.259 257.174 148.249 257.124 148.249C257.075 148.248 257.026 148.258 256.98 148.277C256.935 148.296 256.893 148.323 256.858 148.358C256.823 148.393 256.796 148.435 256.777 148.481C256.758 148.526 256.748 148.575 256.748 148.625C256.749 148.674 256.759 148.723 256.778 148.768C256.797 148.814 256.825 148.855 256.86 148.89L259.97 152L256.86 155.11C256.825 155.145 256.797 155.186 256.779 155.232C256.76 155.277 256.75 155.326 256.75 155.375C256.75 155.424 256.76 155.473 256.779 155.519C256.797 155.564 256.825 155.605 256.86 155.64C256.895 155.675 256.936 155.703 256.981 155.721C257.027 155.74 257.076 155.75 257.125 155.75C257.174 155.75 257.223 155.74 257.268 155.721C257.314 155.703 257.355 155.675 257.39 155.64L260.5 152.53L263.61 155.64C263.68 155.71 263.776 155.75 263.875 155.75C263.974 155.75 264.07 155.71 264.14 155.64C264.21 155.57 264.25 155.474 264.25 155.375C264.25 155.276 264.21 155.18 264.14 155.11L261.03 152Z" fill="black" fill-opacity="0.95"/>
<path d="M309.733 157V146.818H310.966V155.906H315.699V157H309.733ZM319.696 157.179C319.212 157.179 318.773 157.088 318.379 156.906C317.984 156.72 317.671 156.453 317.439 156.105C317.207 155.754 317.091 155.33 317.091 154.832C317.091 154.395 317.177 154.04 317.349 153.768C317.522 153.493 317.752 153.278 318.04 153.122C318.329 152.966 318.647 152.85 318.995 152.774C319.346 152.695 319.699 152.632 320.054 152.585C320.518 152.526 320.894 152.481 321.183 152.451C321.474 152.418 321.686 152.363 321.819 152.287C321.955 152.211 322.023 152.078 322.023 151.889V151.849C322.023 151.359 321.888 150.978 321.62 150.706C321.355 150.434 320.952 150.298 320.412 150.298C319.852 150.298 319.413 150.421 319.094 150.666C318.776 150.911 318.553 151.173 318.423 151.452L317.31 151.054C317.509 150.59 317.774 150.229 318.105 149.97C318.44 149.708 318.804 149.526 319.199 149.423C319.597 149.317 319.988 149.264 320.372 149.264C320.617 149.264 320.899 149.294 321.217 149.354C321.539 149.41 321.849 149.528 322.147 149.707C322.449 149.886 322.699 150.156 322.898 150.517C323.097 150.878 323.196 151.362 323.196 151.969V157H322.023V155.966H321.963C321.884 156.132 321.751 156.309 321.565 156.498C321.38 156.687 321.133 156.848 320.825 156.98C320.516 157.113 320.14 157.179 319.696 157.179ZM319.875 156.125C320.339 156.125 320.73 156.034 321.048 155.852C321.37 155.669 321.612 155.434 321.774 155.146C321.94 154.857 322.023 154.554 322.023 154.236V153.162C321.973 153.222 321.864 153.276 321.695 153.326C321.529 153.372 321.337 153.414 321.118 153.45C320.902 153.483 320.692 153.513 320.487 153.54C320.284 153.563 320.12 153.583 319.994 153.599C319.689 153.639 319.404 153.704 319.139 153.793C318.877 153.879 318.665 154.01 318.503 154.186C318.344 154.358 318.264 154.594 318.264 154.892C318.264 155.3 318.415 155.608 318.717 155.817C319.022 156.022 319.408 156.125 319.875 156.125ZM325.497 157V146.818H326.67V150.577H326.769C326.856 150.444 326.975 150.275 327.127 150.07C327.283 149.861 327.505 149.675 327.794 149.513C328.085 149.347 328.48 149.264 328.977 149.264C329.62 149.264 330.186 149.425 330.677 149.746C331.168 150.068 331.55 150.524 331.825 151.114C332.101 151.704 332.238 152.4 332.238 153.202C332.238 154.01 332.101 154.711 331.825 155.305C331.55 155.895 331.169 156.352 330.682 156.677C330.195 156.998 329.633 157.159 328.997 157.159C328.506 157.159 328.113 157.078 327.818 156.915C327.523 156.75 327.296 156.562 327.137 156.354C326.978 156.142 326.856 155.966 326.769 155.827H326.63V157H325.497ZM326.65 153.182C326.65 153.759 326.735 154.267 326.904 154.708C327.073 155.146 327.32 155.489 327.644 155.737C327.969 155.982 328.367 156.105 328.838 156.105C329.328 156.105 329.737 155.976 330.066 155.717C330.397 155.455 330.646 155.104 330.811 154.663C330.98 154.219 331.065 153.725 331.065 153.182C331.065 152.645 330.982 152.161 330.816 151.73C330.654 151.296 330.407 150.953 330.075 150.701C329.747 150.446 329.335 150.318 328.838 150.318C328.36 150.318 327.959 150.439 327.634 150.681C327.31 150.92 327.064 151.254 326.899 151.685C326.733 152.113 326.65 152.612 326.65 153.182ZM337.235 157.159C336.499 157.159 335.864 156.997 335.33 156.672C334.8 156.344 334.391 155.886 334.102 155.3C333.817 154.71 333.675 154.024 333.675 153.241C333.675 152.459 333.817 151.77 334.102 151.173C334.391 150.573 334.792 150.106 335.306 149.771C335.823 149.433 336.426 149.264 337.115 149.264C337.513 149.264 337.906 149.33 338.294 149.463C338.681 149.596 339.034 149.811 339.352 150.109C339.671 150.404 339.924 150.795 340.113 151.283C340.302 151.77 340.396 152.37 340.396 153.082V153.58H334.51V152.565H339.203C339.203 152.134 339.117 151.75 338.945 151.412C338.776 151.074 338.534 150.807 338.219 150.612C337.907 150.416 337.539 150.318 337.115 150.318C336.648 150.318 336.244 150.434 335.902 150.666C335.564 150.895 335.304 151.193 335.122 151.561C334.939 151.929 334.848 152.323 334.848 152.744V153.42C334.848 153.997 334.948 154.486 335.146 154.887C335.349 155.285 335.629 155.588 335.987 155.797C336.345 156.002 336.761 156.105 337.235 156.105C337.543 156.105 337.821 156.062 338.07 155.976C338.322 155.886 338.539 155.754 338.721 155.578C338.903 155.399 339.044 155.177 339.144 154.912L340.277 155.23C340.158 155.615 339.957 155.953 339.676 156.244C339.394 156.533 339.046 156.758 338.632 156.92C338.217 157.08 337.752 157.159 337.235 157.159ZM343.355 146.818V157H342.181V146.818H343.355Z" fill="white" fill-opacity="0.95"/>
</svg>
