<svg width="101" height="34" viewBox="0 0 101 34" fill="none" xmlns="http://www.w3.org/2000/svg">
<g filter="url(#filter0_ddd_2959_42736)">
<rect x="5" y="5" width="48" height="24" rx="12" fill="#64B4FA"/>
</g>
<rect x="31" y="7" width="20" height="20" rx="10" fill="white"/>
<path d="M39.2003 20.0748C39.1508 20.075 39.1019 20.0652 39.0562 20.0462C39.0106 20.0273 38.9692 19.9994 38.9344 19.9642L36.2343 17.251C36.1996 17.2161 36.1721 17.1747 36.1534 17.1291C36.1347 17.0836 36.1251 17.0348 36.1252 16.9855C36.1254 16.9363 36.1352 16.8876 36.1542 16.8421C36.1732 16.7967 36.2009 16.7554 36.2358 16.7207C36.2707 16.686 36.3121 16.6585 36.3577 16.6398C36.4032 16.621 36.452 16.6115 36.5012 16.6116C36.5505 16.6118 36.5992 16.6216 36.6447 16.6406C36.6901 16.6595 36.7314 16.6873 36.7661 16.7222L39.2204 19.1886L45.2563 14.0155C45.3318 13.9508 45.4298 13.9188 45.5289 13.9264C45.628 13.934 45.7201 13.9807 45.7847 14.0562C45.8494 14.1316 45.8815 14.2297 45.8739 14.3288C45.8662 14.4279 45.8196 14.5199 45.7441 14.5846L39.4442 19.9844C39.3764 20.0428 39.2898 20.0749 39.2003 20.0748Z" fill="black" fill-opacity="0.95"/>
<path d="M66.233 22V11.8182H67.4659V20.9062H72.1989V22H66.233ZM76.196 22.179C75.7121 22.179 75.273 22.0878 74.8786 21.9055C74.4841 21.7199 74.1709 21.4531 73.9389 21.1051C73.7069 20.7538 73.5909 20.3295 73.5909 19.8324C73.5909 19.3949 73.6771 19.0402 73.8494 18.7685C74.0218 18.4934 74.2521 18.2779 74.5405 18.1222C74.8288 17.9664 75.147 17.8504 75.495 17.7741C75.8464 17.6946 76.1993 17.6316 76.554 17.5852C77.018 17.5256 77.3942 17.4808 77.6825 17.451C77.9742 17.4179 78.1863 17.3632 78.3189 17.2869C78.4548 17.2107 78.5227 17.0781 78.5227 16.8892V16.8494C78.5227 16.3589 78.3885 15.9777 78.12 15.706C77.8549 15.4342 77.4522 15.2983 76.9119 15.2983C76.3518 15.2983 75.9126 15.4209 75.5945 15.6662C75.2763 15.9115 75.0526 16.1733 74.9233 16.4517L73.8097 16.054C74.0085 15.59 74.2737 15.2287 74.6051 14.9702C74.9399 14.7083 75.3045 14.526 75.6989 14.4233C76.0966 14.3172 76.4877 14.2642 76.8722 14.2642C77.1174 14.2642 77.3991 14.294 77.7173 14.3537C78.0388 14.41 78.3487 14.5277 78.647 14.7067C78.9486 14.8857 79.1989 15.1558 79.3977 15.517C79.5966 15.8783 79.696 16.3622 79.696 16.9688V22H78.5227V20.9659H78.4631C78.3835 21.1316 78.2509 21.3089 78.0653 21.4979C77.8797 21.6868 77.6328 21.8475 77.3246 21.9801C77.0163 22.1127 76.6402 22.179 76.196 22.179ZM76.375 21.125C76.839 21.125 77.2301 21.0339 77.5483 20.8516C77.8698 20.6693 78.1117 20.4339 78.2741 20.1456C78.4399 19.8572 78.5227 19.554 78.5227 19.2358V18.1619C78.473 18.2216 78.3636 18.2763 78.1946 18.326C78.0289 18.3724 77.8366 18.4138 77.6179 18.4503C77.4025 18.4834 77.192 18.5133 76.9865 18.5398C76.7843 18.563 76.6203 18.5829 76.4943 18.5994C76.1894 18.6392 75.9044 18.7038 75.6392 18.7933C75.3774 18.8795 75.1652 19.0104 75.0028 19.1861C74.8438 19.3584 74.7642 19.5937 74.7642 19.892C74.7642 20.2997 74.915 20.608 75.2166 20.8168C75.5215 21.0223 75.9077 21.125 76.375 21.125ZM81.9966 22V11.8182H83.1699V15.5767H83.2694C83.3555 15.4441 83.4748 15.2751 83.6273 15.0696C83.7831 14.8608 84.0051 14.6752 84.2935 14.5128C84.5852 14.3471 84.9796 14.2642 85.4767 14.2642C86.1197 14.2642 86.6865 14.425 87.177 14.7464C87.6676 15.0679 88.0504 15.5237 88.3255 16.1136C88.6006 16.7036 88.7381 17.3996 88.7381 18.2017C88.7381 19.0104 88.6006 19.7114 88.3255 20.3047C88.0504 20.8946 87.6692 21.352 87.182 21.6768C86.6948 21.9983 86.133 22.1591 85.4966 22.1591C85.0061 22.1591 84.6133 22.0779 84.3184 21.9155C84.0234 21.7498 83.7963 21.5625 83.6373 21.3537C83.4782 21.1416 83.3555 20.9659 83.2694 20.8267H83.1301V22H81.9966ZM83.15 18.1818C83.15 18.7585 83.2346 19.2673 83.4036 19.7081C83.5726 20.1456 83.8195 20.4886 84.1444 20.7372C84.4692 20.9825 84.8669 21.1051 85.3375 21.1051C85.8281 21.1051 86.2374 20.9759 86.5655 20.7173C86.897 20.4555 87.1455 20.1042 87.3113 19.6634C87.4803 19.2192 87.5648 18.7254 87.5648 18.1818C87.5648 17.6449 87.4819 17.161 87.3162 16.7301C87.1538 16.2959 86.9069 15.9529 86.5755 15.701C86.2473 15.4458 85.8347 15.3182 85.3375 15.3182C84.8603 15.3182 84.4592 15.4392 84.1344 15.6811C83.8096 15.9197 83.5643 16.2545 83.3986 16.6854C83.2329 17.1129 83.15 17.6117 83.15 18.1818ZM93.7346 22.1591C92.9988 22.1591 92.3641 21.9967 91.8304 21.6719C91.3001 21.3438 90.8908 20.8864 90.6025 20.2997C90.3174 19.7098 90.1749 19.0237 90.1749 18.2415C90.1749 17.4593 90.3174 16.7699 90.6025 16.1733C90.8908 15.5734 91.2918 15.1061 91.8056 14.7713C92.3226 14.4332 92.9258 14.2642 93.6152 14.2642C94.013 14.2642 94.4057 14.3305 94.7935 14.4631C95.1813 14.5956 95.5343 14.8111 95.8525 15.1094C96.1706 15.4044 96.4242 15.7955 96.6131 16.2827C96.802 16.7699 96.8965 17.3698 96.8965 18.0824V18.5795H91.0101V17.5653H95.7033C95.7033 17.1345 95.6171 16.75 95.4448 16.4119C95.2757 16.0739 95.0338 15.8071 94.7189 15.6115C94.4074 15.416 94.0395 15.3182 93.6152 15.3182C93.1479 15.3182 92.7435 15.4342 92.4022 15.6662C92.0641 15.8949 91.8039 16.1932 91.6216 16.5611C91.4393 16.929 91.3482 17.3234 91.3482 17.7443V18.4205C91.3482 18.9972 91.4476 19.486 91.6465 19.8871C91.8487 20.2848 92.1287 20.5881 92.4867 20.7969C92.8446 21.0024 93.2606 21.1051 93.7346 21.1051C94.0428 21.1051 94.3212 21.062 94.5698 20.9759C94.8217 20.8864 95.0388 20.7538 95.2211 20.5781C95.4034 20.3991 95.5442 20.1771 95.6436 19.9119L96.7772 20.2301C96.6578 20.6146 96.4573 20.9527 96.1756 21.2443C95.8939 21.5327 95.5459 21.758 95.1316 21.9205C94.7173 22.0795 94.2516 22.1591 93.7346 22.1591ZM99.8546 11.8182V22H98.6813V11.8182H99.8546Z" fill="white" fill-opacity="0.95"/>
<defs>
<filter id="filter0_ddd_2959_42736" x="0" y="0" width="58" height="34" filterUnits="userSpaceOnUse" color-interpolation-filters="sRGB">
<feFlood flood-opacity="0" result="BackgroundImageFix"/>
<feColorMatrix in="SourceAlpha" type="matrix" values="0 0 0 0 0 0 0 0 0 0 0 0 0 0 0 0 0 0 127 0" result="hardAlpha"/>
<feMorphology radius="4" operator="dilate" in="SourceAlpha" result="effect1_dropShadow_2959_42736"/>
<feOffset/>
<feComposite in2="hardAlpha" operator="out"/>
<feColorMatrix type="matrix" values="0 0 0 0 0.392157 0 0 0 0 0.705882 0 0 0 0 0.980392 0 0 0 1 0"/>
<feBlend mode="normal" in2="BackgroundImageFix" result="effect1_dropShadow_2959_42736"/>
<feColorMatrix in="SourceAlpha" type="matrix" values="0 0 0 0 0 0 0 0 0 0 0 0 0 0 0 0 0 0 127 0" result="hardAlpha"/>
<feMorphology radius="5" operator="dilate" in="SourceAlpha" result="effect2_dropShadow_2959_42736"/>
<feOffset/>
<feComposite in2="hardAlpha" operator="out"/>
<feColorMatrix type="matrix" values="0 0 0 0 0.392157 0 0 0 0 0.705882 0 0 0 0 0.980392 0 0 0 0.35 0"/>
<feBlend mode="normal" in2="effect1_dropShadow_2959_42736" result="effect2_dropShadow_2959_42736"/>
<feColorMatrix in="SourceAlpha" type="matrix" values="0 0 0 0 0 0 0 0 0 0 0 0 0 0 0 0 0 0 127 0" result="hardAlpha"/>
<feMorphology radius="2" operator="dilate" in="SourceAlpha" result="effect3_dropShadow_2959_42736"/>
<feOffset/>
<feComposite in2="hardAlpha" operator="out"/>
<feColorMatrix type="matrix" values="0 0 0 0 0 0 0 0 0 0 0 0 0 0 0 0 0 0 1 0"/>
<feBlend mode="normal" in2="effect2_dropShadow_2959_42736" result="effect3_dropShadow_2959_42736"/>
<feBlend mode="normal" in="SourceGraphic" in2="effect3_dropShadow_2959_42736" result="shape"/>
</filter>
</defs>
</svg>
