<svg width="1150" height="243" viewBox="0 0 1150 243" fill="none" xmlns="http://www.w3.org/2000/svg">
<rect width="1150" height="243" rx="16" fill="#1A1A1A"/>
<path d="M368.449 69.7102C368.403 69.2519 368.208 68.8958 367.864 68.642C367.519 68.3883 367.051 68.2614 366.46 68.2614C366.059 68.2614 365.72 68.3182 365.443 68.4318C365.167 68.5417 364.955 68.6951 364.807 68.892C364.663 69.089 364.591 69.3125 364.591 69.5625C364.583 69.7708 364.627 69.9527 364.722 70.108C364.82 70.2633 364.955 70.3977 365.125 70.5114C365.295 70.6212 365.492 70.7178 365.716 70.8011C365.939 70.8807 366.178 70.9489 366.432 71.0057L367.477 71.2557C367.985 71.3693 368.451 71.5208 368.875 71.7102C369.299 71.8996 369.667 72.1326 369.977 72.4091C370.288 72.6856 370.528 73.0114 370.699 73.3864C370.873 73.7614 370.962 74.1913 370.966 74.6761C370.962 75.3883 370.78 76.0057 370.42 76.5284C370.064 77.0473 369.549 77.4508 368.875 77.7386C368.205 78.0227 367.396 78.1648 366.449 78.1648C365.509 78.1648 364.691 78.0208 363.994 77.733C363.301 77.4451 362.759 77.0189 362.369 76.4545C361.983 75.8864 361.78 75.1837 361.761 74.3466H364.142C364.169 74.7367 364.28 75.0625 364.477 75.3239C364.678 75.5814 364.945 75.7765 365.278 75.9091C365.616 76.0379 365.996 76.1023 366.42 76.1023C366.837 76.1023 367.199 76.0417 367.506 75.9205C367.816 75.7992 368.057 75.6307 368.227 75.4148C368.398 75.1989 368.483 74.9508 368.483 74.6705C368.483 74.4091 368.405 74.1894 368.25 74.0114C368.098 73.8333 367.875 73.6818 367.58 73.5568C367.288 73.4318 366.93 73.3182 366.506 73.2159L365.239 72.8977C364.258 72.6591 363.483 72.286 362.915 71.7784C362.347 71.2708 362.064 70.5871 362.068 69.7273C362.064 69.0227 362.252 68.4072 362.631 67.8807C363.013 67.3542 363.538 66.9432 364.205 66.6477C364.871 66.3523 365.629 66.2045 366.477 66.2045C367.341 66.2045 368.095 66.3523 368.739 66.6477C369.386 66.9432 369.89 67.3542 370.25 67.8807C370.61 68.4072 370.795 69.017 370.807 69.7102H368.449ZM376.553 78.1705C375.655 78.1705 374.882 77.9886 374.234 77.625C373.59 77.2576 373.094 76.7386 372.746 76.0682C372.397 75.3939 372.223 74.5966 372.223 73.6761C372.223 72.7784 372.397 71.9905 372.746 71.3125C373.094 70.6345 373.585 70.1061 374.217 69.7273C374.854 69.3485 375.6 69.1591 376.456 69.1591C377.032 69.1591 377.568 69.2519 378.064 69.4375C378.564 69.6193 379 69.8939 379.371 70.2614C379.746 70.6288 380.037 71.0909 380.246 71.6477C380.454 72.2008 380.558 72.8485 380.558 73.5909V74.2557H373.189V72.7557H378.28C378.28 72.4072 378.204 72.0985 378.053 71.8295C377.901 71.5606 377.691 71.3504 377.422 71.1989C377.157 71.0436 376.848 70.9659 376.496 70.9659C376.128 70.9659 375.803 71.0511 375.518 71.2216C375.238 71.3883 375.018 71.6136 374.859 71.8977C374.7 72.178 374.619 72.4905 374.615 72.8352V74.2614C374.615 74.6932 374.695 75.0663 374.854 75.3807C375.017 75.6951 375.246 75.9375 375.541 76.108C375.837 76.2784 376.187 76.3636 376.592 76.3636C376.861 76.3636 377.107 76.3258 377.331 76.25C377.554 76.1742 377.746 76.0606 377.905 75.9091C378.064 75.7576 378.185 75.572 378.268 75.3523L380.507 75.5C380.393 76.0379 380.161 76.5076 379.808 76.9091C379.46 77.3068 379.009 77.6174 378.456 77.8409C377.907 78.0606 377.272 78.1705 376.553 78.1705ZM386.78 69.2727V71.0909H381.524V69.2727H386.78ZM382.717 67.1818H385.138V75.3182C385.138 75.5417 385.172 75.7159 385.24 75.8409C385.308 75.9621 385.403 76.0473 385.524 76.0966C385.649 76.1458 385.793 76.1705 385.956 76.1705C386.07 76.1705 386.183 76.161 386.297 76.142C386.411 76.1193 386.498 76.1023 386.558 76.0909L386.939 77.892C386.818 77.9299 386.647 77.9735 386.428 78.0227C386.208 78.0758 385.941 78.108 385.626 78.1193C385.043 78.142 384.532 78.0644 384.092 77.8864C383.657 77.7083 383.318 77.4318 383.075 77.0568C382.833 76.6818 382.714 76.2083 382.717 75.6364V67.1818ZM392.999 69.2727V71.0909H387.743V69.2727H392.999ZM388.936 67.1818H391.357V75.3182C391.357 75.5417 391.391 75.7159 391.459 75.8409C391.527 75.9621 391.622 76.0473 391.743 76.0966C391.868 76.1458 392.012 76.1705 392.175 76.1705C392.288 76.1705 392.402 76.161 392.516 76.142C392.629 76.1193 392.716 76.1023 392.777 76.0909L393.158 77.892C393.036 77.9299 392.866 77.9735 392.646 78.0227C392.427 78.0758 392.16 78.108 391.845 78.1193C391.262 78.142 390.75 78.0644 390.311 77.8864C389.875 77.7083 389.536 77.4318 389.294 77.0568C389.052 76.6818 388.932 76.2083 388.936 75.6364V67.1818ZM394.575 78V69.2727H396.996V78H394.575ZM395.797 68.1477C395.437 68.1477 395.128 68.0284 394.871 67.7898C394.613 67.5473 394.484 67.2576 394.484 66.9205C394.484 66.5871 394.613 66.3011 394.871 66.0625C395.128 65.8201 395.435 65.6989 395.791 65.6989C396.155 65.6989 396.464 65.8201 396.717 66.0625C396.975 66.3011 397.104 66.5871 397.104 66.9205C397.104 67.2576 396.975 67.5473 396.717 67.7898C396.464 68.0284 396.157 68.1477 395.797 68.1477ZM401.355 72.9545V78H398.935V69.2727H401.241V70.8125H401.344C401.537 70.3049 401.861 69.9034 402.315 69.608C402.77 69.3087 403.321 69.1591 403.969 69.1591C404.575 69.1591 405.103 69.2917 405.554 69.5568C406.005 69.822 406.355 70.2008 406.605 70.6932C406.855 71.1818 406.98 71.7652 406.98 72.4432V78H404.56V72.875C404.563 72.3409 404.427 71.9242 404.151 71.625C403.874 71.322 403.493 71.1705 403.009 71.1705C402.683 71.1705 402.395 71.2405 402.145 71.3807C401.899 71.5208 401.705 71.7254 401.565 71.9943C401.429 72.2595 401.359 72.5795 401.355 72.9545ZM412.82 81.3977C412.036 81.3977 411.363 81.2917 410.803 81.0795C410.246 80.8674 409.803 80.5814 409.473 80.2216C409.143 79.8617 408.929 79.4621 408.831 79.0227L411.07 78.7216C411.138 78.8807 411.246 79.0303 411.393 79.1705C411.541 79.3144 411.736 79.4318 411.979 79.5227C412.225 79.6136 412.524 79.6591 412.876 79.6591C413.403 79.6591 413.837 79.5341 414.178 79.2841C414.522 79.0341 414.695 78.6231 414.695 78.0511V76.4545H414.592C414.486 76.697 414.327 76.9261 414.115 77.142C413.903 77.358 413.63 77.5341 413.297 77.6705C412.964 77.8068 412.566 77.875 412.104 77.875C411.448 77.875 410.852 77.7235 410.314 77.4205C409.78 77.1136 409.354 76.6458 409.036 76.017C408.721 75.3845 408.564 74.5852 408.564 73.6193C408.564 72.6307 408.725 71.8049 409.047 71.142C409.369 70.4792 409.797 69.983 410.331 69.6534C410.869 69.3239 411.458 69.1591 412.098 69.1591C412.587 69.1591 412.996 69.2424 413.325 69.4091C413.655 69.572 413.92 69.7765 414.121 70.0227C414.325 70.2652 414.482 70.5038 414.592 70.7386H414.683V69.2727H417.087V78.0852C417.087 78.8125 416.905 79.4205 416.541 79.9091C416.178 80.4015 415.674 80.7727 415.03 81.0227C414.39 81.2727 413.653 81.3977 412.82 81.3977ZM412.871 76.0568C413.261 76.0568 413.59 75.9602 413.859 75.767C414.132 75.5701 414.34 75.2898 414.484 74.9261C414.632 74.5587 414.706 74.1193 414.706 73.608C414.706 73.0966 414.634 72.6534 414.49 72.2784C414.346 71.8996 414.138 71.6061 413.865 71.3977C413.592 71.1894 413.261 71.0852 412.871 71.0852C412.473 71.0852 412.138 71.1932 411.865 71.4091C411.592 71.6212 411.386 71.9167 411.246 72.2955C411.106 72.6742 411.036 73.1117 411.036 73.608C411.036 74.1117 411.106 74.5473 411.246 74.9148C411.39 75.2784 411.596 75.5606 411.865 75.7614C412.138 75.9583 412.473 76.0568 412.871 76.0568ZM426.274 71.7614L424.058 71.8977C424.02 71.7083 423.939 71.5379 423.814 71.3864C423.689 71.2311 423.524 71.108 423.32 71.017C423.119 70.9223 422.878 70.875 422.598 70.875C422.223 70.875 421.907 70.9545 421.649 71.1136C421.392 71.2689 421.263 71.4773 421.263 71.7386C421.263 71.947 421.346 72.1231 421.513 72.267C421.679 72.411 421.965 72.5265 422.371 72.6136L423.95 72.9318C424.799 73.1061 425.431 73.3864 425.848 73.7727C426.265 74.1591 426.473 74.6667 426.473 75.2955C426.473 75.8674 426.304 76.3693 425.967 76.8011C425.634 77.233 425.176 77.5701 424.592 77.8125C424.013 78.0511 423.344 78.1705 422.587 78.1705C421.431 78.1705 420.511 77.9299 419.825 77.4489C419.143 76.964 418.744 76.3049 418.626 75.4716L421.007 75.3466C421.079 75.6989 421.253 75.9678 421.53 76.1534C421.806 76.3352 422.161 76.4261 422.592 76.4261C423.017 76.4261 423.357 76.3447 423.615 76.1818C423.876 76.0152 424.009 75.8011 424.013 75.5398C424.009 75.3201 423.916 75.1402 423.734 75C423.553 74.8561 423.272 74.7462 422.893 74.6705L421.382 74.3693C420.53 74.1989 419.895 73.9034 419.479 73.483C419.066 73.0625 418.859 72.5265 418.859 71.875C418.859 71.3144 419.011 70.8314 419.314 70.4261C419.621 70.0208 420.051 69.7083 420.604 69.4886C421.161 69.2689 421.812 69.1591 422.558 69.1591C423.661 69.1591 424.528 69.392 425.161 69.858C425.797 70.3239 426.168 70.9583 426.274 71.7614Z" fill="white" fill-opacity="0.95"/>
<path d="M362.261 127V112.455H371.04V114.017H364.023V118.932H370.585V120.494H364.023V125.438H371.153V127H362.261ZM373.987 127V116.091H375.607V117.795H375.749C375.976 117.213 376.343 116.761 376.849 116.439C377.356 116.112 377.964 115.949 378.675 115.949C379.394 115.949 379.993 116.112 380.472 116.439C380.955 116.761 381.331 117.213 381.601 117.795H381.714C381.994 117.232 382.413 116.785 382.972 116.453C383.53 116.117 384.2 115.949 384.982 115.949C385.957 115.949 386.755 116.254 387.375 116.865C387.995 117.471 388.305 118.416 388.305 119.699V127H386.629V119.699C386.629 118.894 386.409 118.319 385.969 117.973C385.528 117.627 385.01 117.455 384.413 117.455C383.646 117.455 383.052 117.687 382.631 118.151C382.209 118.61 381.999 119.192 381.999 119.898V127H380.294V119.528C380.294 118.908 380.093 118.409 379.69 118.03C379.288 117.646 378.769 117.455 378.135 117.455C377.699 117.455 377.292 117.571 376.913 117.803C376.539 118.035 376.236 118.357 376.004 118.768C375.777 119.176 375.663 119.647 375.663 120.182V127H373.987ZM394.58 127.256C393.889 127.256 393.262 127.125 392.698 126.865C392.135 126.6 391.687 126.219 391.356 125.722C391.024 125.22 390.859 124.614 390.859 123.903C390.859 123.278 390.982 122.772 391.228 122.384C391.474 121.991 391.803 121.683 392.215 121.46C392.627 121.238 393.082 121.072 393.579 120.963C394.081 120.849 394.585 120.759 395.092 120.693C395.754 120.608 396.292 120.544 396.704 120.501C397.121 120.454 397.424 120.376 397.613 120.267C397.807 120.158 397.904 119.969 397.904 119.699V119.642C397.904 118.941 397.712 118.397 397.329 118.009C396.95 117.62 396.375 117.426 395.603 117.426C394.803 117.426 394.175 117.601 393.721 117.952C393.266 118.302 392.947 118.676 392.762 119.074L391.171 118.506C391.455 117.843 391.834 117.327 392.308 116.957C392.786 116.583 393.307 116.323 393.87 116.176C394.438 116.025 394.997 115.949 395.546 115.949C395.897 115.949 396.299 115.991 396.754 116.077C397.213 116.157 397.656 116.325 398.082 116.581C398.513 116.837 398.87 117.223 399.154 117.739C399.438 118.255 399.58 118.946 399.58 119.812V127H397.904V125.523H397.819C397.705 125.759 397.516 126.013 397.251 126.283C396.986 126.553 396.633 126.782 396.192 126.972C395.752 127.161 395.215 127.256 394.58 127.256ZM394.836 125.75C395.499 125.75 396.058 125.62 396.512 125.359C396.971 125.099 397.317 124.763 397.549 124.351C397.786 123.939 397.904 123.506 397.904 123.051V121.517C397.833 121.602 397.677 121.68 397.435 121.751C397.199 121.818 396.924 121.877 396.612 121.929C396.304 121.976 396.003 122.019 395.71 122.057C395.421 122.09 395.186 122.118 395.006 122.142C394.571 122.199 394.164 122.291 393.785 122.419C393.411 122.542 393.108 122.729 392.876 122.98C392.648 123.226 392.535 123.562 392.535 123.989C392.535 124.571 392.75 125.011 393.181 125.31C393.617 125.603 394.168 125.75 394.836 125.75ZM402.64 127V116.091H404.316V127H402.64ZM403.492 114.273C403.165 114.273 402.883 114.161 402.647 113.939C402.415 113.716 402.299 113.449 402.299 113.136C402.299 112.824 402.415 112.556 402.647 112.334C402.883 112.111 403.165 112 403.492 112C403.819 112 404.098 112.111 404.33 112.334C404.567 112.556 404.685 112.824 404.685 113.136C404.685 113.449 404.567 113.716 404.33 113.939C404.098 114.161 403.819 114.273 403.492 114.273ZM409.062 112.455V127H407.386V112.455H409.062ZM419.433 120.438V127H417.757V116.091H419.376V117.795H419.518C419.774 117.241 420.162 116.796 420.683 116.46C421.204 116.119 421.876 115.949 422.7 115.949C423.439 115.949 424.085 116.1 424.639 116.403C425.193 116.702 425.624 117.156 425.931 117.767C426.239 118.373 426.393 119.14 426.393 120.068V127H424.717V120.182C424.717 119.325 424.494 118.657 424.049 118.179C423.604 117.696 422.993 117.455 422.217 117.455C421.682 117.455 421.204 117.571 420.782 117.803C420.366 118.035 420.037 118.373 419.795 118.818C419.554 119.263 419.433 119.803 419.433 120.438ZM433.888 127.227C432.903 127.227 432.039 126.993 431.295 126.524C430.557 126.055 429.979 125.4 429.562 124.557C429.151 123.714 428.945 122.729 428.945 121.602C428.945 120.466 429.151 119.474 429.562 118.626C429.979 117.779 430.557 117.121 431.295 116.652C432.039 116.183 432.903 115.949 433.888 115.949C434.873 115.949 435.734 116.183 436.473 116.652C437.216 117.121 437.794 117.779 438.206 118.626C438.623 119.474 438.831 120.466 438.831 121.602C438.831 122.729 438.623 123.714 438.206 124.557C437.794 125.4 437.216 126.055 436.473 126.524C435.734 126.993 434.873 127.227 433.888 127.227ZM433.888 125.722C434.636 125.722 435.251 125.53 435.734 125.146C436.217 124.763 436.575 124.259 436.807 123.634C437.039 123.009 437.155 122.331 437.155 121.602C437.155 120.873 437.039 120.194 436.807 119.564C436.575 118.934 436.217 118.425 435.734 118.037C435.251 117.649 434.636 117.455 433.888 117.455C433.14 117.455 432.524 117.649 432.041 118.037C431.558 118.425 431.201 118.934 430.969 119.564C430.737 120.194 430.621 120.873 430.621 121.602C430.621 122.331 430.737 123.009 430.969 123.634C431.201 124.259 431.558 124.763 432.041 125.146C432.524 125.53 433.14 125.722 433.888 125.722ZM446.134 116.091V117.511H440.48V116.091H446.134ZM442.128 113.477H443.804V123.875C443.804 124.348 443.873 124.704 444.01 124.94C444.152 125.172 444.332 125.329 444.55 125.409C444.773 125.485 445.007 125.523 445.253 125.523C445.438 125.523 445.589 125.513 445.708 125.494C445.826 125.471 445.921 125.452 445.992 125.438L446.333 126.943C446.219 126.986 446.06 127.028 445.857 127.071C445.653 127.118 445.395 127.142 445.083 127.142C444.609 127.142 444.145 127.04 443.691 126.837C443.241 126.633 442.867 126.323 442.569 125.906C442.275 125.49 442.128 124.964 442.128 124.33V113.477ZM448.655 127V116.091H450.331V127H448.655ZM449.507 114.273C449.181 114.273 448.899 114.161 448.662 113.939C448.43 113.716 448.314 113.449 448.314 113.136C448.314 112.824 448.43 112.556 448.662 112.334C448.899 112.111 449.181 112 449.507 112C449.834 112 450.114 112.111 450.346 112.334C450.582 112.556 450.701 112.824 450.701 113.136C450.701 113.449 450.582 113.716 450.346 113.939C450.114 114.161 449.834 114.273 449.507 114.273ZM458.259 116.091V117.511H452.379V116.091H458.259ZM454.14 127V114.585C454.14 113.96 454.287 113.439 454.58 113.023C454.874 112.606 455.255 112.294 455.724 112.085C456.192 111.877 456.687 111.773 457.208 111.773C457.62 111.773 457.956 111.806 458.217 111.872C458.477 111.938 458.671 112 458.799 112.057L458.316 113.506C458.231 113.477 458.112 113.442 457.961 113.399C457.814 113.357 457.62 113.335 457.379 113.335C456.825 113.335 456.424 113.475 456.178 113.754C455.937 114.034 455.816 114.443 455.816 114.983V127H454.14ZM460.608 127V116.091H462.284V127H460.608ZM461.461 114.273C461.134 114.273 460.852 114.161 460.615 113.939C460.383 113.716 460.267 113.449 460.267 113.136C460.267 112.824 460.383 112.556 460.615 112.334C460.852 112.111 461.134 112 461.461 112C461.787 112 462.067 112.111 462.299 112.334C462.535 112.556 462.654 112.824 462.654 113.136C462.654 113.449 462.535 113.716 462.299 113.939C462.067 114.161 461.787 114.273 461.461 114.273ZM469.786 127.227C468.763 127.227 467.883 126.986 467.144 126.503C466.406 126.02 465.837 125.355 465.44 124.507C465.042 123.66 464.843 122.691 464.843 121.602C464.843 120.494 465.047 119.517 465.454 118.669C465.866 117.817 466.439 117.152 467.173 116.673C467.911 116.19 468.773 115.949 469.758 115.949C470.525 115.949 471.216 116.091 471.832 116.375C472.447 116.659 472.951 117.057 473.344 117.568C473.737 118.08 473.981 118.676 474.076 119.358H472.4C472.272 118.861 471.988 118.42 471.548 118.037C471.112 117.649 470.525 117.455 469.786 117.455C469.133 117.455 468.56 117.625 468.067 117.966C467.58 118.302 467.199 118.778 466.924 119.393C466.654 120.004 466.519 120.722 466.519 121.545C466.519 122.388 466.652 123.122 466.917 123.747C467.187 124.372 467.566 124.857 468.053 125.203C468.546 125.549 469.123 125.722 469.786 125.722C470.222 125.722 470.617 125.646 470.972 125.494C471.327 125.343 471.628 125.125 471.874 124.841C472.121 124.557 472.296 124.216 472.4 123.818H474.076C473.981 124.462 473.747 125.042 473.373 125.558C473.004 126.07 472.513 126.477 471.903 126.78C471.297 127.078 470.591 127.227 469.786 127.227ZM479.737 127.256C479.045 127.256 478.418 127.125 477.854 126.865C477.291 126.6 476.844 126.219 476.512 125.722C476.181 125.22 476.015 124.614 476.015 123.903C476.015 123.278 476.138 122.772 476.384 122.384C476.63 121.991 476.96 121.683 477.371 121.46C477.783 121.238 478.238 121.072 478.735 120.963C479.237 120.849 479.741 120.759 480.248 120.693C480.911 120.608 481.448 120.544 481.86 120.501C482.277 120.454 482.58 120.376 482.769 120.267C482.963 120.158 483.06 119.969 483.06 119.699V119.642C483.06 118.941 482.869 118.397 482.485 118.009C482.106 117.62 481.531 117.426 480.759 117.426C479.959 117.426 479.332 117.601 478.877 117.952C478.423 118.302 478.103 118.676 477.918 119.074L476.327 118.506C476.612 117.843 476.99 117.327 477.464 116.957C477.942 116.583 478.463 116.323 479.026 116.176C479.594 116.025 480.153 115.949 480.702 115.949C481.053 115.949 481.455 115.991 481.91 116.077C482.369 116.157 482.812 116.325 483.238 116.581C483.669 116.837 484.026 117.223 484.31 117.739C484.594 118.255 484.737 118.946 484.737 119.812V127H483.06V125.523H482.975C482.862 125.759 482.672 126.013 482.407 126.283C482.142 126.553 481.789 126.782 481.349 126.972C480.908 127.161 480.371 127.256 479.737 127.256ZM479.992 125.75C480.655 125.75 481.214 125.62 481.668 125.359C482.128 125.099 482.473 124.763 482.705 124.351C482.942 123.939 483.06 123.506 483.06 123.051V121.517C482.989 121.602 482.833 121.68 482.592 121.751C482.355 121.818 482.08 121.877 481.768 121.929C481.46 121.976 481.159 122.019 480.866 122.057C480.577 122.09 480.343 122.118 480.163 122.142C479.727 122.199 479.32 122.291 478.941 122.419C478.567 122.542 478.264 122.729 478.032 122.98C477.805 123.226 477.691 123.562 477.691 123.989C477.691 124.571 477.906 125.011 478.337 125.31C478.773 125.603 479.325 125.75 479.992 125.75ZM492.54 116.091V117.511H486.887V116.091H492.54ZM488.534 113.477H490.211V123.875C490.211 124.348 490.279 124.704 490.417 124.94C490.559 125.172 490.739 125.329 490.956 125.409C491.179 125.485 491.413 125.523 491.659 125.523C491.844 125.523 491.996 125.513 492.114 125.494C492.232 125.471 492.327 125.452 492.398 125.438L492.739 126.943C492.625 126.986 492.467 127.028 492.263 127.071C492.06 127.118 491.801 127.142 491.489 127.142C491.016 127.142 490.551 127.04 490.097 126.837C489.647 126.633 489.273 126.323 488.975 125.906C488.681 125.49 488.534 124.964 488.534 124.33V113.477ZM495.061 127V116.091H496.738V127H495.061ZM495.914 114.273C495.587 114.273 495.305 114.161 495.069 113.939C494.837 113.716 494.721 113.449 494.721 113.136C494.721 112.824 494.837 112.556 495.069 112.334C495.305 112.111 495.587 112 495.914 112C496.24 112 496.52 112.111 496.752 112.334C496.989 112.556 497.107 112.824 497.107 113.136C497.107 113.449 496.989 113.716 496.752 113.939C496.52 114.161 496.24 114.273 495.914 114.273ZM504.239 127.227C503.254 127.227 502.39 126.993 501.647 126.524C500.908 126.055 500.331 125.4 499.914 124.557C499.502 123.714 499.296 122.729 499.296 121.602C499.296 120.466 499.502 119.474 499.914 118.626C500.331 117.779 500.908 117.121 501.647 116.652C502.39 116.183 503.254 115.949 504.239 115.949C505.224 115.949 506.086 116.183 506.825 116.652C507.568 117.121 508.146 117.779 508.558 118.626C508.974 119.474 509.183 120.466 509.183 121.602C509.183 122.729 508.974 123.714 508.558 124.557C508.146 125.4 507.568 126.055 506.825 126.524C506.086 126.993 505.224 127.227 504.239 127.227ZM504.239 125.722C504.987 125.722 505.603 125.53 506.086 125.146C506.569 124.763 506.926 124.259 507.158 123.634C507.39 123.009 507.506 122.331 507.506 121.602C507.506 120.873 507.39 120.194 507.158 119.564C506.926 118.934 506.569 118.425 506.086 118.037C505.603 117.649 504.987 117.455 504.239 117.455C503.491 117.455 502.876 117.649 502.393 118.037C501.91 118.425 501.552 118.934 501.32 119.564C501.088 120.194 500.972 120.873 500.972 121.602C500.972 122.331 501.088 123.009 501.32 123.634C501.552 124.259 501.91 124.763 502.393 125.146C502.876 125.53 503.491 125.722 504.239 125.722ZM513.417 120.438V127H511.741V116.091H513.36V117.795H513.502C513.758 117.241 514.146 116.796 514.667 116.46C515.188 116.119 515.86 115.949 516.684 115.949C517.423 115.949 518.069 116.1 518.623 116.403C519.177 116.702 519.608 117.156 519.916 117.767C520.224 118.373 520.377 119.14 520.377 120.068V127H518.701V120.182C518.701 119.325 518.479 118.657 518.034 118.179C517.589 117.696 516.978 117.455 516.201 117.455C515.666 117.455 515.188 117.571 514.767 117.803C514.35 118.035 514.021 118.373 513.779 118.818C513.538 119.263 513.417 119.803 513.417 120.438ZM529.293 127V112.455H530.969V117.824H531.111C531.234 117.634 531.404 117.393 531.622 117.099C531.845 116.801 532.162 116.536 532.574 116.304C532.991 116.067 533.554 115.949 534.264 115.949C535.183 115.949 535.992 116.179 536.693 116.638C537.394 117.097 537.941 117.748 538.334 118.591C538.727 119.434 538.923 120.428 538.923 121.574C538.923 122.729 538.727 123.731 538.334 124.578C537.941 125.421 537.396 126.074 536.7 126.538C536.004 126.998 535.202 127.227 534.293 127.227C533.592 127.227 533.031 127.111 532.609 126.879C532.188 126.643 531.864 126.375 531.636 126.077C531.409 125.774 531.234 125.523 531.111 125.324H530.912V127H529.293ZM530.94 121.545C530.94 122.369 531.061 123.096 531.303 123.726C531.544 124.351 531.897 124.841 532.361 125.196C532.825 125.546 533.393 125.722 534.065 125.722C534.766 125.722 535.351 125.537 535.82 125.168C536.293 124.794 536.648 124.292 536.885 123.662C537.126 123.027 537.247 122.322 537.247 121.545C537.247 120.778 537.129 120.087 536.892 119.472C536.66 118.851 536.307 118.361 535.834 118.001C535.365 117.637 534.776 117.455 534.065 117.455C533.384 117.455 532.811 117.627 532.347 117.973C531.883 118.314 531.532 118.792 531.295 119.408C531.059 120.018 530.94 120.731 530.94 121.545ZM546.061 127.227C545.01 127.227 544.103 126.995 543.341 126.531C542.583 126.062 541.999 125.409 541.587 124.571C541.179 123.728 540.976 122.748 540.976 121.631C540.976 120.513 541.179 119.528 541.587 118.676C541.999 117.819 542.571 117.152 543.305 116.673C544.044 116.19 544.906 115.949 545.891 115.949C546.459 115.949 547.02 116.044 547.574 116.233C548.128 116.422 548.632 116.73 549.087 117.156C549.541 117.578 549.903 118.136 550.173 118.832C550.443 119.528 550.578 120.385 550.578 121.403V122.114H542.169V120.665H548.874C548.874 120.049 548.75 119.5 548.504 119.017C548.263 118.534 547.917 118.153 547.467 117.874C547.022 117.594 546.497 117.455 545.891 117.455C545.223 117.455 544.645 117.62 544.158 117.952C543.675 118.278 543.303 118.705 543.043 119.23C542.782 119.756 542.652 120.319 542.652 120.92V121.886C542.652 122.71 542.794 123.409 543.078 123.982C543.367 124.55 543.767 124.983 544.278 125.281C544.79 125.575 545.384 125.722 546.061 125.722C546.501 125.722 546.899 125.66 547.254 125.537C547.614 125.409 547.924 125.22 548.185 124.969C548.445 124.713 548.646 124.396 548.788 124.017L550.408 124.472C550.237 125.021 549.951 125.504 549.548 125.92C549.146 126.332 548.649 126.654 548.057 126.886C547.465 127.114 546.8 127.227 546.061 127.227ZM557.986 116.091V117.511H552.105V116.091H557.986ZM553.866 127V114.585C553.866 113.96 554.013 113.439 554.307 113.023C554.6 112.606 554.982 112.294 555.45 112.085C555.919 111.877 556.414 111.773 556.935 111.773C557.347 111.773 557.683 111.806 557.943 111.872C558.204 111.938 558.398 112 558.526 112.057L558.043 113.506C557.957 113.477 557.839 113.442 557.688 113.399C557.541 113.357 557.347 113.335 557.105 113.335C556.551 113.335 556.151 113.475 555.905 113.754C555.663 114.034 555.543 114.443 555.543 114.983V127H553.866ZM564.317 127.227C563.333 127.227 562.469 126.993 561.725 126.524C560.987 126.055 560.409 125.4 559.992 124.557C559.58 123.714 559.374 122.729 559.374 121.602C559.374 120.466 559.58 119.474 559.992 118.626C560.409 117.779 560.987 117.121 561.725 116.652C562.469 116.183 563.333 115.949 564.317 115.949C565.302 115.949 566.164 116.183 566.903 116.652C567.646 117.121 568.224 117.779 568.636 118.626C569.052 119.474 569.261 120.466 569.261 121.602C569.261 122.729 569.052 123.714 568.636 124.557C568.224 125.4 567.646 126.055 566.903 126.524C566.164 126.993 565.302 127.227 564.317 127.227ZM564.317 125.722C565.066 125.722 565.681 125.53 566.164 125.146C566.647 124.763 567.004 124.259 567.237 123.634C567.469 123.009 567.585 122.331 567.585 121.602C567.585 120.873 567.469 120.194 567.237 119.564C567.004 118.934 566.647 118.425 566.164 118.037C565.681 117.649 565.066 117.455 564.317 117.455C563.569 117.455 562.954 117.649 562.471 118.037C561.988 118.425 561.63 118.934 561.398 119.564C561.166 120.194 561.05 120.873 561.05 121.602C561.05 122.331 561.166 123.009 561.398 123.634C561.63 124.259 561.988 124.763 562.471 125.146C562.954 125.53 563.569 125.722 564.317 125.722ZM571.819 127V116.091H573.439V117.739H573.552C573.751 117.199 574.111 116.761 574.632 116.425C575.153 116.089 575.74 115.92 576.393 115.92C576.516 115.92 576.67 115.923 576.855 115.928C577.039 115.932 577.179 115.939 577.274 115.949V117.653C577.217 117.639 577.087 117.618 576.883 117.589C576.684 117.556 576.474 117.54 576.251 117.54C575.721 117.54 575.247 117.651 574.831 117.874C574.419 118.091 574.092 118.394 573.85 118.783C573.614 119.166 573.495 119.604 573.495 120.097V127H571.819ZM583.502 127.227C582.451 127.227 581.545 126.995 580.782 126.531C580.025 126.062 579.44 125.409 579.028 124.571C578.621 123.728 578.417 122.748 578.417 121.631C578.417 120.513 578.621 119.528 579.028 118.676C579.44 117.819 580.013 117.152 580.747 116.673C581.485 116.19 582.347 115.949 583.332 115.949C583.9 115.949 584.461 116.044 585.015 116.233C585.569 116.422 586.074 116.73 586.528 117.156C586.983 117.578 587.345 118.136 587.615 118.832C587.885 119.528 588.02 120.385 588.02 121.403V122.114H579.61V120.665H586.315C586.315 120.049 586.192 119.5 585.946 119.017C585.704 118.534 585.359 118.153 584.909 117.874C584.464 117.594 583.938 117.455 583.332 117.455C582.664 117.455 582.087 117.62 581.599 117.952C581.116 118.278 580.744 118.705 580.484 119.23C580.224 119.756 580.093 120.319 580.093 120.92V121.886C580.093 122.71 580.235 123.409 580.52 123.982C580.808 124.55 581.208 124.983 581.72 125.281C582.231 125.575 582.825 125.722 583.502 125.722C583.943 125.722 584.341 125.66 584.696 125.537C585.056 125.409 585.366 125.22 585.626 124.969C585.886 124.713 586.088 124.396 586.23 124.017L587.849 124.472C587.679 125.021 587.392 125.504 586.99 125.92C586.587 126.332 586.09 126.654 585.498 126.886C584.906 127.114 584.241 127.227 583.502 127.227ZM600.768 127.227C599.717 127.227 598.81 126.995 598.048 126.531C597.29 126.062 596.706 125.409 596.294 124.571C595.886 123.728 595.683 122.748 595.683 121.631C595.683 120.513 595.886 119.528 596.294 118.676C596.706 117.819 597.279 117.152 598.012 116.673C598.751 116.19 599.613 115.949 600.598 115.949C601.166 115.949 601.727 116.044 602.281 116.233C602.835 116.422 603.339 116.73 603.794 117.156C604.248 117.578 604.61 118.136 604.88 118.832C605.15 119.528 605.285 120.385 605.285 121.403V122.114H596.876V120.665H603.581C603.581 120.049 603.458 119.5 603.211 119.017C602.97 118.534 602.624 118.153 602.174 117.874C601.729 117.594 601.204 117.455 600.598 117.455C599.93 117.455 599.352 117.62 598.865 117.952C598.382 118.278 598.01 118.705 597.75 119.23C597.489 119.756 597.359 120.319 597.359 120.92V121.886C597.359 122.71 597.501 123.409 597.785 123.982C598.074 124.55 598.474 124.983 598.985 125.281C599.497 125.575 600.091 125.722 600.768 125.722C601.208 125.722 601.606 125.66 601.961 125.537C602.321 125.409 602.631 125.22 602.892 124.969C603.152 124.713 603.353 124.396 603.495 124.017L605.115 124.472C604.944 125.021 604.658 125.504 604.255 125.92C603.853 126.332 603.356 126.654 602.764 126.886C602.172 127.114 601.507 127.227 600.768 127.227ZM608.792 116.091L611.406 120.551L614.019 116.091H615.951L612.428 121.545L615.951 127H614.019L611.406 122.767L608.792 127H606.86L610.326 121.545L606.86 116.091H608.792ZM618.343 131.091V116.091H619.962V117.824H620.161C620.284 117.634 620.454 117.393 620.672 117.099C620.895 116.801 621.212 116.536 621.624 116.304C622.041 116.067 622.604 115.949 623.314 115.949C624.233 115.949 625.042 116.179 625.743 116.638C626.444 117.097 626.991 117.748 627.384 118.591C627.777 119.434 627.973 120.428 627.973 121.574C627.973 122.729 627.777 123.731 627.384 124.578C626.991 125.421 626.446 126.074 625.75 126.538C625.054 126.998 624.252 127.227 623.343 127.227C622.642 127.227 622.081 127.111 621.659 126.879C621.238 126.643 620.914 126.375 620.686 126.077C620.459 125.774 620.284 125.523 620.161 125.324H620.019V131.091H618.343ZM619.99 121.545C619.99 122.369 620.111 123.096 620.353 123.726C620.594 124.351 620.947 124.841 621.411 125.196C621.875 125.546 622.443 125.722 623.115 125.722C623.816 125.722 624.401 125.537 624.87 125.168C625.343 124.794 625.698 124.292 625.935 123.662C626.176 123.027 626.297 122.322 626.297 121.545C626.297 120.778 626.179 120.087 625.942 119.472C625.71 118.851 625.357 118.361 624.884 118.001C624.415 117.637 623.826 117.455 623.115 117.455C622.434 117.455 621.861 117.627 621.397 117.973C620.933 118.314 620.582 118.792 620.346 119.408C620.109 120.018 619.99 120.731 619.99 121.545ZM630.53 127V116.091H632.206V127H630.53ZM631.382 114.273C631.056 114.273 630.774 114.161 630.537 113.939C630.305 113.716 630.189 113.449 630.189 113.136C630.189 112.824 630.305 112.556 630.537 112.334C630.774 112.111 631.056 112 631.382 112C631.709 112 631.989 112.111 632.221 112.334C632.457 112.556 632.576 112.824 632.576 113.136C632.576 113.449 632.457 113.716 632.221 113.939C631.989 114.161 631.709 114.273 631.382 114.273ZM635.276 127V116.091H636.896V117.739H637.009C637.208 117.199 637.568 116.761 638.089 116.425C638.61 116.089 639.197 115.92 639.85 115.92C639.973 115.92 640.127 115.923 640.312 115.928C640.496 115.932 640.636 115.939 640.731 115.949V117.653C640.674 117.639 640.544 117.618 640.34 117.589C640.141 117.556 639.931 117.54 639.708 117.54C639.178 117.54 638.704 117.651 638.288 117.874C637.876 118.091 637.549 118.394 637.308 118.783C637.071 119.166 636.952 119.604 636.952 120.097V127H635.276ZM645.928 127.256C645.237 127.256 644.609 127.125 644.046 126.865C643.482 126.6 643.035 126.219 642.703 125.722C642.372 125.22 642.206 124.614 642.206 123.903C642.206 123.278 642.329 122.772 642.576 122.384C642.822 121.991 643.151 121.683 643.563 121.46C643.975 121.238 644.429 121.072 644.926 120.963C645.428 120.849 645.933 120.759 646.439 120.693C647.102 120.608 647.64 120.544 648.051 120.501C648.468 120.454 648.771 120.376 648.961 120.267C649.155 120.158 649.252 119.969 649.252 119.699V119.642C649.252 118.941 649.06 118.397 648.676 118.009C648.298 117.62 647.722 117.426 646.951 117.426C646.15 117.426 645.523 117.601 645.069 117.952C644.614 118.302 644.294 118.676 644.11 119.074L642.519 118.506C642.803 117.843 643.182 117.327 643.655 116.957C644.133 116.583 644.654 116.323 645.218 116.176C645.786 116.025 646.345 115.949 646.894 115.949C647.244 115.949 647.647 115.991 648.101 116.077C648.56 116.157 649.003 116.325 649.429 116.581C649.86 116.837 650.218 117.223 650.502 117.739C650.786 118.255 650.928 118.946 650.928 119.812V127H649.252V125.523H649.167C649.053 125.759 648.864 126.013 648.598 126.283C648.333 126.553 647.98 126.782 647.54 126.972C647.1 127.161 646.562 127.256 645.928 127.256ZM646.184 125.75C646.846 125.75 647.405 125.62 647.86 125.359C648.319 125.099 648.665 124.763 648.897 124.351C649.133 123.939 649.252 123.506 649.252 123.051V121.517C649.181 121.602 649.025 121.68 648.783 121.751C648.546 121.818 648.272 121.877 647.959 121.929C647.651 121.976 647.351 122.019 647.057 122.057C646.768 122.09 646.534 122.118 646.354 122.142C645.918 122.199 645.511 122.291 645.132 122.419C644.758 122.542 644.455 122.729 644.223 122.98C643.996 123.226 643.882 123.562 643.882 123.989C643.882 124.571 644.098 125.011 644.529 125.31C644.964 125.603 645.516 125.75 646.184 125.75ZM658.732 116.091V117.511H653.078V116.091H658.732ZM654.726 113.477H656.402V123.875C656.402 124.348 656.471 124.704 656.608 124.94C656.75 125.172 656.93 125.329 657.148 125.409C657.37 125.485 657.605 125.523 657.851 125.523C658.036 125.523 658.187 125.513 658.305 125.494C658.424 125.471 658.518 125.452 658.589 125.438L658.93 126.943C658.817 126.986 658.658 127.028 658.455 127.071C658.251 127.118 657.993 127.142 657.68 127.142C657.207 127.142 656.743 127.04 656.288 126.837C655.839 126.633 655.464 126.323 655.166 125.906C654.873 125.49 654.726 124.964 654.726 124.33V113.477ZM661.253 127V116.091H662.929V127H661.253ZM662.105 114.273C661.778 114.273 661.497 114.161 661.26 113.939C661.028 113.716 660.912 113.449 660.912 113.136C660.912 112.824 661.028 112.556 661.26 112.334C661.497 112.111 661.778 112 662.105 112C662.432 112 662.711 112.111 662.943 112.334C663.18 112.556 663.298 112.824 663.298 113.136C663.298 113.449 663.18 113.716 662.943 113.939C662.711 114.161 662.432 114.273 662.105 114.273ZM670.431 127.227C669.446 127.227 668.582 126.993 667.838 126.524C667.1 126.055 666.522 125.4 666.105 124.557C665.694 123.714 665.488 122.729 665.488 121.602C665.488 120.466 665.694 119.474 666.105 118.626C666.522 117.779 667.1 117.121 667.838 116.652C668.582 116.183 669.446 115.949 670.431 115.949C671.416 115.949 672.277 116.183 673.016 116.652C673.759 117.121 674.337 117.779 674.749 118.626C675.166 119.474 675.374 120.466 675.374 121.602C675.374 122.729 675.166 123.714 674.749 124.557C674.337 125.4 673.759 126.055 673.016 126.524C672.277 126.993 671.416 127.227 670.431 127.227ZM670.431 125.722C671.179 125.722 671.794 125.53 672.277 125.146C672.76 124.763 673.118 124.259 673.35 123.634C673.582 123.009 673.698 122.331 673.698 121.602C673.698 120.873 673.582 120.194 673.35 119.564C673.118 118.934 672.76 118.425 672.277 118.037C671.794 117.649 671.179 117.455 670.431 117.455C669.683 117.455 669.067 117.649 668.584 118.037C668.101 118.425 667.744 118.934 667.512 119.564C667.28 120.194 667.164 120.873 667.164 121.602C667.164 122.331 667.28 123.009 667.512 123.634C667.744 124.259 668.101 124.763 668.584 125.146C669.067 125.53 669.683 125.722 670.431 125.722ZM679.609 120.438V127H677.933V116.091H679.552V117.795H679.694C679.95 117.241 680.338 116.796 680.859 116.46C681.379 116.119 682.052 115.949 682.876 115.949C683.614 115.949 684.261 116.1 684.815 116.403C685.369 116.702 685.799 117.156 686.107 117.767C686.415 118.373 686.569 119.14 686.569 120.068V127H684.893V120.182C684.893 119.325 684.67 118.657 684.225 118.179C683.78 117.696 683.169 117.455 682.393 117.455C681.858 117.455 681.379 117.571 680.958 117.803C680.541 118.035 680.212 118.373 679.971 118.818C679.729 119.263 679.609 119.803 679.609 120.438Z" fill="white" fill-opacity="0.95"/>
<rect x="741.5" y="108" width="48" height="24" rx="12" fill="#64B4FA"/>
<rect x="767.5" y="110" width="20" height="20" rx="10" fill="white"/>
<path d="M775.7 123.075C775.651 123.075 775.602 123.065 775.556 123.046C775.51 123.027 775.469 122.999 775.434 122.964L772.734 120.251C772.7 120.216 772.672 120.175 772.653 120.129C772.635 120.084 772.625 120.035 772.625 119.986C772.625 119.936 772.635 119.888 772.654 119.842C772.673 119.797 772.701 119.755 772.736 119.721C772.771 119.686 772.812 119.658 772.858 119.64C772.903 119.621 772.952 119.611 773.001 119.612C773.05 119.612 773.099 119.622 773.145 119.641C773.19 119.66 773.231 119.687 773.266 119.722L775.72 122.189L781.756 117.016C781.832 116.951 781.93 116.919 782.029 116.926C782.128 116.934 782.22 116.981 782.285 117.056C782.349 117.132 782.381 117.23 782.374 117.329C782.366 117.428 782.319 117.52 782.244 117.585L775.944 122.984C775.876 123.043 775.79 123.075 775.7 123.075Z" fill="black" fill-opacity="0.95"/>
<path d="M362.858 175H361.011L366.352 160.455H368.17L373.511 175H371.665L367.318 162.756H367.205L362.858 175ZM363.54 169.318H370.983V170.881H363.54V169.318ZM375.55 179.091V164.091H377.169V165.824H377.368C377.491 165.634 377.661 165.393 377.879 165.099C378.102 164.801 378.419 164.536 378.831 164.304C379.248 164.067 379.811 163.949 380.521 163.949C381.44 163.949 382.25 164.179 382.95 164.638C383.651 165.097 384.198 165.748 384.591 166.591C384.984 167.434 385.18 168.428 385.18 169.574C385.18 170.729 384.984 171.731 384.591 172.578C384.198 173.421 383.653 174.074 382.957 174.538C382.261 174.998 381.459 175.227 380.55 175.227C379.849 175.227 379.288 175.111 378.866 174.879C378.445 174.643 378.121 174.375 377.893 174.077C377.666 173.774 377.491 173.523 377.368 173.324H377.226V179.091H375.55ZM377.197 169.545C377.197 170.369 377.318 171.096 377.56 171.726C377.801 172.351 378.154 172.841 378.618 173.196C379.082 173.546 379.65 173.722 380.322 173.722C381.023 173.722 381.608 173.537 382.077 173.168C382.55 172.794 382.905 172.292 383.142 171.662C383.384 171.027 383.504 170.322 383.504 169.545C383.504 168.778 383.386 168.087 383.149 167.472C382.917 166.851 382.564 166.361 382.091 166.001C381.622 165.637 381.033 165.455 380.322 165.455C379.641 165.455 379.068 165.627 378.604 165.973C378.14 166.314 377.789 166.792 377.553 167.408C377.316 168.018 377.197 168.731 377.197 169.545ZM387.737 179.091V164.091H389.357V165.824H389.555C389.679 165.634 389.849 165.393 390.067 165.099C390.289 164.801 390.607 164.536 391.018 164.304C391.435 164.067 391.999 163.949 392.709 163.949C393.627 163.949 394.437 164.179 395.138 164.638C395.839 165.097 396.385 165.748 396.778 166.591C397.171 167.434 397.368 168.428 397.368 169.574C397.368 170.729 397.171 171.731 396.778 172.578C396.385 173.421 395.841 174.074 395.145 174.538C394.449 174.998 393.646 175.227 392.737 175.227C392.036 175.227 391.475 175.111 391.054 174.879C390.633 174.643 390.308 174.375 390.081 174.077C389.854 173.774 389.679 173.523 389.555 173.324H389.413V179.091H387.737ZM389.385 169.545C389.385 170.369 389.506 171.096 389.747 171.726C389.989 172.351 390.341 172.841 390.805 173.196C391.269 173.546 391.838 173.722 392.51 173.722C393.211 173.722 393.795 173.537 394.264 173.168C394.738 172.794 395.093 172.292 395.33 171.662C395.571 171.027 395.692 170.322 395.692 169.545C395.692 168.778 395.573 168.087 395.337 167.472C395.105 166.851 394.752 166.361 394.278 166.001C393.81 165.637 393.22 165.455 392.51 165.455C391.828 165.455 391.255 165.627 390.791 165.973C390.327 166.314 389.977 166.792 389.74 167.408C389.503 168.018 389.385 168.731 389.385 169.545ZM408.76 175.256C408.069 175.256 407.441 175.125 406.878 174.865C406.314 174.6 405.867 174.219 405.536 173.722C405.204 173.22 405.038 172.614 405.038 171.903C405.038 171.278 405.161 170.772 405.408 170.384C405.654 169.991 405.983 169.683 406.395 169.46C406.807 169.238 407.261 169.072 407.759 168.963C408.26 168.849 408.765 168.759 409.271 168.693C409.934 168.608 410.472 168.544 410.884 168.501C411.3 168.454 411.603 168.376 411.793 168.267C411.987 168.158 412.084 167.969 412.084 167.699V167.642C412.084 166.941 411.892 166.397 411.509 166.009C411.13 165.62 410.554 165.426 409.783 165.426C408.982 165.426 408.355 165.601 407.901 165.952C407.446 166.302 407.126 166.676 406.942 167.074L405.351 166.506C405.635 165.843 406.014 165.327 406.487 164.957C406.965 164.583 407.486 164.323 408.05 164.176C408.618 164.025 409.177 163.949 409.726 163.949C410.076 163.949 410.479 163.991 410.933 164.077C411.393 164.157 411.835 164.325 412.261 164.581C412.692 164.837 413.05 165.223 413.334 165.739C413.618 166.255 413.76 166.946 413.76 167.812V175H412.084V173.523H411.999C411.885 173.759 411.696 174.013 411.43 174.283C411.165 174.553 410.813 174.782 410.372 174.972C409.932 175.161 409.394 175.256 408.76 175.256ZM409.016 173.75C409.679 173.75 410.237 173.62 410.692 173.359C411.151 173.099 411.497 172.763 411.729 172.351C411.965 171.939 412.084 171.506 412.084 171.051V169.517C412.013 169.602 411.857 169.68 411.615 169.751C411.378 169.818 411.104 169.877 410.791 169.929C410.483 169.976 410.183 170.019 409.889 170.057C409.6 170.09 409.366 170.118 409.186 170.142C408.75 170.199 408.343 170.291 407.964 170.419C407.59 170.542 407.287 170.729 407.055 170.98C406.828 171.226 406.714 171.562 406.714 171.989C406.714 172.571 406.93 173.011 407.361 173.31C407.796 173.603 408.348 173.75 409.016 173.75ZM421.251 175.227C420.228 175.227 419.348 174.986 418.609 174.503C417.87 174.02 417.302 173.355 416.904 172.507C416.507 171.66 416.308 170.691 416.308 169.602C416.308 168.494 416.511 167.517 416.919 166.669C417.331 165.817 417.904 165.152 418.637 164.673C419.376 164.19 420.238 163.949 421.223 163.949C421.99 163.949 422.681 164.091 423.297 164.375C423.912 164.659 424.416 165.057 424.809 165.568C425.202 166.08 425.446 166.676 425.541 167.358H423.865C423.737 166.861 423.453 166.42 423.012 166.037C422.577 165.649 421.99 165.455 421.251 165.455C420.598 165.455 420.025 165.625 419.532 165.966C419.045 166.302 418.663 166.778 418.389 167.393C418.119 168.004 417.984 168.722 417.984 169.545C417.984 170.388 418.117 171.122 418.382 171.747C418.652 172.372 419.03 172.857 419.518 173.203C420.011 173.549 420.588 173.722 421.251 173.722C421.687 173.722 422.082 173.646 422.437 173.494C422.792 173.343 423.093 173.125 423.339 172.841C423.585 172.557 423.761 172.216 423.865 171.818H425.541C425.446 172.462 425.212 173.042 424.838 173.558C424.468 174.07 423.978 174.477 423.368 174.78C422.761 175.078 422.056 175.227 421.251 175.227ZM432.423 175.227C431.4 175.227 430.52 174.986 429.781 174.503C429.042 174.02 428.474 173.355 428.076 172.507C427.679 171.66 427.48 170.691 427.48 169.602C427.48 168.494 427.683 167.517 428.091 166.669C428.502 165.817 429.075 165.152 429.809 164.673C430.548 164.19 431.41 163.949 432.395 163.949C433.162 163.949 433.853 164.091 434.468 164.375C435.084 164.659 435.588 165.057 435.981 165.568C436.374 166.08 436.618 166.676 436.713 167.358H435.037C434.909 166.861 434.625 166.42 434.184 166.037C433.749 165.649 433.162 165.455 432.423 165.455C431.77 165.455 431.197 165.625 430.704 165.966C430.217 166.302 429.835 166.778 429.561 167.393C429.291 168.004 429.156 168.722 429.156 169.545C429.156 170.388 429.288 171.122 429.554 171.747C429.824 172.372 430.202 172.857 430.69 173.203C431.182 173.549 431.76 173.722 432.423 173.722C432.859 173.722 433.254 173.646 433.609 173.494C433.964 173.343 434.265 173.125 434.511 172.841C434.757 172.557 434.932 172.216 435.037 171.818H436.713C436.618 172.462 436.384 173.042 436.01 173.558C435.64 174.07 435.15 174.477 434.539 174.78C433.933 175.078 433.228 175.227 432.423 175.227ZM443.737 175.227C442.686 175.227 441.779 174.995 441.017 174.531C440.259 174.062 439.674 173.409 439.262 172.571C438.855 171.728 438.652 170.748 438.652 169.631C438.652 168.513 438.855 167.528 439.262 166.676C439.674 165.819 440.247 165.152 440.981 164.673C441.72 164.19 442.582 163.949 443.566 163.949C444.135 163.949 444.696 164.044 445.25 164.233C445.804 164.422 446.308 164.73 446.762 165.156C447.217 165.578 447.579 166.136 447.849 166.832C448.119 167.528 448.254 168.385 448.254 169.403V170.114H439.845V168.665H446.549C446.549 168.049 446.426 167.5 446.18 167.017C445.939 166.534 445.593 166.153 445.143 165.874C444.698 165.594 444.172 165.455 443.566 165.455C442.899 165.455 442.321 165.62 441.833 165.952C441.35 166.278 440.979 166.705 440.718 167.23C440.458 167.756 440.328 168.319 440.328 168.92V169.886C440.328 170.71 440.47 171.409 440.754 171.982C441.043 172.55 441.443 172.983 441.954 173.281C442.466 173.575 443.06 173.722 443.737 173.722C444.177 173.722 444.575 173.66 444.93 173.537C445.29 173.409 445.6 173.22 445.86 172.969C446.121 172.713 446.322 172.396 446.464 172.017L448.083 172.472C447.913 173.021 447.627 173.504 447.224 173.92C446.822 174.332 446.324 174.654 445.733 174.886C445.141 175.114 444.475 175.227 443.737 175.227ZM458.531 166.534L457.025 166.96C456.931 166.709 456.791 166.465 456.606 166.229C456.426 165.987 456.18 165.788 455.868 165.632C455.555 165.476 455.155 165.398 454.667 165.398C454 165.398 453.443 165.552 452.998 165.859C452.558 166.162 452.338 166.548 452.338 167.017C452.338 167.434 452.489 167.763 452.792 168.004C453.095 168.246 453.569 168.447 454.213 168.608L455.832 169.006C456.807 169.242 457.534 169.605 458.012 170.092C458.491 170.575 458.73 171.198 458.73 171.96C458.73 172.585 458.55 173.144 458.19 173.636C457.835 174.129 457.338 174.517 456.699 174.801C456.059 175.085 455.316 175.227 454.468 175.227C453.356 175.227 452.435 174.986 451.706 174.503C450.976 174.02 450.515 173.314 450.321 172.386L451.912 171.989C452.063 172.576 452.35 173.016 452.771 173.31C453.197 173.603 453.753 173.75 454.44 173.75C455.221 173.75 455.842 173.584 456.301 173.253C456.765 172.917 456.997 172.514 456.997 172.045C456.997 171.667 456.864 171.349 456.599 171.094C456.334 170.833 455.927 170.639 455.377 170.511L453.559 170.085C452.56 169.848 451.826 169.482 451.358 168.984C450.894 168.482 450.662 167.855 450.662 167.102C450.662 166.487 450.834 165.942 451.18 165.469C451.53 164.995 452.006 164.624 452.608 164.354C453.214 164.084 453.9 163.949 454.667 163.949C455.747 163.949 456.594 164.186 457.21 164.659C457.83 165.133 458.27 165.758 458.531 166.534ZM468.98 166.534L467.474 166.96C467.38 166.709 467.24 166.465 467.055 166.229C466.875 165.987 466.629 165.788 466.317 165.632C466.004 165.476 465.604 165.398 465.116 165.398C464.449 165.398 463.893 165.552 463.447 165.859C463.007 166.162 462.787 166.548 462.787 167.017C462.787 167.434 462.938 167.763 463.241 168.004C463.545 168.246 464.018 168.447 464.662 168.608L466.281 169.006C467.257 169.242 467.983 169.605 468.462 170.092C468.94 170.575 469.179 171.198 469.179 171.96C469.179 172.585 468.999 173.144 468.639 173.636C468.284 174.129 467.787 174.517 467.148 174.801C466.509 175.085 465.765 175.227 464.918 175.227C463.805 175.227 462.884 174.986 462.155 174.503C461.426 174.02 460.964 173.314 460.77 172.386L462.361 171.989C462.512 172.576 462.799 173.016 463.22 173.31C463.646 173.603 464.203 173.75 464.889 173.75C465.67 173.75 466.291 173.584 466.75 173.253C467.214 172.917 467.446 172.514 467.446 172.045C467.446 171.667 467.313 171.349 467.048 171.094C466.783 170.833 466.376 170.639 465.827 170.511L464.009 170.085C463.009 169.848 462.276 169.482 461.807 168.984C461.343 168.482 461.111 167.855 461.111 167.102C461.111 166.487 461.284 165.942 461.629 165.469C461.98 164.995 462.455 164.624 463.057 164.354C463.663 164.084 464.349 163.949 465.116 163.949C466.196 163.949 467.044 164.186 467.659 164.659C468.279 165.133 468.72 165.758 468.98 166.534Z" fill="white" fill-opacity="0.95"/>
<rect x="741.5" y="156" width="48" height="24" rx="12" fill="#64B4FA"/>
<rect x="767.5" y="158" width="20" height="20" rx="10" fill="white"/>
<path d="M775.7 171.075C775.651 171.075 775.602 171.065 775.556 171.046C775.51 171.027 775.469 170.999 775.434 170.964L772.734 168.251C772.7 168.216 772.672 168.175 772.653 168.129C772.635 168.084 772.625 168.035 772.625 167.986C772.625 167.936 772.635 167.888 772.654 167.842C772.673 167.797 772.701 167.755 772.736 167.721C772.771 167.686 772.812 167.658 772.858 167.64C772.903 167.621 772.952 167.611 773.001 167.612C773.05 167.612 773.099 167.622 773.145 167.641C773.19 167.66 773.231 167.687 773.266 167.722L775.72 170.189L781.756 165.016C781.832 164.951 781.93 164.919 782.029 164.926C782.128 164.934 782.22 164.981 782.285 165.056C782.349 165.132 782.381 165.23 782.374 165.329C782.366 165.428 782.319 165.52 782.244 165.585L775.944 170.984C775.876 171.043 775.79 171.075 775.7 171.075Z" fill="black" fill-opacity="0.95"/>
</svg>
