<svg width="97" height="25" viewBox="0 0 97 25" fill="none" xmlns="http://www.w3.org/2000/svg">
<rect x="0.5" y="0.5" width="48" height="24" rx="12" fill="white" fill-opacity="0.4"/>
<rect x="0.5" y="0.5" width="48" height="24" rx="12" stroke="#707070"/>
<rect x="2.5" y="2.5" width="20" height="20" rx="10" fill="white"/>
<path d="M13.0303 12.5L16.1402 9.39013C16.175 9.35531 16.2026 9.31397 16.2214 9.26848C16.2403 9.22299 16.25 9.17423 16.25 9.12499C16.25 9.07575 16.2403 9.02699 16.2214 8.9815C16.2026 8.93601 16.175 8.89467 16.1402 8.85986C16.1053 8.82504 16.064 8.79742 16.0185 8.77858C15.973 8.75974 15.9243 8.75004 15.875 8.75004C15.8258 8.75004 15.777 8.75974 15.7315 8.77858C15.686 8.79743 15.6447 8.82505 15.6099 8.85987L12.5 11.9697L9.39013 8.85987C9.35538 8.82472 9.31403 8.7968 9.26846 8.77769C9.22288 8.75858 9.17397 8.74868 9.12455 8.74854C9.07513 8.7484 9.02617 8.75803 8.98049 8.77688C8.9348 8.79572 8.8933 8.82342 8.85835 8.85836C8.82341 8.89331 8.79572 8.93482 8.77687 8.98051C8.75802 9.02619 8.74839 9.07515 8.74854 9.12457C8.74868 9.17399 8.75859 9.2229 8.7777 9.26847C8.79681 9.31405 8.82474 9.3554 8.85988 9.39014L11.9698 12.5L8.85988 15.6099C8.82506 15.6447 8.79744 15.686 8.7786 15.7315C8.75976 15.777 8.75006 15.8258 8.75006 15.875C8.75006 15.9243 8.75975 15.973 8.7786 16.0185C8.79744 16.064 8.82506 16.1053 8.85988 16.1402C8.8947 16.175 8.93603 16.2026 8.98153 16.2214C9.02702 16.2403 9.07578 16.25 9.12502 16.25C9.17426 16.25 9.22302 16.2403 9.26851 16.2215C9.314 16.2026 9.35534 16.175 9.39015 16.1402L12.5 13.0303L15.6099 16.1402C15.6802 16.2105 15.7756 16.25 15.875 16.25C15.9745 16.25 16.0699 16.2105 16.1402 16.1402C16.2105 16.0698 16.25 15.9745 16.25 15.875C16.25 15.7756 16.2105 15.6802 16.1402 15.6099L13.0303 12.5Z" fill="black" fill-opacity="0.95"/>
<path d="M61.733 17.5V7.31818H62.9659V16.4062H67.6989V17.5H61.733ZM71.696 17.679C71.2121 17.679 70.773 17.5878 70.3786 17.4055C69.9841 17.2199 69.6709 16.9531 69.4389 16.6051C69.2069 16.2538 69.0909 15.8295 69.0909 15.3324C69.0909 14.8949 69.1771 14.5402 69.3494 14.2685C69.5218 13.9934 69.7521 13.7779 70.0405 13.6222C70.3288 13.4664 70.647 13.3504 70.995 13.2741C71.3464 13.1946 71.6993 13.1316 72.054 13.0852C72.518 13.0256 72.8942 12.9808 73.1825 12.951C73.4742 12.9179 73.6863 12.8632 73.8189 12.7869C73.9548 12.7107 74.0227 12.5781 74.0227 12.3892V12.3494C74.0227 11.8589 73.8885 11.4777 73.62 11.206C73.3549 10.9342 72.9522 10.7983 72.4119 10.7983C71.8518 10.7983 71.4126 10.9209 71.0945 11.1662C70.7763 11.4115 70.5526 11.6733 70.4233 11.9517L69.3097 11.554C69.5085 11.09 69.7737 10.7287 70.1051 10.4702C70.4399 10.2083 70.8045 10.026 71.1989 9.9233C71.5966 9.81723 71.9877 9.7642 72.3722 9.7642C72.6174 9.7642 72.8991 9.79403 73.2173 9.85369C73.5388 9.91004 73.8487 10.0277 74.147 10.2067C74.4486 10.3857 74.6989 10.6558 74.8977 11.017C75.0966 11.3783 75.196 11.8622 75.196 12.4688V17.5H74.0227V16.4659H73.9631C73.8835 16.6316 73.7509 16.8089 73.5653 16.9979C73.3797 17.1868 73.1328 17.3475 72.8246 17.4801C72.5163 17.6127 72.1402 17.679 71.696 17.679ZM71.875 16.625C72.339 16.625 72.7301 16.5339 73.0483 16.3516C73.3698 16.1693 73.6117 15.9339 73.7741 15.6456C73.9399 15.3572 74.0227 15.054 74.0227 14.7358V13.6619C73.973 13.7216 73.8636 13.7763 73.6946 13.826C73.5289 13.8724 73.3366 13.9138 73.1179 13.9503C72.9025 13.9834 72.692 14.0133 72.4865 14.0398C72.2843 14.063 72.1203 14.0829 71.9943 14.0994C71.6894 14.1392 71.4044 14.2038 71.1392 14.2933C70.8774 14.3795 70.6652 14.5104 70.5028 14.6861C70.3438 14.8584 70.2642 15.0937 70.2642 15.392C70.2642 15.7997 70.415 16.108 70.7166 16.3168C71.0215 16.5223 71.4077 16.625 71.875 16.625ZM77.4966 17.5V7.31818H78.6699V11.0767H78.7694C78.8555 10.9441 78.9748 10.7751 79.1273 10.5696C79.2831 10.3608 79.5051 10.1752 79.7935 10.0128C80.0852 9.84706 80.4796 9.7642 80.9767 9.7642C81.6197 9.7642 82.1865 9.92495 82.677 10.2464C83.1676 10.5679 83.5504 11.0237 83.8255 11.6136C84.1006 12.2036 84.2381 12.8996 84.2381 13.7017C84.2381 14.5104 84.1006 15.2114 83.8255 15.8047C83.5504 16.3946 83.1692 16.852 82.682 17.1768C82.1948 17.4983 81.633 17.6591 80.9966 17.6591C80.5061 17.6591 80.1133 17.5779 79.8184 17.4155C79.5234 17.2498 79.2963 17.0625 79.1373 16.8537C78.9782 16.6416 78.8555 16.4659 78.7694 16.3267H78.6301V17.5H77.4966ZM78.65 13.6818C78.65 14.2585 78.7346 14.7673 78.9036 15.2081C79.0726 15.6456 79.3195 15.9886 79.6444 16.2372C79.9692 16.4825 80.3669 16.6051 80.8375 16.6051C81.3281 16.6051 81.7374 16.4759 82.0655 16.2173C82.397 15.9555 82.6455 15.6042 82.8113 15.1634C82.9803 14.7192 83.0648 14.2254 83.0648 13.6818C83.0648 13.1449 82.9819 12.661 82.8162 12.2301C82.6538 11.7959 82.4069 11.4529 82.0755 11.201C81.7473 10.9458 81.3347 10.8182 80.8375 10.8182C80.3603 10.8182 79.9592 10.9392 79.6344 11.1811C79.3096 11.4197 79.0643 11.7545 78.8986 12.1854C78.7329 12.6129 78.65 13.1117 78.65 13.6818ZM89.2346 17.6591C88.4988 17.6591 87.8641 17.4967 87.3304 17.1719C86.8001 16.8438 86.3908 16.3864 86.1025 15.7997C85.8174 15.2098 85.6749 14.5237 85.6749 13.7415C85.6749 12.9593 85.8174 12.2699 86.1025 11.6733C86.3908 11.0734 86.7918 10.6061 87.3056 10.2713C87.8226 9.93324 88.4258 9.7642 89.1152 9.7642C89.513 9.7642 89.9057 9.83049 90.2935 9.96307C90.6813 10.0956 91.0343 10.3111 91.3525 10.6094C91.6706 10.9044 91.9242 11.2955 92.1131 11.7827C92.302 12.2699 92.3965 12.8698 92.3965 13.5824V14.0795H86.5101V13.0653H91.2033C91.2033 12.6345 91.1171 12.25 90.9448 11.9119C90.7757 11.5739 90.5338 11.3071 90.2189 11.1115C89.9074 10.916 89.5395 10.8182 89.1152 10.8182C88.6479 10.8182 88.2435 10.9342 87.9022 11.1662C87.5641 11.3949 87.3039 11.6932 87.1216 12.0611C86.9393 12.429 86.8482 12.8234 86.8482 13.2443V13.9205C86.8482 14.4972 86.9476 14.986 87.1465 15.3871C87.3487 15.7848 87.6287 16.0881 87.9867 16.2969C88.3446 16.5024 88.7606 16.6051 89.2346 16.6051C89.5428 16.6051 89.8212 16.562 90.0698 16.4759C90.3217 16.3864 90.5388 16.2538 90.7211 16.0781C90.9034 15.8991 91.0442 15.6771 91.1436 15.4119L92.2772 15.7301C92.1578 16.1146 91.9573 16.4527 91.6756 16.7443C91.3939 17.0327 91.0459 17.258 90.6316 17.4205C90.2173 17.5795 89.7516 17.6591 89.2346 17.6591ZM95.3546 7.31818V17.5H94.1813V7.31818H95.3546Z" fill="white" fill-opacity="0.95"/>
</svg>
