<svg width="20" height="20" viewBox="0 0 20 20" fill="none" xmlns="http://www.w3.org/2000/svg">
<rect width="20" height="20" rx="10" fill="white"/>
<path d="M8.1827 13.0748C8.13326 13.075 8.0843 13.0652 8.03865 13.0462C7.99301 13.0273 7.9516 12.9994 7.91682 12.9642L5.21676 10.251C5.18203 10.2161 5.15453 10.1747 5.13581 10.1291C5.11709 10.0836 5.10753 10.0348 5.10767 9.98555C5.1078 9.93631 5.11764 9.88757 5.13661 9.84213C5.15558 9.79669 5.18331 9.75543 5.21823 9.72071C5.25314 9.68599 5.29455 9.65848 5.3401 9.63977C5.38564 9.62105 5.43443 9.61148 5.48367 9.61162C5.53291 9.61176 5.58164 9.62159 5.62709 9.64056C5.67253 9.65953 5.71378 9.68727 5.74851 9.72218L8.20285 12.1886L14.2387 7.01552C14.3142 6.95083 14.4123 6.91877 14.5114 6.9264C14.6105 6.93402 14.7025 6.9807 14.7672 7.05617C14.8319 7.13163 14.8639 7.2297 14.8563 7.32881C14.8487 7.42791 14.802 7.51992 14.7265 7.58461L8.4266 12.9844C8.35878 13.0428 8.27222 13.0749 8.1827 13.0748Z" fill="black" fill-opacity="0.95"/>
</svg>
