<svg width="1150" height="300" viewBox="0 0 1150 300" fill="none" xmlns="http://www.w3.org/2000/svg">
<rect width="1150" height="300" rx="24" fill="#1A1A1A"/>
<rect x="611.378" y="126" width="48" height="24" rx="12" fill="#64B4FA"/>
<rect x="637.378" y="128" width="20" height="20" rx="10" fill="white"/>
<path d="M645.578 141.075C645.529 141.075 645.48 141.065 645.434 141.046C645.389 141.027 645.347 140.999 645.312 140.964L642.612 138.251C642.578 138.216 642.55 138.175 642.531 138.129C642.513 138.084 642.503 138.035 642.503 137.986C642.503 137.936 642.513 137.888 642.532 137.842C642.551 137.797 642.579 137.755 642.614 137.721C642.649 137.686 642.69 137.658 642.736 137.64C642.781 137.621 642.83 137.611 642.879 137.612C642.928 137.612 642.977 137.622 643.023 137.641C643.068 137.66 643.109 137.687 643.144 137.722L645.598 140.189L651.634 135.016C651.71 134.951 651.808 134.919 651.907 134.926C652.006 134.934 652.098 134.981 652.163 135.056C652.227 135.132 652.259 135.23 652.252 135.329C652.244 135.428 652.197 135.52 652.122 135.585L645.822 140.984C645.754 141.043 645.668 141.075 645.578 141.075Z" fill="black" fill-opacity="0.95"/>
<path d="M672.611 143V132.818H673.844V141.906H678.577V143H672.611ZM682.574 143.179C682.09 143.179 681.651 143.088 681.256 142.906C680.862 142.72 680.549 142.453 680.317 142.105C680.085 141.754 679.969 141.33 679.969 140.832C679.969 140.395 680.055 140.04 680.227 139.768C680.4 139.493 680.63 139.278 680.918 139.122C681.207 138.966 681.525 138.85 681.873 138.774C682.224 138.695 682.577 138.632 682.932 138.585C683.396 138.526 683.772 138.481 684.06 138.451C684.352 138.418 684.564 138.363 684.697 138.287C684.833 138.211 684.901 138.078 684.901 137.889V137.849C684.901 137.359 684.766 136.978 684.498 136.706C684.233 136.434 683.83 136.298 683.29 136.298C682.73 136.298 682.291 136.421 681.972 136.666C681.654 136.911 681.43 137.173 681.301 137.452L680.188 137.054C680.386 136.59 680.652 136.229 680.983 135.97C681.318 135.708 681.682 135.526 682.077 135.423C682.475 135.317 682.866 135.264 683.25 135.264C683.495 135.264 683.777 135.294 684.095 135.354C684.417 135.41 684.727 135.528 685.025 135.707C685.327 135.886 685.577 136.156 685.776 136.517C685.975 136.878 686.074 137.362 686.074 137.969V143H684.901V141.966H684.841C684.761 142.132 684.629 142.309 684.443 142.498C684.258 142.687 684.011 142.848 683.703 142.98C683.394 143.113 683.018 143.179 682.574 143.179ZM682.753 142.125C683.217 142.125 683.608 142.034 683.926 141.852C684.248 141.669 684.49 141.434 684.652 141.146C684.818 140.857 684.901 140.554 684.901 140.236V139.162C684.851 139.222 684.742 139.276 684.573 139.326C684.407 139.372 684.215 139.414 683.996 139.45C683.78 139.483 683.57 139.513 683.364 139.54C683.162 139.563 682.998 139.583 682.872 139.599C682.567 139.639 682.282 139.704 682.017 139.793C681.755 139.879 681.543 140.01 681.381 140.186C681.222 140.358 681.142 140.594 681.142 140.892C681.142 141.3 681.293 141.608 681.595 141.817C681.899 142.022 682.286 142.125 682.753 142.125ZM688.375 143V132.818H689.548V136.577H689.647C689.733 136.444 689.853 136.275 690.005 136.07C690.161 135.861 690.383 135.675 690.671 135.513C690.963 135.347 691.358 135.264 691.855 135.264C692.498 135.264 693.064 135.425 693.555 135.746C694.045 136.068 694.428 136.524 694.703 137.114C694.978 137.704 695.116 138.4 695.116 139.202C695.116 140.01 694.978 140.711 694.703 141.305C694.428 141.895 694.047 142.352 693.56 142.677C693.073 142.998 692.511 143.159 691.875 143.159C691.384 143.159 690.991 143.078 690.696 142.915C690.401 142.75 690.174 142.562 690.015 142.354C689.856 142.142 689.733 141.966 689.647 141.827H689.508V143H688.375ZM689.528 139.182C689.528 139.759 689.612 140.267 689.782 140.708C689.951 141.146 690.197 141.489 690.522 141.737C690.847 141.982 691.245 142.105 691.715 142.105C692.206 142.105 692.615 141.976 692.943 141.717C693.275 141.455 693.523 141.104 693.689 140.663C693.858 140.219 693.943 139.725 693.943 139.182C693.943 138.645 693.86 138.161 693.694 137.73C693.532 137.296 693.285 136.953 692.953 136.701C692.625 136.446 692.213 136.318 691.715 136.318C691.238 136.318 690.837 136.439 690.512 136.681C690.188 136.92 689.942 137.254 689.777 137.685C689.611 138.113 689.528 138.612 689.528 139.182ZM700.112 143.159C699.377 143.159 698.742 142.997 698.208 142.672C697.678 142.344 697.269 141.886 696.98 141.3C696.695 140.71 696.553 140.024 696.553 139.241C696.553 138.459 696.695 137.77 696.98 137.173C697.269 136.573 697.67 136.106 698.184 135.771C698.701 135.433 699.304 135.264 699.993 135.264C700.391 135.264 700.784 135.33 701.171 135.463C701.559 135.596 701.912 135.811 702.23 136.109C702.549 136.404 702.802 136.795 702.991 137.283C703.18 137.77 703.274 138.37 703.274 139.082V139.58H697.388V138.565H702.081C702.081 138.134 701.995 137.75 701.823 137.412C701.654 137.074 701.412 136.807 701.097 136.612C700.785 136.416 700.417 136.318 699.993 136.318C699.526 136.318 699.121 136.434 698.78 136.666C698.442 136.895 698.182 137.193 698 137.561C697.817 137.929 697.726 138.323 697.726 138.744V139.42C697.726 139.997 697.826 140.486 698.024 140.887C698.227 141.285 698.507 141.588 698.865 141.797C699.223 142.002 699.639 142.105 700.112 142.105C700.421 142.105 700.699 142.062 700.948 141.976C701.2 141.886 701.417 141.754 701.599 141.578C701.781 141.399 701.922 141.177 702.022 140.912L703.155 141.23C703.036 141.615 702.835 141.953 702.554 142.244C702.272 142.533 701.924 142.758 701.509 142.92C701.095 143.08 700.63 143.159 700.112 143.159ZM706.233 132.818V143H705.059V132.818H706.233Z" fill="white" fill-opacity="0.95"/>
<path d="M690.017 84V118" stroke="#DA0087"/>
<path d="M690.017 126L686.017 118H694.017L690.017 126Z" fill="#DA0087"/>
<rect x="657.017" y="64" width="66" height="28" rx="14" fill="#DA0087"/>
<path d="M670.426 84V72.3636H671.836V82.75H677.245V84H670.426ZM681.813 84.2045C681.26 84.2045 680.758 84.1004 680.307 83.892C679.856 83.6799 679.498 83.375 679.233 82.9773C678.968 82.5758 678.836 82.0909 678.836 81.5227C678.836 81.0227 678.934 80.6174 679.131 80.3068C679.328 79.9924 679.591 79.7462 679.921 79.5682C680.25 79.3902 680.614 79.2576 681.012 79.1705C681.413 79.0795 681.817 79.0076 682.222 78.9545C682.752 78.8864 683.182 78.8352 683.512 78.8011C683.845 78.7633 684.087 78.7008 684.239 78.6136C684.394 78.5265 684.472 78.375 684.472 78.1591V78.1136C684.472 77.553 684.318 77.1174 684.012 76.8068C683.709 76.4962 683.248 76.3409 682.631 76.3409C681.991 76.3409 681.489 76.4811 681.125 76.7614C680.762 77.0417 680.506 77.3409 680.358 77.6591L679.086 77.2045C679.313 76.6742 679.616 76.2614 679.995 75.9659C680.377 75.6667 680.794 75.4583 681.245 75.3409C681.699 75.2197 682.146 75.1591 682.586 75.1591C682.866 75.1591 683.188 75.1932 683.551 75.2614C683.919 75.3258 684.273 75.4602 684.614 75.6648C684.959 75.8693 685.245 76.178 685.472 76.5909C685.699 77.0038 685.813 77.5568 685.813 78.25V84H684.472V82.8182H684.404C684.313 83.0076 684.161 83.2102 683.949 83.4261C683.737 83.642 683.455 83.8258 683.103 83.9773C682.75 84.1288 682.32 84.2045 681.813 84.2045ZM682.017 83C682.548 83 682.995 82.8958 683.358 82.6875C683.726 82.4792 684.002 82.2102 684.188 81.8807C684.377 81.5511 684.472 81.2045 684.472 80.8409V79.6136C684.415 79.6818 684.29 79.7443 684.097 79.8011C683.907 79.8542 683.688 79.9015 683.438 79.9432C683.192 79.9811 682.951 80.0152 682.716 80.0455C682.485 80.072 682.298 80.0947 682.154 80.1136C681.805 80.1591 681.479 80.233 681.176 80.3352C680.877 80.4337 680.635 80.5833 680.449 80.7841C680.267 80.9811 680.176 81.25 680.176 81.5909C680.176 82.0568 680.349 82.4091 680.693 82.6477C681.042 82.8826 681.483 83 682.017 83ZM688.442 84V72.3636H689.783V76.6591H689.897C689.995 76.5076 690.131 76.3144 690.306 76.0795C690.484 75.8409 690.738 75.6288 691.067 75.4432C691.4 75.2538 691.851 75.1591 692.419 75.1591C693.154 75.1591 693.802 75.3428 694.363 75.7102C694.923 76.0777 695.361 76.5985 695.675 77.2727C695.989 77.947 696.147 78.7424 696.147 79.6591C696.147 80.5833 695.989 81.3845 695.675 82.0625C695.361 82.7367 694.925 83.2595 694.368 83.6307C693.811 83.9981 693.169 84.1818 692.442 84.1818C691.881 84.1818 691.433 84.089 691.095 83.9034C690.758 83.714 690.499 83.5 690.317 83.2614C690.135 83.0189 689.995 82.8182 689.897 82.6591H689.738V84H688.442ZM689.76 79.6364C689.76 80.2955 689.857 80.8769 690.05 81.3807C690.243 81.8807 690.525 82.2727 690.897 82.5568C691.268 82.8371 691.722 82.9773 692.26 82.9773C692.821 82.9773 693.289 82.8295 693.664 82.5341C694.042 82.2348 694.327 81.8333 694.516 81.3295C694.709 80.822 694.806 80.2576 694.806 79.6364C694.806 79.0227 694.711 78.4697 694.522 77.9773C694.336 77.4811 694.054 77.089 693.675 76.8011C693.3 76.5095 692.828 76.3636 692.26 76.3636C691.715 76.3636 691.256 76.5019 690.885 76.7784C690.514 77.0511 690.234 77.4337 690.044 77.9261C689.855 78.4148 689.76 78.9848 689.76 79.6364ZM701.857 84.1818C701.016 84.1818 700.291 83.9962 699.681 83.625C699.075 83.25 698.607 82.7273 698.277 82.0568C697.952 81.3826 697.789 80.5985 697.789 79.7045C697.789 78.8106 697.952 78.0227 698.277 77.3409C698.607 76.6553 699.065 76.1212 699.652 75.7386C700.243 75.3523 700.933 75.1591 701.72 75.1591C702.175 75.1591 702.624 75.2348 703.067 75.3864C703.51 75.5379 703.914 75.7841 704.277 76.125C704.641 76.4621 704.931 76.9091 705.147 77.4659C705.363 78.0227 705.47 78.7083 705.47 79.5227V80.0909H698.743V78.9318H704.107C704.107 78.4394 704.008 78 703.811 77.6136C703.618 77.2273 703.342 76.9223 702.982 76.6989C702.626 76.4754 702.205 76.3636 701.72 76.3636C701.186 76.3636 700.724 76.4962 700.334 76.7614C699.948 77.0227 699.65 77.3636 699.442 77.7841C699.234 78.2045 699.13 78.6553 699.13 79.1364V79.9091C699.13 80.5682 699.243 81.1269 699.47 81.5852C699.702 82.0398 700.022 82.3864 700.431 82.625C700.84 82.8598 701.315 82.9773 701.857 82.9773C702.209 82.9773 702.527 82.928 702.811 82.8295C703.099 82.7273 703.347 82.5758 703.556 82.375C703.764 82.1705 703.925 81.9167 704.039 81.6136L705.334 81.9773C705.198 82.4167 704.969 82.803 704.647 83.1364C704.325 83.4659 703.927 83.7235 703.453 83.9091C702.98 84.0909 702.448 84.1818 701.857 84.1818ZM708.851 72.3636V84H707.51V72.3636H708.851Z" fill="white" fill-opacity="0.95"/>
<path d="M560 138H598" stroke="#DA0087"/>
<path d="M606 138L598 134V142L606 138Z" fill="#DA0087"/>
<rect x="502" y="124" width="66" height="28" rx="14" fill="#DA0087"/>
<path d="M514.773 133.614V132.364H523.5V133.614H519.841V144H518.432V133.614H514.773ZM524.587 144V135.273H525.882V136.591H525.973C526.132 136.159 526.42 135.809 526.837 135.54C527.253 135.271 527.723 135.136 528.246 135.136C528.344 135.136 528.467 135.138 528.615 135.142C528.763 135.146 528.875 135.152 528.95 135.159V136.523C528.905 136.511 528.801 136.494 528.638 136.472C528.479 136.445 528.31 136.432 528.132 136.432C527.708 136.432 527.329 136.521 526.996 136.699C526.666 136.873 526.405 137.116 526.212 137.426C526.022 137.733 525.928 138.083 525.928 138.477V144H524.587ZM533.108 144.205C532.555 144.205 532.053 144.1 531.602 143.892C531.152 143.68 530.794 143.375 530.528 142.977C530.263 142.576 530.131 142.091 530.131 141.523C530.131 141.023 530.229 140.617 530.426 140.307C530.623 139.992 530.886 139.746 531.216 139.568C531.545 139.39 531.909 139.258 532.307 139.17C532.708 139.08 533.112 139.008 533.517 138.955C534.047 138.886 534.477 138.835 534.807 138.801C535.14 138.763 535.383 138.701 535.534 138.614C535.689 138.527 535.767 138.375 535.767 138.159V138.114C535.767 137.553 535.614 137.117 535.307 136.807C535.004 136.496 534.544 136.341 533.926 136.341C533.286 136.341 532.784 136.481 532.42 136.761C532.057 137.042 531.801 137.341 531.653 137.659L530.381 137.205C530.608 136.674 530.911 136.261 531.29 135.966C531.672 135.667 532.089 135.458 532.54 135.341C532.994 135.22 533.441 135.159 533.881 135.159C534.161 135.159 534.483 135.193 534.847 135.261C535.214 135.326 535.568 135.46 535.909 135.665C536.254 135.869 536.54 136.178 536.767 136.591C536.994 137.004 537.108 137.557 537.108 138.25V144H535.767V142.818H535.699C535.608 143.008 535.456 143.21 535.244 143.426C535.032 143.642 534.75 143.826 534.398 143.977C534.045 144.129 533.616 144.205 533.108 144.205ZM533.312 143C533.843 143 534.29 142.896 534.653 142.688C535.021 142.479 535.297 142.21 535.483 141.881C535.672 141.551 535.767 141.205 535.767 140.841V139.614C535.71 139.682 535.585 139.744 535.392 139.801C535.203 139.854 534.983 139.902 534.733 139.943C534.487 139.981 534.246 140.015 534.011 140.045C533.78 140.072 533.593 140.095 533.449 140.114C533.1 140.159 532.775 140.233 532.472 140.335C532.172 140.434 531.93 140.583 531.744 140.784C531.563 140.981 531.472 141.25 531.472 141.591C531.472 142.057 531.644 142.409 531.989 142.648C532.337 142.883 532.778 143 533.312 143ZM543.101 144.182C542.283 144.182 541.578 143.989 540.987 143.602C540.396 143.216 539.942 142.684 539.624 142.006C539.305 141.328 539.146 140.553 539.146 139.682C539.146 138.795 539.309 138.013 539.635 137.335C539.964 136.653 540.423 136.121 541.01 135.739C541.601 135.352 542.29 135.159 543.078 135.159C543.692 135.159 544.245 135.273 544.737 135.5C545.23 135.727 545.633 136.045 545.947 136.455C546.262 136.864 546.457 137.341 546.533 137.886H545.192C545.089 137.489 544.862 137.136 544.51 136.83C544.161 136.519 543.692 136.364 543.101 136.364C542.578 136.364 542.12 136.5 541.726 136.773C541.336 137.042 541.031 137.422 540.811 137.915C540.595 138.403 540.487 138.977 540.487 139.636C540.487 140.311 540.593 140.898 540.805 141.398C541.021 141.898 541.324 142.286 541.714 142.562C542.108 142.839 542.571 142.977 543.101 142.977C543.449 142.977 543.766 142.917 544.05 142.795C544.334 142.674 544.574 142.5 544.771 142.273C544.968 142.045 545.108 141.773 545.192 141.455H546.533C546.457 141.97 546.269 142.434 545.97 142.847C545.675 143.256 545.283 143.581 544.794 143.824C544.309 144.062 543.745 144.182 543.101 144.182ZM549.743 140.818L549.72 139.159H549.993L553.811 135.273H555.47L551.402 139.386H551.288L549.743 140.818ZM548.493 144V132.364H549.834V144H548.493ZM554.038 144L550.629 139.682L551.584 138.75L555.743 144H554.038Z" fill="white" fill-opacity="0.95"/>
<path d="M648.049 197V163" stroke="#DA0087"/>
<path d="M648.049 155L644.049 163H652.049L648.049 155Z" fill="#DA0087"/>
<rect x="609.049" y="189" width="78" height="28" rx="14" fill="#DA0087"/>
<path d="M622.458 209V197.364H623.867V202.545H630.072V197.364H631.481V209H630.072V203.795H623.867V209H622.458ZM636.689 209.205C636.135 209.205 635.634 209.1 635.183 208.892C634.732 208.68 634.374 208.375 634.109 207.977C633.844 207.576 633.711 207.091 633.711 206.523C633.711 206.023 633.81 205.617 634.007 205.307C634.204 204.992 634.467 204.746 634.796 204.568C635.126 204.39 635.49 204.258 635.887 204.17C636.289 204.08 636.692 204.008 637.098 203.955C637.628 203.886 638.058 203.835 638.387 203.801C638.721 203.763 638.963 203.701 639.115 203.614C639.27 203.527 639.348 203.375 639.348 203.159V203.114C639.348 202.553 639.194 202.117 638.887 201.807C638.584 201.496 638.124 201.341 637.507 201.341C636.867 201.341 636.365 201.481 636.001 201.761C635.637 202.042 635.382 202.341 635.234 202.659L633.961 202.205C634.189 201.674 634.492 201.261 634.87 200.966C635.253 200.667 635.67 200.458 636.12 200.341C636.575 200.22 637.022 200.159 637.461 200.159C637.742 200.159 638.064 200.193 638.427 200.261C638.795 200.326 639.149 200.46 639.49 200.665C639.834 200.869 640.12 201.178 640.348 201.591C640.575 202.004 640.689 202.557 640.689 203.25V209H639.348V207.818H639.279C639.189 208.008 639.037 208.21 638.825 208.426C638.613 208.642 638.331 208.826 637.978 208.977C637.626 209.129 637.196 209.205 636.689 209.205ZM636.893 208C637.423 208 637.87 207.896 638.234 207.688C638.601 207.479 638.878 207.21 639.064 206.881C639.253 206.551 639.348 206.205 639.348 205.841V204.614C639.291 204.682 639.166 204.744 638.973 204.801C638.783 204.854 638.564 204.902 638.314 204.943C638.067 204.981 637.827 205.015 637.592 205.045C637.361 205.072 637.173 205.095 637.029 205.114C636.681 205.159 636.355 205.233 636.052 205.335C635.753 205.434 635.51 205.583 635.325 205.784C635.143 205.981 635.052 206.25 635.052 206.591C635.052 207.057 635.225 207.409 635.569 207.648C635.918 207.883 636.359 208 636.893 208ZM644.477 203.75V209H643.136V200.273H644.431V201.636H644.545C644.75 201.193 645.06 200.837 645.477 200.568C645.894 200.295 646.431 200.159 647.091 200.159C647.681 200.159 648.198 200.28 648.642 200.523C649.085 200.761 649.43 201.125 649.676 201.614C649.922 202.098 650.045 202.712 650.045 203.455V209H648.704V203.545C648.704 202.86 648.526 202.326 648.17 201.943C647.814 201.557 647.325 201.364 646.704 201.364C646.276 201.364 645.894 201.456 645.556 201.642C645.223 201.828 644.96 202.098 644.767 202.455C644.573 202.811 644.477 203.242 644.477 203.75ZM655.791 209.182C655.064 209.182 654.421 208.998 653.865 208.631C653.308 208.259 652.872 207.737 652.558 207.062C652.243 206.384 652.086 205.583 652.086 204.659C652.086 203.742 652.243 202.947 652.558 202.273C652.872 201.598 653.31 201.078 653.87 200.71C654.431 200.343 655.079 200.159 655.814 200.159C656.382 200.159 656.831 200.254 657.16 200.443C657.493 200.629 657.747 200.841 657.921 201.08C658.1 201.314 658.238 201.508 658.336 201.659H658.45V197.364H659.791V209H658.495V207.659H658.336C658.238 207.818 658.098 208.019 657.916 208.261C657.734 208.5 657.475 208.714 657.137 208.903C656.8 209.089 656.351 209.182 655.791 209.182ZM655.973 207.977C656.51 207.977 656.965 207.837 657.336 207.557C657.707 207.273 657.99 206.881 658.183 206.381C658.376 205.877 658.473 205.295 658.473 204.636C658.473 203.985 658.378 203.415 658.189 202.926C657.999 202.434 657.719 202.051 657.348 201.778C656.976 201.502 656.518 201.364 655.973 201.364C655.404 201.364 654.931 201.509 654.552 201.801C654.177 202.089 653.895 202.481 653.706 202.977C653.52 203.47 653.427 204.023 653.427 204.636C653.427 205.258 653.522 205.822 653.711 206.33C653.904 206.833 654.189 207.235 654.564 207.534C654.942 207.83 655.412 207.977 655.973 207.977ZM663.774 197.364V209H662.433V197.364H663.774ZM669.889 209.182C669.048 209.182 668.323 208.996 667.713 208.625C667.107 208.25 666.639 207.727 666.309 207.057C665.984 206.383 665.821 205.598 665.821 204.705C665.821 203.811 665.984 203.023 666.309 202.341C666.639 201.655 667.097 201.121 667.684 200.739C668.275 200.352 668.965 200.159 669.752 200.159C670.207 200.159 670.656 200.235 671.099 200.386C671.542 200.538 671.946 200.784 672.309 201.125C672.673 201.462 672.963 201.909 673.179 202.466C673.394 203.023 673.502 203.708 673.502 204.523V205.091H666.775V203.932H672.139C672.139 203.439 672.04 203 671.843 202.614C671.65 202.227 671.374 201.922 671.014 201.699C670.658 201.475 670.237 201.364 669.752 201.364C669.218 201.364 668.756 201.496 668.366 201.761C667.98 202.023 667.682 202.364 667.474 202.784C667.266 203.205 667.162 203.655 667.162 204.136V204.909C667.162 205.568 667.275 206.127 667.502 206.585C667.734 207.04 668.054 207.386 668.463 207.625C668.872 207.86 669.347 207.977 669.889 207.977C670.241 207.977 670.559 207.928 670.843 207.83C671.131 207.727 671.379 207.576 671.588 207.375C671.796 207.17 671.957 206.917 672.071 206.614L673.366 206.977C673.23 207.417 673.001 207.803 672.679 208.136C672.357 208.466 671.959 208.723 671.485 208.909C671.012 209.091 670.48 209.182 669.889 209.182Z" fill="white" fill-opacity="0.95"/>
</svg>
