<svg width="16" height="16" viewBox="0 0 16 16" fill="none" xmlns="http://www.w3.org/2000/svg">
<path d="M12.2247 11.5177C13.0455 10.5293 13.4948 9.28499 13.4948 8.00021C13.4948 6.71543 13.0455 5.4711 12.2247 4.48271L14.8535 1.85361C14.9009 1.8074 14.9387 1.75224 14.9646 1.69133C14.9905 1.63042 15.0041 1.56497 15.0045 1.49877C15.0049 1.43258 14.9922 1.36696 14.967 1.30573C14.9419 1.24449 14.9049 1.18886 14.8581 1.14205C14.8113 1.09525 14.7556 1.0582 14.6944 1.03306C14.6331 1.00792 14.5675 0.995196 14.5013 0.995616C14.4351 0.996035 14.3697 1.00959 14.3088 1.03551C14.2479 1.06142 14.1927 1.09917 14.1465 1.14656L11.5184 3.77471C10.5309 2.95119 9.2858 2.50015 7.99998 2.50015C6.71415 2.50015 5.46906 2.95119 4.48155 3.77471L1.85355 1.14656C1.75939 1.05475 1.63285 1.00374 1.50134 1.00458C1.36983 1.00541 1.24394 1.05802 1.15095 1.15101C1.05796 1.24401 1.00535 1.36989 1.00452 1.5014C1.00368 1.63291 1.05469 1.75945 1.1465 1.85361L3.77525 4.48236C2.95432 5.47079 2.50493 6.71521 2.50493 8.00009C2.50493 9.28497 2.95432 10.5294 3.77525 11.5178L1.1465 14.1466C1.0991 14.1928 1.06136 14.2479 1.03544 14.3088C1.00953 14.3698 0.995974 14.4352 0.995554 14.5014C0.995135 14.5676 1.00786 14.6332 1.033 14.6944C1.05814 14.7557 1.09518 14.8113 1.14199 14.8581C1.1888 14.9049 1.24443 14.942 1.30567 14.9671C1.3669 14.9922 1.43252 15.005 1.49871 15.0046C1.56491 15.0041 1.63036 14.9906 1.69127 14.9647C1.75218 14.9388 1.80734 14.901 1.85355 14.8536L4.48155 12.2256C5.46905 13.0491 6.71414 13.5001 7.99998 13.5001C9.28581 13.5001 10.5309 13.0491 11.5184 12.2256L14.1465 14.8536C14.2407 14.9454 14.3672 14.9964 14.4987 14.9956C14.6302 14.9948 14.7561 14.9422 14.8491 14.8492C14.9421 14.7562 14.9947 14.6303 14.9955 14.4988C14.9964 14.3673 14.9454 14.2407 14.8535 14.1466L12.2247 11.5177ZM11.5147 10.8077L8.70705 8.00011L11.5147 5.19246C12.1502 5.99027 12.4962 6.98009 12.4962 8.00009C12.4962 9.02008 12.1502 10.0099 11.5147 10.8077ZM8 3.50011C9.02103 3.49782 10.012 3.8456 10.8076 4.48546L8 7.29306L5.19235 4.48536C5.98802 3.84552 6.97898 3.49778 8 3.50011ZM4.485 5.19231L7.293 8.00011L4.485 10.8079C3.84946 10.01 3.5034 9.02013 3.5034 8.00009C3.5034 6.98004 3.84946 5.99017 4.485 5.19231ZM8 12.5001C6.97898 12.5024 5.98801 12.1547 5.19235 11.5148L8 8.70711L10.8076 11.5148C10.012 12.1546 9.02103 12.5024 8 12.5001Z" fill="white" fill-opacity="0.95"/>
</svg>
