<svg width="1150" height="240" viewBox="0 0 1150 240" fill="none" xmlns="http://www.w3.org/2000/svg">
<rect width="1150" height="240" rx="16" fill="#1A1A1A"/>
<rect x="510" y="100" width="130" height="40" rx="20" fill="white" fill-opacity="0.95"/>
<path d="M541.281 124.397C542.307 123.162 542.869 121.606 542.869 120C542.869 118.394 542.307 116.839 541.281 115.603L544.567 112.317C544.626 112.259 544.674 112.19 544.706 112.114C544.738 112.038 544.755 111.956 544.756 111.873C544.756 111.791 544.74 111.709 544.709 111.632C544.678 111.555 544.631 111.486 544.573 111.427C544.514 111.369 544.445 111.323 544.368 111.291C544.292 111.26 544.21 111.244 544.127 111.244C544.044 111.245 543.962 111.262 543.886 111.294C543.81 111.327 543.741 111.374 543.683 111.433L540.398 114.718C539.164 113.689 537.607 113.125 536 113.125C534.393 113.125 532.837 113.689 531.602 114.718L528.317 111.433C528.199 111.318 528.041 111.255 527.877 111.256C527.712 111.257 527.555 111.322 527.439 111.439C527.323 111.555 527.257 111.712 527.256 111.877C527.255 112.041 527.319 112.199 527.433 112.317L530.719 115.603C529.693 116.838 529.131 118.394 529.131 120C529.131 121.606 529.693 123.162 530.719 124.397L527.433 127.683C527.374 127.741 527.327 127.81 527.295 127.886C527.262 127.962 527.245 128.044 527.245 128.127C527.244 128.209 527.26 128.291 527.291 128.368C527.323 128.444 527.369 128.514 527.428 128.573C527.486 128.631 527.556 128.677 527.632 128.709C527.709 128.74 527.791 128.756 527.874 128.756C527.956 128.755 528.038 128.738 528.114 128.706C528.19 128.673 528.259 128.626 528.317 128.567L531.602 125.282C532.837 126.311 534.393 126.875 536 126.875C537.607 126.875 539.164 126.311 540.398 125.282L543.683 128.567C543.801 128.682 543.959 128.745 544.124 128.744C544.288 128.743 544.445 128.678 544.562 128.561C544.678 128.445 544.744 128.288 544.745 128.123C544.746 127.959 544.682 127.801 544.567 127.683L541.281 124.397ZM540.394 123.51L536.884 120L540.394 116.49C541.188 117.488 541.62 118.725 541.62 120C541.62 121.275 541.188 122.512 540.394 123.51ZM536 114.375C537.276 114.372 538.515 114.807 539.51 115.607L536 119.116L532.491 115.607C533.485 114.807 534.724 114.372 536 114.375ZM531.606 116.49L535.116 120L531.606 123.51C530.812 122.512 530.379 121.275 530.379 120C530.379 118.725 530.812 117.488 531.606 116.49ZM536 125.625C534.724 125.628 533.485 125.193 532.491 124.393L536 120.884L539.51 124.393C538.515 125.193 537.276 125.628 536 125.625Z" fill="black" fill-opacity="0.95"/>
<path d="M555.513 126V114.364H557.268V124.489H562.541V126H555.513ZM566.947 126.193C566.394 126.193 565.894 126.091 565.447 125.886C565 125.678 564.646 125.377 564.385 124.983C564.127 124.589 563.999 124.106 563.999 123.534C563.999 123.042 564.093 122.636 564.283 122.318C564.472 122 564.728 121.748 565.05 121.562C565.372 121.377 565.732 121.237 566.129 121.142C566.527 121.047 566.932 120.975 567.345 120.926C567.868 120.866 568.292 120.816 568.618 120.778C568.944 120.737 569.18 120.67 569.328 120.58C569.476 120.489 569.55 120.341 569.55 120.136V120.097C569.55 119.6 569.41 119.216 569.129 118.943C568.853 118.67 568.44 118.534 567.891 118.534C567.319 118.534 566.868 118.661 566.538 118.915C566.213 119.165 565.987 119.443 565.862 119.75L564.266 119.386C564.455 118.856 564.732 118.428 565.095 118.102C565.463 117.773 565.885 117.534 566.362 117.386C566.839 117.235 567.341 117.159 567.868 117.159C568.216 117.159 568.586 117.201 568.976 117.284C569.37 117.364 569.737 117.511 570.078 117.727C570.423 117.943 570.705 118.252 570.925 118.653C571.144 119.051 571.254 119.568 571.254 120.205V126H569.595V124.807H569.527C569.417 125.027 569.252 125.242 569.033 125.455C568.813 125.667 568.531 125.843 568.186 125.983C567.841 126.123 567.429 126.193 566.947 126.193ZM567.317 124.83C567.786 124.83 568.188 124.737 568.521 124.551C568.858 124.366 569.114 124.123 569.288 123.824C569.466 123.521 569.555 123.197 569.555 122.852V121.727C569.495 121.788 569.377 121.845 569.203 121.898C569.033 121.947 568.838 121.991 568.618 122.028C568.398 122.062 568.184 122.095 567.976 122.125C567.768 122.152 567.593 122.174 567.453 122.193C567.124 122.235 566.822 122.305 566.55 122.403C566.281 122.502 566.065 122.644 565.902 122.83C565.743 123.011 565.663 123.254 565.663 123.557C565.663 123.977 565.819 124.295 566.129 124.511C566.44 124.723 566.836 124.83 567.317 124.83ZM573.653 126V114.364H575.352V118.688H575.455C575.553 118.506 575.695 118.295 575.881 118.057C576.066 117.818 576.324 117.61 576.653 117.432C576.983 117.25 577.419 117.159 577.96 117.159C578.665 117.159 579.294 117.337 579.847 117.693C580.4 118.049 580.833 118.562 581.148 119.233C581.466 119.903 581.625 120.71 581.625 121.653C581.625 122.597 581.468 123.405 581.153 124.08C580.839 124.75 580.407 125.267 579.858 125.631C579.309 125.991 578.682 126.17 577.977 126.17C577.447 126.17 577.013 126.081 576.676 125.903C576.343 125.725 576.081 125.517 575.892 125.278C575.703 125.04 575.557 124.828 575.455 124.642H575.312V126H573.653ZM575.318 121.636C575.318 122.25 575.407 122.788 575.585 123.25C575.763 123.712 576.021 124.074 576.358 124.335C576.695 124.593 577.108 124.722 577.597 124.722C578.104 124.722 578.528 124.587 578.869 124.318C579.21 124.045 579.468 123.676 579.642 123.21C579.82 122.744 579.909 122.22 579.909 121.636C579.909 121.061 579.822 120.544 579.648 120.085C579.477 119.627 579.22 119.265 578.875 119C578.534 118.735 578.108 118.602 577.597 118.602C577.104 118.602 576.688 118.729 576.347 118.983C576.009 119.237 575.754 119.591 575.58 120.045C575.405 120.5 575.318 121.03 575.318 121.636ZM587.294 126.176C586.434 126.176 585.694 125.992 585.072 125.625C584.455 125.254 583.978 124.733 583.641 124.062C583.307 123.388 583.141 122.598 583.141 121.693C583.141 120.799 583.307 120.011 583.641 119.33C583.978 118.648 584.447 118.116 585.05 117.733C585.656 117.35 586.364 117.159 587.175 117.159C587.667 117.159 588.144 117.241 588.607 117.403C589.069 117.566 589.483 117.822 589.851 118.17C590.218 118.519 590.508 118.972 590.72 119.528C590.932 120.081 591.038 120.754 591.038 121.545V122.148H584.101V120.875H589.374C589.374 120.428 589.283 120.032 589.101 119.688C588.919 119.339 588.663 119.064 588.334 118.864C588.008 118.663 587.625 118.562 587.186 118.562C586.709 118.562 586.292 118.68 585.936 118.915C585.584 119.146 585.311 119.449 585.118 119.824C584.929 120.195 584.834 120.598 584.834 121.034V122.028C584.834 122.612 584.936 123.108 585.141 123.517C585.349 123.926 585.639 124.239 586.01 124.455C586.381 124.667 586.815 124.773 587.311 124.773C587.633 124.773 587.927 124.727 588.192 124.636C588.457 124.542 588.686 124.402 588.879 124.216C589.072 124.03 589.22 123.801 589.322 123.528L590.93 123.818C590.802 124.292 590.571 124.706 590.237 125.062C589.908 125.415 589.493 125.689 588.993 125.886C588.497 126.08 587.93 126.176 587.294 126.176ZM594.622 114.364V126H592.923V114.364H594.622Z" fill="black" fill-opacity="0.95"/>
<path d="M619.281 124.397C620.307 123.162 620.869 121.606 620.869 120C620.869 118.394 620.307 116.839 619.281 115.603L622.567 112.317C622.626 112.259 622.674 112.19 622.706 112.114C622.738 112.038 622.755 111.956 622.756 111.873C622.756 111.791 622.74 111.709 622.709 111.632C622.678 111.555 622.631 111.486 622.573 111.427C622.514 111.369 622.445 111.323 622.368 111.291C622.292 111.26 622.21 111.244 622.127 111.244C622.044 111.245 621.962 111.262 621.886 111.294C621.81 111.327 621.741 111.374 621.683 111.433L618.398 114.718C617.164 113.689 615.607 113.125 614 113.125C612.393 113.125 610.837 113.689 609.602 114.718L606.317 111.433C606.199 111.318 606.041 111.255 605.877 111.256C605.712 111.257 605.555 111.322 605.439 111.439C605.323 111.555 605.257 111.712 605.256 111.877C605.255 112.041 605.319 112.199 605.433 112.317L608.719 115.603C607.693 116.838 607.131 118.394 607.131 120C607.131 121.606 607.693 123.162 608.719 124.397L605.433 127.683C605.374 127.741 605.327 127.81 605.295 127.886C605.262 127.962 605.245 128.044 605.245 128.127C605.244 128.209 605.26 128.291 605.291 128.368C605.323 128.444 605.369 128.514 605.428 128.573C605.486 128.631 605.556 128.677 605.632 128.709C605.709 128.74 605.791 128.756 605.874 128.756C605.956 128.755 606.038 128.738 606.114 128.706C606.19 128.673 606.259 128.626 606.317 128.567L609.602 125.282C610.837 126.311 612.393 126.875 614 126.875C615.607 126.875 617.164 126.311 618.398 125.282L621.683 128.567C621.801 128.682 621.959 128.745 622.124 128.744C622.288 128.743 622.445 128.678 622.562 128.561C622.678 128.445 622.744 128.288 622.745 128.123C622.746 127.959 622.682 127.801 622.567 127.683L619.281 124.397ZM618.394 123.51L614.884 120L618.394 116.49C619.188 117.488 619.62 118.725 619.62 120C619.62 121.275 619.188 122.512 618.394 123.51ZM614 114.375C615.276 114.372 616.515 114.807 617.51 115.607L614 119.116L610.491 115.607C611.485 114.807 612.724 114.372 614 114.375ZM609.606 116.49L613.116 120L609.606 123.51C608.812 122.512 608.379 121.275 608.379 120C608.379 118.725 608.812 117.488 609.606 116.49ZM614 125.625C612.724 125.628 611.485 125.193 610.491 124.393L614 120.884L617.51 124.393C616.515 125.193 615.276 125.628 614 125.625Z" fill="black" fill-opacity="0.95"/>
</svg>
