<svg width="484" height="230" viewBox="0 0 484 230" fill="none" xmlns="http://www.w3.org/2000/svg">
<rect width="484" height="230" rx="16" fill="#1A1A1A"/>
<mask id="mask0_323_8201" style="mask-type:luminance" maskUnits="userSpaceOnUse" x="24" y="32" width="423" height="166">
<rect x="24" y="32" width="422.564" height="165.748" fill="white"/>
</mask>
<g mask="url(#mask0_323_8201)">
<path d="M44.2955 54.4545V69H42.5909L34.6648 57.5795H34.5227V69H32.7614V54.4545H34.4659L42.4205 65.9034H42.5625V54.4545H44.2955ZM52.0245 69.2273C51.0397 69.2273 50.1755 68.9929 49.4322 68.5241C48.6935 68.0554 48.1159 67.3996 47.6992 66.5568C47.2873 65.714 47.0813 64.7292 47.0813 63.6023C47.0813 62.4659 47.2873 61.474 47.6992 60.6264C48.1159 59.7789 48.6935 59.1207 49.4322 58.652C50.1755 58.1832 51.0397 57.9489 52.0245 57.9489C53.0094 57.9489 53.8711 58.1832 54.6097 58.652C55.3531 59.1207 55.9308 59.7789 56.3427 60.6264C56.7594 61.474 56.9677 62.4659 56.9677 63.6023C56.9677 64.7292 56.7594 65.714 56.3427 66.5568C55.9308 67.3996 55.3531 68.0554 54.6097 68.5241C53.8711 68.9929 53.0094 69.2273 52.0245 69.2273ZM52.0245 67.7216C52.7726 67.7216 53.3881 67.5298 53.8711 67.1463C54.354 66.7628 54.7115 66.2585 54.9435 65.6335C55.1755 65.0085 55.2915 64.3314 55.2915 63.6023C55.2915 62.8731 55.1755 62.1937 54.9435 61.5639C54.7115 60.9342 54.354 60.4252 53.8711 60.0369C53.3881 59.6487 52.7726 59.4545 52.0245 59.4545C51.2764 59.4545 50.6609 59.6487 50.1779 60.0369C49.695 60.4252 49.3375 60.9342 49.1055 61.5639C48.8735 62.1937 48.7575 62.8731 48.7575 63.6023C48.7575 64.3314 48.8735 65.0085 49.1055 65.6335C49.3375 66.2585 49.695 66.7628 50.1779 67.1463C50.6609 67.5298 51.2764 67.7216 52.0245 67.7216ZM64.2706 58.0909V59.5114H58.6172V58.0909H64.2706ZM60.2649 55.4773H61.9411V65.875C61.9411 66.3485 62.0097 66.7036 62.147 66.9403C62.2891 67.1723 62.469 67.3286 62.6868 67.4091C62.9093 67.4848 63.1437 67.5227 63.3899 67.5227C63.5746 67.5227 63.7261 67.5133 63.8445 67.4943C63.9628 67.4706 64.0575 67.4517 64.1286 67.4375L64.4695 68.9432C64.3558 68.9858 64.1972 69.0284 63.9936 69.071C63.79 69.1184 63.532 69.142 63.2195 69.142C62.746 69.142 62.282 69.0402 61.8274 68.8366C61.3776 68.633 61.0036 68.3229 60.7053 67.9062C60.4117 67.4896 60.2649 66.964 60.2649 66.3295V55.4773ZM66.7919 69V58.0909H68.468V69H66.7919ZM67.6442 56.2727C67.3175 56.2727 67.0357 56.1615 66.799 55.9389C66.567 55.7164 66.451 55.4489 66.451 55.1364C66.451 54.8239 66.567 54.5563 66.799 54.3338C67.0357 54.1113 67.3175 54 67.6442 54C67.9709 54 68.2502 54.1113 68.4822 54.3338C68.719 54.5563 68.8374 54.8239 68.8374 55.1364C68.8374 55.4489 68.719 55.7164 68.4822 55.9389C68.2502 56.1615 67.9709 56.2727 67.6442 56.2727ZM76.396 58.0909V59.5114H70.5153V58.0909H76.396ZM72.2766 69V56.5852C72.2766 55.9602 72.4234 55.4394 72.717 55.0227C73.0105 54.6061 73.3917 54.2936 73.8604 54.0852C74.3292 53.8769 74.824 53.7727 75.3448 53.7727C75.7567 53.7727 76.0929 53.8059 76.3533 53.8722C76.6138 53.9384 76.8079 54 76.9357 54.0568L76.4528 55.5057C76.3675 55.4773 76.2492 55.4418 76.0977 55.3991C75.9509 55.3565 75.7567 55.3352 75.5153 55.3352C74.9613 55.3352 74.5612 55.4749 74.315 55.7543C74.0735 56.0336 73.9528 56.4432 73.9528 56.983V69H72.2766ZM78.745 69V58.0909H80.4212V69H78.745ZM79.5973 56.2727C79.2706 56.2727 78.9889 56.1615 78.7521 55.9389C78.5201 55.7164 78.4041 55.4489 78.4041 55.1364C78.4041 54.8239 78.5201 54.5563 78.7521 54.3338C78.9889 54.1113 79.2706 54 79.5973 54C79.924 54 80.2034 54.1113 80.4354 54.3338C80.6721 54.5563 80.7905 54.8239 80.7905 55.1364C80.7905 55.4489 80.6721 55.7164 80.4354 55.9389C80.2034 56.1615 79.924 56.2727 79.5973 56.2727ZM87.9229 69.2273C86.9002 69.2273 86.0195 68.9858 85.2809 68.5028C84.5423 68.0199 83.9741 67.3546 83.5763 66.5071C83.1786 65.6596 82.9798 64.6913 82.9798 63.6023C82.9798 62.4943 83.1834 61.5166 83.5906 60.669C84.0025 59.8168 84.5754 59.1515 85.3093 58.6733C86.0479 58.1903 86.9097 57.9489 87.8945 57.9489C88.6616 57.9489 89.3529 58.0909 89.9684 58.375C90.5839 58.6591 91.0882 59.0568 91.4812 59.5682C91.8742 60.0795 92.118 60.6761 92.2127 61.358H90.5366C90.4087 60.8608 90.1246 60.4205 89.6843 60.0369C89.2487 59.6487 88.6616 59.4545 87.9229 59.4545C87.2695 59.4545 86.6966 59.625 86.2042 59.9659C85.7165 60.3021 85.3353 60.7779 85.0607 61.3935C84.7908 62.0043 84.6559 62.7216 84.6559 63.5455C84.6559 64.3883 84.7885 65.1222 85.0536 65.7472C85.3235 66.3722 85.7023 66.8575 86.19 67.2031C86.6824 67.5488 87.2601 67.7216 87.9229 67.7216C88.3585 67.7216 88.7539 67.6458 89.109 67.4943C89.4641 67.3428 89.7648 67.125 90.011 66.8409C90.2572 66.5568 90.4324 66.2159 90.5366 65.8182H92.2127C92.118 66.4621 91.8836 67.0421 91.5096 67.5582C91.1403 68.0696 90.6502 68.4768 90.0394 68.7798C89.4334 69.0781 88.7279 69.2273 87.9229 69.2273ZM97.8732 69.2557C97.1819 69.2557 96.5546 69.1255 95.9911 68.8651C95.4277 68.5999 94.9802 68.2188 94.6488 67.7216C94.3174 67.2197 94.1516 66.6136 94.1516 65.9034C94.1516 65.2784 94.2747 64.7718 94.521 64.3835C94.7672 63.9905 95.0962 63.6828 95.5082 63.4602C95.9201 63.2377 96.3746 63.072 96.8718 62.9631C97.3737 62.8494 97.878 62.7595 98.3846 62.6932C99.0475 62.608 99.5849 62.544 99.9968 62.5014C100.413 62.4541 100.717 62.3759 100.906 62.267C101.1 62.1581 101.197 61.9687 101.197 61.6989V61.642C101.197 60.9413 101.005 60.3968 100.622 60.0085C100.243 59.6203 99.6677 59.4261 98.896 59.4261C98.0958 59.4261 97.4684 59.6013 97.0138 59.9517C96.5593 60.3021 96.2397 60.6761 96.055 61.0739L94.4641 60.5057C94.7482 59.8428 95.127 59.3267 95.6005 58.9574C96.0787 58.5833 96.5996 58.3229 97.163 58.1761C97.7312 58.0246 98.2899 57.9489 98.8391 57.9489C99.1895 57.9489 99.592 57.9915 100.047 58.0767C100.506 58.1572 100.949 58.3253 101.375 58.581C101.806 58.8366 102.163 59.2225 102.447 59.7386C102.731 60.2547 102.873 60.946 102.873 61.8125V69H101.197V67.5227H101.112C100.998 67.7595 100.809 68.0128 100.544 68.2827C100.279 68.5526 99.9258 68.7822 99.4854 68.9716C99.0451 69.161 98.5077 69.2557 97.8732 69.2557ZM98.1289 67.75C98.7918 67.75 99.3505 67.6198 99.805 67.3594C100.264 67.099 100.61 66.7628 100.842 66.3509C101.079 65.9389 101.197 65.5057 101.197 65.0511V63.517C101.126 63.6023 100.97 63.6804 100.728 63.7514C100.492 63.8177 100.217 63.8769 99.9045 63.929C99.5967 63.9763 99.296 64.0189 99.0025 64.0568C98.7137 64.09 98.4793 64.1184 98.2994 64.142C97.8638 64.1989 97.4566 64.2912 97.0778 64.419C96.7037 64.5421 96.4007 64.7292 96.1687 64.9801C95.9414 65.2263 95.8278 65.5625 95.8278 65.9886C95.8278 66.571 96.0432 67.0114 96.4741 67.3097C96.9097 67.6032 97.4613 67.75 98.1289 67.75ZM110.677 58.0909V59.5114H105.023V58.0909H110.677ZM106.671 55.4773H108.347V65.875C108.347 66.3485 108.416 66.7036 108.553 66.9403C108.695 67.1723 108.875 67.3286 109.093 67.4091C109.316 67.4848 109.55 67.5227 109.796 67.5227C109.981 67.5227 110.132 67.5133 110.251 67.4943C110.369 67.4706 110.464 67.4517 110.535 67.4375L110.876 68.9432C110.762 68.9858 110.603 69.0284 110.4 69.071C110.196 69.1184 109.938 69.142 109.626 69.142C109.152 69.142 108.688 69.0402 108.234 68.8366C107.784 68.633 107.41 68.3229 107.112 67.9062C106.818 67.4896 106.671 66.964 106.671 66.3295V55.4773ZM113.198 69V58.0909H114.874V69H113.198ZM114.05 56.2727C113.724 56.2727 113.442 56.1615 113.205 55.9389C112.973 55.7164 112.857 55.4489 112.857 55.1364C112.857 54.8239 112.973 54.5563 113.205 54.3338C113.442 54.1113 113.724 54 114.05 54C114.377 54 114.656 54.1113 114.888 54.3338C115.125 54.5563 115.244 54.8239 115.244 55.1364C115.244 55.4489 115.125 55.7164 114.888 55.9389C114.656 56.1615 114.377 56.2727 114.05 56.2727ZM122.376 69.2273C121.391 69.2273 120.527 68.9929 119.784 68.5241C119.045 68.0554 118.467 67.3996 118.051 66.5568C117.639 65.714 117.433 64.7292 117.433 63.6023C117.433 62.4659 117.639 61.474 118.051 60.6264C118.467 59.7789 119.045 59.1207 119.784 58.652C120.527 58.1832 121.391 57.9489 122.376 57.9489C123.361 57.9489 124.223 58.1832 124.961 58.652C125.705 59.1207 126.282 59.7789 126.694 60.6264C127.111 61.474 127.319 62.4659 127.319 63.6023C127.319 64.7292 127.111 65.714 126.694 66.5568C126.282 67.3996 125.705 68.0554 124.961 68.5241C124.223 68.9929 123.361 69.2273 122.376 69.2273ZM122.376 67.7216C123.124 67.7216 123.74 67.5298 124.223 67.1463C124.706 66.7628 125.063 66.2585 125.295 65.6335C125.527 65.0085 125.643 64.3314 125.643 63.6023C125.643 62.8731 125.527 62.1937 125.295 61.5639C125.063 60.9342 124.706 60.4252 124.223 60.0369C123.74 59.6487 123.124 59.4545 122.376 59.4545C121.628 59.4545 121.012 59.6487 120.529 60.0369C120.047 60.4252 119.689 60.9342 119.457 61.5639C119.225 62.1937 119.109 62.8731 119.109 63.6023C119.109 64.3314 119.225 65.0085 119.457 65.6335C119.689 66.2585 120.047 66.7628 120.529 67.1463C121.012 67.5298 121.628 67.7216 122.376 67.7216ZM131.554 62.4375V69H129.878V58.0909H131.497V59.7955H131.639C131.895 59.2415 132.283 58.7964 132.804 58.4602C133.325 58.1193 133.997 57.9489 134.821 57.9489C135.56 57.9489 136.206 58.1004 136.76 58.4034C137.314 58.7017 137.745 59.1562 138.053 59.767C138.36 60.3731 138.514 61.1402 138.514 62.0682V69H136.838V62.1818C136.838 61.3248 136.616 60.6572 136.17 60.179C135.725 59.696 135.115 59.4545 134.338 59.4545C133.803 59.4545 133.325 59.5705 132.903 59.8026C132.487 60.0346 132.158 60.3731 131.916 60.8182C131.675 61.2633 131.554 61.803 131.554 62.4375ZM149.304 60.5341L147.799 60.9602C147.704 60.7093 147.564 60.4654 147.38 60.2287C147.2 59.9872 146.953 59.7884 146.641 59.6321C146.328 59.4759 145.928 59.3977 145.441 59.3977C144.773 59.3977 144.217 59.5516 143.772 59.8594C143.331 60.1624 143.111 60.5483 143.111 61.017C143.111 61.4337 143.263 61.7628 143.566 62.0043C143.869 62.2457 144.342 62.447 144.986 62.608L146.605 63.0057C147.581 63.2424 148.308 63.6046 148.786 64.0923C149.264 64.5753 149.503 65.1979 149.503 65.9602C149.503 66.5852 149.323 67.1439 148.963 67.6364C148.608 68.1288 148.111 68.517 147.472 68.8011C146.833 69.0852 146.089 69.2273 145.242 69.2273C144.129 69.2273 143.208 68.9858 142.479 68.5028C141.75 68.0199 141.288 67.3144 141.094 66.3864L142.685 65.9886C142.837 66.5758 143.123 67.0161 143.544 67.3097C143.971 67.6032 144.527 67.75 145.213 67.75C145.995 67.75 146.615 67.5843 147.074 67.2528C147.538 66.9167 147.77 66.5142 147.77 66.0455C147.77 65.6667 147.638 65.3494 147.373 65.0938C147.107 64.8333 146.7 64.6392 146.151 64.5114L144.333 64.0852C143.334 63.8485 142.6 63.4815 142.131 62.9844C141.667 62.4825 141.435 61.8551 141.435 61.1023C141.435 60.4867 141.608 59.9422 141.953 59.4688C142.304 58.9953 142.78 58.6236 143.381 58.3537C143.987 58.0838 144.674 57.9489 145.441 57.9489C146.52 57.9489 147.368 58.1856 147.983 58.6591C148.604 59.1326 149.044 59.7576 149.304 60.5341Z" fill="white" fill-opacity="0.95"/>
<path d="M31.5682 90.392V88.3636H41.125V90.392H37.5625V100H35.1307V90.392H31.5682ZM43.9545 100.165C43.3977 100.165 42.9015 100.068 42.4659 99.875C42.0303 99.678 41.6856 99.3883 41.4318 99.0057C41.1818 98.6193 41.0568 98.1383 41.0568 97.5625C41.0568 97.0777 41.1458 96.6705 41.3239 96.3409C41.5019 96.0114 41.7443 95.7462 42.0511 95.5455C42.358 95.3447 42.7064 95.1932 43.0966 95.0909C43.4905 94.9886 43.9034 94.9167 44.3352 94.875C44.8428 94.822 45.2519 94.7727 45.5625 94.7273C45.8731 94.678 46.0985 94.6061 46.2386 94.5114C46.3788 94.4167 46.4489 94.2765 46.4489 94.0909V94.0568C46.4489 93.697 46.3352 93.4186 46.108 93.2216C45.8845 93.0246 45.5663 92.9261 45.1534 92.9261C44.7178 92.9261 44.3712 93.0227 44.1136 93.2159C43.8561 93.4053 43.6856 93.6439 43.6023 93.9318L41.3636 93.75C41.4773 93.2197 41.7008 92.7614 42.0341 92.375C42.3674 91.9848 42.7973 91.6856 43.3239 91.4773C43.8542 91.2652 44.4678 91.1591 45.1648 91.1591C45.6496 91.1591 46.1136 91.2159 46.5568 91.3295C47.0038 91.4432 47.3996 91.6193 47.7443 91.858C48.0928 92.0966 48.3674 92.4034 48.5682 92.7784C48.7689 93.1496 48.8693 93.5947 48.8693 94.1136V100H46.5739V98.7898H46.5057C46.3655 99.0625 46.178 99.303 45.9432 99.5114C45.7083 99.7159 45.4261 99.8769 45.0966 99.9943C44.767 100.108 44.3864 100.165 43.9545 100.165ZM44.6477 98.4943C45.0038 98.4943 45.3182 98.4242 45.5909 98.2841C45.8636 98.1402 46.0777 97.947 46.233 97.7045C46.3883 97.4621 46.4659 97.1875 46.4659 96.8807V95.9545C46.3902 96.0038 46.286 96.0492 46.1534 96.0909C46.0246 96.1288 45.8788 96.1648 45.7159 96.1989C45.553 96.2292 45.3902 96.2576 45.2273 96.2841C45.0644 96.3068 44.9167 96.3277 44.7841 96.3466C44.5 96.3883 44.2519 96.4545 44.0398 96.5455C43.8277 96.6364 43.6629 96.7595 43.5455 96.9148C43.428 97.0663 43.3693 97.2557 43.3693 97.483C43.3693 97.8125 43.4886 98.0644 43.7273 98.2386C43.9697 98.4091 44.2765 98.4943 44.6477 98.4943ZM58.0085 93.7614L55.7926 93.8977C55.7547 93.7083 55.6733 93.5379 55.5483 93.3864C55.4233 93.2311 55.2585 93.108 55.054 93.017C54.8532 92.9223 54.6127 92.875 54.3324 92.875C53.9574 92.875 53.6411 92.9545 53.3835 93.1136C53.1259 93.2689 52.9972 93.4773 52.9972 93.7386C52.9972 93.947 53.0805 94.1231 53.2472 94.267C53.4138 94.411 53.6998 94.5265 54.1051 94.6136L55.6847 94.9318C56.5331 95.1061 57.1657 95.3864 57.5824 95.7727C57.9991 96.1591 58.2074 96.6667 58.2074 97.2955C58.2074 97.8674 58.0388 98.3693 57.7017 98.8011C57.3684 99.233 56.91 99.5701 56.3267 99.8125C55.7472 100.051 55.0786 100.17 54.321 100.17C53.1657 100.17 52.2453 99.9299 51.5597 99.4489C50.8778 98.964 50.4782 98.3049 50.3608 97.4716L52.7415 97.3466C52.8134 97.6989 52.9877 97.9678 53.2642 98.1534C53.5407 98.3352 53.8949 98.4261 54.3267 98.4261C54.7509 98.4261 55.0919 98.3447 55.3494 98.1818C55.6108 98.0152 55.7434 97.8011 55.7472 97.5398C55.7434 97.3201 55.6506 97.1402 55.4688 97C55.2869 96.8561 55.0066 96.7462 54.6278 96.6705L53.1165 96.3693C52.2642 96.1989 51.6297 95.9034 51.2131 95.483C50.8002 95.0625 50.5938 94.5265 50.5938 93.875C50.5938 93.3144 50.7453 92.8314 51.0483 92.4261C51.3551 92.0208 51.785 91.7083 52.3381 91.4886C52.8949 91.2689 53.5464 91.1591 54.2926 91.1591C55.3949 91.1591 56.2623 91.392 56.8949 91.858C57.5313 92.3239 57.9025 92.9583 58.0085 93.7614ZM61.9247 97.4886L61.9304 94.5852H62.2827L65.0781 91.2727H67.8565L64.1009 95.6591H63.527L61.9247 97.4886ZM59.7315 100V88.3636H62.152V100H59.7315ZM65.1861 100L62.6179 96.1989L64.2315 94.4886L68.0213 100H65.1861ZM69.0895 100V88.3636H71.5099V92.7386H71.5838C71.6899 92.5038 71.8433 92.2652 72.044 92.0227C72.2486 91.7765 72.5137 91.572 72.8395 91.4091C73.169 91.2424 73.5781 91.1591 74.0668 91.1591C74.7031 91.1591 75.2902 91.3258 75.8281 91.6591C76.366 91.9886 76.7959 92.4867 77.1179 93.1534C77.4399 93.8163 77.6009 94.6477 77.6009 95.6477C77.6009 96.6212 77.4437 97.4432 77.1293 98.1136C76.8187 98.7803 76.3944 99.286 75.8565 99.6307C75.3224 99.9716 74.724 100.142 74.0611 100.142C73.5914 100.142 73.1918 100.064 72.8622 99.9091C72.5365 99.7538 72.2694 99.5587 72.0611 99.3239C71.8527 99.0852 71.6937 98.8447 71.5838 98.6023H71.4759V100H69.0895ZM71.4588 95.6364C71.4588 96.1553 71.5308 96.608 71.6747 96.9943C71.8187 97.3807 72.027 97.6818 72.2997 97.8977C72.5724 98.1098 72.9039 98.2159 73.294 98.2159C73.688 98.2159 74.0213 98.108 74.294 97.892C74.5668 97.6723 74.7732 97.3693 74.9134 96.983C75.0573 96.5928 75.1293 96.1439 75.1293 95.6364C75.1293 95.1326 75.0592 94.6894 74.919 94.3068C74.7789 93.9242 74.5724 93.625 74.2997 93.4091C74.027 93.1932 73.6918 93.0852 73.294 93.0852C72.9001 93.0852 72.5668 93.1894 72.294 93.3977C72.0251 93.6061 71.8187 93.9015 71.6747 94.2841C71.5308 94.6667 71.4588 95.1174 71.4588 95.6364ZM81.7045 100.165C81.1477 100.165 80.6515 100.068 80.2159 99.875C79.7803 99.678 79.4356 99.3883 79.1818 99.0057C78.9318 98.6193 78.8068 98.1383 78.8068 97.5625C78.8068 97.0777 78.8958 96.6705 79.0739 96.3409C79.2519 96.0114 79.4943 95.7462 79.8011 95.5455C80.108 95.3447 80.4564 95.1932 80.8466 95.0909C81.2405 94.9886 81.6534 94.9167 82.0852 94.875C82.5928 94.822 83.0019 94.7727 83.3125 94.7273C83.6231 94.678 83.8485 94.6061 83.9886 94.5114C84.1288 94.4167 84.1989 94.2765 84.1989 94.0909V94.0568C84.1989 93.697 84.0852 93.4186 83.858 93.2216C83.6345 93.0246 83.3163 92.9261 82.9034 92.9261C82.4678 92.9261 82.1212 93.0227 81.8636 93.2159C81.6061 93.4053 81.4356 93.6439 81.3523 93.9318L79.1136 93.75C79.2273 93.2197 79.4508 92.7614 79.7841 92.375C80.1174 91.9848 80.5473 91.6856 81.0739 91.4773C81.6042 91.2652 82.2178 91.1591 82.9148 91.1591C83.3996 91.1591 83.8636 91.2159 84.3068 91.3295C84.7538 91.4432 85.1496 91.6193 85.4943 91.858C85.8428 92.0966 86.1174 92.4034 86.3182 92.7784C86.5189 93.1496 86.6193 93.5947 86.6193 94.1136V100H84.3239V98.7898H84.2557C84.1155 99.0625 83.928 99.303 83.6932 99.5114C83.4583 99.7159 83.1761 99.8769 82.8466 99.9943C82.517 100.108 82.1364 100.165 81.7045 100.165ZM82.3977 98.4943C82.7538 98.4943 83.0682 98.4242 83.3409 98.2841C83.6136 98.1402 83.8277 97.947 83.983 97.7045C84.1383 97.4621 84.2159 97.1875 84.2159 96.8807V95.9545C84.1402 96.0038 84.036 96.0492 83.9034 96.0909C83.7746 96.1288 83.6288 96.1648 83.4659 96.1989C83.303 96.2292 83.1402 96.2576 82.9773 96.2841C82.8144 96.3068 82.6667 96.3277 82.5341 96.3466C82.25 96.3883 82.0019 96.4545 81.7898 96.5455C81.5777 96.6364 81.4129 96.7595 81.2955 96.9148C81.178 97.0663 81.1193 97.2557 81.1193 97.483C81.1193 97.8125 81.2386 98.0644 81.4773 98.2386C81.7197 98.4091 82.0265 98.4943 82.3977 98.4943ZM88.4972 100V91.2727H90.8438V92.7955H90.9347C91.0938 92.2538 91.3608 91.8447 91.7358 91.5682C92.1108 91.2879 92.5426 91.1477 93.0312 91.1477C93.1525 91.1477 93.2831 91.1553 93.4233 91.1705C93.5634 91.1856 93.6866 91.2064 93.7926 91.233V93.3807C93.679 93.3466 93.5218 93.3163 93.321 93.2898C93.1203 93.2633 92.9366 93.25 92.7699 93.25C92.4138 93.25 92.0956 93.3277 91.8153 93.483C91.5388 93.6345 91.3191 93.8466 91.1562 94.1193C90.9972 94.392 90.9176 94.7064 90.9176 95.0625V100H88.4972ZM101.168 94.9545V100H98.7472V91.2727H101.054V92.8125H101.156C101.349 92.3049 101.673 91.9034 102.128 91.608C102.582 91.3087 103.134 91.1591 103.781 91.1591C104.387 91.1591 104.916 91.2917 105.366 91.5568C105.817 91.822 106.168 92.2008 106.418 92.6932C106.668 93.1818 106.793 93.7652 106.793 94.4432V100H104.372V94.875C104.376 94.3409 104.24 93.9242 103.963 93.625C103.687 93.322 103.306 93.1705 102.821 93.1705C102.495 93.1705 102.207 93.2405 101.957 93.3807C101.711 93.5208 101.518 93.7254 101.378 93.9943C101.241 94.2595 101.171 94.5795 101.168 94.9545ZM112.643 100.17C111.761 100.17 110.998 99.983 110.354 99.608C109.714 99.2292 109.219 98.7027 108.871 98.0284C108.522 97.3504 108.348 96.5644 108.348 95.6705C108.348 94.7689 108.522 93.9811 108.871 93.3068C109.219 92.6288 109.714 92.1023 110.354 91.7273C110.998 91.3485 111.761 91.1591 112.643 91.1591C113.526 91.1591 114.287 91.3485 114.928 91.7273C115.571 92.1023 116.068 92.6288 116.416 93.3068C116.765 93.9811 116.939 94.7689 116.939 95.6705C116.939 96.5644 116.765 97.3504 116.416 98.0284C116.068 98.7027 115.571 99.2292 114.928 99.608C114.287 99.983 113.526 100.17 112.643 100.17ZM112.655 98.2955C113.056 98.2955 113.392 98.1818 113.661 97.9545C113.929 97.7235 114.132 97.4091 114.268 97.0114C114.409 96.6136 114.479 96.161 114.479 95.6534C114.479 95.1458 114.409 94.6932 114.268 94.2955C114.132 93.8977 113.929 93.5833 113.661 93.3523C113.392 93.1212 113.056 93.0057 112.655 93.0057C112.25 93.0057 111.909 93.1212 111.632 93.3523C111.359 93.5833 111.153 93.8977 111.013 94.2955C110.876 94.6932 110.808 95.1458 110.808 95.6534C110.808 96.161 110.876 96.6136 111.013 97.0114C111.153 97.4091 111.359 97.7235 111.632 97.9545C111.909 98.1818 112.25 98.2955 112.655 98.2955ZM123.155 91.2727V93.0909H117.899V91.2727H123.155ZM119.092 89.1818H121.513V97.3182C121.513 97.5417 121.547 97.7159 121.615 97.8409C121.683 97.9621 121.778 98.0473 121.899 98.0966C122.024 98.1458 122.168 98.1705 122.331 98.1705C122.445 98.1705 122.558 98.161 122.672 98.142C122.786 98.1193 122.873 98.1023 122.933 98.0909L123.314 99.892C123.193 99.9299 123.022 99.9735 122.803 100.023C122.583 100.076 122.316 100.108 122.001 100.119C121.418 100.142 120.907 100.064 120.467 99.8864C120.032 99.7083 119.693 99.4318 119.45 99.0568C119.208 98.6818 119.089 98.2083 119.092 97.6364V89.1818ZM124.732 100V91.2727H127.152V100H124.732ZM125.953 90.1477C125.593 90.1477 125.285 90.0284 125.027 89.7898C124.769 89.5473 124.641 89.2576 124.641 88.9205C124.641 88.5871 124.769 88.3011 125.027 88.0625C125.285 87.8201 125.591 87.6989 125.947 87.6989C126.311 87.6989 126.62 87.8201 126.874 88.0625C127.131 88.3011 127.26 88.5871 127.26 88.9205C127.26 89.2576 127.131 89.5473 126.874 89.7898C126.62 90.0284 126.313 90.1477 125.953 90.1477ZM133.784 91.2727V93.0909H128.398V91.2727H133.784ZM129.631 100V90.642C129.631 90.0095 129.754 89.4848 130 89.0682C130.25 88.6515 130.591 88.339 131.023 88.1307C131.455 87.9223 131.945 87.8182 132.494 87.8182C132.866 87.8182 133.205 87.8466 133.511 87.9034C133.822 87.9602 134.053 88.0114 134.205 88.0568L133.773 89.875C133.678 89.8447 133.561 89.8163 133.42 89.7898C133.284 89.7633 133.144 89.75 133 89.75C132.644 89.75 132.396 89.8333 132.256 90C132.116 90.1629 132.045 90.392 132.045 90.6875V100H129.631ZM135.263 100V91.2727H137.683V100H135.263ZM136.484 90.1477C136.125 90.1477 135.816 90.0284 135.558 89.7898C135.301 89.5473 135.172 89.2576 135.172 88.9205C135.172 88.5871 135.301 88.3011 135.558 88.0625C135.816 87.8201 136.123 87.6989 136.479 87.6989C136.842 87.6989 137.151 87.8201 137.405 88.0625C137.662 88.3011 137.791 88.5871 137.791 88.9205C137.791 89.2576 137.662 89.5473 137.405 89.7898C137.151 90.0284 136.844 90.1477 136.484 90.1477ZM143.565 100.17C142.671 100.17 141.902 99.9811 141.259 99.6023C140.618 99.2197 140.126 98.6894 139.781 98.0114C139.44 97.3333 139.27 96.553 139.27 95.6705C139.27 94.7765 139.442 93.9924 139.787 93.3182C140.135 92.6402 140.63 92.1117 141.27 91.733C141.91 91.3504 142.671 91.1591 143.554 91.1591C144.315 91.1591 144.982 91.2973 145.554 91.5739C146.126 91.8504 146.579 92.2386 146.912 92.7386C147.245 93.2386 147.429 93.8258 147.463 94.5H145.179C145.115 94.0644 144.944 93.714 144.668 93.4489C144.395 93.1799 144.037 93.0455 143.594 93.0455C143.219 93.0455 142.891 93.1477 142.611 93.3523C142.334 93.553 142.118 93.8466 141.963 94.233C141.808 94.6193 141.73 95.0871 141.73 95.6364C141.73 96.1932 141.806 96.6667 141.957 97.0568C142.113 97.447 142.33 97.7443 142.611 97.9489C142.891 98.1534 143.219 98.2557 143.594 98.2557C143.87 98.2557 144.118 98.1989 144.338 98.0852C144.562 97.9716 144.745 97.8068 144.889 97.5909C145.037 97.3712 145.134 97.108 145.179 96.8011H147.463C147.425 97.4678 147.243 98.0549 146.918 98.5625C146.596 99.0663 146.151 99.4602 145.582 99.7443C145.014 100.028 144.342 100.17 143.565 100.17ZM151.501 100.165C150.945 100.165 150.448 100.068 150.013 99.875C149.577 99.678 149.232 99.3883 148.979 99.0057C148.729 98.6193 148.604 98.1383 148.604 97.5625C148.604 97.0777 148.693 96.6705 148.871 96.3409C149.049 96.0114 149.291 95.7462 149.598 95.5455C149.905 95.3447 150.253 95.1932 150.643 95.0909C151.037 94.9886 151.45 94.9167 151.882 94.875C152.39 94.822 152.799 94.7727 153.109 94.7273C153.42 94.678 153.645 94.6061 153.786 94.5114C153.926 94.4167 153.996 94.2765 153.996 94.0909V94.0568C153.996 93.697 153.882 93.4186 153.655 93.2216C153.431 93.0246 153.113 92.9261 152.7 92.9261C152.265 92.9261 151.918 93.0227 151.661 93.2159C151.403 93.4053 151.232 93.6439 151.149 93.9318L148.911 93.75C149.024 93.2197 149.248 92.7614 149.581 92.375C149.914 91.9848 150.344 91.6856 150.871 91.4773C151.401 91.2652 152.015 91.1591 152.712 91.1591C153.196 91.1591 153.661 91.2159 154.104 91.3295C154.551 91.4432 154.946 91.6193 155.291 91.858C155.64 92.0966 155.914 92.4034 156.115 92.7784C156.316 93.1496 156.416 93.5947 156.416 94.1136V100H154.121V98.7898H154.053C153.912 99.0625 153.725 99.303 153.49 99.5114C153.255 99.7159 152.973 99.8769 152.643 99.9943C152.314 100.108 151.933 100.165 151.501 100.165ZM152.195 98.4943C152.551 98.4943 152.865 98.4242 153.138 98.2841C153.411 98.1402 153.625 97.947 153.78 97.7045C153.935 97.4621 154.013 97.1875 154.013 96.8807V95.9545C153.937 96.0038 153.833 96.0492 153.7 96.0909C153.571 96.1288 153.426 96.1648 153.263 96.1989C153.1 96.2292 152.937 96.2576 152.774 96.2841C152.611 96.3068 152.464 96.3277 152.331 96.3466C152.047 96.3883 151.799 96.4545 151.587 96.5455C151.375 96.6364 151.21 96.7595 151.092 96.9148C150.975 97.0663 150.916 97.2557 150.916 97.483C150.916 97.8125 151.036 98.0644 151.274 98.2386C151.517 98.4091 151.823 98.4943 152.195 98.4943ZM162.936 91.2727V93.0909H157.68V91.2727H162.936ZM158.874 89.1818H161.294V97.3182C161.294 97.5417 161.328 97.7159 161.396 97.8409C161.464 97.9621 161.559 98.0473 161.68 98.0966C161.805 98.1458 161.949 98.1705 162.112 98.1705C162.226 98.1705 162.339 98.161 162.453 98.142C162.567 98.1193 162.654 98.1023 162.714 98.0909L163.095 99.892C162.974 99.9299 162.804 99.9735 162.584 100.023C162.364 100.076 162.097 100.108 161.783 100.119C161.199 100.142 160.688 100.064 160.249 99.8864C159.813 99.7083 159.474 99.4318 159.232 99.0568C158.989 98.6818 158.87 98.2083 158.874 97.6364V89.1818ZM164.513 100V91.2727H166.933V100H164.513ZM165.734 90.1477C165.375 90.1477 165.066 90.0284 164.808 89.7898C164.551 89.5473 164.422 89.2576 164.422 88.9205C164.422 88.5871 164.551 88.3011 164.808 88.0625C165.066 87.8201 165.373 87.6989 165.729 87.6989C166.092 87.6989 166.401 87.8201 166.655 88.0625C166.912 88.3011 167.041 88.5871 167.041 88.9205C167.041 89.2576 166.912 89.5473 166.655 89.7898C166.401 90.0284 166.094 90.1477 165.734 90.1477ZM172.815 100.17C171.933 100.17 171.17 99.983 170.526 99.608C169.885 99.2292 169.391 98.7027 169.043 98.0284C168.694 97.3504 168.52 96.5644 168.52 95.6705C168.52 94.7689 168.694 93.9811 169.043 93.3068C169.391 92.6288 169.885 92.1023 170.526 91.7273C171.17 91.3485 171.933 91.1591 172.815 91.1591C173.698 91.1591 174.459 91.3485 175.099 91.7273C175.743 92.1023 176.24 92.6288 176.588 93.3068C176.937 93.9811 177.111 94.7689 177.111 95.6705C177.111 96.5644 176.937 97.3504 176.588 98.0284C176.24 98.7027 175.743 99.2292 175.099 99.608C174.459 99.983 173.698 100.17 172.815 100.17ZM172.827 98.2955C173.228 98.2955 173.563 98.1818 173.832 97.9545C174.101 97.7235 174.304 97.4091 174.44 97.0114C174.58 96.6136 174.651 96.161 174.651 95.6534C174.651 95.1458 174.58 94.6932 174.44 94.2955C174.304 93.8977 174.101 93.5833 173.832 93.3523C173.563 93.1212 173.228 93.0057 172.827 93.0057C172.421 93.0057 172.08 93.1212 171.804 93.3523C171.531 93.5833 171.325 93.8977 171.185 94.2955C171.048 94.6932 170.98 95.1458 170.98 95.6534C170.98 96.161 171.048 96.6136 171.185 97.0114C171.325 97.4091 171.531 97.7235 171.804 97.9545C172.08 98.1818 172.421 98.2955 172.827 98.2955ZM181.105 94.9545V100H178.685V91.2727H180.991V92.8125H181.094C181.287 92.3049 181.611 91.9034 182.065 91.608C182.52 91.3087 183.071 91.1591 183.719 91.1591C184.325 91.1591 184.853 91.2917 185.304 91.5568C185.755 91.822 186.105 92.2008 186.355 92.6932C186.605 93.1818 186.73 93.7652 186.73 94.4432V100H184.31V94.875C184.313 94.3409 184.177 93.9242 183.901 93.625C183.624 93.322 183.243 93.1705 182.759 93.1705C182.433 93.1705 182.145 93.2405 181.895 93.3807C181.649 93.5208 181.455 93.7254 181.315 93.9943C181.179 94.2595 181.109 94.5795 181.105 94.9545ZM195.899 93.7614L193.683 93.8977C193.645 93.7083 193.564 93.5379 193.439 93.3864C193.314 93.2311 193.149 93.108 192.945 93.017C192.744 92.9223 192.503 92.875 192.223 92.875C191.848 92.875 191.532 92.9545 191.274 93.1136C191.017 93.2689 190.888 93.4773 190.888 93.7386C190.888 93.947 190.971 94.1231 191.138 94.267C191.304 94.411 191.59 94.5265 191.996 94.6136L193.575 94.9318C194.424 95.1061 195.056 95.3864 195.473 95.7727C195.89 96.1591 196.098 96.6667 196.098 97.2955C196.098 97.8674 195.929 98.3693 195.592 98.8011C195.259 99.233 194.801 99.5701 194.217 99.8125C193.638 100.051 192.969 100.17 192.212 100.17C191.056 100.17 190.136 99.9299 189.45 99.4489C188.768 98.964 188.369 98.3049 188.251 97.4716L190.632 97.3466C190.704 97.6989 190.878 97.9678 191.155 98.1534C191.431 98.3352 191.786 98.4261 192.217 98.4261C192.642 98.4261 192.982 98.3447 193.24 98.1818C193.501 98.0152 193.634 97.8011 193.638 97.5398C193.634 97.3201 193.541 97.1402 193.359 97C193.178 96.8561 192.897 96.7462 192.518 96.6705L191.007 96.3693C190.155 96.1989 189.52 95.9034 189.104 95.483C188.691 95.0625 188.484 94.5265 188.484 93.875C188.484 93.3144 188.636 92.8314 188.939 92.4261C189.246 92.0208 189.676 91.7083 190.229 91.4886C190.786 91.2689 191.437 91.1591 192.183 91.1591C193.286 91.1591 194.153 91.392 194.786 91.858C195.422 92.3239 195.793 92.9583 195.899 93.7614Z" fill="white" fill-opacity="0.95"/>
<rect width="412" height="1" transform="translate(31 162)" fill="white" fill-opacity="0.3"/>
<path d="M31.6761 175.912V174.818H39.3125V175.912H36.1108V185H34.8778V175.912H31.6761ZM43.0511 185.159C42.3617 185.159 41.7569 184.995 41.2365 184.667C40.7195 184.339 40.3151 183.88 40.0234 183.29C39.7351 182.7 39.5909 182.01 39.5909 181.222C39.5909 180.426 39.7351 179.732 40.0234 179.138C40.3151 178.545 40.7195 178.085 41.2365 177.756C41.7569 177.428 42.3617 177.264 43.0511 177.264C43.7405 177.264 44.3438 177.428 44.8608 177.756C45.3812 178.085 45.7855 178.545 46.0739 179.138C46.3655 179.732 46.5114 180.426 46.5114 181.222C46.5114 182.01 46.3655 182.7 46.0739 183.29C45.7855 183.88 45.3812 184.339 44.8608 184.667C44.3438 184.995 43.7405 185.159 43.0511 185.159ZM43.0511 184.105C43.5748 184.105 44.0057 183.971 44.3438 183.702C44.6818 183.434 44.9321 183.081 45.0945 182.643C45.2569 182.206 45.3381 181.732 45.3381 181.222C45.3381 180.711 45.2569 180.236 45.0945 179.795C44.9321 179.354 44.6818 178.998 44.3438 178.726C44.0057 178.454 43.5748 178.318 43.0511 178.318C42.5275 178.318 42.0966 178.454 41.7585 178.726C41.4205 178.998 41.1702 179.354 41.0078 179.795C40.8454 180.236 40.7642 180.711 40.7642 181.222C40.7642 181.732 40.8454 182.206 41.0078 182.643C41.1702 183.081 41.4205 183.434 41.7585 183.702C42.0966 183.971 42.5275 184.105 43.0511 184.105ZM55.3422 185.159C54.6262 185.159 54.0098 184.99 53.4927 184.652C52.9757 184.314 52.5779 183.848 52.2995 183.255C52.0211 182.662 51.8819 181.984 51.8819 181.222C51.8819 180.446 52.0244 179.762 52.3095 179.168C52.5978 178.572 52.9989 178.106 53.5126 177.771C54.0297 177.433 54.6329 177.264 55.3223 177.264C55.8592 177.264 56.3431 177.364 56.774 177.562C57.2048 177.761 57.5578 178.04 57.8329 178.398C58.108 178.756 58.2787 179.173 58.345 179.651H57.1717C57.0822 179.303 56.8833 178.994 56.5751 178.726C56.2702 178.454 55.8592 178.318 55.3422 178.318C54.8848 178.318 54.4837 178.437 54.139 178.676C53.7976 178.911 53.5308 179.245 53.3386 179.675C53.1497 180.103 53.0552 180.605 53.0552 181.182C53.0552 181.772 53.148 182.286 53.3336 182.723C53.5225 183.161 53.7877 183.5 54.1291 183.742C54.4738 183.984 54.8781 184.105 55.3422 184.105C55.6471 184.105 55.9238 184.052 56.1724 183.946C56.421 183.84 56.6315 183.688 56.8038 183.489C56.9761 183.29 57.0988 183.051 57.1717 182.773H58.345C58.2787 183.223 58.1146 183.629 57.8528 183.991C57.5943 184.349 57.2512 184.634 56.8237 184.846C56.3994 185.055 55.9056 185.159 55.3422 185.159ZM61.2335 180.406V185H60.0602V174.818H61.2335V178.557H61.3329C61.5119 178.162 61.7804 177.849 62.1383 177.617C62.4996 177.382 62.9802 177.264 63.5801 177.264C64.1004 177.264 64.5562 177.369 64.9473 177.577C65.3384 177.783 65.6416 178.099 65.8571 178.527C66.0758 178.951 66.1852 179.491 66.1852 180.148V185H65.0119V180.227C65.0119 179.621 64.8545 179.152 64.5396 178.82C64.228 178.486 63.7955 178.318 63.242 178.318C62.8575 178.318 62.5128 178.399 62.2079 178.562C61.9063 178.724 61.6677 178.961 61.492 179.273C61.3197 179.584 61.2335 179.962 61.2335 180.406ZM70.5788 185.179C70.0949 185.179 69.6558 185.088 69.2614 184.906C68.867 184.72 68.5537 184.453 68.3217 184.105C68.0897 183.754 67.9737 183.33 67.9737 182.832C67.9737 182.395 68.0599 182.04 68.2322 181.768C68.4046 181.493 68.6349 181.278 68.9233 181.122C69.2116 180.966 69.5298 180.85 69.8778 180.774C70.2292 180.695 70.5821 180.632 70.9368 180.585C71.4008 180.526 71.777 180.481 72.0653 180.451C72.357 180.418 72.5691 180.363 72.7017 180.287C72.8376 180.211 72.9055 180.078 72.9055 179.889V179.849C72.9055 179.359 72.7713 178.978 72.5028 178.706C72.2377 178.434 71.835 178.298 71.2947 178.298C70.7346 178.298 70.2955 178.421 69.9773 178.666C69.6591 178.911 69.4354 179.173 69.3061 179.452L68.1925 179.054C68.3913 178.59 68.6565 178.229 68.9879 177.97C69.3227 177.708 69.6873 177.526 70.0817 177.423C70.4794 177.317 70.8705 177.264 71.255 177.264C71.5002 177.264 71.782 177.294 72.1001 177.354C72.4216 177.41 72.7315 177.528 73.0298 177.707C73.3314 177.886 73.5817 178.156 73.7805 178.517C73.9794 178.878 74.0788 179.362 74.0788 179.969V185H72.9055V183.966H72.8459C72.7663 184.132 72.6338 184.309 72.4482 184.498C72.2625 184.687 72.0156 184.848 71.7074 184.98C71.3991 185.113 71.023 185.179 70.5788 185.179ZM70.7578 184.125C71.2218 184.125 71.6129 184.034 71.9311 183.852C72.2526 183.669 72.4946 183.434 72.657 183.146C72.8227 182.857 72.9055 182.554 72.9055 182.236V181.162C72.8558 181.222 72.7464 181.276 72.5774 181.326C72.4117 181.372 72.2195 181.414 72.0007 181.45C71.7853 181.483 71.5748 181.513 71.3693 181.54C71.1671 181.563 71.0031 181.583 70.8771 181.599C70.5722 181.639 70.2872 181.704 70.022 181.793C69.7602 181.879 69.5481 182.01 69.3857 182.186C69.2266 182.358 69.147 182.594 69.147 182.892C69.147 183.3 69.2978 183.608 69.5994 183.817C69.9044 184.022 70.2905 184.125 70.7578 184.125ZM77.3936 180.406V185H76.2203V177.364H77.3539V178.557H77.4533C77.6323 178.169 77.9041 177.857 78.2686 177.622C78.6332 177.384 79.1039 177.264 79.6806 177.264C80.1976 177.264 80.65 177.37 81.0378 177.582C81.4256 177.791 81.7272 178.109 81.9426 178.537C82.1581 178.961 82.2658 179.498 82.2658 180.148V185H81.0925V180.227C81.0925 179.627 80.9367 179.16 80.6252 178.825C80.3136 178.487 79.8861 178.318 79.3425 178.318C78.968 178.318 78.6332 178.399 78.3382 178.562C78.0466 178.724 77.8162 178.961 77.6472 179.273C77.4782 179.584 77.3936 179.962 77.3936 180.406ZM87.4922 188.023C86.9254 188.023 86.4382 187.95 86.0305 187.804C85.6229 187.661 85.2831 187.473 85.0114 187.237C84.7429 187.005 84.5291 186.757 84.37 186.491L85.3047 185.835C85.4107 185.974 85.545 186.134 85.7074 186.312C85.8698 186.495 86.0919 186.652 86.3736 186.785C86.6586 186.921 87.0315 186.989 87.4922 186.989C88.1087 186.989 88.6174 186.839 89.0185 186.541C89.4195 186.243 89.62 185.776 89.62 185.139V183.588H89.5206C89.4344 183.727 89.3118 183.9 89.1527 184.105C88.9969 184.307 88.7715 184.488 88.4766 184.647C88.1849 184.803 87.7905 184.881 87.2933 184.881C86.6768 184.881 86.1233 184.735 85.6328 184.443C85.1456 184.152 84.7595 183.727 84.4744 183.17C84.1927 182.614 84.0518 181.937 84.0518 181.142C84.0518 180.36 84.1894 179.679 84.4645 179.099C84.7396 178.515 85.1224 178.065 85.6129 177.746C86.1035 177.425 86.6702 177.264 87.3132 177.264C87.8104 177.264 88.2048 177.347 88.4964 177.513C88.7914 177.675 89.0168 177.861 89.1726 178.07C89.3317 178.275 89.4543 178.444 89.5405 178.577H89.6598V177.364H90.7933V185.219C90.7933 185.875 90.6442 186.409 90.3459 186.82C90.0509 187.234 89.6532 187.537 89.1527 187.729C88.6555 187.925 88.102 188.023 87.4922 188.023ZM87.4524 183.827C87.9231 183.827 88.3208 183.719 88.6456 183.504C88.9704 183.288 89.2173 182.978 89.3864 182.574C89.5554 182.17 89.6399 181.686 89.6399 181.122C89.6399 180.572 89.5571 180.086 89.3913 179.665C89.2256 179.245 88.9804 178.915 88.6555 178.676C88.3307 178.437 87.9297 178.318 87.4524 178.318C86.9553 178.318 86.541 178.444 86.2095 178.696C85.8814 178.948 85.6345 179.286 85.4688 179.71C85.3063 180.134 85.2251 180.605 85.2251 181.122C85.2251 181.652 85.308 182.121 85.4737 182.529C85.6428 182.933 85.8913 183.252 86.2195 183.484C86.5509 183.712 86.9619 183.827 87.4524 183.827ZM96.1428 185.159C95.407 185.159 94.7723 184.997 94.2386 184.672C93.7083 184.344 93.299 183.886 93.0107 183.3C92.7256 182.71 92.5831 182.024 92.5831 181.241C92.5831 180.459 92.7256 179.77 93.0107 179.173C93.299 178.573 93.7 178.106 94.2138 177.771C94.7308 177.433 95.334 177.264 96.0234 177.264C96.4212 177.264 96.8139 177.33 97.2017 177.463C97.5895 177.596 97.9425 177.811 98.2607 178.109C98.5788 178.404 98.8324 178.795 99.0213 179.283C99.2102 179.77 99.3047 180.37 99.3047 181.082V181.58H93.4183V180.565H98.1115C98.1115 180.134 98.0253 179.75 97.853 179.412C97.6839 179.074 97.442 178.807 97.1271 178.612C96.8156 178.416 96.4477 178.318 96.0234 178.318C95.5561 178.318 95.1518 178.434 94.8104 178.666C94.4723 178.895 94.2121 179.193 94.0298 179.561C93.8475 179.929 93.7564 180.323 93.7564 180.744V181.42C93.7564 181.997 93.8558 182.486 94.0547 182.887C94.2569 183.285 94.5369 183.588 94.8949 183.797C95.2528 184.002 95.6688 184.105 96.1428 184.105C96.451 184.105 96.7294 184.062 96.978 183.976C97.2299 183.886 97.447 183.754 97.6293 183.578C97.8116 183.399 97.9524 183.177 98.0518 182.912L99.1854 183.23C99.0661 183.615 98.8655 183.953 98.5838 184.244C98.3021 184.533 97.9541 184.758 97.5398 184.92C97.1255 185.08 96.6598 185.159 96.1428 185.159ZM108.348 177.364V178.358H104.391V177.364H108.348ZM105.544 175.534H106.717V182.812C106.717 183.144 106.765 183.393 106.862 183.558C106.961 183.721 107.087 183.83 107.239 183.886C107.395 183.939 107.559 183.966 107.732 183.966C107.861 183.966 107.967 183.959 108.05 183.946C108.133 183.929 108.199 183.916 108.249 183.906L108.487 184.96C108.408 184.99 108.297 185.02 108.154 185.05C108.012 185.083 107.831 185.099 107.612 185.099C107.281 185.099 106.956 185.028 106.638 184.886C106.323 184.743 106.061 184.526 105.852 184.234C105.647 183.943 105.544 183.575 105.544 183.131V175.534ZM111.45 180.406V185H110.277V174.818H111.45V178.557H111.55C111.729 178.162 111.997 177.849 112.355 177.617C112.716 177.382 113.197 177.264 113.797 177.264C114.317 177.264 114.773 177.369 115.164 177.577C115.555 177.783 115.858 178.099 116.074 178.527C116.293 178.951 116.402 179.491 116.402 180.148V185H115.229V180.227C115.229 179.621 115.071 179.152 114.756 178.82C114.445 178.486 114.012 178.318 113.459 178.318C113.074 178.318 112.73 178.399 112.425 178.562C112.123 178.724 111.884 178.961 111.709 179.273C111.536 179.584 111.45 179.962 111.45 180.406ZM121.75 185.159C121.014 185.159 120.38 184.997 119.846 184.672C119.316 184.344 118.906 183.886 118.618 183.3C118.333 182.71 118.191 182.024 118.191 181.241C118.191 180.459 118.333 179.77 118.618 179.173C118.906 178.573 119.307 178.106 119.821 177.771C120.338 177.433 120.941 177.264 121.631 177.264C122.029 177.264 122.421 177.33 122.809 177.463C123.197 177.596 123.55 177.811 123.868 178.109C124.186 178.404 124.44 178.795 124.629 179.283C124.818 179.77 124.912 180.37 124.912 181.082V181.58H119.026V180.565H123.719C123.719 180.134 123.633 179.75 123.46 179.412C123.291 179.074 123.049 178.807 122.735 178.612C122.423 178.416 122.055 178.318 121.631 178.318C121.164 178.318 120.759 178.434 120.418 178.666C120.08 178.895 119.82 179.193 119.637 179.561C119.455 179.929 119.364 180.323 119.364 180.744V181.42C119.364 181.997 119.463 182.486 119.662 182.887C119.864 183.285 120.144 183.588 120.502 183.797C120.86 184.002 121.276 184.105 121.75 184.105C122.058 184.105 122.337 184.062 122.585 183.976C122.837 183.886 123.054 183.754 123.237 183.578C123.419 183.399 123.56 183.177 123.659 182.912L124.793 183.23C124.673 183.615 124.473 183.953 124.191 184.244C123.91 184.533 123.561 184.758 123.147 184.92C122.733 185.08 122.267 185.159 121.75 185.159ZM136.879 177.364L134.055 185H132.862L130.038 177.364H131.311L133.419 183.449H133.498L135.606 177.364H136.879ZM141.256 185.159C140.567 185.159 139.962 184.995 139.442 184.667C138.925 184.339 138.52 183.88 138.229 183.29C137.94 182.7 137.796 182.01 137.796 181.222C137.796 180.426 137.94 179.732 138.229 179.138C138.52 178.545 138.925 178.085 139.442 177.756C139.962 177.428 140.567 177.264 141.256 177.264C141.946 177.264 142.549 177.428 143.066 177.756C143.586 178.085 143.991 178.545 144.279 179.138C144.571 179.732 144.716 180.426 144.716 181.222C144.716 182.01 144.571 182.7 144.279 183.29C143.991 183.88 143.586 184.339 143.066 184.667C142.549 184.995 141.946 185.159 141.256 185.159ZM141.256 184.105C141.78 184.105 142.211 183.971 142.549 183.702C142.887 183.434 143.137 183.081 143.3 182.643C143.462 182.206 143.543 181.732 143.543 181.222C143.543 180.711 143.462 180.236 143.3 179.795C143.137 179.354 142.887 178.998 142.549 178.726C142.211 178.454 141.78 178.318 141.256 178.318C140.733 178.318 140.302 178.454 139.964 178.726C139.626 178.998 139.375 179.354 139.213 179.795C139.05 180.236 138.969 180.711 138.969 181.222C138.969 181.732 139.05 182.206 139.213 182.643C139.375 183.081 139.626 183.434 139.964 183.702C140.302 183.971 140.733 184.105 141.256 184.105ZM147.681 174.818V185H146.507V174.818H147.681ZM154.642 181.878V177.364H155.816V185H154.642V183.707H154.563C154.384 184.095 154.105 184.425 153.727 184.697C153.35 184.965 152.872 185.099 152.296 185.099C151.818 185.099 151.394 184.995 151.023 184.786C150.652 184.574 150.36 184.256 150.148 183.832C149.936 183.404 149.83 182.866 149.83 182.216V177.364H151.003V182.136C151.003 182.693 151.159 183.137 151.47 183.469C151.785 183.8 152.186 183.966 152.673 183.966C152.965 183.966 153.262 183.891 153.563 183.742C153.868 183.593 154.124 183.364 154.329 183.056C154.538 182.748 154.642 182.355 154.642 181.878ZM157.964 185V177.364H159.098V178.557H159.197C159.357 178.149 159.613 177.833 159.968 177.607C160.323 177.379 160.749 177.264 161.246 177.264C161.75 177.264 162.169 177.379 162.504 177.607C162.842 177.833 163.105 178.149 163.294 178.557H163.374C163.569 178.162 163.862 177.849 164.254 177.617C164.645 177.382 165.114 177.264 165.661 177.264C166.343 177.264 166.902 177.478 167.336 177.906C167.77 178.33 167.987 178.991 167.987 179.889V185H166.814V179.889C166.814 179.326 166.66 178.923 166.352 178.681C166.043 178.439 165.68 178.318 165.263 178.318C164.726 178.318 164.31 178.481 164.015 178.805C163.72 179.127 163.572 179.535 163.572 180.028V185H162.379V179.77C162.379 179.336 162.238 178.986 161.957 178.721C161.675 178.452 161.312 178.318 160.868 178.318C160.563 178.318 160.278 178.399 160.013 178.562C159.751 178.724 159.539 178.95 159.376 179.238C159.217 179.523 159.138 179.853 159.138 180.227V185H157.964ZM173.334 185.159C172.598 185.159 171.964 184.997 171.43 184.672C170.9 184.344 170.49 183.886 170.202 183.3C169.917 182.71 169.775 182.024 169.775 181.241C169.775 180.459 169.917 179.77 170.202 179.173C170.49 178.573 170.891 178.106 171.405 177.771C171.922 177.433 172.525 177.264 173.215 177.264C173.613 177.264 174.005 177.33 174.393 177.463C174.781 177.596 175.134 177.811 175.452 178.109C175.77 178.404 176.024 178.795 176.213 179.283C176.402 179.77 176.496 180.37 176.496 181.082V181.58H170.61V180.565H175.303C175.303 180.134 175.217 179.75 175.044 179.412C174.875 179.074 174.633 178.807 174.319 178.612C174.007 178.416 173.639 178.318 173.215 178.318C172.748 178.318 172.343 178.434 172.002 178.666C171.664 178.895 171.404 179.193 171.221 179.561C171.039 179.929 170.948 180.323 170.948 180.744V181.42C170.948 181.997 171.047 182.486 171.246 182.887C171.448 183.285 171.728 183.588 172.086 183.797C172.444 184.002 172.86 184.105 173.334 184.105C173.642 184.105 173.921 184.062 174.169 183.976C174.421 183.886 174.638 183.754 174.821 183.578C175.003 183.399 175.144 183.177 175.243 182.912L176.377 183.23C176.257 183.615 176.057 183.953 175.775 184.244C175.493 184.533 175.145 184.758 174.731 184.92C174.317 185.08 173.851 185.159 173.334 185.159ZM185.321 185.159C184.631 185.159 184.026 184.995 183.506 184.667C182.989 184.339 182.585 183.88 182.293 183.29C182.005 182.7 181.86 182.01 181.86 181.222C181.86 180.426 182.005 179.732 182.293 179.138C182.585 178.545 182.989 178.085 183.506 177.756C184.026 177.428 184.631 177.264 185.321 177.264C186.01 177.264 186.613 177.428 187.13 177.756C187.651 178.085 188.055 178.545 188.343 179.138C188.635 179.732 188.781 180.426 188.781 181.222C188.781 182.01 188.635 182.7 188.343 183.29C188.055 183.88 187.651 184.339 187.13 184.667C186.613 184.995 186.01 185.159 185.321 185.159ZM185.321 184.105C185.844 184.105 186.275 183.971 186.613 183.702C186.951 183.434 187.202 183.081 187.364 182.643C187.526 182.206 187.608 181.732 187.608 181.222C187.608 180.711 187.526 180.236 187.364 179.795C187.202 179.354 186.951 178.998 186.613 178.726C186.275 178.454 185.844 178.318 185.321 178.318C184.797 178.318 184.366 178.454 184.028 178.726C183.69 178.998 183.44 179.354 183.277 179.795C183.115 180.236 183.034 180.711 183.034 181.222C183.034 181.732 183.115 182.206 183.277 182.643C183.44 183.081 183.69 183.434 184.028 183.702C184.366 183.971 184.797 184.105 185.321 184.105ZM193.972 177.364V178.358H189.856V177.364H193.972ZM191.089 185V176.31C191.089 175.872 191.192 175.508 191.397 175.216C191.603 174.924 191.869 174.705 192.198 174.56C192.526 174.414 192.872 174.341 193.237 174.341C193.525 174.341 193.76 174.364 193.943 174.411C194.125 174.457 194.261 174.5 194.35 174.54L194.012 175.554C193.953 175.534 193.87 175.509 193.764 175.479C193.661 175.45 193.525 175.435 193.356 175.435C192.968 175.435 192.688 175.532 192.516 175.728C192.347 175.924 192.262 176.21 192.262 176.588V185H191.089ZM200.31 187.844C200.111 187.844 199.934 187.827 199.778 187.794C199.622 187.764 199.515 187.734 199.455 187.705L199.753 186.67C200.181 186.78 200.537 186.777 200.822 186.661C201.107 186.548 201.354 186.206 201.563 185.636L201.782 185.04L198.958 177.364H200.23L202.338 183.449H202.418L204.526 177.364L205.809 177.384L202.557 186.114C202.411 186.501 202.231 186.823 202.015 187.078C201.8 187.337 201.55 187.529 201.265 187.655C200.983 187.781 200.665 187.844 200.31 187.844ZM210.19 185.159C209.5 185.159 208.896 184.995 208.375 184.667C207.858 184.339 207.454 183.88 207.162 183.29C206.874 182.7 206.73 182.01 206.73 181.222C206.73 180.426 206.874 179.732 207.162 179.138C207.454 178.545 207.858 178.085 208.375 177.756C208.896 177.428 209.5 177.264 210.19 177.264C210.879 177.264 211.482 177.428 211.999 177.756C212.52 178.085 212.924 178.545 213.213 179.138C213.504 179.732 213.65 180.426 213.65 181.222C213.65 182.01 213.504 182.7 213.213 183.29C212.924 183.88 212.52 184.339 211.999 184.667C211.482 184.995 210.879 185.159 210.19 185.159ZM210.19 184.105C210.713 184.105 211.144 183.971 211.482 183.702C211.82 183.434 212.071 183.081 212.233 182.643C212.396 182.206 212.477 181.732 212.477 181.222C212.477 180.711 212.396 180.236 212.233 179.795C212.071 179.354 211.82 178.998 211.482 178.726C211.144 178.454 210.713 178.318 210.19 178.318C209.666 178.318 209.235 178.454 208.897 178.726C208.559 178.998 208.309 179.354 208.146 179.795C207.984 180.236 207.903 180.711 207.903 181.222C207.903 181.732 207.984 182.206 208.146 182.643C208.309 183.081 208.559 183.434 208.897 183.702C209.235 183.971 209.666 184.105 210.19 184.105ZM220.254 181.878V177.364H221.427V185H220.254V183.707H220.174C219.995 184.095 219.717 184.425 219.339 184.697C218.961 184.965 218.484 185.099 217.907 185.099C217.43 185.099 217.005 184.995 216.634 184.786C216.263 184.574 215.971 184.256 215.759 183.832C215.547 183.404 215.441 182.866 215.441 182.216V177.364H216.614V182.136C216.614 182.693 216.77 183.137 217.082 183.469C217.397 183.8 217.798 183.966 218.285 183.966C218.576 183.966 218.873 183.891 219.175 183.742C219.48 183.593 219.735 183.364 219.94 183.056C220.149 182.748 220.254 182.355 220.254 181.878ZM223.576 185V177.364H224.709V178.517H224.789C224.928 178.139 225.18 177.833 225.545 177.597C225.909 177.362 226.32 177.244 226.778 177.244C226.864 177.244 226.971 177.246 227.101 177.249C227.23 177.253 227.328 177.258 227.394 177.264V178.457C227.354 178.447 227.263 178.433 227.121 178.413C226.981 178.389 226.834 178.378 226.678 178.378C226.307 178.378 225.975 178.456 225.684 178.612C225.395 178.764 225.167 178.976 224.998 179.248C224.832 179.516 224.749 179.823 224.749 180.168V185H223.576ZM233.896 180.406V185H232.722V177.364H233.856V178.557H233.955C234.134 178.169 234.406 177.857 234.771 177.622C235.135 177.384 235.606 177.264 236.183 177.264C236.7 177.264 237.152 177.37 237.54 177.582C237.928 177.791 238.229 178.109 238.445 178.537C238.66 178.961 238.768 179.498 238.768 180.148V185H237.594V180.227C237.594 179.627 237.439 179.16 237.127 178.825C236.816 178.487 236.388 178.318 235.844 178.318C235.47 178.318 235.135 178.399 234.84 178.562C234.549 178.724 234.318 178.961 234.149 179.273C233.98 179.584 233.896 179.962 233.896 180.406ZM244.014 185.159C243.325 185.159 242.72 184.995 242.199 184.667C241.682 184.339 241.278 183.88 240.986 183.29C240.698 182.7 240.554 182.01 240.554 181.222C240.554 180.426 240.698 179.732 240.986 179.138C241.278 178.545 241.682 178.085 242.199 177.756C242.72 177.428 243.325 177.264 244.014 177.264C244.703 177.264 245.307 177.428 245.824 177.756C246.344 178.085 246.748 178.545 247.037 179.138C247.328 179.732 247.474 180.426 247.474 181.222C247.474 182.01 247.328 182.7 247.037 183.29C246.748 183.88 246.344 184.339 245.824 184.667C245.307 184.995 244.703 185.159 244.014 185.159ZM244.014 184.105C244.538 184.105 244.969 183.971 245.307 183.702C245.645 183.434 245.895 183.081 246.057 182.643C246.22 182.206 246.301 181.732 246.301 181.222C246.301 180.711 246.22 180.236 246.057 179.795C245.895 179.354 245.645 178.998 245.307 178.726C244.969 178.454 244.538 178.318 244.014 178.318C243.49 178.318 243.059 178.454 242.721 178.726C242.383 178.998 242.133 179.354 241.971 179.795C241.808 180.236 241.727 180.711 241.727 181.222C241.727 181.732 241.808 182.206 241.971 182.643C242.133 183.081 242.383 183.434 242.721 183.702C243.059 183.971 243.49 184.105 244.014 184.105ZM252.586 177.364V178.358H248.629V177.364H252.586ZM249.782 175.534H250.956V182.812C250.956 183.144 251.004 183.393 251.1 183.558C251.199 183.721 251.325 183.83 251.478 183.886C251.633 183.939 251.797 183.966 251.97 183.966C252.099 183.966 252.205 183.959 252.288 183.946C252.371 183.929 252.437 183.916 252.487 183.906L252.725 184.96C252.646 184.99 252.535 185.02 252.392 185.05C252.25 185.083 252.069 185.099 251.85 185.099C251.519 185.099 251.194 185.028 250.876 184.886C250.561 184.743 250.299 184.526 250.091 184.234C249.885 183.943 249.782 183.575 249.782 183.131V175.534ZM254.351 185V177.364H255.525V185H254.351ZM254.948 176.091C254.719 176.091 254.522 176.013 254.356 175.857C254.194 175.701 254.113 175.514 254.113 175.295C254.113 175.077 254.194 174.889 254.356 174.734C254.522 174.578 254.719 174.5 254.948 174.5C255.176 174.5 255.372 174.578 255.534 174.734C255.7 174.889 255.783 175.077 255.783 175.295C255.783 175.514 255.7 175.701 255.534 175.857C255.372 176.013 255.176 176.091 254.948 176.091ZM261.074 177.364V178.358H256.958V177.364H261.074ZM258.191 185V176.31C258.191 175.872 258.293 175.508 258.499 175.216C258.704 174.924 258.971 174.705 259.299 174.56C259.627 174.414 259.974 174.341 260.338 174.341C260.627 174.341 260.862 174.364 261.044 174.411C261.227 174.457 261.362 174.5 261.452 174.54L261.114 175.554C261.054 175.534 260.971 175.509 260.865 175.479C260.762 175.45 260.627 175.435 260.458 175.435C260.07 175.435 259.79 175.532 259.617 175.728C259.448 175.924 259.364 176.21 259.364 176.588V185H258.191ZM262.718 185V177.364H263.892V185H262.718ZM263.315 176.091C263.086 176.091 262.889 176.013 262.723 175.857C262.561 175.701 262.48 175.514 262.48 175.295C262.48 175.077 262.561 174.889 262.723 174.734C262.889 174.578 263.086 174.5 263.315 174.5C263.544 174.5 263.739 174.578 263.902 174.734C264.067 174.889 264.15 175.077 264.15 175.295C264.15 175.514 264.067 175.701 263.902 175.857C263.739 176.013 263.544 176.091 263.315 176.091ZM269.143 185.159C268.427 185.159 267.811 184.99 267.294 184.652C266.776 184.314 266.379 183.848 266.1 183.255C265.822 182.662 265.683 181.984 265.683 181.222C265.683 180.446 265.825 179.762 266.11 179.168C266.399 178.572 266.8 178.106 267.313 177.771C267.83 177.433 268.434 177.264 269.123 177.264C269.66 177.264 270.144 177.364 270.575 177.562C271.006 177.761 271.359 178.04 271.634 178.398C271.909 178.756 272.079 179.173 272.146 179.651H270.972C270.883 179.303 270.684 178.994 270.376 178.726C270.071 178.454 269.66 178.318 269.143 178.318C268.686 178.318 268.285 178.437 267.94 178.676C267.598 178.911 267.332 179.245 267.139 179.675C266.95 180.103 266.856 180.605 266.856 181.182C266.856 181.772 266.949 182.286 267.134 182.723C267.323 183.161 267.588 183.5 267.93 183.742C268.275 183.984 268.679 184.105 269.143 184.105C269.448 184.105 269.725 184.052 269.973 183.946C270.222 183.84 270.432 183.688 270.605 183.489C270.777 183.29 270.9 183.051 270.972 182.773H272.146C272.079 183.223 271.915 183.629 271.654 183.991C271.395 184.349 271.052 184.634 270.624 184.846C270.2 185.055 269.706 185.159 269.143 185.159ZM276.108 185.179C275.624 185.179 275.185 185.088 274.791 184.906C274.396 184.72 274.083 184.453 273.851 184.105C273.619 183.754 273.503 183.33 273.503 182.832C273.503 182.395 273.589 182.04 273.762 181.768C273.934 181.493 274.164 181.278 274.453 181.122C274.741 180.966 275.059 180.85 275.407 180.774C275.758 180.695 276.111 180.632 276.466 180.585C276.93 180.526 277.306 180.481 277.595 180.451C277.886 180.418 278.098 180.363 278.231 180.287C278.367 180.211 278.435 180.078 278.435 179.889V179.849C278.435 179.359 278.301 178.978 278.032 178.706C277.767 178.434 277.364 178.298 276.824 178.298C276.264 178.298 275.825 178.421 275.507 178.666C275.188 178.911 274.965 179.173 274.835 179.452L273.722 179.054C273.921 178.59 274.186 178.229 274.517 177.97C274.852 177.708 275.217 177.526 275.611 177.423C276.009 177.317 276.4 177.264 276.784 177.264C277.03 177.264 277.311 177.294 277.629 177.354C277.951 177.41 278.261 177.528 278.559 177.707C278.861 177.886 279.111 178.156 279.31 178.517C279.509 178.878 279.608 179.362 279.608 179.969V185H278.435V183.966H278.375C278.296 184.132 278.163 184.309 277.977 184.498C277.792 184.687 277.545 184.848 277.237 184.98C276.928 185.113 276.552 185.179 276.108 185.179ZM276.287 184.125C276.751 184.125 277.142 184.034 277.46 183.852C277.782 183.669 278.024 183.434 278.186 183.146C278.352 182.857 278.435 182.554 278.435 182.236V181.162C278.385 181.222 278.276 181.276 278.107 181.326C277.941 181.372 277.749 181.414 277.53 181.45C277.315 181.483 277.104 181.513 276.899 181.54C276.696 181.563 276.532 181.583 276.406 181.599C276.102 181.639 275.816 181.704 275.551 181.793C275.289 181.879 275.077 182.01 274.915 182.186C274.756 182.358 274.676 182.594 274.676 182.892C274.676 183.3 274.827 183.608 275.129 183.817C275.434 184.022 275.82 184.125 276.287 184.125ZM285.071 177.364V178.358H281.113V177.364H285.071ZM282.267 175.534H283.44V182.812C283.44 183.144 283.488 183.393 283.584 183.558C283.684 183.721 283.81 183.83 283.962 183.886C284.118 183.939 284.282 183.966 284.454 183.966C284.583 183.966 284.69 183.959 284.772 183.946C284.855 183.929 284.922 183.916 284.971 183.906L285.21 184.96C285.13 184.99 285.019 185.02 284.877 185.05C284.734 185.083 284.554 185.099 284.335 185.099C284.003 185.099 283.679 185.028 283.36 184.886C283.046 184.743 282.784 184.526 282.575 184.234C282.369 183.943 282.267 183.575 282.267 183.131V175.534ZM286.836 185V177.364H288.009V185H286.836ZM287.432 176.091C287.203 176.091 287.006 176.013 286.841 175.857C286.678 175.701 286.597 175.514 286.597 175.295C286.597 175.077 286.678 174.889 286.841 174.734C287.006 174.578 287.203 174.5 287.432 174.5C287.661 174.5 287.856 174.578 288.019 174.734C288.185 174.889 288.267 175.077 288.267 175.295C288.267 175.514 288.185 175.701 288.019 175.857C287.856 176.013 287.661 176.091 287.432 176.091ZM293.26 185.159C292.571 185.159 291.966 184.995 291.445 184.667C290.928 184.339 290.524 183.88 290.232 183.29C289.944 182.7 289.8 182.01 289.8 181.222C289.8 180.426 289.944 179.732 290.232 179.138C290.524 178.545 290.928 178.085 291.445 177.756C291.966 177.428 292.571 177.264 293.26 177.264C293.95 177.264 294.553 177.428 295.07 177.756C295.59 178.085 295.994 178.545 296.283 179.138C296.575 179.732 296.72 180.426 296.72 181.222C296.72 182.01 296.575 182.7 296.283 183.29C295.994 183.88 295.59 184.339 295.07 184.667C294.553 184.995 293.95 185.159 293.26 185.159ZM293.26 184.105C293.784 184.105 294.215 183.971 294.553 183.702C294.891 183.434 295.141 183.081 295.303 182.643C295.466 182.206 295.547 181.732 295.547 181.222C295.547 180.711 295.466 180.236 295.303 179.795C295.141 179.354 294.891 178.998 294.553 178.726C294.215 178.454 293.784 178.318 293.26 178.318C292.736 178.318 292.306 178.454 291.968 178.726C291.629 178.998 291.379 179.354 291.217 179.795C291.054 180.236 290.973 180.711 290.973 181.222C290.973 181.732 291.054 182.206 291.217 182.643C291.379 183.081 291.629 183.434 291.968 183.702C292.306 183.971 292.736 184.105 293.26 184.105ZM299.685 180.406V185H298.511V177.364H299.645V178.557H299.744C299.923 178.169 300.195 177.857 300.56 177.622C300.924 177.384 301.395 177.264 301.972 177.264C302.489 177.264 302.941 177.37 303.329 177.582C303.717 177.791 304.018 178.109 304.234 178.537C304.449 178.961 304.557 179.498 304.557 180.148V185H303.384V180.227C303.384 179.627 303.228 179.16 302.916 178.825C302.605 178.487 302.177 178.318 301.634 178.318C301.259 178.318 300.924 178.399 300.629 178.562C300.338 178.724 300.107 178.961 299.938 179.273C299.769 179.584 299.685 179.962 299.685 180.406ZM316.047 179.074L314.993 179.372C314.927 179.196 314.829 179.026 314.7 178.86C314.574 178.691 314.402 178.552 314.183 178.442C313.964 178.333 313.684 178.278 313.343 178.278C312.876 178.278 312.486 178.386 312.175 178.602C311.866 178.814 311.712 179.084 311.712 179.412C311.712 179.704 311.818 179.934 312.03 180.103C312.242 180.272 312.574 180.413 313.025 180.526L314.158 180.804C314.841 180.97 315.35 181.223 315.684 181.565C316.019 181.903 316.187 182.339 316.187 182.872C316.187 183.31 316.061 183.701 315.809 184.045C315.56 184.39 315.212 184.662 314.765 184.861C314.317 185.06 313.797 185.159 313.204 185.159C312.425 185.159 311.78 184.99 311.27 184.652C310.759 184.314 310.436 183.82 310.3 183.17L311.414 182.892C311.52 183.303 311.72 183.611 312.015 183.817C312.314 184.022 312.703 184.125 313.184 184.125C313.731 184.125 314.165 184.009 314.486 183.777C314.811 183.542 314.974 183.26 314.974 182.932C314.974 182.667 314.881 182.445 314.695 182.266C314.51 182.083 314.224 181.947 313.84 181.858L312.567 181.56C311.868 181.394 311.354 181.137 311.026 180.789C310.701 180.438 310.539 179.999 310.539 179.472C310.539 179.041 310.66 178.66 310.902 178.328C311.147 177.997 311.48 177.737 311.901 177.548C312.325 177.359 312.806 177.264 313.343 177.264C314.099 177.264 314.692 177.43 315.123 177.761C315.557 178.093 315.865 178.53 316.047 179.074ZM321.055 185.159C320.366 185.159 319.761 184.995 319.24 184.667C318.723 184.339 318.319 183.88 318.027 183.29C317.739 182.7 317.595 182.01 317.595 181.222C317.595 180.426 317.739 179.732 318.027 179.138C318.319 178.545 318.723 178.085 319.24 177.756C319.761 177.428 320.366 177.264 321.055 177.264C321.744 177.264 322.348 177.428 322.865 177.756C323.385 178.085 323.789 178.545 324.078 179.138C324.369 179.732 324.515 180.426 324.515 181.222C324.515 182.01 324.369 182.7 324.078 183.29C323.789 183.88 323.385 184.339 322.865 184.667C322.348 184.995 321.744 185.159 321.055 185.159ZM321.055 184.105C321.579 184.105 322.01 183.971 322.348 183.702C322.686 183.434 322.936 183.081 323.098 182.643C323.261 182.206 323.342 181.732 323.342 181.222C323.342 180.711 323.261 180.236 323.098 179.795C322.936 179.354 322.686 178.998 322.348 178.726C322.01 178.454 321.579 178.318 321.055 178.318C320.531 178.318 320.1 178.454 319.762 178.726C319.424 178.998 319.174 179.354 319.012 179.795C318.849 180.236 318.768 180.711 318.768 181.222C318.768 181.732 318.849 182.206 319.012 182.643C319.174 183.081 319.424 183.434 319.762 183.702C320.1 183.971 320.531 184.105 321.055 184.105ZM331.119 181.878V177.364H332.292V185H331.119V183.707H331.039C330.86 184.095 330.582 184.425 330.204 184.697C329.826 184.965 329.349 185.099 328.772 185.099C328.295 185.099 327.871 184.995 327.499 184.786C327.128 184.574 326.837 184.256 326.624 183.832C326.412 183.404 326.306 182.866 326.306 182.216V177.364H327.48V182.136C327.48 182.693 327.635 183.137 327.947 183.469C328.262 183.8 328.663 183.966 329.15 183.966C329.442 183.966 329.738 183.891 330.04 183.742C330.345 183.593 330.6 183.364 330.806 183.056C331.014 182.748 331.119 182.355 331.119 181.878ZM335.614 180.406V185H334.441V177.364H335.575V178.557H335.674C335.853 178.169 336.125 177.857 336.489 177.622C336.854 177.384 337.325 177.264 337.901 177.264C338.418 177.264 338.871 177.37 339.259 177.582C339.646 177.791 339.948 178.109 340.163 178.537C340.379 178.961 340.487 179.498 340.487 180.148V185H339.313V180.227C339.313 179.627 339.157 179.16 338.846 178.825C338.534 178.487 338.107 178.318 337.563 178.318C337.189 178.318 336.854 178.399 336.559 178.562C336.267 178.724 336.037 178.961 335.868 179.273C335.699 179.584 335.614 179.962 335.614 180.406ZM345.514 185.159C344.878 185.159 344.316 184.998 343.829 184.677C343.341 184.352 342.96 183.895 342.685 183.305C342.41 182.711 342.273 182.01 342.273 181.202C342.273 180.4 342.41 179.704 342.685 179.114C342.96 178.524 343.343 178.068 343.834 177.746C344.324 177.425 344.891 177.264 345.534 177.264C346.031 177.264 346.424 177.347 346.712 177.513C347.004 177.675 347.226 177.861 347.378 178.07C347.534 178.275 347.655 178.444 347.741 178.577H347.841V174.818H349.014V185H347.881V183.827H347.741C347.655 183.966 347.532 184.142 347.373 184.354C347.214 184.562 346.987 184.75 346.692 184.915C346.397 185.078 346.005 185.159 345.514 185.159ZM345.673 184.105C346.144 184.105 346.541 183.982 346.866 183.737C347.191 183.489 347.438 183.146 347.607 182.708C347.776 182.267 347.861 181.759 347.861 181.182C347.861 180.612 347.778 180.113 347.612 179.685C347.446 179.254 347.201 178.92 346.876 178.681C346.551 178.439 346.15 178.318 345.673 178.318C345.176 178.318 344.762 178.446 344.43 178.701C344.102 178.953 343.855 179.296 343.689 179.73C343.527 180.161 343.446 180.645 343.446 181.182C343.446 181.725 343.529 182.219 343.694 182.663C343.863 183.104 344.112 183.455 344.44 183.717C344.772 183.976 345.183 184.105 345.673 184.105ZM356.735 179.074L355.681 179.372C355.615 179.196 355.517 179.026 355.388 178.86C355.262 178.691 355.089 178.552 354.871 178.442C354.652 178.333 354.372 178.278 354.03 178.278C353.563 178.278 353.174 178.386 352.862 178.602C352.554 178.814 352.4 179.084 352.4 179.412C352.4 179.704 352.506 179.934 352.718 180.103C352.93 180.272 353.261 180.413 353.712 180.526L354.846 180.804C355.528 180.97 356.037 181.223 356.372 181.565C356.707 181.903 356.874 182.339 356.874 182.872C356.874 183.31 356.748 183.701 356.496 184.045C356.248 184.39 355.9 184.662 355.452 184.861C355.005 185.06 354.484 185.159 353.891 185.159C353.112 185.159 352.468 184.99 351.957 184.652C351.447 184.314 351.124 183.82 350.988 183.17L352.101 182.892C352.207 183.303 352.408 183.611 352.703 183.817C353.001 184.022 353.391 184.125 353.871 184.125C354.418 184.125 354.852 184.009 355.174 183.777C355.499 183.542 355.661 183.26 355.661 182.932C355.661 182.667 355.568 182.445 355.383 182.266C355.197 182.083 354.912 181.947 354.528 181.858L353.255 181.56C352.555 181.394 352.042 181.137 351.714 180.789C351.389 180.438 351.226 179.999 351.226 179.472C351.226 179.041 351.347 178.66 351.589 178.328C351.835 177.997 352.168 177.737 352.589 177.548C353.013 177.359 353.493 177.264 354.03 177.264C354.786 177.264 355.379 177.43 355.81 177.761C356.244 178.093 356.553 178.53 356.735 179.074ZM360.39 183.608L360.311 184.145C360.254 184.523 360.168 184.927 360.052 185.358C359.94 185.789 359.822 186.195 359.699 186.576C359.577 186.957 359.475 187.26 359.396 187.486H358.501C358.544 187.274 358.6 186.994 358.67 186.646C358.74 186.298 358.809 185.908 358.879 185.477C358.952 185.05 359.011 184.612 359.058 184.165L359.118 183.608H360.39Z" fill="white" fill-opacity="0.7"/>
<path d="M366.324 185.49H367.766C367.831 185.863 368.018 186.153 368.326 186.358C368.643 186.563 369.058 186.666 369.572 186.666C370.29 186.666 370.827 186.479 371.182 186.106C371.48 185.789 371.63 185.345 371.63 184.776V183.838C371.088 184.473 370.281 184.79 369.208 184.79C368.237 184.79 367.448 184.44 366.842 183.74C366.272 183.087 365.988 182.237 365.988 181.192C365.988 179.979 366.333 179.041 367.024 178.378C367.612 177.799 368.368 177.51 369.292 177.51C370.337 177.51 371.126 177.902 371.658 178.686L371.868 177.72H372.974V184.846C372.974 185.761 372.642 186.479 371.98 187.002C371.382 187.487 370.594 187.73 369.614 187.73C368.596 187.73 367.798 187.501 367.22 187.044C366.734 186.661 366.436 186.143 366.324 185.49ZM367.388 181.22C367.388 182.013 367.621 182.634 368.088 183.082C368.47 183.455 368.942 183.642 369.502 183.642C370.239 183.642 370.804 183.399 371.196 182.914C371.532 182.503 371.7 181.953 371.7 181.262C371.7 180.375 371.471 179.699 371.014 179.232C370.631 178.849 370.127 178.658 369.502 178.658C368.811 178.658 368.279 178.896 367.906 179.372C367.56 179.82 367.388 180.436 367.388 181.22ZM374.519 181.36C374.519 180.025 374.916 179.017 375.709 178.336C376.344 177.785 377.146 177.51 378.117 177.51C379.246 177.51 380.133 177.869 380.777 178.588C381.393 179.26 381.701 180.184 381.701 181.36C381.701 182.676 381.314 183.679 380.539 184.37C379.904 184.93 379.092 185.21 378.103 185.21C376.974 185.21 376.082 184.837 375.429 184.09C374.822 183.409 374.519 182.499 374.519 181.36ZM375.919 181.36C375.919 182.293 376.157 183.007 376.633 183.502C377.025 183.913 377.524 184.118 378.131 184.118C378.84 184.118 379.386 183.852 379.769 183.32C380.124 182.835 380.301 182.181 380.301 181.36C380.301 180.408 380.068 179.689 379.601 179.204C379.218 178.803 378.724 178.602 378.117 178.602C377.417 178.602 376.871 178.868 376.479 179.4C376.106 179.885 375.919 180.539 375.919 181.36ZM390.683 183.922V185.07C390.338 185.163 390.006 185.21 389.689 185.21C389.017 185.21 388.513 185 388.177 184.58C387.888 184.235 387.743 183.773 387.743 183.194V178.868H386.665V177.72H387.743L387.827 175.97H389.087V177.72H390.655V178.868H389.087V183.222C389.087 183.763 389.344 184.034 389.857 184.034C390.1 184.034 390.375 183.997 390.683 183.922ZM391.458 181.36C391.458 180.025 391.855 179.017 392.648 178.336C393.283 177.785 394.086 177.51 395.056 177.51C396.186 177.51 397.072 177.869 397.716 178.588C398.332 179.26 398.64 180.184 398.64 181.36C398.64 182.676 398.253 183.679 397.478 184.37C396.844 184.93 396.032 185.21 395.042 185.21C393.913 185.21 393.022 184.837 392.368 184.09C391.762 183.409 391.458 182.499 391.458 181.36ZM392.858 181.36C392.858 182.293 393.096 183.007 393.572 183.502C393.964 183.913 394.464 184.118 395.07 184.118C395.78 184.118 396.326 183.852 396.708 183.32C397.063 182.835 397.24 182.181 397.24 181.36C397.24 180.408 397.007 179.689 396.54 179.204C396.158 178.803 395.663 178.602 395.056 178.602C394.356 178.602 393.81 178.868 393.418 179.4C393.045 179.885 392.858 180.539 392.858 181.36ZM413.279 185H411.697L410.703 182.452H405.901L404.893 185H403.395L407.539 174.92H409.149L413.279 185ZM408.323 176.348L406.363 181.29H410.241L408.323 176.348ZM414.189 177.72H415.533V182.494C415.533 183.539 416.037 184.062 417.045 184.062C417.661 184.062 418.133 183.843 418.459 183.404C418.711 183.068 418.837 182.653 418.837 182.158V177.72H420.181V185H419.075L418.921 184.16C418.408 184.86 417.68 185.21 416.737 185.21C415.907 185.21 415.267 184.953 414.819 184.44C414.399 183.964 414.189 183.306 414.189 182.466V177.72ZM428.714 185H427.608L427.37 183.978C426.81 184.799 426.003 185.21 424.948 185.21C423.931 185.21 423.128 184.841 422.54 184.104C421.999 183.423 421.728 182.522 421.728 181.402C421.728 180.049 422.073 179.031 422.764 178.35C423.343 177.79 424.099 177.51 425.032 177.51C426.04 177.51 426.819 177.888 427.37 178.644V174.92H428.714V185ZM423.128 181.43C423.128 182.335 423.352 183.021 423.8 183.488C424.173 183.871 424.654 184.062 425.242 184.062C425.97 184.062 426.535 183.787 426.936 183.236C427.272 182.76 427.44 182.163 427.44 181.444C427.44 180.501 427.216 179.783 426.768 179.288C426.385 178.868 425.877 178.658 425.242 178.658C424.533 178.658 423.996 178.915 423.632 179.428C423.296 179.895 423.128 180.562 423.128 181.43ZM432.107 176.502H430.595V174.92H432.107V176.502ZM432.023 185H430.679V177.72H432.023V185ZM433.568 181.36C433.568 180.025 433.964 179.017 434.758 178.336C435.392 177.785 436.195 177.51 437.166 177.51C438.295 177.51 439.182 177.869 439.826 178.588C440.442 179.26 440.75 180.184 440.75 181.36C440.75 182.676 440.362 183.679 439.588 184.37C438.953 184.93 438.141 185.21 437.152 185.21C436.022 185.21 435.131 184.837 434.478 184.09C433.871 183.409 433.568 182.499 433.568 181.36ZM434.968 181.36C434.968 182.293 435.206 183.007 435.682 183.502C436.074 183.913 436.573 184.118 437.18 184.118C437.889 184.118 438.435 183.852 438.818 183.32C439.172 182.835 439.35 182.181 439.35 181.36C439.35 180.408 439.116 179.689 438.65 179.204C438.267 178.803 437.772 178.602 437.166 178.602C436.466 178.602 435.92 178.868 435.528 179.4C435.154 179.885 434.968 180.539 434.968 181.36ZM444.014 185H442.39V183.376H444.014V185Z" fill="#64B4FA"/>
<path d="M365.428 186.26H445.302V187.45H365.428V186.26Z" fill="#64B4FA"/>
<rect x="31.5" y="116.5" width="15" height="15" rx="1.5" stroke="white" stroke-opacity="0.5"/>
<path d="M56.233 118.818H57.7045L61.1648 127.27H61.2841L64.7443 118.818H66.2159V129H65.0625V121.264H64.9631L61.7812 129H60.6676L57.4858 121.264H57.3864V129H56.233V118.818ZM73.3414 125.878V121.364H74.5147V129H73.3414V127.707H73.2619C73.0829 128.095 72.8045 128.425 72.4267 128.697C72.0488 128.965 71.5716 129.099 70.9949 129.099C70.5176 129.099 70.0933 128.995 69.7221 128.786C69.3509 128.574 69.0592 128.256 68.8471 127.832C68.635 127.404 68.5289 126.866 68.5289 126.216V121.364H69.7022V126.136C69.7022 126.693 69.858 127.137 70.1696 127.469C70.4844 127.8 70.8855 127.966 71.3727 127.966C71.6644 127.966 71.961 127.891 72.2626 127.742C72.5675 127.593 72.8227 127.364 73.0282 127.056C73.237 126.748 73.3414 126.355 73.3414 125.878ZM79.9847 121.364V122.358H76.0273V121.364H79.9847ZM77.1808 119.534H78.354V126.812C78.354 127.144 78.4021 127.393 78.4982 127.558C78.5977 127.721 78.7236 127.83 78.8761 127.886C79.0318 127.939 79.1959 127.966 79.3683 127.966C79.4975 127.966 79.6036 127.959 79.6864 127.946C79.7693 127.929 79.8356 127.916 79.8853 127.906L80.1239 128.96C80.0444 128.99 79.9334 129.02 79.7908 129.05C79.6483 129.083 79.4677 129.099 79.2489 129.099C78.9175 129.099 78.5927 129.028 78.2745 128.886C77.9596 128.743 77.6978 128.526 77.489 128.234C77.2835 127.943 77.1808 127.575 77.1808 127.131V119.534ZM84.8693 129.159C84.1335 129.159 83.4988 128.997 82.9652 128.672C82.4349 128.344 82.0256 127.886 81.7372 127.3C81.4522 126.71 81.3097 126.024 81.3097 125.241C81.3097 124.459 81.4522 123.77 81.7372 123.173C82.0256 122.573 82.4266 122.106 82.9403 121.771C83.4574 121.433 84.0606 121.264 84.75 121.264C85.1477 121.264 85.5405 121.33 85.9283 121.463C86.3161 121.596 86.669 121.811 86.9872 122.109C87.3054 122.404 87.5589 122.795 87.7479 123.283C87.9368 123.77 88.0312 124.37 88.0312 125.082V125.58H82.1449V124.565H86.8381C86.8381 124.134 86.7519 123.75 86.5795 123.412C86.4105 123.074 86.1686 122.807 85.8537 122.612C85.5421 122.416 85.1742 122.318 84.75 122.318C84.2827 122.318 83.8783 122.434 83.5369 122.666C83.1989 122.895 82.9387 123.193 82.7564 123.561C82.5741 123.929 82.483 124.323 82.483 124.744V125.42C82.483 125.997 82.5824 126.486 82.7812 126.887C82.9834 127.285 83.2635 127.588 83.6214 127.797C83.9794 128.002 84.3954 128.105 84.8693 128.105C85.1776 128.105 85.456 128.062 85.7045 127.976C85.9564 127.886 86.1735 127.754 86.3558 127.578C86.5381 127.399 86.679 127.177 86.7784 126.912L87.9119 127.23C87.7926 127.615 87.5921 127.953 87.3104 128.244C87.0286 128.533 86.6806 128.758 86.2663 128.92C85.852 129.08 85.3864 129.159 84.8693 129.159ZM95.4837 129L93.157 121.364H94.3899L96.0405 127.21H96.12L97.7507 121.364H99.0036L100.614 127.19H100.694L102.344 121.364H103.577L101.251 129H100.097L98.4268 123.134H98.3075L96.6371 129H95.4837ZM106.302 124.406V129H105.129V118.818H106.302V122.557H106.401C106.58 122.162 106.849 121.849 107.207 121.617C107.568 121.382 108.049 121.264 108.648 121.264C109.169 121.264 109.625 121.369 110.016 121.577C110.407 121.783 110.71 122.099 110.925 122.527C111.144 122.951 111.254 123.491 111.254 124.148V129H110.08V124.227C110.08 123.621 109.923 123.152 109.608 122.82C109.296 122.486 108.864 122.318 108.31 122.318C107.926 122.318 107.581 122.399 107.276 122.562C106.975 122.724 106.736 122.961 106.56 123.273C106.388 123.584 106.302 123.962 106.302 124.406ZM116.602 129.159C115.866 129.159 115.231 128.997 114.698 128.672C114.167 128.344 113.758 127.886 113.47 127.3C113.185 126.71 113.042 126.024 113.042 125.241C113.042 124.459 113.185 123.77 113.47 123.173C113.758 122.573 114.159 122.106 114.673 121.771C115.19 121.433 115.793 121.264 116.482 121.264C116.88 121.264 117.273 121.33 117.661 121.463C118.048 121.596 118.401 121.811 118.72 122.109C119.038 122.404 119.291 122.795 119.48 123.283C119.669 123.77 119.764 124.37 119.764 125.082V125.58H113.877V124.565H118.57C118.57 124.134 118.484 123.75 118.312 123.412C118.143 123.074 117.901 122.807 117.586 122.612C117.275 122.416 116.907 122.318 116.482 122.318C116.015 122.318 115.611 122.434 115.269 122.666C114.931 122.895 114.671 123.193 114.489 123.561C114.307 123.929 114.215 124.323 114.215 124.744V125.42C114.215 125.997 114.315 126.486 114.514 126.887C114.716 127.285 114.996 127.588 115.354 127.797C115.712 128.002 116.128 128.105 116.602 128.105C116.91 128.105 117.188 128.062 117.437 127.976C117.689 127.886 117.906 127.754 118.088 127.578C118.271 127.399 118.411 127.177 118.511 126.912L119.644 127.23C119.525 127.615 119.325 127.953 119.043 128.244C118.761 128.533 118.413 128.758 117.999 128.92C117.584 129.08 117.119 129.159 116.602 129.159ZM122.722 124.406V129H121.548V121.364H122.682V122.557H122.781C122.96 122.169 123.232 121.857 123.597 121.622C123.961 121.384 124.432 121.264 125.009 121.264C125.526 121.264 125.978 121.37 126.366 121.582C126.754 121.791 127.055 122.109 127.271 122.537C127.486 122.961 127.594 123.498 127.594 124.148V129H126.421V124.227C126.421 123.627 126.265 123.16 125.953 122.825C125.642 122.487 125.214 122.318 124.671 122.318C124.296 122.318 123.961 122.399 123.666 122.562C123.375 122.724 123.144 122.961 122.975 123.273C122.806 123.584 122.722 123.962 122.722 124.406ZM135.684 129L132.9 118.818H134.153L136.281 127.111H136.38L138.548 118.818H139.94L142.107 127.111H142.207L144.335 118.818H145.587L142.803 129H141.531L139.283 120.886H139.204L136.957 129H135.684ZM149.455 129.159C148.719 129.159 148.085 128.997 147.551 128.672C147.021 128.344 146.612 127.886 146.323 127.3C146.038 126.71 145.896 126.024 145.896 125.241C145.896 124.459 146.038 123.77 146.323 123.173C146.612 122.573 147.013 122.106 147.526 121.771C148.043 121.433 148.647 121.264 149.336 121.264C149.734 121.264 150.126 121.33 150.514 121.463C150.902 121.596 151.255 121.811 151.573 122.109C151.891 122.404 152.145 122.795 152.334 123.283C152.523 123.77 152.617 124.37 152.617 125.082V125.58H146.731V124.565H151.424C151.424 124.134 151.338 123.75 151.165 123.412C150.996 123.074 150.754 122.807 150.44 122.612C150.128 122.416 149.76 122.318 149.336 122.318C148.869 122.318 148.464 122.434 148.123 122.666C147.785 122.895 147.525 123.193 147.342 123.561C147.16 123.929 147.069 124.323 147.069 124.744V125.42C147.069 125.997 147.168 126.486 147.367 126.887C147.569 127.285 147.849 127.588 148.207 127.797C148.565 128.002 148.981 128.105 149.455 128.105C149.763 128.105 150.042 128.062 150.29 127.976C150.542 127.886 150.759 127.754 150.942 127.578C151.124 127.399 151.265 127.177 151.364 126.912L152.498 127.23C152.379 127.615 152.178 127.953 151.896 128.244C151.615 128.533 151.267 128.758 150.852 128.92C150.438 129.08 149.972 129.159 149.455 129.159ZM154.561 129V118.818H155.734V122.577H155.834C155.92 122.444 156.039 122.275 156.192 122.07C156.348 121.861 156.57 121.675 156.858 121.513C157.15 121.347 157.544 121.264 158.041 121.264C158.684 121.264 159.251 121.425 159.741 121.746C160.232 122.068 160.615 122.524 160.89 123.114C161.165 123.704 161.303 124.4 161.303 125.202C161.303 126.01 161.165 126.711 160.89 127.305C160.615 127.895 160.234 128.352 159.746 128.677C159.259 128.998 158.697 129.159 158.061 129.159C157.571 129.159 157.178 129.078 156.883 128.915C156.588 128.75 156.361 128.562 156.202 128.354C156.043 128.142 155.92 127.966 155.834 127.827H155.695V129H154.561ZM155.714 125.182C155.714 125.759 155.799 126.267 155.968 126.708C156.137 127.146 156.384 127.489 156.709 127.737C157.034 127.982 157.431 128.105 157.902 128.105C158.393 128.105 158.802 127.976 159.13 127.717C159.461 127.455 159.71 127.104 159.876 126.663C160.045 126.219 160.129 125.725 160.129 125.182C160.129 124.645 160.046 124.161 159.881 123.73C159.718 123.296 159.471 122.953 159.14 122.701C158.812 122.446 158.399 122.318 157.902 122.318C157.425 122.318 157.024 122.439 156.699 122.681C156.374 122.92 156.129 123.254 155.963 123.685C155.797 124.113 155.714 124.612 155.714 125.182ZM166.299 129.159C165.563 129.159 164.929 128.997 164.395 128.672C163.865 128.344 163.455 127.886 163.167 127.3C162.882 126.71 162.739 126.024 162.739 125.241C162.739 124.459 162.882 123.77 163.167 123.173C163.455 122.573 163.856 122.106 164.37 121.771C164.887 121.433 165.49 121.264 166.18 121.264C166.577 121.264 166.97 121.33 167.358 121.463C167.746 121.596 168.099 121.811 168.417 122.109C168.735 122.404 168.989 122.795 169.178 123.283C169.366 123.77 169.461 124.37 169.461 125.082V125.58H163.575V124.565H168.268C168.268 124.134 168.182 123.75 168.009 123.412C167.84 123.074 167.598 122.807 167.283 122.612C166.972 122.416 166.604 122.318 166.18 122.318C165.712 122.318 165.308 122.434 164.967 122.666C164.629 122.895 164.368 123.193 164.186 123.561C164.004 123.929 163.913 124.323 163.913 124.744V125.42C163.913 125.997 164.012 126.486 164.211 126.887C164.413 127.285 164.693 127.588 165.051 127.797C165.409 128.002 165.825 128.105 166.299 128.105C166.607 128.105 166.886 128.062 167.134 127.976C167.386 127.886 167.603 127.754 167.786 127.578C167.968 127.399 168.109 127.177 168.208 126.912L169.342 127.23C169.222 127.615 169.022 127.953 168.74 128.244C168.458 128.533 168.11 128.758 167.696 128.92C167.282 129.08 166.816 129.159 166.299 129.159ZM171.916 121.364L173.745 124.486L175.575 121.364H176.927L174.461 125.182L176.927 129H175.575L173.745 126.037L171.916 129H170.563L172.99 125.182L170.563 121.364H171.916ZM182.539 129V121.364H183.712V129H182.539ZM183.135 120.091C182.907 120.091 182.709 120.013 182.544 119.857C182.381 119.701 182.3 119.514 182.3 119.295C182.3 119.077 182.381 118.889 182.544 118.734C182.709 118.578 182.907 118.5 183.135 118.5C183.364 118.5 183.56 118.578 183.722 118.734C183.888 118.889 183.971 119.077 183.971 119.295C183.971 119.514 183.888 119.701 183.722 119.857C183.56 120.013 183.364 120.091 183.135 120.091ZM191.27 123.074L190.216 123.372C190.15 123.196 190.052 123.026 189.923 122.86C189.797 122.691 189.624 122.552 189.406 122.442C189.187 122.333 188.907 122.278 188.566 122.278C188.098 122.278 187.709 122.386 187.397 122.602C187.089 122.814 186.935 123.084 186.935 123.412C186.935 123.704 187.041 123.934 187.253 124.103C187.465 124.272 187.797 124.413 188.247 124.526L189.381 124.804C190.064 124.97 190.572 125.223 190.907 125.565C191.242 125.903 191.409 126.339 191.409 126.872C191.409 127.31 191.283 127.701 191.031 128.045C190.783 128.39 190.435 128.662 189.987 128.861C189.54 129.06 189.02 129.159 188.426 129.159C187.647 129.159 187.003 128.99 186.492 128.652C185.982 128.314 185.659 127.82 185.523 127.17L186.637 126.892C186.743 127.303 186.943 127.611 187.238 127.817C187.536 128.022 187.926 128.125 188.406 128.125C188.953 128.125 189.387 128.009 189.709 127.777C190.034 127.542 190.196 127.26 190.196 126.932C190.196 126.667 190.103 126.445 189.918 126.266C189.732 126.083 189.447 125.947 189.063 125.858L187.79 125.56C187.091 125.394 186.577 125.137 186.249 124.789C185.924 124.438 185.762 123.999 185.762 123.472C185.762 123.041 185.883 122.66 186.124 122.328C186.37 121.997 186.703 121.737 187.124 121.548C187.548 121.359 188.029 121.264 188.566 121.264C189.321 121.264 189.914 121.43 190.345 121.761C190.78 122.093 191.088 122.53 191.27 123.074ZM200.215 129.159C199.499 129.159 198.883 128.99 198.366 128.652C197.849 128.314 197.451 127.848 197.173 127.255C196.894 126.662 196.755 125.984 196.755 125.222C196.755 124.446 196.897 123.762 197.183 123.168C197.471 122.572 197.872 122.106 198.386 121.771C198.903 121.433 199.506 121.264 200.195 121.264C200.732 121.264 201.216 121.364 201.647 121.562C202.078 121.761 202.431 122.04 202.706 122.398C202.981 122.756 203.152 123.173 203.218 123.651H202.045C201.955 123.303 201.756 122.994 201.448 122.726C201.143 122.454 200.732 122.318 200.215 122.318C199.758 122.318 199.357 122.437 199.012 122.676C198.671 122.911 198.404 123.245 198.212 123.675C198.023 124.103 197.928 124.605 197.928 125.182C197.928 125.772 198.021 126.286 198.207 126.723C198.396 127.161 198.661 127.5 199.002 127.742C199.347 127.984 199.751 128.105 200.215 128.105C200.52 128.105 200.797 128.052 201.045 127.946C201.294 127.84 201.504 127.688 201.677 127.489C201.849 127.29 201.972 127.051 202.045 126.773H203.218C203.152 127.223 202.988 127.629 202.726 127.991C202.467 128.349 202.124 128.634 201.697 128.846C201.272 129.055 200.779 129.159 200.215 129.159ZM206.107 118.818V129H204.933V118.818H206.107ZM211.358 129.159C210.668 129.159 210.064 128.995 209.543 128.667C209.026 128.339 208.622 127.88 208.33 127.29C208.042 126.7 207.898 126.01 207.898 125.222C207.898 124.426 208.042 123.732 208.33 123.138C208.622 122.545 209.026 122.085 209.543 121.756C210.064 121.428 210.668 121.264 211.358 121.264C212.047 121.264 212.65 121.428 213.167 121.756C213.688 122.085 214.092 122.545 214.381 123.138C214.672 123.732 214.818 124.426 214.818 125.222C214.818 126.01 214.672 126.7 214.381 127.29C214.092 127.88 213.688 128.339 213.167 128.667C212.65 128.995 212.047 129.159 211.358 129.159ZM211.358 128.105C211.881 128.105 212.312 127.971 212.65 127.702C212.988 127.434 213.239 127.081 213.401 126.643C213.564 126.206 213.645 125.732 213.645 125.222C213.645 124.711 213.564 124.236 213.401 123.795C213.239 123.354 212.988 122.998 212.65 122.726C212.312 122.454 211.881 122.318 211.358 122.318C210.834 122.318 210.403 122.454 210.065 122.726C209.727 122.998 209.477 123.354 209.314 123.795C209.152 124.236 209.071 124.711 209.071 125.222C209.071 125.732 209.152 126.206 209.314 126.643C209.477 127.081 209.727 127.434 210.065 127.702C210.403 127.971 210.834 128.105 211.358 128.105ZM222.018 123.074L220.964 123.372C220.898 123.196 220.8 123.026 220.671 122.86C220.545 122.691 220.373 122.552 220.154 122.442C219.935 122.333 219.655 122.278 219.314 122.278C218.846 122.278 218.457 122.386 218.145 122.602C217.837 122.814 217.683 123.084 217.683 123.412C217.683 123.704 217.789 123.934 218.001 124.103C218.213 124.272 218.545 124.413 218.995 124.526L220.129 124.804C220.812 124.97 221.32 125.223 221.655 125.565C221.99 125.903 222.157 126.339 222.157 126.872C222.157 127.31 222.031 127.701 221.779 128.045C221.531 128.39 221.183 128.662 220.735 128.861C220.288 129.06 219.768 129.159 219.174 129.159C218.395 129.159 217.751 128.99 217.24 128.652C216.73 128.314 216.407 127.82 216.271 127.17L217.385 126.892C217.491 127.303 217.691 127.611 217.986 127.817C218.284 128.022 218.674 128.125 219.154 128.125C219.701 128.125 220.136 128.009 220.457 127.777C220.782 127.542 220.944 127.26 220.944 126.932C220.944 126.667 220.851 126.445 220.666 126.266C220.48 126.083 220.195 125.947 219.811 125.858L218.538 125.56C217.839 125.394 217.325 125.137 216.997 124.789C216.672 124.438 216.51 123.999 216.51 123.472C216.51 123.041 216.631 122.66 216.873 122.328C217.118 121.997 217.451 121.737 217.872 121.548C218.296 121.359 218.777 121.264 219.314 121.264C220.069 121.264 220.663 121.43 221.093 121.761C221.528 122.093 221.836 122.53 222.018 123.074ZM227.125 129.159C226.389 129.159 225.755 128.997 225.221 128.672C224.691 128.344 224.281 127.886 223.993 127.3C223.708 126.71 223.566 126.024 223.566 125.241C223.566 124.459 223.708 123.77 223.993 123.173C224.281 122.573 224.682 122.106 225.196 121.771C225.713 121.433 226.316 121.264 227.006 121.264C227.404 121.264 227.796 121.33 228.184 121.463C228.572 121.596 228.925 121.811 229.243 122.109C229.561 122.404 229.815 122.795 230.004 123.283C230.193 123.77 230.287 124.37 230.287 125.082V125.58H224.401V124.565H229.094C229.094 124.134 229.008 123.75 228.835 123.412C228.666 123.074 228.424 122.807 228.11 122.612C227.798 122.416 227.43 122.318 227.006 122.318C226.539 122.318 226.134 122.434 225.793 122.666C225.455 122.895 225.195 123.193 225.012 123.561C224.83 123.929 224.739 124.323 224.739 124.744V125.42C224.739 125.997 224.838 126.486 225.037 126.887C225.239 127.285 225.519 127.588 225.877 127.797C226.235 128.002 226.651 128.105 227.125 128.105C227.433 128.105 227.712 128.062 227.96 127.976C228.212 127.886 228.429 127.754 228.612 127.578C228.794 127.399 228.935 127.177 229.034 126.912L230.168 127.23C230.048 127.615 229.848 127.953 229.566 128.244C229.285 128.533 228.936 128.758 228.522 128.92C228.108 129.08 227.642 129.159 227.125 129.159ZM234.955 129.159C234.319 129.159 233.757 128.998 233.27 128.677C232.783 128.352 232.402 127.895 232.127 127.305C231.852 126.711 231.714 126.01 231.714 125.202C231.714 124.4 231.852 123.704 232.127 123.114C232.402 122.524 232.785 122.068 233.275 121.746C233.766 121.425 234.332 121.264 234.975 121.264C235.472 121.264 235.865 121.347 236.154 121.513C236.445 121.675 236.667 121.861 236.82 122.07C236.976 122.275 237.097 122.444 237.183 122.577H237.282V118.818H238.455V129H237.322V127.827H237.183C237.097 127.966 236.974 128.142 236.815 128.354C236.656 128.562 236.429 128.75 236.134 128.915C235.839 129.078 235.446 129.159 234.955 129.159ZM235.115 128.105C235.585 128.105 235.983 127.982 236.308 127.737C236.633 127.489 236.879 127.146 237.048 126.708C237.218 126.267 237.302 125.759 237.302 125.182C237.302 124.612 237.219 124.113 237.053 123.685C236.888 123.254 236.642 122.92 236.318 122.681C235.993 122.439 235.592 122.318 235.115 122.318C234.617 122.318 234.203 122.446 233.872 122.701C233.544 122.953 233.297 123.296 233.131 123.73C232.968 124.161 232.887 124.645 232.887 125.182C232.887 125.725 232.97 126.219 233.136 126.663C233.305 127.104 233.553 127.455 233.882 127.717C234.213 127.976 234.624 128.105 235.115 128.105Z" fill="white" fill-opacity="0.95"/>
</g>
</svg>
