<svg width="1150" height="330" viewBox="0 0 1150 330" fill="none" xmlns="http://www.w3.org/2000/svg">
<rect width="1150" height="330" rx="16" fill="#1A1A1A"/>
<rect x="226.5" y="149" width="32" height="32" rx="16" fill="#932099"/>
<path d="M244.255 160.318V170.5H242.102V162.362H242.043L239.711 163.823V161.914L242.232 160.318H244.255Z" fill="white" fill-opacity="0.95"/>
<rect x="275" y="157.5" width="15" height="15" rx="1.5" stroke="white" stroke-opacity="0.5"/>
<path d="M307.926 163H306.693C306.62 162.645 306.493 162.334 306.31 162.065C306.131 161.797 305.913 161.571 305.654 161.389C305.399 161.204 305.116 161.064 304.804 160.972C304.492 160.879 304.168 160.832 303.83 160.832C303.213 160.832 302.655 160.988 302.154 161.3C301.657 161.611 301.261 162.07 300.966 162.677C300.674 163.283 300.528 164.027 300.528 164.909C300.528 165.791 300.674 166.535 300.966 167.141C301.261 167.748 301.657 168.207 302.154 168.518C302.655 168.83 303.213 168.986 303.83 168.986C304.168 168.986 304.492 168.939 304.804 168.847C305.116 168.754 305.399 168.616 305.654 168.434C305.913 168.248 306.131 168.021 306.31 167.753C306.493 167.481 306.62 167.17 306.693 166.818H307.926C307.833 167.339 307.664 167.804 307.419 168.215C307.174 168.626 306.869 168.976 306.504 169.264C306.14 169.549 305.73 169.766 305.276 169.915C304.826 170.065 304.343 170.139 303.83 170.139C302.961 170.139 302.189 169.927 301.513 169.503C300.837 169.079 300.305 168.475 299.917 167.693C299.529 166.911 299.335 165.983 299.335 164.909C299.335 163.835 299.529 162.907 299.917 162.125C300.305 161.343 300.837 160.74 301.513 160.315C302.189 159.891 302.961 159.679 303.83 159.679C304.343 159.679 304.826 159.754 305.276 159.903C305.73 160.052 306.14 160.271 306.504 160.559C306.869 160.844 307.174 161.192 307.419 161.603C307.664 162.011 307.833 162.476 307.926 163ZM310.933 165.406V170H309.759V159.818H310.933V163.557H311.032C311.211 163.162 311.48 162.849 311.838 162.617C312.199 162.382 312.679 162.264 313.279 162.264C313.8 162.264 314.255 162.369 314.646 162.577C315.038 162.783 315.341 163.099 315.556 163.527C315.775 163.951 315.884 164.491 315.884 165.148V170H314.711V165.227C314.711 164.621 314.554 164.152 314.239 163.82C313.927 163.486 313.495 163.318 312.941 163.318C312.557 163.318 312.212 163.399 311.907 163.562C311.606 163.724 311.367 163.961 311.191 164.273C311.019 164.584 310.933 164.962 310.933 165.406ZM321.233 170.159C320.497 170.159 319.862 169.997 319.328 169.672C318.798 169.344 318.389 168.886 318.1 168.3C317.815 167.71 317.673 167.024 317.673 166.241C317.673 165.459 317.815 164.77 318.1 164.173C318.389 163.573 318.79 163.106 319.304 162.771C319.821 162.433 320.424 162.264 321.113 162.264C321.511 162.264 321.904 162.33 322.292 162.463C322.679 162.596 323.032 162.811 323.35 163.109C323.669 163.404 323.922 163.795 324.111 164.283C324.3 164.77 324.395 165.37 324.395 166.082V166.58H318.508V165.565H323.201C323.201 165.134 323.115 164.75 322.943 164.412C322.774 164.074 322.532 163.807 322.217 163.612C321.905 163.416 321.538 163.318 321.113 163.318C320.646 163.318 320.242 163.434 319.9 163.666C319.562 163.895 319.302 164.193 319.12 164.561C318.937 164.929 318.846 165.323 318.846 165.744V166.42C318.846 166.997 318.946 167.486 319.145 167.887C319.347 168.285 319.627 168.588 319.985 168.797C320.343 169.002 320.759 169.105 321.233 169.105C321.541 169.105 321.819 169.062 322.068 168.976C322.32 168.886 322.537 168.754 322.719 168.578C322.901 168.399 323.042 168.177 323.142 167.912L324.275 168.23C324.156 168.615 323.955 168.953 323.674 169.244C323.392 169.533 323.044 169.758 322.63 169.92C322.215 170.08 321.75 170.159 321.233 170.159ZM329.282 170.159C328.566 170.159 327.949 169.99 327.432 169.652C326.915 169.314 326.517 168.848 326.239 168.255C325.961 167.662 325.821 166.984 325.821 166.222C325.821 165.446 325.964 164.762 326.249 164.168C326.537 163.572 326.938 163.106 327.452 162.771C327.969 162.433 328.572 162.264 329.262 162.264C329.799 162.264 330.283 162.364 330.713 162.562C331.144 162.761 331.497 163.04 331.772 163.398C332.047 163.756 332.218 164.173 332.284 164.651H331.111C331.022 164.303 330.823 163.994 330.515 163.726C330.21 163.454 329.799 163.318 329.282 163.318C328.824 163.318 328.423 163.437 328.078 163.676C327.737 163.911 327.47 164.245 327.278 164.675C327.089 165.103 326.995 165.605 326.995 166.182C326.995 166.772 327.087 167.286 327.273 167.723C327.462 168.161 327.727 168.5 328.069 168.742C328.413 168.984 328.818 169.105 329.282 169.105C329.587 169.105 329.863 169.052 330.112 168.946C330.36 168.84 330.571 168.688 330.743 168.489C330.916 168.29 331.038 168.051 331.111 167.773H332.284C332.218 168.223 332.054 168.629 331.792 168.991C331.534 169.349 331.191 169.634 330.763 169.846C330.339 170.055 329.845 170.159 329.282 170.159ZM335.093 167.216L335.074 165.764H335.312L338.653 162.364H340.105L336.545 165.963H336.446L335.093 167.216ZM334 170V159.818H335.173V170H334ZM338.852 170L335.869 166.222L336.704 165.406L340.343 170H338.852ZM341.774 170V159.818H342.947V163.577H343.047C343.133 163.444 343.252 163.275 343.405 163.07C343.56 162.861 343.782 162.675 344.071 162.513C344.363 162.347 344.757 162.264 345.254 162.264C345.897 162.264 346.464 162.425 346.954 162.746C347.445 163.068 347.828 163.524 348.103 164.114C348.378 164.704 348.515 165.4 348.515 166.202C348.515 167.01 348.378 167.711 348.103 168.305C347.828 168.895 347.447 169.352 346.959 169.677C346.472 169.998 345.91 170.159 345.274 170.159C344.783 170.159 344.391 170.078 344.096 169.915C343.801 169.75 343.574 169.562 343.415 169.354C343.256 169.142 343.133 168.966 343.047 168.827H342.907V170H341.774ZM342.927 166.182C342.927 166.759 343.012 167.267 343.181 167.708C343.35 168.146 343.597 168.489 343.922 168.737C344.247 168.982 344.644 169.105 345.115 169.105C345.605 169.105 346.015 168.976 346.343 168.717C346.674 168.455 346.923 168.104 347.089 167.663C347.258 167.219 347.342 166.725 347.342 166.182C347.342 165.645 347.259 165.161 347.094 164.73C346.931 164.296 346.684 163.953 346.353 163.701C346.025 163.446 345.612 163.318 345.115 163.318C344.638 163.318 344.237 163.439 343.912 163.681C343.587 163.92 343.342 164.254 343.176 164.685C343.01 165.113 342.927 165.612 342.927 166.182ZM353.412 170.159C352.723 170.159 352.118 169.995 351.598 169.667C351.081 169.339 350.676 168.88 350.385 168.29C350.096 167.7 349.952 167.01 349.952 166.222C349.952 165.426 350.096 164.732 350.385 164.138C350.676 163.545 351.081 163.085 351.598 162.756C352.118 162.428 352.723 162.264 353.412 162.264C354.102 162.264 354.705 162.428 355.222 162.756C355.742 163.085 356.147 163.545 356.435 164.138C356.727 164.732 356.873 165.426 356.873 166.222C356.873 167.01 356.727 167.7 356.435 168.29C356.147 168.88 355.742 169.339 355.222 169.667C354.705 169.995 354.102 170.159 353.412 170.159ZM353.412 169.105C353.936 169.105 354.367 168.971 354.705 168.702C355.043 168.434 355.293 168.081 355.456 167.643C355.618 167.206 355.699 166.732 355.699 166.222C355.699 165.711 355.618 165.236 355.456 164.795C355.293 164.354 355.043 163.998 354.705 163.726C354.367 163.454 353.936 163.318 353.412 163.318C352.889 163.318 352.458 163.454 352.12 163.726C351.782 163.998 351.532 164.354 351.369 164.795C351.207 165.236 351.126 165.711 351.126 166.222C351.126 166.732 351.207 167.206 351.369 167.643C351.532 168.081 351.782 168.434 352.12 168.702C352.458 168.971 352.889 169.105 353.412 169.105ZM359.224 162.364L361.054 165.486L362.883 162.364H364.236L361.77 166.182L364.236 170H362.883L361.054 167.037L359.224 170H357.872L360.298 166.182L357.872 162.364H359.224ZM370.006 170V159.818H371.239V168.906H375.972V170H370.006ZM379.969 170.179C379.486 170.179 379.046 170.088 378.652 169.906C378.258 169.72 377.944 169.453 377.712 169.105C377.48 168.754 377.364 168.33 377.364 167.832C377.364 167.395 377.451 167.04 377.623 166.768C377.795 166.493 378.026 166.278 378.314 166.122C378.602 165.966 378.92 165.85 379.268 165.774C379.62 165.695 379.973 165.632 380.327 165.585C380.791 165.526 381.168 165.481 381.456 165.451C381.748 165.418 381.96 165.363 382.092 165.287C382.228 165.211 382.296 165.078 382.296 164.889V164.849C382.296 164.359 382.162 163.978 381.893 163.706C381.628 163.434 381.226 163.298 380.685 163.298C380.125 163.298 379.686 163.421 379.368 163.666C379.05 163.911 378.826 164.173 378.697 164.452L377.583 164.054C377.782 163.59 378.047 163.229 378.379 162.97C378.713 162.708 379.078 162.526 379.472 162.423C379.87 162.317 380.261 162.264 380.646 162.264C380.891 162.264 381.173 162.294 381.491 162.354C381.812 162.41 382.122 162.528 382.42 162.707C382.722 162.886 382.972 163.156 383.171 163.517C383.37 163.878 383.469 164.362 383.469 164.969V170H382.296V168.966H382.237C382.157 169.132 382.024 169.309 381.839 169.498C381.653 169.687 381.406 169.848 381.098 169.98C380.79 170.113 380.414 170.179 379.969 170.179ZM380.148 169.125C380.612 169.125 381.004 169.034 381.322 168.852C381.643 168.669 381.885 168.434 382.048 168.146C382.213 167.857 382.296 167.554 382.296 167.236V166.162C382.246 166.222 382.137 166.276 381.968 166.326C381.802 166.372 381.61 166.414 381.391 166.45C381.176 166.483 380.965 166.513 380.76 166.54C380.558 166.563 380.394 166.583 380.268 166.599C379.963 166.639 379.678 166.704 379.413 166.793C379.151 166.879 378.939 167.01 378.776 167.186C378.617 167.358 378.538 167.594 378.538 167.892C378.538 168.3 378.688 168.608 378.99 168.817C379.295 169.022 379.681 169.125 380.148 169.125ZM385.77 170V159.818H386.943V163.577H387.043C387.129 163.444 387.248 163.275 387.401 163.07C387.557 162.861 387.779 162.675 388.067 162.513C388.359 162.347 388.753 162.264 389.25 162.264C389.893 162.264 390.46 162.425 390.95 162.746C391.441 163.068 391.824 163.524 392.099 164.114C392.374 164.704 392.512 165.4 392.512 166.202C392.512 167.01 392.374 167.711 392.099 168.305C391.824 168.895 391.443 169.352 390.955 169.677C390.468 169.998 389.906 170.159 389.27 170.159C388.78 170.159 388.387 170.078 388.092 169.915C387.797 169.75 387.57 169.562 387.411 169.354C387.252 169.142 387.129 168.966 387.043 168.827H386.904V170H385.77ZM386.923 166.182C386.923 166.759 387.008 167.267 387.177 167.708C387.346 168.146 387.593 168.489 387.918 168.737C388.243 168.982 388.64 169.105 389.111 169.105C389.602 169.105 390.011 168.976 390.339 168.717C390.67 168.455 390.919 168.104 391.085 167.663C391.254 167.219 391.338 166.725 391.338 166.182C391.338 165.645 391.255 165.161 391.09 164.73C390.927 164.296 390.68 163.953 390.349 163.701C390.021 163.446 389.608 163.318 389.111 163.318C388.634 163.318 388.233 163.439 387.908 163.681C387.583 163.92 387.338 164.254 387.172 164.685C387.006 165.113 386.923 165.612 386.923 166.182ZM397.508 170.159C396.772 170.159 396.137 169.997 395.604 169.672C395.074 169.344 394.664 168.886 394.376 168.3C394.091 167.71 393.948 167.024 393.948 166.241C393.948 165.459 394.091 164.77 394.376 164.173C394.664 163.573 395.065 163.106 395.579 162.771C396.096 162.433 396.699 162.264 397.389 162.264C397.786 162.264 398.179 162.33 398.567 162.463C398.955 162.596 399.308 162.811 399.626 163.109C399.944 163.404 400.198 163.795 400.387 164.283C400.575 164.77 400.67 165.37 400.67 166.082V166.58H394.784V165.565H399.477C399.477 165.134 399.391 164.75 399.218 164.412C399.049 164.074 398.807 163.807 398.492 163.612C398.181 163.416 397.813 163.318 397.389 163.318C396.921 163.318 396.517 163.434 396.176 163.666C395.838 163.895 395.577 164.193 395.395 164.561C395.213 164.929 395.122 165.323 395.122 165.744V166.42C395.122 166.997 395.221 167.486 395.42 167.887C395.622 168.285 395.902 168.588 396.26 168.797C396.618 169.002 397.034 169.105 397.508 169.105C397.816 169.105 398.095 169.062 398.343 168.976C398.595 168.886 398.812 168.754 398.994 168.578C399.177 168.399 399.318 168.177 399.417 167.912L400.551 168.23C400.431 168.615 400.231 168.953 399.949 169.244C399.667 169.533 399.319 169.758 398.905 169.92C398.491 170.08 398.025 170.159 397.508 170.159ZM403.628 159.818V170H402.455V159.818H403.628Z" fill="white" fill-opacity="0.95"/>
<rect x="485.5" y="149" width="32" height="32" rx="16" fill="#932099"/>
<path d="M497.825 170.5V168.949L501.45 165.593C501.758 165.295 502.016 165.026 502.225 164.788C502.437 164.549 502.598 164.315 502.707 164.087C502.817 163.855 502.871 163.604 502.871 163.336C502.871 163.038 502.804 162.781 502.668 162.565C502.532 162.347 502.346 162.179 502.111 162.063C501.875 161.944 501.609 161.884 501.31 161.884C500.999 161.884 500.727 161.947 500.495 162.073C500.263 162.199 500.084 162.38 499.958 162.615C499.832 162.85 499.769 163.13 499.769 163.455H497.726C497.726 162.789 497.877 162.211 498.178 161.72C498.48 161.23 498.902 160.85 499.446 160.582C499.99 160.313 500.616 160.179 501.325 160.179C502.054 160.179 502.689 160.308 503.229 160.567C503.773 160.822 504.196 161.177 504.497 161.631C504.799 162.085 504.95 162.605 504.95 163.192C504.95 163.576 504.873 163.956 504.721 164.33C504.572 164.705 504.305 165.121 503.92 165.578C503.536 166.032 502.994 166.577 502.295 167.214L500.808 168.67V168.74H505.084V170.5H497.825Z" fill="white" fill-opacity="0.95"/>
<rect x="533.5" y="157" width="16" height="16" rx="2" fill="#64B4FA"/>
<path d="M539.1 169.1C539.034 169.1 538.969 169.087 538.908 169.062C538.847 169.037 538.792 168.999 538.746 168.953L535.146 165.335C535.099 165.288 535.063 165.233 535.038 165.172C535.013 165.112 535 165.047 535 164.981C535 164.915 535.013 164.85 535.039 164.79C535.064 164.729 535.101 164.674 535.148 164.628C535.194 164.582 535.249 164.545 535.31 164.52C535.371 164.495 535.436 164.482 535.502 164.482C535.567 164.483 535.632 164.496 535.693 164.521C535.753 164.546 535.808 164.583 535.855 164.63L539.127 167.918L547.175 161.021C547.276 160.935 547.406 160.892 547.538 160.902C547.671 160.912 547.793 160.974 547.88 161.075C547.966 161.176 548.009 161.306 547.998 161.439C547.988 161.571 547.926 161.693 547.825 161.78L539.425 168.979C539.335 169.057 539.22 169.1 539.1 169.1Z" fill="black" fill-opacity="0.95"/>
<path d="M566.926 163H565.693C565.62 162.645 565.493 162.334 565.31 162.065C565.131 161.797 564.913 161.571 564.654 161.389C564.399 161.204 564.116 161.064 563.804 160.972C563.492 160.879 563.168 160.832 562.83 160.832C562.213 160.832 561.655 160.988 561.154 161.3C560.657 161.611 560.261 162.07 559.966 162.677C559.674 163.283 559.528 164.027 559.528 164.909C559.528 165.791 559.674 166.535 559.966 167.141C560.261 167.748 560.657 168.207 561.154 168.518C561.655 168.83 562.213 168.986 562.83 168.986C563.168 168.986 563.492 168.939 563.804 168.847C564.116 168.754 564.399 168.616 564.654 168.434C564.913 168.248 565.131 168.021 565.31 167.753C565.493 167.481 565.62 167.17 565.693 166.818H566.926C566.833 167.339 566.664 167.804 566.419 168.215C566.174 168.626 565.869 168.976 565.504 169.264C565.14 169.549 564.73 169.766 564.276 169.915C563.826 170.065 563.343 170.139 562.83 170.139C561.961 170.139 561.189 169.927 560.513 169.503C559.837 169.079 559.305 168.475 558.917 167.693C558.529 166.911 558.335 165.983 558.335 164.909C558.335 163.835 558.529 162.907 558.917 162.125C559.305 161.343 559.837 160.74 560.513 160.315C561.189 159.891 561.961 159.679 562.83 159.679C563.343 159.679 563.826 159.754 564.276 159.903C564.73 160.052 565.14 160.271 565.504 160.559C565.869 160.844 566.174 161.192 566.419 161.603C566.664 162.011 566.833 162.476 566.926 163ZM569.933 165.406V170H568.759V159.818H569.933V163.557H570.032C570.211 163.162 570.48 162.849 570.838 162.617C571.199 162.382 571.679 162.264 572.279 162.264C572.8 162.264 573.255 162.369 573.646 162.577C574.038 162.783 574.341 163.099 574.556 163.527C574.775 163.951 574.884 164.491 574.884 165.148V170H573.711V165.227C573.711 164.621 573.554 164.152 573.239 163.82C572.927 163.486 572.495 163.318 571.941 163.318C571.557 163.318 571.212 163.399 570.907 163.562C570.606 163.724 570.367 163.961 570.191 164.273C570.019 164.584 569.933 164.962 569.933 165.406ZM580.233 170.159C579.497 170.159 578.862 169.997 578.328 169.672C577.798 169.344 577.389 168.886 577.1 168.3C576.815 167.71 576.673 167.024 576.673 166.241C576.673 165.459 576.815 164.77 577.1 164.173C577.389 163.573 577.79 163.106 578.304 162.771C578.821 162.433 579.424 162.264 580.113 162.264C580.511 162.264 580.904 162.33 581.292 162.463C581.679 162.596 582.032 162.811 582.35 163.109C582.669 163.404 582.922 163.795 583.111 164.283C583.3 164.77 583.395 165.37 583.395 166.082V166.58H577.508V165.565H582.201C582.201 165.134 582.115 164.75 581.943 164.412C581.774 164.074 581.532 163.807 581.217 163.612C580.905 163.416 580.538 163.318 580.113 163.318C579.646 163.318 579.242 163.434 578.9 163.666C578.562 163.895 578.302 164.193 578.12 164.561C577.937 164.929 577.846 165.323 577.846 165.744V166.42C577.846 166.997 577.946 167.486 578.145 167.887C578.347 168.285 578.627 168.588 578.985 168.797C579.343 169.002 579.759 169.105 580.233 169.105C580.541 169.105 580.819 169.062 581.068 168.976C581.32 168.886 581.537 168.754 581.719 168.578C581.901 168.399 582.042 168.177 582.142 167.912L583.275 168.23C583.156 168.615 582.955 168.953 582.674 169.244C582.392 169.533 582.044 169.758 581.63 169.92C581.215 170.08 580.75 170.159 580.233 170.159ZM588.282 170.159C587.566 170.159 586.949 169.99 586.432 169.652C585.915 169.314 585.517 168.848 585.239 168.255C584.961 167.662 584.821 166.984 584.821 166.222C584.821 165.446 584.964 164.762 585.249 164.168C585.537 163.572 585.938 163.106 586.452 162.771C586.969 162.433 587.572 162.264 588.262 162.264C588.799 162.264 589.283 162.364 589.713 162.562C590.144 162.761 590.497 163.04 590.772 163.398C591.047 163.756 591.218 164.173 591.284 164.651H590.111C590.022 164.303 589.823 163.994 589.515 163.726C589.21 163.454 588.799 163.318 588.282 163.318C587.824 163.318 587.423 163.437 587.078 163.676C586.737 163.911 586.47 164.245 586.278 164.675C586.089 165.103 585.995 165.605 585.995 166.182C585.995 166.772 586.087 167.286 586.273 167.723C586.462 168.161 586.727 168.5 587.069 168.742C587.413 168.984 587.818 169.105 588.282 169.105C588.587 169.105 588.863 169.052 589.112 168.946C589.36 168.84 589.571 168.688 589.743 168.489C589.916 168.29 590.038 168.051 590.111 167.773H591.284C591.218 168.223 591.054 168.629 590.792 168.991C590.534 169.349 590.191 169.634 589.763 169.846C589.339 170.055 588.845 170.159 588.282 170.159ZM594.093 167.216L594.074 165.764H594.312L597.653 162.364H599.105L595.545 165.963H595.446L594.093 167.216ZM593 170V159.818H594.173V170H593ZM597.852 170L594.869 166.222L595.704 165.406L599.343 170H597.852ZM600.774 170V159.818H601.947V163.577H602.047C602.133 163.444 602.252 163.275 602.405 163.07C602.56 162.861 602.782 162.675 603.071 162.513C603.363 162.347 603.757 162.264 604.254 162.264C604.897 162.264 605.464 162.425 605.954 162.746C606.445 163.068 606.828 163.524 607.103 164.114C607.378 164.704 607.515 165.4 607.515 166.202C607.515 167.01 607.378 167.711 607.103 168.305C606.828 168.895 606.447 169.352 605.959 169.677C605.472 169.998 604.91 170.159 604.274 170.159C603.783 170.159 603.391 170.078 603.096 169.915C602.801 169.75 602.574 169.562 602.415 169.354C602.256 169.142 602.133 168.966 602.047 168.827H601.907V170H600.774ZM601.927 166.182C601.927 166.759 602.012 167.267 602.181 167.708C602.35 168.146 602.597 168.489 602.922 168.737C603.247 168.982 603.644 169.105 604.115 169.105C604.605 169.105 605.015 168.976 605.343 168.717C605.674 168.455 605.923 168.104 606.089 167.663C606.258 167.219 606.342 166.725 606.342 166.182C606.342 165.645 606.259 165.161 606.094 164.73C605.931 164.296 605.684 163.953 605.353 163.701C605.025 163.446 604.612 163.318 604.115 163.318C603.638 163.318 603.237 163.439 602.912 163.681C602.587 163.92 602.342 164.254 602.176 164.685C602.01 165.113 601.927 165.612 601.927 166.182ZM612.412 170.159C611.723 170.159 611.118 169.995 610.598 169.667C610.081 169.339 609.676 168.88 609.385 168.29C609.096 167.7 608.952 167.01 608.952 166.222C608.952 165.426 609.096 164.732 609.385 164.138C609.676 163.545 610.081 163.085 610.598 162.756C611.118 162.428 611.723 162.264 612.412 162.264C613.102 162.264 613.705 162.428 614.222 162.756C614.742 163.085 615.147 163.545 615.435 164.138C615.727 164.732 615.873 165.426 615.873 166.222C615.873 167.01 615.727 167.7 615.435 168.29C615.147 168.88 614.742 169.339 614.222 169.667C613.705 169.995 613.102 170.159 612.412 170.159ZM612.412 169.105C612.936 169.105 613.367 168.971 613.705 168.702C614.043 168.434 614.293 168.081 614.456 167.643C614.618 167.206 614.699 166.732 614.699 166.222C614.699 165.711 614.618 165.236 614.456 164.795C614.293 164.354 614.043 163.998 613.705 163.726C613.367 163.454 612.936 163.318 612.412 163.318C611.889 163.318 611.458 163.454 611.12 163.726C610.782 163.998 610.532 164.354 610.369 164.795C610.207 165.236 610.126 165.711 610.126 166.222C610.126 166.732 610.207 167.206 610.369 167.643C610.532 168.081 610.782 168.434 611.12 168.702C611.458 168.971 611.889 169.105 612.412 169.105ZM618.224 162.364L620.054 165.486L621.883 162.364H623.236L620.77 166.182L623.236 170H621.883L620.054 167.037L618.224 170H616.872L619.298 166.182L616.872 162.364H618.224ZM629.006 170V159.818H630.239V168.906H634.972V170H629.006ZM638.969 170.179C638.486 170.179 638.046 170.088 637.652 169.906C637.258 169.72 636.944 169.453 636.712 169.105C636.48 168.754 636.364 168.33 636.364 167.832C636.364 167.395 636.451 167.04 636.623 166.768C636.795 166.493 637.026 166.278 637.314 166.122C637.602 165.966 637.92 165.85 638.268 165.774C638.62 165.695 638.973 165.632 639.327 165.585C639.791 165.526 640.168 165.481 640.456 165.451C640.748 165.418 640.96 165.363 641.092 165.287C641.228 165.211 641.296 165.078 641.296 164.889V164.849C641.296 164.359 641.162 163.978 640.893 163.706C640.628 163.434 640.226 163.298 639.685 163.298C639.125 163.298 638.686 163.421 638.368 163.666C638.05 163.911 637.826 164.173 637.697 164.452L636.583 164.054C636.782 163.59 637.047 163.229 637.379 162.97C637.713 162.708 638.078 162.526 638.472 162.423C638.87 162.317 639.261 162.264 639.646 162.264C639.891 162.264 640.173 162.294 640.491 162.354C640.812 162.41 641.122 162.528 641.42 162.707C641.722 162.886 641.972 163.156 642.171 163.517C642.37 163.878 642.469 164.362 642.469 164.969V170H641.296V168.966H641.237C641.157 169.132 641.024 169.309 640.839 169.498C640.653 169.687 640.406 169.848 640.098 169.98C639.79 170.113 639.414 170.179 638.969 170.179ZM639.148 169.125C639.612 169.125 640.004 169.034 640.322 168.852C640.643 168.669 640.885 168.434 641.048 168.146C641.213 167.857 641.296 167.554 641.296 167.236V166.162C641.246 166.222 641.137 166.276 640.968 166.326C640.802 166.372 640.61 166.414 640.391 166.45C640.176 166.483 639.965 166.513 639.76 166.54C639.558 166.563 639.394 166.583 639.268 166.599C638.963 166.639 638.678 166.704 638.413 166.793C638.151 166.879 637.939 167.01 637.776 167.186C637.617 167.358 637.538 167.594 637.538 167.892C637.538 168.3 637.688 168.608 637.99 168.817C638.295 169.022 638.681 169.125 639.148 169.125ZM644.77 170V159.818H645.943V163.577H646.043C646.129 163.444 646.248 163.275 646.401 163.07C646.557 162.861 646.779 162.675 647.067 162.513C647.359 162.347 647.753 162.264 648.25 162.264C648.893 162.264 649.46 162.425 649.95 162.746C650.441 163.068 650.824 163.524 651.099 164.114C651.374 164.704 651.512 165.4 651.512 166.202C651.512 167.01 651.374 167.711 651.099 168.305C650.824 168.895 650.443 169.352 649.955 169.677C649.468 169.998 648.906 170.159 648.27 170.159C647.78 170.159 647.387 170.078 647.092 169.915C646.797 169.75 646.57 169.562 646.411 169.354C646.252 169.142 646.129 168.966 646.043 168.827H645.904V170H644.77ZM645.923 166.182C645.923 166.759 646.008 167.267 646.177 167.708C646.346 168.146 646.593 168.489 646.918 168.737C647.243 168.982 647.64 169.105 648.111 169.105C648.602 169.105 649.011 168.976 649.339 168.717C649.67 168.455 649.919 168.104 650.085 167.663C650.254 167.219 650.338 166.725 650.338 166.182C650.338 165.645 650.255 165.161 650.09 164.73C649.927 164.296 649.68 163.953 649.349 163.701C649.021 163.446 648.608 163.318 648.111 163.318C647.634 163.318 647.233 163.439 646.908 163.681C646.583 163.92 646.338 164.254 646.172 164.685C646.006 165.113 645.923 165.612 645.923 166.182ZM656.508 170.159C655.772 170.159 655.137 169.997 654.604 169.672C654.074 169.344 653.664 168.886 653.376 168.3C653.091 167.71 652.948 167.024 652.948 166.241C652.948 165.459 653.091 164.77 653.376 164.173C653.664 163.573 654.065 163.106 654.579 162.771C655.096 162.433 655.699 162.264 656.389 162.264C656.786 162.264 657.179 162.33 657.567 162.463C657.955 162.596 658.308 162.811 658.626 163.109C658.944 163.404 659.198 163.795 659.387 164.283C659.575 164.77 659.67 165.37 659.67 166.082V166.58H653.784V165.565H658.477C658.477 165.134 658.391 164.75 658.218 164.412C658.049 164.074 657.807 163.807 657.492 163.612C657.181 163.416 656.813 163.318 656.389 163.318C655.921 163.318 655.517 163.434 655.176 163.666C654.838 163.895 654.577 164.193 654.395 164.561C654.213 164.929 654.122 165.323 654.122 165.744V166.42C654.122 166.997 654.221 167.486 654.42 167.887C654.622 168.285 654.902 168.588 655.26 168.797C655.618 169.002 656.034 169.105 656.508 169.105C656.816 169.105 657.095 169.062 657.343 168.976C657.595 168.886 657.812 168.754 657.994 168.578C658.177 168.399 658.318 168.177 658.417 167.912L659.551 168.23C659.431 168.615 659.231 168.953 658.949 169.244C658.667 169.533 658.319 169.758 657.905 169.92C657.491 170.08 657.025 170.159 656.508 170.159ZM662.628 159.818V170H661.455V159.818H662.628Z" fill="white" fill-opacity="0.95"/>
<rect x="744.5" y="149" width="32" height="32" rx="16" fill="#932099"/>
<path d="M760.089 170.639C759.346 170.639 758.685 170.512 758.105 170.256C757.528 169.998 757.073 169.643 756.738 169.192C756.406 168.738 756.236 168.215 756.226 167.621H758.393C758.407 167.87 758.488 168.089 758.637 168.278C758.79 168.463 758.992 168.607 759.244 168.71C759.496 168.813 759.779 168.864 760.094 168.864C760.422 168.864 760.712 168.806 760.964 168.69C761.216 168.574 761.413 168.414 761.555 168.208C761.698 168.003 761.769 167.766 761.769 167.497C761.769 167.225 761.693 166.985 761.54 166.776C761.391 166.564 761.176 166.398 760.894 166.279C760.616 166.16 760.284 166.1 759.9 166.1H758.95V164.519H759.9C760.225 164.519 760.511 164.463 760.76 164.35C761.012 164.237 761.207 164.082 761.347 163.883C761.486 163.681 761.555 163.445 761.555 163.177C761.555 162.922 761.494 162.698 761.371 162.506C761.252 162.31 761.083 162.158 760.864 162.048C760.649 161.939 760.397 161.884 760.109 161.884C759.817 161.884 759.55 161.937 759.308 162.043C759.066 162.146 758.872 162.294 758.727 162.486C758.581 162.678 758.503 162.903 758.493 163.162H756.43C756.44 162.575 756.607 162.058 756.932 161.611C757.257 161.163 757.694 160.814 758.244 160.562C758.798 160.307 759.423 160.179 760.119 160.179C760.821 160.179 761.436 160.307 761.963 160.562C762.49 160.817 762.899 161.162 763.191 161.596C763.486 162.027 763.632 162.511 763.629 163.048C763.632 163.618 763.455 164.093 763.097 164.474C762.742 164.856 762.28 165.098 761.71 165.2V165.28C762.459 165.376 763.029 165.636 763.42 166.06C763.814 166.481 764.01 167.008 764.006 167.641C764.01 168.221 763.842 168.737 763.504 169.188C763.17 169.638 762.707 169.993 762.117 170.251C761.527 170.51 760.851 170.639 760.089 170.639Z" fill="white" fill-opacity="0.95"/>
<rect x="792.5" y="157" width="16" height="16" rx="2" fill="#64B4FA"/>
<path d="M805.5 165.5H795.5C795.367 165.5 795.24 165.447 795.146 165.353C795.053 165.26 795 165.132 795 165C795 164.867 795.053 164.74 795.146 164.646C795.24 164.552 795.367 164.5 795.5 164.5H805.5C805.633 164.5 805.76 164.552 805.854 164.646C805.947 164.74 806 164.867 806 165C806 165.132 805.947 165.26 805.854 165.353C805.76 165.447 805.633 165.5 805.5 165.5Z" fill="black" fill-opacity="0.95"/>
<path d="M825.926 163H824.693C824.62 162.645 824.493 162.334 824.31 162.065C824.131 161.797 823.913 161.571 823.654 161.389C823.399 161.204 823.116 161.064 822.804 160.972C822.492 160.879 822.168 160.832 821.83 160.832C821.213 160.832 820.655 160.988 820.154 161.3C819.657 161.611 819.261 162.07 818.966 162.677C818.674 163.283 818.528 164.027 818.528 164.909C818.528 165.791 818.674 166.535 818.966 167.141C819.261 167.748 819.657 168.207 820.154 168.518C820.655 168.83 821.213 168.986 821.83 168.986C822.168 168.986 822.492 168.939 822.804 168.847C823.116 168.754 823.399 168.616 823.654 168.434C823.913 168.248 824.131 168.021 824.31 167.753C824.493 167.481 824.62 167.17 824.693 166.818H825.926C825.833 167.339 825.664 167.804 825.419 168.215C825.174 168.626 824.869 168.976 824.504 169.264C824.14 169.549 823.73 169.766 823.276 169.915C822.826 170.065 822.343 170.139 821.83 170.139C820.961 170.139 820.189 169.927 819.513 169.503C818.837 169.079 818.305 168.475 817.917 167.693C817.529 166.911 817.335 165.983 817.335 164.909C817.335 163.835 817.529 162.907 817.917 162.125C818.305 161.343 818.837 160.74 819.513 160.315C820.189 159.891 820.961 159.679 821.83 159.679C822.343 159.679 822.826 159.754 823.276 159.903C823.73 160.052 824.14 160.271 824.504 160.559C824.869 160.844 825.174 161.192 825.419 161.603C825.664 162.011 825.833 162.476 825.926 163ZM828.933 165.406V170H827.759V159.818H828.933V163.557H829.032C829.211 163.162 829.48 162.849 829.838 162.617C830.199 162.382 830.679 162.264 831.279 162.264C831.8 162.264 832.255 162.369 832.646 162.577C833.038 162.783 833.341 163.099 833.556 163.527C833.775 163.951 833.884 164.491 833.884 165.148V170H832.711V165.227C832.711 164.621 832.554 164.152 832.239 163.82C831.927 163.486 831.495 163.318 830.941 163.318C830.557 163.318 830.212 163.399 829.907 163.562C829.606 163.724 829.367 163.961 829.191 164.273C829.019 164.584 828.933 164.962 828.933 165.406ZM839.233 170.159C838.497 170.159 837.862 169.997 837.328 169.672C836.798 169.344 836.389 168.886 836.1 168.3C835.815 167.71 835.673 167.024 835.673 166.241C835.673 165.459 835.815 164.77 836.1 164.173C836.389 163.573 836.79 163.106 837.304 162.771C837.821 162.433 838.424 162.264 839.113 162.264C839.511 162.264 839.904 162.33 840.292 162.463C840.679 162.596 841.032 162.811 841.35 163.109C841.669 163.404 841.922 163.795 842.111 164.283C842.3 164.77 842.395 165.37 842.395 166.082V166.58H836.508V165.565H841.201C841.201 165.134 841.115 164.75 840.943 164.412C840.774 164.074 840.532 163.807 840.217 163.612C839.905 163.416 839.538 163.318 839.113 163.318C838.646 163.318 838.242 163.434 837.9 163.666C837.562 163.895 837.302 164.193 837.12 164.561C836.937 164.929 836.846 165.323 836.846 165.744V166.42C836.846 166.997 836.946 167.486 837.145 167.887C837.347 168.285 837.627 168.588 837.985 168.797C838.343 169.002 838.759 169.105 839.233 169.105C839.541 169.105 839.819 169.062 840.068 168.976C840.32 168.886 840.537 168.754 840.719 168.578C840.901 168.399 841.042 168.177 841.142 167.912L842.275 168.23C842.156 168.615 841.955 168.953 841.674 169.244C841.392 169.533 841.044 169.758 840.63 169.92C840.215 170.08 839.75 170.159 839.233 170.159ZM847.282 170.159C846.566 170.159 845.949 169.99 845.432 169.652C844.915 169.314 844.517 168.848 844.239 168.255C843.961 167.662 843.821 166.984 843.821 166.222C843.821 165.446 843.964 164.762 844.249 164.168C844.537 163.572 844.938 163.106 845.452 162.771C845.969 162.433 846.572 162.264 847.262 162.264C847.799 162.264 848.283 162.364 848.713 162.562C849.144 162.761 849.497 163.04 849.772 163.398C850.047 163.756 850.218 164.173 850.284 164.651H849.111C849.022 164.303 848.823 163.994 848.515 163.726C848.21 163.454 847.799 163.318 847.282 163.318C846.824 163.318 846.423 163.437 846.078 163.676C845.737 163.911 845.47 164.245 845.278 164.675C845.089 165.103 844.995 165.605 844.995 166.182C844.995 166.772 845.087 167.286 845.273 167.723C845.462 168.161 845.727 168.5 846.069 168.742C846.413 168.984 846.818 169.105 847.282 169.105C847.587 169.105 847.863 169.052 848.112 168.946C848.36 168.84 848.571 168.688 848.743 168.489C848.916 168.29 849.038 168.051 849.111 167.773H850.284C850.218 168.223 850.054 168.629 849.792 168.991C849.534 169.349 849.191 169.634 848.763 169.846C848.339 170.055 847.845 170.159 847.282 170.159ZM853.093 167.216L853.074 165.764H853.312L856.653 162.364H858.105L854.545 165.963H854.446L853.093 167.216ZM852 170V159.818H853.173V170H852ZM856.852 170L853.869 166.222L854.704 165.406L858.343 170H856.852ZM859.774 170V159.818H860.947V163.577H861.047C861.133 163.444 861.252 163.275 861.405 163.07C861.56 162.861 861.782 162.675 862.071 162.513C862.363 162.347 862.757 162.264 863.254 162.264C863.897 162.264 864.464 162.425 864.954 162.746C865.445 163.068 865.828 163.524 866.103 164.114C866.378 164.704 866.515 165.4 866.515 166.202C866.515 167.01 866.378 167.711 866.103 168.305C865.828 168.895 865.447 169.352 864.959 169.677C864.472 169.998 863.91 170.159 863.274 170.159C862.783 170.159 862.391 170.078 862.096 169.915C861.801 169.75 861.574 169.562 861.415 169.354C861.256 169.142 861.133 168.966 861.047 168.827H860.907V170H859.774ZM860.927 166.182C860.927 166.759 861.012 167.267 861.181 167.708C861.35 168.146 861.597 168.489 861.922 168.737C862.247 168.982 862.644 169.105 863.115 169.105C863.605 169.105 864.015 168.976 864.343 168.717C864.674 168.455 864.923 168.104 865.089 167.663C865.258 167.219 865.342 166.725 865.342 166.182C865.342 165.645 865.259 165.161 865.094 164.73C864.931 164.296 864.684 163.953 864.353 163.701C864.025 163.446 863.612 163.318 863.115 163.318C862.638 163.318 862.237 163.439 861.912 163.681C861.587 163.92 861.342 164.254 861.176 164.685C861.01 165.113 860.927 165.612 860.927 166.182ZM871.412 170.159C870.723 170.159 870.118 169.995 869.598 169.667C869.081 169.339 868.676 168.88 868.385 168.29C868.096 167.7 867.952 167.01 867.952 166.222C867.952 165.426 868.096 164.732 868.385 164.138C868.676 163.545 869.081 163.085 869.598 162.756C870.118 162.428 870.723 162.264 871.412 162.264C872.102 162.264 872.705 162.428 873.222 162.756C873.742 163.085 874.147 163.545 874.435 164.138C874.727 164.732 874.873 165.426 874.873 166.222C874.873 167.01 874.727 167.7 874.435 168.29C874.147 168.88 873.742 169.339 873.222 169.667C872.705 169.995 872.102 170.159 871.412 170.159ZM871.412 169.105C871.936 169.105 872.367 168.971 872.705 168.702C873.043 168.434 873.293 168.081 873.456 167.643C873.618 167.206 873.699 166.732 873.699 166.222C873.699 165.711 873.618 165.236 873.456 164.795C873.293 164.354 873.043 163.998 872.705 163.726C872.367 163.454 871.936 163.318 871.412 163.318C870.889 163.318 870.458 163.454 870.12 163.726C869.782 163.998 869.532 164.354 869.369 164.795C869.207 165.236 869.126 165.711 869.126 166.222C869.126 166.732 869.207 167.206 869.369 167.643C869.532 168.081 869.782 168.434 870.12 168.702C870.458 168.971 870.889 169.105 871.412 169.105ZM877.224 162.364L879.054 165.486L880.883 162.364H882.236L879.77 166.182L882.236 170H880.883L879.054 167.037L877.224 170H875.872L878.298 166.182L875.872 162.364H877.224ZM888.006 170V159.818H889.239V168.906H893.972V170H888.006ZM897.969 170.179C897.486 170.179 897.046 170.088 896.652 169.906C896.258 169.72 895.944 169.453 895.712 169.105C895.48 168.754 895.364 168.33 895.364 167.832C895.364 167.395 895.451 167.04 895.623 166.768C895.795 166.493 896.026 166.278 896.314 166.122C896.602 165.966 896.92 165.85 897.268 165.774C897.62 165.695 897.973 165.632 898.327 165.585C898.791 165.526 899.168 165.481 899.456 165.451C899.748 165.418 899.96 165.363 900.092 165.287C900.228 165.211 900.296 165.078 900.296 164.889V164.849C900.296 164.359 900.162 163.978 899.893 163.706C899.628 163.434 899.226 163.298 898.685 163.298C898.125 163.298 897.686 163.421 897.368 163.666C897.05 163.911 896.826 164.173 896.697 164.452L895.583 164.054C895.782 163.59 896.047 163.229 896.379 162.97C896.713 162.708 897.078 162.526 897.472 162.423C897.87 162.317 898.261 162.264 898.646 162.264C898.891 162.264 899.173 162.294 899.491 162.354C899.812 162.41 900.122 162.528 900.42 162.707C900.722 162.886 900.972 163.156 901.171 163.517C901.37 163.878 901.469 164.362 901.469 164.969V170H900.296V168.966H900.237C900.157 169.132 900.024 169.309 899.839 169.498C899.653 169.687 899.406 169.848 899.098 169.98C898.79 170.113 898.414 170.179 897.969 170.179ZM898.148 169.125C898.612 169.125 899.004 169.034 899.322 168.852C899.643 168.669 899.885 168.434 900.048 168.146C900.213 167.857 900.296 167.554 900.296 167.236V166.162C900.246 166.222 900.137 166.276 899.968 166.326C899.802 166.372 899.61 166.414 899.391 166.45C899.176 166.483 898.965 166.513 898.76 166.54C898.558 166.563 898.394 166.583 898.268 166.599C897.963 166.639 897.678 166.704 897.413 166.793C897.151 166.879 896.939 167.01 896.776 167.186C896.617 167.358 896.538 167.594 896.538 167.892C896.538 168.3 896.688 168.608 896.99 168.817C897.295 169.022 897.681 169.125 898.148 169.125ZM903.77 170V159.818H904.943V163.577H905.043C905.129 163.444 905.248 163.275 905.401 163.07C905.557 162.861 905.779 162.675 906.067 162.513C906.359 162.347 906.753 162.264 907.25 162.264C907.893 162.264 908.46 162.425 908.95 162.746C909.441 163.068 909.824 163.524 910.099 164.114C910.374 164.704 910.512 165.4 910.512 166.202C910.512 167.01 910.374 167.711 910.099 168.305C909.824 168.895 909.443 169.352 908.955 169.677C908.468 169.998 907.906 170.159 907.27 170.159C906.78 170.159 906.387 170.078 906.092 169.915C905.797 169.75 905.57 169.562 905.411 169.354C905.252 169.142 905.129 168.966 905.043 168.827H904.904V170H903.77ZM904.923 166.182C904.923 166.759 905.008 167.267 905.177 167.708C905.346 168.146 905.593 168.489 905.918 168.737C906.243 168.982 906.64 169.105 907.111 169.105C907.602 169.105 908.011 168.976 908.339 168.717C908.67 168.455 908.919 168.104 909.085 167.663C909.254 167.219 909.338 166.725 909.338 166.182C909.338 165.645 909.255 165.161 909.09 164.73C908.927 164.296 908.68 163.953 908.349 163.701C908.021 163.446 907.608 163.318 907.111 163.318C906.634 163.318 906.233 163.439 905.908 163.681C905.583 163.92 905.338 164.254 905.172 164.685C905.006 165.113 904.923 165.612 904.923 166.182ZM915.508 170.159C914.772 170.159 914.137 169.997 913.604 169.672C913.074 169.344 912.664 168.886 912.376 168.3C912.091 167.71 911.948 167.024 911.948 166.241C911.948 165.459 912.091 164.77 912.376 164.173C912.664 163.573 913.065 163.106 913.579 162.771C914.096 162.433 914.699 162.264 915.389 162.264C915.786 162.264 916.179 162.33 916.567 162.463C916.955 162.596 917.308 162.811 917.626 163.109C917.944 163.404 918.198 163.795 918.387 164.283C918.575 164.77 918.67 165.37 918.67 166.082V166.58H912.784V165.565H917.477C917.477 165.134 917.391 164.75 917.218 164.412C917.049 164.074 916.807 163.807 916.492 163.612C916.181 163.416 915.813 163.318 915.389 163.318C914.921 163.318 914.517 163.434 914.176 163.666C913.838 163.895 913.577 164.193 913.395 164.561C913.213 164.929 913.122 165.323 913.122 165.744V166.42C913.122 166.997 913.221 167.486 913.42 167.887C913.622 168.285 913.902 168.588 914.26 168.797C914.618 169.002 915.034 169.105 915.508 169.105C915.816 169.105 916.095 169.062 916.343 168.976C916.595 168.886 916.812 168.754 916.994 168.578C917.177 168.399 917.318 168.177 917.417 167.912L918.551 168.23C918.431 168.615 918.231 168.953 917.949 169.244C917.667 169.533 917.319 169.758 916.905 169.92C916.491 170.08 916.025 170.159 915.508 170.159ZM921.628 159.818V170H920.455V159.818H921.628Z" fill="white" fill-opacity="0.95"/>
</svg>
