<svg width="484" height="210" viewBox="0 0 484 210" fill="none" xmlns="http://www.w3.org/2000/svg">
<rect width="484" height="210" rx="16" fill="#1A1A1A"/>
<mask id="mask0_333_11709" style="mask-type:luminance" maskUnits="userSpaceOnUse" x="20" y="10" width="436" height="163">
<rect x="20" y="10" width="435.348" height="162.475" fill="white"/>
</mask>
<g mask="url(#mask0_333_11709)">
<path d="M42.2955 34.4545V49H40.5909L32.6648 37.5795H32.5227V49H30.7614V34.4545H32.4659L40.4205 45.9034H40.5625V34.4545H42.2955ZM50.0245 49.2273C49.0397 49.2273 48.1755 48.9929 47.4322 48.5241C46.6935 48.0554 46.1159 47.3996 45.6992 46.5568C45.2873 45.714 45.0813 44.7292 45.0813 43.6023C45.0813 42.4659 45.2873 41.474 45.6992 40.6264C46.1159 39.7789 46.6935 39.1207 47.4322 38.652C48.1755 38.1832 49.0397 37.9489 50.0245 37.9489C51.0094 37.9489 51.8711 38.1832 52.6097 38.652C53.3531 39.1207 53.9308 39.7789 54.3427 40.6264C54.7594 41.474 54.9677 42.4659 54.9677 43.6023C54.9677 44.7292 54.7594 45.714 54.3427 46.5568C53.9308 47.3996 53.3531 48.0554 52.6097 48.5241C51.8711 48.9929 51.0094 49.2273 50.0245 49.2273ZM50.0245 47.7216C50.7726 47.7216 51.3881 47.5298 51.8711 47.1463C52.354 46.7628 52.7115 46.2585 52.9435 45.6335C53.1755 45.0085 53.2915 44.3314 53.2915 43.6023C53.2915 42.8731 53.1755 42.1937 52.9435 41.5639C52.7115 40.9342 52.354 40.4252 51.8711 40.0369C51.3881 39.6487 50.7726 39.4545 50.0245 39.4545C49.2764 39.4545 48.6609 39.6487 48.1779 40.0369C47.695 40.4252 47.3375 40.9342 47.1055 41.5639C46.8735 42.1937 46.7575 42.8731 46.7575 43.6023C46.7575 44.3314 46.8735 45.0085 47.1055 45.6335C47.3375 46.2585 47.695 46.7628 48.1779 47.1463C48.6609 47.5298 49.2764 47.7216 50.0245 47.7216ZM62.2706 38.0909V39.5114H56.6172V38.0909H62.2706ZM58.2649 35.4773H59.9411V45.875C59.9411 46.3485 60.0097 46.7036 60.147 46.9403C60.2891 47.1723 60.469 47.3286 60.6868 47.4091C60.9093 47.4848 61.1437 47.5227 61.3899 47.5227C61.5746 47.5227 61.7261 47.5133 61.8445 47.4943C61.9628 47.4706 62.0575 47.4517 62.1286 47.4375L62.4695 48.9432C62.3558 48.9858 62.1972 49.0284 61.9936 49.071C61.79 49.1184 61.532 49.142 61.2195 49.142C60.746 49.142 60.282 49.0402 59.8274 48.8366C59.3776 48.633 59.0036 48.3229 58.7053 47.9062C58.4117 47.4896 58.2649 46.964 58.2649 46.3295V35.4773ZM64.7919 49V38.0909H66.468V49H64.7919ZM65.6442 36.2727C65.3175 36.2727 65.0357 36.1615 64.799 35.9389C64.567 35.7164 64.451 35.4489 64.451 35.1364C64.451 34.8239 64.567 34.5563 64.799 34.3338C65.0357 34.1113 65.3175 34 65.6442 34C65.9709 34 66.2502 34.1113 66.4822 34.3338C66.719 34.5563 66.8374 34.8239 66.8374 35.1364C66.8374 35.4489 66.719 35.7164 66.4822 35.9389C66.2502 36.1615 65.9709 36.2727 65.6442 36.2727ZM74.396 38.0909V39.5114H68.5153V38.0909H74.396ZM70.2766 49V36.5852C70.2766 35.9602 70.4234 35.4394 70.717 35.0227C71.0105 34.6061 71.3917 34.2936 71.8604 34.0852C72.3292 33.8769 72.824 33.7727 73.3448 33.7727C73.7567 33.7727 74.0929 33.8059 74.3533 33.8722C74.6138 33.9384 74.8079 34 74.9357 34.0568L74.4528 35.5057C74.3675 35.4773 74.2492 35.4418 74.0977 35.3991C73.9509 35.3565 73.7567 35.3352 73.5153 35.3352C72.9613 35.3352 72.5612 35.4749 72.315 35.7543C72.0735 36.0336 71.9528 36.4432 71.9528 36.983V49H70.2766ZM76.745 49V38.0909H78.4212V49H76.745ZM77.5973 36.2727C77.2706 36.2727 76.9889 36.1615 76.7521 35.9389C76.5201 35.7164 76.4041 35.4489 76.4041 35.1364C76.4041 34.8239 76.5201 34.5563 76.7521 34.3338C76.9889 34.1113 77.2706 34 77.5973 34C77.924 34 78.2034 34.1113 78.4354 34.3338C78.6721 34.5563 78.7905 34.8239 78.7905 35.1364C78.7905 35.4489 78.6721 35.7164 78.4354 35.9389C78.2034 36.1615 77.924 36.2727 77.5973 36.2727ZM85.9229 49.2273C84.9002 49.2273 84.0195 48.9858 83.2809 48.5028C82.5423 48.0199 81.9741 47.3546 81.5763 46.5071C81.1786 45.6596 80.9798 44.6913 80.9798 43.6023C80.9798 42.4943 81.1834 41.5166 81.5906 40.669C82.0025 39.8168 82.5754 39.1515 83.3093 38.6733C84.0479 38.1903 84.9097 37.9489 85.8945 37.9489C86.6616 37.9489 87.3529 38.0909 87.9684 38.375C88.5839 38.6591 89.0882 39.0568 89.4812 39.5682C89.8742 40.0795 90.118 40.6761 90.2127 41.358H88.5366C88.4087 40.8608 88.1246 40.4205 87.6843 40.0369C87.2487 39.6487 86.6616 39.4545 85.9229 39.4545C85.2695 39.4545 84.6966 39.625 84.2042 39.9659C83.7165 40.3021 83.3353 40.7779 83.0607 41.3935C82.7908 42.0043 82.6559 42.7216 82.6559 43.5455C82.6559 44.3883 82.7885 45.1222 83.0536 45.7472C83.3235 46.3722 83.7023 46.8575 84.19 47.2031C84.6824 47.5488 85.2601 47.7216 85.9229 47.7216C86.3585 47.7216 86.7539 47.6458 87.109 47.4943C87.4641 47.3428 87.7648 47.125 88.011 46.8409C88.2572 46.5568 88.4324 46.2159 88.5366 45.8182H90.2127C90.118 46.4621 89.8836 47.0421 89.5096 47.5582C89.1403 48.0696 88.6502 48.4768 88.0394 48.7798C87.4334 49.0781 86.7279 49.2273 85.9229 49.2273ZM95.8732 49.2557C95.1819 49.2557 94.5546 49.1255 93.9911 48.8651C93.4277 48.5999 92.9802 48.2188 92.6488 47.7216C92.3174 47.2197 92.1516 46.6136 92.1516 45.9034C92.1516 45.2784 92.2747 44.7718 92.521 44.3835C92.7672 43.9905 93.0962 43.6828 93.5082 43.4602C93.9201 43.2377 94.3746 43.072 94.8718 42.9631C95.3737 42.8494 95.878 42.7595 96.3846 42.6932C97.0475 42.608 97.5849 42.544 97.9968 42.5014C98.4135 42.4541 98.7165 42.3759 98.9059 42.267C99.1 42.1581 99.1971 41.9687 99.1971 41.6989V41.642C99.1971 40.9413 99.0053 40.3968 98.6218 40.0085C98.243 39.6203 97.6677 39.4261 96.896 39.4261C96.0958 39.4261 95.4684 39.6013 95.0138 39.9517C94.5593 40.3021 94.2397 40.6761 94.055 41.0739L92.4641 40.5057C92.7482 39.8428 93.127 39.3267 93.6005 38.9574C94.0787 38.5833 94.5996 38.3229 95.163 38.1761C95.7312 38.0246 96.2899 37.9489 96.8391 37.9489C97.1895 37.9489 97.592 37.9915 98.0465 38.0767C98.5058 38.1572 98.9485 38.3253 99.3746 38.581C99.8055 38.8366 100.163 39.2225 100.447 39.7386C100.731 40.2547 100.873 40.946 100.873 41.8125V49H99.1971V47.5227H99.1119C98.9982 47.7595 98.8088 48.0128 98.5437 48.2827C98.2785 48.5526 97.9258 48.7822 97.4854 48.9716C97.0451 49.161 96.5077 49.2557 95.8732 49.2557ZM96.1289 47.75C96.7918 47.75 97.3505 47.6198 97.805 47.3594C98.2643 47.099 98.61 46.7628 98.842 46.3509C99.0787 45.9389 99.1971 45.5057 99.1971 45.0511V43.517C99.1261 43.6023 98.9698 43.6804 98.7283 43.7514C98.4916 43.8177 98.217 43.8769 97.9045 43.929C97.5967 43.9763 97.296 44.0189 97.0025 44.0568C96.7137 44.09 96.4793 44.1184 96.2994 44.142C95.8638 44.1989 95.4566 44.2912 95.0778 44.419C94.7037 44.5421 94.4007 44.7292 94.1687 44.9801C93.9414 45.2263 93.8278 45.5625 93.8278 45.9886C93.8278 46.571 94.0432 47.0114 94.4741 47.3097C94.9097 47.6032 95.4613 47.75 96.1289 47.75ZM108.677 38.0909V39.5114H103.023V38.0909H108.677ZM104.671 35.4773H106.347V45.875C106.347 46.3485 106.416 46.7036 106.553 46.9403C106.695 47.1723 106.875 47.3286 107.093 47.4091C107.316 47.4848 107.55 47.5227 107.796 47.5227C107.981 47.5227 108.132 47.5133 108.251 47.4943C108.369 47.4706 108.464 47.4517 108.535 47.4375L108.876 48.9432C108.762 48.9858 108.603 49.0284 108.4 49.071C108.196 49.1184 107.938 49.142 107.626 49.142C107.152 49.142 106.688 49.0402 106.234 48.8366C105.784 48.633 105.41 48.3229 105.112 47.9062C104.818 47.4896 104.671 46.964 104.671 46.3295V35.4773ZM111.198 49V38.0909H112.874V49H111.198ZM112.05 36.2727C111.724 36.2727 111.442 36.1615 111.205 35.9389C110.973 35.7164 110.857 35.4489 110.857 35.1364C110.857 34.8239 110.973 34.5563 111.205 34.3338C111.442 34.1113 111.724 34 112.05 34C112.377 34 112.656 34.1113 112.888 34.3338C113.125 34.5563 113.244 34.8239 113.244 35.1364C113.244 35.4489 113.125 35.7164 112.888 35.9389C112.656 36.1615 112.377 36.2727 112.05 36.2727ZM120.376 49.2273C119.391 49.2273 118.527 48.9929 117.784 48.5241C117.045 48.0554 116.467 47.3996 116.051 46.5568C115.639 45.714 115.433 44.7292 115.433 43.6023C115.433 42.4659 115.639 41.474 116.051 40.6264C116.467 39.7789 117.045 39.1207 117.784 38.652C118.527 38.1832 119.391 37.9489 120.376 37.9489C121.361 37.9489 122.223 38.1832 122.961 38.652C123.705 39.1207 124.282 39.7789 124.694 40.6264C125.111 41.474 125.319 42.4659 125.319 43.6023C125.319 44.7292 125.111 45.714 124.694 46.5568C124.282 47.3996 123.705 48.0554 122.961 48.5241C122.223 48.9929 121.361 49.2273 120.376 49.2273ZM120.376 47.7216C121.124 47.7216 121.74 47.5298 122.223 47.1463C122.706 46.7628 123.063 46.2585 123.295 45.6335C123.527 45.0085 123.643 44.3314 123.643 43.6023C123.643 42.8731 123.527 42.1937 123.295 41.5639C123.063 40.9342 122.706 40.4252 122.223 40.0369C121.74 39.6487 121.124 39.4545 120.376 39.4545C119.628 39.4545 119.012 39.6487 118.529 40.0369C118.047 40.4252 117.689 40.9342 117.457 41.5639C117.225 42.1937 117.109 42.8731 117.109 43.6023C117.109 44.3314 117.225 45.0085 117.457 45.6335C117.689 46.2585 118.047 46.7628 118.529 47.1463C119.012 47.5298 119.628 47.7216 120.376 47.7216ZM129.554 42.4375V49H127.878V38.0909H129.497V39.7955H129.639C129.895 39.2415 130.283 38.7964 130.804 38.4602C131.325 38.1193 131.997 37.9489 132.821 37.9489C133.56 37.9489 134.206 38.1004 134.76 38.4034C135.314 38.7017 135.745 39.1562 136.053 39.767C136.36 40.3731 136.514 41.1402 136.514 42.0682V49H134.838V42.1818C134.838 41.3248 134.616 40.6572 134.17 40.179C133.725 39.696 133.115 39.4545 132.338 39.4545C131.803 39.4545 131.325 39.5705 130.903 39.8026C130.487 40.0346 130.158 40.3731 129.916 40.8182C129.675 41.2633 129.554 41.803 129.554 42.4375ZM147.304 40.5341L145.799 40.9602C145.704 40.7093 145.564 40.4654 145.38 40.2287C145.2 39.9872 144.953 39.7884 144.641 39.6321C144.328 39.4759 143.928 39.3977 143.441 39.3977C142.773 39.3977 142.217 39.5516 141.772 39.8594C141.331 40.1624 141.111 40.5483 141.111 41.017C141.111 41.4337 141.263 41.7628 141.566 42.0043C141.869 42.2457 142.342 42.447 142.986 42.608L144.605 43.0057C145.581 43.2424 146.308 43.6046 146.786 44.0923C147.264 44.5753 147.503 45.1979 147.503 45.9602C147.503 46.5852 147.323 47.1439 146.963 47.6364C146.608 48.1288 146.111 48.517 145.472 48.8011C144.833 49.0852 144.089 49.2273 143.242 49.2273C142.129 49.2273 141.208 48.9858 140.479 48.5028C139.75 48.0199 139.288 47.3144 139.094 46.3864L140.685 45.9886C140.837 46.5758 141.123 47.0161 141.544 47.3097C141.971 47.6032 142.527 47.75 143.213 47.75C143.995 47.75 144.615 47.5843 145.074 47.2528C145.538 46.9167 145.77 46.5142 145.77 46.0455C145.77 45.6667 145.638 45.3494 145.373 45.0938C145.107 44.8333 144.7 44.6392 144.151 44.5114L142.333 44.0852C141.334 43.8485 140.6 43.4815 140.131 42.9844C139.667 42.4825 139.435 41.8551 139.435 41.1023C139.435 40.4867 139.608 39.9422 139.953 39.4688C140.304 38.9953 140.78 38.6236 141.381 38.3537C141.987 38.0838 142.674 37.9489 143.441 37.9489C144.52 37.9489 145.368 38.1856 145.983 38.6591C146.604 39.1326 147.044 39.7576 147.304 40.5341Z" fill="white" fill-opacity="0.95"/>
<path d="M29.5682 68.392V66.3636H39.125V68.392H35.5625V78H33.1307V68.392H29.5682ZM41.9545 78.1648C41.3977 78.1648 40.9015 78.0682 40.4659 77.875C40.0303 77.678 39.6856 77.3883 39.4318 77.0057C39.1818 76.6193 39.0568 76.1383 39.0568 75.5625C39.0568 75.0777 39.1458 74.6705 39.3239 74.3409C39.5019 74.0114 39.7443 73.7462 40.0511 73.5455C40.358 73.3447 40.7064 73.1932 41.0966 73.0909C41.4905 72.9886 41.9034 72.9167 42.3352 72.875C42.8428 72.822 43.2519 72.7727 43.5625 72.7273C43.8731 72.678 44.0985 72.6061 44.2386 72.5114C44.3788 72.4167 44.4489 72.2765 44.4489 72.0909V72.0568C44.4489 71.697 44.3352 71.4186 44.108 71.2216C43.8845 71.0246 43.5663 70.9261 43.1534 70.9261C42.7178 70.9261 42.3712 71.0227 42.1136 71.2159C41.8561 71.4053 41.6856 71.6439 41.6023 71.9318L39.3636 71.75C39.4773 71.2197 39.7008 70.7614 40.0341 70.375C40.3674 69.9848 40.7973 69.6856 41.3239 69.4773C41.8542 69.2652 42.4678 69.1591 43.1648 69.1591C43.6496 69.1591 44.1136 69.2159 44.5568 69.3295C45.0038 69.4432 45.3996 69.6193 45.7443 69.858C46.0928 70.0966 46.3674 70.4034 46.5682 70.7784C46.7689 71.1496 46.8693 71.5947 46.8693 72.1136V78H44.5739V76.7898H44.5057C44.3655 77.0625 44.178 77.303 43.9432 77.5114C43.7083 77.7159 43.4261 77.8769 43.0966 77.9943C42.767 78.108 42.3864 78.1648 41.9545 78.1648ZM42.6477 76.4943C43.0038 76.4943 43.3182 76.4242 43.5909 76.2841C43.8636 76.1402 44.0777 75.947 44.233 75.7045C44.3883 75.4621 44.4659 75.1875 44.4659 74.8807V73.9545C44.3902 74.0038 44.286 74.0492 44.1534 74.0909C44.0246 74.1288 43.8788 74.1648 43.7159 74.1989C43.553 74.2292 43.3902 74.2576 43.2273 74.2841C43.0644 74.3068 42.9167 74.3277 42.7841 74.3466C42.5 74.3883 42.2519 74.4545 42.0398 74.5455C41.8277 74.6364 41.6629 74.7595 41.5455 74.9148C41.428 75.0663 41.3693 75.2557 41.3693 75.483C41.3693 75.8125 41.4886 76.0644 41.7273 76.2386C41.9697 76.4091 42.2765 76.4943 42.6477 76.4943ZM56.0085 71.7614L53.7926 71.8977C53.7547 71.7083 53.6733 71.5379 53.5483 71.3864C53.4233 71.2311 53.2585 71.108 53.054 71.017C52.8532 70.9223 52.6127 70.875 52.3324 70.875C51.9574 70.875 51.6411 70.9545 51.3835 71.1136C51.1259 71.2689 50.9972 71.4773 50.9972 71.7386C50.9972 71.947 51.0805 72.1231 51.2472 72.267C51.4138 72.411 51.6998 72.5265 52.1051 72.6136L53.6847 72.9318C54.5331 73.1061 55.1657 73.3864 55.5824 73.7727C55.9991 74.1591 56.2074 74.6667 56.2074 75.2955C56.2074 75.8674 56.0388 76.3693 55.7017 76.8011C55.3684 77.233 54.91 77.5701 54.3267 77.8125C53.7472 78.0511 53.0786 78.1705 52.321 78.1705C51.1657 78.1705 50.2453 77.9299 49.5597 77.4489C48.8778 76.964 48.4782 76.3049 48.3608 75.4716L50.7415 75.3466C50.8134 75.6989 50.9877 75.9678 51.2642 76.1534C51.5407 76.3352 51.8949 76.4261 52.3267 76.4261C52.7509 76.4261 53.0919 76.3447 53.3494 76.1818C53.6108 76.0152 53.7434 75.8011 53.7472 75.5398C53.7434 75.3201 53.6506 75.1402 53.4688 75C53.2869 74.8561 53.0066 74.7462 52.6278 74.6705L51.1165 74.3693C50.2642 74.1989 49.6297 73.9034 49.2131 73.483C48.8002 73.0625 48.5938 72.5265 48.5938 71.875C48.5938 71.3144 48.7453 70.8314 49.0483 70.4261C49.3551 70.0208 49.785 69.7083 50.3381 69.4886C50.8949 69.2689 51.5464 69.1591 52.2926 69.1591C53.3949 69.1591 54.2623 69.392 54.8949 69.858C55.5313 70.3239 55.9025 70.9583 56.0085 71.7614ZM59.9247 75.4886L59.9304 72.5852H60.2827L63.0781 69.2727H65.8565L62.1009 73.6591H61.527L59.9247 75.4886ZM57.7315 78V66.3636H60.152V78H57.7315ZM63.1861 78L60.6179 74.1989L62.2315 72.4886L66.0213 78H63.1861ZM67.0895 78V66.3636H69.5099V70.7386H69.5838C69.6899 70.5038 69.8433 70.2652 70.044 70.0227C70.2486 69.7765 70.5137 69.572 70.8395 69.4091C71.169 69.2424 71.5781 69.1591 72.0668 69.1591C72.7031 69.1591 73.2902 69.3258 73.8281 69.6591C74.366 69.9886 74.7959 70.4867 75.1179 71.1534C75.4399 71.8163 75.6009 72.6477 75.6009 73.6477C75.6009 74.6212 75.4437 75.4432 75.1293 76.1136C74.8187 76.7803 74.3944 77.286 73.8565 77.6307C73.3224 77.9716 72.724 78.142 72.0611 78.142C71.5914 78.142 71.1918 78.0644 70.8622 77.9091C70.5365 77.7538 70.2694 77.5587 70.0611 77.3239C69.8527 77.0852 69.6937 76.8447 69.5838 76.6023H69.4759V78H67.0895ZM69.4588 73.6364C69.4588 74.1553 69.5308 74.608 69.6747 74.9943C69.8187 75.3807 70.027 75.6818 70.2997 75.8977C70.5724 76.1098 70.9039 76.2159 71.294 76.2159C71.688 76.2159 72.0213 76.108 72.294 75.892C72.5668 75.6723 72.7732 75.3693 72.9134 74.983C73.0573 74.5928 73.1293 74.1439 73.1293 73.6364C73.1293 73.1326 73.0592 72.6894 72.919 72.3068C72.7789 71.9242 72.5724 71.625 72.2997 71.4091C72.027 71.1932 71.6918 71.0852 71.294 71.0852C70.9001 71.0852 70.5668 71.1894 70.294 71.3977C70.0251 71.6061 69.8187 71.9015 69.6747 72.2841C69.5308 72.6667 69.4588 73.1174 69.4588 73.6364ZM79.7045 78.1648C79.1477 78.1648 78.6515 78.0682 78.2159 77.875C77.7803 77.678 77.4356 77.3883 77.1818 77.0057C76.9318 76.6193 76.8068 76.1383 76.8068 75.5625C76.8068 75.0777 76.8958 74.6705 77.0739 74.3409C77.2519 74.0114 77.4943 73.7462 77.8011 73.5455C78.108 73.3447 78.4564 73.1932 78.8466 73.0909C79.2405 72.9886 79.6534 72.9167 80.0852 72.875C80.5928 72.822 81.0019 72.7727 81.3125 72.7273C81.6231 72.678 81.8485 72.6061 81.9886 72.5114C82.1288 72.4167 82.1989 72.2765 82.1989 72.0909V72.0568C82.1989 71.697 82.0852 71.4186 81.858 71.2216C81.6345 71.0246 81.3163 70.9261 80.9034 70.9261C80.4678 70.9261 80.1212 71.0227 79.8636 71.2159C79.6061 71.4053 79.4356 71.6439 79.3523 71.9318L77.1136 71.75C77.2273 71.2197 77.4508 70.7614 77.7841 70.375C78.1174 69.9848 78.5473 69.6856 79.0739 69.4773C79.6042 69.2652 80.2178 69.1591 80.9148 69.1591C81.3996 69.1591 81.8636 69.2159 82.3068 69.3295C82.7538 69.4432 83.1496 69.6193 83.4943 69.858C83.8428 70.0966 84.1174 70.4034 84.3182 70.7784C84.5189 71.1496 84.6193 71.5947 84.6193 72.1136V78H82.3239V76.7898H82.2557C82.1155 77.0625 81.928 77.303 81.6932 77.5114C81.4583 77.7159 81.1761 77.8769 80.8466 77.9943C80.517 78.108 80.1364 78.1648 79.7045 78.1648ZM80.3977 76.4943C80.7538 76.4943 81.0682 76.4242 81.3409 76.2841C81.6136 76.1402 81.8277 75.947 81.983 75.7045C82.1383 75.4621 82.2159 75.1875 82.2159 74.8807V73.9545C82.1402 74.0038 82.036 74.0492 81.9034 74.0909C81.7746 74.1288 81.6288 74.1648 81.4659 74.1989C81.303 74.2292 81.1402 74.2576 80.9773 74.2841C80.8144 74.3068 80.6667 74.3277 80.5341 74.3466C80.25 74.3883 80.0019 74.4545 79.7898 74.5455C79.5777 74.6364 79.4129 74.7595 79.2955 74.9148C79.178 75.0663 79.1193 75.2557 79.1193 75.483C79.1193 75.8125 79.2386 76.0644 79.4773 76.2386C79.7197 76.4091 80.0265 76.4943 80.3977 76.4943ZM86.4972 78V69.2727H88.8438V70.7955H88.9347C89.0938 70.2538 89.3608 69.8447 89.7358 69.5682C90.1108 69.2879 90.5426 69.1477 91.0312 69.1477C91.1525 69.1477 91.2831 69.1553 91.4233 69.1705C91.5634 69.1856 91.6866 69.2064 91.7926 69.233V71.3807C91.679 71.3466 91.5218 71.3163 91.321 71.2898C91.1203 71.2633 90.9366 71.25 90.7699 71.25C90.4138 71.25 90.0956 71.3277 89.8153 71.483C89.5388 71.6345 89.3191 71.8466 89.1562 72.1193C88.9972 72.392 88.9176 72.7064 88.9176 73.0625V78H86.4972ZM99.1676 72.9545V78H96.7472V69.2727H99.054V70.8125H99.1562C99.3494 70.3049 99.6733 69.9034 100.128 69.608C100.582 69.3087 101.134 69.1591 101.781 69.1591C102.387 69.1591 102.916 69.2917 103.366 69.5568C103.817 69.822 104.168 70.2008 104.418 70.6932C104.668 71.1818 104.793 71.7652 104.793 72.4432V78H102.372V72.875C102.376 72.3409 102.24 71.9242 101.963 71.625C101.687 71.322 101.306 71.1705 100.821 71.1705C100.495 71.1705 100.207 71.2405 99.9574 71.3807C99.7112 71.5208 99.518 71.7254 99.3778 71.9943C99.2415 72.2595 99.1714 72.5795 99.1676 72.9545ZM110.643 78.1705C109.761 78.1705 108.998 77.983 108.354 77.608C107.714 77.2292 107.219 76.7027 106.871 76.0284C106.522 75.3504 106.348 74.5644 106.348 73.6705C106.348 72.7689 106.522 71.9811 106.871 71.3068C107.219 70.6288 107.714 70.1023 108.354 69.7273C108.998 69.3485 109.761 69.1591 110.643 69.1591C111.526 69.1591 112.287 69.3485 112.928 69.7273C113.571 70.1023 114.068 70.6288 114.416 71.3068C114.765 71.9811 114.939 72.7689 114.939 73.6705C114.939 74.5644 114.765 75.3504 114.416 76.0284C114.068 76.7027 113.571 77.2292 112.928 77.608C112.287 77.983 111.526 78.1705 110.643 78.1705ZM110.655 76.2955C111.056 76.2955 111.392 76.1818 111.661 75.9545C111.929 75.7235 112.132 75.4091 112.268 75.0114C112.409 74.6136 112.479 74.161 112.479 73.6534C112.479 73.1458 112.409 72.6932 112.268 72.2955C112.132 71.8977 111.929 71.5833 111.661 71.3523C111.392 71.1212 111.056 71.0057 110.655 71.0057C110.25 71.0057 109.909 71.1212 109.632 71.3523C109.359 71.5833 109.153 71.8977 109.013 72.2955C108.876 72.6932 108.808 73.1458 108.808 73.6534C108.808 74.161 108.876 74.6136 109.013 75.0114C109.153 75.4091 109.359 75.7235 109.632 75.9545C109.909 76.1818 110.25 76.2955 110.655 76.2955ZM121.155 69.2727V71.0909H115.899V69.2727H121.155ZM117.092 67.1818H119.513V75.3182C119.513 75.5417 119.547 75.7159 119.615 75.8409C119.683 75.9621 119.778 76.0473 119.899 76.0966C120.024 76.1458 120.168 76.1705 120.331 76.1705C120.445 76.1705 120.558 76.161 120.672 76.142C120.786 76.1193 120.873 76.1023 120.933 76.0909L121.314 77.892C121.193 77.9299 121.022 77.9735 120.803 78.0227C120.583 78.0758 120.316 78.108 120.001 78.1193C119.418 78.142 118.907 78.0644 118.467 77.8864C118.032 77.7083 117.693 77.4318 117.45 77.0568C117.208 76.6818 117.089 76.2083 117.092 75.6364V67.1818ZM122.732 78V69.2727H125.152V78H122.732ZM123.953 68.1477C123.593 68.1477 123.285 68.0284 123.027 67.7898C122.769 67.5473 122.641 67.2576 122.641 66.9205C122.641 66.5871 122.769 66.3011 123.027 66.0625C123.285 65.8201 123.591 65.6989 123.947 65.6989C124.311 65.6989 124.62 65.8201 124.874 66.0625C125.131 66.3011 125.26 66.5871 125.26 66.9205C125.26 67.2576 125.131 67.5473 124.874 67.7898C124.62 68.0284 124.313 68.1477 123.953 68.1477ZM131.784 69.2727V71.0909H126.398V69.2727H131.784ZM127.631 78V68.642C127.631 68.0095 127.754 67.4848 128 67.0682C128.25 66.6515 128.591 66.339 129.023 66.1307C129.455 65.9223 129.945 65.8182 130.494 65.8182C130.866 65.8182 131.205 65.8466 131.511 65.9034C131.822 65.9602 132.053 66.0114 132.205 66.0568L131.773 67.875C131.678 67.8447 131.561 67.8163 131.42 67.7898C131.284 67.7633 131.144 67.75 131 67.75C130.644 67.75 130.396 67.8333 130.256 68C130.116 68.1629 130.045 68.392 130.045 68.6875V78H127.631ZM133.263 78V69.2727H135.683V78H133.263ZM134.484 68.1477C134.125 68.1477 133.816 68.0284 133.558 67.7898C133.301 67.5473 133.172 67.2576 133.172 66.9205C133.172 66.5871 133.301 66.3011 133.558 66.0625C133.816 65.8201 134.123 65.6989 134.479 65.6989C134.842 65.6989 135.151 65.8201 135.405 66.0625C135.662 66.3011 135.791 66.5871 135.791 66.9205C135.791 67.2576 135.662 67.5473 135.405 67.7898C135.151 68.0284 134.844 68.1477 134.484 68.1477ZM141.565 78.1705C140.671 78.1705 139.902 77.9811 139.259 77.6023C138.618 77.2197 138.126 76.6894 137.781 76.0114C137.44 75.3333 137.27 74.553 137.27 73.6705C137.27 72.7765 137.442 71.9924 137.787 71.3182C138.135 70.6402 138.63 70.1117 139.27 69.733C139.91 69.3504 140.671 69.1591 141.554 69.1591C142.315 69.1591 142.982 69.2973 143.554 69.5739C144.126 69.8504 144.579 70.2386 144.912 70.7386C145.245 71.2386 145.429 71.8258 145.463 72.5H143.179C143.115 72.0644 142.944 71.714 142.668 71.4489C142.395 71.1799 142.037 71.0455 141.594 71.0455C141.219 71.0455 140.891 71.1477 140.611 71.3523C140.334 71.553 140.118 71.8466 139.963 72.233C139.808 72.6193 139.73 73.0871 139.73 73.6364C139.73 74.1932 139.806 74.6667 139.957 75.0568C140.113 75.447 140.33 75.7443 140.611 75.9489C140.891 76.1534 141.219 76.2557 141.594 76.2557C141.87 76.2557 142.118 76.1989 142.338 76.0852C142.562 75.9716 142.745 75.8068 142.889 75.5909C143.037 75.3712 143.134 75.108 143.179 74.8011H145.463C145.425 75.4678 145.243 76.0549 144.918 76.5625C144.596 77.0663 144.151 77.4602 143.582 77.7443C143.014 78.0284 142.342 78.1705 141.565 78.1705ZM149.501 78.1648C148.945 78.1648 148.448 78.0682 148.013 77.875C147.577 77.678 147.232 77.3883 146.979 77.0057C146.729 76.6193 146.604 76.1383 146.604 75.5625C146.604 75.0777 146.693 74.6705 146.871 74.3409C147.049 74.0114 147.291 73.7462 147.598 73.5455C147.905 73.3447 148.253 73.1932 148.643 73.0909C149.037 72.9886 149.45 72.9167 149.882 72.875C150.39 72.822 150.799 72.7727 151.109 72.7273C151.42 72.678 151.645 72.6061 151.786 72.5114C151.926 72.4167 151.996 72.2765 151.996 72.0909V72.0568C151.996 71.697 151.882 71.4186 151.655 71.2216C151.431 71.0246 151.113 70.9261 150.7 70.9261C150.265 70.9261 149.918 71.0227 149.661 71.2159C149.403 71.4053 149.232 71.6439 149.149 71.9318L146.911 71.75C147.024 71.2197 147.248 70.7614 147.581 70.375C147.914 69.9848 148.344 69.6856 148.871 69.4773C149.401 69.2652 150.015 69.1591 150.712 69.1591C151.196 69.1591 151.661 69.2159 152.104 69.3295C152.551 69.4432 152.946 69.6193 153.291 69.858C153.64 70.0966 153.914 70.4034 154.115 70.7784C154.316 71.1496 154.416 71.5947 154.416 72.1136V78H152.121V76.7898H152.053C151.912 77.0625 151.725 77.303 151.49 77.5114C151.255 77.7159 150.973 77.8769 150.643 77.9943C150.314 78.108 149.933 78.1648 149.501 78.1648ZM150.195 76.4943C150.551 76.4943 150.865 76.4242 151.138 76.2841C151.411 76.1402 151.625 75.947 151.78 75.7045C151.935 75.4621 152.013 75.1875 152.013 74.8807V73.9545C151.937 74.0038 151.833 74.0492 151.7 74.0909C151.571 74.1288 151.426 74.1648 151.263 74.1989C151.1 74.2292 150.937 74.2576 150.774 74.2841C150.611 74.3068 150.464 74.3277 150.331 74.3466C150.047 74.3883 149.799 74.4545 149.587 74.5455C149.375 74.6364 149.21 74.7595 149.092 74.9148C148.975 75.0663 148.916 75.2557 148.916 75.483C148.916 75.8125 149.036 76.0644 149.274 76.2386C149.517 76.4091 149.823 76.4943 150.195 76.4943ZM160.936 69.2727V71.0909H155.68V69.2727H160.936ZM156.874 67.1818H159.294V75.3182C159.294 75.5417 159.328 75.7159 159.396 75.8409C159.464 75.9621 159.559 76.0473 159.68 76.0966C159.805 76.1458 159.949 76.1705 160.112 76.1705C160.226 76.1705 160.339 76.161 160.453 76.142C160.567 76.1193 160.654 76.1023 160.714 76.0909L161.095 77.892C160.974 77.9299 160.804 77.9735 160.584 78.0227C160.364 78.0758 160.097 78.108 159.783 78.1193C159.199 78.142 158.688 78.0644 158.249 77.8864C157.813 77.7083 157.474 77.4318 157.232 77.0568C156.989 76.6818 156.87 76.2083 156.874 75.6364V67.1818ZM162.513 78V69.2727H164.933V78H162.513ZM163.734 68.1477C163.375 68.1477 163.066 68.0284 162.808 67.7898C162.551 67.5473 162.422 67.2576 162.422 66.9205C162.422 66.5871 162.551 66.3011 162.808 66.0625C163.066 65.8201 163.373 65.6989 163.729 65.6989C164.092 65.6989 164.401 65.8201 164.655 66.0625C164.912 66.3011 165.041 66.5871 165.041 66.9205C165.041 67.2576 164.912 67.5473 164.655 67.7898C164.401 68.0284 164.094 68.1477 163.734 68.1477ZM170.815 78.1705C169.933 78.1705 169.17 77.983 168.526 77.608C167.885 77.2292 167.391 76.7027 167.043 76.0284C166.694 75.3504 166.52 74.5644 166.52 73.6705C166.52 72.7689 166.694 71.9811 167.043 71.3068C167.391 70.6288 167.885 70.1023 168.526 69.7273C169.17 69.3485 169.933 69.1591 170.815 69.1591C171.698 69.1591 172.459 69.3485 173.099 69.7273C173.743 70.1023 174.24 70.6288 174.588 71.3068C174.937 71.9811 175.111 72.7689 175.111 73.6705C175.111 74.5644 174.937 75.3504 174.588 76.0284C174.24 76.7027 173.743 77.2292 173.099 77.608C172.459 77.983 171.698 78.1705 170.815 78.1705ZM170.827 76.2955C171.228 76.2955 171.563 76.1818 171.832 75.9545C172.101 75.7235 172.304 75.4091 172.44 75.0114C172.58 74.6136 172.651 74.161 172.651 73.6534C172.651 73.1458 172.58 72.6932 172.44 72.2955C172.304 71.8977 172.101 71.5833 171.832 71.3523C171.563 71.1212 171.228 71.0057 170.827 71.0057C170.421 71.0057 170.08 71.1212 169.804 71.3523C169.531 71.5833 169.325 71.8977 169.185 72.2955C169.048 72.6932 168.98 73.1458 168.98 73.6534C168.98 74.161 169.048 74.6136 169.185 75.0114C169.325 75.4091 169.531 75.7235 169.804 75.9545C170.08 76.1818 170.421 76.2955 170.827 76.2955ZM179.105 72.9545V78H176.685V69.2727H178.991V70.8125H179.094C179.287 70.3049 179.611 69.9034 180.065 69.608C180.52 69.3087 181.071 69.1591 181.719 69.1591C182.325 69.1591 182.853 69.2917 183.304 69.5568C183.755 69.822 184.105 70.2008 184.355 70.6932C184.605 71.1818 184.73 71.7652 184.73 72.4432V78H182.31V72.875C182.313 72.3409 182.177 71.9242 181.901 71.625C181.624 71.322 181.243 71.1705 180.759 71.1705C180.433 71.1705 180.145 71.2405 179.895 71.3807C179.649 71.5208 179.455 71.7254 179.315 71.9943C179.179 72.2595 179.109 72.5795 179.105 72.9545ZM193.899 71.7614L191.683 71.8977C191.645 71.7083 191.564 71.5379 191.439 71.3864C191.314 71.2311 191.149 71.108 190.945 71.017C190.744 70.9223 190.503 70.875 190.223 70.875C189.848 70.875 189.532 70.9545 189.274 71.1136C189.017 71.2689 188.888 71.4773 188.888 71.7386C188.888 71.947 188.971 72.1231 189.138 72.267C189.304 72.411 189.59 72.5265 189.996 72.6136L191.575 72.9318C192.424 73.1061 193.056 73.3864 193.473 73.7727C193.89 74.1591 194.098 74.6667 194.098 75.2955C194.098 75.8674 193.929 76.3693 193.592 76.8011C193.259 77.233 192.801 77.5701 192.217 77.8125C191.638 78.0511 190.969 78.1705 190.212 78.1705C189.056 78.1705 188.136 77.9299 187.45 77.4489C186.768 76.964 186.369 76.3049 186.251 75.4716L188.632 75.3466C188.704 75.6989 188.878 75.9678 189.155 76.1534C189.431 76.3352 189.786 76.4261 190.217 76.4261C190.642 76.4261 190.982 76.3447 191.24 76.1818C191.501 76.0152 191.634 75.8011 191.638 75.5398C191.634 75.3201 191.541 75.1402 191.359 75C191.178 74.8561 190.897 74.7462 190.518 74.6705L189.007 74.3693C188.155 74.1989 187.52 73.9034 187.104 73.483C186.691 73.0625 186.484 72.5265 186.484 71.875C186.484 71.3144 186.636 70.8314 186.939 70.4261C187.246 70.0208 187.676 69.7083 188.229 69.4886C188.786 69.2689 189.437 69.1591 190.183 69.1591C191.286 69.1591 192.153 69.392 192.786 69.858C193.422 70.3239 193.793 70.9583 193.899 71.7614Z" fill="white" fill-opacity="0.95"/>
<rect width="414" height="1" transform="translate(29 140)" fill="white" fill-opacity="0.3"/>
<path d="M29.6761 153.912V152.818H37.3125V153.912H34.1108V163H32.8778V153.912H29.6761ZM41.0511 163.159C40.3617 163.159 39.7569 162.995 39.2365 162.667C38.7195 162.339 38.3151 161.88 38.0234 161.29C37.7351 160.7 37.5909 160.01 37.5909 159.222C37.5909 158.426 37.7351 157.732 38.0234 157.138C38.3151 156.545 38.7195 156.085 39.2365 155.756C39.7569 155.428 40.3617 155.264 41.0511 155.264C41.7405 155.264 42.3438 155.428 42.8608 155.756C43.3812 156.085 43.7855 156.545 44.0739 157.138C44.3655 157.732 44.5114 158.426 44.5114 159.222C44.5114 160.01 44.3655 160.7 44.0739 161.29C43.7855 161.88 43.3812 162.339 42.8608 162.667C42.3438 162.995 41.7405 163.159 41.0511 163.159ZM41.0511 162.105C41.5748 162.105 42.0057 161.971 42.3438 161.702C42.6818 161.434 42.9321 161.081 43.0945 160.643C43.2569 160.206 43.3381 159.732 43.3381 159.222C43.3381 158.711 43.2569 158.236 43.0945 157.795C42.9321 157.354 42.6818 156.998 42.3438 156.726C42.0057 156.454 41.5748 156.318 41.0511 156.318C40.5275 156.318 40.0966 156.454 39.7585 156.726C39.4205 156.998 39.1702 157.354 39.0078 157.795C38.8454 158.236 38.7642 158.711 38.7642 159.222C38.7642 159.732 38.8454 160.206 39.0078 160.643C39.1702 161.081 39.4205 161.434 39.7585 161.702C40.0966 161.971 40.5275 162.105 41.0511 162.105ZM53.3422 163.159C52.6262 163.159 52.0098 162.99 51.4927 162.652C50.9757 162.314 50.5779 161.848 50.2995 161.255C50.0211 160.662 49.8819 159.984 49.8819 159.222C49.8819 158.446 50.0244 157.762 50.3095 157.168C50.5978 156.572 50.9989 156.106 51.5126 155.771C52.0297 155.433 52.6329 155.264 53.3223 155.264C53.8592 155.264 54.3431 155.364 54.774 155.562C55.2048 155.761 55.5578 156.04 55.8329 156.398C56.108 156.756 56.2787 157.173 56.345 157.651H55.1717C55.0822 157.303 54.8833 156.994 54.5751 156.726C54.2702 156.454 53.8592 156.318 53.3422 156.318C52.8848 156.318 52.4837 156.437 52.139 156.676C51.7976 156.911 51.5308 157.245 51.3386 157.675C51.1497 158.103 51.0552 158.605 51.0552 159.182C51.0552 159.772 51.148 160.286 51.3336 160.723C51.5225 161.161 51.7877 161.5 52.1291 161.742C52.4738 161.984 52.8781 162.105 53.3422 162.105C53.6471 162.105 53.9238 162.052 54.1724 161.946C54.421 161.84 54.6315 161.688 54.8038 161.489C54.9761 161.29 55.0988 161.051 55.1717 160.773H56.345C56.2787 161.223 56.1146 161.629 55.8528 161.991C55.5943 162.349 55.2512 162.634 54.8237 162.846C54.3994 163.055 53.9056 163.159 53.3422 163.159ZM59.2335 158.406V163H58.0602V152.818H59.2335V156.557H59.3329C59.5119 156.162 59.7804 155.849 60.1383 155.617C60.4996 155.382 60.9802 155.264 61.5801 155.264C62.1004 155.264 62.5562 155.369 62.9473 155.577C63.3384 155.783 63.6416 156.099 63.8571 156.527C64.0758 156.951 64.1852 157.491 64.1852 158.148V163H63.0119V158.227C63.0119 157.621 62.8545 157.152 62.5396 156.82C62.228 156.486 61.7955 156.318 61.242 156.318C60.8575 156.318 60.5128 156.399 60.2079 156.562C59.9063 156.724 59.6677 156.961 59.492 157.273C59.3197 157.584 59.2335 157.962 59.2335 158.406ZM68.5788 163.179C68.0949 163.179 67.6558 163.088 67.2614 162.906C66.867 162.72 66.5537 162.453 66.3217 162.105C66.0897 161.754 65.9737 161.33 65.9737 160.832C65.9737 160.395 66.0599 160.04 66.2322 159.768C66.4046 159.493 66.6349 159.278 66.9233 159.122C67.2116 158.966 67.5298 158.85 67.8778 158.774C68.2292 158.695 68.5821 158.632 68.9368 158.585C69.4008 158.526 69.777 158.481 70.0653 158.451C70.357 158.418 70.5691 158.363 70.7017 158.287C70.8376 158.211 70.9055 158.078 70.9055 157.889V157.849C70.9055 157.359 70.7713 156.978 70.5028 156.706C70.2377 156.434 69.835 156.298 69.2947 156.298C68.7346 156.298 68.2955 156.421 67.9773 156.666C67.6591 156.911 67.4354 157.173 67.3061 157.452L66.1925 157.054C66.3913 156.59 66.6565 156.229 66.9879 155.97C67.3227 155.708 67.6873 155.526 68.0817 155.423C68.4794 155.317 68.8705 155.264 69.255 155.264C69.5002 155.264 69.782 155.294 70.1001 155.354C70.4216 155.41 70.7315 155.528 71.0298 155.707C71.3314 155.886 71.5817 156.156 71.7805 156.517C71.9794 156.878 72.0788 157.362 72.0788 157.969V163H70.9055V161.966H70.8459C70.7663 162.132 70.6338 162.309 70.4482 162.498C70.2625 162.687 70.0156 162.848 69.7074 162.98C69.3991 163.113 69.023 163.179 68.5788 163.179ZM68.7578 162.125C69.2218 162.125 69.6129 162.034 69.9311 161.852C70.2526 161.669 70.4946 161.434 70.657 161.146C70.8227 160.857 70.9055 160.554 70.9055 160.236V159.162C70.8558 159.222 70.7464 159.276 70.5774 159.326C70.4117 159.372 70.2195 159.414 70.0007 159.45C69.7853 159.483 69.5748 159.513 69.3693 159.54C69.1671 159.563 69.0031 159.583 68.8771 159.599C68.5722 159.639 68.2872 159.704 68.022 159.793C67.7602 159.879 67.5481 160.01 67.3857 160.186C67.2266 160.358 67.147 160.594 67.147 160.892C67.147 161.3 67.2978 161.608 67.5994 161.817C67.9044 162.022 68.2905 162.125 68.7578 162.125ZM75.3936 158.406V163H74.2203V155.364H75.3539V156.557H75.4533C75.6323 156.169 75.9041 155.857 76.2686 155.622C76.6332 155.384 77.1039 155.264 77.6806 155.264C78.1976 155.264 78.65 155.37 79.0378 155.582C79.4256 155.791 79.7272 156.109 79.9426 156.537C80.1581 156.961 80.2658 157.498 80.2658 158.148V163H79.0925V158.227C79.0925 157.627 78.9367 157.16 78.6252 156.825C78.3136 156.487 77.8861 156.318 77.3425 156.318C76.968 156.318 76.6332 156.399 76.3382 156.562C76.0466 156.724 75.8162 156.961 75.6472 157.273C75.4782 157.584 75.3936 157.962 75.3936 158.406ZM85.4922 166.023C84.9254 166.023 84.4382 165.95 84.0305 165.804C83.6229 165.661 83.2831 165.473 83.0114 165.237C82.7429 165.005 82.5291 164.757 82.37 164.491L83.3047 163.835C83.4107 163.974 83.545 164.134 83.7074 164.312C83.8698 164.495 84.0919 164.652 84.3736 164.785C84.6586 164.921 85.0315 164.989 85.4922 164.989C86.1087 164.989 86.6174 164.839 87.0185 164.541C87.4195 164.243 87.62 163.776 87.62 163.139V161.588H87.5206C87.4344 161.727 87.3118 161.9 87.1527 162.105C86.9969 162.307 86.7715 162.488 86.4766 162.647C86.1849 162.803 85.7905 162.881 85.2933 162.881C84.6768 162.881 84.1233 162.735 83.6328 162.443C83.1456 162.152 82.7595 161.727 82.4744 161.17C82.1927 160.614 82.0518 159.937 82.0518 159.142C82.0518 158.36 82.1894 157.679 82.4645 157.099C82.7396 156.515 83.1224 156.065 83.6129 155.746C84.1035 155.425 84.6702 155.264 85.3132 155.264C85.8104 155.264 86.2048 155.347 86.4964 155.513C86.7914 155.675 87.0168 155.861 87.1726 156.07C87.3317 156.275 87.4543 156.444 87.5405 156.577H87.6598V155.364H88.7933V163.219C88.7933 163.875 88.6442 164.409 88.3459 164.82C88.0509 165.234 87.6532 165.537 87.1527 165.729C86.6555 165.925 86.102 166.023 85.4922 166.023ZM85.4524 161.827C85.9231 161.827 86.3208 161.719 86.6456 161.504C86.9704 161.288 87.2173 160.978 87.3864 160.574C87.5554 160.17 87.6399 159.686 87.6399 159.122C87.6399 158.572 87.5571 158.086 87.3913 157.665C87.2256 157.245 86.9804 156.915 86.6555 156.676C86.3307 156.437 85.9297 156.318 85.4524 156.318C84.9553 156.318 84.541 156.444 84.2095 156.696C83.8814 156.948 83.6345 157.286 83.4688 157.71C83.3063 158.134 83.2251 158.605 83.2251 159.122C83.2251 159.652 83.308 160.121 83.4737 160.529C83.6428 160.933 83.8913 161.252 84.2195 161.484C84.5509 161.712 84.9619 161.827 85.4524 161.827ZM94.1428 163.159C93.407 163.159 92.7723 162.997 92.2386 162.672C91.7083 162.344 91.299 161.886 91.0107 161.3C90.7256 160.71 90.5831 160.024 90.5831 159.241C90.5831 158.459 90.7256 157.77 91.0107 157.173C91.299 156.573 91.7 156.106 92.2138 155.771C92.7308 155.433 93.334 155.264 94.0234 155.264C94.4212 155.264 94.8139 155.33 95.2017 155.463C95.5895 155.596 95.9425 155.811 96.2607 156.109C96.5788 156.404 96.8324 156.795 97.0213 157.283C97.2102 157.77 97.3047 158.37 97.3047 159.082V159.58H91.4183V158.565H96.1115C96.1115 158.134 96.0253 157.75 95.853 157.412C95.6839 157.074 95.442 156.807 95.1271 156.612C94.8156 156.416 94.4477 156.318 94.0234 156.318C93.5561 156.318 93.1518 156.434 92.8104 156.666C92.4723 156.895 92.2121 157.193 92.0298 157.561C91.8475 157.929 91.7564 158.323 91.7564 158.744V159.42C91.7564 159.997 91.8558 160.486 92.0547 160.887C92.2569 161.285 92.5369 161.588 92.8949 161.797C93.2528 162.002 93.6688 162.105 94.1428 162.105C94.451 162.105 94.7294 162.062 94.978 161.976C95.2299 161.886 95.447 161.754 95.6293 161.578C95.8116 161.399 95.9524 161.177 96.0518 160.912L97.1854 161.23C97.0661 161.615 96.8655 161.953 96.5838 162.244C96.3021 162.533 95.9541 162.758 95.5398 162.92C95.1255 163.08 94.6598 163.159 94.1428 163.159ZM106.348 155.364V156.358H102.391V155.364H106.348ZM103.544 153.534H104.717V160.812C104.717 161.144 104.765 161.393 104.862 161.558C104.961 161.721 105.087 161.83 105.239 161.886C105.395 161.939 105.559 161.966 105.732 161.966C105.861 161.966 105.967 161.959 106.05 161.946C106.133 161.929 106.199 161.916 106.249 161.906L106.487 162.96C106.408 162.99 106.297 163.02 106.154 163.05C106.012 163.083 105.831 163.099 105.612 163.099C105.281 163.099 104.956 163.028 104.638 162.886C104.323 162.743 104.061 162.526 103.852 162.234C103.647 161.943 103.544 161.575 103.544 161.131V153.534ZM109.45 158.406V163H108.277V152.818H109.45V156.557H109.55C109.729 156.162 109.997 155.849 110.355 155.617C110.716 155.382 111.197 155.264 111.797 155.264C112.317 155.264 112.773 155.369 113.164 155.577C113.555 155.783 113.858 156.099 114.074 156.527C114.293 156.951 114.402 157.491 114.402 158.148V163H113.229V158.227C113.229 157.621 113.071 157.152 112.756 156.82C112.445 156.486 112.012 156.318 111.459 156.318C111.074 156.318 110.73 156.399 110.425 156.562C110.123 156.724 109.884 156.961 109.709 157.273C109.536 157.584 109.45 157.962 109.45 158.406ZM119.75 163.159C119.014 163.159 118.38 162.997 117.846 162.672C117.316 162.344 116.906 161.886 116.618 161.3C116.333 160.71 116.191 160.024 116.191 159.241C116.191 158.459 116.333 157.77 116.618 157.173C116.906 156.573 117.307 156.106 117.821 155.771C118.338 155.433 118.941 155.264 119.631 155.264C120.029 155.264 120.421 155.33 120.809 155.463C121.197 155.596 121.55 155.811 121.868 156.109C122.186 156.404 122.44 156.795 122.629 157.283C122.818 157.77 122.912 158.37 122.912 159.082V159.58H117.026V158.565H121.719C121.719 158.134 121.633 157.75 121.46 157.412C121.291 157.074 121.049 156.807 120.735 156.612C120.423 156.416 120.055 156.318 119.631 156.318C119.164 156.318 118.759 156.434 118.418 156.666C118.08 156.895 117.82 157.193 117.637 157.561C117.455 157.929 117.364 158.323 117.364 158.744V159.42C117.364 159.997 117.463 160.486 117.662 160.887C117.864 161.285 118.144 161.588 118.502 161.797C118.86 162.002 119.276 162.105 119.75 162.105C120.058 162.105 120.337 162.062 120.585 161.976C120.837 161.886 121.054 161.754 121.237 161.578C121.419 161.399 121.56 161.177 121.659 160.912L122.793 161.23C122.673 161.615 122.473 161.953 122.191 162.244C121.91 162.533 121.561 162.758 121.147 162.92C120.733 163.08 120.267 163.159 119.75 163.159ZM134.879 155.364L132.055 163H130.862L128.038 155.364H129.311L131.419 161.449H131.498L133.606 155.364H134.879ZM139.256 163.159C138.567 163.159 137.962 162.995 137.442 162.667C136.925 162.339 136.52 161.88 136.229 161.29C135.94 160.7 135.796 160.01 135.796 159.222C135.796 158.426 135.94 157.732 136.229 157.138C136.52 156.545 136.925 156.085 137.442 155.756C137.962 155.428 138.567 155.264 139.256 155.264C139.946 155.264 140.549 155.428 141.066 155.756C141.586 156.085 141.991 156.545 142.279 157.138C142.571 157.732 142.716 158.426 142.716 159.222C142.716 160.01 142.571 160.7 142.279 161.29C141.991 161.88 141.586 162.339 141.066 162.667C140.549 162.995 139.946 163.159 139.256 163.159ZM139.256 162.105C139.78 162.105 140.211 161.971 140.549 161.702C140.887 161.434 141.137 161.081 141.3 160.643C141.462 160.206 141.543 159.732 141.543 159.222C141.543 158.711 141.462 158.236 141.3 157.795C141.137 157.354 140.887 156.998 140.549 156.726C140.211 156.454 139.78 156.318 139.256 156.318C138.733 156.318 138.302 156.454 137.964 156.726C137.626 156.998 137.375 157.354 137.213 157.795C137.05 158.236 136.969 158.711 136.969 159.222C136.969 159.732 137.05 160.206 137.213 160.643C137.375 161.081 137.626 161.434 137.964 161.702C138.302 161.971 138.733 162.105 139.256 162.105ZM145.681 152.818V163H144.507V152.818H145.681ZM152.642 159.878V155.364H153.816V163H152.642V161.707H152.563C152.384 162.095 152.105 162.425 151.727 162.697C151.35 162.965 150.872 163.099 150.296 163.099C149.818 163.099 149.394 162.995 149.023 162.786C148.652 162.574 148.36 162.256 148.148 161.832C147.936 161.404 147.83 160.866 147.83 160.216V155.364H149.003V160.136C149.003 160.693 149.159 161.137 149.47 161.469C149.785 161.8 150.186 161.966 150.673 161.966C150.965 161.966 151.262 161.891 151.563 161.742C151.868 161.593 152.124 161.364 152.329 161.056C152.538 160.748 152.642 160.355 152.642 159.878ZM155.964 163V155.364H157.098V156.557H157.197C157.357 156.149 157.613 155.833 157.968 155.607C158.323 155.379 158.749 155.264 159.246 155.264C159.75 155.264 160.169 155.379 160.504 155.607C160.842 155.833 161.105 156.149 161.294 156.557H161.374C161.569 156.162 161.862 155.849 162.254 155.617C162.645 155.382 163.114 155.264 163.661 155.264C164.343 155.264 164.902 155.478 165.336 155.906C165.77 156.33 165.987 156.991 165.987 157.889V163H164.814V157.889C164.814 157.326 164.66 156.923 164.352 156.681C164.043 156.439 163.68 156.318 163.263 156.318C162.726 156.318 162.31 156.481 162.015 156.805C161.72 157.127 161.572 157.535 161.572 158.028V163H160.379V157.77C160.379 157.336 160.238 156.986 159.957 156.721C159.675 156.452 159.312 156.318 158.868 156.318C158.563 156.318 158.278 156.399 158.013 156.562C157.751 156.724 157.539 156.95 157.376 157.238C157.217 157.523 157.138 157.853 157.138 158.227V163H155.964ZM171.334 163.159C170.598 163.159 169.964 162.997 169.43 162.672C168.9 162.344 168.49 161.886 168.202 161.3C167.917 160.71 167.775 160.024 167.775 159.241C167.775 158.459 167.917 157.77 168.202 157.173C168.49 156.573 168.891 156.106 169.405 155.771C169.922 155.433 170.525 155.264 171.215 155.264C171.613 155.264 172.005 155.33 172.393 155.463C172.781 155.596 173.134 155.811 173.452 156.109C173.77 156.404 174.024 156.795 174.213 157.283C174.402 157.77 174.496 158.37 174.496 159.082V159.58H168.61V158.565H173.303C173.303 158.134 173.217 157.75 173.044 157.412C172.875 157.074 172.633 156.807 172.319 156.612C172.007 156.416 171.639 156.318 171.215 156.318C170.748 156.318 170.343 156.434 170.002 156.666C169.664 156.895 169.404 157.193 169.221 157.561C169.039 157.929 168.948 158.323 168.948 158.744V159.42C168.948 159.997 169.047 160.486 169.246 160.887C169.448 161.285 169.728 161.588 170.086 161.797C170.444 162.002 170.86 162.105 171.334 162.105C171.642 162.105 171.921 162.062 172.169 161.976C172.421 161.886 172.638 161.754 172.821 161.578C173.003 161.399 173.144 161.177 173.243 160.912L174.377 161.23C174.257 161.615 174.057 161.953 173.775 162.244C173.493 162.533 173.145 162.758 172.731 162.92C172.317 163.08 171.851 163.159 171.334 163.159ZM183.321 163.159C182.631 163.159 182.026 162.995 181.506 162.667C180.989 162.339 180.585 161.88 180.293 161.29C180.005 160.7 179.86 160.01 179.86 159.222C179.86 158.426 180.005 157.732 180.293 157.138C180.585 156.545 180.989 156.085 181.506 155.756C182.026 155.428 182.631 155.264 183.321 155.264C184.01 155.264 184.613 155.428 185.13 155.756C185.651 156.085 186.055 156.545 186.343 157.138C186.635 157.732 186.781 158.426 186.781 159.222C186.781 160.01 186.635 160.7 186.343 161.29C186.055 161.88 185.651 162.339 185.13 162.667C184.613 162.995 184.01 163.159 183.321 163.159ZM183.321 162.105C183.844 162.105 184.275 161.971 184.613 161.702C184.951 161.434 185.202 161.081 185.364 160.643C185.526 160.206 185.608 159.732 185.608 159.222C185.608 158.711 185.526 158.236 185.364 157.795C185.202 157.354 184.951 156.998 184.613 156.726C184.275 156.454 183.844 156.318 183.321 156.318C182.797 156.318 182.366 156.454 182.028 156.726C181.69 156.998 181.44 157.354 181.277 157.795C181.115 158.236 181.034 158.711 181.034 159.222C181.034 159.732 181.115 160.206 181.277 160.643C181.44 161.081 181.69 161.434 182.028 161.702C182.366 161.971 182.797 162.105 183.321 162.105ZM191.972 155.364V156.358H187.856V155.364H191.972ZM189.089 163V154.31C189.089 153.872 189.192 153.508 189.397 153.216C189.603 152.924 189.869 152.705 190.198 152.56C190.526 152.414 190.872 152.341 191.237 152.341C191.525 152.341 191.76 152.364 191.943 152.411C192.125 152.457 192.261 152.5 192.35 152.54L192.012 153.554C191.953 153.534 191.87 153.509 191.764 153.479C191.661 153.45 191.525 153.435 191.356 153.435C190.968 153.435 190.688 153.532 190.516 153.728C190.347 153.924 190.262 154.21 190.262 154.588V163H189.089ZM198.31 165.844C198.111 165.844 197.934 165.827 197.778 165.794C197.622 165.764 197.515 165.734 197.455 165.705L197.753 164.67C198.181 164.78 198.537 164.777 198.822 164.661C199.107 164.548 199.354 164.206 199.563 163.636L199.782 163.04L196.958 155.364H198.23L200.338 161.449H200.418L202.526 155.364L203.809 155.384L200.557 164.114C200.411 164.501 200.231 164.823 200.015 165.078C199.8 165.337 199.55 165.529 199.265 165.655C198.983 165.781 198.665 165.844 198.31 165.844ZM208.19 163.159C207.5 163.159 206.896 162.995 206.375 162.667C205.858 162.339 205.454 161.88 205.162 161.29C204.874 160.7 204.73 160.01 204.73 159.222C204.73 158.426 204.874 157.732 205.162 157.138C205.454 156.545 205.858 156.085 206.375 155.756C206.896 155.428 207.5 155.264 208.19 155.264C208.879 155.264 209.482 155.428 209.999 155.756C210.52 156.085 210.924 156.545 211.213 157.138C211.504 157.732 211.65 158.426 211.65 159.222C211.65 160.01 211.504 160.7 211.213 161.29C210.924 161.88 210.52 162.339 209.999 162.667C209.482 162.995 208.879 163.159 208.19 163.159ZM208.19 162.105C208.713 162.105 209.144 161.971 209.482 161.702C209.82 161.434 210.071 161.081 210.233 160.643C210.396 160.206 210.477 159.732 210.477 159.222C210.477 158.711 210.396 158.236 210.233 157.795C210.071 157.354 209.82 156.998 209.482 156.726C209.144 156.454 208.713 156.318 208.19 156.318C207.666 156.318 207.235 156.454 206.897 156.726C206.559 156.998 206.309 157.354 206.146 157.795C205.984 158.236 205.903 158.711 205.903 159.222C205.903 159.732 205.984 160.206 206.146 160.643C206.309 161.081 206.559 161.434 206.897 161.702C207.235 161.971 207.666 162.105 208.19 162.105ZM218.254 159.878V155.364H219.427V163H218.254V161.707H218.174C217.995 162.095 217.717 162.425 217.339 162.697C216.961 162.965 216.484 163.099 215.907 163.099C215.43 163.099 215.005 162.995 214.634 162.786C214.263 162.574 213.971 162.256 213.759 161.832C213.547 161.404 213.441 160.866 213.441 160.216V155.364H214.614V160.136C214.614 160.693 214.77 161.137 215.082 161.469C215.397 161.8 215.798 161.966 216.285 161.966C216.576 161.966 216.873 161.891 217.175 161.742C217.48 161.593 217.735 161.364 217.94 161.056C218.149 160.748 218.254 160.355 218.254 159.878ZM221.576 163V155.364H222.709V156.517H222.789C222.928 156.139 223.18 155.833 223.545 155.597C223.909 155.362 224.32 155.244 224.778 155.244C224.864 155.244 224.971 155.246 225.101 155.249C225.23 155.253 225.328 155.258 225.394 155.264V156.457C225.354 156.447 225.263 156.433 225.121 156.413C224.981 156.389 224.834 156.378 224.678 156.378C224.307 156.378 223.975 156.456 223.684 156.612C223.395 156.764 223.167 156.976 222.998 157.248C222.832 157.516 222.749 157.823 222.749 158.168V163H221.576ZM231.896 158.406V163H230.722V155.364H231.856V156.557H231.955C232.134 156.169 232.406 155.857 232.771 155.622C233.135 155.384 233.606 155.264 234.183 155.264C234.7 155.264 235.152 155.37 235.54 155.582C235.928 155.791 236.229 156.109 236.445 156.537C236.66 156.961 236.768 157.498 236.768 158.148V163H235.594V158.227C235.594 157.627 235.439 157.16 235.127 156.825C234.816 156.487 234.388 156.318 233.844 156.318C233.47 156.318 233.135 156.399 232.84 156.562C232.549 156.724 232.318 156.961 232.149 157.273C231.98 157.584 231.896 157.962 231.896 158.406ZM242.014 163.159C241.325 163.159 240.72 162.995 240.199 162.667C239.682 162.339 239.278 161.88 238.986 161.29C238.698 160.7 238.554 160.01 238.554 159.222C238.554 158.426 238.698 157.732 238.986 157.138C239.278 156.545 239.682 156.085 240.199 155.756C240.72 155.428 241.325 155.264 242.014 155.264C242.703 155.264 243.307 155.428 243.824 155.756C244.344 156.085 244.748 156.545 245.037 157.138C245.328 157.732 245.474 158.426 245.474 159.222C245.474 160.01 245.328 160.7 245.037 161.29C244.748 161.88 244.344 162.339 243.824 162.667C243.307 162.995 242.703 163.159 242.014 163.159ZM242.014 162.105C242.538 162.105 242.969 161.971 243.307 161.702C243.645 161.434 243.895 161.081 244.057 160.643C244.22 160.206 244.301 159.732 244.301 159.222C244.301 158.711 244.22 158.236 244.057 157.795C243.895 157.354 243.645 156.998 243.307 156.726C242.969 156.454 242.538 156.318 242.014 156.318C241.49 156.318 241.059 156.454 240.721 156.726C240.383 156.998 240.133 157.354 239.971 157.795C239.808 158.236 239.727 158.711 239.727 159.222C239.727 159.732 239.808 160.206 239.971 160.643C240.133 161.081 240.383 161.434 240.721 161.702C241.059 161.971 241.49 162.105 242.014 162.105ZM250.586 155.364V156.358H246.629V155.364H250.586ZM247.782 153.534H248.956V160.812C248.956 161.144 249.004 161.393 249.1 161.558C249.199 161.721 249.325 161.83 249.478 161.886C249.633 161.939 249.797 161.966 249.97 161.966C250.099 161.966 250.205 161.959 250.288 161.946C250.371 161.929 250.437 161.916 250.487 161.906L250.725 162.96C250.646 162.99 250.535 163.02 250.392 163.05C250.25 163.083 250.069 163.099 249.85 163.099C249.519 163.099 249.194 163.028 248.876 162.886C248.561 162.743 248.299 162.526 248.091 162.234C247.885 161.943 247.782 161.575 247.782 161.131V153.534ZM252.351 163V155.364H253.525V163H252.351ZM252.948 154.091C252.719 154.091 252.522 154.013 252.356 153.857C252.194 153.701 252.113 153.514 252.113 153.295C252.113 153.077 252.194 152.889 252.356 152.734C252.522 152.578 252.719 152.5 252.948 152.5C253.176 152.5 253.372 152.578 253.534 152.734C253.7 152.889 253.783 153.077 253.783 153.295C253.783 153.514 253.7 153.701 253.534 153.857C253.372 154.013 253.176 154.091 252.948 154.091ZM259.074 155.364V156.358H254.958V155.364H259.074ZM256.191 163V154.31C256.191 153.872 256.293 153.508 256.499 153.216C256.704 152.924 256.971 152.705 257.299 152.56C257.627 152.414 257.974 152.341 258.338 152.341C258.627 152.341 258.862 152.364 259.044 152.411C259.227 152.457 259.362 152.5 259.452 152.54L259.114 153.554C259.054 153.534 258.971 153.509 258.865 153.479C258.762 153.45 258.627 153.435 258.458 153.435C258.07 153.435 257.79 153.532 257.617 153.728C257.448 153.924 257.364 154.21 257.364 154.588V163H256.191ZM260.718 163V155.364H261.892V163H260.718ZM261.315 154.091C261.086 154.091 260.889 154.013 260.723 153.857C260.561 153.701 260.48 153.514 260.48 153.295C260.48 153.077 260.561 152.889 260.723 152.734C260.889 152.578 261.086 152.5 261.315 152.5C261.544 152.5 261.739 152.578 261.902 152.734C262.067 152.889 262.15 153.077 262.15 153.295C262.15 153.514 262.067 153.701 261.902 153.857C261.739 154.013 261.544 154.091 261.315 154.091ZM267.143 163.159C266.427 163.159 265.811 162.99 265.294 162.652C264.776 162.314 264.379 161.848 264.1 161.255C263.822 160.662 263.683 159.984 263.683 159.222C263.683 158.446 263.825 157.762 264.11 157.168C264.399 156.572 264.8 156.106 265.313 155.771C265.83 155.433 266.434 155.264 267.123 155.264C267.66 155.264 268.144 155.364 268.575 155.562C269.006 155.761 269.359 156.04 269.634 156.398C269.909 156.756 270.079 157.173 270.146 157.651H268.972C268.883 157.303 268.684 156.994 268.376 156.726C268.071 156.454 267.66 156.318 267.143 156.318C266.686 156.318 266.285 156.437 265.94 156.676C265.598 156.911 265.332 157.245 265.139 157.675C264.95 158.103 264.856 158.605 264.856 159.182C264.856 159.772 264.949 160.286 265.134 160.723C265.323 161.161 265.588 161.5 265.93 161.742C266.275 161.984 266.679 162.105 267.143 162.105C267.448 162.105 267.725 162.052 267.973 161.946C268.222 161.84 268.432 161.688 268.605 161.489C268.777 161.29 268.9 161.051 268.972 160.773H270.146C270.079 161.223 269.915 161.629 269.654 161.991C269.395 162.349 269.052 162.634 268.624 162.846C268.2 163.055 267.706 163.159 267.143 163.159ZM274.108 163.179C273.624 163.179 273.185 163.088 272.791 162.906C272.396 162.72 272.083 162.453 271.851 162.105C271.619 161.754 271.503 161.33 271.503 160.832C271.503 160.395 271.589 160.04 271.762 159.768C271.934 159.493 272.164 159.278 272.453 159.122C272.741 158.966 273.059 158.85 273.407 158.774C273.758 158.695 274.111 158.632 274.466 158.585C274.93 158.526 275.306 158.481 275.595 158.451C275.886 158.418 276.098 158.363 276.231 158.287C276.367 158.211 276.435 158.078 276.435 157.889V157.849C276.435 157.359 276.301 156.978 276.032 156.706C275.767 156.434 275.364 156.298 274.824 156.298C274.264 156.298 273.825 156.421 273.507 156.666C273.188 156.911 272.965 157.173 272.835 157.452L271.722 157.054C271.921 156.59 272.186 156.229 272.517 155.97C272.852 155.708 273.217 155.526 273.611 155.423C274.009 155.317 274.4 155.264 274.784 155.264C275.03 155.264 275.311 155.294 275.629 155.354C275.951 155.41 276.261 155.528 276.559 155.707C276.861 155.886 277.111 156.156 277.31 156.517C277.509 156.878 277.608 157.362 277.608 157.969V163H276.435V161.966H276.375C276.296 162.132 276.163 162.309 275.977 162.498C275.792 162.687 275.545 162.848 275.237 162.98C274.928 163.113 274.552 163.179 274.108 163.179ZM274.287 162.125C274.751 162.125 275.142 162.034 275.46 161.852C275.782 161.669 276.024 161.434 276.186 161.146C276.352 160.857 276.435 160.554 276.435 160.236V159.162C276.385 159.222 276.276 159.276 276.107 159.326C275.941 159.372 275.749 159.414 275.53 159.45C275.315 159.483 275.104 159.513 274.899 159.54C274.696 159.563 274.532 159.583 274.406 159.599C274.102 159.639 273.816 159.704 273.551 159.793C273.289 159.879 273.077 160.01 272.915 160.186C272.756 160.358 272.676 160.594 272.676 160.892C272.676 161.3 272.827 161.608 273.129 161.817C273.434 162.022 273.82 162.125 274.287 162.125ZM283.071 155.364V156.358H279.113V155.364H283.071ZM280.267 153.534H281.44V160.812C281.44 161.144 281.488 161.393 281.584 161.558C281.684 161.721 281.81 161.83 281.962 161.886C282.118 161.939 282.282 161.966 282.454 161.966C282.583 161.966 282.69 161.959 282.772 161.946C282.855 161.929 282.922 161.916 282.971 161.906L283.21 162.96C283.13 162.99 283.019 163.02 282.877 163.05C282.734 163.083 282.554 163.099 282.335 163.099C282.003 163.099 281.679 163.028 281.36 162.886C281.046 162.743 280.784 162.526 280.575 162.234C280.369 161.943 280.267 161.575 280.267 161.131V153.534ZM284.836 163V155.364H286.009V163H284.836ZM285.432 154.091C285.203 154.091 285.006 154.013 284.841 153.857C284.678 153.701 284.597 153.514 284.597 153.295C284.597 153.077 284.678 152.889 284.841 152.734C285.006 152.578 285.203 152.5 285.432 152.5C285.661 152.5 285.856 152.578 286.019 152.734C286.185 152.889 286.267 153.077 286.267 153.295C286.267 153.514 286.185 153.701 286.019 153.857C285.856 154.013 285.661 154.091 285.432 154.091ZM291.26 163.159C290.571 163.159 289.966 162.995 289.445 162.667C288.928 162.339 288.524 161.88 288.232 161.29C287.944 160.7 287.8 160.01 287.8 159.222C287.8 158.426 287.944 157.732 288.232 157.138C288.524 156.545 288.928 156.085 289.445 155.756C289.966 155.428 290.571 155.264 291.26 155.264C291.95 155.264 292.553 155.428 293.07 155.756C293.59 156.085 293.994 156.545 294.283 157.138C294.575 157.732 294.72 158.426 294.72 159.222C294.72 160.01 294.575 160.7 294.283 161.29C293.994 161.88 293.59 162.339 293.07 162.667C292.553 162.995 291.95 163.159 291.26 163.159ZM291.26 162.105C291.784 162.105 292.215 161.971 292.553 161.702C292.891 161.434 293.141 161.081 293.303 160.643C293.466 160.206 293.547 159.732 293.547 159.222C293.547 158.711 293.466 158.236 293.303 157.795C293.141 157.354 292.891 156.998 292.553 156.726C292.215 156.454 291.784 156.318 291.26 156.318C290.736 156.318 290.306 156.454 289.968 156.726C289.629 156.998 289.379 157.354 289.217 157.795C289.054 158.236 288.973 158.711 288.973 159.222C288.973 159.732 289.054 160.206 289.217 160.643C289.379 161.081 289.629 161.434 289.968 161.702C290.306 161.971 290.736 162.105 291.26 162.105ZM297.685 158.406V163H296.511V155.364H297.645V156.557H297.744C297.923 156.169 298.195 155.857 298.56 155.622C298.924 155.384 299.395 155.264 299.972 155.264C300.489 155.264 300.941 155.37 301.329 155.582C301.717 155.791 302.018 156.109 302.234 156.537C302.449 156.961 302.557 157.498 302.557 158.148V163H301.384V158.227C301.384 157.627 301.228 157.16 300.916 156.825C300.605 156.487 300.177 156.318 299.634 156.318C299.259 156.318 298.924 156.399 298.629 156.562C298.338 156.724 298.107 156.961 297.938 157.273C297.769 157.584 297.685 157.962 297.685 158.406ZM314.047 157.074L312.993 157.372C312.927 157.196 312.829 157.026 312.7 156.86C312.574 156.691 312.402 156.552 312.183 156.442C311.964 156.333 311.684 156.278 311.343 156.278C310.876 156.278 310.486 156.386 310.175 156.602C309.866 156.814 309.712 157.084 309.712 157.412C309.712 157.704 309.818 157.934 310.03 158.103C310.242 158.272 310.574 158.413 311.025 158.526L312.158 158.804C312.841 158.97 313.35 159.223 313.684 159.565C314.019 159.903 314.187 160.339 314.187 160.872C314.187 161.31 314.061 161.701 313.809 162.045C313.56 162.39 313.212 162.662 312.765 162.861C312.317 163.06 311.797 163.159 311.204 163.159C310.425 163.159 309.78 162.99 309.27 162.652C308.759 162.314 308.436 161.82 308.3 161.17L309.414 160.892C309.52 161.303 309.72 161.611 310.015 161.817C310.314 162.022 310.703 162.125 311.184 162.125C311.731 162.125 312.165 162.009 312.486 161.777C312.811 161.542 312.974 161.26 312.974 160.932C312.974 160.667 312.881 160.445 312.695 160.266C312.51 160.083 312.224 159.947 311.84 159.858L310.567 159.56C309.868 159.394 309.354 159.137 309.026 158.789C308.701 158.438 308.539 157.999 308.539 157.472C308.539 157.041 308.66 156.66 308.902 156.328C309.147 155.997 309.48 155.737 309.901 155.548C310.325 155.359 310.806 155.264 311.343 155.264C312.099 155.264 312.692 155.43 313.123 155.761C313.557 156.093 313.865 156.53 314.047 157.074ZM319.055 163.159C318.366 163.159 317.761 162.995 317.24 162.667C316.723 162.339 316.319 161.88 316.027 161.29C315.739 160.7 315.595 160.01 315.595 159.222C315.595 158.426 315.739 157.732 316.027 157.138C316.319 156.545 316.723 156.085 317.24 155.756C317.761 155.428 318.366 155.264 319.055 155.264C319.744 155.264 320.348 155.428 320.865 155.756C321.385 156.085 321.789 156.545 322.078 157.138C322.369 157.732 322.515 158.426 322.515 159.222C322.515 160.01 322.369 160.7 322.078 161.29C321.789 161.88 321.385 162.339 320.865 162.667C320.348 162.995 319.744 163.159 319.055 163.159ZM319.055 162.105C319.579 162.105 320.01 161.971 320.348 161.702C320.686 161.434 320.936 161.081 321.098 160.643C321.261 160.206 321.342 159.732 321.342 159.222C321.342 158.711 321.261 158.236 321.098 157.795C320.936 157.354 320.686 156.998 320.348 156.726C320.01 156.454 319.579 156.318 319.055 156.318C318.531 156.318 318.1 156.454 317.762 156.726C317.424 156.998 317.174 157.354 317.012 157.795C316.849 158.236 316.768 158.711 316.768 159.222C316.768 159.732 316.849 160.206 317.012 160.643C317.174 161.081 317.424 161.434 317.762 161.702C318.1 161.971 318.531 162.105 319.055 162.105ZM329.119 159.878V155.364H330.292V163H329.119V161.707H329.039C328.86 162.095 328.582 162.425 328.204 162.697C327.826 162.965 327.349 163.099 326.772 163.099C326.295 163.099 325.871 162.995 325.499 162.786C325.128 162.574 324.837 162.256 324.624 161.832C324.412 161.404 324.306 160.866 324.306 160.216V155.364H325.48V160.136C325.48 160.693 325.635 161.137 325.947 161.469C326.262 161.8 326.663 161.966 327.15 161.966C327.442 161.966 327.738 161.891 328.04 161.742C328.345 161.593 328.6 161.364 328.806 161.056C329.014 160.748 329.119 160.355 329.119 159.878ZM333.614 158.406V163H332.441V155.364H333.575V156.557H333.674C333.853 156.169 334.125 155.857 334.489 155.622C334.854 155.384 335.325 155.264 335.901 155.264C336.418 155.264 336.871 155.37 337.259 155.582C337.646 155.791 337.948 156.109 338.163 156.537C338.379 156.961 338.487 157.498 338.487 158.148V163H337.313V158.227C337.313 157.627 337.157 157.16 336.846 156.825C336.534 156.487 336.107 156.318 335.563 156.318C335.189 156.318 334.854 156.399 334.559 156.562C334.267 156.724 334.037 156.961 333.868 157.273C333.699 157.584 333.614 157.962 333.614 158.406ZM343.514 163.159C342.878 163.159 342.316 162.998 341.829 162.677C341.341 162.352 340.96 161.895 340.685 161.305C340.41 160.711 340.273 160.01 340.273 159.202C340.273 158.4 340.41 157.704 340.685 157.114C340.96 156.524 341.343 156.068 341.834 155.746C342.324 155.425 342.891 155.264 343.534 155.264C344.031 155.264 344.424 155.347 344.712 155.513C345.004 155.675 345.226 155.861 345.378 156.07C345.534 156.275 345.655 156.444 345.741 156.577H345.841V152.818H347.014V163H345.881V161.827H345.741C345.655 161.966 345.532 162.142 345.373 162.354C345.214 162.562 344.987 162.75 344.692 162.915C344.397 163.078 344.005 163.159 343.514 163.159ZM343.673 162.105C344.144 162.105 344.541 161.982 344.866 161.737C345.191 161.489 345.438 161.146 345.607 160.708C345.776 160.267 345.861 159.759 345.861 159.182C345.861 158.612 345.778 158.113 345.612 157.685C345.446 157.254 345.201 156.92 344.876 156.681C344.551 156.439 344.15 156.318 343.673 156.318C343.176 156.318 342.762 156.446 342.43 156.701C342.102 156.953 341.855 157.296 341.689 157.73C341.527 158.161 341.446 158.645 341.446 159.182C341.446 159.725 341.529 160.219 341.694 160.663C341.863 161.104 342.112 161.455 342.44 161.717C342.772 161.976 343.183 162.105 343.673 162.105ZM354.735 157.074L353.681 157.372C353.615 157.196 353.517 157.026 353.388 156.86C353.262 156.691 353.089 156.552 352.871 156.442C352.652 156.333 352.372 156.278 352.03 156.278C351.563 156.278 351.174 156.386 350.862 156.602C350.554 156.814 350.4 157.084 350.4 157.412C350.4 157.704 350.506 157.934 350.718 158.103C350.93 158.272 351.261 158.413 351.712 158.526L352.846 158.804C353.528 158.97 354.037 159.223 354.372 159.565C354.707 159.903 354.874 160.339 354.874 160.872C354.874 161.31 354.748 161.701 354.496 162.045C354.248 162.39 353.9 162.662 353.452 162.861C353.005 163.06 352.484 163.159 351.891 163.159C351.112 163.159 350.468 162.99 349.957 162.652C349.447 162.314 349.124 161.82 348.988 161.17L350.101 160.892C350.207 161.303 350.408 161.611 350.703 161.817C351.001 162.022 351.391 162.125 351.871 162.125C352.418 162.125 352.852 162.009 353.174 161.777C353.499 161.542 353.661 161.26 353.661 160.932C353.661 160.667 353.568 160.445 353.383 160.266C353.197 160.083 352.912 159.947 352.528 159.858L351.255 159.56C350.555 159.394 350.042 159.137 349.714 158.789C349.389 158.438 349.226 157.999 349.226 157.472C349.226 157.041 349.347 156.66 349.589 156.328C349.835 155.997 350.168 155.737 350.589 155.548C351.013 155.359 351.493 155.264 352.03 155.264C352.786 155.264 353.379 155.43 353.81 155.761C354.244 156.093 354.553 156.53 354.735 157.074ZM358.39 161.608L358.311 162.145C358.254 162.523 358.168 162.927 358.052 163.358C357.94 163.789 357.822 164.195 357.699 164.576C357.577 164.957 357.475 165.26 357.396 165.486H356.501C356.544 165.274 356.6 164.994 356.67 164.646C356.74 164.298 356.809 163.908 356.879 163.477C356.952 163.05 357.011 162.612 357.058 162.165L357.118 161.608H358.39Z" fill="white" fill-opacity="0.7"/>
<path d="M364.324 163.49H365.766C365.831 163.863 366.018 164.153 366.326 164.358C366.643 164.563 367.058 164.666 367.572 164.666C368.29 164.666 368.827 164.479 369.182 164.106C369.48 163.789 369.63 163.345 369.63 162.776V161.838C369.088 162.473 368.281 162.79 367.208 162.79C366.237 162.79 365.448 162.44 364.842 161.74C364.272 161.087 363.988 160.237 363.988 159.192C363.988 157.979 364.333 157.041 365.024 156.378C365.612 155.799 366.368 155.51 367.292 155.51C368.337 155.51 369.126 155.902 369.658 156.686L369.868 155.72H370.974V162.846C370.974 163.761 370.642 164.479 369.98 165.002C369.382 165.487 368.594 165.73 367.614 165.73C366.596 165.73 365.798 165.501 365.22 165.044C364.734 164.661 364.436 164.143 364.324 163.49ZM365.388 159.22C365.388 160.013 365.621 160.634 366.088 161.082C366.47 161.455 366.942 161.642 367.502 161.642C368.239 161.642 368.804 161.399 369.196 160.914C369.532 160.503 369.7 159.953 369.7 159.262C369.7 158.375 369.471 157.699 369.014 157.232C368.631 156.849 368.127 156.658 367.502 156.658C366.811 156.658 366.279 156.896 365.906 157.372C365.56 157.82 365.388 158.436 365.388 159.22ZM372.519 159.36C372.519 158.025 372.916 157.017 373.709 156.336C374.344 155.785 375.146 155.51 376.117 155.51C377.246 155.51 378.133 155.869 378.777 156.588C379.393 157.26 379.701 158.184 379.701 159.36C379.701 160.676 379.314 161.679 378.539 162.37C377.904 162.93 377.092 163.21 376.103 163.21C374.974 163.21 374.082 162.837 373.429 162.09C372.822 161.409 372.519 160.499 372.519 159.36ZM373.919 159.36C373.919 160.293 374.157 161.007 374.633 161.502C375.025 161.913 375.524 162.118 376.131 162.118C376.84 162.118 377.386 161.852 377.769 161.32C378.124 160.835 378.301 160.181 378.301 159.36C378.301 158.408 378.068 157.689 377.601 157.204C377.218 156.803 376.724 156.602 376.117 156.602C375.417 156.602 374.871 156.868 374.479 157.4C374.106 157.885 373.919 158.539 373.919 159.36ZM388.683 161.922V163.07C388.338 163.163 388.006 163.21 387.689 163.21C387.017 163.21 386.513 163 386.177 162.58C385.888 162.235 385.743 161.773 385.743 161.194V156.868H384.665V155.72H385.743L385.827 153.97H387.087V155.72H388.655V156.868H387.087V161.222C387.087 161.763 387.344 162.034 387.857 162.034C388.1 162.034 388.375 161.997 388.683 161.922ZM389.458 159.36C389.458 158.025 389.855 157.017 390.648 156.336C391.283 155.785 392.086 155.51 393.056 155.51C394.186 155.51 395.072 155.869 395.716 156.588C396.332 157.26 396.64 158.184 396.64 159.36C396.64 160.676 396.253 161.679 395.478 162.37C394.844 162.93 394.032 163.21 393.042 163.21C391.913 163.21 391.022 162.837 390.368 162.09C389.762 161.409 389.458 160.499 389.458 159.36ZM390.858 159.36C390.858 160.293 391.096 161.007 391.572 161.502C391.964 161.913 392.464 162.118 393.07 162.118C393.78 162.118 394.326 161.852 394.708 161.32C395.063 160.835 395.24 160.181 395.24 159.36C395.24 158.408 395.007 157.689 394.54 157.204C394.158 156.803 393.663 156.602 393.056 156.602C392.356 156.602 391.81 156.868 391.418 157.4C391.045 157.885 390.858 158.539 390.858 159.36ZM411.279 163H409.697L408.703 160.452H403.901L402.893 163H401.395L405.539 152.92H407.149L411.279 163ZM406.323 154.348L404.363 159.29H408.241L406.323 154.348ZM412.189 155.72H413.533V160.494C413.533 161.539 414.037 162.062 415.045 162.062C415.661 162.062 416.133 161.843 416.459 161.404C416.711 161.068 416.837 160.653 416.837 160.158V155.72H418.181V163H417.075L416.921 162.16C416.408 162.86 415.68 163.21 414.737 163.21C413.907 163.21 413.267 162.953 412.819 162.44C412.399 161.964 412.189 161.306 412.189 160.466V155.72ZM426.714 163H425.608L425.37 161.978C424.81 162.799 424.003 163.21 422.948 163.21C421.931 163.21 421.128 162.841 420.54 162.104C419.999 161.423 419.728 160.522 419.728 159.402C419.728 158.049 420.073 157.031 420.764 156.35C421.343 155.79 422.099 155.51 423.032 155.51C424.04 155.51 424.819 155.888 425.37 156.644V152.92H426.714V163ZM421.128 159.43C421.128 160.335 421.352 161.021 421.8 161.488C422.173 161.871 422.654 162.062 423.242 162.062C423.97 162.062 424.535 161.787 424.936 161.236C425.272 160.76 425.44 160.163 425.44 159.444C425.44 158.501 425.216 157.783 424.768 157.288C424.385 156.868 423.877 156.658 423.242 156.658C422.533 156.658 421.996 156.915 421.632 157.428C421.296 157.895 421.128 158.562 421.128 159.43ZM430.107 154.502H428.595V152.92H430.107V154.502ZM430.023 163H428.679V155.72H430.023V163ZM431.568 159.36C431.568 158.025 431.964 157.017 432.758 156.336C433.392 155.785 434.195 155.51 435.166 155.51C436.295 155.51 437.182 155.869 437.826 156.588C438.442 157.26 438.75 158.184 438.75 159.36C438.75 160.676 438.362 161.679 437.588 162.37C436.953 162.93 436.141 163.21 435.152 163.21C434.022 163.21 433.131 162.837 432.478 162.09C431.871 161.409 431.568 160.499 431.568 159.36ZM432.968 159.36C432.968 160.293 433.206 161.007 433.682 161.502C434.074 161.913 434.573 162.118 435.18 162.118C435.889 162.118 436.435 161.852 436.818 161.32C437.172 160.835 437.35 160.181 437.35 159.36C437.35 158.408 437.116 157.689 436.65 157.204C436.267 156.803 435.772 156.602 435.166 156.602C434.466 156.602 433.92 156.868 433.528 157.4C433.154 157.885 432.968 158.539 432.968 159.36ZM442.014 163H440.39V161.376H442.014V163Z" fill="#64B4FA"/>
<path d="M363.428 164.26H443.302V165.45H363.428V164.26Z" fill="#64B4FA"/>
<rect x="29.5" y="94.5" width="15" height="15" rx="1.5" stroke="white" stroke-opacity="0.5"/>
<path d="M54.233 96.8182H55.7045L59.1648 105.27H59.2841L62.7443 96.8182H64.2159V107H63.0625V99.2642H62.9631L59.7812 107H58.6676L55.4858 99.2642H55.3864V107H54.233V96.8182ZM71.3414 103.878V99.3636H72.5147V107H71.3414V105.707H71.2619C71.0829 106.095 70.8045 106.425 70.4267 106.697C70.0488 106.965 69.5716 107.099 68.9949 107.099C68.5176 107.099 68.0933 106.995 67.7221 106.786C67.3509 106.574 67.0592 106.256 66.8471 105.832C66.635 105.404 66.5289 104.866 66.5289 104.216V99.3636H67.7022V104.136C67.7022 104.693 67.858 105.137 68.1696 105.469C68.4844 105.8 68.8855 105.966 69.3727 105.966C69.6644 105.966 69.961 105.891 70.2626 105.742C70.5675 105.593 70.8227 105.364 71.0282 105.056C71.237 104.748 71.3414 104.355 71.3414 103.878ZM77.9847 99.3636V100.358H74.0273V99.3636H77.9847ZM75.1808 97.5341H76.354V104.812C76.354 105.144 76.4021 105.393 76.4982 105.558C76.5977 105.721 76.7236 105.83 76.8761 105.886C77.0318 105.939 77.1959 105.966 77.3683 105.966C77.4975 105.966 77.6036 105.959 77.6864 105.946C77.7693 105.929 77.8356 105.916 77.8853 105.906L78.1239 106.96C78.0444 106.99 77.9334 107.02 77.7908 107.05C77.6483 107.083 77.4677 107.099 77.2489 107.099C76.9175 107.099 76.5927 107.028 76.2745 106.886C75.9596 106.743 75.6978 106.526 75.489 106.234C75.2835 105.943 75.1808 105.575 75.1808 105.131V97.5341ZM82.8693 107.159C82.1335 107.159 81.4988 106.997 80.9652 106.672C80.4349 106.344 80.0256 105.886 79.7372 105.3C79.4522 104.71 79.3097 104.024 79.3097 103.241C79.3097 102.459 79.4522 101.77 79.7372 101.173C80.0256 100.573 80.4266 100.106 80.9403 99.7713C81.4574 99.4332 82.0606 99.2642 82.75 99.2642C83.1477 99.2642 83.5405 99.3305 83.9283 99.4631C84.3161 99.5956 84.669 99.8111 84.9872 100.109C85.3054 100.404 85.5589 100.795 85.7479 101.283C85.9368 101.77 86.0312 102.37 86.0312 103.082V103.58H80.1449V102.565H84.8381C84.8381 102.134 84.7519 101.75 84.5795 101.412C84.4105 101.074 84.1686 100.807 83.8537 100.612C83.5421 100.416 83.1742 100.318 82.75 100.318C82.2827 100.318 81.8783 100.434 81.5369 100.666C81.1989 100.895 80.9387 101.193 80.7564 101.561C80.5741 101.929 80.483 102.323 80.483 102.744V103.42C80.483 103.997 80.5824 104.486 80.7812 104.887C80.9834 105.285 81.2635 105.588 81.6214 105.797C81.9794 106.002 82.3954 106.105 82.8693 106.105C83.1776 106.105 83.456 106.062 83.7045 105.976C83.9564 105.886 84.1735 105.754 84.3558 105.578C84.5381 105.399 84.679 105.177 84.7784 104.912L85.9119 105.23C85.7926 105.615 85.5921 105.953 85.3104 106.244C85.0286 106.533 84.6806 106.758 84.2663 106.92C83.852 107.08 83.3864 107.159 82.8693 107.159ZM93.4837 107L91.157 99.3636H92.3899L94.0405 105.21H94.12L95.7507 99.3636H97.0036L98.6143 105.19H98.6939L100.344 99.3636H101.577L99.2507 107H98.0973L96.4268 101.134H96.3075L94.6371 107H93.4837ZM104.302 102.406V107H103.129V96.8182H104.302V100.557H104.401C104.58 100.162 104.849 99.8492 105.207 99.6172C105.568 99.3819 106.049 99.2642 106.648 99.2642C107.169 99.2642 107.625 99.3686 108.016 99.5774C108.407 99.7829 108.71 100.099 108.925 100.527C109.144 100.951 109.254 101.491 109.254 102.148V107H108.08V102.227C108.08 101.621 107.923 101.152 107.608 100.82C107.296 100.486 106.864 100.318 106.31 100.318C105.926 100.318 105.581 100.399 105.276 100.562C104.975 100.724 104.736 100.961 104.56 101.273C104.388 101.584 104.302 101.962 104.302 102.406ZM114.602 107.159C113.866 107.159 113.231 106.997 112.698 106.672C112.167 106.344 111.758 105.886 111.47 105.3C111.185 104.71 111.042 104.024 111.042 103.241C111.042 102.459 111.185 101.77 111.47 101.173C111.758 100.573 112.159 100.106 112.673 99.7713C113.19 99.4332 113.793 99.2642 114.482 99.2642C114.88 99.2642 115.273 99.3305 115.661 99.4631C116.048 99.5956 116.401 99.8111 116.72 100.109C117.038 100.404 117.291 100.795 117.48 101.283C117.669 101.77 117.764 102.37 117.764 103.082V103.58H111.877V102.565H116.57C116.57 102.134 116.484 101.75 116.312 101.412C116.143 101.074 115.901 100.807 115.586 100.612C115.275 100.416 114.907 100.318 114.482 100.318C114.015 100.318 113.611 100.434 113.269 100.666C112.931 100.895 112.671 101.193 112.489 101.561C112.307 101.929 112.215 102.323 112.215 102.744V103.42C112.215 103.997 112.315 104.486 112.514 104.887C112.716 105.285 112.996 105.588 113.354 105.797C113.712 106.002 114.128 106.105 114.602 106.105C114.91 106.105 115.188 106.062 115.437 105.976C115.689 105.886 115.906 105.754 116.088 105.578C116.271 105.399 116.411 105.177 116.511 104.912L117.644 105.23C117.525 105.615 117.325 105.953 117.043 106.244C116.761 106.533 116.413 106.758 115.999 106.92C115.584 107.08 115.119 107.159 114.602 107.159ZM120.722 102.406V107H119.548V99.3636H120.682V100.557H120.781C120.96 100.169 121.232 99.8575 121.597 99.6222C121.961 99.3835 122.432 99.2642 123.009 99.2642C123.526 99.2642 123.978 99.3703 124.366 99.5824C124.754 99.7912 125.055 100.109 125.271 100.537C125.486 100.961 125.594 101.498 125.594 102.148V107H124.421V102.227C124.421 101.627 124.265 101.16 123.953 100.825C123.642 100.487 123.214 100.318 122.671 100.318C122.296 100.318 121.961 100.399 121.666 100.562C121.375 100.724 121.144 100.961 120.975 101.273C120.806 101.584 120.722 101.962 120.722 102.406ZM133.684 107L130.9 96.8182H132.153L134.281 105.111H134.38L136.548 96.8182H137.94L140.107 105.111H140.207L142.335 96.8182H143.587L140.803 107H139.531L137.283 98.8864H137.204L134.957 107H133.684ZM147.455 107.159C146.719 107.159 146.085 106.997 145.551 106.672C145.021 106.344 144.612 105.886 144.323 105.3C144.038 104.71 143.896 104.024 143.896 103.241C143.896 102.459 144.038 101.77 144.323 101.173C144.612 100.573 145.013 100.106 145.526 99.7713C146.043 99.4332 146.647 99.2642 147.336 99.2642C147.734 99.2642 148.126 99.3305 148.514 99.4631C148.902 99.5956 149.255 99.8111 149.573 100.109C149.891 100.404 150.145 100.795 150.334 101.283C150.523 101.77 150.617 102.37 150.617 103.082V103.58H144.731V102.565H149.424C149.424 102.134 149.338 101.75 149.165 101.412C148.996 101.074 148.754 100.807 148.44 100.612C148.128 100.416 147.76 100.318 147.336 100.318C146.869 100.318 146.464 100.434 146.123 100.666C145.785 100.895 145.525 101.193 145.342 101.561C145.16 101.929 145.069 102.323 145.069 102.744V103.42C145.069 103.997 145.168 104.486 145.367 104.887C145.569 105.285 145.849 105.588 146.207 105.797C146.565 106.002 146.981 106.105 147.455 106.105C147.763 106.105 148.042 106.062 148.29 105.976C148.542 105.886 148.759 105.754 148.942 105.578C149.124 105.399 149.265 105.177 149.364 104.912L150.498 105.23C150.379 105.615 150.178 105.953 149.896 106.244C149.615 106.533 149.267 106.758 148.852 106.92C148.438 107.08 147.972 107.159 147.455 107.159ZM152.561 107V96.8182H153.734V100.577H153.834C153.92 100.444 154.039 100.275 154.192 100.07C154.348 99.8608 154.57 99.6752 154.858 99.5128C155.15 99.3471 155.544 99.2642 156.041 99.2642C156.684 99.2642 157.251 99.425 157.741 99.7464C158.232 100.068 158.615 100.524 158.89 101.114C159.165 101.704 159.303 102.4 159.303 103.202C159.303 104.01 159.165 104.711 158.89 105.305C158.615 105.895 158.234 106.352 157.746 106.677C157.259 106.998 156.697 107.159 156.061 107.159C155.571 107.159 155.178 107.078 154.883 106.915C154.588 106.75 154.361 106.562 154.202 106.354C154.043 106.142 153.92 105.966 153.834 105.827H153.695V107H152.561ZM153.714 103.182C153.714 103.759 153.799 104.267 153.968 104.708C154.137 105.146 154.384 105.489 154.709 105.737C155.034 105.982 155.431 106.105 155.902 106.105C156.393 106.105 156.802 105.976 157.13 105.717C157.461 105.455 157.71 105.104 157.876 104.663C158.045 104.219 158.129 103.725 158.129 103.182C158.129 102.645 158.046 102.161 157.881 101.73C157.718 101.296 157.471 100.953 157.14 100.701C156.812 100.446 156.399 100.318 155.902 100.318C155.425 100.318 155.024 100.439 154.699 100.681C154.374 100.92 154.129 101.254 153.963 101.685C153.797 102.113 153.714 102.612 153.714 103.182ZM164.299 107.159C163.563 107.159 162.929 106.997 162.395 106.672C161.865 106.344 161.455 105.886 161.167 105.3C160.882 104.71 160.739 104.024 160.739 103.241C160.739 102.459 160.882 101.77 161.167 101.173C161.455 100.573 161.856 100.106 162.37 99.7713C162.887 99.4332 163.49 99.2642 164.18 99.2642C164.577 99.2642 164.97 99.3305 165.358 99.4631C165.746 99.5956 166.099 99.8111 166.417 100.109C166.735 100.404 166.989 100.795 167.178 101.283C167.366 101.77 167.461 102.37 167.461 103.082V103.58H161.575V102.565H166.268C166.268 102.134 166.182 101.75 166.009 101.412C165.84 101.074 165.598 100.807 165.283 100.612C164.972 100.416 164.604 100.318 164.18 100.318C163.712 100.318 163.308 100.434 162.967 100.666C162.629 100.895 162.368 101.193 162.186 101.561C162.004 101.929 161.913 102.323 161.913 102.744V103.42C161.913 103.997 162.012 104.486 162.211 104.887C162.413 105.285 162.693 105.588 163.051 105.797C163.409 106.002 163.825 106.105 164.299 106.105C164.607 106.105 164.886 106.062 165.134 105.976C165.386 105.886 165.603 105.754 165.786 105.578C165.968 105.399 166.109 105.177 166.208 104.912L167.342 105.23C167.222 105.615 167.022 105.953 166.74 106.244C166.458 106.533 166.11 106.758 165.696 106.92C165.282 107.08 164.816 107.159 164.299 107.159ZM169.916 99.3636L171.745 102.486L173.575 99.3636H174.927L172.461 103.182L174.927 107H173.575L171.745 104.037L169.916 107H168.563L170.99 103.182L168.563 99.3636H169.916ZM180.539 107V99.3636H181.712V107H180.539ZM181.135 98.0909C180.907 98.0909 180.709 98.013 180.544 97.8572C180.381 97.7015 180.3 97.5142 180.3 97.2955C180.3 97.0767 180.381 96.8894 180.544 96.7337C180.709 96.5779 180.907 96.5 181.135 96.5C181.364 96.5 181.56 96.5779 181.722 96.7337C181.888 96.8894 181.971 97.0767 181.971 97.2955C181.971 97.5142 181.888 97.7015 181.722 97.8572C181.56 98.013 181.364 98.0909 181.135 98.0909ZM189.27 101.074L188.216 101.372C188.15 101.196 188.052 101.026 187.923 100.86C187.797 100.691 187.624 100.552 187.406 100.442C187.187 100.333 186.907 100.278 186.566 100.278C186.098 100.278 185.709 100.386 185.397 100.602C185.089 100.814 184.935 101.084 184.935 101.412C184.935 101.704 185.041 101.934 185.253 102.103C185.465 102.272 185.797 102.413 186.247 102.526L187.381 102.804C188.064 102.97 188.572 103.223 188.907 103.565C189.242 103.903 189.409 104.339 189.409 104.872C189.409 105.31 189.283 105.701 189.031 106.045C188.783 106.39 188.435 106.662 187.987 106.861C187.54 107.06 187.02 107.159 186.426 107.159C185.647 107.159 185.003 106.99 184.492 106.652C183.982 106.314 183.659 105.82 183.523 105.17L184.637 104.892C184.743 105.303 184.943 105.611 185.238 105.817C185.536 106.022 185.926 106.125 186.406 106.125C186.953 106.125 187.387 106.009 187.709 105.777C188.034 105.542 188.196 105.26 188.196 104.932C188.196 104.667 188.103 104.445 187.918 104.266C187.732 104.083 187.447 103.947 187.063 103.858L185.79 103.56C185.091 103.394 184.577 103.137 184.249 102.789C183.924 102.438 183.762 101.999 183.762 101.472C183.762 101.041 183.883 100.66 184.124 100.328C184.37 99.9967 184.703 99.7365 185.124 99.5476C185.548 99.3587 186.029 99.2642 186.566 99.2642C187.321 99.2642 187.914 99.4299 188.345 99.7614C188.78 100.093 189.088 100.53 189.27 101.074ZM198.215 107.159C197.499 107.159 196.883 106.99 196.366 106.652C195.849 106.314 195.451 105.848 195.173 105.255C194.894 104.662 194.755 103.984 194.755 103.222C194.755 102.446 194.897 101.762 195.183 101.168C195.471 100.572 195.872 100.106 196.386 99.7713C196.903 99.4332 197.506 99.2642 198.195 99.2642C198.732 99.2642 199.216 99.3636 199.647 99.5625C200.078 99.7614 200.431 100.04 200.706 100.398C200.981 100.756 201.152 101.173 201.218 101.651H200.045C199.955 101.303 199.756 100.994 199.448 100.726C199.143 100.454 198.732 100.318 198.215 100.318C197.758 100.318 197.357 100.437 197.012 100.676C196.671 100.911 196.404 101.245 196.212 101.675C196.023 102.103 195.928 102.605 195.928 103.182C195.928 103.772 196.021 104.286 196.207 104.723C196.396 105.161 196.661 105.5 197.002 105.742C197.347 105.984 197.751 106.105 198.215 106.105C198.52 106.105 198.797 106.052 199.045 105.946C199.294 105.84 199.504 105.688 199.677 105.489C199.849 105.29 199.972 105.051 200.045 104.773H201.218C201.152 105.223 200.988 105.629 200.726 105.991C200.467 106.349 200.124 106.634 199.697 106.846C199.272 107.055 198.779 107.159 198.215 107.159ZM204.107 96.8182V107H202.933V96.8182H204.107ZM209.358 107.159C208.668 107.159 208.064 106.995 207.543 106.667C207.026 106.339 206.622 105.88 206.33 105.29C206.042 104.7 205.898 104.01 205.898 103.222C205.898 102.426 206.042 101.732 206.33 101.138C206.622 100.545 207.026 100.085 207.543 99.7564C208.064 99.4283 208.668 99.2642 209.358 99.2642C210.047 99.2642 210.65 99.4283 211.167 99.7564C211.688 100.085 212.092 100.545 212.381 101.138C212.672 101.732 212.818 102.426 212.818 103.222C212.818 104.01 212.672 104.7 212.381 105.29C212.092 105.88 211.688 106.339 211.167 106.667C210.65 106.995 210.047 107.159 209.358 107.159ZM209.358 106.105C209.881 106.105 210.312 105.971 210.65 105.702C210.988 105.434 211.239 105.081 211.401 104.643C211.564 104.206 211.645 103.732 211.645 103.222C211.645 102.711 211.564 102.236 211.401 101.795C211.239 101.354 210.988 100.998 210.65 100.726C210.312 100.454 209.881 100.318 209.358 100.318C208.834 100.318 208.403 100.454 208.065 100.726C207.727 100.998 207.477 101.354 207.314 101.795C207.152 102.236 207.071 102.711 207.071 103.222C207.071 103.732 207.152 104.206 207.314 104.643C207.477 105.081 207.727 105.434 208.065 105.702C208.403 105.971 208.834 106.105 209.358 106.105ZM220.018 101.074L218.964 101.372C218.898 101.196 218.8 101.026 218.671 100.86C218.545 100.691 218.373 100.552 218.154 100.442C217.935 100.333 217.655 100.278 217.314 100.278C216.846 100.278 216.457 100.386 216.145 100.602C215.837 100.814 215.683 101.084 215.683 101.412C215.683 101.704 215.789 101.934 216.001 102.103C216.213 102.272 216.545 102.413 216.995 102.526L218.129 102.804C218.812 102.97 219.32 103.223 219.655 103.565C219.99 103.903 220.157 104.339 220.157 104.872C220.157 105.31 220.031 105.701 219.779 106.045C219.531 106.39 219.183 106.662 218.735 106.861C218.288 107.06 217.768 107.159 217.174 107.159C216.395 107.159 215.751 106.99 215.24 106.652C214.73 106.314 214.407 105.82 214.271 105.17L215.385 104.892C215.491 105.303 215.691 105.611 215.986 105.817C216.284 106.022 216.674 106.125 217.154 106.125C217.701 106.125 218.136 106.009 218.457 105.777C218.782 105.542 218.944 105.26 218.944 104.932C218.944 104.667 218.851 104.445 218.666 104.266C218.48 104.083 218.195 103.947 217.811 103.858L216.538 103.56C215.839 103.394 215.325 103.137 214.997 102.789C214.672 102.438 214.51 101.999 214.51 101.472C214.51 101.041 214.631 100.66 214.873 100.328C215.118 99.9967 215.451 99.7365 215.872 99.5476C216.296 99.3587 216.777 99.2642 217.314 99.2642C218.069 99.2642 218.663 99.4299 219.093 99.7614C219.528 100.093 219.836 100.53 220.018 101.074ZM225.125 107.159C224.389 107.159 223.755 106.997 223.221 106.672C222.691 106.344 222.281 105.886 221.993 105.3C221.708 104.71 221.566 104.024 221.566 103.241C221.566 102.459 221.708 101.77 221.993 101.173C222.281 100.573 222.682 100.106 223.196 99.7713C223.713 99.4332 224.316 99.2642 225.006 99.2642C225.404 99.2642 225.796 99.3305 226.184 99.4631C226.572 99.5956 226.925 99.8111 227.243 100.109C227.561 100.404 227.815 100.795 228.004 101.283C228.193 101.77 228.287 102.37 228.287 103.082V103.58H222.401V102.565H227.094C227.094 102.134 227.008 101.75 226.835 101.412C226.666 101.074 226.424 100.807 226.11 100.612C225.798 100.416 225.43 100.318 225.006 100.318C224.539 100.318 224.134 100.434 223.793 100.666C223.455 100.895 223.195 101.193 223.012 101.561C222.83 101.929 222.739 102.323 222.739 102.744V103.42C222.739 103.997 222.838 104.486 223.037 104.887C223.239 105.285 223.519 105.588 223.877 105.797C224.235 106.002 224.651 106.105 225.125 106.105C225.433 106.105 225.712 106.062 225.96 105.976C226.212 105.886 226.429 105.754 226.612 105.578C226.794 105.399 226.935 105.177 227.034 104.912L228.168 105.23C228.048 105.615 227.848 105.953 227.566 106.244C227.285 106.533 226.936 106.758 226.522 106.92C226.108 107.08 225.642 107.159 225.125 107.159ZM232.955 107.159C232.319 107.159 231.757 106.998 231.27 106.677C230.783 106.352 230.402 105.895 230.127 105.305C229.852 104.711 229.714 104.01 229.714 103.202C229.714 102.4 229.852 101.704 230.127 101.114C230.402 100.524 230.785 100.068 231.275 99.7464C231.766 99.425 232.332 99.2642 232.975 99.2642C233.472 99.2642 233.865 99.3471 234.154 99.5128C234.445 99.6752 234.667 99.8608 234.82 100.07C234.976 100.275 235.097 100.444 235.183 100.577H235.282V96.8182H236.455V107H235.322V105.827H235.183C235.097 105.966 234.974 106.142 234.815 106.354C234.656 106.562 234.429 106.75 234.134 106.915C233.839 107.078 233.446 107.159 232.955 107.159ZM233.115 106.105C233.585 106.105 233.983 105.982 234.308 105.737C234.633 105.489 234.879 105.146 235.048 104.708C235.218 104.267 235.302 103.759 235.302 103.182C235.302 102.612 235.219 102.113 235.053 101.685C234.888 101.254 234.642 100.92 234.318 100.681C233.993 100.439 233.592 100.318 233.115 100.318C232.617 100.318 232.203 100.446 231.872 100.701C231.544 100.953 231.297 101.296 231.131 101.73C230.968 102.161 230.887 102.645 230.887 103.182C230.887 103.725 230.97 104.219 231.136 104.663C231.305 105.104 231.553 105.455 231.882 105.717C232.213 105.976 232.624 106.105 233.115 106.105Z" fill="white" fill-opacity="0.95"/>
<rect opacity="0.5" x="29" y="56" width="160" height="4" fill="#30C9B0" fill-opacity="0.5"/>
<g clip-path="url(#clip0_333_11709)">
<line x1="197" y1="56.5" x2="212" y2="56.5" stroke="#30C9B0"/>
<line x1="204.5" y1="61" x2="204.5" y2="57" stroke="#30C9B0"/>
<line x1="197" y1="59.5" x2="212" y2="59.5" stroke="#30C9B0"/>
</g>
<path d="M222.433 59.4521H223.684V60.7783H222.433V63H220.799V60.7783H216.492L216.451 59.7734L220.751 53.0469H222.433V59.4521ZM218.119 59.4521H220.799V55.2344L220.607 55.5898L218.119 59.4521Z" fill="#30C9B0"/>
</g>
<defs>
<clipPath id="clip0_333_11709">
<rect width="15" height="4" fill="white" transform="translate(197 56)"/>
</clipPath>
</defs>
</svg>
