<svg width="484" height="206" viewBox="0 0 484 206" fill="none" xmlns="http://www.w3.org/2000/svg">
<rect width="484" height="206" rx="16" fill="#1A1A1A"/>
<mask id="mask0_333_11728" style="mask-type:luminance" maskUnits="userSpaceOnUse" x="20" y="20" width="423" height="166">
<rect x="20" y="20" width="422.564" height="165.748" fill="white"/>
</mask>
<g mask="url(#mask0_333_11728)">
<path d="M40.2955 42.4545V57H38.5909L30.6648 45.5795H30.5227V57H28.7614V42.4545H30.4659L38.4205 53.9034H38.5625V42.4545H40.2955ZM48.0245 57.2273C47.0397 57.2273 46.1755 56.9929 45.4322 56.5241C44.6935 56.0554 44.1159 55.3996 43.6992 54.5568C43.2873 53.714 43.0813 52.7292 43.0813 51.6023C43.0813 50.4659 43.2873 49.474 43.6992 48.6264C44.1159 47.7789 44.6935 47.1207 45.4322 46.652C46.1755 46.1832 47.0397 45.9489 48.0245 45.9489C49.0094 45.9489 49.8711 46.1832 50.6097 46.652C51.3531 47.1207 51.9308 47.7789 52.3427 48.6264C52.7594 49.474 52.9677 50.4659 52.9677 51.6023C52.9677 52.7292 52.7594 53.714 52.3427 54.5568C51.9308 55.3996 51.3531 56.0554 50.6097 56.5241C49.8711 56.9929 49.0094 57.2273 48.0245 57.2273ZM48.0245 55.7216C48.7726 55.7216 49.3881 55.5298 49.8711 55.1463C50.354 54.7628 50.7115 54.2585 50.9435 53.6335C51.1755 53.0085 51.2915 52.3314 51.2915 51.6023C51.2915 50.8731 51.1755 50.1937 50.9435 49.5639C50.7115 48.9342 50.354 48.4252 49.8711 48.0369C49.3881 47.6487 48.7726 47.4545 48.0245 47.4545C47.2764 47.4545 46.6609 47.6487 46.1779 48.0369C45.695 48.4252 45.3375 48.9342 45.1055 49.5639C44.8735 50.1937 44.7575 50.8731 44.7575 51.6023C44.7575 52.3314 44.8735 53.0085 45.1055 53.6335C45.3375 54.2585 45.695 54.7628 46.1779 55.1463C46.6609 55.5298 47.2764 55.7216 48.0245 55.7216ZM60.2706 46.0909V47.5114H54.6172V46.0909H60.2706ZM56.2649 43.4773H57.9411V53.875C57.9411 54.3485 58.0097 54.7036 58.147 54.9403C58.2891 55.1723 58.469 55.3286 58.6868 55.4091C58.9093 55.4848 59.1437 55.5227 59.3899 55.5227C59.5746 55.5227 59.7261 55.5133 59.8445 55.4943C59.9628 55.4706 60.0575 55.4517 60.1286 55.4375L60.4695 56.9432C60.3558 56.9858 60.1972 57.0284 59.9936 57.071C59.79 57.1184 59.532 57.142 59.2195 57.142C58.746 57.142 58.282 57.0402 57.8274 56.8366C57.3776 56.633 57.0036 56.3229 56.7053 55.9062C56.4117 55.4896 56.2649 54.964 56.2649 54.3295V43.4773ZM62.7919 57V46.0909H64.468V57H62.7919ZM63.6442 44.2727C63.3175 44.2727 63.0357 44.1615 62.799 43.9389C62.567 43.7164 62.451 43.4489 62.451 43.1364C62.451 42.8239 62.567 42.5563 62.799 42.3338C63.0357 42.1113 63.3175 42 63.6442 42C63.9709 42 64.2502 42.1113 64.4822 42.3338C64.719 42.5563 64.8374 42.8239 64.8374 43.1364C64.8374 43.4489 64.719 43.7164 64.4822 43.9389C64.2502 44.1615 63.9709 44.2727 63.6442 44.2727ZM72.396 46.0909V47.5114H66.5153V46.0909H72.396ZM68.2766 57V44.5852C68.2766 43.9602 68.4234 43.4394 68.717 43.0227C69.0105 42.6061 69.3917 42.2936 69.8604 42.0852C70.3292 41.8769 70.824 41.7727 71.3448 41.7727C71.7567 41.7727 72.0929 41.8059 72.3533 41.8722C72.6138 41.9384 72.8079 42 72.9357 42.0568L72.4528 43.5057C72.3675 43.4773 72.2492 43.4418 72.0977 43.3991C71.9509 43.3565 71.7567 43.3352 71.5153 43.3352C70.9613 43.3352 70.5612 43.4749 70.315 43.7543C70.0735 44.0336 69.9528 44.4432 69.9528 44.983V57H68.2766ZM74.745 57V46.0909H76.4212V57H74.745ZM75.5973 44.2727C75.2706 44.2727 74.9889 44.1615 74.7521 43.9389C74.5201 43.7164 74.4041 43.4489 74.4041 43.1364C74.4041 42.8239 74.5201 42.5563 74.7521 42.3338C74.9889 42.1113 75.2706 42 75.5973 42C75.924 42 76.2034 42.1113 76.4354 42.3338C76.6721 42.5563 76.7905 42.8239 76.7905 43.1364C76.7905 43.4489 76.6721 43.7164 76.4354 43.9389C76.2034 44.1615 75.924 44.2727 75.5973 44.2727ZM83.9229 57.2273C82.9002 57.2273 82.0195 56.9858 81.2809 56.5028C80.5423 56.0199 79.9741 55.3546 79.5763 54.5071C79.1786 53.6596 78.9798 52.6913 78.9798 51.6023C78.9798 50.4943 79.1834 49.5166 79.5906 48.669C80.0025 47.8168 80.5754 47.1515 81.3093 46.6733C82.0479 46.1903 82.9097 45.9489 83.8945 45.9489C84.6616 45.9489 85.3529 46.0909 85.9684 46.375C86.5839 46.6591 87.0882 47.0568 87.4812 47.5682C87.8742 48.0795 88.118 48.6761 88.2127 49.358H86.5366C86.4087 48.8608 86.1246 48.4205 85.6843 48.0369C85.2487 47.6487 84.6616 47.4545 83.9229 47.4545C83.2695 47.4545 82.6966 47.625 82.2042 47.9659C81.7165 48.3021 81.3353 48.7779 81.0607 49.3935C80.7908 50.0043 80.6559 50.7216 80.6559 51.5455C80.6559 52.3883 80.7885 53.1222 81.0536 53.7472C81.3235 54.3722 81.7023 54.8575 82.19 55.2031C82.6824 55.5488 83.2601 55.7216 83.9229 55.7216C84.3585 55.7216 84.7539 55.6458 85.109 55.4943C85.4641 55.3428 85.7648 55.125 86.011 54.8409C86.2572 54.5568 86.4324 54.2159 86.5366 53.8182H88.2127C88.118 54.4621 87.8836 55.0421 87.5096 55.5582C87.1403 56.0696 86.6502 56.4768 86.0394 56.7798C85.4334 57.0781 84.7279 57.2273 83.9229 57.2273ZM93.8732 57.2557C93.1819 57.2557 92.5546 57.1255 91.9911 56.8651C91.4277 56.5999 90.9802 56.2188 90.6488 55.7216C90.3174 55.2197 90.1516 54.6136 90.1516 53.9034C90.1516 53.2784 90.2747 52.7718 90.521 52.3835C90.7672 51.9905 91.0962 51.6828 91.5082 51.4602C91.9201 51.2377 92.3746 51.072 92.8718 50.9631C93.3737 50.8494 93.878 50.7595 94.3846 50.6932C95.0475 50.608 95.5849 50.544 95.9968 50.5014C96.4135 50.4541 96.7165 50.3759 96.9059 50.267C97.1 50.1581 97.1971 49.9687 97.1971 49.6989V49.642C97.1971 48.9413 97.0053 48.3968 96.6218 48.0085C96.243 47.6203 95.6677 47.4261 94.896 47.4261C94.0958 47.4261 93.4684 47.6013 93.0138 47.9517C92.5593 48.3021 92.2397 48.6761 92.055 49.0739L90.4641 48.5057C90.7482 47.8428 91.127 47.3267 91.6005 46.9574C92.0787 46.5833 92.5996 46.3229 93.163 46.1761C93.7312 46.0246 94.2899 45.9489 94.8391 45.9489C95.1895 45.9489 95.592 45.9915 96.0465 46.0767C96.5058 46.1572 96.9485 46.3253 97.3746 46.581C97.8055 46.8366 98.163 47.2225 98.4471 47.7386C98.7312 48.2547 98.8732 48.946 98.8732 49.8125V57H97.1971V55.5227H97.1119C96.9982 55.7595 96.8088 56.0128 96.5437 56.2827C96.2785 56.5526 95.9258 56.7822 95.4854 56.9716C95.0451 57.161 94.5077 57.2557 93.8732 57.2557ZM94.1289 55.75C94.7918 55.75 95.3505 55.6198 95.805 55.3594C96.2643 55.099 96.61 54.7628 96.842 54.3509C97.0787 53.9389 97.1971 53.5057 97.1971 53.0511V51.517C97.1261 51.6023 96.9698 51.6804 96.7283 51.7514C96.4916 51.8177 96.217 51.8769 95.9045 51.929C95.5967 51.9763 95.296 52.0189 95.0025 52.0568C94.7137 52.09 94.4793 52.1184 94.2994 52.142C93.8638 52.1989 93.4566 52.2912 93.0778 52.419C92.7037 52.5421 92.4007 52.7292 92.1687 52.9801C91.9414 53.2263 91.8278 53.5625 91.8278 53.9886C91.8278 54.571 92.0432 55.0114 92.4741 55.3097C92.9097 55.6032 93.4613 55.75 94.1289 55.75ZM106.677 46.0909V47.5114H101.023V46.0909H106.677ZM102.671 43.4773H104.347V53.875C104.347 54.3485 104.416 54.7036 104.553 54.9403C104.695 55.1723 104.875 55.3286 105.093 55.4091C105.316 55.4848 105.55 55.5227 105.796 55.5227C105.981 55.5227 106.132 55.5133 106.251 55.4943C106.369 55.4706 106.464 55.4517 106.535 55.4375L106.876 56.9432C106.762 56.9858 106.603 57.0284 106.4 57.071C106.196 57.1184 105.938 57.142 105.626 57.142C105.152 57.142 104.688 57.0402 104.234 56.8366C103.784 56.633 103.41 56.3229 103.112 55.9062C102.818 55.4896 102.671 54.964 102.671 54.3295V43.4773ZM109.198 57V46.0909H110.874V57H109.198ZM110.05 44.2727C109.724 44.2727 109.442 44.1615 109.205 43.9389C108.973 43.7164 108.857 43.4489 108.857 43.1364C108.857 42.8239 108.973 42.5563 109.205 42.3338C109.442 42.1113 109.724 42 110.05 42C110.377 42 110.656 42.1113 110.888 42.3338C111.125 42.5563 111.244 42.8239 111.244 43.1364C111.244 43.4489 111.125 43.7164 110.888 43.9389C110.656 44.1615 110.377 44.2727 110.05 44.2727ZM118.376 57.2273C117.391 57.2273 116.527 56.9929 115.784 56.5241C115.045 56.0554 114.467 55.3996 114.051 54.5568C113.639 53.714 113.433 52.7292 113.433 51.6023C113.433 50.4659 113.639 49.474 114.051 48.6264C114.467 47.7789 115.045 47.1207 115.784 46.652C116.527 46.1832 117.391 45.9489 118.376 45.9489C119.361 45.9489 120.223 46.1832 120.961 46.652C121.705 47.1207 122.282 47.7789 122.694 48.6264C123.111 49.474 123.319 50.4659 123.319 51.6023C123.319 52.7292 123.111 53.714 122.694 54.5568C122.282 55.3996 121.705 56.0554 120.961 56.5241C120.223 56.9929 119.361 57.2273 118.376 57.2273ZM118.376 55.7216C119.124 55.7216 119.74 55.5298 120.223 55.1463C120.706 54.7628 121.063 54.2585 121.295 53.6335C121.527 53.0085 121.643 52.3314 121.643 51.6023C121.643 50.8731 121.527 50.1937 121.295 49.5639C121.063 48.9342 120.706 48.4252 120.223 48.0369C119.74 47.6487 119.124 47.4545 118.376 47.4545C117.628 47.4545 117.012 47.6487 116.529 48.0369C116.047 48.4252 115.689 48.9342 115.457 49.5639C115.225 50.1937 115.109 50.8731 115.109 51.6023C115.109 52.3314 115.225 53.0085 115.457 53.6335C115.689 54.2585 116.047 54.7628 116.529 55.1463C117.012 55.5298 117.628 55.7216 118.376 55.7216ZM127.554 50.4375V57H125.878V46.0909H127.497V47.7955H127.639C127.895 47.2415 128.283 46.7964 128.804 46.4602C129.325 46.1193 129.997 45.9489 130.821 45.9489C131.56 45.9489 132.206 46.1004 132.76 46.4034C133.314 46.7017 133.745 47.1562 134.053 47.767C134.36 48.3731 134.514 49.1402 134.514 50.0682V57H132.838V50.1818C132.838 49.3248 132.616 48.6572 132.17 48.179C131.725 47.696 131.115 47.4545 130.338 47.4545C129.803 47.4545 129.325 47.5705 128.903 47.8026C128.487 48.0346 128.158 48.3731 127.916 48.8182C127.675 49.2633 127.554 49.803 127.554 50.4375ZM145.304 48.5341L143.799 48.9602C143.704 48.7093 143.564 48.4654 143.38 48.2287C143.2 47.9872 142.953 47.7884 142.641 47.6321C142.328 47.4759 141.928 47.3977 141.441 47.3977C140.773 47.3977 140.217 47.5516 139.772 47.8594C139.331 48.1624 139.111 48.5483 139.111 49.017C139.111 49.4337 139.263 49.7628 139.566 50.0043C139.869 50.2457 140.342 50.447 140.986 50.608L142.605 51.0057C143.581 51.2424 144.308 51.6046 144.786 52.0923C145.264 52.5753 145.503 53.1979 145.503 53.9602C145.503 54.5852 145.323 55.1439 144.963 55.6364C144.608 56.1288 144.111 56.517 143.472 56.8011C142.833 57.0852 142.089 57.2273 141.242 57.2273C140.129 57.2273 139.208 56.9858 138.479 56.5028C137.75 56.0199 137.288 55.3144 137.094 54.3864L138.685 53.9886C138.837 54.5758 139.123 55.0161 139.544 55.3097C139.971 55.6032 140.527 55.75 141.213 55.75C141.995 55.75 142.615 55.5843 143.074 55.2528C143.538 54.9167 143.77 54.5142 143.77 54.0455C143.77 53.6667 143.638 53.3494 143.373 53.0938C143.107 52.8333 142.7 52.6392 142.151 52.5114L140.333 52.0852C139.334 51.8485 138.6 51.4815 138.131 50.9844C137.667 50.4825 137.435 49.8551 137.435 49.1023C137.435 48.4867 137.608 47.9422 137.953 47.4688C138.304 46.9953 138.78 46.6236 139.381 46.3537C139.987 46.0838 140.674 45.9489 141.441 45.9489C142.52 45.9489 143.368 46.1856 143.983 46.6591C144.604 47.1326 145.044 47.7576 145.304 48.5341Z" fill="white" fill-opacity="0.95"/>
<path d="M27.5682 78.392V76.3636H37.125V78.392H33.5625V88H31.1307V78.392H27.5682ZM39.9545 88.1648C39.3977 88.1648 38.9015 88.0682 38.4659 87.875C38.0303 87.678 37.6856 87.3883 37.4318 87.0057C37.1818 86.6193 37.0568 86.1383 37.0568 85.5625C37.0568 85.0777 37.1458 84.6705 37.3239 84.3409C37.5019 84.0114 37.7443 83.7462 38.0511 83.5455C38.358 83.3447 38.7064 83.1932 39.0966 83.0909C39.4905 82.9886 39.9034 82.9167 40.3352 82.875C40.8428 82.822 41.2519 82.7727 41.5625 82.7273C41.8731 82.678 42.0985 82.6061 42.2386 82.5114C42.3788 82.4167 42.4489 82.2765 42.4489 82.0909V82.0568C42.4489 81.697 42.3352 81.4186 42.108 81.2216C41.8845 81.0246 41.5663 80.9261 41.1534 80.9261C40.7178 80.9261 40.3712 81.0227 40.1136 81.2159C39.8561 81.4053 39.6856 81.6439 39.6023 81.9318L37.3636 81.75C37.4773 81.2197 37.7008 80.7614 38.0341 80.375C38.3674 79.9848 38.7973 79.6856 39.3239 79.4773C39.8542 79.2652 40.4678 79.1591 41.1648 79.1591C41.6496 79.1591 42.1136 79.2159 42.5568 79.3295C43.0038 79.4432 43.3996 79.6193 43.7443 79.858C44.0928 80.0966 44.3674 80.4034 44.5682 80.7784C44.7689 81.1496 44.8693 81.5947 44.8693 82.1136V88H42.5739V86.7898H42.5057C42.3655 87.0625 42.178 87.303 41.9432 87.5114C41.7083 87.7159 41.4261 87.8769 41.0966 87.9943C40.767 88.108 40.3864 88.1648 39.9545 88.1648ZM40.6477 86.4943C41.0038 86.4943 41.3182 86.4242 41.5909 86.2841C41.8636 86.1402 42.0777 85.947 42.233 85.7045C42.3883 85.4621 42.4659 85.1875 42.4659 84.8807V83.9545C42.3902 84.0038 42.286 84.0492 42.1534 84.0909C42.0246 84.1288 41.8788 84.1648 41.7159 84.1989C41.553 84.2292 41.3902 84.2576 41.2273 84.2841C41.0644 84.3068 40.9167 84.3277 40.7841 84.3466C40.5 84.3883 40.2519 84.4545 40.0398 84.5455C39.8277 84.6364 39.6629 84.7595 39.5455 84.9148C39.428 85.0663 39.3693 85.2557 39.3693 85.483C39.3693 85.8125 39.4886 86.0644 39.7273 86.2386C39.9697 86.4091 40.2765 86.4943 40.6477 86.4943ZM54.0085 81.7614L51.7926 81.8977C51.7547 81.7083 51.6733 81.5379 51.5483 81.3864C51.4233 81.2311 51.2585 81.108 51.054 81.017C50.8532 80.9223 50.6127 80.875 50.3324 80.875C49.9574 80.875 49.6411 80.9545 49.3835 81.1136C49.1259 81.2689 48.9972 81.4773 48.9972 81.7386C48.9972 81.947 49.0805 82.1231 49.2472 82.267C49.4138 82.411 49.6998 82.5265 50.1051 82.6136L51.6847 82.9318C52.5331 83.1061 53.1657 83.3864 53.5824 83.7727C53.9991 84.1591 54.2074 84.6667 54.2074 85.2955C54.2074 85.8674 54.0388 86.3693 53.7017 86.8011C53.3684 87.233 52.91 87.5701 52.3267 87.8125C51.7472 88.0511 51.0786 88.1705 50.321 88.1705C49.1657 88.1705 48.2453 87.9299 47.5597 87.4489C46.8778 86.964 46.4782 86.3049 46.3608 85.4716L48.7415 85.3466C48.8134 85.6989 48.9877 85.9678 49.2642 86.1534C49.5407 86.3352 49.8949 86.4261 50.3267 86.4261C50.7509 86.4261 51.0919 86.3447 51.3494 86.1818C51.6108 86.0152 51.7434 85.8011 51.7472 85.5398C51.7434 85.3201 51.6506 85.1402 51.4688 85C51.2869 84.8561 51.0066 84.7462 50.6278 84.6705L49.1165 84.3693C48.2642 84.1989 47.6297 83.9034 47.2131 83.483C46.8002 83.0625 46.5938 82.5265 46.5938 81.875C46.5938 81.3144 46.7453 80.8314 47.0483 80.4261C47.3551 80.0208 47.785 79.7083 48.3381 79.4886C48.8949 79.2689 49.5464 79.1591 50.2926 79.1591C51.3949 79.1591 52.2623 79.392 52.8949 79.858C53.5313 80.3239 53.9025 80.9583 54.0085 81.7614ZM57.9247 85.4886L57.9304 82.5852H58.2827L61.0781 79.2727H63.8565L60.1009 83.6591H59.527L57.9247 85.4886ZM55.7315 88V76.3636H58.152V88H55.7315ZM61.1861 88L58.6179 84.1989L60.2315 82.4886L64.0213 88H61.1861ZM65.0895 88V76.3636H67.5099V80.7386H67.5838C67.6899 80.5038 67.8433 80.2652 68.044 80.0227C68.2486 79.7765 68.5137 79.572 68.8395 79.4091C69.169 79.2424 69.5781 79.1591 70.0668 79.1591C70.7031 79.1591 71.2902 79.3258 71.8281 79.6591C72.366 79.9886 72.7959 80.4867 73.1179 81.1534C73.4399 81.8163 73.6009 82.6477 73.6009 83.6477C73.6009 84.6212 73.4437 85.4432 73.1293 86.1136C72.8187 86.7803 72.3944 87.286 71.8565 87.6307C71.3224 87.9716 70.724 88.142 70.0611 88.142C69.5914 88.142 69.1918 88.0644 68.8622 87.9091C68.5365 87.7538 68.2694 87.5587 68.0611 87.3239C67.8527 87.0852 67.6937 86.8447 67.5838 86.6023H67.4759V88H65.0895ZM67.4588 83.6364C67.4588 84.1553 67.5308 84.608 67.6747 84.9943C67.8187 85.3807 68.027 85.6818 68.2997 85.8977C68.5724 86.1098 68.9039 86.2159 69.294 86.2159C69.688 86.2159 70.0213 86.108 70.294 85.892C70.5668 85.6723 70.7732 85.3693 70.9134 84.983C71.0573 84.5928 71.1293 84.1439 71.1293 83.6364C71.1293 83.1326 71.0592 82.6894 70.919 82.3068C70.7789 81.9242 70.5724 81.625 70.2997 81.4091C70.027 81.1932 69.6918 81.0852 69.294 81.0852C68.9001 81.0852 68.5668 81.1894 68.294 81.3977C68.0251 81.6061 67.8187 81.9015 67.6747 82.2841C67.5308 82.6667 67.4588 83.1174 67.4588 83.6364ZM77.7045 88.1648C77.1477 88.1648 76.6515 88.0682 76.2159 87.875C75.7803 87.678 75.4356 87.3883 75.1818 87.0057C74.9318 86.6193 74.8068 86.1383 74.8068 85.5625C74.8068 85.0777 74.8958 84.6705 75.0739 84.3409C75.2519 84.0114 75.4943 83.7462 75.8011 83.5455C76.108 83.3447 76.4564 83.1932 76.8466 83.0909C77.2405 82.9886 77.6534 82.9167 78.0852 82.875C78.5928 82.822 79.0019 82.7727 79.3125 82.7273C79.6231 82.678 79.8485 82.6061 79.9886 82.5114C80.1288 82.4167 80.1989 82.2765 80.1989 82.0909V82.0568C80.1989 81.697 80.0852 81.4186 79.858 81.2216C79.6345 81.0246 79.3163 80.9261 78.9034 80.9261C78.4678 80.9261 78.1212 81.0227 77.8636 81.2159C77.6061 81.4053 77.4356 81.6439 77.3523 81.9318L75.1136 81.75C75.2273 81.2197 75.4508 80.7614 75.7841 80.375C76.1174 79.9848 76.5473 79.6856 77.0739 79.4773C77.6042 79.2652 78.2178 79.1591 78.9148 79.1591C79.3996 79.1591 79.8636 79.2159 80.3068 79.3295C80.7538 79.4432 81.1496 79.6193 81.4943 79.858C81.8428 80.0966 82.1174 80.4034 82.3182 80.7784C82.5189 81.1496 82.6193 81.5947 82.6193 82.1136V88H80.3239V86.7898H80.2557C80.1155 87.0625 79.928 87.303 79.6932 87.5114C79.4583 87.7159 79.1761 87.8769 78.8466 87.9943C78.517 88.108 78.1364 88.1648 77.7045 88.1648ZM78.3977 86.4943C78.7538 86.4943 79.0682 86.4242 79.3409 86.2841C79.6136 86.1402 79.8277 85.947 79.983 85.7045C80.1383 85.4621 80.2159 85.1875 80.2159 84.8807V83.9545C80.1402 84.0038 80.036 84.0492 79.9034 84.0909C79.7746 84.1288 79.6288 84.1648 79.4659 84.1989C79.303 84.2292 79.1402 84.2576 78.9773 84.2841C78.8144 84.3068 78.6667 84.3277 78.5341 84.3466C78.25 84.3883 78.0019 84.4545 77.7898 84.5455C77.5777 84.6364 77.4129 84.7595 77.2955 84.9148C77.178 85.0663 77.1193 85.2557 77.1193 85.483C77.1193 85.8125 77.2386 86.0644 77.4773 86.2386C77.7197 86.4091 78.0265 86.4943 78.3977 86.4943ZM84.4972 88V79.2727H86.8438V80.7955H86.9347C87.0938 80.2538 87.3608 79.8447 87.7358 79.5682C88.1108 79.2879 88.5426 79.1477 89.0312 79.1477C89.1525 79.1477 89.2831 79.1553 89.4233 79.1705C89.5634 79.1856 89.6866 79.2064 89.7926 79.233V81.3807C89.679 81.3466 89.5218 81.3163 89.321 81.2898C89.1203 81.2633 88.9366 81.25 88.7699 81.25C88.4138 81.25 88.0956 81.3277 87.8153 81.483C87.5388 81.6345 87.3191 81.8466 87.1562 82.1193C86.9972 82.392 86.9176 82.7064 86.9176 83.0625V88H84.4972ZM97.1676 82.9545V88H94.7472V79.2727H97.054V80.8125H97.1562C97.3494 80.3049 97.6733 79.9034 98.1278 79.608C98.5824 79.3087 99.1335 79.1591 99.7812 79.1591C100.387 79.1591 100.916 79.2917 101.366 79.5568C101.817 79.822 102.168 80.2008 102.418 80.6932C102.668 81.1818 102.793 81.7652 102.793 82.4432V88H100.372V82.875C100.376 82.3409 100.24 81.9242 99.9631 81.625C99.6866 81.322 99.3059 81.1705 98.821 81.1705C98.4953 81.1705 98.2074 81.2405 97.9574 81.3807C97.7112 81.5208 97.518 81.7254 97.3778 81.9943C97.2415 82.2595 97.1714 82.5795 97.1676 82.9545ZM108.643 88.1705C107.761 88.1705 106.998 87.983 106.354 87.608C105.714 87.2292 105.219 86.7027 104.871 86.0284C104.522 85.3504 104.348 84.5644 104.348 83.6705C104.348 82.7689 104.522 81.9811 104.871 81.3068C105.219 80.6288 105.714 80.1023 106.354 79.7273C106.998 79.3485 107.761 79.1591 108.643 79.1591C109.526 79.1591 110.287 79.3485 110.928 79.7273C111.571 80.1023 112.068 80.6288 112.416 81.3068C112.765 81.9811 112.939 82.7689 112.939 83.6705C112.939 84.5644 112.765 85.3504 112.416 86.0284C112.068 86.7027 111.571 87.2292 110.928 87.608C110.287 87.983 109.526 88.1705 108.643 88.1705ZM108.655 86.2955C109.056 86.2955 109.392 86.1818 109.661 85.9545C109.929 85.7235 110.132 85.4091 110.268 85.0114C110.409 84.6136 110.479 84.161 110.479 83.6534C110.479 83.1458 110.409 82.6932 110.268 82.2955C110.132 81.8977 109.929 81.5833 109.661 81.3523C109.392 81.1212 109.056 81.0057 108.655 81.0057C108.25 81.0057 107.909 81.1212 107.632 81.3523C107.359 81.5833 107.153 81.8977 107.013 82.2955C106.876 82.6932 106.808 83.1458 106.808 83.6534C106.808 84.161 106.876 84.6136 107.013 85.0114C107.153 85.4091 107.359 85.7235 107.632 85.9545C107.909 86.1818 108.25 86.2955 108.655 86.2955ZM119.155 79.2727V81.0909H113.899V79.2727H119.155ZM115.092 77.1818H117.513V85.3182C117.513 85.5417 117.547 85.7159 117.615 85.8409C117.683 85.9621 117.778 86.0473 117.899 86.0966C118.024 86.1458 118.168 86.1705 118.331 86.1705C118.445 86.1705 118.558 86.161 118.672 86.142C118.786 86.1193 118.873 86.1023 118.933 86.0909L119.314 87.892C119.193 87.9299 119.022 87.9735 118.803 88.0227C118.583 88.0758 118.316 88.108 118.001 88.1193C117.418 88.142 116.907 88.0644 116.467 87.8864C116.032 87.7083 115.693 87.4318 115.45 87.0568C115.208 86.6818 115.089 86.2083 115.092 85.6364V77.1818ZM120.732 88V79.2727H123.152V88H120.732ZM121.953 78.1477C121.593 78.1477 121.285 78.0284 121.027 77.7898C120.769 77.5473 120.641 77.2576 120.641 76.9205C120.641 76.5871 120.769 76.3011 121.027 76.0625C121.285 75.8201 121.591 75.6989 121.947 75.6989C122.311 75.6989 122.62 75.8201 122.874 76.0625C123.131 76.3011 123.26 76.5871 123.26 76.9205C123.26 77.2576 123.131 77.5473 122.874 77.7898C122.62 78.0284 122.313 78.1477 121.953 78.1477ZM129.784 79.2727V81.0909H124.398V79.2727H129.784ZM125.631 88V78.642C125.631 78.0095 125.754 77.4848 126 77.0682C126.25 76.6515 126.591 76.339 127.023 76.1307C127.455 75.9223 127.945 75.8182 128.494 75.8182C128.866 75.8182 129.205 75.8466 129.511 75.9034C129.822 75.9602 130.053 76.0114 130.205 76.0568L129.773 77.875C129.678 77.8447 129.561 77.8163 129.42 77.7898C129.284 77.7633 129.144 77.75 129 77.75C128.644 77.75 128.396 77.8333 128.256 78C128.116 78.1629 128.045 78.392 128.045 78.6875V88H125.631ZM131.263 88V79.2727H133.683V88H131.263ZM132.484 78.1477C132.125 78.1477 131.816 78.0284 131.558 77.7898C131.301 77.5473 131.172 77.2576 131.172 76.9205C131.172 76.5871 131.301 76.3011 131.558 76.0625C131.816 75.8201 132.123 75.6989 132.479 75.6989C132.842 75.6989 133.151 75.8201 133.405 76.0625C133.662 76.3011 133.791 76.5871 133.791 76.9205C133.791 77.2576 133.662 77.5473 133.405 77.7898C133.151 78.0284 132.844 78.1477 132.484 78.1477ZM139.565 88.1705C138.671 88.1705 137.902 87.9811 137.259 87.6023C136.618 87.2197 136.126 86.6894 135.781 86.0114C135.44 85.3333 135.27 84.553 135.27 83.6705C135.27 82.7765 135.442 81.9924 135.787 81.3182C136.135 80.6402 136.63 80.1117 137.27 79.733C137.91 79.3504 138.671 79.1591 139.554 79.1591C140.315 79.1591 140.982 79.2973 141.554 79.5739C142.126 79.8504 142.579 80.2386 142.912 80.7386C143.245 81.2386 143.429 81.8258 143.463 82.5H141.179C141.115 82.0644 140.944 81.714 140.668 81.4489C140.395 81.1799 140.037 81.0455 139.594 81.0455C139.219 81.0455 138.891 81.1477 138.611 81.3523C138.334 81.553 138.118 81.8466 137.963 82.233C137.808 82.6193 137.73 83.0871 137.73 83.6364C137.73 84.1932 137.806 84.6667 137.957 85.0568C138.113 85.447 138.33 85.7443 138.611 85.9489C138.891 86.1534 139.219 86.2557 139.594 86.2557C139.87 86.2557 140.118 86.1989 140.338 86.0852C140.562 85.9716 140.745 85.8068 140.889 85.5909C141.037 85.3712 141.134 85.108 141.179 84.8011H143.463C143.425 85.4678 143.243 86.0549 142.918 86.5625C142.596 87.0663 142.151 87.4602 141.582 87.7443C141.014 88.0284 140.342 88.1705 139.565 88.1705ZM147.501 88.1648C146.945 88.1648 146.448 88.0682 146.013 87.875C145.577 87.678 145.232 87.3883 144.979 87.0057C144.729 86.6193 144.604 86.1383 144.604 85.5625C144.604 85.0777 144.693 84.6705 144.871 84.3409C145.049 84.0114 145.291 83.7462 145.598 83.5455C145.905 83.3447 146.253 83.1932 146.643 83.0909C147.037 82.9886 147.45 82.9167 147.882 82.875C148.39 82.822 148.799 82.7727 149.109 82.7273C149.42 82.678 149.645 82.6061 149.786 82.5114C149.926 82.4167 149.996 82.2765 149.996 82.0909V82.0568C149.996 81.697 149.882 81.4186 149.655 81.2216C149.431 81.0246 149.113 80.9261 148.7 80.9261C148.265 80.9261 147.918 81.0227 147.661 81.2159C147.403 81.4053 147.232 81.6439 147.149 81.9318L144.911 81.75C145.024 81.2197 145.248 80.7614 145.581 80.375C145.914 79.9848 146.344 79.6856 146.871 79.4773C147.401 79.2652 148.015 79.1591 148.712 79.1591C149.196 79.1591 149.661 79.2159 150.104 79.3295C150.551 79.4432 150.946 79.6193 151.291 79.858C151.64 80.0966 151.914 80.4034 152.115 80.7784C152.316 81.1496 152.416 81.5947 152.416 82.1136V88H150.121V86.7898H150.053C149.912 87.0625 149.725 87.303 149.49 87.5114C149.255 87.7159 148.973 87.8769 148.643 87.9943C148.314 88.108 147.933 88.1648 147.501 88.1648ZM148.195 86.4943C148.551 86.4943 148.865 86.4242 149.138 86.2841C149.411 86.1402 149.625 85.947 149.78 85.7045C149.935 85.4621 150.013 85.1875 150.013 84.8807V83.9545C149.937 84.0038 149.833 84.0492 149.7 84.0909C149.571 84.1288 149.426 84.1648 149.263 84.1989C149.1 84.2292 148.937 84.2576 148.774 84.2841C148.611 84.3068 148.464 84.3277 148.331 84.3466C148.047 84.3883 147.799 84.4545 147.587 84.5455C147.375 84.6364 147.21 84.7595 147.092 84.9148C146.975 85.0663 146.916 85.2557 146.916 85.483C146.916 85.8125 147.036 86.0644 147.274 86.2386C147.517 86.4091 147.823 86.4943 148.195 86.4943ZM158.936 79.2727V81.0909H153.68V79.2727H158.936ZM154.874 77.1818H157.294V85.3182C157.294 85.5417 157.328 85.7159 157.396 85.8409C157.464 85.9621 157.559 86.0473 157.68 86.0966C157.805 86.1458 157.949 86.1705 158.112 86.1705C158.226 86.1705 158.339 86.161 158.453 86.142C158.567 86.1193 158.654 86.1023 158.714 86.0909L159.095 87.892C158.974 87.9299 158.804 87.9735 158.584 88.0227C158.364 88.0758 158.097 88.108 157.783 88.1193C157.199 88.142 156.688 88.0644 156.249 87.8864C155.813 87.7083 155.474 87.4318 155.232 87.0568C154.989 86.6818 154.87 86.2083 154.874 85.6364V77.1818ZM160.513 88V79.2727H162.933V88H160.513ZM161.734 78.1477C161.375 78.1477 161.066 78.0284 160.808 77.7898C160.551 77.5473 160.422 77.2576 160.422 76.9205C160.422 76.5871 160.551 76.3011 160.808 76.0625C161.066 75.8201 161.373 75.6989 161.729 75.6989C162.092 75.6989 162.401 75.8201 162.655 76.0625C162.912 76.3011 163.041 76.5871 163.041 76.9205C163.041 77.2576 162.912 77.5473 162.655 77.7898C162.401 78.0284 162.094 78.1477 161.734 78.1477ZM168.815 88.1705C167.933 88.1705 167.17 87.983 166.526 87.608C165.885 87.2292 165.391 86.7027 165.043 86.0284C164.694 85.3504 164.52 84.5644 164.52 83.6705C164.52 82.7689 164.694 81.9811 165.043 81.3068C165.391 80.6288 165.885 80.1023 166.526 79.7273C167.17 79.3485 167.933 79.1591 168.815 79.1591C169.698 79.1591 170.459 79.3485 171.099 79.7273C171.743 80.1023 172.24 80.6288 172.588 81.3068C172.937 81.9811 173.111 82.7689 173.111 83.6705C173.111 84.5644 172.937 85.3504 172.588 86.0284C172.24 86.7027 171.743 87.2292 171.099 87.608C170.459 87.983 169.698 88.1705 168.815 88.1705ZM168.827 86.2955C169.228 86.2955 169.563 86.1818 169.832 85.9545C170.101 85.7235 170.304 85.4091 170.44 85.0114C170.58 84.6136 170.651 84.161 170.651 83.6534C170.651 83.1458 170.58 82.6932 170.44 82.2955C170.304 81.8977 170.101 81.5833 169.832 81.3523C169.563 81.1212 169.228 81.0057 168.827 81.0057C168.421 81.0057 168.08 81.1212 167.804 81.3523C167.531 81.5833 167.325 81.8977 167.185 82.2955C167.048 82.6932 166.98 83.1458 166.98 83.6534C166.98 84.161 167.048 84.6136 167.185 85.0114C167.325 85.4091 167.531 85.7235 167.804 85.9545C168.08 86.1818 168.421 86.2955 168.827 86.2955ZM177.105 82.9545V88H174.685V79.2727H176.991V80.8125H177.094C177.287 80.3049 177.611 79.9034 178.065 79.608C178.52 79.3087 179.071 79.1591 179.719 79.1591C180.325 79.1591 180.853 79.2917 181.304 79.5568C181.755 79.822 182.105 80.2008 182.355 80.6932C182.605 81.1818 182.73 81.7652 182.73 82.4432V88H180.31V82.875C180.313 82.3409 180.177 81.9242 179.901 81.625C179.624 81.322 179.243 81.1705 178.759 81.1705C178.433 81.1705 178.145 81.2405 177.895 81.3807C177.649 81.5208 177.455 81.7254 177.315 81.9943C177.179 82.2595 177.109 82.5795 177.105 82.9545ZM191.899 81.7614L189.683 81.8977C189.645 81.7083 189.564 81.5379 189.439 81.3864C189.314 81.2311 189.149 81.108 188.945 81.017C188.744 80.9223 188.503 80.875 188.223 80.875C187.848 80.875 187.532 80.9545 187.274 81.1136C187.017 81.2689 186.888 81.4773 186.888 81.7386C186.888 81.947 186.971 82.1231 187.138 82.267C187.304 82.411 187.59 82.5265 187.996 82.6136L189.575 82.9318C190.424 83.1061 191.056 83.3864 191.473 83.7727C191.89 84.1591 192.098 84.6667 192.098 85.2955C192.098 85.8674 191.929 86.3693 191.592 86.8011C191.259 87.233 190.801 87.5701 190.217 87.8125C189.638 88.0511 188.969 88.1705 188.212 88.1705C187.056 88.1705 186.136 87.9299 185.45 87.4489C184.768 86.964 184.369 86.3049 184.251 85.4716L186.632 85.3466C186.704 85.6989 186.878 85.9678 187.155 86.1534C187.431 86.3352 187.786 86.4261 188.217 86.4261C188.642 86.4261 188.982 86.3447 189.24 86.1818C189.501 86.0152 189.634 85.8011 189.638 85.5398C189.634 85.3201 189.541 85.1402 189.359 85C189.178 84.8561 188.897 84.7462 188.518 84.6705L187.007 84.3693C186.155 84.1989 185.52 83.9034 185.104 83.483C184.691 83.0625 184.484 82.5265 184.484 81.875C184.484 81.3144 184.636 80.8314 184.939 80.4261C185.246 80.0208 185.676 79.7083 186.229 79.4886C186.786 79.2689 187.437 79.1591 188.183 79.1591C189.286 79.1591 190.153 79.392 190.786 79.858C191.422 80.3239 191.793 80.9583 191.899 81.7614Z" fill="white" fill-opacity="0.95"/>
<rect width="412" height="1" transform="translate(27 150)" fill="white" fill-opacity="0.3"/>
<path d="M27.6761 163.912V162.818H35.3125V163.912H32.1108V173H30.8778V163.912H27.6761ZM39.0511 173.159C38.3617 173.159 37.7569 172.995 37.2365 172.667C36.7195 172.339 36.3151 171.88 36.0234 171.29C35.7351 170.7 35.5909 170.01 35.5909 169.222C35.5909 168.426 35.7351 167.732 36.0234 167.138C36.3151 166.545 36.7195 166.085 37.2365 165.756C37.7569 165.428 38.3617 165.264 39.0511 165.264C39.7405 165.264 40.3438 165.428 40.8608 165.756C41.3812 166.085 41.7855 166.545 42.0739 167.138C42.3655 167.732 42.5114 168.426 42.5114 169.222C42.5114 170.01 42.3655 170.7 42.0739 171.29C41.7855 171.88 41.3812 172.339 40.8608 172.667C40.3438 172.995 39.7405 173.159 39.0511 173.159ZM39.0511 172.105C39.5748 172.105 40.0057 171.971 40.3438 171.702C40.6818 171.434 40.9321 171.081 41.0945 170.643C41.2569 170.206 41.3381 169.732 41.3381 169.222C41.3381 168.711 41.2569 168.236 41.0945 167.795C40.9321 167.354 40.6818 166.998 40.3438 166.726C40.0057 166.454 39.5748 166.318 39.0511 166.318C38.5275 166.318 38.0966 166.454 37.7585 166.726C37.4205 166.998 37.1702 167.354 37.0078 167.795C36.8454 168.236 36.7642 168.711 36.7642 169.222C36.7642 169.732 36.8454 170.206 37.0078 170.643C37.1702 171.081 37.4205 171.434 37.7585 171.702C38.0966 171.971 38.5275 172.105 39.0511 172.105ZM51.3422 173.159C50.6262 173.159 50.0098 172.99 49.4927 172.652C48.9757 172.314 48.5779 171.848 48.2995 171.255C48.0211 170.662 47.8819 169.984 47.8819 169.222C47.8819 168.446 48.0244 167.762 48.3095 167.168C48.5978 166.572 48.9989 166.106 49.5126 165.771C50.0297 165.433 50.6329 165.264 51.3223 165.264C51.8592 165.264 52.3431 165.364 52.774 165.562C53.2048 165.761 53.5578 166.04 53.8329 166.398C54.108 166.756 54.2787 167.173 54.345 167.651H53.1717C53.0822 167.303 52.8833 166.994 52.5751 166.726C52.2702 166.454 51.8592 166.318 51.3422 166.318C50.8848 166.318 50.4837 166.437 50.139 166.676C49.7976 166.911 49.5308 167.245 49.3386 167.675C49.1497 168.103 49.0552 168.605 49.0552 169.182C49.0552 169.772 49.148 170.286 49.3336 170.723C49.5225 171.161 49.7877 171.5 50.1291 171.742C50.4738 171.984 50.8781 172.105 51.3422 172.105C51.6471 172.105 51.9238 172.052 52.1724 171.946C52.421 171.84 52.6315 171.688 52.8038 171.489C52.9761 171.29 53.0988 171.051 53.1717 170.773H54.345C54.2787 171.223 54.1146 171.629 53.8528 171.991C53.5943 172.349 53.2512 172.634 52.8237 172.846C52.3994 173.055 51.9056 173.159 51.3422 173.159ZM57.2335 168.406V173H56.0602V162.818H57.2335V166.557H57.3329C57.5119 166.162 57.7804 165.849 58.1383 165.617C58.4996 165.382 58.9802 165.264 59.5801 165.264C60.1004 165.264 60.5562 165.369 60.9473 165.577C61.3384 165.783 61.6416 166.099 61.8571 166.527C62.0758 166.951 62.1852 167.491 62.1852 168.148V173H61.0119V168.227C61.0119 167.621 60.8545 167.152 60.5396 166.82C60.228 166.486 59.7955 166.318 59.242 166.318C58.8575 166.318 58.5128 166.399 58.2079 166.562C57.9063 166.724 57.6677 166.961 57.492 167.273C57.3197 167.584 57.2335 167.962 57.2335 168.406ZM66.5788 173.179C66.0949 173.179 65.6558 173.088 65.2614 172.906C64.867 172.72 64.5537 172.453 64.3217 172.105C64.0897 171.754 63.9737 171.33 63.9737 170.832C63.9737 170.395 64.0599 170.04 64.2322 169.768C64.4046 169.493 64.6349 169.278 64.9233 169.122C65.2116 168.966 65.5298 168.85 65.8778 168.774C66.2292 168.695 66.5821 168.632 66.9368 168.585C67.4008 168.526 67.777 168.481 68.0653 168.451C68.357 168.418 68.5691 168.363 68.7017 168.287C68.8376 168.211 68.9055 168.078 68.9055 167.889V167.849C68.9055 167.359 68.7713 166.978 68.5028 166.706C68.2377 166.434 67.835 166.298 67.2947 166.298C66.7346 166.298 66.2955 166.421 65.9773 166.666C65.6591 166.911 65.4354 167.173 65.3061 167.452L64.1925 167.054C64.3913 166.59 64.6565 166.229 64.9879 165.97C65.3227 165.708 65.6873 165.526 66.0817 165.423C66.4794 165.317 66.8705 165.264 67.255 165.264C67.5002 165.264 67.782 165.294 68.1001 165.354C68.4216 165.41 68.7315 165.528 69.0298 165.707C69.3314 165.886 69.5817 166.156 69.7805 166.517C69.9794 166.878 70.0788 167.362 70.0788 167.969V173H68.9055V171.966H68.8459C68.7663 172.132 68.6338 172.309 68.4482 172.498C68.2625 172.687 68.0156 172.848 67.7074 172.98C67.3991 173.113 67.023 173.179 66.5788 173.179ZM66.7578 172.125C67.2218 172.125 67.6129 172.034 67.9311 171.852C68.2526 171.669 68.4946 171.434 68.657 171.146C68.8227 170.857 68.9055 170.554 68.9055 170.236V169.162C68.8558 169.222 68.7464 169.276 68.5774 169.326C68.4117 169.372 68.2195 169.414 68.0007 169.45C67.7853 169.483 67.5748 169.513 67.3693 169.54C67.1671 169.563 67.0031 169.583 66.8771 169.599C66.5722 169.639 66.2872 169.704 66.022 169.793C65.7602 169.879 65.5481 170.01 65.3857 170.186C65.2266 170.358 65.147 170.594 65.147 170.892C65.147 171.3 65.2978 171.608 65.5994 171.817C65.9044 172.022 66.2905 172.125 66.7578 172.125ZM73.3936 168.406V173H72.2203V165.364H73.3539V166.557H73.4533C73.6323 166.169 73.9041 165.857 74.2686 165.622C74.6332 165.384 75.1039 165.264 75.6806 165.264C76.1976 165.264 76.65 165.37 77.0378 165.582C77.4256 165.791 77.7272 166.109 77.9426 166.537C78.1581 166.961 78.2658 167.498 78.2658 168.148V173H77.0925V168.227C77.0925 167.627 76.9367 167.16 76.6252 166.825C76.3136 166.487 75.8861 166.318 75.3425 166.318C74.968 166.318 74.6332 166.399 74.3382 166.562C74.0466 166.724 73.8162 166.961 73.6472 167.273C73.4782 167.584 73.3936 167.962 73.3936 168.406ZM83.4922 176.023C82.9254 176.023 82.4382 175.95 82.0305 175.804C81.6229 175.661 81.2831 175.473 81.0114 175.237C80.7429 175.005 80.5291 174.757 80.37 174.491L81.3047 173.835C81.4107 173.974 81.545 174.134 81.7074 174.312C81.8698 174.495 82.0919 174.652 82.3736 174.785C82.6586 174.921 83.0315 174.989 83.4922 174.989C84.1087 174.989 84.6174 174.839 85.0185 174.541C85.4195 174.243 85.62 173.776 85.62 173.139V171.588H85.5206C85.4344 171.727 85.3118 171.9 85.1527 172.105C84.9969 172.307 84.7715 172.488 84.4766 172.647C84.1849 172.803 83.7905 172.881 83.2933 172.881C82.6768 172.881 82.1233 172.735 81.6328 172.443C81.1456 172.152 80.7595 171.727 80.4744 171.17C80.1927 170.614 80.0518 169.937 80.0518 169.142C80.0518 168.36 80.1894 167.679 80.4645 167.099C80.7396 166.515 81.1224 166.065 81.6129 165.746C82.1035 165.425 82.6702 165.264 83.3132 165.264C83.8104 165.264 84.2048 165.347 84.4964 165.513C84.7914 165.675 85.0168 165.861 85.1726 166.07C85.3317 166.275 85.4543 166.444 85.5405 166.577H85.6598V165.364H86.7933V173.219C86.7933 173.875 86.6442 174.409 86.3459 174.82C86.0509 175.234 85.6532 175.537 85.1527 175.729C84.6555 175.925 84.102 176.023 83.4922 176.023ZM83.4524 171.827C83.9231 171.827 84.3208 171.719 84.6456 171.504C84.9704 171.288 85.2173 170.978 85.3864 170.574C85.5554 170.17 85.6399 169.686 85.6399 169.122C85.6399 168.572 85.5571 168.086 85.3913 167.665C85.2256 167.245 84.9804 166.915 84.6555 166.676C84.3307 166.437 83.9297 166.318 83.4524 166.318C82.9553 166.318 82.541 166.444 82.2095 166.696C81.8814 166.948 81.6345 167.286 81.4688 167.71C81.3063 168.134 81.2251 168.605 81.2251 169.122C81.2251 169.652 81.308 170.121 81.4737 170.529C81.6428 170.933 81.8913 171.252 82.2195 171.484C82.5509 171.712 82.9619 171.827 83.4524 171.827ZM92.1428 173.159C91.407 173.159 90.7723 172.997 90.2386 172.672C89.7083 172.344 89.299 171.886 89.0107 171.3C88.7256 170.71 88.5831 170.024 88.5831 169.241C88.5831 168.459 88.7256 167.77 89.0107 167.173C89.299 166.573 89.7 166.106 90.2138 165.771C90.7308 165.433 91.334 165.264 92.0234 165.264C92.4212 165.264 92.8139 165.33 93.2017 165.463C93.5895 165.596 93.9425 165.811 94.2607 166.109C94.5788 166.404 94.8324 166.795 95.0213 167.283C95.2102 167.77 95.3047 168.37 95.3047 169.082V169.58H89.4183V168.565H94.1115C94.1115 168.134 94.0253 167.75 93.853 167.412C93.6839 167.074 93.442 166.807 93.1271 166.612C92.8156 166.416 92.4477 166.318 92.0234 166.318C91.5561 166.318 91.1518 166.434 90.8104 166.666C90.4723 166.895 90.2121 167.193 90.0298 167.561C89.8475 167.929 89.7564 168.323 89.7564 168.744V169.42C89.7564 169.997 89.8558 170.486 90.0547 170.887C90.2569 171.285 90.5369 171.588 90.8949 171.797C91.2528 172.002 91.6688 172.105 92.1428 172.105C92.451 172.105 92.7294 172.062 92.978 171.976C93.2299 171.886 93.447 171.754 93.6293 171.578C93.8116 171.399 93.9524 171.177 94.0518 170.912L95.1854 171.23C95.0661 171.615 94.8655 171.953 94.5838 172.244C94.3021 172.533 93.9541 172.758 93.5398 172.92C93.1255 173.08 92.6598 173.159 92.1428 173.159ZM104.348 165.364V166.358H100.391V165.364H104.348ZM101.544 163.534H102.717V170.812C102.717 171.144 102.765 171.393 102.862 171.558C102.961 171.721 103.087 171.83 103.239 171.886C103.395 171.939 103.559 171.966 103.732 171.966C103.861 171.966 103.967 171.959 104.05 171.946C104.133 171.929 104.199 171.916 104.249 171.906L104.487 172.96C104.408 172.99 104.297 173.02 104.154 173.05C104.012 173.083 103.831 173.099 103.612 173.099C103.281 173.099 102.956 173.028 102.638 172.886C102.323 172.743 102.061 172.526 101.852 172.234C101.647 171.943 101.544 171.575 101.544 171.131V163.534ZM107.45 168.406V173H106.277V162.818H107.45V166.557H107.55C107.729 166.162 107.997 165.849 108.355 165.617C108.716 165.382 109.197 165.264 109.797 165.264C110.317 165.264 110.773 165.369 111.164 165.577C111.555 165.783 111.858 166.099 112.074 166.527C112.293 166.951 112.402 167.491 112.402 168.148V173H111.229V168.227C111.229 167.621 111.071 167.152 110.756 166.82C110.445 166.486 110.012 166.318 109.459 166.318C109.074 166.318 108.73 166.399 108.425 166.562C108.123 166.724 107.884 166.961 107.709 167.273C107.536 167.584 107.45 167.962 107.45 168.406ZM117.75 173.159C117.014 173.159 116.38 172.997 115.846 172.672C115.316 172.344 114.906 171.886 114.618 171.3C114.333 170.71 114.191 170.024 114.191 169.241C114.191 168.459 114.333 167.77 114.618 167.173C114.906 166.573 115.307 166.106 115.821 165.771C116.338 165.433 116.941 165.264 117.631 165.264C118.029 165.264 118.421 165.33 118.809 165.463C119.197 165.596 119.55 165.811 119.868 166.109C120.186 166.404 120.44 166.795 120.629 167.283C120.818 167.77 120.912 168.37 120.912 169.082V169.58H115.026V168.565H119.719C119.719 168.134 119.633 167.75 119.46 167.412C119.291 167.074 119.049 166.807 118.735 166.612C118.423 166.416 118.055 166.318 117.631 166.318C117.164 166.318 116.759 166.434 116.418 166.666C116.08 166.895 115.82 167.193 115.637 167.561C115.455 167.929 115.364 168.323 115.364 168.744V169.42C115.364 169.997 115.463 170.486 115.662 170.887C115.864 171.285 116.144 171.588 116.502 171.797C116.86 172.002 117.276 172.105 117.75 172.105C118.058 172.105 118.337 172.062 118.585 171.976C118.837 171.886 119.054 171.754 119.237 171.578C119.419 171.399 119.56 171.177 119.659 170.912L120.793 171.23C120.673 171.615 120.473 171.953 120.191 172.244C119.91 172.533 119.561 172.758 119.147 172.92C118.733 173.08 118.267 173.159 117.75 173.159ZM132.879 165.364L130.055 173H128.862L126.038 165.364H127.311L129.419 171.449H129.498L131.606 165.364H132.879ZM137.256 173.159C136.567 173.159 135.962 172.995 135.442 172.667C134.925 172.339 134.52 171.88 134.229 171.29C133.94 170.7 133.796 170.01 133.796 169.222C133.796 168.426 133.94 167.732 134.229 167.138C134.52 166.545 134.925 166.085 135.442 165.756C135.962 165.428 136.567 165.264 137.256 165.264C137.946 165.264 138.549 165.428 139.066 165.756C139.586 166.085 139.991 166.545 140.279 167.138C140.571 167.732 140.716 168.426 140.716 169.222C140.716 170.01 140.571 170.7 140.279 171.29C139.991 171.88 139.586 172.339 139.066 172.667C138.549 172.995 137.946 173.159 137.256 173.159ZM137.256 172.105C137.78 172.105 138.211 171.971 138.549 171.702C138.887 171.434 139.137 171.081 139.3 170.643C139.462 170.206 139.543 169.732 139.543 169.222C139.543 168.711 139.462 168.236 139.3 167.795C139.137 167.354 138.887 166.998 138.549 166.726C138.211 166.454 137.78 166.318 137.256 166.318C136.733 166.318 136.302 166.454 135.964 166.726C135.626 166.998 135.375 167.354 135.213 167.795C135.05 168.236 134.969 168.711 134.969 169.222C134.969 169.732 135.05 170.206 135.213 170.643C135.375 171.081 135.626 171.434 135.964 171.702C136.302 171.971 136.733 172.105 137.256 172.105ZM143.681 162.818V173H142.507V162.818H143.681ZM150.642 169.878V165.364H151.816V173H150.642V171.707H150.563C150.384 172.095 150.105 172.425 149.727 172.697C149.35 172.965 148.872 173.099 148.296 173.099C147.818 173.099 147.394 172.995 147.023 172.786C146.652 172.574 146.36 172.256 146.148 171.832C145.936 171.404 145.83 170.866 145.83 170.216V165.364H147.003V170.136C147.003 170.693 147.159 171.137 147.47 171.469C147.785 171.8 148.186 171.966 148.673 171.966C148.965 171.966 149.262 171.891 149.563 171.742C149.868 171.593 150.124 171.364 150.329 171.056C150.538 170.748 150.642 170.355 150.642 169.878ZM153.964 173V165.364H155.098V166.557H155.197C155.357 166.149 155.613 165.833 155.968 165.607C156.323 165.379 156.749 165.264 157.246 165.264C157.75 165.264 158.169 165.379 158.504 165.607C158.842 165.833 159.105 166.149 159.294 166.557H159.374C159.569 166.162 159.862 165.849 160.254 165.617C160.645 165.382 161.114 165.264 161.661 165.264C162.343 165.264 162.902 165.478 163.336 165.906C163.77 166.33 163.987 166.991 163.987 167.889V173H162.814V167.889C162.814 167.326 162.66 166.923 162.352 166.681C162.043 166.439 161.68 166.318 161.263 166.318C160.726 166.318 160.31 166.481 160.015 166.805C159.72 167.127 159.572 167.535 159.572 168.028V173H158.379V167.77C158.379 167.336 158.238 166.986 157.957 166.721C157.675 166.452 157.312 166.318 156.868 166.318C156.563 166.318 156.278 166.399 156.013 166.562C155.751 166.724 155.539 166.95 155.376 167.238C155.217 167.523 155.138 167.853 155.138 168.227V173H153.964ZM169.334 173.159C168.598 173.159 167.964 172.997 167.43 172.672C166.9 172.344 166.49 171.886 166.202 171.3C165.917 170.71 165.775 170.024 165.775 169.241C165.775 168.459 165.917 167.77 166.202 167.173C166.49 166.573 166.891 166.106 167.405 165.771C167.922 165.433 168.525 165.264 169.215 165.264C169.613 165.264 170.005 165.33 170.393 165.463C170.781 165.596 171.134 165.811 171.452 166.109C171.77 166.404 172.024 166.795 172.213 167.283C172.402 167.77 172.496 168.37 172.496 169.082V169.58H166.61V168.565H171.303C171.303 168.134 171.217 167.75 171.044 167.412C170.875 167.074 170.633 166.807 170.319 166.612C170.007 166.416 169.639 166.318 169.215 166.318C168.748 166.318 168.343 166.434 168.002 166.666C167.664 166.895 167.404 167.193 167.221 167.561C167.039 167.929 166.948 168.323 166.948 168.744V169.42C166.948 169.997 167.047 170.486 167.246 170.887C167.448 171.285 167.728 171.588 168.086 171.797C168.444 172.002 168.86 172.105 169.334 172.105C169.642 172.105 169.921 172.062 170.169 171.976C170.421 171.886 170.638 171.754 170.821 171.578C171.003 171.399 171.144 171.177 171.243 170.912L172.377 171.23C172.257 171.615 172.057 171.953 171.775 172.244C171.493 172.533 171.145 172.758 170.731 172.92C170.317 173.08 169.851 173.159 169.334 173.159ZM181.321 173.159C180.631 173.159 180.026 172.995 179.506 172.667C178.989 172.339 178.585 171.88 178.293 171.29C178.005 170.7 177.86 170.01 177.86 169.222C177.86 168.426 178.005 167.732 178.293 167.138C178.585 166.545 178.989 166.085 179.506 165.756C180.026 165.428 180.631 165.264 181.321 165.264C182.01 165.264 182.613 165.428 183.13 165.756C183.651 166.085 184.055 166.545 184.343 167.138C184.635 167.732 184.781 168.426 184.781 169.222C184.781 170.01 184.635 170.7 184.343 171.29C184.055 171.88 183.651 172.339 183.13 172.667C182.613 172.995 182.01 173.159 181.321 173.159ZM181.321 172.105C181.844 172.105 182.275 171.971 182.613 171.702C182.951 171.434 183.202 171.081 183.364 170.643C183.526 170.206 183.608 169.732 183.608 169.222C183.608 168.711 183.526 168.236 183.364 167.795C183.202 167.354 182.951 166.998 182.613 166.726C182.275 166.454 181.844 166.318 181.321 166.318C180.797 166.318 180.366 166.454 180.028 166.726C179.69 166.998 179.44 167.354 179.277 167.795C179.115 168.236 179.034 168.711 179.034 169.222C179.034 169.732 179.115 170.206 179.277 170.643C179.44 171.081 179.69 171.434 180.028 171.702C180.366 171.971 180.797 172.105 181.321 172.105ZM189.972 165.364V166.358H185.856V165.364H189.972ZM187.089 173V164.31C187.089 163.872 187.192 163.508 187.397 163.216C187.603 162.924 187.869 162.705 188.198 162.56C188.526 162.414 188.872 162.341 189.237 162.341C189.525 162.341 189.76 162.364 189.943 162.411C190.125 162.457 190.261 162.5 190.35 162.54L190.012 163.554C189.953 163.534 189.87 163.509 189.764 163.479C189.661 163.45 189.525 163.435 189.356 163.435C188.968 163.435 188.688 163.532 188.516 163.728C188.347 163.924 188.262 164.21 188.262 164.588V173H187.089ZM196.31 175.844C196.111 175.844 195.934 175.827 195.778 175.794C195.622 175.764 195.515 175.734 195.455 175.705L195.753 174.67C196.181 174.78 196.537 174.777 196.822 174.661C197.107 174.548 197.354 174.206 197.563 173.636L197.782 173.04L194.958 165.364H196.23L198.338 171.449H198.418L200.526 165.364L201.809 165.384L198.557 174.114C198.411 174.501 198.231 174.823 198.015 175.078C197.8 175.337 197.55 175.529 197.265 175.655C196.983 175.781 196.665 175.844 196.31 175.844ZM206.19 173.159C205.5 173.159 204.896 172.995 204.375 172.667C203.858 172.339 203.454 171.88 203.162 171.29C202.874 170.7 202.73 170.01 202.73 169.222C202.73 168.426 202.874 167.732 203.162 167.138C203.454 166.545 203.858 166.085 204.375 165.756C204.896 165.428 205.5 165.264 206.19 165.264C206.879 165.264 207.482 165.428 207.999 165.756C208.52 166.085 208.924 166.545 209.213 167.138C209.504 167.732 209.65 168.426 209.65 169.222C209.65 170.01 209.504 170.7 209.213 171.29C208.924 171.88 208.52 172.339 207.999 172.667C207.482 172.995 206.879 173.159 206.19 173.159ZM206.19 172.105C206.713 172.105 207.144 171.971 207.482 171.702C207.82 171.434 208.071 171.081 208.233 170.643C208.396 170.206 208.477 169.732 208.477 169.222C208.477 168.711 208.396 168.236 208.233 167.795C208.071 167.354 207.82 166.998 207.482 166.726C207.144 166.454 206.713 166.318 206.19 166.318C205.666 166.318 205.235 166.454 204.897 166.726C204.559 166.998 204.309 167.354 204.146 167.795C203.984 168.236 203.903 168.711 203.903 169.222C203.903 169.732 203.984 170.206 204.146 170.643C204.309 171.081 204.559 171.434 204.897 171.702C205.235 171.971 205.666 172.105 206.19 172.105ZM216.254 169.878V165.364H217.427V173H216.254V171.707H216.174C215.995 172.095 215.717 172.425 215.339 172.697C214.961 172.965 214.484 173.099 213.907 173.099C213.43 173.099 213.005 172.995 212.634 172.786C212.263 172.574 211.971 172.256 211.759 171.832C211.547 171.404 211.441 170.866 211.441 170.216V165.364H212.614V170.136C212.614 170.693 212.77 171.137 213.082 171.469C213.397 171.8 213.798 171.966 214.285 171.966C214.576 171.966 214.873 171.891 215.175 171.742C215.48 171.593 215.735 171.364 215.94 171.056C216.149 170.748 216.254 170.355 216.254 169.878ZM219.576 173V165.364H220.709V166.517H220.789C220.928 166.139 221.18 165.833 221.545 165.597C221.909 165.362 222.32 165.244 222.778 165.244C222.864 165.244 222.971 165.246 223.101 165.249C223.23 165.253 223.328 165.258 223.394 165.264V166.457C223.354 166.447 223.263 166.433 223.121 166.413C222.981 166.389 222.834 166.378 222.678 166.378C222.307 166.378 221.975 166.456 221.684 166.612C221.395 166.764 221.167 166.976 220.998 167.248C220.832 167.516 220.749 167.823 220.749 168.168V173H219.576ZM229.896 168.406V173H228.722V165.364H229.856V166.557H229.955C230.134 166.169 230.406 165.857 230.771 165.622C231.135 165.384 231.606 165.264 232.183 165.264C232.7 165.264 233.152 165.37 233.54 165.582C233.928 165.791 234.229 166.109 234.445 166.537C234.66 166.961 234.768 167.498 234.768 168.148V173H233.594V168.227C233.594 167.627 233.439 167.16 233.127 166.825C232.816 166.487 232.388 166.318 231.844 166.318C231.47 166.318 231.135 166.399 230.84 166.562C230.549 166.724 230.318 166.961 230.149 167.273C229.98 167.584 229.896 167.962 229.896 168.406ZM240.014 173.159C239.325 173.159 238.72 172.995 238.199 172.667C237.682 172.339 237.278 171.88 236.986 171.29C236.698 170.7 236.554 170.01 236.554 169.222C236.554 168.426 236.698 167.732 236.986 167.138C237.278 166.545 237.682 166.085 238.199 165.756C238.72 165.428 239.325 165.264 240.014 165.264C240.703 165.264 241.307 165.428 241.824 165.756C242.344 166.085 242.748 166.545 243.037 167.138C243.328 167.732 243.474 168.426 243.474 169.222C243.474 170.01 243.328 170.7 243.037 171.29C242.748 171.88 242.344 172.339 241.824 172.667C241.307 172.995 240.703 173.159 240.014 173.159ZM240.014 172.105C240.538 172.105 240.969 171.971 241.307 171.702C241.645 171.434 241.895 171.081 242.057 170.643C242.22 170.206 242.301 169.732 242.301 169.222C242.301 168.711 242.22 168.236 242.057 167.795C241.895 167.354 241.645 166.998 241.307 166.726C240.969 166.454 240.538 166.318 240.014 166.318C239.49 166.318 239.059 166.454 238.721 166.726C238.383 166.998 238.133 167.354 237.971 167.795C237.808 168.236 237.727 168.711 237.727 169.222C237.727 169.732 237.808 170.206 237.971 170.643C238.133 171.081 238.383 171.434 238.721 171.702C239.059 171.971 239.49 172.105 240.014 172.105ZM248.586 165.364V166.358H244.629V165.364H248.586ZM245.782 163.534H246.956V170.812C246.956 171.144 247.004 171.393 247.1 171.558C247.199 171.721 247.325 171.83 247.478 171.886C247.633 171.939 247.797 171.966 247.97 171.966C248.099 171.966 248.205 171.959 248.288 171.946C248.371 171.929 248.437 171.916 248.487 171.906L248.725 172.96C248.646 172.99 248.535 173.02 248.392 173.05C248.25 173.083 248.069 173.099 247.85 173.099C247.519 173.099 247.194 173.028 246.876 172.886C246.561 172.743 246.299 172.526 246.091 172.234C245.885 171.943 245.782 171.575 245.782 171.131V163.534ZM250.351 173V165.364H251.525V173H250.351ZM250.948 164.091C250.719 164.091 250.522 164.013 250.356 163.857C250.194 163.701 250.113 163.514 250.113 163.295C250.113 163.077 250.194 162.889 250.356 162.734C250.522 162.578 250.719 162.5 250.948 162.5C251.176 162.5 251.372 162.578 251.534 162.734C251.7 162.889 251.783 163.077 251.783 163.295C251.783 163.514 251.7 163.701 251.534 163.857C251.372 164.013 251.176 164.091 250.948 164.091ZM257.074 165.364V166.358H252.958V165.364H257.074ZM254.191 173V164.31C254.191 163.872 254.293 163.508 254.499 163.216C254.704 162.924 254.971 162.705 255.299 162.56C255.627 162.414 255.974 162.341 256.338 162.341C256.627 162.341 256.862 162.364 257.044 162.411C257.227 162.457 257.362 162.5 257.452 162.54L257.114 163.554C257.054 163.534 256.971 163.509 256.865 163.479C256.762 163.45 256.627 163.435 256.458 163.435C256.07 163.435 255.79 163.532 255.617 163.728C255.448 163.924 255.364 164.21 255.364 164.588V173H254.191ZM258.718 173V165.364H259.892V173H258.718ZM259.315 164.091C259.086 164.091 258.889 164.013 258.723 163.857C258.561 163.701 258.48 163.514 258.48 163.295C258.48 163.077 258.561 162.889 258.723 162.734C258.889 162.578 259.086 162.5 259.315 162.5C259.544 162.5 259.739 162.578 259.902 162.734C260.067 162.889 260.15 163.077 260.15 163.295C260.15 163.514 260.067 163.701 259.902 163.857C259.739 164.013 259.544 164.091 259.315 164.091ZM265.143 173.159C264.427 173.159 263.811 172.99 263.294 172.652C262.776 172.314 262.379 171.848 262.1 171.255C261.822 170.662 261.683 169.984 261.683 169.222C261.683 168.446 261.825 167.762 262.11 167.168C262.399 166.572 262.8 166.106 263.313 165.771C263.83 165.433 264.434 165.264 265.123 165.264C265.66 165.264 266.144 165.364 266.575 165.562C267.006 165.761 267.359 166.04 267.634 166.398C267.909 166.756 268.079 167.173 268.146 167.651H266.972C266.883 167.303 266.684 166.994 266.376 166.726C266.071 166.454 265.66 166.318 265.143 166.318C264.686 166.318 264.285 166.437 263.94 166.676C263.598 166.911 263.332 167.245 263.139 167.675C262.95 168.103 262.856 168.605 262.856 169.182C262.856 169.772 262.949 170.286 263.134 170.723C263.323 171.161 263.588 171.5 263.93 171.742C264.275 171.984 264.679 172.105 265.143 172.105C265.448 172.105 265.725 172.052 265.973 171.946C266.222 171.84 266.432 171.688 266.605 171.489C266.777 171.29 266.9 171.051 266.972 170.773H268.146C268.079 171.223 267.915 171.629 267.654 171.991C267.395 172.349 267.052 172.634 266.624 172.846C266.2 173.055 265.706 173.159 265.143 173.159ZM272.108 173.179C271.624 173.179 271.185 173.088 270.791 172.906C270.396 172.72 270.083 172.453 269.851 172.105C269.619 171.754 269.503 171.33 269.503 170.832C269.503 170.395 269.589 170.04 269.762 169.768C269.934 169.493 270.164 169.278 270.453 169.122C270.741 168.966 271.059 168.85 271.407 168.774C271.758 168.695 272.111 168.632 272.466 168.585C272.93 168.526 273.306 168.481 273.595 168.451C273.886 168.418 274.098 168.363 274.231 168.287C274.367 168.211 274.435 168.078 274.435 167.889V167.849C274.435 167.359 274.301 166.978 274.032 166.706C273.767 166.434 273.364 166.298 272.824 166.298C272.264 166.298 271.825 166.421 271.507 166.666C271.188 166.911 270.965 167.173 270.835 167.452L269.722 167.054C269.921 166.59 270.186 166.229 270.517 165.97C270.852 165.708 271.217 165.526 271.611 165.423C272.009 165.317 272.4 165.264 272.784 165.264C273.03 165.264 273.311 165.294 273.629 165.354C273.951 165.41 274.261 165.528 274.559 165.707C274.861 165.886 275.111 166.156 275.31 166.517C275.509 166.878 275.608 167.362 275.608 167.969V173H274.435V171.966H274.375C274.296 172.132 274.163 172.309 273.977 172.498C273.792 172.687 273.545 172.848 273.237 172.98C272.928 173.113 272.552 173.179 272.108 173.179ZM272.287 172.125C272.751 172.125 273.142 172.034 273.46 171.852C273.782 171.669 274.024 171.434 274.186 171.146C274.352 170.857 274.435 170.554 274.435 170.236V169.162C274.385 169.222 274.276 169.276 274.107 169.326C273.941 169.372 273.749 169.414 273.53 169.45C273.315 169.483 273.104 169.513 272.899 169.54C272.696 169.563 272.532 169.583 272.406 169.599C272.102 169.639 271.816 169.704 271.551 169.793C271.289 169.879 271.077 170.01 270.915 170.186C270.756 170.358 270.676 170.594 270.676 170.892C270.676 171.3 270.827 171.608 271.129 171.817C271.434 172.022 271.82 172.125 272.287 172.125ZM281.071 165.364V166.358H277.113V165.364H281.071ZM278.267 163.534H279.44V170.812C279.44 171.144 279.488 171.393 279.584 171.558C279.684 171.721 279.81 171.83 279.962 171.886C280.118 171.939 280.282 171.966 280.454 171.966C280.583 171.966 280.69 171.959 280.772 171.946C280.855 171.929 280.922 171.916 280.971 171.906L281.21 172.96C281.13 172.99 281.019 173.02 280.877 173.05C280.734 173.083 280.554 173.099 280.335 173.099C280.003 173.099 279.679 173.028 279.36 172.886C279.046 172.743 278.784 172.526 278.575 172.234C278.369 171.943 278.267 171.575 278.267 171.131V163.534ZM282.836 173V165.364H284.009V173H282.836ZM283.432 164.091C283.203 164.091 283.006 164.013 282.841 163.857C282.678 163.701 282.597 163.514 282.597 163.295C282.597 163.077 282.678 162.889 282.841 162.734C283.006 162.578 283.203 162.5 283.432 162.5C283.661 162.5 283.856 162.578 284.019 162.734C284.185 162.889 284.267 163.077 284.267 163.295C284.267 163.514 284.185 163.701 284.019 163.857C283.856 164.013 283.661 164.091 283.432 164.091ZM289.26 173.159C288.571 173.159 287.966 172.995 287.445 172.667C286.928 172.339 286.524 171.88 286.232 171.29C285.944 170.7 285.8 170.01 285.8 169.222C285.8 168.426 285.944 167.732 286.232 167.138C286.524 166.545 286.928 166.085 287.445 165.756C287.966 165.428 288.571 165.264 289.26 165.264C289.95 165.264 290.553 165.428 291.07 165.756C291.59 166.085 291.994 166.545 292.283 167.138C292.575 167.732 292.72 168.426 292.72 169.222C292.72 170.01 292.575 170.7 292.283 171.29C291.994 171.88 291.59 172.339 291.07 172.667C290.553 172.995 289.95 173.159 289.26 173.159ZM289.26 172.105C289.784 172.105 290.215 171.971 290.553 171.702C290.891 171.434 291.141 171.081 291.303 170.643C291.466 170.206 291.547 169.732 291.547 169.222C291.547 168.711 291.466 168.236 291.303 167.795C291.141 167.354 290.891 166.998 290.553 166.726C290.215 166.454 289.784 166.318 289.26 166.318C288.736 166.318 288.306 166.454 287.968 166.726C287.629 166.998 287.379 167.354 287.217 167.795C287.054 168.236 286.973 168.711 286.973 169.222C286.973 169.732 287.054 170.206 287.217 170.643C287.379 171.081 287.629 171.434 287.968 171.702C288.306 171.971 288.736 172.105 289.26 172.105ZM295.685 168.406V173H294.511V165.364H295.645V166.557H295.744C295.923 166.169 296.195 165.857 296.56 165.622C296.924 165.384 297.395 165.264 297.972 165.264C298.489 165.264 298.941 165.37 299.329 165.582C299.717 165.791 300.018 166.109 300.234 166.537C300.449 166.961 300.557 167.498 300.557 168.148V173H299.384V168.227C299.384 167.627 299.228 167.16 298.916 166.825C298.605 166.487 298.177 166.318 297.634 166.318C297.259 166.318 296.924 166.399 296.629 166.562C296.338 166.724 296.107 166.961 295.938 167.273C295.769 167.584 295.685 167.962 295.685 168.406ZM312.047 167.074L310.993 167.372C310.927 167.196 310.829 167.026 310.7 166.86C310.574 166.691 310.402 166.552 310.183 166.442C309.964 166.333 309.684 166.278 309.343 166.278C308.876 166.278 308.486 166.386 308.175 166.602C307.866 166.814 307.712 167.084 307.712 167.412C307.712 167.704 307.818 167.934 308.03 168.103C308.242 168.272 308.574 168.413 309.025 168.526L310.158 168.804C310.841 168.97 311.35 169.223 311.684 169.565C312.019 169.903 312.187 170.339 312.187 170.872C312.187 171.31 312.061 171.701 311.809 172.045C311.56 172.39 311.212 172.662 310.765 172.861C310.317 173.06 309.797 173.159 309.204 173.159C308.425 173.159 307.78 172.99 307.27 172.652C306.759 172.314 306.436 171.82 306.3 171.17L307.414 170.892C307.52 171.303 307.72 171.611 308.015 171.817C308.314 172.022 308.703 172.125 309.184 172.125C309.731 172.125 310.165 172.009 310.486 171.777C310.811 171.542 310.974 171.26 310.974 170.932C310.974 170.667 310.881 170.445 310.695 170.266C310.51 170.083 310.224 169.947 309.84 169.858L308.567 169.56C307.868 169.394 307.354 169.137 307.026 168.789C306.701 168.438 306.539 167.999 306.539 167.472C306.539 167.041 306.66 166.66 306.902 166.328C307.147 165.997 307.48 165.737 307.901 165.548C308.325 165.359 308.806 165.264 309.343 165.264C310.099 165.264 310.692 165.43 311.123 165.761C311.557 166.093 311.865 166.53 312.047 167.074ZM317.055 173.159C316.366 173.159 315.761 172.995 315.24 172.667C314.723 172.339 314.319 171.88 314.027 171.29C313.739 170.7 313.595 170.01 313.595 169.222C313.595 168.426 313.739 167.732 314.027 167.138C314.319 166.545 314.723 166.085 315.24 165.756C315.761 165.428 316.366 165.264 317.055 165.264C317.744 165.264 318.348 165.428 318.865 165.756C319.385 166.085 319.789 166.545 320.078 167.138C320.369 167.732 320.515 168.426 320.515 169.222C320.515 170.01 320.369 170.7 320.078 171.29C319.789 171.88 319.385 172.339 318.865 172.667C318.348 172.995 317.744 173.159 317.055 173.159ZM317.055 172.105C317.579 172.105 318.01 171.971 318.348 171.702C318.686 171.434 318.936 171.081 319.098 170.643C319.261 170.206 319.342 169.732 319.342 169.222C319.342 168.711 319.261 168.236 319.098 167.795C318.936 167.354 318.686 166.998 318.348 166.726C318.01 166.454 317.579 166.318 317.055 166.318C316.531 166.318 316.1 166.454 315.762 166.726C315.424 166.998 315.174 167.354 315.012 167.795C314.849 168.236 314.768 168.711 314.768 169.222C314.768 169.732 314.849 170.206 315.012 170.643C315.174 171.081 315.424 171.434 315.762 171.702C316.1 171.971 316.531 172.105 317.055 172.105ZM327.119 169.878V165.364H328.292V173H327.119V171.707H327.039C326.86 172.095 326.582 172.425 326.204 172.697C325.826 172.965 325.349 173.099 324.772 173.099C324.295 173.099 323.871 172.995 323.499 172.786C323.128 172.574 322.837 172.256 322.624 171.832C322.412 171.404 322.306 170.866 322.306 170.216V165.364H323.48V170.136C323.48 170.693 323.635 171.137 323.947 171.469C324.262 171.8 324.663 171.966 325.15 171.966C325.442 171.966 325.738 171.891 326.04 171.742C326.345 171.593 326.6 171.364 326.806 171.056C327.014 170.748 327.119 170.355 327.119 169.878ZM331.614 168.406V173H330.441V165.364H331.575V166.557H331.674C331.853 166.169 332.125 165.857 332.489 165.622C332.854 165.384 333.325 165.264 333.901 165.264C334.418 165.264 334.871 165.37 335.259 165.582C335.646 165.791 335.948 166.109 336.163 166.537C336.379 166.961 336.487 167.498 336.487 168.148V173H335.313V168.227C335.313 167.627 335.157 167.16 334.846 166.825C334.534 166.487 334.107 166.318 333.563 166.318C333.189 166.318 332.854 166.399 332.559 166.562C332.267 166.724 332.037 166.961 331.868 167.273C331.699 167.584 331.614 167.962 331.614 168.406ZM341.514 173.159C340.878 173.159 340.316 172.998 339.829 172.677C339.341 172.352 338.96 171.895 338.685 171.305C338.41 170.711 338.273 170.01 338.273 169.202C338.273 168.4 338.41 167.704 338.685 167.114C338.96 166.524 339.343 166.068 339.834 165.746C340.324 165.425 340.891 165.264 341.534 165.264C342.031 165.264 342.424 165.347 342.712 165.513C343.004 165.675 343.226 165.861 343.378 166.07C343.534 166.275 343.655 166.444 343.741 166.577H343.841V162.818H345.014V173H343.881V171.827H343.741C343.655 171.966 343.532 172.142 343.373 172.354C343.214 172.562 342.987 172.75 342.692 172.915C342.397 173.078 342.005 173.159 341.514 173.159ZM341.673 172.105C342.144 172.105 342.541 171.982 342.866 171.737C343.191 171.489 343.438 171.146 343.607 170.708C343.776 170.267 343.861 169.759 343.861 169.182C343.861 168.612 343.778 168.113 343.612 167.685C343.446 167.254 343.201 166.92 342.876 166.681C342.551 166.439 342.15 166.318 341.673 166.318C341.176 166.318 340.762 166.446 340.43 166.701C340.102 166.953 339.855 167.296 339.689 167.73C339.527 168.161 339.446 168.645 339.446 169.182C339.446 169.725 339.529 170.219 339.694 170.663C339.863 171.104 340.112 171.455 340.44 171.717C340.772 171.976 341.183 172.105 341.673 172.105ZM352.735 167.074L351.681 167.372C351.615 167.196 351.517 167.026 351.388 166.86C351.262 166.691 351.089 166.552 350.871 166.442C350.652 166.333 350.372 166.278 350.03 166.278C349.563 166.278 349.174 166.386 348.862 166.602C348.554 166.814 348.4 167.084 348.4 167.412C348.4 167.704 348.506 167.934 348.718 168.103C348.93 168.272 349.261 168.413 349.712 168.526L350.846 168.804C351.528 168.97 352.037 169.223 352.372 169.565C352.707 169.903 352.874 170.339 352.874 170.872C352.874 171.31 352.748 171.701 352.496 172.045C352.248 172.39 351.9 172.662 351.452 172.861C351.005 173.06 350.484 173.159 349.891 173.159C349.112 173.159 348.468 172.99 347.957 172.652C347.447 172.314 347.124 171.82 346.988 171.17L348.101 170.892C348.207 171.303 348.408 171.611 348.703 171.817C349.001 172.022 349.391 172.125 349.871 172.125C350.418 172.125 350.852 172.009 351.174 171.777C351.499 171.542 351.661 171.26 351.661 170.932C351.661 170.667 351.568 170.445 351.383 170.266C351.197 170.083 350.912 169.947 350.528 169.858L349.255 169.56C348.555 169.394 348.042 169.137 347.714 168.789C347.389 168.438 347.226 167.999 347.226 167.472C347.226 167.041 347.347 166.66 347.589 166.328C347.835 165.997 348.168 165.737 348.589 165.548C349.013 165.359 349.493 165.264 350.03 165.264C350.786 165.264 351.379 165.43 351.81 165.761C352.244 166.093 352.553 166.53 352.735 167.074ZM356.39 171.608L356.311 172.145C356.254 172.523 356.168 172.927 356.052 173.358C355.94 173.789 355.822 174.195 355.699 174.576C355.577 174.957 355.475 175.26 355.396 175.486H354.501C354.544 175.274 354.6 174.994 354.67 174.646C354.74 174.298 354.809 173.908 354.879 173.477C354.952 173.05 355.011 172.612 355.058 172.165L355.118 171.608H356.39Z" fill="white" fill-opacity="0.7"/>
<path d="M362.324 173.49H363.766C363.831 173.863 364.018 174.153 364.326 174.358C364.643 174.563 365.058 174.666 365.572 174.666C366.29 174.666 366.827 174.479 367.182 174.106C367.48 173.789 367.63 173.345 367.63 172.776V171.838C367.088 172.473 366.281 172.79 365.208 172.79C364.237 172.79 363.448 172.44 362.842 171.74C362.272 171.087 361.988 170.237 361.988 169.192C361.988 167.979 362.333 167.041 363.024 166.378C363.612 165.799 364.368 165.51 365.292 165.51C366.337 165.51 367.126 165.902 367.658 166.686L367.868 165.72H368.974V172.846C368.974 173.761 368.642 174.479 367.98 175.002C367.382 175.487 366.594 175.73 365.614 175.73C364.596 175.73 363.798 175.501 363.22 175.044C362.734 174.661 362.436 174.143 362.324 173.49ZM363.388 169.22C363.388 170.013 363.621 170.634 364.088 171.082C364.47 171.455 364.942 171.642 365.502 171.642C366.239 171.642 366.804 171.399 367.196 170.914C367.532 170.503 367.7 169.953 367.7 169.262C367.7 168.375 367.471 167.699 367.014 167.232C366.631 166.849 366.127 166.658 365.502 166.658C364.811 166.658 364.279 166.896 363.906 167.372C363.56 167.82 363.388 168.436 363.388 169.22ZM370.519 169.36C370.519 168.025 370.916 167.017 371.709 166.336C372.344 165.785 373.146 165.51 374.117 165.51C375.246 165.51 376.133 165.869 376.777 166.588C377.393 167.26 377.701 168.184 377.701 169.36C377.701 170.676 377.314 171.679 376.539 172.37C375.904 172.93 375.092 173.21 374.103 173.21C372.974 173.21 372.082 172.837 371.429 172.09C370.822 171.409 370.519 170.499 370.519 169.36ZM371.919 169.36C371.919 170.293 372.157 171.007 372.633 171.502C373.025 171.913 373.524 172.118 374.131 172.118C374.84 172.118 375.386 171.852 375.769 171.32C376.124 170.835 376.301 170.181 376.301 169.36C376.301 168.408 376.068 167.689 375.601 167.204C375.218 166.803 374.724 166.602 374.117 166.602C373.417 166.602 372.871 166.868 372.479 167.4C372.106 167.885 371.919 168.539 371.919 169.36ZM386.683 171.922V173.07C386.338 173.163 386.006 173.21 385.689 173.21C385.017 173.21 384.513 173 384.177 172.58C383.888 172.235 383.743 171.773 383.743 171.194V166.868H382.665V165.72H383.743L383.827 163.97H385.087V165.72H386.655V166.868H385.087V171.222C385.087 171.763 385.344 172.034 385.857 172.034C386.1 172.034 386.375 171.997 386.683 171.922ZM387.458 169.36C387.458 168.025 387.855 167.017 388.648 166.336C389.283 165.785 390.086 165.51 391.056 165.51C392.186 165.51 393.072 165.869 393.716 166.588C394.332 167.26 394.64 168.184 394.64 169.36C394.64 170.676 394.253 171.679 393.478 172.37C392.844 172.93 392.032 173.21 391.042 173.21C389.913 173.21 389.022 172.837 388.368 172.09C387.762 171.409 387.458 170.499 387.458 169.36ZM388.858 169.36C388.858 170.293 389.096 171.007 389.572 171.502C389.964 171.913 390.464 172.118 391.07 172.118C391.78 172.118 392.326 171.852 392.708 171.32C393.063 170.835 393.24 170.181 393.24 169.36C393.24 168.408 393.007 167.689 392.54 167.204C392.158 166.803 391.663 166.602 391.056 166.602C390.356 166.602 389.81 166.868 389.418 167.4C389.045 167.885 388.858 168.539 388.858 169.36ZM409.279 173H407.697L406.703 170.452H401.901L400.893 173H399.395L403.539 162.92H405.149L409.279 173ZM404.323 164.348L402.363 169.29H406.241L404.323 164.348ZM410.189 165.72H411.533V170.494C411.533 171.539 412.037 172.062 413.045 172.062C413.661 172.062 414.133 171.843 414.459 171.404C414.711 171.068 414.837 170.653 414.837 170.158V165.72H416.181V173H415.075L414.921 172.16C414.408 172.86 413.68 173.21 412.737 173.21C411.907 173.21 411.267 172.953 410.819 172.44C410.399 171.964 410.189 171.306 410.189 170.466V165.72ZM424.714 173H423.608L423.37 171.978C422.81 172.799 422.003 173.21 420.948 173.21C419.931 173.21 419.128 172.841 418.54 172.104C417.999 171.423 417.728 170.522 417.728 169.402C417.728 168.049 418.073 167.031 418.764 166.35C419.343 165.79 420.099 165.51 421.032 165.51C422.04 165.51 422.819 165.888 423.37 166.644V162.92H424.714V173ZM419.128 169.43C419.128 170.335 419.352 171.021 419.8 171.488C420.173 171.871 420.654 172.062 421.242 172.062C421.97 172.062 422.535 171.787 422.936 171.236C423.272 170.76 423.44 170.163 423.44 169.444C423.44 168.501 423.216 167.783 422.768 167.288C422.385 166.868 421.877 166.658 421.242 166.658C420.533 166.658 419.996 166.915 419.632 167.428C419.296 167.895 419.128 168.562 419.128 169.43ZM428.107 164.502H426.595V162.92H428.107V164.502ZM428.023 173H426.679V165.72H428.023V173ZM429.568 169.36C429.568 168.025 429.964 167.017 430.758 166.336C431.392 165.785 432.195 165.51 433.166 165.51C434.295 165.51 435.182 165.869 435.826 166.588C436.442 167.26 436.75 168.184 436.75 169.36C436.75 170.676 436.362 171.679 435.588 172.37C434.953 172.93 434.141 173.21 433.152 173.21C432.022 173.21 431.131 172.837 430.478 172.09C429.871 171.409 429.568 170.499 429.568 169.36ZM430.968 169.36C430.968 170.293 431.206 171.007 431.682 171.502C432.074 171.913 432.573 172.118 433.18 172.118C433.889 172.118 434.435 171.852 434.818 171.32C435.172 170.835 435.35 170.181 435.35 169.36C435.35 168.408 435.116 167.689 434.65 167.204C434.267 166.803 433.772 166.602 433.166 166.602C432.466 166.602 431.92 166.868 431.528 167.4C431.154 167.885 430.968 168.539 430.968 169.36ZM440.014 173H438.39V171.376H440.014V173Z" fill="#64B4FA"/>
<path d="M361.428 174.26H441.302V175.45H361.428V174.26Z" fill="#64B4FA"/>
<rect opacity="0.5" x="27" y="94" width="260" height="8" fill="#30C9B0" fill-opacity="0.5"/>
<g clip-path="url(#clip0_333_11728)">
<line x1="295" y1="94.5" x2="310" y2="94.5" stroke="#30C9B0"/>
<line x1="302.5" y1="103" x2="302.5" y2="95" stroke="#30C9B0"/>
<line x1="295" y1="101.5" x2="310" y2="101.5" stroke="#30C9B0"/>
</g>
<path d="M321.253 95.6719C321.253 95.9727 321.203 96.2529 321.103 96.5127C321.007 96.7725 320.87 97.0049 320.692 97.21C320.583 97.3421 320.458 97.4652 320.316 97.5791C320.175 97.693 320.018 97.7933 319.845 97.8799C320.05 97.9756 320.239 98.0872 320.412 98.2148C320.59 98.3379 320.745 98.4814 320.877 98.6455C321.064 98.8643 321.21 99.1126 321.314 99.3906C321.419 99.6686 321.472 99.9694 321.472 100.293C321.472 100.753 321.387 101.161 321.219 101.517C321.05 101.872 320.82 102.168 320.528 102.405C320.232 102.647 319.886 102.829 319.489 102.952C319.097 103.075 318.674 103.137 318.218 103.137C317.753 103.137 317.32 103.075 316.919 102.952C316.522 102.829 316.178 102.647 315.887 102.405C315.59 102.168 315.358 101.874 315.189 101.523C315.025 101.168 314.943 100.758 314.943 100.293C314.943 100.02 314.98 99.7598 315.053 99.5137C315.13 99.2676 315.24 99.0397 315.381 98.8301C315.522 98.6296 315.691 98.4495 315.887 98.29C316.087 98.126 316.311 97.987 316.557 97.873C316.347 97.7682 316.156 97.6406 315.982 97.4902C315.814 97.3398 315.67 97.1735 315.552 96.9912C315.429 96.8044 315.333 96.5993 315.265 96.376C315.196 96.1527 315.162 95.918 315.162 95.6719C315.162 95.2298 315.237 94.8379 315.388 94.4961C315.543 94.1543 315.755 93.8649 316.023 93.6279C316.288 93.391 316.604 93.2132 316.974 93.0947C317.347 92.9717 317.755 92.9102 318.197 92.9102C318.635 92.9102 319.038 92.9717 319.407 93.0947C319.781 93.2132 320.107 93.391 320.385 93.6279C320.654 93.8604 320.866 94.1497 321.021 94.4961C321.175 94.8379 321.253 95.2298 321.253 95.6719ZM319.838 100.204C319.838 99.958 319.797 99.7347 319.715 99.5342C319.637 99.3291 319.528 99.1514 319.387 99.001C319.241 98.8597 319.068 98.7503 318.867 98.6729C318.667 98.5954 318.446 98.5566 318.204 98.5566C317.953 98.5566 317.728 98.5954 317.527 98.6729C317.331 98.7503 317.163 98.8597 317.021 99.001C316.88 99.1514 316.771 99.3291 316.693 99.5342C316.62 99.7347 316.584 99.9603 316.584 100.211C316.584 100.466 316.623 100.696 316.7 100.901C316.778 101.102 316.889 101.271 317.035 101.407C317.176 101.539 317.345 101.642 317.541 101.715C317.742 101.783 317.967 101.817 318.218 101.817C318.455 101.817 318.671 101.781 318.867 101.708C319.068 101.635 319.241 101.53 319.387 101.394C319.523 101.252 319.633 101.084 319.715 100.888C319.797 100.687 319.838 100.459 319.838 100.204ZM319.626 95.7334C319.626 95.5101 319.59 95.3073 319.517 95.125C319.448 94.9427 319.353 94.7832 319.229 94.6465C319.102 94.5189 318.951 94.4186 318.778 94.3457C318.605 94.2728 318.409 94.2363 318.19 94.2363C317.976 94.2363 317.783 94.2728 317.609 94.3457C317.441 94.4141 317.295 94.512 317.172 94.6396C317.053 94.7673 316.962 94.9245 316.898 95.1113C316.835 95.2982 316.803 95.5055 316.803 95.7334C316.803 95.9567 316.835 96.1618 316.898 96.3486C316.962 96.5309 317.058 96.6859 317.186 96.8135C317.309 96.9456 317.457 97.0482 317.63 97.1211C317.803 97.194 317.997 97.2305 318.211 97.2305C318.425 97.2305 318.619 97.194 318.792 97.1211C318.965 97.0482 319.113 96.9456 319.236 96.8135C319.359 96.6859 319.455 96.5309 319.523 96.3486C319.592 96.1618 319.626 95.9567 319.626 95.7334Z" fill="#30C9B0"/>
<rect x="27.5" y="104.5" width="15" height="15" rx="1.5" stroke="white" stroke-opacity="0.5"/>
<path d="M52.233 106.818H53.7045L57.1648 115.27H57.2841L60.7443 106.818H62.2159V117H61.0625V109.264H60.9631L57.7812 117H56.6676L53.4858 109.264H53.3864V117H52.233V106.818ZM69.3414 113.878V109.364H70.5147V117H69.3414V115.707H69.2619C69.0829 116.095 68.8045 116.425 68.4267 116.697C68.0488 116.965 67.5716 117.099 66.9949 117.099C66.5176 117.099 66.0933 116.995 65.7221 116.786C65.3509 116.574 65.0592 116.256 64.8471 115.832C64.635 115.404 64.5289 114.866 64.5289 114.216V109.364H65.7022V114.136C65.7022 114.693 65.858 115.137 66.1696 115.469C66.4844 115.8 66.8855 115.966 67.3727 115.966C67.6644 115.966 67.961 115.891 68.2626 115.742C68.5675 115.593 68.8227 115.364 69.0282 115.056C69.237 114.748 69.3414 114.355 69.3414 113.878ZM75.9847 109.364V110.358H72.0273V109.364H75.9847ZM73.1808 107.534H74.354V114.812C74.354 115.144 74.4021 115.393 74.4982 115.558C74.5977 115.721 74.7236 115.83 74.8761 115.886C75.0318 115.939 75.1959 115.966 75.3683 115.966C75.4975 115.966 75.6036 115.959 75.6864 115.946C75.7693 115.929 75.8356 115.916 75.8853 115.906L76.1239 116.96C76.0444 116.99 75.9334 117.02 75.7908 117.05C75.6483 117.083 75.4677 117.099 75.2489 117.099C74.9175 117.099 74.5927 117.028 74.2745 116.886C73.9596 116.743 73.6978 116.526 73.489 116.234C73.2835 115.943 73.1808 115.575 73.1808 115.131V107.534ZM80.8693 117.159C80.1335 117.159 79.4988 116.997 78.9652 116.672C78.4349 116.344 78.0256 115.886 77.7372 115.3C77.4522 114.71 77.3097 114.024 77.3097 113.241C77.3097 112.459 77.4522 111.77 77.7372 111.173C78.0256 110.573 78.4266 110.106 78.9403 109.771C79.4574 109.433 80.0606 109.264 80.75 109.264C81.1477 109.264 81.5405 109.33 81.9283 109.463C82.3161 109.596 82.669 109.811 82.9872 110.109C83.3054 110.404 83.5589 110.795 83.7479 111.283C83.9368 111.77 84.0312 112.37 84.0312 113.082V113.58H78.1449V112.565H82.8381C82.8381 112.134 82.7519 111.75 82.5795 111.412C82.4105 111.074 82.1686 110.807 81.8537 110.612C81.5421 110.416 81.1742 110.318 80.75 110.318C80.2827 110.318 79.8783 110.434 79.5369 110.666C79.1989 110.895 78.9387 111.193 78.7564 111.561C78.5741 111.929 78.483 112.323 78.483 112.744V113.42C78.483 113.997 78.5824 114.486 78.7812 114.887C78.9834 115.285 79.2635 115.588 79.6214 115.797C79.9794 116.002 80.3954 116.105 80.8693 116.105C81.1776 116.105 81.456 116.062 81.7045 115.976C81.9564 115.886 82.1735 115.754 82.3558 115.578C82.5381 115.399 82.679 115.177 82.7784 114.912L83.9119 115.23C83.7926 115.615 83.5921 115.953 83.3104 116.244C83.0286 116.533 82.6806 116.758 82.2663 116.92C81.852 117.08 81.3864 117.159 80.8693 117.159ZM91.4837 117L89.157 109.364H90.3899L92.0405 115.21H92.12L93.7507 109.364H95.0036L96.6143 115.19H96.6939L98.3445 109.364H99.5774L97.2507 117H96.0973L94.4268 111.134H94.3075L92.6371 117H91.4837ZM102.302 112.406V117H101.129V106.818H102.302V110.557H102.401C102.58 110.162 102.849 109.849 103.207 109.617C103.568 109.382 104.049 109.264 104.648 109.264C105.169 109.264 105.625 109.369 106.016 109.577C106.407 109.783 106.71 110.099 106.925 110.527C107.144 110.951 107.254 111.491 107.254 112.148V117H106.08V112.227C106.08 111.621 105.923 111.152 105.608 110.82C105.296 110.486 104.864 110.318 104.31 110.318C103.926 110.318 103.581 110.399 103.276 110.562C102.975 110.724 102.736 110.961 102.56 111.273C102.388 111.584 102.302 111.962 102.302 112.406ZM112.602 117.159C111.866 117.159 111.231 116.997 110.698 116.672C110.167 116.344 109.758 115.886 109.47 115.3C109.185 114.71 109.042 114.024 109.042 113.241C109.042 112.459 109.185 111.77 109.47 111.173C109.758 110.573 110.159 110.106 110.673 109.771C111.19 109.433 111.793 109.264 112.482 109.264C112.88 109.264 113.273 109.33 113.661 109.463C114.048 109.596 114.401 109.811 114.72 110.109C115.038 110.404 115.291 110.795 115.48 111.283C115.669 111.77 115.764 112.37 115.764 113.082V113.58H109.877V112.565H114.57C114.57 112.134 114.484 111.75 114.312 111.412C114.143 111.074 113.901 110.807 113.586 110.612C113.275 110.416 112.907 110.318 112.482 110.318C112.015 110.318 111.611 110.434 111.269 110.666C110.931 110.895 110.671 111.193 110.489 111.561C110.307 111.929 110.215 112.323 110.215 112.744V113.42C110.215 113.997 110.315 114.486 110.514 114.887C110.716 115.285 110.996 115.588 111.354 115.797C111.712 116.002 112.128 116.105 112.602 116.105C112.91 116.105 113.188 116.062 113.437 115.976C113.689 115.886 113.906 115.754 114.088 115.578C114.271 115.399 114.411 115.177 114.511 114.912L115.644 115.23C115.525 115.615 115.325 115.953 115.043 116.244C114.761 116.533 114.413 116.758 113.999 116.92C113.584 117.08 113.119 117.159 112.602 117.159ZM118.722 112.406V117H117.548V109.364H118.682V110.557H118.781C118.96 110.169 119.232 109.857 119.597 109.622C119.961 109.384 120.432 109.264 121.009 109.264C121.526 109.264 121.978 109.37 122.366 109.582C122.754 109.791 123.055 110.109 123.271 110.537C123.486 110.961 123.594 111.498 123.594 112.148V117H122.421V112.227C122.421 111.627 122.265 111.16 121.953 110.825C121.642 110.487 121.214 110.318 120.671 110.318C120.296 110.318 119.961 110.399 119.666 110.562C119.375 110.724 119.144 110.961 118.975 111.273C118.806 111.584 118.722 111.962 118.722 112.406ZM131.684 117L128.9 106.818H130.153L132.281 115.111H132.38L134.548 106.818H135.94L138.107 115.111H138.207L140.335 106.818H141.587L138.803 117H137.531L135.283 108.886H135.204L132.957 117H131.684ZM145.455 117.159C144.719 117.159 144.085 116.997 143.551 116.672C143.021 116.344 142.612 115.886 142.323 115.3C142.038 114.71 141.896 114.024 141.896 113.241C141.896 112.459 142.038 111.77 142.323 111.173C142.612 110.573 143.013 110.106 143.526 109.771C144.043 109.433 144.647 109.264 145.336 109.264C145.734 109.264 146.126 109.33 146.514 109.463C146.902 109.596 147.255 109.811 147.573 110.109C147.891 110.404 148.145 110.795 148.334 111.283C148.523 111.77 148.617 112.37 148.617 113.082V113.58H142.731V112.565H147.424C147.424 112.134 147.338 111.75 147.165 111.412C146.996 111.074 146.754 110.807 146.44 110.612C146.128 110.416 145.76 110.318 145.336 110.318C144.869 110.318 144.464 110.434 144.123 110.666C143.785 110.895 143.525 111.193 143.342 111.561C143.16 111.929 143.069 112.323 143.069 112.744V113.42C143.069 113.997 143.168 114.486 143.367 114.887C143.569 115.285 143.849 115.588 144.207 115.797C144.565 116.002 144.981 116.105 145.455 116.105C145.763 116.105 146.042 116.062 146.29 115.976C146.542 115.886 146.759 115.754 146.942 115.578C147.124 115.399 147.265 115.177 147.364 114.912L148.498 115.23C148.379 115.615 148.178 115.953 147.896 116.244C147.615 116.533 147.267 116.758 146.852 116.92C146.438 117.08 145.972 117.159 145.455 117.159ZM150.561 117V106.818H151.734V110.577H151.834C151.92 110.444 152.039 110.275 152.192 110.07C152.348 109.861 152.57 109.675 152.858 109.513C153.15 109.347 153.544 109.264 154.041 109.264C154.684 109.264 155.251 109.425 155.741 109.746C156.232 110.068 156.615 110.524 156.89 111.114C157.165 111.704 157.303 112.4 157.303 113.202C157.303 114.01 157.165 114.711 156.89 115.305C156.615 115.895 156.234 116.352 155.746 116.677C155.259 116.998 154.697 117.159 154.061 117.159C153.571 117.159 153.178 117.078 152.883 116.915C152.588 116.75 152.361 116.562 152.202 116.354C152.043 116.142 151.92 115.966 151.834 115.827H151.695V117H150.561ZM151.714 113.182C151.714 113.759 151.799 114.267 151.968 114.708C152.137 115.146 152.384 115.489 152.709 115.737C153.034 115.982 153.431 116.105 153.902 116.105C154.393 116.105 154.802 115.976 155.13 115.717C155.461 115.455 155.71 115.104 155.876 114.663C156.045 114.219 156.129 113.725 156.129 113.182C156.129 112.645 156.046 112.161 155.881 111.73C155.718 111.296 155.471 110.953 155.14 110.701C154.812 110.446 154.399 110.318 153.902 110.318C153.425 110.318 153.024 110.439 152.699 110.681C152.374 110.92 152.129 111.254 151.963 111.685C151.797 112.113 151.714 112.612 151.714 113.182ZM162.299 117.159C161.563 117.159 160.929 116.997 160.395 116.672C159.865 116.344 159.455 115.886 159.167 115.3C158.882 114.71 158.739 114.024 158.739 113.241C158.739 112.459 158.882 111.77 159.167 111.173C159.455 110.573 159.856 110.106 160.37 109.771C160.887 109.433 161.49 109.264 162.18 109.264C162.577 109.264 162.97 109.33 163.358 109.463C163.746 109.596 164.099 109.811 164.417 110.109C164.735 110.404 164.989 110.795 165.178 111.283C165.366 111.77 165.461 112.37 165.461 113.082V113.58H159.575V112.565H164.268C164.268 112.134 164.182 111.75 164.009 111.412C163.84 111.074 163.598 110.807 163.283 110.612C162.972 110.416 162.604 110.318 162.18 110.318C161.712 110.318 161.308 110.434 160.967 110.666C160.629 110.895 160.368 111.193 160.186 111.561C160.004 111.929 159.913 112.323 159.913 112.744V113.42C159.913 113.997 160.012 114.486 160.211 114.887C160.413 115.285 160.693 115.588 161.051 115.797C161.409 116.002 161.825 116.105 162.299 116.105C162.607 116.105 162.886 116.062 163.134 115.976C163.386 115.886 163.603 115.754 163.786 115.578C163.968 115.399 164.109 115.177 164.208 114.912L165.342 115.23C165.222 115.615 165.022 115.953 164.74 116.244C164.458 116.533 164.11 116.758 163.696 116.92C163.282 117.08 162.816 117.159 162.299 117.159ZM167.916 109.364L169.745 112.486L171.575 109.364H172.927L170.461 113.182L172.927 117H171.575L169.745 114.037L167.916 117H166.563L168.99 113.182L166.563 109.364H167.916ZM178.539 117V109.364H179.712V117H178.539ZM179.135 108.091C178.907 108.091 178.709 108.013 178.544 107.857C178.381 107.701 178.3 107.514 178.3 107.295C178.3 107.077 178.381 106.889 178.544 106.734C178.709 106.578 178.907 106.5 179.135 106.5C179.364 106.5 179.56 106.578 179.722 106.734C179.888 106.889 179.971 107.077 179.971 107.295C179.971 107.514 179.888 107.701 179.722 107.857C179.56 108.013 179.364 108.091 179.135 108.091ZM187.27 111.074L186.216 111.372C186.15 111.196 186.052 111.026 185.923 110.86C185.797 110.691 185.624 110.552 185.406 110.442C185.187 110.333 184.907 110.278 184.566 110.278C184.098 110.278 183.709 110.386 183.397 110.602C183.089 110.814 182.935 111.084 182.935 111.412C182.935 111.704 183.041 111.934 183.253 112.103C183.465 112.272 183.797 112.413 184.247 112.526L185.381 112.804C186.064 112.97 186.572 113.223 186.907 113.565C187.242 113.903 187.409 114.339 187.409 114.872C187.409 115.31 187.283 115.701 187.031 116.045C186.783 116.39 186.435 116.662 185.987 116.861C185.54 117.06 185.02 117.159 184.426 117.159C183.647 117.159 183.003 116.99 182.492 116.652C181.982 116.314 181.659 115.82 181.523 115.17L182.637 114.892C182.743 115.303 182.943 115.611 183.238 115.817C183.536 116.022 183.926 116.125 184.406 116.125C184.953 116.125 185.387 116.009 185.709 115.777C186.034 115.542 186.196 115.26 186.196 114.932C186.196 114.667 186.103 114.445 185.918 114.266C185.732 114.083 185.447 113.947 185.063 113.858L183.79 113.56C183.091 113.394 182.577 113.137 182.249 112.789C181.924 112.438 181.762 111.999 181.762 111.472C181.762 111.041 181.883 110.66 182.124 110.328C182.37 109.997 182.703 109.737 183.124 109.548C183.548 109.359 184.029 109.264 184.566 109.264C185.321 109.264 185.914 109.43 186.345 109.761C186.78 110.093 187.088 110.53 187.27 111.074ZM196.215 117.159C195.499 117.159 194.883 116.99 194.366 116.652C193.849 116.314 193.451 115.848 193.173 115.255C192.894 114.662 192.755 113.984 192.755 113.222C192.755 112.446 192.897 111.762 193.183 111.168C193.471 110.572 193.872 110.106 194.386 109.771C194.903 109.433 195.506 109.264 196.195 109.264C196.732 109.264 197.216 109.364 197.647 109.562C198.078 109.761 198.431 110.04 198.706 110.398C198.981 110.756 199.152 111.173 199.218 111.651H198.045C197.955 111.303 197.756 110.994 197.448 110.726C197.143 110.454 196.732 110.318 196.215 110.318C195.758 110.318 195.357 110.437 195.012 110.676C194.671 110.911 194.404 111.245 194.212 111.675C194.023 112.103 193.928 112.605 193.928 113.182C193.928 113.772 194.021 114.286 194.207 114.723C194.396 115.161 194.661 115.5 195.002 115.742C195.347 115.984 195.751 116.105 196.215 116.105C196.52 116.105 196.797 116.052 197.045 115.946C197.294 115.84 197.504 115.688 197.677 115.489C197.849 115.29 197.972 115.051 198.045 114.773H199.218C199.152 115.223 198.988 115.629 198.726 115.991C198.467 116.349 198.124 116.634 197.697 116.846C197.272 117.055 196.779 117.159 196.215 117.159ZM202.107 106.818V117H200.933V106.818H202.107ZM207.358 117.159C206.668 117.159 206.064 116.995 205.543 116.667C205.026 116.339 204.622 115.88 204.33 115.29C204.042 114.7 203.898 114.01 203.898 113.222C203.898 112.426 204.042 111.732 204.33 111.138C204.622 110.545 205.026 110.085 205.543 109.756C206.064 109.428 206.668 109.264 207.358 109.264C208.047 109.264 208.65 109.428 209.167 109.756C209.688 110.085 210.092 110.545 210.381 111.138C210.672 111.732 210.818 112.426 210.818 113.222C210.818 114.01 210.672 114.7 210.381 115.29C210.092 115.88 209.688 116.339 209.167 116.667C208.65 116.995 208.047 117.159 207.358 117.159ZM207.358 116.105C207.881 116.105 208.312 115.971 208.65 115.702C208.988 115.434 209.239 115.081 209.401 114.643C209.564 114.206 209.645 113.732 209.645 113.222C209.645 112.711 209.564 112.236 209.401 111.795C209.239 111.354 208.988 110.998 208.65 110.726C208.312 110.454 207.881 110.318 207.358 110.318C206.834 110.318 206.403 110.454 206.065 110.726C205.727 110.998 205.477 111.354 205.314 111.795C205.152 112.236 205.071 112.711 205.071 113.222C205.071 113.732 205.152 114.206 205.314 114.643C205.477 115.081 205.727 115.434 206.065 115.702C206.403 115.971 206.834 116.105 207.358 116.105ZM218.018 111.074L216.964 111.372C216.898 111.196 216.8 111.026 216.671 110.86C216.545 110.691 216.373 110.552 216.154 110.442C215.935 110.333 215.655 110.278 215.314 110.278C214.846 110.278 214.457 110.386 214.145 110.602C213.837 110.814 213.683 111.084 213.683 111.412C213.683 111.704 213.789 111.934 214.001 112.103C214.213 112.272 214.545 112.413 214.995 112.526L216.129 112.804C216.812 112.97 217.32 113.223 217.655 113.565C217.99 113.903 218.157 114.339 218.157 114.872C218.157 115.31 218.031 115.701 217.779 116.045C217.531 116.39 217.183 116.662 216.735 116.861C216.288 117.06 215.768 117.159 215.174 117.159C214.395 117.159 213.751 116.99 213.24 116.652C212.73 116.314 212.407 115.82 212.271 115.17L213.385 114.892C213.491 115.303 213.691 115.611 213.986 115.817C214.284 116.022 214.674 116.125 215.154 116.125C215.701 116.125 216.136 116.009 216.457 115.777C216.782 115.542 216.944 115.26 216.944 114.932C216.944 114.667 216.851 114.445 216.666 114.266C216.48 114.083 216.195 113.947 215.811 113.858L214.538 113.56C213.839 113.394 213.325 113.137 212.997 112.789C212.672 112.438 212.51 111.999 212.51 111.472C212.51 111.041 212.631 110.66 212.873 110.328C213.118 109.997 213.451 109.737 213.872 109.548C214.296 109.359 214.777 109.264 215.314 109.264C216.069 109.264 216.663 109.43 217.093 109.761C217.528 110.093 217.836 110.53 218.018 111.074ZM223.125 117.159C222.389 117.159 221.755 116.997 221.221 116.672C220.691 116.344 220.281 115.886 219.993 115.3C219.708 114.71 219.566 114.024 219.566 113.241C219.566 112.459 219.708 111.77 219.993 111.173C220.281 110.573 220.682 110.106 221.196 109.771C221.713 109.433 222.316 109.264 223.006 109.264C223.404 109.264 223.796 109.33 224.184 109.463C224.572 109.596 224.925 109.811 225.243 110.109C225.561 110.404 225.815 110.795 226.004 111.283C226.193 111.77 226.287 112.37 226.287 113.082V113.58H220.401V112.565H225.094C225.094 112.134 225.008 111.75 224.835 111.412C224.666 111.074 224.424 110.807 224.11 110.612C223.798 110.416 223.43 110.318 223.006 110.318C222.539 110.318 222.134 110.434 221.793 110.666C221.455 110.895 221.195 111.193 221.012 111.561C220.83 111.929 220.739 112.323 220.739 112.744V113.42C220.739 113.997 220.838 114.486 221.037 114.887C221.239 115.285 221.519 115.588 221.877 115.797C222.235 116.002 222.651 116.105 223.125 116.105C223.433 116.105 223.712 116.062 223.96 115.976C224.212 115.886 224.429 115.754 224.612 115.578C224.794 115.399 224.935 115.177 225.034 114.912L226.168 115.23C226.048 115.615 225.848 115.953 225.566 116.244C225.285 116.533 224.936 116.758 224.522 116.92C224.108 117.08 223.642 117.159 223.125 117.159ZM230.955 117.159C230.319 117.159 229.757 116.998 229.27 116.677C228.783 116.352 228.402 115.895 228.127 115.305C227.852 114.711 227.714 114.01 227.714 113.202C227.714 112.4 227.852 111.704 228.127 111.114C228.402 110.524 228.785 110.068 229.275 109.746C229.766 109.425 230.332 109.264 230.975 109.264C231.472 109.264 231.865 109.347 232.154 109.513C232.445 109.675 232.667 109.861 232.82 110.07C232.976 110.275 233.097 110.444 233.183 110.577H233.282V106.818H234.455V117H233.322V115.827H233.183C233.097 115.966 232.974 116.142 232.815 116.354C232.656 116.562 232.429 116.75 232.134 116.915C231.839 117.078 231.446 117.159 230.955 117.159ZM231.115 116.105C231.585 116.105 231.983 115.982 232.308 115.737C232.633 115.489 232.879 115.146 233.048 114.708C233.218 114.267 233.302 113.759 233.302 113.182C233.302 112.612 233.219 112.113 233.053 111.685C232.888 111.254 232.642 110.92 232.318 110.681C231.993 110.439 231.592 110.318 231.115 110.318C230.617 110.318 230.203 110.446 229.872 110.701C229.544 110.953 229.297 111.296 229.131 111.73C228.968 112.161 228.887 112.645 228.887 113.182C228.887 113.725 228.97 114.219 229.136 114.663C229.305 115.104 229.553 115.455 229.882 115.717C230.213 115.976 230.624 116.105 231.115 116.105Z" fill="white" fill-opacity="0.95"/>
</g>
<defs>
<clipPath id="clip0_333_11728">
<rect width="15" height="8" fill="white" transform="translate(295 94)"/>
</clipPath>
</defs>
</svg>
