<svg width="1150" height="318" viewBox="0 0 1150 318" fill="none" xmlns="http://www.w3.org/2000/svg">
<rect width="1150" height="318" rx="16" fill="#1A1A1A"/>
<path d="M507.202 77.7102C507.156 77.2519 506.961 76.8958 506.617 76.642C506.272 76.3883 505.804 76.2614 505.213 76.2614C504.812 76.2614 504.473 76.3182 504.196 76.4318C503.92 76.5417 503.707 76.6951 503.56 76.892C503.416 77.089 503.344 77.3125 503.344 77.5625C503.336 77.7708 503.38 77.9527 503.475 78.108C503.573 78.2633 503.707 78.3977 503.878 78.5114C504.048 78.6212 504.245 78.7178 504.469 78.8011C504.692 78.8807 504.931 78.9489 505.185 79.0057L506.23 79.2557C506.738 79.3693 507.204 79.5208 507.628 79.7102C508.052 79.8996 508.42 80.1326 508.73 80.4091C509.041 80.6856 509.281 81.0114 509.452 81.3864C509.626 81.7614 509.715 82.1913 509.719 82.6761C509.715 83.3883 509.533 84.0057 509.173 84.5284C508.817 85.0473 508.302 85.4508 507.628 85.7386C506.957 86.0227 506.149 86.1648 505.202 86.1648C504.262 86.1648 503.444 86.0208 502.747 85.733C502.054 85.4451 501.512 85.0189 501.122 84.4545C500.736 83.8864 500.533 83.1837 500.514 82.3466H502.895C502.921 82.7367 503.033 83.0625 503.23 83.3239C503.431 83.5814 503.698 83.7765 504.031 83.9091C504.368 84.0379 504.749 84.1023 505.173 84.1023C505.59 84.1023 505.952 84.0417 506.259 83.9205C506.569 83.7992 506.81 83.6307 506.98 83.4148C507.151 83.1989 507.236 82.9508 507.236 82.6705C507.236 82.4091 507.158 82.1894 507.003 82.0114C506.851 81.8333 506.628 81.6818 506.332 81.5568C506.041 81.4318 505.683 81.3182 505.259 81.2159L503.992 80.8977C503.011 80.6591 502.236 80.286 501.668 79.7784C501.1 79.2708 500.817 78.5871 500.821 77.7273C500.817 77.0227 501.005 76.4072 501.384 75.8807C501.766 75.3542 502.291 74.9432 502.957 74.6477C503.624 74.3523 504.382 74.2045 505.23 74.2045C506.094 74.2045 506.848 74.3523 507.492 74.6477C508.139 74.9432 508.643 75.3542 509.003 75.8807C509.363 76.4072 509.548 77.017 509.56 77.7102H507.202ZM515.305 86.1705C514.408 86.1705 513.635 85.9886 512.987 85.625C512.343 85.2576 511.847 84.7386 511.499 84.0682C511.15 83.3939 510.976 82.5966 510.976 81.6761C510.976 80.7784 511.15 79.9905 511.499 79.3125C511.847 78.6345 512.338 78.1061 512.97 77.7273C513.607 77.3485 514.353 77.1591 515.209 77.1591C515.785 77.1591 516.321 77.2519 516.817 77.4375C517.317 77.6193 517.752 77.8939 518.124 78.2614C518.499 78.6288 518.79 79.0909 518.999 79.6477C519.207 80.2008 519.311 80.8485 519.311 81.5909V82.2557H511.942V80.7557H517.033C517.033 80.4072 516.957 80.0985 516.805 79.8295C516.654 79.5606 516.444 79.3504 516.175 79.1989C515.91 79.0436 515.601 78.9659 515.249 78.9659C514.881 78.9659 514.555 79.0511 514.271 79.2216C513.991 79.3883 513.771 79.6136 513.612 79.8977C513.453 80.178 513.372 80.4905 513.368 80.8352V82.2614C513.368 82.6932 513.448 83.0663 513.607 83.3807C513.77 83.6951 513.999 83.9375 514.294 84.108C514.59 84.2784 514.94 84.3636 515.345 84.3636C515.614 84.3636 515.86 84.3258 516.084 84.25C516.307 84.1742 516.499 84.0606 516.658 83.9091C516.817 83.7576 516.938 83.572 517.021 83.3523L519.26 83.5C519.146 84.0379 518.913 84.5076 518.561 84.9091C518.213 85.3068 517.762 85.6174 517.209 85.8409C516.66 86.0606 516.025 86.1705 515.305 86.1705ZM523.311 74.3636V86H520.891V74.3636H523.311ZM529.227 86.1705C528.33 86.1705 527.557 85.9886 526.909 85.625C526.265 85.2576 525.769 84.7386 525.421 84.0682C525.072 83.3939 524.898 82.5966 524.898 81.6761C524.898 80.7784 525.072 79.9905 525.421 79.3125C525.769 78.6345 526.26 78.1061 526.892 77.7273C527.528 77.3485 528.275 77.1591 529.131 77.1591C529.707 77.1591 530.243 77.2519 530.739 77.4375C531.239 77.6193 531.674 77.8939 532.046 78.2614C532.421 78.6288 532.712 79.0909 532.921 79.6477C533.129 80.2008 533.233 80.8485 533.233 81.5909V82.2557H525.864V80.7557H530.955C530.955 80.4072 530.879 80.0985 530.727 79.8295C530.576 79.5606 530.366 79.3504 530.097 79.1989C529.832 79.0436 529.523 78.9659 529.171 78.9659C528.803 78.9659 528.477 79.0511 528.193 79.2216C527.913 79.3883 527.693 79.6136 527.534 79.8977C527.375 80.178 527.294 80.4905 527.29 80.8352V82.2614C527.29 82.6932 527.369 83.0663 527.528 83.3807C527.691 83.6951 527.921 83.9375 528.216 84.108C528.511 84.2784 528.862 84.3636 529.267 84.3636C529.536 84.3636 529.782 84.3258 530.006 84.25C530.229 84.1742 530.421 84.0606 530.58 83.9091C530.739 83.7576 530.86 83.572 530.943 83.3523L533.182 83.5C533.068 84.0379 532.835 84.5076 532.483 84.9091C532.135 85.3068 531.684 85.6174 531.131 85.8409C530.582 86.0606 529.947 86.1705 529.227 86.1705ZM538.756 86.1705C537.862 86.1705 537.093 85.9811 536.449 85.6023C535.809 85.2197 535.316 84.6894 534.972 84.0114C534.631 83.3333 534.46 82.553 534.46 81.6705C534.46 80.7765 534.633 79.9924 534.977 79.3182C535.326 78.6402 535.82 78.1117 536.46 77.733C537.1 77.3504 537.862 77.1591 538.744 77.1591C539.506 77.1591 540.172 77.2973 540.744 77.5739C541.316 77.8504 541.769 78.2386 542.102 78.7386C542.436 79.2386 542.619 79.8258 542.653 80.5H540.369C540.305 80.0644 540.135 79.714 539.858 79.4489C539.585 79.1799 539.227 79.0455 538.784 79.0455C538.409 79.0455 538.082 79.1477 537.801 79.3523C537.525 79.553 537.309 79.8466 537.153 80.233C536.998 80.6193 536.921 81.0871 536.921 81.6364C536.921 82.1932 536.996 82.6667 537.148 83.0568C537.303 83.447 537.521 83.7443 537.801 83.9489C538.082 84.1534 538.409 84.2557 538.784 84.2557C539.061 84.2557 539.309 84.1989 539.528 84.0852C539.752 83.9716 539.936 83.8068 540.08 83.5909C540.227 83.3712 540.324 83.108 540.369 82.8011H542.653C542.616 83.4678 542.434 84.0549 542.108 84.5625C541.786 85.0663 541.341 85.4602 540.773 85.7443C540.205 86.0284 539.532 86.1705 538.756 86.1705ZM548.845 77.2727V79.0909H543.59V77.2727H548.845ZM544.783 75.1818H547.203V83.3182C547.203 83.5417 547.237 83.7159 547.305 83.8409C547.374 83.9621 547.468 84.0473 547.59 84.0966C547.715 84.1458 547.859 84.1705 548.021 84.1705C548.135 84.1705 548.249 84.161 548.362 84.142C548.476 84.1193 548.563 84.1023 548.624 84.0909L549.004 85.892C548.883 85.9299 548.713 85.9735 548.493 86.0227C548.273 86.0758 548.006 86.108 547.692 86.1193C547.109 86.142 546.597 86.0644 546.158 85.8864C545.722 85.7083 545.383 85.4318 545.141 85.0568C544.898 84.6818 544.779 84.2083 544.783 83.6364V75.1818ZM555.619 89.2557C555.313 89.2557 555.025 89.2311 554.756 89.1818C554.491 89.1364 554.271 89.0795 554.097 89.0114L554.642 87.1989C555.07 87.3314 555.43 87.3655 555.722 87.3011C556.017 87.2405 556.25 87.0133 556.421 86.6193L556.563 86.25L553.432 77.2727H555.977L557.784 83.6818H557.875L559.699 77.2727L562.261 77.2841L558.869 86.9432C558.707 87.4091 558.485 87.8144 558.205 88.1591C557.928 88.5076 557.578 88.7765 557.153 88.9659C556.729 89.1591 556.218 89.2557 555.619 89.2557ZM567.162 86.1705C566.279 86.1705 565.516 85.983 564.872 85.608C564.232 85.2292 563.738 84.7027 563.389 84.0284C563.041 83.3504 562.867 82.5644 562.867 81.6705C562.867 80.7689 563.041 79.9811 563.389 79.3068C563.738 78.6288 564.232 78.1023 564.872 77.7273C565.516 77.3485 566.279 77.1591 567.162 77.1591C568.045 77.1591 568.806 77.3485 569.446 77.7273C570.09 78.1023 570.586 78.6288 570.935 79.3068C571.283 79.9811 571.457 80.7689 571.457 81.6705C571.457 82.5644 571.283 83.3504 570.935 84.0284C570.586 84.7027 570.09 85.2292 569.446 85.608C568.806 85.983 568.045 86.1705 567.162 86.1705ZM567.173 84.2955C567.575 84.2955 567.91 84.1818 568.179 83.9545C568.448 83.7235 568.651 83.4091 568.787 83.0114C568.927 82.6136 568.997 82.161 568.997 81.6534C568.997 81.1458 568.927 80.6932 568.787 80.2955C568.651 79.8977 568.448 79.5833 568.179 79.3523C567.91 79.1212 567.575 79.0057 567.173 79.0057C566.768 79.0057 566.427 79.1212 566.151 79.3523C565.878 79.5833 565.671 79.8977 565.531 80.2955C565.395 80.6932 565.327 81.1458 565.327 81.6534C565.327 82.161 565.395 82.6136 565.531 83.0114C565.671 83.4091 565.878 83.7235 566.151 83.9545C566.427 84.1818 566.768 84.2955 567.173 84.2955ZM578.628 82.2841V77.2727H581.048V86H578.725V84.4148H578.634C578.437 84.9261 578.109 85.3371 577.651 85.6477C577.196 85.9583 576.641 86.1136 575.986 86.1136C575.403 86.1136 574.889 85.9811 574.446 85.7159C574.003 85.4508 573.656 85.0739 573.406 84.5852C573.16 84.0966 573.035 83.5114 573.031 82.8295V77.2727H575.452V82.3977C575.456 82.9129 575.594 83.3201 575.867 83.6193C576.139 83.9186 576.505 84.0682 576.963 84.0682C577.255 84.0682 577.528 84.0019 577.781 83.8693C578.035 83.733 578.24 83.5322 578.395 83.267C578.554 83.0019 578.632 82.6742 578.628 82.2841ZM582.984 86V77.2727H585.331V78.7955H585.422C585.581 78.2538 585.848 77.8447 586.223 77.5682C586.598 77.2879 587.03 77.1477 587.519 77.1477C587.64 77.1477 587.77 77.1553 587.911 77.1705C588.051 77.1856 588.174 77.2064 588.28 77.233V79.3807C588.166 79.3466 588.009 79.3163 587.808 79.2898C587.608 79.2633 587.424 79.25 587.257 79.25C586.901 79.25 586.583 79.3277 586.303 79.483C586.026 79.6345 585.806 79.8466 585.644 80.1193C585.484 80.392 585.405 80.7064 585.405 81.0625V86H582.984ZM597.928 77.2727V79.0909H592.541V77.2727H597.928ZM593.774 86V76.642C593.774 76.0095 593.897 75.4848 594.144 75.0682C594.394 74.6515 594.734 74.339 595.166 74.1307C595.598 73.9223 596.089 73.8182 596.638 73.8182C597.009 73.8182 597.348 73.8466 597.655 73.9034C597.966 73.9602 598.197 74.0114 598.348 74.0568L597.916 75.875C597.822 75.8447 597.704 75.8163 597.564 75.7898C597.428 75.7633 597.287 75.75 597.144 75.75C596.787 75.75 596.539 75.8333 596.399 76C596.259 76.1629 596.189 76.392 596.189 76.6875V86H593.774ZM601.582 86.1648C601.026 86.1648 600.529 86.0682 600.094 85.875C599.658 85.678 599.314 85.3883 599.06 85.0057C598.81 84.6193 598.685 84.1383 598.685 83.5625C598.685 83.0777 598.774 82.6705 598.952 82.3409C599.13 82.0114 599.372 81.7462 599.679 81.5455C599.986 81.3447 600.334 81.1932 600.725 81.0909C601.118 80.9886 601.531 80.9167 601.963 80.875C602.471 80.822 602.88 80.7727 603.19 80.7273C603.501 80.678 603.726 80.6061 603.867 80.5114C604.007 80.4167 604.077 80.2765 604.077 80.0909V80.0568C604.077 79.697 603.963 79.4186 603.736 79.2216C603.512 79.0246 603.194 78.9261 602.781 78.9261C602.346 78.9261 601.999 79.0227 601.742 79.2159C601.484 79.4053 601.314 79.6439 601.23 79.9318L598.992 79.75C599.105 79.2197 599.329 78.7614 599.662 78.375C599.995 77.9848 600.425 77.6856 600.952 77.4773C601.482 77.2652 602.096 77.1591 602.793 77.1591C603.278 77.1591 603.742 77.2159 604.185 77.3295C604.632 77.4432 605.028 77.6193 605.372 77.858C605.721 78.0966 605.995 78.4034 606.196 78.7784C606.397 79.1496 606.497 79.5947 606.497 80.1136V86H604.202V84.7898H604.134C603.993 85.0625 603.806 85.303 603.571 85.5114C603.336 85.7159 603.054 85.8769 602.725 85.9943C602.395 86.108 602.014 86.1648 601.582 86.1648ZM602.276 84.4943C602.632 84.4943 602.946 84.4242 603.219 84.2841C603.492 84.1402 603.706 83.947 603.861 83.7045C604.016 83.4621 604.094 83.1875 604.094 82.8807V81.9545C604.018 82.0038 603.914 82.0492 603.781 82.0909C603.653 82.1288 603.507 82.1648 603.344 82.1989C603.181 82.2292 603.018 82.2576 602.855 82.2841C602.692 82.3068 602.545 82.3277 602.412 82.3466C602.128 82.3883 601.88 82.4545 601.668 82.5455C601.456 82.6364 601.291 82.7595 601.173 82.9148C601.056 83.0663 600.997 83.2557 600.997 83.483C600.997 83.8125 601.117 84.0644 601.355 84.2386C601.598 84.4091 601.904 84.4943 602.276 84.4943ZM616.199 77.2727L613.148 86H610.421L607.369 77.2727H609.926L611.739 83.517H611.83L613.636 77.2727H616.199ZM621.1 86.1705C620.217 86.1705 619.454 85.983 618.81 85.608C618.17 85.2292 617.675 84.7027 617.327 84.0284C616.978 83.3504 616.804 82.5644 616.804 81.6705C616.804 80.7689 616.978 79.9811 617.327 79.3068C617.675 78.6288 618.17 78.1023 618.81 77.7273C619.454 77.3485 620.217 77.1591 621.1 77.1591C621.982 77.1591 622.743 77.3485 623.384 77.7273C624.028 78.1023 624.524 78.6288 624.872 79.3068C625.221 79.9811 625.395 80.7689 625.395 81.6705C625.395 82.5644 625.221 83.3504 624.872 84.0284C624.524 84.7027 624.028 85.2292 623.384 85.608C622.743 85.983 621.982 86.1705 621.1 86.1705ZM621.111 84.2955C621.512 84.2955 621.848 84.1818 622.117 83.9545C622.386 83.7235 622.588 83.4091 622.725 83.0114C622.865 82.6136 622.935 82.161 622.935 81.6534C622.935 81.1458 622.865 80.6932 622.725 80.2955C622.588 79.8977 622.386 79.5833 622.117 79.3523C621.848 79.1212 621.512 79.0057 621.111 79.0057C620.706 79.0057 620.365 79.1212 620.088 79.3523C619.815 79.5833 619.609 79.8977 619.469 80.2955C619.332 80.6932 619.264 81.1458 619.264 81.6534C619.264 82.161 619.332 82.6136 619.469 83.0114C619.609 83.4091 619.815 83.7235 620.088 83.9545C620.365 84.1818 620.706 84.2955 621.111 84.2955ZM626.969 86V77.2727H629.315V78.7955H629.406C629.565 78.2538 629.832 77.8447 630.207 77.5682C630.582 77.2879 631.014 77.1477 631.503 77.1477C631.624 77.1477 631.755 77.1553 631.895 77.1705C632.035 77.1856 632.158 77.2064 632.264 77.233V79.3807C632.151 79.3466 631.993 79.3163 631.793 79.2898C631.592 79.2633 631.408 79.25 631.242 79.25C630.886 79.25 630.567 79.3277 630.287 79.483C630.011 79.6345 629.791 79.8466 629.628 80.1193C629.469 80.392 629.389 80.7064 629.389 81.0625V86H626.969ZM633.516 86V77.2727H635.936V86H633.516ZM634.737 76.1477C634.377 76.1477 634.069 76.0284 633.811 75.7898C633.554 75.5473 633.425 75.2576 633.425 74.9205C633.425 74.5871 633.554 74.3011 633.811 74.0625C634.069 73.8201 634.376 73.6989 634.732 73.6989C635.095 73.6989 635.404 73.8201 635.658 74.0625C635.915 74.3011 636.044 74.5871 636.044 74.9205C636.044 75.2576 635.915 75.5473 635.658 75.7898C635.404 76.0284 635.097 76.1477 634.737 76.1477ZM642.517 77.2727V79.0909H637.261V77.2727H642.517ZM638.455 75.1818H640.875V83.3182C640.875 83.5417 640.909 83.7159 640.977 83.8409C641.046 83.9621 641.14 84.0473 641.261 84.0966C641.386 84.1458 641.53 84.1705 641.693 84.1705C641.807 84.1705 641.921 84.161 642.034 84.142C642.148 84.1193 642.235 84.1023 642.296 84.0909L642.676 85.892C642.555 85.9299 642.385 85.9735 642.165 86.0227C641.945 86.0758 641.678 86.108 641.364 86.1193C640.78 86.142 640.269 86.0644 639.83 85.8864C639.394 85.7083 639.055 85.4318 638.813 85.0568C638.57 84.6818 638.451 84.2083 638.455 83.6364V75.1818ZM647.977 86.1705C647.08 86.1705 646.307 85.9886 645.659 85.625C645.015 85.2576 644.519 84.7386 644.171 84.0682C643.822 83.3939 643.648 82.5966 643.648 81.6761C643.648 80.7784 643.822 79.9905 644.171 79.3125C644.519 78.6345 645.01 78.1061 645.642 77.7273C646.278 77.3485 647.025 77.1591 647.881 77.1591C648.457 77.1591 648.993 77.2519 649.489 77.4375C649.989 77.6193 650.424 77.8939 650.796 78.2614C651.171 78.6288 651.462 79.0909 651.671 79.6477C651.879 80.2008 651.983 80.8485 651.983 81.5909V82.2557H644.614V80.7557H649.705C649.705 80.4072 649.629 80.0985 649.477 79.8295C649.326 79.5606 649.116 79.3504 648.847 79.1989C648.582 79.0436 648.273 78.9659 647.921 78.9659C647.553 78.9659 647.227 79.0511 646.943 79.2216C646.663 79.3883 646.443 79.6136 646.284 79.8977C646.125 80.178 646.044 80.4905 646.04 80.8352V82.2614C646.04 82.6932 646.119 83.0663 646.278 83.3807C646.441 83.6951 646.671 83.9375 646.966 84.108C647.261 84.2784 647.612 84.3636 648.017 84.3636C648.286 84.3636 648.532 84.3258 648.756 84.25C648.979 84.1742 649.171 84.0606 649.33 83.9091C649.489 83.7576 649.61 83.572 649.693 83.3523L651.932 83.5C651.818 84.0379 651.585 84.5076 651.233 84.9091C650.885 85.3068 650.434 85.6174 649.881 85.8409C649.332 86.0606 648.697 86.1705 647.977 86.1705ZM657.311 74.3636H660.345L663.55 82.1818H663.686L666.891 74.3636H669.925V86H667.538V78.4261H667.442L664.43 85.9432H662.805L659.794 78.3977H659.698V86H657.311V74.3636ZM674.395 86.1648C673.838 86.1648 673.342 86.0682 672.906 85.875C672.471 85.678 672.126 85.3883 671.872 85.0057C671.622 84.6193 671.497 84.1383 671.497 83.5625C671.497 83.0777 671.586 82.6705 671.764 82.3409C671.942 82.0114 672.185 81.7462 672.492 81.5455C672.798 81.3447 673.147 81.1932 673.537 81.0909C673.931 80.9886 674.344 80.9167 674.776 80.875C675.283 80.822 675.692 80.7727 676.003 80.7273C676.314 80.678 676.539 80.6061 676.679 80.5114C676.819 80.4167 676.889 80.2765 676.889 80.0909V80.0568C676.889 79.697 676.776 79.4186 676.548 79.2216C676.325 79.0246 676.007 78.9261 675.594 78.9261C675.158 78.9261 674.812 79.0227 674.554 79.2159C674.296 79.4053 674.126 79.6439 674.043 79.9318L671.804 79.75C671.918 79.2197 672.141 78.7614 672.475 78.375C672.808 77.9848 673.238 77.6856 673.764 77.4773C674.295 77.2652 674.908 77.1591 675.605 77.1591C676.09 77.1591 676.554 77.2159 676.997 77.3295C677.444 77.4432 677.84 77.6193 678.185 77.858C678.533 78.0966 678.808 78.4034 679.009 78.7784C679.209 79.1496 679.31 79.5947 679.31 80.1136V86H677.014V84.7898H676.946C676.806 85.0625 676.618 85.303 676.384 85.5114C676.149 85.7159 675.867 85.8769 675.537 85.9943C675.207 86.108 674.827 86.1648 674.395 86.1648ZM675.088 84.4943C675.444 84.4943 675.759 84.4242 676.031 84.2841C676.304 84.1402 676.518 83.947 676.673 83.7045C676.829 83.4621 676.906 83.1875 676.906 82.8807V81.9545C676.831 82.0038 676.726 82.0492 676.594 82.0909C676.465 82.1288 676.319 82.1648 676.156 82.1989C675.993 82.2292 675.831 82.2576 675.668 82.2841C675.505 82.3068 675.357 82.3277 675.225 82.3466C674.94 82.3883 674.692 82.4545 674.48 82.5455C674.268 82.6364 674.103 82.7595 673.986 82.9148C673.868 83.0663 673.81 83.2557 673.81 83.483C673.81 83.8125 673.929 84.0644 674.168 84.2386C674.41 84.4091 674.717 84.4943 675.088 84.4943ZM681.188 86V77.2727H683.534V78.7955H683.625C683.784 78.2538 684.051 77.8447 684.426 77.5682C684.801 77.2879 685.233 77.1477 685.722 77.1477C685.843 77.1477 685.974 77.1553 686.114 77.1705C686.254 77.1856 686.377 77.2064 686.483 77.233V79.3807C686.369 79.3466 686.212 79.3163 686.011 79.2898C685.811 79.2633 685.627 79.25 685.46 79.25C685.104 79.25 684.786 79.3277 684.506 79.483C684.229 79.6345 684.01 79.8466 683.847 80.1193C683.688 80.392 683.608 80.7064 683.608 81.0625V86H681.188ZM696.136 77.2727L693.085 86H690.358L687.307 77.2727H689.864L691.676 83.517H691.767L693.574 77.2727H696.136ZM701.071 86.1705C700.173 86.1705 699.401 85.9886 698.753 85.625C698.109 85.2576 697.613 84.7386 697.264 84.0682C696.916 83.3939 696.742 82.5966 696.742 81.6761C696.742 80.7784 696.916 79.9905 697.264 79.3125C697.613 78.6345 698.103 78.1061 698.736 77.7273C699.372 77.3485 700.118 77.1591 700.975 77.1591C701.55 77.1591 702.086 77.2519 702.582 77.4375C703.082 77.6193 703.518 77.8939 703.889 78.2614C704.264 78.6288 704.556 79.0909 704.764 79.6477C704.973 80.2008 705.077 80.8485 705.077 81.5909V82.2557H697.707V80.7557H702.798C702.798 80.4072 702.723 80.0985 702.571 79.8295C702.42 79.5606 702.209 79.3504 701.94 79.1989C701.675 79.0436 701.367 78.9659 701.014 78.9659C700.647 78.9659 700.321 79.0511 700.037 79.2216C699.757 79.3883 699.537 79.6136 699.378 79.8977C699.219 80.178 699.137 80.4905 699.134 80.8352V82.2614C699.134 82.6932 699.213 83.0663 699.372 83.3807C699.535 83.6951 699.764 83.9375 700.06 84.108C700.355 84.2784 700.706 84.3636 701.111 84.3636C701.38 84.3636 701.626 84.3258 701.85 84.25C702.073 84.1742 702.264 84.0606 702.423 83.9091C702.582 83.7576 702.704 83.572 702.787 83.3523L705.026 83.5C704.912 84.0379 704.679 84.5076 704.327 84.9091C703.978 85.3068 703.528 85.6174 702.975 85.8409C702.425 86.0606 701.791 86.1705 701.071 86.1705ZM709.077 74.3636V86H706.656V74.3636H709.077ZM718.662 86.1705C717.768 86.1705 716.999 85.9811 716.355 85.6023C715.715 85.2197 715.223 84.6894 714.878 84.0114C714.537 83.3333 714.367 82.553 714.367 81.6705C714.367 80.7765 714.539 79.9924 714.884 79.3182C715.232 78.6402 715.726 78.1117 716.367 77.733C717.007 77.3504 717.768 77.1591 718.651 77.1591C719.412 77.1591 720.079 77.2973 720.651 77.5739C721.223 77.8504 721.675 78.2386 722.009 78.7386C722.342 79.2386 722.526 79.8258 722.56 80.5H720.276C720.211 80.0644 720.041 79.714 719.764 79.4489C719.492 79.1799 719.134 79.0455 718.69 79.0455C718.315 79.0455 717.988 79.1477 717.707 79.3523C717.431 79.553 717.215 79.8466 717.06 80.233C716.904 80.6193 716.827 81.0871 716.827 81.6364C716.827 82.1932 716.903 82.6667 717.054 83.0568C717.209 83.447 717.427 83.7443 717.707 83.9489C717.988 84.1534 718.315 84.2557 718.69 84.2557C718.967 84.2557 719.215 84.1989 719.435 84.0852C719.658 83.9716 719.842 83.8068 719.986 83.5909C720.134 83.3712 720.23 83.108 720.276 82.8011H722.56C722.522 83.4678 722.34 84.0549 722.014 84.5625C721.692 85.0663 721.247 85.4602 720.679 85.7443C720.111 86.0284 719.439 86.1705 718.662 86.1705ZM726.53 80.9545V86H724.109V74.3636H726.462V78.8125H726.564C726.761 78.2973 727.079 77.8939 727.519 77.6023C727.958 77.3068 728.509 77.1591 729.172 77.1591C729.778 77.1591 730.306 77.2917 730.757 77.5568C731.212 77.8182 731.564 78.1951 731.814 78.6875C732.068 79.1761 732.193 79.7614 732.189 80.4432V86H729.769V80.875C729.772 80.3371 729.636 79.9186 729.359 79.6193C729.087 79.3201 728.704 79.1705 728.212 79.1705C727.882 79.1705 727.591 79.2405 727.337 79.3807C727.087 79.5208 726.89 79.7254 726.746 79.9943C726.606 80.2595 726.534 80.5795 726.53 80.9545ZM736.582 86.1648C736.026 86.1648 735.529 86.0682 735.094 85.875C734.658 85.678 734.314 85.3883 734.06 85.0057C733.81 84.6193 733.685 84.1383 733.685 83.5625C733.685 83.0777 733.774 82.6705 733.952 82.3409C734.13 82.0114 734.372 81.7462 734.679 81.5455C734.986 81.3447 735.334 81.1932 735.725 81.0909C736.118 80.9886 736.531 80.9167 736.963 80.875C737.471 80.822 737.88 80.7727 738.19 80.7273C738.501 80.678 738.726 80.6061 738.867 80.5114C739.007 80.4167 739.077 80.2765 739.077 80.0909V80.0568C739.077 79.697 738.963 79.4186 738.736 79.2216C738.512 79.0246 738.194 78.9261 737.781 78.9261C737.346 78.9261 736.999 79.0227 736.742 79.2159C736.484 79.4053 736.314 79.6439 736.23 79.9318L733.992 79.75C734.105 79.2197 734.329 78.7614 734.662 78.375C734.995 77.9848 735.425 77.6856 735.952 77.4773C736.482 77.2652 737.096 77.1591 737.793 77.1591C738.278 77.1591 738.742 77.2159 739.185 77.3295C739.632 77.4432 740.028 77.6193 740.372 77.858C740.721 78.0966 740.995 78.4034 741.196 78.7784C741.397 79.1496 741.497 79.5947 741.497 80.1136V86H739.202V84.7898H739.134C738.993 85.0625 738.806 85.303 738.571 85.5114C738.336 85.7159 738.054 85.8769 737.725 85.9943C737.395 86.108 737.014 86.1648 736.582 86.1648ZM737.276 84.4943C737.632 84.4943 737.946 84.4242 738.219 84.2841C738.492 84.1402 738.706 83.947 738.861 83.7045C739.016 83.4621 739.094 83.1875 739.094 82.8807V81.9545C739.018 82.0038 738.914 82.0492 738.781 82.0909C738.653 82.1288 738.507 82.1648 738.344 82.1989C738.181 82.2292 738.018 82.2576 737.855 82.2841C737.692 82.3068 737.545 82.3277 737.412 82.3466C737.128 82.3883 736.88 82.4545 736.668 82.5455C736.456 82.6364 736.291 82.7595 736.173 82.9148C736.056 83.0663 735.997 83.2557 735.997 83.483C735.997 83.8125 736.117 84.0644 736.355 84.2386C736.598 84.4091 736.904 84.4943 737.276 84.4943ZM743.375 86V77.2727H745.722V78.7955H745.813C745.972 78.2538 746.239 77.8447 746.614 77.5682C746.989 77.2879 747.421 77.1477 747.909 77.1477C748.03 77.1477 748.161 77.1553 748.301 77.1705C748.441 77.1856 748.564 77.2064 748.671 77.233V79.3807C748.557 79.3466 748.4 79.3163 748.199 79.2898C747.998 79.2633 747.814 79.25 747.648 79.25C747.292 79.25 746.974 79.3277 746.693 79.483C746.417 79.6345 746.197 79.8466 746.034 80.1193C745.875 80.392 745.796 80.7064 745.796 81.0625V86H743.375ZM752.161 86.1648C751.604 86.1648 751.108 86.0682 750.672 85.875C750.236 85.678 749.892 85.3883 749.638 85.0057C749.388 84.6193 749.263 84.1383 749.263 83.5625C749.263 83.0777 749.352 82.6705 749.53 82.3409C749.708 82.0114 749.95 81.7462 750.257 81.5455C750.564 81.3447 750.912 81.1932 751.303 81.0909C751.697 80.9886 752.109 80.9167 752.541 80.875C753.049 80.822 753.458 80.7727 753.769 80.7273C754.079 80.678 754.305 80.6061 754.445 80.5114C754.585 80.4167 754.655 80.2765 754.655 80.0909V80.0568C754.655 79.697 754.541 79.4186 754.314 79.2216C754.091 79.0246 753.772 78.9261 753.359 78.9261C752.924 78.9261 752.577 79.0227 752.32 79.2159C752.062 79.4053 751.892 79.6439 751.808 79.9318L749.57 79.75C749.683 79.2197 749.907 78.7614 750.24 78.375C750.573 77.9848 751.003 77.6856 751.53 77.4773C752.06 77.2652 752.674 77.1591 753.371 77.1591C753.856 77.1591 754.32 77.2159 754.763 77.3295C755.21 77.4432 755.606 77.6193 755.95 77.858C756.299 78.0966 756.573 78.4034 756.774 78.7784C756.975 79.1496 757.075 79.5947 757.075 80.1136V86H754.78V84.7898H754.712C754.572 85.0625 754.384 85.303 754.149 85.5114C753.914 85.7159 753.632 85.8769 753.303 85.9943C752.973 86.108 752.592 86.1648 752.161 86.1648ZM752.854 84.4943C753.21 84.4943 753.524 84.4242 753.797 84.2841C754.07 84.1402 754.284 83.947 754.439 83.7045C754.594 83.4621 754.672 83.1875 754.672 82.8807V81.9545C754.596 82.0038 754.492 82.0492 754.359 82.0909C754.231 82.1288 754.085 82.1648 753.922 82.1989C753.759 82.2292 753.596 82.2576 753.433 82.2841C753.27 82.3068 753.123 82.3277 752.99 82.3466C752.706 82.3883 752.458 82.4545 752.246 82.5455C752.034 82.6364 751.869 82.7595 751.752 82.9148C751.634 83.0663 751.575 83.2557 751.575 83.483C751.575 83.8125 751.695 84.0644 751.933 84.2386C752.176 84.4091 752.483 84.4943 752.854 84.4943ZM762.896 86.1705C762.002 86.1705 761.234 85.9811 760.59 85.6023C759.949 85.2197 759.457 84.6894 759.112 84.0114C758.771 83.3333 758.601 82.553 758.601 81.6705C758.601 80.7765 758.773 79.9924 759.118 79.3182C759.466 78.6402 759.961 78.1117 760.601 77.733C761.241 77.3504 762.002 77.1591 762.885 77.1591C763.646 77.1591 764.313 77.2973 764.885 77.5739C765.457 77.8504 765.91 78.2386 766.243 78.7386C766.576 79.2386 766.76 79.8258 766.794 80.5H764.51C764.446 80.0644 764.275 79.714 763.999 79.4489C763.726 79.1799 763.368 79.0455 762.925 79.0455C762.55 79.0455 762.222 79.1477 761.942 79.3523C761.665 79.553 761.449 79.8466 761.294 80.233C761.139 80.6193 761.061 81.0871 761.061 81.6364C761.061 82.1932 761.137 82.6667 761.288 83.0568C761.444 83.447 761.662 83.7443 761.942 83.9489C762.222 84.1534 762.55 84.2557 762.925 84.2557C763.201 84.2557 763.449 84.1989 763.669 84.0852C763.893 83.9716 764.076 83.8068 764.22 83.5909C764.368 83.3712 764.465 83.108 764.51 82.8011H766.794C766.756 83.4678 766.574 84.0549 766.249 84.5625C765.927 85.0663 765.482 85.4602 764.913 85.7443C764.345 86.0284 763.673 86.1705 762.896 86.1705ZM772.986 77.2727V79.0909H767.73V77.2727H772.986ZM768.923 75.1818H771.344V83.3182C771.344 83.5417 771.378 83.7159 771.446 83.8409C771.514 83.9621 771.609 84.0473 771.73 84.0966C771.855 84.1458 771.999 84.1705 772.162 84.1705C772.276 84.1705 772.389 84.161 772.503 84.142C772.617 84.1193 772.704 84.1023 772.764 84.0909L773.145 85.892C773.024 85.9299 772.853 85.9735 772.634 86.0227C772.414 86.0758 772.147 86.108 771.832 86.1193C771.249 86.142 770.738 86.0644 770.298 85.8864C769.863 85.7083 769.524 85.4318 769.281 85.0568C769.039 84.6818 768.92 84.2083 768.923 83.6364V75.1818ZM778.446 86.1705C777.548 86.1705 776.776 85.9886 776.128 85.625C775.484 85.2576 774.988 84.7386 774.639 84.0682C774.291 83.3939 774.117 82.5966 774.117 81.6761C774.117 80.7784 774.291 79.9905 774.639 79.3125C774.988 78.6345 775.478 78.1061 776.111 77.7273C776.747 77.3485 777.493 77.1591 778.35 77.1591C778.925 77.1591 779.461 77.2519 779.957 77.4375C780.457 77.6193 780.893 77.8939 781.264 78.2614C781.639 78.6288 781.931 79.0909 782.139 79.6477C782.348 80.2008 782.452 80.8485 782.452 81.5909V82.2557H775.082V80.7557H780.173C780.173 80.4072 780.098 80.0985 779.946 79.8295C779.795 79.5606 779.584 79.3504 779.315 79.1989C779.05 79.0436 778.742 78.9659 778.389 78.9659C778.022 78.9659 777.696 79.0511 777.412 79.2216C777.132 79.3883 776.912 79.6136 776.753 79.8977C776.594 80.178 776.512 80.4905 776.509 80.8352V82.2614C776.509 82.6932 776.588 83.0663 776.747 83.3807C776.91 83.6951 777.139 83.9375 777.435 84.108C777.73 84.2784 778.081 84.3636 778.486 84.3636C778.755 84.3636 779.001 84.3258 779.225 84.25C779.448 84.1742 779.639 84.0606 779.798 83.9091C779.957 83.7576 780.079 83.572 780.162 83.3523L782.401 83.5C782.287 84.0379 782.054 84.5076 781.702 84.9091C781.353 85.3068 780.903 85.6174 780.35 85.8409C779.8 86.0606 779.166 86.1705 778.446 86.1705ZM784.031 86V77.2727H786.378V78.7955H786.469C786.628 78.2538 786.895 77.8447 787.27 77.5682C787.645 77.2879 788.077 77.1477 788.565 77.1477C788.687 77.1477 788.817 77.1553 788.957 77.1705C789.098 77.1856 789.221 77.2064 789.327 77.233V79.3807C789.213 79.3466 789.056 79.3163 788.855 79.2898C788.654 79.2633 788.471 79.25 788.304 79.25C787.948 79.25 787.63 79.3277 787.35 79.483C787.073 79.6345 786.853 79.8466 786.69 80.1193C786.531 80.392 786.452 80.7064 786.452 81.0625V86H784.031ZM797.84 79.7614L795.624 79.8977C795.586 79.7083 795.504 79.5379 795.379 79.3864C795.254 79.2311 795.09 79.108 794.885 79.017C794.684 78.9223 794.444 78.875 794.163 78.875C793.788 78.875 793.472 78.9545 793.215 79.1136C792.957 79.2689 792.828 79.4773 792.828 79.7386C792.828 79.947 792.912 80.1231 793.078 80.267C793.245 80.411 793.531 80.5265 793.936 80.6136L795.516 80.9318C796.364 81.1061 796.997 81.3864 797.413 81.7727C797.83 82.1591 798.038 82.6667 798.038 83.2955C798.038 83.8674 797.87 84.3693 797.533 84.8011C797.199 85.233 796.741 85.5701 796.158 85.8125C795.578 86.0511 794.91 86.1705 794.152 86.1705C792.997 86.1705 792.076 85.9299 791.391 85.4489C790.709 84.964 790.309 84.3049 790.192 83.4716L792.573 83.3466C792.645 83.6989 792.819 83.9678 793.095 84.1534C793.372 84.3352 793.726 84.4261 794.158 84.4261C794.582 84.4261 794.923 84.3447 795.18 84.1818C795.442 84.0152 795.574 83.8011 795.578 83.5398C795.574 83.3201 795.482 83.1402 795.3 83C795.118 82.8561 794.838 82.7462 794.459 82.6705L792.948 82.3693C792.095 82.1989 791.461 81.9034 791.044 81.483C790.631 81.0625 790.425 80.5265 790.425 79.875C790.425 79.3144 790.576 78.8314 790.879 78.4261C791.186 78.0208 791.616 77.7083 792.169 77.4886C792.726 77.2689 793.377 77.1591 794.124 77.1591C795.226 77.1591 796.093 77.392 796.726 77.858C797.362 78.3239 797.734 78.9583 797.84 79.7614Z" fill="white" fill-opacity="0.95"/>
<rect x="499.878" y="102" width="16" height="16" rx="2" fill="#64B4FA"/>
<path d="M512.878 110.5H502.878C502.745 110.5 502.618 110.447 502.524 110.353C502.431 110.26 502.378 110.132 502.378 110C502.378 109.867 502.431 109.74 502.524 109.646C502.618 109.552 502.745 109.5 502.878 109.5H512.878C513.011 109.5 513.138 109.552 513.231 109.646C513.325 109.74 513.378 109.867 513.378 110C513.378 110.132 513.325 110.26 513.231 110.353C513.138 110.447 513.011 110.5 512.878 110.5Z" fill="black" fill-opacity="0.95"/>
<path d="M525.528 115H524.236L527.975 104.818H529.247L532.986 115H531.693L528.651 106.429H528.571L525.528 115ZM526.006 111.023H531.216V112.116H526.006V111.023ZM535.586 104.818V115H534.413V104.818H535.586ZM538.908 104.818V115H537.735V104.818H538.908Z" fill="white" fill-opacity="0.95"/>
<rect x="524.378" y="130.5" width="15" height="15" rx="1.5" stroke="white" stroke-opacity="0.5"/>
<path d="M550.344 132.818V143H549.111V132.818H550.344ZM552.657 143V135.364H553.79V136.517H553.87C554.009 136.139 554.261 135.833 554.626 135.597C554.99 135.362 555.401 135.244 555.859 135.244C555.945 135.244 556.052 135.246 556.182 135.249C556.311 135.253 556.409 135.258 556.475 135.264V136.457C556.435 136.447 556.344 136.433 556.202 136.413C556.062 136.389 555.915 136.378 555.759 136.378C555.388 136.378 555.056 136.456 554.765 136.612C554.476 136.764 554.248 136.976 554.079 137.248C553.913 137.516 553.83 137.823 553.83 138.168V143H552.657ZM560.736 143.159C560.046 143.159 559.441 142.995 558.921 142.667C558.404 142.339 558 141.88 557.708 141.29C557.42 140.7 557.275 140.01 557.275 139.222C557.275 138.426 557.42 137.732 557.708 137.138C558 136.545 558.404 136.085 558.921 135.756C559.441 135.428 560.046 135.264 560.736 135.264C561.425 135.264 562.028 135.428 562.545 135.756C563.066 136.085 563.47 136.545 563.758 137.138C564.05 137.732 564.196 138.426 564.196 139.222C564.196 140.01 564.05 140.7 563.758 141.29C563.47 141.88 563.066 142.339 562.545 142.667C562.028 142.995 561.425 143.159 560.736 143.159ZM560.736 142.105C561.259 142.105 561.69 141.971 562.028 141.702C562.366 141.434 562.617 141.081 562.779 140.643C562.941 140.206 563.023 139.732 563.023 139.222C563.023 138.711 562.941 138.236 562.779 137.795C562.617 137.354 562.366 136.998 562.028 136.726C561.69 136.454 561.259 136.318 560.736 136.318C560.212 136.318 559.781 136.454 559.443 136.726C559.105 136.998 558.855 137.354 558.692 137.795C558.53 138.236 558.449 138.711 558.449 139.222C558.449 139.732 558.53 140.206 558.692 140.643C558.855 141.081 559.105 141.434 559.443 141.702C559.781 141.971 560.212 142.105 560.736 142.105ZM567.16 138.406V143H565.987V135.364H567.12V136.557H567.22C567.399 136.169 567.671 135.857 568.035 135.622C568.4 135.384 568.87 135.264 569.447 135.264C569.964 135.264 570.417 135.37 570.804 135.582C571.192 135.791 571.494 136.109 571.709 136.537C571.925 136.961 572.032 137.498 572.032 138.148V143H570.859V138.227C570.859 137.627 570.703 137.16 570.392 136.825C570.08 136.487 569.653 136.318 569.109 136.318C568.735 136.318 568.4 136.399 568.105 136.562C567.813 136.724 567.583 136.961 567.414 137.273C567.245 137.584 567.16 137.962 567.16 138.406ZM578.273 132.818H579.745L583.205 141.27H583.324L586.784 132.818H588.256V143H587.103V135.264H587.003L583.821 143H582.708L579.526 135.264H579.426V143H578.273V132.818ZM592.816 143.179C592.332 143.179 591.893 143.088 591.499 142.906C591.104 142.72 590.791 142.453 590.559 142.105C590.327 141.754 590.211 141.33 590.211 140.832C590.211 140.395 590.297 140.04 590.47 139.768C590.642 139.493 590.872 139.278 591.161 139.122C591.449 138.966 591.767 138.85 592.115 138.774C592.466 138.695 592.819 138.632 593.174 138.585C593.638 138.526 594.014 138.481 594.303 138.451C594.594 138.418 594.806 138.363 594.939 138.287C595.075 138.211 595.143 138.078 595.143 137.889V137.849C595.143 137.359 595.009 136.978 594.74 136.706C594.475 136.434 594.072 136.298 593.532 136.298C592.972 136.298 592.533 136.421 592.215 136.666C591.896 136.911 591.673 137.173 591.543 137.452L590.43 137.054C590.629 136.59 590.894 136.229 591.225 135.97C591.56 135.708 591.925 135.526 592.319 135.423C592.717 135.317 593.108 135.264 593.492 135.264C593.738 135.264 594.019 135.294 594.337 135.354C594.659 135.41 594.969 135.528 595.267 135.707C595.569 135.886 595.819 136.156 596.018 136.517C596.217 136.878 596.316 137.362 596.316 137.969V143H595.143V141.966H595.083C595.004 142.132 594.871 142.309 594.685 142.498C594.5 142.687 594.253 142.848 593.945 142.98C593.636 143.113 593.26 143.179 592.816 143.179ZM592.995 142.125C593.459 142.125 593.85 142.034 594.168 141.852C594.49 141.669 594.732 141.434 594.894 141.146C595.06 140.857 595.143 140.554 595.143 140.236V139.162C595.093 139.222 594.984 139.276 594.815 139.326C594.649 139.372 594.457 139.414 594.238 139.45C594.023 139.483 593.812 139.513 593.607 139.54C593.404 139.563 593.24 139.583 593.114 139.599C592.81 139.639 592.524 139.704 592.259 139.793C591.997 139.879 591.785 140.01 591.623 140.186C591.464 140.358 591.384 140.594 591.384 140.892C591.384 141.3 591.535 141.608 591.837 141.817C592.142 142.022 592.528 142.125 592.995 142.125ZM599.631 138.406V143H598.458V135.364H599.591V136.557H599.691C599.87 136.169 600.141 135.857 600.506 135.622C600.871 135.384 601.341 135.264 601.918 135.264C602.435 135.264 602.887 135.37 603.275 135.582C603.663 135.791 603.965 136.109 604.18 136.537C604.395 136.961 604.503 137.498 604.503 138.148V143H603.33V138.227C603.33 137.627 603.174 137.16 602.862 136.825C602.551 136.487 602.123 136.318 601.58 136.318C601.205 136.318 600.871 136.399 600.576 136.562C600.284 136.724 600.054 136.961 599.884 137.273C599.715 137.584 599.631 137.962 599.631 138.406Z" fill="white" fill-opacity="0.95"/>
<rect x="523.878" y="158" width="16" height="16" rx="2" fill="#64B4FA"/>
<path d="M529.478 170.1C529.412 170.1 529.347 170.087 529.286 170.062C529.225 170.037 529.17 169.999 529.124 169.953L525.524 166.335C525.477 166.288 525.441 166.233 525.416 166.172C525.391 166.112 525.378 166.047 525.378 165.981C525.378 165.915 525.391 165.85 525.417 165.79C525.442 165.729 525.479 165.674 525.526 165.628C525.572 165.582 525.627 165.545 525.688 165.52C525.749 165.495 525.814 165.482 525.88 165.482C525.945 165.483 526.01 165.496 526.071 165.521C526.131 165.546 526.186 165.583 526.233 165.63L529.505 168.918L537.553 162.021C537.654 161.935 537.784 161.892 537.916 161.902C538.049 161.912 538.171 161.974 538.258 162.075C538.344 162.176 538.387 162.306 538.376 162.439C538.366 162.571 538.304 162.693 538.203 162.78L529.803 169.979C529.713 170.057 529.598 170.1 529.478 170.1Z" fill="black" fill-opacity="0.95"/>
<path d="M557.304 164H556.071C555.998 163.645 555.871 163.334 555.688 163.065C555.509 162.797 555.291 162.571 555.032 162.389C554.777 162.204 554.493 162.064 554.182 161.972C553.87 161.879 553.546 161.832 553.207 161.832C552.591 161.832 552.033 161.988 551.532 162.3C551.035 162.611 550.639 163.07 550.344 163.677C550.052 164.283 549.906 165.027 549.906 165.909C549.906 166.791 550.052 167.535 550.344 168.141C550.639 168.748 551.035 169.207 551.532 169.518C552.033 169.83 552.591 169.986 553.207 169.986C553.546 169.986 553.87 169.939 554.182 169.847C554.493 169.754 554.777 169.616 555.032 169.434C555.291 169.248 555.509 169.021 555.688 168.753C555.871 168.481 555.998 168.17 556.071 167.818H557.304C557.211 168.339 557.042 168.804 556.797 169.215C556.552 169.626 556.247 169.976 555.882 170.264C555.518 170.549 555.108 170.766 554.654 170.915C554.203 171.065 553.721 171.139 553.207 171.139C552.339 171.139 551.567 170.927 550.891 170.503C550.215 170.079 549.683 169.475 549.295 168.693C548.907 167.911 548.713 166.983 548.713 165.909C548.713 164.835 548.907 163.907 549.295 163.125C549.683 162.343 550.215 161.74 550.891 161.315C551.567 160.891 552.339 160.679 553.207 160.679C553.721 160.679 554.203 160.754 554.654 160.903C555.108 161.052 555.518 161.271 555.882 161.559C556.247 161.844 556.552 162.192 556.797 162.603C557.042 163.011 557.211 163.476 557.304 164ZM561.384 171.179C560.901 171.179 560.461 171.088 560.067 170.906C559.673 170.72 559.359 170.453 559.127 170.105C558.895 169.754 558.779 169.33 558.779 168.832C558.779 168.395 558.866 168.04 559.038 167.768C559.21 167.493 559.441 167.278 559.729 167.122C560.017 166.966 560.335 166.85 560.684 166.774C561.035 166.695 561.388 166.632 561.742 166.585C562.206 166.526 562.583 166.481 562.871 166.451C563.163 166.418 563.375 166.363 563.507 166.287C563.643 166.211 563.711 166.078 563.711 165.889V165.849C563.711 165.359 563.577 164.978 563.309 164.706C563.043 164.434 562.641 164.298 562.1 164.298C561.54 164.298 561.101 164.421 560.783 164.666C560.465 164.911 560.241 165.173 560.112 165.452L558.998 165.054C559.197 164.59 559.462 164.229 559.794 163.97C560.128 163.708 560.493 163.526 560.887 163.423C561.285 163.317 561.676 163.264 562.061 163.264C562.306 163.264 562.588 163.294 562.906 163.354C563.227 163.41 563.537 163.528 563.835 163.707C564.137 163.886 564.387 164.156 564.586 164.517C564.785 164.878 564.884 165.362 564.884 165.969V171H563.711V169.966H563.652C563.572 170.132 563.439 170.309 563.254 170.498C563.068 170.687 562.821 170.848 562.513 170.98C562.205 171.113 561.829 171.179 561.384 171.179ZM561.563 170.125C562.027 170.125 562.419 170.034 562.737 169.852C563.058 169.669 563.3 169.434 563.463 169.146C563.628 168.857 563.711 168.554 563.711 168.236V167.162C563.661 167.222 563.552 167.276 563.383 167.326C563.217 167.372 563.025 167.414 562.806 167.45C562.591 167.483 562.38 167.513 562.175 167.54C561.973 167.563 561.809 167.583 561.683 167.599C561.378 167.639 561.093 167.704 560.828 167.793C560.566 167.879 560.354 168.01 560.191 168.186C560.032 168.358 559.953 168.594 559.953 168.892C559.953 169.3 560.103 169.608 560.405 169.817C560.71 170.022 561.096 170.125 561.563 170.125ZM567.026 173.864V163.364H568.16V164.577H568.299C568.385 164.444 568.504 164.275 568.657 164.07C568.812 163.861 569.035 163.675 569.323 163.513C569.615 163.347 570.009 163.264 570.506 163.264C571.149 163.264 571.716 163.425 572.206 163.746C572.697 164.068 573.08 164.524 573.355 165.114C573.63 165.704 573.767 166.4 573.767 167.202C573.767 168.01 573.63 168.711 573.355 169.305C573.08 169.895 572.699 170.352 572.211 170.677C571.724 170.998 571.162 171.159 570.526 171.159C570.035 171.159 569.643 171.078 569.348 170.915C569.053 170.75 568.826 170.562 568.667 170.354C568.508 170.142 568.385 169.966 568.299 169.827H568.199V173.864H567.026ZM568.179 167.182C568.179 167.759 568.264 168.267 568.433 168.708C568.602 169.146 568.849 169.489 569.174 169.737C569.499 169.982 569.896 170.105 570.367 170.105C570.857 170.105 571.267 169.976 571.595 169.717C571.926 169.455 572.175 169.104 572.341 168.663C572.51 168.219 572.594 167.725 572.594 167.182C572.594 166.645 572.511 166.161 572.346 165.73C572.183 165.296 571.936 164.953 571.605 164.701C571.277 164.446 570.864 164.318 570.367 164.318C569.89 164.318 569.489 164.439 569.164 164.681C568.839 164.92 568.594 165.254 568.428 165.685C568.262 166.113 568.179 166.612 568.179 167.182ZM578.878 163.364V164.358H574.921V163.364H578.878ZM576.074 161.534H577.248V168.812C577.248 169.144 577.296 169.393 577.392 169.558C577.491 169.721 577.617 169.83 577.77 169.886C577.925 169.939 578.089 169.966 578.262 169.966C578.391 169.966 578.497 169.959 578.58 169.946C578.663 169.929 578.729 169.916 578.779 169.906L579.017 170.96C578.938 170.99 578.827 171.02 578.684 171.05C578.542 171.083 578.361 171.099 578.142 171.099C577.811 171.099 577.486 171.028 577.168 170.886C576.853 170.743 576.591 170.526 576.383 170.234C576.177 169.943 576.074 169.575 576.074 169.131V161.534ZM582.89 171.179C582.406 171.179 581.967 171.088 581.573 170.906C581.178 170.72 580.865 170.453 580.633 170.105C580.401 169.754 580.285 169.33 580.285 168.832C580.285 168.395 580.371 168.04 580.544 167.768C580.716 167.493 580.946 167.278 581.235 167.122C581.523 166.966 581.841 166.85 582.189 166.774C582.541 166.695 582.894 166.632 583.248 166.585C583.712 166.526 584.089 166.481 584.377 166.451C584.669 166.418 584.881 166.363 585.013 166.287C585.149 166.211 585.217 166.078 585.217 165.889V165.849C585.217 165.359 585.083 164.978 584.814 164.706C584.549 164.434 584.147 164.298 583.606 164.298C583.046 164.298 582.607 164.421 582.289 164.666C581.971 164.911 581.747 165.173 581.618 165.452L580.504 165.054C580.703 164.59 580.968 164.229 581.299 163.97C581.634 163.708 581.999 163.526 582.393 163.423C582.791 163.317 583.182 163.264 583.566 163.264C583.812 163.264 584.093 163.294 584.412 163.354C584.733 163.41 585.043 163.528 585.341 163.707C585.643 163.886 585.893 164.156 586.092 164.517C586.291 164.878 586.39 165.362 586.39 165.969V171H585.217V169.966H585.157C585.078 170.132 584.945 170.309 584.76 170.498C584.574 170.687 584.327 170.848 584.019 170.98C583.711 171.113 583.334 171.179 582.89 171.179ZM583.069 170.125C583.533 170.125 583.924 170.034 584.243 169.852C584.564 169.669 584.806 169.434 584.968 169.146C585.134 168.857 585.217 168.554 585.217 168.236V167.162C585.167 167.222 585.058 167.276 584.889 167.326C584.723 167.372 584.531 167.414 584.312 167.45C584.097 167.483 583.886 167.513 583.681 167.54C583.479 167.563 583.315 167.583 583.189 167.599C582.884 167.639 582.599 167.704 582.334 167.793C582.072 167.879 581.86 168.01 581.697 168.186C581.538 168.358 581.459 168.594 581.459 168.892C581.459 169.3 581.609 169.608 581.911 169.817C582.216 170.022 582.602 170.125 583.069 170.125ZM588.532 171V163.364H589.705V171H588.532ZM589.128 162.091C588.9 162.091 588.703 162.013 588.537 161.857C588.374 161.701 588.293 161.514 588.293 161.295C588.293 161.077 588.374 160.889 588.537 160.734C588.703 160.578 588.9 160.5 589.128 160.5C589.357 160.5 589.553 160.578 589.715 160.734C589.881 160.889 589.964 161.077 589.964 161.295C589.964 161.514 589.881 161.701 589.715 161.857C589.553 162.013 589.357 162.091 589.128 162.091ZM593.027 166.406V171H591.854V163.364H592.988V164.557H593.087C593.266 164.169 593.538 163.857 593.902 163.622C594.267 163.384 594.738 163.264 595.314 163.264C595.831 163.264 596.284 163.37 596.672 163.582C597.059 163.791 597.361 164.109 597.576 164.537C597.792 164.961 597.9 165.498 597.9 166.148V171H596.726V166.227C596.726 165.627 596.571 165.16 596.259 164.825C595.947 164.487 595.52 164.318 594.976 164.318C594.602 164.318 594.267 164.399 593.972 164.562C593.68 164.724 593.45 164.961 593.281 165.273C593.112 165.584 593.027 165.962 593.027 166.406ZM604.558 171H603.265L607.004 160.818H608.277L612.015 171H610.723L607.68 162.429H607.6L604.558 171ZM605.035 167.023H610.245V168.116H605.035V167.023ZM613.442 171V163.364H614.576V164.557H614.675C614.834 164.149 615.091 163.833 615.446 163.607C615.8 163.379 616.226 163.264 616.723 163.264C617.227 163.264 617.646 163.379 617.981 163.607C618.319 163.833 618.583 164.149 618.772 164.557H618.851C619.047 164.162 619.34 163.849 619.731 163.617C620.122 163.382 620.591 163.264 621.138 163.264C621.821 163.264 622.379 163.478 622.813 163.906C623.248 164.33 623.465 164.991 623.465 165.889V171H622.291V165.889C622.291 165.326 622.137 164.923 621.829 164.681C621.521 164.439 621.158 164.318 620.74 164.318C620.203 164.318 619.787 164.481 619.492 164.805C619.197 165.127 619.05 165.535 619.05 166.028V171H617.857V165.77C617.857 165.336 617.716 164.986 617.434 164.721C617.152 164.452 616.79 164.318 616.345 164.318C616.041 164.318 615.755 164.399 615.49 164.562C615.228 164.724 615.016 164.95 614.854 165.238C614.695 165.523 614.615 165.853 614.615 166.227V171H613.442ZM628.812 171.159C628.076 171.159 627.441 170.997 626.908 170.672C626.377 170.344 625.968 169.886 625.68 169.3C625.395 168.71 625.252 168.024 625.252 167.241C625.252 166.459 625.395 165.77 625.68 165.173C625.968 164.573 626.369 164.106 626.883 163.771C627.4 163.433 628.003 163.264 628.692 163.264C629.09 163.264 629.483 163.33 629.871 163.463C630.258 163.596 630.611 163.811 630.93 164.109C631.248 164.404 631.501 164.795 631.69 165.283C631.879 165.77 631.974 166.37 631.974 167.082V167.58H626.087V166.565H630.78C630.78 166.134 630.694 165.75 630.522 165.412C630.353 165.074 630.111 164.807 629.796 164.612C629.485 164.416 629.117 164.318 628.692 164.318C628.225 164.318 627.821 164.434 627.479 164.666C627.141 164.895 626.881 165.193 626.699 165.561C626.516 165.929 626.425 166.323 626.425 166.744V167.42C626.425 167.997 626.525 168.486 626.724 168.887C626.926 169.285 627.206 169.588 627.564 169.797C627.922 170.002 628.338 170.105 628.812 170.105C629.12 170.105 629.398 170.062 629.647 169.976C629.899 169.886 630.116 169.754 630.298 169.578C630.48 169.399 630.621 169.177 630.721 168.912L631.854 169.23C631.735 169.615 631.534 169.953 631.253 170.244C630.971 170.533 630.623 170.758 630.209 170.92C629.794 171.08 629.329 171.159 628.812 171.159ZM633.758 171V163.364H634.892V164.517H634.972C635.111 164.139 635.363 163.833 635.727 163.597C636.092 163.362 636.503 163.244 636.96 163.244C637.046 163.244 637.154 163.246 637.283 163.249C637.413 163.253 637.51 163.258 637.577 163.264V164.457C637.537 164.447 637.446 164.433 637.303 164.413C637.164 164.389 637.016 164.378 636.861 164.378C636.489 164.378 636.158 164.456 635.866 164.612C635.578 164.764 635.349 164.976 635.18 165.248C635.015 165.516 634.932 165.823 634.932 166.168V171H633.758ZM638.967 171V163.364H640.141V171H638.967ZM639.564 162.091C639.335 162.091 639.138 162.013 638.972 161.857C638.81 161.701 638.729 161.514 638.729 161.295C638.729 161.077 638.81 160.889 638.972 160.734C639.138 160.578 639.335 160.5 639.564 160.5C639.793 160.5 639.988 160.578 640.151 160.734C640.316 160.889 640.399 161.077 640.399 161.295C640.399 161.514 640.316 161.701 640.151 161.857C639.988 162.013 639.793 162.091 639.564 162.091ZM645.392 171.159C644.676 171.159 644.06 170.99 643.543 170.652C643.025 170.314 642.628 169.848 642.349 169.255C642.071 168.662 641.932 167.984 641.932 167.222C641.932 166.446 642.074 165.762 642.359 165.168C642.648 164.572 643.049 164.106 643.562 163.771C644.079 163.433 644.683 163.264 645.372 163.264C645.909 163.264 646.393 163.364 646.824 163.562C647.255 163.761 647.608 164.04 647.883 164.398C648.158 164.756 648.329 165.173 648.395 165.651H647.222C647.132 165.303 646.933 164.994 646.625 164.726C646.32 164.454 645.909 164.318 645.392 164.318C644.935 164.318 644.534 164.437 644.189 164.676C643.847 164.911 643.581 165.245 643.388 165.675C643.199 166.103 643.105 166.605 643.105 167.182C643.105 167.772 643.198 168.286 643.383 168.723C643.572 169.161 643.838 169.5 644.179 169.742C644.524 169.984 644.928 170.105 645.392 170.105C645.697 170.105 645.974 170.052 646.222 169.946C646.471 169.84 646.681 169.688 646.854 169.489C647.026 169.29 647.149 169.051 647.222 168.773H648.395C648.329 169.223 648.164 169.629 647.903 169.991C647.644 170.349 647.301 170.634 646.873 170.846C646.449 171.055 645.955 171.159 645.392 171.159ZM652.357 171.179C651.873 171.179 651.434 171.088 651.04 170.906C650.645 170.72 650.332 170.453 650.1 170.105C649.868 169.754 649.752 169.33 649.752 168.832C649.752 168.395 649.838 168.04 650.011 167.768C650.183 167.493 650.413 167.278 650.702 167.122C650.99 166.966 651.308 166.85 651.656 166.774C652.007 166.695 652.36 166.632 652.715 166.585C653.179 166.526 653.555 166.481 653.844 166.451C654.135 166.418 654.347 166.363 654.48 166.287C654.616 166.211 654.684 166.078 654.684 165.889V165.849C654.684 165.359 654.55 164.978 654.281 164.706C654.016 164.434 653.613 164.298 653.073 164.298C652.513 164.298 652.074 164.421 651.756 164.666C651.437 164.911 651.214 165.173 651.084 165.452L649.971 165.054C650.17 164.59 650.435 164.229 650.766 163.97C651.101 163.708 651.466 163.526 651.86 163.423C652.258 163.317 652.649 163.264 653.033 163.264C653.279 163.264 653.56 163.294 653.878 163.354C654.2 163.41 654.51 163.528 654.808 163.707C655.11 163.886 655.36 164.156 655.559 164.517C655.758 164.878 655.857 165.362 655.857 165.969V171H654.684V169.966H654.624C654.545 170.132 654.412 170.309 654.226 170.498C654.041 170.687 653.794 170.848 653.486 170.98C653.177 171.113 652.801 171.179 652.357 171.179ZM652.536 170.125C653 170.125 653.391 170.034 653.709 169.852C654.031 169.669 654.273 169.434 654.435 169.146C654.601 168.857 654.684 168.554 654.684 168.236V167.162C654.634 167.222 654.525 167.276 654.356 167.326C654.19 167.372 653.998 167.414 653.779 167.45C653.564 167.483 653.353 167.513 653.148 167.54C652.945 167.563 652.781 167.583 652.655 167.599C652.351 167.639 652.065 167.704 651.8 167.793C651.539 167.879 651.326 168.01 651.164 168.186C651.005 168.358 650.925 168.594 650.925 168.892C650.925 169.3 651.076 169.608 651.378 169.817C651.683 170.022 652.069 170.125 652.536 170.125Z" fill="white" fill-opacity="0.95"/>
<rect x="524.378" y="186.5" width="15" height="15" rx="1.5" stroke="white" stroke-opacity="0.5"/>
<path d="M549.111 199V188.818H552.671C553.38 188.818 553.965 188.941 554.426 189.186C554.886 189.428 555.229 189.754 555.455 190.165C555.68 190.573 555.793 191.026 555.793 191.523C555.793 191.96 555.715 192.321 555.559 192.607C555.407 192.892 555.204 193.117 554.953 193.283C554.704 193.448 554.434 193.571 554.142 193.651V193.75C554.454 193.77 554.767 193.879 555.082 194.078C555.397 194.277 555.66 194.562 555.872 194.933C556.084 195.304 556.19 195.759 556.19 196.295C556.19 196.806 556.074 197.265 555.842 197.673C555.61 198.08 555.244 198.403 554.744 198.642C554.243 198.881 553.592 199 552.79 199H549.111ZM550.344 197.906H552.79C553.595 197.906 554.167 197.75 554.505 197.439C554.846 197.124 555.017 196.743 555.017 196.295C555.017 195.951 554.929 195.633 554.754 195.341C554.578 195.046 554.328 194.811 554.003 194.635C553.678 194.456 553.294 194.366 552.85 194.366H550.344V197.906ZM550.344 193.293H552.631C553.002 193.293 553.337 193.22 553.635 193.074C553.937 192.928 554.175 192.723 554.351 192.457C554.53 192.192 554.619 191.881 554.619 191.523C554.619 191.075 554.464 190.696 554.152 190.384C553.841 190.069 553.347 189.912 552.671 189.912H550.344V193.293ZM559.231 188.818V199H558.057V188.818H559.231ZM563.627 199.179C563.143 199.179 562.704 199.088 562.309 198.906C561.915 198.72 561.602 198.453 561.37 198.105C561.138 197.754 561.022 197.33 561.022 196.832C561.022 196.395 561.108 196.04 561.28 195.768C561.452 195.493 561.683 195.278 561.971 195.122C562.259 194.966 562.578 194.85 562.926 194.774C563.277 194.695 563.63 194.632 563.985 194.585C564.449 194.526 564.825 194.481 565.113 194.451C565.405 194.418 565.617 194.363 565.75 194.287C565.885 194.211 565.953 194.078 565.953 193.889V193.849C565.953 193.359 565.819 192.978 565.551 192.706C565.286 192.434 564.883 192.298 564.343 192.298C563.782 192.298 563.343 192.421 563.025 192.666C562.707 192.911 562.483 193.173 562.354 193.452L561.24 193.054C561.439 192.59 561.704 192.229 562.036 191.97C562.371 191.708 562.735 191.526 563.13 191.423C563.527 191.317 563.918 191.264 564.303 191.264C564.548 191.264 564.83 191.294 565.148 191.354C565.469 191.41 565.779 191.528 566.078 191.707C566.379 191.886 566.63 192.156 566.828 192.517C567.027 192.878 567.127 193.362 567.127 193.969V199H565.953V197.966H565.894C565.814 198.132 565.682 198.309 565.496 198.498C565.31 198.687 565.063 198.848 564.755 198.98C564.447 199.113 564.071 199.179 563.627 199.179ZM563.806 198.125C564.27 198.125 564.661 198.034 564.979 197.852C565.3 197.669 565.542 197.434 565.705 197.146C565.871 196.857 565.953 196.554 565.953 196.236V195.162C565.904 195.222 565.794 195.276 565.625 195.326C565.46 195.372 565.267 195.414 565.049 195.45C564.833 195.483 564.623 195.513 564.417 195.54C564.215 195.563 564.051 195.583 563.925 195.599C563.62 195.639 563.335 195.704 563.07 195.793C562.808 195.879 562.596 196.01 562.434 196.186C562.274 196.358 562.195 196.594 562.195 196.892C562.195 197.3 562.346 197.608 562.647 197.817C562.952 198.022 563.338 198.125 563.806 198.125ZM572.37 199.159C571.655 199.159 571.038 198.99 570.521 198.652C570.004 198.314 569.606 197.848 569.328 197.255C569.049 196.662 568.91 195.984 568.91 195.222C568.91 194.446 569.053 193.762 569.338 193.168C569.626 192.572 570.027 192.106 570.541 191.771C571.058 191.433 571.661 191.264 572.351 191.264C572.888 191.264 573.371 191.364 573.802 191.562C574.233 191.761 574.586 192.04 574.861 192.398C575.136 192.756 575.307 193.173 575.373 193.651H574.2C574.111 193.303 573.912 192.994 573.603 192.726C573.299 192.454 572.888 192.318 572.37 192.318C571.913 192.318 571.512 192.437 571.167 192.676C570.826 192.911 570.559 193.245 570.367 193.675C570.178 194.103 570.084 194.605 570.084 195.182C570.084 195.772 570.176 196.286 570.362 196.723C570.551 197.161 570.816 197.5 571.157 197.742C571.502 197.984 571.906 198.105 572.37 198.105C572.675 198.105 572.952 198.052 573.201 197.946C573.449 197.84 573.66 197.688 573.832 197.489C574.004 197.29 574.127 197.051 574.2 196.773H575.373C575.307 197.223 575.143 197.629 574.881 197.991C574.623 198.349 574.28 198.634 573.852 198.846C573.428 199.055 572.934 199.159 572.37 199.159ZM578.182 196.216L578.162 194.764H578.401L581.742 191.364H583.194L579.634 194.963H579.535L578.182 196.216ZM577.089 199V188.818H578.262V199H577.089ZM581.941 199L578.958 195.222L579.793 194.406L583.432 199H581.941ZM590.65 199L587.866 188.818H589.119L591.246 197.111H591.346L593.513 188.818H594.905L597.073 197.111H597.172L599.3 188.818H600.553L597.769 199H596.496L594.249 190.886H594.17L591.922 199H590.65ZM601.93 199V191.364H603.104V199H601.93ZM602.527 190.091C602.298 190.091 602.101 190.013 601.935 189.857C601.773 189.701 601.692 189.514 601.692 189.295C601.692 189.077 601.773 188.889 601.935 188.734C602.101 188.578 602.298 188.5 602.527 188.5C602.756 188.5 602.951 188.578 603.114 188.734C603.279 188.889 603.362 189.077 603.362 189.295C603.362 189.514 603.279 189.701 603.114 189.857C602.951 190.013 602.756 190.091 602.527 190.091ZM608.136 199.159C607.5 199.159 606.938 198.998 606.451 198.677C605.964 198.352 605.582 197.895 605.307 197.305C605.032 196.711 604.895 196.01 604.895 195.202C604.895 194.4 605.032 193.704 605.307 193.114C605.582 192.524 605.965 192.068 606.456 191.746C606.946 191.425 607.513 191.264 608.156 191.264C608.653 191.264 609.046 191.347 609.334 191.513C609.626 191.675 609.848 191.861 610 192.07C610.156 192.275 610.277 192.444 610.363 192.577H610.463V188.818H611.636V199H610.503V197.827H610.363C610.277 197.966 610.155 198.142 609.995 198.354C609.836 198.562 609.609 198.75 609.314 198.915C609.019 199.078 608.627 199.159 608.136 199.159ZM608.295 198.105C608.766 198.105 609.164 197.982 609.488 197.737C609.813 197.489 610.06 197.146 610.229 196.708C610.398 196.267 610.483 195.759 610.483 195.182C610.483 194.612 610.4 194.113 610.234 193.685C610.068 193.254 609.823 192.92 609.498 192.681C609.174 192.439 608.772 192.318 608.295 192.318C607.798 192.318 607.384 192.446 607.052 192.701C606.724 192.953 606.477 193.296 606.312 193.73C606.149 194.161 606.068 194.645 606.068 195.182C606.068 195.725 606.151 196.219 606.316 196.663C606.486 197.104 606.734 197.455 607.062 197.717C607.394 197.976 607.805 198.105 608.295 198.105ZM617.05 199.159C616.361 199.159 615.756 198.995 615.236 198.667C614.718 198.339 614.314 197.88 614.022 197.29C613.734 196.7 613.59 196.01 613.59 195.222C613.59 194.426 613.734 193.732 614.022 193.138C614.314 192.545 614.718 192.085 615.236 191.756C615.756 191.428 616.361 191.264 617.05 191.264C617.74 191.264 618.343 191.428 618.86 191.756C619.38 192.085 619.785 192.545 620.073 193.138C620.365 193.732 620.51 194.426 620.51 195.222C620.51 196.01 620.365 196.7 620.073 197.29C619.785 197.88 619.38 198.339 618.86 198.667C618.343 198.995 617.74 199.159 617.05 199.159ZM617.05 198.105C617.574 198.105 618.005 197.971 618.343 197.702C618.681 197.434 618.931 197.081 619.093 196.643C619.256 196.206 619.337 195.732 619.337 195.222C619.337 194.711 619.256 194.236 619.093 193.795C618.931 193.354 618.681 192.998 618.343 192.726C618.005 192.454 617.574 192.318 617.05 192.318C616.526 192.318 616.096 192.454 615.758 192.726C615.419 192.998 615.169 193.354 615.007 193.795C614.844 194.236 614.763 194.711 614.763 195.222C614.763 195.732 614.844 196.206 615.007 196.643C615.169 197.081 615.419 197.434 615.758 197.702C616.096 197.971 616.526 198.105 617.05 198.105ZM623.772 199L621.445 191.364H622.678L624.329 197.21H624.408L626.039 191.364H627.292L628.902 197.19H628.982L630.633 191.364H631.866L629.539 199H628.385L626.715 193.134H626.596L624.925 199H623.772Z" fill="white" fill-opacity="0.95"/>
<rect x="524.378" y="214.5" width="15" height="15" rx="1.5" stroke="white" stroke-opacity="0.5"/>
<path d="M554.679 219.364C554.619 218.86 554.377 218.469 553.953 218.19C553.529 217.912 553.009 217.773 552.392 217.773C551.941 217.773 551.547 217.846 551.209 217.991C550.874 218.137 550.612 218.338 550.423 218.593C550.238 218.848 550.145 219.138 550.145 219.463C550.145 219.735 550.21 219.969 550.339 220.164C550.471 220.356 550.64 220.517 550.846 220.646C551.051 220.772 551.267 220.877 551.492 220.96C551.718 221.039 551.925 221.104 552.114 221.153L553.148 221.432C553.413 221.501 553.708 221.598 554.033 221.72C554.361 221.843 554.674 222.01 554.972 222.222C555.274 222.431 555.523 222.7 555.718 223.028C555.914 223.356 556.011 223.759 556.011 224.236C556.011 224.786 555.867 225.283 555.579 225.727C555.294 226.171 554.876 226.524 554.326 226.786C553.779 227.048 553.115 227.179 552.332 227.179C551.603 227.179 550.972 227.061 550.438 226.826C549.908 226.591 549.49 226.263 549.185 225.842C548.884 225.421 548.713 224.932 548.673 224.375H549.946C549.979 224.759 550.109 225.078 550.334 225.33C550.563 225.578 550.851 225.764 551.199 225.886C551.55 226.006 551.928 226.065 552.332 226.065C552.803 226.065 553.226 225.989 553.6 225.837C553.975 225.681 554.271 225.465 554.49 225.19C554.709 224.912 554.818 224.587 554.818 224.216C554.818 223.878 554.724 223.603 554.535 223.391C554.346 223.179 554.097 223.006 553.789 222.874C553.481 222.741 553.148 222.625 552.79 222.526L551.537 222.168C550.742 221.939 550.112 221.612 549.648 221.188C549.184 220.764 548.952 220.209 548.952 219.523C548.952 218.953 549.106 218.455 549.414 218.031C549.726 217.604 550.143 217.272 550.667 217.037C551.194 216.798 551.782 216.679 552.432 216.679C553.088 216.679 553.671 216.797 554.182 217.032C554.692 217.264 555.097 217.582 555.395 217.987C555.697 218.391 555.856 218.85 555.872 219.364H554.679ZM560.982 227.159C560.266 227.159 559.649 226.99 559.132 226.652C558.615 226.314 558.218 225.848 557.939 225.255C557.661 224.662 557.522 223.984 557.522 223.222C557.522 222.446 557.664 221.762 557.949 221.168C558.237 220.572 558.639 220.106 559.152 219.771C559.669 219.433 560.273 219.264 560.962 219.264C561.499 219.264 561.983 219.364 562.414 219.562C562.844 219.761 563.197 220.04 563.473 220.398C563.748 220.756 563.918 221.173 563.985 221.651H562.811C562.722 221.303 562.523 220.994 562.215 220.726C561.91 220.454 561.499 220.318 560.982 220.318C560.524 220.318 560.123 220.437 559.779 220.676C559.437 220.911 559.17 221.245 558.978 221.675C558.789 222.103 558.695 222.605 558.695 223.182C558.695 223.772 558.788 224.286 558.973 224.723C559.162 225.161 559.427 225.5 559.769 225.742C560.113 225.984 560.518 226.105 560.982 226.105C561.287 226.105 561.563 226.052 561.812 225.946C562.061 225.84 562.271 225.688 562.443 225.489C562.616 225.29 562.738 225.051 562.811 224.773H563.985C563.918 225.223 563.754 225.629 563.492 225.991C563.234 226.349 562.891 226.634 562.463 226.846C562.039 227.055 561.545 227.159 560.982 227.159ZM567.947 227.179C567.463 227.179 567.024 227.088 566.63 226.906C566.235 226.72 565.922 226.453 565.69 226.105C565.458 225.754 565.342 225.33 565.342 224.832C565.342 224.395 565.428 224.04 565.6 223.768C565.773 223.493 566.003 223.278 566.291 223.122C566.58 222.966 566.898 222.85 567.246 222.774C567.597 222.695 567.95 222.632 568.305 222.585C568.769 222.526 569.145 222.481 569.434 222.451C569.725 222.418 569.937 222.363 570.07 222.287C570.206 222.211 570.274 222.078 570.274 221.889V221.849C570.274 221.359 570.139 220.978 569.871 220.706C569.606 220.434 569.203 220.298 568.663 220.298C568.103 220.298 567.664 220.421 567.345 220.666C567.027 220.911 566.804 221.173 566.674 221.452L565.561 221.054C565.759 220.59 566.025 220.229 566.356 219.97C566.691 219.708 567.055 219.526 567.45 219.423C567.848 219.317 568.239 219.264 568.623 219.264C568.868 219.264 569.15 219.294 569.468 219.354C569.79 219.41 570.1 219.528 570.398 219.707C570.7 219.886 570.95 220.156 571.149 220.517C571.348 220.878 571.447 221.362 571.447 221.969V227H570.274V225.966H570.214C570.134 226.132 570.002 226.309 569.816 226.498C569.631 226.687 569.384 226.848 569.076 226.98C568.767 227.113 568.391 227.179 567.947 227.179ZM568.126 226.125C568.59 226.125 568.981 226.034 569.299 225.852C569.621 225.669 569.863 225.434 570.025 225.146C570.191 224.857 570.274 224.554 570.274 224.236V223.162C570.224 223.222 570.115 223.276 569.946 223.326C569.78 223.372 569.588 223.414 569.369 223.45C569.153 223.483 568.943 223.513 568.737 223.54C568.535 223.563 568.371 223.583 568.245 223.599C567.94 223.639 567.655 223.704 567.39 223.793C567.128 223.879 566.916 224.01 566.754 224.186C566.595 224.358 566.515 224.594 566.515 224.892C566.515 225.3 566.666 225.608 566.968 225.817C567.273 226.022 567.659 226.125 568.126 226.125ZM573.589 227V219.364H574.722V220.517H574.802C574.941 220.139 575.193 219.833 575.557 219.597C575.922 219.362 576.333 219.244 576.79 219.244C576.876 219.244 576.984 219.246 577.113 219.249C577.243 219.253 577.34 219.258 577.407 219.264V220.457C577.367 220.447 577.276 220.433 577.133 220.413C576.994 220.389 576.847 220.378 576.691 220.378C576.32 220.378 575.988 220.456 575.696 220.612C575.408 220.764 575.179 220.976 575.01 221.248C574.845 221.516 574.762 221.823 574.762 222.168V227H573.589ZM579.971 216.818V227H578.797V216.818H579.971ZM585.321 227.159C584.586 227.159 583.951 226.997 583.417 226.672C582.887 226.344 582.478 225.886 582.189 225.3C581.904 224.71 581.762 224.024 581.762 223.241C581.762 222.459 581.904 221.77 582.189 221.173C582.478 220.573 582.879 220.106 583.392 219.771C583.91 219.433 584.513 219.264 585.202 219.264C585.6 219.264 585.993 219.33 586.38 219.463C586.768 219.596 587.121 219.811 587.439 220.109C587.758 220.404 588.011 220.795 588.2 221.283C588.389 221.77 588.483 222.37 588.483 223.082V223.58H582.597V222.565H587.29C587.29 222.134 587.204 221.75 587.032 221.412C586.863 221.074 586.621 220.807 586.306 220.612C585.994 220.416 585.626 220.318 585.202 220.318C584.735 220.318 584.33 220.434 583.989 220.666C583.651 220.895 583.391 221.193 583.209 221.561C583.026 221.929 582.935 222.323 582.935 222.744V223.42C582.935 223.997 583.035 224.486 583.233 224.887C583.436 225.285 583.716 225.588 584.074 225.797C584.432 226.002 584.848 226.105 585.321 226.105C585.63 226.105 585.908 226.062 586.157 225.976C586.409 225.886 586.626 225.754 586.808 225.578C586.99 225.399 587.131 225.177 587.231 224.912L588.364 225.23C588.245 225.615 588.044 225.953 587.763 226.244C587.481 226.533 587.133 226.758 586.718 226.92C586.304 227.08 585.839 227.159 585.321 227.159ZM593.589 219.364V220.358H589.632V219.364H593.589ZM590.785 217.534H591.959V224.812C591.959 225.144 592.007 225.393 592.103 225.558C592.202 225.721 592.328 225.83 592.481 225.886C592.636 225.939 592.8 225.966 592.973 225.966C593.102 225.966 593.208 225.959 593.291 225.946C593.374 225.929 593.44 225.916 593.49 225.906L593.728 226.96C593.649 226.99 593.538 227.02 593.395 227.05C593.253 227.083 593.072 227.099 592.853 227.099C592.522 227.099 592.197 227.028 591.879 226.886C591.564 226.743 591.302 226.526 591.093 226.234C590.888 225.943 590.785 225.575 590.785 225.131V217.534ZM601.3 227L598.516 216.818H599.769L601.897 225.111H601.996L604.164 216.818H605.556L607.723 225.111H607.823L609.951 216.818H611.204L608.419 227H607.147L604.9 218.886H604.82L602.573 227H601.3ZM612.581 227V219.364H613.754V227H612.581ZM613.177 218.091C612.949 218.091 612.751 218.013 612.586 217.857C612.423 217.701 612.342 217.514 612.342 217.295C612.342 217.077 612.423 216.889 612.586 216.734C612.751 216.578 612.949 216.5 613.177 216.5C613.406 216.5 613.602 216.578 613.764 216.734C613.93 216.889 614.013 217.077 614.013 217.295C614.013 217.514 613.93 217.701 613.764 217.857C613.602 218.013 613.406 218.091 613.177 218.091ZM619.224 219.364V220.358H615.267V219.364H619.224ZM616.42 217.534H617.593V224.812C617.593 225.144 617.641 225.393 617.737 225.558C617.837 225.721 617.963 225.83 618.115 225.886C618.271 225.939 618.435 225.966 618.608 225.966C618.737 225.966 618.843 225.959 618.926 225.946C619.009 225.929 619.075 225.916 619.125 225.906L619.363 226.96C619.284 226.99 619.173 227.02 619.03 227.05C618.888 227.083 618.707 227.099 618.488 227.099C618.157 227.099 617.832 227.028 617.514 226.886C617.199 226.743 616.937 226.526 616.728 226.234C616.523 225.943 616.42 225.575 616.42 225.131V217.534ZM624.009 227.159C623.293 227.159 622.677 226.99 622.16 226.652C621.643 226.314 621.245 225.848 620.967 225.255C620.688 224.662 620.549 223.984 620.549 223.222C620.549 222.446 620.691 221.762 620.976 221.168C621.265 220.572 621.666 220.106 622.18 219.771C622.697 219.433 623.3 219.264 623.989 219.264C624.526 219.264 625.01 219.364 625.441 219.562C625.872 219.761 626.225 220.04 626.5 220.398C626.775 220.756 626.946 221.173 627.012 221.651H625.839C625.749 221.303 625.55 220.994 625.242 220.726C624.937 220.454 624.526 220.318 624.009 220.318C623.552 220.318 623.151 220.437 622.806 220.676C622.465 220.911 622.198 221.245 622.006 221.675C621.817 222.103 621.722 222.605 621.722 223.182C621.722 223.772 621.815 224.286 622.001 224.723C622.19 225.161 622.455 225.5 622.796 225.742C623.141 225.984 623.545 226.105 624.009 226.105C624.314 226.105 624.591 226.052 624.839 225.946C625.088 225.84 625.298 225.688 625.471 225.489C625.643 225.29 625.766 225.051 625.839 224.773H627.012C626.946 225.223 626.782 225.629 626.52 225.991C626.261 226.349 625.918 226.634 625.491 226.846C625.066 227.055 624.573 227.159 624.009 227.159ZM629.9 222.406V227H628.727V216.818H629.9V220.557H630C630.179 220.162 630.447 219.849 630.805 219.617C631.167 219.382 631.647 219.264 632.247 219.264C632.767 219.264 633.223 219.369 633.614 219.577C634.005 219.783 634.309 220.099 634.524 220.527C634.743 220.951 634.852 221.491 634.852 222.148V227H633.679V222.227C633.679 221.621 633.521 221.152 633.207 220.82C632.895 220.486 632.463 220.318 631.909 220.318C631.525 220.318 631.18 220.399 630.875 220.562C630.573 220.724 630.335 220.961 630.159 221.273C629.987 221.584 629.9 221.962 629.9 222.406Z" fill="white" fill-opacity="0.95"/>
<rect x="514.878" y="89.5" width="28" height="28" rx="14" fill="#DA0087"/>
<rect x="515.878" y="90.5" width="26" height="26" rx="13" stroke="white" stroke-opacity="0.9" stroke-width="2"/>
<path d="M530.97 97.8636V109.5H528.509V100.199H528.441L525.776 101.869V99.6875L528.657 97.8636H530.97Z" fill="white" fill-opacity="0.95"/>
<rect x="539.378" y="122" width="28" height="28" rx="14" fill="#DA0087"/>
<rect x="540.378" y="123" width="26" height="26" rx="13" stroke="white" stroke-opacity="0.9" stroke-width="2"/>
<path d="M549.282 142V140.227L553.424 136.392C553.776 136.051 554.072 135.744 554.31 135.472C554.553 135.199 554.737 134.932 554.862 134.67C554.987 134.405 555.049 134.119 555.049 133.812C555.049 133.472 554.971 133.178 554.816 132.932C554.661 132.682 554.449 132.491 554.18 132.358C553.911 132.222 553.606 132.153 553.265 132.153C552.909 132.153 552.598 132.225 552.333 132.369C552.068 132.513 551.863 132.72 551.72 132.989C551.576 133.258 551.504 133.578 551.504 133.949H549.168C549.168 133.187 549.341 132.527 549.685 131.966C550.03 131.405 550.513 130.972 551.134 130.665C551.756 130.358 552.471 130.205 553.282 130.205C554.115 130.205 554.841 130.352 555.458 130.648C556.079 130.939 556.562 131.345 556.907 131.864C557.252 132.383 557.424 132.977 557.424 133.648C557.424 134.087 557.337 134.521 557.163 134.949C556.992 135.377 556.687 135.852 556.248 136.375C555.809 136.894 555.189 137.517 554.39 138.244L552.691 139.909V139.989H557.578V142H549.282Z" fill="white" fill-opacity="0.95"/>
<rect x="539.378" y="154" width="28" height="28" rx="14" fill="#DA0087"/>
<rect x="540.378" y="155" width="26" height="26" rx="13" stroke="white" stroke-opacity="0.9" stroke-width="2"/>
<path d="M553.349 174.159C552.5 174.159 551.745 174.013 551.082 173.722C550.423 173.426 549.902 173.021 549.519 172.506C549.14 171.987 548.945 171.388 548.934 170.71H551.411C551.426 170.994 551.519 171.244 551.69 171.46C551.864 171.672 552.095 171.837 552.383 171.955C552.671 172.072 552.995 172.131 553.354 172.131C553.729 172.131 554.061 172.064 554.349 171.932C554.637 171.799 554.862 171.616 555.025 171.381C555.188 171.146 555.269 170.875 555.269 170.568C555.269 170.258 555.182 169.983 555.008 169.744C554.837 169.502 554.591 169.312 554.269 169.176C553.951 169.04 553.572 168.972 553.133 168.972H552.048V167.165H553.133C553.504 167.165 553.832 167.1 554.116 166.972C554.404 166.843 554.627 166.665 554.786 166.438C554.945 166.206 555.025 165.938 555.025 165.631C555.025 165.339 554.955 165.083 554.815 164.864C554.678 164.64 554.485 164.466 554.235 164.341C553.989 164.216 553.701 164.153 553.372 164.153C553.038 164.153 552.733 164.214 552.457 164.335C552.18 164.453 551.959 164.621 551.792 164.841C551.625 165.061 551.536 165.318 551.525 165.614H549.167C549.178 164.943 549.37 164.352 549.741 163.841C550.112 163.33 550.612 162.93 551.241 162.642C551.873 162.35 552.587 162.205 553.383 162.205C554.186 162.205 554.889 162.35 555.491 162.642C556.093 162.934 556.561 163.328 556.894 163.824C557.231 164.316 557.398 164.869 557.394 165.483C557.398 166.134 557.195 166.678 556.786 167.114C556.381 167.549 555.853 167.826 555.201 167.943V168.034C556.057 168.144 556.709 168.441 557.156 168.926C557.606 169.407 557.83 170.009 557.826 170.733C557.83 171.396 557.639 171.985 557.252 172.5C556.87 173.015 556.341 173.42 555.667 173.716C554.993 174.011 554.22 174.159 553.349 174.159Z" fill="white" fill-opacity="0.95"/>
<rect x="539.378" y="186" width="28" height="28" rx="14" fill="#DA0087"/>
<rect x="540.378" y="187" width="26" height="26" rx="13" stroke="white" stroke-opacity="0.9" stroke-width="2"/>
<path d="M548.723 203.955V202.017L553.581 194.364H555.252V197.045H554.263L551.2 201.892V201.983H558.104V203.955H548.723ZM554.308 206V203.364L554.354 202.506V194.364H556.661V206H554.308Z" fill="white" fill-opacity="0.95"/>
</svg>
