<svg width="484" height="249" viewBox="0 0 484 249" fill="none" xmlns="http://www.w3.org/2000/svg">
<rect width="484" height="249" rx="16" fill="#1A1A1A"/>
<rect x="157.125" y="108.625" width="15" height="15" rx="1.5" stroke="white" stroke-opacity="0.5"/>
<path d="M183.091 110.943V121.125H181.858V110.943H183.091ZM191.589 121.304C191.105 121.304 190.666 121.213 190.271 121.031C189.877 120.845 189.564 120.578 189.331 120.23C189.099 119.879 188.983 119.455 188.983 118.957C188.983 118.52 189.07 118.165 189.242 117.893C189.414 117.618 189.645 117.403 189.933 117.247C190.221 117.091 190.54 116.975 190.888 116.899C191.239 116.82 191.592 116.757 191.947 116.71C192.411 116.651 192.787 116.606 193.075 116.576C193.367 116.543 193.579 116.488 193.711 116.412C193.847 116.336 193.915 116.203 193.915 116.014V115.974C193.915 115.484 193.781 115.103 193.513 114.831C193.247 114.559 192.845 114.423 192.305 114.423C191.744 114.423 191.305 114.546 190.987 114.791C190.669 115.036 190.445 115.298 190.316 115.577L189.202 115.179C189.401 114.715 189.666 114.354 189.998 114.095C190.332 113.833 190.697 113.651 191.091 113.548C191.489 113.442 191.88 113.389 192.265 113.389C192.51 113.389 192.792 113.419 193.11 113.479C193.431 113.535 193.741 113.653 194.04 113.832C194.341 114.011 194.591 114.281 194.79 114.642C194.989 115.003 195.089 115.487 195.089 116.094V121.125H193.915V120.091H193.856C193.776 120.257 193.644 120.434 193.458 120.623C193.272 120.812 193.025 120.973 192.717 121.105C192.409 121.238 192.033 121.304 191.589 121.304ZM191.768 120.25C192.232 120.25 192.623 120.159 192.941 119.977C193.262 119.794 193.504 119.559 193.667 119.271C193.832 118.982 193.915 118.679 193.915 118.361V117.287C193.866 117.347 193.756 117.401 193.587 117.451C193.421 117.497 193.229 117.539 193.01 117.575C192.795 117.608 192.585 117.638 192.379 117.665C192.177 117.688 192.013 117.708 191.887 117.724C191.582 117.764 191.297 117.829 191.032 117.918C190.77 118.004 190.558 118.135 190.395 118.311C190.236 118.483 190.157 118.719 190.157 119.017C190.157 119.425 190.308 119.733 190.609 119.942C190.914 120.147 191.3 120.25 191.768 120.25ZM197.23 121.125V113.489H198.364V114.682H198.463C198.622 114.274 198.879 113.958 199.234 113.732C199.588 113.504 200.014 113.389 200.511 113.389C201.015 113.389 201.434 113.504 201.769 113.732C202.107 113.958 202.371 114.274 202.56 114.682H202.639C202.835 114.287 203.128 113.974 203.519 113.742C203.91 113.507 204.379 113.389 204.926 113.389C205.609 113.389 206.167 113.603 206.602 114.031C207.036 114.455 207.253 115.116 207.253 116.014V121.125H206.08V116.014C206.08 115.451 205.925 115.048 205.617 114.806C205.309 114.564 204.946 114.443 204.528 114.443C203.991 114.443 203.576 114.606 203.281 114.93C202.986 115.252 202.838 115.66 202.838 116.153V121.125H201.645V115.895C201.645 115.461 201.504 115.111 201.222 114.846C200.941 114.577 200.578 114.443 200.134 114.443C199.829 114.443 199.544 114.524 199.278 114.687C199.017 114.849 198.804 115.075 198.642 115.363C198.483 115.648 198.403 115.978 198.403 116.352V121.125H197.23ZM215.583 121.304C215.099 121.304 214.66 121.213 214.265 121.031C213.871 120.845 213.558 120.578 213.326 120.23C213.094 119.879 212.978 119.455 212.978 118.957C212.978 118.52 213.064 118.165 213.236 117.893C213.408 117.618 213.639 117.403 213.927 117.247C214.216 117.091 214.534 116.975 214.882 116.899C215.233 116.82 215.586 116.757 215.941 116.71C216.405 116.651 216.781 116.606 217.069 116.576C217.361 116.543 217.573 116.488 217.706 116.412C217.842 116.336 217.909 116.203 217.909 116.014V115.974C217.909 115.484 217.775 115.103 217.507 114.831C217.242 114.559 216.839 114.423 216.299 114.423C215.739 114.423 215.299 114.546 214.981 114.791C214.663 115.036 214.439 115.298 214.31 115.577L213.196 115.179C213.395 114.715 213.66 114.354 213.992 114.095C214.327 113.833 214.691 113.651 215.086 113.548C215.483 113.442 215.874 113.389 216.259 113.389C216.504 113.389 216.786 113.419 217.104 113.479C217.426 113.535 217.735 113.653 218.034 113.832C218.335 114.011 218.586 114.281 218.784 114.642C218.983 115.003 219.083 115.487 219.083 116.094V121.125H217.909V120.091H217.85C217.77 120.257 217.638 120.434 217.452 120.623C217.266 120.812 217.02 120.973 216.711 121.105C216.403 121.238 216.027 121.304 215.583 121.304ZM215.762 120.25C216.226 120.25 216.617 120.159 216.935 119.977C217.257 119.794 217.498 119.559 217.661 119.271C217.827 118.982 217.909 118.679 217.909 118.361V117.287C217.86 117.347 217.75 117.401 217.581 117.451C217.416 117.497 217.223 117.539 217.005 117.575C216.789 117.608 216.579 117.638 216.373 117.665C216.171 117.688 216.007 117.708 215.881 117.724C215.576 117.764 215.291 117.829 215.026 117.918C214.764 118.004 214.552 118.135 214.39 118.311C214.23 118.483 214.151 118.719 214.151 119.017C214.151 119.425 214.302 119.733 214.603 119.942C214.908 120.147 215.294 120.25 215.762 120.25ZM222.398 110.943V121.125H221.224V110.943H222.398ZM229.956 115.199L228.902 115.497C228.835 115.321 228.738 115.151 228.608 114.985C228.482 114.816 228.31 114.677 228.091 114.567C227.873 114.458 227.592 114.403 227.251 114.403C226.784 114.403 226.394 114.511 226.083 114.727C225.775 114.939 225.62 115.209 225.62 115.537C225.62 115.829 225.726 116.059 225.939 116.228C226.151 116.397 226.482 116.538 226.933 116.651L228.066 116.929C228.749 117.095 229.258 117.348 229.593 117.69C229.927 118.028 230.095 118.464 230.095 118.997C230.095 119.435 229.969 119.826 229.717 120.17C229.468 120.515 229.12 120.787 228.673 120.986C228.225 121.185 227.705 121.284 227.112 121.284C226.333 121.284 225.688 121.115 225.178 120.777C224.667 120.439 224.344 119.945 224.208 119.295L225.322 119.017C225.428 119.428 225.629 119.736 225.924 119.942C226.222 120.147 226.611 120.25 227.092 120.25C227.639 120.25 228.073 120.134 228.395 119.902C228.719 119.667 228.882 119.385 228.882 119.057C228.882 118.792 228.789 118.57 228.603 118.391C228.418 118.208 228.133 118.072 227.748 117.983L226.475 117.685C225.776 117.519 225.262 117.262 224.934 116.914C224.609 116.563 224.447 116.124 224.447 115.597C224.447 115.166 224.568 114.785 224.81 114.453C225.055 114.122 225.388 113.862 225.809 113.673C226.234 113.484 226.714 113.389 227.251 113.389C228.007 113.389 228.6 113.555 229.031 113.886C229.465 114.218 229.773 114.655 229.956 115.199ZM234.963 121.284C234.274 121.284 233.669 121.12 233.149 120.792C232.632 120.464 232.227 120.005 231.936 119.415C231.647 118.825 231.503 118.135 231.503 117.347C231.503 116.551 231.647 115.857 231.936 115.263C232.227 114.67 232.632 114.21 233.149 113.881C233.669 113.553 234.274 113.389 234.963 113.389C235.653 113.389 236.256 113.553 236.773 113.881C237.293 114.21 237.698 114.67 237.986 115.263C238.278 115.857 238.423 116.551 238.423 117.347C238.423 118.135 238.278 118.825 237.986 119.415C237.698 120.005 237.293 120.464 236.773 120.792C236.256 121.12 235.653 121.284 234.963 121.284ZM234.963 120.23C235.487 120.23 235.918 120.096 236.256 119.827C236.594 119.559 236.844 119.206 237.007 118.768C237.169 118.331 237.25 117.857 237.25 117.347C237.25 116.836 237.169 116.361 237.007 115.92C236.844 115.479 236.594 115.123 236.256 114.851C235.918 114.579 235.487 114.443 234.963 114.443C234.44 114.443 234.009 114.579 233.671 114.851C233.333 115.123 233.082 115.479 232.92 115.92C232.758 116.361 232.676 116.836 232.676 117.347C232.676 117.857 232.758 118.331 232.92 118.768C233.082 119.206 233.333 119.559 233.671 119.827C234.009 120.096 234.44 120.23 234.963 120.23ZM247.254 121.284C246.538 121.284 245.922 121.115 245.405 120.777C244.888 120.439 244.49 119.973 244.212 119.38C243.933 118.787 243.794 118.109 243.794 117.347C243.794 116.571 243.937 115.887 244.222 115.293C244.51 114.697 244.911 114.231 245.425 113.896C245.942 113.558 246.545 113.389 247.234 113.389C247.771 113.389 248.255 113.489 248.686 113.688C249.117 113.886 249.47 114.165 249.745 114.523C250.02 114.881 250.191 115.298 250.257 115.776H249.084C248.994 115.428 248.795 115.119 248.487 114.851C248.182 114.579 247.771 114.443 247.254 114.443C246.797 114.443 246.396 114.562 246.051 114.801C245.71 115.036 245.443 115.37 245.251 115.8C245.062 116.228 244.967 116.73 244.967 117.307C244.967 117.897 245.06 118.411 245.246 118.848C245.435 119.286 245.7 119.625 246.041 119.867C246.386 120.109 246.79 120.23 247.254 120.23C247.559 120.23 247.836 120.177 248.085 120.071C248.333 119.965 248.544 119.812 248.716 119.614C248.888 119.415 249.011 119.176 249.084 118.898H250.257C250.191 119.348 250.027 119.754 249.765 120.116C249.506 120.474 249.163 120.759 248.736 120.971C248.312 121.18 247.818 121.284 247.254 121.284ZM253.146 110.943V121.125H251.972V110.943H253.146ZM255.295 121.125V113.489H256.468V121.125H255.295ZM255.891 112.216C255.662 112.216 255.465 112.138 255.3 111.982C255.137 111.826 255.056 111.639 255.056 111.42C255.056 111.202 255.137 111.014 255.3 110.859C255.465 110.703 255.662 110.625 255.891 110.625C256.12 110.625 256.315 110.703 256.478 110.859C256.644 111.014 256.726 111.202 256.726 111.42C256.726 111.639 256.644 111.826 256.478 111.982C256.315 112.138 256.12 112.216 255.891 112.216ZM261.719 121.284C261.003 121.284 260.387 121.115 259.87 120.777C259.353 120.439 258.955 119.973 258.676 119.38C258.398 118.787 258.259 118.109 258.259 117.347C258.259 116.571 258.401 115.887 258.686 115.293C258.975 114.697 259.376 114.231 259.89 113.896C260.407 113.558 261.01 113.389 261.699 113.389C262.236 113.389 262.72 113.489 263.151 113.688C263.582 113.886 263.935 114.165 264.21 114.523C264.485 114.881 264.656 115.298 264.722 115.776H263.549C263.459 115.428 263.26 115.119 262.952 114.851C262.647 114.579 262.236 114.443 261.719 114.443C261.262 114.443 260.861 114.562 260.516 114.801C260.175 115.036 259.908 115.37 259.716 115.8C259.527 116.228 259.432 116.73 259.432 117.307C259.432 117.897 259.525 118.411 259.711 118.848C259.9 119.286 260.165 119.625 260.506 119.867C260.851 120.109 261.255 120.23 261.719 120.23C262.024 120.23 262.301 120.177 262.549 120.071C262.798 119.965 263.008 119.812 263.181 119.614C263.353 119.415 263.476 119.176 263.549 118.898H264.722C264.656 119.348 264.492 119.754 264.23 120.116C263.971 120.474 263.628 120.759 263.201 120.971C262.776 121.18 262.283 121.284 261.719 121.284ZM267.531 118.341L267.511 116.889H267.75L271.091 113.489H272.542L268.983 117.088H268.883L267.531 118.341ZM266.437 121.125V110.943H267.61V121.125H266.437ZM271.289 121.125L268.306 117.347L269.142 116.531L272.781 121.125H271.289ZM276.3 121.304C275.816 121.304 275.376 121.213 274.982 121.031C274.588 120.845 274.274 120.578 274.042 120.23C273.81 119.879 273.694 119.455 273.694 118.957C273.694 118.52 273.781 118.165 273.953 117.893C274.125 117.618 274.356 117.403 274.644 117.247C274.932 117.091 275.251 116.975 275.599 116.899C275.95 116.82 276.303 116.757 276.657 116.71C277.122 116.651 277.498 116.606 277.786 116.576C278.078 116.543 278.29 116.488 278.422 116.412C278.558 116.336 278.626 116.203 278.626 116.014V115.974C278.626 115.484 278.492 115.103 278.224 114.831C277.958 114.559 277.556 114.423 277.015 114.423C276.455 114.423 276.016 114.546 275.698 114.791C275.38 115.036 275.156 115.298 275.027 115.577L273.913 115.179C274.112 114.715 274.377 114.354 274.709 114.095C275.043 113.833 275.408 113.651 275.802 113.548C276.2 113.442 276.591 113.389 276.976 113.389C277.221 113.389 277.503 113.419 277.821 113.479C278.142 113.535 278.452 113.653 278.751 113.832C279.052 114.011 279.302 114.281 279.501 114.642C279.7 115.003 279.8 115.487 279.8 116.094V121.125H278.626V120.091H278.567C278.487 120.257 278.354 120.434 278.169 120.623C277.983 120.812 277.736 120.973 277.428 121.105C277.12 121.238 276.744 121.304 276.3 121.304ZM276.479 120.25C276.943 120.25 277.334 120.159 277.652 119.977C277.973 119.794 278.215 119.559 278.378 119.271C278.543 118.982 278.626 118.679 278.626 118.361V117.287C278.577 117.347 278.467 117.401 278.298 117.451C278.132 117.497 277.94 117.539 277.721 117.575C277.506 117.608 277.296 117.638 277.09 117.665C276.888 117.688 276.724 117.708 276.598 117.724C276.293 117.764 276.008 117.829 275.743 117.918C275.481 118.004 275.269 118.135 275.106 118.311C274.947 118.483 274.868 118.719 274.868 119.017C274.868 119.425 275.019 119.733 275.32 119.942C275.625 120.147 276.011 120.25 276.479 120.25ZM282.1 121.125V110.943H283.273V114.702H283.373C283.459 114.569 283.578 114.4 283.731 114.195C283.887 113.986 284.109 113.8 284.397 113.638C284.689 113.472 285.083 113.389 285.58 113.389C286.223 113.389 286.79 113.55 287.281 113.871C287.771 114.193 288.154 114.649 288.429 115.239C288.704 115.829 288.842 116.525 288.842 117.327C288.842 118.135 288.704 118.836 288.429 119.43C288.154 120.02 287.773 120.477 287.286 120.802C286.798 121.123 286.237 121.284 285.6 121.284C285.11 121.284 284.717 121.203 284.422 121.04C284.127 120.875 283.9 120.687 283.741 120.479C283.582 120.267 283.459 120.091 283.373 119.952H283.234V121.125H282.1ZM283.254 117.307C283.254 117.884 283.338 118.392 283.507 118.833C283.676 119.271 283.923 119.614 284.248 119.862C284.573 120.107 284.97 120.23 285.441 120.23C285.932 120.23 286.341 120.101 286.669 119.842C287 119.58 287.249 119.229 287.415 118.788C287.584 118.344 287.668 117.85 287.668 117.307C287.668 116.77 287.585 116.286 287.42 115.855C287.257 115.421 287.01 115.078 286.679 114.826C286.351 114.571 285.938 114.443 285.441 114.443C284.964 114.443 284.563 114.564 284.238 114.806C283.913 115.045 283.668 115.379 283.502 115.81C283.336 116.238 283.254 116.737 283.254 117.307ZM291.81 110.943V121.125H290.636V110.943H291.81ZM297.16 121.284C296.425 121.284 295.79 121.122 295.256 120.797C294.726 120.469 294.317 120.011 294.028 119.425C293.743 118.835 293.601 118.149 293.601 117.366C293.601 116.584 293.743 115.895 294.028 115.298C294.317 114.698 294.718 114.231 295.231 113.896C295.748 113.558 296.352 113.389 297.041 113.389C297.439 113.389 297.831 113.455 298.219 113.588C298.607 113.721 298.96 113.936 299.278 114.234C299.596 114.529 299.85 114.92 300.039 115.408C300.228 115.895 300.322 116.495 300.322 117.207V117.705H294.436V116.69H299.129C299.129 116.259 299.043 115.875 298.871 115.537C298.702 115.199 298.46 114.932 298.145 114.737C297.833 114.541 297.465 114.443 297.041 114.443C296.574 114.443 296.169 114.559 295.828 114.791C295.49 115.02 295.23 115.318 295.047 115.686C294.865 116.054 294.774 116.448 294.774 116.869V117.545C294.774 118.122 294.873 118.611 295.072 119.012C295.274 119.41 295.555 119.713 295.912 119.922C296.27 120.127 296.686 120.23 297.16 120.23C297.469 120.23 297.747 120.187 297.996 120.101C298.247 120.011 298.465 119.879 298.647 119.703C298.829 119.524 298.97 119.302 299.069 119.037L300.203 119.355C300.084 119.74 299.883 120.078 299.601 120.369C299.32 120.658 298.972 120.883 298.557 121.045C298.143 121.205 297.677 121.284 297.16 121.284Z" fill="white" fill-opacity="0.95"/>
<g filter="url(#filter0_d_334_13470)">
<path d="M313.645 137.155C313.365 136.795 313.015 136.065 312.405 135.155C312.055 134.655 311.195 133.705 310.935 133.215C310.748 132.917 310.693 132.555 310.785 132.215C310.942 131.569 311.555 131.141 312.215 131.215C312.726 131.318 313.195 131.568 313.565 131.935C313.823 132.178 314.061 132.442 314.275 132.725C314.435 132.925 314.475 133.005 314.655 133.235C314.835 133.465 314.955 133.695 314.865 133.355C314.795 132.855 314.675 132.015 314.505 131.265C314.375 130.695 314.345 130.605 314.225 130.175C314.105 129.745 314.035 129.385 313.905 128.895C313.786 128.414 313.693 127.926 313.625 127.435C313.499 126.807 313.591 126.154 313.885 125.585C314.235 125.256 314.747 125.17 315.185 125.365C315.626 125.69 315.954 126.145 316.125 126.665C316.387 127.305 316.562 127.978 316.645 128.665C316.805 129.665 317.115 131.125 317.125 131.425C317.125 131.055 317.055 130.275 317.125 129.925C317.194 129.56 317.448 129.257 317.795 129.125C318.093 129.034 318.408 129.013 318.715 129.065C319.025 129.13 319.3 129.308 319.485 129.565C319.717 130.148 319.845 130.768 319.865 131.395C319.892 130.846 319.986 130.302 320.145 129.775C320.312 129.54 320.556 129.37 320.835 129.295C321.166 129.235 321.505 129.235 321.835 129.295C322.106 129.386 322.343 129.557 322.515 129.785C322.727 130.315 322.855 130.875 322.895 131.445C322.895 131.585 322.965 131.055 323.185 130.705C323.299 130.366 323.586 130.113 323.937 130.042C324.288 129.972 324.65 130.094 324.887 130.362C325.124 130.631 325.199 131.006 325.085 131.345C325.085 131.995 325.085 131.965 325.085 132.405C325.085 132.845 325.085 133.235 325.085 133.605C325.049 134.19 324.968 134.772 324.845 135.345C324.671 135.852 324.429 136.333 324.125 136.775C323.64 137.315 323.238 137.925 322.935 138.585C322.86 138.913 322.826 139.249 322.835 139.585C322.834 139.896 322.874 140.205 322.955 140.505C322.546 140.548 322.134 140.548 321.725 140.505C321.335 140.445 320.855 139.665 320.725 139.425C320.661 139.296 320.529 139.215 320.385 139.215C320.241 139.215 320.109 139.296 320.045 139.425C319.825 139.805 319.335 140.495 318.995 140.535C318.325 140.615 316.945 140.535 315.855 140.535C315.855 140.535 316.035 139.535 315.625 139.175C315.215 138.815 314.795 138.395 314.485 138.115L313.645 137.155Z" fill="white"/>
<path d="M313.645 137.155C313.365 136.795 313.015 136.065 312.405 135.155C312.055 134.655 311.195 133.705 310.935 133.215C310.748 132.917 310.693 132.555 310.785 132.215C310.942 131.569 311.555 131.141 312.215 131.215C312.726 131.318 313.195 131.568 313.565 131.935C313.823 132.178 314.061 132.442 314.275 132.725C314.435 132.925 314.475 133.005 314.655 133.235C314.835 133.465 314.955 133.695 314.865 133.355C314.795 132.855 314.675 132.015 314.505 131.265C314.375 130.695 314.345 130.605 314.225 130.175C314.105 129.745 314.035 129.385 313.905 128.895C313.786 128.414 313.693 127.926 313.625 127.435C313.499 126.807 313.591 126.154 313.885 125.585C314.235 125.256 314.747 125.17 315.185 125.365C315.626 125.69 315.954 126.145 316.125 126.665C316.387 127.305 316.562 127.978 316.645 128.665C316.805 129.665 317.115 131.125 317.125 131.425C317.125 131.055 317.055 130.275 317.125 129.925C317.194 129.56 317.448 129.257 317.795 129.125C318.093 129.034 318.408 129.013 318.715 129.065C319.025 129.13 319.3 129.308 319.485 129.565C319.717 130.148 319.845 130.768 319.865 131.395C319.892 130.846 319.986 130.302 320.145 129.775C320.312 129.54 320.556 129.37 320.835 129.295C321.166 129.235 321.505 129.235 321.835 129.295C322.106 129.386 322.343 129.557 322.515 129.785C322.727 130.315 322.855 130.875 322.895 131.445C322.895 131.585 322.965 131.055 323.185 130.705C323.299 130.366 323.586 130.113 323.937 130.042C324.288 129.972 324.65 130.094 324.887 130.362C325.124 130.631 325.199 131.006 325.085 131.345C325.085 131.995 325.085 131.965 325.085 132.405C325.085 132.845 325.085 133.235 325.085 133.605C325.049 134.19 324.968 134.772 324.845 135.345C324.671 135.852 324.429 136.333 324.125 136.775C323.64 137.315 323.238 137.925 322.935 138.585C322.86 138.913 322.826 139.249 322.835 139.585C322.834 139.896 322.874 140.205 322.955 140.505C322.546 140.548 322.134 140.548 321.725 140.505C321.335 140.445 320.855 139.665 320.725 139.425C320.661 139.296 320.529 139.215 320.385 139.215C320.241 139.215 320.109 139.296 320.045 139.425C319.825 139.805 319.335 140.495 318.995 140.535C318.325 140.615 316.945 140.535 315.855 140.535C315.855 140.535 316.035 139.535 315.625 139.175C315.215 138.815 314.795 138.395 314.485 138.115L313.645 137.155Z" stroke="black" stroke-width="0.75"/>
</g>
<path d="M322.625 137.701V134.249C322.625 133.765 322.232 133.375 321.75 133.375C321.268 133.375 320.875 133.765 320.875 134.249V137.701C320.875 138.185 321.268 138.575 321.75 138.575C322.232 138.575 322.625 138.185 322.625 137.701Z" fill="black" stroke="white"/>
<path d="M320.645 137.697L320.625 134.243C320.622 133.759 320.226 133.372 319.745 133.375C319.264 133.378 318.872 133.769 318.875 134.253L318.895 137.707C318.898 138.191 319.294 138.578 319.775 138.575C320.256 138.572 320.648 138.181 320.645 137.697Z" fill="black" stroke="white"/>
<path d="M316.875 134.257L316.895 137.703C316.898 138.185 317.29 138.578 317.775 138.575C318.261 138.572 318.648 138.175 318.645 137.693L318.625 134.247C318.622 133.765 318.23 133.372 317.745 133.375C317.259 133.378 316.872 133.775 316.875 134.257Z" fill="black" stroke="white"/>
<defs>
<filter id="filter0_d_334_13470" x="308.566" y="124.087" width="18.7462" height="19.6588" filterUnits="userSpaceOnUse" color-interpolation-filters="sRGB">
<feFlood flood-opacity="0" result="BackgroundImageFix"/>
<feColorMatrix in="SourceAlpha" type="matrix" values="0 0 0 0 0 0 0 0 0 0 0 0 0 0 0 0 0 0 127 0" result="hardAlpha"/>
<feOffset dy="1"/>
<feGaussianBlur stdDeviation="0.9"/>
<feColorMatrix type="matrix" values="0 0 0 0 0 0 0 0 0 0 0 0 0 0 0 0 0 0 0.65 0"/>
<feBlend mode="normal" in2="BackgroundImageFix" result="effect1_dropShadow_334_13470"/>
<feBlend mode="normal" in="SourceGraphic" in2="effect1_dropShadow_334_13470" result="shape"/>
</filter>
</defs>
</svg>
