<svg width="195" height="40" viewBox="0 0 195 40" fill="none" xmlns="http://www.w3.org/2000/svg">
<rect x="64" y="12" width="16" height="16" rx="2" fill="#64B4FA"/>
<path d="M69.6003 24.0999C69.5344 24.1001 69.4691 24.0871 69.4082 24.0618C69.3474 24.0365 69.2922 23.9993 69.2458 23.9525L65.6457 20.3348C65.5994 20.2883 65.5627 20.233 65.5378 20.1723C65.5128 20.1116 65.5001 20.0465 65.5002 19.9809C65.5004 19.9152 65.5135 19.8502 65.5388 19.7897C65.5641 19.7291 65.6011 19.6741 65.6477 19.6278C65.6942 19.5815 65.7494 19.5448 65.8102 19.5198C65.8709 19.4949 65.9359 19.4821 66.0016 19.4823C66.0672 19.4825 66.1322 19.4956 66.1928 19.5209C66.2534 19.5462 66.3084 19.5832 66.3547 19.6297L69.6272 22.9183L77.675 16.0208C77.7756 15.9346 77.9064 15.8919 78.0385 15.902C78.1707 15.9122 78.2933 15.9744 78.3796 16.075C78.4658 16.1757 78.5086 16.3064 78.4984 16.4386C78.4882 16.5707 78.426 16.6934 78.3254 16.7796L69.9255 23.9793C69.8351 24.0572 69.7196 24.1 69.6003 24.0999Z" fill="black" fill-opacity="0.95"/>
<path d="M97.4261 18H96.1932C96.1203 17.6454 95.9927 17.3338 95.8104 17.0653C95.6314 16.7969 95.4126 16.5715 95.1541 16.3892C94.8989 16.2036 94.6155 16.0644 94.304 15.9716C93.9924 15.8788 93.6676 15.8324 93.3295 15.8324C92.7131 15.8324 92.1546 15.9882 91.6541 16.2997C91.157 16.6113 90.7609 17.0703 90.4659 17.6768C90.1742 18.2834 90.0284 19.0275 90.0284 19.9091C90.0284 20.7907 90.1742 21.5348 90.4659 22.1413C90.7609 22.7479 91.157 23.2069 91.6541 23.5185C92.1546 23.83 92.7131 23.9858 93.3295 23.9858C93.6676 23.9858 93.9924 23.9394 94.304 23.8466C94.6155 23.7538 94.8989 23.6162 95.1541 23.4339C95.4126 23.2483 95.6314 23.0213 95.8104 22.7528C95.9927 22.4811 96.1203 22.1695 96.1932 21.8182H97.4261C97.3333 22.3385 97.1643 22.8042 96.919 23.2152C96.6738 23.6262 96.3688 23.9759 96.0043 24.2642C95.6397 24.5492 95.2304 24.7663 94.7763 24.9155C94.3255 25.0646 93.8433 25.1392 93.3295 25.1392C92.4612 25.1392 91.6889 24.9271 91.0128 24.5028C90.3366 24.0786 89.8047 23.4754 89.4169 22.6932C89.0291 21.911 88.8352 20.983 88.8352 19.9091C88.8352 18.8352 89.0291 17.9072 89.4169 17.125C89.8047 16.3428 90.3366 15.7396 91.0128 15.3153C91.6889 14.8911 92.4612 14.679 93.3295 14.679C93.8433 14.679 94.3255 14.7536 94.7763 14.9027C95.2304 15.0518 95.6397 15.2706 96.0043 15.5589C96.3688 15.844 96.6738 16.192 96.919 16.603C97.1643 17.0107 97.3333 17.4763 97.4261 18ZM100.433 20.4062V25H99.2594V14.8182H100.433V18.5568H100.532C100.711 18.1624 100.98 17.8492 101.338 17.6172C101.699 17.3819 102.179 17.2642 102.779 17.2642C103.3 17.2642 103.755 17.3686 104.146 17.5774C104.538 17.7829 104.841 18.0994 105.056 18.527C105.275 18.9512 105.384 19.4915 105.384 20.1477V25H104.211V20.2273C104.211 19.6207 104.054 19.1518 103.739 18.8203C103.427 18.4856 102.995 18.3182 102.441 18.3182C102.057 18.3182 101.712 18.3994 101.407 18.5618C101.106 18.7242 100.867 18.9612 100.691 19.2727C100.519 19.5843 100.433 19.9621 100.433 20.4062ZM110.733 25.1591C109.997 25.1591 109.362 24.9967 108.828 24.6719C108.298 24.3438 107.889 23.8864 107.6 23.2997C107.315 22.7098 107.173 22.0237 107.173 21.2415C107.173 20.4593 107.315 19.7699 107.6 19.1733C107.889 18.5734 108.29 18.1061 108.804 17.7713C109.321 17.4332 109.924 17.2642 110.613 17.2642C111.011 17.2642 111.404 17.3305 111.792 17.4631C112.179 17.5956 112.532 17.8111 112.85 18.1094C113.169 18.4044 113.422 18.7955 113.611 19.2827C113.8 19.7699 113.895 20.3698 113.895 21.0824V21.5795H108.008V20.5653H112.701C112.701 20.1345 112.615 19.75 112.443 19.4119C112.274 19.0739 112.032 18.8071 111.717 18.6115C111.405 18.416 111.038 18.3182 110.613 18.3182C110.146 18.3182 109.742 18.4342 109.4 18.6662C109.062 18.8949 108.802 19.1932 108.62 19.5611C108.437 19.929 108.346 20.3234 108.346 20.7443V21.4205C108.346 21.9972 108.446 22.486 108.645 22.8871C108.847 23.2848 109.127 23.5881 109.485 23.7969C109.843 24.0024 110.259 24.1051 110.733 24.1051C111.041 24.1051 111.319 24.062 111.568 23.9759C111.82 23.8864 112.037 23.7538 112.219 23.5781C112.401 23.3991 112.542 23.1771 112.642 22.9119L113.775 23.2301C113.656 23.6146 113.455 23.9527 113.174 24.2443C112.892 24.5327 112.544 24.758 112.13 24.9205C111.715 25.0795 111.25 25.1591 110.733 25.1591ZM118.782 25.1591C118.066 25.1591 117.449 24.9901 116.932 24.652C116.415 24.3139 116.017 23.8482 115.739 23.255C115.461 22.6617 115.321 21.9839 115.321 21.2216C115.321 20.446 115.464 19.7616 115.749 19.1683C116.037 18.5717 116.438 18.1061 116.952 17.7713C117.469 17.4332 118.072 17.2642 118.762 17.2642C119.299 17.2642 119.783 17.3636 120.213 17.5625C120.644 17.7614 120.997 18.0398 121.272 18.3977C121.547 18.7557 121.718 19.1733 121.784 19.6506H120.611C120.522 19.3026 120.323 18.9943 120.015 18.7259C119.71 18.4541 119.299 18.3182 118.782 18.3182C118.324 18.3182 117.923 18.4375 117.578 18.6761C117.237 18.9115 116.97 19.2446 116.778 19.6754C116.589 20.103 116.495 20.6051 116.495 21.1818C116.495 21.7718 116.587 22.2855 116.773 22.723C116.962 23.1605 117.227 23.5002 117.569 23.7422C117.913 23.9841 118.318 24.1051 118.782 24.1051C119.087 24.1051 119.363 24.0521 119.612 23.946C119.86 23.84 120.071 23.6875 120.243 23.4886C120.416 23.2898 120.538 23.0511 120.611 22.7727H121.784C121.718 23.2235 121.554 23.6295 121.292 23.9908C121.034 24.3487 120.691 24.6338 120.263 24.8459C119.839 25.0547 119.345 25.1591 118.782 25.1591ZM124.593 22.2159L124.574 20.7642H124.812L128.153 17.3636H129.605L126.045 20.9631H125.946L124.593 22.2159ZM123.5 25V14.8182H124.673V25H123.5ZM128.352 25L125.369 21.2216L126.204 20.4062L129.843 25H128.352ZM131.274 25V14.8182H132.447V18.5767H132.547C132.633 18.4441 132.752 18.2751 132.905 18.0696C133.06 17.8608 133.282 17.6752 133.571 17.5128C133.863 17.3471 134.257 17.2642 134.754 17.2642C135.397 17.2642 135.964 17.425 136.454 17.7464C136.945 18.0679 137.328 18.5237 137.603 19.1136C137.878 19.7036 138.015 20.3996 138.015 21.2017C138.015 22.0104 137.878 22.7114 137.603 23.3047C137.328 23.8946 136.947 24.352 136.459 24.6768C135.972 24.9983 135.41 25.1591 134.774 25.1591C134.283 25.1591 133.891 25.0779 133.596 24.9155C133.301 24.7498 133.074 24.5625 132.915 24.3537C132.756 24.1416 132.633 23.9659 132.547 23.8267H132.407V25H131.274ZM132.427 21.1818C132.427 21.7585 132.512 22.2673 132.681 22.7081C132.85 23.1456 133.097 23.4886 133.422 23.7372C133.747 23.9825 134.144 24.1051 134.615 24.1051C135.105 24.1051 135.515 23.9759 135.843 23.7173C136.174 23.4555 136.423 23.1042 136.589 22.6634C136.758 22.2192 136.842 21.7254 136.842 21.1818C136.842 20.6449 136.759 20.161 136.594 19.7301C136.431 19.2959 136.184 18.9529 135.853 18.701C135.525 18.4458 135.112 18.3182 134.615 18.3182C134.138 18.3182 133.737 18.4392 133.412 18.6811C133.087 18.9197 132.842 19.2545 132.676 19.6854C132.51 20.1129 132.427 20.6117 132.427 21.1818ZM142.912 25.1591C142.223 25.1591 141.618 24.995 141.098 24.6669C140.581 24.3388 140.176 23.8797 139.885 23.2898C139.596 22.6998 139.452 22.0104 139.452 21.2216C139.452 20.4261 139.596 19.7318 139.885 19.1385C140.176 18.5452 140.581 18.0845 141.098 17.7564C141.618 17.4283 142.223 17.2642 142.912 17.2642C143.602 17.2642 144.205 17.4283 144.722 17.7564C145.242 18.0845 145.647 18.5452 145.935 19.1385C146.227 19.7318 146.373 20.4261 146.373 21.2216C146.373 22.0104 146.227 22.6998 145.935 23.2898C145.647 23.8797 145.242 24.3388 144.722 24.6669C144.205 24.995 143.602 25.1591 142.912 25.1591ZM142.912 24.1051C143.436 24.1051 143.867 23.9709 144.205 23.7024C144.543 23.4339 144.793 23.081 144.956 22.6435C145.118 22.206 145.199 21.732 145.199 21.2216C145.199 20.7112 145.118 20.2356 144.956 19.7947C144.793 19.3539 144.543 18.9976 144.205 18.7259C143.867 18.4541 143.436 18.3182 142.912 18.3182C142.389 18.3182 141.958 18.4541 141.62 18.7259C141.282 18.9976 141.032 19.3539 140.869 19.7947C140.707 20.2356 140.626 20.7112 140.626 21.2216C140.626 21.732 140.707 22.206 140.869 22.6435C141.032 23.081 141.282 23.4339 141.62 23.7024C141.958 23.9709 142.389 24.1051 142.912 24.1051ZM148.724 17.3636L150.554 20.4858L152.383 17.3636H153.736L151.27 21.1818L153.736 25H152.383L150.554 22.0369L148.724 25H147.372L149.798 21.1818L147.372 17.3636H148.724ZM159.506 25V14.8182H160.739V23.9062H165.472V25H159.506ZM169.469 25.179C168.986 25.179 168.546 25.0878 168.152 24.9055C167.758 24.7199 167.444 24.4531 167.212 24.1051C166.98 23.7538 166.864 23.3295 166.864 22.8324C166.864 22.3949 166.951 22.0402 167.123 21.7685C167.295 21.4934 167.526 21.2779 167.814 21.1222C168.102 20.9664 168.42 20.8504 168.768 20.7741C169.12 20.6946 169.473 20.6316 169.827 20.5852C170.291 20.5256 170.668 20.4808 170.956 20.451C171.248 20.4179 171.46 20.3632 171.592 20.2869C171.728 20.2107 171.796 20.0781 171.796 19.8892V19.8494C171.796 19.3589 171.662 18.9777 171.393 18.706C171.128 18.4342 170.726 18.2983 170.185 18.2983C169.625 18.2983 169.186 18.4209 168.868 18.6662C168.55 18.9115 168.326 19.1733 168.197 19.4517L167.083 19.054C167.282 18.59 167.547 18.2287 167.879 17.9702C168.213 17.7083 168.578 17.526 168.972 17.4233C169.37 17.3172 169.761 17.2642 170.146 17.2642C170.391 17.2642 170.673 17.294 170.991 17.3537C171.312 17.41 171.622 17.5277 171.92 17.7067C172.222 17.8857 172.472 18.1558 172.671 18.517C172.87 18.8783 172.969 19.3622 172.969 19.9688V25H171.796V23.9659H171.737C171.657 24.1316 171.524 24.3089 171.339 24.4979C171.153 24.6868 170.906 24.8475 170.598 24.9801C170.29 25.1127 169.914 25.179 169.469 25.179ZM169.648 24.125C170.112 24.125 170.504 24.0339 170.822 23.8516C171.143 23.6693 171.385 23.4339 171.548 23.1456C171.713 22.8572 171.796 22.554 171.796 22.2358V21.1619C171.746 21.2216 171.637 21.2763 171.468 21.326C171.302 21.3724 171.11 21.4138 170.891 21.4503C170.676 21.4834 170.465 21.5133 170.26 21.5398C170.058 21.563 169.894 21.5829 169.768 21.5994C169.463 21.6392 169.178 21.7038 168.913 21.7933C168.651 21.8795 168.439 22.0104 168.276 22.1861C168.117 22.3584 168.038 22.5937 168.038 22.892C168.038 23.2997 168.188 23.608 168.49 23.8168C168.795 24.0223 169.181 24.125 169.648 24.125ZM175.27 25V14.8182H176.443V18.5767H176.543C176.629 18.4441 176.748 18.2751 176.901 18.0696C177.057 17.8608 177.279 17.6752 177.567 17.5128C177.859 17.3471 178.253 17.2642 178.75 17.2642C179.393 17.2642 179.96 17.425 180.45 17.7464C180.941 18.0679 181.324 18.5237 181.599 19.1136C181.874 19.7036 182.012 20.3996 182.012 21.2017C182.012 22.0104 181.874 22.7114 181.599 23.3047C181.324 23.8946 180.943 24.352 180.455 24.6768C179.968 24.9983 179.406 25.1591 178.77 25.1591C178.28 25.1591 177.887 25.0779 177.592 24.9155C177.297 24.7498 177.07 24.5625 176.911 24.3537C176.752 24.1416 176.629 23.9659 176.543 23.8267H176.404V25H175.27ZM176.423 21.1818C176.423 21.7585 176.508 22.2673 176.677 22.7081C176.846 23.1456 177.093 23.4886 177.418 23.7372C177.743 23.9825 178.14 24.1051 178.611 24.1051C179.102 24.1051 179.511 23.9759 179.839 23.7173C180.17 23.4555 180.419 23.1042 180.585 22.6634C180.754 22.2192 180.838 21.7254 180.838 21.1818C180.838 20.6449 180.755 20.161 180.59 19.7301C180.427 19.2959 180.18 18.9529 179.849 18.701C179.521 18.4458 179.108 18.3182 178.611 18.3182C178.134 18.3182 177.733 18.4392 177.408 18.6811C177.083 18.9197 176.838 19.2545 176.672 19.6854C176.506 20.1129 176.423 20.6117 176.423 21.1818ZM187.008 25.1591C186.272 25.1591 185.637 24.9967 185.104 24.6719C184.574 24.3438 184.164 23.8864 183.876 23.2997C183.591 22.7098 183.448 22.0237 183.448 21.2415C183.448 20.4593 183.591 19.7699 183.876 19.1733C184.164 18.5734 184.565 18.1061 185.079 17.7713C185.596 17.4332 186.199 17.2642 186.889 17.2642C187.286 17.2642 187.679 17.3305 188.067 17.4631C188.455 17.5956 188.808 17.8111 189.126 18.1094C189.444 18.4044 189.698 18.7955 189.887 19.2827C190.075 19.7699 190.17 20.3698 190.17 21.0824V21.5795H184.284V20.5653H188.977C188.977 20.1345 188.891 19.75 188.718 19.4119C188.549 19.0739 188.307 18.8071 187.992 18.6115C187.681 18.416 187.313 18.3182 186.889 18.3182C186.421 18.3182 186.017 18.4342 185.676 18.6662C185.338 18.8949 185.077 19.1932 184.895 19.5611C184.713 19.929 184.622 20.3234 184.622 20.7443V21.4205C184.622 21.9972 184.721 22.486 184.92 22.8871C185.122 23.2848 185.402 23.5881 185.76 23.7969C186.118 24.0024 186.534 24.1051 187.008 24.1051C187.316 24.1051 187.595 24.062 187.843 23.9759C188.095 23.8864 188.312 23.7538 188.494 23.5781C188.677 23.3991 188.818 23.1771 188.917 22.9119L190.051 23.2301C189.931 23.6146 189.731 23.9527 189.449 24.2443C189.167 24.5327 188.819 24.758 188.405 24.9205C187.991 25.0795 187.525 25.1591 187.008 25.1591ZM193.128 14.8182V25H191.955V14.8182H193.128Z" fill="white" fill-opacity="0.95"/>
</svg>
