<svg width="1150" height="357" viewBox="0 0 1150 357" fill="none" xmlns="http://www.w3.org/2000/svg">
<rect width="1150" height="357" rx="16" fill="#1A1A1A"/>
<path d="M439.324 79.9602C439.278 79.5019 439.083 79.1458 438.739 78.892C438.394 78.6383 437.926 78.5114 437.335 78.5114C436.934 78.5114 436.595 78.5682 436.318 78.6818C436.042 78.7917 435.83 78.9451 435.682 79.142C435.538 79.339 435.466 79.5625 435.466 79.8125C435.458 80.0208 435.502 80.2027 435.597 80.358C435.695 80.5133 435.83 80.6477 436 80.7614C436.17 80.8712 436.367 80.9678 436.591 81.0511C436.814 81.1307 437.053 81.1989 437.307 81.2557L438.352 81.5057C438.86 81.6193 439.326 81.7708 439.75 81.9602C440.174 82.1496 440.542 82.3826 440.852 82.6591C441.163 82.9356 441.403 83.2614 441.574 83.6364C441.748 84.0114 441.837 84.4413 441.841 84.9261C441.837 85.6383 441.655 86.2557 441.295 86.7784C440.939 87.2973 440.424 87.7008 439.75 87.9886C439.08 88.2727 438.271 88.4148 437.324 88.4148C436.384 88.4148 435.566 88.2708 434.869 87.983C434.176 87.6951 433.634 87.2689 433.244 86.7045C432.858 86.1364 432.655 85.4337 432.636 84.5966H435.017C435.044 84.9867 435.155 85.3125 435.352 85.5739C435.553 85.8314 435.82 86.0265 436.153 86.1591C436.491 86.2879 436.871 86.3523 437.295 86.3523C437.712 86.3523 438.074 86.2917 438.381 86.1705C438.691 86.0492 438.932 85.8807 439.102 85.6648C439.273 85.4489 439.358 85.2008 439.358 84.9205C439.358 84.6591 439.28 84.4394 439.125 84.2614C438.973 84.0833 438.75 83.9318 438.455 83.8068C438.163 83.6818 437.805 83.5682 437.381 83.4659L436.114 83.1477C435.133 82.9091 434.358 82.536 433.79 82.0284C433.222 81.5208 432.939 80.8371 432.943 79.9773C432.939 79.2727 433.127 78.6572 433.506 78.1307C433.888 77.6042 434.413 77.1932 435.08 76.8977C435.746 76.6023 436.504 76.4545 437.352 76.4545C438.216 76.4545 438.97 76.6023 439.614 76.8977C440.261 77.1932 440.765 77.6042 441.125 78.1307C441.485 78.6572 441.67 79.267 441.682 79.9602H439.324ZM447.428 88.4205C446.53 88.4205 445.757 88.2386 445.109 87.875C444.465 87.5076 443.969 86.9886 443.621 86.3182C443.272 85.6439 443.098 84.8466 443.098 83.9261C443.098 83.0284 443.272 82.2405 443.621 81.5625C443.969 80.8845 444.46 80.3561 445.092 79.9773C445.729 79.5985 446.475 79.4091 447.331 79.4091C447.907 79.4091 448.443 79.5019 448.939 79.6875C449.439 79.8693 449.875 80.1439 450.246 80.5114C450.621 80.8788 450.912 81.3409 451.121 81.8977C451.329 82.4508 451.433 83.0985 451.433 83.8409V84.5057H444.064V83.0057H449.155C449.155 82.6572 449.079 82.3485 448.928 82.0795C448.776 81.8106 448.566 81.6004 448.297 81.4489C448.032 81.2936 447.723 81.2159 447.371 81.2159C447.003 81.2159 446.678 81.3011 446.393 81.4716C446.113 81.6383 445.893 81.8636 445.734 82.1477C445.575 82.428 445.494 82.7405 445.49 83.0852V84.5114C445.49 84.9432 445.57 85.3163 445.729 85.6307C445.892 85.9451 446.121 86.1875 446.416 86.358C446.712 86.5284 447.062 86.6136 447.467 86.6136C447.736 86.6136 447.982 86.5758 448.206 86.5C448.429 86.4242 448.621 86.3106 448.78 86.1591C448.939 86.0076 449.06 85.822 449.143 85.6023L451.382 85.75C451.268 86.2879 451.036 86.7576 450.683 87.1591C450.335 87.5568 449.884 87.8674 449.331 88.0909C448.782 88.3106 448.147 88.4205 447.428 88.4205ZM455.433 76.6136V88.25H453.013V76.6136H455.433ZM461.349 88.4205C460.452 88.4205 459.679 88.2386 459.031 87.875C458.387 87.5076 457.891 86.9886 457.543 86.3182C457.194 85.6439 457.02 84.8466 457.02 83.9261C457.02 83.0284 457.194 82.2405 457.543 81.5625C457.891 80.8845 458.382 80.3561 459.014 79.9773C459.651 79.5985 460.397 79.4091 461.253 79.4091C461.829 79.4091 462.365 79.5019 462.861 79.6875C463.361 79.8693 463.796 80.1439 464.168 80.5114C464.543 80.8788 464.834 81.3409 465.043 81.8977C465.251 82.4508 465.355 83.0985 465.355 83.8409V84.5057H457.986V83.0057H463.077C463.077 82.6572 463.001 82.3485 462.849 82.0795C462.698 81.8106 462.488 81.6004 462.219 81.4489C461.954 81.2936 461.645 81.2159 461.293 81.2159C460.925 81.2159 460.599 81.3011 460.315 81.4716C460.035 81.6383 459.815 81.8636 459.656 82.1477C459.497 82.428 459.416 82.7405 459.412 83.0852V84.5114C459.412 84.9432 459.491 85.3163 459.651 85.6307C459.813 85.9451 460.043 86.1875 460.338 86.358C460.634 86.5284 460.984 86.6136 461.389 86.6136C461.658 86.6136 461.904 86.5758 462.128 86.5C462.351 86.4242 462.543 86.3106 462.702 86.1591C462.861 86.0076 462.982 85.822 463.065 85.6023L465.304 85.75C465.19 86.2879 464.957 86.7576 464.605 87.1591C464.257 87.5568 463.806 87.8674 463.253 88.0909C462.704 88.3106 462.069 88.4205 461.349 88.4205ZM470.878 88.4205C469.984 88.4205 469.215 88.2311 468.571 87.8523C467.931 87.4697 467.438 86.9394 467.094 86.2614C466.753 85.5833 466.582 84.803 466.582 83.9205C466.582 83.0265 466.755 82.2424 467.099 81.5682C467.448 80.8902 467.942 80.3617 468.582 79.983C469.223 79.6004 469.984 79.4091 470.866 79.4091C471.628 79.4091 472.295 79.5473 472.866 79.8239C473.438 80.1004 473.891 80.4886 474.224 80.9886C474.558 81.4886 474.741 82.0758 474.776 82.75H472.491C472.427 82.3144 472.257 81.964 471.98 81.6989C471.707 81.4299 471.349 81.2955 470.906 81.2955C470.531 81.2955 470.204 81.3977 469.923 81.6023C469.647 81.803 469.431 82.0966 469.276 82.483C469.12 82.8693 469.043 83.3371 469.043 83.8864C469.043 84.4432 469.118 84.9167 469.27 85.3068C469.425 85.697 469.643 85.9943 469.923 86.1989C470.204 86.4034 470.531 86.5057 470.906 86.5057C471.183 86.5057 471.431 86.4489 471.651 86.3352C471.874 86.2216 472.058 86.0568 472.202 85.8409C472.349 85.6212 472.446 85.358 472.491 85.0511H474.776C474.738 85.7178 474.556 86.3049 474.23 86.8125C473.908 87.3163 473.463 87.7102 472.895 87.9943C472.327 88.2784 471.654 88.4205 470.878 88.4205ZM480.967 79.5227V81.3409H475.712V79.5227H480.967ZM476.905 77.4318H479.325V85.5682C479.325 85.7917 479.359 85.9659 479.428 86.0909C479.496 86.2121 479.59 86.2973 479.712 86.3466C479.837 86.3958 479.981 86.4205 480.143 86.4205C480.257 86.4205 480.371 86.411 480.484 86.392C480.598 86.3693 480.685 86.3523 480.746 86.3409L481.126 88.142C481.005 88.1799 480.835 88.2235 480.615 88.2727C480.395 88.3258 480.128 88.358 479.814 88.3693C479.231 88.392 478.719 88.3144 478.28 88.1364C477.844 87.9583 477.505 87.6818 477.263 87.3068C477.02 86.9318 476.901 86.4583 476.905 85.8864V77.4318ZM487.741 91.5057C487.435 91.5057 487.147 91.4811 486.878 91.4318C486.613 91.3864 486.393 91.3295 486.219 91.2614L486.764 89.4489C487.192 89.5814 487.552 89.6155 487.844 89.5511C488.139 89.4905 488.372 89.2633 488.543 88.8693L488.685 88.5L485.554 79.5227H488.099L489.906 85.9318H489.997L491.821 79.5227L494.384 79.5341L490.991 89.1932C490.829 89.6591 490.607 90.0644 490.327 90.4091C490.05 90.7576 489.7 91.0265 489.276 91.2159C488.851 91.4091 488.34 91.5057 487.741 91.5057ZM499.284 88.4205C498.402 88.4205 497.638 88.233 496.994 87.858C496.354 87.4792 495.86 86.9527 495.511 86.2784C495.163 85.6004 494.989 84.8144 494.989 83.9205C494.989 83.0189 495.163 82.2311 495.511 81.5568C495.86 80.8788 496.354 80.3523 496.994 79.9773C497.638 79.5985 498.402 79.4091 499.284 79.4091C500.167 79.4091 500.928 79.5985 501.568 79.9773C502.212 80.3523 502.708 80.8788 503.057 81.5568C503.405 82.2311 503.58 83.0189 503.58 83.9205C503.58 84.8144 503.405 85.6004 503.057 86.2784C502.708 86.9527 502.212 87.4792 501.568 87.858C500.928 88.233 500.167 88.4205 499.284 88.4205ZM499.295 86.5455C499.697 86.5455 500.032 86.4318 500.301 86.2045C500.57 85.9735 500.773 85.6591 500.909 85.2614C501.049 84.8636 501.119 84.411 501.119 83.9034C501.119 83.3958 501.049 82.9432 500.909 82.5455C500.773 82.1477 500.57 81.8333 500.301 81.6023C500.032 81.3712 499.697 81.2557 499.295 81.2557C498.89 81.2557 498.549 81.3712 498.273 81.6023C498 81.8333 497.794 82.1477 497.653 82.5455C497.517 82.9432 497.449 83.3958 497.449 83.9034C497.449 84.411 497.517 84.8636 497.653 85.2614C497.794 85.6591 498 85.9735 498.273 86.2045C498.549 86.4318 498.89 86.5455 499.295 86.5455ZM510.75 84.5341V79.5227H513.17V88.25H510.847V86.6648H510.756C510.559 87.1761 510.231 87.5871 509.773 87.8977C509.318 88.2083 508.763 88.3636 508.108 88.3636C507.525 88.3636 507.011 88.2311 506.568 87.9659C506.125 87.7008 505.778 87.3239 505.528 86.8352C505.282 86.3466 505.157 85.7614 505.153 85.0795V79.5227H507.574V84.6477C507.578 85.1629 507.716 85.5701 507.989 85.8693C508.261 86.1686 508.627 86.3182 509.085 86.3182C509.377 86.3182 509.65 86.2519 509.903 86.1193C510.157 85.983 510.362 85.7822 510.517 85.517C510.676 85.2519 510.754 84.9242 510.75 84.5341ZM515.107 88.25V79.5227H517.453V81.0455H517.544C517.703 80.5038 517.97 80.0947 518.345 79.8182C518.72 79.5379 519.152 79.3977 519.641 79.3977C519.762 79.3977 519.893 79.4053 520.033 79.4205C520.173 79.4356 520.296 79.4564 520.402 79.483V81.6307C520.288 81.5966 520.131 81.5663 519.93 81.5398C519.73 81.5133 519.546 81.5 519.379 81.5C519.023 81.5 518.705 81.5777 518.425 81.733C518.148 81.8845 517.929 82.0966 517.766 82.3693C517.607 82.642 517.527 82.9564 517.527 83.3125V88.25H515.107ZM530.05 79.5227V81.3409H524.663V79.5227H530.05ZM525.896 88.25V78.892C525.896 78.2595 526.019 77.7348 526.266 77.3182C526.516 76.9015 526.857 76.589 527.288 76.3807C527.72 76.1723 528.211 76.0682 528.76 76.0682C529.131 76.0682 529.47 76.0966 529.777 76.1534C530.088 76.2102 530.319 76.2614 530.47 76.3068L530.038 78.125C529.944 78.0947 529.826 78.0663 529.686 78.0398C529.55 78.0133 529.41 78 529.266 78C528.91 78 528.661 78.0833 528.521 78.25C528.381 78.4129 528.311 78.642 528.311 78.9375V88.25H525.896ZM533.705 88.4148C533.148 88.4148 532.652 88.3182 532.216 88.125C531.78 87.928 531.436 87.6383 531.182 87.2557C530.932 86.8693 530.807 86.3883 530.807 85.8125C530.807 85.3277 530.896 84.9205 531.074 84.5909C531.252 84.2614 531.494 83.9962 531.801 83.7955C532.108 83.5947 532.456 83.4432 532.847 83.3409C533.241 83.2386 533.653 83.1667 534.085 83.125C534.593 83.072 535.002 83.0227 535.312 82.9773C535.623 82.928 535.848 82.8561 535.989 82.7614C536.129 82.6667 536.199 82.5265 536.199 82.3409V82.3068C536.199 81.947 536.085 81.6686 535.858 81.4716C535.634 81.2746 535.316 81.1761 534.903 81.1761C534.468 81.1761 534.121 81.2727 533.864 81.4659C533.606 81.6553 533.436 81.8939 533.352 82.1818L531.114 82C531.227 81.4697 531.451 81.0114 531.784 80.625C532.117 80.2348 532.547 79.9356 533.074 79.7273C533.604 79.5152 534.218 79.4091 534.915 79.4091C535.4 79.4091 535.864 79.4659 536.307 79.5795C536.754 79.6932 537.15 79.8693 537.494 80.108C537.843 80.3466 538.117 80.6534 538.318 81.0284C538.519 81.3996 538.619 81.8447 538.619 82.3636V88.25H536.324V87.0398H536.256C536.116 87.3125 535.928 87.553 535.693 87.7614C535.458 87.9659 535.176 88.1269 534.847 88.2443C534.517 88.358 534.136 88.4148 533.705 88.4148ZM534.398 86.7443C534.754 86.7443 535.068 86.6742 535.341 86.5341C535.614 86.3902 535.828 86.197 535.983 85.9545C536.138 85.7121 536.216 85.4375 536.216 85.1307V84.2045C536.14 84.2538 536.036 84.2992 535.903 84.3409C535.775 84.3788 535.629 84.4148 535.466 84.4489C535.303 84.4792 535.14 84.5076 534.977 84.5341C534.814 84.5568 534.667 84.5777 534.534 84.5966C534.25 84.6383 534.002 84.7045 533.79 84.7955C533.578 84.8864 533.413 85.0095 533.295 85.1648C533.178 85.3163 533.119 85.5057 533.119 85.733C533.119 86.0625 533.239 86.3144 533.477 86.4886C533.72 86.6591 534.027 86.7443 534.398 86.7443ZM548.321 79.5227L545.27 88.25H542.543L539.491 79.5227H542.048L543.861 85.767H543.952L545.759 79.5227H548.321ZM553.222 88.4205C552.339 88.4205 551.576 88.233 550.932 87.858C550.292 87.4792 549.797 86.9527 549.449 86.2784C549.1 85.6004 548.926 84.8144 548.926 83.9205C548.926 83.0189 549.1 82.2311 549.449 81.5568C549.797 80.8788 550.292 80.3523 550.932 79.9773C551.576 79.5985 552.339 79.4091 553.222 79.4091C554.104 79.4091 554.866 79.5985 555.506 79.9773C556.15 80.3523 556.646 80.8788 556.994 81.5568C557.343 82.2311 557.517 83.0189 557.517 83.9205C557.517 84.8144 557.343 85.6004 556.994 86.2784C556.646 86.9527 556.15 87.4792 555.506 87.858C554.866 88.233 554.104 88.4205 553.222 88.4205ZM553.233 86.5455C553.634 86.5455 553.97 86.4318 554.239 86.2045C554.508 85.9735 554.71 85.6591 554.847 85.2614C554.987 84.8636 555.057 84.411 555.057 83.9034C555.057 83.3958 554.987 82.9432 554.847 82.5455C554.71 82.1477 554.508 81.8333 554.239 81.6023C553.97 81.3712 553.634 81.2557 553.233 81.2557C552.828 81.2557 552.487 81.3712 552.21 81.6023C551.938 81.8333 551.731 82.1477 551.591 82.5455C551.455 82.9432 551.386 83.3958 551.386 83.9034C551.386 84.411 551.455 84.8636 551.591 85.2614C551.731 85.6591 551.938 85.9735 552.21 86.2045C552.487 86.4318 552.828 86.5455 553.233 86.5455ZM559.091 88.25V79.5227H561.438V81.0455H561.528C561.688 80.5038 561.955 80.0947 562.33 79.8182C562.705 79.5379 563.136 79.3977 563.625 79.3977C563.746 79.3977 563.877 79.4053 564.017 79.4205C564.157 79.4356 564.28 79.4564 564.386 79.483V81.6307C564.273 81.5966 564.116 81.5663 563.915 81.5398C563.714 81.5133 563.53 81.5 563.364 81.5C563.008 81.5 562.689 81.5777 562.409 81.733C562.133 81.8845 561.913 82.0966 561.75 82.3693C561.591 82.642 561.511 82.9564 561.511 83.3125V88.25H559.091ZM565.638 88.25V79.5227H568.058V88.25H565.638ZM566.859 78.3977C566.5 78.3977 566.191 78.2784 565.933 78.0398C565.676 77.7973 565.547 77.5076 565.547 77.1705C565.547 76.8371 565.676 76.5511 565.933 76.3125C566.191 76.0701 566.498 75.9489 566.854 75.9489C567.217 75.9489 567.526 76.0701 567.78 76.3125C568.037 76.5511 568.166 76.8371 568.166 77.1705C568.166 77.5076 568.037 77.7973 567.78 78.0398C567.526 78.2784 567.219 78.3977 566.859 78.3977ZM574.639 79.5227V81.3409H569.384V79.5227H574.639ZM570.577 77.4318H572.997V85.5682C572.997 85.7917 573.031 85.9659 573.099 86.0909C573.168 86.2121 573.262 86.2973 573.384 86.3466C573.509 86.3958 573.652 86.4205 573.815 86.4205C573.929 86.4205 574.043 86.411 574.156 86.392C574.27 86.3693 574.357 86.3523 574.418 86.3409L574.798 88.142C574.677 88.1799 574.507 88.2235 574.287 88.2727C574.067 88.3258 573.8 88.358 573.486 88.3693C572.902 88.392 572.391 88.3144 571.952 88.1364C571.516 87.9583 571.177 87.6818 570.935 87.3068C570.692 86.9318 570.573 86.4583 570.577 85.8864V77.4318ZM580.099 88.4205C579.202 88.4205 578.429 88.2386 577.781 87.875C577.137 87.5076 576.641 86.9886 576.293 86.3182C575.944 85.6439 575.77 84.8466 575.77 83.9261C575.77 83.0284 575.944 82.2405 576.293 81.5625C576.641 80.8845 577.132 80.3561 577.764 79.9773C578.401 79.5985 579.147 79.4091 580.003 79.4091C580.579 79.4091 581.115 79.5019 581.611 79.6875C582.111 79.8693 582.546 80.1439 582.918 80.5114C583.293 80.8788 583.584 81.3409 583.793 81.8977C584.001 82.4508 584.105 83.0985 584.105 83.8409V84.5057H576.736V83.0057H581.827C581.827 82.6572 581.751 82.3485 581.599 82.0795C581.448 81.8106 581.238 81.6004 580.969 81.4489C580.704 81.2936 580.395 81.2159 580.043 81.2159C579.675 81.2159 579.349 81.3011 579.065 81.4716C578.785 81.6383 578.565 81.8636 578.406 82.1477C578.247 82.428 578.166 82.7405 578.162 83.0852V84.5114C578.162 84.9432 578.241 85.3163 578.401 85.6307C578.563 85.9451 578.793 86.1875 579.088 86.358C579.384 86.5284 579.734 86.6136 580.139 86.6136C580.408 86.6136 580.654 86.5758 580.878 86.5C581.101 86.4242 581.293 86.3106 581.452 86.1591C581.611 86.0076 581.732 85.822 581.815 85.6023L584.054 85.75C583.94 86.2879 583.707 86.7576 583.355 87.1591C583.007 87.5568 582.556 87.8674 582.003 88.0909C581.454 88.3106 580.819 88.4205 580.099 88.4205ZM589.433 76.6136H592.467L595.672 84.4318H595.808L599.013 76.6136H602.047V88.25H599.661V80.6761H599.564L596.553 88.1932H594.928L591.916 80.6477H591.82V88.25H589.433V76.6136ZM606.517 88.4148C605.96 88.4148 605.464 88.3182 605.028 88.125C604.593 87.928 604.248 87.6383 603.994 87.2557C603.744 86.8693 603.619 86.3883 603.619 85.8125C603.619 85.3277 603.708 84.9205 603.886 84.5909C604.064 84.2614 604.307 83.9962 604.614 83.7955C604.92 83.5947 605.269 83.4432 605.659 83.3409C606.053 83.2386 606.466 83.1667 606.898 83.125C607.405 83.072 607.814 83.0227 608.125 82.9773C608.436 82.928 608.661 82.8561 608.801 82.7614C608.941 82.6667 609.011 82.5265 609.011 82.3409V82.3068C609.011 81.947 608.898 81.6686 608.67 81.4716C608.447 81.2746 608.129 81.1761 607.716 81.1761C607.28 81.1761 606.934 81.2727 606.676 81.4659C606.419 81.6553 606.248 81.8939 606.165 82.1818L603.926 82C604.04 81.4697 604.263 81.0114 604.597 80.625C604.93 80.2348 605.36 79.9356 605.886 79.7273C606.417 79.5152 607.03 79.4091 607.727 79.4091C608.212 79.4091 608.676 79.4659 609.119 79.5795C609.566 79.6932 609.962 79.8693 610.307 80.108C610.655 80.3466 610.93 80.6534 611.131 81.0284C611.331 81.3996 611.432 81.8447 611.432 82.3636V88.25H609.136V87.0398H609.068C608.928 87.3125 608.741 87.553 608.506 87.7614C608.271 87.9659 607.989 88.1269 607.659 88.2443C607.33 88.358 606.949 88.4148 606.517 88.4148ZM607.21 86.7443C607.566 86.7443 607.881 86.6742 608.153 86.5341C608.426 86.3902 608.64 86.197 608.795 85.9545C608.951 85.7121 609.028 85.4375 609.028 85.1307V84.2045C608.953 84.2538 608.848 84.2992 608.716 84.3409C608.587 84.3788 608.441 84.4148 608.278 84.4489C608.116 84.4792 607.953 84.5076 607.79 84.5341C607.627 84.5568 607.479 84.5777 607.347 84.5966C607.063 84.6383 606.814 84.7045 606.602 84.7955C606.39 84.8864 606.225 85.0095 606.108 85.1648C605.991 85.3163 605.932 85.5057 605.932 85.733C605.932 86.0625 606.051 86.3144 606.29 86.4886C606.532 86.6591 606.839 86.7443 607.21 86.7443ZM613.31 88.25V79.5227H615.656V81.0455H615.747C615.906 80.5038 616.173 80.0947 616.548 79.8182C616.923 79.5379 617.355 79.3977 617.844 79.3977C617.965 79.3977 618.096 79.4053 618.236 79.4205C618.376 79.4356 618.499 79.4564 618.605 79.483V81.6307C618.491 81.5966 618.334 81.5663 618.134 81.5398C617.933 81.5133 617.749 81.5 617.582 81.5C617.226 81.5 616.908 81.5777 616.628 81.733C616.351 81.8845 616.132 82.0966 615.969 82.3693C615.81 82.642 615.73 82.9564 615.73 83.3125V88.25H613.31ZM628.259 79.5227L625.207 88.25H622.48L619.429 79.5227H621.986L623.798 85.767H623.889L625.696 79.5227H628.259ZM633.193 88.4205C632.295 88.4205 631.523 88.2386 630.875 87.875C630.231 87.5076 629.735 86.9886 629.386 86.3182C629.038 85.6439 628.864 84.8466 628.864 83.9261C628.864 83.0284 629.038 82.2405 629.386 81.5625C629.735 80.8845 630.225 80.3561 630.858 79.9773C631.494 79.5985 632.241 79.4091 633.097 79.4091C633.672 79.4091 634.208 79.5019 634.705 79.6875C635.205 79.8693 635.64 80.1439 636.011 80.5114C636.386 80.8788 636.678 81.3409 636.886 81.8977C637.095 82.4508 637.199 83.0985 637.199 83.8409V84.5057H629.83V83.0057H634.92C634.92 82.6572 634.845 82.3485 634.693 82.0795C634.542 81.8106 634.331 81.6004 634.062 81.4489C633.797 81.2936 633.489 81.2159 633.136 81.2159C632.769 81.2159 632.443 81.3011 632.159 81.4716C631.879 81.6383 631.659 81.8636 631.5 82.1477C631.341 82.428 631.259 82.7405 631.256 83.0852V84.5114C631.256 84.9432 631.335 85.3163 631.494 85.6307C631.657 85.9451 631.886 86.1875 632.182 86.358C632.477 86.5284 632.828 86.6136 633.233 86.6136C633.502 86.6136 633.748 86.5758 633.972 86.5C634.195 86.4242 634.386 86.3106 634.545 86.1591C634.705 86.0076 634.826 85.822 634.909 85.6023L637.148 85.75C637.034 86.2879 636.801 86.7576 636.449 87.1591C636.1 87.5568 635.65 87.8674 635.097 88.0909C634.547 88.3106 633.913 88.4205 633.193 88.4205ZM641.199 76.6136V88.25H638.778V76.6136H641.199ZM650.784 88.4205C649.89 88.4205 649.121 88.2311 648.477 87.8523C647.837 87.4697 647.345 86.9394 647 86.2614C646.659 85.5833 646.489 84.803 646.489 83.9205C646.489 83.0265 646.661 82.2424 647.006 81.5682C647.354 80.8902 647.848 80.3617 648.489 79.983C649.129 79.6004 649.89 79.4091 650.773 79.4091C651.534 79.4091 652.201 79.5473 652.773 79.8239C653.345 80.1004 653.797 80.4886 654.131 80.9886C654.464 81.4886 654.648 82.0758 654.682 82.75H652.398C652.333 82.3144 652.163 81.964 651.886 81.6989C651.614 81.4299 651.256 81.2955 650.812 81.2955C650.438 81.2955 650.11 81.3977 649.83 81.6023C649.553 81.803 649.337 82.0966 649.182 82.483C649.027 82.8693 648.949 83.3371 648.949 83.8864C648.949 84.4432 649.025 84.9167 649.176 85.3068C649.331 85.697 649.549 85.9943 649.83 86.1989C650.11 86.4034 650.438 86.5057 650.812 86.5057C651.089 86.5057 651.337 86.4489 651.557 86.3352C651.78 86.2216 651.964 86.0568 652.108 85.8409C652.256 85.6212 652.352 85.358 652.398 85.0511H654.682C654.644 85.7178 654.462 86.3049 654.136 86.8125C653.814 87.3163 653.369 87.7102 652.801 87.9943C652.233 88.2784 651.561 88.4205 650.784 88.4205ZM658.652 83.2045V88.25H656.232V76.6136H658.584V81.0625H658.686C658.883 80.5473 659.201 80.1439 659.641 79.8523C660.08 79.5568 660.631 79.4091 661.294 79.4091C661.9 79.4091 662.429 79.5417 662.879 79.8068C663.334 80.0682 663.686 80.4451 663.936 80.9375C664.19 81.4261 664.315 82.0114 664.311 82.6932V88.25H661.891V83.125C661.894 82.5871 661.758 82.1686 661.482 81.8693C661.209 81.5701 660.826 81.4205 660.334 81.4205C660.004 81.4205 659.713 81.4905 659.459 81.6307C659.209 81.7708 659.012 81.9754 658.868 82.2443C658.728 82.5095 658.656 82.8295 658.652 83.2045ZM668.705 88.4148C668.148 88.4148 667.652 88.3182 667.216 88.125C666.78 87.928 666.436 87.6383 666.182 87.2557C665.932 86.8693 665.807 86.3883 665.807 85.8125C665.807 85.3277 665.896 84.9205 666.074 84.5909C666.252 84.2614 666.494 83.9962 666.801 83.7955C667.108 83.5947 667.456 83.4432 667.847 83.3409C668.241 83.2386 668.653 83.1667 669.085 83.125C669.593 83.072 670.002 83.0227 670.312 82.9773C670.623 82.928 670.848 82.8561 670.989 82.7614C671.129 82.6667 671.199 82.5265 671.199 82.3409V82.3068C671.199 81.947 671.085 81.6686 670.858 81.4716C670.634 81.2746 670.316 81.1761 669.903 81.1761C669.468 81.1761 669.121 81.2727 668.864 81.4659C668.606 81.6553 668.436 81.8939 668.352 82.1818L666.114 82C666.227 81.4697 666.451 81.0114 666.784 80.625C667.117 80.2348 667.547 79.9356 668.074 79.7273C668.604 79.5152 669.218 79.4091 669.915 79.4091C670.4 79.4091 670.864 79.4659 671.307 79.5795C671.754 79.6932 672.15 79.8693 672.494 80.108C672.843 80.3466 673.117 80.6534 673.318 81.0284C673.519 81.3996 673.619 81.8447 673.619 82.3636V88.25H671.324V87.0398H671.256C671.116 87.3125 670.928 87.553 670.693 87.7614C670.458 87.9659 670.176 88.1269 669.847 88.2443C669.517 88.358 669.136 88.4148 668.705 88.4148ZM669.398 86.7443C669.754 86.7443 670.068 86.6742 670.341 86.5341C670.614 86.3902 670.828 86.197 670.983 85.9545C671.138 85.7121 671.216 85.4375 671.216 85.1307V84.2045C671.14 84.2538 671.036 84.2992 670.903 84.3409C670.775 84.3788 670.629 84.4148 670.466 84.4489C670.303 84.4792 670.14 84.5076 669.977 84.5341C669.814 84.5568 669.667 84.5777 669.534 84.5966C669.25 84.6383 669.002 84.7045 668.79 84.7955C668.578 84.8864 668.413 85.0095 668.295 85.1648C668.178 85.3163 668.119 85.5057 668.119 85.733C668.119 86.0625 668.239 86.3144 668.477 86.4886C668.72 86.6591 669.027 86.7443 669.398 86.7443ZM675.497 88.25V79.5227H677.844V81.0455H677.935C678.094 80.5038 678.361 80.0947 678.736 79.8182C679.111 79.5379 679.543 79.3977 680.031 79.3977C680.152 79.3977 680.283 79.4053 680.423 79.4205C680.563 79.4356 680.687 79.4564 680.793 79.483V81.6307C680.679 81.5966 680.522 81.5663 680.321 81.5398C680.12 81.5133 679.937 81.5 679.77 81.5C679.414 81.5 679.096 81.5777 678.815 81.733C678.539 81.8845 678.319 82.0966 678.156 82.3693C677.997 82.642 677.918 82.9564 677.918 83.3125V88.25H675.497ZM684.283 88.4148C683.726 88.4148 683.23 88.3182 682.794 88.125C682.358 87.928 682.014 87.6383 681.76 87.2557C681.51 86.8693 681.385 86.3883 681.385 85.8125C681.385 85.3277 681.474 84.9205 681.652 84.5909C681.83 84.2614 682.072 83.9962 682.379 83.7955C682.686 83.5947 683.035 83.4432 683.425 83.3409C683.819 83.2386 684.232 83.1667 684.663 83.125C685.171 83.072 685.58 83.0227 685.891 82.9773C686.201 82.928 686.427 82.8561 686.567 82.7614C686.707 82.6667 686.777 82.5265 686.777 82.3409V82.3068C686.777 81.947 686.663 81.6686 686.436 81.4716C686.213 81.2746 685.894 81.1761 685.482 81.1761C685.046 81.1761 684.699 81.2727 684.442 81.4659C684.184 81.6553 684.014 81.8939 683.93 82.1818L681.692 82C681.805 81.4697 682.029 81.0114 682.362 80.625C682.696 80.2348 683.125 79.9356 683.652 79.7273C684.182 79.5152 684.796 79.4091 685.493 79.4091C685.978 79.4091 686.442 79.4659 686.885 79.5795C687.332 79.6932 687.728 79.8693 688.072 80.108C688.421 80.3466 688.696 80.6534 688.896 81.0284C689.097 81.3996 689.197 81.8447 689.197 82.3636V88.25H686.902V87.0398H686.834C686.694 87.3125 686.506 87.553 686.271 87.7614C686.036 87.9659 685.754 88.1269 685.425 88.2443C685.095 88.358 684.714 88.4148 684.283 88.4148ZM684.976 86.7443C685.332 86.7443 685.646 86.6742 685.919 86.5341C686.192 86.3902 686.406 86.197 686.561 85.9545C686.716 85.7121 686.794 85.4375 686.794 85.1307V84.2045C686.718 84.2538 686.614 84.2992 686.482 84.3409C686.353 84.3788 686.207 84.4148 686.044 84.4489C685.881 84.4792 685.718 84.5076 685.555 84.5341C685.393 84.5568 685.245 84.5777 685.112 84.5966C684.828 84.6383 684.58 84.7045 684.368 84.7955C684.156 84.8864 683.991 85.0095 683.874 85.1648C683.756 85.3163 683.697 85.5057 683.697 85.733C683.697 86.0625 683.817 86.3144 684.055 86.4886C684.298 86.6591 684.605 86.7443 684.976 86.7443ZM695.018 88.4205C694.125 88.4205 693.356 88.2311 692.712 87.8523C692.071 87.4697 691.579 86.9394 691.234 86.2614C690.893 85.5833 690.723 84.803 690.723 83.9205C690.723 83.0265 690.895 82.2424 691.24 81.5682C691.589 80.8902 692.083 80.3617 692.723 79.983C693.363 79.6004 694.125 79.4091 695.007 79.4091C695.768 79.4091 696.435 79.5473 697.007 79.8239C697.579 80.1004 698.032 80.4886 698.365 80.9886C698.698 81.4886 698.882 82.0758 698.916 82.75H696.632C696.568 82.3144 696.397 81.964 696.121 81.6989C695.848 81.4299 695.49 81.2955 695.047 81.2955C694.672 81.2955 694.344 81.3977 694.064 81.6023C693.787 81.803 693.571 82.0966 693.416 82.483C693.261 82.8693 693.183 83.3371 693.183 83.8864C693.183 84.4432 693.259 84.9167 693.411 85.3068C693.566 85.697 693.784 85.9943 694.064 86.1989C694.344 86.4034 694.672 86.5057 695.047 86.5057C695.323 86.5057 695.571 86.4489 695.791 86.3352C696.015 86.2216 696.198 86.0568 696.342 85.8409C696.49 85.6212 696.587 85.358 696.632 85.0511H698.916C698.878 85.7178 698.696 86.3049 698.371 86.8125C698.049 87.3163 697.604 87.7102 697.036 87.9943C696.467 88.2784 695.795 88.4205 695.018 88.4205ZM705.108 79.5227V81.3409H699.852V79.5227H705.108ZM701.045 77.4318H703.466V85.5682C703.466 85.7917 703.5 85.9659 703.568 86.0909C703.636 86.2121 703.731 86.2973 703.852 86.3466C703.977 86.3958 704.121 86.4205 704.284 86.4205C704.398 86.4205 704.511 86.411 704.625 86.392C704.739 86.3693 704.826 86.3523 704.886 86.3409L705.267 88.142C705.146 88.1799 704.975 88.2235 704.756 88.2727C704.536 88.3258 704.269 88.358 703.955 88.3693C703.371 88.392 702.86 88.3144 702.42 88.1364C701.985 87.9583 701.646 87.6818 701.403 87.3068C701.161 86.9318 701.042 86.4583 701.045 85.8864V77.4318ZM710.568 88.4205C709.67 88.4205 708.898 88.2386 708.25 87.875C707.606 87.5076 707.11 86.9886 706.761 86.3182C706.413 85.6439 706.239 84.8466 706.239 83.9261C706.239 83.0284 706.413 82.2405 706.761 81.5625C707.11 80.8845 707.6 80.3561 708.233 79.9773C708.869 79.5985 709.616 79.4091 710.472 79.4091C711.047 79.4091 711.583 79.5019 712.08 79.6875C712.58 79.8693 713.015 80.1439 713.386 80.5114C713.761 80.8788 714.053 81.3409 714.261 81.8977C714.47 82.4508 714.574 83.0985 714.574 83.8409V84.5057H707.205V83.0057H712.295C712.295 82.6572 712.22 82.3485 712.068 82.0795C711.917 81.8106 711.706 81.6004 711.438 81.4489C711.172 81.2936 710.864 81.2159 710.511 81.2159C710.144 81.2159 709.818 81.3011 709.534 81.4716C709.254 81.6383 709.034 81.8636 708.875 82.1477C708.716 82.428 708.634 82.7405 708.631 83.0852V84.5114C708.631 84.9432 708.71 85.3163 708.869 85.6307C709.032 85.9451 709.261 86.1875 709.557 86.358C709.852 86.5284 710.203 86.6136 710.608 86.6136C710.877 86.6136 711.123 86.5758 711.347 86.5C711.57 86.4242 711.761 86.3106 711.92 86.1591C712.08 86.0076 712.201 85.822 712.284 85.6023L714.523 85.75C714.409 86.2879 714.176 86.7576 713.824 87.1591C713.475 87.5568 713.025 87.8674 712.472 88.0909C711.922 88.3106 711.288 88.4205 710.568 88.4205ZM716.153 88.25V79.5227H718.5V81.0455H718.591C718.75 80.5038 719.017 80.0947 719.392 79.8182C719.767 79.5379 720.199 79.3977 720.688 79.3977C720.809 79.3977 720.939 79.4053 721.08 79.4205C721.22 79.4356 721.343 79.4564 721.449 79.483V81.6307C721.335 81.5966 721.178 81.5663 720.977 81.5398C720.777 81.5133 720.593 81.5 720.426 81.5C720.07 81.5 719.752 81.5777 719.472 81.733C719.195 81.8845 718.975 82.0966 718.812 82.3693C718.653 82.642 718.574 82.9564 718.574 83.3125V88.25H716.153ZM729.962 82.0114L727.746 82.1477C727.708 81.9583 727.626 81.7879 727.501 81.6364C727.376 81.4811 727.212 81.358 727.007 81.267C726.806 81.1723 726.566 81.125 726.286 81.125C725.911 81.125 725.594 81.2045 725.337 81.3636C725.079 81.5189 724.95 81.7273 724.95 81.9886C724.95 82.197 725.034 82.3731 725.2 82.517C725.367 82.661 725.653 82.7765 726.058 82.8636L727.638 83.1818C728.486 83.3561 729.119 83.6364 729.536 84.0227C729.952 84.4091 730.161 84.9167 730.161 85.5455C730.161 86.1174 729.992 86.6193 729.655 87.0511C729.321 87.483 728.863 87.8201 728.28 88.0625C727.7 88.3011 727.032 88.4205 726.274 88.4205C725.119 88.4205 724.198 88.1799 723.513 87.6989C722.831 87.214 722.431 86.5549 722.314 85.7216L724.695 85.5966C724.767 85.9489 724.941 86.2178 725.217 86.4034C725.494 86.5852 725.848 86.6761 726.28 86.6761C726.704 86.6761 727.045 86.5947 727.303 86.4318C727.564 86.2652 727.696 86.0511 727.7 85.7898C727.696 85.5701 727.604 85.3902 727.422 85.25C727.24 85.1061 726.96 84.9962 726.581 84.9205L725.07 84.6193C724.217 84.4489 723.583 84.1534 723.166 83.733C722.753 83.3125 722.547 82.7765 722.547 82.125C722.547 81.5644 722.698 81.0814 723.001 80.6761C723.308 80.2708 723.738 79.9583 724.291 79.7386C724.848 79.5189 725.5 79.4091 726.246 79.4091C727.348 79.4091 728.215 79.642 728.848 80.108C729.484 80.5739 729.856 81.2083 729.962 82.0114Z" fill="white" fill-opacity="0.95"/>
<rect x="432" y="104.25" width="16" height="16" rx="2" fill="#64B4FA"/>
<path d="M445 112.75H435C434.867 112.75 434.74 112.697 434.646 112.603C434.553 112.51 434.5 112.382 434.5 112.25C434.5 112.117 434.553 111.99 434.646 111.896C434.74 111.803 434.867 111.75 435 111.75H445C445.133 111.75 445.26 111.803 445.354 111.896C445.447 111.99 445.5 112.117 445.5 112.25C445.5 112.382 445.447 112.51 445.354 112.603C445.26 112.697 445.133 112.75 445 112.75Z" fill="black" fill-opacity="0.95"/>
<path d="M457.651 117.25H456.358L460.097 107.068H461.369L465.108 117.25H463.815L460.773 108.679H460.693L457.651 117.25ZM458.128 113.273H463.338V114.366H458.128V113.273ZM467.708 107.068V117.25H466.535V107.068H467.708ZM471.03 107.068V117.25H469.857V107.068H471.03Z" fill="white" fill-opacity="0.95"/>
<rect x="456.5" y="132.75" width="15" height="15" rx="1.5" stroke="white" stroke-opacity="0.5"/>
<path d="M482.466 135.068V145.25H481.233V135.068H482.466ZM484.779 145.25V137.614H485.912V138.767H485.992C486.131 138.389 486.383 138.083 486.748 137.847C487.112 137.612 487.523 137.494 487.981 137.494C488.067 137.494 488.175 137.496 488.304 137.499C488.433 137.503 488.531 137.508 488.597 137.514V138.707C488.557 138.697 488.466 138.683 488.324 138.663C488.184 138.639 488.037 138.628 487.881 138.628C487.51 138.628 487.179 138.706 486.887 138.862C486.599 139.014 486.37 139.226 486.201 139.498C486.035 139.766 485.952 140.073 485.952 140.418V145.25H484.779ZM492.858 145.409C492.168 145.409 491.564 145.245 491.043 144.917C490.526 144.589 490.122 144.13 489.83 143.54C489.542 142.95 489.398 142.26 489.398 141.472C489.398 140.676 489.542 139.982 489.83 139.388C490.122 138.795 490.526 138.335 491.043 138.006C491.564 137.678 492.168 137.514 492.858 137.514C493.547 137.514 494.15 137.678 494.667 138.006C495.188 138.335 495.592 138.795 495.881 139.388C496.172 139.982 496.318 140.676 496.318 141.472C496.318 142.26 496.172 142.95 495.881 143.54C495.592 144.13 495.188 144.589 494.667 144.917C494.15 145.245 493.547 145.409 492.858 145.409ZM492.858 144.355C493.381 144.355 493.812 144.221 494.15 143.952C494.488 143.684 494.739 143.331 494.901 142.893C495.064 142.456 495.145 141.982 495.145 141.472C495.145 140.961 495.064 140.486 494.901 140.045C494.739 139.604 494.488 139.248 494.15 138.976C493.812 138.704 493.381 138.568 492.858 138.568C492.334 138.568 491.903 138.704 491.565 138.976C491.227 139.248 490.977 139.604 490.814 140.045C490.652 140.486 490.571 140.961 490.571 141.472C490.571 141.982 490.652 142.456 490.814 142.893C490.977 143.331 491.227 143.684 491.565 143.952C491.903 144.221 492.334 144.355 492.858 144.355ZM499.282 140.656V145.25H498.109V137.614H499.243V138.807H499.342C499.521 138.419 499.793 138.107 500.157 137.872C500.522 137.634 500.993 137.514 501.569 137.514C502.086 137.514 502.539 137.62 502.926 137.832C503.314 138.041 503.616 138.359 503.831 138.787C504.047 139.211 504.154 139.748 504.154 140.398V145.25H502.981V140.477C502.981 139.877 502.825 139.41 502.514 139.075C502.202 138.737 501.775 138.568 501.231 138.568C500.857 138.568 500.522 138.649 500.227 138.812C499.935 138.974 499.705 139.211 499.536 139.523C499.367 139.834 499.282 140.212 499.282 140.656ZM510.395 135.068H511.867L515.327 143.52H515.446L518.906 135.068H520.378V145.25H519.225V137.514H519.125L515.943 145.25H514.83L511.648 137.514H511.548V145.25H510.395V135.068ZM524.938 145.429C524.454 145.429 524.015 145.338 523.621 145.156C523.226 144.97 522.913 144.703 522.681 144.355C522.449 144.004 522.333 143.58 522.333 143.082C522.333 142.645 522.419 142.29 522.592 142.018C522.764 141.743 522.994 141.528 523.283 141.372C523.571 141.216 523.889 141.1 524.237 141.024C524.589 140.945 524.942 140.882 525.296 140.835C525.76 140.776 526.136 140.731 526.425 140.701C526.716 140.668 526.929 140.613 527.061 140.537C527.197 140.461 527.265 140.328 527.265 140.139V140.099C527.265 139.609 527.131 139.228 526.862 138.956C526.597 138.684 526.194 138.548 525.654 138.548C525.094 138.548 524.655 138.671 524.337 138.916C524.018 139.161 523.795 139.423 523.665 139.702L522.552 139.304C522.751 138.84 523.016 138.479 523.347 138.22C523.682 137.958 524.047 137.776 524.441 137.673C524.839 137.567 525.23 137.514 525.614 137.514C525.86 137.514 526.141 137.544 526.46 137.604C526.781 137.66 527.091 137.778 527.389 137.957C527.691 138.136 527.941 138.406 528.14 138.767C528.339 139.128 528.438 139.612 528.438 140.219V145.25H527.265V144.216H527.205C527.126 144.382 526.993 144.559 526.808 144.748C526.622 144.937 526.375 145.098 526.067 145.23C525.759 145.363 525.382 145.429 524.938 145.429ZM525.117 144.375C525.581 144.375 525.972 144.284 526.29 144.102C526.612 143.919 526.854 143.684 527.016 143.396C527.182 143.107 527.265 142.804 527.265 142.486V141.412C527.215 141.472 527.106 141.526 526.937 141.576C526.771 141.622 526.579 141.664 526.36 141.7C526.145 141.733 525.934 141.763 525.729 141.79C525.527 141.813 525.362 141.833 525.237 141.849C524.932 141.889 524.647 141.954 524.381 142.043C524.12 142.129 523.907 142.26 523.745 142.436C523.586 142.608 523.506 142.844 523.506 143.142C523.506 143.55 523.657 143.858 523.959 144.067C524.264 144.272 524.65 144.375 525.117 144.375ZM531.753 140.656V145.25H530.58V137.614H531.713V138.807H531.813C531.992 138.419 532.263 138.107 532.628 137.872C532.993 137.634 533.463 137.514 534.04 137.514C534.557 137.514 535.009 137.62 535.397 137.832C535.785 138.041 536.087 138.359 536.302 138.787C536.517 139.211 536.625 139.748 536.625 140.398V145.25H535.452V140.477C535.452 139.877 535.296 139.41 534.985 139.075C534.673 138.737 534.245 138.568 533.702 138.568C533.327 138.568 532.993 138.649 532.698 138.812C532.406 138.974 532.176 139.211 532.007 139.523C531.838 139.834 531.753 140.212 531.753 140.656Z" fill="white" fill-opacity="0.95"/>
<rect x="456" y="160.25" width="16" height="16" rx="2" fill="#64B4FA"/>
<path d="M461.6 172.35C461.534 172.35 461.469 172.337 461.408 172.312C461.347 172.286 461.292 172.249 461.246 172.202L457.646 168.585C457.599 168.538 457.563 168.483 457.538 168.422C457.513 168.362 457.5 168.297 457.5 168.231C457.5 168.165 457.514 168.1 457.539 168.04C457.564 167.979 457.601 167.924 457.648 167.878C457.694 167.831 457.749 167.795 457.81 167.77C457.871 167.745 457.936 167.732 458.002 167.732C458.067 167.732 458.132 167.746 458.193 167.771C458.253 167.796 458.308 167.833 458.355 167.88L461.627 171.168L469.675 164.271C469.776 164.185 469.906 164.142 470.039 164.152C470.171 164.162 470.293 164.224 470.38 164.325C470.466 164.426 470.509 164.556 470.498 164.689C470.488 164.821 470.426 164.943 470.325 165.03L461.925 172.229C461.835 172.307 461.72 172.35 461.6 172.35Z" fill="black" fill-opacity="0.95"/>
<path d="M489.426 166.25H488.193C488.12 165.895 487.993 165.584 487.81 165.315C487.631 165.047 487.413 164.821 487.154 164.639C486.899 164.454 486.616 164.314 486.304 164.222C485.992 164.129 485.668 164.082 485.33 164.082C484.713 164.082 484.155 164.238 483.654 164.55C483.157 164.861 482.761 165.32 482.466 165.927C482.174 166.533 482.028 167.277 482.028 168.159C482.028 169.041 482.174 169.785 482.466 170.391C482.761 170.998 483.157 171.457 483.654 171.768C484.155 172.08 484.713 172.236 485.33 172.236C485.668 172.236 485.992 172.189 486.304 172.097C486.616 172.004 486.899 171.866 487.154 171.684C487.413 171.498 487.631 171.271 487.81 171.003C487.993 170.731 488.12 170.42 488.193 170.068H489.426C489.333 170.589 489.164 171.054 488.919 171.465C488.674 171.876 488.369 172.226 488.004 172.514C487.64 172.799 487.23 173.016 486.776 173.165C486.326 173.315 485.843 173.389 485.33 173.389C484.461 173.389 483.689 173.177 483.013 172.753C482.337 172.329 481.805 171.725 481.417 170.943C481.029 170.161 480.835 169.233 480.835 168.159C480.835 167.085 481.029 166.157 481.417 165.375C481.805 164.593 482.337 163.99 483.013 163.565C483.689 163.141 484.461 162.929 485.33 162.929C485.843 162.929 486.326 163.004 486.776 163.153C487.23 163.302 487.64 163.521 488.004 163.809C488.369 164.094 488.674 164.442 488.919 164.853C489.164 165.261 489.333 165.726 489.426 166.25ZM493.507 173.429C493.023 173.429 492.584 173.338 492.189 173.156C491.795 172.97 491.481 172.703 491.249 172.355C491.017 172.004 490.901 171.58 490.901 171.082C490.901 170.645 490.988 170.29 491.16 170.018C491.332 169.743 491.563 169.528 491.851 169.372C492.139 169.216 492.458 169.1 492.806 169.024C493.157 168.945 493.51 168.882 493.865 168.835C494.329 168.776 494.705 168.731 494.993 168.701C495.285 168.668 495.497 168.613 495.629 168.537C495.765 168.461 495.833 168.328 495.833 168.139V168.099C495.833 167.609 495.699 167.228 495.431 166.956C495.165 166.684 494.763 166.548 494.222 166.548C493.662 166.548 493.223 166.671 492.905 166.916C492.587 167.161 492.363 167.423 492.234 167.702L491.12 167.304C491.319 166.84 491.584 166.479 491.916 166.22C492.25 165.958 492.615 165.776 493.009 165.673C493.407 165.567 493.798 165.514 494.183 165.514C494.428 165.514 494.71 165.544 495.028 165.604C495.349 165.66 495.659 165.778 495.958 165.957C496.259 166.136 496.509 166.406 496.708 166.767C496.907 167.128 497.007 167.612 497.007 168.219V173.25H495.833V172.216H495.774C495.694 172.382 495.561 172.559 495.376 172.748C495.19 172.937 494.943 173.098 494.635 173.23C494.327 173.363 493.951 173.429 493.507 173.429ZM493.686 172.375C494.15 172.375 494.541 172.284 494.859 172.102C495.18 171.919 495.422 171.684 495.585 171.396C495.75 171.107 495.833 170.804 495.833 170.486V169.412C495.784 169.472 495.674 169.526 495.505 169.576C495.339 169.622 495.147 169.664 494.928 169.7C494.713 169.733 494.503 169.763 494.297 169.79C494.095 169.813 493.931 169.833 493.805 169.849C493.5 169.889 493.215 169.954 492.95 170.043C492.688 170.129 492.476 170.26 492.313 170.436C492.154 170.608 492.075 170.844 492.075 171.142C492.075 171.55 492.226 171.858 492.527 172.067C492.832 172.272 493.218 172.375 493.686 172.375ZM499.148 176.114V165.614H500.282V166.827H500.421C500.507 166.694 500.626 166.525 500.779 166.32C500.935 166.111 501.157 165.925 501.445 165.763C501.737 165.597 502.131 165.514 502.628 165.514C503.271 165.514 503.838 165.675 504.328 165.996C504.819 166.318 505.202 166.774 505.477 167.364C505.752 167.954 505.89 168.65 505.89 169.452C505.89 170.26 505.752 170.961 505.477 171.555C505.202 172.145 504.821 172.602 504.333 172.927C503.846 173.248 503.284 173.409 502.648 173.409C502.158 173.409 501.765 173.328 501.47 173.165C501.175 173 500.948 172.812 500.789 172.604C500.63 172.392 500.507 172.216 500.421 172.077H500.321V176.114H499.148ZM500.301 169.432C500.301 170.009 500.386 170.517 500.555 170.958C500.724 171.396 500.971 171.739 501.296 171.987C501.621 172.232 502.018 172.355 502.489 172.355C502.98 172.355 503.389 172.226 503.717 171.967C504.048 171.705 504.297 171.354 504.463 170.913C504.632 170.469 504.716 169.975 504.716 169.432C504.716 168.895 504.633 168.411 504.468 167.98C504.305 167.546 504.058 167.203 503.727 166.951C503.399 166.696 502.986 166.568 502.489 166.568C502.012 166.568 501.611 166.689 501.286 166.931C500.961 167.17 500.716 167.504 500.55 167.935C500.384 168.363 500.301 168.862 500.301 169.432ZM511 165.614V166.608H507.043V165.614H511ZM508.196 163.784H509.37V171.062C509.37 171.394 509.418 171.643 509.514 171.808C509.613 171.971 509.739 172.08 509.892 172.136C510.047 172.189 510.212 172.216 510.384 172.216C510.513 172.216 510.619 172.209 510.702 172.196C510.785 172.179 510.851 172.166 510.901 172.156L511.14 173.21C511.06 173.24 510.949 173.27 510.806 173.3C510.664 173.333 510.483 173.349 510.265 173.349C509.933 173.349 509.608 173.278 509.29 173.136C508.975 172.993 508.713 172.776 508.505 172.484C508.299 172.193 508.196 171.825 508.196 171.381V163.784ZM515.012 173.429C514.529 173.429 514.089 173.338 513.695 173.156C513.301 172.97 512.987 172.703 512.755 172.355C512.523 172.004 512.407 171.58 512.407 171.082C512.407 170.645 512.493 170.29 512.666 170.018C512.838 169.743 513.069 169.528 513.357 169.372C513.645 169.216 513.963 169.1 514.311 169.024C514.663 168.945 515.016 168.882 515.37 168.835C515.834 168.776 516.211 168.731 516.499 168.701C516.791 168.668 517.003 168.613 517.135 168.537C517.271 168.461 517.339 168.328 517.339 168.139V168.099C517.339 167.609 517.205 167.228 516.936 166.956C516.671 166.684 516.269 166.548 515.728 166.548C515.168 166.548 514.729 166.671 514.411 166.916C514.093 167.161 513.869 167.423 513.74 167.702L512.626 167.304C512.825 166.84 513.09 166.479 513.422 166.22C513.756 165.958 514.121 165.776 514.515 165.673C514.913 165.567 515.304 165.514 515.689 165.514C515.934 165.514 516.216 165.544 516.534 165.604C516.855 165.66 517.165 165.778 517.463 165.957C517.765 166.136 518.015 166.406 518.214 166.767C518.413 167.128 518.512 167.612 518.512 168.219V173.25H517.339V172.216H517.279C517.2 172.382 517.067 172.559 516.882 172.748C516.696 172.937 516.449 173.098 516.141 173.23C515.833 173.363 515.457 173.429 515.012 173.429ZM515.191 172.375C515.655 172.375 516.047 172.284 516.365 172.102C516.686 171.919 516.928 171.684 517.091 171.396C517.256 171.107 517.339 170.804 517.339 170.486V169.412C517.289 169.472 517.18 169.526 517.011 169.576C516.845 169.622 516.653 169.664 516.434 169.7C516.219 169.733 516.008 169.763 515.803 169.79C515.601 169.813 515.437 169.833 515.311 169.849C515.006 169.889 514.721 169.954 514.456 170.043C514.194 170.129 513.982 170.26 513.819 170.436C513.66 170.608 513.581 170.844 513.581 171.142C513.581 171.55 513.731 171.858 514.033 172.067C514.338 172.272 514.724 172.375 515.191 172.375ZM520.654 173.25V165.614H521.827V173.25H520.654ZM521.251 164.341C521.022 164.341 520.825 164.263 520.659 164.107C520.497 163.951 520.415 163.764 520.415 163.545C520.415 163.327 520.497 163.139 520.659 162.984C520.825 162.828 521.022 162.75 521.251 162.75C521.479 162.75 521.675 162.828 521.837 162.984C522.003 163.139 522.086 163.327 522.086 163.545C522.086 163.764 522.003 163.951 521.837 164.107C521.675 164.263 521.479 164.341 521.251 164.341ZM525.15 168.656V173.25H523.976V165.614H525.11V166.807H525.209C525.388 166.419 525.66 166.107 526.025 165.872C526.389 165.634 526.86 165.514 527.436 165.514C527.953 165.514 528.406 165.62 528.794 165.832C529.181 166.041 529.483 166.359 529.699 166.787C529.914 167.211 530.022 167.748 530.022 168.398V173.25H528.848V168.477C528.848 167.877 528.693 167.41 528.381 167.075C528.069 166.737 527.642 166.568 527.098 166.568C526.724 166.568 526.389 166.649 526.094 166.812C525.802 166.974 525.572 167.211 525.403 167.523C525.234 167.834 525.15 168.212 525.15 168.656ZM536.68 173.25H535.387L539.126 163.068H540.399L544.137 173.25H542.845L539.802 164.679H539.722L536.68 173.25ZM537.157 169.273H542.367V170.366H537.157V169.273ZM545.564 173.25V165.614H546.698V166.807H546.797C546.956 166.399 547.213 166.083 547.568 165.857C547.922 165.629 548.348 165.514 548.845 165.514C549.349 165.514 549.768 165.629 550.103 165.857C550.441 166.083 550.705 166.399 550.894 166.807H550.973C551.169 166.412 551.462 166.099 551.853 165.867C552.244 165.632 552.713 165.514 553.26 165.514C553.943 165.514 554.501 165.728 554.936 166.156C555.37 166.58 555.587 167.241 555.587 168.139V173.25H554.414V168.139C554.414 167.576 554.259 167.173 553.951 166.931C553.643 166.689 553.28 166.568 552.862 166.568C552.325 166.568 551.91 166.731 551.615 167.055C551.32 167.377 551.172 167.785 551.172 168.278V173.25H549.979V168.02C549.979 167.586 549.838 167.236 549.556 166.971C549.275 166.702 548.912 166.568 548.468 166.568C548.163 166.568 547.878 166.649 547.612 166.812C547.351 166.974 547.138 167.2 546.976 167.488C546.817 167.773 546.737 168.103 546.737 168.477V173.25H545.564ZM560.934 173.409C560.198 173.409 559.563 173.247 559.03 172.922C558.499 172.594 558.09 172.136 557.802 171.55C557.517 170.96 557.374 170.274 557.374 169.491C557.374 168.709 557.517 168.02 557.802 167.423C558.09 166.823 558.491 166.356 559.005 166.021C559.522 165.683 560.125 165.514 560.814 165.514C561.212 165.514 561.605 165.58 561.993 165.713C562.381 165.846 562.733 166.061 563.052 166.359C563.37 166.654 563.623 167.045 563.812 167.533C564.001 168.02 564.096 168.62 564.096 169.332V169.83H558.209V168.815H562.903C562.903 168.384 562.816 168 562.644 167.662C562.475 167.324 562.233 167.057 561.918 166.862C561.607 166.666 561.239 166.568 560.814 166.568C560.347 166.568 559.943 166.684 559.601 166.916C559.263 167.145 559.003 167.443 558.821 167.811C558.639 168.179 558.547 168.573 558.547 168.994V169.67C558.547 170.247 558.647 170.736 558.846 171.137C559.048 171.535 559.328 171.838 559.686 172.047C560.044 172.252 560.46 172.355 560.934 172.355C561.242 172.355 561.52 172.312 561.769 172.226C562.021 172.136 562.238 172.004 562.42 171.828C562.603 171.649 562.743 171.427 562.843 171.162L563.976 171.48C563.857 171.865 563.657 172.203 563.375 172.494C563.093 172.783 562.745 173.008 562.331 173.17C561.916 173.33 561.451 173.409 560.934 173.409ZM565.881 173.25V165.614H567.014V166.767H567.094C567.233 166.389 567.485 166.083 567.849 165.847C568.214 165.612 568.625 165.494 569.082 165.494C569.168 165.494 569.276 165.496 569.405 165.499C569.535 165.503 569.632 165.508 569.699 165.514V166.707C569.659 166.697 569.568 166.683 569.425 166.663C569.286 166.639 569.139 166.628 568.983 166.628C568.612 166.628 568.28 166.706 567.988 166.862C567.7 167.014 567.471 167.226 567.302 167.498C567.137 167.766 567.054 168.073 567.054 168.418V173.25H565.881ZM571.089 173.25V165.614H572.263V173.25H571.089ZM571.686 164.341C571.457 164.341 571.26 164.263 571.094 164.107C570.932 163.951 570.851 163.764 570.851 163.545C570.851 163.327 570.932 163.139 571.094 162.984C571.26 162.828 571.457 162.75 571.686 162.75C571.915 162.75 572.11 162.828 572.273 162.984C572.438 163.139 572.521 163.327 572.521 163.545C572.521 163.764 572.438 163.951 572.273 164.107C572.11 164.263 571.915 164.341 571.686 164.341ZM577.514 173.409C576.798 173.409 576.182 173.24 575.665 172.902C575.148 172.564 574.75 172.098 574.471 171.505C574.193 170.912 574.054 170.234 574.054 169.472C574.054 168.696 574.196 168.012 574.481 167.418C574.77 166.822 575.171 166.356 575.684 166.021C576.202 165.683 576.805 165.514 577.494 165.514C578.031 165.514 578.515 165.614 578.946 165.812C579.377 166.011 579.73 166.29 580.005 166.648C580.28 167.006 580.451 167.423 580.517 167.901H579.344C579.254 167.553 579.055 167.244 578.747 166.976C578.442 166.704 578.031 166.568 577.514 166.568C577.057 166.568 576.656 166.687 576.311 166.926C575.97 167.161 575.703 167.495 575.51 167.925C575.322 168.353 575.227 168.855 575.227 169.432C575.227 170.022 575.32 170.536 575.506 170.973C575.694 171.411 575.96 171.75 576.301 171.992C576.646 172.234 577.05 172.355 577.514 172.355C577.819 172.355 578.096 172.302 578.344 172.196C578.593 172.09 578.803 171.938 578.976 171.739C579.148 171.54 579.271 171.301 579.344 171.023H580.517C580.451 171.473 580.287 171.879 580.025 172.241C579.766 172.599 579.423 172.884 578.996 173.096C578.571 173.305 578.077 173.409 577.514 173.409ZM584.479 173.429C583.995 173.429 583.556 173.338 583.162 173.156C582.767 172.97 582.454 172.703 582.222 172.355C581.99 172.004 581.874 171.58 581.874 171.082C581.874 170.645 581.96 170.29 582.133 170.018C582.305 169.743 582.535 169.528 582.824 169.372C583.112 169.216 583.43 169.1 583.778 169.024C584.13 168.945 584.483 168.882 584.837 168.835C585.301 168.776 585.677 168.731 585.966 168.701C586.257 168.668 586.47 168.613 586.602 168.537C586.738 168.461 586.806 168.328 586.806 168.139V168.099C586.806 167.609 586.672 167.228 586.403 166.956C586.138 166.684 585.735 166.548 585.195 166.548C584.635 166.548 584.196 166.671 583.878 166.916C583.559 167.161 583.336 167.423 583.206 167.702L582.093 167.304C582.292 166.84 582.557 166.479 582.888 166.22C583.223 165.958 583.588 165.776 583.982 165.673C584.38 165.567 584.771 165.514 585.155 165.514C585.401 165.514 585.682 165.544 586.001 165.604C586.322 165.66 586.632 165.778 586.93 165.957C587.232 166.136 587.482 166.406 587.681 166.767C587.88 167.128 587.979 167.612 587.979 168.219V173.25H586.806V172.216H586.746C586.667 172.382 586.534 172.559 586.349 172.748C586.163 172.937 585.916 173.098 585.608 173.23C585.3 173.363 584.923 173.429 584.479 173.429ZM584.658 172.375C585.122 172.375 585.513 172.284 585.831 172.102C586.153 171.919 586.395 171.684 586.557 171.396C586.723 171.107 586.806 170.804 586.806 170.486V169.412C586.756 169.472 586.647 169.526 586.478 169.576C586.312 169.622 586.12 169.664 585.901 169.7C585.686 169.733 585.475 169.763 585.27 169.79C585.068 169.813 584.903 169.833 584.778 169.849C584.473 169.889 584.188 169.954 583.922 170.043C583.661 170.129 583.448 170.26 583.286 170.436C583.127 170.608 583.047 170.844 583.047 171.142C583.047 171.55 583.198 171.858 583.5 172.067C583.805 172.272 584.191 172.375 584.658 172.375Z" fill="white" fill-opacity="0.95"/>
<rect x="456.5" y="188.75" width="15" height="15" rx="1.5" stroke="white" stroke-opacity="0.5"/>
<path d="M481.233 201.25V191.068H484.793C485.502 191.068 486.087 191.191 486.548 191.436C487.008 191.678 487.351 192.004 487.577 192.415C487.802 192.823 487.915 193.276 487.915 193.773C487.915 194.21 487.837 194.571 487.681 194.857C487.529 195.142 487.326 195.367 487.075 195.533C486.826 195.698 486.556 195.821 486.264 195.901V196C486.576 196.02 486.889 196.129 487.204 196.328C487.519 196.527 487.782 196.812 487.994 197.183C488.206 197.554 488.312 198.009 488.312 198.545C488.312 199.056 488.196 199.515 487.964 199.923C487.732 200.33 487.366 200.653 486.866 200.892C486.365 201.131 485.714 201.25 484.912 201.25H481.233ZM482.466 200.156H484.912C485.717 200.156 486.289 200 486.627 199.689C486.969 199.374 487.139 198.993 487.139 198.545C487.139 198.201 487.051 197.883 486.876 197.591C486.7 197.296 486.45 197.061 486.125 196.885C485.8 196.706 485.416 196.616 484.972 196.616H482.466V200.156ZM482.466 195.543H484.753C485.124 195.543 485.459 195.47 485.757 195.324C486.059 195.178 486.297 194.973 486.473 194.707C486.652 194.442 486.741 194.131 486.741 193.773C486.741 193.325 486.586 192.946 486.274 192.634C485.963 192.319 485.469 192.162 484.793 192.162H482.466V195.543ZM491.353 191.068V201.25H490.179V191.068H491.353ZM495.749 201.429C495.265 201.429 494.826 201.338 494.431 201.156C494.037 200.97 493.724 200.703 493.492 200.355C493.26 200.004 493.144 199.58 493.144 199.082C493.144 198.645 493.23 198.29 493.402 198.018C493.575 197.743 493.805 197.528 494.093 197.372C494.382 197.216 494.7 197.1 495.048 197.024C495.399 196.945 495.752 196.882 496.107 196.835C496.571 196.776 496.947 196.731 497.235 196.701C497.527 196.668 497.739 196.613 497.872 196.537C498.008 196.461 498.075 196.328 498.075 196.139V196.099C498.075 195.609 497.941 195.228 497.673 194.956C497.408 194.684 497.005 194.548 496.465 194.548C495.905 194.548 495.465 194.671 495.147 194.916C494.829 195.161 494.605 195.423 494.476 195.702L493.362 195.304C493.561 194.84 493.826 194.479 494.158 194.22C494.493 193.958 494.857 193.776 495.252 193.673C495.649 193.567 496.04 193.514 496.425 193.514C496.67 193.514 496.952 193.544 497.27 193.604C497.592 193.66 497.901 193.778 498.2 193.957C498.501 194.136 498.752 194.406 498.95 194.767C499.149 195.128 499.249 195.612 499.249 196.219V201.25H498.075V200.216H498.016C497.936 200.382 497.804 200.559 497.618 200.748C497.432 200.937 497.186 201.098 496.877 201.23C496.569 201.363 496.193 201.429 495.749 201.429ZM495.928 200.375C496.392 200.375 496.783 200.284 497.101 200.102C497.423 199.919 497.664 199.684 497.827 199.396C497.993 199.107 498.075 198.804 498.075 198.486V197.412C498.026 197.472 497.916 197.526 497.747 197.576C497.582 197.622 497.389 197.664 497.171 197.7C496.955 197.733 496.745 197.763 496.539 197.79C496.337 197.813 496.173 197.833 496.047 197.849C495.742 197.889 495.457 197.954 495.192 198.043C494.93 198.129 494.718 198.26 494.556 198.436C494.396 198.608 494.317 198.844 494.317 199.142C494.317 199.55 494.468 199.858 494.769 200.067C495.074 200.272 495.46 200.375 495.928 200.375ZM504.493 201.409C503.777 201.409 503.16 201.24 502.643 200.902C502.126 200.564 501.728 200.098 501.45 199.505C501.172 198.912 501.032 198.234 501.032 197.472C501.032 196.696 501.175 196.012 501.46 195.418C501.748 194.822 502.149 194.356 502.663 194.021C503.18 193.683 503.783 193.514 504.473 193.514C505.01 193.514 505.493 193.614 505.924 193.812C506.355 194.011 506.708 194.29 506.983 194.648C507.258 195.006 507.429 195.423 507.495 195.901H506.322C506.233 195.553 506.034 195.244 505.725 194.976C505.421 194.704 505.01 194.568 504.493 194.568C504.035 194.568 503.634 194.687 503.289 194.926C502.948 195.161 502.681 195.495 502.489 195.925C502.3 196.353 502.206 196.855 502.206 197.432C502.206 198.022 502.298 198.536 502.484 198.973C502.673 199.411 502.938 199.75 503.279 199.992C503.624 200.234 504.029 200.355 504.493 200.355C504.797 200.355 505.074 200.302 505.323 200.196C505.571 200.09 505.782 199.938 505.954 199.739C506.127 199.54 506.249 199.301 506.322 199.023H507.495C507.429 199.473 507.265 199.879 507.003 200.241C506.745 200.599 506.402 200.884 505.974 201.096C505.55 201.305 505.056 201.409 504.493 201.409ZM510.304 198.466L510.284 197.014H510.523L513.864 193.614H515.316L511.756 197.213H511.657L510.304 198.466ZM509.211 201.25V191.068H510.384V201.25H509.211ZM514.063 201.25L511.08 197.472L511.915 196.656L515.554 201.25H514.063ZM522.772 201.25L519.988 191.068H521.241L523.368 199.361H523.468L525.635 191.068H527.028L529.195 199.361H529.295L531.422 191.068H532.675L529.891 201.25H528.618L526.371 193.136H526.292L524.045 201.25H522.772ZM534.052 201.25V193.614H535.226V201.25H534.052ZM534.649 192.341C534.42 192.341 534.223 192.263 534.057 192.107C533.895 191.951 533.814 191.764 533.814 191.545C533.814 191.327 533.895 191.139 534.057 190.984C534.223 190.828 534.42 190.75 534.649 190.75C534.878 190.75 535.073 190.828 535.236 190.984C535.401 191.139 535.484 191.327 535.484 191.545C535.484 191.764 535.401 191.951 535.236 192.107C535.073 192.263 534.878 192.341 534.649 192.341ZM540.258 201.409C539.622 201.409 539.06 201.248 538.573 200.927C538.086 200.602 537.704 200.145 537.429 199.555C537.154 198.961 537.017 198.26 537.017 197.452C537.017 196.65 537.154 195.954 537.429 195.364C537.704 194.774 538.087 194.318 538.578 193.996C539.068 193.675 539.635 193.514 540.278 193.514C540.775 193.514 541.168 193.597 541.456 193.763C541.748 193.925 541.97 194.111 542.123 194.32C542.278 194.525 542.399 194.694 542.485 194.827H542.585V191.068H543.758V201.25H542.625V200.077H542.485C542.399 200.216 542.277 200.392 542.118 200.604C541.958 200.812 541.731 201 541.436 201.165C541.141 201.328 540.749 201.409 540.258 201.409ZM540.417 200.355C540.888 200.355 541.286 200.232 541.61 199.987C541.935 199.739 542.182 199.396 542.351 198.958C542.52 198.517 542.605 198.009 542.605 197.432C542.605 196.862 542.522 196.363 542.356 195.935C542.19 195.504 541.945 195.17 541.62 194.931C541.296 194.689 540.895 194.568 540.417 194.568C539.92 194.568 539.506 194.696 539.174 194.951C538.846 195.203 538.599 195.546 538.434 195.98C538.271 196.411 538.19 196.895 538.19 197.432C538.19 197.975 538.273 198.469 538.439 198.913C538.608 199.354 538.856 199.705 539.184 199.967C539.516 200.226 539.927 200.355 540.417 200.355ZM549.172 201.409C548.483 201.409 547.878 201.245 547.358 200.917C546.841 200.589 546.436 200.13 546.145 199.54C545.856 198.95 545.712 198.26 545.712 197.472C545.712 196.676 545.856 195.982 546.145 195.388C546.436 194.795 546.841 194.335 547.358 194.006C547.878 193.678 548.483 193.514 549.172 193.514C549.862 193.514 550.465 193.678 550.982 194.006C551.502 194.335 551.907 194.795 552.195 195.388C552.487 195.982 552.632 196.676 552.632 197.472C552.632 198.26 552.487 198.95 552.195 199.54C551.907 200.13 551.502 200.589 550.982 200.917C550.465 201.245 549.862 201.409 549.172 201.409ZM549.172 200.355C549.696 200.355 550.127 200.221 550.465 199.952C550.803 199.684 551.053 199.331 551.216 198.893C551.378 198.456 551.459 197.982 551.459 197.472C551.459 196.961 551.378 196.486 551.216 196.045C551.053 195.604 550.803 195.248 550.465 194.976C550.127 194.704 549.696 194.568 549.172 194.568C548.649 194.568 548.218 194.704 547.88 194.976C547.542 195.248 547.291 195.604 547.129 196.045C546.967 196.486 546.885 196.961 546.885 197.472C546.885 197.982 546.967 198.456 547.129 198.893C547.291 199.331 547.542 199.684 547.88 199.952C548.218 200.221 548.649 200.355 549.172 200.355ZM555.894 201.25L553.567 193.614H554.8L556.451 199.46H556.53L558.161 193.614H559.414L561.025 199.44H561.104L562.755 193.614H563.988L561.661 201.25H560.507L558.837 195.384H558.718L557.047 201.25H555.894Z" fill="white" fill-opacity="0.95"/>
<rect x="456.5" y="216.75" width="15" height="15" rx="1.5" stroke="white" stroke-opacity="0.5"/>
<path d="M486.801 221.614C486.741 221.11 486.5 220.719 486.075 220.44C485.651 220.162 485.131 220.023 484.514 220.023C484.063 220.023 483.669 220.096 483.331 220.241C482.996 220.387 482.734 220.588 482.545 220.843C482.36 221.098 482.267 221.388 482.267 221.713C482.267 221.985 482.332 222.219 482.461 222.414C482.594 222.606 482.763 222.767 482.968 222.896C483.174 223.022 483.389 223.127 483.614 223.21C483.84 223.289 484.047 223.354 484.236 223.403L485.27 223.682C485.535 223.751 485.83 223.848 486.155 223.97C486.483 224.093 486.796 224.26 487.094 224.472C487.396 224.681 487.645 224.95 487.84 225.278C488.036 225.606 488.134 226.009 488.134 226.486C488.134 227.036 487.989 227.533 487.701 227.977C487.416 228.421 486.998 228.774 486.448 229.036C485.901 229.298 485.237 229.429 484.455 229.429C483.725 229.429 483.094 229.311 482.56 229.076C482.03 228.841 481.612 228.513 481.308 228.092C481.006 227.671 480.835 227.182 480.795 226.625H482.068C482.101 227.009 482.231 227.328 482.456 227.58C482.685 227.828 482.973 228.014 483.321 228.136C483.672 228.256 484.05 228.315 484.455 228.315C484.925 228.315 485.348 228.239 485.722 228.087C486.097 227.931 486.393 227.715 486.612 227.44C486.831 227.162 486.94 226.837 486.94 226.466C486.94 226.128 486.846 225.853 486.657 225.641C486.468 225.429 486.219 225.256 485.911 225.124C485.603 224.991 485.27 224.875 484.912 224.776L483.659 224.418C482.864 224.189 482.234 223.862 481.77 223.438C481.306 223.014 481.074 222.459 481.074 221.773C481.074 221.203 481.228 220.705 481.536 220.281C481.848 219.854 482.265 219.522 482.789 219.287C483.316 219.048 483.904 218.929 484.554 218.929C485.21 218.929 485.794 219.047 486.304 219.282C486.814 219.514 487.219 219.832 487.517 220.237C487.819 220.641 487.978 221.1 487.994 221.614H486.801ZM493.104 229.409C492.388 229.409 491.771 229.24 491.254 228.902C490.737 228.564 490.34 228.098 490.061 227.505C489.783 226.912 489.644 226.234 489.644 225.472C489.644 224.696 489.786 224.012 490.071 223.418C490.36 222.822 490.761 222.356 491.274 222.021C491.791 221.683 492.395 221.514 493.084 221.514C493.621 221.514 494.105 221.614 494.536 221.812C494.967 222.011 495.32 222.29 495.595 222.648C495.87 223.006 496.04 223.423 496.107 223.901H494.933C494.844 223.553 494.645 223.244 494.337 222.976C494.032 222.704 493.621 222.568 493.104 222.568C492.646 222.568 492.245 222.687 491.901 222.926C491.559 223.161 491.293 223.495 491.1 223.925C490.911 224.353 490.817 224.855 490.817 225.432C490.817 226.022 490.91 226.536 491.095 226.973C491.284 227.411 491.549 227.75 491.891 227.992C492.235 228.234 492.64 228.355 493.104 228.355C493.409 228.355 493.686 228.302 493.934 228.196C494.183 228.09 494.393 227.938 494.566 227.739C494.738 227.54 494.86 227.301 494.933 227.023H496.107C496.04 227.473 495.876 227.879 495.615 228.241C495.356 228.599 495.013 228.884 494.585 229.096C494.161 229.305 493.667 229.409 493.104 229.409ZM500.069 229.429C499.585 229.429 499.146 229.338 498.752 229.156C498.357 228.97 498.044 228.703 497.812 228.355C497.58 228.004 497.464 227.58 497.464 227.082C497.464 226.645 497.55 226.29 497.722 226.018C497.895 225.743 498.125 225.528 498.414 225.372C498.702 225.216 499.02 225.1 499.368 225.024C499.719 224.945 500.072 224.882 500.427 224.835C500.891 224.776 501.267 224.731 501.556 224.701C501.847 224.668 502.059 224.613 502.192 224.537C502.328 224.461 502.396 224.328 502.396 224.139V224.099C502.396 223.609 502.262 223.228 501.993 222.956C501.728 222.684 501.325 222.548 500.785 222.548C500.225 222.548 499.786 222.671 499.468 222.916C499.149 223.161 498.926 223.423 498.796 223.702L497.683 223.304C497.882 222.84 498.147 222.479 498.478 222.22C498.813 221.958 499.177 221.776 499.572 221.673C499.97 221.567 500.361 221.514 500.745 221.514C500.99 221.514 501.272 221.544 501.59 221.604C501.912 221.66 502.222 221.778 502.52 221.957C502.822 222.136 503.072 222.406 503.271 222.767C503.47 223.128 503.569 223.612 503.569 224.219V229.25H502.396V228.216H502.336C502.257 228.382 502.124 228.559 501.938 228.748C501.753 228.937 501.506 229.098 501.198 229.23C500.889 229.363 500.513 229.429 500.069 229.429ZM500.248 228.375C500.712 228.375 501.103 228.284 501.421 228.102C501.743 227.919 501.985 227.684 502.147 227.396C502.313 227.107 502.396 226.804 502.396 226.486V225.412C502.346 225.472 502.237 225.526 502.068 225.576C501.902 225.622 501.71 225.664 501.491 225.7C501.276 225.733 501.065 225.763 500.86 225.79C500.657 225.813 500.493 225.833 500.367 225.849C500.062 225.889 499.777 225.954 499.512 226.043C499.25 226.129 499.038 226.26 498.876 226.436C498.717 226.608 498.637 226.844 498.637 227.142C498.637 227.55 498.788 227.858 499.09 228.067C499.395 228.272 499.781 228.375 500.248 228.375ZM505.711 229.25V221.614H506.844V222.767H506.924C507.063 222.389 507.315 222.083 507.679 221.847C508.044 221.612 508.455 221.494 508.912 221.494C508.998 221.494 509.106 221.496 509.235 221.499C509.365 221.503 509.462 221.508 509.529 221.514V222.707C509.489 222.697 509.398 222.683 509.255 222.663C509.116 222.639 508.969 222.628 508.813 222.628C508.442 222.628 508.11 222.706 507.819 222.862C507.53 223.014 507.301 223.226 507.132 223.498C506.967 223.766 506.884 224.073 506.884 224.418V229.25H505.711ZM512.093 219.068V229.25H510.92V219.068H512.093ZM517.444 229.409C516.708 229.409 516.073 229.247 515.539 228.922C515.009 228.594 514.6 228.136 514.311 227.55C514.026 226.96 513.884 226.274 513.884 225.491C513.884 224.709 514.026 224.02 514.311 223.423C514.6 222.823 515.001 222.356 515.515 222.021C516.032 221.683 516.635 221.514 517.324 221.514C517.722 221.514 518.115 221.58 518.502 221.713C518.89 221.846 519.243 222.061 519.561 222.359C519.88 222.654 520.133 223.045 520.322 223.533C520.511 224.02 520.605 224.62 520.605 225.332V225.83H514.719V224.815H519.412C519.412 224.384 519.326 224 519.154 223.662C518.985 223.324 518.743 223.057 518.428 222.862C518.116 222.666 517.748 222.568 517.324 222.568C516.857 222.568 516.453 222.684 516.111 222.916C515.773 223.145 515.513 223.443 515.331 223.811C515.148 224.179 515.057 224.573 515.057 224.994V225.67C515.057 226.247 515.157 226.736 515.355 227.137C515.558 227.535 515.838 227.838 516.196 228.047C516.554 228.252 516.97 228.355 517.444 228.355C517.752 228.355 518.03 228.312 518.279 228.226C518.531 228.136 518.748 228.004 518.93 227.828C519.112 227.649 519.253 227.427 519.353 227.162L520.486 227.48C520.367 227.865 520.166 228.203 519.885 228.494C519.603 228.783 519.255 229.008 518.841 229.17C518.426 229.33 517.961 229.409 517.444 229.409ZM525.711 221.614V222.608H521.754V221.614H525.711ZM522.907 219.784H524.081V227.062C524.081 227.394 524.129 227.643 524.225 227.808C524.324 227.971 524.45 228.08 524.603 228.136C524.758 228.189 524.922 228.216 525.095 228.216C525.224 228.216 525.33 228.209 525.413 228.196C525.496 228.179 525.562 228.166 525.612 228.156L525.85 229.21C525.771 229.24 525.66 229.27 525.517 229.3C525.375 229.333 525.194 229.349 524.975 229.349C524.644 229.349 524.319 229.278 524.001 229.136C523.686 228.993 523.424 228.776 523.216 228.484C523.01 228.193 522.907 227.825 522.907 227.381V219.784ZM533.422 229.25L530.638 219.068H531.891L534.019 227.361H534.118L536.286 219.068H537.678L539.846 227.361H539.945L542.073 219.068H543.326L540.542 229.25H539.269L537.022 221.136H536.942L534.695 229.25H533.422ZM544.703 229.25V221.614H545.876V229.25H544.703ZM545.299 220.341C545.071 220.341 544.873 220.263 544.708 220.107C544.545 219.951 544.464 219.764 544.464 219.545C544.464 219.327 544.545 219.139 544.708 218.984C544.873 218.828 545.071 218.75 545.299 218.75C545.528 218.75 545.724 218.828 545.886 218.984C546.052 219.139 546.135 219.327 546.135 219.545C546.135 219.764 546.052 219.951 545.886 220.107C545.724 220.263 545.528 220.341 545.299 220.341ZM551.346 221.614V222.608H547.389V221.614H551.346ZM548.542 219.784H549.715V227.062C549.715 227.394 549.763 227.643 549.86 227.808C549.959 227.971 550.085 228.08 550.237 228.136C550.393 228.189 550.557 228.216 550.73 228.216C550.859 228.216 550.965 228.209 551.048 228.196C551.131 228.179 551.197 228.166 551.247 228.156L551.485 229.21C551.406 229.24 551.295 229.27 551.152 229.3C551.01 229.333 550.829 229.349 550.61 229.349C550.279 229.349 549.954 229.278 549.636 229.136C549.321 228.993 549.059 228.776 548.85 228.484C548.645 228.193 548.542 227.825 548.542 227.381V219.784ZM556.131 229.409C555.415 229.409 554.799 229.24 554.282 228.902C553.765 228.564 553.367 228.098 553.089 227.505C552.81 226.912 552.671 226.234 552.671 225.472C552.671 224.696 552.814 224.012 553.099 223.418C553.387 222.822 553.788 222.356 554.302 222.021C554.819 221.683 555.422 221.514 556.111 221.514C556.648 221.514 557.132 221.614 557.563 221.812C557.994 222.011 558.347 222.29 558.622 222.648C558.897 223.006 559.068 223.423 559.134 223.901H557.961C557.871 223.553 557.672 223.244 557.364 222.976C557.059 222.704 556.648 222.568 556.131 222.568C555.674 222.568 555.273 222.687 554.928 222.926C554.587 223.161 554.32 223.495 554.128 223.925C553.939 224.353 553.844 224.855 553.844 225.432C553.844 226.022 553.937 226.536 554.123 226.973C554.312 227.411 554.577 227.75 554.918 227.992C555.263 228.234 555.667 228.355 556.131 228.355C556.436 228.355 556.713 228.302 556.961 228.196C557.21 228.09 557.421 227.938 557.593 227.739C557.765 227.54 557.888 227.301 557.961 227.023H559.134C559.068 227.473 558.904 227.879 558.642 228.241C558.383 228.599 558.04 228.884 557.613 229.096C557.189 229.305 556.695 229.409 556.131 229.409ZM562.023 224.656V229.25H560.849V219.068H562.023V222.807H562.122C562.301 222.412 562.569 222.099 562.927 221.867C563.289 221.632 563.769 221.514 564.369 221.514C564.89 221.514 565.345 221.619 565.736 221.827C566.127 222.033 566.431 222.349 566.646 222.777C566.865 223.201 566.974 223.741 566.974 224.398V229.25H565.801V224.477C565.801 223.871 565.644 223.402 565.329 223.07C565.017 222.736 564.585 222.568 564.031 222.568C563.647 222.568 563.302 222.649 562.997 222.812C562.695 222.974 562.457 223.211 562.281 223.523C562.109 223.834 562.023 224.212 562.023 224.656Z" fill="white" fill-opacity="0.95"/>
<rect x="456.5" y="244.75" width="15" height="15" rx="1.5" stroke="white" stroke-opacity="0.5"/>
<path d="M486.801 249.614C486.741 249.11 486.5 248.719 486.075 248.44C485.651 248.162 485.131 248.023 484.514 248.023C484.063 248.023 483.669 248.096 483.331 248.241C482.996 248.387 482.734 248.588 482.545 248.843C482.36 249.098 482.267 249.388 482.267 249.713C482.267 249.985 482.332 250.219 482.461 250.414C482.594 250.606 482.763 250.767 482.968 250.896C483.174 251.022 483.389 251.127 483.614 251.21C483.84 251.289 484.047 251.354 484.236 251.403L485.27 251.682C485.535 251.751 485.83 251.848 486.155 251.97C486.483 252.093 486.796 252.26 487.094 252.472C487.396 252.681 487.645 252.95 487.84 253.278C488.036 253.606 488.134 254.009 488.134 254.486C488.134 255.036 487.989 255.533 487.701 255.977C487.416 256.421 486.998 256.774 486.448 257.036C485.901 257.298 485.237 257.429 484.455 257.429C483.725 257.429 483.094 257.311 482.56 257.076C482.03 256.841 481.612 256.513 481.308 256.092C481.006 255.671 480.835 255.182 480.795 254.625H482.068C482.101 255.009 482.231 255.328 482.456 255.58C482.685 255.828 482.973 256.014 483.321 256.136C483.672 256.256 484.05 256.315 484.455 256.315C484.925 256.315 485.348 256.239 485.722 256.087C486.097 255.931 486.393 255.715 486.612 255.44C486.831 255.162 486.94 254.837 486.94 254.466C486.94 254.128 486.846 253.853 486.657 253.641C486.468 253.429 486.219 253.256 485.911 253.124C485.603 252.991 485.27 252.875 484.912 252.776L483.659 252.418C482.864 252.189 482.234 251.862 481.77 251.438C481.306 251.014 481.074 250.459 481.074 249.773C481.074 249.203 481.228 248.705 481.536 248.281C481.848 247.854 482.265 247.522 482.789 247.287C483.316 247.048 483.904 246.929 484.554 246.929C485.21 246.929 485.794 247.047 486.304 247.282C486.814 247.514 487.219 247.832 487.517 248.237C487.819 248.641 487.978 249.1 487.994 249.614H486.801ZM490.002 260.114V249.614H491.135V250.827H491.274C491.36 250.694 491.48 250.525 491.632 250.32C491.788 250.111 492.01 249.925 492.298 249.763C492.59 249.597 492.985 249.514 493.482 249.514C494.125 249.514 494.691 249.675 495.182 249.996C495.673 250.318 496.055 250.774 496.33 251.364C496.606 251.954 496.743 252.65 496.743 253.452C496.743 254.26 496.606 254.961 496.33 255.555C496.055 256.145 495.674 256.602 495.187 256.927C494.7 257.248 494.138 257.409 493.502 257.409C493.011 257.409 492.618 257.328 492.323 257.165C492.028 257 491.801 256.812 491.642 256.604C491.483 256.392 491.36 256.216 491.274 256.077H491.175V260.114H490.002ZM491.155 253.432C491.155 254.009 491.24 254.517 491.409 254.958C491.578 255.396 491.825 255.739 492.149 255.987C492.474 256.232 492.872 256.355 493.343 256.355C493.833 256.355 494.242 256.226 494.57 255.967C494.902 255.705 495.151 255.354 495.316 254.913C495.485 254.469 495.57 253.975 495.57 253.432C495.57 252.895 495.487 252.411 495.321 251.98C495.159 251.546 494.912 251.203 494.58 250.951C494.252 250.696 493.84 250.568 493.343 250.568C492.865 250.568 492.464 250.689 492.139 250.931C491.815 251.17 491.569 251.504 491.404 251.935C491.238 252.363 491.155 252.862 491.155 253.432ZM498.533 257.25V249.614H499.706V257.25H498.533ZM499.129 248.341C498.901 248.341 498.704 248.263 498.538 248.107C498.375 247.951 498.294 247.764 498.294 247.545C498.294 247.327 498.375 247.139 498.538 246.984C498.704 246.828 498.901 246.75 499.129 246.75C499.358 246.75 499.554 246.828 499.716 246.984C499.882 247.139 499.965 247.327 499.965 247.545C499.965 247.764 499.882 247.951 499.716 248.107C499.554 248.263 499.358 248.341 499.129 248.341ZM504.739 257.409C504.102 257.409 503.54 257.248 503.053 256.927C502.566 256.602 502.185 256.145 501.91 255.555C501.635 254.961 501.497 254.26 501.497 253.452C501.497 252.65 501.635 251.954 501.91 251.364C502.185 250.774 502.568 250.318 503.058 249.996C503.549 249.675 504.116 249.514 504.759 249.514C505.256 249.514 505.648 249.597 505.937 249.763C506.228 249.925 506.451 250.111 506.603 250.32C506.759 250.525 506.88 250.694 506.966 250.827H507.065V247.068H508.239V257.25H507.105V256.077H506.966C506.88 256.216 506.757 256.392 506.598 256.604C506.439 256.812 506.212 257 505.917 257.165C505.622 257.328 505.229 257.409 504.739 257.409ZM504.898 256.355C505.368 256.355 505.766 256.232 506.091 255.987C506.416 255.739 506.663 255.396 506.832 254.958C507.001 254.517 507.085 254.009 507.085 253.432C507.085 252.862 507.002 252.363 506.837 251.935C506.671 251.504 506.426 251.17 506.101 250.931C505.776 250.689 505.375 250.568 504.898 250.568C504.401 250.568 503.986 250.696 503.655 250.951C503.327 251.203 503.08 251.546 502.914 251.98C502.752 252.411 502.67 252.895 502.67 253.432C502.67 253.975 502.753 254.469 502.919 254.913C503.088 255.354 503.337 255.705 503.665 255.967C503.996 256.226 504.407 256.355 504.898 256.355ZM513.752 257.409C513.016 257.409 512.382 257.247 511.848 256.922C511.318 256.594 510.908 256.136 510.62 255.55C510.335 254.96 510.192 254.274 510.192 253.491C510.192 252.709 510.335 252.02 510.62 251.423C510.908 250.823 511.309 250.356 511.823 250.021C512.34 249.683 512.943 249.514 513.633 249.514C514.031 249.514 514.423 249.58 514.811 249.713C515.199 249.846 515.552 250.061 515.87 250.359C516.188 250.654 516.442 251.045 516.631 251.533C516.82 252.02 516.914 252.62 516.914 253.332V253.83H511.028V252.815H515.721C515.721 252.384 515.635 252 515.462 251.662C515.293 251.324 515.051 251.057 514.737 250.862C514.425 250.666 514.057 250.568 513.633 250.568C513.165 250.568 512.761 250.684 512.42 250.916C512.082 251.145 511.821 251.443 511.639 251.811C511.457 252.179 511.366 252.573 511.366 252.994V253.67C511.366 254.247 511.465 254.736 511.664 255.137C511.866 255.535 512.146 255.838 512.504 256.047C512.862 256.252 513.278 256.355 513.752 256.355C514.06 256.355 514.339 256.312 514.587 256.226C514.839 256.136 515.056 256.004 515.239 255.828C515.421 255.649 515.562 255.427 515.661 255.162L516.795 255.48C516.675 255.865 516.475 256.203 516.193 256.494C515.911 256.783 515.563 257.008 515.149 257.17C514.735 257.33 514.269 257.409 513.752 257.409ZM518.699 257.25V249.614H519.832V250.767H519.912C520.051 250.389 520.303 250.083 520.668 249.847C521.032 249.612 521.443 249.494 521.901 249.494C521.987 249.494 522.094 249.496 522.224 249.499C522.353 249.503 522.451 249.508 522.517 249.514V250.707C522.477 250.697 522.386 250.683 522.244 250.663C522.104 250.639 521.957 250.628 521.801 250.628C521.43 250.628 521.098 250.706 520.807 250.862C520.518 251.014 520.29 251.226 520.121 251.498C519.955 251.766 519.872 252.073 519.872 252.418V257.25H518.699ZM528.004 247.068H529.476L532.936 255.52H533.056L536.516 247.068H537.987V257.25H536.834V249.514H536.735L533.553 257.25H532.439L529.257 249.514H529.158V257.25H528.004V247.068ZM542.548 257.429C542.064 257.429 541.625 257.338 541.23 257.156C540.836 256.97 540.522 256.703 540.29 256.355C540.058 256.004 539.942 255.58 539.942 255.082C539.942 254.645 540.029 254.29 540.201 254.018C540.373 253.743 540.604 253.528 540.892 253.372C541.18 253.216 541.499 253.1 541.847 253.024C542.198 252.945 542.551 252.882 542.906 252.835C543.37 252.776 543.746 252.731 544.034 252.701C544.326 252.668 544.538 252.613 544.67 252.537C544.806 252.461 544.874 252.328 544.874 252.139V252.099C544.874 251.609 544.74 251.228 544.472 250.956C544.206 250.684 543.804 250.548 543.263 250.548C542.703 250.548 542.264 250.671 541.946 250.916C541.628 251.161 541.404 251.423 541.275 251.702L540.161 251.304C540.36 250.84 540.625 250.479 540.957 250.22C541.291 249.958 541.656 249.776 542.05 249.673C542.448 249.567 542.839 249.514 543.224 249.514C543.469 249.514 543.751 249.544 544.069 249.604C544.39 249.66 544.7 249.778 544.999 249.957C545.3 250.136 545.55 250.406 545.749 250.767C545.948 251.128 546.048 251.612 546.048 252.219V257.25H544.874V256.216H544.815C544.735 256.382 544.603 256.559 544.417 256.748C544.231 256.937 543.984 257.098 543.676 257.23C543.368 257.363 542.992 257.429 542.548 257.429ZM542.727 256.375C543.191 256.375 543.582 256.284 543.9 256.102C544.221 255.919 544.463 255.684 544.626 255.396C544.791 255.107 544.874 254.804 544.874 254.486V253.412C544.825 253.472 544.715 253.526 544.546 253.576C544.38 253.622 544.188 253.664 543.969 253.7C543.754 253.733 543.544 253.763 543.338 253.79C543.136 253.813 542.972 253.833 542.846 253.849C542.541 253.889 542.256 253.954 541.991 254.043C541.729 254.129 541.517 254.26 541.354 254.436C541.195 254.608 541.116 254.844 541.116 255.142C541.116 255.55 541.267 255.858 541.568 256.067C541.873 256.272 542.259 256.375 542.727 256.375ZM549.362 252.656V257.25H548.189V249.614H549.323V250.807H549.422C549.601 250.419 549.873 250.107 550.237 249.872C550.602 249.634 551.073 249.514 551.649 249.514C552.166 249.514 552.619 249.62 553.007 249.832C553.394 250.041 553.696 250.359 553.911 250.787C554.127 251.211 554.235 251.748 554.235 252.398V257.25H553.061V252.477C553.061 251.877 552.905 251.41 552.594 251.075C552.282 250.737 551.855 250.568 551.311 250.568C550.937 250.568 550.602 250.649 550.307 250.812C550.015 250.974 549.785 251.211 549.616 251.523C549.447 251.834 549.362 252.212 549.362 252.656Z" fill="white" fill-opacity="0.95"/>
<rect x="418" y="100.25" width="76" height="28" rx="5" stroke="#932099" stroke-width="2"/>
<rect x="420" y="102.25" width="72" height="24" rx="3" stroke="white" stroke-opacity="0.9" stroke-width="2"/>
<rect x="475" y="83.25" width="36" height="36" rx="18" fill="#932099"/>
<rect x="476" y="84.25" width="34" height="34" rx="17" stroke="white" stroke-opacity="0.9" stroke-width="2"/>
<path d="M495.092 95.6136V107.25H492.631V97.9489H492.563L489.898 99.6193V97.4375L492.779 95.6136H495.092Z" fill="white" fill-opacity="0.95"/>
<rect x="444.5" y="132.25" width="116" height="28" rx="5" stroke="#932099" stroke-width="2"/>
<rect x="446.5" y="134.25" width="112" height="24" rx="3" stroke="white" stroke-opacity="0.9" stroke-width="2"/>
<rect x="541.5" y="115.25" width="36" height="36" rx="18" fill="#932099"/>
<rect x="542.5" y="116.25" width="34" height="34" rx="17" stroke="white" stroke-opacity="0.9" stroke-width="2"/>
<path d="M555.404 139.25V137.477L559.546 133.642C559.898 133.301 560.194 132.994 560.433 132.722C560.675 132.449 560.859 132.182 560.984 131.92C561.109 131.655 561.171 131.369 561.171 131.062C561.171 130.722 561.094 130.428 560.938 130.182C560.783 129.932 560.571 129.741 560.302 129.608C560.033 129.472 559.728 129.403 559.387 129.403C559.031 129.403 558.72 129.475 558.455 129.619C558.19 129.763 557.986 129.97 557.842 130.239C557.698 130.508 557.626 130.828 557.626 131.199H555.29C555.29 130.437 555.463 129.777 555.808 129.216C556.152 128.655 556.635 128.222 557.256 127.915C557.878 127.608 558.594 127.455 559.404 127.455C560.237 127.455 560.963 127.602 561.58 127.898C562.201 128.189 562.684 128.595 563.029 129.114C563.374 129.633 563.546 130.227 563.546 130.898C563.546 131.337 563.459 131.771 563.285 132.199C563.114 132.627 562.809 133.102 562.37 133.625C561.931 134.144 561.311 134.767 560.512 135.494L558.813 137.159V137.239H563.7V139.25H555.404Z" fill="white" fill-opacity="0.95"/>
<rect x="444.5" y="164.25" width="175" height="28" rx="5" stroke="#932099" stroke-width="2"/>
<rect x="446.5" y="166.25" width="171" height="24" rx="3" stroke="white" stroke-opacity="0.9" stroke-width="2"/>
<rect x="600.5" y="147.25" width="36" height="36" rx="18" fill="#932099"/>
<rect x="601.5" y="148.25" width="34" height="34" rx="17" stroke="white" stroke-opacity="0.9" stroke-width="2"/>
<path d="M618.471 171.409C617.622 171.409 616.867 171.263 616.204 170.972C615.545 170.676 615.024 170.271 614.641 169.756C614.263 169.237 614.067 168.638 614.056 167.96H616.533C616.549 168.244 616.641 168.494 616.812 168.71C616.986 168.922 617.217 169.087 617.505 169.205C617.793 169.322 618.117 169.381 618.477 169.381C618.852 169.381 619.183 169.314 619.471 169.182C619.759 169.049 619.984 168.866 620.147 168.631C620.31 168.396 620.391 168.125 620.391 167.818C620.391 167.508 620.304 167.233 620.13 166.994C619.96 166.752 619.713 166.562 619.391 166.426C619.073 166.29 618.694 166.222 618.255 166.222H617.17V164.415H618.255C618.626 164.415 618.954 164.35 619.238 164.222C619.526 164.093 619.749 163.915 619.908 163.688C620.067 163.456 620.147 163.188 620.147 162.881C620.147 162.589 620.077 162.333 619.937 162.114C619.8 161.89 619.607 161.716 619.357 161.591C619.111 161.466 618.823 161.403 618.494 161.403C618.16 161.403 617.855 161.464 617.579 161.585C617.302 161.703 617.081 161.871 616.914 162.091C616.747 162.311 616.658 162.568 616.647 162.864H614.289C614.3 162.193 614.492 161.602 614.863 161.091C615.234 160.58 615.734 160.18 616.363 159.892C616.996 159.6 617.71 159.455 618.505 159.455C619.308 159.455 620.011 159.6 620.613 159.892C621.215 160.184 621.683 160.578 622.016 161.074C622.353 161.566 622.52 162.119 622.516 162.733C622.52 163.384 622.317 163.928 621.908 164.364C621.503 164.799 620.975 165.076 620.323 165.193V165.284C621.179 165.394 621.831 165.691 622.278 166.176C622.728 166.657 622.952 167.259 622.948 167.983C622.952 168.646 622.761 169.235 622.374 169.75C621.992 170.265 621.463 170.67 620.789 170.966C620.115 171.261 619.342 171.409 618.471 171.409Z" fill="white" fill-opacity="0.95"/>
<rect x="444.5" y="196.25" width="149" height="28" rx="5" stroke="#932099" stroke-width="2"/>
<rect x="446.5" y="198.25" width="145" height="24" rx="3" stroke="white" stroke-opacity="0.9" stroke-width="2"/>
<rect x="574.5" y="179.25" width="36" height="36" rx="18" fill="#932099"/>
<rect x="575.5" y="180.25" width="34" height="34" rx="17" stroke="white" stroke-opacity="0.9" stroke-width="2"/>
<path d="M587.845 201.205V199.267L592.703 191.614H594.374V194.295H593.385L590.322 199.142V199.233H597.226V201.205H587.845ZM593.43 203.25V200.614L593.476 199.756V191.614H595.783V203.25H593.43Z" fill="white" fill-opacity="0.95"/>
<rect x="444.5" y="228.25" width="149" height="28" rx="5" stroke="#932099" stroke-width="2"/>
<rect x="446.5" y="230.25" width="145" height="24" rx="3" stroke="white" stroke-opacity="0.9" stroke-width="2"/>
<rect x="574.5" y="211.25" width="36" height="36" rx="18" fill="#932099"/>
<rect x="575.5" y="212.25" width="34" height="34" rx="17" stroke="white" stroke-opacity="0.9" stroke-width="2"/>
<path d="M592.537 235.409C591.734 235.409 591.018 235.261 590.389 234.966C589.764 234.67 589.268 234.263 588.901 233.744C588.533 233.225 588.342 232.631 588.327 231.96H590.713C590.74 232.411 590.929 232.777 591.281 233.057C591.634 233.337 592.052 233.477 592.537 233.477C592.923 233.477 593.264 233.392 593.56 233.222C593.859 233.047 594.092 232.807 594.259 232.5C594.429 232.189 594.514 231.833 594.514 231.432C594.514 231.023 594.427 230.663 594.253 230.352C594.082 230.042 593.846 229.799 593.543 229.625C593.24 229.451 592.893 229.362 592.503 229.358C592.162 229.358 591.83 229.428 591.509 229.568C591.19 229.708 590.942 229.9 590.764 230.142L588.577 229.75L589.128 223.614H596.241V225.625H591.156L590.855 228.54H590.923C591.128 228.252 591.437 228.013 591.849 227.824C592.262 227.634 592.724 227.54 593.236 227.54C593.937 227.54 594.562 227.705 595.111 228.034C595.66 228.364 596.094 228.816 596.412 229.392C596.73 229.964 596.887 230.623 596.884 231.369C596.887 232.153 596.705 232.85 596.338 233.46C595.974 234.066 595.465 234.544 594.81 234.892C594.158 235.237 593.401 235.409 592.537 235.409Z" fill="white" fill-opacity="0.95"/>
<path d="M613.439 232.189C612.854 232.775 612.854 233.725 613.439 234.311L622.985 243.857C623.571 244.442 624.521 244.442 625.107 243.857C625.692 243.271 625.692 242.321 625.107 241.735L616.621 233.25L625.107 224.765C625.692 224.179 625.692 223.229 625.107 222.643C624.521 222.058 623.571 222.058 622.985 222.643L613.439 232.189ZM613.439 200.189C612.854 200.775 612.854 201.725 613.439 202.311L622.985 211.857C623.571 212.442 624.521 212.442 625.107 211.857C625.692 211.271 625.692 210.321 625.107 209.735L616.621 201.25L625.107 192.765C625.692 192.179 625.692 191.229 625.107 190.643C624.521 190.058 623.571 190.058 622.985 190.643L613.439 200.189ZM642.5 217.25H644H642.5ZM642.5 217.25H644H642.5ZM614.5 234.75H626.5V231.75H614.5V234.75ZM626.5 199.75H614.5V202.75H626.5V199.75ZM644 217.25C644 207.585 636.165 199.75 626.5 199.75V202.75C634.508 202.75 641 209.242 641 217.25H644ZM626.5 234.75C636.165 234.75 644 226.915 644 217.25H641C641 225.258 634.508 231.75 626.5 231.75V234.75Z" fill="#932099"/>
<rect x="444.5" y="259.75" width="136" height="28" rx="5" stroke="#932099" stroke-width="2"/>
<rect x="446.5" y="261.75" width="132" height="24" rx="3" stroke="white" stroke-opacity="0.9" stroke-width="2"/>
<rect x="561.5" y="242.75" width="36" height="36" rx="18" fill="#932099"/>
<rect x="562.5" y="243.75" width="34" height="34" rx="17" stroke="white" stroke-opacity="0.9" stroke-width="2"/>
<path d="M579.628 266.909C579.029 266.905 578.452 266.805 577.895 266.608C577.342 266.411 576.846 266.091 576.406 265.648C575.971 265.205 575.624 264.617 575.366 263.886C575.113 263.155 574.984 262.258 574.98 261.193C574.984 260.208 575.096 259.328 575.315 258.551C575.539 257.775 575.857 257.117 576.27 256.58C576.687 256.038 577.185 255.627 577.764 255.347C578.344 255.062 578.993 254.92 579.713 254.92C580.49 254.92 581.175 255.072 581.77 255.375C582.365 255.678 582.842 256.089 583.202 256.608C583.565 257.127 583.785 257.712 583.861 258.364H581.435C581.34 257.939 581.141 257.612 580.838 257.381C580.535 257.146 580.16 257.028 579.713 257.028C578.955 257.028 578.38 257.36 577.986 258.023C577.596 258.682 577.397 259.587 577.389 260.739H577.469C577.643 260.394 577.878 260.1 578.173 259.858C578.473 259.612 578.812 259.424 579.19 259.295C579.573 259.163 579.976 259.097 580.401 259.097C581.09 259.097 581.704 259.259 582.241 259.585C582.779 259.907 583.204 260.35 583.514 260.915C583.825 261.479 583.98 262.125 583.98 262.852C583.98 263.64 583.796 264.341 583.429 264.955C583.065 265.568 582.556 266.049 581.901 266.398C581.249 266.742 580.491 266.913 579.628 266.909ZM579.616 264.977C579.995 264.977 580.334 264.886 580.634 264.705C580.933 264.523 581.168 264.277 581.338 263.966C581.509 263.655 581.594 263.307 581.594 262.92C581.594 262.534 581.509 262.187 581.338 261.881C581.171 261.574 580.94 261.33 580.645 261.148C580.349 260.966 580.012 260.875 579.634 260.875C579.349 260.875 579.086 260.928 578.844 261.034C578.605 261.14 578.395 261.288 578.213 261.477C578.035 261.667 577.895 261.886 577.793 262.136C577.69 262.383 577.639 262.646 577.639 262.926C577.639 263.301 577.724 263.644 577.895 263.955C578.069 264.265 578.304 264.513 578.599 264.699C578.899 264.884 579.238 264.977 579.616 264.977Z" fill="white" fill-opacity="0.95"/>
<path d="M613.439 232.189C612.854 232.775 612.854 233.725 613.439 234.311L622.985 243.857C623.571 244.442 624.521 244.442 625.107 243.857C625.692 243.271 625.692 242.321 625.107 241.735L616.621 233.25L625.107 224.765C625.692 224.179 625.692 223.229 625.107 222.643C624.521 222.058 623.571 222.058 622.985 222.643L613.439 232.189ZM600.439 263.689C599.854 264.275 599.854 265.225 600.439 265.811L609.985 275.357C610.571 275.942 611.521 275.942 612.107 275.357C612.692 274.771 612.692 273.821 612.107 273.235L603.621 264.75L612.107 256.265C612.692 255.679 612.692 254.729 612.107 254.143C611.521 253.558 610.571 253.558 609.985 254.143L600.439 263.689ZM642.5 249H644H642.5ZM642.5 249H644H642.5ZM614.5 234.75H626.75V231.75H614.5V234.75ZM626.75 263.25H601.5V266.25H626.75V263.25ZM641 249C641 256.87 634.62 263.25 626.75 263.25V266.25C636.277 266.25 644 258.527 644 249H641ZM626.75 234.75C634.62 234.75 641 241.13 641 249H644C644 239.473 636.277 231.75 626.75 231.75V234.75Z" fill="#932099"/>
<path d="M513.939 104.189C513.354 104.775 513.354 105.725 513.939 106.311L523.485 115.857C524.071 116.442 525.021 116.442 525.607 115.857C526.192 115.271 526.192 114.321 525.607 113.735L517.121 105.25L525.607 96.7647C526.192 96.1789 526.192 95.2292 525.607 94.6434C525.021 94.0576 524.071 94.0576 523.485 94.6434L513.939 104.189ZM580.439 136.189C579.854 136.775 579.854 137.725 580.439 138.311L589.985 147.857C590.571 148.442 591.521 148.442 592.107 147.857C592.692 147.271 592.692 146.321 592.107 145.735L583.621 137.25L592.107 128.765C592.692 128.179 592.692 127.229 592.107 126.643C591.521 126.058 590.571 126.058 589.985 126.643L580.439 136.189ZM609.5 121.25H611H609.5ZM609.5 121.25H611H609.5ZM515 106.75H593.5V103.75H515V106.75ZM593.5 135.75H581.5V138.75H593.5V135.75ZM608 121.25C608 129.258 601.508 135.75 593.5 135.75V138.75C603.165 138.75 611 130.915 611 121.25H608ZM593.5 106.75C601.508 106.75 608 113.242 608 121.25H611C611 111.585 603.165 103.75 593.5 103.75V106.75Z" fill="#932099"/>
<path d="M639.439 168.189C638.854 168.775 638.854 169.725 639.439 170.311L648.985 179.856C649.571 180.442 650.521 180.442 651.107 179.856C651.692 179.271 651.692 178.321 651.107 177.735L642.621 169.25L651.107 160.765C651.692 160.179 651.692 159.229 651.107 158.643C650.521 158.057 649.571 158.057 648.985 158.643L639.439 168.189ZM580.439 136.189C579.854 136.775 579.854 137.725 580.439 138.311L589.985 147.856C590.571 148.442 591.521 148.442 592.107 147.856C592.692 147.271 592.692 146.321 592.107 145.735L583.621 137.25L592.107 128.765C592.692 128.179 592.692 127.229 592.107 126.643C591.521 126.057 590.571 126.057 589.985 126.643L580.439 136.189ZM668.5 153.25H670H668.5ZM668.5 153.25H670H668.5ZM640.5 170.75H652.5V167.75H640.5V170.75ZM652.5 135.75H581.5V138.75H652.5V135.75ZM670 153.25C670 143.585 662.165 135.75 652.5 135.75V138.75C660.508 138.75 667 145.242 667 153.25H670ZM652.5 170.75C662.165 170.75 670 162.915 670 153.25H667C667 161.258 660.508 167.75 652.5 167.75V170.75Z" fill="#932099"/>
<path d="M639.439 168.189C638.854 168.775 638.854 169.725 639.439 170.311L648.985 179.857C649.571 180.442 650.521 180.442 651.107 179.857C651.692 179.271 651.692 178.321 651.107 177.735L642.621 169.25L651.107 160.765C651.692 160.179 651.692 159.229 651.107 158.643C650.521 158.058 649.571 158.058 648.985 158.643L639.439 168.189ZM613.439 200.189C612.854 200.775 612.854 201.725 613.439 202.311L622.985 211.857C623.571 212.442 624.521 212.442 625.107 211.857C625.692 211.271 625.692 210.321 625.107 209.735L616.621 201.25L625.107 192.765C625.692 192.179 625.692 191.229 625.107 190.643C624.521 190.058 623.571 190.058 622.985 190.643L613.439 200.189ZM668.5 185.25H670H668.5ZM668.5 185.25H670H668.5ZM640.5 170.75H652.5V167.75H640.5V170.75ZM652.5 199.75H614.5V202.75H652.5V199.75ZM667 185.25C667 193.258 660.508 199.75 652.5 199.75V202.75C662.165 202.75 670 194.915 670 185.25H667ZM652.5 170.75C660.508 170.75 667 177.242 667 185.25H670C670 175.585 662.165 167.75 652.5 167.75V170.75Z" fill="#932099"/>
</svg>
