<svg width="282" height="32" viewBox="0 0 282 32" fill="none" xmlns="http://www.w3.org/2000/svg">
<g clip-path="url(#clip0_3560_7377)">
<path d="M13.7072 16L19.3537 10.3536C19.4451 10.2594 19.4958 10.133 19.4948 10.0017C19.4938 9.87042 19.4412 9.74479 19.3484 9.65195C19.2555 9.55911 19.1299 9.50651 18.9986 9.50551C18.8673 9.5045 18.7409 9.55518 18.6467 9.64659L12.6467 15.6466C12.5529 15.7404 12.5002 15.8675 12.5002 16.0001C12.5002 16.1327 12.5529 16.2599 12.6467 16.3536L18.6467 22.3536C18.6928 22.4012 18.748 22.4392 18.809 22.4652C18.8699 22.4913 18.9355 22.505 19.0018 22.5055C19.0681 22.506 19.1338 22.4933 19.1951 22.4682C19.2565 22.443 19.3122 22.4059 19.3591 22.359C19.406 22.3122 19.4431 22.2564 19.4682 22.1951C19.4933 22.1337 19.506 22.068 19.5055 22.0017C19.505 21.9354 19.4913 21.8698 19.4653 21.8089C19.4392 21.7479 19.4013 21.6928 19.3537 21.6466L13.7072 16Z" fill="white" fill-opacity="0.95"/>
<g clip-path="url(#clip1_3560_7377)">
<rect x="44" width="61" height="32" rx="16" fill="white" fill-opacity="0.2"/>
<path d="M57.4487 21V10.8182H58.9849V19.6776H63.5985V21H57.4487ZM67.454 21.169C66.9701 21.169 66.5326 21.0795 66.1415 20.9006C65.7504 20.7183 65.4405 20.4548 65.2118 20.1101C64.9864 19.7654 64.8738 19.3428 64.8738 18.8423C64.8738 18.4115 64.9566 18.0568 65.1223 17.7784C65.2881 17.5 65.5118 17.2796 65.7935 17.1172C66.0752 16.9548 66.3901 16.8321 66.7381 16.7493C67.0861 16.6664 67.4408 16.6035 67.802 16.5604C68.2594 16.5073 68.6306 16.4643 68.9157 16.4311C69.2007 16.3946 69.4078 16.3366 69.5371 16.2571C69.6664 16.1776 69.731 16.0483 69.731 15.8693V15.8345C69.731 15.4003 69.6084 15.0639 69.3631 14.8253C69.1212 14.5866 68.7599 14.4673 68.2793 14.4673C67.7788 14.4673 67.3844 14.5784 67.0961 14.8004C66.811 15.0192 66.6138 15.2628 66.5044 15.5312L65.1074 15.2131C65.2731 14.7491 65.5151 14.3745 65.8333 14.0895C66.1548 13.8011 66.5243 13.5923 66.9419 13.4631C67.3596 13.3305 67.7987 13.2642 68.2594 13.2642C68.5643 13.2642 68.8875 13.3007 69.2289 13.3736C69.5736 13.4432 69.8951 13.5724 70.1934 13.7614C70.495 13.9503 70.7419 14.2204 70.9341 14.5717C71.1264 14.9197 71.2225 15.3722 71.2225 15.929V21H69.7708V19.956H69.7111C69.615 20.1482 69.4708 20.3371 69.2786 20.5227C69.0864 20.7083 68.8394 20.8625 68.5378 20.9851C68.2362 21.1077 67.8749 21.169 67.454 21.169ZM67.7772 19.9759C68.1882 19.9759 68.5395 19.8946 68.8311 19.7322C69.1261 19.5698 69.3498 19.3577 69.5023 19.0959C69.6581 18.8307 69.736 18.5473 69.736 18.2457V17.2614C69.6829 17.3144 69.5802 17.3641 69.4277 17.4105C69.2786 17.4536 69.1079 17.4917 68.9157 17.5249C68.7234 17.5547 68.5362 17.5829 68.3539 17.6094C68.1716 17.6326 68.0191 17.6525 67.8965 17.669C67.6081 17.7055 67.3446 17.7668 67.106 17.853C66.8707 17.9392 66.6818 18.0634 66.5392 18.2259C66.4 18.3849 66.3304 18.5971 66.3304 18.8622C66.3304 19.2301 66.4663 19.5085 66.7381 19.6974C67.0099 19.883 67.3562 19.9759 67.7772 19.9759ZM73.3217 21V10.8182H74.8082V14.6016H74.8977C74.9839 14.4425 75.1082 14.2585 75.2706 14.0497C75.433 13.8409 75.6584 13.6586 75.9467 13.5028C76.2351 13.3438 76.6162 13.2642 77.0902 13.2642C77.7067 13.2642 78.2569 13.42 78.7408 13.7315C79.2247 14.0431 79.6042 14.4922 79.8793 15.0788C80.1577 15.6655 80.2969 16.3714 80.2969 17.1967C80.2969 18.022 80.1593 18.7296 79.8842 19.3196C79.6091 19.9062 79.2313 20.3587 78.7507 20.6768C78.2701 20.9917 77.7216 21.1491 77.1051 21.1491C76.6411 21.1491 76.2616 21.0713 75.9666 20.9155C75.675 20.7597 75.4463 20.5774 75.2805 20.3686C75.1148 20.1598 74.9872 19.9742 74.8977 19.8118H74.7734V21H73.3217ZM74.7784 17.1818C74.7784 17.7187 74.8563 18.1894 75.0121 18.5938C75.1679 18.9981 75.3932 19.3146 75.6882 19.5433C75.9832 19.7687 76.3445 19.8814 76.772 19.8814C77.2161 19.8814 77.5874 19.7637 77.8857 19.5284C78.1839 19.2898 78.4093 18.9666 78.5618 18.5589C78.7176 18.1513 78.7955 17.6922 78.7955 17.1818C78.7955 16.678 78.7192 16.2256 78.5668 15.8246C78.4176 15.4235 78.1922 15.107 77.8906 14.875C77.5923 14.643 77.2195 14.527 76.772 14.527C76.3411 14.527 75.9766 14.638 75.6783 14.8601C75.3833 15.0821 75.1596 15.392 75.0071 15.7898C74.8546 16.1875 74.7784 16.6515 74.7784 17.1818ZM85.2573 21.1541C84.5049 21.1541 83.8569 20.9934 83.3134 20.6719C82.7731 20.3471 82.3555 19.8913 82.0605 19.3047C81.7689 18.7147 81.623 18.0237 81.623 17.2315C81.623 16.4493 81.7689 15.7599 82.0605 15.1634C82.3555 14.5668 82.7665 14.1011 83.2935 13.7663C83.8238 13.4316 84.4436 13.2642 85.1529 13.2642C85.5837 13.2642 86.0014 13.3355 86.4057 13.478C86.8101 13.6205 87.173 13.8442 87.4945 14.1491C87.816 14.4541 88.0695 14.8501 88.2551 15.3374C88.4408 15.8213 88.5336 16.4096 88.5336 17.1023V17.6293H82.4632V16.5156H87.0769C87.0769 16.1245 86.9973 15.7782 86.8382 15.4766C86.6792 15.1716 86.4554 14.9313 86.1671 14.7557C85.882 14.58 85.5473 14.4922 85.1628 14.4922C84.7452 14.4922 84.3806 14.5949 84.0691 14.8004C83.7608 15.0026 83.5222 15.2678 83.3532 15.5959C83.1874 15.9207 83.1046 16.2737 83.1046 16.6548V17.5249C83.1046 18.0353 83.1941 18.4695 83.373 18.8274C83.5553 19.1854 83.8089 19.4588 84.1337 19.6477C84.4585 19.8333 84.838 19.9261 85.2722 19.9261C85.5539 19.9261 85.8108 19.8864 86.0428 19.8068C86.2748 19.724 86.4753 19.6013 86.6444 19.4389C86.8134 19.2765 86.9426 19.076 87.0321 18.8374L88.4391 19.0909C88.3264 19.5052 88.1242 19.8681 87.8326 20.1797C87.5442 20.4879 87.1813 20.7282 86.7438 20.9006C86.3096 21.0696 85.8141 21.1541 85.2573 21.1541ZM91.6694 10.8182V21H90.1829V10.8182H91.6694Z" fill="white" fill-opacity="0.95"/>
<path d="M126.449 21V10.8182H127.985V19.6776H132.599V21H126.449ZM136.454 21.169C135.97 21.169 135.533 21.0795 135.142 20.9006C134.75 20.7183 134.441 20.4548 134.212 20.1101C133.986 19.7654 133.874 19.3428 133.874 18.8423C133.874 18.4115 133.957 18.0568 134.122 17.7784C134.288 17.5 134.512 17.2796 134.794 17.1172C135.075 16.9548 135.39 16.8321 135.738 16.7493C136.086 16.6664 136.441 16.6035 136.802 16.5604C137.259 16.5073 137.631 16.4643 137.916 16.4311C138.201 16.3946 138.408 16.3366 138.537 16.2571C138.666 16.1776 138.731 16.0483 138.731 15.8693V15.8345C138.731 15.4003 138.608 15.0639 138.363 14.8253C138.121 14.5866 137.76 14.4673 137.279 14.4673C136.779 14.4673 136.384 14.5784 136.096 14.8004C135.811 15.0192 135.614 15.2628 135.504 15.5312L134.107 15.2131C134.273 14.7491 134.515 14.3745 134.833 14.0895C135.155 13.8011 135.524 13.5923 135.942 13.4631C136.36 13.3305 136.799 13.2642 137.259 13.2642C137.564 13.2642 137.887 13.3007 138.229 13.3736C138.574 13.4432 138.895 13.5724 139.193 13.7614C139.495 13.9503 139.742 14.2204 139.934 14.5717C140.126 14.9197 140.222 15.3722 140.222 15.929V21H138.771V19.956H138.711C138.615 20.1482 138.471 20.3371 138.279 20.5227C138.086 20.7083 137.839 20.8625 137.538 20.9851C137.236 21.1077 136.875 21.169 136.454 21.169ZM136.777 19.9759C137.188 19.9759 137.539 19.8946 137.831 19.7322C138.126 19.5698 138.35 19.3577 138.502 19.0959C138.658 18.8307 138.736 18.5473 138.736 18.2457V17.2614C138.683 17.3144 138.58 17.3641 138.428 17.4105C138.279 17.4536 138.108 17.4917 137.916 17.5249C137.723 17.5547 137.536 17.5829 137.354 17.6094C137.172 17.6326 137.019 17.6525 136.896 17.669C136.608 17.7055 136.345 17.7668 136.106 17.853C135.871 17.9392 135.682 18.0634 135.539 18.2259C135.4 18.3849 135.33 18.5971 135.33 18.8622C135.33 19.2301 135.466 19.5085 135.738 19.6974C136.01 19.883 136.356 19.9759 136.777 19.9759ZM142.322 21V10.8182H143.808V14.6016H143.898C143.984 14.4425 144.108 14.2585 144.271 14.0497C144.433 13.8409 144.658 13.6586 144.947 13.5028C145.235 13.3438 145.616 13.2642 146.09 13.2642C146.707 13.2642 147.257 13.42 147.741 13.7315C148.225 14.0431 148.604 14.4922 148.879 15.0788C149.158 15.6655 149.297 16.3714 149.297 17.1967C149.297 18.022 149.159 18.7296 148.884 19.3196C148.609 19.9062 148.231 20.3587 147.751 20.6768C147.27 20.9917 146.722 21.1491 146.105 21.1491C145.641 21.1491 145.262 21.0713 144.967 20.9155C144.675 20.7597 144.446 20.5774 144.281 20.3686C144.115 20.1598 143.987 19.9742 143.898 19.8118H143.773V21H142.322ZM143.778 17.1818C143.778 17.7187 143.856 18.1894 144.012 18.5938C144.168 18.9981 144.393 19.3146 144.688 19.5433C144.983 19.7687 145.344 19.8814 145.772 19.8814C146.216 19.8814 146.587 19.7637 146.886 19.5284C147.184 19.2898 147.409 18.9666 147.562 18.5589C147.718 18.1513 147.795 17.6922 147.795 17.1818C147.795 16.678 147.719 16.2256 147.567 15.8246C147.418 15.4235 147.192 15.107 146.891 14.875C146.592 14.643 146.219 14.527 145.772 14.527C145.341 14.527 144.977 14.638 144.678 14.8601C144.383 15.0821 144.16 15.392 144.007 15.7898C143.855 16.1875 143.778 16.6515 143.778 17.1818ZM154.257 21.1541C153.505 21.1541 152.857 20.9934 152.313 20.6719C151.773 20.3471 151.356 19.8913 151.061 19.3047C150.769 18.7147 150.623 18.0237 150.623 17.2315C150.623 16.4493 150.769 15.7599 151.061 15.1634C151.356 14.5668 151.767 14.1011 152.294 13.7663C152.824 13.4316 153.444 13.2642 154.153 13.2642C154.584 13.2642 155.001 13.3355 155.406 13.478C155.81 13.6205 156.173 13.8442 156.494 14.1491C156.816 14.4541 157.07 14.8501 157.255 15.3374C157.441 15.8213 157.534 16.4096 157.534 17.1023V17.6293H151.463V16.5156H156.077C156.077 16.1245 155.997 15.7782 155.838 15.4766C155.679 15.1716 155.455 14.9313 155.167 14.7557C154.882 14.58 154.547 14.4922 154.163 14.4922C153.745 14.4922 153.381 14.5949 153.069 14.8004C152.761 15.0026 152.522 15.2678 152.353 15.5959C152.187 15.9207 152.105 16.2737 152.105 16.6548V17.5249C152.105 18.0353 152.194 18.4695 152.373 18.8274C152.555 19.1854 152.809 19.4588 153.134 19.6477C153.459 19.8333 153.838 19.9261 154.272 19.9261C154.554 19.9261 154.811 19.8864 155.043 19.8068C155.275 19.724 155.475 19.6013 155.644 19.4389C155.813 19.2765 155.943 19.076 156.032 18.8374L157.439 19.0909C157.326 19.5052 157.124 19.8681 156.833 20.1797C156.544 20.4879 156.181 20.7282 155.744 20.9006C155.31 21.0696 154.814 21.1541 154.257 21.1541ZM160.669 10.8182V21H159.183V10.8182H160.669Z" fill="white" fill-opacity="0.7"/>
<path d="M195.449 21V10.8182H196.985V19.6776H201.599V21H195.449ZM205.454 21.169C204.97 21.169 204.533 21.0795 204.142 20.9006C203.75 20.7183 203.441 20.4548 203.212 20.1101C202.986 19.7654 202.874 19.3428 202.874 18.8423C202.874 18.4115 202.957 18.0568 203.122 17.7784C203.288 17.5 203.512 17.2796 203.794 17.1172C204.075 16.9548 204.39 16.8321 204.738 16.7493C205.086 16.6664 205.441 16.6035 205.802 16.5604C206.259 16.5073 206.631 16.4643 206.916 16.4311C207.201 16.3946 207.408 16.3366 207.537 16.2571C207.666 16.1776 207.731 16.0483 207.731 15.8693V15.8345C207.731 15.4003 207.608 15.0639 207.363 14.8253C207.121 14.5866 206.76 14.4673 206.279 14.4673C205.779 14.4673 205.384 14.5784 205.096 14.8004C204.811 15.0192 204.614 15.2628 204.504 15.5312L203.107 15.2131C203.273 14.7491 203.515 14.3745 203.833 14.0895C204.155 13.8011 204.524 13.5923 204.942 13.4631C205.36 13.3305 205.799 13.2642 206.259 13.2642C206.564 13.2642 206.887 13.3007 207.229 13.3736C207.574 13.4432 207.895 13.5724 208.193 13.7614C208.495 13.9503 208.742 14.2204 208.934 14.5717C209.126 14.9197 209.222 15.3722 209.222 15.929V21H207.771V19.956H207.711C207.615 20.1482 207.471 20.3371 207.279 20.5227C207.086 20.7083 206.839 20.8625 206.538 20.9851C206.236 21.1077 205.875 21.169 205.454 21.169ZM205.777 19.9759C206.188 19.9759 206.539 19.8946 206.831 19.7322C207.126 19.5698 207.35 19.3577 207.502 19.0959C207.658 18.8307 207.736 18.5473 207.736 18.2457V17.2614C207.683 17.3144 207.58 17.3641 207.428 17.4105C207.279 17.4536 207.108 17.4917 206.916 17.5249C206.723 17.5547 206.536 17.5829 206.354 17.6094C206.172 17.6326 206.019 17.6525 205.896 17.669C205.608 17.7055 205.345 17.7668 205.106 17.853C204.871 17.9392 204.682 18.0634 204.539 18.2259C204.4 18.3849 204.33 18.5971 204.33 18.8622C204.33 19.2301 204.466 19.5085 204.738 19.6974C205.01 19.883 205.356 19.9759 205.777 19.9759ZM211.322 21V10.8182H212.808V14.6016H212.898C212.984 14.4425 213.108 14.2585 213.271 14.0497C213.433 13.8409 213.658 13.6586 213.947 13.5028C214.235 13.3438 214.616 13.2642 215.09 13.2642C215.707 13.2642 216.257 13.42 216.741 13.7315C217.225 14.0431 217.604 14.4922 217.879 15.0788C218.158 15.6655 218.297 16.3714 218.297 17.1967C218.297 18.022 218.159 18.7296 217.884 19.3196C217.609 19.9062 217.231 20.3587 216.751 20.6768C216.27 20.9917 215.722 21.1491 215.105 21.1491C214.641 21.1491 214.262 21.0713 213.967 20.9155C213.675 20.7597 213.446 20.5774 213.281 20.3686C213.115 20.1598 212.987 19.9742 212.898 19.8118H212.773V21H211.322ZM212.778 17.1818C212.778 17.7187 212.856 18.1894 213.012 18.5938C213.168 18.9981 213.393 19.3146 213.688 19.5433C213.983 19.7687 214.344 19.8814 214.772 19.8814C215.216 19.8814 215.587 19.7637 215.886 19.5284C216.184 19.2898 216.409 18.9666 216.562 18.5589C216.718 18.1513 216.795 17.6922 216.795 17.1818C216.795 16.678 216.719 16.2256 216.567 15.8246C216.418 15.4235 216.192 15.107 215.891 14.875C215.592 14.643 215.219 14.527 214.772 14.527C214.341 14.527 213.977 14.638 213.678 14.8601C213.383 15.0821 213.16 15.392 213.007 15.7898C212.855 16.1875 212.778 16.6515 212.778 17.1818ZM223.257 21.1541C222.505 21.1541 221.857 20.9934 221.313 20.6719C220.773 20.3471 220.356 19.8913 220.061 19.3047C219.769 18.7147 219.623 18.0237 219.623 17.2315C219.623 16.4493 219.769 15.7599 220.061 15.1634C220.356 14.5668 220.767 14.1011 221.294 13.7663C221.824 13.4316 222.444 13.2642 223.153 13.2642C223.584 13.2642 224.001 13.3355 224.406 13.478C224.81 13.6205 225.173 13.8442 225.494 14.1491C225.816 14.4541 226.07 14.8501 226.255 15.3374C226.441 15.8213 226.534 16.4096 226.534 17.1023V17.6293H220.463V16.5156H225.077C225.077 16.1245 224.997 15.7782 224.838 15.4766C224.679 15.1716 224.455 14.9313 224.167 14.7557C223.882 14.58 223.547 14.4922 223.163 14.4922C222.745 14.4922 222.381 14.5949 222.069 14.8004C221.761 15.0026 221.522 15.2678 221.353 15.5959C221.187 15.9207 221.105 16.2737 221.105 16.6548V17.5249C221.105 18.0353 221.194 18.4695 221.373 18.8274C221.555 19.1854 221.809 19.4588 222.134 19.6477C222.459 19.8333 222.838 19.9261 223.272 19.9261C223.554 19.9261 223.811 19.8864 224.043 19.8068C224.275 19.724 224.475 19.6013 224.644 19.4389C224.813 19.2765 224.943 19.076 225.032 18.8374L226.439 19.0909C226.326 19.5052 226.124 19.8681 225.833 20.1797C225.544 20.4879 225.181 20.7282 224.744 20.9006C224.31 21.0696 223.814 21.1541 223.257 21.1541ZM229.669 10.8182V21H228.183V10.8182H229.669Z" fill="white" fill-opacity="0.7"/>
</g>
<path d="M269.354 15.6466L263.354 9.6466C263.307 9.59902 263.252 9.56108 263.191 9.53502C263.13 9.50895 263.065 9.49527 262.998 9.49477C262.932 9.49426 262.866 9.50695 262.805 9.53209C262.744 9.55723 262.688 9.59433 262.641 9.64121C262.594 9.68809 262.557 9.74383 262.532 9.80518C262.507 9.86653 262.494 9.93227 262.495 9.99857C262.495 10.0649 262.509 10.1304 262.535 10.1914C262.561 10.2523 262.599 10.3075 262.647 10.3537L268.293 16L262.647 21.6466C262.599 21.6928 262.561 21.7479 262.535 21.8089C262.509 21.8699 262.495 21.9354 262.495 22.0017C262.494 22.068 262.507 22.1337 262.532 22.1951C262.557 22.2564 262.594 22.3122 262.641 22.359C262.688 22.4059 262.744 22.443 262.805 22.4682C262.866 22.4933 262.932 22.506 262.998 22.5055C263.065 22.505 263.13 22.4913 263.191 22.4652C263.252 22.4392 263.307 22.4012 263.354 22.3537L269.354 16.3537C269.447 16.2599 269.5 16.1327 269.5 16.0001C269.5 15.8675 269.447 15.7404 269.354 15.6466Z" fill="white" fill-opacity="0.95"/>
</g>
<defs>
<clipPath id="clip0_3560_7377">
<rect width="282" height="32" fill="white"/>
</clipPath>
<clipPath id="clip1_3560_7377">
<rect width="194" height="32" fill="white" transform="translate(44)"/>
</clipPath>
</defs>
</svg>
