<svg width="1150" height="276" viewBox="0 0 1150 276" fill="none" xmlns="http://www.w3.org/2000/svg">
<rect width="1150" height="276" rx="16" fill="#1A1A1A"/>
<rect x="159.5" y="100.5" width="75" height="23" rx="3.5" fill="#12283D"/>
<rect x="159.5" y="100.5" width="75" height="23" rx="3.5" stroke="#5EBFF7"/>
<path d="M174.6 116.1C174.534 116.1 174.469 116.087 174.408 116.062C174.347 116.037 174.292 115.999 174.246 115.953L170.646 112.335C170.599 112.288 170.563 112.233 170.538 112.172C170.513 112.112 170.5 112.047 170.5 111.981C170.5 111.915 170.513 111.85 170.539 111.79C170.564 111.729 170.601 111.674 170.648 111.628C170.694 111.582 170.749 111.545 170.81 111.52C170.871 111.495 170.936 111.482 171.002 111.482C171.067 111.483 171.132 111.496 171.193 111.521C171.253 111.546 171.308 111.583 171.355 111.63L174.627 114.918L182.675 108.021C182.776 107.935 182.906 107.892 183.038 107.902C183.171 107.912 183.293 107.974 183.38 108.075C183.466 108.176 183.509 108.306 183.498 108.439C183.488 108.571 183.426 108.693 183.325 108.78L174.925 115.979C174.835 116.057 174.72 116.1 174.6 116.1Z" fill="white" fill-opacity="0.95"/>
<path d="M190.268 117V106.818H191.501V115.906H196.234V117H190.268ZM200.231 117.179C199.747 117.179 199.308 117.088 198.914 116.906C198.519 116.72 198.206 116.453 197.974 116.105C197.742 115.754 197.626 115.33 197.626 114.832C197.626 114.395 197.712 114.04 197.885 113.768C198.057 113.493 198.287 113.278 198.576 113.122C198.864 112.966 199.182 112.85 199.53 112.774C199.882 112.695 200.234 112.632 200.589 112.585C201.053 112.526 201.429 112.481 201.718 112.451C202.009 112.418 202.221 112.363 202.354 112.287C202.49 112.211 202.558 112.078 202.558 111.889V111.849C202.558 111.359 202.424 110.978 202.155 110.706C201.89 110.434 201.487 110.298 200.947 110.298C200.387 110.298 199.948 110.421 199.63 110.666C199.311 110.911 199.088 111.173 198.958 111.452L197.845 111.054C198.044 110.59 198.309 110.229 198.64 109.97C198.975 109.708 199.34 109.526 199.734 109.423C200.132 109.317 200.523 109.264 200.907 109.264C201.153 109.264 201.434 109.294 201.752 109.354C202.074 109.41 202.384 109.528 202.682 109.707C202.984 109.886 203.234 110.156 203.433 110.517C203.632 110.878 203.731 111.362 203.731 111.969V117H202.558V115.966H202.498C202.419 116.132 202.286 116.309 202.1 116.498C201.915 116.687 201.668 116.848 201.36 116.98C201.051 117.113 200.675 117.179 200.231 117.179ZM200.41 116.125C200.874 116.125 201.265 116.034 201.583 115.852C201.905 115.669 202.147 115.434 202.309 115.146C202.475 114.857 202.558 114.554 202.558 114.236V113.162C202.508 113.222 202.399 113.276 202.23 113.326C202.064 113.372 201.872 113.414 201.653 113.45C201.438 113.483 201.227 113.513 201.022 113.54C200.819 113.563 200.655 113.583 200.529 113.599C200.225 113.639 199.94 113.704 199.674 113.793C199.413 113.879 199.2 114.01 199.038 114.186C198.879 114.358 198.799 114.594 198.799 114.892C198.799 115.3 198.95 115.608 199.252 115.817C199.557 116.022 199.943 116.125 200.41 116.125ZM206.032 117V106.818H207.205V110.577H207.305C207.391 110.444 207.51 110.275 207.662 110.07C207.818 109.861 208.04 109.675 208.329 109.513C208.62 109.347 209.015 109.264 209.512 109.264C210.155 109.264 210.722 109.425 211.212 109.746C211.703 110.068 212.086 110.524 212.361 111.114C212.636 111.704 212.773 112.4 212.773 113.202C212.773 114.01 212.636 114.711 212.361 115.305C212.086 115.895 211.704 116.352 211.217 116.677C210.73 116.998 210.168 117.159 209.532 117.159C209.041 117.159 208.648 117.078 208.354 116.915C208.059 116.75 207.831 116.562 207.672 116.354C207.513 116.142 207.391 115.966 207.305 115.827H207.165V117H206.032ZM207.185 113.182C207.185 113.759 207.27 114.267 207.439 114.708C207.608 115.146 207.855 115.489 208.18 115.737C208.504 115.982 208.902 116.105 209.373 116.105C209.863 116.105 210.273 115.976 210.601 115.717C210.932 115.455 211.181 115.104 211.346 114.663C211.515 114.219 211.6 113.725 211.6 113.182C211.6 112.645 211.517 112.161 211.351 111.73C211.189 111.296 210.942 110.953 210.611 110.701C210.282 110.446 209.87 110.318 209.373 110.318C208.895 110.318 208.494 110.439 208.17 110.681C207.845 110.92 207.599 111.254 207.434 111.685C207.268 112.113 207.185 112.612 207.185 113.182ZM217.77 117.159C217.034 117.159 216.399 116.997 215.866 116.672C215.335 116.344 214.926 115.886 214.638 115.3C214.353 114.71 214.21 114.024 214.21 113.241C214.21 112.459 214.353 111.77 214.638 111.173C214.926 110.573 215.327 110.106 215.841 109.771C216.358 109.433 216.961 109.264 217.65 109.264C218.048 109.264 218.441 109.33 218.829 109.463C219.216 109.596 219.569 109.811 219.888 110.109C220.206 110.404 220.459 110.795 220.648 111.283C220.837 111.77 220.932 112.37 220.932 113.082V113.58H215.045V112.565H219.738C219.738 112.134 219.652 111.75 219.48 111.412C219.311 111.074 219.069 110.807 218.754 110.612C218.443 110.416 218.075 110.318 217.65 110.318C217.183 110.318 216.779 110.434 216.437 110.666C216.099 110.895 215.839 111.193 215.657 111.561C215.474 111.929 215.383 112.323 215.383 112.744V113.42C215.383 113.997 215.483 114.486 215.682 114.887C215.884 115.285 216.164 115.588 216.522 115.797C216.88 116.002 217.296 116.105 217.77 116.105C218.078 116.105 218.356 116.062 218.605 115.976C218.857 115.886 219.074 115.754 219.256 115.578C219.439 115.399 219.579 115.177 219.679 114.912L220.812 115.23C220.693 115.615 220.492 115.953 220.211 116.244C219.929 116.533 219.581 116.758 219.167 116.92C218.752 117.08 218.287 117.159 217.77 117.159ZM223.89 106.818V117H222.716V106.818H223.89Z" fill="white" fill-opacity="0.95"/>
<rect x="267.5" y="100.5" width="75" height="23" rx="3.5" fill="#102B2A"/>
<rect x="267.5" y="100.5" width="75" height="23" rx="3.5" stroke="#30C9B0"/>
<path d="M282.6 116.1C282.534 116.1 282.469 116.087 282.408 116.062C282.347 116.037 282.292 115.999 282.246 115.953L278.646 112.335C278.599 112.288 278.563 112.233 278.538 112.172C278.513 112.112 278.5 112.047 278.5 111.981C278.5 111.915 278.513 111.85 278.539 111.79C278.564 111.729 278.601 111.674 278.648 111.628C278.694 111.582 278.749 111.545 278.81 111.52C278.871 111.495 278.936 111.482 279.002 111.482C279.067 111.483 279.132 111.496 279.193 111.521C279.253 111.546 279.308 111.583 279.355 111.63L282.627 114.918L290.675 108.021C290.776 107.935 290.906 107.892 291.038 107.902C291.171 107.912 291.293 107.974 291.38 108.075C291.466 108.176 291.509 108.306 291.498 108.439C291.488 108.571 291.426 108.693 291.325 108.78L282.925 115.979C282.835 116.057 282.72 116.1 282.6 116.1Z" fill="white" fill-opacity="0.95"/>
<path d="M298.268 117V106.818H299.501V115.906H304.234V117H298.268ZM308.231 117.179C307.747 117.179 307.308 117.088 306.914 116.906C306.519 116.72 306.206 116.453 305.974 116.105C305.742 115.754 305.626 115.33 305.626 114.832C305.626 114.395 305.712 114.04 305.885 113.768C306.057 113.493 306.287 113.278 306.576 113.122C306.864 112.966 307.182 112.85 307.53 112.774C307.882 112.695 308.234 112.632 308.589 112.585C309.053 112.526 309.429 112.481 309.718 112.451C310.009 112.418 310.221 112.363 310.354 112.287C310.49 112.211 310.558 112.078 310.558 111.889V111.849C310.558 111.359 310.424 110.978 310.155 110.706C309.89 110.434 309.487 110.298 308.947 110.298C308.387 110.298 307.948 110.421 307.63 110.666C307.311 110.911 307.088 111.173 306.958 111.452L305.845 111.054C306.044 110.59 306.309 110.229 306.64 109.97C306.975 109.708 307.34 109.526 307.734 109.423C308.132 109.317 308.523 109.264 308.907 109.264C309.153 109.264 309.434 109.294 309.752 109.354C310.074 109.41 310.384 109.528 310.682 109.707C310.984 109.886 311.234 110.156 311.433 110.517C311.632 110.878 311.731 111.362 311.731 111.969V117H310.558V115.966H310.498C310.419 116.132 310.286 116.309 310.1 116.498C309.915 116.687 309.668 116.848 309.36 116.98C309.051 117.113 308.675 117.179 308.231 117.179ZM308.41 116.125C308.874 116.125 309.265 116.034 309.583 115.852C309.905 115.669 310.147 115.434 310.309 115.146C310.475 114.857 310.558 114.554 310.558 114.236V113.162C310.508 113.222 310.399 113.276 310.23 113.326C310.064 113.372 309.872 113.414 309.653 113.45C309.438 113.483 309.227 113.513 309.022 113.54C308.819 113.563 308.655 113.583 308.529 113.599C308.225 113.639 307.94 113.704 307.674 113.793C307.413 113.879 307.2 114.01 307.038 114.186C306.879 114.358 306.799 114.594 306.799 114.892C306.799 115.3 306.95 115.608 307.252 115.817C307.557 116.022 307.943 116.125 308.41 116.125ZM314.032 117V106.818H315.205V110.577H315.305C315.391 110.444 315.51 110.275 315.662 110.07C315.818 109.861 316.04 109.675 316.329 109.513C316.62 109.347 317.015 109.264 317.512 109.264C318.155 109.264 318.722 109.425 319.212 109.746C319.703 110.068 320.086 110.524 320.361 111.114C320.636 111.704 320.773 112.4 320.773 113.202C320.773 114.01 320.636 114.711 320.361 115.305C320.086 115.895 319.704 116.352 319.217 116.677C318.73 116.998 318.168 117.159 317.532 117.159C317.041 117.159 316.648 117.078 316.354 116.915C316.059 116.75 315.831 116.562 315.672 116.354C315.513 116.142 315.391 115.966 315.305 115.827H315.165V117H314.032ZM315.185 113.182C315.185 113.759 315.27 114.267 315.439 114.708C315.608 115.146 315.855 115.489 316.18 115.737C316.504 115.982 316.902 116.105 317.373 116.105C317.863 116.105 318.273 115.976 318.601 115.717C318.932 115.455 319.181 115.104 319.346 114.663C319.515 114.219 319.6 113.725 319.6 113.182C319.6 112.645 319.517 112.161 319.351 111.73C319.189 111.296 318.942 110.953 318.611 110.701C318.282 110.446 317.87 110.318 317.373 110.318C316.895 110.318 316.494 110.439 316.17 110.681C315.845 110.92 315.599 111.254 315.434 111.685C315.268 112.113 315.185 112.612 315.185 113.182ZM325.77 117.159C325.034 117.159 324.399 116.997 323.866 116.672C323.335 116.344 322.926 115.886 322.638 115.3C322.353 114.71 322.21 114.024 322.21 113.241C322.21 112.459 322.353 111.77 322.638 111.173C322.926 110.573 323.327 110.106 323.841 109.771C324.358 109.433 324.961 109.264 325.65 109.264C326.048 109.264 326.441 109.33 326.829 109.463C327.216 109.596 327.569 109.811 327.888 110.109C328.206 110.404 328.459 110.795 328.648 111.283C328.837 111.77 328.932 112.37 328.932 113.082V113.58H323.045V112.565H327.738C327.738 112.134 327.652 111.75 327.48 111.412C327.311 111.074 327.069 110.807 326.754 110.612C326.443 110.416 326.075 110.318 325.65 110.318C325.183 110.318 324.779 110.434 324.437 110.666C324.099 110.895 323.839 111.193 323.657 111.561C323.474 111.929 323.383 112.323 323.383 112.744V113.42C323.383 113.997 323.483 114.486 323.682 114.887C323.884 115.285 324.164 115.588 324.522 115.797C324.88 116.002 325.296 116.105 325.77 116.105C326.078 116.105 326.356 116.062 326.605 115.976C326.857 115.886 327.074 115.754 327.256 115.578C327.439 115.399 327.579 115.177 327.679 114.912L328.812 115.23C328.693 115.615 328.492 115.953 328.211 116.244C327.929 116.533 327.581 116.758 327.167 116.92C326.752 117.08 326.287 117.159 325.77 117.159ZM331.89 106.818V117H330.716V106.818H331.89Z" fill="white" fill-opacity="0.95"/>
<rect x="375.5" y="100.5" width="75" height="23" rx="3.5" fill="#1E2B10"/>
<rect x="375.5" y="100.5" width="75" height="23" rx="3.5" stroke="#93C437"/>
<path d="M390.6 116.1C390.534 116.1 390.469 116.087 390.408 116.062C390.347 116.037 390.292 115.999 390.246 115.953L386.646 112.335C386.599 112.288 386.563 112.233 386.538 112.172C386.513 112.112 386.5 112.047 386.5 111.981C386.5 111.915 386.513 111.85 386.539 111.79C386.564 111.729 386.601 111.674 386.648 111.628C386.694 111.582 386.749 111.545 386.81 111.52C386.871 111.495 386.936 111.482 387.002 111.482C387.067 111.483 387.132 111.496 387.193 111.521C387.253 111.546 387.308 111.583 387.355 111.63L390.627 114.918L398.675 108.021C398.776 107.935 398.906 107.892 399.038 107.902C399.171 107.912 399.293 107.974 399.38 108.075C399.466 108.176 399.509 108.306 399.498 108.439C399.488 108.571 399.426 108.693 399.325 108.78L390.925 115.979C390.835 116.057 390.72 116.1 390.6 116.1Z" fill="white" fill-opacity="0.95"/>
<path d="M406.268 117V106.818H407.501V115.906H412.234V117H406.268ZM416.231 117.179C415.747 117.179 415.308 117.088 414.914 116.906C414.519 116.72 414.206 116.453 413.974 116.105C413.742 115.754 413.626 115.33 413.626 114.832C413.626 114.395 413.712 114.04 413.885 113.768C414.057 113.493 414.287 113.278 414.576 113.122C414.864 112.966 415.182 112.85 415.53 112.774C415.882 112.695 416.234 112.632 416.589 112.585C417.053 112.526 417.429 112.481 417.718 112.451C418.009 112.418 418.221 112.363 418.354 112.287C418.49 112.211 418.558 112.078 418.558 111.889V111.849C418.558 111.359 418.424 110.978 418.155 110.706C417.89 110.434 417.487 110.298 416.947 110.298C416.387 110.298 415.948 110.421 415.63 110.666C415.311 110.911 415.088 111.173 414.958 111.452L413.845 111.054C414.044 110.59 414.309 110.229 414.64 109.97C414.975 109.708 415.34 109.526 415.734 109.423C416.132 109.317 416.523 109.264 416.907 109.264C417.153 109.264 417.434 109.294 417.752 109.354C418.074 109.41 418.384 109.528 418.682 109.707C418.984 109.886 419.234 110.156 419.433 110.517C419.632 110.878 419.731 111.362 419.731 111.969V117H418.558V115.966H418.498C418.419 116.132 418.286 116.309 418.1 116.498C417.915 116.687 417.668 116.848 417.36 116.98C417.051 117.113 416.675 117.179 416.231 117.179ZM416.41 116.125C416.874 116.125 417.265 116.034 417.583 115.852C417.905 115.669 418.147 115.434 418.309 115.146C418.475 114.857 418.558 114.554 418.558 114.236V113.162C418.508 113.222 418.399 113.276 418.23 113.326C418.064 113.372 417.872 113.414 417.653 113.45C417.438 113.483 417.227 113.513 417.022 113.54C416.819 113.563 416.655 113.583 416.529 113.599C416.225 113.639 415.94 113.704 415.674 113.793C415.413 113.879 415.2 114.01 415.038 114.186C414.879 114.358 414.799 114.594 414.799 114.892C414.799 115.3 414.95 115.608 415.252 115.817C415.557 116.022 415.943 116.125 416.41 116.125ZM422.032 117V106.818H423.205V110.577H423.305C423.391 110.444 423.51 110.275 423.662 110.07C423.818 109.861 424.04 109.675 424.329 109.513C424.62 109.347 425.015 109.264 425.512 109.264C426.155 109.264 426.722 109.425 427.212 109.746C427.703 110.068 428.086 110.524 428.361 111.114C428.636 111.704 428.773 112.4 428.773 113.202C428.773 114.01 428.636 114.711 428.361 115.305C428.086 115.895 427.704 116.352 427.217 116.677C426.73 116.998 426.168 117.159 425.532 117.159C425.041 117.159 424.648 117.078 424.354 116.915C424.059 116.75 423.831 116.562 423.672 116.354C423.513 116.142 423.391 115.966 423.305 115.827H423.165V117H422.032ZM423.185 113.182C423.185 113.759 423.27 114.267 423.439 114.708C423.608 115.146 423.855 115.489 424.18 115.737C424.504 115.982 424.902 116.105 425.373 116.105C425.863 116.105 426.273 115.976 426.601 115.717C426.932 115.455 427.181 115.104 427.346 114.663C427.515 114.219 427.6 113.725 427.6 113.182C427.6 112.645 427.517 112.161 427.351 111.73C427.189 111.296 426.942 110.953 426.611 110.701C426.282 110.446 425.87 110.318 425.373 110.318C424.895 110.318 424.494 110.439 424.17 110.681C423.845 110.92 423.599 111.254 423.434 111.685C423.268 112.113 423.185 112.612 423.185 113.182ZM433.77 117.159C433.034 117.159 432.399 116.997 431.866 116.672C431.335 116.344 430.926 115.886 430.638 115.3C430.353 114.71 430.21 114.024 430.21 113.241C430.21 112.459 430.353 111.77 430.638 111.173C430.926 110.573 431.327 110.106 431.841 109.771C432.358 109.433 432.961 109.264 433.65 109.264C434.048 109.264 434.441 109.33 434.829 109.463C435.216 109.596 435.569 109.811 435.888 110.109C436.206 110.404 436.459 110.795 436.648 111.283C436.837 111.77 436.932 112.37 436.932 113.082V113.58H431.045V112.565H435.738C435.738 112.134 435.652 111.75 435.48 111.412C435.311 111.074 435.069 110.807 434.754 110.612C434.443 110.416 434.075 110.318 433.65 110.318C433.183 110.318 432.779 110.434 432.437 110.666C432.099 110.895 431.839 111.193 431.657 111.561C431.474 111.929 431.383 112.323 431.383 112.744V113.42C431.383 113.997 431.483 114.486 431.682 114.887C431.884 115.285 432.164 115.588 432.522 115.797C432.88 116.002 433.296 116.105 433.77 116.105C434.078 116.105 434.356 116.062 434.605 115.976C434.857 115.886 435.074 115.754 435.256 115.578C435.439 115.399 435.579 115.177 435.679 114.912L436.812 115.23C436.693 115.615 436.492 115.953 436.211 116.244C435.929 116.533 435.581 116.758 435.167 116.92C434.752 117.08 434.287 117.159 433.77 117.159ZM439.89 106.818V117H438.716V106.818H439.89Z" fill="white" fill-opacity="0.95"/>
<rect x="483.5" y="100.5" width="75" height="23" rx="3.5" fill="#30240D"/>
<rect x="483.5" y="100.5" width="75" height="23" rx="3.5" stroke="#D6B220"/>
<path d="M498.6 116.1C498.534 116.1 498.469 116.087 498.408 116.062C498.347 116.037 498.292 115.999 498.246 115.953L494.646 112.335C494.599 112.288 494.563 112.233 494.538 112.172C494.513 112.112 494.5 112.047 494.5 111.981C494.5 111.915 494.513 111.85 494.539 111.79C494.564 111.729 494.601 111.674 494.648 111.628C494.694 111.582 494.749 111.545 494.81 111.52C494.871 111.495 494.936 111.482 495.002 111.482C495.067 111.483 495.132 111.496 495.193 111.521C495.253 111.546 495.308 111.583 495.355 111.63L498.627 114.918L506.675 108.021C506.776 107.935 506.906 107.892 507.038 107.902C507.171 107.912 507.293 107.974 507.38 108.075C507.466 108.176 507.509 108.306 507.498 108.439C507.488 108.571 507.426 108.693 507.325 108.78L498.925 115.979C498.835 116.057 498.72 116.1 498.6 116.1Z" fill="white" fill-opacity="0.95"/>
<path d="M514.268 117V106.818H515.501V115.906H520.234V117H514.268ZM524.231 117.179C523.747 117.179 523.308 117.088 522.914 116.906C522.519 116.72 522.206 116.453 521.974 116.105C521.742 115.754 521.626 115.33 521.626 114.832C521.626 114.395 521.712 114.04 521.885 113.768C522.057 113.493 522.287 113.278 522.576 113.122C522.864 112.966 523.182 112.85 523.53 112.774C523.882 112.695 524.234 112.632 524.589 112.585C525.053 112.526 525.429 112.481 525.718 112.451C526.009 112.418 526.221 112.363 526.354 112.287C526.49 112.211 526.558 112.078 526.558 111.889V111.849C526.558 111.359 526.424 110.978 526.155 110.706C525.89 110.434 525.487 110.298 524.947 110.298C524.387 110.298 523.948 110.421 523.63 110.666C523.311 110.911 523.088 111.173 522.958 111.452L521.845 111.054C522.044 110.59 522.309 110.229 522.64 109.97C522.975 109.708 523.34 109.526 523.734 109.423C524.132 109.317 524.523 109.264 524.907 109.264C525.153 109.264 525.434 109.294 525.752 109.354C526.074 109.41 526.384 109.528 526.682 109.707C526.984 109.886 527.234 110.156 527.433 110.517C527.632 110.878 527.731 111.362 527.731 111.969V117H526.558V115.966H526.498C526.419 116.132 526.286 116.309 526.1 116.498C525.915 116.687 525.668 116.848 525.36 116.98C525.051 117.113 524.675 117.179 524.231 117.179ZM524.41 116.125C524.874 116.125 525.265 116.034 525.583 115.852C525.905 115.669 526.147 115.434 526.309 115.146C526.475 114.857 526.558 114.554 526.558 114.236V113.162C526.508 113.222 526.399 113.276 526.23 113.326C526.064 113.372 525.872 113.414 525.653 113.45C525.438 113.483 525.227 113.513 525.022 113.54C524.819 113.563 524.655 113.583 524.529 113.599C524.225 113.639 523.94 113.704 523.674 113.793C523.413 113.879 523.2 114.01 523.038 114.186C522.879 114.358 522.799 114.594 522.799 114.892C522.799 115.3 522.95 115.608 523.252 115.817C523.557 116.022 523.943 116.125 524.41 116.125ZM530.032 117V106.818H531.205V110.577H531.305C531.391 110.444 531.51 110.275 531.662 110.07C531.818 109.861 532.04 109.675 532.329 109.513C532.62 109.347 533.015 109.264 533.512 109.264C534.155 109.264 534.722 109.425 535.212 109.746C535.703 110.068 536.086 110.524 536.361 111.114C536.636 111.704 536.773 112.4 536.773 113.202C536.773 114.01 536.636 114.711 536.361 115.305C536.086 115.895 535.704 116.352 535.217 116.677C534.73 116.998 534.168 117.159 533.532 117.159C533.041 117.159 532.648 117.078 532.354 116.915C532.059 116.75 531.831 116.562 531.672 116.354C531.513 116.142 531.391 115.966 531.305 115.827H531.165V117H530.032ZM531.185 113.182C531.185 113.759 531.27 114.267 531.439 114.708C531.608 115.146 531.855 115.489 532.18 115.737C532.504 115.982 532.902 116.105 533.373 116.105C533.863 116.105 534.273 115.976 534.601 115.717C534.932 115.455 535.181 115.104 535.346 114.663C535.515 114.219 535.6 113.725 535.6 113.182C535.6 112.645 535.517 112.161 535.351 111.73C535.189 111.296 534.942 110.953 534.611 110.701C534.282 110.446 533.87 110.318 533.373 110.318C532.895 110.318 532.494 110.439 532.17 110.681C531.845 110.92 531.599 111.254 531.434 111.685C531.268 112.113 531.185 112.612 531.185 113.182ZM541.77 117.159C541.034 117.159 540.399 116.997 539.866 116.672C539.335 116.344 538.926 115.886 538.638 115.3C538.353 114.71 538.21 114.024 538.21 113.241C538.21 112.459 538.353 111.77 538.638 111.173C538.926 110.573 539.327 110.106 539.841 109.771C540.358 109.433 540.961 109.264 541.65 109.264C542.048 109.264 542.441 109.33 542.829 109.463C543.216 109.596 543.569 109.811 543.888 110.109C544.206 110.404 544.459 110.795 544.648 111.283C544.837 111.77 544.932 112.37 544.932 113.082V113.58H539.045V112.565H543.738C543.738 112.134 543.652 111.75 543.48 111.412C543.311 111.074 543.069 110.807 542.754 110.612C542.443 110.416 542.075 110.318 541.65 110.318C541.183 110.318 540.779 110.434 540.437 110.666C540.099 110.895 539.839 111.193 539.657 111.561C539.474 111.929 539.383 112.323 539.383 112.744V113.42C539.383 113.997 539.483 114.486 539.682 114.887C539.884 115.285 540.164 115.588 540.522 115.797C540.88 116.002 541.296 116.105 541.77 116.105C542.078 116.105 542.356 116.062 542.605 115.976C542.857 115.886 543.074 115.754 543.256 115.578C543.439 115.399 543.579 115.177 543.679 114.912L544.812 115.23C544.693 115.615 544.492 115.953 544.211 116.244C543.929 116.533 543.581 116.758 543.167 116.92C542.752 117.08 542.287 117.159 541.77 117.159ZM547.89 106.818V117H546.716V106.818H547.89Z" fill="white" fill-opacity="0.95"/>
<rect x="591.5" y="100.5" width="75" height="23" rx="3.5" fill="#3B1E21"/>
<rect x="591.5" y="100.5" width="75" height="23" rx="3.5" stroke="#FC97AA"/>
<path d="M606.6 116.1C606.534 116.1 606.469 116.087 606.408 116.062C606.347 116.037 606.292 115.999 606.246 115.953L602.646 112.335C602.599 112.288 602.563 112.233 602.538 112.172C602.513 112.112 602.5 112.047 602.5 111.981C602.5 111.915 602.513 111.85 602.539 111.79C602.564 111.729 602.601 111.674 602.648 111.628C602.694 111.582 602.749 111.545 602.81 111.52C602.871 111.495 602.936 111.482 603.002 111.482C603.067 111.483 603.132 111.496 603.193 111.521C603.253 111.546 603.308 111.583 603.355 111.63L606.627 114.918L614.675 108.021C614.776 107.935 614.906 107.892 615.038 107.902C615.171 107.912 615.293 107.974 615.38 108.075C615.466 108.176 615.509 108.306 615.498 108.439C615.488 108.571 615.426 108.693 615.325 108.78L606.925 115.979C606.835 116.057 606.72 116.1 606.6 116.1Z" fill="white" fill-opacity="0.95"/>
<path d="M622.268 117V106.818H623.501V115.906H628.234V117H622.268ZM632.231 117.179C631.747 117.179 631.308 117.088 630.914 116.906C630.519 116.72 630.206 116.453 629.974 116.105C629.742 115.754 629.626 115.33 629.626 114.832C629.626 114.395 629.712 114.04 629.885 113.768C630.057 113.493 630.287 113.278 630.576 113.122C630.864 112.966 631.182 112.85 631.53 112.774C631.882 112.695 632.234 112.632 632.589 112.585C633.053 112.526 633.429 112.481 633.718 112.451C634.009 112.418 634.221 112.363 634.354 112.287C634.49 112.211 634.558 112.078 634.558 111.889V111.849C634.558 111.359 634.424 110.978 634.155 110.706C633.89 110.434 633.487 110.298 632.947 110.298C632.387 110.298 631.948 110.421 631.63 110.666C631.311 110.911 631.088 111.173 630.958 111.452L629.845 111.054C630.044 110.59 630.309 110.229 630.64 109.97C630.975 109.708 631.34 109.526 631.734 109.423C632.132 109.317 632.523 109.264 632.907 109.264C633.153 109.264 633.434 109.294 633.752 109.354C634.074 109.41 634.384 109.528 634.682 109.707C634.984 109.886 635.234 110.156 635.433 110.517C635.632 110.878 635.731 111.362 635.731 111.969V117H634.558V115.966H634.498C634.419 116.132 634.286 116.309 634.1 116.498C633.915 116.687 633.668 116.848 633.36 116.98C633.051 117.113 632.675 117.179 632.231 117.179ZM632.41 116.125C632.874 116.125 633.265 116.034 633.583 115.852C633.905 115.669 634.147 115.434 634.309 115.146C634.475 114.857 634.558 114.554 634.558 114.236V113.162C634.508 113.222 634.399 113.276 634.23 113.326C634.064 113.372 633.872 113.414 633.653 113.45C633.438 113.483 633.227 113.513 633.022 113.54C632.819 113.563 632.655 113.583 632.529 113.599C632.225 113.639 631.94 113.704 631.674 113.793C631.413 113.879 631.2 114.01 631.038 114.186C630.879 114.358 630.799 114.594 630.799 114.892C630.799 115.3 630.95 115.608 631.252 115.817C631.557 116.022 631.943 116.125 632.41 116.125ZM638.032 117V106.818H639.205V110.577H639.305C639.391 110.444 639.51 110.275 639.662 110.07C639.818 109.861 640.04 109.675 640.329 109.513C640.62 109.347 641.015 109.264 641.512 109.264C642.155 109.264 642.722 109.425 643.212 109.746C643.703 110.068 644.086 110.524 644.361 111.114C644.636 111.704 644.773 112.4 644.773 113.202C644.773 114.01 644.636 114.711 644.361 115.305C644.086 115.895 643.704 116.352 643.217 116.677C642.73 116.998 642.168 117.159 641.532 117.159C641.041 117.159 640.648 117.078 640.354 116.915C640.059 116.75 639.831 116.562 639.672 116.354C639.513 116.142 639.391 115.966 639.305 115.827H639.165V117H638.032ZM639.185 113.182C639.185 113.759 639.27 114.267 639.439 114.708C639.608 115.146 639.855 115.489 640.18 115.737C640.504 115.982 640.902 116.105 641.373 116.105C641.863 116.105 642.273 115.976 642.601 115.717C642.932 115.455 643.181 115.104 643.346 114.663C643.515 114.219 643.6 113.725 643.6 113.182C643.6 112.645 643.517 112.161 643.351 111.73C643.189 111.296 642.942 110.953 642.611 110.701C642.282 110.446 641.87 110.318 641.373 110.318C640.895 110.318 640.494 110.439 640.17 110.681C639.845 110.92 639.599 111.254 639.434 111.685C639.268 112.113 639.185 112.612 639.185 113.182ZM649.77 117.159C649.034 117.159 648.399 116.997 647.866 116.672C647.335 116.344 646.926 115.886 646.638 115.3C646.353 114.71 646.21 114.024 646.21 113.241C646.21 112.459 646.353 111.77 646.638 111.173C646.926 110.573 647.327 110.106 647.841 109.771C648.358 109.433 648.961 109.264 649.65 109.264C650.048 109.264 650.441 109.33 650.829 109.463C651.216 109.596 651.569 109.811 651.888 110.109C652.206 110.404 652.459 110.795 652.648 111.283C652.837 111.77 652.932 112.37 652.932 113.082V113.58H647.045V112.565H651.738C651.738 112.134 651.652 111.75 651.48 111.412C651.311 111.074 651.069 110.807 650.754 110.612C650.443 110.416 650.075 110.318 649.65 110.318C649.183 110.318 648.779 110.434 648.437 110.666C648.099 110.895 647.839 111.193 647.657 111.561C647.474 111.929 647.383 112.323 647.383 112.744V113.42C647.383 113.997 647.483 114.486 647.682 114.887C647.884 115.285 648.164 115.588 648.522 115.797C648.88 116.002 649.296 116.105 649.77 116.105C650.078 116.105 650.356 116.062 650.605 115.976C650.857 115.886 651.074 115.754 651.256 115.578C651.439 115.399 651.579 115.177 651.679 114.912L652.812 115.23C652.693 115.615 652.492 115.953 652.211 116.244C651.929 116.533 651.581 116.758 651.167 116.92C650.752 117.08 650.287 117.159 649.77 117.159ZM655.89 106.818V117H654.716V106.818H655.89Z" fill="white" fill-opacity="0.95"/>
<rect x="699.5" y="100.5" width="75" height="23" rx="3.5" fill="#3B1840"/>
<rect x="699.5" y="100.5" width="75" height="23" rx="3.5" stroke="#F294F1"/>
<path d="M714.6 116.1C714.534 116.1 714.469 116.087 714.408 116.062C714.347 116.037 714.292 115.999 714.246 115.953L710.646 112.335C710.599 112.288 710.563 112.233 710.538 112.172C710.513 112.112 710.5 112.047 710.5 111.981C710.5 111.915 710.513 111.85 710.539 111.79C710.564 111.729 710.601 111.674 710.648 111.628C710.694 111.582 710.749 111.545 710.81 111.52C710.871 111.495 710.936 111.482 711.002 111.482C711.067 111.483 711.132 111.496 711.193 111.521C711.253 111.546 711.308 111.583 711.355 111.63L714.627 114.918L722.675 108.021C722.776 107.935 722.906 107.892 723.038 107.902C723.171 107.912 723.293 107.974 723.38 108.075C723.466 108.176 723.509 108.306 723.498 108.439C723.488 108.571 723.426 108.693 723.325 108.78L714.925 115.979C714.835 116.057 714.72 116.1 714.6 116.1Z" fill="white" fill-opacity="0.95"/>
<path d="M730.268 117V106.818H731.501V115.906H736.234V117H730.268ZM740.231 117.179C739.747 117.179 739.308 117.088 738.914 116.906C738.519 116.72 738.206 116.453 737.974 116.105C737.742 115.754 737.626 115.33 737.626 114.832C737.626 114.395 737.712 114.04 737.885 113.768C738.057 113.493 738.287 113.278 738.576 113.122C738.864 112.966 739.182 112.85 739.53 112.774C739.882 112.695 740.234 112.632 740.589 112.585C741.053 112.526 741.429 112.481 741.718 112.451C742.009 112.418 742.221 112.363 742.354 112.287C742.49 112.211 742.558 112.078 742.558 111.889V111.849C742.558 111.359 742.424 110.978 742.155 110.706C741.89 110.434 741.487 110.298 740.947 110.298C740.387 110.298 739.948 110.421 739.63 110.666C739.311 110.911 739.088 111.173 738.958 111.452L737.845 111.054C738.044 110.59 738.309 110.229 738.64 109.97C738.975 109.708 739.34 109.526 739.734 109.423C740.132 109.317 740.523 109.264 740.907 109.264C741.153 109.264 741.434 109.294 741.752 109.354C742.074 109.41 742.384 109.528 742.682 109.707C742.984 109.886 743.234 110.156 743.433 110.517C743.632 110.878 743.731 111.362 743.731 111.969V117H742.558V115.966H742.498C742.419 116.132 742.286 116.309 742.1 116.498C741.915 116.687 741.668 116.848 741.36 116.98C741.051 117.113 740.675 117.179 740.231 117.179ZM740.41 116.125C740.874 116.125 741.265 116.034 741.583 115.852C741.905 115.669 742.147 115.434 742.309 115.146C742.475 114.857 742.558 114.554 742.558 114.236V113.162C742.508 113.222 742.399 113.276 742.23 113.326C742.064 113.372 741.872 113.414 741.653 113.45C741.438 113.483 741.227 113.513 741.022 113.54C740.819 113.563 740.655 113.583 740.529 113.599C740.225 113.639 739.94 113.704 739.674 113.793C739.413 113.879 739.2 114.01 739.038 114.186C738.879 114.358 738.799 114.594 738.799 114.892C738.799 115.3 738.95 115.608 739.252 115.817C739.557 116.022 739.943 116.125 740.41 116.125ZM746.032 117V106.818H747.205V110.577H747.305C747.391 110.444 747.51 110.275 747.662 110.07C747.818 109.861 748.04 109.675 748.329 109.513C748.62 109.347 749.015 109.264 749.512 109.264C750.155 109.264 750.722 109.425 751.212 109.746C751.703 110.068 752.086 110.524 752.361 111.114C752.636 111.704 752.773 112.4 752.773 113.202C752.773 114.01 752.636 114.711 752.361 115.305C752.086 115.895 751.704 116.352 751.217 116.677C750.73 116.998 750.168 117.159 749.532 117.159C749.041 117.159 748.648 117.078 748.354 116.915C748.059 116.75 747.831 116.562 747.672 116.354C747.513 116.142 747.391 115.966 747.305 115.827H747.165V117H746.032ZM747.185 113.182C747.185 113.759 747.27 114.267 747.439 114.708C747.608 115.146 747.855 115.489 748.18 115.737C748.504 115.982 748.902 116.105 749.373 116.105C749.863 116.105 750.273 115.976 750.601 115.717C750.932 115.455 751.181 115.104 751.346 114.663C751.515 114.219 751.6 113.725 751.6 113.182C751.6 112.645 751.517 112.161 751.351 111.73C751.189 111.296 750.942 110.953 750.611 110.701C750.282 110.446 749.87 110.318 749.373 110.318C748.895 110.318 748.494 110.439 748.17 110.681C747.845 110.92 747.599 111.254 747.434 111.685C747.268 112.113 747.185 112.612 747.185 113.182ZM757.77 117.159C757.034 117.159 756.399 116.997 755.866 116.672C755.335 116.344 754.926 115.886 754.638 115.3C754.353 114.71 754.21 114.024 754.21 113.241C754.21 112.459 754.353 111.77 754.638 111.173C754.926 110.573 755.327 110.106 755.841 109.771C756.358 109.433 756.961 109.264 757.65 109.264C758.048 109.264 758.441 109.33 758.829 109.463C759.216 109.596 759.569 109.811 759.888 110.109C760.206 110.404 760.459 110.795 760.648 111.283C760.837 111.77 760.932 112.37 760.932 113.082V113.58H755.045V112.565H759.738C759.738 112.134 759.652 111.75 759.48 111.412C759.311 111.074 759.069 110.807 758.754 110.612C758.443 110.416 758.075 110.318 757.65 110.318C757.183 110.318 756.779 110.434 756.437 110.666C756.099 110.895 755.839 111.193 755.657 111.561C755.474 111.929 755.383 112.323 755.383 112.744V113.42C755.383 113.997 755.483 114.486 755.682 114.887C755.884 115.285 756.164 115.588 756.522 115.797C756.88 116.002 757.296 116.105 757.77 116.105C758.078 116.105 758.356 116.062 758.605 115.976C758.857 115.886 759.074 115.754 759.256 115.578C759.439 115.399 759.579 115.177 759.679 114.912L760.812 115.23C760.693 115.615 760.492 115.953 760.211 116.244C759.929 116.533 759.581 116.758 759.167 116.92C758.752 117.08 758.287 117.159 757.77 117.159ZM763.89 106.818V117H762.716V106.818H763.89Z" fill="white" fill-opacity="0.95"/>
<rect x="807.5" y="100.5" width="75" height="23" rx="3.5" fill="#29223D"/>
<rect x="807.5" y="100.5" width="75" height="23" rx="3.5" stroke="#C7A5FA"/>
<path d="M822.6 116.1C822.534 116.1 822.469 116.087 822.408 116.062C822.347 116.037 822.292 115.999 822.246 115.953L818.646 112.335C818.599 112.288 818.563 112.233 818.538 112.172C818.513 112.112 818.5 112.047 818.5 111.981C818.5 111.915 818.513 111.85 818.539 111.79C818.564 111.729 818.601 111.674 818.648 111.628C818.694 111.582 818.749 111.545 818.81 111.52C818.871 111.495 818.936 111.482 819.002 111.482C819.067 111.483 819.132 111.496 819.193 111.521C819.253 111.546 819.308 111.583 819.355 111.63L822.627 114.918L830.675 108.021C830.776 107.935 830.906 107.892 831.038 107.902C831.171 107.912 831.293 107.974 831.38 108.075C831.466 108.176 831.509 108.306 831.498 108.439C831.488 108.571 831.426 108.693 831.325 108.78L822.925 115.979C822.835 116.057 822.72 116.1 822.6 116.1Z" fill="white" fill-opacity="0.95"/>
<path d="M838.268 117V106.818H839.501V115.906H844.234V117H838.268ZM848.231 117.179C847.747 117.179 847.308 117.088 846.914 116.906C846.519 116.72 846.206 116.453 845.974 116.105C845.742 115.754 845.626 115.33 845.626 114.832C845.626 114.395 845.712 114.04 845.885 113.768C846.057 113.493 846.287 113.278 846.576 113.122C846.864 112.966 847.182 112.85 847.53 112.774C847.882 112.695 848.234 112.632 848.589 112.585C849.053 112.526 849.429 112.481 849.718 112.451C850.009 112.418 850.221 112.363 850.354 112.287C850.49 112.211 850.558 112.078 850.558 111.889V111.849C850.558 111.359 850.424 110.978 850.155 110.706C849.89 110.434 849.487 110.298 848.947 110.298C848.387 110.298 847.948 110.421 847.63 110.666C847.311 110.911 847.088 111.173 846.958 111.452L845.845 111.054C846.044 110.59 846.309 110.229 846.64 109.97C846.975 109.708 847.34 109.526 847.734 109.423C848.132 109.317 848.523 109.264 848.907 109.264C849.153 109.264 849.434 109.294 849.752 109.354C850.074 109.41 850.384 109.528 850.682 109.707C850.984 109.886 851.234 110.156 851.433 110.517C851.632 110.878 851.731 111.362 851.731 111.969V117H850.558V115.966H850.498C850.419 116.132 850.286 116.309 850.1 116.498C849.915 116.687 849.668 116.848 849.36 116.98C849.051 117.113 848.675 117.179 848.231 117.179ZM848.41 116.125C848.874 116.125 849.265 116.034 849.583 115.852C849.905 115.669 850.147 115.434 850.309 115.146C850.475 114.857 850.558 114.554 850.558 114.236V113.162C850.508 113.222 850.399 113.276 850.23 113.326C850.064 113.372 849.872 113.414 849.653 113.45C849.438 113.483 849.227 113.513 849.022 113.54C848.819 113.563 848.655 113.583 848.529 113.599C848.225 113.639 847.94 113.704 847.674 113.793C847.413 113.879 847.2 114.01 847.038 114.186C846.879 114.358 846.799 114.594 846.799 114.892C846.799 115.3 846.95 115.608 847.252 115.817C847.557 116.022 847.943 116.125 848.41 116.125ZM854.032 117V106.818H855.205V110.577H855.305C855.391 110.444 855.51 110.275 855.662 110.07C855.818 109.861 856.04 109.675 856.329 109.513C856.62 109.347 857.015 109.264 857.512 109.264C858.155 109.264 858.722 109.425 859.212 109.746C859.703 110.068 860.086 110.524 860.361 111.114C860.636 111.704 860.773 112.4 860.773 113.202C860.773 114.01 860.636 114.711 860.361 115.305C860.086 115.895 859.704 116.352 859.217 116.677C858.73 116.998 858.168 117.159 857.532 117.159C857.041 117.159 856.648 117.078 856.354 116.915C856.059 116.75 855.831 116.562 855.672 116.354C855.513 116.142 855.391 115.966 855.305 115.827H855.165V117H854.032ZM855.185 113.182C855.185 113.759 855.27 114.267 855.439 114.708C855.608 115.146 855.855 115.489 856.18 115.737C856.504 115.982 856.902 116.105 857.373 116.105C857.863 116.105 858.273 115.976 858.601 115.717C858.932 115.455 859.181 115.104 859.346 114.663C859.515 114.219 859.6 113.725 859.6 113.182C859.6 112.645 859.517 112.161 859.351 111.73C859.189 111.296 858.942 110.953 858.611 110.701C858.282 110.446 857.87 110.318 857.373 110.318C856.895 110.318 856.494 110.439 856.17 110.681C855.845 110.92 855.599 111.254 855.434 111.685C855.268 112.113 855.185 112.612 855.185 113.182ZM865.77 117.159C865.034 117.159 864.399 116.997 863.866 116.672C863.335 116.344 862.926 115.886 862.638 115.3C862.353 114.71 862.21 114.024 862.21 113.241C862.21 112.459 862.353 111.77 862.638 111.173C862.926 110.573 863.327 110.106 863.841 109.771C864.358 109.433 864.961 109.264 865.65 109.264C866.048 109.264 866.441 109.33 866.829 109.463C867.216 109.596 867.569 109.811 867.888 110.109C868.206 110.404 868.459 110.795 868.648 111.283C868.837 111.77 868.932 112.37 868.932 113.082V113.58H863.045V112.565H867.738C867.738 112.134 867.652 111.75 867.48 111.412C867.311 111.074 867.069 110.807 866.754 110.612C866.443 110.416 866.075 110.318 865.65 110.318C865.183 110.318 864.779 110.434 864.437 110.666C864.099 110.895 863.839 111.193 863.657 111.561C863.474 111.929 863.383 112.323 863.383 112.744V113.42C863.383 113.997 863.483 114.486 863.682 114.887C863.884 115.285 864.164 115.588 864.522 115.797C864.88 116.002 865.296 116.105 865.77 116.105C866.078 116.105 866.356 116.062 866.605 115.976C866.857 115.886 867.074 115.754 867.256 115.578C867.439 115.399 867.579 115.177 867.679 114.912L868.812 115.23C868.693 115.615 868.492 115.953 868.211 116.244C867.929 116.533 867.581 116.758 867.167 116.92C866.752 117.08 866.287 117.159 865.77 117.159ZM871.89 106.818V117H870.716V106.818H871.89Z" fill="white" fill-opacity="0.95"/>
<rect x="915.5" y="100.5" width="75" height="23" rx="3.5" fill="#26262B"/>
<rect x="915.5" y="100.5" width="75" height="23" rx="3.5" stroke="#B0B4D9"/>
<path d="M930.6 116.1C930.534 116.1 930.469 116.087 930.408 116.062C930.347 116.037 930.292 115.999 930.246 115.953L926.646 112.335C926.599 112.288 926.563 112.233 926.538 112.172C926.513 112.112 926.5 112.047 926.5 111.981C926.5 111.915 926.513 111.85 926.539 111.79C926.564 111.729 926.601 111.674 926.648 111.628C926.694 111.582 926.749 111.545 926.81 111.52C926.871 111.495 926.936 111.482 927.002 111.482C927.067 111.483 927.132 111.496 927.193 111.521C927.253 111.546 927.308 111.583 927.355 111.63L930.627 114.918L938.675 108.021C938.776 107.935 938.906 107.892 939.038 107.902C939.171 107.912 939.293 107.974 939.38 108.075C939.466 108.176 939.509 108.306 939.498 108.439C939.488 108.571 939.426 108.693 939.325 108.78L930.925 115.979C930.835 116.057 930.72 116.1 930.6 116.1Z" fill="white" fill-opacity="0.95"/>
<path d="M946.268 117V106.818H947.501V115.906H952.234V117H946.268ZM956.231 117.179C955.747 117.179 955.308 117.088 954.914 116.906C954.519 116.72 954.206 116.453 953.974 116.105C953.742 115.754 953.626 115.33 953.626 114.832C953.626 114.395 953.712 114.04 953.885 113.768C954.057 113.493 954.287 113.278 954.576 113.122C954.864 112.966 955.182 112.85 955.53 112.774C955.882 112.695 956.234 112.632 956.589 112.585C957.053 112.526 957.429 112.481 957.718 112.451C958.009 112.418 958.221 112.363 958.354 112.287C958.49 112.211 958.558 112.078 958.558 111.889V111.849C958.558 111.359 958.424 110.978 958.155 110.706C957.89 110.434 957.487 110.298 956.947 110.298C956.387 110.298 955.948 110.421 955.63 110.666C955.311 110.911 955.088 111.173 954.958 111.452L953.845 111.054C954.044 110.59 954.309 110.229 954.64 109.97C954.975 109.708 955.34 109.526 955.734 109.423C956.132 109.317 956.523 109.264 956.907 109.264C957.153 109.264 957.434 109.294 957.752 109.354C958.074 109.41 958.384 109.528 958.682 109.707C958.984 109.886 959.234 110.156 959.433 110.517C959.632 110.878 959.731 111.362 959.731 111.969V117H958.558V115.966H958.498C958.419 116.132 958.286 116.309 958.1 116.498C957.915 116.687 957.668 116.848 957.36 116.98C957.051 117.113 956.675 117.179 956.231 117.179ZM956.41 116.125C956.874 116.125 957.265 116.034 957.583 115.852C957.905 115.669 958.147 115.434 958.309 115.146C958.475 114.857 958.558 114.554 958.558 114.236V113.162C958.508 113.222 958.399 113.276 958.23 113.326C958.064 113.372 957.872 113.414 957.653 113.45C957.438 113.483 957.227 113.513 957.022 113.54C956.819 113.563 956.655 113.583 956.529 113.599C956.225 113.639 955.94 113.704 955.674 113.793C955.413 113.879 955.2 114.01 955.038 114.186C954.879 114.358 954.799 114.594 954.799 114.892C954.799 115.3 954.95 115.608 955.252 115.817C955.557 116.022 955.943 116.125 956.41 116.125ZM962.032 117V106.818H963.205V110.577H963.305C963.391 110.444 963.51 110.275 963.662 110.07C963.818 109.861 964.04 109.675 964.329 109.513C964.62 109.347 965.015 109.264 965.512 109.264C966.155 109.264 966.722 109.425 967.212 109.746C967.703 110.068 968.086 110.524 968.361 111.114C968.636 111.704 968.773 112.4 968.773 113.202C968.773 114.01 968.636 114.711 968.361 115.305C968.086 115.895 967.704 116.352 967.217 116.677C966.73 116.998 966.168 117.159 965.532 117.159C965.041 117.159 964.648 117.078 964.354 116.915C964.059 116.75 963.831 116.562 963.672 116.354C963.513 116.142 963.391 115.966 963.305 115.827H963.165V117H962.032ZM963.185 113.182C963.185 113.759 963.27 114.267 963.439 114.708C963.608 115.146 963.855 115.489 964.18 115.737C964.504 115.982 964.902 116.105 965.373 116.105C965.863 116.105 966.273 115.976 966.601 115.717C966.932 115.455 967.181 115.104 967.346 114.663C967.515 114.219 967.6 113.725 967.6 113.182C967.6 112.645 967.517 112.161 967.351 111.73C967.189 111.296 966.942 110.953 966.611 110.701C966.282 110.446 965.87 110.318 965.373 110.318C964.895 110.318 964.494 110.439 964.17 110.681C963.845 110.92 963.599 111.254 963.434 111.685C963.268 112.113 963.185 112.612 963.185 113.182ZM973.77 117.159C973.034 117.159 972.399 116.997 971.866 116.672C971.335 116.344 970.926 115.886 970.638 115.3C970.353 114.71 970.21 114.024 970.21 113.241C970.21 112.459 970.353 111.77 970.638 111.173C970.926 110.573 971.327 110.106 971.841 109.771C972.358 109.433 972.961 109.264 973.65 109.264C974.048 109.264 974.441 109.33 974.829 109.463C975.216 109.596 975.569 109.811 975.888 110.109C976.206 110.404 976.459 110.795 976.648 111.283C976.837 111.77 976.932 112.37 976.932 113.082V113.58H971.045V112.565H975.738C975.738 112.134 975.652 111.75 975.48 111.412C975.311 111.074 975.069 110.807 974.754 110.612C974.443 110.416 974.075 110.318 973.65 110.318C973.183 110.318 972.779 110.434 972.437 110.666C972.099 110.895 971.839 111.193 971.657 111.561C971.474 111.929 971.383 112.323 971.383 112.744V113.42C971.383 113.997 971.483 114.486 971.682 114.887C971.884 115.285 972.164 115.588 972.522 115.797C972.88 116.002 973.296 116.105 973.77 116.105C974.078 116.105 974.356 116.062 974.605 115.976C974.857 115.886 975.074 115.754 975.256 115.578C975.439 115.399 975.579 115.177 975.679 114.912L976.812 115.23C976.693 115.615 976.492 115.953 976.211 116.244C975.929 116.533 975.581 116.758 975.167 116.92C974.752 117.08 974.287 117.159 973.77 117.159ZM979.89 106.818V117H978.716V106.818H979.89Z" fill="white" fill-opacity="0.95"/>
<g clip-path="url(#clip0_3566_12350)">
<rect x="160" y="148" width="74" height="28" rx="14" fill="#7856FF"/>
<path d="M182.773 160H181.364C181.28 159.595 181.134 159.239 180.926 158.932C180.722 158.625 180.472 158.367 180.176 158.159C179.884 157.947 179.561 157.788 179.205 157.682C178.848 157.576 178.477 157.523 178.091 157.523C177.386 157.523 176.748 157.701 176.176 158.057C175.608 158.413 175.155 158.938 174.818 159.631C174.485 160.324 174.318 161.174 174.318 162.182C174.318 163.189 174.485 164.04 174.818 164.733C175.155 165.426 175.608 165.951 176.176 166.307C176.748 166.663 177.386 166.841 178.091 166.841C178.477 166.841 178.848 166.788 179.205 166.682C179.561 166.576 179.884 166.419 180.176 166.21C180.472 165.998 180.722 165.739 180.926 165.432C181.134 165.121 181.28 164.765 181.364 164.364H182.773C182.667 164.958 182.473 165.491 182.193 165.96C181.913 166.43 181.564 166.83 181.148 167.159C180.731 167.485 180.263 167.733 179.744 167.903C179.229 168.074 178.678 168.159 178.091 168.159C177.098 168.159 176.216 167.917 175.443 167.432C174.67 166.947 174.063 166.258 173.619 165.364C173.176 164.47 172.955 163.409 172.955 162.182C172.955 160.955 173.176 159.894 173.619 159C174.063 158.106 174.67 157.417 175.443 156.932C176.216 156.447 177.098 156.205 178.091 156.205C178.678 156.205 179.229 156.29 179.744 156.46C180.263 156.631 180.731 156.881 181.148 157.21C181.564 157.536 181.913 157.934 182.193 158.403C182.473 158.869 182.667 159.402 182.773 160ZM188.413 168.182C187.625 168.182 186.934 167.994 186.339 167.619C185.749 167.244 185.286 166.72 184.953 166.045C184.624 165.371 184.459 164.583 184.459 163.682C184.459 162.773 184.624 161.979 184.953 161.301C185.286 160.623 185.749 160.097 186.339 159.722C186.934 159.347 187.625 159.159 188.413 159.159C189.201 159.159 189.891 159.347 190.482 159.722C191.076 160.097 191.538 160.623 191.868 161.301C192.201 161.979 192.368 162.773 192.368 163.682C192.368 164.583 192.201 165.371 191.868 166.045C191.538 166.72 191.076 167.244 190.482 167.619C189.891 167.994 189.201 168.182 188.413 168.182ZM188.413 166.977C189.012 166.977 189.504 166.824 189.891 166.517C190.277 166.21 190.563 165.807 190.749 165.307C190.934 164.807 191.027 164.265 191.027 163.682C191.027 163.098 190.934 162.555 190.749 162.051C190.563 161.547 190.277 161.14 189.891 160.83C189.504 160.519 189.012 160.364 188.413 160.364C187.815 160.364 187.322 160.519 186.936 160.83C186.55 161.14 186.264 161.547 186.078 162.051C185.893 162.555 185.8 163.098 185.8 163.682C185.8 164.265 185.893 164.807 186.078 165.307C186.264 165.807 186.55 166.21 186.936 166.517C187.322 166.824 187.815 166.977 188.413 166.977ZM194.597 168V156.364H195.938V160.659H196.051C196.15 160.508 196.286 160.314 196.46 160.08C196.638 159.841 196.892 159.629 197.222 159.443C197.555 159.254 198.006 159.159 198.574 159.159C199.309 159.159 199.956 159.343 200.517 159.71C201.078 160.078 201.515 160.598 201.83 161.273C202.144 161.947 202.301 162.742 202.301 163.659C202.301 164.583 202.144 165.384 201.83 166.062C201.515 166.737 201.08 167.259 200.523 167.631C199.966 167.998 199.324 168.182 198.597 168.182C198.036 168.182 197.587 168.089 197.25 167.903C196.913 167.714 196.653 167.5 196.472 167.261C196.29 167.019 196.15 166.818 196.051 166.659H195.892V168H194.597ZM195.915 163.636C195.915 164.295 196.011 164.877 196.205 165.381C196.398 165.881 196.68 166.273 197.051 166.557C197.422 166.837 197.877 166.977 198.415 166.977C198.975 166.977 199.443 166.83 199.818 166.534C200.197 166.235 200.481 165.833 200.67 165.33C200.864 164.822 200.96 164.258 200.96 163.636C200.96 163.023 200.866 162.47 200.676 161.977C200.491 161.481 200.208 161.089 199.83 160.801C199.455 160.509 198.983 160.364 198.415 160.364C197.869 160.364 197.411 160.502 197.04 160.778C196.669 161.051 196.388 161.434 196.199 161.926C196.009 162.415 195.915 162.985 195.915 163.636ZM206.92 168.205C206.367 168.205 205.866 168.1 205.415 167.892C204.964 167.68 204.606 167.375 204.341 166.977C204.076 166.576 203.943 166.091 203.943 165.523C203.943 165.023 204.042 164.617 204.239 164.307C204.436 163.992 204.699 163.746 205.028 163.568C205.358 163.39 205.722 163.258 206.119 163.17C206.521 163.08 206.924 163.008 207.33 162.955C207.86 162.886 208.29 162.835 208.619 162.801C208.953 162.763 209.195 162.701 209.347 162.614C209.502 162.527 209.58 162.375 209.58 162.159V162.114C209.58 161.553 209.426 161.117 209.119 160.807C208.816 160.496 208.356 160.341 207.739 160.341C207.098 160.341 206.597 160.481 206.233 160.761C205.869 161.042 205.614 161.341 205.466 161.659L204.193 161.205C204.42 160.674 204.723 160.261 205.102 159.966C205.485 159.667 205.902 159.458 206.352 159.341C206.807 159.22 207.254 159.159 207.693 159.159C207.973 159.159 208.295 159.193 208.659 159.261C209.027 159.326 209.381 159.46 209.722 159.665C210.066 159.869 210.352 160.178 210.58 160.591C210.807 161.004 210.92 161.557 210.92 162.25V168H209.58V166.818H209.511C209.42 167.008 209.269 167.21 209.057 167.426C208.845 167.642 208.563 167.826 208.21 167.977C207.858 168.129 207.428 168.205 206.92 168.205ZM207.125 167C207.655 167 208.102 166.896 208.466 166.688C208.833 166.479 209.11 166.21 209.295 165.881C209.485 165.551 209.58 165.205 209.58 164.841V163.614C209.523 163.682 209.398 163.744 209.205 163.801C209.015 163.854 208.795 163.902 208.545 163.943C208.299 163.981 208.059 164.015 207.824 164.045C207.593 164.072 207.405 164.095 207.261 164.114C206.913 164.159 206.587 164.233 206.284 164.335C205.985 164.434 205.742 164.583 205.557 164.784C205.375 164.981 205.284 165.25 205.284 165.591C205.284 166.057 205.456 166.409 205.801 166.648C206.15 166.883 206.591 167 207.125 167ZM214.709 156.364V168H213.368V156.364H214.709ZM220.96 159.273V160.409H216.438V159.273H220.96ZM217.756 157.182H219.097V165.5C219.097 165.879 219.152 166.163 219.261 166.352C219.375 166.538 219.519 166.663 219.693 166.727C219.871 166.788 220.059 166.818 220.256 166.818C220.403 166.818 220.525 166.811 220.619 166.795C220.714 166.777 220.79 166.761 220.847 166.75L221.119 167.955C221.028 167.989 220.902 168.023 220.739 168.057C220.576 168.095 220.369 168.114 220.119 168.114C219.741 168.114 219.369 168.032 219.006 167.869C218.646 167.706 218.347 167.458 218.108 167.125C217.873 166.792 217.756 166.371 217.756 165.864V157.182Z" fill="white" fill-opacity="0.95"/>
</g>
<g clip-path="url(#clip1_3566_12350)">
<rect x="385" y="148" width="61" height="28" rx="14" fill="#7856FF"/>
<path d="M398.409 168V156.364H399.818V166.75H405.227V168H398.409ZM407.227 168V159.273H408.568V168H407.227ZM407.909 157.818C407.648 157.818 407.422 157.729 407.233 157.551C407.047 157.373 406.955 157.159 406.955 156.909C406.955 156.659 407.047 156.445 407.233 156.267C407.422 156.089 407.648 156 407.909 156C408.17 156 408.394 156.089 408.58 156.267C408.769 156.445 408.864 156.659 408.864 156.909C408.864 157.159 408.769 157.373 408.58 157.551C408.394 157.729 408.17 157.818 407.909 157.818ZM411.024 168V159.273H412.32V160.636H412.433C412.615 160.17 412.909 159.809 413.314 159.551C413.719 159.29 414.206 159.159 414.774 159.159C415.35 159.159 415.829 159.29 416.212 159.551C416.598 159.809 416.899 160.17 417.115 160.636H417.206C417.429 160.186 417.765 159.828 418.212 159.562C418.659 159.294 419.195 159.159 419.82 159.159C420.6 159.159 421.238 159.403 421.734 159.892C422.231 160.377 422.479 161.133 422.479 162.159V168H421.138V162.159C421.138 161.515 420.962 161.055 420.609 160.778C420.257 160.502 419.842 160.364 419.365 160.364C418.751 160.364 418.276 160.549 417.939 160.92C417.602 161.288 417.433 161.754 417.433 162.318V168H416.07V162.023C416.07 161.527 415.909 161.127 415.587 160.824C415.265 160.517 414.85 160.364 414.342 160.364C413.994 160.364 413.668 160.456 413.365 160.642C413.066 160.828 412.823 161.085 412.638 161.415C412.456 161.741 412.365 162.117 412.365 162.545V168H411.024ZM428.589 168.182C427.749 168.182 427.023 167.996 426.413 167.625C425.807 167.25 425.339 166.727 425.01 166.057C424.684 165.383 424.521 164.598 424.521 163.705C424.521 162.811 424.684 162.023 425.01 161.341C425.339 160.655 425.798 160.121 426.385 159.739C426.976 159.352 427.665 159.159 428.453 159.159C428.908 159.159 429.357 159.235 429.8 159.386C430.243 159.538 430.646 159.784 431.01 160.125C431.374 160.462 431.663 160.909 431.879 161.466C432.095 162.023 432.203 162.708 432.203 163.523V164.091H425.476V162.932H430.839C430.839 162.439 430.741 162 430.544 161.614C430.351 161.227 430.074 160.922 429.714 160.699C429.358 160.475 428.938 160.364 428.453 160.364C427.919 160.364 427.457 160.496 427.067 160.761C426.68 161.023 426.383 161.364 426.175 161.784C425.966 162.205 425.862 162.655 425.862 163.136V163.909C425.862 164.568 425.976 165.127 426.203 165.585C426.434 166.04 426.754 166.386 427.163 166.625C427.572 166.86 428.048 166.977 428.589 166.977C428.942 166.977 429.26 166.928 429.544 166.83C429.832 166.727 430.08 166.576 430.288 166.375C430.497 166.17 430.658 165.917 430.771 165.614L432.067 165.977C431.93 166.417 431.701 166.803 431.379 167.136C431.057 167.466 430.66 167.723 430.186 167.909C429.713 168.091 429.18 168.182 428.589 168.182Z" fill="white" fill-opacity="0.95"/>
</g>
<g clip-path="url(#clip2_3566_12350)">
<rect x="277" y="148" width="58" height="28" rx="14" fill="#7856FF"/>
<path d="M290.409 156.364H292.091L296.045 166.023H296.182L300.136 156.364H301.818V168H300.5V159.159H300.386L296.75 168H295.477L291.841 159.159H291.727V168H290.409V156.364ZM304.462 168V159.273H305.803V168H304.462ZM305.143 157.818C304.882 157.818 304.657 157.729 304.467 157.551C304.282 157.373 304.189 157.159 304.189 156.909C304.189 156.659 304.282 156.445 304.467 156.267C304.657 156.089 304.882 156 305.143 156C305.405 156 305.628 156.089 305.814 156.267C306.003 156.445 306.098 156.659 306.098 156.909C306.098 157.159 306.003 157.373 305.814 157.551C305.628 157.729 305.405 157.818 305.143 157.818ZM309.599 162.75V168H308.259V159.273H309.554V160.636H309.668C309.872 160.193 310.183 159.837 310.599 159.568C311.016 159.295 311.554 159.159 312.213 159.159C312.804 159.159 313.321 159.28 313.764 159.523C314.207 159.761 314.552 160.125 314.798 160.614C315.045 161.098 315.168 161.712 315.168 162.455V168H313.827V162.545C313.827 161.86 313.649 161.326 313.293 160.943C312.937 160.557 312.448 160.364 311.827 160.364C311.399 160.364 311.016 160.456 310.679 160.642C310.346 160.828 310.082 161.098 309.889 161.455C309.696 161.811 309.599 162.242 309.599 162.75ZM321.413 159.273V160.409H316.891V159.273H321.413ZM318.209 157.182H319.55V165.5C319.55 165.879 319.605 166.163 319.714 166.352C319.828 166.538 319.972 166.663 320.146 166.727C320.324 166.788 320.512 166.818 320.709 166.818C320.857 166.818 320.978 166.811 321.072 166.795C321.167 166.777 321.243 166.761 321.3 166.75L321.572 167.955C321.482 167.989 321.355 168.023 321.192 168.057C321.029 168.095 320.822 168.114 320.572 168.114C320.194 168.114 319.822 168.032 319.459 167.869C319.099 167.706 318.8 167.458 318.561 167.125C318.326 166.792 318.209 166.371 318.209 165.864V157.182Z" fill="white" fill-opacity="0.95"/>
</g>
<g clip-path="url(#clip3_3566_12350)">
<rect x="926" y="148" width="63" height="28" rx="14" fill="#7856FF"/>
<path d="M945.773 159.273C945.705 158.697 945.428 158.25 944.943 157.932C944.458 157.614 943.864 157.455 943.159 157.455C942.644 157.455 942.193 157.538 941.807 157.705C941.424 157.871 941.125 158.1 940.909 158.392C940.697 158.684 940.591 159.015 940.591 159.386C940.591 159.697 940.665 159.964 940.812 160.188C940.964 160.407 941.157 160.591 941.392 160.739C941.627 160.883 941.873 161.002 942.131 161.097C942.388 161.187 942.625 161.261 942.841 161.318L944.023 161.636C944.326 161.716 944.663 161.826 945.034 161.966C945.409 162.106 945.767 162.297 946.108 162.54C946.453 162.778 946.737 163.085 946.96 163.46C947.184 163.835 947.295 164.295 947.295 164.841C947.295 165.47 947.131 166.038 946.801 166.545C946.475 167.053 945.998 167.456 945.369 167.756C944.744 168.055 943.985 168.205 943.091 168.205C942.258 168.205 941.536 168.07 940.926 167.801C940.32 167.532 939.843 167.157 939.494 166.676C939.15 166.195 938.955 165.636 938.909 165H940.364C940.402 165.439 940.549 165.803 940.807 166.091C941.068 166.375 941.398 166.587 941.795 166.727C942.197 166.864 942.629 166.932 943.091 166.932C943.629 166.932 944.112 166.845 944.54 166.67C944.968 166.492 945.307 166.246 945.557 165.932C945.807 165.614 945.932 165.242 945.932 164.818C945.932 164.432 945.824 164.117 945.608 163.875C945.392 163.633 945.108 163.436 944.756 163.284C944.403 163.133 944.023 163 943.614 162.886L942.182 162.477C941.273 162.216 940.553 161.843 940.023 161.358C939.492 160.873 939.227 160.239 939.227 159.455C939.227 158.803 939.403 158.235 939.756 157.75C940.112 157.261 940.589 156.883 941.188 156.614C941.79 156.341 942.462 156.205 943.205 156.205C943.955 156.205 944.621 156.339 945.205 156.608C945.788 156.873 946.25 157.237 946.591 157.699C946.936 158.161 947.117 158.686 947.136 159.273H945.773ZM950.771 156.364V168H949.43V156.364H950.771ZM955.795 168.205C955.242 168.205 954.741 168.1 954.29 167.892C953.839 167.68 953.481 167.375 953.216 166.977C952.951 166.576 952.818 166.091 952.818 165.523C952.818 165.023 952.917 164.617 953.114 164.307C953.311 163.992 953.574 163.746 953.903 163.568C954.233 163.39 954.597 163.258 954.994 163.17C955.396 163.08 955.799 163.008 956.205 162.955C956.735 162.886 957.165 162.835 957.494 162.801C957.828 162.763 958.07 162.701 958.222 162.614C958.377 162.527 958.455 162.375 958.455 162.159V162.114C958.455 161.553 958.301 161.117 957.994 160.807C957.691 160.496 957.231 160.341 956.614 160.341C955.973 160.341 955.472 160.481 955.108 160.761C954.744 161.042 954.489 161.341 954.341 161.659L953.068 161.205C953.295 160.674 953.598 160.261 953.977 159.966C954.36 159.667 954.777 159.458 955.227 159.341C955.682 159.22 956.129 159.159 956.568 159.159C956.848 159.159 957.17 159.193 957.534 159.261C957.902 159.326 958.256 159.46 958.597 159.665C958.941 159.869 959.227 160.178 959.455 160.591C959.682 161.004 959.795 161.557 959.795 162.25V168H958.455V166.818H958.386C958.295 167.008 958.144 167.21 957.932 167.426C957.72 167.642 957.438 167.826 957.085 167.977C956.733 168.129 956.303 168.205 955.795 168.205ZM956 167C956.53 167 956.977 166.896 957.341 166.688C957.708 166.479 957.985 166.21 958.17 165.881C958.36 165.551 958.455 165.205 958.455 164.841V163.614C958.398 163.682 958.273 163.744 958.08 163.801C957.89 163.854 957.67 163.902 957.42 163.943C957.174 163.981 956.934 164.015 956.699 164.045C956.468 164.072 956.28 164.095 956.136 164.114C955.788 164.159 955.462 164.233 955.159 164.335C954.86 164.434 954.617 164.583 954.432 164.784C954.25 164.981 954.159 165.25 954.159 165.591C954.159 166.057 954.331 166.409 954.676 166.648C955.025 166.883 955.466 167 956 167ZM966.038 159.273V160.409H961.516V159.273H966.038ZM962.834 157.182H964.175V165.5C964.175 165.879 964.23 166.163 964.339 166.352C964.453 166.538 964.597 166.663 964.771 166.727C964.949 166.788 965.137 166.818 965.334 166.818C965.482 166.818 965.603 166.811 965.697 166.795C965.792 166.777 965.868 166.761 965.925 166.75L966.197 167.955C966.107 167.989 965.98 168.023 965.817 168.057C965.654 168.095 965.447 168.114 965.197 168.114C964.819 168.114 964.447 168.032 964.084 167.869C963.724 167.706 963.425 167.458 963.186 167.125C962.951 166.792 962.834 166.371 962.834 165.864V157.182ZM971.621 168.182C970.78 168.182 970.054 167.996 969.445 167.625C968.839 167.25 968.371 166.727 968.041 166.057C967.715 165.383 967.553 164.598 967.553 163.705C967.553 162.811 967.715 162.023 968.041 161.341C968.371 160.655 968.829 160.121 969.416 159.739C970.007 159.352 970.696 159.159 971.484 159.159C971.939 159.159 972.388 159.235 972.831 159.386C973.274 159.538 973.678 159.784 974.041 160.125C974.405 160.462 974.695 160.909 974.911 161.466C975.126 162.023 975.234 162.708 975.234 163.523V164.091H968.507V162.932H973.871C973.871 162.439 973.772 162 973.575 161.614C973.382 161.227 973.106 160.922 972.746 160.699C972.39 160.475 971.969 160.364 971.484 160.364C970.95 160.364 970.488 160.496 970.098 160.761C969.712 161.023 969.414 161.364 969.206 161.784C968.998 162.205 968.893 162.655 968.893 163.136V163.909C968.893 164.568 969.007 165.127 969.234 165.585C969.465 166.04 969.786 166.386 970.195 166.625C970.604 166.86 971.079 166.977 971.621 166.977C971.973 166.977 972.291 166.928 972.575 166.83C972.863 166.727 973.111 166.576 973.32 166.375C973.528 166.17 973.689 165.917 973.803 165.614L975.098 165.977C974.962 166.417 974.732 166.803 974.411 167.136C974.089 167.466 973.691 167.723 973.217 167.909C972.744 168.091 972.212 168.182 971.621 168.182Z" fill="white" fill-opacity="0.95"/>
</g>
<g clip-path="url(#clip4_3566_12350)">
<rect x="818" y="148" width="68" height="28" rx="14" fill="#7856FF"/>
<path d="M831.886 156.364L835.341 166.159H835.477L838.932 156.364H840.409L836.136 168H834.682L830.409 156.364H831.886ZM842.04 168V159.273H843.381V168H842.04ZM842.722 157.818C842.46 157.818 842.235 157.729 842.045 157.551C841.86 157.373 841.767 157.159 841.767 156.909C841.767 156.659 841.86 156.445 842.045 156.267C842.235 156.089 842.46 156 842.722 156C842.983 156 843.206 156.089 843.392 156.267C843.581 156.445 843.676 156.659 843.676 156.909C843.676 157.159 843.581 157.373 843.392 157.551C843.206 157.729 842.983 157.818 842.722 157.818ZM849.382 168.182C848.594 168.182 847.903 167.994 847.308 167.619C846.717 167.244 846.255 166.72 845.922 166.045C845.592 165.371 845.428 164.583 845.428 163.682C845.428 162.773 845.592 161.979 845.922 161.301C846.255 160.623 846.717 160.097 847.308 159.722C847.903 159.347 848.594 159.159 849.382 159.159C850.17 159.159 850.859 159.347 851.45 159.722C852.045 160.097 852.507 160.623 852.837 161.301C853.17 161.979 853.337 162.773 853.337 163.682C853.337 164.583 853.17 165.371 852.837 166.045C852.507 166.72 852.045 167.244 851.45 167.619C850.859 167.994 850.17 168.182 849.382 168.182ZM849.382 166.977C849.981 166.977 850.473 166.824 850.859 166.517C851.246 166.21 851.532 165.807 851.717 165.307C851.903 164.807 851.996 164.265 851.996 163.682C851.996 163.098 851.903 162.555 851.717 162.051C851.532 161.547 851.246 161.14 850.859 160.83C850.473 160.519 849.981 160.364 849.382 160.364C848.784 160.364 848.291 160.519 847.905 160.83C847.518 161.14 847.232 161.547 847.047 162.051C846.861 162.555 846.768 163.098 846.768 163.682C846.768 164.265 846.861 164.807 847.047 165.307C847.232 165.807 847.518 166.21 847.905 166.517C848.291 166.824 848.784 166.977 849.382 166.977ZM856.724 156.364V168H855.384V156.364H856.724ZM862.839 168.182C861.999 168.182 861.273 167.996 860.663 167.625C860.057 167.25 859.589 166.727 859.26 166.057C858.934 165.383 858.771 164.598 858.771 163.705C858.771 162.811 858.934 162.023 859.26 161.341C859.589 160.655 860.048 160.121 860.635 159.739C861.226 159.352 861.915 159.159 862.703 159.159C863.158 159.159 863.607 159.235 864.05 159.386C864.493 159.538 864.896 159.784 865.26 160.125C865.624 160.462 865.913 160.909 866.129 161.466C866.345 162.023 866.453 162.708 866.453 163.523V164.091H859.726V162.932H865.089C865.089 162.439 864.991 162 864.794 161.614C864.601 161.227 864.324 160.922 863.964 160.699C863.608 160.475 863.188 160.364 862.703 160.364C862.169 160.364 861.707 160.496 861.317 160.761C860.93 161.023 860.633 161.364 860.425 161.784C860.216 162.205 860.112 162.655 860.112 163.136V163.909C860.112 164.568 860.226 165.127 860.453 165.585C860.684 166.04 861.004 166.386 861.413 166.625C861.822 166.86 862.298 166.977 862.839 166.977C863.192 166.977 863.51 166.928 863.794 166.83C864.082 166.727 864.33 166.576 864.538 166.375C864.747 166.17 864.908 165.917 865.021 165.614L866.317 165.977C866.18 166.417 865.951 166.803 865.629 167.136C865.307 167.466 864.91 167.723 864.436 167.909C863.963 168.091 863.43 168.182 862.839 168.182ZM872.288 159.273V160.409H867.766V159.273H872.288ZM869.084 157.182H870.425V165.5C870.425 165.879 870.48 166.163 870.589 166.352C870.703 166.538 870.847 166.663 871.021 166.727C871.199 166.788 871.387 166.818 871.584 166.818C871.732 166.818 871.853 166.811 871.947 166.795C872.042 166.777 872.118 166.761 872.175 166.75L872.447 167.955C872.357 167.989 872.23 168.023 872.067 168.057C871.904 168.095 871.697 168.114 871.447 168.114C871.069 168.114 870.697 168.032 870.334 167.869C869.974 167.706 869.675 167.458 869.436 167.125C869.201 166.792 869.084 166.371 869.084 165.864V157.182Z" fill="white" fill-opacity="0.95"/>
</g>
<g clip-path="url(#clip5_3566_12350)">
<rect x="706" y="148" width="73" height="28" rx="14" fill="#7856FF"/>
<path d="M719.409 168V156.364H723.341C724.254 156.364 725 156.528 725.58 156.858C726.163 157.184 726.595 157.625 726.875 158.182C727.155 158.739 727.295 159.36 727.295 160.045C727.295 160.731 727.155 161.354 726.875 161.915C726.598 162.475 726.17 162.922 725.591 163.256C725.011 163.585 724.269 163.75 723.364 163.75H720.545V162.5H723.318C723.943 162.5 724.445 162.392 724.824 162.176C725.203 161.96 725.477 161.669 725.648 161.301C725.822 160.93 725.909 160.511 725.909 160.045C725.909 159.58 725.822 159.163 725.648 158.795C725.477 158.428 725.201 158.14 724.818 157.932C724.436 157.72 723.928 157.614 723.295 157.614H720.818V168H719.409ZM734.884 164.432V159.273H736.224V168H734.884V166.523H734.793C734.588 166.966 734.27 167.343 733.838 167.653C733.406 167.96 732.861 168.114 732.202 168.114C731.656 168.114 731.171 167.994 730.747 167.756C730.323 167.513 729.99 167.15 729.747 166.665C729.505 166.176 729.384 165.561 729.384 164.818V159.273H730.724V164.727C730.724 165.364 730.902 165.871 731.259 166.25C731.618 166.629 732.077 166.818 732.634 166.818C732.967 166.818 733.306 166.733 733.651 166.562C733.999 166.392 734.291 166.131 734.526 165.778C734.764 165.426 734.884 164.977 734.884 164.432ZM738.68 168V159.273H739.976V160.591H740.067C740.226 160.159 740.514 159.809 740.93 159.54C741.347 159.271 741.817 159.136 742.339 159.136C742.438 159.136 742.561 159.138 742.709 159.142C742.857 159.146 742.968 159.152 743.044 159.159V160.523C742.999 160.511 742.894 160.494 742.732 160.472C742.572 160.445 742.404 160.432 742.226 160.432C741.802 160.432 741.423 160.521 741.089 160.699C740.76 160.873 740.499 161.116 740.305 161.426C740.116 161.733 740.021 162.083 740.021 162.477V168H738.68ZM744.634 171.273V159.273H745.929V160.659H746.088C746.187 160.508 746.323 160.314 746.497 160.08C746.675 159.841 746.929 159.629 747.259 159.443C747.592 159.254 748.043 159.159 748.611 159.159C749.346 159.159 749.993 159.343 750.554 159.71C751.115 160.078 751.552 160.598 751.866 161.273C752.181 161.947 752.338 162.742 752.338 163.659C752.338 164.583 752.181 165.384 751.866 166.062C751.552 166.737 751.116 167.259 750.56 167.631C750.003 167.998 749.361 168.182 748.634 168.182C748.073 168.182 747.624 168.089 747.287 167.903C746.95 167.714 746.69 167.5 746.509 167.261C746.327 167.019 746.187 166.818 746.088 166.659H745.974V171.273H744.634ZM745.952 163.636C745.952 164.295 746.048 164.877 746.241 165.381C746.435 165.881 746.717 166.273 747.088 166.557C747.459 166.837 747.914 166.977 748.452 166.977C749.012 166.977 749.48 166.83 749.855 166.534C750.234 166.235 750.518 165.833 750.707 165.33C750.901 164.822 750.997 164.258 750.997 163.636C750.997 163.023 750.902 162.47 750.713 161.977C750.527 161.481 750.245 161.089 749.866 160.801C749.491 160.509 749.02 160.364 748.452 160.364C747.906 160.364 747.448 160.502 747.077 160.778C746.705 161.051 746.425 161.434 746.236 161.926C746.046 162.415 745.952 162.985 745.952 163.636ZM755.724 156.364V168H754.384V156.364H755.724ZM761.839 168.182C760.999 168.182 760.273 167.996 759.663 167.625C759.057 167.25 758.589 166.727 758.26 166.057C757.934 165.383 757.771 164.598 757.771 163.705C757.771 162.811 757.934 162.023 758.26 161.341C758.589 160.655 759.048 160.121 759.635 159.739C760.226 159.352 760.915 159.159 761.703 159.159C762.158 159.159 762.607 159.235 763.05 159.386C763.493 159.538 763.896 159.784 764.26 160.125C764.624 160.462 764.913 160.909 765.129 161.466C765.345 162.023 765.453 162.708 765.453 163.523V164.091H758.726V162.932H764.089C764.089 162.439 763.991 162 763.794 161.614C763.601 161.227 763.324 160.922 762.964 160.699C762.608 160.475 762.188 160.364 761.703 160.364C761.169 160.364 760.707 160.496 760.317 160.761C759.93 161.023 759.633 161.364 759.425 161.784C759.216 162.205 759.112 162.655 759.112 163.136V163.909C759.112 164.568 759.226 165.127 759.453 165.585C759.684 166.04 760.004 166.386 760.413 166.625C760.822 166.86 761.298 166.977 761.839 166.977C762.192 166.977 762.51 166.928 762.794 166.83C763.082 166.727 763.33 166.576 763.538 166.375C763.747 166.17 763.908 165.917 764.021 165.614L765.317 165.977C765.18 166.417 764.951 166.803 764.629 167.136C764.307 167.466 763.91 167.723 763.436 167.909C762.963 168.091 762.43 168.182 761.839 168.182Z" fill="white" fill-opacity="0.95"/>
</g>
<g clip-path="url(#clip6_3566_12350)">
<rect x="605" y="148" width="57" height="28" rx="14" fill="#7856FF"/>
<path d="M618.409 168V156.364H622.341C623.254 156.364 624 156.528 624.58 156.858C625.163 157.184 625.595 157.625 625.875 158.182C626.155 158.739 626.295 159.36 626.295 160.045C626.295 160.731 626.155 161.354 625.875 161.915C625.598 162.475 625.17 162.922 624.591 163.256C624.011 163.585 623.269 163.75 622.364 163.75H619.545V162.5H622.318C622.943 162.5 623.445 162.392 623.824 162.176C624.203 161.96 624.477 161.669 624.648 161.301C624.822 160.93 624.909 160.511 624.909 160.045C624.909 159.58 624.822 159.163 624.648 158.795C624.477 158.428 624.201 158.14 623.818 157.932C623.436 157.72 622.928 157.614 622.295 157.614H619.818V168H618.409ZM628.384 168V159.273H629.724V168H628.384ZM629.065 157.818C628.804 157.818 628.579 157.729 628.389 157.551C628.204 157.373 628.111 157.159 628.111 156.909C628.111 156.659 628.204 156.445 628.389 156.267C628.579 156.089 628.804 156 629.065 156C629.327 156 629.55 156.089 629.736 156.267C629.925 156.445 630.02 156.659 630.02 156.909C630.02 157.159 629.925 157.373 629.736 157.551C629.55 157.729 629.327 157.818 629.065 157.818ZM633.521 162.75V168H632.18V159.273H633.476V160.636H633.589C633.794 160.193 634.105 159.837 634.521 159.568C634.938 159.295 635.476 159.159 636.135 159.159C636.726 159.159 637.243 159.28 637.686 159.523C638.129 159.761 638.474 160.125 638.72 160.614C638.966 161.098 639.089 161.712 639.089 162.455V168H637.749V162.545C637.749 161.86 637.571 161.326 637.214 160.943C636.858 160.557 636.37 160.364 635.749 160.364C635.321 160.364 634.938 160.456 634.601 160.642C634.268 160.828 634.004 161.098 633.811 161.455C633.618 161.811 633.521 162.242 633.521 162.75ZM642.79 164.818L642.767 163.159H643.04L646.858 159.273H648.517L644.449 163.386H644.335L642.79 164.818ZM641.54 168V156.364H642.881V168H641.54ZM647.085 168L643.676 163.682L644.631 162.75L648.79 168H647.085Z" fill="white" fill-opacity="0.95"/>
</g>
<g clip-path="url(#clip7_3566_12350)">
<rect x="494" y="148" width="60" height="28" rx="14" fill="#7856FF"/>
<path d="M515.364 160C515.239 159.617 515.074 159.275 514.869 158.972C514.669 158.665 514.428 158.403 514.148 158.188C513.871 157.972 513.557 157.807 513.205 157.693C512.852 157.58 512.466 157.523 512.045 157.523C511.356 157.523 510.729 157.701 510.165 158.057C509.6 158.413 509.152 158.938 508.818 159.631C508.485 160.324 508.318 161.174 508.318 162.182C508.318 163.189 508.487 164.04 508.824 164.733C509.161 165.426 509.617 165.951 510.193 166.307C510.769 166.663 511.417 166.841 512.136 166.841C512.803 166.841 513.39 166.699 513.898 166.415C514.409 166.127 514.807 165.722 515.091 165.199C515.379 164.672 515.523 164.053 515.523 163.341L515.955 163.432H512.455V162.182H516.886V163.432C516.886 164.39 516.682 165.223 516.273 165.932C515.867 166.64 515.307 167.189 514.591 167.58C513.879 167.966 513.061 168.159 512.136 168.159C511.106 168.159 510.201 167.917 509.42 167.432C508.644 166.947 508.038 166.258 507.602 165.364C507.17 164.47 506.955 163.409 506.955 162.182C506.955 161.261 507.078 160.434 507.324 159.699C507.574 158.96 507.926 158.331 508.381 157.812C508.835 157.294 509.373 156.896 509.994 156.619C510.616 156.343 511.299 156.205 512.045 156.205C512.659 156.205 513.231 156.297 513.761 156.483C514.295 156.665 514.771 156.924 515.188 157.261C515.608 157.595 515.958 157.994 516.239 158.46C516.519 158.922 516.712 159.436 516.818 160H515.364ZM522.663 168.182C521.875 168.182 521.184 167.994 520.589 167.619C519.999 167.244 519.536 166.72 519.203 166.045C518.874 165.371 518.709 164.583 518.709 163.682C518.709 162.773 518.874 161.979 519.203 161.301C519.536 160.623 519.999 160.097 520.589 159.722C521.184 159.347 521.875 159.159 522.663 159.159C523.451 159.159 524.141 159.347 524.732 159.722C525.326 160.097 525.788 160.623 526.118 161.301C526.451 161.979 526.618 162.773 526.618 163.682C526.618 164.583 526.451 165.371 526.118 166.045C525.788 166.72 525.326 167.244 524.732 167.619C524.141 167.994 523.451 168.182 522.663 168.182ZM522.663 166.977C523.262 166.977 523.754 166.824 524.141 166.517C524.527 166.21 524.813 165.807 524.999 165.307C525.184 164.807 525.277 164.265 525.277 163.682C525.277 163.098 525.184 162.555 524.999 162.051C524.813 161.547 524.527 161.14 524.141 160.83C523.754 160.519 523.262 160.364 522.663 160.364C522.065 160.364 521.572 160.519 521.186 160.83C520.8 161.14 520.514 161.547 520.328 162.051C520.143 162.555 520.05 163.098 520.05 163.682C520.05 164.265 520.143 164.807 520.328 165.307C520.514 165.807 520.8 166.21 521.186 166.517C521.572 166.824 522.065 166.977 522.663 166.977ZM530.006 156.364V168H528.665V156.364H530.006ZM535.757 168.182C535.03 168.182 534.388 167.998 533.831 167.631C533.274 167.259 532.839 166.737 532.524 166.062C532.21 165.384 532.053 164.583 532.053 163.659C532.053 162.742 532.21 161.947 532.524 161.273C532.839 160.598 533.276 160.078 533.837 159.71C534.397 159.343 535.045 159.159 535.78 159.159C536.348 159.159 536.797 159.254 537.126 159.443C537.46 159.629 537.714 159.841 537.888 160.08C538.066 160.314 538.204 160.508 538.303 160.659H538.416V156.364H539.757V168H538.462V166.659H538.303C538.204 166.818 538.064 167.019 537.882 167.261C537.7 167.5 537.441 167.714 537.104 167.903C536.767 168.089 536.318 168.182 535.757 168.182ZM535.939 166.977C536.477 166.977 536.931 166.837 537.303 166.557C537.674 166.273 537.956 165.881 538.149 165.381C538.342 164.877 538.439 164.295 538.439 163.636C538.439 162.985 538.344 162.415 538.155 161.926C537.965 161.434 537.685 161.051 537.314 160.778C536.943 160.502 536.484 160.364 535.939 160.364C535.371 160.364 534.897 160.509 534.518 160.801C534.143 161.089 533.861 161.481 533.672 161.977C533.486 162.47 533.393 163.023 533.393 163.636C533.393 164.258 533.488 164.822 533.678 165.33C533.871 165.833 534.155 166.235 534.53 166.534C534.909 166.83 535.378 166.977 535.939 166.977Z" fill="white" fill-opacity="0.95"/>
</g>
<defs>
<clipPath id="clip0_3566_12350">
<rect width="74" height="28" fill="white" transform="translate(160 148)"/>
</clipPath>
<clipPath id="clip1_3566_12350">
<rect width="61" height="28" fill="white" transform="translate(385 148)"/>
</clipPath>
<clipPath id="clip2_3566_12350">
<rect width="58" height="28" fill="white" transform="translate(277 148)"/>
</clipPath>
<clipPath id="clip3_3566_12350">
<rect width="63" height="28" fill="white" transform="translate(926 148)"/>
</clipPath>
<clipPath id="clip4_3566_12350">
<rect width="68" height="28" fill="white" transform="translate(818 148)"/>
</clipPath>
<clipPath id="clip5_3566_12350">
<rect width="73" height="28" fill="white" transform="translate(706 148)"/>
</clipPath>
<clipPath id="clip6_3566_12350">
<rect width="57" height="28" fill="white" transform="translate(605 148)"/>
</clipPath>
<clipPath id="clip7_3566_12350">
<rect width="60" height="28" fill="white" transform="translate(494 148)"/>
</clipPath>
</defs>
</svg>
