<svg width="440" height="182" viewBox="0 0 440 182" fill="none" xmlns="http://www.w3.org/2000/svg">
<g filter="url(#filter0_dd_3610_21984)">
<g filter="url(#filter1_dd_3610_21984)">
<rect x="162" y="4" width="270" height="166" rx="8" fill="black"/>
<rect x="162.5" y="4.5" width="269" height="165" rx="7.5" stroke="white" stroke-opacity="0.3"/>
<path d="M178.705 27.875V26.3636H187.71V27.875H184.08V38H182.33V27.875H178.705ZM189.564 38V29.2727H191.263V38H189.564ZM190.422 27.9261C190.126 27.9261 189.873 27.8277 189.661 27.6307C189.452 27.4299 189.348 27.1913 189.348 26.9148C189.348 26.6345 189.452 26.3958 189.661 26.1989C189.873 25.9981 190.126 25.8977 190.422 25.8977C190.717 25.8977 190.969 25.9981 191.178 26.1989C191.39 26.3958 191.496 26.6345 191.496 26.9148C191.496 27.1913 191.39 27.4299 191.178 27.6307C190.969 27.8277 190.717 27.9261 190.422 27.9261ZM197.622 29.2727V30.6364H192.855V29.2727H197.622ZM194.134 27.1818H195.832V35.4375C195.832 35.767 195.882 36.0152 195.98 36.1818C196.079 36.3447 196.205 36.4564 196.361 36.517C196.52 36.5739 196.692 36.6023 196.878 36.6023C197.014 36.6023 197.134 36.5928 197.236 36.5739C197.338 36.5549 197.418 36.5398 197.474 36.5284L197.781 37.9318C197.683 37.9697 197.543 38.0076 197.361 38.0455C197.179 38.0871 196.952 38.1098 196.679 38.1136C196.232 38.1212 195.815 38.0417 195.429 37.875C195.043 37.7083 194.73 37.4508 194.491 37.1023C194.253 36.7538 194.134 36.3163 194.134 35.7898V27.1818ZM201.388 26.3636V38H199.689V26.3636H201.388ZM207.435 38.1761C206.575 38.1761 205.834 37.9924 205.213 37.625C204.596 37.2538 204.118 36.733 203.781 36.0625C203.448 35.3883 203.281 34.5985 203.281 33.6932C203.281 32.7992 203.448 32.0114 203.781 31.3295C204.118 30.6477 204.588 30.1155 205.19 29.733C205.796 29.3504 206.505 29.1591 207.315 29.1591C207.808 29.1591 208.285 29.2405 208.747 29.4034C209.209 29.5663 209.624 29.822 209.991 30.1705C210.359 30.5189 210.649 30.9716 210.861 31.5284C211.073 32.0814 211.179 32.7538 211.179 33.5455V34.1477H204.241V32.875H209.514C209.514 32.428 209.423 32.0322 209.241 31.6875C209.06 31.339 208.804 31.0644 208.474 30.8636C208.149 30.6629 207.766 30.5625 207.327 30.5625C206.849 30.5625 206.433 30.6799 206.077 30.9148C205.724 31.1458 205.452 31.4489 205.259 31.8239C205.069 32.1951 204.974 32.5985 204.974 33.0341V34.0284C204.974 34.6117 205.077 35.108 205.281 35.517C205.49 35.9261 205.779 36.2386 206.151 36.4545C206.522 36.6667 206.955 36.7727 207.452 36.7727C207.774 36.7727 208.067 36.7273 208.332 36.6364C208.598 36.5417 208.827 36.4015 209.02 36.2159C209.213 36.0303 209.361 35.8011 209.463 35.5284L211.071 35.8182C210.942 36.2917 210.711 36.7064 210.378 37.0625C210.048 37.4148 209.634 37.6894 209.134 37.8864C208.637 38.0795 208.071 38.1761 207.435 38.1761Z" fill="white" fill-opacity="0.95"/>
<path d="M406.707 29.9999L410.854 25.8534C410.9 25.807 410.937 25.7518 410.962 25.6912C410.987 25.6305 411 25.5655 411 25.4999C411 25.4342 410.987 25.3692 410.962 25.3085C410.937 25.2479 410.9 25.1928 410.854 25.1464C410.807 25.0999 410.752 25.0631 410.691 25.038C410.631 25.0129 410.566 24.9999 410.5 24.9999C410.434 24.9999 410.369 25.0129 410.309 25.038C410.248 25.0631 410.193 25.0999 410.147 25.1464L406 29.2929L401.854 25.1464C401.807 25.0995 401.752 25.0623 401.691 25.0368C401.631 25.0113 401.565 24.9981 401.499 24.9979C401.434 24.9977 401.368 25.0106 401.307 25.0357C401.246 25.0608 401.191 25.0978 401.144 25.1444C401.098 25.191 401.061 25.2463 401.036 25.3072C401.011 25.3681 400.998 25.4334 400.998 25.4993C400.998 25.5652 401.011 25.6304 401.037 25.6912C401.062 25.7519 401.1 25.8071 401.147 25.8534L405.293 29.9999L401.147 34.1464C401.1 34.1928 401.063 34.2479 401.038 34.3086C401.013 34.3693 401 34.4343 401 34.4999C401 34.5656 401.013 34.6306 401.038 34.6912C401.063 34.7519 401.1 34.807 401.147 34.8534C401.193 34.8999 401.248 34.9367 401.309 34.9618C401.369 34.9869 401.434 34.9999 401.5 34.9999C401.566 34.9999 401.631 34.9869 401.691 34.9618C401.752 34.9367 401.807 34.8999 401.854 34.8534L406 30.7069L410.147 34.8534C410.24 34.9472 410.367 34.9999 410.5 34.9999C410.633 34.9999 410.76 34.9472 410.854 34.8534C410.947 34.7597 411 34.6325 411 34.4999C411 34.3673 410.947 34.2402 410.854 34.1464L406.707 29.9999Z" fill="white" fill-opacity="0.95"/>
<path d="M178.676 63.9119V62.8182H186.312V63.9119H183.111V73H181.878V63.9119H178.676ZM191.83 69.8778V65.3636H193.003V73H191.83V71.7074H191.75C191.571 72.0952 191.293 72.425 190.915 72.6967C190.537 72.9652 190.06 73.0994 189.483 73.0994C189.006 73.0994 188.582 72.995 188.21 72.7862C187.839 72.5741 187.548 72.2559 187.335 71.8317C187.123 71.4041 187.017 70.8655 187.017 70.2159V65.3636H188.191V70.1364C188.191 70.6932 188.346 71.1373 188.658 71.4688C188.973 71.8002 189.374 71.9659 189.861 71.9659C190.153 71.9659 190.449 71.8913 190.751 71.7422C191.056 71.593 191.311 71.3643 191.517 71.0561C191.725 70.7479 191.83 70.3551 191.83 69.8778ZM195.152 73V65.3636H196.286V66.517H196.365C196.504 66.1392 196.756 65.8326 197.121 65.5973C197.485 65.362 197.896 65.2443 198.354 65.2443C198.44 65.2443 198.548 65.246 198.677 65.2493C198.806 65.2526 198.904 65.2576 198.97 65.2642V66.4574C198.93 66.4474 198.839 66.4325 198.697 66.4126C198.558 66.3894 198.41 66.3778 198.254 66.3778C197.883 66.3778 197.552 66.4557 197.26 66.6115C196.972 66.764 196.743 66.9761 196.574 67.2479C196.408 67.5163 196.325 67.8229 196.325 68.1676V73H195.152ZM200.361 75.8636V65.3636H201.494V66.5767H201.634C201.72 66.4441 201.839 66.2751 201.992 66.0696C202.147 65.8608 202.369 65.6752 202.658 65.5128C202.95 65.3471 203.344 65.2642 203.841 65.2642C204.484 65.2642 205.051 65.425 205.541 65.7464C206.032 66.0679 206.415 66.5237 206.69 67.1136C206.965 67.7036 207.102 68.3996 207.102 69.2017C207.102 70.0104 206.965 70.7114 206.69 71.3047C206.415 71.8946 206.034 72.352 205.546 72.6768C205.059 72.9983 204.497 73.1591 203.861 73.1591C203.37 73.1591 202.978 73.0779 202.683 72.9155C202.388 72.7498 202.161 72.5625 202.002 72.3537C201.843 72.1416 201.72 71.9659 201.634 71.8267H201.534V75.8636H200.361ZM201.514 69.1818C201.514 69.7585 201.599 70.2673 201.768 70.7081C201.937 71.1456 202.184 71.4886 202.509 71.7372C202.834 71.9825 203.231 72.1051 203.702 72.1051C204.192 72.1051 204.602 71.9759 204.93 71.7173C205.261 71.4555 205.51 71.1042 205.676 70.6634C205.845 70.2192 205.929 69.7254 205.929 69.1818C205.929 68.6449 205.846 68.161 205.681 67.7301C205.518 67.2959 205.271 66.9529 204.94 66.701C204.612 66.4458 204.199 66.3182 203.702 66.3182C203.225 66.3182 202.824 66.4392 202.499 66.6811C202.174 66.9197 201.929 67.2545 201.763 67.6854C201.597 68.1129 201.514 68.6117 201.514 69.1818ZM208.892 73V65.3636H210.066V73H208.892ZM209.489 64.0909C209.26 64.0909 209.063 64.013 208.897 63.8572C208.735 63.7015 208.654 63.5142 208.654 63.2955C208.654 63.0767 208.735 62.8894 208.897 62.7337C209.063 62.5779 209.26 62.5 209.489 62.5C209.718 62.5 209.913 62.5779 210.075 62.7337C210.241 62.8894 210.324 63.0767 210.324 63.2955C210.324 63.5142 210.241 63.7015 210.075 63.8572C209.913 64.013 209.718 64.0909 209.489 64.0909ZM217.624 67.0739L216.57 67.3722C216.503 67.1965 216.406 67.0258 216.276 66.8601C216.15 66.6911 215.978 66.5518 215.759 66.4425C215.54 66.3331 215.26 66.2784 214.919 66.2784C214.452 66.2784 214.062 66.3861 213.751 66.6016C213.442 66.8137 213.288 67.0838 213.288 67.4119C213.288 67.7036 213.394 67.9339 213.607 68.103C213.819 68.272 214.15 68.4129 214.601 68.5256L215.734 68.804C216.417 68.9697 216.926 69.2232 217.261 69.5646C217.595 69.9027 217.763 70.3385 217.763 70.8722C217.763 71.3097 217.637 71.7008 217.385 72.0455C217.136 72.3902 216.788 72.6619 216.341 72.8608C215.893 73.0597 215.373 73.1591 214.78 73.1591C214.001 73.1591 213.356 72.9901 212.846 72.652C212.335 72.3139 212.012 71.8201 211.876 71.1705L212.99 70.892C213.096 71.303 213.297 71.6113 213.592 71.8168C213.89 72.0223 214.279 72.125 214.76 72.125C215.307 72.125 215.741 72.009 216.062 71.777C216.387 71.5417 216.55 71.2599 216.55 70.9318C216.55 70.6667 216.457 70.4446 216.271 70.2656C216.086 70.0833 215.801 69.9474 215.416 69.858L214.143 69.5597C213.444 69.3939 212.93 69.1371 212.602 68.7891C212.277 68.4377 212.115 67.9986 212.115 67.4716C212.115 67.0407 212.236 66.6596 212.478 66.3281C212.723 65.9967 213.056 65.7365 213.477 65.5476C213.902 65.3587 214.382 65.2642 214.919 65.2642C215.675 65.2642 216.268 65.4299 216.699 65.7614C217.133 66.0928 217.441 66.5303 217.624 67.0739ZM223.466 73V65.3636H224.64V73H223.466ZM224.063 64.0909C223.834 64.0909 223.637 64.013 223.471 63.8572C223.309 63.7015 223.228 63.5142 223.228 63.2955C223.228 63.0767 223.309 62.8894 223.471 62.7337C223.637 62.5779 223.834 62.5 224.063 62.5C224.292 62.5 224.487 62.5779 224.65 62.7337C224.815 62.8894 224.898 63.0767 224.898 63.2955C224.898 63.5142 224.815 63.7015 224.65 63.8572C224.487 64.013 224.292 64.0909 224.063 64.0909ZM229.672 73.1591C229.036 73.1591 228.474 72.9983 227.987 72.6768C227.5 72.352 227.118 71.8946 226.843 71.3047C226.568 70.7114 226.431 70.0104 226.431 69.2017C226.431 68.3996 226.568 67.7036 226.843 67.1136C227.118 66.5237 227.501 66.0679 227.992 65.7464C228.482 65.425 229.049 65.2642 229.692 65.2642C230.189 65.2642 230.582 65.3471 230.87 65.5128C231.162 65.6752 231.384 65.8608 231.537 66.0696C231.692 66.2751 231.813 66.4441 231.9 66.5767H231.999V62.8182H233.172V73H232.039V71.8267H231.9C231.813 71.9659 231.691 72.1416 231.532 72.3537C231.373 72.5625 231.145 72.7498 230.85 72.9155C230.556 73.0779 230.163 73.1591 229.672 73.1591ZM229.831 72.1051C230.302 72.1051 230.7 71.9825 231.025 71.7372C231.349 71.4886 231.596 71.1456 231.765 70.7081C231.934 70.2673 232.019 69.7585 232.019 69.1818C232.019 68.6117 231.936 68.1129 231.77 67.6854C231.605 67.2545 231.359 66.9197 231.034 66.6811C230.71 66.4392 230.309 66.3182 229.831 66.3182C229.334 66.3182 228.92 66.4458 228.588 66.701C228.26 66.9529 228.013 67.2959 227.848 67.7301C227.685 68.161 227.604 68.6449 227.604 69.1818C227.604 69.7254 227.687 70.2192 227.853 70.6634C228.022 71.1042 228.27 71.4555 228.598 71.7173C228.93 71.9759 229.341 72.1051 229.831 72.1051ZM244.831 67.0739L243.777 67.3722C243.71 67.1965 243.613 67.0258 243.483 66.8601C243.357 66.6911 243.185 66.5518 242.966 66.4425C242.748 66.3331 242.467 66.2784 242.126 66.2784C241.659 66.2784 241.269 66.3861 240.958 66.6016C240.65 66.8137 240.495 67.0838 240.495 67.4119C240.495 67.7036 240.601 67.9339 240.814 68.103C241.026 68.272 241.357 68.4129 241.808 68.5256L242.941 68.804C243.624 68.9697 244.133 69.2232 244.468 69.5646C244.802 69.9027 244.97 70.3385 244.97 70.8722C244.97 71.3097 244.844 71.7008 244.592 72.0455C244.343 72.3902 243.995 72.6619 243.548 72.8608C243.1 73.0597 242.58 73.1591 241.987 73.1591C241.208 73.1591 240.563 72.9901 240.053 72.652C239.542 72.3139 239.219 71.8201 239.083 71.1705L240.197 70.892C240.303 71.303 240.504 71.6113 240.799 71.8168C241.097 72.0223 241.486 72.125 241.967 72.125C242.514 72.125 242.948 72.009 243.27 71.777C243.594 71.5417 243.757 71.2599 243.757 70.9318C243.757 70.6667 243.664 70.4446 243.478 70.2656C243.293 70.0833 243.008 69.9474 242.623 69.858L241.35 69.5597C240.651 69.3939 240.137 69.1371 239.809 68.7891C239.484 68.4377 239.322 67.9986 239.322 67.4716C239.322 67.0407 239.443 66.6596 239.685 66.3281C239.93 65.9967 240.263 65.7365 240.684 65.5476C241.109 65.3587 241.589 65.2642 242.126 65.2642C242.882 65.2642 243.475 65.4299 243.906 65.7614C244.34 66.0928 244.648 66.5303 244.831 67.0739ZM249.838 73.1591C249.122 73.1591 248.506 72.9901 247.989 72.652C247.472 72.3139 247.074 71.8482 246.796 71.255C246.517 70.6617 246.378 69.9839 246.378 69.2216C246.378 68.446 246.521 67.7616 246.806 67.1683C247.094 66.5717 247.495 66.1061 248.009 65.7713C248.526 65.4332 249.129 65.2642 249.818 65.2642C250.355 65.2642 250.839 65.3636 251.27 65.5625C251.701 65.7614 252.054 66.0398 252.329 66.3977C252.604 66.7557 252.775 67.1733 252.841 67.6506H251.668C251.578 67.3026 251.379 66.9943 251.071 66.7259C250.766 66.4541 250.355 66.3182 249.838 66.3182C249.381 66.3182 248.98 66.4375 248.635 66.6761C248.294 66.9115 248.027 67.2446 247.835 67.6754C247.646 68.103 247.551 68.6051 247.551 69.1818C247.551 69.7718 247.644 70.2855 247.83 70.723C248.019 71.1605 248.284 71.5002 248.625 71.7422C248.97 71.9841 249.374 72.1051 249.838 72.1051C250.143 72.1051 250.42 72.0521 250.669 71.946C250.917 71.84 251.128 71.6875 251.3 71.4886C251.472 71.2898 251.595 71.0511 251.668 70.7727H252.841C252.775 71.2235 252.611 71.6295 252.349 71.9908C252.09 72.3487 251.747 72.6338 251.32 72.8459C250.896 73.0547 250.402 73.1591 249.838 73.1591ZM257.758 73.1591C257.022 73.1591 256.387 72.9967 255.854 72.6719C255.324 72.3438 254.914 71.8864 254.626 71.2997C254.341 70.7098 254.198 70.0237 254.198 69.2415C254.198 68.4593 254.341 67.7699 254.626 67.1733C254.914 66.5734 255.315 66.1061 255.829 65.7713C256.346 65.4332 256.949 65.2642 257.639 65.2642C258.036 65.2642 258.429 65.3305 258.817 65.4631C259.205 65.5956 259.558 65.8111 259.876 66.1094C260.194 66.4044 260.448 66.7955 260.637 67.2827C260.825 67.7699 260.92 68.3698 260.92 69.0824V69.5795H255.034V68.5653H259.727C259.727 68.1345 259.641 67.75 259.468 67.4119C259.299 67.0739 259.057 66.8071 258.742 66.6115C258.431 66.416 258.063 66.3182 257.639 66.3182C257.171 66.3182 256.767 66.4342 256.426 66.6662C256.088 66.8949 255.827 67.1932 255.645 67.5611C255.463 67.929 255.372 68.3234 255.372 68.7443V69.4205C255.372 69.9972 255.471 70.486 255.67 70.8871C255.872 71.2848 256.152 71.5881 256.51 71.7969C256.868 72.0024 257.284 72.1051 257.758 72.1051C258.066 72.1051 258.345 72.062 258.593 71.9759C258.845 71.8864 259.062 71.7538 259.244 71.5781C259.427 71.3991 259.568 71.1771 259.667 70.9119L260.801 71.2301C260.681 71.6146 260.481 71.9527 260.199 72.2443C259.917 72.5327 259.569 72.758 259.155 72.9205C258.741 73.0795 258.275 73.1591 257.758 73.1591ZM263.878 62.8182V73H262.705V62.8182H263.878ZM269.229 73.1591C268.493 73.1591 267.858 72.9967 267.325 72.6719C266.794 72.3438 266.385 71.8864 266.097 71.2997C265.812 70.7098 265.669 70.0237 265.669 69.2415C265.669 68.4593 265.812 67.7699 266.097 67.1733C266.385 66.5734 266.786 66.1061 267.3 65.7713C267.817 65.4332 268.42 65.2642 269.109 65.2642C269.507 65.2642 269.9 65.3305 270.288 65.4631C270.675 65.5956 271.028 65.8111 271.347 66.1094C271.665 66.4044 271.918 66.7955 272.107 67.2827C272.296 67.7699 272.391 68.3698 272.391 69.0824V69.5795H266.504V68.5653H271.197C271.197 68.1345 271.111 67.75 270.939 67.4119C270.77 67.0739 270.528 66.8071 270.213 66.6115C269.902 66.416 269.534 66.3182 269.109 66.3182C268.642 66.3182 268.238 66.4342 267.896 66.6662C267.558 66.8949 267.298 67.1932 267.116 67.5611C266.933 67.929 266.842 68.3234 266.842 68.7443V69.4205C266.842 69.9972 266.942 70.486 267.141 70.8871C267.343 71.2848 267.623 71.5881 267.981 71.7969C268.339 72.0024 268.755 72.1051 269.229 72.1051C269.537 72.1051 269.815 72.062 270.064 71.9759C270.316 71.8864 270.533 71.7538 270.715 71.5781C270.897 71.3991 271.038 71.1771 271.138 70.9119L272.271 71.2301C272.152 71.6146 271.951 71.9527 271.67 72.2443C271.388 72.5327 271.04 72.758 270.626 72.9205C270.211 73.0795 269.746 73.1591 269.229 73.1591ZM274.175 73V65.3636H275.309V66.517H275.388C275.528 66.1392 275.78 65.8326 276.144 65.5973C276.509 65.362 276.92 65.2443 277.377 65.2443C277.463 65.2443 277.571 65.246 277.7 65.2493C277.83 65.2526 277.927 65.2576 277.994 65.2642V66.4574C277.954 66.4474 277.863 66.4325 277.72 66.4126C277.581 66.3894 277.433 66.3778 277.278 66.3778C276.906 66.3778 276.575 66.4557 276.283 66.6115C275.995 66.764 275.766 66.9761 275.597 67.2479C275.432 67.5163 275.349 67.8229 275.349 68.1676V73H274.175ZM279.384 73V65.3636H280.558V73H279.384ZM279.981 64.0909C279.752 64.0909 279.555 64.013 279.389 63.8572C279.227 63.7015 279.146 63.5142 279.146 63.2955C279.146 63.0767 279.227 62.8894 279.389 62.7337C279.555 62.5779 279.752 62.5 279.981 62.5C280.21 62.5 280.405 62.5779 280.568 62.7337C280.733 62.8894 280.816 63.0767 280.816 63.2955C280.816 63.5142 280.733 63.7015 280.568 63.8572C280.405 64.013 280.21 64.0909 279.981 64.0909ZM288.116 67.0739L287.062 67.3722C286.996 67.1965 286.898 67.0258 286.768 66.8601C286.643 66.6911 286.47 66.5518 286.251 66.4425C286.033 66.3331 285.753 66.2784 285.411 66.2784C284.944 66.2784 284.554 66.3861 284.243 66.6016C283.935 66.8137 283.781 67.0838 283.781 67.4119C283.781 67.7036 283.887 67.9339 284.099 68.103C284.311 68.272 284.642 68.4129 285.093 68.5256L286.227 68.804C286.909 68.9697 287.418 69.2232 287.753 69.5646C288.088 69.9027 288.255 70.3385 288.255 70.8722C288.255 71.3097 288.129 71.7008 287.877 72.0455C287.629 72.3902 287.281 72.6619 286.833 72.8608C286.386 73.0597 285.865 73.1591 285.272 73.1591C284.493 73.1591 283.848 72.9901 283.338 72.652C282.828 72.3139 282.504 71.8201 282.369 71.1705L283.482 70.892C283.588 71.303 283.789 71.6113 284.084 71.8168C284.382 72.0223 284.772 72.125 285.252 72.125C285.799 72.125 286.233 72.009 286.555 71.777C286.879 71.5417 287.042 71.2599 287.042 70.9318C287.042 70.6667 286.949 70.4446 286.763 70.2656C286.578 70.0833 286.293 69.9474 285.908 69.858L284.636 69.5597C283.936 69.3939 283.423 69.1371 283.094 68.7891C282.77 68.4377 282.607 67.9986 282.607 67.4716C282.607 67.0407 282.728 66.6596 282.97 66.3281C283.215 65.9967 283.549 65.7365 283.969 65.5476C284.394 65.3587 284.874 65.2642 285.411 65.2642C286.167 65.2642 286.76 65.4299 287.191 65.7614C287.625 66.0928 287.933 66.5303 288.116 67.0739ZM296.405 75.8636H295.231V71.8267H295.132C295.046 71.9659 294.923 72.1416 294.764 72.3537C294.605 72.5625 294.378 72.7498 294.083 72.9155C293.788 73.0779 293.395 73.1591 292.905 73.1591C292.268 73.1591 291.706 72.9983 291.219 72.6768C290.732 72.352 290.351 71.8946 290.076 71.3047C289.801 70.7114 289.663 70.0104 289.663 69.2017C289.663 68.3996 289.801 67.7036 290.076 67.1136C290.351 66.5237 290.734 66.0679 291.224 65.7464C291.715 65.425 292.282 65.2642 292.925 65.2642C293.422 65.2642 293.814 65.3471 294.103 65.5128C294.394 65.6752 294.617 65.8608 294.769 66.0696C294.925 66.2751 295.046 66.4441 295.132 66.5767H295.271V65.3636H296.405V75.8636ZM295.251 69.1818C295.251 68.6117 295.168 68.1129 295.003 67.6854C294.837 67.2545 294.592 66.9197 294.267 66.6811C293.942 66.4392 293.541 66.3182 293.064 66.3182C292.567 66.3182 292.152 66.4458 291.821 66.701C291.493 66.9529 291.246 67.2959 291.08 67.7301C290.918 68.161 290.836 68.6449 290.836 69.1818C290.836 69.7254 290.919 70.2192 291.085 70.6634C291.254 71.1042 291.503 71.4555 291.831 71.7173C292.162 71.9759 292.573 72.1051 293.064 72.1051C293.534 72.1051 293.932 71.9825 294.257 71.7372C294.582 71.4886 294.829 71.1456 294.998 70.7081C295.167 70.2673 295.251 69.7585 295.251 69.1818ZM303.365 69.8778V65.3636H304.538V73H303.365V71.7074H303.285C303.106 72.0952 302.828 72.425 302.45 72.6967C302.072 72.9652 301.595 73.0994 301.018 73.0994C300.541 73.0994 300.117 72.995 299.746 72.7862C299.374 72.5741 299.083 72.2559 298.871 71.8317C298.658 71.4041 298.552 70.8655 298.552 70.2159V65.3636H299.726V70.1364C299.726 70.6932 299.881 71.1373 300.193 71.4688C300.508 71.8002 300.909 71.9659 301.396 71.9659C301.688 71.9659 301.984 71.8913 302.286 71.7422C302.591 71.593 302.846 71.3643 303.052 71.0561C303.26 70.7479 303.365 70.3551 303.365 69.8778ZM309.889 73.1591C309.153 73.1591 308.518 72.9967 307.985 72.6719C307.454 72.3438 307.045 71.8864 306.757 71.2997C306.472 70.7098 306.329 70.0237 306.329 69.2415C306.329 68.4593 306.472 67.7699 306.757 67.1733C307.045 66.5734 307.446 66.1061 307.96 65.7713C308.477 65.4332 309.08 65.2642 309.77 65.2642C310.167 65.2642 310.56 65.3305 310.948 65.4631C311.336 65.5956 311.689 65.8111 312.007 66.1094C312.325 66.4044 312.578 66.7955 312.767 67.2827C312.956 67.7699 313.051 68.3698 313.051 69.0824V69.5795H307.164V68.5653H311.858C311.858 68.1345 311.771 67.75 311.599 67.4119C311.43 67.0739 311.188 66.8071 310.873 66.6115C310.562 66.416 310.194 66.3182 309.77 66.3182C309.302 66.3182 308.898 66.4342 308.556 66.6662C308.218 66.8949 307.958 67.1932 307.776 67.5611C307.594 67.929 307.502 68.3234 307.502 68.7443V69.4205C307.502 69.9972 307.602 70.486 307.801 70.8871C308.003 71.2848 308.283 71.5881 308.641 71.7969C308.999 72.0024 309.415 72.1051 309.889 72.1051C310.197 72.1051 310.475 72.062 310.724 71.9759C310.976 71.8864 311.193 71.7538 311.375 71.5781C311.558 71.3991 311.699 71.1771 311.798 70.9119L312.931 71.2301C312.812 71.6146 312.612 71.9527 312.33 72.2443C312.048 72.5327 311.7 72.758 311.286 72.9205C310.872 73.0795 310.406 73.1591 309.889 73.1591ZM318.773 75.8636V65.3636H319.907V66.5767H320.046C320.132 66.4441 320.251 66.2751 320.404 66.0696C320.56 65.8608 320.782 65.6752 321.07 65.5128C321.362 65.3471 321.756 65.2642 322.253 65.2642C322.896 65.2642 323.463 65.425 323.953 65.7464C324.444 66.0679 324.827 66.5237 325.102 67.1136C325.377 67.7036 325.515 68.3996 325.515 69.2017C325.515 70.0104 325.377 70.7114 325.102 71.3047C324.827 71.8946 324.446 72.352 323.958 72.6768C323.471 72.9983 322.909 73.1591 322.273 73.1591C321.783 73.1591 321.39 73.0779 321.095 72.9155C320.8 72.7498 320.573 72.5625 320.414 72.3537C320.255 72.1416 320.132 71.9659 320.046 71.8267H319.946V75.8636H318.773ZM319.926 69.1818C319.926 69.7585 320.011 70.2673 320.18 70.7081C320.349 71.1456 320.596 71.4886 320.921 71.7372C321.246 71.9825 321.643 72.1051 322.114 72.1051C322.605 72.1051 323.014 71.9759 323.342 71.7173C323.673 71.4555 323.922 71.1042 324.088 70.6634C324.257 70.2192 324.341 69.7254 324.341 69.1818C324.341 68.6449 324.258 68.161 324.093 67.7301C323.93 67.2959 323.683 66.9529 323.352 66.701C323.024 66.4458 322.611 66.3182 322.114 66.3182C321.637 66.3182 321.236 66.4392 320.911 66.6811C320.586 66.9197 320.341 67.2545 320.175 67.6854C320.009 68.1129 319.926 68.6117 319.926 69.1818ZM330.407 73.1591C329.717 73.1591 329.112 72.995 328.592 72.6669C328.075 72.3388 327.671 71.8797 327.379 71.2898C327.091 70.6998 326.946 70.0104 326.946 69.2216C326.946 68.4261 327.091 67.7318 327.379 67.1385C327.671 66.5452 328.075 66.0845 328.592 65.7564C329.112 65.4283 329.717 65.2642 330.407 65.2642C331.096 65.2642 331.699 65.4283 332.216 65.7564C332.737 66.0845 333.141 66.5452 333.429 67.1385C333.721 67.7318 333.867 68.4261 333.867 69.2216C333.867 70.0104 333.721 70.6998 333.429 71.2898C333.141 71.8797 332.737 72.3388 332.216 72.6669C331.699 72.995 331.096 73.1591 330.407 73.1591ZM330.407 72.1051C330.93 72.1051 331.361 71.9709 331.699 71.7024C332.037 71.4339 332.288 71.081 332.45 70.6435C332.612 70.206 332.694 69.732 332.694 69.2216C332.694 68.7112 332.612 68.2356 332.45 67.7947C332.288 67.3539 332.037 66.9976 331.699 66.7259C331.361 66.4541 330.93 66.3182 330.407 66.3182C329.883 66.3182 329.452 66.4541 329.114 66.7259C328.776 66.9976 328.526 67.3539 328.363 67.7947C328.201 68.2356 328.12 68.7112 328.12 69.2216C328.12 69.732 328.201 70.206 328.363 70.6435C328.526 71.081 328.776 71.4339 329.114 71.7024C329.452 71.9709 329.883 72.1051 330.407 72.1051ZM335.658 73V65.3636H336.791V66.517H336.871C337.01 66.1392 337.262 65.8326 337.627 65.5973C337.991 65.362 338.402 65.2443 338.86 65.2443C338.946 65.2443 339.053 65.246 339.183 65.2493C339.312 65.2526 339.41 65.2576 339.476 65.2642V66.4574C339.436 66.4474 339.345 66.4325 339.203 66.4126C339.063 66.3894 338.916 66.3778 338.76 66.3778C338.389 66.3778 338.057 66.4557 337.766 66.6115C337.477 66.764 337.249 66.9761 337.08 67.2479C336.914 67.5163 336.831 67.8229 336.831 68.1676V73H335.658ZM344.666 65.3636V66.358H340.709V65.3636H344.666ZM341.862 63.5341H343.036V70.8125C343.036 71.1439 343.084 71.3925 343.18 71.5582C343.279 71.7206 343.405 71.83 343.558 71.8864C343.713 71.9394 343.878 71.9659 344.05 71.9659C344.179 71.9659 344.285 71.9593 344.368 71.946C344.451 71.9295 344.517 71.9162 344.567 71.9062L344.806 72.9602C344.726 72.9901 344.615 73.0199 344.472 73.0497C344.33 73.0829 344.149 73.0994 343.931 73.0994C343.599 73.0994 343.274 73.0282 342.956 72.8857C342.641 72.7431 342.379 72.526 342.171 72.2344C341.965 71.9427 341.862 71.5748 341.862 71.1307V63.5341ZM348.678 73.179C348.195 73.179 347.755 73.0878 347.361 72.9055C346.967 72.7199 346.653 72.4531 346.421 72.1051C346.189 71.7538 346.073 71.3295 346.073 70.8324C346.073 70.3949 346.16 70.0402 346.332 69.7685C346.504 69.4934 346.735 69.2779 347.023 69.1222C347.311 68.9664 347.629 68.8504 347.977 68.7741C348.329 68.6946 348.682 68.6316 349.036 68.5852C349.5 68.5256 349.877 68.4808 350.165 68.451C350.457 68.4179 350.669 68.3632 350.801 68.2869C350.937 68.2107 351.005 68.0781 351.005 67.8892V67.8494C351.005 67.3589 350.871 66.9777 350.602 66.706C350.337 66.4342 349.935 66.2983 349.394 66.2983C348.834 66.2983 348.395 66.4209 348.077 66.6662C347.759 66.9115 347.535 67.1733 347.406 67.4517L346.292 67.054C346.491 66.59 346.756 66.2287 347.088 65.9702C347.422 65.7083 347.787 65.526 348.181 65.4233C348.579 65.3172 348.97 65.2642 349.355 65.2642C349.6 65.2642 349.882 65.294 350.2 65.3537C350.521 65.41 350.831 65.5277 351.129 65.7067C351.431 65.8857 351.681 66.1558 351.88 66.517C352.079 66.8783 352.178 67.3622 352.178 67.9688V73H351.005V71.9659H350.945C350.866 72.1316 350.733 72.3089 350.548 72.4979C350.362 72.6868 350.115 72.8475 349.807 72.9801C349.499 73.1127 349.123 73.179 348.678 73.179ZM348.857 72.125C349.321 72.125 349.713 72.0339 350.031 71.8516C350.352 71.6693 350.594 71.4339 350.757 71.1456C350.922 70.8572 351.005 70.554 351.005 70.2358V69.1619C350.955 69.2216 350.846 69.2763 350.677 69.326C350.511 69.3724 350.319 69.4138 350.1 69.4503C349.885 69.4834 349.674 69.5133 349.469 69.5398C349.267 69.563 349.103 69.5829 348.977 69.5994C348.672 69.6392 348.387 69.7038 348.122 69.7933C347.86 69.8795 347.648 70.0104 347.485 70.1861C347.326 70.3584 347.247 70.5937 347.247 70.892C347.247 71.2997 347.397 71.608 347.699 71.8168C348.004 72.0223 348.39 72.125 348.857 72.125ZM358.257 75.8636V65.3636H359.391V66.5767H359.53C359.616 66.4441 359.736 66.2751 359.888 66.0696C360.044 65.8608 360.266 65.6752 360.554 65.5128C360.846 65.3471 361.24 65.2642 361.738 65.2642C362.381 65.2642 362.947 65.425 363.438 65.7464C363.928 66.0679 364.311 66.5237 364.586 67.1136C364.861 67.7036 364.999 68.3996 364.999 69.2017C364.999 70.0104 364.861 70.7114 364.586 71.3047C364.311 71.8946 363.93 72.352 363.443 72.6768C362.956 72.9983 362.394 73.1591 361.757 73.1591C361.267 73.1591 360.874 73.0779 360.579 72.9155C360.284 72.7498 360.057 72.5625 359.898 72.3537C359.739 72.1416 359.616 71.9659 359.53 71.8267H359.431V75.8636H358.257ZM359.411 69.1818C359.411 69.7585 359.495 70.2673 359.664 70.7081C359.833 71.1456 360.08 71.4886 360.405 71.7372C360.73 71.9825 361.128 72.1051 361.598 72.1051C362.089 72.1051 362.498 71.9759 362.826 71.7173C363.158 71.4555 363.406 71.1042 363.572 70.6634C363.741 70.2192 363.826 69.7254 363.826 69.1818C363.826 68.6449 363.743 68.161 363.577 67.7301C363.415 67.2959 363.168 66.9529 362.836 66.701C362.508 66.4458 362.096 66.3182 361.598 66.3182C361.121 66.3182 360.72 66.4392 360.395 66.6811C360.07 66.9197 359.825 67.2545 359.659 67.6854C359.494 68.1129 359.411 68.6117 359.411 69.1818ZM371.601 69.8778V65.3636H372.775V73H371.601V71.7074H371.522C371.343 72.0952 371.064 72.425 370.686 72.6967C370.309 72.9652 369.831 73.0994 369.255 73.0994C368.777 73.0994 368.353 72.995 367.982 72.7862C367.611 72.5741 367.319 72.2559 367.107 71.8317C366.895 71.4041 366.789 70.8655 366.789 70.2159V65.3636H367.962V70.1364C367.962 70.6932 368.118 71.1373 368.429 71.4688C368.744 71.8002 369.145 71.9659 369.632 71.9659C369.924 71.9659 370.221 71.8913 370.522 71.7422C370.827 71.593 371.083 71.3643 371.288 71.0561C371.497 70.7479 371.601 70.3551 371.601 69.8778ZM374.923 73V65.3636H376.057V66.517H376.137C376.276 66.1392 376.528 65.8326 376.892 65.5973C377.257 65.362 377.668 65.2443 378.125 65.2443C378.211 65.2443 378.319 65.246 378.448 65.2493C378.578 65.2526 378.675 65.2576 378.742 65.2642V66.4574C378.702 66.4474 378.611 66.4325 378.468 66.4126C378.329 66.3894 378.182 66.3778 378.026 66.3778C377.655 66.3778 377.323 66.4557 377.031 66.6115C376.743 66.764 376.514 66.9761 376.345 67.2479C376.18 67.5163 376.097 67.8229 376.097 68.1676V73H374.923ZM384.945 69.8778V65.3636H386.118V73H384.945V71.7074H384.865C384.686 72.0952 384.408 72.425 384.03 72.6967C383.652 72.9652 383.175 73.0994 382.598 73.0994C382.121 73.0994 381.697 72.995 381.326 72.7862C380.954 72.5741 380.663 72.2559 380.451 71.8317C380.239 71.4041 380.132 70.8655 380.132 70.2159V65.3636H381.306V70.1364C381.306 70.6932 381.462 71.1373 381.773 71.4688C382.088 71.8002 382.489 71.9659 382.976 71.9659C383.268 71.9659 383.565 71.8913 383.866 71.7422C384.171 71.593 384.426 71.3643 384.632 71.0561C384.841 70.7479 384.945 70.3551 384.945 69.8778ZM393.676 67.0739L392.622 67.3722C392.556 67.1965 392.458 67.0258 392.329 66.8601C392.203 66.6911 392.031 66.5518 391.812 66.4425C391.593 66.3331 391.313 66.2784 390.972 66.2784C390.504 66.2784 390.115 66.3861 389.803 66.6016C389.495 66.8137 389.341 67.0838 389.341 67.4119C389.341 67.7036 389.447 67.9339 389.659 68.103C389.871 68.272 390.203 68.4129 390.654 68.5256L391.787 68.804C392.47 68.9697 392.979 69.2232 393.313 69.5646C393.648 69.9027 393.816 70.3385 393.816 70.8722C393.816 71.3097 393.69 71.7008 393.438 72.0455C393.189 72.3902 392.841 72.6619 392.394 72.8608C391.946 73.0597 391.426 73.1591 390.833 73.1591C390.054 73.1591 389.409 72.9901 388.899 72.652C388.388 72.3139 388.065 71.8201 387.929 71.1705L389.043 70.892C389.149 71.303 389.349 71.6113 389.644 71.8168C389.943 72.0223 390.332 72.125 390.813 72.125C391.36 72.125 391.794 72.009 392.115 71.777C392.44 71.5417 392.602 71.2599 392.602 70.9318C392.602 70.6667 392.51 70.4446 392.324 70.2656C392.138 70.0833 391.853 69.9474 391.469 69.858L390.196 69.5597C389.497 69.3939 388.983 69.1371 388.655 68.7891C388.33 68.4377 388.168 67.9986 388.168 67.4716C388.168 67.0407 388.289 66.6596 388.531 66.3281C388.776 65.9967 389.109 65.7365 389.53 65.5476C389.954 65.3587 390.435 65.2642 390.972 65.2642C391.727 65.2642 392.321 65.4299 392.752 65.7614C393.186 66.0928 393.494 66.5303 393.676 67.0739ZM404.332 69.8778V65.3636H405.505V73H404.332V71.7074H404.252C404.073 72.0952 403.795 72.425 403.417 72.6967C403.039 72.9652 402.562 73.0994 401.985 73.0994C401.508 73.0994 401.084 72.995 400.712 72.7862C400.341 72.5741 400.049 72.2559 399.837 71.8317C399.625 71.4041 399.519 70.8655 399.519 70.2159V65.3636H400.692V70.1364C400.692 70.6932 400.848 71.1373 401.16 71.4688C401.475 71.8002 401.876 71.9659 402.363 71.9659C402.655 71.9659 402.951 71.8913 403.253 71.7422C403.558 71.593 403.813 71.3643 404.018 71.0561C404.227 70.7479 404.332 70.3551 404.332 69.8778ZM410.975 65.3636V66.358H407.018V65.3636H410.975ZM408.171 63.5341H409.344V70.8125C409.344 71.1439 409.392 71.3925 409.488 71.5582C409.588 71.7206 409.714 71.83 409.866 71.8864C410.022 71.9394 410.186 71.9659 410.358 71.9659C410.488 71.9659 410.594 71.9593 410.677 71.946C410.76 71.9295 410.826 71.9162 410.876 71.9062L411.114 72.9602C411.035 72.9901 410.924 73.0199 410.781 73.0497C410.639 73.0829 410.458 73.0994 410.239 73.0994C409.908 73.0994 409.583 73.0282 409.265 72.8857C408.95 72.7431 408.688 72.526 408.479 72.2344C408.274 71.9427 408.171 71.5748 408.171 71.1307V63.5341ZM185.318 85.3636L182.494 93H181.301L178.477 85.3636H179.75L181.858 91.4489H181.938L184.045 85.3636H185.318ZM189.795 93.1591C189.059 93.1591 188.425 92.9967 187.891 92.6719C187.361 92.3438 186.951 91.8864 186.663 91.2997C186.378 90.7098 186.235 90.0237 186.235 89.2415C186.235 88.4593 186.378 87.7699 186.663 87.1733C186.951 86.5734 187.352 86.1061 187.866 85.7713C188.383 85.4332 188.986 85.2642 189.676 85.2642C190.074 85.2642 190.466 85.3305 190.854 85.4631C191.242 85.5956 191.595 85.8111 191.913 86.1094C192.231 86.4044 192.485 86.7955 192.674 87.2827C192.863 87.7699 192.957 88.3698 192.957 89.0824V89.5795H187.071V88.5653H191.764C191.764 88.1345 191.678 87.75 191.505 87.4119C191.336 87.0739 191.094 86.8071 190.779 86.6115C190.468 86.416 190.1 86.3182 189.676 86.3182C189.208 86.3182 188.804 86.4342 188.463 86.6662C188.125 86.8949 187.864 87.1932 187.682 87.5611C187.5 87.929 187.409 88.3234 187.409 88.7443V89.4205C187.409 89.9972 187.508 90.486 187.707 90.8871C187.909 91.2848 188.189 91.5881 188.547 91.7969C188.905 92.0024 189.321 92.1051 189.795 92.1051C190.103 92.1051 190.382 92.062 190.63 91.9759C190.882 91.8864 191.099 91.7538 191.282 91.5781C191.464 91.3991 191.605 91.1771 191.704 90.9119L192.838 91.2301C192.718 91.6146 192.518 91.9527 192.236 92.2443C191.954 92.5327 191.606 92.758 191.192 92.9205C190.778 93.0795 190.312 93.1591 189.795 93.1591ZM195.915 82.8182V93H194.742V82.8182H195.915ZM203.175 88.4062V93H202.002V85.3636H203.135V86.5568H203.235C203.414 86.169 203.685 85.8575 204.05 85.6222C204.414 85.3835 204.885 85.2642 205.462 85.2642C205.979 85.2642 206.431 85.3703 206.819 85.5824C207.207 85.7912 207.508 86.1094 207.724 86.5369C207.939 86.9612 208.047 87.4981 208.047 88.1477V93H206.874V88.2273C206.874 87.6274 206.718 87.16 206.406 86.8253C206.095 86.4872 205.667 86.3182 205.124 86.3182C204.749 86.3182 204.414 86.3994 204.119 86.5618C203.828 86.7242 203.597 86.9612 203.428 87.2727C203.259 87.5843 203.175 87.9621 203.175 88.4062ZM210.191 93V85.3636H211.364V93H210.191ZM210.788 84.0909C210.559 84.0909 210.362 84.013 210.196 83.8572C210.034 83.7015 209.952 83.5142 209.952 83.2955C209.952 83.0767 210.034 82.8894 210.196 82.7337C210.362 82.5779 210.559 82.5 210.788 82.5C211.016 82.5 211.212 82.5779 211.374 82.7337C211.54 82.8894 211.623 83.0767 211.623 83.2955C211.623 83.5142 211.54 83.7015 211.374 83.8572C211.212 84.013 211.016 84.0909 210.788 84.0909ZM218.922 87.0739L217.868 87.3722C217.802 87.1965 217.704 87.0258 217.575 86.8601C217.449 86.6911 217.277 86.5518 217.058 86.4425C216.839 86.3331 216.559 86.2784 216.218 86.2784C215.751 86.2784 215.361 86.3861 215.05 86.6016C214.741 86.8137 214.587 87.0838 214.587 87.4119C214.587 87.7036 214.693 87.9339 214.905 88.103C215.117 88.272 215.449 88.4129 215.9 88.5256L217.033 88.804C217.716 88.9697 218.225 89.2232 218.559 89.5646C218.894 89.9027 219.062 90.3385 219.062 90.8722C219.062 91.3097 218.936 91.7008 218.684 92.0455C218.435 92.3902 218.087 92.6619 217.64 92.8608C217.192 93.0597 216.672 93.1591 216.079 93.1591C215.3 93.1591 214.655 92.9901 214.145 92.652C213.634 92.3139 213.311 91.8201 213.175 91.1705L214.289 90.892C214.395 91.303 214.595 91.6113 214.89 91.8168C215.189 92.0223 215.578 92.125 216.059 92.125C216.606 92.125 217.04 92.009 217.361 91.777C217.686 91.5417 217.849 91.2599 217.849 90.9318C217.849 90.6667 217.756 90.4446 217.57 90.2656C217.385 90.0833 217.099 89.9474 216.715 89.858L215.442 89.5597C214.743 89.3939 214.229 89.1371 213.901 88.7891C213.576 88.4377 213.414 87.9986 213.414 87.4716C213.414 87.0407 213.535 86.6596 213.777 86.3281C214.022 85.9967 214.355 85.7365 214.776 85.5476C215.2 85.3587 215.681 85.2642 216.218 85.2642C216.974 85.2642 217.567 85.4299 217.998 85.7614C218.432 86.0928 218.74 86.5303 218.922 87.0739ZM222.001 82.8182V93H220.828V82.8182H222.001ZM230.335 93.179C229.851 93.179 229.412 93.0878 229.017 92.9055C228.623 92.7199 228.31 92.4531 228.078 92.1051C227.846 91.7538 227.73 91.3295 227.73 90.8324C227.73 90.3949 227.816 90.0402 227.988 89.7685C228.16 89.4934 228.391 89.2779 228.679 89.1222C228.968 88.9664 229.286 88.8504 229.634 88.7741C229.985 88.6946 230.338 88.6316 230.693 88.5852C231.157 88.5256 231.533 88.4808 231.821 88.451C232.113 88.4179 232.325 88.3632 232.458 88.2869C232.593 88.2107 232.661 88.0781 232.661 87.8892V87.8494C232.661 87.3589 232.527 86.9777 232.259 86.706C231.994 86.4342 231.591 86.2983 231.051 86.2983C230.49 86.2983 230.051 86.4209 229.733 86.6662C229.415 86.9115 229.191 87.1733 229.062 87.4517L227.948 87.054C228.147 86.59 228.412 86.2287 228.744 85.9702C229.079 85.7083 229.443 85.526 229.838 85.4233C230.235 85.3172 230.626 85.2642 231.011 85.2642C231.256 85.2642 231.538 85.294 231.856 85.3537C232.177 85.41 232.487 85.5277 232.786 85.7067C233.087 85.8857 233.338 86.1558 233.536 86.517C233.735 86.8783 233.835 87.3622 233.835 87.9688V93H232.661V91.9659H232.602C232.522 92.1316 232.39 92.3089 232.204 92.4979C232.018 92.6868 231.771 92.8475 231.463 92.9801C231.155 93.1127 230.779 93.179 230.335 93.179ZM230.514 92.125C230.978 92.125 231.369 92.0339 231.687 91.8516C232.008 91.6693 232.25 91.4339 232.413 91.1456C232.579 90.8572 232.661 90.554 232.661 90.2358V89.1619C232.612 89.2216 232.502 89.2763 232.333 89.326C232.168 89.3724 231.975 89.4138 231.757 89.4503C231.541 89.4834 231.331 89.5133 231.125 89.5398C230.923 89.563 230.759 89.5829 230.633 89.5994C230.328 89.6392 230.043 89.7038 229.778 89.7933C229.516 89.8795 229.304 90.0104 229.142 90.1861C228.982 90.3584 228.903 90.5937 228.903 90.892C228.903 91.2997 229.054 91.608 229.355 91.8168C229.66 92.0223 230.046 92.125 230.514 92.125ZM236.831 93.0795C236.586 93.0795 236.376 92.9917 236.2 92.8161C236.024 92.6404 235.936 92.4299 235.936 92.1847C235.936 91.9394 236.024 91.7289 236.2 91.5533C236.376 91.3776 236.586 91.2898 236.831 91.2898C237.077 91.2898 237.287 91.3776 237.463 91.5533C237.638 91.7289 237.726 91.9394 237.726 92.1847C237.726 92.3471 237.685 92.4962 237.602 92.6321C237.522 92.768 237.415 92.8774 237.279 92.9602C237.146 93.0398 236.997 93.0795 236.831 93.0795Z" fill="white" fill-opacity="0.95"/>
<path d="M217.233 143V132.818H218.466V141.906H223.199V143H217.233ZM224.949 143V135.364H226.122V143H224.949ZM225.545 134.091C225.317 134.091 225.12 134.013 224.954 133.857C224.791 133.701 224.71 133.514 224.71 133.295C224.71 133.077 224.791 132.889 224.954 132.734C225.12 132.578 225.317 132.5 225.545 132.5C225.774 132.5 225.97 132.578 226.132 132.734C226.298 132.889 226.381 133.077 226.381 133.295C226.381 133.514 226.298 133.701 226.132 133.857C225.97 134.013 225.774 134.091 225.545 134.091ZM229.444 138.406V143H228.271V135.364H229.405V136.557H229.504C229.683 136.169 229.955 135.857 230.319 135.622C230.684 135.384 231.155 135.264 231.731 135.264C232.248 135.264 232.701 135.37 233.089 135.582C233.476 135.791 233.778 136.109 233.993 136.537C234.209 136.961 234.317 137.498 234.317 138.148V143H233.143V138.227C233.143 137.627 232.988 137.16 232.676 136.825C232.364 136.487 231.937 136.318 231.393 136.318C231.019 136.318 230.684 136.399 230.389 136.562C230.097 136.724 229.867 136.961 229.698 137.273C229.529 137.584 229.444 137.962 229.444 138.406ZM237.554 140.216L237.534 138.764H237.773L241.114 135.364H242.566L239.006 138.963H238.907L237.554 140.216ZM236.461 143V132.818H237.634V143H236.461ZM241.313 143L238.33 139.222L239.165 138.406L242.804 143H241.313Z" fill="#64B4FA"/>
<g clip-path="url(#clip0_3610_21984)">
<path d="M264.225 141.518C265.046 140.529 265.495 139.285 265.495 138C265.495 136.715 265.046 135.471 264.225 134.483L266.854 131.853C266.901 131.807 266.939 131.752 266.965 131.691C266.991 131.63 267.004 131.565 267.005 131.499C267.005 131.432 266.992 131.367 266.967 131.306C266.942 131.244 266.905 131.189 266.858 131.142C266.811 131.095 266.756 131.058 266.694 131.033C266.633 131.008 266.568 130.995 266.501 130.995C266.435 130.996 266.37 131.009 266.309 131.035C266.248 131.061 266.193 131.099 266.147 131.146L263.518 133.775C262.531 132.951 261.286 132.5 260 132.5C258.714 132.5 257.469 132.951 256.482 133.775L253.854 131.146C253.759 131.055 253.633 131.004 253.501 131.004C253.37 131.005 253.244 131.058 253.151 131.151C253.058 131.244 253.005 131.37 253.005 131.501C253.004 131.633 253.055 131.759 253.147 131.853L255.775 134.482C254.954 135.471 254.505 136.715 254.505 138C254.505 139.285 254.954 140.529 255.775 141.518L253.147 144.146C253.099 144.193 253.061 144.248 253.036 144.309C253.01 144.37 252.996 144.435 252.996 144.501C252.995 144.567 253.008 144.633 253.033 144.694C253.058 144.756 253.095 144.811 253.142 144.858C253.189 144.905 253.244 144.942 253.306 144.967C253.367 144.992 253.433 145.005 253.499 145.004C253.565 145.004 253.63 144.99 253.691 144.965C253.752 144.939 253.807 144.901 253.854 144.853L256.482 142.225C257.469 143.049 258.714 143.5 260 143.5C261.286 143.5 262.531 143.049 263.518 142.225L266.147 144.853C266.241 144.945 266.367 144.996 266.499 144.995C266.63 144.995 266.756 144.942 266.849 144.849C266.942 144.756 266.995 144.63 266.996 144.499C266.996 144.367 266.945 144.241 266.854 144.146L264.225 141.518ZM263.515 140.808L260.707 138L263.515 135.192C264.15 135.99 264.496 136.98 264.496 138C264.496 139.02 264.15 140.01 263.515 140.808ZM260 133.5C261.021 133.498 262.012 133.845 262.808 134.485L260 137.293L257.192 134.485C257.988 133.845 258.979 133.498 260 133.5ZM256.485 135.192L259.293 138L256.485 140.808C255.85 140.01 255.503 139.02 255.503 138C255.503 136.98 255.85 135.99 256.485 135.192ZM260 142.5C258.979 142.502 257.988 142.155 257.192 141.515L260 138.707L262.808 141.515C262.012 142.155 261.021 142.502 260 142.5Z" fill="#64B4FA"/>
</g>
<path d="M289.513 144V132.364H291.268V142.489H296.541V144H289.513ZM300.947 144.193C300.394 144.193 299.894 144.091 299.447 143.886C299 143.678 298.646 143.377 298.385 142.983C298.127 142.589 297.999 142.106 297.999 141.534C297.999 141.042 298.093 140.636 298.283 140.318C298.472 140 298.728 139.748 299.05 139.562C299.372 139.377 299.732 139.237 300.129 139.142C300.527 139.047 300.932 138.975 301.345 138.926C301.868 138.866 302.292 138.816 302.618 138.778C302.944 138.737 303.18 138.67 303.328 138.58C303.476 138.489 303.55 138.341 303.55 138.136V138.097C303.55 137.6 303.41 137.216 303.129 136.943C302.853 136.67 302.44 136.534 301.891 136.534C301.319 136.534 300.868 136.661 300.538 136.915C300.213 137.165 299.987 137.443 299.862 137.75L298.266 137.386C298.455 136.856 298.732 136.428 299.095 136.102C299.463 135.773 299.885 135.534 300.362 135.386C300.839 135.235 301.341 135.159 301.868 135.159C302.216 135.159 302.586 135.201 302.976 135.284C303.37 135.364 303.737 135.511 304.078 135.727C304.423 135.943 304.705 136.252 304.925 136.653C305.144 137.051 305.254 137.568 305.254 138.205V144H303.595V142.807H303.527C303.417 143.027 303.252 143.242 303.033 143.455C302.813 143.667 302.531 143.843 302.186 143.983C301.841 144.123 301.429 144.193 300.947 144.193ZM301.317 142.83C301.786 142.83 302.188 142.737 302.521 142.551C302.858 142.366 303.114 142.123 303.288 141.824C303.466 141.521 303.555 141.197 303.555 140.852V139.727C303.495 139.788 303.377 139.845 303.203 139.898C303.033 139.947 302.838 139.991 302.618 140.028C302.398 140.062 302.184 140.095 301.976 140.125C301.768 140.152 301.593 140.174 301.453 140.193C301.124 140.235 300.822 140.305 300.55 140.403C300.281 140.502 300.065 140.644 299.902 140.83C299.743 141.011 299.663 141.254 299.663 141.557C299.663 141.977 299.819 142.295 300.129 142.511C300.44 142.723 300.836 142.83 301.317 142.83ZM307.653 144V132.364H309.352V136.688H309.455C309.553 136.506 309.695 136.295 309.881 136.057C310.066 135.818 310.324 135.61 310.653 135.432C310.983 135.25 311.419 135.159 311.96 135.159C312.665 135.159 313.294 135.337 313.847 135.693C314.4 136.049 314.833 136.562 315.148 137.233C315.466 137.903 315.625 138.71 315.625 139.653C315.625 140.597 315.468 141.405 315.153 142.08C314.839 142.75 314.407 143.267 313.858 143.631C313.309 143.991 312.682 144.17 311.977 144.17C311.447 144.17 311.013 144.081 310.676 143.903C310.343 143.725 310.081 143.517 309.892 143.278C309.703 143.04 309.557 142.828 309.455 142.642H309.312V144H307.653ZM309.318 139.636C309.318 140.25 309.407 140.788 309.585 141.25C309.763 141.712 310.021 142.074 310.358 142.335C310.695 142.593 311.108 142.722 311.597 142.722C312.104 142.722 312.528 142.587 312.869 142.318C313.21 142.045 313.468 141.676 313.642 141.21C313.82 140.744 313.909 140.22 313.909 139.636C313.909 139.061 313.822 138.544 313.648 138.085C313.477 137.627 313.22 137.265 312.875 137C312.534 136.735 312.108 136.602 311.597 136.602C311.104 136.602 310.688 136.729 310.347 136.983C310.009 137.237 309.754 137.591 309.58 138.045C309.405 138.5 309.318 139.03 309.318 139.636ZM321.294 144.176C320.434 144.176 319.694 143.992 319.072 143.625C318.455 143.254 317.978 142.733 317.641 142.062C317.307 141.388 317.141 140.598 317.141 139.693C317.141 138.799 317.307 138.011 317.641 137.33C317.978 136.648 318.447 136.116 319.05 135.733C319.656 135.35 320.364 135.159 321.175 135.159C321.667 135.159 322.144 135.241 322.607 135.403C323.069 135.566 323.483 135.822 323.851 136.17C324.218 136.519 324.508 136.972 324.72 137.528C324.932 138.081 325.038 138.754 325.038 139.545V140.148H318.101V138.875H323.374C323.374 138.428 323.283 138.032 323.101 137.688C322.919 137.339 322.663 137.064 322.334 136.864C322.008 136.663 321.625 136.562 321.186 136.562C320.709 136.562 320.292 136.68 319.936 136.915C319.584 137.146 319.311 137.449 319.118 137.824C318.929 138.195 318.834 138.598 318.834 139.034V140.028C318.834 140.612 318.936 141.108 319.141 141.517C319.349 141.926 319.639 142.239 320.01 142.455C320.381 142.667 320.815 142.773 321.311 142.773C321.633 142.773 321.927 142.727 322.192 142.636C322.457 142.542 322.686 142.402 322.879 142.216C323.072 142.03 323.22 141.801 323.322 141.528L324.93 141.818C324.802 142.292 324.571 142.706 324.237 143.062C323.908 143.415 323.493 143.689 322.993 143.886C322.497 144.08 321.93 144.176 321.294 144.176ZM328.622 132.364V144H326.923V132.364H328.622Z" fill="white" fill-opacity="0.95"/>
<rect x="350" y="122" width="66" height="32" rx="16" fill="white" fill-opacity="0.95"/>
<path d="M363.513 144V132.364H365.268V142.489H370.541V144H363.513ZM374.947 144.193C374.394 144.193 373.894 144.091 373.447 143.886C373 143.678 372.646 143.377 372.385 142.983C372.127 142.589 371.999 142.106 371.999 141.534C371.999 141.042 372.093 140.636 372.283 140.318C372.472 140 372.728 139.748 373.05 139.562C373.372 139.377 373.732 139.237 374.129 139.142C374.527 139.047 374.932 138.975 375.345 138.926C375.868 138.866 376.292 138.816 376.618 138.778C376.944 138.737 377.18 138.67 377.328 138.58C377.476 138.489 377.55 138.341 377.55 138.136V138.097C377.55 137.6 377.41 137.216 377.129 136.943C376.853 136.67 376.44 136.534 375.891 136.534C375.319 136.534 374.868 136.661 374.538 136.915C374.213 137.165 373.987 137.443 373.862 137.75L372.266 137.386C372.455 136.856 372.732 136.428 373.095 136.102C373.463 135.773 373.885 135.534 374.362 135.386C374.839 135.235 375.341 135.159 375.868 135.159C376.216 135.159 376.586 135.201 376.976 135.284C377.37 135.364 377.737 135.511 378.078 135.727C378.423 135.943 378.705 136.252 378.925 136.653C379.144 137.051 379.254 137.568 379.254 138.205V144H377.595V142.807H377.527C377.417 143.027 377.252 143.242 377.033 143.455C376.813 143.667 376.531 143.843 376.186 143.983C375.841 144.123 375.429 144.193 374.947 144.193ZM375.317 142.83C375.786 142.83 376.188 142.737 376.521 142.551C376.858 142.366 377.114 142.123 377.288 141.824C377.466 141.521 377.555 141.197 377.555 140.852V139.727C377.495 139.788 377.377 139.845 377.203 139.898C377.033 139.947 376.838 139.991 376.618 140.028C376.398 140.062 376.184 140.095 375.976 140.125C375.768 140.152 375.593 140.174 375.453 140.193C375.124 140.235 374.822 140.305 374.55 140.403C374.281 140.502 374.065 140.644 373.902 140.83C373.743 141.011 373.663 141.254 373.663 141.557C373.663 141.977 373.819 142.295 374.129 142.511C374.44 142.723 374.836 142.83 375.317 142.83ZM381.653 144V132.364H383.352V136.688H383.455C383.553 136.506 383.695 136.295 383.881 136.057C384.066 135.818 384.324 135.61 384.653 135.432C384.983 135.25 385.419 135.159 385.96 135.159C386.665 135.159 387.294 135.337 387.847 135.693C388.4 136.049 388.833 136.562 389.148 137.233C389.466 137.903 389.625 138.71 389.625 139.653C389.625 140.597 389.468 141.405 389.153 142.08C388.839 142.75 388.407 143.267 387.858 143.631C387.309 143.991 386.682 144.17 385.977 144.17C385.447 144.17 385.013 144.081 384.676 143.903C384.343 143.725 384.081 143.517 383.892 143.278C383.703 143.04 383.557 142.828 383.455 142.642H383.312V144H381.653ZM383.318 139.636C383.318 140.25 383.407 140.788 383.585 141.25C383.763 141.712 384.021 142.074 384.358 142.335C384.695 142.593 385.108 142.722 385.597 142.722C386.104 142.722 386.528 142.587 386.869 142.318C387.21 142.045 387.468 141.676 387.642 141.21C387.82 140.744 387.909 140.22 387.909 139.636C387.909 139.061 387.822 138.544 387.648 138.085C387.477 137.627 387.22 137.265 386.875 137C386.534 136.735 386.108 136.602 385.597 136.602C385.104 136.602 384.688 136.729 384.347 136.983C384.009 137.237 383.754 137.591 383.58 138.045C383.405 138.5 383.318 139.03 383.318 139.636ZM395.294 144.176C394.434 144.176 393.694 143.992 393.072 143.625C392.455 143.254 391.978 142.733 391.641 142.062C391.307 141.388 391.141 140.598 391.141 139.693C391.141 138.799 391.307 138.011 391.641 137.33C391.978 136.648 392.447 136.116 393.05 135.733C393.656 135.35 394.364 135.159 395.175 135.159C395.667 135.159 396.144 135.241 396.607 135.403C397.069 135.566 397.483 135.822 397.851 136.17C398.218 136.519 398.508 136.972 398.72 137.528C398.932 138.081 399.038 138.754 399.038 139.545V140.148H392.101V138.875H397.374C397.374 138.428 397.283 138.032 397.101 137.688C396.919 137.339 396.663 137.064 396.334 136.864C396.008 136.663 395.625 136.562 395.186 136.562C394.709 136.562 394.292 136.68 393.936 136.915C393.584 137.146 393.311 137.449 393.118 137.824C392.929 138.195 392.834 138.598 392.834 139.034V140.028C392.834 140.612 392.936 141.108 393.141 141.517C393.349 141.926 393.639 142.239 394.01 142.455C394.381 142.667 394.815 142.773 395.311 142.773C395.633 142.773 395.927 142.727 396.192 142.636C396.457 142.542 396.686 142.402 396.879 142.216C397.072 142.03 397.22 141.801 397.322 141.528L398.93 141.818C398.802 142.292 398.571 142.706 398.237 143.062C397.908 143.415 397.493 143.689 396.993 143.886C396.497 144.08 395.93 144.176 395.294 144.176ZM402.622 132.364V144H400.923V132.364H402.622Z" fill="black" fill-opacity="0.95"/>
</g>
</g>
<defs>
<filter id="filter0_dd_3610_21984" x="0" y="0" width="440" height="182" filterUnits="userSpaceOnUse" color-interpolation-filters="sRGB">
<feFlood flood-opacity="0" result="BackgroundImageFix"/>
<feColorMatrix in="SourceAlpha" type="matrix" values="0 0 0 0 0 0 0 0 0 0 0 0 0 0 0 0 0 0 127 0" result="hardAlpha"/>
<feOffset/>
<feGaussianBlur stdDeviation="0.5"/>
<feColorMatrix type="matrix" values="0 0 0 0 0 0 0 0 0 0 0 0 0 0 0 0 0 0 0.16 0"/>
<feBlend mode="normal" in2="BackgroundImageFix" result="effect1_dropShadow_3610_21984"/>
<feColorMatrix in="SourceAlpha" type="matrix" values="0 0 0 0 0 0 0 0 0 0 0 0 0 0 0 0 0 0 127 0" result="hardAlpha"/>
<feOffset dy="4"/>
<feGaussianBlur stdDeviation="4"/>
<feColorMatrix type="matrix" values="0 0 0 0 0 0 0 0 0 0 0 0 0 0 0 0 0 0 0.16 0"/>
<feBlend mode="normal" in2="effect1_dropShadow_3610_21984" result="effect2_dropShadow_3610_21984"/>
<feBlend mode="normal" in="SourceGraphic" in2="effect2_dropShadow_3610_21984" result="shape"/>
</filter>
<filter id="filter1_dd_3610_21984" x="0" y="0" width="440" height="182" filterUnits="userSpaceOnUse" color-interpolation-filters="sRGB">
<feFlood flood-opacity="0" result="BackgroundImageFix"/>
<feColorMatrix in="SourceAlpha" type="matrix" values="0 0 0 0 0 0 0 0 0 0 0 0 0 0 0 0 0 0 127 0" result="hardAlpha"/>
<feOffset/>
<feGaussianBlur stdDeviation="0.5"/>
<feColorMatrix type="matrix" values="0 0 0 0 0 0 0 0 0 0 0 0 0 0 0 0 0 0 0.16 0"/>
<feBlend mode="normal" in2="BackgroundImageFix" result="effect1_dropShadow_3610_21984"/>
<feColorMatrix in="SourceAlpha" type="matrix" values="0 0 0 0 0 0 0 0 0 0 0 0 0 0 0 0 0 0 127 0" result="hardAlpha"/>
<feOffset dy="4"/>
<feGaussianBlur stdDeviation="4"/>
<feColorMatrix type="matrix" values="0 0 0 0 0 0 0 0 0 0 0 0 0 0 0 0 0 0 0.16 0"/>
<feBlend mode="normal" in2="effect1_dropShadow_3610_21984" result="effect2_dropShadow_3610_21984"/>
<feBlend mode="normal" in="SourceGraphic" in2="effect2_dropShadow_3610_21984" result="shape"/>
</filter>
<clipPath id="clip0_3610_21984">
<rect width="16" height="16" fill="white" transform="translate(252 130)"/>
</clipPath>
</defs>
</svg>
