<svg width="300" height="64" viewBox="0 0 300 64" fill="none" xmlns="http://www.w3.org/2000/svg">
<path d="M1.23295 15V4.81818H2.46591V13.9062H7.19886V15H1.23295ZM11.196 15.179C10.7121 15.179 10.273 15.0878 9.87855 14.9055C9.48414 14.7199 9.17093 14.4531 8.93892 14.1051C8.70691 13.7538 8.59091 13.3295 8.59091 12.8324C8.59091 12.3949 8.67708 12.0402 8.84943 11.7685C9.02178 11.4934 9.25213 11.2779 9.54048 11.1222C9.82884 10.9664 10.147 10.8504 10.495 10.7741C10.8464 10.6946 11.1993 10.6316 11.554 10.5852C12.018 10.5256 12.3942 10.4808 12.6825 10.451C12.9742 10.4179 13.1863 10.3632 13.3189 10.2869C13.4548 10.2107 13.5227 10.0781 13.5227 9.8892V9.84943C13.5227 9.3589 13.3885 8.97775 13.12 8.70597C12.8549 8.43419 12.4522 8.2983 11.9119 8.2983C11.3518 8.2983 10.9126 8.42093 10.5945 8.66619C10.2763 8.91146 10.0526 9.1733 9.9233 9.4517L8.80966 9.05398C9.00852 8.58996 9.27367 8.22869 9.60511 7.97017C9.93987 7.70833 10.3045 7.52604 10.6989 7.4233C11.0966 7.31723 11.4877 7.2642 11.8722 7.2642C12.1174 7.2642 12.3991 7.29403 12.7173 7.35369C13.0388 7.41004 13.3487 7.5277 13.647 7.70668C13.9486 7.88565 14.1989 8.15578 14.3977 8.51705C14.5966 8.87831 14.696 9.36222 14.696 9.96875V15H13.5227V13.9659H13.4631C13.3835 14.1316 13.2509 14.3089 13.0653 14.4979C12.8797 14.6868 12.6328 14.8475 12.3246 14.9801C12.0163 15.1127 11.6402 15.179 11.196 15.179ZM11.375 14.125C11.839 14.125 12.2301 14.0339 12.5483 13.8516C12.8698 13.6693 13.1117 13.4339 13.2741 13.1456C13.4399 12.8572 13.5227 12.554 13.5227 12.2358V11.1619C13.473 11.2216 13.3636 11.2763 13.1946 11.326C13.0289 11.3724 12.8366 11.4138 12.6179 11.4503C12.4025 11.4834 12.192 11.5133 11.9865 11.5398C11.7843 11.563 11.6203 11.5829 11.4943 11.5994C11.1894 11.6392 10.9044 11.7038 10.6392 11.7933C10.3774 11.8795 10.1652 12.0104 10.0028 12.1861C9.84375 12.3584 9.7642 12.5937 9.7642 12.892C9.7642 13.2997 9.91501 13.608 10.2166 13.8168C10.5215 14.0223 10.9077 14.125 11.375 14.125ZM16.9966 15V4.81818H18.1699V8.5767H18.2694C18.3555 8.44413 18.4748 8.27509 18.6273 8.0696C18.7831 7.8608 19.0051 7.67519 19.2935 7.51278C19.5852 7.34706 19.9796 7.2642 20.4767 7.2642C21.1197 7.2642 21.6865 7.42495 22.177 7.74645C22.6676 8.06794 23.0504 8.52367 23.3255 9.11364C23.6006 9.7036 23.7381 10.3996 23.7381 11.2017C23.7381 12.0104 23.6006 12.7114 23.3255 13.3047C23.0504 13.8946 22.6692 14.352 22.182 14.6768C21.6948 14.9983 21.133 15.1591 20.4966 15.1591C20.0061 15.1591 19.6133 15.0779 19.3184 14.9155C19.0234 14.7498 18.7963 14.5625 18.6373 14.3537C18.4782 14.1416 18.3555 13.9659 18.2694 13.8267H18.1301V15H16.9966ZM18.15 11.1818C18.15 11.7585 18.2346 12.2673 18.4036 12.7081C18.5726 13.1456 18.8195 13.4886 19.1444 13.7372C19.4692 13.9825 19.8669 14.1051 20.3375 14.1051C20.8281 14.1051 21.2374 13.9759 21.5655 13.7173C21.897 13.4555 22.1455 13.1042 22.3113 12.6634C22.4803 12.2192 22.5648 11.7254 22.5648 11.1818C22.5648 10.6449 22.4819 10.161 22.3162 9.73011C22.1538 9.29593 21.9069 8.95289 21.5755 8.70099C21.2473 8.44579 20.8347 8.31818 20.3375 8.31818C19.8603 8.31818 19.4592 8.43916 19.1344 8.68111C18.8096 8.91974 18.5643 9.2545 18.3986 9.68537C18.2329 10.1129 18.15 10.6117 18.15 11.1818ZM28.7346 15.1591C27.9988 15.1591 27.3641 14.9967 26.8304 14.6719C26.3001 14.3438 25.8908 13.8864 25.6025 13.2997C25.3174 12.7098 25.1749 12.0237 25.1749 11.2415C25.1749 10.4593 25.3174 9.76989 25.6025 9.1733C25.8908 8.57339 26.2918 8.10606 26.8056 7.77131C27.3226 7.43324 27.9258 7.2642 28.6152 7.2642C29.013 7.2642 29.4057 7.33049 29.7935 7.46307C30.1813 7.59564 30.5343 7.81108 30.8525 8.10938C31.1706 8.40436 31.4242 8.79545 31.6131 9.28267C31.802 9.76989 31.8965 10.3698 31.8965 11.0824V11.5795H26.0101V10.5653H30.7033C30.7033 10.1345 30.6171 9.75 30.4448 9.41193C30.2757 9.07386 30.0338 8.80705 29.7189 8.61151C29.4074 8.41596 29.0395 8.31818 28.6152 8.31818C28.1479 8.31818 27.7435 8.43419 27.4022 8.66619C27.0641 8.89489 26.8039 9.19318 26.6216 9.56108C26.4393 9.92898 26.3482 10.3234 26.3482 10.7443V11.4205C26.3482 11.9972 26.4476 12.486 26.6465 12.8871C26.8487 13.2848 27.1287 13.5881 27.4867 13.7969C27.8446 14.0024 28.2606 14.1051 28.7346 14.1051C29.0428 14.1051 29.3212 14.062 29.5698 13.9759C29.8217 13.8864 30.0388 13.7538 30.2211 13.5781C30.4034 13.3991 30.5442 13.1771 30.6436 12.9119L31.7772 13.2301C31.6578 13.6146 31.4573 13.9527 31.1756 14.2443C30.8939 14.5327 30.5459 14.758 30.1316 14.9205C29.7173 15.0795 29.2516 15.1591 28.7346 15.1591ZM34.8546 4.81818V15H33.6813V4.81818H34.8546Z" fill="white" fill-opacity="0.95"/>
<path d="M273.618 15L278.172 5.99148V5.91193H272.922V4.81818H279.445V5.97159L274.911 15H273.618ZM284.343 15.1392C283.76 15.1392 283.235 15.0232 282.767 14.7912C282.3 14.5592 281.925 14.241 281.644 13.8366C281.362 13.4323 281.208 12.9716 281.181 12.4545H282.374C282.421 12.9152 282.63 13.2964 283.001 13.598C283.375 13.8963 283.823 14.0455 284.343 14.0455C284.761 14.0455 285.132 13.9477 285.457 13.7521C285.785 13.5566 286.042 13.2881 286.227 12.9467C286.416 12.602 286.511 12.2126 286.511 11.7784C286.511 11.3343 286.413 10.9382 286.218 10.5902C286.025 10.2389 285.76 9.96212 285.422 9.75994C285.084 9.55776 284.698 9.45502 284.264 9.4517C283.952 9.44839 283.632 9.49645 283.304 9.59588C282.976 9.692 282.706 9.81629 282.494 9.96875L281.34 9.82955L281.957 4.81818H287.247V5.91193H282.991L282.633 8.91477H282.693C282.901 8.74905 283.163 8.61151 283.478 8.50213C283.793 8.39276 284.121 8.33807 284.463 8.33807C285.086 8.33807 285.641 8.48722 286.128 8.78551C286.619 9.08049 287.003 9.48485 287.281 9.99858C287.563 10.5123 287.704 11.099 287.704 11.7585C287.704 12.4081 287.558 12.9882 287.267 13.4986C286.978 14.0057 286.58 14.4067 286.073 14.7017C285.566 14.9934 284.99 15.1392 284.343 15.1392ZM294.869 13.0909V12.554C294.869 12.1828 294.946 11.843 295.098 11.5348C295.254 11.2232 295.479 10.9747 295.774 10.7891C296.072 10.6001 296.434 10.5057 296.858 10.5057C297.289 10.5057 297.65 10.6001 297.942 10.7891C298.233 10.9747 298.454 11.2232 298.603 11.5348C298.752 11.843 298.827 12.1828 298.827 12.554V13.0909C298.827 13.4621 298.75 13.8035 298.598 14.1151C298.449 14.4233 298.227 14.6719 297.932 14.8608C297.64 15.0464 297.282 15.1392 296.858 15.1392C296.427 15.1392 296.064 15.0464 295.769 14.8608C295.474 14.6719 295.25 14.4233 295.098 14.1151C294.946 13.8035 294.869 13.4621 294.869 13.0909ZM295.884 12.554V13.0909C295.884 13.3991 295.956 13.6759 296.102 13.9212C296.248 14.1631 296.5 14.2841 296.858 14.2841C297.206 14.2841 297.451 14.1631 297.594 13.9212C297.74 13.6759 297.812 13.3991 297.812 13.0909V12.554C297.812 12.2457 297.743 11.9706 297.604 11.7287C297.464 11.4834 297.216 11.3608 296.858 11.3608C296.51 11.3608 296.26 11.4834 296.107 11.7287C295.958 11.9706 295.884 12.2457 295.884 12.554ZM289.798 7.2642V6.72727C289.798 6.35606 289.875 6.01634 290.027 5.7081C290.183 5.39654 290.408 5.14796 290.703 4.96236C291.001 4.77344 291.363 4.67898 291.787 4.67898C292.218 4.67898 292.579 4.77344 292.871 4.96236C293.162 5.14796 293.383 5.39654 293.532 5.7081C293.681 6.01634 293.756 6.35606 293.756 6.72727V7.2642C293.756 7.63542 293.679 7.9768 293.527 8.28835C293.378 8.59659 293.156 8.84517 292.861 9.03409C292.569 9.2197 292.211 9.3125 291.787 9.3125C291.356 9.3125 290.993 9.2197 290.698 9.03409C290.403 8.84517 290.179 8.59659 290.027 8.28835C289.875 7.9768 289.798 7.63542 289.798 7.2642ZM290.812 6.72727V7.2642C290.812 7.57244 290.885 7.8492 291.031 8.09446C291.177 8.33641 291.429 8.45739 291.787 8.45739C292.135 8.45739 292.38 8.33641 292.523 8.09446C292.669 7.8492 292.741 7.57244 292.741 7.2642V6.72727C292.741 6.41903 292.672 6.14394 292.533 5.90199C292.393 5.65672 292.145 5.53409 291.787 5.53409C291.439 5.53409 291.189 5.65672 291.036 5.90199C290.887 6.14394 290.812 6.41903 290.812 6.72727ZM290.176 15L297.176 4.81818H298.31L291.31 15H290.176Z" fill="white" fill-opacity="0.95"/>
<g clip-path="url(#clip0_3610_22081)">
<rect width="300" height="8" transform="translate(0 28)" fill="#8F8F8F"/>
<rect width="225" height="8" transform="translate(0 28)" fill="#3492EB"/>
</g>
<path d="M1.23295 59V48.8182H2.46591V53.3523H7.89489V48.8182H9.12784V59H7.89489V54.446H2.46591V59H1.23295ZM14.6388 59.1591C13.9031 59.1591 13.2683 58.9967 12.7347 58.6719C12.2044 58.3438 11.7951 57.8864 11.5067 57.2997C11.2217 56.7098 11.0792 56.0237 11.0792 55.2415C11.0792 54.4593 11.2217 53.7699 11.5067 53.1733C11.7951 52.5734 12.1961 52.1061 12.7099 51.7713C13.2269 51.4332 13.8301 51.2642 14.5195 51.2642C14.9173 51.2642 15.31 51.3305 15.6978 51.4631C16.0856 51.5956 16.4386 51.8111 16.7567 52.1094C17.0749 52.4044 17.3285 52.7955 17.5174 53.2827C17.7063 53.7699 17.8008 54.3698 17.8008 55.0824V55.5795H11.9144V54.5653H16.6076C16.6076 54.1345 16.5214 53.75 16.3491 53.4119C16.18 53.0739 15.9381 52.8071 15.6232 52.6115C15.3117 52.416 14.9438 52.3182 14.5195 52.3182C14.0522 52.3182 13.6478 52.4342 13.3065 52.6662C12.9684 52.8949 12.7082 53.1932 12.5259 53.5611C12.3436 53.929 12.2525 54.3234 12.2525 54.7443V55.4205C12.2525 55.9972 12.3519 56.486 12.5508 56.8871C12.753 57.2848 13.033 57.5881 13.391 57.7969C13.7489 58.0024 14.1649 58.1051 14.6388 58.1051C14.9471 58.1051 15.2255 58.062 15.4741 57.9759C15.726 57.8864 15.9431 57.7538 16.1254 57.5781C16.3076 57.3991 16.4485 57.1771 16.5479 56.9119L17.6815 57.2301C17.5621 57.6146 17.3616 57.9527 17.0799 58.2443C16.7982 58.5327 16.4502 58.758 16.0359 58.9205C15.6216 59.0795 15.1559 59.1591 14.6388 59.1591ZM20.7589 48.8182V59H19.5856V48.8182H20.7589ZM22.9078 61.8636V51.3636H24.0414V52.5767H24.1806C24.2667 52.4441 24.3861 52.2751 24.5385 52.0696C24.6943 51.8608 24.9164 51.6752 25.2047 51.5128C25.4964 51.3471 25.8908 51.2642 26.388 51.2642C27.031 51.2642 27.5977 51.425 28.0882 51.7464C28.5788 52.0679 28.9616 52.5237 29.2367 53.1136C29.5118 53.7036 29.6493 54.3996 29.6493 55.2017C29.6493 56.0104 29.5118 56.7114 29.2367 57.3047C28.9616 57.8946 28.5804 58.352 28.0932 58.6768C27.606 58.9983 27.0442 59.1591 26.4078 59.1591C25.9173 59.1591 25.5246 59.0779 25.2296 58.9155C24.9346 58.7498 24.7076 58.5625 24.5485 58.3537C24.3894 58.1416 24.2667 57.9659 24.1806 57.8267H24.0811V61.8636H22.9078ZM24.0613 55.1818C24.0613 55.7585 24.1458 56.2673 24.3148 56.7081C24.4838 57.1456 24.7308 57.4886 25.0556 57.7372C25.3804 57.9825 25.7781 58.1051 26.2488 58.1051C26.7393 58.1051 27.1486 57.9759 27.4767 57.7173C27.8082 57.4555 28.0568 57.1042 28.2225 56.6634C28.3915 56.2192 28.476 55.7254 28.476 55.1818C28.476 54.6449 28.3932 54.161 28.2275 53.7301C28.065 53.2959 27.8181 52.9529 27.4867 52.701C27.1586 52.4458 26.7459 52.3182 26.2488 52.3182C25.7715 52.3182 25.3704 52.4392 25.0456 52.6811C24.7208 52.9197 24.4756 53.2545 24.3098 53.6854C24.1441 54.1129 24.0613 54.6117 24.0613 55.1818ZM34.6408 59.1591C33.905 59.1591 33.2703 58.9967 32.7367 58.6719C32.2064 58.3438 31.7971 57.8864 31.5087 57.2997C31.2237 56.7098 31.0811 56.0237 31.0811 55.2415C31.0811 54.4593 31.2237 53.7699 31.5087 53.1733C31.7971 52.5734 32.1981 52.1061 32.7118 51.7713C33.2289 51.4332 33.8321 51.2642 34.5215 51.2642C34.9192 51.2642 35.312 51.3305 35.6998 51.4631C36.0875 51.5956 36.4405 51.8111 36.7587 52.1094C37.0769 52.4044 37.3304 52.7955 37.5194 53.2827C37.7083 53.7699 37.8027 54.3698 37.8027 55.0824V55.5795H31.9164V54.5653H36.6096C36.6096 54.1345 36.5234 53.75 36.351 53.4119C36.182 53.0739 35.94 52.8071 35.6252 52.6115C35.3136 52.416 34.9457 52.3182 34.5215 52.3182C34.0542 52.3182 33.6498 52.4342 33.3084 52.6662C32.9703 52.8949 32.7102 53.1932 32.5279 53.5611C32.3456 53.929 32.2544 54.3234 32.2544 54.7443V55.4205C32.2544 55.9972 32.3539 56.486 32.5527 56.8871C32.7549 57.2848 33.035 57.5881 33.3929 57.7969C33.7509 58.0024 34.1668 58.1051 34.6408 58.1051C34.949 58.1051 35.2275 58.062 35.476 57.9759C35.7279 57.8864 35.945 57.7538 36.1273 57.5781C36.3096 57.3991 36.4505 57.1771 36.5499 56.9119L37.6834 57.2301C37.5641 57.6146 37.3636 57.9527 37.0819 58.2443C36.8001 58.5327 36.4521 58.758 36.0378 58.9205C35.6235 59.0795 35.1578 59.1591 34.6408 59.1591ZM39.5875 59V51.3636H40.7211V52.517H40.8006C40.9398 52.1392 41.1917 51.8326 41.5563 51.5973C41.9209 51.362 42.3319 51.2443 42.7892 51.2443C42.8754 51.2443 42.9831 51.246 43.1124 51.2493C43.2417 51.2526 43.3394 51.2576 43.4057 51.2642V52.4574C43.3659 52.4474 43.2748 52.4325 43.1323 52.4126C42.9931 52.3894 42.8456 52.3778 42.6898 52.3778C42.3186 52.3778 41.9872 52.4557 41.6955 52.6115C41.4071 52.764 41.1784 52.9761 41.0094 53.2479C40.8437 53.5163 40.7608 53.8229 40.7608 54.1676V59H39.5875ZM52.055 51.3636V52.358H48.0977V51.3636H52.055ZM49.2511 49.5341H50.4244V56.8125C50.4244 57.1439 50.4724 57.3925 50.5685 57.5582C50.668 57.7206 50.7939 57.83 50.9464 57.8864C51.1022 57.9394 51.2662 57.9659 51.4386 57.9659C51.5678 57.9659 51.6739 57.9593 51.7567 57.946C51.8396 57.9295 51.9059 57.9162 51.9556 57.9062L52.1942 58.9602C52.1147 58.9901 52.0037 59.0199 51.8612 59.0497C51.7186 59.0829 51.538 59.0994 51.3192 59.0994C50.9878 59.0994 50.663 59.0282 50.3448 58.8857C50.0299 58.7431 49.7681 58.526 49.5593 58.2344C49.3538 57.9427 49.2511 57.5748 49.2511 57.1307V49.5341ZM56.9396 59.1591C56.2038 59.1591 55.5691 58.9967 55.0355 58.6719C54.5052 58.3438 54.0959 57.8864 53.8075 57.2997C53.5225 56.7098 53.38 56.0237 53.38 55.2415C53.38 54.4593 53.5225 53.7699 53.8075 53.1733C54.0959 52.5734 54.4969 52.1061 55.0107 51.7713C55.5277 51.4332 56.1309 51.2642 56.8203 51.2642C57.218 51.2642 57.6108 51.3305 57.9986 51.4631C58.3864 51.5956 58.7393 51.8111 59.0575 52.1094C59.3757 52.4044 59.6293 52.7955 59.8182 53.2827C60.0071 53.7699 60.1016 54.3698 60.1016 55.0824V55.5795H54.2152V54.5653H58.9084C58.9084 54.1345 58.8222 53.75 58.6499 53.4119C58.4808 53.0739 58.2389 52.8071 57.924 52.6115C57.6125 52.416 57.2446 52.3182 56.8203 52.3182C56.353 52.3182 55.9486 52.4342 55.6072 52.6662C55.2692 52.8949 55.009 53.1932 54.8267 53.5611C54.6444 53.929 54.5533 54.3234 54.5533 54.7443V55.4205C54.5533 55.9972 54.6527 56.486 54.8516 56.8871C55.0537 57.2848 55.3338 57.5881 55.6918 57.7969C56.0497 58.0024 56.4657 58.1051 56.9396 58.1051C57.2479 58.1051 57.5263 58.062 57.7749 57.9759C58.0268 57.8864 58.2438 57.7538 58.4261 57.5781C58.6084 57.3991 58.7493 57.1771 58.8487 56.9119L59.9822 57.2301C59.8629 57.6146 59.6624 57.9527 59.3807 58.2443C59.099 58.5327 58.7509 58.758 58.3366 58.9205C57.9223 59.0795 57.4567 59.1591 56.9396 59.1591ZM62.5563 51.3636L64.3858 54.4858L66.2154 51.3636H67.5676L65.1017 55.1818L67.5676 59H66.2154L64.3858 56.0369L62.5563 59H61.204L63.6301 55.1818L61.204 51.3636H62.5563ZM72.5629 51.3636V52.358H68.6055V51.3636H72.5629ZM69.7589 49.5341H70.9322V56.8125C70.9322 57.1439 70.9802 57.3925 71.0763 57.5582C71.1758 57.7206 71.3017 57.83 71.4542 57.8864C71.61 57.9394 71.774 57.9659 71.9464 57.9659C72.0756 57.9659 72.1817 57.9593 72.2646 57.946C72.3474 57.9295 72.4137 57.9162 72.4634 57.9062L72.7021 58.9602C72.6225 58.9901 72.5115 59.0199 72.369 59.0497C72.2264 59.0829 72.0458 59.0994 71.8271 59.0994C71.4956 59.0994 71.1708 59.0282 70.8526 58.8857C70.5378 58.7431 70.2759 58.526 70.0671 58.2344C69.8616 57.9427 69.7589 57.5748 69.7589 57.1307V49.5341Z" fill="white" fill-opacity="0.7"/>
<defs>
<clipPath id="clip0_3610_22081">
<rect y="28" width="300" height="8" rx="4" fill="white"/>
</clipPath>
</defs>
</svg>
