<svg width="1150" height="284" viewBox="0 0 1150 284" fill="none" xmlns="http://www.w3.org/2000/svg">
<rect width="1150" height="284" rx="16" fill="#1A1A1A"/>
<rect x="510.186" y="117.5" width="15" height="15" rx="1.5" stroke="white" stroke-opacity="0.5"/>
<path d="M543.112 123H541.879C541.806 122.645 541.678 122.334 541.496 122.065C541.317 121.797 541.098 121.571 540.84 121.389C540.584 121.204 540.301 121.064 539.99 120.972C539.678 120.879 539.353 120.832 539.015 120.832C538.399 120.832 537.84 120.988 537.34 121.3C536.843 121.611 536.446 122.07 536.151 122.677C535.86 123.283 535.714 124.027 535.714 124.909C535.714 125.791 535.86 126.535 536.151 127.141C536.446 127.748 536.843 128.207 537.34 128.518C537.84 128.83 538.399 128.986 539.015 128.986C539.353 128.986 539.678 128.939 539.99 128.847C540.301 128.754 540.584 128.616 540.84 128.434C541.098 128.248 541.317 128.021 541.496 127.753C541.678 127.481 541.806 127.17 541.879 126.818H543.112C543.019 127.339 542.85 127.804 542.605 128.215C542.359 128.626 542.054 128.976 541.69 129.264C541.325 129.549 540.916 129.766 540.462 129.915C540.011 130.065 539.529 130.139 539.015 130.139C538.147 130.139 537.374 129.927 536.698 129.503C536.022 129.079 535.49 128.475 535.102 127.693C534.715 126.911 534.521 125.983 534.521 124.909C534.521 123.835 534.715 122.907 535.102 122.125C535.49 121.343 536.022 120.74 536.698 120.315C537.374 119.891 538.147 119.679 539.015 119.679C539.529 119.679 540.011 119.754 540.462 119.903C540.916 120.052 541.325 120.271 541.69 120.559C542.054 120.844 542.359 121.192 542.605 121.603C542.85 122.011 543.019 122.476 543.112 123ZM546.118 125.406V130H544.945V119.818H546.118V123.557H546.218C546.397 123.162 546.665 122.849 547.023 122.617C547.384 122.382 547.865 122.264 548.465 122.264C548.985 122.264 549.441 122.369 549.832 122.577C550.223 122.783 550.526 123.099 550.742 123.527C550.961 123.951 551.07 124.491 551.07 125.148V130H549.897V125.227C549.897 124.621 549.739 124.152 549.424 123.82C549.113 123.486 548.68 123.318 548.127 123.318C547.742 123.318 547.398 123.399 547.093 123.562C546.791 123.724 546.552 123.961 546.377 124.273C546.204 124.584 546.118 124.962 546.118 125.406ZM556.418 130.159C555.682 130.159 555.048 129.997 554.514 129.672C553.984 129.344 553.574 128.886 553.286 128.3C553.001 127.71 552.858 127.024 552.858 126.241C552.858 125.459 553.001 124.77 553.286 124.173C553.574 123.573 553.975 123.106 554.489 122.771C555.006 122.433 555.609 122.264 556.299 122.264C556.697 122.264 557.089 122.33 557.477 122.463C557.865 122.596 558.218 122.811 558.536 123.109C558.854 123.404 559.108 123.795 559.297 124.283C559.486 124.77 559.58 125.37 559.58 126.082V126.58H553.694V125.565H558.387C558.387 125.134 558.301 124.75 558.128 124.412C557.959 124.074 557.717 123.807 557.403 123.612C557.091 123.416 556.723 123.318 556.299 123.318C555.831 123.318 555.427 123.434 555.086 123.666C554.748 123.895 554.488 124.193 554.305 124.561C554.123 124.929 554.032 125.323 554.032 125.744V126.42C554.032 126.997 554.131 127.486 554.33 127.887C554.532 128.285 554.812 128.588 555.17 128.797C555.528 129.002 555.944 129.105 556.418 129.105C556.726 129.105 557.005 129.062 557.253 128.976C557.505 128.886 557.722 128.754 557.905 128.578C558.087 128.399 558.228 128.177 558.327 127.912L559.461 128.23C559.341 128.615 559.141 128.953 558.859 129.244C558.577 129.533 558.229 129.758 557.815 129.92C557.401 130.08 556.935 130.159 556.418 130.159ZM564.467 130.159C563.751 130.159 563.135 129.99 562.618 129.652C562.101 129.314 561.703 128.848 561.425 128.255C561.146 127.662 561.007 126.984 561.007 126.222C561.007 125.446 561.149 124.762 561.434 124.168C561.723 123.572 562.124 123.106 562.638 122.771C563.155 122.433 563.758 122.264 564.447 122.264C564.984 122.264 565.468 122.364 565.899 122.562C566.33 122.761 566.683 123.04 566.958 123.398C567.233 123.756 567.404 124.173 567.47 124.651H566.297C566.207 124.303 566.008 123.994 565.7 123.726C565.395 123.454 564.984 123.318 564.467 123.318C564.01 123.318 563.609 123.437 563.264 123.676C562.923 123.911 562.656 124.245 562.464 124.675C562.275 125.103 562.18 125.605 562.18 126.182C562.18 126.772 562.273 127.286 562.459 127.723C562.648 128.161 562.913 128.5 563.254 128.742C563.599 128.984 564.003 129.105 564.467 129.105C564.772 129.105 565.049 129.052 565.297 128.946C565.546 128.84 565.756 128.688 565.929 128.489C566.101 128.29 566.224 128.051 566.297 127.773H567.47C567.404 128.223 567.24 128.629 566.978 128.991C566.719 129.349 566.376 129.634 565.949 129.846C565.524 130.055 565.031 130.159 564.467 130.159ZM570.279 127.216L570.259 125.764H570.498L573.839 122.364H575.29L571.731 125.963H571.631L570.279 127.216ZM569.185 130V119.818H570.358V130H569.185ZM574.037 130L571.055 126.222L571.89 125.406L575.529 130H574.037ZM576.96 130V119.818H578.133V123.577H578.232C578.318 123.444 578.438 123.275 578.59 123.07C578.746 122.861 578.968 122.675 579.256 122.513C579.548 122.347 579.942 122.264 580.44 122.264C581.083 122.264 581.649 122.425 582.14 122.746C582.63 123.068 583.013 123.524 583.288 124.114C583.563 124.704 583.701 125.4 583.701 126.202C583.701 127.01 583.563 127.711 583.288 128.305C583.013 128.895 582.632 129.352 582.145 129.677C581.658 129.998 581.096 130.159 580.46 130.159C579.969 130.159 579.576 130.078 579.281 129.915C578.986 129.75 578.759 129.562 578.6 129.354C578.441 129.142 578.318 128.966 578.232 128.827H578.093V130H576.96ZM578.113 126.182C578.113 126.759 578.197 127.267 578.366 127.708C578.536 128.146 578.782 128.489 579.107 128.737C579.432 128.982 579.83 129.105 580.3 129.105C580.791 129.105 581.2 128.976 581.528 128.717C581.86 128.455 582.108 128.104 582.274 127.663C582.443 127.219 582.528 126.725 582.528 126.182C582.528 125.645 582.445 125.161 582.279 124.73C582.117 124.296 581.87 123.953 581.538 123.701C581.21 123.446 580.798 123.318 580.3 123.318C579.823 123.318 579.422 123.439 579.097 123.681C578.772 123.92 578.527 124.254 578.362 124.685C578.196 125.113 578.113 125.612 578.113 126.182ZM588.598 130.159C587.909 130.159 587.304 129.995 586.783 129.667C586.266 129.339 585.862 128.88 585.57 128.29C585.282 127.7 585.138 127.01 585.138 126.222C585.138 125.426 585.282 124.732 585.57 124.138C585.862 123.545 586.266 123.085 586.783 122.756C587.304 122.428 587.909 122.264 588.598 122.264C589.287 122.264 589.891 122.428 590.408 122.756C590.928 123.085 591.332 123.545 591.621 124.138C591.912 124.732 592.058 125.426 592.058 126.222C592.058 127.01 591.912 127.7 591.621 128.29C591.332 128.88 590.928 129.339 590.408 129.667C589.891 129.995 589.287 130.159 588.598 130.159ZM588.598 129.105C589.122 129.105 589.553 128.971 589.891 128.702C590.229 128.434 590.479 128.081 590.641 127.643C590.804 127.206 590.885 126.732 590.885 126.222C590.885 125.711 590.804 125.236 590.641 124.795C590.479 124.354 590.229 123.998 589.891 123.726C589.553 123.454 589.122 123.318 588.598 123.318C588.074 123.318 587.643 123.454 587.305 123.726C586.967 123.998 586.717 124.354 586.555 124.795C586.392 125.236 586.311 125.711 586.311 126.222C586.311 126.732 586.392 127.206 586.555 127.643C586.717 128.081 586.967 128.434 587.305 128.702C587.643 128.971 588.074 129.105 588.598 129.105ZM594.41 122.364L596.239 125.486L598.069 122.364H599.421L596.955 126.182L599.421 130H598.069L596.239 127.037L594.41 130H593.058L595.484 126.182L593.058 122.364H594.41ZM605.192 130V119.818H606.425V128.906H611.158V130H605.192ZM615.155 130.179C614.671 130.179 614.232 130.088 613.838 129.906C613.443 129.72 613.13 129.453 612.898 129.105C612.666 128.754 612.55 128.33 612.55 127.832C612.55 127.395 612.636 127.04 612.808 126.768C612.981 126.493 613.211 126.278 613.499 126.122C613.788 125.966 614.106 125.85 614.454 125.774C614.805 125.695 615.158 125.632 615.513 125.585C615.977 125.526 616.353 125.481 616.642 125.451C616.933 125.418 617.145 125.363 617.278 125.287C617.414 125.211 617.482 125.078 617.482 124.889V124.849C617.482 124.359 617.347 123.978 617.079 123.706C616.814 123.434 616.411 123.298 615.871 123.298C615.311 123.298 614.872 123.421 614.553 123.666C614.235 123.911 614.012 124.173 613.882 124.452L612.769 124.054C612.968 123.59 613.233 123.229 613.564 122.97C613.899 122.708 614.263 122.526 614.658 122.423C615.056 122.317 615.447 122.264 615.831 122.264C616.076 122.264 616.358 122.294 616.676 122.354C616.998 122.41 617.308 122.528 617.606 122.707C617.908 122.886 618.158 123.156 618.357 123.517C618.556 123.878 618.655 124.362 618.655 124.969V130H617.482V128.966H617.422C617.343 129.132 617.21 129.309 617.024 129.498C616.839 129.687 616.592 129.848 616.284 129.98C615.975 130.113 615.599 130.179 615.155 130.179ZM615.334 129.125C615.798 129.125 616.189 129.034 616.507 128.852C616.829 128.669 617.071 128.434 617.233 128.146C617.399 127.857 617.482 127.554 617.482 127.236V126.162C617.432 126.222 617.323 126.276 617.154 126.326C616.988 126.372 616.796 126.414 616.577 126.45C616.361 126.483 616.151 126.513 615.945 126.54C615.743 126.563 615.579 126.583 615.453 126.599C615.148 126.639 614.863 126.704 614.598 126.793C614.336 126.879 614.124 127.01 613.962 127.186C613.803 127.358 613.723 127.594 613.723 127.892C613.723 128.3 613.874 128.608 614.176 128.817C614.481 129.022 614.867 129.125 615.334 129.125ZM620.956 130V119.818H622.129V123.577H622.228C622.315 123.444 622.434 123.275 622.586 123.07C622.742 122.861 622.964 122.675 623.252 122.513C623.544 122.347 623.939 122.264 624.436 122.264C625.079 122.264 625.645 122.425 626.136 122.746C626.627 123.068 627.009 123.524 627.284 124.114C627.56 124.704 627.697 125.4 627.697 126.202C627.697 127.01 627.56 127.711 627.284 128.305C627.009 128.895 626.628 129.352 626.141 129.677C625.654 129.998 625.092 130.159 624.456 130.159C623.965 130.159 623.572 130.078 623.277 129.915C622.982 129.75 622.755 129.562 622.596 129.354C622.437 129.142 622.315 128.966 622.228 128.827H622.089V130H620.956ZM622.109 126.182C622.109 126.759 622.194 127.267 622.363 127.708C622.532 128.146 622.779 128.489 623.103 128.737C623.428 128.982 623.826 129.105 624.297 129.105C624.787 129.105 625.196 128.976 625.525 128.717C625.856 128.455 626.105 128.104 626.27 127.663C626.439 127.219 626.524 126.725 626.524 126.182C626.524 125.645 626.441 125.161 626.275 124.73C626.113 124.296 625.866 123.953 625.534 123.701C625.206 123.446 624.794 123.318 624.297 123.318C623.819 123.318 623.418 123.439 623.093 123.681C622.769 123.92 622.523 124.254 622.358 124.685C622.192 125.113 622.109 125.612 622.109 126.182ZM632.694 130.159C631.958 130.159 631.323 129.997 630.789 129.672C630.259 129.344 629.85 128.886 629.561 128.3C629.276 127.71 629.134 127.024 629.134 126.241C629.134 125.459 629.276 124.77 629.561 124.173C629.85 123.573 630.251 123.106 630.765 122.771C631.282 122.433 631.885 122.264 632.574 122.264C632.972 122.264 633.365 122.33 633.752 122.463C634.14 122.596 634.493 122.811 634.811 123.109C635.13 123.404 635.383 123.795 635.572 124.283C635.761 124.77 635.855 125.37 635.855 126.082V126.58H629.969V125.565H634.662C634.662 125.134 634.576 124.75 634.404 124.412C634.235 124.074 633.993 123.807 633.678 123.612C633.366 123.416 632.998 123.318 632.574 123.318C632.107 123.318 631.703 123.434 631.361 123.666C631.023 123.895 630.763 124.193 630.581 124.561C630.398 124.929 630.307 125.323 630.307 125.744V126.42C630.307 126.997 630.407 127.486 630.605 127.887C630.808 128.285 631.088 128.588 631.446 128.797C631.804 129.002 632.22 129.105 632.694 129.105C633.002 129.105 633.28 129.062 633.529 128.976C633.781 128.886 633.998 128.754 634.18 128.578C634.362 128.399 634.503 128.177 634.603 127.912L635.736 128.23C635.617 128.615 635.416 128.953 635.135 129.244C634.853 129.533 634.505 129.758 634.091 129.92C633.676 130.08 633.211 130.159 632.694 130.159ZM638.814 119.818V130H637.64V119.818H638.814Z" fill="white" fill-opacity="0.95"/>
<path d="M658.686 131.75C662.413 131.75 665.436 128.728 665.436 125C665.436 121.272 662.413 118.25 658.686 118.25C654.958 118.25 651.936 121.272 651.936 125C651.936 128.728 654.958 131.75 658.686 131.75ZM656.971 120.714C656.971 119.925 657.611 119.286 658.4 119.286C659.189 119.286 659.828 119.925 659.828 120.714C659.828 121.503 659.189 122.143 658.4 122.143C657.611 122.143 656.971 121.503 656.971 120.714ZM657.543 125C656.912 125 656.4 124.488 656.4 123.857C656.4 123.226 656.912 122.714 657.543 122.714H658.686C659.317 122.714 659.828 123.226 659.828 123.857V127.857H660.971C661.602 127.857 662.114 128.369 662.114 129C662.114 129.631 661.602 130.143 660.971 130.143H656.4C655.769 130.143 655.257 129.631 655.257 129C655.257 128.369 655.769 127.857 656.4 127.857H657.543V125Z" fill="white" fill-opacity="0.95"/>
<path d="M534.919 154V143.818H536.151V148.352H541.58V143.818H542.813V154H541.58V149.446H536.151V154H534.919ZM548.324 154.159C547.589 154.159 546.954 153.997 546.42 153.672C545.89 153.344 545.481 152.886 545.192 152.3C544.907 151.71 544.765 151.024 544.765 150.241C544.765 149.459 544.907 148.77 545.192 148.173C545.481 147.573 545.882 147.106 546.395 146.771C546.912 146.433 547.516 146.264 548.205 146.264C548.603 146.264 548.996 146.33 549.383 146.463C549.771 146.596 550.124 146.811 550.442 147.109C550.76 147.404 551.014 147.795 551.203 148.283C551.392 148.77 551.486 149.37 551.486 150.082V150.58H545.6V149.565H550.293C550.293 149.134 550.207 148.75 550.035 148.412C549.866 148.074 549.624 147.807 549.309 147.612C548.997 147.416 548.629 147.318 548.205 147.318C547.738 147.318 547.333 147.434 546.992 147.666C546.654 147.895 546.394 148.193 546.211 148.561C546.029 148.929 545.938 149.323 545.938 149.744V150.42C545.938 150.997 546.037 151.486 546.236 151.887C546.439 152.285 546.719 152.588 547.077 152.797C547.434 153.002 547.85 153.105 548.324 153.105C548.633 153.105 548.911 153.062 549.16 152.976C549.412 152.886 549.629 152.754 549.811 152.578C549.993 152.399 550.134 152.177 550.233 151.912L551.367 152.23C551.248 152.615 551.047 152.953 550.765 153.244C550.484 153.533 550.136 153.758 549.721 153.92C549.307 154.08 548.841 154.159 548.324 154.159ZM554.444 143.818V154H553.271V143.818H554.444ZM556.593 156.864V146.364H557.727V147.577H557.866C557.952 147.444 558.072 147.275 558.224 147.07C558.38 146.861 558.602 146.675 558.89 146.513C559.182 146.347 559.576 146.264 560.074 146.264C560.717 146.264 561.283 146.425 561.774 146.746C562.264 147.068 562.647 147.524 562.922 148.114C563.197 148.704 563.335 149.4 563.335 150.202C563.335 151.01 563.197 151.711 562.922 152.305C562.647 152.895 562.266 153.352 561.779 153.677C561.292 153.998 560.73 154.159 560.093 154.159C559.603 154.159 559.21 154.078 558.915 153.915C558.62 153.75 558.393 153.562 558.234 153.354C558.075 153.142 557.952 152.966 557.866 152.827H557.767V156.864H556.593ZM557.747 150.182C557.747 150.759 557.831 151.267 558 151.708C558.169 152.146 558.416 152.489 558.741 152.737C559.066 152.982 559.464 153.105 559.934 153.105C560.425 153.105 560.834 152.976 561.162 152.717C561.494 152.455 561.742 152.104 561.908 151.663C562.077 151.219 562.162 150.725 562.162 150.182C562.162 149.645 562.079 149.161 561.913 148.73C561.751 148.296 561.504 147.953 561.172 147.701C560.844 147.446 560.431 147.318 559.934 147.318C559.457 147.318 559.056 147.439 558.731 147.681C558.406 147.92 558.161 148.254 557.995 148.685C557.83 149.113 557.747 149.612 557.747 150.182ZM568.326 154.159C567.591 154.159 566.956 153.997 566.422 153.672C565.892 153.344 565.483 152.886 565.194 152.3C564.909 151.71 564.767 151.024 564.767 150.241C564.767 149.459 564.909 148.77 565.194 148.173C565.483 147.573 565.884 147.106 566.397 146.771C566.914 146.433 567.518 146.264 568.207 146.264C568.605 146.264 568.998 146.33 569.385 146.463C569.773 146.596 570.126 146.811 570.444 147.109C570.762 147.404 571.016 147.795 571.205 148.283C571.394 148.77 571.488 149.37 571.488 150.082V150.58H565.602V149.565H570.295C570.295 149.134 570.209 148.75 570.037 148.412C569.868 148.074 569.626 147.807 569.311 147.612C568.999 147.416 568.631 147.318 568.207 147.318C567.74 147.318 567.335 147.434 566.994 147.666C566.656 147.895 566.396 148.193 566.213 148.561C566.031 148.929 565.94 149.323 565.94 149.744V150.42C565.94 150.997 566.039 151.486 566.238 151.887C566.44 152.285 566.721 152.588 567.078 152.797C567.436 153.002 567.852 153.105 568.326 153.105C568.635 153.105 568.913 153.062 569.162 152.976C569.413 152.886 569.631 152.754 569.813 152.578C569.995 152.399 570.136 152.177 570.235 151.912L571.369 152.23C571.25 152.615 571.049 152.953 570.767 153.244C570.486 153.533 570.138 153.758 569.723 153.92C569.309 154.08 568.843 154.159 568.326 154.159ZM573.273 154V146.364H574.407V147.517H574.486C574.625 147.139 574.877 146.833 575.242 146.597C575.606 146.362 576.017 146.244 576.475 146.244C576.561 146.244 576.669 146.246 576.798 146.249C576.927 146.253 577.025 146.258 577.091 146.264V147.457C577.051 147.447 576.96 147.433 576.818 147.413C576.679 147.389 576.531 147.378 576.375 147.378C576.004 147.378 575.673 147.456 575.381 147.612C575.093 147.764 574.864 147.976 574.695 148.248C574.529 148.516 574.446 148.823 574.446 149.168V154H573.273ZM585.741 146.364V147.358H581.783V146.364H585.741ZM582.937 144.534H584.11V151.812C584.11 152.144 584.158 152.393 584.254 152.558C584.354 152.721 584.479 152.83 584.632 152.886C584.788 152.939 584.952 152.966 585.124 152.966C585.253 152.966 585.359 152.959 585.442 152.946C585.525 152.929 585.591 152.916 585.641 152.906L585.88 153.96C585.8 153.99 585.689 154.02 585.547 154.05C585.404 154.083 585.224 154.099 585.005 154.099C584.673 154.099 584.349 154.028 584.03 153.886C583.715 153.743 583.454 153.526 583.245 153.234C583.039 152.943 582.937 152.575 582.937 152.131V144.534ZM590.625 154.159C589.889 154.159 589.255 153.997 588.721 153.672C588.191 153.344 587.781 152.886 587.493 152.3C587.208 151.71 587.066 151.024 587.066 150.241C587.066 149.459 587.208 148.77 587.493 148.173C587.781 147.573 588.182 147.106 588.696 146.771C589.213 146.433 589.816 146.264 590.506 146.264C590.904 146.264 591.296 146.33 591.684 146.463C592.072 146.596 592.425 146.811 592.743 147.109C593.061 147.404 593.315 147.795 593.504 148.283C593.693 148.77 593.787 149.37 593.787 150.082V150.58H587.901V149.565H592.594C592.594 149.134 592.508 148.75 592.335 148.412C592.166 148.074 591.924 147.807 591.61 147.612C591.298 147.416 590.93 147.318 590.506 147.318C590.039 147.318 589.634 147.434 589.293 147.666C588.955 147.895 588.695 148.193 588.512 148.561C588.33 148.929 588.239 149.323 588.239 149.744V150.42C588.239 150.997 588.338 151.486 588.537 151.887C588.739 152.285 589.019 152.588 589.377 152.797C589.735 153.002 590.151 153.105 590.625 153.105C590.933 153.105 591.212 153.062 591.46 152.976C591.712 152.886 591.929 152.754 592.112 152.578C592.294 152.399 592.435 152.177 592.534 151.912L593.668 152.23C593.548 152.615 593.348 152.953 593.066 153.244C592.785 153.533 592.436 153.758 592.022 153.92C591.608 154.08 591.142 154.159 590.625 154.159ZM596.242 146.364L598.071 149.486L599.901 146.364H601.253L598.787 150.182L601.253 154H599.901L598.071 151.037L596.242 154H594.89L597.316 150.182L594.89 146.364H596.242ZM606.248 146.364V147.358H602.291V146.364H606.248ZM603.444 144.534H604.618V151.812C604.618 152.144 604.666 152.393 604.762 152.558C604.861 152.721 604.987 152.83 605.14 152.886C605.296 152.939 605.46 152.966 605.632 152.966C605.761 152.966 605.867 152.959 605.95 152.946C606.033 152.929 606.099 152.916 606.149 152.906L606.388 153.96C606.308 153.99 606.197 154.02 606.055 154.05C605.912 154.083 605.731 154.099 605.513 154.099C605.181 154.099 604.856 154.028 604.538 153.886C604.223 153.743 603.961 153.526 603.753 153.234C603.547 152.943 603.444 152.575 603.444 152.131V144.534Z" fill="white" fill-opacity="0.7"/>
<path d="M558 84V107" stroke="#DA0087"/>
<path d="M558 115L554 107H562L558 115Z" fill="#DA0087"/>
<rect x="541" y="64" width="34" height="28" rx="14" fill="#DA0087"/>
<path d="M554.205 84V82.9773L558.045 78.7727C558.496 78.2803 558.867 77.8523 559.159 77.4886C559.451 77.1212 559.667 76.7765 559.807 76.4545C559.951 76.1288 560.023 75.7879 560.023 75.4318C560.023 75.0227 559.924 74.6686 559.727 74.3693C559.534 74.0701 559.269 73.839 558.932 73.6761C558.595 73.5133 558.216 73.4318 557.795 73.4318C557.348 73.4318 556.958 73.5246 556.625 73.7102C556.295 73.892 556.04 74.1477 555.858 74.4773C555.68 74.8068 555.591 75.1932 555.591 75.6364H554.25C554.25 74.9545 554.407 74.3561 554.722 73.8409C555.036 73.3258 555.464 72.9242 556.006 72.6364C556.551 72.3485 557.163 72.2045 557.841 72.2045C558.523 72.2045 559.127 72.3485 559.653 72.6364C560.18 72.9242 560.593 73.3125 560.892 73.8011C561.191 74.2898 561.341 74.8333 561.341 75.4318C561.341 75.8598 561.263 76.2784 561.108 76.6875C560.956 77.0928 560.691 77.5455 560.312 78.0455C559.938 78.5417 559.417 79.1477 558.75 79.8636L556.136 82.6591V82.75H561.545V84H554.205Z" fill="white" fill-opacity="0.95"/>
<path d="M466.031 136H497.031" stroke="#DA0087"/>
<path d="M505.031 136L497.031 132V140L505.031 136Z" fill="#DA0087"/>
<rect x="442.031" y="122" width="32" height="28" rx="14" fill="#DA0087"/>
<path d="M459.327 130.364V142H457.918V131.841H457.849L455.009 133.727V132.295L457.918 130.364H459.327Z" fill="white" fill-opacity="0.95"/>
<path d="M557.5 200V173" stroke="#DA0087"/>
<path d="M557.5 165L553.5 173H561.5L557.5 165Z" fill="#DA0087"/>
<rect x="540" y="192" width="35" height="28" rx="14" fill="#DA0087"/>
<path d="M557.136 212.159C556.386 212.159 555.718 212.03 555.131 211.773C554.547 211.515 554.083 211.157 553.739 210.699C553.398 210.237 553.212 209.701 553.182 209.091H554.614C554.644 209.466 554.773 209.79 555 210.062C555.227 210.331 555.525 210.54 555.892 210.688C556.259 210.835 556.667 210.909 557.114 210.909C557.614 210.909 558.057 210.822 558.443 210.648C558.83 210.473 559.133 210.231 559.352 209.92C559.572 209.61 559.682 209.25 559.682 208.841C559.682 208.413 559.576 208.036 559.364 207.71C559.152 207.381 558.841 207.123 558.432 206.938C558.023 206.752 557.523 206.659 556.932 206.659H556V205.409H556.932C557.394 205.409 557.799 205.326 558.148 205.159C558.5 204.992 558.775 204.758 558.972 204.455C559.172 204.152 559.273 203.795 559.273 203.386C559.273 202.992 559.186 202.65 559.011 202.358C558.837 202.066 558.591 201.839 558.273 201.676C557.958 201.513 557.587 201.432 557.159 201.432C556.758 201.432 556.379 201.506 556.023 201.653C555.67 201.797 555.383 202.008 555.159 202.284C554.936 202.557 554.814 202.886 554.795 203.273H553.432C553.455 202.663 553.638 202.129 553.983 201.67C554.328 201.208 554.778 200.848 555.335 200.591C555.896 200.333 556.511 200.205 557.182 200.205C557.902 200.205 558.519 200.35 559.034 200.642C559.549 200.93 559.945 201.311 560.222 201.784C560.498 202.258 560.636 202.769 560.636 203.318C560.636 203.973 560.464 204.532 560.119 204.994C559.778 205.456 559.314 205.777 558.727 205.955V206.045C559.462 206.167 560.036 206.479 560.449 206.983C560.862 207.483 561.068 208.102 561.068 208.841C561.068 209.473 560.896 210.042 560.551 210.545C560.21 211.045 559.744 211.439 559.153 211.727C558.563 212.015 557.89 212.159 557.136 212.159Z" fill="white" fill-opacity="0.95"/>
<path d="M726.408 126H692.408" stroke="#DA0087"/>
<path d="M684.408 126L692.408 122V130L684.408 126Z" fill="#DA0087"/>
<rect x="718.408" y="112" width="35" height="28" rx="14" fill="#DA0087"/>
<path d="M731.34 129.614V128.455L736.454 120.364H737.295V122.159H736.726L732.863 128.273V128.364H739.749V129.614H731.34ZM736.817 132V129.261V128.722V120.364H738.158V132H736.817Z" fill="white" fill-opacity="0.95"/>
</svg>
