<svg width="32" height="32" viewBox="0 0 32 32" fill="none" xmlns="http://www.w3.org/2000/svg">
<rect width="32" height="32" rx="16" fill="#932099"/>
<path d="M15.8778 20.1193C15.2926 20.1193 14.7699 20.0185 14.3097 19.8168C13.8523 19.6151 13.4901 19.3352 13.223 18.9773C12.9588 18.6165 12.8168 18.1989 12.7969 17.7244H14.1349C14.152 17.983 14.2386 18.2074 14.3949 18.3977C14.554 18.5852 14.7614 18.7301 15.017 18.8324C15.2727 18.9347 15.5568 18.9858 15.8693 18.9858C16.2131 18.9858 16.517 18.9261 16.7812 18.8068C17.0483 18.6875 17.2571 18.5213 17.4077 18.3082C17.5582 18.0923 17.6335 17.8438 17.6335 17.5625C17.6335 17.2699 17.5582 17.0128 17.4077 16.7912C17.2599 16.5668 17.0426 16.3906 16.7557 16.2628C16.4716 16.1349 16.1278 16.071 15.7244 16.071H14.9872V14.9972H15.7244C16.0483 14.9972 16.3324 14.9389 16.5767 14.8224C16.8239 14.706 17.017 14.544 17.1562 14.3366C17.2955 14.1264 17.3651 13.8807 17.3651 13.5994C17.3651 13.3295 17.304 13.0952 17.1818 12.8963C17.0625 12.6946 16.892 12.5369 16.6705 12.4233C16.4517 12.3097 16.1932 12.2528 15.8949 12.2528C15.6108 12.2528 15.3452 12.3054 15.098 12.4105C14.8537 12.5128 14.6548 12.6605 14.5014 12.8537C14.348 13.044 14.2656 13.2727 14.2543 13.5398H12.9801C12.9943 13.0682 13.1335 12.6534 13.3977 12.2955C13.6648 11.9375 14.017 11.6577 14.4545 11.456C14.892 11.2543 15.3778 11.1534 15.9119 11.1534C16.4716 11.1534 16.9545 11.2628 17.3608 11.4815C17.7699 11.6974 18.0852 11.9858 18.3068 12.3466C18.5313 12.7074 18.642 13.1023 18.6392 13.5312C18.642 14.0199 18.5057 14.4347 18.2301 14.7756C17.9574 15.1165 17.5938 15.3452 17.1392 15.4616V15.5298C17.7188 15.6179 18.1676 15.848 18.4858 16.2202C18.8068 16.5923 18.9659 17.054 18.9631 17.6051C18.9659 18.0852 18.8324 18.5156 18.5625 18.8963C18.2955 19.277 17.9304 19.5767 17.4673 19.7955C17.0043 20.0114 16.4744 20.1193 15.8778 20.1193Z" fill="white" fill-opacity="0.95"/>
</svg>
