<svg width="559" height="190" viewBox="0 0 559 190" fill="none" xmlns="http://www.w3.org/2000/svg">
<rect width="559" height="190" rx="16" fill="#262626"/>
<path d="M306.5 81C306.369 81.0001 306.239 80.9743 306.117 80.924C305.996 80.8738 305.886 80.8002 305.793 80.7073C305.7 80.6144 305.626 80.5041 305.576 80.3828C305.526 80.2614 305.5 80.1313 305.5 80C305.5 82.3734 304.796 84.6935 303.478 86.6668C302.159 88.6402 300.285 90.1783 298.092 91.0866C295.899 91.9948 293.487 92.2324 291.159 91.7694C288.831 91.3064 286.693 90.1635 285.015 88.4853C283.336 86.8071 282.194 84.6689 281.731 82.3411C281.268 80.0133 281.505 77.6005 282.413 75.4078C283.322 73.2151 284.86 71.3409 286.833 70.0224C288.807 68.7038 291.127 68 293.5 68C293.235 68 292.98 67.8946 292.793 67.7071C292.605 67.5196 292.5 67.2652 292.5 67C292.5 66.7348 292.605 66.4804 292.793 66.2929C292.98 66.1054 293.235 66 293.5 66C290.731 66 288.024 66.8211 285.722 68.3594C283.42 69.8978 281.625 72.0843 280.566 74.6424C279.506 77.2006 279.229 80.0155 279.769 82.7313C280.309 85.447 281.643 87.9416 283.601 89.8995C285.558 91.8574 288.053 93.1908 290.769 93.731C293.484 94.2712 296.299 93.9939 298.858 92.9343C301.416 91.8747 303.602 90.0803 305.141 87.778C306.679 85.4757 307.5 82.7689 307.5 80C307.5 80.1313 307.474 80.2614 307.424 80.3828C307.374 80.5041 307.3 80.6144 307.207 80.7073C307.114 80.8002 307.004 80.8738 306.883 80.924C306.761 80.9743 306.631 81.0001 306.5 81Z" fill="white" fill-opacity="0.2"/>
<path d="M292.5 67C292.5 67.1313 292.526 67.2614 292.576 67.3828C292.626 67.5041 292.7 67.6144 292.793 67.7073C292.886 67.8002 292.996 67.8738 293.117 67.924C293.239 67.9743 293.369 68.0001 293.5 68C296.682 68.0035 299.732 69.2689 301.981 71.5186C304.231 73.7682 305.497 76.8185 305.5 80C305.5 80.2652 305.605 80.5196 305.793 80.7071C305.98 80.8946 306.235 81 306.5 81C306.765 81 307.02 80.8946 307.207 80.7071C307.395 80.5196 307.5 80.2652 307.5 80C307.496 76.2882 306.019 72.7297 303.395 70.1051C300.77 67.4805 297.212 66.0042 293.5 66C293.369 65.9999 293.239 66.0257 293.117 66.076C292.996 66.1262 292.886 66.1998 292.793 66.2927C292.7 66.3856 292.626 66.4959 292.576 66.6172C292.526 66.7386 292.5 66.8687 292.5 67Z" fill="#3492EB"/>
<path d="M306.5 79.0044C306.369 79.0043 306.239 79.0301 306.117 79.0804C305.996 79.1306 305.886 79.2042 305.793 79.2971C305.7 79.39 305.626 79.5003 305.576 79.6216C305.526 79.743 305.5 79.8731 305.5 80.0044C305.497 83.1859 304.231 86.2362 301.981 88.4858C299.732 90.7355 296.682 92.0009 293.5 92.0044C293.235 92.0044 292.98 92.1098 292.793 92.2973C292.605 92.4848 292.5 92.7392 292.5 93.0044C292.5 93.2696 292.605 93.524 292.793 93.7115C292.98 93.899 293.235 94.0044 293.5 94.0044C297.212 94.0002 300.77 92.5239 303.395 89.8993C306.02 87.2747 307.496 83.7161 307.5 80.0044C307.5 79.8731 307.474 79.743 307.424 79.6216C307.374 79.5003 307.3 79.39 307.207 79.2971C307.114 79.2042 307.004 79.1306 306.883 79.0804C306.761 79.0301 306.631 79.0043 306.5 79.0044Z" fill="#3492EB"/>
<path d="M280.509 79.0044C280.64 79.0043 280.77 79.0301 280.892 79.0804C281.013 79.1306 281.123 79.2042 281.216 79.2971C281.309 79.39 281.383 79.5003 281.433 79.6216C281.483 79.743 281.509 79.8731 281.509 80.0044C281.512 83.1859 282.778 86.2362 285.027 88.4858C287.277 90.7355 290.327 92.0009 293.509 92.0044C293.774 92.0044 294.028 92.1098 294.216 92.2973C294.403 92.4848 294.509 92.7392 294.509 93.0044C294.509 93.2696 294.403 93.524 294.216 93.7115C294.028 93.899 293.774 94.0044 293.509 94.0044C289.797 94.0002 286.239 92.5239 283.614 89.8993C280.989 87.2747 279.513 83.7161 279.509 80.0044C279.509 79.8731 279.535 79.743 279.585 79.6216C279.635 79.5003 279.709 79.39 279.802 79.2971C279.894 79.2042 280.005 79.1306 280.126 79.0804C280.247 79.0301 280.377 79.0043 280.509 79.0044Z" fill="#3492EB"/>
<g clip-path="url(#clip0_489_5444)">
<line x1="310" y1="115.478" x2="310" y2="100.478" stroke="#30C9B0"/>
<line x1="309.5" y1="107.978" x2="313.5" y2="107.978" stroke="#30C9B0"/>
<line x1="313" y1="115.478" x2="313" y2="100.478" stroke="#30C9B0"/>
</g>
<path d="M313.41 127.959V122.469H311.969L308.283 128.234L308.318 129.096H312.01V131H313.41V129.096H314.482V127.959H313.41ZM309.713 127.959L311.846 124.648L312.01 124.344V127.959H309.713Z" fill="#30C9B0"/>
<rect opacity="0.5" x="309.5" y="64" width="4" height="32" fill="#30C9B0"/>
<rect opacity="0.5" x="277.5" y="60" width="32" height="4" fill="#30C9B0"/>
<g clip-path="url(#clip1_489_5444)">
<line x1="258.5" y1="60.5" x2="273.5" y2="60.5" stroke="#30C9B0"/>
<line x1="266" y1="64.5" x2="266" y2="60.5" stroke="#30C9B0"/>
<line x1="258.5" y1="63.5" x2="273.5" y2="63.5" stroke="#30C9B0"/>
</g>
<path d="M253.933 63.4521V57.0469H252.251L247.951 63.7734L247.992 64.7783H252.299V67H253.933V64.7783H255.184V63.4521H253.933ZM249.619 63.4521L252.107 59.5898L252.299 59.2344V63.4521H249.619Z" fill="#30C9B0"/>
<defs>
<clipPath id="clip0_489_5444">
<rect width="4" height="15" fill="white" transform="translate(309.5 100.478)"/>
</clipPath>
<clipPath id="clip1_489_5444">
<rect width="15" height="4" fill="white" transform="translate(258.5 60)"/>
</clipPath>
</defs>
</svg>
