<svg width="1150" height="232" viewBox="0 0 1150 232" fill="none" xmlns="http://www.w3.org/2000/svg">
<rect width="1150" height="232" rx="16" fill="#262626"/>
<path d="M428 117C427.869 117 427.739 116.974 427.617 116.924C427.496 116.874 427.386 116.8 427.293 116.707C427.2 116.614 427.126 116.504 427.076 116.383C427.026 116.261 427 116.131 427 116C427 118.373 426.296 120.693 424.978 122.667C423.659 124.64 421.785 126.178 419.592 127.087C417.399 127.995 414.987 128.232 412.659 127.769C410.331 127.306 408.193 126.164 406.515 124.485C404.836 122.807 403.694 120.669 403.231 118.341C402.768 116.013 403.005 113.601 403.913 111.408C404.822 109.215 406.36 107.341 408.333 106.022C410.307 104.704 412.627 104 415 104C414.735 104 414.48 103.895 414.293 103.707C414.105 103.52 414 103.265 414 103C414 102.735 414.105 102.48 414.293 102.293C414.48 102.105 414.735 102 415 102C412.231 102 409.524 102.821 407.222 104.359C404.92 105.898 403.125 108.084 402.066 110.642C401.006 113.201 400.729 116.016 401.269 118.731C401.809 121.447 403.143 123.942 405.101 125.899C407.058 127.857 409.553 129.191 412.269 129.731C414.984 130.271 417.799 129.994 420.358 128.934C422.916 127.875 425.102 126.08 426.641 123.778C428.179 121.476 429 118.769 429 116C429 116.131 428.974 116.261 428.924 116.383C428.874 116.504 428.8 116.614 428.707 116.707C428.614 116.8 428.504 116.874 428.383 116.924C428.261 116.974 428.131 117 428 117Z" fill="white" fill-opacity="0.2"/>
<path d="M414 103C414 103.131 414.026 103.261 414.076 103.383C414.126 103.504 414.2 103.614 414.293 103.707C414.386 103.8 414.496 103.874 414.617 103.924C414.739 103.974 414.869 104 415 104C418.182 104.003 421.232 105.269 423.481 107.519C425.731 109.768 426.997 112.818 427 116C427 116.265 427.105 116.52 427.293 116.707C427.48 116.895 427.735 117 428 117C428.265 117 428.52 116.895 428.707 116.707C428.895 116.52 429 116.265 429 116C428.996 112.288 427.519 108.73 424.895 106.105C422.27 103.48 418.712 102.004 415 102C414.869 102 414.739 102.026 414.617 102.076C414.496 102.126 414.386 102.2 414.293 102.293C414.2 102.386 414.126 102.496 414.076 102.617C414.026 102.739 414 102.869 414 103Z" fill="#3492EB"/>
<path d="M492 117C491.869 117 491.739 116.974 491.617 116.924C491.496 116.874 491.386 116.8 491.293 116.707C491.2 116.614 491.126 116.504 491.076 116.383C491.026 116.261 491 116.131 491 116C491 118.373 490.296 120.693 488.978 122.667C487.659 124.64 485.785 126.178 483.592 127.087C481.399 127.995 478.987 128.232 476.659 127.769C474.331 127.306 472.193 126.164 470.515 124.485C468.836 122.807 467.694 120.669 467.231 118.341C466.768 116.013 467.005 113.601 467.913 111.408C468.822 109.215 470.36 107.341 472.333 106.022C474.307 104.704 476.627 104 479 104C478.735 104 478.48 103.895 478.293 103.707C478.105 103.52 478 103.265 478 103C478 102.735 478.105 102.48 478.293 102.293C478.48 102.105 478.735 102 479 102C476.231 102 473.524 102.821 471.222 104.359C468.92 105.898 467.125 108.084 466.066 110.642C465.006 113.201 464.729 116.016 465.269 118.731C465.809 121.447 467.143 123.942 469.101 125.899C471.058 127.857 473.553 129.191 476.269 129.731C478.984 130.271 481.799 129.994 484.358 128.934C486.916 127.875 489.102 126.08 490.641 123.778C492.179 121.476 493 118.769 493 116C493 116.131 492.974 116.261 492.924 116.383C492.874 116.504 492.8 116.614 492.707 116.707C492.614 116.8 492.504 116.874 492.383 116.924C492.261 116.974 492.131 117 492 117Z" fill="white" fill-opacity="0.2"/>
<path d="M478 103C478 103.131 478.026 103.261 478.076 103.383C478.126 103.504 478.2 103.614 478.293 103.707C478.386 103.8 478.496 103.874 478.617 103.924C478.739 103.974 478.869 104 479 104C482.182 104.003 485.232 105.269 487.481 107.519C489.731 109.768 490.997 112.818 491 116C491 116.265 491.105 116.52 491.293 116.707C491.48 116.895 491.735 117 492 117C492.265 117 492.52 116.895 492.707 116.707C492.895 116.52 493 116.265 493 116C492.996 112.288 491.519 108.73 488.895 106.105C486.27 103.48 482.712 102.004 479 102C478.869 102 478.739 102.026 478.617 102.076C478.496 102.126 478.386 102.2 478.293 102.293C478.2 102.386 478.126 102.496 478.076 102.617C478.026 102.739 478 102.869 478 103Z" fill="#3492EB"/>
<path d="M492 115.004C491.869 115.004 491.739 115.03 491.617 115.08C491.496 115.131 491.386 115.204 491.293 115.297C491.2 115.39 491.126 115.5 491.076 115.622C491.026 115.743 491 115.873 491 116.004C490.997 119.186 489.731 122.236 487.481 124.486C485.232 126.736 482.182 128.001 479 128.004C478.735 128.004 478.48 128.11 478.293 128.297C478.105 128.485 478 128.739 478 129.004C478 129.27 478.105 129.524 478.293 129.711C478.48 129.899 478.735 130.004 479 130.004C482.712 130 486.27 128.524 488.895 125.899C491.52 123.275 492.996 119.716 493 116.004C493 115.873 492.974 115.743 492.924 115.622C492.874 115.5 492.8 115.39 492.707 115.297C492.614 115.204 492.504 115.131 492.383 115.08C492.261 115.03 492.131 115.004 492 115.004Z" fill="#3492EB"/>
<path d="M466.009 115.004C466.14 115.004 466.27 115.03 466.392 115.08C466.513 115.131 466.623 115.204 466.716 115.297C466.809 115.39 466.883 115.5 466.933 115.622C466.983 115.743 467.009 115.873 467.009 116.004C467.012 119.186 468.278 122.236 470.527 124.486C472.777 126.736 475.827 128.001 479.009 128.004C479.274 128.004 479.528 128.11 479.716 128.297C479.903 128.485 480.009 128.739 480.009 129.004C480.009 129.27 479.903 129.524 479.716 129.711C479.528 129.899 479.274 130.004 479.009 130.004C475.297 130 471.739 128.524 469.114 125.899C466.489 123.275 465.013 119.716 465.009 116.004C465.009 115.873 465.035 115.743 465.085 115.622C465.135 115.5 465.209 115.39 465.302 115.297C465.394 115.204 465.505 115.131 465.626 115.08C465.747 115.03 465.877 115.004 466.009 115.004Z" fill="#3492EB"/>
<path d="M556 117C555.869 117 555.739 116.974 555.617 116.924C555.496 116.874 555.386 116.8 555.293 116.707C555.2 116.614 555.126 116.504 555.076 116.383C555.026 116.261 555 116.131 555 116C555 118.373 554.296 120.693 552.978 122.667C551.659 124.64 549.785 126.178 547.592 127.087C545.399 127.995 542.987 128.232 540.659 127.769C538.331 127.306 536.193 126.164 534.515 124.485C532.836 122.807 531.694 120.669 531.231 118.341C530.768 116.013 531.005 113.601 531.913 111.408C532.822 109.215 534.36 107.341 536.333 106.022C538.307 104.704 540.627 104 543 104C542.735 104 542.48 103.895 542.293 103.707C542.105 103.52 542 103.265 542 103C542 102.735 542.105 102.48 542.293 102.293C542.48 102.105 542.735 102 543 102C540.231 102 537.524 102.821 535.222 104.359C532.92 105.898 531.125 108.084 530.066 110.642C529.006 113.201 528.729 116.016 529.269 118.731C529.809 121.447 531.143 123.942 533.101 125.899C535.058 127.857 537.553 129.191 540.269 129.731C542.984 130.271 545.799 129.994 548.358 128.934C550.916 127.875 553.102 126.08 554.641 123.778C556.179 121.476 557 118.769 557 116C557 116.131 556.974 116.261 556.924 116.383C556.874 116.504 556.8 116.614 556.707 116.707C556.614 116.8 556.504 116.874 556.383 116.924C556.261 116.974 556.131 117 556 117Z" fill="white" fill-opacity="0.2"/>
<path d="M542 103C542 103.131 542.026 103.261 542.076 103.383C542.126 103.504 542.2 103.614 542.293 103.707C542.386 103.8 542.496 103.874 542.617 103.924C542.739 103.974 542.869 104 543 104C546.182 104.003 549.232 105.269 551.481 107.519C553.731 109.768 554.997 112.818 555 116C555 116.265 555.105 116.52 555.293 116.707C555.48 116.895 555.735 117 556 117C556.265 117 556.52 116.895 556.707 116.707C556.895 116.52 557 116.265 557 116C556.996 112.288 555.519 108.73 552.895 106.105C550.27 103.48 546.712 102.004 543 102C542.869 102 542.739 102.026 542.617 102.076C542.496 102.126 542.386 102.2 542.293 102.293C542.2 102.386 542.126 102.496 542.076 102.617C542.026 102.739 542 102.869 542 103Z" fill="#8F8F8F"/>
<path d="M620 117C619.869 117 619.739 116.974 619.617 116.924C619.496 116.874 619.386 116.8 619.293 116.707C619.2 116.614 619.126 116.504 619.076 116.383C619.026 116.261 619 116.131 619 116C619 118.373 618.296 120.693 616.978 122.667C615.659 124.64 613.785 126.178 611.592 127.087C609.399 127.995 606.987 128.232 604.659 127.769C602.331 127.306 600.193 126.164 598.515 124.485C596.836 122.807 595.694 120.669 595.231 118.341C594.768 116.013 595.005 113.601 595.913 111.408C596.822 109.215 598.36 107.341 600.333 106.022C602.307 104.704 604.627 104 607 104C606.735 104 606.48 103.895 606.293 103.707C606.105 103.52 606 103.265 606 103C606 102.735 606.105 102.48 606.293 102.293C606.48 102.105 606.735 102 607 102C604.231 102 601.524 102.821 599.222 104.359C596.92 105.898 595.125 108.084 594.066 110.642C593.006 113.201 592.729 116.016 593.269 118.731C593.809 121.447 595.143 123.942 597.101 125.899C599.058 127.857 601.553 129.191 604.269 129.731C606.984 130.271 609.799 129.994 612.358 128.934C614.916 127.875 617.102 126.08 618.641 123.778C620.179 121.476 621 118.769 621 116C621 116.131 620.974 116.261 620.924 116.383C620.874 116.504 620.8 116.614 620.707 116.707C620.614 116.8 620.504 116.874 620.383 116.924C620.261 116.974 620.131 117 620 117Z" fill="#3B3B3B"/>
<path d="M606 103C606 103.131 606.026 103.261 606.076 103.383C606.126 103.504 606.2 103.614 606.293 103.707C606.386 103.8 606.496 103.874 606.617 103.924C606.739 103.974 606.869 104 607 104C610.182 104.003 613.232 105.269 615.481 107.519C617.731 109.768 618.997 112.818 619 116C619 116.265 619.105 116.52 619.293 116.707C619.48 116.895 619.735 117 620 117C620.265 117 620.52 116.895 620.707 116.707C620.895 116.52 621 116.265 621 116C620.996 112.288 619.519 108.73 616.895 106.105C614.27 103.48 610.712 102.004 607 102C606.869 102 606.739 102.026 606.617 102.076C606.496 102.126 606.386 102.2 606.293 102.293C606.2 102.386 606.126 102.496 606.076 102.617C606.026 102.739 606 102.869 606 103Z" fill="#8F8F8F"/>
<path d="M620 115.004C619.869 115.004 619.739 115.03 619.617 115.08C619.496 115.131 619.386 115.204 619.293 115.297C619.2 115.39 619.126 115.5 619.076 115.622C619.026 115.743 619 115.873 619 116.004C618.997 119.186 617.731 122.236 615.481 124.486C613.232 126.736 610.182 128.001 607 128.004C606.735 128.004 606.48 128.11 606.293 128.297C606.105 128.485 606 128.739 606 129.004C606 129.27 606.105 129.524 606.293 129.711C606.48 129.899 606.735 130.004 607 130.004C610.712 130 614.27 128.524 616.895 125.899C619.52 123.275 620.996 119.716 621 116.004C621 115.873 620.974 115.743 620.924 115.622C620.874 115.5 620.8 115.39 620.707 115.297C620.614 115.204 620.504 115.131 620.383 115.08C620.261 115.03 620.131 115.004 620 115.004Z" fill="#8F8F8F"/>
<path d="M594.009 115.004C594.14 115.004 594.27 115.03 594.392 115.08C594.513 115.131 594.623 115.204 594.716 115.297C594.809 115.39 594.883 115.5 594.933 115.622C594.983 115.743 595.009 115.873 595.009 116.004C595.012 119.186 596.278 122.236 598.527 124.486C600.777 126.736 603.827 128.001 607.009 128.004C607.274 128.004 607.528 128.11 607.716 128.297C607.903 128.485 608.009 128.739 608.009 129.004C608.009 129.27 607.903 129.524 607.716 129.711C607.528 129.899 607.274 130.004 607.009 130.004C603.297 130 599.739 128.524 597.114 125.899C594.489 123.275 593.013 119.716 593.009 116.004C593.009 115.873 593.035 115.743 593.085 115.622C593.135 115.5 593.209 115.39 593.302 115.297C593.394 115.204 593.505 115.131 593.626 115.08C593.747 115.03 593.877 115.004 594.009 115.004Z" fill="#8F8F8F"/>
<path d="M671 102C668.231 102 665.524 102.821 663.222 104.359C660.919 105.898 659.125 108.084 658.065 110.642C657.006 113.2 656.729 116.015 657.269 118.731C657.809 121.447 659.142 123.941 661.1 125.899C663.058 127.857 665.553 129.191 668.268 129.731C670.984 130.271 673.799 129.994 676.357 128.934C678.915 127.874 681.102 126.08 682.64 123.778C684.179 121.475 685 118.769 685 116C684.996 112.288 683.519 108.729 680.895 106.105C678.27 103.48 674.712 102.004 671 102ZM671 128C668.626 128 666.306 127.296 664.333 125.977C662.36 124.659 660.821 122.785 659.913 120.592C659.005 118.399 658.767 115.986 659.23 113.659C659.693 111.331 660.836 109.193 662.514 107.514C664.193 105.836 666.331 104.693 668.659 104.23C670.986 103.767 673.399 104.005 675.592 104.913C677.785 105.821 679.659 107.36 680.977 109.333C682.296 111.306 683 113.626 683 116C682.996 119.181 681.731 122.232 679.481 124.481C677.232 126.731 674.181 127.996 671 128Z" fill="#27A17A"/>
<path d="M675.349 112.241L669.053 117.636L666.709 115.28C666.616 115.187 666.506 115.113 666.385 115.062C666.264 115.012 666.134 114.986 666.003 114.985C665.871 114.985 665.741 115.01 665.62 115.06C665.498 115.11 665.388 115.184 665.295 115.276C665.202 115.369 665.128 115.479 665.077 115.6C665.026 115.721 665 115.851 665 115.982C664.999 116.114 665.025 116.244 665.075 116.365C665.125 116.487 665.198 116.597 665.291 116.69L668.291 119.705C668.469 119.884 668.708 119.989 668.96 119.999C669.212 120.009 669.459 119.923 669.65 119.759L676.65 113.759C676.75 113.673 676.832 113.569 676.891 113.452C676.95 113.335 676.986 113.207 676.996 113.076C677.006 112.946 676.99 112.814 676.95 112.689C676.909 112.565 676.844 112.449 676.759 112.349C676.673 112.25 676.569 112.168 676.452 112.109C676.335 112.049 676.207 112.013 676.076 112.003C675.946 111.993 675.814 112.009 675.689 112.05C675.564 112.091 675.449 112.156 675.349 112.241Z" fill="#27A17A"/>
<path d="M734.5 102C731.731 102 729.025 102.821 726.722 104.359C724.42 105.898 722.626 108.084 721.566 110.642C720.506 113.201 720.229 116.016 720.769 118.731C721.309 121.447 722.643 123.942 724.601 125.899C726.559 127.857 729.053 129.191 731.769 129.731C734.485 130.271 737.3 129.994 739.858 128.934C742.416 127.875 744.602 126.08 746.141 123.778C747.679 121.476 748.5 118.769 748.5 116C748.496 112.288 747.02 108.73 744.395 106.105C741.771 103.48 738.212 102.004 734.5 102ZM734.5 128C732.127 128 729.807 127.296 727.833 125.978C725.86 124.659 724.322 122.785 723.414 120.592C722.505 118.399 722.268 115.987 722.731 113.659C723.194 111.331 724.337 109.193 726.015 107.515C727.693 105.836 729.831 104.694 732.159 104.231C734.487 103.768 736.9 104.005 739.092 104.913C741.285 105.822 743.159 107.36 744.478 109.333C745.796 111.307 746.5 113.627 746.5 116C746.497 119.182 745.231 122.232 742.982 124.481C740.732 126.731 737.682 127.997 734.5 128Z" fill="#F55868"/>
<path d="M734.5 123C735.19 123 735.75 122.44 735.75 121.75C735.75 121.06 735.19 120.5 734.5 120.5C733.81 120.5 733.25 121.06 733.25 121.75C733.25 122.44 733.81 123 734.5 123Z" fill="#F55868"/>
<path d="M734.5 119C734.632 119 734.762 118.974 734.883 118.924C735.004 118.874 735.115 118.8 735.208 118.707C735.3 118.614 735.374 118.504 735.424 118.383C735.475 118.261 735.5 118.131 735.5 118V111C735.5 110.735 735.395 110.48 735.207 110.293C735.02 110.105 734.765 110 734.5 110C734.235 110 733.981 110.105 733.793 110.293C733.606 110.48 733.5 110.735 733.5 111V118C733.5 118.131 733.526 118.261 733.576 118.383C733.626 118.504 733.7 118.614 733.793 118.707C733.886 118.8 733.996 118.874 734.117 118.924C734.239 118.974 734.369 119 734.5 119Z" fill="#F55868"/>
</svg>
