<svg width="559" height="188" viewBox="0 0 559 188" fill="none" xmlns="http://www.w3.org/2000/svg">
<rect width="559" height="188" rx="16" fill="#262626"/>
<path d="M308 70.5C307.934 70.5 307.869 70.4871 307.809 70.462C307.748 70.4369 307.693 70.4001 307.646 70.3536C307.6 70.3072 307.563 70.2521 307.538 70.1914C307.513 70.1307 307.5 70.0657 307.5 70C307.5 71.1867 307.148 72.3467 306.489 73.3334C305.83 74.3201 304.892 75.0892 303.796 75.5433C302.7 75.9974 301.493 76.1162 300.329 75.8847C299.166 75.6532 298.096 75.0818 297.257 74.2426C296.418 73.4035 295.847 72.3344 295.615 71.1705C295.384 70.0067 295.503 68.8003 295.957 67.7039C296.411 66.6075 297.18 65.6705 298.167 65.0112C299.153 64.3519 300.313 64 301.5 64C301.367 64 301.24 63.9473 301.146 63.8536C301.053 63.7598 301 63.6326 301 63.5C301 63.3674 301.053 63.2402 301.146 63.1464C301.24 63.0527 301.367 63 301.5 63C300.116 63 298.762 63.4105 297.611 64.1797C296.46 64.9489 295.563 66.0421 295.033 67.3212C294.503 68.6003 294.364 70.0078 294.635 71.3656C294.905 72.7235 295.571 73.9708 296.55 74.9497C297.529 75.9287 298.777 76.5954 300.134 76.8655C301.492 77.1356 302.9 76.997 304.179 76.4672C305.458 75.9373 306.551 75.0401 307.32 73.889C308.089 72.7378 308.5 71.3845 308.5 70C308.5 70.0657 308.487 70.1307 308.462 70.1914C308.437 70.2521 308.4 70.3072 308.354 70.3536C308.307 70.4001 308.252 70.4369 308.191 70.462C308.131 70.4871 308.066 70.5 308 70.5Z" fill="#3B3B3B"/>
<path d="M301 63.5C301 63.5657 301.013 63.6307 301.038 63.6914C301.063 63.7521 301.1 63.8072 301.146 63.8536C301.193 63.9001 301.248 63.9369 301.309 63.962C301.369 63.9871 301.434 64 301.5 64C303.091 64.0017 304.616 64.6344 305.741 65.7593C306.866 66.8841 307.498 68.4092 307.5 70C307.5 70.1326 307.553 70.2598 307.646 70.3536C307.74 70.4473 307.867 70.5 308 70.5C308.133 70.5 308.26 70.4473 308.354 70.3536C308.447 70.2598 308.5 70.1326 308.5 70C308.498 68.1441 307.76 66.3649 306.447 65.0526C305.135 63.7402 303.356 63.0021 301.5 63C301.434 63 301.369 63.0129 301.309 63.038C301.248 63.0631 301.193 63.0999 301.146 63.1464C301.1 63.1928 301.063 63.2479 301.038 63.3086C301.013 63.3693 301 63.4343 301 63.5Z" fill="#3492EB"/>
<path d="M308 69.5022C307.934 69.5022 307.869 69.5151 307.809 69.5402C307.748 69.5653 307.693 69.6021 307.646 69.6486C307.6 69.695 307.563 69.7501 307.538 69.8108C307.513 69.8715 307.5 69.9365 307.5 70.0022C307.498 71.593 306.866 73.1181 305.741 74.2429C304.616 75.3678 303.091 76.0005 301.5 76.0022C301.367 76.0022 301.24 76.0549 301.146 76.1486C301.053 76.2424 301 76.3696 301 76.5022C301 76.6348 301.053 76.762 301.146 76.8557C301.24 76.9495 301.367 77.0022 301.5 77.0022C303.356 77.0001 305.135 76.2619 306.447 74.9496C307.76 73.6373 308.498 71.8581 308.5 70.0022C308.5 69.9365 308.487 69.8715 308.462 69.8108C308.437 69.7501 308.4 69.695 308.354 69.6486C308.307 69.6021 308.252 69.5653 308.191 69.5402C308.131 69.5151 308.066 69.5022 308 69.5022Z" fill="#3492EB"/>
<path d="M295.004 69.5022C295.07 69.5022 295.135 69.5151 295.196 69.5402C295.256 69.5653 295.312 69.6021 295.358 69.6486C295.404 69.695 295.441 69.7501 295.466 69.8108C295.492 69.8715 295.504 69.9365 295.504 70.0022C295.506 71.593 296.139 73.1181 297.264 74.2429C298.389 75.3678 299.914 76.0005 301.504 76.0022C301.637 76.0022 301.764 76.0549 301.858 76.1486C301.952 76.2424 302.004 76.3696 302.004 76.5022C302.004 76.6348 301.952 76.762 301.858 76.8557C301.764 76.9495 301.637 77.0022 301.504 77.0022C299.649 77.0001 297.869 76.2619 296.557 74.9496C295.245 73.6373 294.506 71.8581 294.504 70.0022C294.504 69.9365 294.517 69.8715 294.542 69.8108C294.567 69.7501 294.604 69.695 294.651 69.6486C294.697 69.6021 294.752 69.5653 294.813 69.5402C294.874 69.5151 294.939 69.5022 295.004 69.5022Z" fill="#3492EB"/>
<g clip-path="url(#clip0_489_5422)">
<line x1="310" y1="113.478" x2="310" y2="98.4775" stroke="#30C9B0"/>
<line x1="309.5" y1="105.978" x2="311.5" y2="105.978" stroke="#30C9B0"/>
<line x1="311" y1="113.478" x2="311" y2="98.4775" stroke="#30C9B0"/>
</g>
<path d="M313.236 129V127.869H309.264L311.162 125.842C311.412 125.576 311.643 125.318 311.854 125.068C312.068 124.818 312.254 124.57 312.41 124.324C312.562 124.078 312.682 123.83 312.768 123.58C312.857 123.326 312.902 123.064 312.902 122.795C312.902 122.436 312.844 122.107 312.727 121.811C312.609 121.51 312.439 121.252 312.217 121.037C311.99 120.822 311.711 120.654 311.379 120.533C311.051 120.412 310.678 120.352 310.26 120.352C309.814 120.352 309.41 120.424 309.047 120.568C308.688 120.713 308.383 120.908 308.133 121.154C307.879 121.4 307.684 121.689 307.547 122.021C307.41 122.35 307.342 122.699 307.342 123.07H308.748C308.748 122.824 308.779 122.605 308.842 122.414C308.904 122.219 308.998 122.053 309.123 121.916C309.244 121.787 309.396 121.688 309.58 121.617C309.764 121.547 309.98 121.512 310.23 121.512C310.426 121.512 310.602 121.545 310.758 121.611C310.918 121.678 311.055 121.77 311.168 121.887C311.281 122.004 311.367 122.145 311.426 122.309C311.484 122.473 311.514 122.654 311.514 122.854C311.514 123.002 311.492 123.15 311.449 123.299C311.41 123.443 311.344 123.6 311.25 123.768C311.152 123.936 311.025 124.121 310.869 124.324C310.713 124.523 310.52 124.75 310.289 125.004L307.512 128.027V129H313.236Z" fill="#30C9B0"/>
<rect opacity="0.5" x="309.5" y="62" width="2" height="32" fill="#30C9B0"/>
<rect opacity="0.5" x="279.5" y="60" width="32" height="2" fill="#30C9B0"/>
<g clip-path="url(#clip1_489_5422)">
<line x1="260.5" y1="60.5" x2="275.5" y2="60.5" stroke="#30C9B0"/>
<line x1="268" y1="62.25" x2="268" y2="60.25" stroke="#30C9B0"/>
<line x1="260.5" y1="61.5" x2="275.5" y2="61.5" stroke="#30C9B0"/>
</g>
<path d="M256.896 66V64.6807H252.262L254.477 62.3154C254.768 62.0055 255.037 61.7048 255.283 61.4131C255.534 61.1214 255.75 60.832 255.933 60.5449C256.11 60.2578 256.249 59.9684 256.35 59.6768C256.454 59.3805 256.507 59.0752 256.507 58.7607C256.507 58.3415 256.438 57.9587 256.302 57.6123C256.165 57.2614 255.967 56.9606 255.707 56.71C255.443 56.4593 255.117 56.2633 254.729 56.1221C254.347 55.9808 253.911 55.9102 253.424 55.9102C252.904 55.9102 252.433 55.9945 252.009 56.1631C251.59 56.3317 251.234 56.5596 250.942 56.8467C250.646 57.1338 250.418 57.471 250.259 57.8584C250.099 58.2412 250.02 58.6491 250.02 59.082H251.66C251.66 58.7949 251.697 58.5397 251.77 58.3164C251.842 58.0885 251.952 57.8949 252.098 57.7354C252.239 57.585 252.417 57.4688 252.631 57.3867C252.845 57.3047 253.098 57.2637 253.39 57.2637C253.618 57.2637 253.823 57.3024 254.005 57.3799C254.192 57.4574 254.351 57.5645 254.483 57.7012C254.616 57.8379 254.716 58.002 254.784 58.1934C254.853 58.3848 254.887 58.5967 254.887 58.8291C254.887 59.0023 254.862 59.1755 254.812 59.3486C254.766 59.5173 254.688 59.6995 254.579 59.8955C254.465 60.0915 254.317 60.3079 254.135 60.5449C253.952 60.7773 253.727 61.0417 253.458 61.3379L250.218 64.8652V66H256.896Z" fill="#30C9B0"/>
<defs>
<clipPath id="clip0_489_5422">
<rect width="2" height="15" fill="white" transform="translate(309.5 98.4775)"/>
</clipPath>
<clipPath id="clip1_489_5422">
<rect width="15" height="2" fill="white" transform="translate(260.5 60)"/>
</clipPath>
</defs>
</svg>
