<svg width="559" height="400" viewBox="0 0 559 400" fill="none" xmlns="http://www.w3.org/2000/svg">
<rect width="559" height="400" rx="16" fill="#262626"/>
<path d="M66.44 48.72H72.92C78.664 48.72 81.536 51.6 81.536 57.36C81.536 63.12 78.68 66 72.968 66H66.44V48.72ZM72.92 51.504H70.472V63.192H72.968C75.976 63.192 77.48 61.248 77.48 57.36C77.48 55.248 77.016 53.704 76.088 52.728C75.32 51.912 74.264 51.504 72.92 51.504ZM92.2524 62.376H96.0684C95.7484 63.688 95.0524 64.688 93.9804 65.376C92.9244 66.032 91.5644 66.36 89.9004 66.36C87.7884 66.36 86.1324 65.704 84.9324 64.392C83.8604 63.208 83.3244 61.664 83.3244 59.76C83.3244 57.52 83.9884 55.816 85.3164 54.648C86.4524 53.656 87.9404 53.16 89.7804 53.16C91.9564 53.16 93.5964 53.864 94.7004 55.272C95.7084 56.552 96.2124 58.352 96.2124 60.672H87.1164C87.3564 62.72 88.3484 63.744 90.0924 63.744C90.6524 63.744 91.1244 63.624 91.5084 63.384C91.8924 63.144 92.1404 62.808 92.2524 62.376ZM89.7084 55.512C88.1884 55.512 87.3244 56.504 87.1164 58.488H92.3724C92.2764 56.504 91.3884 55.512 89.7084 55.512ZM105.394 63.48V66.024C104.61 66.248 103.85 66.36 103.114 66.36C101.754 66.36 100.714 65.984 99.9939 65.232C99.3699 64.576 99.0579 63.672 99.0579 62.52V56.112H97.1619V53.52H99.0579L99.2979 50.52H102.802V53.52H105.37V56.112H102.802V62.64C102.802 62.976 102.906 63.24 103.114 63.432C103.338 63.608 103.642 63.696 104.026 63.696C104.33 63.696 104.786 63.624 105.394 63.48ZM115.409 62.376H119.225C118.905 63.688 118.209 64.688 117.137 65.376C116.081 66.032 114.721 66.36 113.057 66.36C110.945 66.36 109.289 65.704 108.089 64.392C107.017 63.208 106.481 61.664 106.481 59.76C106.481 57.52 107.145 55.816 108.473 54.648C109.609 53.656 111.097 53.16 112.937 53.16C115.113 53.16 116.753 53.864 117.857 55.272C118.865 56.552 119.369 58.352 119.369 60.672H110.273C110.513 62.72 111.505 63.744 113.249 63.744C113.809 63.744 114.281 63.624 114.665 63.384C115.049 63.144 115.297 62.808 115.409 62.376ZM112.865 55.512C111.345 55.512 110.481 56.504 110.273 58.488H115.529C115.433 56.504 114.545 55.512 112.865 55.512ZM125.142 66H121.398V53.52H124.518L124.926 55.416C125.614 53.912 126.702 53.16 128.19 53.16C128.75 53.16 129.222 53.216 129.606 53.328V56.808C129.094 56.648 128.558 56.568 127.998 56.568C127.15 56.568 126.454 56.976 125.91 57.792C125.398 58.56 125.142 59.568 125.142 60.816V66ZM134.681 66H130.937V53.52H133.577L134.201 54.888C135.161 53.736 136.433 53.16 138.017 53.16C139.761 53.16 141.025 53.736 141.809 54.888C142.833 53.736 144.209 53.16 145.937 53.16C147.441 53.16 148.585 53.576 149.369 54.408C150.121 55.208 150.497 56.368 150.497 57.888V66H146.753V57.792C146.753 56.464 146.089 55.8 144.761 55.8C144.009 55.8 143.433 56.088 143.033 56.664C142.729 57.112 142.577 57.68 142.577 58.368V66H138.833V57.792C138.833 56.464 138.169 55.8 136.841 55.8C136.153 55.8 135.601 56.072 135.185 56.616C134.849 57.064 134.681 57.592 134.681 58.2V66ZM156.903 51.912H152.871V48.72H156.903V51.912ZM156.759 66H153.015V53.52H156.759V66ZM163.134 66H159.39V53.52H162.486L162.846 54.888C163.758 53.736 165.03 53.16 166.662 53.16C168.214 53.16 169.398 53.632 170.214 54.576C170.934 55.408 171.294 56.528 171.294 57.936V66H167.55V58.08C167.55 56.56 166.91 55.8 165.63 55.8C164.846 55.8 164.222 56.088 163.758 56.664C163.342 57.16 163.134 57.808 163.134 58.608V66ZM177.404 57.12H173.564C173.884 55.776 174.612 54.76 175.748 54.072C176.772 53.464 178.052 53.16 179.588 53.16C181.444 53.16 182.876 53.624 183.884 54.552C184.764 55.352 185.204 56.416 185.204 57.744V66H182.276L181.82 64.704C180.86 65.808 179.484 66.36 177.692 66.36C176.3 66.36 175.204 65.968 174.404 65.184C173.684 64.496 173.324 63.568 173.324 62.4C173.324 61.312 173.748 60.456 174.596 59.832C175.412 59.224 176.668 58.776 178.364 58.488L181.46 57.984V57.432C181.46 56.2 180.796 55.584 179.468 55.584C178.3 55.584 177.612 56.096 177.404 57.12ZM178.772 63.792C179.636 63.792 180.324 63.528 180.836 63C181.252 62.552 181.46 62.016 181.46 61.392V60.024L179.324 60.456C178.508 60.616 177.924 60.84 177.572 61.128C177.236 61.4 177.068 61.768 177.068 62.232C177.068 63.272 177.636 63.792 178.772 63.792ZM194.878 63.48V66.024C194.094 66.248 193.334 66.36 192.598 66.36C191.238 66.36 190.198 65.984 189.478 65.232C188.854 64.576 188.542 63.672 188.542 62.52V56.112H186.646V53.52H188.542L188.782 50.52H192.286V53.52H194.854V56.112H192.286V62.64C192.286 62.976 192.39 63.24 192.598 63.432C192.822 63.608 193.126 63.696 193.51 63.696C193.814 63.696 194.27 63.624 194.878 63.48ZM204.893 62.376H208.709C208.389 63.688 207.693 64.688 206.621 65.376C205.565 66.032 204.205 66.36 202.541 66.36C200.429 66.36 198.773 65.704 197.573 64.392C196.501 63.208 195.965 61.664 195.965 59.76C195.965 57.52 196.629 55.816 197.957 54.648C199.093 53.656 200.581 53.16 202.421 53.16C204.597 53.16 206.237 53.864 207.341 55.272C208.349 56.552 208.853 58.352 208.853 60.672H199.757C199.997 62.72 200.989 63.744 202.733 63.744C203.293 63.744 203.765 63.624 204.149 63.384C204.533 63.144 204.781 62.808 204.893 62.376ZM202.349 55.512C200.829 55.512 199.965 56.504 199.757 58.488H205.013C204.917 56.504 204.029 55.512 202.349 55.512Z" fill="white" fill-opacity="0.95"/>
<path d="M166.393 118.222C166.102 118.223 165.812 118.165 165.543 118.054C165.273 117.942 165.028 117.778 164.821 117.572C164.615 117.365 164.451 117.12 164.34 116.851C164.228 116.581 164.171 116.292 164.171 116C164.171 121.275 162.607 126.431 159.676 130.817C156.745 135.203 152.58 138.622 147.707 140.64C142.833 142.659 137.471 143.187 132.297 142.158C127.123 141.129 122.371 138.589 118.641 134.859C114.911 131.129 112.371 126.377 111.342 121.203C110.313 116.029 110.841 110.667 112.86 105.793C114.878 100.92 118.297 96.7546 122.683 93.824C127.069 90.8934 132.225 89.3292 137.5 89.3292C136.911 89.3292 136.345 89.095 135.929 88.6782C135.512 88.2614 135.278 87.6961 135.278 87.1066C135.278 86.5171 135.512 85.9518 135.929 85.535C136.345 85.1182 136.911 84.884 137.5 84.884C131.346 84.884 125.33 86.7089 120.213 90.128C115.096 93.5471 111.108 98.4067 108.753 104.092C106.398 109.778 105.782 116.034 106.982 122.07C108.183 128.106 111.146 133.65 115.498 138.002C119.85 142.354 125.394 145.317 131.43 146.518C137.466 147.718 143.722 147.102 149.408 144.747C155.093 142.392 159.953 138.404 163.372 133.287C166.791 128.17 168.616 122.154 168.616 116C168.616 116.292 168.559 116.581 168.447 116.851C168.336 117.12 168.172 117.365 167.965 117.572C167.759 117.778 167.514 117.942 167.244 118.054C166.974 118.165 166.685 118.223 166.393 118.222Z" fill="white" fill-opacity="0.2"/>
<path d="M135.278 87.1066C135.278 87.3985 135.335 87.6876 135.447 87.9573C135.558 88.2271 135.722 88.4721 135.928 88.6786C136.135 88.885 136.38 89.0487 136.65 89.1603C136.919 89.272 137.208 89.3293 137.5 89.3292C144.572 89.3369 151.351 92.1493 156.351 97.1494C161.351 102.149 164.163 108.929 164.171 116C164.171 116.589 164.405 117.155 164.822 117.571C165.239 117.988 165.804 118.222 166.394 118.222C166.983 118.222 167.548 117.988 167.965 117.571C168.382 117.155 168.616 116.589 168.616 116C168.607 107.75 165.326 99.8412 159.492 94.0079C153.659 88.1745 145.75 84.8933 137.5 84.884C137.208 84.8839 136.919 84.9412 136.65 85.0529C136.38 85.1645 136.135 85.3282 135.928 85.5346C135.722 85.741 135.558 85.9861 135.447 86.2559C135.335 86.5256 135.278 86.8147 135.278 87.1066Z" fill="#3492EB"/>
<path d="M143.854 164.647C143.76 164.553 143.633 164.5 143.5 164.5C143.368 164.5 143.24 164.553 143.147 164.647L137.5 170.293L131.853 164.647C131.759 164.555 131.633 164.504 131.502 164.505C131.37 164.506 131.245 164.559 131.152 164.652C131.059 164.745 131.006 164.87 131.005 165.002C131.004 165.133 131.055 165.259 131.146 165.354L137.146 171.354C137.24 171.447 137.367 171.5 137.5 171.5C137.633 171.5 137.76 171.447 137.853 171.354L143.853 165.354C143.947 165.26 144 165.133 144 165C144 164.868 143.947 164.74 143.854 164.647Z" fill="white" fill-opacity="0.7"/>
<path d="M166.393 222.222C166.102 222.223 165.812 222.165 165.543 222.054C165.273 221.942 165.028 221.778 164.821 221.572C164.615 221.365 164.451 221.12 164.34 220.851C164.228 220.581 164.171 220.292 164.171 220C164.171 225.275 162.607 230.431 159.676 234.817C156.745 239.203 152.58 242.622 147.707 244.64C142.833 246.659 137.471 247.187 132.297 246.158C127.123 245.129 122.371 242.589 118.641 238.859C114.911 235.129 112.371 230.377 111.342 225.203C110.313 220.029 110.841 214.667 112.86 209.793C114.878 204.92 118.297 200.755 122.683 197.824C127.069 194.893 132.225 193.329 137.5 193.329C136.911 193.329 136.345 193.095 135.929 192.678C135.512 192.261 135.278 191.696 135.278 191.107C135.278 190.517 135.512 189.952 135.929 189.535C136.345 189.118 136.911 188.884 137.5 188.884C131.346 188.884 125.33 190.709 120.213 194.128C115.096 197.547 111.108 202.407 108.753 208.092C106.398 213.778 105.782 220.034 106.982 226.07C108.183 232.106 111.146 237.65 115.498 242.002C119.85 246.354 125.394 249.317 131.43 250.518C137.466 251.718 143.722 251.102 149.408 248.747C155.093 246.392 159.953 242.404 163.372 237.287C166.791 232.17 168.616 226.154 168.616 220C168.616 220.292 168.559 220.581 168.447 220.851C168.336 221.12 168.172 221.365 167.965 221.572C167.759 221.778 167.514 221.942 167.244 222.054C166.974 222.165 166.685 222.223 166.393 222.222Z" fill="white" fill-opacity="0.2"/>
<path d="M135.278 191.107C135.278 191.399 135.335 191.688 135.447 191.957C135.558 192.227 135.722 192.472 135.928 192.679C136.135 192.885 136.38 193.049 136.65 193.16C136.919 193.272 137.208 193.329 137.5 193.329C144.572 193.337 151.351 196.149 156.351 201.149C161.351 206.149 164.163 212.929 164.171 220C164.171 220.589 164.405 221.155 164.822 221.571C165.239 221.988 165.804 222.222 166.394 222.222C166.983 222.222 167.548 221.988 167.965 221.571C168.382 221.155 168.616 220.589 168.616 220C168.607 211.75 165.326 203.841 159.492 198.008C153.659 192.175 145.75 188.893 137.5 188.884C137.208 188.884 136.919 188.941 136.65 189.053C136.38 189.165 136.135 189.328 135.928 189.535C135.722 189.741 135.558 189.986 135.447 190.256C135.335 190.526 135.278 190.815 135.278 191.107Z" fill="#3492EB"/>
<path d="M166.393 217.787C166.101 217.787 165.812 217.845 165.542 217.956C165.273 218.068 165.028 218.232 164.821 218.438C164.615 218.644 164.451 218.889 164.339 219.159C164.228 219.429 164.17 219.718 164.171 220.01C164.163 227.081 161.35 233.86 156.35 238.86C151.35 243.861 144.571 246.673 137.5 246.681C136.91 246.681 136.345 246.915 135.928 247.332C135.511 247.748 135.277 248.314 135.277 248.903C135.277 249.493 135.511 250.058 135.928 250.475C136.345 250.892 136.91 251.126 137.5 251.126C145.749 251.117 153.659 247.835 159.492 242.002C165.325 236.169 168.606 228.26 168.616 220.01C168.616 219.718 168.559 219.429 168.447 219.159C168.335 218.889 168.172 218.644 167.965 218.438C167.759 218.232 167.514 218.068 167.244 217.956C166.974 217.845 166.685 217.787 166.393 217.787Z" fill="#3492EB"/>
<path d="M108.626 217.787C108.918 217.787 109.207 217.845 109.477 217.956C109.747 218.068 109.992 218.232 110.198 218.438C110.405 218.644 110.568 218.889 110.68 219.159C110.792 219.429 110.849 219.718 110.849 220.01C110.857 227.081 113.669 233.86 118.669 238.86C123.669 243.861 130.449 246.673 137.52 246.681C138.109 246.681 138.674 246.915 139.091 247.332C139.508 247.748 139.742 248.314 139.742 248.903C139.742 249.493 139.508 250.058 139.091 250.475C138.674 250.892 138.109 251.126 137.52 251.126C129.27 251.117 121.361 247.835 115.528 242.002C109.694 236.169 106.413 228.26 106.404 220.01C106.404 219.718 106.461 219.429 106.573 219.159C106.684 218.889 106.848 218.644 107.054 218.438C107.261 218.232 107.506 218.068 107.776 217.956C108.045 217.845 108.334 217.787 108.626 217.787Z" fill="#3492EB"/>
<path d="M143.854 268.647C143.76 268.553 143.633 268.5 143.5 268.5C143.368 268.5 143.24 268.553 143.147 268.647L137.5 274.293L131.853 268.647C131.759 268.555 131.633 268.504 131.502 268.505C131.37 268.506 131.245 268.559 131.152 268.652C131.059 268.745 131.006 268.87 131.005 269.002C131.004 269.133 131.055 269.259 131.146 269.354L137.146 275.354C137.24 275.447 137.367 275.5 137.5 275.5C137.633 275.5 137.76 275.447 137.853 275.354L143.853 269.354C143.947 269.26 144 269.133 144 269C144 268.868 143.947 268.74 143.854 268.647Z" fill="white" fill-opacity="0.7"/>
<path d="M170.406 326.531C170.074 326.531 169.745 326.466 169.437 326.339C169.13 326.212 168.851 326.025 168.616 325.79C168.381 325.555 168.194 325.276 168.067 324.969C167.94 324.662 167.875 324.332 167.875 324C167.875 330.008 166.094 335.88 162.756 340.875C159.418 345.871 154.674 349.764 149.124 352.063C143.574 354.362 137.466 354.963 131.574 353.791C125.682 352.619 120.27 349.726 116.022 345.478C111.774 341.23 108.881 335.818 107.709 329.926C106.537 324.034 107.138 317.926 109.437 312.376C111.736 306.826 115.629 302.082 120.625 298.744C125.62 295.406 131.492 293.625 137.5 293.625C136.829 293.625 136.185 293.358 135.71 292.884C135.235 292.409 134.969 291.765 134.969 291.094C134.969 290.422 135.235 289.779 135.71 289.304C136.185 288.829 136.829 288.562 137.5 288.562C130.491 288.562 123.64 290.641 117.812 294.535C111.984 298.429 107.442 303.963 104.76 310.439C102.078 316.914 101.376 324.039 102.743 330.914C104.111 337.788 107.486 344.102 112.442 349.058C117.398 354.014 123.712 357.389 130.587 358.757C137.461 360.124 144.586 359.422 151.061 356.74C157.537 354.058 163.071 349.516 166.965 343.688C170.859 337.86 172.938 331.009 172.938 324C172.938 324.332 172.872 324.662 172.745 324.969C172.618 325.276 172.432 325.555 172.197 325.79C171.961 326.025 171.682 326.212 171.375 326.339C171.068 326.466 170.739 326.531 170.406 326.531Z" fill="#3B3B3B"/>
<path d="M134.969 291.094C134.969 291.426 135.034 291.755 135.162 292.063C135.289 292.37 135.475 292.649 135.71 292.884C135.945 293.119 136.224 293.306 136.532 293.433C136.839 293.56 137.168 293.625 137.5 293.625C145.554 293.634 153.275 296.837 158.969 302.531C164.664 308.226 167.867 315.947 167.875 324C167.875 324.671 168.142 325.315 168.617 325.79C169.092 326.265 169.735 326.531 170.407 326.531C171.078 326.531 171.722 326.265 172.197 325.79C172.671 325.315 172.938 324.671 172.938 324C172.927 314.605 169.19 305.597 162.547 298.954C155.903 292.31 146.896 288.573 137.5 288.563C137.168 288.562 136.839 288.628 136.532 288.755C136.224 288.882 135.945 289.068 135.71 289.303C135.475 289.539 135.289 289.818 135.162 290.125C135.034 290.432 134.969 290.761 134.969 291.094Z" fill="#3492EB"/>
<path d="M104.504 326.531C104.837 326.531 105.166 326.466 105.473 326.339C105.78 326.212 106.06 326.025 106.295 325.79C106.53 325.555 106.716 325.276 106.843 324.969C106.97 324.662 107.036 324.332 107.036 324C107.044 315.947 110.247 308.226 115.942 302.531C121.636 296.837 129.357 293.634 137.411 293.625C138.082 293.625 138.726 293.358 139.201 292.884C139.675 292.409 139.942 291.765 139.942 291.094C139.942 290.422 139.675 289.779 139.201 289.304C138.726 288.829 138.082 288.562 137.411 288.562C128.015 288.573 119.008 292.31 112.364 298.954C105.721 305.597 101.984 314.605 101.973 324C101.973 324.332 102.038 324.662 102.165 324.969C102.293 325.276 102.479 325.555 102.714 325.79C102.949 326.025 103.228 326.212 103.535 326.339C103.843 326.466 104.172 326.531 104.504 326.531Z" fill="#3492EB"/>
<path d="M170.406 321.48C170.074 321.48 169.745 321.545 169.437 321.672C169.13 321.799 168.851 321.986 168.616 322.221C168.381 322.456 168.194 322.735 168.067 323.042C167.94 323.35 167.875 323.679 167.875 324.011C167.866 332.064 164.663 339.785 158.969 345.48C153.274 351.174 145.553 354.377 137.5 354.386C136.829 354.386 136.185 354.653 135.71 355.128C135.235 355.602 134.969 356.246 134.969 356.917C134.969 357.589 135.235 358.233 135.71 358.707C136.185 359.182 136.829 359.449 137.5 359.449C146.895 359.438 155.903 355.701 162.546 349.058C169.19 342.414 172.927 333.407 172.937 324.011C172.938 323.679 172.872 323.35 172.745 323.042C172.618 322.735 172.432 322.456 172.197 322.221C171.961 321.986 171.682 321.799 171.375 321.672C171.068 321.545 170.739 321.48 170.406 321.48Z" fill="#3492EB"/>
<path d="M104.616 321.48C104.949 321.48 105.278 321.545 105.585 321.672C105.892 321.799 106.171 321.986 106.407 322.221C106.642 322.456 106.828 322.735 106.955 323.042C107.082 323.35 107.148 323.679 107.147 324.011C107.156 332.064 110.359 339.785 116.054 345.48C121.748 351.174 129.469 354.377 137.522 354.386C138.194 354.386 138.838 354.653 139.312 355.128C139.787 355.602 140.054 356.246 140.054 356.917C140.054 357.589 139.787 358.233 139.312 358.707C138.838 359.182 138.194 359.449 137.522 359.449C128.127 359.438 119.12 355.701 112.476 349.058C105.832 342.414 102.096 333.407 102.085 324.011C102.085 323.679 102.15 323.35 102.277 323.042C102.404 322.735 102.591 322.456 102.826 322.221C103.061 321.986 103.34 321.799 103.647 321.672C103.955 321.545 104.284 321.48 104.616 321.48Z" fill="#3492EB"/>
<path d="M331.44 48.72H335.472V66H331.44V48.72ZM341.978 66H338.234V53.52H341.33L341.69 54.888C342.602 53.736 343.874 53.16 345.506 53.16C347.058 53.16 348.242 53.632 349.058 54.576C349.778 55.408 350.138 56.528 350.138 57.936V66H346.394V58.08C346.394 56.56 345.754 55.8 344.474 55.8C343.69 55.8 343.066 56.088 342.602 56.664C342.186 57.16 341.978 57.808 341.978 58.608V66ZM365.248 66H362.32L361.696 64.632C360.704 65.784 359.432 66.36 357.88 66.36C356.056 66.36 354.616 65.712 353.56 64.416C352.632 63.248 352.168 61.736 352.168 59.88C352.168 57.656 352.768 55.936 353.968 54.72C354.992 53.68 356.28 53.16 357.832 53.16C359.384 53.16 360.608 53.672 361.504 54.696V48.72H365.248V66ZM355.936 59.856C355.936 61.216 356.232 62.216 356.824 62.856C357.32 63.368 357.984 63.624 358.816 63.624C360.688 63.624 361.624 62.344 361.624 59.784C361.624 57.192 360.688 55.896 358.816 55.896C357.856 55.896 357.128 56.272 356.632 57.024C356.168 57.712 355.936 58.656 355.936 59.856ZM376.331 62.376H380.147C379.827 63.688 379.131 64.688 378.059 65.376C377.003 66.032 375.643 66.36 373.979 66.36C371.867 66.36 370.211 65.704 369.011 64.392C367.939 63.208 367.403 61.664 367.403 59.76C367.403 57.52 368.067 55.816 369.395 54.648C370.531 53.656 372.019 53.16 373.859 53.16C376.035 53.16 377.675 53.864 378.779 55.272C379.787 56.552 380.291 58.352 380.291 60.672H371.195C371.435 62.72 372.427 63.744 374.171 63.744C374.731 63.744 375.203 63.624 375.587 63.384C375.971 63.144 376.219 62.808 376.331 62.376ZM373.787 55.512C372.267 55.512 371.403 56.504 371.195 58.488H376.451C376.355 56.504 375.467 55.512 373.787 55.512ZM389.472 63.48V66.024C388.688 66.248 387.928 66.36 387.192 66.36C385.832 66.36 384.792 65.984 384.072 65.232C383.448 64.576 383.136 63.672 383.136 62.52V56.112H381.24V53.52H383.136L383.376 50.52H386.88V53.52H389.448V56.112H386.88V62.64C386.88 62.976 386.984 63.24 387.192 63.432C387.416 63.608 387.72 63.696 388.104 63.696C388.408 63.696 388.864 63.624 389.472 63.48ZM399.487 62.376H403.303C402.983 63.688 402.287 64.688 401.215 65.376C400.159 66.032 398.799 66.36 397.135 66.36C395.023 66.36 393.367 65.704 392.167 64.392C391.095 63.208 390.559 61.664 390.559 59.76C390.559 57.52 391.223 55.816 392.551 54.648C393.687 53.656 395.175 53.16 397.015 53.16C399.191 53.16 400.831 53.864 401.935 55.272C402.943 56.552 403.447 58.352 403.447 60.672H394.351C394.591 62.72 395.583 63.744 397.327 63.744C397.887 63.744 398.359 63.624 398.743 63.384C399.127 63.144 399.375 62.808 399.487 62.376ZM396.943 55.512C395.423 55.512 394.559 56.504 394.351 58.488H399.607C399.511 56.504 398.623 55.512 396.943 55.512ZM409.22 66H405.476V53.52H408.596L409.004 55.416C409.692 53.912 410.78 53.16 412.268 53.16C412.828 53.16 413.3 53.216 413.684 53.328V56.808C413.172 56.648 412.636 56.568 412.076 56.568C411.228 56.568 410.532 56.976 409.988 57.792C409.476 58.56 409.22 59.568 409.22 60.816V66ZM418.759 66H415.015V53.52H417.655L418.279 54.888C419.239 53.736 420.511 53.16 422.095 53.16C423.839 53.16 425.103 53.736 425.887 54.888C426.911 53.736 428.287 53.16 430.015 53.16C431.519 53.16 432.663 53.576 433.447 54.408C434.199 55.208 434.575 56.368 434.575 57.888V66H430.831V57.792C430.831 56.464 430.167 55.8 428.839 55.8C428.087 55.8 427.511 56.088 427.111 56.664C426.807 57.112 426.655 57.68 426.655 58.368V66H422.911V57.792C422.911 56.464 422.247 55.8 420.919 55.8C420.231 55.8 419.679 56.072 419.263 56.616C418.927 57.064 418.759 57.592 418.759 58.2V66ZM440.981 51.912H436.949V48.72H440.981V51.912ZM440.837 66H437.093V53.52H440.837V66ZM447.212 66H443.468V53.52H446.564L446.924 54.888C447.836 53.736 449.108 53.16 450.74 53.16C452.292 53.16 453.476 53.632 454.292 54.576C455.012 55.408 455.372 56.528 455.372 57.936V66H451.628V58.08C451.628 56.56 450.988 55.8 449.708 55.8C448.924 55.8 448.3 56.088 447.836 56.664C447.42 57.16 447.212 57.808 447.212 58.608V66ZM461.483 57.12H457.643C457.963 55.776 458.691 54.76 459.827 54.072C460.851 53.464 462.131 53.16 463.667 53.16C465.523 53.16 466.955 53.624 467.963 54.552C468.843 55.352 469.283 56.416 469.283 57.744V66H466.355L465.899 64.704C464.939 65.808 463.563 66.36 461.771 66.36C460.379 66.36 459.283 65.968 458.483 65.184C457.763 64.496 457.403 63.568 457.403 62.4C457.403 61.312 457.827 60.456 458.675 59.832C459.491 59.224 460.747 58.776 462.443 58.488L465.539 57.984V57.432C465.539 56.2 464.875 55.584 463.547 55.584C462.379 55.584 461.691 56.096 461.483 57.12ZM462.851 63.792C463.715 63.792 464.403 63.528 464.915 63C465.331 62.552 465.539 62.016 465.539 61.392V60.024L463.403 60.456C462.587 60.616 462.003 60.84 461.651 61.128C461.315 61.4 461.147 61.768 461.147 62.232C461.147 63.272 461.715 63.792 462.851 63.792ZM478.956 63.48V66.024C478.172 66.248 477.412 66.36 476.676 66.36C475.316 66.36 474.276 65.984 473.556 65.232C472.932 64.576 472.62 63.672 472.62 62.52V56.112H470.724V53.52H472.62L472.86 50.52H476.364V53.52H478.932V56.112H476.364V62.64C476.364 62.976 476.468 63.24 476.676 63.432C476.9 63.608 477.204 63.696 477.588 63.696C477.892 63.696 478.348 63.624 478.956 63.48ZM488.971 62.376H492.787C492.467 63.688 491.771 64.688 490.699 65.376C489.643 66.032 488.283 66.36 486.619 66.36C484.507 66.36 482.851 65.704 481.651 64.392C480.579 63.208 480.043 61.664 480.043 59.76C480.043 57.52 480.707 55.816 482.035 54.648C483.171 53.656 484.659 53.16 486.499 53.16C488.675 53.16 490.315 53.864 491.419 55.272C492.427 56.552 492.931 58.352 492.931 60.672H483.835C484.075 62.72 485.067 63.744 486.811 63.744C487.371 63.744 487.843 63.624 488.227 63.384C488.611 63.144 488.859 62.808 488.971 62.376ZM486.427 55.512C484.907 55.512 484.043 56.504 483.835 58.488H489.091C488.995 56.504 488.107 55.512 486.427 55.512Z" fill="white" fill-opacity="0.95"/>
<path d="M440.893 118.222C440.602 118.223 440.312 118.165 440.043 118.054C439.773 117.942 439.528 117.778 439.321 117.572C439.115 117.365 438.951 117.12 438.84 116.851C438.728 116.581 438.671 116.292 438.671 116C438.671 121.275 437.107 126.431 434.176 130.817C431.245 135.203 427.08 138.622 422.207 140.64C417.333 142.659 411.971 143.187 406.797 142.158C401.623 141.129 396.871 138.589 393.141 134.859C389.411 131.129 386.871 126.377 385.842 121.203C384.813 116.029 385.341 110.667 387.36 105.793C389.378 100.92 392.797 96.7546 397.183 93.824C401.569 90.8934 406.725 89.3292 412 89.3292C411.411 89.3292 410.845 89.095 410.429 88.6782C410.012 88.2614 409.778 87.6961 409.778 87.1066C409.778 86.5171 410.012 85.9518 410.429 85.535C410.845 85.1182 411.411 84.884 412 84.884C405.846 84.884 399.83 86.7089 394.713 90.128C389.596 93.5471 385.608 98.4067 383.253 104.092C380.898 109.778 380.282 116.034 381.482 122.07C382.683 128.106 385.646 133.65 389.998 138.002C394.35 142.354 399.894 145.317 405.93 146.518C411.966 147.718 418.222 147.102 423.908 144.747C429.593 142.392 434.453 138.404 437.872 133.287C441.291 128.17 443.116 122.154 443.116 116C443.116 116.292 443.059 116.581 442.947 116.851C442.836 117.12 442.672 117.365 442.465 117.572C442.259 117.778 442.014 117.942 441.744 118.054C441.474 118.165 441.185 118.223 440.893 118.222Z" fill="white" fill-opacity="0.2"/>
<path d="M409.778 87.1066C409.778 87.3985 409.835 87.6876 409.947 87.9573C410.058 88.2271 410.222 88.4721 410.428 88.6786C410.635 88.885 410.88 89.0487 411.15 89.1603C411.419 89.272 411.708 89.3293 412 89.3292C419.072 89.3369 425.851 92.1493 430.851 97.1494C435.851 102.149 438.663 108.929 438.671 116C438.671 116.589 438.905 117.155 439.322 117.571C439.739 117.988 440.304 118.222 440.894 118.222C441.483 118.222 442.048 117.988 442.465 117.571C442.882 117.155 443.116 116.589 443.116 116C443.107 107.75 439.826 99.8412 433.992 94.0079C428.159 88.1745 420.25 84.8933 412 84.884C411.708 84.8839 411.419 84.9412 411.15 85.0529C410.88 85.1645 410.635 85.3282 410.428 85.5346C410.222 85.741 410.058 85.9861 409.947 86.2559C409.835 86.5256 409.778 86.8147 409.778 87.1066Z" fill="#3492EB"/>
<path d="M418.354 164.647C418.26 164.553 418.133 164.5 418 164.5C417.868 164.5 417.74 164.553 417.647 164.647L412 170.293L406.353 164.647C406.259 164.555 406.133 164.504 406.002 164.505C405.87 164.506 405.745 164.559 405.652 164.652C405.559 164.745 405.506 164.87 405.505 165.002C405.504 165.133 405.555 165.259 405.646 165.354L411.646 171.354C411.74 171.447 411.867 171.5 412 171.5C412.133 171.5 412.26 171.447 412.353 171.354L418.353 165.354C418.447 165.26 418.5 165.133 418.5 165C418.5 164.868 418.447 164.74 418.354 164.647Z" fill="white" fill-opacity="0.7"/>
<path d="M440.893 222.222C440.602 222.223 440.312 222.165 440.043 222.054C439.773 221.942 439.528 221.778 439.321 221.572C439.115 221.365 438.951 221.12 438.84 220.851C438.728 220.581 438.671 220.292 438.671 220C438.671 225.275 437.107 230.431 434.176 234.817C431.245 239.203 427.08 242.622 422.207 244.64C417.333 246.659 411.971 247.187 406.797 246.158C401.623 245.129 396.871 242.589 393.141 238.859C389.411 235.129 386.871 230.377 385.842 225.203C384.813 220.029 385.341 214.667 387.36 209.793C389.378 204.92 392.797 200.755 397.183 197.824C401.569 194.893 406.725 193.329 412 193.329C411.411 193.329 410.845 193.095 410.429 192.678C410.012 192.261 409.778 191.696 409.778 191.107C409.778 190.517 410.012 189.952 410.429 189.535C410.845 189.118 411.411 188.884 412 188.884C405.846 188.884 399.83 190.709 394.713 194.128C389.596 197.547 385.608 202.407 383.253 208.092C380.898 213.778 380.282 220.034 381.482 226.07C382.683 232.106 385.646 237.65 389.998 242.002C394.35 246.354 399.894 249.317 405.93 250.518C411.966 251.718 418.222 251.102 423.908 248.747C429.593 246.392 434.453 242.404 437.872 237.287C441.291 232.17 443.116 226.154 443.116 220C443.116 220.292 443.059 220.581 442.947 220.851C442.836 221.12 442.672 221.365 442.465 221.572C442.259 221.778 442.014 221.942 441.744 222.054C441.474 222.165 441.185 222.223 440.893 222.222Z" fill="white" fill-opacity="0.2"/>
<path d="M409.778 191.107C409.778 191.399 409.835 191.688 409.947 191.957C410.058 192.227 410.222 192.472 410.428 192.679C410.635 192.885 410.88 193.049 411.15 193.16C411.419 193.272 411.708 193.329 412 193.329C419.072 193.337 425.851 196.149 430.851 201.149C435.851 206.149 438.663 212.929 438.671 220C438.671 220.589 438.905 221.155 439.322 221.571C439.739 221.988 440.304 222.222 440.894 222.222C441.483 222.222 442.048 221.988 442.465 221.571C442.882 221.155 443.116 220.589 443.116 220C443.107 211.75 439.826 203.841 433.992 198.008C428.159 192.175 420.25 188.893 412 188.884C411.708 188.884 411.419 188.941 411.15 189.053C410.88 189.165 410.635 189.328 410.428 189.535C410.222 189.741 410.058 189.986 409.947 190.256C409.835 190.526 409.778 190.815 409.778 191.107Z" fill="#3492EB"/>
<path d="M440.893 217.787C440.601 217.787 440.312 217.845 440.042 217.956C439.773 218.068 439.528 218.232 439.321 218.438C439.115 218.644 438.951 218.889 438.839 219.159C438.728 219.429 438.67 219.718 438.671 220.01C438.663 227.081 435.85 233.86 430.85 238.86C425.85 243.861 419.071 246.673 412 246.681C411.41 246.681 410.845 246.915 410.428 247.332C410.011 247.748 409.777 248.314 409.777 248.903C409.777 249.493 410.011 250.058 410.428 250.475C410.845 250.892 411.41 251.126 412 251.126C420.249 251.117 428.159 247.835 433.992 242.002C439.825 236.169 443.106 228.26 443.116 220.01C443.116 219.718 443.059 219.429 442.947 219.159C442.835 218.889 442.672 218.644 442.465 218.438C442.259 218.232 442.014 218.068 441.744 217.956C441.474 217.845 441.185 217.787 440.893 217.787Z" fill="#3492EB"/>
<path d="M383.126 217.787C383.418 217.787 383.707 217.845 383.977 217.956C384.247 218.068 384.492 218.232 384.698 218.438C384.905 218.644 385.068 218.889 385.18 219.159C385.292 219.429 385.349 219.718 385.349 220.01C385.357 227.081 388.169 233.86 393.169 238.86C398.169 243.861 404.949 246.673 412.02 246.681C412.609 246.681 413.174 246.915 413.591 247.332C414.008 247.748 414.242 248.314 414.242 248.903C414.242 249.493 414.008 250.058 413.591 250.475C413.174 250.892 412.609 251.126 412.02 251.126C403.77 251.117 395.861 247.835 390.028 242.002C384.194 236.169 380.913 228.26 380.904 220.01C380.904 219.718 380.961 219.429 381.073 219.159C381.184 218.889 381.348 218.644 381.554 218.438C381.761 218.232 382.006 218.068 382.276 217.956C382.545 217.845 382.834 217.787 383.126 217.787Z" fill="#3492EB"/>
<path d="M418.354 268.647C418.26 268.553 418.133 268.5 418 268.5C417.868 268.5 417.74 268.553 417.647 268.647L412 274.293L406.353 268.647C406.259 268.555 406.133 268.504 406.002 268.505C405.87 268.506 405.745 268.559 405.652 268.652C405.559 268.745 405.506 268.87 405.505 269.002C405.504 269.133 405.555 269.259 405.646 269.354L411.646 275.354C411.74 275.447 411.867 275.5 412 275.5C412.133 275.5 412.26 275.447 412.353 275.354L418.353 269.354C418.447 269.26 418.5 269.133 418.5 269C418.5 268.868 418.447 268.74 418.354 268.647Z" fill="white" fill-opacity="0.7"/>
<path d="M440.893 326.222C440.602 326.223 440.312 326.165 440.043 326.054C439.773 325.942 439.528 325.778 439.321 325.572C439.115 325.365 438.951 325.12 438.84 324.851C438.728 324.581 438.671 324.292 438.671 324C438.671 329.275 437.107 334.431 434.176 338.817C431.245 343.203 427.08 346.622 422.207 348.64C417.333 350.659 411.971 351.187 406.797 350.158C401.623 349.129 396.871 346.589 393.141 342.859C389.411 339.129 386.871 334.377 385.842 329.203C384.813 324.029 385.341 318.667 387.36 313.793C389.378 308.92 392.797 304.755 397.183 301.824C401.569 298.893 406.725 297.329 412 297.329C411.411 297.329 410.845 297.095 410.429 296.678C410.012 296.261 409.778 295.696 409.778 295.107C409.778 294.517 410.012 293.952 410.429 293.535C410.845 293.118 411.411 292.884 412 292.884C405.846 292.884 399.83 294.709 394.713 298.128C389.596 301.547 385.608 306.407 383.253 312.092C380.898 317.778 380.282 324.034 381.482 330.07C382.683 336.106 385.646 341.65 389.998 346.002C394.35 350.354 399.894 353.317 405.93 354.518C411.966 355.718 418.222 355.102 423.908 352.747C429.593 350.392 434.453 346.404 437.872 341.287C441.291 336.17 443.116 330.154 443.116 324C443.116 324.292 443.059 324.581 442.947 324.851C442.836 325.12 442.672 325.365 442.465 325.572C442.259 325.778 442.014 325.942 441.744 326.054C441.474 326.165 441.185 326.223 440.893 326.222Z" fill="white" fill-opacity="0.2"/>
<path d="M409.778 295.107C409.778 295.399 409.835 295.688 409.947 295.957C410.058 296.227 410.222 296.472 410.428 296.679C410.635 296.885 410.88 297.049 411.15 297.16C411.419 297.272 411.708 297.329 412 297.329C419.072 297.337 425.851 300.149 430.851 305.149C435.851 310.149 438.663 316.929 438.671 324C438.671 324.589 438.905 325.155 439.322 325.571C439.739 325.988 440.304 326.222 440.894 326.222C441.483 326.222 442.048 325.988 442.465 325.571C442.882 325.155 443.116 324.589 443.116 324C443.107 315.75 439.826 307.841 433.992 302.008C428.159 296.175 420.25 292.893 412 292.884C411.708 292.884 411.419 292.941 411.15 293.053C410.88 293.165 410.635 293.328 410.428 293.535C410.222 293.741 410.058 293.986 409.947 294.256C409.835 294.526 409.778 294.815 409.778 295.107Z" fill="#3492EB"/>
</svg>
