<svg width="559" height="192" viewBox="0 0 559 192" fill="none" xmlns="http://www.w3.org/2000/svg">
<rect width="559" height="192" rx="16" fill="#262626"/>
<path d="M308.393 98.2224C308.102 98.2226 307.812 98.1652 307.543 98.0536C307.273 97.942 307.028 97.7783 306.821 97.5719C306.615 97.3654 306.451 97.1204 306.34 96.8506C306.228 96.5809 306.171 96.2918 306.171 95.9999C306.171 101.275 304.607 106.431 301.676 110.817C298.745 115.203 294.58 118.622 289.707 120.64C284.833 122.659 279.471 123.187 274.297 122.158C269.123 121.129 264.371 118.589 260.641 114.859C256.911 111.129 254.371 106.377 253.342 101.203C252.313 96.0295 252.841 90.6669 254.86 85.7934C256.878 80.92 260.297 76.7546 264.683 73.824C269.069 70.8934 274.225 69.3292 279.5 69.3292C278.911 69.3292 278.345 69.095 277.929 68.6782C277.512 68.2614 277.278 67.6961 277.278 67.1066C277.278 66.5171 277.512 65.9518 277.929 65.535C278.345 65.1182 278.911 64.884 279.5 64.884C273.346 64.884 267.33 66.7089 262.213 70.128C257.096 73.5471 253.108 78.4067 250.753 84.0924C248.398 89.778 247.782 96.0344 248.982 102.07C250.183 108.106 253.146 113.65 257.498 118.002C261.85 122.354 267.394 125.317 273.43 126.518C279.466 127.718 285.722 127.102 291.408 124.747C297.093 122.392 301.953 118.404 305.372 113.287C308.791 108.17 310.616 102.154 310.616 95.9999C310.616 96.2918 310.559 96.5809 310.447 96.8506C310.336 97.1204 310.172 97.3654 309.965 97.5719C309.759 97.7783 309.514 97.942 309.244 98.0536C308.974 98.1652 308.685 98.2226 308.393 98.2224Z" fill="white" fill-opacity="0.2"/>
<path d="M277.278 67.1066C277.277 67.3985 277.335 67.6876 277.446 67.9573C277.558 68.2271 277.722 68.4721 277.928 68.6786C278.135 68.885 278.38 69.0487 278.649 69.1603C278.919 69.272 279.208 69.3293 279.5 69.3292C286.571 69.3369 293.351 72.1493 298.351 77.1494C303.351 82.1494 306.163 88.9287 306.171 95.9999C306.171 96.5893 306.405 97.1547 306.822 97.5715C307.239 97.9883 307.804 98.2224 308.393 98.2224C308.983 98.2224 309.548 97.9883 309.965 97.5715C310.382 97.1547 310.616 96.5893 310.616 95.9999C310.607 87.7503 307.326 79.8412 301.492 74.0079C295.659 68.1745 287.75 64.8933 279.5 64.884C279.208 64.8839 278.919 64.9412 278.649 65.0529C278.38 65.1645 278.135 65.3282 277.928 65.5346C277.722 65.741 277.558 65.9861 277.446 66.2559C277.335 66.5256 277.277 66.8147 277.278 67.1066Z" fill="#3492EB"/>
<path d="M308.393 93.7874C308.101 93.7872 307.812 93.8446 307.543 93.9562C307.273 94.0678 307.028 94.2315 306.821 94.4379C306.615 94.6444 306.451 94.8894 306.34 95.1592C306.228 95.4289 306.171 95.718 306.171 96.0099C306.163 103.081 303.351 109.86 298.351 114.86C293.35 119.861 286.571 122.673 279.5 122.681C278.911 122.681 278.345 122.915 277.928 123.332C277.512 123.748 277.277 124.314 277.277 124.903C277.277 125.493 277.512 126.058 277.928 126.475C278.345 126.892 278.911 127.126 279.5 127.126C287.75 127.117 295.659 123.835 301.492 118.002C307.325 112.169 310.607 104.26 310.616 96.0099C310.616 95.718 310.559 95.4289 310.447 95.1592C310.335 94.8894 310.172 94.6444 309.965 94.4379C309.759 94.2315 309.514 94.0678 309.244 93.9562C308.974 93.8446 308.685 93.7872 308.393 93.7874Z" fill="#3492EB"/>
<path d="M250.626 93.7874C250.918 93.7872 251.207 93.8446 251.477 93.9562C251.747 94.0678 251.992 94.2315 252.198 94.4379C252.405 94.6444 252.569 94.8894 252.68 95.1592C252.792 95.4289 252.849 95.718 252.849 96.0099C252.857 103.081 255.669 109.86 260.669 114.86C265.669 119.861 272.449 122.673 279.52 122.681C280.109 122.681 280.675 122.915 281.091 123.332C281.508 123.748 281.742 124.314 281.742 124.903C281.742 125.493 281.508 126.058 281.091 126.475C280.675 126.892 280.109 127.126 279.52 127.126C271.27 127.117 263.361 123.835 257.528 118.002C251.694 112.169 248.413 104.26 248.404 96.0099C248.404 95.718 248.461 95.4289 248.573 95.1592C248.684 94.8894 248.848 94.6444 249.055 94.4379C249.261 94.2315 249.506 94.0678 249.776 93.9562C250.045 93.8446 250.335 93.7872 250.626 93.7874Z" fill="#3492EB"/>
</svg>
