<svg width="559" height="242" viewBox="0 0 559 242" fill="none" xmlns="http://www.w3.org/2000/svg">
<rect width="559" height="242" rx="16" fill="#262626"/>
<path d="M317.393 114.222C317.102 114.223 316.812 114.165 316.543 114.054C316.273 113.942 316.028 113.778 315.821 113.572C315.615 113.365 315.451 113.12 315.34 112.851C315.228 112.581 315.171 112.292 315.171 112C315.171 117.275 313.607 122.431 310.676 126.817C307.745 131.203 303.58 134.622 298.707 136.64C293.833 138.659 288.471 139.187 283.297 138.158C278.123 137.129 273.371 134.589 269.641 130.859C265.911 127.129 263.371 122.377 262.342 117.203C261.313 112.029 261.841 106.667 263.86 101.793C265.878 96.92 269.297 92.7546 273.683 89.824C278.069 86.8934 283.225 85.3292 288.5 85.3292C287.911 85.3292 287.345 85.095 286.929 84.6782C286.512 84.2614 286.278 83.6961 286.278 83.1066C286.278 82.5171 286.512 81.9518 286.929 81.535C287.345 81.1182 287.911 80.884 288.5 80.884C282.346 80.884 276.33 82.7089 271.213 86.128C266.096 89.5471 262.108 94.4067 259.753 100.092C257.398 105.778 256.782 112.034 257.982 118.07C259.183 124.106 262.146 129.65 266.498 134.002C270.85 138.354 276.394 141.317 282.43 142.518C288.466 143.718 294.722 143.102 300.408 140.747C306.093 138.392 310.953 134.404 314.372 129.287C317.791 124.17 319.616 118.154 319.616 112C319.616 112.292 319.559 112.581 319.447 112.851C319.336 113.12 319.172 113.365 318.965 113.572C318.759 113.778 318.514 113.942 318.244 114.054C317.974 114.165 317.685 114.223 317.393 114.222Z" fill="white" fill-opacity="0.2"/>
<path d="M286.278 83.1066C286.277 83.3985 286.335 83.6876 286.446 83.9573C286.558 84.2271 286.722 84.4721 286.928 84.6786C287.135 84.885 287.38 85.0487 287.649 85.1603C287.919 85.272 288.208 85.3293 288.5 85.3292C295.571 85.3369 302.351 88.1493 307.351 93.1494C312.351 98.1494 315.163 104.929 315.171 112C315.171 112.589 315.405 113.155 315.822 113.571C316.239 113.988 316.804 114.222 317.393 114.222C317.983 114.222 318.548 113.988 318.965 113.571C319.382 113.155 319.616 112.589 319.616 112C319.607 103.75 316.326 95.8412 310.492 90.0079C304.659 84.1745 296.75 80.8933 288.5 80.884C288.208 80.8839 287.919 80.9412 287.649 81.0529C287.38 81.1645 287.135 81.3282 286.928 81.5346C286.722 81.741 286.558 81.9861 286.446 82.2559C286.335 82.5256 286.277 82.8147 286.278 83.1066Z" fill="#3492EB"/>
<path d="M317.393 109.787C317.101 109.787 316.812 109.845 316.543 109.956C316.273 110.068 316.028 110.232 315.821 110.438C315.615 110.644 315.451 110.889 315.34 111.159C315.228 111.429 315.171 111.718 315.171 112.01C315.163 119.081 312.351 125.86 307.351 130.86C302.351 135.861 295.571 138.673 288.5 138.681C287.911 138.681 287.345 138.915 286.929 139.332C286.512 139.748 286.278 140.314 286.278 140.903C286.278 141.493 286.512 142.058 286.929 142.475C287.345 142.892 287.911 143.126 288.5 143.126C296.75 143.117 304.659 139.835 310.492 134.002C316.325 128.169 319.607 120.26 319.616 112.01C319.616 111.718 319.559 111.429 319.447 111.159C319.335 110.889 319.172 110.644 318.965 110.438C318.759 110.232 318.514 110.068 318.244 109.956C317.974 109.845 317.685 109.787 317.393 109.787Z" fill="#3492EB"/>
<path d="M259.626 109.787C259.918 109.787 260.207 109.845 260.477 109.956C260.747 110.068 260.992 110.232 261.198 110.438C261.405 110.644 261.568 110.889 261.68 111.159C261.792 111.429 261.849 111.718 261.849 112.01C261.857 119.081 264.669 125.86 269.669 130.86C274.669 135.861 281.449 138.673 288.52 138.681C289.109 138.681 289.674 138.915 290.091 139.332C290.508 139.748 290.742 140.314 290.742 140.903C290.742 141.493 290.508 142.058 290.091 142.475C289.674 142.892 289.109 143.126 288.52 143.126C280.27 143.117 272.361 139.835 266.528 134.002C260.694 128.169 257.413 120.26 257.404 112.01C257.404 111.718 257.461 111.429 257.573 111.159C257.684 110.889 257.848 110.644 258.054 110.438C258.261 110.232 258.506 110.068 258.776 109.956C259.045 109.845 259.334 109.787 259.626 109.787Z" fill="#3492EB"/>
<g clip-path="url(#clip0_489_5488)">
<line x1="323" y1="167.478" x2="323" y2="152.478" stroke="#30C9B0"/>
<line x1="322.5" y1="159.978" x2="338.5" y2="159.978" stroke="#30C9B0"/>
<line x1="338" y1="167.478" x2="338" y2="152.478" stroke="#30C9B0"/>
</g>
<path d="M328.052 183H326.64V176.203L324.455 177.006V175.77L327.964 174.469H328.052V183ZM335.532 174.428V175.617H335.438C334.973 175.617 334.569 175.682 334.225 175.811C333.885 175.936 333.598 176.111 333.364 176.338C333.126 176.564 332.94 176.836 332.807 177.152C332.678 177.469 332.598 177.809 332.567 178.172C332.661 178.066 332.77 177.965 332.895 177.867C333.02 177.766 333.159 177.676 333.311 177.598C333.456 177.523 333.616 177.465 333.792 177.422C333.967 177.375 334.153 177.352 334.348 177.352C334.762 177.352 335.122 177.43 335.426 177.586C335.735 177.742 335.989 177.953 336.188 178.219C336.391 178.484 336.54 178.789 336.633 179.133C336.731 179.477 336.78 179.834 336.78 180.205C336.78 180.611 336.717 180.992 336.592 181.348C336.471 181.699 336.294 182.006 336.059 182.268C335.821 182.533 335.53 182.742 335.186 182.895C334.846 183.043 334.458 183.117 334.02 183.117C333.571 183.117 333.17 183.031 332.819 182.859C332.467 182.688 332.17 182.455 331.928 182.162C331.67 181.857 331.475 181.5 331.342 181.09C331.21 180.676 331.143 180.24 331.143 179.783V179.203C331.143 178.516 331.231 177.861 331.407 177.24C331.586 176.615 331.883 176.078 332.297 175.629C332.649 175.242 333.083 174.945 333.598 174.738C334.114 174.531 334.704 174.428 335.368 174.428H335.532ZM334.003 178.488C333.835 178.488 333.674 178.514 333.522 178.564C333.37 178.615 333.229 178.686 333.1 178.775C332.983 178.865 332.878 178.969 332.784 179.086C332.69 179.203 332.612 179.334 332.549 179.479V179.912C332.549 180.252 332.586 180.551 332.661 180.809C332.739 181.066 332.844 181.281 332.977 181.453C333.11 181.625 333.264 181.756 333.44 181.846C333.616 181.936 333.803 181.98 334.003 181.98C334.221 181.98 334.417 181.938 334.588 181.852C334.76 181.762 334.907 181.641 335.028 181.488C335.149 181.332 335.241 181.148 335.303 180.938C335.366 180.723 335.397 180.49 335.397 180.24C335.397 180.002 335.366 179.777 335.303 179.566C335.245 179.352 335.157 179.164 335.04 179.004C334.922 178.844 334.776 178.719 334.6 178.629C334.428 178.535 334.229 178.488 334.003 178.488Z" fill="#30C9B0"/>
<rect opacity="0.5" x="322.5" y="76" width="16" height="70" fill="#30C9B0"/>
<rect opacity="0.5" x="252.5" y="60" width="70" height="16" fill="#30C9B0"/>
<g clip-path="url(#clip1_489_5488)">
<line x1="233.5" y1="60.5" x2="248.5" y2="60.5" stroke="#30C9B0"/>
<line x1="241" y1="78" x2="241" y2="62" stroke="#30C9B0"/>
<line x1="233.5" y1="75.5" x2="248.5" y2="75.5" stroke="#30C9B0"/>
</g>
<path d="M217.982 73V63.0469H217.88L213.785 64.5645V66.0068L216.335 65.0703V73H217.982ZM226.709 62.999H226.517C225.742 62.999 225.054 63.1198 224.453 63.3613C223.851 63.6029 223.345 63.9492 222.935 64.4004C222.452 64.9245 222.106 65.5511 221.896 66.2803C221.691 67.0049 221.589 67.7682 221.589 68.5703V69.2471C221.589 69.7803 221.666 70.2884 221.821 70.7715C221.976 71.25 222.204 71.667 222.505 72.0225C222.787 72.3643 223.133 72.6354 223.544 72.8359C223.954 73.0365 224.421 73.1367 224.945 73.1367C225.455 73.1367 225.909 73.0501 226.305 72.877C226.706 72.6992 227.046 72.4554 227.324 72.1455C227.597 71.8402 227.805 71.4824 227.946 71.0723C228.092 70.6576 228.165 70.2132 228.165 69.7393C228.165 69.3063 228.108 68.8893 227.994 68.4883C227.884 68.0872 227.711 67.7318 227.474 67.4219C227.242 67.112 226.946 66.8659 226.586 66.6836C226.23 66.5013 225.811 66.4102 225.328 66.4102C225.1 66.4102 224.883 66.4375 224.678 66.4922C224.473 66.5423 224.286 66.6107 224.118 66.6973C223.94 66.7884 223.778 66.8932 223.632 67.0117C223.487 67.1257 223.359 67.2441 223.25 67.3672C223.286 66.9434 223.38 66.5469 223.53 66.1777C223.685 65.8086 223.901 65.4919 224.179 65.2275C224.453 64.9632 224.788 64.7581 225.184 64.6123C225.585 64.4619 226.057 64.3867 226.599 64.3867H226.709V62.999ZM224.924 67.7363C225.189 67.7363 225.421 67.791 225.622 67.9004C225.827 68.0052 225.998 68.151 226.134 68.3379C226.271 68.5247 226.374 68.7435 226.442 68.9941C226.515 69.2402 226.551 69.5023 226.551 69.7803C226.551 70.0719 226.515 70.3431 226.442 70.5938C226.369 70.8398 226.262 71.054 226.121 71.2363C225.979 71.4141 225.809 71.5553 225.608 71.6602C225.408 71.7604 225.18 71.8105 224.924 71.8105C224.692 71.8105 224.473 71.7581 224.268 71.6533C224.063 71.5485 223.883 71.3958 223.728 71.1953C223.573 70.9948 223.45 70.7441 223.359 70.4434C223.272 70.1426 223.229 69.7939 223.229 69.3975V68.8916C223.302 68.723 223.393 68.5703 223.503 68.4336C223.612 68.2969 223.735 68.1761 223.872 68.0713C224.022 67.9665 224.186 67.8844 224.364 67.8252C224.542 67.766 224.728 67.7363 224.924 67.7363Z" fill="#30C9B0"/>
<defs>
<clipPath id="clip0_489_5488">
<rect width="16" height="15" fill="white" transform="translate(322.5 152.478)"/>
</clipPath>
<clipPath id="clip1_489_5488">
<rect width="15" height="16" fill="white" transform="translate(233.5 60)"/>
</clipPath>
</defs>
</svg>
