<svg width="559" height="213" viewBox="0 0 559 213" fill="none" xmlns="http://www.w3.org/2000/svg">
<rect width="559" height="212.344" rx="16" fill="#262626"/>
<path d="M309.667 95.3611C309.489 95.3612 309.311 95.3261 309.146 95.2577C308.981 95.1894 308.831 95.0891 308.705 94.9627C308.578 94.8362 308.478 94.6861 308.409 94.5209C308.341 94.3557 308.306 94.1787 308.306 93.9999C308.306 97.2306 307.348 100.389 305.553 103.075C303.758 105.761 301.207 107.855 298.222 109.091C295.237 110.328 291.953 110.651 288.784 110.021C285.616 109.391 282.705 107.835 280.42 105.55C278.136 103.266 276.58 100.355 275.95 97.1867C275.32 94.018 275.643 90.7336 276.88 87.7487C278.116 84.7639 280.21 82.2127 282.896 80.4178C285.582 78.6229 288.74 77.6649 291.971 77.6649C291.61 77.6649 291.264 77.5215 291.009 77.2662C290.753 77.0109 290.61 76.6647 290.61 76.3036C290.61 75.9426 290.753 75.5964 291.009 75.3411C291.264 75.0858 291.61 74.9424 291.971 74.9424C288.202 74.9424 284.517 76.0601 281.383 78.1542C278.249 80.2482 275.807 83.2246 274.364 86.7069C272.922 90.1892 272.544 94.021 273.28 97.7178C274.015 101.415 275.83 104.81 278.495 107.476C281.161 110.141 284.556 111.956 288.253 112.691C291.95 113.427 295.782 113.049 299.264 111.607C302.746 110.164 305.723 107.722 307.817 104.588C309.911 101.454 311.029 97.7691 311.029 93.9999C311.029 94.1787 310.994 94.3557 310.925 94.5209C310.857 94.6861 310.757 94.8362 310.63 94.9627C310.504 95.0891 310.354 95.1894 310.188 95.2577C310.023 95.3261 309.846 95.3612 309.667 95.3611Z" fill="white" fill-opacity="0.2"/>
<path d="M290.61 76.3036C290.61 76.4824 290.645 76.6595 290.713 76.8247C290.782 76.9899 290.882 77.14 291.008 77.2664C291.135 77.3928 291.285 77.4931 291.45 77.5615C291.615 77.6298 291.792 77.665 291.971 77.6649C296.302 77.6696 300.454 79.3921 303.516 82.4545C306.579 85.5169 308.301 89.669 308.306 93.9999C308.306 94.3609 308.45 94.7071 308.705 94.9624C308.96 95.2177 309.306 95.3611 309.667 95.3611C310.028 95.3611 310.375 95.2177 310.63 94.9624C310.885 94.7071 311.029 94.3609 311.029 93.9999C311.023 88.9473 309.013 84.1032 305.441 80.5305C301.868 76.9577 297.024 74.9481 291.971 74.9424C291.792 74.9423 291.615 74.9774 291.45 75.0458C291.285 75.1142 291.135 75.2144 291.008 75.3409C290.882 75.4673 290.782 75.6174 290.713 75.7826C290.645 75.9478 290.61 76.1248 290.61 76.3036Z" fill="#3492EB"/>
<path d="M309.667 92.6448C309.488 92.6447 309.311 92.6798 309.146 92.7482C308.981 92.8166 308.831 92.9168 308.704 93.0432C308.578 93.1697 308.478 93.3198 308.409 93.485C308.341 93.6502 308.306 93.8272 308.306 94.006C308.301 98.3369 306.579 102.489 303.516 105.551C300.454 108.614 296.302 110.336 291.971 110.341C291.61 110.341 291.264 110.484 291.008 110.74C290.753 110.995 290.61 111.341 290.61 111.702C290.61 112.063 290.753 112.41 291.008 112.665C291.264 112.92 291.61 113.064 291.971 113.064C297.023 113.058 301.867 111.048 305.44 107.475C309.013 103.903 311.023 99.0586 311.028 94.006C311.028 93.8272 310.993 93.6502 310.925 93.485C310.857 93.3198 310.756 93.1697 310.63 93.0432C310.503 92.9168 310.353 92.8166 310.188 92.7482C310.023 92.6798 309.846 92.6447 309.667 92.6448Z" fill="#3492EB"/>
<path d="M274.287 92.6448C274.466 92.6447 274.643 92.6798 274.808 92.7482C274.973 92.8166 275.123 92.9168 275.25 93.0432C275.376 93.1697 275.476 93.3198 275.545 93.485C275.613 93.6502 275.648 93.8272 275.648 94.006C275.653 98.3369 277.375 102.489 280.438 105.551C283.5 108.614 287.652 110.336 291.983 110.341C292.344 110.341 292.69 110.484 292.946 110.74C293.201 110.995 293.344 111.341 293.344 111.702C293.344 112.063 293.201 112.41 292.946 112.665C292.69 112.92 292.344 113.064 291.983 113.064C286.93 113.058 282.086 111.048 278.514 107.475C274.941 103.903 272.931 99.0586 272.926 94.006C272.925 93.8272 272.961 93.6502 273.029 93.485C273.097 93.3198 273.198 93.1697 273.324 93.0432C273.45 92.9168 273.601 92.8166 273.766 92.7482C273.931 92.6798 274.108 92.6447 274.287 92.6448Z" fill="#3492EB"/>
<g clip-path="url(#clip0_489_5466)">
<line x1="314.911" y1="137.368" x2="314.911" y2="122.368" stroke="#30C9B0"/>
<line x1="314.411" y1="129.868" x2="326.411" y2="129.868" stroke="#30C9B0"/>
<line x1="325.911" y1="137.368" x2="325.911" y2="122.368" stroke="#30C9B0"/>
</g>
<path d="M317.928 152.891V144.36H317.841L314.331 145.66V146.897L316.516 146.094V152.891H317.928ZM326.656 152.891V151.76H322.683L324.582 149.733C324.832 149.467 325.062 149.209 325.273 148.959C325.488 148.709 325.674 148.461 325.83 148.215C325.982 147.969 326.101 147.721 326.187 147.471C326.277 147.217 326.322 146.955 326.322 146.686C326.322 146.326 326.263 145.998 326.146 145.701C326.029 145.401 325.859 145.143 325.637 144.928C325.41 144.713 325.131 144.545 324.799 144.424C324.471 144.303 324.097 144.242 323.68 144.242C323.234 144.242 322.83 144.315 322.467 144.459C322.107 144.604 321.803 144.799 321.553 145.045C321.299 145.291 321.103 145.58 320.967 145.912C320.83 146.24 320.762 146.59 320.762 146.961H322.168C322.168 146.715 322.199 146.496 322.262 146.305C322.324 146.11 322.418 145.944 322.543 145.807C322.664 145.678 322.816 145.578 323 145.508C323.183 145.438 323.4 145.403 323.65 145.403C323.846 145.403 324.021 145.436 324.178 145.502C324.338 145.569 324.474 145.66 324.588 145.778C324.701 145.895 324.787 146.035 324.846 146.199C324.904 146.364 324.933 146.545 324.933 146.744C324.933 146.893 324.912 147.041 324.869 147.19C324.83 147.334 324.763 147.49 324.67 147.658C324.572 147.826 324.445 148.012 324.289 148.215C324.133 148.414 323.939 148.641 323.709 148.895L320.931 151.918V152.891H326.656Z" fill="#30C9B0"/>
<rect opacity="0.5" x="314.411" y="72.3438" width="12" height="44" fill="#30C9B0"/>
<rect opacity="0.5" x="270.411" y="60" width="44" height="12" fill="#30C9B0"/>
<g clip-path="url(#clip1_489_5466)">
<line x1="253.817" y1="60.5" x2="268.817" y2="60.5" stroke="#30C9B0"/>
<line x1="261.317" y1="73.5" x2="261.317" y2="61.5" stroke="#30C9B0"/>
<line x1="253.817" y1="71.5" x2="268.817" y2="71.5" stroke="#30C9B0"/>
</g>
<path d="M238.3 71H236.652V63.0703L234.103 64.0068V62.5645L238.197 61.0469H238.3V71ZM248.482 71H241.803V69.8652L245.044 66.3379C245.312 66.0417 245.538 65.7773 245.72 65.5449C245.903 65.3079 246.051 65.0915 246.165 64.8955C246.274 64.6995 246.352 64.5173 246.397 64.3486C246.447 64.1755 246.472 64.0023 246.472 63.8291C246.472 63.5967 246.438 63.3848 246.37 63.1934C246.301 63.002 246.201 62.8379 246.069 62.7012C245.937 62.5645 245.777 62.4574 245.59 62.3799C245.408 62.3024 245.203 62.2637 244.975 62.2637C244.684 62.2637 244.431 62.3047 244.216 62.3867C244.002 62.4688 243.825 62.585 243.683 62.7354C243.537 62.8949 243.428 63.0885 243.355 63.3164C243.282 63.5397 243.246 63.7949 243.246 64.082H241.605C241.605 63.6491 241.685 63.2412 241.844 62.8584C242.004 62.471 242.232 62.1338 242.528 61.8467C242.82 61.5596 243.175 61.3317 243.594 61.1631C244.018 60.9945 244.49 60.9102 245.009 60.9102C245.497 60.9102 245.932 60.9808 246.315 61.1221C246.702 61.2633 247.028 61.4593 247.293 61.71C247.552 61.9606 247.751 62.2614 247.887 62.6123C248.024 62.9587 248.092 63.3415 248.092 63.7607C248.092 64.0752 248.04 64.3805 247.935 64.6768C247.835 64.9684 247.696 65.2578 247.518 65.5449C247.336 65.832 247.119 66.1214 246.869 66.4131C246.623 66.7048 246.354 67.0055 246.062 67.3154L243.847 69.6807H248.482V71Z" fill="#30C9B0"/>
<defs>
<clipPath id="clip0_489_5466">
<rect width="12" height="15" fill="white" transform="translate(314.411 122.368)"/>
</clipPath>
<clipPath id="clip1_489_5466">
<rect width="15" height="12" fill="white" transform="translate(253.817 60)"/>
</clipPath>
</defs>
</svg>
