<svg width="1150" height="232" viewBox="0 0 1150 232" fill="none" xmlns="http://www.w3.org/2000/svg">
<rect width="1150" height="232" rx="16" fill="#262626"/>
<path d="M474 117C473.869 117 473.739 116.974 473.617 116.924C473.496 116.874 473.386 116.8 473.293 116.707C473.2 116.614 473.126 116.504 473.076 116.383C473.026 116.261 473 116.131 473 116C473 118.373 472.296 120.693 470.978 122.667C469.659 124.64 467.785 126.178 465.592 127.087C463.399 127.995 460.987 128.232 458.659 127.769C456.331 127.306 454.193 126.164 452.515 124.485C450.836 122.807 449.694 120.669 449.231 118.341C448.768 116.013 449.005 113.601 449.913 111.408C450.822 109.215 452.36 107.341 454.333 106.022C456.307 104.704 458.627 104 461 104C460.735 104 460.48 103.895 460.293 103.707C460.105 103.52 460 103.265 460 103C460 102.735 460.105 102.48 460.293 102.293C460.48 102.105 460.735 102 461 102C458.231 102 455.524 102.821 453.222 104.359C450.92 105.898 449.125 108.084 448.066 110.642C447.006 113.201 446.729 116.016 447.269 118.731C447.809 121.447 449.143 123.942 451.101 125.899C453.058 127.857 455.553 129.191 458.269 129.731C460.984 130.271 463.799 129.994 466.358 128.934C468.916 127.875 471.102 126.08 472.641 123.778C474.179 121.476 475 118.769 475 116C475 116.131 474.974 116.261 474.924 116.383C474.874 116.504 474.8 116.614 474.707 116.707C474.614 116.8 474.504 116.874 474.383 116.924C474.261 116.974 474.131 117 474 117Z" fill="white" fill-opacity="0.2"/>
<path d="M460 103C460 103.131 460.026 103.261 460.076 103.383C460.126 103.504 460.2 103.614 460.293 103.707C460.386 103.8 460.496 103.874 460.617 103.924C460.739 103.974 460.869 104 461 104C464.182 104.003 467.232 105.269 469.481 107.519C471.731 109.768 472.997 112.818 473 116C473 116.265 473.105 116.52 473.293 116.707C473.48 116.895 473.735 117 474 117C474.265 117 474.52 116.895 474.707 116.707C474.895 116.52 475 116.265 475 116C474.996 112.288 473.519 108.73 470.895 106.105C468.27 103.48 464.712 102.004 461 102C460.869 102 460.739 102.026 460.617 102.076C460.496 102.126 460.386 102.2 460.293 102.293C460.2 102.386 460.126 102.496 460.076 102.617C460.026 102.739 460 102.869 460 103Z" fill="#3492EB"/>
<path d="M550 117C549.869 117 549.739 116.974 549.617 116.924C549.496 116.874 549.386 116.8 549.293 116.707C549.2 116.614 549.126 116.504 549.076 116.383C549.026 116.261 549 116.131 549 116C549 118.373 548.296 120.693 546.978 122.667C545.659 124.64 543.785 126.178 541.592 127.087C539.399 127.995 536.987 128.232 534.659 127.769C532.331 127.306 530.193 126.164 528.515 124.485C526.836 122.807 525.694 120.669 525.231 118.341C524.768 116.013 525.005 113.601 525.913 111.408C526.822 109.215 528.36 107.341 530.333 106.022C532.307 104.704 534.627 104 537 104C536.735 104 536.48 103.895 536.293 103.707C536.105 103.52 536 103.265 536 103C536 102.735 536.105 102.48 536.293 102.293C536.48 102.105 536.735 102 537 102C534.231 102 531.524 102.821 529.222 104.359C526.92 105.898 525.125 108.084 524.066 110.642C523.006 113.201 522.729 116.016 523.269 118.731C523.809 121.447 525.143 123.942 527.101 125.899C529.058 127.857 531.553 129.191 534.269 129.731C536.984 130.271 539.799 129.994 542.358 128.934C544.916 127.875 547.102 126.08 548.641 123.778C550.179 121.476 551 118.769 551 116C551 116.131 550.974 116.261 550.924 116.383C550.874 116.504 550.8 116.614 550.707 116.707C550.614 116.8 550.504 116.874 550.383 116.924C550.261 116.974 550.131 117 550 117Z" fill="white" fill-opacity="0.2"/>
<path d="M536 103C536 103.131 536.026 103.261 536.076 103.383C536.126 103.504 536.2 103.614 536.293 103.707C536.386 103.8 536.496 103.874 536.617 103.924C536.739 103.974 536.869 104 537 104C540.182 104.003 543.232 105.269 545.481 107.519C547.731 109.768 548.997 112.818 549 116C549 116.265 549.105 116.52 549.293 116.707C549.48 116.895 549.735 117 550 117C550.265 117 550.52 116.895 550.707 116.707C550.895 116.52 551 116.265 551 116C550.996 112.288 549.519 108.73 546.895 106.105C544.27 103.48 540.712 102.004 537 102C536.869 102 536.739 102.026 536.617 102.076C536.496 102.126 536.386 102.2 536.293 102.293C536.2 102.386 536.126 102.496 536.076 102.617C536.026 102.739 536 102.869 536 103Z" fill="#3492EB"/>
<path d="M550 115.004C549.869 115.004 549.739 115.03 549.617 115.08C549.496 115.131 549.386 115.204 549.293 115.297C549.2 115.39 549.126 115.5 549.076 115.622C549.026 115.743 549 115.873 549 116.004C548.997 119.186 547.731 122.236 545.481 124.486C543.232 126.736 540.182 128.001 537 128.004C536.735 128.004 536.48 128.11 536.293 128.297C536.105 128.485 536 128.739 536 129.004C536 129.27 536.105 129.524 536.293 129.711C536.48 129.899 536.735 130.004 537 130.004C540.712 130 544.27 128.524 546.895 125.899C549.52 123.275 550.996 119.716 551 116.004C551 115.873 550.974 115.743 550.924 115.622C550.874 115.5 550.8 115.39 550.707 115.297C550.614 115.204 550.504 115.131 550.383 115.08C550.261 115.03 550.131 115.004 550 115.004Z" fill="#3492EB"/>
<path d="M524.009 115.004C524.14 115.004 524.27 115.03 524.392 115.08C524.513 115.131 524.623 115.204 524.716 115.297C524.809 115.39 524.883 115.5 524.933 115.622C524.983 115.743 525.009 115.873 525.009 116.004C525.012 119.186 526.278 122.236 528.527 124.486C530.777 126.736 533.827 128.001 537.009 128.004C537.274 128.004 537.528 128.11 537.716 128.297C537.903 128.485 538.009 128.739 538.009 129.004C538.009 129.27 537.903 129.524 537.716 129.711C537.528 129.899 537.274 130.004 537.009 130.004C533.297 130 529.739 128.524 527.114 125.899C524.489 123.275 523.013 119.716 523.009 116.004C523.009 115.873 523.035 115.743 523.085 115.622C523.135 115.5 523.209 115.39 523.302 115.297C523.394 115.204 523.505 115.131 523.626 115.08C523.747 115.03 523.877 115.004 524.009 115.004Z" fill="#3492EB"/>
<path d="M613 102C610.231 102 607.524 102.821 605.222 104.359C602.919 105.898 601.125 108.084 600.065 110.642C599.006 113.2 598.729 116.015 599.269 118.731C599.809 121.447 601.142 123.941 603.1 125.899C605.058 127.857 607.553 129.191 610.268 129.731C612.984 130.271 615.799 129.994 618.357 128.934C620.915 127.874 623.102 126.08 624.64 123.778C626.179 121.475 627 118.769 627 116C626.996 112.288 625.519 108.729 622.895 106.105C620.27 103.48 616.712 102.004 613 102ZM613 128C610.626 128 608.306 127.296 606.333 125.977C604.36 124.659 602.821 122.785 601.913 120.592C601.005 118.399 600.767 115.986 601.23 113.659C601.693 111.331 602.836 109.193 604.514 107.514C606.193 105.836 608.331 104.693 610.659 104.23C612.986 103.767 615.399 104.005 617.592 104.913C619.785 105.821 621.659 107.36 622.977 109.333C624.296 111.306 625 113.626 625 116C624.996 119.181 623.731 122.232 621.481 124.481C619.232 126.731 616.181 127.996 613 128Z" fill="#27A17A"/>
<path d="M617.349 112.241L611.053 117.636L608.709 115.28C608.616 115.187 608.506 115.113 608.385 115.062C608.264 115.012 608.134 114.986 608.003 114.985C607.871 114.985 607.741 115.01 607.62 115.06C607.498 115.11 607.388 115.184 607.295 115.276C607.202 115.369 607.128 115.479 607.077 115.6C607.026 115.721 607 115.851 607 115.982C606.999 116.114 607.025 116.244 607.075 116.365C607.125 116.487 607.198 116.597 607.291 116.69L610.291 119.705C610.469 119.884 610.708 119.989 610.96 119.999C611.212 120.009 611.459 119.923 611.65 119.759L618.65 113.759C618.75 113.673 618.832 113.569 618.891 113.452C618.95 113.335 618.986 113.207 618.996 113.076C619.006 112.946 618.99 112.814 618.95 112.689C618.909 112.565 618.844 112.449 618.759 112.349C618.673 112.25 618.569 112.168 618.452 112.109C618.335 112.049 618.207 112.013 618.076 112.003C617.946 111.993 617.814 112.009 617.689 112.05C617.564 112.091 617.449 112.156 617.349 112.241Z" fill="#27A17A"/>
<path d="M688.5 102C685.731 102 683.025 102.821 680.722 104.359C678.42 105.898 676.626 108.084 675.566 110.642C674.506 113.201 674.229 116.016 674.769 118.731C675.309 121.447 676.643 123.942 678.601 125.899C680.559 127.857 683.053 129.191 685.769 129.731C688.485 130.271 691.3 129.994 693.858 128.934C696.416 127.875 698.602 126.08 700.141 123.778C701.679 121.476 702.5 118.769 702.5 116C702.496 112.288 701.02 108.73 698.395 106.105C695.771 103.48 692.212 102.004 688.5 102ZM688.5 128C686.127 128 683.807 127.296 681.833 125.978C679.86 124.659 678.322 122.785 677.414 120.592C676.505 118.399 676.268 115.987 676.731 113.659C677.194 111.331 678.337 109.193 680.015 107.515C681.693 105.836 683.831 104.694 686.159 104.231C688.487 103.768 690.9 104.005 693.092 104.913C695.285 105.822 697.159 107.36 698.478 109.333C699.796 111.307 700.5 113.627 700.5 116C700.497 119.182 699.231 122.232 696.982 124.481C694.732 126.731 691.682 127.997 688.5 128Z" fill="#F55868"/>
<path d="M688.5 123C689.19 123 689.75 122.44 689.75 121.75C689.75 121.06 689.19 120.5 688.5 120.5C687.81 120.5 687.25 121.06 687.25 121.75C687.25 122.44 687.81 123 688.5 123Z" fill="#F55868"/>
<path d="M688.5 119C688.632 119 688.762 118.974 688.883 118.924C689.004 118.874 689.115 118.8 689.208 118.707C689.3 118.614 689.374 118.504 689.424 118.383C689.475 118.261 689.5 118.131 689.5 118V111C689.5 110.735 689.395 110.48 689.207 110.293C689.02 110.105 688.765 110 688.5 110C688.235 110 687.981 110.105 687.793 110.293C687.606 110.48 687.5 110.735 687.5 111V118C687.5 118.131 687.526 118.261 687.576 118.383C687.626 118.504 687.7 118.614 687.793 118.707C687.886 118.8 687.996 118.874 688.117 118.924C688.239 118.974 688.369 119 688.5 119Z" fill="#F55868"/>
</svg>
