<svg width="559" height="306" viewBox="0 0 559 306" fill="none" xmlns="http://www.w3.org/2000/svg">
<rect width="559" height="306" rx="16" fill="#262626"/>
<path d="M294.125 83.125C293.977 83.1251 293.831 83.096 293.694 83.0395C293.558 82.983 293.434 82.9002 293.329 82.7957C293.225 82.6912 293.142 82.5672 293.085 82.4306C293.029 82.2941 293 82.1478 293 82C293 84.67 292.208 87.2801 290.725 89.5002C289.241 91.7203 287.133 93.4506 284.666 94.4724C282.199 95.4942 279.485 95.7615 276.866 95.2406C274.248 94.7197 271.842 93.434 269.954 91.5459C268.066 89.6579 266.78 87.2525 266.259 84.6337C265.739 82.015 266.006 79.3006 267.028 76.8338C268.049 74.367 269.78 72.2586 272 70.7752C274.22 69.2918 276.83 68.5 279.5 68.5C279.202 68.5 278.915 68.3815 278.705 68.1705C278.494 67.9595 278.375 67.6734 278.375 67.375C278.375 67.0766 278.494 66.7905 278.705 66.5795C278.915 66.3685 279.202 66.25 279.5 66.25C276.385 66.25 273.34 67.1737 270.75 68.9044C268.16 70.635 266.141 73.0948 264.949 75.9727C263.757 78.8507 263.445 82.0175 264.053 85.0727C264.66 88.1279 266.16 90.9343 268.363 93.1369C270.566 95.3396 273.372 96.8397 276.427 97.4474C279.483 98.0551 282.649 97.7432 285.527 96.5511C288.405 95.359 290.865 93.3403 292.596 90.7502C294.326 88.1602 295.25 85.1151 295.25 82C295.25 82.1478 295.221 82.2941 295.165 82.4306C295.108 82.5672 295.025 82.6912 294.921 82.7957C294.816 82.9002 294.692 82.983 294.556 83.0395C294.419 83.096 294.273 83.1251 294.125 83.125Z" fill="#3B3B3B"/>
<path d="M278.375 67.375C278.375 67.5228 278.404 67.6691 278.46 67.8056C278.517 67.9422 278.6 68.0662 278.704 68.1707C278.809 68.2752 278.933 68.358 279.069 68.4145C279.206 68.471 279.352 68.5001 279.5 68.5C283.079 68.5039 286.511 69.9275 289.042 72.4584C291.573 74.9893 292.996 78.4208 293 82C293 82.2984 293.119 82.5845 293.33 82.7955C293.54 83.0065 293.827 83.125 294.125 83.125C294.423 83.125 294.71 83.0065 294.92 82.7955C295.131 82.5845 295.25 82.2984 295.25 82C295.245 77.8243 293.584 73.8209 290.632 70.8682C287.679 67.9156 283.676 66.2547 279.5 66.25C279.352 66.2499 279.206 66.279 279.069 66.3355C278.933 66.392 278.809 66.4748 278.704 66.5793C278.6 66.6838 278.517 66.8078 278.46 66.9444C278.404 67.0809 278.375 67.2272 278.375 67.375Z" fill="#3492EB"/>
<path d="M234.761 134V119.455H236.523V132.438H243.284V134H234.761ZM250.216 134.227C249.231 134.227 248.367 133.993 247.624 133.524C246.885 133.055 246.307 132.4 245.891 131.557C245.479 130.714 245.273 129.729 245.273 128.602C245.273 127.466 245.479 126.474 245.891 125.626C246.307 124.779 246.885 124.121 247.624 123.652C248.367 123.183 249.231 122.949 250.216 122.949C251.201 122.949 252.063 123.183 252.801 123.652C253.545 124.121 254.122 124.779 254.534 125.626C254.951 126.474 255.159 127.466 255.159 128.602C255.159 129.729 254.951 130.714 254.534 131.557C254.122 132.4 253.545 133.055 252.801 133.524C252.063 133.993 251.201 134.227 250.216 134.227ZM250.216 132.722C250.964 132.722 251.58 132.53 252.062 132.146C252.545 131.763 252.903 131.259 253.135 130.634C253.367 130.009 253.483 129.331 253.483 128.602C253.483 127.873 253.367 127.194 253.135 126.564C252.903 125.934 252.545 125.425 252.062 125.037C251.58 124.649 250.964 124.455 250.216 124.455C249.468 124.455 248.852 124.649 248.369 125.037C247.886 125.425 247.529 125.934 247.297 126.564C247.065 127.194 246.949 127.873 246.949 128.602C246.949 129.331 247.065 130.009 247.297 130.634C247.529 131.259 247.886 131.763 248.369 132.146C248.852 132.53 249.468 132.722 250.216 132.722ZM260.928 134.256C260.237 134.256 259.609 134.125 259.046 133.865C258.482 133.6 258.035 133.219 257.703 132.722C257.372 132.22 257.206 131.614 257.206 130.903C257.206 130.278 257.329 129.772 257.576 129.384C257.822 128.991 258.151 128.683 258.563 128.46C258.975 128.238 259.429 128.072 259.926 127.963C260.428 127.849 260.933 127.759 261.439 127.693C262.102 127.608 262.64 127.544 263.051 127.501C263.468 127.454 263.771 127.376 263.961 127.267C264.155 127.158 264.252 126.969 264.252 126.699V126.642C264.252 125.941 264.06 125.397 263.676 125.009C263.298 124.62 262.722 124.426 261.951 124.426C261.15 124.426 260.523 124.601 260.069 124.952C259.614 125.302 259.294 125.676 259.11 126.074L257.519 125.506C257.803 124.843 258.182 124.327 258.655 123.957C259.133 123.583 259.654 123.323 260.218 123.176C260.786 123.025 261.345 122.949 261.894 122.949C262.244 122.949 262.647 122.991 263.101 123.077C263.56 123.157 264.003 123.325 264.429 123.581C264.86 123.837 265.218 124.223 265.502 124.739C265.786 125.255 265.928 125.946 265.928 126.812V134H264.252V132.523H264.167C264.053 132.759 263.864 133.013 263.598 133.283C263.333 133.553 262.98 133.782 262.54 133.972C262.1 134.161 261.562 134.256 260.928 134.256ZM261.184 132.75C261.846 132.75 262.405 132.62 262.86 132.359C263.319 132.099 263.665 131.763 263.897 131.351C264.133 130.939 264.252 130.506 264.252 130.051V128.517C264.181 128.602 264.025 128.68 263.783 128.751C263.546 128.818 263.272 128.877 262.959 128.929C262.651 128.976 262.351 129.019 262.057 129.057C261.768 129.09 261.534 129.118 261.354 129.142C260.918 129.199 260.511 129.291 260.132 129.419C259.758 129.542 259.455 129.729 259.223 129.98C258.996 130.226 258.882 130.562 258.882 130.989C258.882 131.571 259.098 132.011 259.529 132.31C259.964 132.603 260.516 132.75 261.184 132.75ZM273.107 134.227C272.197 134.227 271.395 133.998 270.699 133.538C270.003 133.074 269.458 132.421 269.065 131.578C268.672 130.731 268.476 129.729 268.476 128.574C268.476 127.428 268.672 126.434 269.065 125.591C269.458 124.748 270.005 124.097 270.706 123.638C271.407 123.179 272.216 122.949 273.135 122.949C273.845 122.949 274.406 123.067 274.818 123.304C275.235 123.536 275.552 123.801 275.77 124.099C275.992 124.393 276.165 124.634 276.288 124.824H276.43V119.455H278.107V134H276.487V132.324H276.288C276.165 132.523 275.99 132.774 275.763 133.077C275.536 133.375 275.211 133.643 274.79 133.879C274.368 134.111 273.807 134.227 273.107 134.227ZM273.334 132.722C274.006 132.722 274.574 132.546 275.038 132.196C275.502 131.841 275.855 131.351 276.097 130.726C276.338 130.096 276.459 129.369 276.459 128.545C276.459 127.731 276.34 127.018 276.104 126.408C275.867 125.792 275.517 125.314 275.053 124.973C274.589 124.627 274.016 124.455 273.334 124.455C272.624 124.455 272.032 124.637 271.558 125.001C271.089 125.361 270.737 125.851 270.5 126.472C270.268 127.087 270.152 127.778 270.152 128.545C270.152 129.322 270.27 130.027 270.507 130.662C270.749 131.292 271.104 131.794 271.572 132.168C272.046 132.537 272.633 132.722 273.334 132.722ZM281.409 134V123.091H283.085V134H281.409ZM282.261 121.273C281.935 121.273 281.653 121.161 281.416 120.939C281.184 120.716 281.068 120.449 281.068 120.136C281.068 119.824 281.184 119.556 281.416 119.334C281.653 119.111 281.935 119 282.261 119C282.588 119 282.867 119.111 283.099 119.334C283.336 119.556 283.455 119.824 283.455 120.136C283.455 120.449 283.336 120.716 283.099 120.939C282.867 121.161 282.588 121.273 282.261 121.273ZM287.831 127.438V134H286.155V123.091H287.775V124.795H287.917C288.172 124.241 288.56 123.796 289.081 123.46C289.602 123.119 290.275 122.949 291.098 122.949C291.837 122.949 292.483 123.1 293.037 123.403C293.591 123.702 294.022 124.156 294.33 124.767C294.638 125.373 294.792 126.14 294.792 127.068V134H293.115V127.182C293.115 126.325 292.893 125.657 292.448 125.179C292.003 124.696 291.392 124.455 290.615 124.455C290.08 124.455 289.602 124.571 289.181 124.803C288.764 125.035 288.435 125.373 288.194 125.818C287.952 126.263 287.831 126.803 287.831 127.438ZM302.258 138.318C301.448 138.318 300.752 138.214 300.17 138.006C299.587 137.802 299.102 137.532 298.714 137.196C298.33 136.865 298.025 136.509 297.798 136.131L299.133 135.193C299.284 135.392 299.476 135.619 299.708 135.875C299.94 136.135 300.257 136.36 300.66 136.55C301.067 136.744 301.6 136.841 302.258 136.841C303.138 136.841 303.865 136.628 304.438 136.202C305.011 135.776 305.298 135.108 305.298 134.199V131.983H305.156C305.032 132.182 304.857 132.428 304.63 132.722C304.407 133.01 304.085 133.268 303.664 133.496C303.247 133.718 302.684 133.83 301.974 133.83C301.093 133.83 300.302 133.621 299.602 133.205C298.906 132.788 298.354 132.182 297.947 131.386C297.544 130.591 297.343 129.625 297.343 128.489C297.343 127.371 297.54 126.398 297.933 125.57C298.326 124.736 298.872 124.092 299.573 123.638C300.274 123.179 301.084 122.949 302.002 122.949C302.712 122.949 303.276 123.067 303.692 123.304C304.114 123.536 304.436 123.801 304.658 124.099C304.886 124.393 305.061 124.634 305.184 124.824H305.354V123.091H306.974V134.312C306.974 135.25 306.761 136.012 306.335 136.599C305.913 137.191 305.345 137.625 304.63 137.899C303.92 138.179 303.129 138.318 302.258 138.318ZM302.201 132.324C302.873 132.324 303.442 132.17 303.906 131.862C304.37 131.554 304.722 131.112 304.964 130.534C305.205 129.956 305.326 129.265 305.326 128.46C305.326 127.674 305.208 126.981 304.971 126.379C304.734 125.778 304.384 125.307 303.92 124.966C303.456 124.625 302.883 124.455 302.201 124.455C301.491 124.455 300.899 124.634 300.425 124.994C299.957 125.354 299.604 125.837 299.367 126.443C299.135 127.049 299.019 127.722 299.019 128.46C299.019 129.218 299.138 129.888 299.374 130.47C299.616 131.048 299.971 131.502 300.44 131.834C300.913 132.161 301.5 132.324 302.201 132.324ZM311.263 134.114C310.913 134.114 310.612 133.988 310.362 133.737C310.111 133.486 309.985 133.186 309.985 132.835C309.985 132.485 310.111 132.184 310.362 131.933C310.612 131.682 310.913 131.557 311.263 131.557C311.614 131.557 311.915 131.682 312.165 131.933C312.416 132.184 312.542 132.485 312.542 132.835C312.542 133.067 312.483 133.28 312.364 133.474C312.251 133.669 312.097 133.825 311.903 133.943C311.713 134.057 311.5 134.114 311.263 134.114ZM316.771 134.114C316.421 134.114 316.12 133.988 315.869 133.737C315.618 133.486 315.493 133.186 315.493 132.835C315.493 132.485 315.618 132.184 315.869 131.933C316.12 131.682 316.421 131.557 316.771 131.557C317.122 131.557 317.422 131.682 317.673 131.933C317.924 132.184 318.05 132.485 318.05 132.835C318.05 133.067 317.991 133.28 317.872 133.474C317.759 133.669 317.605 133.825 317.411 133.943C317.221 134.057 317.008 134.114 316.771 134.114ZM322.279 134.114C321.929 134.114 321.628 133.988 321.377 133.737C321.126 133.486 321.001 133.186 321.001 132.835C321.001 132.485 321.126 132.184 321.377 131.933C321.628 131.682 321.929 131.557 322.279 131.557C322.629 131.557 322.93 131.682 323.181 131.933C323.432 132.184 323.558 132.485 323.558 132.835C323.558 133.067 323.498 133.28 323.38 133.474C323.266 133.669 323.112 133.825 322.918 133.943C322.729 134.057 322.516 134.114 322.279 134.114Z" fill="white" fill-opacity="0.95"/>
<path d="M241.625 225.125C241.477 225.125 241.331 225.096 241.194 225.04C241.058 224.983 240.934 224.9 240.829 224.796C240.725 224.691 240.642 224.567 240.585 224.431C240.529 224.294 240.5 224.148 240.5 224C240.5 226.67 239.708 229.28 238.225 231.5C236.741 233.72 234.633 235.451 232.166 236.472C229.699 237.494 226.985 237.762 224.366 237.241C221.748 236.72 219.342 235.434 217.454 233.546C215.566 231.658 214.28 229.252 213.759 226.634C213.239 224.015 213.506 221.301 214.528 218.834C215.549 216.367 217.28 214.259 219.5 212.775C221.72 211.292 224.33 210.5 227 210.5C226.702 210.5 226.415 210.381 226.205 210.17C225.994 209.96 225.875 209.673 225.875 209.375C225.875 209.077 225.994 208.79 226.205 208.58C226.415 208.369 226.702 208.25 227 208.25C223.885 208.25 220.84 209.174 218.25 210.904C215.66 212.635 213.641 215.095 212.449 217.973C211.257 220.851 210.945 224.017 211.553 227.073C212.16 230.128 213.66 232.934 215.863 235.137C218.066 237.34 220.872 238.84 223.927 239.447C226.983 240.055 230.149 239.743 233.027 238.551C235.905 237.359 238.365 235.34 240.096 232.75C241.826 230.16 242.75 227.115 242.75 224C242.75 224.148 242.721 224.294 242.665 224.431C242.608 224.567 242.525 224.691 242.421 224.796C242.316 224.9 242.192 224.983 242.056 225.04C241.919 225.096 241.773 225.125 241.625 225.125Z" fill="#3B3B3B"/>
<path d="M225.875 209.375C225.875 209.523 225.904 209.669 225.96 209.806C226.017 209.942 226.1 210.066 226.204 210.171C226.309 210.275 226.433 210.358 226.569 210.415C226.706 210.471 226.852 210.5 227 210.5C230.579 210.504 234.011 211.927 236.542 214.458C239.073 216.989 240.496 220.421 240.5 224C240.5 224.298 240.619 224.585 240.83 224.795C241.04 225.006 241.327 225.125 241.625 225.125C241.923 225.125 242.21 225.006 242.42 224.795C242.631 224.585 242.75 224.298 242.75 224C242.745 219.824 241.084 215.821 238.132 212.868C235.179 209.916 231.176 208.255 227 208.25C226.852 208.25 226.706 208.279 226.569 208.335C226.433 208.392 226.309 208.475 226.204 208.579C226.1 208.684 226.017 208.808 225.96 208.944C225.904 209.081 225.875 209.227 225.875 209.375Z" fill="#3492EB"/>
<path d="M258.761 231V216.455H260.523V229.438H267.284V231H258.761ZM274.216 231.227C273.231 231.227 272.367 230.993 271.624 230.524C270.885 230.055 270.307 229.4 269.891 228.557C269.479 227.714 269.273 226.729 269.273 225.602C269.273 224.466 269.479 223.474 269.891 222.626C270.307 221.779 270.885 221.121 271.624 220.652C272.367 220.183 273.231 219.949 274.216 219.949C275.201 219.949 276.063 220.183 276.801 220.652C277.545 221.121 278.122 221.779 278.534 222.626C278.951 223.474 279.159 224.466 279.159 225.602C279.159 226.729 278.951 227.714 278.534 228.557C278.122 229.4 277.545 230.055 276.801 230.524C276.063 230.993 275.201 231.227 274.216 231.227ZM274.216 229.722C274.964 229.722 275.58 229.53 276.062 229.146C276.545 228.763 276.903 228.259 277.135 227.634C277.367 227.009 277.483 226.331 277.483 225.602C277.483 224.873 277.367 224.194 277.135 223.564C276.903 222.934 276.545 222.425 276.062 222.037C275.58 221.649 274.964 221.455 274.216 221.455C273.468 221.455 272.852 221.649 272.369 222.037C271.886 222.425 271.529 222.934 271.297 223.564C271.065 224.194 270.949 224.873 270.949 225.602C270.949 226.331 271.065 227.009 271.297 227.634C271.529 228.259 271.886 228.763 272.369 229.146C272.852 229.53 273.468 229.722 274.216 229.722ZM284.928 231.256C284.237 231.256 283.609 231.125 283.046 230.865C282.482 230.6 282.035 230.219 281.703 229.722C281.372 229.22 281.206 228.614 281.206 227.903C281.206 227.278 281.329 226.772 281.576 226.384C281.822 225.991 282.151 225.683 282.563 225.46C282.975 225.238 283.429 225.072 283.926 224.963C284.428 224.849 284.933 224.759 285.439 224.693C286.102 224.608 286.64 224.544 287.051 224.501C287.468 224.454 287.771 224.376 287.961 224.267C288.155 224.158 288.252 223.969 288.252 223.699V223.642C288.252 222.941 288.06 222.397 287.676 222.009C287.298 221.62 286.722 221.426 285.951 221.426C285.15 221.426 284.523 221.601 284.069 221.952C283.614 222.302 283.294 222.676 283.11 223.074L281.519 222.506C281.803 221.843 282.182 221.327 282.655 220.957C283.133 220.583 283.654 220.323 284.218 220.176C284.786 220.025 285.345 219.949 285.894 219.949C286.244 219.949 286.647 219.991 287.101 220.077C287.56 220.157 288.003 220.325 288.429 220.581C288.86 220.837 289.218 221.223 289.502 221.739C289.786 222.255 289.928 222.946 289.928 223.812V231H288.252V229.523H288.167C288.053 229.759 287.864 230.013 287.598 230.283C287.333 230.553 286.98 230.782 286.54 230.972C286.1 231.161 285.562 231.256 284.928 231.256ZM285.184 229.75C285.846 229.75 286.405 229.62 286.86 229.359C287.319 229.099 287.665 228.763 287.897 228.351C288.133 227.939 288.252 227.506 288.252 227.051V225.517C288.181 225.602 288.025 225.68 287.783 225.751C287.546 225.818 287.272 225.877 286.959 225.929C286.651 225.976 286.351 226.019 286.057 226.057C285.768 226.09 285.534 226.118 285.354 226.142C284.918 226.199 284.511 226.291 284.132 226.419C283.758 226.542 283.455 226.729 283.223 226.98C282.996 227.226 282.882 227.562 282.882 227.989C282.882 228.571 283.098 229.011 283.529 229.31C283.964 229.603 284.516 229.75 285.184 229.75ZM297.107 231.227C296.197 231.227 295.395 230.998 294.699 230.538C294.003 230.074 293.458 229.421 293.065 228.578C292.672 227.731 292.476 226.729 292.476 225.574C292.476 224.428 292.672 223.434 293.065 222.591C293.458 221.748 294.005 221.097 294.706 220.638C295.407 220.179 296.216 219.949 297.135 219.949C297.845 219.949 298.406 220.067 298.818 220.304C299.235 220.536 299.552 220.801 299.77 221.099C299.992 221.393 300.165 221.634 300.288 221.824H300.43V216.455H302.107V231H300.487V229.324H300.288C300.165 229.523 299.99 229.774 299.763 230.077C299.536 230.375 299.211 230.643 298.79 230.879C298.368 231.111 297.807 231.227 297.107 231.227ZM297.334 229.722C298.006 229.722 298.574 229.546 299.038 229.196C299.502 228.841 299.855 228.351 300.097 227.726C300.338 227.096 300.459 226.369 300.459 225.545C300.459 224.731 300.34 224.018 300.104 223.408C299.867 222.792 299.517 222.314 299.053 221.973C298.589 221.627 298.016 221.455 297.334 221.455C296.624 221.455 296.032 221.637 295.558 222.001C295.089 222.361 294.737 222.851 294.5 223.472C294.268 224.087 294.152 224.778 294.152 225.545C294.152 226.322 294.27 227.027 294.507 227.662C294.749 228.292 295.104 228.794 295.572 229.168C296.046 229.537 296.633 229.722 297.334 229.722ZM305.409 231V220.091H307.085V231H305.409ZM306.261 218.273C305.935 218.273 305.653 218.161 305.416 217.939C305.184 217.716 305.068 217.449 305.068 217.136C305.068 216.824 305.184 216.556 305.416 216.334C305.653 216.111 305.935 216 306.261 216C306.588 216 306.867 216.111 307.099 216.334C307.336 216.556 307.455 216.824 307.455 217.136C307.455 217.449 307.336 217.716 307.099 217.939C306.867 218.161 306.588 218.273 306.261 218.273ZM311.831 224.438V231H310.155V220.091H311.775V221.795H311.917C312.172 221.241 312.56 220.796 313.081 220.46C313.602 220.119 314.275 219.949 315.098 219.949C315.837 219.949 316.483 220.1 317.037 220.403C317.591 220.702 318.022 221.156 318.33 221.767C318.638 222.373 318.792 223.14 318.792 224.068V231H317.115V224.182C317.115 223.325 316.893 222.657 316.448 222.179C316.003 221.696 315.392 221.455 314.615 221.455C314.08 221.455 313.602 221.571 313.181 221.803C312.764 222.035 312.435 222.373 312.194 222.818C311.952 223.263 311.831 223.803 311.831 224.438ZM326.258 235.318C325.448 235.318 324.752 235.214 324.17 235.006C323.587 234.802 323.102 234.532 322.714 234.196C322.33 233.865 322.025 233.509 321.798 233.131L323.133 232.193C323.284 232.392 323.476 232.619 323.708 232.875C323.94 233.135 324.257 233.36 324.66 233.55C325.067 233.744 325.6 233.841 326.258 233.841C327.138 233.841 327.865 233.628 328.438 233.202C329.011 232.776 329.298 232.108 329.298 231.199V228.983H329.156C329.032 229.182 328.857 229.428 328.63 229.722C328.407 230.01 328.085 230.268 327.664 230.496C327.247 230.718 326.684 230.83 325.974 230.83C325.093 230.83 324.302 230.621 323.602 230.205C322.906 229.788 322.354 229.182 321.947 228.386C321.544 227.591 321.343 226.625 321.343 225.489C321.343 224.371 321.54 223.398 321.933 222.57C322.326 221.736 322.872 221.092 323.573 220.638C324.274 220.179 325.084 219.949 326.002 219.949C326.712 219.949 327.276 220.067 327.692 220.304C328.114 220.536 328.436 220.801 328.658 221.099C328.886 221.393 329.061 221.634 329.184 221.824H329.354V220.091H330.974V231.312C330.974 232.25 330.761 233.012 330.335 233.599C329.913 234.191 329.345 234.625 328.63 234.899C327.92 235.179 327.129 235.318 326.258 235.318ZM326.201 229.324C326.873 229.324 327.442 229.17 327.906 228.862C328.37 228.554 328.722 228.112 328.964 227.534C329.205 226.956 329.326 226.265 329.326 225.46C329.326 224.674 329.208 223.981 328.971 223.379C328.734 222.778 328.384 222.307 327.92 221.966C327.456 221.625 326.883 221.455 326.201 221.455C325.491 221.455 324.899 221.634 324.425 221.994C323.957 222.354 323.604 222.837 323.367 223.443C323.135 224.049 323.019 224.722 323.019 225.46C323.019 226.218 323.138 226.888 323.374 227.47C323.616 228.048 323.971 228.502 324.44 228.834C324.913 229.161 325.5 229.324 326.201 229.324ZM335.263 231.114C334.913 231.114 334.612 230.988 334.362 230.737C334.111 230.486 333.985 230.186 333.985 229.835C333.985 229.485 334.111 229.184 334.362 228.933C334.612 228.682 334.913 228.557 335.263 228.557C335.614 228.557 335.915 228.682 336.165 228.933C336.416 229.184 336.542 229.485 336.542 229.835C336.542 230.067 336.483 230.28 336.364 230.474C336.251 230.669 336.097 230.825 335.903 230.943C335.713 231.057 335.5 231.114 335.263 231.114ZM340.771 231.114C340.421 231.114 340.12 230.988 339.869 230.737C339.618 230.486 339.493 230.186 339.493 229.835C339.493 229.485 339.618 229.184 339.869 228.933C340.12 228.682 340.421 228.557 340.771 228.557C341.122 228.557 341.422 228.682 341.673 228.933C341.924 229.184 342.05 229.485 342.05 229.835C342.05 230.067 341.991 230.28 341.872 230.474C341.759 230.669 341.605 230.825 341.411 230.943C341.221 231.057 341.008 231.114 340.771 231.114ZM346.279 231.114C345.929 231.114 345.628 230.988 345.377 230.737C345.126 230.486 345.001 230.186 345.001 229.835C345.001 229.485 345.126 229.184 345.377 228.933C345.628 228.682 345.929 228.557 346.279 228.557C346.629 228.557 346.93 228.682 347.181 228.933C347.432 229.184 347.558 229.485 347.558 229.835C347.558 230.067 347.498 230.28 347.38 230.474C347.266 230.669 347.112 230.825 346.918 230.943C346.729 231.057 346.516 231.114 346.279 231.114Z" fill="white" fill-opacity="0.95"/>
</svg>
