<svg width="559" height="371" viewBox="0 0 559 371" fill="none" xmlns="http://www.w3.org/2000/svg">
<rect width="559" height="371" rx="16" fill="#1A1A1A"/>
<path d="M514.201 48.1999C514.069 48.2002 513.938 48.1743 513.816 48.1236C513.695 48.073 513.584 47.9987 513.492 47.905L506.291 40.6696C506.199 40.5765 506.125 40.4661 506.076 40.3446C506.026 40.2232 506 40.0931 506 39.9618C506.001 39.8305 506.027 39.7005 506.078 39.5793C506.128 39.4581 506.202 39.3481 506.295 39.2555C506.388 39.1629 506.499 39.0896 506.62 39.0397C506.742 38.9898 506.872 38.9643 507.003 38.9646C507.134 38.965 507.264 38.9912 507.386 39.0418C507.507 39.0924 507.617 39.1663 507.709 39.2595L514.254 45.8366L530.35 32.0417C530.551 31.8692 530.813 31.7837 531.077 31.804C531.341 31.8244 531.587 31.9488 531.759 32.1501C531.932 32.3513 532.017 32.6129 531.997 32.8771C531.976 33.1414 531.852 33.3868 531.651 33.5593L514.851 47.9587C514.67 48.1145 514.439 48.2001 514.201 48.1999Z" fill="#27A17A"/>
<rect x="217.5" y="112" width="124" height="124" rx="62" fill="#545454"/>
<path d="M253.222 159.44C254.519 159.45 255.797 159.687 257.057 160.151C258.316 160.615 259.453 161.377 260.466 162.438C261.489 163.489 262.303 164.909 262.909 166.699C263.525 168.489 263.837 170.723 263.847 173.403C263.837 175.951 263.577 178.219 263.065 180.207C262.563 182.187 261.834 183.858 260.878 185.222C259.921 186.585 258.766 187.622 257.412 188.332C256.067 189.043 254.547 189.398 252.852 189.398C251.119 189.398 249.58 189.057 248.236 188.375C246.891 187.693 245.797 186.751 244.955 185.548C244.112 184.336 243.586 182.944 243.378 181.372H247.71C247.994 182.622 248.572 183.635 249.443 184.412C250.324 185.179 251.46 185.562 252.852 185.562C254.983 185.562 256.645 184.634 257.838 182.778C259.031 180.913 259.633 178.309 259.642 174.966H259.415C258.922 175.78 258.307 176.481 257.568 177.068C256.839 177.655 256.02 178.11 255.111 178.432C254.202 178.754 253.231 178.915 252.199 178.915C250.523 178.915 248.993 178.503 247.611 177.679C246.238 176.855 245.144 175.723 244.33 174.284C243.525 172.845 243.122 171.197 243.122 169.341C243.122 167.485 243.539 165.809 244.372 164.312C245.215 162.807 246.389 161.618 247.895 160.747C249.41 159.866 251.186 159.431 253.222 159.44ZM253.236 163.134C252.128 163.134 251.129 163.408 250.239 163.957C249.358 164.507 248.662 165.245 248.151 166.173C247.639 167.101 247.384 168.138 247.384 169.284C247.384 170.411 247.63 171.434 248.122 172.352C248.624 173.271 249.306 174 250.168 174.54C251.039 175.07 252.033 175.335 253.151 175.335C253.984 175.335 254.76 175.174 255.48 174.852C256.2 174.53 256.825 174.085 257.355 173.517C257.895 172.939 258.316 172.286 258.619 171.557C258.932 170.818 259.088 170.046 259.088 169.241C259.088 168.152 258.832 167.144 258.321 166.216C257.819 165.288 257.128 164.545 256.247 163.986C255.366 163.418 254.363 163.134 253.236 163.134ZM278.651 159.44C279.949 159.45 281.227 159.687 282.487 160.151C283.746 160.615 284.882 161.377 285.896 162.438C286.918 163.489 287.733 164.909 288.339 166.699C288.954 168.489 289.267 170.723 289.276 173.403C289.267 175.951 289.006 178.219 288.495 180.207C287.993 182.187 287.264 183.858 286.308 185.222C285.351 186.585 284.196 187.622 282.842 188.332C281.497 189.043 279.977 189.398 278.282 189.398C276.549 189.398 275.01 189.057 273.665 188.375C272.321 187.693 271.227 186.751 270.384 185.548C269.541 184.336 269.016 182.944 268.808 181.372H273.14C273.424 182.622 274.002 183.635 274.873 184.412C275.754 185.179 276.89 185.562 278.282 185.562C280.413 185.562 282.075 184.634 283.268 182.778C284.461 180.913 285.062 178.309 285.072 174.966H284.844C284.352 175.78 283.737 176.481 282.998 177.068C282.269 177.655 281.45 178.11 280.54 178.432C279.631 178.754 278.661 178.915 277.629 178.915C275.952 178.915 274.423 178.503 273.04 177.679C271.667 176.855 270.574 175.723 269.759 174.284C268.954 172.845 268.552 171.197 268.552 169.341C268.552 167.485 268.969 165.809 269.802 164.312C270.645 162.807 271.819 161.618 273.325 160.747C274.84 159.866 276.615 159.431 278.651 159.44ZM278.665 163.134C277.558 163.134 276.558 163.408 275.668 163.957C274.788 164.507 274.092 165.245 273.58 166.173C273.069 167.101 272.813 168.138 272.813 169.284C272.813 170.411 273.059 171.434 273.552 172.352C274.054 173.271 274.736 174 275.597 174.54C276.469 175.07 277.463 175.335 278.58 175.335C279.414 175.335 280.19 175.174 280.91 174.852C281.629 174.53 282.254 174.085 282.785 173.517C283.325 172.939 283.746 172.286 284.049 171.557C284.362 170.818 284.518 170.046 284.518 169.241C284.518 168.152 284.262 167.144 283.751 166.216C283.249 165.288 282.558 164.545 281.677 163.986C280.796 163.418 279.792 163.134 278.665 163.134ZM303.016 184.114V164.909H306.837V184.114H303.016ZM295.331 176.415V172.594H314.536V176.415H295.331Z" fill="white" fill-opacity="0.95"/>
<path d="M0 348H559C559 360.703 548.703 371 536 371H23C10.2975 371 0 360.703 0 348Z" fill="#27A17A"/>
</svg>
