<svg width="559" height="371" viewBox="0 0 559 371" fill="none" xmlns="http://www.w3.org/2000/svg">
<rect width="559" height="371" rx="16" fill="#1A1A1A"/>
<path d="M514.201 48.1999C514.069 48.2002 513.938 48.1743 513.816 48.1236C513.695 48.073 513.584 47.9987 513.492 47.905L506.291 40.6696C506.199 40.5765 506.125 40.4661 506.076 40.3446C506.026 40.2232 506 40.0931 506 39.9618C506.001 39.8305 506.027 39.7005 506.078 39.5793C506.128 39.4582 506.202 39.3481 506.295 39.2555C506.388 39.1629 506.499 39.0896 506.62 39.0397C506.742 38.9898 506.872 38.9643 507.003 38.9646C507.134 38.965 507.264 38.9912 507.386 39.0418C507.507 39.0924 507.617 39.1664 507.709 39.2595L514.254 45.8366L530.35 32.0417C530.551 31.8692 530.813 31.7837 531.077 31.804C531.341 31.8244 531.587 31.9488 531.759 32.1501C531.932 32.3513 532.017 32.6129 531.997 32.8771C531.976 33.1414 531.852 33.3868 531.651 33.5593L514.851 47.9587C514.67 48.1145 514.439 48.2001 514.201 48.1999Z" fill="#27A17A"/>
<mask id="mask0_917_32650" style="mask-type:alpha" maskUnits="userSpaceOnUse" x="217" y="112" width="125" height="124">
<path fill-rule="evenodd" clip-rule="evenodd" d="M304.988 230.535C297.213 234.046 288.585 236 279.5 236C245.258 236 217.5 208.242 217.5 174C217.5 139.758 245.258 112 279.5 112C313.742 112 341.5 139.758 341.5 174C341.5 183.085 339.546 191.713 336.035 199.488C332.003 194.898 326.09 192 319.5 192C307.35 192 297.5 201.85 297.5 214C297.5 220.59 300.398 226.503 304.988 230.535Z" fill="#262626"/>
</mask>
<g mask="url(#mask0_917_32650)">
<rect width="124" height="124" transform="translate(217.5 112)" fill="#08599C"/>
<path d="M272.82 167.551C272.669 166.206 272.044 165.165 270.945 164.426C269.847 163.678 268.464 163.304 266.798 163.304C265.604 163.304 264.572 163.493 263.701 163.872C262.83 164.241 262.153 164.753 261.67 165.406C261.196 166.05 260.96 166.784 260.96 167.608C260.96 168.299 261.121 168.896 261.442 169.398C261.774 169.9 262.205 170.321 262.735 170.662C263.275 170.993 263.853 171.273 264.468 171.5C265.084 171.718 265.675 171.898 266.244 172.04L269.085 172.778C270.013 173.006 270.964 173.313 271.94 173.702C272.915 174.09 273.819 174.601 274.653 175.236C275.486 175.87 276.158 176.656 276.67 177.594C277.191 178.531 277.451 179.653 277.451 180.96C277.451 182.608 277.025 184.071 276.173 185.349C275.33 186.628 274.103 187.636 272.494 188.375C270.893 189.114 268.957 189.483 266.684 189.483C264.506 189.483 262.621 189.137 261.031 188.446C259.44 187.755 258.194 186.775 257.295 185.506C256.395 184.227 255.898 182.712 255.803 180.96H260.207C260.292 182.011 260.633 182.887 261.229 183.588C261.835 184.279 262.607 184.795 263.545 185.136C264.492 185.468 265.529 185.634 266.656 185.634C267.896 185.634 268.999 185.439 269.965 185.051C270.941 184.653 271.708 184.104 272.266 183.403C272.825 182.693 273.104 181.865 273.104 180.918C273.104 180.056 272.858 179.35 272.366 178.801C271.883 178.252 271.225 177.797 270.391 177.438C269.567 177.078 268.635 176.76 267.593 176.486L264.156 175.548C261.826 174.914 259.979 173.981 258.616 172.75C257.262 171.519 256.585 169.89 256.585 167.864C256.585 166.187 257.039 164.724 257.948 163.474C258.857 162.224 260.088 161.254 261.641 160.562C263.194 159.862 264.946 159.511 266.897 159.511C268.867 159.511 270.604 159.857 272.11 160.548C273.625 161.24 274.818 162.191 275.69 163.403C276.561 164.606 277.015 165.989 277.053 167.551H272.82ZM298.562 167.551C298.411 166.206 297.786 165.165 296.688 164.426C295.589 163.678 294.206 163.304 292.54 163.304C291.347 163.304 290.314 163.493 289.443 163.872C288.572 164.241 287.895 164.753 287.412 165.406C286.938 166.05 286.702 166.784 286.702 167.608C286.702 168.299 286.863 168.896 287.185 169.398C287.516 169.9 287.947 170.321 288.477 170.662C289.017 170.993 289.595 171.273 290.21 171.5C290.826 171.718 291.418 171.898 291.986 172.04L294.827 172.778C295.755 173.006 296.706 173.313 297.682 173.702C298.657 174.09 299.562 174.601 300.395 175.236C301.228 175.87 301.901 176.656 302.412 177.594C302.933 178.531 303.193 179.653 303.193 180.96C303.193 182.608 302.767 184.071 301.915 185.349C301.072 186.628 299.846 187.636 298.236 188.375C296.635 189.114 294.699 189.483 292.426 189.483C290.248 189.483 288.364 189.137 286.773 188.446C285.182 187.755 283.937 186.775 283.037 185.506C282.137 184.227 281.64 182.712 281.545 180.96H285.949C286.034 182.011 286.375 182.887 286.972 183.588C287.578 184.279 288.349 184.795 289.287 185.136C290.234 185.468 291.271 185.634 292.398 185.634C293.638 185.634 294.741 185.439 295.707 185.051C296.683 184.653 297.45 184.104 298.009 183.403C298.567 182.693 298.847 181.865 298.847 180.918C298.847 180.056 298.6 179.35 298.108 178.801C297.625 178.252 296.967 177.797 296.134 177.438C295.31 177.078 294.377 176.76 293.335 176.486L289.898 175.548C287.568 174.914 285.722 173.981 284.358 172.75C283.004 171.519 282.327 169.89 282.327 167.864C282.327 166.187 282.781 164.724 283.69 163.474C284.599 162.224 285.83 161.254 287.384 160.562C288.937 159.862 290.688 159.511 292.639 159.511C294.609 159.511 296.347 159.857 297.852 160.548C299.367 161.24 300.561 162.191 301.432 163.403C302.303 164.606 302.758 165.989 302.795 167.551H298.562Z" fill="white" fill-opacity="0.95"/>
</g>
<path d="M319.5 198.812C316.496 198.812 313.56 199.703 311.062 201.372C308.565 203.041 306.618 205.413 305.469 208.188C304.319 210.963 304.018 214.017 304.604 216.963C305.19 219.909 306.637 222.615 308.761 224.739C310.885 226.863 313.591 228.31 316.537 228.896C319.483 229.482 322.537 229.181 325.312 228.031C328.087 226.882 330.459 224.935 332.128 222.438C333.797 219.94 334.688 217.004 334.688 214C334.683 209.973 333.081 206.113 330.234 203.266C327.387 200.419 323.527 198.817 319.5 198.812Z" fill="#27A17A"/>
<path d="M0 348H559C559 360.703 548.703 371 536 371H23C10.2975 371 0 360.703 0 348Z" fill="#27A17A"/>
</svg>
