<svg width="559" height="244" viewBox="0 0 559 244" fill="none" xmlns="http://www.w3.org/2000/svg">
<rect width="559" height="244" rx="16" fill="#1A1A1A"/>
<rect x="125.5" y="60" width="124" height="124" rx="62" fill="#545454"/>
<path d="M178.033 137V133.818L187.876 123.619C188.928 122.511 189.794 121.541 190.476 120.707C191.167 119.865 191.683 119.064 192.024 118.307C192.365 117.549 192.536 116.744 192.536 115.892C192.536 114.926 192.308 114.093 191.854 113.392C191.399 112.682 190.779 112.137 189.993 111.759C189.207 111.37 188.321 111.176 187.337 111.176C186.295 111.176 185.386 111.389 184.609 111.815C183.833 112.241 183.236 112.843 182.82 113.619C182.403 114.396 182.195 115.305 182.195 116.347H178.004C178.004 114.576 178.411 113.027 179.226 111.702C180.04 110.376 181.158 109.348 182.578 108.619C183.999 107.881 185.613 107.511 187.422 107.511C189.25 107.511 190.859 107.876 192.251 108.605C193.653 109.325 194.747 110.31 195.533 111.56C196.319 112.8 196.712 114.202 196.712 115.764C196.712 116.844 196.508 117.9 196.101 118.932C195.703 119.964 195.007 121.115 194.013 122.384C193.018 123.643 191.636 125.172 189.865 126.972L184.084 133.023V133.236H197.18V137H178.033Z" fill="white" fill-opacity="0.95"/>
<rect x="309.5" y="60" width="124" height="124" rx="62" fill="#545454"/>
<path d="M345.222 107.44C346.519 107.45 347.797 107.687 349.057 108.151C350.316 108.615 351.453 109.377 352.466 110.438C353.489 111.489 354.303 112.909 354.909 114.699C355.525 116.489 355.837 118.723 355.847 121.403C355.837 123.951 355.577 126.219 355.065 128.207C354.563 130.187 353.834 131.858 352.878 133.222C351.921 134.585 350.766 135.622 349.412 136.332C348.067 137.043 346.547 137.398 344.852 137.398C343.119 137.398 341.58 137.057 340.236 136.375C338.891 135.693 337.797 134.751 336.955 133.548C336.112 132.336 335.586 130.944 335.378 129.372H339.71C339.994 130.622 340.572 131.635 341.443 132.412C342.324 133.179 343.46 133.562 344.852 133.562C346.983 133.562 348.645 132.634 349.838 130.778C351.031 128.913 351.633 126.309 351.642 122.966H351.415C350.922 123.78 350.307 124.481 349.568 125.068C348.839 125.655 348.02 126.11 347.111 126.432C346.202 126.754 345.231 126.915 344.199 126.915C342.523 126.915 340.993 126.503 339.611 125.679C338.238 124.855 337.144 123.723 336.33 122.284C335.525 120.845 335.122 119.197 335.122 117.341C335.122 115.485 335.539 113.809 336.372 112.312C337.215 110.807 338.389 109.618 339.895 108.747C341.41 107.866 343.186 107.431 345.222 107.44ZM345.236 111.134C344.128 111.134 343.129 111.408 342.239 111.957C341.358 112.507 340.662 113.245 340.151 114.173C339.639 115.101 339.384 116.138 339.384 117.284C339.384 118.411 339.63 119.434 340.122 120.352C340.624 121.271 341.306 122 342.168 122.54C343.039 123.07 344.033 123.335 345.151 123.335C345.984 123.335 346.76 123.174 347.48 122.852C348.2 122.53 348.825 122.085 349.355 121.517C349.895 120.939 350.316 120.286 350.619 119.557C350.932 118.818 351.088 118.046 351.088 117.241C351.088 116.152 350.832 115.144 350.321 114.216C349.819 113.288 349.128 112.545 348.247 111.986C347.366 111.418 346.363 111.134 345.236 111.134ZM370.651 107.44C371.949 107.45 373.227 107.687 374.487 108.151C375.746 108.615 376.882 109.377 377.896 110.438C378.918 111.489 379.733 112.909 380.339 114.699C380.954 116.489 381.267 118.723 381.276 121.403C381.267 123.951 381.006 126.219 380.495 128.207C379.993 130.187 379.264 131.858 378.308 133.222C377.351 134.585 376.196 135.622 374.842 136.332C373.497 137.043 371.977 137.398 370.282 137.398C368.549 137.398 367.01 137.057 365.665 136.375C364.321 135.693 363.227 134.751 362.384 133.548C361.541 132.336 361.016 130.944 360.808 129.372H365.14C365.424 130.622 366.002 131.635 366.873 132.412C367.754 133.179 368.89 133.562 370.282 133.562C372.413 133.562 374.075 132.634 375.268 130.778C376.461 128.913 377.062 126.309 377.072 122.966H376.844C376.352 123.78 375.737 124.481 374.998 125.068C374.269 125.655 373.45 126.11 372.54 126.432C371.631 126.754 370.661 126.915 369.629 126.915C367.952 126.915 366.423 126.503 365.04 125.679C363.667 124.855 362.574 123.723 361.759 122.284C360.954 120.845 360.552 119.197 360.552 117.341C360.552 115.485 360.969 113.809 361.802 112.312C362.645 110.807 363.819 109.618 365.325 108.747C366.84 107.866 368.615 107.431 370.651 107.44ZM370.665 111.134C369.558 111.134 368.558 111.408 367.668 111.957C366.788 112.507 366.092 113.245 365.58 114.173C365.069 115.101 364.813 116.138 364.813 117.284C364.813 118.411 365.059 119.434 365.552 120.352C366.054 121.271 366.736 122 367.597 122.54C368.469 123.07 369.463 123.335 370.58 123.335C371.414 123.335 372.19 123.174 372.91 122.852C373.629 122.53 374.254 122.085 374.785 121.517C375.325 120.939 375.746 120.286 376.049 119.557C376.362 118.818 376.518 118.046 376.518 117.241C376.518 116.152 376.262 115.144 375.751 114.216C375.249 113.288 374.558 112.545 373.677 111.986C372.796 111.418 371.792 111.134 370.665 111.134ZM395.016 132.114V112.909H398.837V132.114H395.016ZM387.331 124.415V120.594H406.536V124.415H387.331Z" fill="white" fill-opacity="0.95"/>
</svg>
