<svg width="33" height="33" viewBox="0 0 33 33" fill="none" xmlns="http://www.w3.org/2000/svg">
<path d="M17.9139 16.5L26.2069 8.20701C26.2997 8.11416 26.3734 8.00393 26.4236 7.88262C26.4739 7.76131 26.4997 7.63128 26.4997 7.49997C26.4997 7.36867 26.4738 7.23865 26.4236 7.11733C26.3733 6.99602 26.2997 6.8858 26.2068 6.79295C26.114 6.7001 26.0038 6.62646 25.8824 6.57621C25.7611 6.52596 25.6311 6.5001 25.4998 6.5001C25.3685 6.50011 25.2385 6.52597 25.1172 6.57622C24.9958 6.62648 24.8856 6.70013 24.7928 6.79298L16.4998 15.086L8.20677 6.79298C8.11412 6.69927 8.00385 6.62479 7.88231 6.57384C7.76077 6.52289 7.63035 6.49647 7.49857 6.4961C7.36678 6.49573 7.23622 6.52141 7.11439 6.57167C6.99257 6.62193 6.88188 6.69578 6.78869 6.78897C6.69551 6.88216 6.62166 6.99285 6.57141 7.11468C6.52115 7.23651 6.49547 7.36707 6.49585 7.49886C6.49623 7.63065 6.52266 7.76106 6.57362 7.8826C6.62457 8.00413 6.69905 8.1144 6.79277 8.20705L15.0858 16.5001L6.79277 24.7931C6.69992 24.8859 6.62627 24.9961 6.57602 25.1174C6.52577 25.2388 6.49991 25.3688 6.49991 25.5001C6.49991 25.6314 6.52577 25.7614 6.57602 25.8827C6.62627 26.004 6.69992 26.1143 6.79277 26.2071C6.88562 26.3 6.99584 26.3736 7.11716 26.4239C7.23847 26.4741 7.36849 26.5 7.4998 26.5C7.63111 26.5 7.76113 26.4741 7.88244 26.4239C8.00376 26.3736 8.11398 26.3 8.20683 26.2071L16.4998 17.9141L24.7928 26.2071C24.9803 26.3946 25.2347 26.5 25.4999 26.5C25.7651 26.5 26.0194 26.3946 26.2069 26.2071C26.3944 26.0196 26.4998 25.7653 26.4998 25.5001C26.4998 25.2349 26.3944 24.9806 26.2069 24.7931L17.9139 16.5Z" fill="white" fill-opacity="0.95"/>
</svg>
