<svg width="32" height="33" viewBox="0 0 32 33" fill="none" xmlns="http://www.w3.org/2000/svg">
<path d="M6 9.5H26.0005C26.2657 9.5 26.5201 9.39464 26.7076 9.20711C26.8951 9.01957 27.0005 8.76522 27.0005 8.5C27.0005 8.23478 26.8951 7.98043 26.7076 7.79289C26.5201 7.60536 26.2657 7.5 26.0005 7.5H6C5.73478 7.5 5.48043 7.60536 5.29289 7.79289C5.10536 7.98043 5 8.23478 5 8.5C5 8.76522 5.10536 9.01957 5.29289 9.20711C5.48043 9.39464 5.73478 9.5 6 9.5Z" fill="white" fill-opacity="0.95"/>
<path d="M26.0005 15.5H6C5.73478 15.5 5.48043 15.6054 5.29289 15.7929C5.10536 15.9804 5 16.2348 5 16.5C5 16.7652 5.10536 17.0196 5.29289 17.2071C5.48043 17.3946 5.73478 17.5 6 17.5H26.0005C26.2657 17.5 26.5201 17.3946 26.7076 17.2071C26.8951 17.0196 27.0005 16.7652 27.0005 16.5C27.0005 16.2348 26.8951 15.9804 26.7076 15.7929C26.5201 15.6054 26.2657 15.5 26.0005 15.5Z" fill="white" fill-opacity="0.95"/>
<path d="M26.0005 23.5H6C5.73478 23.5 5.48043 23.6054 5.29289 23.7929C5.10536 23.9804 5 24.2348 5 24.5C5 24.7652 5.10536 25.0196 5.29289 25.2071C5.48043 25.3946 5.73478 25.5 6 25.5H26.0005C26.2657 25.5 26.5201 25.3946 26.7076 25.2071C26.8951 25.0196 27.0005 24.7652 27.0005 24.5C27.0005 24.2348 26.8951 23.9804 26.7076 23.7929C26.5201 23.6054 26.2657 23.5 26.0005 23.5Z" fill="white" fill-opacity="0.95"/>
</svg>
