<svg width="17" height="16" viewBox="0 0 17 16" fill="none" xmlns="http://www.w3.org/2000/svg">
<path d="M15.2448 4.7348C15.1744 4.66449 15.0791 4.625 14.9796 4.625C14.8802 4.625 14.7848 4.66449 14.7145 4.7348L8.97942 10.4698L3.24442 4.7348C3.17333 4.66856 3.0793 4.63249 2.98215 4.63421C2.885 4.63592 2.79231 4.67528 2.7236 4.74398C2.6549 4.81269 2.61554 4.90538 2.61383 5.00253C2.61211 5.09968 2.64818 5.19371 2.71442 5.26479L8.71442 11.2648C8.78474 11.3351 8.88012 11.3746 8.97957 11.3746C9.07901 11.3746 9.17439 11.3351 9.24472 11.2648L15.2447 5.26479C15.3149 5.19449 15.3544 5.09918 15.3544 4.99981C15.3544 4.90043 15.315 4.80511 15.2448 4.7348Z" fill="white" fill-opacity="0.95"/>
</svg>
