<svg width="24" height="25" viewBox="0 0 24 25" fill="none" xmlns="http://www.w3.org/2000/svg">
<path d="M19 3.9209C19.5304 3.9209 20.0391 4.13161 20.4142 4.50669C20.7893 4.88176 21 5.39047 21 5.9209V19.9209C21 20.4513 20.7893 20.96 20.4142 21.3351C20.0391 21.7102 19.5304 21.9209 19 21.9209H5C4.46957 21.9209 3.96086 21.7102 3.58579 21.3351C3.21071 20.96 3 20.4513 3 19.9209V5.9209C3 5.39047 3.21071 4.88176 3.58579 4.50669C3.96086 4.13161 4.46957 3.9209 5 3.9209H19ZM18.5 19.4209V14.1209C18.5 13.2563 18.1565 12.4271 17.5452 11.8157C16.9338 11.2044 16.1046 10.8609 15.24 10.8609C14.39 10.8609 13.4 11.3809 12.92 12.1609V11.0509H10.13V19.4209H12.92V14.4909C12.92 13.7209 13.54 13.0909 14.31 13.0909C14.6813 13.0909 15.0374 13.2384 15.2999 13.501C15.5625 13.7635 15.71 14.1196 15.71 14.4909V19.4209H18.5ZM6.88 9.4809C7.32556 9.4809 7.75288 9.3039 8.06794 8.98884C8.383 8.67378 8.56 8.24646 8.56 7.8009C8.56 6.8709 7.81 6.1109 6.88 6.1109C6.43178 6.1109 6.00193 6.28895 5.68499 6.60589C5.36805 6.92283 5.19 7.35268 5.19 7.8009C5.19 8.7309 5.95 9.4809 6.88 9.4809ZM8.27 19.4209V11.0509H5.5V19.4209H8.27Z" fill="white"/>
</svg>
