<svg width="24" height="25" viewBox="0 0 24 25" fill="none" xmlns="http://www.w3.org/2000/svg">
<path d="M10 15.9209L15.19 12.9209L10 9.9209V15.9209ZM21.56 8.0909C21.69 8.5609 21.78 9.1909 21.84 9.9909C21.91 10.7909 21.94 11.4809 21.94 12.0809L22 12.9209C22 15.1109 21.84 16.7209 21.56 17.7509C21.31 18.6509 20.73 19.2309 19.83 19.4809C19.36 19.6109 18.5 19.7009 17.18 19.7609C15.88 19.8309 14.69 19.8609 13.59 19.8609L12 19.9209C7.81 19.9209 5.2 19.7609 4.17 19.4809C3.27 19.2309 2.69 18.6509 2.44 17.7509C2.31 17.2809 2.22 16.6509 2.16 15.8509C2.09 15.0509 2.06 14.3609 2.06 13.7609L2 12.9209C2 10.7309 2.16 9.1209 2.44 8.0909C2.69 7.1909 3.27 6.6109 4.17 6.3609C4.64 6.2309 5.5 6.1409 6.82 6.0809C8.12 6.0109 9.31 5.9809 10.41 5.9809L12 5.9209C16.19 5.9209 18.8 6.0809 19.83 6.3609C20.73 6.6109 21.31 7.1909 21.56 8.0909Z" fill="white"/>
</svg>
