<svg width="16" height="16" viewBox="0 0 16 16" fill="none" xmlns="http://www.w3.org/2000/svg">
<path d="M13 13.6247H3C2.90054 13.6247 2.80516 13.6643 2.73483 13.7346C2.66451 13.8049 2.625 13.9003 2.625 13.9997C2.625 14.0992 2.66451 14.1946 2.73483 14.2649C2.80516 14.3352 2.90054 14.3747 3 14.3747H13C13.0995 14.3747 13.1948 14.3352 13.2652 14.2649C13.3355 14.1946 13.375 14.0992 13.375 13.9997C13.375 13.9003 13.3355 13.8049 13.2652 13.7346C13.1948 13.6643 13.0995 13.6247 13 13.6247Z" fill="white" fill-opacity="0.95"/>
<path d="M3.50125 12.373L5.2937 12.3745C5.5255 12.3739 5.74768 12.2817 5.9119 12.1181L12.7519 5.27815C12.9549 5.08011 13.1166 4.84372 13.2276 4.58271C13.3386 4.32169 13.3967 4.04124 13.3984 3.75762C13.4002 3.47399 13.3457 3.19284 13.2379 2.93046C13.1302 2.66808 12.9715 2.4297 12.7709 2.22914C12.5703 2.02859 12.332 1.86984 12.0696 1.76212C11.8072 1.6544 11.5261 1.59984 11.2424 1.6016C10.9588 1.60337 10.6784 1.66143 10.4173 1.77242C10.1563 1.8834 9.91994 2.04511 9.7219 2.24815L2.8811 9.08815C2.79968 9.16943 2.73515 9.26603 2.69124 9.37237C2.64733 9.47871 2.6249 9.5927 2.62525 9.70775L2.6272 11.4985C2.62757 11.7303 2.71976 11.9524 2.88358 12.1163C3.04741 12.2803 3.26951 12.3726 3.50125 12.373ZM10.2517 2.77805C10.5129 2.51681 10.8673 2.37005 11.2367 2.37005C11.6061 2.37005 11.9605 2.51681 12.2217 2.77805C12.4829 3.03929 12.6297 3.3936 12.6297 3.76305C12.6297 4.13249 12.4829 4.48681 12.2217 4.74805L11.7941 5.1757C10.7721 5.08788 9.80575 4.6726 9.0387 3.9916L10.2517 2.77805ZM3.4117 9.61805L8.5082 4.5218C9.24922 5.18732 10.1553 5.64173 11.1319 5.8376L5.3811 11.5881C5.36964 11.5997 5.35603 11.6088 5.34103 11.615C5.32603 11.6213 5.30994 11.6245 5.2937 11.6245L3.5022 11.623C3.46905 11.623 3.43725 11.6099 3.41381 11.5864C3.39037 11.563 3.3772 11.5312 3.3772 11.498L3.37525 9.7073C3.37542 9.67395 3.38837 9.64187 3.4117 9.61805Z" fill="white" fill-opacity="0.95"/>
</svg>
