<svg width="16" height="16" viewBox="0 0 16 16" fill="none" xmlns="http://www.w3.org/2000/svg">
<path d="M5.5 14.3755C4.86975 14.3742 4.26574 14.1229 3.8205 13.6769C3.37525 13.2308 3.12513 12.6263 3.125 11.9961L3.1255 5.49851C3.12613 5.26715 3.21826 5.04544 3.38179 4.88177C3.54532 4.71811 3.76695 4.62579 3.99831 4.62497H6.063C5.93976 4.35238 5.87544 4.05685 5.87423 3.7577C5.87302 3.45856 5.93496 3.16252 6.05599 2.88894C6.17702 2.61537 6.35443 2.37041 6.57661 2.17009C6.79879 1.96977 7.06074 1.81859 7.34534 1.72644C7.62995 1.63429 7.9308 1.60323 8.22822 1.6353C8.52565 1.66737 8.81296 1.76185 9.07138 1.91256C9.3298 2.06327 9.5535 2.26682 9.72787 2.5099C9.90223 2.75298 10.0233 3.03012 10.0833 3.32321C10.1704 3.76199 10.1192 4.21699 9.93676 4.62546H12.0003C12.2321 4.62562 12.4543 4.71774 12.6183 4.88161C12.7822 5.04547 12.8745 5.26768 12.8748 5.49948V7.76901C12.8746 7.88007 12.8451 7.98911 12.7893 8.08513C12.7335 8.18115 12.6533 8.26075 12.5569 8.31589C12.4643 8.37009 12.3588 8.39854 12.2515 8.39828C12.1442 8.39803 12.0389 8.36907 11.9465 8.31442C11.6594 8.15271 11.3246 8.09708 11.0006 8.15724C10.6766 8.2174 10.384 8.38952 10.1741 8.64353C9.97373 8.89438 9.86749 9.20744 9.87379 9.52843C9.88008 9.84941 9.99852 10.1581 10.2086 10.4009C10.4186 10.6437 10.707 10.8053 11.0237 10.8577C11.3405 10.9102 11.6656 10.8501 11.9426 10.688C12.0364 10.6327 12.1432 10.6033 12.2521 10.6029C12.361 10.6024 12.468 10.631 12.5623 10.6855C12.6573 10.7403 12.7362 10.819 12.7911 10.9139C12.8461 11.0088 12.8751 11.1164 12.8753 11.226L12.8758 13.5005C12.876 13.6153 12.8536 13.729 12.8098 13.8351C12.766 13.9413 12.7017 14.0377 12.6206 14.1189C12.5394 14.2001 12.443 14.2645 12.3369 14.3084C12.2308 14.3522 12.117 14.3747 12.0022 14.3745H11.9988L5.5 14.3755ZM3.99975 5.37496C3.98337 5.3748 3.96713 5.37792 3.95196 5.38413C3.9368 5.39033 3.92303 5.3995 3.91146 5.41109C3.89989 5.42269 3.89074 5.43648 3.88457 5.45165C3.87839 5.46682 3.8753 5.48307 3.87548 5.49946L3.875 11.9961C3.87491 12.4275 4.04595 12.8413 4.35059 13.1468C4.65523 13.4522 5.06859 13.6244 5.5 13.6255L12.0002 13.6245H12.0007C12.0172 13.6249 12.0335 13.622 12.0487 13.616C12.064 13.6099 12.0779 13.6009 12.0896 13.5893C12.1013 13.5778 12.1105 13.564 12.1167 13.5488C12.1229 13.5336 12.126 13.5173 12.1257 13.5009L12.1252 11.4365C11.6907 11.6336 11.2024 11.6787 10.739 11.5645C10.2757 11.4502 9.86431 11.1833 9.57119 10.8067C9.27808 10.4301 9.1203 9.96581 9.12329 9.48861C9.12627 9.01141 9.28984 8.54911 9.58764 8.17622C9.88221 7.80653 10.2916 7.54554 10.751 7.43447C11.2105 7.32341 11.6939 7.36861 12.1248 7.56293V5.49948C12.1247 5.46653 12.1115 5.43495 12.0882 5.4117C12.0648 5.38844 12.0332 5.3754 12.0003 5.37546H9.72976C9.6195 5.37529 9.51122 5.3461 9.41582 5.29081C9.32043 5.23553 9.24126 5.1561 9.1863 5.06052C9.13157 4.96672 9.10289 4.86001 9.10323 4.75141C9.10357 4.64282 9.13292 4.53629 9.18825 4.44284C9.31009 4.23374 9.37458 3.99618 9.37522 3.75417C9.37585 3.51215 9.31261 3.27426 9.19187 3.06452C9.07113 2.85478 8.89717 2.68061 8.68757 2.55963C8.47797 2.43864 8.24015 2.37511 7.99814 2.37546C7.75613 2.37581 7.51849 2.44002 7.30924 2.56161C7.09999 2.68321 6.92654 2.85787 6.80641 3.06796C6.68627 3.27805 6.62371 3.51612 6.62504 3.75813C6.62638 4.00014 6.69156 4.23751 6.814 4.44627C6.86879 4.53865 6.89786 4.64401 6.8982 4.75142C6.89854 4.85883 6.87014 4.96437 6.81595 5.05711C6.76094 5.15347 6.68148 5.2336 6.58559 5.28942C6.48969 5.34523 6.38076 5.37475 6.26981 5.37498L3.99975 5.37496Z" fill="white" fill-opacity="0.95"/>
</svg>
