<svg width="16" height="16" viewBox="0 0 16 16" fill="none" xmlns="http://www.w3.org/2000/svg">
<path d="M8.21684 3.77795C7.67987 4.31493 7.67987 5.18553 8.21684 5.7225L10.3382 7.84382C10.8751 8.38079 11.7457 8.38079 12.2827 7.84382L14.404 5.7225C14.941 5.18553 14.941 4.31493 14.404 3.77795L12.2827 1.65663C11.7457 1.11966 10.8751 1.11966 10.3382 1.65663L8.21684 3.77795ZM8.74717 5.19217C8.5031 4.94809 8.5031 4.55236 8.74717 4.30828L10.8685 2.18696C11.1126 1.94289 11.5083 1.94289 11.7524 2.18696L13.8737 4.30828C14.1178 4.55236 14.1178 4.94809 13.8737 5.19217L11.7524 7.31349C11.5083 7.55757 11.1126 7.55757 10.8685 7.31349L8.74717 5.19217ZM2.625 1.75023C1.86561 1.75023 1.25 2.36584 1.25 3.12523V6.12523C1.25 6.88462 1.86561 7.50023 2.625 7.50023H5.625C6.38439 7.50023 7 6.88462 7 6.12523V3.12523C7 2.36584 6.38439 1.75023 5.625 1.75023H2.625ZM2 3.12523C2 2.78005 2.27982 2.50023 2.625 2.50023H5.625C5.97018 2.50023 6.25 2.78005 6.25 3.12523V6.12523C6.25 6.4704 5.97018 6.75023 5.625 6.75023H2.625C2.27982 6.75023 2 6.4704 2 6.12523V3.12523ZM2.625 9.00023C1.86561 9.00023 1.25 9.61584 1.25 10.3752V13.3752C1.25 14.1346 1.86561 14.7502 2.625 14.7502H5.625C6.38439 14.7502 7 14.1346 7 13.3752V10.3752C7 9.61584 6.38439 9.00023 5.625 9.00023H2.625ZM2 10.3752C2 10.03 2.27982 9.75023 2.625 9.75023H5.625C5.97018 9.75023 6.25 10.03 6.25 10.3752V13.3752C6.25 13.7204 5.97018 14.0002 5.625 14.0002H2.625C2.27982 14.0002 2 13.7204 2 13.3752V10.3752ZM8.75 10.3752C8.75 9.61584 9.36561 9.00023 10.125 9.00023H13.125C13.8844 9.00023 14.5 9.61584 14.5 10.3752V13.3752C14.5 14.1346 13.8844 14.7502 13.125 14.7502H10.125C9.36561 14.7502 8.75 14.1346 8.75 13.3752V10.3752ZM10.125 9.75023C9.77982 9.75023 9.5 10.03 9.5 10.3752V13.3752C9.5 13.7204 9.77982 14.0002 10.125 14.0002H13.125C13.4702 14.0002 13.75 13.7204 13.75 13.3752V10.3752C13.75 10.03 13.4702 9.75023 13.125 9.75023H10.125Z" fill="white" fill-opacity="0.95"/>
</svg>
