<svg width="559" height="490" viewBox="0 0 559 490" fill="none" xmlns="http://www.w3.org/2000/svg">
<path d="M286.224 301.471C294.646 318.418 315.698 324.773 326.225 314.181C336.751 303.589 333.172 284.948 322.014 271.814C322.014 271.814 336.751 278.169 351.488 278.169C380.963 278.169 406.226 261.222 406.226 231.564C406.226 214.617 393.594 201.907 372.541 201.907C313.593 201.907 317.804 292.998 258.856 292.998C238.013 292.998 220.96 280.287 220.96 264.399C220.96 248.511 238.013 235.801 258.856 235.801C288.33 235.801 290.435 256.985 279.908 256.985C267.277 256.985 246.224 235.801 246.224 193.433C246.224 165.259 263.277 142.592 284.119 142.592C304.961 142.592 322.014 165.259 322.014 193.433C322.014 208.262 317.804 218.854 317.804 218.854M253.254 329.218C231.725 358.226 201.225 379.982 174.313 379.982C154.488 379.982 138.431 363.755 138.431 343.722C138.431 323.688 154.488 307.462 174.313 307.462C194.138 307.462 210.196 323.688 210.196 343.722C210.196 387.234 159.96 408.99 124.078 416.242" stroke="white" stroke-width="3.85441" stroke-miterlimit="10" stroke-linecap="round" stroke-linejoin="round"/>
<path d="M95.3437 262.633C95.5303 260.092 98.7029 259.055 100.354 260.995L106.83 268.604C107.529 269.425 108.631 269.781 109.679 269.524L119.381 267.14C121.855 266.532 123.822 269.229 122.487 271.399L117.252 279.909C116.687 280.828 116.689 281.986 117.258 282.903L122.523 291.394C123.865 293.559 121.908 296.263 119.432 295.664L109.721 293.315C108.673 293.062 107.571 293.422 106.875 294.245L100.427 301.876C98.7823 303.822 95.606 302.796 95.4104 300.256L94.6436 290.295C94.5608 289.22 93.878 288.283 92.8796 287.876L83.6291 284.101C81.2705 283.139 81.2645 279.801 83.6198 278.83L92.8568 275.022C93.8538 274.611 94.5333 273.673 94.6122 272.597L95.3437 262.633Z" stroke="white" stroke-width="5.33583" stroke-linecap="round"/>
<path d="M323.775 386.357C323.961 383.816 327.134 382.779 328.785 384.719L335.261 392.327C335.96 393.149 337.062 393.505 338.11 393.247L347.812 390.864C350.286 390.256 352.253 392.953 350.918 395.123L345.683 403.633C345.118 404.551 345.12 405.71 345.689 406.627L350.954 415.118C352.296 417.283 350.339 419.987 347.863 419.388L338.152 417.039C337.104 416.785 336.002 417.145 335.306 417.969L328.858 425.6C327.213 427.546 324.037 426.52 323.841 423.98L323.075 414.019C322.992 412.944 322.309 412.007 321.311 411.6L312.06 407.825C309.701 406.863 309.696 403.525 312.051 402.554L321.288 398.746C322.285 398.335 322.964 397.397 323.043 396.321L323.775 386.357Z" stroke="white" stroke-width="5.33583" stroke-linecap="round"/>
<mask id="path-4-inside-1_1133_947" fill="white">
<path d="M198.453 62.5696C199.034 61.8493 200.196 62.1959 200.288 63.117L200.648 66.7294C200.687 67.1193 200.943 67.4538 201.309 67.5936L204.7 68.8892C205.565 69.2195 205.594 70.432 204.746 70.8039L201.422 72.2627C201.063 72.4201 200.824 72.7666 200.804 73.158L200.62 76.7836C200.573 77.708 199.429 78.1107 198.813 77.4195L196.399 74.7087C196.138 74.4161 195.735 74.2957 195.356 74.3978L191.851 75.3429C190.958 75.5839 190.221 74.6204 190.688 73.8212L192.52 70.6871C192.718 70.3488 192.708 69.9279 192.494 69.5997L190.512 66.5582C190.006 65.7827 190.695 64.7845 191.6 64.9818L195.146 65.7556C195.529 65.8392 195.926 65.6994 196.173 65.3945L198.453 62.5696Z"/>
</mask>
<path d="M195.146 65.7556L196.284 60.5424L196.284 60.5424L195.146 65.7556ZM196.173 65.3945L200.325 68.7458L200.325 68.7458L196.173 65.3945ZM190.512 66.5582L186.041 69.4715L186.041 69.4715L190.512 66.5582ZM191.6 64.9818L190.462 70.195L190.462 70.195L191.6 64.9818ZM192.52 70.6871L197.127 73.3798L197.127 73.3798L192.52 70.6871ZM192.494 69.5997L196.964 66.6864L196.964 66.6864L192.494 69.5997ZM191.851 75.3429L190.462 70.1911L190.462 70.1911L191.851 75.3429ZM190.688 73.8212L186.082 71.1286L186.082 71.1286L190.688 73.8212ZM196.399 74.7087L192.414 78.2577L192.414 78.2577L196.399 74.7087ZM195.356 74.3978L196.746 79.5496L196.746 79.5496L195.356 74.3978ZM200.62 76.7836L205.949 77.0543L200.62 76.7836ZM198.813 77.4195L202.798 73.8705L202.798 73.8705L198.813 77.4195ZM201.422 72.2627L199.278 67.3765L201.422 72.2627ZM200.804 73.158L195.475 72.8872L200.804 73.158ZM204.7 68.8892L202.796 73.8736L202.796 73.8736L204.7 68.8892ZM204.746 70.8039L206.891 75.69L204.746 70.8039ZM200.648 66.7294L205.958 66.2001L205.958 66.2001L200.648 66.7294ZM201.309 67.5936L203.213 62.6091L203.213 62.6091L201.309 67.5936ZM200.288 63.117L194.979 63.6463L194.979 63.6463L200.288 63.117ZM198.453 62.5696L194.301 59.2182L194.301 59.2183L198.453 62.5696ZM194.979 63.6463L195.339 67.2586L205.958 66.2001L205.598 62.5877L194.979 63.6463ZM199.404 72.5781L202.796 73.8736L206.604 63.9047L203.213 62.6091L199.404 72.5781ZM202.602 65.9178L199.278 67.3765L203.566 77.1488L206.891 75.69L202.602 65.9178ZM195.475 72.8872L195.291 76.5128L205.949 77.0543L206.133 73.4287L195.475 72.8872ZM202.798 73.8705L200.383 71.1596L192.414 78.2577L194.829 80.9685L202.798 73.8705ZM193.967 69.246L190.462 70.1911L193.241 80.4947L196.746 79.5496L193.967 69.246ZM195.295 76.5139L197.127 73.3798L187.914 67.9944L186.082 71.1286L195.295 76.5139ZM196.964 66.6864L194.982 63.645L186.041 69.4715L188.024 72.5129L196.964 66.6864ZM190.462 70.195L194.009 70.9688L196.284 60.5424L192.737 59.7686L190.462 70.195ZM200.325 68.7458L202.605 65.9209L194.301 59.2183L192.02 62.0431L200.325 68.7458ZM194.009 70.9688C196.365 71.4829 198.81 70.6224 200.325 68.7458L192.02 62.0431C193.043 60.7763 194.693 60.1954 196.284 60.5424L194.009 70.9688ZM194.982 63.645C197.082 66.8671 194.22 71.0148 190.462 70.195L192.737 59.7686C187.171 58.5542 182.931 64.6983 186.041 69.4715L194.982 63.645ZM197.127 73.3798C198.344 71.2977 198.281 68.7069 196.964 66.6864L188.024 72.5129C187.135 71.1489 187.092 69.4 187.914 67.9944L197.127 73.3798ZM190.462 70.1911C194.175 69.1898 197.236 73.1935 195.295 76.5139L186.082 71.1286C183.207 76.0472 187.74 81.9781 193.241 80.4947L190.462 70.1911ZM200.383 71.1596C198.779 69.3588 196.296 68.6181 193.967 69.246L196.746 79.5496C195.174 79.9734 193.497 79.4734 192.414 78.2577L200.383 71.1596ZM195.291 76.5128C195.486 72.6717 200.24 70.9985 202.798 73.8705L194.829 80.9685C198.619 85.2228 205.66 82.7442 205.949 77.0543L195.291 76.5128ZM199.278 67.3765C197.07 68.3456 195.598 70.4786 195.475 72.8872L206.133 73.4287C206.051 75.0546 205.057 76.4946 203.566 77.1488L199.278 67.3765ZM202.796 73.8736C199.203 72.5011 199.08 67.4633 202.602 65.9178L206.891 75.69C212.108 73.4007 211.926 65.9379 206.604 63.9047L202.796 73.8736ZM195.339 67.2586C195.578 69.6584 197.152 71.7174 199.404 72.5781L203.213 62.6091C204.734 63.1902 205.796 64.5801 205.958 66.2001L195.339 67.2586ZM205.598 62.5878C205.032 56.9185 197.879 54.7849 194.301 59.2182L202.605 65.9209C200.189 68.9137 195.36 67.4733 194.979 63.6463L205.598 62.5878Z" fill="white" mask="url(#path-4-inside-1_1133_947)"/>
<path d="M419.459 149.94L417.26 146.565L423.907 160.14L425.899 158.366C424.781 157.111 423.051 156.595 421.428 157.032L417.54 158.081L419.572 154.604C420.42 153.153 420.376 151.347 419.459 149.94Z" stroke="white" stroke-width="5.33583" stroke-linecap="round"/>
</svg>
