<svg width="32" height="32" viewBox="0 0 32 32" fill="none" xmlns="http://www.w3.org/2000/svg">
<path d="M28.5628 23.6739C28.409 23.0751 28.1336 22.5144 27.7537 22.0267C27.3738 21.539 26.8977 21.1346 26.3548 20.8389C26.3237 20.8222 26.2914 20.8078 26.2581 20.7959C26.2581 20.7959 25.4007 20.4814 24.6849 20.2783C24.4974 20.2256 24.1214 19.957 23.7054 18.7441L22.9681 16.7178C22.4783 15.3744 21.5922 14.2115 20.4271 13.3828C20.048 13.1265 19.6378 12.9196 19.2063 12.7672C20.2283 12.0791 21.0022 11.0809 21.4141 9.9197C21.8259 8.75852 21.8539 7.49576 21.494 6.31747C21.134 5.13917 20.4051 4.10765 19.4146 3.37488C18.4242 2.64211 17.2245 2.24684 15.9925 2.24731C14.7604 2.24779 13.5611 2.64397 12.5712 3.37749C11.5813 4.11102 10.8532 5.14309 10.4941 6.32166C10.135 7.50023 10.164 8.76297 10.5767 9.92384C10.9895 11.0847 11.7641 12.0823 12.7866 12.7697C12.358 12.9218 11.9503 13.1279 11.5736 13.3828C10.4011 14.218 9.51065 15.3904 9.02083 16.7441L8.29132 18.7559C7.87726 19.9571 7.50226 20.2257 7.31671 20.2784C6.59991 20.4815 5.74249 20.796 5.74249 20.796C5.70948 20.8077 5.67748 20.8221 5.64679 20.839C5.10358 21.1344 4.62708 21.5386 4.24702 22.0264C3.86696 22.5142 3.59148 23.075 3.43779 23.674C3.08511 24.9039 3.22449 26.2227 3.82647 27.3517C4.30872 28.3536 5.16082 29.1294 6.20347 29.5158C6.73071 29.6993 7.28916 29.7763 7.8464 29.7423C8.40365 29.7083 8.94858 29.5639 9.44956 29.3175L13.4164 27.3859C14.218 26.9799 15.1018 26.7624 16.0004 26.7502C16.8981 26.7624 17.7813 26.9795 18.5824 27.3849L22.5501 29.3185C23.0513 29.5644 23.5962 29.7085 24.1534 29.7424C24.7106 29.7762 25.269 29.6992 25.7962 29.5158C26.8388 29.1289 27.6911 28.3533 28.1742 27.3517C28.7755 26.2225 28.9149 24.9039 28.5628 23.6739ZM11.7444 8.00005C11.7444 7.15948 11.9937 6.33779 12.4607 5.63888C12.9277 4.93997 13.5914 4.39524 14.368 4.07357C15.1446 3.75189 15.9992 3.66773 16.8236 3.83172C17.648 3.9957 18.4053 4.40048 18.9996 4.99485C19.594 5.58922 19.9988 6.3465 20.1628 7.17092C20.3268 7.99534 20.2426 8.84987 19.9209 9.62646C19.5993 10.403 19.0545 11.0668 18.3556 11.5338C17.6567 12.0008 16.835 12.2501 15.9944 12.2501C14.8676 12.2489 13.7873 11.8007 12.9905 11.004C12.1938 10.2072 11.7456 9.12686 11.7444 8.00005ZM26.8509 26.6456C26.5445 27.3126 25.9898 27.8336 25.305 28.0977C24.9641 28.2161 24.6031 28.2658 24.2429 28.2438C23.8827 28.2219 23.5304 28.1287 23.2064 27.9698L19.2396 26.0362C18.2376 25.5194 17.1266 25.2499 15.9992 25.2501C14.8718 25.2502 13.7609 25.5201 12.7591 26.0372L8.79327 27.9688C8.46937 28.1286 8.1169 28.2222 7.75643 28.2444C7.39595 28.2665 7.03467 28.2167 6.69366 28.0977C6.00945 27.8337 5.45566 27.3125 5.15066 26.6456C4.73145 25.8585 4.6348 24.9392 4.88113 24.0821C4.98154 23.687 5.15957 23.3158 5.40486 22.9902C5.65015 22.6646 5.95778 22.3911 6.30984 22.1856C6.49637 22.1182 7.15848 21.8829 7.72584 21.7217C8.84889 21.4014 9.39576 20.1544 9.70533 19.2559L10.4202 17.2823C10.8019 16.2102 11.5021 15.2803 12.427 14.6173C13.52 14.0162 14.7533 13.7169 16.0002 13.7501C17.2472 13.7169 18.4805 14.0162 19.5735 14.6173C20.4914 15.2735 21.1874 16.194 21.5687 17.2559L22.2913 19.2432C22.6028 20.1534 23.1487 21.4015 24.2757 21.7218C24.8421 21.8819 25.5032 22.1182 25.6907 22.1856C26.0428 22.3911 26.3504 22.6647 26.5957 22.9903C26.841 23.3159 27.019 23.687 27.1194 24.0821C27.3655 24.9391 27.2692 25.8582 26.8509 26.6456Z" fill="#93C437"/>
<path d="M19.0003 21.2501H13.0003C12.8014 21.2501 12.6106 21.3291 12.47 21.4697C12.3293 21.6104 12.2503 21.8011 12.2503 22.0001C12.2503 22.199 12.3293 22.3897 12.47 22.5304C12.6106 22.671 12.8014 22.7501 13.0003 22.7501H19.0003C19.1992 22.7501 19.39 22.671 19.5306 22.5304C19.6713 22.3897 19.7503 22.199 19.7503 22.0001C19.7503 21.8011 19.6713 21.6104 19.5306 21.4697C19.39 21.3291 19.1992 21.2501 19.0003 21.2501Z" fill="#93C437"/>
</svg>
