<svg width="44" height="44" viewBox="0 0 44 44" fill="none" xmlns="http://www.w3.org/2000/svg">
<path d="M31.6251 3.09375H12.3751C10.6435 3.09572 8.98342 3.78446 7.759 5.00888C6.53458 6.2333 5.84584 7.89341 5.84387 9.625V34.375C5.84584 36.1066 6.53458 37.7667 7.759 38.9911C8.98342 40.2155 10.6435 40.9043 12.3751 40.9062H31.6251C33.3567 40.9043 35.0168 40.2155 36.2412 38.9911C37.4657 37.7667 38.1544 36.1066 38.1564 34.375V9.625C38.1544 7.89341 37.4657 6.2333 36.2412 5.00888C35.0168 3.78446 33.3567 3.09572 31.6251 3.09375ZM36.0939 34.375C36.0925 35.5598 35.6212 36.6956 34.7835 37.5334C33.9457 38.3711 32.8099 38.8424 31.6251 38.8438H12.3751C11.1904 38.8424 10.0545 38.3711 9.21675 37.5334C8.379 36.6956 7.90774 35.5598 7.90637 34.375V9.625C7.90774 8.44023 8.379 7.30439 9.21675 6.46663C10.0545 5.62888 11.1904 5.15762 12.3751 5.15625H31.6251C32.8099 5.15762 33.9457 5.62888 34.7835 6.46663C35.6212 7.30439 36.0925 8.44023 36.0939 9.625V34.375Z" fill="white" fill-opacity="0.95"/>
<path d="M30.2501 19.5938H13.7501C13.4766 19.5938 13.2143 19.7024 13.0209 19.8958C12.8275 20.0892 12.7189 20.3515 12.7189 20.625C12.7189 20.8985 12.8275 21.1608 13.0209 21.3542C13.2143 21.5476 13.4766 21.6562 13.7501 21.6562H30.2501C30.5236 21.6562 30.7859 21.5476 30.9793 21.3542C31.1727 21.1608 31.2814 20.8985 31.2814 20.625C31.2814 20.3515 31.1727 20.0892 30.9793 19.8958C30.7859 19.7024 30.5236 19.5938 30.2501 19.5938Z" fill="white" fill-opacity="0.95"/>
<path d="M30.2501 25.0938H13.7501C13.4766 25.0938 13.2143 25.2024 13.0209 25.3958C12.8275 25.5892 12.7189 25.8515 12.7189 26.125C12.7189 26.3985 12.8275 26.6608 13.0209 26.8542C13.2143 27.0476 13.4766 27.1562 13.7501 27.1562H30.2501C30.5236 27.1562 30.7859 27.0476 30.9793 26.8542C31.1727 26.6608 31.2814 26.3985 31.2814 26.125C31.2814 25.8515 31.1727 25.5892 30.9793 25.3958C30.7859 25.2024 30.5236 25.0938 30.2501 25.0938Z" fill="white" fill-opacity="0.95"/>
<path d="M23.3751 30.5938H13.7528C13.4793 30.5938 13.217 30.7024 13.0236 30.8958C12.8302 31.0892 12.7216 31.3515 12.7216 31.625C12.7216 31.8985 12.8302 32.1608 13.0236 32.3542C13.217 32.5476 13.4793 32.6562 13.7528 32.6562H23.3751C23.6486 32.6562 23.9109 32.5476 24.1043 32.3542C24.2977 32.1608 24.4064 31.8985 24.4064 31.625C24.4064 31.3515 24.2977 31.0892 24.1043 30.8958C23.9109 30.7024 23.6486 30.5938 23.3751 30.5938Z" fill="white" fill-opacity="0.95"/>
</svg>
