<svg width="64" height="64" viewBox="0 0 64 64" fill="none" xmlns="http://www.w3.org/2000/svg">
<path d="M46.0001 4.49905H18.0001C15.4814 4.50191 13.0667 5.50372 11.2857 7.2847C9.50477 9.06567 8.50297 11.4804 8.50011 13.9991V49.9991C8.50297 52.5177 9.50477 54.9324 11.2857 56.7134C13.0667 58.4944 15.4814 59.4962 18.0001 59.4991H46.0001C48.5188 59.4962 50.9335 58.4944 52.7145 56.7134C54.4954 54.9324 55.4972 52.5177 55.5001 49.9991V13.9991C55.4972 11.4804 54.4954 9.06567 52.7145 7.2847C50.9335 5.50372 48.5188 4.50191 46.0001 4.49905ZM52.5001 49.9991C52.4981 51.7224 51.8127 53.3745 50.5941 54.593C49.3755 55.8116 47.7234 56.4971 46.0001 56.4991H18.0001C16.2768 56.4971 14.6247 55.8116 13.4061 54.593C12.1876 53.3745 11.5021 51.7223 11.5001 49.9991V13.9991C11.5021 12.2758 12.1876 10.6236 13.4061 9.40506C14.6247 8.18651 16.2768 7.50105 18.0001 7.49905H46.0001C47.7234 7.50104 49.3755 8.1865 50.5941 9.40506C51.8127 10.6236 52.4981 12.2758 52.5001 13.9991V49.9991Z" fill="white" fill-opacity="0.95"/>
<path d="M25.0607 32.9385C24.9214 32.7992 24.7561 32.6887 24.5741 32.6133C24.3921 32.5379 24.1971 32.4991 24.0001 32.4991C23.8031 32.4991 23.6081 32.5379 23.4261 32.6133C23.2441 32.6887 23.0788 32.7992 22.9396 32.9385L16.9396 38.9385C16.8002 39.0778 16.6897 39.2431 16.6143 39.4251C16.5389 39.607 16.5001 39.8021 16.5001 39.9991C16.5001 40.196 16.5389 40.3911 16.6143 40.573C16.6897 40.755 16.8002 40.9203 16.9396 41.0596L22.9396 47.0596C23.221 47.34 23.6022 47.4972 23.9995 47.4968C24.3968 47.4964 24.7777 47.3384 25.0586 47.0575C25.3395 46.7766 25.4975 46.3957 25.4979 45.9985C25.4983 45.6012 25.341 45.22 25.0607 44.9385L20.1212 39.9991L25.0607 35.0596C25.2 34.9203 25.3105 34.755 25.3859 34.573C25.4613 34.3911 25.5001 34.196 25.5001 33.9991C25.5001 33.8021 25.4613 33.607 25.3859 33.4251C25.3105 33.2431 25.2 33.0778 25.0607 32.9385Z" fill="white" fill-opacity="0.95"/>
<path d="M41.0607 32.9385C40.7792 32.6581 40.398 32.5009 40.0007 32.5013C39.6035 32.5017 39.2226 32.6597 38.9417 32.9406C38.6607 33.2215 38.5027 33.6024 38.5024 33.9997C38.502 34.3969 38.6592 34.7781 38.9396 35.0596L43.879 39.9991L38.9396 44.9385C38.7998 45.0777 38.6889 45.2431 38.6132 45.4251C38.5375 45.6072 38.4984 45.8025 38.4982 45.9997C38.498 46.1969 38.5367 46.3922 38.6121 46.5744C38.6875 46.7567 38.7981 46.9222 38.9375 47.0617C39.0769 47.2011 39.2425 47.3117 39.4248 47.3871C39.607 47.4625 39.8023 47.5012 39.9995 47.501C40.1967 47.5008 40.392 47.4617 40.574 47.386C40.7561 47.3102 40.9215 47.1993 41.0607 47.0596L47.0607 41.0596C47.2 40.9203 47.3105 40.755 47.3859 40.573C47.4613 40.3911 47.5001 40.196 47.5001 39.9991C47.5001 39.8021 47.4613 39.607 47.3859 39.4251C47.3105 39.2431 47.2 39.0778 47.0607 38.9385L41.0607 32.9385Z" fill="white" fill-opacity="0.95"/>
<path d="M34.4747 32.5752C34.0971 32.4498 33.6851 32.4793 33.3292 32.6573C32.9733 32.8352 32.7025 33.1471 32.5763 33.5245L28.5763 45.5245C28.4509 45.9021 28.4804 46.3141 28.6583 46.67C28.8363 47.0259 29.1481 47.2967 29.5255 47.4229C29.6788 47.4727 29.8389 47.4984 30.0001 47.4991C30.315 47.499 30.6219 47.4 30.8774 47.216C31.1329 47.032 31.3241 46.7723 31.4239 46.4737L35.4239 34.4737C35.5494 34.096 35.5199 33.6841 35.3419 33.3282C35.164 32.9723 34.8521 32.7015 34.4747 32.5752Z" fill="white" fill-opacity="0.95"/>
</svg>
