<svg width="64" height="64" viewBox="0 0 64 64" fill="none" xmlns="http://www.w3.org/2000/svg">
<path d="M38.9992 16.502C37.7137 16.502 36.457 16.8832 35.388 17.5974C34.3191 18.3117 33.486 19.3268 32.994 20.5146C32.5021 21.7023 32.3733 23.0092 32.6241 24.2701C32.8749 25.531 33.494 26.6892 34.403 27.5982C35.3121 28.5072 36.4703 29.1263 37.7311 29.3771C38.992 29.6279 40.299 29.4992 41.4867 29.0072C42.6744 28.5152 43.6896 27.6821 44.4038 26.6132C45.118 25.5443 45.4992 24.2876 45.4992 23.002C45.4972 21.2787 44.8118 19.6266 43.5932 18.408C42.3747 17.1895 40.7225 16.504 38.9992 16.502ZM38.9992 26.502C38.307 26.502 37.6303 26.2967 37.0547 25.9121C36.4792 25.5276 36.0306 24.9809 35.7657 24.3414C35.5008 23.7019 35.4314 22.9981 35.5665 22.3192C35.7015 21.6402 36.0349 21.0166 36.5244 20.5271C37.0138 20.0376 37.6375 19.7043 38.3164 19.5693C38.9954 19.4342 39.6991 19.5035 40.3386 19.7684C40.9782 20.0333 41.5248 20.4819 41.9094 21.0575C42.294 21.6331 42.4992 22.3098 42.4992 23.002C42.4981 23.9299 42.129 24.8195 41.4729 25.4756C40.8167 26.1318 39.9272 26.5009 38.9992 26.502Z" fill="white" fill-opacity="0.95"/>
<path d="M45.9992 4.5H17.9992C15.4806 4.50286 13.0659 5.50467 11.2849 7.28564C9.5039 9.06662 8.5021 11.4813 8.49924 14V50C8.5021 52.5187 9.5039 54.9334 11.2849 56.7144C13.0659 58.4953 15.4806 59.4971 17.9992 59.5H45.9992C48.5179 59.4971 50.9326 58.4953 52.7136 56.7144C54.4946 54.9334 55.4964 52.5187 55.4992 50V14C55.4964 11.4813 54.4946 9.06662 52.7136 7.28564C50.9326 5.50467 48.5179 4.50286 45.9992 4.5ZM17.9992 56.5C16.5888 56.4952 15.2183 56.0309 14.0953 55.1776C12.9723 54.3242 12.1579 53.1282 11.7754 51.7706L22.4134 38.0546C22.9929 37.2943 23.7336 36.6717 24.5821 36.2314C25.4307 35.791 26.3662 35.5439 27.3216 35.5077C28.2713 35.4751 29.2168 35.6489 30.0928 36.0171C30.9689 36.3853 31.7546 36.9392 32.3958 37.6406L48.366 56.0385C47.6132 56.3399 46.8102 56.4965 45.9993 56.5L17.9992 56.5ZM52.4992 50C52.4938 51.5915 51.9 53.1247 50.832 54.3047L34.6438 35.6562C33.7115 34.6176 32.5618 33.7972 31.2764 33.2533C29.9911 32.7094 28.6017 32.4555 27.2071 32.5096C25.8124 32.5637 24.4468 32.9244 23.2075 33.5662C21.9681 34.2079 20.8854 35.1149 20.0363 36.2227L11.4992 47.2296V14C11.5012 12.2767 12.1867 10.6246 13.4052 9.40601C14.6238 8.18746 16.2759 7.502 17.9992 7.5H45.9992C47.7225 7.502 49.3747 8.18746 50.5932 9.40601C51.8118 10.6246 52.4972 12.2767 52.4992 14V50Z" fill="white" fill-opacity="0.95"/>
</svg>
