<svg width="64" height="64" viewBox="0 0 64 64" fill="none" xmlns="http://www.w3.org/2000/svg">
<path d="M45.9996 4.49905H17.9996C15.481 4.50191 13.0663 5.50372 11.2853 7.2847C9.5043 9.06567 8.50249 11.4804 8.49963 13.9991V49.9991C8.50249 52.5177 9.5043 54.9324 11.2853 56.7134C13.0663 58.4944 15.481 59.4962 17.9996 59.4991H45.9996C48.5183 59.4962 50.933 58.4944 52.714 56.7134C54.495 54.9324 55.4968 52.5177 55.4996 49.9991V13.9991C55.4968 11.4804 54.495 9.06567 52.714 7.2847C50.933 5.50372 48.5183 4.50191 45.9996 4.49905ZM52.4996 49.9991C52.4976 51.7223 51.8122 53.3745 50.5936 54.593C49.3751 55.8116 47.7229 56.4971 45.9996 56.4991H17.9996C16.2763 56.4971 14.6242 55.8116 13.4056 54.593C12.1871 53.3745 11.5016 51.7223 11.4996 49.9991V13.9991C11.5016 12.2758 12.1871 10.6236 13.4056 9.40506C14.6242 8.18651 16.2763 7.50105 17.9996 7.49905H45.9996C47.7229 7.50105 49.3751 8.18651 50.5936 9.40506C51.8122 10.6236 52.4976 12.2758 52.4996 13.9991V49.9991Z" fill="white" fill-opacity="0.95"/>
<path d="M41.9996 44.4991H38.2133L41.3805 36.5655C41.507 36.0903 41.5321 35.5939 41.4544 35.1083C41.3767 34.6228 41.1978 34.159 40.9293 33.7471L40.8864 33.6885L33.2125 23.1182C33.0737 22.9265 32.8914 22.7704 32.6805 22.6628C32.4697 22.5552 32.2364 22.4991 31.9996 22.4991C31.7629 22.4991 31.5296 22.5552 31.3188 22.6628C31.1079 22.7704 30.9256 22.9265 30.7868 23.1182L23.0797 33.7276C22.7952 34.1687 22.6117 34.6673 22.5425 35.1876C22.4733 35.708 22.52 36.2372 22.6793 36.7373L25.7843 44.4991H21.9996C21.6018 44.4991 21.2203 44.6571 20.939 44.9384C20.6577 45.2197 20.4996 45.6012 20.4996 45.9991C20.4996 46.3969 20.6577 46.7784 20.939 47.0597C21.2203 47.341 21.6018 47.4991 21.9996 47.4991H41.9996C42.3975 47.4991 42.779 47.341 43.0603 47.0597C43.3416 46.7784 43.4996 46.3969 43.4996 45.9991C43.4996 45.6012 43.3416 45.2197 43.0603 44.9384C42.779 44.6571 42.3975 44.4991 41.9996 44.4991ZM29.0133 44.4991L25.5192 35.7842C25.485 35.6678 25.494 35.5429 25.5446 35.4327L30.4996 28.6155V34.2135C30.1834 34.5681 30.006 35.0249 30 35.5C30 36.0304 30.2107 36.5391 30.5857 36.9142C30.9608 37.2893 31.4695 37.5 32 37.5C32.5304 37.5 33.0391 37.2893 33.4142 36.9142C33.7892 36.5391 34 36.0304 34 35.5C33.994 35.0245 33.8163 34.5672 33.4996 34.2125V28.618L38.4312 35.4112C38.4976 35.5245 38.523 35.6456 38.5386 35.6221L34.984 44.4991H29.0133Z" fill="white" fill-opacity="0.95"/>
</svg>
