<svg width="64" height="64" viewBox="0 0 64 64" fill="none" xmlns="http://www.w3.org/2000/svg">
<path d="M46.0001 4.5H18.0001C15.4814 4.50286 13.0667 5.50467 11.2857 7.28564C9.50476 9.06662 8.50295 11.4813 8.50009 14V50C8.50295 52.5187 9.50476 54.9334 11.2857 56.7144C13.0667 58.4953 15.4814 59.4971 18.0001 59.5H46.0001C48.5188 59.4971 50.9335 58.4953 52.7145 56.7144C54.4954 54.9334 55.4972 52.5187 55.5001 50V14C55.4972 11.4813 54.4954 9.06662 52.7145 7.28564C50.9335 5.50467 48.5188 4.50286 46.0001 4.5ZM52.5001 50C52.4981 51.7233 51.8126 53.3754 50.5941 54.594C49.3755 55.8125 47.7234 56.498 46.0001 56.5H18.0001C16.2768 56.498 14.6247 55.8125 13.4061 54.594C12.1875 53.3754 11.5021 51.7233 11.5001 50V14C11.5021 12.2767 12.1875 10.6246 13.4061 9.40601C14.6247 8.18746 16.2768 7.502 18.0001 7.5H46.0001C47.7234 7.502 49.3755 8.18746 50.5941 9.40601C51.8126 10.6246 52.4981 12.2767 52.5001 14V50Z" fill="white" fill-opacity="0.95"/>
<path d="M44.0001 28.5H20.0001C19.6023 28.5 19.2207 28.658 18.9394 28.9393C18.6581 29.2206 18.5001 29.6022 18.5001 30C18.5001 30.3978 18.6581 30.7794 18.9394 31.0607C19.2207 31.342 19.6023 31.5 20.0001 31.5H44.0001C44.3979 31.5 44.7794 31.342 45.0608 31.0607C45.3421 30.7794 45.5001 30.3978 45.5001 30C45.5001 29.6022 45.3421 29.2206 45.0608 28.9393C44.7794 28.658 44.3979 28.5 44.0001 28.5Z" fill="white" fill-opacity="0.95"/>
<path d="M44.0001 36.5H20.0001C19.6023 36.5 19.2207 36.658 18.9394 36.9393C18.6581 37.2206 18.5001 37.6022 18.5001 38C18.5001 38.3978 18.6581 38.7794 18.9394 39.0607C19.2207 39.342 19.6023 39.5 20.0001 39.5H44.0001C44.3979 39.5 44.7794 39.342 45.0608 39.0607C45.3421 38.7794 45.5001 38.3978 45.5001 38C45.5001 37.6022 45.3421 37.2206 45.0608 36.9393C44.7794 36.658 44.3979 36.5 44.0001 36.5Z" fill="white" fill-opacity="0.95"/>
<path d="M34.0001 44.5H20.004C19.6062 44.5 19.2246 44.658 18.9433 44.9393C18.662 45.2206 18.504 45.6022 18.504 46C18.504 46.3978 18.662 46.7794 18.9433 47.0607C19.2246 47.342 19.6062 47.5 20.004 47.5H34.0001C34.3979 47.5 34.7794 47.342 35.0608 47.0607C35.3421 46.7794 35.5001 46.3978 35.5001 46C35.5001 45.6022 35.3421 45.2206 35.0608 44.9393C34.7794 44.658 34.3979 44.5 34.0001 44.5Z" fill="white" fill-opacity="0.95"/>
</svg>
