<svg width="1150" height="360" viewBox="0 0 1150 360" fill="none" xmlns="http://www.w3.org/2000/svg">
<path d="M457.2 108.3C457.2 116.6 463.9 123.3 472.2 123.3C489.2 123.3 500 134.3 500 147.3C500 156.9 493.5 162.7 486.3 164.6C484.5 165.1 483.1 163.1 484.1 161.6C491 151.2 483 142.5 483 135.3C483 128.7 487 123.3 492 123.3C494.3 123.3 496.4 124.4 498 126.3C501 116.5 510.2 109.3 521 109.3C533 109.3 540.9 115.1 545 127.3L548 136.3C550 142.3 547 143.3 545 143.3H543C541.9 143.3 541 144.2 541 145.3V153.1C541 158.1 537 162.3 532.1 162.3H526.5C523.5 162.3 521 164.8 521 167.8C521 170.8 523.5 173.3 526.5 173.3H534.2C543.3 173.3 551.6 178.4 555.7 186.6L570.9 216.9C572.3 219.6 575 221.3 578.1 221.3H614.4M424.1 123.3H431.8C434.8 123.3 437.3 120.8 437.3 117.8C437.3 114.8 434.8 112.3 431.8 112.3H426.2C421.2 112.3 417.3 108.1 417.3 103.1V95.3C417.3 94.2 416.4 93.3 415.3 93.3H413.3C411.3 93.3 408.3 92.3 410.3 86.3L413.3 77.3C417.4 65.1 425.3 59.3 437.3 59.3C450.6 59.3 461.3 70 461.3 83.3C461.3 93.3 457.3 96.3001 457.3 108.3M427.5 67.4H437.3C438.8 67.4 439.8 69 439.1 70.3L436.2 76.1C435.8 76.9 436 77.8001 436.6 78.4001L439.3 81.1C440.1 81.9 440.6 83.1 440.5 84.3C439.5 93.9 431.4 101.4 421.6 101.4H409.6M512 145.3C508.6 145.3 505.9 142.5 506 139.1C506.1 135.8 509 133.3 512.2 133.3H514.9C516.2 133.3 517.5 132.8 518.4 131.8L519.9 130.3C521.7 128.5 522.2 125.7 521 123.4L519.4 120.2C518.7 118.9 519.7 117.3 521.2 117.3H531M614.3 221.4H644.3C648.7 221.4 652.3 217.8 652.3 213.4V181.4C652.3 177 648.7 173.4 644.3 173.4H596.3C591.9 173.4 588.3 177 588.3 181.4V214.4M423.7 123.3C413.7 123.3 406.7 129.3 399.7 143.3L390 162.7C388 166.8 385.3 169.3 379.3 169.3H358.7C357.1 169.3 355.6 168.8 354.3 168L347.3 163.4C345.3 162.1 343 161.4 340.6 161.4H335.5C333.7 161.4 332.2 162.9 332.2 164.7C332.2 166.3 333.3 167.6 334.9 167.9L342.2 169.4C342.2 169.4 344.2 181.4 354.2 181.4M446.2 95.3C449.5 95.3 452.2 92.6 452.2 89.3C452.2 86 449.5 83.3 446.2 83.3M344.2 161.3V127.3C344.2 126.2 343.3 125.3 342.2 125.3H309C308.5 125.3 308 125.5 307.6 125.9L296.8 136.7C296.4 137.1 296.2 137.6 296.2 138.1V191.3C296.2 192.4 297.1 193.3 298.2 193.3H342.2C343.3 193.3 344.2 192.4 344.2 191.3V185.3M309.2 126.3V138.3H297.2M243.5 221.3C240.2 221.3 237.3 223.8 237.3 227.1C237.2 230.5 239.9 233.3 243.3 233.3V245.3H224.3V217.3M244.2 221.4C250.8 221.4 256.2 216 256.2 209.4V204.4M232.2 252.4C232.2 252.4 227.6 262.7 208.6 261.3C185.7 259.5 168.1 240.1 168.2 217.2C168.3 197.3 180.3 181.4 204.2 169.5L205.6 168.8C209.7 166.8 212.2 162.6 212.2 158.1V134.5C212.2 132.1 210.2 130.3 207.7 130.5C205.5 130.7 204 132.8 204.2 135C204.8 143.2 217.7 157.6 233.5 157.4C241.7 157.3 248.2 150.6 248.2 142.4V120.4C248.2 109.4 239.2 100.4 228.2 100.4C217.9 100.4 209.4 108.2 208.3 118.2C208.2 119.4 209.1 120.4 210.3 120.4H264.2M238.2 126.3C238.2 126.3 240.4 133.1 241.2 135.3C242.2 138.3 240.2 139.3 238.2 139.3H236.2M502.2 223.3C502.2 223.3 500 230.1 499.2 232.3C498.2 235.3 500.2 236.3 502.2 236.3H504.2M568.2 309.3V288.1C568.2 279 563 270.7 554.9 266.6L542.8 260.6C538.8 258.6 536.2 254.4 536.2 249.9V219.3C536.2 207.1 526.4 197.3 514.2 197.3C502 197.3 492.2 207.1 492.2 219.3V238.3C492.2 247.1 499.4 254.3 508.2 254.3C517 254.3 524.2 247.1 524.2 238.3V223.3C524.2 218.9 520.6 215.3 516.2 215.3H499.2M456.2 297.4C480.2 297.4 480.2 261.4 504.2 261.4H508.2M456.2 297.4V273.4C456.2 271.2 454.4 269.4 452.2 269.4H438.2C436 269.4 434.2 271.2 434.2 273.4V289.4M456.2 297.4V305.4C456.2 307.6 454.4 309.4 452.2 309.4H438.2M428.2 302.4V293.4C428.2 291.2 430 289.4 432.2 289.4H438.2C441.5 289.4 444.2 292.1 444.2 295.4V303.4C444.2 306.7 441.5 309.4 438.2 309.4M438.2 309.4H372.2C371.1 309.4 370.2 308.5 370.2 307.4V297.4C370.2 296.3 371.1 295.4 372.2 295.4H392.2C398.8 295.4 404.2 290 404.2 283.4V241.4C404.2 234.8 398.8 229.4 392.2 229.4H328.2C321.6 229.4 316.2 234.8 316.2 241.4V283.4C316.2 290 321.6 295.4 328.2 295.4H348.2C349.3 295.4 350.2 296.3 350.2 297.4V307.4C350.2 308.5 349.3 309.4 348.2 309.4H309.1C306.1 309.4 303.3 307.7 301.9 305L286.7 274.7C282.6 266.6 274.3 261.4 265.2 261.4H257.5C254.5 261.4 252 258.9 252 255.9C252 252.9 254.5 250.4 257.5 250.4H263.1C268.1 250.4 272 246.2 272 241.2V233.4C272 232.3 272.9 231.4 274 231.4H276C278 231.4 281 230.4 279 224.4L276 215.4C271.9 203.2 264 197.4 252 197.4H244C233 197.4 224 206.4 224 217.4M640.2 76.3C640.2 76.3 638 83.1 637.2 85.3C636.2 88.3 638.2 89.3 640.2 89.3H642.2M673.2 77.4001C666.2 77.4001 662.2 73.4 658.2 69.4C654.2 65.4 650.2 61.4 643.2 61.4C636 61.4 630.2 67.2 630.2 74.4V94.4C630.2 102.7 636.9 109.4 645.2 109.4H648.2C650.4 109.4 652.2 111.2 652.2 113.4C652.2 115.6 650.4 117.4 648.2 117.4H639C629.9 117.4 621.6 122.5 617.5 130.7L604.1 157.4M647.2 55.4C654.2 55.4 658.2 59.4 662.2 63.4C666.2 67.4 670.2 71.4 677.2 71.4M651.2 49.3C658.2 49.3 662.2 53.3 666.2 57.3C670.2 61.3 674.2 65.3 681.2 65.3M700.2 149.3L684.2 101.3C681.2 93.3 672.2 93.3 672.2 93.3H666.2C662.9 93.3 660.2 96 660.2 99.3V103.3C660.2 108.8 664.7 113.3 670.2 113.3C672 113.3 673.5 114.5 673.9 116.2L676.2 125.3L685.6 163.1C687.1 169.1 692.5 173.3 698.7 173.3C706.1 173.3 712.2 167.3 712.2 159.8V131.3C712.2 123.6 705.9 117.3 698.2 117.3M678.2 94.3V86.3C678.2 84.1 676.4 82.3 674.2 82.3H668.2C666 82.3 664.2 84.1 664.2 86.3V93.3M716.2 285.4H747.2C750.4 285.4 753.4 286.7 755.7 288.9L766 299.2C767.2 300.4 767.2 302.4 766 303.6C765 304.6 763.3 304.8 762.1 304L752.2 297.4M754.2 186.3C754.2 186.3 756.4 193.1 757.2 195.3C758.2 198.3 756.2 199.3 754.2 199.3H750.2C746.9 199.3 744.2 202 744.2 205.3C744.2 206.4 743.3 207.3 742.2 207.3C738.9 207.3 736.2 204.6 736.2 201.3V191.3C736.2 186.9 732.6 183.3 728.2 183.3H726.2C725.1 183.3 724.2 182.4 724.2 181.3C724.2 170 733.6 160.9 744.9 161.3C755.7 161.7 764.2 170.9 764.2 181.8V204.3C764.2 212.5 757.7 219.2 749.5 219.3C733.7 219.5 720.7 204.9 720.2 196.7C720.1 194.6 721.7 192.5 723.8 192.3C726.2 192.1 728.2 193.9 728.2 196.3V219.1C728.2 223.6 725.6 227.8 721.6 229.8L709.5 235.8C701.4 239.9 696.2 248.2 696.2 257.3V289.3C696.2 295.9 701.6 301.3 708.2 301.3H739.2C742.4 301.3 745.4 302.6 747.7 304.8L756.1 313.2C758.5 315.6 762.3 316.2 765.3 314.7L776.1 309.3M817.2 117.3C817.2 117.3 815 124.1 814.2 126.3C813.2 129.3 815.2 130.3 817.2 130.3H819.2M849.2 116.3C843.2 116.3 839.2 112.3 835.2 108.3C831.2 104.3 827.2 100.3 820.2 100.3C813 100.3 807.2 106.1 807.2 113.3V133.3C807.2 141.5 813.7 148.2 821.9 148.3C837.7 148.5 850.7 133.9 851.2 125.7C851.3 123.6 849.7 121.5 847.6 121.3C845.2 121.1 843.2 122.9 843.2 125.3V149.3M803.2 105.3C803.2 96.5 810.4 89.3 819.2 89.3C824.2 89.3 829.2 89.3 829.2 89.3C844.7 89.3 857.2 101.8 857.2 117.3V122.3C857.2 128.3 861.2 130.3 863.2 132.3C865.2 134.3 869.2 137.3 869.2 143.3C869.2 149.3 865.2 153.3 865.2 153.3M843.2 150.3C843.2 154.7 846.8 158.3 851.2 158.3H854.3C860.7 158.3 866.8 160.7 871.4 165.1L883.8 177C884.6 177.7 885.8 177.7 886.6 177L911.2 153.3C911.2 144.1 919.9 139.1 924.1 137.2C925.3 136.6 926.8 136.9 927.8 137.9C929.1 139.2 929.1 141.4 927.6 142.7L922.2 147.4C925.1 152.3 924.2 161 917.7 165.1C917.4 165.3 917.2 165.6 917.2 165.9V173.3C917.2 174.4 918.1 175.3 919.2 175.3H960.2M917.2 133.3V111.3C917.2 110.2 918.1 109.3 919.2 109.3H951.4C951.9 109.3 952.4 109.5 952.8 109.9L963.6 120.7C964 121.1 964.2 121.6 964.2 122.1V141.3M951.2 110.3V122.3H963.2M922.2 221.3C925.6 221.3 928.3 218.5 928.2 215.1C928.1 211.8 925.2 209.3 922 209.3H919.3C918 209.3 916.7 208.8 915.8 207.8L914.3 206.3C912.5 204.5 912 201.7 913.2 199.4L914.8 196.2C915.5 194.9 914.5 193.3 913 193.3H903.2M933.2 234.4C933.2 242.7 939.9 249.4 948.2 249.4C960.2 249.4 976.2 233.4 976.2 205.4C976.2 188.2 968.9 171 954.3 155.5C953.2 154.3 953.2 152.4 954.4 151.3C955.5 150.2 957.2 150.1 958.4 151L964.3 155.4V141.4C970.9 141.4 976.3 146.8 976.3 153.4V161.4M829.5 313.4C818.8 313.4 813.5 307.4 813.5 307.4L809.5 307.1C807.4 306.9 805.4 306.2 803.8 304.8C801.9 303.1 800.6 300.7 800.4 298.1V296C800.4 293.3 802.2 291.4 804.4 291.3L810.7 291.2C812.9 291 815.1 291.7 816.9 293L822.3 296.8C823 297.3 823.8 297.5 824.6 297.5H861.2L878.6 262.8C882.7 254.7 891 249.5 900.1 249.5H907.8C910.8 249.5 913.3 247 913.3 244C913.3 241 910.8 238.5 907.8 238.5H902.2C897.2 238.5 893.3 234.3 893.3 229.3V221.5C893.3 220.4 892.4 219.5 891.3 219.5H889.3C887.3 219.5 884.3 218.5 886.3 212.5L889.3 203.5C893.4 191.3 901.3 185.5 913.3 185.5C926.6 185.5 937.3 196.2 937.3 209.5C937.3 219.5 933.3 222.5 933.3 234.5M846.1 165.4C843.5 170.7 838.4 174.4 832.1 174.4C823.9 174.4 817.1 168.2 816.2 160.2C816.1 159.2 815.2 158.4 814.2 158.4H803.2C796.4 158.4 790.1 162.3 787.1 168.4L774.2 194.4M769.8 267.9C763.5 263.8 759.5 256.4 760.6 248.1C761.8 238.7 769.1 231.5 778.5 230.5C790.8 229.1 801.2 238.7 801.2 250.8C801.2 265.4 788.4 272 780.8 268.8C780.8 268.8 773.6 264 773.6 255.6C773.6 244.6 788.1 244.2 788 255.6C788 260.6 784.9 264.9 782 267.6L776 272.4L768.8 278.4H788.6C790.3 278.4 791.6 279.7 791.6 281.4C791.6 283.1 790.3 284.4 788.6 284.4H777.8C776.1 284.4 774.8 285.7 774.8 287.4C774.8 289.1 776.1 290.4 777.8 290.4H784.6M622.7 260.6V251C622.7 245.7 627 241.4 632.3 241.4C637.6 241.4 641.9 245.7 641.9 251V260.6H614.3C611.6 260.6 609.5 262.7 609.5 265.4V296.6C609.5 299.3 611.6 301.4 614.3 301.4H615.5C624.4 301.4 637.1 291.8 637.1 283.4C637.1 280.7 635 278.6 632.3 278.6C629.6 278.6 627.5 280.7 627.5 283.4C627.5 291.8 640.2 301.4 649.1 301.4H650.3C653 301.4 655.1 299.3 655.1 296.6V265.4C655.1 262.7 652.9 260.6 650.3 260.6C649.3 260.6 648.7 260.6 649.1 260.6M416.2 223.1V177.6M423.4 170.3V230.4M437.8 177.6V223.1M430.6 215.9V184.7M445 191.9V208.7M452.2 202.7V197.9M768.6 84.2001L777.6 75.2001C778.7 74.1001 778.5 72.3 777.3 71C776.1 69.8 774.2 69.6001 773.1 70.7001L758.7 85.1V89.6H763.1M782.8 70H787.2V74.5L772.8 88.9001C771.7 90.0001 769.9 89.8 768.6 88.6C767.4 87.4 767.2 85.5001 768.3 84.4001L777 75.7001M777.4 75.3C777.4 75.3 773.6 76.9 770.1 73.8C770.1 73.8 768.5 72.6 768.1 69.6M775.7 85.8C772.2 82.8 768.4 84.3 768.4 84.3M781.2 88.3V91.5C781.2 94.2 779.1 96.3 776.4 96.3H726C723.3 96.3 721.2 94.2 721.2 91.5V57.9C721.2 55.2 723.3 53.1 726 53.1H776.4C779.1 53.1 781.2 55.2 781.2 57.9V63.9M579.7 101.2C577.1 102 574.3 102.4 571.5 102.4C555.6 102.4 542.7 89.5 542.7 73.6C542.7 57.7001 555.6 44.8 571.5 44.8C587.4 44.8 600.3 57.7001 600.3 73.6C600.3 87.2001 592.5 95.2001 582.9 95.2001C581.2 95.2001 579.5 94.9 577.9 94.3C571 91.8 565.3 86.7 562.1 80L561.7 79.2001C558.5 72.5001 558.2 64.9 560.7 57.9L560.9 57.6C561.2 56.7 561.9 56 562.8 55.5L564.5 54.7C566.3 53.8 568.5 54.6 569.4 56.4L571.8 61.5C572.7 63.3 571.9 65.5 570.1 66.4L568.4 67.2001C568.4 67.2001 567.3 67.7 566.6 68.1C565.5 68.6 564.9 73.2 566.9 77.5C568.9 81.7 573.3 83.8 574 83.5C574.7 83.2 575.7 82.7001 575.7 82.7001L577.4 81.9001C579.2 81.0001 581.4 81.8 582.3 83.6L584.8 88.9001M350.8 56.6V66.1L346 66.1C344.7 66.1 343.6 67.2 343.6 68.5V85.9001C343.6 86.9001 344.4 87.7001 345.4 87.7001H362.8C364.1 87.7001 365.2 86.6 365.2 85.3V68.5C365.2 67.2 364.1 66.1 362.8 66.1H357.2M361.6 66.1H370C371.3 66.1 372.4 65.0001 372.4 63.7001V56.5M365.2 77H374.8M374.8 77C374.8 79.651 376.949 81.8 379.6 81.8C382.251 81.8 384.4 79.651 384.4 77C384.4 74.3491 382.251 72.2001 379.6 72.2001C376.949 72.2001 374.8 74.3491 374.8 77ZM343.6 76.9001H334M347.2 87.7001H338.8C337.5 87.7001 336.4 88.8 336.4 90.1V97.3M358 87.7001V97.3M409.5 101.3C409.5 103.509 407.709 105.3 405.5 105.3C403.291 105.3 401.5 103.509 401.5 101.3C401.5 99.0909 403.291 97.3 405.5 97.3C407.709 97.3 409.5 99.0909 409.5 101.3ZM872.2 305.4C872.2 308.2 870 310.4 867.2 310.4C862.2 310.4 857.5 304.8 861.2 297.4C868.2 297.4 872.2 301.4 872.2 305.4ZM377.1 51.7C377.1 54.351 374.951 56.5 372.3 56.5C369.649 56.5 367.5 54.351 367.5 51.7C367.5 49.0491 369.649 46.9 372.3 46.9C374.951 46.9 377.1 49.0491 377.1 51.7ZM355.6 51.7C355.6 54.351 353.451 56.5 350.8 56.5C348.149 56.5 346 54.351 346 51.7C346 49.0491 348.149 46.9 350.8 46.9C353.451 46.9 355.6 49.0491 355.6 51.7ZM362.8 102.2C362.8 104.851 360.651 107 358 107C355.349 107 353.2 104.851 353.2 102.2C353.2 99.5491 355.349 97.4001 358 97.4001C360.651 97.4001 362.8 99.5491 362.8 102.2ZM341.4 102.2C341.4 104.851 339.251 107 336.6 107C333.949 107 331.8 104.851 331.8 102.2C331.8 99.5491 333.949 97.4001 336.6 97.4001C339.251 97.4001 341.4 99.5491 341.4 102.2ZM334 77C334 79.651 331.851 81.8 329.2 81.8C326.549 81.8 324.4 79.651 324.4 77C324.4 74.3491 326.549 72.2001 329.2 72.2001C331.851 72.2001 334 74.3491 334 77Z" stroke="url(#paint0_linear_506_2622)" stroke-width="2.5" stroke-miterlimit="10" stroke-linecap="round" stroke-linejoin="round"/>
<path d="M422.2 82.3C423.305 82.3 424.2 81.4046 424.2 80.3C424.2 79.1955 423.305 78.3 422.2 78.3C421.096 78.3 420.2 79.1955 420.2 80.3C420.2 81.4046 421.096 82.3 422.2 82.3Z" fill="#60B18B"/>
<path d="M536 132.3C537.105 132.3 538 131.405 538 130.3C538 129.195 537.105 128.3 536 128.3C534.895 128.3 534 129.195 534 130.3C534 131.405 534.895 132.3 536 132.3Z" fill="#60B18B"/>
<path d="M267.2 220.3C268.305 220.3 269.2 219.405 269.2 218.3C269.2 217.195 268.305 216.3 267.2 216.3C266.096 216.3 265.2 217.195 265.2 218.3C265.2 219.405 266.096 220.3 267.2 220.3Z" fill="#60B18B"/>
<path d="M228.2 130.3C229.305 130.3 230.2 129.405 230.2 128.3C230.2 127.195 229.305 126.3 228.2 126.3C227.096 126.3 226.2 127.195 226.2 128.3C226.2 129.405 227.096 130.3 228.2 130.3Z" fill="#60B18B"/>
<path d="M512.2 227.3C513.305 227.3 514.2 226.405 514.2 225.3C514.2 224.195 513.305 223.3 512.2 223.3C511.096 223.3 510.2 224.195 510.2 225.3C510.2 226.405 511.096 227.3 512.2 227.3Z" fill="#60B18B"/>
<path d="M650.2 80.3C651.305 80.3 652.2 79.4046 652.2 78.3C652.2 77.1955 651.305 76.3 650.2 76.3C649.096 76.3 648.2 77.1955 648.2 78.3C648.2 79.4046 649.096 80.3 650.2 80.3Z" fill="#60B18B"/>
<path d="M744.2 190.3C745.305 190.3 746.2 189.405 746.2 188.3C746.2 187.195 745.305 186.3 744.2 186.3C743.096 186.3 742.2 187.195 742.2 188.3C742.2 189.405 743.096 190.3 744.2 190.3Z" fill="#60B18B"/>
<path d="M827.2 121.3C828.305 121.3 829.2 120.405 829.2 119.3C829.2 118.195 828.305 117.3 827.2 117.3C826.096 117.3 825.2 118.195 825.2 119.3C825.2 120.405 826.096 121.3 827.2 121.3Z" fill="#60B18B"/>
<path d="M898.2 208.3C899.305 208.3 900.2 207.405 900.2 206.3C900.2 205.195 899.305 204.3 898.2 204.3C897.096 204.3 896.2 205.195 896.2 206.3C896.2 207.405 897.096 208.3 898.2 208.3Z" fill="#60B18B"/>
<path d="M459.4 202.4C460.504 202.4 461.4 201.505 461.4 200.4C461.4 199.296 460.504 198.4 459.4 198.4C458.295 198.4 457.4 199.296 457.4 200.4C457.4 201.505 458.295 202.4 459.4 202.4Z" fill="#60B18B"/>
<path d="M466.6 202.4C467.705 202.4 468.6 201.505 468.6 200.4C468.6 199.296 467.705 198.4 466.6 198.4C465.496 198.4 464.6 199.296 464.6 200.4C464.6 201.505 465.496 202.4 466.6 202.4Z" fill="#60B18B"/>
<defs>
<linearGradient id="paint0_linear_506_2622" x1="572.249" y1="44.8" x2="572.249" y2="315.518" gradientUnits="userSpaceOnUse">
<stop stop-color="#279BE8"/>
<stop offset="1" stop-color="#875AE0"/>
</linearGradient>
</defs>
</svg>
