<svg width="575" height="630" viewBox="0 0 575 630" fill="none" xmlns="http://www.w3.org/2000/svg">
<rect width="575" height="630" fill="#1A1A1A"/>
<path d="M284.366 116.2C284.366 91.9 264.666 72.2 240.366 72.2C216.066 72.2 196.366 91.9 196.366 116.2C196.366 131.2 203.866 144.3 215.366 152.2M220.366 192.2C226.966 192.2 232.366 186.8 232.366 180.2V146.2C232.366 142.9 229.666 140.2 226.366 140.2C223.066 140.2 220.366 142.9 220.366 146.2C220.366 160.2 242.466 176.2 258.366 176.2C270.566 176.2 280.366 166.4 280.366 154.2V126.2C280.366 117.4 273.166 110.2 264.366 110.2H256.366C247.566 110.2 240.366 117.4 240.366 126.2M268.366 135.2C268.366 135.2 271.366 144.2 272.366 147.2C273.366 150.2 271.366 152.2 268.366 152.2H266.366M378.466 154.3H372.466C365.866 154.3 360.466 148.9 360.466 142.3V108.3C360.466 105 363.166 102.3 366.466 102.3C369.766 102.3 372.466 105 372.466 108.3C372.466 122.3 350.366 138.3 334.466 138.3C322.266 138.3 312.466 128.5 312.466 116.3V88.2999M324.466 97.2999C324.466 97.2999 321.466 106.3 320.466 109.3C319.466 112.3 321.466 114.3 324.466 114.3H326.466M312.366 88.2C312.366 79.4 319.566 72.2 328.366 72.2C346.366 72.2 343.366 96.2 366.366 96.2M334.366 64.2C352.366 64.2 349.366 88.2 372.366 88.2M340.366 56.2C358.366 56.2 355.366 80.2 378.366 80.2M304.366 220.3C304.366 205.3 296.366 200.3 284.366 196.3L272.366 192.3C266.366 190.3 260.366 188.3 260.366 183.3M332.366 145.2C332.366 150.2 326.366 152.2 320.366 154.2L308.366 158.2C296.366 162.2 288.366 167.2 288.366 182.2V220.2C288.366 224.6 291.966 228.2 296.366 228.2C300.766 228.2 304.366 224.6 304.366 220.2" stroke="white" stroke-width="2.5" stroke-miterlimit="10" stroke-linecap="round" stroke-linejoin="round"/>
<path d="M256.366 140.2C257.471 140.2 258.366 139.305 258.366 138.2C258.366 137.095 257.471 136.2 256.366 136.2C255.261 136.2 254.366 137.095 254.366 138.2C254.366 139.305 255.261 140.2 256.366 140.2Z" fill="white"/>
<path d="M336.466 102.3C337.571 102.3 338.466 101.404 338.466 100.3C338.466 99.1954 337.571 98.2999 336.466 98.2999C335.361 98.2999 334.466 99.1954 334.466 100.3C334.466 101.404 335.361 102.3 336.466 102.3Z" fill="white"/>
<path d="M223.866 461.4V329.4M223.866 329.4L235.866 325.4C271.866 313.4 303.866 315.4 303.866 337.4C303.866 359.4 303.866 381.4 303.866 381.4M223.866 329.4C208.866 334.4 203.866 317.4 209.866 313.4C215.866 309.4 223.866 316.4 223.866 329.4ZM310.866 344.8C323.466 345.5 341.166 343.6 359.866 337.4V421.4C323.866 433.4 291.866 429.4 291.866 421.4C291.866 415.4 303.866 415.4 303.866 409.4C303.866 401.8 275.266 397.8 241.666 407.6C238.266 408.6 235.866 411.7 235.866 415.3V461.4" stroke="white" stroke-width="2.5" stroke-miterlimit="10" stroke-linecap="round" stroke-linejoin="round"/>
<circle cx="24" cy="24" r="24" transform="matrix(-1 0 0 1 183.5 530)" fill="white"/>
<circle cx="24" cy="24" r="28" transform="matrix(-1 0 0 1 183.5 530)" stroke="white" stroke-opacity="0.2" stroke-width="8"/>
<path d="M216.5 564.18H240.5V540.18H216.5V564.18ZM251.477 545.045V562.5H249.364V545.045H251.477ZM257.454 545.045V562.5H255.442V545.045H257.454ZM263.149 545.045V562.5H261.138V545.045H263.149ZM275.083 557.148V549.409H277.094V562.5H275.083V560.284H274.947C274.64 560.949 274.163 561.514 273.515 561.98C272.867 562.44 272.049 562.67 271.06 562.67C270.242 562.67 269.515 562.491 268.879 562.134C268.242 561.77 267.742 561.224 267.379 560.497C267.015 559.764 266.833 558.841 266.833 557.727V549.409H268.844V557.591C268.844 558.545 269.112 559.307 269.646 559.875C270.185 560.443 270.873 560.727 271.708 560.727C272.208 560.727 272.717 560.599 273.234 560.344C273.756 560.088 274.194 559.696 274.546 559.168C274.904 558.639 275.083 557.966 275.083 557.148ZM290.051 552.341L288.244 552.852C288.131 552.551 287.963 552.259 287.741 551.974C287.526 551.685 287.23 551.446 286.855 551.259C286.48 551.071 286 550.977 285.415 550.977C284.614 550.977 283.946 551.162 283.412 551.531C282.884 551.895 282.619 552.358 282.619 552.92C282.619 553.42 282.801 553.815 283.165 554.105C283.528 554.395 284.097 554.636 284.869 554.83L286.812 555.307C287.983 555.591 288.855 556.026 289.429 556.611C290.003 557.19 290.29 557.937 290.29 558.852C290.29 559.602 290.074 560.273 289.642 560.864C289.216 561.455 288.619 561.92 287.852 562.261C287.085 562.602 286.193 562.773 285.176 562.773C283.841 562.773 282.736 562.483 281.861 561.903C280.986 561.324 280.432 560.477 280.199 559.364L282.108 558.886C282.29 559.591 282.634 560.119 283.139 560.472C283.651 560.824 284.318 561 285.142 561C286.08 561 286.824 560.801 287.375 560.403C287.932 560 288.21 559.517 288.21 558.955C288.21 558.5 288.051 558.119 287.733 557.812C287.415 557.5 286.926 557.267 286.267 557.114L284.085 556.602C282.886 556.318 282.006 555.878 281.443 555.281C280.886 554.679 280.608 553.926 280.608 553.023C280.608 552.284 280.815 551.631 281.23 551.062C281.651 550.494 282.222 550.048 282.943 549.724C283.67 549.401 284.494 549.239 285.415 549.239C286.71 549.239 287.727 549.523 288.466 550.091C289.21 550.659 289.739 551.409 290.051 552.341ZM299.011 549.409V551.114H292.227V549.409H299.011ZM294.204 546.273H296.215V558.75C296.215 559.318 296.298 559.744 296.462 560.028C296.633 560.307 296.849 560.494 297.11 560.591C297.377 560.682 297.658 560.727 297.954 560.727C298.175 560.727 298.357 560.716 298.499 560.693C298.641 560.665 298.755 560.642 298.84 560.625L299.249 562.432C299.113 562.483 298.923 562.534 298.678 562.585C298.434 562.642 298.124 562.67 297.749 562.67C297.181 562.67 296.624 562.548 296.079 562.304C295.539 562.06 295.09 561.688 294.732 561.188C294.38 560.688 294.204 560.057 294.204 559.295V546.273ZM302.036 562.5V549.409H303.979V551.386H304.116C304.354 550.739 304.786 550.213 305.411 549.81C306.036 549.406 306.741 549.205 307.525 549.205C307.673 549.205 307.857 549.207 308.079 549.213C308.3 549.219 308.468 549.227 308.582 549.239V551.284C308.513 551.267 308.357 551.241 308.113 551.207C307.874 551.168 307.621 551.148 307.354 551.148C306.718 551.148 306.15 551.281 305.65 551.548C305.156 551.81 304.763 552.173 304.474 552.639C304.19 553.099 304.048 553.625 304.048 554.216V562.5H302.036ZM314.818 562.807C313.989 562.807 313.236 562.651 312.56 562.338C311.884 562.02 311.347 561.562 310.949 560.966C310.551 560.364 310.352 559.636 310.352 558.784C310.352 558.034 310.5 557.426 310.795 556.96C311.091 556.489 311.486 556.119 311.98 555.852C312.474 555.585 313.02 555.386 313.616 555.256C314.219 555.119 314.824 555.011 315.432 554.932C316.227 554.83 316.872 554.753 317.366 554.702C317.866 554.645 318.23 554.551 318.457 554.42C318.69 554.29 318.807 554.062 318.807 553.739V553.67C318.807 552.83 318.577 552.176 318.116 551.71C317.662 551.244 316.972 551.011 316.045 551.011C315.085 551.011 314.332 551.222 313.787 551.642C313.241 552.062 312.858 552.511 312.636 552.989L310.727 552.307C311.068 551.511 311.523 550.892 312.091 550.449C312.665 550 313.29 549.687 313.966 549.511C314.648 549.33 315.318 549.239 315.977 549.239C316.398 549.239 316.881 549.29 317.426 549.392C317.977 549.489 318.509 549.69 319.02 549.997C319.537 550.304 319.966 550.767 320.307 551.386C320.648 552.006 320.818 552.835 320.818 553.875V562.5H318.807V560.727H318.705C318.568 561.011 318.341 561.315 318.023 561.639C317.705 561.963 317.281 562.239 316.753 562.466C316.224 562.693 315.58 562.807 314.818 562.807ZM315.125 561C315.92 561 316.591 560.844 317.136 560.531C317.688 560.219 318.102 559.815 318.381 559.321C318.665 558.827 318.807 558.307 318.807 557.761V555.92C318.722 556.023 318.534 556.116 318.244 556.202C317.96 556.281 317.631 556.352 317.256 556.415C316.886 556.472 316.526 556.523 316.173 556.568C315.827 556.608 315.545 556.642 315.33 556.67C314.807 556.739 314.318 556.849 313.864 557.003C313.415 557.151 313.051 557.375 312.773 557.676C312.5 557.972 312.364 558.375 312.364 558.886C312.364 559.585 312.622 560.114 313.139 560.472C313.662 560.824 314.324 561 315.125 561ZM330.183 549.409V551.114H323.398V549.409H330.183ZM325.376 546.273H327.387V558.75C327.387 559.318 327.469 559.744 327.634 560.028C327.805 560.307 328.021 560.494 328.282 560.591C328.549 560.682 328.83 560.727 329.126 560.727C329.347 560.727 329.529 560.716 329.671 560.693C329.813 560.665 329.927 560.642 330.012 560.625L330.421 562.432C330.285 562.483 330.094 562.534 329.85 562.585C329.606 562.642 329.296 562.67 328.921 562.67C328.353 562.67 327.796 562.548 327.251 562.304C326.711 562.06 326.262 561.688 325.904 561.188C325.552 560.688 325.376 560.057 325.376 559.295V546.273ZM333.208 562.5V549.409H335.219V562.5H333.208ZM334.231 547.227C333.839 547.227 333.501 547.094 333.217 546.827C332.938 546.56 332.799 546.239 332.799 545.864C332.799 545.489 332.938 545.168 333.217 544.901C333.501 544.634 333.839 544.5 334.231 544.5C334.623 544.5 334.958 544.634 335.237 544.901C335.521 545.168 335.663 545.489 335.663 545.864C335.663 546.239 335.521 546.56 335.237 546.827C334.958 547.094 334.623 547.227 334.231 547.227ZM344.222 562.773C343.04 562.773 342.003 562.491 341.111 561.929C340.224 561.366 339.531 560.58 339.031 559.568C338.537 558.557 338.29 557.375 338.29 556.023C338.29 554.659 338.537 553.469 339.031 552.452C339.531 551.435 340.224 550.645 341.111 550.082C342.003 549.52 343.04 549.239 344.222 549.239C345.403 549.239 346.438 549.52 347.324 550.082C348.216 550.645 348.909 551.435 349.403 552.452C349.903 553.469 350.153 554.659 350.153 556.023C350.153 557.375 349.903 558.557 349.403 559.568C348.909 560.58 348.216 561.366 347.324 561.929C346.438 562.491 345.403 562.773 344.222 562.773ZM344.222 560.966C345.119 560.966 345.858 560.736 346.438 560.276C347.017 559.815 347.446 559.21 347.724 558.46C348.003 557.71 348.142 556.898 348.142 556.023C348.142 555.148 348.003 554.332 347.724 553.577C347.446 552.821 347.017 552.21 346.438 551.744C345.858 551.278 345.119 551.045 344.222 551.045C343.324 551.045 342.585 551.278 342.006 551.744C341.426 552.21 340.997 552.821 340.719 553.577C340.44 554.332 340.301 555.148 340.301 556.023C340.301 556.898 340.44 557.71 340.719 558.46C340.997 559.21 341.426 559.815 342.006 560.276C342.585 560.736 343.324 560.966 344.222 560.966ZM355.235 554.625V562.5H353.224V549.409H355.167V551.455H355.337C355.644 550.79 356.11 550.256 356.735 549.852C357.36 549.443 358.167 549.239 359.156 549.239C360.042 549.239 360.817 549.42 361.482 549.784C362.147 550.142 362.664 550.688 363.033 551.42C363.403 552.148 363.587 553.068 363.587 554.182V562.5H361.576V554.318C361.576 553.29 361.309 552.489 360.775 551.915C360.241 551.335 359.508 551.045 358.576 551.045C357.934 551.045 357.36 551.185 356.854 551.463C356.354 551.741 355.96 552.148 355.67 552.682C355.38 553.216 355.235 553.864 355.235 554.625ZM372.922 562.5H367.536V545.045H373.161C374.854 545.045 376.303 545.395 377.507 546.094C378.712 546.787 379.635 547.784 380.277 549.085C380.919 550.381 381.24 551.932 381.24 553.739C381.24 555.557 380.916 557.122 380.268 558.435C379.621 559.741 378.678 560.747 377.439 561.452C376.2 562.151 374.695 562.5 372.922 562.5ZM369.649 560.625H372.786C374.229 560.625 375.425 560.347 376.374 559.79C377.322 559.233 378.03 558.44 378.496 557.412C378.962 556.384 379.195 555.159 379.195 553.739C379.195 552.33 378.964 551.116 378.504 550.099C378.044 549.077 377.357 548.293 376.442 547.747C375.527 547.196 374.388 546.92 373.024 546.92H369.649V560.625ZM390.001 562.773C388.74 562.773 387.652 562.494 386.737 561.938C385.828 561.375 385.126 560.591 384.632 559.585C384.143 558.574 383.899 557.398 383.899 556.057C383.899 554.716 384.143 553.534 384.632 552.511C385.126 551.483 385.814 550.682 386.695 550.108C387.581 549.528 388.615 549.239 389.797 549.239C390.479 549.239 391.152 549.352 391.817 549.58C392.482 549.807 393.087 550.176 393.632 550.688C394.178 551.193 394.612 551.864 394.936 552.699C395.26 553.534 395.422 554.562 395.422 555.784V556.636H385.331V554.898H393.376C393.376 554.159 393.229 553.5 392.933 552.92C392.643 552.341 392.229 551.884 391.689 551.548C391.155 551.213 390.524 551.045 389.797 551.045C388.996 551.045 388.303 551.244 387.717 551.642C387.138 552.034 386.692 552.545 386.379 553.176C386.067 553.807 385.911 554.483 385.911 555.205V556.364C385.911 557.352 386.081 558.19 386.422 558.878C386.768 559.56 387.249 560.08 387.862 560.438C388.476 560.79 389.189 560.966 390.001 560.966C390.53 560.966 391.007 560.892 391.433 560.744C391.865 560.591 392.237 560.364 392.55 560.062C392.862 559.756 393.104 559.375 393.274 558.92L395.217 559.466C395.013 560.125 394.669 560.705 394.186 561.205C393.703 561.699 393.107 562.085 392.396 562.364C391.686 562.636 390.888 562.773 390.001 562.773ZM404.311 549.409V551.114H397.254V549.409H404.311ZM399.368 562.5V547.602C399.368 546.852 399.544 546.227 399.896 545.727C400.249 545.227 400.706 544.852 401.268 544.602C401.831 544.352 402.425 544.227 403.05 544.227C403.544 544.227 403.947 544.267 404.26 544.347C404.572 544.426 404.805 544.5 404.959 544.568L404.379 546.307C404.277 546.273 404.135 546.23 403.953 546.179C403.777 546.128 403.544 546.102 403.254 546.102C402.589 546.102 402.109 546.27 401.814 546.605C401.524 546.94 401.379 547.432 401.379 548.08V562.5H399.368ZM410.607 562.807C409.778 562.807 409.025 562.651 408.349 562.338C407.673 562.02 407.136 561.562 406.738 560.966C406.34 560.364 406.141 559.636 406.141 558.784C406.141 558.034 406.289 557.426 406.585 556.96C406.88 556.489 407.275 556.119 407.769 555.852C408.263 555.585 408.809 555.386 409.406 555.256C410.008 555.119 410.613 555.011 411.221 554.932C412.016 554.83 412.661 554.753 413.156 554.702C413.656 554.645 414.019 554.551 414.246 554.42C414.479 554.29 414.596 554.062 414.596 553.739V553.67C414.596 552.83 414.366 552.176 413.906 551.71C413.451 551.244 412.761 551.011 411.835 551.011C410.874 551.011 410.121 551.222 409.576 551.642C409.031 552.062 408.647 552.511 408.425 552.989L406.516 552.307C406.857 551.511 407.312 550.892 407.88 550.449C408.454 550 409.079 549.687 409.755 549.511C410.437 549.33 411.107 549.239 411.766 549.239C412.187 549.239 412.67 549.29 413.215 549.392C413.766 549.489 414.298 549.69 414.809 549.997C415.326 550.304 415.755 550.767 416.096 551.386C416.437 552.006 416.607 552.835 416.607 553.875V562.5H414.596V560.727H414.494C414.357 561.011 414.13 561.315 413.812 561.639C413.494 561.963 413.07 562.239 412.542 562.466C412.013 562.693 411.369 562.807 410.607 562.807ZM410.914 561C411.71 561 412.38 560.844 412.925 560.531C413.477 560.219 413.891 559.815 414.17 559.321C414.454 558.827 414.596 558.307 414.596 557.761V555.92C414.511 556.023 414.323 556.116 414.033 556.202C413.749 556.281 413.42 556.352 413.045 556.415C412.675 556.472 412.315 556.523 411.962 556.568C411.616 556.608 411.335 556.642 411.119 556.67C410.596 556.739 410.107 556.849 409.653 557.003C409.204 557.151 408.84 557.375 408.562 557.676C408.289 557.972 408.153 558.375 408.153 558.886C408.153 559.585 408.411 560.114 408.928 560.472C409.451 560.824 410.113 561 410.914 561ZM428.528 557.148V549.409H430.54V562.5H428.528V560.284H428.392C428.085 560.949 427.608 561.514 426.96 561.98C426.313 562.44 425.494 562.67 424.506 562.67C423.688 562.67 422.96 562.491 422.324 562.134C421.688 561.77 421.188 561.224 420.824 560.497C420.46 559.764 420.278 558.841 420.278 557.727V549.409H422.29V557.591C422.29 558.545 422.557 559.307 423.091 559.875C423.631 560.443 424.318 560.727 425.153 560.727C425.653 560.727 426.162 560.599 426.679 560.344C427.202 560.088 427.639 559.696 427.991 559.168C428.349 558.639 428.528 557.966 428.528 557.148ZM436.235 545.045V562.5H434.224V545.045H436.235ZM445.612 549.409V551.114H438.828V549.409H445.612ZM440.805 546.273H442.817V558.75C442.817 559.318 442.899 559.744 443.064 560.028C443.234 560.307 443.45 560.494 443.712 560.591C443.979 560.682 444.26 560.727 444.555 560.727C444.777 560.727 444.959 560.716 445.101 560.693C445.243 560.665 445.357 560.642 445.442 560.625L445.851 562.432C445.714 562.483 445.524 562.534 445.28 562.585C445.036 562.642 444.726 562.67 444.351 562.67C443.783 562.67 443.226 562.548 442.68 562.304C442.141 562.06 441.692 561.688 441.334 561.188C440.982 560.688 440.805 560.057 440.805 559.295V546.273Z" fill="white"/>
</svg>
