<svg width="362" height="550" viewBox="0 0 362 550" fill="none" xmlns="http://www.w3.org/2000/svg">
<rect width="362" height="550" rx="16" fill="#1A1A1A"/>
<path d="M255.666 268.6C263.766 278.6 268.966 291.5 268.966 305.4C268.966 337.4 242.966 363.4 210.966 363.4C178.966 363.4 152.966 337.4 152.966 305.4C152.966 291.5 158.066 278.6 166.266 268.6M202.866 255.4C202.866 240.4 216.866 238.4 216.866 224.4C216.866 218.4 212.866 212.4 208.866 206.4L196.866 188.2C195.966 186.9 194.066 187 193.366 188.4L188.866 197.3H179.866L170.366 187.8C169.266 186.7 167.366 187.2 167.066 188.7L154.866 234.4C147.366 258.3 141.266 269 130.866 280.4C117.766 294.7 103.866 307.4 102.866 323.4C101.466 346.4 116.866 363.4 140.866 363.4C150.866 363.4 158.866 358.4 158.866 351.4C158.866 344.4 152.866 339.4 144.866 339.4C124.866 339.4 121.866 363.4 88.8662 363.4M208.866 329.4C208.866 329.4 211.866 331.4 216.866 331.4C216.866 327.4 212.866 325.4 212.866 325.4C212.866 325.4 216.866 323.4 216.866 319.4C206.866 319.4 206.866 330.4 196.866 330.4C191.866 330.4 188.866 327.4 188.866 325.4C188.866 323.4 191.866 320.4 196.866 320.4C200.866 320.4 202.866 322.4 202.866 322.4M176.866 309.4C176.866 309.4 173.866 311.4 168.866 311.4C168.866 307.4 172.866 305.4 172.866 305.4C172.866 305.4 168.866 303.4 168.866 299.4C178.866 299.4 178.866 310.4 188.866 310.4C193.866 310.4 196.866 307.4 196.866 305.4C196.866 303.4 193.866 300.4 188.866 300.4C184.866 300.4 182.866 302.4 182.866 302.4M232.866 297.4C232.866 297.4 229.866 299.4 224.866 299.4C224.866 295.4 228.866 293.4 228.866 293.4C228.866 293.4 224.866 291.4 224.866 287.4C234.866 287.4 234.866 298.4 244.866 298.4C249.866 298.4 252.866 295.4 252.866 293.4C252.866 291.4 249.866 288.4 244.866 288.4C240.866 288.4 238.866 290.4 238.866 290.4M186.866 349.4C186.866 349.4 191.866 345.4 196.866 345.4C202.866 345.4 204.866 351.4 212.866 351.4C221.866 351.4 223.866 341.4 231.866 341.4C237.866 341.4 241.866 345.4 241.866 345.4M255.866 269.4C255.866 273.266 235.719 276.4 210.866 276.4C186.013 276.4 165.866 273.266 165.866 269.4C165.866 265.534 186.013 262.4 210.866 262.4C235.719 262.4 255.866 265.534 255.866 269.4Z" stroke="white" stroke-opacity="0.95" stroke-width="2.5" stroke-miterlimit="10" stroke-linecap="round" stroke-linejoin="round"/>
<path d="M198.866 219.4C199.971 219.4 200.866 218.504 200.866 217.4C200.866 216.295 199.971 215.4 198.866 215.4C197.762 215.4 196.866 216.295 196.866 217.4C196.866 218.504 197.762 219.4 198.866 219.4Z" fill="white" fill-opacity="0.95"/>
<path d="M180.866 219.4C181.971 219.4 182.866 218.504 182.866 217.4C182.866 216.295 181.971 215.4 180.866 215.4C179.762 215.4 178.866 216.295 178.866 217.4C178.866 218.504 179.762 219.4 180.866 219.4Z" fill="white" fill-opacity="0.95"/>
</svg>
