<svg width="1150" height="443" viewBox="0 0 1150 443" fill="none" xmlns="http://www.w3.org/2000/svg">
<rect width="1150" height="443" fill="#1A1A1A"/>
<path d="M44.8849 58V47.8182H48.902C49.6742 47.8182 50.3321 47.9657 50.8757 48.2607C51.4193 48.5523 51.8336 48.9583 52.1186 49.4787C52.407 49.9957 52.5511 50.5923 52.5511 51.2685C52.5511 51.9446 52.4053 52.5412 52.1136 53.0582C51.822 53.5753 51.3994 53.978 50.8459 54.2663C50.2957 54.5547 49.6295 54.6989 48.8473 54.6989H46.2869V52.9737H48.4993C48.9136 52.9737 49.255 52.9025 49.5234 52.7599C49.7952 52.6141 49.9974 52.4136 50.13 52.1584C50.2659 51.8999 50.3338 51.6032 50.3338 51.2685C50.3338 50.9304 50.2659 50.6354 50.13 50.3835C49.9974 50.1283 49.7952 49.9311 49.5234 49.7919C49.2517 49.6494 48.907 49.5781 48.4893 49.5781H47.0376V58H44.8849ZM54.7894 58V47.8182H58.8064C59.5754 47.8182 60.2316 47.9557 60.7752 48.2308C61.3221 48.5026 61.738 48.8887 62.0231 49.3892C62.3114 49.8864 62.4556 50.4714 62.4556 51.1442C62.4556 51.8203 62.3098 52.402 62.0181 52.8892C61.7264 53.3731 61.3038 53.7443 60.7503 54.0028C60.2001 54.2614 59.534 54.3906 58.7518 54.3906H56.0621V52.6605H58.4037C58.8147 52.6605 59.1561 52.6042 59.4279 52.4915C59.6997 52.3788 59.9018 52.2098 60.0344 51.9844C60.1703 51.759 60.2383 51.4789 60.2383 51.1442C60.2383 50.8061 60.1703 50.5211 60.0344 50.2891C59.9018 50.0571 59.698 49.8814 59.4229 49.7621C59.1511 49.6394 58.8081 49.5781 58.3938 49.5781H56.9421V58H54.7894ZM60.288 53.3665L62.8185 58H60.4421L57.9662 53.3665H60.288ZM66.9696 47.8182V58H64.8169V47.8182H66.9696ZM69.5807 47.8182H72.2356L75.0395 54.6591H75.1589L77.9628 47.8182H80.6177V58H78.5296V51.3729H78.4451L75.8101 57.9503H74.3883L71.7533 51.348H71.6688V58H69.5807V47.8182ZM84.9862 58H82.6794L86.1943 47.8182H88.9685L92.4784 58H90.1716L87.6212 50.1449H87.5416L84.9862 58ZM84.8421 53.9979H90.2909V55.6783H84.8421V53.9979ZM94.5439 58V47.8182H98.561C99.3299 47.8182 99.9862 47.9557 100.53 48.2308C101.077 48.5026 101.493 48.8887 101.778 49.3892C102.066 49.8864 102.21 50.4714 102.21 51.1442C102.21 51.8203 102.064 52.402 101.773 52.8892C101.481 53.3731 101.058 53.7443 100.505 54.0028C99.9547 54.2614 99.2885 54.3906 98.5063 54.3906H95.8167V52.6605H98.1583C98.5693 52.6605 98.9106 52.6042 99.1824 52.4915C99.4542 52.3788 99.6564 52.2098 99.789 51.9844C99.9248 51.759 99.9928 51.4789 99.9928 51.1442C99.9928 50.8061 99.9248 50.5211 99.789 50.2891C99.6564 50.0571 99.4525 49.8814 99.1775 49.7621C98.9057 49.6394 98.5626 49.5781 98.1483 49.5781H96.6966V58H94.5439ZM100.043 53.3665L102.573 58H100.197L97.7208 53.3665H100.043ZM103.975 47.8182H106.386L108.708 52.2031H108.807L111.129 47.8182H113.54L109.826 54.4006V58H107.689V54.4006L103.975 47.8182Z" fill="white" fill-opacity="0.95"/>
<path d="M67.8654 130.2V129.2C67.8654 124.8 71.4654 121.2 75.8654 121.2H171.865C176.265 121.2 179.865 124.8 179.865 129.2V141.2C179.865 154.2 171.865 157.2 167.865 153.2C163.865 149.2 165.865 143.2 174.865 140.2L188.265 135.7C192.465 134.3 196.965 136.6 198.365 140.8L225.265 221.6C226.665 225.8 224.365 230.3 220.165 231.7L127.365 262.6C123.165 264 118.665 261.7 117.265 257.5L111.765 241.1M101.865 147.2H119.865M179.865 159.2V225.2C179.865 229.6 176.265 233.2 171.865 233.2H75.8654C71.4654 233.2 67.8654 229.6 67.8654 225.2V158.2C67.8654 157.7 67.4654 157.3 66.9654 157.2C61.7654 156.7 57.6654 152.3 57.8654 146.9C58.0654 141.8 62.1654 137.5 67.3654 137.2C70.6654 137 73.5654 138.4 75.5654 140.7L83.0654 139.8C84.7654 134.7 88.0654 131.2 91.9654 131.2C97.4654 131.2 101.965 138.4 101.965 147.2C101.965 156 97.4654 163.2 91.9654 163.2C88.0654 163.2 84.6654 159.3 82.9654 154.2L75.9654 153.2M87.8654 186.3L91.3654 182.8C94.4654 179.7 99.8654 181.9 99.8654 186.3C99.8654 190.7 105.265 192.9 108.365 189.8L115.365 182.8C118.465 179.7 123.865 181.9 123.865 186.3C123.865 190.7 129.265 192.9 132.365 189.8L139.365 182.8C142.465 179.7 147.865 181.9 147.865 186.3C147.865 190.7 153.265 192.9 156.365 189.8L159.865 186.3M87.8654 208.3L91.3654 204.8C94.4654 201.7 99.8654 203.9 99.8654 208.3C99.8654 212.7 105.265 214.9 108.365 211.8L115.365 204.8C118.465 201.7 123.865 203.9 123.865 208.3C123.865 212.7 129.265 214.9 132.365 211.8L139.365 204.8C142.465 201.7 147.865 203.9 147.865 208.3C147.865 212.7 153.265 214.9 156.365 211.8L159.865 208.3" stroke="url(#paint0_linear_1036_2187)" stroke-width="2.5" stroke-miterlimit="10" stroke-linecap="round" stroke-linejoin="round"/>
<circle cx="24" cy="24" r="24" transform="matrix(-1 0 0 1 100 343)" fill="url(#paint1_linear_1036_2187)"/>
<circle cx="24" cy="24" r="28" transform="matrix(-1 0 0 1 100 343)" stroke="white" stroke-opacity="0.2" stroke-width="8"/>
<path d="M137.227 358.045V375.5H135.114V358.045H137.227ZM143.204 358.045V375.5H141.192V358.045H143.204ZM148.899 358.045V375.5H146.888V358.045H148.899ZM160.833 370.148V362.409H162.844V375.5H160.833V373.284H160.697C160.39 373.949 159.913 374.514 159.265 374.98C158.617 375.44 157.799 375.67 156.81 375.67C155.992 375.67 155.265 375.491 154.629 375.134C153.992 374.77 153.492 374.224 153.129 373.497C152.765 372.764 152.583 371.841 152.583 370.727V362.409H154.594V370.591C154.594 371.545 154.862 372.307 155.396 372.875C155.935 373.443 156.623 373.727 157.458 373.727C157.958 373.727 158.467 373.599 158.984 373.344C159.506 373.088 159.944 372.696 160.296 372.168C160.654 371.639 160.833 370.966 160.833 370.148ZM175.801 365.341L173.994 365.852C173.881 365.551 173.713 365.259 173.491 364.974C173.276 364.685 172.98 364.446 172.605 364.259C172.23 364.071 171.75 363.977 171.165 363.977C170.364 363.977 169.696 364.162 169.162 364.531C168.634 364.895 168.369 365.358 168.369 365.92C168.369 366.42 168.551 366.815 168.915 367.105C169.278 367.395 169.847 367.636 170.619 367.83L172.562 368.307C173.733 368.591 174.605 369.026 175.179 369.611C175.753 370.19 176.04 370.937 176.04 371.852C176.04 372.602 175.824 373.273 175.392 373.864C174.966 374.455 174.369 374.92 173.602 375.261C172.835 375.602 171.943 375.773 170.926 375.773C169.591 375.773 168.486 375.483 167.611 374.903C166.736 374.324 166.182 373.477 165.949 372.364L167.858 371.886C168.04 372.591 168.384 373.119 168.889 373.472C169.401 373.824 170.068 374 170.892 374C171.83 374 172.574 373.801 173.125 373.403C173.682 373 173.96 372.517 173.96 371.955C173.96 371.5 173.801 371.119 173.483 370.812C173.165 370.5 172.676 370.267 172.017 370.114L169.835 369.602C168.636 369.318 167.756 368.878 167.193 368.281C166.636 367.679 166.358 366.926 166.358 366.023C166.358 365.284 166.565 364.631 166.98 364.062C167.401 363.494 167.972 363.048 168.693 362.724C169.42 362.401 170.244 362.239 171.165 362.239C172.46 362.239 173.477 362.523 174.216 363.091C174.96 363.659 175.489 364.409 175.801 365.341ZM184.761 362.409V364.114H177.977V362.409H184.761ZM179.954 359.273H181.965V371.75C181.965 372.318 182.048 372.744 182.212 373.028C182.383 373.307 182.599 373.494 182.86 373.591C183.127 373.682 183.408 373.727 183.704 373.727C183.925 373.727 184.107 373.716 184.249 373.693C184.391 373.665 184.505 373.642 184.59 373.625L184.999 375.432C184.863 375.483 184.673 375.534 184.428 375.585C184.184 375.642 183.874 375.67 183.499 375.67C182.931 375.67 182.374 375.548 181.829 375.304C181.289 375.06 180.84 374.688 180.482 374.188C180.13 373.688 179.954 373.057 179.954 372.295V359.273ZM187.786 375.5V362.409H189.729V364.386H189.866C190.104 363.739 190.536 363.213 191.161 362.81C191.786 362.406 192.491 362.205 193.275 362.205C193.423 362.205 193.607 362.207 193.829 362.213C194.05 362.219 194.218 362.227 194.332 362.239V364.284C194.263 364.267 194.107 364.241 193.863 364.207C193.624 364.168 193.371 364.148 193.104 364.148C192.468 364.148 191.9 364.281 191.4 364.548C190.906 364.81 190.513 365.173 190.224 365.639C189.94 366.099 189.798 366.625 189.798 367.216V375.5H187.786ZM200.568 375.807C199.739 375.807 198.986 375.651 198.31 375.338C197.634 375.02 197.097 374.562 196.699 373.966C196.301 373.364 196.102 372.636 196.102 371.784C196.102 371.034 196.25 370.426 196.545 369.96C196.841 369.489 197.236 369.119 197.73 368.852C198.224 368.585 198.77 368.386 199.366 368.256C199.969 368.119 200.574 368.011 201.182 367.932C201.977 367.83 202.622 367.753 203.116 367.702C203.616 367.645 203.98 367.551 204.207 367.42C204.44 367.29 204.557 367.062 204.557 366.739V366.67C204.557 365.83 204.327 365.176 203.866 364.71C203.412 364.244 202.722 364.011 201.795 364.011C200.835 364.011 200.082 364.222 199.537 364.642C198.991 365.062 198.608 365.511 198.386 365.989L196.477 365.307C196.818 364.511 197.273 363.892 197.841 363.449C198.415 363 199.04 362.687 199.716 362.511C200.398 362.33 201.068 362.239 201.727 362.239C202.148 362.239 202.631 362.29 203.176 362.392C203.727 362.489 204.259 362.69 204.77 362.997C205.287 363.304 205.716 363.767 206.057 364.386C206.398 365.006 206.568 365.835 206.568 366.875V375.5H204.557V373.727H204.455C204.318 374.011 204.091 374.315 203.773 374.639C203.455 374.963 203.031 375.239 202.503 375.466C201.974 375.693 201.33 375.807 200.568 375.807ZM200.875 374C201.67 374 202.341 373.844 202.886 373.531C203.438 373.219 203.852 372.815 204.131 372.321C204.415 371.827 204.557 371.307 204.557 370.761V368.92C204.472 369.023 204.284 369.116 203.994 369.202C203.71 369.281 203.381 369.352 203.006 369.415C202.636 369.472 202.276 369.523 201.923 369.568C201.577 369.608 201.295 369.642 201.08 369.67C200.557 369.739 200.068 369.849 199.614 370.003C199.165 370.151 198.801 370.375 198.523 370.676C198.25 370.972 198.114 371.375 198.114 371.886C198.114 372.585 198.372 373.114 198.889 373.472C199.412 373.824 200.074 374 200.875 374ZM215.933 362.409V364.114H209.148V362.409H215.933ZM211.126 359.273H213.137V371.75C213.137 372.318 213.219 372.744 213.384 373.028C213.555 373.307 213.771 373.494 214.032 373.591C214.299 373.682 214.58 373.727 214.876 373.727C215.097 373.727 215.279 373.716 215.421 373.693C215.563 373.665 215.677 373.642 215.762 373.625L216.171 375.432C216.035 375.483 215.844 375.534 215.6 375.585C215.356 375.642 215.046 375.67 214.671 375.67C214.103 375.67 213.546 375.548 213.001 375.304C212.461 375.06 212.012 374.688 211.654 374.188C211.302 373.688 211.126 373.057 211.126 372.295V359.273ZM218.958 375.5V362.409H220.969V375.5H218.958ZM219.981 360.227C219.589 360.227 219.251 360.094 218.967 359.827C218.688 359.56 218.549 359.239 218.549 358.864C218.549 358.489 218.688 358.168 218.967 357.901C219.251 357.634 219.589 357.5 219.981 357.5C220.373 357.5 220.708 357.634 220.987 357.901C221.271 358.168 221.413 358.489 221.413 358.864C221.413 359.239 221.271 359.56 220.987 359.827C220.708 360.094 220.373 360.227 219.981 360.227ZM229.972 375.773C228.79 375.773 227.753 375.491 226.861 374.929C225.974 374.366 225.281 373.58 224.781 372.568C224.287 371.557 224.04 370.375 224.04 369.023C224.04 367.659 224.287 366.469 224.781 365.452C225.281 364.435 225.974 363.645 226.861 363.082C227.753 362.52 228.79 362.239 229.972 362.239C231.153 362.239 232.188 362.52 233.074 363.082C233.966 363.645 234.659 364.435 235.153 365.452C235.653 366.469 235.903 367.659 235.903 369.023C235.903 370.375 235.653 371.557 235.153 372.568C234.659 373.58 233.966 374.366 233.074 374.929C232.188 375.491 231.153 375.773 229.972 375.773ZM229.972 373.966C230.869 373.966 231.608 373.736 232.188 373.276C232.767 372.815 233.196 372.21 233.474 371.46C233.753 370.71 233.892 369.898 233.892 369.023C233.892 368.148 233.753 367.332 233.474 366.577C233.196 365.821 232.767 365.21 232.188 364.744C231.608 364.278 230.869 364.045 229.972 364.045C229.074 364.045 228.335 364.278 227.756 364.744C227.176 365.21 226.747 365.821 226.469 366.577C226.19 367.332 226.051 368.148 226.051 369.023C226.051 369.898 226.19 370.71 226.469 371.46C226.747 372.21 227.176 372.815 227.756 373.276C228.335 373.736 229.074 373.966 229.972 373.966ZM240.985 367.625V375.5H238.974V362.409H240.917V364.455H241.087C241.394 363.79 241.86 363.256 242.485 362.852C243.11 362.443 243.917 362.239 244.906 362.239C245.792 362.239 246.567 362.42 247.232 362.784C247.897 363.142 248.414 363.688 248.783 364.42C249.153 365.148 249.337 366.068 249.337 367.182V375.5H247.326V367.318C247.326 366.29 247.059 365.489 246.525 364.915C245.991 364.335 245.258 364.045 244.326 364.045C243.684 364.045 243.11 364.185 242.604 364.463C242.104 364.741 241.71 365.148 241.42 365.682C241.13 366.216 240.985 366.864 240.985 367.625ZM253.286 375.5V358.045H263.82V359.92H255.399V365.818H263.274V367.693H255.399V373.625H263.956V375.5H253.286ZM267.357 375.5V362.409H269.3V364.455H269.47C269.743 363.756 270.183 363.213 270.791 362.827C271.399 362.435 272.129 362.239 272.982 362.239C273.845 362.239 274.564 362.435 275.138 362.827C275.717 363.213 276.169 363.756 276.493 364.455H276.629C276.964 363.778 277.467 363.241 278.138 362.844C278.808 362.44 279.612 362.239 280.55 362.239C281.72 362.239 282.678 362.605 283.422 363.338C284.166 364.065 284.538 365.199 284.538 366.739V375.5H282.527V366.739C282.527 365.773 282.263 365.082 281.734 364.668C281.206 364.253 280.584 364.045 279.868 364.045C278.947 364.045 278.234 364.324 277.729 364.881C277.223 365.432 276.97 366.131 276.97 366.977V375.5H274.925V366.534C274.925 365.79 274.683 365.19 274.2 364.736C273.717 364.276 273.095 364.045 272.334 364.045C271.811 364.045 271.322 364.185 270.868 364.463C270.419 364.741 270.055 365.128 269.777 365.622C269.504 366.111 269.368 366.676 269.368 367.318V375.5H267.357ZM288.216 380.409V362.409H290.159V364.489H290.398C290.545 364.261 290.75 363.972 291.011 363.619C291.278 363.261 291.659 362.943 292.153 362.665C292.653 362.381 293.33 362.239 294.182 362.239C295.284 362.239 296.256 362.514 297.097 363.065C297.938 363.616 298.594 364.398 299.065 365.409C299.537 366.42 299.773 367.614 299.773 368.989C299.773 370.375 299.537 371.577 299.065 372.594C298.594 373.605 297.94 374.389 297.105 374.946C296.27 375.497 295.307 375.773 294.216 375.773C293.375 375.773 292.702 375.634 292.196 375.355C291.69 375.071 291.301 374.75 291.028 374.392C290.756 374.028 290.545 373.727 290.398 373.489H290.227V380.409H288.216ZM290.193 368.955C290.193 369.943 290.338 370.815 290.628 371.571C290.918 372.321 291.341 372.909 291.898 373.335C292.455 373.756 293.136 373.966 293.943 373.966C294.784 373.966 295.486 373.744 296.048 373.301C296.616 372.852 297.043 372.25 297.327 371.494C297.616 370.733 297.761 369.886 297.761 368.955C297.761 368.034 297.619 367.205 297.335 366.466C297.057 365.722 296.634 365.134 296.065 364.702C295.503 364.264 294.795 364.045 293.943 364.045C293.125 364.045 292.438 364.253 291.881 364.668C291.324 365.077 290.903 365.651 290.619 366.389C290.335 367.122 290.193 367.977 290.193 368.955ZM308.534 362.409V364.114H301.75V362.409H308.534ZM303.727 359.273H305.739V371.75C305.739 372.318 305.821 372.744 305.986 373.028C306.156 373.307 306.372 373.494 306.634 373.591C306.901 373.682 307.182 373.727 307.477 373.727C307.699 373.727 307.881 373.716 308.023 373.693C308.165 373.665 308.278 373.642 308.364 373.625L308.773 375.432C308.636 375.483 308.446 375.534 308.202 375.585C307.957 375.642 307.648 375.67 307.273 375.67C306.705 375.67 306.148 375.548 305.602 375.304C305.063 375.06 304.614 374.688 304.256 374.188C303.903 373.688 303.727 373.057 303.727 372.295V359.273ZM312.855 380.409C312.514 380.409 312.21 380.381 311.943 380.324C311.676 380.273 311.491 380.222 311.389 380.17L311.901 378.398C312.389 378.523 312.821 378.568 313.196 378.534C313.571 378.5 313.903 378.332 314.193 378.031C314.489 377.736 314.759 377.256 315.003 376.591L315.378 375.568L310.537 362.409H312.719L316.332 372.841H316.469L320.082 362.409H322.264L316.707 377.409C316.457 378.085 316.148 378.645 315.778 379.088C315.409 379.537 314.98 379.869 314.491 380.085C314.009 380.301 313.463 380.409 312.855 380.409ZM325.192 375.5V358.045H331.089C332.459 358.045 333.578 358.293 334.447 358.787C335.322 359.276 335.97 359.938 336.391 360.773C336.811 361.608 337.021 362.54 337.021 363.568C337.021 364.597 336.811 365.531 336.391 366.372C335.976 367.213 335.334 367.884 334.464 368.384C333.595 368.878 332.482 369.125 331.124 369.125H326.896V367.25H331.055C331.993 367.25 332.746 367.088 333.314 366.764C333.882 366.44 334.294 366.003 334.55 365.452C334.811 364.895 334.942 364.267 334.942 363.568C334.942 362.869 334.811 362.244 334.55 361.693C334.294 361.142 333.879 360.71 333.305 360.398C332.732 360.08 331.97 359.92 331.021 359.92H327.305V375.5H325.192ZM340.153 375.5V362.409H342.097V364.386H342.233C342.472 363.739 342.903 363.213 343.528 362.81C344.153 362.406 344.858 362.205 345.642 362.205C345.79 362.205 345.974 362.207 346.196 362.213C346.418 362.219 346.585 362.227 346.699 362.239V364.284C346.631 364.267 346.474 364.241 346.23 364.207C345.991 364.168 345.739 364.148 345.472 364.148C344.835 364.148 344.267 364.281 343.767 364.548C343.273 364.81 342.881 365.173 342.591 365.639C342.307 366.099 342.165 366.625 342.165 367.216V375.5H340.153ZM349.083 375.5V362.409H351.094V375.5H349.083ZM350.106 360.227C349.714 360.227 349.376 360.094 349.092 359.827C348.813 359.56 348.674 359.239 348.674 358.864C348.674 358.489 348.813 358.168 349.092 357.901C349.376 357.634 349.714 357.5 350.106 357.5C350.498 357.5 350.833 357.634 351.112 357.901C351.396 358.168 351.538 358.489 351.538 358.864C351.538 359.239 351.396 359.56 351.112 359.827C350.833 360.094 350.498 360.227 350.106 360.227ZM354.778 375.5V362.409H356.722V364.455H356.892C357.165 363.756 357.605 363.213 358.213 362.827C358.821 362.435 359.551 362.239 360.403 362.239C361.267 362.239 361.986 362.435 362.56 362.827C363.139 363.213 363.591 363.756 363.915 364.455H364.051C364.386 363.778 364.889 363.241 365.56 362.844C366.23 362.44 367.034 362.239 367.972 362.239C369.142 362.239 370.099 362.605 370.844 363.338C371.588 364.065 371.96 365.199 371.96 366.739V375.5H369.949V366.739C369.949 365.773 369.685 365.082 369.156 364.668C368.628 364.253 368.006 364.045 367.29 364.045C366.369 364.045 365.656 364.324 365.151 364.881C364.645 365.432 364.392 366.131 364.392 366.977V375.5H362.347V366.534C362.347 365.79 362.105 365.19 361.622 364.736C361.139 364.276 360.517 364.045 359.756 364.045C359.233 364.045 358.744 364.185 358.29 364.463C357.841 364.741 357.477 365.128 357.199 365.622C356.926 366.111 356.79 366.676 356.79 367.318V375.5H354.778ZM379.49 375.807C378.661 375.807 377.908 375.651 377.232 375.338C376.555 375.02 376.018 374.562 375.621 373.966C375.223 373.364 375.024 372.636 375.024 371.784C375.024 371.034 375.172 370.426 375.467 369.96C375.763 369.489 376.158 369.119 376.652 368.852C377.146 368.585 377.692 368.386 378.288 368.256C378.891 368.119 379.496 368.011 380.104 367.932C380.899 367.83 381.544 367.753 382.038 367.702C382.538 367.645 382.902 367.551 383.129 367.42C383.362 367.29 383.479 367.062 383.479 366.739V366.67C383.479 365.83 383.249 365.176 382.788 364.71C382.334 364.244 381.643 364.011 380.717 364.011C379.757 364.011 379.004 364.222 378.459 364.642C377.913 365.062 377.53 365.511 377.308 365.989L375.399 365.307C375.74 364.511 376.195 363.892 376.763 363.449C377.337 363 377.962 362.687 378.638 362.511C379.32 362.33 379.99 362.239 380.649 362.239C381.07 362.239 381.553 362.29 382.098 362.392C382.649 362.489 383.18 362.69 383.692 362.997C384.209 363.304 384.638 363.767 384.979 364.386C385.32 365.006 385.49 365.835 385.49 366.875V375.5H383.479V373.727H383.376C383.24 374.011 383.013 374.315 382.695 374.639C382.376 374.963 381.953 375.239 381.425 375.466C380.896 375.693 380.251 375.807 379.49 375.807ZM379.797 374C380.592 374 381.263 373.844 381.808 373.531C382.359 373.219 382.774 372.815 383.053 372.321C383.337 371.827 383.479 371.307 383.479 370.761V368.92C383.393 369.023 383.206 369.116 382.916 369.202C382.632 369.281 382.303 369.352 381.928 369.415C381.558 369.472 381.197 369.523 380.845 369.568C380.499 369.608 380.217 369.642 380.001 369.67C379.479 369.739 378.99 369.849 378.536 370.003C378.087 370.151 377.723 370.375 377.445 370.676C377.172 370.972 377.036 371.375 377.036 371.886C377.036 372.585 377.294 373.114 377.811 373.472C378.334 373.824 378.996 374 379.797 374ZM389.161 375.5V362.409H391.104V364.386H391.241C391.479 363.739 391.911 363.213 392.536 362.81C393.161 362.406 393.866 362.205 394.65 362.205C394.798 362.205 394.982 362.207 395.204 362.213C395.425 362.219 395.593 362.227 395.707 362.239V364.284C395.638 364.267 395.482 364.241 395.238 364.207C394.999 364.168 394.746 364.148 394.479 364.148C393.843 364.148 393.275 364.281 392.775 364.548C392.281 364.81 391.888 365.173 391.599 365.639C391.315 366.099 391.173 366.625 391.173 367.216V375.5H389.161ZM399.785 380.409C399.444 380.409 399.14 380.381 398.873 380.324C398.606 380.273 398.421 380.222 398.319 380.17L398.83 378.398C399.319 378.523 399.751 378.568 400.126 378.534C400.501 378.5 400.833 378.332 401.123 378.031C401.418 377.736 401.688 377.256 401.933 376.591L402.308 375.568L397.467 362.409H399.648L403.262 372.841H403.398L407.012 362.409H409.194L403.637 377.409C403.387 378.085 403.077 378.645 402.708 379.088C402.339 379.537 401.91 379.869 401.421 380.085C400.938 380.301 400.393 380.409 399.785 380.409Z" fill="white" fill-opacity="0.95"/>
<path d="M597.408 50.7464C597.369 50.3454 597.198 50.0339 596.896 49.8118C596.595 49.5897 596.185 49.4787 595.668 49.4787C595.317 49.4787 595.02 49.5284 594.778 49.6278C594.536 49.724 594.351 49.8582 594.222 50.0305C594.096 50.2029 594.033 50.3984 594.033 50.6172C594.026 50.7995 594.064 50.9586 594.147 51.0945C594.233 51.2304 594.351 51.348 594.5 51.4474C594.649 51.5436 594.821 51.6281 595.017 51.701C595.213 51.7706 595.421 51.8303 595.643 51.88L596.558 52.0987C597.002 52.1982 597.41 52.3307 597.781 52.4964C598.152 52.6622 598.474 52.866 598.746 53.108C599.018 53.3499 599.228 53.6349 599.377 53.9631C599.53 54.2912 599.607 54.6674 599.611 55.0916C599.607 55.7147 599.448 56.255 599.134 56.7124C598.822 57.1664 598.371 57.5194 597.781 57.7713C597.195 58.0199 596.487 58.1442 595.658 58.1442C594.836 58.1442 594.121 58.0182 593.511 57.7663C592.904 57.5144 592.43 57.1416 592.089 56.6477C591.751 56.1506 591.573 55.5357 591.557 54.8033H593.64C593.663 55.1446 593.761 55.4297 593.933 55.6584C594.109 55.8838 594.343 56.0545 594.634 56.1705C594.929 56.2831 595.262 56.3395 595.634 56.3395C595.998 56.3395 596.315 56.2865 596.583 56.1804C596.855 56.0743 597.065 55.9268 597.214 55.7379C597.364 55.549 597.438 55.3319 597.438 55.0866C597.438 54.858 597.37 54.6657 597.234 54.5099C597.102 54.3542 596.906 54.2216 596.648 54.1122C596.393 54.0028 596.079 53.9034 595.708 53.8139L594.599 53.5355C593.741 53.3267 593.063 53.0002 592.566 52.5561C592.069 52.112 591.822 51.5137 591.825 50.7614C591.822 50.1449 591.986 49.6063 592.317 49.1456C592.652 48.6849 593.111 48.3253 593.695 48.0668C594.278 47.8082 594.941 47.679 595.683 47.679C596.439 47.679 597.098 47.8082 597.662 48.0668C598.229 48.3253 598.67 48.6849 598.984 49.1456C599.299 49.6063 599.462 50.1399 599.472 50.7464H597.408ZM601.899 58V47.8182H608.76V49.593H604.051V52.0192H608.407V53.794H604.051V56.2251H608.779V58H601.899ZM620.295 51.3828H618.117C618.077 51.1011 617.996 50.8509 617.874 50.6321C617.751 50.41 617.593 50.2211 617.401 50.0653C617.209 49.9096 616.987 49.7902 616.735 49.7074C616.486 49.6245 616.216 49.5831 615.925 49.5831C615.398 49.5831 614.939 49.714 614.548 49.9759C614.156 50.2344 613.853 50.6122 613.638 51.1094C613.422 51.6032 613.315 52.2031 613.315 52.9091C613.315 53.6349 613.422 54.2448 613.638 54.7386C613.856 55.2325 614.161 55.6054 614.553 55.8572C614.944 56.1091 615.396 56.2351 615.91 56.2351C616.198 56.2351 616.465 56.197 616.71 56.1207C616.959 56.0445 617.179 55.9335 617.371 55.7876C617.564 55.6385 617.723 55.4579 617.849 55.2457C617.978 55.0336 618.067 54.7917 618.117 54.5199L620.295 54.5298C620.238 54.9972 620.097 55.4479 619.872 55.8821C619.65 56.313 619.35 56.6991 618.972 57.0405C618.598 57.3786 618.15 57.647 617.63 57.8459C617.113 58.0414 616.528 58.1392 615.875 58.1392C614.967 58.1392 614.155 57.9337 613.439 57.5227C612.726 57.1117 612.163 56.5168 611.749 55.7379C611.338 54.959 611.132 54.0161 611.132 52.9091C611.132 51.7988 611.341 50.8542 611.758 50.0753C612.176 49.2964 612.743 48.7031 613.459 48.2955C614.175 47.8845 614.98 47.679 615.875 47.679C616.465 47.679 617.012 47.7618 617.516 47.9276C618.023 48.0933 618.472 48.3352 618.863 48.6534C619.254 48.9683 619.572 49.3544 619.817 49.8118C620.066 50.2692 620.225 50.7929 620.295 51.3828ZM632.035 52.9091C632.035 54.0194 631.824 54.964 631.404 55.7429C630.986 56.5218 630.416 57.1167 629.693 57.5277C628.974 57.9354 628.165 58.1392 627.267 58.1392C626.362 58.1392 625.55 57.9337 624.831 57.5227C624.112 57.1117 623.543 56.5168 623.126 55.7379C622.708 54.959 622.499 54.0161 622.499 52.9091C622.499 51.7988 622.708 50.8542 623.126 50.0753C623.543 49.2964 624.112 48.7031 624.831 48.2955C625.55 47.8845 626.362 47.679 627.267 47.679C628.165 47.679 628.974 47.8845 629.693 48.2955C630.416 48.7031 630.986 49.2964 631.404 50.0753C631.824 50.8542 632.035 51.7988 632.035 52.9091ZM629.852 52.9091C629.852 52.1899 629.745 51.5833 629.529 51.0895C629.317 50.5956 629.017 50.2211 628.629 49.9659C628.242 49.7107 627.788 49.5831 627.267 49.5831C626.747 49.5831 626.293 49.7107 625.905 49.9659C625.517 50.2211 625.216 50.5956 625 51.0895C624.788 51.5833 624.682 52.1899 624.682 52.9091C624.682 53.6283 624.788 54.2348 625 54.7287C625.216 55.2225 625.517 55.5971 625.905 55.8523C626.293 56.1075 626.747 56.2351 627.267 56.2351C627.788 56.2351 628.242 56.1075 628.629 55.8523C629.017 55.5971 629.317 55.2225 629.529 54.7287C629.745 54.2348 629.852 53.6283 629.852 52.9091ZM642.986 47.8182V58H641.127L636.697 51.5916H636.622V58H634.47V47.8182H636.359L640.754 54.2216H640.843V47.8182H642.986ZM649.214 58H645.604V47.8182H649.244C650.268 47.8182 651.149 48.022 651.889 48.4297C652.628 48.834 653.196 49.4157 653.594 50.1747C653.995 50.9337 654.195 51.8419 654.195 52.8991C654.195 53.9598 653.995 54.8712 653.594 55.6335C653.196 56.3958 652.624 56.9808 651.879 57.3885C651.136 57.7962 650.248 58 649.214 58ZM647.757 56.1555H649.124C649.761 56.1555 650.296 56.0429 650.73 55.8175C651.168 55.5888 651.496 55.2358 651.715 54.7585C651.937 54.2779 652.048 53.6581 652.048 52.8991C652.048 52.1468 651.937 51.532 651.715 51.0547C651.496 50.5774 651.169 50.2261 650.735 50.0007C650.301 49.7753 649.766 49.6626 649.129 49.6626H647.757V56.1555ZM657.811 58H655.504L659.019 47.8182H661.793L665.303 58H662.996L660.446 50.1449H660.366L657.811 58ZM657.667 53.9979H663.115V55.6783H657.667V53.9979ZM667.368 58V47.8182H671.386C672.154 47.8182 672.811 47.9557 673.354 48.2308C673.901 48.5026 674.317 48.8887 674.602 49.3892C674.89 49.8864 675.035 50.4714 675.035 51.1442C675.035 51.8203 674.889 52.402 674.597 52.8892C674.305 53.3731 673.883 53.7443 673.329 54.0028C672.779 54.2614 672.113 54.3906 671.331 54.3906H668.641V52.6605H670.983C671.394 52.6605 671.735 52.6042 672.007 52.4915C672.279 52.3788 672.481 52.2098 672.613 51.9844C672.749 51.759 672.817 51.4789 672.817 51.1442C672.817 50.8061 672.749 50.5211 672.613 50.2891C672.481 50.0571 672.277 49.8814 672.002 49.7621C671.73 49.6394 671.387 49.5781 670.973 49.5781H669.521V58H667.368ZM672.867 53.3665L675.398 58H673.021L670.545 53.3665H672.867ZM676.799 47.8182H679.211L681.532 52.2031H681.632L683.953 47.8182H686.365L682.651 54.4006V58H680.513V54.4006L676.799 47.8182Z" fill="white" fill-opacity="0.95"/>
<path d="M614.865 130.2V129.2C614.865 124.8 618.465 121.2 622.865 121.2H718.865C723.265 121.2 726.865 124.8 726.865 129.2V141.2C726.865 154.2 718.865 157.2 714.865 153.2C710.865 149.2 712.865 143.2 721.865 140.2L735.265 135.7C739.465 134.3 743.965 136.6 745.365 140.8L772.265 221.6C773.665 225.8 771.365 230.3 767.165 231.7L674.365 262.6C670.165 264 665.665 261.7 664.265 257.5L658.765 241.1M648.865 147.2H666.865M726.865 159.2V225.2C726.865 229.6 723.265 233.2 718.865 233.2H622.865C618.465 233.2 614.865 229.6 614.865 225.2V158.2C614.865 157.7 614.465 157.3 613.965 157.2C608.765 156.7 604.665 152.3 604.865 146.9C605.065 141.8 609.165 137.5 614.365 137.2C617.665 137 620.565 138.4 622.565 140.7L630.065 139.8C631.765 134.7 635.065 131.2 638.965 131.2C644.465 131.2 648.965 138.4 648.965 147.2C648.965 156 644.465 163.2 638.965 163.2C635.065 163.2 631.665 159.3 629.965 154.2L622.965 153.2M634.865 186.3L638.365 182.8C641.465 179.7 646.865 181.9 646.865 186.3C646.865 190.7 652.265 192.9 655.365 189.8L662.365 182.8C665.465 179.7 670.865 181.9 670.865 186.3C670.865 190.7 676.265 192.9 679.365 189.8L686.365 182.8C689.465 179.7 694.865 181.9 694.865 186.3C694.865 190.7 700.265 192.9 703.365 189.8L706.865 186.3M634.865 208.3L638.365 204.8C641.465 201.7 646.865 203.9 646.865 208.3C646.865 212.7 652.265 214.9 655.365 211.8L662.365 204.8C665.465 201.7 670.865 203.9 670.865 208.3C670.865 212.7 676.265 214.9 679.365 211.8L686.365 204.8C689.465 201.7 694.865 203.9 694.865 208.3C694.865 212.7 700.265 214.9 703.365 211.8L706.865 208.3" stroke="url(#paint2_linear_1036_2187)" stroke-width="2.5" stroke-miterlimit="10" stroke-linecap="round" stroke-linejoin="round"/>
<circle cx="24" cy="24" r="24" transform="matrix(-1 0 0 1 647 343)" fill="url(#paint3_linear_1036_2187)"/>
<circle cx="24" cy="24" r="28" transform="matrix(-1 0 0 1 647 343)" stroke="white" stroke-opacity="0.2" stroke-width="8"/>
<path d="M684.227 358.045V375.5H682.114V358.045H684.227ZM690.204 358.045V375.5H688.192V358.045H690.204ZM695.899 358.045V375.5H693.888V358.045H695.899ZM707.833 370.148V362.409H709.844V375.5H707.833V373.284H707.697C707.39 373.949 706.913 374.514 706.265 374.98C705.617 375.44 704.799 375.67 703.81 375.67C702.992 375.67 702.265 375.491 701.629 375.134C700.992 374.77 700.492 374.224 700.129 373.497C699.765 372.764 699.583 371.841 699.583 370.727V362.409H701.594V370.591C701.594 371.545 701.862 372.307 702.396 372.875C702.935 373.443 703.623 373.727 704.458 373.727C704.958 373.727 705.467 373.599 705.984 373.344C706.506 373.088 706.944 372.696 707.296 372.168C707.654 371.639 707.833 370.966 707.833 370.148ZM722.801 365.341L720.994 365.852C720.881 365.551 720.713 365.259 720.491 364.974C720.276 364.685 719.98 364.446 719.605 364.259C719.23 364.071 718.75 363.977 718.165 363.977C717.364 363.977 716.696 364.162 716.162 364.531C715.634 364.895 715.369 365.358 715.369 365.92C715.369 366.42 715.551 366.815 715.915 367.105C716.278 367.395 716.847 367.636 717.619 367.83L719.562 368.307C720.733 368.591 721.605 369.026 722.179 369.611C722.753 370.19 723.04 370.937 723.04 371.852C723.04 372.602 722.824 373.273 722.392 373.864C721.966 374.455 721.369 374.92 720.602 375.261C719.835 375.602 718.943 375.773 717.926 375.773C716.591 375.773 715.486 375.483 714.611 374.903C713.736 374.324 713.182 373.477 712.949 372.364L714.858 371.886C715.04 372.591 715.384 373.119 715.889 373.472C716.401 373.824 717.068 374 717.892 374C718.83 374 719.574 373.801 720.125 373.403C720.682 373 720.96 372.517 720.96 371.955C720.96 371.5 720.801 371.119 720.483 370.812C720.165 370.5 719.676 370.267 719.017 370.114L716.835 369.602C715.636 369.318 714.756 368.878 714.193 368.281C713.636 367.679 713.358 366.926 713.358 366.023C713.358 365.284 713.565 364.631 713.98 364.062C714.401 363.494 714.972 363.048 715.693 362.724C716.42 362.401 717.244 362.239 718.165 362.239C719.46 362.239 720.477 362.523 721.216 363.091C721.96 363.659 722.489 364.409 722.801 365.341ZM731.761 362.409V364.114H724.977V362.409H731.761ZM726.954 359.273H728.965V371.75C728.965 372.318 729.048 372.744 729.212 373.028C729.383 373.307 729.599 373.494 729.86 373.591C730.127 373.682 730.408 373.727 730.704 373.727C730.925 373.727 731.107 373.716 731.249 373.693C731.391 373.665 731.505 373.642 731.59 373.625L731.999 375.432C731.863 375.483 731.673 375.534 731.428 375.585C731.184 375.642 730.874 375.67 730.499 375.67C729.931 375.67 729.374 375.548 728.829 375.304C728.289 375.06 727.84 374.688 727.482 374.188C727.13 373.688 726.954 373.057 726.954 372.295V359.273ZM734.786 375.5V362.409H736.729V364.386H736.866C737.104 363.739 737.536 363.213 738.161 362.81C738.786 362.406 739.491 362.205 740.275 362.205C740.423 362.205 740.607 362.207 740.829 362.213C741.05 362.219 741.218 362.227 741.332 362.239V364.284C741.263 364.267 741.107 364.241 740.863 364.207C740.624 364.168 740.371 364.148 740.104 364.148C739.468 364.148 738.9 364.281 738.4 364.548C737.906 364.81 737.513 365.173 737.224 365.639C736.94 366.099 736.798 366.625 736.798 367.216V375.5H734.786ZM747.568 375.807C746.739 375.807 745.986 375.651 745.31 375.338C744.634 375.02 744.097 374.562 743.699 373.966C743.301 373.364 743.102 372.636 743.102 371.784C743.102 371.034 743.25 370.426 743.545 369.96C743.841 369.489 744.236 369.119 744.73 368.852C745.224 368.585 745.77 368.386 746.366 368.256C746.969 368.119 747.574 368.011 748.182 367.932C748.977 367.83 749.622 367.753 750.116 367.702C750.616 367.645 750.98 367.551 751.207 367.42C751.44 367.29 751.557 367.062 751.557 366.739V366.67C751.557 365.83 751.327 365.176 750.866 364.71C750.412 364.244 749.722 364.011 748.795 364.011C747.835 364.011 747.082 364.222 746.537 364.642C745.991 365.062 745.608 365.511 745.386 365.989L743.477 365.307C743.818 364.511 744.273 363.892 744.841 363.449C745.415 363 746.04 362.687 746.716 362.511C747.398 362.33 748.068 362.239 748.727 362.239C749.148 362.239 749.631 362.29 750.176 362.392C750.727 362.489 751.259 362.69 751.77 362.997C752.287 363.304 752.716 363.767 753.057 364.386C753.398 365.006 753.568 365.835 753.568 366.875V375.5H751.557V373.727H751.455C751.318 374.011 751.091 374.315 750.773 374.639C750.455 374.963 750.031 375.239 749.503 375.466C748.974 375.693 748.33 375.807 747.568 375.807ZM747.875 374C748.67 374 749.341 373.844 749.886 373.531C750.438 373.219 750.852 372.815 751.131 372.321C751.415 371.827 751.557 371.307 751.557 370.761V368.92C751.472 369.023 751.284 369.116 750.994 369.202C750.71 369.281 750.381 369.352 750.006 369.415C749.636 369.472 749.276 369.523 748.923 369.568C748.577 369.608 748.295 369.642 748.08 369.67C747.557 369.739 747.068 369.849 746.614 370.003C746.165 370.151 745.801 370.375 745.523 370.676C745.25 370.972 745.114 371.375 745.114 371.886C745.114 372.585 745.372 373.114 745.889 373.472C746.412 373.824 747.074 374 747.875 374ZM762.933 362.409V364.114H756.148V362.409H762.933ZM758.126 359.273H760.137V371.75C760.137 372.318 760.219 372.744 760.384 373.028C760.555 373.307 760.771 373.494 761.032 373.591C761.299 373.682 761.58 373.727 761.876 373.727C762.097 373.727 762.279 373.716 762.421 373.693C762.563 373.665 762.677 373.642 762.762 373.625L763.171 375.432C763.035 375.483 762.844 375.534 762.6 375.585C762.356 375.642 762.046 375.67 761.671 375.67C761.103 375.67 760.546 375.548 760.001 375.304C759.461 375.06 759.012 374.688 758.654 374.188C758.302 373.688 758.126 373.057 758.126 372.295V359.273ZM765.958 375.5V362.409H767.969V375.5H765.958ZM766.981 360.227C766.589 360.227 766.251 360.094 765.967 359.827C765.688 359.56 765.549 359.239 765.549 358.864C765.549 358.489 765.688 358.168 765.967 357.901C766.251 357.634 766.589 357.5 766.981 357.5C767.373 357.5 767.708 357.634 767.987 357.901C768.271 358.168 768.413 358.489 768.413 358.864C768.413 359.239 768.271 359.56 767.987 359.827C767.708 360.094 767.373 360.227 766.981 360.227ZM776.972 375.773C775.79 375.773 774.753 375.491 773.861 374.929C772.974 374.366 772.281 373.58 771.781 372.568C771.287 371.557 771.04 370.375 771.04 369.023C771.04 367.659 771.287 366.469 771.781 365.452C772.281 364.435 772.974 363.645 773.861 363.082C774.753 362.52 775.79 362.239 776.972 362.239C778.153 362.239 779.188 362.52 780.074 363.082C780.966 363.645 781.659 364.435 782.153 365.452C782.653 366.469 782.903 367.659 782.903 369.023C782.903 370.375 782.653 371.557 782.153 372.568C781.659 373.58 780.966 374.366 780.074 374.929C779.188 375.491 778.153 375.773 776.972 375.773ZM776.972 373.966C777.869 373.966 778.608 373.736 779.188 373.276C779.767 372.815 780.196 372.21 780.474 371.46C780.753 370.71 780.892 369.898 780.892 369.023C780.892 368.148 780.753 367.332 780.474 366.577C780.196 365.821 779.767 365.21 779.188 364.744C778.608 364.278 777.869 364.045 776.972 364.045C776.074 364.045 775.335 364.278 774.756 364.744C774.176 365.21 773.747 365.821 773.469 366.577C773.19 367.332 773.051 368.148 773.051 369.023C773.051 369.898 773.19 370.71 773.469 371.46C773.747 372.21 774.176 372.815 774.756 373.276C775.335 373.736 776.074 373.966 776.972 373.966ZM787.985 367.625V375.5H785.974V362.409H787.917V364.455H788.087C788.394 363.79 788.86 363.256 789.485 362.852C790.11 362.443 790.917 362.239 791.906 362.239C792.792 362.239 793.567 362.42 794.232 362.784C794.897 363.142 795.414 363.688 795.783 364.42C796.153 365.148 796.337 366.068 796.337 367.182V375.5H794.326V367.318C794.326 366.29 794.059 365.489 793.525 364.915C792.991 364.335 792.258 364.045 791.326 364.045C790.684 364.045 790.11 364.185 789.604 364.463C789.104 364.741 788.71 365.148 788.42 365.682C788.13 366.216 787.985 366.864 787.985 367.625ZM800.286 375.5V358.045H810.82V359.92H802.399V365.818H810.274V367.693H802.399V373.625H810.956V375.5H800.286ZM814.357 375.5V362.409H816.3V364.455H816.47C816.743 363.756 817.183 363.213 817.791 362.827C818.399 362.435 819.129 362.239 819.982 362.239C820.845 362.239 821.564 362.435 822.138 362.827C822.717 363.213 823.169 363.756 823.493 364.455H823.629C823.964 363.778 824.467 363.241 825.138 362.844C825.808 362.44 826.612 362.239 827.55 362.239C828.72 362.239 829.678 362.605 830.422 363.338C831.166 364.065 831.538 365.199 831.538 366.739V375.5H829.527V366.739C829.527 365.773 829.263 365.082 828.734 364.668C828.206 364.253 827.584 364.045 826.868 364.045C825.947 364.045 825.234 364.324 824.729 364.881C824.223 365.432 823.97 366.131 823.97 366.977V375.5H821.925V366.534C821.925 365.79 821.683 365.19 821.2 364.736C820.717 364.276 820.095 364.045 819.334 364.045C818.811 364.045 818.322 364.185 817.868 364.463C817.419 364.741 817.055 365.128 816.777 365.622C816.504 366.111 816.368 366.676 816.368 367.318V375.5H814.357ZM835.216 380.409V362.409H837.159V364.489H837.398C837.545 364.261 837.75 363.972 838.011 363.619C838.278 363.261 838.659 362.943 839.153 362.665C839.653 362.381 840.33 362.239 841.182 362.239C842.284 362.239 843.256 362.514 844.097 363.065C844.938 363.616 845.594 364.398 846.065 365.409C846.537 366.42 846.773 367.614 846.773 368.989C846.773 370.375 846.537 371.577 846.065 372.594C845.594 373.605 844.94 374.389 844.105 374.946C843.27 375.497 842.307 375.773 841.216 375.773C840.375 375.773 839.702 375.634 839.196 375.355C838.69 375.071 838.301 374.75 838.028 374.392C837.756 374.028 837.545 373.727 837.398 373.489H837.227V380.409H835.216ZM837.193 368.955C837.193 369.943 837.338 370.815 837.628 371.571C837.918 372.321 838.341 372.909 838.898 373.335C839.455 373.756 840.136 373.966 840.943 373.966C841.784 373.966 842.486 373.744 843.048 373.301C843.616 372.852 844.043 372.25 844.327 371.494C844.616 370.733 844.761 369.886 844.761 368.955C844.761 368.034 844.619 367.205 844.335 366.466C844.057 365.722 843.634 365.134 843.065 364.702C842.503 364.264 841.795 364.045 840.943 364.045C840.125 364.045 839.438 364.253 838.881 364.668C838.324 365.077 837.903 365.651 837.619 366.389C837.335 367.122 837.193 367.977 837.193 368.955ZM855.534 362.409V364.114H848.75V362.409H855.534ZM850.727 359.273H852.739V371.75C852.739 372.318 852.821 372.744 852.986 373.028C853.156 373.307 853.372 373.494 853.634 373.591C853.901 373.682 854.182 373.727 854.477 373.727C854.699 373.727 854.881 373.716 855.023 373.693C855.165 373.665 855.278 373.642 855.364 373.625L855.773 375.432C855.636 375.483 855.446 375.534 855.202 375.585C854.957 375.642 854.648 375.67 854.273 375.67C853.705 375.67 853.148 375.548 852.602 375.304C852.063 375.06 851.614 374.688 851.256 374.188C850.903 373.688 850.727 373.057 850.727 372.295V359.273ZM859.855 380.375C859.514 380.375 859.21 380.347 858.943 380.29C858.676 380.239 858.491 380.188 858.389 380.136L858.901 378.364C859.634 378.551 860.244 378.545 860.733 378.347C861.222 378.153 861.645 377.568 862.003 376.591L862.378 375.568L857.537 362.409H859.719L863.332 372.841H863.469L867.082 362.409L869.281 362.443L863.707 377.409C863.457 378.074 863.148 378.625 862.778 379.062C862.409 379.506 861.98 379.835 861.491 380.051C861.009 380.267 860.463 380.375 859.855 380.375ZM881.761 362.409C881.658 361.545 881.244 360.875 880.516 360.398C879.789 359.92 878.897 359.682 877.84 359.682C877.067 359.682 876.391 359.807 875.812 360.057C875.238 360.307 874.789 360.651 874.465 361.088C874.147 361.526 873.988 362.023 873.988 362.58C873.988 363.045 874.099 363.446 874.32 363.781C874.548 364.111 874.837 364.386 875.19 364.608C875.542 364.824 875.911 365.003 876.298 365.145C876.684 365.281 877.039 365.392 877.363 365.477L879.136 365.955C879.59 366.074 880.096 366.239 880.653 366.449C881.215 366.659 881.752 366.946 882.263 367.31C882.781 367.668 883.207 368.128 883.542 368.69C883.877 369.253 884.045 369.943 884.045 370.761C884.045 371.705 883.798 372.557 883.303 373.318C882.815 374.08 882.099 374.685 881.156 375.134C880.218 375.582 879.079 375.807 877.738 375.807C876.488 375.807 875.406 375.605 874.491 375.202C873.582 374.798 872.866 374.236 872.343 373.514C871.826 372.793 871.533 371.955 871.465 371H873.647C873.704 371.659 873.925 372.205 874.312 372.636C874.704 373.062 875.198 373.381 875.795 373.591C876.397 373.795 877.045 373.898 877.738 373.898C878.545 373.898 879.269 373.767 879.911 373.506C880.553 373.239 881.062 372.869 881.437 372.398C881.812 371.92 881.999 371.364 881.999 370.727C881.999 370.148 881.837 369.676 881.513 369.312C881.19 368.949 880.763 368.653 880.235 368.426C879.707 368.199 879.136 368 878.522 367.83L876.374 367.216C875.011 366.824 873.931 366.264 873.136 365.537C872.34 364.81 871.942 363.858 871.942 362.682C871.942 361.705 872.207 360.852 872.735 360.125C873.269 359.392 873.985 358.824 874.883 358.42C875.786 358.011 876.795 357.807 877.908 357.807C879.033 357.807 880.033 358.009 880.908 358.412C881.783 358.81 882.477 359.355 882.988 360.048C883.505 360.741 883.778 361.528 883.806 362.409H881.761ZM892.736 375.773C891.474 375.773 890.386 375.494 889.472 374.938C888.562 374.375 887.861 373.591 887.366 372.585C886.878 371.574 886.634 370.398 886.634 369.057C886.634 367.716 886.878 366.534 887.366 365.511C887.861 364.483 888.548 363.682 889.429 363.108C890.315 362.528 891.349 362.239 892.531 362.239C893.213 362.239 893.886 362.352 894.551 362.58C895.216 362.807 895.821 363.176 896.366 363.688C896.912 364.193 897.347 364.864 897.67 365.699C897.994 366.534 898.156 367.562 898.156 368.784V369.636H888.065V367.898H896.111C896.111 367.159 895.963 366.5 895.668 365.92C895.378 365.341 894.963 364.884 894.423 364.548C893.889 364.213 893.259 364.045 892.531 364.045C891.73 364.045 891.037 364.244 890.452 364.642C889.872 365.034 889.426 365.545 889.114 366.176C888.801 366.807 888.645 367.483 888.645 368.205V369.364C888.645 370.352 888.815 371.19 889.156 371.878C889.503 372.56 889.983 373.08 890.597 373.438C891.21 373.79 891.923 373.966 892.736 373.966C893.264 373.966 893.741 373.892 894.168 373.744C894.599 373.591 894.972 373.364 895.284 373.062C895.597 372.756 895.838 372.375 896.009 371.92L897.952 372.466C897.747 373.125 897.403 373.705 896.92 374.205C896.438 374.699 895.841 375.085 895.131 375.364C894.42 375.636 893.622 375.773 892.736 375.773ZM906.534 375.773C905.307 375.773 904.25 375.483 903.364 374.903C902.477 374.324 901.795 373.526 901.318 372.509C900.841 371.491 900.602 370.33 900.602 369.023C900.602 367.693 900.847 366.52 901.335 365.503C901.83 364.48 902.517 363.682 903.398 363.108C904.284 362.528 905.318 362.239 906.5 362.239C907.42 362.239 908.25 362.409 908.989 362.75C909.727 363.091 910.332 363.568 910.804 364.182C911.276 364.795 911.568 365.511 911.682 366.33H909.67C909.517 365.733 909.176 365.205 908.648 364.744C908.125 364.278 907.42 364.045 906.534 364.045C905.75 364.045 905.063 364.25 904.472 364.659C903.886 365.062 903.429 365.634 903.099 366.372C902.776 367.105 902.614 367.966 902.614 368.955C902.614 369.966 902.773 370.847 903.091 371.597C903.415 372.347 903.869 372.929 904.455 373.344C905.045 373.759 905.739 373.966 906.534 373.966C907.057 373.966 907.531 373.875 907.957 373.693C908.384 373.511 908.744 373.25 909.04 372.909C909.335 372.568 909.545 372.159 909.67 371.682H911.682C911.568 372.455 911.287 373.151 910.838 373.77C910.395 374.384 909.807 374.872 909.074 375.236C908.347 375.594 907.5 375.773 906.534 375.773ZM919.94 375.773C918.759 375.773 917.722 375.491 916.83 374.929C915.943 374.366 915.25 373.58 914.75 372.568C914.256 371.557 914.009 370.375 914.009 369.023C914.009 367.659 914.256 366.469 914.75 365.452C915.25 364.435 915.943 363.645 916.83 363.082C917.722 362.52 918.759 362.239 919.94 362.239C921.122 362.239 922.156 362.52 923.043 363.082C923.935 363.645 924.628 364.435 925.122 365.452C925.622 366.469 925.872 367.659 925.872 369.023C925.872 370.375 925.622 371.557 925.122 372.568C924.628 373.58 923.935 374.366 923.043 374.929C922.156 375.491 921.122 375.773 919.94 375.773ZM919.94 373.966C920.838 373.966 921.577 373.736 922.156 373.276C922.736 372.815 923.165 372.21 923.443 371.46C923.722 370.71 923.861 369.898 923.861 369.023C923.861 368.148 923.722 367.332 923.443 366.577C923.165 365.821 922.736 365.21 922.156 364.744C921.577 364.278 920.838 364.045 919.94 364.045C919.043 364.045 918.304 364.278 917.724 364.744C917.145 365.21 916.716 365.821 916.438 366.577C916.159 367.332 916.02 368.148 916.02 369.023C916.02 369.898 916.159 370.71 916.438 371.46C916.716 372.21 917.145 372.815 917.724 373.276C918.304 373.736 919.043 373.966 919.94 373.966ZM930.954 367.625V375.5H928.942V362.409H930.886V364.455H931.056C931.363 363.79 931.829 363.256 932.454 362.852C933.079 362.443 933.886 362.239 934.874 362.239C935.761 362.239 936.536 362.42 937.201 362.784C937.866 363.142 938.383 363.688 938.752 364.42C939.121 365.148 939.306 366.068 939.306 367.182V375.5H937.295V367.318C937.295 366.29 937.028 365.489 936.494 364.915C935.96 364.335 935.227 364.045 934.295 364.045C933.653 364.045 933.079 364.185 932.573 364.463C932.073 364.741 931.678 365.148 931.388 365.682C931.099 366.216 930.954 366.864 930.954 367.625ZM947.925 375.773C946.834 375.773 945.871 375.497 945.036 374.946C944.2 374.389 943.547 373.605 943.075 372.594C942.604 371.577 942.368 370.375 942.368 368.989C942.368 367.614 942.604 366.42 943.075 365.409C943.547 364.398 944.203 363.616 945.044 363.065C945.885 362.514 946.857 362.239 947.959 362.239C948.811 362.239 949.484 362.381 949.979 362.665C950.479 362.943 950.859 363.261 951.121 363.619C951.388 363.972 951.595 364.261 951.743 364.489H951.913V358.045H953.925V375.5H951.982V373.489H951.743C951.595 373.727 951.385 374.028 951.112 374.392C950.839 374.75 950.45 375.071 949.945 375.355C949.439 375.634 948.766 375.773 947.925 375.773ZM948.197 373.966C949.004 373.966 949.686 373.756 950.243 373.335C950.8 372.909 951.223 372.321 951.513 371.571C951.803 370.815 951.947 369.943 951.947 368.955C951.947 367.977 951.805 367.122 951.521 366.389C951.237 365.651 950.817 365.077 950.26 364.668C949.703 364.253 949.016 364.045 948.197 364.045C947.345 364.045 946.635 364.264 946.067 364.702C945.504 365.134 945.081 365.722 944.797 366.466C944.518 367.205 944.379 368.034 944.379 368.955C944.379 369.886 944.521 370.733 944.805 371.494C945.095 372.25 945.521 372.852 946.084 373.301C946.652 373.744 947.357 373.966 948.197 373.966ZM961.74 375.807C960.911 375.807 960.158 375.651 959.482 375.338C958.805 375.02 958.268 374.562 957.871 373.966C957.473 373.364 957.274 372.636 957.274 371.784C957.274 371.034 957.422 370.426 957.717 369.96C958.013 369.489 958.408 369.119 958.902 368.852C959.396 368.585 959.942 368.386 960.538 368.256C961.141 368.119 961.746 368.011 962.354 367.932C963.149 367.83 963.794 367.753 964.288 367.702C964.788 367.645 965.152 367.551 965.379 367.42C965.612 367.29 965.729 367.062 965.729 366.739V366.67C965.729 365.83 965.499 365.176 965.038 364.71C964.584 364.244 963.893 364.011 962.967 364.011C962.007 364.011 961.254 364.222 960.709 364.642C960.163 365.062 959.78 365.511 959.558 365.989L957.649 365.307C957.99 364.511 958.445 363.892 959.013 363.449C959.587 363 960.212 362.687 960.888 362.511C961.57 362.33 962.24 362.239 962.899 362.239C963.32 362.239 963.803 362.29 964.348 362.392C964.899 362.489 965.43 362.69 965.942 362.997C966.459 363.304 966.888 363.767 967.229 364.386C967.57 365.006 967.74 365.835 967.74 366.875V375.5H965.729V373.727H965.626C965.49 374.011 965.263 374.315 964.945 374.639C964.626 374.963 964.203 375.239 963.675 375.466C963.146 375.693 962.501 375.807 961.74 375.807ZM962.047 374C962.842 374 963.513 373.844 964.058 373.531C964.609 373.219 965.024 372.815 965.303 372.321C965.587 371.827 965.729 371.307 965.729 370.761V368.92C965.643 369.023 965.456 369.116 965.166 369.202C964.882 369.281 964.553 369.352 964.178 369.415C963.808 369.472 963.447 369.523 963.095 369.568C962.749 369.608 962.467 369.642 962.251 369.67C961.729 369.739 961.24 369.849 960.786 370.003C960.337 370.151 959.973 370.375 959.695 370.676C959.422 370.972 959.286 371.375 959.286 371.886C959.286 372.585 959.544 373.114 960.061 373.472C960.584 373.824 961.246 374 962.047 374ZM971.411 375.5V362.409H973.354V364.386H973.491C973.729 363.739 974.161 363.213 974.786 362.81C975.411 362.406 976.116 362.205 976.9 362.205C977.048 362.205 977.232 362.207 977.454 362.213C977.675 362.219 977.843 362.227 977.957 362.239V364.284C977.888 364.267 977.732 364.241 977.488 364.207C977.249 364.168 976.996 364.148 976.729 364.148C976.093 364.148 975.525 364.281 975.025 364.548C974.531 364.81 974.138 365.173 973.849 365.639C973.565 366.099 973.423 366.625 973.423 367.216V375.5H971.411ZM982.035 380.375C981.694 380.375 981.39 380.347 981.123 380.29C980.856 380.239 980.671 380.188 980.569 380.136L981.08 378.364C981.813 378.551 982.424 378.545 982.913 378.347C983.401 378.153 983.825 377.568 984.183 376.591L984.558 375.568L979.717 362.409H981.898L985.512 372.841H985.648L989.262 362.409L991.461 362.443L985.887 377.409C985.637 378.074 985.327 378.625 984.958 379.062C984.589 379.506 984.16 379.835 983.671 380.051C983.188 380.267 982.643 380.375 982.035 380.375Z" fill="white" fill-opacity="0.95"/>
<defs>
<linearGradient id="paint0_linear_1036_2187" x1="141.767" y1="121.2" x2="141.767" y2="263.01" gradientUnits="userSpaceOnUse">
<stop stop-color="#93C437"/>
<stop offset="1" stop-color="#279BE8"/>
</linearGradient>
<linearGradient id="paint1_linear_1036_2187" x1="24" y1="0" x2="24" y2="48" gradientUnits="userSpaceOnUse">
<stop stop-color="#93C437"/>
<stop offset="1" stop-color="#279BE8"/>
</linearGradient>
<linearGradient id="paint2_linear_1036_2187" x1="688.767" y1="121.2" x2="688.767" y2="263.01" gradientUnits="userSpaceOnUse">
<stop stop-color="#279BE8"/>
<stop offset="1" stop-color="#875AE0"/>
</linearGradient>
<linearGradient id="paint3_linear_1036_2187" x1="24" y1="0" x2="24" y2="48" gradientUnits="userSpaceOnUse">
<stop stop-color="#279BE8"/>
<stop offset="1" stop-color="#875AE0"/>
</linearGradient>
</defs>
</svg>
