<svg width="1150" height="425" viewBox="0 0 1150 425" fill="none" xmlns="http://www.w3.org/2000/svg">
<rect width="1150" height="425" fill="#F7F7F7"/>
<path d="M50.4084 50.7464C50.3686 50.3454 50.1979 50.0339 49.8963 49.8118C49.5947 49.5897 49.1854 49.4787 48.6683 49.4787C48.317 49.4787 48.0204 49.5284 47.7784 49.6278C47.5365 49.724 47.3509 49.8582 47.2216 50.0305C47.0956 50.2029 47.0327 50.3984 47.0327 50.6172C47.026 50.7995 47.0642 50.9586 47.147 51.0945C47.2332 51.2304 47.3509 51.348 47.5 51.4474C47.6491 51.5436 47.8215 51.6281 48.017 51.701C48.2126 51.7706 48.4214 51.8303 48.6435 51.88L49.5582 52.0987C50.0024 52.1982 50.41 52.3307 50.7812 52.4964C51.1525 52.6622 51.474 52.866 51.7457 53.108C52.0175 53.3499 52.228 53.6349 52.3771 53.9631C52.5296 54.2912 52.6075 54.6674 52.6108 55.0916C52.6075 55.7147 52.4484 56.255 52.1335 56.7124C51.822 57.1664 51.3712 57.5194 50.7812 57.7713C50.1946 58.0199 49.487 58.1442 48.6584 58.1442C47.8364 58.1442 47.1205 58.0182 46.5107 57.7663C45.9041 57.5144 45.4302 57.1416 45.0888 56.6477C44.7507 56.1506 44.5734 55.5357 44.5568 54.8033H46.6399C46.6631 55.1446 46.7609 55.4297 46.9332 55.6584C47.1089 55.8838 47.3426 56.0545 47.6342 56.1705C47.9292 56.2831 48.2623 56.3395 48.6335 56.3395C48.9981 56.3395 49.3146 56.2865 49.5831 56.1804C49.8549 56.0743 50.0653 55.9268 50.2145 55.7379C50.3636 55.549 50.4382 55.3319 50.4382 55.0866C50.4382 54.858 50.3703 54.6657 50.2344 54.5099C50.1018 54.3542 49.9063 54.2216 49.6477 54.1122C49.3925 54.0028 49.0793 53.9034 48.7081 53.8139L47.5994 53.5355C46.741 53.3267 46.0632 53.0002 45.5661 52.5561C45.0689 52.112 44.822 51.5137 44.8253 50.7614C44.822 50.1449 44.986 49.6063 45.3175 49.1456C45.6522 48.6849 46.1113 48.3253 46.6946 48.0668C47.2779 47.8082 47.9408 47.679 48.6832 47.679C49.4389 47.679 50.0985 47.8082 50.6619 48.0668C51.2287 48.3253 51.6695 48.6849 51.9844 49.1456C52.2992 49.6063 52.4616 50.1399 52.4716 50.7464H50.4084ZM61.1878 47.8182H63.3405V54.4304C63.3405 55.1728 63.1632 55.8224 62.8086 56.3793C62.4572 56.9361 61.9651 57.3703 61.332 57.6818C60.699 57.9901 59.9615 58.1442 59.1197 58.1442C58.2745 58.1442 57.5354 57.9901 56.9023 57.6818C56.2693 57.3703 55.7771 56.9361 55.4258 56.3793C55.0744 55.8224 54.8988 55.1728 54.8988 54.4304V47.8182H57.0515V54.2464C57.0515 54.6342 57.136 54.9789 57.305 55.2805C57.4774 55.5821 57.7193 55.8191 58.0309 55.9915C58.3424 56.1638 58.7054 56.25 59.1197 56.25C59.5373 56.25 59.9002 56.1638 60.2084 55.9915C60.52 55.8191 60.7603 55.5821 60.9293 55.2805C61.1017 54.9789 61.1878 54.6342 61.1878 54.2464V47.8182ZM74.9353 51.3828H72.7578C72.718 51.1011 72.6368 50.8509 72.5142 50.6321C72.3915 50.41 72.2341 50.2211 72.0419 50.0653C71.8496 49.9096 71.6276 49.7902 71.3757 49.7074C71.1271 49.6245 70.857 49.5831 70.5653 49.5831C70.0383 49.5831 69.5793 49.714 69.1882 49.9759C68.7971 50.2344 68.4938 50.6122 68.2784 51.1094C68.0629 51.6032 67.9552 52.2031 67.9552 52.9091C67.9552 53.6349 68.0629 54.2448 68.2784 54.7386C68.4971 55.2325 68.802 55.6054 69.1931 55.8572C69.5842 56.1091 70.0367 56.2351 70.5504 56.2351C70.8387 56.2351 71.1055 56.197 71.3508 56.1207C71.5994 56.0445 71.8198 55.9335 72.012 55.7876C72.2043 55.6385 72.3634 55.4579 72.4893 55.2457C72.6186 55.0336 72.7081 54.7917 72.7578 54.5199L74.9353 54.5298C74.879 54.9972 74.7381 55.4479 74.5127 55.8821C74.2907 56.313 73.9907 56.6991 73.6129 57.0405C73.2384 57.3786 72.7909 57.647 72.2706 57.8459C71.7535 58.0414 71.1685 58.1392 70.5156 58.1392C69.6074 58.1392 68.7954 57.9337 68.0795 57.5227C67.3669 57.1117 66.8035 56.5168 66.3892 55.7379C65.9782 54.959 65.7727 54.0161 65.7727 52.9091C65.7727 51.7988 65.9815 50.8542 66.3991 50.0753C66.8167 49.2964 67.3835 48.7031 68.0994 48.2955C68.8153 47.8845 69.6207 47.679 70.5156 47.679C71.1055 47.679 71.6524 47.7618 72.1562 47.9276C72.6633 48.0933 73.1124 48.3352 73.5035 48.6534C73.8946 48.9683 74.2128 49.3544 74.4581 49.8118C74.7066 50.2692 74.8657 50.7929 74.9353 51.3828ZM86.3027 51.3828H84.1251C84.0853 51.1011 84.0041 50.8509 83.8815 50.6321C83.7589 50.41 83.6014 50.2211 83.4092 50.0653C83.217 49.9096 82.9949 49.7902 82.743 49.7074C82.4944 49.6245 82.2243 49.5831 81.9326 49.5831C81.4057 49.5831 80.9466 49.714 80.5555 49.9759C80.1644 50.2344 79.8611 50.6122 79.6457 51.1094C79.4303 51.6032 79.3226 52.2031 79.3226 52.9091C79.3226 53.6349 79.4303 54.2448 79.6457 54.7386C79.8645 55.2325 80.1694 55.6054 80.5605 55.8572C80.9516 56.1091 81.404 56.2351 81.9177 56.2351C82.2061 56.2351 82.4729 56.197 82.7182 56.1207C82.9667 56.0445 83.1871 55.9335 83.3794 55.7876C83.5716 55.6385 83.7307 55.4579 83.8566 55.2457C83.9859 55.0336 84.0754 54.7917 84.1251 54.5199L86.3027 54.5298C86.2463 54.9972 86.1055 55.4479 85.8801 55.8821C85.658 56.313 85.3581 56.6991 84.9802 57.0405C84.6057 57.3786 84.1583 57.647 83.6379 57.8459C83.1209 58.0414 82.5359 58.1392 81.8829 58.1392C80.9748 58.1392 80.1628 57.9337 79.4468 57.5227C78.7343 57.1117 78.1708 56.5168 77.7565 55.7379C77.3455 54.959 77.14 54.0161 77.14 52.9091C77.14 51.7988 77.3488 50.8542 77.7664 50.0753C78.1841 49.2964 78.7508 48.7031 79.4667 48.2955C80.1826 47.8845 80.988 47.679 81.8829 47.679C82.4729 47.679 83.0198 47.7618 83.5236 47.9276C84.0307 48.0933 84.4798 48.3352 84.8709 48.6534C85.262 48.9683 85.5801 49.3544 85.8254 49.8118C86.074 50.2692 86.2331 50.7929 86.3027 51.3828ZM88.6864 58V47.8182H95.5471V49.593H90.839V52.0192H95.1942V53.794H90.839V56.2251H95.567V58H88.6864ZM103.622 50.7464C103.582 50.3454 103.412 50.0339 103.11 49.8118C102.808 49.5897 102.399 49.4787 101.882 49.4787C101.531 49.4787 101.234 49.5284 100.992 49.6278C100.75 49.724 100.565 49.8582 100.435 50.0305C100.309 50.2029 100.246 50.3984 100.246 50.6172C100.24 50.7995 100.278 50.9586 100.361 51.0945C100.447 51.2304 100.565 51.348 100.714 51.4474C100.863 51.5436 101.035 51.6281 101.231 51.701C101.426 51.7706 101.635 51.8303 101.857 51.88L102.772 52.0987C103.216 52.1982 103.624 52.3307 103.995 52.4964C104.366 52.6622 104.688 52.866 104.959 53.108C105.231 53.3499 105.442 53.6349 105.591 53.9631C105.743 54.2912 105.821 54.6674 105.824 55.0916C105.821 55.7147 105.662 56.255 105.347 56.7124C105.036 57.1664 104.585 57.5194 103.995 57.7713C103.408 58.0199 102.701 58.1442 101.872 58.1442C101.05 58.1442 100.334 58.0182 99.7243 57.7663C99.1178 57.5144 98.6438 57.1416 98.3025 56.6477C97.9644 56.1506 97.7871 55.5357 97.7705 54.8033H99.8536C99.8768 55.1446 99.9746 55.4297 100.147 55.6584C100.323 55.8838 100.556 56.0545 100.848 56.1705C101.143 56.2831 101.476 56.3395 101.847 56.3395C102.212 56.3395 102.528 56.2865 102.797 56.1804C103.069 56.0743 103.279 55.9268 103.428 55.7379C103.577 55.549 103.652 55.3319 103.652 55.0866C103.652 54.858 103.584 54.6657 103.448 54.5099C103.315 54.3542 103.12 54.2216 102.861 54.1122C102.606 54.0028 102.293 53.9034 101.922 53.8139L100.813 53.5355C99.9547 53.3267 99.2769 53.0002 98.7797 52.5561C98.2826 52.112 98.0356 51.5137 98.039 50.7614C98.0356 50.1449 98.1997 49.6063 98.5311 49.1456C98.8659 48.6849 99.3249 48.3253 99.9083 48.0668C100.492 47.8082 101.154 47.679 101.897 47.679C102.653 47.679 103.312 47.8082 103.876 48.0668C104.442 48.3253 104.883 48.6849 105.198 49.1456C105.513 49.6063 105.675 50.1399 105.685 50.7464H103.622ZM113.636 50.7464C113.596 50.3454 113.425 50.0339 113.124 49.8118C112.822 49.5897 112.413 49.4787 111.896 49.4787C111.544 49.4787 111.248 49.5284 111.006 49.6278C110.764 49.724 110.578 49.8582 110.449 50.0305C110.323 50.2029 110.26 50.3984 110.26 50.6172C110.254 50.7995 110.292 50.9586 110.375 51.0945C110.461 51.2304 110.578 51.348 110.728 51.4474C110.877 51.5436 111.049 51.6281 111.245 51.701C111.44 51.7706 111.649 51.8303 111.871 51.88L112.786 52.0987C113.23 52.1982 113.638 52.3307 114.009 52.4964C114.38 52.6622 114.701 52.866 114.973 53.108C115.245 53.3499 115.455 53.6349 115.605 53.9631C115.757 54.2912 115.835 54.6674 115.838 55.0916C115.835 55.7147 115.676 56.255 115.361 56.7124C115.049 57.1664 114.599 57.5194 114.009 57.7713C113.422 58.0199 112.714 58.1442 111.886 58.1442C111.064 58.1442 110.348 58.0182 109.738 57.7663C109.132 57.5144 108.658 57.1416 108.316 56.6477C107.978 56.1506 107.801 55.5357 107.784 54.8033H109.867C109.891 55.1446 109.988 55.4297 110.161 55.6584C110.336 55.8838 110.57 56.0545 110.862 56.1705C111.157 56.2831 111.49 56.3395 111.861 56.3395C112.226 56.3395 112.542 56.2865 112.811 56.1804C113.082 56.0743 113.293 55.9268 113.442 55.7379C113.591 55.549 113.666 55.3319 113.666 55.0866C113.666 54.858 113.598 54.6657 113.462 54.5099C113.329 54.3542 113.134 54.2216 112.875 54.1122C112.62 54.0028 112.307 53.9034 111.936 53.8139L110.827 53.5355C109.969 53.3267 109.291 53.0002 108.794 52.5561C108.296 52.112 108.049 51.5137 108.053 50.7614C108.049 50.1449 108.214 49.6063 108.545 49.1456C108.88 48.6849 109.339 48.3253 109.922 48.0668C110.505 47.8082 111.168 47.679 111.911 47.679C112.666 47.679 113.326 47.8082 113.889 48.0668C114.456 48.3253 114.897 48.6849 115.212 49.1456C115.527 49.6063 115.689 50.1399 115.699 50.7464H113.636Z" fill="black"/>
<path d="M76.366 268.4V136.4M76.366 136.4L88.366 132.4C124.366 120.4 156.366 122.4 156.366 144.4C156.366 166.4 156.366 188.4 156.366 188.4M76.366 136.4C61.366 141.4 56.366 124.4 62.366 120.4C68.366 116.4 76.366 123.4 76.366 136.4ZM163.366 151.8C175.966 152.5 193.666 150.6 212.366 144.4V228.4C176.366 240.4 144.366 236.4 144.366 228.4C144.366 222.4 156.366 222.4 156.366 216.4C156.366 208.8 127.766 204.8 94.166 214.6C90.766 215.6 88.366 218.7 88.366 222.3V268.4" stroke="url(#paint0_linear_1036_2507)" stroke-width="2.5" stroke-miterlimit="10" stroke-linecap="round" stroke-linejoin="round"/>
<circle cx="24" cy="24" r="24" transform="matrix(-1 0 0 1 100 325)" fill="url(#paint1_linear_1036_2507)"/>
<circle cx="24" cy="24" r="28" transform="matrix(-1 0 0 1 100 325)" stroke="black" stroke-opacity="0.2" stroke-width="8"/>
<path d="M137.227 340.045V357.5H135.114V340.045H137.227ZM143.204 340.045V357.5H141.192V340.045H143.204ZM148.899 340.045V357.5H146.888V340.045H148.899ZM160.833 352.148V344.409H162.844V357.5H160.833V355.284H160.697C160.39 355.949 159.913 356.514 159.265 356.98C158.617 357.44 157.799 357.67 156.81 357.67C155.992 357.67 155.265 357.491 154.629 357.134C153.992 356.77 153.492 356.224 153.129 355.497C152.765 354.764 152.583 353.841 152.583 352.727V344.409H154.594V352.591C154.594 353.545 154.862 354.307 155.396 354.875C155.935 355.443 156.623 355.727 157.458 355.727C157.958 355.727 158.467 355.599 158.984 355.344C159.506 355.088 159.944 354.696 160.296 354.168C160.654 353.639 160.833 352.966 160.833 352.148ZM175.801 347.341L173.994 347.852C173.881 347.551 173.713 347.259 173.491 346.974C173.276 346.685 172.98 346.446 172.605 346.259C172.23 346.071 171.75 345.977 171.165 345.977C170.364 345.977 169.696 346.162 169.162 346.531C168.634 346.895 168.369 347.358 168.369 347.92C168.369 348.42 168.551 348.815 168.915 349.105C169.278 349.395 169.847 349.636 170.619 349.83L172.562 350.307C173.733 350.591 174.605 351.026 175.179 351.611C175.753 352.19 176.04 352.937 176.04 353.852C176.04 354.602 175.824 355.273 175.392 355.864C174.966 356.455 174.369 356.92 173.602 357.261C172.835 357.602 171.943 357.773 170.926 357.773C169.591 357.773 168.486 357.483 167.611 356.903C166.736 356.324 166.182 355.477 165.949 354.364L167.858 353.886C168.04 354.591 168.384 355.119 168.889 355.472C169.401 355.824 170.068 356 170.892 356C171.83 356 172.574 355.801 173.125 355.403C173.682 355 173.96 354.517 173.96 353.955C173.96 353.5 173.801 353.119 173.483 352.812C173.165 352.5 172.676 352.267 172.017 352.114L169.835 351.602C168.636 351.318 167.756 350.878 167.193 350.281C166.636 349.679 166.358 348.926 166.358 348.023C166.358 347.284 166.565 346.631 166.98 346.062C167.401 345.494 167.972 345.048 168.693 344.724C169.42 344.401 170.244 344.239 171.165 344.239C172.46 344.239 173.477 344.523 174.216 345.091C174.96 345.659 175.489 346.409 175.801 347.341ZM184.761 344.409V346.114H177.977V344.409H184.761ZM179.954 341.273H181.965V353.75C181.965 354.318 182.048 354.744 182.212 355.028C182.383 355.307 182.599 355.494 182.86 355.591C183.127 355.682 183.408 355.727 183.704 355.727C183.925 355.727 184.107 355.716 184.249 355.693C184.391 355.665 184.505 355.642 184.59 355.625L184.999 357.432C184.863 357.483 184.673 357.534 184.428 357.585C184.184 357.642 183.874 357.67 183.499 357.67C182.931 357.67 182.374 357.548 181.829 357.304C181.289 357.06 180.84 356.688 180.482 356.188C180.13 355.688 179.954 355.057 179.954 354.295V341.273ZM187.786 357.5V344.409H189.729V346.386H189.866C190.104 345.739 190.536 345.213 191.161 344.81C191.786 344.406 192.491 344.205 193.275 344.205C193.423 344.205 193.607 344.207 193.829 344.213C194.05 344.219 194.218 344.227 194.332 344.239V346.284C194.263 346.267 194.107 346.241 193.863 346.207C193.624 346.168 193.371 346.148 193.104 346.148C192.468 346.148 191.9 346.281 191.4 346.548C190.906 346.81 190.513 347.173 190.224 347.639C189.94 348.099 189.798 348.625 189.798 349.216V357.5H187.786ZM200.568 357.807C199.739 357.807 198.986 357.651 198.31 357.338C197.634 357.02 197.097 356.562 196.699 355.966C196.301 355.364 196.102 354.636 196.102 353.784C196.102 353.034 196.25 352.426 196.545 351.96C196.841 351.489 197.236 351.119 197.73 350.852C198.224 350.585 198.77 350.386 199.366 350.256C199.969 350.119 200.574 350.011 201.182 349.932C201.977 349.83 202.622 349.753 203.116 349.702C203.616 349.645 203.98 349.551 204.207 349.42C204.44 349.29 204.557 349.062 204.557 348.739V348.67C204.557 347.83 204.327 347.176 203.866 346.71C203.412 346.244 202.722 346.011 201.795 346.011C200.835 346.011 200.082 346.222 199.537 346.642C198.991 347.062 198.608 347.511 198.386 347.989L196.477 347.307C196.818 346.511 197.273 345.892 197.841 345.449C198.415 345 199.04 344.687 199.716 344.511C200.398 344.33 201.068 344.239 201.727 344.239C202.148 344.239 202.631 344.29 203.176 344.392C203.727 344.489 204.259 344.69 204.77 344.997C205.287 345.304 205.716 345.767 206.057 346.386C206.398 347.006 206.568 347.835 206.568 348.875V357.5H204.557V355.727H204.455C204.318 356.011 204.091 356.315 203.773 356.639C203.455 356.963 203.031 357.239 202.503 357.466C201.974 357.693 201.33 357.807 200.568 357.807ZM200.875 356C201.67 356 202.341 355.844 202.886 355.531C203.438 355.219 203.852 354.815 204.131 354.321C204.415 353.827 204.557 353.307 204.557 352.761V350.92C204.472 351.023 204.284 351.116 203.994 351.202C203.71 351.281 203.381 351.352 203.006 351.415C202.636 351.472 202.276 351.523 201.923 351.568C201.577 351.608 201.295 351.642 201.08 351.67C200.557 351.739 200.068 351.849 199.614 352.003C199.165 352.151 198.801 352.375 198.523 352.676C198.25 352.972 198.114 353.375 198.114 353.886C198.114 354.585 198.372 355.114 198.889 355.472C199.412 355.824 200.074 356 200.875 356ZM215.933 344.409V346.114H209.148V344.409H215.933ZM211.126 341.273H213.137V353.75C213.137 354.318 213.219 354.744 213.384 355.028C213.555 355.307 213.771 355.494 214.032 355.591C214.299 355.682 214.58 355.727 214.876 355.727C215.097 355.727 215.279 355.716 215.421 355.693C215.563 355.665 215.677 355.642 215.762 355.625L216.171 357.432C216.035 357.483 215.844 357.534 215.6 357.585C215.356 357.642 215.046 357.67 214.671 357.67C214.103 357.67 213.546 357.548 213.001 357.304C212.461 357.06 212.012 356.688 211.654 356.188C211.302 355.688 211.126 355.057 211.126 354.295V341.273ZM218.958 357.5V344.409H220.969V357.5H218.958ZM219.981 342.227C219.589 342.227 219.251 342.094 218.967 341.827C218.688 341.56 218.549 341.239 218.549 340.864C218.549 340.489 218.688 340.168 218.967 339.901C219.251 339.634 219.589 339.5 219.981 339.5C220.373 339.5 220.708 339.634 220.987 339.901C221.271 340.168 221.413 340.489 221.413 340.864C221.413 341.239 221.271 341.56 220.987 341.827C220.708 342.094 220.373 342.227 219.981 342.227ZM229.972 357.773C228.79 357.773 227.753 357.491 226.861 356.929C225.974 356.366 225.281 355.58 224.781 354.568C224.287 353.557 224.04 352.375 224.04 351.023C224.04 349.659 224.287 348.469 224.781 347.452C225.281 346.435 225.974 345.645 226.861 345.082C227.753 344.52 228.79 344.239 229.972 344.239C231.153 344.239 232.188 344.52 233.074 345.082C233.966 345.645 234.659 346.435 235.153 347.452C235.653 348.469 235.903 349.659 235.903 351.023C235.903 352.375 235.653 353.557 235.153 354.568C234.659 355.58 233.966 356.366 233.074 356.929C232.188 357.491 231.153 357.773 229.972 357.773ZM229.972 355.966C230.869 355.966 231.608 355.736 232.188 355.276C232.767 354.815 233.196 354.21 233.474 353.46C233.753 352.71 233.892 351.898 233.892 351.023C233.892 350.148 233.753 349.332 233.474 348.577C233.196 347.821 232.767 347.21 232.188 346.744C231.608 346.278 230.869 346.045 229.972 346.045C229.074 346.045 228.335 346.278 227.756 346.744C227.176 347.21 226.747 347.821 226.469 348.577C226.19 349.332 226.051 350.148 226.051 351.023C226.051 351.898 226.19 352.71 226.469 353.46C226.747 354.21 227.176 354.815 227.756 355.276C228.335 355.736 229.074 355.966 229.972 355.966ZM240.985 349.625V357.5H238.974V344.409H240.917V346.455H241.087C241.394 345.79 241.86 345.256 242.485 344.852C243.11 344.443 243.917 344.239 244.906 344.239C245.792 344.239 246.567 344.42 247.232 344.784C247.897 345.142 248.414 345.688 248.783 346.42C249.153 347.148 249.337 348.068 249.337 349.182V357.5H247.326V349.318C247.326 348.29 247.059 347.489 246.525 346.915C245.991 346.335 245.258 346.045 244.326 346.045C243.684 346.045 243.11 346.185 242.604 346.463C242.104 346.741 241.71 347.148 241.42 347.682C241.13 348.216 240.985 348.864 240.985 349.625ZM262.831 344.409C262.729 343.545 262.314 342.875 261.587 342.398C260.859 341.92 259.967 341.682 258.911 341.682C258.138 341.682 257.462 341.807 256.882 342.057C256.308 342.307 255.859 342.651 255.536 343.088C255.217 343.526 255.058 344.023 255.058 344.58C255.058 345.045 255.169 345.446 255.391 345.781C255.618 346.111 255.908 346.386 256.26 346.608C256.612 346.824 256.982 347.003 257.368 347.145C257.754 347.281 258.109 347.392 258.433 347.477L260.206 347.955C260.661 348.074 261.166 348.239 261.723 348.449C262.286 348.659 262.822 348.946 263.334 349.31C263.851 349.668 264.277 350.128 264.612 350.69C264.947 351.253 265.115 351.943 265.115 352.761C265.115 353.705 264.868 354.557 264.374 355.318C263.885 356.08 263.169 356.685 262.226 357.134C261.288 357.582 260.149 357.807 258.808 357.807C257.558 357.807 256.476 357.605 255.561 357.202C254.652 356.798 253.936 356.236 253.413 355.514C252.896 354.793 252.604 353.955 252.536 353H254.717C254.774 353.659 254.996 354.205 255.382 354.636C255.774 355.062 256.268 355.381 256.865 355.591C257.467 355.795 258.115 355.898 258.808 355.898C259.615 355.898 260.339 355.767 260.982 355.506C261.624 355.239 262.132 354.869 262.507 354.398C262.882 353.92 263.07 353.364 263.07 352.727C263.07 352.148 262.908 351.676 262.584 351.312C262.26 350.949 261.834 350.653 261.305 350.426C260.777 350.199 260.206 350 259.592 349.83L257.445 349.216C256.081 348.824 255.001 348.264 254.206 347.537C253.411 346.81 253.013 345.858 253.013 344.682C253.013 343.705 253.277 342.852 253.805 342.125C254.339 341.392 255.055 340.824 255.953 340.42C256.857 340.011 257.865 339.807 258.979 339.807C260.104 339.807 261.104 340.009 261.979 340.412C262.854 340.81 263.547 341.355 264.058 342.048C264.575 342.741 264.848 343.528 264.876 344.409H262.831ZM276.567 352.148V344.409H278.579V357.5H276.567V355.284H276.431C276.124 355.949 275.647 356.514 274.999 356.98C274.352 357.44 273.533 357.67 272.545 357.67C271.727 357.67 270.999 357.491 270.363 357.134C269.727 356.77 269.227 356.224 268.863 355.497C268.499 354.764 268.317 353.841 268.317 352.727V344.409H270.329V352.591C270.329 353.545 270.596 354.307 271.13 354.875C271.67 355.443 272.357 355.727 273.192 355.727C273.692 355.727 274.201 355.599 274.718 355.344C275.241 355.088 275.678 354.696 276.031 354.168C276.388 353.639 276.567 352.966 276.567 352.148ZM287.581 357.773C286.354 357.773 285.297 357.483 284.411 356.903C283.524 356.324 282.842 355.526 282.365 354.509C281.888 353.491 281.649 352.33 281.649 351.023C281.649 349.693 281.893 348.52 282.382 347.503C282.876 346.48 283.564 345.682 284.445 345.108C285.331 344.528 286.365 344.239 287.547 344.239C288.467 344.239 289.297 344.409 290.036 344.75C290.774 345.091 291.379 345.568 291.851 346.182C292.322 346.795 292.615 347.511 292.729 348.33H290.717C290.564 347.733 290.223 347.205 289.695 346.744C289.172 346.278 288.467 346.045 287.581 346.045C286.797 346.045 286.109 346.25 285.518 346.659C284.933 347.062 284.476 347.634 284.146 348.372C283.822 349.105 283.661 349.966 283.661 350.955C283.661 351.966 283.82 352.847 284.138 353.597C284.462 354.347 284.916 354.929 285.501 355.344C286.092 355.759 286.786 355.966 287.581 355.966C288.104 355.966 288.578 355.875 289.004 355.693C289.43 355.511 289.791 355.25 290.087 354.909C290.382 354.568 290.592 354.159 290.717 353.682H292.729C292.615 354.455 292.334 355.151 291.885 355.77C291.442 356.384 290.854 356.872 290.121 357.236C289.393 357.594 288.547 357.773 287.581 357.773ZM300.987 357.773C299.76 357.773 298.703 357.483 297.817 356.903C296.93 356.324 296.249 355.526 295.771 354.509C295.294 353.491 295.055 352.33 295.055 351.023C295.055 349.693 295.3 348.52 295.788 347.503C296.283 346.48 296.97 345.682 297.851 345.108C298.737 344.528 299.771 344.239 300.953 344.239C301.874 344.239 302.703 344.409 303.442 344.75C304.18 345.091 304.786 345.568 305.257 346.182C305.729 346.795 306.021 347.511 306.135 348.33H304.124C303.97 347.733 303.629 347.205 303.101 346.744C302.578 346.278 301.874 346.045 300.987 346.045C300.203 346.045 299.516 346.25 298.925 346.659C298.339 347.062 297.882 347.634 297.553 348.372C297.229 349.105 297.067 349.966 297.067 350.955C297.067 351.966 297.226 352.847 297.544 353.597C297.868 354.347 298.322 354.929 298.908 355.344C299.499 355.759 300.192 355.966 300.987 355.966C301.51 355.966 301.984 355.875 302.411 355.693C302.837 355.511 303.197 355.25 303.493 354.909C303.788 354.568 303.999 354.159 304.124 353.682H306.135C306.021 354.455 305.74 355.151 305.291 355.77C304.848 356.384 304.26 356.872 303.527 357.236C302.8 357.594 301.953 357.773 300.987 357.773ZM314.564 357.773C313.303 357.773 312.214 357.494 311.3 356.938C310.391 356.375 309.689 355.591 309.195 354.585C308.706 353.574 308.462 352.398 308.462 351.057C308.462 349.716 308.706 348.534 309.195 347.511C309.689 346.483 310.376 345.682 311.257 345.108C312.143 344.528 313.178 344.239 314.359 344.239C315.041 344.239 315.714 344.352 316.379 344.58C317.044 344.807 317.649 345.176 318.195 345.688C318.74 346.193 319.175 346.864 319.499 347.699C319.822 348.534 319.984 349.562 319.984 350.784V351.636H309.893V349.898H317.939C317.939 349.159 317.791 348.5 317.496 347.92C317.206 347.341 316.791 346.884 316.251 346.548C315.717 346.213 315.087 346.045 314.359 346.045C313.558 346.045 312.865 346.244 312.28 346.642C311.7 347.034 311.254 347.545 310.942 348.176C310.629 348.807 310.473 349.483 310.473 350.205V351.364C310.473 352.352 310.643 353.19 310.984 353.878C311.331 354.56 311.811 355.08 312.425 355.438C313.038 355.79 313.751 355.966 314.564 355.966C315.092 355.966 315.57 355.892 315.996 355.744C316.428 355.591 316.8 355.364 317.112 355.062C317.425 354.756 317.666 354.375 317.837 353.92L319.78 354.466C319.575 355.125 319.232 355.705 318.749 356.205C318.266 356.699 317.669 357.085 316.959 357.364C316.249 357.636 315.45 357.773 314.564 357.773ZM332.317 347.341L330.51 347.852C330.396 347.551 330.229 347.259 330.007 346.974C329.791 346.685 329.496 346.446 329.121 346.259C328.746 346.071 328.266 345.977 327.68 345.977C326.879 345.977 326.212 346.162 325.678 346.531C325.149 346.895 324.885 347.358 324.885 347.92C324.885 348.42 325.067 348.815 325.43 349.105C325.794 349.395 326.362 349.636 327.135 349.83L329.078 350.307C330.249 350.591 331.121 351.026 331.695 351.611C332.268 352.19 332.555 352.937 332.555 353.852C332.555 354.602 332.339 355.273 331.908 355.864C331.482 356.455 330.885 356.92 330.118 357.261C329.351 357.602 328.459 357.773 327.442 357.773C326.107 357.773 325.001 357.483 324.126 356.903C323.251 356.324 322.697 355.477 322.464 354.364L324.374 353.886C324.555 354.591 324.899 355.119 325.405 355.472C325.916 355.824 326.584 356 327.408 356C328.345 356 329.089 355.801 329.641 355.403C330.197 355 330.476 354.517 330.476 353.955C330.476 353.5 330.317 353.119 329.999 352.812C329.68 352.5 329.192 352.267 328.533 352.114L326.351 351.602C325.152 351.318 324.271 350.878 323.709 350.281C323.152 349.679 322.874 348.926 322.874 348.023C322.874 347.284 323.081 346.631 323.496 346.062C323.916 345.494 324.487 345.048 325.209 344.724C325.936 344.401 326.76 344.239 327.68 344.239C328.976 344.239 329.993 344.523 330.732 345.091C331.476 345.659 332.004 346.409 332.317 347.341ZM344.856 347.341L343.049 347.852C342.935 347.551 342.768 347.259 342.546 346.974C342.33 346.685 342.035 346.446 341.66 346.259C341.285 346.071 340.805 345.977 340.219 345.977C339.418 345.977 338.751 346.162 338.217 346.531C337.688 346.895 337.424 347.358 337.424 347.92C337.424 348.42 337.606 348.815 337.969 349.105C338.333 349.395 338.901 349.636 339.674 349.83L341.617 350.307C342.788 350.591 343.66 351.026 344.234 351.611C344.808 352.19 345.094 352.937 345.094 353.852C345.094 354.602 344.879 355.273 344.447 355.864C344.021 356.455 343.424 356.92 342.657 357.261C341.89 357.602 340.998 357.773 339.981 357.773C338.646 357.773 337.54 357.483 336.665 356.903C335.79 356.324 335.237 355.477 335.004 354.364L336.913 353.886C337.094 354.591 337.438 355.119 337.944 355.472C338.455 355.824 339.123 356 339.947 356C340.884 356 341.629 355.801 342.18 355.403C342.737 355 343.015 354.517 343.015 353.955C343.015 353.5 342.856 353.119 342.538 352.812C342.219 352.5 341.731 352.267 341.072 352.114L338.89 351.602C337.691 351.318 336.81 350.878 336.248 350.281C335.691 349.679 335.413 348.926 335.413 348.023C335.413 347.284 335.62 346.631 336.035 346.062C336.455 345.494 337.026 345.048 337.748 344.724C338.475 344.401 339.299 344.239 340.219 344.239C341.515 344.239 342.532 344.523 343.271 345.091C344.015 345.659 344.543 346.409 344.856 347.341Z" fill="black" fill-opacity="0.95"/>
<path d="M591.885 58V47.8182H598.746V49.593H594.038V52.0192H598.393V53.794H594.038V56.2251H598.766V58H591.885ZM601.297 58V47.8182H605.314C606.083 47.8182 606.739 47.9557 607.283 48.2308C607.83 48.5026 608.246 48.8887 608.531 49.3892C608.819 49.8864 608.963 50.4714 608.963 51.1442C608.963 51.8203 608.818 52.402 608.526 52.8892C608.234 53.3731 607.812 53.7443 607.258 54.0028C606.708 54.2614 606.042 54.3906 605.26 54.3906H602.57V52.6605H604.912C605.323 52.6605 605.664 52.6042 605.936 52.4915C606.207 52.3788 606.41 52.2098 606.542 51.9844C606.678 51.759 606.746 51.4789 606.746 51.1442C606.746 50.8061 606.678 50.5211 606.542 50.2891C606.41 50.0571 606.206 49.8814 605.931 49.7621C605.659 49.6394 605.316 49.5781 604.902 49.5781H603.45V58H601.297ZM606.796 53.3665L609.326 58H606.95L604.474 53.3665H606.796ZM611.325 58V47.8182H615.342C616.111 47.8182 616.767 47.9557 617.311 48.2308C617.857 48.5026 618.273 48.8887 618.558 49.3892C618.847 49.8864 618.991 50.4714 618.991 51.1442C618.991 51.8203 618.845 52.402 618.553 52.8892C618.262 53.3731 617.839 53.7443 617.286 54.0028C616.735 54.2614 616.069 54.3906 615.287 54.3906H612.597V52.6605H614.939C615.35 52.6605 615.691 52.6042 615.963 52.4915C616.235 52.3788 616.437 52.2098 616.57 51.9844C616.706 51.759 616.774 51.4789 616.774 51.1442C616.774 50.8061 616.706 50.5211 616.57 50.2891C616.437 50.0571 616.233 49.8814 615.958 49.7621C615.686 49.6394 615.343 49.5781 614.929 49.5781H613.477V58H611.325ZM616.823 53.3665L619.354 58H616.977L614.502 53.3665H616.823ZM630.709 52.9091C630.709 54.0194 630.498 54.964 630.077 55.7429C629.66 56.5218 629.09 57.1167 628.367 57.5277C627.648 57.9354 626.839 58.1392 625.941 58.1392C625.036 58.1392 624.224 57.9337 623.505 57.5227C622.786 57.1117 622.217 56.5168 621.8 55.7379C621.382 54.959 621.173 54.0161 621.173 52.9091C621.173 51.7988 621.382 50.8542 621.8 50.0753C622.217 49.2964 622.786 48.7031 623.505 48.2955C624.224 47.8845 625.036 47.679 625.941 47.679C626.839 47.679 627.648 47.8845 628.367 48.2955C629.09 48.7031 629.66 49.2964 630.077 50.0753C630.498 50.8542 630.709 51.7988 630.709 52.9091ZM628.526 52.9091C628.526 52.1899 628.418 51.5833 628.203 51.0895C627.991 50.5956 627.691 50.2211 627.303 49.9659C626.915 49.7107 626.461 49.5831 625.941 49.5831C625.421 49.5831 624.967 49.7107 624.579 49.9659C624.191 50.2211 623.889 50.5956 623.674 51.0895C623.462 51.5833 623.356 52.1899 623.356 52.9091C623.356 53.6283 623.462 54.2348 623.674 54.7287C623.889 55.2225 624.191 55.5971 624.579 55.8523C624.967 56.1075 625.421 56.2351 625.941 56.2351C626.461 56.2351 626.915 56.1075 627.303 55.8523C627.691 55.5971 627.991 55.2225 628.203 54.7287C628.418 54.2348 628.526 53.6283 628.526 52.9091ZM633.143 58V47.8182H637.16C637.929 47.8182 638.586 47.9557 639.129 48.2308C639.676 48.5026 640.092 48.8887 640.377 49.3892C640.665 49.8864 640.81 50.4714 640.81 51.1442C640.81 51.8203 640.664 52.402 640.372 52.8892C640.08 53.3731 639.658 53.7443 639.104 54.0028C638.554 54.2614 637.888 54.3906 637.106 54.3906H634.416V52.6605H636.758C637.169 52.6605 637.51 52.6042 637.782 52.4915C638.054 52.3788 638.256 52.2098 638.388 51.9844C638.524 51.759 638.592 51.4789 638.592 51.1442C638.592 50.8061 638.524 50.5211 638.388 50.2891C638.256 50.0571 638.052 49.8814 637.777 49.7621C637.505 49.6394 637.162 49.5781 636.748 49.5781H635.296V58H633.143ZM638.642 53.3665L641.173 58H638.796L636.32 53.3665H638.642Z" fill="black"/>
<path d="M683.166 220.2L669.266 241.1C668.366 242.4 669.366 244.2 670.966 244.2H682.666C683.366 244.2 683.866 245 683.566 245.6L675.566 263.1C675.066 264.1 676.366 265 677.166 264.2L701.866 239.5C703.166 238.2 702.266 236.1 700.466 236.1H693.166C692.366 236.1 691.866 235.2 692.366 234.5L699.866 223.5C701.366 221.3 703.866 220 706.466 220H740.466C754.666 220 766.566 208.9 766.966 194.7C767.366 180 755.566 168 740.966 168C738.866 168 736.766 168.3 734.866 168.7C733.166 143.7 712.366 124 686.966 124C664.466 124.2 645.666 139.6 640.366 160.5C639.266 160.4 638.066 160.3 636.866 160.3C620.066 160.3 606.366 174.2 606.866 191.1C607.266 207.4 621.166 220.3 637.466 220.3H646.866M734.766 169C721.866 173.3 714.866 184.3 719.866 189.3C723.866 193.2 734.866 186.2 734.766 169Z" stroke="url(#paint2_linear_1036_2507)" stroke-width="2.5" stroke-miterlimit="10" stroke-linecap="round" stroke-linejoin="round"/>
<circle cx="24" cy="24" r="24" transform="matrix(-1 0 0 1 647 325)" fill="url(#paint3_linear_1036_2507)"/>
<circle cx="24" cy="24" r="28" transform="matrix(-1 0 0 1 647 325)" stroke="black" stroke-opacity="0.2" stroke-width="8"/>
<path d="M684.227 340.045V357.5H682.114V340.045H684.227ZM690.204 340.045V357.5H688.192V340.045H690.204ZM695.899 340.045V357.5H693.888V340.045H695.899ZM707.833 352.148V344.409H709.844V357.5H707.833V355.284H707.697C707.39 355.949 706.913 356.514 706.265 356.98C705.617 357.44 704.799 357.67 703.81 357.67C702.992 357.67 702.265 357.491 701.629 357.134C700.992 356.77 700.492 356.224 700.129 355.497C699.765 354.764 699.583 353.841 699.583 352.727V344.409H701.594V352.591C701.594 353.545 701.862 354.307 702.396 354.875C702.935 355.443 703.623 355.727 704.458 355.727C704.958 355.727 705.467 355.599 705.984 355.344C706.506 355.088 706.944 354.696 707.296 354.168C707.654 353.639 707.833 352.966 707.833 352.148ZM722.801 347.341L720.994 347.852C720.881 347.551 720.713 347.259 720.491 346.974C720.276 346.685 719.98 346.446 719.605 346.259C719.23 346.071 718.75 345.977 718.165 345.977C717.364 345.977 716.696 346.162 716.162 346.531C715.634 346.895 715.369 347.358 715.369 347.92C715.369 348.42 715.551 348.815 715.915 349.105C716.278 349.395 716.847 349.636 717.619 349.83L719.562 350.307C720.733 350.591 721.605 351.026 722.179 351.611C722.753 352.19 723.04 352.937 723.04 353.852C723.04 354.602 722.824 355.273 722.392 355.864C721.966 356.455 721.369 356.92 720.602 357.261C719.835 357.602 718.943 357.773 717.926 357.773C716.591 357.773 715.486 357.483 714.611 356.903C713.736 356.324 713.182 355.477 712.949 354.364L714.858 353.886C715.04 354.591 715.384 355.119 715.889 355.472C716.401 355.824 717.068 356 717.892 356C718.83 356 719.574 355.801 720.125 355.403C720.682 355 720.96 354.517 720.96 353.955C720.96 353.5 720.801 353.119 720.483 352.812C720.165 352.5 719.676 352.267 719.017 352.114L716.835 351.602C715.636 351.318 714.756 350.878 714.193 350.281C713.636 349.679 713.358 348.926 713.358 348.023C713.358 347.284 713.565 346.631 713.98 346.062C714.401 345.494 714.972 345.048 715.693 344.724C716.42 344.401 717.244 344.239 718.165 344.239C719.46 344.239 720.477 344.523 721.216 345.091C721.96 345.659 722.489 346.409 722.801 347.341ZM731.761 344.409V346.114H724.977V344.409H731.761ZM726.954 341.273H728.965V353.75C728.965 354.318 729.048 354.744 729.212 355.028C729.383 355.307 729.599 355.494 729.86 355.591C730.127 355.682 730.408 355.727 730.704 355.727C730.925 355.727 731.107 355.716 731.249 355.693C731.391 355.665 731.505 355.642 731.59 355.625L731.999 357.432C731.863 357.483 731.673 357.534 731.428 357.585C731.184 357.642 730.874 357.67 730.499 357.67C729.931 357.67 729.374 357.548 728.829 357.304C728.289 357.06 727.84 356.688 727.482 356.188C727.13 355.688 726.954 355.057 726.954 354.295V341.273ZM734.786 357.5V344.409H736.729V346.386H736.866C737.104 345.739 737.536 345.213 738.161 344.81C738.786 344.406 739.491 344.205 740.275 344.205C740.423 344.205 740.607 344.207 740.829 344.213C741.05 344.219 741.218 344.227 741.332 344.239V346.284C741.263 346.267 741.107 346.241 740.863 346.207C740.624 346.168 740.371 346.148 740.104 346.148C739.468 346.148 738.9 346.281 738.4 346.548C737.906 346.81 737.513 347.173 737.224 347.639C736.94 348.099 736.798 348.625 736.798 349.216V357.5H734.786ZM747.568 357.807C746.739 357.807 745.986 357.651 745.31 357.338C744.634 357.02 744.097 356.562 743.699 355.966C743.301 355.364 743.102 354.636 743.102 353.784C743.102 353.034 743.25 352.426 743.545 351.96C743.841 351.489 744.236 351.119 744.73 350.852C745.224 350.585 745.77 350.386 746.366 350.256C746.969 350.119 747.574 350.011 748.182 349.932C748.977 349.83 749.622 349.753 750.116 349.702C750.616 349.645 750.98 349.551 751.207 349.42C751.44 349.29 751.557 349.062 751.557 348.739V348.67C751.557 347.83 751.327 347.176 750.866 346.71C750.412 346.244 749.722 346.011 748.795 346.011C747.835 346.011 747.082 346.222 746.537 346.642C745.991 347.062 745.608 347.511 745.386 347.989L743.477 347.307C743.818 346.511 744.273 345.892 744.841 345.449C745.415 345 746.04 344.687 746.716 344.511C747.398 344.33 748.068 344.239 748.727 344.239C749.148 344.239 749.631 344.29 750.176 344.392C750.727 344.489 751.259 344.69 751.77 344.997C752.287 345.304 752.716 345.767 753.057 346.386C753.398 347.006 753.568 347.835 753.568 348.875V357.5H751.557V355.727H751.455C751.318 356.011 751.091 356.315 750.773 356.639C750.455 356.963 750.031 357.239 749.503 357.466C748.974 357.693 748.33 357.807 747.568 357.807ZM747.875 356C748.67 356 749.341 355.844 749.886 355.531C750.438 355.219 750.852 354.815 751.131 354.321C751.415 353.827 751.557 353.307 751.557 352.761V350.92C751.472 351.023 751.284 351.116 750.994 351.202C750.71 351.281 750.381 351.352 750.006 351.415C749.636 351.472 749.276 351.523 748.923 351.568C748.577 351.608 748.295 351.642 748.08 351.67C747.557 351.739 747.068 351.849 746.614 352.003C746.165 352.151 745.801 352.375 745.523 352.676C745.25 352.972 745.114 353.375 745.114 353.886C745.114 354.585 745.372 355.114 745.889 355.472C746.412 355.824 747.074 356 747.875 356ZM762.933 344.409V346.114H756.148V344.409H762.933ZM758.126 341.273H760.137V353.75C760.137 354.318 760.219 354.744 760.384 355.028C760.555 355.307 760.771 355.494 761.032 355.591C761.299 355.682 761.58 355.727 761.876 355.727C762.097 355.727 762.279 355.716 762.421 355.693C762.563 355.665 762.677 355.642 762.762 355.625L763.171 357.432C763.035 357.483 762.844 357.534 762.6 357.585C762.356 357.642 762.046 357.67 761.671 357.67C761.103 357.67 760.546 357.548 760.001 357.304C759.461 357.06 759.012 356.688 758.654 356.188C758.302 355.688 758.126 355.057 758.126 354.295V341.273ZM765.958 357.5V344.409H767.969V357.5H765.958ZM766.981 342.227C766.589 342.227 766.251 342.094 765.967 341.827C765.688 341.56 765.549 341.239 765.549 340.864C765.549 340.489 765.688 340.168 765.967 339.901C766.251 339.634 766.589 339.5 766.981 339.5C767.373 339.5 767.708 339.634 767.987 339.901C768.271 340.168 768.413 340.489 768.413 340.864C768.413 341.239 768.271 341.56 767.987 341.827C767.708 342.094 767.373 342.227 766.981 342.227ZM776.972 357.773C775.79 357.773 774.753 357.491 773.861 356.929C772.974 356.366 772.281 355.58 771.781 354.568C771.287 353.557 771.04 352.375 771.04 351.023C771.04 349.659 771.287 348.469 771.781 347.452C772.281 346.435 772.974 345.645 773.861 345.082C774.753 344.52 775.79 344.239 776.972 344.239C778.153 344.239 779.188 344.52 780.074 345.082C780.966 345.645 781.659 346.435 782.153 347.452C782.653 348.469 782.903 349.659 782.903 351.023C782.903 352.375 782.653 353.557 782.153 354.568C781.659 355.58 780.966 356.366 780.074 356.929C779.188 357.491 778.153 357.773 776.972 357.773ZM776.972 355.966C777.869 355.966 778.608 355.736 779.188 355.276C779.767 354.815 780.196 354.21 780.474 353.46C780.753 352.71 780.892 351.898 780.892 351.023C780.892 350.148 780.753 349.332 780.474 348.577C780.196 347.821 779.767 347.21 779.188 346.744C778.608 346.278 777.869 346.045 776.972 346.045C776.074 346.045 775.335 346.278 774.756 346.744C774.176 347.21 773.747 347.821 773.469 348.577C773.19 349.332 773.051 350.148 773.051 351.023C773.051 351.898 773.19 352.71 773.469 353.46C773.747 354.21 774.176 354.815 774.756 355.276C775.335 355.736 776.074 355.966 776.972 355.966ZM787.985 349.625V357.5H785.974V344.409H787.917V346.455H788.087C788.394 345.79 788.86 345.256 789.485 344.852C790.11 344.443 790.917 344.239 791.906 344.239C792.792 344.239 793.567 344.42 794.232 344.784C794.897 345.142 795.414 345.688 795.783 346.42C796.153 347.148 796.337 348.068 796.337 349.182V357.5H794.326V349.318C794.326 348.29 794.059 347.489 793.525 346.915C792.991 346.335 792.258 346.045 791.326 346.045C790.684 346.045 790.11 346.185 789.604 346.463C789.104 346.741 788.71 347.148 788.42 347.682C788.13 348.216 787.985 348.864 787.985 349.625ZM800.286 357.5V340.045H810.82V341.92H802.399V347.818H810.274V349.693H802.399V355.625H810.956V357.5H800.286ZM814.357 357.5V344.409H816.3V346.386H816.436C816.675 345.739 817.107 345.213 817.732 344.81C818.357 344.406 819.061 344.205 819.845 344.205C819.993 344.205 820.178 344.207 820.399 344.213C820.621 344.219 820.788 344.227 820.902 344.239V346.284C820.834 346.267 820.678 346.241 820.433 346.207C820.195 346.168 819.942 346.148 819.675 346.148C819.038 346.148 818.47 346.281 817.97 346.548C817.476 346.81 817.084 347.173 816.794 347.639C816.51 348.099 816.368 348.625 816.368 349.216V357.5H814.357ZM823.286 357.5V344.409H825.229V346.386H825.366C825.604 345.739 826.036 345.213 826.661 344.81C827.286 344.406 827.991 344.205 828.775 344.205C828.923 344.205 829.107 344.207 829.329 344.213C829.55 344.219 829.718 344.227 829.832 344.239V346.284C829.763 346.267 829.607 346.241 829.363 346.207C829.124 346.168 828.871 346.148 828.604 346.148C827.968 346.148 827.4 346.281 826.9 346.548C826.406 346.81 826.013 347.173 825.724 347.639C825.44 348.099 825.298 348.625 825.298 349.216V357.5H823.286ZM837.136 357.773C835.954 357.773 834.917 357.491 834.025 356.929C833.138 356.366 832.445 355.58 831.945 354.568C831.451 353.557 831.204 352.375 831.204 351.023C831.204 349.659 831.451 348.469 831.945 347.452C832.445 346.435 833.138 345.645 834.025 345.082C834.917 344.52 835.954 344.239 837.136 344.239C838.317 344.239 839.352 344.52 840.238 345.082C841.13 345.645 841.823 346.435 842.317 347.452C842.817 348.469 843.067 349.659 843.067 351.023C843.067 352.375 842.817 353.557 842.317 354.568C841.823 355.58 841.13 356.366 840.238 356.929C839.352 357.491 838.317 357.773 837.136 357.773ZM837.136 355.966C838.033 355.966 838.772 355.736 839.352 355.276C839.931 354.815 840.36 354.21 840.638 353.46C840.917 352.71 841.056 351.898 841.056 351.023C841.056 350.148 840.917 349.332 840.638 348.577C840.36 347.821 839.931 347.21 839.352 346.744C838.772 346.278 838.033 346.045 837.136 346.045C836.238 346.045 835.499 346.278 834.92 346.744C834.34 347.21 833.911 347.821 833.633 348.577C833.354 349.332 833.215 350.148 833.215 351.023C833.215 351.898 833.354 352.71 833.633 353.46C833.911 354.21 834.34 354.815 834.92 355.276C835.499 355.736 836.238 355.966 837.136 355.966ZM846.138 357.5V344.409H848.081V346.386H848.217C848.456 345.739 848.888 345.213 849.513 344.81C850.138 344.406 850.842 344.205 851.626 344.205C851.774 344.205 851.959 344.207 852.18 344.213C852.402 344.219 852.57 344.227 852.683 344.239V346.284C852.615 346.267 852.459 346.241 852.214 346.207C851.976 346.168 851.723 346.148 851.456 346.148C850.82 346.148 850.251 346.281 849.751 346.548C849.257 346.81 848.865 347.173 848.575 347.639C848.291 348.099 848.149 348.625 848.149 349.216V357.5H846.138Z" fill="black" fill-opacity="0.95"/>
<defs>
<linearGradient id="paint0_linear_1036_2507" x1="136.128" y1="119.277" x2="136.128" y2="268.4" gradientUnits="userSpaceOnUse">
<stop stop-color="#3CC29A"/>
<stop offset="1" stop-color="#93C437"/>
</linearGradient>
<linearGradient id="paint1_linear_1036_2507" x1="24" y1="0" x2="24" y2="48" gradientUnits="userSpaceOnUse">
<stop stop-color="#3CC29A"/>
<stop offset="1" stop-color="#93C437"/>
</linearGradient>
<linearGradient id="paint2_linear_1036_2507" x1="686.914" y1="124" x2="686.914" y2="264.508" gradientUnits="userSpaceOnUse">
<stop stop-color="#F0677E"/>
<stop offset="1" stop-color="#DB1F2E"/>
</linearGradient>
<linearGradient id="paint3_linear_1036_2507" x1="24" y1="0" x2="24" y2="48" gradientUnits="userSpaceOnUse">
<stop stop-color="#F0677E"/>
<stop offset="1" stop-color="#DB1F2E"/>
</linearGradient>
</defs>
</svg>
