<svg width="1150" height="461" viewBox="0 0 1150 461" fill="none" xmlns="http://www.w3.org/2000/svg">
<rect width="1150" height="461" fill="#F7F7F7"/>
<path d="M44.8849 58V47.8182H48.902C49.6742 47.8182 50.3321 47.9657 50.8757 48.2607C51.4193 48.5523 51.8336 48.9583 52.1186 49.4787C52.407 49.9957 52.5511 50.5923 52.5511 51.2685C52.5511 51.9446 52.4053 52.5412 52.1136 53.0582C51.822 53.5753 51.3994 53.978 50.8459 54.2663C50.2957 54.5547 49.6295 54.6989 48.8473 54.6989H46.2869V52.9737H48.4993C48.9136 52.9737 49.255 52.9025 49.5234 52.7599C49.7952 52.6141 49.9974 52.4136 50.13 52.1584C50.2659 51.8999 50.3338 51.6032 50.3338 51.2685C50.3338 50.9304 50.2659 50.6354 50.13 50.3835C49.9974 50.1283 49.7952 49.9311 49.5234 49.7919C49.2517 49.6494 48.907 49.5781 48.4893 49.5781H47.0376V58H44.8849ZM54.7894 58V47.8182H58.8064C59.5754 47.8182 60.2316 47.9557 60.7752 48.2308C61.3221 48.5026 61.738 48.8887 62.0231 49.3892C62.3114 49.8864 62.4556 50.4714 62.4556 51.1442C62.4556 51.8203 62.3098 52.402 62.0181 52.8892C61.7264 53.3731 61.3038 53.7443 60.7503 54.0028C60.2001 54.2614 59.534 54.3906 58.7518 54.3906H56.0621V52.6605H58.4037C58.8147 52.6605 59.1561 52.6042 59.4279 52.4915C59.6997 52.3788 59.9018 52.2098 60.0344 51.9844C60.1703 51.759 60.2383 51.4789 60.2383 51.1442C60.2383 50.8061 60.1703 50.5211 60.0344 50.2891C59.9018 50.0571 59.698 49.8814 59.4229 49.7621C59.1511 49.6394 58.8081 49.5781 58.3938 49.5781H56.9421V58H54.7894ZM60.288 53.3665L62.8185 58H60.4421L57.9662 53.3665H60.288ZM66.9696 47.8182V58H64.8169V47.8182H66.9696ZM69.5807 47.8182H72.2356L75.0395 54.6591H75.1589L77.9628 47.8182H80.6177V58H78.5296V51.3729H78.4451L75.8101 57.9503H74.3883L71.7533 51.348H71.6688V58H69.5807V47.8182ZM84.9862 58H82.6794L86.1943 47.8182H88.9685L92.4784 58H90.1716L87.6212 50.1449H87.5416L84.9862 58ZM84.8421 53.9979H90.2909V55.6783H84.8421V53.9979ZM94.5439 58V47.8182H98.561C99.3299 47.8182 99.9862 47.9557 100.53 48.2308C101.077 48.5026 101.493 48.8887 101.778 49.3892C102.066 49.8864 102.21 50.4714 102.21 51.1442C102.21 51.8203 102.064 52.402 101.773 52.8892C101.481 53.3731 101.058 53.7443 100.505 54.0028C99.9547 54.2614 99.2885 54.3906 98.5063 54.3906H95.8167V52.6605H98.1583C98.5693 52.6605 98.9106 52.6042 99.1824 52.4915C99.4542 52.3788 99.6564 52.2098 99.789 51.9844C99.9248 51.759 99.9928 51.4789 99.9928 51.1442C99.9928 50.8061 99.9248 50.5211 99.789 50.2891C99.6564 50.0571 99.4525 49.8814 99.1775 49.7621C98.9057 49.6394 98.5626 49.5781 98.1483 49.5781H96.6966V58H94.5439ZM100.043 53.3665L102.573 58H100.197L97.7208 53.3665H100.043ZM103.975 47.8182H106.386L108.708 52.2031H108.807L111.129 47.8182H113.54L109.826 54.4006V58H107.689V54.4006L103.975 47.8182Z" fill="black"/>
<path d="M67.8654 148.2V147.2C67.8654 142.8 71.4654 139.2 75.8654 139.2H171.865C176.265 139.2 179.865 142.8 179.865 147.2V159.2C179.865 172.2 171.865 175.2 167.865 171.2C163.865 167.2 165.865 161.2 174.865 158.2L188.265 153.7C192.465 152.3 196.965 154.6 198.365 158.8L225.265 239.6C226.665 243.8 224.365 248.3 220.165 249.7L127.365 280.6C123.165 282 118.665 279.7 117.265 275.5L111.765 259.1M101.865 165.2H119.865M179.865 177.2V243.2C179.865 247.6 176.265 251.2 171.865 251.2H75.8654C71.4654 251.2 67.8654 247.6 67.8654 243.2V176.2C67.8654 175.7 67.4654 175.3 66.9654 175.2C61.7654 174.7 57.6654 170.3 57.8654 164.9C58.0654 159.8 62.1654 155.5 67.3654 155.2C70.6654 155 73.5654 156.4 75.5654 158.7L83.0654 157.8C84.7654 152.7 88.0654 149.2 91.9654 149.2C97.4654 149.2 101.965 156.4 101.965 165.2C101.965 174 97.4654 181.2 91.9654 181.2C88.0654 181.2 84.6654 177.3 82.9654 172.2L75.9654 171.2M87.8654 204.3L91.3654 200.8C94.4654 197.7 99.8654 199.9 99.8654 204.3C99.8654 208.7 105.265 210.9 108.365 207.8L115.365 200.8C118.465 197.7 123.865 199.9 123.865 204.3C123.865 208.7 129.265 210.9 132.365 207.8L139.365 200.8C142.465 197.7 147.865 199.9 147.865 204.3C147.865 208.7 153.265 210.9 156.365 207.8L159.865 204.3M87.8654 226.3L91.3654 222.8C94.4654 219.7 99.8654 221.9 99.8654 226.3C99.8654 230.7 105.265 232.9 108.365 229.8L115.365 222.8C118.465 219.7 123.865 221.9 123.865 226.3C123.865 230.7 129.265 232.9 132.365 229.8L139.365 222.8C142.465 219.7 147.865 221.9 147.865 226.3C147.865 230.7 153.265 232.9 156.365 229.8L159.865 226.3" stroke="url(#paint0_linear_1036_2201)" stroke-width="2.5" stroke-miterlimit="10" stroke-linecap="round" stroke-linejoin="round"/>
<circle cx="24" cy="24" r="24" transform="matrix(-1 0 0 1 100 361)" fill="url(#paint1_linear_1036_2201)"/>
<circle cx="24" cy="24" r="28" transform="matrix(-1 0 0 1 100 361)" stroke="black" stroke-opacity="0.2" stroke-width="8"/>
<path d="M137.227 376.045V393.5H135.114V376.045H137.227ZM143.204 376.045V393.5H141.192V376.045H143.204ZM148.899 376.045V393.5H146.888V376.045H148.899ZM160.833 388.148V380.409H162.844V393.5H160.833V391.284H160.697C160.39 391.949 159.913 392.514 159.265 392.98C158.617 393.44 157.799 393.67 156.81 393.67C155.992 393.67 155.265 393.491 154.629 393.134C153.992 392.77 153.492 392.224 153.129 391.497C152.765 390.764 152.583 389.841 152.583 388.727V380.409H154.594V388.591C154.594 389.545 154.862 390.307 155.396 390.875C155.935 391.443 156.623 391.727 157.458 391.727C157.958 391.727 158.467 391.599 158.984 391.344C159.506 391.088 159.944 390.696 160.296 390.168C160.654 389.639 160.833 388.966 160.833 388.148ZM175.801 383.341L173.994 383.852C173.881 383.551 173.713 383.259 173.491 382.974C173.276 382.685 172.98 382.446 172.605 382.259C172.23 382.071 171.75 381.977 171.165 381.977C170.364 381.977 169.696 382.162 169.162 382.531C168.634 382.895 168.369 383.358 168.369 383.92C168.369 384.42 168.551 384.815 168.915 385.105C169.278 385.395 169.847 385.636 170.619 385.83L172.562 386.307C173.733 386.591 174.605 387.026 175.179 387.611C175.753 388.19 176.04 388.937 176.04 389.852C176.04 390.602 175.824 391.273 175.392 391.864C174.966 392.455 174.369 392.92 173.602 393.261C172.835 393.602 171.943 393.773 170.926 393.773C169.591 393.773 168.486 393.483 167.611 392.903C166.736 392.324 166.182 391.477 165.949 390.364L167.858 389.886C168.04 390.591 168.384 391.119 168.889 391.472C169.401 391.824 170.068 392 170.892 392C171.83 392 172.574 391.801 173.125 391.403C173.682 391 173.96 390.517 173.96 389.955C173.96 389.5 173.801 389.119 173.483 388.812C173.165 388.5 172.676 388.267 172.017 388.114L169.835 387.602C168.636 387.318 167.756 386.878 167.193 386.281C166.636 385.679 166.358 384.926 166.358 384.023C166.358 383.284 166.565 382.631 166.98 382.062C167.401 381.494 167.972 381.048 168.693 380.724C169.42 380.401 170.244 380.239 171.165 380.239C172.46 380.239 173.477 380.523 174.216 381.091C174.96 381.659 175.489 382.409 175.801 383.341ZM184.761 380.409V382.114H177.977V380.409H184.761ZM179.954 377.273H181.965V389.75C181.965 390.318 182.048 390.744 182.212 391.028C182.383 391.307 182.599 391.494 182.86 391.591C183.127 391.682 183.408 391.727 183.704 391.727C183.925 391.727 184.107 391.716 184.249 391.693C184.391 391.665 184.505 391.642 184.59 391.625L184.999 393.432C184.863 393.483 184.673 393.534 184.428 393.585C184.184 393.642 183.874 393.67 183.499 393.67C182.931 393.67 182.374 393.548 181.829 393.304C181.289 393.06 180.84 392.688 180.482 392.188C180.13 391.688 179.954 391.057 179.954 390.295V377.273ZM187.786 393.5V380.409H189.729V382.386H189.866C190.104 381.739 190.536 381.213 191.161 380.81C191.786 380.406 192.491 380.205 193.275 380.205C193.423 380.205 193.607 380.207 193.829 380.213C194.05 380.219 194.218 380.227 194.332 380.239V382.284C194.263 382.267 194.107 382.241 193.863 382.207C193.624 382.168 193.371 382.148 193.104 382.148C192.468 382.148 191.9 382.281 191.4 382.548C190.906 382.81 190.513 383.173 190.224 383.639C189.94 384.099 189.798 384.625 189.798 385.216V393.5H187.786ZM200.568 393.807C199.739 393.807 198.986 393.651 198.31 393.338C197.634 393.02 197.097 392.562 196.699 391.966C196.301 391.364 196.102 390.636 196.102 389.784C196.102 389.034 196.25 388.426 196.545 387.96C196.841 387.489 197.236 387.119 197.73 386.852C198.224 386.585 198.77 386.386 199.366 386.256C199.969 386.119 200.574 386.011 201.182 385.932C201.977 385.83 202.622 385.753 203.116 385.702C203.616 385.645 203.98 385.551 204.207 385.42C204.44 385.29 204.557 385.062 204.557 384.739V384.67C204.557 383.83 204.327 383.176 203.866 382.71C203.412 382.244 202.722 382.011 201.795 382.011C200.835 382.011 200.082 382.222 199.537 382.642C198.991 383.062 198.608 383.511 198.386 383.989L196.477 383.307C196.818 382.511 197.273 381.892 197.841 381.449C198.415 381 199.04 380.687 199.716 380.511C200.398 380.33 201.068 380.239 201.727 380.239C202.148 380.239 202.631 380.29 203.176 380.392C203.727 380.489 204.259 380.69 204.77 380.997C205.287 381.304 205.716 381.767 206.057 382.386C206.398 383.006 206.568 383.835 206.568 384.875V393.5H204.557V391.727H204.455C204.318 392.011 204.091 392.315 203.773 392.639C203.455 392.963 203.031 393.239 202.503 393.466C201.974 393.693 201.33 393.807 200.568 393.807ZM200.875 392C201.67 392 202.341 391.844 202.886 391.531C203.438 391.219 203.852 390.815 204.131 390.321C204.415 389.827 204.557 389.307 204.557 388.761V386.92C204.472 387.023 204.284 387.116 203.994 387.202C203.71 387.281 203.381 387.352 203.006 387.415C202.636 387.472 202.276 387.523 201.923 387.568C201.577 387.608 201.295 387.642 201.08 387.67C200.557 387.739 200.068 387.849 199.614 388.003C199.165 388.151 198.801 388.375 198.523 388.676C198.25 388.972 198.114 389.375 198.114 389.886C198.114 390.585 198.372 391.114 198.889 391.472C199.412 391.824 200.074 392 200.875 392ZM215.933 380.409V382.114H209.148V380.409H215.933ZM211.126 377.273H213.137V389.75C213.137 390.318 213.219 390.744 213.384 391.028C213.555 391.307 213.771 391.494 214.032 391.591C214.299 391.682 214.58 391.727 214.876 391.727C215.097 391.727 215.279 391.716 215.421 391.693C215.563 391.665 215.677 391.642 215.762 391.625L216.171 393.432C216.035 393.483 215.844 393.534 215.6 393.585C215.356 393.642 215.046 393.67 214.671 393.67C214.103 393.67 213.546 393.548 213.001 393.304C212.461 393.06 212.012 392.688 211.654 392.188C211.302 391.688 211.126 391.057 211.126 390.295V377.273ZM218.958 393.5V380.409H220.969V393.5H218.958ZM219.981 378.227C219.589 378.227 219.251 378.094 218.967 377.827C218.688 377.56 218.549 377.239 218.549 376.864C218.549 376.489 218.688 376.168 218.967 375.901C219.251 375.634 219.589 375.5 219.981 375.5C220.373 375.5 220.708 375.634 220.987 375.901C221.271 376.168 221.413 376.489 221.413 376.864C221.413 377.239 221.271 377.56 220.987 377.827C220.708 378.094 220.373 378.227 219.981 378.227ZM229.972 393.773C228.79 393.773 227.753 393.491 226.861 392.929C225.974 392.366 225.281 391.58 224.781 390.568C224.287 389.557 224.04 388.375 224.04 387.023C224.04 385.659 224.287 384.469 224.781 383.452C225.281 382.435 225.974 381.645 226.861 381.082C227.753 380.52 228.79 380.239 229.972 380.239C231.153 380.239 232.188 380.52 233.074 381.082C233.966 381.645 234.659 382.435 235.153 383.452C235.653 384.469 235.903 385.659 235.903 387.023C235.903 388.375 235.653 389.557 235.153 390.568C234.659 391.58 233.966 392.366 233.074 392.929C232.188 393.491 231.153 393.773 229.972 393.773ZM229.972 391.966C230.869 391.966 231.608 391.736 232.188 391.276C232.767 390.815 233.196 390.21 233.474 389.46C233.753 388.71 233.892 387.898 233.892 387.023C233.892 386.148 233.753 385.332 233.474 384.577C233.196 383.821 232.767 383.21 232.188 382.744C231.608 382.278 230.869 382.045 229.972 382.045C229.074 382.045 228.335 382.278 227.756 382.744C227.176 383.21 226.747 383.821 226.469 384.577C226.19 385.332 226.051 386.148 226.051 387.023C226.051 387.898 226.19 388.71 226.469 389.46C226.747 390.21 227.176 390.815 227.756 391.276C228.335 391.736 229.074 391.966 229.972 391.966ZM240.985 385.625V393.5H238.974V380.409H240.917V382.455H241.087C241.394 381.79 241.86 381.256 242.485 380.852C243.11 380.443 243.917 380.239 244.906 380.239C245.792 380.239 246.567 380.42 247.232 380.784C247.897 381.142 248.414 381.688 248.783 382.42C249.153 383.148 249.337 384.068 249.337 385.182V393.5H247.326V385.318C247.326 384.29 247.059 383.489 246.525 382.915C245.991 382.335 245.258 382.045 244.326 382.045C243.684 382.045 243.11 382.185 242.604 382.463C242.104 382.741 241.71 383.148 241.42 383.682C241.13 384.216 240.985 384.864 240.985 385.625ZM253.286 393.5V376.045H263.82V377.92H255.399V383.818H263.274V385.693H255.399V391.625H263.956V393.5H253.286ZM267.357 393.5V380.409H269.3V382.455H269.47C269.743 381.756 270.183 381.213 270.791 380.827C271.399 380.435 272.129 380.239 272.982 380.239C273.845 380.239 274.564 380.435 275.138 380.827C275.717 381.213 276.169 381.756 276.493 382.455H276.629C276.964 381.778 277.467 381.241 278.138 380.844C278.808 380.44 279.612 380.239 280.55 380.239C281.72 380.239 282.678 380.605 283.422 381.338C284.166 382.065 284.538 383.199 284.538 384.739V393.5H282.527V384.739C282.527 383.773 282.263 383.082 281.734 382.668C281.206 382.253 280.584 382.045 279.868 382.045C278.947 382.045 278.234 382.324 277.729 382.881C277.223 383.432 276.97 384.131 276.97 384.977V393.5H274.925V384.534C274.925 383.79 274.683 383.19 274.2 382.736C273.717 382.276 273.095 382.045 272.334 382.045C271.811 382.045 271.322 382.185 270.868 382.463C270.419 382.741 270.055 383.128 269.777 383.622C269.504 384.111 269.368 384.676 269.368 385.318V393.5H267.357ZM288.216 398.409V380.409H290.159V382.489H290.398C290.545 382.261 290.75 381.972 291.011 381.619C291.278 381.261 291.659 380.943 292.153 380.665C292.653 380.381 293.33 380.239 294.182 380.239C295.284 380.239 296.256 380.514 297.097 381.065C297.938 381.616 298.594 382.398 299.065 383.409C299.537 384.42 299.773 385.614 299.773 386.989C299.773 388.375 299.537 389.577 299.065 390.594C298.594 391.605 297.94 392.389 297.105 392.946C296.27 393.497 295.307 393.773 294.216 393.773C293.375 393.773 292.702 393.634 292.196 393.355C291.69 393.071 291.301 392.75 291.028 392.392C290.756 392.028 290.545 391.727 290.398 391.489H290.227V398.409H288.216ZM290.193 386.955C290.193 387.943 290.338 388.815 290.628 389.571C290.918 390.321 291.341 390.909 291.898 391.335C292.455 391.756 293.136 391.966 293.943 391.966C294.784 391.966 295.486 391.744 296.048 391.301C296.616 390.852 297.043 390.25 297.327 389.494C297.616 388.733 297.761 387.886 297.761 386.955C297.761 386.034 297.619 385.205 297.335 384.466C297.057 383.722 296.634 383.134 296.065 382.702C295.503 382.264 294.795 382.045 293.943 382.045C293.125 382.045 292.438 382.253 291.881 382.668C291.324 383.077 290.903 383.651 290.619 384.389C290.335 385.122 290.193 385.977 290.193 386.955ZM308.534 380.409V382.114H301.75V380.409H308.534ZM303.727 377.273H305.739V389.75C305.739 390.318 305.821 390.744 305.986 391.028C306.156 391.307 306.372 391.494 306.634 391.591C306.901 391.682 307.182 391.727 307.477 391.727C307.699 391.727 307.881 391.716 308.023 391.693C308.165 391.665 308.278 391.642 308.364 391.625L308.773 393.432C308.636 393.483 308.446 393.534 308.202 393.585C307.957 393.642 307.648 393.67 307.273 393.67C306.705 393.67 306.148 393.548 305.602 393.304C305.063 393.06 304.614 392.688 304.256 392.188C303.903 391.688 303.727 391.057 303.727 390.295V377.273ZM312.855 398.409C312.514 398.409 312.21 398.381 311.943 398.324C311.676 398.273 311.491 398.222 311.389 398.17L311.901 396.398C312.389 396.523 312.821 396.568 313.196 396.534C313.571 396.5 313.903 396.332 314.193 396.031C314.489 395.736 314.759 395.256 315.003 394.591L315.378 393.568L310.537 380.409H312.719L316.332 390.841H316.469L320.082 380.409H322.264L316.707 395.409C316.457 396.085 316.148 396.645 315.778 397.088C315.409 397.537 314.98 397.869 314.491 398.085C314.009 398.301 313.463 398.409 312.855 398.409ZM325.192 393.5V376.045H331.089C332.459 376.045 333.578 376.293 334.447 376.787C335.322 377.276 335.97 377.938 336.391 378.773C336.811 379.608 337.021 380.54 337.021 381.568C337.021 382.597 336.811 383.531 336.391 384.372C335.976 385.213 335.334 385.884 334.464 386.384C333.595 386.878 332.482 387.125 331.124 387.125H326.896V385.25H331.055C331.993 385.25 332.746 385.088 333.314 384.764C333.882 384.44 334.294 384.003 334.55 383.452C334.811 382.895 334.942 382.267 334.942 381.568C334.942 380.869 334.811 380.244 334.55 379.693C334.294 379.142 333.879 378.71 333.305 378.398C332.732 378.08 331.97 377.92 331.021 377.92H327.305V393.5H325.192ZM340.153 393.5V380.409H342.097V382.386H342.233C342.472 381.739 342.903 381.213 343.528 380.81C344.153 380.406 344.858 380.205 345.642 380.205C345.79 380.205 345.974 380.207 346.196 380.213C346.418 380.219 346.585 380.227 346.699 380.239V382.284C346.631 382.267 346.474 382.241 346.23 382.207C345.991 382.168 345.739 382.148 345.472 382.148C344.835 382.148 344.267 382.281 343.767 382.548C343.273 382.81 342.881 383.173 342.591 383.639C342.307 384.099 342.165 384.625 342.165 385.216V393.5H340.153ZM349.083 393.5V380.409H351.094V393.5H349.083ZM350.106 378.227C349.714 378.227 349.376 378.094 349.092 377.827C348.813 377.56 348.674 377.239 348.674 376.864C348.674 376.489 348.813 376.168 349.092 375.901C349.376 375.634 349.714 375.5 350.106 375.5C350.498 375.5 350.833 375.634 351.112 375.901C351.396 376.168 351.538 376.489 351.538 376.864C351.538 377.239 351.396 377.56 351.112 377.827C350.833 378.094 350.498 378.227 350.106 378.227ZM354.778 393.5V380.409H356.722V382.455H356.892C357.165 381.756 357.605 381.213 358.213 380.827C358.821 380.435 359.551 380.239 360.403 380.239C361.267 380.239 361.986 380.435 362.56 380.827C363.139 381.213 363.591 381.756 363.915 382.455H364.051C364.386 381.778 364.889 381.241 365.56 380.844C366.23 380.44 367.034 380.239 367.972 380.239C369.142 380.239 370.099 380.605 370.844 381.338C371.588 382.065 371.96 383.199 371.96 384.739V393.5H369.949V384.739C369.949 383.773 369.685 383.082 369.156 382.668C368.628 382.253 368.006 382.045 367.29 382.045C366.369 382.045 365.656 382.324 365.151 382.881C364.645 383.432 364.392 384.131 364.392 384.977V393.5H362.347V384.534C362.347 383.79 362.105 383.19 361.622 382.736C361.139 382.276 360.517 382.045 359.756 382.045C359.233 382.045 358.744 382.185 358.29 382.463C357.841 382.741 357.477 383.128 357.199 383.622C356.926 384.111 356.79 384.676 356.79 385.318V393.5H354.778ZM379.49 393.807C378.661 393.807 377.908 393.651 377.232 393.338C376.555 393.02 376.018 392.562 375.621 391.966C375.223 391.364 375.024 390.636 375.024 389.784C375.024 389.034 375.172 388.426 375.467 387.96C375.763 387.489 376.158 387.119 376.652 386.852C377.146 386.585 377.692 386.386 378.288 386.256C378.891 386.119 379.496 386.011 380.104 385.932C380.899 385.83 381.544 385.753 382.038 385.702C382.538 385.645 382.902 385.551 383.129 385.42C383.362 385.29 383.479 385.062 383.479 384.739V384.67C383.479 383.83 383.249 383.176 382.788 382.71C382.334 382.244 381.643 382.011 380.717 382.011C379.757 382.011 379.004 382.222 378.459 382.642C377.913 383.062 377.53 383.511 377.308 383.989L375.399 383.307C375.74 382.511 376.195 381.892 376.763 381.449C377.337 381 377.962 380.687 378.638 380.511C379.32 380.33 379.99 380.239 380.649 380.239C381.07 380.239 381.553 380.29 382.098 380.392C382.649 380.489 383.18 380.69 383.692 380.997C384.209 381.304 384.638 381.767 384.979 382.386C385.32 383.006 385.49 383.835 385.49 384.875V393.5H383.479V391.727H383.376C383.24 392.011 383.013 392.315 382.695 392.639C382.376 392.963 381.953 393.239 381.425 393.466C380.896 393.693 380.251 393.807 379.49 393.807ZM379.797 392C380.592 392 381.263 391.844 381.808 391.531C382.359 391.219 382.774 390.815 383.053 390.321C383.337 389.827 383.479 389.307 383.479 388.761V386.92C383.393 387.023 383.206 387.116 382.916 387.202C382.632 387.281 382.303 387.352 381.928 387.415C381.558 387.472 381.197 387.523 380.845 387.568C380.499 387.608 380.217 387.642 380.001 387.67C379.479 387.739 378.99 387.849 378.536 388.003C378.087 388.151 377.723 388.375 377.445 388.676C377.172 388.972 377.036 389.375 377.036 389.886C377.036 390.585 377.294 391.114 377.811 391.472C378.334 391.824 378.996 392 379.797 392ZM389.161 393.5V380.409H391.104V382.386H391.241C391.479 381.739 391.911 381.213 392.536 380.81C393.161 380.406 393.866 380.205 394.65 380.205C394.798 380.205 394.982 380.207 395.204 380.213C395.425 380.219 395.593 380.227 395.707 380.239V382.284C395.638 382.267 395.482 382.241 395.238 382.207C394.999 382.168 394.746 382.148 394.479 382.148C393.843 382.148 393.275 382.281 392.775 382.548C392.281 382.81 391.888 383.173 391.599 383.639C391.315 384.099 391.173 384.625 391.173 385.216V393.5H389.161ZM399.785 398.409C399.444 398.409 399.14 398.381 398.873 398.324C398.606 398.273 398.421 398.222 398.319 398.17L398.83 396.398C399.319 396.523 399.751 396.568 400.126 396.534C400.501 396.5 400.833 396.332 401.123 396.031C401.418 395.736 401.688 395.256 401.933 394.591L402.308 393.568L397.467 380.409H399.648L403.262 390.841H403.398L407.012 380.409H409.194L403.637 395.409C403.387 396.085 403.077 396.645 402.708 397.088C402.339 397.537 401.91 397.869 401.421 398.085C400.938 398.301 400.393 398.409 399.785 398.409Z" fill="black" fill-opacity="0.95"/>
<path d="M597.408 50.7464C597.369 50.3454 597.198 50.0339 596.896 49.8118C596.595 49.5897 596.185 49.4787 595.668 49.4787C595.317 49.4787 595.02 49.5284 594.778 49.6278C594.536 49.724 594.351 49.8582 594.222 50.0305C594.096 50.2029 594.033 50.3984 594.033 50.6172C594.026 50.7995 594.064 50.9586 594.147 51.0945C594.233 51.2304 594.351 51.348 594.5 51.4474C594.649 51.5436 594.821 51.6281 595.017 51.701C595.213 51.7706 595.421 51.8303 595.643 51.88L596.558 52.0987C597.002 52.1982 597.41 52.3307 597.781 52.4964C598.152 52.6622 598.474 52.866 598.746 53.108C599.018 53.3499 599.228 53.6349 599.377 53.9631C599.53 54.2912 599.607 54.6674 599.611 55.0916C599.607 55.7147 599.448 56.255 599.134 56.7124C598.822 57.1664 598.371 57.5194 597.781 57.7713C597.195 58.0199 596.487 58.1442 595.658 58.1442C594.836 58.1442 594.121 58.0182 593.511 57.7663C592.904 57.5144 592.43 57.1416 592.089 56.6477C591.751 56.1506 591.573 55.5357 591.557 54.8033H593.64C593.663 55.1446 593.761 55.4297 593.933 55.6584C594.109 55.8838 594.343 56.0545 594.634 56.1705C594.929 56.2831 595.262 56.3395 595.634 56.3395C595.998 56.3395 596.315 56.2865 596.583 56.1804C596.855 56.0743 597.065 55.9268 597.214 55.7379C597.364 55.549 597.438 55.3319 597.438 55.0866C597.438 54.858 597.37 54.6657 597.234 54.5099C597.102 54.3542 596.906 54.2216 596.648 54.1122C596.393 54.0028 596.079 53.9034 595.708 53.8139L594.599 53.5355C593.741 53.3267 593.063 53.0002 592.566 52.5561C592.069 52.112 591.822 51.5137 591.825 50.7614C591.822 50.1449 591.986 49.6063 592.317 49.1456C592.652 48.6849 593.111 48.3253 593.695 48.0668C594.278 47.8082 594.941 47.679 595.683 47.679C596.439 47.679 597.098 47.8082 597.662 48.0668C598.229 48.3253 598.67 48.6849 598.984 49.1456C599.299 49.6063 599.462 50.1399 599.472 50.7464H597.408ZM601.899 58V47.8182H608.76V49.593H604.051V52.0192H608.407V53.794H604.051V56.2251H608.779V58H601.899ZM620.295 51.3828H618.117C618.077 51.1011 617.996 50.8509 617.874 50.6321C617.751 50.41 617.593 50.2211 617.401 50.0653C617.209 49.9096 616.987 49.7902 616.735 49.7074C616.486 49.6245 616.216 49.5831 615.925 49.5831C615.398 49.5831 614.939 49.714 614.548 49.9759C614.156 50.2344 613.853 50.6122 613.638 51.1094C613.422 51.6032 613.315 52.2031 613.315 52.9091C613.315 53.6349 613.422 54.2448 613.638 54.7386C613.856 55.2325 614.161 55.6054 614.553 55.8572C614.944 56.1091 615.396 56.2351 615.91 56.2351C616.198 56.2351 616.465 56.197 616.71 56.1207C616.959 56.0445 617.179 55.9335 617.371 55.7876C617.564 55.6385 617.723 55.4579 617.849 55.2457C617.978 55.0336 618.067 54.7917 618.117 54.5199L620.295 54.5298C620.238 54.9972 620.097 55.4479 619.872 55.8821C619.65 56.313 619.35 56.6991 618.972 57.0405C618.598 57.3786 618.15 57.647 617.63 57.8459C617.113 58.0414 616.528 58.1392 615.875 58.1392C614.967 58.1392 614.155 57.9337 613.439 57.5227C612.726 57.1117 612.163 56.5168 611.749 55.7379C611.338 54.959 611.132 54.0161 611.132 52.9091C611.132 51.7988 611.341 50.8542 611.758 50.0753C612.176 49.2964 612.743 48.7031 613.459 48.2955C614.175 47.8845 614.98 47.679 615.875 47.679C616.465 47.679 617.012 47.7618 617.516 47.9276C618.023 48.0933 618.472 48.3352 618.863 48.6534C619.254 48.9683 619.572 49.3544 619.817 49.8118C620.066 50.2692 620.225 50.7929 620.295 51.3828ZM632.035 52.9091C632.035 54.0194 631.824 54.964 631.404 55.7429C630.986 56.5218 630.416 57.1167 629.693 57.5277C628.974 57.9354 628.165 58.1392 627.267 58.1392C626.362 58.1392 625.55 57.9337 624.831 57.5227C624.112 57.1117 623.543 56.5168 623.126 55.7379C622.708 54.959 622.499 54.0161 622.499 52.9091C622.499 51.7988 622.708 50.8542 623.126 50.0753C623.543 49.2964 624.112 48.7031 624.831 48.2955C625.55 47.8845 626.362 47.679 627.267 47.679C628.165 47.679 628.974 47.8845 629.693 48.2955C630.416 48.7031 630.986 49.2964 631.404 50.0753C631.824 50.8542 632.035 51.7988 632.035 52.9091ZM629.852 52.9091C629.852 52.1899 629.745 51.5833 629.529 51.0895C629.317 50.5956 629.017 50.2211 628.629 49.9659C628.242 49.7107 627.788 49.5831 627.267 49.5831C626.747 49.5831 626.293 49.7107 625.905 49.9659C625.517 50.2211 625.216 50.5956 625 51.0895C624.788 51.5833 624.682 52.1899 624.682 52.9091C624.682 53.6283 624.788 54.2348 625 54.7287C625.216 55.2225 625.517 55.5971 625.905 55.8523C626.293 56.1075 626.747 56.2351 627.267 56.2351C627.788 56.2351 628.242 56.1075 628.629 55.8523C629.017 55.5971 629.317 55.2225 629.529 54.7287C629.745 54.2348 629.852 53.6283 629.852 52.9091ZM642.986 47.8182V58H641.127L636.697 51.5916H636.622V58H634.47V47.8182H636.359L640.754 54.2216H640.843V47.8182H642.986ZM649.214 58H645.604V47.8182H649.244C650.268 47.8182 651.149 48.022 651.889 48.4297C652.628 48.834 653.196 49.4157 653.594 50.1747C653.995 50.9337 654.195 51.8419 654.195 52.8991C654.195 53.9598 653.995 54.8712 653.594 55.6335C653.196 56.3958 652.624 56.9808 651.879 57.3885C651.136 57.7962 650.248 58 649.214 58ZM647.757 56.1555H649.124C649.761 56.1555 650.296 56.0429 650.73 55.8175C651.168 55.5888 651.496 55.2358 651.715 54.7585C651.937 54.2779 652.048 53.6581 652.048 52.8991C652.048 52.1468 651.937 51.532 651.715 51.0547C651.496 50.5774 651.169 50.2261 650.735 50.0007C650.301 49.7753 649.766 49.6626 649.129 49.6626H647.757V56.1555ZM657.811 58H655.504L659.019 47.8182H661.793L665.303 58H662.996L660.446 50.1449H660.366L657.811 58ZM657.667 53.9979H663.115V55.6783H657.667V53.9979ZM667.368 58V47.8182H671.386C672.154 47.8182 672.811 47.9557 673.354 48.2308C673.901 48.5026 674.317 48.8887 674.602 49.3892C674.89 49.8864 675.035 50.4714 675.035 51.1442C675.035 51.8203 674.889 52.402 674.597 52.8892C674.305 53.3731 673.883 53.7443 673.329 54.0028C672.779 54.2614 672.113 54.3906 671.331 54.3906H668.641V52.6605H670.983C671.394 52.6605 671.735 52.6042 672.007 52.4915C672.279 52.3788 672.481 52.2098 672.613 51.9844C672.749 51.759 672.817 51.4789 672.817 51.1442C672.817 50.8061 672.749 50.5211 672.613 50.2891C672.481 50.0571 672.277 49.8814 672.002 49.7621C671.73 49.6394 671.387 49.5781 670.973 49.5781H669.521V58H667.368ZM672.867 53.3665L675.398 58H673.021L670.545 53.3665H672.867ZM676.799 47.8182H679.211L681.532 52.2031H681.632L683.953 47.8182H686.365L682.651 54.4006V58H680.513V54.4006L676.799 47.8182Z" fill="black"/>
<path d="M614.865 148.2V147.2C614.865 142.8 618.465 139.2 622.865 139.2H718.865C723.265 139.2 726.865 142.8 726.865 147.2V159.2C726.865 172.2 718.865 175.2 714.865 171.2C710.865 167.2 712.865 161.2 721.865 158.2L735.265 153.7C739.465 152.3 743.965 154.6 745.365 158.8L772.265 239.6C773.665 243.8 771.365 248.3 767.165 249.7L674.365 280.6C670.165 282 665.665 279.7 664.265 275.5L658.765 259.1M648.865 165.2H666.865M726.865 177.2V243.2C726.865 247.6 723.265 251.2 718.865 251.2H622.865C618.465 251.2 614.865 247.6 614.865 243.2V176.2C614.865 175.7 614.465 175.3 613.965 175.2C608.765 174.7 604.665 170.3 604.865 164.9C605.065 159.8 609.165 155.5 614.365 155.2C617.665 155 620.565 156.4 622.565 158.7L630.065 157.8C631.765 152.7 635.065 149.2 638.965 149.2C644.465 149.2 648.965 156.4 648.965 165.2C648.965 174 644.465 181.2 638.965 181.2C635.065 181.2 631.665 177.3 629.965 172.2L622.965 171.2M634.865 204.3L638.365 200.8C641.465 197.7 646.865 199.9 646.865 204.3C646.865 208.7 652.265 210.9 655.365 207.8L662.365 200.8C665.465 197.7 670.865 199.9 670.865 204.3C670.865 208.7 676.265 210.9 679.365 207.8L686.365 200.8C689.465 197.7 694.865 199.9 694.865 204.3C694.865 208.7 700.265 210.9 703.365 207.8L706.865 204.3M634.865 226.3L638.365 222.8C641.465 219.7 646.865 221.9 646.865 226.3C646.865 230.7 652.265 232.9 655.365 229.8L662.365 222.8C665.465 219.7 670.865 221.9 670.865 226.3C670.865 230.7 676.265 232.9 679.365 229.8L686.365 222.8C689.465 219.7 694.865 221.9 694.865 226.3C694.865 230.7 700.265 232.9 703.365 229.8L706.865 226.3" stroke="url(#paint2_linear_1036_2201)" stroke-width="2.5" stroke-miterlimit="10" stroke-linecap="round" stroke-linejoin="round"/>
<circle cx="24" cy="24" r="24" transform="matrix(-1 0 0 1 647 361)" fill="url(#paint3_linear_1036_2201)"/>
<circle cx="24" cy="24" r="28" transform="matrix(-1 0 0 1 647 361)" stroke="black" stroke-opacity="0.2" stroke-width="8"/>
<path d="M684.227 376.045V393.5H682.114V376.045H684.227ZM690.204 376.045V393.5H688.192V376.045H690.204ZM695.899 376.045V393.5H693.888V376.045H695.899ZM707.833 388.148V380.409H709.844V393.5H707.833V391.284H707.697C707.39 391.949 706.913 392.514 706.265 392.98C705.617 393.44 704.799 393.67 703.81 393.67C702.992 393.67 702.265 393.491 701.629 393.134C700.992 392.77 700.492 392.224 700.129 391.497C699.765 390.764 699.583 389.841 699.583 388.727V380.409H701.594V388.591C701.594 389.545 701.862 390.307 702.396 390.875C702.935 391.443 703.623 391.727 704.458 391.727C704.958 391.727 705.467 391.599 705.984 391.344C706.506 391.088 706.944 390.696 707.296 390.168C707.654 389.639 707.833 388.966 707.833 388.148ZM722.801 383.341L720.994 383.852C720.881 383.551 720.713 383.259 720.491 382.974C720.276 382.685 719.98 382.446 719.605 382.259C719.23 382.071 718.75 381.977 718.165 381.977C717.364 381.977 716.696 382.162 716.162 382.531C715.634 382.895 715.369 383.358 715.369 383.92C715.369 384.42 715.551 384.815 715.915 385.105C716.278 385.395 716.847 385.636 717.619 385.83L719.562 386.307C720.733 386.591 721.605 387.026 722.179 387.611C722.753 388.19 723.04 388.937 723.04 389.852C723.04 390.602 722.824 391.273 722.392 391.864C721.966 392.455 721.369 392.92 720.602 393.261C719.835 393.602 718.943 393.773 717.926 393.773C716.591 393.773 715.486 393.483 714.611 392.903C713.736 392.324 713.182 391.477 712.949 390.364L714.858 389.886C715.04 390.591 715.384 391.119 715.889 391.472C716.401 391.824 717.068 392 717.892 392C718.83 392 719.574 391.801 720.125 391.403C720.682 391 720.96 390.517 720.96 389.955C720.96 389.5 720.801 389.119 720.483 388.812C720.165 388.5 719.676 388.267 719.017 388.114L716.835 387.602C715.636 387.318 714.756 386.878 714.193 386.281C713.636 385.679 713.358 384.926 713.358 384.023C713.358 383.284 713.565 382.631 713.98 382.062C714.401 381.494 714.972 381.048 715.693 380.724C716.42 380.401 717.244 380.239 718.165 380.239C719.46 380.239 720.477 380.523 721.216 381.091C721.96 381.659 722.489 382.409 722.801 383.341ZM731.761 380.409V382.114H724.977V380.409H731.761ZM726.954 377.273H728.965V389.75C728.965 390.318 729.048 390.744 729.212 391.028C729.383 391.307 729.599 391.494 729.86 391.591C730.127 391.682 730.408 391.727 730.704 391.727C730.925 391.727 731.107 391.716 731.249 391.693C731.391 391.665 731.505 391.642 731.59 391.625L731.999 393.432C731.863 393.483 731.673 393.534 731.428 393.585C731.184 393.642 730.874 393.67 730.499 393.67C729.931 393.67 729.374 393.548 728.829 393.304C728.289 393.06 727.84 392.688 727.482 392.188C727.13 391.688 726.954 391.057 726.954 390.295V377.273ZM734.786 393.5V380.409H736.729V382.386H736.866C737.104 381.739 737.536 381.213 738.161 380.81C738.786 380.406 739.491 380.205 740.275 380.205C740.423 380.205 740.607 380.207 740.829 380.213C741.05 380.219 741.218 380.227 741.332 380.239V382.284C741.263 382.267 741.107 382.241 740.863 382.207C740.624 382.168 740.371 382.148 740.104 382.148C739.468 382.148 738.9 382.281 738.4 382.548C737.906 382.81 737.513 383.173 737.224 383.639C736.94 384.099 736.798 384.625 736.798 385.216V393.5H734.786ZM747.568 393.807C746.739 393.807 745.986 393.651 745.31 393.338C744.634 393.02 744.097 392.562 743.699 391.966C743.301 391.364 743.102 390.636 743.102 389.784C743.102 389.034 743.25 388.426 743.545 387.96C743.841 387.489 744.236 387.119 744.73 386.852C745.224 386.585 745.77 386.386 746.366 386.256C746.969 386.119 747.574 386.011 748.182 385.932C748.977 385.83 749.622 385.753 750.116 385.702C750.616 385.645 750.98 385.551 751.207 385.42C751.44 385.29 751.557 385.062 751.557 384.739V384.67C751.557 383.83 751.327 383.176 750.866 382.71C750.412 382.244 749.722 382.011 748.795 382.011C747.835 382.011 747.082 382.222 746.537 382.642C745.991 383.062 745.608 383.511 745.386 383.989L743.477 383.307C743.818 382.511 744.273 381.892 744.841 381.449C745.415 381 746.04 380.687 746.716 380.511C747.398 380.33 748.068 380.239 748.727 380.239C749.148 380.239 749.631 380.29 750.176 380.392C750.727 380.489 751.259 380.69 751.77 380.997C752.287 381.304 752.716 381.767 753.057 382.386C753.398 383.006 753.568 383.835 753.568 384.875V393.5H751.557V391.727H751.455C751.318 392.011 751.091 392.315 750.773 392.639C750.455 392.963 750.031 393.239 749.503 393.466C748.974 393.693 748.33 393.807 747.568 393.807ZM747.875 392C748.67 392 749.341 391.844 749.886 391.531C750.438 391.219 750.852 390.815 751.131 390.321C751.415 389.827 751.557 389.307 751.557 388.761V386.92C751.472 387.023 751.284 387.116 750.994 387.202C750.71 387.281 750.381 387.352 750.006 387.415C749.636 387.472 749.276 387.523 748.923 387.568C748.577 387.608 748.295 387.642 748.08 387.67C747.557 387.739 747.068 387.849 746.614 388.003C746.165 388.151 745.801 388.375 745.523 388.676C745.25 388.972 745.114 389.375 745.114 389.886C745.114 390.585 745.372 391.114 745.889 391.472C746.412 391.824 747.074 392 747.875 392ZM762.933 380.409V382.114H756.148V380.409H762.933ZM758.126 377.273H760.137V389.75C760.137 390.318 760.219 390.744 760.384 391.028C760.555 391.307 760.771 391.494 761.032 391.591C761.299 391.682 761.58 391.727 761.876 391.727C762.097 391.727 762.279 391.716 762.421 391.693C762.563 391.665 762.677 391.642 762.762 391.625L763.171 393.432C763.035 393.483 762.844 393.534 762.6 393.585C762.356 393.642 762.046 393.67 761.671 393.67C761.103 393.67 760.546 393.548 760.001 393.304C759.461 393.06 759.012 392.688 758.654 392.188C758.302 391.688 758.126 391.057 758.126 390.295V377.273ZM765.958 393.5V380.409H767.969V393.5H765.958ZM766.981 378.227C766.589 378.227 766.251 378.094 765.967 377.827C765.688 377.56 765.549 377.239 765.549 376.864C765.549 376.489 765.688 376.168 765.967 375.901C766.251 375.634 766.589 375.5 766.981 375.5C767.373 375.5 767.708 375.634 767.987 375.901C768.271 376.168 768.413 376.489 768.413 376.864C768.413 377.239 768.271 377.56 767.987 377.827C767.708 378.094 767.373 378.227 766.981 378.227ZM776.972 393.773C775.79 393.773 774.753 393.491 773.861 392.929C772.974 392.366 772.281 391.58 771.781 390.568C771.287 389.557 771.04 388.375 771.04 387.023C771.04 385.659 771.287 384.469 771.781 383.452C772.281 382.435 772.974 381.645 773.861 381.082C774.753 380.52 775.79 380.239 776.972 380.239C778.153 380.239 779.188 380.52 780.074 381.082C780.966 381.645 781.659 382.435 782.153 383.452C782.653 384.469 782.903 385.659 782.903 387.023C782.903 388.375 782.653 389.557 782.153 390.568C781.659 391.58 780.966 392.366 780.074 392.929C779.188 393.491 778.153 393.773 776.972 393.773ZM776.972 391.966C777.869 391.966 778.608 391.736 779.188 391.276C779.767 390.815 780.196 390.21 780.474 389.46C780.753 388.71 780.892 387.898 780.892 387.023C780.892 386.148 780.753 385.332 780.474 384.577C780.196 383.821 779.767 383.21 779.188 382.744C778.608 382.278 777.869 382.045 776.972 382.045C776.074 382.045 775.335 382.278 774.756 382.744C774.176 383.21 773.747 383.821 773.469 384.577C773.19 385.332 773.051 386.148 773.051 387.023C773.051 387.898 773.19 388.71 773.469 389.46C773.747 390.21 774.176 390.815 774.756 391.276C775.335 391.736 776.074 391.966 776.972 391.966ZM787.985 385.625V393.5H785.974V380.409H787.917V382.455H788.087C788.394 381.79 788.86 381.256 789.485 380.852C790.11 380.443 790.917 380.239 791.906 380.239C792.792 380.239 793.567 380.42 794.232 380.784C794.897 381.142 795.414 381.688 795.783 382.42C796.153 383.148 796.337 384.068 796.337 385.182V393.5H794.326V385.318C794.326 384.29 794.059 383.489 793.525 382.915C792.991 382.335 792.258 382.045 791.326 382.045C790.684 382.045 790.11 382.185 789.604 382.463C789.104 382.741 788.71 383.148 788.42 383.682C788.13 384.216 787.985 384.864 787.985 385.625ZM800.286 393.5V376.045H810.82V377.92H802.399V383.818H810.274V385.693H802.399V391.625H810.956V393.5H800.286ZM814.357 393.5V380.409H816.3V382.455H816.47C816.743 381.756 817.183 381.213 817.791 380.827C818.399 380.435 819.129 380.239 819.982 380.239C820.845 380.239 821.564 380.435 822.138 380.827C822.717 381.213 823.169 381.756 823.493 382.455H823.629C823.964 381.778 824.467 381.241 825.138 380.844C825.808 380.44 826.612 380.239 827.55 380.239C828.72 380.239 829.678 380.605 830.422 381.338C831.166 382.065 831.538 383.199 831.538 384.739V393.5H829.527V384.739C829.527 383.773 829.263 383.082 828.734 382.668C828.206 382.253 827.584 382.045 826.868 382.045C825.947 382.045 825.234 382.324 824.729 382.881C824.223 383.432 823.97 384.131 823.97 384.977V393.5H821.925V384.534C821.925 383.79 821.683 383.19 821.2 382.736C820.717 382.276 820.095 382.045 819.334 382.045C818.811 382.045 818.322 382.185 817.868 382.463C817.419 382.741 817.055 383.128 816.777 383.622C816.504 384.111 816.368 384.676 816.368 385.318V393.5H814.357ZM835.216 398.409V380.409H837.159V382.489H837.398C837.545 382.261 837.75 381.972 838.011 381.619C838.278 381.261 838.659 380.943 839.153 380.665C839.653 380.381 840.33 380.239 841.182 380.239C842.284 380.239 843.256 380.514 844.097 381.065C844.938 381.616 845.594 382.398 846.065 383.409C846.537 384.42 846.773 385.614 846.773 386.989C846.773 388.375 846.537 389.577 846.065 390.594C845.594 391.605 844.94 392.389 844.105 392.946C843.27 393.497 842.307 393.773 841.216 393.773C840.375 393.773 839.702 393.634 839.196 393.355C838.69 393.071 838.301 392.75 838.028 392.392C837.756 392.028 837.545 391.727 837.398 391.489H837.227V398.409H835.216ZM837.193 386.955C837.193 387.943 837.338 388.815 837.628 389.571C837.918 390.321 838.341 390.909 838.898 391.335C839.455 391.756 840.136 391.966 840.943 391.966C841.784 391.966 842.486 391.744 843.048 391.301C843.616 390.852 844.043 390.25 844.327 389.494C844.616 388.733 844.761 387.886 844.761 386.955C844.761 386.034 844.619 385.205 844.335 384.466C844.057 383.722 843.634 383.134 843.065 382.702C842.503 382.264 841.795 382.045 840.943 382.045C840.125 382.045 839.438 382.253 838.881 382.668C838.324 383.077 837.903 383.651 837.619 384.389C837.335 385.122 837.193 385.977 837.193 386.955ZM855.534 380.409V382.114H848.75V380.409H855.534ZM850.727 377.273H852.739V389.75C852.739 390.318 852.821 390.744 852.986 391.028C853.156 391.307 853.372 391.494 853.634 391.591C853.901 391.682 854.182 391.727 854.477 391.727C854.699 391.727 854.881 391.716 855.023 391.693C855.165 391.665 855.278 391.642 855.364 391.625L855.773 393.432C855.636 393.483 855.446 393.534 855.202 393.585C854.957 393.642 854.648 393.67 854.273 393.67C853.705 393.67 853.148 393.548 852.602 393.304C852.063 393.06 851.614 392.688 851.256 392.188C850.903 391.688 850.727 391.057 850.727 390.295V377.273ZM859.855 398.375C859.514 398.375 859.21 398.347 858.943 398.29C858.676 398.239 858.491 398.188 858.389 398.136L858.901 396.364C859.634 396.551 860.244 396.545 860.733 396.347C861.222 396.153 861.645 395.568 862.003 394.591L862.378 393.568L857.537 380.409H859.719L863.332 390.841H863.469L867.082 380.409L869.281 380.443L863.707 395.409C863.457 396.074 863.148 396.625 862.778 397.062C862.409 397.506 861.98 397.835 861.491 398.051C861.009 398.267 860.463 398.375 859.855 398.375ZM881.761 380.409C881.658 379.545 881.244 378.875 880.516 378.398C879.789 377.92 878.897 377.682 877.84 377.682C877.067 377.682 876.391 377.807 875.812 378.057C875.238 378.307 874.789 378.651 874.465 379.088C874.147 379.526 873.988 380.023 873.988 380.58C873.988 381.045 874.099 381.446 874.32 381.781C874.548 382.111 874.837 382.386 875.19 382.608C875.542 382.824 875.911 383.003 876.298 383.145C876.684 383.281 877.039 383.392 877.363 383.477L879.136 383.955C879.59 384.074 880.096 384.239 880.653 384.449C881.215 384.659 881.752 384.946 882.263 385.31C882.781 385.668 883.207 386.128 883.542 386.69C883.877 387.253 884.045 387.943 884.045 388.761C884.045 389.705 883.798 390.557 883.303 391.318C882.815 392.08 882.099 392.685 881.156 393.134C880.218 393.582 879.079 393.807 877.738 393.807C876.488 393.807 875.406 393.605 874.491 393.202C873.582 392.798 872.866 392.236 872.343 391.514C871.826 390.793 871.533 389.955 871.465 389H873.647C873.704 389.659 873.925 390.205 874.312 390.636C874.704 391.062 875.198 391.381 875.795 391.591C876.397 391.795 877.045 391.898 877.738 391.898C878.545 391.898 879.269 391.767 879.911 391.506C880.553 391.239 881.062 390.869 881.437 390.398C881.812 389.92 881.999 389.364 881.999 388.727C881.999 388.148 881.837 387.676 881.513 387.312C881.19 386.949 880.763 386.653 880.235 386.426C879.707 386.199 879.136 386 878.522 385.83L876.374 385.216C875.011 384.824 873.931 384.264 873.136 383.537C872.34 382.81 871.942 381.858 871.942 380.682C871.942 379.705 872.207 378.852 872.735 378.125C873.269 377.392 873.985 376.824 874.883 376.42C875.786 376.011 876.795 375.807 877.908 375.807C879.033 375.807 880.033 376.009 880.908 376.412C881.783 376.81 882.477 377.355 882.988 378.048C883.505 378.741 883.778 379.528 883.806 380.409H881.761ZM892.736 393.773C891.474 393.773 890.386 393.494 889.472 392.938C888.562 392.375 887.861 391.591 887.366 390.585C886.878 389.574 886.634 388.398 886.634 387.057C886.634 385.716 886.878 384.534 887.366 383.511C887.861 382.483 888.548 381.682 889.429 381.108C890.315 380.528 891.349 380.239 892.531 380.239C893.213 380.239 893.886 380.352 894.551 380.58C895.216 380.807 895.821 381.176 896.366 381.688C896.912 382.193 897.347 382.864 897.67 383.699C897.994 384.534 898.156 385.562 898.156 386.784V387.636H888.065V385.898H896.111C896.111 385.159 895.963 384.5 895.668 383.92C895.378 383.341 894.963 382.884 894.423 382.548C893.889 382.213 893.259 382.045 892.531 382.045C891.73 382.045 891.037 382.244 890.452 382.642C889.872 383.034 889.426 383.545 889.114 384.176C888.801 384.807 888.645 385.483 888.645 386.205V387.364C888.645 388.352 888.815 389.19 889.156 389.878C889.503 390.56 889.983 391.08 890.597 391.438C891.21 391.79 891.923 391.966 892.736 391.966C893.264 391.966 893.741 391.892 894.168 391.744C894.599 391.591 894.972 391.364 895.284 391.062C895.597 390.756 895.838 390.375 896.009 389.92L897.952 390.466C897.747 391.125 897.403 391.705 896.92 392.205C896.438 392.699 895.841 393.085 895.131 393.364C894.42 393.636 893.622 393.773 892.736 393.773ZM906.534 393.773C905.307 393.773 904.25 393.483 903.364 392.903C902.477 392.324 901.795 391.526 901.318 390.509C900.841 389.491 900.602 388.33 900.602 387.023C900.602 385.693 900.847 384.52 901.335 383.503C901.83 382.48 902.517 381.682 903.398 381.108C904.284 380.528 905.318 380.239 906.5 380.239C907.42 380.239 908.25 380.409 908.989 380.75C909.727 381.091 910.332 381.568 910.804 382.182C911.276 382.795 911.568 383.511 911.682 384.33H909.67C909.517 383.733 909.176 383.205 908.648 382.744C908.125 382.278 907.42 382.045 906.534 382.045C905.75 382.045 905.063 382.25 904.472 382.659C903.886 383.062 903.429 383.634 903.099 384.372C902.776 385.105 902.614 385.966 902.614 386.955C902.614 387.966 902.773 388.847 903.091 389.597C903.415 390.347 903.869 390.929 904.455 391.344C905.045 391.759 905.739 391.966 906.534 391.966C907.057 391.966 907.531 391.875 907.957 391.693C908.384 391.511 908.744 391.25 909.04 390.909C909.335 390.568 909.545 390.159 909.67 389.682H911.682C911.568 390.455 911.287 391.151 910.838 391.77C910.395 392.384 909.807 392.872 909.074 393.236C908.347 393.594 907.5 393.773 906.534 393.773ZM919.94 393.773C918.759 393.773 917.722 393.491 916.83 392.929C915.943 392.366 915.25 391.58 914.75 390.568C914.256 389.557 914.009 388.375 914.009 387.023C914.009 385.659 914.256 384.469 914.75 383.452C915.25 382.435 915.943 381.645 916.83 381.082C917.722 380.52 918.759 380.239 919.94 380.239C921.122 380.239 922.156 380.52 923.043 381.082C923.935 381.645 924.628 382.435 925.122 383.452C925.622 384.469 925.872 385.659 925.872 387.023C925.872 388.375 925.622 389.557 925.122 390.568C924.628 391.58 923.935 392.366 923.043 392.929C922.156 393.491 921.122 393.773 919.94 393.773ZM919.94 391.966C920.838 391.966 921.577 391.736 922.156 391.276C922.736 390.815 923.165 390.21 923.443 389.46C923.722 388.71 923.861 387.898 923.861 387.023C923.861 386.148 923.722 385.332 923.443 384.577C923.165 383.821 922.736 383.21 922.156 382.744C921.577 382.278 920.838 382.045 919.94 382.045C919.043 382.045 918.304 382.278 917.724 382.744C917.145 383.21 916.716 383.821 916.438 384.577C916.159 385.332 916.02 386.148 916.02 387.023C916.02 387.898 916.159 388.71 916.438 389.46C916.716 390.21 917.145 390.815 917.724 391.276C918.304 391.736 919.043 391.966 919.94 391.966ZM930.954 385.625V393.5H928.942V380.409H930.886V382.455H931.056C931.363 381.79 931.829 381.256 932.454 380.852C933.079 380.443 933.886 380.239 934.874 380.239C935.761 380.239 936.536 380.42 937.201 380.784C937.866 381.142 938.383 381.688 938.752 382.42C939.121 383.148 939.306 384.068 939.306 385.182V393.5H937.295V385.318C937.295 384.29 937.028 383.489 936.494 382.915C935.96 382.335 935.227 382.045 934.295 382.045C933.653 382.045 933.079 382.185 932.573 382.463C932.073 382.741 931.678 383.148 931.388 383.682C931.099 384.216 930.954 384.864 930.954 385.625ZM947.925 393.773C946.834 393.773 945.871 393.497 945.036 392.946C944.2 392.389 943.547 391.605 943.075 390.594C942.604 389.577 942.368 388.375 942.368 386.989C942.368 385.614 942.604 384.42 943.075 383.409C943.547 382.398 944.203 381.616 945.044 381.065C945.885 380.514 946.857 380.239 947.959 380.239C948.811 380.239 949.484 380.381 949.979 380.665C950.479 380.943 950.859 381.261 951.121 381.619C951.388 381.972 951.595 382.261 951.743 382.489H951.913V376.045H953.925V393.5H951.982V391.489H951.743C951.595 391.727 951.385 392.028 951.112 392.392C950.839 392.75 950.45 393.071 949.945 393.355C949.439 393.634 948.766 393.773 947.925 393.773ZM948.197 391.966C949.004 391.966 949.686 391.756 950.243 391.335C950.8 390.909 951.223 390.321 951.513 389.571C951.803 388.815 951.947 387.943 951.947 386.955C951.947 385.977 951.805 385.122 951.521 384.389C951.237 383.651 950.817 383.077 950.26 382.668C949.703 382.253 949.016 382.045 948.197 382.045C947.345 382.045 946.635 382.264 946.067 382.702C945.504 383.134 945.081 383.722 944.797 384.466C944.518 385.205 944.379 386.034 944.379 386.955C944.379 387.886 944.521 388.733 944.805 389.494C945.095 390.25 945.521 390.852 946.084 391.301C946.652 391.744 947.357 391.966 948.197 391.966ZM961.74 393.807C960.911 393.807 960.158 393.651 959.482 393.338C958.805 393.02 958.268 392.562 957.871 391.966C957.473 391.364 957.274 390.636 957.274 389.784C957.274 389.034 957.422 388.426 957.717 387.96C958.013 387.489 958.408 387.119 958.902 386.852C959.396 386.585 959.942 386.386 960.538 386.256C961.141 386.119 961.746 386.011 962.354 385.932C963.149 385.83 963.794 385.753 964.288 385.702C964.788 385.645 965.152 385.551 965.379 385.42C965.612 385.29 965.729 385.062 965.729 384.739V384.67C965.729 383.83 965.499 383.176 965.038 382.71C964.584 382.244 963.893 382.011 962.967 382.011C962.007 382.011 961.254 382.222 960.709 382.642C960.163 383.062 959.78 383.511 959.558 383.989L957.649 383.307C957.99 382.511 958.445 381.892 959.013 381.449C959.587 381 960.212 380.687 960.888 380.511C961.57 380.33 962.24 380.239 962.899 380.239C963.32 380.239 963.803 380.29 964.348 380.392C964.899 380.489 965.43 380.69 965.942 380.997C966.459 381.304 966.888 381.767 967.229 382.386C967.57 383.006 967.74 383.835 967.74 384.875V393.5H965.729V391.727H965.626C965.49 392.011 965.263 392.315 964.945 392.639C964.626 392.963 964.203 393.239 963.675 393.466C963.146 393.693 962.501 393.807 961.74 393.807ZM962.047 392C962.842 392 963.513 391.844 964.058 391.531C964.609 391.219 965.024 390.815 965.303 390.321C965.587 389.827 965.729 389.307 965.729 388.761V386.92C965.643 387.023 965.456 387.116 965.166 387.202C964.882 387.281 964.553 387.352 964.178 387.415C963.808 387.472 963.447 387.523 963.095 387.568C962.749 387.608 962.467 387.642 962.251 387.67C961.729 387.739 961.24 387.849 960.786 388.003C960.337 388.151 959.973 388.375 959.695 388.676C959.422 388.972 959.286 389.375 959.286 389.886C959.286 390.585 959.544 391.114 960.061 391.472C960.584 391.824 961.246 392 962.047 392ZM971.411 393.5V380.409H973.354V382.386H973.491C973.729 381.739 974.161 381.213 974.786 380.81C975.411 380.406 976.116 380.205 976.9 380.205C977.048 380.205 977.232 380.207 977.454 380.213C977.675 380.219 977.843 380.227 977.957 380.239V382.284C977.888 382.267 977.732 382.241 977.488 382.207C977.249 382.168 976.996 382.148 976.729 382.148C976.093 382.148 975.525 382.281 975.025 382.548C974.531 382.81 974.138 383.173 973.849 383.639C973.565 384.099 973.423 384.625 973.423 385.216V393.5H971.411ZM982.035 398.375C981.694 398.375 981.39 398.347 981.123 398.29C980.856 398.239 980.671 398.188 980.569 398.136L981.08 396.364C981.813 396.551 982.424 396.545 982.913 396.347C983.401 396.153 983.825 395.568 984.183 394.591L984.558 393.568L979.717 380.409H981.898L985.512 390.841H985.648L989.262 380.409L991.461 380.443L985.887 395.409C985.637 396.074 985.327 396.625 984.958 397.062C984.589 397.506 984.16 397.835 983.671 398.051C983.188 398.267 982.643 398.375 982.035 398.375Z" fill="black" fill-opacity="0.95"/>
<defs>
<linearGradient id="paint0_linear_1036_2201" x1="141.767" y1="139.2" x2="141.767" y2="281.01" gradientUnits="userSpaceOnUse">
<stop stop-color="#93C437"/>
<stop offset="1" stop-color="#279BE8"/>
</linearGradient>
<linearGradient id="paint1_linear_1036_2201" x1="24" y1="0" x2="24" y2="48" gradientUnits="userSpaceOnUse">
<stop stop-color="#93C437"/>
<stop offset="1" stop-color="#279BE8"/>
</linearGradient>
<linearGradient id="paint2_linear_1036_2201" x1="688.767" y1="139.2" x2="688.767" y2="281.01" gradientUnits="userSpaceOnUse">
<stop stop-color="#279BE8"/>
<stop offset="1" stop-color="#875AE0"/>
</linearGradient>
<linearGradient id="paint3_linear_1036_2201" x1="24" y1="0" x2="24" y2="48" gradientUnits="userSpaceOnUse">
<stop stop-color="#279BE8"/>
<stop offset="1" stop-color="#875AE0"/>
</linearGradient>
</defs>
</svg>
