<svg width="559" height="378" viewBox="0 0 559 378" fill="none" xmlns="http://www.w3.org/2000/svg">
<rect width="559" height="378" rx="16" fill="#1A1A1A"/>
<path d="M167.2 289.96H169.3C169.54 291.58 170.86 292.62 173 292.62C175.4 292.62 176.62 291.46 176.62 290.1C176.62 288.76 175.96 288.14 172.08 287.08C168.74 286.16 167.7 284.98 167.7 283C167.7 280.9 169.56 279.3 172.86 279.3C175.94 279.3 178.2 280.76 178.56 283.2H176.46C176.24 281.8 175.02 280.98 172.86 280.98C170.66 280.98 169.74 281.84 169.74 282.92C169.74 284.04 170.22 284.58 173.52 285.5C177.52 286.62 178.66 287.8 178.66 290.02C178.66 292.26 176.62 294.3 173.04 294.3C169.94 294.3 167.6 292.6 167.2 289.96Z" fill="white" fill-opacity="0.95"/>
<path d="M276.34 291H274.42L269.98 279.72V291H268V276.6H270.84L275.42 288.6L279.74 276.6H282.42V291H280.5V279.82L276.34 291Z" fill="white" fill-opacity="0.95"/>
<path d="M365 276.6H367.06V289.18H373.84V291H365V276.6Z" fill="white" fill-opacity="0.95"/>
<rect x="151" y="221.5" width="96" height="96" stroke="white" stroke-opacity="0.95"/>
<rect x="151" y="159.5" width="158" height="158" stroke="white" stroke-opacity="0.95"/>
<rect x="151" y="60.5" width="257" height="257" stroke="white" stroke-opacity="0.95"/>
<path d="M293.045 178.854C293.045 178.578 292.822 178.354 292.545 178.354L288.045 178.354C287.769 178.354 287.545 178.578 287.545 178.854C287.545 179.13 287.769 179.354 288.045 179.354L292.045 179.354L292.045 183.354C292.045 183.63 292.269 183.854 292.545 183.854C292.822 183.854 293.045 183.63 293.045 183.354L293.045 178.854ZM276.955 195.151L292.899 179.208L292.192 178.5L276.248 194.444L276.955 195.151Z" fill="white" fill-opacity="0.95"/>
<path d="M261.607 209.292C261.607 209.568 261.831 209.792 262.107 209.792L266.607 209.792C266.883 209.792 267.107 209.568 267.107 209.292C267.107 209.016 266.883 208.792 266.607 208.792L262.607 208.792L262.607 204.792C262.607 204.516 262.383 204.292 262.107 204.292C261.831 204.292 261.607 204.516 261.607 204.792L261.607 209.292ZM276.248 194.444L261.754 208.939L262.461 209.646L276.955 195.151L276.248 194.444Z" fill="white" fill-opacity="0.95"/>
<path d="M394.506 75.9438C394.506 75.6677 394.282 75.4438 394.006 75.4438L389.506 75.4438C389.23 75.4438 389.006 75.6677 389.006 75.9438C389.006 76.22 389.23 76.4438 389.506 76.4438L393.506 76.4438L393.506 80.4438C393.506 80.72 393.73 80.9438 394.006 80.9438C394.282 80.9438 394.506 80.72 394.506 80.4438L394.506 75.9438ZM355.639 115.018L394.359 76.2974L393.652 75.5903L354.932 114.311L355.639 115.018Z" fill="white" fill-opacity="0.95"/>
<path d="M319.585 149.865C319.585 150.141 319.808 150.365 320.085 150.365L324.585 150.365C324.861 150.365 325.085 150.141 325.085 149.865C325.085 149.589 324.861 149.365 324.585 149.365L320.585 149.365L320.585 145.365C320.585 145.089 320.361 144.865 320.085 144.865C319.808 144.865 319.585 145.089 319.585 145.365L319.585 149.865ZM354.932 114.311L319.731 149.512L320.438 150.219L355.639 115.018L354.932 114.311Z" fill="white" fill-opacity="0.95"/>
</svg>
