<svg width="559" height="290" viewBox="0 0 559 290" fill="none" xmlns="http://www.w3.org/2000/svg">
<rect width="559" height="290" rx="16" fill="#1A1A1A"/>
<rect x="111.77" y="79.5188" width="335.46" height="130.962" stroke="black" stroke-width="0.700334"/>
<g filter="url(#filter0_dd_1118_15458)">
<rect x="111.42" y="79.1686" width="336.16" height="131.663" fill="black"/>
<rect x="111.07" y="78.8185" width="336.861" height="132.363" stroke="white" stroke-opacity="0.2" stroke-width="0.700334"/>
</g>
<path d="M380.908 89.4678V90.1686H373.907V89.4678H380.908Z" fill="white" fill-opacity="0.95"/>
<path d="M408.913 86.668V93.6692H401.912V86.668H408.913ZM408.212 87.3688H402.613V92.9684H408.212V87.3688Z" fill="white" fill-opacity="0.95"/>
<path d="M433.913 90.1686L436.918 93.1736L436.422 93.6692L433.417 90.6643L430.413 93.6692L429.917 93.1736L432.922 90.1686L429.917 87.1637L430.413 86.668L433.417 89.6729L436.422 86.668L436.918 87.1637L433.913 90.1686Z" fill="white" fill-opacity="0.95"/>
<path d="M152.321 149.902L148.265 156.001C148.002 156.38 148.294 156.905 148.761 156.905H152.175C152.379 156.905 152.525 157.139 152.438 157.314L150.103 162.421C149.957 162.712 150.337 162.975 150.57 162.742L157.778 155.534C158.157 155.155 157.894 154.542 157.369 154.542H155.239C155.006 154.542 154.86 154.279 155.006 154.075L157.194 150.865C157.632 150.223 158.361 149.844 159.12 149.844H169.041C173.185 149.844 176.657 146.605 176.774 142.461C176.891 138.172 173.448 134.67 169.187 134.67C168.574 134.67 167.962 134.757 167.407 134.874C166.911 127.579 160.842 121.83 153.43 121.83C146.864 121.889 141.378 126.383 139.832 132.481C139.511 132.452 139.16 132.423 138.81 132.423C133.908 132.423 129.91 136.479 130.056 141.411C130.173 146.167 134.229 149.931 138.985 149.931H141.728M167.378 134.962C163.614 136.216 161.571 139.426 163.03 140.885C164.197 142.023 167.407 139.981 167.378 134.962Z" stroke="url(#paint0_linear_1118_15458)" stroke-width="1.75083" stroke-miterlimit="10" stroke-linecap="round" stroke-linejoin="round"/>
<path d="M201.982 125.506C201.409 125.783 200.661 125.922 199.739 125.922C198.535 125.922 197.588 125.568 196.899 124.86C196.209 124.153 195.865 123.21 195.865 122.032C195.865 120.777 196.251 119.759 197.025 118.979C197.802 118.198 198.808 117.808 200.045 117.808C200.811 117.808 201.457 117.904 201.982 118.098V119.799C201.457 119.486 200.858 119.329 200.187 119.329C199.45 119.329 198.856 119.56 198.403 120.024C197.951 120.487 197.725 121.114 197.725 121.906C197.725 122.664 197.938 123.27 198.365 123.722C198.792 124.171 199.366 124.395 200.089 124.395C200.778 124.395 201.409 124.227 201.982 123.892V125.506ZM207.842 125.785H206.206V124.981H206.184C205.808 125.608 205.252 125.922 204.515 125.922C203.972 125.922 203.543 125.768 203.229 125.462C202.919 125.152 202.764 124.74 202.764 124.226C202.764 123.139 203.408 122.511 204.696 122.343L206.217 122.141C206.217 121.528 205.885 121.222 205.221 121.222C204.553 121.222 203.919 121.421 203.317 121.818V120.516C203.558 120.392 203.886 120.283 204.302 120.188C204.721 120.093 205.102 120.045 205.445 120.045C207.043 120.045 207.842 120.842 207.842 122.436V125.785ZM206.217 123.509V123.131L205.199 123.263C204.637 123.336 204.356 123.589 204.356 124.023C204.356 124.22 204.424 124.382 204.559 124.51C204.697 124.634 204.883 124.696 205.117 124.696C205.441 124.696 205.706 124.585 205.91 124.362C206.114 124.136 206.217 123.852 206.217 123.509ZM214.621 125.785H212.897V122.672C212.897 121.804 212.587 121.37 211.967 121.37C211.668 121.37 211.422 121.484 211.228 121.714C211.035 121.944 210.938 122.236 210.938 122.59V125.785H209.209V120.182H210.938V121.069H210.96C211.372 120.387 211.972 120.045 212.76 120.045C214.001 120.045 214.621 120.815 214.621 122.354V125.785ZM218.002 117.753L216.946 120.182H215.884L216.508 117.753H218.002ZM222.631 125.719C222.375 125.854 221.991 125.922 221.476 125.922C220.258 125.922 219.649 125.289 219.649 124.023V121.457H218.741V120.182H219.649V118.973L221.372 118.481V120.182H222.631V121.457H221.372V123.722C221.372 124.306 221.604 124.598 222.067 124.598C222.249 124.598 222.437 124.545 222.631 124.439V125.719ZM230.953 125.582C230.562 125.809 229.999 125.922 229.262 125.922C228.401 125.922 227.704 125.661 227.172 125.139C226.639 124.618 226.373 123.945 226.373 123.12C226.373 122.168 226.658 121.419 227.227 120.872C227.799 120.321 228.563 120.045 229.519 120.045C230.179 120.045 230.657 120.133 230.953 120.308V121.774C230.591 121.504 230.188 121.37 229.743 121.37C229.247 121.37 228.853 121.515 228.562 121.807C228.273 122.095 228.129 122.495 228.129 123.005C228.129 123.502 228.268 123.892 228.545 124.176C228.822 124.457 229.204 124.598 229.689 124.598C230.119 124.598 230.54 124.463 230.953 124.193V125.582ZM234.761 125.922C233.827 125.922 233.092 125.661 232.556 125.139C232.023 124.614 231.757 123.903 231.757 123.005C231.757 122.079 232.034 121.355 232.589 120.833C233.143 120.308 233.893 120.045 234.837 120.045C235.767 120.045 236.497 120.308 237.026 120.833C237.555 121.355 237.819 122.046 237.819 122.907C237.819 123.837 237.546 124.572 236.998 125.112C236.455 125.652 235.709 125.922 234.761 125.922ZM234.804 121.37C234.396 121.37 234.079 121.51 233.852 121.791C233.626 122.072 233.513 122.469 233.513 122.984C233.513 124.06 233.947 124.598 234.815 124.598C235.643 124.598 236.057 124.045 236.057 122.94C236.057 121.893 235.64 121.37 234.804 121.37ZM244.352 125.785H242.628V122.672C242.628 121.804 242.318 121.37 241.698 121.37C241.399 121.37 241.153 121.484 240.96 121.714C240.766 121.944 240.67 122.236 240.67 122.59V125.785H238.941V120.182H240.67V121.069H240.692C241.104 120.387 241.704 120.045 242.492 120.045C243.732 120.045 244.352 120.815 244.352 122.354V125.785ZM251.136 125.785H249.413V122.672C249.413 121.804 249.103 121.37 248.483 121.37C248.184 121.37 247.938 121.484 247.744 121.714C247.551 121.944 247.454 122.236 247.454 122.59V125.785H245.725V120.182H247.454V121.069H247.476C247.888 120.387 248.488 120.045 249.276 120.045C250.516 120.045 251.136 120.815 251.136 122.354V125.785ZM257.543 123.476H253.889C253.947 124.289 254.459 124.696 255.426 124.696C256.042 124.696 256.584 124.55 257.051 124.258V125.506C256.533 125.783 255.86 125.922 255.032 125.922C254.127 125.922 253.425 125.672 252.926 125.172C252.426 124.669 252.176 123.968 252.176 123.071C252.176 122.141 252.446 121.404 252.986 120.861C253.526 120.317 254.189 120.045 254.977 120.045C255.794 120.045 256.425 120.288 256.87 120.773C257.319 121.258 257.543 121.917 257.543 122.748V123.476ZM255.94 122.415C255.94 121.612 255.616 121.211 254.966 121.211C254.689 121.211 254.448 121.326 254.244 121.556C254.044 121.785 253.921 122.072 253.878 122.415H255.94ZM262.818 125.582C262.427 125.809 261.864 125.922 261.127 125.922C260.266 125.922 259.57 125.661 259.037 125.139C258.505 124.618 258.238 123.945 258.238 123.12C258.238 122.168 258.523 121.419 259.092 120.872C259.664 120.321 260.429 120.045 261.384 120.045C262.044 120.045 262.522 120.133 262.818 120.308V121.774C262.457 121.504 262.054 121.37 261.609 121.37C261.113 121.37 260.719 121.515 260.427 121.807C260.139 122.095 259.995 122.495 259.995 123.005C259.995 123.502 260.133 123.892 260.41 124.176C260.688 124.457 261.069 124.598 261.554 124.598C261.984 124.598 262.406 124.463 262.818 124.193V125.582ZM267.343 125.719C267.087 125.854 266.702 125.922 266.188 125.922C264.97 125.922 264.361 125.289 264.361 124.023V121.457H263.452V120.182H264.361V118.973L266.084 118.481V120.182H267.343V121.457H266.084V123.722C266.084 124.306 266.316 124.598 266.779 124.598C266.961 124.598 267.149 124.545 267.343 124.439V125.719ZM275.665 125.582C275.274 125.809 274.711 125.922 273.974 125.922C273.113 125.922 272.416 125.661 271.884 125.139C271.351 124.618 271.085 123.945 271.085 123.12C271.085 122.168 271.37 121.419 271.939 120.872C272.511 120.321 273.275 120.045 274.231 120.045C274.891 120.045 275.369 120.133 275.665 120.308V121.774C275.303 121.504 274.9 121.37 274.455 121.37C273.959 121.37 273.565 121.515 273.274 121.807C272.985 122.095 272.841 122.495 272.841 123.005C272.841 123.502 272.98 123.892 273.257 124.176C273.534 124.457 273.916 124.598 274.401 124.598C274.831 124.598 275.252 124.463 275.665 124.193V125.582ZM281.464 125.785H279.828V124.981H279.806C279.431 125.608 278.874 125.922 278.138 125.922C277.594 125.922 277.165 125.768 276.852 125.462C276.542 125.152 276.387 124.74 276.387 124.226C276.387 123.139 277.031 122.511 278.318 122.343L279.839 122.141C279.839 121.528 279.507 121.222 278.843 121.222C278.176 121.222 277.541 121.421 276.939 121.818V120.516C277.18 120.392 277.508 120.283 277.924 120.188C278.344 120.093 278.725 120.045 279.068 120.045C280.665 120.045 281.464 120.842 281.464 122.436V125.785ZM279.839 123.509V123.131L278.821 123.263C278.26 123.336 277.979 123.589 277.979 124.023C277.979 124.22 278.046 124.382 278.181 124.51C278.32 124.634 278.506 124.696 278.739 124.696C279.064 124.696 279.329 124.585 279.533 124.362C279.737 124.136 279.839 123.852 279.839 123.509ZM284.561 125.785H282.832V117.49H284.561V125.785ZM291.05 123.476H287.395C287.453 124.289 287.966 124.696 288.933 124.696C289.549 124.696 290.091 124.55 290.558 124.258V125.506C290.04 125.783 289.367 125.922 288.539 125.922C287.634 125.922 286.932 125.672 286.432 125.172C285.932 124.669 285.683 123.968 285.683 123.071C285.683 122.141 285.953 121.404 286.492 120.861C287.032 120.317 287.696 120.045 288.484 120.045C289.301 120.045 289.932 120.288 290.377 120.773C290.826 121.258 291.05 121.917 291.05 122.748V123.476ZM289.447 122.415C289.447 121.612 289.122 121.211 288.473 121.211C288.196 121.211 287.955 121.326 287.751 121.556C287.55 121.785 287.428 122.072 287.384 122.415H289.447ZM297.49 125.785H295.766V122.672C295.766 121.804 295.456 121.37 294.836 121.37C294.537 121.37 294.291 121.484 294.098 121.714C293.904 121.944 293.808 122.236 293.808 122.59V125.785H292.079V120.182H293.808V121.069H293.829C294.242 120.387 294.842 120.045 295.63 120.045C296.87 120.045 297.49 120.815 297.49 122.354V125.785ZM304.345 125.785H302.616V125.013H302.595C302.201 125.619 301.622 125.922 300.86 125.922C300.16 125.922 299.596 125.675 299.169 125.183C298.743 124.687 298.529 123.996 298.529 123.109C298.529 122.183 298.765 121.441 299.235 120.883C299.706 120.324 300.322 120.045 301.084 120.045C301.807 120.045 302.31 120.304 302.595 120.822H302.616V117.49H304.345V125.785ZM302.649 123.06V122.639C302.649 122.274 302.543 121.971 302.332 121.731C302.12 121.49 301.845 121.37 301.506 121.37C301.123 121.37 300.824 121.521 300.608 121.824C300.393 122.123 300.286 122.535 300.286 123.06C300.286 123.553 300.39 123.932 300.598 124.198C300.805 124.464 301.094 124.598 301.462 124.598C301.812 124.598 302.097 124.457 302.316 124.176C302.538 123.895 302.649 123.523 302.649 123.06ZM310.462 125.785H308.826V124.981H308.805C308.429 125.608 307.873 125.922 307.136 125.922C306.592 125.922 306.164 125.768 305.85 125.462C305.54 125.152 305.385 124.74 305.385 124.226C305.385 123.139 306.029 122.511 307.316 122.343L308.837 122.141C308.837 121.528 308.505 121.222 307.842 121.222C307.174 121.222 306.539 121.421 305.938 121.818V120.516C306.178 120.392 306.507 120.283 306.922 120.188C307.342 120.093 307.723 120.045 308.066 120.045C309.664 120.045 310.462 120.842 310.462 122.436V125.785ZM308.837 123.509V123.131L307.82 123.263C307.258 123.336 306.977 123.589 306.977 124.023C306.977 124.22 307.045 124.382 307.18 124.51C307.318 124.634 307.504 124.696 307.738 124.696C308.062 124.696 308.327 124.585 308.531 124.362C308.735 124.136 308.837 123.852 308.837 123.509ZM315.485 121.742C315.277 121.629 315.035 121.572 314.757 121.572C314.382 121.572 314.088 121.711 313.876 121.988C313.665 122.261 313.559 122.635 313.559 123.109V125.785H311.83V120.182H313.559V121.222H313.581C313.855 120.463 314.347 120.084 315.058 120.084C315.241 120.084 315.383 120.106 315.485 120.149V121.742Z" fill="white" fill-opacity="0.95"/>
<path d="M196.039 144.309V143.361C196.243 143.546 196.5 143.696 196.81 143.811C197.123 143.922 197.418 143.978 197.696 143.978C198.58 143.978 199.022 143.635 199.022 142.949C199.022 142.684 198.932 142.446 198.754 142.236C198.578 142.022 198.186 141.743 197.576 141.398C197.03 141.088 196.639 140.787 196.403 140.493C196.167 140.199 196.049 139.848 196.049 139.44C196.049 138.904 196.248 138.465 196.647 138.123C197.046 137.779 197.573 137.606 198.227 137.606C198.843 137.606 199.293 137.688 199.577 137.85V138.755C199.213 138.474 198.75 138.334 198.189 138.334C197.79 138.334 197.474 138.43 197.241 138.621C197.008 138.813 196.891 139.062 196.891 139.368C196.891 139.62 196.96 139.848 197.097 140.053C197.238 140.254 197.614 140.523 198.227 140.862C198.821 141.194 199.242 141.513 199.491 141.819C199.74 142.125 199.864 142.47 199.864 142.853C199.864 143.418 199.666 143.868 199.271 144.203C198.875 144.535 198.313 144.701 197.586 144.701C197.33 144.701 197.046 144.663 196.733 144.586C196.421 144.506 196.189 144.414 196.039 144.309ZM203.177 144.701C202.453 144.701 201.873 144.473 201.439 144.017C201.009 143.557 200.793 142.949 200.793 142.193C200.793 141.369 201.018 140.726 201.468 140.263C201.918 139.8 202.526 139.569 203.292 139.569C204.023 139.569 204.593 139.794 205.001 140.244C205.413 140.694 205.619 141.318 205.619 142.116C205.619 142.898 205.397 143.525 204.953 143.997C204.513 144.467 203.921 144.701 203.177 144.701ZM203.235 140.23C202.73 140.23 202.331 140.402 202.038 140.747C201.744 141.088 201.597 141.561 201.597 142.164C201.597 142.745 201.746 143.203 202.043 143.538C202.339 143.873 202.737 144.04 203.235 144.04C203.742 144.04 204.132 143.876 204.403 143.547C204.677 143.219 204.815 142.751 204.815 142.145C204.815 141.532 204.677 141.059 204.403 140.728C204.132 140.396 203.742 140.23 203.235 140.23ZM213.834 144.586H213.049V141.771C213.049 141.229 212.964 140.836 212.795 140.594C212.629 140.351 212.348 140.23 211.953 140.23C211.618 140.23 211.332 140.383 211.096 140.689C210.863 140.996 210.746 141.363 210.746 141.79V144.586H209.961V141.675C209.961 140.712 209.589 140.23 208.846 140.23C208.501 140.23 208.217 140.375 207.993 140.665C207.77 140.953 207.658 141.328 207.658 141.79V144.586H206.873V139.684H207.658V140.459H207.677C208.025 139.866 208.533 139.569 209.2 139.569C209.535 139.569 209.827 139.663 210.076 139.851C210.325 140.037 210.496 140.281 210.588 140.584C210.952 139.907 211.495 139.569 212.216 139.569C213.295 139.569 213.834 140.234 213.834 141.565V144.586ZM219.258 142.331H215.797C215.81 142.877 215.957 143.298 216.237 143.595C216.518 143.892 216.904 144.04 217.396 144.04C217.948 144.04 218.456 143.859 218.918 143.495V144.232C218.487 144.545 217.918 144.701 217.209 144.701C216.517 144.701 215.972 144.479 215.577 144.036C215.181 143.589 214.983 142.962 214.983 142.154C214.983 141.391 215.199 140.771 215.629 140.292C216.063 139.81 216.601 139.569 217.243 139.569C217.884 139.569 218.381 139.776 218.732 140.191C219.083 140.606 219.258 141.182 219.258 141.92V142.331ZM218.454 141.666C218.451 141.213 218.341 140.86 218.124 140.608C217.91 140.356 217.611 140.23 217.228 140.23C216.858 140.23 216.544 140.362 216.285 140.627C216.027 140.892 215.867 141.238 215.807 141.666H218.454ZM222.724 144.538C222.539 144.641 222.295 144.692 221.992 144.692C221.133 144.692 220.704 144.213 220.704 143.255V140.354H219.861V139.684H220.704V138.487L221.489 138.233V139.684H222.724V140.354H221.489V143.116C221.489 143.445 221.545 143.68 221.657 143.82C221.768 143.961 221.954 144.031 222.212 144.031C222.41 144.031 222.581 143.977 222.724 143.868V144.538ZM227.842 144.586H227.057V141.762C227.057 140.74 226.677 140.23 225.918 140.23C225.535 140.23 225.212 140.378 224.951 140.675C224.689 140.969 224.558 141.347 224.558 141.81V144.586H223.773V137.328H224.558V140.498H224.577C224.954 139.879 225.49 139.569 226.186 139.569C227.29 139.569 227.842 140.234 227.842 141.565V144.586ZM229.728 138.439C229.588 138.439 229.468 138.391 229.369 138.296C229.27 138.2 229.221 138.079 229.221 137.932C229.221 137.785 229.27 137.664 229.369 137.568C229.468 137.469 229.588 137.419 229.728 137.419C229.872 137.419 229.993 137.469 230.092 137.568C230.194 137.664 230.245 137.785 230.245 137.932C230.245 138.072 230.194 138.192 230.092 138.291C229.993 138.39 229.872 138.439 229.728 138.439ZM230.111 144.586H229.326V139.684H230.111V144.586ZM235.77 144.586H234.985V141.79C234.985 140.75 234.605 140.23 233.846 140.23C233.453 140.23 233.127 140.378 232.869 140.675C232.614 140.969 232.486 141.34 232.486 141.79V144.586H231.701V139.684H232.486V140.498H232.505C232.875 139.879 233.412 139.569 234.114 139.569C234.65 139.569 235.06 139.743 235.344 140.091C235.628 140.436 235.77 140.935 235.77 141.589V144.586ZM241.438 144.194C241.438 145.994 240.577 146.894 238.853 146.894C238.247 146.894 237.717 146.779 237.264 146.549V145.764C237.816 146.07 238.343 146.224 238.844 146.224C240.05 146.224 240.653 145.582 240.653 144.299V143.763H240.634C240.261 144.388 239.699 144.701 238.949 144.701C238.339 144.701 237.848 144.484 237.474 144.05C237.104 143.613 236.919 143.027 236.919 142.293C236.919 141.46 237.119 140.798 237.518 140.306C237.92 139.815 238.469 139.569 239.164 139.569C239.825 139.569 240.315 139.834 240.634 140.364H240.653V139.684H241.438V144.194ZM240.653 142.37V141.647C240.653 141.257 240.521 140.924 240.256 140.646C239.994 140.369 239.667 140.23 239.275 140.23C238.789 140.23 238.41 140.407 238.135 140.761C237.861 141.112 237.723 141.605 237.723 142.24C237.723 142.786 237.854 143.223 238.116 143.552C238.381 143.878 238.73 144.04 239.164 144.04C239.605 144.04 239.962 143.884 240.237 143.571C240.514 143.259 240.653 142.858 240.653 142.37ZM251.894 139.684L250.424 144.586H249.611L248.6 141.077C248.562 140.943 248.537 140.791 248.524 140.622H248.505C248.495 140.737 248.462 140.886 248.404 141.067L247.308 144.586H246.523L245.039 139.684H245.862L246.877 143.37C246.909 143.482 246.931 143.629 246.944 143.811H246.982C246.992 143.67 247.021 143.52 247.068 143.361L248.198 139.684H248.916L249.931 143.38C249.963 143.498 249.987 143.645 250.003 143.82H250.041C250.048 143.696 250.075 143.549 250.123 143.38L251.119 139.684H251.894ZM256.696 142.331H253.235C253.247 142.877 253.394 143.298 253.675 143.595C253.956 143.892 254.342 144.04 254.834 144.04C255.386 144.04 255.893 143.859 256.356 143.495V144.232C255.925 144.545 255.356 144.701 254.647 144.701C253.954 144.701 253.41 144.479 253.014 144.036C252.619 143.589 252.421 142.962 252.421 142.154C252.421 141.391 252.636 140.771 253.067 140.292C253.501 139.81 254.039 139.569 254.68 139.569C255.322 139.569 255.818 139.776 256.169 140.191C256.52 140.606 256.696 141.182 256.696 141.92V142.331ZM255.892 141.666C255.889 141.213 255.778 140.86 255.561 140.608C255.348 140.356 255.049 140.23 254.666 140.23C254.296 140.23 253.982 140.362 253.723 140.627C253.464 140.892 253.305 141.238 253.244 141.666H255.892ZM261.957 144.586H261.172V141.79C261.172 140.75 260.792 140.23 260.033 140.23C259.64 140.23 259.315 140.378 259.056 140.675C258.801 140.969 258.673 141.34 258.673 141.79V144.586H257.888V139.684H258.673V140.498H258.692C259.063 139.879 259.599 139.569 260.301 139.569C260.837 139.569 261.247 139.743 261.531 140.091C261.815 140.436 261.957 140.935 261.957 141.589V144.586ZM265.716 144.538C265.53 144.641 265.286 144.692 264.983 144.692C264.125 144.692 263.695 144.213 263.695 143.255V140.354H262.853V139.684H263.695V138.487L264.48 138.233V139.684H265.716V140.354H264.48V143.116C264.48 143.445 264.536 143.68 264.648 143.82C264.76 143.961 264.945 144.031 265.203 144.031C265.401 144.031 265.572 143.977 265.716 143.868V144.538ZM275.63 139.684L274.161 144.586H273.347L272.337 141.077C272.298 140.943 272.273 140.791 272.26 140.622H272.241C272.231 140.737 272.198 140.886 272.14 141.067L271.044 144.586H270.259L268.775 139.684H269.598L270.613 143.37C270.645 143.482 270.667 143.629 270.68 143.811H270.718C270.728 143.67 270.757 143.52 270.805 143.361L271.934 139.684H272.653L273.667 143.38C273.699 143.498 273.723 143.645 273.739 143.82H273.778C273.784 143.696 273.811 143.549 273.859 143.38L274.855 139.684H275.63ZM279.096 140.479C278.959 140.373 278.761 140.321 278.503 140.321C278.168 140.321 277.887 140.479 277.66 140.795C277.437 141.111 277.325 141.541 277.325 142.087V144.586H276.54V139.684H277.325V140.694H277.344C277.456 140.349 277.627 140.081 277.856 139.89C278.086 139.695 278.343 139.598 278.627 139.598C278.832 139.598 278.988 139.62 279.096 139.665V140.479ZM281.864 144.701C281.139 144.701 280.56 144.473 280.126 144.017C279.695 143.557 279.479 142.949 279.479 142.193C279.479 141.369 279.704 140.726 280.154 140.263C280.604 139.8 281.212 139.569 281.978 139.569C282.709 139.569 283.279 139.794 283.688 140.244C284.099 140.694 284.305 141.318 284.305 142.116C284.305 142.898 284.083 143.525 283.64 143.997C283.199 144.467 282.607 144.701 281.864 144.701ZM281.921 140.23C281.417 140.23 281.018 140.402 280.724 140.747C280.431 141.088 280.284 141.561 280.284 142.164C280.284 142.745 280.432 143.203 280.729 143.538C281.026 143.873 281.423 144.04 281.921 144.04C282.428 144.04 282.818 143.876 283.089 143.547C283.364 143.219 283.501 142.751 283.501 142.145C283.501 141.532 283.364 141.059 283.089 140.728C282.818 140.396 282.428 140.23 281.921 140.23ZM289.629 144.586H288.844V141.79C288.844 140.75 288.464 140.23 287.704 140.23C287.312 140.23 286.986 140.378 286.728 140.675C286.472 140.969 286.345 141.34 286.345 141.79V144.586H285.559V139.684H286.345V140.498H286.364C286.734 139.879 287.27 139.569 287.972 139.569C288.509 139.569 288.919 139.743 289.203 140.091C289.487 140.436 289.629 140.935 289.629 141.589V144.586ZM295.297 144.194C295.297 145.994 294.435 146.894 292.712 146.894C292.105 146.894 291.576 146.779 291.122 146.549V145.764C291.675 146.07 292.201 146.224 292.702 146.224C293.909 146.224 294.512 145.582 294.512 144.299V143.763H294.493C294.119 144.388 293.558 144.701 292.808 144.701C292.198 144.701 291.707 144.484 291.333 144.05C290.963 143.613 290.778 143.027 290.778 142.293C290.778 141.46 290.977 140.798 291.376 140.306C291.778 139.815 292.327 139.569 293.023 139.569C293.684 139.569 294.174 139.834 294.493 140.364H294.512V139.684H295.297V144.194ZM294.512 142.37V141.647C294.512 141.257 294.38 140.924 294.115 140.646C293.853 140.369 293.526 140.23 293.133 140.23C292.648 140.23 292.268 140.407 291.994 140.761C291.719 141.112 291.582 141.605 291.582 142.24C291.582 142.786 291.713 143.223 291.975 143.552C292.24 143.878 292.589 144.04 293.023 144.04C293.464 144.04 293.821 143.884 294.095 143.571C294.373 143.259 294.512 142.858 294.512 142.37ZM302.919 144.361C302.542 144.588 302.095 144.701 301.578 144.701C300.879 144.701 300.314 144.475 299.883 144.021C299.456 143.565 299.242 142.974 299.242 142.25C299.242 141.442 299.473 140.795 299.936 140.306C300.399 139.815 301.017 139.569 301.789 139.569C302.22 139.569 302.6 139.649 302.928 139.808V140.613C302.564 140.357 302.175 140.23 301.76 140.23C301.259 140.23 300.847 140.41 300.525 140.771C300.206 141.128 300.046 141.599 300.046 142.183C300.046 142.757 300.196 143.211 300.496 143.543C300.799 143.875 301.205 144.04 301.712 144.04C302.14 144.04 302.542 143.898 302.919 143.614V144.361ZM306.155 144.701C305.431 144.701 304.851 144.473 304.417 144.017C303.986 143.557 303.771 142.949 303.771 142.193C303.771 141.369 303.996 140.726 304.446 140.263C304.896 139.8 305.504 139.569 306.27 139.569C307.001 139.569 307.571 139.794 307.979 140.244C308.391 140.694 308.597 141.318 308.597 142.116C308.597 142.898 308.375 143.525 307.931 143.997C307.491 144.467 306.899 144.701 306.155 144.701ZM306.212 140.23C305.708 140.23 305.309 140.402 305.016 140.747C304.722 141.088 304.575 141.561 304.575 142.164C304.575 142.745 304.724 143.203 305.02 143.538C305.317 143.873 305.715 144.04 306.212 144.04C306.72 144.04 307.109 143.876 307.381 143.547C307.655 143.219 307.792 142.751 307.792 142.145C307.792 141.532 307.655 141.059 307.381 140.728C307.109 140.396 306.72 140.23 306.212 140.23ZM313.92 144.586H313.135V141.79C313.135 140.75 312.755 140.23 311.996 140.23C311.603 140.23 311.278 140.378 311.019 140.675C310.764 140.969 310.636 141.34 310.636 141.79V144.586H309.851V139.684H310.636V140.498H310.655C311.025 139.879 311.562 139.569 312.264 139.569C312.8 139.569 313.21 139.743 313.494 140.091C313.778 140.436 313.92 140.935 313.92 141.589V144.586ZM319.474 144.586H318.689V141.79C318.689 140.75 318.309 140.23 317.549 140.23C317.157 140.23 316.831 140.378 316.572 140.675C316.317 140.969 316.189 141.34 316.189 141.79V144.586H315.404V139.684H316.189V140.498H316.209C316.579 139.879 317.115 139.569 317.817 139.569C318.353 139.569 318.764 139.743 319.048 140.091C319.332 140.436 319.474 140.935 319.474 141.589V144.586ZM324.898 142.331H321.437C321.449 142.877 321.596 143.298 321.877 143.595C322.158 143.892 322.544 144.04 323.036 144.04C323.588 144.04 324.095 143.859 324.558 143.495V144.232C324.127 144.545 323.557 144.701 322.849 144.701C322.156 144.701 321.612 144.479 321.216 144.036C320.821 143.589 320.623 142.962 320.623 142.154C320.623 141.391 320.838 140.771 321.269 140.292C321.703 139.81 322.241 139.569 322.882 139.569C323.524 139.569 324.02 139.776 324.371 140.191C324.722 140.606 324.898 141.182 324.898 141.92V142.331ZM324.094 141.666C324.09 141.213 323.98 140.86 323.763 140.608C323.549 140.356 323.251 140.23 322.868 140.23C322.498 140.23 322.183 140.362 321.925 140.627C321.666 140.892 321.507 141.238 321.446 141.666H324.094ZM329.432 144.361C329.055 144.588 328.608 144.701 328.091 144.701C327.392 144.701 326.827 144.475 326.396 144.021C325.969 143.565 325.755 142.974 325.755 142.25C325.755 141.442 325.986 140.795 326.449 140.306C326.912 139.815 327.529 139.569 328.302 139.569C328.733 139.569 329.112 139.649 329.441 139.808V140.613C329.077 140.357 328.688 140.23 328.273 140.23C327.772 140.23 327.36 140.41 327.038 140.771C326.719 141.128 326.559 141.599 326.559 142.183C326.559 142.757 326.709 143.211 327.009 143.543C327.312 143.875 327.718 144.04 328.225 144.04C328.653 144.04 329.055 143.898 329.432 143.614V144.361ZM332.893 144.538C332.708 144.641 332.464 144.692 332.16 144.692C331.302 144.692 330.873 144.213 330.873 143.255V140.354H330.03V139.684H330.873V138.487L331.658 138.233V139.684H332.893V140.354H331.658V143.116C331.658 143.445 331.714 143.68 331.825 143.82C331.937 143.961 332.122 144.031 332.381 144.031C332.578 144.031 332.749 143.977 332.893 143.868V144.538ZM334.343 138.439C334.203 138.439 334.083 138.391 333.984 138.296C333.885 138.2 333.836 138.079 333.836 137.932C333.836 137.785 333.885 137.664 333.984 137.568C334.083 137.469 334.203 137.419 334.343 137.419C334.487 137.419 334.608 137.469 334.707 137.568C334.809 137.664 334.86 137.785 334.86 137.932C334.86 138.072 334.809 138.192 334.707 138.291C334.608 138.39 334.487 138.439 334.343 138.439ZM334.726 144.586H333.941V139.684H334.726V144.586ZM340.385 144.586H339.6V141.79C339.6 140.75 339.22 140.23 338.461 140.23C338.068 140.23 337.743 140.378 337.484 140.675C337.229 140.969 337.101 141.34 337.101 141.79V144.586H336.316V139.684H337.101V140.498H337.12C337.49 139.879 338.027 139.569 338.729 139.569C339.265 139.569 339.675 139.743 339.959 140.091C340.243 140.436 340.385 140.935 340.385 141.589V144.586ZM346.054 144.194C346.054 145.994 345.192 146.894 343.468 146.894C342.862 146.894 342.332 146.779 341.879 146.549V145.764C342.431 146.07 342.958 146.224 343.459 146.224C344.665 146.224 345.268 145.582 345.268 144.299V143.763H345.249C344.876 144.388 344.314 144.701 343.564 144.701C342.954 144.701 342.463 144.484 342.09 144.05C341.719 143.613 341.534 143.027 341.534 142.293C341.534 141.46 341.734 140.798 342.133 140.306C342.535 139.815 343.084 139.569 343.779 139.569C344.44 139.569 344.93 139.834 345.249 140.364H345.268V139.684H346.054V144.194ZM345.268 142.37V141.647C345.268 141.257 345.136 140.924 344.871 140.646C344.609 140.369 344.282 140.23 343.89 140.23C343.404 140.23 343.025 140.407 342.75 140.761C342.476 141.112 342.338 141.605 342.338 142.24C342.338 142.786 342.469 143.223 342.731 143.552C342.996 143.878 343.345 144.04 343.779 144.04C344.22 144.04 344.577 143.884 344.852 143.571C345.13 143.259 345.268 142.858 345.268 142.37ZM352.608 144.538C352.422 144.641 352.178 144.692 351.875 144.692C351.016 144.692 350.587 144.213 350.587 143.255V140.354H349.745V139.684H350.587V138.487L351.372 138.233V139.684H352.608V140.354H351.372V143.116C351.372 143.445 351.428 143.68 351.54 143.82C351.652 143.961 351.837 144.031 352.095 144.031C352.293 144.031 352.464 143.977 352.608 143.868V144.538ZM355.628 144.701C354.904 144.701 354.325 144.473 353.891 144.017C353.46 143.557 353.244 142.949 353.244 142.193C353.244 141.369 353.469 140.726 353.919 140.263C354.369 139.8 354.977 139.569 355.743 139.569C356.474 139.569 357.044 139.794 357.452 140.244C357.864 140.694 358.07 141.318 358.07 142.116C358.07 142.898 357.848 143.525 357.405 143.997C356.964 144.467 356.372 144.701 355.628 144.701ZM355.686 140.23C355.182 140.23 354.783 140.402 354.489 140.747C354.195 141.088 354.049 141.561 354.049 142.164C354.049 142.745 354.197 143.203 354.494 143.538C354.791 143.873 355.188 144.04 355.686 144.04C356.193 144.04 356.583 143.876 356.854 143.547C357.128 143.219 357.266 142.751 357.266 142.145C357.266 141.532 357.128 141.059 356.854 140.728C356.583 140.396 356.193 140.23 355.686 140.23ZM367.64 144.127C366.97 144.513 366.137 144.706 365.141 144.706C364.037 144.706 363.165 144.401 362.527 143.792C361.892 143.179 361.574 142.336 361.574 141.264C361.574 140.185 361.922 139.306 362.618 138.626C363.314 137.946 364.239 137.606 365.395 137.606C366.122 137.606 366.764 137.707 367.319 137.908V139.358C366.79 139.052 366.142 138.899 365.376 138.899C364.734 138.899 364.211 139.108 363.805 139.526C363.403 139.941 363.202 140.496 363.202 141.192C363.202 141.897 363.382 142.443 363.743 142.829C364.107 143.215 364.597 143.409 365.213 143.409C365.583 143.409 365.877 143.356 366.094 143.251V141.91H364.72V140.675H367.64V144.127ZM371.164 144.706C370.347 144.706 369.703 144.478 369.234 144.021C368.768 143.562 368.535 142.939 368.535 142.154C368.535 141.344 368.778 140.71 369.263 140.254C369.748 139.794 370.404 139.564 371.231 139.564C372.045 139.564 372.683 139.794 373.146 140.254C373.608 140.71 373.84 141.315 373.84 142.068C373.84 142.882 373.6 143.525 373.122 143.997C372.646 144.47 371.993 144.706 371.164 144.706ZM371.202 140.723C370.844 140.723 370.567 140.846 370.369 141.091C370.171 141.337 370.072 141.685 370.072 142.135C370.072 143.077 370.452 143.547 371.212 143.547C371.936 143.547 372.298 143.064 372.298 142.097C372.298 141.181 371.933 140.723 371.202 140.723ZM377.158 144.706C376.34 144.706 375.697 144.478 375.228 144.021C374.762 143.562 374.529 142.939 374.529 142.154C374.529 141.344 374.772 140.71 375.257 140.254C375.742 139.794 376.398 139.564 377.225 139.564C378.038 139.564 378.677 139.794 379.14 140.254C379.602 140.71 379.834 141.315 379.834 142.068C379.834 142.882 379.594 143.525 379.116 143.997C378.64 144.47 377.987 144.706 377.158 144.706ZM377.196 140.723C376.838 140.723 376.561 140.846 376.363 141.091C376.165 141.337 376.066 141.685 376.066 142.135C376.066 143.077 376.446 143.547 377.205 143.547C377.93 143.547 378.292 143.064 378.292 142.097C378.292 141.181 377.927 140.723 377.196 140.723ZM385.622 144.026C385.622 144.936 385.358 145.639 384.832 146.137C384.305 146.638 383.542 146.889 382.543 146.889C381.883 146.889 381.359 146.795 380.973 146.607V145.333C381.477 145.627 381.986 145.774 382.5 145.774C383.011 145.774 383.407 145.638 383.688 145.367C383.968 145.098 384.109 144.733 384.109 144.27V143.882H384.09C383.745 144.431 383.236 144.706 382.563 144.706C381.937 144.706 381.441 144.486 381.074 144.045C380.707 143.605 380.523 143.014 380.523 142.274C380.523 141.444 380.727 140.785 381.136 140.297C381.544 139.808 382.082 139.564 382.749 139.564C383.346 139.564 383.793 139.794 384.09 140.254H384.109V139.684H385.622V144.026ZM384.128 142.231V141.843C384.128 141.533 384.035 141.27 383.85 141.053C383.668 140.833 383.431 140.723 383.137 140.723C382.802 140.723 382.539 140.854 382.347 141.115C382.156 141.377 382.06 141.746 382.06 142.221C382.06 142.63 382.151 142.954 382.333 143.193C382.515 143.429 382.764 143.547 383.08 143.547C383.392 143.547 383.644 143.428 383.836 143.188C384.031 142.946 384.128 142.627 384.128 142.231ZM388.398 144.586H386.886V137.328H388.398V144.586ZM394.076 142.566H390.878C390.929 143.278 391.378 143.634 392.224 143.634C392.763 143.634 393.237 143.506 393.645 143.251V144.342C393.192 144.585 392.603 144.706 391.879 144.706C391.087 144.706 390.473 144.487 390.036 144.05C389.598 143.61 389.38 142.997 389.38 142.212C389.38 141.398 389.616 140.753 390.088 140.278C390.561 139.802 391.142 139.564 391.831 139.564C392.546 139.564 393.098 139.776 393.487 140.201C393.88 140.625 394.076 141.202 394.076 141.929V142.566ZM392.674 141.637C392.674 140.935 392.39 140.584 391.821 140.584C391.579 140.584 391.368 140.684 391.189 140.886C391.014 141.087 390.907 141.337 390.869 141.637H392.674ZM201.167 159.342C200.665 159.585 200.011 159.706 199.204 159.706C198.15 159.706 197.322 159.396 196.719 158.777C196.116 158.158 195.814 157.333 195.814 156.302C195.814 155.204 196.152 154.314 196.829 153.631C197.509 152.948 198.39 152.606 199.472 152.606C200.142 152.606 200.707 152.691 201.167 152.86V154.349C200.707 154.074 200.184 153.937 199.596 153.937C198.952 153.937 198.431 154.14 198.036 154.545C197.64 154.95 197.442 155.499 197.442 156.192C197.442 156.856 197.629 157.386 198.002 157.781C198.375 158.174 198.878 158.37 199.51 158.37C200.113 158.37 200.665 158.223 201.167 157.93V159.342ZM206.294 159.586H204.862V158.882H204.843C204.515 159.431 204.028 159.706 203.383 159.706C202.908 159.706 202.533 159.572 202.258 159.304C201.987 159.032 201.851 158.672 201.851 158.222C201.851 157.271 202.414 156.722 203.541 156.575L204.872 156.398C204.872 155.862 204.582 155.594 204.001 155.594C203.417 155.594 202.861 155.767 202.335 156.115V154.976C202.545 154.867 202.833 154.772 203.196 154.689C203.563 154.606 203.897 154.564 204.197 154.564C205.595 154.564 206.294 155.262 206.294 156.656V159.586ZM204.872 157.595V157.264L203.982 157.379C203.49 157.443 203.244 157.665 203.244 158.045C203.244 158.217 203.303 158.359 203.421 158.471C203.543 158.579 203.705 158.634 203.91 158.634C204.194 158.634 204.425 158.536 204.604 158.342C204.783 158.144 204.872 157.895 204.872 157.595ZM209.004 159.586H207.491V152.328H209.004V159.586ZM214.681 157.566H211.483C211.535 158.278 211.983 158.634 212.829 158.634C213.368 158.634 213.842 158.506 214.251 158.251V159.342C213.797 159.585 213.209 159.706 212.484 159.706C211.693 159.706 211.078 159.487 210.641 159.05C210.204 158.61 209.985 157.997 209.985 157.212C209.985 156.398 210.221 155.753 210.694 155.278C211.166 154.802 211.747 154.564 212.436 154.564C213.151 154.564 213.703 154.776 214.093 155.201C214.485 155.625 214.681 156.202 214.681 156.929V157.566ZM213.279 156.637C213.279 155.935 212.995 155.584 212.427 155.584C212.184 155.584 211.973 155.684 211.795 155.886C211.619 156.087 211.512 156.337 211.474 156.637H213.279ZM220.316 159.586H218.808V156.862C218.808 156.103 218.537 155.723 217.994 155.723C217.733 155.723 217.517 155.823 217.348 156.024C217.179 156.225 217.094 156.481 217.094 156.79V159.586H215.581V154.684H217.094V155.459H217.113C217.474 154.863 217.999 154.564 218.689 154.564C219.774 154.564 220.316 155.238 220.316 156.585V159.586ZM226.315 159.586H224.802V158.911H224.783C224.438 159.441 223.932 159.706 223.265 159.706C222.653 159.706 222.159 159.49 221.786 159.06C221.413 158.626 221.226 158.021 221.226 157.245C221.226 156.435 221.432 155.785 221.843 155.297C222.255 154.808 222.795 154.564 223.462 154.564C224.094 154.564 224.534 154.791 224.783 155.244H224.802V152.328H226.315V159.586ZM224.831 157.202V156.833C224.831 156.514 224.738 156.249 224.553 156.039C224.368 155.828 224.127 155.723 223.83 155.723C223.495 155.723 223.233 155.855 223.045 156.12C222.857 156.382 222.763 156.743 222.763 157.202C222.763 157.633 222.854 157.965 223.036 158.198C223.217 158.431 223.47 158.547 223.792 158.547C224.098 158.547 224.347 158.424 224.539 158.179C224.733 157.933 224.831 157.607 224.831 157.202ZM231.667 159.586H230.236V158.882H230.217C229.888 159.431 229.401 159.706 228.757 159.706C228.281 159.706 227.906 159.572 227.631 159.304C227.36 159.032 227.225 158.672 227.225 158.222C227.225 157.271 227.788 156.722 228.915 156.575L230.245 156.398C230.245 155.862 229.955 155.594 229.374 155.594C228.79 155.594 228.235 155.767 227.708 156.115V154.976C227.919 154.867 228.206 154.772 228.57 154.689C228.937 154.606 229.27 154.564 229.57 154.564C230.968 154.564 231.667 155.262 231.667 156.656V159.586ZM230.245 157.595V157.264L229.355 157.379C228.863 157.443 228.618 157.665 228.618 158.045C228.618 158.217 228.677 158.359 228.795 158.471C228.916 158.579 229.079 158.634 229.283 158.634C229.567 158.634 229.799 158.536 229.977 158.342C230.156 158.144 230.245 157.895 230.245 157.595ZM236.062 156.048C235.88 155.949 235.668 155.9 235.425 155.9C235.097 155.9 234.84 156.021 234.655 156.264C234.47 156.503 234.377 156.83 234.377 157.245V159.586H232.864V154.684H234.377V155.594H234.396C234.635 154.93 235.066 154.598 235.689 154.598C235.848 154.598 235.973 154.617 236.062 154.655V156.048ZM237.202 159.692C237.055 159.692 236.929 159.639 236.823 159.534C236.721 159.428 236.67 159.302 236.67 159.155C236.67 159.009 236.721 158.882 236.823 158.777C236.929 158.669 237.055 158.614 237.202 158.614C237.352 158.614 237.479 158.669 237.585 158.777C237.69 158.882 237.743 159.009 237.743 159.155C237.743 159.302 237.69 159.428 237.585 159.534C237.479 159.639 237.352 159.692 237.202 159.692ZM245.91 153.449H243.928V159.586H243.124V153.449H241.146V152.721H245.91V153.449ZM248.591 155.479C248.454 155.373 248.256 155.321 247.997 155.321C247.662 155.321 247.381 155.479 247.155 155.795C246.931 156.111 246.82 156.541 246.82 157.087V159.586H246.034V154.684H246.82V155.694H246.839C246.95 155.349 247.121 155.081 247.351 154.89C247.581 154.695 247.838 154.598 248.122 154.598C248.326 154.598 248.482 154.62 248.591 154.665V155.479ZM253.737 154.684L251.482 160.371C251.08 161.386 250.515 161.894 249.788 161.894C249.583 161.894 249.413 161.873 249.275 161.832V161.128C249.445 161.185 249.599 161.214 249.74 161.214C250.136 161.214 250.432 160.978 250.63 160.505L251.023 159.577L249.108 154.684H249.979L251.305 158.456C251.321 158.504 251.355 158.629 251.406 158.83H251.435C251.451 158.753 251.482 158.632 251.53 158.466L252.924 154.684H253.737ZM260.784 159.586H259.999V158.82H259.98C259.639 159.408 259.136 159.701 258.472 159.701C257.984 159.701 257.601 159.572 257.323 159.313C257.049 159.055 256.911 158.712 256.911 158.284C256.911 157.368 257.451 156.835 258.53 156.685L259.999 156.479C259.999 155.646 259.663 155.23 258.989 155.23C258.399 155.23 257.866 155.431 257.39 155.833V155.029C257.872 154.722 258.427 154.569 259.056 154.569C260.208 154.569 260.784 155.179 260.784 156.398V159.586ZM259.999 157.106L258.817 157.269C258.453 157.32 258.179 157.411 257.993 157.542C257.808 157.67 257.716 157.898 257.716 158.227C257.716 158.466 257.8 158.662 257.969 158.815C258.142 158.965 258.37 159.04 258.654 159.04C259.043 159.04 259.364 158.905 259.616 158.634C259.872 158.359 259.999 158.013 259.999 157.595V157.106ZM266.448 159.194C266.448 160.994 265.586 161.894 263.863 161.894C263.256 161.894 262.727 161.779 262.273 161.549V160.764C262.826 161.07 263.352 161.224 263.853 161.224C265.06 161.224 265.663 160.582 265.663 159.299V158.763H265.644C265.27 159.388 264.709 159.701 263.959 159.701C263.349 159.701 262.857 159.484 262.484 159.05C262.114 158.613 261.929 158.027 261.929 157.293C261.929 156.46 262.128 155.798 262.527 155.306C262.929 154.815 263.478 154.569 264.174 154.569C264.835 154.569 265.325 154.834 265.644 155.364H265.663V154.684H266.448V159.194ZM265.663 157.37V156.647C265.663 156.257 265.53 155.924 265.266 155.646C265.004 155.369 264.677 155.23 264.284 155.23C263.799 155.23 263.419 155.407 263.145 155.761C262.87 156.112 262.733 156.605 262.733 157.24C262.733 157.786 262.864 158.223 263.126 158.552C263.39 158.878 263.74 159.04 264.174 159.04C264.614 159.04 264.972 158.884 265.246 158.571C265.524 158.259 265.663 157.858 265.663 157.37ZM271.547 159.586H270.762V158.82H270.742C270.401 159.408 269.898 159.701 269.234 159.701C268.746 159.701 268.363 159.572 268.085 159.313C267.811 159.055 267.674 158.712 267.674 158.284C267.674 157.368 268.213 156.835 269.292 156.685L270.762 156.479C270.762 155.646 270.425 155.23 269.751 155.23C269.161 155.23 268.628 155.431 268.152 155.833V155.029C268.634 154.722 269.19 154.569 269.818 154.569C270.971 154.569 271.547 155.179 271.547 156.398V159.586ZM270.762 157.106L269.579 157.269C269.215 157.32 268.941 157.411 268.756 157.542C268.57 157.67 268.478 157.898 268.478 158.227C268.478 158.466 268.562 158.662 268.732 158.815C268.904 158.965 269.132 159.04 269.416 159.04C269.806 159.04 270.126 158.905 270.379 158.634C270.634 158.359 270.762 158.013 270.762 157.595V157.106ZM273.428 153.439C273.288 153.439 273.168 153.391 273.069 153.296C272.97 153.2 272.921 153.079 272.921 152.932C272.921 152.785 272.97 152.664 273.069 152.568C273.168 152.469 273.288 152.419 273.428 152.419C273.572 152.419 273.693 152.469 273.792 152.568C273.894 152.664 273.945 152.785 273.945 152.932C273.945 153.072 273.894 153.192 273.792 153.291C273.693 153.39 273.572 153.439 273.428 153.439ZM273.811 159.586H273.026V154.684H273.811V159.586ZM279.47 159.586H278.685V156.79C278.685 155.75 278.305 155.23 277.545 155.23C277.153 155.23 276.827 155.378 276.569 155.675C276.313 155.969 276.186 156.34 276.186 156.79V159.586H275.401V154.684H276.186V155.498H276.205C276.575 154.879 277.111 154.569 277.813 154.569C278.35 154.569 278.76 154.743 279.044 155.091C279.328 155.436 279.47 155.935 279.47 156.589V159.586ZM284.43 159.586H283.644V152.328H284.43V159.586ZM289.528 159.586H288.743V158.82H288.724C288.382 159.408 287.88 159.701 287.216 159.701C286.728 159.701 286.345 159.572 286.067 159.313C285.792 159.055 285.655 158.712 285.655 158.284C285.655 157.368 286.195 156.835 287.273 156.685L288.743 156.479C288.743 155.646 288.406 155.23 287.733 155.23C287.143 155.23 286.61 155.431 286.134 155.833V155.029C286.616 154.722 287.171 154.569 287.8 154.569C288.952 154.569 289.528 155.179 289.528 156.398V159.586ZM288.743 157.106L287.561 157.269C287.197 157.32 286.922 157.411 286.737 157.542C286.552 157.67 286.46 157.898 286.46 158.227C286.46 158.466 286.544 158.662 286.713 158.815C286.886 158.965 287.114 159.04 287.398 159.04C287.787 159.04 288.108 158.905 288.36 158.634C288.615 158.359 288.743 158.013 288.743 157.595V157.106ZM293.282 159.538C293.096 159.641 292.852 159.692 292.549 159.692C291.691 159.692 291.261 159.213 291.261 158.255V155.354H290.419V154.684H291.261V153.487L292.046 153.233V154.684H293.282V155.354H292.046V158.116C292.046 158.445 292.102 158.68 292.214 158.82C292.326 158.961 292.511 159.031 292.769 159.031C292.967 159.031 293.138 158.977 293.282 158.868V159.538ZM298.194 157.331H294.732C294.745 157.877 294.892 158.298 295.173 158.595C295.454 158.892 295.84 159.04 296.331 159.04C296.883 159.04 297.391 158.859 297.854 158.495V159.232C297.423 159.545 296.853 159.701 296.144 159.701C295.452 159.701 294.908 159.479 294.512 159.036C294.116 158.589 293.918 157.962 293.918 157.154C293.918 156.391 294.134 155.771 294.565 155.292C294.999 154.81 295.536 154.569 296.178 154.569C296.82 154.569 297.316 154.776 297.667 155.191C298.018 155.606 298.194 156.182 298.194 156.92V157.331ZM297.389 156.666C297.386 156.213 297.276 155.86 297.059 155.608C296.845 155.356 296.547 155.23 296.164 155.23C295.793 155.23 295.479 155.362 295.221 155.627C294.962 155.892 294.802 156.238 294.742 156.666H297.389ZM301.942 155.479C301.805 155.373 301.607 155.321 301.348 155.321C301.013 155.321 300.732 155.479 300.506 155.795C300.282 156.111 300.171 156.541 300.171 157.087V159.586H299.386V154.684H300.171V155.694H300.19C300.302 155.349 300.472 155.081 300.702 154.89C300.932 154.695 301.189 154.598 301.473 154.598C301.677 154.598 301.834 154.62 301.942 154.665V155.479ZM302.253 159.692C302.106 159.692 301.98 159.639 301.875 159.534C301.773 159.428 301.722 159.302 301.722 159.155C301.722 159.009 301.773 158.882 301.875 158.777C301.98 158.669 302.106 158.614 302.253 158.614C302.403 158.614 302.531 158.669 302.636 158.777C302.742 158.882 302.794 159.009 302.794 159.155C302.794 159.302 302.742 159.428 302.636 159.534C302.531 159.639 302.403 159.692 302.253 159.692Z" fill="white" fill-opacity="0.7"/>
<rect x="389.116" y="177.943" width="44.1077" height="21.7103" rx="10.8552" stroke="white" stroke-opacity="0.3" stroke-width="0.700334"/>
<path d="M403.92 192.97C403.329 193.276 402.594 193.43 401.715 193.43C400.577 193.43 399.665 193.07 398.979 192.352C398.293 191.633 397.951 190.69 397.951 189.523C397.951 188.268 398.335 187.254 399.105 186.481C399.878 185.708 400.854 185.321 402.032 185.321C402.791 185.321 403.42 185.429 403.92 185.644V186.935C403.391 186.621 402.807 186.464 402.169 186.464C401.319 186.464 400.63 186.736 400.101 187.28C399.576 187.823 399.313 188.549 399.313 189.457C399.313 190.322 399.559 191.011 400.052 191.525C400.544 192.036 401.191 192.291 401.994 192.291C402.734 192.291 403.376 192.116 403.92 191.766V192.97ZM406.541 193.298H405.266V185.004H406.541V193.298ZM410.682 193.43C409.818 193.43 409.127 193.169 408.609 192.647C408.094 192.122 407.837 191.427 407.837 190.563C407.837 189.621 408.105 188.886 408.642 188.358C409.181 187.829 409.907 187.564 410.819 187.564C411.695 187.564 412.377 187.821 412.865 188.336C413.354 188.85 413.599 189.563 413.599 190.475C413.599 191.369 413.334 192.085 412.805 192.625C412.28 193.161 411.572 193.43 410.682 193.43ZM410.743 188.576C410.247 188.576 409.854 188.75 409.566 189.096C409.278 189.443 409.134 189.921 409.134 190.53C409.134 191.117 409.28 191.58 409.572 191.919C409.864 192.255 410.254 192.423 410.743 192.423C411.242 192.423 411.625 192.257 411.892 191.925C412.162 191.593 412.296 191.121 412.296 190.508C412.296 189.891 412.162 189.415 411.892 189.08C411.625 188.744 411.242 188.576 410.743 188.576ZM414.545 193.123V191.947C415.019 192.308 415.543 192.488 416.115 192.488C416.881 192.488 417.264 192.262 417.264 191.81C417.264 191.682 417.232 191.575 417.166 191.487C417.1 191.396 417.011 191.316 416.898 191.246C416.788 191.177 416.657 191.115 416.504 191.06C416.354 191.006 416.187 190.944 416.001 190.874C415.771 190.783 415.563 190.687 415.377 190.584C415.194 190.482 415.041 190.367 414.917 190.24C414.797 190.108 414.706 189.961 414.644 189.797C414.582 189.632 414.551 189.441 414.551 189.222C414.551 188.952 414.615 188.715 414.742 188.511C414.87 188.303 415.041 188.13 415.256 187.991C415.472 187.849 415.716 187.743 415.99 187.674C416.263 187.601 416.546 187.564 416.838 187.564C417.356 187.564 417.819 187.643 418.227 187.8V188.91C417.833 188.64 417.381 188.505 416.871 188.505C416.71 188.505 416.564 188.522 416.433 188.555C416.305 188.587 416.196 188.633 416.105 188.691C416.013 188.75 415.942 188.821 415.891 188.905C415.84 188.985 415.815 189.074 415.815 189.173C415.815 189.293 415.84 189.395 415.891 189.479C415.942 189.563 416.017 189.638 416.115 189.704C416.218 189.766 416.338 189.824 416.477 189.879C416.619 189.93 416.781 189.986 416.964 190.048C417.204 190.147 417.419 190.247 417.609 190.349C417.802 190.451 417.967 190.568 418.102 190.699C418.237 190.827 418.34 190.977 418.413 191.148C418.486 191.316 418.523 191.516 418.523 191.75C418.523 192.034 418.457 192.282 418.326 192.494C418.195 192.705 418.02 192.881 417.801 193.019C417.582 193.158 417.328 193.26 417.04 193.326C416.756 193.395 416.455 193.43 416.137 193.43C415.525 193.43 414.994 193.327 414.545 193.123ZM424.476 190.842H420.657C420.671 191.36 420.83 191.759 421.133 192.04C421.439 192.321 421.859 192.461 422.391 192.461C422.989 192.461 423.538 192.282 424.038 191.925V192.948C423.527 193.269 422.853 193.43 422.014 193.43C421.189 193.43 420.542 193.176 420.071 192.669C419.604 192.158 419.371 191.442 419.371 190.519C419.371 189.647 419.628 188.938 420.142 188.39C420.66 187.84 421.302 187.564 422.068 187.564C422.834 187.564 423.427 187.81 423.847 188.303C424.266 188.795 424.476 189.479 424.476 190.355V190.842ZM423.25 189.944C423.246 189.488 423.139 189.135 422.927 188.883C422.716 188.628 422.424 188.5 422.052 188.5C421.687 188.5 421.377 188.633 421.122 188.899C420.87 189.166 420.715 189.514 420.657 189.944H423.25Z" fill="white" fill-opacity="0.95"/>
<defs>
<filter id="filter0_dd_1118_15458" x="62.7196" y="54.4683" width="433.561" height="229.063" filterUnits="userSpaceOnUse" color-interpolation-filters="sRGB">
<feFlood flood-opacity="0" result="BackgroundImageFix"/>
<feColorMatrix in="SourceAlpha" type="matrix" values="0 0 0 0 0 0 0 0 0 0 0 0 0 0 0 0 0 0 127 0" result="hardAlpha"/>
<feOffset/>
<feGaussianBlur stdDeviation="0.5"/>
<feColorMatrix type="matrix" values="0 0 0 0 0 0 0 0 0 0 0 0 0 0 0 0 0 0 0.12 0"/>
<feBlend mode="normal" in2="BackgroundImageFix" result="effect1_dropShadow_1118_15458"/>
<feColorMatrix in="SourceAlpha" type="matrix" values="0 0 0 0 0 0 0 0 0 0 0 0 0 0 0 0 0 0 127 0" result="hardAlpha"/>
<feOffset dy="24"/>
<feGaussianBlur stdDeviation="24"/>
<feColorMatrix type="matrix" values="0 0 0 0 0 0 0 0 0 0 0 0 0 0 0 0 0 0 0.2 0"/>
<feBlend mode="normal" in2="effect1_dropShadow_1118_15458" result="effect2_dropShadow_1118_15458"/>
<feBlend mode="normal" in="SourceGraphic" in2="effect2_dropShadow_1118_15458" result="shape"/>
</filter>
<linearGradient id="paint0_linear_1118_15458" x1="153.415" y1="121.83" x2="153.415" y2="162.831" gradientUnits="userSpaceOnUse">
<stop stop-color="#F0677E"/>
<stop offset="1" stop-color="#DB1F2E"/>
</linearGradient>
</defs>
</svg>
