<svg width="559" height="287" viewBox="0 0 559 287" fill="none" xmlns="http://www.w3.org/2000/svg">
<rect width="559" height="287" rx="16" fill="#1A1A1A"/>
<path d="M243.374 119.576V44.6385M243.374 44.6385L250.187 42.3677C270.624 35.5552 288.791 36.6906 288.791 49.1802C288.791 61.6698 288.791 74.1594 288.791 74.1594M243.374 44.6385C234.859 47.4771 232.02 37.826 235.427 35.5552C238.833 33.2844 243.374 37.2583 243.374 44.6385ZM292.765 53.3812C299.918 53.7786 309.967 52.7 320.583 49.1802V96.8677C300.145 103.68 281.979 101.409 281.979 96.8677C281.979 93.4614 288.791 93.4614 288.791 90.0552C288.791 85.7406 272.555 83.4698 253.48 89.0333C251.549 89.601 250.187 91.3609 250.187 93.4047V119.576" stroke="white" stroke-opacity="0.95" stroke-width="1.41927" stroke-miterlimit="10" stroke-linecap="round" stroke-linejoin="round"/>
<path d="M226.722 162V144.545H237.903V147.196H229.884V151.935H237.136V154.585H229.884V162H226.722ZM243.733 144.545V162H240.648V144.545H243.733ZM250.673 162.264C249.843 162.264 249.096 162.116 248.431 161.821C247.772 161.52 247.249 161.077 246.863 160.491C246.482 159.906 246.292 159.185 246.292 158.327C246.292 157.588 246.428 156.977 246.701 156.494C246.974 156.011 247.346 155.625 247.817 155.335C248.289 155.045 248.82 154.827 249.411 154.679C250.008 154.526 250.624 154.415 251.261 154.347C252.028 154.267 252.65 154.196 253.127 154.134C253.604 154.065 253.951 153.963 254.167 153.827C254.388 153.685 254.499 153.466 254.499 153.17V153.119C254.499 152.477 254.309 151.98 253.928 151.628C253.548 151.276 252.999 151.099 252.283 151.099C251.528 151.099 250.928 151.264 250.485 151.594C250.048 151.923 249.752 152.312 249.599 152.761L246.718 152.352C246.945 151.557 247.32 150.892 247.843 150.358C248.366 149.818 249.005 149.415 249.761 149.148C250.516 148.875 251.352 148.739 252.266 148.739C252.897 148.739 253.525 148.812 254.15 148.96C254.775 149.108 255.346 149.352 255.863 149.693C256.38 150.028 256.795 150.486 257.107 151.065C257.425 151.645 257.585 152.369 257.585 153.239V162H254.619V160.202H254.516C254.329 160.565 254.065 160.906 253.724 161.224C253.388 161.537 252.965 161.79 252.454 161.983C251.948 162.17 251.354 162.264 250.673 162.264ZM251.474 159.997C252.093 159.997 252.63 159.875 253.085 159.631C253.539 159.381 253.888 159.051 254.133 158.642C254.383 158.233 254.508 157.787 254.508 157.304V155.761C254.411 155.841 254.246 155.915 254.013 155.983C253.786 156.051 253.531 156.111 253.246 156.162C252.962 156.213 252.681 156.259 252.403 156.298C252.124 156.338 251.883 156.372 251.678 156.401C251.218 156.463 250.806 156.565 250.442 156.707C250.079 156.849 249.792 157.048 249.582 157.304C249.371 157.554 249.266 157.878 249.266 158.276C249.266 158.844 249.474 159.273 249.888 159.562C250.303 159.852 250.832 159.997 251.474 159.997ZM266.38 167.131C265.272 167.131 264.32 166.983 263.525 166.688C262.729 166.392 262.09 165.997 261.607 165.503C261.124 165.009 260.789 164.466 260.602 163.875L263.38 163.202C263.505 163.435 263.687 163.673 263.925 163.918C264.164 164.168 264.485 164.375 264.888 164.54C265.298 164.71 265.812 164.795 266.431 164.795C267.306 164.795 268.031 164.585 268.604 164.165C269.178 163.744 269.465 163.065 269.465 162.128V159.648H269.312C269.153 159.966 268.92 160.293 268.613 160.628C268.312 160.963 267.911 161.244 267.411 161.472C266.917 161.699 266.295 161.812 265.545 161.812C264.539 161.812 263.627 161.577 262.809 161.105C261.996 160.628 261.349 159.918 260.866 158.974C260.388 158.026 260.15 156.838 260.15 155.412C260.15 153.974 260.388 152.761 260.866 151.773C261.349 150.778 261.999 150.026 262.817 149.514C263.636 148.997 264.548 148.739 265.553 148.739C266.32 148.739 266.951 148.869 267.445 149.131C267.945 149.386 268.343 149.696 268.638 150.06C268.934 150.418 269.158 150.756 269.312 151.074H269.482V148.909H272.525V162.213C272.525 163.31 272.258 164.222 271.724 164.949C271.19 165.682 270.46 166.227 269.533 166.585C268.607 166.949 267.556 167.131 266.38 167.131ZM266.406 159.392C267.059 159.392 267.616 159.233 268.076 158.915C268.536 158.597 268.886 158.139 269.124 157.543C269.363 156.946 269.482 156.23 269.482 155.395C269.482 154.571 269.363 153.849 269.124 153.23C268.891 152.611 268.545 152.131 268.085 151.79C267.63 151.443 267.07 151.27 266.406 151.27C265.718 151.27 265.144 151.449 264.684 151.807C264.224 152.165 263.877 152.656 263.644 153.281C263.411 153.901 263.295 154.605 263.295 155.395C263.295 156.196 263.411 156.898 263.644 157.5C263.883 158.097 264.232 158.562 264.692 158.898C265.158 159.227 265.729 159.392 266.406 159.392ZM281.38 167.131C280.272 167.131 279.32 166.983 278.525 166.688C277.729 166.392 277.09 165.997 276.607 165.503C276.124 165.009 275.789 164.466 275.602 163.875L278.38 163.202C278.505 163.435 278.687 163.673 278.925 163.918C279.164 164.168 279.485 164.375 279.888 164.54C280.298 164.71 280.812 164.795 281.431 164.795C282.306 164.795 283.031 164.585 283.604 164.165C284.178 163.744 284.465 163.065 284.465 162.128V159.648H284.312C284.153 159.966 283.92 160.293 283.613 160.628C283.312 160.963 282.911 161.244 282.411 161.472C281.917 161.699 281.295 161.812 280.545 161.812C279.539 161.812 278.627 161.577 277.809 161.105C276.996 160.628 276.349 159.918 275.866 158.974C275.388 158.026 275.15 156.838 275.15 155.412C275.15 153.974 275.388 152.761 275.866 151.773C276.349 150.778 276.999 150.026 277.817 149.514C278.636 148.997 279.548 148.739 280.553 148.739C281.32 148.739 281.951 148.869 282.445 149.131C282.945 149.386 283.343 149.696 283.638 150.06C283.934 150.418 284.158 150.756 284.312 151.074H284.482V148.909H287.525V162.213C287.525 163.31 287.258 164.222 286.724 164.949C286.19 165.682 285.46 166.227 284.533 166.585C283.607 166.949 282.556 167.131 281.38 167.131ZM281.406 159.392C282.059 159.392 282.616 159.233 283.076 158.915C283.536 158.597 283.886 158.139 284.124 157.543C284.363 156.946 284.482 156.23 284.482 155.395C284.482 154.571 284.363 153.849 284.124 153.23C283.891 152.611 283.545 152.131 283.085 151.79C282.63 151.443 282.07 151.27 281.406 151.27C280.718 151.27 280.144 151.449 279.684 151.807C279.224 152.165 278.877 152.656 278.644 153.281C278.411 153.901 278.295 154.605 278.295 155.395C278.295 156.196 278.411 156.898 278.644 157.5C278.883 158.097 279.232 158.562 279.692 158.898C280.158 159.227 280.729 159.392 281.406 159.392ZM296.482 162.256C295.17 162.256 294.036 161.983 293.082 161.438C292.133 160.886 291.403 160.108 290.891 159.102C290.38 158.091 290.124 156.901 290.124 155.531C290.124 154.185 290.38 153.003 290.891 151.986C291.408 150.963 292.13 150.168 293.056 149.599C293.982 149.026 295.07 148.739 296.32 148.739C297.127 148.739 297.888 148.869 298.604 149.131C299.326 149.386 299.962 149.784 300.513 150.324C301.07 150.864 301.508 151.551 301.826 152.386C302.144 153.216 302.303 154.205 302.303 155.352V156.298H291.573V154.219H299.346C299.34 153.628 299.212 153.102 298.962 152.642C298.712 152.176 298.363 151.81 297.914 151.543C297.471 151.276 296.954 151.142 296.363 151.142C295.732 151.142 295.178 151.295 294.701 151.602C294.224 151.903 293.852 152.301 293.585 152.795C293.323 153.284 293.19 153.821 293.184 154.406V156.222C293.184 156.983 293.323 157.636 293.602 158.182C293.88 158.722 294.269 159.136 294.769 159.426C295.269 159.71 295.854 159.852 296.525 159.852C296.974 159.852 297.38 159.79 297.744 159.665C298.107 159.534 298.423 159.344 298.69 159.094C298.957 158.844 299.158 158.534 299.295 158.165L302.175 158.489C301.994 159.25 301.647 159.915 301.136 160.483C300.63 161.045 299.982 161.483 299.192 161.795C298.403 162.102 297.499 162.256 296.482 162.256ZM309.771 162.23C308.743 162.23 307.822 161.966 307.01 161.438C306.197 160.909 305.555 160.142 305.084 159.136C304.612 158.131 304.376 156.909 304.376 155.472C304.376 154.017 304.615 152.79 305.092 151.79C305.575 150.784 306.226 150.026 307.044 149.514C307.862 148.997 308.774 148.739 309.78 148.739C310.547 148.739 311.178 148.869 311.672 149.131C312.166 149.386 312.558 149.696 312.848 150.06C313.138 150.418 313.362 150.756 313.521 151.074H313.649V144.545H316.743V162H313.709V159.938H313.521C313.362 160.256 313.132 160.594 312.831 160.952C312.53 161.304 312.132 161.605 311.638 161.855C311.143 162.105 310.521 162.23 309.771 162.23ZM310.632 159.699C311.286 159.699 311.842 159.523 312.303 159.17C312.763 158.812 313.112 158.315 313.351 157.679C313.589 157.043 313.709 156.301 313.709 155.455C313.709 154.608 313.589 153.872 313.351 153.247C313.118 152.622 312.771 152.136 312.311 151.79C311.857 151.443 311.297 151.27 310.632 151.27C309.945 151.27 309.371 151.449 308.911 151.807C308.45 152.165 308.104 152.659 307.871 153.29C307.638 153.92 307.521 154.642 307.521 155.455C307.521 156.273 307.638 157.003 307.871 157.645C308.109 158.281 308.459 158.784 308.919 159.153C309.385 159.517 309.956 159.699 310.632 159.699ZM236.207 183.344C236.128 182.599 235.793 182.02 235.202 181.605C234.616 181.19 233.855 180.983 232.918 180.983C232.259 180.983 231.693 181.082 231.222 181.281C230.75 181.48 230.389 181.75 230.139 182.091C229.889 182.432 229.761 182.821 229.756 183.259C229.756 183.622 229.838 183.937 230.003 184.205C230.173 184.472 230.403 184.699 230.693 184.886C230.983 185.068 231.304 185.222 231.656 185.347C232.009 185.472 232.364 185.577 232.722 185.662L234.358 186.071C235.017 186.224 235.651 186.432 236.259 186.693C236.872 186.955 237.42 187.284 237.903 187.682C238.392 188.08 238.778 188.56 239.062 189.122C239.347 189.685 239.489 190.344 239.489 191.099C239.489 192.122 239.227 193.023 238.705 193.801C238.182 194.574 237.426 195.179 236.438 195.616C235.455 196.048 234.264 196.264 232.866 196.264C231.509 196.264 230.33 196.054 229.33 195.634C228.335 195.213 227.557 194.599 226.994 193.793C226.438 192.986 226.136 192.003 226.091 190.844H229.202C229.247 191.452 229.435 191.957 229.764 192.361C230.094 192.764 230.523 193.065 231.051 193.264C231.585 193.463 232.182 193.562 232.841 193.562C233.528 193.562 234.131 193.46 234.648 193.256C235.17 193.045 235.58 192.756 235.875 192.386C236.17 192.011 236.321 191.574 236.327 191.074C236.321 190.619 236.188 190.244 235.926 189.949C235.665 189.648 235.298 189.398 234.827 189.199C234.361 188.994 233.815 188.812 233.19 188.653L231.205 188.142C229.767 187.773 228.631 187.213 227.795 186.463C226.966 185.707 226.551 184.705 226.551 183.455C226.551 182.426 226.83 181.526 227.386 180.753C227.949 179.98 228.713 179.381 229.679 178.955C230.645 178.523 231.739 178.307 232.96 178.307C234.199 178.307 235.284 178.523 236.216 178.955C237.153 179.381 237.889 179.974 238.423 180.736C238.957 181.491 239.233 182.361 239.25 183.344H236.207ZM250.515 190.494V182.909H253.6V196H250.609V193.673H250.472C250.177 194.406 249.691 195.006 249.015 195.472C248.344 195.937 247.518 196.17 246.535 196.17C245.677 196.17 244.918 195.98 244.259 195.599C243.606 195.213 243.094 194.653 242.725 193.92C242.356 193.182 242.171 192.29 242.171 191.244V182.909H245.256V190.767C245.256 191.597 245.484 192.256 245.938 192.744C246.393 193.233 246.989 193.477 247.728 193.477C248.183 193.477 248.623 193.366 249.049 193.145C249.475 192.923 249.825 192.594 250.097 192.156C250.376 191.713 250.515 191.159 250.515 190.494ZM262.483 196.256C261.176 196.256 260.054 195.969 259.116 195.395C258.185 194.821 257.466 194.028 256.96 193.017C256.46 192 256.21 190.83 256.21 189.506C256.21 188.176 256.466 187.003 256.977 185.986C257.489 184.963 258.21 184.168 259.142 183.599C260.08 183.026 261.188 182.739 262.466 182.739C263.528 182.739 264.469 182.935 265.287 183.327C266.111 183.713 266.767 184.261 267.256 184.972C267.744 185.676 268.023 186.5 268.091 187.443H265.142C265.023 186.812 264.739 186.287 264.29 185.866C263.847 185.44 263.253 185.227 262.509 185.227C261.878 185.227 261.324 185.398 260.847 185.739C260.369 186.074 259.997 186.557 259.73 187.188C259.469 187.818 259.338 188.574 259.338 189.455C259.338 190.347 259.469 191.114 259.73 191.756C259.991 192.392 260.358 192.884 260.83 193.23C261.307 193.571 261.866 193.741 262.509 193.741C262.963 193.741 263.369 193.656 263.727 193.486C264.091 193.31 264.395 193.057 264.639 192.727C264.884 192.398 265.051 191.997 265.142 191.526H268.091C268.017 192.452 267.744 193.273 267.273 193.989C266.801 194.699 266.159 195.256 265.347 195.659C264.534 196.057 263.58 196.256 262.483 196.256ZM276.335 196.256C275.028 196.256 273.906 195.969 272.968 195.395C272.036 194.821 271.317 194.028 270.812 193.017C270.312 192 270.062 190.83 270.062 189.506C270.062 188.176 270.317 187.003 270.829 185.986C271.34 184.963 272.062 184.168 272.994 183.599C273.931 183.026 275.039 182.739 276.317 182.739C277.38 182.739 278.32 182.935 279.138 183.327C279.962 183.713 280.619 184.261 281.107 184.972C281.596 185.676 281.874 186.5 281.942 187.443H278.994C278.874 186.812 278.59 186.287 278.141 185.866C277.698 185.44 277.104 185.227 276.36 185.227C275.729 185.227 275.175 185.398 274.698 185.739C274.221 186.074 273.849 186.557 273.582 187.188C273.32 187.818 273.19 188.574 273.19 189.455C273.19 190.347 273.32 191.114 273.582 191.756C273.843 192.392 274.21 192.884 274.681 193.23C275.158 193.571 275.718 193.741 276.36 193.741C276.815 193.741 277.221 193.656 277.579 193.486C277.942 193.31 278.246 193.057 278.491 192.727C278.735 192.398 278.903 191.997 278.994 191.526H281.942C281.869 192.452 281.596 193.273 281.124 193.989C280.653 194.699 280.011 195.256 279.198 195.659C278.386 196.057 277.431 196.256 276.335 196.256ZM290.271 196.256C288.959 196.256 287.825 195.983 286.871 195.438C285.922 194.886 285.192 194.108 284.68 193.102C284.169 192.091 283.913 190.901 283.913 189.531C283.913 188.185 284.169 187.003 284.68 185.986C285.197 184.963 285.919 184.168 286.845 183.599C287.771 183.026 288.859 182.739 290.109 182.739C290.916 182.739 291.678 182.869 292.393 183.131C293.115 183.386 293.751 183.784 294.303 184.324C294.859 184.864 295.297 185.551 295.615 186.386C295.933 187.216 296.092 188.205 296.092 189.352V190.298H285.362V188.219H293.135C293.129 187.628 293.001 187.102 292.751 186.642C292.501 186.176 292.152 185.81 291.703 185.543C291.26 185.276 290.743 185.142 290.152 185.142C289.521 185.142 288.967 185.295 288.49 185.602C288.013 185.903 287.641 186.301 287.374 186.795C287.112 187.284 286.979 187.821 286.973 188.406V190.222C286.973 190.983 287.112 191.636 287.391 192.182C287.669 192.722 288.058 193.136 288.558 193.426C289.058 193.71 289.643 193.852 290.314 193.852C290.763 193.852 291.169 193.79 291.533 193.665C291.896 193.534 292.212 193.344 292.479 193.094C292.746 192.844 292.947 192.534 293.084 192.165L295.964 192.489C295.783 193.25 295.436 193.915 294.925 194.483C294.419 195.045 293.771 195.483 292.982 195.795C292.192 196.102 291.288 196.256 290.271 196.256ZM309.049 186.369L306.237 186.676C306.157 186.392 306.018 186.125 305.819 185.875C305.626 185.625 305.364 185.423 305.035 185.27C304.705 185.116 304.302 185.04 303.825 185.04C303.183 185.04 302.643 185.179 302.205 185.457C301.773 185.736 301.56 186.097 301.566 186.54C301.56 186.92 301.7 187.23 301.984 187.469C302.273 187.707 302.751 187.903 303.415 188.057L305.648 188.534C306.887 188.801 307.808 189.224 308.41 189.804C309.018 190.384 309.325 191.142 309.33 192.08C309.325 192.903 309.083 193.631 308.606 194.261C308.134 194.886 307.478 195.375 306.637 195.727C305.796 196.08 304.83 196.256 303.739 196.256C302.137 196.256 300.847 195.92 299.87 195.25C298.893 194.574 298.31 193.634 298.123 192.429L301.131 192.139C301.268 192.73 301.558 193.176 302.001 193.477C302.444 193.778 303.021 193.929 303.731 193.929C304.464 193.929 305.052 193.778 305.495 193.477C305.944 193.176 306.168 192.804 306.168 192.361C306.168 191.986 306.023 191.676 305.734 191.432C305.45 191.187 305.006 191 304.404 190.869L302.171 190.401C300.915 190.139 299.987 189.699 299.384 189.08C298.782 188.455 298.484 187.665 298.489 186.71C298.484 185.903 298.702 185.205 299.146 184.614C299.594 184.017 300.217 183.557 301.012 183.233C301.813 182.903 302.737 182.739 303.782 182.739C305.316 182.739 306.523 183.065 307.404 183.719C308.29 184.372 308.839 185.256 309.049 186.369ZM322.221 186.369L319.408 186.676C319.329 186.392 319.19 186.125 318.991 185.875C318.798 185.625 318.536 185.423 318.207 185.27C317.877 185.116 317.474 185.04 316.996 185.04C316.354 185.04 315.815 185.179 315.377 185.457C314.945 185.736 314.732 186.097 314.738 186.54C314.732 186.92 314.871 187.23 315.156 187.469C315.445 187.707 315.923 187.903 316.587 188.057L318.82 188.534C320.059 188.801 320.979 189.224 321.582 189.804C322.19 190.384 322.496 191.142 322.502 192.08C322.496 192.903 322.255 193.631 321.778 194.261C321.306 194.886 320.65 195.375 319.809 195.727C318.968 196.08 318.002 196.256 316.911 196.256C315.309 196.256 314.019 195.92 313.042 195.25C312.065 194.574 311.482 193.634 311.295 192.429L314.303 192.139C314.44 192.73 314.729 193.176 315.173 193.477C315.616 193.778 316.192 193.929 316.903 193.929C317.636 193.929 318.224 193.778 318.667 193.477C319.116 193.176 319.34 192.804 319.34 192.361C319.34 191.986 319.195 191.676 318.906 191.432C318.621 191.187 318.178 191 317.576 190.869L315.343 190.401C314.087 190.139 313.158 189.699 312.556 189.08C311.954 188.455 311.656 187.665 311.661 186.71C311.656 185.903 311.874 185.205 312.317 184.614C312.766 184.017 313.388 183.557 314.184 183.233C314.985 182.903 315.908 182.739 316.954 182.739C318.488 182.739 319.695 183.065 320.576 183.719C321.462 184.372 322.011 185.256 322.221 186.369ZM228.486 230.188C227.969 230.188 227.526 230.006 227.156 229.642C226.787 229.278 226.605 228.835 226.611 228.312C226.605 227.801 226.787 227.364 227.156 227C227.526 226.636 227.969 226.455 228.486 226.455C228.986 226.455 229.42 226.636 229.79 227C230.165 227.364 230.355 227.801 230.361 228.312C230.355 228.659 230.264 228.974 230.088 229.259C229.918 229.543 229.69 229.77 229.406 229.94C229.128 230.105 228.821 230.188 228.486 230.188ZM235.447 230.188C234.93 230.188 234.487 230.006 234.117 229.642C233.748 229.278 233.566 228.835 233.572 228.312C233.566 227.801 233.748 227.364 234.117 227C234.487 226.636 234.93 226.455 235.447 226.455C235.947 226.455 236.381 226.636 236.751 227C237.126 227.364 237.316 227.801 237.322 228.312C237.316 228.659 237.225 228.974 237.049 229.259C236.879 229.543 236.651 229.77 236.367 229.94C236.089 230.105 235.782 230.188 235.447 230.188ZM242.408 230.188C241.891 230.188 241.447 230.006 241.078 229.642C240.709 229.278 240.527 228.835 240.533 228.312C240.527 227.801 240.709 227.364 241.078 227C241.447 226.636 241.891 226.455 242.408 226.455C242.908 226.455 243.342 226.636 243.712 227C244.087 227.364 244.277 227.801 244.283 228.312C244.277 228.659 244.186 228.974 244.01 229.259C243.839 229.543 243.612 229.77 243.328 229.94C243.05 230.105 242.743 230.188 242.408 230.188Z" fill="white" fill-opacity="0.95"/>
</svg>
