<svg width="559" height="322" viewBox="0 0 559 322" fill="none" xmlns="http://www.w3.org/2000/svg">
<rect width="559" height="322" rx="16" fill="#1A1A1A"/>
<path d="M145.031 242.276C144.956 241.603 144.643 241.082 144.094 240.713C143.545 240.339 142.853 240.152 142.02 240.152C141.423 240.152 140.907 240.247 140.472 240.436C140.036 240.621 139.698 240.876 139.456 241.203C139.219 241.525 139.101 241.892 139.101 242.304C139.101 242.65 139.181 242.948 139.342 243.199C139.508 243.45 139.724 243.661 139.989 243.831C140.259 243.997 140.547 244.136 140.855 244.25C141.163 244.359 141.459 244.449 141.743 244.52L143.163 244.889C143.627 245.003 144.103 245.157 144.591 245.351C145.079 245.545 145.531 245.801 145.948 246.118C146.364 246.435 146.7 246.828 146.956 247.297C147.217 247.766 147.347 248.327 147.347 248.98C147.347 249.804 147.134 250.536 146.708 251.175C146.286 251.814 145.673 252.318 144.868 252.688C144.068 253.057 143.1 253.241 141.963 253.241C140.874 253.241 139.932 253.069 139.136 252.723C138.341 252.377 137.718 251.887 137.269 251.253C136.819 250.614 136.57 249.856 136.523 248.98H138.725C138.767 249.506 138.938 249.944 139.236 250.294C139.539 250.64 139.925 250.898 140.394 251.068C140.867 251.234 141.386 251.317 141.949 251.317C142.569 251.317 143.121 251.22 143.604 251.026C144.092 250.827 144.475 250.552 144.754 250.202C145.034 249.847 145.173 249.432 145.173 248.959C145.173 248.528 145.05 248.175 144.804 247.901C144.563 247.626 144.234 247.399 143.817 247.219C143.405 247.039 142.939 246.88 142.418 246.743L140.699 246.274C139.534 245.957 138.611 245.491 137.929 244.875C137.252 244.259 136.913 243.445 136.913 242.432C136.913 241.594 137.141 240.862 137.595 240.237C138.05 239.612 138.665 239.127 139.442 238.781C140.218 238.431 141.094 238.256 142.07 238.256C143.055 238.256 143.923 238.429 144.676 238.774C145.434 239.12 146.03 239.596 146.466 240.202C146.902 240.803 147.129 241.494 147.148 242.276H145.031Z" fill="white" fill-opacity="0.95"/>
<path d="M241.098 238.455H243.761L248.392 249.761H248.563L253.193 238.455H255.857V253H253.769V242.474H253.634L249.344 252.979H247.611L243.321 242.467H243.186V253H241.098V238.455Z" fill="white" fill-opacity="0.95"/>
<path d="M370.098 253V238.455H372.293V251.111H378.884V253H370.098Z" fill="white" fill-opacity="0.95"/>
<circle cx="141.59" cy="133.607" r="20.5897" stroke="#CACACA"/>
<circle cx="417.41" cy="81.0897" r="20.5897" stroke="white" stroke-opacity="0.9"/>
<circle cx="232.565" cy="142.705" r="20.5897" stroke="#CACACA"/>
<circle cx="338.634" cy="156.145" r="28.6534" stroke="white" stroke-opacity="0.9"/>
<rect x="233.066" y="103.507" width="38.6983" height="38.6983" stroke="#CACACA"/>
<rect x="338.927" y="81.5898" width="77.9831" height="77.9831" stroke="white" stroke-opacity="0.9"/>
</svg>
