<svg width="224" height="40" viewBox="0 0 224 40" fill="none" xmlns="http://www.w3.org/2000/svg">
<rect width="224" height="40" rx="20" fill="white" fill-opacity="0.95"/>
<path d="M17.5128 26V14.3636H19.2685V19.4205H25.0696V14.3636H26.831V26H25.0696V20.9261H19.2685V26H17.5128ZM32.9276 26.1761C32.1094 26.1761 31.3954 25.9886 30.7855 25.6136C30.1757 25.2386 29.7022 24.714 29.3651 24.0398C29.0279 23.3655 28.8594 22.5777 28.8594 21.6761C28.8594 20.7708 29.0279 19.9792 29.3651 19.3011C29.7022 18.6231 30.1757 18.0966 30.7855 17.7216C31.3954 17.3466 32.1094 17.1591 32.9276 17.1591C33.7457 17.1591 34.4598 17.3466 35.0696 17.7216C35.6795 18.0966 36.1529 18.6231 36.4901 19.3011C36.8272 19.9792 36.9957 20.7708 36.9957 21.6761C36.9957 22.5777 36.8272 23.3655 36.4901 24.0398C36.1529 24.714 35.6795 25.2386 35.0696 25.6136C34.4598 25.9886 33.7457 26.1761 32.9276 26.1761ZM32.9332 24.75C33.4635 24.75 33.9029 24.6098 34.2514 24.3295C34.5999 24.0492 34.8575 23.6761 35.0241 23.2102C35.1946 22.7443 35.2798 22.2311 35.2798 21.6705C35.2798 21.1136 35.1946 20.6023 35.0241 20.1364C34.8575 19.6667 34.5999 19.2898 34.2514 19.0057C33.9029 18.7216 33.4635 18.5795 32.9332 18.5795C32.3991 18.5795 31.956 18.7216 31.6037 19.0057C31.2552 19.2898 30.9957 19.6667 30.8253 20.1364C30.6586 20.6023 30.5753 21.1136 30.5753 21.6705C30.5753 22.2311 30.6586 22.7443 30.8253 23.2102C30.9957 23.6761 31.2552 24.0492 31.6037 24.3295C31.956 24.6098 32.3991 24.75 32.9332 24.75ZM40.5185 26L37.9503 17.2727H39.706L41.4162 23.6818H41.5014L43.2173 17.2727H44.973L46.6776 23.6534H46.7628L48.4616 17.2727H50.2173L47.6548 26H45.9219L44.1491 19.6989H44.0185L42.2457 26H40.5185ZM60.1378 17.2727V18.6364H55.3707V17.2727H60.1378ZM56.6491 15.1818H58.348V23.4375C58.348 23.767 58.3973 24.0152 58.4957 24.1818C58.5942 24.3447 58.7211 24.4564 58.8764 24.517C59.0355 24.5739 59.2079 24.6023 59.3935 24.6023C59.5298 24.6023 59.6491 24.5928 59.7514 24.5739C59.8537 24.5549 59.9332 24.5398 59.9901 24.5284L60.2969 25.9318C60.1984 25.9697 60.0582 26.0076 59.8764 26.0455C59.6946 26.0871 59.4673 26.1098 59.1946 26.1136C58.7476 26.1212 58.331 26.0417 57.9446 25.875C57.5582 25.7083 57.2457 25.4508 57.0071 25.1023C56.7685 24.7538 56.6491 24.3163 56.6491 23.7898V15.1818ZM65.5994 26.1761C64.7813 26.1761 64.0672 25.9886 63.4574 25.6136C62.8475 25.2386 62.3741 24.714 62.0369 24.0398C61.6998 23.3655 61.5312 22.5777 61.5312 21.6761C61.5312 20.7708 61.6998 19.9792 62.0369 19.3011C62.3741 18.6231 62.8475 18.0966 63.4574 17.7216C64.0672 17.3466 64.7813 17.1591 65.5994 17.1591C66.4176 17.1591 67.1316 17.3466 67.7415 17.7216C68.3513 18.0966 68.8248 18.6231 69.1619 19.3011C69.4991 19.9792 69.6676 20.7708 69.6676 21.6761C69.6676 22.5777 69.4991 23.3655 69.1619 24.0398C68.8248 24.714 68.3513 25.2386 67.7415 25.6136C67.1316 25.9886 66.4176 26.1761 65.5994 26.1761ZM65.6051 24.75C66.1354 24.75 66.5748 24.6098 66.9233 24.3295C67.2718 24.0492 67.5294 23.6761 67.696 23.2102C67.8665 22.7443 67.9517 22.2311 67.9517 21.6705C67.9517 21.1136 67.8665 20.6023 67.696 20.1364C67.5294 19.6667 67.2718 19.2898 66.9233 19.0057C66.5748 18.7216 66.1354 18.5795 65.6051 18.5795C65.071 18.5795 64.6278 18.7216 64.2756 19.0057C63.9271 19.2898 63.6676 19.6667 63.4972 20.1364C63.3305 20.6023 63.2472 21.1136 63.2472 21.6705C63.2472 22.2311 63.3305 22.7443 63.4972 23.2102C63.6676 23.6761 63.9271 24.0492 64.2756 24.3295C64.6278 24.6098 65.071 24.75 65.6051 24.75ZM79.8722 17.2727V18.6364H75.1051V17.2727H79.8722ZM76.3835 15.1818H78.0824V23.4375C78.0824 23.767 78.1316 24.0152 78.2301 24.1818C78.3286 24.3447 78.4555 24.4564 78.6108 24.517C78.7699 24.5739 78.9422 24.6023 79.1278 24.6023C79.2642 24.6023 79.3835 24.5928 79.4858 24.5739C79.5881 24.5549 79.6676 24.5398 79.7244 24.5284L80.0312 25.9318C79.9328 25.9697 79.7926 26.0076 79.6108 26.0455C79.429 26.0871 79.2017 26.1098 78.929 26.1136C78.482 26.1212 78.0653 26.0417 77.679 25.875C77.2926 25.7083 76.9801 25.4508 76.7415 25.1023C76.5028 24.7538 76.3835 24.3163 76.3835 23.7898V15.1818ZM81.7514 26V17.2727H83.3935V18.6591H83.4844C83.6435 18.1894 83.9238 17.8201 84.3253 17.5511C84.7306 17.2784 85.1889 17.142 85.7003 17.142C85.8063 17.142 85.9313 17.1458 86.0753 17.1534C86.223 17.161 86.3385 17.1705 86.4219 17.1818V18.8068C86.3537 18.7879 86.2325 18.767 86.0582 18.7443C85.884 18.7178 85.7098 18.7045 85.5355 18.7045C85.134 18.7045 84.776 18.7898 84.4616 18.9602C84.151 19.1269 83.9048 19.3598 83.723 19.6591C83.5412 19.9545 83.4503 20.2917 83.4503 20.6705V26H81.7514ZM93.4205 22.3807V17.2727H95.125V26H93.4545V24.4886H93.3636C93.1629 24.9545 92.8409 25.3428 92.3977 25.6534C91.9583 25.9602 91.411 26.1136 90.7557 26.1136C90.1951 26.1136 89.6989 25.9905 89.267 25.7443C88.839 25.4943 88.5019 25.125 88.2557 24.6364C88.0133 24.1477 87.892 23.5436 87.892 22.8239V17.2727H89.5909V22.6193C89.5909 23.214 89.7557 23.6875 90.0852 24.0398C90.4148 24.392 90.8428 24.5682 91.3693 24.5682C91.6875 24.5682 92.0038 24.4886 92.3182 24.3295C92.6364 24.1705 92.8996 23.9299 93.108 23.608C93.3201 23.286 93.4242 22.8769 93.4205 22.3807ZM99.1065 20.8182V26H97.4077V17.2727H99.0384V18.6932H99.1463C99.3471 18.2311 99.6615 17.8598 100.089 17.5795C100.521 17.2992 101.065 17.1591 101.72 17.1591C102.315 17.1591 102.836 17.2841 103.283 17.5341C103.73 17.7803 104.076 18.1477 104.322 18.6364C104.569 19.125 104.692 19.7292 104.692 20.4489V26H102.993V20.6534C102.993 20.0208 102.828 19.5265 102.499 19.1705C102.169 18.8106 101.716 18.6307 101.141 18.6307C100.747 18.6307 100.396 18.7159 100.089 18.8864C99.7865 19.0568 99.5459 19.3068 99.3679 19.6364C99.1937 19.9621 99.1065 20.3561 99.1065 20.8182ZM110.646 26.1761C109.802 26.1761 109.074 25.9848 108.464 25.6023C107.858 25.2159 107.393 24.6837 107.067 24.0057C106.741 23.3277 106.578 22.5511 106.578 21.6761C106.578 20.7898 106.745 20.0076 107.078 19.3295C107.411 18.6477 107.881 18.1155 108.487 17.733C109.093 17.3504 109.807 17.1591 110.629 17.1591C111.292 17.1591 111.883 17.2822 112.402 17.5284C112.921 17.7708 113.339 18.1117 113.658 18.5511C113.98 18.9905 114.171 19.5038 114.232 20.0909H112.578C112.487 19.6818 112.279 19.3295 111.953 19.0341C111.631 18.7386 111.199 18.5909 110.658 18.5909C110.184 18.5909 109.769 18.7159 109.413 18.9659C109.061 19.2121 108.786 19.5644 108.589 20.0227C108.393 20.4773 108.294 21.0152 108.294 21.6364C108.294 22.2727 108.391 22.822 108.584 23.2841C108.777 23.7462 109.05 24.1042 109.402 24.358C109.758 24.6117 110.177 24.7386 110.658 24.7386C110.98 24.7386 111.271 24.6799 111.533 24.5625C111.798 24.4413 112.019 24.2689 112.197 24.0455C112.379 23.822 112.506 23.553 112.578 23.2386H114.232C114.171 23.803 113.987 24.3068 113.68 24.75C113.374 25.1932 112.963 25.5417 112.447 25.7955C111.936 26.0492 111.336 26.1761 110.646 26.1761ZM118.588 26.1932C118.035 26.1932 117.535 26.0909 117.088 25.8864C116.641 25.678 116.287 25.3769 116.026 24.983C115.768 24.589 115.639 24.1061 115.639 23.5341C115.639 23.0417 115.734 22.6364 115.923 22.3182C116.113 22 116.368 21.7481 116.69 21.5625C117.012 21.3769 117.372 21.2367 117.77 21.142C118.168 21.0473 118.573 20.9754 118.986 20.9261C119.509 20.8655 119.933 20.8163 120.259 20.7784C120.584 20.7367 120.821 20.6705 120.969 20.5795C121.116 20.4886 121.19 20.3409 121.19 20.1364V20.0966C121.19 19.6004 121.05 19.2159 120.77 18.9432C120.493 18.6705 120.08 18.5341 119.531 18.5341C118.959 18.5341 118.509 18.661 118.179 18.9148C117.853 19.1648 117.628 19.4432 117.503 19.75L115.906 19.3864C116.096 18.8561 116.372 18.428 116.736 18.1023C117.103 17.7727 117.526 17.5341 118.003 17.3864C118.48 17.2348 118.982 17.1591 119.509 17.1591C119.857 17.1591 120.226 17.2008 120.616 17.2841C121.01 17.3636 121.378 17.5114 121.719 17.7273C122.063 17.9432 122.346 18.2519 122.565 18.6534C122.785 19.0511 122.895 19.5682 122.895 20.2045V26H121.236V24.8068H121.168C121.058 25.0265 120.893 25.2424 120.673 25.4545C120.454 25.6667 120.171 25.8428 119.827 25.983C119.482 26.1231 119.069 26.1932 118.588 26.1932ZM118.957 24.8295C119.427 24.8295 119.829 24.7367 120.162 24.5511C120.499 24.3655 120.755 24.1231 120.929 23.8239C121.107 23.5208 121.196 23.197 121.196 22.8523V21.7273C121.135 21.7879 121.018 21.8447 120.844 21.8977C120.673 21.947 120.478 21.9905 120.259 22.0284C120.039 22.0625 119.825 22.0947 119.616 22.125C119.408 22.1515 119.234 22.1742 119.094 22.1932C118.764 22.2348 118.463 22.3049 118.19 22.4034C117.921 22.5019 117.705 22.6439 117.543 22.8295C117.384 23.0114 117.304 23.2538 117.304 23.5568C117.304 23.9773 117.459 24.2955 117.77 24.5114C118.08 24.7235 118.476 24.8295 118.957 24.8295ZM129.232 17.2727V18.6364H124.464V17.2727H129.232ZM125.743 15.1818H127.442V23.4375C127.442 23.767 127.491 24.0152 127.589 24.1818C127.688 24.3447 127.815 24.4564 127.97 24.517C128.129 24.5739 128.302 24.6023 128.487 24.6023C128.624 24.6023 128.743 24.5928 128.845 24.5739C128.947 24.5549 129.027 24.5398 129.084 24.5284L129.391 25.9318C129.292 25.9697 129.152 26.0076 128.97 26.0455C128.788 26.0871 128.561 26.1098 128.288 26.1136C127.841 26.1212 127.425 26.0417 127.038 25.875C126.652 25.7083 126.339 25.4508 126.101 25.1023C125.862 24.7538 125.743 24.3163 125.743 23.7898V15.1818ZM134.778 26.1761C133.919 26.1761 133.178 25.9924 132.557 25.625C131.939 25.2538 131.462 24.733 131.125 24.0625C130.792 23.3883 130.625 22.5985 130.625 21.6932C130.625 20.7992 130.792 20.0114 131.125 19.3295C131.462 18.6477 131.932 18.1155 132.534 17.733C133.14 17.3504 133.848 17.1591 134.659 17.1591C135.152 17.1591 135.629 17.2405 136.091 17.4034C136.553 17.5663 136.968 17.822 137.335 18.1705C137.703 18.5189 137.992 18.9716 138.205 19.5284C138.417 20.0814 138.523 20.7538 138.523 21.5455V22.1477H131.585V20.875H136.858C136.858 20.428 136.767 20.0322 136.585 19.6875C136.403 19.339 136.148 19.0644 135.818 18.8636C135.492 18.6629 135.11 18.5625 134.67 18.5625C134.193 18.5625 133.777 18.6799 133.42 18.9148C133.068 19.1458 132.795 19.4489 132.602 19.8239C132.413 20.1951 132.318 20.5985 132.318 21.0341V22.0284C132.318 22.6117 132.42 23.108 132.625 23.517C132.833 23.9261 133.123 24.2386 133.494 24.4545C133.866 24.6667 134.299 24.7727 134.795 24.7727C135.117 24.7727 135.411 24.7273 135.676 24.6364C135.941 24.5417 136.17 24.4015 136.364 24.2159C136.557 24.0303 136.705 23.8011 136.807 23.5284L138.415 23.8182C138.286 24.2917 138.055 24.7064 137.722 25.0625C137.392 25.4148 136.977 25.6894 136.477 25.8864C135.981 26.0795 135.415 26.1761 134.778 26.1761ZM144.642 26V17.2727H146.341V26H144.642ZM145.5 15.9261C145.205 15.9261 144.951 15.8277 144.739 15.6307C144.53 15.4299 144.426 15.1913 144.426 14.9148C144.426 14.6345 144.53 14.3958 144.739 14.1989C144.951 13.9981 145.205 13.8977 145.5 13.8977C145.795 13.8977 146.047 13.9981 146.256 14.1989C146.468 14.3958 146.574 14.6345 146.574 14.9148C146.574 15.1913 146.468 15.4299 146.256 15.6307C146.047 15.8277 145.795 15.9261 145.5 15.9261ZM150.325 20.8182V26H148.626V17.2727H150.257V18.6932H150.365C150.566 18.2311 150.88 17.8598 151.308 17.5795C151.74 17.2992 152.284 17.1591 152.939 17.1591C153.534 17.1591 154.054 17.2841 154.501 17.5341C154.948 17.7803 155.295 18.1477 155.541 18.6364C155.787 19.125 155.911 19.7292 155.911 20.4489V26H154.212V20.6534C154.212 20.0208 154.047 19.5265 153.717 19.1705C153.388 18.8106 152.935 18.6307 152.359 18.6307C151.965 18.6307 151.615 18.7159 151.308 18.8864C151.005 19.0568 150.765 19.3068 150.587 19.6364C150.412 19.9621 150.325 20.3561 150.325 20.8182ZM162.56 26V14.3636H169.776V15.875H164.315V19.4205H169.259V20.9261H164.315V26H162.56ZM171.798 26V17.2727H173.497V26H171.798ZM172.656 15.9261C172.361 15.9261 172.107 15.8277 171.895 15.6307C171.687 15.4299 171.582 15.1913 171.582 14.9148C171.582 14.6345 171.687 14.3958 171.895 14.1989C172.107 13.9981 172.361 13.8977 172.656 13.8977C172.952 13.8977 173.204 13.9981 173.412 14.1989C173.624 14.3958 173.73 14.6345 173.73 14.9148C173.73 15.1913 173.624 15.4299 173.412 15.6307C173.204 15.8277 172.952 15.9261 172.656 15.9261ZM179.442 29.4375C178.749 29.4375 178.152 29.3466 177.652 29.1648C177.156 28.983 176.75 28.7424 176.436 28.4432C176.122 28.1477 175.887 27.8258 175.732 27.4773L177.192 26.875C177.294 27.0341 177.43 27.2064 177.601 27.392C177.775 27.5777 178.01 27.7367 178.305 27.8693C178.605 28.0019 178.989 28.0682 179.459 28.0682C180.103 28.0682 180.635 27.9129 181.055 27.6023C181.476 27.2917 181.686 26.7992 181.686 26.125V24.4091H181.578C181.476 24.5947 181.328 24.8011 181.135 25.0284C180.946 25.2557 180.684 25.4527 180.351 25.6193C180.018 25.786 179.584 25.8693 179.05 25.8693C178.36 25.8693 177.739 25.7083 177.186 25.3864C176.637 25.0606 176.201 24.5814 175.879 23.9489C175.561 23.3125 175.402 22.5303 175.402 21.6023C175.402 20.6742 175.559 19.8788 175.874 19.2159C176.192 18.553 176.627 18.0455 177.18 17.6932C177.733 17.3371 178.36 17.1591 179.061 17.1591C179.603 17.1591 180.04 17.25 180.374 17.4318C180.707 17.6098 180.966 17.8182 181.152 18.0568C181.341 18.2955 181.487 18.5057 181.589 18.6875H181.714V17.2727H183.379V26.1932C183.379 26.9356 183.205 27.5455 182.857 28.0227C182.508 28.5038 182.036 28.8598 181.442 29.0909C180.851 29.322 180.184 29.4375 179.442 29.4375ZM179.425 24.4602C179.913 24.4602 180.326 24.3466 180.663 24.1193C181.004 23.8883 181.262 23.5587 181.436 23.1307C181.614 22.6989 181.703 22.1818 181.703 21.5795C181.703 20.9924 181.616 20.4754 181.442 20.0284C181.268 19.5814 181.012 19.233 180.675 18.983C180.338 18.7292 179.921 18.6023 179.425 18.6023C178.913 18.6023 178.487 18.7348 178.146 19C177.805 19.2614 177.548 19.6174 177.374 20.0682C177.203 20.5189 177.118 21.0227 177.118 21.5795C177.118 22.1515 177.205 22.6534 177.379 23.0852C177.554 23.517 177.811 23.8542 178.152 24.0966C178.497 24.339 178.921 24.4602 179.425 24.4602ZM185.658 26V17.2727H187.288V18.6932H187.396C187.578 18.2121 187.875 17.8371 188.288 17.5682C188.701 17.2955 189.196 17.1591 189.771 17.1591C190.355 17.1591 190.843 17.2955 191.237 17.5682C191.635 17.8409 191.929 18.2159 192.118 18.6932H192.209C192.417 18.2273 192.749 17.8561 193.203 17.5795C193.658 17.2992 194.199 17.1591 194.828 17.1591C195.62 17.1591 196.266 17.4072 196.766 17.9034C197.269 18.3996 197.521 19.1477 197.521 20.1477V26H195.822V20.3068C195.822 19.7159 195.661 19.2879 195.339 19.0227C195.018 18.7576 194.633 18.625 194.186 18.625C193.633 18.625 193.203 18.7955 192.896 19.1364C192.589 19.4735 192.436 19.9072 192.436 20.4375V26H190.743V20.1989C190.743 19.7254 190.595 19.3447 190.3 19.0568C190.004 18.7689 189.62 18.625 189.146 18.625C188.824 18.625 188.527 18.7102 188.254 18.8807C187.985 19.0473 187.768 19.2803 187.601 19.5795C187.438 19.8788 187.357 20.2254 187.357 20.6193V26H185.658ZM202.338 26.1932C201.785 26.1932 201.285 26.0909 200.838 25.8864C200.391 25.678 200.037 25.3769 199.776 24.983C199.518 24.589 199.389 24.1061 199.389 23.5341C199.389 23.0417 199.484 22.6364 199.673 22.3182C199.863 22 200.118 21.7481 200.44 21.5625C200.762 21.3769 201.122 21.2367 201.52 21.142C201.918 21.0473 202.323 20.9754 202.736 20.9261C203.259 20.8655 203.683 20.8163 204.009 20.7784C204.334 20.7367 204.571 20.6705 204.719 20.5795C204.866 20.4886 204.94 20.3409 204.94 20.1364V20.0966C204.94 19.6004 204.8 19.2159 204.52 18.9432C204.243 18.6705 203.83 18.5341 203.281 18.5341C202.709 18.5341 202.259 18.661 201.929 18.9148C201.603 19.1648 201.378 19.4432 201.253 19.75L199.656 19.3864C199.846 18.8561 200.122 18.428 200.486 18.1023C200.853 17.7727 201.276 17.5341 201.753 17.3864C202.23 17.2348 202.732 17.1591 203.259 17.1591C203.607 17.1591 203.976 17.2008 204.366 17.2841C204.76 17.3636 205.128 17.5114 205.469 17.7273C205.813 17.9432 206.096 18.2519 206.315 18.6534C206.535 19.0511 206.645 19.5682 206.645 20.2045V26H204.986V24.8068H204.918C204.808 25.0265 204.643 25.2424 204.423 25.4545C204.204 25.6667 203.921 25.8428 203.577 25.983C203.232 26.1231 202.819 26.1932 202.338 26.1932ZM202.707 24.8295C203.177 24.8295 203.579 24.7367 203.912 24.5511C204.249 24.3655 204.505 24.1231 204.679 23.8239C204.857 23.5208 204.946 23.197 204.946 22.8523V21.7273C204.885 21.7879 204.768 21.8447 204.594 21.8977C204.423 21.947 204.228 21.9905 204.009 22.0284C203.789 22.0625 203.575 22.0947 203.366 22.125C203.158 22.1515 202.984 22.1742 202.844 22.1932C202.514 22.2348 202.213 22.3049 201.94 22.4034C201.671 22.5019 201.455 22.6439 201.293 22.8295C201.134 23.0114 201.054 23.2538 201.054 23.5568C201.054 23.9773 201.209 24.2955 201.52 24.5114C201.83 24.7235 202.226 24.8295 202.707 24.8295Z" fill="black" fill-opacity="0.95"/>
<path d="M16.2344 29.1818H207.764V30.2727H16.2344V29.1818Z" fill="black" fill-opacity="0.95"/>
<a href="https://help.figma.com/hc/en-us/articles/360039956634-Explore-text-properties#Text_truncation">
<rect fill="black" fill-opacity="0" x="0.234375" y="2.31818" width="191.53" height="19.3636"/>
</a>
</svg>
