<svg width="559" height="176" viewBox="0 0 559 176" fill="none" xmlns="http://www.w3.org/2000/svg">
<rect width="559" height="176" rx="16" fill="#1A1A1A"/>
<g filter="url(#filter0_ddd_1137_17393)">
<rect x="183.629" y="72" width="191.741" height="32" rx="8" fill="white" fill-opacity="0.11" shape-rendering="crispEdges"/>
<rect x="184.129" y="72.5" width="190.741" height="31" rx="7.5" stroke="white" stroke-opacity="0.9" shape-rendering="crispEdges"/>
</g>
<path d="M366.026 87.6956C365.911 87.5447 363.154 83.9998 359.629 83.9998C356.103 83.9998 353.348 87.5447 353.232 87.6956C353.166 87.7829 353.129 87.8898 353.129 87.9998C353.129 88.1097 353.166 88.2166 353.232 88.304C353.348 88.4548 356.103 91.9998 359.629 91.9998C363.154 91.9998 365.911 88.4548 366.026 88.304C366.093 88.2166 366.129 88.1097 366.129 87.9998C366.129 87.8898 366.093 87.7829 366.026 87.6956ZM359.629 90.9998C357.156 90.9998 355.002 88.8176 354.282 87.9998C355.002 87.1819 357.156 84.9998 359.629 84.9998C362.103 84.9998 364.257 87.1829 364.977 88.0003C364.259 88.8181 362.11 90.9998 359.629 90.9998Z" fill="white" fill-opacity="0.7"/>
<path d="M359.629 85.9998C359.234 85.9998 358.847 86.1171 358.518 86.3368C358.189 86.5566 357.933 86.8689 357.782 87.2344C357.63 87.5998 357.591 88.002 357.668 88.3899C357.745 88.7779 357.935 89.1343 358.215 89.414C358.495 89.6937 358.851 89.8842 359.239 89.9613C359.627 90.0385 360.029 89.9989 360.395 89.8475C360.76 89.6961 361.073 89.4398 361.292 89.1109C361.512 88.782 361.629 88.3953 361.629 87.9998C361.629 87.4695 361.418 86.9611 361.043 86.5861C360.668 86.2112 360.16 86.0003 359.629 85.9998ZM359.629 88.9998C359.432 88.9998 359.238 88.9411 359.074 88.8312C358.909 88.7213 358.781 88.5652 358.705 88.3824C358.63 88.1997 358.61 87.9986 358.649 87.8047C358.687 87.6107 358.782 87.4325 358.922 87.2926C359.062 87.1528 359.24 87.0576 359.434 87.019C359.628 86.9804 359.829 87.0002 360.012 87.0759C360.195 87.1516 360.351 87.2797 360.461 87.4442C360.571 87.6086 360.629 87.802 360.629 87.9998C360.629 88.2649 360.524 88.519 360.336 88.7065C360.149 88.8939 359.894 88.9994 359.629 88.9998Z" fill="white" fill-opacity="0.7"/>
<path d="M201.139 92.4326C200.183 92.4326 199.362 92.0898 198.676 91.4043C197.999 90.7188 197.661 89.8936 197.661 88.9287C197.661 87.9639 197.999 87.1429 198.676 86.4658C199.353 85.7887 200.174 85.4502 201.139 85.4502C202.104 85.4502 202.929 85.793 203.615 86.4785C204.309 87.1556 204.656 87.9723 204.656 88.9287C204.656 89.8851 204.309 90.7103 203.615 91.4043C202.929 92.0898 202.104 92.4326 201.139 92.4326ZM212.133 92.4326C211.177 92.4326 210.356 92.0898 209.67 91.4043C208.993 90.7188 208.655 89.8936 208.655 88.9287C208.655 87.9639 208.993 87.1429 209.67 86.4658C210.347 85.7887 211.168 85.4502 212.133 85.4502C213.098 85.4502 213.923 85.793 214.609 86.4785C215.303 87.1556 215.65 87.9723 215.65 88.9287C215.65 89.8851 215.303 90.7103 214.609 91.4043C213.923 92.0898 213.098 92.4326 212.133 92.4326ZM223.127 92.4326C222.171 92.4326 221.35 92.0898 220.664 91.4043C219.987 90.7188 219.649 89.8936 219.649 88.9287C219.649 87.9639 219.987 87.1429 220.664 86.4658C221.342 85.7887 222.162 85.4502 223.127 85.4502C224.092 85.4502 224.917 85.793 225.603 86.4785C226.297 87.1556 226.644 87.9723 226.644 88.9287C226.644 89.8851 226.297 90.7103 225.603 91.4043C224.917 92.0898 224.092 92.4326 223.127 92.4326Z" fill="white" fill-opacity="0.95"/>
<rect x="229.629" y="78" width="1" height="20" rx="0.5" fill="white" fill-opacity="0.95"/>
<defs>
<filter id="filter0_ddd_1137_17393" x="178.629" y="67" width="201.741" height="42" filterUnits="userSpaceOnUse" color-interpolation-filters="sRGB">
<feFlood flood-opacity="0" result="BackgroundImageFix"/>
<feColorMatrix in="SourceAlpha" type="matrix" values="0 0 0 0 0 0 0 0 0 0 0 0 0 0 0 0 0 0 127 0" result="hardAlpha"/>
<feMorphology radius="4" operator="dilate" in="SourceAlpha" result="effect1_dropShadow_1137_17393"/>
<feOffset/>
<feComposite in2="hardAlpha" operator="out"/>
<feColorMatrix type="matrix" values="0 0 0 0 0.392157 0 0 0 0 0.705882 0 0 0 0 0.980392 0 0 0 1 0"/>
<feBlend mode="normal" in2="BackgroundImageFix" result="effect1_dropShadow_1137_17393"/>
<feColorMatrix in="SourceAlpha" type="matrix" values="0 0 0 0 0 0 0 0 0 0 0 0 0 0 0 0 0 0 127 0" result="hardAlpha"/>
<feMorphology radius="5" operator="dilate" in="SourceAlpha" result="effect2_dropShadow_1137_17393"/>
<feOffset/>
<feComposite in2="hardAlpha" operator="out"/>
<feColorMatrix type="matrix" values="0 0 0 0 0.392157 0 0 0 0 0.705882 0 0 0 0 0.980392 0 0 0 0.3 0"/>
<feBlend mode="normal" in2="effect1_dropShadow_1137_17393" result="effect2_dropShadow_1137_17393"/>
<feColorMatrix in="SourceAlpha" type="matrix" values="0 0 0 0 0 0 0 0 0 0 0 0 0 0 0 0 0 0 127 0" result="hardAlpha"/>
<feMorphology radius="2" operator="dilate" in="SourceAlpha" result="effect3_dropShadow_1137_17393"/>
<feOffset/>
<feComposite in2="hardAlpha" operator="out"/>
<feColorMatrix type="matrix" values="0 0 0 0 0 0 0 0 0 0 0 0 0 0 0 0 0 0 1 0"/>
<feBlend mode="normal" in2="effect2_dropShadow_1137_17393" result="effect3_dropShadow_1137_17393"/>
<feBlend mode="normal" in="SourceGraphic" in2="effect3_dropShadow_1137_17393" result="shape"/>
</filter>
</defs>
</svg>
