<svg width="559" height="167" viewBox="0 0 559 167" fill="none" xmlns="http://www.w3.org/2000/svg">
<rect width="559" height="167" rx="16" fill="#1A1A1A"/>
<path d="M192.485 81.208V83.224H184.853V88.936H193.181V91H182.405V73.72H193.181V75.784H184.853V81.208H192.485ZM206.123 78.52L201.947 84.352L206.843 91H204.035L200.651 86.176L197.339 91H194.627L199.283 84.52L194.915 78.52H197.675L200.651 82.72L203.483 78.52H206.123ZM210.738 82H208.29C208.418 80.752 209.01 79.784 210.066 79.096C211.01 78.472 212.202 78.16 213.642 78.16C215.354 78.16 216.666 78.608 217.578 79.504C218.346 80.272 218.73 81.264 218.73 82.48V91H216.834L216.546 89.296C215.57 90.672 214.178 91.36 212.37 91.36C210.946 91.36 209.834 90.976 209.034 90.208C208.378 89.568 208.05 88.76 208.05 87.784C208.05 86.552 208.474 85.6 209.322 84.928C210.074 84.336 211.226 83.904 212.778 83.632L216.426 83.008V82.384C216.426 81.568 216.146 80.952 215.586 80.536C215.09 80.168 214.41 79.984 213.546 79.984C211.85 79.984 210.914 80.656 210.738 82ZM212.922 89.416C213.898 89.416 214.746 89.096 215.466 88.456C216.106 87.864 216.426 87.184 216.426 86.416V84.808L213.33 85.36C212.194 85.552 211.418 85.848 211.002 86.248C210.666 86.568 210.498 87 210.498 87.544C210.498 88.152 210.706 88.616 211.122 88.936C211.538 89.256 212.138 89.416 212.922 89.416ZM224.269 91H221.965V78.52H223.861L224.101 79.984C224.949 78.768 226.173 78.16 227.773 78.16C229.517 78.16 230.741 78.816 231.445 80.128C232.277 78.816 233.629 78.16 235.501 78.16C236.893 78.16 237.965 78.584 238.717 79.432C239.389 80.216 239.725 81.288 239.725 82.648V91H237.421V82.816C237.421 81.024 236.613 80.128 234.997 80.128C234.037 80.128 233.269 80.504 232.693 81.256C232.229 81.864 231.997 82.576 231.997 83.392V91H229.693V82.816C229.693 81.024 228.885 80.128 227.269 80.128C226.373 80.128 225.629 80.48 225.037 81.184C224.525 81.776 224.269 82.488 224.269 83.32V91ZM242.965 78.52H244.861L245.221 80.152C246.245 78.824 247.653 78.16 249.445 78.16C251.237 78.16 252.629 78.8 253.621 80.08C254.501 81.232 254.941 82.76 254.941 84.664C254.941 86.92 254.341 88.648 253.141 89.848C252.133 90.856 250.845 91.36 249.277 91.36C247.501 91.36 246.165 90.704 245.269 89.392V95.32H242.965V78.52ZM252.541 84.616C252.541 83.048 252.149 81.872 251.365 81.088C250.741 80.448 249.925 80.128 248.917 80.128C247.749 80.128 246.821 80.552 246.133 81.4C245.477 82.216 245.149 83.288 245.149 84.616C245.149 86.216 245.541 87.44 246.325 88.288C246.981 89.024 247.845 89.392 248.917 89.392C250.117 89.392 251.029 88.952 251.653 88.072C252.245 87.256 252.541 86.104 252.541 84.616ZM259.894 73.72V91H257.59V73.72H259.894ZM271.758 87.4H274.254C273.902 88.664 273.206 89.656 272.166 90.376C271.19 91.032 270.022 91.36 268.662 91.36C266.694 91.36 265.158 90.736 264.054 89.488C263.046 88.32 262.542 86.744 262.542 84.76C262.542 82.504 263.182 80.792 264.462 79.624C265.518 78.648 266.878 78.16 268.542 78.16C270.494 78.16 271.966 78.792 272.958 80.056C273.918 81.272 274.398 83.008 274.398 85.264H264.894C264.99 86.736 265.438 87.832 266.238 88.552C266.894 89.128 267.726 89.416 268.734 89.416C269.518 89.416 270.198 89.2 270.774 88.768C271.254 88.4 271.582 87.944 271.758 87.4ZM268.59 80.008C267.566 80.008 266.742 80.328 266.118 80.968C265.526 81.56 265.15 82.384 264.99 83.44H272.046C271.966 82.24 271.566 81.344 270.846 80.752C270.27 80.256 269.518 80.008 268.59 80.008ZM289.924 89.152V91.12C289.332 91.28 288.764 91.36 288.22 91.36C287.068 91.36 286.204 91 285.628 90.28C285.132 89.688 284.884 88.896 284.884 87.904V80.488H283.036V78.52H284.884L285.028 75.52H287.188V78.52H289.876V80.488H287.188V87.952C287.188 88.88 287.628 89.344 288.508 89.344C288.924 89.344 289.396 89.28 289.924 89.152ZM291.253 84.76C291.253 82.472 291.933 80.744 293.293 79.576C294.381 78.632 295.757 78.16 297.421 78.16C299.357 78.16 300.877 78.776 301.981 80.008C303.037 81.16 303.565 82.744 303.565 84.76C303.565 87.016 302.901 88.736 301.573 89.92C300.485 90.88 299.093 91.36 297.397 91.36C295.461 91.36 293.933 90.72 292.813 89.44C291.773 88.272 291.253 86.712 291.253 84.76ZM293.653 84.76C293.653 86.36 294.061 87.584 294.877 88.432C295.549 89.136 296.405 89.488 297.445 89.488C298.661 89.488 299.597 89.032 300.253 88.12C300.861 87.288 301.165 86.168 301.165 84.76C301.165 83.128 300.765 81.896 299.965 81.064C299.309 80.376 298.461 80.032 297.421 80.032C296.221 80.032 295.285 80.488 294.613 81.4C293.973 82.232 293.653 83.352 293.653 84.76ZM319.563 73.648V75.64C318.795 75.448 318.163 75.352 317.667 75.352C317.251 75.352 316.923 75.464 316.683 75.688C316.459 75.912 316.347 76.224 316.347 76.624V78.52H319.035V80.488H316.347V91H314.043V80.488H312.195V78.52H314.043V76.768C314.043 75.664 314.403 74.8 315.123 74.176C315.763 73.632 316.563 73.36 317.523 73.36C318.147 73.36 318.827 73.456 319.563 73.648ZM320.409 84.76C320.409 82.472 321.089 80.744 322.449 79.576C323.537 78.632 324.913 78.16 326.577 78.16C328.513 78.16 330.033 78.776 331.137 80.008C332.193 81.16 332.721 82.744 332.721 84.76C332.721 87.016 332.057 88.736 330.729 89.92C329.641 90.88 328.249 91.36 326.553 91.36C324.617 91.36 323.089 90.72 321.969 89.44C320.929 88.272 320.409 86.712 320.409 84.76ZM322.809 84.76C322.809 86.36 323.217 87.584 324.033 88.432C324.705 89.136 325.561 89.488 326.601 89.488C327.817 89.488 328.753 89.032 329.409 88.12C330.017 87.288 330.321 86.168 330.321 84.76C330.321 83.128 329.921 81.896 329.121 81.064C328.465 80.376 327.617 80.032 326.577 80.032C325.377 80.032 324.441 80.488 323.769 81.4C323.129 82.232 322.809 83.352 322.809 84.76ZM337.66 73.72V91H335.356V73.72H337.66ZM343.332 73.72V91H341.028V73.72H343.332ZM345.98 84.76C345.98 82.472 346.66 80.744 348.02 79.576C349.108 78.632 350.484 78.16 352.148 78.16C354.084 78.16 355.604 78.776 356.708 80.008C357.764 81.16 358.292 82.744 358.292 84.76C358.292 87.016 357.628 88.736 356.3 89.92C355.212 90.88 353.82 91.36 352.124 91.36C350.188 91.36 348.66 90.72 347.54 89.44C346.5 88.272 345.98 86.712 345.98 84.76ZM348.38 84.76C348.38 86.36 348.788 87.584 349.604 88.432C350.276 89.136 351.132 89.488 352.172 89.488C353.388 89.488 354.324 89.032 354.98 88.12C355.588 87.288 355.892 86.168 355.892 84.76C355.892 83.128 355.492 81.896 354.692 81.064C354.036 80.376 353.188 80.032 352.148 80.032C350.948 80.032 350.012 80.488 349.34 81.4C348.7 82.232 348.38 83.352 348.38 84.76ZM375.741 78.52H378.045L374.397 91H371.733L368.709 81.136L365.733 91H362.973L359.325 78.52H361.725L364.413 88.552L367.389 78.52H370.149L373.077 88.504L375.741 78.52Z" fill="white"/>
</svg>
