<svg width="143" height="84" viewBox="0 0 143 84" fill="none" xmlns="http://www.w3.org/2000/svg">
<g filter="url(#filter0_dd_1137_16448)">
<g filter="url(#filter1_dd_1137_16448)">
<mask id="path-1-outside-1_1137_16448" maskUnits="userSpaceOnUse" x="16" y="8" width="111" height="52" fill="black">
<rect fill="white" x="16" y="8" width="111" height="52"/>
<path fill-rule="evenodd" clip-rule="evenodd" d="M76.6914 14.4471C79.1051 17.4989 81.8742 21 84.6433 21C84.6488 21 84.6544 21 84.6599 21L121 21C123.209 21 125 22.7909 125 25V54C125 56.2092 123.209 58 121 58L22 58C19.7909 58 18 56.2092 18 54V25C18 22.7909 19.7909 21 22 21L59.1038 21C59.1093 21 59.1148 21 59.1203 21C61.883 21 64.6456 17.5151 67.0609 14.4684C68.9368 12.1021 70.6032 10 71.8975 10C73.1742 10 74.8267 12.0895 76.6914 14.4471Z"/>
</mask>
<path fill-rule="evenodd" clip-rule="evenodd" d="M76.6914 14.4471C79.1051 17.4989 81.8742 21 84.6433 21C84.6488 21 84.6544 21 84.6599 21L121 21C123.209 21 125 22.7909 125 25V54C125 56.2092 123.209 58 121 58L22 58C19.7909 58 18 56.2092 18 54V25C18 22.7909 19.7909 21 22 21L59.1038 21C59.1093 21 59.1148 21 59.1203 21C61.883 21 64.6456 17.5151 67.0609 14.4684C68.9368 12.1021 70.6032 10 71.8975 10C73.1742 10 74.8267 12.0895 76.6914 14.4471Z" fill="#292929"/>
<path d="M84.6433 21V23V21ZM76.6914 14.4471L75.1228 15.6878V15.6878L76.6914 14.4471ZM84.6599 21L84.654 23H84.6599V21ZM121 21V19V21ZM121 58V60V58ZM22 58L22 56H22V58ZM22 21L22 19H22V21ZM59.1038 21V23L59.1097 23L59.1038 21ZM67.0609 14.4684L65.4937 13.2259V13.2259L67.0609 14.4684ZM71.8975 10L71.8975 8H71.8975V10ZM84.6433 19C84.0664 19 83.1715 18.5994 81.9022 17.4091C80.6912 16.2735 79.4897 14.7611 78.2601 13.2064L75.1228 15.6878C76.3068 17.1849 77.6967 18.949 79.166 20.3268C80.577 21.65 82.4511 23 84.6433 23V19ZM84.6658 19C84.6582 19 84.6507 19 84.6433 19V23C84.647 23 84.6506 23 84.654 23L84.6658 19ZM84.6599 23L121 23V19L84.6599 19V23ZM121 23C122.105 23 123 23.8955 123 25H127C127 21.6863 124.314 19 121 19V23ZM123 25V54H127V25H123ZM123 54C123 55.1046 122.105 56 121 56V60C124.314 60 127 57.3137 127 54H123ZM121 56L22 56L22 60L121 60V56ZM22 56C20.8954 56 20 55.1046 20 54H16C16 57.3137 18.6863 60 22 60V56ZM20 54V25H16V54H20ZM20 25C20 23.8954 20.8954 23 22 23V19C18.6863 19 16 21.6863 16 25H20ZM22 23L59.1038 23V19L22 19L22 23ZM59.1203 19C59.113 19 59.1055 19 59.0979 19L59.1097 23C59.1131 23 59.1166 23 59.1203 23V19ZM65.4937 13.2259C64.2632 14.7781 63.063 16.2853 61.8543 17.4164C60.5878 18.6017 59.6956 19 59.1203 19V23C61.3077 23 63.1781 21.6559 64.5875 20.337C66.0546 18.964 67.4434 17.2054 68.6282 15.7108L65.4937 13.2259ZM71.8975 8C71.0419 8 70.3162 8.34035 69.7853 8.67842C69.2403 9.02546 68.733 9.47803 68.2758 9.93992C67.3688 10.8564 66.4088 12.0716 65.4937 13.2259L68.6282 15.7108C69.589 14.4988 70.4001 13.4799 71.1188 12.7537C71.4745 12.3943 71.7437 12.1735 71.9338 12.0524C72.138 11.9224 72.106 12 71.8975 12V8ZM78.2601 13.2064C77.3505 12.0564 76.3972 10.8469 75.4979 9.93507C75.0448 9.47559 74.5416 9.0248 74.0011 8.67882C73.4754 8.34233 72.7522 8 71.8975 8L71.8975 12C71.6811 12 71.6433 11.9189 71.8447 12.0478C72.0314 12.1673 72.2973 12.3862 72.65 12.7438C73.3623 13.4661 74.1676 14.4802 75.1228 15.6878L78.2601 13.2064Z" fill="#292929" mask="url(#path-1-outside-1_1137_16448)"/>
</g>
<mask id="path-3-outside-2_1137_16448" maskUnits="userSpaceOnUse" x="17" y="9" width="109" height="50" fill="black">
<rect fill="white" x="17" y="9" width="109" height="50"/>
<path fill-rule="evenodd" clip-rule="evenodd" d="M76.6914 14.4471C79.1051 17.4989 81.8742 21 84.6433 21C84.6488 21 84.6544 21 84.6599 21L121 21C123.209 21 125 22.7909 125 25V54C125 56.2092 123.209 58 121 58L22 58C19.7909 58 18 56.2092 18 54V25C18 22.7909 19.7909 21 22 21L59.1038 21C59.1093 21 59.1148 21 59.1203 21C61.883 21 64.6456 17.5151 67.0609 14.4684C68.9368 12.1021 70.6032 10 71.8975 10C73.1742 10 74.8268 12.0895 76.6914 14.4471Z"/>
</mask>
<path fill-rule="evenodd" clip-rule="evenodd" d="M76.6914 14.4471C79.1051 17.4989 81.8742 21 84.6433 21C84.6488 21 84.6544 21 84.6599 21L121 21C123.209 21 125 22.7909 125 25V54C125 56.2092 123.209 58 121 58L22 58C19.7909 58 18 56.2092 18 54V25C18 22.7909 19.7909 21 22 21L59.1038 21C59.1093 21 59.1148 21 59.1203 21C61.883 21 64.6456 17.5151 67.0609 14.4684C68.9368 12.1021 70.6032 10 71.8975 10C73.1742 10 74.8268 12.0895 76.6914 14.4471Z" fill="#3B3B3B"/>
<path d="M84.6433 21V22V21ZM76.6914 14.4471L75.9071 15.0674L76.6914 14.4471ZM84.6599 21L84.6569 22H84.6599V21ZM121 21V20V21ZM121 58V59V58ZM22 58V57V58ZM22 21V20V21ZM59.1038 21V22L59.1068 22L59.1038 21ZM67.0609 14.4684L66.2773 13.8471V13.8471L67.0609 14.4684ZM71.8975 10V9V10ZM84.6433 20C83.6626 20 82.5229 19.3621 81.2182 18.1385C79.9426 16.9423 78.694 15.367 77.4758 13.8267L75.9071 15.0674C77.1026 16.5789 78.4454 18.2801 79.8501 19.5974C81.2256 20.8874 82.8549 22 84.6433 22V20ZM84.6628 20C84.6563 20 84.6498 20 84.6433 20V22C84.6479 22 84.6525 22 84.6569 22L84.6628 20ZM84.6599 22L121 22V20L84.6599 20V22ZM121 22C122.657 22 124 23.3432 124 25H126C126 22.2386 123.761 20 121 20V22ZM124 25V54H126V25H124ZM124 54C124 55.6569 122.657 57 121 57V59C123.761 59 126 56.7615 126 54H124ZM121 57L22 57V59L121 59V57ZM22 57C20.3431 57 19 55.6569 19 54H17C17 56.7614 19.2386 59 22 59V57ZM19 54V25H17V54H19ZM19 25C19 23.3432 20.3431 22 22 22V20C19.2386 20 17 22.2386 17 25H19ZM22 22L59.1038 22V20L22 20V22ZM59.1203 20C59.1139 20 59.1074 20 59.1008 20L59.1068 22C59.1112 22 59.1157 22 59.1203 22V20ZM66.2773 13.8471C65.0582 15.3849 63.8109 16.955 62.5376 18.1466C61.2354 19.3652 60.0986 20 59.1203 20V22C60.9047 22 62.5306 20.8923 63.9042 19.6069C65.3067 18.2943 66.6483 16.5986 67.8446 15.0896L66.2773 13.8471ZM71.8975 9C71.3079 9 70.7717 9.23586 70.3224 9.52192C69.8662 9.81246 69.4184 10.2071 68.9866 10.6434C68.1266 11.5122 67.2038 12.6784 66.2773 13.8471L67.8446 15.0896C68.794 13.892 69.6423 12.824 70.4081 12.0503C70.7892 11.6652 71.1179 11.3865 71.3967 11.2089C71.6825 11.0269 71.84 11 71.8975 11V9ZM77.4758 13.8267C76.5548 12.6623 75.6385 11.5017 74.7859 10.6373C74.3579 10.2032 73.9141 9.81042 73.462 9.52107C73.0173 9.23646 72.4844 9 71.8975 9V11C71.9489 11 72.1013 11.0247 72.3838 11.2056C72.659 11.3817 72.9842 11.6586 73.362 12.0416C74.121 12.8113 74.9634 13.8742 75.9071 15.0674L77.4758 13.8267Z" fill="#545454" mask="url(#path-3-outside-2_1137_16448)"/>
<path d="M39.1146 44H37.7846V35.6L35.5866 36.734V35.348L37.7986 34.2H39.1146V44ZM44.3731 36.762H42.9591C43.0711 35.894 43.4725 35.2033 44.1631 34.69C44.7791 34.2233 45.5258 33.99 46.4031 33.99C47.4018 33.99 48.1998 34.27 48.7971 34.83C49.3291 35.3433 49.5951 35.992 49.5951 36.776C49.5951 37.4667 49.3991 38.106 49.0071 38.694C48.6898 39.1887 48.1065 39.8373 47.2571 40.64L45.0171 42.768H49.5531V44H43.1971V42.768L46.3891 39.702C47.0985 39.0207 47.5791 38.4793 47.8311 38.078C48.0925 37.6673 48.2231 37.238 48.2231 36.79C48.2231 36.2487 48.0365 35.8287 47.6631 35.53C47.3365 35.2593 46.9071 35.124 46.3751 35.124C45.7778 35.124 45.2971 35.2873 44.9331 35.614C44.6158 35.9033 44.4291 36.286 44.3731 36.762ZM58.1997 41.326C58.1997 42.2313 57.8403 42.9547 57.1217 43.496C56.4963 43.9627 55.6983 44.196 54.7277 44.196C53.6543 44.196 52.8003 43.9207 52.1657 43.37C51.6243 42.9127 51.3023 42.3107 51.1997 41.564H52.6277C52.861 42.572 53.5517 43.076 54.6997 43.076C55.409 43.076 55.955 42.8893 56.3377 42.516C56.6643 42.1987 56.8277 41.7927 56.8277 41.298C56.8277 40.6447 56.5943 40.15 56.1277 39.814C55.7823 39.5713 55.3717 39.45 54.8957 39.45H54.0837V38.288H54.8677C55.325 38.288 55.7077 38.1387 56.0157 37.84C56.333 37.5413 56.4917 37.1447 56.4917 36.65C56.4917 36.1273 56.2723 35.7213 55.8337 35.432C55.4977 35.2173 55.0917 35.11 54.6157 35.11C54.037 35.11 53.5657 35.2547 53.2017 35.544C52.8937 35.796 52.707 36.118 52.6417 36.51H51.2277C51.3583 35.6887 51.7737 35.0493 52.4737 34.592C53.0803 34.1907 53.8177 33.99 54.6857 33.99C55.6377 33.99 56.4123 34.228 57.0097 34.704C57.579 35.1613 57.8637 35.7773 57.8637 36.552C57.8637 37.112 57.677 37.602 57.3037 38.022C56.9863 38.386 56.585 38.6427 56.0997 38.792C56.7437 38.932 57.257 39.2307 57.6397 39.688C58.013 40.136 58.1997 40.682 58.1997 41.326ZM63.7242 34.2H65.1242V41.004H66.7062V42.152H65.1242V44H63.8222V42.152H59.5242V40.906L63.7242 34.2ZM61.0222 41.004H63.8222V36.37L61.0222 41.004ZM68.0167 41.62H69.4447C69.5474 42.0773 69.7901 42.4367 70.1727 42.698C70.5367 42.95 70.9847 43.076 71.5167 43.076C72.1794 43.076 72.7114 42.8473 73.1127 42.39C73.4674 41.9793 73.6447 41.438 73.6447 40.766C73.6447 40.01 73.4254 39.436 72.9867 39.044C72.6227 38.708 72.1421 38.54 71.5447 38.54C70.7421 38.54 70.0887 38.8387 69.5847 39.436H68.3947L68.6047 34.2H74.6247V35.334H69.8227L69.7107 38.204C70.3081 37.728 71.0221 37.49 71.8527 37.49C72.8234 37.49 73.6027 37.8073 74.1907 38.442C74.7507 39.0487 75.0307 39.842 75.0307 40.822C75.0307 41.8393 74.6807 42.67 73.9807 43.314C73.3367 43.9113 72.5107 44.21 71.5027 44.21C70.4854 44.21 69.6407 43.9113 68.9687 43.314C68.4461 42.8473 68.1287 42.2827 68.0167 41.62ZM80.3453 37.588C81.3533 37.588 82.1373 37.938 82.6973 38.638C83.1639 39.226 83.3973 39.9727 83.3973 40.878C83.3973 42.0073 83.0099 42.88 82.2353 43.496C81.6379 43.972 80.9333 44.21 80.1213 44.21C78.9173 44.21 78.0213 43.748 77.4333 42.824C76.9293 42.0307 76.6773 40.92 76.6773 39.492C76.6773 37.3547 77.0926 35.8333 77.9233 34.928C78.5019 34.3027 79.2766 33.99 80.2473 33.99C81.0406 33.99 81.7126 34.2 82.2633 34.62C82.7486 34.9933 83.0613 35.474 83.2013 36.062H81.7173C81.6333 35.754 81.4606 35.516 81.1993 35.348C80.9379 35.1707 80.6159 35.082 80.2333 35.082C78.8799 35.082 78.1379 36.342 78.0073 38.862C78.2593 38.4607 78.5906 38.148 79.0013 37.924C79.4119 37.7 79.8599 37.588 80.3453 37.588ZM78.1473 40.836C78.1473 41.592 78.3619 42.1753 78.7913 42.586C79.1366 42.922 79.5799 43.09 80.1213 43.09C80.7186 43.09 81.1946 42.88 81.5493 42.46C81.8759 42.068 82.0393 41.564 82.0393 40.948C82.0393 40.2107 81.8433 39.6413 81.4513 39.24C81.1059 38.8853 80.6579 38.708 80.1073 38.708C79.4353 38.708 78.9219 38.946 78.5673 39.422C78.2873 39.8047 78.1473 40.276 78.1473 40.836ZM91.3718 35.404L87.3678 44H85.8418L89.9438 35.404H85.1418V34.2H91.3718V35.404ZM99.8923 36.51C99.8923 36.9673 99.7523 37.392 99.4723 37.784C99.1923 38.176 98.7957 38.5073 98.2823 38.778C99.5983 39.3567 100.256 40.2153 100.256 41.354C100.256 42.25 99.8877 42.9687 99.1503 43.51C98.497 43.9767 97.6757 44.21 96.6863 44.21C95.5477 44.21 94.6423 43.916 93.9703 43.328C93.401 42.824 93.1163 42.1987 93.1163 41.452C93.1163 40.7333 93.3497 40.1313 93.8163 39.646C94.1337 39.31 94.5397 39.0487 95.0343 38.862C93.9983 38.3767 93.4803 37.6253 93.4803 36.608C93.4803 35.7027 93.8443 35.012 94.5723 34.536C95.1417 34.172 95.8463 33.99 96.6863 33.99C97.6663 33.99 98.4503 34.214 99.0383 34.662C99.6077 35.11 99.8923 35.726 99.8923 36.51ZM98.8283 41.354C98.8283 40.6353 98.525 40.108 97.9183 39.772C97.6197 39.604 97.111 39.4407 96.3923 39.282C95.851 39.4407 95.417 39.6833 95.0903 40.01C94.7263 40.3833 94.5443 40.8313 94.5443 41.354C94.5443 41.8953 94.745 42.3247 95.1463 42.642C95.5197 42.95 96.033 43.104 96.6863 43.104C97.4237 43.104 97.9837 42.9173 98.3663 42.544C98.6743 42.2453 98.8283 41.8487 98.8283 41.354ZM94.7963 36.538C94.7963 37.2287 95.081 37.7327 95.6503 38.05C95.977 38.2273 96.4157 38.3533 96.9663 38.428C98.021 38.0173 98.5483 37.3873 98.5483 36.538C98.5483 36.0527 98.343 35.67 97.9323 35.39C97.587 35.1567 97.1717 35.04 96.6863 35.04C96.1077 35.04 95.641 35.18 95.2863 35.46C94.9597 35.7307 94.7963 36.09 94.7963 36.538ZM104.913 40.612C103.942 40.612 103.177 40.2807 102.617 39.618C102.113 39.03 101.861 38.2647 101.861 37.322C101.861 36.258 102.216 35.4133 102.925 34.788C103.522 34.256 104.26 33.99 105.137 33.99C107.433 33.99 108.581 35.5627 108.581 38.708C108.581 42.376 107.377 44.21 104.969 44.21C104.166 44.21 103.49 43.9953 102.939 43.566C102.463 43.1927 102.15 42.7073 102.001 42.11H103.485C103.681 42.782 104.194 43.118 105.025 43.118C105.716 43.118 106.243 42.81 106.607 42.194C106.962 41.578 107.172 40.6307 107.237 39.352C106.985 39.7533 106.654 40.066 106.243 40.29C105.842 40.5047 105.398 40.612 104.913 40.612ZM107.111 37.364C107.111 36.608 106.896 36.0247 106.467 35.614C106.122 35.278 105.678 35.11 105.137 35.11C104.54 35.11 104.064 35.3247 103.709 35.754C103.382 36.1367 103.219 36.636 103.219 37.252C103.219 38.008 103.429 38.5913 103.849 39.002C104.194 39.3287 104.628 39.492 105.151 39.492C105.823 39.492 106.336 39.254 106.691 38.778C106.971 38.3953 107.111 37.924 107.111 37.364Z" fill="#F7F7F7"/>
</g>
<defs>
<filter id="filter0_dd_1137_16448" x="0" y="0" width="143" height="84" filterUnits="userSpaceOnUse" color-interpolation-filters="sRGB">
<feFlood flood-opacity="0" result="BackgroundImageFix"/>
<feColorMatrix in="SourceAlpha" type="matrix" values="0 0 0 0 0 0 0 0 0 0 0 0 0 0 0 0 0 0 127 0" result="hardAlpha"/>
<feOffset/>
<feGaussianBlur stdDeviation="0.5"/>
<feColorMatrix type="matrix" values="0 0 0 0 0 0 0 0 0 0 0 0 0 0 0 0 0 0 0.14 0"/>
<feBlend mode="normal" in2="BackgroundImageFix" result="effect1_dropShadow_1137_16448"/>
<feColorMatrix in="SourceAlpha" type="matrix" values="0 0 0 0 0 0 0 0 0 0 0 0 0 0 0 0 0 0 127 0" result="hardAlpha"/>
<feOffset dy="8"/>
<feGaussianBlur stdDeviation="8"/>
<feColorMatrix type="matrix" values="0 0 0 0 0 0 0 0 0 0 0 0 0 0 0 0 0 0 0.16 0"/>
<feBlend mode="normal" in2="effect1_dropShadow_1137_16448" result="effect2_dropShadow_1137_16448"/>
<feBlend mode="normal" in="SourceGraphic" in2="effect2_dropShadow_1137_16448" result="shape"/>
</filter>
<filter id="filter1_dd_1137_16448" x="0" y="0" width="143" height="84" filterUnits="userSpaceOnUse" color-interpolation-filters="sRGB">
<feFlood flood-opacity="0" result="BackgroundImageFix"/>
<feColorMatrix in="SourceAlpha" type="matrix" values="0 0 0 0 0 0 0 0 0 0 0 0 0 0 0 0 0 0 127 0" result="hardAlpha"/>
<feOffset/>
<feGaussianBlur stdDeviation="0.5"/>
<feColorMatrix type="matrix" values="0 0 0 0 0 0 0 0 0 0 0 0 0 0 0 0 0 0 0.14 0"/>
<feBlend mode="normal" in2="BackgroundImageFix" result="effect1_dropShadow_1137_16448"/>
<feColorMatrix in="SourceAlpha" type="matrix" values="0 0 0 0 0 0 0 0 0 0 0 0 0 0 0 0 0 0 127 0" result="hardAlpha"/>
<feOffset dy="8"/>
<feGaussianBlur stdDeviation="8"/>
<feColorMatrix type="matrix" values="0 0 0 0 0 0 0 0 0 0 0 0 0 0 0 0 0 0 0.16 0"/>
<feBlend mode="normal" in2="effect1_dropShadow_1137_16448" result="effect2_dropShadow_1137_16448"/>
<feBlend mode="normal" in="SourceGraphic" in2="effect2_dropShadow_1137_16448" result="shape"/>
</filter>
</defs>
</svg>
