<svg width="1150" height="320" viewBox="0 0 1150 320" fill="none" xmlns="http://www.w3.org/2000/svg">
<rect width="1150" height="320" rx="16" fill="#1A1A1A"/>
<path d="M174.999 84.9993H134.996C134.293 84.9994 133.598 85.1479 132.956 85.4349C132.314 85.7219 131.74 86.141 131.271 86.6649C130.802 87.1887 130.449 87.8056 130.235 88.4753C130.02 89.1449 129.95 89.8522 130.027 90.551L133.731 123.881C134.068 126.939 135.522 129.765 137.815 131.817C140.107 133.869 143.077 135.002 146.154 134.999H163.842C166.918 135.002 169.888 133.869 172.181 131.817C174.473 129.765 175.928 126.939 176.265 123.881L179.967 90.551C180.045 89.8522 179.975 89.1448 179.761 88.475C179.547 87.8053 179.193 87.1882 178.725 86.6642C178.256 86.1403 177.681 85.7211 177.039 85.4342C176.397 85.1473 175.702 84.9991 174.999 84.9993ZM171.296 123.329C171.093 125.164 170.22 126.859 168.845 128.09C167.469 129.321 165.688 130.001 163.842 129.999H146.154C144.308 130.001 142.526 129.321 141.15 128.09C139.775 126.859 138.902 125.164 138.699 123.329L134.996 89.9993H174.999L171.296 123.329Z" fill="white"/>
<path d="M132.5 79.9993H177.5C178.163 79.9993 178.799 79.7359 179.268 79.267C179.737 78.7982 180 78.1623 180 77.4993C180 76.8362 179.737 76.2003 179.268 75.7315C178.799 75.2627 178.163 74.9993 177.5 74.9993H167.5V72.4993C167.498 70.5108 166.707 68.6044 165.301 67.1984C163.895 65.7923 161.989 65.0014 160 64.9993H150C148.012 65.0014 146.105 65.7923 144.699 67.1984C143.293 68.6044 142.502 70.5108 142.5 72.4993V74.9993H132.5C131.837 74.9993 131.201 75.2627 130.732 75.7315C130.264 76.2003 130 76.8362 130 77.4993C130 78.1623 130.264 78.7982 130.732 79.267C131.201 79.7359 131.837 79.9993 132.5 79.9993ZM147.5 72.4993C147.501 71.8364 147.764 71.2009 148.233 70.7322C148.702 70.2635 149.337 69.9999 150 69.9993H160C160.663 69.9999 161.298 70.2635 161.767 70.7322C162.236 71.2009 162.499 71.8364 162.5 72.4993V74.9993H147.5V72.4993Z" fill="white"/>
<path d="M297.582 110.003C295.69 110.009 293.824 110.447 292.127 111.284C290.43 112.12 288.946 113.333 287.789 114.83L264.567 103.346C265.25 101.169 265.251 98.8352 264.568 96.6578L287.811 85.2036C289.649 87.4951 292.238 89.0619 295.12 89.6262C298.003 90.1905 300.992 89.7158 303.557 88.2864C306.123 86.8569 308.1 84.565 309.137 81.8172C310.174 79.0693 310.204 76.043 309.222 73.2748C308.241 70.5067 306.311 68.1756 303.774 66.695C301.238 65.2143 298.259 64.6798 295.366 65.1861C292.473 65.6925 289.852 67.207 287.969 69.4611C286.087 71.7152 285.063 74.5633 285.08 77.5002C285.095 78.5959 285.256 79.6846 285.558 80.7377L262.277 92.2108C260.662 90.1833 258.456 88.7082 255.965 87.9897C253.475 87.2712 250.822 87.3447 248.375 88.2002C245.928 89.0557 243.807 90.6508 242.307 92.7647C240.806 94.8785 240 97.4066 240 99.9989C240 102.591 240.805 105.119 242.305 107.234C243.805 109.348 245.926 110.943 248.372 111.799C250.819 112.655 253.472 112.729 255.963 112.011C258.453 111.293 260.659 109.819 262.275 107.792L285.55 119.301C285.254 120.343 285.097 121.42 285.082 122.503C285.082 124.975 285.815 127.392 287.189 129.447C288.562 131.503 290.514 133.105 292.799 134.051C295.083 134.997 297.596 135.245 300.021 134.763C302.446 134.28 304.673 133.09 306.421 131.342C308.169 129.593 309.36 127.366 309.842 124.941C310.324 122.517 310.077 120.003 309.131 117.719C308.185 115.435 306.582 113.483 304.527 112.109C302.471 110.736 300.054 110.003 297.582 110.003ZM297.579 70.0002C299.063 70.0002 300.513 70.4401 301.746 71.2642C302.98 72.0883 303.941 73.2596 304.509 74.6301C305.076 76.0005 305.225 77.5085 304.935 78.9634C304.646 80.4182 303.932 81.7546 302.883 82.8035C301.834 83.8524 300.497 84.5667 299.043 84.8561C297.588 85.1455 296.08 84.9969 294.709 84.4293C293.339 83.8616 292.168 82.9003 291.343 81.667C290.519 80.4336 290.079 78.9836 290.079 77.5002C290.082 75.5117 290.873 73.6053 292.279 72.1993C293.685 70.7932 295.591 70.0023 297.579 70.0002ZM252.579 107.5C251.096 107.5 249.646 107.06 248.413 106.236C247.179 105.412 246.218 104.241 245.65 102.87C245.083 101.5 244.934 99.9919 245.224 98.537C245.513 97.0822 246.227 95.7458 247.276 94.6969C248.325 93.648 249.661 92.9337 251.116 92.6443C252.571 92.3549 254.079 92.5034 255.45 93.0711C256.82 93.6388 257.991 94.6 258.815 95.8334C259.64 97.0668 260.079 98.5168 260.079 100C260.077 101.989 259.286 103.895 257.88 105.301C256.474 106.707 254.568 107.498 252.579 107.5ZM297.582 130.003C296.099 130.003 294.649 129.563 293.415 128.739C292.182 127.915 291.221 126.743 290.653 125.373C290.085 124.002 289.937 122.494 290.226 121.04C290.515 119.585 291.23 118.248 292.279 117.199C293.328 116.15 294.664 115.436 296.119 115.147C297.574 114.857 299.082 115.006 300.452 115.574C301.823 116.141 302.994 117.103 303.818 118.336C304.642 119.569 305.082 121.019 305.082 122.503C305.08 124.491 304.289 126.398 302.883 127.804C301.477 129.21 299.57 130.001 297.582 130.003Z" fill="white"/>
<path d="M387.5 65C372.312 65 360 77.3122 360 92.5C360 107.688 372.312 120 387.5 120C394.194 120 400.329 117.608 405.098 113.633L425.732 134.268C426.709 135.244 428.292 135.244 429.268 134.268C430.244 133.291 430.244 131.709 429.268 130.732L408.633 110.098C412.608 105.329 415 99.1937 415 92.5C415 77.3122 402.688 65 387.5 65ZM365 92.5C365 80.0736 375.074 70 387.5 70C399.926 70 410 80.0736 410 92.5C410 104.926 399.926 115 387.5 115C375.074 115 365 104.926 365 92.5Z" fill="white"/>
<path d="M487.5 81.25C487.5 73.6561 493.656 67.5 501.25 67.5C508.122 67.5 513.821 72.544 514.838 79.1315C515.049 80.496 516.326 81.4314 517.69 81.2207C519.055 81.01 519.99 79.733 519.78 78.3685C518.392 69.3805 510.627 62.5 501.25 62.5C490.895 62.5 482.5 70.8947 482.5 81.25C482.5 90.1193 488.656 97.5448 496.925 99.4982C498.269 99.8156 499.616 98.9836 499.933 97.6399C500.25 96.2962 499.418 94.9495 498.075 94.6321C492.011 93.1997 487.5 87.7486 487.5 81.25ZM502.183 74.054C497.446 73.6979 493.548 77.729 494.063 82.4518C494.275 84.4026 495.147 86.2224 496.535 87.61L508.784 99.8585L501.91 106.732C497.028 111.614 497.028 119.528 501.91 124.41L509.722 132.222C513.097 135.597 517.675 137.494 522.449 137.494H523.243C533.659 137.494 542.371 129.583 543.372 119.216C543.614 116.717 543.49 114.196 543.006 111.733L537.666 84.5707C537.29 82.6605 535.615 81.2831 533.669 81.2831C528.87 81.2831 525.158 85.4915 525.758 90.2527L526.232 94.015L526.372 95.1863L507.77 76.5846C506.297 75.1121 504.346 74.2165 502.269 74.0605L502.183 74.054ZM499.033 81.9099C498.857 80.2959 500.189 78.9182 501.808 79.0399L501.894 79.0464C502.778 79.1128 503.608 79.4937 504.234 80.1201L527.938 103.824C528.691 104.577 529.839 104.77 530.797 104.305C531.756 103.84 532.314 102.819 532.188 101.761L531.195 93.4073L530.719 89.6276C530.528 88.1078 531.514 86.739 532.925 86.3765L538.1 112.697C538.491 114.685 538.59 116.719 538.396 118.735C537.641 126.539 531.084 132.494 523.243 132.494H522.449C519.001 132.494 515.695 131.124 513.258 128.687L505.445 120.874C502.516 117.945 502.516 113.197 505.445 110.268L514.087 101.626C515.063 100.65 515.063 99.067 514.087 98.0907L500.071 84.0744C499.488 83.4922 499.122 82.7285 499.033 81.9099Z" fill="white"/>
<path d="M662.501 117.5H659.738L657.174 94.5974C656.754 90.9304 655.419 87.4277 653.292 84.4112C651.165 81.3947 648.314 78.9611 645.001 77.334V74.9082C645.005 73.5945 644.747 72.2932 644.245 71.0795C643.742 69.8659 643.003 68.7641 642.071 67.8379C640.167 66.0186 637.634 65.0034 635 65.0034C632.367 65.0034 629.834 66.0186 627.929 67.8379C626.998 68.7641 626.259 69.8659 625.756 71.0795C625.253 72.2931 624.996 73.5945 625 74.9082V77.3339C621.687 78.9616 618.836 81.3957 616.709 84.4126C614.582 87.4295 613.247 90.9325 612.827 94.5998L610.264 117.5H607.5C606.837 117.5 606.201 117.764 605.732 118.232C605.263 118.701 605 119.337 605 120C605 120.663 605.263 121.299 605.732 121.768C606.201 122.237 606.837 122.5 607.5 122.5H622.5C622.504 125.813 623.824 128.988 626.167 131.328C628.511 133.669 631.688 134.983 635 134.983C638.313 134.983 641.49 133.669 643.833 131.328C646.177 128.988 647.496 125.813 647.501 122.5H662.501C663.164 122.5 663.8 122.237 664.269 121.768C664.738 121.299 665.001 120.663 665.001 120C665.001 119.337 664.738 118.701 664.269 118.232C663.8 117.764 663.164 117.5 662.501 117.5ZM630 74.9552C629.998 74.2984 630.127 73.6477 630.378 73.0409C630.629 72.4341 630.999 71.8832 631.465 71.4201C632.417 70.5099 633.683 70.0019 635 70.0019C636.318 70.0019 637.584 70.5099 638.536 71.4201C639.002 71.8832 639.371 72.4341 639.623 73.0409C639.874 73.6477 640.003 74.2984 640.001 74.9552V75.5793C636.712 74.8073 633.289 74.8072 630 75.5791V74.9552ZM617.795 95.1589C618.327 90.9714 620.367 87.1215 623.534 84.3309C626.701 81.5402 630.777 80.0004 634.998 80.0001C639.219 79.9998 643.295 81.539 646.463 84.3292C649.63 87.1194 651.671 90.969 652.203 95.1564L654.705 117.5H615.295L617.795 95.1589ZM635 130C633.011 129.998 631.105 129.207 629.699 127.801C628.293 126.395 627.502 124.489 627.5 122.5H642.501C642.499 124.489 641.707 126.395 640.301 127.801C638.895 129.207 636.988 129.998 635 130Z" fill="white"/>
<path d="M755.001 64.9993C748.079 64.9993 741.312 67.052 735.556 70.8978C729.8 74.7437 725.314 80.2099 722.665 86.6053C720.016 93.0008 719.323 100.038 720.674 106.827C722.024 113.617 725.358 119.853 730.252 124.748C735.147 129.643 741.384 132.976 748.173 134.327C754.962 135.677 762 134.984 768.395 132.335C774.79 129.686 780.257 125.2 784.103 119.444C787.948 113.689 790.001 106.922 790.001 99.9993C789.991 90.7199 786.3 81.8236 779.738 75.262C773.177 68.7005 764.28 65.0097 755.001 64.9993ZM777.888 119.351L735.649 77.1123C741.387 72.2462 748.745 69.7161 756.261 70.0244C763.778 70.3327 770.904 73.457 776.224 78.7766C781.543 84.0963 784.668 91.2222 784.976 98.739C785.284 106.256 782.754 113.614 777.888 119.351ZM732.114 80.6475L774.353 122.886C768.615 127.752 761.258 130.282 753.741 129.974C746.224 129.666 739.098 126.541 733.779 121.222C728.459 115.902 725.335 108.776 725.026 101.26C724.718 93.7428 727.248 86.385 732.114 80.6475Z" fill="white"/>
<path d="M892.5 70H857.5C854.186 70.0039 851.009 71.3221 848.665 73.6655C846.322 76.0088 845.004 79.186 845 82.5V117.5C845.004 120.814 846.322 123.991 848.665 126.335C851.009 128.678 854.186 129.996 857.5 130H878.039C879.03 129.998 880.01 129.8 880.925 129.419C881.839 129.038 882.669 128.481 883.368 127.779L902.829 108.13C904.224 106.728 905.005 104.829 905 102.852V82.5C904.996 79.186 903.678 76.0088 901.335 73.6655C898.991 71.3221 895.814 70.0039 892.5 70ZM850 117.5V82.5C850.002 80.5115 850.793 78.6052 852.199 77.1991C853.605 75.7931 855.512 75.0022 857.5 75H892.5C894.488 75.0022 896.395 75.7931 897.801 77.1991C899.207 78.6052 899.998 80.5115 900 82.5V102.5H882.5C881.174 102.502 879.903 103.029 878.966 103.966C878.029 104.903 877.502 106.174 877.5 107.5V125H857.5C855.512 124.998 853.605 124.207 852.199 122.801C850.793 121.395 850.002 119.488 850 117.5ZM882.5 121.548V107.5H896.415L882.5 121.548Z" fill="white"/>
<path d="M1012.5 90.0002H1010V81.1355C1010 71.9363 1003.55 65.0002 995.001 65.0002C986.451 65.0002 980.006 71.9363 980.006 81.1355V90.0002H977.501C974.85 90.0029 972.308 91.0573 970.433 92.9321C968.558 94.8069 967.504 97.3489 967.501 100V125C967.504 127.652 968.558 130.194 970.433 132.068C972.308 133.943 974.85 134.998 977.501 135H1012.5C1015.15 134.998 1017.69 133.943 1019.57 132.068C1021.44 130.194 1022.5 127.652 1022.5 125V100C1022.5 97.3489 1021.44 94.8069 1019.57 92.9321C1017.69 91.0573 1015.15 90.0029 1012.5 90.0002ZM985.006 81.1355C985.006 74.6828 989.21 70.0002 995.001 70.0002C1000.8 70.0002 1005 74.6827 1005 81.1355V90.0002H985.006V81.1355ZM1017.5 125C1017.5 126.326 1016.97 127.597 1016.03 128.534C1015.1 129.471 1013.83 129.999 1012.5 130H977.501C976.175 129.999 974.905 129.471 973.967 128.534C973.03 127.597 972.503 126.326 972.501 125V100C972.503 98.6747 973.03 97.4039 973.967 96.4666C974.905 95.5293 976.175 95.002 977.501 95.0002H1012.5C1013.83 95.002 1015.1 95.5293 1016.03 96.4666C1016.97 97.4039 1017.5 98.6747 1017.5 100V125Z" fill="white"/>
<path d="M180 247.5H130C129.337 247.5 128.701 247.763 128.232 248.232C127.763 248.701 127.5 249.337 127.5 250C127.5 250.663 127.763 251.299 128.232 251.768C128.701 252.237 129.337 252.5 130 252.5H180C180.663 252.5 181.299 252.237 181.768 251.768C182.237 251.299 182.5 250.663 182.5 250C182.5 249.337 182.237 248.701 181.768 248.232C181.299 247.763 180.663 247.5 180 247.5Z" fill="white"/>
<path d="M132.506 242.492L141.469 242.5C142.793 242.496 144.063 241.97 145.001 241.035L179.201 206.835C181.328 204.709 182.522 201.825 182.522 198.817C182.522 195.81 181.327 192.926 179.201 190.8C177.074 188.673 174.19 187.479 171.183 187.479C168.176 187.479 165.292 188.674 163.165 190.8L128.964 225.001C128.498 225.465 128.13 226.017 127.879 226.624C127.628 227.232 127.499 227.883 127.501 228.54L127.511 237.494C127.513 238.818 128.04 240.088 128.976 241.025C129.913 241.961 131.182 242.489 132.506 242.492ZM166.7 194.335C167.889 193.146 169.501 192.478 171.183 192.478C172.015 192.478 172.839 192.642 173.609 192.961C174.378 193.279 175.077 193.746 175.665 194.335C176.254 194.923 176.721 195.622 177.039 196.391C177.358 197.161 177.522 197.985 177.522 198.817C177.522 199.65 177.358 200.474 177.039 201.243C176.721 202.013 176.254 202.711 175.665 203.3L173.74 205.225C169.091 204.775 164.687 202.929 161.105 199.93L166.7 194.335ZM157.561 203.475C160.971 206.412 165.028 208.499 169.4 209.566L141.466 237.5L132.511 237.493L132.501 228.535L157.561 203.475Z" fill="white"/>
<path d="M260.733 234.267C261.202 234.736 261.838 234.999 262.501 234.999C263.164 234.999 263.799 234.736 264.268 234.267L289.268 209.267C289.506 209.036 289.696 208.76 289.826 208.456C289.956 208.151 290.025 207.823 290.027 207.492C290.03 207.16 289.966 206.832 289.841 206.525C289.715 206.218 289.53 205.939 289.295 205.705C289.061 205.471 288.782 205.285 288.475 205.159C288.169 205.034 287.84 204.97 287.508 204.973C287.177 204.975 286.849 205.044 286.544 205.174C286.24 205.305 285.964 205.494 285.733 205.732L260.733 230.732C260.264 231.201 260.001 231.837 260.001 232.5C260.001 233.163 260.264 233.798 260.733 234.267Z" fill="white"/>
<path d="M280.147 230.003C279.488 229.959 278.837 230.174 278.335 230.603C277.832 231.031 277.517 231.639 277.456 232.297C277.196 235.543 275.789 238.591 273.487 240.894L268.394 245.986C265.824 248.556 262.338 250 258.704 250C255.07 250 251.584 248.556 249.014 245.986C246.444 243.416 245.001 239.93 245.001 236.296C245.001 232.662 246.444 229.176 249.014 226.606L254.107 221.513C256.409 219.212 259.455 217.804 262.7 217.542C263.032 217.522 263.356 217.436 263.655 217.289C263.953 217.142 264.219 216.937 264.437 216.686C264.655 216.435 264.82 216.143 264.924 215.827C265.028 215.512 265.068 215.178 265.041 214.847C265.014 214.516 264.922 214.193 264.769 213.898C264.616 213.602 264.406 213.341 264.151 213.128C263.896 212.915 263.6 212.755 263.283 212.657C262.965 212.559 262.631 212.526 262.3 212.559C257.871 212.915 253.713 214.836 250.571 217.978L245.479 223.071C242.003 226.585 240.059 231.332 240.073 236.275C240.086 241.218 242.055 245.954 245.551 249.449C249.046 252.944 253.782 254.914 258.725 254.927C263.668 254.941 268.415 252.997 271.929 249.521L277.022 244.429C280.164 241.285 282.085 237.126 282.442 232.695C282.468 232.367 282.429 232.038 282.328 231.725C282.227 231.413 282.065 231.123 281.852 230.874C281.639 230.624 281.379 230.418 281.086 230.269C280.793 230.12 280.474 230.029 280.147 230.003Z" fill="white"/>
<path d="M304.522 190.478C301.012 186.976 296.256 185.009 291.297 185.009C286.338 185.009 281.582 186.976 278.072 190.478L273.042 195.509C269.765 198.605 267.801 202.841 267.557 207.343C267.536 207.671 267.579 208 267.685 208.311C267.791 208.621 267.957 208.908 268.174 209.155C268.39 209.402 268.654 209.603 268.948 209.748C269.243 209.893 269.563 209.978 269.891 210C270.218 210.021 270.547 209.977 270.858 209.871C271.169 209.766 271.456 209.6 271.702 209.383C271.949 209.166 272.15 208.903 272.295 208.608C272.44 208.314 272.526 207.993 272.547 207.666C272.719 204.408 274.14 201.343 276.514 199.106L281.607 194.013C284.177 191.443 287.663 190 291.297 190C294.932 190 298.418 191.444 300.987 194.014C303.557 196.584 305.001 200.07 305.001 203.704C305.001 207.339 303.557 210.824 300.987 213.394L295.894 218.486C293.593 220.788 290.547 222.195 287.303 222.456C286.658 222.505 286.057 222.802 285.626 223.285C285.196 223.768 284.97 224.4 284.995 225.046C285.02 225.693 285.295 226.304 285.762 226.752C286.229 227.2 286.851 227.45 287.498 227.448C287.564 227.448 287.632 227.446 287.698 227.441C292.128 227.085 296.287 225.164 299.429 222.021L304.522 216.93C308.024 213.419 309.991 208.663 309.991 203.704C309.992 198.745 308.024 193.989 304.522 190.478Z" fill="white"/>
<path d="M423.662 191.34C422.445 190.122 421 189.157 419.41 188.498C417.82 187.84 416.115 187.5 414.394 187.5C412.673 187.5 410.969 187.84 409.379 188.498C407.789 189.157 406.344 190.122 405.127 191.34L363.965 232.5C363.499 232.963 363.129 233.514 362.878 234.121C362.627 234.728 362.498 235.379 362.5 236.036V247.5C362.502 248.826 363.029 250.096 363.966 251.034C364.904 251.971 366.174 252.498 367.5 252.5H378.965C379.621 252.502 380.272 252.373 380.879 252.122C381.486 251.871 382.037 251.502 382.5 251.036L423.662 209.875C426.115 207.415 427.493 204.082 427.493 200.607C427.493 197.133 426.115 193.8 423.662 191.34ZM420.127 206.34L378.965 247.5H367.5V236.036L408.662 194.875C410.185 193.368 412.243 192.525 414.385 192.53C416.528 192.536 418.582 193.389 420.097 194.905C421.612 196.42 422.466 198.473 422.471 200.616C422.477 202.759 421.634 204.816 420.127 206.34Z" fill="white"/>
<path d="M532.5 190H497.5C494.186 190.004 491.009 191.322 488.665 193.665C486.322 196.009 485.004 199.186 485 202.5V237.5C485.004 240.814 486.322 243.991 488.665 246.335C491.009 248.678 494.186 249.996 497.5 250H532.5C535.814 249.996 538.991 248.678 541.335 246.335C543.678 243.991 544.996 240.814 545 237.5V202.5C544.996 199.186 543.678 196.009 541.335 193.665C538.991 191.322 535.814 190.004 532.5 190ZM539.25 199.286C539.738 200.288 539.995 201.386 540 202.5V207.5H531.036L539.25 199.286ZM526.036 212.5H540V220H518.536L526.036 212.5ZM513.536 225H540V232.5H506.036L513.536 225ZM490 202.5C490.002 200.512 490.793 198.605 492.199 197.199C493.605 195.793 495.512 195.002 497.5 195H532.5C533.614 195.006 534.712 195.263 535.714 195.752L490.752 240.713C490.263 239.712 490.006 238.614 490 237.5V202.5ZM532.5 245H497.5C496.386 244.994 495.288 244.737 494.287 244.249L501.036 237.5H540C539.998 239.488 539.207 241.395 537.801 242.801C536.395 244.207 534.488 244.998 532.5 245Z" fill="white"/>
<path d="M660 242.505L612.5 242.5V195C612.5 194.337 612.237 193.701 611.768 193.232C611.299 192.763 610.663 192.5 610 192.5C609.337 192.5 608.701 192.763 608.232 193.232C607.763 193.701 607.5 194.337 607.5 195V242.495C607.503 243.825 608.034 245.099 608.975 246.037C609.917 246.975 611.193 247.502 612.522 247.5L660 247.505C660.663 247.505 661.299 247.242 661.768 246.773C662.237 246.304 662.5 245.668 662.5 245.005C662.5 244.342 662.237 243.706 661.768 243.237C661.299 242.768 660.663 242.505 660 242.505Z" fill="white"/>
<path d="M622 229.002L632.367 214.85L643.964 228.538C644.903 229.474 646.174 230 647.5 230C647.575 230 647.652 230 647.727 229.995C648.441 229.958 649.14 229.77 649.776 229.443C650.412 229.117 650.972 228.659 651.418 228.101L662 214C662.398 213.47 662.569 212.803 662.475 212.146C662.381 211.49 662.03 210.898 661.5 210.5C661.237 210.303 660.938 210.16 660.62 210.078C660.302 209.997 659.971 209.979 659.646 210.025C658.99 210.119 658.398 210.47 658 211L647.638 225.154L636.043 211.469C635.552 210.977 634.964 210.593 634.317 210.341C633.669 210.09 632.976 209.976 632.282 210.008C631.568 210.045 630.869 210.233 630.232 210.559C629.595 210.885 629.035 211.343 628.587 211.901L618 225.999C617.602 226.529 617.431 227.196 617.524 227.852C617.618 228.509 617.968 229.102 618.498 229.5C619.029 229.898 619.696 230.069 620.352 229.976C621.009 229.882 621.602 229.532 622 229.002Z" fill="white"/>
<path d="M784.44 197.057L756.95 185.387C756.337 185.134 755.681 185.004 755.017 185.004C754.354 185.005 753.698 185.136 753.085 185.39L725.578 197.052C724.665 197.431 723.886 198.071 723.338 198.893C722.79 199.715 722.498 200.68 722.5 201.668V238.334C722.498 239.319 722.787 240.283 723.332 241.103C723.877 241.923 724.653 242.564 725.562 242.943L753.103 254.615C753.711 254.867 754.363 254.997 755.022 254.997C755.689 254.996 756.349 254.865 756.966 254.61L784.426 242.946C785.338 242.568 786.117 241.927 786.664 241.106C787.211 240.284 787.502 239.319 787.5 238.332V201.665C787.503 200.681 787.213 199.718 786.669 198.897C786.124 198.077 785.348 197.437 784.44 197.057ZM755.008 189.994L778.512 199.972L754.95 209.792L731.458 199.988L755.008 189.994ZM727.514 203.761L752.5 214.187V248.929L727.5 238.334L727.514 203.761ZM782.482 238.339L757.5 248.96V214.145L782.5 203.726V238.332L782.482 238.339Z" fill="white"/>
<path d="M847.5 195H902.5C903.163 195 903.799 194.737 904.268 194.268C904.737 193.799 905 193.163 905 192.5C905 191.837 904.737 191.201 904.268 190.732C903.799 190.263 903.163 190 902.5 190H847.5C846.837 190 846.201 190.263 845.732 190.732C845.263 191.201 845 191.837 845 192.5C845 193.163 845.263 193.799 845.732 194.268C846.201 194.737 846.837 195 847.5 195Z" fill="white"/>
<path d="M902.5 207.5H847.5C846.837 207.5 846.201 207.763 845.732 208.232C845.263 208.701 845 209.337 845 210C845 210.663 845.263 211.299 845.732 211.768C846.201 212.237 846.837 212.5 847.5 212.5H902.5C903.163 212.5 903.799 212.237 904.268 211.768C904.737 211.299 905 210.663 905 210C905 209.337 904.737 208.701 904.268 208.232C903.799 207.763 903.163 207.5 902.5 207.5Z" fill="white"/>
<path d="M902.5 225H847.5C846.837 225 846.201 225.263 845.732 225.732C845.263 226.201 845 226.837 845 227.5C845 228.163 845.263 228.799 845.732 229.268C846.201 229.737 846.837 230 847.5 230H902.5C903.163 230 903.799 229.737 904.268 229.268C904.737 228.799 905 228.163 905 227.5C905 226.837 904.737 226.201 904.268 225.732C903.799 225.263 903.163 225 902.5 225Z" fill="white"/>
<path d="M867.5 242.5H847.5C846.837 242.5 846.201 242.763 845.732 243.232C845.263 243.701 845 244.337 845 245C845 245.663 845.263 246.299 845.732 246.768C846.201 247.237 846.837 247.5 847.5 247.5H867.5C868.163 247.5 868.799 247.237 869.268 246.768C869.737 246.299 870 245.663 870 245C870 244.337 869.737 243.701 869.268 243.232C868.799 242.763 868.163 242.5 867.5 242.5Z" fill="white"/>
<path d="M1002.5 217.363H1008.56C1009.23 217.363 1009.86 217.1 1010.33 216.631L1028.04 198.918C1029.3 197.643 1030.01 195.921 1030 194.128C1030 192.335 1029.29 190.617 1028.02 189.349C1026.75 188.081 1025.03 187.366 1023.24 187.361C1021.45 187.355 1019.72 188.06 1018.45 189.321L1000.74 206.995C1000.5 207.227 1000.32 207.503 1000.19 207.806C1000.07 208.11 1000 208.436 1000 208.765V214.863C1000 215.526 1000.27 216.162 1000.74 216.631C1001.2 217.1 1001.84 217.363 1002.5 217.363ZM1005 209.802L1021.98 192.859C1022.32 192.528 1022.77 192.344 1023.24 192.346C1023.71 192.348 1024.16 192.536 1024.5 192.869C1024.83 193.202 1025.02 193.653 1025.02 194.124C1025.02 194.595 1024.84 195.048 1024.51 195.384L1007.53 212.364H1005L1005 209.802Z" fill="white"/>
<path d="M1027.5 215C1026.84 215 1026.2 215.263 1025.73 215.732C1025.26 216.201 1025 216.837 1025 217.5V240C1025 241.988 1024.21 243.895 1022.8 245.301C1021.39 246.707 1019.49 247.498 1017.5 247.5H972.5C970.512 247.498 968.605 246.707 967.199 245.301C965.793 243.895 965.002 241.988 965 240V210C965.002 208.012 965.793 206.105 967.199 204.699C968.605 203.293 970.512 202.502 972.5 202.5H995C995.663 202.5 996.299 202.237 996.768 201.768C997.237 201.299 997.5 200.663 997.5 200C997.5 199.337 997.237 198.701 996.768 198.232C996.299 197.763 995.663 197.5 995 197.5H972.5C969.186 197.504 966.009 198.822 963.665 201.165C961.322 203.509 960.004 206.686 960 210V240C960.004 243.314 961.322 246.491 963.665 248.835C966.009 251.178 969.186 252.496 972.5 252.5H1017.5C1020.81 252.496 1023.99 251.178 1026.33 248.835C1028.68 246.491 1030 243.314 1030 240V217.5C1030 216.837 1029.74 216.201 1029.27 215.732C1028.8 215.263 1028.16 215 1027.5 215Z" fill="white"/>
</svg>
