<svg width="559" height="286" viewBox="0 0 559 286" fill="none" xmlns="http://www.w3.org/2000/svg">
<rect width="559" height="286" rx="16" fill="#1A1A1A"/>
<path d="M70.4716 48.9432V60.5796H68.0114V48.9432H70.4716ZM82.8687 48.9432V60.5796H80.7437L75.6812 53.2557H75.596V60.5796H73.1357V48.9432H75.2948L80.3176 56.2614H80.4198V48.9432H82.8687ZM89.6664 60.5796H85.5414V48.9432H89.7005C90.8709 48.9432 91.8785 49.1762 92.7232 49.6421C93.5679 50.1042 94.2175 50.769 94.672 51.6364C95.1304 52.5038 95.3595 53.5417 95.3595 54.75C95.3595 55.9622 95.1304 57.0038 94.672 57.875C94.2175 58.7463 93.5641 59.4148 92.7118 59.8807C91.8633 60.3466 90.8482 60.5796 89.6664 60.5796ZM88.0016 58.4716H89.5641C90.2914 58.4716 90.9031 58.3428 91.3993 58.0853C91.8993 57.8239 92.2743 57.4205 92.5243 56.875C92.7781 56.3258 92.905 55.6175 92.905 54.75C92.905 53.8902 92.7781 53.1875 92.5243 52.6421C92.2743 52.0966 91.9012 51.6951 91.405 51.4375C90.9088 51.18 90.297 51.0512 89.5698 51.0512H88.0016V58.4716ZM100.282 48.9432V60.5796H97.822V48.9432H100.282ZM110.662 52.7046C110.583 52.4281 110.471 52.1838 110.327 51.9716C110.183 51.7557 110.007 51.5739 109.799 51.4262C109.594 51.2747 109.359 51.1591 109.094 51.0796C108.833 51 108.543 50.9603 108.225 50.9603C107.63 50.9603 107.107 51.108 106.657 51.4035C106.21 51.6989 105.861 52.1288 105.611 52.6932C105.361 53.2538 105.236 53.9394 105.236 54.75C105.236 55.5607 105.359 56.25 105.605 56.8182C105.852 57.3864 106.2 57.8201 106.651 58.1194C107.102 58.4148 107.634 58.5625 108.248 58.5625C108.804 58.5625 109.28 58.4641 109.674 58.2671C110.071 58.0663 110.374 57.7841 110.583 57.4205C110.795 57.0569 110.901 56.6269 110.901 56.1307L111.401 56.2046H108.401V54.3523H113.27V55.8182C113.27 56.841 113.054 57.7197 112.623 58.4546C112.191 59.1857 111.596 59.75 110.838 60.1478C110.081 60.5417 109.213 60.7387 108.236 60.7387C107.145 60.7387 106.187 60.4982 105.361 60.0171C104.535 59.5322 103.891 58.8447 103.429 57.9546C102.971 57.0607 102.742 56 102.742 54.7728C102.742 53.8296 102.878 52.9887 103.151 52.25C103.427 51.5076 103.814 50.8788 104.31 50.3637C104.806 49.8485 105.384 49.4565 106.043 49.1875C106.702 48.9186 107.416 48.7841 108.185 48.7841C108.844 48.7841 109.458 48.8807 110.026 49.0739C110.594 49.2633 111.098 49.5322 111.537 49.8807C111.98 50.2292 112.342 50.644 112.623 51.125C112.903 51.6023 113.083 52.1288 113.162 52.7046H110.662ZM126.451 54.7614C126.451 56.0303 126.211 57.1099 125.73 58C125.253 58.8902 124.601 59.5701 123.775 60.0398C122.953 60.5057 122.029 60.7387 121.003 60.7387C119.968 60.7387 119.04 60.5038 118.218 60.0341C117.396 59.5644 116.747 58.8845 116.27 57.9944C115.792 57.1042 115.554 56.0266 115.554 54.7614C115.554 53.4925 115.792 52.4129 116.27 51.5228C116.747 50.6326 117.396 49.9546 118.218 49.4887C119.04 49.019 119.968 48.7841 121.003 48.7841C122.029 48.7841 122.953 49.019 123.775 49.4887C124.601 49.9546 125.253 50.6326 125.73 51.5228C126.211 52.4129 126.451 53.4925 126.451 54.7614ZM123.957 54.7614C123.957 53.9394 123.834 53.2463 123.588 52.6819C123.345 52.1175 123.003 51.6894 122.559 51.3978C122.116 51.1061 121.597 50.9603 121.003 50.9603C120.408 50.9603 119.889 51.1061 119.446 51.3978C119.003 51.6894 118.658 52.1175 118.412 52.6819C118.169 53.2463 118.048 53.9394 118.048 54.7614C118.048 55.5834 118.169 56.2766 118.412 56.841C118.658 57.4053 119.003 57.8334 119.446 58.125C119.889 58.4167 120.408 58.5625 121.003 58.5625C121.597 58.5625 122.116 58.4167 122.559 58.125C123.003 57.8334 123.345 57.4053 123.588 56.841C123.834 56.2766 123.957 55.5834 123.957 54.7614Z" fill="white" fill-opacity="0.95"/>
<mask id="mask0_1241_30017" style="mask-type:alpha" maskUnits="userSpaceOnUse" x="60" y="82" width="75" height="74">
<rect x="60" y="82.5796" width="75" height="72.4205" rx="8" fill="url(#paint0_linear_1241_30017)"/>
</mask>
<g mask="url(#mask0_1241_30017)">
<rect x="60" y="82.5796" width="75" height="72.4205" fill="url(#paint1_linear_1241_30017)"/>
<path d="M77.354 95.5796C77.354 93.3705 79.1449 91.5796 81.354 91.5796H134.52V154.58H77.354V95.5796Z" fill="url(#paint2_linear_1241_30017)"/>
<rect opacity="0.4" x="60.5" y="83.0796" width="74" height="71.4205" rx="7.5" stroke="white" stroke-opacity="0.3"/>
</g>
<mask id="mask1_1241_30017" style="mask-type:alpha" maskUnits="userSpaceOnUse" x="60" y="171" width="75" height="73">
<rect x="60" y="171" width="75" height="72.4205" rx="8" fill="url(#paint3_linear_1241_30017)"/>
</mask>
<g mask="url(#mask1_1241_30017)">
<rect x="60" y="171" width="75" height="72.4205" fill="url(#paint4_linear_1241_30017)"/>
<rect x="60.5" y="171.5" width="74" height="71.4205" stroke="white" stroke-opacity="0.2"/>
<path d="M77.354 184C77.354 181.791 79.1449 180 81.354 180H134.52V243H77.354V184Z" fill="url(#paint5_linear_1241_30017)"/>
<path d="M77.854 184C77.854 182.067 79.421 180.5 81.354 180.5H134.02V242.5H77.854V184Z" stroke="white" stroke-opacity="0.2"/>
<rect opacity="0.4" x="60.5" y="171.5" width="74" height="71.4205" rx="7.5" stroke="black" stroke-opacity="0.2"/>
</g>
<path d="M171.67 46.3636H174.102V54.4773C174.102 55.2273 173.934 55.8788 173.597 56.4318C173.263 56.9848 172.799 57.411 172.205 57.7102C171.61 58.0095 170.919 58.1591 170.131 58.1591C169.43 58.1591 168.794 58.036 168.222 57.7898C167.653 57.5398 167.203 57.161 166.869 56.6534C166.536 56.142 166.371 55.5 166.375 54.7273H168.824C168.831 55.0341 168.894 55.2973 169.011 55.517C169.133 55.733 169.297 55.8996 169.506 56.017C169.718 56.1307 169.968 56.1875 170.256 56.1875C170.559 56.1875 170.814 56.1231 171.023 55.9943C171.235 55.8617 171.396 55.6686 171.506 55.4148C171.616 55.161 171.67 54.8485 171.67 54.4773V46.3636ZM178.782 58H176.146L180.163 46.3636H183.333L187.345 58H184.708L181.793 49.0227H181.703L178.782 58ZM178.617 53.4261H184.845V55.3466H178.617V53.4261ZM193.51 58H189.385V46.3636H193.544C194.715 46.3636 195.722 46.5966 196.567 47.0625C197.412 47.5246 198.061 48.1894 198.516 49.0568C198.974 49.9242 199.203 50.9621 199.203 52.1705C199.203 53.3826 198.974 54.4242 198.516 55.2955C198.061 56.1667 197.408 56.8352 196.556 57.3011C195.707 57.767 194.692 58 193.51 58ZM191.845 55.892H193.408C194.135 55.892 194.747 55.7633 195.243 55.5057C195.743 55.2443 196.118 54.8409 196.368 54.2955C196.622 53.7462 196.749 53.0379 196.749 52.1705C196.749 51.3106 196.622 50.608 196.368 50.0625C196.118 49.517 195.745 49.1155 195.249 48.858C194.753 48.6004 194.141 48.4716 193.414 48.4716H191.845V55.892ZM201.666 58V46.3636H209.507V48.392H204.126V51.1648H209.103V53.1932H204.126V55.9716H209.529V58H201.666Z" fill="white" fill-opacity="0.95"/>
<mask id="mask2_1241_30017" style="mask-type:alpha" maskUnits="userSpaceOnUse" x="151" y="80" width="75" height="75">
<rect x="151" y="80" width="75" height="75" rx="8" fill="url(#paint6_linear_1241_30017)"/>
</mask>
<g mask="url(#mask2_1241_30017)">
<rect x="151" y="80" width="75" height="75" fill="url(#paint7_linear_1241_30017)"/>
<path d="M168.354 93.3206C168.354 91.1114 170.145 89.3206 172.354 89.3206H225.52V154.565H168.354V93.3206Z" fill="url(#paint8_linear_1241_30017)"/>
<rect opacity="0.4" x="151.5" y="80.5" width="74" height="74" rx="7.5" stroke="white" stroke-opacity="0.3"/>
</g>
<mask id="mask3_1241_30017" style="mask-type:alpha" maskUnits="userSpaceOnUse" x="151" y="171" width="75" height="75">
<rect x="151" y="171" width="75" height="75" rx="8" fill="url(#paint9_linear_1241_30017)"/>
</mask>
<g mask="url(#mask3_1241_30017)">
<rect x="151" y="171" width="75" height="75" fill="url(#paint10_linear_1241_30017)"/>
<path d="M168.354 184.321C168.354 182.111 170.145 180.321 172.354 180.321H225.52V245.565H168.354V184.321Z" fill="url(#paint11_linear_1241_30017)"/>
<rect opacity="0.4" x="151.5" y="171.5" width="74" height="74" rx="7.5" stroke="white" stroke-opacity="0.3"/>
</g>
<path d="M245.511 58V46.3636H250.17C251.027 46.3636 251.741 46.4905 252.312 46.7443C252.884 46.9981 253.314 47.3504 253.602 47.8011C253.89 48.2481 254.034 48.7633 254.034 49.3466C254.034 49.8011 253.943 50.2008 253.761 50.5455C253.58 50.8864 253.33 51.1667 253.011 51.3864C252.697 51.6023 252.337 51.7557 251.932 51.8466V51.9602C252.375 51.9792 252.79 52.1042 253.176 52.3352C253.566 52.5663 253.883 52.8902 254.125 53.3068C254.367 53.7197 254.489 54.2121 254.489 54.7841C254.489 55.4015 254.335 55.9527 254.028 56.4375C253.725 56.9186 253.277 57.2992 252.682 57.5795C252.087 57.8598 251.354 58 250.483 58H245.511ZM247.972 55.9886H249.977C250.663 55.9886 251.163 55.858 251.477 55.5966C251.792 55.3314 251.949 54.9792 251.949 54.5398C251.949 54.2178 251.871 53.9337 251.716 53.6875C251.561 53.4413 251.339 53.2481 251.051 53.108C250.767 52.9678 250.428 52.8977 250.034 52.8977H247.972V55.9886ZM247.972 51.233H249.795C250.133 51.233 250.432 51.1742 250.693 51.0568C250.958 50.9356 251.167 50.7652 251.318 50.5455C251.473 50.3258 251.551 50.0625 251.551 49.7557C251.551 49.3352 251.402 48.9962 251.102 48.7386C250.807 48.4811 250.386 48.3523 249.841 48.3523H247.972V51.233ZM256.729 58V46.3636H261.32C262.199 46.3636 262.949 46.5208 263.57 46.8352C264.195 47.1458 264.671 47.5871 264.997 48.1591C265.326 48.7273 265.491 49.3958 265.491 50.1648C265.491 50.9375 265.324 51.6023 264.991 52.1591C264.658 52.7121 264.175 53.1364 263.542 53.4318C262.913 53.7273 262.152 53.875 261.258 53.875H258.184V51.8977H260.86C261.33 51.8977 261.72 51.8333 262.031 51.7045C262.341 51.5758 262.572 51.3826 262.724 51.125C262.879 50.8674 262.957 50.5473 262.957 50.1648C262.957 49.7784 262.879 49.4527 262.724 49.1875C262.572 48.9223 262.339 48.7216 262.025 48.5852C261.714 48.4451 261.322 48.375 260.849 48.375H259.19V58H256.729ZM263.014 52.7045L265.906 58H263.19L260.36 52.7045H263.014ZM278.563 52.1818C278.563 53.4508 278.322 54.5303 277.841 55.4205C277.364 56.3106 276.712 56.9905 275.887 57.4602C275.065 57.9261 274.14 58.1591 273.114 58.1591C272.08 58.1591 271.152 57.9242 270.33 57.4545C269.508 56.9848 268.858 56.3049 268.381 55.4148C267.904 54.5246 267.665 53.447 267.665 52.1818C267.665 50.9129 267.904 49.8333 268.381 48.9432C268.858 48.053 269.508 47.375 270.33 46.9091C271.152 46.4394 272.08 46.2045 273.114 46.2045C274.14 46.2045 275.065 46.4394 275.887 46.9091C276.712 47.375 277.364 48.053 277.841 48.9432C278.322 49.8333 278.563 50.9129 278.563 52.1818ZM276.068 52.1818C276.068 51.3598 275.945 50.6667 275.699 50.1023C275.457 49.5379 275.114 49.1098 274.671 48.8182C274.227 48.5265 273.709 48.3807 273.114 48.3807C272.519 48.3807 272 48.5265 271.557 48.8182C271.114 49.1098 270.769 49.5379 270.523 50.1023C270.28 50.6667 270.159 51.3598 270.159 52.1818C270.159 53.0038 270.28 53.697 270.523 54.2614C270.769 54.8258 271.114 55.2538 271.557 55.5455C272 55.8371 272.519 55.983 273.114 55.983C273.709 55.983 274.227 55.8371 274.671 55.5455C275.114 55.2538 275.457 54.8258 275.699 54.2614C275.945 53.697 276.068 53.0038 276.068 52.1818ZM290.758 46.3636V58H288.633L283.571 50.6761H283.485V58H281.025V46.3636H283.184L288.207 53.6818H288.309V46.3636H290.758ZM293.306 58V56.5398L299.113 48.392H293.294V46.3636H302.203V47.8239L296.391 55.9716H302.215V58H293.306ZM304.743 58V46.3636H312.584V48.392H307.203V51.1648H312.18V53.1932H307.203V55.9716H312.606V58H304.743Z" fill="white" fill-opacity="0.95"/>
<mask id="mask4_1241_30017" style="mask-type:alpha" maskUnits="userSpaceOnUse" x="242" y="80" width="75" height="75">
<rect x="242" y="80" width="75" height="75" rx="8" fill="url(#paint12_linear_1241_30017)"/>
</mask>
<g mask="url(#mask4_1241_30017)">
<rect x="242" y="80" width="75" height="75" fill="url(#paint13_linear_1241_30017)"/>
<path d="M259.354 93.3204C259.354 91.1113 261.145 89.3204 263.354 89.3204H316.52V154.564H259.354V93.3204Z" fill="url(#paint14_linear_1241_30017)"/>
<rect opacity="0.4" x="242.5" y="80.5" width="74" height="74" rx="7.5" stroke="white" stroke-opacity="0.3"/>
</g>
<mask id="mask5_1241_30017" style="mask-type:alpha" maskUnits="userSpaceOnUse" x="242" y="171" width="75" height="75">
<rect x="242" y="171" width="75" height="75" rx="8" fill="url(#paint15_linear_1241_30017)"/>
</mask>
<g mask="url(#mask5_1241_30017)">
<rect x="242" y="171" width="75" height="75" fill="url(#paint16_linear_1241_30017)"/>
<path d="M259.354 184.32C259.354 182.111 261.145 180.32 263.354 180.32H316.52V245.564H259.354V184.32Z" fill="url(#paint17_linear_1241_30017)"/>
<rect opacity="0.4" x="242.5" y="171.5" width="74" height="74" rx="7.5" stroke="white" stroke-opacity="0.3"/>
</g>
<path d="M348.511 58V46.3636H353.102C353.981 46.3636 354.731 46.5208 355.352 46.8352C355.977 47.1458 356.453 47.5871 356.778 48.1591C357.108 48.7273 357.273 49.3958 357.273 50.1648C357.273 50.9375 357.106 51.6023 356.773 52.1591C356.439 52.7121 355.956 53.1364 355.324 53.4318C354.695 53.7273 353.934 53.875 353.04 53.875H349.966V51.8977H352.642C353.112 51.8977 353.502 51.8333 353.812 51.7045C354.123 51.5758 354.354 51.3826 354.506 51.125C354.661 50.8674 354.739 50.5473 354.739 50.1648C354.739 49.7784 354.661 49.4527 354.506 49.1875C354.354 48.9223 354.121 48.7216 353.807 48.5852C353.496 48.4451 353.104 48.375 352.631 48.375H350.972V58H348.511ZM354.795 52.7045L357.688 58H354.972L352.142 52.7045H354.795ZM370.345 52.1818C370.345 53.4508 370.104 54.5303 369.623 55.4205C369.146 56.3106 368.494 56.9905 367.668 57.4602C366.846 57.9261 365.922 58.1591 364.896 58.1591C363.862 58.1591 362.934 57.9242 362.112 57.4545C361.29 56.9848 360.64 56.3049 360.163 55.4148C359.685 54.5246 359.447 53.447 359.447 52.1818C359.447 50.9129 359.685 49.8333 360.163 48.9432C360.64 48.053 361.29 47.375 362.112 46.9091C362.934 46.4394 363.862 46.2045 364.896 46.2045C365.922 46.2045 366.846 46.4394 367.668 46.9091C368.494 47.375 369.146 48.053 369.623 48.9432C370.104 49.8333 370.345 50.9129 370.345 52.1818ZM367.85 52.1818C367.85 51.3598 367.727 50.6667 367.481 50.1023C367.238 49.5379 366.896 49.1098 366.453 48.8182C366.009 48.5265 365.49 48.3807 364.896 48.3807C364.301 48.3807 363.782 48.5265 363.339 48.8182C362.896 49.1098 362.551 49.5379 362.305 50.1023C362.062 50.6667 361.941 51.3598 361.941 52.1818C361.941 53.0038 362.062 53.697 362.305 54.2614C362.551 54.8258 362.896 55.2538 363.339 55.5455C363.782 55.8371 364.301 55.983 364.896 55.983C365.49 55.983 366.009 55.8371 366.453 55.5455C366.896 55.2538 367.238 54.8258 367.481 54.2614C367.727 53.697 367.85 53.0038 367.85 52.1818ZM379.119 49.7102C379.074 49.2519 378.879 48.8958 378.534 48.642C378.19 48.3883 377.722 48.2614 377.131 48.2614C376.729 48.2614 376.39 48.3182 376.114 48.4318C375.837 48.5417 375.625 48.6951 375.477 48.892C375.334 49.089 375.262 49.3125 375.262 49.5625C375.254 49.7708 375.298 49.9527 375.392 50.108C375.491 50.2633 375.625 50.3977 375.796 50.5114C375.966 50.6212 376.163 50.7178 376.387 50.8011C376.61 50.8807 376.849 50.9489 377.102 51.0057L378.148 51.2557C378.655 51.3693 379.121 51.5208 379.546 51.7102C379.97 51.8996 380.337 52.1326 380.648 52.4091C380.959 52.6856 381.199 53.0114 381.369 53.3864C381.544 53.7614 381.633 54.1913 381.637 54.6761C381.633 55.3883 381.451 56.0057 381.091 56.5284C380.735 57.0473 380.22 57.4508 379.546 57.7386C378.875 58.0227 378.066 58.1648 377.119 58.1648C376.18 58.1648 375.362 58.0208 374.665 57.733C373.972 57.4451 373.43 57.0189 373.04 56.4545C372.654 55.8864 372.451 55.1837 372.432 54.3466H374.813C374.839 54.7367 374.951 55.0625 375.148 55.3239C375.349 55.5814 375.616 55.7765 375.949 55.9091C376.286 56.0379 376.667 56.1023 377.091 56.1023C377.508 56.1023 377.869 56.0417 378.176 55.9205C378.487 55.7992 378.727 55.6307 378.898 55.4148C379.068 55.1989 379.154 54.9508 379.154 54.6705C379.154 54.4091 379.076 54.1894 378.921 54.0114C378.769 53.8333 378.546 53.6818 378.25 53.5568C377.959 53.4318 377.601 53.3182 377.176 53.2159L375.909 52.8977C374.928 52.6591 374.154 52.286 373.585 51.7784C373.017 51.2708 372.735 50.5871 372.739 49.7273C372.735 49.0227 372.923 48.4072 373.301 47.8807C373.684 47.3542 374.209 46.9432 374.875 46.6477C375.542 46.3523 376.299 46.2045 377.148 46.2045C378.012 46.2045 378.765 46.3523 379.409 46.6477C380.057 46.9432 380.561 47.3542 380.921 47.8807C381.28 48.4072 381.466 49.017 381.477 49.7102H379.119ZM383.931 58V46.3636H391.772V48.392H386.392V51.1648H391.369V53.1932H386.392V55.9716H391.795V58H383.931Z" fill="white" fill-opacity="0.95"/>
<mask id="mask6_1241_30017" style="mask-type:alpha" maskUnits="userSpaceOnUse" x="333" y="80" width="75" height="75">
<rect x="333" y="80" width="75" height="75" rx="8" fill="url(#paint18_linear_1241_30017)"/>
</mask>
<g mask="url(#mask6_1241_30017)">
<rect x="333" y="80" width="75" height="75" fill="url(#paint19_linear_1241_30017)"/>
<path d="M350.354 93.3204C350.354 91.1113 352.145 89.3204 354.354 89.3204H407.52V154.564H350.354V93.3204Z" fill="url(#paint20_linear_1241_30017)"/>
<rect opacity="0.4" x="333.5" y="80.5" width="74" height="74" rx="7.5" stroke="white" stroke-opacity="0.3"/>
</g>
<mask id="mask7_1241_30017" style="mask-type:alpha" maskUnits="userSpaceOnUse" x="333" y="171" width="75" height="75">
<rect x="333" y="171" width="75" height="75" rx="8" fill="url(#paint21_linear_1241_30017)"/>
</mask>
<g mask="url(#mask7_1241_30017)">
<rect x="333" y="171" width="75" height="75" fill="url(#paint22_linear_1241_30017)"/>
<path d="M350.354 184.32C350.354 182.111 352.145 180.32 354.354 180.32H407.52V245.564H350.354V184.32Z" fill="url(#paint23_linear_1241_30017)"/>
<rect opacity="0.4" x="333.5" y="171.5" width="74" height="74" rx="7.5" stroke="white" stroke-opacity="0.3"/>
</g>
<path d="M416.511 58V46.3636H418.972V55.9716H423.96V58H416.511ZM428.532 58H425.896L429.913 46.3636H433.083L437.095 58H434.458L431.543 49.0227H431.453L428.532 58ZM428.367 53.4261H434.595V55.3466H428.367V53.4261ZM439.784 46.3636L442.597 55.2045H442.705L445.523 46.3636H448.25L444.239 58H441.068L437.051 46.3636H439.784ZM450.291 58V46.3636H458.132V48.392H452.751V51.1648H457.728V53.1932H452.751V55.9716H458.154V58H450.291ZM470.461 46.3636V58H468.336L463.273 50.6761H463.188V58H460.728V46.3636H462.887L467.909 53.6818H468.012V46.3636H470.461ZM477.258 58H473.133V46.3636H477.292C478.463 46.3636 479.47 46.5966 480.315 47.0625C481.16 47.5246 481.809 48.1894 482.264 49.0568C482.722 49.9242 482.951 50.9621 482.951 52.1705C482.951 53.3826 482.722 54.4242 482.264 55.2955C481.809 56.1667 481.156 56.8352 480.304 57.3011C479.455 57.767 478.44 58 477.258 58ZM475.593 55.892H477.156C477.883 55.892 478.495 55.7633 478.991 55.5057C479.491 55.2443 479.866 54.8409 480.116 54.2955C480.37 53.7462 480.497 53.0379 480.497 52.1705C480.497 51.3106 480.37 50.608 480.116 50.0625C479.866 49.517 479.493 49.1155 478.997 48.858C478.501 48.6004 477.889 48.4716 477.162 48.4716H475.593V55.892ZM486.763 58H484.127L488.144 46.3636H491.314L495.326 58H492.689L489.775 49.0227H489.684L486.763 58ZM486.599 53.4261H492.826V55.3466H486.599V53.4261ZM497.366 58V46.3636H501.957C502.836 46.3636 503.586 46.5208 504.207 46.8352C504.832 47.1458 505.308 47.5871 505.633 48.1591C505.963 48.7273 506.128 49.3958 506.128 50.1648C506.128 50.9375 505.961 51.6023 505.628 52.1591C505.294 52.7121 504.811 53.1364 504.179 53.4318C503.55 53.7273 502.789 53.875 501.895 53.875H498.821V51.8977H501.497C501.967 51.8977 502.357 51.8333 502.668 51.7045C502.978 51.5758 503.209 51.3826 503.361 51.125C503.516 50.8674 503.594 50.5473 503.594 50.1648C503.594 49.7784 503.516 49.4527 503.361 49.1875C503.209 48.9223 502.976 48.7216 502.662 48.5852C502.351 48.4451 501.959 48.375 501.486 48.375H499.827V58H497.366ZM503.65 52.7045L506.543 58H503.827L500.997 52.7045H503.65Z" fill="white" fill-opacity="0.95"/>
<mask id="mask8_1241_30017" style="mask-type:alpha" maskUnits="userSpaceOnUse" x="424" y="80" width="75" height="75">
<rect x="424" y="80" width="75" height="75" rx="8" fill="url(#paint24_linear_1241_30017)"/>
</mask>
<g mask="url(#mask8_1241_30017)">
<rect x="424" y="80" width="75" height="75" fill="url(#paint25_linear_1241_30017)"/>
<path d="M441.354 93.3206C441.354 91.1114 443.145 89.3206 445.354 89.3206H498.52V154.565H441.354V93.3206Z" fill="url(#paint26_linear_1241_30017)"/>
<rect opacity="0.4" x="424.5" y="80.5" width="74" height="74" rx="7.5" stroke="white" stroke-opacity="0.3"/>
</g>
<mask id="mask9_1241_30017" style="mask-type:alpha" maskUnits="userSpaceOnUse" x="424" y="171" width="75" height="75">
<rect x="424" y="171" width="75" height="75" rx="8" fill="url(#paint27_linear_1241_30017)"/>
</mask>
<g mask="url(#mask9_1241_30017)">
<rect x="424" y="171" width="75" height="75" fill="url(#paint28_linear_1241_30017)"/>
<path d="M441.354 184.321C441.354 182.111 443.145 180.321 445.354 180.321H498.52V245.565H441.354V184.321Z" fill="url(#paint29_linear_1241_30017)"/>
<rect opacity="0.4" x="424.5" y="171.5" width="74" height="74" rx="7.5" stroke="white" stroke-opacity="0.3"/>
</g>
<defs>
<linearGradient id="paint0_linear_1241_30017" x1="97.5" y1="82.5796" x2="97.5" y2="155" gradientUnits="userSpaceOnUse">
<stop stop-color="#13182B"/>
<stop offset="1" stop-color="#0E111A"/>
</linearGradient>
<linearGradient id="paint1_linear_1241_30017" x1="97.5" y1="82.5796" x2="97.5" y2="155" gradientUnits="userSpaceOnUse">
<stop stop-color="#13182B"/>
<stop offset="1" stop-color="#0E111A"/>
</linearGradient>
<linearGradient id="paint2_linear_1241_30017" x1="105.937" y1="91.5796" x2="105.937" y2="154.58" gradientUnits="userSpaceOnUse">
<stop stop-color="#212536"/>
<stop offset="1" stop-color="#0E111A"/>
</linearGradient>
<linearGradient id="paint3_linear_1241_30017" x1="97.5" y1="171" x2="97.5" y2="243.421" gradientUnits="userSpaceOnUse">
<stop stop-color="#13182B"/>
<stop offset="1" stop-color="#0E111A"/>
</linearGradient>
<linearGradient id="paint4_linear_1241_30017" x1="97.5" y1="171" x2="97.5" y2="243.421" gradientUnits="userSpaceOnUse">
<stop stop-color="#EBEFFC"/>
<stop offset="1" stop-color="white"/>
</linearGradient>
<linearGradient id="paint5_linear_1241_30017" x1="105.937" y1="180" x2="105.937" y2="243" gradientUnits="userSpaceOnUse">
<stop stop-color="#F7F9FF"/>
<stop offset="1" stop-color="white"/>
</linearGradient>
<linearGradient id="paint6_linear_1241_30017" x1="188.5" y1="80" x2="188.5" y2="155" gradientUnits="userSpaceOnUse">
<stop stop-color="#13182B"/>
<stop offset="1" stop-color="#0E111A"/>
</linearGradient>
<linearGradient id="paint7_linear_1241_30017" x1="188.5" y1="80" x2="188.5" y2="155" gradientUnits="userSpaceOnUse">
<stop stop-color="#001C18"/>
<stop offset="1" stop-color="#021412"/>
</linearGradient>
<linearGradient id="paint8_linear_1241_30017" x1="196.937" y1="89.3206" x2="196.937" y2="154.565" gradientUnits="userSpaceOnUse">
<stop stop-color="#122925"/>
<stop offset="1" stop-color="#021412"/>
</linearGradient>
<linearGradient id="paint9_linear_1241_30017" x1="188.5" y1="171" x2="188.5" y2="246" gradientUnits="userSpaceOnUse">
<stop stop-color="#13182B"/>
<stop offset="1" stop-color="#0E111A"/>
</linearGradient>
<linearGradient id="paint10_linear_1241_30017" x1="188.5" y1="171" x2="188.5" y2="246" gradientUnits="userSpaceOnUse">
<stop stop-color="#E6F2F1"/>
<stop offset="1" stop-color="white"/>
</linearGradient>
<linearGradient id="paint11_linear_1241_30017" x1="196.937" y1="180.321" x2="196.937" y2="245.565" gradientUnits="userSpaceOnUse">
<stop stop-color="#F7FCFC"/>
<stop offset="1" stop-color="white"/>
</linearGradient>
<linearGradient id="paint12_linear_1241_30017" x1="279.5" y1="80" x2="279.5" y2="155" gradientUnits="userSpaceOnUse">
<stop stop-color="#13182B"/>
<stop offset="1" stop-color="#0E111A"/>
</linearGradient>
<linearGradient id="paint13_linear_1241_30017" x1="279.5" y1="80" x2="279.5" y2="155" gradientUnits="userSpaceOnUse">
<stop stop-color="#1F1402"/>
<stop offset="1" stop-color="#171002"/>
</linearGradient>
<linearGradient id="paint14_linear_1241_30017" x1="287.937" y1="89.3204" x2="287.937" y2="154.564" gradientUnits="userSpaceOnUse">
<stop stop-color="#2E2515"/>
<stop offset="1" stop-color="#171002"/>
</linearGradient>
<linearGradient id="paint15_linear_1241_30017" x1="279.5" y1="171" x2="279.5" y2="246" gradientUnits="userSpaceOnUse">
<stop stop-color="#13182B"/>
<stop offset="1" stop-color="#0E111A"/>
</linearGradient>
<linearGradient id="paint16_linear_1241_30017" x1="279.5" y1="171" x2="279.5" y2="246" gradientUnits="userSpaceOnUse">
<stop stop-color="#F5EFE4"/>
<stop offset="1" stop-color="white"/>
</linearGradient>
<linearGradient id="paint17_linear_1241_30017" x1="287.937" y1="180.32" x2="287.937" y2="245.564" gradientUnits="userSpaceOnUse">
<stop stop-color="#FCFAF4"/>
<stop offset="1" stop-color="white"/>
</linearGradient>
<linearGradient id="paint18_linear_1241_30017" x1="370.5" y1="80" x2="370.5" y2="155" gradientUnits="userSpaceOnUse">
<stop stop-color="#13182B"/>
<stop offset="1" stop-color="#0E111A"/>
</linearGradient>
<linearGradient id="paint19_linear_1241_30017" x1="370.5" y1="80" x2="370.5" y2="155" gradientUnits="userSpaceOnUse">
<stop stop-color="#30041E"/>
<stop offset="1" stop-color="#1F0615"/>
</linearGradient>
<linearGradient id="paint20_linear_1241_30017" x1="378.937" y1="89.3204" x2="378.937" y2="154.564" gradientUnits="userSpaceOnUse">
<stop stop-color="#40162E"/>
<stop offset="1" stop-color="#1F0615"/>
</linearGradient>
<linearGradient id="paint21_linear_1241_30017" x1="370.5" y1="171" x2="370.5" y2="246" gradientUnits="userSpaceOnUse">
<stop stop-color="#13182B"/>
<stop offset="1" stop-color="#0E111A"/>
</linearGradient>
<linearGradient id="paint22_linear_1241_30017" x1="370.5" y1="171" x2="370.5" y2="246" gradientUnits="userSpaceOnUse">
<stop stop-color="#FCEBF5"/>
<stop offset="1" stop-color="white"/>
</linearGradient>
<linearGradient id="paint23_linear_1241_30017" x1="378.937" y1="180.32" x2="378.937" y2="245.564" gradientUnits="userSpaceOnUse">
<stop stop-color="#FFF9FD"/>
<stop offset="1" stop-color="white"/>
</linearGradient>
<linearGradient id="paint24_linear_1241_30017" x1="461.5" y1="80" x2="461.5" y2="155" gradientUnits="userSpaceOnUse">
<stop stop-color="#13182B"/>
<stop offset="1" stop-color="#0E111A"/>
</linearGradient>
<linearGradient id="paint25_linear_1241_30017" x1="461.5" y1="80" x2="461.5" y2="155" gradientUnits="userSpaceOnUse">
<stop stop-color="#231237"/>
<stop offset="1" stop-color="#18082B"/>
</linearGradient>
<linearGradient id="paint26_linear_1241_30017" x1="469.937" y1="89.3206" x2="469.937" y2="154.565" gradientUnits="userSpaceOnUse">
<stop stop-color="#301A4A"/>
<stop offset="1" stop-color="#18082B"/>
</linearGradient>
<linearGradient id="paint27_linear_1241_30017" x1="461.5" y1="171" x2="461.5" y2="246" gradientUnits="userSpaceOnUse">
<stop stop-color="#13182B"/>
<stop offset="1" stop-color="#0E111A"/>
</linearGradient>
<linearGradient id="paint28_linear_1241_30017" x1="461.5" y1="171" x2="461.5" y2="246" gradientUnits="userSpaceOnUse">
<stop stop-color="#F4EBFF"/>
<stop offset="1" stop-color="white"/>
</linearGradient>
<linearGradient id="paint29_linear_1241_30017" x1="469.937" y1="180.321" x2="469.937" y2="245.565" gradientUnits="userSpaceOnUse">
<stop stop-color="#FBF7FF"/>
<stop offset="1" stop-color="white"/>
</linearGradient>
</defs>
</svg>
