<svg width="559" height="381" viewBox="0 0 559 381" fill="none" xmlns="http://www.w3.org/2000/svg">
<rect width="559" height="380.411" rx="16" fill="#1A1A1A"/>
<g filter="url(#filter0_dd_1241_30408)">
<rect width="239.65" height="239.653" rx="12.7815" transform="matrix(0.965926 -0.258819 0.97237 0.233445 46.6855 264.466)" fill="url(#paint0_linear_1241_30408)"/>
<rect x="0.774197" y="-0.0101348" width="238.851" height="238.854" rx="12.3821" transform="matrix(0.965926 -0.258819 0.97237 0.233445 46.7218 264.658)" stroke="black" stroke-opacity="0.3" stroke-width="0.798843"/>
<path d="M334.112 293.415L331.706 284.436L335.301 283.473C335.962 283.296 336.539 283.246 337.033 283.323C337.527 283.401 337.931 283.584 338.246 283.872C338.561 284.158 338.779 284.525 338.899 284.976C338.993 285.326 339.006 285.653 338.937 285.957C338.867 286.258 338.732 286.526 338.532 286.761C338.334 286.992 338.088 287.185 337.794 287.339L337.817 287.427C338.163 287.35 338.509 287.361 338.855 287.459C339.204 287.557 339.515 287.741 339.788 288.013C340.061 288.281 340.256 288.636 340.374 289.077C340.502 289.554 340.497 290.011 340.361 290.448C340.226 290.882 339.959 291.269 339.558 291.608C339.157 291.947 338.62 292.207 337.948 292.387L334.112 293.415ZM335.594 291.354L337.142 290.939C337.671 290.798 338.03 290.593 338.218 290.327C338.406 290.057 338.455 289.753 338.364 289.414C338.297 289.165 338.179 288.962 338.008 288.804C337.837 288.646 337.626 288.543 337.375 288.495C337.127 288.445 336.851 288.461 336.547 288.543L334.955 288.969L335.594 291.354ZM334.611 287.685L336.019 287.307C336.279 287.238 336.497 287.131 336.675 286.986C336.854 286.838 336.98 286.663 337.051 286.462C337.126 286.26 337.131 286.041 337.068 285.805C336.981 285.48 336.795 285.249 336.511 285.113C336.23 284.975 335.879 284.962 335.458 285.075L334.016 285.462L334.611 287.685ZM344.316 290.681L342.281 291.226L342.975 281.416L345.422 280.761L350.923 288.91L348.889 289.455L344.783 283.131L344.713 283.15L344.316 290.681ZM343.243 287.185L348.048 285.898L348.445 287.38L343.64 288.667L343.243 287.185ZM358.434 280.643L356.514 281.158C356.412 280.919 356.281 280.717 356.122 280.553C355.961 280.387 355.777 280.257 355.571 280.165C355.365 280.073 355.141 280.021 354.899 280.007C354.66 279.993 354.412 280.02 354.155 280.089C353.69 280.213 353.316 280.437 353.033 280.761C352.75 281.081 352.571 281.486 352.499 281.975C352.426 282.462 352.472 283.016 352.639 283.639C352.811 284.279 353.05 284.791 353.357 285.176C353.666 285.56 354.023 285.816 354.428 285.946C354.832 286.076 355.261 286.08 355.714 285.958C355.968 285.89 356.194 285.794 356.393 285.669C356.594 285.543 356.762 285.393 356.897 285.219C357.031 285.042 357.129 284.845 357.19 284.628C357.254 284.41 357.275 284.176 357.255 283.924L359.178 283.419C359.238 283.844 359.221 284.275 359.125 284.711C359.031 285.143 358.857 285.555 358.605 285.945C358.354 286.332 358.023 286.674 357.611 286.973C357.202 287.267 356.709 287.492 356.133 287.646C355.332 287.86 354.567 287.871 353.839 287.678C353.114 287.484 352.476 287.092 351.927 286.503C351.38 285.914 350.976 285.131 350.715 284.154C350.452 283.175 350.413 282.293 350.597 281.507C350.782 280.722 351.141 280.065 351.676 279.536C352.21 279.004 352.872 278.633 353.661 278.421C354.182 278.282 354.683 278.226 355.167 278.253C355.653 278.279 356.106 278.387 356.526 278.575C356.946 278.76 357.318 279.025 357.642 279.371C357.969 279.715 358.233 280.14 358.434 280.643ZM361.853 285.982L359.447 277.003L361.345 276.494L362.406 280.453L362.524 280.421L364.695 275.597L366.97 274.987L364.715 279.9L369.416 283.955L367.145 284.564L363.696 281.531L363.067 282.921L363.751 285.473L361.853 285.982ZM374.678 276.032C374.559 275.835 374.422 275.67 374.268 275.536C374.112 275.399 373.938 275.295 373.747 275.225C373.558 275.15 373.353 275.109 373.132 275.103C372.914 275.095 372.682 275.125 372.436 275.19C371.977 275.313 371.605 275.535 371.318 275.857C371.034 276.177 370.854 276.581 370.778 277.068C370.701 277.552 370.746 278.107 370.914 278.733C371.081 279.358 371.319 279.865 371.626 280.252C371.934 280.64 372.292 280.902 372.702 281.04C373.111 281.175 373.552 281.179 374.026 281.052C374.455 280.937 374.802 280.762 375.065 280.529C375.33 280.292 375.506 280.011 375.591 279.688C375.68 279.363 375.673 279.01 375.57 278.627L375.971 278.58L373.657 279.201L373.274 277.771L377.031 276.765L377.334 277.896C377.545 278.685 377.56 279.408 377.379 280.064C377.197 280.717 376.855 281.276 376.353 281.739C375.849 282.2 375.221 282.531 374.467 282.733C373.625 282.959 372.836 282.971 372.099 282.771C371.362 282.568 370.723 282.17 370.182 281.579C369.644 280.984 369.248 280.213 368.994 279.266C368.799 278.538 368.73 277.861 368.788 277.235C368.848 276.605 369.016 276.04 369.292 275.539C369.569 275.039 369.933 274.617 370.386 274.274C370.839 273.93 371.362 273.678 371.956 273.519C372.464 273.383 372.958 273.331 373.436 273.362C373.914 273.391 374.358 273.494 374.769 273.673C375.183 273.85 375.548 274.095 375.864 274.408C376.179 274.719 376.426 275.088 376.607 275.516L374.678 276.032ZM380.238 281.055L377.832 272.076L381.375 271.127C382.053 270.946 382.664 270.912 383.208 271.026C383.755 271.136 384.213 271.379 384.583 271.753C384.954 272.123 385.22 272.605 385.379 273.198C385.538 273.794 385.547 274.342 385.405 274.84C385.262 275.336 384.977 275.763 384.55 276.122C384.126 276.48 383.569 276.751 382.88 276.936L380.508 277.572L380.099 276.046L382.164 275.493C382.526 275.396 382.814 275.265 383.027 275.102C383.24 274.938 383.378 274.741 383.442 274.511C383.509 274.28 383.502 274.017 383.423 273.722C383.343 273.424 383.216 273.189 383.041 273.016C382.87 272.843 382.648 272.736 382.378 272.696C382.109 272.652 381.792 272.679 381.427 272.777L380.146 273.12L382.137 280.547L380.238 281.055ZM383.992 275.67L387.319 279.158L385.223 279.72L381.945 276.219L383.992 275.67ZM395.882 272.052C396.145 273.031 396.182 273.914 395.995 274.7C395.811 275.485 395.449 276.145 394.909 276.678C394.371 277.207 393.706 277.578 392.914 277.791C392.116 278.004 391.351 278.015 390.62 277.823C389.888 277.63 389.246 277.24 388.694 276.652C388.142 276.063 387.735 275.281 387.473 274.305C387.211 273.326 387.172 272.443 387.356 271.658C387.54 270.872 387.901 270.215 388.439 269.685C388.976 269.153 389.644 268.78 390.442 268.566C391.234 268.354 391.996 268.344 392.727 268.536C393.461 268.725 394.103 269.114 394.656 269.702C395.211 270.289 395.62 271.073 395.882 272.052ZM393.958 272.567C393.788 271.933 393.549 271.424 393.243 271.039C392.939 270.654 392.586 270.394 392.184 270.261C391.781 270.128 391.351 270.122 390.892 270.245C390.433 270.368 390.063 270.588 389.781 270.905C389.499 271.221 389.322 271.623 389.249 272.109C389.178 272.595 389.228 273.155 389.398 273.789C389.568 274.423 389.805 274.933 390.108 275.319C390.415 275.703 390.77 275.962 391.172 276.096C391.574 276.229 392.005 276.234 392.464 276.111C392.923 275.988 393.293 275.769 393.574 275.452C393.856 275.135 394.032 274.734 394.102 274.248C394.176 273.762 394.127 273.202 393.958 272.567ZM402.125 265.567L404.024 265.058L405.586 270.889C405.762 271.544 405.759 272.159 405.578 272.734C405.399 273.308 405.068 273.807 404.583 274.231C404.098 274.653 403.484 274.963 402.741 275.162C401.996 275.362 401.308 275.4 400.677 275.278C400.045 275.153 399.508 274.886 399.067 274.478C398.626 274.07 398.317 273.539 398.142 272.884L396.579 267.053L398.478 266.545L399.997 272.213C400.088 272.555 400.244 272.839 400.465 273.065C400.688 273.291 400.957 273.442 401.273 273.521C401.588 273.599 401.929 273.589 402.294 273.491C402.662 273.393 402.962 273.231 403.193 273.006C403.427 272.781 403.583 272.515 403.661 272.209C403.741 271.902 403.736 271.578 403.644 271.236L402.125 265.567ZM413.59 262.495L415.996 271.474L414.356 271.914L408.935 267.309L408.869 267.327L410.384 272.978L408.485 273.487L406.079 264.508L407.745 264.061L413.134 268.67L413.213 268.648L411.7 263.002L413.59 262.495ZM421.241 270.069L418.058 270.922L415.652 261.943L418.861 261.083C419.764 260.841 420.59 260.812 421.338 260.997C422.085 261.179 422.724 261.558 423.254 262.133C423.787 262.708 424.179 263.461 424.428 264.393C424.679 265.329 424.718 266.18 424.544 266.947C424.373 267.713 424.007 268.364 423.446 268.9C422.888 269.435 422.153 269.824 421.241 270.069ZM419.52 268.786L420.726 268.463C421.287 268.313 421.733 268.087 422.062 267.786C422.394 267.481 422.6 267.092 422.68 266.619C422.762 266.143 422.714 265.57 422.534 264.901C422.357 264.237 422.113 263.721 421.805 263.353C421.499 262.984 421.128 262.751 420.692 262.655C420.256 262.559 419.757 262.586 419.196 262.736L417.986 263.061L419.52 268.786Z" fill="black" fill-opacity="0.95"/>
</g>
<rect width="239.653" height="239.653" rx="12.7815" transform="matrix(0.965926 -0.258819 0.97237 0.233445 46.6855 209.05)" fill="white"/>
<rect x="0.774197" y="-0.0101348" width="238.854" height="238.854" rx="12.3821" transform="matrix(0.965926 -0.258819 0.97237 0.233445 46.7218 209.242)" stroke="black" stroke-opacity="0.3" stroke-width="0.798843"/>
<path d="M337.39 231.03C337.26 230.686 337.036 230.451 336.717 230.327C336.399 230.202 336.011 230.201 335.555 230.323C335.246 230.406 334.996 230.52 334.806 230.665C334.615 230.807 334.483 230.969 334.41 231.152C334.34 231.333 334.33 231.521 334.382 231.714C334.419 231.876 334.491 232.007 334.596 232.107C334.704 232.207 334.835 232.283 334.99 232.335C335.145 232.385 335.317 232.419 335.506 232.437C335.695 232.452 335.893 232.455 336.101 232.446L336.959 232.423C337.375 232.406 337.765 232.427 338.132 232.485C338.498 232.543 338.83 232.647 339.127 232.796C339.424 232.945 339.677 233.147 339.886 233.401C340.098 233.655 340.255 233.968 340.358 234.341C340.503 234.892 340.49 235.406 340.321 235.883C340.153 236.357 339.839 236.775 339.378 237.137C338.92 237.494 338.325 237.771 337.594 237.967C336.869 238.161 336.208 238.219 335.611 238.141C335.017 238.063 334.511 237.846 334.093 237.491C333.677 237.132 333.376 236.632 333.188 235.99L335.025 235.498C335.126 235.793 335.28 236.022 335.486 236.183C335.694 236.34 335.94 236.435 336.225 236.469C336.512 236.498 336.819 236.469 337.146 236.381C337.467 236.295 337.734 236.174 337.946 236.017C338.16 235.859 338.311 235.679 338.398 235.477C338.485 235.276 338.499 235.067 338.441 234.85C338.387 234.649 338.282 234.495 338.125 234.39C337.972 234.284 337.768 234.213 337.514 234.178C337.263 234.142 336.963 234.128 336.615 234.137L335.571 234.153C334.765 234.172 334.09 234.044 333.547 233.77C333.004 233.496 332.644 233.027 332.47 232.362C332.321 231.819 332.338 231.306 332.522 230.821C332.708 230.336 333.028 229.91 333.481 229.544C333.935 229.178 334.489 228.908 335.143 228.732C335.81 228.554 336.422 228.512 336.98 228.607C337.541 228.701 338.015 228.914 338.401 229.246C338.788 229.578 339.057 230.01 339.209 230.542L337.39 231.03ZM345.957 225.967L347.855 225.458L349.417 231.289C349.593 231.944 349.59 232.558 349.409 233.133C349.231 233.707 348.899 234.207 348.414 234.631C347.929 235.052 347.315 235.362 346.573 235.561C345.827 235.761 345.139 235.8 344.508 235.678C343.876 235.552 343.34 235.286 342.898 234.878C342.457 234.47 342.148 233.938 341.973 233.284L340.411 227.453L342.309 226.944L343.828 232.613C343.92 232.955 344.075 233.239 344.296 233.465C344.519 233.69 344.788 233.842 345.104 233.92C345.419 233.999 345.76 233.989 346.125 233.891C346.493 233.792 346.793 233.631 347.024 233.406C347.258 233.18 347.414 232.914 347.492 232.608C347.573 232.302 347.567 231.977 347.476 231.635L345.957 225.967ZM352.317 233.886L349.911 224.907L353.453 223.958C354.131 223.776 354.742 223.742 355.287 223.857C355.833 223.967 356.291 224.209 356.661 224.583C357.033 224.954 357.298 225.435 357.457 226.029C357.617 226.625 357.626 227.172 357.484 227.671C357.341 228.167 357.056 228.594 356.629 228.953C356.205 229.311 355.648 229.582 354.958 229.767L352.586 230.402L352.177 228.877L354.242 228.323C354.605 228.226 354.892 228.096 355.105 227.932C355.318 227.769 355.457 227.572 355.52 227.342C355.587 227.111 355.581 226.848 355.502 226.553C355.422 226.255 355.295 226.019 355.12 225.847C354.948 225.673 354.727 225.567 354.456 225.526C354.187 225.483 353.87 225.51 353.505 225.607L352.225 225.95L354.215 233.377L352.317 233.886ZM356.071 228.501L359.397 231.989L357.301 232.55L354.023 229.049L356.071 228.501ZM360.912 231.583L358.507 222.604L364.452 221.011L364.871 222.576L360.824 223.66L361.398 225.8L365.05 224.821L365.469 226.386L361.817 227.365L362.811 231.074L360.912 231.583ZM369.055 229.401L367.02 229.946L367.714 220.137L370.16 219.481L375.662 227.631L373.627 228.176L369.522 221.851L369.452 221.87L369.055 229.401ZM367.982 225.906L372.787 224.618L373.184 226.1L368.379 227.388L367.982 225.906ZM383.173 219.364L381.253 219.878C381.151 219.639 381.02 219.438 380.86 219.274C380.7 219.107 380.516 218.978 380.31 218.886C380.104 218.794 379.88 218.741 379.638 218.727C379.399 218.713 379.151 218.74 378.894 218.809C378.429 218.934 378.055 219.158 377.772 219.481C377.488 219.801 377.31 220.206 377.238 220.696C377.164 221.182 377.211 221.736 377.378 222.359C377.55 222.999 377.789 223.511 378.095 223.896C378.405 224.28 378.762 224.537 379.166 224.666C379.571 224.796 379.999 224.8 380.453 224.679C380.707 224.611 380.933 224.514 381.131 224.389C381.333 224.263 381.501 224.113 381.636 223.939C381.77 223.762 381.868 223.565 381.929 223.348C381.992 223.131 382.014 222.896 381.994 222.645L383.916 222.139C383.977 222.564 383.959 222.995 383.863 223.431C383.769 223.864 383.596 224.275 383.344 224.665C383.093 225.052 382.762 225.395 382.35 225.693C381.94 225.987 381.448 226.212 380.872 226.366C380.071 226.581 379.306 226.591 378.578 226.398C377.852 226.204 377.215 225.813 376.665 225.224C376.119 224.634 375.715 223.851 375.453 222.875C375.191 221.896 375.152 221.013 375.336 220.228C375.52 219.442 375.88 218.785 376.415 218.256C376.949 217.725 377.611 217.353 378.4 217.142C378.92 217.002 379.422 216.946 379.906 216.973C380.392 217 380.845 217.107 381.265 217.295C381.685 217.48 382.056 217.746 382.381 218.091C382.708 218.436 382.972 218.86 383.173 219.364ZM386.592 224.702L384.186 215.723L390.236 214.102L390.655 215.667L386.503 216.78L387.077 218.919L390.917 217.89L391.337 219.455L387.496 220.484L388.071 222.628L392.24 221.511L392.659 223.076L386.592 224.702Z" fill="black" fill-opacity="0.95"/>
<rect width="239.653" height="239.653" rx="12.7815" transform="matrix(0.965926 -0.258819 0.97237 0.233445 46.6855 166.711)" fill="#F7F7F7"/>
<rect x="0.774197" y="-0.0101348" width="238.854" height="238.854" rx="12.3821" transform="matrix(0.965926 -0.258819 0.97237 0.233445 46.7218 166.903)" stroke="black" stroke-opacity="0.3" stroke-width="0.798843"/>
<path d="M337.86 184.212L335.94 184.726C335.838 184.487 335.708 184.286 335.548 184.122C335.387 183.955 335.204 183.825 334.997 183.734C334.791 183.642 334.567 183.589 334.325 183.575C334.087 183.561 333.839 183.588 333.581 183.657C333.117 183.782 332.743 184.006 332.46 184.329C332.176 184.649 331.998 185.054 331.925 185.543C331.852 186.03 331.899 186.584 332.066 187.207C332.237 187.847 332.476 188.359 332.783 188.744C333.092 189.128 333.449 189.385 333.854 189.514C334.258 189.644 334.687 189.648 335.14 189.527C335.394 189.459 335.621 189.362 335.819 189.237C336.02 189.111 336.188 188.961 336.323 188.787C336.458 188.61 336.555 188.413 336.616 188.196C336.68 187.979 336.702 187.744 336.681 187.493L338.604 186.987C338.665 187.412 338.647 187.843 338.551 188.279C338.457 188.712 338.284 189.123 338.031 189.513C337.781 189.9 337.449 190.242 337.038 190.541C336.628 190.835 336.135 191.06 335.559 191.214C334.758 191.429 333.994 191.439 333.265 191.246C332.54 191.052 331.902 190.661 331.353 190.072C330.807 189.482 330.402 188.699 330.141 187.723C329.879 186.743 329.839 185.861 330.024 185.076C330.208 184.29 330.568 183.633 331.103 183.104C331.637 182.573 332.298 182.201 333.088 181.99C333.608 181.85 334.11 181.794 334.593 181.821C335.079 181.848 335.533 181.955 335.953 182.143C336.372 182.328 336.744 182.594 337.068 182.939C337.396 183.284 337.66 183.708 337.86 184.212ZM348.327 182.85C348.59 183.829 348.627 184.711 348.44 185.498C348.256 186.283 347.894 186.943 347.354 187.476C346.816 188.005 346.151 188.376 345.359 188.588C344.561 188.802 343.796 188.813 343.065 188.62C342.333 188.428 341.691 188.038 341.139 187.449C340.587 186.861 340.18 186.079 339.918 185.103C339.656 184.124 339.617 183.241 339.801 182.456C339.985 181.67 340.346 181.013 340.884 180.483C341.422 179.951 342.089 179.578 342.887 179.364C343.679 179.152 344.441 179.142 345.172 179.334C345.906 179.523 346.549 179.912 347.101 180.5C347.656 181.087 348.065 181.87 348.327 182.85ZM346.403 183.365C346.233 182.731 345.994 182.222 345.688 181.837C345.384 181.452 345.031 181.192 344.629 181.059C344.226 180.925 343.796 180.92 343.337 181.043C342.878 181.166 342.508 181.386 342.226 181.703C341.944 182.019 341.767 182.421 341.694 182.907C341.623 183.393 341.673 183.953 341.843 184.587C342.013 185.221 342.25 185.731 342.554 186.117C342.86 186.501 343.215 186.76 343.617 186.894C344.019 187.027 344.45 187.032 344.909 186.909C345.368 186.786 345.738 186.566 346.02 186.25C346.301 185.933 346.477 185.532 346.548 185.046C346.621 184.56 346.573 184 346.403 183.365ZM356.535 175.839L358.94 184.818L357.301 185.257L351.88 180.652L351.814 180.67L353.329 186.321L351.43 186.83L349.024 177.851L350.69 177.405L356.079 182.013L356.158 181.992L354.645 176.345L356.535 175.839ZM358.674 176.943L358.255 175.378L365.629 173.402L366.049 174.967L363.3 175.704L365.286 183.117L363.41 183.62L361.423 176.206L358.674 176.943ZM369.743 181.923L367.337 172.944L373.388 171.323L373.807 172.888L369.655 174.001L370.228 176.14L374.069 175.111L374.488 176.676L370.648 177.705L371.222 179.849L375.392 178.732L375.811 180.297L369.743 181.923ZM382.901 168.774L385.307 177.753L383.667 178.192L378.247 173.588L378.181 173.605L379.695 179.256L377.797 179.765L375.391 170.786L377.057 170.34L382.445 174.948L382.524 174.927L381.011 169.28L382.901 168.774ZM385.041 169.878L384.621 168.313L391.996 166.337L392.415 167.902L389.666 168.639L391.652 176.052L389.776 176.555L387.79 169.142L385.041 169.878Z" fill="black" fill-opacity="0.95"/>
<rect width="239.653" height="239.653" rx="12.7815" transform="matrix(0.965926 -0.258819 0.972467 0.233039 47.7729 122.027)" fill="white" fill-opacity="0.05"/>
<rect width="239.653" height="239.653" rx="12.7815" transform="matrix(0.965926 -0.258819 0.972467 0.233039 47.7729 122.027)" stroke="#0F0F0F" stroke-width="2.39653" stroke-dasharray="4.79 4.79"/>
<path d="M322.294 153.467L319.888 144.488L323.483 143.525C324.143 143.348 324.721 143.298 325.214 143.376C325.708 143.453 326.113 143.636 326.428 143.924C326.743 144.21 326.96 144.578 327.081 145.028C327.175 145.378 327.187 145.706 327.118 146.009C327.049 146.31 326.914 146.578 326.714 146.813C326.516 147.045 326.27 147.237 325.976 147.391L325.999 147.479C326.345 147.402 326.691 147.413 327.037 147.511C327.386 147.609 327.697 147.793 327.97 148.065C328.242 148.333 328.438 148.688 328.556 149.129C328.684 149.606 328.679 150.063 328.543 150.5C328.408 150.934 328.141 151.321 327.74 151.66C327.339 151.999 326.802 152.259 326.13 152.439L322.294 153.467ZM323.776 151.406L325.324 150.992C325.853 150.85 326.212 150.646 326.4 150.379C326.588 150.109 326.636 149.805 326.546 149.466C326.479 149.217 326.36 149.014 326.19 148.856C326.019 148.699 325.808 148.595 325.557 148.547C325.309 148.497 325.033 148.513 324.729 148.595L323.137 149.021L323.776 151.406ZM322.793 147.737L324.2 147.36C324.46 147.29 324.679 147.183 324.857 147.038C325.036 146.89 325.162 146.715 325.233 146.514C325.308 146.313 325.313 146.093 325.25 145.857C325.163 145.532 324.977 145.302 324.693 145.165C324.412 145.027 324.061 145.015 323.64 145.127L322.197 145.514L322.793 147.737ZM337.998 144.447C338.26 145.426 338.298 146.309 338.111 147.095C337.927 147.881 337.565 148.54 337.024 149.073C336.487 149.603 335.822 149.974 335.029 150.186C334.232 150.4 333.467 150.41 332.736 150.218C332.004 150.025 331.362 149.635 330.81 149.047C330.258 148.459 329.851 147.677 329.589 146.7C329.327 145.721 329.288 144.839 329.472 144.053C329.656 143.268 330.017 142.61 330.555 142.081C331.092 141.548 331.76 141.175 332.558 140.962C333.35 140.749 334.112 140.739 334.843 140.932C335.576 141.121 336.219 141.509 336.772 142.097C337.327 142.685 337.736 143.468 337.998 144.447ZM336.073 144.963C335.903 144.329 335.665 143.819 335.358 143.435C335.055 143.049 334.702 142.79 334.299 142.656C333.897 142.523 333.467 142.518 333.008 142.641C332.549 142.764 332.179 142.983 331.897 143.3C331.615 143.617 331.438 144.018 331.364 144.505C331.294 144.99 331.344 145.55 331.514 146.185C331.684 146.819 331.921 147.329 332.224 147.714C332.531 148.099 332.886 148.358 333.288 148.491C333.69 148.625 334.121 148.63 334.58 148.507C335.038 148.384 335.409 148.164 335.69 147.847C335.972 147.531 336.148 147.129 336.218 146.644C336.292 146.157 336.243 145.597 336.073 144.963ZM341.101 148.427L338.695 139.449L342.238 138.499C342.916 138.318 343.527 138.284 344.071 138.398C344.618 138.509 345.076 138.751 345.445 139.125C345.817 139.495 346.083 139.977 346.242 140.57C346.401 141.166 346.41 141.714 346.268 142.212C346.125 142.708 345.84 143.135 345.413 143.494C344.989 143.852 344.432 144.123 343.742 144.308L341.371 144.944L340.962 143.418L343.027 142.865C343.389 142.768 343.677 142.637 343.89 142.474C344.103 142.31 344.241 142.113 344.305 141.883C344.372 141.652 344.365 141.389 344.286 141.094C344.206 140.796 344.079 140.561 343.904 140.388C343.733 140.215 343.511 140.108 343.241 140.068C342.972 140.024 342.655 140.051 342.29 140.149L341.009 140.492L342.999 147.919L341.101 148.427ZM344.855 143.042L348.182 146.53L346.086 147.092L342.808 143.591L344.855 143.042ZM352.88 145.271L349.697 146.124L347.291 137.145L350.5 136.285C351.403 136.043 352.229 136.015 352.977 136.2C353.725 136.382 354.363 136.76 354.893 137.336C355.426 137.91 355.818 138.664 356.068 139.596C356.318 140.531 356.357 141.383 356.183 142.15C356.013 142.916 355.647 143.567 355.085 144.102C354.527 144.637 353.792 145.027 352.88 145.271ZM351.16 143.989L352.365 143.666C352.926 143.516 353.372 143.29 353.701 142.988C354.033 142.683 354.239 142.295 354.319 141.822C354.402 141.346 354.353 140.773 354.174 140.104C353.996 139.44 353.753 138.924 353.444 138.556C353.138 138.187 352.767 137.954 352.331 137.858C351.895 137.762 351.397 137.789 350.835 137.939L349.625 138.263L351.16 143.989ZM359.173 143.585L356.767 134.606L362.817 132.985L363.237 134.55L359.085 135.663L359.658 137.802L363.499 136.773L363.918 138.338L360.078 139.367L360.652 141.511L364.821 140.394L365.241 141.959L359.173 143.585ZM367.226 141.427L364.82 132.448L368.363 131.499C369.041 131.317 369.652 131.284 370.197 131.398C370.743 131.508 371.201 131.751 371.571 132.125C371.942 132.495 372.208 132.977 372.367 133.57C372.527 134.166 372.535 134.714 372.393 135.212C372.25 135.708 371.966 136.135 371.538 136.494C371.114 136.852 370.557 137.123 369.868 137.308L367.496 137.944L367.087 136.418L369.152 135.865C369.514 135.767 369.802 135.637 370.015 135.474C370.228 135.31 370.367 135.113 370.43 134.883C370.497 134.652 370.491 134.389 370.411 134.094C370.332 133.796 370.204 133.56 370.03 133.388C369.858 133.215 369.637 133.108 369.366 133.068C369.097 133.024 368.78 133.051 368.415 133.149L367.135 133.492L369.125 140.919L367.226 141.427ZM370.98 136.042L374.307 139.53L372.211 140.092L368.933 136.591L370.98 136.042Z" fill="black" fill-opacity="0.95"/>
<defs>
<filter id="filter0_dd_1241_30408" x="8.34108" y="183.267" width="541.205" height="194.661" filterUnits="userSpaceOnUse" color-interpolation-filters="sRGB">
<feFlood flood-opacity="0" result="BackgroundImageFix"/>
<feColorMatrix in="SourceAlpha" type="matrix" values="0 0 0 0 0 0 0 0 0 0 0 0 0 0 0 0 0 0 127 0" result="hardAlpha"/>
<feOffset/>
<feGaussianBlur stdDeviation="0.399421"/>
<feColorMatrix type="matrix" values="0 0 0 0 0 0 0 0 0 0 0 0 0 0 0 0 0 0 0.12 0"/>
<feBlend mode="normal" in2="BackgroundImageFix" result="effect1_dropShadow_1241_30408"/>
<feColorMatrix in="SourceAlpha" type="matrix" values="0 0 0 0 0 0 0 0 0 0 0 0 0 0 0 0 0 0 127 0" result="hardAlpha"/>
<feOffset dy="19.1722"/>
<feGaussianBlur stdDeviation="19.1722"/>
<feColorMatrix type="matrix" values="0 0 0 0 0 0 0 0 0 0 0 0 0 0 0 0 0 0 0.2 0"/>
<feBlend mode="normal" in2="effect1_dropShadow_1241_30408" result="effect2_dropShadow_1241_30408"/>
<feBlend mode="normal" in="SourceGraphic" in2="effect2_dropShadow_1241_30408" result="shape"/>
</filter>
<linearGradient id="paint0_linear_1241_30408" x1="119.825" y1="0" x2="119.825" y2="239.653" gradientUnits="userSpaceOnUse">
<stop stop-color="#F0F0F0"/>
<stop offset="1" stop-color="white"/>
</linearGradient>
</defs>
</svg>
