<svg width="559" height="380" viewBox="0 0 559 380" fill="none" xmlns="http://www.w3.org/2000/svg">
<rect width="559" height="367" rx="16" fill="#1A1A1A"/>
<g filter="url(#filter0_dd_1241_30148)">
<rect x="52" y="143" width="400" height="164" rx="12" fill="white"/>
<rect x="51.5" y="142.5" width="401" height="165" rx="12.5" stroke="black" stroke-opacity="0.2"/>
<path d="M93.3868 198.4V183.52C93.3868 182.2 94.4668 181.12 95.7868 181.12C97.1068 181.12 98.1868 182.2 98.1868 183.52V198.4M93.3868 203.92V196.84C93.3868 194.86 91.7668 193.24 89.7868 193.24C89.1268 193.24 88.5868 193.78 88.5868 194.44V206.92C88.5868 212.92 91.5868 215.32 91.5868 215.32M91.5868 215.32L77.1868 222.52M91.5868 215.32C102.387 209.92 99.9868 223.72 91.5868 215.32ZM102.987 198.4V183.52C102.987 182.2 104.067 181.12 105.387 181.12C106.707 181.12 107.787 182.2 107.787 183.52V198.4M98.1868 196.6V181.72C98.1868 180.4 99.2668 179.32 100.587 179.32C101.907 179.32 102.987 180.4 102.987 181.72V196.6M107.787 221.92L124.587 230.32M92.1868 230.32L102.987 224.92C108.987 221.92 112.587 216.52 112.587 209.26V185.92C112.587 184.6 113.667 183.52 114.987 183.52C116.307 183.52 117.387 184.6 117.387 185.92V208.78C117.387 210.58 118.407 212.26 120.027 213.1L138.987 222.58M113.187 175.12L117.987 170.32M103.587 175.12L98.7868 170.32M108.387 174.52V167.92" stroke="url(#paint0_linear_1241_30148)" stroke-width="2.5" stroke-miterlimit="10" stroke-linecap="round" stroke-linejoin="round"/>
<path d="M169.568 168.48V170.496H166.144V180H163.456V170.496H160.08V168.48H169.568ZM173.113 170.608H170.425V168.48H173.113V170.608ZM173.017 180H170.521V171.68H173.017V180ZM179.539 178.32V180.016C179.016 180.165 178.509 180.24 178.019 180.24C177.112 180.24 176.419 179.989 175.939 179.488C175.523 179.051 175.315 178.448 175.315 177.68V173.408H174.051V171.68H175.315L175.475 169.68H177.811V171.68H179.523V173.408H177.811V177.76C177.811 177.984 177.88 178.16 178.019 178.288C178.168 178.405 178.371 178.464 178.627 178.464C178.829 178.464 179.133 178.416 179.539 178.32ZM183.157 168.48V180H180.661V168.48H183.157ZM190.543 177.584H193.087C192.874 178.459 192.41 179.125 191.695 179.584C190.991 180.021 190.085 180.24 188.975 180.24C187.567 180.24 186.463 179.803 185.663 178.928C184.949 178.139 184.591 177.109 184.591 175.84C184.591 174.347 185.034 173.211 185.919 172.432C186.677 171.771 187.669 171.44 188.895 171.44C190.346 171.44 191.439 171.909 192.175 172.848C192.847 173.701 193.183 174.901 193.183 176.448H187.119C187.279 177.813 187.941 178.496 189.103 178.496C189.477 178.496 189.791 178.416 190.047 178.256C190.303 178.096 190.469 177.872 190.543 177.584ZM188.847 173.008C187.834 173.008 187.258 173.669 187.119 174.992H190.623C190.559 173.669 189.967 173.008 188.847 173.008Z" fill="black" fill-opacity="0.95"/>
<path d="M161.2 196.48H162.832V208H161.2V196.48ZM166.687 208H165.151V199.68H166.415L166.591 200.736C167.21 199.872 168.053 199.44 169.119 199.44C170.101 199.44 170.853 199.744 171.375 200.352C171.834 200.896 172.063 201.637 172.063 202.576V208H170.527V202.592C170.527 201.365 169.935 200.752 168.751 200.752C168.133 200.752 167.626 200.965 167.231 201.392C166.869 201.776 166.687 202.267 166.687 202.864V208ZM178.946 199.68H180.482V205.136C180.482 206.331 181.058 206.928 182.21 206.928C182.914 206.928 183.453 206.677 183.826 206.176C184.114 205.792 184.258 205.317 184.258 204.752V199.68H185.794V208H184.53L184.354 207.04C183.768 207.84 182.936 208.24 181.858 208.24C180.909 208.24 180.178 207.947 179.666 207.36C179.186 206.816 178.946 206.064 178.946 205.104V199.68ZM189.578 196.48V208H188.042V196.48H189.578ZM195.535 206.768V208.08C195.14 208.187 194.762 208.24 194.399 208.24C193.631 208.24 193.055 208 192.671 207.52C192.34 207.125 192.175 206.597 192.175 205.936V200.992H190.943V199.68H192.175L192.271 197.68H193.711V199.68H195.503V200.992H193.711V205.968C193.711 206.587 194.004 206.896 194.591 206.896C194.868 206.896 195.183 206.853 195.535 206.768ZM198.515 208H196.979V199.68H198.243L198.451 200.912C198.921 199.931 199.625 199.44 200.563 199.44C200.873 199.44 201.177 199.477 201.475 199.552V201.088C201.113 200.992 200.787 200.944 200.499 200.944C199.881 200.944 199.395 201.195 199.043 201.696C198.691 202.197 198.515 202.907 198.515 203.824V208ZM204.315 198.288H202.587V196.48H204.315V198.288ZM204.219 208H202.683V199.68H204.219V208ZM211.888 205.328H213.568C213.44 206.224 213.018 206.944 212.304 207.488C211.653 207.989 210.858 208.24 209.92 208.24C208.693 208.24 207.717 207.819 206.992 206.976C206.32 206.197 205.984 205.173 205.984 203.904C205.984 202.432 206.389 201.291 207.2 200.48C207.893 199.787 208.794 199.44 209.904 199.44C210.928 199.44 211.77 199.712 212.432 200.256C213.018 200.736 213.376 201.365 213.504 202.144H211.808C211.701 201.696 211.482 201.349 211.152 201.104C210.832 200.859 210.426 200.736 209.936 200.736C209.178 200.736 208.597 201.035 208.192 201.632C207.808 202.187 207.616 202.96 207.616 203.952C207.616 204.987 207.872 205.771 208.384 206.304C208.789 206.731 209.312 206.944 209.952 206.944C210.506 206.944 210.96 206.784 211.312 206.464C211.621 206.187 211.813 205.808 211.888 205.328ZM220.987 205.6H222.651C222.416 206.443 221.952 207.104 221.259 207.584C220.608 208.021 219.83 208.24 218.923 208.24C217.611 208.24 216.587 207.824 215.851 206.992C215.179 206.213 214.843 205.163 214.843 203.84C214.843 202.336 215.27 201.195 216.123 200.416C216.827 199.765 217.734 199.44 218.843 199.44C220.144 199.44 221.126 199.861 221.787 200.704C222.427 201.515 222.747 202.672 222.747 204.176H216.411C216.475 205.157 216.774 205.888 217.307 206.368C217.744 206.752 218.299 206.944 218.971 206.944C219.494 206.944 219.947 206.8 220.331 206.512C220.651 206.267 220.87 205.963 220.987 205.6ZM218.875 200.672C218.192 200.672 217.643 200.885 217.227 201.312C216.832 201.707 216.582 202.256 216.475 202.96H221.179C221.126 202.16 220.859 201.563 220.379 201.168C219.995 200.837 219.494 200.672 218.875 200.672ZM229.453 205.744C229.453 205.275 229.207 204.923 228.717 204.688C228.429 204.56 227.869 204.4 227.037 204.208C226.013 203.984 225.282 203.659 224.845 203.232C224.482 202.869 224.301 202.395 224.301 201.808C224.301 201.029 224.615 200.432 225.245 200.016C225.81 199.632 226.573 199.44 227.533 199.44C228.525 199.44 229.33 199.685 229.949 200.176C230.482 200.603 230.813 201.168 230.941 201.872H229.373C229.191 201.061 228.573 200.656 227.517 200.656C226.93 200.656 226.493 200.763 226.205 200.976C225.97 201.157 225.853 201.387 225.853 201.664C225.853 202.005 225.981 202.261 226.237 202.432C226.503 202.603 227.021 202.773 227.789 202.944C228.962 203.2 229.778 203.515 230.237 203.888C230.749 204.304 231.005 204.885 231.005 205.632C231.005 206.464 230.663 207.12 229.981 207.6C229.362 208.027 228.546 208.24 227.533 208.24C226.423 208.24 225.543 207.973 224.893 207.44C224.327 206.971 224.013 206.363 223.949 205.616H225.517C225.687 206.555 226.365 207.024 227.549 207.024C228.189 207.024 228.685 206.885 229.037 206.608C229.314 206.384 229.453 206.096 229.453 205.744ZM245.062 208H243.798L243.526 206.832C242.886 207.771 241.963 208.24 240.758 208.24C239.595 208.24 238.678 207.819 238.006 206.976C237.387 206.197 237.078 205.168 237.078 203.888C237.078 202.341 237.472 201.179 238.262 200.4C238.923 199.76 239.787 199.44 240.854 199.44C242.006 199.44 242.896 199.872 243.526 200.736V196.48H245.062V208ZM238.678 203.92C238.678 204.955 238.934 205.739 239.446 206.272C239.872 206.709 240.422 206.928 241.094 206.928C241.926 206.928 242.571 206.613 243.03 205.984C243.414 205.44 243.606 204.757 243.606 203.936C243.606 202.859 243.35 202.037 242.838 201.472C242.4 200.992 241.819 200.752 241.094 200.752C240.283 200.752 239.67 201.045 239.254 201.632C238.87 202.165 238.678 202.928 238.678 203.92ZM248.62 202H246.988C247.073 201.168 247.468 200.523 248.172 200.064C248.801 199.648 249.596 199.44 250.556 199.44C251.697 199.44 252.572 199.739 253.18 200.336C253.692 200.848 253.948 201.509 253.948 202.32V208H252.684L252.492 206.864C251.841 207.781 250.913 208.24 249.708 208.24C248.758 208.24 248.017 207.984 247.484 207.472C247.046 207.045 246.828 206.507 246.828 205.856C246.828 205.035 247.11 204.4 247.676 203.952C248.177 203.557 248.945 203.269 249.98 203.088L252.412 202.672V202.256C252.412 201.712 252.225 201.301 251.852 201.024C251.521 200.779 251.068 200.656 250.492 200.656C249.361 200.656 248.737 201.104 248.62 202ZM250.076 206.944C250.726 206.944 251.292 206.731 251.772 206.304C252.198 205.909 252.412 205.456 252.412 204.944V203.872L250.348 204.24C249.59 204.368 249.073 204.565 248.796 204.832C248.572 205.045 248.46 205.333 248.46 205.696C248.46 206.101 248.598 206.411 248.876 206.624C249.153 206.837 249.553 206.944 250.076 206.944ZM256.104 199.68H257.368L257.608 200.768C258.291 199.883 259.23 199.44 260.424 199.44C261.619 199.44 262.547 199.867 263.208 200.72C263.795 201.488 264.088 202.507 264.088 203.776C264.088 205.28 263.688 206.432 262.888 207.232C262.216 207.904 261.358 208.24 260.312 208.24C259.128 208.24 258.238 207.803 257.64 206.928V210.88H256.104V199.68ZM262.488 203.744C262.488 202.699 262.227 201.915 261.704 201.392C261.288 200.965 260.744 200.752 260.072 200.752C259.294 200.752 258.675 201.035 258.216 201.6C257.779 202.144 257.56 202.859 257.56 203.744C257.56 204.811 257.822 205.627 258.344 206.192C258.782 206.683 259.358 206.928 260.072 206.928C260.872 206.928 261.48 206.635 261.896 206.048C262.291 205.504 262.488 204.736 262.488 203.744ZM267.486 198.288H265.758V196.48H267.486V198.288ZM267.39 208H265.854V199.68H267.39V208ZM270.9 208H269.636V196.48H271.172V200.832C271.822 199.904 272.75 199.44 273.956 199.44C275.15 199.44 276.078 199.867 276.74 200.72C277.326 201.488 277.62 202.507 277.62 203.776C277.62 205.28 277.22 206.432 276.42 207.232C275.748 207.904 274.889 208.24 273.844 208.24C272.66 208.24 271.758 207.792 271.14 206.896L270.9 208ZM276.02 203.744C276.02 202.699 275.758 201.915 275.236 201.392C274.82 200.965 274.276 200.752 273.604 200.752C272.825 200.752 272.206 201.035 271.748 201.6C271.31 202.144 271.092 202.859 271.092 203.744C271.092 204.811 271.353 205.627 271.876 206.192C272.313 206.683 272.889 206.928 273.604 206.928C274.404 206.928 275.012 206.635 275.428 206.048C275.822 205.504 276.02 204.736 276.02 203.744ZM279.306 199.68H280.842V205.136C280.842 206.331 281.418 206.928 282.57 206.928C283.274 206.928 283.812 206.677 284.186 206.176C284.474 205.792 284.618 205.317 284.618 204.752V199.68H286.154V208H284.89L284.714 207.04C284.127 207.84 283.295 208.24 282.218 208.24C281.268 208.24 280.538 207.947 280.026 207.36C279.546 206.816 279.306 206.064 279.306 205.104V199.68ZM293.265 205.744C293.265 205.275 293.02 204.923 292.529 204.688C292.241 204.56 291.681 204.4 290.849 204.208C289.825 203.984 289.095 203.659 288.657 203.232C288.295 202.869 288.113 202.395 288.113 201.808C288.113 201.029 288.428 200.432 289.057 200.016C289.623 199.632 290.385 199.44 291.345 199.44C292.337 199.44 293.143 199.685 293.761 200.176C294.295 200.603 294.625 201.168 294.753 201.872H293.185C293.004 201.061 292.385 200.656 291.329 200.656C290.743 200.656 290.305 200.763 290.017 200.976C289.783 201.157 289.665 201.387 289.665 201.664C289.665 202.005 289.793 202.261 290.049 202.432C290.316 202.603 290.833 202.773 291.601 202.944C292.775 203.2 293.591 203.515 294.049 203.888C294.561 204.304 294.817 204.885 294.817 205.632C294.817 206.464 294.476 207.12 293.793 207.6C293.175 208.027 292.359 208.24 291.345 208.24C290.236 208.24 289.356 207.973 288.705 207.44C288.14 206.971 287.825 206.363 287.761 205.616H289.329C289.5 206.555 290.177 207.024 291.361 207.024C292.001 207.024 292.497 206.885 292.849 206.608C293.127 206.384 293.265 206.096 293.265 205.744ZM305.082 206.768V208.08C304.687 208.187 304.309 208.24 303.946 208.24C303.178 208.24 302.602 208 302.218 207.52C301.887 207.125 301.722 206.597 301.722 205.936V200.992H300.49V199.68H301.722L301.818 197.68H303.258V199.68H305.05V200.992H303.258V205.968C303.258 206.587 303.551 206.896 304.138 206.896C304.415 206.896 304.73 206.853 305.082 206.768ZM305.968 203.84C305.968 202.315 306.421 201.163 307.328 200.384C308.053 199.755 308.971 199.44 310.08 199.44C311.371 199.44 312.384 199.851 313.12 200.672C313.824 201.44 314.176 202.496 314.176 203.84C314.176 205.344 313.733 206.491 312.848 207.28C312.123 207.92 311.195 208.24 310.064 208.24C308.773 208.24 307.755 207.813 307.008 206.96C306.315 206.181 305.968 205.141 305.968 203.84ZM307.568 203.84C307.568 204.907 307.84 205.723 308.384 206.288C308.832 206.757 309.403 206.992 310.096 206.992C310.907 206.992 311.531 206.688 311.968 206.08C312.373 205.525 312.576 204.779 312.576 203.84C312.576 202.752 312.309 201.931 311.776 201.376C311.339 200.917 310.773 200.688 310.08 200.688C309.28 200.688 308.656 200.992 308.208 201.6C307.781 202.155 307.568 202.901 307.568 203.84ZM317.469 208H315.933V199.68H317.197L317.405 200.912C317.874 199.931 318.578 199.44 319.516 199.44C319.826 199.44 320.13 199.477 320.429 199.552V201.088C320.066 200.992 319.741 200.944 319.453 200.944C318.834 200.944 318.349 201.195 317.997 201.696C317.645 202.197 317.469 202.907 317.469 203.824V208ZM325.348 206.768V208.08C324.953 208.187 324.574 208.24 324.212 208.24C323.444 208.24 322.868 208 322.484 207.52C322.153 207.125 321.988 206.597 321.988 205.936V200.992H320.756V199.68H321.988L322.084 197.68H323.524V199.68H325.316V200.992H323.524V205.968C323.524 206.587 323.817 206.896 324.404 206.896C324.681 206.896 324.996 206.853 325.348 206.768ZM326.234 203.84C326.234 202.315 326.687 201.163 327.594 200.384C328.319 199.755 329.236 199.44 330.346 199.44C331.636 199.44 332.65 199.851 333.386 200.672C334.09 201.44 334.442 202.496 334.442 203.84C334.442 205.344 333.999 206.491 333.114 207.28C332.388 207.92 331.46 208.24 330.33 208.24C329.039 208.24 328.02 207.813 327.274 206.96C326.58 206.181 326.234 205.141 326.234 203.84ZM327.834 203.84C327.834 204.907 328.106 205.723 328.65 206.288C329.098 206.757 329.668 206.992 330.362 206.992C331.172 206.992 331.796 206.688 332.234 206.08C332.639 205.525 332.842 204.779 332.842 203.84C332.842 202.752 332.575 201.931 332.042 201.376C331.604 200.917 331.039 200.688 330.346 200.688C329.546 200.688 328.922 200.992 328.474 201.6C328.047 202.155 327.834 202.901 327.834 203.84ZM337.734 208H336.198V199.68H337.462L337.67 200.912C338.139 199.931 338.843 199.44 339.782 199.44C340.091 199.44 340.395 199.477 340.694 199.552V201.088C340.331 200.992 340.006 200.944 339.718 200.944C339.099 200.944 338.614 201.195 338.262 201.696C337.91 202.197 337.734 202.907 337.734 203.824V208ZM348.33 198.288H346.602V196.48H348.33V198.288ZM348.234 208H346.698V199.68H348.234V208ZM352.015 208H350.479V199.68H351.743L351.919 200.736C352.538 199.872 353.381 199.44 354.447 199.44C355.429 199.44 356.181 199.744 356.703 200.352C357.162 200.896 357.391 201.637 357.391 202.576V208H355.855V202.592C355.855 201.365 355.263 200.752 354.079 200.752C353.461 200.752 352.954 200.965 352.559 201.392C352.197 201.776 352.015 202.267 352.015 202.864V208ZM364.354 199.68H365.618L365.858 200.768C366.541 199.883 367.48 199.44 368.674 199.44C369.869 199.44 370.797 199.867 371.458 200.72C372.045 201.488 372.338 202.507 372.338 203.776C372.338 205.28 371.938 206.432 371.138 207.232C370.466 207.904 369.608 208.24 368.562 208.24C367.378 208.24 366.488 207.803 365.89 206.928V210.88H364.354V199.68ZM370.738 203.744C370.738 202.699 370.477 201.915 369.954 201.392C369.538 200.965 368.994 200.752 368.322 200.752C367.544 200.752 366.925 201.035 366.466 201.6C366.029 202.144 365.81 202.859 365.81 203.744C365.81 204.811 366.072 205.627 366.594 206.192C367.032 206.683 367.608 206.928 368.322 206.928C369.122 206.928 369.73 206.635 370.146 206.048C370.541 205.504 370.738 204.736 370.738 203.744ZM373.624 203.84C373.624 202.315 374.078 201.163 374.984 200.384C375.71 199.755 376.627 199.44 377.736 199.44C379.027 199.44 380.04 199.851 380.776 200.672C381.48 201.44 381.832 202.496 381.832 203.84C381.832 205.344 381.39 206.491 380.504 207.28C379.779 207.92 378.851 208.24 377.72 208.24C376.43 208.24 375.411 207.813 374.664 206.96C373.971 206.181 373.624 205.141 373.624 203.84ZM375.224 203.84C375.224 204.907 375.496 205.723 376.04 206.288C376.488 206.757 377.059 206.992 377.752 206.992C378.563 206.992 379.187 206.688 379.624 206.08C380.03 205.525 380.232 204.779 380.232 203.84C380.232 202.752 379.966 201.931 379.432 201.376C378.995 200.917 378.43 200.688 377.736 200.688C376.936 200.688 376.312 200.992 375.864 201.6C375.438 202.155 375.224 202.901 375.224 203.84ZM388.453 205.744C388.453 205.275 388.207 204.923 387.717 204.688C387.429 204.56 386.869 204.4 386.037 204.208C385.013 203.984 384.282 203.659 383.845 203.232C383.482 202.869 383.301 202.395 383.301 201.808C383.301 201.029 383.615 200.432 384.245 200.016C384.81 199.632 385.573 199.44 386.533 199.44C387.525 199.44 388.33 199.685 388.949 200.176C389.482 200.603 389.813 201.168 389.941 201.872H388.373C388.191 201.061 387.573 200.656 386.517 200.656C385.93 200.656 385.493 200.763 385.205 200.976C384.97 201.157 384.853 201.387 384.853 201.664C384.853 202.005 384.981 202.261 385.237 202.432C385.503 202.603 386.021 202.773 386.789 202.944C387.962 203.2 388.778 203.515 389.237 203.888C389.749 204.304 390.005 204.885 390.005 205.632C390.005 206.464 389.663 207.12 388.981 207.6C388.362 208.027 387.546 208.24 386.533 208.24C385.423 208.24 384.543 207.973 383.893 207.44C383.327 206.971 383.013 206.363 382.949 205.616H384.517C384.687 206.555 385.365 207.024 386.549 207.024C387.189 207.024 387.685 206.885 388.037 206.608C388.314 206.384 388.453 206.096 388.453 205.744ZM391.681 199.68H393.217V205.136C393.217 206.331 393.793 206.928 394.945 206.928C395.649 206.928 396.187 206.677 396.561 206.176C396.849 205.792 396.993 205.317 396.993 204.752V199.68H398.529V208H397.265L397.089 207.04C396.502 207.84 395.67 208.24 394.593 208.24C393.643 208.24 392.913 207.947 392.401 207.36C391.921 206.816 391.681 206.064 391.681 205.104V199.68ZM406.44 205.6H408.104C407.87 206.443 407.406 207.104 406.712 207.584C406.062 208.021 405.283 208.24 404.376 208.24C403.064 208.24 402.04 207.824 401.304 206.992C400.632 206.213 400.296 205.163 400.296 203.84C400.296 202.336 400.723 201.195 401.576 200.416C402.28 199.765 403.187 199.44 404.296 199.44C405.598 199.44 406.579 199.861 407.24 200.704C407.88 201.515 408.2 202.672 408.2 204.176H401.864C401.928 205.157 402.227 205.888 402.76 206.368C403.198 206.752 403.752 206.944 404.424 206.944C404.947 206.944 405.4 206.8 405.784 206.512C406.104 206.267 406.323 205.963 406.44 205.6ZM404.328 200.672C403.646 200.672 403.096 200.885 402.68 201.312C402.286 201.707 402.035 202.256 401.928 202.96H406.632C406.579 202.16 406.312 201.563 405.832 201.168C405.448 200.837 404.947 200.672 404.328 200.672ZM411.578 208H410.042V199.68H411.306L411.514 200.912C411.983 199.931 412.687 199.44 413.626 199.44C413.935 199.44 414.239 199.477 414.538 199.552V201.088C414.175 200.992 413.85 200.944 413.562 200.944C412.943 200.944 412.458 201.195 412.106 201.696C411.754 202.197 411.578 202.907 411.578 203.824V208ZM421.253 205.6H422.917C422.682 206.443 422.218 207.104 421.525 207.584C420.874 208.021 420.095 208.24 419.189 208.24C417.877 208.24 416.853 207.824 416.117 206.992C415.445 206.213 415.109 205.163 415.109 203.84C415.109 202.336 415.535 201.195 416.389 200.416C417.093 199.765 417.999 199.44 419.109 199.44C420.41 199.44 421.391 199.861 422.053 200.704C422.693 201.515 423.013 202.672 423.013 204.176H416.677C416.741 205.157 417.039 205.888 417.573 206.368C418.01 206.752 418.565 206.944 419.237 206.944C419.759 206.944 420.213 206.8 420.597 206.512C420.917 206.267 421.135 205.963 421.253 205.6ZM419.141 200.672C418.458 200.672 417.909 200.885 417.493 201.312C417.098 201.707 416.847 202.256 416.741 202.96H421.445C421.391 202.16 421.125 201.563 420.645 201.168C420.261 200.837 419.759 200.672 419.141 200.672ZM427.062 208H425.206V206.144H427.062V208ZM168.096 228.88C168.096 228.496 168.011 228.192 167.84 227.968C167.648 227.701 167.296 227.456 166.784 227.232C166.272 227.008 165.499 226.752 164.464 226.464C163.077 226.08 162.123 225.605 161.6 225.04C161.173 224.581 160.96 223.968 160.96 223.2C160.96 222.272 161.365 221.536 162.176 220.992C162.923 220.491 163.893 220.24 165.088 220.24C166.421 220.24 167.504 220.555 168.336 221.184C169.083 221.739 169.52 222.464 169.648 223.36H167.968C167.872 222.752 167.552 222.299 167.008 222C166.528 221.723 165.888 221.584 165.088 221.584C164.192 221.584 163.531 221.755 163.104 222.096C162.763 222.363 162.592 222.709 162.592 223.136C162.592 223.413 162.635 223.643 162.72 223.824C162.816 223.995 162.976 224.149 163.2 224.288C163.616 224.565 164.421 224.869 165.616 225.2C167.28 225.669 168.405 226.203 168.992 226.8C169.483 227.291 169.728 227.963 169.728 228.816C169.728 229.829 169.285 230.667 168.4 231.328C167.568 231.936 166.512 232.24 165.232 232.24C163.899 232.24 162.795 231.883 161.92 231.168C161.163 230.549 160.709 229.749 160.56 228.768H162.24C162.347 229.472 162.683 230.011 163.248 230.384C163.76 230.725 164.411 230.896 165.2 230.896C166.181 230.896 166.933 230.672 167.456 230.224C167.883 229.861 168.096 229.413 168.096 228.88ZM177.237 229.6H178.901C178.666 230.443 178.202 231.104 177.509 231.584C176.858 232.021 176.08 232.24 175.173 232.24C173.861 232.24 172.837 231.824 172.101 230.992C171.429 230.213 171.093 229.163 171.093 227.84C171.093 226.336 171.52 225.195 172.373 224.416C173.077 223.765 173.984 223.44 175.093 223.44C176.394 223.44 177.376 223.861 178.037 224.704C178.677 225.515 178.997 226.672 178.997 228.176H172.661C172.725 229.157 173.024 229.888 173.557 230.368C173.994 230.752 174.549 230.944 175.221 230.944C175.744 230.944 176.197 230.8 176.581 230.512C176.901 230.267 177.12 229.963 177.237 229.6ZM175.125 224.672C174.442 224.672 173.893 224.885 173.477 225.312C173.082 225.707 172.832 226.256 172.725 226.96H177.429C177.376 226.16 177.109 225.563 176.629 225.168C176.245 224.837 175.744 224.672 175.125 224.672ZM188.343 232H187.079L186.807 230.832C186.167 231.771 185.244 232.24 184.039 232.24C182.876 232.24 181.959 231.819 181.287 230.976C180.668 230.197 180.359 229.168 180.359 227.888C180.359 226.341 180.753 225.179 181.543 224.4C182.204 223.76 183.068 223.44 184.135 223.44C185.287 223.44 186.177 223.872 186.807 224.736V220.48H188.343V232ZM181.959 227.92C181.959 228.955 182.215 229.739 182.727 230.272C183.153 230.709 183.703 230.928 184.375 230.928C185.207 230.928 185.852 230.613 186.311 229.984C186.695 229.44 186.887 228.757 186.887 227.936C186.887 226.859 186.631 226.037 186.119 225.472C185.681 224.992 185.1 224.752 184.375 224.752C183.564 224.752 182.951 225.045 182.535 225.632C182.151 226.165 181.959 226.928 181.959 227.92ZM196.922 232H195.386V223.68H196.65L196.858 224.912C197.327 223.931 198.031 223.44 198.97 223.44C199.279 223.44 199.583 223.477 199.882 223.552V225.088C199.519 224.992 199.194 224.944 198.906 224.944C198.287 224.944 197.802 225.195 197.45 225.696C197.098 226.197 196.922 226.907 196.922 227.824V232ZM202.625 232H201.089V220.48H202.625V224.624C203.233 223.835 204.043 223.44 205.057 223.44C206.038 223.44 206.79 223.744 207.313 224.352C207.771 224.896 208.001 225.637 208.001 226.576V232H206.465V226.592C206.465 225.365 205.873 224.752 204.689 224.752C204.059 224.752 203.547 224.971 203.153 225.408C202.801 225.803 202.625 226.309 202.625 226.928V232ZM209.687 227.84C209.687 226.315 210.14 225.163 211.047 224.384C211.772 223.755 212.69 223.44 213.799 223.44C215.09 223.44 216.103 223.851 216.839 224.672C217.543 225.44 217.895 226.496 217.895 227.84C217.895 229.344 217.452 230.491 216.567 231.28C215.842 231.92 214.914 232.24 213.783 232.24C212.492 232.24 211.474 231.813 210.727 230.96C210.034 230.181 209.687 229.141 209.687 227.84ZM211.287 227.84C211.287 228.907 211.559 229.723 212.103 230.288C212.551 230.757 213.122 230.992 213.815 230.992C214.626 230.992 215.25 230.688 215.687 230.08C216.092 229.525 216.295 228.779 216.295 227.84C216.295 226.752 216.028 225.931 215.495 225.376C215.058 224.917 214.492 224.688 213.799 224.688C212.999 224.688 212.375 224.992 211.927 225.6C211.5 226.155 211.287 226.901 211.287 227.84ZM221.187 232H219.651V223.68H220.915L221.091 224.736C221.71 223.872 222.553 223.44 223.619 223.44C224.601 223.44 225.353 223.744 225.875 224.352C226.334 224.896 226.563 225.637 226.563 226.576V232H225.027V226.592C225.027 225.365 224.435 224.752 223.251 224.752C222.633 224.752 222.126 224.965 221.731 225.392C221.369 225.776 221.187 226.267 221.187 226.864V232ZM234.153 229.328H235.833C235.705 230.224 235.284 230.944 234.569 231.488C233.919 231.989 233.124 232.24 232.185 232.24C230.959 232.24 229.983 231.819 229.257 230.976C228.585 230.197 228.249 229.173 228.249 227.904C228.249 226.432 228.655 225.291 229.465 224.48C230.159 223.787 231.06 223.44 232.169 223.44C233.193 223.44 234.036 223.712 234.697 224.256C235.284 224.736 235.641 225.365 235.769 226.144H234.073C233.967 225.696 233.748 225.349 233.417 225.104C233.097 224.859 232.692 224.736 232.201 224.736C231.444 224.736 230.863 225.035 230.457 225.632C230.073 226.187 229.881 226.96 229.881 227.952C229.881 228.987 230.137 229.771 230.649 230.304C231.055 230.731 231.577 230.944 232.217 230.944C232.772 230.944 233.225 230.784 233.577 230.464C233.887 230.187 234.079 229.808 234.153 229.328ZM237.509 223.68H239.045V229.136C239.045 230.331 239.621 230.928 240.773 230.928C241.477 230.928 242.015 230.677 242.389 230.176C242.677 229.792 242.821 229.317 242.821 228.752V223.68H244.357V232H243.093L242.917 231.04C242.33 231.84 241.498 232.24 240.421 232.24C239.471 232.24 238.741 231.947 238.229 231.36C237.749 230.816 237.509 230.064 237.509 229.104V223.68ZM251.468 229.744C251.468 229.275 251.223 228.923 250.732 228.688C250.444 228.56 249.884 228.4 249.052 228.208C248.028 227.984 247.298 227.659 246.86 227.232C246.498 226.869 246.316 226.395 246.316 225.808C246.316 225.029 246.631 224.432 247.26 224.016C247.826 223.632 248.588 223.44 249.548 223.44C250.54 223.44 251.346 223.685 251.964 224.176C252.498 224.603 252.828 225.168 252.956 225.872H251.388C251.207 225.061 250.588 224.656 249.532 224.656C248.946 224.656 248.508 224.763 248.22 224.976C247.986 225.157 247.868 225.387 247.868 225.664C247.868 226.005 247.996 226.261 248.252 226.432C248.519 226.603 249.036 226.773 249.804 226.944C250.978 227.2 251.794 227.515 252.252 227.888C252.764 228.304 253.02 228.885 253.02 229.632C253.02 230.464 252.679 231.12 251.996 231.6C251.378 232.027 250.562 232.24 249.548 232.24C248.439 232.24 247.559 231.973 246.908 231.44C246.343 230.971 246.028 230.363 245.964 229.616H247.532C247.703 230.555 248.38 231.024 249.564 231.024C250.204 231.024 250.7 230.885 251.052 230.608C251.33 230.384 251.468 230.096 251.468 229.744ZM261.109 232H259.573V223.68H260.837L260.997 224.656C261.562 223.845 262.378 223.44 263.445 223.44C264.608 223.44 265.424 223.877 265.893 224.752C266.448 223.877 267.349 223.44 268.597 223.44C269.525 223.44 270.24 223.723 270.741 224.288C271.189 224.811 271.413 225.525 271.413 226.432V232H269.877V226.544C269.877 225.349 269.338 224.752 268.261 224.752C267.621 224.752 267.109 225.003 266.725 225.504C266.416 225.909 266.261 226.384 266.261 226.928V232H264.725V226.544C264.725 225.349 264.186 224.752 263.109 224.752C262.512 224.752 262.016 224.987 261.621 225.456C261.28 225.851 261.109 226.325 261.109 226.88V232ZM275.205 222.288H273.477V220.48H275.205V222.288ZM275.109 232H273.573V223.68H275.109V232ZM287.015 229.744C287.015 229.275 286.77 228.923 286.279 228.688C285.991 228.56 285.431 228.4 284.599 228.208C283.575 227.984 282.845 227.659 282.407 227.232C282.045 226.869 281.863 226.395 281.863 225.808C281.863 225.029 282.178 224.432 282.807 224.016C283.373 223.632 284.135 223.44 285.095 223.44C286.087 223.44 286.893 223.685 287.511 224.176C288.045 224.603 288.375 225.168 288.503 225.872H286.935C286.754 225.061 286.135 224.656 285.079 224.656C284.493 224.656 284.055 224.763 283.767 224.976C283.533 225.157 283.415 225.387 283.415 225.664C283.415 226.005 283.543 226.261 283.799 226.432C284.066 226.603 284.583 226.773 285.351 226.944C286.525 227.2 287.341 227.515 287.799 227.888C288.311 228.304 288.567 228.885 288.567 229.632C288.567 230.464 288.226 231.12 287.543 231.6C286.925 232.027 286.109 232.24 285.095 232.24C283.986 232.24 283.106 231.973 282.455 231.44C281.89 230.971 281.575 230.363 281.511 229.616H283.079C283.25 230.555 283.927 231.024 285.111 231.024C285.751 231.024 286.247 230.885 286.599 230.608C286.877 230.384 287.015 230.096 287.015 229.744ZM295.987 229.6H297.651C297.416 230.443 296.952 231.104 296.259 231.584C295.608 232.021 294.83 232.24 293.923 232.24C292.611 232.24 291.587 231.824 290.851 230.992C290.179 230.213 289.843 229.163 289.843 227.84C289.843 226.336 290.27 225.195 291.123 224.416C291.827 223.765 292.734 223.44 293.843 223.44C295.144 223.44 296.126 223.861 296.787 224.704C297.427 225.515 297.747 226.672 297.747 228.176H291.411C291.475 229.157 291.774 229.888 292.307 230.368C292.744 230.752 293.299 230.944 293.971 230.944C294.494 230.944 294.947 230.8 295.331 230.512C295.651 230.267 295.87 229.963 295.987 229.6ZM293.875 224.672C293.192 224.672 292.643 224.885 292.227 225.312C291.832 225.707 291.582 226.256 291.475 226.96H296.179C296.126 226.16 295.859 225.563 295.379 225.168C294.995 224.837 294.494 224.672 293.875 224.672ZM301.125 232H299.589V223.68H300.853L301.013 224.656C301.578 223.845 302.394 223.44 303.461 223.44C304.623 223.44 305.439 223.877 305.909 224.752C306.463 223.877 307.365 223.44 308.613 223.44C309.541 223.44 310.255 223.723 310.757 224.288C311.205 224.811 311.429 225.525 311.429 226.432V232H309.893V226.544C309.893 225.349 309.354 224.752 308.277 224.752C307.637 224.752 307.125 225.003 306.741 225.504C306.431 225.909 306.277 226.384 306.277 226.928V232H304.741V226.544C304.741 225.349 304.202 224.752 303.125 224.752C302.527 224.752 302.031 224.987 301.637 225.456C301.295 225.851 301.125 226.325 301.125 226.88V232ZM315.797 232H313.941V230.144H315.797V232Z" fill="black" fill-opacity="0.7"/>
<path d="M432.707 163L436.854 158.853C436.9 158.807 436.937 158.752 436.962 158.691C436.987 158.631 437 158.566 437 158.5C437 158.434 436.987 158.369 436.962 158.309C436.937 158.248 436.9 158.193 436.854 158.146C436.807 158.1 436.752 158.063 436.691 158.038C436.631 158.013 436.566 158 436.5 158C436.434 158 436.369 158.013 436.309 158.038C436.248 158.063 436.193 158.1 436.147 158.146L432 162.293L427.854 158.146C427.807 158.1 427.752 158.062 427.691 158.037C427.631 158.011 427.565 157.998 427.499 157.998C427.434 157.998 427.368 158.011 427.307 158.036C427.246 158.061 427.191 158.098 427.144 158.144C427.098 158.191 427.061 158.246 427.036 158.307C427.011 158.368 426.998 158.433 426.998 158.499C426.998 158.565 427.011 158.63 427.037 158.691C427.062 158.752 427.1 158.807 427.147 158.853L431.293 163L427.147 167.146C427.1 167.193 427.063 167.248 427.038 167.309C427.013 167.369 427 167.434 427 167.5C427 167.566 427.013 167.631 427.038 167.691C427.063 167.752 427.1 167.807 427.147 167.853C427.193 167.9 427.248 167.937 427.309 167.962C427.369 167.987 427.434 168 427.5 168C427.566 168 427.631 167.987 427.691 167.962C427.752 167.937 427.807 167.9 427.854 167.853L432 163.707L436.147 167.853C436.24 167.947 436.367 168 436.5 168C436.633 168 436.76 167.947 436.854 167.853C436.947 167.76 437 167.633 437 167.5C437 167.367 436.947 167.24 436.854 167.146L432.707 163Z" fill="black" fill-opacity="0.95"/>
<rect x="235.5" y="255.5" width="105" height="31" rx="15.5" stroke="black" stroke-opacity="0.4"/>
<path d="M247.794 272.704H249.826C249.922 273.355 250.231 273.856 250.754 274.208C251.234 274.528 251.847 274.688 252.594 274.688C253.5 274.688 254.183 274.501 254.642 274.128C255.004 273.819 255.186 273.424 255.186 272.944C255.186 272.368 254.908 271.925 254.354 271.616C253.906 271.349 253.074 271.056 251.858 270.736C250.514 270.384 249.564 269.947 249.01 269.424C248.466 268.901 248.194 268.208 248.194 267.344C248.194 266.341 248.615 265.563 249.458 265.008C250.226 264.496 251.25 264.24 252.53 264.24C253.895 264.24 254.988 264.555 255.81 265.184C256.524 265.739 256.951 266.475 257.09 267.392H255.074C254.999 266.848 254.711 266.432 254.21 266.144C253.762 265.899 253.191 265.776 252.498 265.776C251.687 265.776 251.09 265.925 250.706 266.224C250.407 266.459 250.258 266.773 250.258 267.168C250.258 267.659 250.466 268.032 250.882 268.288C251.255 268.523 251.964 268.773 253.01 269.04C254.578 269.456 255.682 269.952 256.322 270.528C256.94 271.093 257.25 271.845 257.25 272.784C257.25 273.829 256.807 274.672 255.922 275.312C255.079 275.931 253.975 276.24 252.61 276.24C251.191 276.24 250.039 275.877 249.154 275.152C248.396 274.523 247.943 273.707 247.794 272.704ZM264.516 273.6H266.532C266.308 274.453 265.844 275.115 265.14 275.584C264.468 276.021 263.641 276.24 262.66 276.24C261.305 276.24 260.249 275.813 259.492 274.96C258.798 274.181 258.452 273.141 258.452 271.84C258.452 270.347 258.884 269.205 259.748 268.416C260.473 267.765 261.417 267.44 262.58 267.44C263.934 267.44 264.958 267.883 265.652 268.768C266.302 269.589 266.628 270.763 266.628 272.288H260.404C260.478 273.184 260.756 273.84 261.236 274.256C261.62 274.597 262.121 274.768 262.74 274.768C263.177 274.768 263.556 274.661 263.876 274.448C264.196 274.235 264.409 273.952 264.516 273.6ZM264.66 270.976C264.617 270.197 264.382 269.627 263.956 269.264C263.604 268.955 263.145 268.8 262.58 268.8C261.961 268.8 261.465 269.003 261.092 269.408C260.75 269.771 260.532 270.293 260.436 270.976H264.66ZM273.714 273.296H275.762C275.602 274.224 275.159 274.955 274.434 275.488C273.751 275.989 272.909 276.24 271.906 276.24C270.583 276.24 269.559 275.819 268.834 274.976C268.183 274.219 267.858 273.2 267.858 271.92C267.858 270.427 268.274 269.28 269.106 268.48C269.831 267.787 270.77 267.44 271.922 267.44C272.999 267.44 273.89 267.717 274.594 268.272C275.213 268.763 275.591 269.397 275.73 270.176H273.65C273.554 269.781 273.357 269.472 273.058 269.248C272.759 269.013 272.397 268.896 271.97 268.896C271.277 268.896 270.749 269.173 270.386 269.728C270.045 270.251 269.874 270.997 269.874 271.968C269.874 272.949 270.103 273.691 270.562 274.192C270.925 274.587 271.383 274.784 271.938 274.784C272.407 274.784 272.791 274.656 273.09 274.4C273.399 274.144 273.607 273.776 273.714 273.296ZM276.952 271.824C276.952 270.309 277.4 269.163 278.296 268.384C279.032 267.755 279.992 267.44 281.176 267.44C282.552 267.44 283.613 267.856 284.36 268.688C285.053 269.445 285.4 270.491 285.4 271.824C285.4 273.339 284.962 274.485 284.088 275.264C283.352 275.915 282.381 276.24 281.176 276.24C279.81 276.24 278.749 275.813 277.992 274.96C277.298 274.181 276.952 273.136 276.952 271.824ZM281.192 274.816C281.949 274.816 282.514 274.539 282.888 273.984C283.24 273.483 283.416 272.763 283.416 271.824C283.416 270.757 283.181 269.973 282.712 269.472C282.338 269.067 281.826 268.864 281.176 268.864C280.429 268.864 279.864 269.136 279.48 269.68C279.117 270.181 278.936 270.896 278.936 271.824C278.936 272.88 279.17 273.664 279.64 274.176C280.034 274.603 280.552 274.816 281.192 274.816ZM288.944 276H287.024V267.68H288.608L288.816 268.672C289.424 267.851 290.267 267.44 291.344 267.44C292.347 267.44 293.115 267.749 293.648 268.368C294.117 268.912 294.352 269.653 294.352 270.592V276H292.432V270.64C292.432 269.499 291.904 268.928 290.848 268.928C290.272 268.928 289.803 269.131 289.44 269.536C289.109 269.909 288.944 270.379 288.944 270.944V276ZM304.177 276H302.641L302.305 274.928C301.654 275.803 300.764 276.24 299.633 276.24C298.449 276.24 297.516 275.813 296.833 274.96C296.214 274.181 295.905 273.163 295.905 271.904C295.905 270.389 296.305 269.232 297.105 268.432C297.766 267.771 298.625 267.44 299.681 267.44C300.78 267.44 301.638 267.835 302.257 268.624V264.48H304.177V276ZM297.873 271.92C297.873 272.901 298.108 273.632 298.577 274.112C298.961 274.517 299.462 274.72 300.081 274.72C300.838 274.72 301.414 274.443 301.809 273.888C302.161 273.397 302.337 272.736 302.337 271.904C302.337 270.859 302.092 270.08 301.601 269.568C301.217 269.163 300.71 268.96 300.081 268.96C299.345 268.96 298.785 269.237 298.401 269.792C298.049 270.293 297.873 271.003 297.873 271.92ZM307.971 270.032H305.971C306.11 269.168 306.542 268.507 307.267 268.048C307.918 267.643 308.734 267.44 309.715 267.44C310.899 267.44 311.806 267.744 312.435 268.352C312.979 268.875 313.251 269.552 313.251 270.384V276H311.715L311.475 274.976C310.824 275.819 309.902 276.24 308.707 276.24C307.758 276.24 307.022 275.984 306.499 275.472C306.04 275.024 305.811 274.453 305.811 273.76C305.811 272.981 306.094 272.373 306.659 271.936C307.171 271.531 307.966 271.237 309.043 271.056L311.331 270.672V270.272C311.331 269.771 311.166 269.397 310.835 269.152C310.547 268.928 310.152 268.816 309.651 268.816C308.659 268.816 308.099 269.221 307.971 270.032ZM311.331 271.936L309.523 272.256C308.904 272.373 308.462 272.539 308.195 272.752C307.928 272.955 307.795 273.243 307.795 273.616C307.795 274.395 308.27 274.784 309.219 274.784C309.838 274.784 310.36 274.581 310.787 274.176C311.15 273.824 311.331 273.413 311.331 272.944V271.936ZM320.092 267.552V269.408C319.74 269.301 319.404 269.248 319.084 269.248C318.486 269.248 318.006 269.509 317.644 270.032C317.302 270.533 317.132 271.227 317.132 272.112V276H315.212V267.68H316.796L317.036 268.928C317.505 267.936 318.214 267.44 319.164 267.44C319.505 267.44 319.814 267.477 320.092 267.552ZM328.605 267.68L325.677 276.144C325.293 277.264 324.887 278.037 324.461 278.464C324.034 278.901 323.479 279.12 322.797 279.12C322.455 279.12 322.077 279.067 321.661 278.96V277.52C321.991 277.605 322.29 277.648 322.557 277.648C322.898 277.648 323.17 277.499 323.373 277.2C323.522 276.976 323.693 276.576 323.885 276H323.293L320.269 267.68H322.333L324.477 274.528L326.685 267.68H328.605Z" fill="black" fill-opacity="0.95"/>
<rect x="349" y="255" width="83" height="32" rx="16" fill="black" fill-opacity="0.95"/>
<path d="M362.581 264.48H366.485C369.621 264.48 371.189 265.744 371.189 268.272C371.189 270.757 369.621 272 366.485 272H364.629V276H362.581V264.48ZM364.629 270.464H366.517C368.213 270.464 369.061 269.733 369.061 268.272C369.061 267.483 368.815 266.896 368.325 266.512C367.887 266.181 367.285 266.016 366.517 266.016H364.629V270.464ZM377.693 267.552V269.408C377.341 269.301 377.005 269.248 376.685 269.248C376.088 269.248 375.608 269.509 375.245 270.032C374.904 270.533 374.733 271.227 374.733 272.112V276H372.813V267.68H374.397L374.637 268.928C375.106 267.936 375.816 267.44 376.765 267.44C377.106 267.44 377.416 267.477 377.693 267.552ZM380.782 266.416H378.67V264.48H380.782V266.416ZM380.686 276H378.766V267.68H380.686V276ZM384.655 276H382.735V267.68H384.191L384.463 268.624C385.05 267.835 385.876 267.44 386.943 267.44C388.106 267.44 388.932 267.856 389.423 268.688C390.02 267.856 390.927 267.44 392.143 267.44C393.103 267.44 393.839 267.723 394.351 268.288C394.82 268.811 395.055 269.547 395.055 270.496V276H393.135V270.544C393.135 269.467 392.634 268.928 391.631 268.928C391.055 268.928 390.596 269.152 390.255 269.6C389.988 269.973 389.855 270.416 389.855 270.928V276H387.935V270.544C387.935 269.467 387.434 268.928 386.431 268.928C385.887 268.928 385.444 269.141 385.103 269.568C384.804 269.931 384.655 270.357 384.655 270.848V276ZM398.76 270.032H396.76C396.899 269.168 397.331 268.507 398.056 268.048C398.707 267.643 399.523 267.44 400.504 267.44C401.688 267.44 402.595 267.744 403.224 268.352C403.768 268.875 404.04 269.552 404.04 270.384V276H402.504L402.264 274.976C401.614 275.819 400.691 276.24 399.496 276.24C398.547 276.24 397.811 275.984 397.288 275.472C396.83 275.024 396.6 274.453 396.6 273.76C396.6 272.981 396.883 272.373 397.448 271.936C397.96 271.531 398.755 271.237 399.832 271.056L402.12 270.672V270.272C402.12 269.771 401.955 269.397 401.624 269.152C401.336 268.928 400.942 268.816 400.44 268.816C399.448 268.816 398.888 269.221 398.76 270.032ZM402.12 271.936L400.312 272.256C399.694 272.373 399.251 272.539 398.984 272.752C398.718 272.955 398.584 273.243 398.584 273.616C398.584 274.395 399.059 274.784 400.008 274.784C400.627 274.784 401.15 274.581 401.576 274.176C401.939 273.824 402.12 273.413 402.12 272.944V271.936ZM410.881 267.552V269.408C410.529 269.301 410.193 269.248 409.873 269.248C409.275 269.248 408.795 269.509 408.433 270.032C408.091 270.533 407.921 271.227 407.921 272.112V276H406.001V267.68H407.585L407.825 268.928C408.294 267.936 409.003 267.44 409.953 267.44C410.294 267.44 410.603 267.477 410.881 267.552ZM419.394 267.68L416.466 276.144C416.082 277.264 415.676 278.037 415.25 278.464C414.823 278.901 414.268 279.12 413.586 279.12C413.244 279.12 412.866 279.067 412.45 278.96V277.52C412.78 277.605 413.079 277.648 413.346 277.648C413.687 277.648 413.959 277.499 414.162 277.2C414.311 276.976 414.482 276.576 414.674 276H414.082L411.058 267.68H413.122L415.266 274.528L417.474 267.68H419.394Z" fill="white" fill-opacity="0.95"/>
</g>
<g clip-path="url(#clip0_1241_30148)">
<path d="M222 127V193" stroke="#932099" stroke-dasharray="4 4"/>
<rect width="8" height="8" rx="4" transform="matrix(0 1 1 0 218 193)" fill="#932099"/>
<rect x="218" y="107" width="301" height="28" rx="14" fill="#932099"/>
<rect x="230" y="111" width="20" height="20" rx="10" fill="white" fill-opacity="0.7"/>
<path d="M261.386 121.955V127H258.966V118.273H261.273V119.812H261.375C261.568 119.305 261.892 118.903 262.347 118.608C262.801 118.309 263.352 118.159 264 118.159C264.606 118.159 265.134 118.292 265.585 118.557C266.036 118.822 266.386 119.201 266.636 119.693C266.886 120.182 267.011 120.765 267.011 121.443V127H264.591V121.875C264.595 121.341 264.458 120.924 264.182 120.625C263.905 120.322 263.525 120.17 263.04 120.17C262.714 120.17 262.426 120.241 262.176 120.381C261.93 120.521 261.737 120.725 261.597 120.994C261.46 121.259 261.39 121.58 261.386 121.955ZM273.216 127.17C272.319 127.17 271.546 126.989 270.898 126.625C270.254 126.258 269.758 125.739 269.409 125.068C269.061 124.394 268.887 123.597 268.887 122.676C268.887 121.778 269.061 120.991 269.409 120.312C269.758 119.634 270.249 119.106 270.881 118.727C271.517 118.348 272.264 118.159 273.12 118.159C273.695 118.159 274.231 118.252 274.728 118.438C275.228 118.619 275.663 118.894 276.034 119.261C276.409 119.629 276.701 120.091 276.909 120.648C277.118 121.201 277.222 121.848 277.222 122.591V123.256H269.853V121.756H274.944C274.944 121.407 274.868 121.098 274.716 120.83C274.565 120.561 274.355 120.35 274.086 120.199C273.82 120.044 273.512 119.966 273.159 119.966C272.792 119.966 272.466 120.051 272.182 120.222C271.902 120.388 271.682 120.614 271.523 120.898C271.364 121.178 271.283 121.491 271.279 121.835V123.261C271.279 123.693 271.358 124.066 271.517 124.381C271.68 124.695 271.909 124.938 272.205 125.108C272.5 125.278 272.851 125.364 273.256 125.364C273.525 125.364 273.771 125.326 273.995 125.25C274.218 125.174 274.409 125.061 274.569 124.909C274.728 124.758 274.849 124.572 274.932 124.352L277.171 124.5C277.057 125.038 276.824 125.508 276.472 125.909C276.124 126.307 275.673 126.617 275.12 126.841C274.57 127.061 273.936 127.17 273.216 127.17ZM284.718 123.284V118.273H287.139V127H284.815V125.415H284.724C284.527 125.926 284.199 126.337 283.741 126.648C283.286 126.958 282.731 127.114 282.076 127.114C281.493 127.114 280.979 126.981 280.536 126.716C280.093 126.451 279.747 126.074 279.497 125.585C279.25 125.097 279.125 124.511 279.122 123.83V118.273H281.542V123.398C281.546 123.913 281.684 124.32 281.957 124.619C282.229 124.919 282.595 125.068 283.053 125.068C283.345 125.068 283.618 125.002 283.872 124.869C284.125 124.733 284.33 124.532 284.485 124.267C284.644 124.002 284.722 123.674 284.718 123.284ZM294.037 118.273V120.091H288.781V118.273H294.037ZM289.974 116.182H292.395V124.318C292.395 124.542 292.429 124.716 292.497 124.841C292.565 124.962 292.66 125.047 292.781 125.097C292.906 125.146 293.05 125.17 293.213 125.17C293.326 125.17 293.44 125.161 293.554 125.142C293.667 125.119 293.755 125.102 293.815 125.091L294.196 126.892C294.075 126.93 293.904 126.973 293.684 127.023C293.465 127.076 293.198 127.108 292.883 127.119C292.3 127.142 291.789 127.064 291.349 126.886C290.914 126.708 290.575 126.432 290.332 126.057C290.09 125.682 289.97 125.208 289.974 124.636V116.182ZM295.933 127V118.273H298.28V119.795H298.371C298.53 119.254 298.797 118.845 299.172 118.568C299.547 118.288 299.979 118.148 300.467 118.148C300.589 118.148 300.719 118.155 300.86 118.17C301 118.186 301.123 118.206 301.229 118.233V120.381C301.115 120.347 300.958 120.316 300.757 120.29C300.557 120.263 300.373 120.25 300.206 120.25C299.85 120.25 299.532 120.328 299.252 120.483C298.975 120.634 298.755 120.847 298.592 121.119C298.433 121.392 298.354 121.706 298.354 122.062V127H295.933ZM305.039 127.165C304.482 127.165 303.986 127.068 303.55 126.875C303.115 126.678 302.77 126.388 302.516 126.006C302.266 125.619 302.141 125.138 302.141 124.562C302.141 124.078 302.23 123.67 302.408 123.341C302.586 123.011 302.829 122.746 303.136 122.545C303.442 122.345 303.791 122.193 304.181 122.091C304.575 121.989 304.988 121.917 305.42 121.875C305.927 121.822 306.336 121.773 306.647 121.727C306.957 121.678 307.183 121.606 307.323 121.511C307.463 121.417 307.533 121.277 307.533 121.091V121.057C307.533 120.697 307.42 120.419 307.192 120.222C306.969 120.025 306.651 119.926 306.238 119.926C305.802 119.926 305.456 120.023 305.198 120.216C304.94 120.405 304.77 120.644 304.687 120.932L302.448 120.75C302.562 120.22 302.785 119.761 303.118 119.375C303.452 118.985 303.882 118.686 304.408 118.477C304.939 118.265 305.552 118.159 306.249 118.159C306.734 118.159 307.198 118.216 307.641 118.33C308.088 118.443 308.484 118.619 308.829 118.858C309.177 119.097 309.452 119.403 309.653 119.778C309.853 120.15 309.954 120.595 309.954 121.114V127H307.658V125.79H307.59C307.45 126.062 307.262 126.303 307.028 126.511C306.793 126.716 306.511 126.877 306.181 126.994C305.851 127.108 305.471 127.165 305.039 127.165ZM305.732 125.494C306.088 125.494 306.403 125.424 306.675 125.284C306.948 125.14 307.162 124.947 307.317 124.705C307.473 124.462 307.55 124.187 307.55 123.881V122.955C307.475 123.004 307.37 123.049 307.238 123.091C307.109 123.129 306.963 123.165 306.8 123.199C306.637 123.229 306.475 123.258 306.312 123.284C306.149 123.307 306.001 123.328 305.868 123.347C305.584 123.388 305.336 123.455 305.124 123.545C304.912 123.636 304.747 123.759 304.63 123.915C304.512 124.066 304.454 124.256 304.454 124.483C304.454 124.812 304.573 125.064 304.812 125.239C305.054 125.409 305.361 125.494 305.732 125.494ZM314.572 115.364V127H312.152V115.364H314.572ZM318.246 127.148C317.871 127.148 317.549 127.015 317.28 126.75C317.015 126.481 316.882 126.159 316.882 125.784C316.882 125.413 317.015 125.095 317.28 124.83C317.549 124.564 317.871 124.432 318.246 124.432C318.609 124.432 318.928 124.564 319.2 124.83C319.473 125.095 319.609 125.413 319.609 125.784C319.609 126.034 319.545 126.263 319.416 126.472C319.291 126.676 319.126 126.841 318.922 126.966C318.717 127.087 318.492 127.148 318.246 127.148ZM326.559 118.273V120.091H321.303V118.273H326.559ZM322.496 116.182H324.917V124.318C324.917 124.542 324.951 124.716 325.019 124.841C325.087 124.962 325.182 125.047 325.303 125.097C325.428 125.146 325.572 125.17 325.735 125.17C325.848 125.17 325.962 125.161 326.076 125.142C326.189 125.119 326.276 125.102 326.337 125.091L326.718 126.892C326.596 126.93 326.426 126.973 326.206 127.023C325.987 127.076 325.72 127.108 325.405 127.119C324.822 127.142 324.31 127.064 323.871 126.886C323.435 126.708 323.096 126.432 322.854 126.057C322.612 125.682 322.492 125.208 322.496 124.636V116.182ZM332.339 127.17C331.441 127.17 330.668 126.989 330.021 126.625C329.377 126.258 328.88 125.739 328.532 125.068C328.184 124.394 328.009 123.597 328.009 122.676C328.009 121.778 328.184 120.991 328.532 120.312C328.88 119.634 329.371 119.106 330.004 118.727C330.64 118.348 331.386 118.159 332.242 118.159C332.818 118.159 333.354 118.252 333.85 118.438C334.35 118.619 334.786 118.894 335.157 119.261C335.532 119.629 335.824 120.091 336.032 120.648C336.24 121.201 336.344 121.848 336.344 122.591V123.256H328.975V121.756H334.066C334.066 121.407 333.99 121.098 333.839 120.83C333.687 120.561 333.477 120.35 333.208 120.199C332.943 120.044 332.634 119.966 332.282 119.966C331.915 119.966 331.589 120.051 331.305 120.222C331.024 120.388 330.805 120.614 330.646 120.898C330.487 121.178 330.405 121.491 330.401 121.835V123.261C330.401 123.693 330.481 124.066 330.64 124.381C330.803 124.695 331.032 124.938 331.327 125.108C331.623 125.278 331.973 125.364 332.379 125.364C332.648 125.364 332.894 125.326 333.117 125.25C333.341 125.174 333.532 125.061 333.691 124.909C333.85 124.758 333.971 124.572 334.055 124.352L336.293 124.5C336.18 125.038 335.947 125.508 335.594 125.909C335.246 126.307 334.795 126.617 334.242 126.841C333.693 127.061 333.059 127.17 332.339 127.17ZM340.111 118.273L341.713 121.324L343.355 118.273H345.838L343.309 122.636L345.906 127H343.434L341.713 123.983L340.02 127H337.52L340.111 122.636L337.611 118.273H340.111ZM352.237 118.273V120.091H346.982V118.273H352.237ZM348.175 116.182H350.595V124.318C350.595 124.542 350.629 124.716 350.698 124.841C350.766 124.962 350.86 125.047 350.982 125.097C351.107 125.146 351.251 125.17 351.413 125.17C351.527 125.17 351.641 125.161 351.754 125.142C351.868 125.119 351.955 125.102 352.016 125.091L352.396 126.892C352.275 126.93 352.105 126.973 351.885 127.023C351.665 127.076 351.398 127.108 351.084 127.119C350.501 127.142 349.989 127.064 349.55 126.886C349.114 126.708 348.775 126.432 348.533 126.057C348.29 125.682 348.171 125.208 348.175 124.636V116.182ZM355.549 127.148C355.174 127.148 354.852 127.015 354.583 126.75C354.318 126.481 354.185 126.159 354.185 125.784C354.185 125.413 354.318 125.095 354.583 124.83C354.852 124.564 355.174 124.432 355.549 124.432C355.912 124.432 356.231 124.564 356.503 124.83C356.776 125.095 356.912 125.413 356.912 125.784C356.912 126.034 356.848 126.263 356.719 126.472C356.594 126.676 356.429 126.841 356.225 126.966C356.02 127.087 355.795 127.148 355.549 127.148ZM366.481 120.761L364.265 120.898C364.227 120.708 364.146 120.538 364.021 120.386C363.896 120.231 363.731 120.108 363.526 120.017C363.326 119.922 363.085 119.875 362.805 119.875C362.43 119.875 362.114 119.955 361.856 120.114C361.598 120.269 361.47 120.477 361.47 120.739C361.47 120.947 361.553 121.123 361.72 121.267C361.886 121.411 362.172 121.527 362.578 121.614L364.157 121.932C365.006 122.106 365.638 122.386 366.055 122.773C366.472 123.159 366.68 123.667 366.68 124.295C366.68 124.867 366.511 125.369 366.174 125.801C365.841 126.233 365.383 126.57 364.799 126.812C364.22 127.051 363.551 127.17 362.794 127.17C361.638 127.17 360.718 126.93 360.032 126.449C359.35 125.964 358.951 125.305 358.833 124.472L361.214 124.347C361.286 124.699 361.46 124.968 361.737 125.153C362.013 125.335 362.367 125.426 362.799 125.426C363.223 125.426 363.564 125.345 363.822 125.182C364.083 125.015 364.216 124.801 364.22 124.54C364.216 124.32 364.123 124.14 363.941 124C363.759 123.856 363.479 123.746 363.1 123.67L361.589 123.369C360.737 123.199 360.102 122.903 359.686 122.483C359.273 122.062 359.066 121.527 359.066 120.875C359.066 120.314 359.218 119.831 359.521 119.426C359.828 119.021 360.258 118.708 360.811 118.489C361.367 118.269 362.019 118.159 362.765 118.159C363.867 118.159 364.735 118.392 365.367 118.858C366.004 119.324 366.375 119.958 366.481 120.761ZM372.501 127.17C371.604 127.17 370.831 126.989 370.183 126.625C369.539 126.258 369.043 125.739 368.694 125.068C368.346 124.394 368.172 123.597 368.172 122.676C368.172 121.778 368.346 120.991 368.694 120.312C369.043 119.634 369.534 119.106 370.166 118.727C370.802 118.348 371.549 118.159 372.405 118.159C372.98 118.159 373.516 118.252 374.013 118.438C374.513 118.619 374.948 118.894 375.319 119.261C375.694 119.629 375.986 120.091 376.194 120.648C376.403 121.201 376.507 121.848 376.507 122.591V123.256H369.138V121.756H374.229C374.229 121.407 374.153 121.098 374.001 120.83C373.85 120.561 373.64 120.35 373.371 120.199C373.105 120.044 372.797 119.966 372.444 119.966C372.077 119.966 371.751 120.051 371.467 120.222C371.187 120.388 370.967 120.614 370.808 120.898C370.649 121.178 370.568 121.491 370.564 121.835V123.261C370.564 123.693 370.643 124.066 370.802 124.381C370.965 124.695 371.194 124.938 371.49 125.108C371.785 125.278 372.136 125.364 372.541 125.364C372.81 125.364 373.056 125.326 373.28 125.25C373.503 125.174 373.694 125.061 373.854 124.909C374.013 124.758 374.134 124.572 374.217 124.352L376.456 124.5C376.342 125.038 376.109 125.508 375.757 125.909C375.409 126.307 374.958 126.617 374.405 126.841C373.855 127.061 373.221 127.17 372.501 127.17ZM382.35 127.17C381.456 127.17 380.687 126.981 380.043 126.602C379.403 126.22 378.91 125.689 378.566 125.011C378.225 124.333 378.054 123.553 378.054 122.67C378.054 121.777 378.227 120.992 378.571 120.318C378.92 119.64 379.414 119.112 380.054 118.733C380.694 118.35 381.456 118.159 382.338 118.159C383.1 118.159 383.766 118.297 384.338 118.574C384.91 118.85 385.363 119.239 385.696 119.739C386.03 120.239 386.213 120.826 386.247 121.5H383.963C383.899 121.064 383.729 120.714 383.452 120.449C383.179 120.18 382.821 120.045 382.378 120.045C382.003 120.045 381.675 120.148 381.395 120.352C381.119 120.553 380.903 120.847 380.747 121.233C380.592 121.619 380.514 122.087 380.514 122.636C380.514 123.193 380.59 123.667 380.742 124.057C380.897 124.447 381.115 124.744 381.395 124.949C381.675 125.153 382.003 125.256 382.378 125.256C382.655 125.256 382.903 125.199 383.122 125.085C383.346 124.972 383.53 124.807 383.674 124.591C383.821 124.371 383.918 124.108 383.963 123.801H386.247C386.21 124.468 386.028 125.055 385.702 125.562C385.38 126.066 384.935 126.46 384.367 126.744C383.799 127.028 383.126 127.17 382.35 127.17ZM392.06 127.17C391.178 127.17 390.415 126.983 389.771 126.608C389.13 126.229 388.636 125.703 388.288 125.028C387.939 124.35 387.765 123.564 387.765 122.67C387.765 121.769 387.939 120.981 388.288 120.307C388.636 119.629 389.13 119.102 389.771 118.727C390.415 118.348 391.178 118.159 392.06 118.159C392.943 118.159 393.704 118.348 394.344 118.727C394.988 119.102 395.485 119.629 395.833 120.307C396.182 120.981 396.356 121.769 396.356 122.67C396.356 123.564 396.182 124.35 395.833 125.028C395.485 125.703 394.988 126.229 394.344 126.608C393.704 126.983 392.943 127.17 392.06 127.17ZM392.072 125.295C392.473 125.295 392.808 125.182 393.077 124.955C393.346 124.723 393.549 124.409 393.685 124.011C393.825 123.614 393.896 123.161 393.896 122.653C393.896 122.146 393.825 121.693 393.685 121.295C393.549 120.898 393.346 120.583 393.077 120.352C392.808 120.121 392.473 120.006 392.072 120.006C391.666 120.006 391.325 120.121 391.049 120.352C390.776 120.583 390.57 120.898 390.43 121.295C390.293 121.693 390.225 122.146 390.225 122.653C390.225 123.161 390.293 123.614 390.43 124.011C390.57 124.409 390.776 124.723 391.049 124.955C391.325 125.182 391.666 125.295 392.072 125.295ZM400.67 121.955V127H398.25V118.273H400.556V119.812H400.659C400.852 119.305 401.176 118.903 401.63 118.608C402.085 118.309 402.636 118.159 403.284 118.159C403.89 118.159 404.418 118.292 404.869 118.557C405.32 118.822 405.67 119.201 405.92 119.693C406.17 120.182 406.295 120.765 406.295 121.443V127H403.875V121.875C403.878 121.341 403.742 120.924 403.466 120.625C403.189 120.322 402.808 120.17 402.324 120.17C401.998 120.17 401.71 120.241 401.46 120.381C401.214 120.521 401.02 120.725 400.88 120.994C400.744 121.259 400.674 121.58 400.67 121.955ZM411.739 127.142C411.076 127.142 410.475 126.972 409.938 126.631C409.403 126.286 408.979 125.78 408.665 125.114C408.354 124.443 408.199 123.621 408.199 122.648C408.199 121.648 408.36 120.816 408.682 120.153C409.004 119.487 409.432 118.989 409.966 118.659C410.504 118.326 411.093 118.159 411.733 118.159C412.222 118.159 412.629 118.242 412.955 118.409C413.284 118.572 413.549 118.777 413.75 119.023C413.955 119.265 414.11 119.504 414.216 119.739H414.29V115.364H416.705V127H414.318V125.602H414.216C414.102 125.845 413.941 126.085 413.733 126.324C413.528 126.559 413.261 126.754 412.932 126.909C412.606 127.064 412.208 127.142 411.739 127.142ZM412.506 125.216C412.896 125.216 413.225 125.11 413.494 124.898C413.767 124.682 413.975 124.381 414.119 123.994C414.267 123.608 414.341 123.155 414.341 122.636C414.341 122.117 414.269 121.667 414.125 121.284C413.981 120.902 413.773 120.606 413.5 120.398C413.227 120.189 412.896 120.085 412.506 120.085C412.108 120.085 411.773 120.193 411.5 120.409C411.227 120.625 411.021 120.924 410.881 121.307C410.741 121.689 410.671 122.133 410.671 122.636C410.671 123.144 410.741 123.593 410.881 123.983C411.025 124.369 411.231 124.672 411.5 124.892C411.773 125.108 412.108 125.216 412.506 125.216ZM421.503 127.165C420.946 127.165 420.45 127.068 420.015 126.875C419.579 126.678 419.234 126.388 418.981 126.006C418.731 125.619 418.606 125.138 418.606 124.562C418.606 124.078 418.695 123.67 418.873 123.341C419.051 123.011 419.293 122.746 419.6 122.545C419.907 122.345 420.255 122.193 420.645 122.091C421.039 121.989 421.452 121.917 421.884 121.875C422.392 121.822 422.801 121.773 423.111 121.727C423.422 121.678 423.647 121.606 423.787 121.511C423.928 121.417 423.998 121.277 423.998 121.091V121.057C423.998 120.697 423.884 120.419 423.657 120.222C423.433 120.025 423.115 119.926 422.702 119.926C422.267 119.926 421.92 120.023 421.662 120.216C421.405 120.405 421.234 120.644 421.151 120.932L418.912 120.75C419.026 120.22 419.25 119.761 419.583 119.375C419.916 118.985 420.346 118.686 420.873 118.477C421.403 118.265 422.017 118.159 422.714 118.159C423.198 118.159 423.662 118.216 424.106 118.33C424.553 118.443 424.948 118.619 425.293 118.858C425.642 119.097 425.916 119.403 426.117 119.778C426.318 120.15 426.418 120.595 426.418 121.114V127H424.123V125.79H424.054C423.914 126.062 423.727 126.303 423.492 126.511C423.257 126.716 422.975 126.877 422.645 126.994C422.316 127.108 421.935 127.165 421.503 127.165ZM422.196 125.494C422.553 125.494 422.867 125.424 423.14 125.284C423.412 125.14 423.626 124.947 423.782 124.705C423.937 124.462 424.015 124.187 424.015 123.881V122.955C423.939 123.004 423.835 123.049 423.702 123.091C423.573 123.129 423.428 123.165 423.265 123.199C423.102 123.229 422.939 123.258 422.776 123.284C422.613 123.307 422.465 123.328 422.333 123.347C422.049 123.388 421.801 123.455 421.589 123.545C421.376 123.636 421.212 123.759 421.094 123.915C420.977 124.066 420.918 124.256 420.918 124.483C420.918 124.812 421.037 125.064 421.276 125.239C421.518 125.409 421.825 125.494 422.196 125.494ZM428.616 127V118.273H430.962V119.795H431.053C431.212 119.254 431.48 118.845 431.855 118.568C432.23 118.288 432.661 118.148 433.15 118.148C433.271 118.148 433.402 118.155 433.542 118.17C433.682 118.186 433.805 118.206 433.911 118.233V120.381C433.798 120.347 433.641 120.316 433.44 120.29C433.239 120.263 433.055 120.25 432.889 120.25C432.533 120.25 432.214 120.328 431.934 120.483C431.658 120.634 431.438 120.847 431.275 121.119C431.116 121.392 431.036 121.706 431.036 122.062V127H428.616ZM437.243 130.256C436.936 130.256 436.648 130.231 436.379 130.182C436.114 130.136 435.894 130.08 435.72 130.011L436.265 128.199C436.693 128.331 437.053 128.366 437.345 128.301C437.64 128.241 437.873 128.013 438.044 127.619L438.186 127.25L435.055 118.273H437.601L439.408 124.682H439.498L441.322 118.273L443.885 118.284L440.493 127.943C440.33 128.409 440.108 128.814 439.828 129.159C439.551 129.508 439.201 129.777 438.777 129.966C438.353 130.159 437.841 130.256 437.243 130.256ZM446.311 127.148C445.936 127.148 445.614 127.015 445.345 126.75C445.08 126.481 444.948 126.159 444.948 125.784C444.948 125.413 445.08 125.095 445.345 124.83C445.614 124.564 445.936 124.432 446.311 124.432C446.675 124.432 446.993 124.564 447.266 124.83C447.539 125.095 447.675 125.413 447.675 125.784C447.675 126.034 447.611 126.263 447.482 126.472C447.357 126.676 447.192 126.841 446.987 126.966C446.783 127.087 446.558 127.148 446.311 127.148ZM453.198 127.142C452.535 127.142 451.935 126.972 451.397 126.631C450.863 126.286 450.439 125.78 450.124 125.114C449.814 124.443 449.658 123.621 449.658 122.648C449.658 121.648 449.819 120.816 450.141 120.153C450.463 119.487 450.891 118.989 451.425 118.659C451.963 118.326 452.552 118.159 453.192 118.159C453.681 118.159 454.088 118.242 454.414 118.409C454.744 118.572 455.009 118.777 455.209 119.023C455.414 119.265 455.569 119.504 455.675 119.739H455.749V115.364H458.164V127H455.778V125.602H455.675C455.562 125.845 455.401 126.085 455.192 126.324C454.988 126.559 454.721 126.754 454.391 126.909C454.065 127.064 453.668 127.142 453.198 127.142ZM453.965 125.216C454.355 125.216 454.685 125.11 454.954 124.898C455.226 124.682 455.435 124.381 455.579 123.994C455.726 123.608 455.8 123.155 455.8 122.636C455.8 122.117 455.728 121.667 455.584 121.284C455.44 120.902 455.232 120.606 454.959 120.398C454.687 120.189 454.355 120.085 453.965 120.085C453.567 120.085 453.232 120.193 452.959 120.409C452.687 120.625 452.48 120.924 452.34 121.307C452.2 121.689 452.13 122.133 452.13 122.636C452.13 123.144 452.2 123.593 452.34 123.983C452.484 124.369 452.69 124.672 452.959 124.892C453.232 125.108 453.567 125.216 453.965 125.216ZM464.451 127.17C463.554 127.17 462.781 126.989 462.133 126.625C461.489 126.258 460.993 125.739 460.644 125.068C460.296 124.394 460.122 123.597 460.122 122.676C460.122 121.778 460.296 120.991 460.644 120.312C460.993 119.634 461.483 119.106 462.116 118.727C462.752 118.348 463.499 118.159 464.355 118.159C464.93 118.159 465.466 118.252 465.963 118.438C466.463 118.619 466.898 118.894 467.269 119.261C467.644 119.629 467.936 120.091 468.144 120.648C468.353 121.201 468.457 121.848 468.457 122.591V123.256H461.088V121.756H466.179C466.179 121.407 466.103 121.098 465.951 120.83C465.8 120.561 465.59 120.35 465.321 120.199C465.055 120.044 464.747 119.966 464.394 119.966C464.027 119.966 463.701 120.051 463.417 120.222C463.137 120.388 462.917 120.614 462.758 120.898C462.599 121.178 462.518 121.491 462.514 121.835V123.261C462.514 123.693 462.593 124.066 462.752 124.381C462.915 124.695 463.144 124.938 463.44 125.108C463.735 125.278 464.086 125.364 464.491 125.364C464.76 125.364 465.006 125.326 465.23 125.25C465.453 125.174 465.644 125.061 465.804 124.909C465.963 124.758 466.084 124.572 466.167 124.352L468.406 124.5C468.292 125.038 468.059 125.508 467.707 125.909C467.358 126.307 466.908 126.617 466.355 126.841C465.805 127.061 465.171 127.17 464.451 127.17ZM475.05 118.273V120.091H469.663V118.273H475.05ZM470.896 127V117.642C470.896 117.009 471.019 116.485 471.266 116.068C471.516 115.652 471.857 115.339 472.288 115.131C472.72 114.922 473.211 114.818 473.76 114.818C474.131 114.818 474.47 114.847 474.777 114.903C475.088 114.96 475.319 115.011 475.47 115.057L475.038 116.875C474.944 116.845 474.826 116.816 474.686 116.79C474.55 116.763 474.41 116.75 474.266 116.75C473.91 116.75 473.661 116.833 473.521 117C473.381 117.163 473.311 117.392 473.311 117.688V127H470.896ZM479.025 127.165C478.468 127.165 477.972 127.068 477.536 126.875C477.1 126.678 476.756 126.388 476.502 126.006C476.252 125.619 476.127 125.138 476.127 124.562C476.127 124.078 476.216 123.67 476.394 123.341C476.572 123.011 476.814 122.746 477.121 122.545C477.428 122.345 477.776 122.193 478.167 122.091C478.561 121.989 478.973 121.917 479.405 121.875C479.913 121.822 480.322 121.773 480.633 121.727C480.943 121.678 481.168 121.606 481.309 121.511C481.449 121.417 481.519 121.277 481.519 121.091V121.057C481.519 120.697 481.405 120.419 481.178 120.222C480.954 120.025 480.636 119.926 480.223 119.926C479.788 119.926 479.441 120.023 479.184 120.216C478.926 120.405 478.756 120.644 478.672 120.932L476.434 120.75C476.547 120.22 476.771 119.761 477.104 119.375C477.437 118.985 477.867 118.686 478.394 118.477C478.924 118.265 479.538 118.159 480.235 118.159C480.72 118.159 481.184 118.216 481.627 118.33C482.074 118.443 482.47 118.619 482.814 118.858C483.163 119.097 483.437 119.403 483.638 119.778C483.839 120.15 483.939 120.595 483.939 121.114V127H481.644V125.79H481.576C481.436 126.062 481.248 126.303 481.013 126.511C480.778 126.716 480.496 126.877 480.167 126.994C479.837 127.108 479.456 127.165 479.025 127.165ZM479.718 125.494C480.074 125.494 480.388 125.424 480.661 125.284C480.934 125.14 481.148 124.947 481.303 124.705C481.458 124.462 481.536 124.187 481.536 123.881V122.955C481.46 123.004 481.356 123.049 481.223 123.091C481.095 123.129 480.949 123.165 480.786 123.199C480.623 123.229 480.46 123.258 480.297 123.284C480.134 123.307 479.987 123.328 479.854 123.347C479.57 123.388 479.322 123.455 479.11 123.545C478.898 123.636 478.733 123.759 478.615 123.915C478.498 124.066 478.439 124.256 478.439 124.483C478.439 124.812 478.559 125.064 478.797 125.239C479.04 125.409 479.347 125.494 479.718 125.494ZM491.734 123.284V118.273H494.154V127H491.83V125.415H491.739C491.542 125.926 491.215 126.337 490.756 126.648C490.302 126.958 489.747 127.114 489.092 127.114C488.508 127.114 487.995 126.981 487.552 126.716C487.109 126.451 486.762 126.074 486.512 125.585C486.266 125.097 486.141 124.511 486.137 123.83V118.273H488.558V123.398C488.561 123.913 488.7 124.32 488.972 124.619C489.245 124.919 489.611 125.068 490.069 125.068C490.361 125.068 490.633 125.002 490.887 124.869C491.141 124.733 491.345 124.532 491.501 124.267C491.66 124.002 491.738 123.674 491.734 123.284ZM498.831 115.364V127H496.41V115.364H498.831ZM505.732 118.273V120.091H500.476V118.273H505.732ZM501.669 116.182H504.09V124.318C504.09 124.542 504.124 124.716 504.192 124.841C504.26 124.962 504.355 125.047 504.476 125.097C504.601 125.146 504.745 125.17 504.908 125.17C505.021 125.17 505.135 125.161 505.249 125.142C505.362 125.119 505.45 125.102 505.51 125.091L505.891 126.892C505.77 126.93 505.599 126.973 505.379 127.023C505.16 127.076 504.893 127.108 504.578 127.119C503.995 127.142 503.484 127.064 503.044 126.886C502.609 126.708 502.27 126.432 502.027 126.057C501.785 125.682 501.665 125.208 501.669 124.636V116.182Z" fill="white"/>
</g>
<g clip-path="url(#clip1_1241_30148)">
<path d="M93.9375 80V172" stroke="#932099" stroke-dasharray="4 4"/>
<rect width="8" height="8" rx="4" transform="matrix(0 1 1 0 89.9375 172)" fill="#932099"/>
<rect x="89.9375" y="60" width="348" height="28" rx="14" fill="#932099"/>
<rect x="101.938" y="64" width="20" height="20" rx="10" fill="url(#paint1_linear_1241_30148)"/>
<path d="M134.119 80.142C133.456 80.142 132.856 79.9716 132.318 79.6307C131.784 79.286 131.36 78.7803 131.045 78.1136C130.735 77.4432 130.58 76.6212 130.58 75.6477C130.58 74.6477 130.741 73.8163 131.062 73.1534C131.384 72.4867 131.813 71.9886 132.347 71.6591C132.884 71.3258 133.473 71.1591 134.114 71.1591C134.602 71.1591 135.009 71.2424 135.335 71.4091C135.665 71.572 135.93 71.7765 136.131 72.0227C136.335 72.2652 136.491 72.5038 136.597 72.7386H136.67V68.3636H139.085V80H136.699V78.6023H136.597C136.483 78.8447 136.322 79.0852 136.114 79.3239C135.909 79.5587 135.642 79.7538 135.312 79.9091C134.987 80.0644 134.589 80.142 134.119 80.142ZM134.886 78.2159C135.277 78.2159 135.606 78.1098 135.875 77.8977C136.148 77.6818 136.356 77.3807 136.5 76.9943C136.648 76.608 136.722 76.1553 136.722 75.6364C136.722 75.1174 136.65 74.6667 136.506 74.2841C136.362 73.9015 136.153 73.6061 135.881 73.3977C135.608 73.1894 135.277 73.0852 134.886 73.0852C134.489 73.0852 134.153 73.1932 133.881 73.4091C133.608 73.625 133.402 73.9242 133.261 74.3068C133.121 74.6894 133.051 75.1326 133.051 75.6364C133.051 76.1439 133.121 76.5928 133.261 76.983C133.405 77.3693 133.612 77.6723 133.881 77.892C134.153 78.108 134.489 78.2159 134.886 78.2159ZM145.373 80.1705C144.475 80.1705 143.702 79.9886 143.054 79.625C142.41 79.2576 141.914 78.7386 141.566 78.0682C141.217 77.3939 141.043 76.5966 141.043 75.6761C141.043 74.7784 141.217 73.9905 141.566 73.3125C141.914 72.6345 142.405 72.1061 143.037 71.7273C143.674 71.3485 144.42 71.1591 145.276 71.1591C145.852 71.1591 146.388 71.2519 146.884 71.4375C147.384 71.6193 147.82 71.8939 148.191 72.2614C148.566 72.6288 148.857 73.0909 149.066 73.6477C149.274 74.2008 149.378 74.8485 149.378 75.5909V76.2557H142.009V74.7557H147.1C147.1 74.4072 147.024 74.0985 146.873 73.8295C146.721 73.5606 146.511 73.3504 146.242 73.1989C145.977 73.0436 145.668 72.9659 145.316 72.9659C144.948 72.9659 144.623 73.0511 144.338 73.2216C144.058 73.3883 143.838 73.6136 143.679 73.8977C143.52 74.178 143.439 74.4905 143.435 74.8352V76.2614C143.435 76.6932 143.515 77.0663 143.674 77.3807C143.837 77.6951 144.066 77.9375 144.361 78.108C144.657 78.2784 145.007 78.3636 145.412 78.3636C145.681 78.3636 145.927 78.3258 146.151 78.25C146.374 78.1742 146.566 78.0606 146.725 77.9091C146.884 77.7576 147.005 77.572 147.088 77.3523L149.327 77.5C149.213 78.0379 148.981 78.5076 148.628 78.9091C148.28 79.3068 147.829 79.6174 147.276 79.8409C146.727 80.0606 146.092 80.1705 145.373 80.1705ZM155.221 80.1705C154.327 80.1705 153.558 79.9811 152.914 79.6023C152.274 79.2197 151.782 78.6894 151.437 78.0114C151.096 77.3333 150.926 76.553 150.926 75.6705C150.926 74.7765 151.098 73.9924 151.443 73.3182C151.791 72.6402 152.285 72.1117 152.926 71.733C153.566 71.3504 154.327 71.1591 155.21 71.1591C155.971 71.1591 156.638 71.2973 157.21 71.5739C157.782 71.8504 158.234 72.2386 158.568 72.7386C158.901 73.2386 159.085 73.8258 159.119 74.5H156.835C156.77 74.0644 156.6 73.714 156.323 73.4489C156.051 73.1799 155.693 73.0455 155.249 73.0455C154.874 73.0455 154.547 73.1477 154.266 73.3523C153.99 73.553 153.774 73.8466 153.619 74.233C153.463 74.6193 153.386 75.0871 153.386 75.6364C153.386 76.1932 153.461 76.6667 153.613 77.0568C153.768 77.447 153.986 77.7443 154.266 77.9489C154.547 78.1534 154.874 78.2557 155.249 78.2557C155.526 78.2557 155.774 78.1989 155.994 78.0852C156.217 77.9716 156.401 77.8068 156.545 77.5909C156.693 77.3712 156.789 77.108 156.835 76.8011H159.119C159.081 77.4678 158.899 78.0549 158.573 78.5625C158.251 79.0663 157.806 79.4602 157.238 79.7443C156.67 80.0284 155.997 80.1705 155.221 80.1705ZM164.932 80.1705C164.049 80.1705 163.286 79.983 162.642 79.608C162.002 79.2292 161.507 78.7027 161.159 78.0284C160.81 77.3504 160.636 76.5644 160.636 75.6705C160.636 74.7689 160.81 73.9811 161.159 73.3068C161.507 72.6288 162.002 72.1023 162.642 71.7273C163.286 71.3485 164.049 71.1591 164.932 71.1591C165.814 71.1591 166.576 71.3485 167.216 71.7273C167.86 72.1023 168.356 72.6288 168.704 73.3068C169.053 73.9811 169.227 74.7689 169.227 75.6705C169.227 76.5644 169.053 77.3504 168.704 78.0284C168.356 78.7027 167.86 79.2292 167.216 79.608C166.576 79.983 165.814 80.1705 164.932 80.1705ZM164.943 78.2955C165.344 78.2955 165.68 78.1818 165.949 77.9545C166.218 77.7235 166.42 77.4091 166.557 77.0114C166.697 76.6136 166.767 76.161 166.767 75.6534C166.767 75.1458 166.697 74.6932 166.557 74.2955C166.42 73.8977 166.218 73.5833 165.949 73.3523C165.68 73.1212 165.344 73.0057 164.943 73.0057C164.538 73.0057 164.197 73.1212 163.92 73.3523C163.647 73.5833 163.441 73.8977 163.301 74.2955C163.165 74.6932 163.096 75.1458 163.096 75.6534C163.096 76.161 163.165 76.6136 163.301 77.0114C163.441 77.4091 163.647 77.7235 163.92 77.9545C164.197 78.1818 164.538 78.2955 164.943 78.2955ZM171.121 80V71.2727H173.467V72.7955H173.558C173.717 72.2538 173.985 71.8447 174.36 71.5682C174.735 71.2879 175.166 71.1477 175.655 71.1477C175.776 71.1477 175.907 71.1553 176.047 71.1705C176.187 71.1856 176.31 71.2064 176.416 71.233V73.3807C176.303 73.3466 176.146 73.3163 175.945 73.2898C175.744 73.2633 175.56 73.25 175.394 73.25C175.038 73.25 174.719 73.3277 174.439 73.483C174.163 73.6345 173.943 73.8466 173.78 74.1193C173.621 74.392 173.541 74.7064 173.541 75.0625V80H171.121ZM180.226 80.1648C179.67 80.1648 179.173 80.0682 178.738 79.875C178.302 79.678 177.957 79.3883 177.704 79.0057C177.454 78.6193 177.329 78.1383 177.329 77.5625C177.329 77.0777 177.418 76.6705 177.596 76.3409C177.774 76.0114 178.016 75.7462 178.323 75.5455C178.63 75.3447 178.978 75.1932 179.368 75.0909C179.762 74.9886 180.175 74.9167 180.607 74.875C181.115 74.822 181.524 74.7727 181.834 74.7273C182.145 74.678 182.37 74.6061 182.511 74.5114C182.651 74.4167 182.721 74.2765 182.721 74.0909V74.0568C182.721 73.697 182.607 73.4186 182.38 73.2216C182.156 73.0246 181.838 72.9261 181.425 72.9261C180.99 72.9261 180.643 73.0227 180.386 73.2159C180.128 73.4053 179.957 73.6439 179.874 73.9318L177.636 73.75C177.749 73.2197 177.973 72.7614 178.306 72.375C178.639 71.9848 179.069 71.6856 179.596 71.4773C180.126 71.2652 180.74 71.1591 181.437 71.1591C181.921 71.1591 182.386 71.2159 182.829 71.3295C183.276 71.4432 183.671 71.6193 184.016 71.858C184.365 72.0966 184.639 72.4034 184.84 72.7784C185.041 73.1496 185.141 73.5947 185.141 74.1136V80H182.846V78.7898H182.778C182.637 79.0625 182.45 79.303 182.215 79.5114C181.98 79.7159 181.698 79.8769 181.368 79.9943C181.039 80.108 180.658 80.1648 180.226 80.1648ZM180.92 78.4943C181.276 78.4943 181.59 78.4242 181.863 78.2841C182.136 78.1402 182.35 77.947 182.505 77.7045C182.66 77.4621 182.738 77.1875 182.738 76.8807V75.9545C182.662 76.0038 182.558 76.0492 182.425 76.0909C182.296 76.1288 182.151 76.1648 181.988 76.1989C181.825 76.2292 181.662 76.2576 181.499 76.2841C181.336 76.3068 181.189 76.3277 181.056 76.3466C180.772 76.3883 180.524 76.4545 180.312 76.5455C180.1 76.6364 179.935 76.7595 179.817 76.9148C179.7 77.0663 179.641 77.2557 179.641 77.483C179.641 77.8125 179.761 78.0644 179.999 78.2386C180.242 78.4091 180.548 78.4943 180.92 78.4943ZM191.981 71.2727V73.0909H186.725V71.2727H191.981ZM187.919 69.1818H190.339V77.3182C190.339 77.5417 190.373 77.7159 190.441 77.8409C190.509 77.9621 190.604 78.0473 190.725 78.0966C190.85 78.1458 190.994 78.1705 191.157 78.1705C191.271 78.1705 191.384 78.161 191.498 78.142C191.612 78.1193 191.699 78.1023 191.759 78.0909L192.14 79.892C192.019 79.9299 191.849 79.9735 191.629 80.0227C191.409 80.0758 191.142 80.108 190.828 80.1193C190.244 80.142 189.733 80.0644 189.294 79.8864C188.858 79.7083 188.519 79.4318 188.277 79.0568C188.034 78.6818 187.915 78.2083 187.919 77.6364V69.1818ZM193.878 80V71.2727H196.298V80H193.878ZM195.099 70.1477C194.74 70.1477 194.431 70.0284 194.173 69.7898C193.916 69.5473 193.787 69.2576 193.787 68.9205C193.787 68.5871 193.916 68.3011 194.173 68.0625C194.431 67.8201 194.738 67.6989 195.094 67.6989C195.457 67.6989 195.766 67.8201 196.02 68.0625C196.277 68.3011 196.406 68.5871 196.406 68.9205C196.406 69.2576 196.277 69.5473 196.02 69.7898C195.766 70.0284 195.459 70.1477 195.099 70.1477ZM206.694 71.2727L203.642 80H200.915L197.864 71.2727H200.421L202.233 77.517H202.324L204.131 71.2727H206.694ZM211.948 80.1705C211.05 80.1705 210.278 79.9886 209.63 79.625C208.986 79.2576 208.49 78.7386 208.141 78.0682C207.793 77.3939 207.619 76.5966 207.619 75.6761C207.619 74.7784 207.793 73.9905 208.141 73.3125C208.49 72.6345 208.98 72.1061 209.613 71.7273C210.249 71.3485 210.996 71.1591 211.852 71.1591C212.427 71.1591 212.963 71.2519 213.46 71.4375C213.96 71.6193 214.395 71.8939 214.766 72.2614C215.141 72.6288 215.433 73.0909 215.641 73.6477C215.85 74.2008 215.954 74.8485 215.954 75.5909V76.2557H208.585V74.7557H213.675C213.675 74.4072 213.6 74.0985 213.448 73.8295C213.297 73.5606 213.086 73.3504 212.817 73.1989C212.552 73.0436 212.244 72.9659 211.891 72.9659C211.524 72.9659 211.198 73.0511 210.914 73.2216C210.634 73.3883 210.414 73.6136 210.255 73.8977C210.096 74.178 210.014 74.4905 210.011 74.8352V76.2614C210.011 76.6932 210.09 77.0663 210.249 77.3807C210.412 77.6951 210.641 77.9375 210.937 78.108C211.232 78.2784 211.583 78.3636 211.988 78.3636C212.257 78.3636 212.503 78.3258 212.727 78.25C212.95 78.1742 213.141 78.0606 213.3 77.9091C213.46 77.7576 213.581 77.572 213.664 77.3523L215.903 77.5C215.789 78.0379 215.556 78.5076 215.204 78.9091C214.855 79.3068 214.405 79.6174 213.852 79.8409C213.302 80.0606 212.668 80.1705 211.948 80.1705ZM219.268 80.1477C218.893 80.1477 218.571 80.0152 218.302 79.75C218.037 79.4811 217.905 79.1591 217.905 78.7841C217.905 78.4129 218.037 78.0947 218.302 77.8295C218.571 77.5644 218.893 77.4318 219.268 77.4318C219.632 77.4318 219.95 77.5644 220.223 77.8295C220.495 78.0947 220.632 78.4129 220.632 78.7841C220.632 79.0341 220.567 79.2633 220.439 79.4716C220.314 79.6761 220.149 79.8409 219.944 79.9659C219.74 80.0871 219.514 80.1477 219.268 80.1477ZM222.939 80V71.2727H225.359V80H222.939ZM224.161 70.1477C223.801 70.1477 223.492 70.0284 223.234 69.7898C222.977 69.5473 222.848 69.2576 222.848 68.9205C222.848 68.5871 222.977 68.3011 223.234 68.0625C223.492 67.8201 223.799 67.6989 224.155 67.6989C224.519 67.6989 224.827 67.8201 225.081 68.0625C225.339 68.3011 225.467 68.5871 225.467 68.9205C225.467 69.2576 225.339 69.5473 225.081 69.7898C224.827 70.0284 224.52 70.1477 224.161 70.1477ZM230.039 68.3636V80H227.618V68.3636H230.039ZM234.718 68.3636V80H232.298V68.3636H234.718ZM242.574 76.2841V71.2727H244.994V80H242.67V78.4148H242.579C242.382 78.9261 242.055 79.3371 241.596 79.6477C241.142 79.9583 240.587 80.1136 239.932 80.1136C239.348 80.1136 238.835 79.9811 238.392 79.7159C237.949 79.4508 237.602 79.0739 237.352 78.5852C237.106 78.0966 236.981 77.5114 236.977 76.8295V71.2727H239.398V76.3977C239.401 76.9129 239.54 77.3201 239.812 77.6193C240.085 77.9186 240.451 78.0682 240.909 78.0682C241.201 78.0682 241.473 78.0019 241.727 77.8693C241.981 77.733 242.185 77.5322 242.341 77.267C242.5 77.0019 242.578 76.6742 242.574 76.2841ZM254.512 73.7614L252.296 73.8977C252.258 73.7083 252.176 73.5379 252.051 73.3864C251.926 73.2311 251.762 73.108 251.557 73.017C251.356 72.9223 251.116 72.875 250.836 72.875C250.461 72.875 250.144 72.9545 249.887 73.1136C249.629 73.2689 249.5 73.4773 249.5 73.7386C249.5 73.947 249.584 74.1231 249.75 74.267C249.917 74.411 250.203 74.5265 250.608 74.6136L252.188 74.9318C253.036 75.1061 253.669 75.3864 254.086 75.7727C254.502 76.1591 254.711 76.6667 254.711 77.2955C254.711 77.8674 254.542 78.3693 254.205 78.8011C253.871 79.233 253.413 79.5701 252.83 79.8125C252.25 80.0511 251.582 80.1705 250.824 80.1705C249.669 80.1705 248.748 79.9299 248.063 79.4489C247.381 78.964 246.981 78.3049 246.864 77.4716L249.245 77.3466C249.317 77.6989 249.491 77.9678 249.767 78.1534C250.044 78.3352 250.398 78.4261 250.83 78.4261C251.254 78.4261 251.595 78.3447 251.853 78.1818C252.114 78.0152 252.246 77.8011 252.25 77.5398C252.246 77.3201 252.154 77.1402 251.972 77C251.79 76.8561 251.51 76.7462 251.131 76.6705L249.62 76.3693C248.767 76.1989 248.133 75.9034 247.716 75.483C247.303 75.0625 247.097 74.5265 247.097 73.875C247.097 73.3144 247.248 72.8314 247.551 72.4261C247.858 72.0208 248.288 71.7083 248.841 71.4886C249.398 71.2689 250.05 71.1591 250.796 71.1591C251.898 71.1591 252.765 71.392 253.398 71.858C254.034 72.3239 254.406 72.9583 254.512 73.7614ZM261.197 71.2727V73.0909H255.941V71.2727H261.197ZM257.134 69.1818H259.555V77.3182C259.555 77.5417 259.589 77.7159 259.657 77.8409C259.725 77.9621 259.82 78.0473 259.941 78.0966C260.066 78.1458 260.21 78.1705 260.373 78.1705C260.486 78.1705 260.6 78.161 260.714 78.142C260.827 78.1193 260.915 78.1023 260.975 78.0909L261.356 79.892C261.235 79.9299 261.064 79.9735 260.844 80.0227C260.625 80.0758 260.358 80.108 260.043 80.1193C259.46 80.142 258.949 80.0644 258.509 79.8864C258.074 79.7083 257.735 79.4318 257.492 79.0568C257.25 78.6818 257.13 78.2083 257.134 77.6364V69.1818ZM263.093 80V71.2727H265.44V72.7955H265.531C265.69 72.2538 265.957 71.8447 266.332 71.5682C266.707 71.2879 267.139 71.1477 267.628 71.1477C267.749 71.1477 267.879 71.1553 268.02 71.1705C268.16 71.1856 268.283 71.2064 268.389 71.233V73.3807C268.275 73.3466 268.118 73.3163 267.917 73.2898C267.717 73.2633 267.533 73.25 267.366 73.25C267.01 73.25 266.692 73.3277 266.412 73.483C266.135 73.6345 265.915 73.8466 265.753 74.1193C265.593 74.392 265.514 74.7064 265.514 75.0625V80H263.093ZM272.199 80.1648C271.642 80.1648 271.146 80.0682 270.71 79.875C270.275 79.678 269.93 79.3883 269.676 79.0057C269.426 78.6193 269.301 78.1383 269.301 77.5625C269.301 77.0777 269.39 76.6705 269.568 76.3409C269.746 76.0114 269.989 75.7462 270.296 75.5455C270.602 75.3447 270.951 75.1932 271.341 75.0909C271.735 74.9886 272.148 74.9167 272.58 74.875C273.087 74.822 273.496 74.7727 273.807 74.7273C274.117 74.678 274.343 74.6061 274.483 74.5114C274.623 74.4167 274.693 74.2765 274.693 74.0909V74.0568C274.693 73.697 274.58 73.4186 274.352 73.2216C274.129 73.0246 273.811 72.9261 273.398 72.9261C272.962 72.9261 272.616 73.0227 272.358 73.2159C272.1 73.4053 271.93 73.6439 271.847 73.9318L269.608 73.75C269.722 73.2197 269.945 72.7614 270.278 72.375C270.612 71.9848 271.042 71.6856 271.568 71.4773C272.099 71.2652 272.712 71.1591 273.409 71.1591C273.894 71.1591 274.358 71.2159 274.801 71.3295C275.248 71.4432 275.644 71.6193 275.989 71.858C276.337 72.0966 276.612 72.4034 276.813 72.7784C277.013 73.1496 277.114 73.5947 277.114 74.1136V80H274.818V78.7898H274.75C274.61 79.0625 274.422 79.303 274.188 79.5114C273.953 79.7159 273.671 79.8769 273.341 79.9943C273.011 80.108 272.631 80.1648 272.199 80.1648ZM272.892 78.4943C273.248 78.4943 273.563 78.4242 273.835 78.2841C274.108 78.1402 274.322 77.947 274.477 77.7045C274.633 77.4621 274.71 77.1875 274.71 76.8807V75.9545C274.635 76.0038 274.53 76.0492 274.398 76.0909C274.269 76.1288 274.123 76.1648 273.96 76.1989C273.797 76.2292 273.635 76.2576 273.472 76.2841C273.309 76.3068 273.161 76.3277 273.028 76.3466C272.744 76.3883 272.496 76.4545 272.284 76.5455C272.072 76.6364 271.907 76.7595 271.79 76.9148C271.672 77.0663 271.614 77.2557 271.614 77.483C271.614 77.8125 271.733 78.0644 271.972 78.2386C272.214 78.4091 272.521 78.4943 272.892 78.4943ZM283.954 71.2727V73.0909H278.698V71.2727H283.954ZM279.891 69.1818H282.312V77.3182C282.312 77.5417 282.346 77.7159 282.414 77.8409C282.482 77.9621 282.577 78.0473 282.698 78.0966C282.823 78.1458 282.967 78.1705 283.13 78.1705C283.243 78.1705 283.357 78.161 283.471 78.142C283.584 78.1193 283.671 78.1023 283.732 78.0909L284.113 79.892C283.991 79.9299 283.821 79.9735 283.601 80.0227C283.382 80.0758 283.115 80.108 282.8 80.1193C282.217 80.142 281.705 80.0644 281.266 79.8864C280.83 79.7083 280.491 79.4318 280.249 79.0568C280.007 78.6818 279.887 78.2083 279.891 77.6364V69.1818ZM285.85 80V71.2727H288.271V80H285.85ZM287.072 70.1477C286.712 70.1477 286.403 70.0284 286.146 69.7898C285.888 69.5473 285.759 69.2576 285.759 68.9205C285.759 68.5871 285.888 68.3011 286.146 68.0625C286.403 67.8201 286.71 67.6989 287.066 67.6989C287.43 67.6989 287.739 67.8201 287.992 68.0625C288.25 68.3011 288.379 68.5871 288.379 68.9205C288.379 69.2576 288.25 69.5473 287.992 69.7898C287.739 70.0284 287.432 70.1477 287.072 70.1477ZM294.473 80.1705C293.59 80.1705 292.827 79.983 292.183 79.608C291.543 79.2292 291.049 78.7027 290.7 78.0284C290.352 77.3504 290.177 76.5644 290.177 75.6705C290.177 74.7689 290.352 73.9811 290.7 73.3068C291.049 72.6288 291.543 72.1023 292.183 71.7273C292.827 71.3485 293.59 71.1591 294.473 71.1591C295.355 71.1591 296.117 71.3485 296.757 71.7273C297.401 72.1023 297.897 72.6288 298.246 73.3068C298.594 73.9811 298.768 74.7689 298.768 75.6705C298.768 76.5644 298.594 77.3504 298.246 78.0284C297.897 78.7027 297.401 79.2292 296.757 79.608C296.117 79.983 295.355 80.1705 294.473 80.1705ZM294.484 78.2955C294.886 78.2955 295.221 78.1818 295.49 77.9545C295.759 77.7235 295.961 77.4091 296.098 77.0114C296.238 76.6136 296.308 76.161 296.308 75.6534C296.308 75.1458 296.238 74.6932 296.098 74.2955C295.961 73.8977 295.759 73.5833 295.49 73.3523C295.221 73.1212 294.886 73.0057 294.484 73.0057C294.079 73.0057 293.738 73.1212 293.461 73.3523C293.189 73.5833 292.982 73.8977 292.842 74.2955C292.706 74.6932 292.638 75.1458 292.638 75.6534C292.638 76.161 292.706 76.6136 292.842 77.0114C292.982 77.4091 293.189 77.7235 293.461 77.9545C293.738 78.1818 294.079 78.2955 294.484 78.2955ZM303.083 74.9545V80H300.662V71.2727H302.969V72.8125H303.071C303.264 72.3049 303.588 71.9034 304.043 71.608C304.497 71.3087 305.049 71.1591 305.696 71.1591C306.302 71.1591 306.831 71.2917 307.281 71.5568C307.732 71.822 308.083 72.2008 308.333 72.6932C308.583 73.1818 308.708 73.7652 308.708 74.4432V80H306.287V74.875C306.291 74.3409 306.155 73.9242 305.878 73.625C305.602 73.322 305.221 73.1705 304.736 73.1705C304.41 73.1705 304.122 73.2405 303.872 73.3807C303.626 73.5208 303.433 73.7254 303.293 73.9943C303.156 74.2595 303.086 74.5795 303.083 74.9545ZM312.35 80.1477C311.975 80.1477 311.653 80.0152 311.384 79.75C311.119 79.4811 310.986 79.1591 310.986 78.7841C310.986 78.4129 311.119 78.0947 311.384 77.8295C311.653 77.5644 311.975 77.4318 312.35 77.4318C312.714 77.4318 313.032 77.5644 313.305 77.8295C313.577 78.0947 313.714 78.4129 313.714 78.7841C313.714 79.0341 313.649 79.2633 313.521 79.4716C313.396 79.6761 313.231 79.8409 313.026 79.9659C312.822 80.0871 312.596 80.1477 312.35 80.1477ZM320.714 71.2727V73.0909H315.328V71.2727H320.714ZM316.561 80V70.642C316.561 70.0095 316.684 69.4848 316.93 69.0682C317.18 68.6515 317.521 68.339 317.953 68.1307C318.385 67.9223 318.875 67.8182 319.424 67.8182C319.796 67.8182 320.135 67.8466 320.441 67.9034C320.752 67.9602 320.983 68.0114 321.135 68.0568L320.703 69.875C320.608 69.8447 320.491 69.8163 320.35 69.7898C320.214 69.7633 320.074 69.75 319.93 69.75C319.574 69.75 319.326 69.8333 319.186 70C319.046 70.1629 318.975 70.392 318.975 70.6875V80H316.561ZM322.513 80V71.2727H324.933V80H322.513ZM323.734 70.1477C323.375 70.1477 323.066 70.0284 322.808 69.7898C322.551 69.5473 322.422 69.2576 322.422 68.9205C322.422 68.5871 322.551 68.3011 322.808 68.0625C323.066 67.8201 323.373 67.6989 323.729 67.6989C324.092 67.6989 324.401 67.8201 324.655 68.0625C324.912 68.3011 325.041 68.5871 325.041 68.9205C325.041 69.2576 324.912 69.5473 324.655 69.7898C324.401 70.0284 324.094 70.1477 323.734 70.1477ZM329.215 71.2727L330.817 74.3239L332.459 71.2727H334.942L332.414 75.6364L335.01 80H332.539L330.817 76.983L329.124 80H326.624L329.215 75.6364L326.715 71.2727H329.215ZM340.364 80.1705C339.467 80.1705 338.694 79.9886 338.046 79.625C337.402 79.2576 336.906 78.7386 336.558 78.0682C336.209 77.3939 336.035 76.5966 336.035 75.6761C336.035 74.7784 336.209 73.9905 336.558 73.3125C336.906 72.6345 337.397 72.1061 338.029 71.7273C338.666 71.3485 339.412 71.1591 340.268 71.1591C340.844 71.1591 341.38 71.2519 341.876 71.4375C342.376 71.6193 342.811 71.8939 343.183 72.2614C343.558 72.6288 343.849 73.0909 344.058 73.6477C344.266 74.2008 344.37 74.8485 344.37 75.5909V76.2557H337.001V74.7557H342.092C342.092 74.4072 342.016 74.0985 341.864 73.8295C341.713 73.5606 341.503 73.3504 341.234 73.1989C340.969 73.0436 340.66 72.9659 340.308 72.9659C339.94 72.9659 339.614 73.0511 339.33 73.2216C339.05 73.3883 338.83 73.6136 338.671 73.8977C338.512 74.178 338.431 74.4905 338.427 74.8352V76.2614C338.427 76.6932 338.506 77.0663 338.666 77.3807C338.828 77.6951 339.058 77.9375 339.353 78.108C339.649 78.2784 339.999 78.3636 340.404 78.3636C340.673 78.3636 340.919 78.3258 341.143 78.25C341.366 78.1742 341.558 78.0606 341.717 77.9091C341.876 77.7576 341.997 77.572 342.08 77.3523L344.319 77.5C344.205 78.0379 343.972 78.5076 343.62 78.9091C343.272 79.3068 342.821 79.6174 342.268 79.8409C341.719 80.0606 341.084 80.1705 340.364 80.1705ZM349.486 80.142C348.823 80.142 348.222 79.9716 347.684 79.6307C347.15 79.286 346.726 78.7803 346.412 78.1136C346.101 77.4432 345.946 76.6212 345.946 75.6477C345.946 74.6477 346.107 73.8163 346.429 73.1534C346.751 72.4867 347.179 71.9886 347.713 71.6591C348.251 71.3258 348.84 71.1591 349.48 71.1591C349.969 71.1591 350.376 71.2424 350.701 71.4091C351.031 71.572 351.296 71.7765 351.497 72.0227C351.701 72.2652 351.857 72.5038 351.963 72.7386H352.037V68.3636H354.451V80H352.065V78.6023H351.963C351.849 78.8447 351.688 79.0852 351.48 79.3239C351.275 79.5587 351.008 79.7538 350.679 79.9091C350.353 80.0644 349.955 80.142 349.486 80.142ZM350.253 78.2159C350.643 78.2159 350.972 78.1098 351.241 77.8977C351.514 77.6818 351.722 77.3807 351.866 76.9943C352.014 76.608 352.088 76.1553 352.088 75.6364C352.088 75.1174 352.016 74.6667 351.872 74.2841C351.728 73.9015 351.52 73.6061 351.247 73.3977C350.974 73.1894 350.643 73.0852 350.253 73.0852C349.855 73.0852 349.52 73.1932 349.247 73.4091C348.974 73.625 348.768 73.9242 348.628 74.3068C348.487 74.6894 348.417 75.1326 348.417 75.6364C348.417 76.1439 348.487 76.5928 348.628 76.983C348.772 77.3693 348.978 77.6723 349.247 77.892C349.52 78.108 349.855 78.2159 350.253 78.2159ZM358.176 80.1477C357.801 80.1477 357.479 80.0152 357.21 79.75C356.945 79.4811 356.813 79.1591 356.813 78.7841C356.813 78.4129 356.945 78.0947 357.21 77.8295C357.479 77.5644 357.801 77.4318 358.176 77.4318C358.54 77.4318 358.858 77.5644 359.131 77.8295C359.404 78.0947 359.54 78.4129 359.54 78.7841C359.54 79.0341 359.476 79.2633 359.347 79.4716C359.222 79.6761 359.057 79.8409 358.852 79.9659C358.648 80.0871 358.423 80.1477 358.176 80.1477ZM361.847 83.2727V71.2727H364.234V72.7386H364.341C364.448 72.5038 364.601 72.2652 364.802 72.0227C365.006 71.7765 365.271 71.572 365.597 71.4091C365.927 71.2424 366.336 71.1591 366.824 71.1591C367.461 71.1591 368.048 71.3258 368.586 71.6591C369.124 71.9886 369.554 72.4867 369.876 73.1534C370.198 73.8163 370.359 74.6477 370.359 75.6477C370.359 76.6212 370.201 77.4432 369.887 78.1136C369.576 78.7803 369.152 79.286 368.614 79.6307C368.08 79.9716 367.482 80.142 366.819 80.142C366.349 80.142 365.949 80.0644 365.62 79.9091C365.294 79.7538 365.027 79.5587 364.819 79.3239C364.61 79.0852 364.451 78.8447 364.341 78.6023H364.268V83.2727H361.847ZM364.216 75.6364C364.216 76.1553 364.288 76.608 364.432 76.9943C364.576 77.3807 364.785 77.6818 365.057 77.8977C365.33 78.1098 365.662 78.2159 366.052 78.2159C366.446 78.2159 366.779 78.108 367.052 77.892C367.324 77.6723 367.531 77.3693 367.671 76.983C367.815 76.5928 367.887 76.1439 367.887 75.6364C367.887 75.1326 367.817 74.6894 367.677 74.3068C367.537 73.9242 367.33 73.625 367.057 73.4091C366.785 73.1932 366.449 73.0852 366.052 73.0852C365.658 73.0852 365.324 73.1894 365.052 73.3977C364.783 73.6061 364.576 73.9015 364.432 74.2841C364.288 74.6667 364.216 75.1174 364.216 75.6364ZM376.235 80.1705C375.353 80.1705 374.59 79.983 373.946 79.608C373.305 79.2292 372.811 78.7027 372.463 78.0284C372.114 77.3504 371.94 76.5644 371.94 75.6705C371.94 74.7689 372.114 73.9811 372.463 73.3068C372.811 72.6288 373.305 72.1023 373.946 71.7273C374.59 71.3485 375.353 71.1591 376.235 71.1591C377.118 71.1591 377.879 71.3485 378.519 71.7273C379.163 72.1023 379.66 72.6288 380.008 73.3068C380.357 73.9811 380.531 74.7689 380.531 75.6705C380.531 76.5644 380.357 77.3504 380.008 78.0284C379.66 78.7027 379.163 79.2292 378.519 79.608C377.879 79.983 377.118 80.1705 376.235 80.1705ZM376.247 78.2955C376.648 78.2955 376.983 78.1818 377.252 77.9545C377.521 77.7235 377.724 77.4091 377.86 77.0114C378 76.6136 378.071 76.161 378.071 75.6534C378.071 75.1458 378 74.6932 377.86 74.2955C377.724 73.8977 377.521 73.5833 377.252 73.3523C376.983 73.1212 376.648 73.0057 376.247 73.0057C375.841 73.0057 375.5 73.1212 375.224 73.3523C374.951 73.5833 374.745 73.8977 374.605 74.2955C374.468 74.6932 374.4 75.1458 374.4 75.6534C374.4 76.161 374.468 76.6136 374.605 77.0114C374.745 77.4091 374.951 77.7235 375.224 77.9545C375.5 78.1818 375.841 78.2955 376.247 78.2955ZM389.686 73.7614L387.47 73.8977C387.432 73.7083 387.351 73.5379 387.226 73.3864C387.101 73.2311 386.936 73.108 386.731 73.017C386.531 72.9223 386.29 72.875 386.01 72.875C385.635 72.875 385.319 72.9545 385.061 73.1136C384.803 73.2689 384.675 73.4773 384.675 73.7386C384.675 73.947 384.758 74.1231 384.925 74.267C385.091 74.411 385.377 74.5265 385.783 74.6136L387.362 74.9318C388.211 75.1061 388.843 75.3864 389.26 75.7727C389.677 76.1591 389.885 76.6667 389.885 77.2955C389.885 77.8674 389.716 78.3693 389.379 78.8011C389.046 79.233 388.588 79.5701 388.004 79.8125C387.425 80.0511 386.756 80.1705 385.999 80.1705C384.843 80.1705 383.923 79.9299 383.237 79.4489C382.555 78.964 382.156 78.3049 382.038 77.4716L384.419 77.3466C384.491 77.6989 384.665 77.9678 384.942 78.1534C385.218 78.3352 385.572 78.4261 386.004 78.4261C386.428 78.4261 386.769 78.3447 387.027 78.1818C387.288 78.0152 387.421 77.8011 387.425 77.5398C387.421 77.3201 387.328 77.1402 387.146 77C386.964 76.8561 386.684 76.7462 386.305 76.6705L384.794 76.3693C383.942 76.1989 383.307 75.9034 382.891 75.483C382.478 75.0625 382.271 74.5265 382.271 73.875C382.271 73.3144 382.423 72.8314 382.726 72.4261C383.033 72.0208 383.463 71.7083 384.016 71.4886C384.572 71.2689 385.224 71.1591 385.97 71.1591C387.072 71.1591 387.94 71.392 388.572 71.858C389.209 72.3239 389.58 72.9583 389.686 73.7614ZM391.729 80V71.2727H394.149V80H391.729ZM392.951 70.1477C392.591 70.1477 392.282 70.0284 392.024 69.7898C391.767 69.5473 391.638 69.2576 391.638 68.9205C391.638 68.5871 391.767 68.3011 392.024 68.0625C392.282 67.8201 392.589 67.6989 392.945 67.6989C393.309 67.6989 393.617 67.8201 393.871 68.0625C394.129 68.3011 394.257 68.5871 394.257 68.9205C394.257 69.2576 394.129 69.5473 393.871 69.7898C393.617 70.0284 393.31 70.1477 392.951 70.1477ZM401.05 71.2727V73.0909H395.795V71.2727H401.05ZM396.988 69.1818H399.408V77.3182C399.408 77.5417 399.443 77.7159 399.511 77.8409C399.579 77.9621 399.674 78.0473 399.795 78.0966C399.92 78.1458 400.064 78.1705 400.227 78.1705C400.34 78.1705 400.454 78.161 400.568 78.142C400.681 78.1193 400.768 78.1023 400.829 78.0909L401.21 79.892C401.088 79.9299 400.918 79.9735 400.698 80.0227C400.478 80.0758 400.211 80.108 399.897 80.1193C399.314 80.142 398.802 80.0644 398.363 79.8864C397.927 79.7083 397.588 79.4318 397.346 79.0568C397.103 78.6818 396.984 78.2083 396.988 77.6364V69.1818ZM402.947 80V71.2727H405.368V80H402.947ZM404.169 70.1477C403.809 70.1477 403.5 70.0284 403.243 69.7898C402.985 69.5473 402.856 69.2576 402.856 68.9205C402.856 68.5871 402.985 68.3011 403.243 68.0625C403.5 67.8201 403.807 67.6989 404.163 67.6989C404.527 67.6989 404.835 67.8201 405.089 68.0625C405.347 68.3011 405.476 68.5871 405.476 68.9205C405.476 69.2576 405.347 69.5473 405.089 69.7898C404.835 70.0284 404.529 70.1477 404.169 70.1477ZM415.763 71.2727L412.712 80H409.984L406.933 71.2727H409.49L411.303 77.517H411.394L413.2 71.2727H415.763ZM421.018 80.1705C420.12 80.1705 419.347 79.9886 418.699 79.625C418.055 79.2576 417.559 78.7386 417.211 78.0682C416.862 77.3939 416.688 76.5966 416.688 75.6761C416.688 74.7784 416.862 73.9905 417.211 73.3125C417.559 72.6345 418.05 72.1061 418.682 71.7273C419.319 71.3485 420.065 71.1591 420.921 71.1591C421.497 71.1591 422.033 71.2519 422.529 71.4375C423.029 71.6193 423.465 71.8939 423.836 72.2614C424.211 72.6288 424.502 73.0909 424.711 73.6477C424.919 74.2008 425.023 74.8485 425.023 75.5909V76.2557H417.654V74.7557H422.745C422.745 74.4072 422.669 74.0985 422.518 73.8295C422.366 73.5606 422.156 73.3504 421.887 73.1989C421.622 73.0436 421.313 72.9659 420.961 72.9659C420.593 72.9659 420.268 73.0511 419.983 73.2216C419.703 73.3883 419.483 73.6136 419.324 73.8977C419.165 74.178 419.084 74.4905 419.08 74.8352V76.2614C419.08 76.6932 419.16 77.0663 419.319 77.3807C419.482 77.6951 419.711 77.9375 420.006 78.108C420.302 78.2784 420.652 78.3636 421.057 78.3636C421.326 78.3636 421.572 78.3258 421.796 78.25C422.019 78.1742 422.211 78.0606 422.37 77.9091C422.529 77.7576 422.65 77.572 422.733 77.3523L424.972 77.5C424.858 78.0379 424.626 78.5076 424.273 78.9091C423.925 79.3068 423.474 79.6174 422.921 79.8409C422.372 80.0606 421.737 80.1705 421.018 80.1705Z" fill="white"/>
</g>
<defs>
<filter id="filter0_dd_1241_30148" x="3" y="118" width="498" height="262" filterUnits="userSpaceOnUse" color-interpolation-filters="sRGB">
<feFlood flood-opacity="0" result="BackgroundImageFix"/>
<feColorMatrix in="SourceAlpha" type="matrix" values="0 0 0 0 0 0 0 0 0 0 0 0 0 0 0 0 0 0 127 0" result="hardAlpha"/>
<feOffset/>
<feGaussianBlur stdDeviation="0.5"/>
<feColorMatrix type="matrix" values="0 0 0 0 0 0 0 0 0 0 0 0 0 0 0 0 0 0 0.12 0"/>
<feBlend mode="normal" in2="BackgroundImageFix" result="effect1_dropShadow_1241_30148"/>
<feColorMatrix in="SourceAlpha" type="matrix" values="0 0 0 0 0 0 0 0 0 0 0 0 0 0 0 0 0 0 127 0" result="hardAlpha"/>
<feOffset dy="24"/>
<feGaussianBlur stdDeviation="24"/>
<feColorMatrix type="matrix" values="0 0 0 0 0 0 0 0 0 0 0 0 0 0 0 0 0 0 0.2 0"/>
<feBlend mode="normal" in2="effect1_dropShadow_1241_30148" result="effect2_dropShadow_1241_30148"/>
<feBlend mode="normal" in="SourceGraphic" in2="effect2_dropShadow_1241_30148" result="shape"/>
</filter>
<linearGradient id="paint0_linear_1241_30148" x1="108.087" y1="167.92" x2="108.087" y2="230.32" gradientUnits="userSpaceOnUse">
<stop stop-color="#3CC29A"/>
<stop offset="1" stop-color="#93C437"/>
</linearGradient>
<linearGradient id="paint1_linear_1241_30148" x1="111.938" y1="64" x2="111.938" y2="84" gradientUnits="userSpaceOnUse">
<stop stop-color="#3CC29A"/>
<stop offset="1" stop-color="#93C437"/>
</linearGradient>
<clipPath id="clip0_1241_30148">
<rect width="301" height="94" fill="white" transform="translate(218 107)"/>
</clipPath>
<clipPath id="clip1_1241_30148">
<rect width="348" height="120" fill="white" transform="translate(89.9375 60)"/>
</clipPath>
</defs>
</svg>
