<svg width="362" height="265" viewBox="0 0 362 265" fill="none" xmlns="http://www.w3.org/2000/svg">
<rect width="362" height="265" rx="16" fill="#1A1A1A"/>
<path d="M83.0445 91V79.3636H90.8854V81.392H85.5047V84.1648H90.482V86.1932H85.5047V88.9716H90.9081V91H83.0445ZM93.4814 79.3636H96.5155L99.72 87.1818H99.8564L103.061 79.3636H106.095V91H103.709V83.4261H103.612L100.601 90.9432H98.9757L95.9643 83.3977H95.8677V91H93.4814V79.3636ZM108.762 91V79.3636H113.353C114.235 79.3636 114.987 79.5322 115.609 79.8693C116.23 80.2027 116.703 80.6667 117.029 81.2614C117.359 81.8523 117.523 82.5341 117.523 83.3068C117.523 84.0795 117.357 84.7614 117.023 85.3523C116.69 85.9432 116.207 86.4034 115.574 86.733C114.946 87.0625 114.184 87.2273 113.29 87.2273H110.364V85.2557H112.893C113.366 85.2557 113.756 85.1742 114.063 85.0114C114.374 84.8447 114.605 84.6155 114.756 84.3239C114.912 84.0284 114.989 83.6894 114.989 83.3068C114.989 82.9205 114.912 82.5833 114.756 82.2955C114.605 82.0038 114.374 81.7784 114.063 81.6193C113.753 81.4564 113.359 81.375 112.881 81.375H111.222V91H108.762ZM119.318 81.392V79.3636H128.875V81.392H125.312V91H122.881V81.392H119.318ZM130.407 79.3636H133.163L135.816 84.375H135.93L138.583 79.3636H141.339L137.095 86.8864V91H134.651V86.8864L130.407 79.3636ZM148.215 84.2216V86.142H142.908V84.2216H148.215ZM155.457 91.2557C154.48 91.2519 153.639 91.0114 152.934 90.5341C152.233 90.0568 151.694 89.3655 151.315 88.4602C150.94 87.5549 150.754 86.4659 150.758 85.1932C150.758 83.9242 150.946 82.8428 151.321 81.9489C151.699 81.0549 152.239 80.375 152.94 79.9091C153.644 79.4394 154.483 79.2045 155.457 79.2045C156.43 79.2045 157.268 79.4394 157.968 79.9091C158.673 80.3788 159.215 81.0606 159.593 81.9545C159.972 82.8447 160.16 83.9242 160.156 85.1932C160.156 86.4697 159.966 87.5606 159.588 88.4659C159.213 89.3712 158.675 90.0625 157.974 90.5398C157.273 91.017 156.434 91.2557 155.457 91.2557ZM155.457 89.2159C156.124 89.2159 156.656 88.8807 157.054 88.2102C157.451 87.5398 157.648 86.5341 157.644 85.1932C157.644 84.3106 157.554 83.5758 157.372 82.9886C157.194 82.4015 156.94 81.9602 156.61 81.6648C156.285 81.3693 155.9 81.2216 155.457 81.2216C154.794 81.2216 154.264 81.553 153.866 82.2159C153.468 82.8788 153.268 83.8712 153.264 85.1932C153.264 86.0871 153.353 86.8333 153.531 87.4318C153.713 88.0265 153.968 88.4735 154.298 88.7727C154.627 89.0682 155.014 89.2159 155.457 89.2159Z" fill="white" fill-opacity="0.95"/>
<path d="M91.3226 131.531V131.141C91.3226 129.422 92.7288 128.016 94.4476 128.016H131.948C133.666 128.016 135.073 129.422 135.073 131.141V135.828C135.073 140.906 131.948 142.078 130.385 140.516C128.823 138.953 129.604 136.609 133.119 135.438L138.354 133.68C139.994 133.133 141.752 134.031 142.299 135.672L152.807 167.234C153.354 168.875 152.455 170.633 150.815 171.18L114.565 183.25C112.924 183.797 111.166 182.898 110.619 181.258L108.471 174.852M104.604 138.172H111.635M135.073 142.859V168.641C135.073 170.359 133.666 171.766 131.948 171.766H94.4476C92.7288 171.766 91.3226 170.359 91.3226 168.641V142.469C91.3226 142.273 91.1663 142.117 90.971 142.078C88.9398 141.883 87.3382 140.164 87.4163 138.055C87.4944 136.063 89.096 134.383 91.1273 134.266C92.4163 134.187 93.5491 134.734 94.3304 135.633L97.2601 135.281C97.9241 133.289 99.2132 131.922 100.737 131.922C102.885 131.922 104.643 134.734 104.643 138.172C104.643 141.609 102.885 144.422 100.737 144.422C99.2132 144.422 97.8851 142.898 97.221 140.906L94.4866 140.516M99.1351 153.445L100.502 152.078C101.713 150.867 103.823 151.727 103.823 153.445C103.823 155.164 105.932 156.023 107.143 154.813L109.877 152.078C111.088 150.867 113.198 151.727 113.198 153.445C113.198 155.164 115.307 156.023 116.518 154.813L119.252 152.078C120.463 150.867 122.573 151.727 122.573 153.445C122.573 155.164 124.682 156.023 125.893 154.813L127.26 153.445M99.1351 162.039L100.502 160.672C101.713 159.461 103.823 160.32 103.823 162.039C103.823 163.758 105.932 164.617 107.143 163.406L109.877 160.672C111.088 159.461 113.198 160.32 113.198 162.039C113.198 163.758 115.307 164.617 116.518 163.406L119.252 160.672C120.463 159.461 122.573 160.32 122.573 162.039C122.573 163.758 124.682 164.617 125.893 163.406L127.26 162.039" stroke="url(#paint0_linear_1241_30609)" stroke-width="2.5" stroke-miterlimit="10" stroke-linecap="round" stroke-linejoin="round"/>
<path d="M205.138 91V79.3636H212.979V81.392H207.598V84.1648H212.576V86.1932H207.598V88.9716H213.002V91H205.138ZM215.575 79.3636H218.609L221.814 87.1818H221.95L225.155 79.3636H228.189V91H225.802V83.4261H225.706L222.694 90.9432H221.069L218.058 83.3977H217.961V91H215.575V79.3636ZM230.856 91V79.3636H235.447C236.329 79.3636 237.081 79.5322 237.702 79.8693C238.324 80.2027 238.797 80.6667 239.123 81.2614C239.452 81.8523 239.617 82.5341 239.617 83.3068C239.617 84.0795 239.45 84.7614 239.117 85.3523C238.784 85.9432 238.301 86.4034 237.668 86.733C237.039 87.0625 236.278 87.2273 235.384 87.2273H232.458V85.2557H234.986C235.46 85.2557 235.85 85.1742 236.157 85.0114C236.467 84.8447 236.699 84.6155 236.85 84.3239C237.005 84.0284 237.083 83.6894 237.083 83.3068C237.083 82.9205 237.005 82.5833 236.85 82.2955C236.699 82.0038 236.467 81.7784 236.157 81.6193C235.846 81.4564 235.452 81.375 234.975 81.375H233.316V91H230.856ZM241.412 81.392V79.3636H250.969V81.392H247.406V91H244.974V81.392H241.412ZM252.501 79.3636H255.256L257.91 84.375H258.024L260.677 79.3636H263.433L259.188 86.8864V91H256.745V86.8864L252.501 79.3636ZM270.308 84.2216V86.142H265.002V84.2216H270.308ZM278.051 79.3636V91H275.59V81.6989H275.522L272.857 83.3693V81.1875L275.738 79.3636H278.051Z" fill="white" fill-opacity="0.95"/>
<path d="M213.323 131.531V131.141C213.323 129.422 214.729 128.016 216.448 128.016H253.948C255.666 128.016 257.073 129.422 257.073 131.141V135.828C257.073 140.906 253.948 142.078 252.385 140.516C250.823 138.953 251.604 136.609 255.119 135.438L260.354 133.68C261.994 133.133 263.752 134.031 264.299 135.672L274.807 167.234C275.354 168.875 274.455 170.633 272.815 171.18L236.565 183.25C234.924 183.797 233.166 182.898 232.619 181.258L230.471 174.852M226.604 138.172H233.635M257.073 142.859V168.641C257.073 170.359 255.666 171.766 253.948 171.766H216.448C214.729 171.766 213.323 170.359 213.323 168.641V142.469C213.323 142.273 213.166 142.117 212.971 142.078C210.94 141.883 209.338 140.164 209.416 138.055C209.494 136.063 211.096 134.383 213.127 134.266C214.416 134.187 215.549 134.734 216.33 135.633L219.26 135.281C219.924 133.289 221.213 131.922 222.737 131.922C224.885 131.922 226.643 134.734 226.643 138.172C226.643 141.609 224.885 144.422 222.737 144.422C221.213 144.422 219.885 142.898 219.221 140.906L216.487 140.516M221.135 153.445L222.502 152.078C223.713 150.867 225.823 151.727 225.823 153.445C225.823 155.164 227.932 156.023 229.143 154.813L231.877 152.078C233.088 150.867 235.198 151.727 235.198 153.445C235.198 155.164 237.307 156.023 238.518 154.813L241.252 152.078C242.463 150.867 244.573 151.727 244.573 153.445C244.573 155.164 246.682 156.023 247.893 154.813L249.26 153.445M221.135 162.039L222.502 160.672C223.713 159.461 225.823 160.32 225.823 162.039C225.823 163.758 227.932 164.617 229.143 163.406L231.877 160.672C233.088 159.461 235.198 160.32 235.198 162.039C235.198 163.758 237.307 164.617 238.518 163.406L241.252 160.672C242.463 159.461 244.573 160.32 244.573 162.039C244.573 163.758 246.682 164.617 247.893 163.406L249.26 162.039" stroke="url(#paint1_linear_1241_30609)" stroke-width="2.5" stroke-miterlimit="10" stroke-linecap="round" stroke-linejoin="round"/>
<defs>
<linearGradient id="paint0_linear_1241_30609" x1="120.19" y1="128.016" x2="120.19" y2="183.41" gradientUnits="userSpaceOnUse">
<stop stop-color="#279BE8"/>
<stop offset="1" stop-color="#875AE0"/>
</linearGradient>
<linearGradient id="paint1_linear_1241_30609" x1="242.19" y1="128.016" x2="242.19" y2="183.41" gradientUnits="userSpaceOnUse">
<stop stop-color="#93C437"/>
<stop offset="1" stop-color="#279BE8"/>
</linearGradient>
</defs>
</svg>
