<svg width="362" height="179" viewBox="0 0 362 179" fill="none" xmlns="http://www.w3.org/2000/svg">
<rect width="362" height="179" rx="16" fill="#1A1A1A"/>
<path d="M129.824 94.5H128.48V84.42H129.824V88.046C130.356 87.3553 131.065 87.01 131.952 87.01C132.811 87.01 133.469 87.276 133.926 87.808C134.327 88.284 134.528 88.9327 134.528 89.754V94.5H133.184V89.768C133.184 88.6947 132.666 88.158 131.63 88.158C131.079 88.158 130.631 88.3493 130.286 88.732C129.978 89.0773 129.824 89.5207 129.824 90.062V94.5ZM142.499 87.22L139.965 94.598C139.629 95.578 139.307 96.2453 138.999 96.6C138.635 97.02 138.164 97.23 137.585 97.23C137.343 97.23 137.053 97.188 136.717 97.104V96.012C136.979 96.0773 137.212 96.11 137.417 96.11C137.707 96.11 137.931 96.0073 138.089 95.802C138.248 95.606 138.449 95.172 138.691 94.5H138.257L135.583 87.22H137.039L139.097 93.408L141.155 87.22H142.499ZM143.615 87.22H144.721L144.931 88.172C145.528 87.3973 146.349 87.01 147.395 87.01C148.44 87.01 149.252 87.3833 149.831 88.13C150.344 88.802 150.601 89.6933 150.601 90.804C150.601 92.12 150.251 93.128 149.551 93.828C148.963 94.416 148.211 94.71 147.297 94.71C146.261 94.71 145.481 94.3273 144.959 93.562V97.02H143.615V87.22ZM149.201 90.776C149.201 89.8613 148.972 89.1753 148.515 88.718C148.151 88.3447 147.675 88.158 147.087 88.158C146.405 88.158 145.864 88.4053 145.463 88.9C145.08 89.376 144.889 90.0013 144.889 90.776C144.889 91.7093 145.117 92.4233 145.575 92.918C145.957 93.3473 146.461 93.562 147.087 93.562C147.787 93.562 148.319 93.3053 148.683 92.792C149.028 92.316 149.201 91.644 149.201 90.776ZM157.102 92.4H158.558C158.353 93.1373 157.947 93.716 157.34 94.136C156.771 94.5187 156.089 94.71 155.296 94.71C154.148 94.71 153.252 94.346 152.608 93.618C152.02 92.9367 151.726 92.0173 151.726 90.86C151.726 89.544 152.099 88.5453 152.846 87.864C153.462 87.2947 154.255 87.01 155.226 87.01C156.365 87.01 157.223 87.3787 157.802 88.116C158.362 88.8253 158.642 89.838 158.642 91.154H153.098C153.154 92.0127 153.415 92.652 153.882 93.072C154.265 93.408 154.75 93.576 155.338 93.576C155.795 93.576 156.192 93.45 156.528 93.198C156.808 92.9833 156.999 92.7173 157.102 92.4ZM155.254 88.088C154.657 88.088 154.176 88.2747 153.812 88.648C153.467 88.9933 153.247 89.474 153.154 90.09H157.27C157.223 89.39 156.99 88.8673 156.57 88.522C156.234 88.2327 155.795 88.088 155.254 88.088ZM161.597 94.5H160.253V87.22H161.359L161.541 88.298C161.952 87.4393 162.568 87.01 163.389 87.01C163.66 87.01 163.926 87.0427 164.187 87.108V88.452C163.87 88.368 163.585 88.326 163.333 88.326C162.792 88.326 162.367 88.5453 162.059 88.984C161.751 89.4227 161.597 90.0433 161.597 90.846V94.5ZM166.588 84.42V94.5H165.244V84.42H166.588ZM169.98 86.002H168.468V84.42H169.98V86.002ZM169.896 94.5H168.552V87.22H169.896V94.5ZM173.205 94.5H171.861V87.22H172.967L173.121 88.144C173.662 87.388 174.4 87.01 175.333 87.01C176.192 87.01 176.85 87.276 177.307 87.808C177.708 88.284 177.909 88.9327 177.909 89.754V94.5H176.565V89.768C176.565 88.6947 176.047 88.158 175.011 88.158C174.47 88.158 174.026 88.3447 173.681 88.718C173.364 89.054 173.205 89.4833 173.205 90.006V94.5ZM181.148 94.5H179.804V84.42H181.148V90.048L184.004 87.22H185.768L182.492 90.384L186.174 94.5H184.382L181.148 90.832V94.5Z" fill="#64B4FA"/>
<path d="M127.5 95.76H186.104V96.95H127.5V95.76Z" fill="#64B4FA"/>
<path d="M208.5 84.6251C207.783 84.625 207.076 84.7833 206.427 85.0886C205.779 85.3939 205.206 85.8388 204.75 86.3913V85.0001C204.75 84.9007 204.71 84.8053 204.64 84.735C204.57 84.6646 204.474 84.6251 204.375 84.6251C204.276 84.6251 204.18 84.6646 204.11 84.735C204.04 84.8053 204 84.9007 204 85.0001V87.2501C204 87.2994 204.01 87.3482 204.028 87.3937C204.047 87.4392 204.075 87.4805 204.11 87.5153C204.145 87.5502 204.186 87.5778 204.231 87.5966C204.277 87.6155 204.326 87.6251 204.375 87.6251H206.625C206.724 87.6251 206.82 87.5856 206.89 87.5153C206.96 87.445 207 87.3496 207 87.2501C207 87.1507 206.96 87.0553 206.89 86.985C206.82 86.9146 206.724 86.8751 206.625 86.8751H205.323C205.863 86.2199 206.593 85.7474 207.411 85.5224C208.23 85.2974 209.099 85.3309 209.898 85.6181C210.697 85.9054 211.388 86.4325 211.876 87.1274C212.364 87.8222 212.626 88.6509 212.625 89.5001C212.624 89.731 212.605 89.9615 212.568 90.1893C212.56 90.238 212.561 90.2877 212.573 90.3356C212.584 90.3836 212.604 90.4288 212.633 90.4688C212.662 90.5088 212.698 90.5428 212.74 90.5687C212.782 90.5946 212.829 90.6121 212.877 90.62C212.897 90.6232 212.918 90.6248 212.938 90.6248C213.027 90.6246 213.113 90.5929 213.181 90.5353C213.249 90.4777 213.294 90.3979 213.308 90.3102C213.352 90.0424 213.374 89.7715 213.375 89.5001C213.374 88.2076 212.859 86.9685 211.945 86.0546C211.032 85.1407 209.792 84.6266 208.5 84.6251Z" fill="white" fill-opacity="0.7"/>
<path d="M212.625 91.3751H210.375C210.276 91.3751 210.18 91.4146 210.11 91.485C210.04 91.5553 210 91.6507 210 91.7501C210 91.8496 210.04 91.945 210.11 92.0153C210.18 92.0856 210.276 92.1251 210.375 92.1251H211.677C211.137 92.7804 210.407 93.2528 209.589 93.4778C208.77 93.7028 207.901 93.6694 207.102 93.3821C206.303 93.0948 205.612 92.5677 205.124 91.8729C204.636 91.178 204.374 90.3493 204.375 89.5001C204.376 89.2689 204.396 89.0382 204.434 88.8102C204.45 88.7121 204.426 88.6117 204.368 88.5311C204.31 88.4506 204.222 88.3963 204.124 88.3803C204.026 88.3643 203.926 88.3878 203.845 88.4458C203.764 88.5037 203.71 88.5913 203.693 88.6893C203.649 88.9574 203.626 89.2285 203.625 89.5001C203.624 90.503 203.933 91.4817 204.509 92.3026C205.086 93.1234 205.901 93.7464 206.845 94.0865C207.788 94.4266 208.814 94.4672 209.781 94.2027C210.748 93.9383 211.611 93.3817 212.25 92.609V94.0001C212.25 94.0996 212.29 94.195 212.36 94.2653C212.43 94.3356 212.526 94.3751 212.625 94.3751C212.724 94.3751 212.82 94.3356 212.89 94.2653C212.96 94.195 213 94.0996 213 94.0001V91.7501C213 91.7009 212.99 91.6521 212.972 91.6066C212.953 91.5611 212.925 91.5197 212.89 91.4849C212.855 91.4501 212.814 91.4224 212.769 91.4036C212.723 91.3848 212.674 91.3751 212.625 91.3751Z" fill="white" fill-opacity="0.7"/>
<path d="M232.293 88.8361C232.792 88.6342 233.003 87.9943 232.778 87.4774L232.76 87.4282C232.669 87.2178 232.563 87.0153 232.442 86.8227C232.384 86.722 232.319 86.6265 232.246 86.5372C231.606 85.7102 230.854 85.5626 230.396 85.5626C230.078 85.56 229.763 85.6289 229.472 85.7647C229.182 85.9006 228.922 86.1001 228.71 86.3502C228.821 86.4984 228.919 86.6566 229.004 86.8227C229.317 87.4184 229.513 88.2355 229.677 88.9296C229.69 88.8846 229.703 88.8377 229.716 88.7898C229.795 88.5028 229.885 88.1785 229.985 87.9845C230.177 87.6153 230.307 87.6153 230.396 87.6153C230.662 87.6153 230.877 88.0288 230.98 88.27C230.98 88.27 231.349 89.225 232.293 88.8361Z" fill="white" fill-opacity="0.7"/>
<path d="M224.104 86.7685C223.6 86.8079 223.184 87.3592 223.259 87.9253C223.282 88.132 223.333 88.452 223.399 88.8015C223.427 88.959 223.46 89.1264 223.492 89.2888C223.574 89.6815 223.675 90.0693 223.796 90.4506C223.926 90.8735 224.083 91.2864 224.268 91.6861C224.973 93.1334 225.926 93.4386 226.603 93.4386C226.921 93.4414 227.236 93.3727 227.527 93.2368C227.818 93.101 228.078 92.9012 228.289 92.651C228.171 92.4919 228.067 92.3222 227.977 92.1439C227.678 91.5631 227.486 90.8936 227.323 90.1946C227.248 90.4731 227.148 90.7435 227.024 91.0019C226.827 91.3859 226.692 91.3859 226.603 91.3859C226.412 91.3859 226.211 91.1693 226.005 90.7508C225.899 90.5219 225.806 90.2869 225.725 90.0469C225.669 89.8746 225.613 89.6974 225.566 89.5251L225.555 89.4852C225.507 89.3087 225.433 89.0336 225.398 88.8557C225.315 88.4594 225.218 87.8474 225.188 87.6549C225.183 87.6203 225.179 87.5992 225.179 87.5955C225.137 87.374 224.889 86.6996 224.104 86.7685Z" fill="white" fill-opacity="0.7"/>
<path d="M232.816 86.7588H232.792C232.89 86.9302 232.977 87.1078 233.054 87.2904L233.077 87.3397C233.218 87.6708 233.229 88.0471 233.107 88.3865C232.986 88.7259 232.741 89.0008 232.428 89.1512C232.259 89.2308 232.076 89.2727 231.891 89.2742C231.764 89.2718 231.639 89.252 231.517 89.2152C231.386 89.732 231.181 90.367 230.994 90.751C230.807 91.135 230.588 91.386 230.391 91.386C230.307 91.386 230.172 91.386 229.976 91.002C229.852 90.7436 229.752 90.4733 229.677 90.1947C229.616 89.9782 229.56 89.7468 229.504 89.5056C229.481 89.417 229.462 89.3283 229.443 89.2398C229.266 88.462 229.065 87.6449 228.719 86.9902C228.653 86.8642 228.58 86.7425 228.5 86.6259C228.434 86.5302 228.364 86.4382 228.29 86.3502C228.077 86.0996 227.816 85.8996 227.525 85.7638C227.233 85.6279 226.917 85.5593 226.599 85.5626C226.145 85.5626 225.393 85.7103 224.753 86.5373C224.955 86.633 225.131 86.7813 225.263 86.9681C225.395 87.155 225.481 87.3744 225.51 87.6055C225.543 87.8516 225.622 88.3291 225.716 88.782C225.725 88.8312 225.734 88.8804 225.748 88.9346C225.803 88.7852 225.857 88.6537 225.914 88.5169C225.93 88.4779 225.947 88.4384 225.963 88.398L226.019 88.27C226.122 88.0288 226.337 87.6153 226.599 87.6153C226.692 87.6153 226.823 87.6153 227.014 87.9845C227.143 88.2485 227.247 88.5256 227.323 88.8115C227.383 89.033 227.444 89.2693 227.495 89.5056C227.514 89.5745 227.528 89.6434 227.542 89.7123C227.729 90.5344 227.925 91.3269 228.261 91.9816C228.331 92.1208 228.411 92.2541 228.5 92.3804C228.565 92.4745 228.635 92.5649 228.71 92.6511C229.266 93.2861 229.906 93.4387 230.391 93.4387C231.069 93.4387 232.026 93.1335 232.732 91.6863C233.091 90.943 233.395 89.8452 233.507 89.289C233.619 88.7327 233.703 88.2306 233.741 87.9254C233.758 87.7915 233.751 87.6553 233.718 87.5245C233.686 87.3937 233.629 87.271 233.551 87.1634C233.474 87.0559 233.376 86.9656 233.265 86.8979C233.154 86.8301 233.032 86.7862 232.905 86.7686L232.816 86.7588Z" fill="white" fill-opacity="0.7"/>
</svg>
