<svg width="42" height="42" viewBox="0 0 42 42" fill="none" xmlns="http://www.w3.org/2000/svg">
<path d="M32.3754 5.57861H9.62456C7.85581 5.58064 6.16008 6.28417 4.90938 7.53487C3.65868 8.78557 2.95515 10.4813 2.95312 12.2501V29.7483C2.95486 31.5173 3.65826 33.2133 4.90898 34.4643C6.15971 35.7152 7.8556 36.419 9.62456 36.4211H32.3754C34.1444 36.419 35.8403 35.7152 37.091 34.4643C38.3417 33.2133 39.0451 31.5173 39.0469 29.7483V12.2501C39.0449 10.4813 38.3413 8.78557 37.0906 7.53487C35.8399 6.28417 34.1442 5.58064 32.3754 5.57861ZM4.99589 30.4808L11.9535 22.3463C12.3338 21.8474 12.8198 21.4388 13.3767 21.1498C13.9336 20.8608 14.5475 20.6987 15.1745 20.6749C15.8039 20.655 16.4302 20.7724 17.0097 21.019C17.5891 21.2656 18.108 21.6354 18.5301 22.1028L30.1045 34.4523H9.62456C8.50668 34.4493 7.42651 34.0478 6.57812 33.3198C5.72973 32.5919 5.16872 31.5852 4.99589 30.4808ZM37.0781 29.7484C37.0747 30.9251 36.6294 32.0576 35.8305 32.9215C35.0315 33.7854 33.9373 34.3178 32.7644 34.413L19.9797 20.7723C19.3653 20.0932 18.6099 19.5566 17.7663 19.1999C16.9228 18.8432 16.0116 18.6752 15.0963 18.7075C14.1889 18.7403 13.2999 18.9724 12.4923 19.3873C11.6847 19.8022 10.9782 20.3897 10.4231 21.1082L4.92188 27.5384V12.2501C4.92333 11.0033 5.41926 9.80798 6.30087 8.92637C7.18248 8.04476 8.37778 7.54883 9.62456 7.54738H32.3754C33.6222 7.54883 34.8175 8.04476 35.6991 8.92637C36.5807 9.80798 37.0767 11.0033 37.0781 12.2501L37.0781 29.7484Z" fill="#A87FF0"/>
<path d="M28.2188 12.1411C27.3751 12.1411 26.5504 12.3913 25.8489 12.86C25.1474 13.3287 24.6007 13.9949 24.2778 14.7744C23.955 15.5538 23.8705 16.4115 24.0351 17.2389C24.1997 18.0664 24.6059 18.8264 25.2025 19.423C25.7991 20.0195 26.5591 20.4258 27.3866 20.5904C28.214 20.755 29.0717 20.6705 29.8511 20.3477C30.6306 20.0248 31.2968 19.4781 31.7655 18.7766C32.2342 18.0751 32.4844 17.2504 32.4844 16.4067C32.4831 15.2758 32.0332 14.1916 31.2336 13.3919C30.4339 12.5923 29.3497 12.1424 28.2188 12.1411ZM28.2188 18.7036C27.7645 18.7036 27.3204 18.5689 26.9427 18.3165C26.565 18.0641 26.2706 17.7054 26.0967 17.2857C25.9229 16.866 25.8774 16.4042 25.966 15.9586C26.0546 15.5131 26.2734 15.1038 26.5946 14.7826C26.9158 14.4614 27.3251 14.2426 27.7707 14.154C28.2162 14.0654 28.678 14.1109 29.0977 14.2847C29.5174 14.4585 29.8761 14.7529 30.1285 15.1307C30.3809 15.5084 30.5156 15.9525 30.5156 16.4067C30.5149 17.0157 30.2727 17.5995 29.8421 18.0301C29.4115 18.4606 28.8277 18.7029 28.2188 18.7036Z" fill="#A87FF0"/>
</svg>
