<svg width="1150" height="576" viewBox="0 0 1150 576" fill="none" xmlns="http://www.w3.org/2000/svg">
<g clip-path="url(#clip0_1241_29278)">
<rect x="0.5" y="0.5" width="182" height="47" stroke="white" stroke-opacity="0.07"/>
<rect y="48" width="183" height="48" fill="white" fill-opacity="0.11"/>
<rect x="0.5" y="48.5" width="182" height="47" stroke="white" stroke-opacity="0.07"/>
<rect y="96" width="183" height="48" fill="white" fill-opacity="0.2"/>
<rect x="0.5" y="96.5" width="182" height="47" stroke="white" stroke-opacity="0.07"/>
<rect y="144" width="183" height="48" fill="white" fill-opacity="0.3"/>
<rect x="0.5" y="144.5" width="182" height="47" stroke="white" stroke-opacity="0.07"/>
<rect y="192" width="183" height="48" fill="white" fill-opacity="0.4"/>
<rect x="0.5" y="192.5" width="182" height="47" stroke="white" stroke-opacity="0.07"/>
<rect y="240" width="183" height="48" fill="white" fill-opacity="0.5"/>
<rect x="0.5" y="240.5" width="182" height="47" stroke="white" stroke-opacity="0.07"/>
<rect y="288" width="183" height="48" fill="white" fill-opacity="0.6"/>
<rect x="0.5" y="288.5" width="182" height="47" stroke="white" stroke-opacity="0.07"/>
<rect y="336" width="183" height="48" fill="white" fill-opacity="0.7"/>
<rect x="0.5" y="336.5" width="182" height="47" stroke="white" stroke-opacity="0.07"/>
<rect y="384" width="183" height="48" fill="white" fill-opacity="0.8"/>
<rect x="0.5" y="384.5" width="182" height="47" stroke="white" stroke-opacity="0.07"/>
<rect y="432" width="183" height="48" fill="white" fill-opacity="0.8"/>
<rect x="0.5" y="432.5" width="182" height="47" stroke="white" stroke-opacity="0.07"/>
<rect y="480" width="183" height="48" fill="white" fill-opacity="0.95"/>
<rect x="0.5" y="480.5" width="182" height="47" stroke="white" stroke-opacity="0.07"/>
<rect y="528" width="183" height="48" fill="white"/>
<rect x="0.5" y="528.5" width="182" height="47" stroke="white" stroke-opacity="0.07"/>
</g>
<g clip-path="url(#clip1_1241_29278)">
<rect x="145.75" y="0.5" width="185" height="47" stroke="white" stroke-opacity="0.07"/>
<rect x="145.25" y="48" width="186" height="48" fill="black" fill-opacity="0.11"/>
<rect x="145.75" y="48.5" width="185" height="47" stroke="white" stroke-opacity="0.07"/>
<rect x="145.25" y="96" width="186" height="48" fill="black" fill-opacity="0.2"/>
<rect x="145.75" y="96.5" width="185" height="47" stroke="white" stroke-opacity="0.07"/>
<rect x="145.25" y="144" width="186" height="48" fill="black" fill-opacity="0.3"/>
<rect x="145.75" y="144.5" width="185" height="47" stroke="white" stroke-opacity="0.07"/>
<rect x="145.25" y="192" width="186" height="48" fill="black" fill-opacity="0.4"/>
<rect x="145.75" y="192.5" width="185" height="47" stroke="white" stroke-opacity="0.07"/>
<rect x="145.25" y="240" width="186" height="48" fill="black" fill-opacity="0.5"/>
<rect x="145.75" y="240.5" width="185" height="47" stroke="white" stroke-opacity="0.07"/>
<rect x="145.25" y="288" width="186" height="48" fill="black" fill-opacity="0.6"/>
<rect x="145.75" y="288.5" width="185" height="47" stroke="white" stroke-opacity="0.07"/>
<rect x="145.25" y="336" width="186" height="48" fill="black" fill-opacity="0.7"/>
<rect x="145.75" y="336.5" width="185" height="47" stroke="white" stroke-opacity="0.07"/>
<rect x="145.25" y="384" width="186" height="48" fill="black" fill-opacity="0.8"/>
<rect x="145.75" y="384.5" width="185" height="47" stroke="white" stroke-opacity="0.07"/>
<rect x="145.25" y="432" width="186" height="48" fill="black" fill-opacity="0.9"/>
<rect x="145.75" y="432.5" width="185" height="47" stroke="white" stroke-opacity="0.07"/>
<rect x="145.25" y="480" width="186" height="48" fill="black" fill-opacity="0.95"/>
<rect x="145.75" y="480.5" width="185" height="47" stroke="white" stroke-opacity="0.07"/>
<rect x="145.25" y="528" width="186" height="48" fill="black"/>
<rect x="145.75" y="528.5" width="185" height="47" stroke="white" stroke-opacity="0.07"/>
</g>
<g clip-path="url(#clip2_1241_29278)">
<rect x="290.5" width="185" height="48" fill="#F7F7F7"/>
<rect x="291" y="0.5" width="184" height="47" stroke="white" stroke-opacity="0.07"/>
<rect x="290.5" y="48" width="185" height="48" fill="#EDEDED"/>
<rect x="291" y="48.5" width="184" height="47" stroke="white" stroke-opacity="0.07"/>
<rect x="290.5" y="96" width="185" height="48" fill="#DEDEDE"/>
<rect x="291" y="96.5" width="184" height="47" stroke="white" stroke-opacity="0.07"/>
<rect x="290.5" y="144" width="185" height="48" fill="#C9C9C9"/>
<rect x="291" y="144.5" width="184" height="47" stroke="white" stroke-opacity="0.07"/>
<rect x="290.5" y="192" width="185" height="48" fill="#ADADAD"/>
<rect x="291" y="192.5" width="184" height="47" stroke="white" stroke-opacity="0.07"/>
<rect x="290.5" y="240" width="185" height="48" fill="#8F8F8F"/>
<rect x="291" y="240.5" width="184" height="47" stroke="white" stroke-opacity="0.07"/>
<rect x="290.5" y="288" width="185" height="48" fill="#707070"/>
<rect x="291" y="288.5" width="184" height="47" stroke="white" stroke-opacity="0.07"/>
<rect x="290.5" y="336" width="185" height="48" fill="#545454"/>
<rect x="291" y="336.5" width="184" height="47" stroke="white" stroke-opacity="0.07"/>
<rect x="290.5" y="384" width="185" height="48" fill="#3B3B3B"/>
<rect x="291" y="384.5" width="184" height="47" stroke="white" stroke-opacity="0.07"/>
<rect x="290.5" y="432" width="185" height="48" fill="#262626"/>
<rect x="291" y="432.5" width="184" height="47" stroke="white" stroke-opacity="0.07"/>
<rect x="290.5" y="480" width="185" height="48" fill="#1A1A1A"/>
<rect x="291" y="480.5" width="184" height="47" stroke="white" stroke-opacity="0.07"/>
<rect x="290.5" y="528" width="185" height="48" fill="#0F0F0F"/>
<rect x="291" y="528.5" width="184" height="47" stroke="white" stroke-opacity="0.07"/>
</g>
<g clip-path="url(#clip3_1241_29278)">
<rect x="435.75" width="182" height="48" fill="#EDF7F5"/>
<rect x="436.25" y="0.5" width="181" height="47" stroke="white" stroke-opacity="0.07"/>
<rect x="435.75" y="48" width="182" height="48" fill="#DBF0FF"/>
<rect x="436.25" y="48.5" width="181" height="47" stroke="white" stroke-opacity="0.07"/>
<rect x="435.75" y="96" width="182" height="48" fill="#BFE3FF"/>
<rect x="436.25" y="96.5" width="181" height="47" stroke="white" stroke-opacity="0.07"/>
<rect x="435.75" y="144" width="182" height="48" fill="#96D0FF"/>
<rect x="436.25" y="144.5" width="181" height="47" stroke="white" stroke-opacity="0.07"/>
<rect x="435.75" y="192" width="182" height="48" fill="#64B4FA"/>
<rect x="436.25" y="192.5" width="181" height="47" stroke="white" stroke-opacity="0.07"/>
<rect x="435.75" y="240" width="182" height="48" fill="#3492EB"/>
<rect x="436.25" y="240.5" width="181" height="47" stroke="white" stroke-opacity="0.07"/>
<rect x="435.75" y="288" width="182" height="48" fill="#1170CF"/>
<rect x="436.25" y="288.5" width="181" height="47" stroke="white" stroke-opacity="0.07"/>
<rect x="435.75" y="336" width="182" height="48" fill="#0353A8"/>
<rect x="436.25" y="336.5" width="181" height="47" stroke="white" stroke-opacity="0.07"/>
<rect x="435.75" y="384" width="182" height="48" fill="#063A75"/>
<rect x="436.25" y="384.5" width="181" height="47" stroke="white" stroke-opacity="0.07"/>
<rect x="435.75" y="432" width="182" height="48" fill="#063A75"/>
<rect x="436.25" y="432.5" width="181" height="47" stroke="white" stroke-opacity="0.07"/>
<rect x="435.75" y="480" width="182" height="48" fill="#091A30"/>
<rect x="436.25" y="480.5" width="181" height="47" stroke="white" stroke-opacity="0.07"/>
<rect x="435.75" y="528" width="182" height="48" fill="#07101C"/>
<rect x="436.25" y="528.5" width="181" height="47" stroke="white" stroke-opacity="0.07"/>
</g>
<g clip-path="url(#clip4_1241_29278)">
<rect x="581" width="184" height="48" fill="#EDF7F5"/>
<rect x="581.5" y="0.5" width="183" height="47" stroke="white" stroke-opacity="0.07"/>
<rect x="581" y="48" width="184" height="48" fill="#CEF5EB"/>
<rect x="581.5" y="48.5" width="183" height="47" stroke="white" stroke-opacity="0.07"/>
<rect x="581" y="96" width="184" height="48" fill="#9FEDD8"/>
<rect x="581.5" y="96.5" width="183" height="47" stroke="white" stroke-opacity="0.07"/>
<rect x="581" y="144" width="184" height="48" fill="#68DEBD"/>
<rect x="581.5" y="144.5" width="183" height="47" stroke="white" stroke-opacity="0.07"/>
<rect x="581" y="192" width="184" height="48" fill="#3CC29A"/>
<rect x="581.5" y="192.5" width="183" height="47" stroke="white" stroke-opacity="0.07"/>
<rect x="581" y="240" width="184" height="48" fill="#27A17A"/>
<rect x="581.5" y="240.5" width="183" height="47" stroke="white" stroke-opacity="0.07"/>
<rect x="581" y="288" width="184" height="48" fill="#1D805F"/>
<rect x="581.5" y="288.5" width="183" height="47" stroke="white" stroke-opacity="0.07"/>
<rect x="581" y="336" width="184" height="48" fill="#185E46"/>
<rect x="581.5" y="336.5" width="183" height="47" stroke="white" stroke-opacity="0.07"/>
<rect x="581" y="384" width="184" height="48" fill="#134231"/>
<rect x="581.5" y="384.5" width="183" height="47" stroke="white" stroke-opacity="0.07"/>
<rect x="581" y="432" width="184" height="48" fill="#134231"/>
<rect x="581.5" y="432.5" width="183" height="47" stroke="white" stroke-opacity="0.07"/>
<rect x="581" y="480" width="184" height="48" fill="#0A1C15"/>
<rect x="581.5" y="480.5" width="183" height="47" stroke="white" stroke-opacity="0.07"/>
<rect x="581" y="528" width="184" height="48" fill="#07120D"/>
<rect x="581.5" y="528.5" width="183" height="47" stroke="white" stroke-opacity="0.07"/>
</g>
<g clip-path="url(#clip5_1241_29278)">
<rect x="726.25" width="185" height="48" fill="#FFF5F6"/>
<rect x="726.75" y="0.5" width="184" height="47" stroke="white" stroke-opacity="0.07"/>
<rect x="726.25" y="48" width="185" height="48" fill="#FFE8EA"/>
<rect x="726.75" y="48.5" width="184" height="47" stroke="white" stroke-opacity="0.07"/>
<rect x="726.25" y="96" width="185" height="48" fill="#FFD4DA"/>
<rect x="726.75" y="96.5" width="184" height="47" stroke="white" stroke-opacity="0.07"/>
<rect x="726.25" y="144" width="185" height="48" fill="#FFB8C1"/>
<rect x="726.75" y="144.5" width="184" height="47" stroke="white" stroke-opacity="0.07"/>
<rect x="726.25" y="192" width="185" height="48" fill="#FC8B98"/>
<rect x="726.75" y="192.5" width="184" height="47" stroke="white" stroke-opacity="0.07"/>
<rect x="726.25" y="240" width="185" height="48" fill="#F55868"/>
<rect x="726.75" y="240.5" width="184" height="47" stroke="white" stroke-opacity="0.07"/>
<rect x="726.25" y="288" width="185" height="48" fill="#DB1F2E"/>
<rect x="726.75" y="288.5" width="184" height="47" stroke="white" stroke-opacity="0.07"/>
<rect x="726.25" y="336" width="185" height="48" fill="#AB0A15"/>
<rect x="726.75" y="336.5" width="184" height="47" stroke="white" stroke-opacity="0.07"/>
<rect x="726.25" y="384" width="185" height="48" fill="#780D13"/>
<rect x="726.75" y="384.5" width="184" height="47" stroke="white" stroke-opacity="0.07"/>
<rect x="726.25" y="432" width="185" height="48" fill="#780D13"/>
<rect x="726.75" y="432.5" width="184" height="47" stroke="white" stroke-opacity="0.07"/>
<rect x="726.25" y="480" width="185" height="48" fill="#330D0E"/>
<rect x="726.75" y="480.5" width="184" height="47" stroke="white" stroke-opacity="0.07"/>
<rect x="726.25" y="528" width="185" height="48" fill="#1F0A0A"/>
<rect x="726.75" y="528.5" width="184" height="47" stroke="white" stroke-opacity="0.07"/>
</g>
<g clip-path="url(#clip6_1241_29278)">
<rect x="871.5" width="186" height="48" fill="#FEF3E8"/>
<rect x="872" y="0.5" width="185" height="47" stroke="white" stroke-opacity="0.07"/>
<rect x="871.5" y="48" width="186" height="48" fill="#FEEBD7"/>
<rect x="872" y="48.5" width="185" height="47" stroke="white" stroke-opacity="0.07"/>
<rect x="871.5" y="96" width="186" height="48" fill="#FED5AC"/>
<rect x="872" y="96.5" width="185" height="47" stroke="white" stroke-opacity="0.07"/>
<rect x="871.5" y="144" width="186" height="48" fill="#FEBA7F"/>
<rect x="872" y="144.5" width="185" height="47" stroke="white" stroke-opacity="0.07"/>
<rect x="871.5" y="192" width="186" height="48" fill="#FD884E"/>
<rect x="872" y="192.5" width="185" height="47" stroke="white" stroke-opacity="0.07"/>
<rect x="871.5" y="240" width="186" height="48" fill="#EC6400"/>
<rect x="872" y="240.5" width="185" height="47" stroke="white" stroke-opacity="0.07"/>
<rect x="871.5" y="288" width="186" height="48" fill="#C94403"/>
<rect x="872" y="288.5" width="185" height="47" stroke="white" stroke-opacity="0.07"/>
<rect x="871.5" y="336" width="186" height="48" fill="#9C3202"/>
<rect x="872" y="336.5" width="185" height="47" stroke="white" stroke-opacity="0.07"/>
<rect x="871.5" y="384" width="186" height="48" fill="#682601"/>
<rect x="872" y="384.5" width="185" height="47" stroke="white" stroke-opacity="0.07"/>
<rect x="871.5" y="432" width="186" height="48" fill="#682601"/>
<rect x="872" y="432.5" width="185" height="47" stroke="white" stroke-opacity="0.07"/>
<rect x="871.5" y="480" width="186" height="48" fill="#291303"/>
<rect x="872" y="480.5" width="185" height="47" stroke="white" stroke-opacity="0.07"/>
<rect x="871.5" y="528" width="186" height="48" fill="#170B02"/>
<rect x="872" y="528.5" width="185" height="47" stroke="white" stroke-opacity="0.07"/>
</g>
<g clip-path="url(#clip7_1241_29278)">
<rect x="1016.75" width="183" height="48" fill="#FFF6E3"/>
<rect x="1017.25" y="0.5" width="182" height="47" stroke="white" stroke-opacity="0.07"/>
<rect x="1016.75" y="48" width="183" height="48" fill="#FFEBC2"/>
<rect x="1017.25" y="48.5" width="182" height="47" stroke="white" stroke-opacity="0.07"/>
<rect x="1016.75" y="96" width="183" height="48" fill="#FFDA94"/>
<rect x="1017.25" y="96.5" width="182" height="47" stroke="white" stroke-opacity="0.07"/>
<rect x="1016.75" y="144" width="183" height="48" fill="#FFBE4F"/>
<rect x="1017.25" y="144.5" width="182" height="47" stroke="white" stroke-opacity="0.07"/>
<rect x="1016.75" y="192" width="183" height="48" fill="#F2990A"/>
<rect x="1017.25" y="192.5" width="182" height="47" stroke="white" stroke-opacity="0.07"/>
<rect x="1016.75" y="240" width="183" height="48" fill="#CF7900"/>
<rect x="1017.25" y="240.5" width="182" height="47" stroke="white" stroke-opacity="0.07"/>
<rect x="1016.75" y="288" width="183" height="48" fill="#A65E00"/>
<rect x="1017.25" y="288.5" width="182" height="47" stroke="white" stroke-opacity="0.07"/>
<rect x="1016.75" y="336" width="183" height="48" fill="#7D4705"/>
<rect x="1017.25" y="336.5" width="182" height="47" stroke="white" stroke-opacity="0.07"/>
<rect x="1016.75" y="384" width="183" height="48" fill="#57330A"/>
<rect x="1017.25" y="384.5" width="182" height="47" stroke="white" stroke-opacity="0.07"/>
<rect x="1016.75" y="432" width="183" height="48" fill="#57330A"/>
<rect x="1017.25" y="432.5" width="182" height="47" stroke="white" stroke-opacity="0.07"/>
<rect x="1016.75" y="480" width="183" height="48" fill="#24180B"/>
<rect x="1017.25" y="480.5" width="182" height="47" stroke="white" stroke-opacity="0.07"/>
<rect x="1016.75" y="528" width="183" height="48" fill="#140E08"/>
<rect x="1017.25" y="528.5" width="182" height="47" stroke="white" stroke-opacity="0.07"/>
</g>
<defs>
<clipPath id="clip0_1241_29278">
<rect width="133.25" height="576" rx="8" fill="white"/>
</clipPath>
<clipPath id="clip1_1241_29278">
<rect x="145.25" width="133.25" height="576" rx="8" fill="white"/>
</clipPath>
<clipPath id="clip2_1241_29278">
<rect x="290.5" width="133.25" height="576" rx="8" fill="white"/>
</clipPath>
<clipPath id="clip3_1241_29278">
<rect x="435.75" width="133.25" height="576" rx="8" fill="white"/>
</clipPath>
<clipPath id="clip4_1241_29278">
<rect x="581" width="133.25" height="576" rx="8" fill="white"/>
</clipPath>
<clipPath id="clip5_1241_29278">
<rect x="726.25" width="133.25" height="576" rx="8" fill="white"/>
</clipPath>
<clipPath id="clip6_1241_29278">
<rect x="871.5" width="133.25" height="576" rx="8" fill="white"/>
</clipPath>
<clipPath id="clip7_1241_29278">
<rect x="1016.75" width="133.25" height="576" rx="8" fill="white"/>
</clipPath>
</defs>
</svg>
