<svg width="362" height="265" viewBox="0 0 362 265" fill="none" xmlns="http://www.w3.org/2000/svg">
<rect width="362" height="265" rx="16" fill="#1A1A1A"/>
<g clip-path="url(#clip0_1241_30576)">
<g clip-path="url(#clip1_1241_30576)">
<path d="M68.3739 50.2102C68.3284 49.7519 68.1333 49.3958 67.7886 49.142C67.4439 48.8883 66.9761 48.7614 66.3852 48.7614C65.9837 48.7614 65.6447 48.8182 65.3682 48.9318C65.0917 49.0417 64.8795 49.1951 64.7318 49.392C64.5879 49.589 64.5159 49.8125 64.5159 50.0625C64.5083 50.2708 64.5519 50.4527 64.6466 50.608C64.7451 50.7633 64.8795 50.8977 65.05 51.0114C65.2205 51.1212 65.4174 51.2178 65.6409 51.3011C65.8644 51.3807 66.103 51.4489 66.3568 51.5057L67.4023 51.7557C67.9098 51.8693 68.3758 52.0208 68.8 52.2102C69.2242 52.3996 69.5917 52.6326 69.9023 52.9091C70.2129 53.1856 70.4534 53.5114 70.6239 53.8864C70.7981 54.2614 70.8871 54.6913 70.8909 55.1761C70.8871 55.8883 70.7053 56.5057 70.3455 57.0284C69.9894 57.5473 69.4742 57.9508 68.8 58.2386C68.1295 58.5227 67.3208 58.6648 66.3739 58.6648C65.4345 58.6648 64.6163 58.5208 63.9193 58.233C63.2261 57.9451 62.6845 57.5189 62.2943 56.9545C61.908 56.3864 61.7053 55.6837 61.6864 54.8466H64.067C64.0936 55.2367 64.2053 55.5625 64.4023 55.8239C64.603 56.0814 64.8701 56.2765 65.2034 56.4091C65.5405 56.5379 65.9212 56.6023 66.3455 56.6023C66.7621 56.6023 67.1239 56.5417 67.4307 56.4205C67.7413 56.2992 67.9818 56.1307 68.1523 55.9148C68.3227 55.6989 68.408 55.4508 68.408 55.1705C68.408 54.9091 68.3303 54.6894 68.175 54.5114C68.0235 54.3333 67.8 54.1818 67.5045 54.0568C67.2129 53.9318 66.8549 53.8182 66.4307 53.7159L65.1636 53.3977C64.1826 53.1591 63.408 52.786 62.8398 52.2784C62.2716 51.7708 61.9894 51.0871 61.9932 50.2273C61.9894 49.5227 62.1769 48.9072 62.5557 48.3807C62.9383 47.8542 63.4629 47.4432 64.1295 47.1477C64.7962 46.8523 65.5538 46.7045 66.4023 46.7045C67.2659 46.7045 68.0197 46.8523 68.6636 47.1477C69.3114 47.4432 69.8152 47.8542 70.175 48.3807C70.5348 48.9072 70.7205 49.517 70.7318 50.2102H68.3739ZM72.7426 48.892V46.8636H82.2994V48.892H78.7369V58.5H76.3051V48.892H72.7426ZM84.5132 58.5V46.8636H89.1041C89.9829 46.8636 90.7329 47.0208 91.3541 47.3352C91.9791 47.6458 92.4545 48.0871 92.7803 48.6591C93.1098 49.2273 93.2746 49.8958 93.2746 50.6648C93.2746 51.4375 93.1079 52.1023 92.7746 52.6591C92.4413 53.2121 91.9583 53.6364 91.3257 53.9318C90.697 54.2273 89.9356 54.375 89.0416 54.375H85.9678V52.3977H88.6439C89.1136 52.3977 89.5038 52.3333 89.8144 52.2045C90.125 52.0758 90.356 51.8826 90.5076 51.625C90.6629 51.3674 90.7405 51.0473 90.7405 50.6648C90.7405 50.2784 90.6629 49.9527 90.5076 49.6875C90.356 49.4223 90.1231 49.2216 89.8087 49.0852C89.4981 48.9451 89.106 48.875 88.6326 48.875H86.9735V58.5H84.5132ZM90.7973 53.2045L93.6894 58.5H90.9735L88.1439 53.2045H90.7973ZM106.346 52.6818C106.346 53.9508 106.106 55.0303 105.625 55.9205C105.148 56.8106 104.496 57.4905 103.67 57.9602C102.848 58.4261 101.924 58.6591 100.898 58.6591C99.8635 58.6591 98.9354 58.4242 98.1135 57.9545C97.2915 57.4848 96.6419 56.8049 96.1646 55.9148C95.6873 55.0246 95.4487 53.947 95.4487 52.6818C95.4487 51.4129 95.6873 50.3333 96.1646 49.4432C96.6419 48.553 97.2915 47.875 98.1135 47.4091C98.9354 46.9394 99.8635 46.7045 100.898 46.7045C101.924 46.7045 102.848 46.9394 103.67 47.4091C104.496 47.875 105.148 48.553 105.625 49.4432C106.106 50.3333 106.346 51.4129 106.346 52.6818ZM103.852 52.6818C103.852 51.8598 103.729 51.1667 103.483 50.6023C103.24 50.0379 102.898 49.6098 102.454 49.3182C102.011 49.0265 101.492 48.8807 100.898 48.8807C100.303 48.8807 99.7839 49.0265 99.3407 49.3182C98.8976 49.6098 98.5529 50.0379 98.3066 50.6023C98.0642 51.1667 97.943 51.8598 97.943 52.6818C97.943 53.5038 98.0642 54.197 98.3066 54.7614C98.5529 55.3258 98.8976 55.7538 99.3407 56.0455C99.7839 56.3371 100.303 56.483 100.898 56.483C101.492 56.483 102.011 56.3371 102.454 56.0455C102.898 55.7538 103.24 55.3258 103.483 54.7614C103.729 54.197 103.852 53.5038 103.852 52.6818ZM118.542 46.8636V58.5H116.417L111.354 51.1761H111.269V58.5H108.809V46.8636H110.968L115.991 54.1818H116.093V46.8636H118.542ZM128.93 50.625C128.851 50.3485 128.739 50.1042 128.595 49.892C128.451 49.6761 128.275 49.4943 128.067 49.3466C127.862 49.1951 127.627 49.0795 127.362 49C127.101 48.9205 126.811 48.8807 126.493 48.8807C125.898 48.8807 125.375 49.0284 124.925 49.3239C124.478 49.6193 124.129 50.0492 123.879 50.6136C123.629 51.1742 123.504 51.8598 123.504 52.6705C123.504 53.4811 123.627 54.1705 123.874 54.7386C124.12 55.3068 124.468 55.7405 124.919 56.0398C125.37 56.3352 125.902 56.483 126.516 56.483C127.072 56.483 127.548 56.3845 127.942 56.1875C128.339 55.9867 128.643 55.7045 128.851 55.3409C129.063 54.9773 129.169 54.5473 129.169 54.0511L129.669 54.125H126.669V52.2727H131.538V53.7386C131.538 54.7614 131.322 55.6402 130.891 56.375C130.459 57.1061 129.864 57.6705 129.107 58.0682C128.349 58.4621 127.482 58.6591 126.504 58.6591C125.413 58.6591 124.455 58.4186 123.629 57.9375C122.804 57.4527 122.16 56.7652 121.697 55.875C121.239 54.9811 121.01 53.9205 121.01 52.6932C121.01 51.75 121.146 50.9091 121.419 50.1705C121.696 49.428 122.082 48.7992 122.578 48.2841C123.074 47.7689 123.652 47.3769 124.311 47.108C124.97 46.839 125.684 46.7045 126.453 46.7045C127.112 46.7045 127.726 46.8011 128.294 46.9943C128.862 47.1837 129.366 47.4527 129.805 47.8011C130.249 48.1496 130.61 48.5644 130.891 49.0455C131.171 49.5227 131.351 50.0492 131.43 50.625H128.93ZM138.858 52.6818C138.858 51.2727 139.046 49.9754 139.421 48.7898C139.799 47.6042 140.377 46.5057 141.154 45.4943H143.466C143.171 45.8693 142.896 46.3277 142.642 46.8693C142.388 47.4072 142.167 47.9981 141.977 48.642C141.788 49.286 141.64 49.9527 141.534 50.642C141.428 51.3277 141.375 52.0076 141.375 52.6818C141.375 53.5795 141.466 54.4867 141.648 55.4034C141.834 56.3163 142.084 57.1648 142.398 57.9489C142.716 58.733 143.072 59.375 143.466 59.875H141.154C140.377 58.8636 139.799 57.7652 139.421 56.5795C139.046 55.3939 138.858 54.0947 138.858 52.6818ZM149.698 46.6705C150.297 46.6705 150.873 46.7708 151.426 46.9716C151.982 47.1686 152.479 47.4886 152.914 47.9318C153.354 48.375 153.7 48.9621 153.954 49.6932C154.212 50.4205 154.342 51.3163 154.346 52.3807C154.342 53.3693 154.229 54.2519 154.005 55.0284C153.786 55.8011 153.469 56.4583 153.056 57C152.643 57.5417 152.145 57.9545 151.562 58.2386C150.982 58.5189 150.333 58.6591 149.613 58.6591C148.837 58.6591 148.151 58.5095 147.556 58.2102C146.962 57.9072 146.482 57.4962 146.119 56.9773C145.759 56.4545 145.541 55.8674 145.465 55.2159H147.892C147.986 55.6402 148.185 55.9697 148.488 56.2045C148.791 56.4356 149.166 56.5511 149.613 56.5511C150.371 56.5511 150.947 56.2216 151.34 55.5625C151.734 54.8996 151.933 53.9924 151.937 52.8409H151.857C151.683 53.1818 151.448 53.4754 151.153 53.7216C150.857 53.964 150.518 54.1515 150.136 54.2841C149.757 54.4167 149.354 54.483 148.926 54.483C148.24 54.483 147.626 54.322 147.085 54C146.547 53.678 146.123 53.2348 145.812 52.6705C145.501 52.1023 145.348 51.4545 145.352 50.7273C145.348 49.9394 145.528 49.2405 145.892 48.6307C146.255 48.017 146.763 47.536 147.414 47.1875C148.07 46.839 148.831 46.6667 149.698 46.6705ZM149.715 48.6023C149.333 48.6023 148.992 48.6932 148.693 48.875C148.397 49.0568 148.162 49.303 147.988 49.6136C147.818 49.9242 147.734 50.2727 147.738 50.6591C147.734 51.0455 147.816 51.392 147.982 51.6989C148.153 52.0057 148.386 52.25 148.681 52.4318C148.977 52.6098 149.314 52.6989 149.693 52.6989C149.977 52.6989 150.238 52.6458 150.477 52.5398C150.719 52.4337 150.929 52.2879 151.107 52.1023C151.289 51.9129 151.431 51.6951 151.534 51.4489C151.636 51.1989 151.689 50.9318 151.693 50.6477C151.689 50.2727 151.602 49.9299 151.431 49.6193C151.261 49.3087 151.026 49.0625 150.727 48.8807C150.428 48.6951 150.09 48.6023 149.715 48.6023ZM161.253 58.7557C160.276 58.7519 159.435 58.5114 158.73 58.0341C158.03 57.5568 157.49 56.8655 157.111 55.9602C156.736 55.0549 156.551 53.9659 156.554 52.6932C156.554 51.4242 156.742 50.3428 157.117 49.4489C157.496 48.5549 158.035 47.875 158.736 47.4091C159.441 46.9394 160.28 46.7045 161.253 46.7045C162.227 46.7045 163.064 46.9394 163.765 47.4091C164.469 47.8788 165.011 48.5606 165.39 49.4545C165.768 50.3447 165.956 51.4242 165.952 52.6932C165.952 53.9697 165.763 55.0606 165.384 55.9659C165.009 56.8712 164.471 57.5625 163.77 58.0398C163.069 58.517 162.23 58.7557 161.253 58.7557ZM161.253 56.7159C161.92 56.7159 162.452 56.3807 162.85 55.7102C163.247 55.0398 163.444 54.0341 163.441 52.6932C163.441 51.8106 163.35 51.0758 163.168 50.4886C162.99 49.9015 162.736 49.4602 162.407 49.1648C162.081 48.8693 161.696 48.7216 161.253 48.7216C160.59 48.7216 160.06 49.053 159.662 49.7159C159.265 50.3788 159.064 51.3712 159.06 52.6932C159.06 53.5871 159.149 54.3333 159.327 54.9318C159.509 55.5265 159.765 55.9735 160.094 56.2727C160.424 56.5682 160.81 56.7159 161.253 56.7159ZM172.449 52.6818C172.449 54.0947 172.259 55.3939 171.88 56.5795C171.505 57.7652 170.93 58.8636 170.153 59.875H167.841C168.136 59.5 168.411 59.0417 168.664 58.5C168.918 57.9583 169.14 57.3674 169.329 56.7273C169.519 56.0833 169.666 55.4167 169.772 54.7273C169.879 54.0379 169.932 53.3561 169.932 52.6818C169.932 51.7841 169.839 50.8788 169.653 49.9659C169.471 49.0492 169.221 48.2008 168.903 47.4205C168.589 46.6364 168.235 45.9943 167.841 45.4943H170.153C170.93 46.5057 171.505 47.6042 171.88 48.7898C172.259 49.9754 172.449 51.2727 172.449 52.6818Z" fill="white" fill-opacity="0.95"/>
<path d="M62.4054 98.5H58.2804V86.8636H62.4395C63.61 86.8636 64.6175 87.0966 65.4622 87.5625C66.3069 88.0246 66.9566 88.6894 67.4111 89.5568C67.8694 90.4242 68.0986 91.4621 68.0986 92.6705C68.0986 93.8826 67.8694 94.9242 67.4111 95.7955C66.9566 96.6667 66.3032 97.3352 65.4509 97.8011C64.6024 98.267 63.5872 98.5 62.4054 98.5ZM60.7407 96.392H62.3032C63.0304 96.392 63.6422 96.2633 64.1384 96.0057C64.6384 95.7443 65.0134 95.3409 65.2634 94.7955C65.5172 94.2462 65.6441 93.5379 65.6441 92.6705C65.6441 91.8106 65.5172 91.108 65.2634 90.5625C65.0134 90.017 64.6403 89.6155 64.1441 89.358C63.6479 89.1004 63.0361 88.9716 62.3088 88.9716H60.7407V96.392ZM70.5611 98.5V86.8636H78.402V88.892H73.0213V91.6648H77.9986V93.6932H73.0213V96.4716H78.4247V98.5H70.5611ZM80.9979 98.5V86.8636H88.7025V88.892H83.4582V91.6648H88.1911V93.6932H83.4582V98.5H80.9979ZM91.5499 98.5H88.9135L92.9305 86.8636H96.101L100.112 98.5H97.476L94.5612 89.5227H94.4703L91.5499 98.5ZM91.3851 93.9261H97.6124V95.8466H91.3851V93.9261ZM109.34 86.8636H111.801V94.4205C111.801 95.2689 111.598 96.0114 111.193 96.6477C110.791 97.2841 110.229 97.7803 109.505 98.1364C108.782 98.4886 107.939 98.6648 106.977 98.6648C106.011 98.6648 105.166 98.4886 104.443 98.1364C103.719 97.7803 103.157 97.2841 102.755 96.6477C102.354 96.0114 102.153 95.2689 102.153 94.4205V86.8636H104.613V94.2102C104.613 94.6534 104.71 95.0473 104.903 95.392C105.1 95.7367 105.376 96.0076 105.732 96.2045C106.089 96.4015 106.503 96.5 106.977 96.5C107.454 96.5 107.869 96.4015 108.221 96.2045C108.577 96.0076 108.852 95.7367 109.045 95.392C109.242 95.0473 109.34 94.6534 109.34 94.2102V86.8636ZM114.465 98.5V86.8636H116.925V96.4716H121.914V98.5H114.465ZM122.287 88.892V86.8636H131.843V88.892H128.281V98.5H125.849V88.892H122.287ZM138.889 92.6818C138.889 91.2727 139.077 89.9754 139.452 88.7898C139.83 87.6042 140.408 86.5057 141.185 85.4943H143.497C143.202 85.8693 142.927 86.3277 142.673 86.8693C142.419 87.4072 142.198 87.9981 142.008 88.642C141.819 89.286 141.671 89.9527 141.565 90.642C141.459 91.3277 141.406 92.0076 141.406 92.6818C141.406 93.5795 141.497 94.4867 141.679 95.4034C141.864 96.3163 142.114 97.1648 142.429 97.9489C142.747 98.733 143.103 99.375 143.497 99.875H141.185C140.408 98.8636 139.83 97.7652 139.452 96.5795C139.077 95.3939 138.889 94.0947 138.889 92.6818ZM149.769 98.6591C148.966 98.6591 148.25 98.5114 147.621 98.2159C146.996 97.9205 146.5 97.5133 146.133 96.9943C145.765 96.4754 145.574 95.8807 145.559 95.2102H147.945C147.972 95.661 148.161 96.0265 148.513 96.3068C148.866 96.5871 149.284 96.7273 149.769 96.7273C150.155 96.7273 150.496 96.642 150.792 96.4716C151.091 96.2973 151.324 96.0568 151.491 95.75C151.661 95.4394 151.746 95.0833 151.746 94.6818C151.746 94.2727 151.659 93.9129 151.485 93.6023C151.315 93.2917 151.078 93.0492 150.775 92.875C150.472 92.7008 150.125 92.6117 149.735 92.608C149.394 92.608 149.063 92.678 148.741 92.8182C148.423 92.9583 148.174 93.1496 147.996 93.392L145.809 93L146.36 86.8636H153.474V88.875H148.388L148.087 91.7898H148.155C148.36 91.5019 148.669 91.2633 149.082 91.0739C149.495 90.8845 149.957 90.7898 150.468 90.7898C151.169 90.7898 151.794 90.9545 152.343 91.2841C152.892 91.6136 153.326 92.0663 153.644 92.642C153.962 93.214 154.12 93.8731 154.116 94.6193C154.12 95.4034 153.938 96.1004 153.57 96.7102C153.207 97.3163 152.697 97.7936 152.042 98.142C151.39 98.4867 150.633 98.6591 149.769 98.6591ZM161.034 98.7557C160.057 98.7519 159.216 98.5114 158.511 98.0341C157.811 97.5568 157.271 96.8655 156.892 95.9602C156.517 95.0549 156.331 93.9659 156.335 92.6932C156.335 91.4242 156.523 90.3428 156.898 89.4489C157.277 88.5549 157.816 87.875 158.517 87.4091C159.222 86.9394 160.061 86.7045 161.034 86.7045C162.008 86.7045 162.845 86.9394 163.545 87.4091C164.25 87.8788 164.792 88.5606 165.17 89.4545C165.549 90.3447 165.737 91.4242 165.733 92.6932C165.733 93.9697 165.544 95.0606 165.165 95.9659C164.79 96.8712 164.252 97.5625 163.551 98.0398C162.85 98.517 162.011 98.7557 161.034 98.7557ZM161.034 96.7159C161.701 96.7159 162.233 96.3807 162.631 95.7102C163.028 95.0398 163.225 94.0341 163.222 92.6932C163.222 91.8106 163.131 91.0758 162.949 90.4886C162.771 89.9015 162.517 89.4602 162.188 89.1648C161.862 88.8693 161.477 88.7216 161.034 88.7216C160.371 88.7216 159.841 89.053 159.443 89.7159C159.045 90.3788 158.845 91.3712 158.841 92.6932C158.841 93.5871 158.93 94.3333 159.108 94.9318C159.29 95.5265 159.545 95.9735 159.875 96.2727C160.205 96.5682 160.591 96.7159 161.034 96.7159ZM172.23 92.6818C172.23 94.0947 172.04 95.3939 171.661 96.5795C171.286 97.7652 170.711 98.8636 169.934 99.875H167.622C167.917 99.5 168.192 99.0417 168.445 98.5C168.699 97.9583 168.921 97.3674 169.11 96.7273C169.3 96.0833 169.447 95.4167 169.553 94.7273C169.659 94.0379 169.712 93.3561 169.712 92.6818C169.712 91.7841 169.62 90.8788 169.434 89.9659C169.252 89.0492 169.002 88.2008 168.684 87.4205C168.37 86.6364 168.016 85.9943 167.622 85.4943H169.934C170.711 86.5057 171.286 87.6042 171.661 88.7898C172.04 89.9754 172.23 91.2727 172.23 92.6818Z" fill="white" fill-opacity="0.95"/>
<path d="M38.2807 126.864H41.3148L44.5194 134.682H44.6557L47.8603 126.864H50.8944V138.5H48.508V130.926H48.4114L45.4001 138.443H43.7751L40.7637 130.898H40.6671V138.5H38.2807V126.864ZM64.2545 132.682C64.2545 133.951 64.014 135.03 63.533 135.92C63.0557 136.811 62.4042 137.491 61.5784 137.96C60.7564 138.426 59.8322 138.659 58.8057 138.659C57.7716 138.659 56.8436 138.424 56.0216 137.955C55.1996 137.485 54.55 136.805 54.0727 135.915C53.5955 135.025 53.3568 133.947 53.3568 132.682C53.3568 131.413 53.5955 130.333 54.0727 129.443C54.55 128.553 55.1996 127.875 56.0216 127.409C56.8436 126.939 57.7716 126.705 58.8057 126.705C59.8322 126.705 60.7564 126.939 61.5784 127.409C62.4042 127.875 63.0557 128.553 63.533 129.443C64.014 130.333 64.2545 131.413 64.2545 132.682ZM61.7602 132.682C61.7602 131.86 61.6371 131.167 61.3909 130.602C61.1485 130.038 60.8057 129.61 60.3625 129.318C59.9193 129.027 59.4004 128.881 58.8057 128.881C58.211 128.881 57.692 129.027 57.2489 129.318C56.8057 129.61 56.461 130.038 56.2148 130.602C55.9724 131.167 55.8511 131.86 55.8511 132.682C55.8511 133.504 55.9724 134.197 56.2148 134.761C56.461 135.326 56.8057 135.754 57.2489 136.045C57.692 136.337 58.211 136.483 58.8057 136.483C59.4004 136.483 59.9193 136.337 60.3625 136.045C60.8057 135.754 61.1485 135.326 61.3909 134.761C61.6371 134.197 61.7602 133.504 61.7602 132.682ZM70.842 138.5H66.717V126.864H70.8761C72.0465 126.864 73.0541 127.097 73.8988 127.562C74.7435 128.025 75.3931 128.689 75.8477 129.557C76.306 130.424 76.5352 131.462 76.5352 132.67C76.5352 133.883 76.306 134.924 75.8477 135.795C75.3931 136.667 74.7397 137.335 73.8874 137.801C73.039 138.267 72.0238 138.5 70.842 138.5ZM69.1772 136.392H70.7397C71.467 136.392 72.0787 136.263 72.5749 136.006C73.0749 135.744 73.4499 135.341 73.6999 134.795C73.9537 134.246 74.0806 133.538 74.0806 132.67C74.0806 131.811 73.9537 131.108 73.6999 130.562C73.4499 130.017 73.0768 129.616 72.5806 129.358C72.0844 129.1 71.4727 128.972 70.7454 128.972H69.1772V136.392ZM78.9976 138.5V126.864H86.8385V128.892H81.4578V131.665H86.4351V133.693H81.4578V136.472H86.8613V138.5H78.9976ZM89.4345 138.5V126.864H94.0254C94.9042 126.864 95.6542 127.021 96.2754 127.335C96.9004 127.646 97.3758 128.087 97.7015 128.659C98.0311 129.227 98.1959 129.896 98.1959 130.665C98.1959 131.437 98.0292 132.102 97.6959 132.659C97.3625 133.212 96.8796 133.636 96.247 133.932C95.6182 134.227 94.8568 134.375 93.9629 134.375H90.889V132.398H93.5652C94.0349 132.398 94.425 132.333 94.7356 132.205C95.0462 132.076 95.2773 131.883 95.4288 131.625C95.5841 131.367 95.6618 131.047 95.6618 130.665C95.6618 130.278 95.5841 129.953 95.4288 129.688C95.2773 129.422 95.0443 129.222 94.7299 129.085C94.4193 128.945 94.0273 128.875 93.5538 128.875H91.8947V138.5H89.4345ZM95.7186 133.205L98.6106 138.5H95.8947L93.0652 133.205H95.7186ZM102.58 138.5H99.9438L103.961 126.864H107.131L111.143 138.5H108.506L105.592 129.523H105.501L102.58 138.5ZM102.415 133.926H108.643V135.847H102.415V133.926ZM111.318 128.892V126.864H120.875V128.892H117.312V138.5H114.881V128.892H111.318ZM123.089 138.5V126.864H130.93V128.892H125.549V131.665H130.526V133.693H125.549V136.472H130.953V138.5H123.089ZM138.358 132.682C138.358 131.273 138.545 129.975 138.92 128.79C139.299 127.604 139.876 126.506 140.653 125.494H142.965C142.67 125.869 142.395 126.328 142.142 126.869C141.888 127.407 141.666 127.998 141.477 128.642C141.287 129.286 141.14 129.953 141.034 130.642C140.928 131.328 140.875 132.008 140.875 132.682C140.875 133.58 140.965 134.487 141.147 135.403C141.333 136.316 141.583 137.165 141.897 137.949C142.215 138.733 142.572 139.375 142.965 139.875H140.653C139.876 138.864 139.299 137.765 138.92 136.58C138.545 135.394 138.358 134.095 138.358 132.682ZM144.811 136.455V134.517L149.669 126.864H151.34V129.545H150.351L147.289 134.392V134.483H154.192V136.455H144.811ZM150.397 138.5V135.864L150.442 135.006V126.864H152.749V138.5H150.397ZM161.034 138.756C160.057 138.752 159.216 138.511 158.511 138.034C157.81 137.557 157.271 136.866 156.892 135.96C156.517 135.055 156.331 133.966 156.335 132.693C156.335 131.424 156.522 130.343 156.897 129.449C157.276 128.555 157.816 127.875 158.517 127.409C159.221 126.939 160.06 126.705 161.034 126.705C162.007 126.705 162.844 126.939 163.545 127.409C164.25 127.879 164.791 128.561 165.17 129.455C165.549 130.345 165.736 131.424 165.733 132.693C165.733 133.97 165.543 135.061 165.164 135.966C164.789 136.871 164.252 137.562 163.551 138.04C162.85 138.517 162.011 138.756 161.034 138.756ZM161.034 136.716C161.7 136.716 162.233 136.381 162.63 135.71C163.028 135.04 163.225 134.034 163.221 132.693C163.221 131.811 163.13 131.076 162.949 130.489C162.771 129.902 162.517 129.46 162.187 129.165C161.861 128.869 161.477 128.722 161.034 128.722C160.371 128.722 159.841 129.053 159.443 129.716C159.045 130.379 158.844 131.371 158.841 132.693C158.841 133.587 158.93 134.333 159.108 134.932C159.289 135.527 159.545 135.973 159.875 136.273C160.204 136.568 160.591 136.716 161.034 136.716ZM172.229 132.682C172.229 134.095 172.04 135.394 171.661 136.58C171.286 137.765 170.71 138.864 169.934 139.875H167.621C167.917 139.5 168.191 139.042 168.445 138.5C168.699 137.958 168.92 137.367 169.11 136.727C169.299 136.083 169.447 135.417 169.553 134.727C169.659 134.038 169.712 133.356 169.712 132.682C169.712 131.784 169.619 130.879 169.434 129.966C169.252 129.049 169.002 128.201 168.684 127.42C168.369 126.636 168.015 125.994 167.621 125.494H169.934C170.71 126.506 171.286 127.604 171.661 128.79C172.04 129.975 172.229 131.273 172.229 132.682Z" fill="white" fill-opacity="0.95"/>
<path d="M73.7957 170.21C73.7503 169.752 73.5552 169.396 73.2105 169.142C72.8658 168.888 72.398 168.761 71.8071 168.761C71.4056 168.761 71.0666 168.818 70.7901 168.932C70.5135 169.042 70.3014 169.195 70.1537 169.392C70.0098 169.589 69.9378 169.812 69.9378 170.062C69.9302 170.271 69.9738 170.453 70.0685 170.608C70.167 170.763 70.3014 170.898 70.4719 171.011C70.6423 171.121 70.8393 171.218 71.0628 171.301C71.2863 171.381 71.5249 171.449 71.7787 171.506L72.8241 171.756C73.3317 171.869 73.7976 172.021 74.2219 172.21C74.6461 172.4 75.0135 172.633 75.3241 172.909C75.6348 173.186 75.8753 173.511 76.0457 173.886C76.22 174.261 76.309 174.691 76.3128 175.176C76.309 175.888 76.1272 176.506 75.7673 177.028C75.4113 177.547 74.8961 177.951 74.2219 178.239C73.5514 178.523 72.7427 178.665 71.7957 178.665C70.8563 178.665 70.0382 178.521 69.3412 178.233C68.648 177.945 68.1063 177.519 67.7162 176.955C67.3298 176.386 67.1272 175.684 67.1082 174.847H69.4889C69.5154 175.237 69.6272 175.562 69.8241 175.824C70.0249 176.081 70.292 176.277 70.6253 176.409C70.9624 176.538 71.3431 176.602 71.7673 176.602C72.184 176.602 72.5457 176.542 72.8526 176.42C73.1632 176.299 73.4037 176.131 73.5741 175.915C73.7446 175.699 73.8298 175.451 73.8298 175.17C73.8298 174.909 73.7522 174.689 73.5969 174.511C73.4454 174.333 73.2219 174.182 72.9264 174.057C72.6348 173.932 72.2768 173.818 71.8526 173.716L70.5855 173.398C69.6045 173.159 68.8298 172.786 68.2616 172.278C67.6935 171.771 67.4113 171.087 67.4151 170.227C67.4113 169.523 67.5988 168.907 67.9776 168.381C68.3601 167.854 68.8848 167.443 69.5514 167.148C70.2181 166.852 70.9757 166.705 71.8241 166.705C72.6878 166.705 73.4416 166.852 74.0855 167.148C74.7332 167.443 75.237 167.854 75.5969 168.381C75.9567 168.907 76.1423 169.517 76.1537 170.21H73.7957ZM85.7951 166.864H88.2553V174.42C88.2553 175.269 88.0527 176.011 87.6474 176.648C87.2459 177.284 86.6834 177.78 85.9599 178.136C85.2364 178.489 84.3936 178.665 83.4315 178.665C82.4656 178.665 81.6209 178.489 80.8974 178.136C80.1739 177.78 79.6114 177.284 79.2099 176.648C78.8084 176.011 78.6076 175.269 78.6076 174.42V166.864H81.0678V174.21C81.0678 174.653 81.1644 175.047 81.3576 175.392C81.5546 175.737 81.8311 176.008 82.1872 176.205C82.5432 176.402 82.958 176.5 83.4315 176.5C83.9087 176.5 84.3235 176.402 84.6758 176.205C85.0319 176.008 85.3065 175.737 85.4997 175.392C85.6966 175.047 85.7951 174.653 85.7951 174.21V166.864ZM90.9195 178.5V166.864H95.5786C96.4346 166.864 97.1487 166.991 97.7206 167.244C98.2926 167.498 98.7225 167.85 99.0104 168.301C99.2983 168.748 99.4422 169.263 99.4422 169.847C99.4422 170.301 99.3513 170.701 99.1695 171.045C98.9877 171.386 98.7377 171.667 98.4195 171.886C98.1051 172.102 97.7452 172.256 97.3399 172.347V172.46C97.7831 172.479 98.1979 172.604 98.5843 172.835C98.9744 173.066 99.2907 173.39 99.5331 173.807C99.7755 174.22 99.8968 174.712 99.8968 175.284C99.8968 175.902 99.7434 176.453 99.4365 176.938C99.1335 177.419 98.6846 177.799 98.0899 178.08C97.4952 178.36 96.7623 178.5 95.8911 178.5H90.9195ZM93.3797 176.489H95.3854C96.071 176.489 96.571 176.358 96.8854 176.097C97.1998 175.831 97.357 175.479 97.357 175.04C97.357 174.718 97.2793 174.434 97.124 174.188C96.9687 173.941 96.7471 173.748 96.4593 173.608C96.1752 173.468 95.8362 173.398 95.4422 173.398H93.3797V176.489ZM93.3797 171.733H95.2036C95.5407 171.733 95.8399 171.674 96.1013 171.557C96.3665 171.436 96.5748 171.265 96.7263 171.045C96.8816 170.826 96.9593 170.562 96.9593 170.256C96.9593 169.835 96.8096 169.496 96.5104 169.239C96.2149 168.981 95.7945 168.852 95.249 168.852H93.3797V171.733ZM101.694 168.892V166.864H111.251V168.892H107.689V178.5H105.257V168.892H101.694ZM113.465 178.5V166.864H115.925V176.472H120.914V178.5H113.465ZM123.183 178.5V166.864H131.024V168.892H125.643V171.665H130.621V173.693H125.643V176.472H131.047V178.5H123.183ZM138.452 172.682C138.452 171.273 138.639 169.975 139.014 168.79C139.393 167.604 139.971 166.506 140.747 165.494H143.06C142.764 165.869 142.49 166.328 142.236 166.869C141.982 167.407 141.761 167.998 141.571 168.642C141.382 169.286 141.234 169.953 141.128 170.642C141.022 171.328 140.969 172.008 140.969 172.682C140.969 173.58 141.06 174.487 141.242 175.403C141.427 176.316 141.677 177.165 141.992 177.949C142.31 178.733 142.666 179.375 143.06 179.875H140.747C139.971 178.864 139.393 177.765 139.014 176.58C138.639 175.394 138.452 174.095 138.452 172.682ZM149.383 178.659C148.535 178.659 147.779 178.513 147.116 178.222C146.457 177.926 145.936 177.521 145.554 177.006C145.175 176.487 144.98 175.888 144.968 175.21H147.446C147.461 175.494 147.554 175.744 147.724 175.96C147.898 176.172 148.129 176.337 148.417 176.455C148.705 176.572 149.029 176.631 149.389 176.631C149.764 176.631 150.095 176.564 150.383 176.432C150.671 176.299 150.896 176.116 151.059 175.881C151.222 175.646 151.304 175.375 151.304 175.068C151.304 174.758 151.216 174.483 151.042 174.244C150.872 174.002 150.625 173.812 150.304 173.676C149.985 173.54 149.607 173.472 149.167 173.472H148.082V171.665H149.167C149.538 171.665 149.866 171.6 150.15 171.472C150.438 171.343 150.661 171.165 150.821 170.938C150.98 170.706 151.059 170.438 151.059 170.131C151.059 169.839 150.989 169.583 150.849 169.364C150.713 169.14 150.519 168.966 150.269 168.841C150.023 168.716 149.735 168.653 149.406 168.653C149.072 168.653 148.768 168.714 148.491 168.835C148.215 168.953 147.993 169.121 147.826 169.341C147.66 169.561 147.571 169.818 147.559 170.114H145.201C145.213 169.443 145.404 168.852 145.775 168.341C146.146 167.83 146.646 167.43 147.275 167.142C147.908 166.85 148.622 166.705 149.417 166.705C150.22 166.705 150.923 166.85 151.525 167.142C152.127 167.434 152.595 167.828 152.929 168.324C153.266 168.816 153.432 169.369 153.429 169.983C153.432 170.634 153.23 171.178 152.821 171.614C152.415 172.049 151.887 172.326 151.235 172.443V172.534C152.091 172.644 152.743 172.941 153.19 173.426C153.641 173.907 153.864 174.509 153.86 175.233C153.864 175.896 153.673 176.485 153.286 177C152.904 177.515 152.375 177.92 151.701 178.216C151.027 178.511 150.254 178.659 149.383 178.659ZM160.831 178.756C159.854 178.752 159.013 178.511 158.309 178.034C157.608 177.557 157.068 176.866 156.689 175.96C156.314 175.055 156.129 173.966 156.132 172.693C156.132 171.424 156.32 170.343 156.695 169.449C157.074 168.555 157.614 167.875 158.314 167.409C159.019 166.939 159.858 166.705 160.831 166.705C161.805 166.705 162.642 166.939 163.343 167.409C164.047 167.879 164.589 168.561 164.968 169.455C165.346 170.345 165.534 171.424 165.53 172.693C165.53 173.97 165.341 175.061 164.962 175.966C164.587 176.871 164.049 177.562 163.348 178.04C162.648 178.517 161.809 178.756 160.831 178.756ZM160.831 176.716C161.498 176.716 162.03 176.381 162.428 175.71C162.826 175.04 163.023 174.034 163.019 172.693C163.019 171.811 162.928 171.076 162.746 170.489C162.568 169.902 162.314 169.46 161.985 169.165C161.659 168.869 161.274 168.722 160.831 168.722C160.168 168.722 159.638 169.053 159.24 169.716C158.843 170.379 158.642 171.371 158.638 172.693C158.638 173.587 158.727 174.333 158.905 174.932C159.087 175.527 159.343 175.973 159.672 176.273C160.002 176.568 160.388 176.716 160.831 176.716ZM172.027 172.682C172.027 174.095 171.837 175.394 171.459 176.58C171.084 177.765 170.508 178.864 169.731 179.875H167.419C167.714 179.5 167.989 179.042 168.243 178.5C168.496 177.958 168.718 177.367 168.907 176.727C169.097 176.083 169.245 175.417 169.351 174.727C169.457 174.038 169.51 173.356 169.51 172.682C169.51 171.784 169.417 170.879 169.231 169.966C169.049 169.049 168.799 168.201 168.481 167.42C168.167 166.636 167.813 165.994 167.419 165.494H169.731C170.508 166.506 171.084 167.604 171.459 168.79C171.837 169.975 172.027 171.273 172.027 172.682Z" fill="white" fill-opacity="0.95"/>
<path d="M84.9379 218.5L81.6083 206.864H84.2958L86.222 214.949H86.3186L88.4436 206.864H90.7447L92.864 214.966H92.9663L94.8924 206.864H97.5799L94.2504 218.5H91.8526L89.6367 210.892H89.5458L87.3356 218.5H84.9379ZM99.5367 218.5V206.864H107.378V208.892H101.997V211.665H106.974V213.693H101.997V216.472H107.4V218.5H99.5367ZM111.979 218.5H109.343L113.36 206.864H116.53L120.542 218.5H117.905L114.991 209.523H114.9L111.979 218.5ZM111.814 213.926H118.042V215.847H111.814V213.926ZM122.582 218.5V206.864H125.043V211.994H125.196L129.383 206.864H132.332L128.014 212.074L132.383 218.5H129.44L126.253 213.716L125.043 215.193V218.5H122.582ZM139.085 212.682C139.085 211.273 139.273 209.975 139.648 208.79C140.027 207.604 140.604 206.506 141.381 205.494H143.693C143.398 205.869 143.123 206.328 142.869 206.869C142.616 207.407 142.394 207.998 142.205 208.642C142.015 209.286 141.868 209.953 141.761 210.642C141.655 211.328 141.602 212.008 141.602 212.682C141.602 213.58 141.693 214.487 141.875 215.403C142.061 216.316 142.311 217.165 142.625 217.949C142.943 218.733 143.299 219.375 143.693 219.875H141.381C140.604 218.864 140.027 217.765 139.648 216.58C139.273 215.394 139.085 214.095 139.085 212.682ZM145.715 218.5V216.727L149.857 212.892C150.21 212.551 150.505 212.244 150.744 211.972C150.986 211.699 151.17 211.432 151.295 211.17C151.42 210.905 151.482 210.619 151.482 210.312C151.482 209.972 151.405 209.678 151.249 209.432C151.094 209.182 150.882 208.991 150.613 208.858C150.344 208.722 150.039 208.653 149.698 208.653C149.342 208.653 149.032 208.725 148.767 208.869C148.501 209.013 148.297 209.22 148.153 209.489C148.009 209.758 147.937 210.078 147.937 210.449H145.602C145.602 209.687 145.774 209.027 146.119 208.466C146.463 207.905 146.946 207.472 147.568 207.165C148.189 206.858 148.905 206.705 149.715 206.705C150.549 206.705 151.274 206.852 151.892 207.148C152.513 207.439 152.996 207.845 153.34 208.364C153.685 208.883 153.857 209.477 153.857 210.148C153.857 210.587 153.77 211.021 153.596 211.449C153.426 211.877 153.121 212.352 152.681 212.875C152.242 213.394 151.623 214.017 150.823 214.744L149.124 216.409V216.489H154.011V218.5H145.715ZM160.996 218.756C160.019 218.752 159.178 218.511 158.473 218.034C157.773 217.557 157.233 216.866 156.854 215.96C156.479 215.055 156.293 213.966 156.297 212.693C156.297 211.424 156.485 210.343 156.86 209.449C157.238 208.555 157.778 207.875 158.479 207.409C159.183 206.939 160.023 206.705 160.996 206.705C161.969 206.705 162.807 206.939 163.507 207.409C164.212 207.879 164.754 208.561 165.132 209.455C165.511 210.345 165.699 211.424 165.695 212.693C165.695 213.97 165.505 215.061 165.127 215.966C164.752 216.871 164.214 217.562 163.513 218.04C162.812 218.517 161.973 218.756 160.996 218.756ZM160.996 216.716C161.663 216.716 162.195 216.381 162.593 215.71C162.99 215.04 163.187 214.034 163.183 212.693C163.183 211.811 163.093 211.076 162.911 210.489C162.733 209.902 162.479 209.46 162.149 209.165C161.824 208.869 161.439 208.722 160.996 208.722C160.333 208.722 159.803 209.053 159.405 209.716C159.007 210.379 158.807 211.371 158.803 212.693C158.803 213.587 158.892 214.333 159.07 214.932C159.252 215.527 159.507 215.973 159.837 216.273C160.166 216.568 160.553 216.716 160.996 216.716ZM172.191 212.682C172.191 214.095 172.002 215.394 171.623 216.58C171.248 217.765 170.672 218.864 169.896 219.875H167.583C167.879 219.5 168.154 219.042 168.407 218.5C168.661 217.958 168.883 217.367 169.072 216.727C169.261 216.083 169.409 215.417 169.515 214.727C169.621 214.038 169.674 213.356 169.674 212.682C169.674 211.784 169.582 210.879 169.396 209.966C169.214 209.049 168.964 208.201 168.646 207.42C168.332 206.636 167.977 205.994 167.583 205.494H169.896C170.672 206.506 171.248 207.604 171.623 208.79C172.002 209.975 172.191 211.273 172.191 212.682Z" fill="white" fill-opacity="0.95"/>
</g>
<line x1="194" y1="52" x2="394" y2="52" stroke="white" stroke-opacity="0.9"/>
<line x1="194" y1="92" x2="394" y2="92" stroke="white" stroke-opacity="0.5"/>
<line x1="194" y1="132" x2="394" y2="132" stroke="white" stroke-opacity="0.4"/>
<line x1="194" y1="172" x2="394" y2="172" stroke="white" stroke-opacity="0.3"/>
<line x1="194" y1="212" x2="394" y2="212" stroke="white" stroke-opacity="0.2"/>
</g>
<defs>
<clipPath id="clip0_1241_30576">
<rect width="288" height="184" fill="white" transform="translate(37 40.5)"/>
</clipPath>
<clipPath id="clip1_1241_30576">
<rect width="137" height="184" fill="white" transform="translate(37 40.5)"/>
</clipPath>
</defs>
</svg>
