<svg width="559" height="179" viewBox="0 0 559 179" fill="none" xmlns="http://www.w3.org/2000/svg">
<rect width="559" height="179" rx="16" fill="#1A1A1A"/>
<path fill-rule="evenodd" clip-rule="evenodd" d="M227.283 38.8891C228.728 37.4439 230.688 36.632 232.732 36.632H342.198C344.242 36.632 346.202 37.4439 347.648 38.8891C349.093 40.3343 349.905 42.2944 349.905 44.3383V121.96C349.905 126.265 346.435 129.666 342.696 129.666C342.006 129.666 341.446 130.226 341.446 130.916C341.446 131.606 342.006 132.166 342.696 132.166C347.913 132.166 352.405 127.547 352.405 121.96V44.3383C352.405 41.6314 351.329 39.0354 349.415 37.1213C347.501 35.2073 344.905 34.132 342.198 34.132H232.732C230.025 34.132 227.429 35.2073 225.515 37.1213C223.601 39.0354 222.526 41.6314 222.526 44.3383V46.0874C218.71 46.2731 215.057 47.76 212.188 50.3215C208.999 53.1694 207.019 57.1297 206.656 61.3904C206.293 65.651 207.574 69.8891 210.236 73.2356C212.898 76.5822 216.739 78.7835 220.972 79.3882C225.205 79.9929 229.509 78.9552 233.002 76.4879C236.494 74.0206 238.91 70.3106 239.755 66.1188C240.599 61.9269 239.808 57.5708 237.543 53.9437C235.279 50.3166 231.712 47.6934 227.575 46.6119C226.907 46.4373 226.224 46.8373 226.049 47.5052C225.875 48.1731 226.275 48.8561 226.943 49.0307C230.462 49.9506 233.496 52.1822 235.423 55.2678C237.349 58.3533 238.022 62.0591 237.304 65.6251C236.586 69.1911 234.53 72.3471 231.559 74.4461C228.588 76.545 224.927 77.4278 221.326 76.9133C217.725 76.3989 214.457 74.5262 212.192 71.6794C209.928 68.8325 208.838 65.2272 209.147 61.6026C209.456 57.9781 211.14 54.6091 213.853 52.1864C216.567 49.7637 220.104 48.471 223.741 48.5732C224.078 48.5827 224.405 48.4553 224.647 48.2199C224.889 47.9846 225.026 47.6613 225.026 47.3237V44.3383C225.026 42.2944 225.838 40.3343 227.283 38.8891ZM225.027 82.6517C225.027 81.9613 224.467 81.4017 223.777 81.4017C223.087 81.4017 222.527 81.9613 222.527 82.6517V121.96C222.527 127.547 227.019 132.166 232.236 132.166C232.926 132.166 233.486 131.607 233.486 130.916C233.486 130.226 232.926 129.666 232.236 129.666C228.496 129.666 225.027 126.265 225.027 121.96V82.6517ZM231.659 57.4382C231.974 57.4239 232.286 57.4948 232.564 57.6433C232.841 57.7919 233.073 58.0127 233.236 58.2822C233.398 58.5516 233.485 58.86 233.486 59.1749L233.486 59.1814L233.486 67.1824L233.486 67.1854C233.485 67.5115 233.393 67.8308 233.221 68.1072C233.048 68.3836 232.801 68.6063 232.508 68.75C232.216 68.8937 231.889 68.9525 231.564 68.92C231.24 68.8875 230.931 68.7649 230.673 68.5659L230.672 68.5652L229.006 67.2805C228.977 69.0454 227.538 70.4672 225.766 70.4672H217.805C216.015 70.4672 214.565 69.0165 214.565 67.2269V59.2657C214.565 57.4762 216.015 56.0254 217.805 56.0254H225.766C227.441 56.0254 228.818 57.2955 228.989 58.9248L230.768 57.7305L230.777 57.7244L230.777 57.7244C231.04 57.5513 231.345 57.4524 231.659 57.4382ZM230.986 60.5951L229.008 61.9227V64.1248L230.986 65.6506V60.5951ZM217.065 59.2657C217.065 58.8569 217.396 58.5254 217.805 58.5254H225.766C226.175 58.5254 226.507 58.8569 226.507 59.2657V67.2269C226.507 67.6357 226.175 67.9672 225.766 67.9672H217.805C217.396 67.9672 217.065 67.6357 217.065 67.2269V59.2657Z" fill="url(#paint0_linear_1241_30515)"/>
<path d="M257.61 128.926V135.827C257.609 136.494 257.477 137.155 257.219 137.77C256.961 138.386 256.584 138.944 256.109 139.413C255.635 139.882 255.072 140.252 254.453 140.501C253.834 140.751 253.172 140.875 252.505 140.868C247.131 140.798 243.708 136.389 243.678 132.459C243.673 132.101 243.793 131.754 244.018 131.476C244.242 131.198 244.557 131.007 244.907 130.936C245.124 130.897 245.347 130.907 245.559 130.964C245.772 131.021 245.97 131.125 246.138 131.268C246.305 131.41 246.44 131.589 246.531 131.789C246.622 131.99 246.667 132.208 246.663 132.429V142.878C246.663 143.406 246.454 143.912 246.08 144.285C245.707 144.658 245.201 144.868 244.673 144.868H239.697C238.642 144.868 237.629 144.449 236.883 143.702C236.136 142.956 235.717 141.943 235.717 140.887V120.984C235.717 119.929 236.136 118.916 236.883 118.17C237.629 117.423 238.642 117.004 239.697 117.004H263.581C264.637 117.004 265.649 117.423 266.396 118.17C267.142 118.916 267.562 119.929 267.562 120.984V140.887C267.562 141.943 267.142 142.956 266.396 143.702C265.649 144.449 264.637 144.868 263.581 144.868H253.629" stroke="#279BE8" stroke-width="2.5" stroke-linecap="round" stroke-linejoin="round"/>
<path d="M257.612 128.926C257.612 127.87 257.192 126.858 256.446 126.111C255.699 125.365 254.687 124.946 253.631 124.946C250.148 124.946 250.148 128.926 246.665 128.926" stroke="#279BE7" stroke-width="2.5" stroke-linecap="round" stroke-linejoin="round"/>
<path d="M253.63 130.418L254.626 133.403C255.123 134.896 254.128 134.896 253.63 134.896H253.133" stroke="#279BE7" stroke-width="2.5" stroke-linecap="round" stroke-linejoin="round"/>
<path d="M251.143 122.955C247.66 122.955 247.66 126.936 244.177 126.936" stroke="#279BE7" stroke-width="2.5" stroke-linecap="round" stroke-linejoin="round"/>
<path d="M281.495 128.926V135.827C281.496 136.494 281.628 137.155 281.886 137.77C282.144 138.386 282.521 138.944 282.995 139.413C283.47 139.882 284.033 140.252 284.652 140.501C285.271 140.751 285.933 140.875 286.6 140.868C291.974 140.798 295.397 136.389 295.427 132.459C295.432 132.101 295.312 131.754 295.087 131.476C294.863 131.198 294.548 131.007 294.198 130.936C293.981 130.897 293.758 130.907 293.546 130.964C293.333 131.021 293.135 131.125 292.967 131.268C292.8 131.41 292.665 131.589 292.574 131.789C292.483 131.99 292.438 132.208 292.442 132.429V142.878C292.442 143.406 292.651 143.912 293.025 144.285C293.398 144.658 293.904 144.868 294.432 144.868H299.408C300.463 144.868 301.476 144.449 302.222 143.702C302.969 142.956 303.388 141.943 303.388 140.887V120.984C303.388 119.929 302.969 118.916 302.222 118.17C301.476 117.423 300.463 117.004 299.408 117.004H275.524C274.468 117.004 273.456 117.423 272.709 118.17C271.963 118.916 271.543 119.929 271.543 120.984V140.887C271.543 141.943 271.963 142.956 272.709 143.702C273.456 144.449 274.468 144.868 275.524 144.868H285.476" stroke="#279BE7" stroke-width="2.5" stroke-linecap="round" stroke-linejoin="round"/>
<path d="M281.495 128.926C281.495 127.87 281.914 126.858 282.661 126.111C283.408 125.365 284.42 124.946 285.476 124.946C288.959 124.946 288.959 128.926 292.442 128.926" stroke="#279BE7" stroke-width="2.5" stroke-linecap="round" stroke-linejoin="round"/>
<path d="M285.475 130.418L284.48 133.403C283.982 134.896 284.977 134.896 285.475 134.896H285.973" stroke="#279BE7" stroke-width="2.5" stroke-linecap="round" stroke-linejoin="round"/>
<path d="M281.495 122.955C281.495 122.955 281.993 120.964 285.476 120.964H290.451C291.243 120.964 292.003 121.279 292.562 121.839C293.122 122.399 293.437 123.158 293.437 123.95C294.229 123.95 294.988 124.264 295.548 124.824C296.108 125.384 296.422 126.143 296.422 126.935V128.926" stroke="#279BE7" stroke-width="2.5" stroke-linecap="round" stroke-linejoin="round"/>
<path d="M327.271 130.916L328.266 133.902C328.764 135.394 327.769 135.394 327.271 135.394H326.773" stroke="#279BE7" stroke-width="2.5" stroke-linecap="round" stroke-linejoin="round"/>
<path d="M327.769 127.931H323.291C322.763 127.931 322.256 128.141 321.883 128.514C321.51 128.887 321.3 129.393 321.3 129.921V135.743C321.285 137.026 321.755 138.268 322.615 139.22C323.476 140.172 324.664 140.764 325.943 140.878C326.623 140.924 327.307 140.829 327.949 140.599C328.592 140.37 329.181 140.011 329.679 139.544C330.176 139.077 330.573 138.513 330.844 137.887C331.114 137.26 331.253 136.585 331.252 135.902V129.15C331.252 124.866 327.958 121.189 323.674 120.975C322.596 120.923 321.52 121.091 320.509 121.467C319.499 121.844 318.575 122.422 317.795 123.167C317.015 123.911 316.394 124.807 315.97 125.798C315.546 126.79 315.328 127.858 315.329 128.936V142.868C315.329 143.396 315.12 143.902 314.746 144.276C314.373 144.649 313.867 144.859 313.339 144.859H311.349C310.293 144.859 309.281 144.439 308.534 143.693C307.788 142.946 307.368 141.934 307.368 140.878V120.975C307.368 119.919 307.788 118.907 308.534 118.16C309.281 117.414 310.293 116.994 311.349 116.994H335.232C336.288 116.994 337.3 117.414 338.047 118.16C338.794 118.907 339.213 119.919 339.213 120.975V140.878C339.213 141.934 338.794 142.946 338.047 143.693C337.3 144.439 336.288 144.859 335.232 144.859H326.774" stroke="#279BE7" stroke-width="2.5" stroke-linecap="round" stroke-linejoin="round"/>
<path d="M297.417 68.2213L299.407 74.1922C300.402 77.1776 299.407 78.1728 297.417 78.1728H296.421" stroke="url(#paint1_linear_1241_30515)" stroke-width="2.5" stroke-linecap="round" stroke-linejoin="round"/>
<path d="M291.446 71.2073C291.995 71.2073 292.441 70.7618 292.441 70.2122C292.441 69.6626 291.995 69.217 291.446 69.217C290.896 69.217 290.451 69.6626 290.451 70.2122C290.451 70.7618 290.896 71.2073 291.446 71.2073Z" fill="#87C063"/>
<path d="M277.514 65.2372C277.514 65.2372 283.485 64.2421 283.485 55.2858C289.11 60.9303 296.53 64.4341 304.463 65.1925C304.713 65.2125 304.946 65.3261 305.115 65.5106C305.285 65.6951 305.379 65.9369 305.378 66.1876V81.075C305.371 84.2336 304.125 87.2633 301.907 89.513C299.69 91.7627 296.679 93.0529 293.521 93.1064C281.634 93.1661 271.702 80.3933 271.543 71.4271C271.512 70.658 271.769 69.9049 272.264 69.3157C272.759 68.7265 273.457 68.3437 274.22 68.2426C274.637 68.1992 275.059 68.2443 275.458 68.3748C275.856 68.5053 276.223 68.7183 276.534 69C276.844 69.2816 277.092 69.6256 277.261 70.0095C277.43 70.3934 277.516 70.8086 277.514 71.228V91.131C277.514 97.1019 275.524 97.1019 269.553 99.0922L263.582 101.082C257.611 103.073 249.65 105.561 249.65 113.522" stroke="url(#paint2_linear_1241_30515)" stroke-width="2.5" stroke-linecap="round" stroke-linejoin="round"/>
<path d="M274.031 91.1106H267.563C267.035 91.1106 266.528 90.901 266.155 90.5277C265.782 90.1544 265.572 89.6482 265.572 89.1203V63.2465C265.572 58.4958 267.46 53.9396 270.819 50.5804C274.178 47.2211 278.734 45.3339 283.485 45.3339H289.456C299.905 45.3339 307.368 51.3047 307.368 62.2514" stroke="url(#paint3_linear_1241_30515)" stroke-width="2.5" stroke-linecap="round" stroke-linejoin="round"/>
<path d="M276.021 100.564C276.816 103.213 278.505 105.503 280.801 107.045C283.096 108.587 285.855 109.284 288.608 109.018C291.36 108.752 293.935 107.539 295.892 105.586C297.85 103.634 299.069 101.062 299.342 98.3103C299.361 98.1644 299.412 98.0245 299.491 97.9007C299.571 97.7769 299.677 97.6722 299.801 97.5941C299.926 97.5161 300.066 97.4667 300.212 97.4494C300.358 97.4321 300.506 97.4474 300.646 97.4942L311.349 101.062C317.32 103.052 325.281 105.54 325.281 113.501" stroke="url(#paint4_linear_1241_30515)" stroke-width="2.5" stroke-linecap="round" stroke-linejoin="round"/>
<defs>
<linearGradient id="paint0_linear_1241_30515" x1="279.5" y1="34.132" x2="279.5" y2="132.166" gradientUnits="userSpaceOnUse">
<stop stop-color="#93C437"/>
<stop offset="1" stop-color="#279BE8"/>
</linearGradient>
<linearGradient id="paint1_linear_1241_30515" x1="298.109" y1="68.2213" x2="298.109" y2="78.1728" gradientUnits="userSpaceOnUse">
<stop stop-color="#82BD7C"/>
<stop offset="1" stop-color="#78BAA2"/>
</linearGradient>
<linearGradient id="paint2_linear_1241_30515" x1="277.514" y1="55.2858" x2="277.514" y2="113.522" gradientUnits="userSpaceOnUse">
<stop stop-color="#92C437"/>
<stop offset="1" stop-color="#64B4FA"/>
</linearGradient>
<linearGradient id="paint3_linear_1241_30515" x1="286.47" y1="45.3339" x2="286.47" y2="91.1106" gradientUnits="userSpaceOnUse">
<stop stop-color="#8FC248"/>
<stop offset="1" stop-color="#71B8C0"/>
</linearGradient>
<linearGradient id="paint4_linear_1241_30515" x1="300.651" y1="97.4425" x2="300.651" y2="113.501" gradientUnits="userSpaceOnUse">
<stop stop-color="#74B9B3"/>
<stop offset="1" stop-color="#64B4FA"/>
</linearGradient>
</defs>
</svg>
