<svg width="42" height="42" viewBox="0 0 42 42" fill="none" xmlns="http://www.w3.org/2000/svg">
<path d="M23.6228 33.1387L12.6977 33.1406C12.4537 31.9456 11.7747 30.8836 10.7923 30.1607C9.80991 29.4378 8.59408 29.1055 7.38054 29.2281C6.167 29.3507 5.0422 29.9195 4.22422 30.8243C3.40624 31.729 2.95335 32.9053 2.95335 34.125C2.95335 35.3447 3.40624 36.521 4.22422 37.4258C5.0422 38.3306 6.167 38.8994 7.38054 39.022C8.59408 39.1446 9.80991 38.8122 10.7923 38.0893C11.7747 37.3664 12.4537 36.3045 12.6977 35.1094L23.6228 35.107C23.8839 35.107 24.1342 35.0033 24.3188 34.8187C24.5034 34.6341 24.6072 34.3837 24.6072 34.1227C24.6072 33.8616 24.5034 33.6112 24.3188 33.4266C24.1342 33.242 23.8839 33.1387 23.6228 33.1387ZM7.87501 37.0781C7.29094 37.0781 6.71998 36.9049 6.23434 36.5804C5.7487 36.256 5.37019 35.7947 5.14668 35.2551C4.92316 34.7155 4.86468 34.1217 4.97863 33.5489C5.09258 32.976 5.37383 32.4498 5.78684 32.0368C6.19984 31.6238 6.72603 31.3426 7.29888 31.2286C7.87173 31.1147 8.46551 31.1732 9.00512 31.3967C9.54474 31.6202 10.006 31.9987 10.3304 32.4843C10.6549 32.97 10.8281 33.5409 10.8281 34.125C10.8272 34.9079 10.5158 35.6585 9.96215 36.2122C9.40854 36.7658 8.65794 37.0772 7.87501 37.0781Z" fill="#A87FF0"/>
<path d="M18.375 8.85742L29.3001 8.85978C29.5441 10.0549 30.2231 11.1168 31.2055 11.8397C32.1879 12.5626 33.4037 12.895 34.6173 12.7724C35.8308 12.6498 36.9556 12.0809 37.7736 11.1762C38.5915 10.2714 39.0444 9.09512 39.0444 7.87541C39.0444 6.65569 38.5915 5.47942 37.7736 4.57465C36.9556 3.66987 35.8308 3.10105 34.6173 2.97846C33.4037 2.85586 32.1879 3.18824 31.2055 3.91114C30.2231 4.63403 29.5441 5.69596 29.3001 6.89103L18.375 6.88867C18.1139 6.88867 17.8636 6.99238 17.679 7.17699C17.4943 7.36159 17.3906 7.61197 17.3906 7.87304C17.3906 8.13412 17.4943 8.3845 17.679 8.5691C17.8636 8.75371 18.1139 8.85742 18.375 8.85742ZM34.1228 4.92189C34.7069 4.92189 35.2778 5.09509 35.7634 5.41958C36.2491 5.74407 36.6276 6.20529 36.8511 6.7449C37.0746 7.28451 37.1331 7.87829 37.0192 8.45114C36.9052 9.02399 36.624 9.55019 36.211 9.96319C35.798 10.3762 35.2718 10.6574 34.6989 10.7714C34.1261 10.8853 33.5323 10.8269 32.9927 10.6033C32.4531 10.3798 31.9918 10.0013 31.6673 9.51568C31.3428 9.03004 31.1697 8.45909 31.1697 7.87501C31.1706 7.09209 31.4821 6.34152 32.0357 5.78791C32.5893 5.23431 33.3399 4.92286 34.1228 4.92189Z" fill="#A87FF0"/>
<path d="M35.1086 29.3109L35.1116 18.3859C35.1116 18.1248 35.0079 17.8745 34.8233 17.6898C34.6387 17.5052 34.3883 17.4015 34.1272 17.4015C33.8662 17.4015 33.6158 17.5052 33.4312 17.6898C33.2466 17.8745 33.1429 18.1248 33.1429 18.3859L33.1398 29.311C31.9446 29.555 30.8824 30.2341 30.1594 31.2166C29.4363 32.1992 29.1039 33.4152 29.2265 34.629C29.3491 35.8427 29.918 36.9677 30.8229 37.7858C31.7278 38.604 32.9043 39.0569 34.1242 39.0569C35.3441 39.0569 36.5206 38.604 37.4255 37.7858C38.3305 36.9677 38.8994 35.8427 39.022 34.629C39.1446 33.4152 38.8121 32.1992 38.0891 31.2166C37.366 30.2341 36.3039 29.5548 35.1086 29.3109ZM34.125 37.0864C33.5409 37.0864 32.97 36.9132 32.4843 36.5887C31.9987 36.2642 31.6202 35.803 31.3967 35.2634C31.1732 34.7238 31.1147 34.13 31.2286 33.5572C31.3426 32.9843 31.6238 32.4581 32.0368 32.0451C32.4498 31.6321 32.976 31.3508 33.5489 31.2369C34.1217 31.123 34.7155 31.1814 35.2551 31.4049C35.7947 31.6285 36.2559 32.007 36.5804 32.4926C36.9049 32.9783 37.0781 33.5492 37.0781 34.1333C37.0772 34.9162 36.7657 35.6668 36.2121 36.2204C35.6585 36.774 34.9079 37.0854 34.125 37.0864Z" fill="#A87FF0"/>
<path d="M6.88985 12.708L6.89287 23.6333C6.89287 23.8944 6.99658 24.1447 7.18118 24.3293C7.36579 24.5139 7.61617 24.6177 7.87724 24.6177C8.13831 24.6177 8.38869 24.5139 8.5733 24.3293C8.75791 24.1447 8.86162 23.8944 8.86162 23.6333L8.8586 12.7082C10.0535 12.4642 11.1152 11.7853 11.8379 10.8031C12.5607 9.8208 12.893 8.60517 12.7704 7.39184C12.6478 6.17851 12.0791 5.05392 11.1744 4.23609C10.2698 3.41826 9.09373 2.96545 7.87422 2.96545C6.65472 2.96545 5.47865 3.41826 4.57402 4.23609C3.66939 5.05392 3.10066 6.17851 2.97806 7.39184C2.85547 8.60517 3.18776 9.8208 3.91051 10.8031C4.63326 11.7853 5.69499 12.4641 6.88985 12.708ZM7.87501 4.93278C8.45908 4.93278 9.03004 5.10598 9.51568 5.43047C10.0013 5.75497 10.3798 6.21618 10.6033 6.7558C10.8269 7.29541 10.8853 7.88918 10.7714 8.46203C10.6574 9.03488 10.3762 9.56108 9.96319 9.97408C9.55018 10.3871 9.02399 10.6683 8.45114 10.7823C7.87829 10.8962 7.28451 10.8378 6.7449 10.6142C6.20529 10.3907 5.74407 10.0122 5.41958 9.52658C5.09508 9.04094 4.92189 8.46998 4.92189 7.88591C4.92282 7.10298 5.23426 6.35238 5.78787 5.79877C6.34149 5.24515 7.09208 4.93372 7.87501 4.93278Z" fill="#A87FF0"/>
</svg>
