<svg width="1150" height="252" viewBox="0 0 1150 252" fill="none" xmlns="http://www.w3.org/2000/svg">
<rect width="1150" height="252" rx="16" fill="#1A1A1A"/>
<g opacity="0.8">
<rect x="201" y="60" width="748" height="72" rx="36" fill="#932099"/>
<path d="M259.03 108.364C257.393 108.364 255.984 107.977 254.803 107.205C253.621 106.432 252.712 105.367 252.075 104.011C251.439 102.655 251.121 101.106 251.121 99.3636C251.121 97.5909 251.446 96.0265 252.098 94.6705C252.757 93.3068 253.674 92.2424 254.848 91.4773C256.03 90.7045 257.409 90.3182 258.984 90.3182C260.212 90.3182 261.318 90.5455 262.303 91C263.287 91.4545 264.094 92.0909 264.723 92.9091C265.352 93.7273 265.742 94.6818 265.893 95.7727H263.212C263.007 94.9773 262.553 94.2727 261.848 93.6591C261.151 93.0379 260.212 92.7273 259.03 92.7273C257.984 92.7273 257.068 93 256.28 93.5455C255.5 94.0833 254.89 94.8447 254.45 95.8295C254.018 96.8068 253.803 97.9545 253.803 99.2727C253.803 100.621 254.015 101.795 254.439 102.795C254.871 103.795 255.477 104.572 256.257 105.125C257.045 105.678 257.969 105.955 259.03 105.955C259.727 105.955 260.359 105.833 260.928 105.591C261.496 105.348 261.977 105 262.371 104.545C262.765 104.091 263.045 103.545 263.212 102.909H265.893C265.742 103.939 265.367 104.867 264.768 105.693C264.178 106.511 263.393 107.163 262.416 107.648C261.446 108.125 260.318 108.364 259.03 108.364ZM276.905 108.364C275.329 108.364 273.946 107.989 272.757 107.239C271.575 106.489 270.651 105.439 269.984 104.091C269.325 102.742 268.996 101.167 268.996 99.3636C268.996 97.5455 269.325 95.9583 269.984 94.6023C270.651 93.2462 271.575 92.1932 272.757 91.4432C273.946 90.6932 275.329 90.3182 276.905 90.3182C278.481 90.3182 279.859 90.6932 281.041 91.4432C282.231 92.1932 283.155 93.2462 283.814 94.6023C284.481 95.9583 284.814 97.5455 284.814 99.3636C284.814 101.167 284.481 102.742 283.814 104.091C283.155 105.439 282.231 106.489 281.041 107.239C279.859 107.989 278.481 108.364 276.905 108.364ZM276.905 105.955C278.102 105.955 279.087 105.648 279.859 105.034C280.632 104.42 281.204 103.614 281.575 102.614C281.946 101.614 282.132 100.53 282.132 99.3636C282.132 98.197 281.946 97.1098 281.575 96.1023C281.204 95.0947 280.632 94.2803 279.859 93.6591C279.087 93.0379 278.102 92.7273 276.905 92.7273C275.708 92.7273 274.723 93.0379 273.95 93.6591C273.178 94.2803 272.606 95.0947 272.234 96.1023C271.863 97.1098 271.678 98.197 271.678 99.3636C271.678 100.53 271.863 101.614 272.234 102.614C272.606 103.614 273.178 104.42 273.95 105.034C274.723 105.648 275.708 105.955 276.905 105.955ZM291.589 84.7273V108H288.908V84.7273H291.589ZM303.592 108.364C302.017 108.364 300.634 107.989 299.445 107.239C298.263 106.489 297.339 105.439 296.672 104.091C296.013 102.742 295.683 101.167 295.683 99.3636C295.683 97.5455 296.013 95.9583 296.672 94.6023C297.339 93.2462 298.263 92.1932 299.445 91.4432C300.634 90.6932 302.017 90.3182 303.592 90.3182C305.168 90.3182 306.547 90.6932 307.729 91.4432C308.918 92.1932 309.842 93.2462 310.501 94.6023C311.168 95.9583 311.501 97.5455 311.501 99.3636C311.501 101.167 311.168 102.742 310.501 104.091C309.842 105.439 308.918 106.489 307.729 107.239C306.547 107.989 305.168 108.364 303.592 108.364ZM303.592 105.955C304.789 105.955 305.774 105.648 306.547 105.034C307.32 104.42 307.892 103.614 308.263 102.614C308.634 101.614 308.82 100.53 308.82 99.3636C308.82 98.197 308.634 97.1098 308.263 96.1023C307.892 95.0947 307.32 94.2803 306.547 93.6591C305.774 93.0379 304.789 92.7273 303.592 92.7273C302.395 92.7273 301.411 93.0379 300.638 93.6591C299.865 94.2803 299.293 95.0947 298.922 96.1023C298.551 97.1098 298.365 98.197 298.365 99.3636C298.365 100.53 298.551 101.614 298.922 102.614C299.293 103.614 299.865 104.42 300.638 105.034C301.411 105.648 302.395 105.955 303.592 105.955ZM315.595 108V90.5455H318.186V93.1818H318.368C318.686 92.3182 319.262 91.6174 320.095 91.0795C320.929 90.5417 321.868 90.2727 322.913 90.2727C323.11 90.2727 323.357 90.2765 323.652 90.2841C323.947 90.2917 324.171 90.303 324.322 90.3182V93.0455C324.232 93.0227 324.023 92.9886 323.697 92.9432C323.379 92.8902 323.042 92.8636 322.686 92.8636C321.838 92.8636 321.08 93.0417 320.413 93.3977C319.754 93.7462 319.232 94.2311 318.845 94.8523C318.466 95.4659 318.277 96.1667 318.277 96.9545V108H315.595ZM327.456 108.182C326.895 108.182 326.414 107.981 326.013 107.58C325.611 107.178 325.411 106.697 325.411 106.136C325.411 105.576 325.611 105.095 326.013 104.693C326.414 104.292 326.895 104.091 327.456 104.091C328.017 104.091 328.498 104.292 328.899 104.693C329.301 105.095 329.501 105.576 329.501 106.136C329.501 106.508 329.407 106.848 329.217 107.159C329.036 107.47 328.789 107.72 328.479 107.909C328.176 108.091 327.835 108.182 327.456 108.182ZM341.905 90.5455V92.8182H332.859V90.5455H341.905ZM335.496 86.3636H338.178V103C338.178 103.758 338.287 104.326 338.507 104.705C338.734 105.076 339.022 105.326 339.371 105.455C339.727 105.576 340.102 105.636 340.496 105.636C340.791 105.636 341.034 105.621 341.223 105.591C341.412 105.553 341.564 105.523 341.678 105.5L342.223 107.909C342.041 107.977 341.787 108.045 341.462 108.114C341.136 108.189 340.723 108.227 340.223 108.227C339.465 108.227 338.723 108.064 337.996 107.739C337.276 107.413 336.678 106.917 336.2 106.25C335.731 105.583 335.496 104.742 335.496 103.727V86.3636ZM348.996 97.5V108H346.314V84.7273H348.996V93.2727H349.223C349.632 92.3712 350.246 91.6553 351.064 91.125C351.89 90.5871 352.988 90.3182 354.359 90.3182C355.549 90.3182 356.59 90.5568 357.484 91.0341C358.378 91.5038 359.071 92.2273 359.564 93.2045C360.064 94.1742 360.314 95.4091 360.314 96.9091V108H357.632V97.0909C357.632 95.7045 357.272 94.6326 356.553 93.875C355.84 93.1098 354.852 92.7273 353.587 92.7273C352.708 92.7273 351.92 92.9129 351.223 93.2841C350.534 93.6553 349.988 94.197 349.587 94.9091C349.193 95.6212 348.996 96.4848 348.996 97.5ZM372.538 108.364C370.857 108.364 369.406 107.992 368.186 107.25C366.974 106.5 366.038 105.455 365.379 104.114C364.728 102.765 364.402 101.197 364.402 99.4091C364.402 97.6212 364.728 96.0455 365.379 94.6818C366.038 93.3106 366.955 92.2424 368.129 91.4773C369.311 90.7045 370.69 90.3182 372.266 90.3182C373.175 90.3182 374.072 90.4697 374.959 90.7727C375.845 91.0758 376.652 91.5682 377.379 92.25C378.107 92.9242 378.686 93.8182 379.118 94.9318C379.55 96.0455 379.766 97.4167 379.766 99.0455V100.182H366.311V97.8636H377.038C377.038 96.8788 376.841 96 376.447 95.2273C376.061 94.4545 375.508 93.8447 374.788 93.3977C374.076 92.9508 373.235 92.7273 372.266 92.7273C371.197 92.7273 370.273 92.9924 369.493 93.5227C368.72 94.0455 368.125 94.7273 367.709 95.5682C367.292 96.4091 367.084 97.3106 367.084 98.2727V99.8182C367.084 101.136 367.311 102.254 367.766 103.17C368.228 104.08 368.868 104.773 369.686 105.25C370.504 105.72 371.455 105.955 372.538 105.955C373.243 105.955 373.879 105.856 374.447 105.659C375.023 105.455 375.519 105.152 375.936 104.75C376.353 104.341 376.675 103.833 376.902 103.227L379.493 103.955C379.22 104.833 378.762 105.606 378.118 106.273C377.474 106.932 376.679 107.447 375.732 107.818C374.785 108.182 373.72 108.364 372.538 108.364ZM383.845 108V90.5455H386.436V93.2727H386.663C387.027 92.3409 387.614 91.6174 388.425 91.1023C389.235 90.5795 390.209 90.3182 391.345 90.3182C392.497 90.3182 393.455 90.5795 394.22 91.1023C394.993 91.6174 395.595 92.3409 396.027 93.2727H396.209C396.656 92.3712 397.326 91.6553 398.22 91.125C399.114 90.5871 400.186 90.3182 401.436 90.3182C402.997 90.3182 404.273 90.8068 405.266 91.7841C406.258 92.7538 406.754 94.2652 406.754 96.3182V108H404.072V96.3182C404.072 95.0303 403.72 94.1098 403.016 93.5568C402.311 93.0038 401.482 92.7273 400.527 92.7273C399.3 92.7273 398.349 93.0985 397.675 93.8409C397 94.5758 396.663 95.5076 396.663 96.6364V108H393.936V96.0455C393.936 95.053 393.614 94.2538 392.97 93.6477C392.326 93.0341 391.497 92.7273 390.482 92.7273C389.785 92.7273 389.133 92.9129 388.527 93.2841C387.929 93.6553 387.444 94.1705 387.072 94.8295C386.709 95.4811 386.527 96.2348 386.527 97.0909V108H383.845ZM418.976 108.364C417.294 108.364 415.843 107.992 414.624 107.25C413.411 106.5 412.476 105.455 411.817 104.114C411.165 102.765 410.839 101.197 410.839 99.4091C410.839 97.6212 411.165 96.0455 411.817 94.6818C412.476 93.3106 413.393 92.2424 414.567 91.4773C415.749 90.7045 417.127 90.3182 418.703 90.3182C419.612 90.3182 420.51 90.4697 421.396 90.7727C422.283 91.0758 423.089 91.5682 423.817 92.25C424.544 92.9242 425.124 93.8182 425.555 94.9318C425.987 96.0455 426.203 97.4167 426.203 99.0455V100.182H412.749V97.8636H423.476C423.476 96.8788 423.279 96 422.885 95.2273C422.499 94.4545 421.946 93.8447 421.226 93.3977C420.514 92.9508 419.673 92.7273 418.703 92.7273C417.635 92.7273 416.711 92.9924 415.93 93.5227C415.158 94.0455 414.563 94.7273 414.146 95.5682C413.73 96.4091 413.521 97.3106 413.521 98.2727V99.8182C413.521 101.136 413.749 102.254 414.203 103.17C414.665 104.08 415.305 104.773 416.124 105.25C416.942 105.72 417.893 105.955 418.976 105.955C419.68 105.955 420.317 105.856 420.885 105.659C421.461 105.455 421.957 105.152 422.374 104.75C422.79 104.341 423.112 103.833 423.339 103.227L425.93 103.955C425.658 104.833 425.199 105.606 424.555 106.273C423.911 106.932 423.116 107.447 422.169 107.818C421.222 108.182 420.158 108.364 418.976 108.364ZM432.237 108.182C431.677 108.182 431.196 107.981 430.794 107.58C430.393 107.178 430.192 106.697 430.192 106.136C430.192 105.576 430.393 105.095 430.794 104.693C431.196 104.292 431.677 104.091 432.237 104.091C432.798 104.091 433.279 104.292 433.68 104.693C434.082 105.095 434.283 105.576 434.283 106.136C434.283 106.508 434.188 106.848 433.999 107.159C433.817 107.47 433.571 107.72 433.26 107.909C432.957 108.091 432.616 108.182 432.237 108.182Z" fill="white" fill-opacity="0.7"/>
<path d="M441.777 97.5V108H439.095V90.5455H441.686V93.2727H441.913C442.322 92.3864 442.944 91.6742 443.777 91.1364C444.61 90.5909 445.686 90.3182 447.004 90.3182C448.186 90.3182 449.22 90.5606 450.107 91.0455C450.993 91.5227 451.682 92.25 452.175 93.2273C452.667 94.197 452.913 95.4242 452.913 96.9091V108H450.232V97.0909C450.232 95.7197 449.875 94.6515 449.163 93.8864C448.451 93.1136 447.474 92.7273 446.232 92.7273C445.375 92.7273 444.61 92.9129 443.936 93.2841C443.269 93.6553 442.743 94.197 442.357 94.9091C441.97 95.6212 441.777 96.4848 441.777 97.5ZM465.132 108.364C463.45 108.364 462 107.992 460.78 107.25C459.568 106.5 458.632 105.455 457.973 104.114C457.321 102.765 456.996 101.197 456.996 99.4091C456.996 97.6212 457.321 96.0455 457.973 94.6818C458.632 93.3106 459.549 92.2424 460.723 91.4773C461.905 90.7045 463.284 90.3182 464.859 90.3182C465.768 90.3182 466.666 90.4697 467.553 90.7727C468.439 91.0758 469.246 91.5682 469.973 92.25C470.7 92.9242 471.28 93.8182 471.712 94.9318C472.143 96.0455 472.359 97.4167 472.359 99.0455V100.182H458.905V97.8636H469.632C469.632 96.8788 469.435 96 469.041 95.2273C468.655 94.4545 468.102 93.8447 467.382 93.3977C466.67 92.9508 465.829 92.7273 464.859 92.7273C463.791 92.7273 462.867 92.9924 462.087 93.5227C461.314 94.0455 460.719 94.7273 460.303 95.5682C459.886 96.4091 459.678 97.3106 459.678 98.2727V99.8182C459.678 101.136 459.905 102.254 460.359 103.17C460.821 104.08 461.462 104.773 462.28 105.25C463.098 105.72 464.049 105.955 465.132 105.955C465.837 105.955 466.473 105.856 467.041 105.659C467.617 105.455 468.113 105.152 468.53 104.75C468.946 104.341 469.268 103.833 469.496 103.227L472.087 103.955C471.814 104.833 471.356 105.606 470.712 106.273C470.068 106.932 469.272 107.447 468.325 107.818C467.378 108.182 466.314 108.364 465.132 108.364ZM487.439 100.864V90.5455H490.121V108H487.439V105.045H487.257C486.848 105.932 486.212 106.686 485.348 107.307C484.484 107.92 483.393 108.227 482.075 108.227C480.984 108.227 480.015 107.989 479.166 107.511C478.318 107.027 477.651 106.299 477.166 105.33C476.681 104.352 476.439 103.121 476.439 101.636V90.5455H479.121V101.455C479.121 102.727 479.477 103.742 480.189 104.5C480.909 105.258 481.825 105.636 482.939 105.636C483.606 105.636 484.284 105.466 484.973 105.125C485.67 104.784 486.253 104.261 486.723 103.557C487.2 102.852 487.439 101.955 487.439 100.864ZM502.624 90.5455V92.8182H493.578V90.5455H502.624ZM496.214 86.3636H498.896V103C498.896 103.758 499.006 104.326 499.226 104.705C499.453 105.076 499.741 105.326 500.089 105.455C500.446 105.576 500.821 105.636 501.214 105.636C501.51 105.636 501.752 105.621 501.942 105.591C502.131 105.553 502.283 105.523 502.396 105.5L502.942 107.909C502.76 107.977 502.506 108.045 502.18 108.114C501.855 108.189 501.442 108.227 500.942 108.227C500.184 108.227 499.442 108.064 498.714 107.739C497.995 107.413 497.396 106.917 496.919 106.25C496.449 105.583 496.214 104.742 496.214 103.727V86.3636ZM506.658 108V90.5455H509.249V93.1818H509.43C509.749 92.3182 510.324 91.6174 511.158 91.0795C511.991 90.5417 512.93 90.2727 513.976 90.2727C514.173 90.2727 514.419 90.2765 514.714 90.2841C515.01 90.2917 515.233 90.303 515.385 90.3182V93.0455C515.294 93.0227 515.086 92.9886 514.76 92.9432C514.442 92.8902 514.105 92.8636 513.749 92.8636C512.9 92.8636 512.143 93.0417 511.476 93.3977C510.817 93.7462 510.294 94.2311 509.908 94.8523C509.529 95.4659 509.339 96.1667 509.339 96.9545V108H506.658ZM523.7 108.409C522.594 108.409 521.59 108.201 520.689 107.784C519.787 107.36 519.071 106.75 518.541 105.955C518.011 105.152 517.746 104.182 517.746 103.045C517.746 102.045 517.943 101.235 518.337 100.614C518.731 99.9848 519.257 99.4924 519.916 99.1364C520.575 98.7803 521.303 98.5152 522.098 98.3409C522.901 98.1591 523.708 98.0152 524.518 97.9091C525.579 97.7727 526.439 97.6705 527.098 97.6023C527.765 97.5265 528.25 97.4015 528.553 97.2273C528.863 97.053 529.018 96.75 529.018 96.3182V96.2273C529.018 95.1061 528.712 94.2348 528.098 93.6136C527.492 92.9924 526.571 92.6818 525.337 92.6818C524.056 92.6818 523.053 92.9621 522.325 93.5227C521.598 94.0833 521.087 94.6818 520.791 95.3182L518.246 94.4091C518.7 93.3485 519.306 92.5227 520.064 91.9318C520.829 91.3333 521.662 90.9167 522.564 90.6818C523.473 90.4394 524.367 90.3182 525.246 90.3182C525.806 90.3182 526.45 90.3864 527.178 90.5227C527.912 90.6515 528.621 90.9205 529.303 91.3295C529.992 91.7386 530.564 92.3561 531.018 93.1818C531.473 94.0076 531.7 95.1136 531.7 96.5V108H529.018V105.636H528.882C528.7 106.015 528.397 106.42 527.973 106.852C527.549 107.284 526.984 107.652 526.28 107.955C525.575 108.258 524.715 108.409 523.7 108.409ZM524.109 106C525.17 106 526.064 105.792 526.791 105.375C527.526 104.958 528.079 104.42 528.45 103.761C528.829 103.102 529.018 102.409 529.018 101.682V99.2273C528.905 99.3636 528.655 99.4886 528.268 99.6023C527.89 99.7083 527.45 99.803 526.95 99.8864C526.458 99.9621 525.977 100.03 525.507 100.091C525.045 100.144 524.67 100.189 524.382 100.227C523.685 100.318 523.034 100.466 522.428 100.67C521.829 100.867 521.344 101.167 520.973 101.568C520.609 101.962 520.428 102.5 520.428 103.182C520.428 104.114 520.772 104.818 521.462 105.295C522.159 105.765 523.041 106 524.109 106ZM539.277 84.7273V108H536.595V84.7273H539.277ZM546.143 108.182C545.583 108.182 545.102 107.981 544.7 107.58C544.299 107.178 544.098 106.697 544.098 106.136C544.098 105.576 544.299 105.095 544.7 104.693C545.102 104.292 545.583 104.091 546.143 104.091C546.704 104.091 547.185 104.292 547.587 104.693C547.988 105.095 548.189 105.576 548.189 106.136C548.189 106.508 548.094 106.848 547.905 107.159C547.723 107.47 547.477 107.72 547.166 107.909C546.863 108.091 546.522 108.182 546.143 108.182ZM553.365 108V84.7273H556.047V93.3182H556.274C556.471 93.0152 556.744 92.6288 557.092 92.1591C557.448 91.6818 557.956 91.2576 558.615 90.8864C559.282 90.5076 560.183 90.3182 561.32 90.3182C562.789 90.3182 564.085 90.6856 565.206 91.4205C566.327 92.1553 567.202 93.197 567.831 94.5455C568.46 95.8939 568.774 97.4848 568.774 99.3182C568.774 101.167 568.46 102.769 567.831 104.125C567.202 105.473 566.331 106.519 565.217 107.261C564.104 107.996 562.82 108.364 561.365 108.364C560.244 108.364 559.346 108.178 558.672 107.807C557.998 107.428 557.479 107 557.115 106.523C556.751 106.038 556.471 105.636 556.274 105.318H555.956V108H553.365ZM556.001 99.2727C556.001 100.591 556.195 101.754 556.581 102.761C556.967 103.761 557.532 104.545 558.274 105.114C559.017 105.674 559.926 105.955 561.001 105.955C562.123 105.955 563.058 105.659 563.808 105.068C564.566 104.47 565.134 103.667 565.513 102.659C565.899 101.644 566.092 100.515 566.092 99.2727C566.092 98.0455 565.903 96.9394 565.524 95.9545C565.153 94.9621 564.589 94.178 563.831 93.6023C563.081 93.0189 562.138 92.7273 561.001 92.7273C559.911 92.7273 558.994 93.0038 558.251 93.5568C557.509 94.1023 556.948 94.8674 556.57 95.8523C556.191 96.8295 556.001 97.9697 556.001 99.2727ZM580.467 90.5455V92.8182H571.422V90.5455H580.467ZM574.058 86.3636H576.74V103C576.74 103.758 576.85 104.326 577.07 104.705C577.297 105.076 577.585 105.326 577.933 105.455C578.289 105.576 578.664 105.636 579.058 105.636C579.354 105.636 579.596 105.621 579.786 105.591C579.975 105.553 580.126 105.523 580.24 105.5L580.786 107.909C580.604 107.977 580.35 108.045 580.024 108.114C579.698 108.189 579.286 108.227 578.786 108.227C578.028 108.227 577.286 108.064 576.558 107.739C575.839 107.413 575.24 106.917 574.763 106.25C574.293 105.583 574.058 104.742 574.058 103.727V86.3636ZM587.183 97.5V108H584.501V90.5455H587.092V93.2727H587.32C587.729 92.3864 588.35 91.6742 589.183 91.1364C590.017 90.5909 591.092 90.3182 592.411 90.3182C593.592 90.3182 594.626 90.5606 595.513 91.0455C596.399 91.5227 597.089 92.25 597.581 93.2273C598.073 94.197 598.32 95.4242 598.32 96.9091V108H595.638V97.0909C595.638 95.7197 595.282 94.6515 594.57 93.8864C593.857 93.1136 592.88 92.7273 591.638 92.7273C590.782 92.7273 590.017 92.9129 589.342 93.2841C588.676 93.6553 588.149 94.197 587.763 94.9091C587.376 95.6212 587.183 96.4848 587.183 97.5ZM605.175 108.182C604.614 108.182 604.133 107.981 603.732 107.58C603.33 107.178 603.129 106.697 603.129 106.136C603.129 105.576 603.33 105.095 603.732 104.693C604.133 104.292 604.614 104.091 605.175 104.091C605.735 104.091 606.216 104.292 606.618 104.693C607.019 105.095 607.22 105.576 607.22 106.136C607.22 106.508 607.125 106.848 606.936 107.159C606.754 107.47 606.508 107.72 606.197 107.909C605.894 108.091 605.554 108.182 605.175 108.182ZM619.805 90.5455V92.8182H610.396V90.5455H619.805ZM613.214 108V88.1364C613.214 87.1364 613.449 86.303 613.919 85.6364C614.389 84.9697 614.999 84.4697 615.749 84.1364C616.499 83.803 617.29 83.6364 618.124 83.6364C618.783 83.6364 619.321 83.6894 619.737 83.7955C620.154 83.9015 620.464 84 620.669 84.0909L619.896 86.4091C619.76 86.3636 619.571 86.3068 619.328 86.2386C619.093 86.1705 618.783 86.1364 618.396 86.1364C617.51 86.1364 616.87 86.3598 616.476 86.8068C616.089 87.2538 615.896 87.9091 615.896 88.7727V108H613.214ZM623.564 108V90.5455H626.246V108H623.564ZM624.928 87.6364C624.405 87.6364 623.954 87.4583 623.575 87.1023C623.204 86.7462 623.018 86.3182 623.018 85.8182C623.018 85.3182 623.204 84.8902 623.575 84.5341C623.954 84.178 624.405 84 624.928 84C625.45 84 625.897 84.178 626.268 84.5341C626.647 84.8902 626.837 85.3182 626.837 85.8182C626.837 86.3182 626.647 86.7462 626.268 87.1023C625.897 87.4583 625.45 87.6364 624.928 87.6364ZM633.158 90.5455L637.339 97.6818L641.521 90.5455H644.612L638.976 99.2727L644.612 108H641.521L637.339 101.227L633.158 108H630.067L635.612 99.2727L630.067 90.5455H633.158ZM655.038 108.364C653.357 108.364 651.906 107.992 650.686 107.25C649.474 106.5 648.538 105.455 647.879 104.114C647.228 102.765 646.902 101.197 646.902 99.4091C646.902 97.6212 647.228 96.0455 647.879 94.6818C648.538 93.3106 649.455 92.2424 650.629 91.4773C651.811 90.7045 653.19 90.3182 654.766 90.3182C655.675 90.3182 656.572 90.4697 657.459 90.7727C658.345 91.0758 659.152 91.5682 659.879 92.25C660.607 92.9242 661.186 93.8182 661.618 94.9318C662.05 96.0455 662.266 97.4167 662.266 99.0455V100.182H648.811V97.8636H659.538C659.538 96.8788 659.341 96 658.947 95.2273C658.561 94.4545 658.008 93.8447 657.288 93.3977C656.576 92.9508 655.735 92.7273 654.766 92.7273C653.697 92.7273 652.773 92.9924 651.993 93.5227C651.22 94.0455 650.625 94.7273 650.209 95.5682C649.792 96.4091 649.584 97.3106 649.584 98.2727V99.8182C649.584 101.136 649.811 102.254 650.266 103.17C650.728 104.08 651.368 104.773 652.186 105.25C653.004 105.72 653.955 105.955 655.038 105.955C655.743 105.955 656.379 105.856 656.947 105.659C657.523 105.455 658.019 105.152 658.436 104.75C658.853 104.341 659.175 103.833 659.402 103.227L661.993 103.955C661.72 104.833 661.262 105.606 660.618 106.273C659.974 106.932 659.179 107.447 658.232 107.818C657.285 108.182 656.22 108.364 655.038 108.364ZM672.936 108.364C671.482 108.364 670.197 107.996 669.084 107.261C667.97 106.519 667.099 105.473 666.47 104.125C665.841 102.769 665.527 101.167 665.527 99.3182C665.527 97.4848 665.841 95.8939 666.47 94.5455C667.099 93.197 667.974 92.1553 669.095 91.4205C670.216 90.6856 671.512 90.3182 672.982 90.3182C674.118 90.3182 675.016 90.5076 675.675 90.8864C676.341 91.2576 676.849 91.6818 677.197 92.1591C677.554 92.6288 677.83 93.0152 678.027 93.3182H678.254V84.7273H680.936V108H678.345V105.318H678.027C677.83 105.636 677.55 106.038 677.186 106.523C676.822 107 676.304 107.428 675.629 107.807C674.955 108.178 674.057 108.364 672.936 108.364ZM673.3 105.955C674.375 105.955 675.285 105.674 676.027 105.114C676.769 104.545 677.334 103.761 677.72 102.761C678.107 101.754 678.3 100.591 678.3 99.2727C678.3 97.9697 678.11 96.8295 677.732 95.8523C677.353 94.8674 676.792 94.1023 676.05 93.5568C675.307 93.0038 674.391 92.7273 673.3 92.7273C672.163 92.7273 671.216 93.0189 670.459 93.6023C669.709 94.178 669.144 94.9621 668.766 95.9545C668.394 96.9394 668.209 98.0455 668.209 99.2727C668.209 100.515 668.398 101.644 668.777 102.659C669.163 103.667 669.732 104.47 670.482 105.068C671.239 105.659 672.179 105.955 673.3 105.955ZM688.175 108.182C687.614 108.182 687.133 107.981 686.732 107.58C686.33 107.178 686.129 106.697 686.129 106.136C686.129 105.576 686.33 105.095 686.732 104.693C687.133 104.292 687.614 104.091 688.175 104.091C688.735 104.091 689.216 104.292 689.618 104.693C690.019 105.095 690.22 105.576 690.22 106.136C690.22 106.508 690.125 106.848 689.936 107.159C689.754 107.47 689.508 107.72 689.197 107.909C688.894 108.091 688.554 108.182 688.175 108.182ZM695.033 114.545V90.5455H697.624V93.3182H697.942C698.139 93.0152 698.411 92.6288 698.76 92.1591C699.116 91.6818 699.624 91.2576 700.283 90.8864C700.949 90.5076 701.851 90.3182 702.987 90.3182C704.457 90.3182 705.752 90.6856 706.874 91.4205C707.995 92.1553 708.87 93.197 709.499 94.5455C710.127 95.8939 710.442 97.4848 710.442 99.3182C710.442 101.167 710.127 102.769 709.499 104.125C708.87 105.473 707.999 106.519 706.885 107.261C705.771 107.996 704.487 108.364 703.033 108.364C701.911 108.364 701.014 108.178 700.339 107.807C699.665 107.428 699.146 107 698.783 106.523C698.419 106.038 698.139 105.636 697.942 105.318H697.714V114.545H695.033ZM697.669 99.2727C697.669 100.591 697.862 101.754 698.249 102.761C698.635 103.761 699.199 104.545 699.942 105.114C700.684 105.674 701.593 105.955 702.669 105.955C703.79 105.955 704.726 105.659 705.476 105.068C706.233 104.47 706.802 103.667 707.18 102.659C707.567 101.644 707.76 100.515 707.76 99.2727C707.76 98.0455 707.571 96.9394 707.192 95.9545C706.821 94.9621 706.256 94.178 705.499 93.6023C704.749 93.0189 703.805 92.7273 702.669 92.7273C701.578 92.7273 700.661 93.0038 699.919 93.5568C699.177 94.1023 698.616 94.8674 698.237 95.8523C697.858 96.8295 697.669 97.9697 697.669 99.2727ZM714.533 108V90.5455H717.124V93.1818H717.305C717.624 92.3182 718.199 91.6174 719.033 91.0795C719.866 90.5417 720.805 90.2727 721.851 90.2727C722.048 90.2727 722.294 90.2765 722.589 90.2841C722.885 90.2917 723.108 90.303 723.26 90.3182V93.0455C723.169 93.0227 722.961 92.9886 722.635 92.9432C722.317 92.8902 721.98 92.8636 721.624 92.8636C720.775 92.8636 720.018 93.0417 719.351 93.3977C718.692 93.7462 718.169 94.2311 717.783 94.8523C717.404 95.4659 717.214 96.1667 717.214 96.9545V108H714.533ZM726.439 108V90.5455H729.121V108H726.439ZM727.803 87.6364C727.28 87.6364 726.829 87.4583 726.45 87.1023C726.079 86.7462 725.893 86.3182 725.893 85.8182C725.893 85.3182 726.079 84.8902 726.45 84.5341C726.829 84.178 727.28 84 727.803 84C728.325 84 728.772 84.178 729.143 84.5341C729.522 84.8902 729.712 85.3182 729.712 85.8182C729.712 86.3182 729.522 86.7462 729.143 87.1023C728.772 87.4583 728.325 87.6364 727.803 87.6364ZM734.033 108V90.5455H736.624V93.2727H736.851C737.214 92.3409 737.802 91.6174 738.612 91.1023C739.423 90.5795 740.396 90.3182 741.533 90.3182C742.684 90.3182 743.643 90.5795 744.408 91.1023C745.18 91.6174 745.783 92.3409 746.214 93.2727H746.396C746.843 92.3712 747.514 91.6553 748.408 91.125C749.302 90.5871 750.374 90.3182 751.624 90.3182C753.184 90.3182 754.461 90.8068 755.453 91.7841C756.446 92.7538 756.942 94.2652 756.942 96.3182V108H754.26V96.3182C754.26 95.0303 753.908 94.1098 753.203 93.5568C752.499 93.0038 751.669 92.7273 750.714 92.7273C749.487 92.7273 748.536 93.0985 747.862 93.8409C747.188 94.5758 746.851 95.5076 746.851 96.6364V108H744.124V96.0455C744.124 95.053 743.802 94.2538 743.158 93.6477C742.514 93.0341 741.684 92.7273 740.669 92.7273C739.972 92.7273 739.321 92.9129 738.714 93.2841C738.116 93.6553 737.631 94.1705 737.26 94.8295C736.896 95.4811 736.714 96.2348 736.714 97.0909V108H734.033ZM766.982 108.409C765.875 108.409 764.872 108.201 763.97 107.784C763.069 107.36 762.353 106.75 761.822 105.955C761.292 105.152 761.027 104.182 761.027 103.045C761.027 102.045 761.224 101.235 761.618 100.614C762.012 99.9848 762.538 99.4924 763.197 99.1364C763.857 98.7803 764.584 98.5152 765.379 98.3409C766.182 98.1591 766.989 98.0152 767.8 97.9091C768.86 97.7727 769.72 97.6705 770.379 97.6023C771.046 97.5265 771.531 97.4015 771.834 97.2273C772.144 97.053 772.3 96.75 772.3 96.3182V96.2273C772.3 95.1061 771.993 94.2348 771.379 93.6136C770.773 92.9924 769.853 92.6818 768.618 92.6818C767.338 92.6818 766.334 92.9621 765.607 93.5227C764.879 94.0833 764.368 94.6818 764.072 95.3182L761.527 94.4091C761.982 93.3485 762.588 92.5227 763.345 91.9318C764.11 91.3333 764.944 90.9167 765.845 90.6818C766.754 90.4394 767.648 90.3182 768.527 90.3182C769.088 90.3182 769.732 90.3864 770.459 90.5227C771.194 90.6515 771.902 90.9205 772.584 91.3295C773.273 91.7386 773.845 92.3561 774.3 93.1818C774.754 94.0076 774.982 95.1136 774.982 96.5V108H772.3V105.636H772.163C771.982 106.015 771.679 106.42 771.254 106.852C770.83 107.284 770.266 107.652 769.561 107.955C768.857 108.258 767.997 108.409 766.982 108.409ZM767.391 106C768.451 106 769.345 105.792 770.072 105.375C770.807 104.958 771.36 104.42 771.732 103.761C772.11 103.102 772.3 102.409 772.3 101.682V99.2273C772.186 99.3636 771.936 99.4886 771.55 99.6023C771.171 99.7083 770.732 99.803 770.232 99.8864C769.739 99.9621 769.258 100.03 768.788 100.091C768.326 100.144 767.951 100.189 767.663 100.227C766.966 100.318 766.315 100.466 765.709 100.67C765.11 100.867 764.625 101.167 764.254 101.568C763.891 101.962 763.709 102.5 763.709 103.182C763.709 104.114 764.054 104.818 764.743 105.295C765.44 105.765 766.322 106 767.391 106ZM779.876 108V90.5455H782.467V93.1818H782.649C782.967 92.3182 783.543 91.6174 784.376 91.0795C785.21 90.5417 786.149 90.2727 787.195 90.2727C787.392 90.2727 787.638 90.2765 787.933 90.2841C788.229 90.2917 788.452 90.303 788.604 90.3182V93.0455C788.513 93.0227 788.304 92.9886 787.979 92.9432C787.661 92.8902 787.323 92.8636 786.967 92.8636C786.119 92.8636 785.361 93.0417 784.695 93.3977C784.036 93.7462 783.513 94.2311 783.126 94.8523C782.748 95.4659 782.558 96.1667 782.558 96.9545V108H779.876ZM794.041 114.5C793.587 114.5 793.181 114.462 792.825 114.386C792.469 114.318 792.223 114.25 792.087 114.182L792.768 111.818C793.746 112.068 794.56 112.061 795.212 111.795C795.863 111.538 796.428 110.758 796.905 109.455L797.405 108.091L790.95 90.5455H793.859L798.678 104.455H798.859L803.678 90.5455L806.609 90.5909L799.178 110.545C798.844 111.432 798.431 112.167 797.939 112.75C797.446 113.341 796.875 113.78 796.223 114.068C795.579 114.356 794.852 114.5 794.041 114.5ZM811.018 108.182C810.458 108.182 809.977 107.981 809.575 107.58C809.174 107.178 808.973 106.697 808.973 106.136C808.973 105.576 809.174 105.095 809.575 104.693C809.977 104.292 810.458 104.091 811.018 104.091C811.579 104.091 812.06 104.292 812.462 104.693C812.863 105.095 813.064 105.576 813.064 106.136C813.064 106.508 812.969 106.848 812.78 107.159C812.598 107.47 812.352 107.72 812.041 107.909C811.738 108.091 811.397 108.182 811.018 108.182ZM820.558 97.5V108H817.876V84.7273H820.558V93.2727H820.786C821.195 92.3712 821.808 91.6553 822.626 91.125C823.452 90.5871 824.551 90.3182 825.922 90.3182C827.111 90.3182 828.153 90.5568 829.047 91.0341C829.941 91.5038 830.634 92.2273 831.126 93.2045C831.626 94.1742 831.876 95.4091 831.876 96.9091V108H829.195V97.0909C829.195 95.7045 828.835 94.6326 828.115 93.875C827.403 93.1098 826.414 92.7273 825.149 92.7273C824.27 92.7273 823.482 92.9129 822.786 93.2841C822.096 93.6553 821.551 94.197 821.149 94.9091C820.755 95.6212 820.558 96.4848 820.558 97.5ZM843.874 108.364C842.298 108.364 840.915 107.989 839.726 107.239C838.544 106.489 837.62 105.439 836.953 104.091C836.294 102.742 835.964 101.167 835.964 99.3636C835.964 97.5455 836.294 95.9583 836.953 94.6023C837.62 93.2462 838.544 92.1932 839.726 91.4432C840.915 90.6932 842.298 90.3182 843.874 90.3182C845.449 90.3182 846.828 90.6932 848.01 91.4432C849.199 92.1932 850.124 93.2462 850.783 94.6023C851.449 95.9583 851.783 97.5455 851.783 99.3636C851.783 101.167 851.449 102.742 850.783 104.091C850.124 105.439 849.199 106.489 848.01 107.239C846.828 107.989 845.449 108.364 843.874 108.364ZM843.874 105.955C845.071 105.955 846.055 105.648 846.828 105.034C847.601 104.42 848.173 103.614 848.544 102.614C848.915 101.614 849.101 100.53 849.101 99.3636C849.101 98.197 848.915 97.1098 848.544 96.1023C848.173 95.0947 847.601 94.2803 846.828 93.6591C846.055 93.0379 845.071 92.7273 843.874 92.7273C842.677 92.7273 841.692 93.0379 840.919 93.6591C840.146 94.2803 839.574 95.0947 839.203 96.1023C838.832 97.1098 838.646 98.197 838.646 99.3636C838.646 100.53 838.832 101.614 839.203 102.614C839.574 103.614 840.146 104.42 840.919 105.034C841.692 105.648 842.677 105.955 843.874 105.955ZM869.524 90.5455L863.07 108H860.342L853.888 90.5455H856.797L861.615 104.455H861.797L866.615 90.5455H869.524ZM879.757 108.364C878.075 108.364 876.625 107.992 875.405 107.25C874.193 106.5 873.257 105.455 872.598 104.114C871.946 102.765 871.621 101.197 871.621 99.4091C871.621 97.6212 871.946 96.0455 872.598 94.6818C873.257 93.3106 874.174 92.2424 875.348 91.4773C876.53 90.7045 877.909 90.3182 879.484 90.3182C880.393 90.3182 881.291 90.4697 882.178 90.7727C883.064 91.0758 883.871 91.5682 884.598 92.25C885.325 92.9242 885.905 93.8182 886.337 94.9318C886.768 96.0455 886.984 97.4167 886.984 99.0455V100.182H873.53V97.8636H884.257C884.257 96.8788 884.06 96 883.666 95.2273C883.28 94.4545 882.727 93.8447 882.007 93.3977C881.295 92.9508 880.454 92.7273 879.484 92.7273C878.416 92.7273 877.492 92.9924 876.712 93.5227C875.939 94.0455 875.344 94.7273 874.928 95.5682C874.511 96.4091 874.303 97.3106 874.303 98.2727V99.8182C874.303 101.136 874.53 102.254 874.984 103.17C875.446 104.08 876.087 104.773 876.905 105.25C877.723 105.72 878.674 105.955 879.757 105.955C880.462 105.955 881.098 105.856 881.666 105.659C882.242 105.455 882.738 105.152 883.155 104.75C883.571 104.341 883.893 103.833 884.121 103.227L886.712 103.955C886.439 104.833 885.981 105.606 885.337 106.273C884.693 106.932 883.897 107.447 882.95 107.818C882.003 108.182 880.939 108.364 879.757 108.364ZM891.064 108V90.5455H893.655V93.1818H893.837C894.155 92.3182 894.731 91.6174 895.564 91.0795C896.397 90.5417 897.337 90.2727 898.382 90.2727C898.579 90.2727 898.825 90.2765 899.121 90.2841C899.416 90.2917 899.64 90.303 899.791 90.3182V93.0455C899.7 93.0227 899.492 92.9886 899.166 92.9432C898.848 92.8902 898.511 92.8636 898.155 92.8636C897.306 92.8636 896.549 93.0417 895.882 93.3977C895.223 93.7462 894.7 94.2311 894.314 94.8523C893.935 95.4659 893.746 96.1667 893.746 96.9545V108H891.064Z" fill="white" fill-opacity="0.95"/>
</g>
<line x1="435" y1="150.5" x2="544" y2="150.5" stroke="#932099" stroke-width="3"/>
<rect x="473.5" y="160" width="32" height="32" rx="16" fill="#932099"/>
<path d="M491.255 171.318V181.5H489.102V173.362H489.043L486.711 174.823V172.914L489.232 171.318H491.255Z" fill="white" fill-opacity="0.95"/>
<line x1="551" y1="150.5" x2="599" y2="150.5" stroke="#932099" stroke-width="3"/>
<rect x="559" y="160" width="32" height="32" rx="16" fill="#932099"/>
<path d="M571.325 181.5V179.949L574.95 176.593C575.258 176.295 575.516 176.026 575.725 175.788C575.937 175.549 576.098 175.315 576.207 175.087C576.317 174.855 576.371 174.604 576.371 174.336C576.371 174.038 576.304 173.781 576.168 173.565C576.032 173.347 575.846 173.179 575.611 173.063C575.375 172.944 575.109 172.884 574.81 172.884C574.499 172.884 574.227 172.947 573.995 173.073C573.763 173.199 573.584 173.38 573.458 173.615C573.332 173.85 573.269 174.13 573.269 174.455H571.226C571.226 173.789 571.377 173.211 571.678 172.72C571.98 172.23 572.402 171.85 572.946 171.582C573.49 171.313 574.116 171.179 574.825 171.179C575.554 171.179 576.189 171.308 576.729 171.567C577.273 171.822 577.696 172.177 577.997 172.631C578.299 173.085 578.45 173.605 578.45 174.192C578.45 174.576 578.373 174.956 578.221 175.33C578.072 175.705 577.805 176.121 577.42 176.578C577.036 177.032 576.494 177.577 575.795 178.214L574.308 179.67V179.74H578.584V181.5H571.325Z" fill="white" fill-opacity="0.95"/>
<line x1="606" y1="150.5" x2="681" y2="150.5" stroke="#932099" stroke-width="3"/>
<rect x="627.5" y="160" width="32" height="32" rx="16" fill="#932099"/>
<path d="M643.089 181.639C642.346 181.639 641.685 181.512 641.105 181.256C640.528 180.998 640.073 180.643 639.738 180.192C639.406 179.738 639.236 179.215 639.226 178.621H641.393C641.407 178.87 641.488 179.089 641.637 179.278C641.79 179.463 641.992 179.607 642.244 179.71C642.496 179.813 642.779 179.864 643.094 179.864C643.422 179.864 643.712 179.806 643.964 179.69C644.216 179.574 644.413 179.414 644.555 179.208C644.698 179.003 644.769 178.766 644.769 178.497C644.769 178.225 644.693 177.985 644.54 177.776C644.391 177.564 644.176 177.398 643.894 177.279C643.616 177.16 643.284 177.1 642.9 177.1H641.95V175.519H642.9C643.225 175.519 643.511 175.463 643.76 175.35C644.012 175.237 644.207 175.082 644.347 174.883C644.486 174.681 644.555 174.445 644.555 174.177C644.555 173.922 644.494 173.698 644.371 173.506C644.252 173.31 644.083 173.158 643.864 173.048C643.649 172.939 643.397 172.884 643.109 172.884C642.817 172.884 642.55 172.937 642.308 173.043C642.066 173.146 641.872 173.294 641.727 173.486C641.581 173.678 641.503 173.903 641.493 174.162H639.43C639.44 173.575 639.607 173.058 639.932 172.611C640.257 172.163 640.694 171.814 641.244 171.562C641.798 171.307 642.423 171.179 643.119 171.179C643.821 171.179 644.436 171.307 644.963 171.562C645.49 171.817 645.899 172.162 646.191 172.596C646.486 173.027 646.632 173.511 646.629 174.048C646.632 174.618 646.455 175.093 646.097 175.474C645.742 175.856 645.28 176.098 644.71 176.2V176.28C645.459 176.376 646.029 176.636 646.42 177.06C646.814 177.481 647.01 178.008 647.006 178.641C647.01 179.221 646.842 179.737 646.504 180.188C646.17 180.638 645.707 180.993 645.117 181.251C644.527 181.51 643.851 181.639 643.089 181.639Z" fill="white" fill-opacity="0.95"/>
<line x1="688" y1="150.5" x2="803" y2="150.5" stroke="#932099" stroke-width="3"/>
<rect x="729.5" y="160" width="32" height="32" rx="16" fill="#932099"/>
<path d="M741.171 179.71V178.015L745.422 171.318H746.884V173.665H746.018L743.339 177.906V177.985H749.379V179.71H741.171ZM746.058 181.5V179.193L746.098 178.442V171.318H748.116V181.5H746.058Z" fill="white" fill-opacity="0.95"/>
<line x1="810" y1="150.5" x2="895" y2="150.5" stroke="#932099" stroke-width="3"/>
<rect x="836.5" y="160" width="32" height="32" rx="16" fill="#932099"/>
<path d="M852.044 181.639C851.341 181.639 850.715 181.51 850.165 181.251C849.618 180.993 849.184 180.637 848.862 180.183C848.541 179.728 848.373 179.208 848.36 178.621H850.448C850.471 179.016 850.637 179.336 850.945 179.581C851.254 179.826 851.62 179.949 852.044 179.949C852.382 179.949 852.68 179.874 852.939 179.725C853.201 179.573 853.405 179.362 853.55 179.094C853.7 178.822 853.774 178.51 853.774 178.159C853.774 177.801 853.698 177.486 853.545 177.214C853.396 176.943 853.189 176.731 852.924 176.578C852.659 176.426 852.356 176.348 852.014 176.344C851.716 176.344 851.426 176.406 851.144 176.528C850.866 176.651 850.649 176.818 850.493 177.031L848.579 176.688L849.061 171.318H855.286V173.078H850.836L850.572 175.629H850.632C850.811 175.377 851.081 175.168 851.442 175.002C851.804 174.836 852.208 174.754 852.656 174.754C853.269 174.754 853.816 174.898 854.296 175.186C854.777 175.474 855.156 175.871 855.435 176.374C855.713 176.875 855.851 177.451 855.847 178.104C855.851 178.79 855.692 179.4 855.37 179.934C855.052 180.464 854.606 180.882 854.033 181.187C853.463 181.488 852.8 181.639 852.044 181.639Z" fill="white" fill-opacity="0.95"/>
</svg>
