<svg width="1150" height="320" viewBox="0 0 1150 320" fill="none" xmlns="http://www.w3.org/2000/svg">
<path d="M457.2 88.3001C457.2 96.6001 463.9 103.3 472.2 103.3C489.2 103.3 500 114.3 500 127.3C500 136.9 493.5 142.7 486.3 144.6C484.5 145.1 483.1 143.1 484.1 141.6C491 131.2 483 122.5 483 115.3C483 108.7 487 103.3 492 103.3C494.3 103.3 496.4 104.4 498 106.3C501 96.5 510.2 89.3 521 89.3C533 89.3 540.9 95.1 545 107.3L548 116.3C550 122.3 547 123.3 545 123.3H543C541.9 123.3 541 124.2 541 125.3V133.1C541 138.1 537 142.3 532.1 142.3H526.5C523.5 142.3 521 144.8 521 147.8C521 150.8 523.5 153.3 526.5 153.3H534.2C543.3 153.3 551.6 158.4 555.7 166.6L570.9 196.9C572.3 199.6 575 201.3 578.1 201.3H614.4M424.1 103.3H431.8C434.8 103.3 437.3 100.8 437.3 97.8C437.3 94.8 434.8 92.3 431.8 92.3H426.2C421.2 92.3 417.3 88.1 417.3 83.1V75.3C417.3 74.2 416.4 73.3 415.3 73.3H413.3C411.3 73.3 408.3 72.3 410.3 66.3L413.3 57.3C417.4 45.1 425.3 39.3 437.3 39.3C450.6 39.3 461.3 50 461.3 63.3C461.3 73.3 457.3 76.3001 457.3 88.3001M427.5 47.4H437.3C438.8 47.4 439.8 49 439.1 50.3L436.2 56.1C435.8 56.9 436 57.8001 436.6 58.4001L439.3 61.1C440.1 61.9 440.6 63.1 440.5 64.3C439.5 73.9 431.4 81.4 421.6 81.4H409.6M512 125.3C508.6 125.3 505.9 122.5 506 119.1C506.1 115.8 509 113.3 512.2 113.3H514.9C516.2 113.3 517.5 112.8 518.4 111.8L519.9 110.3C521.7 108.5 522.2 105.7 521 103.4L519.4 100.2C518.7 98.9 519.7 97.3 521.2 97.3H531M614.3 201.4H644.3C648.7 201.4 652.3 197.8 652.3 193.4V161.4C652.3 157 648.7 153.4 644.3 153.4H596.3C591.9 153.4 588.3 157 588.3 161.4V194.4M423.7 103.3C413.7 103.3 406.7 109.3 399.7 123.3L390 142.7C388 146.8 385.3 149.3 379.3 149.3H358.7C357.1 149.3 355.6 148.8 354.3 148L347.3 143.4C345.3 142.1 343 141.4 340.6 141.4H335.5C333.7 141.4 332.2 142.9 332.2 144.7C332.2 146.3 333.3 147.6 334.9 147.9L342.2 149.4C342.2 149.4 344.2 161.4 354.2 161.4M446.2 75.3C449.5 75.3 452.2 72.6 452.2 69.3C452.2 66 449.5 63.3 446.2 63.3M344.2 141.3V107.3C344.2 106.2 343.3 105.3 342.2 105.3H309C308.5 105.3 308 105.5 307.6 105.9L296.8 116.7C296.4 117.1 296.2 117.6 296.2 118.1V171.3C296.2 172.4 297.1 173.3 298.2 173.3H342.2C343.3 173.3 344.2 172.4 344.2 171.3V165.3M309.2 106.3V118.3H297.2M243.5 201.3C240.2 201.3 237.3 203.8 237.3 207.1C237.2 210.5 239.9 213.3 243.3 213.3V225.3H224.3V197.3M244.2 201.4C250.8 201.4 256.2 196 256.2 189.4V184.4M232.2 232.4C232.2 232.4 227.6 242.7 208.6 241.3C185.7 239.5 168.1 220.1 168.2 197.2C168.3 177.3 180.3 161.4 204.2 149.5L205.6 148.8C209.7 146.8 212.2 142.6 212.2 138.1V114.5C212.2 112.1 210.2 110.3 207.7 110.5C205.5 110.7 204 112.8 204.2 115C204.8 123.2 217.7 137.6 233.5 137.4C241.7 137.3 248.2 130.6 248.2 122.4V100.4C248.2 89.4001 239.2 80.4001 228.2 80.4001C217.9 80.4001 209.4 88.2 208.3 98.2C208.2 99.4 209.1 100.4 210.3 100.4H264.2M238.2 106.3C238.2 106.3 240.4 113.1 241.2 115.3C242.2 118.3 240.2 119.3 238.2 119.3H236.2M502.2 203.3C502.2 203.3 500 210.1 499.2 212.3C498.2 215.3 500.2 216.3 502.2 216.3H504.2M568.2 289.3V268.1C568.2 259 563 250.7 554.9 246.6L542.8 240.6C538.8 238.6 536.2 234.4 536.2 229.9V199.3C536.2 187.1 526.4 177.3 514.2 177.3C502 177.3 492.2 187.1 492.2 199.3V218.3C492.2 227.1 499.4 234.3 508.2 234.3C517 234.3 524.2 227.1 524.2 218.3V203.3C524.2 198.9 520.6 195.3 516.2 195.3H499.2M456.2 277.4C480.2 277.4 480.2 241.4 504.2 241.4H508.2M456.2 277.4V253.4C456.2 251.2 454.4 249.4 452.2 249.4H438.2C436 249.4 434.2 251.2 434.2 253.4V269.4M456.2 277.4V285.4C456.2 287.6 454.4 289.4 452.2 289.4H438.2M428.2 282.4V273.4C428.2 271.2 430 269.4 432.2 269.4H438.2C441.5 269.4 444.2 272.1 444.2 275.4V283.4C444.2 286.7 441.5 289.4 438.2 289.4M438.2 289.4H372.2C371.1 289.4 370.2 288.5 370.2 287.4V277.4C370.2 276.3 371.1 275.4 372.2 275.4H392.2C398.8 275.4 404.2 270 404.2 263.4V221.4C404.2 214.8 398.8 209.4 392.2 209.4H328.2C321.6 209.4 316.2 214.8 316.2 221.4V263.4C316.2 270 321.6 275.4 328.2 275.4H348.2C349.3 275.4 350.2 276.3 350.2 277.4V287.4C350.2 288.5 349.3 289.4 348.2 289.4H309.1C306.1 289.4 303.3 287.7 301.9 285L286.7 254.7C282.6 246.6 274.3 241.4 265.2 241.4H257.5C254.5 241.4 252 238.9 252 235.9C252 232.9 254.5 230.4 257.5 230.4H263.1C268.1 230.4 272 226.2 272 221.2V213.4C272 212.3 272.9 211.4 274 211.4H276C278 211.4 281 210.4 279 204.4L276 195.4C271.9 183.2 264 177.4 252 177.4H244C233 177.4 224 186.4 224 197.4M640.2 56.3C640.2 56.3 638 63.1 637.2 65.3C636.2 68.3 638.2 69.3 640.2 69.3H642.2M673.2 57.4001C666.2 57.4001 662.2 53.4 658.2 49.4C654.2 45.4 650.2 41.4 643.2 41.4C636 41.4 630.2 47.2 630.2 54.4V74.4C630.2 82.7 636.9 89.4 645.2 89.4H648.2C650.4 89.4 652.2 91.2 652.2 93.4C652.2 95.6 650.4 97.4 648.2 97.4H639C629.9 97.4 621.6 102.5 617.5 110.7L604.1 137.4M647.2 35.4C654.2 35.4 658.2 39.4 662.2 43.4C666.2 47.4 670.2 51.4 677.2 51.4M651.2 29.3C658.2 29.3 662.2 33.3 666.2 37.3C670.2 41.3 674.2 45.3 681.2 45.3M700.2 129.3L684.2 81.3C681.2 73.3 672.2 73.3 672.2 73.3H666.2C662.9 73.3 660.2 76 660.2 79.3V83.3C660.2 88.8 664.7 93.3 670.2 93.3C672 93.3 673.5 94.5 673.9 96.2L676.2 105.3L685.6 143.1C687.1 149.1 692.5 153.3 698.7 153.3C706.1 153.3 712.2 147.3 712.2 139.8V111.3C712.2 103.6 705.9 97.3 698.2 97.3M678.2 74.3V66.3C678.2 64.1 676.4 62.3 674.2 62.3H668.2C666 62.3 664.2 64.1 664.2 66.3V73.3M716.2 265.4H747.2C750.4 265.4 753.4 266.7 755.7 268.9L766 279.2C767.2 280.4 767.2 282.4 766 283.6C765 284.6 763.3 284.8 762.1 284L752.2 277.4M754.2 166.3C754.2 166.3 756.4 173.1 757.2 175.3C758.2 178.3 756.2 179.3 754.2 179.3H750.2C746.9 179.3 744.2 182 744.2 185.3C744.2 186.4 743.3 187.3 742.2 187.3C738.9 187.3 736.2 184.6 736.2 181.3V171.3C736.2 166.9 732.6 163.3 728.2 163.3H726.2C725.1 163.3 724.2 162.4 724.2 161.3C724.2 150 733.6 140.9 744.9 141.3C755.7 141.7 764.2 150.9 764.2 161.8V184.3C764.2 192.5 757.7 199.2 749.5 199.3C733.7 199.5 720.7 184.9 720.2 176.7C720.1 174.6 721.7 172.5 723.8 172.3C726.2 172.1 728.2 173.9 728.2 176.3V199.1C728.2 203.6 725.6 207.8 721.6 209.8L709.5 215.8C701.4 219.9 696.2 228.2 696.2 237.3V269.3C696.2 275.9 701.6 281.3 708.2 281.3H739.2C742.4 281.3 745.4 282.6 747.7 284.8L756.1 293.2C758.5 295.6 762.3 296.2 765.3 294.7L776.1 289.3M817.2 97.3C817.2 97.3 815 104.1 814.2 106.3C813.2 109.3 815.2 110.3 817.2 110.3H819.2M849.2 96.3C843.2 96.3 839.2 92.3001 835.2 88.3001C831.2 84.3001 827.2 80.3 820.2 80.3C813 80.3 807.2 86.1 807.2 93.3V113.3C807.2 121.5 813.7 128.2 821.9 128.3C837.7 128.5 850.7 113.9 851.2 105.7C851.3 103.6 849.7 101.5 847.6 101.3C845.2 101.1 843.2 102.9 843.2 105.3V129.3M803.2 85.3C803.2 76.5 810.4 69.3 819.2 69.3C824.2 69.3 829.2 69.3 829.2 69.3C844.7 69.3 857.2 81.8 857.2 97.3V102.3C857.2 108.3 861.2 110.3 863.2 112.3C865.2 114.3 869.2 117.3 869.2 123.3C869.2 129.3 865.2 133.3 865.2 133.3M843.2 130.3C843.2 134.7 846.8 138.3 851.2 138.3H854.3C860.7 138.3 866.8 140.7 871.4 145.1L883.8 157C884.6 157.7 885.8 157.7 886.6 157L911.2 133.3C911.2 124.1 919.9 119.1 924.1 117.2C925.3 116.6 926.8 116.9 927.8 117.9C929.1 119.2 929.1 121.4 927.6 122.7L922.2 127.4C925.1 132.3 924.2 141 917.7 145.1C917.4 145.3 917.2 145.6 917.2 145.9V153.3C917.2 154.4 918.1 155.3 919.2 155.3H960.2M917.2 113.3V91.3C917.2 90.2 918.1 89.3 919.2 89.3H951.4C951.9 89.3 952.4 89.5 952.8 89.9L963.6 100.7C964 101.1 964.2 101.6 964.2 102.1V121.3M951.2 90.3V102.3H963.2M922.2 201.3C925.6 201.3 928.3 198.5 928.2 195.1C928.1 191.8 925.2 189.3 922 189.3H919.3C918 189.3 916.7 188.8 915.8 187.8L914.3 186.3C912.5 184.5 912 181.7 913.2 179.4L914.8 176.2C915.5 174.9 914.5 173.3 913 173.3H903.2M933.2 214.4C933.2 222.7 939.9 229.4 948.2 229.4C960.2 229.4 976.2 213.4 976.2 185.4C976.2 168.2 968.9 151 954.3 135.5C953.2 134.3 953.2 132.4 954.4 131.3C955.5 130.2 957.2 130.1 958.4 131L964.3 135.4V121.4C970.9 121.4 976.3 126.8 976.3 133.4V141.4M829.5 293.4C818.8 293.4 813.5 287.4 813.5 287.4L809.5 287.1C807.4 286.9 805.4 286.2 803.8 284.8C801.9 283.1 800.6 280.7 800.4 278.1V276C800.4 273.3 802.2 271.4 804.4 271.3L810.7 271.2C812.9 271 815.1 271.7 816.9 273L822.3 276.8C823 277.3 823.8 277.5 824.6 277.5H861.2L878.6 242.8C882.7 234.7 891 229.5 900.1 229.5H907.8C910.8 229.5 913.3 227 913.3 224C913.3 221 910.8 218.5 907.8 218.5H902.2C897.2 218.5 893.3 214.3 893.3 209.3V201.5C893.3 200.4 892.4 199.5 891.3 199.5H889.3C887.3 199.5 884.3 198.5 886.3 192.5L889.3 183.5C893.4 171.3 901.3 165.5 913.3 165.5C926.6 165.5 937.3 176.2 937.3 189.5C937.3 199.5 933.3 202.5 933.3 214.5M846.1 145.4C843.5 150.7 838.4 154.4 832.1 154.4C823.9 154.4 817.1 148.2 816.2 140.2C816.1 139.2 815.2 138.4 814.2 138.4H803.2C796.4 138.4 790.1 142.3 787.1 148.4L774.2 174.4M769.8 247.9C763.5 243.8 759.5 236.4 760.6 228.1C761.8 218.7 769.1 211.5 778.5 210.5C790.8 209.1 801.2 218.7 801.2 230.8C801.2 245.4 788.4 252 780.8 248.8C780.8 248.8 773.6 244 773.6 235.6C773.6 224.6 788.1 224.2 788 235.6C788 240.6 784.9 244.9 782 247.6L776 252.4L768.8 258.4H788.6C790.3 258.4 791.6 259.7 791.6 261.4C791.6 263.1 790.3 264.4 788.6 264.4H777.8C776.1 264.4 774.8 265.7 774.8 267.4C774.8 269.1 776.1 270.4 777.8 270.4H784.6M622.7 240.6V231C622.7 225.7 627 221.4 632.3 221.4C637.6 221.4 641.9 225.7 641.9 231V240.6H614.3C611.6 240.6 609.5 242.7 609.5 245.4V276.6C609.5 279.3 611.6 281.4 614.3 281.4H615.5C624.4 281.4 637.1 271.8 637.1 263.4C637.1 260.7 635 258.6 632.3 258.6C629.6 258.6 627.5 260.7 627.5 263.4C627.5 271.8 640.2 281.4 649.1 281.4H650.3C653 281.4 655.1 279.3 655.1 276.6V245.4C655.1 242.7 652.9 240.6 650.3 240.6C649.3 240.6 648.7 240.6 649.1 240.6M416.2 203.1V157.6M423.4 150.3V210.4M437.8 157.6V203.1M430.6 195.9V164.7M445 171.9V188.7M452.2 182.7V177.9M768.6 64.2001L777.6 55.2001C778.7 54.1001 778.5 52.3 777.3 51C776.1 49.8 774.2 49.6001 773.1 50.7001L758.7 65.1V69.6H763.1M782.8 50H787.2V54.5L772.8 68.9001C771.7 70.0001 769.9 69.8 768.6 68.6C767.4 67.4 767.2 65.5001 768.3 64.4001L777 55.7001M777.4 55.3C777.4 55.3 773.6 56.9 770.1 53.8C770.1 53.8 768.5 52.6 768.1 49.6M775.7 65.8C772.2 62.8 768.4 64.3 768.4 64.3M781.2 68.3V71.5C781.2 74.2 779.1 76.3 776.4 76.3H726C723.3 76.3 721.2 74.2 721.2 71.5V37.9C721.2 35.2 723.3 33.1 726 33.1H776.4C779.1 33.1 781.2 35.2 781.2 37.9V43.9M579.7 81.2001C577.1 82.0001 574.3 82.4001 571.5 82.4001C555.6 82.4001 542.7 69.5 542.7 53.6C542.7 37.7001 555.6 24.8 571.5 24.8C587.4 24.8 600.3 37.7001 600.3 53.6C600.3 67.2001 592.5 75.2001 582.9 75.2001C581.2 75.2001 579.5 74.9 577.9 74.3C571 71.8 565.3 66.7 562.1 60L561.7 59.2001C558.5 52.5001 558.2 44.9 560.7 37.9L560.9 37.6C561.2 36.7 561.9 36 562.8 35.5L564.5 34.7C566.3 33.8 568.5 34.6 569.4 36.4L571.8 41.5C572.7 43.3 571.9 45.5 570.1 46.4L568.4 47.2001C568.4 47.2001 567.3 47.7 566.6 48.1C565.5 48.6 564.9 53.2 566.9 57.5C568.9 61.7 573.3 63.8 574 63.5C574.7 63.2 575.7 62.7001 575.7 62.7001L577.4 61.9001C579.2 61.0001 581.4 61.8 582.3 63.6L584.8 68.9001M350.8 36.6V46.1L346 46.1C344.7 46.1 343.6 47.2 343.6 48.5V65.9001C343.6 66.9001 344.4 67.7001 345.4 67.7001H362.8C364.1 67.7001 365.2 66.6 365.2 65.3V48.5C365.2 47.2 364.1 46.1 362.8 46.1H357.2M361.6 46.1H370C371.3 46.1 372.4 45.0001 372.4 43.7001V36.5M365.2 57H374.8M374.8 57C374.8 59.651 376.949 61.8 379.6 61.8C382.251 61.8 384.4 59.651 384.4 57C384.4 54.3491 382.251 52.2001 379.6 52.2001C376.949 52.2001 374.8 54.3491 374.8 57ZM343.6 56.9001H334M347.2 67.7001H338.8C337.5 67.7001 336.4 68.8 336.4 70.1V77.3M358 67.7001V77.3M409.5 81.3C409.5 83.5092 407.709 85.3 405.5 85.3C403.291 85.3 401.5 83.5092 401.5 81.3C401.5 79.0909 403.291 77.3 405.5 77.3C407.709 77.3 409.5 79.0909 409.5 81.3ZM872.2 285.4C872.2 288.2 870 290.4 867.2 290.4C862.2 290.4 857.5 284.8 861.2 277.4C868.2 277.4 872.2 281.4 872.2 285.4ZM377.1 31.7C377.1 34.351 374.951 36.5 372.3 36.5C369.649 36.5 367.5 34.351 367.5 31.7C367.5 29.0491 369.649 26.9 372.3 26.9C374.951 26.9 377.1 29.0491 377.1 31.7ZM355.6 31.7C355.6 34.351 353.451 36.5 350.8 36.5C348.149 36.5 346 34.351 346 31.7C346 29.0491 348.149 26.9 350.8 26.9C353.451 26.9 355.6 29.0491 355.6 31.7ZM362.8 82.2001C362.8 84.851 360.651 87 358 87C355.349 87 353.2 84.851 353.2 82.2001C353.2 79.5491 355.349 77.4001 358 77.4001C360.651 77.4001 362.8 79.5491 362.8 82.2001ZM341.4 82.2001C341.4 84.851 339.251 87 336.6 87C333.949 87 331.8 84.851 331.8 82.2001C331.8 79.5491 333.949 77.4001 336.6 77.4001C339.251 77.4001 341.4 79.5491 341.4 82.2001ZM334 57C334 59.651 331.851 61.8 329.2 61.8C326.549 61.8 324.4 59.651 324.4 57C324.4 54.3491 326.549 52.2001 329.2 52.2001C331.851 52.2001 334 54.3491 334 57Z" stroke="url(#paint0_linear_1261_4261)" stroke-width="2.5" stroke-miterlimit="10" stroke-linecap="round" stroke-linejoin="round"/>
<path d="M422.2 62.3C423.305 62.3 424.2 61.4046 424.2 60.3C424.2 59.1955 423.305 58.3 422.2 58.3C421.096 58.3 420.2 59.1955 420.2 60.3C420.2 61.4046 421.096 62.3 422.2 62.3Z" fill="url(#paint1_linear_1261_4261)"/>
<path d="M536 112.3C537.105 112.3 538 111.405 538 110.3C538 109.195 537.105 108.3 536 108.3C534.895 108.3 534 109.195 534 110.3C534 111.405 534.895 112.3 536 112.3Z" fill="url(#paint2_linear_1261_4261)"/>
<path d="M267.2 200.3C268.305 200.3 269.2 199.405 269.2 198.3C269.2 197.195 268.305 196.3 267.2 196.3C266.096 196.3 265.2 197.195 265.2 198.3C265.2 199.405 266.096 200.3 267.2 200.3Z" fill="url(#paint3_linear_1261_4261)"/>
<path d="M228.2 110.3C229.305 110.3 230.2 109.405 230.2 108.3C230.2 107.195 229.305 106.3 228.2 106.3C227.096 106.3 226.2 107.195 226.2 108.3C226.2 109.405 227.096 110.3 228.2 110.3Z" fill="url(#paint4_linear_1261_4261)"/>
<path d="M512.2 207.3C513.305 207.3 514.2 206.405 514.2 205.3C514.2 204.195 513.305 203.3 512.2 203.3C511.096 203.3 510.2 204.195 510.2 205.3C510.2 206.405 511.096 207.3 512.2 207.3Z" fill="url(#paint5_linear_1261_4261)"/>
<path d="M650.2 60.3C651.305 60.3 652.2 59.4046 652.2 58.3C652.2 57.1955 651.305 56.3 650.2 56.3C649.096 56.3 648.2 57.1955 648.2 58.3C648.2 59.4046 649.096 60.3 650.2 60.3Z" fill="url(#paint6_linear_1261_4261)"/>
<path d="M744.2 170.3C745.305 170.3 746.2 169.405 746.2 168.3C746.2 167.195 745.305 166.3 744.2 166.3C743.096 166.3 742.2 167.195 742.2 168.3C742.2 169.405 743.096 170.3 744.2 170.3Z" fill="url(#paint7_linear_1261_4261)"/>
<path d="M827.2 101.3C828.305 101.3 829.2 100.405 829.2 99.3C829.2 98.1955 828.305 97.3 827.2 97.3C826.096 97.3 825.2 98.1955 825.2 99.3C825.2 100.405 826.096 101.3 827.2 101.3Z" fill="url(#paint8_linear_1261_4261)"/>
<path d="M898.2 188.3C899.305 188.3 900.2 187.405 900.2 186.3C900.2 185.195 899.305 184.3 898.2 184.3C897.096 184.3 896.2 185.195 896.2 186.3C896.2 187.405 897.096 188.3 898.2 188.3Z" fill="url(#paint9_linear_1261_4261)"/>
<path d="M459.4 182.4C460.504 182.4 461.4 181.505 461.4 180.4C461.4 179.296 460.504 178.4 459.4 178.4C458.295 178.4 457.4 179.296 457.4 180.4C457.4 181.505 458.295 182.4 459.4 182.4Z" fill="url(#paint10_linear_1261_4261)"/>
<path d="M466.6 182.4C467.705 182.4 468.6 181.505 468.6 180.4C468.6 179.296 467.705 178.4 466.6 178.4C465.496 178.4 464.6 179.296 464.6 180.4C464.6 181.505 465.496 182.4 466.6 182.4Z" fill="url(#paint11_linear_1261_4261)"/>
<defs>
<linearGradient id="paint0_linear_1261_4261" x1="572.249" y1="24.8" x2="572.249" y2="295.518" gradientUnits="userSpaceOnUse">
<stop stop-color="#3CC29A"/>
<stop offset="1" stop-color="#93C437"/>
</linearGradient>
<linearGradient id="paint1_linear_1261_4261" x1="563.2" y1="56.3" x2="563.2" y2="207.3" gradientUnits="userSpaceOnUse">
<stop stop-color="#3CC29A"/>
<stop offset="1" stop-color="#93C437"/>
</linearGradient>
<linearGradient id="paint2_linear_1261_4261" x1="563.2" y1="56.3" x2="563.2" y2="207.3" gradientUnits="userSpaceOnUse">
<stop stop-color="#3CC29A"/>
<stop offset="1" stop-color="#93C437"/>
</linearGradient>
<linearGradient id="paint3_linear_1261_4261" x1="563.2" y1="56.3" x2="563.2" y2="207.3" gradientUnits="userSpaceOnUse">
<stop stop-color="#3CC29A"/>
<stop offset="1" stop-color="#93C437"/>
</linearGradient>
<linearGradient id="paint4_linear_1261_4261" x1="563.2" y1="56.3" x2="563.2" y2="207.3" gradientUnits="userSpaceOnUse">
<stop stop-color="#3CC29A"/>
<stop offset="1" stop-color="#93C437"/>
</linearGradient>
<linearGradient id="paint5_linear_1261_4261" x1="563.2" y1="56.3" x2="563.2" y2="207.3" gradientUnits="userSpaceOnUse">
<stop stop-color="#3CC29A"/>
<stop offset="1" stop-color="#93C437"/>
</linearGradient>
<linearGradient id="paint6_linear_1261_4261" x1="563.2" y1="56.3" x2="563.2" y2="207.3" gradientUnits="userSpaceOnUse">
<stop stop-color="#3CC29A"/>
<stop offset="1" stop-color="#93C437"/>
</linearGradient>
<linearGradient id="paint7_linear_1261_4261" x1="563.2" y1="56.3" x2="563.2" y2="207.3" gradientUnits="userSpaceOnUse">
<stop stop-color="#3CC29A"/>
<stop offset="1" stop-color="#93C437"/>
</linearGradient>
<linearGradient id="paint8_linear_1261_4261" x1="563.2" y1="56.3" x2="563.2" y2="207.3" gradientUnits="userSpaceOnUse">
<stop stop-color="#3CC29A"/>
<stop offset="1" stop-color="#93C437"/>
</linearGradient>
<linearGradient id="paint9_linear_1261_4261" x1="563.2" y1="56.3" x2="563.2" y2="207.3" gradientUnits="userSpaceOnUse">
<stop stop-color="#3CC29A"/>
<stop offset="1" stop-color="#93C437"/>
</linearGradient>
<linearGradient id="paint10_linear_1261_4261" x1="563.2" y1="56.3" x2="563.2" y2="207.3" gradientUnits="userSpaceOnUse">
<stop stop-color="#3CC29A"/>
<stop offset="1" stop-color="#93C437"/>
</linearGradient>
<linearGradient id="paint11_linear_1261_4261" x1="563.2" y1="56.3" x2="563.2" y2="207.3" gradientUnits="userSpaceOnUse">
<stop stop-color="#3CC29A"/>
<stop offset="1" stop-color="#93C437"/>
</linearGradient>
</defs>
</svg>
