<svg width="559" height="500" viewBox="0 0 559 500" fill="none" xmlns="http://www.w3.org/2000/svg">
<rect width="559" height="500" rx="16" fill="#1A1A1A"/>
<path d="M160.531 115.52H170.691C171.171 118.773 172.717 121.28 175.331 123.04C177.731 124.64 180.797 125.44 184.531 125.44C189.064 125.44 192.477 124.507 194.771 122.64C196.584 121.093 197.491 119.12 197.491 116.72C197.491 113.84 196.104 111.627 193.331 110.08C191.091 108.747 186.931 107.28 180.851 105.68C174.131 103.92 169.384 101.733 166.611 99.12C163.891 96.5067 162.531 93.04 162.531 88.72C162.531 83.7067 164.637 79.8133 168.851 77.04C172.691 74.48 177.811 73.2 184.211 73.2C191.037 73.2 196.504 74.7733 200.611 77.92C204.184 80.6933 206.317 84.3733 207.011 88.96H196.931C196.557 86.24 195.117 84.16 192.611 82.72C190.371 81.4933 187.517 80.88 184.051 80.88C179.997 80.88 177.011 81.6267 175.091 83.12C173.597 84.2933 172.851 85.8667 172.851 87.84C172.851 90.2933 173.891 92.16 175.971 93.44C177.837 94.6133 181.384 95.8667 186.611 97.2C194.451 99.28 199.971 101.76 203.171 104.64C206.264 107.467 207.811 111.227 207.811 115.92C207.811 121.147 205.597 125.36 201.171 128.56C196.957 131.653 191.437 133.2 184.611 133.2C177.517 133.2 171.757 131.387 167.331 127.76C163.544 124.613 161.277 120.533 160.531 115.52Z" fill="#CACACA"/>
<path d="M247.138 114.364H249.028C249.244 115.822 250.432 116.758 252.358 116.758C254.518 116.758 255.616 115.714 255.616 114.49C255.616 113.284 255.022 112.726 251.53 111.772C248.524 110.944 247.588 109.882 247.588 108.1C247.588 106.21 249.262 104.77 252.232 104.77C255.004 104.77 257.038 106.084 257.362 108.28H255.472C255.274 107.02 254.176 106.282 252.232 106.282C250.252 106.282 249.424 107.056 249.424 108.028C249.424 109.036 249.856 109.522 252.826 110.35C256.426 111.358 257.452 112.42 257.452 114.418C257.452 116.434 255.616 118.27 252.394 118.27C249.604 118.27 247.498 116.74 247.138 114.364ZM263.704 116.614V118.09C263.236 118.216 262.858 118.27 262.426 118.27C260.77 118.27 259.924 117.226 259.924 115.678V110.116H258.538V108.64H259.924L260.032 106.39H261.652V108.64H263.668V110.116H261.652V115.714C261.652 116.416 261.994 116.758 262.642 116.758C262.948 116.758 263.182 116.74 263.704 116.614ZM267.057 118H265.329V108.64H266.751L266.985 110.026C267.507 108.946 268.317 108.37 269.361 108.37C269.811 108.37 270.171 108.442 270.387 108.496V110.224C270.045 110.134 269.703 110.062 269.289 110.062C268.101 110.062 267.057 110.944 267.057 113.302V118ZM271.029 113.32C271.029 109.954 273.117 108.37 275.655 108.37C278.211 108.37 280.263 109.954 280.263 113.32C280.263 116.596 278.283 118.27 275.637 118.27C273.027 118.27 271.029 116.56 271.029 113.32ZM272.829 113.32C272.829 115.642 274.053 116.866 275.673 116.866C277.329 116.866 278.463 115.642 278.463 113.32C278.463 110.944 277.257 109.774 275.655 109.774C274.053 109.774 272.829 110.98 272.829 113.32ZM283.967 118H282.239V105.04H283.967V112.276L287.639 108.64H289.907L285.695 112.708L290.429 118H288.125L283.967 113.284V118ZM297.417 115.3H299.289C298.821 117.01 297.345 118.27 295.095 118.27C292.431 118.27 290.505 116.614 290.505 113.32C290.505 110.062 292.413 108.37 295.005 108.37C297.597 108.37 299.397 109.918 299.397 113.698H292.269C292.413 115.858 293.583 116.812 295.149 116.812C296.283 116.812 297.147 116.164 297.417 115.3ZM292.341 112.33H297.633C297.507 110.584 296.481 109.756 295.041 109.756C293.655 109.756 292.611 110.602 292.341 112.33ZM318.188 108.64H319.916L317.18 118H315.182L312.914 110.602L310.682 118H308.612L305.876 108.64H307.676L309.692 116.164L311.924 108.64H313.994L316.19 116.128L318.188 108.64ZM327.599 115.3H329.471C329.003 117.01 327.527 118.27 325.277 118.27C322.613 118.27 320.687 116.614 320.687 113.32C320.687 110.062 322.595 108.37 325.187 108.37C327.779 108.37 329.579 109.918 329.579 113.698H322.451C322.595 115.858 323.765 116.812 325.331 116.812C326.465 116.812 327.329 116.164 327.599 115.3ZM322.523 112.33H327.815C327.689 110.584 326.663 109.756 325.223 109.756C323.837 109.756 322.793 110.602 322.523 112.33ZM333.487 107.074H331.543V105.04H333.487V107.074ZM333.379 118H331.651V108.64H333.379V118ZM335.797 118.63H337.651C337.813 119.566 338.605 120.142 339.973 120.142C341.719 120.142 342.619 119.26 342.619 117.712V116.506C341.989 117.244 340.945 117.73 339.505 117.73C337.309 117.73 335.365 116.092 335.365 113.104C335.365 110.17 337.075 108.37 339.613 108.37C341.071 108.37 342.061 109 342.655 109.882L342.925 108.64H344.347V117.802C344.347 119.926 342.799 121.51 340.027 121.51C337.525 121.51 336.103 120.376 335.797 118.63ZM337.165 113.14C337.165 115.12 338.389 116.254 339.883 116.254C341.665 116.254 342.709 115.084 342.709 113.194C342.709 110.998 341.557 109.846 339.883 109.846C338.299 109.846 337.165 110.908 337.165 113.14ZM348.602 118H346.874V105.04H348.602V109.702C349.286 108.82 350.276 108.37 351.338 108.37C353.372 108.37 354.65 109.612 354.65 111.898V118H352.922V111.916C352.922 110.512 352.202 109.846 350.924 109.846C349.646 109.846 348.602 110.746 348.602 112.294V118ZM361.262 116.614V118.09C360.794 118.216 360.416 118.27 359.984 118.27C358.328 118.27 357.482 117.226 357.482 115.678V110.116H356.096V108.64H357.482L357.59 106.39H359.21V108.64H361.226V110.116H359.21V115.714C359.21 116.416 359.552 116.758 360.2 116.758C360.506 116.758 360.74 116.74 361.262 116.614ZM365.371 118H363.283V115.912H365.371V118ZM365.371 110.728H363.283V108.64H365.371V110.728ZM375.318 108.694H373.5C373.77 106.678 375.444 105.13 377.928 105.13C380.268 105.13 382.032 106.498 382.032 108.712C382.032 110.422 381.294 111.52 379.026 113.68L376.146 116.416H381.978V118H373.806V116.416L377.91 112.474C379.62 110.836 380.268 109.954 380.268 108.73C380.268 107.452 379.386 106.588 377.892 106.588C376.47 106.588 375.462 107.38 375.318 108.694ZM386.957 118H384.869V115.912H386.957V118ZM389.528 114.94H391.364C391.598 115.966 392.498 116.812 394.028 116.812C395.576 116.812 396.764 115.732 396.764 113.842C396.764 111.988 395.684 110.98 394.064 110.98C393.2 110.98 392.228 111.322 391.544 112.132H390.014L390.284 105.4H398.024V106.858H391.85L391.706 110.548C392.408 109.99 393.29 109.63 394.46 109.63C396.656 109.63 398.546 111.088 398.546 113.914C398.546 116.254 396.89 118.27 394.01 118.27C391.418 118.27 389.816 116.65 389.528 114.94ZM258.64 143.034V150H257.29L257.038 148.452C256.228 149.586 254.788 150.27 253.06 150.27C249.838 150.27 247.318 147.858 247.318 143.502C247.318 139.056 249.964 136.77 253.258 136.77C256.21 136.77 258.316 138.552 258.622 140.838H256.822C256.498 139.254 255.166 138.3 253.258 138.3C250.99 138.3 249.19 139.992 249.19 143.502C249.19 146.994 251.152 148.758 253.276 148.758C255.292 148.758 256.984 147.426 256.984 145.518V144.51H253.186V143.034H258.64ZM262.785 150H261.057V140.64H262.479L262.713 142.026C263.235 140.946 264.045 140.37 265.089 140.37C265.539 140.37 265.899 140.442 266.115 140.496V142.224C265.773 142.134 265.431 142.062 265.017 142.062C263.829 142.062 262.785 142.944 262.785 145.302V150ZM269.309 139.074H267.365V137.04H269.309V139.074ZM269.201 150H267.473V140.64H269.201V150ZM280.169 150H278.747L278.441 148.686C277.811 149.604 276.785 150.27 275.327 150.27C272.969 150.27 271.187 148.542 271.187 145.374C271.187 142.026 272.933 140.37 275.435 140.37C276.857 140.37 277.829 140.982 278.441 141.828V137.04H280.169V150ZM272.987 145.41C272.987 147.66 274.139 148.794 275.705 148.794C277.487 148.794 278.531 147.39 278.531 145.428C278.531 143.142 277.433 141.846 275.705 141.846C274.067 141.846 272.987 142.962 272.987 145.41ZM285.18 150H283.092V147.912H285.18V150ZM285.18 142.728H283.092V140.64H285.18V142.728ZM299.159 150H297.449V139.2L294.623 140.658V138.876L297.467 137.4H299.159V150ZM305.92 140.694H304.102C304.372 138.678 306.046 137.13 308.53 137.13C310.87 137.13 312.634 138.498 312.634 140.712C312.634 142.422 311.896 143.52 309.628 145.68L306.748 148.416H312.58V150H304.408V148.416L308.512 144.474C310.222 142.836 310.87 141.954 310.87 140.73C310.87 139.452 309.988 138.588 308.494 138.588C307.072 138.588 306.064 139.38 305.92 140.694ZM319.215 150.27C316.659 150.27 314.715 148.182 314.715 143.664C314.715 139.02 316.677 137.13 319.215 137.13C321.753 137.13 323.715 139.02 323.715 143.664C323.715 148.182 321.771 150.27 319.215 150.27ZM319.215 148.83C321.051 148.83 321.951 147.192 321.951 143.664C321.951 140.154 321.051 138.57 319.215 138.57C317.379 138.57 316.479 140.154 316.479 143.664C316.479 147.192 317.379 148.83 319.215 148.83ZM338.806 140.64L335.674 145.014L339.346 150H337.24L334.702 146.382L332.218 150H330.184L333.676 145.14L330.4 140.64H332.47L334.702 143.79L336.826 140.64H338.806ZM351.858 150H350.148V139.2L347.322 140.658V138.876L350.166 137.4H351.858V150ZM358.619 140.694H356.801C357.071 138.678 358.745 137.13 361.229 137.13C363.569 137.13 365.333 138.498 365.333 140.712C365.333 142.422 364.595 143.52 362.327 145.68L359.447 148.416H365.279V150H357.107V148.416L361.211 144.474C362.921 142.836 363.569 141.954 363.569 140.73C363.569 139.452 362.687 138.588 361.193 138.588C359.771 138.588 358.763 139.38 358.619 140.694ZM371.914 150.27C369.358 150.27 367.414 148.182 367.414 143.664C367.414 139.02 369.376 137.13 371.914 137.13C374.452 137.13 376.414 139.02 376.414 143.664C376.414 148.182 374.47 150.27 371.914 150.27ZM371.914 148.83C373.75 148.83 374.65 147.192 374.65 143.664C374.65 140.154 373.75 138.57 371.914 138.57C370.078 138.57 369.178 140.154 369.178 143.664C369.178 147.192 370.078 148.83 371.914 148.83Z" fill="white" fill-opacity="0.95"/>
<path d="M244.547 61.72H247.619V79H244.547V61.72ZM253.682 61.72V79H250.802V61.72H253.682ZM259.635 61.72V79H256.755V61.72H259.635ZM262.588 66.52H265.468V74.728C265.468 76.328 266.252 77.128 267.82 77.128C268.732 77.128 269.444 76.8 269.956 76.144C270.372 75.584 270.58 74.896 270.58 74.08V66.52H273.46V79H271.084L270.772 77.608C269.876 78.776 268.628 79.36 267.028 79.36C265.556 79.36 264.428 78.912 263.644 78.016C262.94 77.2 262.588 76.08 262.588 74.656V66.52ZM278.6 75.448C278.824 76.648 279.728 77.248 281.312 77.248C282.192 77.248 282.856 77.08 283.304 76.744C283.672 76.456 283.856 76.08 283.856 75.616C283.856 75.024 283.536 74.584 282.896 74.296C282.528 74.136 281.72 73.912 280.472 73.624C278.936 73.272 277.84 72.792 277.184 72.184C276.528 71.592 276.2 70.816 276.2 69.856C276.2 68.64 276.696 67.704 277.688 67.048C278.568 66.456 279.776 66.16 281.312 66.16C282.896 66.16 284.168 66.536 285.128 67.288C285.96 67.928 286.48 68.792 286.688 69.88H283.76C283.52 68.808 282.688 68.272 281.264 68.272C279.824 68.272 279.104 68.712 279.104 69.592C279.104 70.04 279.288 70.376 279.656 70.6C280.024 70.824 280.768 71.072 281.888 71.344C283.616 71.744 284.816 72.192 285.488 72.688C286.336 73.312 286.76 74.192 286.76 75.328C286.76 76.624 286.232 77.64 285.176 78.376C284.216 79.032 282.92 79.36 281.288 79.36C279.576 79.36 278.208 78.952 277.184 78.136C276.32 77.448 275.816 76.552 275.672 75.448H278.6ZM295.408 76.888V79.072C294.736 79.264 294.096 79.36 293.488 79.36C292.256 79.36 291.32 78.992 290.68 78.256C290.136 77.632 289.864 76.792 289.864 75.736V68.728H287.992V66.52H289.864L290.056 63.52H292.744V66.52H295.384V68.728H292.744V75.832C292.744 76.664 293.168 77.08 294.016 77.08C294.384 77.08 294.848 77.016 295.408 76.888ZM304.692 66.328V69.112C304.164 68.952 303.66 68.872 303.18 68.872C302.284 68.872 301.564 69.264 301.02 70.048C300.508 70.8 300.252 71.84 300.252 73.168V79H297.372V66.52H299.748L300.108 68.392C300.812 66.904 301.876 66.16 303.3 66.16C303.812 66.16 304.276 66.216 304.692 66.328ZM308.918 70.048H305.918C306.126 68.752 306.774 67.76 307.862 67.072C308.838 66.464 310.062 66.16 311.534 66.16C313.31 66.16 314.67 66.616 315.614 67.528C316.43 68.312 316.838 69.328 316.838 70.576V79H314.534L314.174 77.464C313.198 78.728 311.814 79.36 310.022 79.36C308.598 79.36 307.494 78.976 306.71 78.208C306.022 77.536 305.678 76.68 305.678 75.64C305.678 74.472 306.102 73.56 306.95 72.904C307.718 72.296 308.91 71.856 310.526 71.584L313.958 71.008V70.408C313.958 69.656 313.71 69.096 313.214 68.728C312.782 68.392 312.19 68.224 311.438 68.224C309.95 68.224 309.11 68.832 308.918 70.048ZM313.958 72.904L311.246 73.384C310.318 73.56 309.654 73.808 309.254 74.128C308.854 74.432 308.654 74.864 308.654 75.424C308.654 76.592 309.366 77.176 310.79 77.176C311.718 77.176 312.502 76.872 313.142 76.264C313.686 75.736 313.958 75.12 313.958 74.416V72.904ZM325.97 76.888V79.072C325.298 79.264 324.658 79.36 324.05 79.36C322.818 79.36 321.882 78.992 321.242 78.256C320.698 77.632 320.426 76.792 320.426 75.736V68.728H318.554V66.52H320.426L320.618 63.52H323.306V66.52H325.946V68.728H323.306V75.832C323.306 76.664 323.73 77.08 324.578 77.08C324.946 77.08 325.41 77.016 325.97 76.888ZM330.958 64.624H327.79V61.72H330.958V64.624ZM330.814 79H327.934V66.52H330.814V79ZM333.264 72.736C333.264 70.464 333.936 68.744 335.28 67.576C336.384 66.632 337.824 66.16 339.6 66.16C341.664 66.16 343.256 66.784 344.376 68.032C345.416 69.168 345.936 70.736 345.936 72.736C345.936 75.008 345.28 76.728 343.968 77.896C342.864 78.872 341.408 79.36 339.6 79.36C337.552 79.36 335.96 78.72 334.824 77.44C333.784 76.272 333.264 74.704 333.264 72.736ZM339.624 77.224C340.76 77.224 341.608 76.808 342.168 75.976C342.696 75.224 342.96 74.144 342.96 72.736C342.96 71.136 342.608 69.96 341.904 69.208C341.344 68.6 340.576 68.296 339.6 68.296C338.48 68.296 337.632 68.704 337.056 69.52C336.512 70.272 336.24 71.344 336.24 72.736C336.24 74.32 336.592 75.496 337.296 76.264C337.888 76.904 338.664 77.224 339.624 77.224ZM351.252 79H348.372V66.52H350.748L351.06 68.008C351.972 66.776 353.236 66.16 354.852 66.16C356.356 66.16 357.508 66.624 358.308 67.552C359.012 68.368 359.364 69.48 359.364 70.888V79H356.484V70.96C356.484 69.248 355.692 68.392 354.108 68.392C353.244 68.392 352.54 68.696 351.996 69.304C351.5 69.864 351.252 70.568 351.252 71.416V79ZM368.394 74.056H371.442C371.586 75.032 372.05 75.784 372.834 76.312C373.554 76.792 374.474 77.032 375.594 77.032C376.954 77.032 377.978 76.752 378.666 76.192C379.21 75.728 379.482 75.136 379.482 74.416C379.482 73.552 379.066 72.888 378.234 72.424C377.562 72.024 376.314 71.584 374.49 71.104C372.474 70.576 371.05 69.92 370.218 69.136C369.402 68.352 368.994 67.312 368.994 66.016C368.994 64.512 369.626 63.344 370.89 62.512C372.042 61.744 373.578 61.36 375.498 61.36C377.546 61.36 379.186 61.832 380.418 62.776C381.49 63.608 382.13 64.712 382.338 66.088H379.314C379.202 65.272 378.77 64.648 378.018 64.216C377.346 63.848 376.49 63.664 375.45 63.664C374.234 63.664 373.338 63.888 372.762 64.336C372.314 64.688 372.09 65.16 372.09 65.752C372.09 66.488 372.402 67.048 373.026 67.432C373.586 67.784 374.65 68.16 376.218 68.56C378.57 69.184 380.226 69.928 381.186 70.792C382.114 71.64 382.578 72.768 382.578 74.176C382.578 75.744 381.914 77.008 380.586 77.968C379.322 78.896 377.666 79.36 375.618 79.36C373.49 79.36 371.762 78.816 370.434 77.728C369.298 76.784 368.618 75.56 368.394 74.056Z" fill="white" fill-opacity="0.95"/>
<path d="M188.891 276H179.931L163.691 233.12V276H154.411V218.4H167.371L184.651 265.2L201.051 218.4H213.771V276H204.331V233.28L188.891 276Z" fill="white" fill-opacity="0.95"/>
<path d="M256.138 254.364H258.028C258.244 255.822 259.432 256.758 261.358 256.758C263.518 256.758 264.616 255.714 264.616 254.49C264.616 253.284 264.022 252.726 260.53 251.772C257.524 250.944 256.588 249.882 256.588 248.1C256.588 246.21 258.262 244.77 261.232 244.77C264.004 244.77 266.038 246.084 266.362 248.28H264.472C264.274 247.02 263.176 246.282 261.232 246.282C259.252 246.282 258.424 247.056 258.424 248.028C258.424 249.036 258.856 249.522 261.826 250.35C265.426 251.358 266.452 252.42 266.452 254.418C266.452 256.434 264.616 258.27 261.394 258.27C258.604 258.27 256.498 256.74 256.138 254.364ZM272.704 256.614V258.09C272.236 258.216 271.858 258.27 271.426 258.27C269.77 258.27 268.924 257.226 268.924 255.678V250.116H267.538V248.64H268.924L269.032 246.39H270.652V248.64H272.668V250.116H270.652V255.714C270.652 256.416 270.994 256.758 271.642 256.758C271.948 256.758 272.182 256.74 272.704 256.614ZM276.057 258H274.329V248.64H275.751L275.985 250.026C276.507 248.946 277.317 248.37 278.361 248.37C278.811 248.37 279.171 248.442 279.387 248.496V250.224C279.045 250.134 278.703 250.062 278.289 250.062C277.101 250.062 276.057 250.944 276.057 253.302V258ZM280.029 253.32C280.029 249.954 282.117 248.37 284.655 248.37C287.211 248.37 289.263 249.954 289.263 253.32C289.263 256.596 287.283 258.27 284.637 258.27C282.027 258.27 280.029 256.56 280.029 253.32ZM281.829 253.32C281.829 255.642 283.053 256.866 284.673 256.866C286.329 256.866 287.463 255.642 287.463 253.32C287.463 250.944 286.257 249.774 284.655 249.774C283.053 249.774 281.829 250.98 281.829 253.32ZM292.967 258H291.239V245.04H292.967V252.276L296.639 248.64H298.907L294.695 252.708L299.429 258H297.125L292.967 253.284V258ZM306.417 255.3H308.289C307.821 257.01 306.345 258.27 304.095 258.27C301.431 258.27 299.505 256.614 299.505 253.32C299.505 250.062 301.413 248.37 304.005 248.37C306.597 248.37 308.397 249.918 308.397 253.698H301.269C301.413 255.858 302.583 256.812 304.149 256.812C305.283 256.812 306.147 256.164 306.417 255.3ZM301.341 252.33H306.633C306.507 250.584 305.481 249.756 304.041 249.756C302.655 249.756 301.611 250.602 301.341 252.33ZM327.188 248.64H328.916L326.18 258H324.182L321.914 250.602L319.682 258H317.612L314.876 248.64H316.676L318.692 256.164L320.924 248.64H322.994L325.19 256.128L327.188 248.64ZM336.599 255.3H338.471C338.003 257.01 336.527 258.27 334.277 258.27C331.613 258.27 329.687 256.614 329.687 253.32C329.687 250.062 331.595 248.37 334.187 248.37C336.779 248.37 338.579 249.918 338.579 253.698H331.451C331.595 255.858 332.765 256.812 334.331 256.812C335.465 256.812 336.329 256.164 336.599 255.3ZM331.523 252.33H336.815C336.689 250.584 335.663 249.756 334.223 249.756C332.837 249.756 331.793 250.602 331.523 252.33ZM342.487 247.074H340.543V245.04H342.487V247.074ZM342.379 258H340.651V248.64H342.379V258ZM344.797 258.63H346.651C346.813 259.566 347.605 260.142 348.973 260.142C350.719 260.142 351.619 259.26 351.619 257.712V256.506C350.989 257.244 349.945 257.73 348.505 257.73C346.309 257.73 344.365 256.092 344.365 253.104C344.365 250.17 346.075 248.37 348.613 248.37C350.071 248.37 351.061 249 351.655 249.882L351.925 248.64H353.347V257.802C353.347 259.926 351.799 261.51 349.027 261.51C346.525 261.51 345.103 260.376 344.797 258.63ZM346.165 253.14C346.165 255.12 347.389 256.254 348.883 256.254C350.665 256.254 351.709 255.084 351.709 253.194C351.709 250.998 350.557 249.846 348.883 249.846C347.299 249.846 346.165 250.908 346.165 253.14ZM357.602 258H355.874V245.04H357.602V249.702C358.286 248.82 359.276 248.37 360.338 248.37C362.372 248.37 363.65 249.612 363.65 251.898V258H361.922V251.916C361.922 250.512 361.202 249.846 359.924 249.846C358.646 249.846 357.602 250.746 357.602 252.294V258ZM370.262 256.614V258.09C369.794 258.216 369.416 258.27 368.984 258.27C367.328 258.27 366.482 257.226 366.482 255.678V250.116H365.096V248.64H366.482L366.59 246.39H368.21V248.64H370.226V250.116H368.21V255.714C368.21 256.416 368.552 256.758 369.2 256.758C369.506 256.758 369.74 256.74 370.262 256.614ZM374.371 258H372.283V255.912H374.371V258ZM374.371 250.728H372.283V248.64H374.371V250.728ZM384.318 248.694H382.5C382.77 246.678 384.444 245.13 386.928 245.13C389.268 245.13 391.032 246.498 391.032 248.712C391.032 250.422 390.294 251.52 388.026 253.68L385.146 256.416H390.978V258H382.806V256.416L386.91 252.474C388.62 250.836 389.268 249.954 389.268 248.73C389.268 247.452 388.386 246.588 386.892 246.588C385.47 246.588 384.462 247.38 384.318 248.694ZM395.957 258H393.869V255.912H395.957V258ZM398.528 254.94H400.364C400.598 255.966 401.498 256.812 403.028 256.812C404.576 256.812 405.764 255.732 405.764 253.842C405.764 251.988 404.684 250.98 403.064 250.98C402.2 250.98 401.228 251.322 400.544 252.132H399.014L399.284 245.4H407.024V246.858H400.85L400.706 250.548C401.408 249.99 402.29 249.63 403.46 249.63C405.656 249.63 407.546 251.088 407.546 253.914C407.546 256.254 405.89 258.27 403.01 258.27C400.418 258.27 398.816 256.65 398.528 254.94ZM267.64 283.034V290H266.29L266.038 288.452C265.228 289.586 263.788 290.27 262.06 290.27C258.838 290.27 256.318 287.858 256.318 283.502C256.318 279.056 258.964 276.77 262.258 276.77C265.21 276.77 267.316 278.552 267.622 280.838H265.822C265.498 279.254 264.166 278.3 262.258 278.3C259.99 278.3 258.19 279.992 258.19 283.502C258.19 286.994 260.152 288.758 262.276 288.758C264.292 288.758 265.984 287.426 265.984 285.518V284.51H262.186V283.034H267.64ZM271.785 290H270.057V280.64H271.479L271.713 282.026C272.235 280.946 273.045 280.37 274.089 280.37C274.539 280.37 274.899 280.442 275.115 280.496V282.224C274.773 282.134 274.431 282.062 274.017 282.062C272.829 282.062 271.785 282.944 271.785 285.302V290ZM278.309 279.074H276.365V277.04H278.309V279.074ZM278.201 290H276.473V280.64H278.201V290ZM289.169 290H287.747L287.441 288.686C286.811 289.604 285.785 290.27 284.327 290.27C281.969 290.27 280.187 288.542 280.187 285.374C280.187 282.026 281.933 280.37 284.435 280.37C285.857 280.37 286.829 280.982 287.441 281.828V277.04H289.169V290ZM281.987 285.41C281.987 287.66 283.139 288.794 284.705 288.794C286.487 288.794 287.531 287.39 287.531 285.428C287.531 283.142 286.433 281.846 284.705 281.846C283.067 281.846 281.987 282.962 281.987 285.41ZM294.18 290H292.092V287.912H294.18V290ZM294.18 282.728H292.092V280.64H294.18V282.728ZM308.159 290H306.449V279.2L303.623 280.658V278.876L306.467 277.4H308.159V290ZM313.462 287.57H315.37C315.604 288.38 316.288 288.866 317.35 288.866C318.88 288.866 320.014 287.732 320.194 284.024C319.438 285.23 318.214 285.644 317.206 285.644C314.902 285.644 313.282 284.06 313.282 281.414C313.282 278.804 315.1 277.13 317.494 277.13C320.41 277.13 321.922 279.146 321.922 283.196C321.922 288.722 319.78 290.27 317.278 290.27C315.334 290.27 313.876 289.208 313.462 287.57ZM320.032 281.468C320.032 279.596 318.934 278.57 317.494 278.57C316.108 278.57 315.028 279.578 315.028 281.324C315.028 283.214 316.108 284.204 317.512 284.204C319.204 284.204 320.032 282.926 320.032 281.468ZM325.713 280.694H323.895C324.165 278.678 325.839 277.13 328.323 277.13C330.663 277.13 332.427 278.498 332.427 280.712C332.427 282.422 331.689 283.52 329.421 285.68L326.541 288.416H332.373V290H324.201V288.416L328.305 284.474C330.015 282.836 330.663 281.954 330.663 280.73C330.663 279.452 329.781 278.588 328.287 278.588C326.865 278.588 325.857 279.38 325.713 280.694ZM347.806 280.64L344.674 285.014L348.346 290H346.24L343.702 286.382L341.218 290H339.184L342.676 285.14L339.4 280.64H341.47L343.702 283.79L345.826 280.64H347.806ZM355.461 290H353.751V279.2L350.925 280.658V278.876L353.769 277.4H355.461V290ZM360.764 287.57H362.672C362.906 288.38 363.59 288.866 364.652 288.866C366.182 288.866 367.316 287.732 367.496 284.024C366.74 285.23 365.516 285.644 364.508 285.644C362.204 285.644 360.584 284.06 360.584 281.414C360.584 278.804 362.402 277.13 364.796 277.13C367.712 277.13 369.224 279.146 369.224 283.196C369.224 288.722 367.082 290.27 364.58 290.27C362.636 290.27 361.178 289.208 360.764 287.57ZM367.334 281.468C367.334 279.596 366.236 278.57 364.796 278.57C363.41 278.57 362.33 279.578 362.33 281.324C362.33 283.214 363.41 284.204 364.814 284.204C366.506 284.204 367.334 282.926 367.334 281.468ZM373.015 280.694H371.197C371.467 278.678 373.141 277.13 375.625 277.13C377.965 277.13 379.729 278.498 379.729 280.712C379.729 282.422 378.991 283.52 376.723 285.68L373.843 288.416H379.675V290H371.503V288.416L375.607 284.474C377.317 282.836 377.965 281.954 377.965 280.73C377.965 279.452 377.083 278.588 375.589 278.588C374.167 278.588 373.159 279.38 373.015 280.694Z" fill="white" fill-opacity="0.95"/>
<path d="M253.547 201.72H256.619V219H253.547V201.72ZM262.682 201.72V219H259.802V201.72H262.682ZM268.635 201.72V219H265.755V201.72H268.635ZM271.588 206.52H274.468V214.728C274.468 216.328 275.252 217.128 276.82 217.128C277.732 217.128 278.444 216.8 278.956 216.144C279.372 215.584 279.58 214.896 279.58 214.08V206.52H282.46V219H280.084L279.772 217.608C278.876 218.776 277.628 219.36 276.028 219.36C274.556 219.36 273.428 218.912 272.644 218.016C271.94 217.2 271.588 216.08 271.588 214.656V206.52ZM287.6 215.448C287.824 216.648 288.728 217.248 290.312 217.248C291.192 217.248 291.856 217.08 292.304 216.744C292.672 216.456 292.856 216.08 292.856 215.616C292.856 215.024 292.536 214.584 291.896 214.296C291.528 214.136 290.72 213.912 289.472 213.624C287.936 213.272 286.84 212.792 286.184 212.184C285.528 211.592 285.2 210.816 285.2 209.856C285.2 208.64 285.696 207.704 286.688 207.048C287.568 206.456 288.776 206.16 290.312 206.16C291.896 206.16 293.168 206.536 294.128 207.288C294.96 207.928 295.48 208.792 295.688 209.88H292.76C292.52 208.808 291.688 208.272 290.264 208.272C288.824 208.272 288.104 208.712 288.104 209.592C288.104 210.04 288.288 210.376 288.656 210.6C289.024 210.824 289.768 211.072 290.888 211.344C292.616 211.744 293.816 212.192 294.488 212.688C295.336 213.312 295.76 214.192 295.76 215.328C295.76 216.624 295.232 217.64 294.176 218.376C293.216 219.032 291.92 219.36 290.288 219.36C288.576 219.36 287.208 218.952 286.184 218.136C285.32 217.448 284.816 216.552 284.672 215.448H287.6ZM304.408 216.888V219.072C303.736 219.264 303.096 219.36 302.488 219.36C301.256 219.36 300.32 218.992 299.68 218.256C299.136 217.632 298.864 216.792 298.864 215.736V208.728H296.992V206.52H298.864L299.056 203.52H301.744V206.52H304.384V208.728H301.744V215.832C301.744 216.664 302.168 217.08 303.016 217.08C303.384 217.08 303.848 217.016 304.408 216.888ZM313.692 206.328V209.112C313.164 208.952 312.66 208.872 312.18 208.872C311.284 208.872 310.564 209.264 310.02 210.048C309.508 210.8 309.252 211.84 309.252 213.168V219H306.372V206.52H308.748L309.108 208.392C309.812 206.904 310.876 206.16 312.3 206.16C312.812 206.16 313.276 206.216 313.692 206.328ZM317.918 210.048H314.918C315.126 208.752 315.774 207.76 316.862 207.072C317.838 206.464 319.062 206.16 320.534 206.16C322.31 206.16 323.67 206.616 324.614 207.528C325.43 208.312 325.838 209.328 325.838 210.576V219H323.534L323.174 217.464C322.198 218.728 320.814 219.36 319.022 219.36C317.598 219.36 316.494 218.976 315.71 218.208C315.022 217.536 314.678 216.68 314.678 215.64C314.678 214.472 315.102 213.56 315.95 212.904C316.718 212.296 317.91 211.856 319.526 211.584L322.958 211.008V210.408C322.958 209.656 322.71 209.096 322.214 208.728C321.782 208.392 321.19 208.224 320.438 208.224C318.95 208.224 318.11 208.832 317.918 210.048ZM322.958 212.904L320.246 213.384C319.318 213.56 318.654 213.808 318.254 214.128C317.854 214.432 317.654 214.864 317.654 215.424C317.654 216.592 318.366 217.176 319.79 217.176C320.718 217.176 321.502 216.872 322.142 216.264C322.686 215.736 322.958 215.12 322.958 214.416V212.904ZM334.97 216.888V219.072C334.298 219.264 333.658 219.36 333.05 219.36C331.818 219.36 330.882 218.992 330.242 218.256C329.698 217.632 329.426 216.792 329.426 215.736V208.728H327.554V206.52H329.426L329.618 203.52H332.306V206.52H334.946V208.728H332.306V215.832C332.306 216.664 332.73 217.08 333.578 217.08C333.946 217.08 334.41 217.016 334.97 216.888ZM339.958 204.624H336.79V201.72H339.958V204.624ZM339.814 219H336.934V206.52H339.814V219ZM342.264 212.736C342.264 210.464 342.936 208.744 344.28 207.576C345.384 206.632 346.824 206.16 348.6 206.16C350.664 206.16 352.256 206.784 353.376 208.032C354.416 209.168 354.936 210.736 354.936 212.736C354.936 215.008 354.28 216.728 352.968 217.896C351.864 218.872 350.408 219.36 348.6 219.36C346.552 219.36 344.96 218.72 343.824 217.44C342.784 216.272 342.264 214.704 342.264 212.736ZM348.624 217.224C349.76 217.224 350.608 216.808 351.168 215.976C351.696 215.224 351.96 214.144 351.96 212.736C351.96 211.136 351.608 209.96 350.904 209.208C350.344 208.6 349.576 208.296 348.6 208.296C347.48 208.296 346.632 208.704 346.056 209.52C345.512 210.272 345.24 211.344 345.24 212.736C345.24 214.32 345.592 215.496 346.296 216.264C346.888 216.904 347.664 217.224 348.624 217.224ZM360.252 219H357.372V206.52H359.748L360.06 208.008C360.972 206.776 362.236 206.16 363.852 206.16C365.356 206.16 366.508 206.624 367.308 207.552C368.012 208.368 368.364 209.48 368.364 210.888V219H365.484V210.96C365.484 209.248 364.692 208.392 363.108 208.392C362.244 208.392 361.54 208.696 360.996 209.304C360.5 209.864 360.252 210.568 360.252 211.416V219ZM388.602 219H385.914L381.042 206.136V219H378.258V201.72H382.146L387.33 215.76L392.25 201.72H396.066V219H393.234V206.184L388.602 219Z" fill="white" fill-opacity="0.95"/>
<path d="M166.911 354.4H177.231V403.6H204.671V412H166.911V354.4Z" fill="#CACACA"/>
<path d="M243.638 394.364H245.528C245.744 395.822 246.932 396.758 248.858 396.758C251.018 396.758 252.116 395.714 252.116 394.49C252.116 393.284 251.522 392.726 248.03 391.772C245.024 390.944 244.088 389.882 244.088 388.1C244.088 386.21 245.762 384.77 248.732 384.77C251.504 384.77 253.538 386.084 253.862 388.28H251.972C251.774 387.02 250.676 386.282 248.732 386.282C246.752 386.282 245.924 387.056 245.924 388.028C245.924 389.036 246.356 389.522 249.326 390.35C252.926 391.358 253.952 392.42 253.952 394.418C253.952 396.434 252.116 398.27 248.894 398.27C246.104 398.27 243.998 396.74 243.638 394.364ZM260.204 396.614V398.09C259.736 398.216 259.358 398.27 258.926 398.27C257.27 398.27 256.424 397.226 256.424 395.678V390.116H255.038V388.64H256.424L256.532 386.39H258.152V388.64H260.168V390.116H258.152V395.714C258.152 396.416 258.494 396.758 259.142 396.758C259.448 396.758 259.682 396.74 260.204 396.614ZM263.557 398H261.829V388.64H263.251L263.485 390.026C264.007 388.946 264.817 388.37 265.861 388.37C266.311 388.37 266.671 388.442 266.887 388.496V390.224C266.545 390.134 266.203 390.062 265.789 390.062C264.601 390.062 263.557 390.944 263.557 393.302V398ZM267.529 393.32C267.529 389.954 269.617 388.37 272.155 388.37C274.711 388.37 276.763 389.954 276.763 393.32C276.763 396.596 274.783 398.27 272.137 398.27C269.527 398.27 267.529 396.56 267.529 393.32ZM269.329 393.32C269.329 395.642 270.553 396.866 272.173 396.866C273.829 396.866 274.963 395.642 274.963 393.32C274.963 390.944 273.757 389.774 272.155 389.774C270.553 389.774 269.329 390.98 269.329 393.32ZM280.467 398H278.739V385.04H280.467V392.276L284.139 388.64H286.407L282.195 392.708L286.929 398H284.625L280.467 393.284V398ZM293.917 395.3H295.789C295.321 397.01 293.845 398.27 291.595 398.27C288.931 398.27 287.005 396.614 287.005 393.32C287.005 390.062 288.913 388.37 291.505 388.37C294.097 388.37 295.897 389.918 295.897 393.698H288.769C288.913 395.858 290.083 396.812 291.649 396.812C292.783 396.812 293.647 396.164 293.917 395.3ZM288.841 392.33H294.133C294.007 390.584 292.981 389.756 291.541 389.756C290.155 389.756 289.111 390.602 288.841 392.33ZM314.688 388.64H316.416L313.68 398H311.682L309.414 390.602L307.182 398H305.112L302.376 388.64H304.176L306.192 396.164L308.424 388.64H310.494L312.69 396.128L314.688 388.64ZM324.099 395.3H325.971C325.503 397.01 324.027 398.27 321.777 398.27C319.113 398.27 317.187 396.614 317.187 393.32C317.187 390.062 319.095 388.37 321.687 388.37C324.279 388.37 326.079 389.918 326.079 393.698H318.951C319.095 395.858 320.265 396.812 321.831 396.812C322.965 396.812 323.829 396.164 324.099 395.3ZM319.023 392.33H324.315C324.189 390.584 323.163 389.756 321.723 389.756C320.337 389.756 319.293 390.602 319.023 392.33ZM329.987 387.074H328.043V385.04H329.987V387.074ZM329.879 398H328.151V388.64H329.879V398ZM332.297 398.63H334.151C334.313 399.566 335.105 400.142 336.473 400.142C338.219 400.142 339.119 399.26 339.119 397.712V396.506C338.489 397.244 337.445 397.73 336.005 397.73C333.809 397.73 331.865 396.092 331.865 393.104C331.865 390.17 333.575 388.37 336.113 388.37C337.571 388.37 338.561 389 339.155 389.882L339.425 388.64H340.847V397.802C340.847 399.926 339.299 401.51 336.527 401.51C334.025 401.51 332.603 400.376 332.297 398.63ZM333.665 393.14C333.665 395.12 334.889 396.254 336.383 396.254C338.165 396.254 339.209 395.084 339.209 393.194C339.209 390.998 338.057 389.846 336.383 389.846C334.799 389.846 333.665 390.908 333.665 393.14ZM345.102 398H343.374V385.04H345.102V389.702C345.786 388.82 346.776 388.37 347.838 388.37C349.872 388.37 351.15 389.612 351.15 391.898V398H349.422V391.916C349.422 390.512 348.702 389.846 347.424 389.846C346.146 389.846 345.102 390.746 345.102 392.294V398ZM357.762 396.614V398.09C357.294 398.216 356.916 398.27 356.484 398.27C354.828 398.27 353.982 397.226 353.982 395.678V390.116H352.596V388.64H353.982L354.09 386.39H355.71V388.64H357.726V390.116H355.71V395.714C355.71 396.416 356.052 396.758 356.7 396.758C357.006 396.758 357.24 396.74 357.762 396.614ZM361.871 398H359.783V395.912H361.871V398ZM361.871 390.728H359.783V388.64H361.871V390.728ZM371.818 388.694H370C370.27 386.678 371.944 385.13 374.428 385.13C376.768 385.13 378.532 386.498 378.532 388.712C378.532 390.422 377.794 391.52 375.526 393.68L372.646 396.416H378.478V398H370.306V396.416L374.41 392.474C376.12 390.836 376.768 389.954 376.768 388.73C376.768 387.452 375.886 386.588 374.392 386.588C372.97 386.588 371.962 387.38 371.818 388.694ZM383.457 398H381.369V395.912H383.457V398ZM386.028 394.94H387.864C388.098 395.966 388.998 396.812 390.528 396.812C392.076 396.812 393.264 395.732 393.264 393.842C393.264 391.988 392.184 390.98 390.564 390.98C389.7 390.98 388.728 391.322 388.044 392.132H386.514L386.784 385.4H394.524V386.858H388.35L388.206 390.548C388.908 389.99 389.79 389.63 390.96 389.63C393.156 389.63 395.046 391.088 395.046 393.914C395.046 396.254 393.39 398.27 390.51 398.27C387.918 398.27 386.316 396.65 386.028 394.94ZM255.14 423.034V430H253.79L253.538 428.452C252.728 429.586 251.288 430.27 249.56 430.27C246.338 430.27 243.818 427.858 243.818 423.502C243.818 419.056 246.464 416.77 249.758 416.77C252.71 416.77 254.816 418.552 255.122 420.838H253.322C252.998 419.254 251.666 418.3 249.758 418.3C247.49 418.3 245.69 419.992 245.69 423.502C245.69 426.994 247.652 428.758 249.776 428.758C251.792 428.758 253.484 427.426 253.484 425.518V424.51H249.686V423.034H255.14ZM259.285 430H257.557V420.64H258.979L259.213 422.026C259.735 420.946 260.545 420.37 261.589 420.37C262.039 420.37 262.399 420.442 262.615 420.496V422.224C262.273 422.134 261.931 422.062 261.517 422.062C260.329 422.062 259.285 422.944 259.285 425.302V430ZM265.809 419.074H263.865V417.04H265.809V419.074ZM265.701 430H263.973V420.64H265.701V430ZM276.669 430H275.247L274.941 428.686C274.311 429.604 273.285 430.27 271.827 430.27C269.469 430.27 267.687 428.542 267.687 425.374C267.687 422.026 269.433 420.37 271.935 420.37C273.357 420.37 274.329 420.982 274.941 421.828V417.04H276.669V430ZM269.487 425.41C269.487 427.66 270.639 428.794 272.205 428.794C273.987 428.794 275.031 427.39 275.031 425.428C275.031 423.142 273.933 421.846 272.205 421.846C270.567 421.846 269.487 422.962 269.487 425.41ZM281.68 430H279.592V427.912H281.68V430ZM281.68 422.728H279.592V420.64H281.68V422.728ZM291.465 420.37H289.647C289.953 418.408 291.699 417.13 294.093 417.13C296.199 417.13 298.179 418.174 298.179 420.424C298.179 421.792 297.225 422.89 295.911 423.304C297.333 423.61 298.611 424.672 298.611 426.562C298.611 428.722 296.847 430.252 294.147 430.252C291.501 430.252 289.899 428.884 289.611 426.868H291.447C291.735 428.128 292.581 428.812 294.111 428.812C295.839 428.812 296.847 427.876 296.847 426.526C296.847 424.798 295.515 424.15 294.363 424.15H293.319V422.656H294.327C295.281 422.656 296.415 422.008 296.415 420.55C296.415 419.2 295.227 418.57 294.003 418.57C292.599 418.57 291.645 419.29 291.465 420.37ZM302.42 420.694H300.602C300.872 418.678 302.546 417.13 305.03 417.13C307.37 417.13 309.134 418.498 309.134 420.712C309.134 422.422 308.396 423.52 306.128 425.68L303.248 428.416H309.08V430H300.908V428.416L305.012 424.474C306.722 422.836 307.37 421.954 307.37 420.73C307.37 419.452 306.488 418.588 304.994 418.588C303.572 418.588 302.564 419.38 302.42 420.694ZM315.715 430.27C313.159 430.27 311.215 428.182 311.215 423.664C311.215 419.02 313.177 417.13 315.715 417.13C318.253 417.13 320.215 419.02 320.215 423.664C320.215 428.182 318.271 430.27 315.715 430.27ZM315.715 428.83C317.551 428.83 318.451 427.192 318.451 423.664C318.451 420.154 317.551 418.57 315.715 418.57C313.879 418.57 312.979 420.154 312.979 423.664C312.979 427.192 313.879 428.83 315.715 428.83ZM335.306 420.64L332.174 425.014L335.846 430H333.74L331.202 426.382L328.718 430H326.684L330.176 425.14L326.9 420.64H328.97L331.202 423.79L333.326 420.64H335.306ZM344.164 420.37H342.346C342.652 418.408 344.398 417.13 346.792 417.13C348.898 417.13 350.878 418.174 350.878 420.424C350.878 421.792 349.924 422.89 348.61 423.304C350.032 423.61 351.31 424.672 351.31 426.562C351.31 428.722 349.546 430.252 346.846 430.252C344.2 430.252 342.598 428.884 342.31 426.868H344.146C344.434 428.128 345.28 428.812 346.81 428.812C348.538 428.812 349.546 427.876 349.546 426.526C349.546 424.798 348.214 424.15 347.062 424.15H346.018V422.656H347.026C347.98 422.656 349.114 422.008 349.114 420.55C349.114 419.2 347.926 418.57 346.702 418.57C345.298 418.57 344.344 419.29 344.164 420.37ZM355.119 420.694H353.301C353.571 418.678 355.245 417.13 357.729 417.13C360.069 417.13 361.833 418.498 361.833 420.712C361.833 422.422 361.095 423.52 358.827 425.68L355.947 428.416H361.779V430H353.607V428.416L357.711 424.474C359.421 422.836 360.069 421.954 360.069 420.73C360.069 419.452 359.187 418.588 357.693 418.588C356.271 418.588 355.263 419.38 355.119 420.694ZM368.414 430.27C365.858 430.27 363.914 428.182 363.914 423.664C363.914 419.02 365.876 417.13 368.414 417.13C370.952 417.13 372.914 419.02 372.914 423.664C372.914 428.182 370.97 430.27 368.414 430.27ZM368.414 428.83C370.25 428.83 371.15 427.192 371.15 423.664C371.15 420.154 370.25 418.57 368.414 418.57C366.578 418.57 365.678 420.154 365.678 423.664C365.678 427.192 366.578 428.83 368.414 428.83Z" fill="white" fill-opacity="0.95"/>
<path d="M241.047 341.72H244.119V359H241.047V341.72ZM250.182 341.72V359H247.302V341.72H250.182ZM256.135 341.72V359H253.255V341.72H256.135ZM259.088 346.52H261.968V354.728C261.968 356.328 262.752 357.128 264.32 357.128C265.232 357.128 265.944 356.8 266.456 356.144C266.872 355.584 267.08 354.896 267.08 354.08V346.52H269.96V359H267.584L267.272 357.608C266.376 358.776 265.128 359.36 263.528 359.36C262.056 359.36 260.928 358.912 260.144 358.016C259.44 357.2 259.088 356.08 259.088 354.656V346.52ZM275.1 355.448C275.324 356.648 276.228 357.248 277.812 357.248C278.692 357.248 279.356 357.08 279.804 356.744C280.172 356.456 280.356 356.08 280.356 355.616C280.356 355.024 280.036 354.584 279.396 354.296C279.028 354.136 278.22 353.912 276.972 353.624C275.436 353.272 274.34 352.792 273.684 352.184C273.028 351.592 272.7 350.816 272.7 349.856C272.7 348.64 273.196 347.704 274.188 347.048C275.068 346.456 276.276 346.16 277.812 346.16C279.396 346.16 280.668 346.536 281.628 347.288C282.46 347.928 282.98 348.792 283.188 349.88H280.26C280.02 348.808 279.188 348.272 277.764 348.272C276.324 348.272 275.604 348.712 275.604 349.592C275.604 350.04 275.788 350.376 276.156 350.6C276.524 350.824 277.268 351.072 278.388 351.344C280.116 351.744 281.316 352.192 281.988 352.688C282.836 353.312 283.26 354.192 283.26 355.328C283.26 356.624 282.732 357.64 281.676 358.376C280.716 359.032 279.42 359.36 277.788 359.36C276.076 359.36 274.708 358.952 273.684 358.136C272.82 357.448 272.316 356.552 272.172 355.448H275.1ZM291.908 356.888V359.072C291.236 359.264 290.596 359.36 289.988 359.36C288.756 359.36 287.82 358.992 287.18 358.256C286.636 357.632 286.364 356.792 286.364 355.736V348.728H284.492V346.52H286.364L286.556 343.52H289.244V346.52H291.884V348.728H289.244V355.832C289.244 356.664 289.668 357.08 290.516 357.08C290.884 357.08 291.348 357.016 291.908 356.888ZM301.192 346.328V349.112C300.664 348.952 300.16 348.872 299.68 348.872C298.784 348.872 298.064 349.264 297.52 350.048C297.008 350.8 296.752 351.84 296.752 353.168V359H293.872V346.52H296.248L296.608 348.392C297.312 346.904 298.376 346.16 299.8 346.16C300.312 346.16 300.776 346.216 301.192 346.328ZM305.418 350.048H302.418C302.626 348.752 303.274 347.76 304.362 347.072C305.338 346.464 306.562 346.16 308.034 346.16C309.81 346.16 311.17 346.616 312.114 347.528C312.93 348.312 313.338 349.328 313.338 350.576V359H311.034L310.674 357.464C309.698 358.728 308.314 359.36 306.522 359.36C305.098 359.36 303.994 358.976 303.21 358.208C302.522 357.536 302.178 356.68 302.178 355.64C302.178 354.472 302.602 353.56 303.45 352.904C304.218 352.296 305.41 351.856 307.026 351.584L310.458 351.008V350.408C310.458 349.656 310.21 349.096 309.714 348.728C309.282 348.392 308.69 348.224 307.938 348.224C306.45 348.224 305.61 348.832 305.418 350.048ZM310.458 352.904L307.746 353.384C306.818 353.56 306.154 353.808 305.754 354.128C305.354 354.432 305.154 354.864 305.154 355.424C305.154 356.592 305.866 357.176 307.29 357.176C308.218 357.176 309.002 356.872 309.642 356.264C310.186 355.736 310.458 355.12 310.458 354.416V352.904ZM322.47 356.888V359.072C321.798 359.264 321.158 359.36 320.55 359.36C319.318 359.36 318.382 358.992 317.742 358.256C317.198 357.632 316.926 356.792 316.926 355.736V348.728H315.054V346.52H316.926L317.118 343.52H319.806V346.52H322.446V348.728H319.806V355.832C319.806 356.664 320.23 357.08 321.078 357.08C321.446 357.08 321.91 357.016 322.47 356.888ZM327.458 344.624H324.29V341.72H327.458V344.624ZM327.314 359H324.434V346.52H327.314V359ZM329.764 352.736C329.764 350.464 330.436 348.744 331.78 347.576C332.884 346.632 334.324 346.16 336.1 346.16C338.164 346.16 339.756 346.784 340.876 348.032C341.916 349.168 342.436 350.736 342.436 352.736C342.436 355.008 341.78 356.728 340.468 357.896C339.364 358.872 337.908 359.36 336.1 359.36C334.052 359.36 332.46 358.72 331.324 357.44C330.284 356.272 329.764 354.704 329.764 352.736ZM336.124 357.224C337.26 357.224 338.108 356.808 338.668 355.976C339.196 355.224 339.46 354.144 339.46 352.736C339.46 351.136 339.108 349.96 338.404 349.208C337.844 348.6 337.076 348.296 336.1 348.296C334.98 348.296 334.132 348.704 333.556 349.52C333.012 350.272 332.74 351.344 332.74 352.736C332.74 354.32 333.092 355.496 333.796 356.264C334.388 356.904 335.164 357.224 336.124 357.224ZM347.752 359H344.872V346.52H347.248L347.56 348.008C348.472 346.776 349.736 346.16 351.352 346.16C352.856 346.16 354.008 346.624 354.808 347.552C355.512 348.368 355.864 349.48 355.864 350.888V359H352.984V350.96C352.984 349.248 352.192 348.392 350.608 348.392C349.744 348.392 349.04 348.696 348.496 349.304C348 349.864 347.752 350.568 347.752 351.416V359ZM365.758 341.72H368.854V356.48H377.086V359H365.758V341.72Z" fill="white" fill-opacity="0.95"/>
</svg>
