<svg width="357" height="200" viewBox="0 0 357 200" fill="none" xmlns="http://www.w3.org/2000/svg">
<path d="M240.27 103.72C240.27 103.72 238.95 107.8 238.47 109.12C237.87 110.92 239.07 111.52 240.27 111.52H241.47M120.87 104.92L117.87 110.92C116.13 114.34 113.91 116.14 111.09 116.32C109.05 116.44 107.13 114.94 107.07 112.9C106.95 110.8 108.63 109.12 110.67 109.12C116.67 109.12 120.87 112.72 125.07 121.12L130.89 132.76C132.09 135.22 134.61 136.72 137.31 136.72H151.35C151.83 136.72 152.31 136.54 152.73 136.3L155.97 134.02C157.05 133.24 158.37 132.82 159.69 132.94L163.47 133C164.79 133.12 165.87 134.2 165.87 135.82V136.3C165.93 137.2 165.81 138.1 165.45 138.94C165.09 139.78 164.55 140.56 163.83 141.16C162.87 142 161.67 142.42 160.41 142.54L158.01 142.72C158.01 142.72 156.21 146.32 148.41 146.32M87.2699 70.7199V58.7199C87.2699 52.7799 92.1299 47.9199 98.0699 47.9199H172.47C178.41 47.9199 183.27 52.7799 183.27 58.7199V62.9199M157.47 88.7199C157.47 85.2999 155.61 82.1199 153.27 82.1199C150.93 82.1199 149.07 85.2999 149.07 88.7199M153.27 58.7199V55.1199M153.27 58.7199C153.93 58.7199 154.47 59.2599 154.47 59.9199C154.83 74.6199 161.19 85.2399 162.99 87.9999C163.29 88.4799 163.77 88.7199 164.31 88.7199C165.15 88.7199 165.87 87.9999 165.87 87.1599V82.7199C165.87 82.0599 166.41 81.5199 167.07 81.5199H169.47M153.27 58.7199C152.61 58.7199 152.07 59.2599 152.07 59.9199C151.71 74.6199 145.35 85.2999 143.55 87.9999C143.25 88.4199 142.77 88.7199 142.23 88.7199C141.39 88.7199 140.67 87.9999 140.67 87.1599V70.7199C140.67 70.0599 140.13 69.5199 139.47 69.5199H133.47C132.81 69.5199 132.27 70.0599 132.27 70.7199V75.5199M104.07 124.72H98.0699C92.1299 124.72 87.2699 119.86 87.2699 113.92V76.1199C87.2699 75.4599 87.8099 74.9199 88.4699 74.9199H93.2699C93.9299 74.9199 94.4699 74.3799 94.4699 73.7199V68.3199C94.4699 67.6599 95.0099 67.1199 95.6699 67.1199H104.07C104.73 67.1199 105.27 67.6599 105.27 68.3199V75.5199M231.27 143.92H258.87C264.81 143.92 269.67 139.06 269.67 133.12V77.9199C269.67 71.9799 264.81 67.1199 258.87 67.1199H184.47C178.53 67.1199 173.67 71.9799 173.67 77.9199V101.92C173.67 102.58 174.21 103.12 174.87 103.12H182.07C182.73 103.12 183.27 102.58 183.27 101.92V86.9199C183.27 86.2599 183.81 85.7199 184.47 85.7199C185.13 85.7199 185.67 85.1799 185.67 84.5199V81.5199C185.67 80.8599 186.21 80.3199 186.87 80.3199H191.67C192.33 80.3199 192.87 80.8599 192.87 81.5199V84.5199C192.87 85.1799 193.41 85.7199 194.07 85.7199C194.73 85.7199 195.27 86.2599 195.27 86.9199V94.7199C195.27 95.3799 195.81 95.9199 196.47 95.9199H198.87C199.53 95.9199 200.07 96.4599 200.07 97.1199V115.12C200.07 115.78 200.61 116.32 201.27 116.32H206.07C206.73 116.32 207.27 115.78 207.27 115.12V92.3199C207.27 91.6599 207.81 91.1199 208.47 91.1199H215.67C216.33 91.1199 216.87 91.6599 216.87 92.3199V103.72C216.87 104.38 217.41 104.92 218.07 104.92H223.47C224.13 104.92 224.67 104.38 224.67 103.72V97.7199C224.67 97.0599 225.21 96.5199 225.87 96.5199H231.87M189.27 80.3199V74.3199M120.87 104.98H125.13C128.13 104.98 130.47 102.46 130.47 99.4599V95.9799C130.47 95.3199 131.01 94.7799 131.67 94.7799H132.87C134.07 94.7799 135.87 94.1799 134.67 90.5799L132.87 85.1799C130.41 77.8599 125.67 74.3799 118.47 74.3799C110.49 74.3799 104.07 80.7999 104.07 88.7799C104.07 97.7799 94.4699 97.1799 94.4699 105.58M113.07 96.5199C111.09 96.5199 109.47 94.8999 109.47 92.9199C109.47 90.9399 111.09 89.3199 113.07 89.3199H114.87C119.07 89.3199 123.27 85.7199 123.27 78.5199M255.87 128.32V109.72C255.87 108.4 256.95 107.32 258.27 107.32C259.59 107.32 260.67 108.4 260.67 109.72C260.67 114.52 252.87 123.52 243.27 123.52C238.29 123.52 234.27 119.5 234.27 114.52V102.52C234.27 98.1999 237.75 94.7199 242.07 94.7199C246.27 94.7199 248.67 97.1199 251.07 99.5199C253.47 101.92 255.87 104.32 260.07 104.32M244.47 91.1199C248.67 91.1199 251.07 93.5199 253.47 95.9199C255.87 98.3199 258.27 100.72 262.47 100.72M246.87 87.5199C251.07 87.5199 253.47 89.9199 255.87 92.3199C258.27 94.7199 260.67 97.1199 264.87 97.1199M158.07 147.52V151.12C158.07 151.78 158.61 152.32 159.27 152.32H185.67C186.33 152.32 186.87 151.78 186.87 151.12V142.72C182.67 140.32 183.87 134.32 183.87 134.32L179.79 131.56C179.01 131.08 178.71 130.12 178.95 129.28C179.31 128.14 180.63 127.6 181.65 128.14L187.11 130.9C188.43 131.56 189.39 132.82 189.69 134.26L190.41 137.98L203.07 149.74C205.23 151.78 208.71 151.36 210.33 148.9L219.75 134.8C222.45 130.78 226.89 128.38 231.75 128.38H239.37C240.51 128.38 241.41 129.16 241.71 130.24C242.55 133.3 245.31 135.58 248.67 135.58C252.63 135.58 255.87 132.34 255.87 128.38M158.07 132.52V112.72C158.07 112.06 158.61 111.52 159.27 111.52H185.67C186.33 111.52 186.87 112.06 186.87 112.72V126.52" stroke="url(#paint0_linear_1266_34750)" stroke-width="2.5" stroke-miterlimit="10" stroke-linecap="round" stroke-linejoin="round"/>
<defs>
<linearGradient id="paint0_linear_1266_34750" x1="178.47" y1="47.9199" x2="178.47" y2="152.32" gradientUnits="userSpaceOnUse">
<stop stop-color="#279BE8"/>
<stop offset="1" stop-color="#875AE0"/>
</linearGradient>
</defs>
</svg>
