<svg width="357" height="200" viewBox="0 0 357 200" fill="none" xmlns="http://www.w3.org/2000/svg">
<path d="M138.155 99.2666H127.488C126.021 99.2666 124.821 98.0666 124.821 96.5999V45.9333C124.821 40.0666 129.621 35.2666 135.488 35.2666H226.155C232.021 35.2666 236.821 40.0666 236.821 45.9333V79.2666M138.155 99.2666C138.155 102.212 140.543 104.6 143.488 104.6C146.434 104.6 148.821 102.212 148.821 99.2666M138.155 99.2666C138.155 96.3211 140.543 93.9333 143.488 93.9333C146.434 93.9333 148.821 96.3211 148.821 99.2666M115.488 99.2666H108.821C105.888 99.2666 103.488 101.667 103.488 104.6V160.6C103.488 162.067 104.688 163.267 106.155 163.267H112.555C113.621 163.267 114.555 162.733 114.955 161.8L118.155 155.267H168.821L172.021 161.8C172.421 162.733 173.355 163.267 174.421 163.267H180.821C182.288 163.267 183.488 162.067 183.488 160.6V104.6C183.488 101.667 181.088 99.2666 178.155 99.2666H148.821M220.821 119.267V136.6C220.821 139.533 223.221 141.933 226.155 141.933H247.488C250.421 141.933 252.821 139.533 252.821 136.6V93.9333C252.821 90.9999 250.421 88.5999 247.488 88.5999H226.155C223.221 88.5999 220.821 90.9999 220.821 93.9333V107.267C220.821 108.733 219.621 109.933 218.155 109.933H196.821C195.355 109.933 194.155 111.133 194.155 112.6V128.6C194.155 130.067 195.355 131.267 196.821 131.267H210.155M103.621 147.267H183.488" stroke="url(#paint0_linear_1266_34773)" stroke-width="2.5" stroke-linecap="round" stroke-linejoin="round"/>
<defs>
<linearGradient id="paint0_linear_1266_34773" x1="178.155" y1="35.2666" x2="178.155" y2="163.267" gradientUnits="userSpaceOnUse">
<stop stop-color="#F55868"/>
<stop offset="1" stop-color="#875AE0"/>
</linearGradient>
</defs>
</svg>
