<svg width="207" height="84" viewBox="0 0 207 84" fill="none" xmlns="http://www.w3.org/2000/svg">
<g filter="url(#filter0_dd_1321_6921)">
<g filter="url(#filter1_dd_1321_6921)">
<mask id="path-1-outside-1_1321_6921" maskUnits="userSpaceOnUse" x="16" y="8" width="175" height="52" fill="black">
<rect fill="white" x="16" y="8" width="175" height="52"/>
<path fill-rule="evenodd" clip-rule="evenodd" d="M108.691 14.4471C111.105 17.4989 113.874 21 116.643 21C116.649 21 116.654 21 116.66 21L185 21C187.209 21 189 22.7909 189 25V54C189 56.2092 187.209 58 185 58L22 58C19.7909 58 18 56.2092 18 54L18 25C18 22.7909 19.7909 21 22 21L91.1034 21C91.109 21 91.1146 21 91.1203 21C93.883 21 96.6456 17.5151 99.0609 14.4684C100.937 12.1021 102.603 10 103.897 10C105.174 10 106.827 12.0895 108.691 14.4471Z"/>
</mask>
<path fill-rule="evenodd" clip-rule="evenodd" d="M108.691 14.4471C111.105 17.4989 113.874 21 116.643 21C116.649 21 116.654 21 116.66 21L185 21C187.209 21 189 22.7909 189 25V54C189 56.2092 187.209 58 185 58L22 58C19.7909 58 18 56.2092 18 54L18 25C18 22.7909 19.7909 21 22 21L91.1034 21C91.109 21 91.1146 21 91.1203 21C93.883 21 96.6456 17.5151 99.0609 14.4684C100.937 12.1021 102.603 10 103.897 10C105.174 10 106.827 12.0895 108.691 14.4471Z" fill="#292929"/>
<path d="M116.643 21V23V21ZM108.691 14.4471L110.26 13.2064V13.2064L108.691 14.4471ZM116.66 21L116.654 23H116.66V21ZM185 21V23V21ZM185 58V60V58ZM22 58V56V58ZM18 54H16H18ZM18 25H20H18ZM22 21V19V21ZM91.1034 21V23L91.1092 23L91.1034 21ZM99.0609 14.4684L97.4937 13.2259V13.2259L99.0609 14.4684ZM103.897 10V8V10ZM116.643 19C116.066 19 115.171 18.5994 113.902 17.4091C112.691 16.2735 111.49 14.7611 110.26 13.2064L107.123 15.6878C108.307 17.1849 109.697 18.949 111.166 20.3268C112.577 21.65 114.451 23 116.643 23V19ZM116.666 19C116.658 19 116.651 19 116.643 19V23C116.647 23 116.65 23 116.654 23L116.666 19ZM116.66 23L185 23V19L116.66 19V23ZM185 23C186.105 23 187 23.8955 187 25H191C191 21.6863 188.314 19 185 19V23ZM187 25V54H191V25H187ZM187 54C187 55.1046 186.105 56 185 56V60C188.314 60 191 57.3137 191 54H187ZM185 56L22 56V60L185 60V56ZM22 56C20.8954 56 20 55.1046 20 54H16C16 57.3137 18.6863 60 22 60V56ZM20 54L20 25H16L16 54H20ZM20 25C20 23.8954 20.8954 23 22 23V19C18.6863 19 16 21.6863 16 25H20ZM22 23L91.1034 23V19L22 19V23ZM91.1203 19C91.1126 19 91.1051 19 91.0976 19L91.1092 23C91.113 23 91.1167 23 91.1203 23V19ZM97.4937 13.2259C96.2632 14.7781 95.063 16.2853 93.8543 17.4164C92.5878 18.6017 91.6956 19 91.1203 19V23C93.3077 23 95.1781 21.6559 96.5875 20.337C98.0546 18.964 99.4434 17.2054 100.628 15.7108L97.4937 13.2259ZM103.897 8C103.042 8 102.316 8.34035 101.785 8.67842C101.24 9.02546 100.733 9.47803 100.276 9.93992C99.3688 10.8564 98.4088 12.0716 97.4937 13.2259L100.628 15.7108C101.589 14.4988 102.4 13.4799 103.119 12.7537C103.475 12.3943 103.744 12.1735 103.934 12.0524C104.138 11.9224 104.106 12 103.897 12V8ZM110.26 13.2064C109.351 12.0564 108.397 10.8469 107.498 9.93507C107.045 9.47559 106.542 9.0248 106.001 8.67882C105.475 8.34232 104.752 8 103.897 8V12C103.681 12 103.643 11.9189 103.845 12.0478C104.031 12.1673 104.297 12.3862 104.65 12.7438C105.362 13.4661 106.168 14.4802 107.123 15.6878L110.26 13.2064Z" fill="#292929" mask="url(#path-1-outside-1_1321_6921)"/>
</g>
<mask id="path-3-outside-2_1321_6921" maskUnits="userSpaceOnUse" x="17" y="9" width="173" height="50" fill="black">
<rect fill="white" x="17" y="9" width="173" height="50"/>
<path fill-rule="evenodd" clip-rule="evenodd" d="M108.691 14.4471C111.105 17.4989 113.874 21 116.643 21C116.649 21 116.654 21 116.66 21L185 21C187.209 21 189 22.7909 189 25V54C189 56.2092 187.209 58 185 58L22 58C19.7909 58 18 56.2092 18 54L18 25C18 22.7909 19.7909 21 22 21L91.1034 21C91.109 21 91.1146 21 91.1203 21C93.883 21 96.6456 17.5151 99.0609 14.4684C100.937 12.1021 102.603 10 103.897 10C105.174 10 106.827 12.0895 108.691 14.4471Z"/>
</mask>
<path fill-rule="evenodd" clip-rule="evenodd" d="M108.691 14.4471C111.105 17.4989 113.874 21 116.643 21C116.649 21 116.654 21 116.66 21L185 21C187.209 21 189 22.7909 189 25V54C189 56.2092 187.209 58 185 58L22 58C19.7909 58 18 56.2092 18 54L18 25C18 22.7909 19.7909 21 22 21L91.1034 21C91.109 21 91.1146 21 91.1203 21C93.883 21 96.6456 17.5151 99.0609 14.4684C100.937 12.1021 102.603 10 103.897 10C105.174 10 106.827 12.0895 108.691 14.4471Z" fill="#3B3B3B"/>
<path d="M116.643 21V22V21ZM108.691 14.4471L107.907 15.0674V15.0674L108.691 14.4471ZM116.66 21L116.657 22H116.66V21ZM185 21V22V21ZM185 58V59V58ZM22 58V57V58ZM18 54H17H18ZM18 25H19H18ZM22 21V20V21ZM91.1034 21V22L91.1063 22L91.1034 21ZM99.0609 14.4684L98.2773 13.8471V13.8471L99.0609 14.4684ZM103.897 10V9V10ZM116.643 20C115.663 20 114.523 19.3621 113.218 18.1385C111.943 16.9423 110.694 15.367 109.476 13.8267L107.907 15.0674C109.103 16.5789 110.445 18.2801 111.85 19.5974C113.226 20.8874 114.855 22 116.643 22V20ZM116.663 20C116.656 20 116.65 20 116.643 20V22C116.648 22 116.652 22 116.657 22L116.663 20ZM116.66 22L185 22V20L116.66 20V22ZM185 22C186.657 22 188 23.3432 188 25H190C190 22.2386 187.761 20 185 20V22ZM188 25V54H190V25H188ZM188 54C188 55.6569 186.657 57 185 57V59C187.761 59 190 56.7615 190 54H188ZM185 57L22 57V59L185 59V57ZM22 57C20.3431 57 19 55.6569 19 54H17C17 56.7614 19.2386 59 22 59V57ZM19 54L19 25H17L17 54H19ZM19 25C19 23.3432 20.3431 22 22 22V20C19.2386 20 17 22.2386 17 25H19ZM22 22L91.1034 22V20L22 20V22ZM91.1203 20C91.1136 20 91.107 20 91.1005 20L91.1063 22C91.111 22 91.1157 22 91.1203 22V20ZM98.2773 13.8471C97.0582 15.3849 95.8109 16.955 94.5376 18.1466C93.2354 19.3652 92.0986 20 91.1203 20V22C92.9047 22 94.5305 20.8923 95.9042 19.6069C97.3067 18.2943 98.6483 16.5986 99.8446 15.0896L98.2773 13.8471ZM103.897 9C103.308 9 102.772 9.23586 102.322 9.52192C101.866 9.81246 101.418 10.2071 100.987 10.6434C100.127 11.5122 99.2038 12.6784 98.2773 13.8471L99.8446 15.0896C100.794 13.892 101.642 12.824 102.408 12.0503C102.789 11.6652 103.118 11.3865 103.397 11.2089C103.683 11.0269 103.84 11 103.897 11V9ZM109.476 13.8267C108.555 12.6623 107.638 11.5017 106.786 10.6373C106.358 10.2032 105.914 9.81042 105.462 9.52107C105.017 9.23646 104.484 9 103.897 9V11C103.949 11 104.101 11.0247 104.384 11.2056C104.659 11.3817 104.984 11.6586 105.362 12.0416C106.121 12.8113 106.963 13.8742 107.907 15.0674L109.476 13.8267Z" fill="#545454" mask="url(#path-3-outside-2_1321_6921)"/>
<path d="M36.0857 35.502H34.5737V33.92H36.0857V35.502ZM36.0017 44H34.6577V36.72H36.0017V44ZM39.3103 44H37.9663V36.72H39.0723L39.2123 37.574C39.707 36.8647 40.421 36.51 41.3543 36.51C42.3717 36.51 43.0857 36.8927 43.4963 37.658C43.9817 36.8927 44.7703 36.51 45.8623 36.51C46.6743 36.51 47.2997 36.7573 47.7383 37.252C48.1303 37.7093 48.3263 38.3347 48.3263 39.128V44H46.9823V39.226C46.9823 38.1807 46.511 37.658 45.5683 37.658C45.0083 37.658 44.5603 37.8773 44.2243 38.316C43.9537 38.6707 43.8183 39.086 43.8183 39.562V44H42.4743V39.226C42.4743 38.1807 42.003 37.658 41.0603 37.658C40.5377 37.658 40.1037 37.8633 39.7583 38.274C39.4597 38.6193 39.3103 39.0347 39.3103 39.52V44ZM51.3643 38.75H49.9363C50.011 38.022 50.3563 37.4573 50.9723 37.056C51.523 36.692 52.2183 36.51 53.0583 36.51C54.057 36.51 54.8223 36.7713 55.3543 37.294C55.8023 37.742 56.0263 38.3207 56.0263 39.03V44H54.9203L54.7523 43.006C54.183 43.8087 53.371 44.21 52.3163 44.21C51.4857 44.21 50.837 43.986 50.3703 43.538C49.9877 43.1647 49.7963 42.6933 49.7963 42.124C49.7963 41.4053 50.0437 40.85 50.5383 40.458C50.977 40.1127 51.649 39.8607 52.5543 39.702L54.6823 39.338V38.974C54.6823 38.498 54.519 38.1387 54.1923 37.896C53.903 37.6813 53.5063 37.574 53.0023 37.574C52.013 37.574 51.467 37.966 51.3643 38.75ZM52.6383 43.076C53.2077 43.076 53.7023 42.8893 54.1223 42.516C54.4957 42.1707 54.6823 41.774 54.6823 41.326V40.388L52.8763 40.71C52.2137 40.822 51.761 40.9947 51.5183 41.228C51.3223 41.4147 51.2243 41.6667 51.2243 41.984C51.2243 42.3387 51.3457 42.6093 51.5883 42.796C51.831 42.9827 52.181 43.076 52.6383 43.076ZM57.8296 44.49H59.2716C59.3369 44.8633 59.5236 45.1527 59.8316 45.358C60.1489 45.5633 60.5643 45.666 61.0776 45.666C61.7963 45.666 62.3329 45.4793 62.6876 45.106C62.9863 44.7887 63.1356 44.3453 63.1356 43.776V42.838C62.5943 43.4727 61.7869 43.79 60.7136 43.79C59.7429 43.79 58.9543 43.44 58.3476 42.74C57.7783 42.0867 57.4936 41.2373 57.4936 40.192C57.4936 38.9787 57.8389 38.0407 58.5296 37.378C59.1176 36.7993 59.8736 36.51 60.7976 36.51C61.8429 36.51 62.6316 36.902 63.1636 37.686L63.3736 36.72H64.4796V43.846C64.4796 44.7607 64.1483 45.4793 63.4856 46.002C62.8883 46.4873 62.0996 46.73 61.1196 46.73C60.1023 46.73 59.3043 46.5013 58.7256 46.044C58.2403 45.6613 57.9416 45.1433 57.8296 44.49ZM58.8936 40.22C58.8936 41.0133 59.1269 41.634 59.5936 42.082C59.9763 42.4553 60.4476 42.642 61.0076 42.642C61.7449 42.642 62.3096 42.3993 62.7016 41.914C63.0376 41.5033 63.2056 40.9527 63.2056 40.262C63.2056 39.3753 62.9769 38.6987 62.5196 38.232C62.1369 37.8493 61.6329 37.658 61.0076 37.658C60.3169 37.658 59.7849 37.896 59.4116 38.372C59.0663 38.82 58.8936 39.436 58.8936 40.22ZM71.4008 41.9H72.8568C72.6515 42.6373 72.2455 43.216 71.6388 43.636C71.0695 44.0187 70.3882 44.21 69.5948 44.21C68.4468 44.21 67.5508 43.846 66.9068 43.118C66.3188 42.4367 66.0248 41.5173 66.0248 40.36C66.0248 39.044 66.3982 38.0453 67.1448 37.364C67.7608 36.7947 68.5542 36.51 69.5248 36.51C70.6635 36.51 71.5222 36.8787 72.1008 37.616C72.6608 38.3253 72.9408 39.338 72.9408 40.654H67.3968C67.4528 41.5127 67.7142 42.152 68.1808 42.572C68.5635 42.908 69.0488 43.076 69.6368 43.076C70.0942 43.076 70.4908 42.95 70.8268 42.698C71.1068 42.4833 71.2982 42.2173 71.4008 41.9ZM69.5528 37.588C68.9555 37.588 68.4748 37.7747 68.1108 38.148C67.7655 38.4933 67.5462 38.974 67.4528 39.59H71.5688C71.5222 38.89 71.2888 38.3673 70.8688 38.022C70.5328 37.7327 70.0942 37.588 69.5528 37.588ZM78.1503 33.878V35.04C77.7023 34.928 77.3336 34.872 77.0443 34.872C76.8016 34.872 76.6103 34.9373 76.4703 35.068C76.3396 35.1987 76.2743 35.3807 76.2743 35.614V36.72H77.8423V37.868H76.2743V44H74.9303V37.868H73.8523V36.72H74.9303V35.698C74.9303 35.054 75.1403 34.55 75.5603 34.186C75.9336 33.8687 76.4003 33.71 76.9603 33.71C77.3243 33.71 77.7209 33.766 78.1503 33.878ZM80.492 35.502H78.98V33.92H80.492V35.502ZM80.408 44H79.064V36.72H80.408V44ZM83.7166 33.92V44H82.3726V33.92H83.7166ZM90.6372 41.9H92.0932C91.8878 42.6373 91.4818 43.216 90.8752 43.636C90.3058 44.0187 89.6245 44.21 88.8312 44.21C87.6832 44.21 86.7872 43.846 86.1432 43.118C85.5552 42.4367 85.2612 41.5173 85.2612 40.36C85.2612 39.044 85.6345 38.0453 86.3812 37.364C86.9972 36.7947 87.7905 36.51 88.7612 36.51C89.8998 36.51 90.7585 36.8787 91.3372 37.616C91.8972 38.3253 92.1772 39.338 92.1772 40.654H86.6332C86.6892 41.5127 86.9505 42.152 87.4172 42.572C87.7998 42.908 88.2852 43.076 88.8732 43.076C89.3305 43.076 89.7272 42.95 90.0632 42.698C90.3432 42.4833 90.5345 42.2173 90.6372 41.9ZM88.7892 37.588C88.1918 37.588 87.7112 37.7747 87.3472 38.148C87.0018 38.4933 86.7825 38.974 86.6892 39.59H90.8052C90.7585 38.89 90.5252 38.3673 90.1052 38.022C89.7692 37.7327 89.3305 37.588 88.7892 37.588ZM95.1326 44H93.7886V36.72H94.8946L95.0486 37.644C95.5899 36.888 96.3273 36.51 97.2606 36.51C98.1193 36.51 98.7773 36.776 99.2346 37.308C99.6359 37.784 99.8366 38.4327 99.8366 39.254V44H98.4926V39.268C98.4926 38.1947 97.9746 37.658 96.9386 37.658C96.3973 37.658 95.9539 37.8447 95.6086 38.218C95.2913 38.554 95.1326 38.9833 95.1326 39.506V44ZM102.88 38.75H101.452C101.527 38.022 101.872 37.4573 102.488 37.056C103.039 36.692 103.734 36.51 104.574 36.51C105.573 36.51 106.338 36.7713 106.87 37.294C107.318 37.742 107.542 38.3207 107.542 39.03V44H106.436L106.268 43.006C105.699 43.8087 104.887 44.21 103.832 44.21C103.001 44.21 102.353 43.986 101.886 43.538C101.503 43.1647 101.312 42.6933 101.312 42.124C101.312 41.4053 101.559 40.85 102.054 40.458C102.493 40.1127 103.165 39.8607 104.07 39.702L106.198 39.338V38.974C106.198 38.498 106.035 38.1387 105.708 37.896C105.419 37.6813 105.022 37.574 104.518 37.574C103.529 37.574 102.983 37.966 102.88 38.75ZM104.154 43.076C104.723 43.076 105.218 42.8893 105.638 42.516C106.011 42.1707 106.198 41.774 106.198 41.326V40.388L104.392 40.71C103.729 40.822 103.277 40.9947 103.034 41.228C102.838 41.4147 102.74 41.6667 102.74 41.984C102.74 42.3387 102.861 42.6093 103.104 42.796C103.347 42.9827 103.697 43.076 104.154 43.076ZM110.773 44H109.429V36.72H110.535L110.675 37.574C111.17 36.8647 111.884 36.51 112.817 36.51C113.835 36.51 114.549 36.8927 114.959 37.658C115.445 36.8927 116.233 36.51 117.325 36.51C118.137 36.51 118.763 36.7573 119.201 37.252C119.593 37.7093 119.789 38.3347 119.789 39.128V44H118.445V39.226C118.445 38.1807 117.974 37.658 117.031 37.658C116.471 37.658 116.023 37.8773 115.687 38.316C115.417 38.6707 115.281 39.086 115.281 39.562V44H113.937V39.226C113.937 38.1807 113.466 37.658 112.523 37.658C112.001 37.658 111.567 37.8633 111.221 38.274C110.923 38.6193 110.773 39.0347 110.773 39.52V44ZM126.635 41.9H128.091C127.886 42.6373 127.48 43.216 126.873 43.636C126.304 44.0187 125.623 44.21 124.829 44.21C123.681 44.21 122.785 43.846 122.141 43.118C121.553 42.4367 121.259 41.5173 121.259 40.36C121.259 39.044 121.633 38.0453 122.379 37.364C122.995 36.7947 123.789 36.51 124.759 36.51C125.898 36.51 126.757 36.8787 127.335 37.616C127.895 38.3253 128.175 39.338 128.175 40.654H122.631C122.687 41.5127 122.949 42.152 123.415 42.572C123.798 42.908 124.283 43.076 124.871 43.076C125.329 43.076 125.725 42.95 126.061 42.698C126.341 42.4833 126.533 42.2173 126.635 41.9ZM124.787 37.588C124.19 37.588 123.709 37.7747 123.345 38.148C123 38.4933 122.781 38.974 122.687 39.59H126.803C126.757 38.89 126.523 38.3673 126.103 38.022C125.767 37.7327 125.329 37.588 124.787 37.588ZM134.189 36.72H135.589L133.027 44H131.207L128.673 36.72H130.143L132.159 42.908L134.189 36.72ZM137.979 36.762H136.565C136.677 35.894 137.078 35.2033 137.769 34.69C138.385 34.2233 139.131 33.99 140.009 33.99C141.007 33.99 141.805 34.27 142.403 34.83C142.935 35.3433 143.201 35.992 143.201 36.776C143.201 37.4667 143.005 38.106 142.613 38.694C142.295 39.1887 141.712 39.8373 140.863 40.64L138.623 42.768H143.159V44H136.803V42.768L139.995 39.702C140.704 39.0207 141.185 38.4793 141.437 38.078C141.698 37.6673 141.829 37.238 141.829 36.79C141.829 36.2487 141.642 35.8287 141.269 35.53C140.942 35.2593 140.513 35.124 139.981 35.124C139.383 35.124 138.903 35.2873 138.539 35.614C138.221 35.9033 138.035 36.286 137.979 36.762ZM147.031 44H145.407V42.376H147.031V44ZM149.296 36.72H150.402L150.612 37.672C151.21 36.8973 152.031 36.51 153.076 36.51C154.122 36.51 154.934 36.8833 155.512 37.63C156.026 38.302 156.282 39.1933 156.282 40.304C156.282 41.62 155.932 42.628 155.232 43.328C154.644 43.916 153.893 44.21 152.978 44.21C151.942 44.21 151.163 43.8273 150.64 43.062V46.52H149.296V36.72ZM154.882 40.276C154.882 39.3613 154.654 38.6753 154.196 38.218C153.832 37.8447 153.356 37.658 152.768 37.658C152.087 37.658 151.546 37.9053 151.144 38.4C150.762 38.876 150.57 39.5013 150.57 40.276C150.57 41.2093 150.799 41.9233 151.256 42.418C151.639 42.8473 152.143 43.062 152.768 43.062C153.468 43.062 154 42.8053 154.364 42.292C154.71 41.816 154.882 41.144 154.882 40.276ZM159.172 44H157.828V36.72H158.934L159.088 37.644C159.629 36.888 160.366 36.51 161.3 36.51C162.158 36.51 162.816 36.776 163.274 37.308C163.675 37.784 163.876 38.4327 163.876 39.254V44H162.532V39.268C162.532 38.1947 162.014 37.658 160.978 37.658C160.436 37.658 159.993 37.8447 159.648 38.218C159.33 38.554 159.172 38.9833 159.172 39.506V44ZM165.687 44.49H167.129C167.194 44.8633 167.381 45.1527 167.689 45.358C168.006 45.5633 168.422 45.666 168.935 45.666C169.654 45.666 170.19 45.4793 170.545 45.106C170.844 44.7887 170.993 44.3453 170.993 43.776V42.838C170.452 43.4727 169.644 43.79 168.571 43.79C167.6 43.79 166.812 43.44 166.205 42.74C165.636 42.0867 165.351 41.2373 165.351 40.192C165.351 38.9787 165.696 38.0407 166.387 37.378C166.975 36.7993 167.731 36.51 168.655 36.51C169.7 36.51 170.489 36.902 171.021 37.686L171.231 36.72H172.337V43.846C172.337 44.7607 172.006 45.4793 171.343 46.002C170.746 46.4873 169.957 46.73 168.977 46.73C167.96 46.73 167.162 46.5013 166.583 46.044C166.098 45.6613 165.799 45.1433 165.687 44.49ZM166.751 40.22C166.751 41.0133 166.984 41.634 167.451 42.082C167.834 42.4553 168.305 42.642 168.865 42.642C169.602 42.642 170.167 42.3993 170.559 41.914C170.895 41.5033 171.063 40.9527 171.063 40.262C171.063 39.3753 170.834 38.6987 170.377 38.232C169.994 37.8493 169.49 37.658 168.865 37.658C168.174 37.658 167.642 37.896 167.269 38.372C166.924 38.82 166.751 39.436 166.751 40.22Z" fill="#F7F7F7"/>
</g>
<defs>
<filter id="filter0_dd_1321_6921" x="0" y="0" width="207" height="84" filterUnits="userSpaceOnUse" color-interpolation-filters="sRGB">
<feFlood flood-opacity="0" result="BackgroundImageFix"/>
<feColorMatrix in="SourceAlpha" type="matrix" values="0 0 0 0 0 0 0 0 0 0 0 0 0 0 0 0 0 0 127 0" result="hardAlpha"/>
<feOffset/>
<feGaussianBlur stdDeviation="0.5"/>
<feColorMatrix type="matrix" values="0 0 0 0 0 0 0 0 0 0 0 0 0 0 0 0 0 0 0.14 0"/>
<feBlend mode="normal" in2="BackgroundImageFix" result="effect1_dropShadow_1321_6921"/>
<feColorMatrix in="SourceAlpha" type="matrix" values="0 0 0 0 0 0 0 0 0 0 0 0 0 0 0 0 0 0 127 0" result="hardAlpha"/>
<feOffset dy="8"/>
<feGaussianBlur stdDeviation="8"/>
<feColorMatrix type="matrix" values="0 0 0 0 0 0 0 0 0 0 0 0 0 0 0 0 0 0 0.16 0"/>
<feBlend mode="normal" in2="effect1_dropShadow_1321_6921" result="effect2_dropShadow_1321_6921"/>
<feBlend mode="normal" in="SourceGraphic" in2="effect2_dropShadow_1321_6921" result="shape"/>
</filter>
<filter id="filter1_dd_1321_6921" x="0" y="0" width="207" height="84" filterUnits="userSpaceOnUse" color-interpolation-filters="sRGB">
<feFlood flood-opacity="0" result="BackgroundImageFix"/>
<feColorMatrix in="SourceAlpha" type="matrix" values="0 0 0 0 0 0 0 0 0 0 0 0 0 0 0 0 0 0 127 0" result="hardAlpha"/>
<feOffset/>
<feGaussianBlur stdDeviation="0.5"/>
<feColorMatrix type="matrix" values="0 0 0 0 0 0 0 0 0 0 0 0 0 0 0 0 0 0 0.14 0"/>
<feBlend mode="normal" in2="BackgroundImageFix" result="effect1_dropShadow_1321_6921"/>
<feColorMatrix in="SourceAlpha" type="matrix" values="0 0 0 0 0 0 0 0 0 0 0 0 0 0 0 0 0 0 127 0" result="hardAlpha"/>
<feOffset dy="8"/>
<feGaussianBlur stdDeviation="8"/>
<feColorMatrix type="matrix" values="0 0 0 0 0 0 0 0 0 0 0 0 0 0 0 0 0 0 0.16 0"/>
<feBlend mode="normal" in2="effect1_dropShadow_1321_6921" result="effect2_dropShadow_1321_6921"/>
<feBlend mode="normal" in="SourceGraphic" in2="effect2_dropShadow_1321_6921" result="shape"/>
</filter>
</defs>
</svg>
