<svg width="42" height="42" viewBox="0 0 42 42" fill="none" xmlns="http://www.w3.org/2000/svg">
<path d="M34.2744 18.6763C36.0237 17.9699 36.7594 15.7301 35.9747 13.9211L35.9093 13.7488C35.5928 13.0123 35.221 12.3037 34.7975 11.6296C34.5953 11.2771 34.3656 10.9428 34.1109 10.6303C31.8711 7.73586 29.2389 7.21899 27.6368 7.21899C26.5236 7.21002 25.4214 7.45125 24.4037 7.92659C23.386 8.40194 22.4762 9.10048 21.7348 9.97563C22.1229 10.4945 22.4675 11.0479 22.7648 11.6296C23.8602 13.7143 24.5468 16.5743 25.119 19.0036C25.1635 18.846 25.2089 18.682 25.2553 18.5143C25.5335 17.5097 25.8478 16.3749 26.1981 15.6956C26.8684 14.4035 27.3261 14.4035 27.6368 14.4035C28.5686 14.4035 29.3207 15.8507 29.6804 16.6949C29.6804 16.6949 30.9719 20.0374 34.2744 18.6763Z" fill="#A87FF0"/>
<path d="M5.61468 11.4397C3.84901 11.5775 2.39397 13.5072 2.65555 15.4885C2.73729 16.2121 2.91713 17.332 3.14601 18.5553C3.24411 19.1066 3.35855 19.6924 3.47299 20.261C3.75838 21.6352 4.11311 22.9925 4.53566 24.327C4.9894 25.8074 5.54116 27.2525 6.18689 28.6515C8.65556 33.7168 11.9907 34.785 14.3613 34.785C15.4746 34.7951 16.5771 34.5543 17.595 34.0789C18.6129 33.6035 19.5226 32.9044 20.2632 32.0283C19.8496 31.4716 19.4831 30.8778 19.1678 30.2538C18.1215 28.2207 17.4512 25.8776 16.879 23.4311C16.6167 24.406 16.2663 25.3522 15.8327 26.2566C15.146 27.6005 14.6719 27.6005 14.3613 27.6005C13.691 27.6005 12.988 26.8424 12.2686 25.378C11.898 24.5768 11.5705 23.7542 11.2877 22.9142C11.0915 22.3112 10.8953 21.691 10.7319 21.0879L10.6939 20.9481C10.5261 20.3304 10.2645 19.3675 10.1433 18.7448C9.85236 17.3578 9.51445 15.216 9.40817 14.5423C9.38906 14.4212 9.3774 14.3473 9.37491 14.3342C9.22777 13.5589 8.36128 11.1985 5.61468 11.4397Z" fill="#A87FF0"/>
<path d="M36.1053 11.4058H36.0235C36.3645 12.0057 36.6702 12.6271 36.9391 13.2665L37.0208 13.4388C37.5135 14.5976 37.5511 15.9149 37.1253 17.1028C36.6995 18.2907 35.845 19.2529 34.7483 19.7791C34.1566 20.058 33.5164 20.2046 32.8682 20.2098C32.4255 20.2014 31.9858 20.1319 31.5603 20.003C31.1025 21.8121 30.3832 24.0346 29.7292 25.3785C29.0753 26.7223 28.3069 27.601 27.6202 27.601C27.326 27.601 26.8518 27.601 26.1652 26.2572C25.7316 25.3527 25.3812 24.4065 25.1189 23.4316C24.9063 22.6735 24.7102 21.8638 24.514 21.0195C24.4322 20.7095 24.3668 20.3992 24.3014 20.0892C23.6802 17.367 22.9772 14.507 21.7674 12.2155C21.5358 11.7747 21.2792 11.3489 20.999 10.9406C20.7699 10.6057 20.5243 10.2836 20.2633 9.97578C19.5201 9.09843 18.6076 8.3986 17.5869 7.92317C16.5662 7.44775 15.4609 7.20771 14.345 7.21914C12.7592 7.21914 10.127 7.73601 7.88723 10.6305C8.5936 10.9654 9.2074 11.4844 9.67077 12.1385C10.1341 12.7926 10.4318 13.5603 10.5357 14.3692C10.6502 15.2306 10.9281 16.9018 11.2551 18.4869C11.2878 18.6592 11.3205 18.8315 11.3695 19.021C11.5603 18.4982 11.7512 18.0379 11.9497 17.5591C12.0063 17.4226 12.0635 17.2845 12.1216 17.143L12.3178 16.6951C12.6774 15.8509 13.4295 14.4036 14.345 14.4036C14.672 14.4036 15.1298 14.4036 15.8001 15.6958C16.2517 16.6197 16.6132 17.5895 16.8791 18.5903C17.0916 19.3656 17.3041 20.1926 17.484 21.0195C17.5494 21.2608 17.5984 21.502 17.6475 21.7432C18.3014 24.6204 18.9881 27.3943 20.1652 29.6857C20.4089 30.1727 20.6876 30.6392 20.999 31.0813C21.228 31.4107 21.4736 31.7271 21.7347 32.0289C23.6802 34.2514 25.92 34.7855 27.6202 34.7855C29.9908 34.7855 33.3423 33.7173 35.811 28.652C37.0699 26.0504 38.1325 22.2083 38.5249 20.2615C38.9173 18.3146 39.2115 16.5572 39.3423 15.489C39.4044 15.0204 39.3778 14.5435 39.2641 14.0857C39.1503 13.628 38.9517 13.1985 38.6796 12.8221C38.4075 12.4457 38.0674 12.1297 37.6789 11.8926C37.2904 11.6554 36.8611 11.5017 36.4159 11.4402L36.1053 11.4058Z" fill="#A87FF0"/>
</svg>
