<svg width="42" height="42" viewBox="0 0 42 42" fill="none" xmlns="http://www.w3.org/2000/svg">
<path d="M3.9375 2.95312C3.39384 2.95312 2.95312 3.39384 2.95312 3.9375V24.9375C2.95312 25.4812 3.39384 25.9219 3.9375 25.9219H13.125C13.6687 25.9219 14.1094 25.4812 14.1094 24.9375V14.1094H24.9375C25.4812 14.1094 25.9219 13.6687 25.9219 13.125V3.9375C25.9219 3.39384 25.4812 2.95312 24.9375 2.95312H3.9375ZM4.92188 23.9531V4.92188H23.9531V12.1406H13.125C12.5813 12.1406 12.1406 12.5813 12.1406 13.125V23.9531H4.92188ZM38.0625 39.0469C38.6062 39.0469 39.0469 38.6062 39.0469 38.0625L39.0469 17.0625C39.0469 16.5188 38.6062 16.0781 38.0625 16.0781L28.875 16.0781C28.6139 16.0781 28.3635 16.1818 28.1789 16.3664C27.9943 16.551 27.8906 16.8014 27.8906 17.0625V27.8906H17.0625C16.5188 27.8906 16.0781 28.3313 16.0781 28.875L16.0781 38.0625C16.0781 38.6062 16.5188 39.0469 17.0625 39.0469L38.0625 39.0469ZM37.0781 18.0469L37.0781 37.0781L18.0469 37.0781L18.0469 29.8594H28.875C29.4187 29.8594 29.8594 29.4187 29.8594 28.875V18.0469L37.0781 18.0469Z" fill="#A87FF0"/>
</svg>
