<svg width="559" height="345" viewBox="0 0 559 345" fill="none" xmlns="http://www.w3.org/2000/svg">
<rect width="559" height="345" rx="16" fill="#1A1A1A"/>
<path d="M519 25.9996C516.232 25.9996 513.525 26.8207 511.223 28.3591C508.92 29.8974 507.126 32.0839 506.066 34.6421C505.007 37.2002 504.729 40.0152 505.27 42.7309C505.81 45.4466 507.143 47.9412 509.101 49.8991C511.059 51.8571 513.553 53.1904 516.269 53.7306C518.985 54.2708 521.8 53.9936 524.358 52.9339C526.916 51.8743 529.103 50.0799 530.641 47.7776C532.179 45.4753 533 42.7686 533 39.9996C532.996 36.2879 531.52 32.7293 528.895 30.1047C526.271 27.4801 522.712 26.0038 519 25.9996ZM528.155 47.7404L511.26 30.8449C513.555 28.8984 516.498 27.8864 519.505 28.0097C522.511 28.133 525.362 29.3827 527.49 31.5106C529.617 33.6384 530.867 36.4888 530.99 39.4955C531.114 42.5022 530.102 45.4454 528.155 47.7404ZM509.846 32.2589L526.741 49.1544C524.446 51.1008 521.503 52.1129 518.496 51.9895C515.49 51.8662 512.639 50.6165 510.512 48.4886C508.384 46.3608 507.134 43.5105 507.011 40.5038C506.887 37.4971 507.899 34.5539 509.846 32.2589Z" fill="#FC8B98"/>
<path d="M223.047 123.982V123.2C223.047 119.756 225.864 116.939 229.308 116.939H304.438C307.882 116.939 310.699 119.756 310.699 123.2V132.591C310.699 142.765 304.438 145.113 301.308 141.982C298.177 138.852 299.742 134.156 306.786 131.809L317.273 128.287C320.56 127.191 324.082 128.991 325.177 132.278L346.229 195.513C347.325 198.8 345.525 202.322 342.238 203.417L269.612 227.6C266.325 228.695 262.803 226.895 261.708 223.609L257.403 210.774M249.655 137.287H263.742M310.699 146.678V198.33C310.699 201.774 307.882 204.591 304.438 204.591H229.308C225.864 204.591 223.047 201.774 223.047 198.33V145.895C223.047 145.504 222.734 145.191 222.342 145.113C218.273 144.722 215.064 141.278 215.221 137.052C215.377 133.061 218.586 129.695 222.655 129.461C225.238 129.304 227.508 130.4 229.073 132.2L234.942 131.495C236.273 127.504 238.855 124.765 241.908 124.765C246.212 124.765 249.734 130.4 249.734 137.287C249.734 144.174 246.212 149.809 241.908 149.809C238.855 149.809 236.195 146.756 234.864 142.765L229.386 141.982M238.699 167.887L241.438 165.148C243.864 162.722 248.09 164.443 248.09 167.887C248.09 171.33 252.316 173.052 254.742 170.626L260.221 165.148C262.647 162.722 266.873 164.443 266.873 167.887C266.873 171.33 271.099 173.052 273.525 170.626L279.003 165.148C281.429 162.722 285.655 164.443 285.655 167.887C285.655 171.33 289.882 173.052 292.308 170.626L295.047 167.887M238.699 185.104L241.438 182.365C243.864 179.939 248.09 181.661 248.09 185.104C248.09 188.548 252.316 190.269 254.742 187.843L260.221 182.365C262.647 179.939 266.873 181.661 266.873 185.104C266.873 188.548 271.099 190.269 273.525 187.843L279.003 182.365C281.429 179.939 285.655 181.661 285.655 185.104C285.655 188.548 289.882 190.269 292.308 187.843L295.047 185.104" stroke="url(#paint0_linear_1478_4559)" stroke-width="1.94048" stroke-miterlimit="10" stroke-linecap="round" stroke-linejoin="round"/>
<path d="M0 322H559C559 334.703 548.703 345 536 345H23C10.2975 345 0 334.703 0 322Z" fill="url(#paint1_linear_1478_4559)"/>
<defs>
<linearGradient id="paint0_linear_1478_4559" x1="280.883" y1="116.939" x2="280.883" y2="227.921" gradientUnits="userSpaceOnUse">
<stop stop-color="#FFBE4F"/>
<stop offset="1" stop-color="#F26B1D"/>
</linearGradient>
<linearGradient id="paint1_linear_1478_4559" x1="279.5" y1="322" x2="279.5" y2="345" gradientUnits="userSpaceOnUse">
<stop stop-color="#F0677E"/>
<stop offset="1" stop-color="#DB1F2E"/>
</linearGradient>
</defs>
</svg>
