<svg width="559" height="256" viewBox="0 0 559 256" fill="none" xmlns="http://www.w3.org/2000/svg">
<rect width="559" height="255.409" rx="16" fill="#1A1A1A"/>
<path d="M514.201 48.1998C514.069 48.2001 513.938 48.1742 513.816 48.1236C513.695 48.0729 513.584 47.9986 513.492 47.9049L506.291 40.6696C506.199 40.5764 506.125 40.466 506.076 40.3446C506.026 40.2231 506 40.093 506 39.9617C506.001 39.8304 506.027 39.7004 506.078 39.5793C506.128 39.4581 506.202 39.3481 506.295 39.2555C506.388 39.1629 506.499 39.0895 506.62 39.0396C506.742 38.9897 506.872 38.9642 507.003 38.9646C507.134 38.9649 507.264 38.9912 507.386 39.0417C507.507 39.0923 507.617 39.1663 507.709 39.2594L514.254 45.8365L530.35 32.0416C530.551 31.8691 530.813 31.7836 531.077 31.804C531.341 31.8243 531.587 31.9488 531.759 32.15C531.932 32.3513 532.017 32.6128 531.997 32.8771C531.976 33.1413 531.852 33.3867 531.651 33.5592L514.851 47.9586C514.67 48.1144 514.439 48.2 514.201 48.1998Z" fill="url(#paint0_linear_1478_3654)"/>
<path d="M400.83 120.791C401.948 120.791 402.863 119.878 402.863 118.762C402.863 117.646 401.948 116.732 400.83 116.732C399.713 116.732 398.798 117.646 398.798 118.762C398.798 119.878 399.713 120.791 400.83 120.791Z" fill="white" fill-opacity="0.95"/>
<path d="M408.959 120.791C410.077 120.791 410.991 119.878 410.991 118.762C410.991 117.646 410.077 116.732 408.959 116.732C407.841 116.732 406.927 117.646 406.927 118.762C406.927 119.878 407.841 120.791 408.959 120.791Z" fill="white" fill-opacity="0.95"/>
<path d="M417.088 120.791C418.205 120.791 419.12 119.878 419.12 118.762C419.12 117.646 418.205 116.732 417.088 116.732C415.97 116.732 415.055 117.646 415.055 118.762C415.055 119.878 415.97 120.791 417.088 120.791Z" fill="white" fill-opacity="0.95"/>
<path d="M439.747 124.647C438.426 132.461 434.158 139.868 427.046 144.84C420.238 149.61 414.751 149.102 411.703 152.147C409.976 153.872 409.264 156.307 409.772 158.539C410.077 160.163 408.451 161.482 407.029 160.873C405.606 160.264 404.387 159.351 403.168 157.829C398.799 152.857 398.189 145.449 402.253 140.173C404.59 137.23 406.826 137.129 408.147 138.448C409.366 139.665 409.467 141.492 407.435 143.42C403.777 147.073 395.141 147.073 387.927 139.868C377.055 129.112 376.953 112.775 384.574 102.222C393.414 90.0449 408.858 86.4934 421.356 91.77C423.185 92.5818 423.896 94.8142 422.778 96.5392L415.666 107.803C414.751 109.122 415.767 110.948 417.393 110.948H429.383C430.094 110.948 430.602 111.76 430.297 112.369L422.168 130.228C421.66 131.243 422.981 132.156 423.794 131.345L449.094 106.078C450.415 104.759 449.501 102.628 447.672 102.628H440.255C439.442 102.628 438.934 101.714 439.442 101.004L444.522 93.5965" stroke="white" stroke-opacity="0.95" stroke-width="1.1726" stroke-miterlimit="10" stroke-linecap="round" stroke-linejoin="round"/>
<line x1="215.854" y1="116.214" x2="215.854" y2="138.671" stroke="white" stroke-opacity="0.95" stroke-width="2.3452"/>
<line x1="227.134" y1="127.594" x2="203.861" y2="127.594" stroke="white" stroke-opacity="0.95" stroke-width="2.3452"/>
<line x1="358.72" y1="132.07" x2="335.446" y2="132.07" stroke="white" stroke-opacity="0.95" stroke-width="2.3452"/>
<line x1="358.72" y1="122.797" x2="335.446" y2="122.797" stroke="white" stroke-opacity="0.95" stroke-width="2.3452"/>
<path d="M277.336 137.379L271.115 146.733C270.712 147.315 271.16 148.12 271.876 148.12H277.113C277.426 148.12 277.65 148.478 277.515 148.747L273.935 156.579C273.711 157.027 274.293 157.43 274.651 157.072L285.706 146.017C286.288 145.435 285.885 144.495 285.079 144.495H281.812C281.454 144.495 281.23 144.092 281.454 143.779L284.811 138.856C285.482 137.871 286.601 137.289 287.765 137.289H302.982C309.338 137.289 314.664 132.321 314.843 125.965C315.022 119.386 309.741 114.015 303.206 114.015C302.266 114.015 301.326 114.15 300.476 114.329C299.715 103.139 290.406 94.3223 279.037 94.3223C268.967 94.4118 260.553 101.304 258.18 110.659C257.688 110.614 257.151 110.569 256.614 110.569C249.095 110.569 242.963 116.79 243.187 124.354C243.366 131.65 249.587 137.423 256.882 137.423H261.09M300.431 114.463C294.657 116.387 291.524 121.311 293.762 123.549C295.553 125.294 300.476 122.161 300.431 114.463Z" stroke="white" stroke-opacity="0.95" stroke-width="1.1726" stroke-miterlimit="10" stroke-linecap="round" stroke-linejoin="round"/>
<path d="M141.576 106.761C141.576 106.761 140.954 108.682 140.728 109.304C140.446 110.151 141.011 110.434 141.576 110.434H142.141M150.617 106.478C148.922 106.478 147.792 105.348 146.661 104.218C145.531 103.088 144.401 101.958 142.424 101.958C140.389 101.958 138.751 103.597 138.751 105.631V111.281C138.751 113.598 140.672 115.491 142.989 115.519C147.453 115.576 151.041 111.451 151.182 109.134C151.21 108.541 150.758 107.948 150.165 107.891C149.487 107.835 148.922 108.343 148.922 109.021V115.237C148.922 116.48 149.939 117.497 151.182 117.497H152.058C153.866 117.497 155.589 118.175 156.889 119.418L160.392 122.78C160.618 122.978 160.957 122.978 161.183 122.78L168.134 116.084C168.134 113.485 170.592 112.072 171.778 111.536C172.117 111.366 172.541 111.451 172.824 111.733C173.191 112.101 173.191 112.722 172.767 113.09L171.241 114.417C172.061 115.802 171.807 118.26 169.97 119.418C169.885 119.475 169.829 119.559 169.829 119.644V121.735C169.829 122.046 170.083 122.3 170.394 122.3H181.978M137.621 103.371C137.621 100.884 139.655 98.8501 142.141 98.8501C143.554 98.8501 146.944 98.8501 146.944 98.8501C150.052 98.8501 152.595 101.393 152.595 104.501V106.478M154.007 156.768H142.706C142.395 156.768 142.141 156.514 142.141 156.203V153.378C142.141 153.067 142.395 152.813 142.706 152.813H148.357C150.221 152.813 151.747 151.287 151.747 149.423V137.557C151.747 135.692 150.221 134.166 148.357 134.166H130.275C128.41 134.166 126.884 135.692 126.884 137.557V149.423C126.884 151.287 128.41 152.813 130.275 152.813H135.925C136.236 152.813 136.49 153.067 136.49 153.378V156.203C136.49 156.514 136.236 156.768 135.925 156.768H126.602C119.115 156.768 113.041 150.694 113.041 143.207C113.041 135.72 119.115 129.646 126.602 129.646H159.94M154.007 156.768L158.923 146.965C160.082 144.676 162.427 143.207 164.998 143.207H167.173C168.021 143.207 168.727 142.501 168.727 141.653C168.727 140.806 168.021 140.099 167.173 140.099H165.591C164.178 140.099 163.076 138.913 163.076 137.5V135.296C163.076 134.986 162.822 134.731 162.511 134.731H161.946C161.381 134.731 160.534 134.449 161.099 132.754L161.946 130.211C163.105 126.764 165.337 125.125 168.727 125.125C172.485 125.125 175.508 128.148 175.508 131.906C175.508 134.731 174.378 135.579 174.378 138.969M154.007 156.768C152.962 158.859 154.29 160.441 155.702 160.441C156.493 160.441 157.115 159.82 157.115 159.029C157.115 157.899 155.985 156.768 154.007 156.768ZM119.256 129.646H115.301C114.058 129.646 113.041 128.629 113.041 127.385V118.062C113.041 116.819 114.058 115.802 115.301 115.802H127.732C128.975 115.802 129.992 116.819 129.992 118.062V125.408C132.818 125.408 135.078 117.497 141.858 117.497H142.989M169.829 110.434V104.218C169.829 103.907 170.083 103.653 170.394 103.653H179.491C179.633 103.653 179.774 103.71 179.887 103.823L182.938 106.874C183.051 106.987 183.108 107.128 183.108 107.269V112.694M179.435 103.936V107.326H182.825M171.27 135.296C172.23 135.296 172.993 134.505 172.965 133.545C172.937 132.612 172.117 131.906 171.213 131.906H170.45C170.083 131.906 169.716 131.765 169.462 131.482L169.038 131.058C168.529 130.55 168.388 129.759 168.727 129.109L169.179 128.205C169.377 127.838 169.094 127.385 168.67 127.385H165.902M174.349 138.969C174.349 141.314 176.242 143.207 178.587 143.207C181.978 143.207 186.498 138.687 186.498 130.776C186.498 125.916 184.436 121.057 180.311 116.678C180 116.339 180 115.802 180.339 115.491C180.65 115.18 181.13 115.152 181.469 115.406L183.136 116.649V112.694C185.001 112.694 186.526 114.22 186.526 116.084V118.345" stroke="white" stroke-opacity="0.95" stroke-width="0.740202" stroke-miterlimit="10" stroke-linecap="round" stroke-linejoin="round"/>
<path d="M128.853 103.609C128.853 102.817 128.486 102.478 128.006 102.478C127.469 102.478 127.045 102.93 127.186 103.976C127.412 105.812 128.994 107.14 130.831 107.281C131.368 107.31 131.763 107.253 132.187 107.112C132.611 106.942 132.667 106.377 132.272 106.123C131.735 105.756 131.396 105.162 131.396 104.484C131.396 103.298 132.583 102.309 132.978 100.049C133.826 95.1327 130.351 90.5275 125.378 90.1037C119.869 89.6234 115.348 94.3981 116.252 99.9639C116.846 103.552 120.095 106.745 124.333 106.745C127.158 106.716 128.853 105.021 128.853 103.609Z" stroke="#27A17A" stroke-width="0.740202" stroke-miterlimit="10" stroke-linecap="round" stroke-linejoin="round"/>
<path d="M122.52 99.0327C122.832 99.0327 123.085 98.7797 123.085 98.4676C123.085 98.1556 122.832 97.9026 122.52 97.9026C122.208 97.9026 121.955 98.1556 121.955 98.4676C121.955 98.7797 122.208 99.0327 122.52 99.0327Z" fill="#27A17A"/>
<path d="M124.788 99.0328C125.1 99.0328 125.353 98.7798 125.353 98.4678C125.353 98.1557 125.1 97.9027 124.788 97.9027C124.476 97.9027 124.223 98.1557 124.223 98.4678C124.223 98.7798 124.476 99.0328 124.788 99.0328Z" fill="#27A17A"/>
<path d="M127.038 99.0328C127.35 99.0328 127.603 98.7798 127.603 98.4678C127.603 98.1557 127.35 97.9027 127.038 97.9027C126.726 97.9027 126.473 98.1557 126.473 98.4678C126.473 98.7798 126.726 99.0328 127.038 99.0328Z" fill="#27A17A"/>
<path d="M127.038 99.0328C127.35 99.0328 127.603 98.7798 127.603 98.4678C127.603 98.1557 127.35 97.9027 127.038 97.9027C126.726 97.9027 126.473 98.1557 126.473 98.4678C126.473 98.7798 126.726 99.0328 127.038 99.0328Z" fill="#27A17A"/>
<path d="M127.038 99.0328C127.35 99.0328 127.603 98.7798 127.603 98.4678C127.603 98.1557 127.35 97.9027 127.038 97.9027C126.726 97.9027 126.473 98.1557 126.473 98.4678C126.473 98.7798 126.726 99.0328 127.038 99.0328Z" fill="#27A17A"/>
<path d="M400.83 120.791C401.948 120.791 402.863 119.878 402.863 118.762C402.863 117.646 401.948 116.732 400.83 116.732C399.713 116.732 398.798 117.646 398.798 118.762C398.798 119.878 399.713 120.791 400.83 120.791Z" fill="white" fill-opacity="0.95"/>
<path d="M408.959 120.791C410.077 120.791 410.991 119.878 410.991 118.762C410.991 117.646 410.077 116.732 408.959 116.732C407.841 116.732 406.927 117.646 406.927 118.762C406.927 119.878 407.841 120.791 408.959 120.791Z" fill="white" fill-opacity="0.95"/>
<path d="M417.088 120.791C418.205 120.791 419.12 119.878 419.12 118.762C419.12 117.646 418.205 116.732 417.088 116.732C415.97 116.732 415.055 117.646 415.055 118.762C415.055 119.878 415.97 120.791 417.088 120.791Z" fill="white" fill-opacity="0.95"/>
<path d="M439.747 124.647C438.426 132.461 434.158 139.868 427.046 144.84C420.238 149.61 414.751 149.102 411.703 152.147C409.976 153.872 409.264 156.307 409.772 158.539C410.077 160.163 408.451 161.482 407.029 160.873C405.606 160.264 404.387 159.351 403.168 157.829C398.799 152.857 398.189 145.449 402.253 140.173C404.59 137.23 406.826 137.129 408.147 138.448C409.366 139.665 409.467 141.492 407.435 143.42C403.777 147.073 395.141 147.073 387.927 139.868C377.055 129.112 376.953 112.775 384.574 102.222C393.414 90.0449 408.858 86.4934 421.356 91.77C423.185 92.5818 423.896 94.8142 422.778 96.5392L415.666 107.803C414.751 109.122 415.767 110.948 417.393 110.948H429.383C430.094 110.948 430.602 111.76 430.297 112.369L422.168 130.228C421.66 131.243 422.981 132.156 423.794 131.345L449.094 106.078C450.415 104.759 449.501 102.628 447.672 102.628H440.255C439.442 102.628 438.934 101.714 439.442 101.004L444.522 93.5965" stroke="white" stroke-opacity="0.95" stroke-width="1.1726" stroke-miterlimit="10" stroke-linecap="round" stroke-linejoin="round"/>
<path d="M277.336 137.379L271.115 146.733C270.712 147.315 271.16 148.12 271.876 148.12H277.113C277.426 148.12 277.65 148.478 277.515 148.747L273.935 156.579C273.711 157.027 274.293 157.43 274.651 157.072L285.706 146.017C286.288 145.435 285.885 144.495 285.079 144.495H281.812C281.454 144.495 281.23 144.092 281.454 143.779L284.811 138.856C285.482 137.871 286.601 137.289 287.765 137.289H302.982C309.338 137.289 314.664 132.321 314.843 125.965C315.022 119.386 309.741 114.015 303.206 114.015C302.266 114.015 301.326 114.15 300.476 114.329C299.715 103.139 290.406 94.3223 279.037 94.3223C268.967 94.4118 260.553 101.304 258.18 110.659C257.688 110.614 257.151 110.569 256.614 110.569C249.095 110.569 242.963 116.79 243.187 124.354C243.366 131.65 249.587 137.423 256.882 137.423H261.09M300.431 114.463C294.657 116.387 291.524 121.311 293.762 123.549C295.553 125.294 300.476 122.161 300.431 114.463Z" stroke="white" stroke-opacity="0.95" stroke-width="1.1726" stroke-miterlimit="10" stroke-linecap="round" stroke-linejoin="round"/>
<path d="M277.311 137.378L271.09 146.733C270.687 147.314 271.135 148.12 271.851 148.12H277.087C277.401 148.12 277.624 148.478 277.49 148.747L273.91 156.579C273.686 157.027 274.268 157.43 274.626 157.072L285.681 146.017C286.263 145.435 285.86 144.495 285.054 144.495H281.787C281.429 144.495 281.205 144.092 281.429 143.779L284.786 138.855" stroke="#27A17A" stroke-width="1.1726" stroke-miterlimit="10" stroke-linecap="round" stroke-linejoin="round"/>
<path d="M141.576 106.761C141.576 106.761 140.954 108.682 140.728 109.304C140.446 110.151 141.011 110.434 141.576 110.434H142.141M150.617 106.478C148.922 106.478 147.792 105.348 146.661 104.218C145.531 103.088 144.401 101.958 142.424 101.958C140.389 101.958 138.751 103.597 138.751 105.631V111.281C138.751 113.598 140.672 115.491 142.989 115.519C147.453 115.576 151.041 111.451 151.182 109.134C151.21 108.541 150.758 107.948 150.165 107.891C149.487 107.835 148.922 108.343 148.922 109.021V115.237C148.922 116.48 149.939 117.497 151.182 117.497H152.058C153.866 117.497 155.589 118.175 156.889 119.418L160.392 122.78C160.618 122.978 160.957 122.978 161.183 122.78L168.134 116.084C168.134 113.485 170.592 112.072 171.778 111.536C172.117 111.366 172.541 111.451 172.824 111.733C173.191 112.101 173.191 112.722 172.767 113.09L171.241 114.417C172.061 115.802 171.807 118.26 169.97 119.418C169.885 119.475 169.829 119.559 169.829 119.644V121.735C169.829 122.046 170.083 122.3 170.394 122.3H181.978M137.621 103.371C137.621 100.884 139.655 98.8501 142.141 98.8501C143.554 98.8501 146.944 98.8501 146.944 98.8501C150.052 98.8501 152.595 101.393 152.595 104.501V106.478M154.007 156.768H142.706C142.395 156.768 142.141 156.514 142.141 156.203V153.378C142.141 153.067 142.395 152.813 142.706 152.813H148.357C150.221 152.813 151.747 151.287 151.747 149.423V137.557C151.747 135.692 150.221 134.166 148.357 134.166H130.275C128.41 134.166 126.884 135.692 126.884 137.557V149.423C126.884 151.287 128.41 152.813 130.275 152.813H135.925C136.236 152.813 136.49 153.067 136.49 153.378V156.203C136.49 156.514 136.236 156.768 135.925 156.768H126.602C119.115 156.768 113.041 150.694 113.041 143.207C113.041 135.72 119.115 129.646 126.602 129.646H159.94M154.007 156.768L158.923 146.965C160.082 144.676 162.427 143.207 164.998 143.207H167.173C168.021 143.207 168.727 142.501 168.727 141.653C168.727 140.806 168.021 140.099 167.173 140.099H165.591C164.178 140.099 163.076 138.913 163.076 137.5V135.296C163.076 134.986 162.822 134.731 162.511 134.731H161.946C161.381 134.731 160.534 134.449 161.099 132.754L161.946 130.211C163.105 126.764 165.337 125.125 168.727 125.125C172.485 125.125 175.508 128.148 175.508 131.906C175.508 134.731 174.378 135.579 174.378 138.969M154.007 156.768C152.962 158.859 154.29 160.441 155.702 160.441C156.493 160.441 157.115 159.82 157.115 159.029C157.115 157.899 155.985 156.768 154.007 156.768ZM119.256 129.646H115.301C114.058 129.646 113.041 128.629 113.041 127.385V118.062C113.041 116.819 114.058 115.802 115.301 115.802H127.732C128.975 115.802 129.992 116.819 129.992 118.062V125.408C132.818 125.408 135.078 117.497 141.858 117.497H142.989M169.829 110.434V104.218C169.829 103.907 170.083 103.653 170.394 103.653H179.491C179.633 103.653 179.774 103.71 179.887 103.823L182.938 106.874C183.051 106.987 183.108 107.128 183.108 107.269V112.694M179.435 103.936V107.326H182.825M171.27 135.296C172.23 135.296 172.993 134.505 172.965 133.545C172.937 132.612 172.117 131.906 171.213 131.906H170.45C170.083 131.906 169.716 131.765 169.462 131.482L169.038 131.058C168.529 130.55 168.388 129.759 168.727 129.109L169.179 128.205C169.377 127.838 169.094 127.385 168.67 127.385H165.902M174.349 138.969C174.349 141.314 176.242 143.207 178.587 143.207C181.978 143.207 186.498 138.687 186.498 130.776C186.498 125.916 184.436 121.057 180.311 116.678C180 116.339 180 115.802 180.339 115.491C180.65 115.18 181.13 115.152 181.469 115.406L183.136 116.649V112.694C185.001 112.694 186.526 114.22 186.526 116.084V118.345" stroke="white" stroke-opacity="0.95" stroke-width="0.740202" stroke-miterlimit="10" stroke-linecap="round" stroke-linejoin="round"/>
<path d="M128.853 103.609C128.853 102.817 128.486 102.478 128.006 102.478C127.469 102.478 127.045 102.93 127.186 103.976C127.412 105.812 128.994 107.14 130.831 107.281C131.368 107.31 131.763 107.253 132.187 107.112C132.611 106.942 132.667 106.377 132.272 106.123C131.735 105.756 131.396 105.162 131.396 104.484C131.396 103.298 132.583 102.309 132.978 100.049C133.826 95.1327 130.351 90.5275 125.378 90.1037C119.869 89.6234 115.348 94.3981 116.252 99.9639C116.846 103.552 120.095 106.745 124.333 106.745C127.158 106.716 128.853 105.021 128.853 103.609Z" stroke="#27A17A" stroke-width="0.740202" stroke-miterlimit="10" stroke-linecap="round" stroke-linejoin="round"/>
<path d="M0 232.409H559C559 245.112 548.703 255.409 536 255.409H23C10.2975 255.409 0 245.112 0 232.409Z" fill="url(#paint1_linear_1478_3654)"/>
<defs>
<linearGradient id="paint0_linear_1478_3654" x1="519" y1="31.801" x2="519" y2="48.1998" gradientUnits="userSpaceOnUse">
<stop stop-color="#3CC29A"/>
<stop offset="1" stop-color="#93C437"/>
</linearGradient>
<linearGradient id="paint1_linear_1478_3654" x1="279.5" y1="232.409" x2="279.5" y2="255.409" gradientUnits="userSpaceOnUse">
<stop stop-color="#3CC29A"/>
<stop offset="1" stop-color="#93C437"/>
</linearGradient>
</defs>
</svg>
