<svg width="559" height="345" viewBox="0 0 559 345" fill="none" xmlns="http://www.w3.org/2000/svg">
<rect width="559" height="345" rx="16" fill="#1A1A1A"/>
<path d="M519 25.9995C516.232 25.9995 513.525 26.8206 511.223 28.3589C508.92 29.8973 507.126 32.0838 506.066 34.6419C505.007 37.2001 504.729 40.015 505.27 42.7308C505.81 45.4465 507.143 47.9411 509.101 49.899C511.059 51.8569 513.553 53.1903 516.269 53.7305C518.985 54.2707 521.8 53.9935 524.358 52.9338C526.916 51.8742 529.103 50.0798 530.641 47.7775C532.179 45.4752 533 42.7684 533 39.9995C532.996 36.2878 531.52 32.7292 528.895 30.1046C526.271 27.48 522.712 26.0037 519 25.9995ZM528.155 47.7402L511.26 30.8447C513.555 28.8983 516.498 27.8862 519.505 28.0096C522.511 28.1329 525.362 29.3826 527.49 31.5105C529.617 33.6383 530.867 36.4887 530.99 39.4954C531.114 42.5021 530.102 45.4453 528.155 47.7402ZM509.846 32.2588L526.741 49.1543C524.446 51.1007 521.503 52.1127 518.496 51.9894C515.49 51.866 512.639 50.6164 510.512 48.4885C508.384 46.3607 507.134 43.5103 507.011 40.5036C506.887 37.4969 507.899 34.5538 509.846 32.2588Z" fill="#FC8B98"/>
<path d="M229.699 232.139V128.835M229.699 128.835L239.091 125.704C267.265 116.313 292.308 117.878 292.308 135.096C292.308 152.313 292.308 169.53 292.308 169.53M229.699 128.835C217.96 132.748 214.047 119.443 218.743 116.313C223.439 113.183 229.699 118.661 229.699 128.835ZM297.786 140.887C307.647 141.435 321.499 139.948 336.134 135.096V200.835C307.96 210.226 282.917 207.096 282.917 200.835C282.917 196.139 292.308 196.139 292.308 191.443C292.308 185.496 269.926 182.365 243.63 190.035C240.969 190.817 239.091 193.243 239.091 196.061V232.139" stroke="url(#paint0_linear_1478_4622)" stroke-width="1.94366" stroke-miterlimit="10" stroke-linecap="round" stroke-linejoin="round"/>
<path d="M0 322H559C559 334.703 548.703 345 536 345H23C10.2975 345 0 334.703 0 322Z" fill="url(#paint1_linear_1478_4622)"/>
<defs>
<linearGradient id="paint0_linear_1478_4622" x1="276.47" y1="115.434" x2="276.47" y2="232.139" gradientUnits="userSpaceOnUse">
<stop stop-color="#279BE8"/>
<stop offset="1" stop-color="#875AE0"/>
</linearGradient>
<linearGradient id="paint1_linear_1478_4622" x1="279.5" y1="322" x2="279.5" y2="345" gradientUnits="userSpaceOnUse">
<stop stop-color="#F0677E"/>
<stop offset="1" stop-color="#DB1F2E"/>
</linearGradient>
</defs>
</svg>
