<svg width="559" height="241" viewBox="0 0 559 241" fill="none" xmlns="http://www.w3.org/2000/svg">
<rect width="559" height="240.13" rx="16" fill="#1A1A1A"/>
<path d="M519 25.9998C516.232 25.9998 513.525 26.8208 511.223 28.3592C508.92 29.8975 507.126 32.084 506.066 34.6422C505.007 37.2004 504.729 40.0153 505.27 42.731C505.81 45.4468 507.143 47.9413 509.101 49.8993C511.059 51.8572 513.553 53.1906 516.269 53.7308C518.985 54.2709 521.8 53.9937 524.358 52.9341C526.916 51.8744 529.103 50.08 530.641 47.7777C532.179 45.4755 533 42.7687 533 39.9998C532.996 36.288 531.52 32.7295 528.895 30.1049C526.271 27.4803 522.712 26.0039 519 25.9998ZM528.155 47.7405L511.26 30.845C513.555 28.8985 516.498 27.8865 519.505 28.0098C522.511 28.1331 525.362 29.3828 527.49 31.5107C529.617 33.6386 530.867 36.4889 530.99 39.4956C531.114 42.5024 530.102 45.4455 528.155 47.7405ZM509.846 32.2591L526.741 49.1545C524.446 51.101 521.503 52.113 518.496 51.9896C515.49 51.8663 512.639 50.6166 510.512 48.4888C508.384 46.3609 507.134 43.5106 507.011 40.5039C506.887 37.4972 507.899 34.5541 509.846 32.2591Z" fill="#FC8B98"/>
<path d="M253.92 102.891L257.449 99.3697C258.115 98.7045 259.135 98.7045 259.802 99.3697C260.468 100.035 260.468 101.052 259.802 101.717L257.057 104.457L260.194 107.587C261.056 108.448 261.056 109.857 260.194 110.717C259.331 111.578 257.919 111.578 257.057 110.717L253.92 107.587L250.783 109.778C250.39 110.052 250.351 110.639 250.665 110.991L250.783 111.109C251.214 111.539 251.214 112.244 250.783 112.674C250.351 113.104 249.645 113.104 249.214 112.674L246.469 109.935C246.038 109.504 246.038 108.8 246.469 108.37C246.9 107.939 247.606 107.939 248.038 108.37L248.155 108.487C248.508 108.839 249.057 108.8 249.371 108.37L251.567 105.239L248.43 102.109C247.567 101.248 247.567 99.8392 248.43 98.9784C249.292 98.1175 250.704 98.1175 251.567 98.9784L253.018 100.426M215.334 148.204C215.334 143 211.138 138.813 205.923 138.813C205.923 133.609 201.727 129.422 196.511 129.422M262.39 130.987C262.39 127.544 259.566 124.726 256.116 124.726C256.116 121.283 253.292 118.465 249.841 118.465M237.293 105.944C237.293 102.5 234.47 99.6827 231.019 99.6827C231.019 96.2392 228.196 93.4218 224.745 93.4218M245.371 113.574L230.274 128.639C227.137 131.77 228.705 135.291 231.45 135.291C234.98 135.291 235.764 129.422 229.882 129.422C226.353 129.422 221.255 126.683 217.334 122.77C214.51 119.952 212.55 116.587 211.295 113.065C210.589 111.031 211.099 108.8 212.628 107.274L215.53 104.378C218.314 101.6 218.314 97.061 215.53 94.2827L210.432 89.1958C207.648 86.4175 203.099 86.4175 200.315 89.1958L198.668 90.8392C197.335 92.1697 196.59 94.0088 196.551 95.9262C196.472 108.174 201.099 120.383 210.432 129.657C219.412 138.617 231.137 143.235 242.901 143.509C244.822 143.548 246.665 142.765 248.038 141.396L250.312 139.126C253.096 136.348 253.096 131.809 250.312 129.031L244.783 123.513" stroke="white" stroke-opacity="0.95" stroke-width="3.96252" stroke-miterlimit="10" stroke-linecap="round" stroke-linejoin="round"/>
<path d="M353.913 102.891L357.443 99.3697C358.109 98.7045 359.129 98.7045 359.795 99.3697C360.462 100.035 360.462 101.052 359.795 101.717L357.051 104.457L360.188 107.587C361.05 108.448 361.05 109.857 360.188 110.717C359.325 111.578 357.913 111.578 357.051 110.717L353.913 107.587L350.776 109.778C350.384 110.052 350.345 110.639 350.659 110.991L350.776 111.109C351.208 111.539 351.208 112.244 350.776 112.674C350.345 113.104 349.639 113.104 349.208 112.674L346.463 109.935C346.032 109.504 346.032 108.8 346.463 108.37C346.894 107.939 347.6 107.939 348.031 108.37L348.149 108.487C348.502 108.839 349.051 108.8 349.365 108.37L351.561 105.239L348.424 102.109C347.561 101.248 347.561 99.8392 348.424 98.9784C349.286 98.1175 350.698 98.1175 351.561 98.9784L353.012 100.426M315.328 148.204C315.328 143 311.132 138.813 305.917 138.813C305.917 133.609 301.721 129.422 296.505 129.422M362.384 130.987C362.384 127.544 359.56 124.726 356.109 124.726C356.109 121.283 353.286 118.465 349.835 118.465M337.287 105.944C337.287 102.5 334.464 99.6827 331.013 99.6827C331.013 96.2392 328.19 93.4218 324.739 93.4218M345.365 113.574L330.268 128.639C327.131 131.77 328.699 135.291 331.444 135.291C334.974 135.291 335.758 129.422 329.876 129.422C326.347 129.422 321.249 126.683 317.328 122.77C314.504 119.952 312.544 116.587 311.289 113.065C310.583 111.031 311.093 108.8 312.622 107.274L315.524 104.378C318.308 101.6 318.308 97.061 315.524 94.2827L310.426 89.1958C307.642 86.4175 303.093 86.4175 300.309 89.1958L298.662 90.8392C297.329 92.1697 296.584 94.0088 296.545 95.9262C296.466 108.174 301.093 120.383 310.426 129.657C319.406 138.617 331.131 143.235 342.895 143.509C344.816 143.548 346.659 142.765 348.031 141.396L350.306 139.126C353.09 136.348 353.09 131.809 350.306 129.031L344.777 123.513" stroke="white" stroke-opacity="0.95" stroke-width="0.792504" stroke-miterlimit="10" stroke-linecap="round" stroke-linejoin="round"/>
<path d="M0 217.13H559C559 229.833 548.703 240.13 536 240.13H23C10.2975 240.13 0 229.833 0 217.13Z" fill="url(#paint0_linear_1478_3663)"/>
<defs>
<linearGradient id="paint0_linear_1478_3663" x1="279.5" y1="217.13" x2="279.5" y2="240.13" gradientUnits="userSpaceOnUse">
<stop stop-color="#F0677E"/>
<stop offset="1" stop-color="#DB1F2E"/>
</linearGradient>
</defs>
</svg>
