<svg width="559" height="345" viewBox="0 0 559 345" fill="none" xmlns="http://www.w3.org/2000/svg">
<rect width="559" height="345" rx="16" fill="#1A1A1A"/>
<path d="M519 25.9998C516.232 25.9998 513.525 26.8208 511.223 28.3592C508.92 29.8975 507.126 32.084 506.066 34.6422C505.007 37.2004 504.729 40.0153 505.27 42.731C505.81 45.4468 507.143 47.9413 509.101 49.8993C511.059 51.8572 513.553 53.1906 516.269 53.7308C518.985 54.2709 521.8 53.9937 524.358 52.9341C526.916 51.8744 529.103 50.08 530.641 47.7777C532.179 45.4755 533 42.7687 533 39.9998C532.996 36.288 531.52 32.7295 528.895 30.1049C526.271 27.4803 522.712 26.0039 519 25.9998ZM528.155 47.7405L511.26 30.845C513.555 28.8985 516.498 27.8865 519.505 28.0098C522.511 28.1331 525.362 29.3828 527.49 31.5107C529.617 33.6386 530.867 36.4889 530.99 39.4956C531.114 42.5024 530.102 45.4455 528.155 47.7405ZM509.846 32.2591L526.741 49.1545C524.446 51.101 521.503 52.113 518.496 51.9896C515.49 51.8663 512.639 50.6166 510.512 48.4888C508.384 46.3609 507.134 43.5106 507.011 40.5039C506.887 37.4972 507.899 34.5541 509.846 32.2591Z" fill="#FC8B98"/>
<path d="M283.308 181.895C286.673 180.8 290.352 178.452 293.717 175.087C300.604 168.2 303.343 159.669 299.743 156.069C296.143 152.469 287.612 155.208 280.726 162.095C273.839 168.982 271.099 177.513 274.699 181.113L288.786 195.2C291.839 198.252 298.334 196.765 304.439 192.069M235.178 134.156C235.178 138.695 236.821 143.235 240.343 146.678L248.952 155.287C251.221 157.556 255.369 157.322 259.83 155.208L267.343 162.722C268.439 163.817 270.16 163.817 271.256 162.722C272.352 161.626 272.352 159.904 271.256 158.808L264.604 152.156C265.778 151.295 266.873 150.356 267.969 149.261C269.065 148.165 270.004 147.069 270.865 145.895L277.517 152.548C278.612 153.643 280.334 153.643 281.43 152.548C282.526 151.452 282.526 149.73 281.43 148.635L273.917 141.122C276.03 136.661 276.265 132.513 273.995 130.243L265.386 121.635C258.499 114.748 247.23 114.748 240.343 121.635M291.917 138.852L301.308 129.461M284.091 135.722V123.2M295.047 146.678H307.569M257.482 173.287L248.091 182.678M265.308 176.417V188.939M254.352 165.461H241.83M306.786 163.113L313.83 170.156C317.195 173.522 315.004 181.504 309.056 188.156C308.743 188.548 308.821 189.174 309.291 189.408C312.969 191.287 326.352 199.348 326.352 215.548C326.352 225.095 320.717 232.765 313.83 232.765C306.943 232.765 301.308 225.095 301.308 215.548C301.308 198.33 323.221 178.765 348.265 201.461M240.265 121.635C238.699 123.2 237.917 125.548 237.917 127.113C237.917 129.304 239.326 131.026 241.047 131.026C242.769 131.026 244.178 129.304 244.178 127.113C244.178 116.156 236.039 107.548 226.178 107.548C217.569 107.548 210.526 118.739 210.526 132.591C210.526 162.33 241.83 171.722 241.83 201.461C241.83 215.313 234.786 226.504 226.178 226.504C215.221 226.504 210.526 213.982 210.526 213.982M293.795 164.991C292.543 166.243 290.821 166.635 290.039 165.852C289.256 165.069 289.647 163.348 290.899 162.095C292.152 160.843 293.873 160.452 294.656 161.235C295.439 162.017 295.047 163.739 293.795 164.991ZM283.621 175.165C282.369 176.417 280.647 176.808 279.865 176.026C279.082 175.243 279.473 173.522 280.726 172.269C281.978 171.017 283.699 170.626 284.482 171.408C285.265 172.191 284.873 173.913 283.621 175.165Z" stroke="url(#paint0_linear_1478_4702)" stroke-width="1.94048" stroke-miterlimit="10" stroke-linecap="round" stroke-linejoin="round"/>
<path d="M0 322H559C559 334.703 548.703 345 536 345H23C10.2975 345 0 334.703 0 322Z" fill="url(#paint1_linear_1478_4702)"/>
<defs>
<linearGradient id="paint0_linear_1478_4702" x1="279.395" y1="107.548" x2="279.395" y2="232.765" gradientUnits="userSpaceOnUse">
<stop stop-color="#647E2C"/>
<stop offset="1" stop-color="#C437B6"/>
</linearGradient>
<linearGradient id="paint1_linear_1478_4702" x1="279.5" y1="322" x2="279.5" y2="345" gradientUnits="userSpaceOnUse">
<stop stop-color="#F0677E"/>
<stop offset="1" stop-color="#DB1F2E"/>
</linearGradient>
</defs>
</svg>
