<svg width="559" height="345" viewBox="0 0 559 345" fill="none" xmlns="http://www.w3.org/2000/svg">
<rect width="559" height="345" rx="16" fill="#1A1A1A"/>
<path d="M519 25.9995C516.232 25.9995 513.525 26.8206 511.222 28.3589C508.92 29.8973 507.126 32.0838 506.066 34.6419C505.007 37.2001 504.729 40.015 505.269 42.7308C505.81 45.4465 507.143 47.9411 509.101 49.899C511.059 51.8569 513.553 53.1903 516.269 53.7305C518.985 54.2707 521.8 53.9935 524.358 52.9338C526.916 51.8742 529.103 50.0798 530.641 47.7775C532.179 45.4752 533 42.7684 533 39.9995C532.996 36.2878 531.52 32.7292 528.895 30.1046C526.271 27.48 522.712 26.0037 519 25.9995ZM528.155 47.7402L511.26 30.8447C513.555 28.8983 516.498 27.8862 519.505 28.0096C522.511 28.1329 525.362 29.3826 527.49 31.5105C529.617 33.6383 530.867 36.4887 530.99 39.4954C531.114 42.5021 530.102 45.4453 528.155 47.7402ZM509.846 32.2588L526.741 49.1543C524.446 51.1007 521.503 52.1127 518.496 51.9894C515.49 51.866 512.639 50.6164 510.512 48.4885C508.384 46.3607 507.134 43.5103 507.011 40.5036C506.887 37.4969 507.899 34.5538 509.846 32.2588Z" fill="#FC8B98"/>
<path d="M276.5 194.418L265.621 210.774C264.917 211.792 265.7 213.2 266.952 213.2H276.108C276.656 213.2 277.047 213.826 276.813 214.296L270.552 227.992C270.16 228.774 271.178 229.479 271.804 228.853L291.134 209.522C292.152 208.505 291.447 206.861 290.039 206.861H284.326C283.7 206.861 283.308 206.157 283.7 205.609L289.569 197C290.743 195.279 292.7 194.261 294.734 194.261H321.343C332.456 194.261 341.769 185.574 342.082 174.461C342.395 162.957 333.16 153.566 321.734 153.566C320.091 153.566 318.447 153.8 316.96 154.113C315.63 134.548 299.352 119.131 279.473 119.131C261.865 119.287 247.152 131.34 243.004 147.696C242.143 147.618 241.204 147.54 240.265 147.54C227.117 147.54 216.395 158.418 216.787 171.644C217.1 184.4 227.978 194.496 240.734 194.496H248.091M316.882 154.348C306.786 157.713 301.308 166.322 305.221 170.235C308.352 173.287 316.96 167.809 316.882 154.348Z" stroke="url(#paint0_linear_1478_4636)" stroke-width="1.95323" stroke-miterlimit="10" stroke-linecap="round" stroke-linejoin="round"/>
<path d="M0 322H559C559 334.703 548.703 345 536 345H23C10.2975 345 0 334.703 0 322Z" fill="url(#paint1_linear_1478_4636)"/>
<defs>
<linearGradient id="paint0_linear_1478_4636" x1="279.433" y1="119.131" x2="279.433" y2="229.093" gradientUnits="userSpaceOnUse">
<stop stop-color="#FFBE4F"/>
<stop offset="1" stop-color="#93C437"/>
</linearGradient>
<linearGradient id="paint1_linear_1478_4636" x1="279.5" y1="322" x2="279.5" y2="345" gradientUnits="userSpaceOnUse">
<stop stop-color="#F0677E"/>
<stop offset="1" stop-color="#DB1F2E"/>
</linearGradient>
</defs>
</svg>
