<svg width="559" height="345" viewBox="0 0 559 345" fill="none" xmlns="http://www.w3.org/2000/svg">
<rect width="559" height="345" rx="16" fill="#1A1A1A"/>
<path d="M519 25.9998C516.232 25.9998 513.525 26.8208 511.223 28.3592C508.92 29.8975 507.126 32.084 506.066 34.6422C505.007 37.2004 504.729 40.0153 505.27 42.731C505.81 45.4468 507.143 47.9413 509.101 49.8993C511.059 51.8572 513.553 53.1906 516.269 53.7308C518.985 54.2709 521.8 53.9937 524.358 52.9341C526.916 51.8744 529.103 50.08 530.641 47.7777C532.179 45.4755 533 42.7687 533 39.9998C532.996 36.288 531.52 32.7295 528.895 30.1049C526.271 27.4803 522.712 26.0039 519 25.9998ZM528.155 47.7405L511.26 30.845C513.555 28.8985 516.498 27.8865 519.505 28.0098C522.511 28.1331 525.362 29.3828 527.49 31.5107C529.617 33.6386 530.867 36.4889 530.99 39.4956C531.114 42.5024 530.102 45.4455 528.155 47.7405ZM509.846 32.2591L526.741 49.1545C524.446 51.101 521.503 52.113 518.496 51.9896C515.49 51.8663 512.639 50.6166 510.512 48.4888C508.384 46.3609 507.134 43.5106 507.011 40.5039C506.887 37.4972 507.899 34.5541 509.846 32.2591Z" fill="#FC8B98"/>
<path d="M223.047 123.982V123.2C223.047 119.756 225.864 116.939 229.308 116.939H304.438C307.882 116.939 310.699 119.756 310.699 123.2V132.591C310.699 142.765 304.438 145.113 301.308 141.982C298.177 138.852 299.742 134.156 306.786 131.809L317.273 128.287C320.56 127.191 324.082 128.991 325.177 132.278L346.229 195.513C347.325 198.8 345.525 202.322 342.238 203.417L269.612 227.6C266.325 228.695 262.803 226.895 261.708 223.609L257.403 210.774M249.655 137.287H263.742M310.699 146.678V198.33C310.699 201.774 307.882 204.591 304.438 204.591H229.308C225.864 204.591 223.047 201.774 223.047 198.33V145.895C223.047 145.504 222.734 145.191 222.342 145.113C218.273 144.722 215.064 141.278 215.221 137.052C215.377 133.061 218.586 129.695 222.655 129.461C225.238 129.304 227.508 130.4 229.073 132.2L234.942 131.495C236.273 127.504 238.855 124.765 241.908 124.765C246.212 124.765 249.734 130.4 249.734 137.287C249.734 144.174 246.212 149.809 241.908 149.809C238.855 149.809 236.195 146.756 234.864 142.765L229.386 141.982M238.699 167.887L241.438 165.148C243.864 162.722 248.09 164.443 248.09 167.887C248.09 171.33 252.316 173.052 254.742 170.626L260.221 165.148C262.647 162.722 266.873 164.443 266.873 167.887C266.873 171.33 271.099 173.052 273.525 170.626L279.003 165.148C281.429 162.722 285.655 164.443 285.655 167.887C285.655 171.33 289.882 173.052 292.308 170.626L295.047 167.887M238.699 185.104L241.438 182.365C243.864 179.939 248.09 181.661 248.09 185.104C248.09 188.548 252.316 190.269 254.742 187.843L260.221 182.365C262.647 179.939 266.873 181.661 266.873 185.104C266.873 188.548 271.099 190.269 273.525 187.843L279.003 182.365C281.429 179.939 285.655 181.661 285.655 185.104C285.655 188.548 289.882 190.269 292.308 187.843L295.047 185.104" stroke="url(#paint0_linear_1478_4688)" stroke-width="1.94048" stroke-miterlimit="10" stroke-linecap="round" stroke-linejoin="round"/>
<path d="M0 322H559C559 334.703 548.703 345 536 345H23C10.2975 345 0 334.703 0 322Z" fill="url(#paint1_linear_1478_4688)"/>
<defs>
<linearGradient id="paint0_linear_1478_4688" x1="280.883" y1="116.939" x2="280.883" y2="227.921" gradientUnits="userSpaceOnUse">
<stop stop-color="#FFBE4F"/>
<stop offset="1" stop-color="#F26B1D"/>
</linearGradient>
<linearGradient id="paint1_linear_1478_4688" x1="279.5" y1="322" x2="279.5" y2="345" gradientUnits="userSpaceOnUse">
<stop stop-color="#F0677E"/>
<stop offset="1" stop-color="#DB1F2E"/>
</linearGradient>
</defs>
</svg>
