<svg width="559" height="140" viewBox="0 0 559 140" fill="none" xmlns="http://www.w3.org/2000/svg">
<rect width="559" height="140" rx="16" fill="#1A1A1A"/>
<path d="M208.725 73.5177C209.546 72.5293 209.995 71.285 209.995 70.0002C209.995 68.7154 209.546 67.4711 208.725 66.4827L211.354 63.8536C211.401 63.8074 211.439 63.7522 211.465 63.6913C211.491 63.6304 211.504 63.565 211.505 63.4988C211.505 63.4326 211.492 63.367 211.467 63.3057C211.442 63.2445 211.405 63.1889 211.358 63.1421C211.311 63.0952 211.256 63.0582 211.194 63.0331C211.133 63.0079 211.068 62.9952 211.001 62.9956C210.935 62.996 210.87 63.0096 210.809 63.0355C210.748 63.0614 210.693 63.0992 210.647 63.1466L208.018 65.7747C207.031 64.9512 205.786 64.5002 204.5 64.5002C203.214 64.5002 201.969 64.9512 200.982 65.7747L198.354 63.1466C198.259 63.0548 198.133 63.0037 198.001 63.0046C197.87 63.0054 197.744 63.058 197.651 63.151C197.558 63.244 197.505 63.3699 197.505 63.5014C197.504 63.6329 197.555 63.7594 197.647 63.8536L200.275 66.4824C199.454 67.4708 199.005 68.7152 199.005 70.0001C199.005 71.285 199.454 72.5294 200.275 73.5178L197.647 76.1466C197.599 76.1928 197.561 76.2479 197.536 76.3088C197.51 76.3698 197.496 76.4352 197.496 76.5014C197.495 76.5676 197.508 76.6332 197.533 76.6944C197.558 76.7557 197.595 76.8113 197.642 76.8581C197.689 76.9049 197.744 76.942 197.806 76.9671C197.867 76.9922 197.933 77.005 197.999 77.0046C198.065 77.0041 198.13 76.9906 198.191 76.9647C198.252 76.9388 198.307 76.901 198.354 76.8536L200.982 74.2256C201.969 75.0491 203.214 75.5001 204.5 75.5001C205.786 75.5001 207.031 75.0491 208.018 74.2256L210.647 76.8536C210.741 76.9454 210.867 76.9964 210.999 76.9956C211.13 76.9948 211.256 76.9422 211.349 76.8492C211.442 76.7562 211.495 76.6303 211.496 76.4988C211.496 76.3673 211.445 76.2407 211.354 76.1466L208.725 73.5177ZM208.015 72.8077L205.207 70.0001L208.015 67.1925C208.65 67.9903 208.996 68.9801 208.996 70.0001C208.996 71.0201 208.65 72.0099 208.015 72.8077ZM204.5 65.5001C205.521 65.4978 206.512 65.8456 207.308 66.4855L204.5 69.2931L201.692 66.4854C202.488 65.8455 203.479 65.4978 204.5 65.5001ZM200.985 67.1923L203.793 70.0001L200.985 72.8079C200.35 72.01 200.003 71.0201 200.003 70.0001C200.003 68.98 200.35 67.9902 200.985 67.1923ZM204.5 74.5001C203.479 74.5024 202.488 74.1547 201.692 73.5148L204.5 70.7071L207.308 73.5148C206.512 74.1546 205.521 74.5024 204.5 74.5001Z" fill="white" fill-opacity="0.95"/>
<rect x="224.5" y="60" width="20" height="20" rx="10" fill="white" fill-opacity="0.07"/>
<path d="M238.725 73.5177C239.546 72.5293 239.995 71.285 239.995 70.0002C239.995 68.7154 239.546 67.4711 238.725 66.4827L241.354 63.8536C241.401 63.8074 241.439 63.7522 241.465 63.6913C241.491 63.6304 241.504 63.565 241.505 63.4988C241.505 63.4326 241.492 63.367 241.467 63.3057C241.442 63.2445 241.405 63.1889 241.358 63.1421C241.311 63.0952 241.256 63.0582 241.194 63.0331C241.133 63.0079 241.068 62.9952 241.001 62.9956C240.935 62.996 240.87 63.0096 240.809 63.0355C240.748 63.0614 240.693 63.0992 240.647 63.1466L238.018 65.7747C237.031 64.9512 235.786 64.5002 234.5 64.5002C233.214 64.5002 231.969 64.9512 230.982 65.7747L228.354 63.1466C228.259 63.0548 228.133 63.0037 228.001 63.0046C227.87 63.0054 227.744 63.058 227.651 63.151C227.558 63.244 227.505 63.3699 227.505 63.5014C227.504 63.6329 227.555 63.7594 227.647 63.8536L230.275 66.4824C229.454 67.4708 229.005 68.7152 229.005 70.0001C229.005 71.285 229.454 72.5294 230.275 73.5178L227.647 76.1466C227.599 76.1928 227.561 76.2479 227.536 76.3088C227.51 76.3698 227.496 76.4352 227.496 76.5014C227.495 76.5676 227.508 76.6332 227.533 76.6944C227.558 76.7557 227.595 76.8113 227.642 76.8581C227.689 76.9049 227.744 76.942 227.806 76.9671C227.867 76.9922 227.933 77.005 227.999 77.0046C228.065 77.0041 228.13 76.9906 228.191 76.9647C228.252 76.9388 228.307 76.901 228.354 76.8536L230.982 74.2256C231.969 75.0491 233.214 75.5001 234.5 75.5001C235.786 75.5001 237.031 75.0491 238.018 74.2256L240.647 76.8536C240.741 76.9454 240.867 76.9964 240.999 76.9956C241.13 76.9948 241.256 76.9422 241.349 76.8492C241.442 76.7562 241.495 76.6303 241.496 76.4988C241.496 76.3673 241.445 76.2407 241.354 76.1466L238.725 73.5177ZM238.015 72.8077L235.207 70.0001L238.015 67.1925C238.65 67.9903 238.996 68.9801 238.996 70.0001C238.996 71.0201 238.65 72.0099 238.015 72.8077ZM234.5 65.5001C235.521 65.4978 236.512 65.8456 237.308 66.4855L234.5 69.2931L231.692 66.4854C232.488 65.8455 233.479 65.4978 234.5 65.5001ZM230.985 67.1923L233.793 70.0001L230.985 72.8079C230.35 72.01 230.003 71.0201 230.003 70.0001C230.003 68.98 230.35 67.9902 230.985 67.1923ZM234.5 74.5001C233.479 74.5024 232.488 74.1547 231.692 73.5148L234.5 70.7071L237.308 73.5148C236.512 74.1546 235.521 74.5024 234.5 74.5001Z" fill="white" fill-opacity="0.95"/>
<rect x="254.5" y="60" width="20" height="20" rx="10" fill="white" fill-opacity="0.2"/>
<path d="M268.725 73.5177C269.546 72.5293 269.995 71.285 269.995 70.0002C269.995 68.7154 269.546 67.4711 268.725 66.4827L271.354 63.8536C271.401 63.8074 271.439 63.7522 271.465 63.6913C271.491 63.6304 271.504 63.565 271.505 63.4988C271.505 63.4326 271.492 63.367 271.467 63.3057C271.442 63.2445 271.405 63.1889 271.358 63.1421C271.311 63.0952 271.256 63.0582 271.194 63.0331C271.133 63.0079 271.068 62.9952 271.001 62.9956C270.935 62.996 270.87 63.0096 270.809 63.0355C270.748 63.0614 270.693 63.0992 270.647 63.1466L268.018 65.7747C267.031 64.9512 265.786 64.5002 264.5 64.5002C263.214 64.5002 261.969 64.9512 260.982 65.7747L258.354 63.1466C258.259 63.0548 258.133 63.0037 258.001 63.0046C257.87 63.0054 257.744 63.058 257.651 63.151C257.558 63.244 257.505 63.3699 257.505 63.5014C257.504 63.6329 257.555 63.7594 257.647 63.8536L260.275 66.4824C259.454 67.4708 259.005 68.7152 259.005 70.0001C259.005 71.285 259.454 72.5294 260.275 73.5178L257.647 76.1466C257.599 76.1928 257.561 76.2479 257.536 76.3088C257.51 76.3698 257.496 76.4352 257.496 76.5014C257.495 76.5676 257.508 76.6332 257.533 76.6944C257.558 76.7557 257.595 76.8113 257.642 76.8581C257.689 76.9049 257.744 76.942 257.806 76.9671C257.867 76.9922 257.933 77.005 257.999 77.0046C258.065 77.0041 258.13 76.9906 258.191 76.9647C258.252 76.9388 258.307 76.901 258.354 76.8536L260.982 74.2256C261.969 75.0491 263.214 75.5001 264.5 75.5001C265.786 75.5001 267.031 75.0491 268.018 74.2256L270.647 76.8536C270.741 76.9454 270.867 76.9964 270.999 76.9956C271.13 76.9948 271.256 76.9422 271.349 76.8492C271.442 76.7562 271.495 76.6303 271.496 76.4988C271.496 76.3673 271.445 76.2407 271.354 76.1466L268.725 73.5177ZM268.015 72.8077L265.207 70.0001L268.015 67.1925C268.65 67.9903 268.996 68.9801 268.996 70.0001C268.996 71.0201 268.65 72.0099 268.015 72.8077ZM264.5 65.5001C265.521 65.4978 266.512 65.8456 267.308 66.4855L264.5 69.2931L261.692 66.4854C262.488 65.8455 263.479 65.4978 264.5 65.5001ZM260.985 67.1923L263.793 70.0001L260.985 72.8079C260.35 72.01 260.003 71.0201 260.003 70.0001C260.003 68.98 260.35 67.9902 260.985 67.1923ZM264.5 74.5001C263.479 74.5024 262.488 74.1547 261.692 73.5148L264.5 70.7071L267.308 73.5148C266.512 74.1546 265.521 74.5024 264.5 74.5001Z" fill="white" fill-opacity="0.95"/>
<rect x="284.5" y="60" width="20" height="20" rx="10" fill="white" fill-opacity="0.2"/>
<path d="M298.725 73.5177C299.546 72.5293 299.995 71.285 299.995 70.0002C299.995 68.7154 299.546 67.4711 298.725 66.4827L301.354 63.8536C301.401 63.8074 301.439 63.7522 301.465 63.6913C301.491 63.6304 301.504 63.565 301.505 63.4988C301.505 63.4326 301.492 63.367 301.467 63.3057C301.442 63.2445 301.405 63.1889 301.358 63.1421C301.311 63.0952 301.256 63.0582 301.194 63.0331C301.133 63.0079 301.068 62.9952 301.001 62.9956C300.935 62.996 300.87 63.0096 300.809 63.0355C300.748 63.0614 300.693 63.0992 300.647 63.1466L298.018 65.7747C297.031 64.9512 295.786 64.5002 294.5 64.5002C293.214 64.5002 291.969 64.9512 290.982 65.7747L288.354 63.1466C288.259 63.0548 288.133 63.0037 288.001 63.0046C287.87 63.0054 287.744 63.058 287.651 63.151C287.558 63.244 287.505 63.3699 287.505 63.5014C287.504 63.6329 287.555 63.7594 287.647 63.8536L290.275 66.4824C289.454 67.4708 289.005 68.7152 289.005 70.0001C289.005 71.285 289.454 72.5294 290.275 73.5178L287.647 76.1466C287.599 76.1928 287.561 76.2479 287.536 76.3088C287.51 76.3698 287.496 76.4352 287.496 76.5014C287.495 76.5676 287.508 76.6332 287.533 76.6944C287.558 76.7557 287.595 76.8113 287.642 76.8581C287.689 76.9049 287.744 76.942 287.806 76.9671C287.867 76.9922 287.933 77.005 287.999 77.0046C288.065 77.0041 288.13 76.9906 288.191 76.9647C288.252 76.9388 288.307 76.901 288.354 76.8536L290.982 74.2256C291.969 75.0491 293.214 75.5001 294.5 75.5001C295.786 75.5001 297.031 75.0491 298.018 74.2256L300.647 76.8536C300.741 76.9454 300.867 76.9964 300.999 76.9956C301.13 76.9948 301.256 76.9422 301.349 76.8492C301.442 76.7562 301.495 76.6303 301.496 76.4988C301.496 76.3673 301.445 76.2407 301.354 76.1466L298.725 73.5177ZM298.015 72.8077L295.207 70.0001L298.015 67.1925C298.65 67.9903 298.996 68.9801 298.996 70.0001C298.996 71.0201 298.65 72.0099 298.015 72.8077ZM294.5 65.5001C295.521 65.4978 296.512 65.8456 297.308 66.4855L294.5 69.2931L291.692 66.4854C292.488 65.8455 293.479 65.4978 294.5 65.5001ZM290.985 67.1923L293.793 70.0001L290.985 72.8079C290.35 72.01 290.003 71.0201 290.003 70.0001C290.003 68.98 290.35 67.9902 290.985 67.1923ZM294.5 74.5001C293.479 74.5024 292.488 74.1547 291.692 73.5148L294.5 70.7071L297.308 73.5148C296.512 74.1546 295.521 74.5024 294.5 74.5001Z" fill="white" fill-opacity="0.95"/>
<path d="M328.725 73.5177C329.546 72.5293 329.995 71.285 329.995 70.0002C329.995 68.7154 329.546 67.4711 328.725 66.4827L331.354 63.8536C331.401 63.8074 331.439 63.7522 331.465 63.6913C331.491 63.6304 331.504 63.565 331.505 63.4988C331.505 63.4326 331.492 63.367 331.467 63.3057C331.442 63.2445 331.405 63.1889 331.358 63.1421C331.311 63.0952 331.256 63.0582 331.194 63.0331C331.133 63.0079 331.068 62.9952 331.001 62.9956C330.935 62.996 330.87 63.0096 330.809 63.0355C330.748 63.0614 330.693 63.0992 330.647 63.1466L328.018 65.7747C327.031 64.9512 325.786 64.5002 324.5 64.5002C323.214 64.5002 321.969 64.9512 320.982 65.7747L318.354 63.1466C318.259 63.0548 318.133 63.0037 318.001 63.0046C317.87 63.0054 317.744 63.058 317.651 63.151C317.558 63.244 317.505 63.3699 317.505 63.5014C317.504 63.6329 317.555 63.7594 317.647 63.8536L320.275 66.4824C319.454 67.4708 319.005 68.7152 319.005 70.0001C319.005 71.285 319.454 72.5294 320.275 73.5178L317.647 76.1466C317.599 76.1928 317.561 76.2479 317.536 76.3088C317.51 76.3698 317.496 76.4352 317.496 76.5014C317.495 76.5676 317.508 76.6332 317.533 76.6944C317.558 76.7557 317.595 76.8113 317.642 76.8581C317.689 76.9049 317.744 76.942 317.806 76.9671C317.867 76.9922 317.933 77.005 317.999 77.0046C318.065 77.0041 318.13 76.9906 318.191 76.9647C318.252 76.9388 318.307 76.901 318.354 76.8536L320.982 74.2256C321.969 75.0491 323.214 75.5001 324.5 75.5001C325.786 75.5001 327.031 75.0491 328.018 74.2256L330.647 76.8536C330.741 76.9454 330.867 76.9964 330.999 76.9956C331.13 76.9948 331.256 76.9422 331.349 76.8492C331.442 76.7562 331.495 76.6303 331.496 76.4988C331.496 76.3673 331.445 76.2407 331.354 76.1466L328.725 73.5177ZM328.015 72.8077L325.207 70.0001L328.015 67.1925C328.65 67.9903 328.996 68.9801 328.996 70.0001C328.996 71.0201 328.65 72.0099 328.015 72.8077ZM324.5 65.5001C325.521 65.4978 326.512 65.8456 327.308 66.4855L324.5 69.2931L321.692 66.4854C322.488 65.8455 323.479 65.4978 324.5 65.5001ZM320.985 67.1923L323.793 70.0001L320.985 72.8079C320.35 72.01 320.003 71.0201 320.003 70.0001C320.003 68.98 320.35 67.9902 320.985 67.1923ZM324.5 74.5001C323.479 74.5024 322.488 74.1547 321.692 73.5148L324.5 70.7071L327.308 73.5148C326.512 74.1546 325.521 74.5024 324.5 74.5001Z" fill="white" fill-opacity="0.2"/>
<g filter="url(#filter0_ddd_1579_13856)">
<rect x="344.5" y="60" width="20" height="20" rx="10" fill="white" fill-opacity="0.01" shape-rendering="crispEdges"/>
<path d="M358.725 73.5177C359.546 72.5293 359.995 71.285 359.995 70.0002C359.995 68.7154 359.546 67.4711 358.725 66.4827L361.354 63.8536C361.401 63.8074 361.439 63.7522 361.465 63.6913C361.491 63.6304 361.504 63.565 361.505 63.4988C361.505 63.4326 361.492 63.367 361.467 63.3057C361.442 63.2445 361.405 63.1889 361.358 63.1421C361.311 63.0952 361.256 63.0582 361.194 63.0331C361.133 63.0079 361.068 62.9952 361.001 62.9956C360.935 62.996 360.87 63.0096 360.809 63.0355C360.748 63.0614 360.693 63.0992 360.647 63.1466L358.018 65.7747C357.031 64.9512 355.786 64.5002 354.5 64.5002C353.214 64.5002 351.969 64.9512 350.982 65.7747L348.354 63.1466C348.259 63.0548 348.133 63.0037 348.001 63.0046C347.87 63.0054 347.744 63.058 347.651 63.151C347.558 63.244 347.505 63.3699 347.505 63.5014C347.504 63.6329 347.555 63.7594 347.647 63.8536L350.275 66.4824C349.454 67.4708 349.005 68.7152 349.005 70.0001C349.005 71.285 349.454 72.5294 350.275 73.5178L347.647 76.1466C347.599 76.1928 347.561 76.2479 347.536 76.3088C347.51 76.3698 347.496 76.4352 347.496 76.5014C347.495 76.5676 347.508 76.6332 347.533 76.6944C347.558 76.7557 347.595 76.8113 347.642 76.8581C347.689 76.9049 347.744 76.942 347.806 76.9671C347.867 76.9922 347.933 77.005 347.999 77.0046C348.065 77.0041 348.13 76.9906 348.191 76.9647C348.252 76.9388 348.307 76.901 348.354 76.8536L350.982 74.2256C351.969 75.0491 353.214 75.5001 354.5 75.5001C355.786 75.5001 357.031 75.0491 358.018 74.2256L360.647 76.8536C360.741 76.9454 360.867 76.9964 360.999 76.9956C361.13 76.9948 361.256 76.9422 361.349 76.8492C361.442 76.7562 361.495 76.6303 361.496 76.4988C361.496 76.3673 361.445 76.2407 361.354 76.1466L358.725 73.5177ZM358.015 72.8077L355.207 70.0001L358.015 67.1925C358.65 67.9903 358.996 68.9801 358.996 70.0001C358.996 71.0201 358.65 72.0099 358.015 72.8077ZM354.5 65.5001C355.521 65.4978 356.512 65.8456 357.308 66.4855L354.5 69.2931L351.692 66.4854C352.488 65.8455 353.479 65.4978 354.5 65.5001ZM350.985 67.1923L353.793 70.0001L350.985 72.8079C350.35 72.01 350.003 71.0201 350.003 70.0001C350.003 68.98 350.35 67.9902 350.985 67.1923ZM354.5 74.5001C353.479 74.5024 352.488 74.1547 351.692 73.5148L354.5 70.7071L357.308 73.5148C356.512 74.1546 355.521 74.5024 354.5 74.5001Z" fill="white" fill-opacity="0.95"/>
</g>
<defs>
<filter id="filter0_ddd_1579_13856" x="339.5" y="55" width="30" height="30" filterUnits="userSpaceOnUse" color-interpolation-filters="sRGB">
<feFlood flood-opacity="0" result="BackgroundImageFix"/>
<feColorMatrix in="SourceAlpha" type="matrix" values="0 0 0 0 0 0 0 0 0 0 0 0 0 0 0 0 0 0 127 0" result="hardAlpha"/>
<feMorphology radius="4" operator="dilate" in="SourceAlpha" result="effect1_dropShadow_1579_13856"/>
<feOffset/>
<feComposite in2="hardAlpha" operator="out"/>
<feColorMatrix type="matrix" values="0 0 0 0 0.392157 0 0 0 0 0.705882 0 0 0 0 0.980392 0 0 0 1 0"/>
<feBlend mode="normal" in2="BackgroundImageFix" result="effect1_dropShadow_1579_13856"/>
<feColorMatrix in="SourceAlpha" type="matrix" values="0 0 0 0 0 0 0 0 0 0 0 0 0 0 0 0 0 0 127 0" result="hardAlpha"/>
<feMorphology radius="5" operator="dilate" in="SourceAlpha" result="effect2_dropShadow_1579_13856"/>
<feOffset/>
<feComposite in2="hardAlpha" operator="out"/>
<feColorMatrix type="matrix" values="0 0 0 0 0.392157 0 0 0 0 0.705882 0 0 0 0 0.980392 0 0 0 0.3 0"/>
<feBlend mode="normal" in2="effect1_dropShadow_1579_13856" result="effect2_dropShadow_1579_13856"/>
<feColorMatrix in="SourceAlpha" type="matrix" values="0 0 0 0 0 0 0 0 0 0 0 0 0 0 0 0 0 0 127 0" result="hardAlpha"/>
<feMorphology radius="2" operator="dilate" in="SourceAlpha" result="effect3_dropShadow_1579_13856"/>
<feOffset/>
<feComposite in2="hardAlpha" operator="out"/>
<feColorMatrix type="matrix" values="0 0 0 0 0 0 0 0 0 0 0 0 0 0 0 0 0 0 1 0"/>
<feBlend mode="normal" in2="effect2_dropShadow_1579_13856" result="effect3_dropShadow_1579_13856"/>
<feBlend mode="normal" in="SourceGraphic" in2="effect3_dropShadow_1579_13856" result="shape"/>
</filter>
</defs>
</svg>
