<svg width="559" height="184" viewBox="0 0 559 184" fill="none" xmlns="http://www.w3.org/2000/svg">
<rect width="559" height="184" rx="16" fill="#1A1A1A"/>
<path d="M146.429 69.0717C145.456 68.098 144.3 67.3256 143.028 66.7987C141.756 66.2717 140.392 66.0005 139.015 66.0005C137.638 66.0005 136.275 66.2717 135.003 66.7987C133.731 67.3256 132.575 68.098 131.601 69.0717L98.6716 102C98.2989 102.371 98.0035 102.811 97.8024 103.297C97.6013 103.783 97.4985 104.303 97.5 104.829V114C97.5014 115.061 97.9233 116.077 98.6731 116.827C99.423 117.577 100.44 117.999 101.5 118H110.672C111.197 118.002 111.718 117.899 112.203 117.698C112.689 117.497 113.129 117.201 113.5 116.829L146.429 83.9001C148.392 81.9318 149.494 79.2656 149.494 76.4859C149.494 73.7062 148.392 71.04 146.429 69.0717ZM143.601 81.0717L110.672 114H101.5V104.829L134.429 71.9001C135.648 70.6942 137.294 70.0198 139.008 70.0242C140.723 70.0287 142.365 70.7116 143.578 71.9237C144.79 73.1359 145.473 74.7787 145.477 76.4929C145.482 78.2072 144.807 79.8533 143.601 81.0717Z" fill="white" fill-opacity="0.95"/>
<path d="M219.721 69.7779C217.941 68.0021 215.529 67.0049 213.014 67.0049C210.5 67.0049 208.088 68.0021 206.307 69.7779L173.382 102.705C173.101 102.983 172.879 103.314 172.728 103.678C172.577 104.043 172.5 104.434 172.502 104.829V114C172.502 114.795 172.819 115.557 173.381 116.12C173.943 116.682 174.705 116.999 175.5 117H184.671C185.065 117.001 185.456 116.923 185.82 116.773C186.184 116.622 186.515 116.4 186.794 116.121L219.721 83.1919C220.603 82.3113 221.302 81.2657 221.778 80.1149C222.255 78.9641 222.501 77.7306 222.501 76.4849C222.501 75.2391 222.255 74.0056 221.778 72.8548C221.302 71.704 220.603 70.6584 219.721 69.7779Z" fill="white" fill-opacity="0.95"/>
<path d="M384.429 69.0717C383.456 68.098 382.3 67.3256 381.028 66.7987C379.756 66.2717 378.392 66.0005 377.015 66.0005C375.638 66.0005 374.275 66.2717 373.003 66.7987C371.731 67.3256 370.575 68.098 369.601 69.0717L336.672 102C336.299 102.371 336.004 102.811 335.802 103.297C335.601 103.783 335.499 104.303 335.5 104.829V114C335.501 115.061 335.923 116.077 336.673 116.827C337.423 117.577 338.44 117.999 339.5 118H348.672C349.197 118.002 349.718 117.899 350.203 117.698C350.689 117.497 351.129 117.201 351.5 116.829L384.429 83.9001C386.392 81.9318 387.494 79.2656 387.494 76.4859C387.494 73.7062 386.392 71.04 384.429 69.0717ZM381.601 81.0717L348.672 114H339.5V104.829L372.429 71.9001C373.648 70.6942 375.294 70.0198 377.008 70.0242C378.723 70.0287 380.365 70.7116 381.578 71.9237C382.79 73.1359 383.473 74.7787 383.477 76.4929C383.482 78.2072 382.807 79.8533 381.601 81.0717Z" fill="white" fill-opacity="0.95"/>
<path d="M457.721 69.7779C455.941 68.0021 453.529 67.0049 451.014 67.0049C448.5 67.0049 446.088 68.0021 444.307 69.7779L411.382 102.705C411.101 102.983 410.879 103.314 410.728 103.678C410.577 104.043 410.5 104.434 410.502 104.829V114C410.502 114.795 410.819 115.557 411.381 116.12C411.943 116.682 412.705 116.999 413.5 117H422.671C423.065 117.001 423.456 116.923 423.82 116.773C424.184 116.622 424.515 116.4 424.794 116.121L457.721 83.1919C458.603 82.3113 459.302 81.2657 459.778 80.1149C460.255 78.9641 460.501 77.7306 460.501 76.4849C460.501 75.2391 460.255 74.0056 459.778 72.8548C459.302 71.704 458.603 70.6584 457.721 69.7779Z" fill="#64B4FA"/>
</svg>
