<svg width="559" height="150" viewBox="0 0 559 150" fill="none" xmlns="http://www.w3.org/2000/svg">
<rect width="559" height="150" rx="16" fill="url(#paint0_linear_1579_8820)"/>
<path d="M166.012 74.6819L159.193 64.9925L166 55.3245C166.428 54.7266 166.682 54.0225 166.736 53.2893C166.789 52.5562 166.64 51.8225 166.304 51.1688C165.968 50.515 165.458 49.9666 164.83 49.5837C164.203 49.2008 163.482 48.9982 162.747 48.9983L124.747 49.0003C124.484 49.0002 124.224 49.0519 123.982 49.1524C123.739 49.2529 123.518 49.4002 123.333 49.5859C123.147 49.7717 123 49.9922 122.899 50.2348C122.799 50.4775 122.747 50.7376 122.747 51.0003V79.0003L122.751 79.0197V99.0003C122.751 99.5307 122.962 100.039 123.337 100.415C123.712 100.79 124.22 101 124.751 101C125.281 101 125.79 100.79 126.165 100.415C126.54 100.039 126.751 99.5307 126.751 99.0003V81.0003L162.749 80.9983C163.483 80.9981 164.203 80.796 164.83 80.4142C165.456 80.0323 165.966 79.4854 166.303 78.8333C166.64 78.1811 166.791 77.4489 166.739 76.7167C166.688 75.9845 166.436 75.2806 166.012 74.6819ZM126.751 77.0003V53.0003L162.738 53.0081L155.111 63.8401C154.874 64.1773 154.747 64.5793 154.747 64.9914C154.747 65.4035 154.874 65.8056 155.111 66.1428L162.741 76.9846L162.749 76.9983L126.751 77.0003Z" fill="white" fill-opacity="0.95"/>
<path d="M435.512 74.6819L428.693 64.9925L435.5 55.3245C435.928 54.7266 436.182 54.0225 436.236 53.2893C436.289 52.5562 436.14 51.8225 435.804 51.1688C435.468 50.515 434.958 49.9666 434.33 49.5837C433.703 49.2008 432.982 48.9982 432.247 48.9983L394.247 49.0003C393.984 49.0002 393.724 49.0519 393.482 49.1524C393.239 49.2529 393.018 49.4002 392.833 49.5859C392.647 49.7717 392.5 49.9922 392.399 50.2348C392.299 50.4775 392.247 50.7376 392.247 51.0003V79.0003L392.251 79.0197V99.0003C392.251 99.5307 392.462 100.039 392.837 100.415C393.212 100.79 393.72 101 394.251 101C394.781 101 395.29 100.79 395.665 100.415C396.04 100.039 396.251 99.5307 396.251 99.0003V81.0003L432.249 80.9983C432.983 80.9981 433.703 80.796 434.33 80.4142C434.956 80.0323 435.466 79.4854 435.803 78.8333C436.14 78.1811 436.291 77.4489 436.239 76.7167C436.188 75.9845 435.936 75.2806 435.512 74.6819ZM396.251 77.0003V53.0003L432.238 53.0081L424.611 63.8401C424.374 64.1773 424.247 64.5793 424.247 64.9914C424.247 65.4035 424.374 65.8056 424.611 66.1428L432.241 76.9846L432.249 76.9983L396.251 77.0003Z" fill="#0F0F0F"/>
<defs>
<linearGradient id="paint0_linear_1579_8820" x1="2.08244e-06" y1="75" x2="558.651" y2="75" gradientUnits="userSpaceOnUse">
<stop offset="0.155" stop-color="#191919"/>
<stop offset="0.508897" stop-color="#262626"/>
<stop offset="0.508997" stop-color="white"/>
</linearGradient>
</defs>
</svg>
