<svg width="559" height="184" viewBox="0 0 559 184" fill="none" xmlns="http://www.w3.org/2000/svg">
<rect width="559" height="184" rx="16" fill="#1A1A1A"/>
<path d="M148.6 84.8H145.24V99.2001H155.6V96.68H148.6V84.8Z" fill="white"/>
<path d="M160.553 84.8H157.193V99.2001H160.553V84.8Z" fill="white"/>
<path d="M171.735 84.8H174.975L170.375 99.2001H166.355L161.755 84.8H165.215L168.455 96.58L171.735 84.8Z" fill="white"/>
<path d="M185.318 93.1V90.78H179.538V87.26H185.898V84.8H176.178V99.2001H185.898V96.78H179.538V93.1H185.318Z" fill="white"/>
<path d="M147.5 71.9995H183.5C186.151 72.0026 188.693 73.0572 190.568 74.9319C192.442 76.8066 193.497 79.3483 193.5 81.9995V102C193.497 104.651 192.442 107.192 190.568 109.067C188.693 110.942 186.151 111.996 183.5 112H147.5C144.849 111.996 142.307 110.942 140.432 109.067C138.558 107.192 137.503 104.651 137.5 102V81.9995C137.503 79.3483 138.558 76.8066 140.432 74.9319C142.307 73.0572 144.849 72.0026 147.5 71.9995ZM187.741 106.24C188.866 105.115 189.498 103.59 189.5 102V81.9995C189.498 80.4087 188.866 78.8836 187.741 77.7588C186.616 76.6339 185.091 76.0012 183.5 75.9995H147.5C145.909 76.0012 144.384 76.6339 143.259 77.7588C142.134 78.8836 141.502 80.4087 141.5 81.9995V102C141.502 103.59 142.134 105.115 143.259 106.24C144.384 107.365 145.909 107.998 147.5 108H183.5C185.091 107.998 186.616 107.365 187.741 106.24Z" fill="white"/>
<path d="M293.5 64H265.5C262.849 64.0031 260.307 65.0577 258.432 66.9324C256.558 68.8071 255.503 71.3488 255.5 74V110C255.503 112.651 256.558 115.193 258.432 117.068C260.307 118.942 262.849 119.997 265.5 120H293.5C296.151 119.997 298.693 118.942 300.568 117.068C302.442 115.193 303.497 112.651 303.5 110V74C303.497 71.3488 302.442 68.8071 300.568 66.9324C298.693 65.0577 296.151 64.0031 293.5 64ZM299.5 110C299.498 111.591 298.866 113.116 297.741 114.241C296.616 115.366 295.091 115.998 293.5 116H265.5C263.909 115.998 262.384 115.366 261.259 114.241C260.134 113.116 259.502 111.591 259.5 110V74C259.502 72.4092 260.134 70.8841 261.259 69.7593C262.384 68.6344 263.909 68.0017 265.5 68H293.5C295.091 68.0017 296.616 68.6344 297.741 69.7593C298.866 70.8841 299.498 72.4092 299.5 74V110Z" fill="white"/>
<path d="M271.26 97.64C271.904 97.5781 272.548 97.7562 273.068 98.1401C273.589 98.524 273.949 99.0867 274.08 99.72H277.42C277.193 98.4913 276.524 97.3881 275.54 96.6184C274.306 95.7027 272.795 95.2374 271.26 95.3C269.497 95.213 267.767 95.7988 266.42 96.9388C265.659 97.6907 265.07 98.5985 264.694 99.5997C264.318 100.601 264.163 101.672 264.24 102.739C264.134 104.697 264.721 106.63 265.9 108.198C266.476 108.888 267.203 109.437 268.025 109.801C268.847 110.166 269.742 110.336 270.64 110.3C271.408 110.346 272.177 110.223 272.892 109.94C273.607 109.657 274.251 109.219 274.779 108.66L275.259 110H277.419V101.98H271.12V104.16H274.52V105.18C274.527 105.534 274.457 105.885 274.315 106.209C274.174 106.534 273.964 106.824 273.7 107.06C273.374 107.359 272.993 107.59 272.578 107.741C272.162 107.892 271.721 107.96 271.28 107.94C270.829 107.956 270.38 107.869 269.968 107.685C269.555 107.501 269.19 107.226 268.9 106.88C268.033 105.682 267.622 104.214 267.74 102.74C267.658 101.428 267.963 100.12 268.619 98.98C268.904 98.5457 269.298 98.1935 269.761 97.9584C270.224 97.7233 270.741 97.6135 271.26 97.64Z" fill="white"/>
<path d="M283.239 95.5984H279.879V109.999H283.239V95.5984Z" fill="white"/>
<path d="M285.834 109.998H289.194V104.178H294.354V101.858H289.194V98.018H294.974V95.598H285.834V109.998Z" fill="white"/>
<path d="M411.501 67H375.501C372.85 67.0031 370.308 68.0577 368.433 69.9324C366.559 71.8071 365.504 74.3488 365.501 77V101C365.507 102.522 365.859 104.022 366.531 105.388C367.202 106.753 368.175 107.948 369.376 108.883C368.84 109.61 368.158 110.217 367.374 110.666C366.824 110.902 366.355 111.294 366.024 111.792C365.693 112.29 365.514 112.874 365.509 113.473C365.549 114.077 365.764 114.657 366.128 115.14C366.493 115.624 366.99 115.992 367.56 116.197C368.902 116.766 370.35 117.04 371.808 117C375.278 116.977 378.648 115.835 381.417 113.742C381.884 113.408 382.415 112.949 382.964 112.471C383.544 111.921 384.176 111.429 384.851 111H411.501C414.152 110.997 416.694 109.942 418.569 108.068C420.443 106.193 421.498 103.651 421.501 101V77C421.498 74.3488 420.443 71.8071 418.569 69.9324C416.694 68.0577 414.152 67.0031 411.501 67ZM417.501 101C417.499 102.591 416.867 104.116 415.742 105.241C414.617 106.366 413.092 106.998 411.501 107H384.757C383.103 106.908 381.788 108.182 380.329 109.461C379.884 109.85 379.458 110.23 379.081 110.496L379.028 110.535C376.737 112.291 373.886 113.157 371.005 112.973C372.132 111.94 373.09 110.737 373.845 109.408C374.046 109.034 374.143 108.614 374.128 108.189C374.097 107.811 373.967 107.448 373.751 107.136C373.536 106.823 373.242 106.573 372.899 106.41C371.884 105.916 371.027 105.147 370.426 104.191C369.826 103.235 369.505 102.129 369.501 101V77C369.503 75.4092 370.135 73.8841 371.26 72.7593C372.385 71.6344 373.91 71.0017 375.501 71H411.501C413.092 71.0017 414.617 71.6344 415.742 72.7593C416.867 73.8841 417.499 75.4092 417.501 77V101Z" fill="white"/>
<path d="M381.387 94.512C381.722 94.9418 382.149 95.2855 382.632 95.5164C383.116 95.7473 383.644 95.8594 384.176 95.8438C386.668 95.8438 388.008 94.4054 388.195 91.5284H392.572C392.506 92.6503 392.217 93.7457 391.723 94.7454C391.23 95.7452 390.543 96.6276 389.705 97.3369C388.06 98.509 386.092 99.0891 384.101 98.9887C382.893 99.0545 381.685 98.8319 380.572 98.3378C379.459 97.8437 378.469 97.0911 377.678 96.1378C376.156 94.086 375.392 91.5337 375.526 88.9454C375.426 87.5337 375.615 86.116 376.078 84.7851C376.542 83.4543 377.27 82.2402 378.215 81.2225C379.891 79.6872 382.077 78.8939 384.306 79.0114C386.372 78.9167 388.4 79.6074 390.012 80.9545C391.347 82.1662 392.212 83.8429 392.444 85.6705H388.145C388.071 84.6773 387.63 83.7529 386.914 83.092C386.197 82.4311 385.263 82.0853 384.306 82.1277C383.655 82.0978 383.008 82.2529 382.436 82.5764C381.863 82.9 381.385 83.3797 381.055 83.9641C380.269 85.4918 379.906 87.216 380.005 88.9454C379.85 90.91 380.337 92.8713 381.387 94.512Z" fill="white"/>
<path d="M400.315 94.512C400.651 94.9418 401.077 95.2855 401.56 95.5164C402.044 95.7473 402.572 95.8594 403.104 95.8438C405.594 95.8438 406.933 94.4054 407.123 91.5284H411.5C411.433 92.6502 411.144 93.7454 410.651 94.7451C410.158 95.7448 409.471 96.6273 408.633 97.3369C406.987 98.509 405.019 99.0891 403.027 98.9887C401.818 99.0546 400.611 98.8319 399.498 98.3378C398.384 97.8437 397.394 97.0912 396.603 96.1378C395.083 94.0851 394.321 91.5333 394.454 88.9454C394.354 87.5338 394.542 86.1162 395.005 84.7854C395.468 83.4545 396.196 82.2404 397.141 81.2225C398.817 79.688 401.002 78.8948 403.232 79.0114C405.298 78.9172 407.327 79.6077 408.941 80.9545C410.275 82.1665 411.139 83.8432 411.37 85.6705H407.071C406.998 84.677 406.556 83.7521 405.84 83.091C405.124 82.4299 404.188 82.0845 403.232 82.1277C402.581 82.0978 401.935 82.253 401.362 82.5765C400.79 82.9001 400.313 83.3798 399.983 83.9641C399.197 85.4918 398.834 87.216 398.933 88.9454C398.777 90.9101 399.264 92.8718 400.315 94.512Z" fill="white"/>
</svg>
