<svg width="559" height="184" viewBox="0 0 559 184" fill="none" xmlns="http://www.w3.org/2000/svg">
<rect width="559" height="184" rx="16" fill="#1A1A1A"/>
<path d="M158.625 88.4375C158.418 88.4375 158.25 88.6054 158.25 88.8125V93.875C158.25 94.0821 158.418 94.25 158.625 94.25H159.312C159.404 94.9899 160.035 95.5625 160.8 95.5625C161.565 95.5625 162.196 94.9899 162.288 94.25H164.637C164.729 94.9899 165.36 95.5625 166.125 95.5625C166.89 95.5625 167.521 94.9899 167.613 94.25H168.375C168.582 94.25 168.75 94.0821 168.75 93.875V91.5875C168.75 91.5121 168.727 91.4385 168.685 91.3762L167.56 89.7262C167.49 89.6238 167.374 89.5625 167.25 89.5625H165.75V88.8125C165.75 88.6054 165.582 88.4375 165.375 88.4375H158.625ZM165 89.1875V93.0703C164.889 93.1965 164.798 93.3415 164.734 93.5H162.191C161.968 92.9503 161.429 92.5625 160.8 92.5625C160.17 92.5625 159.631 92.9503 159.409 93.5H159V89.1875H165ZM165.75 91.2125V90.3125H167.052L167.665 91.2125H165.75ZM165.75 91.9625H168V93.5H167.516C167.293 92.9503 166.755 92.5625 166.125 92.5625C165.996 92.5625 165.87 92.5789 165.75 92.6098V91.9625ZM160.05 94.0625C160.05 93.6483 160.386 93.3125 160.8 93.3125C161.214 93.3125 161.55 93.6483 161.55 94.0625C161.55 94.4767 161.214 94.8125 160.8 94.8125C160.386 94.8125 160.05 94.4767 160.05 94.0625ZM165.375 94.0625C165.375 93.6483 165.711 93.3125 166.125 93.3125C166.539 93.3125 166.875 93.6483 166.875 94.0625C166.875 94.4767 166.539 94.8125 166.125 94.8125C165.711 94.8125 165.375 94.4767 165.375 94.0625Z" fill="white" fill-opacity="0.95"/>
<path d="M195 87.25C194.724 87.25 194.5 87.4739 194.5 87.75V94.5C194.5 94.7761 194.724 95 195 95H195.915C196.038 95.9866 196.88 96.75 197.9 96.75C198.92 96.75 199.761 95.9866 199.884 95H203.015C203.138 95.9866 203.98 96.75 205 96.75C206.02 96.75 206.862 95.9866 206.985 95H208C208.276 95 208.5 94.7761 208.5 94.5V91.45C208.5 91.3495 208.47 91.2514 208.413 91.1683L206.913 88.9683C206.82 88.8317 206.665 88.75 206.5 88.75H204.5V87.75C204.5 87.4739 204.276 87.25 204 87.25H195ZM203.5 88.25V93.4271C203.352 93.5953 203.231 93.7887 203.145 94H199.755C199.458 93.267 198.739 92.75 197.9 92.75C197.061 92.75 196.342 93.267 196.045 94H195.5V88.25H203.5ZM204.5 90.95V89.75H206.236L207.054 90.95H204.5ZM204.5 91.95H207.5V94H206.855C206.558 93.267 205.839 92.75 205 92.75C204.827 92.75 204.66 92.7719 204.5 92.813V91.95ZM196.9 94.75C196.9 94.1977 197.348 93.75 197.9 93.75C198.452 93.75 198.9 94.1977 198.9 94.75C198.9 95.3023 198.452 95.75 197.9 95.75C197.348 95.75 196.9 95.3023 196.9 94.75ZM204 94.75C204 94.1977 204.448 93.75 205 93.75C205.552 93.75 206 94.1977 206 94.75C206 95.3023 205.552 95.75 205 95.75C204.448 95.75 204 95.3023 204 94.75Z" fill="white" fill-opacity="0.95"/>
<path d="M235.75 84.875C235.336 84.875 235 85.2108 235 85.625V95.75C235 96.1642 235.336 96.5 235.75 96.5H237.123C237.308 97.9799 238.57 99.125 240.1 99.125C241.63 99.125 242.892 97.9799 243.077 96.5H247.773C247.958 97.9799 249.22 99.125 250.75 99.125C252.28 99.125 253.542 97.9799 253.727 96.5H255.25C255.664 96.5 256 96.1642 256 95.75V91.175C256 91.0243 255.955 90.877 255.87 90.7525L253.62 87.4525C253.48 87.2476 253.248 87.125 253 87.125H250V85.625C250 85.2108 249.664 84.875 249.25 84.875H235.75ZM248.5 86.375V94.1406C248.277 94.393 248.096 94.683 247.968 95H242.882C242.437 93.9006 241.359 93.125 240.1 93.125C238.841 93.125 237.763 93.9006 237.318 95H236.5V86.375H248.5ZM250 90.425V88.625H252.604L253.831 90.425H250ZM250 91.925H254.5V95H253.532C253.087 93.9006 252.009 93.125 250.75 93.125C250.491 93.125 250.24 93.1578 250 93.2195V91.925ZM238.6 96.125C238.6 95.2966 239.271 94.625 240.1 94.625C240.928 94.625 241.6 95.2966 241.6 96.125C241.6 96.9534 240.928 97.625 240.1 97.625C239.271 97.625 238.6 96.9534 238.6 96.125ZM249.25 96.125C249.25 95.2966 249.922 94.625 250.75 94.625C251.578 94.625 252.25 95.2966 252.25 96.125C252.25 96.9534 251.578 97.625 250.75 97.625C249.922 97.625 249.25 96.9534 249.25 96.125Z" fill="white" fill-opacity="0.95"/>
<path d="M284.5 81.3125C283.948 81.3125 283.5 81.8162 283.5 82.4375V97.625C283.5 98.2463 283.948 98.75 284.5 98.75H286.331C286.577 100.97 288.26 102.688 290.3 102.688C292.34 102.688 294.023 100.97 294.269 98.75H300.531C300.777 100.97 302.46 102.688 304.5 102.688C306.54 102.688 308.223 100.97 308.469 98.75H310.5C311.052 98.75 311.5 98.2463 311.5 97.625V90.7625C311.5 90.5364 311.439 90.3156 311.326 90.1287L308.326 85.1787C308.14 84.8714 307.831 84.6875 307.5 84.6875H303.5V82.4375C303.5 81.8162 303.052 81.3125 302.5 81.3125H284.5ZM301.5 83.5625V95.211C301.203 95.5894 300.962 96.0245 300.791 96.5H294.009C293.416 94.8508 291.978 93.6875 290.3 93.6875C288.621 93.6875 287.184 94.8508 286.591 96.5H285.5V83.5625H301.5ZM303.5 89.6375V86.9375H306.971L308.608 89.6375H303.5ZM303.5 91.8875H309.5V96.5H308.209C307.616 94.8508 306.179 93.6875 304.5 93.6875C304.155 93.6875 303.82 93.7367 303.5 93.8293V91.8875ZM288.3 98.1875C288.3 96.9449 289.195 95.9375 290.3 95.9375C291.404 95.9375 292.3 96.9449 292.3 98.1875C292.3 99.4301 291.404 100.438 290.3 100.438C289.195 100.438 288.3 99.4301 288.3 98.1875ZM302.5 98.1875C302.5 96.9449 303.395 95.9375 304.5 95.9375C305.605 95.9375 306.5 96.9449 306.5 98.1875C306.5 99.4301 305.605 100.438 304.5 100.438C303.395 100.438 302.5 99.4301 302.5 98.1875Z" fill="white" fill-opacity="0.95"/>
<path d="M343.5 73C342.395 73 341.5 73.8954 341.5 75V102C341.5 103.105 342.395 104 343.5 104H347.162C347.654 107.946 351.02 111 355.1 111C359.179 111 362.546 107.946 363.038 104H375.562C376.054 107.946 379.42 111 383.5 111C387.58 111 390.946 107.946 391.438 104H395.5C396.605 104 397.5 103.105 397.5 102V89.8C397.5 89.3981 397.379 89.0054 397.152 88.6733L391.152 79.8733C390.78 79.3269 390.161 79 389.5 79H381.5V75C381.5 73.8954 380.605 73 379.5 73H343.5ZM377.5 77V97.7084C376.906 98.3812 376.424 99.1547 376.082 100H362.518C361.331 97.0682 358.457 95 355.1 95C351.742 95 348.868 97.0682 347.681 100H345.5V77H377.5ZM381.5 87.8V83H388.443L391.716 87.8H381.5ZM381.5 91.8H393.5V100H390.918C389.732 97.0682 386.857 95 383.5 95C382.809 95 382.139 95.0875 381.5 95.252V91.8ZM351.1 103C351.1 100.791 352.89 99 355.1 99C357.309 99 359.1 100.791 359.1 103C359.1 105.209 357.309 107 355.1 107C352.89 107 351.1 105.209 351.1 103ZM379.5 103C379.5 100.791 381.291 99 383.5 99C385.709 99 387.5 100.791 387.5 103C387.5 105.209 385.709 107 383.5 107C381.291 107 379.5 105.209 379.5 103Z" fill="white" fill-opacity="0.95"/>
</svg>
