<svg width="559" height="184" viewBox="0 0 559 184" fill="none" xmlns="http://www.w3.org/2000/svg">
<rect width="559" height="184" rx="16" fill="#1A1A1A"/>
<path d="M79.5 98.0087H73.5V92.0087C73.5 91.4782 73.2893 90.9695 72.9142 90.5945C72.5391 90.2194 72.0304 90.0087 71.5 90.0087C70.9696 90.0087 70.4609 90.2194 70.0858 90.5945C69.7107 90.9695 69.5 91.4782 69.5 92.0087V98.0087H63.5C62.9696 98.0087 62.4609 98.2194 62.0858 98.5945C61.7107 98.9695 61.5 99.4782 61.5 100.009C61.5 100.539 61.7107 101.048 62.0858 101.423C62.4609 101.798 62.9696 102.009 63.5 102.009H69.5V108.009C69.5 108.539 69.7107 109.048 70.0858 109.423C70.4609 109.798 70.9696 110.009 71.5 110.009C72.0304 110.009 72.5391 109.798 72.9142 109.423C73.2893 109.048 73.5 108.539 73.5 108.009V102.009H79.5C80.0304 102.009 80.5391 101.798 80.9142 101.423C81.2893 101.048 81.5 100.539 81.5 100.009C81.5 99.4782 81.2893 98.9695 80.9142 98.5945C80.5391 98.2194 80.0304 98.0087 79.5 98.0087Z" fill="white" fill-opacity="0.95"/>
<path d="M94.6601 83.1415L81.0137 65.5479C80.6384 65.0675 80.159 64.6785 79.6116 64.4102C79.0642 64.1419 78.4631 64.0013 77.8535 63.999H57.5C54.8488 64.0021 52.3071 65.0567 50.4324 66.9314C48.5577 68.8061 47.5031 71.3478 47.5 73.999V109.999C47.5031 112.65 48.5577 115.192 50.4324 117.067C52.3071 118.941 54.8488 119.996 57.5 119.999H85.5C88.1512 119.996 90.6929 118.941 92.5676 117.067C94.4423 115.192 95.4969 112.65 95.5 109.999V85.5946C95.4986 84.7066 95.2033 83.844 94.6601 83.1415ZM90.2623 83.9989H79.5V70.1236L90.2623 83.9989ZM85.5 115.999H57.5C55.9092 115.997 54.3841 115.364 53.2593 114.24C52.1344 113.115 51.5017 111.59 51.5 109.999V73.9989C51.5017 72.4082 52.1344 70.883 53.2593 69.7582C54.3841 68.6334 55.9092 68.0007 57.5 67.9989L75.5 68.0006V83.9989C75.5014 85.0594 75.9232 86.076 76.6731 86.8258C77.4229 87.5757 78.4396 87.9975 79.5 87.9989H91.5V109.999C91.4983 111.59 90.8656 113.115 89.7407 114.24C88.6159 115.364 87.0908 115.997 85.5 115.999Z" fill="white" fill-opacity="0.95"/>
<path d="M183.5 98.0087H177.5V92.0087C177.5 91.4782 177.289 90.9695 176.914 90.5945C176.539 90.2194 176.03 90.0087 175.5 90.0087C174.97 90.0087 174.461 90.2194 174.086 90.5945C173.711 90.9695 173.5 91.4782 173.5 92.0087V98.0087H167.5C166.97 98.0087 166.461 98.2194 166.086 98.5945C165.711 98.9695 165.5 99.4782 165.5 100.009C165.5 100.539 165.711 101.048 166.086 101.423C166.461 101.798 166.97 102.009 167.5 102.009H173.5V108.009C173.5 108.539 173.711 109.048 174.086 109.423C174.461 109.798 174.97 110.009 175.5 110.009C176.03 110.009 176.539 109.798 176.914 109.423C177.289 109.048 177.5 108.539 177.5 108.009V102.009H183.5C184.03 102.009 184.539 101.798 184.914 101.423C185.289 101.048 185.5 100.539 185.5 100.009C185.5 99.4782 185.289 98.9695 184.914 98.5945C184.539 98.2194 184.03 98.0087 183.5 98.0087Z" fill="#3CC29A"/>
<path d="M198.66 83.1415L185.014 65.5479C184.638 65.0675 184.159 64.6785 183.612 64.4102C183.064 64.1419 182.463 64.0013 181.854 63.999H161.5C158.849 64.0021 156.307 65.0567 154.432 66.9314C152.558 68.8061 151.503 71.3478 151.5 73.999V109.999C151.503 112.65 152.558 115.192 154.432 117.067C156.307 118.941 158.849 119.996 161.5 119.999H189.5C192.151 119.996 194.693 118.941 196.568 117.067C198.442 115.192 199.497 112.65 199.5 109.999V85.5946C199.499 84.7066 199.203 83.844 198.66 83.1415ZM194.262 83.9989H183.5V70.1236L194.262 83.9989ZM189.5 115.999H161.5C159.909 115.997 158.384 115.364 157.259 114.24C156.134 113.115 155.502 111.59 155.5 109.999V73.9989C155.502 72.4082 156.134 70.883 157.259 69.7582C158.384 68.6334 159.909 68.0007 161.5 67.9989L179.5 68.0006V83.9989C179.501 85.0594 179.923 86.076 180.673 86.8258C181.423 87.5757 182.44 87.9975 183.5 87.9989H195.5V109.999C195.498 111.59 194.866 113.115 193.741 114.24C192.616 115.364 191.091 115.997 189.5 115.999Z" fill="#3CC29A"/>
<path d="M287.5 98.0087H281.5V92.0087C281.5 91.4782 281.289 90.9695 280.914 90.5945C280.539 90.2194 280.03 90.0087 279.5 90.0087C278.97 90.0087 278.461 90.2194 278.086 90.5945C277.711 90.9695 277.5 91.4782 277.5 92.0087V98.0087H271.5C270.97 98.0087 270.461 98.2194 270.086 98.5945C269.711 98.9695 269.5 99.4782 269.5 100.009C269.5 100.539 269.711 101.048 270.086 101.423C270.461 101.798 270.97 102.009 271.5 102.009H277.5V108.009C277.5 108.539 277.711 109.048 278.086 109.423C278.461 109.798 278.97 110.009 279.5 110.009C280.03 110.009 280.539 109.798 280.914 109.423C281.289 109.048 281.5 108.539 281.5 108.009V102.009H287.5C288.03 102.009 288.539 101.798 288.914 101.423C289.289 101.048 289.5 100.539 289.5 100.009C289.5 99.4782 289.289 98.9695 288.914 98.5945C288.539 98.2194 288.03 98.0087 287.5 98.0087Z" fill="#FC8B98"/>
<path d="M302.66 83.1415L289.014 65.5479C288.638 65.0675 288.159 64.6785 287.612 64.4102C287.064 64.1419 286.463 64.0013 285.854 63.999H265.5C262.849 64.0021 260.307 65.0567 258.432 66.9314C256.558 68.8061 255.503 71.3478 255.5 73.999V109.999C255.503 112.65 256.558 115.192 258.432 117.067C260.307 118.941 262.849 119.996 265.5 119.999H293.5C296.151 119.996 298.693 118.941 300.568 117.067C302.442 115.192 303.497 112.65 303.5 109.999V85.5946C303.499 84.7066 303.203 83.844 302.66 83.1415ZM298.262 83.9989H287.5V70.1236L298.262 83.9989ZM293.5 115.999H265.5C263.909 115.997 262.384 115.364 261.259 114.24C260.134 113.115 259.502 111.59 259.5 109.999V73.9989C259.502 72.4082 260.134 70.883 261.259 69.7582C262.384 68.6334 263.909 68.0007 265.5 67.9989L283.5 68.0006V83.9989C283.501 85.0594 283.923 86.076 284.673 86.8258C285.423 87.5757 286.44 87.9975 287.5 87.9989H299.5V109.999C299.498 111.59 298.866 113.115 297.741 114.24C296.616 115.364 295.091 115.997 293.5 115.999Z" fill="#FC8B98"/>
<path d="M391.5 98.0087H385.5V92.0087C385.5 91.4782 385.289 90.9695 384.914 90.5945C384.539 90.2194 384.03 90.0087 383.5 90.0087C382.97 90.0087 382.461 90.2194 382.086 90.5945C381.711 90.9695 381.5 91.4782 381.5 92.0087V98.0087H375.5C374.97 98.0087 374.461 98.2194 374.086 98.5945C373.711 98.9695 373.5 99.4782 373.5 100.009C373.5 100.539 373.711 101.048 374.086 101.423C374.461 101.798 374.97 102.009 375.5 102.009H381.5V108.009C381.5 108.539 381.711 109.048 382.086 109.423C382.461 109.798 382.97 110.009 383.5 110.009C384.03 110.009 384.539 109.798 384.914 109.423C385.289 109.048 385.5 108.539 385.5 108.009V102.009H391.5C392.03 102.009 392.539 101.798 392.914 101.423C393.289 101.048 393.5 100.539 393.5 100.009C393.5 99.4782 393.289 98.9695 392.914 98.5945C392.539 98.2194 392.03 98.0087 391.5 98.0087Z" fill="#F2990A"/>
<path d="M406.66 83.1415L393.014 65.5479C392.638 65.0675 392.159 64.6785 391.612 64.4102C391.064 64.1419 390.463 64.0013 389.854 63.999H369.5C366.849 64.0021 364.307 65.0567 362.432 66.9314C360.558 68.8061 359.503 71.3478 359.5 73.999V109.999C359.503 112.65 360.558 115.192 362.432 117.067C364.307 118.941 366.849 119.996 369.5 119.999H397.5C400.151 119.996 402.693 118.941 404.568 117.067C406.442 115.192 407.497 112.65 407.5 109.999V85.5946C407.499 84.7066 407.203 83.844 406.66 83.1415ZM402.262 83.9989H391.5V70.1236L402.262 83.9989ZM397.5 115.999H369.5C367.909 115.997 366.384 115.364 365.259 114.24C364.134 113.115 363.502 111.59 363.5 109.999V73.9989C363.502 72.4082 364.134 70.883 365.259 69.7582C366.384 68.6334 367.909 68.0007 369.5 67.9989L387.5 68.0006V83.9989C387.501 85.0594 387.923 86.076 388.673 86.8258C389.423 87.5757 390.44 87.9975 391.5 87.9989H403.5V109.999C403.498 111.59 402.866 113.115 401.741 114.24C400.616 115.364 399.091 115.997 397.5 115.999Z" fill="#F2990A"/>
<path d="M495.5 98.0087H489.5V92.0087C489.5 91.4782 489.289 90.9695 488.914 90.5945C488.539 90.2194 488.03 90.0087 487.5 90.0087C486.97 90.0087 486.461 90.2194 486.086 90.5945C485.711 90.9695 485.5 91.4782 485.5 92.0087V98.0087H479.5C478.97 98.0087 478.461 98.2194 478.086 98.5945C477.711 98.9695 477.5 99.4782 477.5 100.009C477.5 100.539 477.711 101.048 478.086 101.423C478.461 101.798 478.97 102.009 479.5 102.009H485.5V108.009C485.5 108.539 485.711 109.048 486.086 109.423C486.461 109.798 486.97 110.009 487.5 110.009C488.03 110.009 488.539 109.798 488.914 109.423C489.289 109.048 489.5 108.539 489.5 108.009V102.009H495.5C496.03 102.009 496.539 101.798 496.914 101.423C497.289 101.048 497.5 100.539 497.5 100.009C497.5 99.4782 497.289 98.9695 496.914 98.5945C496.539 98.2194 496.03 98.0087 495.5 98.0087Z" fill="#64B4FA"/>
<path d="M510.66 83.1415L497.014 65.5479C496.638 65.0675 496.159 64.6785 495.612 64.4102C495.064 64.1419 494.463 64.0013 493.854 63.999H473.5C470.849 64.0021 468.307 65.0567 466.432 66.9314C464.558 68.8061 463.503 71.3478 463.5 73.999V109.999C463.503 112.65 464.558 115.192 466.432 117.067C468.307 118.941 470.849 119.996 473.5 119.999H501.5C504.151 119.996 506.693 118.941 508.568 117.067C510.442 115.192 511.497 112.65 511.5 109.999V85.5946C511.499 84.7066 511.203 83.844 510.66 83.1415ZM506.262 83.9989H495.5V70.1236L506.262 83.9989ZM501.5 115.999H473.5C471.909 115.997 470.384 115.364 469.259 114.24C468.134 113.115 467.502 111.59 467.5 109.999V73.9989C467.502 72.4082 468.134 70.883 469.259 69.7582C470.384 68.6334 471.909 68.0007 473.5 67.9989L491.5 68.0006V83.9989C491.501 85.0594 491.923 86.076 492.673 86.8258C493.423 87.5757 494.44 87.9975 495.5 87.9989H507.5V109.999C507.498 111.59 506.866 113.115 505.741 114.24C504.616 115.364 503.091 115.997 501.5 115.999Z" fill="#64B4FA"/>
</svg>
