<svg width="559" height="256" viewBox="0 0 559 256" fill="none" xmlns="http://www.w3.org/2000/svg">
<rect width="559" height="256" rx="16" fill="#1A1A1A"/>
<path d="M207.365 69.2V68.2C207.365 63.8 210.965 60.2 215.365 60.2H311.365C315.765 60.2 319.365 63.8 319.365 68.2V80.2C319.365 93.2 311.365 96.2 307.365 92.2C303.365 88.2 305.365 82.2 314.365 79.2L327.765 74.7C331.965 73.3 336.465 75.5999 337.865 79.7999L364.765 160.6C366.165 164.8 363.865 169.3 359.665 170.7L266.865 201.6C262.665 203 258.165 200.7 256.765 196.5L251.265 180.1M241.365 86.2H259.365M319.365 98.2V164.2C319.365 168.6 315.765 172.2 311.365 172.2H215.365C210.965 172.2 207.365 168.6 207.365 164.2V97.2C207.365 96.7 206.965 96.3 206.465 96.2C201.265 95.7 197.165 91.3 197.365 85.9C197.565 80.8 201.665 76.5 206.865 76.2C210.165 76 213.065 77.4 215.065 79.7L222.565 78.7999C224.265 73.6999 227.565 70.2 231.465 70.2C236.965 70.2 241.465 77.4 241.465 86.2C241.465 95 236.965 102.2 231.465 102.2C227.565 102.2 224.165 98.3 222.465 93.2L215.465 92.2M227.365 125.3L230.865 121.8C233.965 118.7 239.365 120.9 239.365 125.3C239.365 129.7 244.765 131.9 247.865 128.8L254.865 121.8C257.965 118.7 263.365 120.9 263.365 125.3C263.365 129.7 268.765 131.9 271.865 128.8L278.865 121.8C281.965 118.7 287.365 120.9 287.365 125.3C287.365 129.7 292.765 131.9 295.865 128.8L299.365 125.3M227.365 147.3L230.865 143.8C233.965 140.7 239.365 142.9 239.365 147.3C239.365 151.7 244.765 153.9 247.865 150.8L254.865 143.8C257.965 140.7 263.365 142.9 263.365 147.3C263.365 151.7 268.765 153.9 271.865 150.8L278.865 143.8C281.965 140.7 287.365 142.9 287.365 147.3C287.365 151.7 292.765 153.9 295.865 150.8L299.365 147.3" stroke="url(#paint0_linear_1764_4080)" stroke-width="2.5" stroke-miterlimit="10" stroke-linecap="round" stroke-linejoin="round"/>
<defs>
<linearGradient id="paint0_linear_1764_4080" x1="281.267" y1="60.2" x2="281.267" y2="202.01" gradientUnits="userSpaceOnUse">
<stop stop-color="#93C437"/>
<stop offset="1" stop-color="#279BE8"/>
</linearGradient>
</defs>
</svg>
