<svg width="559" height="236" viewBox="0 0 559 236" fill="none" xmlns="http://www.w3.org/2000/svg">
<rect width="559" height="236" rx="16" fill="#1A1A1A"/>
<path d="M276.45 92C276.45 67.7 256.75 48 232.45 48C208.15 48 188.45 67.7 188.45 92C188.45 107 195.95 120.1 207.45 128M212.45 168C219.05 168 224.45 162.6 224.45 156V122C224.45 118.7 221.75 116 218.45 116C215.15 116 212.45 118.7 212.45 122C212.45 136 234.55 152 250.45 152C262.65 152 272.45 142.2 272.45 130V102C272.45 93.2 265.25 86 256.45 86H248.45C239.65 86 232.45 93.2 232.45 102M260.45 111C260.45 111 263.45 120 264.45 123C265.45 126 263.45 128 260.45 128H258.45M370.55 130.1H364.55C357.95 130.1 352.55 124.7 352.55 118.1V84.1C352.55 80.8 355.25 78.1 358.55 78.1C361.85 78.1 364.55 80.8 364.55 84.1C364.55 98.1 342.45 114.1 326.55 114.1C314.35 114.1 304.55 104.3 304.55 92.1V64.1M316.55 73.1C316.55 73.1 313.55 82.1 312.55 85.1C311.55 88.1 313.55 90.1 316.55 90.1H318.55M304.45 64C304.45 55.2 311.65 48 320.45 48C338.45 48 335.45 72 358.45 72M326.45 40C344.45 40 341.45 64 364.45 64M332.45 32C350.45 32 347.45 56 370.45 56M296.45 196.1C296.45 181.1 288.45 176.1 276.45 172.1L264.45 168.1C258.45 166.1 252.45 164.1 252.45 159.1M324.45 121C324.45 126 318.45 128 312.45 130L300.45 134C288.45 138 280.45 143 280.45 158V196C280.45 200.4 284.05 204 288.45 204C292.85 204 296.45 200.4 296.45 196" stroke="white" stroke-width="2.5" stroke-miterlimit="10" stroke-linecap="round" stroke-linejoin="round"/>
</svg>
