<svg width="559" height="256" viewBox="0 0 559 256" fill="none" xmlns="http://www.w3.org/2000/svg">
<rect width="559" height="256" rx="16" fill="#1A1A1A"/>
<path d="M275.666 159.2L261.766 180.1C260.866 181.4 261.866 183.2 263.466 183.2H275.166C275.866 183.2 276.366 184 276.066 184.6L268.066 202.1C267.566 203.1 268.866 204 269.666 203.2L294.366 178.5C295.666 177.2 294.766 175.1 292.966 175.1H285.666C284.866 175.1 284.366 174.2 284.866 173.5L292.366 162.5C293.866 160.3 296.366 159 298.966 159H332.966C347.166 159 359.066 147.9 359.466 133.7C359.866 119 348.066 107 333.466 107C331.366 107 329.266 107.3 327.366 107.7C325.666 82.7 304.866 63 279.466 63C256.966 63.2 238.166 78.6 232.866 99.5C231.766 99.4 230.566 99.3 229.366 99.3C212.566 99.3 198.866 113.2 199.366 130.1C199.766 146.4 213.666 159.3 229.966 159.3H239.366M327.266 108C314.366 112.3 307.366 123.3 312.366 128.3C316.366 132.2 327.366 125.2 327.266 108Z" stroke="url(#paint0_linear_1764_4086)" stroke-width="2.5" stroke-miterlimit="10" stroke-linecap="round" stroke-linejoin="round"/>
<defs>
<linearGradient id="paint0_linear_1764_4086" x1="279.414" y1="63" x2="279.414" y2="203.508" gradientUnits="userSpaceOnUse">
<stop stop-color="#F0677E"/>
<stop offset="1" stop-color="#DB1F2E"/>
</linearGradient>
</defs>
</svg>
