<svg width="559" height="256" viewBox="0 0 559 256" fill="none" xmlns="http://www.w3.org/2000/svg">
<rect width="559" height="256" rx="16" fill="#1A1A1A"/>
<path d="M332.366 215.2L360.066 173.6C363.566 168.3 359.766 161.2 353.366 161.2H338.266C338.266 161.2 335.266 147.2 340.266 137.2C343.266 131.2 349.266 127.2 349.266 115.2C349.266 103.2 345.266 101.2 345.266 95.1998C345.266 90.1998 348.266 87.1998 350.266 85.1998L353.866 81.5998C355.166 80.2998 354.266 78.1998 352.466 78.1998H350.266C352.266 73.1998 348.266 71.1998 348.266 71.1998L340.266 79.1998C334.766 79.1998 330.266 83.6998 330.266 89.1998H323.366C322.766 89.1998 322.266 89.6998 322.366 90.2998C322.966 94.1998 326.266 97.1998 330.266 97.1998C330.266 111.2 316.266 118.2 308.266 130.2C304.266 136.2 300.266 145.2 300.266 155.2C291.466 155.2 284.266 148 284.266 139.2C284.266 136.9 284.866 134.5 285.566 132.7C285.866 132 285.266 131.2 284.566 131.4C276.966 132.5 268.266 141 268.266 151.3C268.266 165.3 282.266 174.3 302.266 174.3C307.266 174.3 310.266 172.3 310.266 169.3C310.266 166.3 307.266 164.3 302.266 164.3C283.266 164.3 234.266 186.3 202.266 210.3M217.266 43.4998C212.666 42.9998 208.166 43.1998 203.866 44.0998C202.866 44.2998 202.766 45.5998 203.766 45.9998C220.566 52.1998 232.466 68.2998 232.466 87.2998C232.466 106.2 220.566 122.3 203.766 128.5C202.866 128.9 202.966 130.2 203.966 130.4C206.766 130.9 209.566 131.2 212.466 131.2C237.666 131.2 257.866 110.1 256.366 84.5998C255.066 63.3998 238.466 45.7998 217.266 43.4998Z" stroke="white" stroke-opacity="0.95" stroke-width="2.5" stroke-miterlimit="10" stroke-linecap="round" stroke-linejoin="round"/>
</svg>
