<svg width="32" height="32" viewBox="0 0 32 32" fill="none" xmlns="http://www.w3.org/2000/svg">
<path d="M3.25005 16.0021C3.2501 16.201 3.32913 16.3917 3.46977 16.5324C3.61042 16.673 3.80115 16.752 4.00005 16.7521L14.1903 16.7504L11.4717 19.4728C11.4021 19.5426 11.3469 19.6254 11.3092 19.7165C11.2716 19.8076 11.2523 19.9052 11.2524 20.0038C11.2525 20.1023 11.272 20.1999 11.3098 20.291C11.3476 20.382 11.4029 20.4647 11.4727 20.5343C11.5425 20.604 11.6253 20.6592 11.7164 20.6968C11.8075 20.7344 11.9051 20.7538 12.0037 20.7537C12.1022 20.7536 12.1998 20.7341 12.2909 20.6963C12.3819 20.6585 12.4646 20.6031 12.5342 20.5333L16.5303 16.5304C16.6706 16.3898 16.7493 16.1993 16.7493 16.0006C16.7493 15.802 16.6706 15.6115 16.5303 15.4708L12.5381 11.4679C12.3977 11.3272 12.2072 11.2479 12.0084 11.2476C11.8096 11.2473 11.6188 11.326 11.4779 11.4663C11.3371 11.6066 11.2578 11.7971 11.2573 11.9959C11.2569 12.1947 11.3354 12.3856 11.4756 12.5265L14.1919 15.2505L4.00005 15.2521C3.80115 15.2522 3.61042 15.3312 3.46977 15.4718C3.32913 15.6125 3.2501 15.8032 3.25005 16.0021Z" fill="#5EBFF7"/>
<path d="M16 2.25014C13.2876 2.24577 10.6347 3.0454 8.37651 4.54803C6.11831 6.05066 4.35612 8.18887 3.31255 10.6925C3.23638 10.8758 3.23596 11.0817 3.31137 11.2653C3.38678 11.4488 3.53187 11.595 3.71485 11.6717C3.89784 11.7485 4.10379 11.7496 4.28757 11.6748C4.47136 11.6 4.618 11.4553 4.69536 11.2726C5.78826 8.66067 7.75224 6.50799 10.2533 5.18073C12.7543 3.85347 15.6378 3.4336 18.4135 3.99254C21.1891 4.55147 23.6855 6.0547 25.4778 8.24652C27.2702 10.4383 28.2479 13.1834 28.2447 16.0148C28.2415 18.8461 27.2575 21.589 25.4601 23.7767C23.6628 25.9644 21.163 27.462 18.3861 28.0146C15.6092 28.5672 12.7266 28.1407 10.2286 26.8078C7.73064 25.4748 5.77156 23.3177 4.68462 20.7033C4.60781 20.5202 4.46157 20.3751 4.27794 20.2997C4.09431 20.2243 3.88828 20.2248 3.70501 20.301C3.52173 20.3773 3.37617 20.5231 3.30022 20.7065C3.22428 20.8899 3.22414 21.0959 3.29985 21.2794C4.25528 23.5783 5.81683 25.5747 7.81794 27.0556C9.81905 28.5365 12.1846 29.4465 14.6623 29.6883C17.1401 29.9302 19.637 29.4949 21.8867 28.429C24.1364 27.363 26.0546 25.7063 27.4366 23.6356C28.8186 21.5649 29.6125 19.1579 29.7337 16.6714C29.855 14.1849 29.2989 11.7121 28.1249 9.51676C26.9509 7.32147 25.203 5.48605 23.0676 4.20629C20.9323 2.92653 18.4895 2.25044 16 2.25014Z" fill="#5EBFF7"/>
</svg>
