<svg width="192" height="192" viewBox="0 0 192 192" fill="none" xmlns="http://www.w3.org/2000/svg">
<path d="M144.987 125.22V119.82C144.987 117.18 142.827 115.02 140.187 115.02M140.187 115.02H100.587C97.9468 115.02 95.7868 117.18 95.7868 119.82V124.62C95.7868 127.26 97.9468 129.42 100.587 129.42M140.187 115.02C142.827 115.02 144.987 112.86 144.987 110.22V105.42C144.987 102.78 142.827 100.62 140.187 100.62H100.587C97.9468 100.62 95.7868 102.78 95.7868 105.42V110.82M100.587 129.42H105.387C108.027 129.42 110.187 131.58 110.187 134.22V153.42C110.187 156.06 108.027 158.22 105.387 158.22H100.587C97.9468 158.22 95.7868 156.06 95.7868 153.42V133.62M100.587 129.42H153.387C156.027 129.42 158.187 131.58 158.187 134.22V142.62H167.787C170.427 142.62 172.587 144.78 172.587 147.42V153.42C172.587 156.06 170.427 158.22 167.787 158.22H134.187C131.547 158.22 129.387 156.06 129.387 153.42V133.62M38.1868 71.82L53.7268 82.2C57.6868 84.84 62.3068 86.22 67.0468 86.22H75.3868C76.0468 86.22 76.5868 85.68 76.5868 85.02C76.5868 81.72 73.8868 79.02 70.5868 79.02H68.6668C67.6468 79.02 66.7468 78.42 66.4468 77.46L65.4868 74.88C64.2868 71.7 65.4868 68.1 68.3668 66.3L72.1468 63.9C74.5468 62.4 77.7268 63.24 79.0468 65.82L80.0068 67.74C80.1868 68.1 80.2468 68.46 80.2468 68.82V70.68C80.2468 73.98 82.9468 76.68 86.2468 76.68C86.9068 76.68 87.4468 76.14 87.4468 75.48V65.76C87.4468 65.04 87.2668 64.26 86.9668 63.6L81.6268 52.86C80.7868 51.24 79.1668 50.22 77.3068 50.22H76.8268C75.9868 50.22 75.2668 49.74 74.9068 49.02L74.4268 48.06C73.5868 46.44 71.9668 45.42 70.1068 45.42H69.6268C68.7868 45.42 68.0668 44.94 67.7068 44.22C66.6868 42.12 64.2868 41.1 62.0068 41.76C60.5668 42.18 59.1868 42.72 57.8668 43.38L57.4468 43.56L47.9668 48.3C45.6268 49.44 42.9268 49.26 40.7668 47.88L18.9868 33.42M81.7468 99.42L74.3068 77.04C73.7068 75.18 75.4468 73.38 77.3668 73.98L99.7468 81.42C101.427 81.96 101.967 84.12 100.707 85.38L85.8268 100.26C84.4468 101.64 82.2868 101.1 81.7468 99.42Z" stroke="url(#paint0_linear_1764_3820)" stroke-width="2.5" stroke-miterlimit="10" stroke-linecap="round" stroke-linejoin="round"/>
<defs>
<linearGradient id="paint0_linear_1764_3820" x1="95.7868" y1="33.42" x2="95.7868" y2="158.22" gradientUnits="userSpaceOnUse">
<stop stop-color="#FFBE4F"/>
<stop offset="1" stop-color="#93C437"/>
</linearGradient>
</defs>
</svg>
