<svg width="362" height="385" viewBox="0 0 362 385" fill="none" xmlns="http://www.w3.org/2000/svg">
<rect width="362" height="385" rx="16" fill="#1A1A1A"/>
<path d="M154.645 207.7C154.645 207.7 156.845 214.5 157.645 216.7C158.645 219.7 156.645 220.7 154.645 220.7H152.645M122.645 206.7C128.645 206.7 132.645 202.7 136.645 198.7C140.645 194.7 144.645 190.7 151.645 190.7C158.845 190.7 164.645 196.5 164.645 203.7V223.7C164.645 232 157.945 238.7 149.645 238.7C133.645 238.7 120.645 223.7 120.645 215.7C120.645 213.5 122.445 211.7 124.645 211.7C126.845 211.7 128.645 213.5 128.645 215.7V237.7C128.645 242.1 125.045 245.7 120.645 245.7C110.945 245.7 103.145 253.5 103.145 263.2C103.145 272.9 110.945 280.7 120.645 280.7H237.645M197.645 271.7C176.645 271.7 172.645 245.7 148.645 245.7M168.645 195.7C168.645 186.9 161.445 179.7 152.645 179.7C147.645 179.7 142.645 179.7 142.645 179.7C127.145 179.7 114.645 192.2 114.645 207.7V212.7C114.645 218.7 110.645 220.7 108.645 222.7C106.645 224.7 102.645 227.7 102.645 233.7C102.645 239.7 106.645 243.7 106.645 243.7M256.645 222.7C261.645 211.7 264.645 200.6 264.645 187.7C264.645 141.3 227.045 103.7 180.645 103.7C134.245 103.7 96.6445 141.3 96.6445 187.7C96.6445 199 98.5445 209.8 102.645 219.7M253.645 229.7H205.645C201.245 229.7 197.645 233.3 197.645 237.7V280.7H253.645C258.045 280.7 261.645 277.1 261.645 272.7V237.7C261.645 233.3 258.145 229.7 253.645 229.7ZM175.745 128.7C174.045 130.4 173.145 132.6 173.145 134.9C173.045 149.8 178.745 164.7 190.045 176.1C201.045 187.1 215.345 192.7 229.645 193C231.945 193.1 234.245 192.1 235.945 190.4L238.745 187.6C242.145 184.2 242.145 178.6 238.745 175.2L232.545 169C229.145 165.6 223.545 165.6 220.145 169L216.245 172.9C214.345 174.8 211.345 175.4 208.845 174.4C205.045 172.9 201.545 170.6 198.545 167.5C195.145 164.1 192.645 160 191.145 155.7C190.245 153.2 190.845 150.5 192.745 148.6L196.245 145.1C199.645 141.7 199.645 136.1 196.245 132.7L190.045 126.5C186.645 123.1 181.045 123.1 177.645 126.5L175.745 128.7Z" stroke="white" stroke-opacity="0.95" stroke-width="2.5" stroke-miterlimit="10" stroke-linecap="round" stroke-linejoin="round"/>
<path d="M144.645 211.7C145.749 211.7 146.645 210.805 146.645 209.7C146.645 208.596 145.749 207.7 144.645 207.7C143.54 207.7 142.645 208.596 142.645 209.7C142.645 210.805 143.54 211.7 144.645 211.7Z" fill="white" fill-opacity="0.95"/>
</svg>
