<svg width="362" height="385" viewBox="0 0 362 385" fill="none" xmlns="http://www.w3.org/2000/svg">
<rect width="362" height="385" rx="16" fill="#1A1A1A"/>
<path d="M173.944 235.6V217.2C173.944 216.5 173.144 216 172.544 216.3L149.944 227.6M173.944 235.6C173.944 239.466 177.078 242.6 180.944 242.6C184.81 242.6 187.944 239.466 187.944 235.6M173.944 235.6C173.944 231.734 177.078 228.6 180.944 228.6C184.81 228.6 187.944 231.734 187.944 235.6M149.944 227.6C147.444 229 143.944 227.2 141.944 223.6C139.944 220 140.444 216 142.944 214.6C145.444 213.2 148.944 215 150.944 218.6C152.944 222.2 152.444 226.2 149.944 227.6ZM211.944 227.6L189.344 216.3C188.644 216 187.944 216.5 187.944 217.2V235.6M211.944 227.6C214.444 229 217.944 227.2 219.944 223.6C221.844 220 221.444 216 218.944 214.6C216.444 213.2 212.944 215 210.944 218.6C208.944 222.2 209.444 226.2 211.944 227.6ZM196.944 189.6C196.944 185.3 194.844 182 193.644 180.5C193.244 180 192.544 180 192.144 180.4L186.944 185.6L181.644 174.9C181.244 174.3 180.444 174.2 179.944 174.7C177.744 177.2 172.944 183.8 172.944 191.6C172.944 200.4 180.144 207.6 188.944 207.6C202.244 207.6 212.944 196.9 212.944 183.6C212.944 171.9 206.544 162.3 203.044 158C202.144 156.8 200.244 157.1 199.644 158.4C197.444 163.5 192.844 172.9 192.844 167.5C192.844 156 184.644 146.6 179.944 142.2C178.744 141.1 176.744 141.8 176.544 143.4C173.944 164.6 150.744 174.6 150.744 193.5C150.744 209.5 171.744 215.5 171.744 207.5C171.744 203.5 166.744 202.5 156.744 207.5L142.744 214.5" stroke="white" stroke-opacity="0.95" stroke-width="2.5" stroke-miterlimit="10" stroke-linecap="round" stroke-linejoin="round"/>
</svg>
