<svg width="192" height="192" viewBox="0 0 192 192" fill="none" xmlns="http://www.w3.org/2000/svg">
<path d="M9.38672 66.3001H26.1867C29.1867 69.3001 32.7867 70.5001 36.9867 70.5001H57.3867C58.0467 70.5001 58.5867 69.9601 58.5867 69.3001C58.5867 66.0001 55.8867 63.3001 52.5867 63.3001H47.3667C46.1067 63.3001 44.8467 62.8201 43.9467 61.9201L41.2467 59.2201C40.1067 58.0801 39.8067 56.3401 40.5267 54.9001M37.5867 38.7001C40.2267 36.0601 44.5467 36.0601 47.1867 38.7001L66.7467 58.2601C67.2267 58.7401 67.2267 59.4601 66.7467 59.9401C64.5867 62.1001 61.0467 62.1001 58.8267 59.9401L32.1867 33.3001C31.1667 32.2801 29.6067 32.2801 28.5867 33.3001C27.5667 34.3201 27.5667 35.8801 28.5867 36.9001L51.3867 59.7001M9.38672 48.9001H21.4467C25.2867 48.9001 28.9467 47.4001 31.6467 44.7001L34.0467 42.3001M62.1867 70.5001L65.9667 74.2801C66.2067 74.5201 66.5667 74.7601 66.9267 74.8801L71.7867 76.5001M71.7867 76.5001L70.1667 71.6401C70.0467 71.2801 69.8667 70.9801 69.5667 70.6801L64.5867 65.7001M71.7867 76.5001C77.1867 69.9001 87.5667 64.5001 98.1867 64.5001C116.727 64.5001 131.787 79.5601 131.787 98.1001C131.787 114.9 120.987 126.9 107.787 126.9C95.7867 126.9 86.1867 117.24 86.1867 105.3C86.1867 97.3201 91.5867 90.9001 98.1867 90.9001C104.787 90.9001 110.187 97.3201 110.187 105.3C110.187 121.56 87.7467 136.14 80.9067 140.16C80.3667 140.46 80.6067 141.3 81.2067 141.3H110.007C112.587 141.3 114.807 143.22 114.987 145.8C115.167 148.62 112.947 150.9 110.187 150.9H93.5667C90.9867 150.9 88.7667 152.82 88.5867 155.4C88.4067 158.22 90.6267 160.5 93.3867 160.5H119.787M182.187 150.3H165.387C162.387 153.3 158.787 154.5 154.587 154.5H134.187C133.527 154.5 132.987 153.96 132.987 153.3C132.987 150 135.687 147.3 138.987 147.3H144.207C145.467 147.3 146.727 146.82 147.627 145.92L150.327 143.22C151.467 142.08 151.767 140.34 151.047 138.9M153.987 122.7C151.347 120.06 147.027 120.06 144.387 122.7L124.827 142.26C124.347 142.74 124.347 143.46 124.827 143.94C126.987 146.1 130.527 146.1 132.747 143.94L159.387 117.3C160.407 116.28 161.967 116.28 162.987 117.3C164.007 118.32 164.007 119.88 162.987 120.9L140.187 143.7M182.187 132.9H170.127C166.287 132.9 162.627 131.4 159.927 128.7L157.527 126.3M129.387 154.5L125.607 158.28C125.367 158.52 125.007 158.76 124.647 158.88L119.787 160.5M119.787 160.5L121.407 155.64C121.527 155.28 121.707 154.98 122.007 154.68L126.987 149.7" stroke="url(#paint0_linear_1764_3867)" stroke-width="2.5" stroke-miterlimit="10" stroke-linecap="round" stroke-linejoin="round"/>
<defs>
<linearGradient id="paint0_linear_1764_3867" x1="95.7867" y1="32.5351" x2="95.7867" y2="160.5" gradientUnits="userSpaceOnUse">
<stop stop-color="#93C437"/>
<stop offset="1" stop-color="#279BE8"/>
</linearGradient>
</defs>
</svg>
