<svg width="32" height="32" viewBox="0 0 32 32" fill="none" xmlns="http://www.w3.org/2000/svg">
<path d="M16 2.24969C13.2805 2.24969 10.6221 3.05611 8.36092 4.56698C6.09974 6.07785 4.33737 8.22531 3.29666 10.7378C2.25596 13.2503 1.98366 16.0149 2.51421 18.6822C3.04476 21.3494 4.35432 23.7994 6.27729 25.7224C8.20026 27.6454 10.6503 28.9549 13.3175 29.4855C15.9848 30.016 18.7494 29.7437 21.2619 28.703C23.7744 27.6623 25.9218 25.9 27.4327 23.6388C28.9436 21.3776 29.75 18.7192 29.75 15.9997C29.746 12.3542 28.296 8.85918 25.7183 6.28143C23.1405 3.70368 19.6455 2.25372 16 2.24969ZM16 28.2497C13.5772 28.2497 11.2088 27.5312 9.19427 26.1852C7.17977 24.8391 5.60966 22.926 4.68248 20.6876C3.75531 18.4492 3.51272 15.9861 3.98539 13.6098C4.45806 11.2336 5.62475 9.05082 7.33795 7.33763C9.05114 5.62444 11.2339 4.45774 13.6102 3.98507C15.9864 3.5124 18.4495 3.75499 20.6879 4.68216C22.9263 5.60934 24.8395 7.17945 26.1855 9.19395C27.5316 11.2085 28.25 13.5769 28.25 15.9997C28.2464 19.2475 26.9546 22.3612 24.6581 24.6578C22.3615 26.9543 19.2478 28.2461 16 28.2497Z" fill="white" fill-opacity="0.95"/>
<path d="M20.5117 12.4304L14.04 17.9772L11.5313 15.4557C11.3908 15.315 11.2003 15.2358 11.0015 15.2355C10.8027 15.2352 10.6119 15.3138 10.4711 15.4541C10.3302 15.5945 10.2509 15.785 10.2504 15.9838C10.25 16.1826 10.3285 16.3734 10.4688 16.5143L13.4688 19.529C13.6023 19.663 13.7816 19.7417 13.9707 19.7491C14.1598 19.7565 14.3446 19.6922 14.4883 19.569L21.4883 13.569C21.5631 13.5049 21.6245 13.4266 21.669 13.3388C21.7135 13.2509 21.7403 13.1552 21.7479 13.057C21.7554 12.9588 21.7435 12.86 21.7129 12.7664C21.6822 12.6728 21.6335 12.5861 21.5693 12.5114C21.5052 12.4366 21.427 12.3752 21.3391 12.3307C21.2513 12.2861 21.1555 12.2593 21.0573 12.2518C20.9591 12.2443 20.8604 12.2562 20.7668 12.2868C20.6732 12.3174 20.5865 12.3662 20.5117 12.4304Z" fill="white" fill-opacity="0.95"/>
</svg>
