<svg width="559" height="330" viewBox="0 0 559 330" fill="none" xmlns="http://www.w3.org/2000/svg">
<path d="M213.022 126.212C213.022 126.212 215.015 132.375 215.74 134.369C216.647 137.087 214.834 137.994 213.022 137.994H211.209M184.022 125.306C189.459 125.306 193.084 121.681 196.709 118.056C200.334 114.431 203.959 110.806 210.303 110.806C216.828 110.806 222.084 116.062 222.084 122.587V140.712C222.084 148.144 216.193 154.216 208.762 154.306C194.443 154.487 182.662 141.256 182.209 133.825C182.118 131.922 183.568 130.019 185.472 129.837C187.647 129.656 189.459 131.287 189.459 133.462V153.4C189.459 158.837 184.928 161.556 179.49 163.369L163.993 168.534C158.647 170.347 155.022 175.331 155.022 181.041C155.022 183.487 157.468 185.3 159.825 184.484L266.49 148.959M225.709 115.337C225.709 107.362 219.184 100.837 211.209 100.837C206.678 100.837 202.147 100.837 202.147 100.837C188.1 100.837 176.772 112.166 176.772 126.212V130.744C176.772 136.181 173.147 137.994 171.334 139.806C169.522 141.619 165.897 144.337 165.897 149.775C165.897 155.212 169.522 158.837 169.522 158.837M286.428 166.087C283.347 166.087 280.9 163.55 280.99 160.469C281.081 157.478 283.709 155.212 286.609 155.212H289.056C290.234 155.212 291.412 154.759 292.228 153.853L293.587 152.494C295.218 150.862 295.672 148.325 294.584 146.241L293.134 143.341C292.5 142.162 293.406 140.712 294.765 140.712H303.647M393.365 131.65L389.197 118.962M366.722 116.244L362.553 124.581C362.1 125.487 362.462 126.575 363.368 127.028L370.981 130.834C371.887 131.287 372.25 132.375 371.797 133.281L367.99 140.894C367.537 141.8 367.9 142.887 368.806 143.341L377.143 147.509M312.709 133.462L366.268 115.609C366.812 115.428 367.356 115.337 367.9 115.428L401.522 120.231C402.972 120.412 403.606 122.225 402.518 123.312L378.503 147.328C378.14 147.691 377.597 148.053 377.053 148.234L351.406 156.481C350.681 156.662 350.047 156.028 350.228 155.394L352.222 148.869C352.765 147.056 351.406 145.334 349.593 145.334C348.506 145.334 347.6 145.969 347.147 146.875L342.706 155.756C341.981 157.297 341.528 158.928 341.528 160.65V203.878C341.528 208.681 335.637 211.128 332.284 207.684L320.956 196.356C317.875 193.275 313.706 191.553 309.447 191.553H299.478C296.759 191.553 294.493 189.287 294.493 186.569C294.493 183.85 296.759 181.584 299.478 181.584H304.553C309.084 181.584 312.618 177.778 312.618 173.247V166.178C312.618 165.181 313.434 164.366 314.431 164.366H316.243C318.056 164.366 320.775 163.459 318.962 158.022L316.243 149.866C312.528 138.809 305.368 133.553 294.493 133.553C282.44 133.553 272.743 143.25 272.743 155.303C272.743 164.366 276.368 166.178 276.368 177.053V179.319C276.368 180.859 275.372 182.309 273.922 182.762L215.559 202.156C213.475 202.881 211.118 202.519 209.215 201.341L204.775 198.441C204.322 198.078 203.959 197.534 203.959 196.991C203.868 191.462 203.053 190.556 202.147 188.834L198.522 181.584C197.978 180.497 196.8 179.953 195.622 180.134C194.172 180.406 193.265 181.766 193.537 183.216L194.625 189.469C194.715 190.284 193.9 190.828 193.265 190.375L185.562 185.3C183.206 183.759 180.034 184.212 178.312 186.478C174.597 191.191 175.684 198.078 180.668 201.341L210.756 221.369C213.475 223.181 216.737 224.178 220 224.178C229.243 224.178 236.675 216.656 236.675 207.503C236.675 204.15 236.675 201.522 236.675 201.522M367.084 151.587C368.715 155.847 367.084 160.559 363.278 163.006L359.381 165.544C356.3 167.537 354.397 170.981 354.397 174.697V176.962" stroke="url(#paint0_linear_1778_33777)" stroke-width="2.5" stroke-miterlimit="10" stroke-linecap="round" stroke-linejoin="round"/>
<path d="M203.959 129.837C204.96 129.837 205.772 129.026 205.772 128.025C205.772 127.024 204.96 126.212 203.959 126.212C202.958 126.212 202.147 127.024 202.147 128.025C202.147 129.026 202.958 129.837 203.959 129.837Z" fill="#68B47E"/>
<path d="M308.178 154.306C309.179 154.306 309.99 153.495 309.99 152.494C309.99 151.493 309.179 150.681 308.178 150.681C307.177 150.681 306.365 151.493 306.365 152.494C306.365 153.495 307.177 154.306 308.178 154.306Z" fill="#68B47E"/>
<defs>
<linearGradient id="paint0_linear_1778_33777" x1="279.044" y1="100.837" x2="279.044" y2="224.178" gradientUnits="userSpaceOnUse">
<stop stop-color="#279BE8"/>
<stop offset="1" stop-color="#875AE0"/>
</linearGradient>
</defs>
</svg>
