<svg width="555" height="320" viewBox="0 0 555 320" fill="none" xmlns="http://www.w3.org/2000/svg">
<path d="M297.827 191.7H277.827C275.627 191.7 273.827 193.5 273.827 195.7V200.7M308.727 191.7H313.727C315.927 191.7 317.727 193.5 317.727 195.7V207.7H329.727C331.927 207.7 333.727 209.5 333.727 211.7V223.7H345.727C347.927 223.7 349.727 225.5 349.727 227.7V232.7M277.727 207.7H291.727C301.627 207.7 309.727 215.8 309.727 225.7V235.7C309.727 237.9 311.527 239.7 313.727 239.7H385.727C399.027 239.7 409.727 229 409.727 215.7V179.7C409.727 169.8 401.627 161.7 391.727 161.7H385.827C381.427 161.7 377.827 158.1 377.827 153.7V131.7C377.827 129.3 379.827 127.5 382.227 127.7C384.327 127.9 385.927 130 385.827 132.1C385.327 140.3 372.327 154.9 356.527 154.7C348.327 154.6 341.827 147.9 341.827 139.7V119.7C341.827 112.5 347.627 106.7 354.827 106.7H358.727C365.927 106.7 371.727 112.5 371.727 119.7M277.727 207.7C275.527 207.7 273.727 209.5 273.727 211.7V216.7M277.727 207.7H284.727M289.727 214.7V235.7C289.727 237.9 287.927 239.7 285.727 239.7H275.727M277.327 184.7L286.227 166.9C287.727 164 291.927 164 293.427 166.9L302.927 186C304.227 188.7 302.327 191.8 299.327 191.8H280.227M379.927 168.8C377.327 174.1 372.227 177.8 365.927 177.8C357.127 177.8 349.927 170.6 349.927 161.8H337.027C330.227 161.8 323.927 165.7 320.927 171.8L315.827 181.8L314.327 184.8M145.727 223.7C153.727 175.7 169.727 175.7 176.727 161.7C177.727 159.7 178.727 157.7 178.727 154.7C178.727 146.7 174.727 144.6 174.727 135.7C174.727 122.4 185.427 111.7 198.727 111.7C210.727 111.7 218.627 117.5 222.727 129.7L225.727 138.7C227.727 144.7 224.727 145.7 222.727 145.7H220.727C219.627 145.7 218.727 146.6 218.727 147.7V155.5C218.727 160.5 214.727 164.7 209.827 164.7H202.727L197.727 174.7C194.827 180.4 191.127 183.4 186.427 183.7C183.027 183.9 179.827 181.4 179.727 178C179.527 174.5 182.327 171.7 185.727 171.7C195.727 171.7 202.727 177.7 209.727 191.7L222.427 217.1C224.427 221.2 228.627 223.7 233.127 223.7H260.527C261.327 223.7 262.127 223.4 262.827 223L268.227 219.2C270.027 217.9 272.227 217.2 274.427 217.4L280.727 217.5C282.927 217.7 284.727 219.6 284.727 222.3V223C284.727 224.5 284.627 226 284.027 227.4C283.427 228.8 282.527 230.1 281.327 231.1C279.727 232.5 277.727 233.2 275.627 233.4L271.627 233.7C271.627 233.7 268.627 239.7 255.627 239.7M189.727 147.7C186.327 147.7 183.627 144.9 183.727 141.5C183.827 138.2 186.727 135.7 189.927 135.7H192.627C193.927 135.7 195.227 135.2 196.127 134.2L197.627 132.7C199.427 130.9 199.927 128.1 198.727 125.8L197.127 122.6C196.427 121.3 197.427 119.7 198.927 119.7H208.727M351.927 123.7C351.927 123.7 349.727 130.5 348.927 132.7C347.927 135.7 349.927 136.7 351.927 136.7H353.927M392.827 134C398.427 128.2 401.827 120.4 401.827 111.8C401.827 94.1 387.527 79.8 369.827 79.8C352.127 79.8 337.827 94.1 337.827 111.8" stroke="url(#paint0_linear_1778_34281)" stroke-width="2.5" stroke-miterlimit="10" stroke-linecap="round" stroke-linejoin="round"/>
<path d="M213.827 134.7C214.932 134.7 215.827 133.805 215.827 132.7C215.827 131.595 214.932 130.7 213.827 130.7C212.723 130.7 211.827 131.595 211.827 132.7C211.827 133.805 212.723 134.7 213.827 134.7Z" fill="#72B86F"/>
<path d="M361.927 127.7C363.032 127.7 363.927 126.805 363.927 125.7C363.927 124.595 363.032 123.7 361.927 123.7C360.823 123.7 359.927 124.595 359.927 125.7C359.927 126.805 360.823 127.7 361.927 127.7Z" fill="#72B86F"/>
<defs>
<linearGradient id="paint0_linear_1778_34281" x1="277.727" y1="79.8" x2="277.727" y2="239.7" gradientUnits="userSpaceOnUse">
<stop stop-color="#279BE8"/>
<stop offset="1" stop-color="#875AE0"/>
</linearGradient>
</defs>
</svg>
