<svg width="559" height="320" viewBox="0 0 559 320" fill="none" xmlns="http://www.w3.org/2000/svg">
<path d="M365.144 90.7C365.144 90.7 362.944 97.5 362.144 99.7C361.144 102.7 363.144 103.7 365.144 103.7H367.144M397.144 89.7C391.144 89.7 387.144 85.7 383.144 81.7C379.144 77.7 375.144 73.7 368.144 73.7C360.944 73.7 355.144 79.5 355.144 86.7V106.7C355.144 115 361.844 121.7 370.144 121.7C386.144 121.7 399.144 106.7 399.144 98.7C399.144 96.5 397.344 94.7 395.144 94.7C392.944 94.7 391.144 96.5 391.144 98.7V120.7C391.144 125.1 394.744 128.7 399.144 128.7M351.144 78.7C351.144 69.9 358.344 62.7 367.144 62.7C372.144 62.7 377.144 62.7 377.144 62.7C392.644 62.7 405.144 75.2 405.144 90.7V95.7C405.144 101.7 409.144 103.7 411.144 105.7C413.144 107.7 417.144 110.7 417.144 116.7C417.144 122.7 413.144 126.7 413.144 126.7M410.244 174.1C417.944 170.1 423.244 162.1 423.244 152.8C423.244 139.5 412.544 128.8 399.244 128.8M201.144 55.7C201.144 55.7 198.944 62.5 198.144 64.7C197.144 67.7 199.144 68.7 201.144 68.7H203.144M204.144 40.7C211.144 40.7 215.144 44.7 219.144 48.7C223.144 52.7 227.144 56.7 234.144 56.7M208.144 34.7C215.144 34.7 219.144 38.7 223.144 42.7C227.144 46.7 231.144 50.7 238.144 50.7M212.144 28.7C219.144 28.7 223.144 32.7 227.144 36.7C231.144 40.7 235.144 44.7 242.144 44.7M186.144 188.7C182.744 188.7 180.044 185.9 180.144 182.5C180.244 179.2 183.144 176.7 186.344 176.7M205.144 160.7H195.344C193.844 160.7 192.844 162.3 193.544 163.6L196.444 169.4C196.844 170.2 196.644 171.1 196.044 171.7L193.344 174.4C192.544 175.2 192.044 176.4 192.144 177.6C193.144 187.2 201.244 194.7 211.044 194.7H223.044M326.144 168.7H374.344C400.644 168.7 422.644 189.6 423.144 215.9C423.544 242.8 401.944 264.7 375.144 264.7H369.144C368.044 264.7 367.144 263.8 367.144 262.7V244.7C367.144 243.6 366.244 242.7 365.144 242.7H353.144C352.044 242.7 351.144 243.6 351.144 244.7V262.7C351.144 263.8 350.244 264.7 349.144 264.7H311.144C310.044 264.7 309.144 263.8 309.144 262.7V252.7C309.144 251.6 310.044 250.7 311.144 250.7H331.144C337.744 250.7 343.144 245.3 343.144 238.7V196.7C343.144 190.1 337.744 184.7 331.144 184.7H267.144C260.544 184.7 255.144 190.1 255.144 196.7V238.7C255.144 245.3 260.544 250.7 267.144 250.7H287.144C288.244 250.7 289.144 251.6 289.144 252.7V262.7C289.144 263.8 288.244 264.7 287.144 264.7H247.144M247.144 264.7L229.744 230C225.644 221.9 217.344 216.7 208.244 216.7H200.544C197.544 216.7 195.044 214.2 195.044 211.2C195.044 208.2 197.544 205.7 200.544 205.7H206.144C211.144 205.7 215.044 201.5 215.044 196.5V188.7C215.044 187.6 215.944 186.7 217.044 186.7H219.044C221.044 186.7 224.044 185.7 222.044 179.7L219.044 170.7C214.944 158.5 207.044 152.7 195.044 152.7C181.744 152.7 171.044 163.4 171.044 176.7C171.044 186.7 175.044 188.7 175.044 200.7C175.044 209.5 167.844 216.7 159.044 216.7C150.244 216.7 143.044 209.5 143.044 200.7V144.7C143.044 118.2 164.544 96.7 191.044 96.7H209.044C211.244 96.7 213.044 94.8999 213.044 92.6999C213.044 90.4999 211.244 88.7 209.044 88.7H206.044C197.744 88.7 191.044 82 191.044 73.7V53.7C191.044 46.5 196.844 40.7 204.044 40.7M247.144 264.7C250.844 272.1 246.144 277.7 241.144 277.7C238.344 277.7 236.144 275.5 236.144 272.7C236.144 268.7 240.144 264.7 247.144 264.7ZM301.144 168.7H311.144M301.144 168.7C304.444 168.7 307.144 166 307.144 162.7V154.7C307.144 151.4 304.444 148.7 301.144 148.7H295.144C292.944 148.7 291.144 150.5 291.144 152.7V164.7C291.144 166.9 292.944 168.7 295.144 168.7H301.144ZM371.144 128.7C347.144 128.7 343.144 156.7 319.144 156.7M319.144 156.7V132.7C319.144 130.5 317.344 128.7 315.144 128.7H301.144C298.944 128.7 297.144 130.5 297.144 132.7V148.7M319.144 156.7V164.7C319.144 166.9 317.344 168.7 315.144 168.7H310.144M261.144 128.7L245.144 80.7C242.144 72.7 233.144 72.7 233.144 72.7H227.144C223.844 72.7 221.144 75.4 221.144 78.7V82.7C221.144 88.2 225.644 92.6999 231.144 92.6999C232.944 92.6999 234.444 93.8999 234.844 95.5999L237.144 104.7L246.544 142.5C248.044 148.5 253.444 152.7 259.644 152.7C267.044 152.7 273.144 146.7 273.144 139.2V110.7C273.144 103 266.844 96.7 259.144 96.7M239.144 73.7V65.7C239.144 63.5 237.344 61.7 235.144 61.7H229.144C226.944 61.7 225.144 63.5 225.144 65.7V72.7M354.144 242.7V236.7M359.144 242.7V231.7M364.144 242.7L367.144 236.7M231.144 194.7C231.144 196.909 229.353 198.7 227.144 198.7C224.935 198.7 223.144 196.909 223.144 194.7C223.144 192.491 224.935 190.7 227.144 190.7C229.353 190.7 231.144 192.491 231.144 194.7ZM284.744 86.5C274.044 75.9 273.944 59.8 281.444 49.4C293.144 33.2 316.544 32.6 329.144 47.5C340.544 61 337.744 81.2 323.244 91.4C316.544 96.1 311.144 95.6 308.144 98.6C306.444 100.3 305.744 102.7 306.244 104.9C306.544 106.5 304.944 107.8 303.544 107.2C302.144 106.6 300.944 105.7 299.744 104.2C295.444 99.2999 294.844 91.9999 298.844 86.7999C301.144 83.8999 303.344 83.8 304.644 85.1C305.844 86.3 305.944 88.1 303.944 90C300.344 93.6 291.844 93.6 284.744 86.5Z" stroke="url(#paint0_linear_1778_34404)" stroke-width="2.5" stroke-miterlimit="10" stroke-linecap="round" stroke-linejoin="round"/>
<path d="M375.145 94.6999C376.249 94.6999 377.145 93.8045 377.145 92.6999C377.145 91.5954 376.249 90.7 375.145 90.7C374.04 90.7 373.145 91.5954 373.145 92.6999C373.145 93.8045 374.04 94.6999 375.145 94.6999Z" fill="#6DB676"/>
<path d="M211.145 59.7C212.249 59.7 213.145 58.8045 213.145 57.7C213.145 56.5954 212.249 55.7 211.145 55.7C210.04 55.7 209.145 56.5954 209.145 57.7C209.145 58.8045 210.04 59.7 211.145 59.7Z" fill="#6DB676"/>
<path d="M210.145 175.7C211.249 175.7 212.145 174.805 212.145 173.7C212.145 172.595 211.249 171.7 210.145 171.7C209.04 171.7 208.145 172.595 208.145 173.7C208.145 174.805 209.04 175.7 210.145 175.7Z" fill="#6DB676"/>
<path d="M297.145 68.5999C298.249 68.5999 299.145 67.7044 299.145 66.5999C299.145 65.4953 298.249 64.5999 297.145 64.5999C296.04 64.5999 295.145 65.4953 295.145 66.5999C295.145 67.7044 296.04 68.5999 297.145 68.5999Z" fill="#6DB676"/>
<path d="M305.145 68.5999C306.249 68.5999 307.145 67.7044 307.145 66.5999C307.145 65.4953 306.249 64.5999 305.145 64.5999C304.04 64.5999 303.145 65.4953 303.145 66.5999C303.145 67.7044 304.04 68.5999 305.145 68.5999Z" fill="#6DB676"/>
<path d="M313.145 68.5999C314.249 68.5999 315.145 67.7044 315.145 66.5999C315.145 65.4953 314.249 64.5999 313.145 64.5999C312.04 64.5999 311.145 65.4953 311.145 66.5999C311.145 67.7044 312.04 68.5999 313.145 68.5999Z" fill="#6DB676"/>
<defs>
<linearGradient id="paint0_linear_1778_34404" x1="283.144" y1="28.7" x2="283.144" y2="277.7" gradientUnits="userSpaceOnUse">
<stop stop-color="#279BE8"/>
<stop offset="1" stop-color="#875AE0"/>
</linearGradient>
</defs>
</svg>
