<svg width="559" height="320" viewBox="0 0 559 320" fill="none" xmlns="http://www.w3.org/2000/svg">
<path d="M250.729 94.7194C250.729 94.7194 248.529 101.519 247.729 103.719C246.729 106.719 248.729 107.719 250.729 107.719H252.729M282.729 93.7194C276.729 93.7194 272.729 89.7194 268.729 85.7194C264.729 81.7194 260.729 77.7194 253.729 77.7194C246.529 77.7194 240.729 83.5194 240.729 90.7194V110.719C240.729 118.919 247.529 125.619 255.729 125.719C271.529 125.919 284.229 111.319 284.729 103.119C284.829 101.019 283.229 98.9194 281.129 98.7194C278.729 98.5194 276.729 100.319 276.729 102.719V124.719C276.729 129.119 280.329 132.719 284.729 132.719H287.829C294.229 132.719 300.329 135.119 304.929 139.519L317.329 151.419C318.129 152.119 319.329 152.119 320.129 151.419L344.729 127.719C344.729 118.519 353.429 113.519 357.629 111.619C358.829 111.019 360.329 111.319 361.329 112.319C362.629 113.619 362.629 115.819 361.129 117.119L355.729 121.819C358.629 126.719 357.729 135.419 351.229 139.519C350.929 139.719 350.729 140.019 350.729 140.319V147.719C350.729 148.819 351.629 149.719 352.729 149.719H393.729M236.729 82.7194C236.729 73.9194 243.929 66.7194 252.729 66.7194C257.729 66.7194 269.729 66.7194 269.729 66.7194C280.729 66.7194 289.729 75.7194 289.729 86.7194V93.7194M294.729 271.719H254.729C253.629 271.719 252.729 270.819 252.729 269.719V259.719C252.729 258.619 253.629 257.719 254.729 257.719H274.729C281.329 257.719 286.729 252.319 286.729 245.719V203.719C286.729 197.119 281.329 191.719 274.729 191.719H210.729C204.129 191.719 198.729 197.119 198.729 203.719V245.719C198.729 252.319 204.129 257.719 210.729 257.719H230.729C231.829 257.719 232.729 258.619 232.729 259.719V269.719C232.729 270.819 231.829 271.719 230.729 271.719H197.729C171.229 271.719 149.729 250.219 149.729 223.719C149.729 197.219 171.229 175.719 197.729 175.719H315.729M294.729 271.719L312.129 237.019C316.229 228.919 324.529 223.719 333.629 223.719H341.329C344.329 223.719 346.829 221.219 346.829 218.219C346.829 215.219 344.329 212.719 341.329 212.719H335.729C330.729 212.719 326.829 208.519 326.829 203.519V195.719C326.829 194.619 325.929 193.719 324.829 193.719H322.829C320.829 193.719 317.829 192.719 319.829 186.719L322.829 177.719C326.929 165.519 334.829 159.719 346.829 159.719C360.129 159.719 370.829 170.419 370.829 183.719C370.829 193.719 366.829 196.719 366.829 208.719M294.729 271.719C291.029 279.119 295.729 284.719 300.729 284.719C303.529 284.719 305.729 282.519 305.729 279.719C305.729 275.719 301.729 271.719 294.729 271.719ZM171.729 175.719H157.729C153.329 175.719 149.729 172.119 149.729 167.719V134.719C149.729 130.319 153.329 126.719 157.729 126.719H201.729C206.129 126.719 209.729 130.319 209.729 134.719V160.719C219.729 160.719 227.729 132.719 251.729 132.719H255.729M350.729 107.719V85.7194C350.729 84.6194 351.629 83.7194 352.729 83.7194H384.929C385.429 83.7194 385.929 83.9194 386.329 84.3194L397.129 95.1194C397.529 95.5194 397.729 96.0194 397.729 96.5194V115.719M384.729 84.7194V96.7194H396.729M355.829 195.719C359.229 195.719 361.929 192.919 361.829 189.519C361.729 186.219 358.829 183.719 355.629 183.719H352.929C351.629 183.719 350.329 183.219 349.429 182.219L347.929 180.719C346.129 178.919 345.629 176.119 346.829 173.819L348.429 170.619C349.129 169.319 348.129 167.719 346.629 167.719H336.829M366.729 208.719C366.729 217.019 373.429 223.719 381.729 223.719C393.729 223.719 409.729 207.719 409.729 179.719C409.729 162.519 402.429 145.319 387.829 129.819C386.729 128.619 386.729 126.719 387.929 125.619C389.029 124.519 390.729 124.419 391.929 125.319L397.829 129.719V115.719C404.429 115.719 409.828 121.119 409.828 127.719V135.719M205.729 83.7194C205.729 80.9194 204.429 79.7194 202.729 79.7194C200.829 79.7194 199.329 81.3194 199.829 85.0194C200.629 91.5194 206.229 96.2194 212.729 96.7194C214.629 96.8194 216.029 96.6194 217.529 96.1194C219.029 95.5194 219.229 93.5194 217.829 92.6194C215.929 91.3194 214.729 89.2194 214.729 86.8194C214.729 82.6194 218.929 79.1194 220.329 71.1194C223.329 53.7194 211.029 37.4194 193.429 35.9194C173.929 34.2194 157.929 51.1194 161.129 70.8194C163.229 83.5194 174.729 94.8194 189.729 94.8194C199.729 94.7194 205.729 88.7194 205.729 83.7194Z" stroke="url(#paint0_linear_1778_34180)" stroke-width="2.5" stroke-miterlimit="10" stroke-linecap="round" stroke-linejoin="round"/>
<path d="M260.729 98.7192C261.833 98.7192 262.729 97.8238 262.729 96.7192C262.729 95.6147 261.833 94.7192 260.729 94.7192C259.624 94.7192 258.729 95.6147 258.729 96.7192C258.729 97.8238 259.624 98.7192 260.729 98.7192Z" fill="url(#paint1_linear_1778_34180)"/>
<path d="M331.729 182.719C332.833 182.719 333.729 181.824 333.729 180.719C333.729 179.615 332.833 178.719 331.729 178.719C330.624 178.719 329.729 179.615 329.729 180.719C329.729 181.824 330.624 182.719 331.729 182.719Z" fill="url(#paint2_linear_1778_34180)"/>
<path d="M182.729 67.7192C183.833 67.7192 184.729 66.8238 184.729 65.7192C184.729 64.6147 183.833 63.7192 182.729 63.7192C181.624 63.7192 180.729 64.6147 180.729 65.7192C180.729 66.8238 181.624 67.7192 182.729 67.7192Z" fill="url(#paint3_linear_1778_34180)"/>
<path d="M190.729 67.7192C191.833 67.7192 192.729 66.8238 192.729 65.7192C192.729 64.6147 191.833 63.7192 190.729 63.7192C189.624 63.7192 188.729 64.6147 188.729 65.7192C188.729 66.8238 189.624 67.7192 190.729 67.7192Z" fill="url(#paint4_linear_1778_34180)"/>
<path d="M198.729 67.7192C199.833 67.7192 200.729 66.8238 200.729 65.7192C200.729 64.6147 199.833 63.7192 198.729 63.7192C197.624 63.7192 196.729 64.6147 196.729 65.7192C196.729 66.8238 197.624 67.7192 198.729 67.7192Z" fill="url(#paint5_linear_1778_34180)"/>
<defs>
<linearGradient id="paint0_linear_1778_34180" x1="279.779" y1="35.8013" x2="279.779" y2="284.719" gradientUnits="userSpaceOnUse">
<stop stop-color="#93C437"/>
<stop offset="1" stop-color="#279BE8"/>
</linearGradient>
<linearGradient id="paint1_linear_1778_34180" x1="257.229" y1="63.7192" x2="257.229" y2="182.719" gradientUnits="userSpaceOnUse">
<stop stop-color="#93C437"/>
<stop offset="1" stop-color="#279BE8"/>
</linearGradient>
<linearGradient id="paint2_linear_1778_34180" x1="257.229" y1="63.7192" x2="257.229" y2="182.719" gradientUnits="userSpaceOnUse">
<stop stop-color="#93C437"/>
<stop offset="1" stop-color="#279BE8"/>
</linearGradient>
<linearGradient id="paint3_linear_1778_34180" x1="257.229" y1="63.7192" x2="257.229" y2="182.719" gradientUnits="userSpaceOnUse">
<stop stop-color="#93C437"/>
<stop offset="1" stop-color="#279BE8"/>
</linearGradient>
<linearGradient id="paint4_linear_1778_34180" x1="257.229" y1="63.7192" x2="257.229" y2="182.719" gradientUnits="userSpaceOnUse">
<stop stop-color="#93C437"/>
<stop offset="1" stop-color="#279BE8"/>
</linearGradient>
<linearGradient id="paint5_linear_1778_34180" x1="257.229" y1="63.7192" x2="257.229" y2="182.719" gradientUnits="userSpaceOnUse">
<stop stop-color="#93C437"/>
<stop offset="1" stop-color="#279BE8"/>
</linearGradient>
</defs>
</svg>
