<svg width="234" height="40" viewBox="0 0 234 40" fill="none" xmlns="http://www.w3.org/2000/svg">
<rect width="234" height="40" rx="20" fill="white" fill-opacity="0.95"/>
<path d="M27.1619 18.1477H25.3892C25.321 17.7689 25.1941 17.4356 25.0085 17.1477C24.8229 16.8598 24.5956 16.6155 24.3267 16.4148C24.0578 16.214 23.7566 16.0625 23.4233 15.9602C23.0938 15.858 22.7434 15.8068 22.3722 15.8068C21.7017 15.8068 21.1013 15.9754 20.571 16.3125C20.0445 16.6496 19.6278 17.1439 19.321 17.7955C19.018 18.447 18.8665 19.2424 18.8665 20.1818C18.8665 21.1288 19.018 21.928 19.321 22.5795C19.6278 23.2311 20.0464 23.7235 20.5767 24.0568C21.107 24.3902 21.7036 24.5568 22.3665 24.5568C22.7339 24.5568 23.0824 24.5076 23.4119 24.4091C23.7453 24.3068 24.0464 24.1572 24.3153 23.9602C24.5843 23.7633 24.8116 23.5227 24.9972 23.2386C25.1866 22.9508 25.3172 22.6212 25.3892 22.25L27.1619 22.2557C27.0672 22.8277 26.8835 23.3542 26.6108 23.8352C26.3419 24.3125 25.9953 24.7254 25.571 25.0739C25.1506 25.4186 24.6695 25.6856 24.1278 25.875C23.5862 26.0644 22.9953 26.1591 22.3551 26.1591C21.3475 26.1591 20.4498 25.9205 19.6619 25.4432C18.8741 24.9621 18.2528 24.2746 17.7983 23.3807C17.3475 22.4867 17.1222 21.4205 17.1222 20.1818C17.1222 18.9394 17.3494 17.8731 17.804 16.983C18.2585 16.089 18.8797 15.4034 19.6676 14.9261C20.4555 14.4451 21.3513 14.2045 22.3551 14.2045C22.9725 14.2045 23.5483 14.2936 24.0824 14.4716C24.6203 14.6458 25.1032 14.9034 25.5312 15.2443C25.9593 15.5814 26.3134 15.9943 26.5938 16.483C26.8741 16.9678 27.0634 17.5227 27.1619 18.1477ZM30.8253 20.8182V26H29.1264V14.3636H30.8026V18.6932H30.9105C31.1151 18.2235 31.4276 17.8504 31.848 17.5739C32.2685 17.2973 32.8177 17.1591 33.4957 17.1591C34.0942 17.1591 34.617 17.2822 35.0639 17.5284C35.5147 17.7746 35.8632 18.142 36.1094 18.6307C36.3594 19.1155 36.4844 19.7216 36.4844 20.4489V26H34.7855V20.6534C34.7855 20.0133 34.6207 19.517 34.2912 19.1648C33.9616 18.8087 33.5033 18.6307 32.9162 18.6307C32.5147 18.6307 32.1548 18.7159 31.8366 18.8864C31.5223 19.0568 31.2741 19.3068 31.0923 19.6364C30.9143 19.9621 30.8253 20.3561 30.8253 20.8182ZM42.5128 26.1761C41.6529 26.1761 40.9124 25.9924 40.2912 25.625C39.6738 25.2538 39.1965 24.733 38.8594 24.0625C38.526 23.3883 38.3594 22.5985 38.3594 21.6932C38.3594 20.7992 38.526 20.0114 38.8594 19.3295C39.1965 18.6477 39.6662 18.1155 40.2685 17.733C40.8745 17.3504 41.5829 17.1591 42.3935 17.1591C42.8859 17.1591 43.3632 17.2405 43.8253 17.4034C44.2874 17.5663 44.7022 17.822 45.0696 18.1705C45.437 18.5189 45.7268 18.9716 45.9389 19.5284C46.151 20.0814 46.2571 20.7538 46.2571 21.5455V22.1477H39.3196V20.875H44.5923C44.5923 20.428 44.5014 20.0322 44.3196 19.6875C44.1378 19.339 43.8821 19.0644 43.5526 18.8636C43.2268 18.6629 42.8442 18.5625 42.4048 18.5625C41.9276 18.5625 41.5109 18.6799 41.1548 18.9148C40.8026 19.1458 40.5298 19.4489 40.3366 19.8239C40.1473 20.1951 40.0526 20.5985 40.0526 21.0341V22.0284C40.0526 22.6117 40.1548 23.108 40.3594 23.517C40.5677 23.9261 40.8575 24.2386 41.2287 24.4545C41.5999 24.6667 42.0336 24.7727 42.5298 24.7727C42.8518 24.7727 43.1454 24.7273 43.4105 24.6364C43.6757 24.5417 43.9048 24.4015 44.098 24.2159C44.2912 24.0303 44.4389 23.8011 44.5412 23.5284L46.1491 23.8182C46.0204 24.2917 45.7893 24.7064 45.456 25.0625C45.1264 25.4148 44.7116 25.6894 44.2116 25.8864C43.7154 26.0795 43.1491 26.1761 42.5128 26.1761ZM51.8182 26.1761C50.9735 26.1761 50.2462 25.9848 49.6364 25.6023C49.0303 25.2159 48.5644 24.6837 48.2386 24.0057C47.9129 23.3277 47.75 22.5511 47.75 21.6761C47.75 20.7898 47.9167 20.0076 48.25 19.3295C48.5833 18.6477 49.053 18.1155 49.6591 17.733C50.2652 17.3504 50.9792 17.1591 51.8011 17.1591C52.464 17.1591 53.0549 17.2822 53.5739 17.5284C54.0928 17.7708 54.5114 18.1117 54.8295 18.5511C55.1515 18.9905 55.3428 19.5038 55.4034 20.0909H53.75C53.6591 19.6818 53.4508 19.3295 53.125 19.0341C52.803 18.7386 52.3712 18.5909 51.8295 18.5909C51.3561 18.5909 50.9413 18.7159 50.5852 18.9659C50.233 19.2121 49.9583 19.5644 49.7614 20.0227C49.5644 20.4773 49.4659 21.0152 49.4659 21.6364C49.4659 22.2727 49.5625 22.822 49.7557 23.2841C49.9489 23.7462 50.2216 24.1042 50.5739 24.358C50.9299 24.6117 51.3485 24.7386 51.8295 24.7386C52.1515 24.7386 52.4432 24.6799 52.7045 24.5625C52.9697 24.4413 53.1913 24.2689 53.3693 24.0455C53.5511 23.822 53.678 23.553 53.75 23.2386H55.4034C55.3428 23.803 55.1591 24.3068 54.8523 24.75C54.5455 25.1932 54.1345 25.5417 53.6193 25.7955C53.108 26.0492 52.5076 26.1761 51.8182 26.1761ZM58.7827 23.0398L58.7713 20.9659H59.0668L62.544 17.2727H64.5781L60.6122 21.4773H60.3452L58.7827 23.0398ZM57.2202 26V14.3636H58.919V26H57.2202ZM62.7315 26L59.6065 21.8523L60.777 20.6648L64.8168 26H62.7315ZM74.0369 26.1761C73.2188 26.1761 72.5047 25.9886 71.8949 25.6136C71.285 25.2386 70.8116 24.714 70.4744 24.0398C70.1373 23.3655 69.9688 22.5777 69.9688 21.6761C69.9688 20.7708 70.1373 19.9792 70.4744 19.3011C70.8116 18.6231 71.285 18.0966 71.8949 17.7216C72.5047 17.3466 73.2188 17.1591 74.0369 17.1591C74.8551 17.1591 75.5691 17.3466 76.179 17.7216C76.7888 18.0966 77.2623 18.6231 77.5994 19.3011C77.9366 19.9792 78.1051 20.7708 78.1051 21.6761C78.1051 22.5777 77.9366 23.3655 77.5994 24.0398C77.2623 24.714 76.7888 25.2386 76.179 25.6136C75.5691 25.9886 74.8551 26.1761 74.0369 26.1761ZM74.0426 24.75C74.5729 24.75 75.0123 24.6098 75.3608 24.3295C75.7093 24.0492 75.9669 23.6761 76.1335 23.2102C76.304 22.7443 76.3892 22.2311 76.3892 21.6705C76.3892 21.1136 76.304 20.6023 76.1335 20.1364C75.9669 19.6667 75.7093 19.2898 75.3608 19.0057C75.0123 18.7216 74.5729 18.5795 74.0426 18.5795C73.5085 18.5795 73.0653 18.7216 72.7131 19.0057C72.3646 19.2898 72.1051 19.6667 71.9347 20.1364C71.768 20.6023 71.6847 21.1136 71.6847 21.6705C71.6847 22.2311 71.768 22.7443 71.9347 23.2102C72.1051 23.6761 72.3646 24.0492 72.7131 24.3295C73.0653 24.6098 73.5085 24.75 74.0426 24.75ZM85.5298 22.3807V17.2727H87.2344V26H85.5639V24.4886H85.473C85.2723 24.9545 84.9503 25.3428 84.5071 25.6534C84.0677 25.9602 83.5204 26.1136 82.8651 26.1136C82.3045 26.1136 81.8082 25.9905 81.3764 25.7443C80.9484 25.4943 80.6113 25.125 80.3651 24.6364C80.1226 24.1477 80.0014 23.5436 80.0014 22.8239V17.2727H81.7003V22.6193C81.7003 23.214 81.8651 23.6875 82.1946 24.0398C82.5241 24.392 82.9522 24.5682 83.4787 24.5682C83.7969 24.5682 84.1132 24.4886 84.4276 24.3295C84.7457 24.1705 85.009 23.9299 85.2173 23.608C85.4295 23.286 85.5336 22.8769 85.5298 22.3807ZM93.5909 17.2727V18.6364H88.8239V17.2727H93.5909ZM90.1023 15.1818H91.8011V23.4375C91.8011 23.767 91.8504 24.0152 91.9489 24.1818C92.0473 24.3447 92.1742 24.4564 92.3295 24.517C92.4886 24.5739 92.661 24.6023 92.8466 24.6023C92.983 24.6023 93.1023 24.5928 93.2045 24.5739C93.3068 24.5549 93.3864 24.5398 93.4432 24.5284L93.75 25.9318C93.6515 25.9697 93.5114 26.0076 93.3295 26.0455C93.1477 26.0871 92.9205 26.1098 92.6477 26.1136C92.2008 26.1212 91.7841 26.0417 91.3977 25.875C91.0114 25.7083 90.6989 25.4508 90.4602 25.1023C90.2216 24.7538 90.1023 24.3163 90.1023 23.7898V15.1818ZM103.778 17.2727V18.6364H99.0114V17.2727H103.778ZM100.29 15.1818H101.989V23.4375C101.989 23.767 102.038 24.0152 102.136 24.1818C102.235 24.3447 102.362 24.4564 102.517 24.517C102.676 24.5739 102.848 24.6023 103.034 24.6023C103.17 24.6023 103.29 24.5928 103.392 24.5739C103.494 24.5549 103.574 24.5398 103.631 24.5284L103.938 25.9318C103.839 25.9697 103.699 26.0076 103.517 26.0455C103.335 26.0871 103.108 26.1098 102.835 26.1136C102.388 26.1212 101.972 26.0417 101.585 25.875C101.199 25.7083 100.886 25.4508 100.648 25.1023C100.409 24.7538 100.29 24.3163 100.29 23.7898V15.1818ZM107.544 20.8182V26H105.845V14.3636H107.521V18.6932H107.629C107.834 18.2235 108.146 17.8504 108.567 17.5739C108.987 17.2973 109.536 17.1591 110.214 17.1591C110.813 17.1591 111.336 17.2822 111.783 17.5284C112.233 17.7746 112.582 18.142 112.828 18.6307C113.078 19.1155 113.203 19.7216 113.203 20.4489V26H111.504V20.6534C111.504 20.0133 111.339 19.517 111.01 19.1648C110.68 18.8087 110.222 18.6307 109.635 18.6307C109.233 18.6307 108.874 18.7159 108.555 18.8864C108.241 19.0568 107.993 19.3068 107.811 19.6364C107.633 19.9621 107.544 20.3561 107.544 20.8182ZM119.232 26.1761C118.372 26.1761 117.631 25.9924 117.01 25.625C116.393 25.2538 115.915 24.733 115.578 24.0625C115.245 23.3883 115.078 22.5985 115.078 21.6932C115.078 20.7992 115.245 20.0114 115.578 19.3295C115.915 18.6477 116.385 18.1155 116.987 17.733C117.593 17.3504 118.302 17.1591 119.112 17.1591C119.605 17.1591 120.082 17.2405 120.544 17.4034C121.006 17.5663 121.421 17.822 121.788 18.1705C122.156 18.5189 122.446 18.9716 122.658 19.5284C122.87 20.0814 122.976 20.7538 122.976 21.5455V22.1477H116.038V20.875H121.311C121.311 20.428 121.22 20.0322 121.038 19.6875C120.857 19.339 120.601 19.0644 120.271 18.8636C119.946 18.6629 119.563 18.5625 119.124 18.5625C118.646 18.5625 118.23 18.6799 117.874 18.9148C117.521 19.1458 117.249 19.4489 117.055 19.8239C116.866 20.1951 116.771 20.5985 116.771 21.0341V22.0284C116.771 22.6117 116.874 23.108 117.078 23.517C117.286 23.9261 117.576 24.2386 117.947 24.4545C118.319 24.6667 118.752 24.7727 119.249 24.7727C119.571 24.7727 119.864 24.7273 120.129 24.6364C120.394 24.5417 120.624 24.4015 120.817 24.2159C121.01 24.0303 121.158 23.8011 121.26 23.5284L122.868 23.8182C122.739 24.2917 122.508 24.7064 122.175 25.0625C121.845 25.4148 121.43 25.6894 120.93 25.8864C120.434 26.0795 119.868 26.1761 119.232 26.1761ZM130.214 26H128.351L132.538 14.3636H134.567L138.754 26H136.891L133.601 16.4773H133.51L130.214 26ZM130.527 21.4432H136.572V22.9205H130.527V21.4432ZM143.834 26.1761C142.989 26.1761 142.262 25.9848 141.652 25.6023C141.046 25.2159 140.58 24.6837 140.254 24.0057C139.929 23.3277 139.766 22.5511 139.766 21.6761C139.766 20.7898 139.932 20.0076 140.266 19.3295C140.599 18.6477 141.069 18.1155 141.675 17.733C142.281 17.3504 142.995 17.1591 143.817 17.1591C144.48 17.1591 145.071 17.2822 145.589 17.5284C146.108 17.7708 146.527 18.1117 146.845 18.5511C147.167 18.9905 147.358 19.5038 147.419 20.0909H145.766C145.675 19.6818 145.466 19.3295 145.141 19.0341C144.819 18.7386 144.387 18.5909 143.845 18.5909C143.372 18.5909 142.957 18.7159 142.601 18.9659C142.249 19.2121 141.974 19.5644 141.777 20.0227C141.58 20.4773 141.482 21.0152 141.482 21.6364C141.482 22.2727 141.578 22.822 141.771 23.2841C141.964 23.7462 142.237 24.1042 142.589 24.358C142.946 24.6117 143.364 24.7386 143.845 24.7386C144.167 24.7386 144.459 24.6799 144.72 24.5625C144.985 24.4413 145.207 24.2689 145.385 24.0455C145.567 23.822 145.694 23.553 145.766 23.2386H147.419C147.358 23.803 147.175 24.3068 146.868 24.75C146.561 25.1932 146.15 25.5417 145.635 25.7955C145.124 26.0492 144.523 26.1761 143.834 26.1761ZM152.912 26.1761C152.067 26.1761 151.34 25.9848 150.73 25.6023C150.124 25.2159 149.658 24.6837 149.332 24.0057C149.007 23.3277 148.844 22.5511 148.844 21.6761C148.844 20.7898 149.01 20.0076 149.344 19.3295C149.677 18.6477 150.147 18.1155 150.753 17.733C151.359 17.3504 152.073 17.1591 152.895 17.1591C153.558 17.1591 154.149 17.2822 154.668 17.5284C155.187 17.7708 155.605 18.1117 155.923 18.5511C156.245 18.9905 156.437 19.5038 156.497 20.0909H154.844C154.753 19.6818 154.545 19.3295 154.219 19.0341C153.897 18.7386 153.465 18.5909 152.923 18.5909C152.45 18.5909 152.035 18.7159 151.679 18.9659C151.327 19.2121 151.052 19.5644 150.855 20.0227C150.658 20.4773 150.56 21.0152 150.56 21.6364C150.56 22.2727 150.656 22.822 150.849 23.2841C151.043 23.7462 151.315 24.1042 151.668 24.358C152.024 24.6117 152.442 24.7386 152.923 24.7386C153.245 24.7386 153.537 24.6799 153.798 24.5625C154.063 24.4413 154.285 24.2689 154.463 24.0455C154.645 23.822 154.772 23.553 154.844 23.2386H156.497C156.437 23.803 156.253 24.3068 155.946 24.75C155.639 25.1932 155.228 25.5417 154.713 25.7955C154.202 26.0492 153.601 26.1761 152.912 26.1761ZM162.075 26.1761C161.215 26.1761 160.475 25.9924 159.854 25.625C159.236 25.2538 158.759 24.733 158.422 24.0625C158.089 23.3883 157.922 22.5985 157.922 21.6932C157.922 20.7992 158.089 20.0114 158.422 19.3295C158.759 18.6477 159.229 18.1155 159.831 17.733C160.437 17.3504 161.145 17.1591 161.956 17.1591C162.448 17.1591 162.926 17.2405 163.388 17.4034C163.85 17.5663 164.265 17.822 164.632 18.1705C165 18.5189 165.289 18.9716 165.501 19.5284C165.714 20.0814 165.82 20.7538 165.82 21.5455V22.1477H158.882V20.875H164.155C164.155 20.428 164.064 20.0322 163.882 19.6875C163.7 19.339 163.445 19.0644 163.115 18.8636C162.789 18.6629 162.407 18.5625 161.967 18.5625C161.49 18.5625 161.073 18.6799 160.717 18.9148C160.365 19.1458 160.092 19.4489 159.899 19.8239C159.71 20.1951 159.615 20.5985 159.615 21.0341V22.0284C159.615 22.6117 159.717 23.108 159.922 23.517C160.13 23.9261 160.42 24.2386 160.791 24.4545C161.162 24.6667 161.596 24.7727 162.092 24.7727C162.414 24.7727 162.708 24.7273 162.973 24.6364C163.238 24.5417 163.467 24.4015 163.661 24.2159C163.854 24.0303 164.001 23.8011 164.104 23.5284L165.712 23.8182C165.583 24.2917 165.352 24.7064 165.018 25.0625C164.689 25.4148 164.274 25.6894 163.774 25.8864C163.278 26.0795 162.712 26.1761 162.075 26.1761ZM174.244 19.4034L172.705 19.6761C172.64 19.4792 172.538 19.2917 172.398 19.1136C172.261 18.9356 172.076 18.7898 171.841 18.6761C171.606 18.5625 171.313 18.5057 170.96 18.5057C170.479 18.5057 170.078 18.6136 169.756 18.8295C169.434 19.0417 169.273 19.3163 169.273 19.6534C169.273 19.9451 169.381 20.1799 169.597 20.358C169.813 20.536 170.161 20.6818 170.642 20.7955L172.028 21.1136C172.831 21.2992 173.43 21.5852 173.824 21.9716C174.218 22.358 174.415 22.8598 174.415 23.4773C174.415 24 174.263 24.4659 173.96 24.875C173.661 25.2803 173.242 25.5985 172.705 25.8295C172.17 26.0606 171.551 26.1761 170.847 26.1761C169.869 26.1761 169.072 25.9678 168.455 25.5511C167.837 25.1307 167.458 24.5341 167.318 23.7614L168.96 23.5114C169.063 23.9394 169.273 24.2633 169.591 24.483C169.909 24.6989 170.324 24.8068 170.835 24.8068C171.392 24.8068 171.837 24.6913 172.17 24.4602C172.504 24.2254 172.67 23.9394 172.67 23.6023C172.67 23.3295 172.568 23.1004 172.364 22.9148C172.163 22.7292 171.854 22.589 171.438 22.4943L169.96 22.1705C169.146 21.9848 168.544 21.6894 168.153 21.2841C167.767 20.8788 167.574 20.3655 167.574 19.7443C167.574 19.2292 167.718 18.7784 168.006 18.392C168.294 18.0057 168.691 17.7045 169.199 17.4886C169.706 17.2689 170.288 17.1591 170.943 17.1591C171.886 17.1591 172.629 17.3636 173.17 17.7727C173.712 18.178 174.07 18.7216 174.244 19.4034ZM182.822 19.4034L181.283 19.6761C181.218 19.4792 181.116 19.2917 180.976 19.1136C180.839 18.9356 180.654 18.7898 180.419 18.6761C180.184 18.5625 179.891 18.5057 179.538 18.5057C179.057 18.5057 178.656 18.6136 178.334 18.8295C178.012 19.0417 177.851 19.3163 177.851 19.6534C177.851 19.9451 177.959 20.1799 178.175 20.358C178.391 20.536 178.739 20.6818 179.22 20.7955L180.607 21.1136C181.41 21.2992 182.008 21.5852 182.402 21.9716C182.796 22.358 182.993 22.8598 182.993 23.4773C182.993 24 182.841 24.4659 182.538 24.875C182.239 25.2803 181.821 25.5985 181.283 25.8295C180.749 26.0606 180.129 26.1761 179.425 26.1761C178.447 26.1761 177.65 25.9678 177.033 25.5511C176.415 25.1307 176.036 24.5341 175.896 23.7614L177.538 23.5114C177.641 23.9394 177.851 24.2633 178.169 24.483C178.487 24.6989 178.902 24.8068 179.413 24.8068C179.97 24.8068 180.415 24.6913 180.749 24.4602C181.082 24.2254 181.249 23.9394 181.249 23.6023C181.249 23.3295 181.146 23.1004 180.942 22.9148C180.741 22.7292 180.432 22.589 180.016 22.4943L178.538 22.1705C177.724 21.9848 177.122 21.6894 176.732 21.2841C176.345 20.8788 176.152 20.3655 176.152 19.7443C176.152 19.2292 176.296 18.7784 176.584 18.392C176.872 18.0057 177.269 17.7045 177.777 17.4886C178.285 17.2689 178.866 17.1591 179.521 17.1591C180.464 17.1591 181.207 17.3636 181.749 17.7727C182.29 18.178 182.648 18.7216 182.822 19.4034ZM184.861 26V17.2727H186.56V26H184.861ZM185.719 15.9261C185.423 15.9261 185.17 15.8277 184.957 15.6307C184.749 15.4299 184.645 15.1913 184.645 14.9148C184.645 14.6345 184.749 14.3958 184.957 14.1989C185.17 13.9981 185.423 13.8977 185.719 13.8977C186.014 13.8977 186.266 13.9981 186.474 14.1989C186.687 14.3958 186.793 14.6345 186.793 14.9148C186.793 15.1913 186.687 15.4299 186.474 15.6307C186.266 15.8277 186.014 15.9261 185.719 15.9261ZM190.737 26L188.169 17.2727H189.925L191.635 23.6818H191.72L193.436 17.2727H195.192L196.896 23.6534H196.982L198.68 17.2727H200.436L197.874 26H196.141L194.368 19.6989H194.237L192.464 26H190.737ZM202.048 26V17.2727H203.747V26H202.048ZM202.906 15.9261C202.611 15.9261 202.357 15.8277 202.145 15.6307C201.937 15.4299 201.832 15.1913 201.832 14.9148C201.832 14.6345 201.937 14.3958 202.145 14.1989C202.357 13.9981 202.611 13.8977 202.906 13.8977C203.202 13.8977 203.454 13.9981 203.662 14.1989C203.874 14.3958 203.98 14.6345 203.98 14.9148C203.98 15.1913 203.874 15.4299 203.662 15.6307C203.454 15.8277 203.202 15.9261 202.906 15.9261ZM207.595 23.0398L207.584 20.9659H207.879L211.357 17.2727H213.391L209.425 21.4773H209.158L207.595 23.0398ZM206.033 26V14.3636H207.732V26H206.033ZM211.544 26L208.419 21.8523L209.589 20.6648L213.629 26H211.544ZM214.939 26V17.2727H216.638V26H214.939ZM215.797 15.9261C215.501 15.9261 215.248 15.8277 215.036 15.6307C214.827 15.4299 214.723 15.1913 214.723 14.9148C214.723 14.6345 214.827 14.3958 215.036 14.1989C215.248 13.9981 215.501 13.8977 215.797 13.8977C216.092 13.8977 216.344 13.9981 216.553 14.1989C216.765 14.3958 216.871 14.6345 216.871 14.9148C216.871 15.1913 216.765 15.4299 216.553 15.6307C216.344 15.8277 216.092 15.9261 215.797 15.9261Z" fill="black" fill-opacity="0.95"/>
<a href="https://cisco.sharepoint.com/sites/Accessiwiki">
<rect fill="black" fill-opacity="0" x="0.21875" y="2.31818" width="201.561" height="19.3636"/>
</a>
</svg>
