<svg width="569" height="390" viewBox="0 0 569 390" fill="none" xmlns="http://www.w3.org/2000/svg">
<path d="M404.1 171.698V201.273H359.348M371.113 217.75L356.975 201.273L371.113 184.795M156.125 149.5H283.688C292.04 149.5 298.8 156.26 298.8 164.612V225.387C298.8 233.74 292.04 240.5 283.688 240.5H156.125M164.575 196.3V186.875M164.575 196.3L156.125 193.7M164.575 196.3L159.375 203.125M164.575 196.3L169.45 203.125M164.575 196.3L172.375 193.7M193.857 196.3V186.875M193.857 196.3L185.408 193.7M193.857 196.3L188.658 203.125M193.857 196.3L198.732 203.125M193.857 196.3L201.657 193.7M237.375 196.3V186.875M237.375 196.3L228.925 193.7M237.375 196.3L232.175 203.125M237.375 196.3L242.25 203.125M237.375 196.3L245.175 193.7M266.625 196.3V186.875M266.625 196.3L258.175 193.7M266.625 196.3L261.425 203.125M266.625 196.3L271.5 203.125M266.625 196.3L274.425 193.7M401.5 120.25V117C401.5 102.7 389.8 91 375.5 91H154.5C140.2 91 128.5 102.7 128.5 117V273C128.5 287.3 140.2 299 154.5 299H376.182C390.157 299 401.5 287.657 401.5 273.682V240.5H336.5C329.35 240.5 323.5 234.65 323.5 227.5V162.5C323.5 155.35 329.35 149.5 336.5 149.5H427.5C434.65 149.5 440.5 155.35 440.5 162.5V227.468C440.5 234.65 434.682 240.5 427.467 240.5H419.472" stroke="url(#paint0_linear_1778_32381)" stroke-width="2" stroke-miterlimit="10" stroke-linecap="round" stroke-linejoin="round"/>
<defs>
<linearGradient id="paint0_linear_1778_32381" x1="284.5" y1="91" x2="284.5" y2="299" gradientUnits="userSpaceOnUse">
<stop stop-color="#93C437"/>
<stop offset="1" stop-color="#279BE8"/>
</linearGradient>
</defs>
</svg>
