<svg width="559" height="272" viewBox="0 0 559 272" fill="none" xmlns="http://www.w3.org/2000/svg">
<path d="M284.366 151.2C288.666 149.8 293.366 146.8 297.666 142.5C306.466 133.7 309.966 122.8 305.366 118.2C300.766 113.6 289.866 117.1 281.066 125.9C272.266 134.7 268.766 145.6 273.366 150.2L291.366 168.2C295.266 172.1 303.566 170.2 311.366 164.2M222.866 90.2C222.866 96 224.966 101.8 229.466 106.2L240.466 117.2C243.366 120.1 248.666 119.8 254.366 117.1L263.966 126.7C265.366 128.1 267.566 128.1 268.966 126.7C270.366 125.3 270.366 123.1 268.966 121.7L260.466 113.2C261.966 112.1 263.366 110.9 264.766 109.5C266.166 108.1 267.366 106.7 268.466 105.2L276.966 113.7C278.366 115.1 280.566 115.1 281.966 113.7C283.366 112.3 283.366 110.1 281.966 108.7L272.366 99.0999C275.066 93.3999 275.366 88.1 272.466 85.2L261.466 74.2C252.666 65.4 238.266 65.4 229.466 74.2M295.366 96.2L307.366 84.2M285.366 92.2V76.2M299.366 106.2H315.366M251.366 140.2L239.366 152.2M261.366 144.2V160.2M247.366 130.2H231.366M314.366 127.2L323.366 136.2C327.666 140.5 324.866 150.7 317.266 159.2C316.866 159.7 316.966 160.5 317.566 160.8C322.266 163.2 339.366 173.5 339.366 194.2C339.366 206.4 332.166 216.2 323.366 216.2C314.566 216.2 307.366 206.4 307.366 194.2C307.366 172.2 335.366 147.2 367.366 176.2M229.366 74.2C227.366 76.2 226.366 79.2 226.366 81.2C226.366 84 228.166 86.2 230.366 86.2C232.566 86.2 234.366 84 234.366 81.2C234.366 67.2 223.966 56.2 211.366 56.2C200.366 56.2 191.366 70.5 191.366 88.2C191.366 126.2 231.366 138.2 231.366 176.2C231.366 193.9 222.366 208.2 211.366 208.2C197.366 208.2 191.366 192.2 191.366 192.2M297.766 129.6C296.166 131.2 293.966 131.7 292.966 130.7C291.966 129.7 292.466 127.5 294.066 125.9C295.666 124.3 297.866 123.8 298.866 124.8C299.866 125.8 299.366 128 297.766 129.6ZM284.766 142.6C283.166 144.2 280.966 144.7 279.966 143.7C278.966 142.7 279.466 140.5 281.066 138.9C282.666 137.3 284.866 136.8 285.866 137.8C286.866 138.8 286.366 141 284.766 142.6Z" stroke="url(#paint0_linear_1778_34355)" stroke-width="2.5" stroke-miterlimit="10" stroke-linecap="round" stroke-linejoin="round"/>
<defs>
<linearGradient id="paint0_linear_1778_34355" x1="279.366" y1="56.2" x2="279.366" y2="216.2" gradientUnits="userSpaceOnUse">
<stop stop-color="#279BE8"/>
<stop offset="1" stop-color="#875AE0"/>
</linearGradient>
</defs>
</svg>
