<svg width="559" height="390" viewBox="0 0 559 390" fill="none" xmlns="http://www.w3.org/2000/svg">
<path d="M158.302 182.325V172.9M158.302 182.325L149.852 179.725M158.302 182.325L153.102 189.15M158.302 182.325L163.177 189.15M158.302 182.325L166.102 179.725M187.552 182.325V172.9M187.552 182.325L179.102 179.725M187.552 182.325L182.352 189.15M187.552 182.325L192.427 189.15M187.552 182.325L195.352 179.725M216.802 182.325V172.9M216.802 182.325L208.352 179.725M216.802 182.325L211.602 189.15M216.802 182.325L221.677 189.15M216.802 182.325L224.602 179.725M263.602 182.325V172.9M263.602 182.325L255.802 179.725M263.602 182.325L258.727 189.15M263.602 182.325L268.802 189.15M263.602 182.325L272.052 179.725M292.852 182.325V172.9M292.852 182.325L285.052 179.725M292.852 182.325L287.977 189.15M292.852 182.325L298.052 189.15M292.852 182.325L301.302 179.725M322.102 182.325V172.9M322.102 182.325L314.302 179.725M322.102 182.325L317.227 189.15M322.102 182.325L327.302 189.15M322.102 182.325L330.552 179.725M369.552 182.325V172.9M369.552 182.325L361.102 179.725M369.552 182.325L364.352 189.15M369.552 182.325L374.427 189.15M369.552 182.325L377.352 179.725M398.802 182.325V172.9M398.802 182.325L390.352 179.725M398.802 182.325L393.602 189.15M398.802 182.325L403.677 189.15M398.802 182.325L406.602 179.725M428.052 182.325V172.9M428.052 182.325L419.602 179.725M428.052 182.325L422.852 189.15M428.052 182.325L432.927 189.15M428.052 182.325L435.852 179.725M406.602 218.4H448.852C456.002 218.4 461.852 212.55 461.852 205.4V156.65C461.852 149.5 456.002 143.65 448.852 143.65H136.852C129.702 143.65 123.852 149.5 123.852 156.65V205.4C123.852 212.55 129.702 218.4 136.852 218.4H377.352C380.927 218.4 383.852 221.325 383.852 224.9V273.65C383.852 287.95 372.152 299.65 357.852 299.65H123.852C109.552 299.65 97.8524 287.95 97.8524 273.65V117.65C97.8524 103.35 109.552 91.6499 123.852 91.6499H357.852C372.152 91.6499 383.852 103.35 383.852 117.65V120.9" stroke="url(#paint0_linear_1778_32337)" stroke-width="2.5" stroke-miterlimit="10" stroke-linecap="round" stroke-linejoin="round"/>
<defs>
<linearGradient id="paint0_linear_1778_32337" x1="279.852" y1="91.6499" x2="279.852" y2="299.65" gradientUnits="userSpaceOnUse">
<stop stop-color="#93C437"/>
<stop offset="1" stop-color="#279BE8"/>
</linearGradient>
</defs>
</svg>
