<svg width="32" height="32" viewBox="0 0 32 32" fill="none" xmlns="http://www.w3.org/2000/svg">
<path d="M26.6307 15.8408L23.2216 10.9961L26.6249 6.16211C26.8387 5.86319 26.966 5.5111 26.9929 5.14454C27.0197 4.77798 26.9449 4.41112 26.7769 4.08425C26.6088 3.75739 26.3539 3.48317 26.0401 3.29172C25.7264 3.10027 25.366 2.999 24.9984 2.99902L5.99841 3.00002C5.86708 2.99999 5.73703 3.02583 5.61569 3.07607C5.49435 3.12632 5.3841 3.19998 5.29123 3.29284C5.19836 3.38571 5.12471 3.49596 5.07446 3.6173C5.02422 3.73864 4.99838 3.86869 4.99841 4.00002V18L5.00036 18.0097V28C5.00036 28.2652 5.10572 28.5196 5.29326 28.7071C5.48079 28.8947 5.73515 29 6.00036 29C6.26558 29 6.51993 28.8947 6.70747 28.7071C6.89501 28.5196 7.00036 28.2652 7.00036 28V19L24.9994 18.999C25.3664 18.9989 25.7263 18.8979 26.0397 18.707C26.3531 18.516 26.608 18.2426 26.7764 17.9165C26.9448 17.5905 27.0203 17.2243 26.9946 16.8582C26.9689 16.4921 26.8431 16.1402 26.6307 15.8408ZM7.00036 17V5.00002L24.994 5.00391L21.1805 10.4199C21.0621 10.5885 20.9985 10.7895 20.9985 10.9956C20.9985 11.2016 21.0621 11.4027 21.1805 11.5713L24.9955 16.9922L24.9994 16.999L7.00036 17Z" fill="white" fill-opacity="0.95"/>
</svg>
