<svg width="192" height="192" viewBox="0 0 192 192" fill="none" xmlns="http://www.w3.org/2000/svg">
<path d="M106.2 138.48H44.4C38.88 138.48 34.38 133.98 34.32 128.4V105.6C34.32 102.06 37.2 99.18 40.8 99.12H62.4C65.46 99.12 67.92 96.66 67.92 93.6V60C67.92 56.94 65.46 54.48 62.4 54.48H14.4C11.34 54.48 8.88 56.94 8.88 60V93.6C8.88 96.66 11.34 99.12 14.4 99.12H26.4C30.78 99.12 34.32 95.58 34.32 91.2V90.06C36.18 91.26 38.4 91.92 40.62 91.98C44.4 92.04 47.46 88.98 47.52 85.26V76.8C47.52 73.74 45.06 71.28 42 71.28H40.8C37.74 71.28 35.28 73.74 35.28 76.8C35.28 77.22 35.64 77.52 36 77.52C36.36 77.52 36.72 77.16 36.72 76.8C36.72 74.58 38.52 72.78 40.8 72.72H42C44.22 72.72 46.02 74.52 46.08 76.8V85.14C46.08 88.08 43.68 90.48 40.74 90.48H40.68C38.4 90.48 36.18 89.64 34.38 88.2V81C34.38 79.62 33.24 78.42 31.8 78.42C31.68 78.42 31.5 78.42 31.38 78.48C30.18 78.72 29.28 79.8 29.28 81.06C29.34 83.82 30.48 86.4 32.4 88.38C32.58 88.56 32.7 88.68 32.88 88.86V91.2C32.88 94.74 30 97.62 26.4 97.68H14.4C12.18 97.68 10.38 95.88 10.32 93.6V60C10.32 57.78 12.12 55.98 14.4 55.92H62.4C64.62 55.92 66.42 57.72 66.48 60V93.6C66.48 95.82 64.68 97.62 62.4 97.68H40.8C36.42 97.68 32.88 101.22 32.88 105.6V128.4C32.88 134.76 38.04 139.92 44.4 139.92H106.2C106.62 139.92 106.92 139.56 106.92 139.2C106.92 138.84 106.62 138.48 106.2 138.48ZM30.72 81.06C30.72 80.58 31.08 80.1 31.56 79.98C31.62 79.98 31.68 79.98 31.74 79.98C31.98 79.98 32.22 80.04 32.4 80.22C32.64 80.4 32.76 80.7 32.76 81V86.64C31.56 85.08 30.78 83.1 30.72 81.06Z" fill="url(#paint0_linear_1781_5261)"/>
<path d="M42 83.28H41.4C40.98 83.28 40.68 83.64 40.68 84C40.68 84.36 41.04 84.72 41.4 84.72H42C42.66 84.72 43.38 84.6 43.8 84C44.22 83.4 44.16 82.56 43.92 81.9L42.72 78.3C42.6 77.88 42.18 77.7 41.76 77.82C41.34 77.94 41.16 78.36 41.28 78.78L42.48 82.38C42.66 82.92 42.66 82.98 42.6 83.1C42.48 83.28 42.12 83.28 42 83.28Z" fill="url(#paint1_linear_1781_5261)"/>
<path d="M100.8 123.12C108.6 123.12 115.08 117.24 115.86 109.56C115.86 109.44 115.92 109.32 116.04 109.26C116.16 109.2 116.28 109.14 116.46 109.2L129.78 113.64C134.46 115.2 140.34 117.12 143.4 121.08C143.64 121.38 144.12 121.44 144.48 121.2C144.78 120.96 144.84 120.48 144.6 120.12C141.24 115.86 135.18 113.82 130.26 112.2L116.94 107.76C116.4 107.58 115.74 107.64 115.26 108C114.78 108.3 114.48 108.84 114.42 109.38C113.7 116.34 107.82 121.62 100.86 121.62C94.86 121.62 89.58 117.66 87.78 111.96C87.66 111.54 87.24 111.36 86.82 111.48C86.4 111.6 86.22 112.02 86.34 112.44C88.26 118.8 94.14 123.12 100.8 123.12Z" fill="url(#paint2_linear_1781_5261)"/>
<path d="M80.94 109.02C80.34 109.2 79.68 109.44 78.96 109.68L71.34 112.2C64.2 114.6 54.48 117.84 54.48 127.74C54.48 128.16 54.84 128.46 55.2 128.46C55.56 128.46 55.92 128.1 55.92 127.74C55.92 118.86 64.74 115.92 71.76 113.58L79.38 111.06C80.1 110.82 80.7 110.64 81.36 110.4C87.12 108.54 89.52 107.76 89.52 100.74V95.28C94.32 100.26 100.74 103.92 107.94 103.92H108.06C116.4 103.8 123.12 97.02 123.12 88.68V67.56C123.12 56.64 114.42 47.52 103.74 47.22C93 46.92 83.94 55.14 83.28 65.82C83.22 66.9 84 67.8 85.08 67.92C85.14 67.92 85.14 67.92 85.2 67.92H88.74C92.28 67.92 95.16 70.8 95.22 74.4V86.04C95.22 89.28 97.86 91.92 101.1 91.92C102.48 91.92 103.74 91.02 104.1 89.64C104.76 87.42 106.8 85.92 109.14 85.92H112.74C114.18 85.92 115.2 85.5 115.8 84.66C116.52 83.64 116.52 82.2 115.86 80.1L113.46 72.9C113.34 72.48 112.92 72.3 112.5 72.42C112.08 72.54 111.9 72.96 112.02 73.38L114.42 80.58C114.96 82.14 115.02 83.22 114.6 83.76C114.3 84.18 113.7 84.36 112.74 84.36H109.14C106.14 84.36 103.56 86.34 102.66 89.16C102.48 89.88 101.82 90.36 101.1 90.36C98.64 90.36 96.72 88.38 96.72 85.98V74.4C96.72 70.02 93.18 66.48 88.8 66.48H85.26C85.02 66.48 84.78 66.3 84.78 66C85.38 56.28 93.48 48.78 103.2 48.78C103.38 48.78 103.56 48.78 103.74 48.78C113.64 49.08 121.68 57.48 121.68 67.62V88.74C121.68 96.24 115.68 102.42 108.12 102.48H108C101.7 102.48 95.34 99.36 90.12 93.72C89.94 93.54 89.76 93.3 89.58 93.12V76.8C89.58 74.4 87.66 72.42 85.2 72.42C85.08 72.42 84.9 72.42 84.78 72.42C82.5 72.72 80.82 74.7 80.88 77.04C80.94 82.08 83.64 88.38 88.08 93.6V100.8C88.08 106.74 86.52 107.22 80.94 109.02ZM82.38 77.04C82.32 75.54 83.4 74.16 84.9 73.98C85.02 73.98 85.08 73.98 85.2 73.98C85.92 73.98 86.58 74.22 87.12 74.7C87.72 75.24 88.08 76.02 88.08 76.8V91.26C84.54 86.7 82.44 81.48 82.38 77.04Z" fill="url(#paint3_linear_1781_5261)"/>
<path d="M33.6 51.72C34.02 51.72 34.32 51.36 34.32 51V49.2C34.32 43.68 38.82 39.18 44.4 39.12C44.82 39.12 45.12 38.76 45.12 38.4C45.12 37.98 44.76 37.68 44.4 37.68C38.04 37.68 32.88 42.84 32.88 49.2V51C32.82 51.42 33.18 51.72 33.6 51.72Z" fill="url(#paint4_linear_1781_5261)"/>
<path d="M87.6 39.12H132C132.9 39.12 133.62 39.84 133.68 40.8V57.6C133.68 60.66 136.14 63.12 139.2 63.12H159.6C161.34 63.12 162.72 61.68 162.72 60V55.26C162.9 55.08 163.02 54.96 163.2 54.78C165.12 52.8 166.26 50.22 166.32 47.46C166.32 46.2 165.42 45.12 164.22 44.88C162.84 44.64 161.52 45.54 161.28 46.98C161.28 47.1 161.22 47.28 161.22 47.4V54.54C159.42 55.98 157.2 56.76 154.92 56.82H154.86C151.92 56.82 149.52 54.42 149.52 51.48V43.2C149.52 40.98 151.32 39.18 153.54 39.12C155.28 39.12 156.18 40.14 157.2 41.28C158.28 42.54 159.54 43.92 161.94 43.92C162.36 43.92 162.66 43.56 162.66 43.2C162.66 42.84 162.3 42.48 161.94 42.48C160.2 42.48 159.3 41.46 158.28 40.32C157.2 39.06 155.94 37.68 153.54 37.68C150.48 37.68 148.02 40.14 148.02 43.2V51.54C148.02 55.32 151.08 58.38 154.86 58.38H154.92C157.14 58.38 159.36 57.72 161.22 56.46V60C161.22 60.9 160.5 61.62 159.54 61.68H139.14C136.92 61.68 135.12 59.88 135.06 57.6V40.8C135.06 39.06 133.62 37.68 131.94 37.68H87.54C87.12 37.68 86.82 38.04 86.82 38.4C86.88 38.82 87.18 39.12 87.6 39.12ZM162.72 47.4C162.72 47.1 162.84 46.8 163.08 46.62C163.26 46.44 163.5 46.38 163.74 46.38C164.34 46.38 164.76 46.86 164.82 47.4V47.46C164.82 49.5 164.04 51.54 162.72 53.1V47.4Z" fill="url(#paint5_linear_1781_5261)"/>
<path d="M154.32 45.24C154.44 44.82 154.26 44.4 153.84 44.28C153.42 44.16 153 44.34 152.88 44.76L151.68 48.36C151.44 49.02 151.32 49.86 151.8 50.46C152.22 51 152.94 51.18 153.6 51.18H154.2C154.62 51.18 154.92 50.82 154.92 50.46C154.92 50.1 154.56 49.74 154.2 49.74H153.6C153.48 49.74 153.06 49.74 153 49.68C152.94 49.62 152.94 49.5 153.12 48.96L154.32 45.24Z" fill="url(#paint6_linear_1781_5261)"/>
<path d="M160.26 38.88C161.34 40.14 162.6 41.52 165 41.52C165.42 41.52 165.72 41.16 165.72 40.8C165.72 40.44 165.36 40.08 165 40.08C163.26 40.08 162.36 39.06 161.34 37.92C160.26 36.66 159 35.28 156.6 35.28C156.18 35.28 155.88 35.64 155.88 36C155.88 36.36 156.24 36.72 156.6 36.72C158.34 36.72 159.24 37.74 160.26 38.88Z" fill="url(#paint7_linear_1781_5261)"/>
<path d="M175.2 124.08H169.8C169.38 124.08 169.08 124.44 169.08 124.8C169.08 125.16 169.44 125.52 169.8 125.52H175.2C178.74 125.52 181.62 128.4 181.68 132V170.4C181.68 173.94 178.8 176.82 175.2 176.88H159.6C156.06 176.88 153.18 174 153.12 170.46V162.96C155.94 160.26 157.8 157.08 157.92 154.56C158.04 152.88 156.78 151.32 155.1 151.14C153.36 150.96 151.8 152.22 151.62 153.96C151.62 154.08 151.62 154.2 151.62 154.26V162.3C148.56 165.12 144.3 167.34 139.62 167.28C135.12 167.22 131.52 163.5 131.52 159.06V154.86C132.42 155.1 133.38 155.04 134.22 154.68C133.92 155.46 133.92 156.36 134.46 157.02C135 157.74 135.9 158.04 136.8 158.04H138C138.42 158.04 138.72 157.68 138.72 157.32C138.72 156.96 138.36 156.6 138 156.6H136.8C136.38 156.6 135.96 156.54 135.72 156.24C135.54 155.94 135.6 155.58 135.72 155.22L136.92 151.62H136.86V151.56H138.48C138.9 153.9 141.12 155.52 143.52 155.1C145.86 154.68 147.48 152.46 147.06 150.06C146.64 147.66 144.42 146.1 142.02 146.52C140.22 146.82 138.78 148.26 138.48 150.06H136.86C136.44 147.72 134.22 146.1 131.82 146.52C129.48 146.94 127.86 149.16 128.28 151.56C128.46 152.7 129.12 153.66 130.02 154.32V159.18C130.02 164.52 134.28 168.84 139.62 168.9C144.12 168.96 148.38 167.04 151.68 164.4V170.58C151.68 174.96 155.22 178.5 159.6 178.5H175.2C179.58 178.5 183.12 174.96 183.12 170.58V132.18C183.12 127.62 179.58 124.08 175.2 124.08ZM142.8 147.72C144.36 147.72 145.68 148.98 145.68 150.6C145.68 152.22 144.42 153.48 142.8 153.48C141.18 153.48 139.92 152.22 139.92 150.6C139.98 149.04 141.24 147.78 142.8 147.72ZM132.6 147.72C134.16 147.72 135.48 148.98 135.48 150.6C135.48 152.22 134.22 153.48 132.6 153.48C130.98 153.48 129.72 152.22 129.72 150.6C129.78 149.04 131.04 147.78 132.6 147.72ZM153.12 154.2C153.12 153.72 153.3 153.3 153.66 153C153.96 152.7 154.38 152.58 154.74 152.58C154.8 152.58 154.86 152.58 154.92 152.58C155.82 152.76 156.42 153.54 156.42 154.44C156.3 156.12 155.1 158.52 153.12 160.74V154.2Z" fill="url(#paint8_linear_1781_5261)"/>
<path d="M150 176.88H117.6C114.06 176.88 111.18 174 111.12 170.4V132C111.12 128.46 114 125.58 117.6 125.52H160.8C165.18 125.52 168.72 121.98 168.72 117.6V64.8C168.72 63.9 169.44 63.18 170.4 63.12H172.8C175.86 63.12 178.32 60.66 178.32 57.6V33.6C178.32 30.54 175.86 28.08 172.8 28.08H139.2C136.14 28.08 133.68 30.54 133.68 33.6V34.2C133.68 34.62 134.04 34.92 134.4 34.92C134.76 34.92 135.12 34.56 135.12 34.2V33.6C135.12 31.38 136.92 29.58 139.2 29.52H172.8C175.02 29.52 176.82 31.32 176.88 33.6V57.6C176.88 59.82 175.08 61.62 172.8 61.68H170.4C168.66 61.68 167.28 63.12 167.28 64.8V117.6C167.28 121.14 164.4 124.02 160.8 124.08H117.6C113.22 124.08 109.68 127.62 109.68 132V170.4C109.68 174.78 113.22 178.32 117.6 178.32H150C150.42 178.32 150.72 177.96 150.72 177.6C150.72 177.24 150.42 176.88 150 176.88Z" fill="url(#paint9_linear_1781_5261)"/>
<path d="M161.52 151.14C161.88 151.5 162.36 151.68 162.84 151.68C163.02 151.68 163.2 151.68 163.38 151.62C168.24 150.18 171 145.08 169.56 140.22C168.12 135.36 163.02 132.6 158.16 134.04C157.74 134.16 157.32 134.34 156.9 134.52C154.26 132.42 150.96 131.28 147.54 131.28H141.54C135.18 131.28 130.02 136.44 130.02 142.8C130.02 143.88 130.92 144.72 131.94 144.72H149.94C150.36 144.72 150.66 144.36 150.66 144C150.66 143.64 150.3 143.28 149.94 143.28H131.94C131.7 143.28 131.52 143.1 131.46 142.8C131.46 137.28 135.96 132.78 141.54 132.72H147.54C155.1 132.72 161.22 138.84 161.22 146.4C161.22 147.36 161.1 148.32 160.92 149.28C160.8 149.94 161.04 150.66 161.52 151.14ZM158.22 135.6C162.18 134.16 166.56 136.26 168 140.22C168.18 140.76 168.3 141.3 168.42 141.84C168.9 145.56 166.62 149.1 163.02 150.12C162.84 150.18 162.72 150.12 162.6 150C162.48 149.88 162.42 149.7 162.48 149.58C163.5 144.54 161.94 139.26 158.22 135.6Z" fill="url(#paint10_linear_1781_5261)"/>
<path d="M36.6 63.12C41.76 63.12 46.2 66.6 47.52 71.58C47.64 72 48.06 72.24 48.42 72.12C48.84 72 49.08 71.58 48.96 71.22C47.22 64.38 40.26 60.3 33.42 62.04C26.58 63.78 22.5 70.74 24.24 77.58C24.6 78.96 25.14 80.22 25.92 81.42C26.16 81.78 26.64 81.84 26.94 81.66C27.24 81.48 27.36 80.94 27.18 80.64C23.76 75.42 25.2 68.46 30.42 65.04C32.28 63.78 34.38 63.18 36.6 63.12Z" fill="url(#paint11_linear_1781_5261)"/>
<path d="M65.4 50.52C67.98 50.52 70.44 49.8 72.6 48.36C74.22 50.28 76.56 51.48 79.14 51.66C79.38 51.66 79.62 51.66 79.8 51.66C80.64 51.66 81.48 51.54 82.32 51.24C82.98 51 83.46 50.4 83.52 49.68C83.58 48.96 83.28 48.24 82.68 47.82C81.72 47.16 81.18 46.08 81.18 44.94C81.18 43.92 81.66 42.96 82.32 41.7C83.4 39.84 84.12 37.8 84.48 35.64C85.38 30.42 84.06 25.02 80.82 20.82C77.64 16.68 72.84 14.04 67.68 13.62C57.36 12.72 48.24 20.34 47.34 30.66C47.22 32.28 47.28 33.84 47.52 35.46C48.9 44.1 56.58 50.52 65.4 50.52ZM72.9 46.2C72.54 45.48 72.3 44.7 72.18 43.86C72 43.14 72.12 42.42 72.48 41.82C72.66 41.64 72.9 41.52 73.14 41.52C74.04 41.52 74.22 42.54 74.22 43.2C74.16 44.34 73.74 45.36 72.9 46.2ZM53.34 20.7C56.94 16.8 62.22 14.76 67.5 15.24C72.3 15.6 76.68 18 79.62 21.84C82.62 25.74 83.82 30.66 82.98 35.46C82.62 37.44 81.9 39.3 80.94 41.1C80.22 42.48 79.62 43.68 79.62 45C79.62 46.62 80.46 48.18 81.78 49.08C81.96 49.2 82.02 49.38 82.02 49.56C82.02 49.74 81.9 49.86 81.78 49.92C80.94 50.22 80.1 50.34 79.2 50.22C77.1 50.1 75.12 49.08 73.74 47.46C74.94 46.38 75.66 44.82 75.72 43.2C75.72 40.86 74.34 40.08 73.2 40.08C72.54 40.08 71.88 40.38 71.4 40.86C70.98 41.34 70.5 42.3 70.68 44.1C70.8 45.18 71.16 46.26 71.76 47.22C69.9 48.48 67.68 49.14 65.4 49.08C57.3 49.08 50.4 43.26 48.96 35.34C48.06 30 49.68 24.6 53.34 20.7Z" fill="url(#paint12_linear_1781_5261)"/>
<path d="M105.6 76.8002C106.263 76.8002 106.8 76.2629 106.8 75.6002C106.8 74.9375 106.263 74.4002 105.6 74.4002C104.937 74.4002 104.4 74.9375 104.4 75.6002C104.4 76.2629 104.937 76.8002 105.6 76.8002Z" fill="#7ABB62"/>
<path d="M61.2 33.6002C61.8627 33.6002 62.4 33.0629 62.4 32.4002C62.4 31.7375 61.8627 31.2002 61.2 31.2002C60.5373 31.2002 60 31.7375 60 32.4002C60 33.0629 60.5373 33.6002 61.2 33.6002Z" fill="#7ABB62"/>
<path d="M66 33.6002C66.6627 33.6002 67.2 33.0629 67.2 32.4002C67.2 31.7375 66.6627 31.2002 66 31.2002C65.3373 31.2002 64.8 31.7375 64.8 32.4002C64.8 33.0629 65.3373 33.6002 66 33.6002Z" fill="#7ABB62"/>
<path d="M70.8 33.6002C71.4627 33.6002 72 33.0629 72 32.4002C72 31.7375 71.4627 31.2002 70.8 31.2002C70.1373 31.2002 69.6 31.7375 69.6 32.4002C69.6 33.0629 70.1373 33.6002 70.8 33.6002Z" fill="#7ABB62"/>
<defs>
<linearGradient id="paint0_linear_1781_5261" x1="96" y1="13.5479" x2="96" y2="178.5" gradientUnits="userSpaceOnUse">
<stop stop-color="#279BE8"/>
<stop offset="1" stop-color="#875AE0"/>
</linearGradient>
<linearGradient id="paint1_linear_1781_5261" x1="96" y1="13.5479" x2="96" y2="178.5" gradientUnits="userSpaceOnUse">
<stop stop-color="#279BE8"/>
<stop offset="1" stop-color="#875AE0"/>
</linearGradient>
<linearGradient id="paint2_linear_1781_5261" x1="96" y1="13.5479" x2="96" y2="178.5" gradientUnits="userSpaceOnUse">
<stop stop-color="#279BE8"/>
<stop offset="1" stop-color="#875AE0"/>
</linearGradient>
<linearGradient id="paint3_linear_1781_5261" x1="96" y1="13.5479" x2="96" y2="178.5" gradientUnits="userSpaceOnUse">
<stop stop-color="#279BE8"/>
<stop offset="1" stop-color="#875AE0"/>
</linearGradient>
<linearGradient id="paint4_linear_1781_5261" x1="96" y1="13.5479" x2="96" y2="178.5" gradientUnits="userSpaceOnUse">
<stop stop-color="#279BE8"/>
<stop offset="1" stop-color="#875AE0"/>
</linearGradient>
<linearGradient id="paint5_linear_1781_5261" x1="96" y1="13.5479" x2="96" y2="178.5" gradientUnits="userSpaceOnUse">
<stop stop-color="#279BE8"/>
<stop offset="1" stop-color="#875AE0"/>
</linearGradient>
<linearGradient id="paint6_linear_1781_5261" x1="96" y1="13.5479" x2="96" y2="178.5" gradientUnits="userSpaceOnUse">
<stop stop-color="#279BE8"/>
<stop offset="1" stop-color="#875AE0"/>
</linearGradient>
<linearGradient id="paint7_linear_1781_5261" x1="96" y1="13.5479" x2="96" y2="178.5" gradientUnits="userSpaceOnUse">
<stop stop-color="#279BE8"/>
<stop offset="1" stop-color="#875AE0"/>
</linearGradient>
<linearGradient id="paint8_linear_1781_5261" x1="96" y1="13.5479" x2="96" y2="178.5" gradientUnits="userSpaceOnUse">
<stop stop-color="#279BE8"/>
<stop offset="1" stop-color="#875AE0"/>
</linearGradient>
<linearGradient id="paint9_linear_1781_5261" x1="96" y1="13.5479" x2="96" y2="178.5" gradientUnits="userSpaceOnUse">
<stop stop-color="#279BE8"/>
<stop offset="1" stop-color="#875AE0"/>
</linearGradient>
<linearGradient id="paint10_linear_1781_5261" x1="96" y1="13.5479" x2="96" y2="178.5" gradientUnits="userSpaceOnUse">
<stop stop-color="#279BE8"/>
<stop offset="1" stop-color="#875AE0"/>
</linearGradient>
<linearGradient id="paint11_linear_1781_5261" x1="96" y1="13.5479" x2="96" y2="178.5" gradientUnits="userSpaceOnUse">
<stop stop-color="#279BE8"/>
<stop offset="1" stop-color="#875AE0"/>
</linearGradient>
<linearGradient id="paint12_linear_1781_5261" x1="96" y1="13.5479" x2="96" y2="178.5" gradientUnits="userSpaceOnUse">
<stop stop-color="#279BE8"/>
<stop offset="1" stop-color="#875AE0"/>
</linearGradient>
</defs>
</svg>
