<svg width="192" height="192" viewBox="0 0 192 192" fill="none" xmlns="http://www.w3.org/2000/svg">
<path d="M139.32 115.62V98.82C139.32 94.86 136.08 91.62 132.12 91.62H60.1199C56.1599 91.62 52.9199 94.86 52.9199 98.82V142.62M139.32 115.62H105.72M139.32 115.62C157.86 115.62 172.92 104.88 172.92 91.62C172.92 78.36 157.86 67.62 139.32 67.62C131.34 67.62 124.92 70.86 124.92 74.82C124.92 78.78 131.34 82.02 139.32 82.02C157.86 82.02 172.92 71.28 172.92 58.02C172.92 44.76 157.86 34.02 139.32 34.02C96.1199 34.02 72.1199 67.62 19.3199 67.62M143.52 146.82H147.72C148.38 146.82 148.92 147.36 148.92 148.02C148.92 151.32 146.22 154.02 142.92 154.02H49.3199C46.0199 154.02 43.3199 151.32 43.3199 148.02C43.3199 147.36 43.8599 146.82 44.5199 146.82H138.12C138.78 146.82 139.32 146.28 139.32 145.62V119.82M100.98 120.42H96.1799V110.82H100.98C103.62 110.82 105.78 112.98 105.78 115.62C105.72 118.32 103.62 120.42 100.98 120.42ZM96.1199 120.42H87.7199C87.0599 120.42 86.5199 119.88 86.5199 119.22V112.02C86.5199 111.36 87.0599 110.82 87.7199 110.82H96.1199V120.42Z" stroke="url(#paint0_linear_1781_5198)" stroke-width="1.5" stroke-miterlimit="10" stroke-linecap="round" stroke-linejoin="round"/>
<defs>
<linearGradient id="paint0_linear_1781_5198" x1="96.1199" y1="34.02" x2="96.1199" y2="154.02" gradientUnits="userSpaceOnUse">
<stop stop-color="#93C437"/>
<stop offset="1" stop-color="#279BE8"/>
</linearGradient>
</defs>
</svg>
