<svg width="1150" height="604" viewBox="0 0 1150 604" fill="none" xmlns="http://www.w3.org/2000/svg">
<rect width="1150" height="604" rx="12" fill="url(#paint0_linear_1817_41869)"/>
<path d="M91.6296 264.92H95.2696C96.8842 264.92 98.0369 265.233 98.7276 265.858C99.3249 266.399 99.6236 267.207 99.6236 268.28C99.6236 269.503 99.2222 270.385 98.4196 270.926C97.7196 271.393 96.6976 271.626 95.3536 271.626H93.9816V275H91.6296V264.92ZM95.2976 266.53H93.9816V270.016H95.3816C96.5949 270.016 97.2016 269.437 97.2016 268.28C97.2016 267.113 96.5669 266.53 95.2976 266.53ZM110.026 275H107.24L105.014 271.318H103.726V275H101.374V264.92H105.084C106.577 264.92 107.688 265.228 108.416 265.844C109.041 266.385 109.354 267.141 109.354 268.112C109.354 269.484 108.686 270.417 107.352 270.912L110.026 275ZM105.112 266.544H103.726V269.694H105.196C105.746 269.694 106.18 269.54 106.498 269.232C106.778 268.952 106.918 268.579 106.918 268.112C106.918 267.067 106.316 266.544 105.112 266.544ZM111.637 264.92H113.989V275H111.637V264.92ZM122.698 275H120.78L118.358 268.07V275H116.37V264.92H119.058L121.788 272.788L124.434 264.92H127.192V275H125.064V268.056L122.698 275ZM138.54 275H136.062L135.348 272.69H131.764L131.05 275H128.726L132.31 264.92H134.928L138.54 275ZM133.57 266.852L132.24 271.15H134.886L133.57 266.852ZM148.455 275H145.669L143.443 271.318H142.155V275H139.803V264.92H143.513C145.006 264.92 146.117 265.228 146.845 265.844C147.47 266.385 147.783 267.141 147.783 268.112C147.783 269.484 147.115 270.417 145.781 270.912L148.455 275ZM143.541 266.544H142.155V269.694H143.625C144.175 269.694 144.609 269.54 144.927 269.232C145.207 268.952 145.347 268.579 145.347 268.112C145.347 267.067 144.745 266.544 143.541 266.544ZM154.584 275H152.372V270.982L148.802 264.92H151.322L153.534 269.022L155.914 264.92H158.154L154.584 270.982V275ZM174.754 264.92H176.98L174.726 275H171.954L170.078 267.216L168.286 275H165.612L163.19 264.92H165.626L167.152 272.368L168.846 264.92H171.464L173.298 272.41L174.754 264.92ZM184.629 264.92H186.967V275H184.629V270.744H180.877V275H178.525V264.92H180.877V269.064H184.629V264.92ZM189.342 264.92H191.694V275H189.342V264.92ZM201.608 264.92V266.684H198.612V275H196.26V266.684H193.306V264.92H201.608ZM209.609 269.106V270.73H205.563V273.306H210.015V275H203.211V264.92H210.015V266.642H205.563V269.106H209.609Z" fill="white" fill-opacity="0.95"/>
<rect x="89.2764" y="188" width="40" height="32" rx="4" fill="#EDEDED"/>
<path d="M102.076 209.24C104.348 209.24 106.076 207.384 106.076 203.368C106.076 199.24 104.332 197.56 102.076 197.56C99.8204 197.56 98.0764 199.24 98.0764 203.368C98.0764 207.384 99.8044 209.24 102.076 209.24ZM102.076 207.96C100.444 207.96 99.6444 206.504 99.6444 203.368C99.6444 200.248 100.444 198.84 102.076 198.84C103.708 198.84 104.508 200.248 104.508 203.368C104.508 206.504 103.708 207.96 102.076 207.96ZM112.886 200.264C112.886 198.456 111.542 197.56 110.15 197.56C108.758 197.56 107.43 198.456 107.43 200.264C107.43 202.072 108.758 202.968 110.15 202.968C111.542 202.968 112.886 202.072 112.886 200.264ZM108.726 200.264C108.726 199.112 109.366 198.68 110.15 198.68C110.934 198.68 111.606 199.112 111.606 200.264C111.606 201.416 110.934 201.848 110.15 201.848C109.366 201.848 108.726 201.416 108.726 200.264ZM117.366 197.8H115.83L109.718 209H111.254L117.366 197.8ZM119.766 206.536C119.766 204.728 118.422 203.832 117.03 203.832C115.638 203.832 114.31 204.728 114.31 206.536C114.31 208.344 115.638 209.24 117.03 209.24C118.422 209.24 119.766 208.344 119.766 206.536ZM115.606 206.536C115.606 205.384 116.246 204.952 117.03 204.952C117.814 204.952 118.486 205.384 118.486 206.536C118.486 207.688 117.814 208.12 117.03 208.12C116.246 208.12 115.606 207.688 115.606 206.536Z" fill="black" fill-opacity="0.6"/>
<rect x="158.882" y="188" width="40" height="32" rx="4" fill="#EDEDED"/>
<path d="M167.698 206.28C167.954 207.8 169.378 209.24 171.682 209.24C174.242 209.24 175.714 207.448 175.714 205.368C175.714 202.856 174.034 201.56 172.082 201.56C171.042 201.56 170.258 201.88 169.634 202.376L169.762 199.096H175.25V197.8H168.37L168.13 203.784H169.49C170.098 203.064 170.962 202.76 171.73 202.76C173.17 202.76 174.13 203.656 174.13 205.304C174.13 206.984 173.074 207.944 171.698 207.944C170.338 207.944 169.538 207.192 169.33 206.28H167.698ZM182.492 200.264C182.492 198.456 181.148 197.56 179.756 197.56C178.364 197.56 177.036 198.456 177.036 200.264C177.036 202.072 178.364 202.968 179.756 202.968C181.148 202.968 182.492 202.072 182.492 200.264ZM178.332 200.264C178.332 199.112 178.972 198.68 179.756 198.68C180.54 198.68 181.212 199.112 181.212 200.264C181.212 201.416 180.54 201.848 179.756 201.848C178.972 201.848 178.332 201.416 178.332 200.264ZM186.972 197.8H185.436L179.324 209H180.86L186.972 197.8ZM189.372 206.536C189.372 204.728 188.028 203.832 186.636 203.832C185.244 203.832 183.916 204.728 183.916 206.536C183.916 208.344 185.244 209.24 186.636 209.24C188.028 209.24 189.372 208.344 189.372 206.536ZM185.212 206.536C185.212 205.384 185.852 204.952 186.636 204.952C187.42 204.952 188.092 205.384 188.092 206.536C188.092 207.688 187.42 208.12 186.636 208.12C185.852 208.12 185.212 207.688 185.212 206.536Z" fill="black" fill-opacity="0.6"/>
<rect x="228.487" y="188" width="40" height="32" rx="4" fill="#EDEDED"/>
<path d="M244.807 199.176V197.8H237.687V199.176H243.175L238.487 209H240.231L244.807 199.176ZM252.097 200.264C252.097 198.456 250.753 197.56 249.361 197.56C247.969 197.56 246.641 198.456 246.641 200.264C246.641 202.072 247.969 202.968 249.361 202.968C250.753 202.968 252.097 202.072 252.097 200.264ZM247.937 200.264C247.937 199.112 248.577 198.68 249.361 198.68C250.145 198.68 250.817 199.112 250.817 200.264C250.817 201.416 250.145 201.848 249.361 201.848C248.577 201.848 247.937 201.416 247.937 200.264ZM256.577 197.8H255.041L248.929 209H250.465L256.577 197.8ZM258.977 206.536C258.977 204.728 257.633 203.832 256.241 203.832C254.849 203.832 253.521 204.728 253.521 206.536C253.521 208.344 254.849 209.24 256.241 209.24C257.633 209.24 258.977 208.344 258.977 206.536ZM254.817 206.536C254.817 205.384 255.457 204.952 256.241 204.952C257.025 204.952 257.697 205.384 257.697 206.536C257.697 207.688 257.025 208.12 256.241 208.12C255.457 208.12 254.817 207.688 254.817 206.536Z" fill="black" fill-opacity="0.6"/>
<rect x="298.092" y="188" width="49" height="32" rx="4" fill="#EDEDED"/>
<path d="M312.252 209V197.8H310.748L308.22 199.112V200.696L310.732 199.4V209H312.252ZM321.846 209V197.8H320.342L317.814 199.112V200.696L320.326 199.4V209H321.846ZM331.296 200.264C331.296 198.456 329.952 197.56 328.56 197.56C327.168 197.56 325.84 198.456 325.84 200.264C325.84 202.072 327.168 202.968 328.56 202.968C329.952 202.968 331.296 202.072 331.296 200.264ZM327.136 200.264C327.136 199.112 327.776 198.68 328.56 198.68C329.344 198.68 330.016 199.112 330.016 200.264C330.016 201.416 329.344 201.848 328.56 201.848C327.776 201.848 327.136 201.416 327.136 200.264ZM335.776 197.8H334.24L328.128 209H329.664L335.776 197.8ZM338.176 206.536C338.176 204.728 336.832 203.832 335.44 203.832C334.048 203.832 332.72 204.728 332.72 206.536C332.72 208.344 334.048 209.24 335.44 209.24C336.832 209.24 338.176 208.344 338.176 206.536ZM334.016 206.536C334.016 205.384 334.656 204.952 335.44 204.952C336.224 204.952 336.896 205.384 336.896 206.536C336.896 207.688 336.224 208.12 335.44 208.12C334.656 208.12 334.016 207.688 334.016 206.536Z" fill="black" fill-opacity="0.6"/>
<rect x="367.698" y="188" width="49" height="32" rx="4" fill="#EDEDED"/>
<path d="M378.274 200.728C378.402 199.56 379.298 198.856 380.562 198.856C381.89 198.856 382.674 199.624 382.674 200.76C382.674 201.848 382.098 202.632 380.578 204.088L376.93 207.592V209H384.194V207.592H379.01L381.57 205.16C383.586 203.24 384.242 202.264 384.242 200.744C384.242 198.776 382.674 197.56 380.594 197.56C378.386 197.56 376.898 198.936 376.658 200.728H378.274ZM390.092 209.24C392.364 209.24 394.092 207.384 394.092 203.368C394.092 199.24 392.348 197.56 390.092 197.56C387.836 197.56 386.092 199.24 386.092 203.368C386.092 207.384 387.82 209.24 390.092 209.24ZM390.092 207.96C388.46 207.96 387.66 206.504 387.66 203.368C387.66 200.248 388.46 198.84 390.092 198.84C391.724 198.84 392.524 200.248 392.524 203.368C392.524 206.504 391.724 207.96 390.092 207.96ZM400.901 200.264C400.901 198.456 399.557 197.56 398.165 197.56C396.773 197.56 395.445 198.456 395.445 200.264C395.445 202.072 396.773 202.968 398.165 202.968C399.557 202.968 400.901 202.072 400.901 200.264ZM396.741 200.264C396.741 199.112 397.381 198.68 398.165 198.68C398.949 198.68 399.621 199.112 399.621 200.264C399.621 201.416 398.949 201.848 398.165 201.848C397.381 201.848 396.741 201.416 396.741 200.264ZM405.381 197.8H403.845L397.733 209H399.269L405.381 197.8ZM407.781 206.536C407.781 204.728 406.437 203.832 405.045 203.832C403.653 203.832 402.325 204.728 402.325 206.536C402.325 208.344 403.653 209.24 405.045 209.24C406.437 209.24 407.781 208.344 407.781 206.536ZM403.621 206.536C403.621 205.384 404.261 204.952 405.045 204.952C405.829 204.952 406.501 205.384 406.501 206.536C406.501 207.688 405.829 208.12 405.045 208.12C404.261 208.12 403.621 207.688 403.621 206.536Z" fill="black" fill-opacity="0.6"/>
<rect x="437.302" y="188" width="49" height="32" rx="4" fill="#EDEDED"/>
<path d="M447.734 200.44C447.894 199.48 448.742 198.84 449.99 198.84C451.078 198.84 452.134 199.4 452.134 200.6C452.134 201.896 451.126 202.472 450.278 202.472H449.382V203.8H450.31C451.334 203.8 452.518 204.376 452.518 205.912C452.518 207.112 451.622 207.944 450.086 207.944C448.726 207.944 447.974 207.336 447.718 206.216H446.086C446.342 208.008 447.766 209.224 450.118 209.224C452.518 209.224 454.086 207.864 454.086 205.944C454.086 204.264 452.95 203.32 451.686 203.048C452.854 202.68 453.702 201.704 453.702 200.488C453.702 198.488 451.942 197.56 450.07 197.56C447.942 197.56 446.39 198.696 446.118 200.44H447.734ZM459.696 209.24C461.968 209.24 463.696 207.384 463.696 203.368C463.696 199.24 461.952 197.56 459.696 197.56C457.44 197.56 455.696 199.24 455.696 203.368C455.696 207.384 457.424 209.24 459.696 209.24ZM459.696 207.96C458.064 207.96 457.264 206.504 457.264 203.368C457.264 200.248 458.064 198.84 459.696 198.84C461.328 198.84 462.128 200.248 462.128 203.368C462.128 206.504 461.328 207.96 459.696 207.96ZM470.506 200.264C470.506 198.456 469.162 197.56 467.77 197.56C466.378 197.56 465.05 198.456 465.05 200.264C465.05 202.072 466.378 202.968 467.77 202.968C469.162 202.968 470.506 202.072 470.506 200.264ZM466.346 200.264C466.346 199.112 466.986 198.68 467.77 198.68C468.554 198.68 469.226 199.112 469.226 200.264C469.226 201.416 468.554 201.848 467.77 201.848C466.986 201.848 466.346 201.416 466.346 200.264ZM474.986 197.8H473.45L467.338 209H468.874L474.986 197.8ZM477.386 206.536C477.386 204.728 476.042 203.832 474.65 203.832C473.258 203.832 471.93 204.728 471.93 206.536C471.93 208.344 473.258 209.24 474.65 209.24C476.042 209.24 477.386 208.344 477.386 206.536ZM473.226 206.536C473.226 205.384 473.866 204.952 474.65 204.952C475.434 204.952 476.106 205.384 476.106 206.536C476.106 207.688 475.434 208.12 474.65 208.12C473.866 208.12 473.226 207.688 473.226 206.536Z" fill="black" fill-opacity="0.6"/>
<rect x="506.908" y="188" width="49" height="32" rx="4" fill="#EDEDED"/>
<path d="M520.412 197.8L515.612 205.464V206.888H520.524V209H522.012V206.888H523.82V205.576H522.012V197.8H520.412ZM517.324 205.576L520.524 200.28V205.576H517.324ZM529.301 209.24C531.573 209.24 533.301 207.384 533.301 203.368C533.301 199.24 531.557 197.56 529.301 197.56C527.045 197.56 525.301 199.24 525.301 203.368C525.301 207.384 527.029 209.24 529.301 209.24ZM529.301 207.96C527.669 207.96 526.869 206.504 526.869 203.368C526.869 200.248 527.669 198.84 529.301 198.84C530.933 198.84 531.733 200.248 531.733 203.368C531.733 206.504 530.933 207.96 529.301 207.96ZM540.111 200.264C540.111 198.456 538.767 197.56 537.375 197.56C535.983 197.56 534.655 198.456 534.655 200.264C534.655 202.072 535.983 202.968 537.375 202.968C538.767 202.968 540.111 202.072 540.111 200.264ZM535.951 200.264C535.951 199.112 536.591 198.68 537.375 198.68C538.159 198.68 538.831 199.112 538.831 200.264C538.831 201.416 538.159 201.848 537.375 201.848C536.591 201.848 535.951 201.416 535.951 200.264ZM544.591 197.8H543.055L536.943 209H538.479L544.591 197.8ZM546.991 206.536C546.991 204.728 545.647 203.832 544.255 203.832C542.863 203.832 541.535 204.728 541.535 206.536C541.535 208.344 542.863 209.24 544.255 209.24C545.647 209.24 546.991 208.344 546.991 206.536ZM542.831 206.536C542.831 205.384 543.471 204.952 544.255 204.952C545.039 204.952 545.711 205.384 545.711 206.536C545.711 207.688 545.039 208.12 544.255 208.12C543.471 208.12 542.831 207.688 542.831 206.536Z" fill="black" fill-opacity="0.6"/>
<rect x="576.513" y="188" width="49" height="32" rx="4" fill="#EDEDED"/>
<path d="M585.329 206.28C585.585 207.8 587.009 209.24 589.313 209.24C591.873 209.24 593.345 207.448 593.345 205.368C593.345 202.856 591.665 201.56 589.713 201.56C588.673 201.56 587.889 201.88 587.265 202.376L587.393 199.096H592.881V197.8H586.001L585.761 203.784H587.121C587.729 203.064 588.593 202.76 589.361 202.76C590.801 202.76 591.761 203.656 591.761 205.304C591.761 206.984 590.705 207.944 589.329 207.944C587.969 207.944 587.169 207.192 586.961 206.28H585.329ZM598.907 209.24C601.179 209.24 602.907 207.384 602.907 203.368C602.907 199.24 601.163 197.56 598.907 197.56C596.651 197.56 594.907 199.24 594.907 203.368C594.907 207.384 596.635 209.24 598.907 209.24ZM598.907 207.96C597.275 207.96 596.475 206.504 596.475 203.368C596.475 200.248 597.275 198.84 598.907 198.84C600.539 198.84 601.339 200.248 601.339 203.368C601.339 206.504 600.539 207.96 598.907 207.96ZM609.717 200.264C609.717 198.456 608.373 197.56 606.981 197.56C605.589 197.56 604.261 198.456 604.261 200.264C604.261 202.072 605.589 202.968 606.981 202.968C608.373 202.968 609.717 202.072 609.717 200.264ZM605.557 200.264C605.557 199.112 606.197 198.68 606.981 198.68C607.765 198.68 608.437 199.112 608.437 200.264C608.437 201.416 607.765 201.848 606.981 201.848C606.197 201.848 605.557 201.416 605.557 200.264ZM614.197 197.8H612.661L606.549 209H608.085L614.197 197.8ZM616.597 206.536C616.597 204.728 615.253 203.832 613.861 203.832C612.469 203.832 611.141 204.728 611.141 206.536C611.141 208.344 612.469 209.24 613.861 209.24C615.253 209.24 616.597 208.344 616.597 206.536ZM612.437 206.536C612.437 205.384 613.077 204.952 613.861 204.952C614.645 204.952 615.317 205.384 615.317 206.536C615.317 207.688 614.645 208.12 613.861 208.12C613.077 208.12 612.437 207.688 612.437 206.536Z" fill="black" fill-opacity="0.6"/>
<rect x="646.118" y="188" width="49" height="32" rx="4" fill="#EDEDED"/>
<path d="M662.694 199.928C662.342 198.472 661.014 197.56 659.318 197.56C657.254 197.56 655.238 198.824 655.238 203.848C655.238 207.336 656.582 209.24 659.174 209.24C661.014 209.24 662.918 208.008 662.918 205.432C662.918 203.24 661.622 201.672 659.43 201.672C658.518 201.672 657.43 202.056 656.758 203.128C656.934 199.832 658.038 198.808 659.302 198.808C660.214 198.808 660.806 199.256 660.998 199.928H662.694ZM656.918 205.384C656.918 204.088 657.654 202.952 659.158 202.952C660.502 202.952 661.366 203.928 661.366 205.512C661.366 207.08 660.39 207.96 659.174 207.96C657.894 207.96 656.918 207.048 656.918 205.384ZM668.512 209.24C670.784 209.24 672.512 207.384 672.512 203.368C672.512 199.24 670.768 197.56 668.512 197.56C666.256 197.56 664.512 199.24 664.512 203.368C664.512 207.384 666.24 209.24 668.512 209.24ZM668.512 207.96C666.88 207.96 666.08 206.504 666.08 203.368C666.08 200.248 666.88 198.84 668.512 198.84C670.144 198.84 670.944 200.248 670.944 203.368C670.944 206.504 670.144 207.96 668.512 207.96ZM679.322 200.264C679.322 198.456 677.978 197.56 676.586 197.56C675.194 197.56 673.866 198.456 673.866 200.264C673.866 202.072 675.194 202.968 676.586 202.968C677.978 202.968 679.322 202.072 679.322 200.264ZM675.162 200.264C675.162 199.112 675.802 198.68 676.586 198.68C677.37 198.68 678.042 199.112 678.042 200.264C678.042 201.416 677.37 201.848 676.586 201.848C675.802 201.848 675.162 201.416 675.162 200.264ZM683.802 197.8H682.266L676.154 209H677.69L683.802 197.8ZM686.202 206.536C686.202 204.728 684.858 203.832 683.466 203.832C682.074 203.832 680.746 204.728 680.746 206.536C680.746 208.344 682.074 209.24 683.466 209.24C684.858 209.24 686.202 208.344 686.202 206.536ZM682.042 206.536C682.042 205.384 682.682 204.952 683.466 204.952C684.25 204.952 684.922 205.384 684.922 206.536C684.922 207.688 684.25 208.12 683.466 208.12C682.682 208.12 682.042 207.688 682.042 206.536Z" fill="black" fill-opacity="0.6"/>
<rect x="715.724" y="188" width="49" height="32" rx="4" fill="#EDEDED"/>
<path d="M732.044 199.176V197.8H724.924V199.176H730.412L725.724 209H727.468L732.044 199.176ZM738.117 209.24C740.389 209.24 742.117 207.384 742.117 203.368C742.117 199.24 740.373 197.56 738.117 197.56C735.861 197.56 734.117 199.24 734.117 203.368C734.117 207.384 735.845 209.24 738.117 209.24ZM738.117 207.96C736.485 207.96 735.685 206.504 735.685 203.368C735.685 200.248 736.485 198.84 738.117 198.84C739.749 198.84 740.549 200.248 740.549 203.368C740.549 206.504 739.749 207.96 738.117 207.96ZM748.927 200.264C748.927 198.456 747.583 197.56 746.191 197.56C744.799 197.56 743.471 198.456 743.471 200.264C743.471 202.072 744.799 202.968 746.191 202.968C747.583 202.968 748.927 202.072 748.927 200.264ZM744.767 200.264C744.767 199.112 745.407 198.68 746.191 198.68C746.975 198.68 747.647 199.112 747.647 200.264C747.647 201.416 746.975 201.848 746.191 201.848C745.407 201.848 744.767 201.416 744.767 200.264ZM753.407 197.8H751.871L745.759 209H747.295L753.407 197.8ZM755.807 206.536C755.807 204.728 754.463 203.832 753.071 203.832C751.679 203.832 750.351 204.728 750.351 206.536C750.351 208.344 751.679 209.24 753.071 209.24C754.463 209.24 755.807 208.344 755.807 206.536ZM751.647 206.536C751.647 205.384 752.287 204.952 753.071 204.952C753.855 204.952 754.527 205.384 754.527 206.536C754.527 207.688 753.855 208.12 753.071 208.12C752.287 208.12 751.647 207.688 751.647 206.536Z" fill="black" fill-opacity="0.6"/>
<rect x="785.329" y="188" width="49" height="32" rx="4" fill="#EDEDED"/>
<path d="M801.793 200.44C801.793 198.408 800.049 197.56 798.129 197.56C796.209 197.56 794.465 198.488 794.465 200.552C794.465 201.976 795.393 202.728 796.241 203.128C795.233 203.512 794.049 204.376 794.049 206.088C794.049 207.912 795.681 209.24 798.129 209.24C800.577 209.24 802.209 207.88 802.209 205.976C802.209 204.392 801.009 203.496 799.953 203.032C800.833 202.568 801.793 201.72 801.793 200.44ZM800.577 205.976C800.577 207.144 799.761 207.976 798.129 207.976C796.465 207.976 795.681 207.064 795.681 205.976C795.681 204.568 796.865 203.88 797.793 203.608C799.041 203.88 800.577 204.2 800.577 205.976ZM795.969 200.472C795.969 199.32 796.961 198.76 798.129 198.76C799.297 198.76 800.257 199.416 800.257 200.472C800.257 201.656 799.265 202.312 798.449 202.632C797.489 202.504 795.969 202.168 795.969 200.472ZM807.722 209.24C809.994 209.24 811.722 207.384 811.722 203.368C811.722 199.24 809.978 197.56 807.722 197.56C805.466 197.56 803.722 199.24 803.722 203.368C803.722 207.384 805.45 209.24 807.722 209.24ZM807.722 207.96C806.09 207.96 805.29 206.504 805.29 203.368C805.29 200.248 806.09 198.84 807.722 198.84C809.354 198.84 810.154 200.248 810.154 203.368C810.154 206.504 809.354 207.96 807.722 207.96ZM818.532 200.264C818.532 198.456 817.188 197.56 815.796 197.56C814.404 197.56 813.076 198.456 813.076 200.264C813.076 202.072 814.404 202.968 815.796 202.968C817.188 202.968 818.532 202.072 818.532 200.264ZM814.372 200.264C814.372 199.112 815.012 198.68 815.796 198.68C816.58 198.68 817.252 199.112 817.252 200.264C817.252 201.416 816.58 201.848 815.796 201.848C815.012 201.848 814.372 201.416 814.372 200.264ZM823.012 197.8H821.476L815.364 209H816.9L823.012 197.8ZM825.412 206.536C825.412 204.728 824.068 203.832 822.676 203.832C821.284 203.832 819.956 204.728 819.956 206.536C819.956 208.344 821.284 209.24 822.676 209.24C824.068 209.24 825.412 208.344 825.412 206.536ZM821.252 206.536C821.252 205.384 821.892 204.952 822.676 204.952C823.46 204.952 824.132 205.384 824.132 206.536C824.132 207.688 823.46 208.12 822.676 208.12C821.892 208.12 821.252 207.688 821.252 206.536Z" fill="black" fill-opacity="0.6"/>
<rect x="854.934" y="188" width="49" height="32" rx="4" fill="#EDEDED"/>
<path d="M864.214 206.84C864.582 208.296 865.878 209.24 867.606 209.24C869.83 209.24 871.734 207.864 871.734 202.952C871.734 199.352 870.39 197.56 867.798 197.56C865.67 197.56 864.054 199.048 864.054 201.368C864.054 203.72 865.494 205.128 867.542 205.128C868.438 205.128 869.526 204.76 870.198 203.688C870.038 206.984 869.03 207.992 867.67 207.992C866.726 207.992 866.118 207.56 865.91 206.84H864.214ZM870.054 201.416C870.054 202.712 869.318 203.848 867.814 203.848C866.566 203.848 865.606 202.968 865.606 201.288C865.606 199.736 866.566 198.84 867.798 198.84C869.078 198.84 870.054 199.752 870.054 201.416ZM877.328 209.24C879.6 209.24 881.328 207.384 881.328 203.368C881.328 199.24 879.584 197.56 877.328 197.56C875.072 197.56 873.328 199.24 873.328 203.368C873.328 207.384 875.056 209.24 877.328 209.24ZM877.328 207.96C875.696 207.96 874.896 206.504 874.896 203.368C874.896 200.248 875.696 198.84 877.328 198.84C878.96 198.84 879.76 200.248 879.76 203.368C879.76 206.504 878.96 207.96 877.328 207.96ZM888.138 200.264C888.138 198.456 886.794 197.56 885.402 197.56C884.01 197.56 882.682 198.456 882.682 200.264C882.682 202.072 884.01 202.968 885.402 202.968C886.794 202.968 888.138 202.072 888.138 200.264ZM883.978 200.264C883.978 199.112 884.618 198.68 885.402 198.68C886.186 198.68 886.858 199.112 886.858 200.264C886.858 201.416 886.186 201.848 885.402 201.848C884.618 201.848 883.978 201.416 883.978 200.264ZM892.618 197.8H891.082L884.97 209H886.506L892.618 197.8ZM895.018 206.536C895.018 204.728 893.674 203.832 892.282 203.832C890.89 203.832 889.562 204.728 889.562 206.536C889.562 208.344 890.89 209.24 892.282 209.24C893.674 209.24 895.018 208.344 895.018 206.536ZM890.858 206.536C890.858 205.384 891.498 204.952 892.282 204.952C893.066 204.952 893.738 205.384 893.738 206.536C893.738 207.688 893.066 208.12 892.282 208.12C891.498 208.12 890.858 207.688 890.858 206.536Z" fill="black" fill-opacity="0.6"/>
<rect x="924.54" y="188" width="49" height="32" rx="4" fill="#EDEDED"/>
<path d="M933.82 206.84C934.188 208.296 935.484 209.24 937.212 209.24C939.436 209.24 941.34 207.864 941.34 202.952C941.34 199.352 939.996 197.56 937.404 197.56C935.276 197.56 933.66 199.048 933.66 201.368C933.66 203.72 935.1 205.128 937.148 205.128C938.044 205.128 939.132 204.76 939.804 203.688C939.644 206.984 938.636 207.992 937.276 207.992C936.332 207.992 935.724 207.56 935.516 206.84H933.82ZM939.66 201.416C939.66 202.712 938.924 203.848 937.42 203.848C936.172 203.848 935.212 202.968 935.212 201.288C935.212 199.736 936.172 198.84 937.404 198.84C938.684 198.84 939.66 199.752 939.66 201.416ZM942.949 206.28C943.205 207.8 944.629 209.24 946.933 209.24C949.493 209.24 950.965 207.448 950.965 205.368C950.965 202.856 949.285 201.56 947.333 201.56C946.293 201.56 945.509 201.88 944.885 202.376L945.013 199.096H950.501V197.8H943.621L943.381 203.784H944.741C945.349 203.064 946.213 202.76 946.981 202.76C948.421 202.76 949.381 203.656 949.381 205.304C949.381 206.984 948.325 207.944 946.949 207.944C945.589 207.944 944.789 207.192 944.581 206.28H942.949ZM957.743 200.264C957.743 198.456 956.399 197.56 955.007 197.56C953.615 197.56 952.287 198.456 952.287 200.264C952.287 202.072 953.615 202.968 955.007 202.968C956.399 202.968 957.743 202.072 957.743 200.264ZM953.583 200.264C953.583 199.112 954.223 198.68 955.007 198.68C955.791 198.68 956.463 199.112 956.463 200.264C956.463 201.416 955.791 201.848 955.007 201.848C954.223 201.848 953.583 201.416 953.583 200.264ZM962.223 197.8H960.687L954.575 209H956.111L962.223 197.8ZM964.623 206.536C964.623 204.728 963.279 203.832 961.887 203.832C960.495 203.832 959.167 204.728 959.167 206.536C959.167 208.344 960.495 209.24 961.887 209.24C963.279 209.24 964.623 208.344 964.623 206.536ZM960.463 206.536C960.463 205.384 961.103 204.952 961.887 204.952C962.671 204.952 963.343 205.384 963.343 206.536C963.343 207.688 962.671 208.12 961.887 208.12C961.103 208.12 960.463 207.688 960.463 206.536Z" fill="black" fill-opacity="0.6"/>
<rect x="89.7764" y="80.5" width="65.5789" height="87" rx="32.7895" stroke="black" stroke-opacity="0.4"/>
<rect x="158.882" y="80" width="66.5789" height="88" rx="33.2895" fill="white" fill-opacity="0.05"/>
<rect x="159.382" y="80.5" width="65.5789" height="87" rx="32.7895" stroke="black" stroke-opacity="0.4"/>
<rect x="228.487" y="80" width="66.5789" height="88" rx="33.2895" fill="white" fill-opacity="0.07"/>
<rect x="228.987" y="80.5" width="65.5789" height="87" rx="32.7895" stroke="black" stroke-opacity="0.4"/>
<rect x="298.092" y="80" width="66.5789" height="88" rx="33.2895" fill="white" fill-opacity="0.11"/>
<rect x="298.592" y="80.5" width="65.5789" height="87" rx="32.7895" stroke="black" stroke-opacity="0.4"/>
<rect x="367.698" y="80" width="66.5789" height="88" rx="33.2895" fill="white" fill-opacity="0.2"/>
<rect x="368.198" y="80.5" width="65.5789" height="87" rx="32.7895" stroke="black" stroke-opacity="0.4"/>
<rect x="437.302" y="80" width="66.5789" height="88" rx="33.2895" fill="white" fill-opacity="0.3"/>
<rect x="437.802" y="80.5" width="65.5789" height="87" rx="32.7895" stroke="black" stroke-opacity="0.4"/>
<rect x="506.908" y="80" width="66.5789" height="88" rx="33.2895" fill="white" fill-opacity="0.4"/>
<rect x="507.408" y="80.5" width="65.5789" height="87" rx="32.7895" stroke="black" stroke-opacity="0.4"/>
<rect x="576.513" y="80" width="66.5789" height="88" rx="33.2895" fill="white" fill-opacity="0.5"/>
<rect x="577.013" y="80.5" width="65.5789" height="87" rx="32.7895" stroke="black" stroke-opacity="0.4"/>
<rect x="646.118" y="80" width="66.5789" height="88" rx="33.2895" fill="white" fill-opacity="0.6"/>
<rect x="646.618" y="80.5" width="65.5789" height="87" rx="32.7895" stroke="black" stroke-opacity="0.4"/>
<rect x="715.724" y="80" width="66.5789" height="88" rx="33.2895" fill="white" fill-opacity="0.7"/>
<rect x="716.224" y="80.5" width="65.5789" height="87" rx="32.7895" stroke="black" stroke-opacity="0.4"/>
<rect x="785.329" y="80" width="66.5789" height="88" rx="33.2895" fill="white" fill-opacity="0.8"/>
<rect x="785.829" y="80.5" width="65.5789" height="87" rx="32.7895" stroke="black" stroke-opacity="0.4"/>
<rect x="854.934" y="80" width="66.5789" height="88" rx="33.2895" fill="white" fill-opacity="0.9"/>
<rect x="855.434" y="80.5" width="65.5789" height="87" rx="32.7895" stroke="black" stroke-opacity="0.4"/>
<rect x="924.54" y="80" width="66.5789" height="88" rx="33.2895" fill="white" fill-opacity="0.95"/>
<rect x="925.04" y="80.5" width="65.5789" height="87" rx="32.7895" stroke="black" stroke-opacity="0.4"/>
<rect x="994.145" y="80" width="66.5789" height="88" rx="33.2895" fill="white"/>
<rect x="994.645" y="80.5" width="65.5789" height="87" rx="32.7895" stroke="black" stroke-opacity="0.4"/>
<rect x="994.145" y="188" width="59" height="32" rx="4" fill="#EDEDED"/>
<path d="M1008.3 209V197.8H1006.8L1004.27 199.112V200.696L1006.78 199.4V209H1008.3ZM1016.54 209.24C1018.81 209.24 1020.54 207.384 1020.54 203.368C1020.54 199.24 1018.79 197.56 1016.54 197.56C1014.28 197.56 1012.54 199.24 1012.54 203.368C1012.54 207.384 1014.27 209.24 1016.54 209.24ZM1016.54 207.96C1014.91 207.96 1014.11 206.504 1014.11 203.368C1014.11 200.248 1014.91 198.84 1016.54 198.84C1018.17 198.84 1018.97 200.248 1018.97 203.368C1018.97 206.504 1018.17 207.96 1016.54 207.96ZM1026.13 209.24C1028.4 209.24 1030.13 207.384 1030.13 203.368C1030.13 199.24 1028.39 197.56 1026.13 197.56C1023.88 197.56 1022.13 199.24 1022.13 203.368C1022.13 207.384 1023.86 209.24 1026.13 209.24ZM1026.13 207.96C1024.5 207.96 1023.7 206.504 1023.7 203.368C1023.7 200.248 1024.5 198.84 1026.13 198.84C1027.76 198.84 1028.56 200.248 1028.56 203.368C1028.56 206.504 1027.76 207.96 1026.13 207.96ZM1036.94 200.264C1036.94 198.456 1035.6 197.56 1034.21 197.56C1032.81 197.56 1031.49 198.456 1031.49 200.264C1031.49 202.072 1032.81 202.968 1034.21 202.968C1035.6 202.968 1036.94 202.072 1036.94 200.264ZM1032.78 200.264C1032.78 199.112 1033.42 198.68 1034.21 198.68C1034.99 198.68 1035.66 199.112 1035.66 200.264C1035.66 201.416 1034.99 201.848 1034.21 201.848C1033.42 201.848 1032.78 201.416 1032.78 200.264ZM1041.42 197.8H1039.89L1033.77 209H1035.31L1041.42 197.8ZM1043.82 206.536C1043.82 204.728 1042.48 203.832 1041.09 203.832C1039.69 203.832 1038.37 204.728 1038.37 206.536C1038.37 208.344 1039.69 209.24 1041.09 209.24C1042.48 209.24 1043.82 208.344 1043.82 206.536ZM1039.66 206.536C1039.66 205.384 1040.3 204.952 1041.09 204.952C1041.87 204.952 1042.54 205.384 1042.54 206.536C1042.54 207.688 1041.87 208.12 1041.09 208.12C1040.3 208.12 1039.66 207.688 1039.66 206.536Z" fill="black" fill-opacity="0.6"/>
<path d="M91.6296 506.92H95.2696C96.8842 506.92 98.0369 507.233 98.7276 507.858C99.3249 508.399 99.6236 509.207 99.6236 510.28C99.6236 511.503 99.2222 512.385 98.4196 512.926C97.7196 513.393 96.6976 513.626 95.3536 513.626H93.9816V517H91.6296V506.92ZM95.2976 508.53H93.9816V512.016H95.3816C96.5949 512.016 97.2016 511.437 97.2016 510.28C97.2016 509.113 96.5669 508.53 95.2976 508.53ZM110.026 517H107.24L105.014 513.318H103.726V517H101.374V506.92H105.084C106.577 506.92 107.688 507.228 108.416 507.844C109.041 508.385 109.354 509.141 109.354 510.112C109.354 511.484 108.686 512.417 107.352 512.912L110.026 517ZM105.112 508.544H103.726V511.694H105.196C105.746 511.694 106.18 511.54 106.498 511.232C106.778 510.952 106.918 510.579 106.918 510.112C106.918 509.067 106.316 508.544 105.112 508.544ZM111.637 506.92H113.989V517H111.637V506.92ZM122.698 517H120.78L118.358 510.07V517H116.37V506.92H119.058L121.788 514.788L124.434 506.92H127.192V517H125.064V510.056L122.698 517ZM138.54 517H136.062L135.348 514.69H131.764L131.05 517H128.726L132.31 506.92H134.928L138.54 517ZM133.57 508.852L132.24 513.15H134.886L133.57 508.852ZM148.455 517H145.669L143.443 513.318H142.155V517H139.803V506.92H143.513C145.006 506.92 146.117 507.228 146.845 507.844C147.47 508.385 147.783 509.141 147.783 510.112C147.783 511.484 147.115 512.417 145.781 512.912L148.455 517ZM143.541 508.544H142.155V511.694H143.625C144.175 511.694 144.609 511.54 144.927 511.232C145.207 510.952 145.347 510.579 145.347 510.112C145.347 509.067 144.745 508.544 143.541 508.544ZM154.584 517H152.372V512.982L148.802 506.92H151.322L153.534 511.022L155.914 506.92H158.154L154.584 512.982V517ZM164.03 506.92H167.39C168.893 506.92 169.966 507.172 170.61 507.676C171.161 508.105 171.436 508.745 171.436 509.594C171.436 510.145 171.226 510.616 170.806 511.008C170.489 511.316 170.088 511.535 169.602 511.666C170.34 511.815 170.904 512.114 171.296 512.562C171.651 512.973 171.828 513.481 171.828 514.088C171.828 515.143 171.46 515.903 170.722 516.37C170.05 516.79 169.024 517 167.642 517H164.03V506.92ZM167.81 512.464H166.382V515.46H167.74C168.384 515.46 168.837 515.329 169.098 515.068C169.322 514.844 169.434 514.494 169.434 514.018C169.434 513.486 169.276 513.085 168.958 512.814C168.678 512.581 168.296 512.464 167.81 512.464ZM167.558 508.46H166.382V511.008H167.6C168.104 511.008 168.482 510.882 168.734 510.63C168.968 510.397 169.084 510.075 169.084 509.664C169.084 509.281 168.949 508.987 168.678 508.782C168.417 508.567 168.044 508.46 167.558 508.46ZM173.795 506.92H176.147V515.236H181.047V517H173.795V506.92ZM191.836 517H189.358L188.644 514.69H185.06L184.346 517H182.022L185.606 506.92H188.224L191.836 517ZM186.866 508.852L185.536 513.15H188.182L186.866 508.852ZM197.83 515.558C199.193 515.558 199.926 514.802 200.028 513.29H202.422C202.254 514.662 201.732 515.679 200.854 516.342C200.08 516.921 199.058 517.21 197.788 517.21C196.286 517.21 195.114 516.711 194.274 515.712C193.49 514.779 193.098 513.519 193.098 511.932C193.098 510.14 193.588 508.787 194.568 507.872C195.399 507.097 196.51 506.71 197.9 506.71C199.179 506.71 200.22 507.051 201.022 507.732C201.741 508.348 202.184 509.174 202.352 510.21H200C199.739 508.969 199.039 508.348 197.9 508.348C197.116 508.348 196.524 508.67 196.122 509.314C195.74 509.921 195.548 510.793 195.548 511.932C195.548 513.267 195.8 514.242 196.304 514.858C196.696 515.325 197.205 515.558 197.83 515.558ZM213.639 517H210.559L206.807 512.604V517H204.455V506.92H206.807V511.148L210.363 506.92H213.107L208.893 511.638L213.639 517Z" fill="white" fill-opacity="0.95"/>
<rect x="89.2764" y="430" width="40" height="32" rx="4" fill="#EDEDED"/>
<path d="M102.076 451.24C104.348 451.24 106.076 449.384 106.076 445.368C106.076 441.24 104.332 439.56 102.076 439.56C99.8204 439.56 98.0764 441.24 98.0764 445.368C98.0764 449.384 99.8044 451.24 102.076 451.24ZM102.076 449.96C100.444 449.96 99.6444 448.504 99.6444 445.368C99.6444 442.248 100.444 440.84 102.076 440.84C103.708 440.84 104.508 442.248 104.508 445.368C104.508 448.504 103.708 449.96 102.076 449.96ZM112.886 442.264C112.886 440.456 111.542 439.56 110.15 439.56C108.758 439.56 107.43 440.456 107.43 442.264C107.43 444.072 108.758 444.968 110.15 444.968C111.542 444.968 112.886 444.072 112.886 442.264ZM108.726 442.264C108.726 441.112 109.366 440.68 110.15 440.68C110.934 440.68 111.606 441.112 111.606 442.264C111.606 443.416 110.934 443.848 110.15 443.848C109.366 443.848 108.726 443.416 108.726 442.264ZM117.366 439.8H115.83L109.718 451H111.254L117.366 439.8ZM119.766 448.536C119.766 446.728 118.422 445.832 117.03 445.832C115.638 445.832 114.31 446.728 114.31 448.536C114.31 450.344 115.638 451.24 117.03 451.24C118.422 451.24 119.766 450.344 119.766 448.536ZM115.606 448.536C115.606 447.384 116.246 446.952 117.03 446.952C117.814 446.952 118.486 447.384 118.486 448.536C118.486 449.688 117.814 450.12 117.03 450.12C116.246 450.12 115.606 449.688 115.606 448.536Z" fill="black" fill-opacity="0.6"/>
<rect x="158.882" y="430" width="40" height="32" rx="4" fill="#EDEDED"/>
<path d="M172.386 439.8L167.586 447.464V448.888H172.498V451H173.986V448.888H175.794V447.576H173.986V439.8H172.386ZM169.298 447.576L172.498 442.28V447.576H169.298ZM182.492 442.264C182.492 440.456 181.148 439.56 179.756 439.56C178.364 439.56 177.036 440.456 177.036 442.264C177.036 444.072 178.364 444.968 179.756 444.968C181.148 444.968 182.492 444.072 182.492 442.264ZM178.332 442.264C178.332 441.112 178.972 440.68 179.756 440.68C180.54 440.68 181.212 441.112 181.212 442.264C181.212 443.416 180.54 443.848 179.756 443.848C178.972 443.848 178.332 443.416 178.332 442.264ZM186.972 439.8H185.436L179.324 451H180.86L186.972 439.8ZM189.372 448.536C189.372 446.728 188.028 445.832 186.636 445.832C185.244 445.832 183.916 446.728 183.916 448.536C183.916 450.344 185.244 451.24 186.636 451.24C188.028 451.24 189.372 450.344 189.372 448.536ZM185.212 448.536C185.212 447.384 185.852 446.952 186.636 446.952C187.42 446.952 188.092 447.384 188.092 448.536C188.092 449.688 187.42 450.12 186.636 450.12C185.852 450.12 185.212 449.688 185.212 448.536Z" fill="black" fill-opacity="0.6"/>
<rect x="228.487" y="430" width="40" height="32" rx="4" fill="#EDEDED"/>
<path d="M244.807 441.176V439.8H237.687V441.176H243.175L238.487 451H240.231L244.807 441.176ZM252.097 442.264C252.097 440.456 250.753 439.56 249.361 439.56C247.969 439.56 246.641 440.456 246.641 442.264C246.641 444.072 247.969 444.968 249.361 444.968C250.753 444.968 252.097 444.072 252.097 442.264ZM247.937 442.264C247.937 441.112 248.577 440.68 249.361 440.68C250.145 440.68 250.817 441.112 250.817 442.264C250.817 443.416 250.145 443.848 249.361 443.848C248.577 443.848 247.937 443.416 247.937 442.264ZM256.577 439.8H255.041L248.929 451H250.465L256.577 439.8ZM258.977 448.536C258.977 446.728 257.633 445.832 256.241 445.832C254.849 445.832 253.521 446.728 253.521 448.536C253.521 450.344 254.849 451.24 256.241 451.24C257.633 451.24 258.977 450.344 258.977 448.536ZM254.817 448.536C254.817 447.384 255.457 446.952 256.241 446.952C257.025 446.952 257.697 447.384 257.697 448.536C257.697 449.688 257.025 450.12 256.241 450.12C255.457 450.12 254.817 449.688 254.817 448.536Z" fill="black" fill-opacity="0.6"/>
<rect x="298.092" y="430" width="49" height="32" rx="4" fill="#EDEDED"/>
<path d="M312.252 451V439.8H310.748L308.22 441.112V442.696L310.732 441.4V451H312.252ZM321.846 451V439.8H320.342L317.814 441.112V442.696L320.326 441.4V451H321.846ZM331.296 442.264C331.296 440.456 329.952 439.56 328.56 439.56C327.168 439.56 325.84 440.456 325.84 442.264C325.84 444.072 327.168 444.968 328.56 444.968C329.952 444.968 331.296 444.072 331.296 442.264ZM327.136 442.264C327.136 441.112 327.776 440.68 328.56 440.68C329.344 440.68 330.016 441.112 330.016 442.264C330.016 443.416 329.344 443.848 328.56 443.848C327.776 443.848 327.136 443.416 327.136 442.264ZM335.776 439.8H334.24L328.128 451H329.664L335.776 439.8ZM338.176 448.536C338.176 446.728 336.832 445.832 335.44 445.832C334.048 445.832 332.72 446.728 332.72 448.536C332.72 450.344 334.048 451.24 335.44 451.24C336.832 451.24 338.176 450.344 338.176 448.536ZM334.016 448.536C334.016 447.384 334.656 446.952 335.44 446.952C336.224 446.952 336.896 447.384 336.896 448.536C336.896 449.688 336.224 450.12 335.44 450.12C334.656 450.12 334.016 449.688 334.016 448.536Z" fill="black" fill-opacity="0.6"/>
<rect x="367.698" y="430" width="49" height="32" rx="4" fill="#EDEDED"/>
<path d="M378.274 442.728C378.402 441.56 379.298 440.856 380.562 440.856C381.89 440.856 382.674 441.624 382.674 442.76C382.674 443.848 382.098 444.632 380.578 446.088L376.93 449.592V451H384.194V449.592H379.01L381.57 447.16C383.586 445.24 384.242 444.264 384.242 442.744C384.242 440.776 382.674 439.56 380.594 439.56C378.386 439.56 376.898 440.936 376.658 442.728H378.274ZM390.092 451.24C392.364 451.24 394.092 449.384 394.092 445.368C394.092 441.24 392.348 439.56 390.092 439.56C387.836 439.56 386.092 441.24 386.092 445.368C386.092 449.384 387.82 451.24 390.092 451.24ZM390.092 449.96C388.46 449.96 387.66 448.504 387.66 445.368C387.66 442.248 388.46 440.84 390.092 440.84C391.724 440.84 392.524 442.248 392.524 445.368C392.524 448.504 391.724 449.96 390.092 449.96ZM400.901 442.264C400.901 440.456 399.557 439.56 398.165 439.56C396.773 439.56 395.445 440.456 395.445 442.264C395.445 444.072 396.773 444.968 398.165 444.968C399.557 444.968 400.901 444.072 400.901 442.264ZM396.741 442.264C396.741 441.112 397.381 440.68 398.165 440.68C398.949 440.68 399.621 441.112 399.621 442.264C399.621 443.416 398.949 443.848 398.165 443.848C397.381 443.848 396.741 443.416 396.741 442.264ZM405.381 439.8H403.845L397.733 451H399.269L405.381 439.8ZM407.781 448.536C407.781 446.728 406.437 445.832 405.045 445.832C403.653 445.832 402.325 446.728 402.325 448.536C402.325 450.344 403.653 451.24 405.045 451.24C406.437 451.24 407.781 450.344 407.781 448.536ZM403.621 448.536C403.621 447.384 404.261 446.952 405.045 446.952C405.829 446.952 406.501 447.384 406.501 448.536C406.501 449.688 405.829 450.12 405.045 450.12C404.261 450.12 403.621 449.688 403.621 448.536Z" fill="black" fill-opacity="0.6"/>
<rect x="437.302" y="430" width="49" height="32" rx="4" fill="#EDEDED"/>
<path d="M447.734 442.44C447.894 441.48 448.742 440.84 449.99 440.84C451.078 440.84 452.134 441.4 452.134 442.6C452.134 443.896 451.126 444.472 450.278 444.472H449.382V445.8H450.31C451.334 445.8 452.518 446.376 452.518 447.912C452.518 449.112 451.622 449.944 450.086 449.944C448.726 449.944 447.974 449.336 447.718 448.216H446.086C446.342 450.008 447.766 451.224 450.118 451.224C452.518 451.224 454.086 449.864 454.086 447.944C454.086 446.264 452.95 445.32 451.686 445.048C452.854 444.68 453.702 443.704 453.702 442.488C453.702 440.488 451.942 439.56 450.07 439.56C447.942 439.56 446.39 440.696 446.118 442.44H447.734ZM459.696 451.24C461.968 451.24 463.696 449.384 463.696 445.368C463.696 441.24 461.952 439.56 459.696 439.56C457.44 439.56 455.696 441.24 455.696 445.368C455.696 449.384 457.424 451.24 459.696 451.24ZM459.696 449.96C458.064 449.96 457.264 448.504 457.264 445.368C457.264 442.248 458.064 440.84 459.696 440.84C461.328 440.84 462.128 442.248 462.128 445.368C462.128 448.504 461.328 449.96 459.696 449.96ZM470.506 442.264C470.506 440.456 469.162 439.56 467.77 439.56C466.378 439.56 465.05 440.456 465.05 442.264C465.05 444.072 466.378 444.968 467.77 444.968C469.162 444.968 470.506 444.072 470.506 442.264ZM466.346 442.264C466.346 441.112 466.986 440.68 467.77 440.68C468.554 440.68 469.226 441.112 469.226 442.264C469.226 443.416 468.554 443.848 467.77 443.848C466.986 443.848 466.346 443.416 466.346 442.264ZM474.986 439.8H473.45L467.338 451H468.874L474.986 439.8ZM477.386 448.536C477.386 446.728 476.042 445.832 474.65 445.832C473.258 445.832 471.93 446.728 471.93 448.536C471.93 450.344 473.258 451.24 474.65 451.24C476.042 451.24 477.386 450.344 477.386 448.536ZM473.226 448.536C473.226 447.384 473.866 446.952 474.65 446.952C475.434 446.952 476.106 447.384 476.106 448.536C476.106 449.688 475.434 450.12 474.65 450.12C473.866 450.12 473.226 449.688 473.226 448.536Z" fill="black" fill-opacity="0.6"/>
<rect x="506.908" y="430" width="49" height="32" rx="4" fill="#EDEDED"/>
<path d="M520.412 439.8L515.612 447.464V448.888H520.524V451H522.012V448.888H523.82V447.576H522.012V439.8H520.412ZM517.324 447.576L520.524 442.28V447.576H517.324ZM529.301 451.24C531.573 451.24 533.301 449.384 533.301 445.368C533.301 441.24 531.557 439.56 529.301 439.56C527.045 439.56 525.301 441.24 525.301 445.368C525.301 449.384 527.029 451.24 529.301 451.24ZM529.301 449.96C527.669 449.96 526.869 448.504 526.869 445.368C526.869 442.248 527.669 440.84 529.301 440.84C530.933 440.84 531.733 442.248 531.733 445.368C531.733 448.504 530.933 449.96 529.301 449.96ZM540.111 442.264C540.111 440.456 538.767 439.56 537.375 439.56C535.983 439.56 534.655 440.456 534.655 442.264C534.655 444.072 535.983 444.968 537.375 444.968C538.767 444.968 540.111 444.072 540.111 442.264ZM535.951 442.264C535.951 441.112 536.591 440.68 537.375 440.68C538.159 440.68 538.831 441.112 538.831 442.264C538.831 443.416 538.159 443.848 537.375 443.848C536.591 443.848 535.951 443.416 535.951 442.264ZM544.591 439.8H543.055L536.943 451H538.479L544.591 439.8ZM546.991 448.536C546.991 446.728 545.647 445.832 544.255 445.832C542.863 445.832 541.535 446.728 541.535 448.536C541.535 450.344 542.863 451.24 544.255 451.24C545.647 451.24 546.991 450.344 546.991 448.536ZM542.831 448.536C542.831 447.384 543.471 446.952 544.255 446.952C545.039 446.952 545.711 447.384 545.711 448.536C545.711 449.688 545.039 450.12 544.255 450.12C543.471 450.12 542.831 449.688 542.831 448.536Z" fill="black" fill-opacity="0.6"/>
<rect x="576.513" y="430" width="49" height="32" rx="4" fill="#EDEDED"/>
<path d="M585.329 448.28C585.585 449.8 587.009 451.24 589.313 451.24C591.873 451.24 593.345 449.448 593.345 447.368C593.345 444.856 591.665 443.56 589.713 443.56C588.673 443.56 587.889 443.88 587.265 444.376L587.393 441.096H592.881V439.8H586.001L585.761 445.784H587.121C587.729 445.064 588.593 444.76 589.361 444.76C590.801 444.76 591.761 445.656 591.761 447.304C591.761 448.984 590.705 449.944 589.329 449.944C587.969 449.944 587.169 449.192 586.961 448.28H585.329ZM598.907 451.24C601.179 451.24 602.907 449.384 602.907 445.368C602.907 441.24 601.163 439.56 598.907 439.56C596.651 439.56 594.907 441.24 594.907 445.368C594.907 449.384 596.635 451.24 598.907 451.24ZM598.907 449.96C597.275 449.96 596.475 448.504 596.475 445.368C596.475 442.248 597.275 440.84 598.907 440.84C600.539 440.84 601.339 442.248 601.339 445.368C601.339 448.504 600.539 449.96 598.907 449.96ZM609.717 442.264C609.717 440.456 608.373 439.56 606.981 439.56C605.589 439.56 604.261 440.456 604.261 442.264C604.261 444.072 605.589 444.968 606.981 444.968C608.373 444.968 609.717 444.072 609.717 442.264ZM605.557 442.264C605.557 441.112 606.197 440.68 606.981 440.68C607.765 440.68 608.437 441.112 608.437 442.264C608.437 443.416 607.765 443.848 606.981 443.848C606.197 443.848 605.557 443.416 605.557 442.264ZM614.197 439.8H612.661L606.549 451H608.085L614.197 439.8ZM616.597 448.536C616.597 446.728 615.253 445.832 613.861 445.832C612.469 445.832 611.141 446.728 611.141 448.536C611.141 450.344 612.469 451.24 613.861 451.24C615.253 451.24 616.597 450.344 616.597 448.536ZM612.437 448.536C612.437 447.384 613.077 446.952 613.861 446.952C614.645 446.952 615.317 447.384 615.317 448.536C615.317 449.688 614.645 450.12 613.861 450.12C613.077 450.12 612.437 449.688 612.437 448.536Z" fill="black" fill-opacity="0.6"/>
<rect x="646.118" y="430" width="49" height="32" rx="4" fill="#EDEDED"/>
<path d="M662.694 441.928C662.342 440.472 661.014 439.56 659.318 439.56C657.254 439.56 655.238 440.824 655.238 445.848C655.238 449.336 656.582 451.24 659.174 451.24C661.014 451.24 662.918 450.008 662.918 447.432C662.918 445.24 661.622 443.672 659.43 443.672C658.518 443.672 657.43 444.056 656.758 445.128C656.934 441.832 658.038 440.808 659.302 440.808C660.214 440.808 660.806 441.256 660.998 441.928H662.694ZM656.918 447.384C656.918 446.088 657.654 444.952 659.158 444.952C660.502 444.952 661.366 445.928 661.366 447.512C661.366 449.08 660.39 449.96 659.174 449.96C657.894 449.96 656.918 449.048 656.918 447.384ZM668.512 451.24C670.784 451.24 672.512 449.384 672.512 445.368C672.512 441.24 670.768 439.56 668.512 439.56C666.256 439.56 664.512 441.24 664.512 445.368C664.512 449.384 666.24 451.24 668.512 451.24ZM668.512 449.96C666.88 449.96 666.08 448.504 666.08 445.368C666.08 442.248 666.88 440.84 668.512 440.84C670.144 440.84 670.944 442.248 670.944 445.368C670.944 448.504 670.144 449.96 668.512 449.96ZM679.322 442.264C679.322 440.456 677.978 439.56 676.586 439.56C675.194 439.56 673.866 440.456 673.866 442.264C673.866 444.072 675.194 444.968 676.586 444.968C677.978 444.968 679.322 444.072 679.322 442.264ZM675.162 442.264C675.162 441.112 675.802 440.68 676.586 440.68C677.37 440.68 678.042 441.112 678.042 442.264C678.042 443.416 677.37 443.848 676.586 443.848C675.802 443.848 675.162 443.416 675.162 442.264ZM683.802 439.8H682.266L676.154 451H677.69L683.802 439.8ZM686.202 448.536C686.202 446.728 684.858 445.832 683.466 445.832C682.074 445.832 680.746 446.728 680.746 448.536C680.746 450.344 682.074 451.24 683.466 451.24C684.858 451.24 686.202 450.344 686.202 448.536ZM682.042 448.536C682.042 447.384 682.682 446.952 683.466 446.952C684.25 446.952 684.922 447.384 684.922 448.536C684.922 449.688 684.25 450.12 683.466 450.12C682.682 450.12 682.042 449.688 682.042 448.536Z" fill="black" fill-opacity="0.6"/>
<rect x="715.724" y="430" width="49" height="32" rx="4" fill="#EDEDED"/>
<path d="M732.044 441.176V439.8H724.924V441.176H730.412L725.724 451H727.468L732.044 441.176ZM738.117 451.24C740.389 451.24 742.117 449.384 742.117 445.368C742.117 441.24 740.373 439.56 738.117 439.56C735.861 439.56 734.117 441.24 734.117 445.368C734.117 449.384 735.845 451.24 738.117 451.24ZM738.117 449.96C736.485 449.96 735.685 448.504 735.685 445.368C735.685 442.248 736.485 440.84 738.117 440.84C739.749 440.84 740.549 442.248 740.549 445.368C740.549 448.504 739.749 449.96 738.117 449.96ZM748.927 442.264C748.927 440.456 747.583 439.56 746.191 439.56C744.799 439.56 743.471 440.456 743.471 442.264C743.471 444.072 744.799 444.968 746.191 444.968C747.583 444.968 748.927 444.072 748.927 442.264ZM744.767 442.264C744.767 441.112 745.407 440.68 746.191 440.68C746.975 440.68 747.647 441.112 747.647 442.264C747.647 443.416 746.975 443.848 746.191 443.848C745.407 443.848 744.767 443.416 744.767 442.264ZM753.407 439.8H751.871L745.759 451H747.295L753.407 439.8ZM755.807 448.536C755.807 446.728 754.463 445.832 753.071 445.832C751.679 445.832 750.351 446.728 750.351 448.536C750.351 450.344 751.679 451.24 753.071 451.24C754.463 451.24 755.807 450.344 755.807 448.536ZM751.647 448.536C751.647 447.384 752.287 446.952 753.071 446.952C753.855 446.952 754.527 447.384 754.527 448.536C754.527 449.688 753.855 450.12 753.071 450.12C752.287 450.12 751.647 449.688 751.647 448.536Z" fill="black" fill-opacity="0.6"/>
<rect x="785.329" y="430" width="49" height="32" rx="4" fill="#EDEDED"/>
<path d="M801.793 442.44C801.793 440.408 800.049 439.56 798.129 439.56C796.209 439.56 794.465 440.488 794.465 442.552C794.465 443.976 795.393 444.728 796.241 445.128C795.233 445.512 794.049 446.376 794.049 448.088C794.049 449.912 795.681 451.24 798.129 451.24C800.577 451.24 802.209 449.88 802.209 447.976C802.209 446.392 801.009 445.496 799.953 445.032C800.833 444.568 801.793 443.72 801.793 442.44ZM800.577 447.976C800.577 449.144 799.761 449.976 798.129 449.976C796.465 449.976 795.681 449.064 795.681 447.976C795.681 446.568 796.865 445.88 797.793 445.608C799.041 445.88 800.577 446.2 800.577 447.976ZM795.969 442.472C795.969 441.32 796.961 440.76 798.129 440.76C799.297 440.76 800.257 441.416 800.257 442.472C800.257 443.656 799.265 444.312 798.449 444.632C797.489 444.504 795.969 444.168 795.969 442.472ZM807.722 451.24C809.994 451.24 811.722 449.384 811.722 445.368C811.722 441.24 809.978 439.56 807.722 439.56C805.466 439.56 803.722 441.24 803.722 445.368C803.722 449.384 805.45 451.24 807.722 451.24ZM807.722 449.96C806.09 449.96 805.29 448.504 805.29 445.368C805.29 442.248 806.09 440.84 807.722 440.84C809.354 440.84 810.154 442.248 810.154 445.368C810.154 448.504 809.354 449.96 807.722 449.96ZM818.532 442.264C818.532 440.456 817.188 439.56 815.796 439.56C814.404 439.56 813.076 440.456 813.076 442.264C813.076 444.072 814.404 444.968 815.796 444.968C817.188 444.968 818.532 444.072 818.532 442.264ZM814.372 442.264C814.372 441.112 815.012 440.68 815.796 440.68C816.58 440.68 817.252 441.112 817.252 442.264C817.252 443.416 816.58 443.848 815.796 443.848C815.012 443.848 814.372 443.416 814.372 442.264ZM823.012 439.8H821.476L815.364 451H816.9L823.012 439.8ZM825.412 448.536C825.412 446.728 824.068 445.832 822.676 445.832C821.284 445.832 819.956 446.728 819.956 448.536C819.956 450.344 821.284 451.24 822.676 451.24C824.068 451.24 825.412 450.344 825.412 448.536ZM821.252 448.536C821.252 447.384 821.892 446.952 822.676 446.952C823.46 446.952 824.132 447.384 824.132 448.536C824.132 449.688 823.46 450.12 822.676 450.12C821.892 450.12 821.252 449.688 821.252 448.536Z" fill="black" fill-opacity="0.6"/>
<rect x="854.934" y="430" width="49" height="32" rx="4" fill="#EDEDED"/>
<path d="M864.214 448.84C864.582 450.296 865.878 451.24 867.606 451.24C869.83 451.24 871.734 449.864 871.734 444.952C871.734 441.352 870.39 439.56 867.798 439.56C865.67 439.56 864.054 441.048 864.054 443.368C864.054 445.72 865.494 447.128 867.542 447.128C868.438 447.128 869.526 446.76 870.198 445.688C870.038 448.984 869.03 449.992 867.67 449.992C866.726 449.992 866.118 449.56 865.91 448.84H864.214ZM870.054 443.416C870.054 444.712 869.318 445.848 867.814 445.848C866.566 445.848 865.606 444.968 865.606 443.288C865.606 441.736 866.566 440.84 867.798 440.84C869.078 440.84 870.054 441.752 870.054 443.416ZM877.328 451.24C879.6 451.24 881.328 449.384 881.328 445.368C881.328 441.24 879.584 439.56 877.328 439.56C875.072 439.56 873.328 441.24 873.328 445.368C873.328 449.384 875.056 451.24 877.328 451.24ZM877.328 449.96C875.696 449.96 874.896 448.504 874.896 445.368C874.896 442.248 875.696 440.84 877.328 440.84C878.96 440.84 879.76 442.248 879.76 445.368C879.76 448.504 878.96 449.96 877.328 449.96ZM888.138 442.264C888.138 440.456 886.794 439.56 885.402 439.56C884.01 439.56 882.682 440.456 882.682 442.264C882.682 444.072 884.01 444.968 885.402 444.968C886.794 444.968 888.138 444.072 888.138 442.264ZM883.978 442.264C883.978 441.112 884.618 440.68 885.402 440.68C886.186 440.68 886.858 441.112 886.858 442.264C886.858 443.416 886.186 443.848 885.402 443.848C884.618 443.848 883.978 443.416 883.978 442.264ZM892.618 439.8H891.082L884.97 451H886.506L892.618 439.8ZM895.018 448.536C895.018 446.728 893.674 445.832 892.282 445.832C890.89 445.832 889.562 446.728 889.562 448.536C889.562 450.344 890.89 451.24 892.282 451.24C893.674 451.24 895.018 450.344 895.018 448.536ZM890.858 448.536C890.858 447.384 891.498 446.952 892.282 446.952C893.066 446.952 893.738 447.384 893.738 448.536C893.738 449.688 893.066 450.12 892.282 450.12C891.498 450.12 890.858 449.688 890.858 448.536Z" fill="black" fill-opacity="0.6"/>
<rect x="924.54" y="430" width="49" height="32" rx="4" fill="#EDEDED"/>
<path d="M933.82 448.84C934.188 450.296 935.484 451.24 937.212 451.24C939.436 451.24 941.34 449.864 941.34 444.952C941.34 441.352 939.996 439.56 937.404 439.56C935.276 439.56 933.66 441.048 933.66 443.368C933.66 445.72 935.1 447.128 937.148 447.128C938.044 447.128 939.132 446.76 939.804 445.688C939.644 448.984 938.636 449.992 937.276 449.992C936.332 449.992 935.724 449.56 935.516 448.84H933.82ZM939.66 443.416C939.66 444.712 938.924 445.848 937.42 445.848C936.172 445.848 935.212 444.968 935.212 443.288C935.212 441.736 936.172 440.84 937.404 440.84C938.684 440.84 939.66 441.752 939.66 443.416ZM942.949 448.28C943.205 449.8 944.629 451.24 946.933 451.24C949.493 451.24 950.965 449.448 950.965 447.368C950.965 444.856 949.285 443.56 947.333 443.56C946.293 443.56 945.509 443.88 944.885 444.376L945.013 441.096H950.501V439.8H943.621L943.381 445.784H944.741C945.349 445.064 946.213 444.76 946.981 444.76C948.421 444.76 949.381 445.656 949.381 447.304C949.381 448.984 948.325 449.944 946.949 449.944C945.589 449.944 944.789 449.192 944.581 448.28H942.949ZM957.743 442.264C957.743 440.456 956.399 439.56 955.007 439.56C953.615 439.56 952.287 440.456 952.287 442.264C952.287 444.072 953.615 444.968 955.007 444.968C956.399 444.968 957.743 444.072 957.743 442.264ZM953.583 442.264C953.583 441.112 954.223 440.68 955.007 440.68C955.791 440.68 956.463 441.112 956.463 442.264C956.463 443.416 955.791 443.848 955.007 443.848C954.223 443.848 953.583 443.416 953.583 442.264ZM962.223 439.8H960.687L954.575 451H956.111L962.223 439.8ZM964.623 448.536C964.623 446.728 963.279 445.832 961.887 445.832C960.495 445.832 959.167 446.728 959.167 448.536C959.167 450.344 960.495 451.24 961.887 451.24C963.279 451.24 964.623 450.344 964.623 448.536ZM960.463 448.536C960.463 447.384 961.103 446.952 961.887 446.952C962.671 446.952 963.343 447.384 963.343 448.536C963.343 449.688 962.671 450.12 961.887 450.12C961.103 450.12 960.463 449.688 960.463 448.536Z" fill="black" fill-opacity="0.6"/>
<rect x="89.7764" y="322.5" width="65.5789" height="87" rx="32.7895" stroke="black" stroke-opacity="0.4"/>
<rect x="158.882" y="322" width="66.5789" height="88" rx="33.2895" fill="black" fill-opacity="0.04"/>
<rect x="159.382" y="322.5" width="65.5789" height="87" rx="32.7895" stroke="black" stroke-opacity="0.4"/>
<rect x="228.487" y="322" width="66.5789" height="88" rx="33.2895" fill="black" fill-opacity="0.07"/>
<rect x="228.987" y="322.5" width="65.5789" height="87" rx="32.7895" stroke="black" stroke-opacity="0.4"/>
<rect x="298.092" y="322" width="66.5789" height="88" rx="33.2895" fill="black" fill-opacity="0.11"/>
<rect x="298.592" y="322.5" width="65.5789" height="87" rx="32.7895" stroke="black" stroke-opacity="0.4"/>
<rect x="367.698" y="322" width="66.5789" height="88" rx="33.2895" fill="black" fill-opacity="0.2"/>
<rect x="368.198" y="322.5" width="65.5789" height="87" rx="32.7895" stroke="black" stroke-opacity="0.4"/>
<rect x="437.302" y="322" width="66.5789" height="88" rx="33.2895" fill="black" fill-opacity="0.3"/>
<rect x="437.802" y="322.5" width="65.5789" height="87" rx="32.7895" stroke="black" stroke-opacity="0.4"/>
<rect x="506.908" y="322" width="66.5789" height="88" rx="33.2895" fill="black" fill-opacity="0.4"/>
<rect x="507.408" y="322.5" width="65.5789" height="87" rx="32.7895" stroke="black" stroke-opacity="0.4"/>
<rect x="576.513" y="322" width="66.5789" height="88" rx="33.2895" fill="black" fill-opacity="0.5"/>
<rect x="577.013" y="322.5" width="65.5789" height="87" rx="32.7895" stroke="black" stroke-opacity="0.4"/>
<rect x="646.118" y="322" width="66.5789" height="88" rx="33.2895" fill="black" fill-opacity="0.6"/>
<rect x="646.618" y="322.5" width="65.5789" height="87" rx="32.7895" stroke="black" stroke-opacity="0.4"/>
<rect x="715.724" y="322" width="66.5789" height="88" rx="33.2895" fill="black" fill-opacity="0.7"/>
<rect x="716.224" y="322.5" width="65.5789" height="87" rx="32.7895" stroke="black" stroke-opacity="0.4"/>
<rect x="785.329" y="322" width="66.5789" height="88" rx="33.2895" fill="black" fill-opacity="0.8"/>
<rect x="785.829" y="322.5" width="65.5789" height="87" rx="32.7895" stroke="black" stroke-opacity="0.4"/>
<rect x="854.934" y="322" width="66.5789" height="88" rx="33.2895" fill="black" fill-opacity="0.9"/>
<rect x="855.434" y="322.5" width="65.5789" height="87" rx="32.7895" stroke="black" stroke-opacity="0.4"/>
<rect x="924.54" y="322" width="66.5789" height="88" rx="33.2895" fill="black" fill-opacity="0.95"/>
<rect x="925.04" y="322.5" width="65.5789" height="87" rx="32.7895" stroke="black" stroke-opacity="0.4"/>
<rect x="994.145" y="322" width="66.5789" height="88" rx="33.2895" fill="black"/>
<rect x="994.645" y="322.5" width="65.5789" height="87" rx="32.7895" stroke="black" stroke-opacity="0.4"/>
<rect x="994.145" y="430" width="59" height="32" rx="4" fill="#EDEDED"/>
<path d="M1008.3 451V439.8H1006.8L1004.27 441.112V442.696L1006.78 441.4V451H1008.3ZM1016.54 451.24C1018.81 451.24 1020.54 449.384 1020.54 445.368C1020.54 441.24 1018.79 439.56 1016.54 439.56C1014.28 439.56 1012.54 441.24 1012.54 445.368C1012.54 449.384 1014.27 451.24 1016.54 451.24ZM1016.54 449.96C1014.91 449.96 1014.11 448.504 1014.11 445.368C1014.11 442.248 1014.91 440.84 1016.54 440.84C1018.17 440.84 1018.97 442.248 1018.97 445.368C1018.97 448.504 1018.17 449.96 1016.54 449.96ZM1026.13 451.24C1028.4 451.24 1030.13 449.384 1030.13 445.368C1030.13 441.24 1028.39 439.56 1026.13 439.56C1023.88 439.56 1022.13 441.24 1022.13 445.368C1022.13 449.384 1023.86 451.24 1026.13 451.24ZM1026.13 449.96C1024.5 449.96 1023.7 448.504 1023.7 445.368C1023.7 442.248 1024.5 440.84 1026.13 440.84C1027.76 440.84 1028.56 442.248 1028.56 445.368C1028.56 448.504 1027.76 449.96 1026.13 449.96ZM1036.94 442.264C1036.94 440.456 1035.6 439.56 1034.21 439.56C1032.81 439.56 1031.49 440.456 1031.49 442.264C1031.49 444.072 1032.81 444.968 1034.21 444.968C1035.6 444.968 1036.94 444.072 1036.94 442.264ZM1032.78 442.264C1032.78 441.112 1033.42 440.68 1034.21 440.68C1034.99 440.68 1035.66 441.112 1035.66 442.264C1035.66 443.416 1034.99 443.848 1034.21 443.848C1033.42 443.848 1032.78 443.416 1032.78 442.264ZM1041.42 439.8H1039.89L1033.77 451H1035.31L1041.42 439.8ZM1043.82 448.536C1043.82 446.728 1042.48 445.832 1041.09 445.832C1039.69 445.832 1038.37 446.728 1038.37 448.536C1038.37 450.344 1039.69 451.24 1041.09 451.24C1042.48 451.24 1043.82 450.344 1043.82 448.536ZM1039.66 448.536C1039.66 447.384 1040.3 446.952 1041.09 446.952C1041.87 446.952 1042.54 447.384 1042.54 448.536C1042.54 449.688 1041.87 450.12 1041.09 450.12C1040.3 450.12 1039.66 449.688 1039.66 448.536Z" fill="black" fill-opacity="0.6"/>
<defs>
<linearGradient id="paint0_linear_1817_41869" x1="711.505" y1="7.59465" x2="538.619" y2="611.018" gradientUnits="userSpaceOnUse">
<stop/>
<stop offset="1" stop-color="#5E5E5E"/>
</linearGradient>
</defs>
</svg>
