<svg width="559" height="354" viewBox="0 0 559 354" fill="none" xmlns="http://www.w3.org/2000/svg">
<rect width="559" height="354" rx="16" fill="#191919"/>
<g clip-path="url(#clip0_1821_6452)">
<rect x="213" y="110.5" width="133" height="133" rx="31.4254" fill="url(#paint0_linear_1821_6452)"/>
<g clip-path="url(#clip1_1821_6452)">
<path d="M257.682 218.676C236.309 218.676 229.034 191.645 227.404 186.387C223.311 173.183 222.066 161.289 221.935 160.04C221.175 152.838 226.951 147.826 233.291 147.826C238.092 147.826 243.663 150.699 244.401 157.671C244.529 158.844 245.505 168.958 248.957 179.978C252.56 191.479 256.383 195.902 259.135 195.902C263.58 195.902 266.292 184.485 268.69 173.614C270.456 165.605 272.366 157.534 276.135 150.366C282.694 137.894 292.604 134.991 301.166 134.991C319.94 134.991 329.335 156.743 329.335 162.378C329.335 171.796 321.654 174.198 318.325 174.198C311.044 174.198 308.575 169.319 306.498 165.043C304.629 161.195 302.677 157.996 300.154 157.996C299.324 157.996 298.556 158.416 297.845 159.139C291.573 165.514 289.47 198.863 276.93 211.61C269.977 218.676 262.413 218.676 257.682 218.676Z" fill="url(#paint1_linear_1821_6452)"/>
<path d="M257.682 218.676C236.309 218.676 229.034 191.645 227.404 186.387C223.311 173.183 222.066 161.289 221.935 160.04C221.175 152.838 226.951 147.826 233.291 147.826C238.092 147.826 243.663 150.699 244.401 157.671C244.529 158.844 245.505 168.958 248.957 179.978C252.56 191.479 256.383 195.902 259.135 195.902C263.58 195.902 266.292 184.485 268.69 173.614C270.456 165.605 272.366 157.534 276.135 150.366C282.694 137.894 292.604 134.991 301.166 134.991C319.94 134.991 329.335 156.743 329.335 162.378C329.335 171.796 321.654 174.198 318.325 174.198C311.044 174.198 308.575 169.319 306.498 165.043C304.629 161.195 302.677 157.996 300.154 157.996C299.324 157.996 298.556 158.416 297.845 159.139C291.573 165.514 289.47 198.863 276.93 211.61C269.977 218.676 262.413 218.676 257.682 218.676Z" fill="url(#paint2_radial_1821_6452)"/>
<path d="M257.682 218.676C236.309 218.676 229.034 191.645 227.404 186.387C223.311 173.183 222.066 161.289 221.935 160.04C221.175 152.838 226.951 147.826 233.291 147.826C238.092 147.826 243.663 150.699 244.401 157.671C244.529 158.844 245.505 168.958 248.957 179.978C252.56 191.479 256.383 195.902 259.135 195.902C263.58 195.902 266.292 184.485 268.69 173.614C270.456 165.605 272.366 157.534 276.135 150.366C282.694 137.894 292.604 134.991 301.166 134.991C319.94 134.991 329.335 156.743 329.335 162.378C329.335 171.796 321.654 174.198 318.325 174.198C311.044 174.198 308.575 169.319 306.498 165.043C304.629 161.195 302.677 157.996 300.154 157.996C299.324 157.996 298.556 158.416 297.845 159.139C291.573 165.514 289.47 198.863 276.93 211.61C269.977 218.676 262.413 218.676 257.682 218.676Z" fill="url(#paint3_radial_1821_6452)"/>
<path d="M257.682 218.676C236.309 218.676 229.034 191.645 227.404 186.387C223.311 173.183 222.066 161.289 221.935 160.04C221.175 152.838 226.951 147.826 233.291 147.826C238.092 147.826 243.663 150.699 244.401 157.671C244.529 158.844 245.505 168.958 248.957 179.978C252.56 191.479 256.383 195.902 259.135 195.902C263.58 195.902 266.292 184.485 268.69 173.614C270.456 165.605 272.366 157.534 276.135 150.366C282.694 137.894 292.604 134.991 301.166 134.991C319.94 134.991 329.335 156.743 329.335 162.378C329.335 171.796 321.654 174.198 318.325 174.198C311.044 174.198 308.575 169.319 306.498 165.043C304.629 161.195 302.677 157.996 300.154 157.996C299.324 157.996 298.556 158.416 297.845 159.139C291.573 165.514 289.47 198.863 276.93 211.61C269.977 218.676 262.413 218.676 257.682 218.676Z" fill="url(#paint4_radial_1821_6452)"/>
<path d="M257.682 218.676C236.309 218.676 229.034 191.645 227.404 186.387C223.311 173.183 222.066 161.289 221.935 160.04C221.175 152.838 226.951 147.826 233.291 147.826C238.092 147.826 243.663 150.699 244.401 157.671C244.529 158.844 245.505 168.958 248.957 179.978C252.56 191.479 256.383 195.902 259.135 195.902C263.58 195.902 266.292 184.485 268.69 173.614C270.456 165.605 272.366 157.534 276.135 150.366C282.694 137.894 292.604 134.991 301.166 134.991C319.94 134.991 329.335 156.743 329.335 162.378C329.335 171.796 321.654 174.198 318.325 174.198C311.044 174.198 308.575 169.319 306.498 165.043C304.629 161.195 302.677 157.996 300.154 157.996C299.324 157.996 298.556 158.416 297.845 159.139C291.573 165.514 289.47 198.863 276.93 211.61C269.977 218.676 262.413 218.676 257.682 218.676Z" fill="url(#paint5_radial_1821_6452)"/>
<path d="M257.682 218.676C236.309 218.676 229.034 191.645 227.404 186.387C223.311 173.183 222.066 161.289 221.935 160.04C221.175 152.838 226.951 147.826 233.291 147.826C238.092 147.826 243.663 150.699 244.401 157.671C244.529 158.844 245.505 168.958 248.957 179.978C252.56 191.479 256.383 195.902 259.135 195.902C263.58 195.902 266.292 184.485 268.69 173.614C270.456 165.605 272.366 157.534 276.135 150.366C282.694 137.894 292.604 134.991 301.166 134.991C319.94 134.991 329.335 156.743 329.335 162.378C329.335 171.796 321.654 174.198 318.325 174.198C311.044 174.198 308.575 169.319 306.498 165.043C304.629 161.195 302.677 157.996 300.154 157.996C299.324 157.996 298.556 158.416 297.845 159.139C291.573 165.514 289.47 198.863 276.93 211.61C269.977 218.676 262.413 218.676 257.682 218.676Z" fill="url(#paint6_radial_1821_6452)"/>
<path d="M257.682 218.676C236.309 218.676 229.034 191.645 227.404 186.387C223.311 173.183 222.066 161.289 221.935 160.04C221.175 152.838 226.951 147.826 233.291 147.826C238.092 147.826 243.663 150.699 244.401 157.671C244.529 158.844 245.505 168.958 248.957 179.978C252.56 191.479 256.383 195.902 259.135 195.902C263.58 195.902 266.292 184.485 268.69 173.614C270.456 165.605 272.366 157.534 276.135 150.366C282.694 137.894 292.604 134.991 301.166 134.991C319.94 134.991 329.335 156.743 329.335 162.378C329.335 171.796 321.654 174.198 318.325 174.198C311.044 174.198 308.575 169.319 306.498 165.043C304.629 161.195 302.677 157.996 300.154 157.996C299.324 157.996 298.556 158.416 297.845 159.139C291.573 165.514 289.47 198.863 276.93 211.61C269.977 218.676 262.413 218.676 257.682 218.676Z" fill="url(#paint7_radial_1821_6452)"/>
<path d="M257.682 218.676C236.309 218.676 229.034 191.645 227.404 186.387C223.311 173.183 222.066 161.289 221.935 160.04C221.175 152.838 226.951 147.826 233.291 147.826C238.092 147.826 243.663 150.699 244.401 157.671C244.529 158.844 245.505 168.958 248.957 179.978C252.56 191.479 256.383 195.902 259.135 195.902C263.58 195.902 266.292 184.485 268.69 173.614C270.456 165.605 272.366 157.534 276.135 150.366C282.694 137.894 292.604 134.991 301.166 134.991C319.94 134.991 329.335 156.743 329.335 162.378C329.335 171.796 321.654 174.198 318.325 174.198C311.044 174.198 308.575 169.319 306.498 165.043C304.629 161.195 302.677 157.996 300.154 157.996C299.324 157.996 298.556 158.416 297.845 159.139C291.573 165.514 289.47 198.863 276.93 211.61C269.977 218.676 262.413 218.676 257.682 218.676Z" fill="url(#paint8_linear_1821_6452)"/>
<path d="M257.682 218.676C236.309 218.676 229.034 191.645 227.404 186.387C223.311 173.183 222.066 161.289 221.935 160.04C221.175 152.838 226.951 147.826 233.291 147.826C238.092 147.826 243.663 150.699 244.401 157.671C244.529 158.844 245.505 168.958 248.957 179.978C252.56 191.479 256.383 195.902 259.135 195.902C263.58 195.902 266.292 184.485 268.69 173.614C270.456 165.605 272.366 157.534 276.135 150.366C282.694 137.894 292.604 134.991 301.166 134.991C319.94 134.991 329.335 156.743 329.335 162.378C329.335 171.796 321.654 174.198 318.325 174.198C311.044 174.198 308.575 169.319 306.498 165.043C304.629 161.195 302.677 157.996 300.154 157.996C299.324 157.996 298.556 158.416 297.845 159.139C291.573 165.514 289.47 198.863 276.93 211.61C269.977 218.676 262.413 218.676 257.682 218.676Z" fill="url(#paint9_radial_1821_6452)"/>
<path d="M301.167 134.991C292.606 134.991 282.695 137.894 276.137 150.366C272.367 157.534 270.458 165.605 268.691 173.614C268.11 176.25 267.51 178.917 266.872 181.446V217.683C270.111 216.767 273.592 215.003 276.931 211.61C289.471 198.863 291.575 165.514 297.847 159.139C298.557 158.416 299.326 157.996 300.155 157.996C302.678 157.996 304.63 161.195 306.499 165.043C308.577 169.319 311.045 174.198 318.327 174.198C321.656 174.198 329.337 171.796 329.337 162.378C329.337 156.743 319.941 134.991 301.167 134.991Z" fill="url(#paint10_radial_1821_6452)"/>
<path d="M257.682 218.676C236.309 218.676 229.034 191.645 227.404 186.387C223.311 173.183 222.066 161.289 221.935 160.04C221.175 152.838 226.951 147.826 233.291 147.826C238.092 147.826 243.663 150.699 244.401 157.671C244.529 158.844 245.505 168.958 248.957 179.978C252.56 191.479 256.383 195.902 259.135 195.902C263.58 195.902 266.292 184.485 268.69 173.614C270.456 165.605 272.366 157.534 276.135 150.366C282.694 137.894 292.604 134.991 301.166 134.991C319.94 134.991 329.335 156.743 329.335 162.378C329.335 171.796 321.654 174.198 318.325 174.198C311.044 174.198 308.575 169.319 306.498 165.043C304.629 161.195 302.677 157.996 300.154 157.996C299.324 157.996 298.556 158.416 297.845 159.139C291.573 165.514 289.47 198.863 276.93 211.61C269.977 218.676 262.413 218.676 257.682 218.676Z" fill="url(#paint11_radial_1821_6452)"/>
<path d="M257.682 218.676C236.309 218.676 229.034 191.645 227.404 186.387C223.311 173.183 222.066 161.289 221.935 160.04C221.175 152.838 226.951 147.826 233.291 147.826C238.092 147.826 243.663 150.699 244.401 157.671C244.529 158.844 245.505 168.958 248.957 179.978C252.56 191.479 256.383 195.902 259.135 195.902C263.58 195.902 266.292 184.485 268.69 173.614C270.456 165.605 272.366 157.534 276.135 150.366C282.694 137.894 292.604 134.991 301.166 134.991C319.94 134.991 329.335 156.743 329.335 162.378C329.335 171.796 321.654 174.198 318.325 174.198C311.044 174.198 308.575 169.319 306.498 165.043C304.629 161.195 302.677 157.996 300.154 157.996C299.324 157.996 298.556 158.416 297.845 159.139C291.573 165.514 289.47 198.863 276.93 211.61C269.977 218.676 262.413 218.676 257.682 218.676Z" fill="url(#paint12_radial_1821_6452)"/>
<path d="M257.682 218.676C236.309 218.676 229.034 191.645 227.404 186.387C223.311 173.183 222.066 161.289 221.935 160.04C221.175 152.838 226.951 147.826 233.291 147.826C238.092 147.826 243.663 150.699 244.401 157.671C244.529 158.844 245.505 168.958 248.957 179.978C252.56 191.479 256.383 195.902 259.135 195.902C263.58 195.902 266.292 184.485 268.69 173.614C270.456 165.605 272.366 157.534 276.135 150.366C282.694 137.894 292.604 134.991 301.166 134.991C319.94 134.991 329.335 156.743 329.335 162.378C329.335 171.796 321.654 174.198 318.325 174.198C311.044 174.198 308.575 169.319 306.498 165.043C304.629 161.195 302.677 157.996 300.154 157.996C299.324 157.996 298.556 158.416 297.845 159.139C291.573 165.514 289.47 198.863 276.93 211.61C269.977 218.676 262.413 218.676 257.682 218.676Z" fill="url(#paint13_radial_1821_6452)"/>
<path d="M257.682 218.676C236.309 218.676 229.034 191.645 227.404 186.387C223.311 173.183 222.066 161.289 221.935 160.04C221.175 152.838 226.951 147.826 233.291 147.826C238.092 147.826 243.663 150.699 244.401 157.671C244.529 158.844 245.505 168.958 248.957 179.978C252.56 191.479 256.383 195.902 259.135 195.902C263.58 195.902 266.292 184.485 268.69 173.614C270.456 165.605 272.366 157.534 276.135 150.366C282.694 137.894 292.604 134.991 301.166 134.991C319.94 134.991 329.335 156.743 329.335 162.378C329.335 171.796 321.654 174.198 318.325 174.198C311.044 174.198 308.575 169.319 306.498 165.043C304.629 161.195 302.677 157.996 300.154 157.996C299.324 157.996 298.556 158.416 297.845 159.139C291.573 165.514 289.47 198.863 276.93 211.61C269.977 218.676 262.413 218.676 257.682 218.676Z" fill="url(#paint14_radial_1821_6452)"/>
<path d="M257.682 218.676C236.309 218.676 229.034 191.645 227.404 186.387C223.311 173.183 222.066 161.289 221.935 160.04C221.175 152.838 226.951 147.826 233.291 147.826C238.092 147.826 243.663 150.699 244.401 157.671C244.529 158.844 245.505 168.958 248.957 179.978C252.56 191.479 256.383 195.902 259.135 195.902C263.58 195.902 266.292 184.485 268.69 173.614C270.456 165.605 272.366 157.534 276.135 150.366C282.694 137.894 292.604 134.991 301.166 134.991C319.94 134.991 329.335 156.743 329.335 162.378C329.335 171.796 321.654 174.198 318.325 174.198C311.044 174.198 308.575 169.319 306.498 165.043C304.629 161.195 302.677 157.996 300.154 157.996C299.324 157.996 298.556 158.416 297.845 159.139C291.573 165.514 289.47 198.863 276.93 211.61C269.977 218.676 262.413 218.676 257.682 218.676Z" fill="url(#paint15_radial_1821_6452)"/>
<path d="M325.874 147.826C325.028 147.826 324.176 147.905 323.342 148.07C327.31 153.792 329.296 159.787 329.296 162.377C329.296 171.795 321.614 174.197 318.285 174.197C315.687 174.197 313.702 173.576 312.129 172.583C312.114 172.642 312.1 172.7 312.085 172.759C311.617 174.628 311.248 176.674 310.609 178.665C309.38 182.492 307.722 186.865 305.951 190.248C304.043 193.895 302.154 196.029 299.902 195.917C297.341 195.79 295.264 192.489 292.683 183.159C291.851 180.151 291.08 176.853 290.366 173.614C288.595 165.581 286.42 157.504 282.702 150.366C276.629 138.707 266.27 134.991 257.999 134.991C250.329 134.991 244.599 138.623 240.097 143.198C238.853 144.463 237.494 146.166 236.129 148.168C240.056 149.114 243.768 152.069 244.361 157.671C244.478 158.738 245.297 167.221 248.05 177.05C248.84 174.586 249.992 170.936 252.667 165.043C253.978 162.343 255.162 160.564 256.229 159.479C257.209 158.483 258.09 158.072 258.884 158.072C259.741 158.072 262.664 158.856 265.51 168.844C269.04 181.229 271.667 200.94 281.675 211.405C286.09 216.022 292.267 219.009 300.829 219.009C308.341 219.009 314.604 215.7 319.069 211.098C326.412 203.53 330.435 191.017 331.87 186.387C335.953 173.214 337.097 161.301 337.23 160.04C337.99 152.838 331.923 147.826 325.874 147.826Z" fill="#316AFF"/>
<path d="M325.874 147.826C325.028 147.826 324.176 147.905 323.342 148.07C327.31 153.792 329.296 159.787 329.296 162.377C329.296 171.795 321.614 174.197 318.285 174.197C315.687 174.197 313.702 173.576 312.129 172.583C312.114 172.642 312.1 172.7 312.085 172.759C311.617 174.628 311.248 176.674 310.609 178.665C309.38 182.492 307.722 186.865 305.951 190.248C304.043 193.895 302.154 196.029 299.902 195.917C297.341 195.79 295.264 192.489 292.683 183.159C291.851 180.151 291.08 176.853 290.366 173.614C288.595 165.581 286.42 157.504 282.702 150.366C276.629 138.707 266.27 134.991 257.999 134.991C250.329 134.991 244.599 138.623 240.097 143.198C238.853 144.463 237.494 146.166 236.129 148.168C240.056 149.114 243.768 152.069 244.361 157.671C244.478 158.738 245.297 167.221 248.05 177.05C248.84 174.586 249.992 170.936 252.667 165.043C253.978 162.343 255.162 160.564 256.229 159.479C257.209 158.483 258.09 158.072 258.884 158.072C259.741 158.072 262.664 158.856 265.51 168.844C269.04 181.229 271.667 200.94 281.675 211.405C286.09 216.022 292.267 219.009 300.829 219.009C308.341 219.009 314.604 215.7 319.069 211.098C326.412 203.53 330.435 191.017 331.87 186.387C335.953 173.214 337.097 161.301 337.23 160.04C337.99 152.838 331.923 147.826 325.874 147.826Z" fill="url(#paint16_radial_1821_6452)"/>
<path d="M325.874 147.826C325.028 147.826 324.176 147.905 323.342 148.07C327.31 153.792 329.296 159.787 329.296 162.377C329.296 171.795 321.614 174.197 318.285 174.197C315.687 174.197 313.702 173.576 312.129 172.583C312.114 172.642 312.1 172.7 312.085 172.759C311.617 174.628 311.248 176.674 310.609 178.665C309.38 182.492 307.722 186.865 305.951 190.248C304.043 193.895 302.154 196.029 299.902 195.917C297.341 195.79 295.264 192.489 292.683 183.159C291.851 180.151 291.08 176.853 290.366 173.614C288.595 165.581 286.42 157.504 282.702 150.366C276.629 138.707 266.27 134.991 257.999 134.991C250.329 134.991 244.599 138.623 240.097 143.198C238.853 144.463 237.494 146.166 236.129 148.168C240.056 149.114 243.768 152.069 244.361 157.671C244.478 158.738 245.297 167.221 248.05 177.05C248.84 174.586 249.992 170.936 252.667 165.043C253.978 162.343 255.162 160.564 256.229 159.479C257.209 158.483 258.09 158.072 258.884 158.072C259.741 158.072 262.664 158.856 265.51 168.844C269.04 181.229 271.667 200.94 281.675 211.405C286.09 216.022 292.267 219.009 300.829 219.009C308.341 219.009 314.604 215.7 319.069 211.098C326.412 203.53 330.435 191.017 331.87 186.387C335.953 173.214 337.097 161.301 337.23 160.04C337.99 152.838 331.923 147.826 325.874 147.826Z" fill="url(#paint17_radial_1821_6452)"/>
<path d="M325.874 147.826C325.028 147.826 324.176 147.905 323.342 148.07C327.31 153.792 329.296 159.787 329.296 162.377C329.296 171.795 321.614 174.197 318.285 174.197C315.687 174.197 313.702 173.576 312.129 172.583C312.114 172.642 312.1 172.7 312.085 172.759C311.617 174.628 311.248 176.674 310.609 178.665C309.38 182.492 307.722 186.865 305.951 190.248C304.043 193.895 302.154 196.029 299.902 195.917C297.341 195.79 295.264 192.489 292.683 183.159C291.851 180.151 291.08 176.853 290.366 173.614C288.595 165.581 286.42 157.504 282.702 150.366C276.629 138.707 266.27 134.991 257.999 134.991C250.329 134.991 244.599 138.623 240.097 143.198C238.853 144.463 237.494 146.166 236.129 148.168C240.056 149.114 243.768 152.069 244.361 157.671C244.478 158.738 245.297 167.221 248.05 177.05C248.84 174.586 249.992 170.936 252.667 165.043C253.978 162.343 255.162 160.564 256.229 159.479C257.209 158.483 258.09 158.072 258.884 158.072C259.741 158.072 262.664 158.856 265.51 168.844C269.04 181.229 271.667 200.94 281.675 211.405C286.09 216.022 292.267 219.009 300.829 219.009C308.341 219.009 314.604 215.7 319.069 211.098C326.412 203.53 330.435 191.017 331.87 186.387C335.953 173.214 337.097 161.301 337.23 160.04C337.99 152.838 331.923 147.826 325.874 147.826Z" fill="url(#paint18_radial_1821_6452)"/>
<path d="M325.874 147.826C325.028 147.826 324.176 147.905 323.342 148.07C327.31 153.792 329.296 159.787 329.296 162.377C329.296 171.795 321.614 174.197 318.285 174.197C315.687 174.197 313.702 173.576 312.129 172.583C312.114 172.642 312.1 172.7 312.085 172.759C311.617 174.628 311.248 176.674 310.609 178.665C309.38 182.492 307.722 186.865 305.951 190.248C304.043 193.895 302.154 196.029 299.902 195.917C297.341 195.79 295.264 192.489 292.683 183.159C291.851 180.151 291.08 176.853 290.366 173.614C288.595 165.581 286.42 157.504 282.702 150.366C276.629 138.707 266.27 134.991 257.999 134.991C250.329 134.991 244.599 138.623 240.097 143.198C238.853 144.463 237.494 146.166 236.129 148.168C240.056 149.114 243.768 152.069 244.361 157.671C244.478 158.738 245.297 167.221 248.05 177.05C248.84 174.586 249.992 170.936 252.667 165.043C253.978 162.343 255.162 160.564 256.229 159.479C257.209 158.483 258.09 158.072 258.884 158.072C259.741 158.072 262.664 158.856 265.51 168.844C269.04 181.229 271.667 200.94 281.675 211.405C286.09 216.022 292.267 219.009 300.829 219.009C308.341 219.009 314.604 215.7 319.069 211.098C326.412 203.53 330.435 191.017 331.87 186.387C335.953 173.214 337.097 161.301 337.23 160.04C337.99 152.838 331.923 147.826 325.874 147.826Z" fill="url(#paint19_radial_1821_6452)"/>
<path d="M325.874 147.826C325.028 147.826 324.176 147.905 323.342 148.07C327.31 153.792 329.296 159.787 329.296 162.377C329.296 171.795 321.614 174.197 318.285 174.197C315.687 174.197 313.702 173.576 312.129 172.583C312.114 172.642 312.1 172.7 312.085 172.759C311.617 174.628 311.248 176.674 310.609 178.665C309.38 182.492 307.722 186.865 305.951 190.248C304.043 193.895 302.154 196.029 299.902 195.917C297.341 195.79 295.264 192.489 292.683 183.159C291.851 180.151 291.08 176.853 290.366 173.614C288.595 165.581 286.42 157.504 282.702 150.366C276.629 138.707 266.27 134.991 257.999 134.991C250.329 134.991 244.599 138.623 240.097 143.198C238.853 144.463 237.494 146.166 236.129 148.168C240.056 149.114 243.768 152.069 244.361 157.671C244.478 158.738 245.297 167.221 248.05 177.05C248.84 174.586 249.992 170.936 252.667 165.043C253.978 162.343 255.162 160.564 256.229 159.479C257.209 158.483 258.09 158.072 258.884 158.072C259.741 158.072 262.664 158.856 265.51 168.844C269.04 181.229 271.667 200.94 281.675 211.405C286.09 216.022 292.267 219.009 300.829 219.009C308.341 219.009 314.604 215.7 319.069 211.098C326.412 203.53 330.435 191.017 331.87 186.387C335.953 173.214 337.097 161.301 337.23 160.04C337.99 152.838 331.923 147.826 325.874 147.826Z" fill="url(#paint20_radial_1821_6452)"/>
<path d="M325.874 147.826C325.028 147.826 324.176 147.905 323.342 148.07C327.31 153.792 329.296 159.787 329.296 162.377C329.296 171.795 321.614 174.197 318.285 174.197C315.687 174.197 313.702 173.576 312.129 172.583C312.114 172.642 312.1 172.7 312.085 172.759C311.617 174.628 311.248 176.674 310.609 178.665C309.38 182.492 307.722 186.865 305.951 190.248C304.043 193.895 302.154 196.029 299.902 195.917C297.341 195.79 295.264 192.489 292.683 183.159C291.851 180.151 291.08 176.853 290.366 173.614C288.595 165.581 286.42 157.504 282.702 150.366C276.629 138.707 266.27 134.991 257.999 134.991C250.329 134.991 244.599 138.623 240.097 143.198C238.853 144.463 237.494 146.166 236.129 148.168C240.056 149.114 243.768 152.069 244.361 157.671C244.478 158.738 245.297 167.221 248.05 177.05C248.84 174.586 249.992 170.936 252.667 165.043C253.978 162.343 255.162 160.564 256.229 159.479C257.209 158.483 258.09 158.072 258.884 158.072C259.741 158.072 262.664 158.856 265.51 168.844C269.04 181.229 271.667 200.94 281.675 211.405C286.09 216.022 292.267 219.009 300.829 219.009C308.341 219.009 314.604 215.7 319.069 211.098C326.412 203.53 330.435 191.017 331.87 186.387C335.953 173.214 337.097 161.301 337.23 160.04C337.99 152.838 331.923 147.826 325.874 147.826Z" fill="url(#paint21_radial_1821_6452)"/>
<path d="M325.874 147.826C325.028 147.826 324.176 147.905 323.342 148.07C327.31 153.792 329.296 159.787 329.296 162.377C329.296 171.795 321.614 174.197 318.285 174.197C315.687 174.197 313.702 173.576 312.129 172.583C312.114 172.642 312.1 172.7 312.085 172.759C311.617 174.628 311.248 176.674 310.609 178.665C309.38 182.492 307.722 186.865 305.951 190.248C304.043 193.895 302.154 196.029 299.902 195.917C297.341 195.79 295.264 192.489 292.683 183.159C291.851 180.151 291.08 176.853 290.366 173.614C288.595 165.581 286.42 157.504 282.702 150.366C276.629 138.707 266.27 134.991 257.999 134.991C250.329 134.991 244.599 138.623 240.097 143.198C238.853 144.463 237.494 146.166 236.129 148.168C240.056 149.114 243.768 152.069 244.361 157.671C244.478 158.738 245.297 167.221 248.05 177.05C248.84 174.586 249.992 170.936 252.667 165.043C253.978 162.343 255.162 160.564 256.229 159.479C257.209 158.483 258.09 158.072 258.884 158.072C259.741 158.072 262.664 158.856 265.51 168.844C269.04 181.229 271.667 200.94 281.675 211.405C286.09 216.022 292.267 219.009 300.829 219.009C308.341 219.009 314.604 215.7 319.069 211.098C326.412 203.53 330.435 191.017 331.87 186.387C335.953 173.214 337.097 161.301 337.23 160.04C337.99 152.838 331.923 147.826 325.874 147.826Z" fill="url(#paint22_radial_1821_6452)"/>
<path d="M325.874 147.826C325.028 147.826 324.176 147.905 323.342 148.07C327.31 153.792 329.296 159.787 329.296 162.377C329.296 171.795 321.614 174.197 318.285 174.197C315.687 174.197 313.702 173.576 312.129 172.583C312.114 172.642 312.1 172.7 312.085 172.759C311.617 174.628 311.248 176.674 310.609 178.665C309.38 182.492 307.722 186.865 305.951 190.248C304.043 193.895 302.154 196.029 299.902 195.917C297.341 195.79 295.264 192.489 292.683 183.159C291.851 180.151 291.08 176.853 290.366 173.614C288.595 165.581 286.42 157.504 282.702 150.366C276.629 138.707 266.27 134.991 257.999 134.991C250.329 134.991 244.599 138.623 240.097 143.198C238.853 144.463 237.494 146.166 236.129 148.168C240.056 149.114 243.768 152.069 244.361 157.671C244.478 158.738 245.297 167.221 248.05 177.05C248.84 174.586 249.992 170.936 252.667 165.043C253.978 162.343 255.162 160.564 256.229 159.479C257.209 158.483 258.09 158.072 258.884 158.072C259.741 158.072 262.664 158.856 265.51 168.844C269.04 181.229 271.667 200.94 281.675 211.405C286.09 216.022 292.267 219.009 300.829 219.009C308.341 219.009 314.604 215.7 319.069 211.098C326.412 203.53 330.435 191.017 331.87 186.387C335.953 173.214 337.097 161.301 337.23 160.04C337.99 152.838 331.923 147.826 325.874 147.826Z" fill="url(#paint23_radial_1821_6452)"/>
<path d="M325.874 147.826C325.028 147.826 324.176 147.905 323.342 148.07C327.31 153.792 329.296 159.787 329.296 162.377C329.296 171.795 321.614 174.197 318.285 174.197C315.687 174.197 313.702 173.576 312.129 172.583C312.114 172.642 312.1 172.7 312.085 172.759C311.617 174.628 311.248 176.674 310.609 178.665C309.38 182.492 307.722 186.865 305.951 190.248C304.043 193.895 302.154 196.029 299.902 195.917C297.341 195.79 295.264 192.489 292.683 183.159C291.851 180.151 291.08 176.853 290.366 173.614C288.595 165.581 286.42 157.504 282.702 150.366C276.629 138.707 266.27 134.991 257.999 134.991C250.329 134.991 244.599 138.623 240.097 143.198C238.853 144.463 237.494 146.166 236.129 148.168C240.056 149.114 243.768 152.069 244.361 157.671C244.478 158.738 245.297 167.221 248.05 177.05C248.84 174.586 249.992 170.936 252.667 165.043C253.978 162.343 255.162 160.564 256.229 159.479C257.209 158.483 258.09 158.072 258.884 158.072C259.741 158.072 262.664 158.856 265.51 168.844C269.04 181.229 271.667 200.94 281.675 211.405C286.09 216.022 292.267 219.009 300.829 219.009C308.341 219.009 314.604 215.7 319.069 211.098C326.412 203.53 330.435 191.017 331.87 186.387C335.953 173.214 337.097 161.301 337.23 160.04C337.99 152.838 331.923 147.826 325.874 147.826Z" fill="url(#paint24_radial_1821_6452)"/>
<path d="M325.874 147.826C325.028 147.826 324.176 147.905 323.342 148.07C327.31 153.792 329.296 159.787 329.296 162.377C329.296 171.795 321.614 174.197 318.285 174.197C315.687 174.197 313.702 173.576 312.129 172.583C312.114 172.642 312.1 172.7 312.085 172.759C311.617 174.628 311.248 176.674 310.609 178.665C309.38 182.492 307.722 186.865 305.951 190.248C304.043 193.895 302.154 196.029 299.902 195.917C297.341 195.79 295.264 192.489 292.683 183.159C291.851 180.151 291.08 176.853 290.366 173.614C288.595 165.581 286.42 157.504 282.702 150.366C276.629 138.707 266.27 134.991 257.999 134.991C250.329 134.991 244.599 138.623 240.097 143.198C238.853 144.463 237.494 146.166 236.129 148.168C240.056 149.114 243.768 152.069 244.361 157.671C244.478 158.738 245.297 167.221 248.05 177.05C248.84 174.586 249.992 170.936 252.667 165.043C253.978 162.343 255.162 160.564 256.229 159.479C257.209 158.483 258.09 158.072 258.884 158.072C259.741 158.072 262.664 158.856 265.51 168.844C269.04 181.229 271.667 200.94 281.675 211.405C286.09 216.022 292.267 219.009 300.829 219.009C308.341 219.009 314.604 215.7 319.069 211.098C326.412 203.53 330.435 191.017 331.87 186.387C335.953 173.214 337.097 161.301 337.23 160.04C337.99 152.838 331.923 147.826 325.874 147.826Z" fill="url(#paint25_radial_1821_6452)"/>
<path d="M257.682 218.676C236.309 218.676 229.034 191.645 227.404 186.387C223.311 173.183 222.066 161.289 221.935 160.04C221.175 152.838 226.951 147.826 233.291 147.826C238.092 147.826 243.663 150.699 244.401 157.671C244.529 158.844 245.505 168.958 248.957 179.978C252.56 191.479 256.383 195.902 259.135 195.902C263.58 195.902 266.292 184.485 268.69 173.614C270.456 165.605 272.366 157.534 276.135 150.366C282.694 137.894 292.604 134.991 301.166 134.991C319.94 134.991 329.335 156.743 329.335 162.378C329.335 171.796 321.654 174.198 318.325 174.198C311.044 174.198 308.575 169.319 306.498 165.043C304.629 161.195 302.677 157.996 300.154 157.996C299.324 157.996 298.556 158.416 297.845 159.139C291.573 165.514 289.47 198.863 276.93 211.61C269.977 218.676 262.413 218.676 257.682 218.676Z" fill="url(#paint26_linear_1821_6452)"/>
<path d="M257.682 218.676C236.309 218.676 229.034 191.645 227.404 186.387C223.311 173.183 222.066 161.289 221.935 160.04C221.175 152.838 226.951 147.826 233.291 147.826C238.092 147.826 243.663 150.699 244.401 157.671C244.529 158.844 245.505 168.958 248.957 179.978C252.56 191.479 256.383 195.902 259.135 195.902C263.58 195.902 266.292 184.485 268.69 173.614C270.456 165.605 272.366 157.534 276.135 150.366C282.694 137.894 292.604 134.991 301.166 134.991C319.94 134.991 329.335 156.743 329.335 162.378C329.335 171.796 321.654 174.198 318.325 174.198C311.044 174.198 308.575 169.319 306.498 165.043C304.629 161.195 302.677 157.996 300.154 157.996C299.324 157.996 298.556 158.416 297.845 159.139C291.573 165.514 289.47 198.863 276.93 211.61C269.977 218.676 262.413 218.676 257.682 218.676Z" fill="url(#paint27_radial_1821_6452)"/>
<path d="M257.682 218.676C236.309 218.676 229.034 191.645 227.404 186.387C223.311 173.183 222.066 161.289 221.935 160.04C221.175 152.838 226.951 147.826 233.291 147.826C238.092 147.826 243.663 150.699 244.401 157.671C244.529 158.844 245.505 168.958 248.957 179.978C252.56 191.479 256.383 195.902 259.135 195.902C263.58 195.902 266.292 184.485 268.69 173.614C270.456 165.605 272.366 157.534 276.135 150.366C282.694 137.894 292.604 134.991 301.166 134.991C319.94 134.991 329.335 156.743 329.335 162.378C329.335 171.796 321.654 174.198 318.325 174.198C311.044 174.198 308.575 169.319 306.498 165.043C304.629 161.195 302.677 157.996 300.154 157.996C299.324 157.996 298.556 158.416 297.845 159.139C291.573 165.514 289.47 198.863 276.93 211.61C269.977 218.676 262.413 218.676 257.682 218.676Z" fill="url(#paint28_linear_1821_6452)"/>
<path d="M257.682 218.676C236.309 218.676 229.034 191.645 227.404 186.387C223.311 173.183 222.066 161.289 221.935 160.04C221.175 152.838 226.951 147.826 233.291 147.826C238.092 147.826 243.663 150.699 244.401 157.671C244.529 158.844 245.505 168.958 248.957 179.978C252.56 191.479 256.383 195.902 259.135 195.902C263.58 195.902 266.292 184.485 268.69 173.614C270.456 165.605 272.366 157.534 276.135 150.366C282.694 137.894 292.604 134.991 301.166 134.991C319.94 134.991 329.335 156.743 329.335 162.378C329.335 171.796 321.654 174.198 318.325 174.198C311.044 174.198 308.575 169.319 306.498 165.043C304.629 161.195 302.677 157.996 300.154 157.996C299.324 157.996 298.556 158.416 297.845 159.139C291.573 165.514 289.47 198.863 276.93 211.61C269.977 218.676 262.413 218.676 257.682 218.676Z" fill="url(#paint29_linear_1821_6452)"/>
<path d="M257.682 218.676C236.309 218.676 229.034 191.645 227.404 186.387C223.311 173.183 222.066 161.289 221.935 160.04C221.175 152.838 226.951 147.826 233.291 147.826C238.092 147.826 243.663 150.699 244.401 157.671C244.529 158.844 245.505 168.958 248.957 179.978C252.56 191.479 256.383 195.902 259.135 195.902C263.58 195.902 266.292 184.485 268.69 173.614C270.456 165.605 272.366 157.534 276.135 150.366C282.694 137.894 292.604 134.991 301.166 134.991C319.94 134.991 329.335 156.743 329.335 162.378C329.335 171.796 321.654 174.198 318.325 174.198C311.044 174.198 308.575 169.319 306.498 165.043C304.629 161.195 302.677 157.996 300.154 157.996C299.324 157.996 298.556 158.416 297.845 159.139C291.573 165.514 289.47 198.863 276.93 211.61C269.977 218.676 262.413 218.676 257.682 218.676Z" fill="url(#paint30_radial_1821_6452)"/>
</g>
<path d="M291.665 204.877C291.665 196.199 298.699 189.164 307.377 189.164H346V212.074C346 229.43 331.93 243.5 314.575 243.5H291.665V204.877Z" fill="white"/>
<path d="M333.935 208.921C333.67 208.757 333.365 208.666 333.053 208.658C332.741 208.649 332.433 208.723 332.158 208.872L327.692 211.712V209.247C327.69 207.838 327.13 206.487 326.133 205.491C325.137 204.495 323.786 203.934 322.377 203.933H308.205C306.796 203.934 305.445 204.495 304.449 205.491C303.453 206.487 302.892 207.838 302.891 209.247V223.419C302.892 224.828 303.453 226.179 304.449 227.175C305.445 228.171 306.796 228.732 308.205 228.733H322.377C323.786 228.732 325.137 228.171 326.133 227.175C327.13 226.179 327.69 224.828 327.692 223.419V220.951L332.211 223.821C332.458 223.945 332.729 224.009 333.005 224.01C333.474 224.009 333.924 223.821 334.256 223.489C334.588 223.157 334.774 222.707 334.775 222.237V210.427C334.777 210.125 334.7 209.828 334.553 209.564C334.406 209.3 334.193 209.079 333.935 208.921Z" fill="#27A17A"/>
</g>
<defs>
<linearGradient id="paint0_linear_1821_6452" x1="279.5" y1="110.5" x2="279.5" y2="243.5" gradientUnits="userSpaceOnUse">
<stop stop-color="#313131"/>
<stop offset="1" stop-color="#070707"/>
<stop offset="1" stop-color="#020202"/>
</linearGradient>
<linearGradient id="paint1_linear_1821_6452" x1="317.641" y1="159.544" x2="242.138" y2="184.306" gradientUnits="userSpaceOnUse">
<stop stop-color="#5CEE64"/>
<stop offset="1" stop-color="#00BBFF"/>
</linearGradient>
<radialGradient id="paint2_radial_1821_6452" cx="0" cy="0" r="1" gradientUnits="userSpaceOnUse" gradientTransform="translate(265.802 179.619) rotate(-120.86) scale(49.4623 41.5231)">
<stop stop-color="#007383"/>
<stop offset="0.407867" stop-color="#00717E" stop-opacity="0.75"/>
<stop offset="0.874482" stop-color="#007281" stop-opacity="0"/>
</radialGradient>
<radialGradient id="paint3_radial_1821_6452" cx="0" cy="0" r="1" gradientUnits="userSpaceOnUse" gradientTransform="translate(298.3 170.415) rotate(-126.734) scale(40.3385 26.5045)">
<stop stop-color="#218970"/>
<stop offset="0.459527" stop-color="#267E6A"/>
<stop offset="1" stop-color="#026C51" stop-opacity="0"/>
</radialGradient>
<radialGradient id="paint4_radial_1821_6452" cx="0" cy="0" r="1" gradientUnits="userSpaceOnUse" gradientTransform="translate(262.953 181.955) rotate(-107.468) scale(32.8535 17.1157)">
<stop stop-color="#178697"/>
<stop offset="0.407867" stop-color="#17838F" stop-opacity="0.79"/>
<stop offset="0.874482" stop-color="#007281" stop-opacity="0"/>
</radialGradient>
<radialGradient id="paint5_radial_1821_6452" cx="0" cy="0" r="1" gradientUnits="userSpaceOnUse" gradientTransform="translate(277.56 181.78) rotate(-120.86) scale(83.4304 25.7354)">
<stop stop-color="#25342F" stop-opacity="0.3"/>
<stop offset="1" stop-color="#25342F" stop-opacity="0"/>
</radialGradient>
<radialGradient id="paint6_radial_1821_6452" cx="0" cy="0" r="1" gradientUnits="userSpaceOnUse" gradientTransform="translate(292.442 171.33) rotate(85.0979) scale(31.4223 17.8223)">
<stop stop-color="#056D4F"/>
<stop offset="0.232593" stop-color="#056C4E" stop-opacity="0.75"/>
<stop offset="0.598902" stop-color="#056C4E" stop-opacity="0.300824"/>
<stop offset="0.874482" stop-color="#056C4F" stop-opacity="0"/>
</radialGradient>
<radialGradient id="paint7_radial_1821_6452" cx="0" cy="0" r="1" gradientUnits="userSpaceOnUse" gradientTransform="translate(293.832 120.512) rotate(57.0774) scale(36.9375 19.3737)">
<stop stop-color="#22B67B"/>
<stop offset="0.407867" stop-color="#24BE82"/>
<stop offset="1" stop-color="#24BE82" stop-opacity="0.07"/>
</radialGradient>
<linearGradient id="paint8_linear_1821_6452" x1="193.467" y1="176.104" x2="246.974" y2="176.543" gradientUnits="userSpaceOnUse">
<stop stop-color="#09F8FF"/>
<stop offset="1" stop-color="#0BF7F9" stop-opacity="0"/>
</linearGradient>
<radialGradient id="paint9_radial_1821_6452" cx="0" cy="0" r="1" gradientUnits="userSpaceOnUse" gradientTransform="translate(204.962 127.909) rotate(49.6506) scale(48.2424 48.1219)">
<stop stop-color="#09F8FF"/>
<stop offset="1" stop-color="#0BF7F9" stop-opacity="0"/>
</radialGradient>
<radialGradient id="paint10_radial_1821_6452" cx="0" cy="0" r="1" gradientUnits="userSpaceOnUse" gradientTransform="translate(243.607 103.621) rotate(48.0118) scale(97.8453 97.6911)">
<stop stop-color="#00B8FF"/>
<stop offset="0.745423" stop-color="#00B9FC" stop-opacity="0"/>
</radialGradient>
<radialGradient id="paint11_radial_1821_6452" cx="0" cy="0" r="1" gradientUnits="userSpaceOnUse" gradientTransform="translate(248.786 177.009) rotate(-107.468) scale(47.1626 32.6784)">
<stop stop-color="#00BCFF" stop-opacity="0.76"/>
<stop offset="0.57273" stop-color="#00BAFC" stop-opacity="0"/>
</radialGradient>
<radialGradient id="paint12_radial_1821_6452" cx="0" cy="0" r="1" gradientUnits="userSpaceOnUse" gradientTransform="translate(320.486 159.096) rotate(-129.551) scale(33.3506 23.3487)">
<stop stop-color="#5FEC50"/>
<stop offset="1" stop-color="#3CC08E" stop-opacity="0"/>
</radialGradient>
<radialGradient id="paint13_radial_1821_6452" cx="0" cy="0" r="1" gradientUnits="userSpaceOnUse" gradientTransform="translate(315.713 180.577) rotate(-79.0944) scale(10.0968 6.98341)">
<stop stop-color="#28855B"/>
<stop offset="1" stop-color="#14795C" stop-opacity="0"/>
</radialGradient>
<radialGradient id="paint14_radial_1821_6452" cx="0" cy="0" r="1" gradientUnits="userSpaceOnUse" gradientTransform="translate(315.226 179.834) rotate(-77.8798) scale(8.32363 11.6326)">
<stop stop-color="#28855B"/>
<stop offset="1" stop-color="#14795C" stop-opacity="0"/>
</radialGradient>
<radialGradient id="paint15_radial_1821_6452" cx="0" cy="0" r="1" gradientUnits="userSpaceOnUse" gradientTransform="translate(325.142 164.839) rotate(-132.79) scale(27.6115 19.3974)">
<stop stop-color="#5FF05B"/>
<stop offset="0.813285" stop-color="#5DE955" stop-opacity="0"/>
</radialGradient>
<radialGradient id="paint16_radial_1821_6452" cx="0" cy="0" r="1" gradientUnits="userSpaceOnUse" gradientTransform="translate(316.506 172.77) rotate(37.4559) scale(24.5558 34.132)">
<stop stop-color="#123AA8"/>
<stop offset="0.966119" stop-color="#123AA8" stop-opacity="0"/>
</radialGradient>
<radialGradient id="paint17_radial_1821_6452" cx="0" cy="0" r="1" gradientUnits="userSpaceOnUse" gradientTransform="translate(310.397 175.537) rotate(8.48611) scale(28.9735 43.2473)">
<stop stop-color="#123AA8"/>
<stop offset="0.592487" stop-color="#123AA8" stop-opacity="0"/>
</radialGradient>
<radialGradient id="paint18_radial_1821_6452" cx="0" cy="0" r="1" gradientUnits="userSpaceOnUse" gradientTransform="translate(312.748 179.131) rotate(24.6631) scale(24.7496 44.1012)">
<stop stop-color="#123AA8"/>
<stop offset="0.756788" stop-color="#123AA8" stop-opacity="0"/>
</radialGradient>
<radialGradient id="paint19_radial_1821_6452" cx="0" cy="0" r="1" gradientUnits="userSpaceOnUse" gradientTransform="translate(309.842 180.598) rotate(95.8028) scale(44.4919 24.382)">
<stop stop-color="#123AA8"/>
<stop offset="0.592487" stop-color="#123AA8" stop-opacity="0"/>
<stop offset="1" stop-color="#123AA8" stop-opacity="0"/>
</radialGradient>
<radialGradient id="paint20_radial_1821_6452" cx="0" cy="0" r="1" gradientUnits="userSpaceOnUse" gradientTransform="translate(316.506 160.955) rotate(93.6671) scale(53.5444 19.1088)">
<stop stop-color="#123AA8"/>
<stop offset="0.884611" stop-color="#123AA8" stop-opacity="0"/>
</radialGradient>
<radialGradient id="paint21_radial_1821_6452" cx="0" cy="0" r="1" gradientUnits="userSpaceOnUse" gradientTransform="translate(255.825 172.088) rotate(84.8296) scale(28.4131 15.053)">
<stop stop-color="#123AA8"/>
<stop offset="0.884611" stop-color="#123AA8" stop-opacity="0"/>
</radialGradient>
<radialGradient id="paint22_radial_1821_6452" cx="0" cy="0" r="1" gradientUnits="userSpaceOnUse" gradientTransform="translate(255.805 172.852) rotate(87.2504) scale(29.6535 24.4816)">
<stop stop-color="#123AA8"/>
<stop offset="0.884611" stop-color="#123AA8" stop-opacity="0"/>
</radialGradient>
<radialGradient id="paint23_radial_1821_6452" cx="0" cy="0" r="1" gradientUnits="userSpaceOnUse" gradientTransform="translate(262.552 200.716) rotate(-23.1725) scale(33.069 64.6385)">
<stop stop-color="#123AA8"/>
<stop offset="0.708977" stop-color="#123AA8" stop-opacity="0"/>
</radialGradient>
<radialGradient id="paint24_radial_1821_6452" cx="0" cy="0" r="1" gradientUnits="userSpaceOnUse" gradientTransform="translate(250.786 165.602) rotate(-159.526) scale(21.9087 37.5137)">
<stop stop-color="#1A3DA0"/>
<stop offset="0.708977" stop-color="#123AA8" stop-opacity="0"/>
</radialGradient>
<radialGradient id="paint25_radial_1821_6452" cx="0" cy="0" r="1" gradientUnits="userSpaceOnUse" gradientTransform="translate(231.5 173.059) rotate(16.749) scale(41.7861 42.1827)">
<stop stop-color="#1E3882"/>
<stop offset="0.761404" stop-color="#123AA8" stop-opacity="0"/>
</radialGradient>
<linearGradient id="paint26_linear_1821_6452" x1="218.392" y1="149.946" x2="259.568" y2="176.227" gradientUnits="userSpaceOnUse">
<stop offset="0.229329" stop-color="#1DC4FF"/>
<stop offset="1" stop-color="#1CC1FF" stop-opacity="0"/>
</linearGradient>
<radialGradient id="paint27_radial_1821_6452" cx="0" cy="0" r="1" gradientUnits="userSpaceOnUse" gradientTransform="translate(204.96 127.907) rotate(49.6506) scale(48.2424 48.1219)">
<stop stop-color="#09F8FF"/>
<stop offset="1" stop-color="#0BF7F9" stop-opacity="0"/>
</radialGradient>
<linearGradient id="paint28_linear_1821_6452" x1="220.668" y1="151.289" x2="232.218" y2="161.76" gradientUnits="userSpaceOnUse">
<stop stop-color="#26FBFF"/>
<stop offset="0.637346" stop-color="#0BF7F9" stop-opacity="0"/>
</linearGradient>
<linearGradient id="paint29_linear_1821_6452" x1="217.6" y1="159.303" x2="233.575" y2="160.443" gradientUnits="userSpaceOnUse">
<stop stop-color="#26FBFF"/>
<stop offset="0.637346" stop-color="#0BF7F9" stop-opacity="0"/>
</linearGradient>
<radialGradient id="paint30_radial_1821_6452" cx="0" cy="0" r="1" gradientUnits="userSpaceOnUse" gradientTransform="translate(248.785 177.009) rotate(-107.468) scale(47.1626 32.6784)">
<stop stop-color="#00BCFF" stop-opacity="0.76"/>
<stop offset="0.57273" stop-color="#00BAFC" stop-opacity="0"/>
</radialGradient>
<clipPath id="clip0_1821_6452">
<rect width="133" height="133" fill="white" transform="translate(213 110.5)"/>
</clipPath>
<clipPath id="clip1_1821_6452">
<rect width="115.427" height="84.0171" fill="white" transform="translate(221.867 134.991)"/>
</clipPath>
</defs>
</svg>
