<svg width="32" height="32" viewBox="0 0 32 32" fill="none" xmlns="http://www.w3.org/2000/svg">
<path d="M15.9932 9.21253C14.6582 9.21253 13.3531 9.60841 12.2431 10.3501C11.1331 11.0918 10.2679 12.146 9.75702 13.3794C9.24613 14.6128 9.11246 15.97 9.37291 17.2794C9.63336 18.5888 10.2762 19.7915 11.2202 20.7355C12.1642 21.6795 13.367 22.3224 14.6764 22.5828C15.9857 22.8433 17.3429 22.7096 18.5763 22.1987C19.8097 21.6878 20.8639 20.8227 21.6056 19.7126C22.3473 18.6026 22.7432 17.2976 22.7432 15.9625C22.7412 14.1729 22.0294 12.4572 20.7639 11.1918C19.4985 9.92638 17.7828 9.21457 15.9932 9.21253ZM15.9932 21.2125C14.9549 21.2125 13.9398 20.9046 13.0765 20.3277C12.2131 19.7509 11.5402 18.9309 11.1428 17.9716C10.7455 17.0123 10.6415 15.9567 10.8441 14.9383C11.0467 13.9199 11.5467 12.9844 12.2809 12.2502C13.0151 11.516 13.9506 11.016 14.969 10.8134C15.9874 10.6108 17.043 10.7148 18.0023 11.1122C18.9616 11.5095 19.7815 12.1824 20.3584 13.0458C20.9353 13.9091 21.2432 14.9242 21.2432 15.9625C21.2416 17.3544 20.688 18.6889 19.7038 19.6731C18.7195 20.6573 17.3851 21.2109 15.9932 21.2125Z" fill="white" fill-opacity="0.95"/>
<path d="M24.3076 3.25012H22C21.8011 3.25012 21.6103 3.32914 21.4697 3.46979C21.329 3.61044 21.25 3.80121 21.25 4.00012C21.25 4.19903 21.329 4.3898 21.4697 4.53045C21.6103 4.6711 21.8011 4.75012 22 4.75012H24.3076C25.0877 4.75105 25.8356 5.06134 26.3872 5.61295C26.9388 6.16455 27.2491 6.91243 27.25 7.69251V10.0001C27.25 10.199 27.329 10.3898 27.4697 10.5305C27.6103 10.6711 27.8011 10.7501 28 10.7501C28.1989 10.7501 28.3897 10.6711 28.5303 10.5305C28.671 10.3898 28.75 10.199 28.75 10.0001V7.69251C28.7486 6.51473 28.2802 5.38558 27.4474 4.55277C26.6145 3.71995 25.4854 3.25148 24.3076 3.25012Z" fill="white" fill-opacity="0.95"/>
<path d="M4 10.7501C4.1989 10.7501 4.38964 10.671 4.53028 10.5304C4.67092 10.3898 4.74995 10.199 4.75 10.0001V7.69251C4.75092 6.91243 5.06122 6.16455 5.61283 5.61295C6.16443 5.06134 6.9123 4.75105 7.69239 4.75012H10C10.1989 4.75012 10.3897 4.6711 10.5303 4.53045C10.671 4.3898 10.75 4.19903 10.75 4.00012C10.75 3.80121 10.671 3.61044 10.5303 3.46979C10.3897 3.32914 10.1989 3.25012 10 3.25012H7.69239C6.51461 3.25148 5.38546 3.71995 4.55265 4.55277C3.71983 5.38558 3.25136 6.51473 3.25 7.69251V10.0001C3.25005 10.199 3.32908 10.3898 3.46973 10.5304C3.61037 10.671 3.8011 10.7501 4 10.7501Z" fill="white" fill-opacity="0.95"/>
<path d="M10 27.2501H7.69239C6.91233 27.2491 6.16451 26.9388 5.61292 26.3872C5.06133 25.8356 4.75101 25.0878 4.75 24.3077V22.0001C4.75 21.8012 4.67098 21.6104 4.53033 21.4698C4.38968 21.3291 4.19891 21.2501 4 21.2501C3.80109 21.2501 3.61032 21.3291 3.46967 21.4698C3.32902 21.6104 3.25 21.8012 3.25 22.0001V24.3077C3.25144 25.4855 3.71994 26.6146 4.55274 27.4474C5.38554 28.2802 6.51464 28.7487 7.69239 28.7501H10C10.1989 28.7501 10.3897 28.6711 10.5303 28.5305C10.671 28.3898 10.75 28.199 10.75 28.0001C10.75 27.8012 10.671 27.6104 10.5303 27.4698C10.3897 27.3291 10.1989 27.2501 10 27.2501Z" fill="white" fill-opacity="0.95"/>
<path d="M28 21.2501C27.8011 21.2502 27.6104 21.3292 27.4697 21.4699C27.3291 21.6105 27.2501 21.8012 27.25 22.0001V24.3077C27.249 25.0878 26.9387 25.8356 26.3871 26.3872C25.8355 26.9388 25.0877 27.2491 24.3076 27.2501H22C21.8011 27.2501 21.6103 27.3291 21.4697 27.4698C21.329 27.6104 21.25 27.8012 21.25 28.0001C21.25 28.199 21.329 28.3898 21.4697 28.5305C21.6103 28.6711 21.8011 28.7501 22 28.7501H24.3076C25.4854 28.7487 26.6145 28.2802 27.4473 27.4474C28.2801 26.6146 28.7486 25.4855 28.75 24.3077V22.0001C28.75 21.8012 28.6709 21.6105 28.5303 21.4698C28.3896 21.3292 28.1989 21.2502 28 21.2501Z" fill="white" fill-opacity="0.95"/>
</svg>
