<svg width="32" height="32" viewBox="0 0 32 32" fill="none" xmlns="http://www.w3.org/2000/svg">
<path d="M16 2.24963C13.2805 2.24963 10.6221 3.05606 8.36092 4.56693C6.09974 6.0778 4.33737 8.22525 3.29666 10.7377C2.25596 13.2502 1.98366 16.0149 2.51421 18.6821C3.04476 21.3494 4.35432 23.7994 6.27729 25.7224C8.20026 27.6453 10.6503 28.9549 13.3175 29.4854C15.9848 30.016 18.7494 29.7437 21.2619 28.703C23.7744 27.6623 25.9218 25.8999 27.4327 23.6387C28.9436 21.3776 29.75 18.7191 29.75 15.9996C29.746 12.3541 28.296 8.85912 25.7183 6.28137C23.1405 3.70362 19.6455 2.25367 16 2.24963ZM16 28.2496C13.5772 28.2496 11.2088 27.5312 9.19427 26.1851C7.17977 24.8391 5.60966 22.9259 4.68248 20.6875C3.75531 18.4491 3.51272 15.986 3.98539 13.6098C4.45806 11.2335 5.62475 9.05077 7.33795 7.33758C9.05114 5.62438 11.2339 4.45768 13.6102 3.98501C15.9864 3.51235 18.4495 3.75494 20.6879 4.68211C22.9263 5.60928 24.8395 7.1794 26.1855 9.1939C27.5316 11.2084 28.25 13.5768 28.25 15.9996C28.2464 19.2474 26.9546 22.3612 24.6581 24.6577C22.3615 26.9543 19.2478 28.246 16 28.2496Z" fill="white" fill-opacity="0.95"/>
<path d="M20.5117 12.4303L14.04 17.9772L11.5313 15.4557C11.3908 15.315 11.2003 15.2357 11.0015 15.2354C10.8027 15.2351 10.6119 15.3138 10.4711 15.4541C10.3302 15.5944 10.2509 15.7849 10.2504 15.9837C10.25 16.1825 10.3285 16.3734 10.4688 16.5143L13.4688 19.5289C13.6023 19.663 13.7816 19.7416 13.9707 19.749C14.1598 19.7565 14.3446 19.6921 14.4883 19.5689L21.4883 13.5689C21.5631 13.5048 21.6245 13.4266 21.669 13.3387C21.7135 13.2509 21.7403 13.1551 21.7479 13.0569C21.7554 12.9587 21.7435 12.86 21.7129 12.7664C21.6822 12.6727 21.6335 12.5861 21.5693 12.5113C21.5052 12.4366 21.427 12.3751 21.3391 12.3306C21.2513 12.2861 21.1555 12.2593 21.0573 12.2518C20.9591 12.2442 20.8604 12.2561 20.7668 12.2867C20.6732 12.3174 20.5865 12.3662 20.5117 12.4303Z" fill="white" fill-opacity="0.95"/>
</svg>
