<svg width="32" height="32" viewBox="0 0 32 32" fill="none" xmlns="http://www.w3.org/2000/svg">
<path d="M15.9932 9.21247C14.6582 9.21247 13.3531 9.60835 12.2431 10.3501C11.1331 11.0918 10.2679 12.146 9.75702 13.3794C9.24613 14.6128 9.11246 15.97 9.37291 17.2793C9.63336 18.5887 10.2762 19.7914 11.2202 20.7354C12.1642 21.6794 13.367 22.3223 14.6764 22.5828C15.9857 22.8432 17.3429 22.7095 18.5763 22.1987C19.8097 21.6878 20.8639 20.8226 21.6056 19.7126C22.3473 18.6025 22.7432 17.2975 22.7432 15.9625C22.7412 14.1729 22.0294 12.4572 20.7639 11.1917C19.4985 9.92632 17.7828 9.21451 15.9932 9.21247ZM15.9932 21.2125C14.9549 21.2125 13.9398 20.9046 13.0765 20.3277C12.2131 19.7508 11.5402 18.9309 11.1428 17.9716C10.7455 17.0122 10.6415 15.9566 10.8441 14.9382C11.0467 13.9198 11.5467 12.9844 12.2809 12.2502C13.0151 11.5159 13.9506 11.0159 14.969 10.8133C15.9874 10.6108 17.043 10.7147 18.0023 11.1121C18.9616 11.5095 19.7815 12.1824 20.3584 13.0457C20.9353 13.9091 21.2432 14.9241 21.2432 15.9625C21.2416 17.3544 20.688 18.6888 19.7038 19.673C18.7195 20.6572 17.3851 21.2109 15.9932 21.2125Z" fill="white" fill-opacity="0.95"/>
<path d="M24.3076 3.25006H22C21.8011 3.25006 21.6103 3.32908 21.4697 3.46973C21.329 3.61038 21.25 3.80115 21.25 4.00006C21.25 4.19897 21.329 4.38974 21.4697 4.53039C21.6103 4.67104 21.8011 4.75006 22 4.75006H24.3076C25.0877 4.75098 25.8356 5.06128 26.3872 5.61289C26.9388 6.16449 27.2491 6.91236 27.25 7.69245V10.0001C27.25 10.199 27.329 10.3897 27.4697 10.5304C27.6103 10.671 27.8011 10.7501 28 10.7501C28.1989 10.7501 28.3897 10.671 28.5303 10.5304C28.671 10.3897 28.75 10.199 28.75 10.0001V7.69245C28.7486 6.51467 28.2802 5.38552 27.4474 4.55271C26.6145 3.71989 25.4854 3.25142 24.3076 3.25006Z" fill="white" fill-opacity="0.95"/>
<path d="M4 10.7501C4.1989 10.75 4.38964 10.671 4.53028 10.5303C4.67092 10.3897 4.74995 10.199 4.75 10.0001V7.69245C4.75092 6.91236 5.06122 6.16449 5.61283 5.61289C6.16443 5.06128 6.9123 4.75098 7.69239 4.75006H10C10.1989 4.75006 10.3897 4.67104 10.5303 4.53039C10.671 4.38974 10.75 4.19897 10.75 4.00006C10.75 3.80115 10.671 3.61038 10.5303 3.46973C10.3897 3.32908 10.1989 3.25006 10 3.25006H7.69239C6.51461 3.25142 5.38546 3.71989 4.55265 4.55271C3.71983 5.38552 3.25136 6.51467 3.25 7.69245V10.0001C3.25005 10.199 3.32908 10.3897 3.46973 10.5303C3.61037 10.671 3.8011 10.75 4 10.7501Z" fill="white" fill-opacity="0.95"/>
<path d="M10 27.2501H7.69239C6.91233 27.2491 6.16451 26.9387 5.61292 26.3871C5.06133 25.8356 4.75101 25.0877 4.75 24.3077V22.0001C4.75 21.8011 4.67098 21.6104 4.53033 21.4697C4.38968 21.3291 4.19891 21.2501 4 21.2501C3.80109 21.2501 3.61032 21.3291 3.46967 21.4697C3.32902 21.6104 3.25 21.8011 3.25 22.0001V24.3077C3.25144 25.4854 3.71994 26.6145 4.55274 27.4473C5.38554 28.2801 6.51464 28.7486 7.69239 28.7501H10C10.1989 28.7501 10.3897 28.671 10.5303 28.5304C10.671 28.3897 10.75 28.199 10.75 28.0001C10.75 27.8011 10.671 27.6104 10.5303 27.4697C10.3897 27.3291 10.1989 27.2501 10 27.2501Z" fill="white" fill-opacity="0.95"/>
<path d="M28 21.2501C27.8011 21.2501 27.6104 21.3291 27.4697 21.4698C27.3291 21.6104 27.2501 21.8012 27.25 22.0001V24.3077C27.249 25.0877 26.9387 25.8356 26.3871 26.3871C25.8355 26.9387 25.0877 27.2491 24.3076 27.2501H22C21.8011 27.2501 21.6103 27.3291 21.4697 27.4697C21.329 27.6104 21.25 27.8011 21.25 28.0001C21.25 28.199 21.329 28.3897 21.4697 28.5304C21.6103 28.671 21.8011 28.7501 22 28.7501H24.3076C25.4854 28.7486 26.6145 28.2801 27.4473 27.4473C28.2801 26.6145 28.7486 25.4854 28.75 24.3077V22.0001C28.75 21.8012 28.6709 21.6104 28.5303 21.4698C28.3896 21.3291 28.1989 21.2501 28 21.2501Z" fill="white" fill-opacity="0.95"/>
</svg>
