<svg width="32" height="32" viewBox="0 0 32 32" fill="none" xmlns="http://www.w3.org/2000/svg">
<path d="M30.0142 18.8171C29.9865 17.9187 29.7053 17.0464 29.2032 16.3009C28.701 15.5554 27.9983 14.967 27.1761 14.6037C27.5172 14.1167 27.7182 13.5454 27.7572 12.9521C27.7962 12.3588 27.6717 11.7661 27.3972 11.2386C27.1226 10.7112 26.7087 10.2691 26.2004 9.96066C25.692 9.65216 25.1088 9.48903 24.5142 9.48903C23.9196 9.48903 23.3364 9.65216 22.8281 9.96066C22.3197 10.2691 21.9058 10.7112 21.6313 11.2386C21.3568 11.7661 21.2322 12.3588 21.2712 12.9521C21.3102 13.5454 21.5112 14.1167 21.8524 14.6037C21.4862 14.784 21.1411 15.0041 20.8231 15.2599C20.384 15.008 19.9253 14.792 19.4513 14.6141C20.1783 13.9264 20.6822 13.0364 20.8978 12.0591C21.1134 11.0819 21.0308 10.0625 20.6607 9.13274C20.2906 8.20298 19.65 7.40566 18.8218 6.84394C17.9936 6.28222 17.0159 5.98193 16.0152 5.98193C15.0145 5.98193 14.0368 6.28222 13.2086 6.84394C12.3804 7.40566 11.7398 8.20298 11.3697 9.13274C10.9996 10.0625 10.917 11.0819 11.1326 12.0591C11.3482 13.0364 11.8521 13.9264 12.579 14.6141C12.098 14.7945 11.6326 15.0141 11.1876 15.2707C10.8667 15.0115 10.5179 14.7887 10.1478 14.6066C10.4889 14.1196 10.6899 13.5484 10.7289 12.955C10.7679 12.3617 10.6433 11.769 10.3688 11.2416C10.0943 10.7141 9.68038 10.2721 9.17205 9.96359C8.66373 9.65509 8.08051 9.49196 7.4859 9.49196C6.89128 9.49196 6.30807 9.65509 5.79974 9.96359C5.29142 10.2721 4.87747 10.7141 4.60296 11.2416C4.32845 11.769 4.20391 12.3617 4.24289 12.955C4.28187 13.5484 4.48288 14.1196 4.82403 14.6066C4.00185 14.9699 3.29913 15.5583 2.79696 16.3038C2.29479 17.0493 2.01362 17.9216 1.9859 18.8201C1.9859 19.4958 2.35162 20.4167 4.09381 20.9607C5.05726 21.2334 6.05257 21.3774 7.05381 21.3888C7.03263 21.6143 7.01523 21.8407 7.01523 22.071C7.01523 23.0329 7.56894 24.3601 10.2057 25.2185C12.0919 25.7694 14.0504 26.0328 16.0152 25.9997C20.1671 25.9997 25.0152 24.9714 25.0152 22.071C25.0152 21.8411 24.9978 21.615 24.9767 21.3899C26.5945 21.3396 30.0142 20.9781 30.0142 18.8171ZM24.5142 11.4988C24.7614 11.4988 25.0031 11.5721 25.2087 11.7094C25.4142 11.8468 25.5745 12.042 25.6691 12.2704C25.7637 12.4988 25.7884 12.7502 25.7402 12.9926C25.692 13.2351 25.5729 13.4578 25.3981 13.6327C25.2233 13.8075 25.0006 13.9265 24.7581 13.9748C24.5156 14.023 24.2643 13.9982 24.0359 13.9036C23.8075 13.809 23.6122 13.6488 23.4749 13.4432C23.3375 13.2377 23.2642 12.996 23.2642 12.7488C23.2645 12.4174 23.3963 12.0996 23.6307 11.8652C23.865 11.6309 24.1828 11.4991 24.5142 11.4988ZM13.0152 10.9998C13.0152 10.4064 13.1912 9.82642 13.5208 9.33307C13.8505 8.83972 14.319 8.4552 14.8672 8.22814C15.4153 8.00108 16.0185 7.94167 16.6005 8.05742C17.1824 8.17318 17.717 8.4589 18.1365 8.87846C18.5561 9.29802 18.8418 9.83256 18.9576 10.4145C19.0733 10.9964 19.0139 11.5996 18.7869 12.1478C18.5598 12.696 18.1753 13.1645 17.6819 13.4942C17.1886 13.8238 16.6086 13.9998 16.0152 13.9998C15.2198 13.9989 14.4573 13.6826 13.8948 13.1201C13.3324 12.5577 13.0161 11.7952 13.0152 10.9998ZM7.48593 11.5018C7.73316 11.5018 7.97483 11.5751 8.18039 11.7124C8.38596 11.8498 8.54617 12.045 8.64078 12.2734C8.73539 12.5018 8.76014 12.7532 8.71191 12.9956C8.66368 13.2381 8.54463 13.4608 8.36981 13.6357C8.195 13.8105 7.97227 13.9295 7.72979 13.9778C7.48732 14.026 7.23598 14.0012 7.00758 13.9066C6.77917 13.812 6.58395 13.6518 6.44659 13.4462C6.30924 13.2407 6.23593 12.999 6.23593 12.7518C6.23622 12.4203 6.368 12.1026 6.60235 11.8682C6.8367 11.6338 7.1545 11.5021 7.48593 11.5018ZM7.53193 19.4014L7.4859 19.4021C6.27995 19.5045 5.06919 19.271 3.9879 18.7272C4.04845 17.2165 5.59435 16.0017 7.48595 16.0017C8.18981 15.9983 8.88246 16.1779 9.49608 16.5227C8.63727 17.3258 7.96661 18.3088 7.53193 19.4014ZM16.0152 23.9998C11.6783 23.9998 9.0152 22.8768 9.0152 22.0711C9.0152 18.7235 12.1553 15.9998 16.0152 15.9998C19.8751 15.9998 23.0152 18.7235 23.0152 22.0711C23.0152 22.8767 20.3521 23.9998 16.0152 23.9998ZM24.5142 19.3983L24.497 19.3978C24.0599 18.3005 23.3848 17.3139 22.5204 16.509C23.1303 16.171 23.8169 15.9954 24.5142 15.9988C26.4058 15.9988 27.9512 17.2127 28.0122 18.7244C26.9307 19.2675 25.72 19.5008 24.5142 19.3983Z" fill="white" fill-opacity="0.95"/>
</svg>
