<svg width="32" height="32" viewBox="0 0 32 32" fill="none" xmlns="http://www.w3.org/2000/svg">
<path d="M25.0002 4.99976H7.00024C5.67464 5.00131 4.40377 5.5286 3.46643 6.46594C2.52908 7.40329 2.0018 8.67415 2.00024 9.99976V21.9998C2.0018 23.3254 2.52909 24.5962 3.46643 25.5336C4.40378 26.4709 5.67464 26.9982 7.00024 26.9998H9.02752C9.1469 27.7805 9.71886 28.7248 11.5471 29.3591C12.9877 29.8093 14.4912 30.0256 16.0002 29.9998C19.074 29.9998 22.6303 29.2039 22.9669 26.9998H25.0002C26.3258 26.9982 27.5967 26.4709 28.5341 25.5336C29.4714 24.5962 29.9987 23.3254 30.0002 21.9998V9.99976C29.9987 8.67415 29.4714 7.40329 28.5341 6.46594C27.5967 5.5286 26.3258 5.00131 25.0002 4.99976ZM16.0002 27.9998C12.7649 27.9998 11.0002 27.113 11.0002 26.657C11.0487 25.3774 11.6019 24.1691 12.5389 23.2963C13.4759 22.4235 14.7204 21.9574 16.0002 21.9998C17.28 21.9574 18.5246 22.4235 19.4616 23.2963C20.3986 24.1691 20.9518 25.3774 21.0002 26.657C21.0002 27.1131 19.2356 27.9998 16.0002 27.9998ZM13.5002 17.4998C13.5002 17.0053 13.6469 16.522 13.9216 16.1108C14.1963 15.6997 14.5867 15.3793 15.0435 15.1901C15.5004 15.0008 16.003 14.9513 16.488 15.0478C16.9729 15.1443 17.4184 15.3824 17.768 15.732C18.1176 16.0816 18.3557 16.5271 18.4522 17.012C18.5487 17.497 18.4992 17.9996 18.3099 18.4565C18.1207 18.9133 17.8003 19.3037 17.3892 19.5784C16.978 19.8531 16.4947 19.9998 16.0002 19.9998C15.3374 19.9991 14.7019 19.7356 14.2332 19.2668C13.7644 18.7981 13.5009 18.1626 13.5002 17.4998ZM28.0002 21.9998C27.9994 22.7951 27.683 23.5577 27.1206 24.1201C26.5582 24.6825 25.7956 24.9989 25.0002 24.9998H22.7718C22.5092 24.0667 22.0488 23.2011 21.4219 22.4617C20.7951 21.7224 20.0164 21.1266 19.1389 20.7149C19.7804 20.0905 20.2211 19.289 20.4046 18.4128C20.5882 17.5366 20.5062 16.6256 20.1693 15.7962C19.8323 14.9669 19.2556 14.2569 18.513 13.757C17.7703 13.2571 16.8954 12.9901 16.0002 12.9901C15.105 12.9901 14.2302 13.2571 13.4875 13.757C12.7449 14.2569 12.1682 14.9669 11.8312 15.7962C11.4942 16.6256 11.4123 17.5366 11.5958 18.4128C11.7794 19.289 12.2201 20.0905 12.8616 20.7149C11.984 21.1266 11.2054 21.7224 10.5785 22.4618C9.9516 23.2012 9.49122 24.0669 9.22862 25L7.00024 24.9998C6.20486 24.9989 5.4423 24.6825 4.87988 24.1201C4.31746 23.5577 4.00111 22.7951 4.00024 21.9998V9.99976C4.00111 9.20437 4.31746 8.44182 4.87988 7.87939C5.4423 7.31697 6.20486 7.00062 7.00024 6.99976H25.0002C25.7956 7.00062 26.5582 7.31697 27.1206 7.87939C27.683 8.44182 27.9994 9.20437 28.0002 9.99976V21.9998Z" fill="white" fill-opacity="0.95"/>
</svg>
