<svg width="32" height="32" viewBox="0 0 32 32" fill="none" xmlns="http://www.w3.org/2000/svg">
<path d="M25.0002 4.99951H7.00024C5.67464 5.00107 4.40377 5.52835 3.46643 6.4657C2.52908 7.40304 2.0018 8.67391 2.00024 9.99951V21.9995C2.0018 23.3251 2.52909 24.596 3.46643 25.5333C4.40378 26.4707 5.67464 26.998 7.00024 26.9995H9.02752C9.1469 27.7803 9.71886 28.7246 11.5471 29.3589C12.9877 29.8091 14.4912 30.0254 16.0002 29.9995C19.074 29.9995 22.6303 29.2036 22.9669 26.9995H25.0002C26.3258 26.998 27.5967 26.4707 28.5341 25.5333C29.4714 24.596 29.9987 23.3251 30.0002 21.9995V9.99951C29.9987 8.67391 29.4714 7.40304 28.5341 6.4657C27.5967 5.52836 26.3258 5.00107 25.0002 4.99951ZM16.0002 27.9995C12.7649 27.9995 11.0002 27.1128 11.0002 26.6567C11.0487 25.3771 11.6019 24.1688 12.5389 23.296C13.4759 22.4233 14.7204 21.9571 16.0002 21.9995C17.28 21.9571 18.5246 22.4233 19.4616 23.296C20.3986 24.1688 20.9518 25.3771 21.0002 26.6567C21.0002 27.1128 19.2356 27.9995 16.0002 27.9995ZM13.5002 17.4995C13.5002 17.0051 13.6469 16.5217 13.9216 16.1106C14.1963 15.6995 14.5867 15.379 15.0435 15.1898C15.5004 15.0006 16.003 14.9511 16.488 15.0475C16.9729 15.144 17.4184 15.3821 17.768 15.7317C18.1176 16.0814 18.3557 16.5268 18.4522 17.0118C18.5487 17.4967 18.4992 17.9994 18.3099 18.4562C18.1207 18.913 17.8003 19.3035 17.3892 19.5782C16.978 19.8529 16.4947 19.9995 16.0002 19.9995C15.3374 19.9989 14.7019 19.7353 14.2332 19.2666C13.7644 18.7979 13.5009 18.1624 13.5002 17.4995ZM28.0002 21.9995C27.9994 22.7949 27.683 23.5574 27.1206 24.1199C26.5582 24.6823 25.7956 24.9986 25.0002 24.9995H22.7718C22.5092 24.0664 22.0488 23.2008 21.4219 22.4615C20.7951 21.7221 20.0164 21.1264 19.1389 20.7147C19.7804 20.0903 20.2211 19.2888 20.4046 18.4126C20.5882 17.5364 20.5062 16.6254 20.1693 15.796C19.8323 14.9666 19.2556 14.2566 18.513 13.7568C17.7703 13.2569 16.8954 12.9899 16.0002 12.9899C15.105 12.9899 14.2302 13.2569 13.4875 13.7568C12.7449 14.2566 12.1682 14.9666 11.8312 15.796C11.4942 16.6254 11.4123 17.5364 11.5958 18.4126C11.7794 19.2888 12.2201 20.0903 12.8616 20.7147C11.984 21.1264 11.2054 21.7222 10.5785 22.4616C9.9516 23.201 9.49122 24.0666 9.22862 24.9998L7.00024 24.9995C6.20486 24.9986 5.4423 24.6823 4.87988 24.1199C4.31746 23.5575 4.00111 22.7949 4.00024 21.9995V9.99951C4.00111 9.20413 4.31746 8.44157 4.87988 7.87915C5.4423 7.31673 6.20486 7.00038 7.00024 6.99951H25.0002C25.7956 7.00038 26.5582 7.31673 27.1206 7.87915C27.683 8.44157 27.9994 9.20413 28.0002 9.99951V21.9995Z" fill="white" fill-opacity="0.95"/>
</svg>
