<svg width="32" height="32" viewBox="0 0 32 32" fill="none" xmlns="http://www.w3.org/2000/svg">
<path d="M16.0058 22.9999C16.6961 22.9999 17.2558 22.4402 17.2558 21.7499C17.2558 21.0595 16.6961 20.4999 16.0058 20.4999C15.3154 20.4999 14.7558 21.0595 14.7558 21.7499C14.7558 22.4402 15.3154 22.9999 16.0058 22.9999Z" fill="white" fill-opacity="0.95"/>
<path d="M16.0003 10.0005C14.9397 10.0015 13.9229 10.4233 13.173 11.1732C12.4231 11.9231 12.0013 12.9399 12.0003 14.0005C12.0003 14.2657 12.1056 14.5201 12.2932 14.7076C12.4807 14.8951 12.7351 15.0005 13.0003 15.0005C13.2655 15.0005 13.5198 14.8951 13.7074 14.7076C13.8949 14.5201 14.0003 14.2657 14.0003 14.0005C14.0003 13.6049 14.1176 13.2182 14.3373 12.8893C14.5571 12.5604 14.8694 12.3041 15.2349 12.1527C15.6004 12.0014 16.0025 11.9617 16.3905 12.0389C16.7784 12.1161 17.1348 12.3066 17.4145 12.5863C17.6942 12.866 17.8847 13.2223 17.9618 13.6103C18.039 13.9983 17.9994 14.4004 17.848 14.7659C17.6967 15.1313 17.4403 15.4437 17.1114 15.6634C16.7825 15.8832 16.3958 16.0005 16.0003 16.0005C15.8689 16.0004 15.7389 16.0262 15.6175 16.0765C15.4961 16.1267 15.3859 16.2003 15.293 16.2932C15.2001 16.3861 15.1265 16.4964 15.0762 16.6177C15.026 16.7391 15.0002 16.8691 15.0003 17.0005V18.4624C15.0003 18.7276 15.1056 18.982 15.2932 19.1695C15.4807 19.357 15.7351 19.4624 16.0003 19.4624C16.2655 19.4624 16.5198 19.357 16.7074 19.1695C16.8949 18.982 17.0003 18.7276 17.0003 18.4624V17.8735C17.943 17.6302 18.7646 17.0514 19.3111 16.2456C19.8575 15.4398 20.0913 14.4623 19.9686 13.4965C19.846 12.5306 19.3752 11.6427 18.6447 10.9991C17.9141 10.3555 16.9739 10.0004 16.0003 10.0005Z" fill="white" fill-opacity="0.95"/>
<path d="M15.9993 3.00049C13.6821 3.00084 11.4071 3.62044 9.40975 4.79516C7.4124 5.96989 5.76528 7.65705 4.63886 9.68204C3.51244 11.707 2.94765 13.9962 3.00295 16.3128C3.05825 18.6293 3.73163 20.889 4.95339 22.8579C4.64145 24.1089 3.85755 25.1906 2.76589 25.8765C2.59965 25.9604 2.45207 26.077 2.332 26.2194C2.21193 26.3617 2.12184 26.5269 2.06713 26.7049C2.01242 26.8829 1.99422 27.0701 2.01361 27.2553C2.03301 27.4405 2.0896 27.6199 2.18 27.7827C2.65852 28.6001 4.20735 29.0083 6.02766 29.0083C7.74134 29.0131 9.43857 28.6741 11.0189 28.0112C12.7948 28.7475 14.7119 29.0808 16.6321 28.987C18.5523 28.8933 20.4279 28.3748 22.1236 27.469C23.8193 26.5632 25.2931 25.2926 26.4387 23.7487C27.5843 22.2048 28.3732 20.426 28.7487 18.5405C29.1242 16.6551 29.0768 14.7098 28.61 12.8448C28.1432 10.9798 27.2686 9.24158 26.0492 7.75528C24.8298 6.26898 23.296 5.07161 21.5581 4.24942C19.8203 3.42722 17.9218 3.00067 15.9993 3.00049ZM15.9993 27.0005C14.4173 27.0043 12.8535 26.6637 11.4163 26.0025C11.2781 25.9391 11.1273 25.9081 10.9753 25.9118C10.8233 25.9155 10.6742 25.9539 10.5393 26.024C8.72009 26.8804 6.69086 27.1885 4.69944 26.9107C5.94939 25.8493 6.76577 24.3656 6.99339 22.7417C7.01853 22.5096 6.96151 22.276 6.83226 22.0816C5.47733 20.0393 4.8432 17.6031 5.03049 15.1594C5.21778 12.7158 6.21576 10.4046 7.86609 8.59269C9.51641 6.78077 11.7246 5.57185 14.1402 5.15776C16.5558 4.74367 19.0405 5.14812 21.2 6.30693C23.3596 7.46574 25.0704 9.31254 26.0609 11.5543C27.0514 13.7961 27.2648 16.3044 26.6675 18.6814C26.0701 21.0583 24.6961 23.1676 22.7634 24.6748C20.8307 26.1819 18.4501 27.0004 15.9993 27.0005Z" fill="white" fill-opacity="0.95"/>
</svg>
