<svg width="32" height="32" viewBox="0 0 32 32" fill="none" xmlns="http://www.w3.org/2000/svg">
<path d="M16.0058 22.9996C16.6961 22.9996 17.2558 22.44 17.2558 21.7496C17.2558 21.0593 16.6961 20.4996 16.0058 20.4996C15.3154 20.4996 14.7558 21.0593 14.7558 21.7496C14.7558 22.44 15.3154 22.9996 16.0058 22.9996Z" fill="white" fill-opacity="0.95"/>
<path d="M16.0003 10.0002C14.9397 10.0013 13.9229 10.4231 13.173 11.173C12.4231 11.9229 12.0013 12.9397 12.0003 14.0002C12.0003 14.2655 12.1056 14.5198 12.2932 14.7074C12.4807 14.8949 12.7351 15.0002 13.0003 15.0002C13.2655 15.0002 13.5198 14.8949 13.7074 14.7074C13.8949 14.5198 14.0003 14.2655 14.0003 14.0002C14.0003 13.6047 14.1176 13.218 14.3373 12.8891C14.5571 12.5602 14.8694 12.3039 15.2349 12.1525C15.6004 12.0011 16.0025 11.9615 16.3905 12.0387C16.7784 12.1158 17.1348 12.3063 17.4145 12.586C17.6942 12.8657 17.8847 13.2221 17.9618 13.6101C18.039 13.998 17.9994 14.4002 17.848 14.7656C17.6967 15.1311 17.4403 15.4434 17.1114 15.6632C16.7825 15.8829 16.3958 16.0002 16.0003 16.0002C15.8689 16.0002 15.7389 16.026 15.6175 16.0762C15.4961 16.1264 15.3859 16.2001 15.293 16.293C15.2001 16.3858 15.1265 16.4961 15.0762 16.6175C15.026 16.7388 15.0002 16.8689 15.0003 17.0002V18.4622C15.0003 18.7274 15.1056 18.9817 15.2932 19.1693C15.4807 19.3568 15.7351 19.4622 16.0003 19.4622C16.2655 19.4622 16.5198 19.3568 16.7074 19.1693C16.8949 18.9817 17.0003 18.7274 17.0003 18.4622V17.8733C17.943 17.63 18.7646 17.0511 19.3111 16.2453C19.8575 15.4395 20.0913 14.4621 19.9686 13.4962C19.846 12.5304 19.3752 11.6424 18.6447 10.9988C17.9141 10.3552 16.9739 10.0002 16.0003 10.0002Z" fill="white" fill-opacity="0.95"/>
<path d="M15.9993 3.00024C13.6821 3.00059 11.4071 3.62019 9.40975 4.79492C7.4124 5.96965 5.76528 7.65681 4.63886 9.68179C3.51244 11.7068 2.94765 13.996 3.00295 16.3125C3.05825 18.6291 3.73163 20.8887 4.95339 22.8577C4.64145 24.1086 3.85755 25.1903 2.76589 25.8762C2.59965 25.9602 2.45207 26.0768 2.332 26.2191C2.21193 26.3615 2.12184 26.5266 2.06713 26.7046C2.01242 26.8826 1.99422 27.0699 2.01361 27.2551C2.03301 27.4403 2.0896 27.6197 2.18 27.7825C2.65852 28.5999 4.20735 29.0081 6.02766 29.0081C7.74134 29.0129 9.43857 28.6738 11.0189 28.011C12.7948 28.7473 14.7119 29.0805 16.6321 28.9868C18.5523 28.893 20.4279 28.3745 22.1236 27.4687C23.8193 26.5629 25.2931 25.2923 26.4387 23.7484C27.5843 22.2045 28.3732 20.4258 28.7487 18.5403C29.1242 16.6548 29.0768 14.7095 28.61 12.8446C28.1432 10.9796 27.2686 9.24134 26.0492 7.75504C24.8298 6.26874 23.296 5.07137 21.5581 4.24917C19.8203 3.42698 17.9218 3.00043 15.9993 3.00024ZM15.9993 27.0002C14.4173 27.004 12.8535 26.6635 11.4163 26.0022C11.2781 25.9388 11.1273 25.9078 10.9753 25.9115C10.8233 25.9153 10.6742 25.9536 10.5393 26.0237C8.72009 26.8802 6.69086 27.1883 4.69944 26.9104C5.94939 25.8491 6.76577 24.3654 6.99339 22.7415C7.01853 22.5094 6.96151 22.2758 6.83226 22.0813C5.47733 20.0391 4.8432 17.6029 5.03049 15.1592C5.21778 12.7155 6.21576 10.4044 7.86609 8.59244C9.51641 6.78052 11.7246 5.57161 14.1402 5.15752C16.5558 4.74343 19.0405 5.14787 21.2 6.30668C23.3596 7.4655 25.0704 9.3123 26.0609 11.5541C27.0514 13.7958 27.2648 16.3042 26.6675 18.6811C26.0701 21.058 24.6961 23.1674 22.7634 24.6745C20.8307 26.1816 18.4501 27.0001 15.9993 27.0002Z" fill="white" fill-opacity="0.95"/>
</svg>
