<svg width="56" height="56" viewBox="0 0 56 56" fill="none" xmlns="http://www.w3.org/2000/svg">
<path d="M40.25 3.93652H15.75C13.5462 3.93902 11.4333 4.81561 9.87494 6.37396C8.31658 7.93231 7.44 10.0452 7.4375 12.249V43.749C7.44 45.9529 8.31658 48.0657 9.87494 49.6241C11.4333 51.1824 13.5462 52.059 15.75 52.0615H40.25C42.4538 52.059 44.5667 51.1824 46.1251 49.6241C47.6834 48.0657 48.56 45.9529 48.5625 43.749V12.249C48.56 10.0452 47.6834 7.93231 46.1251 6.37396C44.5667 4.81561 42.4538 3.93902 40.25 3.93652ZM45.9375 43.749C45.9358 45.2569 45.336 46.7025 44.2697 47.7688C43.2035 48.835 41.7579 49.4348 40.25 49.4365H15.75C14.2421 49.4348 12.7965 48.835 11.7303 47.7688C10.664 46.7025 10.0642 45.2569 10.0625 43.749V12.249C10.0642 10.7411 10.664 9.29552 11.7303 8.22928C12.7965 7.16305 14.2421 6.56327 15.75 6.56152H40.25C41.7579 6.56326 43.2035 7.16304 44.2697 8.22928C45.336 9.29551 45.9358 10.7411 45.9375 12.249V43.749Z" fill="#5EBFF7"/>
<path d="M21.928 28.8211C21.8061 28.6991 21.6615 28.6024 21.5023 28.5365C21.343 28.4705 21.1724 28.4365 21 28.4365C20.8277 28.4365 20.657 28.4705 20.4978 28.5365C20.3385 28.6024 20.1939 28.6991 20.072 28.8211L14.822 34.071C14.7001 34.1929 14.6034 34.3376 14.5374 34.4968C14.4715 34.656 14.4375 34.8267 14.4375 34.999C14.4375 35.1714 14.4715 35.342 14.5374 35.5013C14.6034 35.6605 14.7001 35.8052 14.822 35.927L20.072 41.177C20.3183 41.4223 20.6519 41.5599 20.9995 41.5596C21.3471 41.5592 21.6804 41.421 21.9262 41.1752C22.172 40.9294 22.3102 40.5961 22.3106 40.2485C22.3109 39.9009 22.1733 39.5673 21.928 39.321L17.606 34.999L21.928 30.677C22.0499 30.5552 22.1466 30.4105 22.2126 30.2513C22.2786 30.092 22.3125 29.9214 22.3125 29.749C22.3125 29.5767 22.2786 29.406 22.2126 29.2468C22.1466 29.0876 22.0499 28.9429 21.928 28.8211Z" fill="#5EBFF7"/>
<path d="M35.928 28.8211C35.6817 28.5757 35.3482 28.4381 35.0005 28.4385C34.6529 28.4388 34.3197 28.5771 34.0739 28.8229C33.8281 29.0687 33.6898 29.4019 33.6895 29.7495C33.6891 30.0972 33.8267 30.4307 34.072 30.677L38.3941 34.999L34.072 39.3211C33.9498 39.4428 33.8527 39.5875 33.7865 39.7468C33.7202 39.9062 33.686 40.077 33.6858 40.2496C33.6857 40.4221 33.7195 40.593 33.7855 40.7525C33.8514 40.9119 33.9482 41.0568 34.0702 41.1788C34.1922 41.3008 34.3371 41.3976 34.4966 41.4636C34.656 41.5295 34.8269 41.5634 34.9995 41.5632C35.172 41.563 35.3429 41.5288 35.5022 41.4626C35.6615 41.3963 35.8062 41.2993 35.928 41.177L41.178 35.927C41.2999 35.8052 41.3966 35.6605 41.4626 35.5013C41.5286 35.342 41.5625 35.1714 41.5625 34.999C41.5625 34.8267 41.5286 34.656 41.4626 34.4968C41.3966 34.3376 41.2999 34.1929 41.178 34.0711L35.928 28.8211Z" fill="#5EBFF7"/>
<path d="M30.1653 28.5032C29.8349 28.3934 29.4744 28.4192 29.163 28.575C28.8515 28.7307 28.6146 29.0036 28.5042 29.3337L25.0042 39.8337C24.8944 40.1642 24.9202 40.5246 25.0759 40.8361C25.2316 41.1475 25.5045 41.3844 25.8347 41.4949C25.9689 41.5385 26.109 41.561 26.25 41.5615C26.5255 41.5615 26.7941 41.4749 27.0176 41.3139C27.2412 41.1529 27.4085 40.9256 27.4959 40.6643L30.9959 30.1643C31.1056 29.8339 31.0798 29.4734 30.9241 29.162C30.7684 28.8506 30.4955 28.6136 30.1653 28.5032Z" fill="#5EBFF7"/>
</svg>
