<svg width="64" height="64" viewBox="0 0 64 64" fill="none" xmlns="http://www.w3.org/2000/svg">
<path d="M21.9974 7.99927H9.99744C8.40667 8.001 6.88156 8.6337 5.75671 9.75854C4.63187 10.8834 3.99917 12.4085 3.99744 13.9993V25.9993C3.99917 27.59 4.63187 29.1151 5.75671 30.24C6.88156 31.3648 8.40667 31.9975 9.99744 31.9993H21.9974C23.5882 31.9975 25.1133 31.3648 26.2382 30.24C27.363 29.1151 27.9957 27.59 27.9974 25.9993V13.9993C27.9957 12.4085 27.363 10.8834 26.2382 9.75854C25.1133 8.6337 23.5882 8.001 21.9974 7.99927ZM23.9974 25.9993C23.9971 26.5296 23.7863 27.0381 23.4113 27.4131C23.0363 27.7881 22.5278 27.9989 21.9974 27.9993H9.99744C9.46711 27.9989 8.95861 27.7881 8.58361 27.4131C8.20862 27.0381 7.99779 26.5296 7.99744 25.9993V13.9993C7.9978 13.4689 8.20863 12.9604 8.58362 12.5855C8.95862 12.2105 9.46711 11.9996 9.99744 11.9993H21.9974C22.5278 11.9996 23.0363 12.2105 23.4113 12.5855C23.7862 12.9604 23.9971 13.4689 23.9974 13.9993V25.9993Z" fill="white" fill-opacity="0.95"/>
<path d="M21.9974 36.0012H9.99744C8.40667 36.003 6.88156 36.6357 5.75671 37.7605C4.63187 38.8853 3.99917 40.4105 3.99744 42.0012V54.0012C3.99917 55.592 4.63187 57.1171 5.75671 58.242C6.88156 59.3668 8.40667 59.9995 9.99744 60.0012H21.9974C23.5882 59.9995 25.1133 59.3668 26.2382 58.242C27.363 57.1171 27.9957 55.592 27.9974 54.0012V42.0012C27.9957 40.4105 27.363 38.8853 26.2382 37.7605C25.1133 36.6357 23.5882 36.003 21.9974 36.0012ZM23.9974 54.0012C23.9971 54.5316 23.7863 55.0401 23.4113 55.4151C23.0363 55.79 22.5278 56.0009 21.9974 56.0012H9.99744C9.46711 56.0009 8.95861 55.79 8.58361 55.4151C8.20862 55.0401 7.99779 54.5316 7.99744 54.0012V42.0012C7.99779 41.4709 8.20862 40.9624 8.58361 40.5874C8.95861 40.2124 9.46711 40.0016 9.99744 40.0012H21.9974C22.5278 40.0016 23.0363 40.2124 23.4113 40.5874C23.7863 40.9624 23.9971 41.4709 23.9974 42.0012V54.0012Z" fill="white" fill-opacity="0.95"/>
<path d="M53.9994 3.99927H37.9994C36.4086 4.001 34.8835 4.6337 33.7587 5.75854C32.6338 6.88339 32.0011 8.4085 31.9994 9.99927V25.9993C32.0011 27.59 32.6338 29.1151 33.7587 30.24C34.8835 31.3648 36.4086 31.9975 37.9994 31.9993H53.9994C55.5902 31.9975 57.1153 31.3648 58.2401 30.24C59.365 29.1151 59.9977 27.59 59.9994 25.9993V9.99927C59.9977 8.4085 59.365 6.88339 58.2401 5.75855C57.1153 4.63371 55.5902 4.00101 53.9994 3.99927ZM55.9994 25.9993C55.999 26.5296 55.7882 27.0381 55.4132 27.4131C55.0382 27.7881 54.5297 27.9989 53.9994 27.9993H37.9994C37.4691 27.9989 36.9606 27.7881 36.5856 27.4131C36.2106 27.0381 35.9998 26.5296 35.9994 25.9993V9.99927C35.9998 9.46895 36.2106 8.96045 36.5856 8.58545C36.9606 8.21046 37.4691 7.99963 37.9994 7.99927H53.9994C54.5297 7.99963 55.0382 8.21046 55.4132 8.58546C55.7882 8.96045 55.999 9.46895 55.9994 9.99927V25.9993Z" fill="white" fill-opacity="0.95"/>
<path d="M49.9994 36.0012H37.9994C36.4086 36.003 34.8835 36.6357 33.7587 37.7605C32.6338 38.8853 32.0011 40.4105 31.9994 42.0012V54.0012C32.0011 55.592 32.6338 57.1171 33.7587 58.242C34.8835 59.3668 36.4086 59.9995 37.9994 60.0012H49.9994C51.5902 59.9995 53.1153 59.3668 54.2401 58.242C55.365 57.1171 55.9977 55.592 55.9994 54.0012V42.0012C55.9977 40.4105 55.365 38.8853 54.2401 37.7605C53.1153 36.6357 51.5902 36.003 49.9994 36.0012ZM51.9994 54.0012C51.999 54.5316 51.7882 55.0401 51.4132 55.415C51.0382 55.79 50.5297 56.0009 49.9994 56.0012H37.9994C37.4691 56.0009 36.9606 55.79 36.5856 55.4151C36.2106 55.0401 35.9998 54.5316 35.9994 54.0012V42.0012C35.9998 41.4709 36.2106 40.9624 36.5856 40.5874C36.9606 40.2124 37.4691 40.0016 37.9994 40.0012H49.9994C50.5297 40.0016 51.0382 40.2124 51.4132 40.5874C51.7882 40.9624 51.999 41.4709 51.9994 42.0012V54.0012Z" fill="white" fill-opacity="0.95"/>
</svg>
