<svg width="64" height="64" viewBox="0 0 64 64" fill="none" xmlns="http://www.w3.org/2000/svg">
<path d="M40 20C38.2851 20.0063 36.5781 20.2343 34.9216 20.6784L26.4627 6.0272C26.1116 5.41903 25.6066 4.91399 24.9985 4.56285C24.3904 4.21172 23.7006 4.02686 22.9984 4.02686C22.2961 4.02686 21.6063 4.21172 20.9982 4.56285C20.3901 4.91399 19.8851 5.41903 19.534 6.0272L4.54005 32C4.18903 32.608 4.00421 33.2976 4.00415 33.9997C4.00409 34.7017 4.1888 35.3914 4.53972 35.9994C4.89064 36.6075 5.39541 37.1124 6.00331 37.4636C6.6112 37.8148 7.30081 37.9998 8.00285 38H20.1012C20.0357 38.658 20 39.3248 20 40C20 43.9556 21.173 47.8224 23.3707 51.1114C25.5683 54.4004 28.6919 56.9638 32.3464 58.4776C36.0009 59.9913 40.0222 60.3874 43.9019 59.6157C47.7815 58.844 51.3451 56.9392 54.1422 54.1421C56.9392 51.3451 58.8441 47.7814 59.6158 43.9018C60.3875 40.0222 59.9914 36.0009 58.4776 32.3463C56.9639 28.6918 54.4004 25.5682 51.1115 23.3706C47.8225 21.173 43.9557 20 40 20ZM8.00365 34L22.9982 8.0282L31.125 22.1034C28.7138 23.3012 26.5679 24.9716 24.8152 27.0153C23.0625 29.059 21.7386 31.4343 20.9222 34H8.00365ZM33.1283 25.5726L37.9939 34H25.1778C26.6883 30.3003 29.5227 27.2958 33.1283 25.5726ZM40 56C37.7263 56.0141 35.476 55.5404 33.4008 54.6109C31.3257 53.6814 29.474 52.3176 27.9708 50.6117C26.4675 48.9057 25.3476 46.8972 24.6865 44.7216C24.0255 42.546 23.8388 40.2539 24.1388 38H37.994C38.6962 38 39.386 37.8151 39.994 37.4641C40.6021 37.113 41.107 36.608 41.4581 36C41.8091 35.3919 41.9939 34.7021 41.9939 34C41.9939 33.2978 41.8091 32.6081 41.458 32L37.0072 24.2908C39.1955 23.8735 41.4468 23.9178 43.617 24.421C45.7871 24.9242 47.8282 25.8751 49.6096 27.2128C51.3909 28.5505 52.8732 30.2456 53.9615 32.1894C55.0497 34.1332 55.72 36.2829 55.9293 38.5007C56.1387 40.7186 55.8824 42.9557 55.1771 45.0688C54.4717 47.1819 53.3327 49.1243 51.8331 50.7717C50.3335 52.4191 48.5064 53.7351 46.4687 54.6354C44.431 55.5358 42.2278 56.0005 40 56Z" fill="white" fill-opacity="0.95"/>
</svg>
