<svg width="32" height="32" viewBox="0 0 32 32" fill="none" xmlns="http://www.w3.org/2000/svg">
<path d="M26 15.2495H16.75V5.99951C16.75 5.8006 16.671 5.60983 16.5303 5.46918C16.3897 5.32853 16.1989 5.24951 16 5.24951C15.8011 5.24951 15.6103 5.32853 15.4697 5.46918C15.329 5.60983 15.25 5.8006 15.25 5.99951V15.2495H6C5.80109 15.2495 5.61032 15.3285 5.46967 15.4692C5.32902 15.6098 5.25 15.8006 5.25 15.9995C5.25 16.1984 5.32902 16.3892 5.46967 16.5298C5.61032 16.6705 5.80109 16.7495 6 16.7495H15.25V25.9995C15.25 26.1984 15.329 26.3892 15.4697 26.5298C15.6103 26.6705 15.8011 26.7495 16 26.7495C16.1989 26.7495 16.3897 26.6705 16.5303 26.5298C16.671 26.3892 16.75 26.1984 16.75 25.9995V16.7495H26C26.1989 16.7495 26.3897 16.6705 26.5303 16.5298C26.671 16.3892 26.75 16.1984 26.75 15.9995C26.75 15.8006 26.671 15.6098 26.5303 15.4692C26.3897 15.3285 26.1989 15.2495 26 15.2495Z" fill="white" fill-opacity="0.95"/>
</svg>
