<svg width="559" height="320" viewBox="0 0 559 320" fill="none" xmlns="http://www.w3.org/2000/svg">
<path d="M341.728 120.2C341.728 120.2 343.928 127 344.728 129.2C345.728 132.2 343.728 133.2 341.728 133.2H339.728M338.728 103.2C331.728 103.2 327.728 107.2 323.728 111.2C319.728 115.2 315.728 119.2 309.728 119.2M355.728 108.2C355.728 99.4002 348.528 92.2002 339.728 92.2002C334.728 92.2002 329.728 92.2002 329.728 92.2002C314.228 92.2002 301.728 104.7 301.728 120.2V125.2C301.728 131.2 297.728 133.2 295.728 135.2C293.728 137.2 289.728 140.2 289.728 146.2C289.728 152.2 293.728 156.2 293.728 156.2M265.728 120.2C265.728 120.2 267.928 126.9 268.728 129.2C269.728 132.2 267.728 133.2 265.728 133.2H263.728M268.728 112.2H251.728C247.328 112.2 243.728 115.8 243.728 120.2V135.2C243.728 144 250.928 151.2 259.728 151.2C268.528 151.2 275.728 144 275.728 135.2V116.2C275.728 103.8 265.428 93.8002 252.928 94.2002C241.028 94.6002 231.728 104.8 231.728 116.7V154.2C231.728 157.2 230.028 160 227.328 161.4L213.028 168.6C204.928 172.7 199.728 181 199.728 190.1V201.3C199.728 217.9 186.328 231.3 169.728 231.3C153.128 231.3 139.728 217.9 139.728 201.3V190.1C139.728 181 144.828 172.7 153.028 168.6L175.328 157.4C178.028 156 179.728 153.3 179.728 150.2V128.2C179.728 125.9 177.728 124 175.328 124.2C173.228 124.4 171.628 126.5 171.728 128.6C172.128 136.7 185.128 151.3 201.028 151.2C209.228 151.1 215.728 144.4 215.728 136.2V116.2C215.728 109 209.928 103.2 202.728 103.2C195.728 103.2 191.728 107.2 187.728 111.2C183.728 115.2 179.728 119.2 172.728 119.2M205.728 120.2C205.728 120.2 207.928 127 208.728 129.2C209.728 132.2 207.728 133.2 205.728 133.2H203.728M198.728 97.2002C191.728 97.2002 187.728 101.2 183.728 105.2C179.728 109.2 175.728 113.2 168.728 113.2M194.728 91.2002C187.728 91.2002 183.728 95.2002 179.728 99.2002C175.728 103.2 171.728 107.2 164.728 107.2M338.828 103.2C346.028 103.2 351.828 109 351.828 116.2V136.2C351.828 144.4 345.328 151.1 337.128 151.2C321.328 151.4 308.328 136.8 307.828 128.6C307.728 126.5 309.328 124.4 311.428 124.2C313.828 124 315.828 125.8 315.828 128.2V150.3C315.828 153.3 314.128 156.1 311.428 157.5L289.128 168.7C281.028 172.8 275.828 181.1 275.828 190.2V201.4C275.828 218 289.228 231.4 305.828 231.4C322.428 231.4 335.828 218 335.828 201.4V190.2C335.828 181.1 340.928 172.8 349.128 168.7L371.428 157.5C374.128 156.1 375.828 153.4 375.828 150.3V128.2C375.828 125.9 373.828 124 371.428 124.2C369.328 124.4 367.728 126.5 367.828 128.6C368.228 136.7 381.228 151.3 397.128 151.2C405.328 151.1 411.828 144.4 411.828 136.2V113.7C411.828 102.9 403.428 93.6002 392.528 93.2002C381.128 92.8002 371.828 101.9 371.828 113.2C371.828 114.3 372.728 115.2 373.828 115.2H375.828C380.228 115.2 383.828 118.8 383.828 123.2V135.2C383.828 138.5 386.528 141.2 389.828 141.2C390.928 141.2 391.828 140.3 391.828 139.2C391.828 135.9 394.528 133.2 397.828 133.2H401.828C403.828 133.2 405.828 132.2 404.828 129.2C404.028 127 401.828 120.2 401.828 120.2" stroke="url(#paint0_linear_1859_31910)" stroke-width="2.5" stroke-miterlimit="10" stroke-linecap="round" stroke-linejoin="round"/>
<path d="M391.728 124.3C392.832 124.3 393.728 123.405 393.728 122.3C393.728 121.196 392.832 120.3 391.728 120.3C390.623 120.3 389.728 121.196 389.728 122.3C389.728 123.405 390.623 124.3 391.728 124.3Z" fill="#3D8DE6"/>
<path d="M331.728 124.2C332.832 124.2 333.728 123.305 333.728 122.2C333.728 121.096 332.832 120.2 331.728 120.2C330.623 120.2 329.728 121.096 329.728 122.2C329.728 123.305 330.623 124.2 331.728 124.2Z" fill="#3D8DE6"/>
<path d="M255.728 124.2C256.832 124.2 257.728 123.305 257.728 122.2C257.728 121.096 256.832 120.2 255.728 120.2C254.623 120.2 253.728 121.096 253.728 122.2C253.728 123.305 254.623 124.2 255.728 124.2Z" fill="#3D8DE6"/>
<path d="M195.728 124.2C196.832 124.2 197.728 123.305 197.728 122.2C197.728 121.096 196.832 120.2 195.728 120.2C194.623 120.2 193.728 121.096 193.728 122.2C193.728 123.305 194.623 124.2 195.728 124.2Z" fill="#3D8DE6"/>
<defs>
<linearGradient id="paint0_linear_1859_31910" x1="275.778" y1="91.2002" x2="275.778" y2="231.4" gradientUnits="userSpaceOnUse">
<stop stop-color="#93C437"/>
<stop offset="1" stop-color="#279BE8"/>
</linearGradient>
</defs>
</svg>
