<svg width="32" height="32" viewBox="0 0 32 32" fill="none" xmlns="http://www.w3.org/2000/svg">
<path d="M15.9998 2.24951C13.2803 2.24951 10.6218 3.05594 8.36067 4.5668C6.0995 6.07767 4.33712 8.22513 3.29642 10.7376C2.25571 13.2501 1.98342 16.0148 2.51396 18.682C3.04451 21.3492 4.35407 23.7993 6.27704 25.7222C8.20002 27.6452 10.65 28.9548 13.3173 29.4853C15.9845 30.0159 18.7492 29.7436 21.2617 28.7029C23.7741 27.6621 25.9216 25.8998 27.4325 23.6386C28.9433 21.3774 29.7498 18.719 29.7498 15.9995C29.7457 12.354 28.2958 8.859 25.718 6.28125C23.1403 3.7035 19.6453 2.25355 15.9998 2.24951ZM15.9998 28.2495C13.5769 28.2495 11.2085 27.5311 9.19403 26.185C7.17952 24.839 5.60941 22.9258 4.68224 20.6874C3.75506 18.449 3.51247 15.9859 3.98514 13.6097C4.45781 11.2334 5.62451 9.05065 7.3377 7.33745C9.0509 5.62426 11.2336 4.45756 13.6099 3.98489C15.9862 3.51222 18.4492 3.75481 20.6876 4.68199C22.926 5.60916 24.8392 7.17927 26.1853 9.19378C27.5313 11.2083 28.2498 13.5767 28.2498 15.9995C28.2462 19.2473 26.9544 22.3611 24.6578 24.6576C22.3613 26.9541 19.2476 28.2459 15.9998 28.2495Z" fill="white" fill-opacity="0.95"/>
<path d="M20.5115 12.4302L14.0398 17.9771L11.531 15.4556C11.3906 15.3148 11.2001 15.2356 11.0012 15.2353C10.8024 15.235 10.6117 15.3137 10.4708 15.454C10.33 15.5943 10.2506 15.7848 10.2502 15.9836C10.2498 16.1824 10.3283 16.3732 10.4685 16.5142L13.4685 19.5288C13.6021 19.6629 13.7813 19.7415 13.9704 19.7489C14.1595 19.7563 14.3444 19.692 14.488 19.5688L21.488 13.5688C21.5628 13.5047 21.6242 13.4265 21.6687 13.3386C21.7133 13.2508 21.7401 13.155 21.7476 13.0568C21.7551 12.9586 21.7432 12.8599 21.7126 12.7662C21.682 12.6726 21.6332 12.586 21.5691 12.5112C21.505 12.4364 21.4268 12.375 21.3389 12.3305C21.251 12.286 21.1553 12.2592 21.0571 12.2516C20.9589 12.2441 20.8601 12.256 20.7665 12.2866C20.6729 12.3173 20.5862 12.3661 20.5115 12.4302Z" fill="white" fill-opacity="0.95"/>
</svg>
