<svg width="559" height="420" viewBox="0 0 559 420" fill="none" xmlns="http://www.w3.org/2000/svg">
<rect width="559" height="420" rx="16" fill="#191919"/>
<rect x="197.5" y="128" width="164" height="164" rx="25" fill="white"/>
<path fill-rule="evenodd" clip-rule="evenodd" d="M249.55 230.099H290.889C292.741 230.099 294.328 230.802 295.561 232.029C296.795 233.167 297.5 234.832 297.5 236.584V246.489C297.5 248.242 296.796 249.907 295.561 251.045C294.328 252.272 292.741 252.973 290.889 252.973H249.55C247.787 252.973 246.112 252.272 244.967 251.045C243.821 249.907 243.027 248.242 243.027 246.489V236.584C243.027 234.832 243.821 233.166 244.967 232.029L245.056 231.941C246.201 230.801 247.787 230.099 249.55 230.099Z" fill="black"/>
<path d="M268.017 241.148V248.114H266.667L266.415 246.566C265.605 247.7 264.165 248.384 262.437 248.384C259.215 248.384 256.695 245.972 256.695 241.616C256.695 237.17 259.341 234.884 262.635 234.884C265.587 234.884 267.693 236.666 267.999 238.952H266.199C265.875 237.368 264.543 236.414 262.635 236.414C260.367 236.414 258.567 238.106 258.567 241.616C258.567 245.108 260.529 246.872 262.653 246.872C264.669 246.872 266.361 245.54 266.361 243.632V242.624H262.563V241.148H268.017ZM270.524 235.154H272.36V248.114H270.524V235.154ZM282.367 241.112V242.642H276.895V248.114H275.059V235.154H282.997V236.702H276.895V241.112H282.367Z" fill="white"/>
<path d="M294.874 187.816C292.785 187.816 290.743 188.435 289.006 189.596C287.269 190.756 285.915 192.406 285.115 194.336C284.316 196.266 284.107 198.39 284.514 200.439C284.922 202.488 285.928 204.37 287.405 205.847C288.882 207.324 290.764 208.33 292.813 208.738C294.862 209.145 296.986 208.936 298.916 208.137C300.846 207.337 302.496 205.983 303.656 204.246C304.817 202.509 305.436 200.467 305.436 198.378C305.433 195.578 304.319 192.893 302.339 190.913C300.359 188.933 297.674 187.819 294.874 187.816ZM294.874 204.066C293.749 204.066 292.649 203.732 291.714 203.107C290.779 202.482 290.05 201.594 289.619 200.555C289.189 199.516 289.076 198.372 289.296 197.269C289.515 196.165 290.057 195.152 290.852 194.357C291.648 193.561 292.661 193.019 293.764 192.8C294.867 192.581 296.011 192.693 297.05 193.124C298.09 193.554 298.978 194.283 299.603 195.218C300.228 196.154 300.561 197.253 300.561 198.378C300.559 199.886 299.96 201.332 298.893 202.398C297.827 203.464 296.382 204.064 294.874 204.066Z" fill="#0F0F0F"/>
<path d="M306.249 168.312H260.749C256.656 168.317 252.732 169.945 249.838 172.839C246.944 175.733 245.316 179.657 245.311 183.75V242.25C245.316 246.343 246.944 250.267 249.838 253.161C252.732 256.055 256.656 257.683 260.749 257.688H306.249C310.342 257.683 314.266 256.055 317.16 253.161C320.054 250.267 321.682 246.343 321.686 242.25V183.75C321.682 179.657 320.054 175.733 317.16 172.839C314.266 169.945 310.342 168.317 306.249 168.312ZM260.749 252.812C258.457 252.805 256.23 252.05 254.405 250.664C252.58 249.277 251.257 247.333 250.635 245.127L267.922 222.839C268.864 221.603 270.067 220.591 271.446 219.876C272.825 219.16 274.345 218.759 275.898 218.7C277.441 218.647 278.977 218.929 280.401 219.528C281.824 220.126 283.101 221.026 284.143 222.166L310.095 252.062C308.871 252.552 307.567 252.807 306.249 252.813L260.749 252.812ZM316.811 242.25C316.802 244.836 315.837 247.328 314.102 249.245L287.796 218.941C286.281 217.254 284.413 215.92 282.324 215.037C280.236 214.153 277.978 213.74 275.711 213.828C273.445 213.916 271.226 214.502 269.212 215.545C267.198 216.588 265.439 218.062 264.059 219.862L250.186 237.748V183.75C250.19 180.95 251.303 178.265 253.284 176.285C255.264 174.305 257.948 173.191 260.749 173.188H306.249C309.049 173.191 311.734 174.305 313.714 176.285C315.694 178.265 316.808 180.95 316.811 183.75V242.25Z" fill="#0F0F0F"/>
</svg>
