<svg width="32" height="32" viewBox="0 0 32 32" fill="none" xmlns="http://www.w3.org/2000/svg">
<path d="M15.9998 2.24976C13.2803 2.24976 10.6218 3.05618 8.36067 4.56705C6.0995 6.07792 4.33712 8.22537 3.29642 10.7379C2.25571 13.2503 1.98342 16.015 2.51396 18.6822C3.04451 21.3495 4.35407 23.7995 6.27704 25.7225C8.20002 27.6454 10.65 28.955 13.3173 29.4856C15.9845 30.0161 18.7492 29.7438 21.2617 28.7031C23.7741 27.6624 25.9216 25.9 27.4325 23.6388C28.9433 21.3777 29.7498 18.7192 29.7498 15.9998C29.7457 12.3543 28.2958 8.85925 25.718 6.2815C23.1403 3.70374 19.6453 2.25379 15.9998 2.24976ZM15.9998 28.2498C13.5769 28.2498 11.2085 27.5313 9.19403 26.1853C7.17952 24.8392 5.60941 22.926 4.68224 20.6876C3.75506 18.4492 3.51247 15.9862 3.98514 13.6099C4.45781 11.2336 5.62451 9.05089 7.3377 7.3377C9.0509 5.6245 11.2336 4.4578 13.6099 3.98514C15.9862 3.51247 18.4492 3.75506 20.6876 4.68223C22.926 5.60941 24.8392 7.17952 26.1853 9.19402C27.5313 11.2085 28.2498 13.5769 28.2498 15.9998C28.2462 19.2476 26.9544 22.3613 24.6578 24.6578C22.3613 26.9544 19.2476 28.2462 15.9998 28.2498Z" fill="white" fill-opacity="0.95"/>
<path d="M20.5115 12.4304L14.0398 17.9773L11.531 15.4558C11.3906 15.3151 11.2001 15.2358 11.0012 15.2355C10.8024 15.2352 10.6117 15.3139 10.4708 15.4542C10.33 15.5945 10.2506 15.785 10.2502 15.9838C10.2498 16.1826 10.3283 16.3735 10.4685 16.5144L13.4685 19.5291C13.6021 19.6631 13.7813 19.7417 13.9704 19.7492C14.1595 19.7566 14.3444 19.6922 14.488 19.5691L21.488 13.5691C21.5628 13.5049 21.6242 13.4267 21.6687 13.3389C21.7133 13.251 21.7401 13.1552 21.7476 13.057C21.7551 12.9588 21.7432 12.8601 21.7126 12.7665C21.682 12.6729 21.6332 12.5862 21.5691 12.5114C21.505 12.4367 21.4268 12.3753 21.3389 12.3307C21.251 12.2862 21.1553 12.2594 21.0571 12.2519C20.9589 12.2443 20.8601 12.2562 20.7665 12.2869C20.6729 12.3175 20.5862 12.3663 20.5115 12.4304Z" fill="white" fill-opacity="0.95"/>
</svg>
