<svg width="555" height="164" viewBox="0 0 555 164" fill="none" xmlns="http://www.w3.org/2000/svg">
<g clip-path="url(#clip0_1860_4004)">
<rect x="195.5" width="164" height="164" rx="25" fill="white"/>
<g clip-path="url(#clip1_1860_4004)">
<path d="M262.92 35.909C262.165 35.909 261.494 35.2289 261.494 34.4643C261.494 33.6998 262.165 33.0205 262.92 33.0205H297.338C300.025 33.0205 302.46 34.1255 304.221 35.909C305.986 37.6924 307.075 40.0722 307.075 42.7893V92.3189C307.075 93.0827 306.404 93.762 305.65 93.762C304.895 93.762 304.22 93.0827 304.22 92.3189V42.7901C304.22 40.9213 303.466 39.2224 302.208 37.9476C300.946 36.6728 299.269 35.909 297.337 35.909H262.92Z" fill="black"/>
<path d="M304.221 117.806C304.221 117.042 304.895 116.36 305.65 116.36C306.406 116.36 307.076 117.042 307.076 117.806V118.23C307.076 120.949 305.986 123.325 304.222 125.11C302.461 126.895 300.025 127.999 297.339 127.999H249.154C246.467 127.999 244.116 126.895 242.355 125.11L242.271 125.026C240.59 123.325 239.5 120.864 239.5 118.23V66.2376C239.5 65.4738 240.171 64.793 240.926 64.793C241.681 64.793 242.355 65.473 242.355 66.2376V118.23C242.355 120.1 243.11 121.798 244.284 123.071H244.368C245.628 124.347 247.306 125.111 249.154 125.111H297.338C299.271 125.111 300.948 124.347 302.208 123.071C303.467 121.883 304.221 120.1 304.221 118.23V117.806Z" fill="black"/>
<path fill-rule="evenodd" clip-rule="evenodd" d="M273.834 97.0757H313.203C314.967 97.0757 316.477 97.755 317.654 98.946C318.828 100.049 319.499 101.665 319.499 103.362V112.962C319.499 114.662 318.828 116.274 317.654 117.381C316.477 118.569 314.967 119.248 313.203 119.248H273.834C272.154 119.248 270.56 118.569 269.467 117.381C268.377 116.274 267.622 114.662 267.622 112.962V103.362C267.622 101.665 268.377 100.049 269.467 98.946L269.552 98.8607C270.644 97.7542 272.155 97.0757 273.835 97.0757H273.834Z" fill="black"/>
<path fill-rule="evenodd" clip-rule="evenodd" d="M254.695 58.1667H240.926C240.171 58.1667 239.5 57.4874 239.5 56.722C239.5 56.2979 239.668 55.9582 239.92 55.7023L261.914 33.4445C262.501 32.8505 263.34 32.8505 263.93 33.4445C264.181 33.6988 264.349 34.1253 264.349 34.4642V48.3971C264.349 51.1165 263.255 53.5792 261.495 55.2782L261.41 55.3635C259.73 57.147 257.295 58.1674 254.695 58.1674V58.1667Z" fill="black"/>
<path fill-rule="evenodd" clip-rule="evenodd" d="M279.121 76.8576L274.757 79.8314L270.309 82.7183C269.467 83.3991 268.461 82.9742 268.461 81.5304V69.8059C268.376 68.6164 269.3 67.8526 270.309 68.6164L274.757 71.5049L279.205 74.4786C280.13 74.9028 280.298 76.1776 279.121 76.8584V76.8576ZM273.328 57.4883C278.282 57.4883 282.733 59.5269 286.007 62.8395C289.281 66.1521 291.21 70.655 291.21 75.6674C291.21 80.6797 289.281 85.1818 286.007 88.4952H285.923C282.733 91.8102 278.199 93.8464 273.328 93.8464C268.458 93.8464 263.842 91.8094 260.568 88.4952C257.382 85.1826 255.366 80.6797 255.366 75.6674C255.366 70.655 257.382 66.1521 260.568 62.8395H260.655C263.842 59.5261 268.376 57.4883 273.328 57.4883H273.328ZM283.991 64.8781C281.221 62.0741 277.444 60.3752 273.328 60.3752C269.213 60.3752 265.355 62.0741 262.584 64.8781C259.898 67.5975 258.22 71.4196 258.22 75.6674C258.22 79.9151 259.898 83.738 262.584 86.4566C265.355 89.2606 269.132 90.9595 273.328 90.9595C277.525 90.9595 281.221 89.2606 283.991 86.4566C286.678 83.7372 288.439 79.9151 288.439 75.6674C288.439 71.4196 286.678 67.5967 283.991 64.8781Z" fill="black"/>
<path d="M284.499 114.889L288.243 104.827V114.889H289.971V101.929H287.559L283.671 112.729L279.549 101.929H276.993V114.889H278.775V104.737L282.771 114.889H284.499ZM292.673 101.929V114.889H294.509V110.263H296.813C300.215 110.263 301.961 108.769 301.961 106.141C301.961 103.405 300.143 101.929 296.885 101.929H292.673ZM296.921 103.423C298.955 103.423 300.053 104.431 300.053 106.141C300.053 107.833 299.135 108.769 296.849 108.769H294.509V103.423H296.921ZM308.87 102.289L303.47 110.911V112.513H308.996V114.889H310.67V112.513H312.704V111.037H310.67V102.289H308.87ZM305.396 111.037L308.996 105.079V111.037H305.396Z" fill="white"/>
</g>
</g>
<defs>
<clipPath id="clip0_1860_4004">
<rect width="555" height="164" rx="16" fill="white"/>
</clipPath>
<clipPath id="clip1_1860_4004">
<rect width="80" height="95" fill="white" transform="translate(239.5 32.9995)"/>
</clipPath>
</defs>
</svg>
