<svg width="32" height="32" viewBox="0 0 32 32" fill="none" xmlns="http://www.w3.org/2000/svg">
<path d="M15.9998 2.24963C13.2803 2.24963 10.6218 3.05606 8.36067 4.56693C6.0995 6.0778 4.33712 8.22525 3.29642 10.7377C2.25571 13.2502 1.98342 16.0149 2.51396 18.6821C3.04451 21.3494 4.35407 23.7994 6.27704 25.7224C8.20002 27.6453 10.65 28.9549 13.3173 29.4854C15.9845 30.016 18.7492 29.7437 21.2617 28.703C23.7741 27.6623 25.9216 25.8999 27.4325 23.6387C28.9433 21.3776 29.7498 18.7191 29.7498 15.9996C29.7457 12.3541 28.2958 8.85912 25.718 6.28137C23.1403 3.70362 19.6453 2.25367 15.9998 2.24963ZM15.9998 28.2496C13.5769 28.2496 11.2085 27.5312 9.19403 26.1851C7.17952 24.8391 5.60941 22.9259 4.68224 20.6875C3.75506 18.4491 3.51247 15.986 3.98514 13.6098C4.45781 11.2335 5.62451 9.05077 7.3377 7.33758C9.0509 5.62438 11.2336 4.45768 13.6099 3.98501C15.9862 3.51235 18.4492 3.75494 20.6876 4.68211C22.926 5.60928 24.8392 7.1794 26.1853 9.1939C27.5313 11.2084 28.2498 13.5768 28.2498 15.9996C28.2462 19.2474 26.9544 22.3612 24.6578 24.6577C22.3613 26.9543 19.2476 28.246 15.9998 28.2496Z" fill="white" fill-opacity="0.95"/>
<path d="M20.5115 12.4303L14.0398 17.9772L11.531 15.4557C11.3906 15.315 11.2001 15.2357 11.0012 15.2354C10.8024 15.2351 10.6117 15.3138 10.4708 15.4541C10.33 15.5944 10.2506 15.7849 10.2502 15.9837C10.2498 16.1825 10.3283 16.3734 10.4685 16.5143L13.4685 19.5289C13.6021 19.663 13.7813 19.7416 13.9704 19.749C14.1595 19.7565 14.3444 19.6921 14.488 19.5689L21.488 13.5689C21.5628 13.5048 21.6242 13.4266 21.6687 13.3387C21.7133 13.2509 21.7401 13.1551 21.7476 13.0569C21.7551 12.9587 21.7432 12.86 21.7126 12.7664C21.682 12.6727 21.6332 12.5861 21.5691 12.5113C21.505 12.4366 21.4268 12.3751 21.3389 12.3306C21.251 12.2861 21.1553 12.2593 21.0571 12.2518C20.9589 12.2442 20.8601 12.2561 20.7665 12.2867C20.6729 12.3174 20.5862 12.3662 20.5115 12.4303Z" fill="white" fill-opacity="0.95"/>
</svg>
