<svg width="559" height="540" viewBox="0 0 559 540" fill="none" xmlns="http://www.w3.org/2000/svg">
<rect width="559" height="540" rx="16" fill="#191919"/>
<rect x="197.5" y="188" width="164" height="164" rx="25" fill="white"/>
<g clip-path="url(#clip0_1860_4164)">
<path d="M270.091 224.002C269.298 224.002 268.594 223.3 268.594 222.512C268.594 221.724 269.298 221.022 270.091 221.022H306.23C309.051 221.022 311.608 222.162 313.459 224.001C315.309 225.842 316.456 228.296 316.456 231.099V282.192C316.456 282.981 315.75 283.682 314.957 283.682C314.164 283.682 313.458 282.981 313.458 282.192V231.1C313.458 229.172 312.664 227.419 311.343 226.104C310.02 224.789 308.258 224.001 306.229 224.001H270.091V224.002Z" fill="black"/>
<path d="M313.459 308.483C313.459 307.696 314.164 306.995 314.958 306.995C315.752 306.995 316.457 307.696 316.457 308.483V308.923C316.457 311.725 315.31 314.18 313.46 316.02C311.609 317.861 309.052 319.001 306.231 319.001H255.636C252.815 319.001 250.347 317.861 248.496 316.02L248.408 315.933C246.645 314.18 245.5 311.638 245.5 308.923V255.288C245.5 254.5 246.204 253.797 246.997 253.797C247.791 253.797 248.496 254.499 248.496 255.288V308.922C248.496 310.85 249.29 312.602 250.523 313.917H250.612C251.933 315.232 253.696 316.02 255.636 316.02H306.23C308.258 316.02 310.021 315.232 311.344 313.917C312.665 312.69 313.459 310.85 313.459 308.922V308.483V308.483Z" fill="black"/>
<path fill-rule="evenodd" clip-rule="evenodd" d="M261.453 246.963H246.997C246.205 246.963 245.5 246.261 245.5 245.473C245.5 245.035 245.676 244.685 245.94 244.421L269.034 221.459C269.65 220.847 270.533 220.847 271.149 221.459C271.414 221.723 271.589 222.162 271.589 222.512V236.885C271.589 239.688 270.444 242.23 268.594 243.983L268.504 244.071C266.742 245.911 264.186 246.964 261.453 246.964V246.963Z" fill="black"/>
<path fill-rule="evenodd" clip-rule="evenodd" d="M281.55 287.099H322.889C324.741 287.099 326.328 287.802 327.561 289.029C328.795 290.167 329.5 291.832 329.5 293.584V303.489C329.5 305.241 328.796 306.907 327.561 308.045C326.328 309.272 324.741 309.973 322.889 309.973H281.55C279.787 309.973 278.112 309.272 276.967 308.045C275.821 306.907 275.027 305.242 275.027 303.489V293.584C275.027 291.832 275.821 290.166 276.967 289.029L277.056 288.941C278.201 287.801 279.787 287.099 281.55 287.099Z" fill="black"/>
<path d="M264.362 277.021C264.274 277.811 263.48 278.424 262.687 278.336C261.893 278.249 261.277 277.549 261.365 276.759C261.893 271.676 264.274 267.294 267.8 264.139C271.325 260.986 275.997 259.056 281.109 259.056C286.221 259.056 290.805 260.986 294.331 264.139C297.856 267.294 300.237 271.676 300.766 276.759C300.853 277.549 300.326 278.249 299.443 278.336C298.651 278.424 297.944 277.811 297.856 277.021C297.416 272.728 295.389 269.046 292.392 266.331C289.395 263.613 285.43 262.036 281.109 262.036C276.789 262.036 272.823 263.613 269.826 266.331C266.829 269.046 264.802 272.728 264.362 277.021Z" fill="black"/>
<path fill-rule="evenodd" clip-rule="evenodd" d="M262.687 276.846C264.274 276.846 265.597 278.073 265.597 279.739C265.597 281.316 264.274 282.543 262.687 282.543C261.012 282.543 259.778 281.316 259.778 279.739C259.778 278.073 261.012 276.846 262.687 276.846Z" fill="black"/>
<path fill-rule="evenodd" clip-rule="evenodd" d="M299.355 276.846C300.942 276.846 302.176 278.073 302.176 279.739C302.176 281.316 300.942 282.543 299.355 282.543C297.68 282.543 296.446 281.316 296.446 279.739C296.446 278.073 297.68 276.846 299.355 276.846Z" fill="black"/>
<path fill-rule="evenodd" clip-rule="evenodd" d="M262.687 257.831C264.274 257.831 265.597 259.057 265.597 260.633C265.597 262.299 264.274 263.526 262.687 263.526C261.012 263.526 259.778 262.299 259.778 260.633C259.778 259.056 261.012 257.831 262.687 257.831Z" fill="black"/>
<path fill-rule="evenodd" clip-rule="evenodd" d="M299.355 257.831C300.942 257.831 302.176 259.057 302.176 260.633C302.176 262.299 300.942 263.526 299.355 263.526C297.68 263.526 296.446 262.299 296.446 260.633C296.446 259.056 297.68 257.831 299.355 257.831Z" fill="black"/>
<path d="M262.687 262.124C261.806 262.124 261.189 261.511 261.189 260.633C261.189 259.846 261.805 259.231 262.687 259.231H299.355C300.149 259.231 300.854 259.846 300.854 260.633C300.854 261.511 300.149 262.124 299.355 262.124H262.687Z" fill="black"/>
<path fill-rule="evenodd" clip-rule="evenodd" d="M281.021 257.831C282.608 257.831 283.842 259.057 283.842 260.633C283.842 262.299 282.608 263.526 281.021 263.526C279.346 263.526 278.112 262.299 278.112 260.633C278.112 259.056 279.346 257.831 281.021 257.831Z" fill="black"/>
<path d="M284.928 301.478C285.288 303.854 287.394 305.384 290.184 305.384C293.406 305.384 295.242 303.548 295.242 301.532C295.242 299.534 294.216 298.472 290.616 297.464C287.646 296.636 287.214 296.15 287.214 295.142C287.214 294.17 288.042 293.396 290.022 293.396C291.966 293.396 293.064 294.134 293.262 295.394H295.152C294.828 293.198 292.794 291.884 290.022 291.884C287.052 291.884 285.378 293.324 285.378 295.214C285.378 296.996 286.314 298.058 289.32 298.886C292.812 299.84 293.406 300.398 293.406 301.604C293.406 302.828 292.308 303.872 290.148 303.872C288.222 303.872 287.034 302.936 286.818 301.478H284.928ZM305.64 292.154L301.662 303.386L297.738 292.154H295.794L300.51 305.114H302.796L307.44 292.154H305.64ZM319.229 298.148H313.775V299.624H317.573V300.632C317.573 302.54 315.881 303.872 313.865 303.872C311.741 303.872 309.779 302.108 309.779 298.616C309.779 295.106 311.579 293.414 313.847 293.414C315.755 293.414 317.087 294.368 317.411 295.952H319.211C318.905 293.666 316.799 291.884 313.847 291.884C310.553 291.884 307.907 294.17 307.907 298.616C307.907 302.972 310.427 305.384 313.649 305.384C315.377 305.384 316.817 304.7 317.627 303.566L317.879 305.114H319.229V298.148Z" fill="white"/>
</g>
<defs>
<clipPath id="clip0_1860_4164">
<rect width="84" height="98" fill="white" transform="translate(245.5 221)"/>
</clipPath>
</defs>
</svg>
