<svg width="32" height="32" viewBox="0 0 32 32" fill="none" xmlns="http://www.w3.org/2000/svg">
<path d="M26 15.2498H16.75V5.99976C16.75 5.80084 16.671 5.61008 16.5303 5.46943C16.3897 5.32877 16.1989 5.24976 16 5.24976C15.8011 5.24976 15.6103 5.32877 15.4697 5.46943C15.329 5.61008 15.25 5.80084 15.25 5.99976V15.2498H6C5.80109 15.2498 5.61032 15.3288 5.46967 15.4694C5.32902 15.6101 5.25 15.8008 5.25 15.9998C5.25 16.1987 5.32902 16.3894 5.46967 16.5301C5.61032 16.6707 5.80109 16.7498 6 16.7498H15.25V25.9998C15.25 26.1987 15.329 26.3894 15.4697 26.5301C15.6103 26.6707 15.8011 26.7498 16 26.7498C16.1989 26.7498 16.3897 26.6707 16.5303 26.5301C16.671 26.3894 16.75 26.1987 16.75 25.9998V16.7498H26C26.1989 16.7498 26.3897 16.6707 26.5303 16.5301C26.671 16.3894 26.75 16.1987 26.75 15.9998C26.75 15.8008 26.671 15.6101 26.5303 15.4694C26.3897 15.3288 26.1989 15.2498 26 15.2498Z" fill="white" fill-opacity="0.95"/>
</svg>
