<svg width="362" height="250" viewBox="0 0 362 250" fill="none" xmlns="http://www.w3.org/2000/svg">
<rect width="362" height="250" rx="16" fill="#1A1A1A"/>
<rect x="11.9523" y="20.9048" width="88" height="30" rx="11" fill="#FAC3F8"/>
<rect x="11.9523" y="20.9048" width="88" height="30" rx="11" stroke="#F294F1" stroke-width="2"/>
<path d="M42.2243 40.9048H40.3043L37.5203 36.5208H34.7843V40.9048H33.1523V29.3848H36.8803C39.8083 29.3848 41.4403 30.6808 41.4403 33.0008C41.4403 34.7448 40.3843 35.7048 39.1203 36.1848L42.2243 40.9048ZM36.9123 30.7128H34.7843V35.1928H36.9603C38.7523 35.1928 39.7443 34.3448 39.7443 33.0008C39.7443 31.5128 38.8483 30.7128 36.9123 30.7128ZM42.7954 36.7448C42.7954 33.7528 44.6514 32.3448 46.9074 32.3448C49.1794 32.3448 51.0034 33.7528 51.0034 36.7448C51.0034 39.6568 49.2434 41.1448 46.8914 41.1448C44.5714 41.1448 42.7954 39.6248 42.7954 36.7448ZM44.3954 36.7448C44.3954 38.8088 45.4834 39.8968 46.9234 39.8968C48.3954 39.8968 49.4034 38.8088 49.4034 36.7448C49.4034 34.6328 48.3314 33.5928 46.9074 33.5928C45.4834 33.5928 44.3954 34.6648 44.3954 36.7448ZM56.4718 39.6728V40.9848C56.0558 41.0968 55.7198 41.1448 55.3358 41.1448C53.8638 41.1448 53.1118 40.2168 53.1118 38.8408V33.8968H51.8798V32.5848H53.1118L53.2078 30.5848H54.6478V32.5848H56.4398V33.8968H54.6478V38.8728C54.6478 39.4968 54.9518 39.8008 55.5278 39.8008C55.7998 39.8008 56.0078 39.7848 56.4718 39.6728ZM59.228 34.9048H57.596C57.756 33.3688 59.084 32.3448 61.164 32.3448C63.34 32.3448 64.556 33.5128 64.556 35.2248V40.9048H63.292L63.1 39.7688C62.556 40.5368 61.66 41.1448 60.316 41.1448C58.492 41.1448 57.436 40.1208 57.436 38.7608C57.436 37.2408 58.348 36.3768 60.588 35.9928L63.02 35.5768V35.1608C63.02 34.1368 62.332 33.5608 61.1 33.5608C59.916 33.5608 59.34 34.0728 59.228 34.9048ZM63.02 36.7768L60.956 37.1448C59.468 37.4008 59.068 37.8648 59.068 38.6008C59.068 39.4008 59.644 39.8488 60.684 39.8488C61.852 39.8488 63.02 38.9848 63.02 37.8488V36.7768ZM70.4249 39.6728V40.9848C70.0089 41.0968 69.6729 41.1448 69.2889 41.1448C67.8169 41.1448 67.0649 40.2168 67.0649 38.8408V33.8968H65.8329V32.5848H67.0649L67.1609 30.5848H68.6009V32.5848H70.3929V33.8968H68.6009V38.8728C68.6009 39.4968 68.9049 39.8008 69.4809 39.8008C69.7529 39.8008 69.9609 39.7848 70.4249 39.6728ZM77.455 38.5048H79.119C78.703 40.0248 77.391 41.1448 75.391 41.1448C73.023 41.1448 71.311 39.6728 71.311 36.7448C71.311 33.8488 73.007 32.3448 75.311 32.3448C77.615 32.3448 79.215 33.7208 79.215 37.0808H72.879C73.007 39.0008 74.047 39.8488 75.439 39.8488C76.447 39.8488 77.215 39.2728 77.455 38.5048ZM72.943 35.8648H77.647C77.535 34.3128 76.623 33.5768 75.343 33.5768C74.111 33.5768 73.183 34.3288 72.943 35.8648Z" fill="#35355E"/>
<rect x="261.952" y="51.9048" width="126" height="126" rx="37.8" transform="rotate(45 261.952 51.9048)" fill="#FAC3F8"/>
<rect x="10.9523" y="78.0005" width="126" height="126" rx="37.8" fill="#FAC3F8"/>
<path d="M198.952 141L188.952 135.227V146.774L198.952 141ZM131.179 141L136.952 146.774L142.726 141L136.952 135.227L131.179 141ZM189.953 140C189.929 140 189.904 140 189.88 140C189.856 140 189.832 140 189.807 140C189.783 140 189.759 140 189.735 140C189.71 140 189.686 140 189.661 140C189.637 140 189.613 140 189.588 140C189.564 140 189.539 140 189.515 140C189.49 140 189.466 140 189.441 140C189.416 140 189.392 140 189.367 140C189.342 140 189.318 140 189.293 140C189.268 140 189.243 140 189.219 140C189.194 140 189.169 140 189.144 140C189.119 140 189.094 140 189.069 140C189.045 140 189.02 140 188.995 140C188.97 140 188.945 140 188.919 140C188.894 140 188.869 140 188.844 140C188.819 140 188.794 140 188.769 140C188.744 140 188.718 140 188.693 140C188.668 140 188.643 140 188.617 140C188.592 140 188.567 140 188.541 140C188.516 140 188.49 140 188.465 140C188.44 140 188.414 140 188.389 140C188.363 140 188.337 140 188.312 140C188.286 140 188.261 140 188.235 140C188.209 140 188.184 140 188.158 140C188.132 140 188.107 140 188.081 140C188.055 140 188.029 140 188.004 140C187.978 140 187.952 140 187.926 140C187.9 140 187.874 140 187.848 140C187.822 140 187.796 140 187.77 140C187.744 140 187.718 140 187.692 140C187.666 140 187.64 140 187.614 140C187.588 140 187.562 140 187.535 140C187.509 140 187.483 140 187.457 140C187.43 140 187.404 140 187.378 140C187.351 140 187.325 140 187.299 140C187.272 140 187.246 140 187.219 140C187.193 140 187.167 140 187.14 140C187.113 140 187.087 140 187.06 140C187.034 140 187.007 140 186.981 140C186.954 140 186.927 140 186.901 140C186.874 140 186.847 140 186.82 140C186.794 140 186.767 140 186.74 140C186.713 140 186.686 140 186.66 140C186.633 140 186.606 140 186.579 140C186.552 140 186.525 140 186.498 140C186.471 140 186.444 140 186.417 140C186.39 140 186.363 140 186.336 140C186.309 140 186.281 140 186.254 140C186.227 140 186.2 140 186.173 140C186.145 140 186.118 140 186.091 140C186.064 140 186.036 140 186.009 140C185.982 140 185.954 140 185.927 140C185.899 140 185.872 140 185.844 140C185.817 140 185.789 140 185.762 140C185.734 140 185.707 140 185.679 140C185.652 140 185.624 140 185.596 140C185.569 140 185.541 140 185.513 140C185.486 140 185.458 140 185.43 140C185.402 140 185.375 140 185.347 140C185.319 140 185.291 140 185.263 140C185.235 140 185.208 140 185.18 140C185.152 140 185.124 140 185.096 140C185.068 140 185.04 140 185.012 140C184.984 140 184.956 140 184.927 140C184.899 140 184.871 140 184.843 140C184.815 140 184.787 140 184.758 140C184.73 140 184.702 140 184.674 140C184.645 140 184.617 140 184.589 140C184.56 140 184.532 140 184.504 140C184.475 140 184.447 140 184.419 140C184.39 140 184.362 140 184.333 140C184.305 140 184.276 140 184.248 140C184.219 140 184.19 140 184.162 140C184.133 140 184.105 140 184.076 140C184.047 140 184.018 140 183.99 140C183.961 140 183.932 140 183.904 140C183.875 140 183.846 140 183.817 140C183.788 140 183.759 140 183.731 140C183.702 140 183.673 140 183.644 140C183.615 140 183.586 140 183.557 140C183.528 140 183.499 140 183.47 140C183.441 140 183.412 140 183.383 140C183.353 140 183.324 140 183.295 140C183.266 140 183.237 140 183.208 140C183.178 140 183.149 140 183.12 140C183.091 140 183.061 140 183.032 140C183.003 140 182.973 140 182.944 140C182.915 140 182.885 140 182.856 140C182.826 140 182.797 140 182.767 140C182.738 140 182.708 140 182.679 140C182.649 140 182.62 140 182.59 140C182.561 140 182.531 140 182.501 140C182.472 140 182.442 140 182.412 140C182.383 140 182.353 140 182.323 140C182.293 140 182.264 140 182.234 140C182.204 140 182.174 140 182.144 140C182.114 140 182.085 140 182.055 140C182.025 140 181.995 140 181.965 140C181.935 140 181.905 140 181.875 140C181.845 140 181.815 140 181.785 140C181.755 140 181.725 140 181.695 140C181.665 140 181.634 140 181.604 140C181.574 140 181.544 140 181.514 140C181.483 140 181.453 140 181.423 140C181.393 140 181.362 140 181.332 140C181.302 140 181.271 140 181.241 140C181.211 140 181.18 140 181.15 140C181.12 140 181.089 140 181.059 140C181.028 140 180.998 140 180.967 140C180.937 140 180.906 140 180.876 140C180.845 140 180.814 140 180.784 140C180.753 140 180.722 140 180.692 140C180.661 140 180.63 140 180.6 140C180.569 140 180.538 140 180.508 140C180.477 140 180.446 140 180.415 140C180.384 140 180.354 140 180.323 140C180.292 140 180.261 140 180.23 140C180.199 140 180.168 140 180.137 140C180.106 140 180.075 140 180.044 140C180.013 140 179.982 140 179.951 140C179.92 140 179.889 140 179.858 140C179.827 140 179.796 140 179.765 140C179.733 140 179.702 140 179.671 140C179.64 140 179.609 140 179.577 140C179.546 140 179.515 140 179.484 140C179.452 140 179.421 140 179.39 140C179.358 140 179.327 140 179.295 140C179.264 140 179.233 140 179.201 140C179.17 140 179.138 140 179.107 140C179.075 140 179.044 140 179.012 140C178.981 140 178.949 140 178.918 140C178.886 140 178.854 140 178.823 140C178.791 140 178.76 140 178.728 140C178.696 140 178.665 140 178.633 140C178.601 140 178.569 140 178.538 140C178.506 140 178.474 140 178.442 140C178.41 140 178.379 140 178.347 140C178.315 140 178.283 140 178.251 140C178.219 140 178.187 140 178.155 140C178.123 140 178.091 140 178.059 140C178.027 140 177.995 140 177.963 140C177.931 140 177.899 140 177.867 140C177.835 140 177.803 140 177.771 140C177.739 140 177.707 140 177.674 140C177.642 140 177.61 140 177.578 140C177.546 140 177.513 140 177.481 140C177.449 140 177.417 140 177.384 140C177.352 140 177.32 140 177.287 140C177.255 140 177.223 140 177.19 140C177.158 140 177.125 140 177.093 140C177.06 140 177.028 140 176.996 140C176.963 140 176.931 140 176.898 140C176.866 140 176.833 140 176.8 140C176.768 140 176.735 140 176.703 140C176.67 140 176.637 140 176.605 140C176.572 140 176.539 140 176.507 140C176.474 140 176.441 140 176.409 140C176.376 140 176.343 140 176.31 140C176.277 140 176.245 140 176.212 140C176.179 140 176.146 140 176.113 140C176.08 140 176.048 140 176.015 140C175.982 140 175.949 140 175.916 140C175.883 140 175.85 140 175.817 140C175.784 140 175.751 140 175.718 140C175.685 140 175.652 140 175.619 140C175.586 140 175.553 140 175.519 140C175.486 140 175.453 140 175.42 140C175.387 140 175.354 140 175.321 140C175.287 140 175.254 140 175.221 140C175.188 140 175.154 140 175.121 140C175.088 140 175.055 140 175.021 140C174.988 140 174.955 140 174.921 140C174.888 140 174.854 140 174.821 140C174.788 140 174.754 140 174.721 140C174.687 140 174.654 140 174.62 140C174.587 140 174.553 140 174.52 140C174.486 140 174.453 140 174.419 140C174.386 140 174.352 140 174.318 140C174.285 140 174.251 140 174.218 140C174.184 140 174.15 140 174.117 140C174.083 140 174.049 140 174.016 140C173.982 140 173.948 140 173.914 140C173.881 140 173.847 140 173.813 140C173.779 140 173.745 140 173.712 140C173.678 140 173.644 140 173.61 140C173.576 140 173.542 140 173.508 140C173.474 140 173.441 140 173.407 140C173.373 140 173.339 140 173.305 140C173.271 140 173.237 140 173.203 140C173.169 140 173.135 140 173.101 140C173.066 140 173.032 140 172.998 140C172.964 140 172.93 140 172.896 140C172.862 140 172.828 140 172.793 140C172.759 140 172.725 140 172.691 140C172.657 140 172.622 140 172.588 140C172.554 140 172.52 140 172.485 140C172.451 140 172.417 140 172.382 140C172.348 140 172.314 140 172.279 140C172.245 140 172.211 140 172.176 140C172.142 140 172.108 140 172.073 140C172.039 140 172.004 140 171.97 140C171.935 140 171.901 140 171.866 140C171.832 140 171.797 140 171.763 140C171.728 140 171.694 140 171.659 140C171.625 140 171.59 140 171.555 140C171.521 140 171.486 140 171.451 140C171.417 140 171.382 140 171.347 140C171.313 140 171.278 140 171.243 140C171.209 140 171.174 140 171.139 140C171.104 140 171.07 140 171.035 140C171 140 170.965 140 170.931 140C170.896 140 170.861 140 170.826 140C170.791 140 170.756 140 170.721 140C170.687 140 170.652 140 170.617 140C170.582 140 170.547 140 170.512 140C170.477 140 170.442 140 170.407 140C170.372 140 170.337 140 170.302 140C170.267 140 170.232 140 170.197 140C170.162 140 170.127 140 170.092 140C170.057 140 170.022 140 169.986 140C169.951 140 169.916 140 169.881 140C169.846 140 169.811 140 169.776 140C169.74 140 169.705 140 169.67 140C169.635 140 169.599 140 169.564 140C169.529 140 169.494 140 169.458 140C169.423 140 169.388 140 169.353 140C169.317 140 169.282 140 169.247 140C169.211 140 169.176 140 169.141 140C169.105 140 169.07 140 169.034 140C168.999 140 168.964 140 168.928 140C168.893 140 168.857 140 168.822 140C168.786 140 168.751 140 168.715 140C168.68 140 168.644 140 168.609 140C168.573 140 168.538 140 168.502 140C168.466 140 168.431 140 168.395 140C168.36 140 168.324 140 168.289 140C168.253 140 168.217 140 168.182 140C168.146 140 168.11 140 168.075 140C168.039 140 168.003 140 167.967 140C167.932 140 167.896 140 167.86 140C167.825 140 167.789 140 167.753 140C167.717 140 167.681 140 167.646 140C167.61 140 167.574 140 167.538 140C167.502 140 167.467 140 167.431 140C167.395 140 167.359 140 167.323 140C167.287 140 167.251 140 167.215 140C167.179 140 167.143 140 167.108 140C167.072 140 167.036 140 167 140C166.964 140 166.928 140 166.892 140C166.856 140 166.82 140 166.784 140C166.748 140 166.712 140 166.675 140C166.639 140 166.603 140 166.567 140C166.531 140 166.495 140 166.459 140C166.423 140 166.387 140 166.351 140C166.314 140 166.278 140 166.242 140C166.206 140 166.17 140 166.134 140C166.097 140 166.061 140 166.025 140C165.989 140 165.952 140 165.916 140C165.88 140 165.844 140 165.807 140C165.771 140 165.735 140 165.698 140C165.662 140 165.626 140 165.59 140C165.553 140 165.517 140 165.48 140C165.444 140 165.408 140 165.371 140C165.335 140 165.299 140 165.262 140C165.226 140 165.189 140 165.153 140C165.116 140 165.08 140 165.044 140C165.007 140 164.971 140 164.934 140C164.898 140 164.861 140 164.825 140C164.788 140 164.752 140 164.715 140C164.678 140 164.642 140 164.605 140C164.569 140 164.532 140 164.496 140C164.459 140 164.422 140 164.386 140C164.349 140 164.313 140 164.276 140C164.239 140 164.203 140 164.166 140C164.129 140 164.093 140 164.056 140C164.019 140 163.983 140 163.946 140C163.909 140 163.872 140 163.836 140C163.799 140 163.762 140 163.725 140C163.689 140 163.652 140 163.615 140C163.578 140 163.541 140 163.505 140C163.468 140 163.431 140 163.394 140C163.357 140 163.321 140 163.284 140C163.247 140 163.21 140 163.173 140C163.136 140 163.099 140 163.062 140C163.026 140 162.989 140 162.952 140C162.915 140 162.878 140 162.841 140C162.804 140 162.767 140 162.73 140C162.693 140 162.656 140 162.619 140C162.582 140 162.545 140 162.508 140C162.471 140 162.434 140 162.397 140C162.36 140 162.323 140 162.286 140C162.249 140 162.212 140 162.175 140C162.138 140 162.1 140 162.063 140C162.026 140 161.989 140 161.952 140C161.915 140 161.878 140 161.841 140C161.803 140 161.766 140 161.729 140C161.692 140 161.655 140 161.618 140C161.58 140 161.543 140 161.506 140C161.469 140 161.432 140 161.394 140C161.357 140 161.32 140 161.283 140C161.245 140 161.208 140 161.171 140C161.134 140 161.096 140 161.059 140C161.022 140 160.984 140 160.947 140C160.91 140 160.872 140 160.835 140C160.798 140 160.76 140 160.723 140C160.686 140 160.648 140 160.611 140C160.574 140 160.536 140 160.499 140C160.462 140 160.424 140 160.387 140C160.349 140 160.312 140 160.274 140C160.237 140 160.2 140 160.162 140C160.125 140 160.087 140 160.05 140C160.012 140 159.975 140 159.937 140C159.9 140 159.862 140 159.825 140C159.787 140 159.75 140 159.712 140C159.675 140 159.637 140 159.6 140C159.562 140 159.525 140 159.487 140C159.45 140 159.412 140 159.374 140C159.337 140 159.299 140 159.262 140C159.224 140 159.186 140 159.149 140C159.111 140 159.074 140 159.036 140C158.998 140 158.961 140 158.923 140C158.885 140 158.848 140 158.81 140C158.772 140 158.735 140 158.697 140C158.659 140 158.622 140 158.584 140C158.546 140 158.509 140 158.471 140C158.433 140 158.396 140 158.358 140C158.32 140 158.282 140 158.245 140C158.207 140 158.169 140 158.131 140C158.094 140 158.056 140 158.018 140C157.98 140 157.942 140 157.905 140C157.867 140 157.829 140 157.791 140C157.753 140 157.716 140 157.678 140C157.64 140 157.602 140 157.564 140C157.526 140 157.489 140 157.451 140C157.413 140 157.375 140 157.337 140C157.299 140 157.261 140 157.224 140C157.186 140 157.148 140 157.11 140C157.072 140 157.034 140 156.996 140C156.958 140 156.92 140 156.882 140C156.844 140 156.807 140 156.769 140C156.731 140 156.693 140 156.655 140C156.617 140 156.579 140 156.541 140C156.503 140 156.465 140 156.427 140C156.389 140 156.351 140 156.313 140C156.275 140 156.237 140 156.199 140C156.161 140 156.123 140 156.085 140C156.047 140 156.009 140 155.971 140C155.933 140 155.895 140 155.857 140C155.819 140 155.781 140 155.742 140C155.704 140 155.666 140 155.628 140C155.59 140 155.552 140 155.514 140C155.476 140 155.438 140 155.4 140C155.362 140 155.323 140 155.285 140C155.247 140 155.209 140 155.171 140C155.133 140 155.095 140 155.057 140C155.018 140 154.98 140 154.942 140C154.904 140 154.866 140 154.828 140C154.79 140 154.751 140 154.713 140C154.675 140 154.637 140 154.599 140C154.56 140 154.522 140 154.484 140C154.446 140 154.408 140 154.369 140C154.331 140 154.293 140 154.255 140C154.217 140 154.178 140 154.14 140C154.102 140 154.064 140 154.025 140C153.987 140 153.949 140 153.911 140C153.872 140 153.834 140 153.796 140C153.758 140 153.719 140 153.681 140C153.643 140 153.605 140 153.566 140C153.528 140 153.49 140 153.451 140C153.413 140 153.375 140 153.337 140C153.298 140 153.26 140 153.222 140C153.183 140 153.145 140 153.107 140C153.068 140 153.03 140 152.992 140C152.953 140 152.915 140 152.877 140C152.838 140 152.8 140 152.762 140C152.723 140 152.685 140 152.647 140C152.608 140 152.57 140 152.532 140C152.493 140 152.455 140 152.416 140C152.378 140 152.34 140 152.301 140C152.263 140 152.225 140 152.186 140C152.148 140 152.109 140 152.071 140C152.033 140 151.994 140 151.956 140C151.917 140 151.879 140 151.841 140C151.802 140 151.764 140 151.725 140C151.687 140 151.648 140 151.61 140C151.572 140 151.533 140 151.495 140C151.456 140 151.418 140 151.379 140C151.341 140 151.303 140 151.264 140C151.226 140 151.187 140 151.149 140C151.11 140 151.072 140 151.033 140C150.995 140 150.956 140 150.918 140C150.88 140 150.841 140 150.803 140C150.764 140 150.726 140 150.687 140C150.649 140 150.61 140 150.572 140C150.533 140 150.495 140 150.456 140C150.418 140 150.379 140 150.341 140C150.302 140 150.264 140 150.225 140C150.187 140 150.148 140 150.11 140C150.071 140 150.033 140 149.994 140C149.956 140 149.917 140 149.879 140C149.84 140 149.802 140 149.763 140C149.725 140 149.686 140 149.647 140C149.609 140 149.57 140 149.532 140C149.493 140 149.455 140 149.416 140C149.378 140 149.339 140 149.301 140C149.262 140 149.224 140 149.185 140C149.146 140 149.108 140 149.069 140C149.031 140 148.992 140 148.954 140C148.915 140 148.877 140 148.838 140C148.8 140 148.761 140 148.722 140C148.684 140 148.645 140 148.607 140C148.568 140 148.53 140 148.491 140C148.452 140 148.414 140 148.375 140C148.337 140 148.298 140 148.26 140C148.221 140 148.182 140 148.144 140C148.105 140 148.067 140 148.028 140C147.99 140 147.951 140 147.912 140C147.874 140 147.835 140 147.797 140C147.758 140 147.719 140 147.681 140C147.642 140 147.604 140 147.565 140C147.527 140 147.488 140 147.449 140C147.411 140 147.372 140 147.334 140C147.295 140 147.256 140 147.218 140C147.179 140 147.141 140 147.102 140C147.063 140 147.025 140 146.986 140C146.948 140 146.909 140 146.871 140C146.832 140 146.793 140 146.755 140C146.716 140 146.678 140 146.639 140C146.6 140 146.562 140 146.523 140C146.485 140 146.446 140 146.407 140C146.369 140 146.33 140 146.292 140C146.253 140 146.214 140 146.176 140C146.137 140 146.099 140 146.06 140C146.021 140 145.983 140 145.944 140C145.906 140 145.867 140 145.828 140C145.79 140 145.751 140 145.713 140C145.674 140 145.635 140 145.597 140C145.558 140 145.52 140 145.481 140C145.442 140 145.404 140 145.365 140C145.327 140 145.288 140 145.249 140C145.211 140 145.172 140 145.134 140C145.095 140 145.057 140 145.018 140C144.979 140 144.941 140 144.902 140C144.864 140 144.825 140 144.786 140C144.748 140 144.709 140 144.671 140C144.632 140 144.593 140 144.555 140C144.516 140 144.478 140 144.439 140C144.401 140 144.362 140 144.323 140C144.285 140 144.246 140 144.208 140C144.169 140 144.131 140 144.092 140C144.053 140 144.015 140 143.976 140C143.938 140 143.899 140 143.861 140C143.822 140 143.783 140 143.745 140C143.706 140 143.668 140 143.629 140C143.591 140 143.552 140 143.513 140C143.475 140 143.436 140 143.398 140C143.359 140 143.321 140 143.282 140C143.244 140 143.205 140 143.167 140C143.128 140 143.089 140 143.051 140C143.012 140 142.974 140 142.935 140C142.897 140 142.858 140 142.82 140C142.781 140 142.743 140 142.704 140C142.666 140 142.627 140 142.589 140C142.55 140 142.511 140 142.473 140C142.434 140 142.396 140 142.357 140C142.319 140 142.28 140 142.242 140C142.203 140 142.165 140 142.126 140C142.088 140 142.049 140 142.011 140C141.972 140 141.934 140 141.895 140C141.857 140 141.818 140 141.78 140C141.741 140 141.703 140 141.665 140C141.626 140 141.588 140 141.549 140C141.511 140 141.472 140 141.434 140C141.395 140 141.357 140 141.318 140C141.28 140 141.241 140 141.203 140C141.164 140 141.126 140 141.088 140C141.049 140 141.011 140 140.972 140C140.934 140 140.895 140 140.857 140C140.818 140 140.78 140 140.742 140C140.703 140 140.665 140 140.626 140C140.588 140 140.55 140 140.511 140C140.473 140 140.434 140 140.396 140C140.358 140 140.319 140 140.281 140C140.242 140 140.204 140 140.166 140C140.127 140 140.089 140 140.05 140C140.012 140 139.974 140 139.935 140C139.897 140 139.859 140 139.82 140C139.782 140 139.743 140 139.705 140C139.667 140 139.628 140 139.59 140C139.552 140 139.513 140 139.475 140C139.437 140 139.398 140 139.36 140C139.322 140 139.283 140 139.245 140C139.207 140 139.168 140 139.13 140C139.092 140 139.054 140 139.015 140C138.977 140 138.939 140 138.9 140C138.862 140 138.824 140 138.786 140C138.747 140 138.709 140 138.671 140C138.632 140 138.594 140 138.556 140C138.518 140 138.479 140 138.441 140C138.403 140 138.365 140 138.326 140C138.288 140 138.25 140 138.212 140C138.173 140 138.135 140 138.097 140C138.059 140 138.021 140 137.982 140C137.944 140 137.906 140 137.868 140C137.83 140 137.791 140 137.753 140C137.715 140 137.677 140 137.639 140C137.601 140 137.562 140 137.524 140C137.486 140 137.448 140 137.41 140C137.372 140 137.333 140 137.295 140C137.257 140 137.219 140 137.181 140C137.143 140 137.105 140 137.067 140C137.028 140 136.99 140 136.952 140V142C136.99 142 137.028 142 137.067 142C137.105 142 137.143 142 137.181 142C137.219 142 137.257 142 137.295 142C137.333 142 137.372 142 137.41 142C137.448 142 137.486 142 137.524 142C137.562 142 137.601 142 137.639 142C137.677 142 137.715 142 137.753 142C137.791 142 137.83 142 137.868 142C137.906 142 137.944 142 137.982 142C138.021 142 138.059 142 138.097 142C138.135 142 138.173 142 138.212 142C138.25 142 138.288 142 138.326 142C138.365 142 138.403 142 138.441 142C138.479 142 138.518 142 138.556 142C138.594 142 138.632 142 138.671 142C138.709 142 138.747 142 138.786 142C138.824 142 138.862 142 138.9 142C138.939 142 138.977 142 139.015 142C139.054 142 139.092 142 139.13 142C139.168 142 139.207 142 139.245 142C139.283 142 139.322 142 139.36 142C139.398 142 139.437 142 139.475 142C139.513 142 139.552 142 139.59 142C139.628 142 139.667 142 139.705 142C139.743 142 139.782 142 139.82 142C139.859 142 139.897 142 139.935 142C139.974 142 140.012 142 140.05 142C140.089 142 140.127 142 140.166 142C140.204 142 140.242 142 140.281 142C140.319 142 140.358 142 140.396 142C140.434 142 140.473 142 140.511 142C140.55 142 140.588 142 140.626 142C140.665 142 140.703 142 140.742 142C140.78 142 140.818 142 140.857 142C140.895 142 140.934 142 140.972 142C141.011 142 141.049 142 141.088 142C141.126 142 141.164 142 141.203 142C141.241 142 141.28 142 141.318 142C141.357 142 141.395 142 141.434 142C141.472 142 141.511 142 141.549 142C141.588 142 141.626 142 141.665 142C141.703 142 141.741 142 141.78 142C141.818 142 141.857 142 141.895 142C141.934 142 141.972 142 142.011 142C142.049 142 142.088 142 142.126 142C142.165 142 142.203 142 142.242 142C142.28 142 142.319 142 142.357 142C142.396 142 142.434 142 142.473 142C142.511 142 142.55 142 142.589 142C142.627 142 142.666 142 142.704 142C142.743 142 142.781 142 142.82 142C142.858 142 142.897 142 142.935 142C142.974 142 143.012 142 143.051 142C143.089 142 143.128 142 143.167 142C143.205 142 143.244 142 143.282 142C143.321 142 143.359 142 143.398 142C143.436 142 143.475 142 143.513 142C143.552 142 143.591 142 143.629 142C143.668 142 143.706 142 143.745 142C143.783 142 143.822 142 143.861 142C143.899 142 143.938 142 143.976 142C144.015 142 144.053 142 144.092 142C144.131 142 144.169 142 144.208 142C144.246 142 144.285 142 144.323 142C144.362 142 144.401 142 144.439 142C144.478 142 144.516 142 144.555 142C144.593 142 144.632 142 144.671 142C144.709 142 144.748 142 144.786 142C144.825 142 144.864 142 144.902 142C144.941 142 144.979 142 145.018 142C145.057 142 145.095 142 145.134 142C145.172 142 145.211 142 145.249 142C145.288 142 145.327 142 145.365 142C145.404 142 145.442 142 145.481 142C145.52 142 145.558 142 145.597 142C145.635 142 145.674 142 145.713 142C145.751 142 145.79 142 145.828 142C145.867 142 145.906 142 145.944 142C145.983 142 146.021 142 146.06 142C146.099 142 146.137 142 146.176 142C146.214 142 146.253 142 146.292 142C146.33 142 146.369 142 146.407 142C146.446 142 146.485 142 146.523 142C146.562 142 146.6 142 146.639 142C146.678 142 146.716 142 146.755 142C146.793 142 146.832 142 146.871 142C146.909 142 146.948 142 146.986 142C147.025 142 147.063 142 147.102 142C147.141 142 147.179 142 147.218 142C147.256 142 147.295 142 147.334 142C147.372 142 147.411 142 147.449 142C147.488 142 147.527 142 147.565 142C147.604 142 147.642 142 147.681 142C147.719 142 147.758 142 147.797 142C147.835 142 147.874 142 147.912 142C147.951 142 147.99 142 148.028 142C148.067 142 148.105 142 148.144 142C148.182 142 148.221 142 148.26 142C148.298 142 148.337 142 148.375 142C148.414 142 148.452 142 148.491 142C148.53 142 148.568 142 148.607 142C148.645 142 148.684 142 148.722 142C148.761 142 148.8 142 148.838 142C148.877 142 148.915 142 148.954 142C148.992 142 149.031 142 149.069 142C149.108 142 149.146 142 149.185 142C149.224 142 149.262 142 149.301 142C149.339 142 149.378 142 149.416 142C149.455 142 149.493 142 149.532 142C149.57 142 149.609 142 149.647 142C149.686 142 149.725 142 149.763 142C149.802 142 149.84 142 149.879 142C149.917 142 149.956 142 149.994 142C150.033 142 150.071 142 150.11 142C150.148 142 150.187 142 150.225 142C150.264 142 150.302 142 150.341 142C150.379 142 150.418 142 150.456 142C150.495 142 150.533 142 150.572 142C150.61 142 150.649 142 150.687 142C150.726 142 150.764 142 150.803 142C150.841 142 150.88 142 150.918 142C150.956 142 150.995 142 151.033 142C151.072 142 151.11 142 151.149 142C151.187 142 151.226 142 151.264 142C151.303 142 151.341 142 151.379 142C151.418 142 151.456 142 151.495 142C151.533 142 151.572 142 151.61 142C151.648 142 151.687 142 151.725 142C151.764 142 151.802 142 151.841 142C151.879 142 151.917 142 151.956 142C151.994 142 152.033 142 152.071 142C152.109 142 152.148 142 152.186 142C152.225 142 152.263 142 152.301 142C152.34 142 152.378 142 152.416 142C152.455 142 152.493 142 152.532 142C152.57 142 152.608 142 152.647 142C152.685 142 152.723 142 152.762 142C152.8 142 152.838 142 152.877 142C152.915 142 152.953 142 152.992 142C153.03 142 153.068 142 153.107 142C153.145 142 153.183 142 153.222 142C153.26 142 153.298 142 153.337 142C153.375 142 153.413 142 153.451 142C153.49 142 153.528 142 153.566 142C153.605 142 153.643 142 153.681 142C153.719 142 153.758 142 153.796 142C153.834 142 153.872 142 153.911 142C153.949 142 153.987 142 154.025 142C154.064 142 154.102 142 154.14 142C154.178 142 154.217 142 154.255 142C154.293 142 154.331 142 154.369 142C154.408 142 154.446 142 154.484 142C154.522 142 154.56 142 154.599 142C154.637 142 154.675 142 154.713 142C154.751 142 154.79 142 154.828 142C154.866 142 154.904 142 154.942 142C154.98 142 155.018 142 155.057 142C155.095 142 155.133 142 155.171 142C155.209 142 155.247 142 155.285 142C155.323 142 155.362 142 155.4 142C155.438 142 155.476 142 155.514 142C155.552 142 155.59 142 155.628 142C155.666 142 155.704 142 155.742 142C155.781 142 155.819 142 155.857 142C155.895 142 155.933 142 155.971 142C156.009 142 156.047 142 156.085 142C156.123 142 156.161 142 156.199 142C156.237 142 156.275 142 156.313 142C156.351 142 156.389 142 156.427 142C156.465 142 156.503 142 156.541 142C156.579 142 156.617 142 156.655 142C156.693 142 156.731 142 156.769 142C156.807 142 156.844 142 156.882 142C156.92 142 156.958 142 156.996 142C157.034 142 157.072 142 157.11 142C157.148 142 157.186 142 157.224 142C157.261 142 157.299 142 157.337 142C157.375 142 157.413 142 157.451 142C157.489 142 157.526 142 157.564 142C157.602 142 157.64 142 157.678 142C157.716 142 157.753 142 157.791 142C157.829 142 157.867 142 157.905 142C157.942 142 157.98 142 158.018 142C158.056 142 158.094 142 158.131 142C158.169 142 158.207 142 158.245 142C158.282 142 158.32 142 158.358 142C158.396 142 158.433 142 158.471 142C158.509 142 158.546 142 158.584 142C158.622 142 158.659 142 158.697 142C158.735 142 158.772 142 158.81 142C158.848 142 158.885 142 158.923 142C158.961 142 158.998 142 159.036 142C159.074 142 159.111 142 159.149 142C159.186 142 159.224 142 159.262 142C159.299 142 159.337 142 159.374 142C159.412 142 159.45 142 159.487 142C159.525 142 159.562 142 159.6 142C159.637 142 159.675 142 159.712 142C159.75 142 159.787 142 159.825 142C159.862 142 159.9 142 159.937 142C159.975 142 160.012 142 160.05 142C160.087 142 160.125 142 160.162 142C160.2 142 160.237 142 160.274 142C160.312 142 160.349 142 160.387 142C160.424 142 160.462 142 160.499 142C160.536 142 160.574 142 160.611 142C160.648 142 160.686 142 160.723 142C160.76 142 160.798 142 160.835 142C160.872 142 160.91 142 160.947 142C160.984 142 161.022 142 161.059 142C161.096 142 161.134 142 161.171 142C161.208 142 161.245 142 161.283 142C161.32 142 161.357 142 161.394 142C161.432 142 161.469 142 161.506 142C161.543 142 161.58 142 161.618 142C161.655 142 161.692 142 161.729 142C161.766 142 161.803 142 161.841 142C161.878 142 161.915 142 161.952 142C161.989 142 162.026 142 162.063 142C162.1 142 162.138 142 162.175 142C162.212 142 162.249 142 162.286 142C162.323 142 162.36 142 162.397 142C162.434 142 162.471 142 162.508 142C162.545 142 162.582 142 162.619 142C162.656 142 162.693 142 162.73 142C162.767 142 162.804 142 162.841 142C162.878 142 162.915 142 162.952 142C162.989 142 163.026 142 163.062 142C163.099 142 163.136 142 163.173 142C163.21 142 163.247 142 163.284 142C163.321 142 163.357 142 163.394 142C163.431 142 163.468 142 163.505 142C163.541 142 163.578 142 163.615 142C163.652 142 163.689 142 163.725 142C163.762 142 163.799 142 163.836 142C163.872 142 163.909 142 163.946 142C163.983 142 164.019 142 164.056 142C164.093 142 164.129 142 164.166 142C164.203 142 164.239 142 164.276 142C164.313 142 164.349 142 164.386 142C164.422 142 164.459 142 164.496 142C164.532 142 164.569 142 164.605 142C164.642 142 164.678 142 164.715 142C164.752 142 164.788 142 164.825 142C164.861 142 164.898 142 164.934 142C164.971 142 165.007 142 165.044 142C165.08 142 165.116 142 165.153 142C165.189 142 165.226 142 165.262 142C165.299 142 165.335 142 165.371 142C165.408 142 165.444 142 165.48 142C165.517 142 165.553 142 165.59 142C165.626 142 165.662 142 165.698 142C165.735 142 165.771 142 165.807 142C165.844 142 165.88 142 165.916 142C165.952 142 165.989 142 166.025 142C166.061 142 166.097 142 166.134 142C166.17 142 166.206 142 166.242 142C166.278 142 166.314 142 166.351 142C166.387 142 166.423 142 166.459 142C166.495 142 166.531 142 166.567 142C166.603 142 166.639 142 166.675 142C166.712 142 166.748 142 166.784 142C166.82 142 166.856 142 166.892 142C166.928 142 166.964 142 167 142C167.036 142 167.072 142 167.108 142C167.143 142 167.179 142 167.215 142C167.251 142 167.287 142 167.323 142C167.359 142 167.395 142 167.431 142C167.467 142 167.502 142 167.538 142C167.574 142 167.61 142 167.646 142C167.681 142 167.717 142 167.753 142C167.789 142 167.825 142 167.86 142C167.896 142 167.932 142 167.967 142C168.003 142 168.039 142 168.075 142C168.11 142 168.146 142 168.182 142C168.217 142 168.253 142 168.289 142C168.324 142 168.36 142 168.395 142C168.431 142 168.466 142 168.502 142C168.538 142 168.573 142 168.609 142C168.644 142 168.68 142 168.715 142C168.751 142 168.786 142 168.822 142C168.857 142 168.893 142 168.928 142C168.964 142 168.999 142 169.034 142C169.07 142 169.105 142 169.141 142C169.176 142 169.211 142 169.247 142C169.282 142 169.317 142 169.353 142C169.388 142 169.423 142 169.458 142C169.494 142 169.529 142 169.564 142C169.599 142 169.635 142 169.67 142C169.705 142 169.74 142 169.776 142C169.811 142 169.846 142 169.881 142C169.916 142 169.951 142 169.986 142C170.022 142 170.057 142 170.092 142C170.127 142 170.162 142 170.197 142C170.232 142 170.267 142 170.302 142C170.337 142 170.372 142 170.407 142C170.442 142 170.477 142 170.512 142C170.547 142 170.582 142 170.617 142C170.652 142 170.687 142 170.721 142C170.756 142 170.791 142 170.826 142C170.861 142 170.896 142 170.931 142C170.965 142 171 142 171.035 142C171.07 142 171.104 142 171.139 142C171.174 142 171.209 142 171.243 142C171.278 142 171.313 142 171.347 142C171.382 142 171.417 142 171.451 142C171.486 142 171.521 142 171.555 142C171.59 142 171.625 142 171.659 142C171.694 142 171.728 142 171.763 142C171.797 142 171.832 142 171.866 142C171.901 142 171.935 142 171.97 142C172.004 142 172.039 142 172.073 142C172.108 142 172.142 142 172.176 142C172.211 142 172.245 142 172.279 142C172.314 142 172.348 142 172.382 142C172.417 142 172.451 142 172.485 142C172.52 142 172.554 142 172.588 142C172.622 142 172.657 142 172.691 142C172.725 142 172.759 142 172.793 142C172.828 142 172.862 142 172.896 142C172.93 142 172.964 142 172.998 142C173.032 142 173.066 142 173.101 142C173.135 142 173.169 142 173.203 142C173.237 142 173.271 142 173.305 142C173.339 142 173.373 142 173.407 142C173.441 142 173.474 142 173.508 142C173.542 142 173.576 142 173.61 142C173.644 142 173.678 142 173.712 142C173.745 142 173.779 142 173.813 142C173.847 142 173.881 142 173.914 142C173.948 142 173.982 142 174.016 142C174.049 142 174.083 142 174.117 142C174.15 142 174.184 142 174.218 142C174.251 142 174.285 142 174.318 142C174.352 142 174.386 142 174.419 142C174.453 142 174.486 142 174.52 142C174.553 142 174.587 142 174.62 142C174.654 142 174.687 142 174.721 142C174.754 142 174.788 142 174.821 142C174.854 142 174.888 142 174.921 142C174.955 142 174.988 142 175.021 142C175.055 142 175.088 142 175.121 142C175.154 142 175.188 142 175.221 142C175.254 142 175.287 142 175.321 142C175.354 142 175.387 142 175.42 142C175.453 142 175.486 142 175.519 142C175.553 142 175.586 142 175.619 142C175.652 142 175.685 142 175.718 142C175.751 142 175.784 142 175.817 142C175.85 142 175.883 142 175.916 142C175.949 142 175.982 142 176.015 142C176.048 142 176.08 142 176.113 142C176.146 142 176.179 142 176.212 142C176.245 142 176.277 142 176.31 142C176.343 142 176.376 142 176.409 142C176.441 142 176.474 142 176.507 142C176.539 142 176.572 142 176.605 142C176.637 142 176.67 142 176.703 142C176.735 142 176.768 142 176.8 142C176.833 142 176.866 142 176.898 142C176.931 142 176.963 142 176.996 142C177.028 142 177.06 142 177.093 142C177.125 142 177.158 142 177.19 142C177.223 142 177.255 142 177.287 142C177.32 142 177.352 142 177.384 142C177.417 142 177.449 142 177.481 142C177.513 142 177.546 142 177.578 142C177.61 142 177.642 142 177.674 142C177.707 142 177.739 142 177.771 142C177.803 142 177.835 142 177.867 142C177.899 142 177.931 142 177.963 142C177.995 142 178.027 142 178.059 142C178.091 142 178.123 142 178.155 142C178.187 142 178.219 142 178.251 142C178.283 142 178.315 142 178.347 142C178.379 142 178.41 142 178.442 142C178.474 142 178.506 142 178.538 142C178.569 142 178.601 142 178.633 142C178.665 142 178.696 142 178.728 142C178.76 142 178.791 142 178.823 142C178.854 142 178.886 142 178.918 142C178.949 142 178.981 142 179.012 142C179.044 142 179.075 142 179.107 142C179.138 142 179.17 142 179.201 142C179.233 142 179.264 142 179.295 142C179.327 142 179.358 142 179.39 142C179.421 142 179.452 142 179.484 142C179.515 142 179.546 142 179.577 142C179.609 142 179.64 142 179.671 142C179.702 142 179.733 142 179.765 142C179.796 142 179.827 142 179.858 142C179.889 142 179.92 142 179.951 142C179.982 142 180.013 142 180.044 142C180.075 142 180.106 142 180.137 142C180.168 142 180.199 142 180.23 142C180.261 142 180.292 142 180.323 142C180.354 142 180.384 142 180.415 142C180.446 142 180.477 142 180.508 142C180.538 142 180.569 142 180.6 142C180.63 142 180.661 142 180.692 142C180.722 142 180.753 142 180.784 142C180.814 142 180.845 142 180.876 142C180.906 142 180.937 142 180.967 142C180.998 142 181.028 142 181.059 142C181.089 142 181.12 142 181.15 142C181.18 142 181.211 142 181.241 142C181.271 142 181.302 142 181.332 142C181.362 142 181.393 142 181.423 142C181.453 142 181.483 142 181.514 142C181.544 142 181.574 142 181.604 142C181.634 142 181.665 142 181.695 142C181.725 142 181.755 142 181.785 142C181.815 142 181.845 142 181.875 142C181.905 142 181.935 142 181.965 142C181.995 142 182.025 142 182.055 142C182.085 142 182.114 142 182.144 142C182.174 142 182.204 142 182.234 142C182.264 142 182.293 142 182.323 142C182.353 142 182.383 142 182.412 142C182.442 142 182.472 142 182.501 142C182.531 142 182.561 142 182.59 142C182.62 142 182.649 142 182.679 142C182.708 142 182.738 142 182.767 142C182.797 142 182.826 142 182.856 142C182.885 142 182.915 142 182.944 142C182.973 142 183.003 142 183.032 142C183.061 142 183.091 142 183.12 142C183.149 142 183.178 142 183.208 142C183.237 142 183.266 142 183.295 142C183.324 142 183.353 142 183.383 142C183.412 142 183.441 142 183.47 142C183.499 142 183.528 142 183.557 142C183.586 142 183.615 142 183.644 142C183.673 142 183.702 142 183.731 142C183.759 142 183.788 142 183.817 142C183.846 142 183.875 142 183.904 142C183.932 142 183.961 142 183.99 142C184.018 142 184.047 142 184.076 142C184.105 142 184.133 142 184.162 142C184.19 142 184.219 142 184.248 142C184.276 142 184.305 142 184.333 142C184.362 142 184.39 142 184.419 142C184.447 142 184.475 142 184.504 142C184.532 142 184.56 142 184.589 142C184.617 142 184.645 142 184.674 142C184.702 142 184.73 142 184.758 142C184.787 142 184.815 142 184.843 142C184.871 142 184.899 142 184.927 142C184.956 142 184.984 142 185.012 142C185.04 142 185.068 142 185.096 142C185.124 142 185.152 142 185.18 142C185.208 142 185.235 142 185.263 142C185.291 142 185.319 142 185.347 142C185.375 142 185.402 142 185.43 142C185.458 142 185.486 142 185.513 142C185.541 142 185.569 142 185.596 142C185.624 142 185.652 142 185.679 142C185.707 142 185.734 142 185.762 142C185.789 142 185.817 142 185.844 142C185.872 142 185.899 142 185.927 142C185.954 142 185.982 142 186.009 142C186.036 142 186.064 142 186.091 142C186.118 142 186.145 142 186.173 142C186.2 142 186.227 142 186.254 142C186.281 142 186.309 142 186.336 142C186.363 142 186.39 142 186.417 142C186.444 142 186.471 142 186.498 142C186.525 142 186.552 142 186.579 142C186.606 142 186.633 142 186.66 142C186.686 142 186.713 142 186.74 142C186.767 142 186.794 142 186.82 142C186.847 142 186.874 142 186.901 142C186.927 142 186.954 142 186.981 142C187.007 142 187.034 142 187.06 142C187.087 142 187.113 142 187.14 142C187.167 142 187.193 142 187.219 142C187.246 142 187.272 142 187.299 142C187.325 142 187.351 142 187.378 142C187.404 142 187.43 142 187.457 142C187.483 142 187.509 142 187.535 142C187.562 142 187.588 142 187.614 142C187.64 142 187.666 142 187.692 142C187.718 142 187.744 142 187.77 142C187.796 142 187.822 142 187.848 142C187.874 142 187.9 142 187.926 142C187.952 142 187.978 142 188.004 142C188.029 142 188.055 142 188.081 142C188.107 142 188.132 142 188.158 142C188.184 142 188.209 142 188.235 142C188.261 142 188.286 142 188.312 142C188.337 142 188.363 142 188.389 142C188.414 142 188.44 142 188.465 142C188.49 142 188.516 142 188.541 142C188.567 142 188.592 142 188.617 142C188.643 142 188.668 142 188.693 142C188.718 142 188.744 142 188.769 142C188.794 142 188.819 142 188.844 142C188.869 142 188.894 142 188.919 142C188.945 142 188.97 142 188.995 142C189.02 142 189.045 142 189.069 142C189.094 142 189.119 142 189.144 142C189.169 142 189.194 142 189.219 142C189.243 142 189.268 142 189.293 142C189.318 142 189.342 142 189.367 142C189.392 142 189.416 142 189.441 142C189.466 142 189.49 142 189.515 142C189.539 142 189.564 142 189.588 142C189.613 142 189.637 142 189.661 142C189.686 142 189.71 142 189.735 142C189.759 142 189.783 142 189.807 142C189.832 142 189.856 142 189.88 142C189.904 142 189.929 142 189.953 142V140Z" fill="#5EBFF7"/>
</svg>
