<svg width="1150" height="339" viewBox="0 0 1150 339" fill="none" xmlns="http://www.w3.org/2000/svg">
<rect width="1150" height="338.125" rx="16" fill="#1A1A1A"/>
<path d="M205.117 81.2497L216.035 70.3318C216.125 70.2421 216.197 70.1355 216.245 70.0181C216.294 69.9008 216.319 69.7749 216.32 69.6478C216.32 69.5207 216.295 69.3948 216.246 69.2774C216.198 69.1599 216.126 69.0532 216.036 68.9633C215.946 68.8734 215.84 68.8022 215.722 68.7536C215.605 68.705 215.479 68.6801 215.352 68.6802C215.225 68.6803 215.099 68.7055 214.982 68.7543C214.864 68.8031 214.758 68.8746 214.668 68.9647L203.75 79.8827L192.832 68.9646C192.651 68.7833 192.405 68.6815 192.148 68.6815C191.892 68.6815 191.646 68.7833 191.465 68.9646C191.283 69.1459 191.182 69.3918 191.182 69.6482C191.182 69.9046 191.283 70.1505 191.465 70.3318L202.383 81.2498L191.465 92.1677C191.375 92.2575 191.304 92.3641 191.255 92.4814C191.207 92.5986 191.182 92.7243 191.182 92.8513C191.182 92.9782 191.207 93.104 191.255 93.2212C191.304 93.3385 191.375 93.4451 191.465 93.5349C191.555 93.6246 191.661 93.6958 191.778 93.7444C191.896 93.793 192.021 93.818 192.148 93.818C192.275 93.818 192.401 93.793 192.518 93.7444C192.636 93.6959 192.742 93.6247 192.832 93.5349L203.75 82.6169L214.668 93.5349C214.758 93.6249 214.864 93.6964 214.982 93.7452C215.099 93.7941 215.225 93.8192 215.352 93.8194C215.479 93.8195 215.605 93.7945 215.722 93.746C215.84 93.6974 215.946 93.6261 216.036 93.5362C216.126 93.4463 216.198 93.3396 216.246 93.2222C216.295 93.1047 216.32 92.9788 216.32 92.8517C216.319 92.7246 216.294 92.5988 216.245 92.4814C216.197 92.3641 216.125 92.2575 216.035 92.1678L205.117 81.2497Z" fill="white" fill-opacity="0.95"/>
<rect x="533.75" y="127.812" width="82.5" height="82.5" rx="41.25" fill="white" fill-opacity="0.07"/>
<path d="M576.367 169.062L587.285 158.144C587.375 158.055 587.447 157.948 587.495 157.831C587.544 157.713 587.569 157.587 587.57 157.46C587.57 157.333 587.545 157.207 587.496 157.09C587.448 156.972 587.376 156.866 587.286 156.776C587.196 156.686 587.09 156.615 586.972 156.566C586.855 156.517 586.729 156.493 586.602 156.493C586.475 156.493 586.349 156.518 586.232 156.567C586.114 156.616 586.008 156.687 585.918 156.777L575 167.695L564.082 156.777C563.901 156.596 563.655 156.494 563.398 156.494C563.142 156.494 562.896 156.596 562.715 156.777C562.533 156.958 562.432 157.204 562.432 157.461C562.432 157.717 562.533 157.963 562.715 158.144L573.633 169.062L562.715 179.98C562.625 180.07 562.554 180.177 562.505 180.294C562.457 180.411 562.432 180.537 562.432 180.664C562.432 180.791 562.457 180.916 562.505 181.034C562.554 181.151 562.625 181.258 562.715 181.347C562.805 181.437 562.911 181.508 563.028 181.557C563.146 181.606 563.271 181.631 563.398 181.631C563.525 181.631 563.651 181.606 563.768 181.557C563.886 181.508 563.992 181.437 564.082 181.347L575 170.429L585.918 181.347C586.008 181.437 586.114 181.509 586.232 181.558C586.349 181.607 586.475 181.632 586.602 181.632C586.729 181.632 586.855 181.607 586.972 181.558C587.09 181.51 587.196 181.439 587.286 181.349C587.376 181.259 587.448 181.152 587.496 181.035C587.545 180.917 587.57 180.791 587.57 180.664C587.569 180.537 587.544 180.411 587.495 180.294C587.447 180.177 587.375 180.07 587.285 179.98L576.367 169.062Z" fill="white" fill-opacity="0.95"/>
<rect x="905" y="215.625" width="82.5" height="82.5" rx="41.25" fill="white" fill-opacity="0.2"/>
<path d="M947.617 256.875L958.535 245.957C958.625 245.867 958.697 245.76 958.745 245.643C958.794 245.526 958.819 245.4 958.82 245.273C958.82 245.146 958.795 245.02 958.746 244.902C958.698 244.785 958.626 244.678 958.536 244.588C958.446 244.498 958.34 244.427 958.222 244.379C958.105 244.33 957.979 244.305 957.852 244.305C957.725 244.305 957.599 244.33 957.482 244.379C957.364 244.428 957.258 244.5 957.168 244.59L946.25 255.508L935.332 244.59C935.151 244.408 934.905 244.306 934.648 244.306C934.392 244.306 934.146 244.408 933.965 244.59C933.783 244.771 933.682 245.017 933.682 245.273C933.682 245.53 933.783 245.775 933.965 245.957L944.883 256.875L933.965 267.793C933.875 267.883 933.804 267.989 933.755 268.106C933.707 268.224 933.682 268.349 933.682 268.476C933.682 268.603 933.707 268.729 933.755 268.846C933.804 268.964 933.875 269.07 933.965 269.16C934.055 269.25 934.161 269.321 934.278 269.369C934.396 269.418 934.521 269.443 934.648 269.443C934.775 269.443 934.901 269.418 935.018 269.369C935.136 269.321 935.242 269.25 935.332 269.16L946.25 258.242L957.168 269.16C957.258 269.25 957.364 269.321 957.482 269.37C957.599 269.419 957.725 269.444 957.852 269.444C957.979 269.444 958.105 269.42 958.222 269.371C958.34 269.322 958.446 269.251 958.536 269.161C958.626 269.071 958.698 268.965 958.746 268.847C958.795 268.73 958.82 268.604 958.82 268.477C958.819 268.35 958.794 268.224 958.745 268.106C958.697 267.989 958.625 267.882 958.535 267.793L947.617 256.875Z" fill="white" fill-opacity="0.95"/>
<path d="M544.062 169.062L531.086 176.354L531.26 161.47L544.062 169.062ZM237.558 81.3896L245 73.9472L252.442 81.3896L245 88.8321L237.558 81.3896ZM532.418 170.215C492.36 169.254 466.41 163.285 446.981 154.813C427.566 146.348 414.731 135.406 400.993 124.739C387.258 114.073 372.521 103.591 349.133 95.7504C325.719 87.9019 293.564 82.6787 245 82.6787V80.1006C293.736 80.1006 326.189 85.3403 349.952 93.306C373.74 101.28 388.744 111.963 402.575 122.702C416.402 133.44 428.957 144.142 448.011 152.45C467.051 160.751 492.651 166.682 532.48 167.638L532.418 170.215Z" fill="#5EBFF7"/>
<path d="M915.312 257.839L902.335 265.128L902.511 250.245L915.312 257.839ZM608.808 169.062L616.25 161.62L623.692 169.062L616.25 176.505L608.808 169.062ZM903.667 258.99C863.608 258.017 837.656 251.972 818.225 243.393C798.809 234.821 785.975 223.741 772.237 212.94C758.502 202.14 743.765 191.525 720.378 183.587C696.967 175.64 664.813 170.352 616.25 170.352V167.773C664.987 167.773 697.442 173.079 721.207 181.146C744.996 189.221 760.001 200.039 773.831 210.913C787.659 221.786 800.213 232.623 819.267 241.035C838.305 249.44 863.903 255.445 903.73 256.413L903.667 258.99Z" fill="#5EBFF7"/>
<rect x="338.055" y="109.242" width="136.641" height="30.9375" rx="6.44531" fill="#303030"/>
<path d="M363.439 118.683L361.366 127.531L359.108 118.683H356.772L354.483 127.531L352.395 118.683H350.353L353.183 129.82H355.519L357.87 120.725L360.206 129.82H362.527L365.295 118.683H363.439ZM368.183 129.82V124.948C368.183 123.71 369.003 122.983 370.024 122.983C370.998 122.983 371.555 123.494 371.555 124.638V129.82H373.412V124.592C373.412 122.627 372.313 121.545 370.519 121.545C369.544 121.545 368.74 121.931 368.183 122.612V118.683H366.327V129.82H368.183ZM377.264 120.555V118.683H375.222V120.555H377.264ZM377.171 129.82V121.777H375.315V129.82H377.171ZM381.008 118.683H379.152V129.82H381.008V118.683ZM388.45 127.5C388.264 128.15 387.614 128.629 386.732 128.629C385.51 128.629 384.613 127.902 384.474 126.232H390.491C390.491 122.968 388.929 121.545 386.578 121.545C384.227 121.545 382.587 123.03 382.587 125.798C382.587 128.567 384.273 130.052 386.655 130.052C388.774 130.052 390.012 128.97 390.399 127.5H388.45ZM384.505 124.963C384.706 123.509 385.495 122.859 386.578 122.859C387.722 122.859 388.511 123.525 388.589 124.963H384.505ZM398.335 129.82V124.948C398.335 123.71 399.155 122.983 400.176 122.983C401.15 122.983 401.707 123.494 401.707 124.638V129.82H403.564V124.592C403.564 122.627 402.465 121.545 400.671 121.545C399.696 121.545 398.892 121.931 398.335 122.612V118.683H396.479V129.82H398.335ZM405.065 125.783C405.065 128.583 406.751 130.052 409.149 130.052C411.593 130.052 413.232 128.583 413.232 125.783C413.232 122.937 411.546 121.545 409.149 121.545C406.766 121.545 405.065 122.937 405.065 125.783ZM409.164 128.676C407.88 128.676 406.983 127.747 406.983 125.783C406.983 123.803 407.849 122.921 409.149 122.921C410.448 122.921 411.314 123.772 411.314 125.783C411.314 127.763 410.494 128.676 409.164 128.676ZM419.729 121.777L417.703 128.382L415.661 121.777H413.634L416.419 129.82H418.847L421.663 121.777H419.729ZM427.937 127.5C427.752 128.15 427.102 128.629 426.22 128.629C424.998 128.629 424.101 127.902 423.962 126.232H429.979C429.979 122.968 428.417 121.545 426.065 121.545C423.714 121.545 422.074 123.03 422.074 125.798C422.074 128.567 423.761 130.052 426.143 130.052C428.262 130.052 429.499 128.97 429.886 127.5H427.937ZM423.993 124.963C424.194 123.509 424.983 122.859 426.065 122.859C427.21 122.859 427.999 123.525 428.076 124.963H423.993ZM436.289 121.653C436.087 121.606 435.763 121.545 435.391 121.545C434.479 121.545 433.783 122.04 433.334 122.983L433.102 121.777H431.571V129.82H433.427V126.061C433.427 124.128 434.309 123.292 435.314 123.292C435.685 123.292 435.995 123.354 436.289 123.447V121.653ZM439.275 120.555V118.683H437.233V120.555H439.275ZM439.182 129.82V121.777H437.326V129.82H439.182ZM443.019 129.82V124.932C443.019 123.726 443.855 122.983 444.86 122.983C445.835 122.983 446.391 123.494 446.391 124.638V129.82H448.248V124.592C448.248 122.643 447.149 121.545 445.34 121.545C444.303 121.545 443.452 121.993 442.896 122.736L442.694 121.777H441.163V129.82H443.019ZM450.043 130.346C450.306 131.862 451.543 132.837 453.848 132.837C456.292 132.837 457.685 131.491 457.685 129.542V121.777H456.215L455.921 122.72C455.38 122.009 454.529 121.545 453.415 121.545C451.25 121.545 449.749 123.06 449.749 125.628C449.749 128.181 451.404 129.588 453.353 129.588C454.436 129.588 455.271 129.217 455.828 128.66V129.557C455.828 130.81 455.148 131.46 453.833 131.46C452.75 131.46 452.193 131.089 451.992 130.346H450.043ZM451.652 125.644C451.652 123.865 452.549 123.014 453.786 123.014C455.101 123.014 455.967 123.896 455.967 125.659C455.967 127.222 455.163 128.119 453.786 128.119C452.595 128.119 451.652 127.268 451.652 125.644Z" fill="white" fill-opacity="0.95"/>
<rect x="708.57" y="202.5" width="136.641" height="30.9375" rx="6.44531" fill="#303030"/>
<path d="M734.121 211.941L732.048 220.789L729.79 211.941H727.454L725.165 220.789L723.076 211.941H721.034L723.865 223.078H726.201L728.552 213.983L730.888 223.078H733.208L735.977 211.941H734.121ZM738.865 223.078V218.205C738.865 216.968 739.685 216.241 740.706 216.241C741.68 216.241 742.237 216.751 742.237 217.896V223.078H744.093V217.85C744.093 215.885 742.995 214.802 741.201 214.802C740.226 214.802 739.422 215.189 738.865 215.87V211.941H737.009V223.078H738.865ZM747.946 213.812V211.941H745.904V213.812H747.946ZM747.853 223.078V215.034H745.997V223.078H747.853ZM751.69 211.941H749.834V223.078H751.69V211.941ZM759.131 220.758C758.946 221.407 758.296 221.887 757.414 221.887C756.192 221.887 755.295 221.16 755.156 219.489H761.173C761.173 216.225 759.611 214.802 757.26 214.802C754.908 214.802 753.269 216.287 753.269 219.056C753.269 221.825 754.955 223.31 757.337 223.31C759.456 223.31 760.694 222.227 761.08 220.758H759.131ZM755.187 218.221C755.388 216.767 756.177 216.117 757.26 216.117C758.404 216.117 759.193 216.782 759.271 218.221H755.187ZM767.161 215.034V225.863H769.017V222.181C769.543 222.846 770.363 223.31 771.446 223.31C773.58 223.31 775.158 221.748 775.158 218.963C775.158 216.303 773.735 214.802 771.6 214.802C770.425 214.802 769.527 215.313 768.955 216.024L768.63 215.034H767.161ZM773.255 218.979C773.255 220.943 772.374 221.841 771.105 221.841C769.837 221.841 768.94 220.912 768.94 218.963C768.94 217.169 769.914 216.272 771.136 216.272C772.374 216.272 773.255 217.107 773.255 218.979ZM781.456 214.911C781.255 214.864 780.93 214.802 780.559 214.802C779.646 214.802 778.95 215.297 778.501 216.241L778.269 215.034H776.738V223.078H778.594V219.319C778.594 217.386 779.476 216.55 780.481 216.55C780.853 216.55 781.162 216.612 781.456 216.705V214.911ZM787.803 220.758C787.617 221.407 786.968 221.887 786.086 221.887C784.864 221.887 783.967 221.16 783.827 219.489H789.845C789.845 216.225 788.282 214.802 785.931 214.802C783.58 214.802 781.94 216.287 781.94 219.056C781.94 221.825 783.626 223.31 786.009 223.31C788.128 223.31 789.365 222.227 789.752 220.758H787.803ZM783.858 218.221C784.059 216.767 784.848 216.117 785.931 216.117C787.076 216.117 787.865 216.782 787.942 218.221H783.858ZM790.879 220.789C791.065 222.305 792.411 223.31 794.499 223.31C796.804 223.31 798.026 222.227 798.026 220.711C798.026 219.01 796.587 218.53 794.886 218.144C793.416 217.788 793.092 217.571 793.092 217.014C793.092 216.519 793.509 216.164 794.484 216.164C795.412 216.164 795.953 216.55 796.092 217.2H797.98C797.701 215.7 796.417 214.802 794.515 214.802C792.349 214.802 791.22 215.746 791.22 217.185C791.22 218.577 792.225 219.211 793.973 219.613C795.443 219.953 796.154 220.108 796.154 220.897C796.154 221.516 795.613 221.949 794.515 221.949C793.525 221.949 792.906 221.562 792.767 220.789H790.879ZM798.946 220.789C799.132 222.305 800.478 223.31 802.566 223.31C804.871 223.31 806.093 222.227 806.093 220.711C806.093 219.01 804.654 218.53 802.953 218.144C801.483 217.788 801.158 217.571 801.158 217.014C801.158 216.519 801.576 216.164 802.55 216.164C803.479 216.164 804.02 216.55 804.159 217.2H806.046C805.768 215.7 804.484 214.802 802.581 214.802C800.416 214.802 799.286 215.746 799.286 217.185C799.286 218.577 800.292 219.211 802.04 219.613C803.509 219.953 804.221 220.108 804.221 220.897C804.221 221.516 803.68 221.949 802.581 221.949C801.591 221.949 800.973 221.562 800.833 220.789H798.946ZM809.625 213.812V211.941H807.583V213.812H809.625ZM809.532 223.078V215.034H807.676V223.078H809.532ZM813.369 223.078V218.19C813.369 216.983 814.204 216.241 815.21 216.241C816.184 216.241 816.741 216.751 816.741 217.896V223.078H818.597V217.85C818.597 215.901 817.499 214.802 815.689 214.802C814.653 214.802 813.802 215.251 813.245 215.993L813.044 215.034H811.512V223.078H813.369ZM820.392 223.604C820.655 225.12 821.893 226.095 824.198 226.095C826.642 226.095 828.034 224.749 828.034 222.8V215.034H826.564L826.271 215.978C825.729 215.266 824.878 214.802 823.765 214.802C821.599 214.802 820.098 216.318 820.098 218.886C820.098 221.438 821.754 222.846 823.703 222.846C824.786 222.846 825.621 222.475 826.178 221.918V222.815C826.178 224.068 825.497 224.718 824.182 224.718C823.099 224.718 822.543 224.347 822.341 223.604H820.392ZM822.001 218.902C822.001 217.123 822.898 216.272 824.136 216.272C825.451 216.272 826.317 217.154 826.317 218.917C826.317 220.479 825.513 221.377 824.136 221.377C822.945 221.377 822.001 220.526 822.001 218.902Z" fill="white" fill-opacity="0.95"/>
</svg>
