<svg width="362" height="250" viewBox="0 0 362 250" fill="none" xmlns="http://www.w3.org/2000/svg">
<rect width="362" height="250" fill="#1A1A1A"/>
<rect x="25" y="32.9521" width="88" height="30" rx="11" fill="#EBD460"/>
<rect x="25" y="32.9521" width="88" height="30" rx="11" stroke="#D6B220" stroke-width="2"/>
<path d="M53.7 41.4321H57.444C60.34 41.4321 61.956 42.7441 61.956 45.1761C61.956 47.5121 60.404 48.8401 57.38 48.8401H55.332V52.9521H53.7V41.4321ZM57.476 42.7601H55.332V47.5121H57.412C59.444 47.5121 60.26 46.6801 60.26 45.1761C60.26 43.6561 59.284 42.7601 57.476 42.7601ZM64.8695 46.9521H63.2375C63.3975 45.4161 64.7255 44.3921 66.8055 44.3921C68.9815 44.3921 70.1975 45.5601 70.1975 47.2721V52.9521H68.9335L68.7415 51.8161C68.1975 52.5841 67.3015 53.1921 65.9575 53.1921C64.1335 53.1921 63.0775 52.1681 63.0775 50.8081C63.0775 49.2881 63.9895 48.4241 66.2295 48.0401L68.6615 47.6241V47.2081C68.6615 46.1841 67.9735 45.6081 66.7415 45.6081C65.5575 45.6081 64.9815 46.1201 64.8695 46.9521ZM68.6615 48.8241L66.5975 49.1921C65.1095 49.4481 64.7095 49.9121 64.7095 50.6481C64.7095 51.4481 65.2855 51.8961 66.3255 51.8961C67.4935 51.8961 68.6615 51.0321 68.6615 49.8961V48.8241ZM76.0664 51.7201V53.0321C75.6504 53.1441 75.3144 53.1921 74.9304 53.1921C73.4584 53.1921 72.7064 52.2641 72.7064 50.8881V45.9441H71.4744V44.6321H72.7064L72.8024 42.6321H74.2424V44.6321H76.0344V45.9441H74.2424V50.9201C74.2424 51.5441 74.5464 51.8481 75.1224 51.8481C75.3944 51.8481 75.6024 51.8321 76.0664 51.7201ZM79.0466 52.9521H77.5106V41.4321H79.0466V45.5761C79.6546 44.7921 80.5346 44.3921 81.4786 44.3921C83.2866 44.3921 84.4226 45.4961 84.4226 47.5281V52.9521H82.8866V47.5441C82.8866 46.2961 82.2466 45.7041 81.1106 45.7041C79.9746 45.7041 79.0466 46.5041 79.0466 47.8801V52.9521Z" fill="#35355E"/>
<path d="M157 218.047C157 153.547 119.5 103.047 24 103.047" stroke="#EBD460" stroke-width="5"/>
<path d="M338 218.047C260.321 218.047 293.571 103.047 205 103.047" stroke="#EBD460" stroke-width="5"/>
<path d="M275 155.047L265 149.274V160.821L275 155.047ZM137.227 155.047L143 160.821L148.774 155.047L143 149.274L137.227 155.047ZM265.998 154.047C265.952 154.047 265.906 154.047 265.86 154.047C265.815 154.047 265.768 154.047 265.722 154.047C265.676 154.047 265.63 154.047 265.584 154.047C265.537 154.047 265.491 154.047 265.444 154.047C265.398 154.047 265.351 154.047 265.304 154.047C265.257 154.047 265.21 154.047 265.163 154.047C265.116 154.047 265.069 154.047 265.022 154.047C264.975 154.047 264.927 154.047 264.88 154.047C264.833 154.047 264.785 154.047 264.737 154.047C264.69 154.047 264.642 154.047 264.594 154.047C264.546 154.047 264.498 154.047 264.45 154.047C264.402 154.047 264.354 154.047 264.306 154.047C264.257 154.047 264.209 154.047 264.16 154.047C264.112 154.047 264.063 154.047 264.014 154.047C263.966 154.047 263.917 154.047 263.868 154.047C263.819 154.047 263.77 154.047 263.721 154.047C263.672 154.047 263.622 154.047 263.573 154.047C263.524 154.047 263.474 154.047 263.425 154.047C263.375 154.047 263.325 154.047 263.276 154.047C263.226 154.047 263.176 154.047 263.126 154.047C263.076 154.047 263.026 154.047 262.976 154.047C262.926 154.047 262.875 154.047 262.825 154.047C262.774 154.047 262.724 154.047 262.673 154.047C262.623 154.047 262.572 154.047 262.521 154.047C262.47 154.047 262.419 154.047 262.368 154.047C262.317 154.047 262.266 154.047 262.215 154.047C262.164 154.047 262.112 154.047 262.061 154.047C262.01 154.047 261.958 154.047 261.906 154.047C261.855 154.047 261.803 154.047 261.751 154.047C261.699 154.047 261.647 154.047 261.595 154.047C261.543 154.047 261.491 154.047 261.439 154.047C261.387 154.047 261.334 154.047 261.282 154.047C261.229 154.047 261.177 154.047 261.124 154.047C261.072 154.047 261.019 154.047 260.966 154.047C260.913 154.047 260.86 154.047 260.807 154.047C260.754 154.047 260.701 154.047 260.648 154.047C260.594 154.047 260.541 154.047 260.487 154.047C260.434 154.047 260.38 154.047 260.327 154.047C260.273 154.047 260.219 154.047 260.165 154.047C260.112 154.047 260.058 154.047 260.004 154.047C259.95 154.047 259.895 154.047 259.841 154.047C259.787 154.047 259.732 154.047 259.678 154.047C259.624 154.047 259.569 154.047 259.514 154.047C259.46 154.047 259.405 154.047 259.35 154.047C259.295 154.047 259.24 154.047 259.185 154.047C259.13 154.047 259.075 154.047 259.02 154.047C258.965 154.047 258.909 154.047 258.854 154.047C258.798 154.047 258.743 154.047 258.687 154.047C258.631 154.047 258.576 154.047 258.52 154.047C258.464 154.047 258.408 154.047 258.352 154.047C258.296 154.047 258.24 154.047 258.184 154.047C258.128 154.047 258.071 154.047 258.015 154.047C257.958 154.047 257.902 154.047 257.845 154.047C257.789 154.047 257.732 154.047 257.675 154.047C257.618 154.047 257.561 154.047 257.504 154.047C257.447 154.047 257.39 154.047 257.333 154.047C257.276 154.047 257.219 154.047 257.161 154.047C257.104 154.047 257.047 154.047 256.989 154.047C256.931 154.047 256.874 154.047 256.816 154.047C256.758 154.047 256.7 154.047 256.642 154.047C256.585 154.047 256.526 154.047 256.468 154.047C256.41 154.047 256.352 154.047 256.294 154.047C256.235 154.047 256.177 154.047 256.118 154.047C256.06 154.047 256.001 154.047 255.943 154.047C255.884 154.047 255.825 154.047 255.766 154.047C255.707 154.047 255.648 154.047 255.589 154.047C255.53 154.047 255.471 154.047 255.412 154.047C255.353 154.047 255.293 154.047 255.234 154.047C255.174 154.047 255.115 154.047 255.055 154.047C254.996 154.047 254.936 154.047 254.876 154.047C254.816 154.047 254.756 154.047 254.696 154.047C254.636 154.047 254.576 154.047 254.516 154.047C254.456 154.047 254.396 154.047 254.335 154.047C254.275 154.047 254.215 154.047 254.154 154.047C254.093 154.047 254.033 154.047 253.972 154.047C253.911 154.047 253.851 154.047 253.79 154.047C253.729 154.047 253.668 154.047 253.607 154.047C253.546 154.047 253.484 154.047 253.423 154.047C253.362 154.047 253.301 154.047 253.239 154.047C253.178 154.047 253.116 154.047 253.055 154.047C252.993 154.047 252.931 154.047 252.869 154.047C252.808 154.047 252.746 154.047 252.684 154.047C252.622 154.047 252.56 154.047 252.498 154.047C252.435 154.047 252.373 154.047 252.311 154.047C252.248 154.047 252.186 154.047 252.123 154.047C252.061 154.047 251.998 154.047 251.936 154.047C251.873 154.047 251.81 154.047 251.747 154.047C251.685 154.047 251.622 154.047 251.559 154.047C251.495 154.047 251.432 154.047 251.369 154.047C251.306 154.047 251.243 154.047 251.179 154.047C251.116 154.047 251.052 154.047 250.989 154.047C250.925 154.047 250.862 154.047 250.798 154.047C250.734 154.047 250.67 154.047 250.606 154.047C250.542 154.047 250.478 154.047 250.414 154.047C250.35 154.047 250.286 154.047 250.222 154.047C250.158 154.047 250.093 154.047 250.029 154.047C249.964 154.047 249.9 154.047 249.835 154.047C249.771 154.047 249.706 154.047 249.641 154.047C249.577 154.047 249.512 154.047 249.447 154.047C249.382 154.047 249.317 154.047 249.252 154.047C249.187 154.047 249.121 154.047 249.056 154.047C248.991 154.047 248.925 154.047 248.86 154.047C248.795 154.047 248.729 154.047 248.663 154.047C248.598 154.047 248.532 154.047 248.466 154.047C248.401 154.047 248.335 154.047 248.269 154.047C248.203 154.047 248.137 154.047 248.071 154.047C248.005 154.047 247.938 154.047 247.872 154.047C247.806 154.047 247.739 154.047 247.673 154.047C247.607 154.047 247.54 154.047 247.473 154.047C247.407 154.047 247.34 154.047 247.273 154.047C247.207 154.047 247.14 154.047 247.073 154.047C247.006 154.047 246.939 154.047 246.872 154.047C246.805 154.047 246.737 154.047 246.67 154.047C246.603 154.047 246.536 154.047 246.468 154.047C246.401 154.047 246.333 154.047 246.266 154.047C246.198 154.047 246.13 154.047 246.063 154.047C245.995 154.047 245.927 154.047 245.859 154.047C245.791 154.047 245.723 154.047 245.655 154.047C245.587 154.047 245.519 154.047 245.451 154.047C245.382 154.047 245.314 154.047 245.246 154.047C245.177 154.047 245.109 154.047 245.04 154.047C244.972 154.047 244.903 154.047 244.834 154.047C244.766 154.047 244.697 154.047 244.628 154.047C244.559 154.047 244.49 154.047 244.421 154.047C244.352 154.047 244.283 154.047 244.214 154.047C244.145 154.047 244.076 154.047 244.006 154.047C243.937 154.047 243.867 154.047 243.798 154.047C243.728 154.047 243.659 154.047 243.589 154.047C243.52 154.047 243.45 154.047 243.38 154.047C243.31 154.047 243.24 154.047 243.17 154.047C243.1 154.047 243.03 154.047 242.96 154.047C242.89 154.047 242.82 154.047 242.75 154.047C242.679 154.047 242.609 154.047 242.539 154.047C242.468 154.047 242.398 154.047 242.327 154.047C242.257 154.047 242.186 154.047 242.115 154.047C242.045 154.047 241.974 154.047 241.903 154.047C241.832 154.047 241.761 154.047 241.69 154.047C241.619 154.047 241.548 154.047 241.477 154.047C241.406 154.047 241.334 154.047 241.263 154.047C241.192 154.047 241.12 154.047 241.049 154.047C240.977 154.047 240.906 154.047 240.834 154.047C240.762 154.047 240.691 154.047 240.619 154.047C240.547 154.047 240.475 154.047 240.403 154.047C240.331 154.047 240.259 154.047 240.187 154.047C240.115 154.047 240.043 154.047 239.971 154.047C239.899 154.047 239.826 154.047 239.754 154.047C239.682 154.047 239.609 154.047 239.537 154.047C239.464 154.047 239.392 154.047 239.319 154.047C239.246 154.047 239.174 154.047 239.101 154.047C239.028 154.047 238.955 154.047 238.882 154.047C238.809 154.047 238.736 154.047 238.663 154.047C238.59 154.047 238.517 154.047 238.444 154.047C238.37 154.047 238.297 154.047 238.224 154.047C238.15 154.047 238.077 154.047 238.003 154.047C237.93 154.047 237.856 154.047 237.783 154.047C237.709 154.047 237.635 154.047 237.561 154.047C237.488 154.047 237.414 154.047 237.34 154.047C237.266 154.047 237.192 154.047 237.118 154.047C237.044 154.047 236.969 154.047 236.895 154.047C236.821 154.047 236.747 154.047 236.672 154.047C236.598 154.047 236.524 154.047 236.449 154.047C236.375 154.047 236.3 154.047 236.225 154.047C236.151 154.047 236.076 154.047 236.001 154.047C235.926 154.047 235.852 154.047 235.777 154.047C235.702 154.047 235.627 154.047 235.552 154.047C235.477 154.047 235.401 154.047 235.326 154.047C235.251 154.047 235.176 154.047 235.1 154.047C235.025 154.047 234.95 154.047 234.874 154.047C234.799 154.047 234.723 154.047 234.648 154.047C234.572 154.047 234.496 154.047 234.421 154.047C234.345 154.047 234.269 154.047 234.193 154.047C234.117 154.047 234.041 154.047 233.965 154.047C233.889 154.047 233.813 154.047 233.737 154.047C233.661 154.047 233.585 154.047 233.509 154.047C233.432 154.047 233.356 154.047 233.28 154.047C233.203 154.047 233.127 154.047 233.05 154.047C232.974 154.047 232.897 154.047 232.82 154.047C232.744 154.047 232.667 154.047 232.59 154.047C232.513 154.047 232.436 154.047 232.36 154.047C232.283 154.047 232.206 154.047 232.129 154.047C232.051 154.047 231.974 154.047 231.897 154.047C231.82 154.047 231.743 154.047 231.665 154.047C231.588 154.047 231.511 154.047 231.433 154.047C231.356 154.047 231.278 154.047 231.201 154.047C231.123 154.047 231.046 154.047 230.968 154.047C230.89 154.047 230.812 154.047 230.735 154.047C230.657 154.047 230.579 154.047 230.501 154.047C230.423 154.047 230.345 154.047 230.267 154.047C230.189 154.047 230.111 154.047 230.032 154.047C229.954 154.047 229.876 154.047 229.798 154.047C229.719 154.047 229.641 154.047 229.562 154.047C229.484 154.047 229.405 154.047 229.327 154.047C229.248 154.047 229.17 154.047 229.091 154.047C229.012 154.047 228.933 154.047 228.855 154.047C228.776 154.047 228.697 154.047 228.618 154.047C228.539 154.047 228.46 154.047 228.381 154.047C228.302 154.047 228.223 154.047 228.144 154.047C228.064 154.047 227.985 154.047 227.906 154.047C227.827 154.047 227.747 154.047 227.668 154.047C227.588 154.047 227.509 154.047 227.429 154.047C227.35 154.047 227.27 154.047 227.19 154.047C227.111 154.047 227.031 154.047 226.951 154.047C226.871 154.047 226.792 154.047 226.712 154.047C226.632 154.047 226.552 154.047 226.472 154.047C226.392 154.047 226.312 154.047 226.231 154.047C226.151 154.047 226.071 154.047 225.991 154.047C225.911 154.047 225.83 154.047 225.75 154.047C225.67 154.047 225.589 154.047 225.509 154.047C225.428 154.047 225.348 154.047 225.267 154.047C225.186 154.047 225.106 154.047 225.025 154.047C224.944 154.047 224.863 154.047 224.783 154.047C224.702 154.047 224.621 154.047 224.54 154.047C224.459 154.047 224.378 154.047 224.297 154.047C224.216 154.047 224.135 154.047 224.053 154.047C223.972 154.047 223.891 154.047 223.81 154.047C223.728 154.047 223.647 154.047 223.566 154.047C223.484 154.047 223.403 154.047 223.321 154.047C223.24 154.047 223.158 154.047 223.077 154.047C222.995 154.047 222.913 154.047 222.832 154.047C222.75 154.047 222.668 154.047 222.586 154.047C222.504 154.047 222.422 154.047 222.341 154.047C222.259 154.047 222.177 154.047 222.094 154.047C222.012 154.047 221.93 154.047 221.848 154.047C221.766 154.047 221.684 154.047 221.601 154.047C221.519 154.047 221.437 154.047 221.354 154.047C221.272 154.047 221.19 154.047 221.107 154.047C221.025 154.047 220.942 154.047 220.859 154.047C220.777 154.047 220.694 154.047 220.611 154.047C220.529 154.047 220.446 154.047 220.363 154.047C220.28 154.047 220.197 154.047 220.115 154.047C220.032 154.047 219.949 154.047 219.866 154.047C219.783 154.047 219.7 154.047 219.616 154.047C219.533 154.047 219.45 154.047 219.367 154.047C219.284 154.047 219.2 154.047 219.117 154.047C219.034 154.047 218.95 154.047 218.867 154.047C218.783 154.047 218.7 154.047 218.616 154.047C218.533 154.047 218.449 154.047 218.366 154.047C218.282 154.047 218.198 154.047 218.114 154.047C218.031 154.047 217.947 154.047 217.863 154.047C217.779 154.047 217.695 154.047 217.611 154.047C217.527 154.047 217.443 154.047 217.359 154.047C217.275 154.047 217.191 154.047 217.107 154.047C217.023 154.047 216.939 154.047 216.855 154.047C216.77 154.047 216.686 154.047 216.602 154.047C216.517 154.047 216.433 154.047 216.349 154.047C216.264 154.047 216.18 154.047 216.095 154.047C216.011 154.047 215.926 154.047 215.841 154.047C215.757 154.047 215.672 154.047 215.587 154.047C215.503 154.047 215.418 154.047 215.333 154.047C215.248 154.047 215.163 154.047 215.078 154.047C214.993 154.047 214.908 154.047 214.823 154.047C214.738 154.047 214.653 154.047 214.568 154.047C214.483 154.047 214.398 154.047 214.313 154.047C214.228 154.047 214.142 154.047 214.057 154.047C213.972 154.047 213.886 154.047 213.801 154.047C213.716 154.047 213.63 154.047 213.545 154.047C213.459 154.047 213.374 154.047 213.288 154.047C213.202 154.047 213.117 154.047 213.031 154.047C212.946 154.047 212.86 154.047 212.774 154.047C212.688 154.047 212.603 154.047 212.517 154.047C212.431 154.047 212.345 154.047 212.259 154.047C212.173 154.047 212.087 154.047 212.001 154.047C211.915 154.047 211.829 154.047 211.743 154.047C211.657 154.047 211.571 154.047 211.484 154.047C211.398 154.047 211.312 154.047 211.226 154.047C211.139 154.047 211.053 154.047 210.967 154.047C210.88 154.047 210.794 154.047 210.707 154.047C210.621 154.047 210.534 154.047 210.448 154.047C210.361 154.047 210.275 154.047 210.188 154.047C210.101 154.047 210.015 154.047 209.928 154.047C209.841 154.047 209.755 154.047 209.668 154.047C209.581 154.047 209.494 154.047 209.407 154.047C209.32 154.047 209.233 154.047 209.146 154.047C209.059 154.047 208.972 154.047 208.885 154.047C208.798 154.047 208.711 154.047 208.624 154.047C208.537 154.047 208.45 154.047 208.363 154.047C208.275 154.047 208.188 154.047 208.101 154.047C208.013 154.047 207.926 154.047 207.839 154.047C207.751 154.047 207.664 154.047 207.576 154.047C207.489 154.047 207.401 154.047 207.314 154.047C207.226 154.047 207.139 154.047 207.051 154.047C206.964 154.047 206.876 154.047 206.788 154.047C206.7 154.047 206.613 154.047 206.525 154.047C206.437 154.047 206.349 154.047 206.261 154.047C206.174 154.047 206.086 154.047 205.998 154.047C205.91 154.047 205.822 154.047 205.734 154.047C205.646 154.047 205.558 154.047 205.47 154.047C205.382 154.047 205.293 154.047 205.205 154.047C205.117 154.047 205.029 154.047 204.941 154.047C204.852 154.047 204.764 154.047 204.676 154.047C204.587 154.047 204.499 154.047 204.411 154.047C204.322 154.047 204.234 154.047 204.145 154.047C204.057 154.047 203.968 154.047 203.88 154.047C203.791 154.047 203.703 154.047 203.614 154.047C203.525 154.047 203.437 154.047 203.348 154.047C203.259 154.047 203.171 154.047 203.082 154.047C202.993 154.047 202.904 154.047 202.815 154.047C202.727 154.047 202.638 154.047 202.549 154.047C202.46 154.047 202.371 154.047 202.282 154.047C202.193 154.047 202.104 154.047 202.015 154.047C201.926 154.047 201.837 154.047 201.748 154.047C201.659 154.047 201.569 154.047 201.48 154.047C201.391 154.047 201.302 154.047 201.213 154.047C201.123 154.047 201.034 154.047 200.945 154.047C200.855 154.047 200.766 154.047 200.677 154.047C200.587 154.047 200.498 154.047 200.408 154.047C200.319 154.047 200.229 154.047 200.14 154.047C200.05 154.047 199.961 154.047 199.871 154.047C199.782 154.047 199.692 154.047 199.602 154.047C199.513 154.047 199.423 154.047 199.333 154.047C199.243 154.047 199.154 154.047 199.064 154.047C198.974 154.047 198.884 154.047 198.794 154.047C198.705 154.047 198.615 154.047 198.525 154.047C198.435 154.047 198.345 154.047 198.255 154.047C198.165 154.047 198.075 154.047 197.985 154.047C197.895 154.047 197.805 154.047 197.715 154.047C197.624 154.047 197.534 154.047 197.444 154.047C197.354 154.047 197.264 154.047 197.174 154.047C197.083 154.047 196.993 154.047 196.903 154.047C196.812 154.047 196.722 154.047 196.632 154.047C196.541 154.047 196.451 154.047 196.361 154.047C196.27 154.047 196.18 154.047 196.089 154.047C195.999 154.047 195.908 154.047 195.818 154.047C195.727 154.047 195.637 154.047 195.546 154.047C195.455 154.047 195.365 154.047 195.274 154.047C195.183 154.047 195.093 154.047 195.002 154.047C194.911 154.047 194.821 154.047 194.73 154.047C194.639 154.047 194.548 154.047 194.457 154.047C194.367 154.047 194.276 154.047 194.185 154.047C194.094 154.047 194.003 154.047 193.912 154.047C193.821 154.047 193.73 154.047 193.639 154.047C193.548 154.047 193.457 154.047 193.366 154.047C193.275 154.047 193.184 154.047 193.093 154.047C193.002 154.047 192.911 154.047 192.82 154.047C192.729 154.047 192.637 154.047 192.546 154.047C192.455 154.047 192.364 154.047 192.272 154.047C192.181 154.047 192.09 154.047 191.999 154.047C191.907 154.047 191.816 154.047 191.725 154.047C191.633 154.047 191.542 154.047 191.45 154.047C191.359 154.047 191.268 154.047 191.176 154.047C191.085 154.047 190.993 154.047 190.902 154.047C190.81 154.047 190.719 154.047 190.627 154.047C190.535 154.047 190.444 154.047 190.352 154.047C190.261 154.047 190.169 154.047 190.077 154.047C189.986 154.047 189.894 154.047 189.802 154.047C189.711 154.047 189.619 154.047 189.527 154.047C189.435 154.047 189.343 154.047 189.252 154.047C189.16 154.047 189.068 154.047 188.976 154.047C188.884 154.047 188.792 154.047 188.701 154.047C188.609 154.047 188.517 154.047 188.425 154.047C188.333 154.047 188.241 154.047 188.149 154.047C188.057 154.047 187.965 154.047 187.873 154.047C187.781 154.047 187.689 154.047 187.597 154.047C187.505 154.047 187.413 154.047 187.32 154.047C187.228 154.047 187.136 154.047 187.044 154.047C186.952 154.047 186.86 154.047 186.767 154.047C186.675 154.047 186.583 154.047 186.491 154.047C186.398 154.047 186.306 154.047 186.214 154.047C186.122 154.047 186.029 154.047 185.937 154.047C185.845 154.047 185.752 154.047 185.66 154.047C185.568 154.047 185.475 154.047 185.383 154.047C185.29 154.047 185.198 154.047 185.105 154.047C185.013 154.047 184.92 154.047 184.828 154.047C184.735 154.047 184.643 154.047 184.55 154.047C184.458 154.047 184.365 154.047 184.273 154.047C184.18 154.047 184.088 154.047 183.995 154.047C183.902 154.047 183.81 154.047 183.717 154.047C183.624 154.047 183.532 154.047 183.439 154.047C183.346 154.047 183.254 154.047 183.161 154.047C183.068 154.047 182.976 154.047 182.883 154.047C182.79 154.047 182.697 154.047 182.604 154.047C182.512 154.047 182.419 154.047 182.326 154.047C182.233 154.047 182.14 154.047 182.048 154.047C181.955 154.047 181.862 154.047 181.769 154.047C181.676 154.047 181.583 154.047 181.49 154.047C181.397 154.047 181.304 154.047 181.211 154.047C181.118 154.047 181.025 154.047 180.932 154.047C180.839 154.047 180.746 154.047 180.653 154.047C180.56 154.047 180.467 154.047 180.374 154.047C180.281 154.047 180.188 154.047 180.095 154.047C180.002 154.047 179.909 154.047 179.816 154.047C179.723 154.047 179.629 154.047 179.536 154.047C179.443 154.047 179.35 154.047 179.257 154.047C179.164 154.047 179.07 154.047 178.977 154.047C178.884 154.047 178.791 154.047 178.698 154.047C178.604 154.047 178.511 154.047 178.418 154.047C178.325 154.047 178.231 154.047 178.138 154.047C178.045 154.047 177.951 154.047 177.858 154.047C177.765 154.047 177.671 154.047 177.578 154.047C177.485 154.047 177.391 154.047 177.298 154.047C177.205 154.047 177.111 154.047 177.018 154.047C176.924 154.047 176.831 154.047 176.738 154.047C176.644 154.047 176.551 154.047 176.457 154.047C176.364 154.047 176.27 154.047 176.177 154.047C176.084 154.047 175.99 154.047 175.897 154.047C175.803 154.047 175.71 154.047 175.616 154.047C175.523 154.047 175.429 154.047 175.335 154.047C175.242 154.047 175.148 154.047 175.055 154.047C174.961 154.047 174.868 154.047 174.774 154.047C174.681 154.047 174.587 154.047 174.493 154.047C174.4 154.047 174.306 154.047 174.213 154.047C174.119 154.047 174.025 154.047 173.932 154.047C173.838 154.047 173.744 154.047 173.651 154.047C173.557 154.047 173.463 154.047 173.37 154.047C173.276 154.047 173.182 154.047 173.089 154.047C172.995 154.047 172.901 154.047 172.807 154.047C172.714 154.047 172.62 154.047 172.526 154.047C172.433 154.047 172.339 154.047 172.245 154.047C172.151 154.047 172.058 154.047 171.964 154.047C171.87 154.047 171.776 154.047 171.682 154.047C171.589 154.047 171.495 154.047 171.401 154.047C171.307 154.047 171.213 154.047 171.12 154.047C171.026 154.047 170.932 154.047 170.838 154.047C170.744 154.047 170.65 154.047 170.557 154.047C170.463 154.047 170.369 154.047 170.275 154.047C170.181 154.047 170.087 154.047 169.993 154.047C169.9 154.047 169.806 154.047 169.712 154.047C169.618 154.047 169.524 154.047 169.43 154.047C169.336 154.047 169.242 154.047 169.148 154.047C169.055 154.047 168.961 154.047 168.867 154.047C168.773 154.047 168.679 154.047 168.585 154.047C168.491 154.047 168.397 154.047 168.303 154.047C168.209 154.047 168.115 154.047 168.021 154.047C167.927 154.047 167.833 154.047 167.739 154.047C167.646 154.047 167.552 154.047 167.458 154.047C167.364 154.047 167.27 154.047 167.176 154.047C167.082 154.047 166.988 154.047 166.894 154.047C166.8 154.047 166.706 154.047 166.612 154.047C166.518 154.047 166.424 154.047 166.33 154.047C166.236 154.047 166.142 154.047 166.048 154.047C165.954 154.047 165.86 154.047 165.766 154.047C165.672 154.047 165.578 154.047 165.484 154.047C165.39 154.047 165.296 154.047 165.202 154.047C165.108 154.047 165.014 154.047 164.92 154.047C164.826 154.047 164.732 154.047 164.638 154.047C164.544 154.047 164.45 154.047 164.356 154.047C164.261 154.047 164.167 154.047 164.073 154.047C163.979 154.047 163.885 154.047 163.791 154.047C163.697 154.047 163.603 154.047 163.509 154.047C163.415 154.047 163.321 154.047 163.227 154.047C163.133 154.047 163.039 154.047 162.945 154.047C162.851 154.047 162.757 154.047 162.663 154.047C162.569 154.047 162.475 154.047 162.381 154.047C162.287 154.047 162.193 154.047 162.099 154.047C162.005 154.047 161.911 154.047 161.817 154.047C161.723 154.047 161.629 154.047 161.534 154.047C161.44 154.047 161.346 154.047 161.252 154.047C161.158 154.047 161.064 154.047 160.97 154.047C160.876 154.047 160.782 154.047 160.688 154.047C160.594 154.047 160.5 154.047 160.406 154.047C160.312 154.047 160.218 154.047 160.124 154.047C160.03 154.047 159.936 154.047 159.842 154.047C159.748 154.047 159.654 154.047 159.56 154.047C159.466 154.047 159.372 154.047 159.278 154.047C159.184 154.047 159.09 154.047 158.996 154.047C158.902 154.047 158.808 154.047 158.714 154.047C158.62 154.047 158.526 154.047 158.432 154.047C158.338 154.047 158.244 154.047 158.15 154.047C158.056 154.047 157.962 154.047 157.868 154.047C157.774 154.047 157.68 154.047 157.586 154.047C157.492 154.047 157.398 154.047 157.304 154.047C157.211 154.047 157.117 154.047 157.023 154.047C156.929 154.047 156.835 154.047 156.741 154.047C156.647 154.047 156.553 154.047 156.459 154.047C156.365 154.047 156.271 154.047 156.177 154.047C156.083 154.047 155.99 154.047 155.896 154.047C155.802 154.047 155.708 154.047 155.614 154.047C155.52 154.047 155.426 154.047 155.332 154.047C155.238 154.047 155.145 154.047 155.051 154.047C154.957 154.047 154.863 154.047 154.769 154.047C154.675 154.047 154.582 154.047 154.488 154.047C154.394 154.047 154.3 154.047 154.206 154.047C154.112 154.047 154.019 154.047 153.925 154.047C153.831 154.047 153.737 154.047 153.643 154.047C153.55 154.047 153.456 154.047 153.362 154.047C153.268 154.047 153.175 154.047 153.081 154.047C152.987 154.047 152.893 154.047 152.8 154.047C152.706 154.047 152.612 154.047 152.518 154.047C152.425 154.047 152.331 154.047 152.237 154.047C152.144 154.047 152.05 154.047 151.956 154.047C151.863 154.047 151.769 154.047 151.675 154.047C151.582 154.047 151.488 154.047 151.394 154.047C151.301 154.047 151.207 154.047 151.113 154.047C151.02 154.047 150.926 154.047 150.833 154.047C150.739 154.047 150.645 154.047 150.552 154.047C150.458 154.047 150.365 154.047 150.271 154.047C150.178 154.047 150.084 154.047 149.99 154.047C149.897 154.047 149.803 154.047 149.71 154.047C149.616 154.047 149.523 154.047 149.429 154.047C149.336 154.047 149.242 154.047 149.149 154.047C149.055 154.047 148.962 154.047 148.869 154.047C148.775 154.047 148.682 154.047 148.588 154.047C148.495 154.047 148.401 154.047 148.308 154.047C148.215 154.047 148.121 154.047 148.028 154.047C147.935 154.047 147.841 154.047 147.748 154.047C147.655 154.047 147.561 154.047 147.468 154.047C147.375 154.047 147.281 154.047 147.188 154.047C147.095 154.047 147.001 154.047 146.908 154.047C146.815 154.047 146.722 154.047 146.628 154.047C146.535 154.047 146.442 154.047 146.349 154.047C146.256 154.047 146.162 154.047 146.069 154.047C145.976 154.047 145.883 154.047 145.79 154.047C145.697 154.047 145.603 154.047 145.51 154.047C145.417 154.047 145.324 154.047 145.231 154.047C145.138 154.047 145.045 154.047 144.952 154.047C144.859 154.047 144.766 154.047 144.673 154.047C144.58 154.047 144.487 154.047 144.394 154.047C144.301 154.047 144.208 154.047 144.115 154.047C144.022 154.047 143.929 154.047 143.836 154.047C143.743 154.047 143.65 154.047 143.557 154.047C143.464 154.047 143.371 154.047 143.279 154.047C143.186 154.047 143.093 154.047 143 154.047V156.047C143.093 156.047 143.186 156.047 143.279 156.047C143.371 156.047 143.464 156.047 143.557 156.047C143.65 156.047 143.743 156.047 143.836 156.047C143.929 156.047 144.022 156.047 144.115 156.047C144.208 156.047 144.301 156.047 144.394 156.047C144.487 156.047 144.58 156.047 144.673 156.047C144.766 156.047 144.859 156.047 144.952 156.047C145.045 156.047 145.138 156.047 145.231 156.047C145.324 156.047 145.417 156.047 145.51 156.047C145.603 156.047 145.697 156.047 145.79 156.047C145.883 156.047 145.976 156.047 146.069 156.047C146.162 156.047 146.256 156.047 146.349 156.047C146.442 156.047 146.535 156.047 146.628 156.047C146.722 156.047 146.815 156.047 146.908 156.047C147.001 156.047 147.095 156.047 147.188 156.047C147.281 156.047 147.375 156.047 147.468 156.047C147.561 156.047 147.655 156.047 147.748 156.047C147.841 156.047 147.935 156.047 148.028 156.047C148.121 156.047 148.215 156.047 148.308 156.047C148.401 156.047 148.495 156.047 148.588 156.047C148.682 156.047 148.775 156.047 148.869 156.047C148.962 156.047 149.055 156.047 149.149 156.047C149.242 156.047 149.336 156.047 149.429 156.047C149.523 156.047 149.616 156.047 149.71 156.047C149.803 156.047 149.897 156.047 149.99 156.047C150.084 156.047 150.178 156.047 150.271 156.047C150.365 156.047 150.458 156.047 150.552 156.047C150.645 156.047 150.739 156.047 150.833 156.047C150.926 156.047 151.02 156.047 151.113 156.047C151.207 156.047 151.301 156.047 151.394 156.047C151.488 156.047 151.582 156.047 151.675 156.047C151.769 156.047 151.863 156.047 151.956 156.047C152.05 156.047 152.144 156.047 152.237 156.047C152.331 156.047 152.425 156.047 152.518 156.047C152.612 156.047 152.706 156.047 152.8 156.047C152.893 156.047 152.987 156.047 153.081 156.047C153.175 156.047 153.268 156.047 153.362 156.047C153.456 156.047 153.55 156.047 153.643 156.047C153.737 156.047 153.831 156.047 153.925 156.047C154.019 156.047 154.112 156.047 154.206 156.047C154.3 156.047 154.394 156.047 154.488 156.047C154.582 156.047 154.675 156.047 154.769 156.047C154.863 156.047 154.957 156.047 155.051 156.047C155.145 156.047 155.238 156.047 155.332 156.047C155.426 156.047 155.52 156.047 155.614 156.047C155.708 156.047 155.802 156.047 155.896 156.047C155.99 156.047 156.083 156.047 156.177 156.047C156.271 156.047 156.365 156.047 156.459 156.047C156.553 156.047 156.647 156.047 156.741 156.047C156.835 156.047 156.929 156.047 157.023 156.047C157.117 156.047 157.211 156.047 157.304 156.047C157.398 156.047 157.492 156.047 157.586 156.047C157.68 156.047 157.774 156.047 157.868 156.047C157.962 156.047 158.056 156.047 158.15 156.047C158.244 156.047 158.338 156.047 158.432 156.047C158.526 156.047 158.62 156.047 158.714 156.047C158.808 156.047 158.902 156.047 158.996 156.047C159.09 156.047 159.184 156.047 159.278 156.047C159.372 156.047 159.466 156.047 159.56 156.047C159.654 156.047 159.748 156.047 159.842 156.047C159.936 156.047 160.03 156.047 160.124 156.047C160.218 156.047 160.312 156.047 160.406 156.047C160.5 156.047 160.594 156.047 160.688 156.047C160.782 156.047 160.876 156.047 160.97 156.047C161.064 156.047 161.158 156.047 161.252 156.047C161.346 156.047 161.44 156.047 161.534 156.047C161.629 156.047 161.723 156.047 161.817 156.047C161.911 156.047 162.005 156.047 162.099 156.047C162.193 156.047 162.287 156.047 162.381 156.047C162.475 156.047 162.569 156.047 162.663 156.047C162.757 156.047 162.851 156.047 162.945 156.047C163.039 156.047 163.133 156.047 163.227 156.047C163.321 156.047 163.415 156.047 163.509 156.047C163.603 156.047 163.697 156.047 163.791 156.047C163.885 156.047 163.979 156.047 164.073 156.047C164.167 156.047 164.261 156.047 164.356 156.047C164.45 156.047 164.544 156.047 164.638 156.047C164.732 156.047 164.826 156.047 164.92 156.047C165.014 156.047 165.108 156.047 165.202 156.047C165.296 156.047 165.39 156.047 165.484 156.047C165.578 156.047 165.672 156.047 165.766 156.047C165.86 156.047 165.954 156.047 166.048 156.047C166.142 156.047 166.236 156.047 166.33 156.047C166.424 156.047 166.518 156.047 166.612 156.047C166.706 156.047 166.8 156.047 166.894 156.047C166.988 156.047 167.082 156.047 167.176 156.047C167.27 156.047 167.364 156.047 167.458 156.047C167.552 156.047 167.646 156.047 167.739 156.047C167.833 156.047 167.927 156.047 168.021 156.047C168.115 156.047 168.209 156.047 168.303 156.047C168.397 156.047 168.491 156.047 168.585 156.047C168.679 156.047 168.773 156.047 168.867 156.047C168.961 156.047 169.055 156.047 169.148 156.047C169.242 156.047 169.336 156.047 169.43 156.047C169.524 156.047 169.618 156.047 169.712 156.047C169.806 156.047 169.9 156.047 169.993 156.047C170.087 156.047 170.181 156.047 170.275 156.047C170.369 156.047 170.463 156.047 170.557 156.047C170.65 156.047 170.744 156.047 170.838 156.047C170.932 156.047 171.026 156.047 171.12 156.047C171.213 156.047 171.307 156.047 171.401 156.047C171.495 156.047 171.589 156.047 171.682 156.047C171.776 156.047 171.87 156.047 171.964 156.047C172.058 156.047 172.151 156.047 172.245 156.047C172.339 156.047 172.433 156.047 172.526 156.047C172.62 156.047 172.714 156.047 172.807 156.047C172.901 156.047 172.995 156.047 173.089 156.047C173.182 156.047 173.276 156.047 173.37 156.047C173.463 156.047 173.557 156.047 173.651 156.047C173.744 156.047 173.838 156.047 173.932 156.047C174.025 156.047 174.119 156.047 174.213 156.047C174.306 156.047 174.4 156.047 174.493 156.047C174.587 156.047 174.681 156.047 174.774 156.047C174.868 156.047 174.961 156.047 175.055 156.047C175.148 156.047 175.242 156.047 175.335 156.047C175.429 156.047 175.523 156.047 175.616 156.047C175.71 156.047 175.803 156.047 175.897 156.047C175.99 156.047 176.084 156.047 176.177 156.047C176.27 156.047 176.364 156.047 176.457 156.047C176.551 156.047 176.644 156.047 176.738 156.047C176.831 156.047 176.924 156.047 177.018 156.047C177.111 156.047 177.205 156.047 177.298 156.047C177.391 156.047 177.485 156.047 177.578 156.047C177.671 156.047 177.765 156.047 177.858 156.047C177.951 156.047 178.045 156.047 178.138 156.047C178.231 156.047 178.325 156.047 178.418 156.047C178.511 156.047 178.604 156.047 178.698 156.047C178.791 156.047 178.884 156.047 178.977 156.047C179.07 156.047 179.164 156.047 179.257 156.047C179.35 156.047 179.443 156.047 179.536 156.047C179.629 156.047 179.723 156.047 179.816 156.047C179.909 156.047 180.002 156.047 180.095 156.047C180.188 156.047 180.281 156.047 180.374 156.047C180.467 156.047 180.56 156.047 180.653 156.047C180.746 156.047 180.839 156.047 180.932 156.047C181.025 156.047 181.118 156.047 181.211 156.047C181.304 156.047 181.397 156.047 181.49 156.047C181.583 156.047 181.676 156.047 181.769 156.047C181.862 156.047 181.955 156.047 182.048 156.047C182.14 156.047 182.233 156.047 182.326 156.047C182.419 156.047 182.512 156.047 182.604 156.047C182.697 156.047 182.79 156.047 182.883 156.047C182.976 156.047 183.068 156.047 183.161 156.047C183.254 156.047 183.346 156.047 183.439 156.047C183.532 156.047 183.624 156.047 183.717 156.047C183.81 156.047 183.902 156.047 183.995 156.047C184.088 156.047 184.18 156.047 184.273 156.047C184.365 156.047 184.458 156.047 184.55 156.047C184.643 156.047 184.735 156.047 184.828 156.047C184.92 156.047 185.013 156.047 185.105 156.047C185.198 156.047 185.29 156.047 185.383 156.047C185.475 156.047 185.568 156.047 185.66 156.047C185.752 156.047 185.845 156.047 185.937 156.047C186.029 156.047 186.122 156.047 186.214 156.047C186.306 156.047 186.398 156.047 186.491 156.047C186.583 156.047 186.675 156.047 186.767 156.047C186.86 156.047 186.952 156.047 187.044 156.047C187.136 156.047 187.228 156.047 187.32 156.047C187.413 156.047 187.505 156.047 187.597 156.047C187.689 156.047 187.781 156.047 187.873 156.047C187.965 156.047 188.057 156.047 188.149 156.047C188.241 156.047 188.333 156.047 188.425 156.047C188.517 156.047 188.609 156.047 188.701 156.047C188.792 156.047 188.884 156.047 188.976 156.047C189.068 156.047 189.16 156.047 189.252 156.047C189.343 156.047 189.435 156.047 189.527 156.047C189.619 156.047 189.711 156.047 189.802 156.047C189.894 156.047 189.986 156.047 190.077 156.047C190.169 156.047 190.261 156.047 190.352 156.047C190.444 156.047 190.535 156.047 190.627 156.047C190.719 156.047 190.81 156.047 190.902 156.047C190.993 156.047 191.085 156.047 191.176 156.047C191.268 156.047 191.359 156.047 191.45 156.047C191.542 156.047 191.633 156.047 191.725 156.047C191.816 156.047 191.907 156.047 191.999 156.047C192.09 156.047 192.181 156.047 192.272 156.047C192.364 156.047 192.455 156.047 192.546 156.047C192.637 156.047 192.729 156.047 192.82 156.047C192.911 156.047 193.002 156.047 193.093 156.047C193.184 156.047 193.275 156.047 193.366 156.047C193.457 156.047 193.548 156.047 193.639 156.047C193.73 156.047 193.821 156.047 193.912 156.047C194.003 156.047 194.094 156.047 194.185 156.047C194.276 156.047 194.367 156.047 194.457 156.047C194.548 156.047 194.639 156.047 194.73 156.047C194.821 156.047 194.911 156.047 195.002 156.047C195.093 156.047 195.183 156.047 195.274 156.047C195.365 156.047 195.455 156.047 195.546 156.047C195.637 156.047 195.727 156.047 195.818 156.047C195.908 156.047 195.999 156.047 196.089 156.047C196.18 156.047 196.27 156.047 196.361 156.047C196.451 156.047 196.541 156.047 196.632 156.047C196.722 156.047 196.812 156.047 196.903 156.047C196.993 156.047 197.083 156.047 197.174 156.047C197.264 156.047 197.354 156.047 197.444 156.047C197.534 156.047 197.624 156.047 197.715 156.047C197.805 156.047 197.895 156.047 197.985 156.047C198.075 156.047 198.165 156.047 198.255 156.047C198.345 156.047 198.435 156.047 198.525 156.047C198.615 156.047 198.705 156.047 198.794 156.047C198.884 156.047 198.974 156.047 199.064 156.047C199.154 156.047 199.243 156.047 199.333 156.047C199.423 156.047 199.513 156.047 199.602 156.047C199.692 156.047 199.782 156.047 199.871 156.047C199.961 156.047 200.05 156.047 200.14 156.047C200.229 156.047 200.319 156.047 200.408 156.047C200.498 156.047 200.587 156.047 200.677 156.047C200.766 156.047 200.855 156.047 200.945 156.047C201.034 156.047 201.123 156.047 201.213 156.047C201.302 156.047 201.391 156.047 201.48 156.047C201.569 156.047 201.659 156.047 201.748 156.047C201.837 156.047 201.926 156.047 202.015 156.047C202.104 156.047 202.193 156.047 202.282 156.047C202.371 156.047 202.46 156.047 202.549 156.047C202.638 156.047 202.727 156.047 202.815 156.047C202.904 156.047 202.993 156.047 203.082 156.047C203.171 156.047 203.259 156.047 203.348 156.047C203.437 156.047 203.525 156.047 203.614 156.047C203.703 156.047 203.791 156.047 203.88 156.047C203.968 156.047 204.057 156.047 204.145 156.047C204.234 156.047 204.322 156.047 204.411 156.047C204.499 156.047 204.587 156.047 204.676 156.047C204.764 156.047 204.852 156.047 204.941 156.047C205.029 156.047 205.117 156.047 205.205 156.047C205.293 156.047 205.382 156.047 205.47 156.047C205.558 156.047 205.646 156.047 205.734 156.047C205.822 156.047 205.91 156.047 205.998 156.047C206.086 156.047 206.174 156.047 206.261 156.047C206.349 156.047 206.437 156.047 206.525 156.047C206.613 156.047 206.7 156.047 206.788 156.047C206.876 156.047 206.964 156.047 207.051 156.047C207.139 156.047 207.226 156.047 207.314 156.047C207.401 156.047 207.489 156.047 207.576 156.047C207.664 156.047 207.751 156.047 207.839 156.047C207.926 156.047 208.013 156.047 208.101 156.047C208.188 156.047 208.275 156.047 208.363 156.047C208.45 156.047 208.537 156.047 208.624 156.047C208.711 156.047 208.798 156.047 208.885 156.047C208.972 156.047 209.059 156.047 209.146 156.047C209.233 156.047 209.32 156.047 209.407 156.047C209.494 156.047 209.581 156.047 209.668 156.047C209.755 156.047 209.841 156.047 209.928 156.047C210.015 156.047 210.101 156.047 210.188 156.047C210.275 156.047 210.361 156.047 210.448 156.047C210.534 156.047 210.621 156.047 210.707 156.047C210.794 156.047 210.88 156.047 210.967 156.047C211.053 156.047 211.139 156.047 211.226 156.047C211.312 156.047 211.398 156.047 211.484 156.047C211.571 156.047 211.657 156.047 211.743 156.047C211.829 156.047 211.915 156.047 212.001 156.047C212.087 156.047 212.173 156.047 212.259 156.047C212.345 156.047 212.431 156.047 212.517 156.047C212.603 156.047 212.688 156.047 212.774 156.047C212.86 156.047 212.946 156.047 213.031 156.047C213.117 156.047 213.202 156.047 213.288 156.047C213.374 156.047 213.459 156.047 213.545 156.047C213.63 156.047 213.716 156.047 213.801 156.047C213.886 156.047 213.972 156.047 214.057 156.047C214.142 156.047 214.228 156.047 214.313 156.047C214.398 156.047 214.483 156.047 214.568 156.047C214.653 156.047 214.738 156.047 214.823 156.047C214.908 156.047 214.993 156.047 215.078 156.047C215.163 156.047 215.248 156.047 215.333 156.047C215.418 156.047 215.503 156.047 215.587 156.047C215.672 156.047 215.757 156.047 215.841 156.047C215.926 156.047 216.011 156.047 216.095 156.047C216.18 156.047 216.264 156.047 216.349 156.047C216.433 156.047 216.517 156.047 216.602 156.047C216.686 156.047 216.77 156.047 216.855 156.047C216.939 156.047 217.023 156.047 217.107 156.047C217.191 156.047 217.275 156.047 217.359 156.047C217.443 156.047 217.527 156.047 217.611 156.047C217.695 156.047 217.779 156.047 217.863 156.047C217.947 156.047 218.031 156.047 218.114 156.047C218.198 156.047 218.282 156.047 218.366 156.047C218.449 156.047 218.533 156.047 218.616 156.047C218.7 156.047 218.783 156.047 218.867 156.047C218.95 156.047 219.034 156.047 219.117 156.047C219.2 156.047 219.284 156.047 219.367 156.047C219.45 156.047 219.533 156.047 219.616 156.047C219.7 156.047 219.783 156.047 219.866 156.047C219.949 156.047 220.032 156.047 220.115 156.047C220.197 156.047 220.28 156.047 220.363 156.047C220.446 156.047 220.529 156.047 220.611 156.047C220.694 156.047 220.777 156.047 220.859 156.047C220.942 156.047 221.025 156.047 221.107 156.047C221.19 156.047 221.272 156.047 221.354 156.047C221.437 156.047 221.519 156.047 221.601 156.047C221.684 156.047 221.766 156.047 221.848 156.047C221.93 156.047 222.012 156.047 222.094 156.047C222.177 156.047 222.259 156.047 222.341 156.047C222.422 156.047 222.504 156.047 222.586 156.047C222.668 156.047 222.75 156.047 222.832 156.047C222.913 156.047 222.995 156.047 223.077 156.047C223.158 156.047 223.24 156.047 223.321 156.047C223.403 156.047 223.484 156.047 223.566 156.047C223.647 156.047 223.728 156.047 223.81 156.047C223.891 156.047 223.972 156.047 224.053 156.047C224.135 156.047 224.216 156.047 224.297 156.047C224.378 156.047 224.459 156.047 224.54 156.047C224.621 156.047 224.702 156.047 224.783 156.047C224.863 156.047 224.944 156.047 225.025 156.047C225.106 156.047 225.186 156.047 225.267 156.047C225.348 156.047 225.428 156.047 225.509 156.047C225.589 156.047 225.67 156.047 225.75 156.047C225.83 156.047 225.911 156.047 225.991 156.047C226.071 156.047 226.151 156.047 226.231 156.047C226.312 156.047 226.392 156.047 226.472 156.047C226.552 156.047 226.632 156.047 226.712 156.047C226.792 156.047 226.871 156.047 226.951 156.047C227.031 156.047 227.111 156.047 227.19 156.047C227.27 156.047 227.35 156.047 227.429 156.047C227.509 156.047 227.588 156.047 227.668 156.047C227.747 156.047 227.827 156.047 227.906 156.047C227.985 156.047 228.064 156.047 228.144 156.047C228.223 156.047 228.302 156.047 228.381 156.047C228.46 156.047 228.539 156.047 228.618 156.047C228.697 156.047 228.776 156.047 228.855 156.047C228.933 156.047 229.012 156.047 229.091 156.047C229.17 156.047 229.248 156.047 229.327 156.047C229.405 156.047 229.484 156.047 229.562 156.047C229.641 156.047 229.719 156.047 229.798 156.047C229.876 156.047 229.954 156.047 230.032 156.047C230.111 156.047 230.189 156.047 230.267 156.047C230.345 156.047 230.423 156.047 230.501 156.047C230.579 156.047 230.657 156.047 230.735 156.047C230.812 156.047 230.89 156.047 230.968 156.047C231.046 156.047 231.123 156.047 231.201 156.047C231.278 156.047 231.356 156.047 231.433 156.047C231.511 156.047 231.588 156.047 231.665 156.047C231.743 156.047 231.82 156.047 231.897 156.047C231.974 156.047 232.051 156.047 232.129 156.047C232.206 156.047 232.283 156.047 232.36 156.047C232.436 156.047 232.513 156.047 232.59 156.047C232.667 156.047 232.744 156.047 232.82 156.047C232.897 156.047 232.974 156.047 233.05 156.047C233.127 156.047 233.203 156.047 233.28 156.047C233.356 156.047 233.432 156.047 233.509 156.047C233.585 156.047 233.661 156.047 233.737 156.047C233.813 156.047 233.889 156.047 233.965 156.047C234.041 156.047 234.117 156.047 234.193 156.047C234.269 156.047 234.345 156.047 234.421 156.047C234.496 156.047 234.572 156.047 234.648 156.047C234.723 156.047 234.799 156.047 234.874 156.047C234.95 156.047 235.025 156.047 235.1 156.047C235.176 156.047 235.251 156.047 235.326 156.047C235.401 156.047 235.477 156.047 235.552 156.047C235.627 156.047 235.702 156.047 235.777 156.047C235.852 156.047 235.926 156.047 236.001 156.047C236.076 156.047 236.151 156.047 236.225 156.047C236.3 156.047 236.375 156.047 236.449 156.047C236.524 156.047 236.598 156.047 236.672 156.047C236.747 156.047 236.821 156.047 236.895 156.047C236.969 156.047 237.044 156.047 237.118 156.047C237.192 156.047 237.266 156.047 237.34 156.047C237.414 156.047 237.488 156.047 237.561 156.047C237.635 156.047 237.709 156.047 237.783 156.047C237.856 156.047 237.93 156.047 238.003 156.047C238.077 156.047 238.15 156.047 238.224 156.047C238.297 156.047 238.37 156.047 238.444 156.047C238.517 156.047 238.59 156.047 238.663 156.047C238.736 156.047 238.809 156.047 238.882 156.047C238.955 156.047 239.028 156.047 239.101 156.047C239.174 156.047 239.246 156.047 239.319 156.047C239.392 156.047 239.464 156.047 239.537 156.047C239.609 156.047 239.682 156.047 239.754 156.047C239.826 156.047 239.899 156.047 239.971 156.047C240.043 156.047 240.115 156.047 240.187 156.047C240.259 156.047 240.331 156.047 240.403 156.047C240.475 156.047 240.547 156.047 240.619 156.047C240.691 156.047 240.762 156.047 240.834 156.047C240.906 156.047 240.977 156.047 241.049 156.047C241.12 156.047 241.192 156.047 241.263 156.047C241.334 156.047 241.406 156.047 241.477 156.047C241.548 156.047 241.619 156.047 241.69 156.047C241.761 156.047 241.832 156.047 241.903 156.047C241.974 156.047 242.045 156.047 242.115 156.047C242.186 156.047 242.257 156.047 242.327 156.047C242.398 156.047 242.468 156.047 242.539 156.047C242.609 156.047 242.679 156.047 242.75 156.047C242.82 156.047 242.89 156.047 242.96 156.047C243.03 156.047 243.1 156.047 243.17 156.047C243.24 156.047 243.31 156.047 243.38 156.047C243.45 156.047 243.52 156.047 243.589 156.047C243.659 156.047 243.728 156.047 243.798 156.047C243.867 156.047 243.937 156.047 244.006 156.047C244.076 156.047 244.145 156.047 244.214 156.047C244.283 156.047 244.352 156.047 244.421 156.047C244.49 156.047 244.559 156.047 244.628 156.047C244.697 156.047 244.766 156.047 244.834 156.047C244.903 156.047 244.972 156.047 245.04 156.047C245.109 156.047 245.177 156.047 245.246 156.047C245.314 156.047 245.382 156.047 245.451 156.047C245.519 156.047 245.587 156.047 245.655 156.047C245.723 156.047 245.791 156.047 245.859 156.047C245.927 156.047 245.995 156.047 246.063 156.047C246.13 156.047 246.198 156.047 246.266 156.047C246.333 156.047 246.401 156.047 246.468 156.047C246.536 156.047 246.603 156.047 246.67 156.047C246.737 156.047 246.805 156.047 246.872 156.047C246.939 156.047 247.006 156.047 247.073 156.047C247.14 156.047 247.207 156.047 247.273 156.047C247.34 156.047 247.407 156.047 247.473 156.047C247.54 156.047 247.607 156.047 247.673 156.047C247.739 156.047 247.806 156.047 247.872 156.047C247.938 156.047 248.005 156.047 248.071 156.047C248.137 156.047 248.203 156.047 248.269 156.047C248.335 156.047 248.401 156.047 248.466 156.047C248.532 156.047 248.598 156.047 248.663 156.047C248.729 156.047 248.795 156.047 248.86 156.047C248.925 156.047 248.991 156.047 249.056 156.047C249.121 156.047 249.187 156.047 249.252 156.047C249.317 156.047 249.382 156.047 249.447 156.047C249.512 156.047 249.577 156.047 249.641 156.047C249.706 156.047 249.771 156.047 249.835 156.047C249.9 156.047 249.964 156.047 250.029 156.047C250.093 156.047 250.158 156.047 250.222 156.047C250.286 156.047 250.35 156.047 250.414 156.047C250.478 156.047 250.542 156.047 250.606 156.047C250.67 156.047 250.734 156.047 250.798 156.047C250.862 156.047 250.925 156.047 250.989 156.047C251.052 156.047 251.116 156.047 251.179 156.047C251.243 156.047 251.306 156.047 251.369 156.047C251.432 156.047 251.495 156.047 251.559 156.047C251.622 156.047 251.685 156.047 251.747 156.047C251.81 156.047 251.873 156.047 251.936 156.047C251.998 156.047 252.061 156.047 252.123 156.047C252.186 156.047 252.248 156.047 252.311 156.047C252.373 156.047 252.435 156.047 252.498 156.047C252.56 156.047 252.622 156.047 252.684 156.047C252.746 156.047 252.808 156.047 252.869 156.047C252.931 156.047 252.993 156.047 253.055 156.047C253.116 156.047 253.178 156.047 253.239 156.047C253.301 156.047 253.362 156.047 253.423 156.047C253.484 156.047 253.546 156.047 253.607 156.047C253.668 156.047 253.729 156.047 253.79 156.047C253.851 156.047 253.911 156.047 253.972 156.047C254.033 156.047 254.093 156.047 254.154 156.047C254.215 156.047 254.275 156.047 254.335 156.047C254.396 156.047 254.456 156.047 254.516 156.047C254.576 156.047 254.636 156.047 254.696 156.047C254.756 156.047 254.816 156.047 254.876 156.047C254.936 156.047 254.996 156.047 255.055 156.047C255.115 156.047 255.174 156.047 255.234 156.047C255.293 156.047 255.353 156.047 255.412 156.047C255.471 156.047 255.53 156.047 255.589 156.047C255.648 156.047 255.707 156.047 255.766 156.047C255.825 156.047 255.884 156.047 255.943 156.047C256.001 156.047 256.06 156.047 256.118 156.047C256.177 156.047 256.235 156.047 256.294 156.047C256.352 156.047 256.41 156.047 256.468 156.047C256.526 156.047 256.585 156.047 256.642 156.047C256.7 156.047 256.758 156.047 256.816 156.047C256.874 156.047 256.931 156.047 256.989 156.047C257.047 156.047 257.104 156.047 257.161 156.047C257.219 156.047 257.276 156.047 257.333 156.047C257.39 156.047 257.447 156.047 257.504 156.047C257.561 156.047 257.618 156.047 257.675 156.047C257.732 156.047 257.789 156.047 257.845 156.047C257.902 156.047 257.958 156.047 258.015 156.047C258.071 156.047 258.128 156.047 258.184 156.047C258.24 156.047 258.296 156.047 258.352 156.047C258.408 156.047 258.464 156.047 258.52 156.047C258.576 156.047 258.631 156.047 258.687 156.047C258.743 156.047 258.798 156.047 258.854 156.047C258.909 156.047 258.965 156.047 259.02 156.047C259.075 156.047 259.13 156.047 259.185 156.047C259.24 156.047 259.295 156.047 259.35 156.047C259.405 156.047 259.46 156.047 259.514 156.047C259.569 156.047 259.624 156.047 259.678 156.047C259.732 156.047 259.787 156.047 259.841 156.047C259.895 156.047 259.95 156.047 260.004 156.047C260.058 156.047 260.112 156.047 260.165 156.047C260.219 156.047 260.273 156.047 260.327 156.047C260.38 156.047 260.434 156.047 260.487 156.047C260.541 156.047 260.594 156.047 260.648 156.047C260.701 156.047 260.754 156.047 260.807 156.047C260.86 156.047 260.913 156.047 260.966 156.047C261.019 156.047 261.072 156.047 261.124 156.047C261.177 156.047 261.229 156.047 261.282 156.047C261.334 156.047 261.387 156.047 261.439 156.047C261.491 156.047 261.543 156.047 261.595 156.047C261.647 156.047 261.699 156.047 261.751 156.047C261.803 156.047 261.855 156.047 261.906 156.047C261.958 156.047 262.01 156.047 262.061 156.047C262.112 156.047 262.164 156.047 262.215 156.047C262.266 156.047 262.317 156.047 262.368 156.047C262.419 156.047 262.47 156.047 262.521 156.047C262.572 156.047 262.623 156.047 262.673 156.047C262.724 156.047 262.774 156.047 262.825 156.047C262.875 156.047 262.926 156.047 262.976 156.047C263.026 156.047 263.076 156.047 263.126 156.047C263.176 156.047 263.226 156.047 263.276 156.047C263.325 156.047 263.375 156.047 263.425 156.047C263.474 156.047 263.524 156.047 263.573 156.047C263.622 156.047 263.672 156.047 263.721 156.047C263.77 156.047 263.819 156.047 263.868 156.047C263.917 156.047 263.966 156.047 264.014 156.047C264.063 156.047 264.112 156.047 264.16 156.047C264.209 156.047 264.257 156.047 264.306 156.047C264.354 156.047 264.402 156.047 264.45 156.047C264.498 156.047 264.546 156.047 264.594 156.047C264.642 156.047 264.69 156.047 264.737 156.047C264.785 156.047 264.833 156.047 264.88 156.047C264.927 156.047 264.975 156.047 265.022 156.047C265.069 156.047 265.116 156.047 265.163 156.047C265.21 156.047 265.257 156.047 265.304 156.047C265.351 156.047 265.398 156.047 265.444 156.047C265.491 156.047 265.537 156.047 265.584 156.047C265.63 156.047 265.676 156.047 265.722 156.047C265.768 156.047 265.815 156.047 265.86 156.047C265.906 156.047 265.952 156.047 265.998 156.047V154.047Z" fill="#5EBFF7"/>
</svg>
