<svg width="362" height="250" viewBox="0 0 362 250" fill="none" xmlns="http://www.w3.org/2000/svg">
<rect width="362" height="250" rx="16" fill="#1A1A1A"/>
<rect x="118.5" y="23.5" width="88" height="30" rx="11" fill="#E3E7FA"/>
<rect x="118.5" y="23.5" width="88" height="30" rx="11" stroke="#B0B4D9" stroke-width="2"/>
<path d="M134.2 31.98H137.944C140.84 31.98 142.456 33.292 142.456 35.724C142.456 38.06 140.904 39.388 137.88 39.388H135.832V43.5H134.2V31.98ZM137.976 33.308H135.832V38.06H137.912C139.944 38.06 140.76 37.228 140.76 35.724C140.76 34.204 139.784 33.308 137.976 33.308ZM143.499 39.34C143.499 36.348 145.355 34.94 147.611 34.94C149.883 34.94 151.707 36.348 151.707 39.34C151.707 42.252 149.947 43.74 147.595 43.74C145.275 43.74 143.499 42.22 143.499 39.34ZM145.099 39.34C145.099 41.404 146.187 42.492 147.627 42.492C149.099 42.492 150.107 41.404 150.107 39.34C150.107 37.228 149.035 36.188 147.611 36.188C146.187 36.188 145.099 37.26 145.099 39.34ZM152.824 41.116H154.392C154.568 42.108 155.256 42.524 156.424 42.524C157.672 42.524 158.328 41.964 158.328 41.244C158.328 40.268 157.4 40.044 155.912 39.708C153.96 39.276 153.176 38.54 153.176 37.308C153.176 35.884 154.312 34.94 156.408 34.94C158.264 34.94 159.544 35.852 159.816 37.372H158.248C158.072 36.604 157.448 36.156 156.392 36.156C155.24 36.156 154.728 36.588 154.728 37.164C154.728 37.804 155.064 38.092 156.664 38.444C158.6 38.876 159.88 39.42 159.88 41.132C159.88 42.652 158.616 43.74 156.408 43.74C154.328 43.74 152.968 42.716 152.824 41.116ZM163.268 33.788H161.54V31.98H163.268V33.788ZM163.172 43.5H161.636V35.18H163.172V43.5ZM169.129 42.268V43.58C168.713 43.692 168.377 43.74 167.993 43.74C166.521 43.74 165.769 42.812 165.769 41.436V36.492H164.537V35.18H165.769L165.865 33.18H167.305V35.18H169.097V36.492H167.305V41.468C167.305 42.092 167.609 42.396 168.185 42.396C168.457 42.396 168.665 42.38 169.129 42.268ZM172.205 33.788H170.477V31.98H172.205V33.788ZM172.109 43.5H170.573V35.18H172.109V43.5ZM173.874 39.34C173.874 36.348 175.73 34.94 177.986 34.94C180.258 34.94 182.082 36.348 182.082 39.34C182.082 42.252 180.322 43.74 177.97 43.74C175.65 43.74 173.874 42.22 173.874 39.34ZM175.474 39.34C175.474 41.404 176.562 42.492 178.002 42.492C179.474 42.492 180.482 41.404 180.482 39.34C180.482 37.228 179.41 36.188 177.986 36.188C176.562 36.188 175.474 37.26 175.474 39.34ZM185.375 43.5H183.839V35.18H185.103L185.279 36.236C185.887 35.388 186.815 34.94 187.807 34.94C189.615 34.94 190.751 36.044 190.751 38.076V43.5H189.215V38.092C189.215 36.844 188.575 36.252 187.439 36.252C186.335 36.252 185.375 37.052 185.375 38.364V43.5Z" fill="#35355E"/>
<rect x="117.5" y="148.595" width="50" height="50" rx="15" fill="#E3E7FA"/>
<rect x="117.5" y="73.5952" width="50" height="50" rx="15" fill="#E3E7FA"/>
<rect x="194.5" y="148.595" width="50" height="50" rx="15" fill="#E3E7FA"/>
<path d="M223.5 173.595L213.5 167.822V179.369L223.5 173.595ZM136.727 173.595L142.5 179.369L148.274 173.595L142.5 167.822L136.727 173.595ZM214.5 172.595C214.469 172.595 214.439 172.595 214.408 172.595C214.378 172.595 214.347 172.595 214.316 172.595C214.286 172.595 214.255 172.595 214.224 172.595C214.193 172.595 214.162 172.595 214.132 172.595C214.101 172.595 214.07 172.595 214.039 172.595C214.008 172.595 213.977 172.595 213.946 172.595C213.914 172.595 213.883 172.595 213.852 172.595C213.821 172.595 213.79 172.595 213.758 172.595C213.727 172.595 213.696 172.595 213.664 172.595C213.633 172.595 213.601 172.595 213.57 172.595C213.538 172.595 213.507 172.595 213.475 172.595C213.443 172.595 213.412 172.595 213.38 172.595C213.348 172.595 213.316 172.595 213.285 172.595C213.253 172.595 213.221 172.595 213.189 172.595C213.157 172.595 213.125 172.595 213.093 172.595C213.061 172.595 213.029 172.595 212.997 172.595C212.965 172.595 212.932 172.595 212.9 172.595C212.868 172.595 212.836 172.595 212.803 172.595C212.771 172.595 212.739 172.595 212.706 172.595C212.674 172.595 212.641 172.595 212.609 172.595C212.576 172.595 212.544 172.595 212.511 172.595C212.478 172.595 212.446 172.595 212.413 172.595C212.38 172.595 212.347 172.595 212.314 172.595C212.282 172.595 212.249 172.595 212.216 172.595C212.183 172.595 212.15 172.595 212.117 172.595C212.084 172.595 212.051 172.595 212.018 172.595C211.984 172.595 211.951 172.595 211.918 172.595C211.885 172.595 211.852 172.595 211.818 172.595C211.785 172.595 211.751 172.595 211.718 172.595C211.685 172.595 211.651 172.595 211.618 172.595C211.584 172.595 211.55 172.595 211.517 172.595C211.483 172.595 211.45 172.595 211.416 172.595C211.382 172.595 211.348 172.595 211.315 172.595C211.281 172.595 211.247 172.595 211.213 172.595C211.179 172.595 211.145 172.595 211.111 172.595C211.077 172.595 211.043 172.595 211.009 172.595C210.975 172.595 210.941 172.595 210.906 172.595C210.872 172.595 210.838 172.595 210.804 172.595C210.769 172.595 210.735 172.595 210.7 172.595C210.666 172.595 210.632 172.595 210.597 172.595C210.563 172.595 210.528 172.595 210.493 172.595C210.459 172.595 210.424 172.595 210.39 172.595C210.355 172.595 210.32 172.595 210.285 172.595C210.251 172.595 210.216 172.595 210.181 172.595C210.146 172.595 210.111 172.595 210.076 172.595C210.041 172.595 210.006 172.595 209.971 172.595C209.936 172.595 209.901 172.595 209.866 172.595C209.831 172.595 209.795 172.595 209.76 172.595C209.725 172.595 209.69 172.595 209.654 172.595C209.619 172.595 209.583 172.595 209.548 172.595C209.513 172.595 209.477 172.595 209.442 172.595C209.406 172.595 209.37 172.595 209.335 172.595C209.299 172.595 209.263 172.595 209.228 172.595C209.192 172.595 209.156 172.595 209.12 172.595C209.085 172.595 209.049 172.595 209.013 172.595C208.977 172.595 208.941 172.595 208.905 172.595C208.869 172.595 208.833 172.595 208.797 172.595C208.761 172.595 208.725 172.595 208.689 172.595C208.652 172.595 208.616 172.595 208.58 172.595C208.544 172.595 208.507 172.595 208.471 172.595C208.435 172.595 208.398 172.595 208.362 172.595C208.325 172.595 208.289 172.595 208.252 172.595C208.216 172.595 208.179 172.595 208.142 172.595C208.106 172.595 208.069 172.595 208.032 172.595C207.996 172.595 207.959 172.595 207.922 172.595C207.885 172.595 207.848 172.595 207.812 172.595C207.775 172.595 207.738 172.595 207.701 172.595C207.664 172.595 207.627 172.595 207.59 172.595C207.553 172.595 207.515 172.595 207.478 172.595C207.441 172.595 207.404 172.595 207.367 172.595C207.329 172.595 207.292 172.595 207.255 172.595C207.217 172.595 207.18 172.595 207.143 172.595C207.105 172.595 207.068 172.595 207.03 172.595C206.993 172.595 206.955 172.595 206.917 172.595C206.88 172.595 206.842 172.595 206.805 172.595C206.767 172.595 206.729 172.595 206.691 172.595C206.654 172.595 206.616 172.595 206.578 172.595C206.54 172.595 206.502 172.595 206.464 172.595C206.426 172.595 206.388 172.595 206.35 172.595C206.312 172.595 206.274 172.595 206.236 172.595C206.198 172.595 206.16 172.595 206.121 172.595C206.083 172.595 206.045 172.595 206.007 172.595C205.968 172.595 205.93 172.595 205.892 172.595C205.853 172.595 205.815 172.595 205.776 172.595C205.738 172.595 205.699 172.595 205.661 172.595C205.622 172.595 205.584 172.595 205.545 172.595C205.506 172.595 205.468 172.595 205.429 172.595C205.39 172.595 205.352 172.595 205.313 172.595C205.274 172.595 205.235 172.595 205.196 172.595C205.157 172.595 205.118 172.595 205.079 172.595C205.04 172.595 205.001 172.595 204.962 172.595C204.923 172.595 204.884 172.595 204.845 172.595C204.806 172.595 204.767 172.595 204.727 172.595C204.688 172.595 204.649 172.595 204.61 172.595C204.57 172.595 204.531 172.595 204.492 172.595C204.452 172.595 204.413 172.595 204.373 172.595C204.334 172.595 204.294 172.595 204.255 172.595C204.215 172.595 204.176 172.595 204.136 172.595C204.096 172.595 204.057 172.595 204.017 172.595C203.977 172.595 203.938 172.595 203.898 172.595C203.858 172.595 203.818 172.595 203.778 172.595C203.738 172.595 203.699 172.595 203.659 172.595C203.619 172.595 203.579 172.595 203.539 172.595C203.499 172.595 203.458 172.595 203.418 172.595C203.378 172.595 203.338 172.595 203.298 172.595C203.258 172.595 203.217 172.595 203.177 172.595C203.137 172.595 203.097 172.595 203.056 172.595C203.016 172.595 202.975 172.595 202.935 172.595C202.895 172.595 202.854 172.595 202.814 172.595C202.773 172.595 202.733 172.595 202.692 172.595C202.651 172.595 202.611 172.595 202.57 172.595C202.529 172.595 202.489 172.595 202.448 172.595C202.407 172.595 202.366 172.595 202.326 172.595C202.285 172.595 202.244 172.595 202.203 172.595C202.162 172.595 202.121 172.595 202.08 172.595C202.039 172.595 201.998 172.595 201.957 172.595C201.916 172.595 201.875 172.595 201.834 172.595C201.793 172.595 201.751 172.595 201.71 172.595C201.669 172.595 201.628 172.595 201.586 172.595C201.545 172.595 201.504 172.595 201.462 172.595C201.421 172.595 201.38 172.595 201.338 172.595C201.297 172.595 201.255 172.595 201.214 172.595C201.172 172.595 201.131 172.595 201.089 172.595C201.048 172.595 201.006 172.595 200.964 172.595C200.923 172.595 200.881 172.595 200.839 172.595C200.797 172.595 200.756 172.595 200.714 172.595C200.672 172.595 200.63 172.595 200.588 172.595C200.546 172.595 200.504 172.595 200.462 172.595C200.42 172.595 200.378 172.595 200.336 172.595C200.294 172.595 200.252 172.595 200.21 172.595C200.168 172.595 200.126 172.595 200.084 172.595C200.041 172.595 199.999 172.595 199.957 172.595C199.915 172.595 199.872 172.595 199.83 172.595C199.788 172.595 199.745 172.595 199.703 172.595C199.661 172.595 199.618 172.595 199.576 172.595C199.533 172.595 199.491 172.595 199.448 172.595C199.405 172.595 199.363 172.595 199.32 172.595C199.278 172.595 199.235 172.595 199.192 172.595C199.15 172.595 199.107 172.595 199.064 172.595C199.021 172.595 198.978 172.595 198.936 172.595C198.893 172.595 198.85 172.595 198.807 172.595C198.764 172.595 198.721 172.595 198.678 172.595C198.635 172.595 198.592 172.595 198.549 172.595C198.506 172.595 198.463 172.595 198.42 172.595C198.377 172.595 198.334 172.595 198.29 172.595C198.247 172.595 198.204 172.595 198.161 172.595C198.117 172.595 198.074 172.595 198.031 172.595C197.987 172.595 197.944 172.595 197.901 172.595C197.857 172.595 197.814 172.595 197.77 172.595C197.727 172.595 197.683 172.595 197.64 172.595C197.596 172.595 197.553 172.595 197.509 172.595C197.465 172.595 197.422 172.595 197.378 172.595C197.334 172.595 197.291 172.595 197.247 172.595C197.203 172.595 197.159 172.595 197.116 172.595C197.072 172.595 197.028 172.595 196.984 172.595C196.94 172.595 196.896 172.595 196.852 172.595C196.808 172.595 196.764 172.595 196.72 172.595C196.676 172.595 196.632 172.595 196.588 172.595C196.544 172.595 196.5 172.595 196.456 172.595C196.412 172.595 196.367 172.595 196.323 172.595C196.279 172.595 196.235 172.595 196.19 172.595C196.146 172.595 196.102 172.595 196.057 172.595C196.013 172.595 195.969 172.595 195.924 172.595C195.88 172.595 195.835 172.595 195.791 172.595C195.746 172.595 195.702 172.595 195.657 172.595C195.613 172.595 195.568 172.595 195.523 172.595C195.479 172.595 195.434 172.595 195.39 172.595C195.345 172.595 195.3 172.595 195.255 172.595C195.211 172.595 195.166 172.595 195.121 172.595C195.076 172.595 195.031 172.595 194.987 172.595C194.942 172.595 194.897 172.595 194.852 172.595C194.807 172.595 194.762 172.595 194.717 172.595C194.672 172.595 194.627 172.595 194.582 172.595C194.537 172.595 194.492 172.595 194.446 172.595C194.401 172.595 194.356 172.595 194.311 172.595C194.266 172.595 194.221 172.595 194.175 172.595C194.13 172.595 194.085 172.595 194.039 172.595C193.994 172.595 193.949 172.595 193.903 172.595C193.858 172.595 193.813 172.595 193.767 172.595C193.722 172.595 193.676 172.595 193.631 172.595C193.585 172.595 193.54 172.595 193.494 172.595C193.448 172.595 193.403 172.595 193.357 172.595C193.312 172.595 193.266 172.595 193.22 172.595C193.175 172.595 193.129 172.595 193.083 172.595C193.037 172.595 192.992 172.595 192.946 172.595C192.9 172.595 192.854 172.595 192.808 172.595C192.762 172.595 192.716 172.595 192.67 172.595C192.625 172.595 192.579 172.595 192.533 172.595C192.487 172.595 192.441 172.595 192.395 172.595C192.348 172.595 192.302 172.595 192.256 172.595C192.21 172.595 192.164 172.595 192.118 172.595C192.072 172.595 192.025 172.595 191.979 172.595C191.933 172.595 191.887 172.595 191.84 172.595C191.794 172.595 191.748 172.595 191.701 172.595C191.655 172.595 191.609 172.595 191.562 172.595C191.516 172.595 191.47 172.595 191.423 172.595C191.377 172.595 191.33 172.595 191.284 172.595C191.237 172.595 191.19 172.595 191.144 172.595C191.097 172.595 191.051 172.595 191.004 172.595C190.957 172.595 190.911 172.595 190.864 172.595C190.817 172.595 190.771 172.595 190.724 172.595C190.677 172.595 190.63 172.595 190.584 172.595C190.537 172.595 190.49 172.595 190.443 172.595C190.396 172.595 190.349 172.595 190.302 172.595C190.255 172.595 190.209 172.595 190.162 172.595C190.115 172.595 190.068 172.595 190.021 172.595C189.973 172.595 189.926 172.595 189.879 172.595C189.832 172.595 189.785 172.595 189.738 172.595C189.691 172.595 189.644 172.595 189.596 172.595C189.549 172.595 189.502 172.595 189.455 172.595C189.408 172.595 189.36 172.595 189.313 172.595C189.266 172.595 189.218 172.595 189.171 172.595C189.124 172.595 189.076 172.595 189.029 172.595C188.981 172.595 188.934 172.595 188.886 172.595C188.839 172.595 188.791 172.595 188.744 172.595C188.696 172.595 188.649 172.595 188.601 172.595C188.554 172.595 188.506 172.595 188.459 172.595C188.411 172.595 188.363 172.595 188.316 172.595C188.268 172.595 188.22 172.595 188.172 172.595C188.125 172.595 188.077 172.595 188.029 172.595C187.981 172.595 187.934 172.595 187.886 172.595C187.838 172.595 187.79 172.595 187.742 172.595C187.694 172.595 187.646 172.595 187.598 172.595C187.55 172.595 187.502 172.595 187.454 172.595C187.406 172.595 187.358 172.595 187.31 172.595C187.262 172.595 187.214 172.595 187.166 172.595C187.118 172.595 187.07 172.595 187.022 172.595C186.974 172.595 186.926 172.595 186.877 172.595C186.829 172.595 186.781 172.595 186.733 172.595C186.684 172.595 186.636 172.595 186.588 172.595C186.54 172.595 186.491 172.595 186.443 172.595C186.395 172.595 186.346 172.595 186.298 172.595C186.249 172.595 186.201 172.595 186.153 172.595C186.104 172.595 186.056 172.595 186.007 172.595C185.959 172.595 185.91 172.595 185.862 172.595C185.813 172.595 185.764 172.595 185.716 172.595C185.667 172.595 185.619 172.595 185.57 172.595C185.521 172.595 185.473 172.595 185.424 172.595C185.375 172.595 185.327 172.595 185.278 172.595C185.229 172.595 185.18 172.595 185.132 172.595C185.083 172.595 185.034 172.595 184.985 172.595C184.936 172.595 184.888 172.595 184.839 172.595C184.79 172.595 184.741 172.595 184.692 172.595C184.643 172.595 184.594 172.595 184.545 172.595C184.496 172.595 184.447 172.595 184.398 172.595C184.349 172.595 184.3 172.595 184.251 172.595C184.202 172.595 184.153 172.595 184.104 172.595C184.055 172.595 184.006 172.595 183.956 172.595C183.907 172.595 183.858 172.595 183.809 172.595C183.76 172.595 183.71 172.595 183.661 172.595C183.612 172.595 183.563 172.595 183.513 172.595C183.464 172.595 183.415 172.595 183.366 172.595C183.316 172.595 183.267 172.595 183.217 172.595C183.168 172.595 183.119 172.595 183.069 172.595C183.02 172.595 182.97 172.595 182.921 172.595C182.871 172.595 182.822 172.595 182.773 172.595C182.723 172.595 182.673 172.595 182.624 172.595C182.574 172.595 182.525 172.595 182.475 172.595C182.426 172.595 182.376 172.595 182.326 172.595C182.277 172.595 182.227 172.595 182.177 172.595C182.128 172.595 182.078 172.595 182.028 172.595C181.979 172.595 181.929 172.595 181.879 172.595C181.829 172.595 181.78 172.595 181.73 172.595C181.68 172.595 181.63 172.595 181.58 172.595C181.53 172.595 181.481 172.595 181.431 172.595C181.381 172.595 181.331 172.595 181.281 172.595C181.231 172.595 181.181 172.595 181.131 172.595C181.081 172.595 181.031 172.595 180.981 172.595C180.931 172.595 180.881 172.595 180.831 172.595C180.781 172.595 180.731 172.595 180.681 172.595C180.631 172.595 180.581 172.595 180.53 172.595C180.48 172.595 180.43 172.595 180.38 172.595C180.33 172.595 180.28 172.595 180.229 172.595C180.179 172.595 180.129 172.595 180.079 172.595C180.028 172.595 179.978 172.595 179.928 172.595C179.878 172.595 179.827 172.595 179.777 172.595C179.727 172.595 179.676 172.595 179.626 172.595C179.576 172.595 179.525 172.595 179.475 172.595C179.424 172.595 179.374 172.595 179.323 172.595C179.273 172.595 179.223 172.595 179.172 172.595C179.122 172.595 179.071 172.595 179.021 172.595C178.97 172.595 178.92 172.595 178.869 172.595C178.818 172.595 178.768 172.595 178.717 172.595C178.667 172.595 178.616 172.595 178.565 172.595C178.515 172.595 178.464 172.595 178.414 172.595C178.363 172.595 178.312 172.595 178.261 172.595C178.211 172.595 178.16 172.595 178.109 172.595C178.059 172.595 178.008 172.595 177.957 172.595C177.906 172.595 177.855 172.595 177.805 172.595C177.754 172.595 177.703 172.595 177.652 172.595C177.601 172.595 177.55 172.595 177.5 172.595C177.449 172.595 177.398 172.595 177.347 172.595C177.296 172.595 177.245 172.595 177.194 172.595C177.143 172.595 177.092 172.595 177.041 172.595C176.99 172.595 176.939 172.595 176.888 172.595C176.837 172.595 176.786 172.595 176.735 172.595C176.684 172.595 176.633 172.595 176.582 172.595C176.531 172.595 176.48 172.595 176.429 172.595C176.377 172.595 176.326 172.595 176.275 172.595C176.224 172.595 176.173 172.595 176.122 172.595C176.07 172.595 176.019 172.595 175.968 172.595C175.917 172.595 175.866 172.595 175.814 172.595C175.763 172.595 175.712 172.595 175.661 172.595C175.609 172.595 175.558 172.595 175.507 172.595C175.455 172.595 175.404 172.595 175.353 172.595C175.301 172.595 175.25 172.595 175.199 172.595C175.147 172.595 175.096 172.595 175.044 172.595C174.993 172.595 174.942 172.595 174.89 172.595C174.839 172.595 174.787 172.595 174.736 172.595C174.684 172.595 174.633 172.595 174.581 172.595C174.53 172.595 174.478 172.595 174.427 172.595C174.375 172.595 174.324 172.595 174.272 172.595C174.22 172.595 174.169 172.595 174.117 172.595C174.066 172.595 174.014 172.595 173.962 172.595C173.911 172.595 173.859 172.595 173.808 172.595C173.756 172.595 173.704 172.595 173.653 172.595C173.601 172.595 173.549 172.595 173.497 172.595C173.446 172.595 173.394 172.595 173.342 172.595C173.291 172.595 173.239 172.595 173.187 172.595C173.135 172.595 173.083 172.595 173.032 172.595C172.98 172.595 172.928 172.595 172.876 172.595C172.824 172.595 172.773 172.595 172.721 172.595C172.669 172.595 172.617 172.595 172.565 172.595C172.513 172.595 172.461 172.595 172.409 172.595C172.358 172.595 172.306 172.595 172.254 172.595C172.202 172.595 172.15 172.595 172.098 172.595C172.046 172.595 171.994 172.595 171.942 172.595C171.89 172.595 171.838 172.595 171.786 172.595C171.734 172.595 171.682 172.595 171.63 172.595C171.578 172.595 171.526 172.595 171.474 172.595C171.422 172.595 171.37 172.595 171.318 172.595C171.265 172.595 171.213 172.595 171.161 172.595C171.109 172.595 171.057 172.595 171.005 172.595C170.953 172.595 170.901 172.595 170.848 172.595C170.796 172.595 170.744 172.595 170.692 172.595C170.64 172.595 170.587 172.595 170.535 172.595C170.483 172.595 170.431 172.595 170.379 172.595C170.326 172.595 170.274 172.595 170.222 172.595C170.17 172.595 170.117 172.595 170.065 172.595C170.013 172.595 169.96 172.595 169.908 172.595C169.856 172.595 169.804 172.595 169.751 172.595C169.699 172.595 169.647 172.595 169.594 172.595C169.542 172.595 169.489 172.595 169.437 172.595C169.385 172.595 169.332 172.595 169.28 172.595C169.227 172.595 169.175 172.595 169.123 172.595C169.07 172.595 169.018 172.595 168.965 172.595C168.913 172.595 168.86 172.595 168.808 172.595C168.756 172.595 168.703 172.595 168.651 172.595C168.598 172.595 168.546 172.595 168.493 172.595C168.441 172.595 168.388 172.595 168.336 172.595C168.283 172.595 168.23 172.595 168.178 172.595C168.125 172.595 168.073 172.595 168.02 172.595C167.968 172.595 167.915 172.595 167.863 172.595C167.81 172.595 167.757 172.595 167.705 172.595C167.652 172.595 167.599 172.595 167.547 172.595C167.494 172.595 167.442 172.595 167.389 172.595C167.336 172.595 167.284 172.595 167.231 172.595C167.178 172.595 167.126 172.595 167.073 172.595C167.02 172.595 166.968 172.595 166.915 172.595C166.862 172.595 166.809 172.595 166.757 172.595C166.704 172.595 166.651 172.595 166.599 172.595C166.546 172.595 166.493 172.595 166.44 172.595C166.387 172.595 166.335 172.595 166.282 172.595C166.229 172.595 166.176 172.595 166.124 172.595C166.071 172.595 166.018 172.595 165.965 172.595C165.912 172.595 165.86 172.595 165.807 172.595C165.754 172.595 165.701 172.595 165.648 172.595C165.595 172.595 165.542 172.595 165.49 172.595C165.437 172.595 165.384 172.595 165.331 172.595C165.278 172.595 165.225 172.595 165.172 172.595C165.119 172.595 165.067 172.595 165.014 172.595C164.961 172.595 164.908 172.595 164.855 172.595C164.802 172.595 164.749 172.595 164.696 172.595C164.643 172.595 164.59 172.595 164.537 172.595C164.484 172.595 164.431 172.595 164.378 172.595C164.325 172.595 164.272 172.595 164.219 172.595C164.166 172.595 164.113 172.595 164.06 172.595C164.007 172.595 163.954 172.595 163.901 172.595C163.848 172.595 163.795 172.595 163.742 172.595C163.689 172.595 163.636 172.595 163.583 172.595C163.53 172.595 163.477 172.595 163.424 172.595C163.371 172.595 163.318 172.595 163.265 172.595C163.212 172.595 163.159 172.595 163.106 172.595C163.053 172.595 162.999 172.595 162.946 172.595C162.893 172.595 162.84 172.595 162.787 172.595C162.734 172.595 162.681 172.595 162.628 172.595C162.575 172.595 162.521 172.595 162.468 172.595C162.415 172.595 162.362 172.595 162.309 172.595C162.256 172.595 162.203 172.595 162.149 172.595C162.096 172.595 162.043 172.595 161.99 172.595C161.937 172.595 161.884 172.595 161.83 172.595C161.777 172.595 161.724 172.595 161.671 172.595C161.618 172.595 161.565 172.595 161.511 172.595C161.458 172.595 161.405 172.595 161.352 172.595C161.298 172.595 161.245 172.595 161.192 172.595C161.139 172.595 161.086 172.595 161.032 172.595C160.979 172.595 160.926 172.595 160.873 172.595C160.819 172.595 160.766 172.595 160.713 172.595C160.66 172.595 160.606 172.595 160.553 172.595C160.5 172.595 160.447 172.595 160.393 172.595C160.34 172.595 160.287 172.595 160.234 172.595C160.18 172.595 160.127 172.595 160.074 172.595C160.02 172.595 159.967 172.595 159.914 172.595C159.861 172.595 159.807 172.595 159.754 172.595C159.701 172.595 159.647 172.595 159.594 172.595C159.541 172.595 159.487 172.595 159.434 172.595C159.381 172.595 159.327 172.595 159.274 172.595C159.221 172.595 159.168 172.595 159.114 172.595C159.061 172.595 159.008 172.595 158.954 172.595C158.901 172.595 158.848 172.595 158.794 172.595C158.741 172.595 158.687 172.595 158.634 172.595C158.581 172.595 158.527 172.595 158.474 172.595C158.421 172.595 158.367 172.595 158.314 172.595C158.261 172.595 158.207 172.595 158.154 172.595C158.101 172.595 158.047 172.595 157.994 172.595C157.94 172.595 157.887 172.595 157.834 172.595C157.78 172.595 157.727 172.595 157.674 172.595C157.62 172.595 157.567 172.595 157.513 172.595C157.46 172.595 157.407 172.595 157.353 172.595C157.3 172.595 157.246 172.595 157.193 172.595C157.14 172.595 157.086 172.595 157.033 172.595C156.979 172.595 156.926 172.595 156.873 172.595C156.819 172.595 156.766 172.595 156.712 172.595C156.659 172.595 156.606 172.595 156.552 172.595C156.499 172.595 156.445 172.595 156.392 172.595C156.339 172.595 156.285 172.595 156.232 172.595C156.178 172.595 156.125 172.595 156.072 172.595C156.018 172.595 155.965 172.595 155.911 172.595C155.858 172.595 155.804 172.595 155.751 172.595C155.698 172.595 155.644 172.595 155.591 172.595C155.537 172.595 155.484 172.595 155.43 172.595C155.377 172.595 155.324 172.595 155.27 172.595C155.217 172.595 155.163 172.595 155.11 172.595C155.057 172.595 155.003 172.595 154.95 172.595C154.896 172.595 154.843 172.595 154.789 172.595C154.736 172.595 154.683 172.595 154.629 172.595C154.576 172.595 154.522 172.595 154.469 172.595C154.415 172.595 154.362 172.595 154.309 172.595C154.255 172.595 154.202 172.595 154.148 172.595C154.095 172.595 154.041 172.595 153.988 172.595C153.935 172.595 153.881 172.595 153.828 172.595C153.774 172.595 153.721 172.595 153.667 172.595C153.614 172.595 153.561 172.595 153.507 172.595C153.454 172.595 153.4 172.595 153.347 172.595C153.294 172.595 153.24 172.595 153.187 172.595C153.133 172.595 153.08 172.595 153.026 172.595C152.973 172.595 152.92 172.595 152.866 172.595C152.813 172.595 152.759 172.595 152.706 172.595C152.653 172.595 152.599 172.595 152.546 172.595C152.492 172.595 152.439 172.595 152.385 172.595C152.332 172.595 152.279 172.595 152.225 172.595C152.172 172.595 152.118 172.595 152.065 172.595C152.012 172.595 151.958 172.595 151.905 172.595C151.852 172.595 151.798 172.595 151.745 172.595C151.691 172.595 151.638 172.595 151.585 172.595C151.531 172.595 151.478 172.595 151.424 172.595C151.371 172.595 151.318 172.595 151.264 172.595C151.211 172.595 151.158 172.595 151.104 172.595C151.051 172.595 150.997 172.595 150.944 172.595C150.891 172.595 150.837 172.595 150.784 172.595C150.731 172.595 150.677 172.595 150.624 172.595C150.571 172.595 150.517 172.595 150.464 172.595C150.411 172.595 150.357 172.595 150.304 172.595C150.25 172.595 150.197 172.595 150.144 172.595C150.09 172.595 150.037 172.595 149.984 172.595C149.93 172.595 149.877 172.595 149.824 172.595C149.771 172.595 149.717 172.595 149.664 172.595C149.611 172.595 149.557 172.595 149.504 172.595C149.451 172.595 149.397 172.595 149.344 172.595C149.291 172.595 149.237 172.595 149.184 172.595C149.131 172.595 149.078 172.595 149.024 172.595C148.971 172.595 148.918 172.595 148.864 172.595C148.811 172.595 148.758 172.595 148.705 172.595C148.651 172.595 148.598 172.595 148.545 172.595C148.492 172.595 148.438 172.595 148.385 172.595C148.332 172.595 148.279 172.595 148.225 172.595C148.172 172.595 148.119 172.595 148.066 172.595C148.013 172.595 147.959 172.595 147.906 172.595C147.853 172.595 147.8 172.595 147.746 172.595C147.693 172.595 147.64 172.595 147.587 172.595C147.534 172.595 147.48 172.595 147.427 172.595C147.374 172.595 147.321 172.595 147.268 172.595C147.215 172.595 147.161 172.595 147.108 172.595C147.055 172.595 147.002 172.595 146.949 172.595C146.896 172.595 146.842 172.595 146.789 172.595C146.736 172.595 146.683 172.595 146.63 172.595C146.577 172.595 146.524 172.595 146.47 172.595C146.417 172.595 146.364 172.595 146.311 172.595C146.258 172.595 146.205 172.595 146.152 172.595C146.099 172.595 146.046 172.595 145.993 172.595C145.94 172.595 145.886 172.595 145.833 172.595C145.78 172.595 145.727 172.595 145.674 172.595C145.621 172.595 145.568 172.595 145.515 172.595C145.462 172.595 145.409 172.595 145.356 172.595C145.303 172.595 145.25 172.595 145.197 172.595C145.144 172.595 145.091 172.595 145.038 172.595C144.985 172.595 144.932 172.595 144.879 172.595C144.826 172.595 144.773 172.595 144.72 172.595C144.667 172.595 144.614 172.595 144.561 172.595C144.508 172.595 144.455 172.595 144.402 172.595C144.349 172.595 144.296 172.595 144.243 172.595C144.191 172.595 144.138 172.595 144.085 172.595C144.032 172.595 143.979 172.595 143.926 172.595C143.873 172.595 143.82 172.595 143.767 172.595C143.715 172.595 143.662 172.595 143.609 172.595C143.556 172.595 143.503 172.595 143.45 172.595C143.397 172.595 143.345 172.595 143.292 172.595C143.239 172.595 143.186 172.595 143.133 172.595C143.08 172.595 143.028 172.595 142.975 172.595C142.922 172.595 142.869 172.595 142.817 172.595C142.764 172.595 142.711 172.595 142.658 172.595C142.605 172.595 142.553 172.595 142.5 172.595V174.595C142.553 174.595 142.605 174.595 142.658 174.595C142.711 174.595 142.764 174.595 142.817 174.595C142.869 174.595 142.922 174.595 142.975 174.595C143.028 174.595 143.08 174.595 143.133 174.595C143.186 174.595 143.239 174.595 143.292 174.595C143.345 174.595 143.397 174.595 143.45 174.595C143.503 174.595 143.556 174.595 143.609 174.595C143.662 174.595 143.715 174.595 143.767 174.595C143.82 174.595 143.873 174.595 143.926 174.595C143.979 174.595 144.032 174.595 144.085 174.595C144.138 174.595 144.191 174.595 144.243 174.595C144.296 174.595 144.349 174.595 144.402 174.595C144.455 174.595 144.508 174.595 144.561 174.595C144.614 174.595 144.667 174.595 144.72 174.595C144.773 174.595 144.826 174.595 144.879 174.595C144.932 174.595 144.985 174.595 145.038 174.595C145.091 174.595 145.144 174.595 145.197 174.595C145.25 174.595 145.303 174.595 145.356 174.595C145.409 174.595 145.462 174.595 145.515 174.595C145.568 174.595 145.621 174.595 145.674 174.595C145.727 174.595 145.78 174.595 145.833 174.595C145.886 174.595 145.94 174.595 145.993 174.595C146.046 174.595 146.099 174.595 146.152 174.595C146.205 174.595 146.258 174.595 146.311 174.595C146.364 174.595 146.417 174.595 146.47 174.595C146.524 174.595 146.577 174.595 146.63 174.595C146.683 174.595 146.736 174.595 146.789 174.595C146.842 174.595 146.896 174.595 146.949 174.595C147.002 174.595 147.055 174.595 147.108 174.595C147.161 174.595 147.215 174.595 147.268 174.595C147.321 174.595 147.374 174.595 147.427 174.595C147.48 174.595 147.534 174.595 147.587 174.595C147.64 174.595 147.693 174.595 147.746 174.595C147.8 174.595 147.853 174.595 147.906 174.595C147.959 174.595 148.013 174.595 148.066 174.595C148.119 174.595 148.172 174.595 148.225 174.595C148.279 174.595 148.332 174.595 148.385 174.595C148.438 174.595 148.492 174.595 148.545 174.595C148.598 174.595 148.651 174.595 148.705 174.595C148.758 174.595 148.811 174.595 148.864 174.595C148.918 174.595 148.971 174.595 149.024 174.595C149.078 174.595 149.131 174.595 149.184 174.595C149.237 174.595 149.291 174.595 149.344 174.595C149.397 174.595 149.451 174.595 149.504 174.595C149.557 174.595 149.611 174.595 149.664 174.595C149.717 174.595 149.771 174.595 149.824 174.595C149.877 174.595 149.93 174.595 149.984 174.595C150.037 174.595 150.09 174.595 150.144 174.595C150.197 174.595 150.25 174.595 150.304 174.595C150.357 174.595 150.411 174.595 150.464 174.595C150.517 174.595 150.571 174.595 150.624 174.595C150.677 174.595 150.731 174.595 150.784 174.595C150.837 174.595 150.891 174.595 150.944 174.595C150.997 174.595 151.051 174.595 151.104 174.595C151.158 174.595 151.211 174.595 151.264 174.595C151.318 174.595 151.371 174.595 151.424 174.595C151.478 174.595 151.531 174.595 151.585 174.595C151.638 174.595 151.691 174.595 151.745 174.595C151.798 174.595 151.852 174.595 151.905 174.595C151.958 174.595 152.012 174.595 152.065 174.595C152.118 174.595 152.172 174.595 152.225 174.595C152.279 174.595 152.332 174.595 152.385 174.595C152.439 174.595 152.492 174.595 152.546 174.595C152.599 174.595 152.653 174.595 152.706 174.595C152.759 174.595 152.813 174.595 152.866 174.595C152.92 174.595 152.973 174.595 153.026 174.595C153.08 174.595 153.133 174.595 153.187 174.595C153.24 174.595 153.294 174.595 153.347 174.595C153.4 174.595 153.454 174.595 153.507 174.595C153.561 174.595 153.614 174.595 153.667 174.595C153.721 174.595 153.774 174.595 153.828 174.595C153.881 174.595 153.935 174.595 153.988 174.595C154.041 174.595 154.095 174.595 154.148 174.595C154.202 174.595 154.255 174.595 154.309 174.595C154.362 174.595 154.415 174.595 154.469 174.595C154.522 174.595 154.576 174.595 154.629 174.595C154.683 174.595 154.736 174.595 154.789 174.595C154.843 174.595 154.896 174.595 154.95 174.595C155.003 174.595 155.057 174.595 155.11 174.595C155.163 174.595 155.217 174.595 155.27 174.595C155.324 174.595 155.377 174.595 155.43 174.595C155.484 174.595 155.537 174.595 155.591 174.595C155.644 174.595 155.698 174.595 155.751 174.595C155.804 174.595 155.858 174.595 155.911 174.595C155.965 174.595 156.018 174.595 156.072 174.595C156.125 174.595 156.178 174.595 156.232 174.595C156.285 174.595 156.339 174.595 156.392 174.595C156.445 174.595 156.499 174.595 156.552 174.595C156.606 174.595 156.659 174.595 156.712 174.595C156.766 174.595 156.819 174.595 156.873 174.595C156.926 174.595 156.979 174.595 157.033 174.595C157.086 174.595 157.14 174.595 157.193 174.595C157.246 174.595 157.3 174.595 157.353 174.595C157.407 174.595 157.46 174.595 157.513 174.595C157.567 174.595 157.62 174.595 157.674 174.595C157.727 174.595 157.78 174.595 157.834 174.595C157.887 174.595 157.94 174.595 157.994 174.595C158.047 174.595 158.101 174.595 158.154 174.595C158.207 174.595 158.261 174.595 158.314 174.595C158.367 174.595 158.421 174.595 158.474 174.595C158.527 174.595 158.581 174.595 158.634 174.595C158.687 174.595 158.741 174.595 158.794 174.595C158.848 174.595 158.901 174.595 158.954 174.595C159.008 174.595 159.061 174.595 159.114 174.595C159.168 174.595 159.221 174.595 159.274 174.595C159.327 174.595 159.381 174.595 159.434 174.595C159.487 174.595 159.541 174.595 159.594 174.595C159.647 174.595 159.701 174.595 159.754 174.595C159.807 174.595 159.861 174.595 159.914 174.595C159.967 174.595 160.02 174.595 160.074 174.595C160.127 174.595 160.18 174.595 160.234 174.595C160.287 174.595 160.34 174.595 160.393 174.595C160.447 174.595 160.5 174.595 160.553 174.595C160.606 174.595 160.66 174.595 160.713 174.595C160.766 174.595 160.819 174.595 160.873 174.595C160.926 174.595 160.979 174.595 161.032 174.595C161.086 174.595 161.139 174.595 161.192 174.595C161.245 174.595 161.298 174.595 161.352 174.595C161.405 174.595 161.458 174.595 161.511 174.595C161.565 174.595 161.618 174.595 161.671 174.595C161.724 174.595 161.777 174.595 161.83 174.595C161.884 174.595 161.937 174.595 161.99 174.595C162.043 174.595 162.096 174.595 162.149 174.595C162.203 174.595 162.256 174.595 162.309 174.595C162.362 174.595 162.415 174.595 162.468 174.595C162.521 174.595 162.575 174.595 162.628 174.595C162.681 174.595 162.734 174.595 162.787 174.595C162.84 174.595 162.893 174.595 162.946 174.595C162.999 174.595 163.053 174.595 163.106 174.595C163.159 174.595 163.212 174.595 163.265 174.595C163.318 174.595 163.371 174.595 163.424 174.595C163.477 174.595 163.53 174.595 163.583 174.595C163.636 174.595 163.689 174.595 163.742 174.595C163.795 174.595 163.848 174.595 163.901 174.595C163.954 174.595 164.007 174.595 164.06 174.595C164.113 174.595 164.166 174.595 164.219 174.595C164.272 174.595 164.325 174.595 164.378 174.595C164.431 174.595 164.484 174.595 164.537 174.595C164.59 174.595 164.643 174.595 164.696 174.595C164.749 174.595 164.802 174.595 164.855 174.595C164.908 174.595 164.961 174.595 165.014 174.595C165.067 174.595 165.119 174.595 165.172 174.595C165.225 174.595 165.278 174.595 165.331 174.595C165.384 174.595 165.437 174.595 165.49 174.595C165.542 174.595 165.595 174.595 165.648 174.595C165.701 174.595 165.754 174.595 165.807 174.595C165.86 174.595 165.912 174.595 165.965 174.595C166.018 174.595 166.071 174.595 166.124 174.595C166.176 174.595 166.229 174.595 166.282 174.595C166.335 174.595 166.387 174.595 166.44 174.595C166.493 174.595 166.546 174.595 166.599 174.595C166.651 174.595 166.704 174.595 166.757 174.595C166.809 174.595 166.862 174.595 166.915 174.595C166.968 174.595 167.02 174.595 167.073 174.595C167.126 174.595 167.178 174.595 167.231 174.595C167.284 174.595 167.336 174.595 167.389 174.595C167.442 174.595 167.494 174.595 167.547 174.595C167.599 174.595 167.652 174.595 167.705 174.595C167.757 174.595 167.81 174.595 167.863 174.595C167.915 174.595 167.968 174.595 168.02 174.595C168.073 174.595 168.125 174.595 168.178 174.595C168.23 174.595 168.283 174.595 168.336 174.595C168.388 174.595 168.441 174.595 168.493 174.595C168.546 174.595 168.598 174.595 168.651 174.595C168.703 174.595 168.756 174.595 168.808 174.595C168.86 174.595 168.913 174.595 168.965 174.595C169.018 174.595 169.07 174.595 169.123 174.595C169.175 174.595 169.227 174.595 169.28 174.595C169.332 174.595 169.385 174.595 169.437 174.595C169.489 174.595 169.542 174.595 169.594 174.595C169.647 174.595 169.699 174.595 169.751 174.595C169.804 174.595 169.856 174.595 169.908 174.595C169.96 174.595 170.013 174.595 170.065 174.595C170.117 174.595 170.17 174.595 170.222 174.595C170.274 174.595 170.326 174.595 170.379 174.595C170.431 174.595 170.483 174.595 170.535 174.595C170.587 174.595 170.64 174.595 170.692 174.595C170.744 174.595 170.796 174.595 170.848 174.595C170.901 174.595 170.953 174.595 171.005 174.595C171.057 174.595 171.109 174.595 171.161 174.595C171.213 174.595 171.265 174.595 171.318 174.595C171.37 174.595 171.422 174.595 171.474 174.595C171.526 174.595 171.578 174.595 171.63 174.595C171.682 174.595 171.734 174.595 171.786 174.595C171.838 174.595 171.89 174.595 171.942 174.595C171.994 174.595 172.046 174.595 172.098 174.595C172.15 174.595 172.202 174.595 172.254 174.595C172.306 174.595 172.358 174.595 172.409 174.595C172.461 174.595 172.513 174.595 172.565 174.595C172.617 174.595 172.669 174.595 172.721 174.595C172.773 174.595 172.824 174.595 172.876 174.595C172.928 174.595 172.98 174.595 173.032 174.595C173.083 174.595 173.135 174.595 173.187 174.595C173.239 174.595 173.291 174.595 173.342 174.595C173.394 174.595 173.446 174.595 173.497 174.595C173.549 174.595 173.601 174.595 173.653 174.595C173.704 174.595 173.756 174.595 173.808 174.595C173.859 174.595 173.911 174.595 173.962 174.595C174.014 174.595 174.066 174.595 174.117 174.595C174.169 174.595 174.22 174.595 174.272 174.595C174.324 174.595 174.375 174.595 174.427 174.595C174.478 174.595 174.53 174.595 174.581 174.595C174.633 174.595 174.684 174.595 174.736 174.595C174.787 174.595 174.839 174.595 174.89 174.595C174.942 174.595 174.993 174.595 175.044 174.595C175.096 174.595 175.147 174.595 175.199 174.595C175.25 174.595 175.301 174.595 175.353 174.595C175.404 174.595 175.455 174.595 175.507 174.595C175.558 174.595 175.609 174.595 175.661 174.595C175.712 174.595 175.763 174.595 175.814 174.595C175.866 174.595 175.917 174.595 175.968 174.595C176.019 174.595 176.07 174.595 176.122 174.595C176.173 174.595 176.224 174.595 176.275 174.595C176.326 174.595 176.377 174.595 176.429 174.595C176.48 174.595 176.531 174.595 176.582 174.595C176.633 174.595 176.684 174.595 176.735 174.595C176.786 174.595 176.837 174.595 176.888 174.595C176.939 174.595 176.99 174.595 177.041 174.595C177.092 174.595 177.143 174.595 177.194 174.595C177.245 174.595 177.296 174.595 177.347 174.595C177.398 174.595 177.449 174.595 177.5 174.595C177.55 174.595 177.601 174.595 177.652 174.595C177.703 174.595 177.754 174.595 177.805 174.595C177.855 174.595 177.906 174.595 177.957 174.595C178.008 174.595 178.059 174.595 178.109 174.595C178.16 174.595 178.211 174.595 178.261 174.595C178.312 174.595 178.363 174.595 178.414 174.595C178.464 174.595 178.515 174.595 178.565 174.595C178.616 174.595 178.667 174.595 178.717 174.595C178.768 174.595 178.818 174.595 178.869 174.595C178.92 174.595 178.97 174.595 179.021 174.595C179.071 174.595 179.122 174.595 179.172 174.595C179.223 174.595 179.273 174.595 179.323 174.595C179.374 174.595 179.424 174.595 179.475 174.595C179.525 174.595 179.576 174.595 179.626 174.595C179.676 174.595 179.727 174.595 179.777 174.595C179.827 174.595 179.878 174.595 179.928 174.595C179.978 174.595 180.028 174.595 180.079 174.595C180.129 174.595 180.179 174.595 180.229 174.595C180.28 174.595 180.33 174.595 180.38 174.595C180.43 174.595 180.48 174.595 180.53 174.595C180.581 174.595 180.631 174.595 180.681 174.595C180.731 174.595 180.781 174.595 180.831 174.595C180.881 174.595 180.931 174.595 180.981 174.595C181.031 174.595 181.081 174.595 181.131 174.595C181.181 174.595 181.231 174.595 181.281 174.595C181.331 174.595 181.381 174.595 181.431 174.595C181.481 174.595 181.53 174.595 181.58 174.595C181.63 174.595 181.68 174.595 181.73 174.595C181.78 174.595 181.829 174.595 181.879 174.595C181.929 174.595 181.979 174.595 182.028 174.595C182.078 174.595 182.128 174.595 182.177 174.595C182.227 174.595 182.277 174.595 182.326 174.595C182.376 174.595 182.426 174.595 182.475 174.595C182.525 174.595 182.574 174.595 182.624 174.595C182.673 174.595 182.723 174.595 182.773 174.595C182.822 174.595 182.871 174.595 182.921 174.595C182.97 174.595 183.02 174.595 183.069 174.595C183.119 174.595 183.168 174.595 183.217 174.595C183.267 174.595 183.316 174.595 183.366 174.595C183.415 174.595 183.464 174.595 183.513 174.595C183.563 174.595 183.612 174.595 183.661 174.595C183.71 174.595 183.76 174.595 183.809 174.595C183.858 174.595 183.907 174.595 183.956 174.595C184.006 174.595 184.055 174.595 184.104 174.595C184.153 174.595 184.202 174.595 184.251 174.595C184.3 174.595 184.349 174.595 184.398 174.595C184.447 174.595 184.496 174.595 184.545 174.595C184.594 174.595 184.643 174.595 184.692 174.595C184.741 174.595 184.79 174.595 184.839 174.595C184.888 174.595 184.936 174.595 184.985 174.595C185.034 174.595 185.083 174.595 185.132 174.595C185.18 174.595 185.229 174.595 185.278 174.595C185.327 174.595 185.375 174.595 185.424 174.595C185.473 174.595 185.521 174.595 185.57 174.595C185.619 174.595 185.667 174.595 185.716 174.595C185.764 174.595 185.813 174.595 185.862 174.595C185.91 174.595 185.959 174.595 186.007 174.595C186.056 174.595 186.104 174.595 186.153 174.595C186.201 174.595 186.249 174.595 186.298 174.595C186.346 174.595 186.395 174.595 186.443 174.595C186.491 174.595 186.54 174.595 186.588 174.595C186.636 174.595 186.684 174.595 186.733 174.595C186.781 174.595 186.829 174.595 186.877 174.595C186.926 174.595 186.974 174.595 187.022 174.595C187.07 174.595 187.118 174.595 187.166 174.595C187.214 174.595 187.262 174.595 187.31 174.595C187.358 174.595 187.406 174.595 187.454 174.595C187.502 174.595 187.55 174.595 187.598 174.595C187.646 174.595 187.694 174.595 187.742 174.595C187.79 174.595 187.838 174.595 187.886 174.595C187.934 174.595 187.981 174.595 188.029 174.595C188.077 174.595 188.125 174.595 188.172 174.595C188.22 174.595 188.268 174.595 188.316 174.595C188.363 174.595 188.411 174.595 188.459 174.595C188.506 174.595 188.554 174.595 188.601 174.595C188.649 174.595 188.696 174.595 188.744 174.595C188.791 174.595 188.839 174.595 188.886 174.595C188.934 174.595 188.981 174.595 189.029 174.595C189.076 174.595 189.124 174.595 189.171 174.595C189.218 174.595 189.266 174.595 189.313 174.595C189.36 174.595 189.408 174.595 189.455 174.595C189.502 174.595 189.549 174.595 189.596 174.595C189.644 174.595 189.691 174.595 189.738 174.595C189.785 174.595 189.832 174.595 189.879 174.595C189.926 174.595 189.973 174.595 190.021 174.595C190.068 174.595 190.115 174.595 190.162 174.595C190.209 174.595 190.255 174.595 190.302 174.595C190.349 174.595 190.396 174.595 190.443 174.595C190.49 174.595 190.537 174.595 190.584 174.595C190.63 174.595 190.677 174.595 190.724 174.595C190.771 174.595 190.817 174.595 190.864 174.595C190.911 174.595 190.957 174.595 191.004 174.595C191.051 174.595 191.097 174.595 191.144 174.595C191.19 174.595 191.237 174.595 191.284 174.595C191.33 174.595 191.377 174.595 191.423 174.595C191.47 174.595 191.516 174.595 191.562 174.595C191.609 174.595 191.655 174.595 191.701 174.595C191.748 174.595 191.794 174.595 191.84 174.595C191.887 174.595 191.933 174.595 191.979 174.595C192.025 174.595 192.072 174.595 192.118 174.595C192.164 174.595 192.21 174.595 192.256 174.595C192.302 174.595 192.348 174.595 192.395 174.595C192.441 174.595 192.487 174.595 192.533 174.595C192.579 174.595 192.625 174.595 192.67 174.595C192.716 174.595 192.762 174.595 192.808 174.595C192.854 174.595 192.9 174.595 192.946 174.595C192.992 174.595 193.037 174.595 193.083 174.595C193.129 174.595 193.175 174.595 193.22 174.595C193.266 174.595 193.312 174.595 193.357 174.595C193.403 174.595 193.448 174.595 193.494 174.595C193.54 174.595 193.585 174.595 193.631 174.595C193.676 174.595 193.722 174.595 193.767 174.595C193.813 174.595 193.858 174.595 193.903 174.595C193.949 174.595 193.994 174.595 194.039 174.595C194.085 174.595 194.13 174.595 194.175 174.595C194.221 174.595 194.266 174.595 194.311 174.595C194.356 174.595 194.401 174.595 194.446 174.595C194.492 174.595 194.537 174.595 194.582 174.595C194.627 174.595 194.672 174.595 194.717 174.595C194.762 174.595 194.807 174.595 194.852 174.595C194.897 174.595 194.942 174.595 194.987 174.595C195.031 174.595 195.076 174.595 195.121 174.595C195.166 174.595 195.211 174.595 195.255 174.595C195.3 174.595 195.345 174.595 195.39 174.595C195.434 174.595 195.479 174.595 195.523 174.595C195.568 174.595 195.613 174.595 195.657 174.595C195.702 174.595 195.746 174.595 195.791 174.595C195.835 174.595 195.88 174.595 195.924 174.595C195.969 174.595 196.013 174.595 196.057 174.595C196.102 174.595 196.146 174.595 196.19 174.595C196.235 174.595 196.279 174.595 196.323 174.595C196.367 174.595 196.412 174.595 196.456 174.595C196.5 174.595 196.544 174.595 196.588 174.595C196.632 174.595 196.676 174.595 196.72 174.595C196.764 174.595 196.808 174.595 196.852 174.595C196.896 174.595 196.94 174.595 196.984 174.595C197.028 174.595 197.072 174.595 197.116 174.595C197.159 174.595 197.203 174.595 197.247 174.595C197.291 174.595 197.334 174.595 197.378 174.595C197.422 174.595 197.465 174.595 197.509 174.595C197.553 174.595 197.596 174.595 197.64 174.595C197.683 174.595 197.727 174.595 197.77 174.595C197.814 174.595 197.857 174.595 197.901 174.595C197.944 174.595 197.987 174.595 198.031 174.595C198.074 174.595 198.117 174.595 198.161 174.595C198.204 174.595 198.247 174.595 198.29 174.595C198.334 174.595 198.377 174.595 198.42 174.595C198.463 174.595 198.506 174.595 198.549 174.595C198.592 174.595 198.635 174.595 198.678 174.595C198.721 174.595 198.764 174.595 198.807 174.595C198.85 174.595 198.893 174.595 198.936 174.595C198.978 174.595 199.021 174.595 199.064 174.595C199.107 174.595 199.15 174.595 199.192 174.595C199.235 174.595 199.278 174.595 199.32 174.595C199.363 174.595 199.405 174.595 199.448 174.595C199.491 174.595 199.533 174.595 199.576 174.595C199.618 174.595 199.661 174.595 199.703 174.595C199.745 174.595 199.788 174.595 199.83 174.595C199.872 174.595 199.915 174.595 199.957 174.595C199.999 174.595 200.041 174.595 200.084 174.595C200.126 174.595 200.168 174.595 200.21 174.595C200.252 174.595 200.294 174.595 200.336 174.595C200.378 174.595 200.42 174.595 200.462 174.595C200.504 174.595 200.546 174.595 200.588 174.595C200.63 174.595 200.672 174.595 200.714 174.595C200.756 174.595 200.797 174.595 200.839 174.595C200.881 174.595 200.923 174.595 200.964 174.595C201.006 174.595 201.048 174.595 201.089 174.595C201.131 174.595 201.172 174.595 201.214 174.595C201.255 174.595 201.297 174.595 201.338 174.595C201.38 174.595 201.421 174.595 201.462 174.595C201.504 174.595 201.545 174.595 201.586 174.595C201.628 174.595 201.669 174.595 201.71 174.595C201.751 174.595 201.793 174.595 201.834 174.595C201.875 174.595 201.916 174.595 201.957 174.595C201.998 174.595 202.039 174.595 202.08 174.595C202.121 174.595 202.162 174.595 202.203 174.595C202.244 174.595 202.285 174.595 202.326 174.595C202.366 174.595 202.407 174.595 202.448 174.595C202.489 174.595 202.529 174.595 202.57 174.595C202.611 174.595 202.651 174.595 202.692 174.595C202.733 174.595 202.773 174.595 202.814 174.595C202.854 174.595 202.895 174.595 202.935 174.595C202.975 174.595 203.016 174.595 203.056 174.595C203.097 174.595 203.137 174.595 203.177 174.595C203.217 174.595 203.258 174.595 203.298 174.595C203.338 174.595 203.378 174.595 203.418 174.595C203.458 174.595 203.499 174.595 203.539 174.595C203.579 174.595 203.619 174.595 203.659 174.595C203.699 174.595 203.738 174.595 203.778 174.595C203.818 174.595 203.858 174.595 203.898 174.595C203.938 174.595 203.977 174.595 204.017 174.595C204.057 174.595 204.096 174.595 204.136 174.595C204.176 174.595 204.215 174.595 204.255 174.595C204.294 174.595 204.334 174.595 204.373 174.595C204.413 174.595 204.452 174.595 204.492 174.595C204.531 174.595 204.57 174.595 204.61 174.595C204.649 174.595 204.688 174.595 204.727 174.595C204.767 174.595 204.806 174.595 204.845 174.595C204.884 174.595 204.923 174.595 204.962 174.595C205.001 174.595 205.04 174.595 205.079 174.595C205.118 174.595 205.157 174.595 205.196 174.595C205.235 174.595 205.274 174.595 205.313 174.595C205.352 174.595 205.39 174.595 205.429 174.595C205.468 174.595 205.506 174.595 205.545 174.595C205.584 174.595 205.622 174.595 205.661 174.595C205.699 174.595 205.738 174.595 205.776 174.595C205.815 174.595 205.853 174.595 205.892 174.595C205.93 174.595 205.968 174.595 206.007 174.595C206.045 174.595 206.083 174.595 206.121 174.595C206.16 174.595 206.198 174.595 206.236 174.595C206.274 174.595 206.312 174.595 206.35 174.595C206.388 174.595 206.426 174.595 206.464 174.595C206.502 174.595 206.54 174.595 206.578 174.595C206.616 174.595 206.654 174.595 206.691 174.595C206.729 174.595 206.767 174.595 206.805 174.595C206.842 174.595 206.88 174.595 206.917 174.595C206.955 174.595 206.993 174.595 207.03 174.595C207.068 174.595 207.105 174.595 207.143 174.595C207.18 174.595 207.217 174.595 207.255 174.595C207.292 174.595 207.329 174.595 207.367 174.595C207.404 174.595 207.441 174.595 207.478 174.595C207.515 174.595 207.553 174.595 207.59 174.595C207.627 174.595 207.664 174.595 207.701 174.595C207.738 174.595 207.775 174.595 207.812 174.595C207.848 174.595 207.885 174.595 207.922 174.595C207.959 174.595 207.996 174.595 208.032 174.595C208.069 174.595 208.106 174.595 208.142 174.595C208.179 174.595 208.216 174.595 208.252 174.595C208.289 174.595 208.325 174.595 208.362 174.595C208.398 174.595 208.435 174.595 208.471 174.595C208.507 174.595 208.544 174.595 208.58 174.595C208.616 174.595 208.652 174.595 208.689 174.595C208.725 174.595 208.761 174.595 208.797 174.595C208.833 174.595 208.869 174.595 208.905 174.595C208.941 174.595 208.977 174.595 209.013 174.595C209.049 174.595 209.085 174.595 209.12 174.595C209.156 174.595 209.192 174.595 209.228 174.595C209.263 174.595 209.299 174.595 209.335 174.595C209.37 174.595 209.406 174.595 209.442 174.595C209.477 174.595 209.513 174.595 209.548 174.595C209.583 174.595 209.619 174.595 209.654 174.595C209.69 174.595 209.725 174.595 209.76 174.595C209.795 174.595 209.831 174.595 209.866 174.595C209.901 174.595 209.936 174.595 209.971 174.595C210.006 174.595 210.041 174.595 210.076 174.595C210.111 174.595 210.146 174.595 210.181 174.595C210.216 174.595 210.251 174.595 210.285 174.595C210.32 174.595 210.355 174.595 210.39 174.595C210.424 174.595 210.459 174.595 210.493 174.595C210.528 174.595 210.563 174.595 210.597 174.595C210.632 174.595 210.666 174.595 210.7 174.595C210.735 174.595 210.769 174.595 210.804 174.595C210.838 174.595 210.872 174.595 210.906 174.595C210.941 174.595 210.975 174.595 211.009 174.595C211.043 174.595 211.077 174.595 211.111 174.595C211.145 174.595 211.179 174.595 211.213 174.595C211.247 174.595 211.281 174.595 211.315 174.595C211.348 174.595 211.382 174.595 211.416 174.595C211.45 174.595 211.483 174.595 211.517 174.595C211.55 174.595 211.584 174.595 211.618 174.595C211.651 174.595 211.685 174.595 211.718 174.595C211.751 174.595 211.785 174.595 211.818 174.595C211.852 174.595 211.885 174.595 211.918 174.595C211.951 174.595 211.984 174.595 212.018 174.595C212.051 174.595 212.084 174.595 212.117 174.595C212.15 174.595 212.183 174.595 212.216 174.595C212.249 174.595 212.282 174.595 212.314 174.595C212.347 174.595 212.38 174.595 212.413 174.595C212.446 174.595 212.478 174.595 212.511 174.595C212.544 174.595 212.576 174.595 212.609 174.595C212.641 174.595 212.674 174.595 212.706 174.595C212.739 174.595 212.771 174.595 212.803 174.595C212.836 174.595 212.868 174.595 212.9 174.595C212.932 174.595 212.965 174.595 212.997 174.595C213.029 174.595 213.061 174.595 213.093 174.595C213.125 174.595 213.157 174.595 213.189 174.595C213.221 174.595 213.253 174.595 213.285 174.595C213.316 174.595 213.348 174.595 213.38 174.595C213.412 174.595 213.443 174.595 213.475 174.595C213.507 174.595 213.538 174.595 213.57 174.595C213.601 174.595 213.633 174.595 213.664 174.595C213.696 174.595 213.727 174.595 213.758 174.595C213.79 174.595 213.821 174.595 213.852 174.595C213.883 174.595 213.914 174.595 213.946 174.595C213.977 174.595 214.008 174.595 214.039 174.595C214.07 174.595 214.101 174.595 214.132 174.595C214.162 174.595 214.193 174.595 214.224 174.595C214.255 174.595 214.286 174.595 214.316 174.595C214.347 174.595 214.378 174.595 214.408 174.595C214.439 174.595 214.469 174.595 214.5 174.595V172.595Z" fill="#5EBFF7"/>
<path d="M142.5 92.5952L136.726 102.595L148.274 102.595L142.5 92.5952ZM142.5 179.369L148.273 173.595L142.5 167.822L136.726 173.595L142.5 179.369ZM141.5 101.595C141.5 101.626 141.5 101.656 141.5 101.687C141.5 101.718 141.5 101.748 141.5 101.779C141.5 101.81 141.5 101.84 141.5 101.871C141.5 101.902 141.5 101.933 141.5 101.964C141.5 101.995 141.5 102.026 141.5 102.057C141.5 102.088 141.5 102.119 141.5 102.15C141.5 102.181 141.5 102.212 141.5 102.243C141.5 102.274 141.5 102.306 141.5 102.337C141.5 102.368 141.5 102.4 141.5 102.431C141.5 102.463 141.5 102.494 141.5 102.526C141.5 102.557 141.5 102.589 141.5 102.62C141.5 102.652 141.5 102.684 141.5 102.715C141.5 102.747 141.5 102.779 141.5 102.811C141.5 102.842 141.5 102.874 141.5 102.906C141.5 102.938 141.5 102.97 141.5 103.002C141.5 103.034 141.5 103.066 141.5 103.098C141.5 103.131 141.5 103.163 141.5 103.195C141.5 103.227 141.5 103.26 141.5 103.292C141.5 103.324 141.5 103.357 141.5 103.389C141.5 103.421 141.5 103.454 141.5 103.487C141.5 103.519 141.5 103.552 141.5 103.584C141.5 103.617 141.5 103.65 141.5 103.682C141.5 103.715 141.5 103.748 141.5 103.781C141.5 103.814 141.5 103.846 141.5 103.879C141.5 103.912 141.5 103.945 141.5 103.978C141.5 104.011 141.5 104.044 141.5 104.078C141.5 104.111 141.5 104.144 141.5 104.177C141.5 104.21 141.5 104.244 141.5 104.277C141.5 104.31 141.5 104.344 141.5 104.377C141.5 104.411 141.5 104.444 141.5 104.478C141.5 104.511 141.5 104.545 141.5 104.578C141.5 104.612 141.5 104.646 141.5 104.679C141.5 104.713 141.5 104.747 141.5 104.781C141.5 104.815 141.5 104.848 141.5 104.882C141.5 104.916 141.5 104.95 141.5 104.984C141.5 105.018 141.5 105.052 141.5 105.086C141.5 105.121 141.5 105.155 141.5 105.189C141.5 105.223 141.5 105.257 141.5 105.292C141.5 105.326 141.5 105.36 141.5 105.395C141.5 105.429 141.5 105.464 141.5 105.498C141.5 105.533 141.5 105.567 141.5 105.602C141.5 105.636 141.5 105.671 141.5 105.706C141.5 105.74 141.5 105.775 141.5 105.81C141.5 105.845 141.5 105.879 141.5 105.914C141.5 105.949 141.5 105.984 141.5 106.019C141.5 106.054 141.5 106.089 141.5 106.124C141.5 106.159 141.5 106.194 141.5 106.23C141.5 106.265 141.5 106.3 141.5 106.335C141.5 106.37 141.5 106.406 141.5 106.441C141.5 106.476 141.5 106.512 141.5 106.547C141.5 106.583 141.5 106.618 141.5 106.654C141.5 106.689 141.5 106.725 141.5 106.76C141.5 106.796 141.5 106.832 141.5 106.867C141.5 106.903 141.5 106.939 141.5 106.975C141.5 107.011 141.5 107.046 141.5 107.082C141.5 107.118 141.5 107.154 141.5 107.19C141.5 107.226 141.5 107.262 141.5 107.298C141.5 107.334 141.5 107.371 141.5 107.407C141.5 107.443 141.5 107.479 141.5 107.515C141.5 107.552 141.5 107.588 141.5 107.624C141.5 107.661 141.5 107.697 141.5 107.734C141.5 107.77 141.5 107.806 141.5 107.843C141.5 107.88 141.5 107.916 141.5 107.953C141.5 107.989 141.5 108.026 141.5 108.063C141.5 108.1 141.5 108.136 141.5 108.173C141.5 108.21 141.5 108.247 141.5 108.284C141.5 108.321 141.5 108.357 141.5 108.394C141.5 108.431 141.5 108.468 141.5 108.506C141.5 108.543 141.5 108.58 141.5 108.617C141.5 108.654 141.5 108.691 141.5 108.729C141.5 108.766 141.5 108.803 141.5 108.84C141.5 108.878 141.5 108.915 141.5 108.953C141.5 108.99 141.5 109.028 141.5 109.065C141.5 109.103 141.5 109.14 141.5 109.178C141.5 109.215 141.5 109.253 141.5 109.291C141.5 109.328 141.5 109.366 141.5 109.404C141.5 109.442 141.5 109.479 141.5 109.517C141.5 109.555 141.5 109.593 141.5 109.631C141.5 109.669 141.5 109.707 141.5 109.745C141.5 109.783 141.5 109.821 141.5 109.859C141.5 109.897 141.5 109.936 141.5 109.974C141.5 110.012 141.5 110.05 141.5 110.089C141.5 110.127 141.5 110.165 141.5 110.204C141.5 110.242 141.5 110.28 141.5 110.319C141.5 110.357 141.5 110.396 141.5 110.434C141.5 110.473 141.5 110.512 141.5 110.55C141.5 110.589 141.5 110.628 141.5 110.666C141.5 110.705 141.5 110.744 141.5 110.783C141.5 110.821 141.5 110.86 141.5 110.899C141.5 110.938 141.5 110.977 141.5 111.016C141.5 111.055 141.5 111.094 141.5 111.133C141.5 111.172 141.5 111.211 141.5 111.25C141.5 111.289 141.5 111.328 141.5 111.368C141.5 111.407 141.5 111.446 141.5 111.486C141.5 111.525 141.5 111.564 141.5 111.604C141.5 111.643 141.5 111.682 141.5 111.722C141.5 111.761 141.5 111.801 141.5 111.84C141.5 111.88 141.5 111.919 141.5 111.959C141.5 111.999 141.5 112.038 141.5 112.078C141.5 112.118 141.5 112.158 141.5 112.197C141.5 112.237 141.5 112.277 141.5 112.317C141.5 112.357 141.5 112.397 141.5 112.437C141.5 112.477 141.5 112.517 141.5 112.557C141.5 112.597 141.5 112.637 141.5 112.677C141.5 112.717 141.5 112.757 141.5 112.797C141.5 112.838 141.5 112.878 141.5 112.918C141.5 112.958 141.5 112.999 141.5 113.039C141.5 113.079 141.5 113.12 141.5 113.16C141.5 113.201 141.5 113.241 141.5 113.282C141.5 113.322 141.5 113.363 141.5 113.403C141.5 113.444 141.5 113.485 141.5 113.525C141.5 113.566 141.5 113.607 141.5 113.647C141.5 113.688 141.5 113.729 141.5 113.77C141.5 113.811 141.5 113.851 141.5 113.892C141.5 113.933 141.5 113.974 141.5 114.015C141.5 114.056 141.5 114.097 141.5 114.138C141.5 114.179 141.5 114.22 141.5 114.261C141.5 114.303 141.5 114.344 141.5 114.385C141.5 114.426 141.5 114.467 141.5 114.509C141.5 114.55 141.5 114.591 141.5 114.633C141.5 114.674 141.5 114.716 141.5 114.757C141.5 114.798 141.5 114.84 141.5 114.881C141.5 114.923 141.5 114.964 141.5 115.006C141.5 115.048 141.5 115.089 141.5 115.131C141.5 115.173 141.5 115.214 141.5 115.256C141.5 115.298 141.5 115.34 141.5 115.381C141.5 115.423 141.5 115.465 141.5 115.507C141.5 115.549 141.5 115.591 141.5 115.633C141.5 115.675 141.5 115.717 141.5 115.759C141.5 115.801 141.5 115.843 141.5 115.885C141.5 115.927 141.5 115.969 141.5 116.012C141.5 116.054 141.5 116.096 141.5 116.138C141.5 116.181 141.5 116.223 141.5 116.265C141.5 116.307 141.5 116.35 141.5 116.392C141.5 116.435 141.5 116.477 141.5 116.52C141.5 116.562 141.5 116.605 141.5 116.647C141.5 116.69 141.5 116.732 141.5 116.775C141.5 116.818 141.5 116.86 141.5 116.903C141.5 116.946 141.5 116.988 141.5 117.031C141.5 117.074 141.5 117.117 141.5 117.16C141.5 117.202 141.5 117.245 141.5 117.288C141.5 117.331 141.5 117.374 141.5 117.417C141.5 117.46 141.5 117.503 141.5 117.546C141.5 117.589 141.5 117.632 141.5 117.675C141.5 117.719 141.5 117.762 141.5 117.805C141.5 117.848 141.5 117.891 141.5 117.935C141.5 117.978 141.5 118.021 141.5 118.065C141.5 118.108 141.5 118.151 141.5 118.195C141.5 118.238 141.5 118.281 141.5 118.325C141.5 118.368 141.5 118.412 141.5 118.455C141.5 118.499 141.5 118.543 141.5 118.586C141.5 118.63 141.5 118.674 141.5 118.717C141.5 118.761 141.5 118.805 141.5 118.848C141.5 118.892 141.5 118.936 141.5 118.98C141.5 119.024 141.5 119.067 141.5 119.111C141.5 119.155 141.5 119.199 141.5 119.243C141.5 119.287 141.5 119.331 141.5 119.375C141.5 119.419 141.5 119.463 141.5 119.507C141.5 119.551 141.5 119.595 141.5 119.64C141.5 119.684 141.5 119.728 141.5 119.772C141.5 119.816 141.5 119.861 141.5 119.905C141.5 119.949 141.5 119.993 141.5 120.038C141.5 120.082 141.5 120.127 141.5 120.171C141.5 120.215 141.5 120.26 141.5 120.304C141.5 120.349 141.5 120.393 141.5 120.438C141.5 120.483 141.5 120.527 141.5 120.572C141.5 120.616 141.5 120.661 141.5 120.706C141.5 120.75 141.5 120.795 141.5 120.84C141.5 120.885 141.5 120.929 141.5 120.974C141.5 121.019 141.5 121.064 141.5 121.109C141.5 121.154 141.5 121.198 141.5 121.243C141.5 121.288 141.5 121.333 141.5 121.378C141.5 121.423 141.5 121.468 141.5 121.513C141.5 121.559 141.5 121.604 141.5 121.649C141.5 121.694 141.5 121.739 141.5 121.784C141.5 121.829 141.5 121.875 141.5 121.92C141.5 121.965 141.5 122.011 141.5 122.056C141.5 122.101 141.5 122.146 141.5 122.192C141.5 122.237 141.5 122.283 141.5 122.328C141.5 122.374 141.5 122.419 141.5 122.465C141.5 122.51 141.5 122.556 141.5 122.601C141.5 122.647 141.5 122.692 141.5 122.738C141.5 122.784 141.5 122.829 141.5 122.875C141.5 122.921 141.5 122.966 141.5 123.012C141.5 123.058 141.5 123.104 141.5 123.149C141.5 123.195 141.5 123.241 141.5 123.287C141.5 123.333 141.5 123.379 141.5 123.425C141.5 123.471 141.5 123.517 141.5 123.563C141.5 123.609 141.5 123.655 141.5 123.701C141.5 123.747 141.5 123.793 141.5 123.839C141.5 123.885 141.5 123.931 141.5 123.977C141.5 124.024 141.5 124.07 141.5 124.116C141.5 124.162 141.5 124.208 141.5 124.255C141.5 124.301 141.5 124.347 141.5 124.394C141.5 124.44 141.5 124.486 141.5 124.533C141.5 124.579 141.5 124.626 141.5 124.672C141.5 124.719 141.5 124.765 141.5 124.812C141.5 124.858 141.5 124.905 141.5 124.951C141.5 124.998 141.5 125.044 141.5 125.091C141.5 125.138 141.5 125.184 141.5 125.231C141.5 125.278 141.5 125.325 141.5 125.371C141.5 125.418 141.5 125.465 141.5 125.512C141.5 125.558 141.5 125.605 141.5 125.652C141.5 125.699 141.5 125.746 141.5 125.793C141.5 125.84 141.5 125.887 141.5 125.934C141.5 125.981 141.5 126.028 141.5 126.075C141.5 126.122 141.5 126.169 141.5 126.216C141.5 126.263 141.5 126.31 141.5 126.357C141.5 126.404 141.5 126.452 141.5 126.499C141.5 126.546 141.5 126.593 141.5 126.64C141.5 126.688 141.5 126.735 141.5 126.782C141.5 126.83 141.5 126.877 141.5 126.924C141.5 126.972 141.5 127.019 141.5 127.066C141.5 127.114 141.5 127.161 141.5 127.209C141.5 127.256 141.5 127.304 141.5 127.351C141.5 127.399 141.5 127.446 141.5 127.494C141.5 127.541 141.5 127.589 141.5 127.637C141.5 127.684 141.5 127.732 141.5 127.78C141.5 127.827 141.5 127.875 141.5 127.923C141.5 127.971 141.5 128.018 141.5 128.066C141.5 128.114 141.5 128.162 141.5 128.209C141.5 128.257 141.5 128.305 141.5 128.353C141.5 128.401 141.5 128.449 141.5 128.497C141.5 128.545 141.5 128.593 141.5 128.641C141.5 128.689 141.5 128.737 141.5 128.785C141.5 128.833 141.5 128.881 141.5 128.929C141.5 128.977 141.5 129.025 141.5 129.073C141.5 129.122 141.5 129.17 141.5 129.218C141.5 129.266 141.5 129.314 141.5 129.363C141.5 129.411 141.5 129.459 141.5 129.507C141.5 129.556 141.5 129.604 141.5 129.652C141.5 129.701 141.5 129.749 141.5 129.797C141.5 129.846 141.5 129.894 141.5 129.943C141.5 129.991 141.5 130.04 141.5 130.088C141.5 130.137 141.5 130.185 141.5 130.234C141.5 130.282 141.5 130.331 141.5 130.379C141.5 130.428 141.5 130.477 141.5 130.525C141.5 130.574 141.5 130.622 141.5 130.671C141.5 130.72 141.5 130.769 141.5 130.817C141.5 130.866 141.5 130.915 141.5 130.964C141.5 131.012 141.5 131.061 141.5 131.11C141.5 131.159 141.5 131.208 141.5 131.257C141.5 131.305 141.5 131.354 141.5 131.403C141.5 131.452 141.5 131.501 141.5 131.55C141.5 131.599 141.5 131.648 141.5 131.697C141.5 131.746 141.5 131.795 141.5 131.844C141.5 131.893 141.5 131.942 141.5 131.991C141.5 132.04 141.5 132.09 141.5 132.139C141.5 132.188 141.5 132.237 141.5 132.286C141.5 132.335 141.5 132.385 141.5 132.434C141.5 132.483 141.5 132.532 141.5 132.582C141.5 132.631 141.5 132.68 141.5 132.73C141.5 132.779 141.5 132.828 141.5 132.878C141.5 132.927 141.5 132.977 141.5 133.026C141.5 133.075 141.5 133.125 141.5 133.174C141.5 133.224 141.5 133.273 141.5 133.323C141.5 133.372 141.5 133.422 141.5 133.471C141.5 133.521 141.5 133.57 141.5 133.62C141.5 133.67 141.5 133.719 141.5 133.769C141.5 133.818 141.5 133.868 141.5 133.918C141.5 133.968 141.5 134.017 141.5 134.067C141.5 134.117 141.5 134.166 141.5 134.216C141.5 134.266 141.5 134.316 141.5 134.366C141.5 134.415 141.5 134.465 141.5 134.515C141.5 134.565 141.5 134.615 141.5 134.665C141.5 134.714 141.5 134.764 141.5 134.814C141.5 134.864 141.5 134.914 141.5 134.964C141.5 135.014 141.5 135.064 141.5 135.114C141.5 135.164 141.5 135.214 141.5 135.264C141.5 135.314 141.5 135.364 141.5 135.414C141.5 135.465 141.5 135.515 141.5 135.565C141.5 135.615 141.5 135.665 141.5 135.715C141.5 135.765 141.5 135.816 141.5 135.866C141.5 135.916 141.5 135.966 141.5 136.017C141.5 136.067 141.5 136.117 141.5 136.167C141.5 136.218 141.5 136.268 141.5 136.318C141.5 136.369 141.5 136.419 141.5 136.469C141.5 136.52 141.5 136.57 141.5 136.62C141.5 136.671 141.5 136.721 141.5 136.772C141.5 136.822 141.5 136.873 141.5 136.923C141.5 136.974 141.5 137.024 141.5 137.075C141.5 137.125 141.5 137.176 141.5 137.226C141.5 137.277 141.5 137.327 141.5 137.378C141.5 137.429 141.5 137.479 141.5 137.53C141.5 137.58 141.5 137.631 141.5 137.682C141.5 137.732 141.5 137.783 141.5 137.834C141.5 137.884 141.5 137.935 141.5 137.986C141.5 138.037 141.5 138.087 141.5 138.138C141.5 138.189 141.5 138.24 141.5 138.291C141.5 138.341 141.5 138.392 141.5 138.443C141.5 138.494 141.5 138.545 141.5 138.596C141.5 138.647 141.5 138.697 141.5 138.748C141.5 138.799 141.5 138.85 141.5 138.901C141.5 138.952 141.5 139.003 141.5 139.054C141.5 139.105 141.5 139.156 141.5 139.207C141.5 139.258 141.5 139.309 141.5 139.36C141.5 139.411 141.5 139.462 141.5 139.513C141.5 139.564 141.5 139.616 141.5 139.667C141.5 139.718 141.5 139.769 141.5 139.82C141.5 139.871 141.5 139.922 141.5 139.974C141.5 140.025 141.5 140.076 141.5 140.127C141.5 140.178 141.5 140.23 141.5 140.281C141.5 140.332 141.5 140.383 141.5 140.435C141.5 140.486 141.5 140.537 141.5 140.589C141.5 140.64 141.5 140.691 141.5 140.743C141.5 140.794 141.5 140.845 141.5 140.897C141.5 140.948 141.5 140.999 141.5 141.051C141.5 141.102 141.5 141.154 141.5 141.205C141.5 141.257 141.5 141.308 141.5 141.36C141.5 141.411 141.5 141.462 141.5 141.514C141.5 141.565 141.5 141.617 141.5 141.669C141.5 141.72 141.5 141.772 141.5 141.823C141.5 141.875 141.5 141.926 141.5 141.978C141.5 142.03 141.5 142.081 141.5 142.133C141.5 142.184 141.5 142.236 141.5 142.288C141.5 142.339 141.5 142.391 141.5 142.443C141.5 142.494 141.5 142.546 141.5 142.598C141.5 142.649 141.5 142.701 141.5 142.753C141.5 142.805 141.5 142.856 141.5 142.908C141.5 142.96 141.5 143.012 141.5 143.064C141.5 143.115 141.5 143.167 141.5 143.219C141.5 143.271 141.5 143.323 141.5 143.374C141.5 143.426 141.5 143.478 141.5 143.53C141.5 143.582 141.5 143.634 141.5 143.686C141.5 143.738 141.5 143.79 141.5 143.841C141.5 143.893 141.5 143.945 141.5 143.997C141.5 144.049 141.5 144.101 141.5 144.153C141.5 144.205 141.5 144.257 141.5 144.309C141.5 144.361 141.5 144.413 141.5 144.465C141.5 144.517 141.5 144.569 141.5 144.621C141.5 144.674 141.5 144.726 141.5 144.778C141.5 144.83 141.5 144.882 141.5 144.934C141.5 144.986 141.5 145.038 141.5 145.09C141.5 145.143 141.5 145.195 141.5 145.247C141.5 145.299 141.5 145.351 141.5 145.403C141.5 145.456 141.5 145.508 141.5 145.56C141.5 145.612 141.5 145.664 141.5 145.717C141.5 145.769 141.5 145.821 141.5 145.873C141.5 145.926 141.5 145.978 141.5 146.03C141.5 146.082 141.5 146.135 141.5 146.187C141.5 146.239 141.5 146.292 141.5 146.344C141.5 146.396 141.5 146.449 141.5 146.501C141.5 146.553 141.5 146.606 141.5 146.658C141.5 146.711 141.5 146.763 141.5 146.815C141.5 146.868 141.5 146.92 141.5 146.973C141.5 147.025 141.5 147.077 141.5 147.13C141.5 147.182 141.5 147.235 141.5 147.287C141.5 147.34 141.5 147.392 141.5 147.445C141.5 147.497 141.5 147.55 141.5 147.602C141.5 147.655 141.5 147.707 141.5 147.76C141.5 147.812 141.5 147.865 141.5 147.917C141.5 147.97 141.5 148.022 141.5 148.075C141.5 148.128 141.5 148.18 141.5 148.233C141.5 148.285 141.5 148.338 141.5 148.391C141.5 148.443 141.5 148.496 141.5 148.548C141.5 148.601 141.5 148.654 141.5 148.706C141.5 148.759 141.5 148.812 141.5 148.864C141.5 148.917 141.5 148.97 141.5 149.022C141.5 149.075 141.5 149.128 141.5 149.18C141.5 149.233 141.5 149.286 141.5 149.339C141.5 149.391 141.5 149.444 141.5 149.497C141.5 149.549 141.5 149.602 141.5 149.655C141.5 149.708 141.5 149.76 141.5 149.813C141.5 149.866 141.5 149.919 141.5 149.972C141.5 150.024 141.5 150.077 141.5 150.13C141.5 150.183 141.5 150.236 141.5 150.289C141.5 150.341 141.5 150.394 141.5 150.447C141.5 150.5 141.5 150.553 141.5 150.606C141.5 150.658 141.5 150.711 141.5 150.764C141.5 150.817 141.5 150.87 141.5 150.923C141.5 150.976 141.5 151.029 141.5 151.082C141.5 151.134 141.5 151.187 141.5 151.24C141.5 151.293 141.5 151.346 141.5 151.399C141.5 151.452 141.5 151.505 141.5 151.558C141.5 151.611 141.5 151.664 141.5 151.717C141.5 151.77 141.5 151.823 141.5 151.876C141.5 151.929 141.5 151.982 141.5 152.035C141.5 152.088 141.5 152.141 141.5 152.194C141.5 152.247 141.5 152.3 141.5 152.353C141.5 152.406 141.5 152.459 141.5 152.512C141.5 152.565 141.5 152.618 141.5 152.671C141.5 152.724 141.5 152.777 141.5 152.83C141.5 152.883 141.5 152.937 141.5 152.99C141.5 153.043 141.5 153.096 141.5 153.149C141.5 153.202 141.5 153.255 141.5 153.308C141.5 153.361 141.5 153.414 141.5 153.468C141.5 153.521 141.5 153.574 141.5 153.627C141.5 153.68 141.5 153.733 141.5 153.786C141.5 153.839 141.5 153.893 141.5 153.946C141.5 153.999 141.5 154.052 141.5 154.105C141.5 154.158 141.5 154.212 141.5 154.265C141.5 154.318 141.5 154.371 141.5 154.424C141.5 154.478 141.5 154.531 141.5 154.584C141.5 154.637 141.5 154.69 141.5 154.744C141.5 154.797 141.5 154.85 141.5 154.903C141.5 154.956 141.5 155.01 141.5 155.063C141.5 155.116 141.5 155.169 141.5 155.223C141.5 155.276 141.5 155.329 141.5 155.382C141.5 155.436 141.5 155.489 141.5 155.542C141.5 155.595 141.5 155.649 141.5 155.702C141.5 155.755 141.5 155.808 141.5 155.862C141.5 155.915 141.5 155.968 141.5 156.021C141.5 156.075 141.5 156.128 141.5 156.181C141.5 156.235 141.5 156.288 141.5 156.341C141.5 156.395 141.5 156.448 141.5 156.501C141.5 156.554 141.5 156.608 141.5 156.661C141.5 156.714 141.5 156.768 141.5 156.821C141.5 156.874 141.5 156.928 141.5 156.981C141.5 157.034 141.5 157.088 141.5 157.141C141.5 157.194 141.5 157.248 141.5 157.301C141.5 157.354 141.5 157.408 141.5 157.461C141.5 157.514 141.5 157.568 141.5 157.621C141.5 157.674 141.5 157.728 141.5 157.781C141.5 157.835 141.5 157.888 141.5 157.941C141.5 157.995 141.5 158.048 141.5 158.101C141.5 158.155 141.5 158.208 141.5 158.262C141.5 158.315 141.5 158.368 141.5 158.422C141.5 158.475 141.5 158.528 141.5 158.582C141.5 158.635 141.5 158.689 141.5 158.742C141.5 158.795 141.5 158.849 141.5 158.902C141.5 158.956 141.5 159.009 141.5 159.062C141.5 159.116 141.5 159.169 141.5 159.223C141.5 159.276 141.5 159.329 141.5 159.383C141.5 159.436 141.5 159.49 141.5 159.543C141.5 159.596 141.5 159.65 141.5 159.703C141.5 159.757 141.5 159.81 141.5 159.863C141.5 159.917 141.5 159.97 141.5 160.024C141.5 160.077 141.5 160.131 141.5 160.184C141.5 160.237 141.5 160.291 141.5 160.344C141.5 160.398 141.5 160.451 141.5 160.504C141.5 160.558 141.5 160.611 141.5 160.665C141.5 160.718 141.5 160.772 141.5 160.825C141.5 160.878 141.5 160.932 141.5 160.985C141.5 161.039 141.5 161.092 141.5 161.146C141.5 161.199 141.5 161.252 141.5 161.306C141.5 161.359 141.5 161.413 141.5 161.466C141.5 161.52 141.5 161.573 141.5 161.626C141.5 161.68 141.5 161.733 141.5 161.787C141.5 161.84 141.5 161.894 141.5 161.947C141.5 162 141.5 162.054 141.5 162.107C141.5 162.161 141.5 162.214 141.5 162.267C141.5 162.321 141.5 162.374 141.5 162.428C141.5 162.481 141.5 162.535 141.5 162.588C141.5 162.641 141.5 162.695 141.5 162.748C141.5 162.802 141.5 162.855 141.5 162.909C141.5 162.962 141.5 163.015 141.5 163.069C141.5 163.122 141.5 163.176 141.5 163.229C141.5 163.282 141.5 163.336 141.5 163.389C141.5 163.443 141.5 163.496 141.5 163.549C141.5 163.603 141.5 163.656 141.5 163.71C141.5 163.763 141.5 163.817 141.5 163.87C141.5 163.923 141.5 163.977 141.5 164.03C141.5 164.084 141.5 164.137 141.5 164.19C141.5 164.244 141.5 164.297 141.5 164.35C141.5 164.404 141.5 164.457 141.5 164.511C141.5 164.564 141.5 164.617 141.5 164.671C141.5 164.724 141.5 164.778 141.5 164.831C141.5 164.884 141.5 164.938 141.5 164.991C141.5 165.044 141.5 165.098 141.5 165.151C141.5 165.205 141.5 165.258 141.5 165.311C141.5 165.365 141.5 165.418 141.5 165.471C141.5 165.525 141.5 165.578 141.5 165.631C141.5 165.685 141.5 165.738 141.5 165.791C141.5 165.845 141.5 165.898 141.5 165.951C141.5 166.005 141.5 166.058 141.5 166.111C141.5 166.165 141.5 166.218 141.5 166.271C141.5 166.325 141.5 166.378 141.5 166.431C141.5 166.485 141.5 166.538 141.5 166.591C141.5 166.645 141.5 166.698 141.5 166.751C141.5 166.804 141.5 166.858 141.5 166.911C141.5 166.964 141.5 167.018 141.5 167.071C141.5 167.124 141.5 167.177 141.5 167.231C141.5 167.284 141.5 167.337 141.5 167.391C141.5 167.444 141.5 167.497 141.5 167.55C141.5 167.604 141.5 167.657 141.5 167.71C141.5 167.763 141.5 167.817 141.5 167.87C141.5 167.923 141.5 167.976 141.5 168.029C141.5 168.083 141.5 168.136 141.5 168.189C141.5 168.242 141.5 168.296 141.5 168.349C141.5 168.402 141.5 168.455 141.5 168.508C141.5 168.562 141.5 168.615 141.5 168.668C141.5 168.721 141.5 168.774 141.5 168.828C141.5 168.881 141.5 168.934 141.5 168.987C141.5 169.04 141.5 169.093 141.5 169.146C141.5 169.2 141.5 169.253 141.5 169.306C141.5 169.359 141.5 169.412 141.5 169.465C141.5 169.518 141.5 169.572 141.5 169.625C141.5 169.678 141.5 169.731 141.5 169.784C141.5 169.837 141.5 169.89 141.5 169.943C141.5 169.996 141.5 170.05 141.5 170.103C141.5 170.156 141.5 170.209 141.5 170.262C141.5 170.315 141.5 170.368 141.5 170.421C141.5 170.474 141.5 170.527 141.5 170.58C141.5 170.633 141.5 170.686 141.5 170.739C141.5 170.792 141.5 170.845 141.5 170.898C141.5 170.951 141.5 171.004 141.5 171.057C141.5 171.11 141.5 171.163 141.5 171.216C141.5 171.269 141.5 171.322 141.5 171.375C141.5 171.428 141.5 171.481 141.5 171.534C141.5 171.587 141.5 171.64 141.5 171.693C141.5 171.746 141.5 171.799 141.5 171.852C141.5 171.905 141.5 171.958 141.5 172.01C141.5 172.063 141.5 172.116 141.5 172.169C141.5 172.222 141.5 172.275 141.5 172.328C141.5 172.381 141.5 172.434 141.5 172.486C141.5 172.539 141.5 172.592 141.5 172.645C141.5 172.698 141.5 172.751 141.5 172.803C141.5 172.856 141.5 172.909 141.5 172.962C141.5 173.015 141.5 173.068 141.5 173.12C141.5 173.173 141.5 173.226 141.5 173.279C141.5 173.331 141.5 173.384 141.5 173.437C141.5 173.49 141.5 173.542 141.5 173.595L143.5 173.595C143.5 173.542 143.5 173.49 143.5 173.437C143.5 173.384 143.5 173.331 143.5 173.279C143.5 173.226 143.5 173.173 143.5 173.12C143.5 173.068 143.5 173.015 143.5 172.962C143.5 172.909 143.5 172.856 143.5 172.803C143.5 172.751 143.5 172.698 143.5 172.645C143.5 172.592 143.5 172.539 143.5 172.486C143.5 172.434 143.5 172.381 143.5 172.328C143.5 172.275 143.5 172.222 143.5 172.169C143.5 172.116 143.5 172.063 143.5 172.01C143.5 171.958 143.5 171.905 143.5 171.852C143.5 171.799 143.5 171.746 143.5 171.693C143.5 171.64 143.5 171.587 143.5 171.534C143.5 171.481 143.5 171.428 143.5 171.375C143.5 171.322 143.5 171.269 143.5 171.216C143.5 171.163 143.5 171.11 143.5 171.057C143.5 171.004 143.5 170.951 143.5 170.898C143.5 170.845 143.5 170.792 143.5 170.739C143.5 170.686 143.5 170.633 143.5 170.58C143.5 170.527 143.5 170.474 143.5 170.421C143.5 170.368 143.5 170.315 143.5 170.262C143.5 170.209 143.5 170.156 143.5 170.103C143.5 170.05 143.5 169.996 143.5 169.943C143.5 169.89 143.5 169.837 143.5 169.784C143.5 169.731 143.5 169.678 143.5 169.625C143.5 169.572 143.5 169.518 143.5 169.465C143.5 169.412 143.5 169.359 143.5 169.306C143.5 169.253 143.5 169.2 143.5 169.146C143.5 169.093 143.5 169.04 143.5 168.987C143.5 168.934 143.5 168.881 143.5 168.828C143.5 168.774 143.5 168.721 143.5 168.668C143.5 168.615 143.5 168.562 143.5 168.508C143.5 168.455 143.5 168.402 143.5 168.349C143.5 168.296 143.5 168.242 143.5 168.189C143.5 168.136 143.5 168.083 143.5 168.029C143.5 167.976 143.5 167.923 143.5 167.87C143.5 167.817 143.5 167.763 143.5 167.71C143.5 167.657 143.5 167.604 143.5 167.55C143.5 167.497 143.5 167.444 143.5 167.391C143.5 167.337 143.5 167.284 143.5 167.231C143.5 167.177 143.5 167.124 143.5 167.071C143.5 167.018 143.5 166.964 143.5 166.911C143.5 166.858 143.5 166.804 143.5 166.751C143.5 166.698 143.5 166.645 143.5 166.591C143.5 166.538 143.5 166.485 143.5 166.431C143.5 166.378 143.5 166.325 143.5 166.271C143.5 166.218 143.5 166.165 143.5 166.111C143.5 166.058 143.5 166.005 143.5 165.951C143.5 165.898 143.5 165.845 143.5 165.791C143.5 165.738 143.5 165.685 143.5 165.631C143.5 165.578 143.5 165.525 143.5 165.471C143.5 165.418 143.5 165.365 143.5 165.311C143.5 165.258 143.5 165.205 143.5 165.151C143.5 165.098 143.5 165.044 143.5 164.991C143.5 164.938 143.5 164.884 143.5 164.831C143.5 164.778 143.5 164.724 143.5 164.671C143.5 164.617 143.5 164.564 143.5 164.511C143.5 164.457 143.5 164.404 143.5 164.35C143.5 164.297 143.5 164.244 143.5 164.19C143.5 164.137 143.5 164.084 143.5 164.03C143.5 163.977 143.5 163.923 143.5 163.87C143.5 163.817 143.5 163.763 143.5 163.71C143.5 163.656 143.5 163.603 143.5 163.549C143.5 163.496 143.5 163.443 143.5 163.389C143.5 163.336 143.5 163.282 143.5 163.229C143.5 163.176 143.5 163.122 143.5 163.069C143.5 163.015 143.5 162.962 143.5 162.909C143.5 162.855 143.5 162.802 143.5 162.748C143.5 162.695 143.5 162.641 143.5 162.588C143.5 162.535 143.5 162.481 143.5 162.428C143.5 162.374 143.5 162.321 143.5 162.267C143.5 162.214 143.5 162.161 143.5 162.107C143.5 162.054 143.5 162 143.5 161.947C143.5 161.894 143.5 161.84 143.5 161.787C143.5 161.733 143.5 161.68 143.5 161.626C143.5 161.573 143.5 161.52 143.5 161.466C143.5 161.413 143.5 161.359 143.5 161.306C143.5 161.252 143.5 161.199 143.5 161.146C143.5 161.092 143.5 161.039 143.5 160.985C143.5 160.932 143.5 160.878 143.5 160.825C143.5 160.772 143.5 160.718 143.5 160.665C143.5 160.611 143.5 160.558 143.5 160.504C143.5 160.451 143.5 160.398 143.5 160.344C143.5 160.291 143.5 160.237 143.5 160.184C143.5 160.131 143.5 160.077 143.5 160.024C143.5 159.97 143.5 159.917 143.5 159.863C143.5 159.81 143.5 159.757 143.5 159.703C143.5 159.65 143.5 159.596 143.5 159.543C143.5 159.49 143.5 159.436 143.5 159.383C143.5 159.329 143.5 159.276 143.5 159.223C143.5 159.169 143.5 159.116 143.5 159.062C143.5 159.009 143.5 158.956 143.5 158.902C143.5 158.849 143.5 158.795 143.5 158.742C143.5 158.689 143.5 158.635 143.5 158.582C143.5 158.528 143.5 158.475 143.5 158.422C143.5 158.368 143.5 158.315 143.5 158.262C143.5 158.208 143.5 158.155 143.5 158.101C143.5 158.048 143.5 157.995 143.5 157.941C143.5 157.888 143.5 157.835 143.5 157.781C143.5 157.728 143.5 157.674 143.5 157.621C143.5 157.568 143.5 157.514 143.5 157.461C143.5 157.408 143.5 157.354 143.5 157.301C143.5 157.248 143.5 157.194 143.5 157.141C143.5 157.088 143.5 157.034 143.5 156.981C143.5 156.928 143.5 156.874 143.5 156.821C143.5 156.768 143.5 156.714 143.5 156.661C143.5 156.608 143.5 156.554 143.5 156.501C143.5 156.448 143.5 156.395 143.5 156.341C143.5 156.288 143.5 156.235 143.5 156.181C143.5 156.128 143.5 156.075 143.5 156.021C143.5 155.968 143.5 155.915 143.5 155.862C143.5 155.808 143.5 155.755 143.5 155.702C143.5 155.649 143.5 155.595 143.5 155.542C143.5 155.489 143.5 155.436 143.5 155.382C143.5 155.329 143.5 155.276 143.5 155.223C143.5 155.169 143.5 155.116 143.5 155.063C143.5 155.01 143.5 154.956 143.5 154.903C143.5 154.85 143.5 154.797 143.5 154.744C143.5 154.69 143.5 154.637 143.5 154.584C143.5 154.531 143.5 154.478 143.5 154.424C143.5 154.371 143.5 154.318 143.5 154.265C143.5 154.212 143.5 154.158 143.5 154.105C143.5 154.052 143.5 153.999 143.5 153.946C143.5 153.893 143.5 153.839 143.5 153.786C143.5 153.733 143.5 153.68 143.5 153.627C143.5 153.574 143.5 153.521 143.5 153.468C143.5 153.414 143.5 153.361 143.5 153.308C143.5 153.255 143.5 153.202 143.5 153.149C143.5 153.096 143.5 153.043 143.5 152.99C143.5 152.937 143.5 152.883 143.5 152.83C143.5 152.777 143.5 152.724 143.5 152.671C143.5 152.618 143.5 152.565 143.5 152.512C143.5 152.459 143.5 152.406 143.5 152.353C143.5 152.3 143.5 152.247 143.5 152.194C143.5 152.141 143.5 152.088 143.5 152.035C143.5 151.982 143.5 151.929 143.5 151.876C143.5 151.823 143.5 151.77 143.5 151.717C143.5 151.664 143.5 151.611 143.5 151.558C143.5 151.505 143.5 151.452 143.5 151.399C143.5 151.346 143.5 151.293 143.5 151.24C143.5 151.187 143.5 151.134 143.5 151.082C143.5 151.029 143.5 150.976 143.5 150.923C143.5 150.87 143.5 150.817 143.5 150.764C143.5 150.711 143.5 150.658 143.5 150.606C143.5 150.553 143.5 150.5 143.5 150.447C143.5 150.394 143.5 150.341 143.5 150.289C143.5 150.236 143.5 150.183 143.5 150.13C143.5 150.077 143.5 150.024 143.5 149.972C143.5 149.919 143.5 149.866 143.5 149.813C143.5 149.76 143.5 149.708 143.5 149.655C143.5 149.602 143.5 149.549 143.5 149.497C143.5 149.444 143.5 149.391 143.5 149.339C143.5 149.286 143.5 149.233 143.5 149.18C143.5 149.128 143.5 149.075 143.5 149.022C143.5 148.97 143.5 148.917 143.5 148.864C143.5 148.812 143.5 148.759 143.5 148.706C143.5 148.654 143.5 148.601 143.5 148.548C143.5 148.496 143.5 148.443 143.5 148.391C143.5 148.338 143.5 148.285 143.5 148.233C143.5 148.18 143.5 148.128 143.5 148.075C143.5 148.022 143.5 147.97 143.5 147.917C143.5 147.865 143.5 147.812 143.5 147.76C143.5 147.707 143.5 147.655 143.5 147.602C143.5 147.55 143.5 147.497 143.5 147.445C143.5 147.392 143.5 147.34 143.5 147.287C143.5 147.235 143.5 147.182 143.5 147.13C143.5 147.077 143.5 147.025 143.5 146.973C143.5 146.92 143.5 146.868 143.5 146.815C143.5 146.763 143.5 146.711 143.5 146.658C143.5 146.606 143.5 146.553 143.5 146.501C143.5 146.449 143.5 146.396 143.5 146.344C143.5 146.292 143.5 146.239 143.5 146.187C143.5 146.135 143.5 146.082 143.5 146.03C143.5 145.978 143.5 145.926 143.5 145.873C143.5 145.821 143.5 145.769 143.5 145.717C143.5 145.664 143.5 145.612 143.5 145.56C143.5 145.508 143.5 145.456 143.5 145.403C143.5 145.351 143.5 145.299 143.5 145.247C143.5 145.195 143.5 145.143 143.5 145.09C143.5 145.038 143.5 144.986 143.5 144.934C143.5 144.882 143.5 144.83 143.5 144.778C143.5 144.726 143.5 144.674 143.5 144.621C143.5 144.569 143.5 144.517 143.5 144.465C143.5 144.413 143.5 144.361 143.5 144.309C143.5 144.257 143.5 144.205 143.5 144.153C143.5 144.101 143.5 144.049 143.5 143.997C143.5 143.945 143.5 143.893 143.5 143.841C143.5 143.79 143.5 143.738 143.5 143.686C143.5 143.634 143.5 143.582 143.5 143.53C143.5 143.478 143.5 143.426 143.5 143.374C143.5 143.323 143.5 143.271 143.5 143.219C143.5 143.167 143.5 143.115 143.5 143.064C143.5 143.012 143.5 142.96 143.5 142.908C143.5 142.856 143.5 142.805 143.5 142.753C143.5 142.701 143.5 142.649 143.5 142.598C143.5 142.546 143.5 142.494 143.5 142.443C143.5 142.391 143.5 142.339 143.5 142.288C143.5 142.236 143.5 142.184 143.5 142.133C143.5 142.081 143.5 142.03 143.5 141.978C143.5 141.926 143.5 141.875 143.5 141.823C143.5 141.772 143.5 141.72 143.5 141.669C143.5 141.617 143.5 141.565 143.5 141.514C143.5 141.462 143.5 141.411 143.5 141.36C143.5 141.308 143.5 141.257 143.5 141.205C143.5 141.154 143.5 141.102 143.5 141.051C143.5 140.999 143.5 140.948 143.5 140.897C143.5 140.845 143.5 140.794 143.5 140.743C143.5 140.691 143.5 140.64 143.5 140.589C143.5 140.537 143.5 140.486 143.5 140.435C143.5 140.383 143.5 140.332 143.5 140.281C143.5 140.23 143.5 140.178 143.5 140.127C143.5 140.076 143.5 140.025 143.5 139.974C143.5 139.922 143.5 139.871 143.5 139.82C143.5 139.769 143.5 139.718 143.5 139.667C143.5 139.616 143.5 139.564 143.5 139.513C143.5 139.462 143.5 139.411 143.5 139.36C143.5 139.309 143.5 139.258 143.5 139.207C143.5 139.156 143.5 139.105 143.5 139.054C143.5 139.003 143.5 138.952 143.5 138.901C143.5 138.85 143.5 138.799 143.5 138.748C143.5 138.697 143.5 138.647 143.5 138.596C143.5 138.545 143.5 138.494 143.5 138.443C143.5 138.392 143.5 138.341 143.5 138.291C143.5 138.24 143.5 138.189 143.5 138.138C143.5 138.087 143.5 138.037 143.5 137.986C143.5 137.935 143.5 137.884 143.5 137.834C143.5 137.783 143.5 137.732 143.5 137.682C143.5 137.631 143.5 137.58 143.5 137.53C143.5 137.479 143.5 137.429 143.5 137.378C143.5 137.327 143.5 137.277 143.5 137.226C143.5 137.176 143.5 137.125 143.5 137.075C143.5 137.024 143.5 136.974 143.5 136.923C143.5 136.873 143.5 136.822 143.5 136.772C143.5 136.721 143.5 136.671 143.5 136.62C143.5 136.57 143.5 136.52 143.5 136.469C143.5 136.419 143.5 136.369 143.5 136.318C143.5 136.268 143.5 136.218 143.5 136.167C143.5 136.117 143.5 136.067 143.5 136.017C143.5 135.966 143.5 135.916 143.5 135.866C143.5 135.816 143.5 135.765 143.5 135.715C143.5 135.665 143.5 135.615 143.5 135.565C143.5 135.515 143.5 135.465 143.5 135.414C143.5 135.364 143.5 135.314 143.5 135.264C143.5 135.214 143.5 135.164 143.5 135.114C143.5 135.064 143.5 135.014 143.5 134.964C143.5 134.914 143.5 134.864 143.5 134.814C143.5 134.764 143.5 134.714 143.5 134.665C143.5 134.615 143.5 134.565 143.5 134.515C143.5 134.465 143.5 134.415 143.5 134.366C143.5 134.316 143.5 134.266 143.5 134.216C143.5 134.166 143.5 134.117 143.5 134.067C143.5 134.017 143.5 133.968 143.5 133.918C143.5 133.868 143.5 133.818 143.5 133.769C143.5 133.719 143.5 133.67 143.5 133.62C143.5 133.57 143.5 133.521 143.5 133.471C143.5 133.422 143.5 133.372 143.5 133.323C143.5 133.273 143.5 133.224 143.5 133.174C143.5 133.125 143.5 133.075 143.5 133.026C143.5 132.977 143.5 132.927 143.5 132.878C143.5 132.828 143.5 132.779 143.5 132.73C143.5 132.68 143.5 132.631 143.5 132.582C143.5 132.532 143.5 132.483 143.5 132.434C143.5 132.385 143.5 132.335 143.5 132.286C143.5 132.237 143.5 132.188 143.5 132.139C143.5 132.09 143.5 132.04 143.5 131.991C143.5 131.942 143.5 131.893 143.5 131.844C143.5 131.795 143.5 131.746 143.5 131.697C143.5 131.648 143.5 131.599 143.5 131.55C143.5 131.501 143.5 131.452 143.5 131.403C143.5 131.354 143.5 131.305 143.5 131.257C143.5 131.208 143.5 131.159 143.5 131.11C143.5 131.061 143.5 131.012 143.5 130.964C143.5 130.915 143.5 130.866 143.5 130.817C143.5 130.769 143.5 130.72 143.5 130.671C143.5 130.622 143.5 130.574 143.5 130.525C143.5 130.477 143.5 130.428 143.5 130.379C143.5 130.331 143.5 130.282 143.5 130.234C143.5 130.185 143.5 130.137 143.5 130.088C143.5 130.04 143.5 129.991 143.5 129.943C143.5 129.894 143.5 129.846 143.5 129.797C143.5 129.749 143.5 129.701 143.5 129.652C143.5 129.604 143.5 129.556 143.5 129.507C143.5 129.459 143.5 129.411 143.5 129.363C143.5 129.314 143.5 129.266 143.5 129.218C143.5 129.17 143.5 129.122 143.5 129.073C143.5 129.025 143.5 128.977 143.5 128.929C143.5 128.881 143.5 128.833 143.5 128.785C143.5 128.737 143.5 128.689 143.5 128.641C143.5 128.593 143.5 128.545 143.5 128.497C143.5 128.449 143.5 128.401 143.5 128.353C143.5 128.305 143.5 128.257 143.5 128.209C143.5 128.162 143.5 128.114 143.5 128.066C143.5 128.018 143.5 127.971 143.5 127.923C143.5 127.875 143.5 127.827 143.5 127.78C143.5 127.732 143.5 127.684 143.5 127.637C143.5 127.589 143.5 127.541 143.5 127.494C143.5 127.446 143.5 127.399 143.5 127.351C143.5 127.304 143.5 127.256 143.5 127.209C143.5 127.161 143.5 127.114 143.5 127.066C143.5 127.019 143.5 126.972 143.5 126.924C143.5 126.877 143.5 126.83 143.5 126.782C143.5 126.735 143.5 126.688 143.5 126.64C143.5 126.593 143.5 126.546 143.5 126.499C143.5 126.452 143.5 126.404 143.5 126.357C143.5 126.31 143.5 126.263 143.5 126.216C143.5 126.169 143.5 126.122 143.5 126.075C143.5 126.028 143.5 125.981 143.5 125.934C143.5 125.887 143.5 125.84 143.5 125.793C143.5 125.746 143.5 125.699 143.5 125.652C143.5 125.605 143.5 125.558 143.5 125.512C143.5 125.465 143.5 125.418 143.5 125.371C143.5 125.325 143.5 125.278 143.5 125.231C143.5 125.184 143.5 125.138 143.5 125.091C143.5 125.044 143.5 124.998 143.5 124.951C143.5 124.905 143.5 124.858 143.5 124.812C143.5 124.765 143.5 124.719 143.5 124.672C143.5 124.626 143.5 124.579 143.5 124.533C143.5 124.486 143.5 124.44 143.5 124.394C143.5 124.347 143.5 124.301 143.5 124.255C143.5 124.208 143.5 124.162 143.5 124.116C143.5 124.07 143.5 124.024 143.5 123.977C143.5 123.931 143.5 123.885 143.5 123.839C143.5 123.793 143.5 123.747 143.5 123.701C143.5 123.655 143.5 123.609 143.5 123.563C143.5 123.517 143.5 123.471 143.5 123.425C143.5 123.379 143.5 123.333 143.5 123.287C143.5 123.241 143.5 123.195 143.5 123.149C143.5 123.104 143.5 123.058 143.5 123.012C143.5 122.966 143.5 122.921 143.5 122.875C143.5 122.829 143.5 122.784 143.5 122.738C143.5 122.692 143.5 122.647 143.5 122.601C143.5 122.556 143.5 122.51 143.5 122.465C143.5 122.419 143.5 122.374 143.5 122.328C143.5 122.283 143.5 122.237 143.5 122.192C143.5 122.146 143.5 122.101 143.5 122.056C143.5 122.011 143.5 121.965 143.5 121.92C143.5 121.875 143.5 121.829 143.5 121.784C143.5 121.739 143.5 121.694 143.5 121.649C143.5 121.604 143.5 121.559 143.5 121.513C143.5 121.468 143.5 121.423 143.5 121.378C143.5 121.333 143.5 121.288 143.5 121.243C143.5 121.198 143.5 121.154 143.5 121.109C143.5 121.064 143.5 121.019 143.5 120.974C143.5 120.929 143.5 120.885 143.5 120.84C143.5 120.795 143.5 120.75 143.5 120.706C143.5 120.661 143.5 120.616 143.5 120.572C143.5 120.527 143.5 120.483 143.5 120.438C143.5 120.393 143.5 120.349 143.5 120.304C143.5 120.26 143.5 120.215 143.5 120.171C143.5 120.127 143.5 120.082 143.5 120.038C143.5 119.993 143.5 119.949 143.5 119.905C143.5 119.861 143.5 119.816 143.5 119.772C143.5 119.728 143.5 119.684 143.5 119.64C143.5 119.595 143.5 119.551 143.5 119.507C143.5 119.463 143.5 119.419 143.5 119.375C143.5 119.331 143.5 119.287 143.5 119.243C143.5 119.199 143.5 119.155 143.5 119.111C143.5 119.067 143.5 119.024 143.5 118.98C143.5 118.936 143.5 118.892 143.5 118.848C143.5 118.805 143.5 118.761 143.5 118.717C143.5 118.674 143.5 118.63 143.5 118.586C143.5 118.543 143.5 118.499 143.5 118.455C143.5 118.412 143.5 118.368 143.5 118.325C143.5 118.281 143.5 118.238 143.5 118.195C143.5 118.151 143.5 118.108 143.5 118.065C143.5 118.021 143.5 117.978 143.5 117.935C143.5 117.891 143.5 117.848 143.5 117.805C143.5 117.762 143.5 117.719 143.5 117.675C143.5 117.632 143.5 117.589 143.5 117.546C143.5 117.503 143.5 117.46 143.5 117.417C143.5 117.374 143.5 117.331 143.5 117.288C143.5 117.245 143.5 117.202 143.5 117.16C143.5 117.117 143.5 117.074 143.5 117.031C143.5 116.988 143.5 116.946 143.5 116.903C143.5 116.86 143.5 116.818 143.5 116.775C143.5 116.732 143.5 116.69 143.5 116.647C143.5 116.605 143.5 116.562 143.5 116.52C143.5 116.477 143.5 116.435 143.5 116.392C143.5 116.35 143.5 116.307 143.5 116.265C143.5 116.223 143.5 116.181 143.5 116.138C143.5 116.096 143.5 116.054 143.5 116.012C143.5 115.969 143.5 115.927 143.5 115.885C143.5 115.843 143.5 115.801 143.5 115.759C143.5 115.717 143.5 115.675 143.5 115.633C143.5 115.591 143.5 115.549 143.5 115.507C143.5 115.465 143.5 115.423 143.5 115.381C143.5 115.34 143.5 115.298 143.5 115.256C143.5 115.214 143.5 115.173 143.5 115.131C143.5 115.089 143.5 115.048 143.5 115.006C143.5 114.964 143.5 114.923 143.5 114.881C143.5 114.84 143.5 114.798 143.5 114.757C143.5 114.716 143.5 114.674 143.5 114.633C143.5 114.591 143.5 114.55 143.5 114.509C143.5 114.467 143.5 114.426 143.5 114.385C143.5 114.344 143.5 114.303 143.5 114.261C143.5 114.22 143.5 114.179 143.5 114.138C143.5 114.097 143.5 114.056 143.5 114.015C143.5 113.974 143.5 113.933 143.5 113.892C143.5 113.851 143.5 113.811 143.5 113.77C143.5 113.729 143.5 113.688 143.5 113.647C143.5 113.607 143.5 113.566 143.5 113.525C143.5 113.485 143.5 113.444 143.5 113.403C143.5 113.363 143.5 113.322 143.5 113.282C143.5 113.241 143.5 113.201 143.5 113.16C143.5 113.12 143.5 113.079 143.5 113.039C143.5 112.999 143.5 112.958 143.5 112.918C143.5 112.878 143.5 112.838 143.5 112.797C143.5 112.757 143.5 112.717 143.5 112.677C143.5 112.637 143.5 112.597 143.5 112.557C143.5 112.517 143.5 112.477 143.5 112.437C143.5 112.397 143.5 112.357 143.5 112.317C143.5 112.277 143.5 112.237 143.5 112.197C143.5 112.158 143.5 112.118 143.5 112.078C143.5 112.038 143.5 111.999 143.5 111.959C143.5 111.919 143.5 111.88 143.5 111.84C143.5 111.801 143.5 111.761 143.5 111.722C143.5 111.682 143.5 111.643 143.5 111.604C143.5 111.564 143.5 111.525 143.5 111.486C143.5 111.446 143.5 111.407 143.5 111.368C143.5 111.328 143.5 111.289 143.5 111.25C143.5 111.211 143.5 111.172 143.5 111.133C143.5 111.094 143.5 111.055 143.5 111.016C143.5 110.977 143.5 110.938 143.5 110.899C143.5 110.86 143.5 110.821 143.5 110.783C143.5 110.744 143.5 110.705 143.5 110.666C143.5 110.628 143.5 110.589 143.5 110.55C143.5 110.512 143.5 110.473 143.5 110.434C143.5 110.396 143.5 110.357 143.5 110.319C143.5 110.28 143.5 110.242 143.5 110.204C143.5 110.165 143.5 110.127 143.5 110.089C143.5 110.05 143.5 110.012 143.5 109.974C143.5 109.936 143.5 109.897 143.5 109.859C143.5 109.821 143.5 109.783 143.5 109.745C143.5 109.707 143.5 109.669 143.5 109.631C143.5 109.593 143.5 109.555 143.5 109.517C143.5 109.479 143.5 109.442 143.5 109.404C143.5 109.366 143.5 109.328 143.5 109.291C143.5 109.253 143.5 109.215 143.5 109.178C143.5 109.14 143.5 109.103 143.5 109.065C143.5 109.028 143.5 108.99 143.5 108.953C143.5 108.915 143.5 108.878 143.5 108.84C143.5 108.803 143.5 108.766 143.5 108.729C143.5 108.691 143.5 108.654 143.5 108.617C143.5 108.58 143.5 108.543 143.5 108.506C143.5 108.468 143.5 108.431 143.5 108.394C143.5 108.357 143.5 108.321 143.5 108.284C143.5 108.247 143.5 108.21 143.5 108.173C143.5 108.136 143.5 108.1 143.5 108.063C143.5 108.026 143.5 107.989 143.5 107.953C143.5 107.916 143.5 107.88 143.5 107.843C143.5 107.806 143.5 107.77 143.5 107.734C143.5 107.697 143.5 107.661 143.5 107.624C143.5 107.588 143.5 107.552 143.5 107.515C143.5 107.479 143.5 107.443 143.5 107.407C143.5 107.371 143.5 107.334 143.5 107.298C143.5 107.262 143.5 107.226 143.5 107.19C143.5 107.154 143.5 107.118 143.5 107.082C143.5 107.046 143.5 107.011 143.5 106.975C143.5 106.939 143.5 106.903 143.5 106.867C143.5 106.832 143.5 106.796 143.5 106.76C143.5 106.725 143.5 106.689 143.5 106.654C143.5 106.618 143.5 106.583 143.5 106.547C143.5 106.512 143.5 106.476 143.5 106.441C143.5 106.406 143.5 106.37 143.5 106.335C143.5 106.3 143.5 106.265 143.5 106.23C143.5 106.194 143.5 106.159 143.5 106.124C143.5 106.089 143.5 106.054 143.5 106.019C143.5 105.984 143.5 105.949 143.5 105.914C143.5 105.879 143.5 105.845 143.5 105.81C143.5 105.775 143.5 105.74 143.5 105.706C143.5 105.671 143.5 105.636 143.5 105.602C143.5 105.567 143.5 105.533 143.5 105.498C143.5 105.464 143.5 105.429 143.5 105.395C143.5 105.36 143.5 105.326 143.5 105.292C143.5 105.257 143.5 105.223 143.5 105.189C143.5 105.155 143.5 105.121 143.5 105.086C143.5 105.052 143.5 105.018 143.5 104.984C143.5 104.95 143.5 104.916 143.5 104.882C143.5 104.848 143.5 104.815 143.5 104.781C143.5 104.747 143.5 104.713 143.5 104.679C143.5 104.646 143.5 104.612 143.5 104.578C143.5 104.545 143.5 104.511 143.5 104.478C143.5 104.444 143.5 104.411 143.5 104.377C143.5 104.344 143.5 104.31 143.5 104.277C143.5 104.244 143.5 104.21 143.5 104.177C143.5 104.144 143.5 104.111 143.5 104.078C143.5 104.044 143.5 104.011 143.5 103.978C143.5 103.945 143.5 103.912 143.5 103.879C143.5 103.846 143.5 103.814 143.5 103.781C143.5 103.748 143.5 103.715 143.5 103.682C143.5 103.65 143.5 103.617 143.5 103.584C143.5 103.552 143.5 103.519 143.5 103.487C143.5 103.454 143.5 103.421 143.5 103.389C143.5 103.357 143.5 103.324 143.5 103.292C143.5 103.26 143.5 103.227 143.5 103.195C143.5 103.163 143.5 103.131 143.5 103.098C143.5 103.066 143.5 103.034 143.5 103.002C143.5 102.97 143.5 102.938 143.5 102.906C143.5 102.874 143.5 102.842 143.5 102.811C143.5 102.779 143.5 102.747 143.5 102.715C143.5 102.684 143.5 102.652 143.5 102.62C143.5 102.589 143.5 102.557 143.5 102.526C143.5 102.494 143.5 102.463 143.5 102.431C143.5 102.4 143.5 102.368 143.5 102.337C143.5 102.306 143.5 102.274 143.5 102.243C143.5 102.212 143.5 102.181 143.5 102.15C143.5 102.119 143.5 102.088 143.5 102.057C143.5 102.026 143.5 101.995 143.5 101.964C143.5 101.933 143.5 101.902 143.5 101.871C143.5 101.84 143.5 101.81 143.5 101.779C143.5 101.748 143.5 101.718 143.5 101.687C143.5 101.656 143.5 101.626 143.5 101.595L141.5 101.595Z" fill="#5EBFF7"/>
<path d="M185.905 211.86H183.841L182.137 214.44L180.433 211.86H178.045L180.913 216.024L177.853 220.5H180.001L181.849 217.572L183.709 220.5H186.145L183.085 215.892L185.905 211.86Z" fill="#5EBFF7"/>
<path d="M129.492 132.355L128.004 137.227L126.624 132.355H124.632L126.876 138.595H127.404C127.248 139.303 126.984 139.603 126.552 139.603C126.396 139.603 126.168 139.591 125.784 139.495V140.803C126.12 140.887 126.468 140.935 126.792 140.935C127.932 140.935 128.568 140.347 129.132 138.727L131.364 132.355H129.492Z" fill="#5EBFF7"/>
</svg>
