<svg width="362" height="250" viewBox="0 0 362 250" fill="none" xmlns="http://www.w3.org/2000/svg">
<rect width="362" height="250" rx="16" fill="#1A1A1A"/>
<rect x="63" y="33.5" width="88" height="30" rx="11" fill="#DDF2AE"/>
<rect x="63" y="33.5" width="88" height="30" rx="11" stroke="#93C437" stroke-width="2"/>
<path d="M91.56 50.268H93.24C93.432 51.564 94.488 52.396 96.2 52.396C98.12 52.396 99.096 51.468 99.096 50.38C99.096 49.308 98.568 48.812 95.464 47.964C92.792 47.228 91.96 46.284 91.96 44.7C91.96 43.02 93.448 41.74 96.088 41.74C98.552 41.74 100.36 42.908 100.648 44.86H98.968C98.792 43.74 97.816 43.084 96.088 43.084C94.328 43.084 93.592 43.772 93.592 44.636C93.592 45.532 93.976 45.964 96.616 46.7C99.816 47.596 100.728 48.54 100.728 50.316C100.728 52.108 99.096 53.74 96.232 53.74C93.752 53.74 91.88 52.38 91.56 50.268ZM104.205 43.788H102.477V41.98H104.205V43.788ZM104.109 53.5H102.573V45.18H104.109V53.5ZM112.466 46.636L107.522 52.188H112.466V53.5H105.714V52.044L110.658 46.476H105.954V45.18H112.466V46.636ZM119.737 51.1H121.401C120.985 52.62 119.673 53.74 117.673 53.74C115.305 53.74 113.593 52.268 113.593 49.34C113.593 46.444 115.289 44.94 117.593 44.94C119.897 44.94 121.497 46.316 121.497 49.676H115.161C115.289 51.596 116.329 52.444 117.721 52.444C118.729 52.444 119.497 51.868 119.737 51.1ZM115.225 48.46H119.929C119.817 46.908 118.905 46.172 117.625 46.172C116.393 46.172 115.465 46.924 115.225 48.46Z" fill="#35355E"/>
<rect x="62" y="129.5" width="50" height="50" rx="15" fill="#DDF2AE"/>
<rect x="174" y="91.5" width="126" height="126" rx="37.8" fill="#DDF2AE"/>
<path d="M174 154.5L164 148.726V160.274L174 154.5ZM106.226 154.5L112 160.274L117.774 154.5L112 148.726L106.226 154.5ZM165 153.5C164.976 153.5 164.952 153.5 164.928 153.5C164.904 153.5 164.879 153.5 164.855 153.5C164.831 153.5 164.807 153.5 164.782 153.5C164.758 153.5 164.734 153.5 164.709 153.5C164.685 153.5 164.66 153.5 164.636 153.5C164.611 153.5 164.587 153.5 164.562 153.5C164.538 153.5 164.513 153.5 164.489 153.5C164.464 153.5 164.439 153.5 164.415 153.5C164.39 153.5 164.365 153.5 164.341 153.5C164.316 153.5 164.291 153.5 164.266 153.5C164.242 153.5 164.217 153.5 164.192 153.5C164.167 153.5 164.142 153.5 164.117 153.5C164.092 153.5 164.067 153.5 164.042 153.5C164.017 153.5 163.992 153.5 163.967 153.5C163.942 153.5 163.917 153.5 163.892 153.5C163.867 153.5 163.842 153.5 163.816 153.5C163.791 153.5 163.766 153.5 163.741 153.5C163.716 153.5 163.69 153.5 163.665 153.5C163.64 153.5 163.614 153.5 163.589 153.5C163.564 153.5 163.538 153.5 163.513 153.5C163.487 153.5 163.462 153.5 163.436 153.5C163.411 153.5 163.385 153.5 163.36 153.5C163.334 153.5 163.308 153.5 163.283 153.5C163.257 153.5 163.232 153.5 163.206 153.5C163.18 153.5 163.154 153.5 163.129 153.5C163.103 153.5 163.077 153.5 163.051 153.5C163.025 153.5 163 153.5 162.974 153.5C162.948 153.5 162.922 153.5 162.896 153.5C162.87 153.5 162.844 153.5 162.818 153.5C162.792 153.5 162.766 153.5 162.74 153.5C162.714 153.5 162.688 153.5 162.662 153.5C162.635 153.5 162.609 153.5 162.583 153.5C162.557 153.5 162.531 153.5 162.504 153.5C162.478 153.5 162.452 153.5 162.425 153.5C162.399 153.5 162.373 153.5 162.346 153.5C162.32 153.5 162.294 153.5 162.267 153.5C162.241 153.5 162.214 153.5 162.188 153.5C162.161 153.5 162.135 153.5 162.108 153.5C162.082 153.5 162.055 153.5 162.028 153.5C162.002 153.5 161.975 153.5 161.948 153.5C161.922 153.5 161.895 153.5 161.868 153.5C161.841 153.5 161.815 153.5 161.788 153.5C161.761 153.5 161.734 153.5 161.707 153.5C161.68 153.5 161.654 153.5 161.627 153.5C161.6 153.5 161.573 153.5 161.546 153.5C161.519 153.5 161.492 153.5 161.465 153.5C161.438 153.5 161.411 153.5 161.383 153.5C161.356 153.5 161.329 153.5 161.302 153.5C161.275 153.5 161.248 153.5 161.22 153.5C161.193 153.5 161.166 153.5 161.139 153.5C161.111 153.5 161.084 153.5 161.057 153.5C161.029 153.5 161.002 153.5 160.974 153.5C160.947 153.5 160.92 153.5 160.892 153.5C160.865 153.5 160.837 153.5 160.81 153.5C160.782 153.5 160.755 153.5 160.727 153.5C160.699 153.5 160.672 153.5 160.644 153.5C160.617 153.5 160.589 153.5 160.561 153.5C160.533 153.5 160.506 153.5 160.478 153.5C160.45 153.5 160.422 153.5 160.395 153.5C160.367 153.5 160.339 153.5 160.311 153.5C160.283 153.5 160.255 153.5 160.227 153.5C160.199 153.5 160.171 153.5 160.143 153.5C160.115 153.5 160.087 153.5 160.059 153.5C160.031 153.5 160.003 153.5 159.975 153.5C159.947 153.5 159.919 153.5 159.891 153.5C159.863 153.5 159.834 153.5 159.806 153.5C159.778 153.5 159.75 153.5 159.721 153.5C159.693 153.5 159.665 153.5 159.637 153.5C159.608 153.5 159.58 153.5 159.551 153.5C159.523 153.5 159.495 153.5 159.466 153.5C159.438 153.5 159.409 153.5 159.381 153.5C159.352 153.5 159.324 153.5 159.295 153.5C159.267 153.5 159.238 153.5 159.209 153.5C159.181 153.5 159.152 153.5 159.124 153.5C159.095 153.5 159.066 153.5 159.037 153.5C159.009 153.5 158.98 153.5 158.951 153.5C158.922 153.5 158.894 153.5 158.865 153.5C158.836 153.5 158.807 153.5 158.778 153.5C158.749 153.5 158.72 153.5 158.691 153.5C158.663 153.5 158.634 153.5 158.605 153.5C158.576 153.5 158.547 153.5 158.518 153.5C158.488 153.5 158.459 153.5 158.43 153.5C158.401 153.5 158.372 153.5 158.343 153.5C158.314 153.5 158.285 153.5 158.255 153.5C158.226 153.5 158.197 153.5 158.168 153.5C158.138 153.5 158.109 153.5 158.08 153.5C158.05 153.5 158.021 153.5 157.992 153.5C157.962 153.5 157.933 153.5 157.903 153.5C157.874 153.5 157.845 153.5 157.815 153.5C157.786 153.5 157.756 153.5 157.727 153.5C157.697 153.5 157.667 153.5 157.638 153.5C157.608 153.5 157.579 153.5 157.549 153.5C157.519 153.5 157.49 153.5 157.46 153.5C157.43 153.5 157.401 153.5 157.371 153.5C157.341 153.5 157.311 153.5 157.282 153.5C157.252 153.5 157.222 153.5 157.192 153.5C157.162 153.5 157.132 153.5 157.102 153.5C157.073 153.5 157.043 153.5 157.013 153.5C156.983 153.5 156.953 153.5 156.923 153.5C156.893 153.5 156.863 153.5 156.833 153.5C156.803 153.5 156.772 153.5 156.742 153.5C156.712 153.5 156.682 153.5 156.652 153.5C156.622 153.5 156.592 153.5 156.561 153.5C156.531 153.5 156.501 153.5 156.471 153.5C156.44 153.5 156.41 153.5 156.38 153.5C156.35 153.5 156.319 153.5 156.289 153.5C156.258 153.5 156.228 153.5 156.198 153.5C156.167 153.5 156.137 153.5 156.106 153.5C156.076 153.5 156.045 153.5 156.015 153.5C155.984 153.5 155.954 153.5 155.923 153.5C155.893 153.5 155.862 153.5 155.831 153.5C155.801 153.5 155.77 153.5 155.74 153.5C155.709 153.5 155.678 153.5 155.647 153.5C155.617 153.5 155.586 153.5 155.555 153.5C155.525 153.5 155.494 153.5 155.463 153.5C155.432 153.5 155.401 153.5 155.37 153.5C155.34 153.5 155.309 153.5 155.278 153.5C155.247 153.5 155.216 153.5 155.185 153.5C155.154 153.5 155.123 153.5 155.092 153.5C155.061 153.5 155.03 153.5 154.999 153.5C154.968 153.5 154.937 153.5 154.906 153.5C154.875 153.5 154.843 153.5 154.812 153.5C154.781 153.5 154.75 153.5 154.719 153.5C154.688 153.5 154.656 153.5 154.625 153.5C154.594 153.5 154.563 153.5 154.531 153.5C154.5 153.5 154.469 153.5 154.437 153.5C154.406 153.5 154.375 153.5 154.343 153.5C154.312 153.5 154.28 153.5 154.249 153.5C154.218 153.5 154.186 153.5 154.155 153.5C154.123 153.5 154.092 153.5 154.06 153.5C154.029 153.5 153.997 153.5 153.965 153.5C153.934 153.5 153.902 153.5 153.871 153.5C153.839 153.5 153.807 153.5 153.776 153.5C153.744 153.5 153.712 153.5 153.681 153.5C153.649 153.5 153.617 153.5 153.585 153.5C153.554 153.5 153.522 153.5 153.49 153.5C153.458 153.5 153.426 153.5 153.394 153.5C153.363 153.5 153.331 153.5 153.299 153.5C153.267 153.5 153.235 153.5 153.203 153.5C153.171 153.5 153.139 153.5 153.107 153.5C153.075 153.5 153.043 153.5 153.011 153.5C152.979 153.5 152.947 153.5 152.915 153.5C152.883 153.5 152.851 153.5 152.819 153.5C152.786 153.5 152.754 153.5 152.722 153.5C152.69 153.5 152.658 153.5 152.626 153.5C152.593 153.5 152.561 153.5 152.529 153.5C152.497 153.5 152.464 153.5 152.432 153.5C152.4 153.5 152.367 153.5 152.335 153.5C152.303 153.5 152.27 153.5 152.238 153.5C152.206 153.5 152.173 153.5 152.141 153.5C152.108 153.5 152.076 153.5 152.043 153.5C152.011 153.5 151.978 153.5 151.946 153.5C151.913 153.5 151.881 153.5 151.848 153.5C151.816 153.5 151.783 153.5 151.75 153.5C151.718 153.5 151.685 153.5 151.652 153.5C151.62 153.5 151.587 153.5 151.554 153.5C151.522 153.5 151.489 153.5 151.456 153.5C151.424 153.5 151.391 153.5 151.358 153.5C151.325 153.5 151.292 153.5 151.26 153.5C151.227 153.5 151.194 153.5 151.161 153.5C151.128 153.5 151.095 153.5 151.062 153.5C151.029 153.5 150.997 153.5 150.964 153.5C150.931 153.5 150.898 153.5 150.865 153.5C150.832 153.5 150.799 153.5 150.766 153.5C150.733 153.5 150.7 153.5 150.666 153.5C150.633 153.5 150.6 153.5 150.567 153.5C150.534 153.5 150.501 153.5 150.468 153.5C150.435 153.5 150.401 153.5 150.368 153.5C150.335 153.5 150.302 153.5 150.269 153.5C150.235 153.5 150.202 153.5 150.169 153.5C150.136 153.5 150.102 153.5 150.069 153.5C150.036 153.5 150.002 153.5 149.969 153.5C149.936 153.5 149.902 153.5 149.869 153.5C149.835 153.5 149.802 153.5 149.768 153.5C149.735 153.5 149.702 153.5 149.668 153.5C149.635 153.5 149.601 153.5 149.568 153.5C149.534 153.5 149.501 153.5 149.467 153.5C149.433 153.5 149.4 153.5 149.366 153.5C149.333 153.5 149.299 153.5 149.265 153.5C149.232 153.5 149.198 153.5 149.164 153.5C149.131 153.5 149.097 153.5 149.063 153.5C149.03 153.5 148.996 153.5 148.962 153.5C148.928 153.5 148.895 153.5 148.861 153.5C148.827 153.5 148.793 153.5 148.759 153.5C148.725 153.5 148.692 153.5 148.658 153.5C148.624 153.5 148.59 153.5 148.556 153.5C148.522 153.5 148.488 153.5 148.454 153.5C148.42 153.5 148.386 153.5 148.352 153.5C148.318 153.5 148.284 153.5 148.25 153.5C148.216 153.5 148.182 153.5 148.148 153.5C148.114 153.5 148.08 153.5 148.046 153.5C148.012 153.5 147.978 153.5 147.944 153.5C147.91 153.5 147.875 153.5 147.841 153.5C147.807 153.5 147.773 153.5 147.739 153.5C147.704 153.5 147.67 153.5 147.636 153.5C147.602 153.5 147.567 153.5 147.533 153.5C147.499 153.5 147.465 153.5 147.43 153.5C147.396 153.5 147.362 153.5 147.327 153.5C147.293 153.5 147.258 153.5 147.224 153.5C147.19 153.5 147.155 153.5 147.121 153.5C147.086 153.5 147.052 153.5 147.018 153.5C146.983 153.5 146.949 153.5 146.914 153.5C146.88 153.5 146.845 153.5 146.811 153.5C146.776 153.5 146.741 153.5 146.707 153.5C146.672 153.5 146.638 153.5 146.603 153.5C146.568 153.5 146.534 153.5 146.499 153.5C146.465 153.5 146.43 153.5 146.395 153.5C146.361 153.5 146.326 153.5 146.291 153.5C146.256 153.5 146.222 153.5 146.187 153.5C146.152 153.5 146.117 153.5 146.083 153.5C146.048 153.5 146.013 153.5 145.978 153.5C145.943 153.5 145.909 153.5 145.874 153.5C145.839 153.5 145.804 153.5 145.769 153.5C145.734 153.5 145.699 153.5 145.664 153.5C145.63 153.5 145.595 153.5 145.56 153.5C145.525 153.5 145.49 153.5 145.455 153.5C145.42 153.5 145.385 153.5 145.35 153.5C145.315 153.5 145.28 153.5 145.245 153.5C145.21 153.5 145.175 153.5 145.139 153.5C145.104 153.5 145.069 153.5 145.034 153.5C144.999 153.5 144.964 153.5 144.929 153.5C144.894 153.5 144.858 153.5 144.823 153.5C144.788 153.5 144.753 153.5 144.718 153.5C144.682 153.5 144.647 153.5 144.612 153.5C144.577 153.5 144.541 153.5 144.506 153.5C144.471 153.5 144.436 153.5 144.4 153.5C144.365 153.5 144.33 153.5 144.294 153.5C144.259 153.5 144.224 153.5 144.188 153.5C144.153 153.5 144.117 153.5 144.082 153.5C144.047 153.5 144.011 153.5 143.976 153.5C143.94 153.5 143.905 153.5 143.869 153.5C143.834 153.5 143.798 153.5 143.763 153.5C143.727 153.5 143.692 153.5 143.656 153.5C143.621 153.5 143.585 153.5 143.55 153.5C143.514 153.5 143.479 153.5 143.443 153.5C143.407 153.5 143.372 153.5 143.336 153.5C143.301 153.5 143.265 153.5 143.229 153.5C143.194 153.5 143.158 153.5 143.122 153.5C143.087 153.5 143.051 153.5 143.015 153.5C142.98 153.5 142.944 153.5 142.908 153.5C142.872 153.5 142.837 153.5 142.801 153.5C142.765 153.5 142.729 153.5 142.693 153.5C142.658 153.5 142.622 153.5 142.586 153.5C142.55 153.5 142.514 153.5 142.478 153.5C142.443 153.5 142.407 153.5 142.371 153.5C142.335 153.5 142.299 153.5 142.263 153.5C142.227 153.5 142.191 153.5 142.155 153.5C142.119 153.5 142.083 153.5 142.047 153.5C142.011 153.5 141.975 153.5 141.939 153.5C141.903 153.5 141.867 153.5 141.831 153.5C141.795 153.5 141.759 153.5 141.723 153.5C141.687 153.5 141.651 153.5 141.615 153.5C141.579 153.5 141.543 153.5 141.507 153.5C141.471 153.5 141.434 153.5 141.398 153.5C141.362 153.5 141.326 153.5 141.29 153.5C141.254 153.5 141.217 153.5 141.181 153.5C141.145 153.5 141.109 153.5 141.073 153.5C141.036 153.5 141 153.5 140.964 153.5C140.928 153.5 140.891 153.5 140.855 153.5C140.819 153.5 140.783 153.5 140.746 153.5C140.71 153.5 140.674 153.5 140.637 153.5C140.601 153.5 140.565 153.5 140.528 153.5C140.492 153.5 140.455 153.5 140.419 153.5C140.383 153.5 140.346 153.5 140.31 153.5C140.273 153.5 140.237 153.5 140.201 153.5C140.164 153.5 140.128 153.5 140.091 153.5C140.055 153.5 140.018 153.5 139.982 153.5C139.945 153.5 139.909 153.5 139.872 153.5C139.836 153.5 139.799 153.5 139.763 153.5C139.726 153.5 139.69 153.5 139.653 153.5C139.617 153.5 139.58 153.5 139.543 153.5C139.507 153.5 139.47 153.5 139.434 153.5C139.397 153.5 139.36 153.5 139.324 153.5C139.287 153.5 139.25 153.5 139.214 153.5C139.177 153.5 139.14 153.5 139.104 153.5C139.067 153.5 139.03 153.5 138.994 153.5C138.957 153.5 138.92 153.5 138.883 153.5C138.847 153.5 138.81 153.5 138.773 153.5C138.736 153.5 138.7 153.5 138.663 153.5C138.626 153.5 138.589 153.5 138.552 153.5C138.516 153.5 138.479 153.5 138.442 153.5C138.405 153.5 138.368 153.5 138.331 153.5C138.295 153.5 138.258 153.5 138.221 153.5C138.184 153.5 138.147 153.5 138.11 153.5C138.073 153.5 138.036 153.5 137.999 153.5C137.962 153.5 137.926 153.5 137.889 153.5C137.852 153.5 137.815 153.5 137.778 153.5C137.741 153.5 137.704 153.5 137.667 153.5C137.63 153.5 137.593 153.5 137.556 153.5C137.519 153.5 137.482 153.5 137.445 153.5C137.408 153.5 137.371 153.5 137.334 153.5C137.296 153.5 137.259 153.5 137.222 153.5C137.185 153.5 137.148 153.5 137.111 153.5C137.074 153.5 137.037 153.5 137 153.5C136.963 153.5 136.925 153.5 136.888 153.5C136.851 153.5 136.814 153.5 136.777 153.5C136.74 153.5 136.702 153.5 136.665 153.5C136.628 153.5 136.591 153.5 136.554 153.5C136.517 153.5 136.479 153.5 136.442 153.5C136.405 153.5 136.368 153.5 136.33 153.5C136.293 153.5 136.256 153.5 136.219 153.5C136.181 153.5 136.144 153.5 136.107 153.5C136.069 153.5 136.032 153.5 135.995 153.5C135.958 153.5 135.92 153.5 135.883 153.5C135.846 153.5 135.808 153.5 135.771 153.5C135.733 153.5 135.696 153.5 135.659 153.5C135.621 153.5 135.584 153.5 135.547 153.5C135.509 153.5 135.472 153.5 135.434 153.5C135.397 153.5 135.36 153.5 135.322 153.5C135.285 153.5 135.247 153.5 135.21 153.5C135.172 153.5 135.135 153.5 135.098 153.5C135.06 153.5 135.023 153.5 134.985 153.5C134.948 153.5 134.91 153.5 134.873 153.5C134.835 153.5 134.798 153.5 134.76 153.5C134.723 153.5 134.685 153.5 134.647 153.5C134.61 153.5 134.572 153.5 134.535 153.5C134.497 153.5 134.46 153.5 134.422 153.5C134.385 153.5 134.347 153.5 134.309 153.5C134.272 153.5 134.234 153.5 134.197 153.5C134.159 153.5 134.121 153.5 134.084 153.5C134.046 153.5 134.008 153.5 133.971 153.5C133.933 153.5 133.896 153.5 133.858 153.5C133.82 153.5 133.783 153.5 133.745 153.5C133.707 153.5 133.669 153.5 133.632 153.5C133.594 153.5 133.556 153.5 133.519 153.5C133.481 153.5 133.443 153.5 133.406 153.5C133.368 153.5 133.33 153.5 133.292 153.5C133.255 153.5 133.217 153.5 133.179 153.5C133.141 153.5 133.104 153.5 133.066 153.5C133.028 153.5 132.99 153.5 132.952 153.5C132.915 153.5 132.877 153.5 132.839 153.5C132.801 153.5 132.763 153.5 132.726 153.5C132.688 153.5 132.65 153.5 132.612 153.5C132.574 153.5 132.536 153.5 132.498 153.5C132.461 153.5 132.423 153.5 132.385 153.5C132.347 153.5 132.309 153.5 132.271 153.5C132.233 153.5 132.195 153.5 132.158 153.5C132.12 153.5 132.082 153.5 132.044 153.5C132.006 153.5 131.968 153.5 131.93 153.5C131.892 153.5 131.854 153.5 131.816 153.5C131.778 153.5 131.74 153.5 131.702 153.5C131.664 153.5 131.627 153.5 131.589 153.5C131.551 153.5 131.513 153.5 131.475 153.5C131.437 153.5 131.399 153.5 131.361 153.5C131.323 153.5 131.285 153.5 131.247 153.5C131.209 153.5 131.171 153.5 131.133 153.5C131.095 153.5 131.057 153.5 131.018 153.5C130.98 153.5 130.942 153.5 130.904 153.5C130.866 153.5 130.828 153.5 130.79 153.5C130.752 153.5 130.714 153.5 130.676 153.5C130.638 153.5 130.6 153.5 130.562 153.5C130.524 153.5 130.486 153.5 130.447 153.5C130.409 153.5 130.371 153.5 130.333 153.5C130.295 153.5 130.257 153.5 130.219 153.5C130.181 153.5 130.142 153.5 130.104 153.5C130.066 153.5 130.028 153.5 129.99 153.5C129.952 153.5 129.914 153.5 129.875 153.5C129.837 153.5 129.799 153.5 129.761 153.5C129.723 153.5 129.685 153.5 129.646 153.5C129.608 153.5 129.57 153.5 129.532 153.5C129.494 153.5 129.455 153.5 129.417 153.5C129.379 153.5 129.341 153.5 129.303 153.5C129.264 153.5 129.226 153.5 129.188 153.5C129.15 153.5 129.111 153.5 129.073 153.5C129.035 153.5 128.997 153.5 128.958 153.5C128.92 153.5 128.882 153.5 128.844 153.5C128.805 153.5 128.767 153.5 128.729 153.5C128.691 153.5 128.652 153.5 128.614 153.5C128.576 153.5 128.537 153.5 128.499 153.5C128.461 153.5 128.423 153.5 128.384 153.5C128.346 153.5 128.308 153.5 128.269 153.5C128.231 153.5 128.193 153.5 128.154 153.5C128.116 153.5 128.078 153.5 128.039 153.5C128.001 153.5 127.963 153.5 127.924 153.5C127.886 153.5 127.848 153.5 127.809 153.5C127.771 153.5 127.733 153.5 127.694 153.5C127.656 153.5 127.618 153.5 127.579 153.5C127.541 153.5 127.503 153.5 127.464 153.5C127.426 153.5 127.387 153.5 127.349 153.5C127.311 153.5 127.272 153.5 127.234 153.5C127.196 153.5 127.157 153.5 127.119 153.5C127.08 153.5 127.042 153.5 127.004 153.5C126.965 153.5 126.927 153.5 126.888 153.5C126.85 153.5 126.811 153.5 126.773 153.5C126.735 153.5 126.696 153.5 126.658 153.5C126.619 153.5 126.581 153.5 126.542 153.5C126.504 153.5 126.466 153.5 126.427 153.5C126.389 153.5 126.35 153.5 126.312 153.5C126.273 153.5 126.235 153.5 126.196 153.5C126.158 153.5 126.12 153.5 126.081 153.5C126.043 153.5 126.004 153.5 125.966 153.5C125.927 153.5 125.889 153.5 125.85 153.5C125.812 153.5 125.773 153.5 125.735 153.5C125.696 153.5 125.658 153.5 125.619 153.5C125.581 153.5 125.542 153.5 125.504 153.5C125.465 153.5 125.427 153.5 125.388 153.5C125.35 153.5 125.311 153.5 125.273 153.5C125.234 153.5 125.196 153.5 125.157 153.5C125.119 153.5 125.08 153.5 125.042 153.5C125.003 153.5 124.965 153.5 124.926 153.5C124.888 153.5 124.849 153.5 124.811 153.5C124.772 153.5 124.734 153.5 124.695 153.5C124.657 153.5 124.618 153.5 124.58 153.5C124.541 153.5 124.503 153.5 124.464 153.5C124.425 153.5 124.387 153.5 124.348 153.5C124.31 153.5 124.271 153.5 124.233 153.5C124.194 153.5 124.156 153.5 124.117 153.5C124.079 153.5 124.04 153.5 124.001 153.5C123.963 153.5 123.924 153.5 123.886 153.5C123.847 153.5 123.809 153.5 123.77 153.5C123.732 153.5 123.693 153.5 123.654 153.5C123.616 153.5 123.577 153.5 123.539 153.5C123.5 153.5 123.462 153.5 123.423 153.5C123.384 153.5 123.346 153.5 123.307 153.5C123.269 153.5 123.23 153.5 123.192 153.5C123.153 153.5 123.114 153.5 123.076 153.5C123.037 153.5 122.999 153.5 122.96 153.5C122.922 153.5 122.883 153.5 122.844 153.5C122.806 153.5 122.767 153.5 122.729 153.5C122.69 153.5 122.651 153.5 122.613 153.5C122.574 153.5 122.536 153.5 122.497 153.5C122.459 153.5 122.42 153.5 122.381 153.5C122.343 153.5 122.304 153.5 122.266 153.5C122.227 153.5 122.188 153.5 122.15 153.5C122.111 153.5 122.073 153.5 122.034 153.5C121.995 153.5 121.957 153.5 121.918 153.5C121.88 153.5 121.841 153.5 121.802 153.5C121.764 153.5 121.725 153.5 121.687 153.5C121.648 153.5 121.609 153.5 121.571 153.5C121.532 153.5 121.494 153.5 121.455 153.5C121.416 153.5 121.378 153.5 121.339 153.5C121.301 153.5 121.262 153.5 121.223 153.5C121.185 153.5 121.146 153.5 121.108 153.5C121.069 153.5 121.031 153.5 120.992 153.5C120.953 153.5 120.915 153.5 120.876 153.5C120.838 153.5 120.799 153.5 120.76 153.5C120.722 153.5 120.683 153.5 120.645 153.5C120.606 153.5 120.567 153.5 120.529 153.5C120.49 153.5 120.452 153.5 120.413 153.5C120.374 153.5 120.336 153.5 120.297 153.5C120.259 153.5 120.22 153.5 120.181 153.5C120.143 153.5 120.104 153.5 120.066 153.5C120.027 153.5 119.988 153.5 119.95 153.5C119.911 153.5 119.873 153.5 119.834 153.5C119.796 153.5 119.757 153.5 119.718 153.5C119.68 153.5 119.641 153.5 119.603 153.5C119.564 153.5 119.525 153.5 119.487 153.5C119.448 153.5 119.41 153.5 119.371 153.5C119.333 153.5 119.294 153.5 119.255 153.5C119.217 153.5 119.178 153.5 119.14 153.5C119.101 153.5 119.063 153.5 119.024 153.5C118.985 153.5 118.947 153.5 118.908 153.5C118.87 153.5 118.831 153.5 118.793 153.5C118.754 153.5 118.715 153.5 118.677 153.5C118.638 153.5 118.6 153.5 118.561 153.5C118.523 153.5 118.484 153.5 118.446 153.5C118.407 153.5 118.368 153.5 118.33 153.5C118.291 153.5 118.253 153.5 118.214 153.5C118.176 153.5 118.137 153.5 118.099 153.5C118.06 153.5 118.022 153.5 117.983 153.5C117.944 153.5 117.906 153.5 117.867 153.5C117.829 153.5 117.79 153.5 117.752 153.5C117.713 153.5 117.675 153.5 117.636 153.5C117.598 153.5 117.559 153.5 117.521 153.5C117.482 153.5 117.444 153.5 117.405 153.5C117.367 153.5 117.328 153.5 117.29 153.5C117.251 153.5 117.213 153.5 117.174 153.5C117.136 153.5 117.097 153.5 117.059 153.5C117.02 153.5 116.982 153.5 116.943 153.5C116.905 153.5 116.866 153.5 116.828 153.5C116.789 153.5 116.751 153.5 116.712 153.5C116.674 153.5 116.635 153.5 116.597 153.5C116.558 153.5 116.52 153.5 116.481 153.5C116.443 153.5 116.404 153.5 116.366 153.5C116.328 153.5 116.289 153.5 116.251 153.5C116.212 153.5 116.174 153.5 116.135 153.5C116.097 153.5 116.058 153.5 116.02 153.5C115.982 153.5 115.943 153.5 115.905 153.5C115.866 153.5 115.828 153.5 115.789 153.5C115.751 153.5 115.713 153.5 115.674 153.5C115.636 153.5 115.597 153.5 115.559 153.5C115.52 153.5 115.482 153.5 115.444 153.5C115.405 153.5 115.367 153.5 115.328 153.5C115.29 153.5 115.252 153.5 115.213 153.5C115.175 153.5 115.137 153.5 115.098 153.5C115.06 153.5 115.021 153.5 114.983 153.5C114.945 153.5 114.906 153.5 114.868 153.5C114.83 153.5 114.791 153.5 114.753 153.5C114.714 153.5 114.676 153.5 114.638 153.5C114.599 153.5 114.561 153.5 114.523 153.5C114.484 153.5 114.446 153.5 114.408 153.5C114.369 153.5 114.331 153.5 114.293 153.5C114.254 153.5 114.216 153.5 114.178 153.5C114.14 153.5 114.101 153.5 114.063 153.5C114.025 153.5 113.986 153.5 113.948 153.5C113.91 153.5 113.872 153.5 113.833 153.5C113.795 153.5 113.757 153.5 113.718 153.5C113.68 153.5 113.642 153.5 113.604 153.5C113.565 153.5 113.527 153.5 113.489 153.5C113.451 153.5 113.412 153.5 113.374 153.5C113.336 153.5 113.298 153.5 113.259 153.5C113.221 153.5 113.183 153.5 113.145 153.5C113.107 153.5 113.068 153.5 113.03 153.5C112.992 153.5 112.954 153.5 112.916 153.5C112.877 153.5 112.839 153.5 112.801 153.5C112.763 153.5 112.725 153.5 112.686 153.5C112.648 153.5 112.61 153.5 112.572 153.5C112.534 153.5 112.496 153.5 112.457 153.5C112.419 153.5 112.381 153.5 112.343 153.5C112.305 153.5 112.267 153.5 112.229 153.5C112.191 153.5 112.152 153.5 112.114 153.5C112.076 153.5 112.038 153.5 112 153.5V155.5C112.038 155.5 112.076 155.5 112.114 155.5C112.152 155.5 112.191 155.5 112.229 155.5C112.267 155.5 112.305 155.5 112.343 155.5C112.381 155.5 112.419 155.5 112.457 155.5C112.496 155.5 112.534 155.5 112.572 155.5C112.61 155.5 112.648 155.5 112.686 155.5C112.725 155.5 112.763 155.5 112.801 155.5C112.839 155.5 112.877 155.5 112.916 155.5C112.954 155.5 112.992 155.5 113.03 155.5C113.068 155.5 113.107 155.5 113.145 155.5C113.183 155.5 113.221 155.5 113.259 155.5C113.298 155.5 113.336 155.5 113.374 155.5C113.412 155.5 113.451 155.5 113.489 155.5C113.527 155.5 113.565 155.5 113.604 155.5C113.642 155.5 113.68 155.5 113.718 155.5C113.757 155.5 113.795 155.5 113.833 155.5C113.872 155.5 113.91 155.5 113.948 155.5C113.986 155.5 114.025 155.5 114.063 155.5C114.101 155.5 114.14 155.5 114.178 155.5C114.216 155.5 114.254 155.5 114.293 155.5C114.331 155.5 114.369 155.5 114.408 155.5C114.446 155.5 114.484 155.5 114.523 155.5C114.561 155.5 114.599 155.5 114.638 155.5C114.676 155.5 114.714 155.5 114.753 155.5C114.791 155.5 114.83 155.5 114.868 155.5C114.906 155.5 114.945 155.5 114.983 155.5C115.021 155.5 115.06 155.5 115.098 155.5C115.137 155.5 115.175 155.5 115.213 155.5C115.252 155.5 115.29 155.5 115.328 155.5C115.367 155.5 115.405 155.5 115.444 155.5C115.482 155.5 115.52 155.5 115.559 155.5C115.597 155.5 115.636 155.5 115.674 155.5C115.713 155.5 115.751 155.5 115.789 155.5C115.828 155.5 115.866 155.5 115.905 155.5C115.943 155.5 115.982 155.5 116.02 155.5C116.058 155.5 116.097 155.5 116.135 155.5C116.174 155.5 116.212 155.5 116.251 155.5C116.289 155.5 116.328 155.5 116.366 155.5C116.404 155.5 116.443 155.5 116.481 155.5C116.52 155.5 116.558 155.5 116.597 155.5C116.635 155.5 116.674 155.5 116.712 155.5C116.751 155.5 116.789 155.5 116.828 155.5C116.866 155.5 116.905 155.5 116.943 155.5C116.982 155.5 117.02 155.5 117.059 155.5C117.097 155.5 117.136 155.5 117.174 155.5C117.213 155.5 117.251 155.5 117.29 155.5C117.328 155.5 117.367 155.5 117.405 155.5C117.444 155.5 117.482 155.5 117.521 155.5C117.559 155.5 117.598 155.5 117.636 155.5C117.675 155.5 117.713 155.5 117.752 155.5C117.79 155.5 117.829 155.5 117.867 155.5C117.906 155.5 117.944 155.5 117.983 155.5C118.022 155.5 118.06 155.5 118.099 155.5C118.137 155.5 118.176 155.5 118.214 155.5C118.253 155.5 118.291 155.5 118.33 155.5C118.368 155.5 118.407 155.5 118.446 155.5C118.484 155.5 118.523 155.5 118.561 155.5C118.6 155.5 118.638 155.5 118.677 155.5C118.715 155.5 118.754 155.5 118.793 155.5C118.831 155.5 118.87 155.5 118.908 155.5C118.947 155.5 118.985 155.5 119.024 155.5C119.063 155.5 119.101 155.5 119.14 155.5C119.178 155.5 119.217 155.5 119.255 155.5C119.294 155.5 119.333 155.5 119.371 155.5C119.41 155.5 119.448 155.5 119.487 155.5C119.525 155.5 119.564 155.5 119.603 155.5C119.641 155.5 119.68 155.5 119.718 155.5C119.757 155.5 119.796 155.5 119.834 155.5C119.873 155.5 119.911 155.5 119.95 155.5C119.988 155.5 120.027 155.5 120.066 155.5C120.104 155.5 120.143 155.5 120.181 155.5C120.22 155.5 120.259 155.5 120.297 155.5C120.336 155.5 120.374 155.5 120.413 155.5C120.452 155.5 120.49 155.5 120.529 155.5C120.567 155.5 120.606 155.5 120.645 155.5C120.683 155.5 120.722 155.5 120.76 155.5C120.799 155.5 120.838 155.5 120.876 155.5C120.915 155.5 120.953 155.5 120.992 155.5C121.031 155.5 121.069 155.5 121.108 155.5C121.146 155.5 121.185 155.5 121.223 155.5C121.262 155.5 121.301 155.5 121.339 155.5C121.378 155.5 121.416 155.5 121.455 155.5C121.494 155.5 121.532 155.5 121.571 155.5C121.609 155.5 121.648 155.5 121.687 155.5C121.725 155.5 121.764 155.5 121.802 155.5C121.841 155.5 121.88 155.5 121.918 155.5C121.957 155.5 121.995 155.5 122.034 155.5C122.073 155.5 122.111 155.5 122.15 155.5C122.188 155.5 122.227 155.5 122.266 155.5C122.304 155.5 122.343 155.5 122.381 155.5C122.42 155.5 122.459 155.5 122.497 155.5C122.536 155.5 122.574 155.5 122.613 155.5C122.651 155.5 122.69 155.5 122.729 155.5C122.767 155.5 122.806 155.5 122.844 155.5C122.883 155.5 122.922 155.5 122.96 155.5C122.999 155.5 123.037 155.5 123.076 155.5C123.114 155.5 123.153 155.5 123.192 155.5C123.23 155.5 123.269 155.5 123.307 155.5C123.346 155.5 123.384 155.5 123.423 155.5C123.462 155.5 123.5 155.5 123.539 155.5C123.577 155.5 123.616 155.5 123.654 155.5C123.693 155.5 123.732 155.5 123.77 155.5C123.809 155.5 123.847 155.5 123.886 155.5C123.924 155.5 123.963 155.5 124.001 155.5C124.04 155.5 124.079 155.5 124.117 155.5C124.156 155.5 124.194 155.5 124.233 155.5C124.271 155.5 124.31 155.5 124.348 155.5C124.387 155.5 124.425 155.5 124.464 155.5C124.503 155.5 124.541 155.5 124.58 155.5C124.618 155.5 124.657 155.5 124.695 155.5C124.734 155.5 124.772 155.5 124.811 155.5C124.849 155.5 124.888 155.5 124.926 155.5C124.965 155.5 125.003 155.5 125.042 155.5C125.08 155.5 125.119 155.5 125.157 155.5C125.196 155.5 125.234 155.5 125.273 155.5C125.311 155.5 125.35 155.5 125.388 155.5C125.427 155.5 125.465 155.5 125.504 155.5C125.542 155.5 125.581 155.5 125.619 155.5C125.658 155.5 125.696 155.5 125.735 155.5C125.773 155.5 125.812 155.5 125.85 155.5C125.889 155.5 125.927 155.5 125.966 155.5C126.004 155.5 126.043 155.5 126.081 155.5C126.12 155.5 126.158 155.5 126.196 155.5C126.235 155.5 126.273 155.5 126.312 155.5C126.35 155.5 126.389 155.5 126.427 155.5C126.466 155.5 126.504 155.5 126.542 155.5C126.581 155.5 126.619 155.5 126.658 155.5C126.696 155.5 126.735 155.5 126.773 155.5C126.811 155.5 126.85 155.5 126.888 155.5C126.927 155.5 126.965 155.5 127.004 155.5C127.042 155.5 127.08 155.5 127.119 155.5C127.157 155.5 127.196 155.5 127.234 155.5C127.272 155.5 127.311 155.5 127.349 155.5C127.387 155.5 127.426 155.5 127.464 155.5C127.503 155.5 127.541 155.5 127.579 155.5C127.618 155.5 127.656 155.5 127.694 155.5C127.733 155.5 127.771 155.5 127.809 155.5C127.848 155.5 127.886 155.5 127.924 155.5C127.963 155.5 128.001 155.5 128.039 155.5C128.078 155.5 128.116 155.5 128.154 155.5C128.193 155.5 128.231 155.5 128.269 155.5C128.308 155.5 128.346 155.5 128.384 155.5C128.423 155.5 128.461 155.5 128.499 155.5C128.537 155.5 128.576 155.5 128.614 155.5C128.652 155.5 128.691 155.5 128.729 155.5C128.767 155.5 128.805 155.5 128.844 155.5C128.882 155.5 128.92 155.5 128.958 155.5C128.997 155.5 129.035 155.5 129.073 155.5C129.111 155.5 129.15 155.5 129.188 155.5C129.226 155.5 129.264 155.5 129.303 155.5C129.341 155.5 129.379 155.5 129.417 155.5C129.455 155.5 129.494 155.5 129.532 155.5C129.57 155.5 129.608 155.5 129.646 155.5C129.685 155.5 129.723 155.5 129.761 155.5C129.799 155.5 129.837 155.5 129.875 155.5C129.914 155.5 129.952 155.5 129.99 155.5C130.028 155.5 130.066 155.5 130.104 155.5C130.142 155.5 130.181 155.5 130.219 155.5C130.257 155.5 130.295 155.5 130.333 155.5C130.371 155.5 130.409 155.5 130.447 155.5C130.486 155.5 130.524 155.5 130.562 155.5C130.6 155.5 130.638 155.5 130.676 155.5C130.714 155.5 130.752 155.5 130.79 155.5C130.828 155.5 130.866 155.5 130.904 155.5C130.942 155.5 130.98 155.5 131.018 155.5C131.057 155.5 131.095 155.5 131.133 155.5C131.171 155.5 131.209 155.5 131.247 155.5C131.285 155.5 131.323 155.5 131.361 155.5C131.399 155.5 131.437 155.5 131.475 155.5C131.513 155.5 131.551 155.5 131.589 155.5C131.627 155.5 131.664 155.5 131.702 155.5C131.74 155.5 131.778 155.5 131.816 155.5C131.854 155.5 131.892 155.5 131.93 155.5C131.968 155.5 132.006 155.5 132.044 155.5C132.082 155.5 132.12 155.5 132.158 155.5C132.195 155.5 132.233 155.5 132.271 155.5C132.309 155.5 132.347 155.5 132.385 155.5C132.423 155.5 132.461 155.5 132.498 155.5C132.536 155.5 132.574 155.5 132.612 155.5C132.65 155.5 132.688 155.5 132.726 155.5C132.763 155.5 132.801 155.5 132.839 155.5C132.877 155.5 132.915 155.5 132.952 155.5C132.99 155.5 133.028 155.5 133.066 155.5C133.104 155.5 133.141 155.5 133.179 155.5C133.217 155.5 133.255 155.5 133.292 155.5C133.33 155.5 133.368 155.5 133.406 155.5C133.443 155.5 133.481 155.5 133.519 155.5C133.556 155.5 133.594 155.5 133.632 155.5C133.669 155.5 133.707 155.5 133.745 155.5C133.783 155.5 133.82 155.5 133.858 155.5C133.896 155.5 133.933 155.5 133.971 155.5C134.008 155.5 134.046 155.5 134.084 155.5C134.121 155.5 134.159 155.5 134.197 155.5C134.234 155.5 134.272 155.5 134.309 155.5C134.347 155.5 134.385 155.5 134.422 155.5C134.46 155.5 134.497 155.5 134.535 155.5C134.572 155.5 134.61 155.5 134.647 155.5C134.685 155.5 134.723 155.5 134.76 155.5C134.798 155.5 134.835 155.5 134.873 155.5C134.91 155.5 134.948 155.5 134.985 155.5C135.023 155.5 135.06 155.5 135.098 155.5C135.135 155.5 135.172 155.5 135.21 155.5C135.247 155.5 135.285 155.5 135.322 155.5C135.36 155.5 135.397 155.5 135.434 155.5C135.472 155.5 135.509 155.5 135.547 155.5C135.584 155.5 135.621 155.5 135.659 155.5C135.696 155.5 135.733 155.5 135.771 155.5C135.808 155.5 135.846 155.5 135.883 155.5C135.92 155.5 135.958 155.5 135.995 155.5C136.032 155.5 136.069 155.5 136.107 155.5C136.144 155.5 136.181 155.5 136.219 155.5C136.256 155.5 136.293 155.5 136.33 155.5C136.368 155.5 136.405 155.5 136.442 155.5C136.479 155.5 136.517 155.5 136.554 155.5C136.591 155.5 136.628 155.5 136.665 155.5C136.702 155.5 136.74 155.5 136.777 155.5C136.814 155.5 136.851 155.5 136.888 155.5C136.925 155.5 136.963 155.5 137 155.5C137.037 155.5 137.074 155.5 137.111 155.5C137.148 155.5 137.185 155.5 137.222 155.5C137.259 155.5 137.296 155.5 137.334 155.5C137.371 155.5 137.408 155.5 137.445 155.5C137.482 155.5 137.519 155.5 137.556 155.5C137.593 155.5 137.63 155.5 137.667 155.5C137.704 155.5 137.741 155.5 137.778 155.5C137.815 155.5 137.852 155.5 137.889 155.5C137.926 155.5 137.962 155.5 137.999 155.5C138.036 155.5 138.073 155.5 138.11 155.5C138.147 155.5 138.184 155.5 138.221 155.5C138.258 155.5 138.295 155.5 138.331 155.5C138.368 155.5 138.405 155.5 138.442 155.5C138.479 155.5 138.516 155.5 138.552 155.5C138.589 155.5 138.626 155.5 138.663 155.5C138.7 155.5 138.736 155.5 138.773 155.5C138.81 155.5 138.847 155.5 138.883 155.5C138.92 155.5 138.957 155.5 138.994 155.5C139.03 155.5 139.067 155.5 139.104 155.5C139.14 155.5 139.177 155.5 139.214 155.5C139.25 155.5 139.287 155.5 139.324 155.5C139.36 155.5 139.397 155.5 139.434 155.5C139.47 155.5 139.507 155.5 139.543 155.5C139.58 155.5 139.617 155.5 139.653 155.5C139.69 155.5 139.726 155.5 139.763 155.5C139.799 155.5 139.836 155.5 139.872 155.5C139.909 155.5 139.945 155.5 139.982 155.5C140.018 155.5 140.055 155.5 140.091 155.5C140.128 155.5 140.164 155.5 140.201 155.5C140.237 155.5 140.273 155.5 140.31 155.5C140.346 155.5 140.383 155.5 140.419 155.5C140.455 155.5 140.492 155.5 140.528 155.5C140.565 155.5 140.601 155.5 140.637 155.5C140.674 155.5 140.71 155.5 140.746 155.5C140.783 155.5 140.819 155.5 140.855 155.5C140.891 155.5 140.928 155.5 140.964 155.5C141 155.5 141.036 155.5 141.073 155.5C141.109 155.5 141.145 155.5 141.181 155.5C141.217 155.5 141.254 155.5 141.29 155.5C141.326 155.5 141.362 155.5 141.398 155.5C141.434 155.5 141.471 155.5 141.507 155.5C141.543 155.5 141.579 155.5 141.615 155.5C141.651 155.5 141.687 155.5 141.723 155.5C141.759 155.5 141.795 155.5 141.831 155.5C141.867 155.5 141.903 155.5 141.939 155.5C141.975 155.5 142.011 155.5 142.047 155.5C142.083 155.5 142.119 155.5 142.155 155.5C142.191 155.5 142.227 155.5 142.263 155.5C142.299 155.5 142.335 155.5 142.371 155.5C142.407 155.5 142.443 155.5 142.478 155.5C142.514 155.5 142.55 155.5 142.586 155.5C142.622 155.5 142.658 155.5 142.693 155.5C142.729 155.5 142.765 155.5 142.801 155.5C142.837 155.5 142.872 155.5 142.908 155.5C142.944 155.5 142.98 155.5 143.015 155.5C143.051 155.5 143.087 155.5 143.122 155.5C143.158 155.5 143.194 155.5 143.229 155.5C143.265 155.5 143.301 155.5 143.336 155.5C143.372 155.5 143.407 155.5 143.443 155.5C143.479 155.5 143.514 155.5 143.55 155.5C143.585 155.5 143.621 155.5 143.656 155.5C143.692 155.5 143.727 155.5 143.763 155.5C143.798 155.5 143.834 155.5 143.869 155.5C143.905 155.5 143.94 155.5 143.976 155.5C144.011 155.5 144.047 155.5 144.082 155.5C144.117 155.5 144.153 155.5 144.188 155.5C144.224 155.5 144.259 155.5 144.294 155.5C144.33 155.5 144.365 155.5 144.4 155.5C144.436 155.5 144.471 155.5 144.506 155.5C144.541 155.5 144.577 155.5 144.612 155.5C144.647 155.5 144.682 155.5 144.718 155.5C144.753 155.5 144.788 155.5 144.823 155.5C144.858 155.5 144.894 155.5 144.929 155.5C144.964 155.5 144.999 155.5 145.034 155.5C145.069 155.5 145.104 155.5 145.139 155.5C145.175 155.5 145.21 155.5 145.245 155.5C145.28 155.5 145.315 155.5 145.35 155.5C145.385 155.5 145.42 155.5 145.455 155.5C145.49 155.5 145.525 155.5 145.56 155.5C145.595 155.5 145.63 155.5 145.664 155.5C145.699 155.5 145.734 155.5 145.769 155.5C145.804 155.5 145.839 155.5 145.874 155.5C145.909 155.5 145.943 155.5 145.978 155.5C146.013 155.5 146.048 155.5 146.083 155.5C146.117 155.5 146.152 155.5 146.187 155.5C146.222 155.5 146.256 155.5 146.291 155.5C146.326 155.5 146.361 155.5 146.395 155.5C146.43 155.5 146.465 155.5 146.499 155.5C146.534 155.5 146.568 155.5 146.603 155.5C146.638 155.5 146.672 155.5 146.707 155.5C146.741 155.5 146.776 155.5 146.811 155.5C146.845 155.5 146.88 155.5 146.914 155.5C146.949 155.5 146.983 155.5 147.018 155.5C147.052 155.5 147.086 155.5 147.121 155.5C147.155 155.5 147.19 155.5 147.224 155.5C147.258 155.5 147.293 155.5 147.327 155.5C147.362 155.5 147.396 155.5 147.43 155.5C147.465 155.5 147.499 155.5 147.533 155.5C147.567 155.5 147.602 155.5 147.636 155.5C147.67 155.5 147.704 155.5 147.739 155.5C147.773 155.5 147.807 155.5 147.841 155.5C147.875 155.5 147.91 155.5 147.944 155.5C147.978 155.5 148.012 155.5 148.046 155.5C148.08 155.5 148.114 155.5 148.148 155.5C148.182 155.5 148.216 155.5 148.25 155.5C148.284 155.5 148.318 155.5 148.352 155.5C148.386 155.5 148.42 155.5 148.454 155.5C148.488 155.5 148.522 155.5 148.556 155.5C148.59 155.5 148.624 155.5 148.658 155.5C148.692 155.5 148.725 155.5 148.759 155.5C148.793 155.5 148.827 155.5 148.861 155.5C148.895 155.5 148.928 155.5 148.962 155.5C148.996 155.5 149.03 155.5 149.063 155.5C149.097 155.5 149.131 155.5 149.164 155.5C149.198 155.5 149.232 155.5 149.265 155.5C149.299 155.5 149.333 155.5 149.366 155.5C149.4 155.5 149.433 155.5 149.467 155.5C149.501 155.5 149.534 155.5 149.568 155.5C149.601 155.5 149.635 155.5 149.668 155.5C149.702 155.5 149.735 155.5 149.768 155.5C149.802 155.5 149.835 155.5 149.869 155.5C149.902 155.5 149.936 155.5 149.969 155.5C150.002 155.5 150.036 155.5 150.069 155.5C150.102 155.5 150.136 155.5 150.169 155.5C150.202 155.5 150.235 155.5 150.269 155.5C150.302 155.5 150.335 155.5 150.368 155.5C150.401 155.5 150.435 155.5 150.468 155.5C150.501 155.5 150.534 155.5 150.567 155.5C150.6 155.5 150.633 155.5 150.666 155.5C150.7 155.5 150.733 155.5 150.766 155.5C150.799 155.5 150.832 155.5 150.865 155.5C150.898 155.5 150.931 155.5 150.964 155.5C150.997 155.5 151.029 155.5 151.062 155.5C151.095 155.5 151.128 155.5 151.161 155.5C151.194 155.5 151.227 155.5 151.26 155.5C151.292 155.5 151.325 155.5 151.358 155.5C151.391 155.5 151.424 155.5 151.456 155.5C151.489 155.5 151.522 155.5 151.554 155.5C151.587 155.5 151.62 155.5 151.652 155.5C151.685 155.5 151.718 155.5 151.75 155.5C151.783 155.5 151.816 155.5 151.848 155.5C151.881 155.5 151.913 155.5 151.946 155.5C151.978 155.5 152.011 155.5 152.043 155.5C152.076 155.5 152.108 155.5 152.141 155.5C152.173 155.5 152.206 155.5 152.238 155.5C152.27 155.5 152.303 155.5 152.335 155.5C152.367 155.5 152.4 155.5 152.432 155.5C152.464 155.5 152.497 155.5 152.529 155.5C152.561 155.5 152.593 155.5 152.626 155.5C152.658 155.5 152.69 155.5 152.722 155.5C152.754 155.5 152.786 155.5 152.819 155.5C152.851 155.5 152.883 155.5 152.915 155.5C152.947 155.5 152.979 155.5 153.011 155.5C153.043 155.5 153.075 155.5 153.107 155.5C153.139 155.5 153.171 155.5 153.203 155.5C153.235 155.5 153.267 155.5 153.299 155.5C153.331 155.5 153.363 155.5 153.394 155.5C153.426 155.5 153.458 155.5 153.49 155.5C153.522 155.5 153.554 155.5 153.585 155.5C153.617 155.5 153.649 155.5 153.681 155.5C153.712 155.5 153.744 155.5 153.776 155.5C153.807 155.5 153.839 155.5 153.871 155.5C153.902 155.5 153.934 155.5 153.965 155.5C153.997 155.5 154.029 155.5 154.06 155.5C154.092 155.5 154.123 155.5 154.155 155.5C154.186 155.5 154.218 155.5 154.249 155.5C154.28 155.5 154.312 155.5 154.343 155.5C154.375 155.5 154.406 155.5 154.437 155.5C154.469 155.5 154.5 155.5 154.531 155.5C154.563 155.5 154.594 155.5 154.625 155.5C154.656 155.5 154.688 155.5 154.719 155.5C154.75 155.5 154.781 155.5 154.812 155.5C154.843 155.5 154.875 155.5 154.906 155.5C154.937 155.5 154.968 155.5 154.999 155.5C155.03 155.5 155.061 155.5 155.092 155.5C155.123 155.5 155.154 155.5 155.185 155.5C155.216 155.5 155.247 155.5 155.278 155.5C155.309 155.5 155.34 155.5 155.37 155.5C155.401 155.5 155.432 155.5 155.463 155.5C155.494 155.5 155.525 155.5 155.555 155.5C155.586 155.5 155.617 155.5 155.647 155.5C155.678 155.5 155.709 155.5 155.74 155.5C155.77 155.5 155.801 155.5 155.831 155.5C155.862 155.5 155.893 155.5 155.923 155.5C155.954 155.5 155.984 155.5 156.015 155.5C156.045 155.5 156.076 155.5 156.106 155.5C156.137 155.5 156.167 155.5 156.198 155.5C156.228 155.5 156.258 155.5 156.289 155.5C156.319 155.5 156.35 155.5 156.38 155.5C156.41 155.5 156.44 155.5 156.471 155.5C156.501 155.5 156.531 155.5 156.561 155.5C156.592 155.5 156.622 155.5 156.652 155.5C156.682 155.5 156.712 155.5 156.742 155.5C156.772 155.5 156.803 155.5 156.833 155.5C156.863 155.5 156.893 155.5 156.923 155.5C156.953 155.5 156.983 155.5 157.013 155.5C157.043 155.5 157.073 155.5 157.102 155.5C157.132 155.5 157.162 155.5 157.192 155.5C157.222 155.5 157.252 155.5 157.282 155.5C157.311 155.5 157.341 155.5 157.371 155.5C157.401 155.5 157.43 155.5 157.46 155.5C157.49 155.5 157.519 155.5 157.549 155.5C157.579 155.5 157.608 155.5 157.638 155.5C157.667 155.5 157.697 155.5 157.727 155.5C157.756 155.5 157.786 155.5 157.815 155.5C157.845 155.5 157.874 155.5 157.903 155.5C157.933 155.5 157.962 155.5 157.992 155.5C158.021 155.5 158.05 155.5 158.08 155.5C158.109 155.5 158.138 155.5 158.168 155.5C158.197 155.5 158.226 155.5 158.255 155.5C158.285 155.5 158.314 155.5 158.343 155.5C158.372 155.5 158.401 155.5 158.43 155.5C158.459 155.5 158.488 155.5 158.518 155.5C158.547 155.5 158.576 155.5 158.605 155.5C158.634 155.5 158.663 155.5 158.691 155.5C158.72 155.5 158.749 155.5 158.778 155.5C158.807 155.5 158.836 155.5 158.865 155.5C158.894 155.5 158.922 155.5 158.951 155.5C158.98 155.5 159.009 155.5 159.037 155.5C159.066 155.5 159.095 155.5 159.124 155.5C159.152 155.5 159.181 155.5 159.209 155.5C159.238 155.5 159.267 155.5 159.295 155.5C159.324 155.5 159.352 155.5 159.381 155.5C159.409 155.5 159.438 155.5 159.466 155.5C159.495 155.5 159.523 155.5 159.551 155.5C159.58 155.5 159.608 155.5 159.637 155.5C159.665 155.5 159.693 155.5 159.721 155.5C159.75 155.5 159.778 155.5 159.806 155.5C159.834 155.5 159.863 155.5 159.891 155.5C159.919 155.5 159.947 155.5 159.975 155.5C160.003 155.5 160.031 155.5 160.059 155.5C160.087 155.5 160.115 155.5 160.143 155.5C160.171 155.5 160.199 155.5 160.227 155.5C160.255 155.5 160.283 155.5 160.311 155.5C160.339 155.5 160.367 155.5 160.395 155.5C160.422 155.5 160.45 155.5 160.478 155.5C160.506 155.5 160.533 155.5 160.561 155.5C160.589 155.5 160.617 155.5 160.644 155.5C160.672 155.5 160.699 155.5 160.727 155.5C160.755 155.5 160.782 155.5 160.81 155.5C160.837 155.5 160.865 155.5 160.892 155.5C160.92 155.5 160.947 155.5 160.974 155.5C161.002 155.5 161.029 155.5 161.057 155.5C161.084 155.5 161.111 155.5 161.139 155.5C161.166 155.5 161.193 155.5 161.22 155.5C161.248 155.5 161.275 155.5 161.302 155.5C161.329 155.5 161.356 155.5 161.383 155.5C161.411 155.5 161.438 155.5 161.465 155.5C161.492 155.5 161.519 155.5 161.546 155.5C161.573 155.5 161.6 155.5 161.627 155.5C161.654 155.5 161.68 155.5 161.707 155.5C161.734 155.5 161.761 155.5 161.788 155.5C161.815 155.5 161.841 155.5 161.868 155.5C161.895 155.5 161.922 155.5 161.948 155.5C161.975 155.5 162.002 155.5 162.028 155.5C162.055 155.5 162.082 155.5 162.108 155.5C162.135 155.5 162.161 155.5 162.188 155.5C162.214 155.5 162.241 155.5 162.267 155.5C162.294 155.5 162.32 155.5 162.346 155.5C162.373 155.5 162.399 155.5 162.425 155.5C162.452 155.5 162.478 155.5 162.504 155.5C162.531 155.5 162.557 155.5 162.583 155.5C162.609 155.5 162.635 155.5 162.662 155.5C162.688 155.5 162.714 155.5 162.74 155.5C162.766 155.5 162.792 155.5 162.818 155.5C162.844 155.5 162.87 155.5 162.896 155.5C162.922 155.5 162.948 155.5 162.974 155.5C163 155.5 163.025 155.5 163.051 155.5C163.077 155.5 163.103 155.5 163.129 155.5C163.154 155.5 163.18 155.5 163.206 155.5C163.232 155.5 163.257 155.5 163.283 155.5C163.308 155.5 163.334 155.5 163.36 155.5C163.385 155.5 163.411 155.5 163.436 155.5C163.462 155.5 163.487 155.5 163.513 155.5C163.538 155.5 163.564 155.5 163.589 155.5C163.614 155.5 163.64 155.5 163.665 155.5C163.69 155.5 163.716 155.5 163.741 155.5C163.766 155.5 163.791 155.5 163.816 155.5C163.842 155.5 163.867 155.5 163.892 155.5C163.917 155.5 163.942 155.5 163.967 155.5C163.992 155.5 164.017 155.5 164.042 155.5C164.067 155.5 164.092 155.5 164.117 155.5C164.142 155.5 164.167 155.5 164.192 155.5C164.217 155.5 164.242 155.5 164.266 155.5C164.291 155.5 164.316 155.5 164.341 155.5C164.365 155.5 164.39 155.5 164.415 155.5C164.439 155.5 164.464 155.5 164.489 155.5C164.513 155.5 164.538 155.5 164.562 155.5C164.587 155.5 164.611 155.5 164.636 155.5C164.66 155.5 164.685 155.5 164.709 155.5C164.734 155.5 164.758 155.5 164.782 155.5C164.807 155.5 164.831 155.5 164.855 155.5C164.879 155.5 164.904 155.5 164.928 155.5C164.952 155.5 164.976 155.5 165 155.5V153.5Z" fill="#5EBFF7"/>
</svg>
