<svg width="1150" height="496" viewBox="0 0 1150 496" fill="none" xmlns="http://www.w3.org/2000/svg">
<rect width="1150" height="495.631" rx="16" fill="#1A1A1A"/>
<rect x="94.0004" y="40" width="1033" height="339" fill="#103C63"/>
<rect x="94.0004" y="146" width="694" height="233" fill="#066070"/>
<rect x="94.0004" y="266" width="338" height="113" fill="#148579"/>
<path d="M1126.92 423.353C1127.12 423.158 1127.12 422.842 1126.92 422.646L1123.74 419.464C1123.55 419.269 1123.23 419.269 1123.03 419.464C1122.84 419.66 1122.84 419.976 1123.03 420.171L1125.86 423L1123.03 425.828C1122.84 426.024 1122.84 426.34 1123.03 426.535C1123.23 426.731 1123.55 426.731 1123.74 426.535L1126.92 423.353ZM96.0004 423.5L1126.57 423.5L1126.57 422.5L96.0004 422.5L96.0004 423.5Z" fill="white"/>
<path d="M57.3534 39.6465C57.1582 39.4512 56.8416 39.4512 56.6463 39.6465L53.4643 42.8284C53.2691 43.0237 53.2691 43.3403 53.4643 43.5355C53.6596 43.7308 53.9762 43.7308 54.1715 43.5355L56.9999 40.7071L59.8283 43.5355C60.0236 43.7308 60.3402 43.7308 60.5354 43.5355C60.7307 43.3403 60.7307 43.0237 60.5354 42.8284L57.3534 39.6465ZM57.4999 379L57.4999 40L56.4999 40L56.4999 379L57.4999 379Z" fill="white"/>
<path d="M42.9998 367.444L37.6898 370.936C37.1498 369.514 36.0698 368.326 34.1078 368.326C31.4978 368.326 30.0398 370.162 30.0398 373.456L30.0398 377.65L42.9998 377.65L42.9998 375.814L38.0678 375.814L38.0678 372.736L42.9998 369.604L42.9998 367.444ZM31.5338 373.42C31.5338 371.242 32.4338 370.234 34.1078 370.234C35.6198 370.234 36.5738 371.35 36.5738 373.366L36.5738 375.814L31.5338 375.814L31.5338 373.42ZM40.2998 359.889C41.1638 360.159 41.8118 361.023 41.8118 362.157C41.8118 363.723 40.8578 364.893 38.6978 365.037L38.6978 357.909C34.9178 357.909 33.3698 359.709 33.3698 362.301C33.3698 364.893 35.0618 366.801 38.3198 366.801C41.6138 366.801 43.2698 364.875 43.2698 362.211C43.2698 359.961 42.0098 358.485 40.2998 358.017L40.2998 359.889ZM37.3298 364.965C35.6018 364.695 34.7558 363.651 34.7558 362.265C34.7558 360.825 35.5838 359.799 37.3298 359.673L37.3298 364.965ZM30.0398 354.11L30.0398 355.838L42.9998 355.838L42.9998 354.11L30.0398 354.11ZM36.2498 350.108C35.3138 349.982 34.7378 349.334 34.7378 348.002C34.7378 346.616 35.3858 345.842 36.5378 345.842L37.0058 345.842L37.4738 348.578C37.9058 351.098 38.8778 352.124 40.5878 352.124C42.1178 352.124 43.2698 350.936 43.2698 348.884C43.2698 347.372 42.5858 346.364 41.7218 345.752L42.9998 345.536L42.9998 344.114L36.6098 344.114C34.6838 344.114 33.3698 345.482 33.3698 347.93C33.3698 350.27 34.5218 351.764 36.2498 351.944L36.2498 350.108ZM38.3558 345.842L39.5618 345.842C40.8398 345.842 41.8118 347.156 41.8118 348.47C41.8118 349.64 41.3078 350.288 40.4078 350.288C39.5798 350.288 39.0578 349.838 38.7698 348.164L38.3558 345.842ZM41.6138 337.511C41.7398 338.033 41.7578 338.267 41.7578 338.573C41.7578 339.221 41.4158 339.563 40.7138 339.563L35.1158 339.563L35.1158 337.547L33.6398 337.547L33.6398 339.563L31.3898 339.563L31.3898 341.183L33.6398 341.291L33.6398 342.677L35.1158 342.677L35.1158 341.291L40.6778 341.291C42.2258 341.291 43.2698 340.445 43.2698 338.789C43.2698 338.357 43.2158 337.979 43.0898 337.511L41.6138 337.511ZM32.0738 334.05L30.0398 334.05L30.0398 335.994L32.0738 335.994L32.0738 334.05ZM42.9998 334.158L33.6398 334.158L33.6398 335.886L42.9998 335.886L42.9998 334.158ZM33.6398 325.621L41.5958 328.231L33.6398 330.823L33.6398 332.713L42.9998 329.455L42.9998 327.115L33.6398 323.821L33.6398 325.621ZM40.2998 316.366C41.1638 316.636 41.8118 317.5 41.8118 318.634C41.8118 320.2 40.8578 321.37 38.6978 321.514L38.6978 314.386C34.9178 314.386 33.3698 316.186 33.3698 318.778C33.3698 321.37 35.0618 323.278 38.3198 323.278C41.6138 323.278 43.2698 321.352 43.2698 318.688C43.2698 316.438 42.0098 314.962 40.2998 314.494L40.2998 316.366ZM37.3298 321.442C35.6018 321.172 34.7558 320.128 34.7558 318.742C34.7558 317.302 35.5838 316.276 37.3298 316.15L37.3298 321.442ZM42.9998 298.476L30.0398 298.476L30.0398 300.204L34.8278 300.204C33.9818 300.816 33.3698 301.788 33.3698 303.21C33.3698 305.712 35.0258 307.458 38.3738 307.458C41.5418 307.458 43.2698 305.676 43.2698 303.318C43.2698 301.86 42.6038 300.834 41.6858 300.204L42.9998 299.898L42.9998 298.476ZM38.4098 305.658C35.9618 305.658 34.8458 304.578 34.8458 302.94C34.8458 301.212 36.1418 300.114 38.4278 300.114C40.3898 300.114 41.7938 301.158 41.7938 302.94C41.7938 304.506 40.6598 305.658 38.4098 305.658ZM32.0738 294.113L30.0398 294.113L30.0398 296.057L32.0738 296.057L32.0738 294.113ZM42.9998 294.221L33.6398 294.221L33.6398 295.949L42.9998 295.949L42.9998 294.221ZM40.3178 292.415C42.1178 292.253 43.2698 290.723 43.2698 288.383C43.2698 285.899 42.0458 284.477 40.3358 284.477C38.4098 284.477 37.7978 285.917 37.3118 288.095C36.9158 289.895 36.5918 290.273 35.8718 290.273C35.2238 290.273 34.7378 289.697 34.7378 288.401C34.7378 287.213 35.2418 286.511 36.1058 286.313L36.1058 284.549C34.3958 284.855 33.3698 286.295 33.3698 288.383C33.3698 290.741 34.4318 292.019 36.0338 292.019C37.4198 292.019 38.2478 291.137 38.7338 288.941C39.1118 287.267 39.3638 286.223 40.4618 286.223C41.2718 286.223 41.9018 286.961 41.9018 288.365C41.9018 289.679 41.4338 290.453 40.3178 290.651L40.3178 292.415ZM41.6138 278.326C41.7398 278.848 41.7578 279.082 41.7578 279.388C41.7578 280.036 41.4158 280.378 40.7138 280.378L35.1158 280.378L35.1158 278.362L33.6398 278.362L33.6398 280.378L31.3898 280.378L31.3898 281.998L33.6398 282.106L33.6398 283.492L35.1158 283.492L35.1158 282.106L40.6778 282.106C42.2258 282.106 43.2698 281.26 43.2698 279.604C43.2698 279.172 43.2158 278.794 43.0898 278.326L41.6138 278.326ZM36.2498 275.225C35.3138 275.099 34.7378 274.451 34.7378 273.119C34.7378 271.733 35.3858 270.959 36.5378 270.959L37.0058 270.959L37.4738 273.695C37.9058 276.215 38.8778 277.241 40.5878 277.241C42.1178 277.241 43.2698 276.053 43.2698 274.001C43.2698 272.489 42.5858 271.481 41.7218 270.869L42.9998 270.653L42.9998 269.231L36.6098 269.231C34.6838 269.231 33.3698 270.599 33.3698 273.047C33.3698 275.387 34.5218 276.881 36.2498 277.061L36.2498 275.225ZM38.3558 270.959L39.5618 270.959C40.8398 270.959 41.8118 272.273 41.8118 273.587C41.8118 274.757 41.3078 275.405 40.4078 275.405C39.5798 275.405 39.0578 274.955 38.7698 273.281L38.3558 270.959ZM42.9998 265.076L37.2218 265.076C35.7458 265.076 34.8458 263.996 34.8458 262.754C34.8458 261.476 35.5118 260.756 36.9158 260.756L42.9998 260.756L42.9998 259.028L36.8978 259.028C34.6118 259.028 33.3698 260.306 33.3698 262.34C33.3698 263.456 33.8738 264.5 34.8278 265.184L33.6398 265.382L33.6398 266.804L42.9998 266.804L42.9998 265.076ZM39.9938 250.49C41.1638 250.67 41.8118 251.516 41.8118 252.668C41.8118 254.126 40.7318 255.296 38.4458 255.296C35.9618 255.296 34.8278 254.216 34.8278 252.686C34.8278 251.588 35.3858 250.814 36.4118 250.58L36.4118 248.672C34.5038 248.978 33.3698 250.598 33.3698 252.722C33.3698 255.368 35.2598 257.132 38.3918 257.132C41.5598 257.132 43.2698 255.188 43.2698 252.704C43.2698 250.382 41.8118 248.852 39.9938 248.6L39.9938 250.49ZM40.2998 240.253C41.1638 240.523 41.8118 241.387 41.8118 242.521C41.8118 244.087 40.8578 245.257 38.6978 245.401L38.6978 238.273C34.9178 238.273 33.3698 240.073 33.3698 242.665C33.3698 245.257 35.0618 247.165 38.3198 247.165C41.6138 247.165 43.2698 245.239 43.2698 242.575C43.2698 240.325 42.0098 238.849 40.2998 238.381L40.2998 240.253ZM37.3298 245.329C35.6018 245.059 34.7558 244.015 34.7558 242.629C34.7558 241.189 35.5838 240.163 37.3298 240.037L37.3298 245.329ZM41.6138 226.628C41.7398 227.15 41.7578 227.384 41.7578 227.69C41.7578 228.338 41.4158 228.68 40.7138 228.68L35.1158 228.68L35.1158 226.664L33.6397 226.664L33.6397 228.68L31.3897 228.68L31.3897 230.3L33.6397 230.408L33.6397 231.794L35.1158 231.794L35.1158 230.408L40.6778 230.408C42.2258 230.408 43.2698 229.562 43.2698 227.906C43.2698 227.474 43.2158 227.096 43.0898 226.628L41.6138 226.628ZM42.9998 223.276L38.3018 223.276C35.9437 223.276 35.0618 222.232 35.0617 221.044C35.0617 220.63 35.1338 220.288 35.2238 219.946L33.4958 219.946C33.4417 220.162 33.3697 220.522 33.3697 220.972C33.3697 222.016 33.9457 222.826 35.0257 223.348L33.6397 223.582L33.6397 225.004L42.9998 225.004L42.9998 223.276ZM36.2497 217.112C35.3137 216.986 34.7377 216.338 34.7377 215.006C34.7377 213.62 35.3857 212.846 36.5377 212.846L37.0057 212.846L37.4737 215.582C37.9057 218.102 38.8777 219.128 40.5878 219.128C42.1178 219.128 43.2698 217.94 43.2698 215.888C43.2698 214.376 42.5857 213.368 41.7217 212.756L42.9997 212.54L42.9997 211.118L36.6097 211.118C34.6837 211.118 33.3697 212.486 33.3697 214.934C33.3697 217.274 34.5217 218.768 36.2497 218.948L36.2497 217.112ZM38.3557 212.846L39.5617 212.846C40.8397 212.846 41.8118 214.16 41.8118 215.474C41.8118 216.644 41.3078 217.292 40.4077 217.292C39.5797 217.292 39.0577 216.842 38.7697 215.168L38.3557 212.846ZM33.6397 203.031L41.5957 205.641L33.6397 208.233L33.6397 210.123L42.9997 206.865L42.9997 204.525L33.6397 201.231L33.6397 203.031ZM40.2997 193.776C41.1637 194.046 41.8117 194.91 41.8117 196.044C41.8117 197.61 40.8577 198.78 38.6977 198.924L38.6977 191.796C34.9177 191.796 33.3697 193.596 33.3697 196.188C33.3697 198.78 35.0617 200.688 38.3197 200.688C41.6137 200.688 43.2697 198.762 43.2697 196.098C43.2697 193.848 42.0097 192.372 40.2997 191.904L40.2997 193.776ZM37.3297 198.852C35.6017 198.582 34.7557 197.538 34.7557 196.152C34.7557 194.712 35.5837 193.686 37.3297 193.56L37.3297 198.852ZM30.0397 187.996L30.0397 189.724L42.9997 189.724L42.9997 187.996L30.0397 187.996ZM30.0397 183.742L30.0397 185.47L42.9997 185.47L42.9997 183.742L30.0397 183.742ZM40.2997 174.845C41.1637 175.115 41.8117 175.979 41.8117 177.113C41.8117 178.679 40.8577 179.849 38.6977 179.993L38.6977 172.865C34.9177 172.865 33.3697 174.665 33.3697 177.257C33.3697 179.849 35.0617 181.757 38.3197 181.757C41.6137 181.757 43.2697 179.831 43.2697 177.167C43.2697 174.917 42.0097 173.441 40.2997 172.973L40.2997 174.845ZM37.3297 179.921C35.6017 179.651 34.7557 178.607 34.7557 177.221C34.7557 175.781 35.5837 174.755 37.3297 174.629L37.3297 179.921ZM42.9997 162.351L30.0397 162.351L30.0397 164.079L34.8277 164.079C33.9817 164.691 33.3697 165.663 33.3697 167.085C33.3697 169.587 35.0257 171.333 38.3737 171.333C41.5417 171.333 43.2697 169.551 43.2697 167.193C43.2697 165.735 42.6037 164.709 41.6857 164.079L42.9997 163.773L42.9997 162.351ZM38.4097 169.533C35.9617 169.533 34.8457 168.453 34.8457 166.815C34.8457 165.087 36.1417 163.989 38.4277 163.989C40.3897 163.989 41.7937 165.033 41.7937 166.815C41.7937 168.381 40.6597 169.533 38.4097 169.533Z" fill="white"/>
<path d="M102.966 454.27C106.458 454.27 109.122 451.804 109.122 447.52C109.122 443.056 106.404 440.77 102.984 440.77C99.5638 440.77 96.8098 443.164 96.8098 447.52C96.8098 451.804 99.3658 454.27 102.966 454.27ZM102.966 452.776C100.428 452.776 98.6818 450.94 98.6818 447.52C98.6818 444.1 100.428 442.264 102.966 442.264C105.504 442.264 107.25 444.1 107.25 447.52C107.25 450.94 105.504 452.776 102.966 452.776ZM112.621 454L112.891 452.758C113.503 453.64 114.493 454.27 115.933 454.27C118.399 454.27 120.181 452.488 120.181 449.248C120.181 446.134 118.525 444.37 116.059 444.37C114.601 444.37 113.557 445.036 112.927 445.936L112.927 441.04H111.199L111.199 454H112.621ZM118.381 449.212C118.381 451.678 117.283 452.794 115.663 452.794C113.971 452.794 112.837 451.48 112.837 449.212C112.837 446.98 114.115 445.846 115.663 445.846C117.211 445.846 118.381 446.908 118.381 449.212ZM120.026 457.294C120.476 457.438 120.98 457.51 121.376 457.51C122.996 457.51 123.896 456.466 123.896 454.936L123.896 444.64H122.168L122.168 454.846C122.168 455.764 121.898 456.034 121.106 456.034C120.854 456.034 120.422 455.962 120.026 455.872L120.026 457.294ZM124.004 443.074L124.004 441.04H122.06L122.06 443.074H124.004ZM132.794 451.3C132.524 452.164 131.66 452.812 130.526 452.812C128.96 452.812 127.79 451.858 127.646 449.698H134.774C134.774 445.918 132.974 444.37 130.382 444.37C127.79 444.37 125.882 446.062 125.882 449.32C125.882 452.614 127.808 454.27 130.472 454.27C132.722 454.27 134.198 453.01 134.666 451.3H132.794ZM127.718 448.33C127.988 446.602 129.032 445.756 130.418 445.756C131.858 445.756 132.884 446.584 133.01 448.33H127.718ZM142.948 450.994C142.768 452.164 141.922 452.812 140.77 452.812C139.312 452.812 138.142 451.732 138.142 449.446C138.142 446.962 139.222 445.828 140.752 445.828C141.85 445.828 142.624 446.386 142.858 447.412H144.766C144.46 445.504 142.84 444.37 140.716 444.37C138.07 444.37 136.306 446.26 136.306 449.392C136.306 452.56 138.25 454.27 140.734 454.27C143.056 454.27 144.586 452.812 144.838 450.994H142.948ZM150.988 452.614C150.466 452.74 150.232 452.758 149.926 452.758C149.278 452.758 148.936 452.416 148.936 451.714L148.936 446.116H150.952L150.952 444.64H148.936L148.936 442.39H147.316L147.208 444.64H145.822L145.822 446.116H147.208L147.208 451.678C147.208 453.226 148.054 454.27 149.71 454.27C150.142 454.27 150.52 454.216 150.988 454.09L150.988 452.614ZM157.29 451.318C157.452 453.118 158.982 454.27 161.322 454.27C163.806 454.27 165.228 453.046 165.228 451.336C165.228 449.41 163.788 448.798 161.61 448.312C159.81 447.916 159.432 447.592 159.432 446.872C159.432 446.224 160.008 445.738 161.304 445.738C162.492 445.738 163.194 446.242 163.392 447.106H165.156C164.85 445.396 163.41 444.37 161.322 444.37C158.964 444.37 157.686 445.432 157.686 447.034C157.686 448.42 158.568 449.248 160.764 449.734C162.438 450.112 163.482 450.364 163.482 451.462C163.482 452.272 162.744 452.902 161.34 452.902C160.026 452.902 159.252 452.434 159.054 451.318H157.29ZM169.039 443.074L169.039 441.04H167.095L167.095 443.074H169.039ZM168.931 454L168.931 444.64H167.203L167.203 454H168.931ZM178.333 446.278L178.333 444.64H171.007L171.007 446.098H176.299L170.737 452.362L170.737 454H178.333L178.333 452.524H172.771L178.333 446.278ZM186.513 451.3C186.243 452.164 185.379 452.812 184.245 452.812C182.679 452.812 181.509 451.858 181.365 449.698H188.493C188.493 445.918 186.693 444.37 184.101 444.37C181.509 444.37 179.601 446.062 179.601 449.32C179.601 452.614 181.527 454.27 184.191 454.27C186.441 454.27 187.917 453.01 188.385 451.3H186.513ZM181.437 448.33C181.707 446.602 182.751 445.756 184.137 445.756C185.577 445.756 186.603 446.584 186.729 448.33H181.437Z" fill="white"/>
<path d="M120.216 315H123.96V298.2H120.24L116.376 300.24V303.624L120.216 301.656V315ZM135.59 315.36C139.478 315.36 141.974 312.72 141.974 306.648C141.974 300.408 139.526 297.84 135.59 297.84C131.654 297.84 129.206 300.408 129.206 306.648C129.206 312.72 131.702 315.36 135.59 315.36ZM135.59 312.816C134.006 312.816 133.07 311.496 133.07 306.648C133.07 301.8 134.006 300.36 135.59 300.36C137.174 300.36 138.11 301.8 138.11 306.648C138.11 311.496 137.174 312.816 135.59 312.816ZM149.981 315.36C153.869 315.36 156.365 312.72 156.365 306.648C156.365 300.408 153.917 297.84 149.981 297.84C146.045 297.84 143.597 300.408 143.597 306.648C143.597 312.72 146.093 315.36 149.981 315.36ZM149.981 312.816C148.397 312.816 147.461 311.496 147.461 306.648C147.461 301.8 148.397 300.36 149.981 300.36C151.565 300.36 152.501 301.8 152.501 306.648C152.501 311.496 151.565 312.816 149.981 312.816ZM168.212 305.784H159.092V308.736H168.212V305.784ZM170.973 310.704C171.213 313.344 173.565 315.36 177.093 315.36C180.837 315.36 183.309 313.272 183.309 310.128C183.309 307.992 181.557 306.216 179.445 305.976C181.389 305.664 182.925 304.104 182.925 302.256C182.925 299.208 180.333 297.84 177.357 297.84C174.045 297.84 171.765 299.544 171.357 302.184H175.005C175.245 301.08 175.965 300.528 177.141 300.528C178.245 300.528 179.133 301.272 179.133 302.568C179.133 304.032 177.981 304.872 176.733 304.872H175.077V307.44H176.541C178.365 307.44 179.445 308.304 179.445 310.2C179.445 311.808 178.437 312.648 177.045 312.648C175.653 312.648 174.861 311.856 174.693 310.704H170.973ZM191.723 315.36C195.611 315.36 198.107 312.72 198.107 306.648C198.107 300.408 195.659 297.84 191.723 297.84C187.787 297.84 185.339 300.408 185.339 306.648C185.339 312.72 187.835 315.36 191.723 315.36ZM191.723 312.816C190.139 312.816 189.203 311.496 189.203 306.648C189.203 301.8 190.139 300.36 191.723 300.36C193.307 300.36 194.243 301.8 194.243 306.648C194.243 311.496 193.307 312.816 191.723 312.816ZM206.114 315.36C210.002 315.36 212.498 312.72 212.498 306.648C212.498 300.408 210.05 297.84 206.114 297.84C202.178 297.84 199.73 300.408 199.73 306.648C199.73 312.72 202.226 315.36 206.114 315.36ZM206.114 312.816C204.53 312.816 203.594 311.496 203.594 306.648C203.594 301.8 204.53 300.36 206.114 300.36C207.698 300.36 208.634 301.8 208.634 306.648C208.634 311.496 207.698 312.816 206.114 312.816ZM218.368 315V307.2C218.368 305.928 219.184 304.8 220.528 304.8C221.752 304.8 222.52 305.448 222.52 306.792V315H226.264V307.368C226.264 305.976 226.96 304.8 228.448 304.8C229.672 304.8 230.44 305.448 230.44 306.792V315H234.184V306.888C234.184 303.504 232.288 302.16 229.624 302.16C227.824 302.16 226.408 302.856 225.496 303.888C224.68 302.688 223.312 302.16 221.704 302.16C220 302.16 218.752 302.856 217.888 303.888L217.264 302.52H214.624V315H218.368ZM235.983 311.472C236.391 313.776 238.551 315.36 241.959 315.36C245.943 315.36 247.815 313.608 247.815 311.136C247.815 308.376 245.127 307.776 242.847 307.2C240.735 306.672 240.255 306.432 240.255 305.736C240.255 305.088 240.735 304.704 241.935 304.704C243.135 304.704 243.831 305.208 243.999 305.976H247.767C247.335 303.6 245.247 302.16 242.031 302.16C238.359 302.16 236.511 303.72 236.511 306.048C236.511 308.688 238.647 309.504 241.047 310.08C243.327 310.632 244.023 310.776 244.023 311.64C244.023 312.384 243.423 312.816 241.935 312.816C240.759 312.816 239.919 312.264 239.751 311.472H235.983Z" fill="white"/>
<path d="M114.84 188.704C115.08 191.344 117.432 193.36 120.96 193.36C124.704 193.36 127.176 191.272 127.176 188.128C127.176 185.992 125.424 184.216 123.312 183.976C125.256 183.664 126.792 182.104 126.792 180.256C126.792 177.208 124.2 175.84 121.224 175.84C117.912 175.84 115.632 177.544 115.224 180.184H118.872C119.112 179.08 119.832 178.528 121.008 178.528C122.112 178.528 123 179.272 123 180.568C123 182.032 121.848 182.872 120.6 182.872H118.944V185.44H120.408C122.232 185.44 123.312 186.304 123.312 188.2C123.312 189.808 122.304 190.648 120.912 190.648C119.52 190.648 118.728 189.856 118.56 188.704H114.84ZM135.59 193.36C139.478 193.36 141.974 190.72 141.974 184.648C141.974 178.408 139.526 175.84 135.59 175.84C131.654 175.84 129.206 178.408 129.206 184.648C129.206 190.72 131.702 193.36 135.59 193.36ZM135.59 190.816C134.006 190.816 133.07 189.496 133.07 184.648C133.07 179.8 134.006 178.36 135.59 178.36C137.174 178.36 138.11 179.8 138.11 184.648C138.11 189.496 137.174 190.816 135.59 190.816ZM149.981 193.36C153.869 193.36 156.365 190.72 156.365 184.648C156.365 178.408 153.917 175.84 149.981 175.84C146.045 175.84 143.597 178.408 143.597 184.648C143.597 190.72 146.093 193.36 149.981 193.36ZM149.981 190.816C148.397 190.816 147.461 189.496 147.461 184.648C147.461 179.8 148.397 178.36 149.981 178.36C151.565 178.36 152.501 179.8 152.501 184.648C152.501 189.496 151.565 190.816 149.981 190.816ZM168.212 183.784H159.092V186.736H168.212V183.784ZM183.477 179.512C182.733 177.184 180.693 175.84 177.717 175.84C174.453 175.84 170.997 177.616 170.997 185.152C170.997 190.552 173.469 193.36 177.477 193.36C181.293 193.36 183.693 190.696 183.693 187.144C183.693 183.568 181.629 181.528 178.485 181.528C176.853 181.528 175.533 182.368 174.789 183.4C175.125 179.416 176.349 178.36 177.693 178.36C178.581 178.36 179.157 178.744 179.421 179.512H183.477ZM174.957 187.456C174.957 185.656 175.869 184.168 177.549 184.168C179.085 184.168 179.925 185.224 179.925 187.384C179.925 189.328 178.893 190.72 177.381 190.72C175.461 190.72 174.957 188.656 174.957 187.456ZM191.723 193.36C195.611 193.36 198.107 190.72 198.107 184.648C198.107 178.408 195.659 175.84 191.723 175.84C187.787 175.84 185.339 178.408 185.339 184.648C185.339 190.72 187.835 193.36 191.723 193.36ZM191.723 190.816C190.139 190.816 189.203 189.496 189.203 184.648C189.203 179.8 190.139 178.36 191.723 178.36C193.307 178.36 194.243 179.8 194.243 184.648C194.243 189.496 193.307 190.816 191.723 190.816ZM206.114 193.36C210.002 193.36 212.498 190.72 212.498 184.648C212.498 178.408 210.05 175.84 206.114 175.84C202.178 175.84 199.73 178.408 199.73 184.648C199.73 190.72 202.226 193.36 206.114 193.36ZM206.114 190.816C204.53 190.816 203.594 189.496 203.594 184.648C203.594 179.8 204.53 178.36 206.114 178.36C207.698 178.36 208.634 179.8 208.634 184.648C208.634 189.496 207.698 190.816 206.114 190.816ZM218.368 193V185.2C218.368 183.928 219.184 182.8 220.528 182.8C221.752 182.8 222.52 183.448 222.52 184.792V193H226.264V185.368C226.264 183.976 226.96 182.8 228.448 182.8C229.672 182.8 230.44 183.448 230.44 184.792V193H234.184V184.888C234.184 181.504 232.288 180.16 229.624 180.16C227.824 180.16 226.408 180.856 225.496 181.888C224.68 180.688 223.312 180.16 221.704 180.16C220 180.16 218.752 180.856 217.888 181.888L217.264 180.52H214.624V193H218.368ZM235.983 189.472C236.391 191.776 238.551 193.36 241.959 193.36C245.943 193.36 247.815 191.608 247.815 189.136C247.815 186.376 245.127 185.776 242.847 185.2C240.735 184.672 240.255 184.432 240.255 183.736C240.255 183.088 240.735 182.704 241.935 182.704C243.135 182.704 243.831 183.208 243.999 183.976H247.767C247.335 181.6 245.247 180.16 242.031 180.16C238.359 180.16 236.511 181.72 236.511 184.048C236.511 186.688 238.647 187.504 241.047 188.08C243.327 188.632 244.023 188.776 244.023 189.64C244.023 190.384 243.423 190.816 241.935 190.816C240.759 190.816 239.919 190.264 239.751 189.472H235.983Z" fill="white"/>
<path d="M127.344 76.512C126.6 74.184 124.56 72.84 121.584 72.84C118.32 72.84 114.864 74.616 114.864 82.152C114.864 87.552 117.336 90.36 121.344 90.36C125.16 90.36 127.56 87.696 127.56 84.144C127.56 80.568 125.496 78.528 122.352 78.528C120.72 78.528 119.4 79.368 118.656 80.4C118.992 76.416 120.216 75.36 121.56 75.36C122.448 75.36 123.024 75.744 123.288 76.512H127.344ZM118.824 84.456C118.824 82.656 119.736 81.168 121.416 81.168C122.952 81.168 123.792 82.224 123.792 84.384C123.792 86.328 122.76 87.72 121.248 87.72C119.328 87.72 118.824 85.656 118.824 84.456ZM135.59 90.36C139.478 90.36 141.974 87.72 141.974 81.648C141.974 75.408 139.526 72.84 135.59 72.84C131.654 72.84 129.206 75.408 129.206 81.648C129.206 87.72 131.702 90.36 135.59 90.36ZM135.59 87.816C134.006 87.816 133.07 86.496 133.07 81.648C133.07 76.8 134.006 75.36 135.59 75.36C137.174 75.36 138.11 76.8 138.11 81.648C138.11 86.496 137.174 87.816 135.59 87.816ZM149.981 90.36C153.869 90.36 156.365 87.72 156.365 81.648C156.365 75.408 153.917 72.84 149.981 72.84C146.045 72.84 143.597 75.408 143.597 81.648C143.597 87.72 146.093 90.36 149.981 90.36ZM149.981 87.816C148.397 87.816 147.461 86.496 147.461 81.648C147.461 76.8 148.397 75.36 149.981 75.36C151.565 75.36 152.501 76.8 152.501 81.648C152.501 86.496 151.565 87.816 149.981 87.816ZM168.212 80.784H159.092V83.736H168.212V80.784ZM183.261 77.112C183.261 73.824 179.949 72.84 177.381 72.84C174.285 72.84 171.381 74.04 171.381 77.352C171.381 79.464 172.509 80.424 174.045 81.264C172.053 82.128 170.973 83.28 170.973 85.536C170.973 88.392 173.325 90.36 177.381 90.36C181.437 90.36 183.693 88.344 183.693 85.392C183.693 83.16 182.085 81.888 180.525 81.048C181.941 80.304 183.261 79.104 183.261 77.112ZM179.733 85.392C179.733 87.12 178.341 87.744 177.309 87.744C176.277 87.744 174.933 87.12 174.933 85.392C174.933 83.712 175.869 82.92 176.853 82.44C178.149 82.848 179.733 83.448 179.733 85.392ZM175.053 77.232C175.053 75.504 176.589 75.192 177.381 75.192C178.173 75.192 179.589 75.648 179.589 77.232C179.589 78.528 178.677 79.368 177.621 79.896C176.517 79.56 175.053 78.912 175.053 77.232ZM191.723 90.36C195.611 90.36 198.107 87.72 198.107 81.648C198.107 75.408 195.659 72.84 191.723 72.84C187.787 72.84 185.339 75.408 185.339 81.648C185.339 87.72 187.835 90.36 191.723 90.36ZM191.723 87.816C190.139 87.816 189.203 86.496 189.203 81.648C189.203 76.8 190.139 75.36 191.723 75.36C193.307 75.36 194.243 76.8 194.243 81.648C194.243 86.496 193.307 87.816 191.723 87.816ZM206.114 90.36C210.002 90.36 212.498 87.72 212.498 81.648C212.498 75.408 210.05 72.84 206.114 72.84C202.178 72.84 199.73 75.408 199.73 81.648C199.73 87.72 202.226 90.36 206.114 90.36ZM206.114 87.816C204.53 87.816 203.594 86.496 203.594 81.648C203.594 76.8 204.53 75.36 206.114 75.36C207.698 75.36 208.634 76.8 208.634 81.648C208.634 86.496 207.698 87.816 206.114 87.816ZM218.368 90V82.2C218.368 80.928 219.184 79.8 220.528 79.8C221.752 79.8 222.52 80.448 222.52 81.792V90H226.264V82.368C226.264 80.976 226.96 79.8 228.448 79.8C229.672 79.8 230.44 80.448 230.44 81.792V90H234.184V81.888C234.184 78.504 232.288 77.16 229.624 77.16C227.824 77.16 226.408 77.856 225.496 78.888C224.68 77.688 223.312 77.16 221.704 77.16C220 77.16 218.752 77.856 217.888 78.888L217.264 77.52H214.624V90H218.368ZM235.983 86.472C236.391 88.776 238.551 90.36 241.959 90.36C245.943 90.36 247.815 88.608 247.815 86.136C247.815 83.376 245.127 82.776 242.847 82.2C240.735 81.672 240.255 81.432 240.255 80.736C240.255 80.088 240.735 79.704 241.935 79.704C243.135 79.704 243.831 80.208 243.999 80.976H247.767C247.335 78.6 245.247 77.16 242.031 77.16C238.359 77.16 236.511 78.72 236.511 81.048C236.511 83.688 238.647 84.504 241.047 85.08C243.327 85.632 244.023 85.776 244.023 86.64C244.023 87.384 243.423 87.816 241.935 87.816C240.759 87.816 239.919 87.264 239.751 86.472H235.983Z" fill="white"/>
</svg>
