<svg width="559" height="722" viewBox="0 0 559 722" fill="none" xmlns="http://www.w3.org/2000/svg">
<rect width="559" height="722" rx="16" fill="#1A1A1A"/>
<rect x="34.4463" y="48.1338" width="97.3619" height="489.526" stroke="#292929"/>
<rect x="132.808" y="48.1338" width="97.3619" height="489.526" stroke="#292929"/>
<rect x="231.17" y="48.1338" width="97.3619" height="489.526" stroke="#292929"/>
<rect x="329.532" y="48.1338" width="97.3619" height="489.526" stroke="#292929"/>
<rect x="427.894" y="48.1338" width="97.3619" height="489.526" stroke="#292929"/>
<rect x="524.756" y="538.432" width="490.512" height="490.512" transform="rotate(-180 524.756 538.432)" stroke="#545454" stroke-width="1.99961"/>
<line x1="521.848" y1="49.9347" x2="34.5277" y2="536.103" stroke="#545454" stroke-width="1.99961"/>
<line x1="525.756" y1="47.8409" x2="206.756" y2="47.8408" stroke="#ADADAD" stroke-width="1.99961"/>
<ellipse cx="204.639" cy="48.5513" rx="8.65067" ry="8.55123" transform="rotate(-180 204.639 48.5513)" fill="#ADADAD"/>
<line x1="33.946" y1="537.16" x2="362.493" y2="537.16" stroke="#ADADAD" stroke-width="1.99961"/>
<ellipse cx="360.762" cy="536.449" rx="8.65067" ry="8.55123" fill="#ADADAD"/>
<path d="M525.756 48.5519C203.285 48.5519 361.216 535.402 37.2812 535.402" stroke="#FF9D52" stroke-width="1.99961"/>
<rect x="33.2441" y="566" width="364.079" height="59.9883" rx="15.9969" fill="#1A1A1A"/>
<path d="M149.007 604.237C147.723 604.237 146.629 603.888 145.726 603.189C144.823 602.484 144.132 601.464 143.655 600.129C143.178 598.788 142.939 597.169 142.939 595.271C142.939 593.385 143.178 591.774 143.655 590.439C144.138 589.098 144.831 588.075 145.734 587.371C146.644 586.66 147.734 586.305 149.007 586.305C150.28 586.305 151.368 586.66 152.271 587.371C153.18 588.075 153.874 589.098 154.351 590.439C154.834 591.774 155.075 593.385 155.075 595.271C155.075 597.169 154.837 598.788 154.359 600.129C153.882 601.464 153.192 602.484 152.288 603.189C151.385 603.888 150.291 604.237 149.007 604.237ZM149.007 602.362C150.28 602.362 151.269 601.749 151.973 600.521C152.678 599.294 153.03 597.544 153.03 595.271C153.03 593.76 152.868 592.473 152.544 591.41C152.226 590.348 151.766 589.538 151.163 588.981C150.567 588.425 149.848 588.146 149.007 588.146C147.746 588.146 146.76 588.768 146.05 590.013C145.34 591.251 144.984 593.004 144.984 595.271C144.984 596.783 145.144 598.067 145.462 599.124C145.78 600.18 146.237 600.984 146.834 601.535C147.436 602.087 148.161 602.362 149.007 602.362ZM159.205 604.135C158.784 604.135 158.423 603.984 158.122 603.683C157.821 603.382 157.671 603.021 157.671 602.601C157.671 602.18 157.821 601.82 158.122 601.518C158.423 601.217 158.784 601.067 159.205 601.067C159.625 601.067 159.986 601.217 160.287 601.518C160.588 601.82 160.739 602.18 160.739 602.601C160.739 602.879 160.668 603.135 160.526 603.368C160.389 603.601 160.205 603.788 159.972 603.93C159.744 604.067 159.489 604.135 159.205 604.135ZM169.5 604.237C168.784 604.226 168.068 604.089 167.352 603.828C166.636 603.567 165.983 603.126 165.392 602.507C164.801 601.882 164.327 601.038 163.969 599.976C163.611 598.908 163.432 597.567 163.432 595.953C163.432 594.408 163.577 593.038 163.867 591.845C164.156 590.646 164.577 589.638 165.128 588.82C165.679 587.996 166.344 587.371 167.122 586.945C167.906 586.518 168.79 586.305 169.773 586.305C170.75 586.305 171.619 586.501 172.381 586.893C173.148 587.28 173.773 587.82 174.256 588.513C174.739 589.206 175.051 590.004 175.193 590.908H173.114C172.921 590.124 172.546 589.473 171.989 588.956C171.432 588.439 170.693 588.18 169.773 588.18C168.421 588.18 167.355 588.768 166.577 589.945C165.804 591.121 165.415 592.771 165.409 594.896H165.546C165.864 594.413 166.242 594.001 166.679 593.66C167.122 593.314 167.611 593.047 168.145 592.859C168.679 592.672 169.244 592.578 169.841 592.578C170.841 592.578 171.756 592.828 172.585 593.328C173.415 593.822 174.08 594.507 174.58 595.382C175.08 596.251 175.33 597.249 175.33 598.374C175.33 599.453 175.088 600.442 174.605 601.339C174.122 602.231 173.443 602.942 172.568 603.47C171.699 603.993 170.676 604.249 169.5 604.237ZM169.5 602.362C170.216 602.362 170.858 602.183 171.426 601.825C172 601.467 172.452 600.987 172.781 600.385C173.117 599.783 173.284 599.112 173.284 598.374C173.284 597.652 173.122 596.996 172.798 596.405C172.48 595.808 172.04 595.334 171.477 594.981C170.921 594.629 170.284 594.453 169.568 594.453C169.028 594.453 168.526 594.561 168.06 594.777C167.594 594.987 167.185 595.277 166.832 595.646C166.486 596.016 166.213 596.439 166.014 596.916C165.815 597.388 165.716 597.885 165.716 598.408C165.716 599.101 165.878 599.749 166.202 600.351C166.531 600.953 166.98 601.439 167.548 601.808C168.122 602.178 168.773 602.362 169.5 602.362ZM184.477 604.237C183.761 604.226 183.045 604.089 182.329 603.828C181.613 603.567 180.96 603.126 180.369 602.507C179.778 601.882 179.303 601.038 178.945 599.976C178.587 598.908 178.408 597.567 178.408 595.953C178.408 594.408 178.553 593.038 178.843 591.845C179.133 590.646 179.553 589.638 180.104 588.82C180.656 587.996 181.32 587.371 182.099 586.945C182.883 586.518 183.766 586.305 184.749 586.305C185.727 586.305 186.596 586.501 187.357 586.893C188.124 587.28 188.749 587.82 189.232 588.513C189.715 589.206 190.028 590.004 190.17 590.908H188.09C187.897 590.124 187.522 589.473 186.965 588.956C186.408 588.439 185.67 588.18 184.749 588.18C183.397 588.18 182.332 588.768 181.553 589.945C180.781 591.121 180.391 592.771 180.386 594.896H180.522C180.84 594.413 181.218 594.001 181.656 593.66C182.099 593.314 182.587 593.047 183.122 592.859C183.656 592.672 184.221 592.578 184.818 592.578C185.818 592.578 186.732 592.828 187.562 593.328C188.391 593.822 189.056 594.507 189.556 595.382C190.056 596.251 190.306 597.249 190.306 598.374C190.306 599.453 190.065 600.442 189.582 601.339C189.099 602.231 188.42 602.942 187.545 603.47C186.675 603.993 185.653 604.249 184.477 604.237ZM184.477 602.362C185.193 602.362 185.835 602.183 186.403 601.825C186.977 601.467 187.428 600.987 187.758 600.385C188.093 599.783 188.261 599.112 188.261 598.374C188.261 597.652 188.099 596.996 187.775 596.405C187.457 595.808 187.016 595.334 186.454 594.981C185.897 594.629 185.261 594.453 184.545 594.453C184.005 594.453 183.502 594.561 183.036 594.777C182.57 594.987 182.161 595.277 181.809 595.646C181.462 596.016 181.19 596.439 180.991 596.916C180.792 597.388 180.693 597.885 180.693 598.408C180.693 599.101 180.854 599.749 181.178 600.351C181.508 600.953 181.957 601.439 182.525 601.808C183.099 602.178 183.749 602.362 184.477 602.362ZM195.872 601.612L195.735 602.533C195.639 603.18 195.491 603.874 195.292 604.612C195.099 605.351 194.897 606.047 194.687 606.7C194.477 607.354 194.303 607.874 194.167 608.26H192.633C192.707 607.896 192.803 607.416 192.923 606.82C193.042 606.223 193.161 605.555 193.281 604.817C193.406 604.084 193.508 603.334 193.587 602.567L193.69 601.612H195.872ZM212.007 604.237C210.723 604.237 209.629 603.888 208.726 603.189C207.823 602.484 207.132 601.464 206.655 600.129C206.178 598.788 205.939 597.169 205.939 595.271C205.939 593.385 206.178 591.774 206.655 590.439C207.138 589.098 207.831 588.075 208.734 587.371C209.644 586.66 210.734 586.305 212.007 586.305C213.28 586.305 214.368 586.66 215.271 587.371C216.18 588.075 216.874 589.098 217.351 590.439C217.834 591.774 218.075 593.385 218.075 595.271C218.075 597.169 217.837 598.788 217.359 600.129C216.882 601.464 216.192 602.484 215.288 603.189C214.385 603.888 213.291 604.237 212.007 604.237ZM212.007 602.362C213.28 602.362 214.269 601.749 214.973 600.521C215.678 599.294 216.03 597.544 216.03 595.271C216.03 593.76 215.868 592.473 215.544 591.41C215.226 590.348 214.766 589.538 214.163 588.981C213.567 588.425 212.848 588.146 212.007 588.146C210.746 588.146 209.76 588.768 209.05 590.013C208.34 591.251 207.984 593.004 207.984 595.271C207.984 596.783 208.144 598.067 208.462 599.124C208.78 600.18 209.237 600.984 209.834 601.535C210.436 602.087 211.161 602.362 212.007 602.362ZM222.205 604.135C221.784 604.135 221.423 603.984 221.122 603.683C220.821 603.382 220.671 603.021 220.671 602.601C220.671 602.18 220.821 601.82 221.122 601.518C221.423 601.217 221.784 601.067 222.205 601.067C222.625 601.067 222.986 601.217 223.287 601.518C223.588 601.82 223.739 602.18 223.739 602.601C223.739 602.879 223.668 603.135 223.526 603.368C223.389 603.601 223.205 603.788 222.972 603.93C222.744 604.067 222.489 604.135 222.205 604.135ZM232.398 604.237C231.114 604.237 230.02 603.888 229.117 603.189C228.213 602.484 227.523 601.464 227.046 600.129C226.568 598.788 226.33 597.169 226.33 595.271C226.33 593.385 226.568 591.774 227.046 590.439C227.528 589.098 228.222 588.075 229.125 587.371C230.034 586.66 231.125 586.305 232.398 586.305C233.671 586.305 234.759 586.66 235.662 587.371C236.571 588.075 237.264 589.098 237.742 590.439C238.225 591.774 238.466 593.385 238.466 595.271C238.466 597.169 238.227 598.788 237.75 600.129C237.273 601.464 236.582 602.484 235.679 603.189C234.776 603.888 233.682 604.237 232.398 604.237ZM232.398 602.362C233.671 602.362 234.659 601.749 235.364 600.521C236.068 599.294 236.421 597.544 236.421 595.271C236.421 593.76 236.259 592.473 235.935 591.41C235.617 590.348 235.156 589.538 234.554 588.981C233.957 588.425 233.239 588.146 232.398 588.146C231.136 588.146 230.151 588.768 229.44 590.013C228.73 591.251 228.375 593.004 228.375 595.271C228.375 596.783 228.534 598.067 228.852 599.124C229.171 600.18 229.628 600.984 230.225 601.535C230.827 602.087 231.551 602.362 232.398 602.362ZM247.398 604.237C246.114 604.237 245.02 603.888 244.117 603.189C243.213 602.484 242.523 601.464 242.046 600.129C241.568 598.788 241.33 597.169 241.33 595.271C241.33 593.385 241.568 591.774 242.046 590.439C242.528 589.098 243.222 588.075 244.125 587.371C245.034 586.66 246.125 586.305 247.398 586.305C248.671 586.305 249.759 586.66 250.662 587.371C251.571 588.075 252.264 589.098 252.742 590.439C253.225 591.774 253.466 593.385 253.466 595.271C253.466 597.169 253.227 598.788 252.75 600.129C252.273 601.464 251.582 602.484 250.679 603.189C249.776 603.888 248.682 604.237 247.398 604.237ZM247.398 602.362C248.671 602.362 249.659 601.749 250.364 600.521C251.068 599.294 251.421 597.544 251.421 595.271C251.421 593.76 251.259 592.473 250.935 591.41C250.617 590.348 250.156 589.538 249.554 588.981C248.957 588.425 248.239 588.146 247.398 588.146C246.136 588.146 245.151 588.768 244.44 590.013C243.73 591.251 243.375 593.004 243.375 595.271C243.375 596.783 243.534 598.067 243.852 599.124C244.171 600.18 244.628 600.984 245.225 601.535C245.827 602.087 246.551 602.362 247.398 602.362ZM259.129 601.612L258.993 602.533C258.896 603.18 258.749 603.874 258.55 604.612C258.357 605.351 258.155 606.047 257.945 606.7C257.734 607.354 257.561 607.874 257.425 608.26H255.891C255.965 607.896 256.061 607.416 256.18 606.82C256.3 606.223 256.419 605.555 256.538 604.817C256.663 604.084 256.766 603.334 256.845 602.567L256.948 601.612H259.129ZM275.265 604.237C273.981 604.237 272.887 603.888 271.984 603.189C271.08 602.484 270.39 601.464 269.913 600.129C269.435 598.788 269.197 597.169 269.197 595.271C269.197 593.385 269.435 591.774 269.913 590.439C270.396 589.098 271.089 588.075 271.992 587.371C272.901 586.66 273.992 586.305 275.265 586.305C276.538 586.305 277.626 586.66 278.529 587.371C279.438 588.075 280.131 589.098 280.609 590.439C281.092 591.774 281.333 593.385 281.333 595.271C281.333 597.169 281.095 598.788 280.617 600.129C280.14 601.464 279.45 602.484 278.546 603.189C277.643 603.888 276.549 604.237 275.265 604.237ZM275.265 602.362C276.538 602.362 277.526 601.749 278.231 600.521C278.935 599.294 279.288 597.544 279.288 595.271C279.288 593.76 279.126 592.473 278.802 591.41C278.484 590.348 278.024 589.538 277.421 588.981C276.825 588.425 276.106 588.146 275.265 588.146C274.004 588.146 273.018 588.768 272.308 590.013C271.597 591.251 271.242 593.004 271.242 595.271C271.242 596.783 271.401 598.067 271.72 599.124C272.038 600.18 272.495 600.984 273.092 601.535C273.694 602.087 274.418 602.362 275.265 602.362ZM285.462 604.135C285.042 604.135 284.681 603.984 284.38 603.683C284.079 603.382 283.928 603.021 283.928 602.601C283.928 602.18 284.079 601.82 284.38 601.518C284.681 601.217 285.042 601.067 285.462 601.067C285.883 601.067 286.244 601.217 286.545 601.518C286.846 601.82 286.997 602.18 286.997 602.601C286.997 602.879 286.925 603.135 286.783 603.368C286.647 603.601 286.462 603.788 286.229 603.93C286.002 604.067 285.747 604.135 285.462 604.135ZM295.813 604.237C294.688 604.237 293.685 604.044 292.805 603.658C291.93 603.271 291.234 602.734 290.717 602.047C290.205 601.354 289.927 600.55 289.881 599.635H292.029C292.075 600.197 292.268 600.683 292.609 601.092C292.95 601.496 293.396 601.808 293.947 602.03C294.498 602.251 295.109 602.362 295.779 602.362C296.529 602.362 297.194 602.231 297.774 601.97C298.353 601.709 298.808 601.345 299.137 600.879C299.467 600.413 299.631 599.874 299.631 599.26C299.631 598.618 299.472 598.053 299.154 597.564C298.836 597.07 298.37 596.683 297.756 596.405C297.143 596.126 296.393 595.987 295.506 595.987H294.109V594.112H295.506C296.2 594.112 296.808 593.987 297.33 593.737C297.859 593.487 298.271 593.135 298.566 592.68C298.867 592.226 299.018 591.692 299.018 591.078C299.018 590.487 298.887 589.973 298.626 589.535C298.364 589.098 297.995 588.757 297.518 588.513C297.046 588.268 296.489 588.146 295.847 588.146C295.245 588.146 294.677 588.257 294.143 588.479C293.614 588.695 293.183 589.01 292.847 589.425C292.512 589.834 292.33 590.328 292.302 590.908H290.256C290.291 589.993 290.566 589.192 291.083 588.504C291.6 587.811 292.276 587.271 293.112 586.885C293.952 586.499 294.876 586.305 295.881 586.305C296.961 586.305 297.887 586.524 298.66 586.962C299.433 587.393 300.026 587.964 300.441 588.675C300.856 589.385 301.063 590.152 301.063 590.976C301.063 591.959 300.805 592.797 300.288 593.49C299.776 594.183 299.08 594.663 298.2 594.93V595.067C299.302 595.249 300.163 595.717 300.782 596.473C301.401 597.223 301.711 598.152 301.711 599.26C301.711 600.209 301.452 601.061 300.935 601.817C300.424 602.567 299.725 603.158 298.839 603.589C297.952 604.021 296.944 604.237 295.813 604.237ZM304.788 600.419V598.68L312.458 586.544H313.72V589.237H312.867L307.072 598.408V598.544H317.401V600.419H304.788ZM313.004 603.999V599.891V599.081V586.544H315.015V603.999H313.004ZM322.809 601.612L322.673 602.533C322.576 603.18 322.428 603.874 322.229 604.612C322.036 605.351 321.835 606.047 321.624 606.7C321.414 607.354 321.241 607.874 321.104 608.26H319.57C319.644 607.896 319.741 607.416 319.86 606.82C319.979 606.223 320.099 605.555 320.218 604.817C320.343 604.084 320.445 603.334 320.525 602.567L320.627 601.612H322.809ZM339.388 586.544V603.999H337.274V588.76H337.172L332.911 591.589V589.442L337.274 586.544H339.388ZM344.876 604.135C344.456 604.135 344.095 603.984 343.794 603.683C343.493 603.382 343.342 603.021 343.342 602.601C343.342 602.18 343.493 601.82 343.794 601.518C344.095 601.217 344.456 601.067 344.876 601.067C345.297 601.067 345.658 601.217 345.959 601.518C346.26 601.82 346.411 602.18 346.411 602.601C346.411 602.879 346.34 603.135 346.198 603.368C346.061 603.601 345.876 603.788 345.644 603.93C345.416 604.067 345.161 604.135 344.876 604.135ZM355.07 604.237C353.786 604.237 352.692 603.888 351.788 603.189C350.885 602.484 350.195 601.464 349.717 600.129C349.24 598.788 349.001 597.169 349.001 595.271C349.001 593.385 349.24 591.774 349.717 590.439C350.2 589.098 350.894 588.075 351.797 587.371C352.706 586.66 353.797 586.305 355.07 586.305C356.342 586.305 357.43 586.66 358.334 587.371C359.243 588.075 359.936 589.098 360.413 590.439C360.896 591.774 361.138 593.385 361.138 595.271C361.138 597.169 360.899 598.788 360.422 600.129C359.945 601.464 359.254 602.484 358.351 603.189C357.448 603.888 356.354 604.237 355.07 604.237ZM355.07 602.362C356.342 602.362 357.331 601.749 358.036 600.521C358.74 599.294 359.092 597.544 359.092 595.271C359.092 593.76 358.93 592.473 358.607 591.41C358.288 590.348 357.828 589.538 357.226 588.981C356.629 588.425 355.911 588.146 355.07 588.146C353.808 588.146 352.823 588.768 352.112 590.013C351.402 591.251 351.047 593.004 351.047 595.271C351.047 596.783 351.206 598.067 351.524 599.124C351.842 600.18 352.3 600.984 352.896 601.535C353.499 602.087 354.223 602.362 355.07 602.362ZM370.07 604.237C368.786 604.237 367.692 603.888 366.788 603.189C365.885 602.484 365.195 601.464 364.717 600.129C364.24 598.788 364.001 597.169 364.001 595.271C364.001 593.385 364.24 591.774 364.717 590.439C365.2 589.098 365.894 588.075 366.797 587.371C367.706 586.66 368.797 586.305 370.07 586.305C371.342 586.305 372.43 586.66 373.334 587.371C374.243 588.075 374.936 589.098 375.413 590.439C375.896 591.774 376.138 593.385 376.138 595.271C376.138 597.169 375.899 598.788 375.422 600.129C374.945 601.464 374.254 602.484 373.351 603.189C372.448 603.888 371.354 604.237 370.07 604.237ZM370.07 602.362C371.342 602.362 372.331 601.749 373.036 600.521C373.74 599.294 374.092 597.544 374.092 595.271C374.092 593.76 373.93 592.473 373.607 591.41C373.288 590.348 372.828 589.538 372.226 588.981C371.629 588.425 370.911 588.146 370.07 588.146C368.808 588.146 367.823 588.768 367.112 590.013C366.402 591.251 366.047 593.004 366.047 595.271C366.047 596.783 366.206 598.067 366.524 599.124C366.842 600.18 367.3 600.984 367.896 601.535C368.499 602.087 369.223 602.362 370.07 602.362Z" fill="white" fill-opacity="0.7"/>
<path d="M67.1851 592.223C66.4851 587.948 63.2351 585.623 58.8351 585.623C53.2851 585.623 49.8601 588.923 49.8601 594.948C49.8601 601.123 53.4851 604.373 58.6351 604.373C63.6101 604.373 66.6851 602.023 67.3101 597.098H62.0351C61.8351 599.648 60.6101 600.798 58.7101 600.798C56.8101 600.798 55.2601 599.148 55.2601 594.948C55.2601 590.823 56.7601 589.198 58.8351 589.198C60.3351 589.198 61.5351 590.048 61.9851 592.223H67.1851ZM87.2269 591.248C86.6519 587.748 83.7769 585.623 79.3269 585.623C74.1519 585.623 71.8019 587.873 71.8019 591.023C71.8019 594.398 74.1269 595.823 78.3019 596.748C81.3019 597.398 82.3519 597.798 82.3519 599.173C82.3519 600.123 81.4519 600.823 79.5519 600.823C77.5269 600.823 76.4519 599.823 76.1769 598.323H71.1269C71.5769 601.373 73.8769 604.373 79.5019 604.373C85.2019 604.373 87.6019 601.698 87.6019 598.723C87.6019 595.248 84.8769 593.373 80.2769 592.448C77.8769 591.973 77.0519 591.598 77.0519 590.548C77.0519 589.723 77.7769 589.148 79.2769 589.148C80.9269 589.148 82.0519 589.823 82.3019 591.248H87.2269ZM107.11 591.248C106.535 587.748 103.66 585.623 99.2097 585.623C94.0347 585.623 91.6847 587.873 91.6847 591.023C91.6847 594.398 94.0097 595.823 98.1847 596.748C101.185 597.398 102.235 597.798 102.235 599.173C102.235 600.123 101.335 600.823 99.4347 600.823C97.4097 600.823 96.3347 599.823 96.0597 598.323H91.0097C91.4597 601.373 93.7597 604.373 99.3847 604.373C105.085 604.373 107.485 601.698 107.485 598.723C107.485 595.248 104.76 593.373 100.16 592.448C97.7597 591.973 96.9347 591.598 96.9347 590.548C96.9347 589.723 97.6597 589.148 99.1597 589.148C100.81 589.148 101.935 589.823 102.185 591.248H107.11Z" fill="white"/>
<rect x="34.9373" y="645.181" width="170.637" height="35.6372" rx="17.8186" stroke="#FF9D52" stroke-width="2.36279"/>
<path d="M57.2568 671.5V654.118H54.149V671.5H57.2568ZM61.2319 671.5H64.2192V663.827C64.2192 661.851 65.3395 660.611 67.1222 660.611C68.9411 660.611 69.7843 661.635 69.7843 663.682V671.5H72.7717V662.984C72.7717 659.852 71.1696 658.081 68.2305 658.081C66.267 658.081 64.942 658.972 64.3156 660.442H64.1108V658.334H61.2319V671.5ZM84.1187 653.684C79.0716 653.684 75.8915 657.19 75.8915 662.803C75.8915 668.404 79.0234 671.934 84.1187 671.934C89.19 671.934 92.3339 668.404 92.3339 662.803C92.3339 657.19 89.1779 653.684 84.1187 653.684ZM84.1187 656.371C87.2024 656.371 89.1659 658.864 89.1659 662.803C89.1659 666.718 87.2145 669.247 84.1187 669.247C80.9869 669.247 79.0716 666.718 79.0716 662.803C79.0716 658.864 81.035 656.371 84.1187 656.371ZM107.054 658.334H104.066V666.007C104.066 667.995 103.006 669.199 101.067 669.199C99.2843 669.199 98.4531 668.212 98.4531 666.164V658.334H95.4658V666.886C95.4658 669.97 97.1522 671.765 100.031 671.765C102.043 671.765 103.332 670.91 103.97 669.404H104.175V671.5H107.054V658.334ZM111.667 655.106V658.418H109.583V660.743H111.667V668.007C111.667 670.548 112.872 671.56 115.895 671.56C116.474 671.56 117.028 671.512 117.461 671.428V669.139C117.1 669.175 116.871 669.199 116.449 669.199C115.197 669.199 114.643 668.609 114.643 667.296V660.743H117.461V658.418H114.643V655.106H111.667ZM128.013 671.934C132.025 671.934 134.964 669.561 135.373 666.043H132.314C131.892 667.995 130.218 669.235 128.013 669.235C125.05 669.235 123.207 666.766 123.207 662.803C123.207 658.852 125.05 656.383 128.001 656.383C130.194 656.383 131.868 657.744 132.302 659.84H135.361C135 656.238 131.952 653.684 128.001 653.684C123.075 653.684 120.027 657.166 120.027 662.815C120.027 668.44 123.087 671.934 128.013 671.934ZM149.985 658.334H146.997V666.007C146.997 667.995 145.937 669.199 143.998 669.199C142.215 669.199 141.384 668.212 141.384 666.164V658.334H138.397V666.886C138.397 669.97 140.083 671.765 142.962 671.765C144.974 671.765 146.263 670.91 146.901 669.404H147.106V671.5H149.985V658.334ZM160.97 671.717C164.295 671.717 166.379 669.103 166.379 664.923C166.379 660.719 164.307 658.117 160.97 658.117C159.163 658.117 157.646 658.997 156.959 660.43H156.754V653.239H153.767V671.5H156.646V669.416H156.851C157.598 670.862 159.127 671.717 160.97 671.717ZM160.031 660.611C162.067 660.611 163.307 662.237 163.307 664.923C163.307 667.609 162.079 669.235 160.031 669.235C157.983 669.235 156.706 667.585 156.706 664.923C156.706 662.261 157.995 660.611 160.031 660.611ZM170.896 656.13C171.884 656.13 172.691 655.347 172.691 654.359C172.691 653.383 171.884 652.588 170.896 652.588C169.92 652.588 169.113 653.383 169.113 654.359C169.113 655.347 169.92 656.13 170.896 656.13ZM169.414 671.5H172.39V658.334H169.414V671.5ZM187.483 662.731C187.17 660.008 185.122 658.081 181.737 658.081C177.774 658.081 175.449 660.623 175.449 664.887C175.449 669.199 177.786 671.765 181.749 671.765C185.086 671.765 187.158 669.91 187.483 667.188H184.64C184.327 668.573 183.291 669.308 181.737 669.308C179.701 669.308 178.473 667.682 178.473 664.887C178.473 662.14 179.689 660.526 181.737 660.526C183.375 660.526 184.363 661.454 184.64 662.731H187.483Z" fill="#FF9D52"/>
</svg>
