<svg width="559" height="722" viewBox="0 0 559 722" fill="none" xmlns="http://www.w3.org/2000/svg">
<rect width="559" height="722" rx="16" fill="#1A1A1A"/>
<rect x="34.4463" y="48.1338" width="97.3619" height="489.526" stroke="#292929"/>
<rect x="132.808" y="48.1338" width="97.3619" height="489.526" stroke="#292929"/>
<rect x="231.17" y="48.1338" width="97.3619" height="489.526" stroke="#292929"/>
<rect x="329.532" y="48.1338" width="97.3619" height="489.526" stroke="#292929"/>
<rect x="427.894" y="48.1338" width="97.3619" height="489.526" stroke="#292929"/>
<rect x="524.756" y="538.432" width="490.512" height="490.512" transform="rotate(-180 524.756 538.432)" stroke="#545454" stroke-width="1.99961"/>
<line x1="521.848" y1="49.9346" x2="34.5277" y2="536.102" stroke="#545454" stroke-width="1.99961"/>
<line x1="525.756" y1="47.8409" x2="320.406" y2="47.8409" stroke="#ADADAD" stroke-width="1.99961"/>
<ellipse cx="320.407" cy="48.5513" rx="8.65067" ry="8.55123" transform="rotate(-180 320.407 48.5513)" fill="#ADADAD"/>
<line x1="33.2442" y1="537.16" x2="244.998" y2="537.16" stroke="#ADADAD" stroke-width="1.99961"/>
<ellipse cx="243.268" cy="536.449" rx="8.65067" ry="8.55123" fill="#ADADAD"/>
<path d="M525.756 48.5518C323.175 48.5518 244.944 535.402 37.2813 535.402" stroke="#3CC29A" stroke-width="1.99961"/>
<rect x="33.2441" y="566" width="364.079" height="59.9883" rx="15.9969" fill="#1A1A1A"/>
<path d="M67.1851 592.223C66.4851 587.948 63.2351 585.623 58.8351 585.623C53.2851 585.623 49.8601 588.923 49.8601 594.948C49.8601 601.123 53.4851 604.373 58.6351 604.373C63.6101 604.373 66.6851 602.023 67.3101 597.098H62.0351C61.8351 599.648 60.6101 600.798 58.7101 600.798C56.8101 600.798 55.2601 599.148 55.2601 594.948C55.2601 590.823 56.7601 589.198 58.8351 589.198C60.3351 589.198 61.5351 590.048 61.9851 592.223H67.1851ZM87.2269 591.248C86.6519 587.748 83.7769 585.623 79.3269 585.623C74.1519 585.623 71.8019 587.873 71.8019 591.023C71.8019 594.398 74.1269 595.823 78.3019 596.748C81.3019 597.398 82.3519 597.798 82.3519 599.173C82.3519 600.123 81.4519 600.823 79.5519 600.823C77.5269 600.823 76.4519 599.823 76.1769 598.323H71.1269C71.5769 601.373 73.8769 604.373 79.5019 604.373C85.2019 604.373 87.6019 601.698 87.6019 598.723C87.6019 595.248 84.8769 593.373 80.2769 592.448C77.8769 591.973 77.0519 591.598 77.0519 590.548C77.0519 589.723 77.7769 589.148 79.2769 589.148C80.9269 589.148 82.0519 589.823 82.3019 591.248H87.2269ZM107.11 591.248C106.535 587.748 103.66 585.623 99.2097 585.623C94.0347 585.623 91.6847 587.873 91.6847 591.023C91.6847 594.398 94.0097 595.823 98.1847 596.748C101.185 597.398 102.235 597.798 102.235 599.173C102.235 600.123 101.335 600.823 99.4347 600.823C97.4097 600.823 96.3347 599.823 96.0597 598.323H91.0097C91.4597 601.373 93.7597 604.373 99.3847 604.373C105.085 604.373 107.485 601.698 107.485 598.723C107.485 595.248 104.76 593.373 100.16 592.448C97.7597 591.973 96.9347 591.598 96.9347 590.548C96.9347 589.723 97.6597 589.148 99.1597 589.148C100.81 589.148 101.935 589.823 102.185 591.248H107.11Z" fill="white"/>
<path d="M152.288 604.237C151.004 604.237 149.911 603.888 149.007 603.189C148.104 602.484 147.413 601.464 146.936 600.129C146.459 598.788 146.22 597.169 146.22 595.271C146.22 593.385 146.459 591.774 146.936 590.439C147.419 589.098 148.112 588.075 149.016 587.371C149.925 586.66 151.016 586.305 152.288 586.305C153.561 586.305 154.649 586.66 155.553 587.371C156.462 588.075 157.155 589.098 157.632 590.439C158.115 591.774 158.357 593.385 158.357 595.271C158.357 597.169 158.118 598.788 157.641 600.129C157.163 601.464 156.473 602.484 155.57 603.189C154.666 603.888 153.573 604.237 152.288 604.237ZM152.288 602.362C153.561 602.362 154.55 601.749 155.254 600.521C155.959 599.294 156.311 597.544 156.311 595.271C156.311 593.76 156.149 592.473 155.825 591.41C155.507 590.348 155.047 589.538 154.445 588.981C153.848 588.425 153.129 588.146 152.288 588.146C151.027 588.146 150.041 588.768 149.331 590.013C148.621 591.251 148.266 593.004 148.266 595.271C148.266 596.783 148.425 598.067 148.743 599.124C149.061 600.18 149.519 600.984 150.115 601.535C150.717 602.087 151.442 602.362 152.288 602.362ZM162.486 604.135C162.065 604.135 161.705 603.984 161.403 603.683C161.102 603.382 160.952 603.021 160.952 602.601C160.952 602.18 161.102 601.82 161.403 601.518C161.705 601.217 162.065 601.067 162.486 601.067C162.906 601.067 163.267 601.217 163.568 601.518C163.869 601.82 164.02 602.18 164.02 602.601C164.02 602.879 163.949 603.135 163.807 603.368C163.671 603.601 163.486 603.788 163.253 603.93C163.026 604.067 162.77 604.135 162.486 604.135ZM172.837 604.237C171.712 604.237 170.709 604.044 169.828 603.658C168.953 603.271 168.257 602.734 167.74 602.047C167.229 601.354 166.95 600.55 166.905 599.635H169.053C169.098 600.197 169.291 600.683 169.632 601.092C169.973 601.496 170.419 601.808 170.97 602.03C171.521 602.251 172.132 602.362 172.803 602.362C173.553 602.362 174.217 602.231 174.797 601.97C175.376 601.709 175.831 601.345 176.161 600.879C176.49 600.413 176.655 599.874 176.655 599.26C176.655 598.618 176.496 598.053 176.178 597.564C175.859 597.07 175.394 596.683 174.78 596.405C174.166 596.126 173.416 595.987 172.53 595.987H171.132V594.112H172.53C173.223 594.112 173.831 593.987 174.354 593.737C174.882 593.487 175.294 593.135 175.59 592.68C175.891 592.226 176.041 591.692 176.041 591.078C176.041 590.487 175.911 589.973 175.649 589.535C175.388 589.098 175.019 588.757 174.541 588.513C174.07 588.268 173.513 588.146 172.871 588.146C172.269 588.146 171.7 588.257 171.166 588.479C170.638 588.695 170.206 589.01 169.871 589.425C169.536 589.834 169.354 590.328 169.325 590.908H167.28C167.314 589.993 167.59 589.192 168.107 588.504C168.624 587.811 169.3 587.271 170.135 586.885C170.976 586.499 171.899 586.305 172.905 586.305C173.984 586.305 174.911 586.524 175.683 586.962C176.456 587.393 177.05 587.964 177.465 588.675C177.879 589.385 178.087 590.152 178.087 590.976C178.087 591.959 177.828 592.797 177.311 593.49C176.8 594.183 176.104 594.663 175.223 594.93V595.067C176.325 595.249 177.186 595.717 177.805 596.473C178.425 597.223 178.734 598.152 178.734 599.26C178.734 600.209 178.476 601.061 177.959 601.817C177.448 602.567 176.749 603.158 175.862 603.589C174.976 604.021 173.967 604.237 172.837 604.237ZM182.766 603.999L190.573 588.555V588.419H181.573V586.544H192.754V588.521L184.982 603.999H182.766ZM195.965 601.612L195.829 602.533C195.732 603.18 195.585 603.874 195.386 604.612C195.193 605.351 194.991 606.047 194.781 606.7C194.57 607.354 194.397 607.874 194.261 608.26H192.727C192.8 607.896 192.897 607.416 193.016 606.82C193.136 606.223 193.255 605.555 193.374 604.817C193.499 604.084 193.602 603.334 193.681 602.567L193.783 601.612H195.965ZM212.101 604.237C210.817 604.237 209.723 603.888 208.82 603.189C207.916 602.484 207.226 601.464 206.749 600.129C206.271 598.788 206.033 597.169 206.033 595.271C206.033 593.385 206.271 591.774 206.749 590.439C207.232 589.098 207.925 588.075 208.828 587.371C209.737 586.66 210.828 586.305 212.101 586.305C213.374 586.305 214.462 586.66 215.365 587.371C216.274 588.075 216.967 589.098 217.445 590.439C217.928 591.774 218.169 593.385 218.169 595.271C218.169 597.169 217.93 598.788 217.453 600.129C216.976 601.464 216.286 602.484 215.382 603.189C214.479 603.888 213.385 604.237 212.101 604.237ZM212.101 602.362C213.374 602.362 214.362 601.749 215.067 600.521C215.771 599.294 216.124 597.544 216.124 595.271C216.124 593.76 215.962 592.473 215.638 591.41C215.32 590.348 214.859 589.538 214.257 588.981C213.661 588.425 212.942 588.146 212.101 588.146C210.84 588.146 209.854 588.768 209.144 590.013C208.433 591.251 208.078 593.004 208.078 595.271C208.078 596.783 208.237 598.067 208.555 599.124C208.874 600.18 209.331 600.984 209.928 601.535C210.53 602.087 211.254 602.362 212.101 602.362ZM222.298 604.135C221.878 604.135 221.517 603.984 221.216 603.683C220.915 603.382 220.764 603.021 220.764 602.601C220.764 602.18 220.915 601.82 221.216 601.518C221.517 601.217 221.878 601.067 222.298 601.067C222.719 601.067 223.08 601.217 223.381 601.518C223.682 601.82 223.832 602.18 223.832 602.601C223.832 602.879 223.761 603.135 223.619 603.368C223.483 603.601 223.298 603.788 223.065 603.93C222.838 604.067 222.582 604.135 222.298 604.135ZM232.492 604.237C231.207 604.237 230.114 603.888 229.21 603.189C228.307 602.484 227.617 601.464 227.139 600.129C226.662 598.788 226.423 597.169 226.423 595.271C226.423 593.385 226.662 591.774 227.139 590.439C227.622 589.098 228.315 588.075 229.219 587.371C230.128 586.66 231.219 586.305 232.492 586.305C233.764 586.305 234.852 586.66 235.756 587.371C236.665 588.075 237.358 589.098 237.835 590.439C238.318 591.774 238.56 593.385 238.56 595.271C238.56 597.169 238.321 598.788 237.844 600.129C237.367 601.464 236.676 602.484 235.773 603.189C234.869 603.888 233.776 604.237 232.492 604.237ZM232.492 602.362C233.764 602.362 234.753 601.749 235.457 600.521C236.162 599.294 236.514 597.544 236.514 595.271C236.514 593.76 236.352 592.473 236.028 591.41C235.71 590.348 235.25 589.538 234.648 588.981C234.051 588.425 233.332 588.146 232.492 588.146C231.23 588.146 230.244 588.768 229.534 590.013C228.824 591.251 228.469 593.004 228.469 595.271C228.469 596.783 228.628 598.067 228.946 599.124C229.264 600.18 229.722 600.984 230.318 601.535C230.921 602.087 231.645 602.362 232.492 602.362ZM247.492 604.237C246.207 604.237 245.114 603.888 244.21 603.189C243.307 602.484 242.617 601.464 242.139 600.129C241.662 598.788 241.423 597.169 241.423 595.271C241.423 593.385 241.662 591.774 242.139 590.439C242.622 589.098 243.315 588.075 244.219 587.371C245.128 586.66 246.219 586.305 247.492 586.305C248.764 586.305 249.852 586.66 250.756 587.371C251.665 588.075 252.358 589.098 252.835 590.439C253.318 591.774 253.56 593.385 253.56 595.271C253.56 597.169 253.321 598.788 252.844 600.129C252.367 601.464 251.676 602.484 250.773 603.189C249.869 603.888 248.776 604.237 247.492 604.237ZM247.492 602.362C248.764 602.362 249.753 601.749 250.457 600.521C251.162 599.294 251.514 597.544 251.514 595.271C251.514 593.76 251.352 592.473 251.028 591.41C250.71 590.348 250.25 589.538 249.648 588.981C249.051 588.425 248.332 588.146 247.492 588.146C246.23 588.146 245.244 588.768 244.534 590.013C243.824 591.251 243.469 593.004 243.469 595.271C243.469 596.783 243.628 598.067 243.946 599.124C244.264 600.18 244.722 600.984 245.318 601.535C245.921 602.087 246.645 602.362 247.492 602.362ZM259.223 601.612L259.087 602.533C258.99 603.18 258.842 603.874 258.644 604.612C258.45 605.351 258.249 606.047 258.038 606.7C257.828 607.354 257.655 607.874 257.519 608.26H255.984C256.058 607.896 256.155 607.416 256.274 606.82C256.394 606.223 256.513 605.555 256.632 604.817C256.757 604.084 256.859 603.334 256.939 602.567L257.041 601.612H259.223ZM275.359 604.237C274.075 604.237 272.981 603.888 272.077 603.189C271.174 602.484 270.484 601.464 270.006 600.129C269.529 598.788 269.291 597.169 269.291 595.271C269.291 593.385 269.529 591.774 270.006 590.439C270.489 589.098 271.183 588.075 272.086 587.371C272.995 586.66 274.086 586.305 275.359 586.305C276.631 586.305 277.72 586.66 278.623 587.371C279.532 588.075 280.225 589.098 280.702 590.439C281.185 591.774 281.427 593.385 281.427 595.271C281.427 597.169 281.188 598.788 280.711 600.129C280.234 601.464 279.543 602.484 278.64 603.189C277.737 603.888 276.643 604.237 275.359 604.237ZM275.359 602.362C276.631 602.362 277.62 601.749 278.325 600.521C279.029 599.294 279.381 597.544 279.381 595.271C279.381 593.76 279.22 592.473 278.896 591.41C278.577 590.348 278.117 589.538 277.515 588.981C276.918 588.425 276.2 588.146 275.359 588.146C274.097 588.146 273.112 588.768 272.401 590.013C271.691 591.251 271.336 593.004 271.336 595.271C271.336 596.783 271.495 598.067 271.813 599.124C272.131 600.18 272.589 600.984 273.185 601.535C273.788 602.087 274.512 602.362 275.359 602.362ZM285.556 604.135C285.136 604.135 284.775 603.984 284.474 603.683C284.173 603.382 284.022 603.021 284.022 602.601C284.022 602.18 284.173 601.82 284.474 601.518C284.775 601.217 285.136 601.067 285.556 601.067C285.977 601.067 286.337 601.217 286.639 601.518C286.94 601.82 287.09 602.18 287.09 602.601C287.09 602.879 287.019 603.135 286.877 603.368C286.741 603.601 286.556 603.788 286.323 603.93C286.096 604.067 285.84 604.135 285.556 604.135ZM295.852 604.237C295.136 604.226 294.42 604.089 293.704 603.828C292.988 603.567 292.335 603.126 291.744 602.507C291.153 601.882 290.678 601.038 290.32 599.976C289.962 598.908 289.783 597.567 289.783 595.953C289.783 594.408 289.928 593.038 290.218 591.845C290.508 590.646 290.928 589.638 291.479 588.82C292.031 587.996 292.695 587.371 293.474 586.945C294.258 586.518 295.141 586.305 296.124 586.305C297.102 586.305 297.971 586.501 298.732 586.893C299.499 587.28 300.124 587.82 300.607 588.513C301.09 589.206 301.403 590.004 301.545 590.908H299.465C299.272 590.124 298.897 589.473 298.34 588.956C297.783 588.439 297.045 588.18 296.124 588.18C294.772 588.18 293.707 588.768 292.928 589.945C292.156 591.121 291.766 592.771 291.761 594.896H291.897C292.215 594.413 292.593 594.001 293.031 593.66C293.474 593.314 293.962 593.047 294.497 592.859C295.031 592.672 295.596 592.578 296.193 592.578C297.193 592.578 298.107 592.828 298.937 593.328C299.766 593.822 300.431 594.507 300.931 595.382C301.431 596.251 301.681 597.249 301.681 598.374C301.681 599.453 301.44 600.442 300.957 601.339C300.474 602.231 299.795 602.942 298.92 603.47C298.05 603.993 297.028 604.249 295.852 604.237ZM295.852 602.362C296.568 602.362 297.21 602.183 297.778 601.825C298.352 601.467 298.803 600.987 299.133 600.385C299.468 599.783 299.636 599.112 299.636 598.374C299.636 597.652 299.474 596.996 299.15 596.405C298.832 595.808 298.391 595.334 297.829 594.981C297.272 594.629 296.636 594.453 295.92 594.453C295.38 594.453 294.877 594.561 294.411 594.777C293.945 594.987 293.536 595.277 293.184 595.646C292.837 596.016 292.565 596.439 292.366 596.916C292.167 597.388 292.068 597.885 292.068 598.408C292.068 599.101 292.229 599.749 292.553 600.351C292.883 600.953 293.332 601.439 293.9 601.808C294.474 602.178 295.124 602.362 295.852 602.362ZM310.93 604.237C309.805 604.237 308.803 604.044 307.922 603.658C307.047 603.271 306.351 602.734 305.834 602.047C305.323 601.354 305.044 600.55 304.999 599.635H307.146C307.192 600.197 307.385 600.683 307.726 601.092C308.067 601.496 308.513 601.808 309.064 602.03C309.615 602.251 310.226 602.362 310.896 602.362C311.646 602.362 312.311 602.231 312.891 601.97C313.47 601.709 313.925 601.345 314.254 600.879C314.584 600.413 314.749 599.874 314.749 599.26C314.749 598.618 314.59 598.053 314.271 597.564C313.953 597.07 313.487 596.683 312.874 596.405C312.26 596.126 311.51 595.987 310.624 595.987H309.226V594.112H310.624C311.317 594.112 311.925 593.987 312.448 593.737C312.976 593.487 313.388 593.135 313.683 592.68C313.984 592.226 314.135 591.692 314.135 591.078C314.135 590.487 314.004 589.973 313.743 589.535C313.482 589.098 313.112 588.757 312.635 588.513C312.163 588.268 311.607 588.146 310.965 588.146C310.362 588.146 309.794 588.257 309.26 588.479C308.732 588.695 308.3 589.01 307.965 589.425C307.629 589.834 307.448 590.328 307.419 590.908H305.374C305.408 589.993 305.683 589.192 306.2 588.504C306.717 587.811 307.394 587.271 308.229 586.885C309.07 586.499 309.993 586.305 310.999 586.305C312.078 586.305 313.004 586.524 313.777 586.962C314.55 587.393 315.144 587.964 315.558 588.675C315.973 589.385 316.18 590.152 316.18 590.976C316.18 591.959 315.922 592.797 315.405 593.49C314.894 594.183 314.198 594.663 313.317 594.93V595.067C314.419 595.249 315.28 595.717 315.899 596.473C316.519 597.223 316.828 598.152 316.828 599.26C316.828 600.209 316.57 601.061 316.053 601.817C315.541 602.567 314.842 603.158 313.956 603.589C313.07 604.021 312.061 604.237 310.93 604.237ZM322.809 601.612L322.673 602.533C322.576 603.18 322.428 603.874 322.229 604.612C322.036 605.351 321.835 606.047 321.624 606.7C321.414 607.354 321.241 607.874 321.104 608.26H319.57C319.644 607.896 319.741 607.416 319.86 606.82C319.979 606.223 320.099 605.555 320.218 604.817C320.343 604.084 320.445 603.334 320.525 602.567L320.627 601.612H322.809ZM339.388 586.544V603.999H337.274V588.76H337.172L332.911 591.589V589.442L337.274 586.544H339.388ZM344.876 604.135C344.456 604.135 344.095 603.984 343.794 603.683C343.493 603.382 343.342 603.021 343.342 602.601C343.342 602.18 343.493 601.82 343.794 601.518C344.095 601.217 344.456 601.067 344.876 601.067C345.297 601.067 345.658 601.217 345.959 601.518C346.26 601.82 346.411 602.18 346.411 602.601C346.411 602.879 346.34 603.135 346.198 603.368C346.061 603.601 345.876 603.788 345.644 603.93C345.416 604.067 345.161 604.135 344.876 604.135ZM355.07 604.237C353.786 604.237 352.692 603.888 351.788 603.189C350.885 602.484 350.195 601.464 349.717 600.129C349.24 598.788 349.001 597.169 349.001 595.271C349.001 593.385 349.24 591.774 349.717 590.439C350.2 589.098 350.894 588.075 351.797 587.371C352.706 586.66 353.797 586.305 355.07 586.305C356.342 586.305 357.43 586.66 358.334 587.371C359.243 588.075 359.936 589.098 360.413 590.439C360.896 591.774 361.138 593.385 361.138 595.271C361.138 597.169 360.899 598.788 360.422 600.129C359.945 601.464 359.254 602.484 358.351 603.189C357.448 603.888 356.354 604.237 355.07 604.237ZM355.07 602.362C356.342 602.362 357.331 601.749 358.036 600.521C358.74 599.294 359.092 597.544 359.092 595.271C359.092 593.76 358.93 592.473 358.607 591.41C358.288 590.348 357.828 589.538 357.226 588.981C356.629 588.425 355.911 588.146 355.07 588.146C353.808 588.146 352.823 588.768 352.112 590.013C351.402 591.251 351.047 593.004 351.047 595.271C351.047 596.783 351.206 598.067 351.524 599.124C351.842 600.18 352.3 600.984 352.896 601.535C353.499 602.087 354.223 602.362 355.07 602.362ZM370.07 604.237C368.786 604.237 367.692 603.888 366.788 603.189C365.885 602.484 365.195 601.464 364.717 600.129C364.24 598.788 364.001 597.169 364.001 595.271C364.001 593.385 364.24 591.774 364.717 590.439C365.2 589.098 365.894 588.075 366.797 587.371C367.706 586.66 368.797 586.305 370.07 586.305C371.342 586.305 372.43 586.66 373.334 587.371C374.243 588.075 374.936 589.098 375.413 590.439C375.896 591.774 376.138 593.385 376.138 595.271C376.138 597.169 375.899 598.788 375.422 600.129C374.945 601.464 374.254 602.484 373.351 603.189C372.448 603.888 371.354 604.237 370.07 604.237ZM370.07 602.362C371.342 602.362 372.331 601.749 373.036 600.521C373.74 599.294 374.092 597.544 374.092 595.271C374.092 593.76 373.93 592.473 373.607 591.41C373.288 590.348 372.828 589.538 372.226 588.981C371.629 588.425 370.911 588.146 370.07 588.146C368.808 588.146 367.823 588.768 367.112 590.013C366.402 591.251 366.047 593.004 366.047 595.271C366.047 596.783 366.206 598.067 366.524 599.124C366.842 600.18 367.3 600.984 367.896 601.535C368.499 602.087 369.223 602.362 370.07 602.362Z" fill="white" fill-opacity="0.7"/>
<rect x="34.9373" y="645.181" width="153.637" height="35.6372" rx="17.8186" stroke="#3CC29A" stroke-width="2.36279"/>
<path d="M57.3695 671.5V654.118H54.2617V671.5H57.3695ZM61.3446 671.5H64.3319V663.827C64.3319 661.851 65.4522 660.611 67.2349 660.611C69.0538 660.611 69.897 661.635 69.897 663.682V671.5H72.8844V662.984C72.8844 659.852 71.2823 658.081 68.3431 658.081C66.3797 658.081 65.0547 658.972 64.4283 660.442H64.2235V658.334H61.3446V671.5ZM84.2314 653.684C79.1843 653.684 76.0042 657.19 76.0042 662.803C76.0042 668.404 79.1361 671.934 84.2314 671.934C89.3027 671.934 92.4466 668.404 92.4466 662.803C92.4466 657.19 89.2906 653.684 84.2314 653.684ZM84.2314 656.371C87.3151 656.371 89.2786 658.864 89.2786 662.803C89.2786 666.718 87.3272 669.247 84.2314 669.247C81.0995 669.247 79.1843 666.718 79.1843 662.803C79.1843 658.864 81.1477 656.371 84.2314 656.371ZM107.166 658.334H104.179V666.007C104.179 667.995 103.119 669.199 101.18 669.199C99.397 669.199 98.5658 668.212 98.5658 666.164V658.334H95.5785V666.886C95.5785 669.97 97.2649 671.765 100.144 671.765C102.155 671.765 103.444 670.91 104.083 669.404H104.288V671.5H107.166V658.334ZM111.78 655.106V658.418H109.696V660.743H111.78V668.007C111.78 670.548 112.985 671.56 116.008 671.56C116.586 671.56 117.14 671.512 117.574 671.428V669.139C117.213 669.175 116.984 669.199 116.562 669.199C115.309 669.199 114.755 668.609 114.755 667.296V660.743H117.574V658.418H114.755V655.106H111.78ZM120.079 666.79C120.236 669.934 122.874 671.934 126.861 671.934C131.077 671.934 133.691 669.838 133.691 666.465C133.691 663.827 132.209 662.357 128.68 661.55L126.68 661.093C124.524 660.587 123.645 659.9 123.645 658.707C123.645 657.202 124.97 656.214 126.97 656.214C128.873 656.214 130.222 657.19 130.439 658.744H133.414C133.269 655.768 130.631 653.684 126.982 653.684C123.091 653.684 120.513 655.78 120.513 658.912C120.513 661.49 121.995 663.044 125.151 663.767L127.403 664.285C129.632 664.803 130.583 665.574 130.583 666.838C130.583 668.32 129.102 669.392 127.054 669.392C124.85 669.392 123.308 668.38 123.115 666.79H120.079ZM138.389 656.13C139.377 656.13 140.184 655.347 140.184 654.359C140.184 653.383 139.377 652.588 138.389 652.588C137.413 652.588 136.606 653.383 136.606 654.359C136.606 655.347 137.413 656.13 138.389 656.13ZM136.907 671.5H139.883V658.334H136.907V671.5ZM143.593 671.5H146.58V663.827C146.58 661.851 147.7 660.611 149.483 660.611C151.302 660.611 152.145 661.635 152.145 663.682V671.5H155.132V662.984C155.132 659.852 153.53 658.081 150.591 658.081C148.628 658.081 147.303 658.972 146.676 660.442H146.472V658.334H143.593V671.5ZM167.262 667.898C166.829 668.886 165.805 669.44 164.323 669.44C162.36 669.44 161.095 668.043 161.023 665.814V665.658H170.226V664.706C170.226 660.575 167.973 658.081 164.215 658.081C160.396 658.081 158.023 660.743 158.023 664.971C158.023 669.187 160.36 671.765 164.239 671.765C167.347 671.765 169.551 670.271 170.093 667.898H167.262ZM164.203 660.406C165.998 660.406 167.178 661.671 167.238 663.67H161.035C161.167 661.695 162.42 660.406 164.203 660.406Z" fill="#3CC29A"/>
</svg>
