<svg width="559" height="715" viewBox="0 0 559 715" fill="none" xmlns="http://www.w3.org/2000/svg">
<rect width="559" height="714.366" rx="16" fill="#1A1A1A"/>
<rect x="34.7766" y="637.548" width="110.637" height="35.6372" rx="17.8186" stroke="#C7A5FA" stroke-width="2.36279"/>
<path d="M65.6906 661.204H57.7164V646.484H54.6086V663.866H65.6906V661.204ZM70.2439 648.496C71.2316 648.496 72.0387 647.713 72.0387 646.725C72.0387 645.749 71.2316 644.954 70.2439 644.954C69.2682 644.954 68.4611 645.749 68.4611 646.725C68.4611 647.713 69.2682 648.496 70.2439 648.496ZM68.7623 663.866H71.7376V650.7H68.7623V663.866ZM75.4476 663.866H78.435V656.193C78.435 654.218 79.5552 652.977 81.338 652.977C83.1569 652.977 84.0001 654.001 84.0001 656.049V663.866H86.9874V655.35C86.9874 652.218 85.3853 650.447 82.4462 650.447C80.4827 650.447 79.1577 651.339 78.5313 652.808H78.3266V650.7H75.4476V663.866ZM99.1174 660.265C98.6838 661.252 97.6599 661.806 96.1783 661.806C94.2148 661.806 92.95 660.409 92.8778 658.181V658.024H102.081V657.072C102.081 652.941 99.8281 650.447 96.0699 650.447C92.2514 650.447 89.8784 653.109 89.8784 657.337C89.8784 661.553 92.2153 664.131 96.094 664.131C99.2018 664.131 101.406 662.638 101.948 660.265H99.1174ZM96.0578 652.772C97.8526 652.772 99.0331 654.037 99.0934 656.037H92.8898C93.0223 654.061 94.2751 652.772 96.0578 652.772ZM108.706 664.083C110.428 664.083 111.874 663.336 112.609 662.059H112.813V663.866H115.692V654.868C115.692 652.086 113.789 650.447 110.404 650.447C107.272 650.447 105.092 651.917 104.851 654.218H107.67C107.947 653.314 108.887 652.82 110.26 652.82C111.874 652.82 112.741 653.555 112.741 654.868V656L109.344 656.205C106.14 656.386 104.345 657.771 104.345 660.132C104.345 662.541 106.164 664.083 108.706 664.083ZM109.585 661.782C108.26 661.782 107.309 661.12 107.309 659.987C107.309 658.891 108.092 658.277 109.766 658.169L112.741 657.964V659.036C112.741 660.602 111.392 661.782 109.585 661.782ZM119.294 663.866H122.281V656.217C122.281 654.362 123.63 653.158 125.57 653.158C126.076 653.158 126.871 653.242 127.1 653.326V650.604C126.823 650.532 126.293 650.483 125.859 650.483C124.16 650.483 122.739 651.447 122.378 652.748H122.173V650.7H119.294V663.866Z" fill="#C7A5FA"/>
<rect x="33.5952" y="558.366" width="364.079" height="59.9883" rx="15.9969" fill="#1A1A1A"/>
<path d="M153.788 596.603C152.504 596.603 151.41 596.254 150.507 595.555C149.603 594.851 148.913 593.831 148.436 592.495C147.958 591.155 147.72 589.535 147.72 587.637C147.72 585.751 147.958 584.14 148.436 582.805C148.919 581.464 149.612 580.441 150.515 579.737C151.424 579.027 152.515 578.672 153.788 578.672C155.061 578.672 156.149 579.027 157.052 579.737C157.961 580.441 158.654 581.464 159.132 582.805C159.615 584.14 159.856 585.751 159.856 587.637C159.856 589.535 159.617 591.155 159.14 592.495C158.663 593.831 157.973 594.851 157.069 595.555C156.166 596.254 155.072 596.603 153.788 596.603ZM153.788 594.728C155.061 594.728 156.049 594.115 156.754 592.887C157.458 591.66 157.811 589.91 157.811 587.637C157.811 586.126 157.649 584.839 157.325 583.777C157.007 582.714 156.546 581.905 155.944 581.348C155.348 580.791 154.629 580.512 153.788 580.512C152.527 580.512 151.541 581.135 150.831 582.379C150.12 583.618 149.765 585.37 149.765 587.637C149.765 589.149 149.924 590.433 150.242 591.49C150.561 592.547 151.018 593.351 151.615 593.902C152.217 594.453 152.941 594.728 153.788 594.728ZM163.985 596.501C163.565 596.501 163.204 596.351 162.903 596.049C162.602 595.748 162.451 595.387 162.451 594.967C162.451 594.547 162.602 594.186 162.903 593.885C163.204 593.583 163.565 593.433 163.985 593.433C164.406 593.433 164.767 593.583 165.068 593.885C165.369 594.186 165.519 594.547 165.519 594.967C165.519 595.245 165.448 595.501 165.306 595.734C165.17 595.967 164.985 596.155 164.752 596.297C164.525 596.433 164.269 596.501 163.985 596.501ZM174.179 596.603C172.894 596.603 171.801 596.254 170.897 595.555C169.994 594.851 169.304 593.831 168.826 592.495C168.349 591.155 168.11 589.535 168.11 587.637C168.11 585.751 168.349 584.14 168.826 582.805C169.309 581.464 170.002 580.441 170.906 579.737C171.815 579.027 172.906 578.672 174.179 578.672C175.451 578.672 176.539 579.027 177.443 579.737C178.352 580.441 179.045 581.464 179.522 582.805C180.005 584.14 180.247 585.751 180.247 587.637C180.247 589.535 180.008 591.155 179.531 592.495C179.054 593.831 178.363 594.851 177.46 595.555C176.556 596.254 175.463 596.603 174.179 596.603ZM174.179 594.728C175.451 594.728 176.44 594.115 177.144 592.887C177.849 591.66 178.201 589.91 178.201 587.637C178.201 586.126 178.039 584.839 177.715 583.777C177.397 582.714 176.937 581.905 176.335 581.348C175.738 580.791 175.019 580.512 174.179 580.512C172.917 580.512 171.931 581.135 171.221 582.379C170.511 583.618 170.156 585.37 170.156 587.637C170.156 589.149 170.315 590.433 170.633 591.49C170.951 592.547 171.409 593.351 172.005 593.902C172.608 594.453 173.332 594.728 174.179 594.728ZM189.179 596.603C187.894 596.603 186.801 596.254 185.897 595.555C184.994 594.851 184.304 593.831 183.826 592.495C183.349 591.155 183.11 589.535 183.11 587.637C183.11 585.751 183.349 584.14 183.826 582.805C184.309 581.464 185.002 580.441 185.906 579.737C186.815 579.027 187.906 578.672 189.179 578.672C190.451 578.672 191.539 579.027 192.443 579.737C193.352 580.441 194.045 581.464 194.522 582.805C195.005 584.14 195.247 585.751 195.247 587.637C195.247 589.535 195.008 591.155 194.531 592.495C194.054 593.831 193.363 594.851 192.46 595.555C191.556 596.254 190.463 596.603 189.179 596.603ZM189.179 594.728C190.451 594.728 191.44 594.115 192.144 592.887C192.849 591.66 193.201 589.91 193.201 587.637C193.201 586.126 193.039 584.839 192.715 583.777C192.397 582.714 191.937 581.905 191.335 581.348C190.738 580.791 190.019 580.512 189.179 580.512C187.917 580.512 186.931 581.135 186.221 582.379C185.511 583.618 185.156 585.37 185.156 587.637C185.156 589.149 185.315 590.433 185.633 591.49C185.951 592.547 186.409 593.351 187.005 593.902C187.608 594.453 188.332 594.728 189.179 594.728ZM200.91 593.978L200.774 594.899C200.677 595.547 200.529 596.24 200.331 596.978C200.137 597.717 199.936 598.413 199.725 599.066C199.515 599.72 199.342 600.24 199.206 600.626H197.671C197.745 600.262 197.842 599.782 197.961 599.186C198.081 598.589 198.2 597.922 198.319 597.183C198.444 596.45 198.546 595.7 198.626 594.933L198.728 593.978H200.91ZM217.046 596.603C215.762 596.603 214.668 596.254 213.764 595.555C212.861 594.851 212.171 593.831 211.693 592.495C211.216 591.155 210.978 589.535 210.978 587.637C210.978 585.751 211.216 584.14 211.693 582.805C212.176 581.464 212.87 580.441 213.773 579.737C214.682 579.027 215.773 578.672 217.046 578.672C218.318 578.672 219.407 579.027 220.31 579.737C221.219 580.441 221.912 581.464 222.389 582.805C222.872 584.14 223.114 585.751 223.114 587.637C223.114 589.535 222.875 591.155 222.398 592.495C221.921 593.831 221.23 594.851 220.327 595.555C219.424 596.254 218.33 596.603 217.046 596.603ZM217.046 594.728C218.318 594.728 219.307 594.115 220.012 592.887C220.716 591.66 221.068 589.91 221.068 587.637C221.068 586.126 220.907 584.839 220.583 583.777C220.264 582.714 219.804 581.905 219.202 581.348C218.605 580.791 217.887 580.512 217.046 580.512C215.784 580.512 214.799 581.135 214.088 582.379C213.378 583.618 213.023 585.37 213.023 587.637C213.023 589.149 213.182 590.433 213.5 591.49C213.818 592.547 214.276 593.351 214.872 593.902C215.475 594.453 216.199 594.728 217.046 594.728ZM227.243 596.501C226.823 596.501 226.462 596.351 226.161 596.049C225.86 595.748 225.709 595.387 225.709 594.967C225.709 594.547 225.86 594.186 226.161 593.885C226.462 593.583 226.823 593.433 227.243 593.433C227.664 593.433 228.024 593.583 228.326 593.885C228.627 594.186 228.777 594.547 228.777 594.967C228.777 595.245 228.706 595.501 228.564 595.734C228.428 595.967 228.243 596.155 228.01 596.297C227.783 596.433 227.527 596.501 227.243 596.501ZM237.436 596.603C236.152 596.603 235.059 596.254 234.155 595.555C233.252 594.851 232.561 593.831 232.084 592.495C231.607 591.155 231.368 589.535 231.368 587.637C231.368 585.751 231.607 584.14 232.084 582.805C232.567 581.464 233.26 580.441 234.164 579.737C235.073 579.027 236.164 578.672 237.436 578.672C238.709 578.672 239.797 579.027 240.701 579.737C241.61 580.441 242.303 581.464 242.78 582.805C243.263 584.14 243.505 585.751 243.505 587.637C243.505 589.535 243.266 591.155 242.789 592.495C242.311 593.831 241.621 594.851 240.718 595.555C239.814 596.254 238.72 596.603 237.436 596.603ZM237.436 594.728C238.709 594.728 239.698 594.115 240.402 592.887C241.107 591.66 241.459 589.91 241.459 587.637C241.459 586.126 241.297 584.839 240.973 583.777C240.655 582.714 240.195 581.905 239.593 581.348C238.996 580.791 238.277 580.512 237.436 580.512C236.175 580.512 235.189 581.135 234.479 582.379C233.769 583.618 233.414 585.37 233.414 587.637C233.414 589.149 233.573 590.433 233.891 591.49C234.209 592.547 234.666 593.351 235.263 593.902C235.865 594.453 236.59 594.728 237.436 594.728ZM252.436 596.603C251.152 596.603 250.059 596.254 249.155 595.555C248.252 594.851 247.561 593.831 247.084 592.495C246.607 591.155 246.368 589.535 246.368 587.637C246.368 585.751 246.607 584.14 247.084 582.805C247.567 581.464 248.26 580.441 249.164 579.737C250.073 579.027 251.164 578.672 252.436 578.672C253.709 578.672 254.797 579.027 255.701 579.737C256.61 580.441 257.303 581.464 257.78 582.805C258.263 584.14 258.505 585.751 258.505 587.637C258.505 589.535 258.266 591.155 257.789 592.495C257.311 593.831 256.621 594.851 255.718 595.555C254.814 596.254 253.72 596.603 252.436 596.603ZM252.436 594.728C253.709 594.728 254.698 594.115 255.402 592.887C256.107 591.66 256.459 589.91 256.459 587.637C256.459 586.126 256.297 584.839 255.973 583.777C255.655 582.714 255.195 581.905 254.593 581.348C253.996 580.791 253.277 580.512 252.436 580.512C251.175 580.512 250.189 581.135 249.479 582.379C248.769 583.618 248.414 585.37 248.414 587.637C248.414 589.149 248.573 590.433 248.891 591.49C249.209 592.547 249.666 593.351 250.263 593.902C250.865 594.453 251.59 594.728 252.436 594.728ZM264.168 593.978L264.032 594.899C263.935 595.547 263.787 596.24 263.588 596.978C263.395 597.717 263.193 598.413 262.983 599.066C262.773 599.72 262.6 600.24 262.463 600.626H260.929C261.003 600.262 261.1 599.782 261.219 599.186C261.338 598.589 261.458 597.922 261.577 597.183C261.702 596.45 261.804 595.7 261.884 594.933L261.986 593.978H264.168ZM280.747 578.91V596.365H278.633V581.126H278.531L274.269 583.956V581.808L278.633 578.91H280.747ZM286.235 596.501C285.815 596.501 285.454 596.351 285.153 596.049C284.852 595.748 284.701 595.387 284.701 594.967C284.701 594.547 284.852 594.186 285.153 593.885C285.454 593.583 285.815 593.433 286.235 593.433C286.656 593.433 287.017 593.583 287.318 593.885C287.619 594.186 287.769 594.547 287.769 594.967C287.769 595.245 287.698 595.501 287.556 595.734C287.42 595.967 287.235 596.155 287.002 596.297C286.775 596.433 286.519 596.501 286.235 596.501ZM296.429 596.603C295.144 596.603 294.051 596.254 293.147 595.555C292.244 594.851 291.554 593.831 291.076 592.495C290.599 591.155 290.36 589.535 290.36 587.637C290.36 585.751 290.599 584.14 291.076 582.805C291.559 581.464 292.252 580.441 293.156 579.737C294.065 579.027 295.156 578.672 296.429 578.672C297.701 578.672 298.789 579.027 299.693 579.737C300.602 580.441 301.295 581.464 301.772 582.805C302.255 584.14 302.497 585.751 302.497 587.637C302.497 589.535 302.258 591.155 301.781 592.495C301.304 593.831 300.613 594.851 299.71 595.555C298.806 596.254 297.713 596.603 296.429 596.603ZM296.429 594.728C297.701 594.728 298.69 594.115 299.394 592.887C300.099 591.66 300.451 589.91 300.451 587.637C300.451 586.126 300.289 584.839 299.965 583.777C299.647 582.714 299.187 581.905 298.585 581.348C297.988 580.791 297.269 580.512 296.429 580.512C295.167 580.512 294.181 581.135 293.471 582.379C292.761 583.618 292.406 585.37 292.406 587.637C292.406 589.149 292.565 590.433 292.883 591.49C293.201 592.547 293.659 593.351 294.255 593.902C294.858 594.453 295.582 594.728 296.429 594.728ZM311.429 596.603C310.144 596.603 309.051 596.254 308.147 595.555C307.244 594.851 306.554 593.831 306.076 592.495C305.599 591.155 305.36 589.535 305.36 587.637C305.36 585.751 305.599 584.14 306.076 582.805C306.559 581.464 307.252 580.441 308.156 579.737C309.065 579.027 310.156 578.672 311.429 578.672C312.701 578.672 313.789 579.027 314.693 579.737C315.602 580.441 316.295 581.464 316.772 582.805C317.255 584.14 317.497 585.751 317.497 587.637C317.497 589.535 317.258 591.155 316.781 592.495C316.304 593.831 315.613 594.851 314.71 595.555C313.806 596.254 312.713 596.603 311.429 596.603ZM311.429 594.728C312.701 594.728 313.69 594.115 314.394 592.887C315.099 591.66 315.451 589.91 315.451 587.637C315.451 586.126 315.289 584.839 314.965 583.777C314.647 582.714 314.187 581.905 313.585 581.348C312.988 580.791 312.269 580.512 311.429 580.512C310.167 580.512 309.181 581.135 308.471 582.379C307.761 583.618 307.406 585.37 307.406 587.637C307.406 589.149 307.565 590.433 307.883 591.49C308.201 592.547 308.659 593.351 309.255 593.902C309.858 594.453 310.582 594.728 311.429 594.728ZM323.16 593.978L323.024 594.899C322.927 595.547 322.779 596.24 322.581 596.978C322.387 597.717 322.186 598.413 321.975 599.066C321.765 599.72 321.592 600.24 321.456 600.626H319.921C319.995 600.262 320.092 599.782 320.211 599.186C320.331 598.589 320.45 597.922 320.569 597.183C320.694 596.45 320.796 595.7 320.876 594.933L320.978 593.978H323.16ZM339.739 578.91V596.365H337.625V581.126H337.523L333.262 583.956V581.808L337.625 578.91H339.739ZM345.228 596.501C344.807 596.501 344.446 596.351 344.145 596.049C343.844 595.748 343.693 595.387 343.693 594.967C343.693 594.547 343.844 594.186 344.145 593.885C344.446 593.583 344.807 593.433 345.228 593.433C345.648 593.433 346.009 593.583 346.31 593.885C346.611 594.186 346.762 594.547 346.762 594.967C346.762 595.245 346.691 595.501 346.549 595.734C346.412 595.967 346.228 596.155 345.995 596.297C345.767 596.433 345.512 596.501 345.228 596.501ZM355.421 596.603C354.137 596.603 353.043 596.254 352.139 595.555C351.236 594.851 350.546 593.831 350.068 592.495C349.591 591.155 349.353 589.535 349.353 587.637C349.353 585.751 349.591 584.14 350.068 582.805C350.551 581.464 351.245 580.441 352.148 579.737C353.057 579.027 354.148 578.672 355.421 578.672C356.693 578.672 357.782 579.027 358.685 579.737C359.594 580.441 360.287 581.464 360.764 582.805C361.247 584.14 361.489 585.751 361.489 587.637C361.489 589.535 361.25 591.155 360.773 592.495C360.296 593.831 359.605 594.851 358.702 595.555C357.799 596.254 356.705 596.603 355.421 596.603ZM355.421 594.728C356.693 594.728 357.682 594.115 358.387 592.887C359.091 591.66 359.443 589.91 359.443 587.637C359.443 586.126 359.282 584.839 358.958 583.777C358.639 582.714 358.179 581.905 357.577 581.348C356.98 580.791 356.262 580.512 355.421 580.512C354.159 580.512 353.174 581.135 352.463 582.379C351.753 583.618 351.398 585.37 351.398 587.637C351.398 589.149 351.557 590.433 351.875 591.49C352.193 592.547 352.651 593.351 353.247 593.902C353.85 594.453 354.574 594.728 355.421 594.728ZM370.421 596.603C369.137 596.603 368.043 596.254 367.139 595.555C366.236 594.851 365.546 593.831 365.068 592.495C364.591 591.155 364.353 589.535 364.353 587.637C364.353 585.751 364.591 584.14 365.068 582.805C365.551 581.464 366.245 580.441 367.148 579.737C368.057 579.027 369.148 578.672 370.421 578.672C371.693 578.672 372.782 579.027 373.685 579.737C374.594 580.441 375.287 581.464 375.764 582.805C376.247 584.14 376.489 585.751 376.489 587.637C376.489 589.535 376.25 591.155 375.773 592.495C375.296 593.831 374.605 594.851 373.702 595.555C372.799 596.254 371.705 596.603 370.421 596.603ZM370.421 594.728C371.693 594.728 372.682 594.115 373.387 592.887C374.091 591.66 374.443 589.91 374.443 587.637C374.443 586.126 374.282 584.839 373.958 583.777C373.639 582.714 373.179 581.905 372.577 581.348C371.98 580.791 371.262 580.512 370.421 580.512C369.159 580.512 368.174 581.135 367.463 582.379C366.753 583.618 366.398 585.37 366.398 587.637C366.398 589.149 366.557 590.433 366.875 591.49C367.193 592.547 367.651 593.351 368.247 593.902C368.85 594.453 369.574 594.728 370.421 594.728Z" fill="white" fill-opacity="0.7"/>
<path d="M67.5362 584.589H62.3362C61.8862 582.414 60.6862 581.564 59.1862 581.564C57.1112 581.564 55.6112 583.189 55.6112 587.314C55.6112 591.514 57.1612 593.164 59.0612 593.164C60.9612 593.164 62.1862 592.014 62.3862 589.464H67.6612C67.0362 594.389 63.9612 596.739 58.9862 596.739C53.8362 596.739 50.2112 593.489 50.2112 587.314C50.2112 581.289 53.6362 577.989 59.1862 577.989C63.5862 577.989 66.8362 580.314 67.5362 584.589ZM87.578 583.614H82.653C82.403 582.189 81.278 581.514 79.628 581.514C78.128 581.514 77.403 582.089 77.403 582.914C77.403 583.964 78.228 584.339 80.628 584.814C85.228 585.739 87.953 587.614 87.953 591.089C87.953 594.064 85.553 596.739 79.853 596.739C74.228 596.739 71.928 593.739 71.478 590.689H76.528C76.803 592.189 77.878 593.189 79.903 593.189C81.803 593.189 82.703 592.489 82.703 591.539C82.703 590.164 81.653 589.764 78.653 589.114C74.478 588.189 72.153 586.764 72.153 583.389C72.153 580.239 74.503 577.989 79.678 577.989C84.128 577.989 87.003 580.114 87.578 583.614ZM107.461 583.614H102.536C102.286 582.189 101.161 581.514 99.5108 581.514C98.0108 581.514 97.2858 582.089 97.2858 582.914C97.2858 583.964 98.1108 584.339 100.511 584.814C105.111 585.739 107.836 587.614 107.836 591.089C107.836 594.064 105.436 596.739 99.7358 596.739C94.1108 596.739 91.8108 593.739 91.3608 590.689H96.4108C96.6858 592.189 97.7608 593.189 99.7858 593.189C101.686 593.189 102.586 592.489 102.586 591.539C102.586 590.164 101.536 589.764 98.5358 589.114C94.3608 588.189 92.0358 586.764 92.0358 583.389C92.0358 580.239 94.3858 577.989 99.5608 577.989C104.011 577.989 106.886 580.114 107.461 583.614Z" fill="white"/>
<rect x="34.0952" y="40.5" width="97.3619" height="489.526" stroke="#292929"/>
<rect x="132.457" y="40.5" width="97.3619" height="489.526" stroke="#292929"/>
<rect x="230.819" y="40.5" width="97.3619" height="489.526" stroke="#292929"/>
<rect x="329.181" y="40.5" width="97.3619" height="489.526" stroke="#292929"/>
<rect x="427.543" y="40.5" width="97.3619" height="489.526" stroke="#292929"/>
<rect x="34.595" y="40.9998" width="489.81" height="489.81" stroke="#545454" stroke-width="1.99961"/>
<line x1="37.496" y1="528.798" x2="524.121" y2="43.3234" stroke="#B0B4D9" stroke-width="1.99961"/>
</svg>
