<svg width="569" height="320" viewBox="0 0 569 320" fill="none" xmlns="http://www.w3.org/2000/svg">
<path d="M366.145 208.7V199.7C366.145 195.3 362.545 191.7 358.145 191.7M358.145 191.7H292.145C287.745 191.7 284.145 195.3 284.145 199.7V207.7C284.145 212.1 287.745 215.7 292.145 215.7M358.145 191.7C362.545 191.7 366.145 188.1 366.145 183.7V175.7C366.145 171.3 362.545 167.7 358.145 167.7H292.145C287.745 167.7 284.145 171.3 284.145 175.7V184.7M292.145 215.7H300.145C304.545 215.7 308.145 219.3 308.145 223.7V255.7C308.145 260.1 304.545 263.7 300.145 263.7H292.145C287.745 263.7 284.145 260.1 284.145 255.7V222.7M292.145 215.7H380.145C384.545 215.7 388.145 219.3 388.145 223.7V237.7H404.145C408.545 237.7 412.145 241.3 412.145 245.7V255.7C412.145 260.1 408.545 263.7 404.145 263.7H348.145C343.745 263.7 340.145 260.1 340.145 255.7V222.7M188.145 119.7L214.045 137C220.645 141.4 228.345 143.7 236.245 143.7H250.145C251.245 143.7 252.145 142.8 252.145 141.7C252.145 136.2 247.645 131.7 242.145 131.7H238.945C237.245 131.7 235.745 130.7 235.245 129.1L233.645 124.8C231.645 119.5 233.645 113.5 238.445 110.5L244.745 106.5C248.745 104 254.045 105.4 256.245 109.7L257.845 112.9C258.145 113.5 258.245 114.1 258.245 114.7V117.8C258.245 123.3 262.745 127.8 268.245 127.8C269.345 127.8 270.245 126.9 270.245 125.8V109.6C270.245 108.4 269.945 107.1 269.445 106L260.545 88.0999C259.145 85.3999 256.445 83.7 253.345 83.7H252.545C251.145 83.7 249.945 82.9 249.345 81.7L248.545 80.1C247.145 77.4 244.445 75.7 241.345 75.7H240.545C239.145 75.7 237.945 74.9 237.345 73.7C235.645 70.2 231.645 68.5 227.845 69.6C225.445 70.3 223.145 71.1999 220.945 72.2999L220.245 72.6L204.445 80.5C200.545 82.4 196.045 82.0999 192.445 79.7999L156.145 55.7M260.745 165.7L248.345 128.4C247.345 125.3 250.245 122.3 253.445 123.3L290.745 135.7C293.545 136.6 294.445 140.2 292.345 142.3L267.545 167.1C265.245 169.4 261.645 168.5 260.745 165.7Z" stroke="url(#paint0_linear_1869_5911)" stroke-width="2.5" stroke-miterlimit="10" stroke-linecap="round" stroke-linejoin="round"/>
<defs>
<linearGradient id="paint0_linear_1869_5911" x1="284.145" y1="55.7" x2="284.145" y2="263.7" gradientUnits="userSpaceOnUse">
<stop stop-color="#93C437"/>
<stop offset="1" stop-color="#279BE8"/>
</linearGradient>
</defs>
</svg>
