<svg width="559" height="220" viewBox="0 0 559 220" fill="none" xmlns="http://www.w3.org/2000/svg">
<rect width="559" height="220" rx="16" fill="#1A1A1A"/>
<path d="M227.5 82C221.963 82 216.549 83.6422 211.944 86.7189C207.34 89.7955 203.751 94.1685 201.632 99.2849C199.512 104.401 198.958 110.031 200.038 115.463C201.119 120.894 203.786 125.883 207.701 129.799C211.617 133.715 216.606 136.382 222.038 137.462C227.469 138.542 233.099 137.988 238.216 135.869C243.332 133.749 247.705 130.161 250.782 125.556C253.858 120.951 255.5 115.538 255.5 110C255.492 102.576 252.539 95.4594 247.29 90.2102C242.041 84.961 234.924 82.0083 227.5 82ZM227.5 134C222.754 134 218.113 132.592 214.167 129.955C210.22 127.318 207.144 123.57 205.327 119.184C203.511 114.799 203.035 109.973 203.962 105.318C204.888 100.662 207.173 96.3859 210.53 93.0294C213.886 89.673 218.163 87.3872 222.818 86.4612C227.474 85.5351 232.299 86.0104 236.685 87.8269C241.07 89.6434 244.818 92.7195 247.456 96.6663C250.093 100.613 251.5 105.253 251.5 110C251.493 116.363 248.962 122.463 244.463 126.963C239.964 131.462 233.863 133.993 227.5 134Z" fill="white" fill-opacity="0.95"/>
<path d="M237.264 99.0566C237.093 98.7375 236.839 98.4707 236.528 98.2846C236.218 98.0985 235.862 98.0002 235.5 98H219.5C219.238 97.9999 218.978 98.0516 218.735 98.1521C218.492 98.2526 218.272 98.3999 218.086 98.5856C217.9 98.7714 217.753 98.9919 217.652 99.2346C217.552 99.4772 217.5 99.7373 217.5 100V120C217.5 120.53 217.711 121.039 218.086 121.414C218.461 121.789 218.97 122 219.5 122C220.031 122 220.539 121.789 220.915 121.414C221.29 121.039 221.5 120.53 221.5 120V114H235.5C235.862 114 236.218 113.902 236.528 113.716C236.839 113.53 237.093 113.263 237.264 112.944C237.435 112.625 237.515 112.265 237.498 111.903C237.48 111.542 237.365 111.192 237.164 110.891L233.904 106L237.164 101.109C237.365 100.808 237.48 100.458 237.498 100.097C237.516 99.7353 237.435 99.3758 237.264 99.0566ZM229.836 107.109L231.763 110H221.5V102H231.763L229.836 104.891C229.617 105.219 229.5 105.605 229.5 106C229.5 106.395 229.617 106.781 229.836 107.109Z" fill="white" fill-opacity="0.95"/>
<path d="M331.5 137.711C316.488 137.711 304.074 125.297 304.074 110.285C304.074 95.2734 316.461 82.8594 331.473 82.8594C346.512 82.8594 358.926 95.2734 358.926 110.285C358.926 125.297 346.512 137.711 331.5 137.711ZM331.5 134.184C344.734 134.184 355.398 123.52 355.398 110.285C355.371 97.0508 344.707 86.4141 331.473 86.4141C318.266 86.4141 307.629 97.0508 307.629 110.285C307.629 123.52 318.266 134.184 331.5 134.184ZM320.863 124.859C320.262 124.859 319.797 124.367 319.797 123.82V100.633C319.797 99.6484 320.316 98.8828 321.355 98.418C322.312 98.0078 323.215 97.7344 325.266 97.7344C330.27 97.7344 333.305 100.223 338.062 100.223C340.359 100.223 341.617 99.6211 342.301 99.6211C343.148 99.6211 343.695 100.113 343.695 100.852V114.387C343.695 115.453 343.203 116.109 342.137 116.629C341.125 117.094 340.168 117.312 338.199 117.312C333.359 117.312 330.324 114.852 325.402 114.852C323.598 114.852 322.477 115.234 321.93 115.453V123.82C321.93 124.367 321.492 124.859 320.863 124.859Z" fill="white" fill-opacity="0.95"/>
</svg>
