<svg width="42" height="42" viewBox="0 0 42 42" fill="none" xmlns="http://www.w3.org/2000/svg">
<path d="M14.4375 3.60938C14.9812 3.60938 15.4219 4.05009 15.4219 4.59375V6.89062H17.7188C18.2624 6.89062 18.7031 7.33134 18.7031 7.875C18.7031 8.41865 18.2624 8.85937 17.7188 8.85937H15.4219V11.1562C15.4219 11.6999 14.9812 12.1406 14.4375 12.1406C13.8938 12.1406 13.4531 11.6999 13.4531 11.1562V8.85938H11.1562C10.6126 8.85938 10.1719 8.41866 10.1719 7.875C10.1719 7.33134 10.6126 6.89062 11.1562 6.89062H13.4531V4.59375C13.4531 4.05009 13.8938 3.60938 14.4375 3.60938ZM33.6897 4.76446C34.4847 5.09378 35.207 5.57649 35.8155 6.185C37.0423 7.41495 37.7313 9.08125 37.7313 10.8185C37.7313 12.5557 37.0423 14.222 35.8155 15.4519L14.2053 37.0612C13.9927 37.2754 13.7397 37.4452 13.4609 37.5607C13.1821 37.6762 12.8831 37.7351 12.5814 37.7341H6.56251C5.95357 37.7334 5.36977 37.4911 4.93918 37.0605C4.50859 36.63 4.26637 36.0462 4.26564 35.4372V29.4185C4.26467 29.1167 4.32365 28.8178 4.43914 28.539C4.55463 28.2602 4.72435 28.0072 4.93842 27.7945L26.5485 6.185C27.1569 5.57649 27.8793 5.09378 28.6743 4.76446C29.4694 4.43513 30.3215 4.26562 31.182 4.26562C32.0425 4.26562 32.8946 4.43513 33.6897 4.76446ZM12.8134 35.6695L34.4235 14.06C35.2833 13.2003 35.7663 12.0349 35.7664 10.8191C35.7665 9.60319 35.2836 8.4371 34.4239 7.5773C33.5642 6.7175 32.3981 6.23443 31.1823 6.23435C29.9664 6.23428 28.8003 6.71721 27.9405 7.57691L6.33046 29.1864C6.26899 29.248 6.23444 29.3315 6.23439 29.4185V35.4372C6.23435 35.4803 6.24281 35.523 6.25929 35.5629C6.27576 35.6027 6.29993 35.6389 6.3304 35.6694C6.36087 35.6999 6.39706 35.7241 6.43688 35.7406C6.47671 35.7571 6.5194 35.7656 6.56251 35.7656H12.5814C12.6245 35.7657 12.6672 35.7573 12.707 35.7408C12.7469 35.7243 12.783 35.7001 12.8134 35.6695ZM33.7969 28.875C33.7969 28.3313 33.3562 27.8906 32.8125 27.8906C32.2688 27.8906 31.8281 28.3313 31.8281 28.875V31.8281H28.875C28.3313 31.8281 27.8906 32.2688 27.8906 32.8125C27.8906 33.3562 28.3313 33.7969 28.875 33.7969H31.8281V36.75C31.8281 37.2937 32.2688 37.7344 32.8125 37.7344C33.3562 37.7344 33.7969 37.2937 33.7969 36.75V33.7969H36.75C37.2937 33.7969 37.7344 33.3562 37.7344 32.8125C37.7344 32.2688 37.2937 31.8281 36.75 31.8281H33.7969V28.875ZM6.5625 13.4531C7.10616 13.4531 7.54688 13.8938 7.54688 14.4375V16.0781H9.1875C9.73116 16.0781 10.1719 16.5188 10.1719 17.0625C10.1719 17.6062 9.73116 18.0469 9.1875 18.0469H7.54688V19.6875C7.54688 20.2312 7.10616 20.6719 6.5625 20.6719C6.01884 20.6719 5.57812 20.2312 5.57812 19.6875V18.0469H3.9375C3.39384 18.0469 2.95312 17.6062 2.95312 17.0625C2.95312 16.5188 3.39384 16.0781 3.9375 16.0781H5.57812V14.4375C5.57812 13.8938 6.01884 13.4531 6.5625 13.4531Z" fill="#A87FF0"/>
</svg>
