<svg width="1150" height="305" viewBox="0 0 1150 305" fill="none" xmlns="http://www.w3.org/2000/svg">
<rect width="1150" height="304.037" rx="16" fill="#1A1A1A"/>
<rect x="68.2305" y="60" width="90.685" height="90.685" rx="45.3425" fill="#FFCA99"/>
<rect x="160.249" y="60" width="91.2777" height="90.685" rx="45.3425" fill="#EBD460"/>
<rect x="252.935" y="60" width="90.685" height="90.685" rx="45.3425" fill="#D3DB7B"/>
<rect x="344.953" y="60" width="91.2777" height="90.685" rx="45.3425" fill="#BCE36F"/>
<rect x="437.639" y="60" width="90.685" height="90.685" rx="45.3425" fill="#74E8D1"/>
<rect x="529.657" y="60" width="90.685" height="90.685" rx="45.3425" fill="#67E7F0"/>
<rect x="621.676" y="60" width="90.685" height="90.685" rx="45.3425" fill="#99DDFF"/>
<rect x="713.694" y="60" width="91.2777" height="90.685" rx="45.3425" fill="#CED2ED"/>
<rect x="806.38" y="60" width="90.685" height="90.685" rx="45.3425" fill="#E2CAFC"/>
<rect x="898.398" y="60" width="91.2777" height="90.685" rx="45.3425" fill="#FAC3F8"/>
<rect x="991.084" y="60" width="90.685" height="90.685" rx="45.3425" fill="#FFC7D2"/>
<rect x="68.2305" y="104.009" width="90.685" height="90.685" fill="#FF9D52"/>
<rect x="160.249" y="104.009" width="91.2777" height="90.685" fill="#D6B220"/>
<rect x="252.935" y="104.009" width="90.685" height="90.685" fill="#B4BA43"/>
<rect x="344.953" y="104.009" width="91.2777" height="90.685" fill="#93C437"/>
<rect x="437.639" y="104.009" width="90.685" height="90.685" fill="#30C9B0"/>
<rect x="529.657" y="104.009" width="90.685" height="90.685" fill="#22C7D6"/>
<rect x="621.676" y="104.009" width="90.685" height="90.685" fill="#5EBFF7"/>
<rect x="713.694" y="104.009" width="91.2777" height="90.685" fill="#B0B4D9"/>
<rect x="806.38" y="104.009" width="90.685" height="90.685" fill="#C7A5FA"/>
<rect x="898.398" y="104.009" width="91.2777" height="90.685" fill="#F294F1"/>
<rect x="991.084" y="104.009" width="90.685" height="90.685" fill="#FC97AA"/>
<rect x="68.2305" y="153.353" width="90.685" height="90.685" rx="45.3425" fill="#F26B1D"/>
<rect x="160.249" y="153.353" width="91.2777" height="90.685" rx="45.3425" fill="#BA8C00"/>
<rect x="252.935" y="153.353" width="90.685" height="90.685" rx="45.3425" fill="#999923"/>
<rect x="344.953" y="153.353" width="91.2777" height="90.685" rx="45.3425" fill="#73A321"/>
<rect x="437.639" y="153.353" width="90.685" height="90.685" rx="45.3425" fill="#16A693"/>
<rect x="529.657" y="153.353" width="90.685" height="90.685" rx="45.3425" fill="#00A3B5"/>
<rect x="621.676" y="153.353" width="90.685" height="90.685" rx="45.3425" fill="#279BE8"/>
<rect x="713.694" y="153.353" width="91.2777" height="90.685" rx="45.3425" fill="#8C91BD"/>
<rect x="806.38" y="153.353" width="90.685" height="90.685" rx="45.3425" fill="#A87FF0"/>
<rect x="898.398" y="153.353" width="91.2777" height="90.685" rx="45.3425" fill="#E060DE"/>
<rect x="991.084" y="153.353" width="90.685" height="90.685" rx="45.3425" fill="#F0677E"/>
</svg>
