<svg width="297" height="40" viewBox="0 0 297 40" fill="none" xmlns="http://www.w3.org/2000/svg">
<rect width="297" height="40" rx="20" fill="white" fill-opacity="0.95"/>
<path d="M32.3211 18.8935C33.1541 18.5571 33.5045 17.4905 33.1308 16.6291L33.0996 16.547C32.9489 16.1964 32.7719 15.8589 32.5703 15.5379C32.4739 15.37 32.3646 15.2109 32.2433 15.0621C31.1767 13.6837 29.9233 13.4376 29.1604 13.4376C28.6303 13.4333 28.1054 13.5482 27.6208 13.7746C27.1362 14.0009 26.7029 14.3336 26.3499 14.7503C26.5347 14.9974 26.6988 15.2609 26.8404 15.5379C27.362 16.5306 27.689 17.8925 27.9615 19.0493C27.9826 18.9743 28.0042 18.8962 28.0263 18.8164C28.1588 18.3379 28.3085 17.7976 28.4753 17.4741C28.7945 16.8588 29.0124 16.8588 29.1604 16.8588C29.6041 16.8588 29.9622 17.548 30.1335 17.95C30.1335 17.95 30.7485 19.5416 32.3211 18.8935Z" fill="black" fill-opacity="0.95"/>
<path d="M18.6737 15.4475C17.8329 15.5131 17.14 16.432 17.2645 17.3755C17.3035 17.7201 17.3891 18.2533 17.4981 18.8359C17.5448 19.0984 17.5993 19.3773 17.6538 19.6481C17.7897 20.3025 17.9586 20.9488 18.1598 21.5843C18.3759 22.2892 18.6386 22.9774 18.9461 23.6436C20.1217 26.0556 21.7099 26.5643 22.8387 26.5643C23.3689 26.5691 23.8939 26.4544 24.3786 26.2281C24.8633 26.0017 25.2965 25.6687 25.6492 25.2516C25.4522 24.9865 25.2777 24.7037 25.1275 24.4066C24.6293 23.4384 24.3101 22.3227 24.0376 21.1577C23.9127 21.6219 23.7458 22.0725 23.5394 22.5032C23.2124 23.1431 22.9866 23.1431 22.8387 23.1431C22.5195 23.1431 22.1848 22.7821 21.8422 22.0847C21.6657 21.7032 21.5098 21.3115 21.3751 20.9115C21.2817 20.6244 21.1883 20.329 21.1104 20.0419L21.0923 19.9753C21.0124 19.6811 20.8879 19.2226 20.8301 18.9261C20.6916 18.2656 20.5307 17.2457 20.4801 16.9249C20.471 16.8672 20.4654 16.8321 20.4642 16.8258C20.3942 16.4566 19.9816 15.3326 18.6737 15.4475Z" fill="black" fill-opacity="0.95"/>
<path d="M33.193 15.4313H33.1541C33.3164 15.717 33.462 16.0129 33.59 16.3174L33.629 16.3994C33.8636 16.9513 33.8815 17.5785 33.6787 18.1442C33.476 18.7099 33.069 19.168 32.5468 19.4186C32.265 19.5514 31.9602 19.6212 31.6515 19.6237C31.4407 19.6197 31.2313 19.5866 31.0287 19.5253C30.8107 20.3867 30.4682 21.4451 30.1568 22.085C29.8454 22.7249 29.4795 23.1433 29.1525 23.1433C29.0124 23.1433 28.7866 23.1433 28.4596 22.5034C28.2531 22.0727 28.0863 21.6221 27.9614 21.1579C27.8602 20.7969 27.7667 20.4113 27.6733 20.0093C27.6344 19.8617 27.6032 19.7139 27.5721 19.5663C27.2763 18.27 26.9415 16.9081 26.3654 15.8169C26.2551 15.607 26.133 15.4042 25.9995 15.2098C25.8904 15.0503 25.7735 14.897 25.6492 14.7504C25.2953 14.3326 24.8608 13.9993 24.3747 13.7729C23.8887 13.5465 23.3623 13.4322 22.831 13.4377C22.0758 13.4377 20.8224 13.6838 19.7558 15.0621C20.0922 15.2216 20.3845 15.4688 20.6051 15.7802C20.8258 16.0917 20.9675 16.4573 21.017 16.8425C21.0715 17.2527 21.2039 18.0485 21.3596 18.8033C21.3751 18.8853 21.3907 18.9674 21.4141 19.0576C21.5049 18.8087 21.5958 18.5895 21.6903 18.3615C21.7173 18.2965 21.7445 18.2307 21.7722 18.1633L21.8656 17.95C22.0369 17.548 22.395 16.8589 22.831 16.8589C22.9867 16.8589 23.2046 16.8589 23.5238 17.4742C23.7389 17.9141 23.911 18.3759 24.0377 18.8525C24.1389 19.2217 24.2401 19.6155 24.3257 20.0093C24.3568 20.1242 24.3802 20.239 24.4036 20.3539C24.715 21.724 25.0419 23.0449 25.6025 24.1361C25.7185 24.3679 25.8512 24.5901 25.9995 24.8006C26.1086 24.9575 26.2255 25.1081 26.3498 25.2518C27.2763 26.3102 28.3428 26.5645 29.1525 26.5645C30.2813 26.5645 31.8773 26.0559 33.0529 23.6438C33.6523 22.405 34.1583 20.5754 34.3452 19.6483C34.532 18.7212 34.6722 17.8844 34.7344 17.3757C34.764 17.1526 34.7513 16.9255 34.6972 16.7075C34.643 16.4895 34.5484 16.285 34.4189 16.1057C34.2893 15.9265 34.1273 15.7761 33.9423 15.6631C33.7573 15.5502 33.5529 15.477 33.3409 15.4477L33.193 15.4313Z" fill="black" fill-opacity="0.95"/>
<path d="M45.6378 26V14.3636H52.9332V15.875H47.3935V19.4205H52.5526V20.9261H47.3935V24.4886H53.0014V26H45.6378ZM56.483 17.2727L58.4091 20.6705L60.3523 17.2727H62.2102L59.4886 21.6364L62.233 26H60.375L58.4091 22.7386L56.4489 26H54.5852L57.3011 21.6364L54.6193 17.2727H56.483ZM63.9545 29.2727V17.2727H65.6136V18.6875H65.7557C65.8542 18.5057 65.9962 18.2955 66.1818 18.0568C66.3674 17.8182 66.625 17.6098 66.9545 17.4318C67.2841 17.25 67.7197 17.1591 68.2614 17.1591C68.9659 17.1591 69.5947 17.3371 70.1477 17.6932C70.7008 18.0492 71.1345 18.5625 71.4489 19.233C71.767 19.9034 71.9261 20.7102 71.9261 21.6534C71.9261 22.5966 71.7689 23.4053 71.4545 24.0795C71.1402 24.75 70.7083 25.267 70.1591 25.6307C69.6098 25.9905 68.983 26.1705 68.2784 26.1705C67.7481 26.1705 67.3144 26.0814 66.9773 25.9034C66.6439 25.7254 66.3826 25.517 66.1932 25.2784C66.0038 25.0398 65.858 24.8277 65.7557 24.642H65.6534V29.2727H63.9545ZM65.6193 21.6364C65.6193 22.25 65.7083 22.7879 65.8864 23.25C66.0644 23.7121 66.322 24.0739 66.6591 24.3352C66.9962 24.5928 67.4091 24.7216 67.8977 24.7216C68.4053 24.7216 68.8295 24.5871 69.1705 24.3182C69.5114 24.0455 69.7689 23.6761 69.9432 23.2102C70.1212 22.7443 70.2102 22.2197 70.2102 21.6364C70.2102 21.0606 70.1231 20.5436 69.9489 20.0852C69.7784 19.6269 69.5208 19.2652 69.1761 19C68.8352 18.7348 68.4091 18.6023 67.8977 18.6023C67.4053 18.6023 66.9886 18.7292 66.6477 18.983C66.3106 19.2367 66.0549 19.5909 65.8807 20.0455C65.7064 20.5 65.6193 21.0303 65.6193 21.6364ZM75.5284 14.3636V26H73.8295V14.3636H75.5284ZM81.4901 26.1761C80.6719 26.1761 79.9579 25.9886 79.348 25.6136C78.7382 25.2386 78.2647 24.714 77.9276 24.0398C77.5904 23.3655 77.4219 22.5777 77.4219 21.6761C77.4219 20.7708 77.5904 19.9792 77.9276 19.3011C78.2647 18.6231 78.7382 18.0966 79.348 17.7216C79.9579 17.3466 80.6719 17.1591 81.4901 17.1591C82.3082 17.1591 83.0223 17.3466 83.6321 17.7216C84.242 18.0966 84.7154 18.6231 85.0526 19.3011C85.3897 19.9792 85.5582 20.7708 85.5582 21.6761C85.5582 22.5777 85.3897 23.3655 85.0526 24.0398C84.7154 24.714 84.242 25.2386 83.6321 25.6136C83.0223 25.9886 82.3082 26.1761 81.4901 26.1761ZM81.4957 24.75C82.026 24.75 82.4654 24.6098 82.8139 24.3295C83.1624 24.0492 83.42 23.6761 83.5866 23.2102C83.7571 22.7443 83.8423 22.2311 83.8423 21.6705C83.8423 21.1136 83.7571 20.6023 83.5866 20.1364C83.42 19.6667 83.1624 19.2898 82.8139 19.0057C82.4654 18.7216 82.026 18.5795 81.4957 18.5795C80.9616 18.5795 80.5185 18.7216 80.1662 19.0057C79.8177 19.2898 79.5582 19.6667 79.3878 20.1364C79.2211 20.6023 79.1378 21.1136 79.1378 21.6705C79.1378 22.2311 79.2211 22.7443 79.3878 23.2102C79.5582 23.6761 79.8177 24.0492 80.1662 24.3295C80.5185 24.6098 80.9616 24.75 81.4957 24.75ZM87.4545 26V17.2727H89.0966V18.6591H89.1875C89.3466 18.1894 89.6269 17.8201 90.0284 17.5511C90.4337 17.2784 90.892 17.142 91.4034 17.142C91.5095 17.142 91.6345 17.1458 91.7784 17.1534C91.9261 17.161 92.0417 17.1705 92.125 17.1818V18.8068C92.0568 18.7879 91.9356 18.767 91.7614 18.7443C91.5871 18.7178 91.4129 18.7045 91.2386 18.7045C90.8371 18.7045 90.4792 18.7898 90.1648 18.9602C89.8542 19.1269 89.608 19.3598 89.4261 19.6591C89.2443 19.9545 89.1534 20.2917 89.1534 20.6705V26H87.4545ZM97.044 26.1761C96.1842 26.1761 95.4437 25.9924 94.8224 25.625C94.205 25.2538 93.7277 24.733 93.3906 24.0625C93.0573 23.3883 92.8906 22.5985 92.8906 21.6932C92.8906 20.7992 93.0573 20.0114 93.3906 19.3295C93.7277 18.6477 94.1974 18.1155 94.7997 17.733C95.4058 17.3504 96.1141 17.1591 96.9247 17.1591C97.4171 17.1591 97.8944 17.2405 98.3565 17.4034C98.8187 17.5663 99.2334 17.822 99.6009 18.1705C99.9683 18.5189 100.258 18.9716 100.47 19.5284C100.682 20.0814 100.788 20.7538 100.788 21.5455V22.1477H93.8509V20.875H99.1236C99.1236 20.428 99.0327 20.0322 98.8509 19.6875C98.669 19.339 98.4134 19.0644 98.0838 18.8636C97.758 18.6629 97.3755 18.5625 96.9361 18.5625C96.4588 18.5625 96.0421 18.6799 95.6861 18.9148C95.3338 19.1458 95.0611 19.4489 94.8679 19.8239C94.6785 20.1951 94.5838 20.5985 94.5838 21.0341V22.0284C94.5838 22.6117 94.6861 23.108 94.8906 23.517C95.099 23.9261 95.3887 24.2386 95.7599 24.4545C96.1312 24.6667 96.5649 24.7727 97.0611 24.7727C97.383 24.7727 97.6766 24.7273 97.9418 24.6364C98.2069 24.5417 98.4361 24.4015 98.6293 24.2159C98.8224 24.0303 98.9702 23.8011 99.0724 23.5284L100.68 23.8182C100.552 24.2917 100.321 24.7064 99.9872 25.0625C99.6577 25.4148 99.2429 25.6894 98.7429 25.8864C98.2467 26.0795 97.6804 26.1761 97.044 26.1761ZM107.044 14.3636H109.175L112.879 23.4091H113.016L116.72 14.3636H118.851V26H117.18V17.5795H117.072L113.641 25.983H112.254L108.822 17.5739H108.714V26H107.044V14.3636ZM124.943 26.1761C124.125 26.1761 123.411 25.9886 122.801 25.6136C122.191 25.2386 121.718 24.714 121.381 24.0398C121.044 23.3655 120.875 22.5777 120.875 21.6761C120.875 20.7708 121.044 19.9792 121.381 19.3011C121.718 18.6231 122.191 18.0966 122.801 17.7216C123.411 17.3466 124.125 17.1591 124.943 17.1591C125.761 17.1591 126.475 17.3466 127.085 17.7216C127.695 18.0966 128.169 18.6231 128.506 19.3011C128.843 19.9792 129.011 20.7708 129.011 21.6761C129.011 22.5777 128.843 23.3655 128.506 24.0398C128.169 24.714 127.695 25.2386 127.085 25.6136C126.475 25.9886 125.761 26.1761 124.943 26.1761ZM124.949 24.75C125.479 24.75 125.919 24.6098 126.267 24.3295C126.616 24.0492 126.873 23.6761 127.04 23.2102C127.21 22.7443 127.295 22.2311 127.295 21.6705C127.295 21.1136 127.21 20.6023 127.04 20.1364C126.873 19.6667 126.616 19.2898 126.267 19.0057C125.919 18.7216 125.479 18.5795 124.949 18.5795C124.415 18.5795 123.972 18.7216 123.619 19.0057C123.271 19.2898 123.011 19.6667 122.841 20.1364C122.674 20.6023 122.591 21.1136 122.591 21.6705C122.591 22.2311 122.674 22.7443 122.841 23.2102C123.011 23.6761 123.271 24.0492 123.619 24.3295C123.972 24.6098 124.415 24.75 124.949 24.75ZM130.908 26V17.2727H132.538V18.6932H132.646C132.828 18.2121 133.125 17.8371 133.538 17.5682C133.951 17.2955 134.446 17.1591 135.021 17.1591C135.605 17.1591 136.093 17.2955 136.487 17.5682C136.885 17.8409 137.179 18.2159 137.368 18.6932H137.459C137.667 18.2273 137.999 17.8561 138.453 17.5795C138.908 17.2992 139.449 17.1591 140.078 17.1591C140.87 17.1591 141.516 17.4072 142.016 17.9034C142.519 18.3996 142.771 19.1477 142.771 20.1477V26H141.072V20.3068C141.072 19.7159 140.911 19.2879 140.589 19.0227C140.268 18.7576 139.883 18.625 139.436 18.625C138.883 18.625 138.453 18.7955 138.146 19.1364C137.839 19.4735 137.686 19.9072 137.686 20.4375V26H135.993V20.1989C135.993 19.7254 135.845 19.3447 135.55 19.0568C135.254 18.7689 134.87 18.625 134.396 18.625C134.074 18.625 133.777 18.7102 133.504 18.8807C133.235 19.0473 133.018 19.2803 132.851 19.5795C132.688 19.8788 132.607 20.2254 132.607 20.6193V26H130.908ZM148.81 26.1761C147.95 26.1761 147.209 25.9924 146.588 25.625C145.971 25.2538 145.493 24.733 145.156 24.0625C144.823 23.3883 144.656 22.5985 144.656 21.6932C144.656 20.7992 144.823 20.0114 145.156 19.3295C145.493 18.6477 145.963 18.1155 146.565 17.733C147.171 17.3504 147.88 17.1591 148.69 17.1591C149.183 17.1591 149.66 17.2405 150.122 17.4034C150.584 17.5663 150.999 17.822 151.366 18.1705C151.734 18.5189 152.024 18.9716 152.236 19.5284C152.448 20.0814 152.554 20.7538 152.554 21.5455V22.1477H145.616V20.875H150.889C150.889 20.428 150.798 20.0322 150.616 19.6875C150.435 19.339 150.179 19.0644 149.849 18.8636C149.524 18.6629 149.141 18.5625 148.702 18.5625C148.224 18.5625 147.808 18.6799 147.452 18.9148C147.099 19.1458 146.827 19.4489 146.634 19.8239C146.444 20.1951 146.349 20.5985 146.349 21.0341V22.0284C146.349 22.6117 146.452 23.108 146.656 23.517C146.865 23.9261 147.154 24.2386 147.526 24.4545C147.897 24.6667 148.33 24.7727 148.827 24.7727C149.149 24.7727 149.442 24.7273 149.707 24.6364C149.973 24.5417 150.202 24.4015 150.395 24.2159C150.588 24.0303 150.736 23.8011 150.838 23.5284L152.446 23.8182C152.317 24.2917 152.086 24.7064 151.753 25.0625C151.423 25.4148 151.009 25.6894 150.509 25.8864C150.012 26.0795 149.446 26.1761 148.81 26.1761ZM156.138 20.8182V26H154.439V17.2727H156.07V18.6932H156.178C156.378 18.2311 156.693 17.8598 157.121 17.5795C157.553 17.2992 158.096 17.1591 158.751 17.1591C159.346 17.1591 159.867 17.2841 160.314 17.5341C160.761 17.7803 161.107 18.1477 161.354 18.6364C161.6 19.125 161.723 19.7292 161.723 20.4489V26H160.024V20.6534C160.024 20.0208 159.859 19.5265 159.53 19.1705C159.2 18.8106 158.748 18.6307 158.172 18.6307C157.778 18.6307 157.428 18.7159 157.121 18.8864C156.818 19.0568 156.577 19.3068 156.399 19.6364C156.225 19.9621 156.138 20.3561 156.138 20.8182ZM168.075 17.2727V18.6364H163.308V17.2727H168.075ZM164.587 15.1818H166.286V23.4375C166.286 23.767 166.335 24.0152 166.433 24.1818C166.532 24.3447 166.659 24.4564 166.814 24.517C166.973 24.5739 167.145 24.6023 167.331 24.6023C167.467 24.6023 167.587 24.5928 167.689 24.5739C167.791 24.5549 167.871 24.5398 167.928 24.5284L168.234 25.9318C168.136 25.9697 167.996 26.0076 167.814 26.0455C167.632 26.0871 167.405 26.1098 167.132 26.1136C166.685 26.1212 166.268 26.0417 165.882 25.875C165.496 25.7083 165.183 25.4508 164.945 25.1023C164.706 24.7538 164.587 24.3163 164.587 23.7898V15.1818ZM175.483 22.3807V17.2727H177.188V26H175.517V24.4886H175.426C175.225 24.9545 174.903 25.3428 174.46 25.6534C174.021 25.9602 173.473 26.1136 172.818 26.1136C172.258 26.1136 171.761 25.9905 171.33 25.7443C170.902 25.4943 170.564 25.125 170.318 24.6364C170.076 24.1477 169.955 23.5436 169.955 22.8239V17.2727H171.653V22.6193C171.653 23.214 171.818 23.6875 172.148 24.0398C172.477 24.392 172.905 24.5682 173.432 24.5682C173.75 24.5682 174.066 24.4886 174.381 24.3295C174.699 24.1705 174.962 23.9299 175.17 23.608C175.383 23.286 175.487 22.8769 175.483 22.3807ZM179.47 26V17.2727H181.101V18.6932H181.209C181.391 18.2121 181.688 17.8371 182.101 17.5682C182.514 17.2955 183.008 17.1591 183.584 17.1591C184.167 17.1591 184.656 17.2955 185.05 17.5682C185.447 17.8409 185.741 18.2159 185.93 18.6932H186.021C186.23 18.2273 186.561 17.8561 187.016 17.5795C187.47 17.2992 188.012 17.1591 188.641 17.1591C189.432 17.1591 190.078 17.4072 190.578 17.9034C191.082 18.3996 191.334 19.1477 191.334 20.1477V26H189.635V20.3068C189.635 19.7159 189.474 19.2879 189.152 19.0227C188.83 18.7576 188.446 18.625 187.999 18.625C187.446 18.625 187.016 18.7955 186.709 19.1364C186.402 19.4735 186.249 19.9072 186.249 20.4375V26H184.555V20.1989C184.555 19.7254 184.408 19.3447 184.112 19.0568C183.817 18.7689 183.432 18.625 182.959 18.625C182.637 18.625 182.339 18.7102 182.067 18.8807C181.798 19.0473 181.58 19.2803 181.413 19.5795C181.25 19.8788 181.169 20.2254 181.169 20.6193V26H179.47ZM197.982 26V14.3636H202.129C203.035 14.3636 203.785 14.5284 204.379 14.858C204.974 15.1875 205.419 15.6383 205.714 16.2102C206.01 16.7784 206.158 17.4186 206.158 18.1307C206.158 18.8466 206.008 19.4905 205.709 20.0625C205.413 20.6307 204.966 21.0814 204.368 21.4148C203.773 21.7443 203.025 21.9091 202.124 21.9091H199.271V20.4205H201.964C202.536 20.4205 203 20.322 203.357 20.125C203.713 19.9242 203.974 19.6515 204.141 19.3068C204.307 18.9621 204.391 18.5701 204.391 18.1307C204.391 17.6913 204.307 17.3011 204.141 16.9602C203.974 16.6193 203.711 16.3523 203.351 16.1591C202.995 15.9659 202.525 15.8693 201.942 15.8693H199.737V26H197.982ZM209.778 20.8182V26H208.08V14.3636H209.756V18.6932H209.864C210.068 18.2235 210.381 17.8504 210.801 17.5739C211.222 17.2973 211.771 17.1591 212.449 17.1591C213.047 17.1591 213.57 17.2822 214.017 17.5284C214.468 17.7746 214.816 18.142 215.062 18.6307C215.312 19.1155 215.438 19.7216 215.438 20.4489V26H213.739V20.6534C213.739 20.0133 213.574 19.517 213.244 19.1648C212.915 18.8087 212.456 18.6307 211.869 18.6307C211.468 18.6307 211.108 18.7159 210.79 18.8864C210.475 19.0568 210.227 19.3068 210.045 19.6364C209.867 19.9621 209.778 20.3561 209.778 20.8182ZM217.705 26V17.2727H219.403V26H217.705ZM218.562 15.9261C218.267 15.9261 218.013 15.8277 217.801 15.6307C217.593 15.4299 217.489 15.1913 217.489 14.9148C217.489 14.6345 217.593 14.3958 217.801 14.1989C218.013 13.9981 218.267 13.8977 218.562 13.8977C218.858 13.8977 219.11 13.9981 219.318 14.1989C219.53 14.3958 219.636 14.6345 219.636 14.9148C219.636 15.1913 219.53 15.4299 219.318 15.6307C219.11 15.8277 218.858 15.9261 218.562 15.9261ZM223.388 14.3636V26H221.689V14.3636H223.388ZM229.349 26.1761C228.531 26.1761 227.817 25.9886 227.207 25.6136C226.598 25.2386 226.124 24.714 225.787 24.0398C225.45 23.3655 225.281 22.5777 225.281 21.6761C225.281 20.7708 225.45 19.9792 225.787 19.3011C226.124 18.6231 226.598 18.0966 227.207 17.7216C227.817 17.3466 228.531 17.1591 229.349 17.1591C230.168 17.1591 230.882 17.3466 231.491 17.7216C232.101 18.0966 232.575 18.6231 232.912 19.3011C233.249 19.9792 233.418 20.7708 233.418 21.6761C233.418 22.5777 233.249 23.3655 232.912 24.0398C232.575 24.714 232.101 25.2386 231.491 25.6136C230.882 25.9886 230.168 26.1761 229.349 26.1761ZM229.355 24.75C229.885 24.75 230.325 24.6098 230.673 24.3295C231.022 24.0492 231.279 23.6761 231.446 23.2102C231.616 22.7443 231.702 22.2311 231.702 21.6705C231.702 21.1136 231.616 20.6023 231.446 20.1364C231.279 19.6667 231.022 19.2898 230.673 19.0057C230.325 18.7216 229.885 18.5795 229.355 18.5795C228.821 18.5795 228.378 18.7216 228.026 19.0057C227.677 19.2898 227.418 19.6667 227.247 20.1364C227.08 20.6023 226.997 21.1136 226.997 21.6705C226.997 22.2311 227.08 22.7443 227.247 23.2102C227.418 23.6761 227.677 24.0492 228.026 24.3295C228.378 24.6098 228.821 24.75 229.355 24.75ZM241.854 19.4034L240.314 19.6761C240.25 19.4792 240.147 19.2917 240.007 19.1136C239.871 18.9356 239.685 18.7898 239.45 18.6761C239.215 18.5625 238.922 18.5057 238.57 18.5057C238.089 18.5057 237.687 18.6136 237.365 18.8295C237.043 19.0417 236.882 19.3163 236.882 19.6534C236.882 19.9451 236.99 20.1799 237.206 20.358C237.422 20.536 237.77 20.6818 238.251 20.7955L239.638 21.1136C240.441 21.2992 241.039 21.5852 241.433 21.9716C241.827 22.358 242.024 22.8598 242.024 23.4773C242.024 24 241.873 24.4659 241.57 24.875C241.27 25.2803 240.852 25.5985 240.314 25.8295C239.78 26.0606 239.161 26.1761 238.456 26.1761C237.479 26.1761 236.681 25.9678 236.064 25.5511C235.446 25.1307 235.068 24.5341 234.928 23.7614L236.57 23.5114C236.672 23.9394 236.882 24.2633 237.2 24.483C237.518 24.6989 237.933 24.8068 238.445 24.8068C239.001 24.8068 239.446 24.6913 239.78 24.4602C240.113 24.2254 240.28 23.9394 240.28 23.6023C240.28 23.3295 240.178 23.1004 239.973 22.9148C239.772 22.7292 239.464 22.589 239.047 22.4943L237.57 22.1705C236.755 21.9848 236.153 21.6894 235.763 21.2841C235.376 20.8788 235.183 20.3655 235.183 19.7443C235.183 19.2292 235.327 18.7784 235.615 18.392C235.903 18.0057 236.301 17.7045 236.808 17.4886C237.316 17.2689 237.897 17.1591 238.553 17.1591C239.496 17.1591 240.238 17.3636 240.78 17.7727C241.321 18.178 241.679 18.7216 241.854 19.4034ZM247.568 26.1761C246.75 26.1761 246.036 25.9886 245.426 25.6136C244.816 25.2386 244.343 24.714 244.006 24.0398C243.669 23.3655 243.5 22.5777 243.5 21.6761C243.5 20.7708 243.669 19.9792 244.006 19.3011C244.343 18.6231 244.816 18.0966 245.426 17.7216C246.036 17.3466 246.75 17.1591 247.568 17.1591C248.386 17.1591 249.1 17.3466 249.71 17.7216C250.32 18.0966 250.794 18.6231 251.131 19.3011C251.468 19.9792 251.636 20.7708 251.636 21.6761C251.636 22.5777 251.468 23.3655 251.131 24.0398C250.794 24.714 250.32 25.2386 249.71 25.6136C249.1 25.9886 248.386 26.1761 247.568 26.1761ZM247.574 24.75C248.104 24.75 248.544 24.6098 248.892 24.3295C249.241 24.0492 249.498 23.6761 249.665 23.2102C249.835 22.7443 249.92 22.2311 249.92 21.6705C249.92 21.1136 249.835 20.6023 249.665 20.1364C249.498 19.6667 249.241 19.2898 248.892 19.0057C248.544 18.7216 248.104 18.5795 247.574 18.5795C247.04 18.5795 246.597 18.7216 246.244 19.0057C245.896 19.2898 245.636 19.6667 245.466 20.1364C245.299 20.6023 245.216 21.1136 245.216 21.6705C245.216 22.2311 245.299 22.7443 245.466 23.2102C245.636 23.6761 245.896 24.0492 246.244 24.3295C246.597 24.6098 247.04 24.75 247.574 24.75ZM253.533 29.2727V17.2727H255.192V18.6875H255.334C255.432 18.5057 255.574 18.2955 255.76 18.0568C255.946 17.8182 256.203 17.6098 256.533 17.4318C256.862 17.25 257.298 17.1591 257.839 17.1591C258.544 17.1591 259.173 17.3371 259.726 17.6932C260.279 18.0492 260.713 18.5625 261.027 19.233C261.345 19.9034 261.504 20.7102 261.504 21.6534C261.504 22.5966 261.347 23.4053 261.033 24.0795C260.718 24.75 260.286 25.267 259.737 25.6307C259.188 25.9905 258.561 26.1705 257.857 26.1705C257.326 26.1705 256.893 26.0814 256.555 25.9034C256.222 25.7254 255.961 25.517 255.771 25.2784C255.582 25.0398 255.436 24.8277 255.334 24.642H255.232V29.2727H253.533ZM255.197 21.6364C255.197 22.25 255.286 22.7879 255.464 23.25C255.643 23.7121 255.9 24.0739 256.237 24.3352C256.574 24.5928 256.987 24.7216 257.476 24.7216C257.983 24.7216 258.408 24.5871 258.749 24.3182C259.089 24.0455 259.347 23.6761 259.521 23.2102C259.699 22.7443 259.788 22.2197 259.788 21.6364C259.788 21.0606 259.701 20.5436 259.527 20.0852C259.357 19.6269 259.099 19.2652 258.754 19C258.413 18.7348 257.987 18.6023 257.476 18.6023C256.983 18.6023 256.567 18.7292 256.226 18.983C255.889 19.2367 255.633 19.5909 255.459 20.0455C255.285 20.5 255.197 21.0303 255.197 21.6364ZM265.107 20.8182V26H263.408V14.3636H265.084V18.6932H265.192C265.396 18.2235 265.709 17.8504 266.129 17.5739C266.55 17.2973 267.099 17.1591 267.777 17.1591C268.375 17.1591 268.898 17.2822 269.345 17.5284C269.796 17.7746 270.144 18.142 270.391 18.6307C270.641 19.1155 270.766 19.7216 270.766 20.4489V26H269.067V20.6534C269.067 20.0133 268.902 19.517 268.572 19.1648C268.243 18.8087 267.785 18.6307 267.197 18.6307C266.796 18.6307 266.436 18.7159 266.118 18.8864C265.804 19.0568 265.555 19.3068 265.374 19.6364C265.196 19.9621 265.107 20.3561 265.107 20.8182ZM273.794 29.2727C273.54 29.2727 273.309 29.2519 273.101 29.2102C272.893 29.1723 272.737 29.1307 272.635 29.0852L273.044 27.6932C273.355 27.7765 273.631 27.8125 273.874 27.8011C274.116 27.7898 274.33 27.6989 274.516 27.5284C274.705 27.358 274.872 27.0795 275.016 26.6932L275.226 26.1136L272.033 17.2727H273.851L276.061 24.0455H276.152L278.362 17.2727H280.186L276.589 27.1648C276.423 27.6193 276.211 28.0038 275.953 28.3182C275.696 28.6364 275.389 28.875 275.033 29.0341C274.677 29.1932 274.264 29.2727 273.794 29.2727Z" fill="black" fill-opacity="0.95"/>
</svg>
