<svg width="16" height="16" viewBox="0 0 16 16" fill="none" xmlns="http://www.w3.org/2000/svg">
<path d="M5.5 1.375C5.70711 1.375 5.875 1.54289 5.875 1.75V2.625H6.75C6.95711 2.625 7.125 2.79289 7.125 3C7.125 3.20711 6.95711 3.375 6.75 3.375H5.875V4.25C5.875 4.45711 5.70711 4.625 5.5 4.625C5.29289 4.625 5.125 4.45711 5.125 4.25V3.375H4.25C4.04289 3.375 3.875 3.20711 3.875 3C3.875 2.79289 4.04289 2.625 4.25 2.625H5.125V1.75C5.125 1.54289 5.29289 1.375 5.5 1.375ZM12.8342 1.81503C13.137 1.94049 13.4122 2.12438 13.644 2.35619C14.1114 2.82474 14.3738 3.45952 14.3738 4.12132C14.3738 4.78311 14.1114 5.41789 13.644 5.88644L5.41155 14.1185C5.33057 14.2001 5.23417 14.2648 5.12797 14.3088C5.02176 14.3528 4.90787 14.3753 4.7929 14.3749H2.5C2.26803 14.3746 2.04563 14.2823 1.88159 14.1183C1.71756 13.9543 1.62528 13.7319 1.625 13.4999V11.207C1.62464 11.0921 1.6471 10.9782 1.6911 10.872C1.7351 10.7658 1.79975 10.6694 1.8813 10.5884L10.1137 2.35619C10.3455 2.12438 10.6207 1.94049 10.9236 1.81503C11.2264 1.68957 11.551 1.625 11.8789 1.625C12.2067 1.625 12.5313 1.68957 12.8342 1.81503ZM4.8813 13.5884L13.1137 5.35619C13.4412 5.02869 13.6253 4.58473 13.6253 4.12155C13.6253 3.65836 13.4414 3.21413 13.1139 2.88659C12.7864 2.55905 12.3421 2.37502 11.879 2.37499C11.4158 2.37496 10.9715 2.55894 10.644 2.88644L2.4116 11.1186C2.38819 11.1421 2.37503 11.1739 2.375 11.207V13.4999C2.37499 13.5163 2.37821 13.5326 2.38449 13.5478C2.39077 13.5629 2.39997 13.5767 2.41158 13.5883C2.42319 13.6 2.43697 13.6092 2.45215 13.6155C2.46732 13.6218 2.48358 13.625 2.5 13.625H4.7929C4.80933 13.625 4.8256 13.6218 4.84077 13.6156C4.85595 13.6093 4.86972 13.6 4.8813 13.5884ZM12.875 11C12.875 10.7929 12.7071 10.625 12.5 10.625C12.2929 10.625 12.125 10.7929 12.125 11V12.125H11C10.7929 12.125 10.625 12.2929 10.625 12.5C10.625 12.7071 10.7929 12.875 11 12.875H12.125V14C12.125 14.2071 12.2929 14.375 12.5 14.375C12.7071 14.375 12.875 14.2071 12.875 14V12.875H14C14.2071 12.875 14.375 12.7071 14.375 12.5C14.375 12.2929 14.2071 12.125 14 12.125H12.875V11ZM2.5 5.125C2.70711 5.125 2.875 5.29289 2.875 5.5V6.125H3.5C3.70711 6.125 3.875 6.29289 3.875 6.5C3.875 6.70711 3.70711 6.875 3.5 6.875H2.875V7.5C2.875 7.70711 2.70711 7.875 2.5 7.875C2.29289 7.875 2.125 7.70711 2.125 7.5V6.875H1.5C1.29289 6.875 1.125 6.70711 1.125 6.5C1.125 6.29289 1.29289 6.125 1.5 6.125H2.125V5.5C2.125 5.29289 2.29289 5.125 2.5 5.125Z" fill="white" fill-opacity="0.95"/>
</svg>
