<svg width="16" height="16" viewBox="0 0 16 16" fill="none" xmlns="http://www.w3.org/2000/svg">
<path d="M12.8957 4.59678L9.3967 2.07973C8.99136 1.78378 8.5025 1.6242 8.00061 1.62402C7.49873 1.62384 7.00975 1.78307 6.6042 2.07873L3.10275 4.59778C2.80029 4.81861 2.55414 5.10761 2.38426 5.44136C2.21438 5.7751 2.12556 6.14419 2.125 6.51868V12.0001C2.12573 12.6297 2.37618 13.2334 2.82143 13.6787C3.26667 14.1239 3.87033 14.3744 4.5 14.3751H6C6.23198 14.3748 6.45438 14.2825 6.61841 14.1185C6.78245 13.9545 6.87472 13.7321 6.875 13.5001V10.5001C6.875 10.4669 6.88817 10.4351 6.91161 10.4117C6.93505 10.3883 6.96685 10.3751 7 10.3751H9C9.03315 10.3751 9.06495 10.3883 9.08839 10.4117C9.11183 10.4351 9.125 10.4669 9.125 10.5001V13.5001C9.12529 13.7321 9.21757 13.9544 9.3816 14.1185C9.54563 14.2825 9.76802 14.3748 10 14.3751H11.5C12.1297 14.3744 12.7333 14.1239 13.1786 13.6787C13.6238 13.2334 13.8743 12.6298 13.875 12.0001V6.51868C13.8744 6.14389 13.7854 5.77453 13.6152 5.44059C13.4451 5.10665 13.1986 4.81755 12.8957 4.59678ZM13.125 12.0001C13.1245 12.4309 12.9531 12.8439 12.6485 13.1486C12.3439 13.4532 11.9308 13.6246 11.5 13.6251H10C9.96685 13.6251 9.93505 13.6119 9.91161 13.5885C9.88817 13.565 9.875 13.5332 9.875 13.5001V10.5001C9.87472 10.2681 9.78244 10.0457 9.61841 9.88167C9.45438 9.71764 9.23198 9.62536 9 9.62508H7C6.76802 9.62536 6.54562 9.71764 6.38159 9.88167C6.21755 10.0457 6.12528 10.2681 6.125 10.5001V13.5001C6.125 13.5332 6.11183 13.565 6.08839 13.5885C6.06495 13.6119 6.03315 13.6251 6 13.6251H4.5C4.06918 13.6246 3.65614 13.4532 3.35151 13.1486C3.04687 12.8439 2.8755 12.4309 2.875 12.0001V6.51868C2.87531 6.26271 2.9359 6.01041 3.05187 5.78221C3.16784 5.55401 3.33592 5.35633 3.5425 5.20518L7.04345 2.68618C7.32146 2.48379 7.65653 2.37484 8.0004 2.37501C8.34428 2.37518 8.67924 2.48447 8.95705 2.68713L12.4556 5.20423C12.6627 5.35525 12.8312 5.55299 12.9475 5.78138C13.0639 6.00977 13.1247 6.26238 13.125 6.51868V12.0001Z" fill="white" fill-opacity="0.95"/>
</svg>
