<svg width="16" height="16" viewBox="0 0 16 16" fill="none" xmlns="http://www.w3.org/2000/svg">
<path d="M8 1.125C6.64026 1.125 5.31105 1.52821 4.18046 2.28365C3.04987 3.03908 2.16868 4.11281 1.64833 5.36905C1.12798 6.62529 0.991831 8.00763 1.2571 9.34125C1.52238 10.6749 2.17716 11.8999 3.13864 12.8614C4.10013 13.8228 5.32514 14.4776 6.65876 14.7429C7.99238 15.0082 9.37471 14.872 10.631 14.3517C11.8872 13.8313 12.9609 12.9501 13.7164 11.8195C14.4718 10.689 14.875 9.35975 14.875 8C14.8729 6.17727 14.148 4.42978 12.8591 3.14092C11.5702 1.85205 9.82273 1.12706 8 1.125ZM8 14.125C6.78859 14.125 5.60439 13.7658 4.59714 13.0928C3.58988 12.4197 2.80483 11.4631 2.34124 10.3439C1.87765 9.22474 1.75636 7.99321 1.99269 6.80507C2.22903 5.61694 2.81238 4.52557 3.66897 3.66897C4.52557 2.81237 5.61694 2.22902 6.80508 1.99269C7.99321 1.75636 9.22474 1.87765 10.3439 2.34124C11.4631 2.80482 12.4197 3.58988 13.0928 4.59713C13.7658 5.60438 14.125 6.78859 14.125 8C14.1232 9.6239 13.4773 11.1808 12.329 12.329C11.1808 13.4773 9.6239 14.1232 8 14.125Z" fill="white" fill-opacity="0.95"/>
<path d="M8.00006 11.3749C8.27621 11.3749 8.50006 11.1511 8.50006 10.8749C8.50006 10.5988 8.27621 10.3749 8.00006 10.3749C7.72392 10.3749 7.50006 10.5988 7.50006 10.8749C7.50006 11.1511 7.72392 11.3749 8.00006 11.3749Z" fill="white" fill-opacity="0.95"/>
<path d="M8 4.625C7.50128 4.62719 7.02379 4.82711 6.67229 5.18091C6.32078 5.5347 6.12396 6.01348 6.125 6.51221C6.125 6.61166 6.16451 6.70704 6.23484 6.77737C6.30516 6.8477 6.40055 6.88721 6.5 6.88721C6.59946 6.88721 6.69484 6.8477 6.76517 6.77737C6.83549 6.70704 6.875 6.61166 6.875 6.51221C6.8734 6.36345 6.90132 6.21586 6.95714 6.07796C7.01296 5.94007 7.09557 5.81461 7.2002 5.70886C7.30482 5.6031 7.42938 5.51915 7.56667 5.46185C7.70395 5.40455 7.85124 5.37505 8 5.37505C8.14877 5.37505 8.29605 5.40455 8.43334 5.46185C8.57062 5.51915 8.69518 5.6031 8.79981 5.70886C8.90443 5.81461 8.98705 5.94007 9.04286 6.07796C9.09868 6.21586 9.1266 6.36345 9.125 6.51221C9.1232 6.80899 9.00373 7.09293 8.79282 7.30173C8.58191 7.51054 8.29679 7.62715 8 7.62598C7.90056 7.626 7.80519 7.66552 7.73487 7.73584C7.66455 7.80616 7.62503 7.90153 7.625 8.00098L7.62525 8.99997C7.62525 9.09943 7.66476 9.19481 7.73508 9.26514C7.80541 9.33547 7.90079 9.37497 8.00025 9.37497C8.0997 9.37497 8.19509 9.33547 8.26541 9.26514C8.33574 9.19481 8.37525 9.09943 8.37525 8.99997L8.375 8.33836C8.83031 8.24529 9.23486 7.9865 9.51025 7.61216C9.78563 7.23782 9.91225 6.77458 9.86556 6.3122C9.81886 5.84983 9.60219 5.42126 9.25752 5.10953C8.91285 4.79781 8.46473 4.62516 8 4.625Z" fill="white" fill-opacity="0.95"/>
</svg>
