<svg width="52" height="52" viewBox="0 0 52 52" fill="none" xmlns="http://www.w3.org/2000/svg">
<rect width="52" height="52" rx="26" fill="white" fill-opacity="0.95"/>
<path d="M35.6252 14.625L16.3752 14.6259C16.1431 14.6259 15.9206 14.7181 15.7565 14.8822C15.5924 15.0463 15.5002 15.2688 15.5002 15.5009C15.5002 15.7329 15.5924 15.9555 15.7565 16.1196C15.9206 16.2837 16.1431 16.3759 16.3752 16.3759L35.6252 16.375C35.8573 16.375 36.0798 16.2828 36.2439 16.1187C36.408 15.9546 36.5002 15.7321 36.5002 15.5C36.5002 15.2679 36.408 15.0454 36.2439 14.8813C36.0798 14.7172 35.8573 14.625 35.6252 14.625Z" fill="black" fill-opacity="0.95"/>
<path d="M37.1187 32.3816L26.6187 21.8816C26.4546 21.7175 26.2321 21.6253 26 21.6253C25.768 21.6253 25.5455 21.7175 25.3814 21.8816L14.8814 32.3816C14.7984 32.4624 14.7324 32.559 14.687 32.6655C14.6417 32.7721 14.6179 32.8867 14.6172 33.0025C14.6165 33.1184 14.6387 33.2332 14.6827 33.3403C14.7267 33.4475 14.7916 33.5449 14.8735 33.6268C14.9554 33.7087 15.0527 33.7735 15.1599 33.8175C15.2671 33.8615 15.3819 33.8838 15.4977 33.883C15.6136 33.8823 15.7281 33.8586 15.8347 33.8132C15.9413 33.7679 16.0378 33.7018 16.1187 33.6189L26 23.7375L35.8814 33.6189C35.9622 33.7018 36.0588 33.7679 36.1654 33.8132C36.2719 33.8586 36.3865 33.8823 36.5023 33.883C36.6182 33.8838 36.733 33.8615 36.8402 33.8175C36.9473 33.7735 37.0447 33.7087 37.1266 33.6268C37.2085 33.5449 37.2733 33.4475 37.3173 33.3403C37.3613 33.2332 37.3836 33.1184 37.3829 33.0025C37.3821 32.8867 37.3584 32.7721 37.313 32.6655C37.2677 32.559 37.2016 32.4624 37.1187 32.3816Z" fill="black" fill-opacity="0.95"/>
</svg>
