<svg width="24" height="25" viewBox="0 0 24 25" fill="none" xmlns="http://www.w3.org/2000/svg">
<path d="M12 2.96094C6.5 2.96094 2 7.45094 2 12.9809C2 17.9809 5.66 22.1309 10.44 22.8809V15.8809H7.9V12.9809H10.44V10.7709C10.44 8.26094 11.93 6.88094 14.22 6.88094C15.31 6.88094 16.45 7.07094 16.45 7.07094V9.54094H15.19C13.95 9.54094 13.56 10.3109 13.56 11.1009V12.9809H16.34L15.89 15.8809H13.56V22.8809C15.9164 22.5088 18.0622 21.3065 19.6099 19.491C21.1576 17.6755 22.0054 15.3666 22 12.9809C22 7.45094 17.5 2.96094 12 2.96094Z" fill="white"/>
</svg>
