<svg width="24" height="25" viewBox="0 0 24 25" fill="none" xmlns="http://www.w3.org/2000/svg">
<path d="M7.8 2.9209H16.2C19.4 2.9209 22 5.5209 22 8.7209V17.1209C22 18.6592 21.3889 20.1344 20.3012 21.2221C19.2135 22.3098 17.7383 22.9209 16.2 22.9209H7.8C4.6 22.9209 2 20.3209 2 17.1209V8.7209C2 7.18264 2.61107 5.70739 3.69878 4.61968C4.78649 3.53197 6.26174 2.9209 7.8 2.9209ZM7.6 4.9209C6.64522 4.9209 5.72955 5.30018 5.05442 5.97532C4.37928 6.65045 4 7.56612 4 8.5209V17.3209C4 19.3109 5.61 20.9209 7.6 20.9209H16.4C17.3548 20.9209 18.2705 20.5416 18.9456 19.8665C19.6207 19.1914 20 18.2757 20 17.3209V8.5209C20 6.5309 18.39 4.9209 16.4 4.9209H7.6ZM17.25 6.4209C17.5815 6.4209 17.8995 6.5526 18.1339 6.78702C18.3683 7.02144 18.5 7.33938 18.5 7.6709C18.5 8.00242 18.3683 8.32036 18.1339 8.55478C17.8995 8.7892 17.5815 8.9209 17.25 8.9209C16.9185 8.9209 16.6005 8.7892 16.3661 8.55478C16.1317 8.32036 16 8.00242 16 7.6709C16 7.33938 16.1317 7.02144 16.3661 6.78702C16.6005 6.5526 16.9185 6.4209 17.25 6.4209ZM12 7.9209C13.3261 7.9209 14.5979 8.44768 15.5355 9.38537C16.4732 10.323 17 11.5948 17 12.9209C17 14.247 16.4732 15.5188 15.5355 16.4564C14.5979 17.3941 13.3261 17.9209 12 17.9209C10.6739 17.9209 9.40215 17.3941 8.46447 16.4564C7.52678 15.5188 7 14.247 7 12.9209C7 11.5948 7.52678 10.323 8.46447 9.38537C9.40215 8.44768 10.6739 7.9209 12 7.9209ZM12 9.9209C11.2044 9.9209 10.4413 10.237 9.87868 10.7996C9.31607 11.3622 9 12.1253 9 12.9209C9 13.7165 9.31607 14.4796 9.87868 15.0422C10.4413 15.6048 11.2044 15.9209 12 15.9209C12.7956 15.9209 13.5587 15.6048 14.1213 15.0422C14.6839 14.4796 15 13.7165 15 12.9209C15 12.1253 14.6839 11.3622 14.1213 10.7996C13.5587 10.237 12.7956 9.9209 12 9.9209Z" fill="white"/>
</svg>
